<?xml version="1.0" encoding="utf-8" standalone="no"?>
<!DOCTYPE svg PUBLIC "-//W3C//DTD SVG 1.1//EN"
  "http://www.w3.org/Graphics/SVG/1.1/DTD/svg11.dtd">
<svg xmlns:xlink="http://www.w3.org/1999/xlink" width="864pt" height="360pt" viewBox="0 0 864 360" xmlns="http://www.w3.org/2000/svg" version="1.1">
 <metadata>
  <rdf:RDF xmlns:dc="http://purl.org/dc/elements/1.1/" xmlns:cc="http://creativecommons.org/ns#" xmlns:rdf="http://www.w3.org/1999/02/22-rdf-syntax-ns#">
   <cc:Work>
    <dc:type rdf:resource="http://purl.org/dc/dcmitype/StillImage"/>
    <dc:date>2024-07-02T20:05:07.497296</dc:date>
    <dc:format>image/svg+xml</dc:format>
    <dc:creator>
     <cc:Agent>
      <dc:title>Matplotlib v3.9.0, https://matplotlib.org/</dc:title>
     </cc:Agent>
    </dc:creator>
   </cc:Work>
  </rdf:RDF>
 </metadata>
 <defs>
  <style type="text/css">*{stroke-linejoin: round; stroke-linecap: butt}</style>
 </defs>
 <g id="figure_1">
  <g id="patch_1">
   <path d="M 0 360 
L 864 360 
L 864 0 
L 0 0 
L 0 360 
z
" style="fill: none; opacity: 0"/>
  </g>
  <g id="axes_1">
   <g id="patch_2">
    <path d="M 108 320.4 
L 777.6 320.4 
L 777.6 43.2 
L 108 43.2 
L 108 320.4 
z
" style="fill: none; opacity: 0"/>
   </g>
   <g id="matplotlib.axis_1">
    <g id="xtick_1">
     <g id="line2d_1">
      <path d="M 160.540985 320.4 
L 160.540985 43.2 
" clip-path="url(#p26ca01a0f3)" style="fill: none; stroke-dasharray: 5.12,1.28,0.8,1.28; stroke-dashoffset: 0; stroke: #b0b0b0; stroke-width: 0.8"/>
     </g>
     <g id="line2d_2">
      <defs>
       <path id="m5aeb43d76d" d="M 0 0 
L 0 3.5 
" style="stroke: #a9a9a9; stroke-width: 0.8"/>
      </defs>
      <g>
       <use xlink:href="#m5aeb43d76d" x="160.540985" y="320.4" style="fill: #a9a9a9; stroke: #a9a9a9; stroke-width: 0.8"/>
      </g>
     </g>
     <g id="text_1">
      <!-- 2021-09 -->
      <g style="fill: #a9a9a9" transform="translate(139.649579 334.998438) scale(0.1 -0.1)">
       <defs>
        <path id="DejaVuSans-32" d="M 1228 531 
L 3431 531 
L 3431 0 
L 469 0 
L 469 531 
Q 828 903 1448 1529 
Q 2069 2156 2228 2338 
Q 2531 2678 2651 2914 
Q 2772 3150 2772 3378 
Q 2772 3750 2511 3984 
Q 2250 4219 1831 4219 
Q 1534 4219 1204 4116 
Q 875 4013 500 3803 
L 500 4441 
Q 881 4594 1212 4672 
Q 1544 4750 1819 4750 
Q 2544 4750 2975 4387 
Q 3406 4025 3406 3419 
Q 3406 3131 3298 2873 
Q 3191 2616 2906 2266 
Q 2828 2175 2409 1742 
Q 1991 1309 1228 531 
z
" transform="scale(0.015625)"/>
        <path id="DejaVuSans-30" d="M 2034 4250 
Q 1547 4250 1301 3770 
Q 1056 3291 1056 2328 
Q 1056 1369 1301 889 
Q 1547 409 2034 409 
Q 2525 409 2770 889 
Q 3016 1369 3016 2328 
Q 3016 3291 2770 3770 
Q 2525 4250 2034 4250 
z
M 2034 4750 
Q 2819 4750 3233 4129 
Q 3647 3509 3647 2328 
Q 3647 1150 3233 529 
Q 2819 -91 2034 -91 
Q 1250 -91 836 529 
Q 422 1150 422 2328 
Q 422 3509 836 4129 
Q 1250 4750 2034 4750 
z
" transform="scale(0.015625)"/>
        <path id="DejaVuSans-31" d="M 794 531 
L 1825 531 
L 1825 4091 
L 703 3866 
L 703 4441 
L 1819 4666 
L 2450 4666 
L 2450 531 
L 3481 531 
L 3481 0 
L 794 0 
L 794 531 
z
" transform="scale(0.015625)"/>
        <path id="DejaVuSans-2d" d="M 313 2009 
L 1997 2009 
L 1997 1497 
L 313 1497 
L 313 2009 
z
" transform="scale(0.015625)"/>
        <path id="DejaVuSans-39" d="M 703 97 
L 703 672 
Q 941 559 1184 500 
Q 1428 441 1663 441 
Q 2288 441 2617 861 
Q 2947 1281 2994 2138 
Q 2813 1869 2534 1725 
Q 2256 1581 1919 1581 
Q 1219 1581 811 2004 
Q 403 2428 403 3163 
Q 403 3881 828 4315 
Q 1253 4750 1959 4750 
Q 2769 4750 3195 4129 
Q 3622 3509 3622 2328 
Q 3622 1225 3098 567 
Q 2575 -91 1691 -91 
Q 1453 -91 1209 -44 
Q 966 3 703 97 
z
M 1959 2075 
Q 2384 2075 2632 2365 
Q 2881 2656 2881 3163 
Q 2881 3666 2632 3958 
Q 2384 4250 1959 4250 
Q 1534 4250 1286 3958 
Q 1038 3666 1038 3163 
Q 1038 2656 1286 2365 
Q 1534 2075 1959 2075 
z
" transform="scale(0.015625)"/>
       </defs>
       <use xlink:href="#DejaVuSans-32"/>
       <use xlink:href="#DejaVuSans-30" x="63.623047"/>
       <use xlink:href="#DejaVuSans-32" x="127.246094"/>
       <use xlink:href="#DejaVuSans-31" x="190.869141"/>
       <use xlink:href="#DejaVuSans-2d" x="254.492188"/>
       <use xlink:href="#DejaVuSans-30" x="290.576172"/>
       <use xlink:href="#DejaVuSans-39" x="354.199219"/>
      </g>
     </g>
    </g>
    <g id="xtick_2">
     <g id="line2d_3">
      <path d="M 229.688776 320.4 
L 229.688776 43.2 
" clip-path="url(#p26ca01a0f3)" style="fill: none; stroke-dasharray: 5.12,1.28,0.8,1.28; stroke-dashoffset: 0; stroke: #b0b0b0; stroke-width: 0.8"/>
     </g>
     <g id="line2d_4">
      <g>
       <use xlink:href="#m5aeb43d76d" x="229.688776" y="320.4" style="fill: #a9a9a9; stroke: #a9a9a9; stroke-width: 0.8"/>
      </g>
     </g>
     <g id="text_2">
      <!-- 2022-01 -->
      <g style="fill: #a9a9a9" transform="translate(208.79737 334.998438) scale(0.1 -0.1)">
       <use xlink:href="#DejaVuSans-32"/>
       <use xlink:href="#DejaVuSans-30" x="63.623047"/>
       <use xlink:href="#DejaVuSans-32" x="127.246094"/>
       <use xlink:href="#DejaVuSans-32" x="190.869141"/>
       <use xlink:href="#DejaVuSans-2d" x="254.492188"/>
       <use xlink:href="#DejaVuSans-30" x="290.576172"/>
       <use xlink:href="#DejaVuSans-31" x="354.199219"/>
      </g>
     </g>
    </g>
    <g id="xtick_3">
     <g id="line2d_5">
      <path d="M 297.702996 320.4 
L 297.702996 43.2 
" clip-path="url(#p26ca01a0f3)" style="fill: none; stroke-dasharray: 5.12,1.28,0.8,1.28; stroke-dashoffset: 0; stroke: #b0b0b0; stroke-width: 0.8"/>
     </g>
     <g id="line2d_6">
      <g>
       <use xlink:href="#m5aeb43d76d" x="297.702996" y="320.4" style="fill: #a9a9a9; stroke: #a9a9a9; stroke-width: 0.8"/>
      </g>
     </g>
     <g id="text_3">
      <!-- 2022-05 -->
      <g style="fill: #a9a9a9" transform="translate(276.81159 334.998438) scale(0.1 -0.1)">
       <defs>
        <path id="DejaVuSans-35" d="M 691 4666 
L 3169 4666 
L 3169 4134 
L 1269 4134 
L 1269 2991 
Q 1406 3038 1543 3061 
Q 1681 3084 1819 3084 
Q 2600 3084 3056 2656 
Q 3513 2228 3513 1497 
Q 3513 744 3044 326 
Q 2575 -91 1722 -91 
Q 1428 -91 1123 -41 
Q 819 9 494 109 
L 494 744 
Q 775 591 1075 516 
Q 1375 441 1709 441 
Q 2250 441 2565 725 
Q 2881 1009 2881 1497 
Q 2881 1984 2565 2268 
Q 2250 2553 1709 2553 
Q 1456 2553 1204 2497 
Q 953 2441 691 2322 
L 691 4666 
z
" transform="scale(0.015625)"/>
       </defs>
       <use xlink:href="#DejaVuSans-32"/>
       <use xlink:href="#DejaVuSans-30" x="63.623047"/>
       <use xlink:href="#DejaVuSans-32" x="127.246094"/>
       <use xlink:href="#DejaVuSans-32" x="190.869141"/>
       <use xlink:href="#DejaVuSans-2d" x="254.492188"/>
       <use xlink:href="#DejaVuSans-30" x="290.576172"/>
       <use xlink:href="#DejaVuSans-35" x="354.199219"/>
      </g>
     </g>
    </g>
    <g id="xtick_4">
     <g id="line2d_7">
      <path d="M 367.417572 320.4 
L 367.417572 43.2 
" clip-path="url(#p26ca01a0f3)" style="fill: none; stroke-dasharray: 5.12,1.28,0.8,1.28; stroke-dashoffset: 0; stroke: #b0b0b0; stroke-width: 0.8"/>
     </g>
     <g id="line2d_8">
      <g>
       <use xlink:href="#m5aeb43d76d" x="367.417572" y="320.4" style="fill: #a9a9a9; stroke: #a9a9a9; stroke-width: 0.8"/>
      </g>
     </g>
     <g id="text_4">
      <!-- 2022-09 -->
      <g style="fill: #a9a9a9" transform="translate(346.526166 334.998438) scale(0.1 -0.1)">
       <use xlink:href="#DejaVuSans-32"/>
       <use xlink:href="#DejaVuSans-30" x="63.623047"/>
       <use xlink:href="#DejaVuSans-32" x="127.246094"/>
       <use xlink:href="#DejaVuSans-32" x="190.869141"/>
       <use xlink:href="#DejaVuSans-2d" x="254.492188"/>
       <use xlink:href="#DejaVuSans-30" x="290.576172"/>
       <use xlink:href="#DejaVuSans-39" x="354.199219"/>
      </g>
     </g>
    </g>
    <g id="xtick_5">
     <g id="line2d_9">
      <path d="M 436.565363 320.4 
L 436.565363 43.2 
" clip-path="url(#p26ca01a0f3)" style="fill: none; stroke-dasharray: 5.12,1.28,0.8,1.28; stroke-dashoffset: 0; stroke: #b0b0b0; stroke-width: 0.8"/>
     </g>
     <g id="line2d_10">
      <g>
       <use xlink:href="#m5aeb43d76d" x="436.565363" y="320.4" style="fill: #a9a9a9; stroke: #a9a9a9; stroke-width: 0.8"/>
      </g>
     </g>
     <g id="text_5">
      <!-- 2023-01 -->
      <g style="fill: #a9a9a9" transform="translate(415.673957 334.998438) scale(0.1 -0.1)">
       <defs>
        <path id="DejaVuSans-33" d="M 2597 2516 
Q 3050 2419 3304 2112 
Q 3559 1806 3559 1356 
Q 3559 666 3084 287 
Q 2609 -91 1734 -91 
Q 1441 -91 1130 -33 
Q 819 25 488 141 
L 488 750 
Q 750 597 1062 519 
Q 1375 441 1716 441 
Q 2309 441 2620 675 
Q 2931 909 2931 1356 
Q 2931 1769 2642 2001 
Q 2353 2234 1838 2234 
L 1294 2234 
L 1294 2753 
L 1863 2753 
Q 2328 2753 2575 2939 
Q 2822 3125 2822 3475 
Q 2822 3834 2567 4026 
Q 2313 4219 1838 4219 
Q 1578 4219 1281 4162 
Q 984 4106 628 3988 
L 628 4550 
Q 988 4650 1302 4700 
Q 1616 4750 1894 4750 
Q 2613 4750 3031 4423 
Q 3450 4097 3450 3541 
Q 3450 3153 3228 2886 
Q 3006 2619 2597 2516 
z
" transform="scale(0.015625)"/>
       </defs>
       <use xlink:href="#DejaVuSans-32"/>
       <use xlink:href="#DejaVuSans-30" x="63.623047"/>
       <use xlink:href="#DejaVuSans-32" x="127.246094"/>
       <use xlink:href="#DejaVuSans-33" x="190.869141"/>
       <use xlink:href="#DejaVuSans-2d" x="254.492188"/>
       <use xlink:href="#DejaVuSans-30" x="290.576172"/>
       <use xlink:href="#DejaVuSans-31" x="354.199219"/>
      </g>
     </g>
    </g>
    <g id="xtick_6">
     <g id="line2d_11">
      <path d="M 504.579584 320.4 
L 504.579584 43.2 
" clip-path="url(#p26ca01a0f3)" style="fill: none; stroke-dasharray: 5.12,1.28,0.8,1.28; stroke-dashoffset: 0; stroke: #b0b0b0; stroke-width: 0.8"/>
     </g>
     <g id="line2d_12">
      <g>
       <use xlink:href="#m5aeb43d76d" x="504.579584" y="320.4" style="fill: #a9a9a9; stroke: #a9a9a9; stroke-width: 0.8"/>
      </g>
     </g>
     <g id="text_6">
      <!-- 2023-05 -->
      <g style="fill: #a9a9a9" transform="translate(483.688177 334.998438) scale(0.1 -0.1)">
       <use xlink:href="#DejaVuSans-32"/>
       <use xlink:href="#DejaVuSans-30" x="63.623047"/>
       <use xlink:href="#DejaVuSans-32" x="127.246094"/>
       <use xlink:href="#DejaVuSans-33" x="190.869141"/>
       <use xlink:href="#DejaVuSans-2d" x="254.492188"/>
       <use xlink:href="#DejaVuSans-30" x="290.576172"/>
       <use xlink:href="#DejaVuSans-35" x="354.199219"/>
      </g>
     </g>
    </g>
    <g id="xtick_7">
     <g id="line2d_13">
      <path d="M 574.294159 320.4 
L 574.294159 43.2 
" clip-path="url(#p26ca01a0f3)" style="fill: none; stroke-dasharray: 5.12,1.28,0.8,1.28; stroke-dashoffset: 0; stroke: #b0b0b0; stroke-width: 0.8"/>
     </g>
     <g id="line2d_14">
      <g>
       <use xlink:href="#m5aeb43d76d" x="574.294159" y="320.4" style="fill: #a9a9a9; stroke: #a9a9a9; stroke-width: 0.8"/>
      </g>
     </g>
     <g id="text_7">
      <!-- 2023-09 -->
      <g style="fill: #a9a9a9" transform="translate(553.402753 334.998438) scale(0.1 -0.1)">
       <use xlink:href="#DejaVuSans-32"/>
       <use xlink:href="#DejaVuSans-30" x="63.623047"/>
       <use xlink:href="#DejaVuSans-32" x="127.246094"/>
       <use xlink:href="#DejaVuSans-33" x="190.869141"/>
       <use xlink:href="#DejaVuSans-2d" x="254.492188"/>
       <use xlink:href="#DejaVuSans-30" x="290.576172"/>
       <use xlink:href="#DejaVuSans-39" x="354.199219"/>
      </g>
     </g>
    </g>
    <g id="xtick_8">
     <g id="line2d_15">
      <path d="M 643.44195 320.4 
L 643.44195 43.2 
" clip-path="url(#p26ca01a0f3)" style="fill: none; stroke-dasharray: 5.12,1.28,0.8,1.28; stroke-dashoffset: 0; stroke: #b0b0b0; stroke-width: 0.8"/>
     </g>
     <g id="line2d_16">
      <g>
       <use xlink:href="#m5aeb43d76d" x="643.44195" y="320.4" style="fill: #a9a9a9; stroke: #a9a9a9; stroke-width: 0.8"/>
      </g>
     </g>
     <g id="text_8">
      <!-- 2024-01 -->
      <g style="fill: #a9a9a9" transform="translate(622.550544 334.998438) scale(0.1 -0.1)">
       <defs>
        <path id="DejaVuSans-34" d="M 2419 4116 
L 825 1625 
L 2419 1625 
L 2419 4116 
z
M 2253 4666 
L 3047 4666 
L 3047 1625 
L 3713 1625 
L 3713 1100 
L 3047 1100 
L 3047 0 
L 2419 0 
L 2419 1100 
L 313 1100 
L 313 1709 
L 2253 4666 
z
" transform="scale(0.015625)"/>
       </defs>
       <use xlink:href="#DejaVuSans-32"/>
       <use xlink:href="#DejaVuSans-30" x="63.623047"/>
       <use xlink:href="#DejaVuSans-32" x="127.246094"/>
       <use xlink:href="#DejaVuSans-34" x="190.869141"/>
       <use xlink:href="#DejaVuSans-2d" x="254.492188"/>
       <use xlink:href="#DejaVuSans-30" x="290.576172"/>
       <use xlink:href="#DejaVuSans-31" x="354.199219"/>
      </g>
     </g>
    </g>
    <g id="xtick_9">
     <g id="line2d_17">
      <path d="M 712.022956 320.4 
L 712.022956 43.2 
" clip-path="url(#p26ca01a0f3)" style="fill: none; stroke-dasharray: 5.12,1.28,0.8,1.28; stroke-dashoffset: 0; stroke: #b0b0b0; stroke-width: 0.8"/>
     </g>
     <g id="line2d_18">
      <g>
       <use xlink:href="#m5aeb43d76d" x="712.022956" y="320.4" style="fill: #a9a9a9; stroke: #a9a9a9; stroke-width: 0.8"/>
      </g>
     </g>
     <g id="text_9">
      <!-- 2024-05 -->
      <g style="fill: #a9a9a9" transform="translate(691.13155 334.998438) scale(0.1 -0.1)">
       <use xlink:href="#DejaVuSans-32"/>
       <use xlink:href="#DejaVuSans-30" x="63.623047"/>
       <use xlink:href="#DejaVuSans-32" x="127.246094"/>
       <use xlink:href="#DejaVuSans-34" x="190.869141"/>
       <use xlink:href="#DejaVuSans-2d" x="254.492188"/>
       <use xlink:href="#DejaVuSans-30" x="290.576172"/>
       <use xlink:href="#DejaVuSans-35" x="354.199219"/>
      </g>
     </g>
    </g>
   </g>
   <g id="matplotlib.axis_2">
    <g id="ytick_1">
     <g id="line2d_19">
      <path d="M 108 307.83988 
L 777.6 307.83988 
" clip-path="url(#p26ca01a0f3)" style="fill: none; stroke-dasharray: 5.12,1.28,0.8,1.28; stroke-dashoffset: 0; stroke: #b0b0b0; stroke-width: 0.8"/>
     </g>
     <g id="line2d_20">
      <defs>
       <path id="m1060495c18" d="M 0 0 
L -3.5 0 
" style="stroke: #a9a9a9; stroke-width: 0.8"/>
      </defs>
      <g>
       <use xlink:href="#m1060495c18" x="108" y="307.83988" style="fill: #a9a9a9; stroke: #a9a9a9; stroke-width: 0.8"/>
      </g>
     </g>
     <g id="text_10">
      <!-- 0 -->
      <g style="fill: #a9a9a9" transform="translate(94.6375 311.639098) scale(0.1 -0.1)">
       <use xlink:href="#DejaVuSans-30"/>
      </g>
     </g>
    </g>
    <g id="ytick_2">
     <g id="line2d_21">
      <path d="M 108 275.936097 
L 777.6 275.936097 
" clip-path="url(#p26ca01a0f3)" style="fill: none; stroke-dasharray: 5.12,1.28,0.8,1.28; stroke-dashoffset: 0; stroke: #b0b0b0; stroke-width: 0.8"/>
     </g>
     <g id="line2d_22">
      <g>
       <use xlink:href="#m1060495c18" x="108" y="275.936097" style="fill: #a9a9a9; stroke: #a9a9a9; stroke-width: 0.8"/>
      </g>
     </g>
     <g id="text_11">
      <!-- 800 -->
      <g style="fill: #a9a9a9" transform="translate(81.9125 279.735316) scale(0.1 -0.1)">
       <defs>
        <path id="DejaVuSans-38" d="M 2034 2216 
Q 1584 2216 1326 1975 
Q 1069 1734 1069 1313 
Q 1069 891 1326 650 
Q 1584 409 2034 409 
Q 2484 409 2743 651 
Q 3003 894 3003 1313 
Q 3003 1734 2745 1975 
Q 2488 2216 2034 2216 
z
M 1403 2484 
Q 997 2584 770 2862 
Q 544 3141 544 3541 
Q 544 4100 942 4425 
Q 1341 4750 2034 4750 
Q 2731 4750 3128 4425 
Q 3525 4100 3525 3541 
Q 3525 3141 3298 2862 
Q 3072 2584 2669 2484 
Q 3125 2378 3379 2068 
Q 3634 1759 3634 1313 
Q 3634 634 3220 271 
Q 2806 -91 2034 -91 
Q 1263 -91 848 271 
Q 434 634 434 1313 
Q 434 1759 690 2068 
Q 947 2378 1403 2484 
z
M 1172 3481 
Q 1172 3119 1398 2916 
Q 1625 2713 2034 2713 
Q 2441 2713 2670 2916 
Q 2900 3119 2900 3481 
Q 2900 3844 2670 4047 
Q 2441 4250 2034 4250 
Q 1625 4250 1398 4047 
Q 1172 3844 1172 3481 
z
" transform="scale(0.015625)"/>
       </defs>
       <use xlink:href="#DejaVuSans-38"/>
       <use xlink:href="#DejaVuSans-30" x="63.623047"/>
       <use xlink:href="#DejaVuSans-30" x="127.246094"/>
      </g>
     </g>
    </g>
    <g id="ytick_3">
     <g id="line2d_23">
      <path d="M 108 244.032315 
L 777.6 244.032315 
" clip-path="url(#p26ca01a0f3)" style="fill: none; stroke-dasharray: 5.12,1.28,0.8,1.28; stroke-dashoffset: 0; stroke: #b0b0b0; stroke-width: 0.8"/>
     </g>
     <g id="line2d_24">
      <g>
       <use xlink:href="#m1060495c18" x="108" y="244.032315" style="fill: #a9a9a9; stroke: #a9a9a9; stroke-width: 0.8"/>
      </g>
     </g>
     <g id="text_12">
      <!-- 1600 -->
      <g style="fill: #a9a9a9" transform="translate(75.55 247.831534) scale(0.1 -0.1)">
       <defs>
        <path id="DejaVuSans-36" d="M 2113 2584 
Q 1688 2584 1439 2293 
Q 1191 2003 1191 1497 
Q 1191 994 1439 701 
Q 1688 409 2113 409 
Q 2538 409 2786 701 
Q 3034 994 3034 1497 
Q 3034 2003 2786 2293 
Q 2538 2584 2113 2584 
z
M 3366 4563 
L 3366 3988 
Q 3128 4100 2886 4159 
Q 2644 4219 2406 4219 
Q 1781 4219 1451 3797 
Q 1122 3375 1075 2522 
Q 1259 2794 1537 2939 
Q 1816 3084 2150 3084 
Q 2853 3084 3261 2657 
Q 3669 2231 3669 1497 
Q 3669 778 3244 343 
Q 2819 -91 2113 -91 
Q 1303 -91 875 529 
Q 447 1150 447 2328 
Q 447 3434 972 4092 
Q 1497 4750 2381 4750 
Q 2619 4750 2861 4703 
Q 3103 4656 3366 4563 
z
" transform="scale(0.015625)"/>
       </defs>
       <use xlink:href="#DejaVuSans-31"/>
       <use xlink:href="#DejaVuSans-36" x="63.623047"/>
       <use xlink:href="#DejaVuSans-30" x="127.246094"/>
       <use xlink:href="#DejaVuSans-30" x="190.869141"/>
      </g>
     </g>
    </g>
    <g id="ytick_4">
     <g id="line2d_25">
      <path d="M 108 212.128533 
L 777.6 212.128533 
" clip-path="url(#p26ca01a0f3)" style="fill: none; stroke-dasharray: 5.12,1.28,0.8,1.28; stroke-dashoffset: 0; stroke: #b0b0b0; stroke-width: 0.8"/>
     </g>
     <g id="line2d_26">
      <g>
       <use xlink:href="#m1060495c18" x="108" y="212.128533" style="fill: #a9a9a9; stroke: #a9a9a9; stroke-width: 0.8"/>
      </g>
     </g>
     <g id="text_13">
      <!-- 2400 -->
      <g style="fill: #a9a9a9" transform="translate(75.55 215.927752) scale(0.1 -0.1)">
       <use xlink:href="#DejaVuSans-32"/>
       <use xlink:href="#DejaVuSans-34" x="63.623047"/>
       <use xlink:href="#DejaVuSans-30" x="127.246094"/>
       <use xlink:href="#DejaVuSans-30" x="190.869141"/>
      </g>
     </g>
    </g>
    <g id="ytick_5">
     <g id="line2d_27">
      <path d="M 108 180.224751 
L 777.6 180.224751 
" clip-path="url(#p26ca01a0f3)" style="fill: none; stroke-dasharray: 5.12,1.28,0.8,1.28; stroke-dashoffset: 0; stroke: #b0b0b0; stroke-width: 0.8"/>
     </g>
     <g id="line2d_28">
      <g>
       <use xlink:href="#m1060495c18" x="108" y="180.224751" style="fill: #a9a9a9; stroke: #a9a9a9; stroke-width: 0.8"/>
      </g>
     </g>
     <g id="text_14">
      <!-- 3200 -->
      <g style="fill: #a9a9a9" transform="translate(75.55 184.02397) scale(0.1 -0.1)">
       <use xlink:href="#DejaVuSans-33"/>
       <use xlink:href="#DejaVuSans-32" x="63.623047"/>
       <use xlink:href="#DejaVuSans-30" x="127.246094"/>
       <use xlink:href="#DejaVuSans-30" x="190.869141"/>
      </g>
     </g>
    </g>
    <g id="ytick_6">
     <g id="line2d_29">
      <path d="M 108 148.320969 
L 777.6 148.320969 
" clip-path="url(#p26ca01a0f3)" style="fill: none; stroke-dasharray: 5.12,1.28,0.8,1.28; stroke-dashoffset: 0; stroke: #b0b0b0; stroke-width: 0.8"/>
     </g>
     <g id="line2d_30">
      <g>
       <use xlink:href="#m1060495c18" x="108" y="148.320969" style="fill: #a9a9a9; stroke: #a9a9a9; stroke-width: 0.8"/>
      </g>
     </g>
     <g id="text_15">
      <!-- 4000 -->
      <g style="fill: #a9a9a9" transform="translate(75.55 152.120187) scale(0.1 -0.1)">
       <use xlink:href="#DejaVuSans-34"/>
       <use xlink:href="#DejaVuSans-30" x="63.623047"/>
       <use xlink:href="#DejaVuSans-30" x="127.246094"/>
       <use xlink:href="#DejaVuSans-30" x="190.869141"/>
      </g>
     </g>
    </g>
    <g id="ytick_7">
     <g id="line2d_31">
      <path d="M 108 116.417186 
L 777.6 116.417186 
" clip-path="url(#p26ca01a0f3)" style="fill: none; stroke-dasharray: 5.12,1.28,0.8,1.28; stroke-dashoffset: 0; stroke: #b0b0b0; stroke-width: 0.8"/>
     </g>
     <g id="line2d_32">
      <g>
       <use xlink:href="#m1060495c18" x="108" y="116.417186" style="fill: #a9a9a9; stroke: #a9a9a9; stroke-width: 0.8"/>
      </g>
     </g>
     <g id="text_16">
      <!-- 4800 -->
      <g style="fill: #a9a9a9" transform="translate(75.55 120.216405) scale(0.1 -0.1)">
       <use xlink:href="#DejaVuSans-34"/>
       <use xlink:href="#DejaVuSans-38" x="63.623047"/>
       <use xlink:href="#DejaVuSans-30" x="127.246094"/>
       <use xlink:href="#DejaVuSans-30" x="190.869141"/>
      </g>
     </g>
    </g>
    <g id="ytick_8">
     <g id="line2d_33">
      <path d="M 108 84.513404 
L 777.6 84.513404 
" clip-path="url(#p26ca01a0f3)" style="fill: none; stroke-dasharray: 5.12,1.28,0.8,1.28; stroke-dashoffset: 0; stroke: #b0b0b0; stroke-width: 0.8"/>
     </g>
     <g id="line2d_34">
      <g>
       <use xlink:href="#m1060495c18" x="108" y="84.513404" style="fill: #a9a9a9; stroke: #a9a9a9; stroke-width: 0.8"/>
      </g>
     </g>
     <g id="text_17">
      <!-- 5600 -->
      <g style="fill: #a9a9a9" transform="translate(75.55 88.312623) scale(0.1 -0.1)">
       <use xlink:href="#DejaVuSans-35"/>
       <use xlink:href="#DejaVuSans-36" x="63.623047"/>
       <use xlink:href="#DejaVuSans-30" x="127.246094"/>
       <use xlink:href="#DejaVuSans-30" x="190.869141"/>
      </g>
     </g>
    </g>
    <g id="ytick_9">
     <g id="line2d_35">
      <path d="M 108 52.609622 
L 777.6 52.609622 
" clip-path="url(#p26ca01a0f3)" style="fill: none; stroke-dasharray: 5.12,1.28,0.8,1.28; stroke-dashoffset: 0; stroke: #b0b0b0; stroke-width: 0.8"/>
     </g>
     <g id="line2d_36">
      <g>
       <use xlink:href="#m1060495c18" x="108" y="52.609622" style="fill: #a9a9a9; stroke: #a9a9a9; stroke-width: 0.8"/>
      </g>
     </g>
     <g id="text_18">
      <!-- 6400 -->
      <g style="fill: #a9a9a9" transform="translate(75.55 56.408841) scale(0.1 -0.1)">
       <use xlink:href="#DejaVuSans-36"/>
       <use xlink:href="#DejaVuSans-34" x="63.623047"/>
       <use xlink:href="#DejaVuSans-30" x="127.246094"/>
       <use xlink:href="#DejaVuSans-30" x="190.869141"/>
      </g>
     </g>
    </g>
   </g>
   <g id="line2d_37">
    <path d="M 138.436364 307.720241 
L 141.837075 307.441082 
L 142.40386 307.201804 
L 144.104215 307.002405 
L 147.504926 306.32445 
L 150.905637 306.045292 
L 152.039208 305.606615 
L 152.605993 304.88878 
L 153.172778 304.489983 
L 153.739563 303.253711 
L 154.306348 303.173952 
L 154.873134 302.735275 
L 156.006704 302.176958 
L 158.273845 300.42225 
L 160.540985 299.345498 
L 162.241341 298.587783 
L 162.808126 297.710429 
L 163.941696 296.912834 
L 164.508481 296.673556 
L 170.176333 295.875961 
L 170.743118 295.596803 
L 174.710615 295.277765 
L 176.41097 294.839088 
L 181.512037 294.161133 
L 182.078822 293.842095 
L 182.645607 293.762336 
L 183.779177 293.403418 
L 187.746673 292.765343 
L 188.880244 292.446305 
L 190.580599 292.286786 
L 191.71417 292.167147 
L 192.280955 292.007628 
L 192.84774 291.967748 
L 194.548095 291.449312 
L 195.681666 291.369552 
L 196.815236 291.210033 
L 197.948807 290.970755 
L 198.515592 290.811236 
L 199.082377 290.053521 
L 200.782732 289.415445 
L 202.483088 288.976768 
L 203.049873 288.69761 
L 203.616658 288.657731 
L 206.450584 287.860136 
L 207.584154 287.780377 
L 208.15094 287.700617 
L 209.851295 287.182181 
L 212.118436 286.623865 
L 212.685221 286.384586 
L 213.252006 286.304827 
L 213.818791 286.025669 
L 219.486643 285.188194 
L 222.320569 284.3906 
L 222.887354 284.031682 
L 225.154495 283.433486 
L 227.421635 282.276974 
L 229.121991 281.878177 
L 229.688776 281.798417 
L 230.255561 281.519259 
L 231.389132 281.319861 
L 232.522702 280.801424 
L 235.356628 280.083589 
L 237.056983 279.644912 
L 238.757339 279.046716 
L 239.324124 278.966957 
L 240.457694 278.52828 
L 241.591265 278.44852 
L 242.724835 278.049723 
L 245.558761 277.611046 
L 246.125546 277.411647 
L 247.259116 277.371768 
L 249.526257 277.09261 
L 250.659827 276.534293 
L 257.461249 273.543314 
L 258.028035 272.945118 
L 259.161605 271.270169 
L 259.72839 271.11065 
L 260.295175 271.11065 
L 261.428746 270.273176 
L 261.995531 270.113657 
L 262.562316 269.834499 
L 263.129101 269.71486 
L 263.695886 269.196423 
L 264.262671 269.036905 
L 265.963027 268.23931 
L 267.096597 266.644121 
L 267.663382 266.285203 
L 268.230168 265.32809 
L 268.796953 264.729894 
L 272.197664 262.975186 
L 273.331234 262.097832 
L 273.898019 261.738914 
L 274.464804 260.90144 
L 275.03159 259.665169 
L 275.598375 258.827694 
L 276.16516 258.389017 
L 276.731945 258.149739 
L 278.999086 256.155752 
L 280.132656 255.238519 
L 280.699441 254.759962 
L 281.266227 254.002247 
L 282.399797 253.005254 
L 284.666938 251.529704 
L 285.233723 251.051147 
L 285.800508 250.931508 
L 286.934078 250.333312 
L 289.201219 249.1768 
L 290.334789 248.100047 
L 290.901574 247.422092 
L 292.035145 246.624498 
L 292.60193 246.464979 
L 293.168715 246.185821 
L 294.302285 245.428106 
L 294.869071 245.109068 
L 295.435856 245.029308 
L 299.403352 242.596645 
L 301.670493 241.400253 
L 302.237278 240.881817 
L 304.504418 240.163982 
L 305.071204 239.765184 
L 305.637989 239.645545 
L 307.90513 238.808071 
L 310.739055 237.890837 
L 311.305841 237.771198 
L 312.439411 236.774205 
L 314.139766 235.97661 
L 315.273337 235.298655 
L 316.406907 234.979617 
L 316.973692 234.620699 
L 317.540477 234.461181 
L 319.240833 233.384428 
L 322.074759 232.706473 
L 323.775114 231.709479 
L 324.341899 231.62972 
L 324.908685 231.430321 
L 326.042255 231.191043 
L 327.74261 229.914892 
L 329.442966 229.516094 
L 330.009751 229.316696 
L 330.576536 228.878019 
L 333.977247 227.761386 
L 334.544033 227.721507 
L 335.110818 227.561988 
L 336.244388 227.083431 
L 340.211884 225.68764 
L 341.345455 225.528122 
L 341.91224 225.368603 
L 342.479025 225.089445 
L 343.04581 224.969805 
L 345.879736 223.653774 
L 348.146877 222.457382 
L 352.681158 220.662795 
L 353.247943 220.583035 
L 354.381513 219.90508 
L 354.948299 219.82532 
L 357.215439 218.908087 
L 359.48258 218.549169 
L 360.61615 217.990853 
L 361.182936 217.512296 
L 361.749721 216.515303 
L 363.450076 216.196265 
L 365.717217 214.999873 
L 366.284002 214.880234 
L 370.818283 212.766609 
L 372.518639 212.407691 
L 373.652209 211.849375 
L 374.218994 211.610097 
L 374.78578 211.530337 
L 377.05292 210.533344 
L 378.753276 209.496471 
L 379.320061 209.416712 
L 379.886846 209.217313 
L 380.453631 209.177433 
L 382.720772 208.539357 
L 383.287557 208.499478 
L 383.854342 208.060801 
L 384.987913 207.662003 
L 386.688268 207.103687 
L 387.255053 206.74477 
L 387.821838 206.585251 
L 388.388624 206.186454 
L 391.789335 204.830543 
L 392.35612 204.671024 
L 392.922905 204.391866 
L 394.623261 203.075835 
L 395.190046 202.956196 
L 396.323616 202.078842 
L 396.890401 201.999082 
L 397.457186 201.121728 
L 398.023972 200.88245 
L 398.590757 200.443773 
L 399.157542 200.364013 
L 400.291112 199.686058 
L 400.857897 199.566419 
L 401.424683 199.32714 
L 401.991468 198.888463 
L 402.558253 198.689065 
L 404.258608 197.532553 
L 406.525749 196.376041 
L 407.092534 196.296281 
L 408.79289 195.458807 
L 409.359675 194.501693 
L 409.92646 194.023137 
L 410.493245 193.704099 
L 411.06003 193.58446 
L 412.193601 192.866624 
L 412.760386 192.746985 
L 413.893956 192.188669 
L 415.594312 191.470834 
L 416.727882 190.673239 
L 417.861453 189.476848 
L 418.995023 188.798892 
L 419.561808 188.439975 
L 420.128593 187.841779 
L 422.395734 186.286469 
L 422.962519 185.648394 
L 423.529304 185.209717 
L 424.662875 184.810919 
L 425.796445 184.053205 
L 427.4968 183.21573 
L 428.063586 183.135971 
L 429.763941 182.218737 
L 430.897511 181.540782 
L 436.565363 179.546795 
L 437.132148 179.068239 
L 439.399289 178.230764 
L 439.966074 178.071245 
L 440.532859 177.632568 
L 443.366785 176.117139 
L 444.500356 173.883874 
L 445.633926 172.607723 
L 446.767496 171.929767 
L 448.467852 171.251812 
L 449.034637 171.172053 
L 449.601422 170.853015 
L 452.435348 169.975661 
L 453.002133 169.736382 
L 454.135703 168.978668 
L 455.269274 168.57987 
L 458.669985 166.585884 
L 459.23677 165.987688 
L 460.37034 165.389492 
L 463.204266 163.913942 
L 466.604977 162.278873 
L 467.171762 162.159234 
L 468.872118 161.561038 
L 469.438903 161.401519 
L 471.706044 160.404526 
L 472.839614 159.965849 
L 473.406399 159.527172 
L 474.53997 159.168254 
L 477.940681 157.453426 
L 479.074251 156.576072 
L 480.207821 156.177275 
L 480.774606 155.698718 
L 481.341392 155.618959 
L 482.474962 154.781484 
L 483.608532 154.223168 
L 484.175317 153.98389 
L 484.742103 153.425574 
L 488.142814 152.189302 
L 489.843169 151.431587 
L 491.543525 150.913151 
L 492.677095 150.753632 
L 493.24388 150.514354 
L 493.810665 150.434594 
L 494.944236 149.956037 
L 495.511021 149.916158 
L 497.778162 149.078683 
L 499.478517 147.922171 
L 502.312443 146.60614 
L 505.146369 145.090711 
L 505.713154 144.971071 
L 507.413509 144.013958 
L 509.113865 143.455642 
L 510.247435 143.096724 
L 512.514576 142.378889 
L 513.648146 142.019972 
L 515.348502 141.740813 
L 517.615642 141.022978 
L 518.182428 140.7837 
L 518.749213 140.70394 
L 519.315998 140.424782 
L 520.449568 140.185504 
L 522.149924 139.587308 
L 523.283494 139.467669 
L 524.417064 139.188511 
L 526.11742 138.909353 
L 526.684205 138.749834 
L 527.817776 138.630195 
L 530.651701 137.91236 
L 531.785272 137.633201 
L 532.352057 137.314164 
L 535.185983 136.596329 
L 535.752768 136.476689 
L 538.019909 135.639215 
L 540.853834 134.801741 
L 541.42062 134.801741 
L 542.55419 134.402944 
L 543.120975 133.844627 
L 544.254545 133.40595 
L 545.954901 132.727995 
L 547.088471 132.329198 
L 547.655256 132.209558 
L 548.222042 131.850641 
L 548.788827 131.731002 
L 549.355612 131.411964 
L 552.189538 130.614369 
L 552.756323 130.255452 
L 553.323108 130.135813 
L 553.889893 129.657256 
L 555.590249 129.338218 
L 556.723819 128.740022 
L 557.290604 128.101947 
L 558.424175 127.862668 
L 563.525241 126.785915 
L 564.092026 126.785915 
L 564.658812 126.546637 
L 566.925952 126.14784 
L 567.492737 125.908561 
L 569.193093 125.669283 
L 571.460234 124.951448 
L 573.160589 124.552651 
L 574.860945 124.113974 
L 576.5613 123.595537 
L 579.395226 122.758063 
L 579.962011 122.439025 
L 581.662367 121.880709 
L 582.229152 121.442032 
L 583.362722 121.122994 
L 584.496293 120.764077 
L 585.629863 120.28552 
L 587.330218 119.527805 
L 589.030574 119.408166 
L 591.297715 118.77009 
L 591.8645 118.411173 
L 592.99807 118.092135 
L 595.831996 116.815984 
L 596.398781 116.776104 
L 602.633418 114.662478 
L 604.900559 114.104162 
L 605.467344 113.944643 
L 606.600914 113.426207 
L 607.167699 113.346447 
L 608.30127 113.027409 
L 608.868055 112.588732 
L 609.43484 112.309574 
L 610.001625 111.631619 
L 610.56841 111.232822 
L 611.701981 110.873904 
L 612.268766 110.435227 
L 618.503403 107.882925 
L 619.636973 107.603766 
L 621.337329 106.806172 
L 622.470899 106.128216 
L 623.037684 106.008577 
L 624.171254 105.330622 
L 624.73804 105.091344 
L 625.87161 104.413388 
L 627.571965 103.615794 
L 628.138751 103.216996 
L 629.272321 102.858079 
L 630.405891 102.180123 
L 630.972676 101.980725 
L 631.539462 101.581928 
L 632.673032 101.18313 
L 633.239817 101.063491 
L 635.506958 100.026618 
L 638.340884 99.029625 
L 639.474454 98.870106 
L 640.041239 98.511188 
L 640.608024 98.431429 
L 641.17481 98.23203 
L 642.875165 97.912993 
L 646.842661 95.998766 
L 647.409446 95.919006 
L 649.109802 95.001772 
L 651.376943 94.124418 
L 655.911224 92.210191 
L 657.044794 92.050673 
L 657.611579 91.691755 
L 658.178365 91.651875 
L 659.311935 91.292958 
L 660.445505 90.734642 
L 661.012291 90.654882 
L 663.846216 89.53825 
L 664.413002 89.418611 
L 665.546572 89.059693 
L 666.113357 88.860294 
L 667.246927 88.660896 
L 668.947283 88.142459 
L 674.048349 85.709796 
L 674.615135 85.590157 
L 675.18192 85.271119 
L 675.748705 85.15148 
L 677.44906 84.274126 
L 678.015846 84.114607 
L 680.282986 83.037854 
L 681.983342 82.599177 
L 685.384053 81.243266 
L 687.084408 80.68495 
L 697.286541 76.457699 
L 698.420112 76.058902 
L 700.120467 75.141668 
L 700.687252 75.022029 
L 701.820823 74.583352 
L 702.387608 74.583352 
L 703.521178 74.064915 
L 704.087963 73.626238 
L 705.221534 72.549486 
L 706.921889 71.751891 
L 707.488674 71.632252 
L 708.05546 71.353094 
L 708.622245 71.273334 
L 709.18903 70.874537 
L 709.755815 70.754898 
L 710.889385 70.076943 
L 712.022956 69.359107 
L 713.156526 69.04007 
L 714.290096 68.481753 
L 715.990452 68.082956 
L 716.557237 67.883558 
L 717.124022 67.803798 
L 717.690808 67.52464 
L 718.257593 67.405001 
L 723.358659 65.331255 
L 723.925444 65.171736 
L 727.892941 63.337269 
L 728.459726 63.13787 
L 729.026511 63.05811 
L 731.293652 61.981358 
L 734.127577 60.665327 
L 735.261148 60.26653 
L 735.827933 59.787973 
L 736.394718 59.468935 
L 738.095074 58.950498 
L 739.228644 58.192784 
L 739.795429 58.152904 
L 740.928999 57.833866 
L 741.495785 57.714227 
L 743.762925 56.876753 
L 745.463281 56.358316 
L 746.030066 56.278557 
L 746.596851 55.919639 
L 747.163636 55.8 
L 747.163636 55.8 
" clip-path="url(#p26ca01a0f3)" style="fill: none; stroke: #1f77b4; stroke-width: 1.5; stroke-linecap: square"/>
   </g>
   <g id="line2d_38">
    <path d="M 139.003149 307.8 
L 140.703504 307.720241 
L 142.40386 307.680361 
L 145.804571 307.600601 
L 148.638497 307.480962 
L 150.905637 307.480962 
L 151.472423 307.321443 
L 153.739563 307.241684 
L 155.439919 307.042285 
L 157.140274 306.882766 
L 160.540985 306.723247 
L 161.10777 306.723247 
L 161.674556 306.603608 
L 163.941696 306.523849 
L 165.075267 306.444089 
L 169.609548 306.36433 
L 172.443474 306.244691 
L 179.244896 306.164931 
L 182.078822 306.045292 
L 185.479533 305.965533 
L 187.746673 305.885773 
L 192.84774 305.806014 
L 194.548095 305.766134 
L 196.248451 305.726254 
L 197.948807 305.526856 
L 201.349518 305.486976 
L 202.483088 305.407216 
L 206.450584 305.327457 
L 212.685221 304.968539 
L 216.652717 304.88878 
L 217.786287 304.80902 
L 219.486643 304.729261 
L 222.887354 304.569742 
L 225.154495 304.529862 
L 226.85485 304.370343 
L 234.223057 303.931666 
L 237.056983 303.851907 
L 242.15805 303.572749 
L 243.858405 303.492989 
L 249.526257 303.173952 
L 255.760894 303.094192 
L 258.028035 302.854914 
L 259.161605 302.775154 
L 266.529812 302.176958 
L 269.930523 301.738281 
L 272.197664 301.658522 
L 276.731945 301.060326 
L 280.132656 300.980567 
L 281.833012 300.821048 
L 282.966582 300.781168 
L 284.100152 300.661529 
L 285.800508 300.581769 
L 286.934078 300.42225 
L 289.768004 300.103213 
L 292.035145 300.023453 
L 293.168715 299.943694 
L 295.435856 299.863934 
L 296.569426 299.784175 
L 299.403352 299.505017 
L 299.970137 299.345498 
L 303.370848 299.185979 
L 306.204774 299.106219 
L 313.572981 298.667542 
L 315.273337 298.587783 
L 322.641544 298.149106 
L 326.60904 298.069346 
L 327.175825 297.949707 
L 331.710107 297.869948 
L 335.677603 297.670549 
L 341.91224 297.59079 
L 345.879736 297.391391 
L 350.414017 297.311632 
L 354.948299 297.072353 
L 358.915795 296.992594 
L 369.684713 296.314638 
L 375.352565 296.234879 
L 377.619705 295.995601 
L 379.320061 295.955721 
L 381.020416 295.915841 
L 383.287557 295.676563 
L 388.955409 295.357525 
L 392.35612 295.277765 
L 394.056475 295.237886 
L 395.756831 295.198006 
L 397.457186 295.038487 
L 401.991468 294.958728 
L 403.125038 294.799209 
L 404.258608 294.719449 
L 407.092534 294.59981 
L 408.226105 294.520051 
L 409.359675 294.440291 
L 414.460741 294.360532 
L 415.594312 294.240893 
L 417.861453 294.201013 
L 418.428238 294.081374 
L 419.561808 294.001614 
L 420.128593 293.881975 
L 421.828949 293.802216 
L 426.930015 293.523057 
L 428.063586 293.483178 
L 429.763941 293.323659 
L 431.464297 293.283779 
L 433.164652 293.20402 
L 435.998578 293.08438 
L 443.93357 293.004621 
L 447.901067 292.805222 
L 452.435348 292.725463 
L 454.702489 292.645703 
L 456.969629 292.605824 
L 458.1032 292.486185 
L 460.37034 292.406425 
L 466.038192 292.087387 
L 469.438903 292.047508 
L 471.139259 291.887989 
L 472.839614 291.848109 
L 476.80711 291.768349 
L 479.074251 291.68859 
L 485.875673 291.608831 
L 488.709599 291.489191 
L 492.11031 291.409432 
L 493.810665 291.210033 
L 497.211376 291.170154 
L 498.911732 291.010635 
L 501.178873 290.930875 
L 507.980295 290.851116 
L 510.81422 290.731476 
L 520.449568 290.691597 
L 521.583139 290.611837 
L 523.283494 290.571958 
L 530.651701 290.492198 
L 531.785272 290.412439 
L 538.019909 290.332679 
L 540.287049 290.25292 
L 547.088471 290.21304 
L 548.222042 290.133281 
L 556.723819 290.093401 
L 558.424175 289.933882 
L 572.593804 289.854122 
L 574.294159 289.814243 
L 589.597359 289.734483 
L 591.8645 289.654724 
L 601.499848 289.574964 
L 602.633418 289.495205 
L 605.467344 289.415445 
L 607.167699 289.255927 
L 610.001625 289.176167 
L 612.268766 289.096408 
L 615.669477 289.016648 
L 617.369832 288.976768 
L 619.636973 288.897009 
L 621.337329 288.857129 
L 624.171254 288.77737 
L 625.304825 288.69761 
L 628.705536 288.617851 
L 631.539462 288.498212 
L 632.673032 288.458332 
L 633.806602 288.378573 
L 635.506958 288.338693 
L 637.774099 288.258933 
L 640.041239 288.179174 
L 647.409446 288.099414 
L 649.676587 288.019655 
L 654.210868 287.939896 
L 658.178365 287.740497 
L 663.279431 287.660737 
L 664.413002 287.580978 
L 674.615135 287.501219 
L 676.31549 287.461339 
L 679.149416 287.421459 
L 681.416557 287.182181 
L 683.116912 287.142301 
L 686.517623 287.062542 
L 692.185475 286.743504 
L 695.019401 286.663744 
L 697.286541 286.583985 
L 700.687252 286.544105 
L 701.820823 286.464346 
L 704.087963 286.384586 
L 706.355104 286.145308 
L 708.622245 286.065548 
L 712.589741 285.985789 
L 713.156526 285.86615 
L 718.257593 285.78639 
L 721.091519 285.666751 
L 728.459726 285.626871 
L 729.026511 285.507232 
L 732.427222 285.427473 
L 734.694363 285.347713 
L 738.095074 285.267954 
L 740.362214 285.188194 
L 747.163636 285.108435 
L 747.163636 285.108435 
" clip-path="url(#p26ca01a0f3)" style="fill: none; stroke: #ff7f0e; stroke-width: 1.5; stroke-linecap: square"/>
   </g>
   <g id="patch_3">
    <path d="M 108 320.4 
L 108 43.2 
" style="fill: none; stroke: #a9a9a9; stroke-width: 0.8; stroke-linejoin: miter; stroke-linecap: square"/>
   </g>
   <g id="patch_4">
    <path d="M 777.6 320.4 
L 777.6 43.2 
" style="fill: none"/>
   </g>
   <g id="patch_5">
    <path d="M 108 320.4 
L 777.6 320.4 
" style="fill: none; stroke: #a9a9a9; stroke-width: 0.8; stroke-linejoin: miter; stroke-linecap: square"/>
   </g>
   <g id="patch_6">
    <path d="M 108 43.2 
L 777.6 43.2 
" style="fill: none"/>
   </g>
   <g id="text_19">
    <!-- get_subscribe history -->
    <g style="fill: #a9a9a9" transform="translate(378.6075 37.2) scale(0.12 -0.12)">
     <defs>
      <path id="DejaVuSans-67" d="M 2906 1791 
Q 2906 2416 2648 2759 
Q 2391 3103 1925 3103 
Q 1463 3103 1205 2759 
Q 947 2416 947 1791 
Q 947 1169 1205 825 
Q 1463 481 1925 481 
Q 2391 481 2648 825 
Q 2906 1169 2906 1791 
z
M 3481 434 
Q 3481 -459 3084 -895 
Q 2688 -1331 1869 -1331 
Q 1566 -1331 1297 -1286 
Q 1028 -1241 775 -1147 
L 775 -588 
Q 1028 -725 1275 -790 
Q 1522 -856 1778 -856 
Q 2344 -856 2625 -561 
Q 2906 -266 2906 331 
L 2906 616 
Q 2728 306 2450 153 
Q 2172 0 1784 0 
Q 1141 0 747 490 
Q 353 981 353 1791 
Q 353 2603 747 3093 
Q 1141 3584 1784 3584 
Q 2172 3584 2450 3431 
Q 2728 3278 2906 2969 
L 2906 3500 
L 3481 3500 
L 3481 434 
z
" transform="scale(0.015625)"/>
      <path id="DejaVuSans-65" d="M 3597 1894 
L 3597 1613 
L 953 1613 
Q 991 1019 1311 708 
Q 1631 397 2203 397 
Q 2534 397 2845 478 
Q 3156 559 3463 722 
L 3463 178 
Q 3153 47 2828 -22 
Q 2503 -91 2169 -91 
Q 1331 -91 842 396 
Q 353 884 353 1716 
Q 353 2575 817 3079 
Q 1281 3584 2069 3584 
Q 2775 3584 3186 3129 
Q 3597 2675 3597 1894 
z
M 3022 2063 
Q 3016 2534 2758 2815 
Q 2500 3097 2075 3097 
Q 1594 3097 1305 2825 
Q 1016 2553 972 2059 
L 3022 2063 
z
" transform="scale(0.015625)"/>
      <path id="DejaVuSans-74" d="M 1172 4494 
L 1172 3500 
L 2356 3500 
L 2356 3053 
L 1172 3053 
L 1172 1153 
Q 1172 725 1289 603 
Q 1406 481 1766 481 
L 2356 481 
L 2356 0 
L 1766 0 
Q 1100 0 847 248 
Q 594 497 594 1153 
L 594 3053 
L 172 3053 
L 172 3500 
L 594 3500 
L 594 4494 
L 1172 4494 
z
" transform="scale(0.015625)"/>
      <path id="DejaVuSans-5f" d="M 3263 -1063 
L 3263 -1509 
L -63 -1509 
L -63 -1063 
L 3263 -1063 
z
" transform="scale(0.015625)"/>
      <path id="DejaVuSans-73" d="M 2834 3397 
L 2834 2853 
Q 2591 2978 2328 3040 
Q 2066 3103 1784 3103 
Q 1356 3103 1142 2972 
Q 928 2841 928 2578 
Q 928 2378 1081 2264 
Q 1234 2150 1697 2047 
L 1894 2003 
Q 2506 1872 2764 1633 
Q 3022 1394 3022 966 
Q 3022 478 2636 193 
Q 2250 -91 1575 -91 
Q 1294 -91 989 -36 
Q 684 19 347 128 
L 347 722 
Q 666 556 975 473 
Q 1284 391 1588 391 
Q 1994 391 2212 530 
Q 2431 669 2431 922 
Q 2431 1156 2273 1281 
Q 2116 1406 1581 1522 
L 1381 1569 
Q 847 1681 609 1914 
Q 372 2147 372 2553 
Q 372 3047 722 3315 
Q 1072 3584 1716 3584 
Q 2034 3584 2315 3537 
Q 2597 3491 2834 3397 
z
" transform="scale(0.015625)"/>
      <path id="DejaVuSans-75" d="M 544 1381 
L 544 3500 
L 1119 3500 
L 1119 1403 
Q 1119 906 1312 657 
Q 1506 409 1894 409 
Q 2359 409 2629 706 
Q 2900 1003 2900 1516 
L 2900 3500 
L 3475 3500 
L 3475 0 
L 2900 0 
L 2900 538 
Q 2691 219 2414 64 
Q 2138 -91 1772 -91 
Q 1169 -91 856 284 
Q 544 659 544 1381 
z
M 1991 3584 
L 1991 3584 
z
" transform="scale(0.015625)"/>
      <path id="DejaVuSans-62" d="M 3116 1747 
Q 3116 2381 2855 2742 
Q 2594 3103 2138 3103 
Q 1681 3103 1420 2742 
Q 1159 2381 1159 1747 
Q 1159 1113 1420 752 
Q 1681 391 2138 391 
Q 2594 391 2855 752 
Q 3116 1113 3116 1747 
z
M 1159 2969 
Q 1341 3281 1617 3432 
Q 1894 3584 2278 3584 
Q 2916 3584 3314 3078 
Q 3713 2572 3713 1747 
Q 3713 922 3314 415 
Q 2916 -91 2278 -91 
Q 1894 -91 1617 61 
Q 1341 213 1159 525 
L 1159 0 
L 581 0 
L 581 4863 
L 1159 4863 
L 1159 2969 
z
" transform="scale(0.015625)"/>
      <path id="DejaVuSans-63" d="M 3122 3366 
L 3122 2828 
Q 2878 2963 2633 3030 
Q 2388 3097 2138 3097 
Q 1578 3097 1268 2742 
Q 959 2388 959 1747 
Q 959 1106 1268 751 
Q 1578 397 2138 397 
Q 2388 397 2633 464 
Q 2878 531 3122 666 
L 3122 134 
Q 2881 22 2623 -34 
Q 2366 -91 2075 -91 
Q 1284 -91 818 406 
Q 353 903 353 1747 
Q 353 2603 823 3093 
Q 1294 3584 2113 3584 
Q 2378 3584 2631 3529 
Q 2884 3475 3122 3366 
z
" transform="scale(0.015625)"/>
      <path id="DejaVuSans-72" d="M 2631 2963 
Q 2534 3019 2420 3045 
Q 2306 3072 2169 3072 
Q 1681 3072 1420 2755 
Q 1159 2438 1159 1844 
L 1159 0 
L 581 0 
L 581 3500 
L 1159 3500 
L 1159 2956 
Q 1341 3275 1631 3429 
Q 1922 3584 2338 3584 
Q 2397 3584 2469 3576 
Q 2541 3569 2628 3553 
L 2631 2963 
z
" transform="scale(0.015625)"/>
      <path id="DejaVuSans-69" d="M 603 3500 
L 1178 3500 
L 1178 0 
L 603 0 
L 603 3500 
z
M 603 4863 
L 1178 4863 
L 1178 4134 
L 603 4134 
L 603 4863 
z
" transform="scale(0.015625)"/>
      <path id="DejaVuSans-20" transform="scale(0.015625)"/>
      <path id="DejaVuSans-68" d="M 3513 2113 
L 3513 0 
L 2938 0 
L 2938 2094 
Q 2938 2591 2744 2837 
Q 2550 3084 2163 3084 
Q 1697 3084 1428 2787 
Q 1159 2491 1159 1978 
L 1159 0 
L 581 0 
L 581 4863 
L 1159 4863 
L 1159 2956 
Q 1366 3272 1645 3428 
Q 1925 3584 2291 3584 
Q 2894 3584 3203 3211 
Q 3513 2838 3513 2113 
z
" transform="scale(0.015625)"/>
      <path id="DejaVuSans-6f" d="M 1959 3097 
Q 1497 3097 1228 2736 
Q 959 2375 959 1747 
Q 959 1119 1226 758 
Q 1494 397 1959 397 
Q 2419 397 2687 759 
Q 2956 1122 2956 1747 
Q 2956 2369 2687 2733 
Q 2419 3097 1959 3097 
z
M 1959 3584 
Q 2709 3584 3137 3096 
Q 3566 2609 3566 1747 
Q 3566 888 3137 398 
Q 2709 -91 1959 -91 
Q 1206 -91 779 398 
Q 353 888 353 1747 
Q 353 2609 779 3096 
Q 1206 3584 1959 3584 
z
" transform="scale(0.015625)"/>
      <path id="DejaVuSans-79" d="M 2059 -325 
Q 1816 -950 1584 -1140 
Q 1353 -1331 966 -1331 
L 506 -1331 
L 506 -850 
L 844 -850 
Q 1081 -850 1212 -737 
Q 1344 -625 1503 -206 
L 1606 56 
L 191 3500 
L 800 3500 
L 1894 763 
L 2988 3500 
L 3597 3500 
L 2059 -325 
z
" transform="scale(0.015625)"/>
     </defs>
     <use xlink:href="#DejaVuSans-67"/>
     <use xlink:href="#DejaVuSans-65" x="63.476562"/>
     <use xlink:href="#DejaVuSans-74" x="125"/>
     <use xlink:href="#DejaVuSans-5f" x="164.208984"/>
     <use xlink:href="#DejaVuSans-73" x="214.208984"/>
     <use xlink:href="#DejaVuSans-75" x="266.308594"/>
     <use xlink:href="#DejaVuSans-62" x="329.6875"/>
     <use xlink:href="#DejaVuSans-73" x="393.164062"/>
     <use xlink:href="#DejaVuSans-63" x="445.263672"/>
     <use xlink:href="#DejaVuSans-72" x="500.244141"/>
     <use xlink:href="#DejaVuSans-69" x="541.357422"/>
     <use xlink:href="#DejaVuSans-62" x="569.140625"/>
     <use xlink:href="#DejaVuSans-65" x="632.617188"/>
     <use xlink:href="#DejaVuSans-20" x="694.140625"/>
     <use xlink:href="#DejaVuSans-68" x="725.927734"/>
     <use xlink:href="#DejaVuSans-69" x="789.306641"/>
     <use xlink:href="#DejaVuSans-73" x="817.089844"/>
     <use xlink:href="#DejaVuSans-74" x="869.189453"/>
     <use xlink:href="#DejaVuSans-6f" x="908.398438"/>
     <use xlink:href="#DejaVuSans-72" x="969.580078"/>
     <use xlink:href="#DejaVuSans-79" x="1010.693359"/>
    </g>
   </g>
   <g id="legend_1">
    <g id="line2d_39">
     <path d="M 815.08 328.498438 
L 825.08 328.498438 
L 835.08 328.498438 
" style="fill: none; stroke: #1f77b4; stroke-width: 1.5; stroke-linecap: square"/>
    </g>
    <g id="text_20">
     <!-- star -->
     <g style="fill: #a9a9a9" transform="translate(843.08 331.998438) scale(0.1 -0.1)">
      <defs>
       <path id="DejaVuSans-61" d="M 2194 1759 
Q 1497 1759 1228 1600 
Q 959 1441 959 1056 
Q 959 750 1161 570 
Q 1363 391 1709 391 
Q 2188 391 2477 730 
Q 2766 1069 2766 1631 
L 2766 1759 
L 2194 1759 
z
M 3341 1997 
L 3341 0 
L 2766 0 
L 2766 531 
Q 2569 213 2275 61 
Q 1981 -91 1556 -91 
Q 1019 -91 701 211 
Q 384 513 384 1019 
Q 384 1609 779 1909 
Q 1175 2209 1959 2209 
L 2766 2209 
L 2766 2266 
Q 2766 2663 2505 2880 
Q 2244 3097 1772 3097 
Q 1472 3097 1187 3025 
Q 903 2953 641 2809 
L 641 3341 
Q 956 3463 1253 3523 
Q 1550 3584 1831 3584 
Q 2591 3584 2966 3190 
Q 3341 2797 3341 1997 
z
" transform="scale(0.015625)"/>
      </defs>
      <use xlink:href="#DejaVuSans-73"/>
      <use xlink:href="#DejaVuSans-74" x="52.099609"/>
      <use xlink:href="#DejaVuSans-61" x="91.308594"/>
      <use xlink:href="#DejaVuSans-72" x="152.587891"/>
     </g>
    </g>
    <g id="line2d_40">
     <path d="M 815.08 343.176562 
L 825.08 343.176562 
L 835.08 343.176562 
" style="fill: none; stroke: #ff7f0e; stroke-width: 1.5; stroke-linecap: square"/>
    </g>
    <g id="text_21">
     <!-- fork -->
     <g style="fill: #a9a9a9" transform="translate(843.08 346.676562) scale(0.1 -0.1)">
      <defs>
       <path id="DejaVuSans-66" d="M 2375 4863 
L 2375 4384 
L 1825 4384 
Q 1516 4384 1395 4259 
Q 1275 4134 1275 3809 
L 1275 3500 
L 2222 3500 
L 2222 3053 
L 1275 3053 
L 1275 0 
L 697 0 
L 697 3053 
L 147 3053 
L 147 3500 
L 697 3500 
L 697 3744 
Q 697 4328 969 4595 
Q 1241 4863 1831 4863 
L 2375 4863 
z
" transform="scale(0.015625)"/>
       <path id="DejaVuSans-6b" d="M 581 4863 
L 1159 4863 
L 1159 1991 
L 2875 3500 
L 3609 3500 
L 1753 1863 
L 3688 0 
L 2938 0 
L 1159 1709 
L 1159 0 
L 581 0 
L 581 4863 
z
" transform="scale(0.015625)"/>
      </defs>
      <use xlink:href="#DejaVuSans-66"/>
      <use xlink:href="#DejaVuSans-6f" x="35.205078"/>
      <use xlink:href="#DejaVuSans-72" x="96.386719"/>
      <use xlink:href="#DejaVuSans-6b" x="137.5"/>
     </g>
    </g>
   </g>
  </g>
 </g>
 <defs>
  <clipPath id="p26ca01a0f3">
   <rect x="108" y="43.2" width="669.6" height="277.2"/>
  </clipPath>
 </defs>
</svg>
