<?xml version="1.0" encoding="utf-8" standalone="no"?>
<!DOCTYPE svg PUBLIC "-//W3C//DTD SVG 1.1//EN"
  "http://www.w3.org/Graphics/SVG/1.1/DTD/svg11.dtd">
<svg xmlns:xlink="http://www.w3.org/1999/xlink" width="864pt" height="360pt" viewBox="0 0 864 360" xmlns="http://www.w3.org/2000/svg" version="1.1">
 <metadata>
  <rdf:RDF xmlns:dc="http://purl.org/dc/elements/1.1/" xmlns:cc="http://creativecommons.org/ns#" xmlns:rdf="http://www.w3.org/1999/02/22-rdf-syntax-ns#">
   <cc:Work>
    <dc:type rdf:resource="http://purl.org/dc/dcmitype/StillImage"/>
    <dc:date>2025-10-29T08:17:08.777444</dc:date>
    <dc:format>image/svg+xml</dc:format>
    <dc:creator>
     <cc:Agent>
      <dc:title>Matplotlib v3.10.7, https://matplotlib.org/</dc:title>
     </cc:Agent>
    </dc:creator>
   </cc:Work>
  </rdf:RDF>
 </metadata>
 <defs>
  <style type="text/css">*{stroke-linejoin: round; stroke-linecap: butt}</style>
 </defs>
 <g id="figure_1">
  <g id="patch_1">
   <path d="M 0 360 
L 864 360 
L 864 0 
L 0 0 
L 0 360 
z
" style="fill: none; opacity: 0"/>
  </g>
  <g id="axes_1">
   <g id="patch_2">
    <path d="M 108 320.4 
L 777.6 320.4 
L 777.6 43.2 
L 108 43.2 
L 108 320.4 
z
" style="fill: none; opacity: 0"/>
   </g>
   <g id="matplotlib.axis_1">
    <g id="xtick_1">
     <g id="line2d_1">
      <path d="M 129.450018 320.4 
L 129.450018 43.2 
" clip-path="url(#pe16d0665a2)" style="fill: none; stroke-dasharray: 5.12,1.28,0.8,1.28; stroke-dashoffset: 0; stroke: #b0b0b0; stroke-width: 0.8"/>
     </g>
     <g id="line2d_2">
      <defs>
       <path id="m249bd85e3a" d="M 0 0 
L 0 3.5 
" style="stroke: #a9a9a9; stroke-width: 0.8"/>
      </defs>
      <g>
       <use xlink:href="#m249bd85e3a" x="129.450018" y="320.4" style="fill: #a9a9a9; stroke: #a9a9a9; stroke-width: 0.8"/>
      </g>
     </g>
     <g id="text_1">
      <!-- 2021-07 -->
      <g style="fill: #a9a9a9" transform="translate(108.558611 334.998438) scale(0.1 -0.1)">
       <defs>
        <path id="DejaVuSans-32" d="M 1228 531 
L 3431 531 
L 3431 0 
L 469 0 
L 469 531 
Q 828 903 1448 1529 
Q 2069 2156 2228 2338 
Q 2531 2678 2651 2914 
Q 2772 3150 2772 3378 
Q 2772 3750 2511 3984 
Q 2250 4219 1831 4219 
Q 1534 4219 1204 4116 
Q 875 4013 500 3803 
L 500 4441 
Q 881 4594 1212 4672 
Q 1544 4750 1819 4750 
Q 2544 4750 2975 4387 
Q 3406 4025 3406 3419 
Q 3406 3131 3298 2873 
Q 3191 2616 2906 2266 
Q 2828 2175 2409 1742 
Q 1991 1309 1228 531 
z
" transform="scale(0.015625)"/>
        <path id="DejaVuSans-30" d="M 2034 4250 
Q 1547 4250 1301 3770 
Q 1056 3291 1056 2328 
Q 1056 1369 1301 889 
Q 1547 409 2034 409 
Q 2525 409 2770 889 
Q 3016 1369 3016 2328 
Q 3016 3291 2770 3770 
Q 2525 4250 2034 4250 
z
M 2034 4750 
Q 2819 4750 3233 4129 
Q 3647 3509 3647 2328 
Q 3647 1150 3233 529 
Q 2819 -91 2034 -91 
Q 1250 -91 836 529 
Q 422 1150 422 2328 
Q 422 3509 836 4129 
Q 1250 4750 2034 4750 
z
" transform="scale(0.015625)"/>
        <path id="DejaVuSans-31" d="M 794 531 
L 1825 531 
L 1825 4091 
L 703 3866 
L 703 4441 
L 1819 4666 
L 2450 4666 
L 2450 531 
L 3481 531 
L 3481 0 
L 794 0 
L 794 531 
z
" transform="scale(0.015625)"/>
        <path id="DejaVuSans-2d" d="M 313 2009 
L 1997 2009 
L 1997 1497 
L 313 1497 
L 313 2009 
z
" transform="scale(0.015625)"/>
        <path id="DejaVuSans-37" d="M 525 4666 
L 3525 4666 
L 3525 4397 
L 1831 0 
L 1172 0 
L 2766 4134 
L 525 4134 
L 525 4666 
z
" transform="scale(0.015625)"/>
       </defs>
       <use xlink:href="#DejaVuSans-32"/>
       <use xlink:href="#DejaVuSans-30" transform="translate(63.623047 0)"/>
       <use xlink:href="#DejaVuSans-32" transform="translate(127.246094 0)"/>
       <use xlink:href="#DejaVuSans-31" transform="translate(190.869141 0)"/>
       <use xlink:href="#DejaVuSans-2d" transform="translate(254.492188 0)"/>
       <use xlink:href="#DejaVuSans-30" transform="translate(290.576172 0)"/>
       <use xlink:href="#DejaVuSans-37" transform="translate(354.199219 0)"/>
      </g>
     </g>
    </g>
    <g id="xtick_2">
     <g id="line2d_3">
      <path d="M 201.340787 320.4 
L 201.340787 43.2 
" clip-path="url(#pe16d0665a2)" style="fill: none; stroke-dasharray: 5.12,1.28,0.8,1.28; stroke-dashoffset: 0; stroke: #b0b0b0; stroke-width: 0.8"/>
     </g>
     <g id="line2d_4">
      <g>
       <use xlink:href="#m249bd85e3a" x="201.340787" y="320.4" style="fill: #a9a9a9; stroke: #a9a9a9; stroke-width: 0.8"/>
      </g>
     </g>
     <g id="text_2">
      <!-- 2022-01 -->
      <g style="fill: #a9a9a9" transform="translate(180.44938 334.998438) scale(0.1 -0.1)">
       <use xlink:href="#DejaVuSans-32"/>
       <use xlink:href="#DejaVuSans-30" transform="translate(63.623047 0)"/>
       <use xlink:href="#DejaVuSans-32" transform="translate(127.246094 0)"/>
       <use xlink:href="#DejaVuSans-32" transform="translate(190.869141 0)"/>
       <use xlink:href="#DejaVuSans-2d" transform="translate(254.492188 0)"/>
       <use xlink:href="#DejaVuSans-30" transform="translate(290.576172 0)"/>
       <use xlink:href="#DejaVuSans-31" transform="translate(354.199219 0)"/>
      </g>
     </g>
    </g>
    <g id="xtick_3">
     <g id="line2d_5">
      <path d="M 272.059424 320.4 
L 272.059424 43.2 
" clip-path="url(#pe16d0665a2)" style="fill: none; stroke-dasharray: 5.12,1.28,0.8,1.28; stroke-dashoffset: 0; stroke: #b0b0b0; stroke-width: 0.8"/>
     </g>
     <g id="line2d_6">
      <g>
       <use xlink:href="#m249bd85e3a" x="272.059424" y="320.4" style="fill: #a9a9a9; stroke: #a9a9a9; stroke-width: 0.8"/>
      </g>
     </g>
     <g id="text_3">
      <!-- 2022-07 -->
      <g style="fill: #a9a9a9" transform="translate(251.168017 334.998438) scale(0.1 -0.1)">
       <use xlink:href="#DejaVuSans-32"/>
       <use xlink:href="#DejaVuSans-30" transform="translate(63.623047 0)"/>
       <use xlink:href="#DejaVuSans-32" transform="translate(127.246094 0)"/>
       <use xlink:href="#DejaVuSans-32" transform="translate(190.869141 0)"/>
       <use xlink:href="#DejaVuSans-2d" transform="translate(254.492188 0)"/>
       <use xlink:href="#DejaVuSans-30" transform="translate(290.576172 0)"/>
       <use xlink:href="#DejaVuSans-37" transform="translate(354.199219 0)"/>
      </g>
     </g>
    </g>
    <g id="xtick_4">
     <g id="line2d_7">
      <path d="M 343.950193 320.4 
L 343.950193 43.2 
" clip-path="url(#pe16d0665a2)" style="fill: none; stroke-dasharray: 5.12,1.28,0.8,1.28; stroke-dashoffset: 0; stroke: #b0b0b0; stroke-width: 0.8"/>
     </g>
     <g id="line2d_8">
      <g>
       <use xlink:href="#m249bd85e3a" x="343.950193" y="320.4" style="fill: #a9a9a9; stroke: #a9a9a9; stroke-width: 0.8"/>
      </g>
     </g>
     <g id="text_4">
      <!-- 2023-01 -->
      <g style="fill: #a9a9a9" transform="translate(323.058786 334.998438) scale(0.1 -0.1)">
       <defs>
        <path id="DejaVuSans-33" d="M 2597 2516 
Q 3050 2419 3304 2112 
Q 3559 1806 3559 1356 
Q 3559 666 3084 287 
Q 2609 -91 1734 -91 
Q 1441 -91 1130 -33 
Q 819 25 488 141 
L 488 750 
Q 750 597 1062 519 
Q 1375 441 1716 441 
Q 2309 441 2620 675 
Q 2931 909 2931 1356 
Q 2931 1769 2642 2001 
Q 2353 2234 1838 2234 
L 1294 2234 
L 1294 2753 
L 1863 2753 
Q 2328 2753 2575 2939 
Q 2822 3125 2822 3475 
Q 2822 3834 2567 4026 
Q 2313 4219 1838 4219 
Q 1578 4219 1281 4162 
Q 984 4106 628 3988 
L 628 4550 
Q 988 4650 1302 4700 
Q 1616 4750 1894 4750 
Q 2613 4750 3031 4423 
Q 3450 4097 3450 3541 
Q 3450 3153 3228 2886 
Q 3006 2619 2597 2516 
z
" transform="scale(0.015625)"/>
       </defs>
       <use xlink:href="#DejaVuSans-32"/>
       <use xlink:href="#DejaVuSans-30" transform="translate(63.623047 0)"/>
       <use xlink:href="#DejaVuSans-32" transform="translate(127.246094 0)"/>
       <use xlink:href="#DejaVuSans-33" transform="translate(190.869141 0)"/>
       <use xlink:href="#DejaVuSans-2d" transform="translate(254.492188 0)"/>
       <use xlink:href="#DejaVuSans-30" transform="translate(290.576172 0)"/>
       <use xlink:href="#DejaVuSans-31" transform="translate(354.199219 0)"/>
      </g>
     </g>
    </g>
    <g id="xtick_5">
     <g id="line2d_9">
      <path d="M 414.66883 320.4 
L 414.66883 43.2 
" clip-path="url(#pe16d0665a2)" style="fill: none; stroke-dasharray: 5.12,1.28,0.8,1.28; stroke-dashoffset: 0; stroke: #b0b0b0; stroke-width: 0.8"/>
     </g>
     <g id="line2d_10">
      <g>
       <use xlink:href="#m249bd85e3a" x="414.66883" y="320.4" style="fill: #a9a9a9; stroke: #a9a9a9; stroke-width: 0.8"/>
      </g>
     </g>
     <g id="text_5">
      <!-- 2023-07 -->
      <g style="fill: #a9a9a9" transform="translate(393.777423 334.998438) scale(0.1 -0.1)">
       <use xlink:href="#DejaVuSans-32"/>
       <use xlink:href="#DejaVuSans-30" transform="translate(63.623047 0)"/>
       <use xlink:href="#DejaVuSans-32" transform="translate(127.246094 0)"/>
       <use xlink:href="#DejaVuSans-33" transform="translate(190.869141 0)"/>
       <use xlink:href="#DejaVuSans-2d" transform="translate(254.492188 0)"/>
       <use xlink:href="#DejaVuSans-30" transform="translate(290.576172 0)"/>
       <use xlink:href="#DejaVuSans-37" transform="translate(354.199219 0)"/>
      </g>
     </g>
    </g>
    <g id="xtick_6">
     <g id="line2d_11">
      <path d="M 486.559599 320.4 
L 486.559599 43.2 
" clip-path="url(#pe16d0665a2)" style="fill: none; stroke-dasharray: 5.12,1.28,0.8,1.28; stroke-dashoffset: 0; stroke: #b0b0b0; stroke-width: 0.8"/>
     </g>
     <g id="line2d_12">
      <g>
       <use xlink:href="#m249bd85e3a" x="486.559599" y="320.4" style="fill: #a9a9a9; stroke: #a9a9a9; stroke-width: 0.8"/>
      </g>
     </g>
     <g id="text_6">
      <!-- 2024-01 -->
      <g style="fill: #a9a9a9" transform="translate(465.668192 334.998438) scale(0.1 -0.1)">
       <defs>
        <path id="DejaVuSans-34" d="M 2419 4116 
L 825 1625 
L 2419 1625 
L 2419 4116 
z
M 2253 4666 
L 3047 4666 
L 3047 1625 
L 3713 1625 
L 3713 1100 
L 3047 1100 
L 3047 0 
L 2419 0 
L 2419 1100 
L 313 1100 
L 313 1709 
L 2253 4666 
z
" transform="scale(0.015625)"/>
       </defs>
       <use xlink:href="#DejaVuSans-32"/>
       <use xlink:href="#DejaVuSans-30" transform="translate(63.623047 0)"/>
       <use xlink:href="#DejaVuSans-32" transform="translate(127.246094 0)"/>
       <use xlink:href="#DejaVuSans-34" transform="translate(190.869141 0)"/>
       <use xlink:href="#DejaVuSans-2d" transform="translate(254.492188 0)"/>
       <use xlink:href="#DejaVuSans-30" transform="translate(290.576172 0)"/>
       <use xlink:href="#DejaVuSans-31" transform="translate(354.199219 0)"/>
      </g>
     </g>
    </g>
    <g id="xtick_7">
     <g id="line2d_13">
      <path d="M 557.668946 320.4 
L 557.668946 43.2 
" clip-path="url(#pe16d0665a2)" style="fill: none; stroke-dasharray: 5.12,1.28,0.8,1.28; stroke-dashoffset: 0; stroke: #b0b0b0; stroke-width: 0.8"/>
     </g>
     <g id="line2d_14">
      <g>
       <use xlink:href="#m249bd85e3a" x="557.668946" y="320.4" style="fill: #a9a9a9; stroke: #a9a9a9; stroke-width: 0.8"/>
      </g>
     </g>
     <g id="text_7">
      <!-- 2024-07 -->
      <g style="fill: #a9a9a9" transform="translate(536.77754 334.998438) scale(0.1 -0.1)">
       <use xlink:href="#DejaVuSans-32"/>
       <use xlink:href="#DejaVuSans-30" transform="translate(63.623047 0)"/>
       <use xlink:href="#DejaVuSans-32" transform="translate(127.246094 0)"/>
       <use xlink:href="#DejaVuSans-34" transform="translate(190.869141 0)"/>
       <use xlink:href="#DejaVuSans-2d" transform="translate(254.492188 0)"/>
       <use xlink:href="#DejaVuSans-30" transform="translate(290.576172 0)"/>
       <use xlink:href="#DejaVuSans-37" transform="translate(354.199219 0)"/>
      </g>
     </g>
    </g>
    <g id="xtick_8">
     <g id="line2d_15">
      <path d="M 629.559715 320.4 
L 629.559715 43.2 
" clip-path="url(#pe16d0665a2)" style="fill: none; stroke-dasharray: 5.12,1.28,0.8,1.28; stroke-dashoffset: 0; stroke: #b0b0b0; stroke-width: 0.8"/>
     </g>
     <g id="line2d_16">
      <g>
       <use xlink:href="#m249bd85e3a" x="629.559715" y="320.4" style="fill: #a9a9a9; stroke: #a9a9a9; stroke-width: 0.8"/>
      </g>
     </g>
     <g id="text_8">
      <!-- 2025-01 -->
      <g style="fill: #a9a9a9" transform="translate(608.668309 334.998438) scale(0.1 -0.1)">
       <defs>
        <path id="DejaVuSans-35" d="M 691 4666 
L 3169 4666 
L 3169 4134 
L 1269 4134 
L 1269 2991 
Q 1406 3038 1543 3061 
Q 1681 3084 1819 3084 
Q 2600 3084 3056 2656 
Q 3513 2228 3513 1497 
Q 3513 744 3044 326 
Q 2575 -91 1722 -91 
Q 1428 -91 1123 -41 
Q 819 9 494 109 
L 494 744 
Q 775 591 1075 516 
Q 1375 441 1709 441 
Q 2250 441 2565 725 
Q 2881 1009 2881 1497 
Q 2881 1984 2565 2268 
Q 2250 2553 1709 2553 
Q 1456 2553 1204 2497 
Q 953 2441 691 2322 
L 691 4666 
z
" transform="scale(0.015625)"/>
       </defs>
       <use xlink:href="#DejaVuSans-32"/>
       <use xlink:href="#DejaVuSans-30" transform="translate(63.623047 0)"/>
       <use xlink:href="#DejaVuSans-32" transform="translate(127.246094 0)"/>
       <use xlink:href="#DejaVuSans-35" transform="translate(190.869141 0)"/>
       <use xlink:href="#DejaVuSans-2d" transform="translate(254.492188 0)"/>
       <use xlink:href="#DejaVuSans-30" transform="translate(290.576172 0)"/>
       <use xlink:href="#DejaVuSans-31" transform="translate(354.199219 0)"/>
      </g>
     </g>
    </g>
    <g id="xtick_9">
     <g id="line2d_17">
      <path d="M 700.278352 320.4 
L 700.278352 43.2 
" clip-path="url(#pe16d0665a2)" style="fill: none; stroke-dasharray: 5.12,1.28,0.8,1.28; stroke-dashoffset: 0; stroke: #b0b0b0; stroke-width: 0.8"/>
     </g>
     <g id="line2d_18">
      <g>
       <use xlink:href="#m249bd85e3a" x="700.278352" y="320.4" style="fill: #a9a9a9; stroke: #a9a9a9; stroke-width: 0.8"/>
      </g>
     </g>
     <g id="text_9">
      <!-- 2025-07 -->
      <g style="fill: #a9a9a9" transform="translate(679.386946 334.998438) scale(0.1 -0.1)">
       <use xlink:href="#DejaVuSans-32"/>
       <use xlink:href="#DejaVuSans-30" transform="translate(63.623047 0)"/>
       <use xlink:href="#DejaVuSans-32" transform="translate(127.246094 0)"/>
       <use xlink:href="#DejaVuSans-35" transform="translate(190.869141 0)"/>
       <use xlink:href="#DejaVuSans-2d" transform="translate(254.492188 0)"/>
       <use xlink:href="#DejaVuSans-30" transform="translate(290.576172 0)"/>
       <use xlink:href="#DejaVuSans-37" transform="translate(354.199219 0)"/>
      </g>
     </g>
    </g>
    <g id="xtick_10">
     <g id="line2d_19">
      <path d="M 772.169121 320.4 
L 772.169121 43.2 
" clip-path="url(#pe16d0665a2)" style="fill: none; stroke-dasharray: 5.12,1.28,0.8,1.28; stroke-dashoffset: 0; stroke: #b0b0b0; stroke-width: 0.8"/>
     </g>
     <g id="line2d_20">
      <g>
       <use xlink:href="#m249bd85e3a" x="772.169121" y="320.4" style="fill: #a9a9a9; stroke: #a9a9a9; stroke-width: 0.8"/>
      </g>
     </g>
     <g id="text_10">
      <!-- 2026-01 -->
      <g style="fill: #a9a9a9" transform="translate(751.277715 334.998438) scale(0.1 -0.1)">
       <defs>
        <path id="DejaVuSans-36" d="M 2113 2584 
Q 1688 2584 1439 2293 
Q 1191 2003 1191 1497 
Q 1191 994 1439 701 
Q 1688 409 2113 409 
Q 2538 409 2786 701 
Q 3034 994 3034 1497 
Q 3034 2003 2786 2293 
Q 2538 2584 2113 2584 
z
M 3366 4563 
L 3366 3988 
Q 3128 4100 2886 4159 
Q 2644 4219 2406 4219 
Q 1781 4219 1451 3797 
Q 1122 3375 1075 2522 
Q 1259 2794 1537 2939 
Q 1816 3084 2150 3084 
Q 2853 3084 3261 2657 
Q 3669 2231 3669 1497 
Q 3669 778 3244 343 
Q 2819 -91 2113 -91 
Q 1303 -91 875 529 
Q 447 1150 447 2328 
Q 447 3434 972 4092 
Q 1497 4750 2381 4750 
Q 2619 4750 2861 4703 
Q 3103 4656 3366 4563 
z
" transform="scale(0.015625)"/>
       </defs>
       <use xlink:href="#DejaVuSans-32"/>
       <use xlink:href="#DejaVuSans-30" transform="translate(63.623047 0)"/>
       <use xlink:href="#DejaVuSans-32" transform="translate(127.246094 0)"/>
       <use xlink:href="#DejaVuSans-36" transform="translate(190.869141 0)"/>
       <use xlink:href="#DejaVuSans-2d" transform="translate(254.492188 0)"/>
       <use xlink:href="#DejaVuSans-30" transform="translate(290.576172 0)"/>
       <use xlink:href="#DejaVuSans-31" transform="translate(354.199219 0)"/>
      </g>
     </g>
    </g>
   </g>
   <g id="matplotlib.axis_2">
    <g id="ytick_1">
     <g id="line2d_21">
      <path d="M 108 307.83042 
L 777.6 307.83042 
" clip-path="url(#pe16d0665a2)" style="fill: none; stroke-dasharray: 5.12,1.28,0.8,1.28; stroke-dashoffset: 0; stroke: #b0b0b0; stroke-width: 0.8"/>
     </g>
     <g id="line2d_22">
      <defs>
       <path id="m9c7df25668" d="M 0 0 
L -3.5 0 
" style="stroke: #a9a9a9; stroke-width: 0.8"/>
      </defs>
      <g>
       <use xlink:href="#m9c7df25668" x="108" y="307.83042" style="fill: #a9a9a9; stroke: #a9a9a9; stroke-width: 0.8"/>
      </g>
     </g>
     <g id="text_11">
      <!-- 0 -->
      <g style="fill: #a9a9a9" transform="translate(94.6375 311.629639) scale(0.1 -0.1)">
       <use xlink:href="#DejaVuSans-30"/>
      </g>
     </g>
    </g>
    <g id="ytick_2">
     <g id="line2d_23">
      <path d="M 108 277.410333 
L 777.6 277.410333 
" clip-path="url(#pe16d0665a2)" style="fill: none; stroke-dasharray: 5.12,1.28,0.8,1.28; stroke-dashoffset: 0; stroke: #b0b0b0; stroke-width: 0.8"/>
     </g>
     <g id="line2d_24">
      <g>
       <use xlink:href="#m9c7df25668" x="108" y="277.410333" style="fill: #a9a9a9; stroke: #a9a9a9; stroke-width: 0.8"/>
      </g>
     </g>
     <g id="text_12">
      <!-- 1000 -->
      <g style="fill: #a9a9a9" transform="translate(75.55 281.209552) scale(0.1 -0.1)">
       <use xlink:href="#DejaVuSans-31"/>
       <use xlink:href="#DejaVuSans-30" transform="translate(63.623047 0)"/>
       <use xlink:href="#DejaVuSans-30" transform="translate(127.246094 0)"/>
       <use xlink:href="#DejaVuSans-30" transform="translate(190.869141 0)"/>
      </g>
     </g>
    </g>
    <g id="ytick_3">
     <g id="line2d_25">
      <path d="M 108 246.990246 
L 777.6 246.990246 
" clip-path="url(#pe16d0665a2)" style="fill: none; stroke-dasharray: 5.12,1.28,0.8,1.28; stroke-dashoffset: 0; stroke: #b0b0b0; stroke-width: 0.8"/>
     </g>
     <g id="line2d_26">
      <g>
       <use xlink:href="#m9c7df25668" x="108" y="246.990246" style="fill: #a9a9a9; stroke: #a9a9a9; stroke-width: 0.8"/>
      </g>
     </g>
     <g id="text_13">
      <!-- 2000 -->
      <g style="fill: #a9a9a9" transform="translate(75.55 250.789465) scale(0.1 -0.1)">
       <use xlink:href="#DejaVuSans-32"/>
       <use xlink:href="#DejaVuSans-30" transform="translate(63.623047 0)"/>
       <use xlink:href="#DejaVuSans-30" transform="translate(127.246094 0)"/>
       <use xlink:href="#DejaVuSans-30" transform="translate(190.869141 0)"/>
      </g>
     </g>
    </g>
    <g id="ytick_4">
     <g id="line2d_27">
      <path d="M 108 216.570159 
L 777.6 216.570159 
" clip-path="url(#pe16d0665a2)" style="fill: none; stroke-dasharray: 5.12,1.28,0.8,1.28; stroke-dashoffset: 0; stroke: #b0b0b0; stroke-width: 0.8"/>
     </g>
     <g id="line2d_28">
      <g>
       <use xlink:href="#m9c7df25668" x="108" y="216.570159" style="fill: #a9a9a9; stroke: #a9a9a9; stroke-width: 0.8"/>
      </g>
     </g>
     <g id="text_14">
      <!-- 3000 -->
      <g style="fill: #a9a9a9" transform="translate(75.55 220.369378) scale(0.1 -0.1)">
       <use xlink:href="#DejaVuSans-33"/>
       <use xlink:href="#DejaVuSans-30" transform="translate(63.623047 0)"/>
       <use xlink:href="#DejaVuSans-30" transform="translate(127.246094 0)"/>
       <use xlink:href="#DejaVuSans-30" transform="translate(190.869141 0)"/>
      </g>
     </g>
    </g>
    <g id="ytick_5">
     <g id="line2d_29">
      <path d="M 108 186.150072 
L 777.6 186.150072 
" clip-path="url(#pe16d0665a2)" style="fill: none; stroke-dasharray: 5.12,1.28,0.8,1.28; stroke-dashoffset: 0; stroke: #b0b0b0; stroke-width: 0.8"/>
     </g>
     <g id="line2d_30">
      <g>
       <use xlink:href="#m9c7df25668" x="108" y="186.150072" style="fill: #a9a9a9; stroke: #a9a9a9; stroke-width: 0.8"/>
      </g>
     </g>
     <g id="text_15">
      <!-- 4000 -->
      <g style="fill: #a9a9a9" transform="translate(75.55 189.949291) scale(0.1 -0.1)">
       <use xlink:href="#DejaVuSans-34"/>
       <use xlink:href="#DejaVuSans-30" transform="translate(63.623047 0)"/>
       <use xlink:href="#DejaVuSans-30" transform="translate(127.246094 0)"/>
       <use xlink:href="#DejaVuSans-30" transform="translate(190.869141 0)"/>
      </g>
     </g>
    </g>
    <g id="ytick_6">
     <g id="line2d_31">
      <path d="M 108 155.729986 
L 777.6 155.729986 
" clip-path="url(#pe16d0665a2)" style="fill: none; stroke-dasharray: 5.12,1.28,0.8,1.28; stroke-dashoffset: 0; stroke: #b0b0b0; stroke-width: 0.8"/>
     </g>
     <g id="line2d_32">
      <g>
       <use xlink:href="#m9c7df25668" x="108" y="155.729986" style="fill: #a9a9a9; stroke: #a9a9a9; stroke-width: 0.8"/>
      </g>
     </g>
     <g id="text_16">
      <!-- 5000 -->
      <g style="fill: #a9a9a9" transform="translate(75.55 159.529204) scale(0.1 -0.1)">
       <use xlink:href="#DejaVuSans-35"/>
       <use xlink:href="#DejaVuSans-30" transform="translate(63.623047 0)"/>
       <use xlink:href="#DejaVuSans-30" transform="translate(127.246094 0)"/>
       <use xlink:href="#DejaVuSans-30" transform="translate(190.869141 0)"/>
      </g>
     </g>
    </g>
    <g id="ytick_7">
     <g id="line2d_33">
      <path d="M 108 125.309899 
L 777.6 125.309899 
" clip-path="url(#pe16d0665a2)" style="fill: none; stroke-dasharray: 5.12,1.28,0.8,1.28; stroke-dashoffset: 0; stroke: #b0b0b0; stroke-width: 0.8"/>
     </g>
     <g id="line2d_34">
      <g>
       <use xlink:href="#m9c7df25668" x="108" y="125.309899" style="fill: #a9a9a9; stroke: #a9a9a9; stroke-width: 0.8"/>
      </g>
     </g>
     <g id="text_17">
      <!-- 6000 -->
      <g style="fill: #a9a9a9" transform="translate(75.55 129.109117) scale(0.1 -0.1)">
       <use xlink:href="#DejaVuSans-36"/>
       <use xlink:href="#DejaVuSans-30" transform="translate(63.623047 0)"/>
       <use xlink:href="#DejaVuSans-30" transform="translate(127.246094 0)"/>
       <use xlink:href="#DejaVuSans-30" transform="translate(190.869141 0)"/>
      </g>
     </g>
    </g>
    <g id="ytick_8">
     <g id="line2d_35">
      <path d="M 108 94.889812 
L 777.6 94.889812 
" clip-path="url(#pe16d0665a2)" style="fill: none; stroke-dasharray: 5.12,1.28,0.8,1.28; stroke-dashoffset: 0; stroke: #b0b0b0; stroke-width: 0.8"/>
     </g>
     <g id="line2d_36">
      <g>
       <use xlink:href="#m9c7df25668" x="108" y="94.889812" style="fill: #a9a9a9; stroke: #a9a9a9; stroke-width: 0.8"/>
      </g>
     </g>
     <g id="text_18">
      <!-- 7000 -->
      <g style="fill: #a9a9a9" transform="translate(75.55 98.68903) scale(0.1 -0.1)">
       <use xlink:href="#DejaVuSans-37"/>
       <use xlink:href="#DejaVuSans-30" transform="translate(63.623047 0)"/>
       <use xlink:href="#DejaVuSans-30" transform="translate(127.246094 0)"/>
       <use xlink:href="#DejaVuSans-30" transform="translate(190.869141 0)"/>
      </g>
     </g>
    </g>
    <g id="ytick_9">
     <g id="line2d_37">
      <path d="M 108 64.469725 
L 777.6 64.469725 
" clip-path="url(#pe16d0665a2)" style="fill: none; stroke-dasharray: 5.12,1.28,0.8,1.28; stroke-dashoffset: 0; stroke: #b0b0b0; stroke-width: 0.8"/>
     </g>
     <g id="line2d_38">
      <g>
       <use xlink:href="#m9c7df25668" x="108" y="64.469725" style="fill: #a9a9a9; stroke: #a9a9a9; stroke-width: 0.8"/>
      </g>
     </g>
     <g id="text_19">
      <!-- 8000 -->
      <g style="fill: #a9a9a9" transform="translate(75.55 68.268944) scale(0.1 -0.1)">
       <defs>
        <path id="DejaVuSans-38" d="M 2034 2216 
Q 1584 2216 1326 1975 
Q 1069 1734 1069 1313 
Q 1069 891 1326 650 
Q 1584 409 2034 409 
Q 2484 409 2743 651 
Q 3003 894 3003 1313 
Q 3003 1734 2745 1975 
Q 2488 2216 2034 2216 
z
M 1403 2484 
Q 997 2584 770 2862 
Q 544 3141 544 3541 
Q 544 4100 942 4425 
Q 1341 4750 2034 4750 
Q 2731 4750 3128 4425 
Q 3525 4100 3525 3541 
Q 3525 3141 3298 2862 
Q 3072 2584 2669 2484 
Q 3125 2378 3379 2068 
Q 3634 1759 3634 1313 
Q 3634 634 3220 271 
Q 2806 -91 2034 -91 
Q 1263 -91 848 271 
Q 434 634 434 1313 
Q 434 1759 690 2068 
Q 947 2378 1403 2484 
z
M 1172 3481 
Q 1172 3119 1398 2916 
Q 1625 2713 2034 2713 
Q 2441 2713 2670 2916 
Q 2900 3119 2900 3481 
Q 2900 3844 2670 4047 
Q 2441 4250 2034 4250 
Q 1625 4250 1398 4047 
Q 1172 3844 1172 3481 
z
" transform="scale(0.015625)"/>
       </defs>
       <use xlink:href="#DejaVuSans-38"/>
       <use xlink:href="#DejaVuSans-30" transform="translate(63.623047 0)"/>
       <use xlink:href="#DejaVuSans-30" transform="translate(127.246094 0)"/>
       <use xlink:href="#DejaVuSans-30" transform="translate(190.869141 0)"/>
      </g>
     </g>
    </g>
   </g>
   <g id="line2d_39">
    <path d="M 138.436364 307.73916 
L 140.780628 307.526219 
L 141.171339 307.343699 
L 142.734181 307.130758 
L 144.297024 306.796137 
L 145.078446 306.674457 
L 147.031999 306.491936 
L 147.81342 306.187735 
L 148.204131 305.640174 
L 148.594842 305.366393 
L 148.985553 304.45379 
L 149.376263 304.39295 
L 150.157685 303.906229 
L 150.939106 303.328247 
L 152.501949 302.172284 
L 152.89266 302.020183 
L 153.674081 301.533462 
L 154.846213 300.95548 
L 155.236924 300.286239 
L 156.018345 299.677837 
L 156.799767 299.434476 
L 157.971899 299.251956 
L 160.316163 298.886915 
L 160.706874 298.704394 
L 163.441849 298.461033 
L 165.004691 298.065572 
L 168.130377 297.609271 
L 168.521088 297.39633 
L 168.911798 297.33549 
L 169.69322 297.061709 
L 172.428195 296.574988 
L 173.209616 296.331627 
L 176.726012 295.723225 
L 177.507434 295.540705 
L 179.070277 295.327764 
L 179.851698 295.084404 
L 180.242409 294.506422 
L 181.414541 294.019701 
L 182.586673 293.68508 
L 182.977384 293.472139 
L 183.758805 293.320039 
L 185.321648 292.833317 
L 186.103069 292.772477 
L 186.884491 292.559536 
L 188.447333 292.133655 
L 188.838044 292.103235 
L 189.619466 291.707774 
L 190.010176 291.646934 
L 190.400887 291.433993 
L 194.698705 290.673491 
L 196.261547 290.18677 
L 196.652258 289.912989 
L 198.605812 289.243747 
L 199.387233 288.665765 
L 200.559365 288.422405 
L 205.638604 286.9014 
L 206.029315 286.84056 
L 207.592158 286.201738 
L 207.982868 286.140898 
L 208.76429 285.806277 
L 209.545711 285.775857 
L 210.717843 285.410816 
L 211.108554 285.410816 
L 211.499265 285.228296 
L 212.280686 285.137035 
L 212.671397 284.984935 
L 214.62495 284.893675 
L 215.015661 284.802414 
L 215.797083 284.376533 
L 216.969215 283.950652 
L 217.750636 283.524771 
L 218.922768 283.007629 
L 220.485611 282.186287 
L 220.876322 281.729986 
L 221.657743 280.452342 
L 222.048454 280.330662 
L 222.439164 280.330662 
L 224.002007 279.448479 
L 224.392718 279.357219 
L 224.783429 278.961758 
L 225.56485 278.627137 
L 226.346271 278.262096 
L 226.736982 277.775374 
L 227.127693 277.106132 
L 227.518404 276.832352 
L 227.909114 276.102269 
L 228.299825 275.645968 
L 230.644089 274.307484 
L 232.206932 272.84732 
L 232.597643 271.904297 
L 232.988353 271.295896 
L 233.379064 270.961275 
L 233.769775 270.778754 
L 235.332618 269.40985 
L 236.50475 268.375567 
L 237.286171 267.371704 
L 238.458303 266.489522 
L 240.021146 265.485659 
L 240.411857 265.333559 
L 241.974699 264.360116 
L 242.36541 264.177595 
L 244.318964 262.29155 
L 245.100385 261.956929 
L 245.881807 261.378947 
L 246.272517 261.135587 
L 246.663228 261.074746 
L 247.83536 260.375085 
L 248.226071 259.918783 
L 250.179624 258.79324 
L 250.570335 258.64114 
L 251.742467 257.789377 
L 257.603128 255.599131 
L 258.384549 254.838629 
L 259.556681 254.230227 
L 260.338102 253.713085 
L 261.119524 253.469725 
L 261.510235 253.195944 
L 261.900945 253.074264 
L 263.073077 252.252921 
L 265.026631 251.79662 
L 266.198763 251.066538 
L 267.370895 250.792757 
L 267.761606 250.701497 
L 268.933738 249.788894 
L 270.496581 249.332593 
L 270.887291 248.997972 
L 273.231556 248.14621 
L 274.012977 247.994109 
L 274.794398 247.659488 
L 277.529373 246.594785 
L 278.310795 246.503525 
L 279.482927 246.077644 
L 281.43648 245.073781 
L 283.780745 243.704877 
L 284.562166 243.491936 
L 285.734298 242.883535 
L 286.515719 242.731434 
L 287.297141 242.244713 
L 288.078562 242.031772 
L 289.250694 241.545051 
L 290.813537 241.33211 
L 291.594959 240.906229 
L 291.985669 240.541188 
L 292.37638 239.811106 
L 293.939223 239.354804 
L 295.502066 238.624722 
L 299.018462 237.012458 
L 299.799883 236.829937 
L 300.972015 236.221535 
L 301.362726 236.160695 
L 303.31628 235.156832 
L 304.097701 234.639691 
L 305.269833 234.39633 
L 307.223387 233.879189 
L 307.614097 233.544568 
L 308.395519 233.270787 
L 310.349072 232.449445 
L 310.739783 232.145244 
L 311.130494 231.993143 
L 311.911915 231.536842 
L 313.474758 231.019701 
L 314.256179 230.502559 
L 314.64689 230.076678 
L 315.037601 229.833317 
L 315.428311 229.742057 
L 316.209733 229.072815 
L 316.600443 229.011975 
L 316.991154 228.342733 
L 317.381865 228.160212 
L 317.772576 227.825592 
L 318.163286 227.764751 
L 318.944708 227.24761 
L 319.726129 226.973829 
L 320.11684 226.669628 
L 320.50755 226.517528 
L 322.461104 225.239884 
L 324.805368 224.175181 
L 325.196079 223.475519 
L 325.9775 222.867117 
L 326.368211 222.775857 
L 328.712475 221.589474 
L 329.493897 221.254853 
L 330.275318 220.676871 
L 331.44745 219.551328 
L 332.228872 219.064606 
L 332.619582 218.608305 
L 334.182425 217.482762 
L 334.963846 216.66142 
L 335.745268 216.387639 
L 336.526689 215.840077 
L 337.698821 215.201255 
L 338.089532 215.140415 
L 341.605928 213.28479 
L 342.38735 213.071849 
L 343.950193 212.493868 
L 344.340903 212.159247 
L 345.903746 211.520425 
L 346.294457 211.398745 
L 347.075878 210.881603 
L 347.8573 210.546982 
L 348.638721 209.969 
L 349.420142 208.356736 
L 350.201564 207.444133 
L 351.373696 206.805311 
L 352.155117 206.47069 
L 352.545828 206.40985 
L 353.327249 206.044809 
L 354.890092 205.497248 
L 355.671514 205.040946 
L 356.452935 204.645485 
L 356.843646 204.523805 
L 359.18791 203.063641 
L 359.578621 202.607339 
L 360.750753 201.907677 
L 361.141463 201.755577 
L 361.922885 201.268856 
L 363.485728 200.386673 
L 363.876438 200.295413 
L 364.267149 199.960792 
L 367.002124 199.048189 
L 367.392835 198.774408 
L 368.174256 198.531048 
L 371.299942 196.979623 
L 372.081363 196.553742 
L 372.472074 196.371222 
L 373.253495 195.7324 
L 374.034917 195.519459 
L 374.425627 195.154418 
L 374.816338 195.093578 
L 375.597759 194.485176 
L 377.551313 193.298793 
L 378.332734 193.055432 
L 378.723445 192.812071 
L 379.114156 192.751231 
L 380.676998 191.990729 
L 381.849131 191.595268 
L 382.630552 191.473588 
L 384.193395 190.865186 
L 384.584105 190.834766 
L 386.146948 190.226364 
L 387.31908 189.374602 
L 387.709791 189.222501 
L 388.491213 188.7662 
L 388.881923 188.67494 
L 391.226187 187.306036 
L 391.616898 187.214775 
L 392.78903 186.484693 
L 393.961162 186.058812 
L 394.742584 185.785031 
L 396.305427 185.23747 
L 397.086848 184.963689 
L 398.649691 184.629068 
L 399.431112 184.385707 
L 401.384666 183.716465 
L 402.556798 183.351424 
L 402.947508 183.199324 
L 404.119641 183.016803 
L 406.463905 182.560502 
L 407.636037 182.286721 
L 408.026748 182.104201 
L 408.808169 181.9521 
L 409.58959 181.73916 
L 410.371012 181.374119 
L 410.761722 181.222018 
L 411.152433 181.222018 
L 415.450251 179.853114 
L 415.840962 179.640174 
L 416.231672 179.640174 
L 417.013094 179.335973 
L 417.403804 178.910092 
L 419.748069 177.906229 
L 421.310911 177.358667 
L 421.701622 177.115307 
L 422.873754 176.750266 
L 423.655176 176.537325 
L 424.045886 176.263544 
L 424.436597 176.172284 
L 424.827308 175.807243 
L 425.99944 175.563882 
L 426.780861 175.198841 
L 427.171572 174.71212 
L 431.46939 173.738677 
L 431.8601 173.738677 
L 432.641522 173.495316 
L 436.157918 172.582714 
L 436.548629 172.430613 
L 437.33005 172.278513 
L 439.283604 171.761371 
L 440.455736 171.39633 
L 442.409289 170.757508 
L 443.190711 170.422887 
L 443.972132 170.118687 
L 444.362843 169.844906 
L 445.144264 169.601545 
L 447.879239 168.536842 
L 449.442082 168.354322 
L 452.567768 167.167938 
L 452.958478 166.863737 
L 453.349189 166.772477 
L 453.7399 166.559536 
L 454.13061 166.529116 
L 458.428428 164.916852 
L 460.381982 164.36929 
L 461.163403 163.973829 
L 462.335535 163.700048 
L 463.898378 162.361564 
L 465.461221 161.661902 
L 467.024063 160.992661 
L 467.414774 160.9014 
L 467.805485 160.62762 
L 468.586906 160.384259 
L 468.977617 160.110478 
L 470.93117 159.441236 
L 474.838278 157.40309 
L 475.619699 157.038049 
L 476.01041 156.733848 
L 476.791831 156.460068 
L 479.136095 155.304104 
L 479.526806 155.212844 
L 480.698938 154.665282 
L 482.261781 154.117721 
L 483.043202 153.7831 
L 483.824624 153.66142 
L 484.215334 153.387639 
L 485.778177 153.083438 
L 486.559599 152.748817 
L 488.903863 151.592854 
L 489.294573 151.532014 
L 490.466706 150.832352 
L 491.638838 150.40647 
L 494.373813 149.220087 
L 494.764523 149.098407 
L 495.155234 148.824626 
L 495.936655 148.733366 
L 496.327366 148.459585 
L 497.108787 148.337904 
L 497.890209 147.942443 
L 498.67163 147.699083 
L 500.234473 147.151521 
L 501.406605 146.72564 
L 503.360159 146.208498 
L 504.923002 145.539256 
L 505.704423 145.113375 
L 507.267266 144.292033 
L 508.048687 144.109512 
L 508.439398 143.866152 
L 508.830109 143.774891 
L 510.783662 142.801449 
L 513.909348 141.675905 
L 514.300058 141.554225 
L 515.08148 141.128344 
L 517.035033 140.428682 
L 519.379297 139.455239 
L 520.94214 138.694737 
L 524.849247 137.112892 
L 525.630669 136.717431 
L 526.021379 136.626171 
L 526.802801 136.32197 
L 527.193511 136.32197 
L 527.974933 135.956929 
L 529.537776 134.618445 
L 529.928486 134.496765 
L 530.319197 134.253404 
L 531.491329 133.918783 
L 531.88204 133.614582 
L 532.663461 133.340802 
L 533.835593 132.549879 
L 534.617015 132.336939 
L 535.398436 131.911057 
L 536.570568 131.637277 
L 538.524122 130.937615 
L 539.305543 130.694254 
L 540.477675 130.055432 
L 541.259097 129.659971 
L 542.040518 129.44703 
L 543.603361 128.716948 
L 543.994072 128.595268 
L 544.775493 128.230227 
L 546.729047 127.591405 
L 547.901179 126.830903 
L 548.291889 126.739643 
L 549.073311 126.344182 
L 549.854732 126.039981 
L 550.245443 125.67494 
L 551.417575 125.218638 
L 551.808286 125.157798 
L 553.371128 124.427716 
L 554.543261 124.062675 
L 555.715393 123.636794 
L 556.496814 123.393433 
L 557.278236 123.241333 
L 558.059657 122.785031 
L 558.450368 122.632931 
L 558.841078 122.32873 
L 560.01321 122.024529 
L 560.794632 121.720328 
L 561.576053 121.385707 
L 563.138896 120.746886 
L 565.873871 120.016803 
L 566.655292 119.712603 
L 568.218135 119.408402 
L 568.999557 119.256301 
L 570.171689 118.8 
L 571.343821 118.556639 
L 573.688085 117.157315 
L 574.860217 116.427233 
L 577.204481 115.697151 
L 577.595192 115.39295 
L 580.720878 114.267407 
L 581.89301 113.902366 
L 582.674431 113.476485 
L 583.455852 113.263544 
L 583.846563 113.050604 
L 584.627985 112.898503 
L 586.190827 112.290101 
L 586.972249 111.77296 
L 588.144381 111.468759 
L 589.316513 110.677837 
L 589.707224 110.616997 
L 591.270067 109.978175 
L 592.832909 109.582714 
L 593.22362 109.521873 
L 593.614331 109.339353 
L 594.005041 109.308933 
L 594.786463 109.035152 
L 595.177174 109.004732 
L 596.349306 108.548431 
L 597.912148 108.092129 
L 598.69357 107.483728 
L 600.256413 106.601545 
L 600.647123 106.510285 
L 601.428545 106.206084 
L 604.944941 104.441719 
L 605.335652 104.076678 
L 607.289205 103.589957 
L 608.461337 103.042395 
L 609.242759 102.829454 
L 609.633469 102.646934 
L 610.02418 102.312313 
L 611.977734 101.612651 
L 617.056973 99.726606 
L 617.838394 99.574505 
L 619.791948 98.935683 
L 620.96408 98.418542 
L 623.699055 97.597199 
L 624.480476 97.140898 
L 627.215451 96.197875 
L 628.778294 95.680734 
L 629.950426 95.406953 
L 631.122558 95.041912 
L 631.513269 94.950652 
L 631.903979 94.707291 
L 632.685401 94.524771 
L 634.248244 94.068469 
L 634.638954 94.038049 
L 635.420376 93.673008 
L 638.155351 92.973346 
L 639.718193 92.395365 
L 640.108904 92.395365 
L 641.281036 92.121584 
L 642.062458 91.969483 
L 642.843879 91.756543 
L 644.016011 91.117721 
L 645.188143 90.75268 
L 647.923118 89.809657 
L 649.485961 89.018735 
L 650.658093 88.744954 
L 651.439515 88.501593 
L 652.220936 88.106132 
L 652.611647 87.771511 
L 653.393068 87.528151 
L 653.783779 87.28479 
L 654.5652 87.19353 
L 657.300175 86.402607 
L 658.472307 86.159247 
L 659.644439 85.855046 
L 660.425861 85.672525 
L 661.597993 85.064124 
L 666.677232 83.117238 
L 667.458653 82.995558 
L 668.240075 82.843457 
L 668.630785 82.843457 
L 669.802917 82.478416 
L 670.97505 82.113375 
L 674.491446 81.109512 
L 675.272867 80.896572 
L 675.663578 80.805311 
L 676.054289 80.561951 
L 676.83571 80.40985 
L 677.617132 80.31859 
L 678.007842 80.105649 
L 678.398553 80.075229 
L 679.179974 79.558088 
L 680.742817 79.223467 
L 681.524239 78.888846 
L 682.30566 78.615065 
L 683.087081 78.402125 
L 683.868503 78.067504 
L 684.259213 78.006663 
L 685.040635 77.732883 
L 686.212767 77.398262 
L 686.994188 77.337422 
L 688.16632 76.91154 
L 688.947742 76.78986 
L 691.682717 75.755577 
L 694.026981 75.360116 
L 694.808402 75.116755 
L 695.199113 75.055915 
L 695.980534 74.721294 
L 696.371245 74.660454 
L 696.761956 74.477933 
L 697.543377 73.808691 
L 701.450484 72.378947 
L 703.794749 71.740126 
L 704.57617 71.314244 
L 704.966881 71.222984 
L 706.139013 70.584162 
L 706.529723 70.492902 
L 706.920434 70.188701 
L 708.092566 69.85408 
L 714.343937 67.055432 
L 714.734648 66.994592 
L 717.078912 65.808209 
L 717.469623 65.564848 
L 718.641755 65.230227 
L 720.204598 64.591405 
L 720.595309 64.560985 
L 722.548862 63.830903 
L 723.330284 63.678803 
L 724.111705 63.100821 
L 724.502416 63.100821 
L 725.283837 62.82704 
L 725.674548 62.7662 
L 726.065258 62.553259 
L 727.628101 62.218638 
L 729.190944 61.549396 
L 729.581655 61.549396 
L 730.753787 61.153935 
L 731.535208 61.032255 
L 732.70734 60.363013 
L 733.488762 59.967552 
L 735.442315 59.32873 
L 736.223737 58.994109 
L 737.78658 58.476968 
L 740.130844 57.838146 
L 742.475108 57.047224 
L 743.256529 56.773443 
L 743.64724 56.712603 
L 744.428661 56.469242 
L 745.210083 56.256301 
L 747.163636 55.8 
L 747.163636 55.8 
" clip-path="url(#pe16d0665a2)" style="fill: none; stroke: #1f77b4; stroke-width: 1.5; stroke-linecap: square"/>
   </g>
   <g id="line2d_40">
    <path d="M 138.827074 307.8 
L 142.343471 307.70874 
L 145.469156 307.556639 
L 147.031999 307.556639 
L 147.42271 307.434959 
L 149.376263 307.343699 
L 151.720527 307.069918 
L 154.064792 306.978658 
L 154.846213 306.887397 
L 157.581188 306.765717 
L 160.316163 306.674457 
L 162.269716 306.613617 
L 167.348956 306.522356 
L 169.302509 306.461516 
L 172.818905 306.370256 
L 174.381748 306.339836 
L 178.288855 306.248576 
L 179.851698 306.096475 
L 181.414541 306.066055 
L 183.758805 305.974795 
L 185.321648 305.944375 
L 187.275201 305.883535 
L 188.838044 305.731434 
L 192.35444 305.640174 
L 193.135862 305.579334 
L 194.698705 305.488073 
L 197.042969 305.396813 
L 198.605812 305.305553 
L 205.638604 304.849252 
L 208.373579 304.757991 
L 209.545711 304.636311 
L 211.499265 304.545051 
L 215.406372 304.33211 
L 219.313479 304.27127 
L 220.876322 304.088749 
L 222.829875 303.997489 
L 226.736982 303.602028 
L 229.081246 303.297827 
L 230.644089 303.236987 
L 233.769775 302.811106 
L 236.114039 302.750266 
L 237.286171 302.628585 
L 238.458303 302.537325 
L 249.398203 301.655142 
L 250.179624 301.503042 
L 252.523888 301.411782 
L 258.77526 301.016321 
L 261.510235 300.92506 
L 263.073077 300.74254 
L 265.026631 300.65128 
L 267.370895 300.560019 
L 269.324449 300.468759 
L 270.887291 300.438339 
L 272.840845 300.377499 
L 273.622266 300.255818 
L 279.092216 300.164558 
L 279.873638 300.073298 
L 284.562166 299.982038 
L 288.078562 299.799517 
L 290.813537 299.708257 
L 292.37638 299.525736 
L 295.111355 299.434476 
L 295.892776 299.312796 
L 297.84633 299.251956 
L 301.753437 299.191115 
L 303.31628 299.039015 
L 304.879122 299.008595 
L 306.051255 298.917335 
L 307.614097 298.765234 
L 311.521204 298.552294 
L 315.428311 298.461033 
L 318.944708 298.278513 
L 320.11684 298.248093 
L 320.898261 298.126412 
L 322.851815 298.035152 
L 323.633236 297.974312 
L 324.414657 297.913472 
L 325.196079 297.852632 
L 329.103186 297.761371 
L 337.698821 297.18339 
L 338.480243 297.122549 
L 339.652375 297.031289 
L 342.38735 296.940029 
L 344.340903 296.879189 
L 349.810853 296.787929 
L 350.592274 296.696668 
L 356.062224 296.605408 
L 359.969331 296.392467 
L 360.750753 296.362047 
L 361.532174 296.270787 
L 363.485728 296.179527 
L 365.439281 296.118687 
L 367.392835 296.027426 
L 369.346388 295.966586 
L 372.862784 295.875326 
L 375.207049 295.784066 
L 380.676998 295.692805 
L 384.974816 295.449445 
L 386.537659 295.388605 
L 387.709791 295.297344 
L 393.179741 295.206084 
L 395.524005 295.114824 
L 402.556798 295.023563 
L 404.119641 294.993143 
L 408.808169 294.932303 
L 409.58959 294.871463 
L 415.05954 294.780203 
L 416.622383 294.749783 
L 426.780861 294.658522 
L 429.125125 294.567262 
L 445.534975 294.476002 
L 447.488528 294.415162 
L 457.647007 294.354322 
L 458.428428 294.293481 
L 460.381982 294.232641 
L 461.554114 294.110961 
L 463.898378 294.019701 
L 466.633353 293.89802 
L 470.149749 293.80676 
L 472.103303 293.74592 
L 474.838278 293.65466 
L 477.963963 293.502559 
L 479.917517 293.411299 
L 481.480359 293.380879 
L 488.122441 293.289619 
L 490.466706 293.198358 
L 494.764523 293.107098 
L 497.499498 292.985418 
L 500.234473 292.924577 
L 501.015895 292.863737 
L 510.392951 292.772477 
L 514.300058 292.559536 
L 517.035033 292.468276 
L 521.332851 292.224915 
L 524.067826 292.133655 
L 525.630669 292.103235 
L 528.365644 292.011975 
L 530.319197 291.799034 
L 534.226304 291.707774 
L 535.007726 291.616514 
L 538.914833 291.525254 
L 540.868386 291.464413 
L 545.166204 291.433993 
L 545.947625 291.342733 
L 550.245443 291.251473 
L 551.026864 291.190633 
L 559.6225 291.099372 
L 561.966764 291.008112 
L 567.827424 290.916852 
L 569.390267 290.886432 
L 572.906664 290.825592 
L 573.688085 290.734331 
L 578.767324 290.643071 
L 580.720878 290.582231 
L 587.75367 290.490971 
L 588.925802 290.39971 
L 590.097934 290.30845 
L 591.270067 290.21719 
L 597.130727 290.12593 
L 599.474991 290.034669 
L 610.805602 289.943409 
L 614.321998 289.760888 
L 619.791948 289.669628 
L 621.354791 289.639208 
L 626.043319 289.547948 
L 627.996872 289.487108 
L 636.201797 289.395847 
L 638.936772 289.274167 
L 645.969565 289.182907 
L 647.532408 289.152487 
L 651.439515 289.061226 
L 654.174489 288.939546 
L 658.472307 288.848286 
L 661.207282 288.726606 
L 664.723678 288.635345 
L 665.5051 288.574505 
L 674.100735 288.483245 
L 676.444999 288.391985 
L 679.179974 288.300724 
L 681.133528 288.239884 
L 692.464138 288.148624 
L 694.808402 288.057364 
L 701.059774 287.966103 
L 703.404038 287.874843 
L 708.483277 287.783583 
L 710.827541 287.692323 
L 713.953227 287.601062 
L 716.297491 287.509802 
L 731.925919 287.418542 
L 735.051605 287.266441 
L 744.037951 287.175181 
L 745.600794 287.144761 
L 747.163636 287.144761 
L 747.163636 287.144761 
" clip-path="url(#pe16d0665a2)" style="fill: none; stroke: #ff7f0e; stroke-width: 1.5; stroke-linecap: square"/>
   </g>
   <g id="patch_3">
    <path d="M 108 320.4 
L 108 43.2 
" style="fill: none; stroke: #a9a9a9; stroke-width: 0.8; stroke-linejoin: miter; stroke-linecap: square"/>
   </g>
   <g id="patch_4">
    <path d="M 777.6 320.4 
L 777.6 43.2 
" style="fill: none"/>
   </g>
   <g id="patch_5">
    <path d="M 108 320.4 
L 777.6 320.4 
" style="fill: none; stroke: #a9a9a9; stroke-width: 0.8; stroke-linejoin: miter; stroke-linecap: square"/>
   </g>
   <g id="patch_6">
    <path d="M 108 43.2 
L 777.6 43.2 
" style="fill: none"/>
   </g>
   <g id="text_20">
    <!-- get_subscribe history -->
    <g style="fill: #a9a9a9" transform="translate(378.6075 37.2) scale(0.12 -0.12)">
     <defs>
      <path id="DejaVuSans-67" d="M 2906 1791 
Q 2906 2416 2648 2759 
Q 2391 3103 1925 3103 
Q 1463 3103 1205 2759 
Q 947 2416 947 1791 
Q 947 1169 1205 825 
Q 1463 481 1925 481 
Q 2391 481 2648 825 
Q 2906 1169 2906 1791 
z
M 3481 434 
Q 3481 -459 3084 -895 
Q 2688 -1331 1869 -1331 
Q 1566 -1331 1297 -1286 
Q 1028 -1241 775 -1147 
L 775 -588 
Q 1028 -725 1275 -790 
Q 1522 -856 1778 -856 
Q 2344 -856 2625 -561 
Q 2906 -266 2906 331 
L 2906 616 
Q 2728 306 2450 153 
Q 2172 0 1784 0 
Q 1141 0 747 490 
Q 353 981 353 1791 
Q 353 2603 747 3093 
Q 1141 3584 1784 3584 
Q 2172 3584 2450 3431 
Q 2728 3278 2906 2969 
L 2906 3500 
L 3481 3500 
L 3481 434 
z
" transform="scale(0.015625)"/>
      <path id="DejaVuSans-65" d="M 3597 1894 
L 3597 1613 
L 953 1613 
Q 991 1019 1311 708 
Q 1631 397 2203 397 
Q 2534 397 2845 478 
Q 3156 559 3463 722 
L 3463 178 
Q 3153 47 2828 -22 
Q 2503 -91 2169 -91 
Q 1331 -91 842 396 
Q 353 884 353 1716 
Q 353 2575 817 3079 
Q 1281 3584 2069 3584 
Q 2775 3584 3186 3129 
Q 3597 2675 3597 1894 
z
M 3022 2063 
Q 3016 2534 2758 2815 
Q 2500 3097 2075 3097 
Q 1594 3097 1305 2825 
Q 1016 2553 972 2059 
L 3022 2063 
z
" transform="scale(0.015625)"/>
      <path id="DejaVuSans-74" d="M 1172 4494 
L 1172 3500 
L 2356 3500 
L 2356 3053 
L 1172 3053 
L 1172 1153 
Q 1172 725 1289 603 
Q 1406 481 1766 481 
L 2356 481 
L 2356 0 
L 1766 0 
Q 1100 0 847 248 
Q 594 497 594 1153 
L 594 3053 
L 172 3053 
L 172 3500 
L 594 3500 
L 594 4494 
L 1172 4494 
z
" transform="scale(0.015625)"/>
      <path id="DejaVuSans-5f" d="M 3263 -1063 
L 3263 -1509 
L -63 -1509 
L -63 -1063 
L 3263 -1063 
z
" transform="scale(0.015625)"/>
      <path id="DejaVuSans-73" d="M 2834 3397 
L 2834 2853 
Q 2591 2978 2328 3040 
Q 2066 3103 1784 3103 
Q 1356 3103 1142 2972 
Q 928 2841 928 2578 
Q 928 2378 1081 2264 
Q 1234 2150 1697 2047 
L 1894 2003 
Q 2506 1872 2764 1633 
Q 3022 1394 3022 966 
Q 3022 478 2636 193 
Q 2250 -91 1575 -91 
Q 1294 -91 989 -36 
Q 684 19 347 128 
L 347 722 
Q 666 556 975 473 
Q 1284 391 1588 391 
Q 1994 391 2212 530 
Q 2431 669 2431 922 
Q 2431 1156 2273 1281 
Q 2116 1406 1581 1522 
L 1381 1569 
Q 847 1681 609 1914 
Q 372 2147 372 2553 
Q 372 3047 722 3315 
Q 1072 3584 1716 3584 
Q 2034 3584 2315 3537 
Q 2597 3491 2834 3397 
z
" transform="scale(0.015625)"/>
      <path id="DejaVuSans-75" d="M 544 1381 
L 544 3500 
L 1119 3500 
L 1119 1403 
Q 1119 906 1312 657 
Q 1506 409 1894 409 
Q 2359 409 2629 706 
Q 2900 1003 2900 1516 
L 2900 3500 
L 3475 3500 
L 3475 0 
L 2900 0 
L 2900 538 
Q 2691 219 2414 64 
Q 2138 -91 1772 -91 
Q 1169 -91 856 284 
Q 544 659 544 1381 
z
M 1991 3584 
L 1991 3584 
z
" transform="scale(0.015625)"/>
      <path id="DejaVuSans-62" d="M 3116 1747 
Q 3116 2381 2855 2742 
Q 2594 3103 2138 3103 
Q 1681 3103 1420 2742 
Q 1159 2381 1159 1747 
Q 1159 1113 1420 752 
Q 1681 391 2138 391 
Q 2594 391 2855 752 
Q 3116 1113 3116 1747 
z
M 1159 2969 
Q 1341 3281 1617 3432 
Q 1894 3584 2278 3584 
Q 2916 3584 3314 3078 
Q 3713 2572 3713 1747 
Q 3713 922 3314 415 
Q 2916 -91 2278 -91 
Q 1894 -91 1617 61 
Q 1341 213 1159 525 
L 1159 0 
L 581 0 
L 581 4863 
L 1159 4863 
L 1159 2969 
z
" transform="scale(0.015625)"/>
      <path id="DejaVuSans-63" d="M 3122 3366 
L 3122 2828 
Q 2878 2963 2633 3030 
Q 2388 3097 2138 3097 
Q 1578 3097 1268 2742 
Q 959 2388 959 1747 
Q 959 1106 1268 751 
Q 1578 397 2138 397 
Q 2388 397 2633 464 
Q 2878 531 3122 666 
L 3122 134 
Q 2881 22 2623 -34 
Q 2366 -91 2075 -91 
Q 1284 -91 818 406 
Q 353 903 353 1747 
Q 353 2603 823 3093 
Q 1294 3584 2113 3584 
Q 2378 3584 2631 3529 
Q 2884 3475 3122 3366 
z
" transform="scale(0.015625)"/>
      <path id="DejaVuSans-72" d="M 2631 2963 
Q 2534 3019 2420 3045 
Q 2306 3072 2169 3072 
Q 1681 3072 1420 2755 
Q 1159 2438 1159 1844 
L 1159 0 
L 581 0 
L 581 3500 
L 1159 3500 
L 1159 2956 
Q 1341 3275 1631 3429 
Q 1922 3584 2338 3584 
Q 2397 3584 2469 3576 
Q 2541 3569 2628 3553 
L 2631 2963 
z
" transform="scale(0.015625)"/>
      <path id="DejaVuSans-69" d="M 603 3500 
L 1178 3500 
L 1178 0 
L 603 0 
L 603 3500 
z
M 603 4863 
L 1178 4863 
L 1178 4134 
L 603 4134 
L 603 4863 
z
" transform="scale(0.015625)"/>
      <path id="DejaVuSans-20" transform="scale(0.015625)"/>
      <path id="DejaVuSans-68" d="M 3513 2113 
L 3513 0 
L 2938 0 
L 2938 2094 
Q 2938 2591 2744 2837 
Q 2550 3084 2163 3084 
Q 1697 3084 1428 2787 
Q 1159 2491 1159 1978 
L 1159 0 
L 581 0 
L 581 4863 
L 1159 4863 
L 1159 2956 
Q 1366 3272 1645 3428 
Q 1925 3584 2291 3584 
Q 2894 3584 3203 3211 
Q 3513 2838 3513 2113 
z
" transform="scale(0.015625)"/>
      <path id="DejaVuSans-6f" d="M 1959 3097 
Q 1497 3097 1228 2736 
Q 959 2375 959 1747 
Q 959 1119 1226 758 
Q 1494 397 1959 397 
Q 2419 397 2687 759 
Q 2956 1122 2956 1747 
Q 2956 2369 2687 2733 
Q 2419 3097 1959 3097 
z
M 1959 3584 
Q 2709 3584 3137 3096 
Q 3566 2609 3566 1747 
Q 3566 888 3137 398 
Q 2709 -91 1959 -91 
Q 1206 -91 779 398 
Q 353 888 353 1747 
Q 353 2609 779 3096 
Q 1206 3584 1959 3584 
z
" transform="scale(0.015625)"/>
      <path id="DejaVuSans-79" d="M 2059 -325 
Q 1816 -950 1584 -1140 
Q 1353 -1331 966 -1331 
L 506 -1331 
L 506 -850 
L 844 -850 
Q 1081 -850 1212 -737 
Q 1344 -625 1503 -206 
L 1606 56 
L 191 3500 
L 800 3500 
L 1894 763 
L 2988 3500 
L 3597 3500 
L 2059 -325 
z
" transform="scale(0.015625)"/>
     </defs>
     <use xlink:href="#DejaVuSans-67"/>
     <use xlink:href="#DejaVuSans-65" transform="translate(63.476562 0)"/>
     <use xlink:href="#DejaVuSans-74" transform="translate(125 0)"/>
     <use xlink:href="#DejaVuSans-5f" transform="translate(164.208984 0)"/>
     <use xlink:href="#DejaVuSans-73" transform="translate(214.208984 0)"/>
     <use xlink:href="#DejaVuSans-75" transform="translate(266.308594 0)"/>
     <use xlink:href="#DejaVuSans-62" transform="translate(329.6875 0)"/>
     <use xlink:href="#DejaVuSans-73" transform="translate(393.164062 0)"/>
     <use xlink:href="#DejaVuSans-63" transform="translate(445.263672 0)"/>
     <use xlink:href="#DejaVuSans-72" transform="translate(500.244141 0)"/>
     <use xlink:href="#DejaVuSans-69" transform="translate(541.357422 0)"/>
     <use xlink:href="#DejaVuSans-62" transform="translate(569.140625 0)"/>
     <use xlink:href="#DejaVuSans-65" transform="translate(632.617188 0)"/>
     <use xlink:href="#DejaVuSans-20" transform="translate(694.140625 0)"/>
     <use xlink:href="#DejaVuSans-68" transform="translate(725.927734 0)"/>
     <use xlink:href="#DejaVuSans-69" transform="translate(789.306641 0)"/>
     <use xlink:href="#DejaVuSans-73" transform="translate(817.089844 0)"/>
     <use xlink:href="#DejaVuSans-74" transform="translate(869.189453 0)"/>
     <use xlink:href="#DejaVuSans-6f" transform="translate(908.398438 0)"/>
     <use xlink:href="#DejaVuSans-72" transform="translate(969.580078 0)"/>
     <use xlink:href="#DejaVuSans-79" transform="translate(1010.693359 0)"/>
    </g>
   </g>
   <g id="legend_1">
    <g id="line2d_41">
     <path d="M 815.08 328.498438 
L 825.08 328.498438 
L 835.08 328.498438 
" style="fill: none; stroke: #1f77b4; stroke-width: 1.5; stroke-linecap: square"/>
    </g>
    <g id="text_21">
     <!-- star -->
     <g style="fill: #a9a9a9" transform="translate(843.08 331.998438) scale(0.1 -0.1)">
      <defs>
       <path id="DejaVuSans-61" d="M 2194 1759 
Q 1497 1759 1228 1600 
Q 959 1441 959 1056 
Q 959 750 1161 570 
Q 1363 391 1709 391 
Q 2188 391 2477 730 
Q 2766 1069 2766 1631 
L 2766 1759 
L 2194 1759 
z
M 3341 1997 
L 3341 0 
L 2766 0 
L 2766 531 
Q 2569 213 2275 61 
Q 1981 -91 1556 -91 
Q 1019 -91 701 211 
Q 384 513 384 1019 
Q 384 1609 779 1909 
Q 1175 2209 1959 2209 
L 2766 2209 
L 2766 2266 
Q 2766 2663 2505 2880 
Q 2244 3097 1772 3097 
Q 1472 3097 1187 3025 
Q 903 2953 641 2809 
L 641 3341 
Q 956 3463 1253 3523 
Q 1550 3584 1831 3584 
Q 2591 3584 2966 3190 
Q 3341 2797 3341 1997 
z
" transform="scale(0.015625)"/>
      </defs>
      <use xlink:href="#DejaVuSans-73"/>
      <use xlink:href="#DejaVuSans-74" transform="translate(52.099609 0)"/>
      <use xlink:href="#DejaVuSans-61" transform="translate(91.308594 0)"/>
      <use xlink:href="#DejaVuSans-72" transform="translate(152.587891 0)"/>
     </g>
    </g>
    <g id="line2d_42">
     <path d="M 815.08 343.176562 
L 825.08 343.176562 
L 835.08 343.176562 
" style="fill: none; stroke: #ff7f0e; stroke-width: 1.5; stroke-linecap: square"/>
    </g>
    <g id="text_22">
     <!-- fork -->
     <g style="fill: #a9a9a9" transform="translate(843.08 346.676562) scale(0.1 -0.1)">
      <defs>
       <path id="DejaVuSans-66" d="M 2375 4863 
L 2375 4384 
L 1825 4384 
Q 1516 4384 1395 4259 
Q 1275 4134 1275 3809 
L 1275 3500 
L 2222 3500 
L 2222 3053 
L 1275 3053 
L 1275 0 
L 697 0 
L 697 3053 
L 147 3053 
L 147 3500 
L 697 3500 
L 697 3744 
Q 697 4328 969 4595 
Q 1241 4863 1831 4863 
L 2375 4863 
z
" transform="scale(0.015625)"/>
       <path id="DejaVuSans-6b" d="M 581 4863 
L 1159 4863 
L 1159 1991 
L 2875 3500 
L 3609 3500 
L 1753 1863 
L 3688 0 
L 2938 0 
L 1159 1709 
L 1159 0 
L 581 0 
L 581 4863 
z
" transform="scale(0.015625)"/>
      </defs>
      <use xlink:href="#DejaVuSans-66"/>
      <use xlink:href="#DejaVuSans-6f" transform="translate(35.205078 0)"/>
      <use xlink:href="#DejaVuSans-72" transform="translate(96.386719 0)"/>
      <use xlink:href="#DejaVuSans-6b" transform="translate(137.5 0)"/>
     </g>
    </g>
   </g>
  </g>
 </g>
 <defs>
  <clipPath id="pe16d0665a2">
   <rect x="108" y="43.2" width="669.6" height="277.2"/>
  </clipPath>
 </defs>
</svg>
