<?xml version="1.0" encoding="utf-8" standalone="no"?>
<!DOCTYPE svg PUBLIC "-//W3C//DTD SVG 1.1//EN"
  "http://www.w3.org/Graphics/SVG/1.1/DTD/svg11.dtd">
<svg xmlns:xlink="http://www.w3.org/1999/xlink" width="864pt" height="360pt" viewBox="0 0 864 360" xmlns="http://www.w3.org/2000/svg" version="1.1">
 <metadata>
  <rdf:RDF xmlns:dc="http://purl.org/dc/elements/1.1/" xmlns:cc="http://creativecommons.org/ns#" xmlns:rdf="http://www.w3.org/1999/02/22-rdf-syntax-ns#">
   <cc:Work>
    <dc:type rdf:resource="http://purl.org/dc/dcmitype/StillImage"/>
    <dc:date>2025-07-24T08:16:56.556490</dc:date>
    <dc:format>image/svg+xml</dc:format>
    <dc:creator>
     <cc:Agent>
      <dc:title>Matplotlib v3.10.3, https://matplotlib.org/</dc:title>
     </cc:Agent>
    </dc:creator>
   </cc:Work>
  </rdf:RDF>
 </metadata>
 <defs>
  <style type="text/css">*{stroke-linejoin: round; stroke-linecap: butt}</style>
 </defs>
 <g id="figure_1">
  <g id="patch_1">
   <path d="M 0 360 
L 864 360 
L 864 0 
L 0 0 
L 0 360 
z
" style="fill: none; opacity: 0"/>
  </g>
  <g id="axes_1">
   <g id="patch_2">
    <path d="M 108 320.4 
L 777.6 320.4 
L 777.6 43.2 
L 108 43.2 
L 108 320.4 
z
" style="fill: none; opacity: 0"/>
   </g>
   <g id="matplotlib.axis_1">
    <g id="xtick_1">
     <g id="line2d_1">
      <path d="M 128.853388 320.4 
L 128.853388 43.2 
" clip-path="url(#pb31641986f)" style="fill: none; stroke-dasharray: 5.12,1.28,0.8,1.28; stroke-dashoffset: 0; stroke: #b0b0b0; stroke-width: 0.8"/>
     </g>
     <g id="line2d_2">
      <defs>
       <path id="mb71bfe8683" d="M 0 0 
L 0 3.5 
" style="stroke: #a9a9a9; stroke-width: 0.8"/>
      </defs>
      <g>
       <use xlink:href="#mb71bfe8683" x="128.853388" y="320.4" style="fill: #a9a9a9; stroke: #a9a9a9; stroke-width: 0.8"/>
      </g>
     </g>
     <g id="text_1">
      <!-- 2021-07 -->
      <g style="fill: #a9a9a9" transform="translate(107.961982 334.998438) scale(0.1 -0.1)">
       <defs>
        <path id="DejaVuSans-32" d="M 1228 531 
L 3431 531 
L 3431 0 
L 469 0 
L 469 531 
Q 828 903 1448 1529 
Q 2069 2156 2228 2338 
Q 2531 2678 2651 2914 
Q 2772 3150 2772 3378 
Q 2772 3750 2511 3984 
Q 2250 4219 1831 4219 
Q 1534 4219 1204 4116 
Q 875 4013 500 3803 
L 500 4441 
Q 881 4594 1212 4672 
Q 1544 4750 1819 4750 
Q 2544 4750 2975 4387 
Q 3406 4025 3406 3419 
Q 3406 3131 3298 2873 
Q 3191 2616 2906 2266 
Q 2828 2175 2409 1742 
Q 1991 1309 1228 531 
z
" transform="scale(0.015625)"/>
        <path id="DejaVuSans-30" d="M 2034 4250 
Q 1547 4250 1301 3770 
Q 1056 3291 1056 2328 
Q 1056 1369 1301 889 
Q 1547 409 2034 409 
Q 2525 409 2770 889 
Q 3016 1369 3016 2328 
Q 3016 3291 2770 3770 
Q 2525 4250 2034 4250 
z
M 2034 4750 
Q 2819 4750 3233 4129 
Q 3647 3509 3647 2328 
Q 3647 1150 3233 529 
Q 2819 -91 2034 -91 
Q 1250 -91 836 529 
Q 422 1150 422 2328 
Q 422 3509 836 4129 
Q 1250 4750 2034 4750 
z
" transform="scale(0.015625)"/>
        <path id="DejaVuSans-31" d="M 794 531 
L 1825 531 
L 1825 4091 
L 703 3866 
L 703 4441 
L 1819 4666 
L 2450 4666 
L 2450 531 
L 3481 531 
L 3481 0 
L 794 0 
L 794 531 
z
" transform="scale(0.015625)"/>
        <path id="DejaVuSans-2d" d="M 313 2009 
L 1997 2009 
L 1997 1497 
L 313 1497 
L 313 2009 
z
" transform="scale(0.015625)"/>
        <path id="DejaVuSans-37" d="M 525 4666 
L 3525 4666 
L 3525 4397 
L 1831 0 
L 1172 0 
L 2766 4134 
L 525 4134 
L 525 4666 
z
" transform="scale(0.015625)"/>
       </defs>
       <use xlink:href="#DejaVuSans-32"/>
       <use xlink:href="#DejaVuSans-30" transform="translate(63.623047 0)"/>
       <use xlink:href="#DejaVuSans-32" transform="translate(127.246094 0)"/>
       <use xlink:href="#DejaVuSans-31" transform="translate(190.869141 0)"/>
       <use xlink:href="#DejaVuSans-2d" transform="translate(254.492188 0)"/>
       <use xlink:href="#DejaVuSans-30" transform="translate(290.576172 0)"/>
       <use xlink:href="#DejaVuSans-37" transform="translate(354.199219 0)"/>
      </g>
     </g>
    </g>
    <g id="xtick_2">
     <g id="line2d_3">
      <path d="M 205.517192 320.4 
L 205.517192 43.2 
" clip-path="url(#pb31641986f)" style="fill: none; stroke-dasharray: 5.12,1.28,0.8,1.28; stroke-dashoffset: 0; stroke: #b0b0b0; stroke-width: 0.8"/>
     </g>
     <g id="line2d_4">
      <g>
       <use xlink:href="#mb71bfe8683" x="205.517192" y="320.4" style="fill: #a9a9a9; stroke: #a9a9a9; stroke-width: 0.8"/>
      </g>
     </g>
     <g id="text_2">
      <!-- 2022-01 -->
      <g style="fill: #a9a9a9" transform="translate(184.625786 334.998438) scale(0.1 -0.1)">
       <use xlink:href="#DejaVuSans-32"/>
       <use xlink:href="#DejaVuSans-30" transform="translate(63.623047 0)"/>
       <use xlink:href="#DejaVuSans-32" transform="translate(127.246094 0)"/>
       <use xlink:href="#DejaVuSans-32" transform="translate(190.869141 0)"/>
       <use xlink:href="#DejaVuSans-2d" transform="translate(254.492188 0)"/>
       <use xlink:href="#DejaVuSans-30" transform="translate(290.576172 0)"/>
       <use xlink:href="#DejaVuSans-31" transform="translate(354.199219 0)"/>
      </g>
     </g>
    </g>
    <g id="xtick_3">
     <g id="line2d_5">
      <path d="M 280.931043 320.4 
L 280.931043 43.2 
" clip-path="url(#pb31641986f)" style="fill: none; stroke-dasharray: 5.12,1.28,0.8,1.28; stroke-dashoffset: 0; stroke: #b0b0b0; stroke-width: 0.8"/>
     </g>
     <g id="line2d_6">
      <g>
       <use xlink:href="#mb71bfe8683" x="280.931043" y="320.4" style="fill: #a9a9a9; stroke: #a9a9a9; stroke-width: 0.8"/>
      </g>
     </g>
     <g id="text_3">
      <!-- 2022-07 -->
      <g style="fill: #a9a9a9" transform="translate(260.039637 334.998438) scale(0.1 -0.1)">
       <use xlink:href="#DejaVuSans-32"/>
       <use xlink:href="#DejaVuSans-30" transform="translate(63.623047 0)"/>
       <use xlink:href="#DejaVuSans-32" transform="translate(127.246094 0)"/>
       <use xlink:href="#DejaVuSans-32" transform="translate(190.869141 0)"/>
       <use xlink:href="#DejaVuSans-2d" transform="translate(254.492188 0)"/>
       <use xlink:href="#DejaVuSans-30" transform="translate(290.576172 0)"/>
       <use xlink:href="#DejaVuSans-37" transform="translate(354.199219 0)"/>
      </g>
     </g>
    </g>
    <g id="xtick_4">
     <g id="line2d_7">
      <path d="M 357.594848 320.4 
L 357.594848 43.2 
" clip-path="url(#pb31641986f)" style="fill: none; stroke-dasharray: 5.12,1.28,0.8,1.28; stroke-dashoffset: 0; stroke: #b0b0b0; stroke-width: 0.8"/>
     </g>
     <g id="line2d_8">
      <g>
       <use xlink:href="#mb71bfe8683" x="357.594848" y="320.4" style="fill: #a9a9a9; stroke: #a9a9a9; stroke-width: 0.8"/>
      </g>
     </g>
     <g id="text_4">
      <!-- 2023-01 -->
      <g style="fill: #a9a9a9" transform="translate(336.703442 334.998438) scale(0.1 -0.1)">
       <defs>
        <path id="DejaVuSans-33" d="M 2597 2516 
Q 3050 2419 3304 2112 
Q 3559 1806 3559 1356 
Q 3559 666 3084 287 
Q 2609 -91 1734 -91 
Q 1441 -91 1130 -33 
Q 819 25 488 141 
L 488 750 
Q 750 597 1062 519 
Q 1375 441 1716 441 
Q 2309 441 2620 675 
Q 2931 909 2931 1356 
Q 2931 1769 2642 2001 
Q 2353 2234 1838 2234 
L 1294 2234 
L 1294 2753 
L 1863 2753 
Q 2328 2753 2575 2939 
Q 2822 3125 2822 3475 
Q 2822 3834 2567 4026 
Q 2313 4219 1838 4219 
Q 1578 4219 1281 4162 
Q 984 4106 628 3988 
L 628 4550 
Q 988 4650 1302 4700 
Q 1616 4750 1894 4750 
Q 2613 4750 3031 4423 
Q 3450 4097 3450 3541 
Q 3450 3153 3228 2886 
Q 3006 2619 2597 2516 
z
" transform="scale(0.015625)"/>
       </defs>
       <use xlink:href="#DejaVuSans-32"/>
       <use xlink:href="#DejaVuSans-30" transform="translate(63.623047 0)"/>
       <use xlink:href="#DejaVuSans-32" transform="translate(127.246094 0)"/>
       <use xlink:href="#DejaVuSans-33" transform="translate(190.869141 0)"/>
       <use xlink:href="#DejaVuSans-2d" transform="translate(254.492188 0)"/>
       <use xlink:href="#DejaVuSans-30" transform="translate(290.576172 0)"/>
       <use xlink:href="#DejaVuSans-31" transform="translate(354.199219 0)"/>
      </g>
     </g>
    </g>
    <g id="xtick_5">
     <g id="line2d_9">
      <path d="M 433.008699 320.4 
L 433.008699 43.2 
" clip-path="url(#pb31641986f)" style="fill: none; stroke-dasharray: 5.12,1.28,0.8,1.28; stroke-dashoffset: 0; stroke: #b0b0b0; stroke-width: 0.8"/>
     </g>
     <g id="line2d_10">
      <g>
       <use xlink:href="#mb71bfe8683" x="433.008699" y="320.4" style="fill: #a9a9a9; stroke: #a9a9a9; stroke-width: 0.8"/>
      </g>
     </g>
     <g id="text_5">
      <!-- 2023-07 -->
      <g style="fill: #a9a9a9" transform="translate(412.117293 334.998438) scale(0.1 -0.1)">
       <use xlink:href="#DejaVuSans-32"/>
       <use xlink:href="#DejaVuSans-30" transform="translate(63.623047 0)"/>
       <use xlink:href="#DejaVuSans-32" transform="translate(127.246094 0)"/>
       <use xlink:href="#DejaVuSans-33" transform="translate(190.869141 0)"/>
       <use xlink:href="#DejaVuSans-2d" transform="translate(254.492188 0)"/>
       <use xlink:href="#DejaVuSans-30" transform="translate(290.576172 0)"/>
       <use xlink:href="#DejaVuSans-37" transform="translate(354.199219 0)"/>
      </g>
     </g>
    </g>
    <g id="xtick_6">
     <g id="line2d_11">
      <path d="M 509.672503 320.4 
L 509.672503 43.2 
" clip-path="url(#pb31641986f)" style="fill: none; stroke-dasharray: 5.12,1.28,0.8,1.28; stroke-dashoffset: 0; stroke: #b0b0b0; stroke-width: 0.8"/>
     </g>
     <g id="line2d_12">
      <g>
       <use xlink:href="#mb71bfe8683" x="509.672503" y="320.4" style="fill: #a9a9a9; stroke: #a9a9a9; stroke-width: 0.8"/>
      </g>
     </g>
     <g id="text_6">
      <!-- 2024-01 -->
      <g style="fill: #a9a9a9" transform="translate(488.781097 334.998438) scale(0.1 -0.1)">
       <defs>
        <path id="DejaVuSans-34" d="M 2419 4116 
L 825 1625 
L 2419 1625 
L 2419 4116 
z
M 2253 4666 
L 3047 4666 
L 3047 1625 
L 3713 1625 
L 3713 1100 
L 3047 1100 
L 3047 0 
L 2419 0 
L 2419 1100 
L 313 1100 
L 313 1709 
L 2253 4666 
z
" transform="scale(0.015625)"/>
       </defs>
       <use xlink:href="#DejaVuSans-32"/>
       <use xlink:href="#DejaVuSans-30" transform="translate(63.623047 0)"/>
       <use xlink:href="#DejaVuSans-32" transform="translate(127.246094 0)"/>
       <use xlink:href="#DejaVuSans-34" transform="translate(190.869141 0)"/>
       <use xlink:href="#DejaVuSans-2d" transform="translate(254.492188 0)"/>
       <use xlink:href="#DejaVuSans-30" transform="translate(290.576172 0)"/>
       <use xlink:href="#DejaVuSans-31" transform="translate(354.199219 0)"/>
      </g>
     </g>
    </g>
    <g id="xtick_7">
     <g id="line2d_13">
      <path d="M 585.503005 320.4 
L 585.503005 43.2 
" clip-path="url(#pb31641986f)" style="fill: none; stroke-dasharray: 5.12,1.28,0.8,1.28; stroke-dashoffset: 0; stroke: #b0b0b0; stroke-width: 0.8"/>
     </g>
     <g id="line2d_14">
      <g>
       <use xlink:href="#mb71bfe8683" x="585.503005" y="320.4" style="fill: #a9a9a9; stroke: #a9a9a9; stroke-width: 0.8"/>
      </g>
     </g>
     <g id="text_7">
      <!-- 2024-07 -->
      <g style="fill: #a9a9a9" transform="translate(564.611599 334.998438) scale(0.1 -0.1)">
       <use xlink:href="#DejaVuSans-32"/>
       <use xlink:href="#DejaVuSans-30" transform="translate(63.623047 0)"/>
       <use xlink:href="#DejaVuSans-32" transform="translate(127.246094 0)"/>
       <use xlink:href="#DejaVuSans-34" transform="translate(190.869141 0)"/>
       <use xlink:href="#DejaVuSans-2d" transform="translate(254.492188 0)"/>
       <use xlink:href="#DejaVuSans-30" transform="translate(290.576172 0)"/>
       <use xlink:href="#DejaVuSans-37" transform="translate(354.199219 0)"/>
      </g>
     </g>
    </g>
    <g id="xtick_8">
     <g id="line2d_15">
      <path d="M 662.16681 320.4 
L 662.16681 43.2 
" clip-path="url(#pb31641986f)" style="fill: none; stroke-dasharray: 5.12,1.28,0.8,1.28; stroke-dashoffset: 0; stroke: #b0b0b0; stroke-width: 0.8"/>
     </g>
     <g id="line2d_16">
      <g>
       <use xlink:href="#mb71bfe8683" x="662.16681" y="320.4" style="fill: #a9a9a9; stroke: #a9a9a9; stroke-width: 0.8"/>
      </g>
     </g>
     <g id="text_8">
      <!-- 2025-01 -->
      <g style="fill: #a9a9a9" transform="translate(641.275404 334.998438) scale(0.1 -0.1)">
       <defs>
        <path id="DejaVuSans-35" d="M 691 4666 
L 3169 4666 
L 3169 4134 
L 1269 4134 
L 1269 2991 
Q 1406 3038 1543 3061 
Q 1681 3084 1819 3084 
Q 2600 3084 3056 2656 
Q 3513 2228 3513 1497 
Q 3513 744 3044 326 
Q 2575 -91 1722 -91 
Q 1428 -91 1123 -41 
Q 819 9 494 109 
L 494 744 
Q 775 591 1075 516 
Q 1375 441 1709 441 
Q 2250 441 2565 725 
Q 2881 1009 2881 1497 
Q 2881 1984 2565 2268 
Q 2250 2553 1709 2553 
Q 1456 2553 1204 2497 
Q 953 2441 691 2322 
L 691 4666 
z
" transform="scale(0.015625)"/>
       </defs>
       <use xlink:href="#DejaVuSans-32"/>
       <use xlink:href="#DejaVuSans-30" transform="translate(63.623047 0)"/>
       <use xlink:href="#DejaVuSans-32" transform="translate(127.246094 0)"/>
       <use xlink:href="#DejaVuSans-35" transform="translate(190.869141 0)"/>
       <use xlink:href="#DejaVuSans-2d" transform="translate(254.492188 0)"/>
       <use xlink:href="#DejaVuSans-30" transform="translate(290.576172 0)"/>
       <use xlink:href="#DejaVuSans-31" transform="translate(354.199219 0)"/>
      </g>
     </g>
    </g>
    <g id="xtick_9">
     <g id="line2d_17">
      <path d="M 737.580661 320.4 
L 737.580661 43.2 
" clip-path="url(#pb31641986f)" style="fill: none; stroke-dasharray: 5.12,1.28,0.8,1.28; stroke-dashoffset: 0; stroke: #b0b0b0; stroke-width: 0.8"/>
     </g>
     <g id="line2d_18">
      <g>
       <use xlink:href="#mb71bfe8683" x="737.580661" y="320.4" style="fill: #a9a9a9; stroke: #a9a9a9; stroke-width: 0.8"/>
      </g>
     </g>
     <g id="text_9">
      <!-- 2025-07 -->
      <g style="fill: #a9a9a9" transform="translate(716.689255 334.998438) scale(0.1 -0.1)">
       <use xlink:href="#DejaVuSans-32"/>
       <use xlink:href="#DejaVuSans-30" transform="translate(63.623047 0)"/>
       <use xlink:href="#DejaVuSans-32" transform="translate(127.246094 0)"/>
       <use xlink:href="#DejaVuSans-35" transform="translate(190.869141 0)"/>
       <use xlink:href="#DejaVuSans-2d" transform="translate(254.492188 0)"/>
       <use xlink:href="#DejaVuSans-30" transform="translate(290.576172 0)"/>
       <use xlink:href="#DejaVuSans-37" transform="translate(354.199219 0)"/>
      </g>
     </g>
    </g>
   </g>
   <g id="matplotlib.axis_2">
    <g id="ytick_1">
     <g id="line2d_19">
      <path d="M 108 307.831883 
L 777.6 307.831883 
" clip-path="url(#pb31641986f)" style="fill: none; stroke-dasharray: 5.12,1.28,0.8,1.28; stroke-dashoffset: 0; stroke: #b0b0b0; stroke-width: 0.8"/>
     </g>
     <g id="line2d_20">
      <defs>
       <path id="mc18da69fa7" d="M 0 0 
L -3.5 0 
" style="stroke: #a9a9a9; stroke-width: 0.8"/>
      </defs>
      <g>
       <use xlink:href="#mc18da69fa7" x="108" y="307.831883" style="fill: #a9a9a9; stroke: #a9a9a9; stroke-width: 0.8"/>
      </g>
     </g>
     <g id="text_10">
      <!-- 0 -->
      <g style="fill: #a9a9a9" transform="translate(94.6375 311.631101) scale(0.1 -0.1)">
       <use xlink:href="#DejaVuSans-30"/>
      </g>
     </g>
    </g>
    <g id="ytick_2">
     <g id="line2d_21">
      <path d="M 108 275.949291 
L 777.6 275.949291 
" clip-path="url(#pb31641986f)" style="fill: none; stroke-dasharray: 5.12,1.28,0.8,1.28; stroke-dashoffset: 0; stroke: #b0b0b0; stroke-width: 0.8"/>
     </g>
     <g id="line2d_22">
      <g>
       <use xlink:href="#mc18da69fa7" x="108" y="275.949291" style="fill: #a9a9a9; stroke: #a9a9a9; stroke-width: 0.8"/>
      </g>
     </g>
     <g id="text_11">
      <!-- 1000 -->
      <g style="fill: #a9a9a9" transform="translate(75.55 279.74851) scale(0.1 -0.1)">
       <use xlink:href="#DejaVuSans-31"/>
       <use xlink:href="#DejaVuSans-30" transform="translate(63.623047 0)"/>
       <use xlink:href="#DejaVuSans-30" transform="translate(127.246094 0)"/>
       <use xlink:href="#DejaVuSans-30" transform="translate(190.869141 0)"/>
      </g>
     </g>
    </g>
    <g id="ytick_3">
     <g id="line2d_23">
      <path d="M 108 244.0667 
L 777.6 244.0667 
" clip-path="url(#pb31641986f)" style="fill: none; stroke-dasharray: 5.12,1.28,0.8,1.28; stroke-dashoffset: 0; stroke: #b0b0b0; stroke-width: 0.8"/>
     </g>
     <g id="line2d_24">
      <g>
       <use xlink:href="#mc18da69fa7" x="108" y="244.0667" style="fill: #a9a9a9; stroke: #a9a9a9; stroke-width: 0.8"/>
      </g>
     </g>
     <g id="text_12">
      <!-- 2000 -->
      <g style="fill: #a9a9a9" transform="translate(75.55 247.865919) scale(0.1 -0.1)">
       <use xlink:href="#DejaVuSans-32"/>
       <use xlink:href="#DejaVuSans-30" transform="translate(63.623047 0)"/>
       <use xlink:href="#DejaVuSans-30" transform="translate(127.246094 0)"/>
       <use xlink:href="#DejaVuSans-30" transform="translate(190.869141 0)"/>
      </g>
     </g>
    </g>
    <g id="ytick_4">
     <g id="line2d_25">
      <path d="M 108 212.184109 
L 777.6 212.184109 
" clip-path="url(#pb31641986f)" style="fill: none; stroke-dasharray: 5.12,1.28,0.8,1.28; stroke-dashoffset: 0; stroke: #b0b0b0; stroke-width: 0.8"/>
     </g>
     <g id="line2d_26">
      <g>
       <use xlink:href="#mc18da69fa7" x="108" y="212.184109" style="fill: #a9a9a9; stroke: #a9a9a9; stroke-width: 0.8"/>
      </g>
     </g>
     <g id="text_13">
      <!-- 3000 -->
      <g style="fill: #a9a9a9" transform="translate(75.55 215.983328) scale(0.1 -0.1)">
       <use xlink:href="#DejaVuSans-33"/>
       <use xlink:href="#DejaVuSans-30" transform="translate(63.623047 0)"/>
       <use xlink:href="#DejaVuSans-30" transform="translate(127.246094 0)"/>
       <use xlink:href="#DejaVuSans-30" transform="translate(190.869141 0)"/>
      </g>
     </g>
    </g>
    <g id="ytick_5">
     <g id="line2d_27">
      <path d="M 108 180.301518 
L 777.6 180.301518 
" clip-path="url(#pb31641986f)" style="fill: none; stroke-dasharray: 5.12,1.28,0.8,1.28; stroke-dashoffset: 0; stroke: #b0b0b0; stroke-width: 0.8"/>
     </g>
     <g id="line2d_28">
      <g>
       <use xlink:href="#mc18da69fa7" x="108" y="180.301518" style="fill: #a9a9a9; stroke: #a9a9a9; stroke-width: 0.8"/>
      </g>
     </g>
     <g id="text_14">
      <!-- 4000 -->
      <g style="fill: #a9a9a9" transform="translate(75.55 184.100737) scale(0.1 -0.1)">
       <use xlink:href="#DejaVuSans-34"/>
       <use xlink:href="#DejaVuSans-30" transform="translate(63.623047 0)"/>
       <use xlink:href="#DejaVuSans-30" transform="translate(127.246094 0)"/>
       <use xlink:href="#DejaVuSans-30" transform="translate(190.869141 0)"/>
      </g>
     </g>
    </g>
    <g id="ytick_6">
     <g id="line2d_29">
      <path d="M 108 148.418927 
L 777.6 148.418927 
" clip-path="url(#pb31641986f)" style="fill: none; stroke-dasharray: 5.12,1.28,0.8,1.28; stroke-dashoffset: 0; stroke: #b0b0b0; stroke-width: 0.8"/>
     </g>
     <g id="line2d_30">
      <g>
       <use xlink:href="#mc18da69fa7" x="108" y="148.418927" style="fill: #a9a9a9; stroke: #a9a9a9; stroke-width: 0.8"/>
      </g>
     </g>
     <g id="text_15">
      <!-- 5000 -->
      <g style="fill: #a9a9a9" transform="translate(75.55 152.218146) scale(0.1 -0.1)">
       <use xlink:href="#DejaVuSans-35"/>
       <use xlink:href="#DejaVuSans-30" transform="translate(63.623047 0)"/>
       <use xlink:href="#DejaVuSans-30" transform="translate(127.246094 0)"/>
       <use xlink:href="#DejaVuSans-30" transform="translate(190.869141 0)"/>
      </g>
     </g>
    </g>
    <g id="ytick_7">
     <g id="line2d_31">
      <path d="M 108 116.536336 
L 777.6 116.536336 
" clip-path="url(#pb31641986f)" style="fill: none; stroke-dasharray: 5.12,1.28,0.8,1.28; stroke-dashoffset: 0; stroke: #b0b0b0; stroke-width: 0.8"/>
     </g>
     <g id="line2d_32">
      <g>
       <use xlink:href="#mc18da69fa7" x="108" y="116.536336" style="fill: #a9a9a9; stroke: #a9a9a9; stroke-width: 0.8"/>
      </g>
     </g>
     <g id="text_16">
      <!-- 6000 -->
      <g style="fill: #a9a9a9" transform="translate(75.55 120.335555) scale(0.1 -0.1)">
       <defs>
        <path id="DejaVuSans-36" d="M 2113 2584 
Q 1688 2584 1439 2293 
Q 1191 2003 1191 1497 
Q 1191 994 1439 701 
Q 1688 409 2113 409 
Q 2538 409 2786 701 
Q 3034 994 3034 1497 
Q 3034 2003 2786 2293 
Q 2538 2584 2113 2584 
z
M 3366 4563 
L 3366 3988 
Q 3128 4100 2886 4159 
Q 2644 4219 2406 4219 
Q 1781 4219 1451 3797 
Q 1122 3375 1075 2522 
Q 1259 2794 1537 2939 
Q 1816 3084 2150 3084 
Q 2853 3084 3261 2657 
Q 3669 2231 3669 1497 
Q 3669 778 3244 343 
Q 2819 -91 2113 -91 
Q 1303 -91 875 529 
Q 447 1150 447 2328 
Q 447 3434 972 4092 
Q 1497 4750 2381 4750 
Q 2619 4750 2861 4703 
Q 3103 4656 3366 4563 
z
" transform="scale(0.015625)"/>
       </defs>
       <use xlink:href="#DejaVuSans-36"/>
       <use xlink:href="#DejaVuSans-30" transform="translate(63.623047 0)"/>
       <use xlink:href="#DejaVuSans-30" transform="translate(127.246094 0)"/>
       <use xlink:href="#DejaVuSans-30" transform="translate(190.869141 0)"/>
      </g>
     </g>
    </g>
    <g id="ytick_8">
     <g id="line2d_33">
      <path d="M 108 84.653745 
L 777.6 84.653745 
" clip-path="url(#pb31641986f)" style="fill: none; stroke-dasharray: 5.12,1.28,0.8,1.28; stroke-dashoffset: 0; stroke: #b0b0b0; stroke-width: 0.8"/>
     </g>
     <g id="line2d_34">
      <g>
       <use xlink:href="#mc18da69fa7" x="108" y="84.653745" style="fill: #a9a9a9; stroke: #a9a9a9; stroke-width: 0.8"/>
      </g>
     </g>
     <g id="text_17">
      <!-- 7000 -->
      <g style="fill: #a9a9a9" transform="translate(75.55 88.452964) scale(0.1 -0.1)">
       <use xlink:href="#DejaVuSans-37"/>
       <use xlink:href="#DejaVuSans-30" transform="translate(63.623047 0)"/>
       <use xlink:href="#DejaVuSans-30" transform="translate(127.246094 0)"/>
       <use xlink:href="#DejaVuSans-30" transform="translate(190.869141 0)"/>
      </g>
     </g>
    </g>
    <g id="ytick_9">
     <g id="line2d_35">
      <path d="M 108 52.771154 
L 777.6 52.771154 
" clip-path="url(#pb31641986f)" style="fill: none; stroke-dasharray: 5.12,1.28,0.8,1.28; stroke-dashoffset: 0; stroke: #b0b0b0; stroke-width: 0.8"/>
     </g>
     <g id="line2d_36">
      <g>
       <use xlink:href="#mc18da69fa7" x="108" y="52.771154" style="fill: #a9a9a9; stroke: #a9a9a9; stroke-width: 0.8"/>
      </g>
     </g>
     <g id="text_18">
      <!-- 8000 -->
      <g style="fill: #a9a9a9" transform="translate(75.55 56.570373) scale(0.1 -0.1)">
       <defs>
        <path id="DejaVuSans-38" d="M 2034 2216 
Q 1584 2216 1326 1975 
Q 1069 1734 1069 1313 
Q 1069 891 1326 650 
Q 1584 409 2034 409 
Q 2484 409 2743 651 
Q 3003 894 3003 1313 
Q 3003 1734 2745 1975 
Q 2488 2216 2034 2216 
z
M 1403 2484 
Q 997 2584 770 2862 
Q 544 3141 544 3541 
Q 544 4100 942 4425 
Q 1341 4750 2034 4750 
Q 2731 4750 3128 4425 
Q 3525 4100 3525 3541 
Q 3525 3141 3298 2862 
Q 3072 2584 2669 2484 
Q 3125 2378 3379 2068 
Q 3634 1759 3634 1313 
Q 3634 634 3220 271 
Q 2806 -91 2034 -91 
Q 1263 -91 848 271 
Q 434 634 434 1313 
Q 434 1759 690 2068 
Q 947 2378 1403 2484 
z
M 1172 3481 
Q 1172 3119 1398 2916 
Q 1625 2713 2034 2713 
Q 2441 2713 2670 2916 
Q 2900 3119 2900 3481 
Q 2900 3844 2670 4047 
Q 2441 4250 2034 4250 
Q 1625 4250 1398 4047 
Q 1172 3844 1172 3481 
z
" transform="scale(0.015625)"/>
       </defs>
       <use xlink:href="#DejaVuSans-38"/>
       <use xlink:href="#DejaVuSans-30" transform="translate(63.623047 0)"/>
       <use xlink:href="#DejaVuSans-30" transform="translate(127.246094 0)"/>
       <use xlink:href="#DejaVuSans-30" transform="translate(190.869141 0)"/>
      </g>
     </g>
    </g>
   </g>
   <g id="line2d_37">
    <path d="M 138.436364 307.736235 
L 140.93627 307.513057 
L 141.352921 307.321761 
L 143.019526 307.098583 
L 144.68613 306.747874 
L 145.519433 306.620344 
L 147.602688 306.429049 
L 148.43599 306.07834 
L 148.852641 305.504453 
L 149.269293 305.21751 
L 149.685944 304.261032 
L 150.102595 304.197267 
L 150.519246 303.846559 
L 151.352548 303.400202 
L 153.019153 301.997368 
L 154.685757 301.136538 
L 155.93571 300.530769 
L 156.352361 299.829352 
L 157.185664 299.1917 
L 157.602315 299.000405 
L 161.768826 298.362753 
L 162.185477 298.171457 
L 165.102035 297.916397 
L 166.768639 297.501923 
L 170.101848 297.023684 
L 170.518499 296.800506 
L 170.93515 296.736741 
L 171.768452 296.449798 
L 174.68501 295.939676 
L 175.518312 295.684615 
L 179.268172 295.046964 
L 180.101475 294.855668 
L 180.934777 294.823785 
L 182.601381 294.409312 
L 183.018032 293.803543 
L 184.267986 293.293421 
L 185.517939 292.942713 
L 185.93459 292.719534 
L 186.767892 292.560121 
L 188.434497 292.05 
L 189.267799 291.986235 
L 190.101101 291.763057 
L 191.767706 291.3167 
L 192.184357 291.284818 
L 193.017659 290.870344 
L 193.43431 290.806579 
L 193.850961 290.583401 
L 198.434124 289.786336 
L 200.100728 289.276215 
L 200.517379 288.989271 
L 202.600635 288.287854 
L 203.433937 287.682085 
L 204.68389 287.427024 
L 210.100355 285.832895 
L 210.517006 285.76913 
L 212.18361 285.099595 
L 212.600261 285.03583 
L 213.433564 284.685121 
L 214.266866 284.653239 
L 215.516819 284.270648 
L 215.93347 284.270648 
L 216.350121 284.079352 
L 217.183424 283.983704 
L 217.600075 283.824291 
L 219.266679 283.760526 
L 220.099981 283.601113 
L 220.933284 283.154757 
L 222.183237 282.676518 
L 223.016539 282.230162 
L 223.849841 281.783806 
L 224.683144 281.496862 
L 225.099795 281.369332 
L 225.933097 280.827328 
L 226.349748 280.349089 
L 227.18305 279.01002 
L 227.599701 278.88249 
L 228.016352 278.88249 
L 229.682957 277.926012 
L 230.099608 277.830364 
L 230.516259 277.415891 
L 231.349561 277.065182 
L 232.182864 276.682591 
L 232.599515 276.17247 
L 233.016166 275.471053 
L 233.432817 275.184109 
L 233.849468 274.418927 
L 234.266119 273.940688 
L 236.766026 272.537854 
L 238.43263 271.00749 
L 238.849281 270.01913 
L 239.265932 269.381478 
L 239.682584 269.030769 
L 240.099235 268.839474 
L 243.432444 265.683097 
L 244.265746 264.886032 
L 246.765652 263.26002 
L 247.182304 263.100607 
L 248.848908 262.080364 
L 249.265559 261.889069 
L 251.348815 259.912348 
L 252.182117 259.56164 
L 253.015419 258.95587 
L 253.43207 258.70081 
L 253.848721 258.637045 
L 255.098675 257.903745 
L 255.515326 257.425506 
L 257.598581 256.24585 
L 258.015232 256.086437 
L 259.265186 255.193725 
L 265.514952 252.898178 
L 266.348255 252.101113 
L 267.598208 251.463462 
L 268.43151 250.921457 
L 269.264812 250.666397 
L 269.681464 250.379453 
L 270.098115 250.251923 
L 271.348068 249.391093 
L 273.431324 248.912854 
L 274.681277 248.147672 
L 275.93123 247.860729 
L 276.347881 247.765081 
L 277.597835 246.808603 
L 279.264439 246.330364 
L 279.68109 245.979656 
L 282.180997 245.086943 
L 283.014299 244.92753 
L 283.847601 244.576822 
L 286.764159 243.460931 
L 287.597461 243.365283 
L 288.847415 242.918927 
L 290.93067 241.866802 
L 293.430577 240.432085 
L 294.263879 240.208907 
L 295.513832 239.571255 
L 296.347135 239.411842 
L 297.180437 238.901721 
L 298.013739 238.678543 
L 299.263692 238.168421 
L 300.930297 237.945243 
L 301.763599 237.498887 
L 302.18025 237.116296 
L 302.596901 236.351113 
L 304.263506 235.872874 
L 305.513459 235.20334 
L 306.346761 234.916397 
L 307.596715 234.278745 
L 309.67997 233.417915 
L 310.513272 233.226619 
L 311.763226 232.588968 
L 312.179877 232.525202 
L 314.263132 231.473077 
L 315.096435 230.931073 
L 316.346388 230.676012 
L 318.429643 230.134008 
L 318.846295 229.7833 
L 319.679597 229.496356 
L 321.762852 228.635526 
L 322.179503 228.3167 
L 322.596155 228.157287 
L 323.429457 227.679049 
L 325.096061 227.137045 
L 325.929363 226.59504 
L 326.346015 226.148684 
L 326.762666 225.893623 
L 327.179317 225.797976 
L 328.012619 225.096559 
L 328.42927 225.032794 
L 328.845921 224.331377 
L 329.262572 224.140081 
L 329.679223 223.789372 
L 330.095875 223.725607 
L 330.929177 223.183603 
L 331.762479 222.89666 
L 332.17913 222.577834 
L 332.595781 222.418421 
L 334.262386 221.270648 
L 335.512339 220.632996 
L 336.345641 220.409818 
L 337.178943 219.931579 
L 337.595595 219.198279 
L 338.428897 218.560628 
L 338.845548 218.46498 
L 341.345455 217.221559 
L 342.178757 216.87085 
L 343.012059 216.265081 
L 344.262012 215.085425 
L 345.095315 214.575304 
L 345.511966 214.097065 
L 347.17857 212.917409 
L 348.011872 212.056579 
L 348.845175 211.769636 
L 349.678477 211.195749 
L 350.92843 210.526215 
L 351.345081 210.462449 
L 352.595035 209.761032 
L 353.428337 209.219028 
L 357.594848 207.624899 
L 358.011499 207.27419 
L 359.678103 206.604656 
L 360.094755 206.477126 
L 360.928057 205.935121 
L 361.761359 205.584413 
L 362.594661 204.978644 
L 363.427963 203.256984 
L 364.261266 202.236741 
L 365.511219 201.567206 
L 366.344521 201.216498 
L 366.761172 201.152733 
L 367.594475 200.770142 
L 369.261079 200.196255 
L 370.094381 199.718016 
L 370.927683 199.303543 
L 371.344335 199.176012 
L 373.844241 197.645648 
L 374.260892 197.167409 
L 375.510846 196.434109 
L 375.927497 196.274696 
L 376.760799 195.764575 
L 378.427403 194.83998 
L 378.844055 194.744332 
L 379.260706 194.393623 
L 382.177263 193.405263 
L 382.593915 193.086437 
L 383.427217 192.831377 
L 384.260519 192.480668 
L 384.67717 192.12996 
L 386.343775 191.52419 
L 387.177077 190.918421 
L 388.010379 190.567713 
L 388.843681 189.898178 
L 389.676983 189.643117 
L 390.093634 189.260526 
L 390.510286 189.196761 
L 391.343588 188.527227 
L 393.426843 187.283806 
L 394.260146 187.028745 
L 394.676797 186.773684 
L 395.093448 186.709919 
L 396.343401 186.008502 
L 398.010006 185.434615 
L 398.843308 185.307085 
L 399.259959 185.115789 
L 399.67661 185.052024 
L 400.509912 184.669433 
L 400.926563 184.637551 
L 402.593168 183.999899 
L 403.843121 183.075304 
L 404.259772 182.915891 
L 405.093074 182.437652 
L 405.509726 182.310121 
L 408.009632 180.875405 
L 408.426283 180.779757 
L 409.676237 180.014575 
L 410.92619 179.568219 
L 411.759492 179.281275 
L 413.426097 178.707389 
L 414.259399 178.420445 
L 415.926003 178.069737 
L 416.342654 177.878441 
L 417.175957 177.655263 
L 417.592608 177.463968 
L 418.009259 177.400202 
L 418.42591 177.177024 
L 419.259212 177.017611 
L 420.509166 176.539372 
L 421.759119 176.348077 
L 424.259026 175.869838 
L 425.508979 175.582895 
L 425.92563 175.391599 
L 426.758932 175.232186 
L 427.592234 175.009008 
L 428.425537 174.626417 
L 428.842188 174.467004 
L 429.258839 174.467004 
L 433.842001 173.032287 
L 434.258652 172.809109 
L 434.675303 172.809109 
L 435.508606 172.490283 
L 435.925257 172.043927 
L 438.425163 170.991802 
L 440.091768 170.417915 
L 440.508419 170.162854 
L 441.758372 169.780263 
L 442.591674 169.557085 
L 443.008326 169.270142 
L 443.424977 169.174494 
L 443.841628 168.791903 
L 445.091581 168.536842 
L 445.924883 168.154251 
L 446.341534 167.64413 
L 450.924697 166.623887 
L 451.341348 166.623887 
L 451.757999 166.432591 
L 453.424603 166.113765 
L 453.841254 165.92247 
L 455.507859 165.603644 
L 456.341161 165.252935 
L 457.174463 165.093522 
L 459.257719 164.551518 
L 460.924323 164.009514 
L 461.340974 163.913866 
L 461.757626 163.690688 
L 462.590928 163.46751 
L 463.42423 163.116802 
L 464.257532 162.797976 
L 464.674183 162.511032 
L 465.507486 162.255972 
L 468.424043 161.140081 
L 470.090648 160.948785 
L 473.423857 159.705364 
L 473.840508 159.386538 
L 474.257159 159.290891 
L 474.67381 159.067713 
L 475.090461 159.03583 
L 479.673623 157.346053 
L 481.756879 156.772166 
L 482.590181 156.357692 
L 483.840134 156.070749 
L 485.506739 154.667915 
L 487.173343 153.934615 
L 488.006646 153.552024 
L 490.506552 152.563664 
L 490.923203 152.276721 
L 493.006459 151.575304 
L 494.256412 150.842004 
L 494.673063 150.746356 
L 496.756319 149.598583 
L 498.006272 149.024696 
L 498.422923 148.70587 
L 499.256225 148.418927 
L 501.339481 147.334919 
L 502.589434 146.888563 
L 504.256039 146.219028 
L 505.505992 145.740789 
L 505.922643 145.581377 
L 506.755945 145.453846 
L 507.172597 145.166903 
L 508.839201 144.848077 
L 509.672503 144.497368 
L 511.339108 143.700304 
L 517.172223 141.085931 
L 518.422177 140.671457 
L 518.838828 140.384514 
L 519.67213 140.288866 
L 520.088781 140.001923 
L 520.922083 139.874393 
L 521.755385 139.459919 
L 522.172037 139.268623 
L 523.005339 139.045445 
L 523.838641 138.790385 
L 525.088594 138.312146 
L 526.338548 137.897672 
L 527.588501 137.610729 
L 529.255105 136.909312 
L 530.088408 136.462955 
L 531.755012 135.602126 
L 532.588314 135.41083 
L 533.004965 135.155769 
L 533.421617 135.060121 
L 534.67157 134.326822 
L 535.504872 133.976113 
L 544.671197 130.405263 
L 546.337801 129.608198 
L 550.504312 127.950304 
L 551.337614 127.53583 
L 551.754265 127.440182 
L 552.170917 127.217004 
L 553.837521 126.738765 
L 555.504125 125.335931 
L 555.920777 125.208401 
L 556.337428 124.95334 
L 557.587381 124.602632 
L 558.004032 124.283806 
L 558.420683 124.188158 
L 559.670637 123.422976 
L 560.087288 123.136032 
L 561.337241 122.657794 
L 561.753892 122.434615 
L 563.003845 122.147672 
L 565.087101 121.414372 
L 565.920403 121.159312 
L 567.170357 120.489777 
L 568.003659 120.075304 
L 568.836961 119.852126 
L 570.086914 119.246356 
L 574.253425 117.556579 
L 576.336681 116.536336 
L 577.169983 116.21751 
L 577.586634 115.834919 
L 578.419937 115.484211 
L 579.66989 115.037854 
L 580.086541 114.687146 
L 580.503192 114.655263 
L 581.336494 114.400202 
L 582.169797 114.113259 
L 582.586448 113.921964 
L 583.003099 113.858198 
L 583.836401 113.50749 
L 585.086354 113.220547 
L 585.919657 112.742308 
L 586.336308 112.582895 
L 586.752959 112.264069 
L 588.002912 111.945243 
L 588.419563 111.690182 
L 589.252865 111.467004 
L 590.502819 110.765587 
L 590.91947 110.733704 
L 592.169423 110.319231 
L 593.002725 110.255466 
L 593.419377 110.032287 
L 594.252679 109.809109 
L 594.66933 109.585931 
L 596.752585 109.171457 
L 597.585888 109.012045 
L 598.835841 108.533806 
L 600.085794 108.246862 
L 601.335748 107.577328 
L 601.752399 107.194737 
L 603.002352 106.429555 
L 603.419003 106.110729 
L 604.668957 105.696255 
L 605.502259 105.473077 
L 609.252119 103.815182 
L 610.918723 103.368826 
L 611.752025 102.986235 
L 612.168676 102.763057 
L 613.001979 102.507996 
L 613.41863 102.284818 
L 614.251932 102.125405 
L 617.585141 100.658806 
L 618.001792 100.59504 
L 619.251745 99.766093 
L 619.668396 99.702328 
L 621.335001 99.032794 
L 623.001605 98.61832 
L 623.418256 98.554555 
L 623.834908 98.363259 
L 624.251559 98.331377 
L 625.084861 98.044433 
L 625.501512 98.012551 
L 626.751465 97.534312 
L 628.41807 97.056073 
L 629.251372 96.418421 
L 630.917976 95.493826 
L 631.334628 95.398178 
L 631.751279 95.175 
L 632.584581 94.888057 
L 633.001232 94.760526 
L 633.417883 94.409818 
L 634.667836 93.931579 
L 635.501139 93.45334 
L 635.91779 93.230162 
L 636.334441 92.847571 
L 638.417696 92.305567 
L 639.66765 91.73168 
L 640.500952 91.508502 
L 640.917603 91.285324 
L 641.334254 90.934615 
L 643.000859 90.488259 
L 643.41751 90.169433 
L 648.833974 88.16083 
L 649.667276 88.001417 
L 651.750532 87.331883 
L 652.583834 86.981174 
L 653.417136 86.662348 
L 654.250439 86.43917 
L 654.66709 86.247874 
L 655.083741 86.247874 
L 655.917043 85.897166 
L 656.750345 85.418927 
L 659.666903 84.430567 
L 661.333508 83.85668 
L 662.583461 83.569737 
L 663.833414 83.155263 
L 664.250065 83.059615 
L 664.666716 82.772672 
L 665.500019 82.581377 
L 667.166623 82.103138 
L 667.583274 82.071255 
L 668.416576 81.688664 
L 671.333134 80.955364 
L 672.166436 80.604656 
L 676.332948 79.648178 
L 677.582901 78.978644 
L 678.832854 78.596053 
L 681.749412 77.607692 
L 682.166063 77.384514 
L 682.582714 77.288866 
L 683.832668 76.651215 
L 684.66597 76.491802 
L 685.499272 76.236741 
L 686.332574 75.822267 
L 686.749225 75.471559 
L 687.582528 75.216498 
L 687.999179 74.961437 
L 688.832481 74.865789 
L 691.749039 74.036842 
L 692.998992 73.781781 
L 694.248945 73.462955 
L 695.082248 73.239777 
L 696.332201 72.602126 
L 697.998805 71.964474 
L 698.832108 71.518117 
L 699.248759 71.486235 
L 700.082061 71.071761 
L 702.998619 70.242814 
L 704.248572 70.051518 
L 705.081874 69.796457 
L 706.331828 69.413866 
L 710.081688 68.361741 
L 710.91499 68.138563 
L 711.331641 68.042915 
L 711.748292 67.787854 
L 712.581594 67.628441 
L 713.414896 67.532794 
L 713.831548 67.309615 
L 714.248199 67.277733 
L 715.498152 66.640081 
L 716.748105 66.353138 
L 717.581408 66.002429 
L 718.41471 65.715486 
L 719.248012 65.492308 
L 720.081314 65.141599 
L 720.914616 64.854656 
L 722.581221 64.376417 
L 723.414523 64.312652 
L 724.247825 64.025709 
L 724.664476 63.866296 
L 725.497779 63.738765 
L 727.164383 63.005466 
L 727.581034 62.9417 
L 727.997685 62.718522 
L 728.830987 62.559109 
L 729.66429 62.495344 
L 732.164196 61.857692 
L 732.997499 61.506984 
L 733.41415 61.443219 
L 733.830801 61.22004 
L 734.664103 60.518623 
L 740.080567 58.478138 
L 741.330521 58.191194 
L 741.747172 57.872368 
L 742.997125 57.330364 
L 743.830427 56.884008 
L 744.247079 56.78836 
L 744.66373 56.469534 
L 745.913683 56.118826 
L 746.330334 55.895648 
L 747.163636 55.8 
L 747.163636 55.8 
" clip-path="url(#pb31641986f)" style="fill: none; stroke: #1f77b4; stroke-width: 1.5; stroke-linecap: square"/>
   </g>
   <g id="line2d_38">
    <path d="M 138.853015 307.8 
L 142.602875 307.704352 
L 145.936084 307.544939 
L 147.602688 307.544939 
L 148.019339 307.417409 
L 150.102595 307.321761 
L 152.602501 307.034818 
L 155.102408 306.93917 
L 155.93571 306.843522 
L 158.852268 306.715992 
L 161.768826 306.620344 
L 163.852081 306.556579 
L 169.268546 306.460931 
L 171.351801 306.397166 
L 175.101661 306.301518 
L 176.768266 306.269636 
L 180.934777 306.173988 
L 182.601381 306.014575 
L 184.267986 305.982692 
L 186.767892 305.887045 
L 188.434497 305.855162 
L 190.517752 305.791397 
L 192.184357 305.631984 
L 195.934217 305.536336 
L 196.767519 305.472571 
L 198.434124 305.376923 
L 200.93403 305.281275 
L 202.600635 305.185628 
L 210.100355 304.707389 
L 213.016912 304.611741 
L 214.266866 304.484211 
L 216.350121 304.388563 
L 220.516632 304.165385 
L 224.683144 304.101619 
L 226.349748 303.910324 
L 228.433004 303.814676 
L 232.599515 303.400202 
L 235.099421 303.081377 
L 236.766026 303.017611 
L 240.099235 302.571255 
L 242.599141 302.50749 
L 243.849095 302.37996 
L 245.099048 302.284312 
L 256.765279 301.359717 
L 257.598581 301.200304 
L 260.098488 301.104656 
L 266.764906 300.690182 
L 269.681464 300.594534 
L 271.348068 300.403239 
L 273.431324 300.307591 
L 275.93123 300.211943 
L 278.014486 300.116296 
L 279.68109 300.084413 
L 281.764346 300.020648 
L 282.597648 299.893117 
L 288.430763 299.79747 
L 289.264066 299.701822 
L 294.263879 299.606174 
L 298.013739 299.414879 
L 300.930297 299.319231 
L 302.596901 299.127935 
L 305.513459 299.032287 
L 306.346761 298.904757 
L 308.430017 298.840992 
L 312.596528 298.777227 
L 314.263132 298.617814 
L 315.929737 298.585931 
L 317.17969 298.490283 
L 318.846295 298.33087 
L 323.012806 298.107692 
L 327.179317 298.012045 
L 330.929177 297.820749 
L 332.17913 297.788866 
L 333.012432 297.661336 
L 335.095688 297.565688 
L 335.92899 297.501923 
L 336.762292 297.438158 
L 337.595595 297.374393 
L 341.762106 297.278745 
L 350.92843 296.672976 
L 351.761732 296.609211 
L 353.011686 296.513563 
L 355.928243 296.417915 
L 358.011499 296.35415 
L 363.844615 296.258502 
L 364.677917 296.130972 
L 370.511032 296.035324 
L 374.677543 295.812146 
L 375.510846 295.780263 
L 376.344148 295.684615 
L 378.427403 295.588968 
L 380.510659 295.525202 
L 382.593915 295.429555 
L 384.67717 295.365789 
L 388.42703 295.270142 
L 390.926937 295.174494 
L 396.760052 295.078846 
L 401.343214 294.823785 
L 403.009819 294.76002 
L 404.259772 294.664372 
L 410.092888 294.568725 
L 412.592794 294.473077 
L 420.092514 294.377429 
L 421.759119 294.345547 
L 426.758932 294.281781 
L 427.592234 294.218016 
L 433.42535 294.122368 
L 435.091954 294.090486 
L 445.924883 293.994838 
L 448.42479 293.89919 
L 465.924137 293.803543 
L 468.007392 293.739777 
L 478.840321 293.676012 
L 479.673623 293.612247 
L 481.756879 293.548482 
L 483.006832 293.420951 
L 485.506739 293.325304 
L 488.423297 293.197773 
L 492.173157 293.102126 
L 494.256412 293.03836 
L 497.17297 292.942713 
L 500.506179 292.7833 
L 502.589434 292.687652 
L 504.256039 292.655769 
L 508.005899 292.560121 
L 509.672503 292.528239 
L 515.088968 292.432591 
L 516.755572 292.400709 
L 518.838828 292.305061 
L 521.338734 292.209413 
L 524.255292 292.145648 
L 525.088594 292.081883 
L 535.088221 291.986235 
L 539.254732 291.763057 
L 542.17129 291.667409 
L 546.754452 291.412348 
L 549.67101 291.3167 
L 551.337614 291.284818 
L 554.254172 291.18917 
L 556.337428 290.965992 
L 560.503939 290.870344 
L 561.337241 290.774696 
L 565.503752 290.679049 
L 567.587008 290.615283 
L 572.17017 290.583401 
L 573.003472 290.487753 
L 577.586634 290.392105 
L 578.419937 290.32834 
L 587.586261 290.232692 
L 590.086168 290.137045 
L 596.335934 290.041397 
L 598.002539 290.009514 
L 601.752399 289.945749 
L 602.585701 289.850101 
L 608.002165 289.754453 
L 610.085421 289.690688 
L 617.585141 289.59504 
L 618.835094 289.499393 
L 620.085048 289.403745 
L 621.335001 289.308097 
L 627.584768 289.212449 
L 630.084674 289.116802 
L 641.334254 289.021154 
L 645.084114 288.829858 
L 650.083928 288.734211 
L 650.91723 288.670445 
L 657.166996 288.60668 
L 658.000299 288.542915 
L 662.583461 288.447267 
L 664.250065 288.415385 
L 671.333134 288.319737 
L 672.166436 288.255972 
L 679.666156 288.160324 
L 681.332761 288.128441 
L 685.082621 288.032794 
L 688.41583 287.873381 
L 692.998992 287.777733 
L 695.91555 287.650202 
L 699.66541 287.554555 
L 700.498712 287.490789 
L 708.831734 287.395142 
L 710.91499 287.331377 
L 713.414896 287.235729 
L 715.914803 287.140081 
L 728.414336 287.044433 
L 731.330894 286.916903 
L 736.330707 286.821255 
L 737.997312 286.789372 
L 744.66373 286.693725 
L 745.913683 286.598077 
L 747.163636 286.566194 
L 747.163636 286.566194 
" clip-path="url(#pb31641986f)" style="fill: none; stroke: #ff7f0e; stroke-width: 1.5; stroke-linecap: square"/>
   </g>
   <g id="patch_3">
    <path d="M 108 320.4 
L 108 43.2 
" style="fill: none; stroke: #a9a9a9; stroke-width: 0.8; stroke-linejoin: miter; stroke-linecap: square"/>
   </g>
   <g id="patch_4">
    <path d="M 777.6 320.4 
L 777.6 43.2 
" style="fill: none"/>
   </g>
   <g id="patch_5">
    <path d="M 108 320.4 
L 777.6 320.4 
" style="fill: none; stroke: #a9a9a9; stroke-width: 0.8; stroke-linejoin: miter; stroke-linecap: square"/>
   </g>
   <g id="patch_6">
    <path d="M 108 43.2 
L 777.6 43.2 
" style="fill: none"/>
   </g>
   <g id="text_19">
    <!-- get_subscribe history -->
    <g style="fill: #a9a9a9" transform="translate(378.6075 37.2) scale(0.12 -0.12)">
     <defs>
      <path id="DejaVuSans-67" d="M 2906 1791 
Q 2906 2416 2648 2759 
Q 2391 3103 1925 3103 
Q 1463 3103 1205 2759 
Q 947 2416 947 1791 
Q 947 1169 1205 825 
Q 1463 481 1925 481 
Q 2391 481 2648 825 
Q 2906 1169 2906 1791 
z
M 3481 434 
Q 3481 -459 3084 -895 
Q 2688 -1331 1869 -1331 
Q 1566 -1331 1297 -1286 
Q 1028 -1241 775 -1147 
L 775 -588 
Q 1028 -725 1275 -790 
Q 1522 -856 1778 -856 
Q 2344 -856 2625 -561 
Q 2906 -266 2906 331 
L 2906 616 
Q 2728 306 2450 153 
Q 2172 0 1784 0 
Q 1141 0 747 490 
Q 353 981 353 1791 
Q 353 2603 747 3093 
Q 1141 3584 1784 3584 
Q 2172 3584 2450 3431 
Q 2728 3278 2906 2969 
L 2906 3500 
L 3481 3500 
L 3481 434 
z
" transform="scale(0.015625)"/>
      <path id="DejaVuSans-65" d="M 3597 1894 
L 3597 1613 
L 953 1613 
Q 991 1019 1311 708 
Q 1631 397 2203 397 
Q 2534 397 2845 478 
Q 3156 559 3463 722 
L 3463 178 
Q 3153 47 2828 -22 
Q 2503 -91 2169 -91 
Q 1331 -91 842 396 
Q 353 884 353 1716 
Q 353 2575 817 3079 
Q 1281 3584 2069 3584 
Q 2775 3584 3186 3129 
Q 3597 2675 3597 1894 
z
M 3022 2063 
Q 3016 2534 2758 2815 
Q 2500 3097 2075 3097 
Q 1594 3097 1305 2825 
Q 1016 2553 972 2059 
L 3022 2063 
z
" transform="scale(0.015625)"/>
      <path id="DejaVuSans-74" d="M 1172 4494 
L 1172 3500 
L 2356 3500 
L 2356 3053 
L 1172 3053 
L 1172 1153 
Q 1172 725 1289 603 
Q 1406 481 1766 481 
L 2356 481 
L 2356 0 
L 1766 0 
Q 1100 0 847 248 
Q 594 497 594 1153 
L 594 3053 
L 172 3053 
L 172 3500 
L 594 3500 
L 594 4494 
L 1172 4494 
z
" transform="scale(0.015625)"/>
      <path id="DejaVuSans-5f" d="M 3263 -1063 
L 3263 -1509 
L -63 -1509 
L -63 -1063 
L 3263 -1063 
z
" transform="scale(0.015625)"/>
      <path id="DejaVuSans-73" d="M 2834 3397 
L 2834 2853 
Q 2591 2978 2328 3040 
Q 2066 3103 1784 3103 
Q 1356 3103 1142 2972 
Q 928 2841 928 2578 
Q 928 2378 1081 2264 
Q 1234 2150 1697 2047 
L 1894 2003 
Q 2506 1872 2764 1633 
Q 3022 1394 3022 966 
Q 3022 478 2636 193 
Q 2250 -91 1575 -91 
Q 1294 -91 989 -36 
Q 684 19 347 128 
L 347 722 
Q 666 556 975 473 
Q 1284 391 1588 391 
Q 1994 391 2212 530 
Q 2431 669 2431 922 
Q 2431 1156 2273 1281 
Q 2116 1406 1581 1522 
L 1381 1569 
Q 847 1681 609 1914 
Q 372 2147 372 2553 
Q 372 3047 722 3315 
Q 1072 3584 1716 3584 
Q 2034 3584 2315 3537 
Q 2597 3491 2834 3397 
z
" transform="scale(0.015625)"/>
      <path id="DejaVuSans-75" d="M 544 1381 
L 544 3500 
L 1119 3500 
L 1119 1403 
Q 1119 906 1312 657 
Q 1506 409 1894 409 
Q 2359 409 2629 706 
Q 2900 1003 2900 1516 
L 2900 3500 
L 3475 3500 
L 3475 0 
L 2900 0 
L 2900 538 
Q 2691 219 2414 64 
Q 2138 -91 1772 -91 
Q 1169 -91 856 284 
Q 544 659 544 1381 
z
M 1991 3584 
L 1991 3584 
z
" transform="scale(0.015625)"/>
      <path id="DejaVuSans-62" d="M 3116 1747 
Q 3116 2381 2855 2742 
Q 2594 3103 2138 3103 
Q 1681 3103 1420 2742 
Q 1159 2381 1159 1747 
Q 1159 1113 1420 752 
Q 1681 391 2138 391 
Q 2594 391 2855 752 
Q 3116 1113 3116 1747 
z
M 1159 2969 
Q 1341 3281 1617 3432 
Q 1894 3584 2278 3584 
Q 2916 3584 3314 3078 
Q 3713 2572 3713 1747 
Q 3713 922 3314 415 
Q 2916 -91 2278 -91 
Q 1894 -91 1617 61 
Q 1341 213 1159 525 
L 1159 0 
L 581 0 
L 581 4863 
L 1159 4863 
L 1159 2969 
z
" transform="scale(0.015625)"/>
      <path id="DejaVuSans-63" d="M 3122 3366 
L 3122 2828 
Q 2878 2963 2633 3030 
Q 2388 3097 2138 3097 
Q 1578 3097 1268 2742 
Q 959 2388 959 1747 
Q 959 1106 1268 751 
Q 1578 397 2138 397 
Q 2388 397 2633 464 
Q 2878 531 3122 666 
L 3122 134 
Q 2881 22 2623 -34 
Q 2366 -91 2075 -91 
Q 1284 -91 818 406 
Q 353 903 353 1747 
Q 353 2603 823 3093 
Q 1294 3584 2113 3584 
Q 2378 3584 2631 3529 
Q 2884 3475 3122 3366 
z
" transform="scale(0.015625)"/>
      <path id="DejaVuSans-72" d="M 2631 2963 
Q 2534 3019 2420 3045 
Q 2306 3072 2169 3072 
Q 1681 3072 1420 2755 
Q 1159 2438 1159 1844 
L 1159 0 
L 581 0 
L 581 3500 
L 1159 3500 
L 1159 2956 
Q 1341 3275 1631 3429 
Q 1922 3584 2338 3584 
Q 2397 3584 2469 3576 
Q 2541 3569 2628 3553 
L 2631 2963 
z
" transform="scale(0.015625)"/>
      <path id="DejaVuSans-69" d="M 603 3500 
L 1178 3500 
L 1178 0 
L 603 0 
L 603 3500 
z
M 603 4863 
L 1178 4863 
L 1178 4134 
L 603 4134 
L 603 4863 
z
" transform="scale(0.015625)"/>
      <path id="DejaVuSans-20" transform="scale(0.015625)"/>
      <path id="DejaVuSans-68" d="M 3513 2113 
L 3513 0 
L 2938 0 
L 2938 2094 
Q 2938 2591 2744 2837 
Q 2550 3084 2163 3084 
Q 1697 3084 1428 2787 
Q 1159 2491 1159 1978 
L 1159 0 
L 581 0 
L 581 4863 
L 1159 4863 
L 1159 2956 
Q 1366 3272 1645 3428 
Q 1925 3584 2291 3584 
Q 2894 3584 3203 3211 
Q 3513 2838 3513 2113 
z
" transform="scale(0.015625)"/>
      <path id="DejaVuSans-6f" d="M 1959 3097 
Q 1497 3097 1228 2736 
Q 959 2375 959 1747 
Q 959 1119 1226 758 
Q 1494 397 1959 397 
Q 2419 397 2687 759 
Q 2956 1122 2956 1747 
Q 2956 2369 2687 2733 
Q 2419 3097 1959 3097 
z
M 1959 3584 
Q 2709 3584 3137 3096 
Q 3566 2609 3566 1747 
Q 3566 888 3137 398 
Q 2709 -91 1959 -91 
Q 1206 -91 779 398 
Q 353 888 353 1747 
Q 353 2609 779 3096 
Q 1206 3584 1959 3584 
z
" transform="scale(0.015625)"/>
      <path id="DejaVuSans-79" d="M 2059 -325 
Q 1816 -950 1584 -1140 
Q 1353 -1331 966 -1331 
L 506 -1331 
L 506 -850 
L 844 -850 
Q 1081 -850 1212 -737 
Q 1344 -625 1503 -206 
L 1606 56 
L 191 3500 
L 800 3500 
L 1894 763 
L 2988 3500 
L 3597 3500 
L 2059 -325 
z
" transform="scale(0.015625)"/>
     </defs>
     <use xlink:href="#DejaVuSans-67"/>
     <use xlink:href="#DejaVuSans-65" transform="translate(63.476562 0)"/>
     <use xlink:href="#DejaVuSans-74" transform="translate(125 0)"/>
     <use xlink:href="#DejaVuSans-5f" transform="translate(164.208984 0)"/>
     <use xlink:href="#DejaVuSans-73" transform="translate(214.208984 0)"/>
     <use xlink:href="#DejaVuSans-75" transform="translate(266.308594 0)"/>
     <use xlink:href="#DejaVuSans-62" transform="translate(329.6875 0)"/>
     <use xlink:href="#DejaVuSans-73" transform="translate(393.164062 0)"/>
     <use xlink:href="#DejaVuSans-63" transform="translate(445.263672 0)"/>
     <use xlink:href="#DejaVuSans-72" transform="translate(500.244141 0)"/>
     <use xlink:href="#DejaVuSans-69" transform="translate(541.357422 0)"/>
     <use xlink:href="#DejaVuSans-62" transform="translate(569.140625 0)"/>
     <use xlink:href="#DejaVuSans-65" transform="translate(632.617188 0)"/>
     <use xlink:href="#DejaVuSans-20" transform="translate(694.140625 0)"/>
     <use xlink:href="#DejaVuSans-68" transform="translate(725.927734 0)"/>
     <use xlink:href="#DejaVuSans-69" transform="translate(789.306641 0)"/>
     <use xlink:href="#DejaVuSans-73" transform="translate(817.089844 0)"/>
     <use xlink:href="#DejaVuSans-74" transform="translate(869.189453 0)"/>
     <use xlink:href="#DejaVuSans-6f" transform="translate(908.398438 0)"/>
     <use xlink:href="#DejaVuSans-72" transform="translate(969.580078 0)"/>
     <use xlink:href="#DejaVuSans-79" transform="translate(1010.693359 0)"/>
    </g>
   </g>
   <g id="legend_1">
    <g id="line2d_39">
     <path d="M 815.08 328.498438 
L 825.08 328.498438 
L 835.08 328.498438 
" style="fill: none; stroke: #1f77b4; stroke-width: 1.5; stroke-linecap: square"/>
    </g>
    <g id="text_20">
     <!-- star -->
     <g style="fill: #a9a9a9" transform="translate(843.08 331.998438) scale(0.1 -0.1)">
      <defs>
       <path id="DejaVuSans-61" d="M 2194 1759 
Q 1497 1759 1228 1600 
Q 959 1441 959 1056 
Q 959 750 1161 570 
Q 1363 391 1709 391 
Q 2188 391 2477 730 
Q 2766 1069 2766 1631 
L 2766 1759 
L 2194 1759 
z
M 3341 1997 
L 3341 0 
L 2766 0 
L 2766 531 
Q 2569 213 2275 61 
Q 1981 -91 1556 -91 
Q 1019 -91 701 211 
Q 384 513 384 1019 
Q 384 1609 779 1909 
Q 1175 2209 1959 2209 
L 2766 2209 
L 2766 2266 
Q 2766 2663 2505 2880 
Q 2244 3097 1772 3097 
Q 1472 3097 1187 3025 
Q 903 2953 641 2809 
L 641 3341 
Q 956 3463 1253 3523 
Q 1550 3584 1831 3584 
Q 2591 3584 2966 3190 
Q 3341 2797 3341 1997 
z
" transform="scale(0.015625)"/>
      </defs>
      <use xlink:href="#DejaVuSans-73"/>
      <use xlink:href="#DejaVuSans-74" transform="translate(52.099609 0)"/>
      <use xlink:href="#DejaVuSans-61" transform="translate(91.308594 0)"/>
      <use xlink:href="#DejaVuSans-72" transform="translate(152.587891 0)"/>
     </g>
    </g>
    <g id="line2d_40">
     <path d="M 815.08 343.176562 
L 825.08 343.176562 
L 835.08 343.176562 
" style="fill: none; stroke: #ff7f0e; stroke-width: 1.5; stroke-linecap: square"/>
    </g>
    <g id="text_21">
     <!-- fork -->
     <g style="fill: #a9a9a9" transform="translate(843.08 346.676562) scale(0.1 -0.1)">
      <defs>
       <path id="DejaVuSans-66" d="M 2375 4863 
L 2375 4384 
L 1825 4384 
Q 1516 4384 1395 4259 
Q 1275 4134 1275 3809 
L 1275 3500 
L 2222 3500 
L 2222 3053 
L 1275 3053 
L 1275 0 
L 697 0 
L 697 3053 
L 147 3053 
L 147 3500 
L 697 3500 
L 697 3744 
Q 697 4328 969 4595 
Q 1241 4863 1831 4863 
L 2375 4863 
z
" transform="scale(0.015625)"/>
       <path id="DejaVuSans-6b" d="M 581 4863 
L 1159 4863 
L 1159 1991 
L 2875 3500 
L 3609 3500 
L 1753 1863 
L 3688 0 
L 2938 0 
L 1159 1709 
L 1159 0 
L 581 0 
L 581 4863 
z
" transform="scale(0.015625)"/>
      </defs>
      <use xlink:href="#DejaVuSans-66"/>
      <use xlink:href="#DejaVuSans-6f" transform="translate(35.205078 0)"/>
      <use xlink:href="#DejaVuSans-72" transform="translate(96.386719 0)"/>
      <use xlink:href="#DejaVuSans-6b" transform="translate(137.5 0)"/>
     </g>
    </g>
   </g>
  </g>
 </g>
 <defs>
  <clipPath id="pb31641986f">
   <rect x="108" y="43.2" width="669.6" height="277.2"/>
  </clipPath>
 </defs>
</svg>
