<?xml version="1.0" encoding="utf-8" standalone="no"?>
<!DOCTYPE svg PUBLIC "-//W3C//DTD SVG 1.1//EN"
  "http://www.w3.org/Graphics/SVG/1.1/DTD/svg11.dtd">
<svg xmlns:xlink="http://www.w3.org/1999/xlink" width="864pt" height="360pt" viewBox="0 0 864 360" xmlns="http://www.w3.org/2000/svg" version="1.1">
 <metadata>
  <rdf:RDF xmlns:dc="http://purl.org/dc/elements/1.1/" xmlns:cc="http://creativecommons.org/ns#" xmlns:rdf="http://www.w3.org/1999/02/22-rdf-syntax-ns#">
   <cc:Work>
    <dc:type rdf:resource="http://purl.org/dc/dcmitype/StillImage"/>
    <dc:date>2025-07-31T08:17:33.657392</dc:date>
    <dc:format>image/svg+xml</dc:format>
    <dc:creator>
     <cc:Agent>
      <dc:title>Matplotlib v3.10.3, https://matplotlib.org/</dc:title>
     </cc:Agent>
    </dc:creator>
   </cc:Work>
  </rdf:RDF>
 </metadata>
 <defs>
  <style type="text/css">*{stroke-linejoin: round; stroke-linecap: butt}</style>
 </defs>
 <g id="figure_1">
  <g id="patch_1">
   <path d="M 0 360 
L 864 360 
L 864 0 
L 0 0 
L 0 360 
z
" style="fill: none; opacity: 0"/>
  </g>
  <g id="axes_1">
   <g id="patch_2">
    <path d="M 108 320.4 
L 777.6 320.4 
L 777.6 43.2 
L 108 43.2 
L 108 320.4 
z
" style="fill: none; opacity: 0"/>
   </g>
   <g id="matplotlib.axis_1">
    <g id="xtick_1">
     <g id="line2d_1">
      <path d="M 128.899083 320.4 
L 128.899083 43.2 
" clip-path="url(#p9a31e54f32)" style="fill: none; stroke-dasharray: 5.12,1.28,0.8,1.28; stroke-dashoffset: 0; stroke: #b0b0b0; stroke-width: 0.8"/>
     </g>
     <g id="line2d_2">
      <defs>
       <path id="mf9f30efe5b" d="M 0 0 
L 0 3.5 
" style="stroke: #a9a9a9; stroke-width: 0.8"/>
      </defs>
      <g>
       <use xlink:href="#mf9f30efe5b" x="128.899083" y="320.4" style="fill: #a9a9a9; stroke: #a9a9a9; stroke-width: 0.8"/>
      </g>
     </g>
     <g id="text_1">
      <!-- 2021-07 -->
      <g style="fill: #a9a9a9" transform="translate(108.007677 334.998438) scale(0.1 -0.1)">
       <defs>
        <path id="DejaVuSans-32" d="M 1228 531 
L 3431 531 
L 3431 0 
L 469 0 
L 469 531 
Q 828 903 1448 1529 
Q 2069 2156 2228 2338 
Q 2531 2678 2651 2914 
Q 2772 3150 2772 3378 
Q 2772 3750 2511 3984 
Q 2250 4219 1831 4219 
Q 1534 4219 1204 4116 
Q 875 4013 500 3803 
L 500 4441 
Q 881 4594 1212 4672 
Q 1544 4750 1819 4750 
Q 2544 4750 2975 4387 
Q 3406 4025 3406 3419 
Q 3406 3131 3298 2873 
Q 3191 2616 2906 2266 
Q 2828 2175 2409 1742 
Q 1991 1309 1228 531 
z
" transform="scale(0.015625)"/>
        <path id="DejaVuSans-30" d="M 2034 4250 
Q 1547 4250 1301 3770 
Q 1056 3291 1056 2328 
Q 1056 1369 1301 889 
Q 1547 409 2034 409 
Q 2525 409 2770 889 
Q 3016 1369 3016 2328 
Q 3016 3291 2770 3770 
Q 2525 4250 2034 4250 
z
M 2034 4750 
Q 2819 4750 3233 4129 
Q 3647 3509 3647 2328 
Q 3647 1150 3233 529 
Q 2819 -91 2034 -91 
Q 1250 -91 836 529 
Q 422 1150 422 2328 
Q 422 3509 836 4129 
Q 1250 4750 2034 4750 
z
" transform="scale(0.015625)"/>
        <path id="DejaVuSans-31" d="M 794 531 
L 1825 531 
L 1825 4091 
L 703 3866 
L 703 4441 
L 1819 4666 
L 2450 4666 
L 2450 531 
L 3481 531 
L 3481 0 
L 794 0 
L 794 531 
z
" transform="scale(0.015625)"/>
        <path id="DejaVuSans-2d" d="M 313 2009 
L 1997 2009 
L 1997 1497 
L 313 1497 
L 313 2009 
z
" transform="scale(0.015625)"/>
        <path id="DejaVuSans-37" d="M 525 4666 
L 3525 4666 
L 3525 4397 
L 1831 0 
L 1172 0 
L 2766 4134 
L 525 4134 
L 525 4666 
z
" transform="scale(0.015625)"/>
       </defs>
       <use xlink:href="#DejaVuSans-32"/>
       <use xlink:href="#DejaVuSans-30" transform="translate(63.623047 0)"/>
       <use xlink:href="#DejaVuSans-32" transform="translate(127.246094 0)"/>
       <use xlink:href="#DejaVuSans-31" transform="translate(190.869141 0)"/>
       <use xlink:href="#DejaVuSans-2d" transform="translate(254.492188 0)"/>
       <use xlink:href="#DejaVuSans-30" transform="translate(290.576172 0)"/>
       <use xlink:href="#DejaVuSans-37" transform="translate(354.199219 0)"/>
      </g>
     </g>
    </g>
    <g id="xtick_2">
     <g id="line2d_3">
      <path d="M 205.197325 320.4 
L 205.197325 43.2 
" clip-path="url(#p9a31e54f32)" style="fill: none; stroke-dasharray: 5.12,1.28,0.8,1.28; stroke-dashoffset: 0; stroke: #b0b0b0; stroke-width: 0.8"/>
     </g>
     <g id="line2d_4">
      <g>
       <use xlink:href="#mf9f30efe5b" x="205.197325" y="320.4" style="fill: #a9a9a9; stroke: #a9a9a9; stroke-width: 0.8"/>
      </g>
     </g>
     <g id="text_2">
      <!-- 2022-01 -->
      <g style="fill: #a9a9a9" transform="translate(184.305918 334.998438) scale(0.1 -0.1)">
       <use xlink:href="#DejaVuSans-32"/>
       <use xlink:href="#DejaVuSans-30" transform="translate(63.623047 0)"/>
       <use xlink:href="#DejaVuSans-32" transform="translate(127.246094 0)"/>
       <use xlink:href="#DejaVuSans-32" transform="translate(190.869141 0)"/>
       <use xlink:href="#DejaVuSans-2d" transform="translate(254.492188 0)"/>
       <use xlink:href="#DejaVuSans-30" transform="translate(290.576172 0)"/>
       <use xlink:href="#DejaVuSans-31" transform="translate(354.199219 0)"/>
      </g>
     </g>
    </g>
    <g id="xtick_3">
     <g id="line2d_5">
      <path d="M 280.251573 320.4 
L 280.251573 43.2 
" clip-path="url(#p9a31e54f32)" style="fill: none; stroke-dasharray: 5.12,1.28,0.8,1.28; stroke-dashoffset: 0; stroke: #b0b0b0; stroke-width: 0.8"/>
     </g>
     <g id="line2d_6">
      <g>
       <use xlink:href="#mf9f30efe5b" x="280.251573" y="320.4" style="fill: #a9a9a9; stroke: #a9a9a9; stroke-width: 0.8"/>
      </g>
     </g>
     <g id="text_3">
      <!-- 2022-07 -->
      <g style="fill: #a9a9a9" transform="translate(259.360167 334.998438) scale(0.1 -0.1)">
       <use xlink:href="#DejaVuSans-32"/>
       <use xlink:href="#DejaVuSans-30" transform="translate(63.623047 0)"/>
       <use xlink:href="#DejaVuSans-32" transform="translate(127.246094 0)"/>
       <use xlink:href="#DejaVuSans-32" transform="translate(190.869141 0)"/>
       <use xlink:href="#DejaVuSans-2d" transform="translate(254.492188 0)"/>
       <use xlink:href="#DejaVuSans-30" transform="translate(290.576172 0)"/>
       <use xlink:href="#DejaVuSans-37" transform="translate(354.199219 0)"/>
      </g>
     </g>
    </g>
    <g id="xtick_4">
     <g id="line2d_7">
      <path d="M 356.549814 320.4 
L 356.549814 43.2 
" clip-path="url(#p9a31e54f32)" style="fill: none; stroke-dasharray: 5.12,1.28,0.8,1.28; stroke-dashoffset: 0; stroke: #b0b0b0; stroke-width: 0.8"/>
     </g>
     <g id="line2d_8">
      <g>
       <use xlink:href="#mf9f30efe5b" x="356.549814" y="320.4" style="fill: #a9a9a9; stroke: #a9a9a9; stroke-width: 0.8"/>
      </g>
     </g>
     <g id="text_4">
      <!-- 2023-01 -->
      <g style="fill: #a9a9a9" transform="translate(335.658408 334.998438) scale(0.1 -0.1)">
       <defs>
        <path id="DejaVuSans-33" d="M 2597 2516 
Q 3050 2419 3304 2112 
Q 3559 1806 3559 1356 
Q 3559 666 3084 287 
Q 2609 -91 1734 -91 
Q 1441 -91 1130 -33 
Q 819 25 488 141 
L 488 750 
Q 750 597 1062 519 
Q 1375 441 1716 441 
Q 2309 441 2620 675 
Q 2931 909 2931 1356 
Q 2931 1769 2642 2001 
Q 2353 2234 1838 2234 
L 1294 2234 
L 1294 2753 
L 1863 2753 
Q 2328 2753 2575 2939 
Q 2822 3125 2822 3475 
Q 2822 3834 2567 4026 
Q 2313 4219 1838 4219 
Q 1578 4219 1281 4162 
Q 984 4106 628 3988 
L 628 4550 
Q 988 4650 1302 4700 
Q 1616 4750 1894 4750 
Q 2613 4750 3031 4423 
Q 3450 4097 3450 3541 
Q 3450 3153 3228 2886 
Q 3006 2619 2597 2516 
z
" transform="scale(0.015625)"/>
       </defs>
       <use xlink:href="#DejaVuSans-32"/>
       <use xlink:href="#DejaVuSans-30" transform="translate(63.623047 0)"/>
       <use xlink:href="#DejaVuSans-32" transform="translate(127.246094 0)"/>
       <use xlink:href="#DejaVuSans-33" transform="translate(190.869141 0)"/>
       <use xlink:href="#DejaVuSans-2d" transform="translate(254.492188 0)"/>
       <use xlink:href="#DejaVuSans-30" transform="translate(290.576172 0)"/>
       <use xlink:href="#DejaVuSans-31" transform="translate(354.199219 0)"/>
      </g>
     </g>
    </g>
    <g id="xtick_5">
     <g id="line2d_9">
      <path d="M 431.604062 320.4 
L 431.604062 43.2 
" clip-path="url(#p9a31e54f32)" style="fill: none; stroke-dasharray: 5.12,1.28,0.8,1.28; stroke-dashoffset: 0; stroke: #b0b0b0; stroke-width: 0.8"/>
     </g>
     <g id="line2d_10">
      <g>
       <use xlink:href="#mf9f30efe5b" x="431.604062" y="320.4" style="fill: #a9a9a9; stroke: #a9a9a9; stroke-width: 0.8"/>
      </g>
     </g>
     <g id="text_5">
      <!-- 2023-07 -->
      <g style="fill: #a9a9a9" transform="translate(410.712656 334.998438) scale(0.1 -0.1)">
       <use xlink:href="#DejaVuSans-32"/>
       <use xlink:href="#DejaVuSans-30" transform="translate(63.623047 0)"/>
       <use xlink:href="#DejaVuSans-32" transform="translate(127.246094 0)"/>
       <use xlink:href="#DejaVuSans-33" transform="translate(190.869141 0)"/>
       <use xlink:href="#DejaVuSans-2d" transform="translate(254.492188 0)"/>
       <use xlink:href="#DejaVuSans-30" transform="translate(290.576172 0)"/>
       <use xlink:href="#DejaVuSans-37" transform="translate(354.199219 0)"/>
      </g>
     </g>
    </g>
    <g id="xtick_6">
     <g id="line2d_11">
      <path d="M 507.902304 320.4 
L 507.902304 43.2 
" clip-path="url(#p9a31e54f32)" style="fill: none; stroke-dasharray: 5.12,1.28,0.8,1.28; stroke-dashoffset: 0; stroke: #b0b0b0; stroke-width: 0.8"/>
     </g>
     <g id="line2d_12">
      <g>
       <use xlink:href="#mf9f30efe5b" x="507.902304" y="320.4" style="fill: #a9a9a9; stroke: #a9a9a9; stroke-width: 0.8"/>
      </g>
     </g>
     <g id="text_6">
      <!-- 2024-01 -->
      <g style="fill: #a9a9a9" transform="translate(487.010897 334.998438) scale(0.1 -0.1)">
       <defs>
        <path id="DejaVuSans-34" d="M 2419 4116 
L 825 1625 
L 2419 1625 
L 2419 4116 
z
M 2253 4666 
L 3047 4666 
L 3047 1625 
L 3713 1625 
L 3713 1100 
L 3047 1100 
L 3047 0 
L 2419 0 
L 2419 1100 
L 313 1100 
L 313 1709 
L 2253 4666 
z
" transform="scale(0.015625)"/>
       </defs>
       <use xlink:href="#DejaVuSans-32"/>
       <use xlink:href="#DejaVuSans-30" transform="translate(63.623047 0)"/>
       <use xlink:href="#DejaVuSans-32" transform="translate(127.246094 0)"/>
       <use xlink:href="#DejaVuSans-34" transform="translate(190.869141 0)"/>
       <use xlink:href="#DejaVuSans-2d" transform="translate(254.492188 0)"/>
       <use xlink:href="#DejaVuSans-30" transform="translate(290.576172 0)"/>
       <use xlink:href="#DejaVuSans-31" transform="translate(354.199219 0)"/>
      </g>
     </g>
    </g>
    <g id="xtick_7">
     <g id="line2d_13">
      <path d="M 583.371216 320.4 
L 583.371216 43.2 
" clip-path="url(#p9a31e54f32)" style="fill: none; stroke-dasharray: 5.12,1.28,0.8,1.28; stroke-dashoffset: 0; stroke: #b0b0b0; stroke-width: 0.8"/>
     </g>
     <g id="line2d_14">
      <g>
       <use xlink:href="#mf9f30efe5b" x="583.371216" y="320.4" style="fill: #a9a9a9; stroke: #a9a9a9; stroke-width: 0.8"/>
      </g>
     </g>
     <g id="text_7">
      <!-- 2024-07 -->
      <g style="fill: #a9a9a9" transform="translate(562.47981 334.998438) scale(0.1 -0.1)">
       <use xlink:href="#DejaVuSans-32"/>
       <use xlink:href="#DejaVuSans-30" transform="translate(63.623047 0)"/>
       <use xlink:href="#DejaVuSans-32" transform="translate(127.246094 0)"/>
       <use xlink:href="#DejaVuSans-34" transform="translate(190.869141 0)"/>
       <use xlink:href="#DejaVuSans-2d" transform="translate(254.492188 0)"/>
       <use xlink:href="#DejaVuSans-30" transform="translate(290.576172 0)"/>
       <use xlink:href="#DejaVuSans-37" transform="translate(354.199219 0)"/>
      </g>
     </g>
    </g>
    <g id="xtick_8">
     <g id="line2d_15">
      <path d="M 659.669458 320.4 
L 659.669458 43.2 
" clip-path="url(#p9a31e54f32)" style="fill: none; stroke-dasharray: 5.12,1.28,0.8,1.28; stroke-dashoffset: 0; stroke: #b0b0b0; stroke-width: 0.8"/>
     </g>
     <g id="line2d_16">
      <g>
       <use xlink:href="#mf9f30efe5b" x="659.669458" y="320.4" style="fill: #a9a9a9; stroke: #a9a9a9; stroke-width: 0.8"/>
      </g>
     </g>
     <g id="text_8">
      <!-- 2025-01 -->
      <g style="fill: #a9a9a9" transform="translate(638.778051 334.998438) scale(0.1 -0.1)">
       <defs>
        <path id="DejaVuSans-35" d="M 691 4666 
L 3169 4666 
L 3169 4134 
L 1269 4134 
L 1269 2991 
Q 1406 3038 1543 3061 
Q 1681 3084 1819 3084 
Q 2600 3084 3056 2656 
Q 3513 2228 3513 1497 
Q 3513 744 3044 326 
Q 2575 -91 1722 -91 
Q 1428 -91 1123 -41 
Q 819 9 494 109 
L 494 744 
Q 775 591 1075 516 
Q 1375 441 1709 441 
Q 2250 441 2565 725 
Q 2881 1009 2881 1497 
Q 2881 1984 2565 2268 
Q 2250 2553 1709 2553 
Q 1456 2553 1204 2497 
Q 953 2441 691 2322 
L 691 4666 
z
" transform="scale(0.015625)"/>
       </defs>
       <use xlink:href="#DejaVuSans-32"/>
       <use xlink:href="#DejaVuSans-30" transform="translate(63.623047 0)"/>
       <use xlink:href="#DejaVuSans-32" transform="translate(127.246094 0)"/>
       <use xlink:href="#DejaVuSans-35" transform="translate(190.869141 0)"/>
       <use xlink:href="#DejaVuSans-2d" transform="translate(254.492188 0)"/>
       <use xlink:href="#DejaVuSans-30" transform="translate(290.576172 0)"/>
       <use xlink:href="#DejaVuSans-31" transform="translate(354.199219 0)"/>
      </g>
     </g>
    </g>
    <g id="xtick_9">
     <g id="line2d_17">
      <path d="M 734.723706 320.4 
L 734.723706 43.2 
" clip-path="url(#p9a31e54f32)" style="fill: none; stroke-dasharray: 5.12,1.28,0.8,1.28; stroke-dashoffset: 0; stroke: #b0b0b0; stroke-width: 0.8"/>
     </g>
     <g id="line2d_18">
      <g>
       <use xlink:href="#mf9f30efe5b" x="734.723706" y="320.4" style="fill: #a9a9a9; stroke: #a9a9a9; stroke-width: 0.8"/>
      </g>
     </g>
     <g id="text_9">
      <!-- 2025-07 -->
      <g style="fill: #a9a9a9" transform="translate(713.832299 334.998438) scale(0.1 -0.1)">
       <use xlink:href="#DejaVuSans-32"/>
       <use xlink:href="#DejaVuSans-30" transform="translate(63.623047 0)"/>
       <use xlink:href="#DejaVuSans-32" transform="translate(127.246094 0)"/>
       <use xlink:href="#DejaVuSans-35" transform="translate(190.869141 0)"/>
       <use xlink:href="#DejaVuSans-2d" transform="translate(254.492188 0)"/>
       <use xlink:href="#DejaVuSans-30" transform="translate(290.576172 0)"/>
       <use xlink:href="#DejaVuSans-37" transform="translate(354.199219 0)"/>
      </g>
     </g>
    </g>
   </g>
   <g id="matplotlib.axis_2">
    <g id="ytick_1">
     <g id="line2d_19">
      <path d="M 108 307.831706 
L 777.6 307.831706 
" clip-path="url(#p9a31e54f32)" style="fill: none; stroke-dasharray: 5.12,1.28,0.8,1.28; stroke-dashoffset: 0; stroke: #b0b0b0; stroke-width: 0.8"/>
     </g>
     <g id="line2d_20">
      <defs>
       <path id="m0971853aa1" d="M 0 0 
L -3.5 0 
" style="stroke: #a9a9a9; stroke-width: 0.8"/>
      </defs>
      <g>
       <use xlink:href="#m0971853aa1" x="108" y="307.831706" style="fill: #a9a9a9; stroke: #a9a9a9; stroke-width: 0.8"/>
      </g>
     </g>
     <g id="text_10">
      <!-- 0 -->
      <g style="fill: #a9a9a9" transform="translate(94.6375 311.630925) scale(0.1 -0.1)">
       <use xlink:href="#DejaVuSans-30"/>
      </g>
     </g>
    </g>
    <g id="ytick_2">
     <g id="line2d_21">
      <path d="M 108 276.125617 
L 777.6 276.125617 
" clip-path="url(#p9a31e54f32)" style="fill: none; stroke-dasharray: 5.12,1.28,0.8,1.28; stroke-dashoffset: 0; stroke: #b0b0b0; stroke-width: 0.8"/>
     </g>
     <g id="line2d_22">
      <g>
       <use xlink:href="#m0971853aa1" x="108" y="276.125617" style="fill: #a9a9a9; stroke: #a9a9a9; stroke-width: 0.8"/>
      </g>
     </g>
     <g id="text_11">
      <!-- 1000 -->
      <g style="fill: #a9a9a9" transform="translate(75.55 279.924835) scale(0.1 -0.1)">
       <use xlink:href="#DejaVuSans-31"/>
       <use xlink:href="#DejaVuSans-30" transform="translate(63.623047 0)"/>
       <use xlink:href="#DejaVuSans-30" transform="translate(127.246094 0)"/>
       <use xlink:href="#DejaVuSans-30" transform="translate(190.869141 0)"/>
      </g>
     </g>
    </g>
    <g id="ytick_3">
     <g id="line2d_23">
      <path d="M 108 244.419527 
L 777.6 244.419527 
" clip-path="url(#p9a31e54f32)" style="fill: none; stroke-dasharray: 5.12,1.28,0.8,1.28; stroke-dashoffset: 0; stroke: #b0b0b0; stroke-width: 0.8"/>
     </g>
     <g id="line2d_24">
      <g>
       <use xlink:href="#m0971853aa1" x="108" y="244.419527" style="fill: #a9a9a9; stroke: #a9a9a9; stroke-width: 0.8"/>
      </g>
     </g>
     <g id="text_12">
      <!-- 2000 -->
      <g style="fill: #a9a9a9" transform="translate(75.55 248.218746) scale(0.1 -0.1)">
       <use xlink:href="#DejaVuSans-32"/>
       <use xlink:href="#DejaVuSans-30" transform="translate(63.623047 0)"/>
       <use xlink:href="#DejaVuSans-30" transform="translate(127.246094 0)"/>
       <use xlink:href="#DejaVuSans-30" transform="translate(190.869141 0)"/>
      </g>
     </g>
    </g>
    <g id="ytick_4">
     <g id="line2d_25">
      <path d="M 108 212.713437 
L 777.6 212.713437 
" clip-path="url(#p9a31e54f32)" style="fill: none; stroke-dasharray: 5.12,1.28,0.8,1.28; stroke-dashoffset: 0; stroke: #b0b0b0; stroke-width: 0.8"/>
     </g>
     <g id="line2d_26">
      <g>
       <use xlink:href="#m0971853aa1" x="108" y="212.713437" style="fill: #a9a9a9; stroke: #a9a9a9; stroke-width: 0.8"/>
      </g>
     </g>
     <g id="text_13">
      <!-- 3000 -->
      <g style="fill: #a9a9a9" transform="translate(75.55 216.512656) scale(0.1 -0.1)">
       <use xlink:href="#DejaVuSans-33"/>
       <use xlink:href="#DejaVuSans-30" transform="translate(63.623047 0)"/>
       <use xlink:href="#DejaVuSans-30" transform="translate(127.246094 0)"/>
       <use xlink:href="#DejaVuSans-30" transform="translate(190.869141 0)"/>
      </g>
     </g>
    </g>
    <g id="ytick_5">
     <g id="line2d_27">
      <path d="M 108 181.007348 
L 777.6 181.007348 
" clip-path="url(#p9a31e54f32)" style="fill: none; stroke-dasharray: 5.12,1.28,0.8,1.28; stroke-dashoffset: 0; stroke: #b0b0b0; stroke-width: 0.8"/>
     </g>
     <g id="line2d_28">
      <g>
       <use xlink:href="#m0971853aa1" x="108" y="181.007348" style="fill: #a9a9a9; stroke: #a9a9a9; stroke-width: 0.8"/>
      </g>
     </g>
     <g id="text_14">
      <!-- 4000 -->
      <g style="fill: #a9a9a9" transform="translate(75.55 184.806567) scale(0.1 -0.1)">
       <use xlink:href="#DejaVuSans-34"/>
       <use xlink:href="#DejaVuSans-30" transform="translate(63.623047 0)"/>
       <use xlink:href="#DejaVuSans-30" transform="translate(127.246094 0)"/>
       <use xlink:href="#DejaVuSans-30" transform="translate(190.869141 0)"/>
      </g>
     </g>
    </g>
    <g id="ytick_6">
     <g id="line2d_29">
      <path d="M 108 149.301258 
L 777.6 149.301258 
" clip-path="url(#p9a31e54f32)" style="fill: none; stroke-dasharray: 5.12,1.28,0.8,1.28; stroke-dashoffset: 0; stroke: #b0b0b0; stroke-width: 0.8"/>
     </g>
     <g id="line2d_30">
      <g>
       <use xlink:href="#m0971853aa1" x="108" y="149.301258" style="fill: #a9a9a9; stroke: #a9a9a9; stroke-width: 0.8"/>
      </g>
     </g>
     <g id="text_15">
      <!-- 5000 -->
      <g style="fill: #a9a9a9" transform="translate(75.55 153.100477) scale(0.1 -0.1)">
       <use xlink:href="#DejaVuSans-35"/>
       <use xlink:href="#DejaVuSans-30" transform="translate(63.623047 0)"/>
       <use xlink:href="#DejaVuSans-30" transform="translate(127.246094 0)"/>
       <use xlink:href="#DejaVuSans-30" transform="translate(190.869141 0)"/>
      </g>
     </g>
    </g>
    <g id="ytick_7">
     <g id="line2d_31">
      <path d="M 108 117.595169 
L 777.6 117.595169 
" clip-path="url(#p9a31e54f32)" style="fill: none; stroke-dasharray: 5.12,1.28,0.8,1.28; stroke-dashoffset: 0; stroke: #b0b0b0; stroke-width: 0.8"/>
     </g>
     <g id="line2d_32">
      <g>
       <use xlink:href="#m0971853aa1" x="108" y="117.595169" style="fill: #a9a9a9; stroke: #a9a9a9; stroke-width: 0.8"/>
      </g>
     </g>
     <g id="text_16">
      <!-- 6000 -->
      <g style="fill: #a9a9a9" transform="translate(75.55 121.394387) scale(0.1 -0.1)">
       <defs>
        <path id="DejaVuSans-36" d="M 2113 2584 
Q 1688 2584 1439 2293 
Q 1191 2003 1191 1497 
Q 1191 994 1439 701 
Q 1688 409 2113 409 
Q 2538 409 2786 701 
Q 3034 994 3034 1497 
Q 3034 2003 2786 2293 
Q 2538 2584 2113 2584 
z
M 3366 4563 
L 3366 3988 
Q 3128 4100 2886 4159 
Q 2644 4219 2406 4219 
Q 1781 4219 1451 3797 
Q 1122 3375 1075 2522 
Q 1259 2794 1537 2939 
Q 1816 3084 2150 3084 
Q 2853 3084 3261 2657 
Q 3669 2231 3669 1497 
Q 3669 778 3244 343 
Q 2819 -91 2113 -91 
Q 1303 -91 875 529 
Q 447 1150 447 2328 
Q 447 3434 972 4092 
Q 1497 4750 2381 4750 
Q 2619 4750 2861 4703 
Q 3103 4656 3366 4563 
z
" transform="scale(0.015625)"/>
       </defs>
       <use xlink:href="#DejaVuSans-36"/>
       <use xlink:href="#DejaVuSans-30" transform="translate(63.623047 0)"/>
       <use xlink:href="#DejaVuSans-30" transform="translate(127.246094 0)"/>
       <use xlink:href="#DejaVuSans-30" transform="translate(190.869141 0)"/>
      </g>
     </g>
    </g>
    <g id="ytick_8">
     <g id="line2d_33">
      <path d="M 108 85.889079 
L 777.6 85.889079 
" clip-path="url(#p9a31e54f32)" style="fill: none; stroke-dasharray: 5.12,1.28,0.8,1.28; stroke-dashoffset: 0; stroke: #b0b0b0; stroke-width: 0.8"/>
     </g>
     <g id="line2d_34">
      <g>
       <use xlink:href="#m0971853aa1" x="108" y="85.889079" style="fill: #a9a9a9; stroke: #a9a9a9; stroke-width: 0.8"/>
      </g>
     </g>
     <g id="text_17">
      <!-- 7000 -->
      <g style="fill: #a9a9a9" transform="translate(75.55 89.688298) scale(0.1 -0.1)">
       <use xlink:href="#DejaVuSans-37"/>
       <use xlink:href="#DejaVuSans-30" transform="translate(63.623047 0)"/>
       <use xlink:href="#DejaVuSans-30" transform="translate(127.246094 0)"/>
       <use xlink:href="#DejaVuSans-30" transform="translate(190.869141 0)"/>
      </g>
     </g>
    </g>
    <g id="ytick_9">
     <g id="line2d_35">
      <path d="M 108 54.182989 
L 777.6 54.182989 
" clip-path="url(#p9a31e54f32)" style="fill: none; stroke-dasharray: 5.12,1.28,0.8,1.28; stroke-dashoffset: 0; stroke: #b0b0b0; stroke-width: 0.8"/>
     </g>
     <g id="line2d_36">
      <g>
       <use xlink:href="#m0971853aa1" x="108" y="54.182989" style="fill: #a9a9a9; stroke: #a9a9a9; stroke-width: 0.8"/>
      </g>
     </g>
     <g id="text_18">
      <!-- 8000 -->
      <g style="fill: #a9a9a9" transform="translate(75.55 57.982208) scale(0.1 -0.1)">
       <defs>
        <path id="DejaVuSans-38" d="M 2034 2216 
Q 1584 2216 1326 1975 
Q 1069 1734 1069 1313 
Q 1069 891 1326 650 
Q 1584 409 2034 409 
Q 2484 409 2743 651 
Q 3003 894 3003 1313 
Q 3003 1734 2745 1975 
Q 2488 2216 2034 2216 
z
M 1403 2484 
Q 997 2584 770 2862 
Q 544 3141 544 3541 
Q 544 4100 942 4425 
Q 1341 4750 2034 4750 
Q 2731 4750 3128 4425 
Q 3525 4100 3525 3541 
Q 3525 3141 3298 2862 
Q 3072 2584 2669 2484 
Q 3125 2378 3379 2068 
Q 3634 1759 3634 1313 
Q 3634 634 3220 271 
Q 2806 -91 2034 -91 
Q 1263 -91 848 271 
Q 434 634 434 1313 
Q 434 1759 690 2068 
Q 947 2378 1403 2484 
z
M 1172 3481 
Q 1172 3119 1398 2916 
Q 1625 2713 2034 2713 
Q 2441 2713 2670 2916 
Q 2900 3119 2900 3481 
Q 2900 3844 2670 4047 
Q 2441 4250 2034 4250 
Q 1625 4250 1398 4047 
Q 1172 3844 1172 3481 
z
" transform="scale(0.015625)"/>
       </defs>
       <use xlink:href="#DejaVuSans-38"/>
       <use xlink:href="#DejaVuSans-30" transform="translate(63.623047 0)"/>
       <use xlink:href="#DejaVuSans-30" transform="translate(127.246094 0)"/>
       <use xlink:href="#DejaVuSans-30" transform="translate(190.869141 0)"/>
      </g>
     </g>
    </g>
   </g>
   <g id="line2d_37">
    <path d="M 138.436364 307.736588 
L 140.92435 307.514645 
L 141.339014 307.324409 
L 142.997672 307.102466 
L 144.656329 306.753699 
L 145.485658 306.626875 
L 147.558979 306.436638 
L 148.388308 306.087871 
L 148.802973 305.517162 
L 149.217637 305.231807 
L 149.632301 304.280624 
L 150.046966 304.217212 
L 150.46163 303.868445 
L 151.290959 303.42456 
L 152.949616 302.029492 
L 154.608273 301.173427 
L 155.852267 300.571012 
L 156.266931 299.873478 
L 157.09626 299.239356 
L 157.510924 299.049119 
L 161.657568 298.414997 
L 162.072232 298.224761 
L 164.974882 297.971112 
L 166.63354 297.558933 
L 169.950855 297.083342 
L 170.365519 296.861399 
L 170.780183 296.797987 
L 171.609512 296.512632 
L 174.512162 296.005335 
L 175.341491 295.751686 
L 179.07347 295.117564 
L 179.902799 294.927328 
L 180.732128 294.895622 
L 182.390785 294.483442 
L 182.80545 293.881027 
L 184.049443 293.373729 
L 185.293436 293.024962 
L 185.7081 292.80302 
L 186.537429 292.644489 
L 188.196086 292.137192 
L 189.025415 292.07378 
L 189.854744 291.851837 
L 191.513401 291.407952 
L 191.928065 291.376246 
L 192.757394 290.964066 
L 193.172058 290.900654 
L 193.586723 290.678712 
L 198.148031 289.886059 
L 199.806688 289.378762 
L 200.221352 289.093407 
L 202.294674 288.395873 
L 203.124003 287.793457 
L 204.367996 287.539809 
L 209.758633 285.954504 
L 210.173297 285.891092 
L 211.831954 285.225264 
L 212.246619 285.161852 
L 213.075947 284.813085 
L 213.905276 284.781379 
L 215.149269 284.400906 
L 215.563934 284.400906 
L 215.978598 284.210669 
L 216.807927 284.115551 
L 217.222591 283.957021 
L 218.881248 283.893608 
L 219.710577 283.735078 
L 220.539906 283.291193 
L 221.783899 282.815601 
L 222.613228 282.371716 
L 223.442556 281.927831 
L 224.271885 281.642476 
L 224.686549 281.515652 
L 225.515878 280.976648 
L 225.930542 280.501057 
L 226.759871 279.169401 
L 227.174536 279.042577 
L 227.5892 279.042577 
L 229.247857 278.091394 
L 229.662522 277.996276 
L 230.077186 277.584097 
L 230.906515 277.23533 
L 231.735843 276.854857 
L 232.150508 276.347559 
L 232.565172 275.650025 
L 232.979837 275.36467 
L 233.394501 274.603724 
L 233.809165 274.128133 
L 236.297151 272.733065 
L 237.955809 271.211173 
L 238.370473 270.228284 
L 238.785137 269.594162 
L 239.199802 269.245395 
L 239.614466 269.055159 
L 242.931781 265.916256 
L 243.76111 265.123603 
L 246.249096 263.506593 
L 246.66376 263.348062 
L 248.322418 262.333468 
L 248.737082 262.143231 
L 250.810404 260.177453 
L 251.639732 259.828686 
L 252.469061 259.226271 
L 252.883726 258.972622 
L 253.29839 258.90921 
L 254.542383 258.17997 
L 254.957047 257.704378 
L 257.030369 256.531253 
L 257.445033 256.372723 
L 258.689027 255.484952 
L 264.908992 253.202114 
L 265.738321 252.409461 
L 266.982314 251.77534 
L 267.811642 251.236336 
L 268.640971 250.982687 
L 269.055635 250.697333 
L 269.4703 250.570508 
L 270.714293 249.714444 
L 272.787615 249.238853 
L 274.031608 248.477906 
L 275.275601 248.192552 
L 275.690265 248.097433 
L 276.934258 247.146251 
L 278.592916 246.670659 
L 279.00758 246.321892 
L 281.495566 245.434122 
L 282.324895 245.275591 
L 283.154223 244.926824 
L 286.056874 243.817111 
L 286.886203 243.721993 
L 288.130196 243.278108 
L 290.203517 242.231807 
L 292.691504 240.805033 
L 293.520832 240.58309 
L 294.764825 239.948968 
L 295.594154 239.790438 
L 296.423483 239.28314 
L 297.252811 239.061198 
L 298.496805 238.5539 
L 300.155462 238.331958 
L 300.984791 237.888072 
L 301.399455 237.507599 
L 301.814119 236.746653 
L 303.472777 236.271062 
L 304.71677 235.605234 
L 305.546099 235.319879 
L 306.790092 234.685757 
L 308.863413 233.829693 
L 309.692742 233.639456 
L 310.936735 233.005335 
L 311.3514 232.941922 
L 313.424721 231.895622 
L 314.25405 231.356618 
L 315.498043 231.102969 
L 317.571365 230.563966 
L 317.986029 230.215199 
L 318.815358 229.929844 
L 320.88868 229.07378 
L 321.303344 228.756719 
L 321.718008 228.598188 
L 322.547337 228.122597 
L 324.205995 227.583593 
L 325.035323 227.04459 
L 325.449988 226.600705 
L 325.864652 226.347056 
L 326.279316 226.251938 
L 327.108645 225.554404 
L 327.523309 225.490991 
L 327.937974 224.793457 
L 328.352638 224.603221 
L 328.767302 224.254454 
L 329.181967 224.191042 
L 330.011296 223.652038 
L 330.840624 223.366683 
L 331.255289 223.049623 
L 331.669953 222.891092 
L 333.32861 221.749673 
L 334.572603 221.115551 
L 335.401932 220.893608 
L 336.231261 220.418017 
L 336.645925 219.688777 
L 337.475254 219.054655 
L 337.889918 218.959537 
L 340.377904 217.722999 
L 341.207233 217.374233 
L 342.036562 216.771817 
L 343.280555 215.598691 
L 344.109884 215.091394 
L 344.524548 214.615803 
L 346.183205 213.442677 
L 347.012534 212.586613 
L 347.841863 212.301258 
L 348.671191 211.730549 
L 349.915185 211.064721 
L 350.329849 211.001309 
L 351.573842 210.303775 
L 352.403171 209.764771 
L 356.549814 208.179467 
L 356.964479 207.8307 
L 358.623136 207.164872 
L 359.0378 207.038047 
L 359.867129 206.499044 
L 360.696458 206.150277 
L 361.525786 205.547861 
L 362.355115 203.835732 
L 363.184444 202.821137 
L 364.428437 202.15531 
L 365.257766 201.806543 
L 365.67243 201.74313 
L 366.501759 201.362657 
L 368.160416 200.791948 
L 368.989745 200.316356 
L 369.819074 199.904177 
L 370.233738 199.777353 
L 372.721724 198.25546 
L 373.136388 197.779869 
L 374.380381 197.050629 
L 374.795046 196.892099 
L 375.624375 196.384801 
L 377.283032 195.465325 
L 377.697696 195.370206 
L 378.112361 195.021439 
L 381.015011 194.038551 
L 381.429676 193.72149 
L 382.259004 193.467841 
L 383.088333 193.119074 
L 383.502997 192.770307 
L 385.161655 192.167891 
L 385.990983 191.565476 
L 386.820312 191.216709 
L 387.649641 190.550881 
L 388.47897 190.297232 
L 388.893634 189.916759 
L 389.308298 189.853347 
L 390.137627 189.187519 
L 392.210949 187.950981 
L 393.040277 187.697333 
L 393.454942 187.443684 
L 393.869606 187.380272 
L 395.113599 186.682738 
L 401.333565 184.71696 
L 402.577558 183.797484 
L 402.992222 183.638953 
L 403.821551 183.163362 
L 404.236215 183.036537 
L 406.724201 181.609763 
L 407.138865 181.514645 
L 408.382859 180.753699 
L 409.626852 180.309814 
L 410.45618 180.024459 
L 412.114838 179.453749 
L 412.944166 179.168395 
L 414.602824 178.819628 
L 415.017488 178.629391 
L 415.846817 178.407448 
L 416.261481 178.217212 
L 416.676146 178.1538 
L 417.09081 177.931857 
L 417.920139 177.773327 
L 419.164132 177.297735 
L 420.408125 177.107499 
L 422.896111 176.631907 
L 424.140104 176.346553 
L 424.554768 176.156316 
L 425.384097 175.997786 
L 426.213426 175.775843 
L 427.042755 175.39537 
L 427.457419 175.236839 
L 427.872083 175.236839 
L 432.433391 173.810065 
L 432.848055 173.588123 
L 433.26272 173.588123 
L 434.092049 173.271062 
L 434.506713 172.827177 
L 436.994699 171.780876 
L 438.653356 171.210166 
L 439.068021 170.956517 
L 440.312014 170.576044 
L 441.141343 170.354102 
L 441.556007 170.068747 
L 441.970671 169.973629 
L 442.385336 169.593156 
L 443.629329 169.339507 
L 444.458657 168.959034 
L 444.873322 168.451736 
L 449.43463 167.437141 
L 449.849294 167.437141 
L 450.263958 167.246905 
L 451.922616 166.929844 
L 452.33728 166.739607 
L 453.995938 166.422547 
L 454.825266 166.07378 
L 455.654595 165.915249 
L 457.727917 165.376246 
L 459.386574 164.837242 
L 459.801239 164.742124 
L 460.215903 164.520181 
L 461.045232 164.298239 
L 461.87456 163.949472 
L 462.703889 163.632411 
L 463.118553 163.347056 
L 463.947882 163.093407 
L 466.850533 161.983694 
L 468.50919 161.793457 
L 471.826505 160.55692 
L 472.241169 160.239859 
L 472.655834 160.144741 
L 473.070498 159.922798 
L 473.485162 159.891092 
L 478.04647 158.210669 
L 480.119792 157.63996 
L 480.949121 157.227781 
L 482.193114 156.942426 
L 483.851771 155.547358 
L 485.510429 154.818118 
L 486.339757 154.437645 
L 488.827743 153.454756 
L 489.242408 153.169401 
L 491.31573 152.471867 
L 495.462373 150.347559 
L 496.291702 149.967086 
L 496.706366 149.650025 
L 497.535695 149.36467 
L 499.609017 148.286663 
L 500.85301 147.842778 
L 502.511667 147.17695 
L 503.75566 146.701359 
L 504.170324 146.542828 
L 504.999653 146.416004 
L 505.414318 146.130649 
L 507.072975 145.813588 
L 507.902304 145.464821 
L 509.560961 144.672169 
L 515.366262 142.07227 
L 516.610255 141.660091 
L 517.024919 141.374736 
L 517.854248 141.279618 
L 518.268913 140.994263 
L 519.098241 140.867438 
L 519.92757 140.455259 
L 520.342234 140.265023 
L 521.171563 140.04308 
L 522.000892 139.789431 
L 523.244885 139.31384 
L 524.488878 138.901661 
L 525.732871 138.616306 
L 527.391528 137.918772 
L 528.220857 137.474887 
L 529.879514 136.618822 
L 530.708843 136.428586 
L 531.123508 136.174937 
L 531.538172 136.079819 
L 532.782165 135.350579 
L 533.611494 135.001812 
L 539.00213 132.972622 
L 539.416795 132.90921 
L 541.075452 132.116558 
L 541.904781 131.958027 
L 542.734109 131.482436 
L 544.392767 130.689784 
L 548.53941 129.041067 
L 549.368739 128.628888 
L 549.783404 128.53377 
L 550.198068 128.311827 
L 551.856725 127.836236 
L 553.515383 126.441168 
L 553.930047 126.314343 
L 554.344711 126.060695 
L 555.588704 125.711928 
L 556.003369 125.394867 
L 556.418033 125.299748 
L 557.662026 124.538802 
L 558.076691 124.253447 
L 559.320684 123.777856 
L 559.735348 123.555913 
L 560.979341 123.270559 
L 563.052663 122.541319 
L 563.881992 122.28767 
L 565.125985 121.621842 
L 565.955313 121.209663 
L 566.784642 120.98772 
L 568.028635 120.385304 
L 572.175279 118.704882 
L 574.2486 117.690287 
L 575.077929 117.373226 
L 575.492594 116.992753 
L 576.321922 116.643986 
L 577.565915 116.200101 
L 577.98058 115.851334 
L 578.395244 115.819628 
L 579.224573 115.565979 
L 580.053901 115.280624 
L 580.468566 115.090388 
L 580.88323 115.026975 
L 581.712559 114.678208 
L 582.956552 114.392854 
L 583.785881 113.917262 
L 584.200545 113.758732 
L 584.615209 113.441671 
L 585.859202 113.12461 
L 586.273867 112.870961 
L 587.103195 112.649019 
L 588.347189 111.951485 
L 588.761853 111.919779 
L 590.005846 111.507599 
L 590.835175 111.444187 
L 591.249839 111.222245 
L 592.079168 111.000302 
L 592.493832 110.778359 
L 594.567154 110.36618 
L 595.396483 110.20765 
L 596.640476 109.732058 
L 597.884469 109.446704 
L 599.128462 108.780876 
L 599.543126 108.400403 
L 600.787119 107.639456 
L 601.201784 107.322396 
L 602.445777 106.910216 
L 603.275105 106.688274 
L 607.007084 105.039557 
L 608.665742 104.595672 
L 609.495071 104.215199 
L 609.909735 103.993256 
L 610.739064 103.739607 
L 611.153728 103.517665 
L 611.983057 103.359134 
L 615.300372 101.900654 
L 615.715036 101.837242 
L 616.959029 101.012884 
L 617.373693 100.949472 
L 619.032351 100.283644 
L 620.691008 99.871465 
L 621.105673 99.808052 
L 621.520337 99.617816 
L 621.935001 99.58611 
L 622.76433 99.300755 
L 623.178994 99.269049 
L 624.422987 98.793457 
L 626.081645 98.317866 
L 626.910973 97.683744 
L 628.569631 96.764268 
L 628.984295 96.669149 
L 629.39896 96.447207 
L 630.228288 96.161852 
L 630.642953 96.035028 
L 631.057617 95.686261 
L 632.30161 95.210669 
L 633.130939 94.735078 
L 633.545603 94.513135 
L 633.960268 94.132662 
L 636.033589 93.625365 
L 637.277582 93.054655 
L 638.106911 92.832713 
L 638.521575 92.61077 
L 638.93624 92.262003 
L 640.594897 91.818118 
L 641.009562 91.501057 
L 646.400198 89.503573 
L 647.229527 89.345043 
L 649.302849 88.679215 
L 650.132177 88.330448 
L 650.961506 88.013387 
L 651.790835 87.791444 
L 652.205499 87.601208 
L 652.620163 87.601208 
L 653.449492 87.252441 
L 654.278821 86.77685 
L 657.181471 85.793961 
L 658.840129 85.223251 
L 660.084122 84.937896 
L 661.328115 84.525717 
L 661.742779 84.430599 
L 662.157444 84.145244 
L 662.986772 83.955008 
L 664.64543 83.479416 
L 665.060094 83.44771 
L 665.889423 83.067237 
L 668.792073 82.337997 
L 669.621402 81.98923 
L 673.768046 81.038047 
L 675.012039 80.372219 
L 676.256032 79.991746 
L 679.158682 79.008858 
L 679.573347 78.786915 
L 679.988011 78.691797 
L 681.232004 78.057675 
L 682.061333 77.899144 
L 682.890661 77.645496 
L 683.71999 77.233317 
L 684.134654 76.88455 
L 684.963983 76.630901 
L 685.378648 76.377252 
L 686.207976 76.282134 
L 689.110627 75.457776 
L 690.35462 75.204127 
L 691.598613 74.887066 
L 692.427942 74.665123 
L 693.671935 74.031002 
L 695.330592 73.39688 
L 696.159921 72.952994 
L 696.574585 72.921288 
L 697.403914 72.509109 
L 700.306564 71.684751 
L 701.550557 71.494514 
L 702.379886 71.240866 
L 703.623879 70.860393 
L 707.355858 69.814092 
L 708.185187 69.592149 
L 708.599851 69.497031 
L 709.014516 69.243382 
L 709.843844 69.084852 
L 710.673173 68.989733 
L 711.087838 68.767791 
L 711.502502 68.736085 
L 712.331831 68.197081 
L 713.990488 67.848314 
L 714.819817 67.499547 
L 715.649145 67.214192 
L 716.478474 66.99225 
L 717.307803 66.643483 
L 718.137132 66.358128 
L 719.795789 65.882536 
L 720.625118 65.819124 
L 721.454446 65.53377 
L 721.869111 65.375239 
L 722.698439 65.248415 
L 724.357097 64.519175 
L 724.771761 64.455762 
L 725.186426 64.23382 
L 726.015754 64.075289 
L 726.845083 64.011877 
L 729.333069 63.377755 
L 730.162398 63.028988 
L 730.577062 62.965576 
L 730.991727 62.743634 
L 731.821055 62.0461 
L 737.211692 60.080322 
L 738.455685 59.794967 
L 738.870349 59.477906 
L 740.114342 58.938903 
L 740.943671 58.495018 
L 741.358335 58.399899 
L 741.773 58.082838 
L 743.016993 57.734071 
L 743.431657 57.512129 
L 744.260986 57.226774 
L 745.090315 56.878007 
L 746.748972 55.8 
L 747.163636 55.8 
L 747.163636 55.8 
" clip-path="url(#p9a31e54f32)" style="fill: none; stroke: #1f77b4; stroke-width: 1.5; stroke-linecap: square"/>
   </g>
   <g id="line2d_38">
    <path d="M 138.851028 307.8 
L 142.583007 307.704882 
L 145.900322 307.546351 
L 147.558979 307.546351 
L 147.973644 307.419527 
L 150.046966 307.324409 
L 152.534952 307.039054 
L 155.022938 306.943936 
L 155.852267 306.848817 
L 158.754917 306.721993 
L 161.657568 306.626875 
L 163.730889 306.563463 
L 169.121526 306.468344 
L 171.194848 306.404932 
L 174.926827 306.309814 
L 176.585484 306.278108 
L 180.732128 306.182989 
L 182.390785 306.024459 
L 184.049443 305.992753 
L 186.537429 305.897635 
L 188.196086 305.865929 
L 190.269408 305.802516 
L 191.928065 305.643986 
L 195.660045 305.548868 
L 196.489373 305.485455 
L 198.148031 305.390337 
L 200.636017 305.295219 
L 202.294674 305.200101 
L 209.758633 304.724509 
L 212.661283 304.629391 
L 213.905276 304.502567 
L 215.978598 304.407448 
L 220.125242 304.185506 
L 224.271885 304.122094 
L 225.930542 303.931857 
L 228.003864 303.836739 
L 232.150508 303.42456 
L 234.638494 303.107499 
L 236.297151 303.044087 
L 239.614466 302.600201 
L 242.102452 302.536789 
L 243.346445 302.409965 
L 244.590438 302.314847 
L 256.20104 301.39537 
L 257.030369 301.236839 
L 259.518355 301.141721 
L 266.152985 300.729542 
L 269.055635 300.634424 
L 270.714293 300.444187 
L 272.787615 300.349069 
L 275.275601 300.253951 
L 277.348922 300.158832 
L 279.00758 300.127126 
L 281.080902 300.063714 
L 281.91023 299.93689 
L 287.715531 299.841772 
L 288.54486 299.746653 
L 293.520832 299.651535 
L 297.252811 299.461298 
L 300.155462 299.36618 
L 301.814119 299.175944 
L 304.71677 299.080825 
L 305.546099 298.954001 
L 307.61942 298.890589 
L 311.766064 298.827177 
L 313.424721 298.668646 
L 315.083379 298.63694 
L 316.327372 298.541822 
L 317.986029 298.383291 
L 322.132673 298.161349 
L 326.279316 298.06623 
L 330.011296 297.875994 
L 331.255289 297.844288 
L 332.084617 297.717464 
L 334.157939 297.622345 
L 334.987268 297.558933 
L 335.816596 297.495521 
L 336.645925 297.432109 
L 340.792569 297.33699 
L 349.915185 296.734575 
L 350.744513 296.671163 
L 351.988506 296.576044 
L 354.891157 296.480926 
L 356.964479 296.417514 
L 362.76978 296.322396 
L 363.599108 296.195571 
L 369.404409 296.100453 
L 373.551053 295.87851 
L 374.380381 295.846804 
L 375.20971 295.751686 
L 377.283032 295.656568 
L 379.356354 295.593156 
L 381.429676 295.498037 
L 383.502997 295.434625 
L 387.234976 295.339507 
L 389.722963 295.244389 
L 395.528264 295.14927 
L 400.089571 294.895622 
L 401.748229 294.832209 
L 402.992222 294.737091 
L 408.797523 294.641973 
L 411.285509 294.546855 
L 418.749467 294.451736 
L 420.408125 294.42003 
L 425.384097 294.356618 
L 426.213426 294.293206 
L 432.018727 294.198088 
L 433.677384 294.166381 
L 444.458657 294.071263 
L 446.946644 293.976145 
L 464.362546 293.881027 
L 466.435868 293.817614 
L 477.217141 293.754202 
L 478.04647 293.69079 
L 480.119792 293.627378 
L 481.363785 293.500554 
L 483.851771 293.405435 
L 486.754422 293.278611 
L 490.486401 293.183493 
L 492.559723 293.120081 
L 495.462373 293.024962 
L 498.779688 292.866432 
L 500.85301 292.771314 
L 502.511667 292.739607 
L 509.560961 292.644489 
L 512.048947 292.549371 
L 516.610255 292.454253 
L 519.512906 292.327428 
L 522.415556 292.264016 
L 523.244885 292.200604 
L 533.196829 292.105486 
L 537.343473 291.883543 
L 540.246123 291.788425 
L 544.807431 291.534776 
L 547.710082 291.439658 
L 549.368739 291.407952 
L 552.27139 291.312833 
L 554.344711 291.090891 
L 558.491355 290.995773 
L 559.320684 290.900654 
L 563.467327 290.805536 
L 565.540649 290.742124 
L 570.101957 290.710418 
L 570.931286 290.615299 
L 575.492594 290.520181 
L 576.321922 290.456769 
L 585.444538 290.361651 
L 587.932524 290.266532 
L 594.152489 290.171414 
L 595.811147 290.139708 
L 599.543126 290.076296 
L 600.372455 289.981178 
L 605.763091 289.886059 
L 607.836413 289.822647 
L 615.300372 289.727529 
L 616.544365 289.632411 
L 617.788358 289.537292 
L 619.032351 289.442174 
L 625.252316 289.347056 
L 627.740302 289.251938 
L 638.93624 289.156819 
L 642.668219 288.966583 
L 647.644191 288.871465 
L 648.47352 288.808052 
L 654.693485 288.74464 
L 655.522814 288.681228 
L 660.084122 288.58611 
L 661.742779 288.554404 
L 668.792073 288.459285 
L 669.621402 288.395873 
L 677.08536 288.300755 
L 678.744018 288.269049 
L 682.475997 288.173931 
L 685.793312 288.0154 
L 690.35462 287.920282 
L 693.25727 287.793457 
L 696.989249 287.698339 
L 697.818578 287.634927 
L 706.111865 287.539809 
L 708.185187 287.476397 
L 710.673173 287.381278 
L 713.161159 287.28616 
L 725.60109 287.191042 
L 728.50374 287.064217 
L 733.479713 286.969099 
L 735.13837 286.937393 
L 741.773 286.842275 
L 743.016993 286.747157 
L 746.334308 286.652038 
L 747.163636 286.620332 
L 747.163636 286.620332 
" clip-path="url(#p9a31e54f32)" style="fill: none; stroke: #ff7f0e; stroke-width: 1.5; stroke-linecap: square"/>
   </g>
   <g id="patch_3">
    <path d="M 108 320.4 
L 108 43.2 
" style="fill: none; stroke: #a9a9a9; stroke-width: 0.8; stroke-linejoin: miter; stroke-linecap: square"/>
   </g>
   <g id="patch_4">
    <path d="M 777.6 320.4 
L 777.6 43.2 
" style="fill: none"/>
   </g>
   <g id="patch_5">
    <path d="M 108 320.4 
L 777.6 320.4 
" style="fill: none; stroke: #a9a9a9; stroke-width: 0.8; stroke-linejoin: miter; stroke-linecap: square"/>
   </g>
   <g id="patch_6">
    <path d="M 108 43.2 
L 777.6 43.2 
" style="fill: none"/>
   </g>
   <g id="text_19">
    <!-- get_subscribe history -->
    <g style="fill: #a9a9a9" transform="translate(378.6075 37.2) scale(0.12 -0.12)">
     <defs>
      <path id="DejaVuSans-67" d="M 2906 1791 
Q 2906 2416 2648 2759 
Q 2391 3103 1925 3103 
Q 1463 3103 1205 2759 
Q 947 2416 947 1791 
Q 947 1169 1205 825 
Q 1463 481 1925 481 
Q 2391 481 2648 825 
Q 2906 1169 2906 1791 
z
M 3481 434 
Q 3481 -459 3084 -895 
Q 2688 -1331 1869 -1331 
Q 1566 -1331 1297 -1286 
Q 1028 -1241 775 -1147 
L 775 -588 
Q 1028 -725 1275 -790 
Q 1522 -856 1778 -856 
Q 2344 -856 2625 -561 
Q 2906 -266 2906 331 
L 2906 616 
Q 2728 306 2450 153 
Q 2172 0 1784 0 
Q 1141 0 747 490 
Q 353 981 353 1791 
Q 353 2603 747 3093 
Q 1141 3584 1784 3584 
Q 2172 3584 2450 3431 
Q 2728 3278 2906 2969 
L 2906 3500 
L 3481 3500 
L 3481 434 
z
" transform="scale(0.015625)"/>
      <path id="DejaVuSans-65" d="M 3597 1894 
L 3597 1613 
L 953 1613 
Q 991 1019 1311 708 
Q 1631 397 2203 397 
Q 2534 397 2845 478 
Q 3156 559 3463 722 
L 3463 178 
Q 3153 47 2828 -22 
Q 2503 -91 2169 -91 
Q 1331 -91 842 396 
Q 353 884 353 1716 
Q 353 2575 817 3079 
Q 1281 3584 2069 3584 
Q 2775 3584 3186 3129 
Q 3597 2675 3597 1894 
z
M 3022 2063 
Q 3016 2534 2758 2815 
Q 2500 3097 2075 3097 
Q 1594 3097 1305 2825 
Q 1016 2553 972 2059 
L 3022 2063 
z
" transform="scale(0.015625)"/>
      <path id="DejaVuSans-74" d="M 1172 4494 
L 1172 3500 
L 2356 3500 
L 2356 3053 
L 1172 3053 
L 1172 1153 
Q 1172 725 1289 603 
Q 1406 481 1766 481 
L 2356 481 
L 2356 0 
L 1766 0 
Q 1100 0 847 248 
Q 594 497 594 1153 
L 594 3053 
L 172 3053 
L 172 3500 
L 594 3500 
L 594 4494 
L 1172 4494 
z
" transform="scale(0.015625)"/>
      <path id="DejaVuSans-5f" d="M 3263 -1063 
L 3263 -1509 
L -63 -1509 
L -63 -1063 
L 3263 -1063 
z
" transform="scale(0.015625)"/>
      <path id="DejaVuSans-73" d="M 2834 3397 
L 2834 2853 
Q 2591 2978 2328 3040 
Q 2066 3103 1784 3103 
Q 1356 3103 1142 2972 
Q 928 2841 928 2578 
Q 928 2378 1081 2264 
Q 1234 2150 1697 2047 
L 1894 2003 
Q 2506 1872 2764 1633 
Q 3022 1394 3022 966 
Q 3022 478 2636 193 
Q 2250 -91 1575 -91 
Q 1294 -91 989 -36 
Q 684 19 347 128 
L 347 722 
Q 666 556 975 473 
Q 1284 391 1588 391 
Q 1994 391 2212 530 
Q 2431 669 2431 922 
Q 2431 1156 2273 1281 
Q 2116 1406 1581 1522 
L 1381 1569 
Q 847 1681 609 1914 
Q 372 2147 372 2553 
Q 372 3047 722 3315 
Q 1072 3584 1716 3584 
Q 2034 3584 2315 3537 
Q 2597 3491 2834 3397 
z
" transform="scale(0.015625)"/>
      <path id="DejaVuSans-75" d="M 544 1381 
L 544 3500 
L 1119 3500 
L 1119 1403 
Q 1119 906 1312 657 
Q 1506 409 1894 409 
Q 2359 409 2629 706 
Q 2900 1003 2900 1516 
L 2900 3500 
L 3475 3500 
L 3475 0 
L 2900 0 
L 2900 538 
Q 2691 219 2414 64 
Q 2138 -91 1772 -91 
Q 1169 -91 856 284 
Q 544 659 544 1381 
z
M 1991 3584 
L 1991 3584 
z
" transform="scale(0.015625)"/>
      <path id="DejaVuSans-62" d="M 3116 1747 
Q 3116 2381 2855 2742 
Q 2594 3103 2138 3103 
Q 1681 3103 1420 2742 
Q 1159 2381 1159 1747 
Q 1159 1113 1420 752 
Q 1681 391 2138 391 
Q 2594 391 2855 752 
Q 3116 1113 3116 1747 
z
M 1159 2969 
Q 1341 3281 1617 3432 
Q 1894 3584 2278 3584 
Q 2916 3584 3314 3078 
Q 3713 2572 3713 1747 
Q 3713 922 3314 415 
Q 2916 -91 2278 -91 
Q 1894 -91 1617 61 
Q 1341 213 1159 525 
L 1159 0 
L 581 0 
L 581 4863 
L 1159 4863 
L 1159 2969 
z
" transform="scale(0.015625)"/>
      <path id="DejaVuSans-63" d="M 3122 3366 
L 3122 2828 
Q 2878 2963 2633 3030 
Q 2388 3097 2138 3097 
Q 1578 3097 1268 2742 
Q 959 2388 959 1747 
Q 959 1106 1268 751 
Q 1578 397 2138 397 
Q 2388 397 2633 464 
Q 2878 531 3122 666 
L 3122 134 
Q 2881 22 2623 -34 
Q 2366 -91 2075 -91 
Q 1284 -91 818 406 
Q 353 903 353 1747 
Q 353 2603 823 3093 
Q 1294 3584 2113 3584 
Q 2378 3584 2631 3529 
Q 2884 3475 3122 3366 
z
" transform="scale(0.015625)"/>
      <path id="DejaVuSans-72" d="M 2631 2963 
Q 2534 3019 2420 3045 
Q 2306 3072 2169 3072 
Q 1681 3072 1420 2755 
Q 1159 2438 1159 1844 
L 1159 0 
L 581 0 
L 581 3500 
L 1159 3500 
L 1159 2956 
Q 1341 3275 1631 3429 
Q 1922 3584 2338 3584 
Q 2397 3584 2469 3576 
Q 2541 3569 2628 3553 
L 2631 2963 
z
" transform="scale(0.015625)"/>
      <path id="DejaVuSans-69" d="M 603 3500 
L 1178 3500 
L 1178 0 
L 603 0 
L 603 3500 
z
M 603 4863 
L 1178 4863 
L 1178 4134 
L 603 4134 
L 603 4863 
z
" transform="scale(0.015625)"/>
      <path id="DejaVuSans-20" transform="scale(0.015625)"/>
      <path id="DejaVuSans-68" d="M 3513 2113 
L 3513 0 
L 2938 0 
L 2938 2094 
Q 2938 2591 2744 2837 
Q 2550 3084 2163 3084 
Q 1697 3084 1428 2787 
Q 1159 2491 1159 1978 
L 1159 0 
L 581 0 
L 581 4863 
L 1159 4863 
L 1159 2956 
Q 1366 3272 1645 3428 
Q 1925 3584 2291 3584 
Q 2894 3584 3203 3211 
Q 3513 2838 3513 2113 
z
" transform="scale(0.015625)"/>
      <path id="DejaVuSans-6f" d="M 1959 3097 
Q 1497 3097 1228 2736 
Q 959 2375 959 1747 
Q 959 1119 1226 758 
Q 1494 397 1959 397 
Q 2419 397 2687 759 
Q 2956 1122 2956 1747 
Q 2956 2369 2687 2733 
Q 2419 3097 1959 3097 
z
M 1959 3584 
Q 2709 3584 3137 3096 
Q 3566 2609 3566 1747 
Q 3566 888 3137 398 
Q 2709 -91 1959 -91 
Q 1206 -91 779 398 
Q 353 888 353 1747 
Q 353 2609 779 3096 
Q 1206 3584 1959 3584 
z
" transform="scale(0.015625)"/>
      <path id="DejaVuSans-79" d="M 2059 -325 
Q 1816 -950 1584 -1140 
Q 1353 -1331 966 -1331 
L 506 -1331 
L 506 -850 
L 844 -850 
Q 1081 -850 1212 -737 
Q 1344 -625 1503 -206 
L 1606 56 
L 191 3500 
L 800 3500 
L 1894 763 
L 2988 3500 
L 3597 3500 
L 2059 -325 
z
" transform="scale(0.015625)"/>
     </defs>
     <use xlink:href="#DejaVuSans-67"/>
     <use xlink:href="#DejaVuSans-65" transform="translate(63.476562 0)"/>
     <use xlink:href="#DejaVuSans-74" transform="translate(125 0)"/>
     <use xlink:href="#DejaVuSans-5f" transform="translate(164.208984 0)"/>
     <use xlink:href="#DejaVuSans-73" transform="translate(214.208984 0)"/>
     <use xlink:href="#DejaVuSans-75" transform="translate(266.308594 0)"/>
     <use xlink:href="#DejaVuSans-62" transform="translate(329.6875 0)"/>
     <use xlink:href="#DejaVuSans-73" transform="translate(393.164062 0)"/>
     <use xlink:href="#DejaVuSans-63" transform="translate(445.263672 0)"/>
     <use xlink:href="#DejaVuSans-72" transform="translate(500.244141 0)"/>
     <use xlink:href="#DejaVuSans-69" transform="translate(541.357422 0)"/>
     <use xlink:href="#DejaVuSans-62" transform="translate(569.140625 0)"/>
     <use xlink:href="#DejaVuSans-65" transform="translate(632.617188 0)"/>
     <use xlink:href="#DejaVuSans-20" transform="translate(694.140625 0)"/>
     <use xlink:href="#DejaVuSans-68" transform="translate(725.927734 0)"/>
     <use xlink:href="#DejaVuSans-69" transform="translate(789.306641 0)"/>
     <use xlink:href="#DejaVuSans-73" transform="translate(817.089844 0)"/>
     <use xlink:href="#DejaVuSans-74" transform="translate(869.189453 0)"/>
     <use xlink:href="#DejaVuSans-6f" transform="translate(908.398438 0)"/>
     <use xlink:href="#DejaVuSans-72" transform="translate(969.580078 0)"/>
     <use xlink:href="#DejaVuSans-79" transform="translate(1010.693359 0)"/>
    </g>
   </g>
   <g id="legend_1">
    <g id="line2d_39">
     <path d="M 815.08 328.498438 
L 825.08 328.498438 
L 835.08 328.498438 
" style="fill: none; stroke: #1f77b4; stroke-width: 1.5; stroke-linecap: square"/>
    </g>
    <g id="text_20">
     <!-- star -->
     <g style="fill: #a9a9a9" transform="translate(843.08 331.998438) scale(0.1 -0.1)">
      <defs>
       <path id="DejaVuSans-61" d="M 2194 1759 
Q 1497 1759 1228 1600 
Q 959 1441 959 1056 
Q 959 750 1161 570 
Q 1363 391 1709 391 
Q 2188 391 2477 730 
Q 2766 1069 2766 1631 
L 2766 1759 
L 2194 1759 
z
M 3341 1997 
L 3341 0 
L 2766 0 
L 2766 531 
Q 2569 213 2275 61 
Q 1981 -91 1556 -91 
Q 1019 -91 701 211 
Q 384 513 384 1019 
Q 384 1609 779 1909 
Q 1175 2209 1959 2209 
L 2766 2209 
L 2766 2266 
Q 2766 2663 2505 2880 
Q 2244 3097 1772 3097 
Q 1472 3097 1187 3025 
Q 903 2953 641 2809 
L 641 3341 
Q 956 3463 1253 3523 
Q 1550 3584 1831 3584 
Q 2591 3584 2966 3190 
Q 3341 2797 3341 1997 
z
" transform="scale(0.015625)"/>
      </defs>
      <use xlink:href="#DejaVuSans-73"/>
      <use xlink:href="#DejaVuSans-74" transform="translate(52.099609 0)"/>
      <use xlink:href="#DejaVuSans-61" transform="translate(91.308594 0)"/>
      <use xlink:href="#DejaVuSans-72" transform="translate(152.587891 0)"/>
     </g>
    </g>
    <g id="line2d_40">
     <path d="M 815.08 343.176562 
L 825.08 343.176562 
L 835.08 343.176562 
" style="fill: none; stroke: #ff7f0e; stroke-width: 1.5; stroke-linecap: square"/>
    </g>
    <g id="text_21">
     <!-- fork -->
     <g style="fill: #a9a9a9" transform="translate(843.08 346.676562) scale(0.1 -0.1)">
      <defs>
       <path id="DejaVuSans-66" d="M 2375 4863 
L 2375 4384 
L 1825 4384 
Q 1516 4384 1395 4259 
Q 1275 4134 1275 3809 
L 1275 3500 
L 2222 3500 
L 2222 3053 
L 1275 3053 
L 1275 0 
L 697 0 
L 697 3053 
L 147 3053 
L 147 3500 
L 697 3500 
L 697 3744 
Q 697 4328 969 4595 
Q 1241 4863 1831 4863 
L 2375 4863 
z
" transform="scale(0.015625)"/>
       <path id="DejaVuSans-6b" d="M 581 4863 
L 1159 4863 
L 1159 1991 
L 2875 3500 
L 3609 3500 
L 1753 1863 
L 3688 0 
L 2938 0 
L 1159 1709 
L 1159 0 
L 581 0 
L 581 4863 
z
" transform="scale(0.015625)"/>
      </defs>
      <use xlink:href="#DejaVuSans-66"/>
      <use xlink:href="#DejaVuSans-6f" transform="translate(35.205078 0)"/>
      <use xlink:href="#DejaVuSans-72" transform="translate(96.386719 0)"/>
      <use xlink:href="#DejaVuSans-6b" transform="translate(137.5 0)"/>
     </g>
    </g>
   </g>
  </g>
 </g>
 <defs>
  <clipPath id="p9a31e54f32">
   <rect x="108" y="43.2" width="669.6" height="277.2"/>
  </clipPath>
 </defs>
</svg>
