<?xml version="1.0" encoding="utf-8" standalone="no"?>
<!DOCTYPE svg PUBLIC "-//W3C//DTD SVG 1.1//EN"
  "http://www.w3.org/Graphics/SVG/1.1/DTD/svg11.dtd">
<svg xmlns:xlink="http://www.w3.org/1999/xlink" width="864pt" height="360pt" viewBox="0 0 864 360" xmlns="http://www.w3.org/2000/svg" version="1.1">
 <metadata>
  <rdf:RDF xmlns:dc="http://purl.org/dc/elements/1.1/" xmlns:cc="http://creativecommons.org/ns#" xmlns:rdf="http://www.w3.org/1999/02/22-rdf-syntax-ns#">
   <cc:Work>
    <dc:type rdf:resource="http://purl.org/dc/dcmitype/StillImage"/>
    <dc:date>2026-04-25T08:29:29.446969</dc:date>
    <dc:format>image/svg+xml</dc:format>
    <dc:creator>
     <cc:Agent>
      <dc:title>Matplotlib v3.10.9, https://matplotlib.org/</dc:title>
     </cc:Agent>
    </dc:creator>
   </cc:Work>
  </rdf:RDF>
 </metadata>
 <defs>
  <style type="text/css">*{stroke-linejoin: round; stroke-linecap: butt}</style>
 </defs>
 <g id="figure_1">
  <g id="patch_1">
   <path d="M 0 360 
L 864 360 
L 864 0 
L 0 0 
L 0 360 
z
" style="fill: none; opacity: 0"/>
  </g>
  <g id="axes_1">
   <g id="patch_2">
    <path d="M 108 320.4 
L 777.6 320.4 
L 777.6 43.2 
L 108 43.2 
L 108 320.4 
z
" style="fill: none; opacity: 0"/>
   </g>
   <g id="matplotlib.axis_1">
    <g id="xtick_1">
     <g id="line2d_1">
      <path d="M 194.890909 320.4 
L 194.890909 43.2 
" clip-path="url(#p58c6c7a5bf)" style="fill: none; stroke-dasharray: 5.12,1.28,0.8,1.28; stroke-dashoffset: 0; stroke: #b0b0b0; stroke-width: 0.8"/>
     </g>
     <g id="line2d_2">
      <defs>
       <path id="m447f17bc93" d="M 0 0 
L 0 3.5 
" style="stroke: #a9a9a9; stroke-width: 0.8"/>
      </defs>
      <g>
       <use xlink:href="#m447f17bc93" x="194.890909" y="320.4" style="fill: #a9a9a9; stroke: #a9a9a9; stroke-width: 0.8"/>
      </g>
     </g>
     <g id="text_1">
      <!-- 2022 -->
      <g style="fill: #a9a9a9" transform="translate(182.165909 334.998438) scale(0.1 -0.1)">
       <defs>
        <path id="DejaVuSans-32" d="M 1228 531 
L 3431 531 
L 3431 0 
L 469 0 
L 469 531 
Q 828 903 1448 1529 
Q 2069 2156 2228 2338 
Q 2531 2678 2651 2914 
Q 2772 3150 2772 3378 
Q 2772 3750 2511 3984 
Q 2250 4219 1831 4219 
Q 1534 4219 1204 4116 
Q 875 4013 500 3803 
L 500 4441 
Q 881 4594 1212 4672 
Q 1544 4750 1819 4750 
Q 2544 4750 2975 4387 
Q 3406 4025 3406 3419 
Q 3406 3131 3298 2873 
Q 3191 2616 2906 2266 
Q 2828 2175 2409 1742 
Q 1991 1309 1228 531 
z
" transform="scale(0.015625)"/>
        <path id="DejaVuSans-30" d="M 2034 4250 
Q 1547 4250 1301 3770 
Q 1056 3291 1056 2328 
Q 1056 1369 1301 889 
Q 1547 409 2034 409 
Q 2525 409 2770 889 
Q 3016 1369 3016 2328 
Q 3016 3291 2770 3770 
Q 2525 4250 2034 4250 
z
M 2034 4750 
Q 2819 4750 3233 4129 
Q 3647 3509 3647 2328 
Q 3647 1150 3233 529 
Q 2819 -91 2034 -91 
Q 1250 -91 836 529 
Q 422 1150 422 2328 
Q 422 3509 836 4129 
Q 1250 4750 2034 4750 
z
" transform="scale(0.015625)"/>
       </defs>
       <use xlink:href="#DejaVuSans-32"/>
       <use xlink:href="#DejaVuSans-30" transform="translate(63.623047 0)"/>
       <use xlink:href="#DejaVuSans-32" transform="translate(127.246094 0)"/>
       <use xlink:href="#DejaVuSans-32" transform="translate(190.869141 0)"/>
      </g>
     </g>
    </g>
    <g id="xtick_2">
     <g id="line2d_3">
      <path d="M 322.877922 320.4 
L 322.877922 43.2 
" clip-path="url(#p58c6c7a5bf)" style="fill: none; stroke-dasharray: 5.12,1.28,0.8,1.28; stroke-dashoffset: 0; stroke: #b0b0b0; stroke-width: 0.8"/>
     </g>
     <g id="line2d_4">
      <g>
       <use xlink:href="#m447f17bc93" x="322.877922" y="320.4" style="fill: #a9a9a9; stroke: #a9a9a9; stroke-width: 0.8"/>
      </g>
     </g>
     <g id="text_2">
      <!-- 2023 -->
      <g style="fill: #a9a9a9" transform="translate(310.152922 334.998438) scale(0.1 -0.1)">
       <defs>
        <path id="DejaVuSans-33" d="M 2597 2516 
Q 3050 2419 3304 2112 
Q 3559 1806 3559 1356 
Q 3559 666 3084 287 
Q 2609 -91 1734 -91 
Q 1441 -91 1130 -33 
Q 819 25 488 141 
L 488 750 
Q 750 597 1062 519 
Q 1375 441 1716 441 
Q 2309 441 2620 675 
Q 2931 909 2931 1356 
Q 2931 1769 2642 2001 
Q 2353 2234 1838 2234 
L 1294 2234 
L 1294 2753 
L 1863 2753 
Q 2328 2753 2575 2939 
Q 2822 3125 2822 3475 
Q 2822 3834 2567 4026 
Q 2313 4219 1838 4219 
Q 1578 4219 1281 4162 
Q 984 4106 628 3988 
L 628 4550 
Q 988 4650 1302 4700 
Q 1616 4750 1894 4750 
Q 2613 4750 3031 4423 
Q 3450 4097 3450 3541 
Q 3450 3153 3228 2886 
Q 3006 2619 2597 2516 
z
" transform="scale(0.015625)"/>
       </defs>
       <use xlink:href="#DejaVuSans-32"/>
       <use xlink:href="#DejaVuSans-30" transform="translate(63.623047 0)"/>
       <use xlink:href="#DejaVuSans-32" transform="translate(127.246094 0)"/>
       <use xlink:href="#DejaVuSans-33" transform="translate(190.869141 0)"/>
      </g>
     </g>
    </g>
    <g id="xtick_3">
     <g id="line2d_5">
      <path d="M 450.864935 320.4 
L 450.864935 43.2 
" clip-path="url(#p58c6c7a5bf)" style="fill: none; stroke-dasharray: 5.12,1.28,0.8,1.28; stroke-dashoffset: 0; stroke: #b0b0b0; stroke-width: 0.8"/>
     </g>
     <g id="line2d_6">
      <g>
       <use xlink:href="#m447f17bc93" x="450.864935" y="320.4" style="fill: #a9a9a9; stroke: #a9a9a9; stroke-width: 0.8"/>
      </g>
     </g>
     <g id="text_3">
      <!-- 2024 -->
      <g style="fill: #a9a9a9" transform="translate(438.139935 334.998438) scale(0.1 -0.1)">
       <defs>
        <path id="DejaVuSans-34" d="M 2419 4116 
L 825 1625 
L 2419 1625 
L 2419 4116 
z
M 2253 4666 
L 3047 4666 
L 3047 1625 
L 3713 1625 
L 3713 1100 
L 3047 1100 
L 3047 0 
L 2419 0 
L 2419 1100 
L 313 1100 
L 313 1709 
L 2253 4666 
z
" transform="scale(0.015625)"/>
       </defs>
       <use xlink:href="#DejaVuSans-32"/>
       <use xlink:href="#DejaVuSans-30" transform="translate(63.623047 0)"/>
       <use xlink:href="#DejaVuSans-32" transform="translate(127.246094 0)"/>
       <use xlink:href="#DejaVuSans-34" transform="translate(190.869141 0)"/>
      </g>
     </g>
    </g>
    <g id="xtick_4">
     <g id="line2d_7">
      <path d="M 579.202597 320.4 
L 579.202597 43.2 
" clip-path="url(#p58c6c7a5bf)" style="fill: none; stroke-dasharray: 5.12,1.28,0.8,1.28; stroke-dashoffset: 0; stroke: #b0b0b0; stroke-width: 0.8"/>
     </g>
     <g id="line2d_8">
      <g>
       <use xlink:href="#m447f17bc93" x="579.202597" y="320.4" style="fill: #a9a9a9; stroke: #a9a9a9; stroke-width: 0.8"/>
      </g>
     </g>
     <g id="text_4">
      <!-- 2025 -->
      <g style="fill: #a9a9a9" transform="translate(566.477597 334.998438) scale(0.1 -0.1)">
       <defs>
        <path id="DejaVuSans-35" d="M 691 4666 
L 3169 4666 
L 3169 4134 
L 1269 4134 
L 1269 2991 
Q 1406 3038 1543 3061 
Q 1681 3084 1819 3084 
Q 2600 3084 3056 2656 
Q 3513 2228 3513 1497 
Q 3513 744 3044 326 
Q 2575 -91 1722 -91 
Q 1428 -91 1123 -41 
Q 819 9 494 109 
L 494 744 
Q 775 591 1075 516 
Q 1375 441 1709 441 
Q 2250 441 2565 725 
Q 2881 1009 2881 1497 
Q 2881 1984 2565 2268 
Q 2250 2553 1709 2553 
Q 1456 2553 1204 2497 
Q 953 2441 691 2322 
L 691 4666 
z
" transform="scale(0.015625)"/>
       </defs>
       <use xlink:href="#DejaVuSans-32"/>
       <use xlink:href="#DejaVuSans-30" transform="translate(63.623047 0)"/>
       <use xlink:href="#DejaVuSans-32" transform="translate(127.246094 0)"/>
       <use xlink:href="#DejaVuSans-35" transform="translate(190.869141 0)"/>
      </g>
     </g>
    </g>
    <g id="xtick_5">
     <g id="line2d_9">
      <path d="M 707.18961 320.4 
L 707.18961 43.2 
" clip-path="url(#p58c6c7a5bf)" style="fill: none; stroke-dasharray: 5.12,1.28,0.8,1.28; stroke-dashoffset: 0; stroke: #b0b0b0; stroke-width: 0.8"/>
     </g>
     <g id="line2d_10">
      <g>
       <use xlink:href="#m447f17bc93" x="707.18961" y="320.4" style="fill: #a9a9a9; stroke: #a9a9a9; stroke-width: 0.8"/>
      </g>
     </g>
     <g id="text_5">
      <!-- 2026 -->
      <g style="fill: #a9a9a9" transform="translate(694.46461 334.998438) scale(0.1 -0.1)">
       <defs>
        <path id="DejaVuSans-36" d="M 2113 2584 
Q 1688 2584 1439 2293 
Q 1191 2003 1191 1497 
Q 1191 994 1439 701 
Q 1688 409 2113 409 
Q 2538 409 2786 701 
Q 3034 994 3034 1497 
Q 3034 2003 2786 2293 
Q 2538 2584 2113 2584 
z
M 3366 4563 
L 3366 3988 
Q 3128 4100 2886 4159 
Q 2644 4219 2406 4219 
Q 1781 4219 1451 3797 
Q 1122 3375 1075 2522 
Q 1259 2794 1537 2939 
Q 1816 3084 2150 3084 
Q 2853 3084 3261 2657 
Q 3669 2231 3669 1497 
Q 3669 778 3244 343 
Q 2819 -91 2113 -91 
Q 1303 -91 875 529 
Q 447 1150 447 2328 
Q 447 3434 972 4092 
Q 1497 4750 2381 4750 
Q 2619 4750 2861 4703 
Q 3103 4656 3366 4563 
z
" transform="scale(0.015625)"/>
       </defs>
       <use xlink:href="#DejaVuSans-32"/>
       <use xlink:href="#DejaVuSans-30" transform="translate(63.623047 0)"/>
       <use xlink:href="#DejaVuSans-32" transform="translate(127.246094 0)"/>
       <use xlink:href="#DejaVuSans-36" transform="translate(190.869141 0)"/>
      </g>
     </g>
    </g>
   </g>
   <g id="matplotlib.axis_2">
    <g id="ytick_1">
     <g id="line2d_11">
      <path d="M 108 307.828305 
L 777.6 307.828305 
" clip-path="url(#p58c6c7a5bf)" style="fill: none; stroke-dasharray: 5.12,1.28,0.8,1.28; stroke-dashoffset: 0; stroke: #b0b0b0; stroke-width: 0.8"/>
     </g>
     <g id="line2d_12">
      <defs>
       <path id="me66f4d7759" d="M 0 0 
L -3.5 0 
" style="stroke: #a9a9a9; stroke-width: 0.8"/>
      </defs>
      <g>
       <use xlink:href="#me66f4d7759" x="108" y="307.828305" style="fill: #a9a9a9; stroke: #a9a9a9; stroke-width: 0.8"/>
      </g>
     </g>
     <g id="text_6">
      <!-- 0 -->
      <g style="fill: #a9a9a9" transform="translate(94.6375 311.627524) scale(0.1 -0.1)">
       <use xlink:href="#DejaVuSans-30"/>
      </g>
     </g>
    </g>
    <g id="ytick_2">
     <g id="line2d_13">
      <path d="M 108 279.523239 
L 777.6 279.523239 
" clip-path="url(#p58c6c7a5bf)" style="fill: none; stroke-dasharray: 5.12,1.28,0.8,1.28; stroke-dashoffset: 0; stroke: #b0b0b0; stroke-width: 0.8"/>
     </g>
     <g id="line2d_14">
      <g>
       <use xlink:href="#me66f4d7759" x="108" y="279.523239" style="fill: #a9a9a9; stroke: #a9a9a9; stroke-width: 0.8"/>
      </g>
     </g>
     <g id="text_7">
      <!-- 1000 -->
      <g style="fill: #a9a9a9" transform="translate(75.55 283.322458) scale(0.1 -0.1)">
       <defs>
        <path id="DejaVuSans-31" d="M 794 531 
L 1825 531 
L 1825 4091 
L 703 3866 
L 703 4441 
L 1819 4666 
L 2450 4666 
L 2450 531 
L 3481 531 
L 3481 0 
L 794 0 
L 794 531 
z
" transform="scale(0.015625)"/>
       </defs>
       <use xlink:href="#DejaVuSans-31"/>
       <use xlink:href="#DejaVuSans-30" transform="translate(63.623047 0)"/>
       <use xlink:href="#DejaVuSans-30" transform="translate(127.246094 0)"/>
       <use xlink:href="#DejaVuSans-30" transform="translate(190.869141 0)"/>
      </g>
     </g>
    </g>
    <g id="ytick_3">
     <g id="line2d_15">
      <path d="M 108 251.218174 
L 777.6 251.218174 
" clip-path="url(#p58c6c7a5bf)" style="fill: none; stroke-dasharray: 5.12,1.28,0.8,1.28; stroke-dashoffset: 0; stroke: #b0b0b0; stroke-width: 0.8"/>
     </g>
     <g id="line2d_16">
      <g>
       <use xlink:href="#me66f4d7759" x="108" y="251.218174" style="fill: #a9a9a9; stroke: #a9a9a9; stroke-width: 0.8"/>
      </g>
     </g>
     <g id="text_8">
      <!-- 2000 -->
      <g style="fill: #a9a9a9" transform="translate(75.55 255.017392) scale(0.1 -0.1)">
       <use xlink:href="#DejaVuSans-32"/>
       <use xlink:href="#DejaVuSans-30" transform="translate(63.623047 0)"/>
       <use xlink:href="#DejaVuSans-30" transform="translate(127.246094 0)"/>
       <use xlink:href="#DejaVuSans-30" transform="translate(190.869141 0)"/>
      </g>
     </g>
    </g>
    <g id="ytick_4">
     <g id="line2d_17">
      <path d="M 108 222.913108 
L 777.6 222.913108 
" clip-path="url(#p58c6c7a5bf)" style="fill: none; stroke-dasharray: 5.12,1.28,0.8,1.28; stroke-dashoffset: 0; stroke: #b0b0b0; stroke-width: 0.8"/>
     </g>
     <g id="line2d_18">
      <g>
       <use xlink:href="#me66f4d7759" x="108" y="222.913108" style="fill: #a9a9a9; stroke: #a9a9a9; stroke-width: 0.8"/>
      </g>
     </g>
     <g id="text_9">
      <!-- 3000 -->
      <g style="fill: #a9a9a9" transform="translate(75.55 226.712327) scale(0.1 -0.1)">
       <use xlink:href="#DejaVuSans-33"/>
       <use xlink:href="#DejaVuSans-30" transform="translate(63.623047 0)"/>
       <use xlink:href="#DejaVuSans-30" transform="translate(127.246094 0)"/>
       <use xlink:href="#DejaVuSans-30" transform="translate(190.869141 0)"/>
      </g>
     </g>
    </g>
    <g id="ytick_5">
     <g id="line2d_19">
      <path d="M 108 194.608042 
L 777.6 194.608042 
" clip-path="url(#p58c6c7a5bf)" style="fill: none; stroke-dasharray: 5.12,1.28,0.8,1.28; stroke-dashoffset: 0; stroke: #b0b0b0; stroke-width: 0.8"/>
     </g>
     <g id="line2d_20">
      <g>
       <use xlink:href="#me66f4d7759" x="108" y="194.608042" style="fill: #a9a9a9; stroke: #a9a9a9; stroke-width: 0.8"/>
      </g>
     </g>
     <g id="text_10">
      <!-- 4000 -->
      <g style="fill: #a9a9a9" transform="translate(75.55 198.407261) scale(0.1 -0.1)">
       <use xlink:href="#DejaVuSans-34"/>
       <use xlink:href="#DejaVuSans-30" transform="translate(63.623047 0)"/>
       <use xlink:href="#DejaVuSans-30" transform="translate(127.246094 0)"/>
       <use xlink:href="#DejaVuSans-30" transform="translate(190.869141 0)"/>
      </g>
     </g>
    </g>
    <g id="ytick_6">
     <g id="line2d_21">
      <path d="M 108 166.302977 
L 777.6 166.302977 
" clip-path="url(#p58c6c7a5bf)" style="fill: none; stroke-dasharray: 5.12,1.28,0.8,1.28; stroke-dashoffset: 0; stroke: #b0b0b0; stroke-width: 0.8"/>
     </g>
     <g id="line2d_22">
      <g>
       <use xlink:href="#me66f4d7759" x="108" y="166.302977" style="fill: #a9a9a9; stroke: #a9a9a9; stroke-width: 0.8"/>
      </g>
     </g>
     <g id="text_11">
      <!-- 5000 -->
      <g style="fill: #a9a9a9" transform="translate(75.55 170.102195) scale(0.1 -0.1)">
       <use xlink:href="#DejaVuSans-35"/>
       <use xlink:href="#DejaVuSans-30" transform="translate(63.623047 0)"/>
       <use xlink:href="#DejaVuSans-30" transform="translate(127.246094 0)"/>
       <use xlink:href="#DejaVuSans-30" transform="translate(190.869141 0)"/>
      </g>
     </g>
    </g>
    <g id="ytick_7">
     <g id="line2d_23">
      <path d="M 108 137.997911 
L 777.6 137.997911 
" clip-path="url(#p58c6c7a5bf)" style="fill: none; stroke-dasharray: 5.12,1.28,0.8,1.28; stroke-dashoffset: 0; stroke: #b0b0b0; stroke-width: 0.8"/>
     </g>
     <g id="line2d_24">
      <g>
       <use xlink:href="#me66f4d7759" x="108" y="137.997911" style="fill: #a9a9a9; stroke: #a9a9a9; stroke-width: 0.8"/>
      </g>
     </g>
     <g id="text_12">
      <!-- 6000 -->
      <g style="fill: #a9a9a9" transform="translate(75.55 141.79713) scale(0.1 -0.1)">
       <use xlink:href="#DejaVuSans-36"/>
       <use xlink:href="#DejaVuSans-30" transform="translate(63.623047 0)"/>
       <use xlink:href="#DejaVuSans-30" transform="translate(127.246094 0)"/>
       <use xlink:href="#DejaVuSans-30" transform="translate(190.869141 0)"/>
      </g>
     </g>
    </g>
    <g id="ytick_8">
     <g id="line2d_25">
      <path d="M 108 109.692845 
L 777.6 109.692845 
" clip-path="url(#p58c6c7a5bf)" style="fill: none; stroke-dasharray: 5.12,1.28,0.8,1.28; stroke-dashoffset: 0; stroke: #b0b0b0; stroke-width: 0.8"/>
     </g>
     <g id="line2d_26">
      <g>
       <use xlink:href="#me66f4d7759" x="108" y="109.692845" style="fill: #a9a9a9; stroke: #a9a9a9; stroke-width: 0.8"/>
      </g>
     </g>
     <g id="text_13">
      <!-- 7000 -->
      <g style="fill: #a9a9a9" transform="translate(75.55 113.492064) scale(0.1 -0.1)">
       <defs>
        <path id="DejaVuSans-37" d="M 525 4666 
L 3525 4666 
L 3525 4397 
L 1831 0 
L 1172 0 
L 2766 4134 
L 525 4134 
L 525 4666 
z
" transform="scale(0.015625)"/>
       </defs>
       <use xlink:href="#DejaVuSans-37"/>
       <use xlink:href="#DejaVuSans-30" transform="translate(63.623047 0)"/>
       <use xlink:href="#DejaVuSans-30" transform="translate(127.246094 0)"/>
       <use xlink:href="#DejaVuSans-30" transform="translate(190.869141 0)"/>
      </g>
     </g>
    </g>
    <g id="ytick_9">
     <g id="line2d_27">
      <path d="M 108 81.387779 
L 777.6 81.387779 
" clip-path="url(#p58c6c7a5bf)" style="fill: none; stroke-dasharray: 5.12,1.28,0.8,1.28; stroke-dashoffset: 0; stroke: #b0b0b0; stroke-width: 0.8"/>
     </g>
     <g id="line2d_28">
      <g>
       <use xlink:href="#me66f4d7759" x="108" y="81.387779" style="fill: #a9a9a9; stroke: #a9a9a9; stroke-width: 0.8"/>
      </g>
     </g>
     <g id="text_14">
      <!-- 8000 -->
      <g style="fill: #a9a9a9" transform="translate(75.55 85.186998) scale(0.1 -0.1)">
       <defs>
        <path id="DejaVuSans-38" d="M 2034 2216 
Q 1584 2216 1326 1975 
Q 1069 1734 1069 1313 
Q 1069 891 1326 650 
Q 1584 409 2034 409 
Q 2484 409 2743 651 
Q 3003 894 3003 1313 
Q 3003 1734 2745 1975 
Q 2488 2216 2034 2216 
z
M 1403 2484 
Q 997 2584 770 2862 
Q 544 3141 544 3541 
Q 544 4100 942 4425 
Q 1341 4750 2034 4750 
Q 2731 4750 3128 4425 
Q 3525 4100 3525 3541 
Q 3525 3141 3298 2862 
Q 3072 2584 2669 2484 
Q 3125 2378 3379 2068 
Q 3634 1759 3634 1313 
Q 3634 634 3220 271 
Q 2806 -91 2034 -91 
Q 1263 -91 848 271 
Q 434 634 434 1313 
Q 434 1759 690 2068 
Q 947 2378 1403 2484 
z
M 1172 3481 
Q 1172 3119 1398 2916 
Q 1625 2713 2034 2713 
Q 2441 2713 2670 2916 
Q 2900 3119 2900 3481 
Q 2900 3844 2670 4047 
Q 2441 4250 2034 4250 
Q 1625 4250 1398 4047 
Q 1172 3844 1172 3481 
z
" transform="scale(0.015625)"/>
       </defs>
       <use xlink:href="#DejaVuSans-38"/>
       <use xlink:href="#DejaVuSans-30" transform="translate(63.623047 0)"/>
       <use xlink:href="#DejaVuSans-30" transform="translate(127.246094 0)"/>
       <use xlink:href="#DejaVuSans-30" transform="translate(190.869141 0)"/>
      </g>
     </g>
    </g>
    <g id="ytick_10">
     <g id="line2d_29">
      <path d="M 108 53.082714 
L 777.6 53.082714 
" clip-path="url(#p58c6c7a5bf)" style="fill: none; stroke-dasharray: 5.12,1.28,0.8,1.28; stroke-dashoffset: 0; stroke: #b0b0b0; stroke-width: 0.8"/>
     </g>
     <g id="line2d_30">
      <g>
       <use xlink:href="#me66f4d7759" x="108" y="53.082714" style="fill: #a9a9a9; stroke: #a9a9a9; stroke-width: 0.8"/>
      </g>
     </g>
     <g id="text_15">
      <!-- 9000 -->
      <g style="fill: #a9a9a9" transform="translate(75.55 56.881932) scale(0.1 -0.1)">
       <defs>
        <path id="DejaVuSans-39" d="M 703 97 
L 703 672 
Q 941 559 1184 500 
Q 1428 441 1663 441 
Q 2288 441 2617 861 
Q 2947 1281 2994 2138 
Q 2813 1869 2534 1725 
Q 2256 1581 1919 1581 
Q 1219 1581 811 2004 
Q 403 2428 403 3163 
Q 403 3881 828 4315 
Q 1253 4750 1959 4750 
Q 2769 4750 3195 4129 
Q 3622 3509 3622 2328 
Q 3622 1225 3098 567 
Q 2575 -91 1691 -91 
Q 1453 -91 1209 -44 
Q 966 3 703 97 
z
M 1959 2075 
Q 2384 2075 2632 2365 
Q 2881 2656 2881 3163 
Q 2881 3666 2632 3958 
Q 2384 4250 1959 4250 
Q 1534 4250 1286 3958 
Q 1038 3666 1038 3163 
Q 1038 2656 1286 2365 
Q 1534 2075 1959 2075 
z
" transform="scale(0.015625)"/>
       </defs>
       <use xlink:href="#DejaVuSans-39"/>
       <use xlink:href="#DejaVuSans-30" transform="translate(63.623047 0)"/>
       <use xlink:href="#DejaVuSans-30" transform="translate(127.246094 0)"/>
       <use xlink:href="#DejaVuSans-30" transform="translate(190.869141 0)"/>
      </g>
     </g>
    </g>
   </g>
   <g id="line2d_31">
    <path d="M 138.436364 307.74339 
L 140.54026 307.545254 
L 140.890909 307.375424 
L 142.293506 307.177289 
L 143.696104 306.865933 
L 145.098701 306.639492 
L 146.150649 306.582882 
L 146.851948 306.299832 
L 147.202597 305.79034 
L 147.553247 305.535595 
L 147.903896 304.686443 
L 148.254545 304.629833 
L 148.955844 304.176952 
L 149.657143 303.639155 
L 151.05974 302.563563 
L 151.41039 302.422038 
L 152.111688 301.969156 
L 153.163636 301.43136 
L 153.514286 300.836954 
L 154.215584 300.270853 
L 154.916883 300.044412 
L 155.968831 299.874582 
L 158.072727 299.534921 
L 158.423377 299.36509 
L 160.877922 299.13865 
L 162.280519 298.770684 
L 165.085714 298.346108 
L 165.436364 298.147973 
L 165.787013 298.091362 
L 166.488312 297.836617 
L 168.942857 297.383736 
L 169.644156 297.157295 
L 172.8 296.591194 
L 173.501299 296.421364 
L 174.903896 296.223228 
L 175.605195 295.996788 
L 175.955844 295.458991 
L 177.007792 295.00611 
L 178.05974 294.694755 
L 178.41039 294.496619 
L 179.111688 294.355094 
L 180.864935 293.902213 
L 181.916883 293.647467 
L 183.319481 293.279501 
L 183.67013 293.251196 
L 184.371429 292.911535 
L 184.722078 292.854925 
L 185.072727 292.65679 
L 189.631169 291.835943 
L 191.033766 291.184926 
L 191.735065 290.986791 
L 192.436364 290.675435 
L 193.137662 290.165944 
L 194.18961 289.939504 
L 198.748052 288.552555 
L 199.098701 288.495945 
L 200.501299 287.901539 
L 200.851948 287.844929 
L 201.553247 287.533573 
L 202.254545 287.505268 
L 203.306494 287.165607 
L 203.657143 287.165607 
L 204.007792 286.995777 
L 204.709091 286.910862 
L 205.05974 286.769336 
L 206.812987 286.684421 
L 207.163636 286.599506 
L 207.864935 286.203235 
L 208.916883 285.806964 
L 209.618182 285.410693 
L 210.67013 284.929507 
L 212.072727 284.22188 
L 212.423377 283.825609 
L 213.124675 282.636797 
L 214.176623 282.297136 
L 214.527273 282.014085 
L 215.579221 281.617814 
L 215.92987 281.249848 
L 216.981818 280.796967 
L 217.332468 280.598832 
L 219.436364 278.051376 
L 220.137662 277.711715 
L 221.54026 276.692733 
L 222.241558 276.183242 
L 222.592208 275.645445 
L 222.942857 274.767988 
L 223.293506 274.201887 
L 225.397403 272.475278 
L 226.449351 271.512906 
L 227.150649 270.578839 
L 228.202597 269.786297 
L 229.605195 268.880535 
L 230.306494 268.484264 
L 231.709091 267.691722 
L 233.462338 265.936808 
L 234.163636 265.625452 
L 234.864935 265.115961 
L 235.215584 264.88952 
L 235.566234 264.83291 
L 236.618182 264.210199 
L 236.968831 263.785623 
L 238.722078 262.76664 
L 239.072727 262.625115 
L 240.124675 261.832573 
L 245.384416 259.794609 
L 246.085714 259.086982 
L 247.137662 258.520881 
L 247.838961 258.039694 
L 248.54026 257.813254 
L 248.890909 257.558508 
L 249.241558 257.445288 
L 250.293506 256.681051 
L 252.397403 256.05834 
L 253.098701 255.605459 
L 254.150649 255.350713 
L 254.501299 255.265798 
L 255.553247 254.473256 
L 256.955844 254.04868 
L 257.657143 253.624104 
L 258.358442 253.312749 
L 259.41039 252.973088 
L 260.111688 252.831562 
L 260.812987 252.520207 
L 263.267532 251.557834 
L 263.968831 251.472919 
L 265.371429 250.906818 
L 269.228571 248.840548 
L 269.92987 248.500887 
L 270.631169 248.161227 
L 271.332468 248.019701 
L 272.033766 247.56682 
L 272.735065 247.368685 
L 273.787013 246.915804 
L 275.18961 246.717668 
L 275.890909 246.321397 
L 276.241558 245.981736 
L 276.592208 245.302415 
L 277.994805 244.877839 
L 279.397403 244.198517 
L 282.553247 242.698349 
L 283.254545 242.528518 
L 284.306494 241.962417 
L 284.657143 241.905807 
L 286.41039 240.943435 
L 287.111688 240.462249 
L 288.163636 240.235808 
L 291.319481 239.103606 
L 292.722078 238.480894 
L 293.072727 238.197843 
L 293.423377 238.084623 
L 294.124675 237.660047 
L 295.877922 236.980726 
L 297.981818 235.367337 
L 298.332468 235.310727 
L 298.683117 234.688015 
L 299.033766 234.54649 
L 299.384416 234.235134 
L 299.735065 234.178524 
L 300.436364 233.697338 
L 301.137662 233.442592 
L 301.838961 233.018016 
L 303.592208 231.857509 
L 305.696104 230.866831 
L 306.046753 230.215815 
L 306.748052 229.649714 
L 307.449351 229.366663 
L 307.8 229.111917 
L 308.150649 229.027002 
L 308.851948 228.659036 
L 310.254545 227.923105 
L 310.955844 227.272088 
L 311.657143 226.649377 
L 312.358442 226.196496 
L 313.05974 225.517174 
L 313.761039 224.922768 
L 314.111688 224.752937 
L 314.812987 223.9887 
L 315.864935 223.479209 
L 316.566234 223.054633 
L 316.916883 222.941413 
L 317.267532 222.658362 
L 317.618182 222.601752 
L 320.774026 220.903448 
L 321.475325 220.705313 
L 322.877922 220.224127 
L 323.579221 219.742941 
L 324.981818 219.205144 
L 325.683117 218.752263 
L 326.384416 218.469213 
L 327.085714 217.931416 
L 327.787013 216.459553 
L 328.488312 215.610401 
L 329.54026 215.0443 
L 330.241558 214.732944 
L 330.592208 214.676334 
L 331.293506 214.336673 
L 333.046753 213.685657 
L 333.748052 213.20447 
L 334.8 212.751589 
L 336.202597 211.874132 
L 336.553247 211.619387 
L 337.254545 210.940065 
L 338.306494 210.402269 
L 339.007792 209.977693 
L 340.41039 209.156846 
L 340.761039 209.071931 
L 341.111688 208.78888 
L 343.566234 207.939728 
L 343.916883 207.684983 
L 344.618182 207.458542 
L 348.475325 205.505493 
L 349.176623 204.911086 
L 349.877922 204.712951 
L 350.228571 204.37329 
L 350.579221 204.31668 
L 351.280519 203.750578 
L 353.033766 202.646681 
L 353.735065 202.42024 
L 354.085714 202.1938 
L 354.436364 202.13719 
L 356.54026 201.203123 
L 360.748052 199.844479 
L 361.8 199.080243 
L 362.501299 198.683972 
L 363.903896 197.976345 
L 364.955844 197.240413 
L 365.657143 197.070583 
L 366.709091 196.391261 
L 369.864935 195.259059 
L 370.566234 195.004313 
L 371.968831 194.692957 
L 372.67013 194.466517 
L 374.423377 193.843805 
L 375.475325 193.504145 
L 376.176623 193.334314 
L 378.280519 192.938043 
L 378.981818 192.796518 
L 380.033766 192.541772 
L 380.384416 192.371942 
L 381.085714 192.230417 
L 381.787013 192.032281 
L 382.488312 191.69262 
L 382.838961 191.551095 
L 383.18961 191.551095 
L 388.449351 189.796181 
L 388.8 189.39991 
L 390.903896 188.465843 
L 392.306494 187.956352 
L 392.657143 187.729911 
L 394.41039 187.192115 
L 394.761039 186.937369 
L 395.111688 186.852454 
L 395.462338 186.541099 
L 396.514286 186.314658 
L 397.215584 185.974997 
L 397.566234 185.522116 
L 408.436364 182.80483 
L 409.838961 182.351949 
L 411.241558 181.899068 
L 411.942857 181.587712 
L 412.644156 181.304661 
L 412.994805 181.049916 
L 414.748052 180.51212 
L 416.150649 179.861103 
L 417.553247 179.691273 
L 425.618182 176.521105 
L 427.371429 176.011614 
L 428.072727 175.643648 
L 429.124675 175.388903 
L 430.527273 174.171785 
L 432.981818 173.067887 
L 435.436364 171.96399 
L 436.488312 171.596024 
L 437.54026 171.058228 
L 440.345455 169.586364 
L 441.046753 169.246703 
L 441.397403 168.963653 
L 442.449351 168.510772 
L 443.851948 167.77484 
L 445.254545 167.208739 
L 447.709091 166.274671 
L 448.41039 166.189756 
L 448.761039 165.935011 
L 450.163636 165.65196 
L 450.864935 165.340604 
L 452.618182 164.463147 
L 457.176623 162.340267 
L 458.228571 161.972301 
L 458.579221 161.717556 
L 459.280519 161.632641 
L 459.631169 161.4062 
L 460.332468 161.29298 
L 464.18961 159.821116 
L 466.293506 159.198405 
L 467.345455 158.745524 
L 468.046753 158.349253 
L 469.449351 157.585016 
L 470.150649 157.415186 
L 470.501299 157.188745 
L 470.851948 157.132135 
L 472.605195 156.226373 
L 477.163636 154.443154 
L 477.514286 154.386544 
L 478.916883 153.678917 
L 479.618182 153.537392 
L 480.319481 153.112816 
L 481.722078 152.405189 
L 488.384416 149.602988 
L 489.085714 148.895361 
L 490.137662 148.357565 
L 491.18961 148.046209 
L 491.54026 147.763158 
L 492.241558 147.508413 
L 493.293506 146.772481 
L 493.994805 146.574346 
L 494.696104 146.178075 
L 495.748052 145.923329 
L 502.41039 143.149433 
L 503.111688 142.838077 
L 505.215584 142.045535 
L 506.968831 141.139773 
L 507.67013 140.913333 
L 508.020779 140.573672 
L 509.072727 140.149096 
L 509.423377 140.092486 
L 510.825974 139.413164 
L 511.877922 139.073503 
L 512.92987 138.677232 
L 513.981818 138.365877 
L 514.332468 138.309267 
L 515.033766 137.912996 
L 515.384416 137.77147 
L 515.735065 137.48842 
L 516.787013 137.205369 
L 517.488312 136.922318 
L 518.18961 136.610963 
L 519.592208 136.016556 
L 522.046753 135.393845 
L 522.748052 135.110794 
L 526.955844 134.035202 
L 529.05974 132.733169 
L 530.111688 132.110457 
L 532.215584 131.431136 
L 532.916883 131.00656 
L 535.371429 130.129103 
L 536.423377 129.789442 
L 537.124675 129.393171 
L 537.825974 129.195035 
L 538.176623 128.9969 
L 538.877922 128.855375 
L 540.631169 128.034528 
L 541.332468 127.751477 
L 542.735065 127.185376 
L 543.085714 126.845715 
L 543.436364 126.789105 
L 544.838961 126.194698 
L 546.241558 125.826733 
L 546.592208 125.798427 
L 546.942857 125.628597 
L 547.644156 125.487072 
L 550.8 124.496394 
L 551.501299 123.930293 
L 552.903896 123.109446 
L 553.955844 122.769785 
L 557.111688 121.184702 
L 557.462338 120.901651 
L 559.566234 120.27894 
L 560.267532 119.995889 
L 561.319481 119.627923 
L 561.67013 119.316567 
L 564.124675 118.410805 
L 565.176623 117.929619 
L 565.527273 117.901314 
L 566.228571 117.618264 
L 567.631169 116.995552 
L 570.436364 116.20301 
L 571.488312 115.721824 
L 576.046753 114.165045 
L 577.098701 113.74047 
L 578.851948 113.230978 
L 579.202597 113.202673 
L 580.254545 112.778097 
L 580.955844 112.608267 
L 581.306494 112.381826 
L 582.007792 112.240301 
L 586.215584 110.994878 
L 587.968831 110.485387 
L 588.319481 110.315557 
L 588.67013 110.315557 
L 589.722078 110.060811 
L 590.423377 109.919286 
L 591.124675 109.72115 
L 592.176623 109.155049 
L 593.579221 108.702168 
L 598.137662 106.975559 
L 599.18961 106.607593 
L 600.942857 105.645221 
L 601.644156 105.560306 
L 604.098701 104.852679 
L 605.150649 104.626238 
L 607.955844 103.607256 
L 612.514286 101.824037 
L 613.215584 101.710817 
L 613.916883 101.569291 
L 614.267532 101.569291 
L 615.319481 101.22963 
L 617.072727 100.720139 
L 618.475325 100.238953 
L 623.033766 99.106751 
L 624.085714 98.597259 
L 625.488312 98.144378 
L 630.397403 96.64421 
L 630.748052 96.615905 
L 631.8 96.219634 
L 632.501299 96.106414 
L 634.955844 95.172346 
L 637.41039 94.69116 
L 639.163636 94.181669 
L 639.514286 94.011839 
L 640.215584 93.389127 
L 643.371429 92.143704 
L 644.072727 92.030484 
L 646.877922 91.096417 
L 647.92987 90.502011 
L 648.280519 90.417095 
L 648.631169 90.134045 
L 649.683117 89.822689 
L 651.085714 89.256588 
L 652.137662 88.747096 
L 652.838961 88.32252 
L 653.18961 88.237605 
L 653.890909 87.841334 
L 656.696104 86.822352 
L 657.046753 86.510996 
L 657.397403 86.454386 
L 658.098701 86.001505 
L 659.150649 85.690149 
L 660.553247 85.095743 
L 660.903896 85.067438 
L 662.657143 84.388116 
L 663.358442 84.246591 
L 664.05974 83.7371 
L 664.41039 83.7371 
L 665.812987 83.227609 
L 667.215584 82.944558 
L 668.618182 82.321847 
L 668.968831 82.321847 
L 671.423377 81.585915 
L 672.124675 81.019814 
L 675.280519 79.859306 
L 676.683117 79.519645 
L 679.137662 78.840323 
L 681.241558 78.104392 
L 682.644156 77.793036 
L 685.098701 77.085409 
L 685.8 76.943884 
L 688.605195 75.896597 
L 689.306494 75.755071 
L 690.709091 75.500326 
L 691.41039 75.387105 
L 692.812987 74.821004 
L 693.514286 74.622869 
L 694.215584 74.509648 
L 695.618182 74.085072 
L 695.968831 74.085072 
L 696.67013 73.688802 
L 699.825974 72.83965 
L 709.293506 68.905245 
L 709.644156 68.678805 
L 709.994805 68.59389 
L 710.345455 68.367449 
L 710.696104 68.310839 
L 711.397403 67.886263 
L 713.501299 67.405077 
L 713.851948 67.150331 
L 717.709091 65.819993 
L 718.41039 65.452027 
L 719.812987 64.885926 
L 722.267532 64.206605 
L 722.968831 64.093384 
L 723.67013 64.008469 
L 725.423377 63.668808 
L 726.475325 63.102707 
L 726.825974 63.046097 
L 727.527273 62.734741 
L 728.579221 62.564911 
L 729.280519 62.22525 
L 734.54026 60.15898 
L 735.592208 59.904235 
L 737.696104 59.338133 
L 738.397403 59.309828 
L 740.851948 58.545591 
L 741.202597 58.262541 
L 741.553247 58.205931 
L 742.254545 57.894575 
L 742.605195 57.80966 
L 743.306494 57.413389 
L 746.812987 55.8 
L 747.163636 55.8 
L 747.163636 55.8 
" clip-path="url(#p58c6c7a5bf)" style="fill: none; stroke: #1f77b4; stroke-width: 1.5; stroke-linecap: square"/>
   </g>
   <g id="line2d_32">
    <path d="M 138.787013 307.8 
L 141.942857 307.715085 
L 144.748052 307.573559 
L 146.150649 307.573559 
L 146.851948 307.460339 
L 155.267532 306.865933 
L 158.072727 306.781018 
L 159.825974 306.724408 
L 164.384416 306.639492 
L 166.137662 306.582882 
L 169.293506 306.497967 
L 170.696104 306.469662 
L 174.202597 306.384747 
L 175.254545 306.271526 
L 178.41039 306.186611 
L 180.163636 306.130001 
L 182.267532 306.073391 
L 183.67013 305.931866 
L 186.825974 305.84695 
L 187.527273 305.79034 
L 188.92987 305.705425 
L 191.033766 305.62051 
L 192.436364 305.535595 
L 198.748052 305.111019 
L 201.202597 305.054409 
L 202.254545 304.941188 
L 204.007792 304.856273 
L 207.514286 304.658138 
L 211.020779 304.601528 
L 212.423377 304.460002 
L 214.176623 304.375087 
L 217.683117 304.007121 
L 219.787013 303.724071 
L 221.18961 303.66746 
L 223.994805 303.299495 
L 226.098701 303.242884 
L 227.150649 303.157969 
L 228.202597 303.073054 
L 246.436364 301.686106 
L 248.890909 301.601191 
L 250.293506 301.43136 
L 252.046753 301.346445 
L 254.150649 301.26153 
L 255.903896 301.176615 
L 257.306494 301.14831 
L 259.05974 301.091699 
L 259.761039 301.006784 
L 264.67013 300.921869 
L 265.371429 300.836954 
L 269.579221 300.752039 
L 272.735065 300.582208 
L 275.18961 300.497293 
L 276.942857 300.299158 
L 279.046753 300.214242 
L 280.098701 300.072717 
L 285.007792 299.987802 
L 286.41039 299.846277 
L 287.812987 299.817971 
L 288.864935 299.733056 
L 290.267532 299.591531 
L 293.774026 299.393395 
L 297.280519 299.30848 
L 300.436364 299.13865 
L 301.488312 299.110345 
L 302.18961 298.997125 
L 303.942857 298.940514 
L 304.644156 298.883904 
L 306.397403 298.798989 
L 307.8 298.770684 
L 310.254545 298.685769 
L 319.371429 298.034752 
L 321.475325 297.949837 
L 323.228571 297.893227 
L 328.137662 297.808312 
L 328.838961 297.723397 
L 333.748052 297.638481 
L 337.254545 297.440346 
L 337.955844 297.412041 
L 338.657143 297.327126 
L 340.41039 297.24221 
L 342.163636 297.1856 
L 343.916883 297.100685 
L 345.67013 297.044075 
L 348.825974 296.95916 
L 350.92987 296.874245 
L 355.838961 296.789329 
L 359.696104 296.562889 
L 361.098701 296.506279 
L 362.150649 296.421364 
L 367.05974 296.336448 
L 369.163636 296.251533 
L 380.384416 296.166618 
L 383.18961 296.025093 
L 391.254545 295.940177 
L 391.955844 295.883567 
L 397.916883 295.826957 
L 398.618182 295.770347 
L 414.046753 295.685432 
L 415.8 295.628822 
L 427.020779 295.543907 
L 431.579221 295.260856 
L 435.085714 295.175941 
L 435.787013 295.119331 
L 438.942857 295.034415 
L 439.644156 294.977805 
L 442.8 294.89289 
L 445.605195 294.751365 
L 452.267532 294.66645 
L 454.371429 294.581534 
L 458.228571 294.496619 
L 460.683117 294.383399 
L 463.137662 294.326789 
L 463.838961 294.270179 
L 472.254545 294.185263 
L 475.761039 293.987128 
L 478.566234 293.902213 
L 479.618182 293.760687 
L 483.124675 293.675772 
L 484.877922 293.619162 
L 488.384416 293.534247 
L 490.137662 293.336111 
L 493.644156 293.251196 
L 494.345455 293.166281 
L 497.851948 293.081366 
L 499.605195 293.024756 
L 503.462338 292.996451 
L 504.163636 292.911535 
L 508.020779 292.82662 
L 508.722078 292.77001 
L 516.436364 292.685095 
L 518.54026 292.60018 
L 523.8 292.515265 
L 525.202597 292.486959 
L 528.358442 292.458654 
L 529.05974 292.373739 
L 533.618182 292.288824 
L 535.371429 292.232214 
L 541.683117 292.175604 
L 542.735065 292.090689 
L 543.787013 292.005773 
L 544.838961 291.920858 
L 550.098701 291.835943 
L 552.202597 291.751028 
L 562.371429 291.666113 
L 565.527273 291.496282 
L 570.436364 291.411367 
L 571.838961 291.383062 
L 576.046753 291.298147 
L 577.8 291.241537 
L 585.864935 291.156621 
L 587.968831 291.071706 
L 593.92987 290.986791 
L 595.683117 290.930181 
L 598.838961 290.845266 
L 601.293506 290.732045 
L 605.150649 290.64713 
L 607.605195 290.53391 
L 610.761039 290.4773 
L 611.462338 290.42069 
L 619.176623 290.335774 
L 621.280519 290.250859 
L 623.735065 290.165944 
L 625.488312 290.109334 
L 635.657143 290.024419 
L 637.761039 289.939504 
L 643.722078 289.854588 
L 645.475325 289.797978 
L 650.033766 289.713063 
L 652.137662 289.628148 
L 654.942857 289.543233 
L 657.046753 289.458317 
L 671.072727 289.373402 
L 673.527273 289.260182 
L 681.942857 289.175267 
L 683.345455 289.146962 
L 691.761039 289.062047 
L 693.514286 289.005436 
L 704.735065 288.920521 
L 706.137662 288.892216 
L 716.657143 288.807301 
L 718.41039 288.750691 
L 728.92987 288.665776 
L 731.033766 288.58086 
L 744.358442 288.495945 
L 746.111688 288.439335 
L 747.163636 288.41103 
L 747.163636 288.41103 
" clip-path="url(#p58c6c7a5bf)" style="fill: none; stroke: #ff7f0e; stroke-width: 1.5; stroke-linecap: square"/>
   </g>
   <g id="patch_3">
    <path d="M 108 320.4 
L 108 43.2 
" style="fill: none; stroke: #a9a9a9; stroke-width: 0.8; stroke-linejoin: miter; stroke-linecap: square"/>
   </g>
   <g id="patch_4">
    <path d="M 777.6 320.4 
L 777.6 43.2 
" style="fill: none"/>
   </g>
   <g id="patch_5">
    <path d="M 108 320.4 
L 777.6 320.4 
" style="fill: none; stroke: #a9a9a9; stroke-width: 0.8; stroke-linejoin: miter; stroke-linecap: square"/>
   </g>
   <g id="patch_6">
    <path d="M 108 43.2 
L 777.6 43.2 
" style="fill: none"/>
   </g>
   <g id="text_16">
    <!-- get_subscribe history -->
    <g style="fill: #a9a9a9" transform="translate(378.6075 37.2) scale(0.12 -0.12)">
     <defs>
      <path id="DejaVuSans-67" d="M 2906 1791 
Q 2906 2416 2648 2759 
Q 2391 3103 1925 3103 
Q 1463 3103 1205 2759 
Q 947 2416 947 1791 
Q 947 1169 1205 825 
Q 1463 481 1925 481 
Q 2391 481 2648 825 
Q 2906 1169 2906 1791 
z
M 3481 434 
Q 3481 -459 3084 -895 
Q 2688 -1331 1869 -1331 
Q 1566 -1331 1297 -1286 
Q 1028 -1241 775 -1147 
L 775 -588 
Q 1028 -725 1275 -790 
Q 1522 -856 1778 -856 
Q 2344 -856 2625 -561 
Q 2906 -266 2906 331 
L 2906 616 
Q 2728 306 2450 153 
Q 2172 0 1784 0 
Q 1141 0 747 490 
Q 353 981 353 1791 
Q 353 2603 747 3093 
Q 1141 3584 1784 3584 
Q 2172 3584 2450 3431 
Q 2728 3278 2906 2969 
L 2906 3500 
L 3481 3500 
L 3481 434 
z
" transform="scale(0.015625)"/>
      <path id="DejaVuSans-65" d="M 3597 1894 
L 3597 1613 
L 953 1613 
Q 991 1019 1311 708 
Q 1631 397 2203 397 
Q 2534 397 2845 478 
Q 3156 559 3463 722 
L 3463 178 
Q 3153 47 2828 -22 
Q 2503 -91 2169 -91 
Q 1331 -91 842 396 
Q 353 884 353 1716 
Q 353 2575 817 3079 
Q 1281 3584 2069 3584 
Q 2775 3584 3186 3129 
Q 3597 2675 3597 1894 
z
M 3022 2063 
Q 3016 2534 2758 2815 
Q 2500 3097 2075 3097 
Q 1594 3097 1305 2825 
Q 1016 2553 972 2059 
L 3022 2063 
z
" transform="scale(0.015625)"/>
      <path id="DejaVuSans-74" d="M 1172 4494 
L 1172 3500 
L 2356 3500 
L 2356 3053 
L 1172 3053 
L 1172 1153 
Q 1172 725 1289 603 
Q 1406 481 1766 481 
L 2356 481 
L 2356 0 
L 1766 0 
Q 1100 0 847 248 
Q 594 497 594 1153 
L 594 3053 
L 172 3053 
L 172 3500 
L 594 3500 
L 594 4494 
L 1172 4494 
z
" transform="scale(0.015625)"/>
      <path id="DejaVuSans-5f" d="M 3263 -1063 
L 3263 -1509 
L -63 -1509 
L -63 -1063 
L 3263 -1063 
z
" transform="scale(0.015625)"/>
      <path id="DejaVuSans-73" d="M 2834 3397 
L 2834 2853 
Q 2591 2978 2328 3040 
Q 2066 3103 1784 3103 
Q 1356 3103 1142 2972 
Q 928 2841 928 2578 
Q 928 2378 1081 2264 
Q 1234 2150 1697 2047 
L 1894 2003 
Q 2506 1872 2764 1633 
Q 3022 1394 3022 966 
Q 3022 478 2636 193 
Q 2250 -91 1575 -91 
Q 1294 -91 989 -36 
Q 684 19 347 128 
L 347 722 
Q 666 556 975 473 
Q 1284 391 1588 391 
Q 1994 391 2212 530 
Q 2431 669 2431 922 
Q 2431 1156 2273 1281 
Q 2116 1406 1581 1522 
L 1381 1569 
Q 847 1681 609 1914 
Q 372 2147 372 2553 
Q 372 3047 722 3315 
Q 1072 3584 1716 3584 
Q 2034 3584 2315 3537 
Q 2597 3491 2834 3397 
z
" transform="scale(0.015625)"/>
      <path id="DejaVuSans-75" d="M 544 1381 
L 544 3500 
L 1119 3500 
L 1119 1403 
Q 1119 906 1312 657 
Q 1506 409 1894 409 
Q 2359 409 2629 706 
Q 2900 1003 2900 1516 
L 2900 3500 
L 3475 3500 
L 3475 0 
L 2900 0 
L 2900 538 
Q 2691 219 2414 64 
Q 2138 -91 1772 -91 
Q 1169 -91 856 284 
Q 544 659 544 1381 
z
M 1991 3584 
L 1991 3584 
z
" transform="scale(0.015625)"/>
      <path id="DejaVuSans-62" d="M 3116 1747 
Q 3116 2381 2855 2742 
Q 2594 3103 2138 3103 
Q 1681 3103 1420 2742 
Q 1159 2381 1159 1747 
Q 1159 1113 1420 752 
Q 1681 391 2138 391 
Q 2594 391 2855 752 
Q 3116 1113 3116 1747 
z
M 1159 2969 
Q 1341 3281 1617 3432 
Q 1894 3584 2278 3584 
Q 2916 3584 3314 3078 
Q 3713 2572 3713 1747 
Q 3713 922 3314 415 
Q 2916 -91 2278 -91 
Q 1894 -91 1617 61 
Q 1341 213 1159 525 
L 1159 0 
L 581 0 
L 581 4863 
L 1159 4863 
L 1159 2969 
z
" transform="scale(0.015625)"/>
      <path id="DejaVuSans-63" d="M 3122 3366 
L 3122 2828 
Q 2878 2963 2633 3030 
Q 2388 3097 2138 3097 
Q 1578 3097 1268 2742 
Q 959 2388 959 1747 
Q 959 1106 1268 751 
Q 1578 397 2138 397 
Q 2388 397 2633 464 
Q 2878 531 3122 666 
L 3122 134 
Q 2881 22 2623 -34 
Q 2366 -91 2075 -91 
Q 1284 -91 818 406 
Q 353 903 353 1747 
Q 353 2603 823 3093 
Q 1294 3584 2113 3584 
Q 2378 3584 2631 3529 
Q 2884 3475 3122 3366 
z
" transform="scale(0.015625)"/>
      <path id="DejaVuSans-72" d="M 2631 2963 
Q 2534 3019 2420 3045 
Q 2306 3072 2169 3072 
Q 1681 3072 1420 2755 
Q 1159 2438 1159 1844 
L 1159 0 
L 581 0 
L 581 3500 
L 1159 3500 
L 1159 2956 
Q 1341 3275 1631 3429 
Q 1922 3584 2338 3584 
Q 2397 3584 2469 3576 
Q 2541 3569 2628 3553 
L 2631 2963 
z
" transform="scale(0.015625)"/>
      <path id="DejaVuSans-69" d="M 603 3500 
L 1178 3500 
L 1178 0 
L 603 0 
L 603 3500 
z
M 603 4863 
L 1178 4863 
L 1178 4134 
L 603 4134 
L 603 4863 
z
" transform="scale(0.015625)"/>
      <path id="DejaVuSans-20" transform="scale(0.015625)"/>
      <path id="DejaVuSans-68" d="M 3513 2113 
L 3513 0 
L 2938 0 
L 2938 2094 
Q 2938 2591 2744 2837 
Q 2550 3084 2163 3084 
Q 1697 3084 1428 2787 
Q 1159 2491 1159 1978 
L 1159 0 
L 581 0 
L 581 4863 
L 1159 4863 
L 1159 2956 
Q 1366 3272 1645 3428 
Q 1925 3584 2291 3584 
Q 2894 3584 3203 3211 
Q 3513 2838 3513 2113 
z
" transform="scale(0.015625)"/>
      <path id="DejaVuSans-6f" d="M 1959 3097 
Q 1497 3097 1228 2736 
Q 959 2375 959 1747 
Q 959 1119 1226 758 
Q 1494 397 1959 397 
Q 2419 397 2687 759 
Q 2956 1122 2956 1747 
Q 2956 2369 2687 2733 
Q 2419 3097 1959 3097 
z
M 1959 3584 
Q 2709 3584 3137 3096 
Q 3566 2609 3566 1747 
Q 3566 888 3137 398 
Q 2709 -91 1959 -91 
Q 1206 -91 779 398 
Q 353 888 353 1747 
Q 353 2609 779 3096 
Q 1206 3584 1959 3584 
z
" transform="scale(0.015625)"/>
      <path id="DejaVuSans-79" d="M 2059 -325 
Q 1816 -950 1584 -1140 
Q 1353 -1331 966 -1331 
L 506 -1331 
L 506 -850 
L 844 -850 
Q 1081 -850 1212 -737 
Q 1344 -625 1503 -206 
L 1606 56 
L 191 3500 
L 800 3500 
L 1894 763 
L 2988 3500 
L 3597 3500 
L 2059 -325 
z
" transform="scale(0.015625)"/>
     </defs>
     <use xlink:href="#DejaVuSans-67"/>
     <use xlink:href="#DejaVuSans-65" transform="translate(63.476562 0)"/>
     <use xlink:href="#DejaVuSans-74" transform="translate(125 0)"/>
     <use xlink:href="#DejaVuSans-5f" transform="translate(164.208984 0)"/>
     <use xlink:href="#DejaVuSans-73" transform="translate(214.208984 0)"/>
     <use xlink:href="#DejaVuSans-75" transform="translate(266.308594 0)"/>
     <use xlink:href="#DejaVuSans-62" transform="translate(329.6875 0)"/>
     <use xlink:href="#DejaVuSans-73" transform="translate(393.164062 0)"/>
     <use xlink:href="#DejaVuSans-63" transform="translate(445.263672 0)"/>
     <use xlink:href="#DejaVuSans-72" transform="translate(500.244141 0)"/>
     <use xlink:href="#DejaVuSans-69" transform="translate(541.357422 0)"/>
     <use xlink:href="#DejaVuSans-62" transform="translate(569.140625 0)"/>
     <use xlink:href="#DejaVuSans-65" transform="translate(632.617188 0)"/>
     <use xlink:href="#DejaVuSans-20" transform="translate(694.140625 0)"/>
     <use xlink:href="#DejaVuSans-68" transform="translate(725.927734 0)"/>
     <use xlink:href="#DejaVuSans-69" transform="translate(789.306641 0)"/>
     <use xlink:href="#DejaVuSans-73" transform="translate(817.089844 0)"/>
     <use xlink:href="#DejaVuSans-74" transform="translate(869.189453 0)"/>
     <use xlink:href="#DejaVuSans-6f" transform="translate(908.398438 0)"/>
     <use xlink:href="#DejaVuSans-72" transform="translate(969.580078 0)"/>
     <use xlink:href="#DejaVuSans-79" transform="translate(1010.693359 0)"/>
    </g>
   </g>
   <g id="legend_1">
    <g id="line2d_33">
     <path d="M 815.08 328.498438 
L 825.08 328.498438 
L 835.08 328.498438 
" style="fill: none; stroke: #1f77b4; stroke-width: 1.5; stroke-linecap: square"/>
    </g>
    <g id="text_17">
     <!-- star -->
     <g style="fill: #a9a9a9" transform="translate(843.08 331.998438) scale(0.1 -0.1)">
      <defs>
       <path id="DejaVuSans-61" d="M 2194 1759 
Q 1497 1759 1228 1600 
Q 959 1441 959 1056 
Q 959 750 1161 570 
Q 1363 391 1709 391 
Q 2188 391 2477 730 
Q 2766 1069 2766 1631 
L 2766 1759 
L 2194 1759 
z
M 3341 1997 
L 3341 0 
L 2766 0 
L 2766 531 
Q 2569 213 2275 61 
Q 1981 -91 1556 -91 
Q 1019 -91 701 211 
Q 384 513 384 1019 
Q 384 1609 779 1909 
Q 1175 2209 1959 2209 
L 2766 2209 
L 2766 2266 
Q 2766 2663 2505 2880 
Q 2244 3097 1772 3097 
Q 1472 3097 1187 3025 
Q 903 2953 641 2809 
L 641 3341 
Q 956 3463 1253 3523 
Q 1550 3584 1831 3584 
Q 2591 3584 2966 3190 
Q 3341 2797 3341 1997 
z
" transform="scale(0.015625)"/>
      </defs>
      <use xlink:href="#DejaVuSans-73"/>
      <use xlink:href="#DejaVuSans-74" transform="translate(52.099609 0)"/>
      <use xlink:href="#DejaVuSans-61" transform="translate(91.308594 0)"/>
      <use xlink:href="#DejaVuSans-72" transform="translate(152.587891 0)"/>
     </g>
    </g>
    <g id="line2d_34">
     <path d="M 815.08 343.176562 
L 825.08 343.176562 
L 835.08 343.176562 
" style="fill: none; stroke: #ff7f0e; stroke-width: 1.5; stroke-linecap: square"/>
    </g>
    <g id="text_18">
     <!-- fork -->
     <g style="fill: #a9a9a9" transform="translate(843.08 346.676562) scale(0.1 -0.1)">
      <defs>
       <path id="DejaVuSans-66" d="M 2375 4863 
L 2375 4384 
L 1825 4384 
Q 1516 4384 1395 4259 
Q 1275 4134 1275 3809 
L 1275 3500 
L 2222 3500 
L 2222 3053 
L 1275 3053 
L 1275 0 
L 697 0 
L 697 3053 
L 147 3053 
L 147 3500 
L 697 3500 
L 697 3744 
Q 697 4328 969 4595 
Q 1241 4863 1831 4863 
L 2375 4863 
z
" transform="scale(0.015625)"/>
       <path id="DejaVuSans-6b" d="M 581 4863 
L 1159 4863 
L 1159 1991 
L 2875 3500 
L 3609 3500 
L 1753 1863 
L 3688 0 
L 2938 0 
L 1159 1709 
L 1159 0 
L 581 0 
L 581 4863 
z
" transform="scale(0.015625)"/>
      </defs>
      <use xlink:href="#DejaVuSans-66"/>
      <use xlink:href="#DejaVuSans-6f" transform="translate(35.205078 0)"/>
      <use xlink:href="#DejaVuSans-72" transform="translate(96.386719 0)"/>
      <use xlink:href="#DejaVuSans-6b" transform="translate(137.5 0)"/>
     </g>
    </g>
   </g>
  </g>
 </g>
 <defs>
  <clipPath id="p58c6c7a5bf">
   <rect x="108" y="43.2" width="669.6" height="277.2"/>
  </clipPath>
 </defs>
</svg>
