<?xml version="1.0" encoding="utf-8" standalone="no"?>
<!DOCTYPE svg PUBLIC "-//W3C//DTD SVG 1.1//EN"
  "http://www.w3.org/Graphics/SVG/1.1/DTD/svg11.dtd">
<svg xmlns:xlink="http://www.w3.org/1999/xlink" width="864pt" height="360pt" viewBox="0 0 864 360" xmlns="http://www.w3.org/2000/svg" version="1.1">
 <metadata>
  <rdf:RDF xmlns:dc="http://purl.org/dc/elements/1.1/" xmlns:cc="http://creativecommons.org/ns#" xmlns:rdf="http://www.w3.org/1999/02/22-rdf-syntax-ns#">
   <cc:Work>
    <dc:type rdf:resource="http://purl.org/dc/dcmitype/StillImage"/>
    <dc:date>2025-07-18T20:07:22.270908</dc:date>
    <dc:format>image/svg+xml</dc:format>
    <dc:creator>
     <cc:Agent>
      <dc:title>Matplotlib v3.10.3, https://matplotlib.org/</dc:title>
     </cc:Agent>
    </dc:creator>
   </cc:Work>
  </rdf:RDF>
 </metadata>
 <defs>
  <style type="text/css">*{stroke-linejoin: round; stroke-linecap: butt}</style>
 </defs>
 <g id="figure_1">
  <g id="patch_1">
   <path d="M 0 360 
L 864 360 
L 864 0 
L 0 0 
L 0 360 
z
" style="fill: none; opacity: 0"/>
  </g>
  <g id="axes_1">
   <g id="patch_2">
    <path d="M 108 320.4 
L 777.6 320.4 
L 777.6 43.2 
L 108 43.2 
L 108 320.4 
z
" style="fill: none; opacity: 0"/>
   </g>
   <g id="matplotlib.axis_1">
    <g id="xtick_1">
     <g id="line2d_1">
      <path d="M 128.813871 320.4 
L 128.813871 43.2 
" clip-path="url(#pbedcccdc79)" style="fill: none; stroke-dasharray: 5.12,1.28,0.8,1.28; stroke-dashoffset: 0; stroke: #b0b0b0; stroke-width: 0.8"/>
     </g>
     <g id="line2d_2">
      <defs>
       <path id="m38f2812e5d" d="M 0 0 
L 0 3.5 
" style="stroke: #a9a9a9; stroke-width: 0.8"/>
      </defs>
      <g>
       <use xlink:href="#m38f2812e5d" x="128.813871" y="320.4" style="fill: #a9a9a9; stroke: #a9a9a9; stroke-width: 0.8"/>
      </g>
     </g>
     <g id="text_1">
      <!-- 2021-07 -->
      <g style="fill: #a9a9a9" transform="translate(107.922464 334.998438) scale(0.1 -0.1)">
       <defs>
        <path id="DejaVuSans-32" d="M 1228 531 
L 3431 531 
L 3431 0 
L 469 0 
L 469 531 
Q 828 903 1448 1529 
Q 2069 2156 2228 2338 
Q 2531 2678 2651 2914 
Q 2772 3150 2772 3378 
Q 2772 3750 2511 3984 
Q 2250 4219 1831 4219 
Q 1534 4219 1204 4116 
Q 875 4013 500 3803 
L 500 4441 
Q 881 4594 1212 4672 
Q 1544 4750 1819 4750 
Q 2544 4750 2975 4387 
Q 3406 4025 3406 3419 
Q 3406 3131 3298 2873 
Q 3191 2616 2906 2266 
Q 2828 2175 2409 1742 
Q 1991 1309 1228 531 
z
" transform="scale(0.015625)"/>
        <path id="DejaVuSans-30" d="M 2034 4250 
Q 1547 4250 1301 3770 
Q 1056 3291 1056 2328 
Q 1056 1369 1301 889 
Q 1547 409 2034 409 
Q 2525 409 2770 889 
Q 3016 1369 3016 2328 
Q 3016 3291 2770 3770 
Q 2525 4250 2034 4250 
z
M 2034 4750 
Q 2819 4750 3233 4129 
Q 3647 3509 3647 2328 
Q 3647 1150 3233 529 
Q 2819 -91 2034 -91 
Q 1250 -91 836 529 
Q 422 1150 422 2328 
Q 422 3509 836 4129 
Q 1250 4750 2034 4750 
z
" transform="scale(0.015625)"/>
        <path id="DejaVuSans-31" d="M 794 531 
L 1825 531 
L 1825 4091 
L 703 3866 
L 703 4441 
L 1819 4666 
L 2450 4666 
L 2450 531 
L 3481 531 
L 3481 0 
L 794 0 
L 794 531 
z
" transform="scale(0.015625)"/>
        <path id="DejaVuSans-2d" d="M 313 2009 
L 1997 2009 
L 1997 1497 
L 313 1497 
L 313 2009 
z
" transform="scale(0.015625)"/>
        <path id="DejaVuSans-37" d="M 525 4666 
L 3525 4666 
L 3525 4397 
L 1831 0 
L 1172 0 
L 2766 4134 
L 525 4134 
L 525 4666 
z
" transform="scale(0.015625)"/>
       </defs>
       <use xlink:href="#DejaVuSans-32"/>
       <use xlink:href="#DejaVuSans-30" transform="translate(63.623047 0)"/>
       <use xlink:href="#DejaVuSans-32" transform="translate(127.246094 0)"/>
       <use xlink:href="#DejaVuSans-31" transform="translate(190.869141 0)"/>
       <use xlink:href="#DejaVuSans-2d" transform="translate(254.492188 0)"/>
       <use xlink:href="#DejaVuSans-30" transform="translate(290.576172 0)"/>
       <use xlink:href="#DejaVuSans-37" transform="translate(354.199219 0)"/>
      </g>
     </g>
    </g>
    <g id="xtick_2">
     <g id="line2d_3">
      <path d="M 205.793814 320.4 
L 205.793814 43.2 
" clip-path="url(#pbedcccdc79)" style="fill: none; stroke-dasharray: 5.12,1.28,0.8,1.28; stroke-dashoffset: 0; stroke: #b0b0b0; stroke-width: 0.8"/>
     </g>
     <g id="line2d_4">
      <g>
       <use xlink:href="#m38f2812e5d" x="205.793814" y="320.4" style="fill: #a9a9a9; stroke: #a9a9a9; stroke-width: 0.8"/>
      </g>
     </g>
     <g id="text_2">
      <!-- 2022-01 -->
      <g style="fill: #a9a9a9" transform="translate(184.902408 334.998438) scale(0.1 -0.1)">
       <use xlink:href="#DejaVuSans-32"/>
       <use xlink:href="#DejaVuSans-30" transform="translate(63.623047 0)"/>
       <use xlink:href="#DejaVuSans-32" transform="translate(127.246094 0)"/>
       <use xlink:href="#DejaVuSans-32" transform="translate(190.869141 0)"/>
       <use xlink:href="#DejaVuSans-2d" transform="translate(254.492188 0)"/>
       <use xlink:href="#DejaVuSans-30" transform="translate(290.576172 0)"/>
       <use xlink:href="#DejaVuSans-31" transform="translate(354.199219 0)"/>
      </g>
     </g>
    </g>
    <g id="xtick_3">
     <g id="line2d_5">
      <path d="M 281.51865 320.4 
L 281.51865 43.2 
" clip-path="url(#pbedcccdc79)" style="fill: none; stroke-dasharray: 5.12,1.28,0.8,1.28; stroke-dashoffset: 0; stroke: #b0b0b0; stroke-width: 0.8"/>
     </g>
     <g id="line2d_6">
      <g>
       <use xlink:href="#m38f2812e5d" x="281.51865" y="320.4" style="fill: #a9a9a9; stroke: #a9a9a9; stroke-width: 0.8"/>
      </g>
     </g>
     <g id="text_3">
      <!-- 2022-07 -->
      <g style="fill: #a9a9a9" transform="translate(260.627244 334.998438) scale(0.1 -0.1)">
       <use xlink:href="#DejaVuSans-32"/>
       <use xlink:href="#DejaVuSans-30" transform="translate(63.623047 0)"/>
       <use xlink:href="#DejaVuSans-32" transform="translate(127.246094 0)"/>
       <use xlink:href="#DejaVuSans-32" transform="translate(190.869141 0)"/>
       <use xlink:href="#DejaVuSans-2d" transform="translate(254.492188 0)"/>
       <use xlink:href="#DejaVuSans-30" transform="translate(290.576172 0)"/>
       <use xlink:href="#DejaVuSans-37" transform="translate(354.199219 0)"/>
      </g>
     </g>
    </g>
    <g id="xtick_4">
     <g id="line2d_7">
      <path d="M 358.498594 320.4 
L 358.498594 43.2 
" clip-path="url(#pbedcccdc79)" style="fill: none; stroke-dasharray: 5.12,1.28,0.8,1.28; stroke-dashoffset: 0; stroke: #b0b0b0; stroke-width: 0.8"/>
     </g>
     <g id="line2d_8">
      <g>
       <use xlink:href="#m38f2812e5d" x="358.498594" y="320.4" style="fill: #a9a9a9; stroke: #a9a9a9; stroke-width: 0.8"/>
      </g>
     </g>
     <g id="text_4">
      <!-- 2023-01 -->
      <g style="fill: #a9a9a9" transform="translate(337.607188 334.998438) scale(0.1 -0.1)">
       <defs>
        <path id="DejaVuSans-33" d="M 2597 2516 
Q 3050 2419 3304 2112 
Q 3559 1806 3559 1356 
Q 3559 666 3084 287 
Q 2609 -91 1734 -91 
Q 1441 -91 1130 -33 
Q 819 25 488 141 
L 488 750 
Q 750 597 1062 519 
Q 1375 441 1716 441 
Q 2309 441 2620 675 
Q 2931 909 2931 1356 
Q 2931 1769 2642 2001 
Q 2353 2234 1838 2234 
L 1294 2234 
L 1294 2753 
L 1863 2753 
Q 2328 2753 2575 2939 
Q 2822 3125 2822 3475 
Q 2822 3834 2567 4026 
Q 2313 4219 1838 4219 
Q 1578 4219 1281 4162 
Q 984 4106 628 3988 
L 628 4550 
Q 988 4650 1302 4700 
Q 1616 4750 1894 4750 
Q 2613 4750 3031 4423 
Q 3450 4097 3450 3541 
Q 3450 3153 3228 2886 
Q 3006 2619 2597 2516 
z
" transform="scale(0.015625)"/>
       </defs>
       <use xlink:href="#DejaVuSans-32"/>
       <use xlink:href="#DejaVuSans-30" transform="translate(63.623047 0)"/>
       <use xlink:href="#DejaVuSans-32" transform="translate(127.246094 0)"/>
       <use xlink:href="#DejaVuSans-33" transform="translate(190.869141 0)"/>
       <use xlink:href="#DejaVuSans-2d" transform="translate(254.492188 0)"/>
       <use xlink:href="#DejaVuSans-30" transform="translate(290.576172 0)"/>
       <use xlink:href="#DejaVuSans-31" transform="translate(354.199219 0)"/>
      </g>
     </g>
    </g>
    <g id="xtick_5">
     <g id="line2d_9">
      <path d="M 434.22343 320.4 
L 434.22343 43.2 
" clip-path="url(#pbedcccdc79)" style="fill: none; stroke-dasharray: 5.12,1.28,0.8,1.28; stroke-dashoffset: 0; stroke: #b0b0b0; stroke-width: 0.8"/>
     </g>
     <g id="line2d_10">
      <g>
       <use xlink:href="#m38f2812e5d" x="434.22343" y="320.4" style="fill: #a9a9a9; stroke: #a9a9a9; stroke-width: 0.8"/>
      </g>
     </g>
     <g id="text_5">
      <!-- 2023-07 -->
      <g style="fill: #a9a9a9" transform="translate(413.332024 334.998438) scale(0.1 -0.1)">
       <use xlink:href="#DejaVuSans-32"/>
       <use xlink:href="#DejaVuSans-30" transform="translate(63.623047 0)"/>
       <use xlink:href="#DejaVuSans-32" transform="translate(127.246094 0)"/>
       <use xlink:href="#DejaVuSans-33" transform="translate(190.869141 0)"/>
       <use xlink:href="#DejaVuSans-2d" transform="translate(254.492188 0)"/>
       <use xlink:href="#DejaVuSans-30" transform="translate(290.576172 0)"/>
       <use xlink:href="#DejaVuSans-37" transform="translate(354.199219 0)"/>
      </g>
     </g>
    </g>
    <g id="xtick_6">
     <g id="line2d_11">
      <path d="M 511.203374 320.4 
L 511.203374 43.2 
" clip-path="url(#pbedcccdc79)" style="fill: none; stroke-dasharray: 5.12,1.28,0.8,1.28; stroke-dashoffset: 0; stroke: #b0b0b0; stroke-width: 0.8"/>
     </g>
     <g id="line2d_12">
      <g>
       <use xlink:href="#m38f2812e5d" x="511.203374" y="320.4" style="fill: #a9a9a9; stroke: #a9a9a9; stroke-width: 0.8"/>
      </g>
     </g>
     <g id="text_6">
      <!-- 2024-01 -->
      <g style="fill: #a9a9a9" transform="translate(490.311968 334.998438) scale(0.1 -0.1)">
       <defs>
        <path id="DejaVuSans-34" d="M 2419 4116 
L 825 1625 
L 2419 1625 
L 2419 4116 
z
M 2253 4666 
L 3047 4666 
L 3047 1625 
L 3713 1625 
L 3713 1100 
L 3047 1100 
L 3047 0 
L 2419 0 
L 2419 1100 
L 313 1100 
L 313 1709 
L 2253 4666 
z
" transform="scale(0.015625)"/>
       </defs>
       <use xlink:href="#DejaVuSans-32"/>
       <use xlink:href="#DejaVuSans-30" transform="translate(63.623047 0)"/>
       <use xlink:href="#DejaVuSans-32" transform="translate(127.246094 0)"/>
       <use xlink:href="#DejaVuSans-34" transform="translate(190.869141 0)"/>
       <use xlink:href="#DejaVuSans-2d" transform="translate(254.492188 0)"/>
       <use xlink:href="#DejaVuSans-30" transform="translate(290.576172 0)"/>
       <use xlink:href="#DejaVuSans-31" transform="translate(354.199219 0)"/>
      </g>
     </g>
    </g>
    <g id="xtick_7">
     <g id="line2d_13">
      <path d="M 587.346579 320.4 
L 587.346579 43.2 
" clip-path="url(#pbedcccdc79)" style="fill: none; stroke-dasharray: 5.12,1.28,0.8,1.28; stroke-dashoffset: 0; stroke: #b0b0b0; stroke-width: 0.8"/>
     </g>
     <g id="line2d_14">
      <g>
       <use xlink:href="#m38f2812e5d" x="587.346579" y="320.4" style="fill: #a9a9a9; stroke: #a9a9a9; stroke-width: 0.8"/>
      </g>
     </g>
     <g id="text_7">
      <!-- 2024-07 -->
      <g style="fill: #a9a9a9" transform="translate(566.455173 334.998438) scale(0.1 -0.1)">
       <use xlink:href="#DejaVuSans-32"/>
       <use xlink:href="#DejaVuSans-30" transform="translate(63.623047 0)"/>
       <use xlink:href="#DejaVuSans-32" transform="translate(127.246094 0)"/>
       <use xlink:href="#DejaVuSans-34" transform="translate(190.869141 0)"/>
       <use xlink:href="#DejaVuSans-2d" transform="translate(254.492188 0)"/>
       <use xlink:href="#DejaVuSans-30" transform="translate(290.576172 0)"/>
       <use xlink:href="#DejaVuSans-37" transform="translate(354.199219 0)"/>
      </g>
     </g>
    </g>
    <g id="xtick_8">
     <g id="line2d_15">
      <path d="M 664.326523 320.4 
L 664.326523 43.2 
" clip-path="url(#pbedcccdc79)" style="fill: none; stroke-dasharray: 5.12,1.28,0.8,1.28; stroke-dashoffset: 0; stroke: #b0b0b0; stroke-width: 0.8"/>
     </g>
     <g id="line2d_16">
      <g>
       <use xlink:href="#m38f2812e5d" x="664.326523" y="320.4" style="fill: #a9a9a9; stroke: #a9a9a9; stroke-width: 0.8"/>
      </g>
     </g>
     <g id="text_8">
      <!-- 2025-01 -->
      <g style="fill: #a9a9a9" transform="translate(643.435117 334.998438) scale(0.1 -0.1)">
       <defs>
        <path id="DejaVuSans-35" d="M 691 4666 
L 3169 4666 
L 3169 4134 
L 1269 4134 
L 1269 2991 
Q 1406 3038 1543 3061 
Q 1681 3084 1819 3084 
Q 2600 3084 3056 2656 
Q 3513 2228 3513 1497 
Q 3513 744 3044 326 
Q 2575 -91 1722 -91 
Q 1428 -91 1123 -41 
Q 819 9 494 109 
L 494 744 
Q 775 591 1075 516 
Q 1375 441 1709 441 
Q 2250 441 2565 725 
Q 2881 1009 2881 1497 
Q 2881 1984 2565 2268 
Q 2250 2553 1709 2553 
Q 1456 2553 1204 2497 
Q 953 2441 691 2322 
L 691 4666 
z
" transform="scale(0.015625)"/>
       </defs>
       <use xlink:href="#DejaVuSans-32"/>
       <use xlink:href="#DejaVuSans-30" transform="translate(63.623047 0)"/>
       <use xlink:href="#DejaVuSans-32" transform="translate(127.246094 0)"/>
       <use xlink:href="#DejaVuSans-35" transform="translate(190.869141 0)"/>
       <use xlink:href="#DejaVuSans-2d" transform="translate(254.492188 0)"/>
       <use xlink:href="#DejaVuSans-30" transform="translate(290.576172 0)"/>
       <use xlink:href="#DejaVuSans-31" transform="translate(354.199219 0)"/>
      </g>
     </g>
    </g>
    <g id="xtick_9">
     <g id="line2d_17">
      <path d="M 740.051359 320.4 
L 740.051359 43.2 
" clip-path="url(#pbedcccdc79)" style="fill: none; stroke-dasharray: 5.12,1.28,0.8,1.28; stroke-dashoffset: 0; stroke: #b0b0b0; stroke-width: 0.8"/>
     </g>
     <g id="line2d_18">
      <g>
       <use xlink:href="#m38f2812e5d" x="740.051359" y="320.4" style="fill: #a9a9a9; stroke: #a9a9a9; stroke-width: 0.8"/>
      </g>
     </g>
     <g id="text_9">
      <!-- 2025-07 -->
      <g style="fill: #a9a9a9" transform="translate(719.159953 334.998438) scale(0.1 -0.1)">
       <use xlink:href="#DejaVuSans-32"/>
       <use xlink:href="#DejaVuSans-30" transform="translate(63.623047 0)"/>
       <use xlink:href="#DejaVuSans-32" transform="translate(127.246094 0)"/>
       <use xlink:href="#DejaVuSans-35" transform="translate(190.869141 0)"/>
       <use xlink:href="#DejaVuSans-2d" transform="translate(254.492188 0)"/>
       <use xlink:href="#DejaVuSans-30" transform="translate(290.576172 0)"/>
       <use xlink:href="#DejaVuSans-37" transform="translate(354.199219 0)"/>
      </g>
     </g>
    </g>
   </g>
   <g id="matplotlib.axis_2">
    <g id="ytick_1">
     <g id="line2d_19">
      <path d="M 108 307.831984 
L 777.6 307.831984 
" clip-path="url(#pbedcccdc79)" style="fill: none; stroke-dasharray: 5.12,1.28,0.8,1.28; stroke-dashoffset: 0; stroke: #b0b0b0; stroke-width: 0.8"/>
     </g>
     <g id="line2d_20">
      <defs>
       <path id="m74033d273b" d="M 0 0 
L -3.5 0 
" style="stroke: #a9a9a9; stroke-width: 0.8"/>
      </defs>
      <g>
       <use xlink:href="#m74033d273b" x="108" y="307.831984" style="fill: #a9a9a9; stroke: #a9a9a9; stroke-width: 0.8"/>
      </g>
     </g>
     <g id="text_10">
      <!-- 0 -->
      <g style="fill: #a9a9a9" transform="translate(94.6375 311.631203) scale(0.1 -0.1)">
       <use xlink:href="#DejaVuSans-30"/>
      </g>
     </g>
    </g>
    <g id="ytick_2">
     <g id="line2d_21">
      <path d="M 108 275.848229 
L 777.6 275.848229 
" clip-path="url(#pbedcccdc79)" style="fill: none; stroke-dasharray: 5.12,1.28,0.8,1.28; stroke-dashoffset: 0; stroke: #b0b0b0; stroke-width: 0.8"/>
     </g>
     <g id="line2d_22">
      <g>
       <use xlink:href="#m74033d273b" x="108" y="275.848229" style="fill: #a9a9a9; stroke: #a9a9a9; stroke-width: 0.8"/>
      </g>
     </g>
     <g id="text_11">
      <!-- 1000 -->
      <g style="fill: #a9a9a9" transform="translate(75.55 279.647448) scale(0.1 -0.1)">
       <use xlink:href="#DejaVuSans-31"/>
       <use xlink:href="#DejaVuSans-30" transform="translate(63.623047 0)"/>
       <use xlink:href="#DejaVuSans-30" transform="translate(127.246094 0)"/>
       <use xlink:href="#DejaVuSans-30" transform="translate(190.869141 0)"/>
      </g>
     </g>
    </g>
    <g id="ytick_3">
     <g id="line2d_23">
      <path d="M 108 243.864475 
L 777.6 243.864475 
" clip-path="url(#pbedcccdc79)" style="fill: none; stroke-dasharray: 5.12,1.28,0.8,1.28; stroke-dashoffset: 0; stroke: #b0b0b0; stroke-width: 0.8"/>
     </g>
     <g id="line2d_24">
      <g>
       <use xlink:href="#m74033d273b" x="108" y="243.864475" style="fill: #a9a9a9; stroke: #a9a9a9; stroke-width: 0.8"/>
      </g>
     </g>
     <g id="text_12">
      <!-- 2000 -->
      <g style="fill: #a9a9a9" transform="translate(75.55 247.663694) scale(0.1 -0.1)">
       <use xlink:href="#DejaVuSans-32"/>
       <use xlink:href="#DejaVuSans-30" transform="translate(63.623047 0)"/>
       <use xlink:href="#DejaVuSans-30" transform="translate(127.246094 0)"/>
       <use xlink:href="#DejaVuSans-30" transform="translate(190.869141 0)"/>
      </g>
     </g>
    </g>
    <g id="ytick_4">
     <g id="line2d_25">
      <path d="M 108 211.880721 
L 777.6 211.880721 
" clip-path="url(#pbedcccdc79)" style="fill: none; stroke-dasharray: 5.12,1.28,0.8,1.28; stroke-dashoffset: 0; stroke: #b0b0b0; stroke-width: 0.8"/>
     </g>
     <g id="line2d_26">
      <g>
       <use xlink:href="#m74033d273b" x="108" y="211.880721" style="fill: #a9a9a9; stroke: #a9a9a9; stroke-width: 0.8"/>
      </g>
     </g>
     <g id="text_13">
      <!-- 3000 -->
      <g style="fill: #a9a9a9" transform="translate(75.55 215.67994) scale(0.1 -0.1)">
       <use xlink:href="#DejaVuSans-33"/>
       <use xlink:href="#DejaVuSans-30" transform="translate(63.623047 0)"/>
       <use xlink:href="#DejaVuSans-30" transform="translate(127.246094 0)"/>
       <use xlink:href="#DejaVuSans-30" transform="translate(190.869141 0)"/>
      </g>
     </g>
    </g>
    <g id="ytick_5">
     <g id="line2d_27">
      <path d="M 108 179.896967 
L 777.6 179.896967 
" clip-path="url(#pbedcccdc79)" style="fill: none; stroke-dasharray: 5.12,1.28,0.8,1.28; stroke-dashoffset: 0; stroke: #b0b0b0; stroke-width: 0.8"/>
     </g>
     <g id="line2d_28">
      <g>
       <use xlink:href="#m74033d273b" x="108" y="179.896967" style="fill: #a9a9a9; stroke: #a9a9a9; stroke-width: 0.8"/>
      </g>
     </g>
     <g id="text_14">
      <!-- 4000 -->
      <g style="fill: #a9a9a9" transform="translate(75.55 183.696185) scale(0.1 -0.1)">
       <use xlink:href="#DejaVuSans-34"/>
       <use xlink:href="#DejaVuSans-30" transform="translate(63.623047 0)"/>
       <use xlink:href="#DejaVuSans-30" transform="translate(127.246094 0)"/>
       <use xlink:href="#DejaVuSans-30" transform="translate(190.869141 0)"/>
      </g>
     </g>
    </g>
    <g id="ytick_6">
     <g id="line2d_29">
      <path d="M 108 147.913212 
L 777.6 147.913212 
" clip-path="url(#pbedcccdc79)" style="fill: none; stroke-dasharray: 5.12,1.28,0.8,1.28; stroke-dashoffset: 0; stroke: #b0b0b0; stroke-width: 0.8"/>
     </g>
     <g id="line2d_30">
      <g>
       <use xlink:href="#m74033d273b" x="108" y="147.913212" style="fill: #a9a9a9; stroke: #a9a9a9; stroke-width: 0.8"/>
      </g>
     </g>
     <g id="text_15">
      <!-- 5000 -->
      <g style="fill: #a9a9a9" transform="translate(75.55 151.712431) scale(0.1 -0.1)">
       <use xlink:href="#DejaVuSans-35"/>
       <use xlink:href="#DejaVuSans-30" transform="translate(63.623047 0)"/>
       <use xlink:href="#DejaVuSans-30" transform="translate(127.246094 0)"/>
       <use xlink:href="#DejaVuSans-30" transform="translate(190.869141 0)"/>
      </g>
     </g>
    </g>
    <g id="ytick_7">
     <g id="line2d_31">
      <path d="M 108 115.929458 
L 777.6 115.929458 
" clip-path="url(#pbedcccdc79)" style="fill: none; stroke-dasharray: 5.12,1.28,0.8,1.28; stroke-dashoffset: 0; stroke: #b0b0b0; stroke-width: 0.8"/>
     </g>
     <g id="line2d_32">
      <g>
       <use xlink:href="#m74033d273b" x="108" y="115.929458" style="fill: #a9a9a9; stroke: #a9a9a9; stroke-width: 0.8"/>
      </g>
     </g>
     <g id="text_16">
      <!-- 6000 -->
      <g style="fill: #a9a9a9" transform="translate(75.55 119.728677) scale(0.1 -0.1)">
       <defs>
        <path id="DejaVuSans-36" d="M 2113 2584 
Q 1688 2584 1439 2293 
Q 1191 2003 1191 1497 
Q 1191 994 1439 701 
Q 1688 409 2113 409 
Q 2538 409 2786 701 
Q 3034 994 3034 1497 
Q 3034 2003 2786 2293 
Q 2538 2584 2113 2584 
z
M 3366 4563 
L 3366 3988 
Q 3128 4100 2886 4159 
Q 2644 4219 2406 4219 
Q 1781 4219 1451 3797 
Q 1122 3375 1075 2522 
Q 1259 2794 1537 2939 
Q 1816 3084 2150 3084 
Q 2853 3084 3261 2657 
Q 3669 2231 3669 1497 
Q 3669 778 3244 343 
Q 2819 -91 2113 -91 
Q 1303 -91 875 529 
Q 447 1150 447 2328 
Q 447 3434 972 4092 
Q 1497 4750 2381 4750 
Q 2619 4750 2861 4703 
Q 3103 4656 3366 4563 
z
" transform="scale(0.015625)"/>
       </defs>
       <use xlink:href="#DejaVuSans-36"/>
       <use xlink:href="#DejaVuSans-30" transform="translate(63.623047 0)"/>
       <use xlink:href="#DejaVuSans-30" transform="translate(127.246094 0)"/>
       <use xlink:href="#DejaVuSans-30" transform="translate(190.869141 0)"/>
      </g>
     </g>
    </g>
    <g id="ytick_8">
     <g id="line2d_33">
      <path d="M 108 83.945704 
L 777.6 83.945704 
" clip-path="url(#pbedcccdc79)" style="fill: none; stroke-dasharray: 5.12,1.28,0.8,1.28; stroke-dashoffset: 0; stroke: #b0b0b0; stroke-width: 0.8"/>
     </g>
     <g id="line2d_34">
      <g>
       <use xlink:href="#m74033d273b" x="108" y="83.945704" style="fill: #a9a9a9; stroke: #a9a9a9; stroke-width: 0.8"/>
      </g>
     </g>
     <g id="text_17">
      <!-- 7000 -->
      <g style="fill: #a9a9a9" transform="translate(75.55 87.744923) scale(0.1 -0.1)">
       <use xlink:href="#DejaVuSans-37"/>
       <use xlink:href="#DejaVuSans-30" transform="translate(63.623047 0)"/>
       <use xlink:href="#DejaVuSans-30" transform="translate(127.246094 0)"/>
       <use xlink:href="#DejaVuSans-30" transform="translate(190.869141 0)"/>
      </g>
     </g>
    </g>
    <g id="ytick_9">
     <g id="line2d_35">
      <path d="M 108 51.961949 
L 777.6 51.961949 
" clip-path="url(#pbedcccdc79)" style="fill: none; stroke-dasharray: 5.12,1.28,0.8,1.28; stroke-dashoffset: 0; stroke: #b0b0b0; stroke-width: 0.8"/>
     </g>
     <g id="line2d_36">
      <g>
       <use xlink:href="#m74033d273b" x="108" y="51.961949" style="fill: #a9a9a9; stroke: #a9a9a9; stroke-width: 0.8"/>
      </g>
     </g>
     <g id="text_18">
      <!-- 8000 -->
      <g style="fill: #a9a9a9" transform="translate(75.55 55.761168) scale(0.1 -0.1)">
       <defs>
        <path id="DejaVuSans-38" d="M 2034 2216 
Q 1584 2216 1326 1975 
Q 1069 1734 1069 1313 
Q 1069 891 1326 650 
Q 1584 409 2034 409 
Q 2484 409 2743 651 
Q 3003 894 3003 1313 
Q 3003 1734 2745 1975 
Q 2488 2216 2034 2216 
z
M 1403 2484 
Q 997 2584 770 2862 
Q 544 3141 544 3541 
Q 544 4100 942 4425 
Q 1341 4750 2034 4750 
Q 2731 4750 3128 4425 
Q 3525 4100 3525 3541 
Q 3525 3141 3298 2862 
Q 3072 2584 2669 2484 
Q 3125 2378 3379 2068 
Q 3634 1759 3634 1313 
Q 3634 634 3220 271 
Q 2806 -91 2034 -91 
Q 1263 -91 848 271 
Q 434 634 434 1313 
Q 434 1759 690 2068 
Q 947 2378 1403 2484 
z
M 1172 3481 
Q 1172 3119 1398 2916 
Q 1625 2713 2034 2713 
Q 2441 2713 2670 2916 
Q 2900 3119 2900 3481 
Q 2900 3844 2670 4047 
Q 2441 4250 2034 4250 
Q 1625 4250 1398 4047 
Q 1172 3844 1172 3481 
z
" transform="scale(0.015625)"/>
       </defs>
       <use xlink:href="#DejaVuSans-38"/>
       <use xlink:href="#DejaVuSans-30" transform="translate(63.623047 0)"/>
       <use xlink:href="#DejaVuSans-30" transform="translate(127.246094 0)"/>
       <use xlink:href="#DejaVuSans-30" transform="translate(190.869141 0)"/>
      </g>
     </g>
    </g>
   </g>
   <g id="line2d_37">
    <path d="M 138.436364 307.736032 
L 140.946579 307.512146 
L 141.364948 307.320244 
L 143.038425 307.096357 
L 144.711903 306.744536 
L 145.548641 306.616601 
L 147.640487 306.424699 
L 148.477226 306.072877 
L 148.895595 305.49717 
L 149.313964 305.209316 
L 149.732334 304.249803 
L 150.150703 304.185836 
L 150.569072 303.834014 
L 151.405811 303.386242 
L 153.079288 301.978957 
L 154.752765 301.115395 
L 156.007873 300.507704 
L 156.426242 299.804061 
L 157.26298 299.164386 
L 157.68135 298.972484 
L 161.865042 298.332809 
L 162.283411 298.140906 
L 165.211996 297.885036 
L 166.885473 297.469247 
L 170.232427 296.989491 
L 170.650797 296.765605 
L 171.069166 296.701637 
L 171.905904 296.413783 
L 174.834489 295.902043 
L 175.671228 295.646173 
L 179.436551 295.006498 
L 180.27329 294.814596 
L 181.110028 294.782612 
L 182.783505 294.366823 
L 183.201874 293.759132 
L 184.456982 293.247392 
L 185.71209 292.895571 
L 186.130459 292.671684 
L 186.967198 292.511765 
L 188.640675 292.000025 
L 189.477413 291.936058 
L 190.314152 291.712172 
L 191.987629 291.264399 
L 192.405998 291.232415 
L 193.242737 290.816626 
L 193.661106 290.752659 
L 194.079475 290.528773 
L 198.681537 289.729179 
L 200.355014 289.217439 
L 200.773383 288.929585 
L 202.86523 288.225942 
L 203.701968 287.618251 
L 204.957076 287.362381 
L 210.395876 285.763193 
L 210.814246 285.699226 
L 212.487723 285.027567 
L 212.906092 284.963599 
L 213.74283 284.611778 
L 214.579569 284.579794 
L 215.834677 284.195989 
L 216.253046 284.195989 
L 216.671415 284.004087 
L 217.508154 283.908136 
L 217.926523 283.748217 
L 219.6 283.684249 
L 220.436739 283.52433 
L 221.273477 283.076558 
L 222.528585 282.596802 
L 223.365323 282.149029 
L 224.202062 281.701257 
L 225.0388 281.413403 
L 225.45717 281.285468 
L 226.293908 280.741744 
L 226.712277 280.261988 
L 227.549016 278.91867 
L 227.967385 278.790735 
L 228.385754 278.790735 
L 230.059231 277.831222 
L 230.477601 277.735271 
L 230.89597 277.319482 
L 231.732709 276.967661 
L 232.569447 276.583856 
L 232.987816 276.072116 
L 233.406186 275.368473 
L 233.824555 275.080619 
L 234.242924 274.313009 
L 234.661293 273.833253 
L 237.171509 272.425968 
L 238.844986 270.890748 
L 239.263355 269.899251 
L 239.681724 269.259576 
L 240.100094 268.907755 
L 240.518463 268.715852 
L 243.865417 265.549461 
L 244.702156 264.749867 
L 247.212371 263.118695 
L 247.63074 262.958776 
L 249.304217 261.935296 
L 249.722587 261.743394 
L 251.814433 259.760401 
L 252.651172 259.40858 
L 253.48791 258.800888 
L 253.906279 258.545018 
L 254.324649 258.481051 
L 255.579756 257.745425 
L 255.998126 257.265668 
L 258.089972 256.082269 
L 258.508341 255.922351 
L 259.763449 255.026805 
L 266.038988 252.723975 
L 266.875726 251.924381 
L 268.130834 251.284706 
L 268.967573 250.740982 
L 269.804311 250.485112 
L 270.22268 250.197259 
L 270.64105 250.069324 
L 271.896157 249.205762 
L 273.988004 248.726006 
L 275.243112 247.958396 
L 276.498219 247.670542 
L 276.916589 247.574591 
L 278.171696 246.615078 
L 279.845173 246.135322 
L 280.263543 245.7835 
L 282.773758 244.887955 
L 283.610497 244.728037 
L 284.447235 244.376215 
L 287.37582 243.256784 
L 288.212559 243.160833 
L 289.467666 242.71306 
L 291.559513 241.657596 
L 294.069728 240.218327 
L 294.906467 239.994441 
L 296.161575 239.354766 
L 296.998313 239.194847 
L 297.835052 238.683107 
L 298.67179 238.459221 
L 299.926898 237.947481 
L 301.600375 237.723594 
L 302.437113 237.275822 
L 302.855483 236.892017 
L 303.273852 236.124407 
L 304.947329 235.64465 
L 306.202437 234.972991 
L 307.039175 234.685138 
L 308.294283 234.045463 
L 310.386129 233.181901 
L 311.222868 232.989999 
L 312.477976 232.350324 
L 312.896345 232.286356 
L 314.988191 231.230892 
L 315.82493 230.687168 
L 317.080037 230.431298 
L 319.171884 229.887575 
L 319.590253 229.535753 
L 320.426992 229.247899 
L 322.518838 228.384338 
L 322.937207 228.064501 
L 323.355576 227.904582 
L 324.192315 227.424825 
L 325.865792 226.881102 
L 326.70253 226.337378 
L 327.1209 225.889605 
L 327.539269 225.633735 
L 327.957638 225.537784 
L 328.794377 224.834141 
L 329.212746 224.770174 
L 329.631115 224.066531 
L 330.049485 223.874629 
L 330.467854 223.522807 
L 330.886223 223.45884 
L 331.722962 222.915116 
L 332.5597 222.627262 
L 332.978069 222.307425 
L 333.396439 222.147506 
L 335.069916 220.996091 
L 336.325023 220.356416 
L 337.161762 220.13253 
L 337.9985 219.652773 
L 338.41687 218.917147 
L 339.253608 218.277472 
L 339.671978 218.18152 
L 342.182193 216.934154 
L 343.018932 216.582333 
L 343.85567 215.974641 
L 345.110778 214.791243 
L 345.947516 214.279502 
L 346.365886 213.799746 
L 348.039363 212.616347 
L 348.876101 211.752786 
L 349.71284 211.464932 
L 350.549578 210.889225 
L 351.804686 210.217566 
L 352.223055 210.153598 
L 353.478163 209.449956 
L 354.314902 208.906232 
L 358.498594 207.307044 
L 358.916963 206.955223 
L 360.59044 206.283564 
L 361.00881 206.155629 
L 361.845548 205.611905 
L 362.682287 205.260084 
L 363.519025 204.652392 
L 364.355764 202.92527 
L 365.192502 201.90179 
L 366.44761 201.230131 
L 367.284349 200.878309 
L 367.702718 200.814342 
L 368.539456 200.430537 
L 370.212933 199.854829 
L 371.049672 199.375073 
L 371.88641 198.959284 
L 372.30478 198.831349 
L 374.814995 197.296129 
L 375.233365 196.816373 
L 376.488472 196.080746 
L 376.906842 195.920828 
L 377.74358 195.409087 
L 379.417057 194.481559 
L 379.835426 194.385607 
L 380.253796 194.033786 
L 383.182381 193.04229 
L 383.60075 192.722452 
L 384.437488 192.466582 
L 385.274227 192.114761 
L 385.692596 191.762939 
L 387.366073 191.155248 
L 388.202812 190.547557 
L 389.03955 190.195735 
L 389.876289 189.524077 
L 390.713027 189.268207 
L 391.131396 188.884402 
L 391.549766 188.820434 
L 392.386504 188.148775 
L 394.478351 186.901409 
L 395.315089 186.645539 
L 395.733458 186.389669 
L 396.151828 186.325701 
L 397.406935 185.622059 
L 399.080412 185.046351 
L 399.917151 184.918416 
L 400.33552 184.726514 
L 400.753889 184.662546 
L 401.590628 184.278741 
L 402.008997 184.246757 
L 403.682474 183.607082 
L 404.937582 182.679553 
L 405.355951 182.519634 
L 406.19269 182.039878 
L 406.611059 181.911943 
L 409.121275 180.472674 
L 409.539644 180.376723 
L 410.794752 179.609113 
L 412.049859 179.16134 
L 412.886598 178.873486 
L 414.560075 178.297779 
L 415.396813 178.009925 
L 417.070291 177.658104 
L 417.48866 177.466201 
L 418.325398 177.242315 
L 418.743768 177.050412 
L 419.162137 176.986445 
L 419.580506 176.762559 
L 420.417245 176.60264 
L 421.672352 176.122884 
L 422.92746 175.930981 
L 425.437676 175.451225 
L 426.692784 175.163371 
L 427.111153 174.971468 
L 427.947891 174.81155 
L 428.78463 174.587663 
L 429.621368 174.203858 
L 430.039738 174.04394 
L 430.458107 174.04394 
L 435.060169 172.604671 
L 435.478538 172.380784 
L 435.896907 172.380784 
L 436.733646 172.060947 
L 437.152015 171.613174 
L 439.662231 170.55771 
L 441.335708 169.982003 
L 441.754077 169.726133 
L 443.009185 169.342328 
L 443.845923 169.118441 
L 444.264292 168.830588 
L 444.682662 168.734636 
L 445.101031 168.350831 
L 446.356139 168.094961 
L 447.192877 167.711156 
L 447.611246 167.199416 
L 452.213308 166.175936 
L 452.631678 166.175936 
L 453.050047 165.984034 
L 454.723524 165.664196 
L 455.141893 165.472293 
L 456.81537 165.152456 
L 457.652109 164.800635 
L 458.488847 164.640716 
L 460.580694 164.096992 
L 462.254171 163.553268 
L 462.67254 163.457317 
L 463.090909 163.233431 
L 463.927648 163.009544 
L 464.764386 162.657723 
L 465.601125 162.337886 
L 466.019494 162.050032 
L 466.856232 161.794162 
L 469.784817 160.67473 
L 471.458294 160.482828 
L 474.805248 159.235461 
L 475.223618 158.915624 
L 475.641987 158.819673 
L 476.060356 158.595786 
L 476.478725 158.563803 
L 481.080787 156.868664 
L 483.172634 156.292956 
L 484.009372 155.877167 
L 485.26448 155.589313 
L 486.937957 154.182028 
L 488.611434 153.446402 
L 489.448172 153.062597 
L 491.958388 152.0711 
L 492.376757 151.783247 
L 494.468604 151.079604 
L 495.723711 150.343978 
L 496.142081 150.248026 
L 498.233927 149.096611 
L 499.489035 148.520904 
L 499.907404 148.201066 
L 500.744142 147.913212 
L 502.835989 146.825765 
L 504.091097 146.377992 
L 505.764574 145.706333 
L 507.019681 145.226577 
L 507.438051 145.066658 
L 508.274789 144.938723 
L 508.693158 144.650869 
L 510.366635 144.331032 
L 511.203374 143.979211 
L 512.876851 143.179617 
L 518.734021 140.556949 
L 519.989128 140.14116 
L 520.407498 139.853306 
L 521.244236 139.757355 
L 521.662605 139.469501 
L 522.499344 139.341566 
L 523.336082 138.925777 
L 523.754452 138.733875 
L 524.59119 138.509989 
L 525.427929 138.254119 
L 526.683037 137.774362 
L 527.938144 137.358573 
L 529.193252 137.07072 
L 530.866729 136.367077 
L 531.703468 135.919304 
L 533.376945 135.055743 
L 534.213683 134.863841 
L 534.632052 134.607971 
L 535.050422 134.512019 
L 536.30553 133.776393 
L 537.142268 133.424572 
L 546.346392 129.842391 
L 548.019869 129.042797 
L 552.203561 127.379642 
L 553.0403 126.963853 
L 553.458669 126.867902 
L 553.877038 126.644016 
L 555.550515 126.164259 
L 557.223993 124.756974 
L 557.642362 124.629039 
L 558.060731 124.373169 
L 559.315839 124.021348 
L 559.734208 123.70151 
L 560.152577 123.605559 
L 561.407685 122.837949 
L 561.826054 122.550095 
L 563.081162 122.070339 
L 563.499531 121.846453 
L 564.754639 121.558599 
L 566.846485 120.822972 
L 567.683224 120.567102 
L 568.938332 119.895444 
L 569.77507 119.479655 
L 570.611809 119.255768 
L 571.866917 118.648077 
L 576.050609 116.952938 
L 578.142455 115.929458 
L 578.979194 115.609621 
L 579.397563 115.225815 
L 580.234302 114.873994 
L 581.48941 114.426222 
L 581.907779 114.0744 
L 582.326148 114.042417 
L 583.162887 113.786547 
L 583.999625 113.498693 
L 584.417994 113.30679 
L 584.836364 113.242823 
L 585.673102 112.891001 
L 586.92821 112.603148 
L 587.764948 112.123391 
L 588.183318 111.963473 
L 588.601687 111.643635 
L 589.856795 111.323797 
L 590.275164 111.067927 
L 591.111903 110.844041 
L 592.36701 110.140399 
L 592.78538 110.108415 
L 594.040487 109.692626 
L 594.877226 109.628658 
L 595.295595 109.404772 
L 596.132334 109.180886 
L 596.550703 108.957 
L 598.642549 108.541211 
L 599.479288 108.381292 
L 600.734396 107.901536 
L 601.989503 107.613682 
L 603.244611 106.942023 
L 603.66298 106.558218 
L 604.918088 105.790608 
L 605.336457 105.47077 
L 606.591565 105.054982 
L 607.428304 104.831095 
L 611.193627 103.16794 
L 612.867104 102.720168 
L 613.703843 102.336362 
L 614.122212 102.112476 
L 614.95895 101.856606 
L 615.37732 101.63272 
L 616.214058 101.472801 
L 619.561012 100.001548 
L 619.979381 99.937581 
L 621.234489 99.106003 
L 621.652858 99.042036 
L 623.326336 98.370377 
L 624.999813 97.954588 
L 625.418182 97.890621 
L 625.836551 97.698718 
L 626.25492 97.666734 
L 627.091659 97.378881 
L 627.510028 97.346897 
L 628.765136 96.867141 
L 630.438613 96.387384 
L 631.275351 95.747709 
L 632.948828 94.82018 
L 633.367198 94.724229 
L 633.785567 94.500343 
L 634.622306 94.212489 
L 635.040675 94.084554 
L 635.459044 93.732733 
L 636.714152 93.252976 
L 637.55089 92.77322 
L 637.96926 92.549334 
L 638.387629 92.165529 
L 640.479475 91.621805 
L 641.734583 91.046097 
L 642.571321 90.822211 
L 642.989691 90.598325 
L 643.40806 90.246503 
L 645.081537 89.798731 
L 645.499906 89.478893 
L 650.938707 87.463917 
L 651.775445 87.303998 
L 653.867291 86.632339 
L 654.70403 86.280518 
L 655.540769 85.96068 
L 656.377507 85.736794 
L 656.795876 85.544891 
L 657.214246 85.544891 
L 658.050984 85.19307 
L 658.887723 84.713314 
L 661.816307 83.721817 
L 663.489784 83.14611 
L 664.744892 82.858256 
L 666 82.442467 
L 666.418369 82.346516 
L 666.836739 82.058662 
L 667.673477 81.86676 
L 669.346954 81.387003 
L 669.765323 81.35502 
L 670.602062 80.971215 
L 673.530647 80.235588 
L 674.367385 79.883767 
L 678.551078 78.924254 
L 679.806186 78.252596 
L 681.061293 77.86879 
L 683.989878 76.877294 
L 684.408247 76.653408 
L 684.826617 76.557457 
L 686.081724 75.917781 
L 686.918463 75.757863 
L 687.755201 75.501993 
L 688.59194 75.086204 
L 689.010309 74.734383 
L 689.847048 74.478513 
L 690.265417 74.222642 
L 691.102156 74.126691 
L 694.03074 73.295114 
L 695.285848 73.039244 
L 696.540956 72.719406 
L 697.377694 72.49552 
L 698.632802 71.855845 
L 700.306279 71.21617 
L 701.143018 70.768397 
L 701.561387 70.736413 
L 702.398126 70.320624 
L 705.32671 69.489047 
L 706.581818 69.297144 
L 707.418557 69.041274 
L 708.673664 68.657469 
L 712.438988 67.602005 
L 713.275726 67.378119 
L 713.694096 67.282168 
L 714.112465 67.026298 
L 714.949203 66.866379 
L 715.785942 66.770428 
L 716.204311 66.546541 
L 716.62268 66.514558 
L 717.877788 65.874883 
L 719.132896 65.587029 
L 719.969634 65.235208 
L 720.806373 64.947354 
L 721.643112 64.723467 
L 722.47985 64.371646 
L 723.316589 64.083792 
L 724.990066 63.604036 
L 725.826804 63.540069 
L 726.663543 63.252215 
L 727.081912 63.092296 
L 727.91865 62.964361 
L 729.592127 62.228735 
L 730.010497 62.164767 
L 730.428866 61.940881 
L 731.265604 61.780962 
L 732.102343 61.716995 
L 734.612559 61.077319 
L 735.449297 60.725498 
L 735.867666 60.661531 
L 736.286036 60.405661 
L 737.122774 59.702018 
L 742.561575 57.655058 
L 743.816682 57.367204 
L 744.235052 57.047366 
L 745.490159 56.503643 
L 746.326898 56.05587 
L 747.163636 55.8 
L 747.163636 55.8 
" clip-path="url(#pbedcccdc79)" style="fill: none; stroke: #1f77b4; stroke-width: 1.5; stroke-linecap: square"/>
   </g>
   <g id="line2d_38">
    <path d="M 138.854733 307.8 
L 142.620056 307.704049 
L 145.96701 307.54413 
L 147.640487 307.54413 
L 148.058857 307.416195 
L 150.150703 307.320244 
L 152.660918 307.03239 
L 155.171134 306.936439 
L 156.007873 306.840487 
L 158.936457 306.712552 
L 161.865042 306.616601 
L 163.956888 306.552634 
L 169.395689 306.456682 
L 171.487535 306.392715 
L 175.252858 306.296764 
L 176.926336 306.26478 
L 181.110028 306.168829 
L 182.783505 306.00891 
L 184.456982 305.976926 
L 186.967198 305.880975 
L 188.640675 305.848991 
L 190.732521 305.785023 
L 192.405998 305.625105 
L 196.171321 305.529153 
L 197.00806 305.465186 
L 198.681537 305.369235 
L 201.191753 305.273283 
L 202.86523 305.177332 
L 210.395876 304.697576 
L 213.324461 304.601625 
L 214.579569 304.47369 
L 216.671415 304.377738 
L 220.855108 304.153852 
L 225.0388 304.089885 
L 226.712277 303.897982 
L 228.804124 303.802031 
L 232.987816 303.386242 
L 235.498032 303.066404 
L 237.171509 303.002437 
L 240.518463 302.554664 
L 243.028679 302.490697 
L 244.283786 302.362762 
L 245.538894 302.266811 
L 257.253233 301.339282 
L 258.089972 301.179363 
L 260.600187 301.083412 
L 267.294096 300.667623 
L 270.22268 300.571672 
L 271.896157 300.379769 
L 273.988004 300.283818 
L 276.498219 300.187866 
L 278.590066 300.091915 
L 280.263543 300.059931 
L 282.355389 299.995964 
L 283.192127 299.868029 
L 289.049297 299.772078 
L 289.886036 299.676126 
L 294.906467 299.580175 
L 298.67179 299.388273 
L 301.600375 299.292321 
L 303.273852 299.100419 
L 306.202437 299.004468 
L 307.039175 298.876533 
L 309.131022 298.812565 
L 313.314714 298.748598 
L 314.988191 298.588679 
L 316.661668 298.556695 
L 317.916776 298.460744 
L 319.590253 298.300825 
L 323.773946 298.076939 
L 327.957638 297.980987 
L 331.722962 297.789085 
L 332.978069 297.757101 
L 333.814808 297.629166 
L 335.906654 297.533215 
L 336.743393 297.469247 
L 337.580131 297.40528 
L 338.41687 297.341312 
L 342.600562 297.245361 
L 354.314902 296.445767 
L 356.825117 296.349816 
L 358.916963 296.285848 
L 364.774133 296.189897 
L 365.610872 296.061962 
L 371.468041 295.966011 
L 375.651734 295.742125 
L 376.488472 295.710141 
L 377.325211 295.61419 
L 379.417057 295.518238 
L 381.508903 295.454271 
L 383.60075 295.35832 
L 385.692596 295.294352 
L 389.457919 295.198401 
L 391.968135 295.10245 
L 397.825305 295.006498 
L 402.427366 294.750628 
L 404.100843 294.686661 
L 405.355951 294.590709 
L 411.213121 294.494758 
L 413.723336 294.398807 
L 421.253983 294.302856 
L 422.92746 294.270872 
L 427.947891 294.206904 
L 428.78463 294.142937 
L 434.641799 294.046986 
L 436.315276 294.015002 
L 447.192877 293.919051 
L 449.703093 293.823099 
L 467.274602 293.727148 
L 469.366448 293.663181 
L 480.244049 293.599213 
L 481.080787 293.535246 
L 483.172634 293.471278 
L 484.427741 293.343343 
L 486.937957 293.247392 
L 489.866542 293.119457 
L 493.631865 293.023506 
L 495.723711 292.959538 
L 498.652296 292.863587 
L 501.99925 292.703668 
L 504.091097 292.607717 
L 505.764574 292.575733 
L 509.529897 292.479782 
L 511.203374 292.447798 
L 516.642174 292.351847 
L 518.315651 292.319863 
L 520.407498 292.223912 
L 522.917713 292.12796 
L 525.846298 292.063993 
L 526.683037 292.000025 
L 536.723899 291.904074 
L 540.907591 291.680188 
L 543.836176 291.584237 
L 548.438238 291.328367 
L 551.366823 291.232415 
L 553.0403 291.200432 
L 555.968885 291.10448 
L 558.060731 290.880594 
L 562.244424 290.784643 
L 563.081162 290.688691 
L 567.264855 290.59274 
L 569.356701 290.528773 
L 573.958763 290.496789 
L 574.795501 290.400838 
L 579.397563 290.304886 
L 580.234302 290.240919 
L 589.438425 290.144968 
L 591.948641 290.049016 
L 598.22418 289.953065 
L 599.897657 289.921081 
L 603.66298 289.857114 
L 604.499719 289.761163 
L 609.938519 289.665211 
L 612.030366 289.601244 
L 619.561012 289.505293 
L 620.81612 289.409341 
L 622.071228 289.31339 
L 623.326336 289.217439 
L 629.601874 289.121487 
L 632.11209 289.025536 
L 643.40806 288.929585 
L 647.173383 288.737682 
L 652.193814 288.641731 
L 653.030553 288.577764 
L 659.306092 288.513796 
L 660.14283 288.449829 
L 664.744892 288.353877 
L 666.418369 288.321894 
L 673.530647 288.225942 
L 674.367385 288.161975 
L 681.898032 288.066024 
L 683.571509 288.03404 
L 687.336832 287.938089 
L 690.683786 287.77817 
L 695.285848 287.682219 
L 698.214433 287.554284 
L 701.979756 287.458332 
L 702.816495 287.394365 
L 711.18388 287.298414 
L 713.275726 287.234446 
L 715.785942 287.138495 
L 718.296157 287.042543 
L 730.847235 286.946592 
L 733.77582 286.818657 
L 738.796251 286.722706 
L 740.469728 286.690722 
L 747.163636 286.594771 
L 747.163636 286.594771 
" clip-path="url(#pbedcccdc79)" style="fill: none; stroke: #ff7f0e; stroke-width: 1.5; stroke-linecap: square"/>
   </g>
   <g id="patch_3">
    <path d="M 108 320.4 
L 108 43.2 
" style="fill: none; stroke: #a9a9a9; stroke-width: 0.8; stroke-linejoin: miter; stroke-linecap: square"/>
   </g>
   <g id="patch_4">
    <path d="M 777.6 320.4 
L 777.6 43.2 
" style="fill: none"/>
   </g>
   <g id="patch_5">
    <path d="M 108 320.4 
L 777.6 320.4 
" style="fill: none; stroke: #a9a9a9; stroke-width: 0.8; stroke-linejoin: miter; stroke-linecap: square"/>
   </g>
   <g id="patch_6">
    <path d="M 108 43.2 
L 777.6 43.2 
" style="fill: none"/>
   </g>
   <g id="text_19">
    <!-- get_subscribe history -->
    <g style="fill: #a9a9a9" transform="translate(378.6075 37.2) scale(0.12 -0.12)">
     <defs>
      <path id="DejaVuSans-67" d="M 2906 1791 
Q 2906 2416 2648 2759 
Q 2391 3103 1925 3103 
Q 1463 3103 1205 2759 
Q 947 2416 947 1791 
Q 947 1169 1205 825 
Q 1463 481 1925 481 
Q 2391 481 2648 825 
Q 2906 1169 2906 1791 
z
M 3481 434 
Q 3481 -459 3084 -895 
Q 2688 -1331 1869 -1331 
Q 1566 -1331 1297 -1286 
Q 1028 -1241 775 -1147 
L 775 -588 
Q 1028 -725 1275 -790 
Q 1522 -856 1778 -856 
Q 2344 -856 2625 -561 
Q 2906 -266 2906 331 
L 2906 616 
Q 2728 306 2450 153 
Q 2172 0 1784 0 
Q 1141 0 747 490 
Q 353 981 353 1791 
Q 353 2603 747 3093 
Q 1141 3584 1784 3584 
Q 2172 3584 2450 3431 
Q 2728 3278 2906 2969 
L 2906 3500 
L 3481 3500 
L 3481 434 
z
" transform="scale(0.015625)"/>
      <path id="DejaVuSans-65" d="M 3597 1894 
L 3597 1613 
L 953 1613 
Q 991 1019 1311 708 
Q 1631 397 2203 397 
Q 2534 397 2845 478 
Q 3156 559 3463 722 
L 3463 178 
Q 3153 47 2828 -22 
Q 2503 -91 2169 -91 
Q 1331 -91 842 396 
Q 353 884 353 1716 
Q 353 2575 817 3079 
Q 1281 3584 2069 3584 
Q 2775 3584 3186 3129 
Q 3597 2675 3597 1894 
z
M 3022 2063 
Q 3016 2534 2758 2815 
Q 2500 3097 2075 3097 
Q 1594 3097 1305 2825 
Q 1016 2553 972 2059 
L 3022 2063 
z
" transform="scale(0.015625)"/>
      <path id="DejaVuSans-74" d="M 1172 4494 
L 1172 3500 
L 2356 3500 
L 2356 3053 
L 1172 3053 
L 1172 1153 
Q 1172 725 1289 603 
Q 1406 481 1766 481 
L 2356 481 
L 2356 0 
L 1766 0 
Q 1100 0 847 248 
Q 594 497 594 1153 
L 594 3053 
L 172 3053 
L 172 3500 
L 594 3500 
L 594 4494 
L 1172 4494 
z
" transform="scale(0.015625)"/>
      <path id="DejaVuSans-5f" d="M 3263 -1063 
L 3263 -1509 
L -63 -1509 
L -63 -1063 
L 3263 -1063 
z
" transform="scale(0.015625)"/>
      <path id="DejaVuSans-73" d="M 2834 3397 
L 2834 2853 
Q 2591 2978 2328 3040 
Q 2066 3103 1784 3103 
Q 1356 3103 1142 2972 
Q 928 2841 928 2578 
Q 928 2378 1081 2264 
Q 1234 2150 1697 2047 
L 1894 2003 
Q 2506 1872 2764 1633 
Q 3022 1394 3022 966 
Q 3022 478 2636 193 
Q 2250 -91 1575 -91 
Q 1294 -91 989 -36 
Q 684 19 347 128 
L 347 722 
Q 666 556 975 473 
Q 1284 391 1588 391 
Q 1994 391 2212 530 
Q 2431 669 2431 922 
Q 2431 1156 2273 1281 
Q 2116 1406 1581 1522 
L 1381 1569 
Q 847 1681 609 1914 
Q 372 2147 372 2553 
Q 372 3047 722 3315 
Q 1072 3584 1716 3584 
Q 2034 3584 2315 3537 
Q 2597 3491 2834 3397 
z
" transform="scale(0.015625)"/>
      <path id="DejaVuSans-75" d="M 544 1381 
L 544 3500 
L 1119 3500 
L 1119 1403 
Q 1119 906 1312 657 
Q 1506 409 1894 409 
Q 2359 409 2629 706 
Q 2900 1003 2900 1516 
L 2900 3500 
L 3475 3500 
L 3475 0 
L 2900 0 
L 2900 538 
Q 2691 219 2414 64 
Q 2138 -91 1772 -91 
Q 1169 -91 856 284 
Q 544 659 544 1381 
z
M 1991 3584 
L 1991 3584 
z
" transform="scale(0.015625)"/>
      <path id="DejaVuSans-62" d="M 3116 1747 
Q 3116 2381 2855 2742 
Q 2594 3103 2138 3103 
Q 1681 3103 1420 2742 
Q 1159 2381 1159 1747 
Q 1159 1113 1420 752 
Q 1681 391 2138 391 
Q 2594 391 2855 752 
Q 3116 1113 3116 1747 
z
M 1159 2969 
Q 1341 3281 1617 3432 
Q 1894 3584 2278 3584 
Q 2916 3584 3314 3078 
Q 3713 2572 3713 1747 
Q 3713 922 3314 415 
Q 2916 -91 2278 -91 
Q 1894 -91 1617 61 
Q 1341 213 1159 525 
L 1159 0 
L 581 0 
L 581 4863 
L 1159 4863 
L 1159 2969 
z
" transform="scale(0.015625)"/>
      <path id="DejaVuSans-63" d="M 3122 3366 
L 3122 2828 
Q 2878 2963 2633 3030 
Q 2388 3097 2138 3097 
Q 1578 3097 1268 2742 
Q 959 2388 959 1747 
Q 959 1106 1268 751 
Q 1578 397 2138 397 
Q 2388 397 2633 464 
Q 2878 531 3122 666 
L 3122 134 
Q 2881 22 2623 -34 
Q 2366 -91 2075 -91 
Q 1284 -91 818 406 
Q 353 903 353 1747 
Q 353 2603 823 3093 
Q 1294 3584 2113 3584 
Q 2378 3584 2631 3529 
Q 2884 3475 3122 3366 
z
" transform="scale(0.015625)"/>
      <path id="DejaVuSans-72" d="M 2631 2963 
Q 2534 3019 2420 3045 
Q 2306 3072 2169 3072 
Q 1681 3072 1420 2755 
Q 1159 2438 1159 1844 
L 1159 0 
L 581 0 
L 581 3500 
L 1159 3500 
L 1159 2956 
Q 1341 3275 1631 3429 
Q 1922 3584 2338 3584 
Q 2397 3584 2469 3576 
Q 2541 3569 2628 3553 
L 2631 2963 
z
" transform="scale(0.015625)"/>
      <path id="DejaVuSans-69" d="M 603 3500 
L 1178 3500 
L 1178 0 
L 603 0 
L 603 3500 
z
M 603 4863 
L 1178 4863 
L 1178 4134 
L 603 4134 
L 603 4863 
z
" transform="scale(0.015625)"/>
      <path id="DejaVuSans-20" transform="scale(0.015625)"/>
      <path id="DejaVuSans-68" d="M 3513 2113 
L 3513 0 
L 2938 0 
L 2938 2094 
Q 2938 2591 2744 2837 
Q 2550 3084 2163 3084 
Q 1697 3084 1428 2787 
Q 1159 2491 1159 1978 
L 1159 0 
L 581 0 
L 581 4863 
L 1159 4863 
L 1159 2956 
Q 1366 3272 1645 3428 
Q 1925 3584 2291 3584 
Q 2894 3584 3203 3211 
Q 3513 2838 3513 2113 
z
" transform="scale(0.015625)"/>
      <path id="DejaVuSans-6f" d="M 1959 3097 
Q 1497 3097 1228 2736 
Q 959 2375 959 1747 
Q 959 1119 1226 758 
Q 1494 397 1959 397 
Q 2419 397 2687 759 
Q 2956 1122 2956 1747 
Q 2956 2369 2687 2733 
Q 2419 3097 1959 3097 
z
M 1959 3584 
Q 2709 3584 3137 3096 
Q 3566 2609 3566 1747 
Q 3566 888 3137 398 
Q 2709 -91 1959 -91 
Q 1206 -91 779 398 
Q 353 888 353 1747 
Q 353 2609 779 3096 
Q 1206 3584 1959 3584 
z
" transform="scale(0.015625)"/>
      <path id="DejaVuSans-79" d="M 2059 -325 
Q 1816 -950 1584 -1140 
Q 1353 -1331 966 -1331 
L 506 -1331 
L 506 -850 
L 844 -850 
Q 1081 -850 1212 -737 
Q 1344 -625 1503 -206 
L 1606 56 
L 191 3500 
L 800 3500 
L 1894 763 
L 2988 3500 
L 3597 3500 
L 2059 -325 
z
" transform="scale(0.015625)"/>
     </defs>
     <use xlink:href="#DejaVuSans-67"/>
     <use xlink:href="#DejaVuSans-65" transform="translate(63.476562 0)"/>
     <use xlink:href="#DejaVuSans-74" transform="translate(125 0)"/>
     <use xlink:href="#DejaVuSans-5f" transform="translate(164.208984 0)"/>
     <use xlink:href="#DejaVuSans-73" transform="translate(214.208984 0)"/>
     <use xlink:href="#DejaVuSans-75" transform="translate(266.308594 0)"/>
     <use xlink:href="#DejaVuSans-62" transform="translate(329.6875 0)"/>
     <use xlink:href="#DejaVuSans-73" transform="translate(393.164062 0)"/>
     <use xlink:href="#DejaVuSans-63" transform="translate(445.263672 0)"/>
     <use xlink:href="#DejaVuSans-72" transform="translate(500.244141 0)"/>
     <use xlink:href="#DejaVuSans-69" transform="translate(541.357422 0)"/>
     <use xlink:href="#DejaVuSans-62" transform="translate(569.140625 0)"/>
     <use xlink:href="#DejaVuSans-65" transform="translate(632.617188 0)"/>
     <use xlink:href="#DejaVuSans-20" transform="translate(694.140625 0)"/>
     <use xlink:href="#DejaVuSans-68" transform="translate(725.927734 0)"/>
     <use xlink:href="#DejaVuSans-69" transform="translate(789.306641 0)"/>
     <use xlink:href="#DejaVuSans-73" transform="translate(817.089844 0)"/>
     <use xlink:href="#DejaVuSans-74" transform="translate(869.189453 0)"/>
     <use xlink:href="#DejaVuSans-6f" transform="translate(908.398438 0)"/>
     <use xlink:href="#DejaVuSans-72" transform="translate(969.580078 0)"/>
     <use xlink:href="#DejaVuSans-79" transform="translate(1010.693359 0)"/>
    </g>
   </g>
   <g id="legend_1">
    <g id="line2d_39">
     <path d="M 815.08 328.498438 
L 825.08 328.498438 
L 835.08 328.498438 
" style="fill: none; stroke: #1f77b4; stroke-width: 1.5; stroke-linecap: square"/>
    </g>
    <g id="text_20">
     <!-- star -->
     <g style="fill: #a9a9a9" transform="translate(843.08 331.998438) scale(0.1 -0.1)">
      <defs>
       <path id="DejaVuSans-61" d="M 2194 1759 
Q 1497 1759 1228 1600 
Q 959 1441 959 1056 
Q 959 750 1161 570 
Q 1363 391 1709 391 
Q 2188 391 2477 730 
Q 2766 1069 2766 1631 
L 2766 1759 
L 2194 1759 
z
M 3341 1997 
L 3341 0 
L 2766 0 
L 2766 531 
Q 2569 213 2275 61 
Q 1981 -91 1556 -91 
Q 1019 -91 701 211 
Q 384 513 384 1019 
Q 384 1609 779 1909 
Q 1175 2209 1959 2209 
L 2766 2209 
L 2766 2266 
Q 2766 2663 2505 2880 
Q 2244 3097 1772 3097 
Q 1472 3097 1187 3025 
Q 903 2953 641 2809 
L 641 3341 
Q 956 3463 1253 3523 
Q 1550 3584 1831 3584 
Q 2591 3584 2966 3190 
Q 3341 2797 3341 1997 
z
" transform="scale(0.015625)"/>
      </defs>
      <use xlink:href="#DejaVuSans-73"/>
      <use xlink:href="#DejaVuSans-74" transform="translate(52.099609 0)"/>
      <use xlink:href="#DejaVuSans-61" transform="translate(91.308594 0)"/>
      <use xlink:href="#DejaVuSans-72" transform="translate(152.587891 0)"/>
     </g>
    </g>
    <g id="line2d_40">
     <path d="M 815.08 343.176562 
L 825.08 343.176562 
L 835.08 343.176562 
" style="fill: none; stroke: #ff7f0e; stroke-width: 1.5; stroke-linecap: square"/>
    </g>
    <g id="text_21">
     <!-- fork -->
     <g style="fill: #a9a9a9" transform="translate(843.08 346.676562) scale(0.1 -0.1)">
      <defs>
       <path id="DejaVuSans-66" d="M 2375 4863 
L 2375 4384 
L 1825 4384 
Q 1516 4384 1395 4259 
Q 1275 4134 1275 3809 
L 1275 3500 
L 2222 3500 
L 2222 3053 
L 1275 3053 
L 1275 0 
L 697 0 
L 697 3053 
L 147 3053 
L 147 3500 
L 697 3500 
L 697 3744 
Q 697 4328 969 4595 
Q 1241 4863 1831 4863 
L 2375 4863 
z
" transform="scale(0.015625)"/>
       <path id="DejaVuSans-6b" d="M 581 4863 
L 1159 4863 
L 1159 1991 
L 2875 3500 
L 3609 3500 
L 1753 1863 
L 3688 0 
L 2938 0 
L 1159 1709 
L 1159 0 
L 581 0 
L 581 4863 
z
" transform="scale(0.015625)"/>
      </defs>
      <use xlink:href="#DejaVuSans-66"/>
      <use xlink:href="#DejaVuSans-6f" transform="translate(35.205078 0)"/>
      <use xlink:href="#DejaVuSans-72" transform="translate(96.386719 0)"/>
      <use xlink:href="#DejaVuSans-6b" transform="translate(137.5 0)"/>
     </g>
    </g>
   </g>
  </g>
 </g>
 <defs>
  <clipPath id="pbedcccdc79">
   <rect x="108" y="43.2" width="669.6" height="277.2"/>
  </clipPath>
 </defs>
</svg>
