<?xml version="1.0" encoding="utf-8" standalone="no"?>
<!DOCTYPE svg PUBLIC "-//W3C//DTD SVG 1.1//EN"
  "http://www.w3.org/Graphics/SVG/1.1/DTD/svg11.dtd">
<svg xmlns:xlink="http://www.w3.org/1999/xlink" width="864pt" height="360pt" viewBox="0 0 864 360" xmlns="http://www.w3.org/2000/svg" version="1.1">
 <metadata>
  <rdf:RDF xmlns:dc="http://purl.org/dc/elements/1.1/" xmlns:cc="http://creativecommons.org/ns#" xmlns:rdf="http://www.w3.org/1999/02/22-rdf-syntax-ns#">
   <cc:Work>
    <dc:type rdf:resource="http://purl.org/dc/dcmitype/StillImage"/>
    <dc:date>2025-11-28T08:16:23.724596</dc:date>
    <dc:format>image/svg+xml</dc:format>
    <dc:creator>
     <cc:Agent>
      <dc:title>Matplotlib v3.10.7, https://matplotlib.org/</dc:title>
     </cc:Agent>
    </dc:creator>
   </cc:Work>
  </rdf:RDF>
 </metadata>
 <defs>
  <style type="text/css">*{stroke-linejoin: round; stroke-linecap: butt}</style>
 </defs>
 <g id="figure_1">
  <g id="patch_1">
   <path d="M 0 360 
L 864 360 
L 864 0 
L 0 0 
L 0 360 
z
" style="fill: none; opacity: 0"/>
  </g>
  <g id="axes_1">
   <g id="patch_2">
    <path d="M 108 320.4 
L 777.6 320.4 
L 777.6 43.2 
L 108 43.2 
L 108 320.4 
z
" style="fill: none; opacity: 0"/>
   </g>
   <g id="matplotlib.axis_1">
    <g id="xtick_1">
     <g id="line2d_1">
      <path d="M 129.619785 320.4 
L 129.619785 43.2 
" clip-path="url(#p3d5ed07d98)" style="fill: none; stroke-dasharray: 5.12,1.28,0.8,1.28; stroke-dashoffset: 0; stroke: #b0b0b0; stroke-width: 0.8"/>
     </g>
     <g id="line2d_2">
      <defs>
       <path id="m2c6575d01d" d="M 0 0 
L 0 3.5 
" style="stroke: #a9a9a9; stroke-width: 0.8"/>
      </defs>
      <g>
       <use xlink:href="#m2c6575d01d" x="129.619785" y="320.4" style="fill: #a9a9a9; stroke: #a9a9a9; stroke-width: 0.8"/>
      </g>
     </g>
     <g id="text_1">
      <!-- 2021-07 -->
      <g style="fill: #a9a9a9" transform="translate(108.728378 334.998438) scale(0.1 -0.1)">
       <defs>
        <path id="DejaVuSans-32" d="M 1228 531 
L 3431 531 
L 3431 0 
L 469 0 
L 469 531 
Q 828 903 1448 1529 
Q 2069 2156 2228 2338 
Q 2531 2678 2651 2914 
Q 2772 3150 2772 3378 
Q 2772 3750 2511 3984 
Q 2250 4219 1831 4219 
Q 1534 4219 1204 4116 
Q 875 4013 500 3803 
L 500 4441 
Q 881 4594 1212 4672 
Q 1544 4750 1819 4750 
Q 2544 4750 2975 4387 
Q 3406 4025 3406 3419 
Q 3406 3131 3298 2873 
Q 3191 2616 2906 2266 
Q 2828 2175 2409 1742 
Q 1991 1309 1228 531 
z
" transform="scale(0.015625)"/>
        <path id="DejaVuSans-30" d="M 2034 4250 
Q 1547 4250 1301 3770 
Q 1056 3291 1056 2328 
Q 1056 1369 1301 889 
Q 1547 409 2034 409 
Q 2525 409 2770 889 
Q 3016 1369 3016 2328 
Q 3016 3291 2770 3770 
Q 2525 4250 2034 4250 
z
M 2034 4750 
Q 2819 4750 3233 4129 
Q 3647 3509 3647 2328 
Q 3647 1150 3233 529 
Q 2819 -91 2034 -91 
Q 1250 -91 836 529 
Q 422 1150 422 2328 
Q 422 3509 836 4129 
Q 1250 4750 2034 4750 
z
" transform="scale(0.015625)"/>
        <path id="DejaVuSans-31" d="M 794 531 
L 1825 531 
L 1825 4091 
L 703 3866 
L 703 4441 
L 1819 4666 
L 2450 4666 
L 2450 531 
L 3481 531 
L 3481 0 
L 794 0 
L 794 531 
z
" transform="scale(0.015625)"/>
        <path id="DejaVuSans-2d" d="M 313 2009 
L 1997 2009 
L 1997 1497 
L 313 1497 
L 313 2009 
z
" transform="scale(0.015625)"/>
        <path id="DejaVuSans-37" d="M 525 4666 
L 3525 4666 
L 3525 4397 
L 1831 0 
L 1172 0 
L 2766 4134 
L 525 4134 
L 525 4666 
z
" transform="scale(0.015625)"/>
       </defs>
       <use xlink:href="#DejaVuSans-32"/>
       <use xlink:href="#DejaVuSans-30" transform="translate(63.623047 0)"/>
       <use xlink:href="#DejaVuSans-32" transform="translate(127.246094 0)"/>
       <use xlink:href="#DejaVuSans-31" transform="translate(190.869141 0)"/>
       <use xlink:href="#DejaVuSans-2d" transform="translate(254.492188 0)"/>
       <use xlink:href="#DejaVuSans-30" transform="translate(290.576172 0)"/>
       <use xlink:href="#DejaVuSans-37" transform="translate(354.199219 0)"/>
      </g>
     </g>
    </g>
    <g id="xtick_2">
     <g id="line2d_3">
      <path d="M 200.152416 320.4 
L 200.152416 43.2 
" clip-path="url(#p3d5ed07d98)" style="fill: none; stroke-dasharray: 5.12,1.28,0.8,1.28; stroke-dashoffset: 0; stroke: #b0b0b0; stroke-width: 0.8"/>
     </g>
     <g id="line2d_4">
      <g>
       <use xlink:href="#m2c6575d01d" x="200.152416" y="320.4" style="fill: #a9a9a9; stroke: #a9a9a9; stroke-width: 0.8"/>
      </g>
     </g>
     <g id="text_2">
      <!-- 2022-01 -->
      <g style="fill: #a9a9a9" transform="translate(179.26101 334.998438) scale(0.1 -0.1)">
       <use xlink:href="#DejaVuSans-32"/>
       <use xlink:href="#DejaVuSans-30" transform="translate(63.623047 0)"/>
       <use xlink:href="#DejaVuSans-32" transform="translate(127.246094 0)"/>
       <use xlink:href="#DejaVuSans-32" transform="translate(190.869141 0)"/>
       <use xlink:href="#DejaVuSans-2d" transform="translate(254.492188 0)"/>
       <use xlink:href="#DejaVuSans-30" transform="translate(290.576172 0)"/>
       <use xlink:href="#DejaVuSans-31" transform="translate(354.199219 0)"/>
      </g>
     </g>
    </g>
    <g id="xtick_3">
     <g id="line2d_5">
      <path d="M 269.535058 320.4 
L 269.535058 43.2 
" clip-path="url(#p3d5ed07d98)" style="fill: none; stroke-dasharray: 5.12,1.28,0.8,1.28; stroke-dashoffset: 0; stroke: #b0b0b0; stroke-width: 0.8"/>
     </g>
     <g id="line2d_6">
      <g>
       <use xlink:href="#m2c6575d01d" x="269.535058" y="320.4" style="fill: #a9a9a9; stroke: #a9a9a9; stroke-width: 0.8"/>
      </g>
     </g>
     <g id="text_3">
      <!-- 2022-07 -->
      <g style="fill: #a9a9a9" transform="translate(248.643652 334.998438) scale(0.1 -0.1)">
       <use xlink:href="#DejaVuSans-32"/>
       <use xlink:href="#DejaVuSans-30" transform="translate(63.623047 0)"/>
       <use xlink:href="#DejaVuSans-32" transform="translate(127.246094 0)"/>
       <use xlink:href="#DejaVuSans-32" transform="translate(190.869141 0)"/>
       <use xlink:href="#DejaVuSans-2d" transform="translate(254.492188 0)"/>
       <use xlink:href="#DejaVuSans-30" transform="translate(290.576172 0)"/>
       <use xlink:href="#DejaVuSans-37" transform="translate(354.199219 0)"/>
      </g>
     </g>
    </g>
    <g id="xtick_4">
     <g id="line2d_7">
      <path d="M 340.067689 320.4 
L 340.067689 43.2 
" clip-path="url(#p3d5ed07d98)" style="fill: none; stroke-dasharray: 5.12,1.28,0.8,1.28; stroke-dashoffset: 0; stroke: #b0b0b0; stroke-width: 0.8"/>
     </g>
     <g id="line2d_8">
      <g>
       <use xlink:href="#m2c6575d01d" x="340.067689" y="320.4" style="fill: #a9a9a9; stroke: #a9a9a9; stroke-width: 0.8"/>
      </g>
     </g>
     <g id="text_4">
      <!-- 2023-01 -->
      <g style="fill: #a9a9a9" transform="translate(319.176283 334.998438) scale(0.1 -0.1)">
       <defs>
        <path id="DejaVuSans-33" d="M 2597 2516 
Q 3050 2419 3304 2112 
Q 3559 1806 3559 1356 
Q 3559 666 3084 287 
Q 2609 -91 1734 -91 
Q 1441 -91 1130 -33 
Q 819 25 488 141 
L 488 750 
Q 750 597 1062 519 
Q 1375 441 1716 441 
Q 2309 441 2620 675 
Q 2931 909 2931 1356 
Q 2931 1769 2642 2001 
Q 2353 2234 1838 2234 
L 1294 2234 
L 1294 2753 
L 1863 2753 
Q 2328 2753 2575 2939 
Q 2822 3125 2822 3475 
Q 2822 3834 2567 4026 
Q 2313 4219 1838 4219 
Q 1578 4219 1281 4162 
Q 984 4106 628 3988 
L 628 4550 
Q 988 4650 1302 4700 
Q 1616 4750 1894 4750 
Q 2613 4750 3031 4423 
Q 3450 4097 3450 3541 
Q 3450 3153 3228 2886 
Q 3006 2619 2597 2516 
z
" transform="scale(0.015625)"/>
       </defs>
       <use xlink:href="#DejaVuSans-32"/>
       <use xlink:href="#DejaVuSans-30" transform="translate(63.623047 0)"/>
       <use xlink:href="#DejaVuSans-32" transform="translate(127.246094 0)"/>
       <use xlink:href="#DejaVuSans-33" transform="translate(190.869141 0)"/>
       <use xlink:href="#DejaVuSans-2d" transform="translate(254.492188 0)"/>
       <use xlink:href="#DejaVuSans-30" transform="translate(290.576172 0)"/>
       <use xlink:href="#DejaVuSans-31" transform="translate(354.199219 0)"/>
      </g>
     </g>
    </g>
    <g id="xtick_5">
     <g id="line2d_9">
      <path d="M 409.450332 320.4 
L 409.450332 43.2 
" clip-path="url(#p3d5ed07d98)" style="fill: none; stroke-dasharray: 5.12,1.28,0.8,1.28; stroke-dashoffset: 0; stroke: #b0b0b0; stroke-width: 0.8"/>
     </g>
     <g id="line2d_10">
      <g>
       <use xlink:href="#m2c6575d01d" x="409.450332" y="320.4" style="fill: #a9a9a9; stroke: #a9a9a9; stroke-width: 0.8"/>
      </g>
     </g>
     <g id="text_5">
      <!-- 2023-07 -->
      <g style="fill: #a9a9a9" transform="translate(388.558926 334.998438) scale(0.1 -0.1)">
       <use xlink:href="#DejaVuSans-32"/>
       <use xlink:href="#DejaVuSans-30" transform="translate(63.623047 0)"/>
       <use xlink:href="#DejaVuSans-32" transform="translate(127.246094 0)"/>
       <use xlink:href="#DejaVuSans-33" transform="translate(190.869141 0)"/>
       <use xlink:href="#DejaVuSans-2d" transform="translate(254.492188 0)"/>
       <use xlink:href="#DejaVuSans-30" transform="translate(290.576172 0)"/>
       <use xlink:href="#DejaVuSans-37" transform="translate(354.199219 0)"/>
      </g>
     </g>
    </g>
    <g id="xtick_6">
     <g id="line2d_11">
      <path d="M 479.982963 320.4 
L 479.982963 43.2 
" clip-path="url(#p3d5ed07d98)" style="fill: none; stroke-dasharray: 5.12,1.28,0.8,1.28; stroke-dashoffset: 0; stroke: #b0b0b0; stroke-width: 0.8"/>
     </g>
     <g id="line2d_12">
      <g>
       <use xlink:href="#m2c6575d01d" x="479.982963" y="320.4" style="fill: #a9a9a9; stroke: #a9a9a9; stroke-width: 0.8"/>
      </g>
     </g>
     <g id="text_6">
      <!-- 2024-01 -->
      <g style="fill: #a9a9a9" transform="translate(459.091557 334.998438) scale(0.1 -0.1)">
       <defs>
        <path id="DejaVuSans-34" d="M 2419 4116 
L 825 1625 
L 2419 1625 
L 2419 4116 
z
M 2253 4666 
L 3047 4666 
L 3047 1625 
L 3713 1625 
L 3713 1100 
L 3047 1100 
L 3047 0 
L 2419 0 
L 2419 1100 
L 313 1100 
L 313 1709 
L 2253 4666 
z
" transform="scale(0.015625)"/>
       </defs>
       <use xlink:href="#DejaVuSans-32"/>
       <use xlink:href="#DejaVuSans-30" transform="translate(63.623047 0)"/>
       <use xlink:href="#DejaVuSans-32" transform="translate(127.246094 0)"/>
       <use xlink:href="#DejaVuSans-34" transform="translate(190.869141 0)"/>
       <use xlink:href="#DejaVuSans-2d" transform="translate(254.492188 0)"/>
       <use xlink:href="#DejaVuSans-30" transform="translate(290.576172 0)"/>
       <use xlink:href="#DejaVuSans-31" transform="translate(354.199219 0)"/>
      </g>
     </g>
    </g>
    <g id="xtick_7">
     <g id="line2d_13">
      <path d="M 549.748935 320.4 
L 549.748935 43.2 
" clip-path="url(#p3d5ed07d98)" style="fill: none; stroke-dasharray: 5.12,1.28,0.8,1.28; stroke-dashoffset: 0; stroke: #b0b0b0; stroke-width: 0.8"/>
     </g>
     <g id="line2d_14">
      <g>
       <use xlink:href="#m2c6575d01d" x="549.748935" y="320.4" style="fill: #a9a9a9; stroke: #a9a9a9; stroke-width: 0.8"/>
      </g>
     </g>
     <g id="text_7">
      <!-- 2024-07 -->
      <g style="fill: #a9a9a9" transform="translate(528.857529 334.998438) scale(0.1 -0.1)">
       <use xlink:href="#DejaVuSans-32"/>
       <use xlink:href="#DejaVuSans-30" transform="translate(63.623047 0)"/>
       <use xlink:href="#DejaVuSans-32" transform="translate(127.246094 0)"/>
       <use xlink:href="#DejaVuSans-34" transform="translate(190.869141 0)"/>
       <use xlink:href="#DejaVuSans-2d" transform="translate(254.492188 0)"/>
       <use xlink:href="#DejaVuSans-30" transform="translate(290.576172 0)"/>
       <use xlink:href="#DejaVuSans-37" transform="translate(354.199219 0)"/>
      </g>
     </g>
    </g>
    <g id="xtick_8">
     <g id="line2d_15">
      <path d="M 620.281566 320.4 
L 620.281566 43.2 
" clip-path="url(#p3d5ed07d98)" style="fill: none; stroke-dasharray: 5.12,1.28,0.8,1.28; stroke-dashoffset: 0; stroke: #b0b0b0; stroke-width: 0.8"/>
     </g>
     <g id="line2d_16">
      <g>
       <use xlink:href="#m2c6575d01d" x="620.281566" y="320.4" style="fill: #a9a9a9; stroke: #a9a9a9; stroke-width: 0.8"/>
      </g>
     </g>
     <g id="text_8">
      <!-- 2025-01 -->
      <g style="fill: #a9a9a9" transform="translate(599.39016 334.998438) scale(0.1 -0.1)">
       <defs>
        <path id="DejaVuSans-35" d="M 691 4666 
L 3169 4666 
L 3169 4134 
L 1269 4134 
L 1269 2991 
Q 1406 3038 1543 3061 
Q 1681 3084 1819 3084 
Q 2600 3084 3056 2656 
Q 3513 2228 3513 1497 
Q 3513 744 3044 326 
Q 2575 -91 1722 -91 
Q 1428 -91 1123 -41 
Q 819 9 494 109 
L 494 744 
Q 775 591 1075 516 
Q 1375 441 1709 441 
Q 2250 441 2565 725 
Q 2881 1009 2881 1497 
Q 2881 1984 2565 2268 
Q 2250 2553 1709 2553 
Q 1456 2553 1204 2497 
Q 953 2441 691 2322 
L 691 4666 
z
" transform="scale(0.015625)"/>
       </defs>
       <use xlink:href="#DejaVuSans-32"/>
       <use xlink:href="#DejaVuSans-30" transform="translate(63.623047 0)"/>
       <use xlink:href="#DejaVuSans-32" transform="translate(127.246094 0)"/>
       <use xlink:href="#DejaVuSans-35" transform="translate(190.869141 0)"/>
       <use xlink:href="#DejaVuSans-2d" transform="translate(254.492188 0)"/>
       <use xlink:href="#DejaVuSans-30" transform="translate(290.576172 0)"/>
       <use xlink:href="#DejaVuSans-31" transform="translate(354.199219 0)"/>
      </g>
     </g>
    </g>
    <g id="xtick_9">
     <g id="line2d_17">
      <path d="M 689.664209 320.4 
L 689.664209 43.2 
" clip-path="url(#p3d5ed07d98)" style="fill: none; stroke-dasharray: 5.12,1.28,0.8,1.28; stroke-dashoffset: 0; stroke: #b0b0b0; stroke-width: 0.8"/>
     </g>
     <g id="line2d_18">
      <g>
       <use xlink:href="#m2c6575d01d" x="689.664209" y="320.4" style="fill: #a9a9a9; stroke: #a9a9a9; stroke-width: 0.8"/>
      </g>
     </g>
     <g id="text_9">
      <!-- 2025-07 -->
      <g style="fill: #a9a9a9" transform="translate(668.772803 334.998438) scale(0.1 -0.1)">
       <use xlink:href="#DejaVuSans-32"/>
       <use xlink:href="#DejaVuSans-30" transform="translate(63.623047 0)"/>
       <use xlink:href="#DejaVuSans-32" transform="translate(127.246094 0)"/>
       <use xlink:href="#DejaVuSans-35" transform="translate(190.869141 0)"/>
       <use xlink:href="#DejaVuSans-2d" transform="translate(254.492188 0)"/>
       <use xlink:href="#DejaVuSans-30" transform="translate(290.576172 0)"/>
       <use xlink:href="#DejaVuSans-37" transform="translate(354.199219 0)"/>
      </g>
     </g>
    </g>
    <g id="xtick_10">
     <g id="line2d_19">
      <path d="M 760.19684 320.4 
L 760.19684 43.2 
" clip-path="url(#p3d5ed07d98)" style="fill: none; stroke-dasharray: 5.12,1.28,0.8,1.28; stroke-dashoffset: 0; stroke: #b0b0b0; stroke-width: 0.8"/>
     </g>
     <g id="line2d_20">
      <g>
       <use xlink:href="#m2c6575d01d" x="760.19684" y="320.4" style="fill: #a9a9a9; stroke: #a9a9a9; stroke-width: 0.8"/>
      </g>
     </g>
     <g id="text_10">
      <!-- 2026-01 -->
      <g style="fill: #a9a9a9" transform="translate(739.305434 334.998438) scale(0.1 -0.1)">
       <defs>
        <path id="DejaVuSans-36" d="M 2113 2584 
Q 1688 2584 1439 2293 
Q 1191 2003 1191 1497 
Q 1191 994 1439 701 
Q 1688 409 2113 409 
Q 2538 409 2786 701 
Q 3034 994 3034 1497 
Q 3034 2003 2786 2293 
Q 2538 2584 2113 2584 
z
M 3366 4563 
L 3366 3988 
Q 3128 4100 2886 4159 
Q 2644 4219 2406 4219 
Q 1781 4219 1451 3797 
Q 1122 3375 1075 2522 
Q 1259 2794 1537 2939 
Q 1816 3084 2150 3084 
Q 2853 3084 3261 2657 
Q 3669 2231 3669 1497 
Q 3669 778 3244 343 
Q 2819 -91 2113 -91 
Q 1303 -91 875 529 
Q 447 1150 447 2328 
Q 447 3434 972 4092 
Q 1497 4750 2381 4750 
Q 2619 4750 2861 4703 
Q 3103 4656 3366 4563 
z
" transform="scale(0.015625)"/>
       </defs>
       <use xlink:href="#DejaVuSans-32"/>
       <use xlink:href="#DejaVuSans-30" transform="translate(63.623047 0)"/>
       <use xlink:href="#DejaVuSans-32" transform="translate(127.246094 0)"/>
       <use xlink:href="#DejaVuSans-36" transform="translate(190.869141 0)"/>
       <use xlink:href="#DejaVuSans-2d" transform="translate(254.492188 0)"/>
       <use xlink:href="#DejaVuSans-30" transform="translate(290.576172 0)"/>
       <use xlink:href="#DejaVuSans-31" transform="translate(354.199219 0)"/>
      </g>
     </g>
    </g>
   </g>
   <g id="matplotlib.axis_2">
    <g id="ytick_1">
     <g id="line2d_21">
      <path d="M 108 307.830104 
L 777.6 307.830104 
" clip-path="url(#p3d5ed07d98)" style="fill: none; stroke-dasharray: 5.12,1.28,0.8,1.28; stroke-dashoffset: 0; stroke: #b0b0b0; stroke-width: 0.8"/>
     </g>
     <g id="line2d_22">
      <defs>
       <path id="m62c33fd980" d="M 0 0 
L -3.5 0 
" style="stroke: #a9a9a9; stroke-width: 0.8"/>
      </defs>
      <g>
       <use xlink:href="#m62c33fd980" x="108" y="307.830104" style="fill: #a9a9a9; stroke: #a9a9a9; stroke-width: 0.8"/>
      </g>
     </g>
     <g id="text_11">
      <!-- 0 -->
      <g style="fill: #a9a9a9" transform="translate(94.6375 311.629323) scale(0.1 -0.1)">
       <use xlink:href="#DejaVuSans-30"/>
      </g>
     </g>
    </g>
    <g id="ytick_2">
     <g id="line2d_23">
      <path d="M 108 277.726174 
L 777.6 277.726174 
" clip-path="url(#p3d5ed07d98)" style="fill: none; stroke-dasharray: 5.12,1.28,0.8,1.28; stroke-dashoffset: 0; stroke: #b0b0b0; stroke-width: 0.8"/>
     </g>
     <g id="line2d_24">
      <g>
       <use xlink:href="#m62c33fd980" x="108" y="277.726174" style="fill: #a9a9a9; stroke: #a9a9a9; stroke-width: 0.8"/>
      </g>
     </g>
     <g id="text_12">
      <!-- 1000 -->
      <g style="fill: #a9a9a9" transform="translate(75.55 281.525392) scale(0.1 -0.1)">
       <use xlink:href="#DejaVuSans-31"/>
       <use xlink:href="#DejaVuSans-30" transform="translate(63.623047 0)"/>
       <use xlink:href="#DejaVuSans-30" transform="translate(127.246094 0)"/>
       <use xlink:href="#DejaVuSans-30" transform="translate(190.869141 0)"/>
      </g>
     </g>
    </g>
    <g id="ytick_3">
     <g id="line2d_25">
      <path d="M 108 247.622243 
L 777.6 247.622243 
" clip-path="url(#p3d5ed07d98)" style="fill: none; stroke-dasharray: 5.12,1.28,0.8,1.28; stroke-dashoffset: 0; stroke: #b0b0b0; stroke-width: 0.8"/>
     </g>
     <g id="line2d_26">
      <g>
       <use xlink:href="#m62c33fd980" x="108" y="247.622243" style="fill: #a9a9a9; stroke: #a9a9a9; stroke-width: 0.8"/>
      </g>
     </g>
     <g id="text_13">
      <!-- 2000 -->
      <g style="fill: #a9a9a9" transform="translate(75.55 251.421462) scale(0.1 -0.1)">
       <use xlink:href="#DejaVuSans-32"/>
       <use xlink:href="#DejaVuSans-30" transform="translate(63.623047 0)"/>
       <use xlink:href="#DejaVuSans-30" transform="translate(127.246094 0)"/>
       <use xlink:href="#DejaVuSans-30" transform="translate(190.869141 0)"/>
      </g>
     </g>
    </g>
    <g id="ytick_4">
     <g id="line2d_27">
      <path d="M 108 217.518313 
L 777.6 217.518313 
" clip-path="url(#p3d5ed07d98)" style="fill: none; stroke-dasharray: 5.12,1.28,0.8,1.28; stroke-dashoffset: 0; stroke: #b0b0b0; stroke-width: 0.8"/>
     </g>
     <g id="line2d_28">
      <g>
       <use xlink:href="#m62c33fd980" x="108" y="217.518313" style="fill: #a9a9a9; stroke: #a9a9a9; stroke-width: 0.8"/>
      </g>
     </g>
     <g id="text_14">
      <!-- 3000 -->
      <g style="fill: #a9a9a9" transform="translate(75.55 221.317532) scale(0.1 -0.1)">
       <use xlink:href="#DejaVuSans-33"/>
       <use xlink:href="#DejaVuSans-30" transform="translate(63.623047 0)"/>
       <use xlink:href="#DejaVuSans-30" transform="translate(127.246094 0)"/>
       <use xlink:href="#DejaVuSans-30" transform="translate(190.869141 0)"/>
      </g>
     </g>
    </g>
    <g id="ytick_5">
     <g id="line2d_29">
      <path d="M 108 187.414383 
L 777.6 187.414383 
" clip-path="url(#p3d5ed07d98)" style="fill: none; stroke-dasharray: 5.12,1.28,0.8,1.28; stroke-dashoffset: 0; stroke: #b0b0b0; stroke-width: 0.8"/>
     </g>
     <g id="line2d_30">
      <g>
       <use xlink:href="#m62c33fd980" x="108" y="187.414383" style="fill: #a9a9a9; stroke: #a9a9a9; stroke-width: 0.8"/>
      </g>
     </g>
     <g id="text_15">
      <!-- 4000 -->
      <g style="fill: #a9a9a9" transform="translate(75.55 191.213602) scale(0.1 -0.1)">
       <use xlink:href="#DejaVuSans-34"/>
       <use xlink:href="#DejaVuSans-30" transform="translate(63.623047 0)"/>
       <use xlink:href="#DejaVuSans-30" transform="translate(127.246094 0)"/>
       <use xlink:href="#DejaVuSans-30" transform="translate(190.869141 0)"/>
      </g>
     </g>
    </g>
    <g id="ytick_6">
     <g id="line2d_31">
      <path d="M 108 157.310453 
L 777.6 157.310453 
" clip-path="url(#p3d5ed07d98)" style="fill: none; stroke-dasharray: 5.12,1.28,0.8,1.28; stroke-dashoffset: 0; stroke: #b0b0b0; stroke-width: 0.8"/>
     </g>
     <g id="line2d_32">
      <g>
       <use xlink:href="#m62c33fd980" x="108" y="157.310453" style="fill: #a9a9a9; stroke: #a9a9a9; stroke-width: 0.8"/>
      </g>
     </g>
     <g id="text_16">
      <!-- 5000 -->
      <g style="fill: #a9a9a9" transform="translate(75.55 161.109672) scale(0.1 -0.1)">
       <use xlink:href="#DejaVuSans-35"/>
       <use xlink:href="#DejaVuSans-30" transform="translate(63.623047 0)"/>
       <use xlink:href="#DejaVuSans-30" transform="translate(127.246094 0)"/>
       <use xlink:href="#DejaVuSans-30" transform="translate(190.869141 0)"/>
      </g>
     </g>
    </g>
    <g id="ytick_7">
     <g id="line2d_33">
      <path d="M 108 127.206523 
L 777.6 127.206523 
" clip-path="url(#p3d5ed07d98)" style="fill: none; stroke-dasharray: 5.12,1.28,0.8,1.28; stroke-dashoffset: 0; stroke: #b0b0b0; stroke-width: 0.8"/>
     </g>
     <g id="line2d_34">
      <g>
       <use xlink:href="#m62c33fd980" x="108" y="127.206523" style="fill: #a9a9a9; stroke: #a9a9a9; stroke-width: 0.8"/>
      </g>
     </g>
     <g id="text_17">
      <!-- 6000 -->
      <g style="fill: #a9a9a9" transform="translate(75.55 131.005741) scale(0.1 -0.1)">
       <use xlink:href="#DejaVuSans-36"/>
       <use xlink:href="#DejaVuSans-30" transform="translate(63.623047 0)"/>
       <use xlink:href="#DejaVuSans-30" transform="translate(127.246094 0)"/>
       <use xlink:href="#DejaVuSans-30" transform="translate(190.869141 0)"/>
      </g>
     </g>
    </g>
    <g id="ytick_8">
     <g id="line2d_35">
      <path d="M 108 97.102592 
L 777.6 97.102592 
" clip-path="url(#p3d5ed07d98)" style="fill: none; stroke-dasharray: 5.12,1.28,0.8,1.28; stroke-dashoffset: 0; stroke: #b0b0b0; stroke-width: 0.8"/>
     </g>
     <g id="line2d_36">
      <g>
       <use xlink:href="#m62c33fd980" x="108" y="97.102592" style="fill: #a9a9a9; stroke: #a9a9a9; stroke-width: 0.8"/>
      </g>
     </g>
     <g id="text_18">
      <!-- 7000 -->
      <g style="fill: #a9a9a9" transform="translate(75.55 100.901811) scale(0.1 -0.1)">
       <use xlink:href="#DejaVuSans-37"/>
       <use xlink:href="#DejaVuSans-30" transform="translate(63.623047 0)"/>
       <use xlink:href="#DejaVuSans-30" transform="translate(127.246094 0)"/>
       <use xlink:href="#DejaVuSans-30" transform="translate(190.869141 0)"/>
      </g>
     </g>
    </g>
    <g id="ytick_9">
     <g id="line2d_37">
      <path d="M 108 66.998662 
L 777.6 66.998662 
" clip-path="url(#p3d5ed07d98)" style="fill: none; stroke-dasharray: 5.12,1.28,0.8,1.28; stroke-dashoffset: 0; stroke: #b0b0b0; stroke-width: 0.8"/>
     </g>
     <g id="line2d_38">
      <g>
       <use xlink:href="#m62c33fd980" x="108" y="66.998662" style="fill: #a9a9a9; stroke: #a9a9a9; stroke-width: 0.8"/>
      </g>
     </g>
     <g id="text_19">
      <!-- 8000 -->
      <g style="fill: #a9a9a9" transform="translate(75.55 70.797881) scale(0.1 -0.1)">
       <defs>
        <path id="DejaVuSans-38" d="M 2034 2216 
Q 1584 2216 1326 1975 
Q 1069 1734 1069 1313 
Q 1069 891 1326 650 
Q 1584 409 2034 409 
Q 2484 409 2743 651 
Q 3003 894 3003 1313 
Q 3003 1734 2745 1975 
Q 2488 2216 2034 2216 
z
M 1403 2484 
Q 997 2584 770 2862 
Q 544 3141 544 3541 
Q 544 4100 942 4425 
Q 1341 4750 2034 4750 
Q 2731 4750 3128 4425 
Q 3525 4100 3525 3541 
Q 3525 3141 3298 2862 
Q 3072 2584 2669 2484 
Q 3125 2378 3379 2068 
Q 3634 1759 3634 1313 
Q 3634 634 3220 271 
Q 2806 -91 2034 -91 
Q 1263 -91 848 271 
Q 434 634 434 1313 
Q 434 1759 690 2068 
Q 947 2378 1403 2484 
z
M 1172 3481 
Q 1172 3119 1398 2916 
Q 1625 2713 2034 2713 
Q 2441 2713 2670 2916 
Q 2900 3119 2900 3481 
Q 2900 3844 2670 4047 
Q 2441 4250 2034 4250 
Q 1625 4250 1398 4047 
Q 1172 3844 1172 3481 
z
" transform="scale(0.015625)"/>
       </defs>
       <use xlink:href="#DejaVuSans-38"/>
       <use xlink:href="#DejaVuSans-30" transform="translate(63.623047 0)"/>
       <use xlink:href="#DejaVuSans-30" transform="translate(127.246094 0)"/>
       <use xlink:href="#DejaVuSans-30" transform="translate(190.869141 0)"/>
      </g>
     </g>
    </g>
   </g>
   <g id="line2d_39">
    <path d="M 138.436364 307.739792 
L 140.736341 307.529065 
L 141.11967 307.348441 
L 142.652988 307.137714 
L 144.186306 306.80657 
L 144.952965 306.686155 
L 146.869613 306.505531 
L 147.636272 306.204492 
L 148.019602 305.662621 
L 148.402931 305.391686 
L 148.786261 304.488568 
L 149.16959 304.42836 
L 149.936249 303.946697 
L 150.702908 303.374722 
L 152.236226 302.230773 
L 152.619556 302.080253 
L 153.386215 301.59859 
L 154.536203 301.026616 
L 154.919533 300.364329 
L 155.686192 299.762251 
L 156.452851 299.521419 
L 157.602839 299.340796 
L 159.902817 298.979548 
L 160.286146 298.798925 
L 162.969453 298.558093 
L 164.502771 298.166742 
L 167.569407 297.715183 
L 167.952736 297.504456 
L 168.336066 297.444248 
L 169.102725 297.173313 
L 171.786032 296.69165 
L 172.552691 296.450818 
L 176.002656 295.84874 
L 176.769315 295.668116 
L 178.302633 295.457389 
L 179.069292 295.216557 
L 179.452622 294.644582 
L 180.60261 294.16292 
L 181.752599 293.831776 
L 182.135929 293.621049 
L 182.902588 293.470529 
L 184.435906 292.988866 
L 185.202565 292.928658 
L 185.969224 292.717931 
L 187.502542 292.296476 
L 187.885871 292.266372 
L 188.65253 291.875021 
L 189.03586 291.814813 
L 189.419189 291.604086 
L 193.635814 290.881591 
L 195.169132 290.399928 
L 195.552462 290.128993 
L 197.469109 289.466706 
L 198.235768 288.894732 
L 199.385757 288.6539 
L 204.369041 287.148704 
L 204.75237 287.088496 
L 206.285688 286.456313 
L 206.669018 286.396106 
L 207.435677 286.064962 
L 208.202336 286.034858 
L 209.352324 285.673611 
L 209.735654 285.673611 
L 210.118983 285.492988 
L 210.885642 285.402676 
L 211.268972 285.252156 
L 213.185619 285.161844 
L 213.568949 285.071533 
L 214.335608 284.650078 
L 215.485597 284.228623 
L 216.252256 283.807168 
L 217.402244 283.295401 
L 218.935562 282.482595 
L 219.318892 282.031036 
L 220.085551 280.766671 
L 220.46888 280.646255 
L 220.85221 280.646255 
L 222.385528 279.773241 
L 222.768857 279.682929 
L 223.152187 279.291578 
L 223.918846 278.960435 
L 224.685505 278.599188 
L 225.068834 278.117525 
L 225.452164 277.455238 
L 225.835493 277.214407 
L 226.218823 276.522016 
L 226.602153 276.070458 
L 228.90213 274.745885 
L 230.435448 273.300896 
L 230.818777 272.367674 
L 231.202107 271.765596 
L 231.585436 271.434452 
L 231.968766 271.253829 
L 236.56872 267.009175 
L 238.102038 266.015745 
L 238.485368 265.865225 
L 240.018686 264.901899 
L 240.402015 264.721276 
L 242.318663 262.854832 
L 243.085322 262.523689 
L 243.851981 261.981818 
L 244.23531 261.740987 
L 244.61864 261.680779 
L 245.768628 260.988388 
L 246.151958 260.53683 
L 248.068605 259.422984 
L 248.451935 259.272464 
L 249.601924 258.429554 
L 255.351866 256.262071 
L 256.118525 255.509473 
L 257.268514 254.907395 
L 258.035173 254.395628 
L 258.801832 254.154796 
L 259.185161 253.883861 
L 259.568491 253.763445 
L 260.71848 252.950639 
L 262.635127 252.49908 
L 263.785116 251.776586 
L 264.935104 251.50565 
L 265.318434 251.415339 
L 266.468422 250.542325 
L 268.00174 250.090766 
L 268.38507 249.759623 
L 270.685047 248.916712 
L 271.451706 248.766193 
L 272.218365 248.43505 
L 274.901672 247.381412 
L 275.668331 247.2911 
L 276.818319 246.869645 
L 278.734967 245.876216 
L 281.034944 244.521539 
L 281.801603 244.310811 
L 282.951591 243.708733 
L 283.718251 243.558213 
L 284.48491 243.07655 
L 285.251569 242.865822 
L 286.401557 242.38416 
L 287.934875 242.173432 
L 288.701534 241.751977 
L 289.084864 241.39073 
L 289.468193 240.668236 
L 291.001511 240.216677 
L 292.534829 239.494182 
L 295.984795 237.898674 
L 296.751454 237.71805 
L 297.901443 237.115972 
L 298.284772 237.055764 
L 300.20142 236.062334 
L 300.968079 235.550567 
L 302.118067 235.309736 
L 304.034715 234.797969 
L 304.418044 234.466826 
L 305.184703 234.195891 
L 307.101351 233.383084 
L 307.484681 233.082045 
L 307.86801 232.931526 
L 308.634669 232.479967 
L 310.167987 231.9682 
L 310.934646 231.456433 
L 311.317976 231.034978 
L 311.701305 230.794146 
L 312.084635 230.703835 
L 312.851294 230.041548 
L 313.234623 229.98134 
L 313.617953 229.319054 
L 314.001282 229.13843 
L 314.384612 228.807287 
L 314.767941 228.747079 
L 315.5346 228.235312 
L 316.301259 227.964377 
L 316.684589 227.663338 
L 317.067918 227.512818 
L 318.984566 226.278557 
L 321.284543 225.224919 
L 321.667873 224.532529 
L 322.434532 223.93045 
L 322.817861 223.840139 
L 325.117838 222.696189 
L 325.884497 222.365046 
L 326.651156 221.793071 
L 327.801145 220.679226 
L 328.567804 220.197563 
L 328.951134 219.746004 
L 330.484452 218.632159 
L 331.251111 217.819353 
L 332.01777 217.548417 
L 332.784429 217.006546 
L 333.934417 216.374364 
L 334.317747 216.314156 
L 337.767712 214.50792 
L 338.534371 214.297193 
L 340.067689 213.755322 
L 340.451019 213.424179 
L 341.984337 212.791996 
L 342.367667 212.67158 
L 343.134326 212.159814 
L 343.900985 211.82867 
L 344.667644 211.256696 
L 345.434303 209.661187 
L 346.200962 208.75807 
L 347.35095 208.125887 
L 348.117609 207.794744 
L 348.500939 207.734536 
L 349.267598 207.373289 
L 350.800916 206.831418 
L 351.567575 206.379859 
L 352.334234 205.988508 
L 352.717564 205.868092 
L 355.017541 204.423104 
L 355.40087 203.971545 
L 356.550859 203.279154 
L 356.934188 203.128635 
L 357.700847 202.646972 
L 359.234165 201.773958 
L 359.617495 201.683646 
L 360.000824 201.352503 
L 362.684131 200.449385 
L 363.06746 200.178449 
L 363.83412 199.937618 
L 366.900756 198.432421 
L 367.667415 198.010966 
L 368.050744 197.830343 
L 368.817403 197.19816 
L 369.584062 196.987433 
L 369.967392 196.626186 
L 370.350721 196.565978 
L 371.11738 195.963899 
L 373.034028 194.789846 
L 373.800687 194.549014 
L 374.184016 194.308183 
L 374.567346 194.247975 
L 376.100664 193.495377 
L 377.250653 193.104026 
L 378.017312 192.98361 
L 379.55063 192.381531 
L 379.933959 192.351428 
L 381.467277 191.749349 
L 382.617266 190.906439 
L 383.000595 190.755919 
L 383.767254 190.30436 
L 384.150584 190.214049 
L 386.450561 188.859372 
L 386.833891 188.76906 
L 387.983879 188.046566 
L 389.133868 187.625111 
L 389.900527 187.354175 
L 391.433845 186.812304 
L 392.200504 186.541369 
L 393.733822 186.210226 
L 394.500481 185.969394 
L 396.417128 185.307108 
L 397.567117 184.945861 
L 397.950447 184.795341 
L 399.100435 184.614717 
L 401.400412 184.163159 
L 402.550401 183.892223 
L 402.93373 183.7116 
L 403.700389 183.56108 
L 404.467048 183.350352 
L 405.233707 182.989105 
L 405.617037 182.838586 
L 406.000366 182.838586 
L 410.216991 181.483909 
L 410.600321 181.273181 
L 410.98365 181.273181 
L 411.750309 180.972142 
L 412.133639 180.550687 
L 414.433616 179.557257 
L 415.966934 179.015386 
L 416.350263 178.774555 
L 417.500252 178.413308 
L 418.266911 178.20258 
L 418.65024 177.931645 
L 419.03357 177.841333 
L 419.416899 177.51019 
L 420.566888 177.269358 
L 421.333547 176.908111 
L 421.716877 176.426448 
L 425.933501 175.463123 
L 426.316831 175.463123 
L 427.08349 175.222291 
L 430.533455 174.319173 
L 430.916785 174.168654 
L 431.683444 174.018134 
L 433.600092 173.506367 
L 434.75008 173.14512 
L 436.666728 172.512938 
L 437.433387 172.181794 
L 438.200046 171.880755 
L 438.583375 171.60982 
L 439.350034 171.368988 
L 442.033341 170.315351 
L 443.566659 170.134727 
L 446.633295 168.960674 
L 447.016625 168.659634 
L 447.399954 168.569323 
L 447.783284 168.358595 
L 448.166613 168.328491 
L 452.383238 166.732983 
L 454.299886 166.191112 
L 455.066545 165.799761 
L 456.216533 165.528826 
L 457.749851 164.234357 
L 459.283169 163.541966 
L 460.816487 162.87968 
L 461.199817 162.789368 
L 461.583146 162.518433 
L 462.349805 162.277601 
L 462.733135 162.006666 
L 464.649782 161.344379 
L 468.483078 159.327416 
L 469.249737 158.966169 
L 469.633066 158.66513 
L 470.399725 158.394194 
L 472.699702 157.250245 
L 473.083032 157.159933 
L 474.23302 156.618062 
L 475.766338 156.076192 
L 476.532997 155.745048 
L 477.299657 155.624633 
L 477.682986 155.353697 
L 479.216304 155.052658 
L 479.982963 154.721515 
L 481.899611 153.788293 
L 486.882894 151.530498 
L 488.032883 151.139147 
L 488.416213 150.868212 
L 489.182872 150.7779 
L 489.566201 150.506965 
L 490.33286 150.386549 
L 491.099519 149.995198 
L 491.866178 149.754366 
L 493.399496 149.212496 
L 494.549485 148.79104 
L 496.466132 148.279274 
L 497.99945 147.616987 
L 498.766109 147.195532 
L 500.299428 146.382726 
L 501.066087 146.202102 
L 501.449416 145.961271 
L 501.832746 145.870959 
L 503.749393 144.907633 
L 506.816029 143.793788 
L 507.199359 143.673372 
L 507.966018 143.251917 
L 509.882665 142.559527 
L 512.182643 141.596201 
L 513.715961 140.843603 
L 517.549256 139.278199 
L 518.315915 138.886847 
L 518.699244 138.796536 
L 519.465903 138.495496 
L 519.849233 138.495496 
L 520.615892 138.134249 
L 522.14921 136.809676 
L 522.53254 136.689261 
L 522.915869 136.448429 
L 524.065858 136.117286 
L 524.449187 135.816247 
L 525.215846 135.545311 
L 526.365835 134.762609 
L 527.132494 134.551881 
L 527.899153 134.130426 
L 529.049141 133.859491 
L 530.965789 133.167101 
L 531.732448 132.926269 
L 532.882436 132.294087 
L 533.649095 131.902736 
L 534.415755 131.692008 
L 535.949073 130.969514 
L 538.24905 130.156708 
L 539.399038 129.614837 
L 541.315686 128.651511 
L 542.082345 128.350472 
L 542.465674 127.989225 
L 543.615663 127.537666 
L 543.998992 127.477458 
L 545.532311 126.754964 
L 546.682299 126.393716 
L 547.832288 125.972261 
L 548.598947 125.73143 
L 549.365606 125.58091 
L 550.132265 125.159455 
L 550.515594 125.008936 
L 550.898924 124.707896 
L 552.048912 124.406857 
L 552.815571 124.105818 
L 553.58223 123.774674 
L 555.115548 123.142492 
L 557.798855 122.419998 
L 558.565514 122.118958 
L 560.098832 121.817919 
L 560.865491 121.667399 
L 562.01548 121.21584 
L 563.165468 120.975009 
L 565.465445 119.590228 
L 566.615434 118.867734 
L 568.915411 118.14524 
L 569.298741 117.8442 
L 572.365377 116.730355 
L 573.515365 116.369108 
L 574.282024 115.947653 
L 575.048683 115.736925 
L 575.432013 115.526198 
L 576.198672 115.375678 
L 577.73199 114.773599 
L 578.498649 114.261833 
L 579.648638 113.960793 
L 580.798626 113.178091 
L 581.181956 113.117883 
L 582.715274 112.485701 
L 584.248592 112.09435 
L 584.631921 112.034142 
L 585.015251 111.853518 
L 585.39858 111.823414 
L 586.165239 111.552479 
L 586.548569 111.522375 
L 587.698557 111.070816 
L 589.231875 110.619257 
L 589.998534 110.017178 
L 591.531853 109.144164 
L 591.915182 109.053853 
L 592.298512 108.843125 
L 592.681841 108.782917 
L 596.131807 107.036889 
L 596.515136 106.675642 
L 598.431784 106.193979 
L 599.581772 105.652108 
L 600.348431 105.441381 
L 600.731761 105.260757 
L 601.11509 104.929614 
L 603.031738 104.237224 
L 608.015022 102.37078 
L 608.781681 102.22026 
L 610.698328 101.588078 
L 611.848317 101.076311 
L 614.531624 100.263505 
L 615.298283 99.811946 
L 628.331486 95.778019 
L 629.098145 95.567292 
L 630.248134 95.145837 
L 630.631463 95.145837 
L 631.781452 94.874901 
L 632.548111 94.724382 
L 633.31477 94.513654 
L 634.464758 93.881472 
L 635.614747 93.520225 
L 638.298054 92.587003 
L 639.831372 91.804301 
L 640.98136 91.533365 
L 641.748019 91.292534 
L 642.514678 90.901183 
L 642.898008 90.570039 
L 643.664667 90.329208 
L 644.047996 90.088377 
L 644.814655 89.998065 
L 647.497962 89.215363 
L 648.647951 88.974531 
L 649.797939 88.673492 
L 650.564598 88.492868 
L 651.714587 87.89079 
L 655.931211 86.295281 
L 656.314541 86.20497 
L 656.69787 85.994242 
L 657.464529 85.873826 
L 658.231188 85.723307 
L 658.614518 85.723307 
L 659.764507 85.362059 
L 660.914495 85.000812 
L 664.364461 84.007383 
L 665.13112 83.796655 
L 665.514449 83.706343 
L 665.897779 83.465512 
L 666.664438 83.314992 
L 667.431097 83.22468 
L 667.814426 83.013953 
L 668.197756 82.983849 
L 669.347744 82.441978 
L 670.497733 82.171043 
L 671.264392 81.8399 
L 672.031051 81.568964 
L 672.79771 81.358237 
L 673.564369 81.027094 
L 673.947699 80.966886 
L 674.714358 80.69595 
L 675.864346 80.364807 
L 676.631005 80.304599 
L 677.780994 79.883144 
L 678.547653 79.762728 
L 681.230959 78.769299 
L 683.530937 78.377948 
L 684.297596 78.137116 
L 684.680925 78.076908 
L 685.447584 77.745765 
L 685.830914 77.685557 
L 686.214243 77.504934 
L 686.980902 76.842647 
L 690.814197 75.427763 
L 693.114174 74.825684 
L 693.880834 74.404229 
L 694.264163 74.313917 
L 695.414152 73.681735 
L 695.797481 73.591423 
L 696.180811 73.290383 
L 697.330799 72.95924 
L 703.464071 70.189679 
L 703.847401 70.129471 
L 706.147378 68.955418 
L 706.530708 68.714586 
L 707.680696 68.383443 
L 709.214014 67.75126 
L 709.597344 67.721156 
L 711.513991 66.998662 
L 712.28065 66.848142 
L 713.047309 66.276168 
L 713.430639 66.276168 
L 714.197298 66.005232 
L 714.580627 65.945024 
L 714.963957 65.734297 
L 716.497275 65.433258 
L 718.030593 64.770971 
L 718.413923 64.770971 
L 719.563911 64.37962 
L 720.33057 64.259204 
L 721.480559 63.596918 
L 722.247218 63.205567 
L 724.163865 62.573384 
L 724.930524 62.242241 
L 727.230501 61.579955 
L 728.38049 61.339123 
L 729.530479 60.917668 
L 731.447126 60.225278 
L 736.813739 58.900705 
L 738.347057 58.17821 
L 739.497046 57.816963 
L 742.180353 57.275093 
L 742.947012 57.154677 
L 745.246989 56.251559 
L 746.013648 56.131143 
L 746.780307 55.8 
L 747.163636 55.8 
L 747.163636 55.8 
" clip-path="url(#p3d5ed07d98)" style="fill: none; stroke: #1f77b4; stroke-width: 1.5; stroke-linecap: square"/>
   </g>
   <g id="line2d_40">
    <path d="M 138.819693 307.8 
L 142.269659 307.709688 
L 145.336295 307.559169 
L 146.869613 307.559169 
L 147.252943 307.438753 
L 149.16959 307.348441 
L 151.469567 307.077506 
L 153.769544 306.987194 
L 154.536203 306.896882 
L 157.21951 306.776466 
L 159.902817 306.686155 
L 161.819464 306.625947 
L 166.802748 306.535635 
L 168.719395 306.475427 
L 172.169361 306.385115 
L 173.702679 306.355011 
L 177.535974 306.2647 
L 179.069292 306.11418 
L 180.60261 306.084076 
L 182.902588 305.993764 
L 184.435906 305.96366 
L 186.352553 305.903452 
L 187.885871 305.752933 
L 191.335837 305.662621 
L 192.102496 305.602413 
L 193.635814 305.512101 
L 195.935791 305.42179 
L 197.469109 305.331478 
L 204.369041 304.879919 
L 207.052347 304.789607 
L 208.202336 304.669191 
L 210.118983 304.578879 
L 213.952278 304.368152 
L 217.785574 304.307944 
L 219.318892 304.127321 
L 221.235539 304.037009 
L 225.068834 303.645658 
L 227.368812 303.344618 
L 228.90213 303.28441 
L 231.968766 302.862955 
L 234.268743 302.802748 
L 235.418731 302.682332 
L 236.56872 302.59202 
L 247.301946 301.719006 
L 248.068605 301.568486 
L 250.368583 301.478175 
L 256.501855 301.086824 
L 259.185161 300.996512 
L 260.71848 300.815888 
L 262.635127 300.725576 
L 264.935104 300.635265 
L 266.851752 300.544953 
L 268.38507 300.514849 
L 270.301717 300.454641 
L 271.068376 300.334225 
L 276.43499 300.243914 
L 277.201649 300.153602 
L 281.801603 300.06329 
L 285.251569 299.882666 
L 287.934875 299.792355 
L 289.468193 299.611731 
L 292.1515 299.521419 
L 292.918159 299.401003 
L 294.834807 299.340796 
L 298.668102 299.280588 
L 300.20142 299.130068 
L 301.734738 299.099964 
L 302.884726 299.009652 
L 304.418044 298.859133 
L 308.25134 298.648405 
L 312.084635 298.558093 
L 315.5346 298.37747 
L 316.684589 298.347366 
L 317.451248 298.22695 
L 319.367896 298.136638 
L 320.134555 298.076431 
L 320.901214 298.016223 
L 321.667873 297.956015 
L 325.501168 297.865703 
L 333.934417 297.293728 
L 334.701076 297.23352 
L 335.851065 297.143209 
L 338.534371 297.052897 
L 340.451019 296.992689 
L 345.817632 296.902377 
L 346.584291 296.812065 
L 351.950905 296.721754 
L 355.7842 296.511026 
L 356.550859 296.480922 
L 357.317518 296.39061 
L 359.234165 296.300299 
L 361.150813 296.240091 
L 363.06746 296.149779 
L 364.984108 296.089571 
L 368.434074 295.999259 
L 370.734051 295.908948 
L 376.100664 295.818636 
L 380.317289 295.577804 
L 381.850607 295.517596 
L 383.000595 295.427285 
L 388.367209 295.336973 
L 390.667186 295.246661 
L 397.567117 295.156349 
L 399.100435 295.126245 
L 403.700389 295.066038 
L 404.467048 295.00583 
L 409.833662 294.915518 
L 411.36698 294.885414 
L 421.333547 294.795102 
L 423.633524 294.70479 
L 439.733364 294.614479 
L 441.650011 294.554271 
L 451.616579 294.494063 
L 452.383238 294.433855 
L 454.299886 294.373647 
L 455.449874 294.253231 
L 457.749851 294.16292 
L 460.433158 294.042504 
L 463.883123 293.952192 
L 465.799771 293.891984 
L 468.483078 293.801672 
L 471.549714 293.651153 
L 473.466361 293.560841 
L 474.999679 293.530737 
L 481.516281 293.440425 
L 483.816258 293.350113 
L 488.032883 293.259802 
L 490.71619 293.139386 
L 493.399496 293.079178 
L 494.166155 293.01897 
L 503.366064 292.928658 
L 507.199359 292.717931 
L 509.882665 292.627619 
L 514.09929 292.386788 
L 516.782597 292.296476 
L 518.315915 292.266372 
L 520.999221 292.17606 
L 522.915869 291.965333 
L 526.749164 291.875021 
L 527.515823 291.784709 
L 531.349118 291.694397 
L 533.265766 291.634189 
L 537.482391 291.604086 
L 538.24905 291.513774 
L 542.465674 291.423462 
L 543.232333 291.363254 
L 551.665583 291.272942 
L 553.96556 291.182631 
L 559.715503 291.092319 
L 561.248821 291.062215 
L 564.698786 291.002007 
L 565.465445 290.911695 
L 570.448729 290.821383 
L 572.365377 290.761175 
L 579.265308 290.670864 
L 580.415297 290.580552 
L 581.565285 290.49024 
L 582.715274 290.399928 
L 588.465216 290.309617 
L 590.765193 290.219305 
L 601.881749 290.128993 
L 605.331715 289.948369 
L 610.698328 289.858058 
L 612.231646 289.827954 
L 616.831601 289.737642 
L 618.748248 289.677434 
L 626.798168 289.587122 
L 629.481475 289.466706 
L 636.381406 289.376395 
L 637.914724 289.346291 
L 641.748019 289.255979 
L 644.431326 289.135563 
L 648.647951 289.045251 
L 651.331257 288.924836 
L 654.781223 288.864628 
L 655.547882 288.80442 
L 663.981131 288.714108 
L 666.281108 288.623796 
L 668.964415 288.533485 
L 670.881063 288.473277 
L 681.997619 288.382965 
L 684.297596 288.292653 
L 690.430868 288.202341 
L 692.730845 288.11203 
L 697.714129 288.021718 
L 700.014106 287.931406 
L 703.080742 287.841094 
L 705.380719 287.750782 
L 720.7139 287.660471 
L 723.780536 287.509951 
L 732.597115 287.419639 
L 734.130433 287.389535 
L 743.330341 287.299224 
L 745.246989 287.239016 
L 747.163636 287.239016 
L 747.163636 287.239016 
" clip-path="url(#p3d5ed07d98)" style="fill: none; stroke: #ff7f0e; stroke-width: 1.5; stroke-linecap: square"/>
   </g>
   <g id="patch_3">
    <path d="M 108 320.4 
L 108 43.2 
" style="fill: none; stroke: #a9a9a9; stroke-width: 0.8; stroke-linejoin: miter; stroke-linecap: square"/>
   </g>
   <g id="patch_4">
    <path d="M 777.6 320.4 
L 777.6 43.2 
" style="fill: none"/>
   </g>
   <g id="patch_5">
    <path d="M 108 320.4 
L 777.6 320.4 
" style="fill: none; stroke: #a9a9a9; stroke-width: 0.8; stroke-linejoin: miter; stroke-linecap: square"/>
   </g>
   <g id="patch_6">
    <path d="M 108 43.2 
L 777.6 43.2 
" style="fill: none"/>
   </g>
   <g id="text_20">
    <!-- get_subscribe history -->
    <g style="fill: #a9a9a9" transform="translate(378.6075 37.2) scale(0.12 -0.12)">
     <defs>
      <path id="DejaVuSans-67" d="M 2906 1791 
Q 2906 2416 2648 2759 
Q 2391 3103 1925 3103 
Q 1463 3103 1205 2759 
Q 947 2416 947 1791 
Q 947 1169 1205 825 
Q 1463 481 1925 481 
Q 2391 481 2648 825 
Q 2906 1169 2906 1791 
z
M 3481 434 
Q 3481 -459 3084 -895 
Q 2688 -1331 1869 -1331 
Q 1566 -1331 1297 -1286 
Q 1028 -1241 775 -1147 
L 775 -588 
Q 1028 -725 1275 -790 
Q 1522 -856 1778 -856 
Q 2344 -856 2625 -561 
Q 2906 -266 2906 331 
L 2906 616 
Q 2728 306 2450 153 
Q 2172 0 1784 0 
Q 1141 0 747 490 
Q 353 981 353 1791 
Q 353 2603 747 3093 
Q 1141 3584 1784 3584 
Q 2172 3584 2450 3431 
Q 2728 3278 2906 2969 
L 2906 3500 
L 3481 3500 
L 3481 434 
z
" transform="scale(0.015625)"/>
      <path id="DejaVuSans-65" d="M 3597 1894 
L 3597 1613 
L 953 1613 
Q 991 1019 1311 708 
Q 1631 397 2203 397 
Q 2534 397 2845 478 
Q 3156 559 3463 722 
L 3463 178 
Q 3153 47 2828 -22 
Q 2503 -91 2169 -91 
Q 1331 -91 842 396 
Q 353 884 353 1716 
Q 353 2575 817 3079 
Q 1281 3584 2069 3584 
Q 2775 3584 3186 3129 
Q 3597 2675 3597 1894 
z
M 3022 2063 
Q 3016 2534 2758 2815 
Q 2500 3097 2075 3097 
Q 1594 3097 1305 2825 
Q 1016 2553 972 2059 
L 3022 2063 
z
" transform="scale(0.015625)"/>
      <path id="DejaVuSans-74" d="M 1172 4494 
L 1172 3500 
L 2356 3500 
L 2356 3053 
L 1172 3053 
L 1172 1153 
Q 1172 725 1289 603 
Q 1406 481 1766 481 
L 2356 481 
L 2356 0 
L 1766 0 
Q 1100 0 847 248 
Q 594 497 594 1153 
L 594 3053 
L 172 3053 
L 172 3500 
L 594 3500 
L 594 4494 
L 1172 4494 
z
" transform="scale(0.015625)"/>
      <path id="DejaVuSans-5f" d="M 3263 -1063 
L 3263 -1509 
L -63 -1509 
L -63 -1063 
L 3263 -1063 
z
" transform="scale(0.015625)"/>
      <path id="DejaVuSans-73" d="M 2834 3397 
L 2834 2853 
Q 2591 2978 2328 3040 
Q 2066 3103 1784 3103 
Q 1356 3103 1142 2972 
Q 928 2841 928 2578 
Q 928 2378 1081 2264 
Q 1234 2150 1697 2047 
L 1894 2003 
Q 2506 1872 2764 1633 
Q 3022 1394 3022 966 
Q 3022 478 2636 193 
Q 2250 -91 1575 -91 
Q 1294 -91 989 -36 
Q 684 19 347 128 
L 347 722 
Q 666 556 975 473 
Q 1284 391 1588 391 
Q 1994 391 2212 530 
Q 2431 669 2431 922 
Q 2431 1156 2273 1281 
Q 2116 1406 1581 1522 
L 1381 1569 
Q 847 1681 609 1914 
Q 372 2147 372 2553 
Q 372 3047 722 3315 
Q 1072 3584 1716 3584 
Q 2034 3584 2315 3537 
Q 2597 3491 2834 3397 
z
" transform="scale(0.015625)"/>
      <path id="DejaVuSans-75" d="M 544 1381 
L 544 3500 
L 1119 3500 
L 1119 1403 
Q 1119 906 1312 657 
Q 1506 409 1894 409 
Q 2359 409 2629 706 
Q 2900 1003 2900 1516 
L 2900 3500 
L 3475 3500 
L 3475 0 
L 2900 0 
L 2900 538 
Q 2691 219 2414 64 
Q 2138 -91 1772 -91 
Q 1169 -91 856 284 
Q 544 659 544 1381 
z
M 1991 3584 
L 1991 3584 
z
" transform="scale(0.015625)"/>
      <path id="DejaVuSans-62" d="M 3116 1747 
Q 3116 2381 2855 2742 
Q 2594 3103 2138 3103 
Q 1681 3103 1420 2742 
Q 1159 2381 1159 1747 
Q 1159 1113 1420 752 
Q 1681 391 2138 391 
Q 2594 391 2855 752 
Q 3116 1113 3116 1747 
z
M 1159 2969 
Q 1341 3281 1617 3432 
Q 1894 3584 2278 3584 
Q 2916 3584 3314 3078 
Q 3713 2572 3713 1747 
Q 3713 922 3314 415 
Q 2916 -91 2278 -91 
Q 1894 -91 1617 61 
Q 1341 213 1159 525 
L 1159 0 
L 581 0 
L 581 4863 
L 1159 4863 
L 1159 2969 
z
" transform="scale(0.015625)"/>
      <path id="DejaVuSans-63" d="M 3122 3366 
L 3122 2828 
Q 2878 2963 2633 3030 
Q 2388 3097 2138 3097 
Q 1578 3097 1268 2742 
Q 959 2388 959 1747 
Q 959 1106 1268 751 
Q 1578 397 2138 397 
Q 2388 397 2633 464 
Q 2878 531 3122 666 
L 3122 134 
Q 2881 22 2623 -34 
Q 2366 -91 2075 -91 
Q 1284 -91 818 406 
Q 353 903 353 1747 
Q 353 2603 823 3093 
Q 1294 3584 2113 3584 
Q 2378 3584 2631 3529 
Q 2884 3475 3122 3366 
z
" transform="scale(0.015625)"/>
      <path id="DejaVuSans-72" d="M 2631 2963 
Q 2534 3019 2420 3045 
Q 2306 3072 2169 3072 
Q 1681 3072 1420 2755 
Q 1159 2438 1159 1844 
L 1159 0 
L 581 0 
L 581 3500 
L 1159 3500 
L 1159 2956 
Q 1341 3275 1631 3429 
Q 1922 3584 2338 3584 
Q 2397 3584 2469 3576 
Q 2541 3569 2628 3553 
L 2631 2963 
z
" transform="scale(0.015625)"/>
      <path id="DejaVuSans-69" d="M 603 3500 
L 1178 3500 
L 1178 0 
L 603 0 
L 603 3500 
z
M 603 4863 
L 1178 4863 
L 1178 4134 
L 603 4134 
L 603 4863 
z
" transform="scale(0.015625)"/>
      <path id="DejaVuSans-20" transform="scale(0.015625)"/>
      <path id="DejaVuSans-68" d="M 3513 2113 
L 3513 0 
L 2938 0 
L 2938 2094 
Q 2938 2591 2744 2837 
Q 2550 3084 2163 3084 
Q 1697 3084 1428 2787 
Q 1159 2491 1159 1978 
L 1159 0 
L 581 0 
L 581 4863 
L 1159 4863 
L 1159 2956 
Q 1366 3272 1645 3428 
Q 1925 3584 2291 3584 
Q 2894 3584 3203 3211 
Q 3513 2838 3513 2113 
z
" transform="scale(0.015625)"/>
      <path id="DejaVuSans-6f" d="M 1959 3097 
Q 1497 3097 1228 2736 
Q 959 2375 959 1747 
Q 959 1119 1226 758 
Q 1494 397 1959 397 
Q 2419 397 2687 759 
Q 2956 1122 2956 1747 
Q 2956 2369 2687 2733 
Q 2419 3097 1959 3097 
z
M 1959 3584 
Q 2709 3584 3137 3096 
Q 3566 2609 3566 1747 
Q 3566 888 3137 398 
Q 2709 -91 1959 -91 
Q 1206 -91 779 398 
Q 353 888 353 1747 
Q 353 2609 779 3096 
Q 1206 3584 1959 3584 
z
" transform="scale(0.015625)"/>
      <path id="DejaVuSans-79" d="M 2059 -325 
Q 1816 -950 1584 -1140 
Q 1353 -1331 966 -1331 
L 506 -1331 
L 506 -850 
L 844 -850 
Q 1081 -850 1212 -737 
Q 1344 -625 1503 -206 
L 1606 56 
L 191 3500 
L 800 3500 
L 1894 763 
L 2988 3500 
L 3597 3500 
L 2059 -325 
z
" transform="scale(0.015625)"/>
     </defs>
     <use xlink:href="#DejaVuSans-67"/>
     <use xlink:href="#DejaVuSans-65" transform="translate(63.476562 0)"/>
     <use xlink:href="#DejaVuSans-74" transform="translate(125 0)"/>
     <use xlink:href="#DejaVuSans-5f" transform="translate(164.208984 0)"/>
     <use xlink:href="#DejaVuSans-73" transform="translate(214.208984 0)"/>
     <use xlink:href="#DejaVuSans-75" transform="translate(266.308594 0)"/>
     <use xlink:href="#DejaVuSans-62" transform="translate(329.6875 0)"/>
     <use xlink:href="#DejaVuSans-73" transform="translate(393.164062 0)"/>
     <use xlink:href="#DejaVuSans-63" transform="translate(445.263672 0)"/>
     <use xlink:href="#DejaVuSans-72" transform="translate(500.244141 0)"/>
     <use xlink:href="#DejaVuSans-69" transform="translate(541.357422 0)"/>
     <use xlink:href="#DejaVuSans-62" transform="translate(569.140625 0)"/>
     <use xlink:href="#DejaVuSans-65" transform="translate(632.617188 0)"/>
     <use xlink:href="#DejaVuSans-20" transform="translate(694.140625 0)"/>
     <use xlink:href="#DejaVuSans-68" transform="translate(725.927734 0)"/>
     <use xlink:href="#DejaVuSans-69" transform="translate(789.306641 0)"/>
     <use xlink:href="#DejaVuSans-73" transform="translate(817.089844 0)"/>
     <use xlink:href="#DejaVuSans-74" transform="translate(869.189453 0)"/>
     <use xlink:href="#DejaVuSans-6f" transform="translate(908.398438 0)"/>
     <use xlink:href="#DejaVuSans-72" transform="translate(969.580078 0)"/>
     <use xlink:href="#DejaVuSans-79" transform="translate(1010.693359 0)"/>
    </g>
   </g>
   <g id="legend_1">
    <g id="line2d_41">
     <path d="M 815.08 328.498438 
L 825.08 328.498438 
L 835.08 328.498438 
" style="fill: none; stroke: #1f77b4; stroke-width: 1.5; stroke-linecap: square"/>
    </g>
    <g id="text_21">
     <!-- star -->
     <g style="fill: #a9a9a9" transform="translate(843.08 331.998438) scale(0.1 -0.1)">
      <defs>
       <path id="DejaVuSans-61" d="M 2194 1759 
Q 1497 1759 1228 1600 
Q 959 1441 959 1056 
Q 959 750 1161 570 
Q 1363 391 1709 391 
Q 2188 391 2477 730 
Q 2766 1069 2766 1631 
L 2766 1759 
L 2194 1759 
z
M 3341 1997 
L 3341 0 
L 2766 0 
L 2766 531 
Q 2569 213 2275 61 
Q 1981 -91 1556 -91 
Q 1019 -91 701 211 
Q 384 513 384 1019 
Q 384 1609 779 1909 
Q 1175 2209 1959 2209 
L 2766 2209 
L 2766 2266 
Q 2766 2663 2505 2880 
Q 2244 3097 1772 3097 
Q 1472 3097 1187 3025 
Q 903 2953 641 2809 
L 641 3341 
Q 956 3463 1253 3523 
Q 1550 3584 1831 3584 
Q 2591 3584 2966 3190 
Q 3341 2797 3341 1997 
z
" transform="scale(0.015625)"/>
      </defs>
      <use xlink:href="#DejaVuSans-73"/>
      <use xlink:href="#DejaVuSans-74" transform="translate(52.099609 0)"/>
      <use xlink:href="#DejaVuSans-61" transform="translate(91.308594 0)"/>
      <use xlink:href="#DejaVuSans-72" transform="translate(152.587891 0)"/>
     </g>
    </g>
    <g id="line2d_42">
     <path d="M 815.08 343.176562 
L 825.08 343.176562 
L 835.08 343.176562 
" style="fill: none; stroke: #ff7f0e; stroke-width: 1.5; stroke-linecap: square"/>
    </g>
    <g id="text_22">
     <!-- fork -->
     <g style="fill: #a9a9a9" transform="translate(843.08 346.676562) scale(0.1 -0.1)">
      <defs>
       <path id="DejaVuSans-66" d="M 2375 4863 
L 2375 4384 
L 1825 4384 
Q 1516 4384 1395 4259 
Q 1275 4134 1275 3809 
L 1275 3500 
L 2222 3500 
L 2222 3053 
L 1275 3053 
L 1275 0 
L 697 0 
L 697 3053 
L 147 3053 
L 147 3500 
L 697 3500 
L 697 3744 
Q 697 4328 969 4595 
Q 1241 4863 1831 4863 
L 2375 4863 
z
" transform="scale(0.015625)"/>
       <path id="DejaVuSans-6b" d="M 581 4863 
L 1159 4863 
L 1159 1991 
L 2875 3500 
L 3609 3500 
L 1753 1863 
L 3688 0 
L 2938 0 
L 1159 1709 
L 1159 0 
L 581 0 
L 581 4863 
z
" transform="scale(0.015625)"/>
      </defs>
      <use xlink:href="#DejaVuSans-66"/>
      <use xlink:href="#DejaVuSans-6f" transform="translate(35.205078 0)"/>
      <use xlink:href="#DejaVuSans-72" transform="translate(96.386719 0)"/>
      <use xlink:href="#DejaVuSans-6b" transform="translate(137.5 0)"/>
     </g>
    </g>
   </g>
  </g>
 </g>
 <defs>
  <clipPath id="p3d5ed07d98">
   <rect x="108" y="43.2" width="669.6" height="277.2"/>
  </clipPath>
 </defs>
</svg>
