<?xml version="1.0" encoding="utf-8" standalone="no"?>
<!DOCTYPE svg PUBLIC "-//W3C//DTD SVG 1.1//EN"
  "http://www.w3.org/Graphics/SVG/1.1/DTD/svg11.dtd">
<svg xmlns:xlink="http://www.w3.org/1999/xlink" width="864pt" height="360pt" viewBox="0 0 864 360" xmlns="http://www.w3.org/2000/svg" version="1.1">
 <metadata>
  <rdf:RDF xmlns:dc="http://purl.org/dc/elements/1.1/" xmlns:cc="http://creativecommons.org/ns#" xmlns:rdf="http://www.w3.org/1999/02/22-rdf-syntax-ns#">
   <cc:Work>
    <dc:type rdf:resource="http://purl.org/dc/dcmitype/StillImage"/>
    <dc:date>2025-12-03T20:08:11.182696</dc:date>
    <dc:format>image/svg+xml</dc:format>
    <dc:creator>
     <cc:Agent>
      <dc:title>Matplotlib v3.10.7, https://matplotlib.org/</dc:title>
     </cc:Agent>
    </dc:creator>
   </cc:Work>
  </rdf:RDF>
 </metadata>
 <defs>
  <style type="text/css">*{stroke-linejoin: round; stroke-linecap: butt}</style>
 </defs>
 <g id="figure_1">
  <g id="patch_1">
   <path d="M 0 360 
L 864 360 
L 864 0 
L 0 0 
L 0 360 
z
" style="fill: none; opacity: 0"/>
  </g>
  <g id="axes_1">
   <g id="patch_2">
    <path d="M 108 320.4 
L 777.6 320.4 
L 777.6 43.2 
L 108 43.2 
L 108 320.4 
z
" style="fill: none; opacity: 0"/>
   </g>
   <g id="matplotlib.axis_1">
    <g id="xtick_1">
     <g id="line2d_1">
      <path d="M 129.647458 320.4 
L 129.647458 43.2 
" clip-path="url(#pf0dda6b212)" style="fill: none; stroke-dasharray: 5.12,1.28,0.8,1.28; stroke-dashoffset: 0; stroke: #b0b0b0; stroke-width: 0.8"/>
     </g>
     <g id="line2d_2">
      <defs>
       <path id="m26ef6cf6b4" d="M 0 0 
L 0 3.5 
" style="stroke: #a9a9a9; stroke-width: 0.8"/>
      </defs>
      <g>
       <use xlink:href="#m26ef6cf6b4" x="129.647458" y="320.4" style="fill: #a9a9a9; stroke: #a9a9a9; stroke-width: 0.8"/>
      </g>
     </g>
     <g id="text_1">
      <!-- 2021-07 -->
      <g style="fill: #a9a9a9" transform="translate(108.756051 334.998438) scale(0.1 -0.1)">
       <defs>
        <path id="DejaVuSans-32" d="M 1228 531 
L 3431 531 
L 3431 0 
L 469 0 
L 469 531 
Q 828 903 1448 1529 
Q 2069 2156 2228 2338 
Q 2531 2678 2651 2914 
Q 2772 3150 2772 3378 
Q 2772 3750 2511 3984 
Q 2250 4219 1831 4219 
Q 1534 4219 1204 4116 
Q 875 4013 500 3803 
L 500 4441 
Q 881 4594 1212 4672 
Q 1544 4750 1819 4750 
Q 2544 4750 2975 4387 
Q 3406 4025 3406 3419 
Q 3406 3131 3298 2873 
Q 3191 2616 2906 2266 
Q 2828 2175 2409 1742 
Q 1991 1309 1228 531 
z
" transform="scale(0.015625)"/>
        <path id="DejaVuSans-30" d="M 2034 4250 
Q 1547 4250 1301 3770 
Q 1056 3291 1056 2328 
Q 1056 1369 1301 889 
Q 1547 409 2034 409 
Q 2525 409 2770 889 
Q 3016 1369 3016 2328 
Q 3016 3291 2770 3770 
Q 2525 4250 2034 4250 
z
M 2034 4750 
Q 2819 4750 3233 4129 
Q 3647 3509 3647 2328 
Q 3647 1150 3233 529 
Q 2819 -91 2034 -91 
Q 1250 -91 836 529 
Q 422 1150 422 2328 
Q 422 3509 836 4129 
Q 1250 4750 2034 4750 
z
" transform="scale(0.015625)"/>
        <path id="DejaVuSans-31" d="M 794 531 
L 1825 531 
L 1825 4091 
L 703 3866 
L 703 4441 
L 1819 4666 
L 2450 4666 
L 2450 531 
L 3481 531 
L 3481 0 
L 794 0 
L 794 531 
z
" transform="scale(0.015625)"/>
        <path id="DejaVuSans-2d" d="M 313 2009 
L 1997 2009 
L 1997 1497 
L 313 1497 
L 313 2009 
z
" transform="scale(0.015625)"/>
        <path id="DejaVuSans-37" d="M 525 4666 
L 3525 4666 
L 3525 4397 
L 1831 0 
L 1172 0 
L 2766 4134 
L 525 4134 
L 525 4666 
z
" transform="scale(0.015625)"/>
       </defs>
       <use xlink:href="#DejaVuSans-32"/>
       <use xlink:href="#DejaVuSans-30" transform="translate(63.623047 0)"/>
       <use xlink:href="#DejaVuSans-32" transform="translate(127.246094 0)"/>
       <use xlink:href="#DejaVuSans-31" transform="translate(190.869141 0)"/>
       <use xlink:href="#DejaVuSans-2d" transform="translate(254.492188 0)"/>
       <use xlink:href="#DejaVuSans-30" transform="translate(290.576172 0)"/>
       <use xlink:href="#DejaVuSans-37" transform="translate(354.199219 0)"/>
      </g>
     </g>
    </g>
    <g id="xtick_2">
     <g id="line2d_3">
      <path d="M 199.958706 320.4 
L 199.958706 43.2 
" clip-path="url(#pf0dda6b212)" style="fill: none; stroke-dasharray: 5.12,1.28,0.8,1.28; stroke-dashoffset: 0; stroke: #b0b0b0; stroke-width: 0.8"/>
     </g>
     <g id="line2d_4">
      <g>
       <use xlink:href="#m26ef6cf6b4" x="199.958706" y="320.4" style="fill: #a9a9a9; stroke: #a9a9a9; stroke-width: 0.8"/>
      </g>
     </g>
     <g id="text_2">
      <!-- 2022-01 -->
      <g style="fill: #a9a9a9" transform="translate(179.067299 334.998438) scale(0.1 -0.1)">
       <use xlink:href="#DejaVuSans-32"/>
       <use xlink:href="#DejaVuSans-30" transform="translate(63.623047 0)"/>
       <use xlink:href="#DejaVuSans-32" transform="translate(127.246094 0)"/>
       <use xlink:href="#DejaVuSans-32" transform="translate(190.869141 0)"/>
       <use xlink:href="#DejaVuSans-2d" transform="translate(254.492188 0)"/>
       <use xlink:href="#DejaVuSans-30" transform="translate(290.576172 0)"/>
       <use xlink:href="#DejaVuSans-31" transform="translate(354.199219 0)"/>
      </g>
     </g>
    </g>
    <g id="xtick_3">
     <g id="line2d_5">
      <path d="M 269.123575 320.4 
L 269.123575 43.2 
" clip-path="url(#pf0dda6b212)" style="fill: none; stroke-dasharray: 5.12,1.28,0.8,1.28; stroke-dashoffset: 0; stroke: #b0b0b0; stroke-width: 0.8"/>
     </g>
     <g id="line2d_6">
      <g>
       <use xlink:href="#m26ef6cf6b4" x="269.123575" y="320.4" style="fill: #a9a9a9; stroke: #a9a9a9; stroke-width: 0.8"/>
      </g>
     </g>
     <g id="text_3">
      <!-- 2022-07 -->
      <g style="fill: #a9a9a9" transform="translate(248.232168 334.998438) scale(0.1 -0.1)">
       <use xlink:href="#DejaVuSans-32"/>
       <use xlink:href="#DejaVuSans-30" transform="translate(63.623047 0)"/>
       <use xlink:href="#DejaVuSans-32" transform="translate(127.246094 0)"/>
       <use xlink:href="#DejaVuSans-32" transform="translate(190.869141 0)"/>
       <use xlink:href="#DejaVuSans-2d" transform="translate(254.492188 0)"/>
       <use xlink:href="#DejaVuSans-30" transform="translate(290.576172 0)"/>
       <use xlink:href="#DejaVuSans-37" transform="translate(354.199219 0)"/>
      </g>
     </g>
    </g>
    <g id="xtick_4">
     <g id="line2d_7">
      <path d="M 339.434823 320.4 
L 339.434823 43.2 
" clip-path="url(#pf0dda6b212)" style="fill: none; stroke-dasharray: 5.12,1.28,0.8,1.28; stroke-dashoffset: 0; stroke: #b0b0b0; stroke-width: 0.8"/>
     </g>
     <g id="line2d_8">
      <g>
       <use xlink:href="#m26ef6cf6b4" x="339.434823" y="320.4" style="fill: #a9a9a9; stroke: #a9a9a9; stroke-width: 0.8"/>
      </g>
     </g>
     <g id="text_4">
      <!-- 2023-01 -->
      <g style="fill: #a9a9a9" transform="translate(318.543417 334.998438) scale(0.1 -0.1)">
       <defs>
        <path id="DejaVuSans-33" d="M 2597 2516 
Q 3050 2419 3304 2112 
Q 3559 1806 3559 1356 
Q 3559 666 3084 287 
Q 2609 -91 1734 -91 
Q 1441 -91 1130 -33 
Q 819 25 488 141 
L 488 750 
Q 750 597 1062 519 
Q 1375 441 1716 441 
Q 2309 441 2620 675 
Q 2931 909 2931 1356 
Q 2931 1769 2642 2001 
Q 2353 2234 1838 2234 
L 1294 2234 
L 1294 2753 
L 1863 2753 
Q 2328 2753 2575 2939 
Q 2822 3125 2822 3475 
Q 2822 3834 2567 4026 
Q 2313 4219 1838 4219 
Q 1578 4219 1281 4162 
Q 984 4106 628 3988 
L 628 4550 
Q 988 4650 1302 4700 
Q 1616 4750 1894 4750 
Q 2613 4750 3031 4423 
Q 3450 4097 3450 3541 
Q 3450 3153 3228 2886 
Q 3006 2619 2597 2516 
z
" transform="scale(0.015625)"/>
       </defs>
       <use xlink:href="#DejaVuSans-32"/>
       <use xlink:href="#DejaVuSans-30" transform="translate(63.623047 0)"/>
       <use xlink:href="#DejaVuSans-32" transform="translate(127.246094 0)"/>
       <use xlink:href="#DejaVuSans-33" transform="translate(190.869141 0)"/>
       <use xlink:href="#DejaVuSans-2d" transform="translate(254.492188 0)"/>
       <use xlink:href="#DejaVuSans-30" transform="translate(290.576172 0)"/>
       <use xlink:href="#DejaVuSans-31" transform="translate(354.199219 0)"/>
      </g>
     </g>
    </g>
    <g id="xtick_5">
     <g id="line2d_9">
      <path d="M 408.599692 320.4 
L 408.599692 43.2 
" clip-path="url(#pf0dda6b212)" style="fill: none; stroke-dasharray: 5.12,1.28,0.8,1.28; stroke-dashoffset: 0; stroke: #b0b0b0; stroke-width: 0.8"/>
     </g>
     <g id="line2d_10">
      <g>
       <use xlink:href="#m26ef6cf6b4" x="408.599692" y="320.4" style="fill: #a9a9a9; stroke: #a9a9a9; stroke-width: 0.8"/>
      </g>
     </g>
     <g id="text_5">
      <!-- 2023-07 -->
      <g style="fill: #a9a9a9" transform="translate(387.708286 334.998438) scale(0.1 -0.1)">
       <use xlink:href="#DejaVuSans-32"/>
       <use xlink:href="#DejaVuSans-30" transform="translate(63.623047 0)"/>
       <use xlink:href="#DejaVuSans-32" transform="translate(127.246094 0)"/>
       <use xlink:href="#DejaVuSans-33" transform="translate(190.869141 0)"/>
       <use xlink:href="#DejaVuSans-2d" transform="translate(254.492188 0)"/>
       <use xlink:href="#DejaVuSans-30" transform="translate(290.576172 0)"/>
       <use xlink:href="#DejaVuSans-37" transform="translate(354.199219 0)"/>
      </g>
     </g>
    </g>
    <g id="xtick_6">
     <g id="line2d_11">
      <path d="M 478.91094 320.4 
L 478.91094 43.2 
" clip-path="url(#pf0dda6b212)" style="fill: none; stroke-dasharray: 5.12,1.28,0.8,1.28; stroke-dashoffset: 0; stroke: #b0b0b0; stroke-width: 0.8"/>
     </g>
     <g id="line2d_12">
      <g>
       <use xlink:href="#m26ef6cf6b4" x="478.91094" y="320.4" style="fill: #a9a9a9; stroke: #a9a9a9; stroke-width: 0.8"/>
      </g>
     </g>
     <g id="text_6">
      <!-- 2024-01 -->
      <g style="fill: #a9a9a9" transform="translate(458.019534 334.998438) scale(0.1 -0.1)">
       <defs>
        <path id="DejaVuSans-34" d="M 2419 4116 
L 825 1625 
L 2419 1625 
L 2419 4116 
z
M 2253 4666 
L 3047 4666 
L 3047 1625 
L 3713 1625 
L 3713 1100 
L 3047 1100 
L 3047 0 
L 2419 0 
L 2419 1100 
L 313 1100 
L 313 1709 
L 2253 4666 
z
" transform="scale(0.015625)"/>
       </defs>
       <use xlink:href="#DejaVuSans-32"/>
       <use xlink:href="#DejaVuSans-30" transform="translate(63.623047 0)"/>
       <use xlink:href="#DejaVuSans-32" transform="translate(127.246094 0)"/>
       <use xlink:href="#DejaVuSans-34" transform="translate(190.869141 0)"/>
       <use xlink:href="#DejaVuSans-2d" transform="translate(254.492188 0)"/>
       <use xlink:href="#DejaVuSans-30" transform="translate(290.576172 0)"/>
       <use xlink:href="#DejaVuSans-31" transform="translate(354.199219 0)"/>
      </g>
     </g>
    </g>
    <g id="xtick_7">
     <g id="line2d_13">
      <path d="M 548.457935 320.4 
L 548.457935 43.2 
" clip-path="url(#pf0dda6b212)" style="fill: none; stroke-dasharray: 5.12,1.28,0.8,1.28; stroke-dashoffset: 0; stroke: #b0b0b0; stroke-width: 0.8"/>
     </g>
     <g id="line2d_14">
      <g>
       <use xlink:href="#m26ef6cf6b4" x="548.457935" y="320.4" style="fill: #a9a9a9; stroke: #a9a9a9; stroke-width: 0.8"/>
      </g>
     </g>
     <g id="text_7">
      <!-- 2024-07 -->
      <g style="fill: #a9a9a9" transform="translate(527.566529 334.998438) scale(0.1 -0.1)">
       <use xlink:href="#DejaVuSans-32"/>
       <use xlink:href="#DejaVuSans-30" transform="translate(63.623047 0)"/>
       <use xlink:href="#DejaVuSans-32" transform="translate(127.246094 0)"/>
       <use xlink:href="#DejaVuSans-34" transform="translate(190.869141 0)"/>
       <use xlink:href="#DejaVuSans-2d" transform="translate(254.492188 0)"/>
       <use xlink:href="#DejaVuSans-30" transform="translate(290.576172 0)"/>
       <use xlink:href="#DejaVuSans-37" transform="translate(354.199219 0)"/>
      </g>
     </g>
    </g>
    <g id="xtick_8">
     <g id="line2d_15">
      <path d="M 618.769183 320.4 
L 618.769183 43.2 
" clip-path="url(#pf0dda6b212)" style="fill: none; stroke-dasharray: 5.12,1.28,0.8,1.28; stroke-dashoffset: 0; stroke: #b0b0b0; stroke-width: 0.8"/>
     </g>
     <g id="line2d_16">
      <g>
       <use xlink:href="#m26ef6cf6b4" x="618.769183" y="320.4" style="fill: #a9a9a9; stroke: #a9a9a9; stroke-width: 0.8"/>
      </g>
     </g>
     <g id="text_8">
      <!-- 2025-01 -->
      <g style="fill: #a9a9a9" transform="translate(597.877777 334.998438) scale(0.1 -0.1)">
       <defs>
        <path id="DejaVuSans-35" d="M 691 4666 
L 3169 4666 
L 3169 4134 
L 1269 4134 
L 1269 2991 
Q 1406 3038 1543 3061 
Q 1681 3084 1819 3084 
Q 2600 3084 3056 2656 
Q 3513 2228 3513 1497 
Q 3513 744 3044 326 
Q 2575 -91 1722 -91 
Q 1428 -91 1123 -41 
Q 819 9 494 109 
L 494 744 
Q 775 591 1075 516 
Q 1375 441 1709 441 
Q 2250 441 2565 725 
Q 2881 1009 2881 1497 
Q 2881 1984 2565 2268 
Q 2250 2553 1709 2553 
Q 1456 2553 1204 2497 
Q 953 2441 691 2322 
L 691 4666 
z
" transform="scale(0.015625)"/>
       </defs>
       <use xlink:href="#DejaVuSans-32"/>
       <use xlink:href="#DejaVuSans-30" transform="translate(63.623047 0)"/>
       <use xlink:href="#DejaVuSans-32" transform="translate(127.246094 0)"/>
       <use xlink:href="#DejaVuSans-35" transform="translate(190.869141 0)"/>
       <use xlink:href="#DejaVuSans-2d" transform="translate(254.492188 0)"/>
       <use xlink:href="#DejaVuSans-30" transform="translate(290.576172 0)"/>
       <use xlink:href="#DejaVuSans-31" transform="translate(354.199219 0)"/>
      </g>
     </g>
    </g>
    <g id="xtick_9">
     <g id="line2d_17">
      <path d="M 687.934052 320.4 
L 687.934052 43.2 
" clip-path="url(#pf0dda6b212)" style="fill: none; stroke-dasharray: 5.12,1.28,0.8,1.28; stroke-dashoffset: 0; stroke: #b0b0b0; stroke-width: 0.8"/>
     </g>
     <g id="line2d_18">
      <g>
       <use xlink:href="#m26ef6cf6b4" x="687.934052" y="320.4" style="fill: #a9a9a9; stroke: #a9a9a9; stroke-width: 0.8"/>
      </g>
     </g>
     <g id="text_9">
      <!-- 2025-07 -->
      <g style="fill: #a9a9a9" transform="translate(667.042646 334.998438) scale(0.1 -0.1)">
       <use xlink:href="#DejaVuSans-32"/>
       <use xlink:href="#DejaVuSans-30" transform="translate(63.623047 0)"/>
       <use xlink:href="#DejaVuSans-32" transform="translate(127.246094 0)"/>
       <use xlink:href="#DejaVuSans-35" transform="translate(190.869141 0)"/>
       <use xlink:href="#DejaVuSans-2d" transform="translate(254.492188 0)"/>
       <use xlink:href="#DejaVuSans-30" transform="translate(290.576172 0)"/>
       <use xlink:href="#DejaVuSans-37" transform="translate(354.199219 0)"/>
      </g>
     </g>
    </g>
    <g id="xtick_10">
     <g id="line2d_19">
      <path d="M 758.2453 320.4 
L 758.2453 43.2 
" clip-path="url(#pf0dda6b212)" style="fill: none; stroke-dasharray: 5.12,1.28,0.8,1.28; stroke-dashoffset: 0; stroke: #b0b0b0; stroke-width: 0.8"/>
     </g>
     <g id="line2d_20">
      <g>
       <use xlink:href="#m26ef6cf6b4" x="758.2453" y="320.4" style="fill: #a9a9a9; stroke: #a9a9a9; stroke-width: 0.8"/>
      </g>
     </g>
     <g id="text_10">
      <!-- 2026-01 -->
      <g style="fill: #a9a9a9" transform="translate(737.353894 334.998438) scale(0.1 -0.1)">
       <defs>
        <path id="DejaVuSans-36" d="M 2113 2584 
Q 1688 2584 1439 2293 
Q 1191 2003 1191 1497 
Q 1191 994 1439 701 
Q 1688 409 2113 409 
Q 2538 409 2786 701 
Q 3034 994 3034 1497 
Q 3034 2003 2786 2293 
Q 2538 2584 2113 2584 
z
M 3366 4563 
L 3366 3988 
Q 3128 4100 2886 4159 
Q 2644 4219 2406 4219 
Q 1781 4219 1451 3797 
Q 1122 3375 1075 2522 
Q 1259 2794 1537 2939 
Q 1816 3084 2150 3084 
Q 2853 3084 3261 2657 
Q 3669 2231 3669 1497 
Q 3669 778 3244 343 
Q 2819 -91 2113 -91 
Q 1303 -91 875 529 
Q 447 1150 447 2328 
Q 447 3434 972 4092 
Q 1497 4750 2381 4750 
Q 2619 4750 2861 4703 
Q 3103 4656 3366 4563 
z
" transform="scale(0.015625)"/>
       </defs>
       <use xlink:href="#DejaVuSans-32"/>
       <use xlink:href="#DejaVuSans-30" transform="translate(63.623047 0)"/>
       <use xlink:href="#DejaVuSans-32" transform="translate(127.246094 0)"/>
       <use xlink:href="#DejaVuSans-36" transform="translate(190.869141 0)"/>
       <use xlink:href="#DejaVuSans-2d" transform="translate(254.492188 0)"/>
       <use xlink:href="#DejaVuSans-30" transform="translate(290.576172 0)"/>
       <use xlink:href="#DejaVuSans-31" transform="translate(354.199219 0)"/>
      </g>
     </g>
    </g>
   </g>
   <g id="matplotlib.axis_2">
    <g id="ytick_1">
     <g id="line2d_21">
      <path d="M 108 307.830025 
L 777.6 307.830025 
" clip-path="url(#pf0dda6b212)" style="fill: none; stroke-dasharray: 5.12,1.28,0.8,1.28; stroke-dashoffset: 0; stroke: #b0b0b0; stroke-width: 0.8"/>
     </g>
     <g id="line2d_22">
      <defs>
       <path id="mf5ca9cfd1b" d="M 0 0 
L -3.5 0 
" style="stroke: #a9a9a9; stroke-width: 0.8"/>
      </defs>
      <g>
       <use xlink:href="#mf5ca9cfd1b" x="108" y="307.830025" style="fill: #a9a9a9; stroke: #a9a9a9; stroke-width: 0.8"/>
      </g>
     </g>
     <g id="text_11">
      <!-- 0 -->
      <g style="fill: #a9a9a9" transform="translate(94.6375 311.629244) scale(0.1 -0.1)">
       <use xlink:href="#DejaVuSans-30"/>
      </g>
     </g>
    </g>
    <g id="ytick_2">
     <g id="line2d_23">
      <path d="M 108 277.805004 
L 777.6 277.805004 
" clip-path="url(#pf0dda6b212)" style="fill: none; stroke-dasharray: 5.12,1.28,0.8,1.28; stroke-dashoffset: 0; stroke: #b0b0b0; stroke-width: 0.8"/>
     </g>
     <g id="line2d_24">
      <g>
       <use xlink:href="#mf5ca9cfd1b" x="108" y="277.805004" style="fill: #a9a9a9; stroke: #a9a9a9; stroke-width: 0.8"/>
      </g>
     </g>
     <g id="text_12">
      <!-- 1000 -->
      <g style="fill: #a9a9a9" transform="translate(75.55 281.604223) scale(0.1 -0.1)">
       <use xlink:href="#DejaVuSans-31"/>
       <use xlink:href="#DejaVuSans-30" transform="translate(63.623047 0)"/>
       <use xlink:href="#DejaVuSans-30" transform="translate(127.246094 0)"/>
       <use xlink:href="#DejaVuSans-30" transform="translate(190.869141 0)"/>
      </g>
     </g>
    </g>
    <g id="ytick_3">
     <g id="line2d_25">
      <path d="M 108 247.779983 
L 777.6 247.779983 
" clip-path="url(#pf0dda6b212)" style="fill: none; stroke-dasharray: 5.12,1.28,0.8,1.28; stroke-dashoffset: 0; stroke: #b0b0b0; stroke-width: 0.8"/>
     </g>
     <g id="line2d_26">
      <g>
       <use xlink:href="#mf5ca9cfd1b" x="108" y="247.779983" style="fill: #a9a9a9; stroke: #a9a9a9; stroke-width: 0.8"/>
      </g>
     </g>
     <g id="text_13">
      <!-- 2000 -->
      <g style="fill: #a9a9a9" transform="translate(75.55 251.579202) scale(0.1 -0.1)">
       <use xlink:href="#DejaVuSans-32"/>
       <use xlink:href="#DejaVuSans-30" transform="translate(63.623047 0)"/>
       <use xlink:href="#DejaVuSans-30" transform="translate(127.246094 0)"/>
       <use xlink:href="#DejaVuSans-30" transform="translate(190.869141 0)"/>
      </g>
     </g>
    </g>
    <g id="ytick_4">
     <g id="line2d_27">
      <path d="M 108 217.754962 
L 777.6 217.754962 
" clip-path="url(#pf0dda6b212)" style="fill: none; stroke-dasharray: 5.12,1.28,0.8,1.28; stroke-dashoffset: 0; stroke: #b0b0b0; stroke-width: 0.8"/>
     </g>
     <g id="line2d_28">
      <g>
       <use xlink:href="#mf5ca9cfd1b" x="108" y="217.754962" style="fill: #a9a9a9; stroke: #a9a9a9; stroke-width: 0.8"/>
      </g>
     </g>
     <g id="text_14">
      <!-- 3000 -->
      <g style="fill: #a9a9a9" transform="translate(75.55 221.554181) scale(0.1 -0.1)">
       <use xlink:href="#DejaVuSans-33"/>
       <use xlink:href="#DejaVuSans-30" transform="translate(63.623047 0)"/>
       <use xlink:href="#DejaVuSans-30" transform="translate(127.246094 0)"/>
       <use xlink:href="#DejaVuSans-30" transform="translate(190.869141 0)"/>
      </g>
     </g>
    </g>
    <g id="ytick_5">
     <g id="line2d_29">
      <path d="M 108 187.729942 
L 777.6 187.729942 
" clip-path="url(#pf0dda6b212)" style="fill: none; stroke-dasharray: 5.12,1.28,0.8,1.28; stroke-dashoffset: 0; stroke: #b0b0b0; stroke-width: 0.8"/>
     </g>
     <g id="line2d_30">
      <g>
       <use xlink:href="#mf5ca9cfd1b" x="108" y="187.729942" style="fill: #a9a9a9; stroke: #a9a9a9; stroke-width: 0.8"/>
      </g>
     </g>
     <g id="text_15">
      <!-- 4000 -->
      <g style="fill: #a9a9a9" transform="translate(75.55 191.52916) scale(0.1 -0.1)">
       <use xlink:href="#DejaVuSans-34"/>
       <use xlink:href="#DejaVuSans-30" transform="translate(63.623047 0)"/>
       <use xlink:href="#DejaVuSans-30" transform="translate(127.246094 0)"/>
       <use xlink:href="#DejaVuSans-30" transform="translate(190.869141 0)"/>
      </g>
     </g>
    </g>
    <g id="ytick_6">
     <g id="line2d_31">
      <path d="M 108 157.704921 
L 777.6 157.704921 
" clip-path="url(#pf0dda6b212)" style="fill: none; stroke-dasharray: 5.12,1.28,0.8,1.28; stroke-dashoffset: 0; stroke: #b0b0b0; stroke-width: 0.8"/>
     </g>
     <g id="line2d_32">
      <g>
       <use xlink:href="#mf5ca9cfd1b" x="108" y="157.704921" style="fill: #a9a9a9; stroke: #a9a9a9; stroke-width: 0.8"/>
      </g>
     </g>
     <g id="text_16">
      <!-- 5000 -->
      <g style="fill: #a9a9a9" transform="translate(75.55 161.50414) scale(0.1 -0.1)">
       <use xlink:href="#DejaVuSans-35"/>
       <use xlink:href="#DejaVuSans-30" transform="translate(63.623047 0)"/>
       <use xlink:href="#DejaVuSans-30" transform="translate(127.246094 0)"/>
       <use xlink:href="#DejaVuSans-30" transform="translate(190.869141 0)"/>
      </g>
     </g>
    </g>
    <g id="ytick_7">
     <g id="line2d_33">
      <path d="M 108 127.6799 
L 777.6 127.6799 
" clip-path="url(#pf0dda6b212)" style="fill: none; stroke-dasharray: 5.12,1.28,0.8,1.28; stroke-dashoffset: 0; stroke: #b0b0b0; stroke-width: 0.8"/>
     </g>
     <g id="line2d_34">
      <g>
       <use xlink:href="#mf5ca9cfd1b" x="108" y="127.6799" style="fill: #a9a9a9; stroke: #a9a9a9; stroke-width: 0.8"/>
      </g>
     </g>
     <g id="text_17">
      <!-- 6000 -->
      <g style="fill: #a9a9a9" transform="translate(75.55 131.479119) scale(0.1 -0.1)">
       <use xlink:href="#DejaVuSans-36"/>
       <use xlink:href="#DejaVuSans-30" transform="translate(63.623047 0)"/>
       <use xlink:href="#DejaVuSans-30" transform="translate(127.246094 0)"/>
       <use xlink:href="#DejaVuSans-30" transform="translate(190.869141 0)"/>
      </g>
     </g>
    </g>
    <g id="ytick_8">
     <g id="line2d_35">
      <path d="M 108 97.654879 
L 777.6 97.654879 
" clip-path="url(#pf0dda6b212)" style="fill: none; stroke-dasharray: 5.12,1.28,0.8,1.28; stroke-dashoffset: 0; stroke: #b0b0b0; stroke-width: 0.8"/>
     </g>
     <g id="line2d_36">
      <g>
       <use xlink:href="#mf5ca9cfd1b" x="108" y="97.654879" style="fill: #a9a9a9; stroke: #a9a9a9; stroke-width: 0.8"/>
      </g>
     </g>
     <g id="text_18">
      <!-- 7000 -->
      <g style="fill: #a9a9a9" transform="translate(75.55 101.454098) scale(0.1 -0.1)">
       <use xlink:href="#DejaVuSans-37"/>
       <use xlink:href="#DejaVuSans-30" transform="translate(63.623047 0)"/>
       <use xlink:href="#DejaVuSans-30" transform="translate(127.246094 0)"/>
       <use xlink:href="#DejaVuSans-30" transform="translate(190.869141 0)"/>
      </g>
     </g>
    </g>
    <g id="ytick_9">
     <g id="line2d_37">
      <path d="M 108 67.629858 
L 777.6 67.629858 
" clip-path="url(#pf0dda6b212)" style="fill: none; stroke-dasharray: 5.12,1.28,0.8,1.28; stroke-dashoffset: 0; stroke: #b0b0b0; stroke-width: 0.8"/>
     </g>
     <g id="line2d_38">
      <g>
       <use xlink:href="#mf5ca9cfd1b" x="108" y="67.629858" style="fill: #a9a9a9; stroke: #a9a9a9; stroke-width: 0.8"/>
      </g>
     </g>
     <g id="text_19">
      <!-- 8000 -->
      <g style="fill: #a9a9a9" transform="translate(75.55 71.429077) scale(0.1 -0.1)">
       <defs>
        <path id="DejaVuSans-38" d="M 2034 2216 
Q 1584 2216 1326 1975 
Q 1069 1734 1069 1313 
Q 1069 891 1326 650 
Q 1584 409 2034 409 
Q 2484 409 2743 651 
Q 3003 894 3003 1313 
Q 3003 1734 2745 1975 
Q 2488 2216 2034 2216 
z
M 1403 2484 
Q 997 2584 770 2862 
Q 544 3141 544 3541 
Q 544 4100 942 4425 
Q 1341 4750 2034 4750 
Q 2731 4750 3128 4425 
Q 3525 4100 3525 3541 
Q 3525 3141 3298 2862 
Q 3072 2584 2669 2484 
Q 3125 2378 3379 2068 
Q 3634 1759 3634 1313 
Q 3634 634 3220 271 
Q 2806 -91 2034 -91 
Q 1263 -91 848 271 
Q 434 634 434 1313 
Q 434 1759 690 2068 
Q 947 2378 1403 2484 
z
M 1172 3481 
Q 1172 3119 1398 2916 
Q 1625 2713 2034 2713 
Q 2441 2713 2670 2916 
Q 2900 3119 2900 3481 
Q 2900 3844 2670 4047 
Q 2441 4250 2034 4250 
Q 1625 4250 1398 4047 
Q 1172 3844 1172 3481 
z
" transform="scale(0.015625)"/>
       </defs>
       <use xlink:href="#DejaVuSans-38"/>
       <use xlink:href="#DejaVuSans-30" transform="translate(63.623047 0)"/>
       <use xlink:href="#DejaVuSans-30" transform="translate(127.246094 0)"/>
       <use xlink:href="#DejaVuSans-30" transform="translate(190.869141 0)"/>
      </g>
     </g>
    </g>
   </g>
   <g id="line2d_39">
    <path d="M 138.436364 307.73995 
L 140.729122 307.529775 
L 141.111248 307.349625 
L 142.639753 307.13945 
L 144.168259 306.809174 
L 144.932512 306.689074 
L 146.843143 306.508924 
L 147.607396 306.208674 
L 147.989522 305.668224 
L 148.371649 305.397998 
L 148.753775 304.497248 
L 149.135901 304.437198 
L 149.900154 303.956797 
L 150.664407 303.386322 
L 152.192912 302.245371 
L 152.575039 302.095246 
L 153.339291 301.614846 
L 154.48567 301.04437 
L 154.867797 300.38382 
L 155.632049 299.783319 
L 156.396302 299.543119 
L 157.542681 299.362969 
L 159.835439 299.002669 
L 160.217565 298.822519 
L 162.89245 298.582319 
L 164.420955 298.191993 
L 167.477966 297.741618 
L 167.860092 297.531443 
L 168.242219 297.471393 
L 169.006471 297.201168 
L 171.681356 296.720767 
L 172.445609 296.480567 
L 175.884746 295.880067 
L 176.648998 295.699917 
L 178.177504 295.489741 
L 178.941757 295.249541 
L 179.323883 294.679066 
L 180.470262 294.198666 
L 181.616641 293.86839 
L 181.998767 293.658215 
L 182.76302 293.50809 
L 184.291525 293.02769 
L 185.055778 292.96764 
L 185.820031 292.757465 
L 187.348536 292.337114 
L 187.730663 292.307089 
L 188.494915 291.916764 
L 188.877042 291.856714 
L 189.259168 291.646539 
L 193.462558 290.925938 
L 194.991063 290.445538 
L 195.37319 290.175313 
L 197.283821 289.514762 
L 198.048074 288.944287 
L 199.194453 288.704087 
L 204.162096 287.202836 
L 204.544222 287.142786 
L 206.072727 286.51226 
L 206.454854 286.45221 
L 207.219106 286.121935 
L 207.983359 286.09191 
L 209.129738 285.73161 
L 209.511864 285.73161 
L 209.893991 285.55146 
L 210.658243 285.461384 
L 211.04037 285.311259 
L 212.951002 285.221184 
L 213.333128 285.131109 
L 214.097381 284.710759 
L 215.24376 284.290409 
L 216.008012 283.870058 
L 217.154391 283.359633 
L 218.682897 282.548957 
L 219.065023 282.098582 
L 219.829276 280.837531 
L 220.211402 280.717431 
L 220.593529 280.717431 
L 222.122034 279.846706 
L 222.50416 279.756631 
L 222.886287 279.366305 
L 223.650539 279.03603 
L 224.414792 278.67573 
L 224.796918 278.195329 
L 225.179045 277.534779 
L 225.561171 277.294579 
L 225.943297 276.604003 
L 226.325424 276.153628 
L 228.618182 274.832527 
L 230.146687 273.391326 
L 230.528814 272.46055 
L 230.91094 271.86005 
L 231.293066 271.529775 
L 231.675193 271.349625 
L 236.260709 267.116097 
L 237.789214 266.125271 
L 238.171341 265.975146 
L 239.699846 265.014345 
L 240.081972 264.834195 
L 241.992604 262.972644 
L 242.756857 262.642369 
L 243.521109 262.101918 
L 243.903236 261.861718 
L 244.285362 261.801668 
L 245.431741 261.111093 
L 245.813867 260.660717 
L 247.724499 259.549791 
L 248.106626 259.399666 
L 249.253005 258.558966 
L 254.9849 256.397164 
L 255.749153 255.646539 
L 256.895532 255.046038 
L 257.659784 254.535613 
L 258.424037 254.295413 
L 258.806163 254.025188 
L 259.18829 253.905088 
L 260.334669 253.094412 
L 262.2453 252.644037 
L 263.39168 251.923436 
L 264.538059 251.653211 
L 264.920185 251.563136 
L 266.066564 250.69241 
L 267.595069 250.242035 
L 267.977196 249.91176 
L 270.269954 249.071059 
L 271.034206 248.920934 
L 271.798459 248.590659 
L 274.473344 247.539783 
L 275.237596 247.449708 
L 276.383975 247.029358 
L 278.294607 246.038532 
L 280.587365 244.687406 
L 281.351618 244.477231 
L 282.497997 243.876731 
L 283.26225 243.726606 
L 284.026502 243.246205 
L 284.790755 243.03603 
L 285.937134 242.55563 
L 287.465639 242.345455 
L 288.229892 241.925104 
L 288.612018 241.564804 
L 288.994145 240.844204 
L 290.52265 240.393828 
L 292.051156 239.673228 
L 295.490293 238.081902 
L 296.254545 237.901751 
L 297.400924 237.301251 
L 297.783051 237.241201 
L 299.693683 236.250375 
L 300.457935 235.73995 
L 301.604314 235.49975 
L 303.514946 234.989324 
L 303.897072 234.659049 
L 304.661325 234.388824 
L 306.571957 233.578148 
L 306.954083 233.277898 
L 307.33621 233.127773 
L 308.100462 232.677398 
L 309.628968 232.166972 
L 310.39322 231.656547 
L 310.775347 231.236197 
L 311.157473 230.995997 
L 311.539599 230.905922 
L 312.303852 230.245371 
L 312.685978 230.185321 
L 313.068105 229.524771 
L 313.450231 229.344621 
L 313.832357 229.014345 
L 314.214484 228.954295 
L 314.978737 228.44387 
L 315.742989 228.173645 
L 316.125116 227.873394 
L 316.507242 227.723269 
L 318.035747 226.732444 
L 319.182126 226.131943 
L 319.946379 225.921768 
L 320.710632 225.471393 
L 321.092758 224.780817 
L 321.857011 224.180317 
L 322.239137 224.090242 
L 324.531895 222.949291 
L 325.296148 222.619016 
L 326.060401 222.04854 
L 327.20678 220.937615 
L 327.971032 220.457214 
L 328.353159 220.006839 
L 329.881664 218.895913 
L 330.645917 218.085238 
L 331.410169 217.815013 
L 332.174422 217.274562 
L 333.320801 216.644037 
L 333.702928 216.583987 
L 337.142065 214.782485 
L 337.906317 214.57231 
L 339.434823 214.03186 
L 339.816949 213.701585 
L 341.345455 213.071059 
L 341.727581 212.950959 
L 342.491834 212.440534 
L 343.256086 212.110259 
L 344.020339 211.539783 
L 344.784592 209.948457 
L 345.548844 209.047706 
L 346.695223 208.417181 
L 347.459476 208.086906 
L 347.841602 208.026856 
L 348.605855 207.666555 
L 350.134361 207.126105 
L 350.898613 206.67573 
L 351.662866 206.285405 
L 352.044992 206.165304 
L 354.33775 204.724103 
L 354.719877 204.273728 
L 355.866256 203.583153 
L 356.248382 203.433028 
L 357.012635 202.952627 
L 358.54114 202.081902 
L 358.923267 201.991827 
L 359.305393 201.661551 
L 361.980277 200.760801 
L 362.362404 200.490575 
L 363.126656 200.250375 
L 366.183667 198.749124 
L 366.94792 198.328774 
L 367.330046 198.148624 
L 368.094299 197.518098 
L 368.858552 197.307923 
L 369.240678 196.947623 
L 369.622804 196.887573 
L 370.387057 196.287073 
L 372.297689 195.116097 
L 373.061941 194.875897 
L 373.444068 194.635696 
L 373.826194 194.575646 
L 375.3547 193.825021 
L 376.501079 193.434696 
L 377.265331 193.314595 
L 378.793837 192.714095 
L 379.175963 192.68407 
L 380.704468 192.08357 
L 381.850847 191.242869 
L 382.232974 191.092744 
L 382.997227 190.642369 
L 383.379353 190.552294 
L 385.672111 189.201168 
L 386.054237 189.111093 
L 387.200616 188.390492 
L 388.346995 187.970142 
L 389.111248 187.699917 
L 390.639753 187.159466 
L 391.404006 186.889241 
L 392.932512 186.558966 
L 393.696764 186.318766 
L 395.607396 185.658215 
L 396.753775 185.297915 
L 397.135901 185.14779 
L 398.28228 184.96764 
L 400.575039 184.517264 
L 401.721418 184.247039 
L 402.103544 184.066889 
L 402.867797 183.916764 
L 403.632049 183.706589 
L 404.396302 183.346289 
L 404.778428 183.196163 
L 405.160555 183.196163 
L 409.363945 181.845038 
L 409.746071 181.634862 
L 410.128197 181.634862 
L 410.89245 181.334612 
L 411.274576 180.914262 
L 413.567334 179.923436 
L 415.09584 179.382986 
L 415.477966 179.142786 
L 416.624345 178.782485 
L 417.388598 178.57231 
L 417.770724 178.302085 
L 418.152851 178.21201 
L 418.534977 177.881735 
L 419.681356 177.641535 
L 420.445609 177.281234 
L 420.827735 176.800834 
L 425.031125 175.840033 
L 425.413251 175.840033 
L 426.177504 175.599833 
L 429.616641 174.699083 
L 429.998767 174.548957 
L 430.76302 174.398832 
L 432.673652 173.888407 
L 433.820031 173.528107 
L 435.730663 172.897581 
L 436.494915 172.567306 
L 437.259168 172.267056 
L 437.641294 171.996831 
L 438.405547 171.756631 
L 441.080431 170.705755 
L 442.608937 170.525605 
L 445.665948 169.354629 
L 446.048074 169.054379 
L 446.4302 168.964304 
L 446.812327 168.754128 
L 447.194453 168.724103 
L 451.397843 167.132777 
L 453.308475 166.592327 
L 454.072727 166.202002 
L 455.219106 165.931776 
L 456.747612 164.640701 
L 458.276117 163.950125 
L 459.804622 163.289575 
L 460.186749 163.1995 
L 460.568875 162.929274 
L 461.333128 162.689074 
L 461.715254 162.418849 
L 463.625886 161.758299 
L 467.447149 159.746622 
L 468.211402 159.386322 
L 468.593529 159.086072 
L 469.357781 158.815847 
L 471.650539 157.674896 
L 472.032666 157.584821 
L 473.179045 157.04437 
L 474.70755 156.50392 
L 475.471803 156.173645 
L 476.236055 156.053545 
L 476.618182 155.783319 
L 478.146687 155.483069 
L 478.91094 155.152794 
L 480.821572 154.222018 
L 485.789214 151.970142 
L 486.935593 151.579817 
L 487.31772 151.309591 
L 488.081972 151.219516 
L 488.464099 150.949291 
L 489.228351 150.829191 
L 489.992604 150.438866 
L 490.756857 150.198666 
L 492.285362 149.658215 
L 493.431741 149.237865 
L 495.342373 148.72744 
L 496.870878 148.066889 
L 497.635131 147.646539 
L 499.163636 146.835863 
L 499.927889 146.655713 
L 500.310015 146.415513 
L 500.692142 146.325438 
L 502.602773 145.364637 
L 505.659784 144.253711 
L 506.041911 144.133611 
L 506.806163 143.713261 
L 508.716795 143.022686 
L 511.009553 142.061885 
L 512.538059 141.311259 
L 516.359322 139.749958 
L 517.123575 139.359633 
L 517.505701 139.269558 
L 518.269954 138.969308 
L 518.65208 138.969308 
L 519.416333 138.609008 
L 520.944838 137.287907 
L 521.326965 137.167807 
L 521.709091 136.927606 
L 522.85547 136.597331 
L 523.237596 136.297081 
L 524.001849 136.026856 
L 525.148228 135.246205 
L 525.912481 135.03603 
L 526.676733 134.61568 
L 527.823112 134.345455 
L 529.733744 133.654879 
L 530.497997 133.414679 
L 531.26225 133.054379 
L 532.408629 132.423853 
L 533.172881 132.213678 
L 534.701387 131.493078 
L 536.994145 130.682402 
L 538.140524 130.141952 
L 540.051156 129.181151 
L 540.815408 128.880901 
L 541.197535 128.520601 
L 542.343914 128.070225 
L 542.72604 128.010175 
L 544.254545 127.289575 
L 545.400924 126.929274 
L 546.547304 126.508924 
L 547.311556 126.268724 
L 548.075809 126.118599 
L 548.840062 125.698249 
L 549.222188 125.548123 
L 549.604314 125.247873 
L 550.750693 124.947623 
L 551.514946 124.647373 
L 552.279199 124.317098 
L 553.807704 123.686572 
L 556.482589 122.965972 
L 557.246841 122.665721 
L 558.775347 122.365471 
L 559.539599 122.215346 
L 560.685978 121.764971 
L 561.832357 121.524771 
L 564.125116 120.14362 
L 565.271495 119.423019 
L 567.564253 118.702419 
L 567.946379 118.402168 
L 571.00339 117.291243 
L 572.149769 116.930942 
L 572.914022 116.510592 
L 573.678274 116.300417 
L 574.060401 116.090242 
L 574.824653 115.940117 
L 576.353159 115.339616 
L 577.117411 114.829191 
L 578.26379 114.528941 
L 579.410169 113.74829 
L 579.792296 113.68824 
L 581.320801 113.057715 
L 582.849307 112.667389 
L 583.231433 112.607339 
L 583.613559 112.427189 
L 583.995686 112.397164 
L 584.759938 112.126939 
L 585.142065 112.096914 
L 586.288444 111.646539 
L 587.816949 111.196163 
L 588.581202 110.595663 
L 590.109707 109.724937 
L 590.491834 109.634862 
L 590.87396 109.424687 
L 591.256086 109.364637 
L 594.695223 107.623186 
L 595.07735 107.262886 
L 596.987982 106.782485 
L 598.134361 106.242035 
L 598.898613 106.03186 
L 599.28074 105.85171 
L 599.662866 105.521435 
L 601.573498 104.830859 
L 606.54114 102.969308 
L 607.305393 102.819183 
L 609.216025 102.188657 
L 610.362404 101.678232 
L 613.037288 100.867556 
L 613.801541 100.417181 
L 626.793837 96.393828 
L 627.558089 96.183653 
L 628.704468 95.763303 
L 629.086595 95.763303 
L 630.232974 95.493078 
L 630.997227 95.342952 
L 631.761479 95.132777 
L 632.907858 94.502252 
L 634.054237 94.141952 
L 636.729122 93.211176 
L 638.257627 92.430525 
L 639.404006 92.1603 
L 640.168259 91.9201 
L 640.932512 91.529775 
L 641.314638 91.1995 
L 642.078891 90.959299 
L 642.461017 90.719099 
L 643.22527 90.629024 
L 645.900154 89.848374 
L 647.046533 89.608173 
L 648.192912 89.307923 
L 648.957165 89.127773 
L 650.103544 88.527273 
L 654.306934 86.935947 
L 654.68906 86.845872 
L 655.071186 86.635696 
L 655.835439 86.515596 
L 656.599692 86.365471 
L 656.981818 86.365471 
L 658.128197 86.005171 
L 659.274576 85.644871 
L 662.713713 84.654045 
L 663.477966 84.44387 
L 663.860092 84.353795 
L 664.242219 84.113595 
L 665.006471 83.96347 
L 665.770724 83.873394 
L 666.152851 83.663219 
L 666.534977 83.633194 
L 667.681356 83.092744 
L 668.827735 82.822519 
L 669.591988 82.492244 
L 670.35624 82.222018 
L 671.120493 82.011843 
L 671.884746 81.681568 
L 672.266872 81.621518 
L 673.031125 81.351293 
L 674.177504 81.021018 
L 674.941757 80.960967 
L 676.088136 80.540617 
L 676.852388 80.420517 
L 679.527273 79.429691 
L 681.820031 79.039366 
L 682.584284 78.799166 
L 682.96641 78.739116 
L 683.730663 78.408841 
L 684.112789 78.348791 
L 684.494915 78.168641 
L 685.259168 77.50809 
L 689.080431 76.096914 
L 691.37319 75.496414 
L 692.137442 75.076063 
L 692.519569 74.985988 
L 693.665948 74.355463 
L 694.048074 74.265388 
L 694.4302 73.965138 
L 695.576579 73.634862 
L 701.690601 70.87256 
L 702.072727 70.81251 
L 704.365485 69.641535 
L 704.747612 69.401334 
L 705.893991 69.071059 
L 707.422496 68.440534 
L 707.804622 68.410509 
L 709.715254 67.689908 
L 710.479507 67.539783 
L 711.24376 66.969308 
L 711.625886 66.969308 
L 712.390139 66.699083 
L 712.772265 66.639033 
L 713.154391 66.428857 
L 714.682897 66.128607 
L 716.211402 65.468057 
L 716.593529 65.468057 
L 717.739908 65.077731 
L 718.50416 64.957631 
L 719.650539 64.297081 
L 720.414792 63.906756 
L 722.325424 63.27623 
L 723.089676 62.945955 
L 725.382435 62.285405 
L 726.528814 62.045204 
L 727.675193 61.624854 
L 729.585824 60.934279 
L 734.935593 59.613178 
L 736.464099 58.892577 
L 737.610478 58.532277 
L 740.285362 57.991827 
L 741.049615 57.871726 
L 743.342373 56.970976 
L 744.106626 56.850876 
L 745.635131 56.34045 
L 746.017257 56.34045 
L 746.399384 56.0402 
L 747.163636 55.8 
L 747.163636 55.8 
" clip-path="url(#pf0dda6b212)" style="fill: none; stroke: #1f77b4; stroke-width: 1.5; stroke-linecap: square"/>
   </g>
   <g id="line2d_40">
    <path d="M 138.81849 307.8 
L 142.257627 307.709925 
L 145.314638 307.5598 
L 146.843143 307.5598 
L 147.22527 307.4397 
L 149.135901 307.349625 
L 151.428659 307.079399 
L 153.721418 306.989324 
L 154.48567 306.899249 
L 157.160555 306.779149 
L 159.835439 306.689074 
L 161.746071 306.629024 
L 166.713713 306.538949 
L 168.624345 306.478899 
L 172.063482 306.388824 
L 173.591988 306.358799 
L 177.413251 306.268724 
L 178.941757 306.118599 
L 180.470262 306.088574 
L 182.76302 305.998499 
L 184.291525 305.968474 
L 186.202157 305.908424 
L 187.730663 305.758299 
L 191.1698 305.668224 
L 191.934052 305.608173 
L 193.462558 305.518098 
L 195.755316 305.428023 
L 197.283821 305.337948 
L 204.162096 304.887573 
L 206.83698 304.797498 
L 207.983359 304.677398 
L 209.893991 304.587323 
L 213.715254 304.377148 
L 217.536518 304.317098 
L 219.065023 304.136947 
L 220.975655 304.046872 
L 224.796918 303.656547 
L 227.089676 303.356297 
L 228.618182 303.296247 
L 231.675193 302.875897 
L 233.967951 302.815847 
L 235.11433 302.695746 
L 236.260709 302.605671 
L 246.960247 301.734946 
L 247.724499 301.584821 
L 250.017257 301.494746 
L 256.131279 301.10442 
L 258.806163 301.014345 
L 260.334669 300.834195 
L 262.2453 300.74412 
L 264.538059 300.654045 
L 266.44869 300.56397 
L 267.977196 300.533945 
L 269.887827 300.473895 
L 270.65208 300.38382 
L 276.001849 300.293745 
L 276.766102 300.20367 
L 281.351618 300.113595 
L 284.790755 299.933445 
L 287.465639 299.843369 
L 288.994145 299.663219 
L 291.669029 299.573144 
L 292.433282 299.453044 
L 294.343914 299.392994 
L 298.165177 299.332944 
L 299.693683 299.182819 
L 301.222188 299.152794 
L 302.368567 299.062719 
L 303.897072 298.912594 
L 307.718336 298.702419 
L 311.539599 298.612344 
L 314.978737 298.432193 
L 316.125116 298.402168 
L 316.889368 298.282068 
L 318.8 298.191993 
L 319.564253 298.131943 
L 320.328505 298.071893 
L 321.092758 298.011843 
L 324.914022 297.921768 
L 333.320801 297.351293 
L 334.085054 297.291243 
L 335.231433 297.201168 
L 337.906317 297.111093 
L 339.816949 297.051043 
L 345.166718 296.960967 
L 345.930971 296.870892 
L 351.28074 296.780817 
L 355.102003 296.570642 
L 355.866256 296.540617 
L 356.630508 296.450542 
L 358.54114 296.360467 
L 360.451772 296.300417 
L 362.362404 296.210342 
L 364.273035 296.150292 
L 367.712173 296.060217 
L 370.004931 295.970142 
L 375.3547 295.880067 
L 379.558089 295.639867 
L 381.086595 295.579817 
L 382.232974 295.489741 
L 387.582743 295.399666 
L 389.875501 295.309591 
L 396.753775 295.219516 
L 398.28228 295.189491 
L 402.867797 295.129441 
L 403.632049 295.069391 
L 408.981818 294.979316 
L 410.510324 294.949291 
L 420.445609 294.859216 
L 422.738367 294.769141 
L 438.787673 294.679066 
L 440.698305 294.619016 
L 450.63359 294.558966 
L 451.397843 294.498916 
L 453.308475 294.438866 
L 454.454854 294.318766 
L 456.747612 294.228691 
L 459.422496 294.10859 
L 462.861633 294.018515 
L 464.772265 293.958465 
L 467.447149 293.86839 
L 470.50416 293.718265 
L 472.414792 293.62819 
L 473.943297 293.598165 
L 480.439445 293.50809 
L 482.732203 293.418015 
L 486.935593 293.32794 
L 489.610478 293.20784 
L 492.285362 293.14779 
L 493.049615 293.08774 
L 502.220647 292.997665 
L 506.041911 292.78749 
L 508.716795 292.697415 
L 512.920185 292.457214 
L 515.595069 292.367139 
L 517.123575 292.337114 
L 519.798459 292.247039 
L 521.709091 292.036864 
L 525.530354 291.946789 
L 526.294607 291.856714 
L 530.115871 291.766639 
L 532.026502 291.706589 
L 536.229892 291.676564 
L 536.994145 291.586489 
L 541.197535 291.496414 
L 541.961787 291.436364 
L 550.368567 291.346289 
L 552.661325 291.256214 
L 558.39322 291.166138 
L 559.921726 291.136113 
L 563.360863 291.076063 
L 564.125116 290.985988 
L 569.092758 290.895913 
L 571.00339 290.835863 
L 577.881664 290.745788 
L 579.028043 290.655713 
L 580.174422 290.565638 
L 581.320801 290.475563 
L 587.052696 290.385488 
L 589.345455 290.295413 
L 600.427119 290.205338 
L 603.866256 290.025188 
L 609.216025 289.935113 
L 610.74453 289.905088 
L 615.330046 289.815013 
L 617.240678 289.754962 
L 625.265331 289.664887 
L 627.940216 289.544787 
L 634.81849 289.454712 
L 636.346995 289.424687 
L 640.168259 289.334612 
L 642.843143 289.214512 
L 647.046533 289.124437 
L 649.721418 289.004337 
L 653.160555 288.944287 
L 653.924807 288.884237 
L 662.331587 288.794162 
L 664.624345 288.704087 
L 667.29923 288.614012 
L 669.209861 288.553962 
L 680.291525 288.463887 
L 682.584284 288.373812 
L 688.698305 288.283736 
L 690.991063 288.193661 
L 695.958706 288.103586 
L 698.251464 288.013511 
L 701.308475 287.923436 
L 703.601233 287.833361 
L 718.886287 287.743286 
L 721.943297 287.593161 
L 730.732203 287.503086 
L 732.260709 287.473061 
L 741.431741 287.382986 
L 743.342373 287.322936 
L 747.163636 287.322936 
L 747.163636 287.322936 
" clip-path="url(#pf0dda6b212)" style="fill: none; stroke: #ff7f0e; stroke-width: 1.5; stroke-linecap: square"/>
   </g>
   <g id="patch_3">
    <path d="M 108 320.4 
L 108 43.2 
" style="fill: none; stroke: #a9a9a9; stroke-width: 0.8; stroke-linejoin: miter; stroke-linecap: square"/>
   </g>
   <g id="patch_4">
    <path d="M 777.6 320.4 
L 777.6 43.2 
" style="fill: none"/>
   </g>
   <g id="patch_5">
    <path d="M 108 320.4 
L 777.6 320.4 
" style="fill: none; stroke: #a9a9a9; stroke-width: 0.8; stroke-linejoin: miter; stroke-linecap: square"/>
   </g>
   <g id="patch_6">
    <path d="M 108 43.2 
L 777.6 43.2 
" style="fill: none"/>
   </g>
   <g id="text_20">
    <!-- get_subscribe history -->
    <g style="fill: #a9a9a9" transform="translate(378.6075 37.2) scale(0.12 -0.12)">
     <defs>
      <path id="DejaVuSans-67" d="M 2906 1791 
Q 2906 2416 2648 2759 
Q 2391 3103 1925 3103 
Q 1463 3103 1205 2759 
Q 947 2416 947 1791 
Q 947 1169 1205 825 
Q 1463 481 1925 481 
Q 2391 481 2648 825 
Q 2906 1169 2906 1791 
z
M 3481 434 
Q 3481 -459 3084 -895 
Q 2688 -1331 1869 -1331 
Q 1566 -1331 1297 -1286 
Q 1028 -1241 775 -1147 
L 775 -588 
Q 1028 -725 1275 -790 
Q 1522 -856 1778 -856 
Q 2344 -856 2625 -561 
Q 2906 -266 2906 331 
L 2906 616 
Q 2728 306 2450 153 
Q 2172 0 1784 0 
Q 1141 0 747 490 
Q 353 981 353 1791 
Q 353 2603 747 3093 
Q 1141 3584 1784 3584 
Q 2172 3584 2450 3431 
Q 2728 3278 2906 2969 
L 2906 3500 
L 3481 3500 
L 3481 434 
z
" transform="scale(0.015625)"/>
      <path id="DejaVuSans-65" d="M 3597 1894 
L 3597 1613 
L 953 1613 
Q 991 1019 1311 708 
Q 1631 397 2203 397 
Q 2534 397 2845 478 
Q 3156 559 3463 722 
L 3463 178 
Q 3153 47 2828 -22 
Q 2503 -91 2169 -91 
Q 1331 -91 842 396 
Q 353 884 353 1716 
Q 353 2575 817 3079 
Q 1281 3584 2069 3584 
Q 2775 3584 3186 3129 
Q 3597 2675 3597 1894 
z
M 3022 2063 
Q 3016 2534 2758 2815 
Q 2500 3097 2075 3097 
Q 1594 3097 1305 2825 
Q 1016 2553 972 2059 
L 3022 2063 
z
" transform="scale(0.015625)"/>
      <path id="DejaVuSans-74" d="M 1172 4494 
L 1172 3500 
L 2356 3500 
L 2356 3053 
L 1172 3053 
L 1172 1153 
Q 1172 725 1289 603 
Q 1406 481 1766 481 
L 2356 481 
L 2356 0 
L 1766 0 
Q 1100 0 847 248 
Q 594 497 594 1153 
L 594 3053 
L 172 3053 
L 172 3500 
L 594 3500 
L 594 4494 
L 1172 4494 
z
" transform="scale(0.015625)"/>
      <path id="DejaVuSans-5f" d="M 3263 -1063 
L 3263 -1509 
L -63 -1509 
L -63 -1063 
L 3263 -1063 
z
" transform="scale(0.015625)"/>
      <path id="DejaVuSans-73" d="M 2834 3397 
L 2834 2853 
Q 2591 2978 2328 3040 
Q 2066 3103 1784 3103 
Q 1356 3103 1142 2972 
Q 928 2841 928 2578 
Q 928 2378 1081 2264 
Q 1234 2150 1697 2047 
L 1894 2003 
Q 2506 1872 2764 1633 
Q 3022 1394 3022 966 
Q 3022 478 2636 193 
Q 2250 -91 1575 -91 
Q 1294 -91 989 -36 
Q 684 19 347 128 
L 347 722 
Q 666 556 975 473 
Q 1284 391 1588 391 
Q 1994 391 2212 530 
Q 2431 669 2431 922 
Q 2431 1156 2273 1281 
Q 2116 1406 1581 1522 
L 1381 1569 
Q 847 1681 609 1914 
Q 372 2147 372 2553 
Q 372 3047 722 3315 
Q 1072 3584 1716 3584 
Q 2034 3584 2315 3537 
Q 2597 3491 2834 3397 
z
" transform="scale(0.015625)"/>
      <path id="DejaVuSans-75" d="M 544 1381 
L 544 3500 
L 1119 3500 
L 1119 1403 
Q 1119 906 1312 657 
Q 1506 409 1894 409 
Q 2359 409 2629 706 
Q 2900 1003 2900 1516 
L 2900 3500 
L 3475 3500 
L 3475 0 
L 2900 0 
L 2900 538 
Q 2691 219 2414 64 
Q 2138 -91 1772 -91 
Q 1169 -91 856 284 
Q 544 659 544 1381 
z
M 1991 3584 
L 1991 3584 
z
" transform="scale(0.015625)"/>
      <path id="DejaVuSans-62" d="M 3116 1747 
Q 3116 2381 2855 2742 
Q 2594 3103 2138 3103 
Q 1681 3103 1420 2742 
Q 1159 2381 1159 1747 
Q 1159 1113 1420 752 
Q 1681 391 2138 391 
Q 2594 391 2855 752 
Q 3116 1113 3116 1747 
z
M 1159 2969 
Q 1341 3281 1617 3432 
Q 1894 3584 2278 3584 
Q 2916 3584 3314 3078 
Q 3713 2572 3713 1747 
Q 3713 922 3314 415 
Q 2916 -91 2278 -91 
Q 1894 -91 1617 61 
Q 1341 213 1159 525 
L 1159 0 
L 581 0 
L 581 4863 
L 1159 4863 
L 1159 2969 
z
" transform="scale(0.015625)"/>
      <path id="DejaVuSans-63" d="M 3122 3366 
L 3122 2828 
Q 2878 2963 2633 3030 
Q 2388 3097 2138 3097 
Q 1578 3097 1268 2742 
Q 959 2388 959 1747 
Q 959 1106 1268 751 
Q 1578 397 2138 397 
Q 2388 397 2633 464 
Q 2878 531 3122 666 
L 3122 134 
Q 2881 22 2623 -34 
Q 2366 -91 2075 -91 
Q 1284 -91 818 406 
Q 353 903 353 1747 
Q 353 2603 823 3093 
Q 1294 3584 2113 3584 
Q 2378 3584 2631 3529 
Q 2884 3475 3122 3366 
z
" transform="scale(0.015625)"/>
      <path id="DejaVuSans-72" d="M 2631 2963 
Q 2534 3019 2420 3045 
Q 2306 3072 2169 3072 
Q 1681 3072 1420 2755 
Q 1159 2438 1159 1844 
L 1159 0 
L 581 0 
L 581 3500 
L 1159 3500 
L 1159 2956 
Q 1341 3275 1631 3429 
Q 1922 3584 2338 3584 
Q 2397 3584 2469 3576 
Q 2541 3569 2628 3553 
L 2631 2963 
z
" transform="scale(0.015625)"/>
      <path id="DejaVuSans-69" d="M 603 3500 
L 1178 3500 
L 1178 0 
L 603 0 
L 603 3500 
z
M 603 4863 
L 1178 4863 
L 1178 4134 
L 603 4134 
L 603 4863 
z
" transform="scale(0.015625)"/>
      <path id="DejaVuSans-20" transform="scale(0.015625)"/>
      <path id="DejaVuSans-68" d="M 3513 2113 
L 3513 0 
L 2938 0 
L 2938 2094 
Q 2938 2591 2744 2837 
Q 2550 3084 2163 3084 
Q 1697 3084 1428 2787 
Q 1159 2491 1159 1978 
L 1159 0 
L 581 0 
L 581 4863 
L 1159 4863 
L 1159 2956 
Q 1366 3272 1645 3428 
Q 1925 3584 2291 3584 
Q 2894 3584 3203 3211 
Q 3513 2838 3513 2113 
z
" transform="scale(0.015625)"/>
      <path id="DejaVuSans-6f" d="M 1959 3097 
Q 1497 3097 1228 2736 
Q 959 2375 959 1747 
Q 959 1119 1226 758 
Q 1494 397 1959 397 
Q 2419 397 2687 759 
Q 2956 1122 2956 1747 
Q 2956 2369 2687 2733 
Q 2419 3097 1959 3097 
z
M 1959 3584 
Q 2709 3584 3137 3096 
Q 3566 2609 3566 1747 
Q 3566 888 3137 398 
Q 2709 -91 1959 -91 
Q 1206 -91 779 398 
Q 353 888 353 1747 
Q 353 2609 779 3096 
Q 1206 3584 1959 3584 
z
" transform="scale(0.015625)"/>
      <path id="DejaVuSans-79" d="M 2059 -325 
Q 1816 -950 1584 -1140 
Q 1353 -1331 966 -1331 
L 506 -1331 
L 506 -850 
L 844 -850 
Q 1081 -850 1212 -737 
Q 1344 -625 1503 -206 
L 1606 56 
L 191 3500 
L 800 3500 
L 1894 763 
L 2988 3500 
L 3597 3500 
L 2059 -325 
z
" transform="scale(0.015625)"/>
     </defs>
     <use xlink:href="#DejaVuSans-67"/>
     <use xlink:href="#DejaVuSans-65" transform="translate(63.476562 0)"/>
     <use xlink:href="#DejaVuSans-74" transform="translate(125 0)"/>
     <use xlink:href="#DejaVuSans-5f" transform="translate(164.208984 0)"/>
     <use xlink:href="#DejaVuSans-73" transform="translate(214.208984 0)"/>
     <use xlink:href="#DejaVuSans-75" transform="translate(266.308594 0)"/>
     <use xlink:href="#DejaVuSans-62" transform="translate(329.6875 0)"/>
     <use xlink:href="#DejaVuSans-73" transform="translate(393.164062 0)"/>
     <use xlink:href="#DejaVuSans-63" transform="translate(445.263672 0)"/>
     <use xlink:href="#DejaVuSans-72" transform="translate(500.244141 0)"/>
     <use xlink:href="#DejaVuSans-69" transform="translate(541.357422 0)"/>
     <use xlink:href="#DejaVuSans-62" transform="translate(569.140625 0)"/>
     <use xlink:href="#DejaVuSans-65" transform="translate(632.617188 0)"/>
     <use xlink:href="#DejaVuSans-20" transform="translate(694.140625 0)"/>
     <use xlink:href="#DejaVuSans-68" transform="translate(725.927734 0)"/>
     <use xlink:href="#DejaVuSans-69" transform="translate(789.306641 0)"/>
     <use xlink:href="#DejaVuSans-73" transform="translate(817.089844 0)"/>
     <use xlink:href="#DejaVuSans-74" transform="translate(869.189453 0)"/>
     <use xlink:href="#DejaVuSans-6f" transform="translate(908.398438 0)"/>
     <use xlink:href="#DejaVuSans-72" transform="translate(969.580078 0)"/>
     <use xlink:href="#DejaVuSans-79" transform="translate(1010.693359 0)"/>
    </g>
   </g>
   <g id="legend_1">
    <g id="line2d_41">
     <path d="M 815.08 328.498438 
L 825.08 328.498438 
L 835.08 328.498438 
" style="fill: none; stroke: #1f77b4; stroke-width: 1.5; stroke-linecap: square"/>
    </g>
    <g id="text_21">
     <!-- star -->
     <g style="fill: #a9a9a9" transform="translate(843.08 331.998438) scale(0.1 -0.1)">
      <defs>
       <path id="DejaVuSans-61" d="M 2194 1759 
Q 1497 1759 1228 1600 
Q 959 1441 959 1056 
Q 959 750 1161 570 
Q 1363 391 1709 391 
Q 2188 391 2477 730 
Q 2766 1069 2766 1631 
L 2766 1759 
L 2194 1759 
z
M 3341 1997 
L 3341 0 
L 2766 0 
L 2766 531 
Q 2569 213 2275 61 
Q 1981 -91 1556 -91 
Q 1019 -91 701 211 
Q 384 513 384 1019 
Q 384 1609 779 1909 
Q 1175 2209 1959 2209 
L 2766 2209 
L 2766 2266 
Q 2766 2663 2505 2880 
Q 2244 3097 1772 3097 
Q 1472 3097 1187 3025 
Q 903 2953 641 2809 
L 641 3341 
Q 956 3463 1253 3523 
Q 1550 3584 1831 3584 
Q 2591 3584 2966 3190 
Q 3341 2797 3341 1997 
z
" transform="scale(0.015625)"/>
      </defs>
      <use xlink:href="#DejaVuSans-73"/>
      <use xlink:href="#DejaVuSans-74" transform="translate(52.099609 0)"/>
      <use xlink:href="#DejaVuSans-61" transform="translate(91.308594 0)"/>
      <use xlink:href="#DejaVuSans-72" transform="translate(152.587891 0)"/>
     </g>
    </g>
    <g id="line2d_42">
     <path d="M 815.08 343.176562 
L 825.08 343.176562 
L 835.08 343.176562 
" style="fill: none; stroke: #ff7f0e; stroke-width: 1.5; stroke-linecap: square"/>
    </g>
    <g id="text_22">
     <!-- fork -->
     <g style="fill: #a9a9a9" transform="translate(843.08 346.676562) scale(0.1 -0.1)">
      <defs>
       <path id="DejaVuSans-66" d="M 2375 4863 
L 2375 4384 
L 1825 4384 
Q 1516 4384 1395 4259 
Q 1275 4134 1275 3809 
L 1275 3500 
L 2222 3500 
L 2222 3053 
L 1275 3053 
L 1275 0 
L 697 0 
L 697 3053 
L 147 3053 
L 147 3500 
L 697 3500 
L 697 3744 
Q 697 4328 969 4595 
Q 1241 4863 1831 4863 
L 2375 4863 
z
" transform="scale(0.015625)"/>
       <path id="DejaVuSans-6b" d="M 581 4863 
L 1159 4863 
L 1159 1991 
L 2875 3500 
L 3609 3500 
L 1753 1863 
L 3688 0 
L 2938 0 
L 1159 1709 
L 1159 0 
L 581 0 
L 581 4863 
z
" transform="scale(0.015625)"/>
      </defs>
      <use xlink:href="#DejaVuSans-66"/>
      <use xlink:href="#DejaVuSans-6f" transform="translate(35.205078 0)"/>
      <use xlink:href="#DejaVuSans-72" transform="translate(96.386719 0)"/>
      <use xlink:href="#DejaVuSans-6b" transform="translate(137.5 0)"/>
     </g>
    </g>
   </g>
  </g>
 </g>
 <defs>
  <clipPath id="pf0dda6b212">
   <rect x="108" y="43.2" width="669.6" height="277.2"/>
  </clipPath>
 </defs>
</svg>
