<?xml version="1.0" encoding="utf-8" standalone="no"?>
<!DOCTYPE svg PUBLIC "-//W3C//DTD SVG 1.1//EN"
  "http://www.w3.org/Graphics/SVG/1.1/DTD/svg11.dtd">
<svg xmlns:xlink="http://www.w3.org/1999/xlink" width="864pt" height="360pt" viewBox="0 0 864 360" xmlns="http://www.w3.org/2000/svg" version="1.1">
 <metadata>
  <rdf:RDF xmlns:dc="http://purl.org/dc/elements/1.1/" xmlns:cc="http://creativecommons.org/ns#" xmlns:rdf="http://www.w3.org/1999/02/22-rdf-syntax-ns#">
   <cc:Work>
    <dc:type rdf:resource="http://purl.org/dc/dcmitype/StillImage"/>
    <dc:date>2026-01-26T20:08:57.658846</dc:date>
    <dc:format>image/svg+xml</dc:format>
    <dc:creator>
     <cc:Agent>
      <dc:title>Matplotlib v3.10.8, https://matplotlib.org/</dc:title>
     </cc:Agent>
    </dc:creator>
   </cc:Work>
  </rdf:RDF>
 </metadata>
 <defs>
  <style type="text/css">*{stroke-linejoin: round; stroke-linecap: butt}</style>
 </defs>
 <g id="figure_1">
  <g id="patch_1">
   <path d="M 0 360 
L 864 360 
L 864 0 
L 0 0 
L 0 360 
z
" style="fill: none; opacity: 0"/>
  </g>
  <g id="axes_1">
   <g id="patch_2">
    <path d="M 108 320.4 
L 777.6 320.4 
L 777.6 43.2 
L 108 43.2 
L 108 320.4 
z
" style="fill: none; opacity: 0"/>
   </g>
   <g id="matplotlib.axis_1">
    <g id="xtick_1">
     <g id="line2d_1">
      <path d="M 129.935618 320.4 
L 129.935618 43.2 
" clip-path="url(#pdd112792dd)" style="fill: none; stroke-dasharray: 5.12,1.28,0.8,1.28; stroke-dashoffset: 0; stroke: #b0b0b0; stroke-width: 0.8"/>
     </g>
     <g id="line2d_2">
      <defs>
       <path id="mc33eb5714c" d="M 0 0 
L 0 3.5 
" style="stroke: #a9a9a9; stroke-width: 0.8"/>
      </defs>
      <g>
       <use xlink:href="#mc33eb5714c" x="129.935618" y="320.4" style="fill: #a9a9a9; stroke: #a9a9a9; stroke-width: 0.8"/>
      </g>
     </g>
     <g id="text_1">
      <!-- 2021-07 -->
      <g style="fill: #a9a9a9" transform="translate(109.044212 334.998438) scale(0.1 -0.1)">
       <defs>
        <path id="DejaVuSans-32" d="M 1228 531 
L 3431 531 
L 3431 0 
L 469 0 
L 469 531 
Q 828 903 1448 1529 
Q 2069 2156 2228 2338 
Q 2531 2678 2651 2914 
Q 2772 3150 2772 3378 
Q 2772 3750 2511 3984 
Q 2250 4219 1831 4219 
Q 1534 4219 1204 4116 
Q 875 4013 500 3803 
L 500 4441 
Q 881 4594 1212 4672 
Q 1544 4750 1819 4750 
Q 2544 4750 2975 4387 
Q 3406 4025 3406 3419 
Q 3406 3131 3298 2873 
Q 3191 2616 2906 2266 
Q 2828 2175 2409 1742 
Q 1991 1309 1228 531 
z
" transform="scale(0.015625)"/>
        <path id="DejaVuSans-30" d="M 2034 4250 
Q 1547 4250 1301 3770 
Q 1056 3291 1056 2328 
Q 1056 1369 1301 889 
Q 1547 409 2034 409 
Q 2525 409 2770 889 
Q 3016 1369 3016 2328 
Q 3016 3291 2770 3770 
Q 2525 4250 2034 4250 
z
M 2034 4750 
Q 2819 4750 3233 4129 
Q 3647 3509 3647 2328 
Q 3647 1150 3233 529 
Q 2819 -91 2034 -91 
Q 1250 -91 836 529 
Q 422 1150 422 2328 
Q 422 3509 836 4129 
Q 1250 4750 2034 4750 
z
" transform="scale(0.015625)"/>
        <path id="DejaVuSans-31" d="M 794 531 
L 1825 531 
L 1825 4091 
L 703 3866 
L 703 4441 
L 1819 4666 
L 2450 4666 
L 2450 531 
L 3481 531 
L 3481 0 
L 794 0 
L 794 531 
z
" transform="scale(0.015625)"/>
        <path id="DejaVuSans-2d" d="M 313 2009 
L 1997 2009 
L 1997 1497 
L 313 1497 
L 313 2009 
z
" transform="scale(0.015625)"/>
        <path id="DejaVuSans-37" d="M 525 4666 
L 3525 4666 
L 3525 4397 
L 1831 0 
L 1172 0 
L 2766 4134 
L 525 4134 
L 525 4666 
z
" transform="scale(0.015625)"/>
       </defs>
       <use xlink:href="#DejaVuSans-32"/>
       <use xlink:href="#DejaVuSans-30" transform="translate(63.623047 0)"/>
       <use xlink:href="#DejaVuSans-32" transform="translate(127.246094 0)"/>
       <use xlink:href="#DejaVuSans-31" transform="translate(190.869141 0)"/>
       <use xlink:href="#DejaVuSans-2d" transform="translate(254.492188 0)"/>
       <use xlink:href="#DejaVuSans-30" transform="translate(290.576172 0)"/>
       <use xlink:href="#DejaVuSans-37" transform="translate(354.199219 0)"/>
      </g>
     </g>
    </g>
    <g id="xtick_2">
     <g id="line2d_3">
      <path d="M 197.94158 320.4 
L 197.94158 43.2 
" clip-path="url(#pdd112792dd)" style="fill: none; stroke-dasharray: 5.12,1.28,0.8,1.28; stroke-dashoffset: 0; stroke: #b0b0b0; stroke-width: 0.8"/>
     </g>
     <g id="line2d_4">
      <g>
       <use xlink:href="#mc33eb5714c" x="197.94158" y="320.4" style="fill: #a9a9a9; stroke: #a9a9a9; stroke-width: 0.8"/>
      </g>
     </g>
     <g id="text_2">
      <!-- 2022-01 -->
      <g style="fill: #a9a9a9" transform="translate(177.050173 334.998438) scale(0.1 -0.1)">
       <use xlink:href="#DejaVuSans-32"/>
       <use xlink:href="#DejaVuSans-30" transform="translate(63.623047 0)"/>
       <use xlink:href="#DejaVuSans-32" transform="translate(127.246094 0)"/>
       <use xlink:href="#DejaVuSans-32" transform="translate(190.869141 0)"/>
       <use xlink:href="#DejaVuSans-2d" transform="translate(254.492188 0)"/>
       <use xlink:href="#DejaVuSans-30" transform="translate(290.576172 0)"/>
       <use xlink:href="#DejaVuSans-31" transform="translate(354.199219 0)"/>
      </g>
     </g>
    </g>
    <g id="xtick_3">
     <g id="line2d_5">
      <path d="M 264.838748 320.4 
L 264.838748 43.2 
" clip-path="url(#pdd112792dd)" style="fill: none; stroke-dasharray: 5.12,1.28,0.8,1.28; stroke-dashoffset: 0; stroke: #b0b0b0; stroke-width: 0.8"/>
     </g>
     <g id="line2d_6">
      <g>
       <use xlink:href="#mc33eb5714c" x="264.838748" y="320.4" style="fill: #a9a9a9; stroke: #a9a9a9; stroke-width: 0.8"/>
      </g>
     </g>
     <g id="text_3">
      <!-- 2022-07 -->
      <g style="fill: #a9a9a9" transform="translate(243.947342 334.998438) scale(0.1 -0.1)">
       <use xlink:href="#DejaVuSans-32"/>
       <use xlink:href="#DejaVuSans-30" transform="translate(63.623047 0)"/>
       <use xlink:href="#DejaVuSans-32" transform="translate(127.246094 0)"/>
       <use xlink:href="#DejaVuSans-32" transform="translate(190.869141 0)"/>
       <use xlink:href="#DejaVuSans-2d" transform="translate(254.492188 0)"/>
       <use xlink:href="#DejaVuSans-30" transform="translate(290.576172 0)"/>
       <use xlink:href="#DejaVuSans-37" transform="translate(354.199219 0)"/>
      </g>
     </g>
    </g>
    <g id="xtick_4">
     <g id="line2d_7">
      <path d="M 332.844709 320.4 
L 332.844709 43.2 
" clip-path="url(#pdd112792dd)" style="fill: none; stroke-dasharray: 5.12,1.28,0.8,1.28; stroke-dashoffset: 0; stroke: #b0b0b0; stroke-width: 0.8"/>
     </g>
     <g id="line2d_8">
      <g>
       <use xlink:href="#mc33eb5714c" x="332.844709" y="320.4" style="fill: #a9a9a9; stroke: #a9a9a9; stroke-width: 0.8"/>
      </g>
     </g>
     <g id="text_4">
      <!-- 2023-01 -->
      <g style="fill: #a9a9a9" transform="translate(311.953303 334.998438) scale(0.1 -0.1)">
       <defs>
        <path id="DejaVuSans-33" d="M 2597 2516 
Q 3050 2419 3304 2112 
Q 3559 1806 3559 1356 
Q 3559 666 3084 287 
Q 2609 -91 1734 -91 
Q 1441 -91 1130 -33 
Q 819 25 488 141 
L 488 750 
Q 750 597 1062 519 
Q 1375 441 1716 441 
Q 2309 441 2620 675 
Q 2931 909 2931 1356 
Q 2931 1769 2642 2001 
Q 2353 2234 1838 2234 
L 1294 2234 
L 1294 2753 
L 1863 2753 
Q 2328 2753 2575 2939 
Q 2822 3125 2822 3475 
Q 2822 3834 2567 4026 
Q 2313 4219 1838 4219 
Q 1578 4219 1281 4162 
Q 984 4106 628 3988 
L 628 4550 
Q 988 4650 1302 4700 
Q 1616 4750 1894 4750 
Q 2613 4750 3031 4423 
Q 3450 4097 3450 3541 
Q 3450 3153 3228 2886 
Q 3006 2619 2597 2516 
z
" transform="scale(0.015625)"/>
       </defs>
       <use xlink:href="#DejaVuSans-32"/>
       <use xlink:href="#DejaVuSans-30" transform="translate(63.623047 0)"/>
       <use xlink:href="#DejaVuSans-32" transform="translate(127.246094 0)"/>
       <use xlink:href="#DejaVuSans-33" transform="translate(190.869141 0)"/>
       <use xlink:href="#DejaVuSans-2d" transform="translate(254.492188 0)"/>
       <use xlink:href="#DejaVuSans-30" transform="translate(290.576172 0)"/>
       <use xlink:href="#DejaVuSans-31" transform="translate(354.199219 0)"/>
      </g>
     </g>
    </g>
    <g id="xtick_5">
     <g id="line2d_9">
      <path d="M 399.741878 320.4 
L 399.741878 43.2 
" clip-path="url(#pdd112792dd)" style="fill: none; stroke-dasharray: 5.12,1.28,0.8,1.28; stroke-dashoffset: 0; stroke: #b0b0b0; stroke-width: 0.8"/>
     </g>
     <g id="line2d_10">
      <g>
       <use xlink:href="#mc33eb5714c" x="399.741878" y="320.4" style="fill: #a9a9a9; stroke: #a9a9a9; stroke-width: 0.8"/>
      </g>
     </g>
     <g id="text_5">
      <!-- 2023-07 -->
      <g style="fill: #a9a9a9" transform="translate(378.850472 334.998438) scale(0.1 -0.1)">
       <use xlink:href="#DejaVuSans-32"/>
       <use xlink:href="#DejaVuSans-30" transform="translate(63.623047 0)"/>
       <use xlink:href="#DejaVuSans-32" transform="translate(127.246094 0)"/>
       <use xlink:href="#DejaVuSans-33" transform="translate(190.869141 0)"/>
       <use xlink:href="#DejaVuSans-2d" transform="translate(254.492188 0)"/>
       <use xlink:href="#DejaVuSans-30" transform="translate(290.576172 0)"/>
       <use xlink:href="#DejaVuSans-37" transform="translate(354.199219 0)"/>
      </g>
     </g>
    </g>
    <g id="xtick_6">
     <g id="line2d_11">
      <path d="M 467.747839 320.4 
L 467.747839 43.2 
" clip-path="url(#pdd112792dd)" style="fill: none; stroke-dasharray: 5.12,1.28,0.8,1.28; stroke-dashoffset: 0; stroke: #b0b0b0; stroke-width: 0.8"/>
     </g>
     <g id="line2d_12">
      <g>
       <use xlink:href="#mc33eb5714c" x="467.747839" y="320.4" style="fill: #a9a9a9; stroke: #a9a9a9; stroke-width: 0.8"/>
      </g>
     </g>
     <g id="text_6">
      <!-- 2024-01 -->
      <g style="fill: #a9a9a9" transform="translate(446.856433 334.998438) scale(0.1 -0.1)">
       <defs>
        <path id="DejaVuSans-34" d="M 2419 4116 
L 825 1625 
L 2419 1625 
L 2419 4116 
z
M 2253 4666 
L 3047 4666 
L 3047 1625 
L 3713 1625 
L 3713 1100 
L 3047 1100 
L 3047 0 
L 2419 0 
L 2419 1100 
L 313 1100 
L 313 1709 
L 2253 4666 
z
" transform="scale(0.015625)"/>
       </defs>
       <use xlink:href="#DejaVuSans-32"/>
       <use xlink:href="#DejaVuSans-30" transform="translate(63.623047 0)"/>
       <use xlink:href="#DejaVuSans-32" transform="translate(127.246094 0)"/>
       <use xlink:href="#DejaVuSans-34" transform="translate(190.869141 0)"/>
       <use xlink:href="#DejaVuSans-2d" transform="translate(254.492188 0)"/>
       <use xlink:href="#DejaVuSans-30" transform="translate(290.576172 0)"/>
       <use xlink:href="#DejaVuSans-31" transform="translate(354.199219 0)"/>
      </g>
     </g>
    </g>
    <g id="xtick_7">
     <g id="line2d_13">
      <path d="M 535.014605 320.4 
L 535.014605 43.2 
" clip-path="url(#pdd112792dd)" style="fill: none; stroke-dasharray: 5.12,1.28,0.8,1.28; stroke-dashoffset: 0; stroke: #b0b0b0; stroke-width: 0.8"/>
     </g>
     <g id="line2d_14">
      <g>
       <use xlink:href="#mc33eb5714c" x="535.014605" y="320.4" style="fill: #a9a9a9; stroke: #a9a9a9; stroke-width: 0.8"/>
      </g>
     </g>
     <g id="text_7">
      <!-- 2024-07 -->
      <g style="fill: #a9a9a9" transform="translate(514.123199 334.998438) scale(0.1 -0.1)">
       <use xlink:href="#DejaVuSans-32"/>
       <use xlink:href="#DejaVuSans-30" transform="translate(63.623047 0)"/>
       <use xlink:href="#DejaVuSans-32" transform="translate(127.246094 0)"/>
       <use xlink:href="#DejaVuSans-34" transform="translate(190.869141 0)"/>
       <use xlink:href="#DejaVuSans-2d" transform="translate(254.492188 0)"/>
       <use xlink:href="#DejaVuSans-30" transform="translate(290.576172 0)"/>
       <use xlink:href="#DejaVuSans-37" transform="translate(354.199219 0)"/>
      </g>
     </g>
    </g>
    <g id="xtick_8">
     <g id="line2d_15">
      <path d="M 603.020566 320.4 
L 603.020566 43.2 
" clip-path="url(#pdd112792dd)" style="fill: none; stroke-dasharray: 5.12,1.28,0.8,1.28; stroke-dashoffset: 0; stroke: #b0b0b0; stroke-width: 0.8"/>
     </g>
     <g id="line2d_16">
      <g>
       <use xlink:href="#mc33eb5714c" x="603.020566" y="320.4" style="fill: #a9a9a9; stroke: #a9a9a9; stroke-width: 0.8"/>
      </g>
     </g>
     <g id="text_8">
      <!-- 2025-01 -->
      <g style="fill: #a9a9a9" transform="translate(582.12916 334.998438) scale(0.1 -0.1)">
       <defs>
        <path id="DejaVuSans-35" d="M 691 4666 
L 3169 4666 
L 3169 4134 
L 1269 4134 
L 1269 2991 
Q 1406 3038 1543 3061 
Q 1681 3084 1819 3084 
Q 2600 3084 3056 2656 
Q 3513 2228 3513 1497 
Q 3513 744 3044 326 
Q 2575 -91 1722 -91 
Q 1428 -91 1123 -41 
Q 819 9 494 109 
L 494 744 
Q 775 591 1075 516 
Q 1375 441 1709 441 
Q 2250 441 2565 725 
Q 2881 1009 2881 1497 
Q 2881 1984 2565 2268 
Q 2250 2553 1709 2553 
Q 1456 2553 1204 2497 
Q 953 2441 691 2322 
L 691 4666 
z
" transform="scale(0.015625)"/>
       </defs>
       <use xlink:href="#DejaVuSans-32"/>
       <use xlink:href="#DejaVuSans-30" transform="translate(63.623047 0)"/>
       <use xlink:href="#DejaVuSans-32" transform="translate(127.246094 0)"/>
       <use xlink:href="#DejaVuSans-35" transform="translate(190.869141 0)"/>
       <use xlink:href="#DejaVuSans-2d" transform="translate(254.492188 0)"/>
       <use xlink:href="#DejaVuSans-30" transform="translate(290.576172 0)"/>
       <use xlink:href="#DejaVuSans-31" transform="translate(354.199219 0)"/>
      </g>
     </g>
    </g>
    <g id="xtick_9">
     <g id="line2d_17">
      <path d="M 669.917735 320.4 
L 669.917735 43.2 
" clip-path="url(#pdd112792dd)" style="fill: none; stroke-dasharray: 5.12,1.28,0.8,1.28; stroke-dashoffset: 0; stroke: #b0b0b0; stroke-width: 0.8"/>
     </g>
     <g id="line2d_18">
      <g>
       <use xlink:href="#mc33eb5714c" x="669.917735" y="320.4" style="fill: #a9a9a9; stroke: #a9a9a9; stroke-width: 0.8"/>
      </g>
     </g>
     <g id="text_9">
      <!-- 2025-07 -->
      <g style="fill: #a9a9a9" transform="translate(649.026328 334.998438) scale(0.1 -0.1)">
       <use xlink:href="#DejaVuSans-32"/>
       <use xlink:href="#DejaVuSans-30" transform="translate(63.623047 0)"/>
       <use xlink:href="#DejaVuSans-32" transform="translate(127.246094 0)"/>
       <use xlink:href="#DejaVuSans-35" transform="translate(190.869141 0)"/>
       <use xlink:href="#DejaVuSans-2d" transform="translate(254.492188 0)"/>
       <use xlink:href="#DejaVuSans-30" transform="translate(290.576172 0)"/>
       <use xlink:href="#DejaVuSans-37" transform="translate(354.199219 0)"/>
      </g>
     </g>
    </g>
    <g id="xtick_10">
     <g id="line2d_19">
      <path d="M 737.923696 320.4 
L 737.923696 43.2 
" clip-path="url(#pdd112792dd)" style="fill: none; stroke-dasharray: 5.12,1.28,0.8,1.28; stroke-dashoffset: 0; stroke: #b0b0b0; stroke-width: 0.8"/>
     </g>
     <g id="line2d_20">
      <g>
       <use xlink:href="#mc33eb5714c" x="737.923696" y="320.4" style="fill: #a9a9a9; stroke: #a9a9a9; stroke-width: 0.8"/>
      </g>
     </g>
     <g id="text_10">
      <!-- 2026-01 -->
      <g style="fill: #a9a9a9" transform="translate(717.03229 334.998438) scale(0.1 -0.1)">
       <defs>
        <path id="DejaVuSans-36" d="M 2113 2584 
Q 1688 2584 1439 2293 
Q 1191 2003 1191 1497 
Q 1191 994 1439 701 
Q 1688 409 2113 409 
Q 2538 409 2786 701 
Q 3034 994 3034 1497 
Q 3034 2003 2786 2293 
Q 2538 2584 2113 2584 
z
M 3366 4563 
L 3366 3988 
Q 3128 4100 2886 4159 
Q 2644 4219 2406 4219 
Q 1781 4219 1451 3797 
Q 1122 3375 1075 2522 
Q 1259 2794 1537 2939 
Q 1816 3084 2150 3084 
Q 2853 3084 3261 2657 
Q 3669 2231 3669 1497 
Q 3669 778 3244 343 
Q 2819 -91 2113 -91 
Q 1303 -91 875 529 
Q 447 1150 447 2328 
Q 447 3434 972 4092 
Q 1497 4750 2381 4750 
Q 2619 4750 2861 4703 
Q 3103 4656 3366 4563 
z
" transform="scale(0.015625)"/>
       </defs>
       <use xlink:href="#DejaVuSans-32"/>
       <use xlink:href="#DejaVuSans-30" transform="translate(63.623047 0)"/>
       <use xlink:href="#DejaVuSans-32" transform="translate(127.246094 0)"/>
       <use xlink:href="#DejaVuSans-36" transform="translate(190.869141 0)"/>
       <use xlink:href="#DejaVuSans-2d" transform="translate(254.492188 0)"/>
       <use xlink:href="#DejaVuSans-30" transform="translate(290.576172 0)"/>
       <use xlink:href="#DejaVuSans-31" transform="translate(354.199219 0)"/>
      </g>
     </g>
    </g>
   </g>
   <g id="matplotlib.axis_2">
    <g id="ytick_1">
     <g id="line2d_21">
      <path d="M 108 307.829278 
L 777.6 307.829278 
" clip-path="url(#pdd112792dd)" style="fill: none; stroke-dasharray: 5.12,1.28,0.8,1.28; stroke-dashoffset: 0; stroke: #b0b0b0; stroke-width: 0.8"/>
     </g>
     <g id="line2d_22">
      <defs>
       <path id="m1517f20071" d="M 0 0 
L -3.5 0 
" style="stroke: #a9a9a9; stroke-width: 0.8"/>
      </defs>
      <g>
       <use xlink:href="#m1517f20071" x="108" y="307.829278" style="fill: #a9a9a9; stroke: #a9a9a9; stroke-width: 0.8"/>
      </g>
     </g>
     <g id="text_11">
      <!-- 0 -->
      <g style="fill: #a9a9a9" transform="translate(94.6375 311.628497) scale(0.1 -0.1)">
       <use xlink:href="#DejaVuSans-30"/>
      </g>
     </g>
    </g>
    <g id="ytick_2">
     <g id="line2d_23">
      <path d="M 108 278.550784 
L 777.6 278.550784 
" clip-path="url(#pdd112792dd)" style="fill: none; stroke-dasharray: 5.12,1.28,0.8,1.28; stroke-dashoffset: 0; stroke: #b0b0b0; stroke-width: 0.8"/>
     </g>
     <g id="line2d_24">
      <g>
       <use xlink:href="#m1517f20071" x="108" y="278.550784" style="fill: #a9a9a9; stroke: #a9a9a9; stroke-width: 0.8"/>
      </g>
     </g>
     <g id="text_12">
      <!-- 1000 -->
      <g style="fill: #a9a9a9" transform="translate(75.55 282.350003) scale(0.1 -0.1)">
       <use xlink:href="#DejaVuSans-31"/>
       <use xlink:href="#DejaVuSans-30" transform="translate(63.623047 0)"/>
       <use xlink:href="#DejaVuSans-30" transform="translate(127.246094 0)"/>
       <use xlink:href="#DejaVuSans-30" transform="translate(190.869141 0)"/>
      </g>
     </g>
    </g>
    <g id="ytick_3">
     <g id="line2d_25">
      <path d="M 108 249.27229 
L 777.6 249.27229 
" clip-path="url(#pdd112792dd)" style="fill: none; stroke-dasharray: 5.12,1.28,0.8,1.28; stroke-dashoffset: 0; stroke: #b0b0b0; stroke-width: 0.8"/>
     </g>
     <g id="line2d_26">
      <g>
       <use xlink:href="#m1517f20071" x="108" y="249.27229" style="fill: #a9a9a9; stroke: #a9a9a9; stroke-width: 0.8"/>
      </g>
     </g>
     <g id="text_13">
      <!-- 2000 -->
      <g style="fill: #a9a9a9" transform="translate(75.55 253.071509) scale(0.1 -0.1)">
       <use xlink:href="#DejaVuSans-32"/>
       <use xlink:href="#DejaVuSans-30" transform="translate(63.623047 0)"/>
       <use xlink:href="#DejaVuSans-30" transform="translate(127.246094 0)"/>
       <use xlink:href="#DejaVuSans-30" transform="translate(190.869141 0)"/>
      </g>
     </g>
    </g>
    <g id="ytick_4">
     <g id="line2d_27">
      <path d="M 108 219.993796 
L 777.6 219.993796 
" clip-path="url(#pdd112792dd)" style="fill: none; stroke-dasharray: 5.12,1.28,0.8,1.28; stroke-dashoffset: 0; stroke: #b0b0b0; stroke-width: 0.8"/>
     </g>
     <g id="line2d_28">
      <g>
       <use xlink:href="#m1517f20071" x="108" y="219.993796" style="fill: #a9a9a9; stroke: #a9a9a9; stroke-width: 0.8"/>
      </g>
     </g>
     <g id="text_14">
      <!-- 3000 -->
      <g style="fill: #a9a9a9" transform="translate(75.55 223.793014) scale(0.1 -0.1)">
       <use xlink:href="#DejaVuSans-33"/>
       <use xlink:href="#DejaVuSans-30" transform="translate(63.623047 0)"/>
       <use xlink:href="#DejaVuSans-30" transform="translate(127.246094 0)"/>
       <use xlink:href="#DejaVuSans-30" transform="translate(190.869141 0)"/>
      </g>
     </g>
    </g>
    <g id="ytick_5">
     <g id="line2d_29">
      <path d="M 108 190.715301 
L 777.6 190.715301 
" clip-path="url(#pdd112792dd)" style="fill: none; stroke-dasharray: 5.12,1.28,0.8,1.28; stroke-dashoffset: 0; stroke: #b0b0b0; stroke-width: 0.8"/>
     </g>
     <g id="line2d_30">
      <g>
       <use xlink:href="#m1517f20071" x="108" y="190.715301" style="fill: #a9a9a9; stroke: #a9a9a9; stroke-width: 0.8"/>
      </g>
     </g>
     <g id="text_15">
      <!-- 4000 -->
      <g style="fill: #a9a9a9" transform="translate(75.55 194.51452) scale(0.1 -0.1)">
       <use xlink:href="#DejaVuSans-34"/>
       <use xlink:href="#DejaVuSans-30" transform="translate(63.623047 0)"/>
       <use xlink:href="#DejaVuSans-30" transform="translate(127.246094 0)"/>
       <use xlink:href="#DejaVuSans-30" transform="translate(190.869141 0)"/>
      </g>
     </g>
    </g>
    <g id="ytick_6">
     <g id="line2d_31">
      <path d="M 108 161.436807 
L 777.6 161.436807 
" clip-path="url(#pdd112792dd)" style="fill: none; stroke-dasharray: 5.12,1.28,0.8,1.28; stroke-dashoffset: 0; stroke: #b0b0b0; stroke-width: 0.8"/>
     </g>
     <g id="line2d_32">
      <g>
       <use xlink:href="#m1517f20071" x="108" y="161.436807" style="fill: #a9a9a9; stroke: #a9a9a9; stroke-width: 0.8"/>
      </g>
     </g>
     <g id="text_16">
      <!-- 5000 -->
      <g style="fill: #a9a9a9" transform="translate(75.55 165.236026) scale(0.1 -0.1)">
       <use xlink:href="#DejaVuSans-35"/>
       <use xlink:href="#DejaVuSans-30" transform="translate(63.623047 0)"/>
       <use xlink:href="#DejaVuSans-30" transform="translate(127.246094 0)"/>
       <use xlink:href="#DejaVuSans-30" transform="translate(190.869141 0)"/>
      </g>
     </g>
    </g>
    <g id="ytick_7">
     <g id="line2d_33">
      <path d="M 108 132.158313 
L 777.6 132.158313 
" clip-path="url(#pdd112792dd)" style="fill: none; stroke-dasharray: 5.12,1.28,0.8,1.28; stroke-dashoffset: 0; stroke: #b0b0b0; stroke-width: 0.8"/>
     </g>
     <g id="line2d_34">
      <g>
       <use xlink:href="#m1517f20071" x="108" y="132.158313" style="fill: #a9a9a9; stroke: #a9a9a9; stroke-width: 0.8"/>
      </g>
     </g>
     <g id="text_17">
      <!-- 6000 -->
      <g style="fill: #a9a9a9" transform="translate(75.55 135.957532) scale(0.1 -0.1)">
       <use xlink:href="#DejaVuSans-36"/>
       <use xlink:href="#DejaVuSans-30" transform="translate(63.623047 0)"/>
       <use xlink:href="#DejaVuSans-30" transform="translate(127.246094 0)"/>
       <use xlink:href="#DejaVuSans-30" transform="translate(190.869141 0)"/>
      </g>
     </g>
    </g>
    <g id="ytick_8">
     <g id="line2d_35">
      <path d="M 108 102.879819 
L 777.6 102.879819 
" clip-path="url(#pdd112792dd)" style="fill: none; stroke-dasharray: 5.12,1.28,0.8,1.28; stroke-dashoffset: 0; stroke: #b0b0b0; stroke-width: 0.8"/>
     </g>
     <g id="line2d_36">
      <g>
       <use xlink:href="#m1517f20071" x="108" y="102.879819" style="fill: #a9a9a9; stroke: #a9a9a9; stroke-width: 0.8"/>
      </g>
     </g>
     <g id="text_18">
      <!-- 7000 -->
      <g style="fill: #a9a9a9" transform="translate(75.55 106.679038) scale(0.1 -0.1)">
       <use xlink:href="#DejaVuSans-37"/>
       <use xlink:href="#DejaVuSans-30" transform="translate(63.623047 0)"/>
       <use xlink:href="#DejaVuSans-30" transform="translate(127.246094 0)"/>
       <use xlink:href="#DejaVuSans-30" transform="translate(190.869141 0)"/>
      </g>
     </g>
    </g>
    <g id="ytick_9">
     <g id="line2d_37">
      <path d="M 108 73.601325 
L 777.6 73.601325 
" clip-path="url(#pdd112792dd)" style="fill: none; stroke-dasharray: 5.12,1.28,0.8,1.28; stroke-dashoffset: 0; stroke: #b0b0b0; stroke-width: 0.8"/>
     </g>
     <g id="line2d_38">
      <g>
       <use xlink:href="#m1517f20071" x="108" y="73.601325" style="fill: #a9a9a9; stroke: #a9a9a9; stroke-width: 0.8"/>
      </g>
     </g>
     <g id="text_19">
      <!-- 8000 -->
      <g style="fill: #a9a9a9" transform="translate(75.55 77.400543) scale(0.1 -0.1)">
       <defs>
        <path id="DejaVuSans-38" d="M 2034 2216 
Q 1584 2216 1326 1975 
Q 1069 1734 1069 1313 
Q 1069 891 1326 650 
Q 1584 409 2034 409 
Q 2484 409 2743 651 
Q 3003 894 3003 1313 
Q 3003 1734 2745 1975 
Q 2488 2216 2034 2216 
z
M 1403 2484 
Q 997 2584 770 2862 
Q 544 3141 544 3541 
Q 544 4100 942 4425 
Q 1341 4750 2034 4750 
Q 2731 4750 3128 4425 
Q 3525 4100 3525 3541 
Q 3525 3141 3298 2862 
Q 3072 2584 2669 2484 
Q 3125 2378 3379 2068 
Q 3634 1759 3634 1313 
Q 3634 634 3220 271 
Q 2806 -91 2034 -91 
Q 1263 -91 848 271 
Q 434 634 434 1313 
Q 434 1759 690 2068 
Q 947 2378 1403 2484 
z
M 1172 3481 
Q 1172 3119 1398 2916 
Q 1625 2713 2034 2713 
Q 2441 2713 2670 2916 
Q 2900 3119 2900 3481 
Q 2900 3844 2670 4047 
Q 2441 4250 2034 4250 
Q 1625 4250 1398 4047 
Q 1172 3844 1172 3481 
z
" transform="scale(0.015625)"/>
       </defs>
       <use xlink:href="#DejaVuSans-38"/>
       <use xlink:href="#DejaVuSans-30" transform="translate(63.623047 0)"/>
       <use xlink:href="#DejaVuSans-30" transform="translate(127.246094 0)"/>
       <use xlink:href="#DejaVuSans-30" transform="translate(190.869141 0)"/>
      </g>
     </g>
    </g>
    <g id="ytick_10">
     <g id="line2d_39">
      <path d="M 108 44.32283 
L 777.6 44.32283 
" clip-path="url(#pdd112792dd)" style="fill: none; stroke-dasharray: 5.12,1.28,0.8,1.28; stroke-dashoffset: 0; stroke: #b0b0b0; stroke-width: 0.8"/>
     </g>
     <g id="line2d_40">
      <g>
       <use xlink:href="#m1517f20071" x="108" y="44.32283" style="fill: #a9a9a9; stroke: #a9a9a9; stroke-width: 0.8"/>
      </g>
     </g>
     <g id="text_20">
      <!-- 9000 -->
      <g style="fill: #a9a9a9" transform="translate(75.55 48.122049) scale(0.1 -0.1)">
       <defs>
        <path id="DejaVuSans-39" d="M 703 97 
L 703 672 
Q 941 559 1184 500 
Q 1428 441 1663 441 
Q 2288 441 2617 861 
Q 2947 1281 2994 2138 
Q 2813 1869 2534 1725 
Q 2256 1581 1919 1581 
Q 1219 1581 811 2004 
Q 403 2428 403 3163 
Q 403 3881 828 4315 
Q 1253 4750 1959 4750 
Q 2769 4750 3195 4129 
Q 3622 3509 3622 2328 
Q 3622 1225 3098 567 
Q 2575 -91 1691 -91 
Q 1453 -91 1209 -44 
Q 966 3 703 97 
z
M 1959 2075 
Q 2384 2075 2632 2365 
Q 2881 2656 2881 3163 
Q 2881 3666 2632 3958 
Q 2384 4250 1959 4250 
Q 1534 4250 1286 3958 
Q 1038 3666 1038 3163 
Q 1038 2656 1286 2365 
Q 1534 2075 1959 2075 
z
" transform="scale(0.015625)"/>
       </defs>
       <use xlink:href="#DejaVuSans-39"/>
       <use xlink:href="#DejaVuSans-30" transform="translate(63.623047 0)"/>
       <use xlink:href="#DejaVuSans-30" transform="translate(127.246094 0)"/>
       <use xlink:href="#DejaVuSans-30" transform="translate(190.869141 0)"/>
      </g>
     </g>
    </g>
   </g>
   <g id="line2d_41">
    <path d="M 138.436364 307.741443 
L 140.653949 307.536494 
L 141.023547 307.360823 
L 142.501937 307.155873 
L 143.980328 306.83381 
L 144.719523 306.716696 
L 146.567511 306.541025 
L 147.306706 306.24824 
L 147.676304 305.721227 
L 148.045902 305.45772 
L 148.415499 304.579366 
L 148.785097 304.520809 
L 149.524292 304.052353 
L 150.263487 303.496061 
L 151.741878 302.383479 
L 152.111475 302.237086 
L 152.850671 301.76863 
L 153.959463 301.212339 
L 154.329061 300.568212 
L 155.068256 299.982642 
L 155.807452 299.748414 
L 156.916244 299.572743 
L 159.13383 299.221401 
L 159.503428 299.04573 
L 162.090611 298.811502 
L 163.569001 298.430882 
L 166.525782 297.991704 
L 166.89538 297.786755 
L 167.264978 297.728198 
L 168.004173 297.464692 
L 170.591356 296.996236 
L 171.330551 296.762008 
L 174.65693 296.176438 
L 175.396125 296.000767 
L 176.874516 295.795817 
L 177.613711 295.561589 
L 177.983308 295.005298 
L 179.092101 294.536842 
L 180.200894 294.214779 
L 180.570492 294.009829 
L 181.309687 293.863437 
L 182.788077 293.394981 
L 183.527273 293.336424 
L 184.266468 293.131474 
L 185.744858 292.721575 
L 186.114456 292.692297 
L 186.853651 292.311677 
L 187.223249 292.25312 
L 187.592846 292.04817 
L 191.65842 291.345486 
L 193.136811 290.87703 
L 193.506408 290.613524 
L 195.354396 289.969397 
L 196.093592 289.413106 
L 197.202385 289.178878 
L 202.007154 287.714953 
L 202.376751 287.656396 
L 203.855142 287.041548 
L 204.224739 286.982991 
L 204.963934 286.660927 
L 205.70313 286.631649 
L 206.811923 286.280307 
L 207.18152 286.280307 
L 207.551118 286.104636 
L 208.290313 286.0168 
L 208.659911 285.870408 
L 210.507899 285.782572 
L 210.877496 285.694737 
L 211.616692 285.284838 
L 212.725484 284.874939 
L 213.46468 284.46504 
L 214.573472 283.967306 
L 216.051863 283.206065 
L 216.421461 282.766887 
L 217.160656 281.537191 
L 217.530253 281.420077 
L 217.899851 281.420077 
L 219.378241 280.571 
L 219.747839 280.483165 
L 220.117437 280.102544 
L 220.856632 279.780481 
L 221.595827 279.429139 
L 223.813413 276.764796 
L 224.18301 276.647682 
L 226.030999 275.359428 
L 226.770194 274.832415 
L 227.139791 274.276124 
L 227.509389 273.368491 
L 227.878987 272.782921 
L 231.574963 269.415894 
L 232.314158 268.683932 
L 234.531744 267.220007 
L 235.270939 266.810108 
L 236.749329 265.961032 
L 238.597317 264.145765 
L 239.336513 263.823702 
L 240.075708 263.296689 
L 240.445306 263.062461 
L 240.814903 263.003904 
L 241.923696 262.330498 
L 242.293294 261.891321 
L 244.141282 260.808017 
L 244.510879 260.661624 
L 245.619672 259.841826 
L 251.163636 257.733775 
L 251.902832 257.001812 
L 253.011624 256.416243 
L 253.75082 255.918508 
L 254.490015 255.68428 
L 254.859613 255.420774 
L 255.22921 255.30366 
L 256.338003 254.51314 
L 258.185991 254.073963 
L 259.294784 253.371279 
L 260.403577 253.107773 
L 260.773174 253.019937 
L 261.881967 252.200139 
L 263.360358 251.760962 
L 263.729955 251.468177 
L 265.947541 250.648379 
L 266.686736 250.501987 
L 267.425931 250.179923 
L 270.013115 249.184455 
L 270.75231 249.096619 
L 271.861103 248.68672 
L 273.709091 247.72053 
L 275.187481 246.871453 
L 278.144262 245.553921 
L 278.51386 245.495364 
L 279.253055 245.026908 
L 279.99225 244.821959 
L 281.101043 244.353503 
L 282.579434 244.148554 
L 283.318629 243.738655 
L 283.688227 243.387313 
L 284.057824 242.684629 
L 285.536215 242.245451 
L 287.014605 241.542768 
L 290.340984 239.991007 
L 291.080179 239.815336 
L 292.188972 239.229766 
L 292.558569 239.171209 
L 294.406557 238.205019 
L 295.145753 237.707285 
L 296.254545 237.473057 
L 297.732936 237.033879 
L 298.102534 237.004601 
L 298.472131 236.711816 
L 299.211326 236.44831 
L 301.059314 235.65779 
L 301.428912 235.365005 
L 302.168107 234.955106 
L 302.907303 234.662321 
L 303.2769 234.574486 
L 304.755291 233.783967 
L 305.124888 233.374068 
L 305.494486 233.13984 
L 305.864083 233.052004 
L 306.603279 232.407877 
L 306.972876 232.34932 
L 307.342474 231.705193 
L 307.712072 231.558801 
L 308.081669 231.236738 
L 308.451267 231.178181 
L 309.190462 230.680446 
L 309.929657 230.41694 
L 310.299255 230.124155 
L 311.03845 229.714256 
L 312.147243 229.011572 
L 313.256036 228.426002 
L 313.995231 228.221053 
L 314.734426 227.781875 
L 315.104024 227.10847 
L 315.843219 226.5229 
L 316.212817 226.435064 
L 318.430402 225.322482 
L 319.169598 225.000418 
L 319.908793 224.444127 
L 320.647988 223.653608 
L 322.495976 222.218961 
L 323.235171 221.604113 
L 323.604769 221.428442 
L 324.343964 220.637923 
L 325.452757 220.081631 
L 326.191952 219.642454 
L 326.56155 219.52534 
L 326.931148 219.232555 
L 327.300745 219.173998 
L 330.627124 217.417288 
L 331.366319 217.212339 
L 332.844709 216.685326 
L 333.583905 216.187591 
L 335.062295 215.6313 
L 335.80149 215.133566 
L 336.540686 214.811502 
L 337.279881 214.255211 
L 338.019076 212.703451 
L 338.758271 211.825096 
L 339.867064 211.210247 
L 340.606259 210.888184 
L 340.975857 210.829627 
L 341.715052 210.478285 
L 343.56304 209.80488 
L 344.302235 209.307145 
L 345.041431 209.072917 
L 347.259016 207.66755 
L 347.628614 207.228372 
L 348.737407 206.554967 
L 349.107004 206.408574 
L 349.8462 205.940119 
L 351.32459 205.091042 
L 351.694188 205.003207 
L 352.063785 204.681143 
L 354.650969 203.802788 
L 355.020566 203.539282 
L 355.759762 203.305054 
L 358.716542 201.841129 
L 359.455738 201.43123 
L 359.825335 201.255559 
L 360.564531 200.640711 
L 361.303726 200.435762 
L 361.673323 200.08442 
L 362.042921 200.025863 
L 362.782116 199.440293 
L 364.630104 198.298432 
L 365.3693 198.064204 
L 365.738897 197.829976 
L 366.108495 197.771419 
L 368.32608 196.805228 
L 369.065276 196.658836 
L 370.174069 196.336772 
L 370.913264 195.98543 
L 371.282861 195.956152 
L 373.130849 195.107076 
L 373.870045 194.580063 
L 374.60924 194.170164 
L 376.08763 193.438201 
L 377.196423 192.676961 
L 377.935618 192.50129 
L 379.044411 191.798606 
L 380.153204 191.388707 
L 380.892399 191.1252 
L 382.37079 190.598188 
L 383.109985 190.334681 
L 384.588376 190.012618 
L 385.327571 189.77839 
L 387.175559 189.134263 
L 388.284352 188.782921 
L 389.023547 188.60725 
L 391.241133 188.197351 
L 391.980328 188.050959 
L 393.089121 187.787452 
L 393.458718 187.611781 
L 394.197914 187.465389 
L 394.937109 187.260439 
L 395.676304 186.909097 
L 396.045902 186.762705 
L 396.415499 186.762705 
L 400.481073 185.445173 
L 400.850671 185.240223 
L 401.220268 185.240223 
L 401.959463 184.947438 
L 402.329061 184.537539 
L 404.546647 183.571349 
L 406.025037 183.044336 
L 406.394635 182.810108 
L 407.503428 182.458766 
L 408.242623 182.253817 
L 408.612221 181.99031 
L 408.981818 181.902475 
L 409.351416 181.580411 
L 410.460209 181.346183 
L 411.199404 180.994841 
L 411.569001 180.526386 
L 415.634575 179.589474 
L 416.004173 179.589474 
L 416.743368 179.355246 
L 420.069747 178.506169 
L 420.808942 178.330498 
L 424.504918 177.247194 
L 424.874516 177.159359 
L 425.244113 176.954409 
L 425.983308 176.74946 
L 426.722504 176.427396 
L 427.461699 176.134611 
L 427.831297 175.871105 
L 428.570492 175.636877 
L 431.527273 174.582851 
L 432.266468 174.524294 
L 433.744858 174.085117 
L 434.114456 173.850889 
L 434.853651 173.616661 
L 437.071237 172.679749 
L 441.506408 171.040153 
L 443.354396 170.396026 
L 444.093592 170.161799 
L 444.832787 169.956849 
L 446.311177 168.697874 
L 448.898361 167.556013 
L 451.485544 166.414151 
L 452.224739 166.209202 
L 455.551118 164.540328 
L 456.290313 164.10115 
L 459.616692 162.461555 
L 459.986289 162.16877 
L 464.421461 160.470617 
L 465.160656 160.353503 
L 465.530253 160.089997 
L 467.008644 159.797212 
L 467.747839 159.475148 
L 469.595827 158.567515 
L 474.400596 156.371628 
L 475.509389 155.991007 
L 475.878987 155.727501 
L 476.618182 155.639665 
L 476.987779 155.376159 
L 477.726975 155.259045 
L 482.531744 153.473057 
L 483.640537 153.20955 
L 485.118927 152.565423 
L 485.858122 152.155525 
L 487.336513 151.365005 
L 488.075708 151.189334 
L 488.445306 150.955106 
L 488.814903 150.867271 
L 490.662891 149.930359 
L 495.46766 148.085814 
L 495.837258 148.027257 
L 497.315648 147.295295 
L 498.054844 147.148902 
L 498.794039 146.709725 
L 500.272429 145.977762 
L 506.925186 143.371976 
L 508.403577 142.083723 
L 508.773174 141.966609 
L 509.142772 141.732381 
L 510.251565 141.410317 
L 510.621162 141.117532 
L 511.360358 140.854026 
L 512.469151 140.092785 
L 513.208346 139.887835 
L 513.947541 139.477937 
L 515.056334 139.21443 
L 520.969896 136.755037 
L 522.817884 135.993796 
L 524.665872 135.408226 
L 525.774665 134.676264 
L 526.144262 134.588428 
L 526.883458 134.207808 
L 527.622653 133.97358 
L 527.99225 133.622238 
L 529.101043 133.18306 
L 529.470641 133.124503 
L 530.949031 132.421819 
L 532.057824 132.070478 
L 533.166617 131.660579 
L 534.27541 131.338515 
L 534.645007 131.279958 
L 535.384203 130.870059 
L 535.7538 130.723667 
L 536.123398 130.430882 
L 537.232191 130.138097 
L 537.971386 129.845312 
L 538.710581 129.523249 
L 540.188972 128.9084 
L 542.776155 128.264273 
L 543.51535 127.971488 
L 544.993741 127.678703 
L 545.732936 127.532311 
L 546.841729 127.093133 
L 547.950522 126.858906 
L 550.168107 125.512095 
L 551.2769 124.838689 
L 553.494486 124.136006 
L 553.864083 123.843221 
L 556.820864 122.759916 
L 557.929657 122.408574 
L 558.668852 121.998675 
L 559.408048 121.793726 
L 559.777645 121.588777 
L 560.516841 121.442384 
L 561.995231 120.856814 
L 562.734426 120.35908 
L 563.843219 120.066295 
L 564.952012 119.334333 
L 565.32161 119.275776 
L 566.8 118.660927 
L 568.27839 118.280307 
L 568.647988 118.22175 
L 569.017586 118.046079 
L 569.756781 117.899686 
L 573.083159 116.874939 
L 573.822355 116.289369 
L 575.300745 115.440293 
L 575.670343 115.352457 
L 576.03994 115.147508 
L 576.409538 115.088951 
L 579.735917 113.449355 
L 580.105514 113.127292 
L 581.953502 112.658836 
L 583.062295 112.161101 
L 583.80149 111.956152 
L 584.171088 111.780481 
L 584.540686 111.458418 
L 586.388674 110.785012 
L 591.193443 108.969746 
L 591.932638 108.823353 
L 593.780626 108.208505 
L 594.889419 107.71077 
L 597.476602 106.920251 
L 598.215797 106.510352 
L 607.455738 103.611781 
L 607.825335 103.582503 
L 608.564531 103.231161 
L 611.521311 102.440641 
L 612.630104 102.030742 
L 612.999702 102.030742 
L 614.108495 101.767236 
L 614.84769 101.620843 
L 615.586885 101.415894 
L 616.695678 100.801046 
L 617.804471 100.449704 
L 620.391654 99.571349 
L 621.870045 98.810108 
L 622.978838 98.546602 
L 623.718033 98.312374 
L 624.457228 97.931753 
L 624.826826 97.60969 
L 625.566021 97.375462 
L 625.935618 97.141234 
L 626.674814 97.053398 
L 629.261997 96.292158 
L 630.37079 96.05793 
L 631.479583 95.765145 
L 632.218778 95.589474 
L 633.327571 95.003904 
L 638.13234 93.159359 
L 638.871535 93.042245 
L 639.61073 92.895852 
L 639.980328 92.895852 
L 641.089121 92.54451 
L 642.197914 92.193168 
L 645.154694 91.314814 
L 646.633085 90.99275 
L 647.002683 90.758522 
L 647.741878 90.61213 
L 649.220268 90.319345 
L 650.329061 89.792332 
L 651.437854 89.528825 
L 652.177049 89.206762 
L 654.394635 88.416243 
L 654.764232 88.357686 
L 655.503428 88.094179 
L 659.938599 86.952318 
L 662.156185 86.191077 
L 662.89538 86.13252 
L 665.112966 85.576229 
L 665.852161 85.254165 
L 666.221759 85.195608 
L 666.591356 85.019937 
L 667.330551 84.37581 
L 671.026528 82.999721 
L 673.244113 82.414151 
L 673.983308 82.004252 
L 674.352906 81.916417 
L 675.461699 81.301568 
L 675.831297 81.213733 
L 676.200894 80.920948 
L 677.309687 80.598885 
L 682.853651 78.051656 
L 684.701639 77.407529 
L 685.071237 77.085465 
L 685.440835 76.99763 
L 686.18003 76.529174 
L 687.288823 76.20711 
L 688.767213 75.592262 
L 689.136811 75.562984 
L 690.984799 74.8603 
L 691.723994 74.713907 
L 692.463189 74.157616 
L 692.832787 74.157616 
L 694.311177 73.630603 
L 695.789568 73.337818 
L 697.267958 72.693691 
L 697.637556 72.693691 
L 698.746349 72.313071 
L 699.485544 72.195957 
L 700.594337 71.55183 
L 701.333532 71.171209 
L 703.18152 70.556361 
L 703.920715 70.234298 
L 705.768703 69.736563 
L 708.355887 69.033879 
L 710.573472 68.272639 
L 712.051863 67.950575 
L 714.639046 67.218613 
L 715.378241 67.07222 
L 717.22623 66.252422 
L 720.552608 65.52046 
L 721.291803 65.403346 
L 722.400596 64.964169 
L 723.139791 64.642105 
L 724.618182 64.320042 
L 725.357377 64.027257 
L 726.096572 63.997978 
L 726.46617 63.705193 
L 727.205365 63.470965 
L 727.574963 63.470965 
L 730.901341 62.358383 
L 732.379732 61.714256 
L 732.749329 61.655699 
L 733.488525 61.304357 
L 734.22772 60.982293 
L 734.966915 60.66023 
L 735.70611 60.367445 
L 736.075708 60.162496 
L 736.445306 60.103939 
L 737.184501 59.752597 
L 737.923696 59.518369 
L 738.662891 59.137748 
L 742.728465 57.263925 
L 743.46766 57.117532 
L 744.576453 56.795469 
L 745.315648 56.38557 
L 745.685246 56.327013 
L 746.794039 55.917114 
L 747.163636 55.8 
L 747.163636 55.8 
" clip-path="url(#pdd112792dd)" style="fill: none; stroke: #1f77b4; stroke-width: 1.5; stroke-linecap: square"/>
   </g>
   <g id="line2d_42">
    <path d="M 138.805961 307.8 
L 142.13234 307.712165 
L 145.089121 307.565772 
L 146.567511 307.565772 
L 146.937109 307.448658 
L 148.785097 307.360823 
L 151.002683 307.097316 
L 153.220268 307.009481 
L 153.959463 306.921645 
L 156.546647 306.804531 
L 159.13383 306.716696 
L 160.981818 306.658139 
L 165.786587 306.570303 
L 167.634575 306.511746 
L 170.960954 306.423911 
L 172.439344 306.394632 
L 176.13532 306.306797 
L 177.613711 306.160404 
L 179.092101 306.131126 
L 181.309687 306.04329 
L 182.788077 306.014012 
L 184.636066 305.955455 
L 186.114456 305.809062 
L 189.440835 305.721227 
L 190.18003 305.66267 
L 191.65842 305.574834 
L 193.876006 305.486999 
L 195.354396 305.399163 
L 202.007154 304.959986 
L 204.594337 304.872151 
L 205.70313 304.755037 
L 207.551118 304.667201 
L 211.247094 304.462252 
L 214.94307 304.403695 
L 216.421461 304.228024 
L 218.269449 304.140188 
L 221.965425 303.759568 
L 224.18301 303.466783 
L 225.661401 303.408226 
L 228.618182 302.998327 
L 230.835768 302.93977 
L 231.94456 302.822656 
L 233.053353 302.73482 
L 252.272429 301.300174 
L 254.859613 301.212339 
L 256.338003 301.036668 
L 258.185991 300.948832 
L 260.403577 300.860997 
L 262.251565 300.773161 
L 263.729955 300.743883 
L 265.577943 300.685326 
L 266.317139 300.59749 
L 271.491505 300.509655 
L 272.2307 300.421819 
L 276.665872 300.333984 
L 279.99225 300.158313 
L 282.579434 300.070478 
L 284.057824 299.894807 
L 286.645007 299.806971 
L 287.384203 299.689857 
L 289.232191 299.6313 
L 292.928167 299.572743 
L 294.406557 299.426351 
L 295.884948 299.397072 
L 296.993741 299.309237 
L 298.472131 299.162844 
L 302.168107 298.957895 
L 305.864083 298.870059 
L 309.190462 298.694388 
L 310.299255 298.66511 
L 311.03845 298.547996 
L 312.886438 298.46016 
L 313.625633 298.401603 
L 315.473621 298.313768 
L 316.952012 298.284489 
L 319.539195 298.196654 
L 329.148733 297.523249 
L 331.366319 297.435413 
L 333.214307 297.376856 
L 338.388674 297.289021 
L 339.127869 297.201185 
L 344.302235 297.11335 
L 347.998212 296.9084 
L 348.737407 296.879122 
L 349.476602 296.791286 
L 351.32459 296.703451 
L 353.172578 296.644894 
L 355.020566 296.557058 
L 356.868554 296.498501 
L 360.194933 296.410666 
L 362.412519 296.32283 
L 367.586885 296.234995 
L 371.652459 296.000767 
L 373.130849 295.94221 
L 374.239642 295.854374 
L 379.414009 295.766539 
L 381.631595 295.678703 
L 388.284352 295.590868 
L 389.762742 295.561589 
L 394.197914 295.503032 
L 394.937109 295.444475 
L 400.111475 295.35664 
L 401.589866 295.327361 
L 411.199404 295.239526 
L 413.41699 295.15169 
L 428.940089 295.063855 
L 430.788077 295.005298 
L 441.506408 294.917463 
L 445.571982 294.683235 
L 447.789568 294.595399 
L 450.007154 294.507564 
L 453.70313 294.419728 
L 456.290313 294.302614 
L 459.247094 294.214779 
L 462.203875 294.068386 
L 469.22623 293.980551 
L 471.443815 293.892715 
L 475.509389 293.80488 
L 478.096572 293.687766 
L 480.683756 293.629209 
L 481.422951 293.570652 
L 490.293294 293.482816 
L 493.98927 293.277867 
L 496.576453 293.190031 
L 500.642027 292.955803 
L 503.22921 292.867968 
L 504.707601 292.838689 
L 507.294784 292.750854 
L 509.142772 292.545904 
L 512.838748 292.458069 
L 513.577943 292.370234 
L 517.27392 292.282398 
L 519.121908 292.223841 
L 523.187481 292.194563 
L 523.926677 292.106727 
L 527.99225 292.018892 
L 528.731446 291.960335 
L 536.862593 291.872499 
L 539.080179 291.784664 
L 544.624143 291.696828 
L 546.102534 291.66755 
L 549.428912 291.608993 
L 550.168107 291.521157 
L 554.972876 291.433322 
L 556.820864 291.374765 
L 563.473621 291.286929 
L 564.582414 291.199094 
L 565.691207 291.111258 
L 566.8 291.023423 
L 572.343964 290.935587 
L 574.56155 290.847752 
L 585.279881 290.759916 
L 588.606259 290.584245 
L 593.780626 290.49641 
L 595.259016 290.467131 
L 599.694188 290.379296 
L 601.542176 290.320739 
L 609.303726 290.232903 
L 611.890909 290.115789 
L 618.543666 290.027954 
L 620.022057 289.998675 
L 623.718033 289.91084 
L 626.305216 289.793726 
L 630.37079 289.705891 
L 632.957973 289.588777 
L 636.284352 289.53022 
L 637.023547 289.471663 
L 645.154694 289.383827 
L 647.37228 289.295992 
L 649.959463 289.208156 
L 651.807452 289.149599 
L 662.525782 289.061764 
L 664.743368 288.973928 
L 670.65693 288.886093 
L 672.874516 288.798257 
L 677.679285 288.710422 
L 679.89687 288.622586 
L 682.853651 288.534751 
L 685.071237 288.446915 
L 699.855142 288.35908 
L 702.811923 288.212687 
L 711.312668 288.124852 
L 712.791058 288.095573 
L 721.661401 288.007738 
L 723.509389 287.949181 
L 735.336513 287.861345 
L 736.814903 287.832067 
L 747.163636 287.744231 
L 747.163636 287.744231 
" clip-path="url(#pdd112792dd)" style="fill: none; stroke: #ff7f0e; stroke-width: 1.5; stroke-linecap: square"/>
   </g>
   <g id="patch_3">
    <path d="M 108 320.4 
L 108 43.2 
" style="fill: none; stroke: #a9a9a9; stroke-width: 0.8; stroke-linejoin: miter; stroke-linecap: square"/>
   </g>
   <g id="patch_4">
    <path d="M 777.6 320.4 
L 777.6 43.2 
" style="fill: none"/>
   </g>
   <g id="patch_5">
    <path d="M 108 320.4 
L 777.6 320.4 
" style="fill: none; stroke: #a9a9a9; stroke-width: 0.8; stroke-linejoin: miter; stroke-linecap: square"/>
   </g>
   <g id="patch_6">
    <path d="M 108 43.2 
L 777.6 43.2 
" style="fill: none"/>
   </g>
   <g id="text_21">
    <!-- get_subscribe history -->
    <g style="fill: #a9a9a9" transform="translate(378.6075 37.2) scale(0.12 -0.12)">
     <defs>
      <path id="DejaVuSans-67" d="M 2906 1791 
Q 2906 2416 2648 2759 
Q 2391 3103 1925 3103 
Q 1463 3103 1205 2759 
Q 947 2416 947 1791 
Q 947 1169 1205 825 
Q 1463 481 1925 481 
Q 2391 481 2648 825 
Q 2906 1169 2906 1791 
z
M 3481 434 
Q 3481 -459 3084 -895 
Q 2688 -1331 1869 -1331 
Q 1566 -1331 1297 -1286 
Q 1028 -1241 775 -1147 
L 775 -588 
Q 1028 -725 1275 -790 
Q 1522 -856 1778 -856 
Q 2344 -856 2625 -561 
Q 2906 -266 2906 331 
L 2906 616 
Q 2728 306 2450 153 
Q 2172 0 1784 0 
Q 1141 0 747 490 
Q 353 981 353 1791 
Q 353 2603 747 3093 
Q 1141 3584 1784 3584 
Q 2172 3584 2450 3431 
Q 2728 3278 2906 2969 
L 2906 3500 
L 3481 3500 
L 3481 434 
z
" transform="scale(0.015625)"/>
      <path id="DejaVuSans-65" d="M 3597 1894 
L 3597 1613 
L 953 1613 
Q 991 1019 1311 708 
Q 1631 397 2203 397 
Q 2534 397 2845 478 
Q 3156 559 3463 722 
L 3463 178 
Q 3153 47 2828 -22 
Q 2503 -91 2169 -91 
Q 1331 -91 842 396 
Q 353 884 353 1716 
Q 353 2575 817 3079 
Q 1281 3584 2069 3584 
Q 2775 3584 3186 3129 
Q 3597 2675 3597 1894 
z
M 3022 2063 
Q 3016 2534 2758 2815 
Q 2500 3097 2075 3097 
Q 1594 3097 1305 2825 
Q 1016 2553 972 2059 
L 3022 2063 
z
" transform="scale(0.015625)"/>
      <path id="DejaVuSans-74" d="M 1172 4494 
L 1172 3500 
L 2356 3500 
L 2356 3053 
L 1172 3053 
L 1172 1153 
Q 1172 725 1289 603 
Q 1406 481 1766 481 
L 2356 481 
L 2356 0 
L 1766 0 
Q 1100 0 847 248 
Q 594 497 594 1153 
L 594 3053 
L 172 3053 
L 172 3500 
L 594 3500 
L 594 4494 
L 1172 4494 
z
" transform="scale(0.015625)"/>
      <path id="DejaVuSans-5f" d="M 3263 -1063 
L 3263 -1509 
L -63 -1509 
L -63 -1063 
L 3263 -1063 
z
" transform="scale(0.015625)"/>
      <path id="DejaVuSans-73" d="M 2834 3397 
L 2834 2853 
Q 2591 2978 2328 3040 
Q 2066 3103 1784 3103 
Q 1356 3103 1142 2972 
Q 928 2841 928 2578 
Q 928 2378 1081 2264 
Q 1234 2150 1697 2047 
L 1894 2003 
Q 2506 1872 2764 1633 
Q 3022 1394 3022 966 
Q 3022 478 2636 193 
Q 2250 -91 1575 -91 
Q 1294 -91 989 -36 
Q 684 19 347 128 
L 347 722 
Q 666 556 975 473 
Q 1284 391 1588 391 
Q 1994 391 2212 530 
Q 2431 669 2431 922 
Q 2431 1156 2273 1281 
Q 2116 1406 1581 1522 
L 1381 1569 
Q 847 1681 609 1914 
Q 372 2147 372 2553 
Q 372 3047 722 3315 
Q 1072 3584 1716 3584 
Q 2034 3584 2315 3537 
Q 2597 3491 2834 3397 
z
" transform="scale(0.015625)"/>
      <path id="DejaVuSans-75" d="M 544 1381 
L 544 3500 
L 1119 3500 
L 1119 1403 
Q 1119 906 1312 657 
Q 1506 409 1894 409 
Q 2359 409 2629 706 
Q 2900 1003 2900 1516 
L 2900 3500 
L 3475 3500 
L 3475 0 
L 2900 0 
L 2900 538 
Q 2691 219 2414 64 
Q 2138 -91 1772 -91 
Q 1169 -91 856 284 
Q 544 659 544 1381 
z
M 1991 3584 
L 1991 3584 
z
" transform="scale(0.015625)"/>
      <path id="DejaVuSans-62" d="M 3116 1747 
Q 3116 2381 2855 2742 
Q 2594 3103 2138 3103 
Q 1681 3103 1420 2742 
Q 1159 2381 1159 1747 
Q 1159 1113 1420 752 
Q 1681 391 2138 391 
Q 2594 391 2855 752 
Q 3116 1113 3116 1747 
z
M 1159 2969 
Q 1341 3281 1617 3432 
Q 1894 3584 2278 3584 
Q 2916 3584 3314 3078 
Q 3713 2572 3713 1747 
Q 3713 922 3314 415 
Q 2916 -91 2278 -91 
Q 1894 -91 1617 61 
Q 1341 213 1159 525 
L 1159 0 
L 581 0 
L 581 4863 
L 1159 4863 
L 1159 2969 
z
" transform="scale(0.015625)"/>
      <path id="DejaVuSans-63" d="M 3122 3366 
L 3122 2828 
Q 2878 2963 2633 3030 
Q 2388 3097 2138 3097 
Q 1578 3097 1268 2742 
Q 959 2388 959 1747 
Q 959 1106 1268 751 
Q 1578 397 2138 397 
Q 2388 397 2633 464 
Q 2878 531 3122 666 
L 3122 134 
Q 2881 22 2623 -34 
Q 2366 -91 2075 -91 
Q 1284 -91 818 406 
Q 353 903 353 1747 
Q 353 2603 823 3093 
Q 1294 3584 2113 3584 
Q 2378 3584 2631 3529 
Q 2884 3475 3122 3366 
z
" transform="scale(0.015625)"/>
      <path id="DejaVuSans-72" d="M 2631 2963 
Q 2534 3019 2420 3045 
Q 2306 3072 2169 3072 
Q 1681 3072 1420 2755 
Q 1159 2438 1159 1844 
L 1159 0 
L 581 0 
L 581 3500 
L 1159 3500 
L 1159 2956 
Q 1341 3275 1631 3429 
Q 1922 3584 2338 3584 
Q 2397 3584 2469 3576 
Q 2541 3569 2628 3553 
L 2631 2963 
z
" transform="scale(0.015625)"/>
      <path id="DejaVuSans-69" d="M 603 3500 
L 1178 3500 
L 1178 0 
L 603 0 
L 603 3500 
z
M 603 4863 
L 1178 4863 
L 1178 4134 
L 603 4134 
L 603 4863 
z
" transform="scale(0.015625)"/>
      <path id="DejaVuSans-20" transform="scale(0.015625)"/>
      <path id="DejaVuSans-68" d="M 3513 2113 
L 3513 0 
L 2938 0 
L 2938 2094 
Q 2938 2591 2744 2837 
Q 2550 3084 2163 3084 
Q 1697 3084 1428 2787 
Q 1159 2491 1159 1978 
L 1159 0 
L 581 0 
L 581 4863 
L 1159 4863 
L 1159 2956 
Q 1366 3272 1645 3428 
Q 1925 3584 2291 3584 
Q 2894 3584 3203 3211 
Q 3513 2838 3513 2113 
z
" transform="scale(0.015625)"/>
      <path id="DejaVuSans-6f" d="M 1959 3097 
Q 1497 3097 1228 2736 
Q 959 2375 959 1747 
Q 959 1119 1226 758 
Q 1494 397 1959 397 
Q 2419 397 2687 759 
Q 2956 1122 2956 1747 
Q 2956 2369 2687 2733 
Q 2419 3097 1959 3097 
z
M 1959 3584 
Q 2709 3584 3137 3096 
Q 3566 2609 3566 1747 
Q 3566 888 3137 398 
Q 2709 -91 1959 -91 
Q 1206 -91 779 398 
Q 353 888 353 1747 
Q 353 2609 779 3096 
Q 1206 3584 1959 3584 
z
" transform="scale(0.015625)"/>
      <path id="DejaVuSans-79" d="M 2059 -325 
Q 1816 -950 1584 -1140 
Q 1353 -1331 966 -1331 
L 506 -1331 
L 506 -850 
L 844 -850 
Q 1081 -850 1212 -737 
Q 1344 -625 1503 -206 
L 1606 56 
L 191 3500 
L 800 3500 
L 1894 763 
L 2988 3500 
L 3597 3500 
L 2059 -325 
z
" transform="scale(0.015625)"/>
     </defs>
     <use xlink:href="#DejaVuSans-67"/>
     <use xlink:href="#DejaVuSans-65" transform="translate(63.476562 0)"/>
     <use xlink:href="#DejaVuSans-74" transform="translate(125 0)"/>
     <use xlink:href="#DejaVuSans-5f" transform="translate(164.208984 0)"/>
     <use xlink:href="#DejaVuSans-73" transform="translate(214.208984 0)"/>
     <use xlink:href="#DejaVuSans-75" transform="translate(266.308594 0)"/>
     <use xlink:href="#DejaVuSans-62" transform="translate(329.6875 0)"/>
     <use xlink:href="#DejaVuSans-73" transform="translate(393.164062 0)"/>
     <use xlink:href="#DejaVuSans-63" transform="translate(445.263672 0)"/>
     <use xlink:href="#DejaVuSans-72" transform="translate(500.244141 0)"/>
     <use xlink:href="#DejaVuSans-69" transform="translate(541.357422 0)"/>
     <use xlink:href="#DejaVuSans-62" transform="translate(569.140625 0)"/>
     <use xlink:href="#DejaVuSans-65" transform="translate(632.617188 0)"/>
     <use xlink:href="#DejaVuSans-20" transform="translate(694.140625 0)"/>
     <use xlink:href="#DejaVuSans-68" transform="translate(725.927734 0)"/>
     <use xlink:href="#DejaVuSans-69" transform="translate(789.306641 0)"/>
     <use xlink:href="#DejaVuSans-73" transform="translate(817.089844 0)"/>
     <use xlink:href="#DejaVuSans-74" transform="translate(869.189453 0)"/>
     <use xlink:href="#DejaVuSans-6f" transform="translate(908.398438 0)"/>
     <use xlink:href="#DejaVuSans-72" transform="translate(969.580078 0)"/>
     <use xlink:href="#DejaVuSans-79" transform="translate(1010.693359 0)"/>
    </g>
   </g>
   <g id="legend_1">
    <g id="line2d_43">
     <path d="M 815.08 328.498438 
L 825.08 328.498438 
L 835.08 328.498438 
" style="fill: none; stroke: #1f77b4; stroke-width: 1.5; stroke-linecap: square"/>
    </g>
    <g id="text_22">
     <!-- star -->
     <g style="fill: #a9a9a9" transform="translate(843.08 331.998438) scale(0.1 -0.1)">
      <defs>
       <path id="DejaVuSans-61" d="M 2194 1759 
Q 1497 1759 1228 1600 
Q 959 1441 959 1056 
Q 959 750 1161 570 
Q 1363 391 1709 391 
Q 2188 391 2477 730 
Q 2766 1069 2766 1631 
L 2766 1759 
L 2194 1759 
z
M 3341 1997 
L 3341 0 
L 2766 0 
L 2766 531 
Q 2569 213 2275 61 
Q 1981 -91 1556 -91 
Q 1019 -91 701 211 
Q 384 513 384 1019 
Q 384 1609 779 1909 
Q 1175 2209 1959 2209 
L 2766 2209 
L 2766 2266 
Q 2766 2663 2505 2880 
Q 2244 3097 1772 3097 
Q 1472 3097 1187 3025 
Q 903 2953 641 2809 
L 641 3341 
Q 956 3463 1253 3523 
Q 1550 3584 1831 3584 
Q 2591 3584 2966 3190 
Q 3341 2797 3341 1997 
z
" transform="scale(0.015625)"/>
      </defs>
      <use xlink:href="#DejaVuSans-73"/>
      <use xlink:href="#DejaVuSans-74" transform="translate(52.099609 0)"/>
      <use xlink:href="#DejaVuSans-61" transform="translate(91.308594 0)"/>
      <use xlink:href="#DejaVuSans-72" transform="translate(152.587891 0)"/>
     </g>
    </g>
    <g id="line2d_44">
     <path d="M 815.08 343.176562 
L 825.08 343.176562 
L 835.08 343.176562 
" style="fill: none; stroke: #ff7f0e; stroke-width: 1.5; stroke-linecap: square"/>
    </g>
    <g id="text_23">
     <!-- fork -->
     <g style="fill: #a9a9a9" transform="translate(843.08 346.676562) scale(0.1 -0.1)">
      <defs>
       <path id="DejaVuSans-66" d="M 2375 4863 
L 2375 4384 
L 1825 4384 
Q 1516 4384 1395 4259 
Q 1275 4134 1275 3809 
L 1275 3500 
L 2222 3500 
L 2222 3053 
L 1275 3053 
L 1275 0 
L 697 0 
L 697 3053 
L 147 3053 
L 147 3500 
L 697 3500 
L 697 3744 
Q 697 4328 969 4595 
Q 1241 4863 1831 4863 
L 2375 4863 
z
" transform="scale(0.015625)"/>
       <path id="DejaVuSans-6b" d="M 581 4863 
L 1159 4863 
L 1159 1991 
L 2875 3500 
L 3609 3500 
L 1753 1863 
L 3688 0 
L 2938 0 
L 1159 1709 
L 1159 0 
L 581 0 
L 581 4863 
z
" transform="scale(0.015625)"/>
      </defs>
      <use xlink:href="#DejaVuSans-66"/>
      <use xlink:href="#DejaVuSans-6f" transform="translate(35.205078 0)"/>
      <use xlink:href="#DejaVuSans-72" transform="translate(96.386719 0)"/>
      <use xlink:href="#DejaVuSans-6b" transform="translate(137.5 0)"/>
     </g>
    </g>
   </g>
  </g>
 </g>
 <defs>
  <clipPath id="pdd112792dd">
   <rect x="108" y="43.2" width="669.6" height="277.2"/>
  </clipPath>
 </defs>
</svg>
