<?xml version="1.0" encoding="utf-8" standalone="no"?>
<!DOCTYPE svg PUBLIC "-//W3C//DTD SVG 1.1//EN"
  "http://www.w3.org/Graphics/SVG/1.1/DTD/svg11.dtd">
<svg xmlns:xlink="http://www.w3.org/1999/xlink" width="864pt" height="360pt" viewBox="0 0 864 360" xmlns="http://www.w3.org/2000/svg" version="1.1">
 <metadata>
  <rdf:RDF xmlns:dc="http://purl.org/dc/elements/1.1/" xmlns:cc="http://creativecommons.org/ns#" xmlns:rdf="http://www.w3.org/1999/02/22-rdf-syntax-ns#">
   <cc:Work>
    <dc:type rdf:resource="http://purl.org/dc/dcmitype/StillImage"/>
    <dc:date>2025-07-12T08:16:30.930441</dc:date>
    <dc:format>image/svg+xml</dc:format>
    <dc:creator>
     <cc:Agent>
      <dc:title>Matplotlib v3.10.3, https://matplotlib.org/</dc:title>
     </cc:Agent>
    </dc:creator>
   </cc:Work>
  </rdf:RDF>
 </metadata>
 <defs>
  <style type="text/css">*{stroke-linejoin: round; stroke-linecap: butt}</style>
 </defs>
 <g id="figure_1">
  <g id="patch_1">
   <path d="M 0 360 
L 864 360 
L 864 0 
L 0 0 
L 0 360 
z
" style="fill: none; opacity: 0"/>
  </g>
  <g id="axes_1">
   <g id="patch_2">
    <path d="M 108 320.4 
L 777.6 320.4 
L 777.6 43.2 
L 108 43.2 
L 108 320.4 
z
" style="fill: none; opacity: 0"/>
   </g>
   <g id="matplotlib.axis_1">
    <g id="xtick_1">
     <g id="line2d_1">
      <path d="M 128.774026 320.4 
L 128.774026 43.2 
" clip-path="url(#p53e009e76a)" style="fill: none; stroke-dasharray: 5.12,1.28,0.8,1.28; stroke-dashoffset: 0; stroke: #b0b0b0; stroke-width: 0.8"/>
     </g>
     <g id="line2d_2">
      <defs>
       <path id="mc7089d6b4b" d="M 0 0 
L 0 3.5 
" style="stroke: #a9a9a9; stroke-width: 0.8"/>
      </defs>
      <g>
       <use xlink:href="#mc7089d6b4b" x="128.774026" y="320.4" style="fill: #a9a9a9; stroke: #a9a9a9; stroke-width: 0.8"/>
      </g>
     </g>
     <g id="text_1">
      <!-- 2021-07 -->
      <g style="fill: #a9a9a9" transform="translate(107.88262 334.998438) scale(0.1 -0.1)">
       <defs>
        <path id="DejaVuSans-32" d="M 1228 531 
L 3431 531 
L 3431 0 
L 469 0 
L 469 531 
Q 828 903 1448 1529 
Q 2069 2156 2228 2338 
Q 2531 2678 2651 2914 
Q 2772 3150 2772 3378 
Q 2772 3750 2511 3984 
Q 2250 4219 1831 4219 
Q 1534 4219 1204 4116 
Q 875 4013 500 3803 
L 500 4441 
Q 881 4594 1212 4672 
Q 1544 4750 1819 4750 
Q 2544 4750 2975 4387 
Q 3406 4025 3406 3419 
Q 3406 3131 3298 2873 
Q 3191 2616 2906 2266 
Q 2828 2175 2409 1742 
Q 1991 1309 1228 531 
z
" transform="scale(0.015625)"/>
        <path id="DejaVuSans-30" d="M 2034 4250 
Q 1547 4250 1301 3770 
Q 1056 3291 1056 2328 
Q 1056 1369 1301 889 
Q 1547 409 2034 409 
Q 2525 409 2770 889 
Q 3016 1369 3016 2328 
Q 3016 3291 2770 3770 
Q 2525 4250 2034 4250 
z
M 2034 4750 
Q 2819 4750 3233 4129 
Q 3647 3509 3647 2328 
Q 3647 1150 3233 529 
Q 2819 -91 2034 -91 
Q 1250 -91 836 529 
Q 422 1150 422 2328 
Q 422 3509 836 4129 
Q 1250 4750 2034 4750 
z
" transform="scale(0.015625)"/>
        <path id="DejaVuSans-31" d="M 794 531 
L 1825 531 
L 1825 4091 
L 703 3866 
L 703 4441 
L 1819 4666 
L 2450 4666 
L 2450 531 
L 3481 531 
L 3481 0 
L 794 0 
L 794 531 
z
" transform="scale(0.015625)"/>
        <path id="DejaVuSans-2d" d="M 313 2009 
L 1997 2009 
L 1997 1497 
L 313 1497 
L 313 2009 
z
" transform="scale(0.015625)"/>
        <path id="DejaVuSans-37" d="M 525 4666 
L 3525 4666 
L 3525 4397 
L 1831 0 
L 1172 0 
L 2766 4134 
L 525 4134 
L 525 4666 
z
" transform="scale(0.015625)"/>
       </defs>
       <use xlink:href="#DejaVuSans-32"/>
       <use xlink:href="#DejaVuSans-30" transform="translate(63.623047 0)"/>
       <use xlink:href="#DejaVuSans-32" transform="translate(127.246094 0)"/>
       <use xlink:href="#DejaVuSans-31" transform="translate(190.869141 0)"/>
       <use xlink:href="#DejaVuSans-2d" transform="translate(254.492188 0)"/>
       <use xlink:href="#DejaVuSans-30" transform="translate(290.576172 0)"/>
       <use xlink:href="#DejaVuSans-37" transform="translate(354.199219 0)"/>
      </g>
     </g>
    </g>
    <g id="xtick_2">
     <g id="line2d_3">
      <path d="M 206.072727 320.4 
L 206.072727 43.2 
" clip-path="url(#p53e009e76a)" style="fill: none; stroke-dasharray: 5.12,1.28,0.8,1.28; stroke-dashoffset: 0; stroke: #b0b0b0; stroke-width: 0.8"/>
     </g>
     <g id="line2d_4">
      <g>
       <use xlink:href="#mc7089d6b4b" x="206.072727" y="320.4" style="fill: #a9a9a9; stroke: #a9a9a9; stroke-width: 0.8"/>
      </g>
     </g>
     <g id="text_2">
      <!-- 2022-01 -->
      <g style="fill: #a9a9a9" transform="translate(185.181321 334.998438) scale(0.1 -0.1)">
       <use xlink:href="#DejaVuSans-32"/>
       <use xlink:href="#DejaVuSans-30" transform="translate(63.623047 0)"/>
       <use xlink:href="#DejaVuSans-32" transform="translate(127.246094 0)"/>
       <use xlink:href="#DejaVuSans-32" transform="translate(190.869141 0)"/>
       <use xlink:href="#DejaVuSans-2d" transform="translate(254.492188 0)"/>
       <use xlink:href="#DejaVuSans-30" transform="translate(290.576172 0)"/>
       <use xlink:href="#DejaVuSans-31" transform="translate(354.199219 0)"/>
      </g>
     </g>
    </g>
    <g id="xtick_3">
     <g id="line2d_5">
      <path d="M 282.111124 320.4 
L 282.111124 43.2 
" clip-path="url(#p53e009e76a)" style="fill: none; stroke-dasharray: 5.12,1.28,0.8,1.28; stroke-dashoffset: 0; stroke: #b0b0b0; stroke-width: 0.8"/>
     </g>
     <g id="line2d_6">
      <g>
       <use xlink:href="#mc7089d6b4b" x="282.111124" y="320.4" style="fill: #a9a9a9; stroke: #a9a9a9; stroke-width: 0.8"/>
      </g>
     </g>
     <g id="text_3">
      <!-- 2022-07 -->
      <g style="fill: #a9a9a9" transform="translate(261.219717 334.998438) scale(0.1 -0.1)">
       <use xlink:href="#DejaVuSans-32"/>
       <use xlink:href="#DejaVuSans-30" transform="translate(63.623047 0)"/>
       <use xlink:href="#DejaVuSans-32" transform="translate(127.246094 0)"/>
       <use xlink:href="#DejaVuSans-32" transform="translate(190.869141 0)"/>
       <use xlink:href="#DejaVuSans-2d" transform="translate(254.492188 0)"/>
       <use xlink:href="#DejaVuSans-30" transform="translate(290.576172 0)"/>
       <use xlink:href="#DejaVuSans-37" transform="translate(354.199219 0)"/>
      </g>
     </g>
    </g>
    <g id="xtick_4">
     <g id="line2d_7">
      <path d="M 359.409825 320.4 
L 359.409825 43.2 
" clip-path="url(#p53e009e76a)" style="fill: none; stroke-dasharray: 5.12,1.28,0.8,1.28; stroke-dashoffset: 0; stroke: #b0b0b0; stroke-width: 0.8"/>
     </g>
     <g id="line2d_8">
      <g>
       <use xlink:href="#mc7089d6b4b" x="359.409825" y="320.4" style="fill: #a9a9a9; stroke: #a9a9a9; stroke-width: 0.8"/>
      </g>
     </g>
     <g id="text_4">
      <!-- 2023-01 -->
      <g style="fill: #a9a9a9" transform="translate(338.518419 334.998438) scale(0.1 -0.1)">
       <defs>
        <path id="DejaVuSans-33" d="M 2597 2516 
Q 3050 2419 3304 2112 
Q 3559 1806 3559 1356 
Q 3559 666 3084 287 
Q 2609 -91 1734 -91 
Q 1441 -91 1130 -33 
Q 819 25 488 141 
L 488 750 
Q 750 597 1062 519 
Q 1375 441 1716 441 
Q 2309 441 2620 675 
Q 2931 909 2931 1356 
Q 2931 1769 2642 2001 
Q 2353 2234 1838 2234 
L 1294 2234 
L 1294 2753 
L 1863 2753 
Q 2328 2753 2575 2939 
Q 2822 3125 2822 3475 
Q 2822 3834 2567 4026 
Q 2313 4219 1838 4219 
Q 1578 4219 1281 4162 
Q 984 4106 628 3988 
L 628 4550 
Q 988 4650 1302 4700 
Q 1616 4750 1894 4750 
Q 2613 4750 3031 4423 
Q 3450 4097 3450 3541 
Q 3450 3153 3228 2886 
Q 3006 2619 2597 2516 
z
" transform="scale(0.015625)"/>
       </defs>
       <use xlink:href="#DejaVuSans-32"/>
       <use xlink:href="#DejaVuSans-30" transform="translate(63.623047 0)"/>
       <use xlink:href="#DejaVuSans-32" transform="translate(127.246094 0)"/>
       <use xlink:href="#DejaVuSans-33" transform="translate(190.869141 0)"/>
       <use xlink:href="#DejaVuSans-2d" transform="translate(254.492188 0)"/>
       <use xlink:href="#DejaVuSans-30" transform="translate(290.576172 0)"/>
       <use xlink:href="#DejaVuSans-31" transform="translate(354.199219 0)"/>
      </g>
     </g>
    </g>
    <g id="xtick_5">
     <g id="line2d_9">
      <path d="M 435.448221 320.4 
L 435.448221 43.2 
" clip-path="url(#p53e009e76a)" style="fill: none; stroke-dasharray: 5.12,1.28,0.8,1.28; stroke-dashoffset: 0; stroke: #b0b0b0; stroke-width: 0.8"/>
     </g>
     <g id="line2d_10">
      <g>
       <use xlink:href="#mc7089d6b4b" x="435.448221" y="320.4" style="fill: #a9a9a9; stroke: #a9a9a9; stroke-width: 0.8"/>
      </g>
     </g>
     <g id="text_5">
      <!-- 2023-07 -->
      <g style="fill: #a9a9a9" transform="translate(414.556815 334.998438) scale(0.1 -0.1)">
       <use xlink:href="#DejaVuSans-32"/>
       <use xlink:href="#DejaVuSans-30" transform="translate(63.623047 0)"/>
       <use xlink:href="#DejaVuSans-32" transform="translate(127.246094 0)"/>
       <use xlink:href="#DejaVuSans-33" transform="translate(190.869141 0)"/>
       <use xlink:href="#DejaVuSans-2d" transform="translate(254.492188 0)"/>
       <use xlink:href="#DejaVuSans-30" transform="translate(290.576172 0)"/>
       <use xlink:href="#DejaVuSans-37" transform="translate(354.199219 0)"/>
      </g>
     </g>
    </g>
    <g id="xtick_6">
     <g id="line2d_11">
      <path d="M 512.746923 320.4 
L 512.746923 43.2 
" clip-path="url(#p53e009e76a)" style="fill: none; stroke-dasharray: 5.12,1.28,0.8,1.28; stroke-dashoffset: 0; stroke: #b0b0b0; stroke-width: 0.8"/>
     </g>
     <g id="line2d_12">
      <g>
       <use xlink:href="#mc7089d6b4b" x="512.746923" y="320.4" style="fill: #a9a9a9; stroke: #a9a9a9; stroke-width: 0.8"/>
      </g>
     </g>
     <g id="text_6">
      <!-- 2024-01 -->
      <g style="fill: #a9a9a9" transform="translate(491.855516 334.998438) scale(0.1 -0.1)">
       <defs>
        <path id="DejaVuSans-34" d="M 2419 4116 
L 825 1625 
L 2419 1625 
L 2419 4116 
z
M 2253 4666 
L 3047 4666 
L 3047 1625 
L 3713 1625 
L 3713 1100 
L 3047 1100 
L 3047 0 
L 2419 0 
L 2419 1100 
L 313 1100 
L 313 1709 
L 2253 4666 
z
" transform="scale(0.015625)"/>
       </defs>
       <use xlink:href="#DejaVuSans-32"/>
       <use xlink:href="#DejaVuSans-30" transform="translate(63.623047 0)"/>
       <use xlink:href="#DejaVuSans-32" transform="translate(127.246094 0)"/>
       <use xlink:href="#DejaVuSans-34" transform="translate(190.869141 0)"/>
       <use xlink:href="#DejaVuSans-2d" transform="translate(254.492188 0)"/>
       <use xlink:href="#DejaVuSans-30" transform="translate(290.576172 0)"/>
       <use xlink:href="#DejaVuSans-31" transform="translate(354.199219 0)"/>
      </g>
     </g>
    </g>
    <g id="xtick_7">
     <g id="line2d_13">
      <path d="M 589.205421 320.4 
L 589.205421 43.2 
" clip-path="url(#p53e009e76a)" style="fill: none; stroke-dasharray: 5.12,1.28,0.8,1.28; stroke-dashoffset: 0; stroke: #b0b0b0; stroke-width: 0.8"/>
     </g>
     <g id="line2d_14">
      <g>
       <use xlink:href="#mc7089d6b4b" x="589.205421" y="320.4" style="fill: #a9a9a9; stroke: #a9a9a9; stroke-width: 0.8"/>
      </g>
     </g>
     <g id="text_7">
      <!-- 2024-07 -->
      <g style="fill: #a9a9a9" transform="translate(568.314014 334.998438) scale(0.1 -0.1)">
       <use xlink:href="#DejaVuSans-32"/>
       <use xlink:href="#DejaVuSans-30" transform="translate(63.623047 0)"/>
       <use xlink:href="#DejaVuSans-32" transform="translate(127.246094 0)"/>
       <use xlink:href="#DejaVuSans-34" transform="translate(190.869141 0)"/>
       <use xlink:href="#DejaVuSans-2d" transform="translate(254.492188 0)"/>
       <use xlink:href="#DejaVuSans-30" transform="translate(290.576172 0)"/>
       <use xlink:href="#DejaVuSans-37" transform="translate(354.199219 0)"/>
      </g>
     </g>
    </g>
    <g id="xtick_8">
     <g id="line2d_15">
      <path d="M 666.504122 320.4 
L 666.504122 43.2 
" clip-path="url(#p53e009e76a)" style="fill: none; stroke-dasharray: 5.12,1.28,0.8,1.28; stroke-dashoffset: 0; stroke: #b0b0b0; stroke-width: 0.8"/>
     </g>
     <g id="line2d_16">
      <g>
       <use xlink:href="#mc7089d6b4b" x="666.504122" y="320.4" style="fill: #a9a9a9; stroke: #a9a9a9; stroke-width: 0.8"/>
      </g>
     </g>
     <g id="text_8">
      <!-- 2025-01 -->
      <g style="fill: #a9a9a9" transform="translate(645.612716 334.998438) scale(0.1 -0.1)">
       <defs>
        <path id="DejaVuSans-35" d="M 691 4666 
L 3169 4666 
L 3169 4134 
L 1269 4134 
L 1269 2991 
Q 1406 3038 1543 3061 
Q 1681 3084 1819 3084 
Q 2600 3084 3056 2656 
Q 3513 2228 3513 1497 
Q 3513 744 3044 326 
Q 2575 -91 1722 -91 
Q 1428 -91 1123 -41 
Q 819 9 494 109 
L 494 744 
Q 775 591 1075 516 
Q 1375 441 1709 441 
Q 2250 441 2565 725 
Q 2881 1009 2881 1497 
Q 2881 1984 2565 2268 
Q 2250 2553 1709 2553 
Q 1456 2553 1204 2497 
Q 953 2441 691 2322 
L 691 4666 
z
" transform="scale(0.015625)"/>
       </defs>
       <use xlink:href="#DejaVuSans-32"/>
       <use xlink:href="#DejaVuSans-30" transform="translate(63.623047 0)"/>
       <use xlink:href="#DejaVuSans-32" transform="translate(127.246094 0)"/>
       <use xlink:href="#DejaVuSans-35" transform="translate(190.869141 0)"/>
       <use xlink:href="#DejaVuSans-2d" transform="translate(254.492188 0)"/>
       <use xlink:href="#DejaVuSans-30" transform="translate(290.576172 0)"/>
       <use xlink:href="#DejaVuSans-31" transform="translate(354.199219 0)"/>
      </g>
     </g>
    </g>
    <g id="xtick_9">
     <g id="line2d_17">
      <path d="M 742.542518 320.4 
L 742.542518 43.2 
" clip-path="url(#p53e009e76a)" style="fill: none; stroke-dasharray: 5.12,1.28,0.8,1.28; stroke-dashoffset: 0; stroke: #b0b0b0; stroke-width: 0.8"/>
     </g>
     <g id="line2d_18">
      <g>
       <use xlink:href="#mc7089d6b4b" x="742.542518" y="320.4" style="fill: #a9a9a9; stroke: #a9a9a9; stroke-width: 0.8"/>
      </g>
     </g>
     <g id="text_9">
      <!-- 2025-07 -->
      <g style="fill: #a9a9a9" transform="translate(721.651112 334.998438) scale(0.1 -0.1)">
       <use xlink:href="#DejaVuSans-32"/>
       <use xlink:href="#DejaVuSans-30" transform="translate(63.623047 0)"/>
       <use xlink:href="#DejaVuSans-32" transform="translate(127.246094 0)"/>
       <use xlink:href="#DejaVuSans-35" transform="translate(190.869141 0)"/>
       <use xlink:href="#DejaVuSans-2d" transform="translate(254.492188 0)"/>
       <use xlink:href="#DejaVuSans-30" transform="translate(290.576172 0)"/>
       <use xlink:href="#DejaVuSans-37" transform="translate(354.199219 0)"/>
      </g>
     </g>
    </g>
   </g>
   <g id="matplotlib.axis_2">
    <g id="ytick_1">
     <g id="line2d_19">
      <path d="M 108 307.832118 
L 777.6 307.832118 
" clip-path="url(#p53e009e76a)" style="fill: none; stroke-dasharray: 5.12,1.28,0.8,1.28; stroke-dashoffset: 0; stroke: #b0b0b0; stroke-width: 0.8"/>
     </g>
     <g id="line2d_20">
      <defs>
       <path id="m48cc011c90" d="M 0 0 
L -3.5 0 
" style="stroke: #a9a9a9; stroke-width: 0.8"/>
      </defs>
      <g>
       <use xlink:href="#m48cc011c90" x="108" y="307.832118" style="fill: #a9a9a9; stroke: #a9a9a9; stroke-width: 0.8"/>
      </g>
     </g>
     <g id="text_10">
      <!-- 0 -->
      <g style="fill: #a9a9a9" transform="translate(94.6375 311.631337) scale(0.1 -0.1)">
       <use xlink:href="#DejaVuSans-30"/>
      </g>
     </g>
    </g>
    <g id="ytick_2">
     <g id="line2d_21">
      <path d="M 108 275.713841 
L 777.6 275.713841 
" clip-path="url(#p53e009e76a)" style="fill: none; stroke-dasharray: 5.12,1.28,0.8,1.28; stroke-dashoffset: 0; stroke: #b0b0b0; stroke-width: 0.8"/>
     </g>
     <g id="line2d_22">
      <g>
       <use xlink:href="#m48cc011c90" x="108" y="275.713841" style="fill: #a9a9a9; stroke: #a9a9a9; stroke-width: 0.8"/>
      </g>
     </g>
     <g id="text_11">
      <!-- 1000 -->
      <g style="fill: #a9a9a9" transform="translate(75.55 279.51306) scale(0.1 -0.1)">
       <use xlink:href="#DejaVuSans-31"/>
       <use xlink:href="#DejaVuSans-30" transform="translate(63.623047 0)"/>
       <use xlink:href="#DejaVuSans-30" transform="translate(127.246094 0)"/>
       <use xlink:href="#DejaVuSans-30" transform="translate(190.869141 0)"/>
      </g>
     </g>
    </g>
    <g id="ytick_3">
     <g id="line2d_23">
      <path d="M 108 243.595565 
L 777.6 243.595565 
" clip-path="url(#p53e009e76a)" style="fill: none; stroke-dasharray: 5.12,1.28,0.8,1.28; stroke-dashoffset: 0; stroke: #b0b0b0; stroke-width: 0.8"/>
     </g>
     <g id="line2d_24">
      <g>
       <use xlink:href="#m48cc011c90" x="108" y="243.595565" style="fill: #a9a9a9; stroke: #a9a9a9; stroke-width: 0.8"/>
      </g>
     </g>
     <g id="text_12">
      <!-- 2000 -->
      <g style="fill: #a9a9a9" transform="translate(75.55 247.394783) scale(0.1 -0.1)">
       <use xlink:href="#DejaVuSans-32"/>
       <use xlink:href="#DejaVuSans-30" transform="translate(63.623047 0)"/>
       <use xlink:href="#DejaVuSans-30" transform="translate(127.246094 0)"/>
       <use xlink:href="#DejaVuSans-30" transform="translate(190.869141 0)"/>
      </g>
     </g>
    </g>
    <g id="ytick_4">
     <g id="line2d_25">
      <path d="M 108 211.477288 
L 777.6 211.477288 
" clip-path="url(#p53e009e76a)" style="fill: none; stroke-dasharray: 5.12,1.28,0.8,1.28; stroke-dashoffset: 0; stroke: #b0b0b0; stroke-width: 0.8"/>
     </g>
     <g id="line2d_26">
      <g>
       <use xlink:href="#m48cc011c90" x="108" y="211.477288" style="fill: #a9a9a9; stroke: #a9a9a9; stroke-width: 0.8"/>
      </g>
     </g>
     <g id="text_13">
      <!-- 3000 -->
      <g style="fill: #a9a9a9" transform="translate(75.55 215.276507) scale(0.1 -0.1)">
       <use xlink:href="#DejaVuSans-33"/>
       <use xlink:href="#DejaVuSans-30" transform="translate(63.623047 0)"/>
       <use xlink:href="#DejaVuSans-30" transform="translate(127.246094 0)"/>
       <use xlink:href="#DejaVuSans-30" transform="translate(190.869141 0)"/>
      </g>
     </g>
    </g>
    <g id="ytick_5">
     <g id="line2d_27">
      <path d="M 108 179.359011 
L 777.6 179.359011 
" clip-path="url(#p53e009e76a)" style="fill: none; stroke-dasharray: 5.12,1.28,0.8,1.28; stroke-dashoffset: 0; stroke: #b0b0b0; stroke-width: 0.8"/>
     </g>
     <g id="line2d_28">
      <g>
       <use xlink:href="#m48cc011c90" x="108" y="179.359011" style="fill: #a9a9a9; stroke: #a9a9a9; stroke-width: 0.8"/>
      </g>
     </g>
     <g id="text_14">
      <!-- 4000 -->
      <g style="fill: #a9a9a9" transform="translate(75.55 183.15823) scale(0.1 -0.1)">
       <use xlink:href="#DejaVuSans-34"/>
       <use xlink:href="#DejaVuSans-30" transform="translate(63.623047 0)"/>
       <use xlink:href="#DejaVuSans-30" transform="translate(127.246094 0)"/>
       <use xlink:href="#DejaVuSans-30" transform="translate(190.869141 0)"/>
      </g>
     </g>
    </g>
    <g id="ytick_6">
     <g id="line2d_29">
      <path d="M 108 147.240734 
L 777.6 147.240734 
" clip-path="url(#p53e009e76a)" style="fill: none; stroke-dasharray: 5.12,1.28,0.8,1.28; stroke-dashoffset: 0; stroke: #b0b0b0; stroke-width: 0.8"/>
     </g>
     <g id="line2d_30">
      <g>
       <use xlink:href="#m48cc011c90" x="108" y="147.240734" style="fill: #a9a9a9; stroke: #a9a9a9; stroke-width: 0.8"/>
      </g>
     </g>
     <g id="text_15">
      <!-- 5000 -->
      <g style="fill: #a9a9a9" transform="translate(75.55 151.039953) scale(0.1 -0.1)">
       <use xlink:href="#DejaVuSans-35"/>
       <use xlink:href="#DejaVuSans-30" transform="translate(63.623047 0)"/>
       <use xlink:href="#DejaVuSans-30" transform="translate(127.246094 0)"/>
       <use xlink:href="#DejaVuSans-30" transform="translate(190.869141 0)"/>
      </g>
     </g>
    </g>
    <g id="ytick_7">
     <g id="line2d_31">
      <path d="M 108 115.122457 
L 777.6 115.122457 
" clip-path="url(#p53e009e76a)" style="fill: none; stroke-dasharray: 5.12,1.28,0.8,1.28; stroke-dashoffset: 0; stroke: #b0b0b0; stroke-width: 0.8"/>
     </g>
     <g id="line2d_32">
      <g>
       <use xlink:href="#m48cc011c90" x="108" y="115.122457" style="fill: #a9a9a9; stroke: #a9a9a9; stroke-width: 0.8"/>
      </g>
     </g>
     <g id="text_16">
      <!-- 6000 -->
      <g style="fill: #a9a9a9" transform="translate(75.55 118.921676) scale(0.1 -0.1)">
       <defs>
        <path id="DejaVuSans-36" d="M 2113 2584 
Q 1688 2584 1439 2293 
Q 1191 2003 1191 1497 
Q 1191 994 1439 701 
Q 1688 409 2113 409 
Q 2538 409 2786 701 
Q 3034 994 3034 1497 
Q 3034 2003 2786 2293 
Q 2538 2584 2113 2584 
z
M 3366 4563 
L 3366 3988 
Q 3128 4100 2886 4159 
Q 2644 4219 2406 4219 
Q 1781 4219 1451 3797 
Q 1122 3375 1075 2522 
Q 1259 2794 1537 2939 
Q 1816 3084 2150 3084 
Q 2853 3084 3261 2657 
Q 3669 2231 3669 1497 
Q 3669 778 3244 343 
Q 2819 -91 2113 -91 
Q 1303 -91 875 529 
Q 447 1150 447 2328 
Q 447 3434 972 4092 
Q 1497 4750 2381 4750 
Q 2619 4750 2861 4703 
Q 3103 4656 3366 4563 
z
" transform="scale(0.015625)"/>
       </defs>
       <use xlink:href="#DejaVuSans-36"/>
       <use xlink:href="#DejaVuSans-30" transform="translate(63.623047 0)"/>
       <use xlink:href="#DejaVuSans-30" transform="translate(127.246094 0)"/>
       <use xlink:href="#DejaVuSans-30" transform="translate(190.869141 0)"/>
      </g>
     </g>
    </g>
    <g id="ytick_8">
     <g id="line2d_33">
      <path d="M 108 83.00418 
L 777.6 83.00418 
" clip-path="url(#p53e009e76a)" style="fill: none; stroke-dasharray: 5.12,1.28,0.8,1.28; stroke-dashoffset: 0; stroke: #b0b0b0; stroke-width: 0.8"/>
     </g>
     <g id="line2d_34">
      <g>
       <use xlink:href="#m48cc011c90" x="108" y="83.00418" style="fill: #a9a9a9; stroke: #a9a9a9; stroke-width: 0.8"/>
      </g>
     </g>
     <g id="text_17">
      <!-- 7000 -->
      <g style="fill: #a9a9a9" transform="translate(75.55 86.803399) scale(0.1 -0.1)">
       <use xlink:href="#DejaVuSans-37"/>
       <use xlink:href="#DejaVuSans-30" transform="translate(63.623047 0)"/>
       <use xlink:href="#DejaVuSans-30" transform="translate(127.246094 0)"/>
       <use xlink:href="#DejaVuSans-30" transform="translate(190.869141 0)"/>
      </g>
     </g>
    </g>
    <g id="ytick_9">
     <g id="line2d_35">
      <path d="M 108 50.885904 
L 777.6 50.885904 
" clip-path="url(#p53e009e76a)" style="fill: none; stroke-dasharray: 5.12,1.28,0.8,1.28; stroke-dashoffset: 0; stroke: #b0b0b0; stroke-width: 0.8"/>
     </g>
     <g id="line2d_36">
      <g>
       <use xlink:href="#m48cc011c90" x="108" y="50.885904" style="fill: #a9a9a9; stroke: #a9a9a9; stroke-width: 0.8"/>
      </g>
     </g>
     <g id="text_18">
      <!-- 8000 -->
      <g style="fill: #a9a9a9" transform="translate(75.55 54.685122) scale(0.1 -0.1)">
       <defs>
        <path id="DejaVuSans-38" d="M 2034 2216 
Q 1584 2216 1326 1975 
Q 1069 1734 1069 1313 
Q 1069 891 1326 650 
Q 1584 409 2034 409 
Q 2484 409 2743 651 
Q 3003 894 3003 1313 
Q 3003 1734 2745 1975 
Q 2488 2216 2034 2216 
z
M 1403 2484 
Q 997 2584 770 2862 
Q 544 3141 544 3541 
Q 544 4100 942 4425 
Q 1341 4750 2034 4750 
Q 2731 4750 3128 4425 
Q 3525 4100 3525 3541 
Q 3525 3141 3298 2862 
Q 3072 2584 2669 2484 
Q 3125 2378 3379 2068 
Q 3634 1759 3634 1313 
Q 3634 634 3220 271 
Q 2806 -91 2034 -91 
Q 1263 -91 848 271 
Q 434 634 434 1313 
Q 434 1759 690 2068 
Q 947 2378 1403 2484 
z
M 1172 3481 
Q 1172 3119 1398 2916 
Q 1625 2713 2034 2713 
Q 2441 2713 2670 2916 
Q 2900 3119 2900 3481 
Q 2900 3844 2670 4047 
Q 2441 4250 2034 4250 
Q 1625 4250 1398 4047 
Q 1172 3844 1172 3481 
z
" transform="scale(0.015625)"/>
       </defs>
       <use xlink:href="#DejaVuSans-38"/>
       <use xlink:href="#DejaVuSans-30" transform="translate(63.623047 0)"/>
       <use xlink:href="#DejaVuSans-30" transform="translate(127.246094 0)"/>
       <use xlink:href="#DejaVuSans-30" transform="translate(190.869141 0)"/>
      </g>
     </g>
    </g>
   </g>
   <g id="line2d_37">
    <path d="M 138.436364 307.735763 
L 140.956973 307.510936 
L 141.377075 307.318226 
L 143.057482 307.093398 
L 144.737888 306.740097 
L 145.578091 306.611624 
L 147.6786 306.418914 
L 148.518803 306.065613 
L 148.938905 305.487484 
L 149.359006 305.19842 
L 149.779108 304.234871 
L 150.199209 304.170635 
L 150.619311 303.817334 
L 151.459514 303.367678 
L 153.139921 301.954474 
L 154.820327 301.08728 
L 156.080632 300.477033 
L 156.500734 299.770431 
L 157.340937 299.128065 
L 157.761039 298.935356 
L 161.962055 298.29299 
L 162.382157 298.10028 
L 165.322868 297.843334 
L 167.003275 297.425797 
L 170.364088 296.944022 
L 170.78419 296.719194 
L 171.204291 296.654958 
L 172.044495 296.365893 
L 174.985206 295.852001 
L 175.825409 295.595055 
L 179.606324 294.952689 
L 180.446527 294.75998 
L 181.286731 294.727861 
L 182.967137 294.310324 
L 183.387239 293.700076 
L 184.647544 293.186184 
L 185.907849 292.832883 
L 186.32795 292.608055 
L 187.168154 292.447464 
L 188.84856 291.933571 
L 189.688763 291.869335 
L 190.528967 291.644507 
L 192.209373 291.194851 
L 192.629475 291.162733 
L 193.469678 290.745195 
L 193.88978 290.680958 
L 194.309881 290.456131 
L 198.930999 289.653174 
L 200.611406 289.139281 
L 201.031508 288.850217 
L 203.132016 288.143615 
L 203.972219 287.533367 
L 205.232524 287.276421 
L 210.693845 285.670507 
L 211.113947 285.606271 
L 212.794353 284.931787 
L 213.214455 284.86755 
L 214.054658 284.514249 
L 214.894862 284.482131 
L 216.155167 284.096712 
L 216.575268 284.096712 
L 216.99537 283.904002 
L 217.835573 283.807647 
L 218.255675 283.647056 
L 219.936081 283.582819 
L 220.776285 283.422228 
L 221.616488 282.972572 
L 222.876793 282.490798 
L 223.716996 282.041142 
L 224.557199 281.591486 
L 225.397403 281.302422 
L 225.817504 281.173949 
L 226.657708 280.627938 
L 227.077809 280.146164 
L 227.918012 278.797196 
L 228.338114 278.668723 
L 228.758216 278.668723 
L 230.438622 277.705175 
L 230.858724 277.60882 
L 231.278826 277.191282 
L 232.119029 276.837981 
L 232.959232 276.452562 
L 233.379334 275.938669 
L 233.799435 275.232067 
L 234.219537 274.943003 
L 234.639639 274.172164 
L 235.05974 273.69039 
L 237.58035 272.277186 
L 238.420553 271.570584 
L 238.840655 271.313638 
L 239.260757 270.70339 
L 239.680858 269.707724 
L 240.10096 269.065358 
L 240.521062 268.712057 
L 240.941163 268.519347 
L 244.301976 265.339638 
L 245.14218 264.536681 
L 247.662789 262.898649 
L 248.082891 262.738058 
L 249.763298 261.710273 
L 250.183399 261.517563 
L 252.283907 259.52623 
L 253.124111 259.172929 
L 253.964314 258.562682 
L 254.384416 258.305735 
L 254.804517 258.241499 
L 256.064822 257.502778 
L 256.484924 257.021004 
L 258.585432 255.832628 
L 259.005534 255.672037 
L 260.265839 254.772725 
L 266.567363 252.460209 
L 267.407566 251.657252 
L 268.667871 251.014887 
L 269.508075 250.468876 
L 270.348278 250.21193 
L 270.768379 249.922865 
L 271.188481 249.794392 
L 272.448786 248.927199 
L 274.549294 248.445424 
L 275.809599 247.674586 
L 277.069904 247.385521 
L 277.490006 247.289166 
L 278.750311 246.325618 
L 280.430717 245.843844 
L 280.850819 245.490543 
L 283.371429 244.591231 
L 284.211632 244.43064 
L 285.051835 244.077339 
L 287.992547 242.953199 
L 288.83275 242.824726 
L 290.093055 242.37507 
L 292.193563 241.315167 
L 294.714173 239.869845 
L 295.554376 239.645017 
L 296.814681 239.002651 
L 297.654884 238.84206 
L 298.495088 238.328167 
L 299.335291 238.103339 
L 300.595596 237.589447 
L 302.276002 237.364619 
L 303.116206 236.914963 
L 303.536307 236.529544 
L 303.956409 235.758705 
L 305.636815 235.276931 
L 306.89712 234.602447 
L 307.737324 234.313383 
L 308.997628 233.671017 
L 311.098137 232.803824 
L 311.93834 232.611114 
L 313.198645 231.968748 
L 313.618746 231.904512 
L 315.719255 230.844609 
L 316.559458 230.298598 
L 317.819763 230.041652 
L 319.920271 229.495641 
L 320.340373 229.14234 
L 321.180576 228.853276 
L 323.281084 227.986082 
L 323.701186 227.664899 
L 324.121287 227.504308 
L 324.961491 227.022534 
L 326.641897 226.476523 
L 327.482101 225.930512 
L 327.902202 225.480856 
L 328.322304 225.22391 
L 328.742405 225.127555 
L 329.582609 224.420953 
L 330.00271 224.356717 
L 330.422812 223.650115 
L 330.842914 223.457405 
L 331.263015 223.104104 
L 331.683117 223.039867 
L 332.52332 222.493857 
L 333.363523 222.204792 
L 333.783625 221.883609 
L 334.203727 221.723018 
L 335.884133 220.56676 
L 337.144438 219.924395 
L 337.984641 219.699567 
L 338.824845 219.217793 
L 339.244946 218.479072 
L 340.08515 217.836707 
L 340.505251 217.740352 
L 343.025861 216.487739 
L 343.866064 216.134438 
L 344.706268 215.524191 
L 345.966573 214.335814 
L 346.806776 213.821922 
L 347.226877 213.340148 
L 348.907284 212.151772 
L 349.747487 211.284578 
L 350.587691 210.995514 
L 351.427894 210.417385 
L 352.688199 209.742901 
L 353.1083 209.678664 
L 354.368605 208.972062 
L 355.208809 208.426051 
L 359.409825 206.820138 
L 359.829927 206.466837 
L 361.510333 205.792353 
L 361.930435 205.66388 
L 362.770638 205.117869 
L 363.610841 204.764568 
L 364.451045 204.154321 
L 365.291248 202.419934 
L 366.131451 201.392149 
L 367.391756 200.717665 
L 368.231959 200.364364 
L 368.652061 200.300127 
L 369.492264 199.914708 
L 371.172671 199.336579 
L 372.012874 198.854805 
L 372.853077 198.437267 
L 373.273179 198.308794 
L 375.793789 196.767117 
L 376.21389 196.285343 
L 377.474195 195.546622 
L 377.894297 195.386031 
L 378.7345 194.872139 
L 380.414907 193.940709 
L 380.835008 193.844354 
L 381.25511 193.491053 
L 384.195822 192.495386 
L 384.615923 192.174203 
L 385.456126 191.917257 
L 386.29633 191.563956 
L 386.716431 191.210655 
L 388.396838 190.600408 
L 389.237041 189.990161 
L 390.077244 189.63686 
L 390.917448 188.962376 
L 391.757651 188.70543 
L 392.177753 188.32001 
L 392.597854 188.255774 
L 393.438058 187.58129 
L 395.538566 186.328677 
L 396.378769 186.071731 
L 396.798871 185.814785 
L 397.218972 185.750548 
L 398.479277 185.043946 
L 400.159684 184.465817 
L 400.999887 184.337344 
L 401.419989 184.144634 
L 401.84009 184.080398 
L 402.680294 183.694978 
L 403.100395 183.66286 
L 404.780802 183.020495 
L 406.041107 182.089064 
L 406.461208 181.928473 
L 407.301412 181.446699 
L 407.721513 181.318226 
L 410.242123 179.872903 
L 410.662225 179.776549 
L 411.92253 179.00571 
L 413.182835 178.556054 
L 414.023038 178.26699 
L 415.703444 177.688861 
L 416.543648 177.399796 
L 418.224054 177.046495 
L 418.644156 176.853785 
L 419.484359 176.628957 
L 419.904461 176.436248 
L 420.324562 176.372011 
L 420.744664 176.147183 
L 421.584867 175.986592 
L 422.845172 175.504818 
L 424.105477 175.312108 
L 426.626087 174.830334 
L 427.886392 174.541269 
L 428.306494 174.34856 
L 429.146697 174.187968 
L 429.9869 173.96314 
L 430.827103 173.577721 
L 431.247205 173.41713 
L 431.667307 173.41713 
L 436.288425 171.971807 
L 436.708526 171.746979 
L 437.128628 171.746979 
L 437.968831 171.425797 
L 438.388933 170.976141 
L 440.909543 169.916238 
L 442.589949 169.338109 
L 443.010051 169.081162 
L 444.270356 168.695743 
L 445.110559 168.470915 
L 445.530661 168.181851 
L 445.950762 168.085496 
L 446.370864 167.700076 
L 447.631169 167.44313 
L 448.471372 167.057711 
L 448.891474 166.543819 
L 453.512592 165.516034 
L 453.932693 165.516034 
L 454.352795 165.323324 
L 456.033202 165.002141 
L 456.453303 164.809432 
L 458.13371 164.488249 
L 458.973913 164.134948 
L 459.814116 163.974356 
L 461.914625 163.428346 
L 463.595031 162.882335 
L 464.015133 162.78598 
L 464.435234 162.561152 
L 465.275438 162.336324 
L 466.115641 161.983023 
L 466.955844 161.66184 
L 467.375946 161.372776 
L 468.216149 161.11583 
L 471.156861 159.99169 
L 472.837267 159.79898 
L 476.19808 158.546368 
L 476.618182 158.225185 
L 477.038283 158.12883 
L 477.458385 157.904002 
L 477.878487 157.871884 
L 482.499605 156.169615 
L 484.600113 155.591486 
L 485.440316 155.173949 
L 486.700621 154.884884 
L 488.381028 153.47168 
L 490.061434 152.732959 
L 490.901637 152.34754 
L 493.422247 151.351874 
L 493.842349 151.062809 
L 495.942857 150.356207 
L 497.203162 149.617487 
L 497.623264 149.521132 
L 499.723772 148.364874 
L 500.984077 147.786745 
L 501.404178 147.465562 
L 502.244382 147.176498 
L 504.34489 146.084476 
L 505.605195 145.63482 
L 507.285601 144.960336 
L 508.545906 144.478562 
L 508.966008 144.317971 
L 509.806211 144.189498 
L 510.226313 143.900433 
L 511.906719 143.579251 
L 512.746923 143.22595 
L 514.427329 142.422993 
L 520.308752 139.789294 
L 521.569057 139.371756 
L 521.989159 139.082692 
L 522.829362 138.986337 
L 523.249464 138.697272 
L 524.089667 138.568799 
L 524.92987 138.151262 
L 525.349972 137.958552 
L 526.190175 137.733724 
L 527.030378 137.476778 
L 528.290683 136.995004 
L 529.550988 136.577466 
L 530.811293 136.288402 
L 532.4917 135.5818 
L 533.331903 135.132144 
L 535.012309 134.26495 
L 535.852513 134.072241 
L 536.272614 133.815294 
L 536.692716 133.71894 
L 537.953021 132.980219 
L 538.793224 132.626918 
L 548.03546 129.029671 
L 549.715867 128.226714 
L 553.916883 126.556564 
L 554.757086 126.139026 
L 555.177188 126.042671 
L 555.59729 125.817843 
L 557.277696 125.336069 
L 558.958103 123.922865 
L 559.378204 123.794392 
L 559.798306 123.537446 
L 561.058611 123.184145 
L 561.478713 122.862962 
L 561.898814 122.766607 
L 563.159119 121.995769 
L 563.579221 121.706704 
L 564.839526 121.22493 
L 565.259627 121.000102 
L 566.519932 120.711037 
L 568.62044 119.972317 
L 569.460644 119.715371 
L 570.720949 119.040887 
L 571.561152 118.623349 
L 572.401355 118.398522 
L 573.66166 117.788274 
L 577.862676 116.086006 
L 579.963185 115.058221 
L 580.803388 114.737038 
L 581.22349 114.351619 
L 582.063693 113.998318 
L 583.323998 113.548662 
L 583.744099 113.195361 
L 584.164201 113.163242 
L 585.004404 112.906296 
L 585.844608 112.617232 
L 586.264709 112.424522 
L 586.684811 112.360285 
L 587.525014 112.006984 
L 588.785319 111.71792 
L 589.625522 111.236146 
L 590.045624 111.075554 
L 590.465726 110.754372 
L 591.72603 110.433189 
L 592.146132 110.176243 
L 592.986335 109.951415 
L 594.24664 109.244813 
L 594.666742 109.212694 
L 595.927047 108.795157 
L 596.76725 108.73092 
L 597.187352 108.506092 
L 598.027555 108.281264 
L 598.447657 108.056436 
L 600.548165 107.638899 
L 601.388368 107.478307 
L 602.648673 106.996533 
L 603.908978 106.707469 
L 605.169283 106.032985 
L 605.589385 105.647566 
L 606.849689 104.876727 
L 607.269791 104.555544 
L 608.530096 104.138007 
L 609.370299 103.913179 
L 613.151214 102.243028 
L 614.831621 101.793372 
L 615.671824 101.407953 
L 616.091925 101.183125 
L 616.932129 100.926179 
L 617.35223 100.701351 
L 618.192434 100.54076 
L 621.553247 99.063319 
L 621.973348 98.999082 
L 623.233653 98.164007 
L 623.653755 98.099771 
L 625.334161 97.425287 
L 627.014568 97.007749 
L 627.43467 96.943513 
L 627.854771 96.750803 
L 628.274873 96.718685 
L 629.115076 96.42962 
L 629.535178 96.397502 
L 630.795483 95.915728 
L 632.475889 95.433954 
L 633.316093 94.791588 
L 634.996499 93.860158 
L 635.416601 93.763803 
L 635.836702 93.538975 
L 636.676906 93.249911 
L 637.097007 93.121438 
L 637.517109 92.768137 
L 638.777414 92.286362 
L 639.617617 91.804588 
L 640.037719 91.57976 
L 640.45782 91.194341 
L 642.558329 90.64833 
L 643.818634 90.070201 
L 644.658837 89.845373 
L 645.078938 89.620546 
L 645.49904 89.267244 
L 647.179447 88.817589 
L 647.599548 88.496406 
L 653.06087 86.472954 
L 653.901073 86.312363 
L 656.001581 85.637879 
L 656.841784 85.284578 
L 657.681988 84.963395 
L 658.522191 84.738567 
L 658.942292 84.545858 
L 659.362394 84.545858 
L 660.202597 84.192557 
L 661.042801 83.710783 
L 663.983512 82.715116 
L 665.663919 82.136987 
L 666.924224 81.847923 
L 668.184529 81.430385 
L 668.60463 81.33403 
L 669.024732 81.044966 
L 669.864935 80.852256 
L 671.545342 80.370482 
L 671.965443 80.338363 
L 672.805647 79.952944 
L 675.746358 79.214224 
L 676.586561 78.860923 
L 680.787578 77.897374 
L 682.047883 77.222891 
L 683.308187 76.837471 
L 689.18961 74.685547 
L 690.029814 74.428601 
L 690.870017 74.011063 
L 691.290119 73.657762 
L 692.130322 73.400816 
L 692.550423 73.143869 
L 693.390627 73.047515 
L 696.331338 72.212439 
L 697.591643 71.955493 
L 698.851948 71.63431 
L 699.692151 71.409483 
L 700.952456 70.767117 
L 702.632863 70.124751 
L 703.473066 69.675096 
L 703.893168 69.642977 
L 704.733371 69.22544 
L 707.674082 68.390365 
L 708.934387 68.197655 
L 709.774591 67.90859 
L 711.034896 67.523171 
L 714.81581 66.463268 
L 715.656014 66.23844 
L 716.076115 66.142085 
L 716.496217 65.885139 
L 717.33642 65.724548 
L 718.176623 65.628193 
L 718.596725 65.403365 
L 719.016827 65.371246 
L 720.277132 64.728881 
L 721.537436 64.439816 
L 722.37764 64.054397 
L 723.217843 63.765333 
L 724.058046 63.540505 
L 724.89825 63.187204 
L 725.738453 62.898139 
L 727.418859 62.416365 
L 728.259063 62.352128 
L 729.099266 62.063064 
L 729.519368 61.902473 
L 730.359571 61.773999 
L 732.039977 61.035279 
L 732.460079 60.971043 
L 732.880181 60.746215 
L 733.720384 60.585623 
L 734.560587 60.521387 
L 737.081197 59.879021 
L 737.9214 59.52572 
L 738.341502 59.461484 
L 738.761604 59.204537 
L 739.601807 58.465817 
L 745.063128 56.410247 
L 746.323433 56.121183 
L 746.743535 55.8 
L 747.163636 55.8 
L 747.163636 55.8 
" clip-path="url(#p53e009e76a)" style="fill: none; stroke: #1f77b4; stroke-width: 1.5; stroke-linecap: square"/>
   </g>
   <g id="line2d_38">
    <path d="M 138.856465 307.8 
L 142.63738 307.703645 
L 145.998193 307.543054 
L 147.6786 307.543054 
L 148.098701 307.414581 
L 150.199209 307.318226 
L 152.719819 307.029161 
L 155.240429 306.932807 
L 156.080632 306.836452 
L 159.021344 306.707979 
L 161.962055 306.611624 
L 164.062564 306.547387 
L 169.523885 306.451032 
L 171.624393 306.386796 
L 175.405308 306.290441 
L 177.085714 306.258323 
L 181.286731 306.161968 
L 182.967137 306.001376 
L 184.647544 305.969258 
L 187.168154 305.872903 
L 188.84856 305.840785 
L 190.949068 305.776549 
L 192.629475 305.615957 
L 196.41039 305.519602 
L 197.250593 305.455366 
L 198.930999 305.359011 
L 201.451609 305.262656 
L 203.132016 305.166301 
L 210.693845 304.684527 
L 213.634557 304.588172 
L 214.894862 304.459699 
L 216.99537 304.363344 
L 221.196386 304.138516 
L 225.397403 304.07428 
L 227.077809 303.88157 
L 229.178317 303.785215 
L 233.379334 303.367678 
L 235.899944 303.046495 
L 237.58035 302.982258 
L 240.941163 302.532603 
L 243.461773 302.468366 
L 244.722078 302.339893 
L 245.982383 302.243538 
L 257.745229 301.312108 
L 258.585432 301.151517 
L 261.106042 301.055162 
L 267.827668 300.637624 
L 270.768379 300.541269 
L 272.448786 300.34856 
L 274.549294 300.252205 
L 277.069904 300.15585 
L 279.170412 300.059495 
L 280.850819 300.027377 
L 282.951327 299.96314 
L 283.79153 299.834667 
L 289.672953 299.738313 
L 290.513156 299.641958 
L 295.554376 299.545603 
L 299.335291 299.352893 
L 302.276002 299.256538 
L 303.956409 299.063829 
L 306.89712 298.967474 
L 307.737324 298.839001 
L 309.837832 298.774764 
L 314.038848 298.710528 
L 315.719255 298.549936 
L 317.399661 298.517818 
L 318.659966 298.421463 
L 320.340373 298.260872 
L 324.541389 298.036044 
L 328.742405 297.939689 
L 332.52332 297.746979 
L 333.783625 297.714861 
L 334.623828 297.586388 
L 336.724337 297.490033 
L 337.56454 297.425797 
L 338.404743 297.36156 
L 339.244946 297.297323 
L 343.445963 297.200969 
L 355.208809 296.398012 
L 357.729418 296.301657 
L 359.829927 296.23742 
L 365.71135 296.141066 
L 366.551553 296.012592 
L 372.432976 295.916238 
L 376.633992 295.69141 
L 377.474195 295.659291 
L 378.314399 295.562937 
L 380.414907 295.466582 
L 382.515415 295.402345 
L 384.615923 295.30599 
L 386.716431 295.241754 
L 390.497346 295.145399 
L 393.017956 295.049044 
L 398.899379 294.952689 
L 403.520497 294.695743 
L 405.200903 294.631507 
L 406.461208 294.535152 
L 412.342631 294.438797 
L 414.863241 294.342442 
L 422.425071 294.246087 
L 424.105477 294.213969 
L 429.146697 294.149732 
L 429.9869 294.085496 
L 435.868323 293.989141 
L 437.54873 293.957023 
L 448.471372 293.860668 
L 450.991982 293.764313 
L 468.636251 293.667958 
L 470.736759 293.603722 
L 481.659401 293.539485 
L 482.499605 293.475249 
L 484.600113 293.411012 
L 485.860418 293.282539 
L 488.381028 293.186184 
L 491.321739 293.057711 
L 495.102654 292.961356 
L 497.203162 292.89712 
L 500.143874 292.800765 
L 503.504687 292.640173 
L 505.605195 292.543819 
L 507.285601 292.5117 
L 511.066516 292.415345 
L 512.746923 292.383227 
L 518.208244 292.286872 
L 519.88865 292.254754 
L 521.989159 292.158399 
L 524.509768 292.062044 
L 527.45048 291.997808 
L 528.290683 291.933571 
L 538.373123 291.837216 
L 542.574139 291.612388 
L 545.51485 291.516034 
L 550.135968 291.259087 
L 553.07668 291.162733 
L 554.757086 291.130614 
L 557.697798 291.034259 
L 559.798306 290.809432 
L 563.999322 290.713077 
L 564.839526 290.616722 
L 569.040542 290.520367 
L 571.14105 290.456131 
L 575.762168 290.424012 
L 576.602372 290.327657 
L 581.22349 290.231303 
L 582.063693 290.167066 
L 591.305929 290.070711 
L 593.826539 289.974356 
L 600.128063 289.878002 
L 601.80847 289.845883 
L 605.589385 289.781647 
L 606.429588 289.685292 
L 611.890909 289.588937 
L 613.991417 289.5247 
L 621.553247 289.428346 
L 622.813552 289.331991 
L 624.073857 289.235636 
L 625.334161 289.139281 
L 631.635686 289.042926 
L 634.156296 288.946572 
L 645.49904 288.850217 
L 649.279955 288.657507 
L 654.321174 288.561152 
L 655.161378 288.496916 
L 661.462902 288.432679 
L 662.303106 288.368443 
L 666.924224 288.272088 
L 668.60463 288.239969 
L 675.746358 288.143615 
L 676.586561 288.079378 
L 684.148391 287.983023 
L 685.828797 287.950905 
L 689.609712 287.85455 
L 692.970525 287.693959 
L 697.591643 287.597604 
L 700.532355 287.469131 
L 704.313269 287.372776 
L 705.153473 287.308539 
L 713.555505 287.212185 
L 715.656014 287.147948 
L 718.176623 287.051593 
L 720.697233 286.955238 
L 733.300282 286.858884 
L 736.240994 286.73041 
L 741.282213 286.634056 
L 742.96262 286.601937 
L 747.163636 286.505582 
L 747.163636 286.505582 
" clip-path="url(#p53e009e76a)" style="fill: none; stroke: #ff7f0e; stroke-width: 1.5; stroke-linecap: square"/>
   </g>
   <g id="patch_3">
    <path d="M 108 320.4 
L 108 43.2 
" style="fill: none; stroke: #a9a9a9; stroke-width: 0.8; stroke-linejoin: miter; stroke-linecap: square"/>
   </g>
   <g id="patch_4">
    <path d="M 777.6 320.4 
L 777.6 43.2 
" style="fill: none"/>
   </g>
   <g id="patch_5">
    <path d="M 108 320.4 
L 777.6 320.4 
" style="fill: none; stroke: #a9a9a9; stroke-width: 0.8; stroke-linejoin: miter; stroke-linecap: square"/>
   </g>
   <g id="patch_6">
    <path d="M 108 43.2 
L 777.6 43.2 
" style="fill: none"/>
   </g>
   <g id="text_19">
    <!-- get_subscribe history -->
    <g style="fill: #a9a9a9" transform="translate(378.6075 37.2) scale(0.12 -0.12)">
     <defs>
      <path id="DejaVuSans-67" d="M 2906 1791 
Q 2906 2416 2648 2759 
Q 2391 3103 1925 3103 
Q 1463 3103 1205 2759 
Q 947 2416 947 1791 
Q 947 1169 1205 825 
Q 1463 481 1925 481 
Q 2391 481 2648 825 
Q 2906 1169 2906 1791 
z
M 3481 434 
Q 3481 -459 3084 -895 
Q 2688 -1331 1869 -1331 
Q 1566 -1331 1297 -1286 
Q 1028 -1241 775 -1147 
L 775 -588 
Q 1028 -725 1275 -790 
Q 1522 -856 1778 -856 
Q 2344 -856 2625 -561 
Q 2906 -266 2906 331 
L 2906 616 
Q 2728 306 2450 153 
Q 2172 0 1784 0 
Q 1141 0 747 490 
Q 353 981 353 1791 
Q 353 2603 747 3093 
Q 1141 3584 1784 3584 
Q 2172 3584 2450 3431 
Q 2728 3278 2906 2969 
L 2906 3500 
L 3481 3500 
L 3481 434 
z
" transform="scale(0.015625)"/>
      <path id="DejaVuSans-65" d="M 3597 1894 
L 3597 1613 
L 953 1613 
Q 991 1019 1311 708 
Q 1631 397 2203 397 
Q 2534 397 2845 478 
Q 3156 559 3463 722 
L 3463 178 
Q 3153 47 2828 -22 
Q 2503 -91 2169 -91 
Q 1331 -91 842 396 
Q 353 884 353 1716 
Q 353 2575 817 3079 
Q 1281 3584 2069 3584 
Q 2775 3584 3186 3129 
Q 3597 2675 3597 1894 
z
M 3022 2063 
Q 3016 2534 2758 2815 
Q 2500 3097 2075 3097 
Q 1594 3097 1305 2825 
Q 1016 2553 972 2059 
L 3022 2063 
z
" transform="scale(0.015625)"/>
      <path id="DejaVuSans-74" d="M 1172 4494 
L 1172 3500 
L 2356 3500 
L 2356 3053 
L 1172 3053 
L 1172 1153 
Q 1172 725 1289 603 
Q 1406 481 1766 481 
L 2356 481 
L 2356 0 
L 1766 0 
Q 1100 0 847 248 
Q 594 497 594 1153 
L 594 3053 
L 172 3053 
L 172 3500 
L 594 3500 
L 594 4494 
L 1172 4494 
z
" transform="scale(0.015625)"/>
      <path id="DejaVuSans-5f" d="M 3263 -1063 
L 3263 -1509 
L -63 -1509 
L -63 -1063 
L 3263 -1063 
z
" transform="scale(0.015625)"/>
      <path id="DejaVuSans-73" d="M 2834 3397 
L 2834 2853 
Q 2591 2978 2328 3040 
Q 2066 3103 1784 3103 
Q 1356 3103 1142 2972 
Q 928 2841 928 2578 
Q 928 2378 1081 2264 
Q 1234 2150 1697 2047 
L 1894 2003 
Q 2506 1872 2764 1633 
Q 3022 1394 3022 966 
Q 3022 478 2636 193 
Q 2250 -91 1575 -91 
Q 1294 -91 989 -36 
Q 684 19 347 128 
L 347 722 
Q 666 556 975 473 
Q 1284 391 1588 391 
Q 1994 391 2212 530 
Q 2431 669 2431 922 
Q 2431 1156 2273 1281 
Q 2116 1406 1581 1522 
L 1381 1569 
Q 847 1681 609 1914 
Q 372 2147 372 2553 
Q 372 3047 722 3315 
Q 1072 3584 1716 3584 
Q 2034 3584 2315 3537 
Q 2597 3491 2834 3397 
z
" transform="scale(0.015625)"/>
      <path id="DejaVuSans-75" d="M 544 1381 
L 544 3500 
L 1119 3500 
L 1119 1403 
Q 1119 906 1312 657 
Q 1506 409 1894 409 
Q 2359 409 2629 706 
Q 2900 1003 2900 1516 
L 2900 3500 
L 3475 3500 
L 3475 0 
L 2900 0 
L 2900 538 
Q 2691 219 2414 64 
Q 2138 -91 1772 -91 
Q 1169 -91 856 284 
Q 544 659 544 1381 
z
M 1991 3584 
L 1991 3584 
z
" transform="scale(0.015625)"/>
      <path id="DejaVuSans-62" d="M 3116 1747 
Q 3116 2381 2855 2742 
Q 2594 3103 2138 3103 
Q 1681 3103 1420 2742 
Q 1159 2381 1159 1747 
Q 1159 1113 1420 752 
Q 1681 391 2138 391 
Q 2594 391 2855 752 
Q 3116 1113 3116 1747 
z
M 1159 2969 
Q 1341 3281 1617 3432 
Q 1894 3584 2278 3584 
Q 2916 3584 3314 3078 
Q 3713 2572 3713 1747 
Q 3713 922 3314 415 
Q 2916 -91 2278 -91 
Q 1894 -91 1617 61 
Q 1341 213 1159 525 
L 1159 0 
L 581 0 
L 581 4863 
L 1159 4863 
L 1159 2969 
z
" transform="scale(0.015625)"/>
      <path id="DejaVuSans-63" d="M 3122 3366 
L 3122 2828 
Q 2878 2963 2633 3030 
Q 2388 3097 2138 3097 
Q 1578 3097 1268 2742 
Q 959 2388 959 1747 
Q 959 1106 1268 751 
Q 1578 397 2138 397 
Q 2388 397 2633 464 
Q 2878 531 3122 666 
L 3122 134 
Q 2881 22 2623 -34 
Q 2366 -91 2075 -91 
Q 1284 -91 818 406 
Q 353 903 353 1747 
Q 353 2603 823 3093 
Q 1294 3584 2113 3584 
Q 2378 3584 2631 3529 
Q 2884 3475 3122 3366 
z
" transform="scale(0.015625)"/>
      <path id="DejaVuSans-72" d="M 2631 2963 
Q 2534 3019 2420 3045 
Q 2306 3072 2169 3072 
Q 1681 3072 1420 2755 
Q 1159 2438 1159 1844 
L 1159 0 
L 581 0 
L 581 3500 
L 1159 3500 
L 1159 2956 
Q 1341 3275 1631 3429 
Q 1922 3584 2338 3584 
Q 2397 3584 2469 3576 
Q 2541 3569 2628 3553 
L 2631 2963 
z
" transform="scale(0.015625)"/>
      <path id="DejaVuSans-69" d="M 603 3500 
L 1178 3500 
L 1178 0 
L 603 0 
L 603 3500 
z
M 603 4863 
L 1178 4863 
L 1178 4134 
L 603 4134 
L 603 4863 
z
" transform="scale(0.015625)"/>
      <path id="DejaVuSans-20" transform="scale(0.015625)"/>
      <path id="DejaVuSans-68" d="M 3513 2113 
L 3513 0 
L 2938 0 
L 2938 2094 
Q 2938 2591 2744 2837 
Q 2550 3084 2163 3084 
Q 1697 3084 1428 2787 
Q 1159 2491 1159 1978 
L 1159 0 
L 581 0 
L 581 4863 
L 1159 4863 
L 1159 2956 
Q 1366 3272 1645 3428 
Q 1925 3584 2291 3584 
Q 2894 3584 3203 3211 
Q 3513 2838 3513 2113 
z
" transform="scale(0.015625)"/>
      <path id="DejaVuSans-6f" d="M 1959 3097 
Q 1497 3097 1228 2736 
Q 959 2375 959 1747 
Q 959 1119 1226 758 
Q 1494 397 1959 397 
Q 2419 397 2687 759 
Q 2956 1122 2956 1747 
Q 2956 2369 2687 2733 
Q 2419 3097 1959 3097 
z
M 1959 3584 
Q 2709 3584 3137 3096 
Q 3566 2609 3566 1747 
Q 3566 888 3137 398 
Q 2709 -91 1959 -91 
Q 1206 -91 779 398 
Q 353 888 353 1747 
Q 353 2609 779 3096 
Q 1206 3584 1959 3584 
z
" transform="scale(0.015625)"/>
      <path id="DejaVuSans-79" d="M 2059 -325 
Q 1816 -950 1584 -1140 
Q 1353 -1331 966 -1331 
L 506 -1331 
L 506 -850 
L 844 -850 
Q 1081 -850 1212 -737 
Q 1344 -625 1503 -206 
L 1606 56 
L 191 3500 
L 800 3500 
L 1894 763 
L 2988 3500 
L 3597 3500 
L 2059 -325 
z
" transform="scale(0.015625)"/>
     </defs>
     <use xlink:href="#DejaVuSans-67"/>
     <use xlink:href="#DejaVuSans-65" transform="translate(63.476562 0)"/>
     <use xlink:href="#DejaVuSans-74" transform="translate(125 0)"/>
     <use xlink:href="#DejaVuSans-5f" transform="translate(164.208984 0)"/>
     <use xlink:href="#DejaVuSans-73" transform="translate(214.208984 0)"/>
     <use xlink:href="#DejaVuSans-75" transform="translate(266.308594 0)"/>
     <use xlink:href="#DejaVuSans-62" transform="translate(329.6875 0)"/>
     <use xlink:href="#DejaVuSans-73" transform="translate(393.164062 0)"/>
     <use xlink:href="#DejaVuSans-63" transform="translate(445.263672 0)"/>
     <use xlink:href="#DejaVuSans-72" transform="translate(500.244141 0)"/>
     <use xlink:href="#DejaVuSans-69" transform="translate(541.357422 0)"/>
     <use xlink:href="#DejaVuSans-62" transform="translate(569.140625 0)"/>
     <use xlink:href="#DejaVuSans-65" transform="translate(632.617188 0)"/>
     <use xlink:href="#DejaVuSans-20" transform="translate(694.140625 0)"/>
     <use xlink:href="#DejaVuSans-68" transform="translate(725.927734 0)"/>
     <use xlink:href="#DejaVuSans-69" transform="translate(789.306641 0)"/>
     <use xlink:href="#DejaVuSans-73" transform="translate(817.089844 0)"/>
     <use xlink:href="#DejaVuSans-74" transform="translate(869.189453 0)"/>
     <use xlink:href="#DejaVuSans-6f" transform="translate(908.398438 0)"/>
     <use xlink:href="#DejaVuSans-72" transform="translate(969.580078 0)"/>
     <use xlink:href="#DejaVuSans-79" transform="translate(1010.693359 0)"/>
    </g>
   </g>
   <g id="legend_1">
    <g id="line2d_39">
     <path d="M 815.08 328.498438 
L 825.08 328.498438 
L 835.08 328.498438 
" style="fill: none; stroke: #1f77b4; stroke-width: 1.5; stroke-linecap: square"/>
    </g>
    <g id="text_20">
     <!-- star -->
     <g style="fill: #a9a9a9" transform="translate(843.08 331.998438) scale(0.1 -0.1)">
      <defs>
       <path id="DejaVuSans-61" d="M 2194 1759 
Q 1497 1759 1228 1600 
Q 959 1441 959 1056 
Q 959 750 1161 570 
Q 1363 391 1709 391 
Q 2188 391 2477 730 
Q 2766 1069 2766 1631 
L 2766 1759 
L 2194 1759 
z
M 3341 1997 
L 3341 0 
L 2766 0 
L 2766 531 
Q 2569 213 2275 61 
Q 1981 -91 1556 -91 
Q 1019 -91 701 211 
Q 384 513 384 1019 
Q 384 1609 779 1909 
Q 1175 2209 1959 2209 
L 2766 2209 
L 2766 2266 
Q 2766 2663 2505 2880 
Q 2244 3097 1772 3097 
Q 1472 3097 1187 3025 
Q 903 2953 641 2809 
L 641 3341 
Q 956 3463 1253 3523 
Q 1550 3584 1831 3584 
Q 2591 3584 2966 3190 
Q 3341 2797 3341 1997 
z
" transform="scale(0.015625)"/>
      </defs>
      <use xlink:href="#DejaVuSans-73"/>
      <use xlink:href="#DejaVuSans-74" transform="translate(52.099609 0)"/>
      <use xlink:href="#DejaVuSans-61" transform="translate(91.308594 0)"/>
      <use xlink:href="#DejaVuSans-72" transform="translate(152.587891 0)"/>
     </g>
    </g>
    <g id="line2d_40">
     <path d="M 815.08 343.176562 
L 825.08 343.176562 
L 835.08 343.176562 
" style="fill: none; stroke: #ff7f0e; stroke-width: 1.5; stroke-linecap: square"/>
    </g>
    <g id="text_21">
     <!-- fork -->
     <g style="fill: #a9a9a9" transform="translate(843.08 346.676562) scale(0.1 -0.1)">
      <defs>
       <path id="DejaVuSans-66" d="M 2375 4863 
L 2375 4384 
L 1825 4384 
Q 1516 4384 1395 4259 
Q 1275 4134 1275 3809 
L 1275 3500 
L 2222 3500 
L 2222 3053 
L 1275 3053 
L 1275 0 
L 697 0 
L 697 3053 
L 147 3053 
L 147 3500 
L 697 3500 
L 697 3744 
Q 697 4328 969 4595 
Q 1241 4863 1831 4863 
L 2375 4863 
z
" transform="scale(0.015625)"/>
       <path id="DejaVuSans-6b" d="M 581 4863 
L 1159 4863 
L 1159 1991 
L 2875 3500 
L 3609 3500 
L 1753 1863 
L 3688 0 
L 2938 0 
L 1159 1709 
L 1159 0 
L 581 0 
L 581 4863 
z
" transform="scale(0.015625)"/>
      </defs>
      <use xlink:href="#DejaVuSans-66"/>
      <use xlink:href="#DejaVuSans-6f" transform="translate(35.205078 0)"/>
      <use xlink:href="#DejaVuSans-72" transform="translate(96.386719 0)"/>
      <use xlink:href="#DejaVuSans-6b" transform="translate(137.5 0)"/>
     </g>
    </g>
   </g>
  </g>
 </g>
 <defs>
  <clipPath id="p53e009e76a">
   <rect x="108" y="43.2" width="669.6" height="277.2"/>
  </clipPath>
 </defs>
</svg>
