<?xml version="1.0" encoding="utf-8" standalone="no"?>
<!DOCTYPE svg PUBLIC "-//W3C//DTD SVG 1.1//EN"
  "http://www.w3.org/Graphics/SVG/1.1/DTD/svg11.dtd">
<svg xmlns:xlink="http://www.w3.org/1999/xlink" width="864pt" height="360pt" viewBox="0 0 864 360" xmlns="http://www.w3.org/2000/svg" version="1.1">
 <metadata>
  <rdf:RDF xmlns:dc="http://purl.org/dc/elements/1.1/" xmlns:cc="http://creativecommons.org/ns#" xmlns:rdf="http://www.w3.org/1999/02/22-rdf-syntax-ns#">
   <cc:Work>
    <dc:type rdf:resource="http://purl.org/dc/dcmitype/StillImage"/>
    <dc:date>2026-03-11T08:19:52.124409</dc:date>
    <dc:format>image/svg+xml</dc:format>
    <dc:creator>
     <cc:Agent>
      <dc:title>Matplotlib v3.10.8, https://matplotlib.org/</dc:title>
     </cc:Agent>
    </dc:creator>
   </cc:Work>
  </rdf:RDF>
 </metadata>
 <defs>
  <style type="text/css">*{stroke-linejoin: round; stroke-linecap: butt}</style>
 </defs>
 <g id="figure_1">
  <g id="patch_1">
   <path d="M 0 360 
L 864 360 
L 864 0 
L 0 0 
L 0 360 
z
" style="fill: none; opacity: 0"/>
  </g>
  <g id="axes_1">
   <g id="patch_2">
    <path d="M 108 320.4 
L 777.6 320.4 
L 777.6 43.2 
L 108 43.2 
L 108 320.4 
z
" style="fill: none; opacity: 0"/>
   </g>
   <g id="matplotlib.axis_1">
    <g id="xtick_1">
     <g id="line2d_1">
      <path d="M 196.393248 320.4 
L 196.393248 43.2 
" clip-path="url(#p0dc1887cca)" style="fill: none; stroke-dasharray: 5.12,1.28,0.8,1.28; stroke-dashoffset: 0; stroke: #b0b0b0; stroke-width: 0.8"/>
     </g>
     <g id="line2d_2">
      <defs>
       <path id="mb1ea110688" d="M 0 0 
L 0 3.5 
" style="stroke: #a9a9a9; stroke-width: 0.8"/>
      </defs>
      <g>
       <use xlink:href="#mb1ea110688" x="196.393248" y="320.4" style="fill: #a9a9a9; stroke: #a9a9a9; stroke-width: 0.8"/>
      </g>
     </g>
     <g id="text_1">
      <!-- 2022 -->
      <g style="fill: #a9a9a9" transform="translate(183.668248 334.998438) scale(0.1 -0.1)">
       <defs>
        <path id="DejaVuSans-32" d="M 1228 531 
L 3431 531 
L 3431 0 
L 469 0 
L 469 531 
Q 828 903 1448 1529 
Q 2069 2156 2228 2338 
Q 2531 2678 2651 2914 
Q 2772 3150 2772 3378 
Q 2772 3750 2511 3984 
Q 2250 4219 1831 4219 
Q 1534 4219 1204 4116 
Q 875 4013 500 3803 
L 500 4441 
Q 881 4594 1212 4672 
Q 1544 4750 1819 4750 
Q 2544 4750 2975 4387 
Q 3406 4025 3406 3419 
Q 3406 3131 3298 2873 
Q 3191 2616 2906 2266 
Q 2828 2175 2409 1742 
Q 1991 1309 1228 531 
z
" transform="scale(0.015625)"/>
        <path id="DejaVuSans-30" d="M 2034 4250 
Q 1547 4250 1301 3770 
Q 1056 3291 1056 2328 
Q 1056 1369 1301 889 
Q 1547 409 2034 409 
Q 2525 409 2770 889 
Q 3016 1369 3016 2328 
Q 3016 3291 2770 3770 
Q 2525 4250 2034 4250 
z
M 2034 4750 
Q 2819 4750 3233 4129 
Q 3647 3509 3647 2328 
Q 3647 1150 3233 529 
Q 2819 -91 2034 -91 
Q 1250 -91 836 529 
Q 422 1150 422 2328 
Q 422 3509 836 4129 
Q 1250 4750 2034 4750 
z
" transform="scale(0.015625)"/>
       </defs>
       <use xlink:href="#DejaVuSans-32"/>
       <use xlink:href="#DejaVuSans-30" transform="translate(63.623047 0)"/>
       <use xlink:href="#DejaVuSans-32" transform="translate(127.246094 0)"/>
       <use xlink:href="#DejaVuSans-32" transform="translate(190.869141 0)"/>
      </g>
     </g>
    </g>
    <g id="xtick_2">
     <g id="line2d_3">
      <path d="M 327.786184 320.4 
L 327.786184 43.2 
" clip-path="url(#p0dc1887cca)" style="fill: none; stroke-dasharray: 5.12,1.28,0.8,1.28; stroke-dashoffset: 0; stroke: #b0b0b0; stroke-width: 0.8"/>
     </g>
     <g id="line2d_4">
      <g>
       <use xlink:href="#mb1ea110688" x="327.786184" y="320.4" style="fill: #a9a9a9; stroke: #a9a9a9; stroke-width: 0.8"/>
      </g>
     </g>
     <g id="text_2">
      <!-- 2023 -->
      <g style="fill: #a9a9a9" transform="translate(315.061184 334.998438) scale(0.1 -0.1)">
       <defs>
        <path id="DejaVuSans-33" d="M 2597 2516 
Q 3050 2419 3304 2112 
Q 3559 1806 3559 1356 
Q 3559 666 3084 287 
Q 2609 -91 1734 -91 
Q 1441 -91 1130 -33 
Q 819 25 488 141 
L 488 750 
Q 750 597 1062 519 
Q 1375 441 1716 441 
Q 2309 441 2620 675 
Q 2931 909 2931 1356 
Q 2931 1769 2642 2001 
Q 2353 2234 1838 2234 
L 1294 2234 
L 1294 2753 
L 1863 2753 
Q 2328 2753 2575 2939 
Q 2822 3125 2822 3475 
Q 2822 3834 2567 4026 
Q 2313 4219 1838 4219 
Q 1578 4219 1281 4162 
Q 984 4106 628 3988 
L 628 4550 
Q 988 4650 1302 4700 
Q 1616 4750 1894 4750 
Q 2613 4750 3031 4423 
Q 3450 4097 3450 3541 
Q 3450 3153 3228 2886 
Q 3006 2619 2597 2516 
z
" transform="scale(0.015625)"/>
       </defs>
       <use xlink:href="#DejaVuSans-32"/>
       <use xlink:href="#DejaVuSans-30" transform="translate(63.623047 0)"/>
       <use xlink:href="#DejaVuSans-32" transform="translate(127.246094 0)"/>
       <use xlink:href="#DejaVuSans-33" transform="translate(190.869141 0)"/>
      </g>
     </g>
    </g>
    <g id="xtick_3">
     <g id="line2d_5">
      <path d="M 459.179119 320.4 
L 459.179119 43.2 
" clip-path="url(#p0dc1887cca)" style="fill: none; stroke-dasharray: 5.12,1.28,0.8,1.28; stroke-dashoffset: 0; stroke: #b0b0b0; stroke-width: 0.8"/>
     </g>
     <g id="line2d_6">
      <g>
       <use xlink:href="#mb1ea110688" x="459.179119" y="320.4" style="fill: #a9a9a9; stroke: #a9a9a9; stroke-width: 0.8"/>
      </g>
     </g>
     <g id="text_3">
      <!-- 2024 -->
      <g style="fill: #a9a9a9" transform="translate(446.454119 334.998438) scale(0.1 -0.1)">
       <defs>
        <path id="DejaVuSans-34" d="M 2419 4116 
L 825 1625 
L 2419 1625 
L 2419 4116 
z
M 2253 4666 
L 3047 4666 
L 3047 1625 
L 3713 1625 
L 3713 1100 
L 3047 1100 
L 3047 0 
L 2419 0 
L 2419 1100 
L 313 1100 
L 313 1709 
L 2253 4666 
z
" transform="scale(0.015625)"/>
       </defs>
       <use xlink:href="#DejaVuSans-32"/>
       <use xlink:href="#DejaVuSans-30" transform="translate(63.623047 0)"/>
       <use xlink:href="#DejaVuSans-32" transform="translate(127.246094 0)"/>
       <use xlink:href="#DejaVuSans-34" transform="translate(190.869141 0)"/>
      </g>
     </g>
    </g>
    <g id="xtick_4">
     <g id="line2d_7">
      <path d="M 590.932036 320.4 
L 590.932036 43.2 
" clip-path="url(#p0dc1887cca)" style="fill: none; stroke-dasharray: 5.12,1.28,0.8,1.28; stroke-dashoffset: 0; stroke: #b0b0b0; stroke-width: 0.8"/>
     </g>
     <g id="line2d_8">
      <g>
       <use xlink:href="#mb1ea110688" x="590.932036" y="320.4" style="fill: #a9a9a9; stroke: #a9a9a9; stroke-width: 0.8"/>
      </g>
     </g>
     <g id="text_4">
      <!-- 2025 -->
      <g style="fill: #a9a9a9" transform="translate(578.207036 334.998438) scale(0.1 -0.1)">
       <defs>
        <path id="DejaVuSans-35" d="M 691 4666 
L 3169 4666 
L 3169 4134 
L 1269 4134 
L 1269 2991 
Q 1406 3038 1543 3061 
Q 1681 3084 1819 3084 
Q 2600 3084 3056 2656 
Q 3513 2228 3513 1497 
Q 3513 744 3044 326 
Q 2575 -91 1722 -91 
Q 1428 -91 1123 -41 
Q 819 9 494 109 
L 494 744 
Q 775 591 1075 516 
Q 1375 441 1709 441 
Q 2250 441 2565 725 
Q 2881 1009 2881 1497 
Q 2881 1984 2565 2268 
Q 2250 2553 1709 2553 
Q 1456 2553 1204 2497 
Q 953 2441 691 2322 
L 691 4666 
z
" transform="scale(0.015625)"/>
       </defs>
       <use xlink:href="#DejaVuSans-32"/>
       <use xlink:href="#DejaVuSans-30" transform="translate(63.623047 0)"/>
       <use xlink:href="#DejaVuSans-32" transform="translate(127.246094 0)"/>
       <use xlink:href="#DejaVuSans-35" transform="translate(190.869141 0)"/>
      </g>
     </g>
    </g>
    <g id="xtick_5">
     <g id="line2d_9">
      <path d="M 722.324972 320.4 
L 722.324972 43.2 
" clip-path="url(#p0dc1887cca)" style="fill: none; stroke-dasharray: 5.12,1.28,0.8,1.28; stroke-dashoffset: 0; stroke: #b0b0b0; stroke-width: 0.8"/>
     </g>
     <g id="line2d_10">
      <g>
       <use xlink:href="#mb1ea110688" x="722.324972" y="320.4" style="fill: #a9a9a9; stroke: #a9a9a9; stroke-width: 0.8"/>
      </g>
     </g>
     <g id="text_5">
      <!-- 2026 -->
      <g style="fill: #a9a9a9" transform="translate(709.599972 334.998438) scale(0.1 -0.1)">
       <defs>
        <path id="DejaVuSans-36" d="M 2113 2584 
Q 1688 2584 1439 2293 
Q 1191 2003 1191 1497 
Q 1191 994 1439 701 
Q 1688 409 2113 409 
Q 2538 409 2786 701 
Q 3034 994 3034 1497 
Q 3034 2003 2786 2293 
Q 2538 2584 2113 2584 
z
M 3366 4563 
L 3366 3988 
Q 3128 4100 2886 4159 
Q 2644 4219 2406 4219 
Q 1781 4219 1451 3797 
Q 1122 3375 1075 2522 
Q 1259 2794 1537 2939 
Q 1816 3084 2150 3084 
Q 2853 3084 3261 2657 
Q 3669 2231 3669 1497 
Q 3669 778 3244 343 
Q 2819 -91 2113 -91 
Q 1303 -91 875 529 
Q 447 1150 447 2328 
Q 447 3434 972 4092 
Q 1497 4750 2381 4750 
Q 2619 4750 2861 4703 
Q 3103 4656 3366 4563 
z
" transform="scale(0.015625)"/>
       </defs>
       <use xlink:href="#DejaVuSans-32"/>
       <use xlink:href="#DejaVuSans-30" transform="translate(63.623047 0)"/>
       <use xlink:href="#DejaVuSans-32" transform="translate(127.246094 0)"/>
       <use xlink:href="#DejaVuSans-36" transform="translate(190.869141 0)"/>
      </g>
     </g>
    </g>
   </g>
   <g id="matplotlib.axis_2">
    <g id="ytick_1">
     <g id="line2d_11">
      <path d="M 108 307.828803 
L 777.6 307.828803 
" clip-path="url(#p0dc1887cca)" style="fill: none; stroke-dasharray: 5.12,1.28,0.8,1.28; stroke-dashoffset: 0; stroke: #b0b0b0; stroke-width: 0.8"/>
     </g>
     <g id="line2d_12">
      <defs>
       <path id="m5680988f08" d="M 0 0 
L -3.5 0 
" style="stroke: #a9a9a9; stroke-width: 0.8"/>
      </defs>
      <g>
       <use xlink:href="#m5680988f08" x="108" y="307.828803" style="fill: #a9a9a9; stroke: #a9a9a9; stroke-width: 0.8"/>
      </g>
     </g>
     <g id="text_6">
      <!-- 0 -->
      <g style="fill: #a9a9a9" transform="translate(94.6375 311.628022) scale(0.1 -0.1)">
       <use xlink:href="#DejaVuSans-30"/>
      </g>
     </g>
    </g>
    <g id="ytick_2">
     <g id="line2d_13">
      <path d="M 108 279.025511 
L 777.6 279.025511 
" clip-path="url(#p0dc1887cca)" style="fill: none; stroke-dasharray: 5.12,1.28,0.8,1.28; stroke-dashoffset: 0; stroke: #b0b0b0; stroke-width: 0.8"/>
     </g>
     <g id="line2d_14">
      <g>
       <use xlink:href="#m5680988f08" x="108" y="279.025511" style="fill: #a9a9a9; stroke: #a9a9a9; stroke-width: 0.8"/>
      </g>
     </g>
     <g id="text_7">
      <!-- 1000 -->
      <g style="fill: #a9a9a9" transform="translate(75.55 282.82473) scale(0.1 -0.1)">
       <defs>
        <path id="DejaVuSans-31" d="M 794 531 
L 1825 531 
L 1825 4091 
L 703 3866 
L 703 4441 
L 1819 4666 
L 2450 4666 
L 2450 531 
L 3481 531 
L 3481 0 
L 794 0 
L 794 531 
z
" transform="scale(0.015625)"/>
       </defs>
       <use xlink:href="#DejaVuSans-31"/>
       <use xlink:href="#DejaVuSans-30" transform="translate(63.623047 0)"/>
       <use xlink:href="#DejaVuSans-30" transform="translate(127.246094 0)"/>
       <use xlink:href="#DejaVuSans-30" transform="translate(190.869141 0)"/>
      </g>
     </g>
    </g>
    <g id="ytick_3">
     <g id="line2d_15">
      <path d="M 108 250.22222 
L 777.6 250.22222 
" clip-path="url(#p0dc1887cca)" style="fill: none; stroke-dasharray: 5.12,1.28,0.8,1.28; stroke-dashoffset: 0; stroke: #b0b0b0; stroke-width: 0.8"/>
     </g>
     <g id="line2d_16">
      <g>
       <use xlink:href="#m5680988f08" x="108" y="250.22222" style="fill: #a9a9a9; stroke: #a9a9a9; stroke-width: 0.8"/>
      </g>
     </g>
     <g id="text_8">
      <!-- 2000 -->
      <g style="fill: #a9a9a9" transform="translate(75.55 254.021438) scale(0.1 -0.1)">
       <use xlink:href="#DejaVuSans-32"/>
       <use xlink:href="#DejaVuSans-30" transform="translate(63.623047 0)"/>
       <use xlink:href="#DejaVuSans-30" transform="translate(127.246094 0)"/>
       <use xlink:href="#DejaVuSans-30" transform="translate(190.869141 0)"/>
      </g>
     </g>
    </g>
    <g id="ytick_4">
     <g id="line2d_17">
      <path d="M 108 221.418928 
L 777.6 221.418928 
" clip-path="url(#p0dc1887cca)" style="fill: none; stroke-dasharray: 5.12,1.28,0.8,1.28; stroke-dashoffset: 0; stroke: #b0b0b0; stroke-width: 0.8"/>
     </g>
     <g id="line2d_18">
      <g>
       <use xlink:href="#m5680988f08" x="108" y="221.418928" style="fill: #a9a9a9; stroke: #a9a9a9; stroke-width: 0.8"/>
      </g>
     </g>
     <g id="text_9">
      <!-- 3000 -->
      <g style="fill: #a9a9a9" transform="translate(75.55 225.218147) scale(0.1 -0.1)">
       <use xlink:href="#DejaVuSans-33"/>
       <use xlink:href="#DejaVuSans-30" transform="translate(63.623047 0)"/>
       <use xlink:href="#DejaVuSans-30" transform="translate(127.246094 0)"/>
       <use xlink:href="#DejaVuSans-30" transform="translate(190.869141 0)"/>
      </g>
     </g>
    </g>
    <g id="ytick_5">
     <g id="line2d_19">
      <path d="M 108 192.615636 
L 777.6 192.615636 
" clip-path="url(#p0dc1887cca)" style="fill: none; stroke-dasharray: 5.12,1.28,0.8,1.28; stroke-dashoffset: 0; stroke: #b0b0b0; stroke-width: 0.8"/>
     </g>
     <g id="line2d_20">
      <g>
       <use xlink:href="#m5680988f08" x="108" y="192.615636" style="fill: #a9a9a9; stroke: #a9a9a9; stroke-width: 0.8"/>
      </g>
     </g>
     <g id="text_10">
      <!-- 4000 -->
      <g style="fill: #a9a9a9" transform="translate(75.55 196.414855) scale(0.1 -0.1)">
       <use xlink:href="#DejaVuSans-34"/>
       <use xlink:href="#DejaVuSans-30" transform="translate(63.623047 0)"/>
       <use xlink:href="#DejaVuSans-30" transform="translate(127.246094 0)"/>
       <use xlink:href="#DejaVuSans-30" transform="translate(190.869141 0)"/>
      </g>
     </g>
    </g>
    <g id="ytick_6">
     <g id="line2d_21">
      <path d="M 108 163.812344 
L 777.6 163.812344 
" clip-path="url(#p0dc1887cca)" style="fill: none; stroke-dasharray: 5.12,1.28,0.8,1.28; stroke-dashoffset: 0; stroke: #b0b0b0; stroke-width: 0.8"/>
     </g>
     <g id="line2d_22">
      <g>
       <use xlink:href="#m5680988f08" x="108" y="163.812344" style="fill: #a9a9a9; stroke: #a9a9a9; stroke-width: 0.8"/>
      </g>
     </g>
     <g id="text_11">
      <!-- 5000 -->
      <g style="fill: #a9a9a9" transform="translate(75.55 167.611563) scale(0.1 -0.1)">
       <use xlink:href="#DejaVuSans-35"/>
       <use xlink:href="#DejaVuSans-30" transform="translate(63.623047 0)"/>
       <use xlink:href="#DejaVuSans-30" transform="translate(127.246094 0)"/>
       <use xlink:href="#DejaVuSans-30" transform="translate(190.869141 0)"/>
      </g>
     </g>
    </g>
    <g id="ytick_7">
     <g id="line2d_23">
      <path d="M 108 135.009052 
L 777.6 135.009052 
" clip-path="url(#p0dc1887cca)" style="fill: none; stroke-dasharray: 5.12,1.28,0.8,1.28; stroke-dashoffset: 0; stroke: #b0b0b0; stroke-width: 0.8"/>
     </g>
     <g id="line2d_24">
      <g>
       <use xlink:href="#m5680988f08" x="108" y="135.009052" style="fill: #a9a9a9; stroke: #a9a9a9; stroke-width: 0.8"/>
      </g>
     </g>
     <g id="text_12">
      <!-- 6000 -->
      <g style="fill: #a9a9a9" transform="translate(75.55 138.808271) scale(0.1 -0.1)">
       <use xlink:href="#DejaVuSans-36"/>
       <use xlink:href="#DejaVuSans-30" transform="translate(63.623047 0)"/>
       <use xlink:href="#DejaVuSans-30" transform="translate(127.246094 0)"/>
       <use xlink:href="#DejaVuSans-30" transform="translate(190.869141 0)"/>
      </g>
     </g>
    </g>
    <g id="ytick_8">
     <g id="line2d_25">
      <path d="M 108 106.205761 
L 777.6 106.205761 
" clip-path="url(#p0dc1887cca)" style="fill: none; stroke-dasharray: 5.12,1.28,0.8,1.28; stroke-dashoffset: 0; stroke: #b0b0b0; stroke-width: 0.8"/>
     </g>
     <g id="line2d_26">
      <g>
       <use xlink:href="#m5680988f08" x="108" y="106.205761" style="fill: #a9a9a9; stroke: #a9a9a9; stroke-width: 0.8"/>
      </g>
     </g>
     <g id="text_13">
      <!-- 7000 -->
      <g style="fill: #a9a9a9" transform="translate(75.55 110.004979) scale(0.1 -0.1)">
       <defs>
        <path id="DejaVuSans-37" d="M 525 4666 
L 3525 4666 
L 3525 4397 
L 1831 0 
L 1172 0 
L 2766 4134 
L 525 4134 
L 525 4666 
z
" transform="scale(0.015625)"/>
       </defs>
       <use xlink:href="#DejaVuSans-37"/>
       <use xlink:href="#DejaVuSans-30" transform="translate(63.623047 0)"/>
       <use xlink:href="#DejaVuSans-30" transform="translate(127.246094 0)"/>
       <use xlink:href="#DejaVuSans-30" transform="translate(190.869141 0)"/>
      </g>
     </g>
    </g>
    <g id="ytick_9">
     <g id="line2d_27">
      <path d="M 108 77.402469 
L 777.6 77.402469 
" clip-path="url(#p0dc1887cca)" style="fill: none; stroke-dasharray: 5.12,1.28,0.8,1.28; stroke-dashoffset: 0; stroke: #b0b0b0; stroke-width: 0.8"/>
     </g>
     <g id="line2d_28">
      <g>
       <use xlink:href="#m5680988f08" x="108" y="77.402469" style="fill: #a9a9a9; stroke: #a9a9a9; stroke-width: 0.8"/>
      </g>
     </g>
     <g id="text_14">
      <!-- 8000 -->
      <g style="fill: #a9a9a9" transform="translate(75.55 81.201688) scale(0.1 -0.1)">
       <defs>
        <path id="DejaVuSans-38" d="M 2034 2216 
Q 1584 2216 1326 1975 
Q 1069 1734 1069 1313 
Q 1069 891 1326 650 
Q 1584 409 2034 409 
Q 2484 409 2743 651 
Q 3003 894 3003 1313 
Q 3003 1734 2745 1975 
Q 2488 2216 2034 2216 
z
M 1403 2484 
Q 997 2584 770 2862 
Q 544 3141 544 3541 
Q 544 4100 942 4425 
Q 1341 4750 2034 4750 
Q 2731 4750 3128 4425 
Q 3525 4100 3525 3541 
Q 3525 3141 3298 2862 
Q 3072 2584 2669 2484 
Q 3125 2378 3379 2068 
Q 3634 1759 3634 1313 
Q 3634 634 3220 271 
Q 2806 -91 2034 -91 
Q 1263 -91 848 271 
Q 434 634 434 1313 
Q 434 1759 690 2068 
Q 947 2378 1403 2484 
z
M 1172 3481 
Q 1172 3119 1398 2916 
Q 1625 2713 2034 2713 
Q 2441 2713 2670 2916 
Q 2900 3119 2900 3481 
Q 2900 3844 2670 4047 
Q 2441 4250 2034 4250 
Q 1625 4250 1398 4047 
Q 1172 3844 1172 3481 
z
" transform="scale(0.015625)"/>
       </defs>
       <use xlink:href="#DejaVuSans-38"/>
       <use xlink:href="#DejaVuSans-30" transform="translate(63.623047 0)"/>
       <use xlink:href="#DejaVuSans-30" transform="translate(127.246094 0)"/>
       <use xlink:href="#DejaVuSans-30" transform="translate(190.869141 0)"/>
      </g>
     </g>
    </g>
    <g id="ytick_10">
     <g id="line2d_29">
      <path d="M 108 48.599177 
L 777.6 48.599177 
" clip-path="url(#p0dc1887cca)" style="fill: none; stroke-dasharray: 5.12,1.28,0.8,1.28; stroke-dashoffset: 0; stroke: #b0b0b0; stroke-width: 0.8"/>
     </g>
     <g id="line2d_30">
      <g>
       <use xlink:href="#m5680988f08" x="108" y="48.599177" style="fill: #a9a9a9; stroke: #a9a9a9; stroke-width: 0.8"/>
      </g>
     </g>
     <g id="text_15">
      <!-- 9000 -->
      <g style="fill: #a9a9a9" transform="translate(75.55 52.398396) scale(0.1 -0.1)">
       <defs>
        <path id="DejaVuSans-39" d="M 703 97 
L 703 672 
Q 941 559 1184 500 
Q 1428 441 1663 441 
Q 2288 441 2617 861 
Q 2947 1281 2994 2138 
Q 2813 1869 2534 1725 
Q 2256 1581 1919 1581 
Q 1219 1581 811 2004 
Q 403 2428 403 3163 
Q 403 3881 828 4315 
Q 1253 4750 1959 4750 
Q 2769 4750 3195 4129 
Q 3622 3509 3622 2328 
Q 3622 1225 3098 567 
Q 2575 -91 1691 -91 
Q 1453 -91 1209 -44 
Q 966 3 703 97 
z
M 1959 2075 
Q 2384 2075 2632 2365 
Q 2881 2656 2881 3163 
Q 2881 3666 2632 3958 
Q 2384 4250 1959 4250 
Q 1534 4250 1286 3958 
Q 1038 3666 1038 3163 
Q 1038 2656 1286 2365 
Q 1534 2075 1959 2075 
z
" transform="scale(0.015625)"/>
       </defs>
       <use xlink:href="#DejaVuSans-39"/>
       <use xlink:href="#DejaVuSans-30" transform="translate(63.623047 0)"/>
       <use xlink:href="#DejaVuSans-30" transform="translate(127.246094 0)"/>
       <use xlink:href="#DejaVuSans-30" transform="translate(190.869141 0)"/>
      </g>
     </g>
    </g>
   </g>
   <g id="line2d_31">
    <path d="M 138.436364 307.742393 
L 140.596248 307.54077 
L 140.956228 307.367951 
L 142.396151 307.166328 
L 143.836073 306.849491 
L 144.556035 306.734278 
L 146.355938 306.561458 
L 147.075899 306.273426 
L 147.43588 305.754966 
L 147.79586 305.495737 
L 148.155841 304.631638 
L 148.515822 304.574031 
L 149.235783 304.113179 
L 149.955744 303.565916 
L 151.395667 302.471391 
L 151.755648 302.327375 
L 152.475609 301.866522 
L 153.555551 301.319259 
L 153.915531 300.685587 
L 154.635493 300.109521 
L 155.355454 299.879095 
L 156.435396 299.706275 
L 158.59528 299.360636 
L 158.95526 299.187816 
L 161.475125 298.957389 
L 162.915048 298.582947 
L 165.794893 298.150897 
L 166.154873 297.949274 
L 166.514854 297.891668 
L 167.234815 297.632438 
L 169.75468 297.171585 
L 170.474641 296.941159 
L 173.714467 296.365093 
L 174.434428 296.192273 
L 175.874351 295.99065 
L 176.594312 295.760224 
L 176.954293 295.212961 
L 178.034235 294.752109 
L 179.114177 294.435273 
L 179.474157 294.23365 
L 180.194119 294.089633 
L 181.994022 293.62878 
L 183.073964 293.369551 
L 184.513886 292.995108 
L 184.873867 292.966305 
L 185.593828 292.591862 
L 185.953809 292.534255 
L 186.31379 292.332632 
L 190.993538 291.497337 
L 192.433461 290.834861 
L 193.153422 290.633238 
L 193.873383 290.316402 
L 194.593344 289.769139 
L 195.673286 289.538713 
L 203.592861 287.06163 
L 203.952841 287.032827 
L 205.032783 286.687187 
L 205.392764 286.687187 
L 205.752744 286.514367 
L 206.472706 286.427957 
L 206.832686 286.283941 
L 208.63259 286.197531 
L 208.99257 286.111121 
L 209.712532 285.707875 
L 210.792474 285.304629 
L 211.512435 284.901383 
L 212.592377 284.411727 
L 214.032299 283.662841 
L 214.39228 283.259595 
L 215.112241 282.049857 
L 216.192183 281.704218 
L 216.552164 281.416185 
L 217.632106 281.012939 
L 217.992086 280.638496 
L 219.072028 280.177643 
L 219.432009 279.97602 
L 221.591893 277.354921 
L 222.311854 277.009281 
L 223.751777 275.972363 
L 224.471738 275.453903 
L 224.831719 274.906641 
L 225.191699 274.013739 
L 225.55168 273.437673 
L 229.151486 270.125294 
L 229.871448 269.405212 
L 231.31137 268.4259 
L 231.671351 268.080261 
L 232.391312 267.849834 
L 233.471254 267.187359 
L 234.551196 266.40967 
L 235.991119 264.998308 
L 236.71108 264.681472 
L 237.431041 264.163013 
L 237.791022 263.932587 
L 238.151003 263.87498 
L 239.230945 263.212504 
L 239.590925 262.780455 
L 241.390828 261.714733 
L 241.750809 261.570717 
L 242.830751 260.764224 
L 248.230461 258.690387 
L 248.950422 257.970305 
L 250.030364 257.394239 
L 250.750325 256.904583 
L 251.470287 256.674157 
L 251.830267 256.414927 
L 252.190248 256.299714 
L 253.27019 255.522025 
L 255.070093 255.089976 
L 256.150035 254.398697 
L 257.229977 254.139467 
L 257.589958 254.053057 
L 258.669899 253.246565 
L 260.109822 252.814516 
L 260.469803 252.526483 
L 262.629687 251.719991 
L 263.349648 251.575974 
L 264.069609 251.259138 
L 266.589474 250.279826 
L 267.309435 250.193416 
L 268.749358 249.617351 
L 272.709145 247.51471 
L 273.429106 247.169071 
L 274.149067 246.823431 
L 274.869029 246.679415 
L 275.58899 246.218562 
L 276.308951 246.016939 
L 277.388893 245.556086 
L 278.828816 245.354463 
L 279.548777 244.951217 
L 279.908758 244.605578 
L 280.268738 243.914299 
L 281.708661 243.482249 
L 283.148583 242.79097 
L 286.388409 241.264396 
L 287.108371 241.091576 
L 288.188312 240.51551 
L 288.548293 240.457904 
L 290.348196 239.507395 
L 291.068158 239.017739 
L 292.1481 238.787313 
L 295.387925 237.635181 
L 296.827848 237.001509 
L 297.187829 236.713476 
L 297.90779 236.31023 
L 298.627751 236.022197 
L 298.987732 235.935787 
L 300.427654 235.158098 
L 300.787635 234.754852 
L 301.147616 234.524426 
L 301.507596 234.438016 
L 302.227558 233.804343 
L 302.587538 233.746737 
L 302.947519 233.113064 
L 303.3075 232.969048 
L 303.66748 232.652212 
L 304.027461 232.594605 
L 304.747422 232.104949 
L 305.467383 231.84572 
L 305.827364 231.557687 
L 306.547325 231.154441 
L 307.987248 230.232735 
L 310.147132 229.22462 
L 310.507113 228.562144 
L 311.227074 227.986078 
L 311.587054 227.899669 
L 313.746938 226.805143 
L 314.4669 226.488307 
L 315.186861 225.941045 
L 315.906822 225.163356 
L 317.706725 223.751995 
L 318.426687 223.147125 
L 318.786667 222.974306 
L 319.506629 222.196617 
L 320.586571 221.678158 
L 321.306532 221.246108 
L 321.666513 221.130895 
L 322.026493 220.842862 
L 322.386474 220.785255 
L 325.6263 219.057058 
L 326.346261 218.855435 
L 327.786184 218.336976 
L 328.506145 217.84732 
L 329.946067 217.300057 
L 330.666029 216.839204 
L 331.38599 216.551172 
L 332.105951 216.003909 
L 332.825913 214.477335 
L 333.545874 213.613236 
L 334.625816 213.008367 
L 335.345777 212.69153 
L 335.705758 212.633924 
L 336.425719 212.288284 
L 338.225622 211.625809 
L 338.945584 211.136153 
L 340.025526 210.6753 
L 341.825429 209.551972 
L 342.54539 208.860693 
L 343.625332 208.31343 
L 343.985313 208.025397 
L 344.705274 207.650954 
L 346.865158 206.556429 
L 347.585119 206.354806 
L 348.665061 206.009167 
L 350.104984 205.317888 
L 352.984829 203.877723 
L 353.70479 203.474477 
L 354.064771 203.301657 
L 354.784732 202.696788 
L 355.504693 202.495165 
L 355.864674 202.149526 
L 356.224655 202.091919 
L 356.944616 201.515853 
L 358.744519 200.392525 
L 359.46448 200.162099 
L 359.824461 199.931672 
L 360.184442 199.874066 
L 362.344326 198.923557 
L 366.664093 197.540999 
L 367.744035 196.76331 
L 368.463997 196.360064 
L 369.903919 195.639982 
L 370.983861 194.891096 
L 371.703822 194.718276 
L 372.783764 194.026997 
L 376.02359 192.874866 
L 376.743551 192.615636 
L 378.183474 192.2988 
L 378.903435 192.068374 
L 380.703339 191.434701 
L 381.78328 191.089062 
L 382.503242 190.916242 
L 384.663126 190.512996 
L 385.383087 190.368979 
L 386.463029 190.10975 
L 386.82301 189.93693 
L 387.542971 189.792913 
L 388.262932 189.59129 
L 388.982893 189.245651 
L 389.342874 189.101634 
L 389.702855 189.101634 
L 395.102564 187.31583 
L 395.462545 186.912584 
L 397.622429 185.962076 
L 399.062351 185.443616 
L 399.422332 185.21319 
L 400.502274 184.867551 
L 401.942197 184.320288 
L 402.302177 184.003452 
L 403.382119 183.773025 
L 404.102081 183.427386 
L 404.462061 182.966533 
L 408.421848 182.044828 
L 408.781829 182.044828 
L 409.50179 181.814402 
L 412.741616 180.979106 
L 413.461577 180.806286 
L 419.941229 178.64604 
L 420.30121 178.38681 
L 421.021171 178.156384 
L 423.901016 177.119465 
L 424.620977 177.061858 
L 426.0609 176.629809 
L 426.420881 176.399383 
L 427.140842 176.168956 
L 427.860803 175.880924 
L 428.220784 175.592891 
L 428.580764 175.506481 
L 428.940745 175.304858 
L 429.300726 175.276054 
L 433.620494 173.66307 
L 436.860319 172.597348 
L 438.300242 171.358807 
L 440.820106 170.235478 
L 443.339971 169.11215 
L 444.059932 168.910527 
L 447.299758 167.268739 
L 448.019719 166.83669 
L 451.259545 165.223706 
L 451.619526 164.935673 
L 453.419429 164.244394 
L 455.939294 163.293885 
L 456.659255 163.207475 
L 457.019236 162.948246 
L 458.459158 162.660213 
L 459.179119 162.343376 
L 460.979023 161.450474 
L 465.658771 159.290227 
L 466.738713 158.915785 
L 467.098694 158.656555 
L 467.818655 158.570145 
L 468.178636 158.339719 
L 468.898597 158.224506 
L 473.578345 156.467505 
L 474.658287 156.208275 
L 476.09821 155.574603 
L 476.818171 155.171357 
L 478.258094 154.393668 
L 478.978055 154.220848 
L 479.338036 153.990422 
L 479.698016 153.932815 
L 481.497919 153.01111 
L 486.177668 151.196502 
L 486.537649 151.138896 
L 487.977571 150.418814 
L 488.697532 150.274797 
L 489.417494 149.842748 
L 490.857416 149.122665 
L 497.337068 146.559172 
L 498.77699 145.320631 
L 499.856932 144.888582 
L 502.376797 143.621237 
L 502.736778 143.362007 
L 503.456739 143.160384 
L 504.1767 142.757138 
L 505.256642 142.497908 
L 511.016332 140.078432 
L 512.816236 139.329546 
L 514.97612 138.523054 
L 516.776023 137.601349 
L 517.495984 137.370922 
L 517.855965 137.025283 
L 518.935907 136.593234 
L 519.295887 136.535627 
L 520.73581 135.844348 
L 521.815752 135.498708 
L 522.895694 135.095462 
L 523.975636 134.778626 
L 524.335616 134.72102 
L 525.055578 134.317773 
L 525.415558 134.173757 
L 525.775539 133.885724 
L 526.855481 133.597691 
L 527.575442 133.309658 
L 528.295403 132.992822 
L 529.735326 132.387953 
L 532.255191 131.75428 
L 532.975152 131.466248 
L 534.415074 131.178215 
L 535.135036 131.034198 
L 536.214978 130.602149 
L 537.29492 130.371722 
L 539.454804 129.046771 
L 540.534745 128.413099 
L 542.694629 127.72182 
L 543.05461 127.433787 
L 545.934455 126.396868 
L 547.014397 126.051229 
L 547.734358 125.647983 
L 548.45432 125.44636 
L 548.8143 125.244737 
L 549.534262 125.10072 
L 551.334165 124.265425 
L 552.054126 123.977392 
L 553.494049 123.401326 
L 553.854029 123.055686 
L 554.21401 122.99808 
L 555.653933 122.393211 
L 557.093855 122.018768 
L 557.453836 121.989965 
L 557.813816 121.817145 
L 558.533778 121.673128 
L 561.773604 120.665013 
L 562.493565 120.088947 
L 563.933487 119.253652 
L 564.293468 119.167242 
L 564.653449 118.965619 
L 565.013429 118.908012 
L 568.253255 117.295028 
L 568.613236 116.978192 
L 570.413139 116.546142 
L 571.493081 116.056486 
L 572.213042 115.854863 
L 572.573023 115.682044 
L 572.933004 115.365207 
L 575.452868 114.443502 
L 576.53281 113.953846 
L 576.892791 113.925043 
L 577.612752 113.63701 
L 579.052675 113.003338 
L 581.212558 112.456075 
L 582.2925 111.966419 
L 585.532326 110.900697 
L 586.252288 110.497451 
L 598.491629 106.695417 
L 599.211591 106.493794 
L 600.291533 106.090547 
L 600.651513 106.090547 
L 601.731455 105.831318 
L 602.451417 105.687301 
L 603.171378 105.485678 
L 604.25132 104.909613 
L 605.331262 104.563973 
L 607.851126 103.699874 
L 609.291049 102.950989 
L 611.810913 102.08689 
L 612.170894 101.770054 
L 612.890855 101.539627 
L 613.250836 101.309201 
L 613.970797 101.222791 
L 616.490662 100.502709 
L 617.570604 100.272283 
L 620.450449 99.235364 
L 625.130197 97.420757 
L 625.850159 97.305543 
L 626.57012 97.161527 
L 626.930101 97.161527 
L 628.010042 96.815888 
L 629.089984 96.470248 
L 631.96983 95.634953 
L 633.409752 95.318116 
L 633.769733 95.08769 
L 634.489694 94.943674 
L 635.929617 94.655641 
L 637.009559 94.137181 
L 638.089501 93.877952 
L 638.809462 93.561116 
L 640.969346 92.783427 
L 641.329326 92.72582 
L 642.049288 92.46659 
L 646.369055 91.343262 
L 648.528939 90.594377 
L 649.248901 90.53677 
L 651.408784 89.989507 
L 652.128746 89.672671 
L 652.488726 89.615065 
L 652.848707 89.442245 
L 653.568668 88.808572 
L 656.808494 87.541228 
L 657.528455 87.426014 
L 660.408301 86.446702 
L 661.488243 85.841833 
L 661.848223 85.755423 
L 662.208204 85.467391 
L 663.288146 85.150554 
L 668.687855 82.644668 
L 670.487759 82.010996 
L 670.847739 81.694159 
L 671.20772 81.607749 
L 671.927681 81.146897 
L 673.007623 80.830061 
L 674.447546 80.225191 
L 674.807526 80.196388 
L 676.60743 79.505109 
L 677.327391 79.361093 
L 678.047352 78.842633 
L 678.407333 78.842633 
L 679.847256 78.324174 
L 681.287178 78.036141 
L 682.727101 77.402469 
L 683.087081 77.402469 
L 684.167023 77.028026 
L 684.886985 76.912813 
L 685.966927 76.27914 
L 686.686888 75.904698 
L 691.726617 74.378123 
L 692.446578 74.205303 
L 693.166539 73.917271 
L 694.246481 73.600434 
L 695.686404 73.081975 
L 697.126327 72.765139 
L 699.646191 72.045057 
L 700.366152 71.90104 
L 703.245998 70.835318 
L 703.965959 70.691302 
L 705.405881 70.432072 
L 706.125843 70.316859 
L 707.565765 69.740793 
L 708.285727 69.53917 
L 709.005688 69.423957 
L 710.44561 68.963104 
L 710.805591 68.963104 
L 711.525552 68.559858 
L 713.325456 68.099006 
L 714.045417 67.839776 
L 714.765378 67.69576 
L 716.925262 66.745251 
L 717.285243 66.687644 
L 718.005204 66.342005 
L 718.725165 66.025169 
L 719.445127 65.708332 
L 720.165088 65.420299 
L 720.525069 65.218676 
L 720.885049 65.16107 
L 721.60501 64.844234 
L 722.684952 64.383381 
L 724.484856 63.605692 
L 724.844836 63.375266 
L 725.204817 63.288856 
L 725.564798 63.05843 
L 725.924778 63.000823 
L 726.64474 62.53997 
L 728.804623 62.021511 
L 729.524585 61.618265 
L 729.884565 61.560658 
L 731.324488 60.984593 
L 736.724198 58.939559 
L 738.16412 58.593919 
L 739.604043 58.4211 
L 740.683985 58.190673 
L 741.043965 58.133067 
L 741.763927 57.672214 
L 742.843869 57.268968 
L 743.56383 57.096148 
L 744.283791 56.952132 
L 745.003752 56.606492 
L 747.163636 55.8 
L 747.163636 55.8 
" clip-path="url(#p0dc1887cca)" style="fill: none; stroke: #1f77b4; stroke-width: 1.5; stroke-linecap: square"/>
   </g>
   <g id="line2d_32">
    <path d="M 138.796344 307.8 
L 142.03617 307.71359 
L 144.916015 307.569574 
L 146.355938 307.569574 
L 147.075899 307.45436 
L 155.715435 306.849491 
L 158.59528 306.763081 
L 160.395183 306.705475 
L 165.074931 306.619065 
L 166.874835 306.561458 
L 170.114661 306.475049 
L 171.554583 306.446245 
L 175.15439 306.359835 
L 176.594312 306.215819 
L 178.034235 306.187016 
L 180.194119 306.100606 
L 181.634041 306.071802 
L 183.433944 306.014196 
L 184.873867 305.870179 
L 188.113693 305.78377 
L 188.833654 305.726163 
L 190.273577 305.639753 
L 192.433461 305.553343 
L 193.873383 305.466933 
L 200.353035 305.034884 
L 202.872899 304.948474 
L 203.952841 304.833261 
L 205.752744 304.746851 
L 209.352551 304.545228 
L 212.952357 304.487621 
L 214.39228 304.343605 
L 216.192183 304.257195 
L 219.79199 303.882752 
L 221.951874 303.594719 
L 223.391796 303.537113 
L 226.271641 303.133867 
L 228.431525 303.07626 
L 229.511467 302.961047 
L 230.591409 302.874637 
L 249.310403 301.463276 
L 251.830267 301.376866 
L 253.27019 301.204046 
L 255.070093 301.117636 
L 257.229977 301.031226 
L 259.02988 300.944817 
L 260.469803 300.916013 
L 262.269706 300.858407 
L 262.989667 300.771997 
L 268.029396 300.685587 
L 268.749358 300.599177 
L 273.069125 300.512767 
L 276.308951 300.339947 
L 278.828816 300.253538 
L 280.268738 300.080718 
L 282.788603 299.994308 
L 283.508564 299.879095 
L 285.308467 299.821488 
L 288.908274 299.763882 
L 290.348196 299.619865 
L 291.788119 299.591062 
L 292.868061 299.504652 
L 294.307983 299.360636 
L 297.90779 299.159012 
L 301.507596 299.072603 
L 304.747422 298.899783 
L 305.827364 298.87098 
L 306.547325 298.755766 
L 308.347229 298.69816 
L 309.06719 298.640553 
L 310.867093 298.554143 
L 312.307016 298.52534 
L 314.82688 298.43893 
L 324.186377 297.776454 
L 326.346261 297.690045 
L 328.146164 297.632438 
L 333.185893 297.546028 
L 333.905855 297.459618 
L 338.945584 297.373208 
L 342.54539 297.171585 
L 343.265351 297.142782 
L 343.985313 297.056372 
L 345.785216 296.969962 
L 347.585119 296.912356 
L 349.385022 296.825946 
L 351.184926 296.768339 
L 354.424751 296.681929 
L 356.584635 296.595519 
L 361.624364 296.50911 
L 365.584151 296.278683 
L 367.024074 296.221077 
L 368.104016 296.134667 
L 373.143745 296.048257 
L 375.303629 295.961847 
L 381.78328 295.875437 
L 383.223203 295.846634 
L 387.542971 295.789027 
L 388.262932 295.731421 
L 393.302661 295.645011 
L 394.742584 295.616208 
L 404.102081 295.529798 
L 406.261964 295.443388 
L 421.381152 295.356978 
L 423.181055 295.299371 
L 433.620494 295.212961 
L 437.580281 294.982535 
L 439.740165 294.896125 
L 441.900048 294.809715 
L 445.499855 294.723306 
L 448.019719 294.608092 
L 450.899565 294.521682 
L 453.77941 294.377666 
L 460.619042 294.291256 
L 462.778926 294.204846 
L 466.738713 294.118436 
L 469.258577 294.003223 
L 471.778442 293.945617 
L 472.498403 293.88801 
L 481.137939 293.8016 
L 484.737745 293.599977 
L 487.25761 293.513567 
L 491.217397 293.283141 
L 495.537165 293.196731 
L 496.977087 293.167928 
L 497.697049 293.110321 
L 499.496952 292.908698 
L 503.096758 292.822288 
L 503.81672 292.735878 
L 507.416526 292.649469 
L 509.216429 292.591862 
L 513.176216 292.563059 
L 513.896178 292.476649 
L 517.855965 292.390239 
L 518.575926 292.332632 
L 526.4955 292.246222 
L 528.655384 292.159813 
L 534.055094 292.073403 
L 535.495016 292.044599 
L 538.734842 292.015796 
L 539.454804 291.929386 
L 544.134552 291.842976 
L 545.934455 291.78537 
L 552.414107 291.69896 
L 553.494049 291.61255 
L 554.573991 291.52614 
L 555.653933 291.43973 
L 561.053642 291.35332 
L 563.213526 291.266911 
L 573.652965 291.180501 
L 576.892791 291.007681 
L 581.93252 290.921271 
L 583.372442 290.892468 
L 587.69221 290.806058 
L 589.492113 290.748451 
L 597.771668 290.662041 
L 599.931552 290.575632 
L 606.051223 290.489222 
L 607.491146 290.460418 
L 611.090952 290.374008 
L 613.610817 290.258795 
L 617.570604 290.172385 
L 620.090468 290.057172 
L 623.330294 289.999566 
L 624.050255 289.941959 
L 631.96983 289.855549 
L 634.129713 289.769139 
L 636.649578 289.682729 
L 638.449481 289.625123 
L 648.88892 289.538713 
L 651.048804 289.452303 
L 657.168475 289.365893 
L 658.968378 289.308287 
L 663.648126 289.221877 
L 665.80801 289.135467 
L 668.687855 289.049057 
L 670.847739 288.962647 
L 685.246965 288.876237 
L 688.12681 288.732221 
L 696.406365 288.645811 
L 697.846288 288.617008 
L 706.485823 288.530598 
L 708.285727 288.472991 
L 719.805107 288.386581 
L 721.24503 288.357778 
L 732.044449 288.271368 
L 732.764411 288.213762 
L 741.763927 288.127352 
L 743.56383 288.069745 
L 747.163636 287.983335 
L 747.163636 287.983335 
" clip-path="url(#p0dc1887cca)" style="fill: none; stroke: #ff7f0e; stroke-width: 1.5; stroke-linecap: square"/>
   </g>
   <g id="patch_3">
    <path d="M 108 320.4 
L 108 43.2 
" style="fill: none; stroke: #a9a9a9; stroke-width: 0.8; stroke-linejoin: miter; stroke-linecap: square"/>
   </g>
   <g id="patch_4">
    <path d="M 777.6 320.4 
L 777.6 43.2 
" style="fill: none"/>
   </g>
   <g id="patch_5">
    <path d="M 108 320.4 
L 777.6 320.4 
" style="fill: none; stroke: #a9a9a9; stroke-width: 0.8; stroke-linejoin: miter; stroke-linecap: square"/>
   </g>
   <g id="patch_6">
    <path d="M 108 43.2 
L 777.6 43.2 
" style="fill: none"/>
   </g>
   <g id="text_16">
    <!-- get_subscribe history -->
    <g style="fill: #a9a9a9" transform="translate(378.6075 37.2) scale(0.12 -0.12)">
     <defs>
      <path id="DejaVuSans-67" d="M 2906 1791 
Q 2906 2416 2648 2759 
Q 2391 3103 1925 3103 
Q 1463 3103 1205 2759 
Q 947 2416 947 1791 
Q 947 1169 1205 825 
Q 1463 481 1925 481 
Q 2391 481 2648 825 
Q 2906 1169 2906 1791 
z
M 3481 434 
Q 3481 -459 3084 -895 
Q 2688 -1331 1869 -1331 
Q 1566 -1331 1297 -1286 
Q 1028 -1241 775 -1147 
L 775 -588 
Q 1028 -725 1275 -790 
Q 1522 -856 1778 -856 
Q 2344 -856 2625 -561 
Q 2906 -266 2906 331 
L 2906 616 
Q 2728 306 2450 153 
Q 2172 0 1784 0 
Q 1141 0 747 490 
Q 353 981 353 1791 
Q 353 2603 747 3093 
Q 1141 3584 1784 3584 
Q 2172 3584 2450 3431 
Q 2728 3278 2906 2969 
L 2906 3500 
L 3481 3500 
L 3481 434 
z
" transform="scale(0.015625)"/>
      <path id="DejaVuSans-65" d="M 3597 1894 
L 3597 1613 
L 953 1613 
Q 991 1019 1311 708 
Q 1631 397 2203 397 
Q 2534 397 2845 478 
Q 3156 559 3463 722 
L 3463 178 
Q 3153 47 2828 -22 
Q 2503 -91 2169 -91 
Q 1331 -91 842 396 
Q 353 884 353 1716 
Q 353 2575 817 3079 
Q 1281 3584 2069 3584 
Q 2775 3584 3186 3129 
Q 3597 2675 3597 1894 
z
M 3022 2063 
Q 3016 2534 2758 2815 
Q 2500 3097 2075 3097 
Q 1594 3097 1305 2825 
Q 1016 2553 972 2059 
L 3022 2063 
z
" transform="scale(0.015625)"/>
      <path id="DejaVuSans-74" d="M 1172 4494 
L 1172 3500 
L 2356 3500 
L 2356 3053 
L 1172 3053 
L 1172 1153 
Q 1172 725 1289 603 
Q 1406 481 1766 481 
L 2356 481 
L 2356 0 
L 1766 0 
Q 1100 0 847 248 
Q 594 497 594 1153 
L 594 3053 
L 172 3053 
L 172 3500 
L 594 3500 
L 594 4494 
L 1172 4494 
z
" transform="scale(0.015625)"/>
      <path id="DejaVuSans-5f" d="M 3263 -1063 
L 3263 -1509 
L -63 -1509 
L -63 -1063 
L 3263 -1063 
z
" transform="scale(0.015625)"/>
      <path id="DejaVuSans-73" d="M 2834 3397 
L 2834 2853 
Q 2591 2978 2328 3040 
Q 2066 3103 1784 3103 
Q 1356 3103 1142 2972 
Q 928 2841 928 2578 
Q 928 2378 1081 2264 
Q 1234 2150 1697 2047 
L 1894 2003 
Q 2506 1872 2764 1633 
Q 3022 1394 3022 966 
Q 3022 478 2636 193 
Q 2250 -91 1575 -91 
Q 1294 -91 989 -36 
Q 684 19 347 128 
L 347 722 
Q 666 556 975 473 
Q 1284 391 1588 391 
Q 1994 391 2212 530 
Q 2431 669 2431 922 
Q 2431 1156 2273 1281 
Q 2116 1406 1581 1522 
L 1381 1569 
Q 847 1681 609 1914 
Q 372 2147 372 2553 
Q 372 3047 722 3315 
Q 1072 3584 1716 3584 
Q 2034 3584 2315 3537 
Q 2597 3491 2834 3397 
z
" transform="scale(0.015625)"/>
      <path id="DejaVuSans-75" d="M 544 1381 
L 544 3500 
L 1119 3500 
L 1119 1403 
Q 1119 906 1312 657 
Q 1506 409 1894 409 
Q 2359 409 2629 706 
Q 2900 1003 2900 1516 
L 2900 3500 
L 3475 3500 
L 3475 0 
L 2900 0 
L 2900 538 
Q 2691 219 2414 64 
Q 2138 -91 1772 -91 
Q 1169 -91 856 284 
Q 544 659 544 1381 
z
M 1991 3584 
L 1991 3584 
z
" transform="scale(0.015625)"/>
      <path id="DejaVuSans-62" d="M 3116 1747 
Q 3116 2381 2855 2742 
Q 2594 3103 2138 3103 
Q 1681 3103 1420 2742 
Q 1159 2381 1159 1747 
Q 1159 1113 1420 752 
Q 1681 391 2138 391 
Q 2594 391 2855 752 
Q 3116 1113 3116 1747 
z
M 1159 2969 
Q 1341 3281 1617 3432 
Q 1894 3584 2278 3584 
Q 2916 3584 3314 3078 
Q 3713 2572 3713 1747 
Q 3713 922 3314 415 
Q 2916 -91 2278 -91 
Q 1894 -91 1617 61 
Q 1341 213 1159 525 
L 1159 0 
L 581 0 
L 581 4863 
L 1159 4863 
L 1159 2969 
z
" transform="scale(0.015625)"/>
      <path id="DejaVuSans-63" d="M 3122 3366 
L 3122 2828 
Q 2878 2963 2633 3030 
Q 2388 3097 2138 3097 
Q 1578 3097 1268 2742 
Q 959 2388 959 1747 
Q 959 1106 1268 751 
Q 1578 397 2138 397 
Q 2388 397 2633 464 
Q 2878 531 3122 666 
L 3122 134 
Q 2881 22 2623 -34 
Q 2366 -91 2075 -91 
Q 1284 -91 818 406 
Q 353 903 353 1747 
Q 353 2603 823 3093 
Q 1294 3584 2113 3584 
Q 2378 3584 2631 3529 
Q 2884 3475 3122 3366 
z
" transform="scale(0.015625)"/>
      <path id="DejaVuSans-72" d="M 2631 2963 
Q 2534 3019 2420 3045 
Q 2306 3072 2169 3072 
Q 1681 3072 1420 2755 
Q 1159 2438 1159 1844 
L 1159 0 
L 581 0 
L 581 3500 
L 1159 3500 
L 1159 2956 
Q 1341 3275 1631 3429 
Q 1922 3584 2338 3584 
Q 2397 3584 2469 3576 
Q 2541 3569 2628 3553 
L 2631 2963 
z
" transform="scale(0.015625)"/>
      <path id="DejaVuSans-69" d="M 603 3500 
L 1178 3500 
L 1178 0 
L 603 0 
L 603 3500 
z
M 603 4863 
L 1178 4863 
L 1178 4134 
L 603 4134 
L 603 4863 
z
" transform="scale(0.015625)"/>
      <path id="DejaVuSans-20" transform="scale(0.015625)"/>
      <path id="DejaVuSans-68" d="M 3513 2113 
L 3513 0 
L 2938 0 
L 2938 2094 
Q 2938 2591 2744 2837 
Q 2550 3084 2163 3084 
Q 1697 3084 1428 2787 
Q 1159 2491 1159 1978 
L 1159 0 
L 581 0 
L 581 4863 
L 1159 4863 
L 1159 2956 
Q 1366 3272 1645 3428 
Q 1925 3584 2291 3584 
Q 2894 3584 3203 3211 
Q 3513 2838 3513 2113 
z
" transform="scale(0.015625)"/>
      <path id="DejaVuSans-6f" d="M 1959 3097 
Q 1497 3097 1228 2736 
Q 959 2375 959 1747 
Q 959 1119 1226 758 
Q 1494 397 1959 397 
Q 2419 397 2687 759 
Q 2956 1122 2956 1747 
Q 2956 2369 2687 2733 
Q 2419 3097 1959 3097 
z
M 1959 3584 
Q 2709 3584 3137 3096 
Q 3566 2609 3566 1747 
Q 3566 888 3137 398 
Q 2709 -91 1959 -91 
Q 1206 -91 779 398 
Q 353 888 353 1747 
Q 353 2609 779 3096 
Q 1206 3584 1959 3584 
z
" transform="scale(0.015625)"/>
      <path id="DejaVuSans-79" d="M 2059 -325 
Q 1816 -950 1584 -1140 
Q 1353 -1331 966 -1331 
L 506 -1331 
L 506 -850 
L 844 -850 
Q 1081 -850 1212 -737 
Q 1344 -625 1503 -206 
L 1606 56 
L 191 3500 
L 800 3500 
L 1894 763 
L 2988 3500 
L 3597 3500 
L 2059 -325 
z
" transform="scale(0.015625)"/>
     </defs>
     <use xlink:href="#DejaVuSans-67"/>
     <use xlink:href="#DejaVuSans-65" transform="translate(63.476562 0)"/>
     <use xlink:href="#DejaVuSans-74" transform="translate(125 0)"/>
     <use xlink:href="#DejaVuSans-5f" transform="translate(164.208984 0)"/>
     <use xlink:href="#DejaVuSans-73" transform="translate(214.208984 0)"/>
     <use xlink:href="#DejaVuSans-75" transform="translate(266.308594 0)"/>
     <use xlink:href="#DejaVuSans-62" transform="translate(329.6875 0)"/>
     <use xlink:href="#DejaVuSans-73" transform="translate(393.164062 0)"/>
     <use xlink:href="#DejaVuSans-63" transform="translate(445.263672 0)"/>
     <use xlink:href="#DejaVuSans-72" transform="translate(500.244141 0)"/>
     <use xlink:href="#DejaVuSans-69" transform="translate(541.357422 0)"/>
     <use xlink:href="#DejaVuSans-62" transform="translate(569.140625 0)"/>
     <use xlink:href="#DejaVuSans-65" transform="translate(632.617188 0)"/>
     <use xlink:href="#DejaVuSans-20" transform="translate(694.140625 0)"/>
     <use xlink:href="#DejaVuSans-68" transform="translate(725.927734 0)"/>
     <use xlink:href="#DejaVuSans-69" transform="translate(789.306641 0)"/>
     <use xlink:href="#DejaVuSans-73" transform="translate(817.089844 0)"/>
     <use xlink:href="#DejaVuSans-74" transform="translate(869.189453 0)"/>
     <use xlink:href="#DejaVuSans-6f" transform="translate(908.398438 0)"/>
     <use xlink:href="#DejaVuSans-72" transform="translate(969.580078 0)"/>
     <use xlink:href="#DejaVuSans-79" transform="translate(1010.693359 0)"/>
    </g>
   </g>
   <g id="legend_1">
    <g id="line2d_33">
     <path d="M 815.08 328.498438 
L 825.08 328.498438 
L 835.08 328.498438 
" style="fill: none; stroke: #1f77b4; stroke-width: 1.5; stroke-linecap: square"/>
    </g>
    <g id="text_17">
     <!-- star -->
     <g style="fill: #a9a9a9" transform="translate(843.08 331.998438) scale(0.1 -0.1)">
      <defs>
       <path id="DejaVuSans-61" d="M 2194 1759 
Q 1497 1759 1228 1600 
Q 959 1441 959 1056 
Q 959 750 1161 570 
Q 1363 391 1709 391 
Q 2188 391 2477 730 
Q 2766 1069 2766 1631 
L 2766 1759 
L 2194 1759 
z
M 3341 1997 
L 3341 0 
L 2766 0 
L 2766 531 
Q 2569 213 2275 61 
Q 1981 -91 1556 -91 
Q 1019 -91 701 211 
Q 384 513 384 1019 
Q 384 1609 779 1909 
Q 1175 2209 1959 2209 
L 2766 2209 
L 2766 2266 
Q 2766 2663 2505 2880 
Q 2244 3097 1772 3097 
Q 1472 3097 1187 3025 
Q 903 2953 641 2809 
L 641 3341 
Q 956 3463 1253 3523 
Q 1550 3584 1831 3584 
Q 2591 3584 2966 3190 
Q 3341 2797 3341 1997 
z
" transform="scale(0.015625)"/>
      </defs>
      <use xlink:href="#DejaVuSans-73"/>
      <use xlink:href="#DejaVuSans-74" transform="translate(52.099609 0)"/>
      <use xlink:href="#DejaVuSans-61" transform="translate(91.308594 0)"/>
      <use xlink:href="#DejaVuSans-72" transform="translate(152.587891 0)"/>
     </g>
    </g>
    <g id="line2d_34">
     <path d="M 815.08 343.176562 
L 825.08 343.176562 
L 835.08 343.176562 
" style="fill: none; stroke: #ff7f0e; stroke-width: 1.5; stroke-linecap: square"/>
    </g>
    <g id="text_18">
     <!-- fork -->
     <g style="fill: #a9a9a9" transform="translate(843.08 346.676562) scale(0.1 -0.1)">
      <defs>
       <path id="DejaVuSans-66" d="M 2375 4863 
L 2375 4384 
L 1825 4384 
Q 1516 4384 1395 4259 
Q 1275 4134 1275 3809 
L 1275 3500 
L 2222 3500 
L 2222 3053 
L 1275 3053 
L 1275 0 
L 697 0 
L 697 3053 
L 147 3053 
L 147 3500 
L 697 3500 
L 697 3744 
Q 697 4328 969 4595 
Q 1241 4863 1831 4863 
L 2375 4863 
z
" transform="scale(0.015625)"/>
       <path id="DejaVuSans-6b" d="M 581 4863 
L 1159 4863 
L 1159 1991 
L 2875 3500 
L 3609 3500 
L 1753 1863 
L 3688 0 
L 2938 0 
L 1159 1709 
L 1159 0 
L 581 0 
L 581 4863 
z
" transform="scale(0.015625)"/>
      </defs>
      <use xlink:href="#DejaVuSans-66"/>
      <use xlink:href="#DejaVuSans-6f" transform="translate(35.205078 0)"/>
      <use xlink:href="#DejaVuSans-72" transform="translate(96.386719 0)"/>
      <use xlink:href="#DejaVuSans-6b" transform="translate(137.5 0)"/>
     </g>
    </g>
   </g>
  </g>
 </g>
 <defs>
  <clipPath id="p0dc1887cca">
   <rect x="108" y="43.2" width="669.6" height="277.2"/>
  </clipPath>
 </defs>
</svg>
