<?xml version="1.0" encoding="utf-8" standalone="no"?>
<!DOCTYPE svg PUBLIC "-//W3C//DTD SVG 1.1//EN"
  "http://www.w3.org/Graphics/SVG/1.1/DTD/svg11.dtd">
<svg xmlns:xlink="http://www.w3.org/1999/xlink" width="864pt" height="360pt" viewBox="0 0 864 360" xmlns="http://www.w3.org/2000/svg" version="1.1">
 <metadata>
  <rdf:RDF xmlns:dc="http://purl.org/dc/elements/1.1/" xmlns:cc="http://creativecommons.org/ns#" xmlns:rdf="http://www.w3.org/1999/02/22-rdf-syntax-ns#">
   <cc:Work>
    <dc:type rdf:resource="http://purl.org/dc/dcmitype/StillImage"/>
    <dc:date>2025-04-15T08:15:23.184791</dc:date>
    <dc:format>image/svg+xml</dc:format>
    <dc:creator>
     <cc:Agent>
      <dc:title>Matplotlib v3.10.1, https://matplotlib.org/</dc:title>
     </cc:Agent>
    </dc:creator>
   </cc:Work>
  </rdf:RDF>
 </metadata>
 <defs>
  <style type="text/css">*{stroke-linejoin: round; stroke-linecap: butt}</style>
 </defs>
 <g id="figure_1">
  <g id="patch_1">
   <path d="M 0 360 
L 864 360 
L 864 0 
L 0 0 
L 0 360 
z
" style="fill: none; opacity: 0"/>
  </g>
  <g id="axes_1">
   <g id="patch_2">
    <path d="M 108 320.4 
L 777.6 320.4 
L 777.6 43.2 
L 108 43.2 
L 108 320.4 
z
" style="fill: none; opacity: 0"/>
   </g>
   <g id="matplotlib.axis_1">
    <g id="xtick_1">
     <g id="line2d_1">
      <path d="M 128.149275 320.4 
L 128.149275 43.2 
" clip-path="url(#pc4545a56be)" style="fill: none; stroke-dasharray: 5.12,1.28,0.8,1.28; stroke-dashoffset: 0; stroke: #b0b0b0; stroke-width: 0.8"/>
     </g>
     <g id="line2d_2">
      <defs>
       <path id="me7467e46b5" d="M 0 0 
L 0 3.5 
" style="stroke: #a9a9a9; stroke-width: 0.8"/>
      </defs>
      <g>
       <use xlink:href="#me7467e46b5" x="128.149275" y="320.4" style="fill: #a9a9a9; stroke: #a9a9a9; stroke-width: 0.8"/>
      </g>
     </g>
     <g id="text_1">
      <!-- 2021-07 -->
      <g style="fill: #a9a9a9" transform="translate(107.257869 334.998438) scale(0.1 -0.1)">
       <defs>
        <path id="DejaVuSans-32" d="M 1228 531 
L 3431 531 
L 3431 0 
L 469 0 
L 469 531 
Q 828 903 1448 1529 
Q 2069 2156 2228 2338 
Q 2531 2678 2651 2914 
Q 2772 3150 2772 3378 
Q 2772 3750 2511 3984 
Q 2250 4219 1831 4219 
Q 1534 4219 1204 4116 
Q 875 4013 500 3803 
L 500 4441 
Q 881 4594 1212 4672 
Q 1544 4750 1819 4750 
Q 2544 4750 2975 4387 
Q 3406 4025 3406 3419 
Q 3406 3131 3298 2873 
Q 3191 2616 2906 2266 
Q 2828 2175 2409 1742 
Q 1991 1309 1228 531 
z
" transform="scale(0.015625)"/>
        <path id="DejaVuSans-30" d="M 2034 4250 
Q 1547 4250 1301 3770 
Q 1056 3291 1056 2328 
Q 1056 1369 1301 889 
Q 1547 409 2034 409 
Q 2525 409 2770 889 
Q 3016 1369 3016 2328 
Q 3016 3291 2770 3770 
Q 2525 4250 2034 4250 
z
M 2034 4750 
Q 2819 4750 3233 4129 
Q 3647 3509 3647 2328 
Q 3647 1150 3233 529 
Q 2819 -91 2034 -91 
Q 1250 -91 836 529 
Q 422 1150 422 2328 
Q 422 3509 836 4129 
Q 1250 4750 2034 4750 
z
" transform="scale(0.015625)"/>
        <path id="DejaVuSans-31" d="M 794 531 
L 1825 531 
L 1825 4091 
L 703 3866 
L 703 4441 
L 1819 4666 
L 2450 4666 
L 2450 531 
L 3481 531 
L 3481 0 
L 794 0 
L 794 531 
z
" transform="scale(0.015625)"/>
        <path id="DejaVuSans-2d" d="M 313 2009 
L 1997 2009 
L 1997 1497 
L 313 1497 
L 313 2009 
z
" transform="scale(0.015625)"/>
        <path id="DejaVuSans-37" d="M 525 4666 
L 3525 4666 
L 3525 4397 
L 1831 0 
L 1172 0 
L 2766 4134 
L 525 4134 
L 525 4666 
z
" transform="scale(0.015625)"/>
       </defs>
       <use xlink:href="#DejaVuSans-32"/>
       <use xlink:href="#DejaVuSans-30" transform="translate(63.623047 0)"/>
       <use xlink:href="#DejaVuSans-32" transform="translate(127.246094 0)"/>
       <use xlink:href="#DejaVuSans-31" transform="translate(190.869141 0)"/>
       <use xlink:href="#DejaVuSans-2d" transform="translate(254.492188 0)"/>
       <use xlink:href="#DejaVuSans-30" transform="translate(290.576172 0)"/>
       <use xlink:href="#DejaVuSans-37" transform="translate(354.199219 0)"/>
      </g>
     </g>
    </g>
    <g id="xtick_2">
     <g id="line2d_3">
      <path d="M 210.445982 320.4 
L 210.445982 43.2 
" clip-path="url(#pc4545a56be)" style="fill: none; stroke-dasharray: 5.12,1.28,0.8,1.28; stroke-dashoffset: 0; stroke: #b0b0b0; stroke-width: 0.8"/>
     </g>
     <g id="line2d_4">
      <g>
       <use xlink:href="#me7467e46b5" x="210.445982" y="320.4" style="fill: #a9a9a9; stroke: #a9a9a9; stroke-width: 0.8"/>
      </g>
     </g>
     <g id="text_2">
      <!-- 2022-01 -->
      <g style="fill: #a9a9a9" transform="translate(189.554576 334.998438) scale(0.1 -0.1)">
       <use xlink:href="#DejaVuSans-32"/>
       <use xlink:href="#DejaVuSans-30" transform="translate(63.623047 0)"/>
       <use xlink:href="#DejaVuSans-32" transform="translate(127.246094 0)"/>
       <use xlink:href="#DejaVuSans-32" transform="translate(190.869141 0)"/>
       <use xlink:href="#DejaVuSans-2d" transform="translate(254.492188 0)"/>
       <use xlink:href="#DejaVuSans-30" transform="translate(290.576172 0)"/>
       <use xlink:href="#DejaVuSans-31" transform="translate(354.199219 0)"/>
      </g>
     </g>
    </g>
    <g id="xtick_3">
     <g id="line2d_5">
      <path d="M 291.400895 320.4 
L 291.400895 43.2 
" clip-path="url(#pc4545a56be)" style="fill: none; stroke-dasharray: 5.12,1.28,0.8,1.28; stroke-dashoffset: 0; stroke: #b0b0b0; stroke-width: 0.8"/>
     </g>
     <g id="line2d_6">
      <g>
       <use xlink:href="#me7467e46b5" x="291.400895" y="320.4" style="fill: #a9a9a9; stroke: #a9a9a9; stroke-width: 0.8"/>
      </g>
     </g>
     <g id="text_3">
      <!-- 2022-07 -->
      <g style="fill: #a9a9a9" transform="translate(270.509489 334.998438) scale(0.1 -0.1)">
       <use xlink:href="#DejaVuSans-32"/>
       <use xlink:href="#DejaVuSans-30" transform="translate(63.623047 0)"/>
       <use xlink:href="#DejaVuSans-32" transform="translate(127.246094 0)"/>
       <use xlink:href="#DejaVuSans-32" transform="translate(190.869141 0)"/>
       <use xlink:href="#DejaVuSans-2d" transform="translate(254.492188 0)"/>
       <use xlink:href="#DejaVuSans-30" transform="translate(290.576172 0)"/>
       <use xlink:href="#DejaVuSans-37" transform="translate(354.199219 0)"/>
      </g>
     </g>
    </g>
    <g id="xtick_4">
     <g id="line2d_7">
      <path d="M 373.697602 320.4 
L 373.697602 43.2 
" clip-path="url(#pc4545a56be)" style="fill: none; stroke-dasharray: 5.12,1.28,0.8,1.28; stroke-dashoffset: 0; stroke: #b0b0b0; stroke-width: 0.8"/>
     </g>
     <g id="line2d_8">
      <g>
       <use xlink:href="#me7467e46b5" x="373.697602" y="320.4" style="fill: #a9a9a9; stroke: #a9a9a9; stroke-width: 0.8"/>
      </g>
     </g>
     <g id="text_4">
      <!-- 2023-01 -->
      <g style="fill: #a9a9a9" transform="translate(352.806196 334.998438) scale(0.1 -0.1)">
       <defs>
        <path id="DejaVuSans-33" d="M 2597 2516 
Q 3050 2419 3304 2112 
Q 3559 1806 3559 1356 
Q 3559 666 3084 287 
Q 2609 -91 1734 -91 
Q 1441 -91 1130 -33 
Q 819 25 488 141 
L 488 750 
Q 750 597 1062 519 
Q 1375 441 1716 441 
Q 2309 441 2620 675 
Q 2931 909 2931 1356 
Q 2931 1769 2642 2001 
Q 2353 2234 1838 2234 
L 1294 2234 
L 1294 2753 
L 1863 2753 
Q 2328 2753 2575 2939 
Q 2822 3125 2822 3475 
Q 2822 3834 2567 4026 
Q 2313 4219 1838 4219 
Q 1578 4219 1281 4162 
Q 984 4106 628 3988 
L 628 4550 
Q 988 4650 1302 4700 
Q 1616 4750 1894 4750 
Q 2613 4750 3031 4423 
Q 3450 4097 3450 3541 
Q 3450 3153 3228 2886 
Q 3006 2619 2597 2516 
z
" transform="scale(0.015625)"/>
       </defs>
       <use xlink:href="#DejaVuSans-32"/>
       <use xlink:href="#DejaVuSans-30" transform="translate(63.623047 0)"/>
       <use xlink:href="#DejaVuSans-32" transform="translate(127.246094 0)"/>
       <use xlink:href="#DejaVuSans-33" transform="translate(190.869141 0)"/>
       <use xlink:href="#DejaVuSans-2d" transform="translate(254.492188 0)"/>
       <use xlink:href="#DejaVuSans-30" transform="translate(290.576172 0)"/>
       <use xlink:href="#DejaVuSans-31" transform="translate(354.199219 0)"/>
      </g>
     </g>
    </g>
    <g id="xtick_5">
     <g id="line2d_9">
      <path d="M 454.652515 320.4 
L 454.652515 43.2 
" clip-path="url(#pc4545a56be)" style="fill: none; stroke-dasharray: 5.12,1.28,0.8,1.28; stroke-dashoffset: 0; stroke: #b0b0b0; stroke-width: 0.8"/>
     </g>
     <g id="line2d_10">
      <g>
       <use xlink:href="#me7467e46b5" x="454.652515" y="320.4" style="fill: #a9a9a9; stroke: #a9a9a9; stroke-width: 0.8"/>
      </g>
     </g>
     <g id="text_5">
      <!-- 2023-07 -->
      <g style="fill: #a9a9a9" transform="translate(433.761109 334.998438) scale(0.1 -0.1)">
       <use xlink:href="#DejaVuSans-32"/>
       <use xlink:href="#DejaVuSans-30" transform="translate(63.623047 0)"/>
       <use xlink:href="#DejaVuSans-32" transform="translate(127.246094 0)"/>
       <use xlink:href="#DejaVuSans-33" transform="translate(190.869141 0)"/>
       <use xlink:href="#DejaVuSans-2d" transform="translate(254.492188 0)"/>
       <use xlink:href="#DejaVuSans-30" transform="translate(290.576172 0)"/>
       <use xlink:href="#DejaVuSans-37" transform="translate(354.199219 0)"/>
      </g>
     </g>
    </g>
    <g id="xtick_6">
     <g id="line2d_11">
      <path d="M 536.949222 320.4 
L 536.949222 43.2 
" clip-path="url(#pc4545a56be)" style="fill: none; stroke-dasharray: 5.12,1.28,0.8,1.28; stroke-dashoffset: 0; stroke: #b0b0b0; stroke-width: 0.8"/>
     </g>
     <g id="line2d_12">
      <g>
       <use xlink:href="#me7467e46b5" x="536.949222" y="320.4" style="fill: #a9a9a9; stroke: #a9a9a9; stroke-width: 0.8"/>
      </g>
     </g>
     <g id="text_6">
      <!-- 2024-01 -->
      <g style="fill: #a9a9a9" transform="translate(516.057816 334.998438) scale(0.1 -0.1)">
       <defs>
        <path id="DejaVuSans-34" d="M 2419 4116 
L 825 1625 
L 2419 1625 
L 2419 4116 
z
M 2253 4666 
L 3047 4666 
L 3047 1625 
L 3713 1625 
L 3713 1100 
L 3047 1100 
L 3047 0 
L 2419 0 
L 2419 1100 
L 313 1100 
L 313 1709 
L 2253 4666 
z
" transform="scale(0.015625)"/>
       </defs>
       <use xlink:href="#DejaVuSans-32"/>
       <use xlink:href="#DejaVuSans-30" transform="translate(63.623047 0)"/>
       <use xlink:href="#DejaVuSans-32" transform="translate(127.246094 0)"/>
       <use xlink:href="#DejaVuSans-34" transform="translate(190.869141 0)"/>
       <use xlink:href="#DejaVuSans-2d" transform="translate(254.492188 0)"/>
       <use xlink:href="#DejaVuSans-30" transform="translate(290.576172 0)"/>
       <use xlink:href="#DejaVuSans-31" transform="translate(354.199219 0)"/>
      </g>
     </g>
    </g>
    <g id="xtick_7">
     <g id="line2d_13">
      <path d="M 618.351399 320.4 
L 618.351399 43.2 
" clip-path="url(#pc4545a56be)" style="fill: none; stroke-dasharray: 5.12,1.28,0.8,1.28; stroke-dashoffset: 0; stroke: #b0b0b0; stroke-width: 0.8"/>
     </g>
     <g id="line2d_14">
      <g>
       <use xlink:href="#me7467e46b5" x="618.351399" y="320.4" style="fill: #a9a9a9; stroke: #a9a9a9; stroke-width: 0.8"/>
      </g>
     </g>
     <g id="text_7">
      <!-- 2024-07 -->
      <g style="fill: #a9a9a9" transform="translate(597.459993 334.998438) scale(0.1 -0.1)">
       <use xlink:href="#DejaVuSans-32"/>
       <use xlink:href="#DejaVuSans-30" transform="translate(63.623047 0)"/>
       <use xlink:href="#DejaVuSans-32" transform="translate(127.246094 0)"/>
       <use xlink:href="#DejaVuSans-34" transform="translate(190.869141 0)"/>
       <use xlink:href="#DejaVuSans-2d" transform="translate(254.492188 0)"/>
       <use xlink:href="#DejaVuSans-30" transform="translate(290.576172 0)"/>
       <use xlink:href="#DejaVuSans-37" transform="translate(354.199219 0)"/>
      </g>
     </g>
    </g>
    <g id="xtick_8">
     <g id="line2d_15">
      <path d="M 700.648106 320.4 
L 700.648106 43.2 
" clip-path="url(#pc4545a56be)" style="fill: none; stroke-dasharray: 5.12,1.28,0.8,1.28; stroke-dashoffset: 0; stroke: #b0b0b0; stroke-width: 0.8"/>
     </g>
     <g id="line2d_16">
      <g>
       <use xlink:href="#me7467e46b5" x="700.648106" y="320.4" style="fill: #a9a9a9; stroke: #a9a9a9; stroke-width: 0.8"/>
      </g>
     </g>
     <g id="text_8">
      <!-- 2025-01 -->
      <g style="fill: #a9a9a9" transform="translate(679.7567 334.998438) scale(0.1 -0.1)">
       <defs>
        <path id="DejaVuSans-35" d="M 691 4666 
L 3169 4666 
L 3169 4134 
L 1269 4134 
L 1269 2991 
Q 1406 3038 1543 3061 
Q 1681 3084 1819 3084 
Q 2600 3084 3056 2656 
Q 3513 2228 3513 1497 
Q 3513 744 3044 326 
Q 2575 -91 1722 -91 
Q 1428 -91 1123 -41 
Q 819 9 494 109 
L 494 744 
Q 775 591 1075 516 
Q 1375 441 1709 441 
Q 2250 441 2565 725 
Q 2881 1009 2881 1497 
Q 2881 1984 2565 2268 
Q 2250 2553 1709 2553 
Q 1456 2553 1204 2497 
Q 953 2441 691 2322 
L 691 4666 
z
" transform="scale(0.015625)"/>
       </defs>
       <use xlink:href="#DejaVuSans-32"/>
       <use xlink:href="#DejaVuSans-30" transform="translate(63.623047 0)"/>
       <use xlink:href="#DejaVuSans-32" transform="translate(127.246094 0)"/>
       <use xlink:href="#DejaVuSans-35" transform="translate(190.869141 0)"/>
       <use xlink:href="#DejaVuSans-2d" transform="translate(254.492188 0)"/>
       <use xlink:href="#DejaVuSans-30" transform="translate(290.576172 0)"/>
       <use xlink:href="#DejaVuSans-31" transform="translate(354.199219 0)"/>
      </g>
     </g>
    </g>
   </g>
   <g id="matplotlib.axis_2">
    <g id="ytick_1">
     <g id="line2d_17">
      <path d="M 108 307.833471 
L 777.6 307.833471 
" clip-path="url(#pc4545a56be)" style="fill: none; stroke-dasharray: 5.12,1.28,0.8,1.28; stroke-dashoffset: 0; stroke: #b0b0b0; stroke-width: 0.8"/>
     </g>
     <g id="line2d_18">
      <defs>
       <path id="mee5fbd0269" d="M 0 0 
L -3.5 0 
" style="stroke: #a9a9a9; stroke-width: 0.8"/>
      </defs>
      <g>
       <use xlink:href="#mee5fbd0269" x="108" y="307.833471" style="fill: #a9a9a9; stroke: #a9a9a9; stroke-width: 0.8"/>
      </g>
     </g>
     <g id="text_9">
      <!-- 0 -->
      <g style="fill: #a9a9a9" transform="translate(94.6375 311.632689) scale(0.1 -0.1)">
       <use xlink:href="#DejaVuSans-30"/>
      </g>
     </g>
    </g>
    <g id="ytick_2">
     <g id="line2d_19">
      <path d="M 108 274.36289 
L 777.6 274.36289 
" clip-path="url(#pc4545a56be)" style="fill: none; stroke-dasharray: 5.12,1.28,0.8,1.28; stroke-dashoffset: 0; stroke: #b0b0b0; stroke-width: 0.8"/>
     </g>
     <g id="line2d_20">
      <g>
       <use xlink:href="#mee5fbd0269" x="108" y="274.36289" style="fill: #a9a9a9; stroke: #a9a9a9; stroke-width: 0.8"/>
      </g>
     </g>
     <g id="text_10">
      <!-- 1000 -->
      <g style="fill: #a9a9a9" transform="translate(75.55 278.162109) scale(0.1 -0.1)">
       <use xlink:href="#DejaVuSans-31"/>
       <use xlink:href="#DejaVuSans-30" transform="translate(63.623047 0)"/>
       <use xlink:href="#DejaVuSans-30" transform="translate(127.246094 0)"/>
       <use xlink:href="#DejaVuSans-30" transform="translate(190.869141 0)"/>
      </g>
     </g>
    </g>
    <g id="ytick_3">
     <g id="line2d_21">
      <path d="M 108 240.89231 
L 777.6 240.89231 
" clip-path="url(#pc4545a56be)" style="fill: none; stroke-dasharray: 5.12,1.28,0.8,1.28; stroke-dashoffset: 0; stroke: #b0b0b0; stroke-width: 0.8"/>
     </g>
     <g id="line2d_22">
      <g>
       <use xlink:href="#mee5fbd0269" x="108" y="240.89231" style="fill: #a9a9a9; stroke: #a9a9a9; stroke-width: 0.8"/>
      </g>
     </g>
     <g id="text_11">
      <!-- 2000 -->
      <g style="fill: #a9a9a9" transform="translate(75.55 244.691528) scale(0.1 -0.1)">
       <use xlink:href="#DejaVuSans-32"/>
       <use xlink:href="#DejaVuSans-30" transform="translate(63.623047 0)"/>
       <use xlink:href="#DejaVuSans-30" transform="translate(127.246094 0)"/>
       <use xlink:href="#DejaVuSans-30" transform="translate(190.869141 0)"/>
      </g>
     </g>
    </g>
    <g id="ytick_4">
     <g id="line2d_23">
      <path d="M 108 207.421729 
L 777.6 207.421729 
" clip-path="url(#pc4545a56be)" style="fill: none; stroke-dasharray: 5.12,1.28,0.8,1.28; stroke-dashoffset: 0; stroke: #b0b0b0; stroke-width: 0.8"/>
     </g>
     <g id="line2d_24">
      <g>
       <use xlink:href="#mee5fbd0269" x="108" y="207.421729" style="fill: #a9a9a9; stroke: #a9a9a9; stroke-width: 0.8"/>
      </g>
     </g>
     <g id="text_12">
      <!-- 3000 -->
      <g style="fill: #a9a9a9" transform="translate(75.55 211.220948) scale(0.1 -0.1)">
       <use xlink:href="#DejaVuSans-33"/>
       <use xlink:href="#DejaVuSans-30" transform="translate(63.623047 0)"/>
       <use xlink:href="#DejaVuSans-30" transform="translate(127.246094 0)"/>
       <use xlink:href="#DejaVuSans-30" transform="translate(190.869141 0)"/>
      </g>
     </g>
    </g>
    <g id="ytick_5">
     <g id="line2d_25">
      <path d="M 108 173.951149 
L 777.6 173.951149 
" clip-path="url(#pc4545a56be)" style="fill: none; stroke-dasharray: 5.12,1.28,0.8,1.28; stroke-dashoffset: 0; stroke: #b0b0b0; stroke-width: 0.8"/>
     </g>
     <g id="line2d_26">
      <g>
       <use xlink:href="#mee5fbd0269" x="108" y="173.951149" style="fill: #a9a9a9; stroke: #a9a9a9; stroke-width: 0.8"/>
      </g>
     </g>
     <g id="text_13">
      <!-- 4000 -->
      <g style="fill: #a9a9a9" transform="translate(75.55 177.750368) scale(0.1 -0.1)">
       <use xlink:href="#DejaVuSans-34"/>
       <use xlink:href="#DejaVuSans-30" transform="translate(63.623047 0)"/>
       <use xlink:href="#DejaVuSans-30" transform="translate(127.246094 0)"/>
       <use xlink:href="#DejaVuSans-30" transform="translate(190.869141 0)"/>
      </g>
     </g>
    </g>
    <g id="ytick_6">
     <g id="line2d_27">
      <path d="M 108 140.480568 
L 777.6 140.480568 
" clip-path="url(#pc4545a56be)" style="fill: none; stroke-dasharray: 5.12,1.28,0.8,1.28; stroke-dashoffset: 0; stroke: #b0b0b0; stroke-width: 0.8"/>
     </g>
     <g id="line2d_28">
      <g>
       <use xlink:href="#mee5fbd0269" x="108" y="140.480568" style="fill: #a9a9a9; stroke: #a9a9a9; stroke-width: 0.8"/>
      </g>
     </g>
     <g id="text_14">
      <!-- 5000 -->
      <g style="fill: #a9a9a9" transform="translate(75.55 144.279787) scale(0.1 -0.1)">
       <use xlink:href="#DejaVuSans-35"/>
       <use xlink:href="#DejaVuSans-30" transform="translate(63.623047 0)"/>
       <use xlink:href="#DejaVuSans-30" transform="translate(127.246094 0)"/>
       <use xlink:href="#DejaVuSans-30" transform="translate(190.869141 0)"/>
      </g>
     </g>
    </g>
    <g id="ytick_7">
     <g id="line2d_29">
      <path d="M 108 107.009988 
L 777.6 107.009988 
" clip-path="url(#pc4545a56be)" style="fill: none; stroke-dasharray: 5.12,1.28,0.8,1.28; stroke-dashoffset: 0; stroke: #b0b0b0; stroke-width: 0.8"/>
     </g>
     <g id="line2d_30">
      <g>
       <use xlink:href="#mee5fbd0269" x="108" y="107.009988" style="fill: #a9a9a9; stroke: #a9a9a9; stroke-width: 0.8"/>
      </g>
     </g>
     <g id="text_15">
      <!-- 6000 -->
      <g style="fill: #a9a9a9" transform="translate(75.55 110.809207) scale(0.1 -0.1)">
       <defs>
        <path id="DejaVuSans-36" d="M 2113 2584 
Q 1688 2584 1439 2293 
Q 1191 2003 1191 1497 
Q 1191 994 1439 701 
Q 1688 409 2113 409 
Q 2538 409 2786 701 
Q 3034 994 3034 1497 
Q 3034 2003 2786 2293 
Q 2538 2584 2113 2584 
z
M 3366 4563 
L 3366 3988 
Q 3128 4100 2886 4159 
Q 2644 4219 2406 4219 
Q 1781 4219 1451 3797 
Q 1122 3375 1075 2522 
Q 1259 2794 1537 2939 
Q 1816 3084 2150 3084 
Q 2853 3084 3261 2657 
Q 3669 2231 3669 1497 
Q 3669 778 3244 343 
Q 2819 -91 2113 -91 
Q 1303 -91 875 529 
Q 447 1150 447 2328 
Q 447 3434 972 4092 
Q 1497 4750 2381 4750 
Q 2619 4750 2861 4703 
Q 3103 4656 3366 4563 
z
" transform="scale(0.015625)"/>
       </defs>
       <use xlink:href="#DejaVuSans-36"/>
       <use xlink:href="#DejaVuSans-30" transform="translate(63.623047 0)"/>
       <use xlink:href="#DejaVuSans-30" transform="translate(127.246094 0)"/>
       <use xlink:href="#DejaVuSans-30" transform="translate(190.869141 0)"/>
      </g>
     </g>
    </g>
    <g id="ytick_8">
     <g id="line2d_31">
      <path d="M 108 73.539408 
L 777.6 73.539408 
" clip-path="url(#pc4545a56be)" style="fill: none; stroke-dasharray: 5.12,1.28,0.8,1.28; stroke-dashoffset: 0; stroke: #b0b0b0; stroke-width: 0.8"/>
     </g>
     <g id="line2d_32">
      <g>
       <use xlink:href="#mee5fbd0269" x="108" y="73.539408" style="fill: #a9a9a9; stroke: #a9a9a9; stroke-width: 0.8"/>
      </g>
     </g>
     <g id="text_16">
      <!-- 7000 -->
      <g style="fill: #a9a9a9" transform="translate(75.55 77.338626) scale(0.1 -0.1)">
       <use xlink:href="#DejaVuSans-37"/>
       <use xlink:href="#DejaVuSans-30" transform="translate(63.623047 0)"/>
       <use xlink:href="#DejaVuSans-30" transform="translate(127.246094 0)"/>
       <use xlink:href="#DejaVuSans-30" transform="translate(190.869141 0)"/>
      </g>
     </g>
    </g>
   </g>
   <g id="line2d_33">
    <path d="M 138.436364 307.733059 
L 141.119952 307.498765 
L 141.567217 307.297941 
L 143.356275 307.063647 
L 145.145334 306.695471 
L 146.039864 306.561589 
L 148.276187 306.360765 
L 149.170717 305.992589 
L 149.617981 305.390118 
L 150.065246 305.088883 
L 150.512511 304.084766 
L 150.959776 304.017824 
L 151.40704 303.649648 
L 152.30157 303.18106 
L 154.090629 301.708354 
L 155.879687 300.804649 
L 157.221482 300.168708 
L 157.668746 299.432355 
L 158.563276 298.762943 
L 159.01054 298.56212 
L 163.483187 297.892708 
L 163.930452 297.691885 
L 167.061305 297.42412 
L 168.850364 296.989003 
L 172.428482 296.486944 
L 172.875746 296.25265 
L 173.323011 296.185709 
L 174.217541 295.884473 
L 177.348394 295.348944 
L 178.242923 295.081179 
L 182.268305 294.378297 
L 183.162835 294.177474 
L 184.057364 294.144003 
L 185.846423 293.708886 
L 186.293688 293.072945 
L 187.635482 292.537415 
L 188.977276 292.169239 
L 189.424541 291.934945 
L 190.31907 291.767592 
L 192.108129 291.232063 
L 193.002658 291.165122 
L 193.897188 290.930827 
L 195.686247 290.462239 
L 196.133511 290.428769 
L 197.028041 289.993651 
L 197.475306 289.92671 
L 197.92257 289.692416 
L 202.842482 288.855651 
L 204.631541 288.320122 
L 205.078806 288.018887 
L 207.315129 287.282534 
L 208.209659 286.646593 
L 209.551453 286.378829 
L 219.391276 283.466888 
L 219.838541 283.433417 
L 221.180335 283.03177 
L 221.6276 283.03177 
L 222.074865 282.830947 
L 222.969394 282.730535 
L 223.416659 282.563182 
L 225.205718 282.496241 
L 226.100247 282.328888 
L 226.994777 281.8603 
L 228.336571 281.358241 
L 229.2311 280.889653 
L 230.12563 280.421065 
L 231.020159 280.11983 
L 231.467424 279.985948 
L 232.361953 279.416948 
L 232.809218 278.914889 
L 233.703747 277.509125 
L 234.151012 277.375242 
L 234.598277 277.375242 
L 235.940071 276.571948 
L 236.387336 276.337654 
L 236.8346 276.237243 
L 237.281865 275.802125 
L 238.176394 275.433949 
L 239.070924 274.998831 
L 241.307247 272.086891 
L 243.990836 270.614185 
L 244.885365 269.877832 
L 245.33263 269.576597 
L 245.779894 268.940656 
L 246.227159 267.903068 
L 246.674424 267.200186 
L 247.121689 266.83201 
L 247.568953 266.631186 
L 251.147071 263.284128 
L 252.0416 262.447364 
L 254.725189 260.740364 
L 255.172453 260.573011 
L 256.961512 259.501952 
L 257.408777 259.301129 
L 259.645101 257.225953 
L 260.53963 256.857777 
L 261.434159 256.221836 
L 261.881424 255.954071 
L 262.328689 255.88713 
L 263.670483 255.117306 
L 264.117748 254.615248 
L 266.354071 253.376836 
L 266.801336 253.209483 
L 268.14313 252.272307 
L 274.852101 249.862425 
L 275.74663 249.025661 
L 277.088424 248.356249 
L 277.982954 247.787249 
L 278.877483 247.519485 
L 279.324748 247.218249 
L 279.772013 247.084367 
L 281.113807 246.180661 
L 283.35013 245.678603 
L 284.691924 244.875309 
L 286.033719 244.574074 
L 286.480983 244.473662 
L 287.822777 243.436074 
L 289.611836 242.934015 
L 290.059101 242.565839 
L 292.742689 241.628663 
L 293.637219 241.46131 
L 294.531748 241.093133 
L 297.662601 239.921663 
L 298.55713 239.787781 
L 299.898925 239.319192 
L 302.135248 238.214663 
L 303.924307 237.210546 
L 307.502425 235.70437 
L 307.949689 235.637429 
L 308.844219 235.068429 
L 309.738748 234.834135 
L 311.080542 234.298605 
L 312.869601 234.064311 
L 313.764131 233.595723 
L 314.211395 233.194076 
L 314.65866 232.390782 
L 316.447719 231.888724 
L 317.789513 231.185841 
L 318.684042 230.884606 
L 319.578572 230.416018 
L 322.26216 229.311489 
L 323.15669 229.110665 
L 324.051219 228.642077 
L 324.498484 228.441254 
L 324.945748 228.374313 
L 327.182072 227.269784 
L 328.076601 226.700784 
L 329.418396 226.433019 
L 331.654719 225.864019 
L 332.101984 225.495843 
L 332.996513 225.194608 
L 335.232837 224.290902 
L 335.680102 223.956196 
L 336.127366 223.788843 
L 337.021896 223.286784 
L 338.810955 222.717785 
L 339.705484 222.148785 
L 340.152749 221.680197 
L 340.600013 221.412432 
L 341.047278 221.31202 
L 341.941807 220.575667 
L 342.389072 220.508726 
L 342.836337 219.772373 
L 343.283602 219.57155 
L 343.730866 219.203374 
L 344.178131 219.136432 
L 345.07266 218.567433 
L 345.96719 218.266197 
L 346.414455 217.931492 
L 346.861719 217.764139 
L 348.650778 216.559198 
L 349.992572 215.856316 
L 350.887102 215.622022 
L 351.781631 215.119963 
L 352.228896 214.350139 
L 353.123425 213.680728 
L 353.57069 213.580316 
L 356.254278 212.274963 
L 357.148808 211.906787 
L 358.490602 210.768787 
L 359.385131 209.998964 
L 360.279661 209.463435 
L 360.726925 208.961376 
L 362.515984 207.722965 
L 363.410514 206.819259 
L 364.305043 206.518024 
L 365.199573 205.915553 
L 366.541367 205.212671 
L 366.988631 205.14573 
L 368.330425 204.409377 
L 369.224955 203.840377 
L 373.697602 202.166848 
L 374.144867 201.798672 
L 375.933926 201.09579 
L 376.38119 200.961907 
L 377.27572 200.359437 
L 378.170249 199.99126 
L 379.064779 199.355319 
L 379.959308 197.547908 
L 380.853837 196.47685 
L 382.195632 195.773967 
L 383.090161 195.405791 
L 383.537426 195.33885 
L 383.98469 195.071085 
L 386.221014 194.334732 
L 386.668279 194.133909 
L 387.562808 193.531438 
L 388.904602 192.962439 
L 389.799132 192.46038 
L 390.693661 191.924851 
L 391.140926 191.623615 
L 391.588191 191.121557 
L 392.929985 190.351733 
L 393.377249 190.18438 
L 394.271779 189.648851 
L 396.060838 188.644734 
L 396.508102 188.544322 
L 396.955367 188.176146 
L 399.638955 187.339381 
L 401.428014 186.502617 
L 402.322544 186.13444 
L 402.769808 185.766264 
L 404.558867 185.130323 
L 405.453397 184.494382 
L 406.347926 184.126205 
L 407.242455 183.423323 
L 408.136985 183.155559 
L 408.58425 182.753912 
L 409.031514 182.68697 
L 409.926044 181.984088 
L 410.820573 181.5155 
L 411.267838 181.314677 
L 411.715103 180.846088 
L 414.845956 179.574206 
L 415.740485 179.172559 
L 417.082279 178.737442 
L 417.976808 178.60356 
L 418.424073 178.402736 
L 418.871338 178.335795 
L 419.765867 177.934148 
L 420.213132 177.900677 
L 422.002191 177.231266 
L 423.343985 176.260619 
L 423.79125 176.093266 
L 424.685779 175.591207 
L 425.133044 175.457325 
L 427.816632 173.917678 
L 428.263897 173.817267 
L 429.605691 173.013973 
L 430.947485 172.545385 
L 431.842015 172.244149 
L 433.631073 171.641679 
L 434.525603 171.340444 
L 436.314662 170.972267 
L 436.761926 170.771444 
L 437.656456 170.53715 
L 438.103721 170.336326 
L 438.550985 170.269385 
L 438.99825 170.035091 
L 439.892779 169.867738 
L 441.234574 169.365679 
L 442.129103 169.265268 
L 443.470897 168.964032 
L 445.707221 168.562385 
L 457.336103 165.081445 
L 457.783368 164.612857 
L 458.677897 164.244681 
L 462.256015 162.872387 
L 462.70328 162.604622 
L 464.045074 162.202975 
L 464.939603 161.968681 
L 465.386868 161.667446 
L 465.834133 161.567034 
L 466.281397 161.165387 
L 467.623192 160.897623 
L 468.517721 160.462505 
L 468.964986 159.926976 
L 470.754044 159.491858 
L 473.884897 158.822447 
L 474.332162 158.822447 
L 474.779427 158.621623 
L 476.568486 158.286917 
L 477.01575 158.086094 
L 478.804809 157.751388 
L 479.699339 157.383212 
L 480.593868 157.215859 
L 482.830192 156.646859 
L 484.619251 156.077859 
L 485.066515 155.977447 
L 485.51378 155.743153 
L 486.408309 155.508859 
L 487.302839 155.140683 
L 488.197368 154.805977 
L 488.644633 154.504742 
L 489.539162 154.236977 
L 492.670015 153.065507 
L 494.459074 152.831213 
L 498.037192 151.52586 
L 498.484457 151.191154 
L 498.931721 151.090742 
L 499.378986 150.856448 
L 499.826251 150.822978 
L 504.746163 149.049037 
L 506.982486 148.446567 
L 507.877016 148.011449 
L 509.21881 147.710214 
L 511.007869 146.237508 
L 512.796927 145.467685 
L 513.691457 145.066038 
L 516.375045 144.02845 
L 516.82231 143.727215 
L 519.058633 142.990862 
L 520.400427 142.221039 
L 520.847692 142.120627 
L 522.636751 141.116509 
L 524.42581 140.313216 
L 524.873075 139.97851 
L 525.767604 139.677275 
L 528.003928 138.539275 
L 529.345722 138.070687 
L 531.134781 137.334334 
L 532.476575 136.832275 
L 532.923839 136.664922 
L 533.818369 136.53104 
L 534.265634 136.229805 
L 536.054692 135.861628 
L 536.949222 135.493452 
L 538.738281 134.656687 
L 544.999987 131.9121 
L 546.341781 131.476982 
L 546.789045 131.175747 
L 547.683575 131.075335 
L 548.13084 130.7741 
L 549.025369 130.606747 
L 549.919898 130.17163 
L 550.367163 129.970806 
L 551.261693 129.736512 
L 552.156222 129.468748 
L 553.498016 128.966689 
L 554.83981 128.531571 
L 556.181604 128.230336 
L 557.970663 127.493983 
L 558.865193 126.991925 
L 560.654252 126.088219 
L 561.548781 125.887395 
L 561.996046 125.619631 
L 562.44331 125.519219 
L 563.785105 124.749396 
L 564.679634 124.381219 
L 566.468693 123.678337 
L 568.705016 122.908514 
L 569.599546 122.439926 
L 571.835869 121.670102 
L 574.519458 120.565573 
L 576.308516 119.728809 
L 580.781164 117.988338 
L 581.675693 117.553221 
L 582.122958 117.452809 
L 582.570222 117.218515 
L 584.359281 116.716456 
L 586.14834 115.243751 
L 586.595605 115.109869 
L 587.04287 114.842104 
L 588.384664 114.473927 
L 588.831928 114.139222 
L 589.279193 114.03881 
L 590.173723 113.46981 
L 591.515517 112.766928 
L 592.410046 112.398751 
L 592.857311 112.164457 
L 594.199105 111.863222 
L 596.435428 111.093399 
L 597.329958 110.792164 
L 598.671752 110.089281 
L 599.566281 109.654164 
L 600.460811 109.41987 
L 601.802605 108.783929 
L 605.827987 107.277753 
L 607.169782 106.440988 
L 607.617046 106.340576 
L 608.511576 105.905459 
L 609.406105 105.570753 
L 609.85337 105.169106 
L 610.747899 104.80093 
L 612.089693 104.332342 
L 612.536958 103.964165 
L 612.984223 103.930695 
L 613.878752 103.66293 
L 614.773282 103.361695 
L 615.220546 103.160871 
L 615.667811 103.09393 
L 617.009605 102.591871 
L 618.351399 102.089813 
L 620.140458 101.286519 
L 620.587723 101.219578 
L 624.165841 99.713402 
L 625.507635 99.278284 
L 626.402164 99.211343 
L 627.296694 98.843166 
L 629.980282 98.039872 
L 630.874811 98.006402 
L 634.452929 96.834932 
L 635.347458 96.366343 
L 635.794723 95.964697 
L 637.136517 95.161403 
L 637.583782 94.826697 
L 638.925576 94.391579 
L 639.820106 94.123815 
L 640.26737 93.889521 
L 640.714635 93.789109 
L 641.1619 93.420932 
L 643.845488 92.282933 
L 645.634547 91.814345 
L 646.529076 91.412698 
L 646.976341 91.178404 
L 647.87087 90.910639 
L 648.318135 90.642874 
L 649.212664 90.475521 
L 652.790782 88.935875 
L 653.238047 88.868933 
L 654.579841 87.998698 
L 655.027106 87.931757 
L 656.816165 87.228875 
L 658.605223 86.793757 
L 659.052488 86.726816 
L 659.499753 86.525993 
L 659.947018 86.492522 
L 660.841547 86.191287 
L 661.288812 86.157816 
L 662.630606 85.622287 
L 664.419665 85.086758 
L 665.314194 84.417346 
L 667.103253 83.413229 
L 668.445047 82.944641 
L 672.023165 81.237641 
L 672.470429 81.003347 
L 672.917694 80.56823 
L 675.154018 79.965759 
L 676.495812 79.363289 
L 677.390341 79.128995 
L 677.837606 78.8947 
L 678.284871 78.526524 
L 680.07393 78.057936 
L 680.521194 77.72323 
L 686.335636 75.614584 
L 687.230165 75.447231 
L 689.466489 74.744349 
L 690.361018 74.376172 
L 691.255547 74.041466 
L 692.150077 73.807172 
L 692.597342 73.606349 
L 693.044606 73.606349 
L 693.939136 73.238172 
L 694.833665 72.702643 
L 697.964518 71.665055 
L 699.753577 71.062585 
L 701.095371 70.761349 
L 702.437165 70.326232 
L 702.88443 70.22582 
L 703.331695 69.924585 
L 704.226224 69.723761 
L 713.171518 67.146527 
L 715.407842 66.74488 
L 716.302371 66.309762 
L 717.196901 65.874645 
L 718.538695 65.472998 
L 723.011342 63.832939 
L 723.458607 63.498233 
L 724.800401 63.196998 
L 725.69493 62.929234 
L 726.58946 62.494116 
L 727.036724 62.092469 
L 727.931254 61.791234 
L 728.378518 61.523469 
L 729.273048 61.423058 
L 732.403901 60.552822 
L 733.745695 60.285058 
L 736.429283 59.414823 
L 738.218342 58.544588 
L 743.585519 56.636765 
L 745.821842 56.101235 
L 746.716372 55.8 
L 747.163636 55.8 
L 747.163636 55.8 
" clip-path="url(#pc4545a56be)" style="fill: none; stroke: #1f77b4; stroke-width: 1.5; stroke-linecap: square"/>
   </g>
   <g id="line2d_34">
    <path d="M 138.883628 307.8 
L 142.909011 307.699588 
L 146.487128 307.532235 
L 148.276187 307.532235 
L 148.723452 307.398353 
L 150.959776 307.297941 
L 153.643364 306.996706 
L 156.326952 306.896294 
L 157.221482 306.795883 
L 160.352335 306.662 
L 163.483187 306.561589 
L 165.719511 306.494647 
L 171.533952 306.394236 
L 173.770276 306.327294 
L 177.795658 306.226883 
L 179.584717 306.193412 
L 184.057364 306.093 
L 185.846423 305.925647 
L 187.635482 305.892177 
L 190.31907 305.791765 
L 192.108129 305.758295 
L 194.344453 305.691353 
L 196.133511 305.524001 
L 200.158894 305.423589 
L 201.053423 305.356648 
L 202.842482 305.256236 
L 205.52607 305.155824 
L 207.315129 305.055412 
L 215.365894 304.553354 
L 218.496747 304.452942 
L 219.838541 304.31906 
L 222.074865 304.218648 
L 226.547512 303.984354 
L 231.020159 303.917413 
L 232.809218 303.716589 
L 234.598277 303.616177 
L 239.518188 303.147589 
L 242.649041 302.779413 
L 243.990836 302.712472 
L 247.568953 302.243884 
L 250.252542 302.176942 
L 251.594336 302.04306 
L 252.93613 301.942648 
L 265.459542 300.972002 
L 266.354071 300.804649 
L 269.037659 300.704237 
L 276.193895 300.269119 
L 279.324748 300.168708 
L 281.113807 299.967884 
L 283.35013 299.867472 
L 286.033719 299.767061 
L 288.270042 299.666649 
L 290.059101 299.633178 
L 292.295424 299.566237 
L 293.189954 299.432355 
L 299.45166 299.331943 
L 300.346189 299.231531 
L 305.713366 299.13112 
L 309.738748 298.930296 
L 312.869601 298.829884 
L 314.65866 298.629061 
L 317.789513 298.528649 
L 318.684042 298.361296 
L 320.920366 298.294355 
L 325.393013 298.227414 
L 327.182072 298.060061 
L 328.971131 298.026591 
L 330.312925 297.926179 
L 332.101984 297.758826 
L 336.574631 297.524532 
L 341.047278 297.42412 
L 345.07266 297.223297 
L 346.414455 297.189826 
L 347.308984 297.055944 
L 349.545308 296.955532 
L 350.439837 296.888591 
L 351.334366 296.82165 
L 352.228896 296.754708 
L 356.254278 296.687767 
L 357.596072 296.587356 
L 369.67222 295.784062 
L 371.908543 295.68365 
L 374.144867 295.616709 
L 380.406573 295.516297 
L 381.301102 295.382415 
L 387.562808 295.282003 
L 392.035455 295.047709 
L 392.929985 295.014238 
L 393.824514 294.913827 
L 396.060838 294.813415 
L 398.297161 294.746474 
L 400.533485 294.646062 
L 402.769808 294.579121 
L 406.795191 294.478709 
L 409.478779 294.378297 
L 415.740485 294.277886 
L 420.660397 294.010121 
L 422.449456 293.94318 
L 423.79125 293.842768 
L 430.052956 293.742356 
L 432.736544 293.641944 
L 440.787309 293.541533 
L 442.576368 293.508062 
L 447.943544 293.441121 
L 448.838074 293.37418 
L 455.09978 293.273768 
L 456.888838 293.240298 
L 468.517721 293.139886 
L 471.201309 293.039474 
L 489.986427 292.939062 
L 492.222751 292.872121 
L 503.851633 292.80518 
L 504.746163 292.738239 
L 506.982486 292.671298 
L 508.32428 292.537415 
L 511.007869 292.437004 
L 514.138722 292.303121 
L 518.164104 292.20271 
L 520.400427 292.135768 
L 523.53128 292.035357 
L 527.109398 291.868004 
L 529.345722 291.767592 
L 531.134781 291.734121 
L 535.160163 291.63371 
L 536.949222 291.600239 
L 542.763663 291.499827 
L 544.552722 291.466357 
L 546.789045 291.365945 
L 549.472634 291.265533 
L 552.603487 291.198592 
L 553.498016 291.131651 
L 564.232369 291.031239 
L 570.046811 290.696533 
L 572.283134 290.629592 
L 573.177663 290.529181 
L 574.072193 290.462239 
L 577.650311 290.361828 
L 580.333899 290.261416 
L 584.806546 290.161004 
L 587.04287 289.92671 
L 591.515517 289.826298 
L 592.410046 289.725887 
L 596.882693 289.625475 
L 599.119017 289.558534 
L 604.038929 289.525063 
L 604.933458 289.424651 
L 609.85337 289.32424 
L 610.747899 289.257298 
L 620.587723 289.156887 
L 623.271311 289.056475 
L 629.980282 288.956063 
L 631.769341 288.922593 
L 635.794723 288.855651 
L 636.689253 288.75524 
L 642.503694 288.654828 
L 644.740017 288.587887 
L 652.790782 288.487475 
L 654.132576 288.387063 
L 655.47437 288.286652 
L 656.816165 288.18624 
L 663.525135 288.085828 
L 666.208724 287.985416 
L 678.284871 287.885005 
L 682.310253 287.684181 
L 687.67743 287.583769 
L 688.571959 287.516828 
L 695.28093 287.449887 
L 696.175459 287.382946 
L 701.095371 287.282534 
L 702.88443 287.249064 
L 709.146136 287.148652 
L 711.829724 287.04824 
L 719.433224 286.947828 
L 721.222283 286.914358 
L 725.247665 286.813946 
L 728.825783 286.646593 
L 733.745695 286.546181 
L 736.876548 286.412299 
L 740.90193 286.311887 
L 741.79646 286.244946 
L 747.163636 286.178005 
L 747.163636 286.178005 
" clip-path="url(#pc4545a56be)" style="fill: none; stroke: #ff7f0e; stroke-width: 1.5; stroke-linecap: square"/>
   </g>
   <g id="patch_3">
    <path d="M 108 320.4 
L 108 43.2 
" style="fill: none; stroke: #a9a9a9; stroke-width: 0.8; stroke-linejoin: miter; stroke-linecap: square"/>
   </g>
   <g id="patch_4">
    <path d="M 777.6 320.4 
L 777.6 43.2 
" style="fill: none"/>
   </g>
   <g id="patch_5">
    <path d="M 108 320.4 
L 777.6 320.4 
" style="fill: none; stroke: #a9a9a9; stroke-width: 0.8; stroke-linejoin: miter; stroke-linecap: square"/>
   </g>
   <g id="patch_6">
    <path d="M 108 43.2 
L 777.6 43.2 
" style="fill: none"/>
   </g>
   <g id="text_17">
    <!-- get_subscribe history -->
    <g style="fill: #a9a9a9" transform="translate(378.6075 37.2) scale(0.12 -0.12)">
     <defs>
      <path id="DejaVuSans-67" d="M 2906 1791 
Q 2906 2416 2648 2759 
Q 2391 3103 1925 3103 
Q 1463 3103 1205 2759 
Q 947 2416 947 1791 
Q 947 1169 1205 825 
Q 1463 481 1925 481 
Q 2391 481 2648 825 
Q 2906 1169 2906 1791 
z
M 3481 434 
Q 3481 -459 3084 -895 
Q 2688 -1331 1869 -1331 
Q 1566 -1331 1297 -1286 
Q 1028 -1241 775 -1147 
L 775 -588 
Q 1028 -725 1275 -790 
Q 1522 -856 1778 -856 
Q 2344 -856 2625 -561 
Q 2906 -266 2906 331 
L 2906 616 
Q 2728 306 2450 153 
Q 2172 0 1784 0 
Q 1141 0 747 490 
Q 353 981 353 1791 
Q 353 2603 747 3093 
Q 1141 3584 1784 3584 
Q 2172 3584 2450 3431 
Q 2728 3278 2906 2969 
L 2906 3500 
L 3481 3500 
L 3481 434 
z
" transform="scale(0.015625)"/>
      <path id="DejaVuSans-65" d="M 3597 1894 
L 3597 1613 
L 953 1613 
Q 991 1019 1311 708 
Q 1631 397 2203 397 
Q 2534 397 2845 478 
Q 3156 559 3463 722 
L 3463 178 
Q 3153 47 2828 -22 
Q 2503 -91 2169 -91 
Q 1331 -91 842 396 
Q 353 884 353 1716 
Q 353 2575 817 3079 
Q 1281 3584 2069 3584 
Q 2775 3584 3186 3129 
Q 3597 2675 3597 1894 
z
M 3022 2063 
Q 3016 2534 2758 2815 
Q 2500 3097 2075 3097 
Q 1594 3097 1305 2825 
Q 1016 2553 972 2059 
L 3022 2063 
z
" transform="scale(0.015625)"/>
      <path id="DejaVuSans-74" d="M 1172 4494 
L 1172 3500 
L 2356 3500 
L 2356 3053 
L 1172 3053 
L 1172 1153 
Q 1172 725 1289 603 
Q 1406 481 1766 481 
L 2356 481 
L 2356 0 
L 1766 0 
Q 1100 0 847 248 
Q 594 497 594 1153 
L 594 3053 
L 172 3053 
L 172 3500 
L 594 3500 
L 594 4494 
L 1172 4494 
z
" transform="scale(0.015625)"/>
      <path id="DejaVuSans-5f" d="M 3263 -1063 
L 3263 -1509 
L -63 -1509 
L -63 -1063 
L 3263 -1063 
z
" transform="scale(0.015625)"/>
      <path id="DejaVuSans-73" d="M 2834 3397 
L 2834 2853 
Q 2591 2978 2328 3040 
Q 2066 3103 1784 3103 
Q 1356 3103 1142 2972 
Q 928 2841 928 2578 
Q 928 2378 1081 2264 
Q 1234 2150 1697 2047 
L 1894 2003 
Q 2506 1872 2764 1633 
Q 3022 1394 3022 966 
Q 3022 478 2636 193 
Q 2250 -91 1575 -91 
Q 1294 -91 989 -36 
Q 684 19 347 128 
L 347 722 
Q 666 556 975 473 
Q 1284 391 1588 391 
Q 1994 391 2212 530 
Q 2431 669 2431 922 
Q 2431 1156 2273 1281 
Q 2116 1406 1581 1522 
L 1381 1569 
Q 847 1681 609 1914 
Q 372 2147 372 2553 
Q 372 3047 722 3315 
Q 1072 3584 1716 3584 
Q 2034 3584 2315 3537 
Q 2597 3491 2834 3397 
z
" transform="scale(0.015625)"/>
      <path id="DejaVuSans-75" d="M 544 1381 
L 544 3500 
L 1119 3500 
L 1119 1403 
Q 1119 906 1312 657 
Q 1506 409 1894 409 
Q 2359 409 2629 706 
Q 2900 1003 2900 1516 
L 2900 3500 
L 3475 3500 
L 3475 0 
L 2900 0 
L 2900 538 
Q 2691 219 2414 64 
Q 2138 -91 1772 -91 
Q 1169 -91 856 284 
Q 544 659 544 1381 
z
M 1991 3584 
L 1991 3584 
z
" transform="scale(0.015625)"/>
      <path id="DejaVuSans-62" d="M 3116 1747 
Q 3116 2381 2855 2742 
Q 2594 3103 2138 3103 
Q 1681 3103 1420 2742 
Q 1159 2381 1159 1747 
Q 1159 1113 1420 752 
Q 1681 391 2138 391 
Q 2594 391 2855 752 
Q 3116 1113 3116 1747 
z
M 1159 2969 
Q 1341 3281 1617 3432 
Q 1894 3584 2278 3584 
Q 2916 3584 3314 3078 
Q 3713 2572 3713 1747 
Q 3713 922 3314 415 
Q 2916 -91 2278 -91 
Q 1894 -91 1617 61 
Q 1341 213 1159 525 
L 1159 0 
L 581 0 
L 581 4863 
L 1159 4863 
L 1159 2969 
z
" transform="scale(0.015625)"/>
      <path id="DejaVuSans-63" d="M 3122 3366 
L 3122 2828 
Q 2878 2963 2633 3030 
Q 2388 3097 2138 3097 
Q 1578 3097 1268 2742 
Q 959 2388 959 1747 
Q 959 1106 1268 751 
Q 1578 397 2138 397 
Q 2388 397 2633 464 
Q 2878 531 3122 666 
L 3122 134 
Q 2881 22 2623 -34 
Q 2366 -91 2075 -91 
Q 1284 -91 818 406 
Q 353 903 353 1747 
Q 353 2603 823 3093 
Q 1294 3584 2113 3584 
Q 2378 3584 2631 3529 
Q 2884 3475 3122 3366 
z
" transform="scale(0.015625)"/>
      <path id="DejaVuSans-72" d="M 2631 2963 
Q 2534 3019 2420 3045 
Q 2306 3072 2169 3072 
Q 1681 3072 1420 2755 
Q 1159 2438 1159 1844 
L 1159 0 
L 581 0 
L 581 3500 
L 1159 3500 
L 1159 2956 
Q 1341 3275 1631 3429 
Q 1922 3584 2338 3584 
Q 2397 3584 2469 3576 
Q 2541 3569 2628 3553 
L 2631 2963 
z
" transform="scale(0.015625)"/>
      <path id="DejaVuSans-69" d="M 603 3500 
L 1178 3500 
L 1178 0 
L 603 0 
L 603 3500 
z
M 603 4863 
L 1178 4863 
L 1178 4134 
L 603 4134 
L 603 4863 
z
" transform="scale(0.015625)"/>
      <path id="DejaVuSans-20" transform="scale(0.015625)"/>
      <path id="DejaVuSans-68" d="M 3513 2113 
L 3513 0 
L 2938 0 
L 2938 2094 
Q 2938 2591 2744 2837 
Q 2550 3084 2163 3084 
Q 1697 3084 1428 2787 
Q 1159 2491 1159 1978 
L 1159 0 
L 581 0 
L 581 4863 
L 1159 4863 
L 1159 2956 
Q 1366 3272 1645 3428 
Q 1925 3584 2291 3584 
Q 2894 3584 3203 3211 
Q 3513 2838 3513 2113 
z
" transform="scale(0.015625)"/>
      <path id="DejaVuSans-6f" d="M 1959 3097 
Q 1497 3097 1228 2736 
Q 959 2375 959 1747 
Q 959 1119 1226 758 
Q 1494 397 1959 397 
Q 2419 397 2687 759 
Q 2956 1122 2956 1747 
Q 2956 2369 2687 2733 
Q 2419 3097 1959 3097 
z
M 1959 3584 
Q 2709 3584 3137 3096 
Q 3566 2609 3566 1747 
Q 3566 888 3137 398 
Q 2709 -91 1959 -91 
Q 1206 -91 779 398 
Q 353 888 353 1747 
Q 353 2609 779 3096 
Q 1206 3584 1959 3584 
z
" transform="scale(0.015625)"/>
      <path id="DejaVuSans-79" d="M 2059 -325 
Q 1816 -950 1584 -1140 
Q 1353 -1331 966 -1331 
L 506 -1331 
L 506 -850 
L 844 -850 
Q 1081 -850 1212 -737 
Q 1344 -625 1503 -206 
L 1606 56 
L 191 3500 
L 800 3500 
L 1894 763 
L 2988 3500 
L 3597 3500 
L 2059 -325 
z
" transform="scale(0.015625)"/>
     </defs>
     <use xlink:href="#DejaVuSans-67"/>
     <use xlink:href="#DejaVuSans-65" transform="translate(63.476562 0)"/>
     <use xlink:href="#DejaVuSans-74" transform="translate(125 0)"/>
     <use xlink:href="#DejaVuSans-5f" transform="translate(164.208984 0)"/>
     <use xlink:href="#DejaVuSans-73" transform="translate(214.208984 0)"/>
     <use xlink:href="#DejaVuSans-75" transform="translate(266.308594 0)"/>
     <use xlink:href="#DejaVuSans-62" transform="translate(329.6875 0)"/>
     <use xlink:href="#DejaVuSans-73" transform="translate(393.164062 0)"/>
     <use xlink:href="#DejaVuSans-63" transform="translate(445.263672 0)"/>
     <use xlink:href="#DejaVuSans-72" transform="translate(500.244141 0)"/>
     <use xlink:href="#DejaVuSans-69" transform="translate(541.357422 0)"/>
     <use xlink:href="#DejaVuSans-62" transform="translate(569.140625 0)"/>
     <use xlink:href="#DejaVuSans-65" transform="translate(632.617188 0)"/>
     <use xlink:href="#DejaVuSans-20" transform="translate(694.140625 0)"/>
     <use xlink:href="#DejaVuSans-68" transform="translate(725.927734 0)"/>
     <use xlink:href="#DejaVuSans-69" transform="translate(789.306641 0)"/>
     <use xlink:href="#DejaVuSans-73" transform="translate(817.089844 0)"/>
     <use xlink:href="#DejaVuSans-74" transform="translate(869.189453 0)"/>
     <use xlink:href="#DejaVuSans-6f" transform="translate(908.398438 0)"/>
     <use xlink:href="#DejaVuSans-72" transform="translate(969.580078 0)"/>
     <use xlink:href="#DejaVuSans-79" transform="translate(1010.693359 0)"/>
    </g>
   </g>
   <g id="legend_1">
    <g id="line2d_35">
     <path d="M 815.08 328.498438 
L 825.08 328.498438 
L 835.08 328.498438 
" style="fill: none; stroke: #1f77b4; stroke-width: 1.5; stroke-linecap: square"/>
    </g>
    <g id="text_18">
     <!-- star -->
     <g style="fill: #a9a9a9" transform="translate(843.08 331.998438) scale(0.1 -0.1)">
      <defs>
       <path id="DejaVuSans-61" d="M 2194 1759 
Q 1497 1759 1228 1600 
Q 959 1441 959 1056 
Q 959 750 1161 570 
Q 1363 391 1709 391 
Q 2188 391 2477 730 
Q 2766 1069 2766 1631 
L 2766 1759 
L 2194 1759 
z
M 3341 1997 
L 3341 0 
L 2766 0 
L 2766 531 
Q 2569 213 2275 61 
Q 1981 -91 1556 -91 
Q 1019 -91 701 211 
Q 384 513 384 1019 
Q 384 1609 779 1909 
Q 1175 2209 1959 2209 
L 2766 2209 
L 2766 2266 
Q 2766 2663 2505 2880 
Q 2244 3097 1772 3097 
Q 1472 3097 1187 3025 
Q 903 2953 641 2809 
L 641 3341 
Q 956 3463 1253 3523 
Q 1550 3584 1831 3584 
Q 2591 3584 2966 3190 
Q 3341 2797 3341 1997 
z
" transform="scale(0.015625)"/>
      </defs>
      <use xlink:href="#DejaVuSans-73"/>
      <use xlink:href="#DejaVuSans-74" transform="translate(52.099609 0)"/>
      <use xlink:href="#DejaVuSans-61" transform="translate(91.308594 0)"/>
      <use xlink:href="#DejaVuSans-72" transform="translate(152.587891 0)"/>
     </g>
    </g>
    <g id="line2d_36">
     <path d="M 815.08 343.176562 
L 825.08 343.176562 
L 835.08 343.176562 
" style="fill: none; stroke: #ff7f0e; stroke-width: 1.5; stroke-linecap: square"/>
    </g>
    <g id="text_19">
     <!-- fork -->
     <g style="fill: #a9a9a9" transform="translate(843.08 346.676562) scale(0.1 -0.1)">
      <defs>
       <path id="DejaVuSans-66" d="M 2375 4863 
L 2375 4384 
L 1825 4384 
Q 1516 4384 1395 4259 
Q 1275 4134 1275 3809 
L 1275 3500 
L 2222 3500 
L 2222 3053 
L 1275 3053 
L 1275 0 
L 697 0 
L 697 3053 
L 147 3053 
L 147 3500 
L 697 3500 
L 697 3744 
Q 697 4328 969 4595 
Q 1241 4863 1831 4863 
L 2375 4863 
z
" transform="scale(0.015625)"/>
       <path id="DejaVuSans-6b" d="M 581 4863 
L 1159 4863 
L 1159 1991 
L 2875 3500 
L 3609 3500 
L 1753 1863 
L 3688 0 
L 2938 0 
L 1159 1709 
L 1159 0 
L 581 0 
L 581 4863 
z
" transform="scale(0.015625)"/>
      </defs>
      <use xlink:href="#DejaVuSans-66"/>
      <use xlink:href="#DejaVuSans-6f" transform="translate(35.205078 0)"/>
      <use xlink:href="#DejaVuSans-72" transform="translate(96.386719 0)"/>
      <use xlink:href="#DejaVuSans-6b" transform="translate(137.5 0)"/>
     </g>
    </g>
   </g>
  </g>
 </g>
 <defs>
  <clipPath id="pc4545a56be">
   <rect x="108" y="43.2" width="669.6" height="277.2"/>
  </clipPath>
 </defs>
</svg>
