<?xml version="1.0" encoding="utf-8" standalone="no"?>
<!DOCTYPE svg PUBLIC "-//W3C//DTD SVG 1.1//EN"
  "http://www.w3.org/Graphics/SVG/1.1/DTD/svg11.dtd">
<svg xmlns:xlink="http://www.w3.org/1999/xlink" width="864pt" height="360pt" viewBox="0 0 864 360" xmlns="http://www.w3.org/2000/svg" version="1.1">
 <metadata>
  <rdf:RDF xmlns:dc="http://purl.org/dc/elements/1.1/" xmlns:cc="http://creativecommons.org/ns#" xmlns:rdf="http://www.w3.org/1999/02/22-rdf-syntax-ns#">
   <cc:Work>
    <dc:type rdf:resource="http://purl.org/dc/dcmitype/StillImage"/>
    <dc:date>2026-03-07T08:21:01.880388</dc:date>
    <dc:format>image/svg+xml</dc:format>
    <dc:creator>
     <cc:Agent>
      <dc:title>Matplotlib v3.10.8, https://matplotlib.org/</dc:title>
     </cc:Agent>
    </dc:creator>
   </cc:Work>
  </rdf:RDF>
 </metadata>
 <defs>
  <style type="text/css">*{stroke-linejoin: round; stroke-linecap: butt}</style>
 </defs>
 <g id="figure_1">
  <g id="patch_1">
   <path d="M 0 360 
L 864 360 
L 864 0 
L 0 0 
L 0 360 
z
" style="fill: none; opacity: 0"/>
  </g>
  <g id="axes_1">
   <g id="patch_2">
    <path d="M 108 320.4 
L 777.6 320.4 
L 777.6 43.2 
L 108 43.2 
L 108 320.4 
z
" style="fill: none; opacity: 0"/>
   </g>
   <g id="matplotlib.axis_1">
    <g id="xtick_1">
     <g id="line2d_1">
      <path d="M 196.530668 320.4 
L 196.530668 43.2 
" clip-path="url(#p2f62bedbb0)" style="fill: none; stroke-dasharray: 5.12,1.28,0.8,1.28; stroke-dashoffset: 0; stroke: #b0b0b0; stroke-width: 0.8"/>
     </g>
     <g id="line2d_2">
      <defs>
       <path id="m9cc7398295" d="M 0 0 
L 0 3.5 
" style="stroke: #a9a9a9; stroke-width: 0.8"/>
      </defs>
      <g>
       <use xlink:href="#m9cc7398295" x="196.530668" y="320.4" style="fill: #a9a9a9; stroke: #a9a9a9; stroke-width: 0.8"/>
      </g>
     </g>
     <g id="text_1">
      <!-- 2022 -->
      <g style="fill: #a9a9a9" transform="translate(183.805668 334.998438) scale(0.1 -0.1)">
       <defs>
        <path id="DejaVuSans-32" d="M 1228 531 
L 3431 531 
L 3431 0 
L 469 0 
L 469 531 
Q 828 903 1448 1529 
Q 2069 2156 2228 2338 
Q 2531 2678 2651 2914 
Q 2772 3150 2772 3378 
Q 2772 3750 2511 3984 
Q 2250 4219 1831 4219 
Q 1534 4219 1204 4116 
Q 875 4013 500 3803 
L 500 4441 
Q 881 4594 1212 4672 
Q 1544 4750 1819 4750 
Q 2544 4750 2975 4387 
Q 3406 4025 3406 3419 
Q 3406 3131 3298 2873 
Q 3191 2616 2906 2266 
Q 2828 2175 2409 1742 
Q 1991 1309 1228 531 
z
" transform="scale(0.015625)"/>
        <path id="DejaVuSans-30" d="M 2034 4250 
Q 1547 4250 1301 3770 
Q 1056 3291 1056 2328 
Q 1056 1369 1301 889 
Q 1547 409 2034 409 
Q 2525 409 2770 889 
Q 3016 1369 3016 2328 
Q 3016 3291 2770 3770 
Q 2525 4250 2034 4250 
z
M 2034 4750 
Q 2819 4750 3233 4129 
Q 3647 3509 3647 2328 
Q 3647 1150 3233 529 
Q 2819 -91 2034 -91 
Q 1250 -91 836 529 
Q 422 1150 422 2328 
Q 422 3509 836 4129 
Q 1250 4750 2034 4750 
z
" transform="scale(0.015625)"/>
       </defs>
       <use xlink:href="#DejaVuSans-32"/>
       <use xlink:href="#DejaVuSans-30" transform="translate(63.623047 0)"/>
       <use xlink:href="#DejaVuSans-32" transform="translate(127.246094 0)"/>
       <use xlink:href="#DejaVuSans-32" transform="translate(190.869141 0)"/>
      </g>
     </g>
    </g>
    <g id="xtick_2">
     <g id="line2d_3">
      <path d="M 328.235146 320.4 
L 328.235146 43.2 
" clip-path="url(#p2f62bedbb0)" style="fill: none; stroke-dasharray: 5.12,1.28,0.8,1.28; stroke-dashoffset: 0; stroke: #b0b0b0; stroke-width: 0.8"/>
     </g>
     <g id="line2d_4">
      <g>
       <use xlink:href="#m9cc7398295" x="328.235146" y="320.4" style="fill: #a9a9a9; stroke: #a9a9a9; stroke-width: 0.8"/>
      </g>
     </g>
     <g id="text_2">
      <!-- 2023 -->
      <g style="fill: #a9a9a9" transform="translate(315.510146 334.998438) scale(0.1 -0.1)">
       <defs>
        <path id="DejaVuSans-33" d="M 2597 2516 
Q 3050 2419 3304 2112 
Q 3559 1806 3559 1356 
Q 3559 666 3084 287 
Q 2609 -91 1734 -91 
Q 1441 -91 1130 -33 
Q 819 25 488 141 
L 488 750 
Q 750 597 1062 519 
Q 1375 441 1716 441 
Q 2309 441 2620 675 
Q 2931 909 2931 1356 
Q 2931 1769 2642 2001 
Q 2353 2234 1838 2234 
L 1294 2234 
L 1294 2753 
L 1863 2753 
Q 2328 2753 2575 2939 
Q 2822 3125 2822 3475 
Q 2822 3834 2567 4026 
Q 2313 4219 1838 4219 
Q 1578 4219 1281 4162 
Q 984 4106 628 3988 
L 628 4550 
Q 988 4650 1302 4700 
Q 1616 4750 1894 4750 
Q 2613 4750 3031 4423 
Q 3450 4097 3450 3541 
Q 3450 3153 3228 2886 
Q 3006 2619 2597 2516 
z
" transform="scale(0.015625)"/>
       </defs>
       <use xlink:href="#DejaVuSans-32"/>
       <use xlink:href="#DejaVuSans-30" transform="translate(63.623047 0)"/>
       <use xlink:href="#DejaVuSans-32" transform="translate(127.246094 0)"/>
       <use xlink:href="#DejaVuSans-33" transform="translate(190.869141 0)"/>
      </g>
     </g>
    </g>
    <g id="xtick_3">
     <g id="line2d_5">
      <path d="M 459.939624 320.4 
L 459.939624 43.2 
" clip-path="url(#p2f62bedbb0)" style="fill: none; stroke-dasharray: 5.12,1.28,0.8,1.28; stroke-dashoffset: 0; stroke: #b0b0b0; stroke-width: 0.8"/>
     </g>
     <g id="line2d_6">
      <g>
       <use xlink:href="#m9cc7398295" x="459.939624" y="320.4" style="fill: #a9a9a9; stroke: #a9a9a9; stroke-width: 0.8"/>
      </g>
     </g>
     <g id="text_3">
      <!-- 2024 -->
      <g style="fill: #a9a9a9" transform="translate(447.214624 334.998438) scale(0.1 -0.1)">
       <defs>
        <path id="DejaVuSans-34" d="M 2419 4116 
L 825 1625 
L 2419 1625 
L 2419 4116 
z
M 2253 4666 
L 3047 4666 
L 3047 1625 
L 3713 1625 
L 3713 1100 
L 3047 1100 
L 3047 0 
L 2419 0 
L 2419 1100 
L 313 1100 
L 313 1709 
L 2253 4666 
z
" transform="scale(0.015625)"/>
       </defs>
       <use xlink:href="#DejaVuSans-32"/>
       <use xlink:href="#DejaVuSans-30" transform="translate(63.623047 0)"/>
       <use xlink:href="#DejaVuSans-32" transform="translate(127.246094 0)"/>
       <use xlink:href="#DejaVuSans-34" transform="translate(190.869141 0)"/>
      </g>
     </g>
    </g>
    <g id="xtick_4">
     <g id="line2d_7">
      <path d="M 592.004936 320.4 
L 592.004936 43.2 
" clip-path="url(#p2f62bedbb0)" style="fill: none; stroke-dasharray: 5.12,1.28,0.8,1.28; stroke-dashoffset: 0; stroke: #b0b0b0; stroke-width: 0.8"/>
     </g>
     <g id="line2d_8">
      <g>
       <use xlink:href="#m9cc7398295" x="592.004936" y="320.4" style="fill: #a9a9a9; stroke: #a9a9a9; stroke-width: 0.8"/>
      </g>
     </g>
     <g id="text_4">
      <!-- 2025 -->
      <g style="fill: #a9a9a9" transform="translate(579.279936 334.998438) scale(0.1 -0.1)">
       <defs>
        <path id="DejaVuSans-35" d="M 691 4666 
L 3169 4666 
L 3169 4134 
L 1269 4134 
L 1269 2991 
Q 1406 3038 1543 3061 
Q 1681 3084 1819 3084 
Q 2600 3084 3056 2656 
Q 3513 2228 3513 1497 
Q 3513 744 3044 326 
Q 2575 -91 1722 -91 
Q 1428 -91 1123 -41 
Q 819 9 494 109 
L 494 744 
Q 775 591 1075 516 
Q 1375 441 1709 441 
Q 2250 441 2565 725 
Q 2881 1009 2881 1497 
Q 2881 1984 2565 2268 
Q 2250 2553 1709 2553 
Q 1456 2553 1204 2497 
Q 953 2441 691 2322 
L 691 4666 
z
" transform="scale(0.015625)"/>
       </defs>
       <use xlink:href="#DejaVuSans-32"/>
       <use xlink:href="#DejaVuSans-30" transform="translate(63.623047 0)"/>
       <use xlink:href="#DejaVuSans-32" transform="translate(127.246094 0)"/>
       <use xlink:href="#DejaVuSans-35" transform="translate(190.869141 0)"/>
      </g>
     </g>
    </g>
    <g id="xtick_5">
     <g id="line2d_9">
      <path d="M 723.709414 320.4 
L 723.709414 43.2 
" clip-path="url(#p2f62bedbb0)" style="fill: none; stroke-dasharray: 5.12,1.28,0.8,1.28; stroke-dashoffset: 0; stroke: #b0b0b0; stroke-width: 0.8"/>
     </g>
     <g id="line2d_10">
      <g>
       <use xlink:href="#m9cc7398295" x="723.709414" y="320.4" style="fill: #a9a9a9; stroke: #a9a9a9; stroke-width: 0.8"/>
      </g>
     </g>
     <g id="text_5">
      <!-- 2026 -->
      <g style="fill: #a9a9a9" transform="translate(710.984414 334.998438) scale(0.1 -0.1)">
       <defs>
        <path id="DejaVuSans-36" d="M 2113 2584 
Q 1688 2584 1439 2293 
Q 1191 2003 1191 1497 
Q 1191 994 1439 701 
Q 1688 409 2113 409 
Q 2538 409 2786 701 
Q 3034 994 3034 1497 
Q 3034 2003 2786 2293 
Q 2538 2584 2113 2584 
z
M 3366 4563 
L 3366 3988 
Q 3128 4100 2886 4159 
Q 2644 4219 2406 4219 
Q 1781 4219 1451 3797 
Q 1122 3375 1075 2522 
Q 1259 2794 1537 2939 
Q 1816 3084 2150 3084 
Q 2853 3084 3261 2657 
Q 3669 2231 3669 1497 
Q 3669 778 3244 343 
Q 2819 -91 2113 -91 
Q 1303 -91 875 529 
Q 447 1150 447 2328 
Q 447 3434 972 4092 
Q 1497 4750 2381 4750 
Q 2619 4750 2861 4703 
Q 3103 4656 3366 4563 
z
" transform="scale(0.015625)"/>
       </defs>
       <use xlink:href="#DejaVuSans-32"/>
       <use xlink:href="#DejaVuSans-30" transform="translate(63.623047 0)"/>
       <use xlink:href="#DejaVuSans-32" transform="translate(127.246094 0)"/>
       <use xlink:href="#DejaVuSans-36" transform="translate(190.869141 0)"/>
      </g>
     </g>
    </g>
   </g>
   <g id="matplotlib.axis_2">
    <g id="ytick_1">
     <g id="line2d_11">
      <path d="M 108 307.828876 
L 777.6 307.828876 
" clip-path="url(#p2f62bedbb0)" style="fill: none; stroke-dasharray: 5.12,1.28,0.8,1.28; stroke-dashoffset: 0; stroke: #b0b0b0; stroke-width: 0.8"/>
     </g>
     <g id="line2d_12">
      <defs>
       <path id="m449d1f4fa6" d="M 0 0 
L -3.5 0 
" style="stroke: #a9a9a9; stroke-width: 0.8"/>
      </defs>
      <g>
       <use xlink:href="#m449d1f4fa6" x="108" y="307.828876" style="fill: #a9a9a9; stroke: #a9a9a9; stroke-width: 0.8"/>
      </g>
     </g>
     <g id="text_6">
      <!-- 0 -->
      <g style="fill: #a9a9a9" transform="translate(94.6375 311.628095) scale(0.1 -0.1)">
       <use xlink:href="#DejaVuSans-30"/>
      </g>
     </g>
    </g>
    <g id="ytick_2">
     <g id="line2d_13">
      <path d="M 108 278.952974 
L 777.6 278.952974 
" clip-path="url(#p2f62bedbb0)" style="fill: none; stroke-dasharray: 5.12,1.28,0.8,1.28; stroke-dashoffset: 0; stroke: #b0b0b0; stroke-width: 0.8"/>
     </g>
     <g id="line2d_14">
      <g>
       <use xlink:href="#m449d1f4fa6" x="108" y="278.952974" style="fill: #a9a9a9; stroke: #a9a9a9; stroke-width: 0.8"/>
      </g>
     </g>
     <g id="text_7">
      <!-- 1000 -->
      <g style="fill: #a9a9a9" transform="translate(75.55 282.752192) scale(0.1 -0.1)">
       <defs>
        <path id="DejaVuSans-31" d="M 794 531 
L 1825 531 
L 1825 4091 
L 703 3866 
L 703 4441 
L 1819 4666 
L 2450 4666 
L 2450 531 
L 3481 531 
L 3481 0 
L 794 0 
L 794 531 
z
" transform="scale(0.015625)"/>
       </defs>
       <use xlink:href="#DejaVuSans-31"/>
       <use xlink:href="#DejaVuSans-30" transform="translate(63.623047 0)"/>
       <use xlink:href="#DejaVuSans-30" transform="translate(127.246094 0)"/>
       <use xlink:href="#DejaVuSans-30" transform="translate(190.869141 0)"/>
      </g>
     </g>
    </g>
    <g id="ytick_3">
     <g id="line2d_15">
      <path d="M 108 250.077071 
L 777.6 250.077071 
" clip-path="url(#p2f62bedbb0)" style="fill: none; stroke-dasharray: 5.12,1.28,0.8,1.28; stroke-dashoffset: 0; stroke: #b0b0b0; stroke-width: 0.8"/>
     </g>
     <g id="line2d_16">
      <g>
       <use xlink:href="#m449d1f4fa6" x="108" y="250.077071" style="fill: #a9a9a9; stroke: #a9a9a9; stroke-width: 0.8"/>
      </g>
     </g>
     <g id="text_8">
      <!-- 2000 -->
      <g style="fill: #a9a9a9" transform="translate(75.55 253.87629) scale(0.1 -0.1)">
       <use xlink:href="#DejaVuSans-32"/>
       <use xlink:href="#DejaVuSans-30" transform="translate(63.623047 0)"/>
       <use xlink:href="#DejaVuSans-30" transform="translate(127.246094 0)"/>
       <use xlink:href="#DejaVuSans-30" transform="translate(190.869141 0)"/>
      </g>
     </g>
    </g>
    <g id="ytick_4">
     <g id="line2d_17">
      <path d="M 108 221.201169 
L 777.6 221.201169 
" clip-path="url(#p2f62bedbb0)" style="fill: none; stroke-dasharray: 5.12,1.28,0.8,1.28; stroke-dashoffset: 0; stroke: #b0b0b0; stroke-width: 0.8"/>
     </g>
     <g id="line2d_18">
      <g>
       <use xlink:href="#m449d1f4fa6" x="108" y="221.201169" style="fill: #a9a9a9; stroke: #a9a9a9; stroke-width: 0.8"/>
      </g>
     </g>
     <g id="text_9">
      <!-- 3000 -->
      <g style="fill: #a9a9a9" transform="translate(75.55 225.000388) scale(0.1 -0.1)">
       <use xlink:href="#DejaVuSans-33"/>
       <use xlink:href="#DejaVuSans-30" transform="translate(63.623047 0)"/>
       <use xlink:href="#DejaVuSans-30" transform="translate(127.246094 0)"/>
       <use xlink:href="#DejaVuSans-30" transform="translate(190.869141 0)"/>
      </g>
     </g>
    </g>
    <g id="ytick_5">
     <g id="line2d_19">
      <path d="M 108 192.325266 
L 777.6 192.325266 
" clip-path="url(#p2f62bedbb0)" style="fill: none; stroke-dasharray: 5.12,1.28,0.8,1.28; stroke-dashoffset: 0; stroke: #b0b0b0; stroke-width: 0.8"/>
     </g>
     <g id="line2d_20">
      <g>
       <use xlink:href="#m449d1f4fa6" x="108" y="192.325266" style="fill: #a9a9a9; stroke: #a9a9a9; stroke-width: 0.8"/>
      </g>
     </g>
     <g id="text_10">
      <!-- 4000 -->
      <g style="fill: #a9a9a9" transform="translate(75.55 196.124485) scale(0.1 -0.1)">
       <use xlink:href="#DejaVuSans-34"/>
       <use xlink:href="#DejaVuSans-30" transform="translate(63.623047 0)"/>
       <use xlink:href="#DejaVuSans-30" transform="translate(127.246094 0)"/>
       <use xlink:href="#DejaVuSans-30" transform="translate(190.869141 0)"/>
      </g>
     </g>
    </g>
    <g id="ytick_6">
     <g id="line2d_21">
      <path d="M 108 163.449364 
L 777.6 163.449364 
" clip-path="url(#p2f62bedbb0)" style="fill: none; stroke-dasharray: 5.12,1.28,0.8,1.28; stroke-dashoffset: 0; stroke: #b0b0b0; stroke-width: 0.8"/>
     </g>
     <g id="line2d_22">
      <g>
       <use xlink:href="#m449d1f4fa6" x="108" y="163.449364" style="fill: #a9a9a9; stroke: #a9a9a9; stroke-width: 0.8"/>
      </g>
     </g>
     <g id="text_11">
      <!-- 5000 -->
      <g style="fill: #a9a9a9" transform="translate(75.55 167.248583) scale(0.1 -0.1)">
       <use xlink:href="#DejaVuSans-35"/>
       <use xlink:href="#DejaVuSans-30" transform="translate(63.623047 0)"/>
       <use xlink:href="#DejaVuSans-30" transform="translate(127.246094 0)"/>
       <use xlink:href="#DejaVuSans-30" transform="translate(190.869141 0)"/>
      </g>
     </g>
    </g>
    <g id="ytick_7">
     <g id="line2d_23">
      <path d="M 108 134.573462 
L 777.6 134.573462 
" clip-path="url(#p2f62bedbb0)" style="fill: none; stroke-dasharray: 5.12,1.28,0.8,1.28; stroke-dashoffset: 0; stroke: #b0b0b0; stroke-width: 0.8"/>
     </g>
     <g id="line2d_24">
      <g>
       <use xlink:href="#m449d1f4fa6" x="108" y="134.573462" style="fill: #a9a9a9; stroke: #a9a9a9; stroke-width: 0.8"/>
      </g>
     </g>
     <g id="text_12">
      <!-- 6000 -->
      <g style="fill: #a9a9a9" transform="translate(75.55 138.37268) scale(0.1 -0.1)">
       <use xlink:href="#DejaVuSans-36"/>
       <use xlink:href="#DejaVuSans-30" transform="translate(63.623047 0)"/>
       <use xlink:href="#DejaVuSans-30" transform="translate(127.246094 0)"/>
       <use xlink:href="#DejaVuSans-30" transform="translate(190.869141 0)"/>
      </g>
     </g>
    </g>
    <g id="ytick_8">
     <g id="line2d_25">
      <path d="M 108 105.697559 
L 777.6 105.697559 
" clip-path="url(#p2f62bedbb0)" style="fill: none; stroke-dasharray: 5.12,1.28,0.8,1.28; stroke-dashoffset: 0; stroke: #b0b0b0; stroke-width: 0.8"/>
     </g>
     <g id="line2d_26">
      <g>
       <use xlink:href="#m449d1f4fa6" x="108" y="105.697559" style="fill: #a9a9a9; stroke: #a9a9a9; stroke-width: 0.8"/>
      </g>
     </g>
     <g id="text_13">
      <!-- 7000 -->
      <g style="fill: #a9a9a9" transform="translate(75.55 109.496778) scale(0.1 -0.1)">
       <defs>
        <path id="DejaVuSans-37" d="M 525 4666 
L 3525 4666 
L 3525 4397 
L 1831 0 
L 1172 0 
L 2766 4134 
L 525 4134 
L 525 4666 
z
" transform="scale(0.015625)"/>
       </defs>
       <use xlink:href="#DejaVuSans-37"/>
       <use xlink:href="#DejaVuSans-30" transform="translate(63.623047 0)"/>
       <use xlink:href="#DejaVuSans-30" transform="translate(127.246094 0)"/>
       <use xlink:href="#DejaVuSans-30" transform="translate(190.869141 0)"/>
      </g>
     </g>
    </g>
    <g id="ytick_9">
     <g id="line2d_27">
      <path d="M 108 76.821657 
L 777.6 76.821657 
" clip-path="url(#p2f62bedbb0)" style="fill: none; stroke-dasharray: 5.12,1.28,0.8,1.28; stroke-dashoffset: 0; stroke: #b0b0b0; stroke-width: 0.8"/>
     </g>
     <g id="line2d_28">
      <g>
       <use xlink:href="#m449d1f4fa6" x="108" y="76.821657" style="fill: #a9a9a9; stroke: #a9a9a9; stroke-width: 0.8"/>
      </g>
     </g>
     <g id="text_14">
      <!-- 8000 -->
      <g style="fill: #a9a9a9" transform="translate(75.55 80.620876) scale(0.1 -0.1)">
       <defs>
        <path id="DejaVuSans-38" d="M 2034 2216 
Q 1584 2216 1326 1975 
Q 1069 1734 1069 1313 
Q 1069 891 1326 650 
Q 1584 409 2034 409 
Q 2484 409 2743 651 
Q 3003 894 3003 1313 
Q 3003 1734 2745 1975 
Q 2488 2216 2034 2216 
z
M 1403 2484 
Q 997 2584 770 2862 
Q 544 3141 544 3541 
Q 544 4100 942 4425 
Q 1341 4750 2034 4750 
Q 2731 4750 3128 4425 
Q 3525 4100 3525 3541 
Q 3525 3141 3298 2862 
Q 3072 2584 2669 2484 
Q 3125 2378 3379 2068 
Q 3634 1759 3634 1313 
Q 3634 634 3220 271 
Q 2806 -91 2034 -91 
Q 1263 -91 848 271 
Q 434 634 434 1313 
Q 434 1759 690 2068 
Q 947 2378 1403 2484 
z
M 1172 3481 
Q 1172 3119 1398 2916 
Q 1625 2713 2034 2713 
Q 2441 2713 2670 2916 
Q 2900 3119 2900 3481 
Q 2900 3844 2670 4047 
Q 2441 4250 2034 4250 
Q 1625 4250 1398 4047 
Q 1172 3844 1172 3481 
z
" transform="scale(0.015625)"/>
       </defs>
       <use xlink:href="#DejaVuSans-38"/>
       <use xlink:href="#DejaVuSans-30" transform="translate(63.623047 0)"/>
       <use xlink:href="#DejaVuSans-30" transform="translate(127.246094 0)"/>
       <use xlink:href="#DejaVuSans-30" transform="translate(190.869141 0)"/>
      </g>
     </g>
    </g>
    <g id="ytick_10">
     <g id="line2d_29">
      <path d="M 108 47.945755 
L 777.6 47.945755 
" clip-path="url(#p2f62bedbb0)" style="fill: none; stroke-dasharray: 5.12,1.28,0.8,1.28; stroke-dashoffset: 0; stroke: #b0b0b0; stroke-width: 0.8"/>
     </g>
     <g id="line2d_30">
      <g>
       <use xlink:href="#m449d1f4fa6" x="108" y="47.945755" style="fill: #a9a9a9; stroke: #a9a9a9; stroke-width: 0.8"/>
      </g>
     </g>
     <g id="text_15">
      <!-- 9000 -->
      <g style="fill: #a9a9a9" transform="translate(75.55 51.744973) scale(0.1 -0.1)">
       <defs>
        <path id="DejaVuSans-39" d="M 703 97 
L 703 672 
Q 941 559 1184 500 
Q 1428 441 1663 441 
Q 2288 441 2617 861 
Q 2947 1281 2994 2138 
Q 2813 1869 2534 1725 
Q 2256 1581 1919 1581 
Q 1219 1581 811 2004 
Q 403 2428 403 3163 
Q 403 3881 828 4315 
Q 1253 4750 1959 4750 
Q 2769 4750 3195 4129 
Q 3622 3509 3622 2328 
Q 3622 1225 3098 567 
Q 2575 -91 1691 -91 
Q 1453 -91 1209 -44 
Q 966 3 703 97 
z
M 1959 2075 
Q 2384 2075 2632 2365 
Q 2881 2656 2881 3163 
Q 2881 3666 2632 3958 
Q 2384 4250 1959 4250 
Q 1534 4250 1286 3958 
Q 1038 3666 1038 3163 
Q 1038 2656 1286 2365 
Q 1534 2075 1959 2075 
z
" transform="scale(0.015625)"/>
       </defs>
       <use xlink:href="#DejaVuSans-39"/>
       <use xlink:href="#DejaVuSans-30" transform="translate(63.623047 0)"/>
       <use xlink:href="#DejaVuSans-30" transform="translate(127.246094 0)"/>
       <use xlink:href="#DejaVuSans-30" transform="translate(190.869141 0)"/>
      </g>
     </g>
    </g>
   </g>
   <g id="line2d_31">
    <path d="M 138.436364 307.742248 
L 140.601369 307.540117 
L 140.962203 307.366861 
L 142.40554 307.16473 
L 143.848876 306.847095 
L 144.570545 306.731592 
L 146.374716 306.558336 
L 147.096384 306.269577 
L 147.457218 305.749811 
L 147.818052 305.489928 
L 148.178887 304.623651 
L 148.539721 304.565899 
L 149.261389 304.103884 
L 149.983058 303.555242 
L 151.426394 302.457958 
L 151.787229 302.313579 
L 152.508897 301.851564 
L 153.591399 301.302922 
L 153.952234 300.667652 
L 154.673902 300.090134 
L 155.39557 299.859127 
L 156.478073 299.685871 
L 158.643078 299.339361 
L 159.003912 299.166105 
L 161.529752 298.935098 
L 162.973088 298.559711 
L 165.859762 298.126573 
L 166.220596 297.924441 
L 166.58143 297.86669 
L 167.303099 297.606806 
L 169.828938 297.144792 
L 170.550606 296.913785 
L 173.798114 296.336267 
L 174.519782 296.163011 
L 175.963119 295.96088 
L 176.684787 295.729873 
L 177.045622 295.181231 
L 178.128124 294.719216 
L 179.210627 294.401581 
L 179.571461 294.19945 
L 180.293129 294.05507 
L 182.0973 293.593056 
L 183.179803 293.333173 
L 184.62314 292.957786 
L 184.983974 292.92891 
L 185.705642 292.553524 
L 186.066476 292.495772 
L 186.42731 292.29364 
L 191.118155 291.456239 
L 192.561492 290.792094 
L 193.28316 290.589962 
L 194.004828 290.272327 
L 194.726497 289.723685 
L 195.808999 289.492678 
L 203.747351 287.00935 
L 204.108186 286.980474 
L 205.190688 286.633964 
L 205.551522 286.633964 
L 205.912357 286.460708 
L 206.634025 286.37408 
L 206.994859 286.229701 
L 208.79903 286.143073 
L 209.159864 286.056446 
L 209.881533 285.652183 
L 210.964035 285.24792 
L 211.685704 284.843658 
L 212.768206 284.352767 
L 214.211543 283.601994 
L 214.572377 283.197731 
L 215.294045 281.984943 
L 216.376548 281.638432 
L 216.737382 281.349673 
L 217.819885 280.945411 
L 218.180719 280.570024 
L 219.263221 280.10801 
L 219.624056 279.905878 
L 221.789061 277.278171 
L 222.510729 276.93166 
L 223.954066 275.892128 
L 224.675734 275.372362 
L 225.036568 274.823719 
L 225.397403 273.928567 
L 225.758237 273.351048 
L 229.366579 270.03032 
L 230.088247 269.308422 
L 231.531584 268.326641 
L 231.892418 267.980131 
L 232.614086 267.749123 
L 233.696589 267.084978 
L 234.779091 266.305328 
L 236.222428 264.890409 
L 236.944097 264.572774 
L 237.665765 264.053008 
L 238.026599 263.822001 
L 238.387433 263.764249 
L 239.469936 263.100103 
L 239.83077 262.666965 
L 241.634941 261.598556 
L 241.995775 261.454177 
L 243.078278 260.645651 
L 248.490791 258.566586 
L 249.212459 257.844689 
L 250.294961 257.267171 
L 251.01663 256.776281 
L 251.738298 256.545273 
L 252.099132 256.28539 
L 252.459967 256.169887 
L 253.542469 255.390237 
L 255.34664 254.957099 
L 256.429143 254.264077 
L 257.511645 254.004194 
L 257.872479 253.917566 
L 258.954982 253.109041 
L 260.398319 252.675902 
L 260.759153 252.387143 
L 262.924158 251.578618 
L 263.645826 251.434239 
L 264.367495 251.116604 
L 266.893334 250.134823 
L 267.615002 250.048195 
L 269.058339 249.470677 
L 273.027515 247.362736 
L 273.749184 247.016226 
L 274.470852 246.669715 
L 275.19252 246.525335 
L 275.914189 246.063321 
L 276.635857 245.861189 
L 277.71836 245.399175 
L 279.161696 245.197044 
L 279.883365 244.792781 
L 280.244199 244.44627 
L 280.605033 243.753249 
L 282.04837 243.32011 
L 283.491707 242.627088 
L 286.739214 241.096666 
L 287.460883 240.92341 
L 288.543385 240.345892 
L 288.904219 240.28814 
L 290.70839 239.335235 
L 291.430059 238.844345 
L 292.512561 238.613338 
L 295.760069 237.458302 
L 297.203406 236.823032 
L 297.56424 236.534273 
L 298.285908 236.13001 
L 299.007577 235.841251 
L 299.368411 235.754624 
L 300.811748 234.974974 
L 301.172582 234.570712 
L 301.533416 234.339704 
L 301.89425 234.253077 
L 302.615919 233.617807 
L 302.976753 233.560055 
L 303.337587 232.924785 
L 303.698421 232.780406 
L 304.059255 232.462771 
L 304.420089 232.405019 
L 305.141758 231.914129 
L 305.863426 231.654245 
L 306.22426 231.365486 
L 306.945929 230.961224 
L 308.389266 230.037195 
L 310.554271 229.026538 
L 310.915105 228.362393 
L 311.636773 227.784875 
L 311.997607 227.698247 
L 314.162612 226.600963 
L 314.884281 226.283328 
L 315.605949 225.734685 
L 316.327618 224.955036 
L 318.131789 223.540117 
L 318.853457 222.933723 
L 319.214291 222.760468 
L 319.935959 221.980818 
L 321.018462 221.461052 
L 321.74013 221.027913 
L 322.100965 220.91241 
L 322.461799 220.623651 
L 322.822633 220.565899 
L 326.070141 218.833345 
L 326.791809 218.631213 
L 328.235146 218.111447 
L 328.956814 217.620557 
L 330.400151 217.071915 
L 331.121819 216.6099 
L 331.843488 216.321141 
L 332.565156 215.772499 
L 333.286824 214.242076 
L 334.008493 213.375799 
L 335.090995 212.769405 
L 335.812664 212.45177 
L 336.173498 212.394019 
L 336.895166 212.047508 
L 338.699337 211.383362 
L 339.421006 210.892472 
L 340.503508 210.430457 
L 342.307679 209.304297 
L 343.029347 208.611275 
L 344.11185 208.062633 
L 344.472684 207.773874 
L 345.194353 207.398487 
L 347.359358 206.301203 
L 348.081026 206.099072 
L 349.163529 205.752561 
L 350.606865 205.059539 
L 353.493539 203.615744 
L 354.215207 203.211482 
L 354.576041 203.038226 
L 355.29771 202.431832 
L 356.019378 202.229701 
L 356.380212 201.88319 
L 356.741047 201.825438 
L 357.462715 201.24792 
L 359.266886 200.12176 
L 359.988554 199.890753 
L 360.349388 199.659746 
L 360.710223 199.601994 
L 362.875228 198.649089 
L 367.205238 197.263046 
L 368.28774 196.483396 
L 369.009409 196.079134 
L 370.452746 195.357236 
L 371.535248 194.606463 
L 372.256917 194.433207 
L 373.339419 193.740186 
L 376.586927 192.58515 
L 377.308595 192.325266 
L 378.751932 192.007631 
L 379.4736 191.776624 
L 381.277771 191.141354 
L 382.360274 190.794844 
L 383.081942 190.621588 
L 385.246947 190.217326 
L 385.968616 190.072946 
L 387.051118 189.813063 
L 387.411952 189.639807 
L 388.133621 189.495428 
L 388.855289 189.293297 
L 389.576957 188.946786 
L 389.937792 188.802406 
L 390.298626 188.802406 
L 395.711139 187.0121 
L 396.071973 186.607838 
L 398.236978 185.654933 
L 399.680315 185.135167 
L 400.041149 184.90416 
L 401.123651 184.557649 
L 402.566988 184.009007 
L 402.927822 183.691372 
L 404.010325 183.460364 
L 404.731993 183.113854 
L 405.092828 182.651839 
L 409.062004 181.72781 
L 409.422838 181.72781 
L 410.144506 181.496803 
L 413.392014 180.659402 
L 414.113682 180.486146 
L 420.608698 178.320454 
L 420.969532 178.060571 
L 421.6912 177.829563 
L 424.577874 176.790031 
L 425.299542 176.732279 
L 426.742879 176.299141 
L 427.103713 176.068133 
L 427.825381 175.837126 
L 428.54705 175.548367 
L 428.907884 175.259608 
L 429.268718 175.17298 
L 429.629552 174.970849 
L 429.990386 174.941973 
L 434.320397 173.324923 
L 437.567904 172.256514 
L 439.011241 171.01485 
L 441.53708 169.88869 
L 444.06292 168.76253 
L 444.784588 168.560399 
L 448.032096 166.914472 
L 448.753764 166.481334 
L 452.001272 164.864283 
L 452.362106 164.575524 
L 454.166277 163.882503 
L 456.692116 162.929598 
L 457.413785 162.84297 
L 457.774619 162.583087 
L 459.217955 162.294328 
L 459.939624 161.976693 
L 461.743795 161.08154 
L 466.434639 158.915847 
L 467.517142 158.540461 
L 467.877976 158.280578 
L 468.599644 158.19395 
L 468.960479 157.962943 
L 469.682147 157.847439 
L 474.372991 156.086009 
L 475.455494 155.826126 
L 476.898831 155.190856 
L 477.620499 154.786593 
L 479.063836 154.006944 
L 479.785504 153.833689 
L 480.146338 153.602681 
L 480.507172 153.54493 
L 482.311343 152.620901 
L 487.002188 150.801719 
L 487.363022 150.743967 
L 488.806359 150.022069 
L 489.528027 149.87769 
L 490.249696 149.444551 
L 491.693032 148.722654 
L 498.188048 146.152699 
L 499.631384 144.911035 
L 500.713887 144.477896 
L 503.239726 143.207356 
L 503.60056 142.947473 
L 504.322229 142.745342 
L 505.043897 142.341079 
L 506.1264 142.081196 
L 511.899747 139.65562 
L 513.703918 138.904847 
L 515.868923 138.096322 
L 517.673094 137.172293 
L 518.394762 136.941286 
L 518.755596 136.594775 
L 519.838099 136.161636 
L 520.198933 136.103884 
L 521.64227 135.410863 
L 522.724772 135.064352 
L 523.807275 134.660089 
L 524.889777 134.342454 
L 525.250612 134.284703 
L 525.97228 133.88044 
L 526.333114 133.736061 
L 526.693948 133.447301 
L 527.776451 133.158542 
L 528.498119 132.869783 
L 529.219788 132.552149 
L 530.663124 131.945755 
L 533.188964 131.310485 
L 533.910632 131.021726 
L 535.353969 130.732967 
L 536.075637 130.588587 
L 537.15814 130.155449 
L 538.240642 129.924441 
L 540.405647 128.59615 
L 541.48815 127.96088 
L 543.653155 127.267858 
L 544.013989 126.979099 
L 546.900663 125.939567 
L 547.983165 125.593056 
L 548.704834 125.188793 
L 549.426502 124.986662 
L 549.787336 124.784531 
L 550.509005 124.640151 
L 552.313176 123.80275 
L 553.034844 123.513991 
L 554.478181 122.936473 
L 554.839015 122.589962 
L 555.199849 122.53221 
L 556.643186 121.925816 
L 558.086523 121.55043 
L 558.447357 121.521554 
L 558.808191 121.348298 
L 559.529859 121.203919 
L 562.777367 120.193262 
L 563.499035 119.615744 
L 564.942372 118.778343 
L 565.303206 118.691715 
L 565.664041 118.489584 
L 566.024875 118.431832 
L 569.272382 116.814782 
L 569.633217 116.497147 
L 571.437388 116.064008 
L 572.51989 115.573118 
L 573.241558 115.370987 
L 573.602393 115.197731 
L 573.963227 114.880096 
L 576.489066 113.956067 
L 577.571569 113.465177 
L 577.932403 113.436301 
L 578.654071 113.147542 
L 580.097408 112.512272 
L 582.262413 111.96363 
L 583.344916 111.47274 
L 586.592423 110.404331 
L 587.314092 110.000069 
L 599.582454 106.18845 
L 600.304122 105.986318 
L 601.386625 105.582056 
L 601.747459 105.582056 
L 602.829962 105.322173 
L 603.55163 105.177793 
L 604.273298 104.975662 
L 605.355801 104.398144 
L 606.438304 104.051633 
L 608.964143 103.185356 
L 610.40748 102.434582 
L 612.933319 101.568305 
L 613.294153 101.25067 
L 614.015822 101.019663 
L 614.376656 100.788656 
L 615.098324 100.702028 
L 617.624163 99.980131 
L 618.706666 99.749123 
L 621.593339 98.709591 
L 626.284184 96.890409 
L 627.005852 96.774905 
L 627.727521 96.630526 
L 628.088355 96.630526 
L 629.170857 96.284015 
L 630.25336 95.937504 
L 633.140033 95.100103 
L 634.58337 94.782468 
L 634.944204 94.551461 
L 635.665873 94.407081 
L 637.109209 94.118322 
L 638.191712 93.598556 
L 639.274215 93.338673 
L 639.995883 93.021038 
L 642.160888 92.241389 
L 642.521722 92.183637 
L 643.243391 91.923754 
L 647.573401 90.797594 
L 649.738406 90.04682 
L 650.460074 89.989068 
L 652.625079 89.440426 
L 653.346748 89.122791 
L 653.707582 89.06504 
L 654.068416 88.891784 
L 654.790085 88.256514 
L 658.037592 86.985975 
L 658.759261 86.870471 
L 661.645934 85.88869 
L 662.728437 85.282296 
L 663.089271 85.195669 
L 663.450105 84.90691 
L 664.532608 84.589275 
L 669.94512 82.077071 
L 671.749291 81.441801 
L 672.110126 81.124166 
L 672.47096 81.037539 
L 673.192628 80.575524 
L 674.275131 80.257889 
L 675.718467 79.651495 
L 676.079302 79.622619 
L 677.883473 78.929598 
L 678.605141 78.785218 
L 679.326809 78.265452 
L 679.687643 78.265452 
L 681.13098 77.745686 
L 682.574317 77.456927 
L 684.017654 76.821657 
L 684.378488 76.821657 
L 685.46099 76.44627 
L 686.182659 76.330767 
L 687.265161 75.695497 
L 687.98683 75.32011 
L 690.873503 74.280578 
L 691.595172 74.04957 
L 693.399343 73.703059 
L 699.17269 71.941629 
L 699.533524 71.883878 
L 700.255192 71.595119 
L 701.698529 71.277484 
L 704.585202 70.209075 
L 705.306871 70.064696 
L 706.750207 69.804813 
L 707.471876 69.689309 
L 708.915213 69.111791 
L 709.636881 68.90966 
L 710.358549 68.794156 
L 711.801886 68.332142 
L 712.16272 68.332142 
L 712.884389 67.927879 
L 714.68856 67.465865 
L 715.410228 67.205981 
L 716.131896 67.061602 
L 718.296901 66.108697 
L 718.657736 66.050945 
L 719.379404 65.704435 
L 720.101072 65.3868 
L 720.822741 65.069165 
L 721.544409 64.780406 
L 721.905243 64.578274 
L 722.266077 64.520523 
L 722.987746 64.202888 
L 724.070248 63.740873 
L 725.874419 62.961224 
L 726.235254 62.730217 
L 726.596088 62.643589 
L 726.956922 62.412582 
L 727.317756 62.35483 
L 728.039424 61.892815 
L 730.20443 61.373049 
L 730.926098 60.968787 
L 731.286932 60.911035 
L 732.730269 60.333517 
L 738.142782 58.283328 
L 739.586118 57.936817 
L 741.029455 57.763561 
L 742.111958 57.532554 
L 742.472792 57.474802 
L 743.19446 57.012788 
L 744.276963 56.608525 
L 744.998631 56.43527 
L 745.7203 56.29089 
L 746.441968 55.94438 
L 746.802802 55.8 
L 747.163636 55.8 
L 747.163636 55.8 
" clip-path="url(#p2f62bedbb0)" style="fill: none; stroke: #1f77b4; stroke-width: 1.5; stroke-linecap: square"/>
   </g>
   <g id="line2d_32">
    <path d="M 138.797198 307.8 
L 142.044706 307.713372 
L 144.931379 307.568993 
L 146.374716 307.568993 
L 147.096384 307.453489 
L 155.756405 306.847095 
L 158.643078 306.760468 
L 160.447249 306.702716 
L 165.138093 306.616088 
L 166.942264 306.558336 
L 170.189772 306.471708 
L 171.633109 306.442833 
L 175.241451 306.356205 
L 176.684787 306.211825 
L 178.128124 306.182949 
L 180.293129 306.096322 
L 181.736466 306.067446 
L 183.540637 306.009694 
L 184.983974 305.865315 
L 188.231481 305.778687 
L 188.95315 305.720935 
L 190.396487 305.634307 
L 192.561492 305.54768 
L 194.004828 305.461052 
L 200.499844 305.027913 
L 203.025683 304.941286 
L 204.108186 304.825782 
L 205.912357 304.739154 
L 209.520698 304.537023 
L 213.12904 304.479271 
L 214.572377 304.334892 
L 216.376548 304.248264 
L 219.98489 303.872877 
L 222.149895 303.584118 
L 223.593232 303.526366 
L 226.479905 303.122104 
L 228.64491 303.064352 
L 229.727413 302.948848 
L 230.809915 302.862221 
L 249.573293 301.447301 
L 252.099132 301.360674 
L 253.542469 301.187418 
L 255.34664 301.100791 
L 257.511645 301.014163 
L 259.315816 300.927535 
L 260.759153 300.898659 
L 262.563324 300.840908 
L 263.284992 300.75428 
L 268.336671 300.667652 
L 269.058339 300.581024 
L 273.388349 300.494397 
L 276.635857 300.321141 
L 279.161696 300.234514 
L 280.605033 300.061258 
L 283.130872 299.97463 
L 283.852541 299.859127 
L 285.656712 299.801375 
L 289.265054 299.743623 
L 290.70839 299.599244 
L 292.151727 299.570368 
L 293.23423 299.48374 
L 294.677566 299.339361 
L 298.285908 299.137229 
L 301.89425 299.050602 
L 305.141758 298.877346 
L 306.22426 298.84847 
L 306.945929 298.732967 
L 308.7501 298.675215 
L 309.471768 298.617463 
L 311.275939 298.530835 
L 312.719276 298.501959 
L 315.245115 298.415332 
L 324.626804 297.751186 
L 326.791809 297.664558 
L 328.59598 297.606806 
L 333.647659 297.520179 
L 334.369327 297.433551 
L 339.421006 297.346923 
L 343.029347 297.144792 
L 343.751016 297.115916 
L 344.472684 297.029288 
L 346.276855 296.942661 
L 348.081026 296.884909 
L 349.885197 296.798281 
L 351.689368 296.740529 
L 354.936876 296.653902 
L 357.101881 296.567274 
L 362.153559 296.480646 
L 366.122735 296.249639 
L 367.566072 296.191887 
L 368.648575 296.10526 
L 373.700253 296.018632 
L 375.865258 295.932004 
L 382.360274 295.845376 
L 383.80361 295.816501 
L 388.133621 295.758749 
L 388.855289 295.700997 
L 393.906968 295.614369 
L 395.350304 295.585493 
L 404.731993 295.498866 
L 406.896998 295.412238 
L 422.052034 295.32561 
L 423.856205 295.267858 
L 434.320397 295.181231 
L 438.289573 294.950223 
L 440.454578 294.863596 
L 442.619583 294.776968 
L 446.227925 294.69034 
L 448.753764 294.574837 
L 451.640438 294.488209 
L 454.527111 294.343829 
L 461.382961 294.257202 
L 463.547966 294.170574 
L 467.517142 294.083946 
L 470.042981 293.968443 
L 472.56882 293.910691 
L 473.290489 293.852939 
L 481.950509 293.766311 
L 485.558851 293.56418 
L 488.08469 293.477552 
L 492.053866 293.246545 
L 496.383877 293.159917 
L 497.827213 293.131042 
L 498.548882 293.07329 
L 500.353053 292.871158 
L 503.961395 292.784531 
L 504.683063 292.697903 
L 508.291405 292.611275 
L 510.095576 292.553524 
L 514.064752 292.524648 
L 514.78642 292.43802 
L 518.755596 292.351392 
L 519.477265 292.29364 
L 527.415617 292.207013 
L 529.580622 292.120385 
L 534.993135 292.033757 
L 536.436471 292.004881 
L 539.683979 291.976006 
L 540.405647 291.889378 
L 545.096492 291.80275 
L 546.900663 291.744998 
L 553.395678 291.658371 
L 554.478181 291.571743 
L 555.560683 291.485115 
L 556.643186 291.398487 
L 562.055699 291.31186 
L 564.220704 291.225232 
L 574.684895 291.138604 
L 577.932403 290.965349 
L 582.984081 290.878721 
L 584.427418 290.849845 
L 588.757428 290.763218 
L 590.561599 290.705466 
L 598.860786 290.618838 
L 601.025791 290.53221 
L 607.159972 290.445583 
L 608.603309 290.416707 
L 612.211651 290.330079 
L 614.73749 290.214575 
L 618.706666 290.127948 
L 621.232505 290.012444 
L 624.480013 289.954692 
L 625.201681 289.896941 
L 633.140033 289.810313 
L 635.305039 289.723685 
L 637.830878 289.637057 
L 639.635049 289.579306 
L 650.09924 289.492678 
L 652.264245 289.40605 
L 658.398426 289.319422 
L 660.202597 289.261671 
L 664.893442 289.175043 
L 667.058447 289.088415 
L 669.94512 289.001788 
L 672.110126 288.91516 
L 686.543493 288.828532 
L 689.430167 288.684153 
L 697.729353 288.597525 
L 699.17269 288.568649 
L 707.83271 288.482021 
L 709.636881 288.42427 
L 721.183575 288.337642 
L 722.626912 288.308766 
L 733.451937 288.222138 
L 734.173606 288.164386 
L 743.19446 288.077759 
L 744.998631 288.020007 
L 747.163636 287.991131 
L 747.163636 287.991131 
" clip-path="url(#p2f62bedbb0)" style="fill: none; stroke: #ff7f0e; stroke-width: 1.5; stroke-linecap: square"/>
   </g>
   <g id="patch_3">
    <path d="M 108 320.4 
L 108 43.2 
" style="fill: none; stroke: #a9a9a9; stroke-width: 0.8; stroke-linejoin: miter; stroke-linecap: square"/>
   </g>
   <g id="patch_4">
    <path d="M 777.6 320.4 
L 777.6 43.2 
" style="fill: none"/>
   </g>
   <g id="patch_5">
    <path d="M 108 320.4 
L 777.6 320.4 
" style="fill: none; stroke: #a9a9a9; stroke-width: 0.8; stroke-linejoin: miter; stroke-linecap: square"/>
   </g>
   <g id="patch_6">
    <path d="M 108 43.2 
L 777.6 43.2 
" style="fill: none"/>
   </g>
   <g id="text_16">
    <!-- get_subscribe history -->
    <g style="fill: #a9a9a9" transform="translate(378.6075 37.2) scale(0.12 -0.12)">
     <defs>
      <path id="DejaVuSans-67" d="M 2906 1791 
Q 2906 2416 2648 2759 
Q 2391 3103 1925 3103 
Q 1463 3103 1205 2759 
Q 947 2416 947 1791 
Q 947 1169 1205 825 
Q 1463 481 1925 481 
Q 2391 481 2648 825 
Q 2906 1169 2906 1791 
z
M 3481 434 
Q 3481 -459 3084 -895 
Q 2688 -1331 1869 -1331 
Q 1566 -1331 1297 -1286 
Q 1028 -1241 775 -1147 
L 775 -588 
Q 1028 -725 1275 -790 
Q 1522 -856 1778 -856 
Q 2344 -856 2625 -561 
Q 2906 -266 2906 331 
L 2906 616 
Q 2728 306 2450 153 
Q 2172 0 1784 0 
Q 1141 0 747 490 
Q 353 981 353 1791 
Q 353 2603 747 3093 
Q 1141 3584 1784 3584 
Q 2172 3584 2450 3431 
Q 2728 3278 2906 2969 
L 2906 3500 
L 3481 3500 
L 3481 434 
z
" transform="scale(0.015625)"/>
      <path id="DejaVuSans-65" d="M 3597 1894 
L 3597 1613 
L 953 1613 
Q 991 1019 1311 708 
Q 1631 397 2203 397 
Q 2534 397 2845 478 
Q 3156 559 3463 722 
L 3463 178 
Q 3153 47 2828 -22 
Q 2503 -91 2169 -91 
Q 1331 -91 842 396 
Q 353 884 353 1716 
Q 353 2575 817 3079 
Q 1281 3584 2069 3584 
Q 2775 3584 3186 3129 
Q 3597 2675 3597 1894 
z
M 3022 2063 
Q 3016 2534 2758 2815 
Q 2500 3097 2075 3097 
Q 1594 3097 1305 2825 
Q 1016 2553 972 2059 
L 3022 2063 
z
" transform="scale(0.015625)"/>
      <path id="DejaVuSans-74" d="M 1172 4494 
L 1172 3500 
L 2356 3500 
L 2356 3053 
L 1172 3053 
L 1172 1153 
Q 1172 725 1289 603 
Q 1406 481 1766 481 
L 2356 481 
L 2356 0 
L 1766 0 
Q 1100 0 847 248 
Q 594 497 594 1153 
L 594 3053 
L 172 3053 
L 172 3500 
L 594 3500 
L 594 4494 
L 1172 4494 
z
" transform="scale(0.015625)"/>
      <path id="DejaVuSans-5f" d="M 3263 -1063 
L 3263 -1509 
L -63 -1509 
L -63 -1063 
L 3263 -1063 
z
" transform="scale(0.015625)"/>
      <path id="DejaVuSans-73" d="M 2834 3397 
L 2834 2853 
Q 2591 2978 2328 3040 
Q 2066 3103 1784 3103 
Q 1356 3103 1142 2972 
Q 928 2841 928 2578 
Q 928 2378 1081 2264 
Q 1234 2150 1697 2047 
L 1894 2003 
Q 2506 1872 2764 1633 
Q 3022 1394 3022 966 
Q 3022 478 2636 193 
Q 2250 -91 1575 -91 
Q 1294 -91 989 -36 
Q 684 19 347 128 
L 347 722 
Q 666 556 975 473 
Q 1284 391 1588 391 
Q 1994 391 2212 530 
Q 2431 669 2431 922 
Q 2431 1156 2273 1281 
Q 2116 1406 1581 1522 
L 1381 1569 
Q 847 1681 609 1914 
Q 372 2147 372 2553 
Q 372 3047 722 3315 
Q 1072 3584 1716 3584 
Q 2034 3584 2315 3537 
Q 2597 3491 2834 3397 
z
" transform="scale(0.015625)"/>
      <path id="DejaVuSans-75" d="M 544 1381 
L 544 3500 
L 1119 3500 
L 1119 1403 
Q 1119 906 1312 657 
Q 1506 409 1894 409 
Q 2359 409 2629 706 
Q 2900 1003 2900 1516 
L 2900 3500 
L 3475 3500 
L 3475 0 
L 2900 0 
L 2900 538 
Q 2691 219 2414 64 
Q 2138 -91 1772 -91 
Q 1169 -91 856 284 
Q 544 659 544 1381 
z
M 1991 3584 
L 1991 3584 
z
" transform="scale(0.015625)"/>
      <path id="DejaVuSans-62" d="M 3116 1747 
Q 3116 2381 2855 2742 
Q 2594 3103 2138 3103 
Q 1681 3103 1420 2742 
Q 1159 2381 1159 1747 
Q 1159 1113 1420 752 
Q 1681 391 2138 391 
Q 2594 391 2855 752 
Q 3116 1113 3116 1747 
z
M 1159 2969 
Q 1341 3281 1617 3432 
Q 1894 3584 2278 3584 
Q 2916 3584 3314 3078 
Q 3713 2572 3713 1747 
Q 3713 922 3314 415 
Q 2916 -91 2278 -91 
Q 1894 -91 1617 61 
Q 1341 213 1159 525 
L 1159 0 
L 581 0 
L 581 4863 
L 1159 4863 
L 1159 2969 
z
" transform="scale(0.015625)"/>
      <path id="DejaVuSans-63" d="M 3122 3366 
L 3122 2828 
Q 2878 2963 2633 3030 
Q 2388 3097 2138 3097 
Q 1578 3097 1268 2742 
Q 959 2388 959 1747 
Q 959 1106 1268 751 
Q 1578 397 2138 397 
Q 2388 397 2633 464 
Q 2878 531 3122 666 
L 3122 134 
Q 2881 22 2623 -34 
Q 2366 -91 2075 -91 
Q 1284 -91 818 406 
Q 353 903 353 1747 
Q 353 2603 823 3093 
Q 1294 3584 2113 3584 
Q 2378 3584 2631 3529 
Q 2884 3475 3122 3366 
z
" transform="scale(0.015625)"/>
      <path id="DejaVuSans-72" d="M 2631 2963 
Q 2534 3019 2420 3045 
Q 2306 3072 2169 3072 
Q 1681 3072 1420 2755 
Q 1159 2438 1159 1844 
L 1159 0 
L 581 0 
L 581 3500 
L 1159 3500 
L 1159 2956 
Q 1341 3275 1631 3429 
Q 1922 3584 2338 3584 
Q 2397 3584 2469 3576 
Q 2541 3569 2628 3553 
L 2631 2963 
z
" transform="scale(0.015625)"/>
      <path id="DejaVuSans-69" d="M 603 3500 
L 1178 3500 
L 1178 0 
L 603 0 
L 603 3500 
z
M 603 4863 
L 1178 4863 
L 1178 4134 
L 603 4134 
L 603 4863 
z
" transform="scale(0.015625)"/>
      <path id="DejaVuSans-20" transform="scale(0.015625)"/>
      <path id="DejaVuSans-68" d="M 3513 2113 
L 3513 0 
L 2938 0 
L 2938 2094 
Q 2938 2591 2744 2837 
Q 2550 3084 2163 3084 
Q 1697 3084 1428 2787 
Q 1159 2491 1159 1978 
L 1159 0 
L 581 0 
L 581 4863 
L 1159 4863 
L 1159 2956 
Q 1366 3272 1645 3428 
Q 1925 3584 2291 3584 
Q 2894 3584 3203 3211 
Q 3513 2838 3513 2113 
z
" transform="scale(0.015625)"/>
      <path id="DejaVuSans-6f" d="M 1959 3097 
Q 1497 3097 1228 2736 
Q 959 2375 959 1747 
Q 959 1119 1226 758 
Q 1494 397 1959 397 
Q 2419 397 2687 759 
Q 2956 1122 2956 1747 
Q 2956 2369 2687 2733 
Q 2419 3097 1959 3097 
z
M 1959 3584 
Q 2709 3584 3137 3096 
Q 3566 2609 3566 1747 
Q 3566 888 3137 398 
Q 2709 -91 1959 -91 
Q 1206 -91 779 398 
Q 353 888 353 1747 
Q 353 2609 779 3096 
Q 1206 3584 1959 3584 
z
" transform="scale(0.015625)"/>
      <path id="DejaVuSans-79" d="M 2059 -325 
Q 1816 -950 1584 -1140 
Q 1353 -1331 966 -1331 
L 506 -1331 
L 506 -850 
L 844 -850 
Q 1081 -850 1212 -737 
Q 1344 -625 1503 -206 
L 1606 56 
L 191 3500 
L 800 3500 
L 1894 763 
L 2988 3500 
L 3597 3500 
L 2059 -325 
z
" transform="scale(0.015625)"/>
     </defs>
     <use xlink:href="#DejaVuSans-67"/>
     <use xlink:href="#DejaVuSans-65" transform="translate(63.476562 0)"/>
     <use xlink:href="#DejaVuSans-74" transform="translate(125 0)"/>
     <use xlink:href="#DejaVuSans-5f" transform="translate(164.208984 0)"/>
     <use xlink:href="#DejaVuSans-73" transform="translate(214.208984 0)"/>
     <use xlink:href="#DejaVuSans-75" transform="translate(266.308594 0)"/>
     <use xlink:href="#DejaVuSans-62" transform="translate(329.6875 0)"/>
     <use xlink:href="#DejaVuSans-73" transform="translate(393.164062 0)"/>
     <use xlink:href="#DejaVuSans-63" transform="translate(445.263672 0)"/>
     <use xlink:href="#DejaVuSans-72" transform="translate(500.244141 0)"/>
     <use xlink:href="#DejaVuSans-69" transform="translate(541.357422 0)"/>
     <use xlink:href="#DejaVuSans-62" transform="translate(569.140625 0)"/>
     <use xlink:href="#DejaVuSans-65" transform="translate(632.617188 0)"/>
     <use xlink:href="#DejaVuSans-20" transform="translate(694.140625 0)"/>
     <use xlink:href="#DejaVuSans-68" transform="translate(725.927734 0)"/>
     <use xlink:href="#DejaVuSans-69" transform="translate(789.306641 0)"/>
     <use xlink:href="#DejaVuSans-73" transform="translate(817.089844 0)"/>
     <use xlink:href="#DejaVuSans-74" transform="translate(869.189453 0)"/>
     <use xlink:href="#DejaVuSans-6f" transform="translate(908.398438 0)"/>
     <use xlink:href="#DejaVuSans-72" transform="translate(969.580078 0)"/>
     <use xlink:href="#DejaVuSans-79" transform="translate(1010.693359 0)"/>
    </g>
   </g>
   <g id="legend_1">
    <g id="line2d_33">
     <path d="M 815.08 328.498438 
L 825.08 328.498438 
L 835.08 328.498438 
" style="fill: none; stroke: #1f77b4; stroke-width: 1.5; stroke-linecap: square"/>
    </g>
    <g id="text_17">
     <!-- star -->
     <g style="fill: #a9a9a9" transform="translate(843.08 331.998438) scale(0.1 -0.1)">
      <defs>
       <path id="DejaVuSans-61" d="M 2194 1759 
Q 1497 1759 1228 1600 
Q 959 1441 959 1056 
Q 959 750 1161 570 
Q 1363 391 1709 391 
Q 2188 391 2477 730 
Q 2766 1069 2766 1631 
L 2766 1759 
L 2194 1759 
z
M 3341 1997 
L 3341 0 
L 2766 0 
L 2766 531 
Q 2569 213 2275 61 
Q 1981 -91 1556 -91 
Q 1019 -91 701 211 
Q 384 513 384 1019 
Q 384 1609 779 1909 
Q 1175 2209 1959 2209 
L 2766 2209 
L 2766 2266 
Q 2766 2663 2505 2880 
Q 2244 3097 1772 3097 
Q 1472 3097 1187 3025 
Q 903 2953 641 2809 
L 641 3341 
Q 956 3463 1253 3523 
Q 1550 3584 1831 3584 
Q 2591 3584 2966 3190 
Q 3341 2797 3341 1997 
z
" transform="scale(0.015625)"/>
      </defs>
      <use xlink:href="#DejaVuSans-73"/>
      <use xlink:href="#DejaVuSans-74" transform="translate(52.099609 0)"/>
      <use xlink:href="#DejaVuSans-61" transform="translate(91.308594 0)"/>
      <use xlink:href="#DejaVuSans-72" transform="translate(152.587891 0)"/>
     </g>
    </g>
    <g id="line2d_34">
     <path d="M 815.08 343.176562 
L 825.08 343.176562 
L 835.08 343.176562 
" style="fill: none; stroke: #ff7f0e; stroke-width: 1.5; stroke-linecap: square"/>
    </g>
    <g id="text_18">
     <!-- fork -->
     <g style="fill: #a9a9a9" transform="translate(843.08 346.676562) scale(0.1 -0.1)">
      <defs>
       <path id="DejaVuSans-66" d="M 2375 4863 
L 2375 4384 
L 1825 4384 
Q 1516 4384 1395 4259 
Q 1275 4134 1275 3809 
L 1275 3500 
L 2222 3500 
L 2222 3053 
L 1275 3053 
L 1275 0 
L 697 0 
L 697 3053 
L 147 3053 
L 147 3500 
L 697 3500 
L 697 3744 
Q 697 4328 969 4595 
Q 1241 4863 1831 4863 
L 2375 4863 
z
" transform="scale(0.015625)"/>
       <path id="DejaVuSans-6b" d="M 581 4863 
L 1159 4863 
L 1159 1991 
L 2875 3500 
L 3609 3500 
L 1753 1863 
L 3688 0 
L 2938 0 
L 1159 1709 
L 1159 0 
L 581 0 
L 581 4863 
z
" transform="scale(0.015625)"/>
      </defs>
      <use xlink:href="#DejaVuSans-66"/>
      <use xlink:href="#DejaVuSans-6f" transform="translate(35.205078 0)"/>
      <use xlink:href="#DejaVuSans-72" transform="translate(96.386719 0)"/>
      <use xlink:href="#DejaVuSans-6b" transform="translate(137.5 0)"/>
     </g>
    </g>
   </g>
  </g>
 </g>
 <defs>
  <clipPath id="p2f62bedbb0">
   <rect x="108" y="43.2" width="669.6" height="277.2"/>
  </clipPath>
 </defs>
</svg>
