<?xml version="1.0" encoding="utf-8" standalone="no"?>
<!DOCTYPE svg PUBLIC "-//W3C//DTD SVG 1.1//EN"
  "http://www.w3.org/Graphics/SVG/1.1/DTD/svg11.dtd">
<svg xmlns:xlink="http://www.w3.org/1999/xlink" width="864pt" height="360pt" viewBox="0 0 864 360" xmlns="http://www.w3.org/2000/svg" version="1.1">
 <metadata>
  <rdf:RDF xmlns:dc="http://purl.org/dc/elements/1.1/" xmlns:cc="http://creativecommons.org/ns#" xmlns:rdf="http://www.w3.org/1999/02/22-rdf-syntax-ns#">
   <cc:Work>
    <dc:type rdf:resource="http://purl.org/dc/dcmitype/StillImage"/>
    <dc:date>2025-05-07T08:15:27.787178</dc:date>
    <dc:format>image/svg+xml</dc:format>
    <dc:creator>
     <cc:Agent>
      <dc:title>Matplotlib v3.10.1, https://matplotlib.org/</dc:title>
     </cc:Agent>
    </dc:creator>
   </cc:Work>
  </rdf:RDF>
 </metadata>
 <defs>
  <style type="text/css">*{stroke-linejoin: round; stroke-linecap: butt}</style>
 </defs>
 <g id="figure_1">
  <g id="patch_1">
   <path d="M 0 360 
L 864 360 
L 864 0 
L 0 0 
L 0 360 
z
" style="fill: none; opacity: 0"/>
  </g>
  <g id="axes_1">
   <g id="patch_2">
    <path d="M 108 320.4 
L 777.6 320.4 
L 777.6 43.2 
L 108 43.2 
L 108 320.4 
z
" style="fill: none; opacity: 0"/>
   </g>
   <g id="matplotlib.axis_1">
    <g id="xtick_1">
     <g id="line2d_1">
      <path d="M 128.312917 320.4 
L 128.312917 43.2 
" clip-path="url(#p79b7a8d9a4)" style="fill: none; stroke-dasharray: 5.12,1.28,0.8,1.28; stroke-dashoffset: 0; stroke: #b0b0b0; stroke-width: 0.8"/>
     </g>
     <g id="line2d_2">
      <defs>
       <path id="md7f1cb6444" d="M 0 0 
L 0 3.5 
" style="stroke: #a9a9a9; stroke-width: 0.8"/>
      </defs>
      <g>
       <use xlink:href="#md7f1cb6444" x="128.312917" y="320.4" style="fill: #a9a9a9; stroke: #a9a9a9; stroke-width: 0.8"/>
      </g>
     </g>
     <g id="text_1">
      <!-- 2021-07 -->
      <g style="fill: #a9a9a9" transform="translate(107.42151 334.998438) scale(0.1 -0.1)">
       <defs>
        <path id="DejaVuSans-32" d="M 1228 531 
L 3431 531 
L 3431 0 
L 469 0 
L 469 531 
Q 828 903 1448 1529 
Q 2069 2156 2228 2338 
Q 2531 2678 2651 2914 
Q 2772 3150 2772 3378 
Q 2772 3750 2511 3984 
Q 2250 4219 1831 4219 
Q 1534 4219 1204 4116 
Q 875 4013 500 3803 
L 500 4441 
Q 881 4594 1212 4672 
Q 1544 4750 1819 4750 
Q 2544 4750 2975 4387 
Q 3406 4025 3406 3419 
Q 3406 3131 3298 2873 
Q 3191 2616 2906 2266 
Q 2828 2175 2409 1742 
Q 1991 1309 1228 531 
z
" transform="scale(0.015625)"/>
        <path id="DejaVuSans-30" d="M 2034 4250 
Q 1547 4250 1301 3770 
Q 1056 3291 1056 2328 
Q 1056 1369 1301 889 
Q 1547 409 2034 409 
Q 2525 409 2770 889 
Q 3016 1369 3016 2328 
Q 3016 3291 2770 3770 
Q 2525 4250 2034 4250 
z
M 2034 4750 
Q 2819 4750 3233 4129 
Q 3647 3509 3647 2328 
Q 3647 1150 3233 529 
Q 2819 -91 2034 -91 
Q 1250 -91 836 529 
Q 422 1150 422 2328 
Q 422 3509 836 4129 
Q 1250 4750 2034 4750 
z
" transform="scale(0.015625)"/>
        <path id="DejaVuSans-31" d="M 794 531 
L 1825 531 
L 1825 4091 
L 703 3866 
L 703 4441 
L 1819 4666 
L 2450 4666 
L 2450 531 
L 3481 531 
L 3481 0 
L 794 0 
L 794 531 
z
" transform="scale(0.015625)"/>
        <path id="DejaVuSans-2d" d="M 313 2009 
L 1997 2009 
L 1997 1497 
L 313 1497 
L 313 2009 
z
" transform="scale(0.015625)"/>
        <path id="DejaVuSans-37" d="M 525 4666 
L 3525 4666 
L 3525 4397 
L 1831 0 
L 1172 0 
L 2766 4134 
L 525 4134 
L 525 4666 
z
" transform="scale(0.015625)"/>
       </defs>
       <use xlink:href="#DejaVuSans-32"/>
       <use xlink:href="#DejaVuSans-30" transform="translate(63.623047 0)"/>
       <use xlink:href="#DejaVuSans-32" transform="translate(127.246094 0)"/>
       <use xlink:href="#DejaVuSans-31" transform="translate(190.869141 0)"/>
       <use xlink:href="#DejaVuSans-2d" transform="translate(254.492188 0)"/>
       <use xlink:href="#DejaVuSans-30" transform="translate(290.576172 0)"/>
       <use xlink:href="#DejaVuSans-37" transform="translate(354.199219 0)"/>
      </g>
     </g>
    </g>
    <g id="xtick_2">
     <g id="line2d_3">
      <path d="M 209.300493 320.4 
L 209.300493 43.2 
" clip-path="url(#p79b7a8d9a4)" style="fill: none; stroke-dasharray: 5.12,1.28,0.8,1.28; stroke-dashoffset: 0; stroke: #b0b0b0; stroke-width: 0.8"/>
     </g>
     <g id="line2d_4">
      <g>
       <use xlink:href="#md7f1cb6444" x="209.300493" y="320.4" style="fill: #a9a9a9; stroke: #a9a9a9; stroke-width: 0.8"/>
      </g>
     </g>
     <g id="text_2">
      <!-- 2022-01 -->
      <g style="fill: #a9a9a9" transform="translate(188.409087 334.998438) scale(0.1 -0.1)">
       <use xlink:href="#DejaVuSans-32"/>
       <use xlink:href="#DejaVuSans-30" transform="translate(63.623047 0)"/>
       <use xlink:href="#DejaVuSans-32" transform="translate(127.246094 0)"/>
       <use xlink:href="#DejaVuSans-32" transform="translate(190.869141 0)"/>
       <use xlink:href="#DejaVuSans-2d" transform="translate(254.492188 0)"/>
       <use xlink:href="#DejaVuSans-30" transform="translate(290.576172 0)"/>
       <use xlink:href="#DejaVuSans-31" transform="translate(354.199219 0)"/>
      </g>
     </g>
    </g>
    <g id="xtick_3">
     <g id="line2d_5">
      <path d="M 288.96762 320.4 
L 288.96762 43.2 
" clip-path="url(#p79b7a8d9a4)" style="fill: none; stroke-dasharray: 5.12,1.28,0.8,1.28; stroke-dashoffset: 0; stroke: #b0b0b0; stroke-width: 0.8"/>
     </g>
     <g id="line2d_6">
      <g>
       <use xlink:href="#md7f1cb6444" x="288.96762" y="320.4" style="fill: #a9a9a9; stroke: #a9a9a9; stroke-width: 0.8"/>
      </g>
     </g>
     <g id="text_3">
      <!-- 2022-07 -->
      <g style="fill: #a9a9a9" transform="translate(268.076214 334.998438) scale(0.1 -0.1)">
       <use xlink:href="#DejaVuSans-32"/>
       <use xlink:href="#DejaVuSans-30" transform="translate(63.623047 0)"/>
       <use xlink:href="#DejaVuSans-32" transform="translate(127.246094 0)"/>
       <use xlink:href="#DejaVuSans-32" transform="translate(190.869141 0)"/>
       <use xlink:href="#DejaVuSans-2d" transform="translate(254.492188 0)"/>
       <use xlink:href="#DejaVuSans-30" transform="translate(290.576172 0)"/>
       <use xlink:href="#DejaVuSans-37" transform="translate(354.199219 0)"/>
      </g>
     </g>
    </g>
    <g id="xtick_4">
     <g id="line2d_7">
      <path d="M 369.955196 320.4 
L 369.955196 43.2 
" clip-path="url(#p79b7a8d9a4)" style="fill: none; stroke-dasharray: 5.12,1.28,0.8,1.28; stroke-dashoffset: 0; stroke: #b0b0b0; stroke-width: 0.8"/>
     </g>
     <g id="line2d_8">
      <g>
       <use xlink:href="#md7f1cb6444" x="369.955196" y="320.4" style="fill: #a9a9a9; stroke: #a9a9a9; stroke-width: 0.8"/>
      </g>
     </g>
     <g id="text_4">
      <!-- 2023-01 -->
      <g style="fill: #a9a9a9" transform="translate(349.06379 334.998438) scale(0.1 -0.1)">
       <defs>
        <path id="DejaVuSans-33" d="M 2597 2516 
Q 3050 2419 3304 2112 
Q 3559 1806 3559 1356 
Q 3559 666 3084 287 
Q 2609 -91 1734 -91 
Q 1441 -91 1130 -33 
Q 819 25 488 141 
L 488 750 
Q 750 597 1062 519 
Q 1375 441 1716 441 
Q 2309 441 2620 675 
Q 2931 909 2931 1356 
Q 2931 1769 2642 2001 
Q 2353 2234 1838 2234 
L 1294 2234 
L 1294 2753 
L 1863 2753 
Q 2328 2753 2575 2939 
Q 2822 3125 2822 3475 
Q 2822 3834 2567 4026 
Q 2313 4219 1838 4219 
Q 1578 4219 1281 4162 
Q 984 4106 628 3988 
L 628 4550 
Q 988 4650 1302 4700 
Q 1616 4750 1894 4750 
Q 2613 4750 3031 4423 
Q 3450 4097 3450 3541 
Q 3450 3153 3228 2886 
Q 3006 2619 2597 2516 
z
" transform="scale(0.015625)"/>
       </defs>
       <use xlink:href="#DejaVuSans-32"/>
       <use xlink:href="#DejaVuSans-30" transform="translate(63.623047 0)"/>
       <use xlink:href="#DejaVuSans-32" transform="translate(127.246094 0)"/>
       <use xlink:href="#DejaVuSans-33" transform="translate(190.869141 0)"/>
       <use xlink:href="#DejaVuSans-2d" transform="translate(254.492188 0)"/>
       <use xlink:href="#DejaVuSans-30" transform="translate(290.576172 0)"/>
       <use xlink:href="#DejaVuSans-31" transform="translate(354.199219 0)"/>
      </g>
     </g>
    </g>
    <g id="xtick_5">
     <g id="line2d_9">
      <path d="M 449.622323 320.4 
L 449.622323 43.2 
" clip-path="url(#p79b7a8d9a4)" style="fill: none; stroke-dasharray: 5.12,1.28,0.8,1.28; stroke-dashoffset: 0; stroke: #b0b0b0; stroke-width: 0.8"/>
     </g>
     <g id="line2d_10">
      <g>
       <use xlink:href="#md7f1cb6444" x="449.622323" y="320.4" style="fill: #a9a9a9; stroke: #a9a9a9; stroke-width: 0.8"/>
      </g>
     </g>
     <g id="text_5">
      <!-- 2023-07 -->
      <g style="fill: #a9a9a9" transform="translate(428.730917 334.998438) scale(0.1 -0.1)">
       <use xlink:href="#DejaVuSans-32"/>
       <use xlink:href="#DejaVuSans-30" transform="translate(63.623047 0)"/>
       <use xlink:href="#DejaVuSans-32" transform="translate(127.246094 0)"/>
       <use xlink:href="#DejaVuSans-33" transform="translate(190.869141 0)"/>
       <use xlink:href="#DejaVuSans-2d" transform="translate(254.492188 0)"/>
       <use xlink:href="#DejaVuSans-30" transform="translate(290.576172 0)"/>
       <use xlink:href="#DejaVuSans-37" transform="translate(354.199219 0)"/>
      </g>
     </g>
    </g>
    <g id="xtick_6">
     <g id="line2d_11">
      <path d="M 530.609899 320.4 
L 530.609899 43.2 
" clip-path="url(#p79b7a8d9a4)" style="fill: none; stroke-dasharray: 5.12,1.28,0.8,1.28; stroke-dashoffset: 0; stroke: #b0b0b0; stroke-width: 0.8"/>
     </g>
     <g id="line2d_12">
      <g>
       <use xlink:href="#md7f1cb6444" x="530.609899" y="320.4" style="fill: #a9a9a9; stroke: #a9a9a9; stroke-width: 0.8"/>
      </g>
     </g>
     <g id="text_6">
      <!-- 2024-01 -->
      <g style="fill: #a9a9a9" transform="translate(509.718493 334.998438) scale(0.1 -0.1)">
       <defs>
        <path id="DejaVuSans-34" d="M 2419 4116 
L 825 1625 
L 2419 1625 
L 2419 4116 
z
M 2253 4666 
L 3047 4666 
L 3047 1625 
L 3713 1625 
L 3713 1100 
L 3047 1100 
L 3047 0 
L 2419 0 
L 2419 1100 
L 313 1100 
L 313 1709 
L 2253 4666 
z
" transform="scale(0.015625)"/>
       </defs>
       <use xlink:href="#DejaVuSans-32"/>
       <use xlink:href="#DejaVuSans-30" transform="translate(63.623047 0)"/>
       <use xlink:href="#DejaVuSans-32" transform="translate(127.246094 0)"/>
       <use xlink:href="#DejaVuSans-34" transform="translate(190.869141 0)"/>
       <use xlink:href="#DejaVuSans-2d" transform="translate(254.492188 0)"/>
       <use xlink:href="#DejaVuSans-30" transform="translate(290.576172 0)"/>
       <use xlink:href="#DejaVuSans-31" transform="translate(354.199219 0)"/>
      </g>
     </g>
    </g>
    <g id="xtick_7">
     <g id="line2d_13">
      <path d="M 610.717176 320.4 
L 610.717176 43.2 
" clip-path="url(#p79b7a8d9a4)" style="fill: none; stroke-dasharray: 5.12,1.28,0.8,1.28; stroke-dashoffset: 0; stroke: #b0b0b0; stroke-width: 0.8"/>
     </g>
     <g id="line2d_14">
      <g>
       <use xlink:href="#md7f1cb6444" x="610.717176" y="320.4" style="fill: #a9a9a9; stroke: #a9a9a9; stroke-width: 0.8"/>
      </g>
     </g>
     <g id="text_7">
      <!-- 2024-07 -->
      <g style="fill: #a9a9a9" transform="translate(589.82577 334.998438) scale(0.1 -0.1)">
       <use xlink:href="#DejaVuSans-32"/>
       <use xlink:href="#DejaVuSans-30" transform="translate(63.623047 0)"/>
       <use xlink:href="#DejaVuSans-32" transform="translate(127.246094 0)"/>
       <use xlink:href="#DejaVuSans-34" transform="translate(190.869141 0)"/>
       <use xlink:href="#DejaVuSans-2d" transform="translate(254.492188 0)"/>
       <use xlink:href="#DejaVuSans-30" transform="translate(290.576172 0)"/>
       <use xlink:href="#DejaVuSans-37" transform="translate(354.199219 0)"/>
      </g>
     </g>
    </g>
    <g id="xtick_8">
     <g id="line2d_15">
      <path d="M 691.704753 320.4 
L 691.704753 43.2 
" clip-path="url(#p79b7a8d9a4)" style="fill: none; stroke-dasharray: 5.12,1.28,0.8,1.28; stroke-dashoffset: 0; stroke: #b0b0b0; stroke-width: 0.8"/>
     </g>
     <g id="line2d_16">
      <g>
       <use xlink:href="#md7f1cb6444" x="691.704753" y="320.4" style="fill: #a9a9a9; stroke: #a9a9a9; stroke-width: 0.8"/>
      </g>
     </g>
     <g id="text_8">
      <!-- 2025-01 -->
      <g style="fill: #a9a9a9" transform="translate(670.813346 334.998438) scale(0.1 -0.1)">
       <defs>
        <path id="DejaVuSans-35" d="M 691 4666 
L 3169 4666 
L 3169 4134 
L 1269 4134 
L 1269 2991 
Q 1406 3038 1543 3061 
Q 1681 3084 1819 3084 
Q 2600 3084 3056 2656 
Q 3513 2228 3513 1497 
Q 3513 744 3044 326 
Q 2575 -91 1722 -91 
Q 1428 -91 1123 -41 
Q 819 9 494 109 
L 494 744 
Q 775 591 1075 516 
Q 1375 441 1709 441 
Q 2250 441 2565 725 
Q 2881 1009 2881 1497 
Q 2881 1984 2565 2268 
Q 2250 2553 1709 2553 
Q 1456 2553 1204 2497 
Q 953 2441 691 2322 
L 691 4666 
z
" transform="scale(0.015625)"/>
       </defs>
       <use xlink:href="#DejaVuSans-32"/>
       <use xlink:href="#DejaVuSans-30" transform="translate(63.623047 0)"/>
       <use xlink:href="#DejaVuSans-32" transform="translate(127.246094 0)"/>
       <use xlink:href="#DejaVuSans-35" transform="translate(190.869141 0)"/>
       <use xlink:href="#DejaVuSans-2d" transform="translate(254.492188 0)"/>
       <use xlink:href="#DejaVuSans-30" transform="translate(290.576172 0)"/>
       <use xlink:href="#DejaVuSans-31" transform="translate(354.199219 0)"/>
      </g>
     </g>
    </g>
    <g id="xtick_9">
     <g id="line2d_17">
      <path d="M 771.371879 320.4 
L 771.371879 43.2 
" clip-path="url(#p79b7a8d9a4)" style="fill: none; stroke-dasharray: 5.12,1.28,0.8,1.28; stroke-dashoffset: 0; stroke: #b0b0b0; stroke-width: 0.8"/>
     </g>
     <g id="line2d_18">
      <g>
       <use xlink:href="#md7f1cb6444" x="771.371879" y="320.4" style="fill: #a9a9a9; stroke: #a9a9a9; stroke-width: 0.8"/>
      </g>
     </g>
     <g id="text_9">
      <!-- 2025-07 -->
      <g style="fill: #a9a9a9" transform="translate(750.480473 334.998438) scale(0.1 -0.1)">
       <use xlink:href="#DejaVuSans-32"/>
       <use xlink:href="#DejaVuSans-30" transform="translate(63.623047 0)"/>
       <use xlink:href="#DejaVuSans-32" transform="translate(127.246094 0)"/>
       <use xlink:href="#DejaVuSans-35" transform="translate(190.869141 0)"/>
       <use xlink:href="#DejaVuSans-2d" transform="translate(254.492188 0)"/>
       <use xlink:href="#DejaVuSans-30" transform="translate(290.576172 0)"/>
       <use xlink:href="#DejaVuSans-37" transform="translate(354.199219 0)"/>
      </g>
     </g>
    </g>
   </g>
   <g id="matplotlib.axis_2">
    <g id="ytick_1">
     <g id="line2d_19">
      <path d="M 108 307.833188 
L 777.6 307.833188 
" clip-path="url(#p79b7a8d9a4)" style="fill: none; stroke-dasharray: 5.12,1.28,0.8,1.28; stroke-dashoffset: 0; stroke: #b0b0b0; stroke-width: 0.8"/>
     </g>
     <g id="line2d_20">
      <defs>
       <path id="mcdb51b2e95" d="M 0 0 
L -3.5 0 
" style="stroke: #a9a9a9; stroke-width: 0.8"/>
      </defs>
      <g>
       <use xlink:href="#mcdb51b2e95" x="108" y="307.833188" style="fill: #a9a9a9; stroke: #a9a9a9; stroke-width: 0.8"/>
      </g>
     </g>
     <g id="text_10">
      <!-- 0 -->
      <g style="fill: #a9a9a9" transform="translate(94.6375 311.632407) scale(0.1 -0.1)">
       <use xlink:href="#DejaVuSans-30"/>
      </g>
     </g>
    </g>
    <g id="ytick_2">
     <g id="line2d_21">
      <path d="M 108 274.644725 
L 777.6 274.644725 
" clip-path="url(#p79b7a8d9a4)" style="fill: none; stroke-dasharray: 5.12,1.28,0.8,1.28; stroke-dashoffset: 0; stroke: #b0b0b0; stroke-width: 0.8"/>
     </g>
     <g id="line2d_22">
      <g>
       <use xlink:href="#mcdb51b2e95" x="108" y="274.644725" style="fill: #a9a9a9; stroke: #a9a9a9; stroke-width: 0.8"/>
      </g>
     </g>
     <g id="text_11">
      <!-- 1000 -->
      <g style="fill: #a9a9a9" transform="translate(75.55 278.443944) scale(0.1 -0.1)">
       <use xlink:href="#DejaVuSans-31"/>
       <use xlink:href="#DejaVuSans-30" transform="translate(63.623047 0)"/>
       <use xlink:href="#DejaVuSans-30" transform="translate(127.246094 0)"/>
       <use xlink:href="#DejaVuSans-30" transform="translate(190.869141 0)"/>
      </g>
     </g>
    </g>
    <g id="ytick_3">
     <g id="line2d_23">
      <path d="M 108 241.456262 
L 777.6 241.456262 
" clip-path="url(#p79b7a8d9a4)" style="fill: none; stroke-dasharray: 5.12,1.28,0.8,1.28; stroke-dashoffset: 0; stroke: #b0b0b0; stroke-width: 0.8"/>
     </g>
     <g id="line2d_24">
      <g>
       <use xlink:href="#mcdb51b2e95" x="108" y="241.456262" style="fill: #a9a9a9; stroke: #a9a9a9; stroke-width: 0.8"/>
      </g>
     </g>
     <g id="text_12">
      <!-- 2000 -->
      <g style="fill: #a9a9a9" transform="translate(75.55 245.255481) scale(0.1 -0.1)">
       <use xlink:href="#DejaVuSans-32"/>
       <use xlink:href="#DejaVuSans-30" transform="translate(63.623047 0)"/>
       <use xlink:href="#DejaVuSans-30" transform="translate(127.246094 0)"/>
       <use xlink:href="#DejaVuSans-30" transform="translate(190.869141 0)"/>
      </g>
     </g>
    </g>
    <g id="ytick_4">
     <g id="line2d_25">
      <path d="M 108 208.267799 
L 777.6 208.267799 
" clip-path="url(#p79b7a8d9a4)" style="fill: none; stroke-dasharray: 5.12,1.28,0.8,1.28; stroke-dashoffset: 0; stroke: #b0b0b0; stroke-width: 0.8"/>
     </g>
     <g id="line2d_26">
      <g>
       <use xlink:href="#mcdb51b2e95" x="108" y="208.267799" style="fill: #a9a9a9; stroke: #a9a9a9; stroke-width: 0.8"/>
      </g>
     </g>
     <g id="text_13">
      <!-- 3000 -->
      <g style="fill: #a9a9a9" transform="translate(75.55 212.067018) scale(0.1 -0.1)">
       <use xlink:href="#DejaVuSans-33"/>
       <use xlink:href="#DejaVuSans-30" transform="translate(63.623047 0)"/>
       <use xlink:href="#DejaVuSans-30" transform="translate(127.246094 0)"/>
       <use xlink:href="#DejaVuSans-30" transform="translate(190.869141 0)"/>
      </g>
     </g>
    </g>
    <g id="ytick_5">
     <g id="line2d_27">
      <path d="M 108 175.079336 
L 777.6 175.079336 
" clip-path="url(#p79b7a8d9a4)" style="fill: none; stroke-dasharray: 5.12,1.28,0.8,1.28; stroke-dashoffset: 0; stroke: #b0b0b0; stroke-width: 0.8"/>
     </g>
     <g id="line2d_28">
      <g>
       <use xlink:href="#mcdb51b2e95" x="108" y="175.079336" style="fill: #a9a9a9; stroke: #a9a9a9; stroke-width: 0.8"/>
      </g>
     </g>
     <g id="text_14">
      <!-- 4000 -->
      <g style="fill: #a9a9a9" transform="translate(75.55 178.878555) scale(0.1 -0.1)">
       <use xlink:href="#DejaVuSans-34"/>
       <use xlink:href="#DejaVuSans-30" transform="translate(63.623047 0)"/>
       <use xlink:href="#DejaVuSans-30" transform="translate(127.246094 0)"/>
       <use xlink:href="#DejaVuSans-30" transform="translate(190.869141 0)"/>
      </g>
     </g>
    </g>
    <g id="ytick_6">
     <g id="line2d_29">
      <path d="M 108 141.890873 
L 777.6 141.890873 
" clip-path="url(#p79b7a8d9a4)" style="fill: none; stroke-dasharray: 5.12,1.28,0.8,1.28; stroke-dashoffset: 0; stroke: #b0b0b0; stroke-width: 0.8"/>
     </g>
     <g id="line2d_30">
      <g>
       <use xlink:href="#mcdb51b2e95" x="108" y="141.890873" style="fill: #a9a9a9; stroke: #a9a9a9; stroke-width: 0.8"/>
      </g>
     </g>
     <g id="text_15">
      <!-- 5000 -->
      <g style="fill: #a9a9a9" transform="translate(75.55 145.690092) scale(0.1 -0.1)">
       <use xlink:href="#DejaVuSans-35"/>
       <use xlink:href="#DejaVuSans-30" transform="translate(63.623047 0)"/>
       <use xlink:href="#DejaVuSans-30" transform="translate(127.246094 0)"/>
       <use xlink:href="#DejaVuSans-30" transform="translate(190.869141 0)"/>
      </g>
     </g>
    </g>
    <g id="ytick_7">
     <g id="line2d_31">
      <path d="M 108 108.70241 
L 777.6 108.70241 
" clip-path="url(#p79b7a8d9a4)" style="fill: none; stroke-dasharray: 5.12,1.28,0.8,1.28; stroke-dashoffset: 0; stroke: #b0b0b0; stroke-width: 0.8"/>
     </g>
     <g id="line2d_32">
      <g>
       <use xlink:href="#mcdb51b2e95" x="108" y="108.70241" style="fill: #a9a9a9; stroke: #a9a9a9; stroke-width: 0.8"/>
      </g>
     </g>
     <g id="text_16">
      <!-- 6000 -->
      <g style="fill: #a9a9a9" transform="translate(75.55 112.501629) scale(0.1 -0.1)">
       <defs>
        <path id="DejaVuSans-36" d="M 2113 2584 
Q 1688 2584 1439 2293 
Q 1191 2003 1191 1497 
Q 1191 994 1439 701 
Q 1688 409 2113 409 
Q 2538 409 2786 701 
Q 3034 994 3034 1497 
Q 3034 2003 2786 2293 
Q 2538 2584 2113 2584 
z
M 3366 4563 
L 3366 3988 
Q 3128 4100 2886 4159 
Q 2644 4219 2406 4219 
Q 1781 4219 1451 3797 
Q 1122 3375 1075 2522 
Q 1259 2794 1537 2939 
Q 1816 3084 2150 3084 
Q 2853 3084 3261 2657 
Q 3669 2231 3669 1497 
Q 3669 778 3244 343 
Q 2819 -91 2113 -91 
Q 1303 -91 875 529 
Q 447 1150 447 2328 
Q 447 3434 972 4092 
Q 1497 4750 2381 4750 
Q 2619 4750 2861 4703 
Q 3103 4656 3366 4563 
z
" transform="scale(0.015625)"/>
       </defs>
       <use xlink:href="#DejaVuSans-36"/>
       <use xlink:href="#DejaVuSans-30" transform="translate(63.623047 0)"/>
       <use xlink:href="#DejaVuSans-30" transform="translate(127.246094 0)"/>
       <use xlink:href="#DejaVuSans-30" transform="translate(190.869141 0)"/>
      </g>
     </g>
    </g>
    <g id="ytick_8">
     <g id="line2d_33">
      <path d="M 108 75.513947 
L 777.6 75.513947 
" clip-path="url(#p79b7a8d9a4)" style="fill: none; stroke-dasharray: 5.12,1.28,0.8,1.28; stroke-dashoffset: 0; stroke: #b0b0b0; stroke-width: 0.8"/>
     </g>
     <g id="line2d_34">
      <g>
       <use xlink:href="#mcdb51b2e95" x="108" y="75.513947" style="fill: #a9a9a9; stroke: #a9a9a9; stroke-width: 0.8"/>
      </g>
     </g>
     <g id="text_17">
      <!-- 7000 -->
      <g style="fill: #a9a9a9" transform="translate(75.55 79.313166) scale(0.1 -0.1)">
       <use xlink:href="#DejaVuSans-37"/>
       <use xlink:href="#DejaVuSans-30" transform="translate(63.623047 0)"/>
       <use xlink:href="#DejaVuSans-30" transform="translate(127.246094 0)"/>
       <use xlink:href="#DejaVuSans-30" transform="translate(190.869141 0)"/>
      </g>
     </g>
    </g>
   </g>
   <g id="line2d_35">
    <path d="M 138.436364 307.733623 
L 141.077263 307.501304 
L 141.517413 307.302173 
L 143.278012 307.069854 
L 145.038612 306.704781 
L 145.918911 306.572027 
L 148.119661 306.372896 
L 148.999961 306.007823 
L 149.44011 305.410431 
L 149.88026 305.111734 
L 150.32041 304.116081 
L 150.76056 304.049704 
L 151.20071 303.684631 
L 152.08101 303.219992 
L 153.841609 301.7597 
L 155.602209 300.863611 
L 156.922658 300.23303 
L 157.362808 299.502884 
L 158.243108 298.839115 
L 158.683258 298.639984 
L 163.084756 297.976215 
L 163.524906 297.777084 
L 166.605955 297.511576 
L 168.366555 297.080126 
L 171.887754 296.582299 
L 172.327904 296.34998 
L 172.768054 296.283603 
L 173.648353 295.984907 
L 176.729402 295.453892 
L 177.609702 295.188384 
L 181.571051 294.491426 
L 182.451351 294.292296 
L 183.331651 294.259107 
L 185.09225 293.827657 
L 185.5324 293.197076 
L 186.85285 292.666061 
L 188.173299 292.300988 
L 188.613449 292.068669 
L 189.493749 291.902726 
L 191.254348 291.371711 
L 192.134648 291.305334 
L 193.014948 291.073015 
L 194.775547 290.608376 
L 195.215697 290.575188 
L 196.095997 290.143738 
L 196.536147 290.077361 
L 196.976297 289.845041 
L 201.817945 289.01533 
L 203.578545 288.484315 
L 204.018695 288.185618 
L 206.219444 287.455472 
L 207.099744 286.824891 
L 208.420193 286.559384 
L 218.10349 283.671987 
L 218.54364 283.638799 
L 219.86409 283.240537 
L 220.30424 283.240537 
L 220.74439 283.041407 
L 221.624689 282.941841 
L 222.064839 282.775899 
L 223.825439 282.709522 
L 224.705739 282.54358 
L 225.586038 282.078941 
L 226.906488 281.581114 
L 227.786788 281.116476 
L 228.667087 280.651837 
L 229.547387 280.353141 
L 229.987537 280.220387 
L 230.867837 279.656183 
L 231.307987 279.158356 
L 232.188286 277.764441 
L 232.628436 277.631687 
L 233.068586 277.631687 
L 234.389036 276.835164 
L 234.829186 276.602845 
L 235.269335 276.503279 
L 235.709485 276.071829 
L 236.589785 275.706756 
L 237.470085 275.275306 
L 239.670834 272.38791 
L 242.311733 270.927618 
L 243.192033 270.197471 
L 243.632183 269.931964 
L 244.072333 269.301383 
L 244.512483 268.27254 
L 244.952633 267.575583 
L 245.392782 267.21051 
L 245.832932 267.011379 
L 249.354131 263.692533 
L 250.234431 262.862821 
L 252.87533 261.170209 
L 253.31548 261.004267 
L 255.07608 259.942236 
L 255.51623 259.743105 
L 257.716979 257.685421 
L 258.597279 257.320348 
L 259.477578 256.689767 
L 259.917728 256.424259 
L 260.357878 256.357882 
L 261.678328 255.594548 
L 262.118478 255.096721 
L 264.319227 253.868748 
L 264.759377 253.702805 
L 266.079826 252.773528 
L 272.682075 250.383959 
L 273.562374 249.554247 
L 274.882824 248.890478 
L 275.763124 248.326274 
L 276.643423 248.060766 
L 277.083573 247.76207 
L 277.523723 247.629316 
L 278.844173 246.733228 
L 281.044922 246.235401 
L 282.365372 245.438878 
L 283.685821 245.140182 
L 284.125971 245.040616 
L 285.446421 244.011774 
L 287.20702 243.513947 
L 287.64717 243.148874 
L 290.288069 242.219597 
L 291.168369 242.053655 
L 292.048669 241.688582 
L 295.129718 240.526985 
L 296.010018 240.394232 
L 297.330467 239.929593 
L 299.531217 238.834374 
L 301.291816 237.83872 
L 304.813015 236.345239 
L 305.253165 236.278862 
L 306.133465 235.714658 
L 307.013765 235.482339 
L 308.334214 234.951324 
L 310.094814 234.719004 
L 310.975113 234.254366 
L 311.415263 233.856104 
L 311.855413 233.059581 
L 313.616013 232.561754 
L 314.936462 231.864797 
L 315.816762 231.5661 
L 316.697062 231.101462 
L 319.337961 230.006243 
L 320.218261 229.807112 
L 321.09856 229.342473 
L 321.53871 229.143343 
L 321.97886 229.076966 
L 324.17961 227.981746 
L 325.059909 227.417542 
L 326.380359 227.152035 
L 328.581108 226.587831 
L 329.021258 226.222758 
L 329.901558 225.924062 
L 332.102307 225.027973 
L 332.542457 224.696089 
L 332.982607 224.530146 
L 333.862907 224.032319 
L 335.623506 223.468115 
L 336.503806 222.903911 
L 336.943956 222.439273 
L 337.384106 222.173765 
L 337.824256 222.0742 
L 338.704555 221.344054 
L 339.144705 221.277677 
L 339.584855 220.547531 
L 340.025005 220.3484 
L 340.465155 219.983327 
L 340.905305 219.91695 
L 341.785604 219.352746 
L 342.665904 219.05405 
L 343.106054 218.722165 
L 343.546204 218.556223 
L 345.306803 217.361438 
L 346.627253 216.66448 
L 347.507553 216.432161 
L 348.387852 215.934334 
L 348.828002 215.171 
L 349.708302 214.50723 
L 350.148452 214.407665 
L 352.789351 213.113315 
L 353.669651 212.748242 
L 354.549951 212.117661 
L 355.43025 211.221573 
L 359.391599 208.101857 
L 359.831749 207.736784 
L 360.712049 207.438088 
L 361.592349 206.840695 
L 362.912798 206.143738 
L 363.352948 206.077361 
L 364.673398 205.347215 
L 365.553697 204.783011 
L 369.955196 203.123588 
L 370.395346 202.758514 
L 372.155946 202.061557 
L 372.596095 201.928803 
L 373.476395 201.331411 
L 374.356695 200.966337 
L 375.236995 200.335757 
L 376.117294 198.54358 
L 376.997594 197.481549 
L 378.318044 196.784591 
L 379.198344 196.419518 
L 379.638493 196.353141 
L 380.078643 196.087633 
L 382.279393 195.357487 
L 382.719542 195.158356 
L 383.599842 194.560964 
L 384.920292 193.99676 
L 385.800592 193.498933 
L 386.680891 192.967918 
L 387.121041 192.669222 
L 387.561191 192.171395 
L 388.881641 191.40806 
L 389.321791 191.242118 
L 390.20209 190.711102 
L 391.96269 189.715448 
L 392.40284 189.615883 
L 392.84299 189.25081 
L 395.924039 188.255156 
L 396.364189 187.923271 
L 397.244488 187.657764 
L 398.124788 187.292691 
L 398.564938 186.927618 
L 400.325537 186.297037 
L 401.205837 185.666456 
L 402.086137 185.301383 
L 402.966437 184.604425 
L 403.846736 184.338917 
L 404.286886 183.940656 
L 404.727036 183.874279 
L 405.607336 183.177321 
L 406.487636 182.712683 
L 406.927785 182.513552 
L 407.367935 182.048913 
L 410.448984 180.787752 
L 411.329284 180.38949 
L 412.649734 179.95804 
L 413.530034 179.825286 
L 413.970183 179.626156 
L 414.410333 179.559779 
L 415.290633 179.161517 
L 415.730783 179.128329 
L 417.491382 178.464559 
L 418.811832 177.502094 
L 419.251982 177.336152 
L 420.132282 176.838325 
L 420.572431 176.705571 
L 423.213331 175.21209 
L 423.653481 175.112525 
L 424.97393 174.316002 
L 426.29438 173.851363 
L 427.17468 173.552667 
L 428.935279 172.955275 
L 429.815579 172.656578 
L 431.576178 172.291505 
L 432.016328 172.092375 
L 432.896628 171.860055 
L 433.336778 171.660925 
L 433.776928 171.594548 
L 434.217077 171.362228 
L 435.097377 171.196286 
L 436.417827 170.698459 
L 437.298127 170.598894 
L 438.618576 170.300198 
L 440.819326 169.901936 
L 452.263222 166.450336 
L 452.703372 165.985697 
L 453.583672 165.620624 
L 457.104871 164.259897 
L 457.545021 163.99439 
L 458.86547 163.596128 
L 459.74577 163.363809 
L 460.18592 163.065113 
L 460.62607 162.965547 
L 461.06622 162.567286 
L 462.386669 162.301778 
L 463.266969 161.870328 
L 463.707119 161.339313 
L 465.467718 160.907863 
L 468.548768 160.244093 
L 468.988917 160.244093 
L 469.429067 160.044962 
L 471.189667 159.713078 
L 471.629817 159.513947 
L 473.390416 159.182062 
L 474.270716 158.816989 
L 475.151016 158.651047 
L 477.351765 158.086843 
L 479.112364 157.522639 
L 479.552514 157.423074 
L 479.992664 157.190755 
L 480.872964 156.958435 
L 481.753264 156.593362 
L 482.633563 156.261478 
L 483.073713 155.962782 
L 483.954013 155.697274 
L 487.035062 154.535678 
L 488.795662 154.303358 
L 492.316861 153.009008 
L 492.75701 152.677124 
L 493.19716 152.577558 
L 493.63731 152.345239 
L 494.07746 152.312051 
L 498.919109 150.553062 
L 501.119858 149.95567 
L 502.000158 149.52422 
L 503.320607 149.225524 
L 505.081207 147.765231 
L 506.841806 147.001896 
L 507.722106 146.603635 
L 510.363005 145.574793 
L 510.803155 145.276096 
L 513.003905 144.54595 
L 514.324354 143.782616 
L 514.764504 143.68305 
L 516.525104 142.687396 
L 518.285703 141.890873 
L 518.725853 141.558989 
L 519.606153 141.260292 
L 521.806902 140.131885 
L 523.127352 139.667246 
L 524.887951 138.9371 
L 526.208401 138.439273 
L 526.648551 138.273331 
L 527.52885 138.140577 
L 527.969 137.841881 
L 529.7296 137.476808 
L 530.609899 137.111734 
L 532.370499 136.282023 
L 538.532597 133.560569 
L 539.853047 133.129119 
L 540.293197 132.830423 
L 541.173496 132.730857 
L 541.613646 132.432161 
L 542.493946 132.266219 
L 543.374246 131.834769 
L 543.814396 131.635638 
L 544.694695 131.403319 
L 545.574995 131.137811 
L 546.895445 130.639984 
L 548.215894 130.208534 
L 549.536344 129.909838 
L 551.296943 129.179692 
L 552.177243 128.681865 
L 553.937843 127.785776 
L 554.818142 127.586646 
L 555.258292 127.321138 
L 555.698442 127.221573 
L 557.018892 126.458238 
L 557.899191 126.093165 
L 559.659791 125.396207 
L 561.86054 124.632872 
L 562.74084 124.168234 
L 564.941589 123.404899 
L 567.582489 122.30968 
L 569.343088 121.479968 
L 573.744587 119.754168 
L 574.624887 119.322718 
L 575.065036 119.223153 
L 575.505186 118.990834 
L 577.265786 118.493007 
L 579.026385 117.032714 
L 579.466535 116.89996 
L 579.906685 116.634453 
L 581.227135 116.26938 
L 581.667285 115.937495 
L 582.107434 115.83793 
L 582.987734 115.273726 
L 584.308184 114.576768 
L 585.188484 114.211695 
L 585.628633 113.979376 
L 586.949083 113.68068 
L 589.149832 112.917345 
L 590.030132 112.618649 
L 591.350582 111.954879 
L 592.230881 111.523429 
L 593.111181 111.29111 
L 594.431631 110.660529 
L 598.39298 109.167049 
L 599.713429 108.337337 
L 600.153579 108.237772 
L 601.033879 107.806322 
L 601.914179 107.474437 
L 602.354329 107.076175 
L 603.234628 106.711102 
L 604.555078 106.246464 
L 604.995228 105.881391 
L 605.435378 105.848202 
L 606.315677 105.582695 
L 607.195977 105.283998 
L 607.636127 105.084868 
L 608.076277 105.018491 
L 609.396726 104.520664 
L 610.717176 104.022837 
L 612.477776 103.226314 
L 613.358075 102.993994 
L 613.798225 102.728487 
L 614.678525 102.496168 
L 615.998975 101.732833 
L 616.439124 101.699644 
L 617.759574 101.268194 
L 618.639874 101.201817 
L 619.080024 100.969498 
L 619.960323 100.737179 
L 620.400473 100.50486 
L 622.601223 100.07341 
L 623.481522 99.907467 
L 624.801972 99.40964 
L 626.122422 99.110944 
L 627.442871 98.413987 
L 627.883021 98.015725 
L 629.203471 97.219202 
L 629.643621 96.887317 
L 630.96407 96.455867 
L 631.84437 96.19036 
L 632.28452 95.95804 
L 632.72467 95.858475 
L 633.16482 95.493402 
L 635.805719 94.364994 
L 637.566318 93.900356 
L 638.446618 93.502094 
L 638.886768 93.269775 
L 639.767068 93.004267 
L 640.207218 92.738759 
L 641.087517 92.572817 
L 644.608716 91.046148 
L 645.048866 90.979771 
L 646.369316 90.116871 
L 646.809466 90.050494 
L 648.570065 89.353536 
L 650.330665 88.922086 
L 650.770814 88.855709 
L 651.210964 88.656578 
L 651.651114 88.62339 
L 652.531414 88.324694 
L 652.971564 88.291505 
L 654.292013 87.76049 
L 656.052613 87.262663 
L 656.932913 86.598894 
L 658.693512 85.60324 
L 660.013962 85.138601 
L 663.535161 83.44599 
L 663.975311 83.21367 
L 664.41546 82.815409 
L 666.61621 82.218017 
L 667.936659 81.620624 
L 668.816959 81.388305 
L 669.257109 81.155986 
L 669.697259 80.790913 
L 671.457858 80.326274 
L 671.898008 79.99439 
L 677.619957 77.903516 
L 678.500256 77.737574 
L 680.701006 77.040616 
L 681.581305 76.675543 
L 682.461605 76.343659 
L 683.341905 76.111339 
L 683.782055 75.912209 
L 684.222205 75.912209 
L 685.102504 75.547136 
L 685.982804 75.01612 
L 689.063853 73.987278 
L 690.824453 73.389885 
L 692.144902 73.091189 
L 693.465352 72.659739 
L 693.905502 72.560174 
L 694.345652 72.261478 
L 695.225951 72.062347 
L 696.986551 71.56452 
L 697.426701 71.531331 
L 698.307001 71.13307 
L 701.38805 70.369735 
L 702.268349 70.004662 
L 706.669848 69.009008 
L 707.990298 68.312051 
L 709.310747 67.913789 
L 713.712246 66.287554 
L 714.152396 65.95567 
L 715.472846 65.656974 
L 716.353145 65.391466 
L 717.233445 64.960016 
L 717.673595 64.561754 
L 718.553895 64.296247 
L 718.994045 64.030739 
L 719.874344 63.931173 
L 722.955393 63.068273 
L 724.275843 62.802766 
L 726.916742 61.939866 
L 728.677342 61.110154 
L 733.95914 59.218412 
L 735.27959 58.952904 
L 735.71974 58.952904 
L 737.480339 58.3887 
L 737.920489 58.322323 
L 738.800789 57.95725 
L 744.962887 56.165073 
L 745.843187 56.065508 
L 746.283337 55.833188 
L 747.163636 55.8 
L 747.163636 55.8 
" clip-path="url(#p79b7a8d9a4)" style="fill: none; stroke: #1f77b4; stroke-width: 1.5; stroke-linecap: square"/>
   </g>
   <g id="line2d_36">
    <path d="M 138.876514 307.8 
L 142.837862 307.700435 
L 146.359061 307.534492 
L 148.119661 307.534492 
L 148.559811 307.401738 
L 150.76056 307.302173 
L 153.401459 307.003477 
L 156.042359 306.903911 
L 156.922658 306.804346 
L 160.003707 306.671592 
L 163.084756 306.572027 
L 165.285506 306.50565 
L 171.007454 306.406085 
L 173.208204 306.339708 
L 177.169552 306.240142 
L 178.930152 306.206954 
L 183.331651 306.107388 
L 185.09225 305.941446 
L 186.85285 305.908258 
L 189.493749 305.808692 
L 191.254348 305.775504 
L 193.455098 305.709127 
L 195.215697 305.543185 
L 199.177046 305.443619 
L 200.057346 305.377242 
L 201.817945 305.277677 
L 204.458844 305.178111 
L 206.219444 305.078546 
L 214.142142 304.580719 
L 217.223191 304.481154 
L 218.54364 304.3484 
L 220.74439 304.248834 
L 225.145888 304.016515 
L 229.547387 303.950138 
L 231.307987 303.751008 
L 233.068586 303.651442 
L 237.910235 303.186804 
L 240.991284 302.821731 
L 242.311733 302.755354 
L 245.832932 302.290715 
L 248.473832 302.224338 
L 249.794281 302.091584 
L 251.114731 301.992019 
L 263.438927 301.029554 
L 264.319227 300.863611 
L 266.960126 300.764046 
L 274.002524 300.332596 
L 277.083573 300.23303 
L 278.844173 300.0339 
L 281.044922 299.934334 
L 283.685821 299.834769 
L 285.886571 299.735203 
L 287.64717 299.702015 
L 289.84792 299.635638 
L 290.728219 299.502884 
L 296.890317 299.403319 
L 297.770617 299.303753 
L 303.052416 299.204188 
L 307.013765 299.005057 
L 310.094814 298.905492 
L 311.855413 298.706361 
L 314.936462 298.606796 
L 315.816762 298.440853 
L 318.017511 298.374476 
L 322.41901 298.3081 
L 324.17961 298.142157 
L 325.940209 298.108969 
L 327.260659 298.009403 
L 329.021258 297.843461 
L 333.422757 297.611142 
L 337.824256 297.511576 
L 341.785604 297.312446 
L 343.106054 297.279257 
L 343.986354 297.146503 
L 346.187103 297.046938 
L 347.067403 296.980561 
L 347.947703 296.914184 
L 348.828002 296.847807 
L 352.789351 296.78143 
L 354.109801 296.681865 
L 365.993847 295.885342 
L 368.194597 295.785776 
L 370.395346 295.719399 
L 376.557444 295.619834 
L 377.437744 295.48708 
L 383.599842 295.387515 
L 388.001341 295.155196 
L 388.881641 295.122007 
L 389.76194 295.022442 
L 391.96269 294.922876 
L 394.163439 294.856499 
L 396.364189 294.756934 
L 398.564938 294.690557 
L 402.526287 294.590992 
L 405.167186 294.491426 
L 411.329284 294.391861 
L 416.170933 294.126353 
L 417.931532 294.059976 
L 419.251982 293.960411 
L 425.41408 293.860846 
L 428.054979 293.76128 
L 435.977677 293.661715 
L 437.738276 293.628526 
L 443.020075 293.562149 
L 443.900375 293.495772 
L 450.062473 293.396207 
L 451.823072 293.363019 
L 463.266969 293.263453 
L 465.907868 293.163888 
L 484.394163 293.064322 
L 486.594912 292.997945 
L 498.038809 292.931569 
L 498.919109 292.865192 
L 501.119858 292.798815 
L 502.440308 292.666061 
L 505.081207 292.566495 
L 508.162256 292.433742 
L 512.123605 292.334176 
L 514.324354 292.267799 
L 517.405403 292.168234 
L 520.926602 292.002292 
L 523.127352 291.902726 
L 524.887951 291.869538 
L 528.8493 291.769972 
L 530.609899 291.736784 
L 536.331848 291.637218 
L 538.092447 291.60403 
L 540.293197 291.504465 
L 542.934096 291.404899 
L 546.015145 291.338522 
L 546.895445 291.272145 
L 557.459042 291.17258 
L 563.18099 290.840695 
L 565.381739 290.774318 
L 566.262039 290.674753 
L 567.142339 290.608376 
L 570.663538 290.508811 
L 573.304437 290.409245 
L 577.705936 290.30968 
L 579.906685 290.077361 
L 584.308184 289.977795 
L 585.188484 289.87823 
L 589.589982 289.778665 
L 591.790732 289.712288 
L 596.63238 289.679099 
L 597.51268 289.579534 
L 602.354329 289.479968 
L 603.234628 289.413591 
L 612.917925 289.314026 
L 615.558825 289.214461 
L 622.161073 289.114895 
L 623.921672 289.081707 
L 627.883021 289.01533 
L 628.763321 288.915765 
L 634.485269 288.816199 
L 636.686019 288.749822 
L 644.608716 288.650257 
L 645.929166 288.550691 
L 647.249615 288.451126 
L 648.570065 288.351561 
L 655.172313 288.251995 
L 657.813212 288.15243 
L 669.697259 288.052864 
L 673.658608 287.853734 
L 678.940406 287.754168 
L 679.820706 287.687791 
L 686.422954 287.621414 
L 687.303254 287.555038 
L 692.144902 287.455472 
L 693.905502 287.422284 
L 700.0676 287.322718 
L 702.708499 287.223153 
L 710.191047 287.123588 
L 711.951647 287.090399 
L 715.912995 286.990834 
L 719.434194 286.824891 
L 724.275843 286.725326 
L 727.356892 286.592572 
L 731.318241 286.493007 
L 732.198541 286.42663 
L 741.001538 286.327064 
L 743.202288 286.260687 
L 745.843187 286.161122 
L 747.163636 286.127934 
L 747.163636 286.127934 
" clip-path="url(#p79b7a8d9a4)" style="fill: none; stroke: #ff7f0e; stroke-width: 1.5; stroke-linecap: square"/>
   </g>
   <g id="patch_3">
    <path d="M 108 320.4 
L 108 43.2 
" style="fill: none; stroke: #a9a9a9; stroke-width: 0.8; stroke-linejoin: miter; stroke-linecap: square"/>
   </g>
   <g id="patch_4">
    <path d="M 777.6 320.4 
L 777.6 43.2 
" style="fill: none"/>
   </g>
   <g id="patch_5">
    <path d="M 108 320.4 
L 777.6 320.4 
" style="fill: none; stroke: #a9a9a9; stroke-width: 0.8; stroke-linejoin: miter; stroke-linecap: square"/>
   </g>
   <g id="patch_6">
    <path d="M 108 43.2 
L 777.6 43.2 
" style="fill: none"/>
   </g>
   <g id="text_18">
    <!-- get_subscribe history -->
    <g style="fill: #a9a9a9" transform="translate(378.6075 37.2) scale(0.12 -0.12)">
     <defs>
      <path id="DejaVuSans-67" d="M 2906 1791 
Q 2906 2416 2648 2759 
Q 2391 3103 1925 3103 
Q 1463 3103 1205 2759 
Q 947 2416 947 1791 
Q 947 1169 1205 825 
Q 1463 481 1925 481 
Q 2391 481 2648 825 
Q 2906 1169 2906 1791 
z
M 3481 434 
Q 3481 -459 3084 -895 
Q 2688 -1331 1869 -1331 
Q 1566 -1331 1297 -1286 
Q 1028 -1241 775 -1147 
L 775 -588 
Q 1028 -725 1275 -790 
Q 1522 -856 1778 -856 
Q 2344 -856 2625 -561 
Q 2906 -266 2906 331 
L 2906 616 
Q 2728 306 2450 153 
Q 2172 0 1784 0 
Q 1141 0 747 490 
Q 353 981 353 1791 
Q 353 2603 747 3093 
Q 1141 3584 1784 3584 
Q 2172 3584 2450 3431 
Q 2728 3278 2906 2969 
L 2906 3500 
L 3481 3500 
L 3481 434 
z
" transform="scale(0.015625)"/>
      <path id="DejaVuSans-65" d="M 3597 1894 
L 3597 1613 
L 953 1613 
Q 991 1019 1311 708 
Q 1631 397 2203 397 
Q 2534 397 2845 478 
Q 3156 559 3463 722 
L 3463 178 
Q 3153 47 2828 -22 
Q 2503 -91 2169 -91 
Q 1331 -91 842 396 
Q 353 884 353 1716 
Q 353 2575 817 3079 
Q 1281 3584 2069 3584 
Q 2775 3584 3186 3129 
Q 3597 2675 3597 1894 
z
M 3022 2063 
Q 3016 2534 2758 2815 
Q 2500 3097 2075 3097 
Q 1594 3097 1305 2825 
Q 1016 2553 972 2059 
L 3022 2063 
z
" transform="scale(0.015625)"/>
      <path id="DejaVuSans-74" d="M 1172 4494 
L 1172 3500 
L 2356 3500 
L 2356 3053 
L 1172 3053 
L 1172 1153 
Q 1172 725 1289 603 
Q 1406 481 1766 481 
L 2356 481 
L 2356 0 
L 1766 0 
Q 1100 0 847 248 
Q 594 497 594 1153 
L 594 3053 
L 172 3053 
L 172 3500 
L 594 3500 
L 594 4494 
L 1172 4494 
z
" transform="scale(0.015625)"/>
      <path id="DejaVuSans-5f" d="M 3263 -1063 
L 3263 -1509 
L -63 -1509 
L -63 -1063 
L 3263 -1063 
z
" transform="scale(0.015625)"/>
      <path id="DejaVuSans-73" d="M 2834 3397 
L 2834 2853 
Q 2591 2978 2328 3040 
Q 2066 3103 1784 3103 
Q 1356 3103 1142 2972 
Q 928 2841 928 2578 
Q 928 2378 1081 2264 
Q 1234 2150 1697 2047 
L 1894 2003 
Q 2506 1872 2764 1633 
Q 3022 1394 3022 966 
Q 3022 478 2636 193 
Q 2250 -91 1575 -91 
Q 1294 -91 989 -36 
Q 684 19 347 128 
L 347 722 
Q 666 556 975 473 
Q 1284 391 1588 391 
Q 1994 391 2212 530 
Q 2431 669 2431 922 
Q 2431 1156 2273 1281 
Q 2116 1406 1581 1522 
L 1381 1569 
Q 847 1681 609 1914 
Q 372 2147 372 2553 
Q 372 3047 722 3315 
Q 1072 3584 1716 3584 
Q 2034 3584 2315 3537 
Q 2597 3491 2834 3397 
z
" transform="scale(0.015625)"/>
      <path id="DejaVuSans-75" d="M 544 1381 
L 544 3500 
L 1119 3500 
L 1119 1403 
Q 1119 906 1312 657 
Q 1506 409 1894 409 
Q 2359 409 2629 706 
Q 2900 1003 2900 1516 
L 2900 3500 
L 3475 3500 
L 3475 0 
L 2900 0 
L 2900 538 
Q 2691 219 2414 64 
Q 2138 -91 1772 -91 
Q 1169 -91 856 284 
Q 544 659 544 1381 
z
M 1991 3584 
L 1991 3584 
z
" transform="scale(0.015625)"/>
      <path id="DejaVuSans-62" d="M 3116 1747 
Q 3116 2381 2855 2742 
Q 2594 3103 2138 3103 
Q 1681 3103 1420 2742 
Q 1159 2381 1159 1747 
Q 1159 1113 1420 752 
Q 1681 391 2138 391 
Q 2594 391 2855 752 
Q 3116 1113 3116 1747 
z
M 1159 2969 
Q 1341 3281 1617 3432 
Q 1894 3584 2278 3584 
Q 2916 3584 3314 3078 
Q 3713 2572 3713 1747 
Q 3713 922 3314 415 
Q 2916 -91 2278 -91 
Q 1894 -91 1617 61 
Q 1341 213 1159 525 
L 1159 0 
L 581 0 
L 581 4863 
L 1159 4863 
L 1159 2969 
z
" transform="scale(0.015625)"/>
      <path id="DejaVuSans-63" d="M 3122 3366 
L 3122 2828 
Q 2878 2963 2633 3030 
Q 2388 3097 2138 3097 
Q 1578 3097 1268 2742 
Q 959 2388 959 1747 
Q 959 1106 1268 751 
Q 1578 397 2138 397 
Q 2388 397 2633 464 
Q 2878 531 3122 666 
L 3122 134 
Q 2881 22 2623 -34 
Q 2366 -91 2075 -91 
Q 1284 -91 818 406 
Q 353 903 353 1747 
Q 353 2603 823 3093 
Q 1294 3584 2113 3584 
Q 2378 3584 2631 3529 
Q 2884 3475 3122 3366 
z
" transform="scale(0.015625)"/>
      <path id="DejaVuSans-72" d="M 2631 2963 
Q 2534 3019 2420 3045 
Q 2306 3072 2169 3072 
Q 1681 3072 1420 2755 
Q 1159 2438 1159 1844 
L 1159 0 
L 581 0 
L 581 3500 
L 1159 3500 
L 1159 2956 
Q 1341 3275 1631 3429 
Q 1922 3584 2338 3584 
Q 2397 3584 2469 3576 
Q 2541 3569 2628 3553 
L 2631 2963 
z
" transform="scale(0.015625)"/>
      <path id="DejaVuSans-69" d="M 603 3500 
L 1178 3500 
L 1178 0 
L 603 0 
L 603 3500 
z
M 603 4863 
L 1178 4863 
L 1178 4134 
L 603 4134 
L 603 4863 
z
" transform="scale(0.015625)"/>
      <path id="DejaVuSans-20" transform="scale(0.015625)"/>
      <path id="DejaVuSans-68" d="M 3513 2113 
L 3513 0 
L 2938 0 
L 2938 2094 
Q 2938 2591 2744 2837 
Q 2550 3084 2163 3084 
Q 1697 3084 1428 2787 
Q 1159 2491 1159 1978 
L 1159 0 
L 581 0 
L 581 4863 
L 1159 4863 
L 1159 2956 
Q 1366 3272 1645 3428 
Q 1925 3584 2291 3584 
Q 2894 3584 3203 3211 
Q 3513 2838 3513 2113 
z
" transform="scale(0.015625)"/>
      <path id="DejaVuSans-6f" d="M 1959 3097 
Q 1497 3097 1228 2736 
Q 959 2375 959 1747 
Q 959 1119 1226 758 
Q 1494 397 1959 397 
Q 2419 397 2687 759 
Q 2956 1122 2956 1747 
Q 2956 2369 2687 2733 
Q 2419 3097 1959 3097 
z
M 1959 3584 
Q 2709 3584 3137 3096 
Q 3566 2609 3566 1747 
Q 3566 888 3137 398 
Q 2709 -91 1959 -91 
Q 1206 -91 779 398 
Q 353 888 353 1747 
Q 353 2609 779 3096 
Q 1206 3584 1959 3584 
z
" transform="scale(0.015625)"/>
      <path id="DejaVuSans-79" d="M 2059 -325 
Q 1816 -950 1584 -1140 
Q 1353 -1331 966 -1331 
L 506 -1331 
L 506 -850 
L 844 -850 
Q 1081 -850 1212 -737 
Q 1344 -625 1503 -206 
L 1606 56 
L 191 3500 
L 800 3500 
L 1894 763 
L 2988 3500 
L 3597 3500 
L 2059 -325 
z
" transform="scale(0.015625)"/>
     </defs>
     <use xlink:href="#DejaVuSans-67"/>
     <use xlink:href="#DejaVuSans-65" transform="translate(63.476562 0)"/>
     <use xlink:href="#DejaVuSans-74" transform="translate(125 0)"/>
     <use xlink:href="#DejaVuSans-5f" transform="translate(164.208984 0)"/>
     <use xlink:href="#DejaVuSans-73" transform="translate(214.208984 0)"/>
     <use xlink:href="#DejaVuSans-75" transform="translate(266.308594 0)"/>
     <use xlink:href="#DejaVuSans-62" transform="translate(329.6875 0)"/>
     <use xlink:href="#DejaVuSans-73" transform="translate(393.164062 0)"/>
     <use xlink:href="#DejaVuSans-63" transform="translate(445.263672 0)"/>
     <use xlink:href="#DejaVuSans-72" transform="translate(500.244141 0)"/>
     <use xlink:href="#DejaVuSans-69" transform="translate(541.357422 0)"/>
     <use xlink:href="#DejaVuSans-62" transform="translate(569.140625 0)"/>
     <use xlink:href="#DejaVuSans-65" transform="translate(632.617188 0)"/>
     <use xlink:href="#DejaVuSans-20" transform="translate(694.140625 0)"/>
     <use xlink:href="#DejaVuSans-68" transform="translate(725.927734 0)"/>
     <use xlink:href="#DejaVuSans-69" transform="translate(789.306641 0)"/>
     <use xlink:href="#DejaVuSans-73" transform="translate(817.089844 0)"/>
     <use xlink:href="#DejaVuSans-74" transform="translate(869.189453 0)"/>
     <use xlink:href="#DejaVuSans-6f" transform="translate(908.398438 0)"/>
     <use xlink:href="#DejaVuSans-72" transform="translate(969.580078 0)"/>
     <use xlink:href="#DejaVuSans-79" transform="translate(1010.693359 0)"/>
    </g>
   </g>
   <g id="legend_1">
    <g id="line2d_37">
     <path d="M 815.08 328.498438 
L 825.08 328.498438 
L 835.08 328.498438 
" style="fill: none; stroke: #1f77b4; stroke-width: 1.5; stroke-linecap: square"/>
    </g>
    <g id="text_19">
     <!-- star -->
     <g style="fill: #a9a9a9" transform="translate(843.08 331.998438) scale(0.1 -0.1)">
      <defs>
       <path id="DejaVuSans-61" d="M 2194 1759 
Q 1497 1759 1228 1600 
Q 959 1441 959 1056 
Q 959 750 1161 570 
Q 1363 391 1709 391 
Q 2188 391 2477 730 
Q 2766 1069 2766 1631 
L 2766 1759 
L 2194 1759 
z
M 3341 1997 
L 3341 0 
L 2766 0 
L 2766 531 
Q 2569 213 2275 61 
Q 1981 -91 1556 -91 
Q 1019 -91 701 211 
Q 384 513 384 1019 
Q 384 1609 779 1909 
Q 1175 2209 1959 2209 
L 2766 2209 
L 2766 2266 
Q 2766 2663 2505 2880 
Q 2244 3097 1772 3097 
Q 1472 3097 1187 3025 
Q 903 2953 641 2809 
L 641 3341 
Q 956 3463 1253 3523 
Q 1550 3584 1831 3584 
Q 2591 3584 2966 3190 
Q 3341 2797 3341 1997 
z
" transform="scale(0.015625)"/>
      </defs>
      <use xlink:href="#DejaVuSans-73"/>
      <use xlink:href="#DejaVuSans-74" transform="translate(52.099609 0)"/>
      <use xlink:href="#DejaVuSans-61" transform="translate(91.308594 0)"/>
      <use xlink:href="#DejaVuSans-72" transform="translate(152.587891 0)"/>
     </g>
    </g>
    <g id="line2d_38">
     <path d="M 815.08 343.176562 
L 825.08 343.176562 
L 835.08 343.176562 
" style="fill: none; stroke: #ff7f0e; stroke-width: 1.5; stroke-linecap: square"/>
    </g>
    <g id="text_20">
     <!-- fork -->
     <g style="fill: #a9a9a9" transform="translate(843.08 346.676562) scale(0.1 -0.1)">
      <defs>
       <path id="DejaVuSans-66" d="M 2375 4863 
L 2375 4384 
L 1825 4384 
Q 1516 4384 1395 4259 
Q 1275 4134 1275 3809 
L 1275 3500 
L 2222 3500 
L 2222 3053 
L 1275 3053 
L 1275 0 
L 697 0 
L 697 3053 
L 147 3053 
L 147 3500 
L 697 3500 
L 697 3744 
Q 697 4328 969 4595 
Q 1241 4863 1831 4863 
L 2375 4863 
z
" transform="scale(0.015625)"/>
       <path id="DejaVuSans-6b" d="M 581 4863 
L 1159 4863 
L 1159 1991 
L 2875 3500 
L 3609 3500 
L 1753 1863 
L 3688 0 
L 2938 0 
L 1159 1709 
L 1159 0 
L 581 0 
L 581 4863 
z
" transform="scale(0.015625)"/>
      </defs>
      <use xlink:href="#DejaVuSans-66"/>
      <use xlink:href="#DejaVuSans-6f" transform="translate(35.205078 0)"/>
      <use xlink:href="#DejaVuSans-72" transform="translate(96.386719 0)"/>
      <use xlink:href="#DejaVuSans-6b" transform="translate(137.5 0)"/>
     </g>
    </g>
   </g>
  </g>
 </g>
 <defs>
  <clipPath id="p79b7a8d9a4">
   <rect x="108" y="43.2" width="669.6" height="277.2"/>
  </clipPath>
 </defs>
</svg>
