<?xml version="1.0" encoding="utf-8" standalone="no"?>
<!DOCTYPE svg PUBLIC "-//W3C//DTD SVG 1.1//EN"
  "http://www.w3.org/Graphics/SVG/1.1/DTD/svg11.dtd">
<svg xmlns:xlink="http://www.w3.org/1999/xlink" width="864pt" height="360pt" viewBox="0 0 864 360" xmlns="http://www.w3.org/2000/svg" version="1.1">
 <metadata>
  <rdf:RDF xmlns:dc="http://purl.org/dc/elements/1.1/" xmlns:cc="http://creativecommons.org/ns#" xmlns:rdf="http://www.w3.org/1999/02/22-rdf-syntax-ns#">
   <cc:Work>
    <dc:type rdf:resource="http://purl.org/dc/dcmitype/StillImage"/>
    <dc:date>2025-11-25T20:08:53.356177</dc:date>
    <dc:format>image/svg+xml</dc:format>
    <dc:creator>
     <cc:Agent>
      <dc:title>Matplotlib v3.10.7, https://matplotlib.org/</dc:title>
     </cc:Agent>
    </dc:creator>
   </cc:Work>
  </rdf:RDF>
 </metadata>
 <defs>
  <style type="text/css">*{stroke-linejoin: round; stroke-linecap: butt}</style>
 </defs>
 <g id="figure_1">
  <g id="patch_1">
   <path d="M 0 360 
L 864 360 
L 864 0 
L 0 0 
L 0 360 
z
" style="fill: none; opacity: 0"/>
  </g>
  <g id="axes_1">
   <g id="patch_2">
    <path d="M 108 320.4 
L 777.6 320.4 
L 777.6 43.2 
L 108 43.2 
L 108 320.4 
z
" style="fill: none; opacity: 0"/>
   </g>
   <g id="matplotlib.axis_1">
    <g id="xtick_1">
     <g id="line2d_1">
      <path d="M 129.603097 320.4 
L 129.603097 43.2 
" clip-path="url(#pdf18cd47fd)" style="fill: none; stroke-dasharray: 5.12,1.28,0.8,1.28; stroke-dashoffset: 0; stroke: #b0b0b0; stroke-width: 0.8"/>
     </g>
     <g id="line2d_2">
      <defs>
       <path id="m55f284c9c4" d="M 0 0 
L 0 3.5 
" style="stroke: #a9a9a9; stroke-width: 0.8"/>
      </defs>
      <g>
       <use xlink:href="#m55f284c9c4" x="129.603097" y="320.4" style="fill: #a9a9a9; stroke: #a9a9a9; stroke-width: 0.8"/>
      </g>
     </g>
     <g id="text_1">
      <!-- 2021-07 -->
      <g style="fill: #a9a9a9" transform="translate(108.711691 334.998438) scale(0.1 -0.1)">
       <defs>
        <path id="DejaVuSans-32" d="M 1228 531 
L 3431 531 
L 3431 0 
L 469 0 
L 469 531 
Q 828 903 1448 1529 
Q 2069 2156 2228 2338 
Q 2531 2678 2651 2914 
Q 2772 3150 2772 3378 
Q 2772 3750 2511 3984 
Q 2250 4219 1831 4219 
Q 1534 4219 1204 4116 
Q 875 4013 500 3803 
L 500 4441 
Q 881 4594 1212 4672 
Q 1544 4750 1819 4750 
Q 2544 4750 2975 4387 
Q 3406 4025 3406 3419 
Q 3406 3131 3298 2873 
Q 3191 2616 2906 2266 
Q 2828 2175 2409 1742 
Q 1991 1309 1228 531 
z
" transform="scale(0.015625)"/>
        <path id="DejaVuSans-30" d="M 2034 4250 
Q 1547 4250 1301 3770 
Q 1056 3291 1056 2328 
Q 1056 1369 1301 889 
Q 1547 409 2034 409 
Q 2525 409 2770 889 
Q 3016 1369 3016 2328 
Q 3016 3291 2770 3770 
Q 2525 4250 2034 4250 
z
M 2034 4750 
Q 2819 4750 3233 4129 
Q 3647 3509 3647 2328 
Q 3647 1150 3233 529 
Q 2819 -91 2034 -91 
Q 1250 -91 836 529 
Q 422 1150 422 2328 
Q 422 3509 836 4129 
Q 1250 4750 2034 4750 
z
" transform="scale(0.015625)"/>
        <path id="DejaVuSans-31" d="M 794 531 
L 1825 531 
L 1825 4091 
L 703 3866 
L 703 4441 
L 1819 4666 
L 2450 4666 
L 2450 531 
L 3481 531 
L 3481 0 
L 794 0 
L 794 531 
z
" transform="scale(0.015625)"/>
        <path id="DejaVuSans-2d" d="M 313 2009 
L 1997 2009 
L 1997 1497 
L 313 1497 
L 313 2009 
z
" transform="scale(0.015625)"/>
        <path id="DejaVuSans-37" d="M 525 4666 
L 3525 4666 
L 3525 4397 
L 1831 0 
L 1172 0 
L 2766 4134 
L 525 4134 
L 525 4666 
z
" transform="scale(0.015625)"/>
       </defs>
       <use xlink:href="#DejaVuSans-32"/>
       <use xlink:href="#DejaVuSans-30" transform="translate(63.623047 0)"/>
       <use xlink:href="#DejaVuSans-32" transform="translate(127.246094 0)"/>
       <use xlink:href="#DejaVuSans-31" transform="translate(190.869141 0)"/>
       <use xlink:href="#DejaVuSans-2d" transform="translate(254.492188 0)"/>
       <use xlink:href="#DejaVuSans-30" transform="translate(290.576172 0)"/>
       <use xlink:href="#DejaVuSans-37" transform="translate(354.199219 0)"/>
      </g>
     </g>
    </g>
    <g id="xtick_2">
     <g id="line2d_3">
      <path d="M 200.269229 320.4 
L 200.269229 43.2 
" clip-path="url(#pdf18cd47fd)" style="fill: none; stroke-dasharray: 5.12,1.28,0.8,1.28; stroke-dashoffset: 0; stroke: #b0b0b0; stroke-width: 0.8"/>
     </g>
     <g id="line2d_4">
      <g>
       <use xlink:href="#m55f284c9c4" x="200.269229" y="320.4" style="fill: #a9a9a9; stroke: #a9a9a9; stroke-width: 0.8"/>
      </g>
     </g>
     <g id="text_2">
      <!-- 2022-01 -->
      <g style="fill: #a9a9a9" transform="translate(179.377822 334.998438) scale(0.1 -0.1)">
       <use xlink:href="#DejaVuSans-32"/>
       <use xlink:href="#DejaVuSans-30" transform="translate(63.623047 0)"/>
       <use xlink:href="#DejaVuSans-32" transform="translate(127.246094 0)"/>
       <use xlink:href="#DejaVuSans-32" transform="translate(190.869141 0)"/>
       <use xlink:href="#DejaVuSans-2d" transform="translate(254.492188 0)"/>
       <use xlink:href="#DejaVuSans-30" transform="translate(290.576172 0)"/>
       <use xlink:href="#DejaVuSans-31" transform="translate(354.199219 0)"/>
      </g>
     </g>
    </g>
    <g id="xtick_3">
     <g id="line2d_5">
      <path d="M 269.783195 320.4 
L 269.783195 43.2 
" clip-path="url(#pdf18cd47fd)" style="fill: none; stroke-dasharray: 5.12,1.28,0.8,1.28; stroke-dashoffset: 0; stroke: #b0b0b0; stroke-width: 0.8"/>
     </g>
     <g id="line2d_6">
      <g>
       <use xlink:href="#m55f284c9c4" x="269.783195" y="320.4" style="fill: #a9a9a9; stroke: #a9a9a9; stroke-width: 0.8"/>
      </g>
     </g>
     <g id="text_3">
      <!-- 2022-07 -->
      <g style="fill: #a9a9a9" transform="translate(248.891788 334.998438) scale(0.1 -0.1)">
       <use xlink:href="#DejaVuSans-32"/>
       <use xlink:href="#DejaVuSans-30" transform="translate(63.623047 0)"/>
       <use xlink:href="#DejaVuSans-32" transform="translate(127.246094 0)"/>
       <use xlink:href="#DejaVuSans-32" transform="translate(190.869141 0)"/>
       <use xlink:href="#DejaVuSans-2d" transform="translate(254.492188 0)"/>
       <use xlink:href="#DejaVuSans-30" transform="translate(290.576172 0)"/>
       <use xlink:href="#DejaVuSans-37" transform="translate(354.199219 0)"/>
      </g>
     </g>
    </g>
    <g id="xtick_4">
     <g id="line2d_7">
      <path d="M 340.449326 320.4 
L 340.449326 43.2 
" clip-path="url(#pdf18cd47fd)" style="fill: none; stroke-dasharray: 5.12,1.28,0.8,1.28; stroke-dashoffset: 0; stroke: #b0b0b0; stroke-width: 0.8"/>
     </g>
     <g id="line2d_8">
      <g>
       <use xlink:href="#m55f284c9c4" x="340.449326" y="320.4" style="fill: #a9a9a9; stroke: #a9a9a9; stroke-width: 0.8"/>
      </g>
     </g>
     <g id="text_4">
      <!-- 2023-01 -->
      <g style="fill: #a9a9a9" transform="translate(319.55792 334.998438) scale(0.1 -0.1)">
       <defs>
        <path id="DejaVuSans-33" d="M 2597 2516 
Q 3050 2419 3304 2112 
Q 3559 1806 3559 1356 
Q 3559 666 3084 287 
Q 2609 -91 1734 -91 
Q 1441 -91 1130 -33 
Q 819 25 488 141 
L 488 750 
Q 750 597 1062 519 
Q 1375 441 1716 441 
Q 2309 441 2620 675 
Q 2931 909 2931 1356 
Q 2931 1769 2642 2001 
Q 2353 2234 1838 2234 
L 1294 2234 
L 1294 2753 
L 1863 2753 
Q 2328 2753 2575 2939 
Q 2822 3125 2822 3475 
Q 2822 3834 2567 4026 
Q 2313 4219 1838 4219 
Q 1578 4219 1281 4162 
Q 984 4106 628 3988 
L 628 4550 
Q 988 4650 1302 4700 
Q 1616 4750 1894 4750 
Q 2613 4750 3031 4423 
Q 3450 4097 3450 3541 
Q 3450 3153 3228 2886 
Q 3006 2619 2597 2516 
z
" transform="scale(0.015625)"/>
       </defs>
       <use xlink:href="#DejaVuSans-32"/>
       <use xlink:href="#DejaVuSans-30" transform="translate(63.623047 0)"/>
       <use xlink:href="#DejaVuSans-32" transform="translate(127.246094 0)"/>
       <use xlink:href="#DejaVuSans-33" transform="translate(190.869141 0)"/>
       <use xlink:href="#DejaVuSans-2d" transform="translate(254.492188 0)"/>
       <use xlink:href="#DejaVuSans-30" transform="translate(290.576172 0)"/>
       <use xlink:href="#DejaVuSans-31" transform="translate(354.199219 0)"/>
      </g>
     </g>
    </g>
    <g id="xtick_5">
     <g id="line2d_9">
      <path d="M 409.963292 320.4 
L 409.963292 43.2 
" clip-path="url(#pdf18cd47fd)" style="fill: none; stroke-dasharray: 5.12,1.28,0.8,1.28; stroke-dashoffset: 0; stroke: #b0b0b0; stroke-width: 0.8"/>
     </g>
     <g id="line2d_10">
      <g>
       <use xlink:href="#m55f284c9c4" x="409.963292" y="320.4" style="fill: #a9a9a9; stroke: #a9a9a9; stroke-width: 0.8"/>
      </g>
     </g>
     <g id="text_5">
      <!-- 2023-07 -->
      <g style="fill: #a9a9a9" transform="translate(389.071886 334.998438) scale(0.1 -0.1)">
       <use xlink:href="#DejaVuSans-32"/>
       <use xlink:href="#DejaVuSans-30" transform="translate(63.623047 0)"/>
       <use xlink:href="#DejaVuSans-32" transform="translate(127.246094 0)"/>
       <use xlink:href="#DejaVuSans-33" transform="translate(190.869141 0)"/>
       <use xlink:href="#DejaVuSans-2d" transform="translate(254.492188 0)"/>
       <use xlink:href="#DejaVuSans-30" transform="translate(290.576172 0)"/>
       <use xlink:href="#DejaVuSans-37" transform="translate(354.199219 0)"/>
      </g>
     </g>
    </g>
    <g id="xtick_6">
     <g id="line2d_11">
      <path d="M 480.629424 320.4 
L 480.629424 43.2 
" clip-path="url(#pdf18cd47fd)" style="fill: none; stroke-dasharray: 5.12,1.28,0.8,1.28; stroke-dashoffset: 0; stroke: #b0b0b0; stroke-width: 0.8"/>
     </g>
     <g id="line2d_12">
      <g>
       <use xlink:href="#m55f284c9c4" x="480.629424" y="320.4" style="fill: #a9a9a9; stroke: #a9a9a9; stroke-width: 0.8"/>
      </g>
     </g>
     <g id="text_6">
      <!-- 2024-01 -->
      <g style="fill: #a9a9a9" transform="translate(459.738017 334.998438) scale(0.1 -0.1)">
       <defs>
        <path id="DejaVuSans-34" d="M 2419 4116 
L 825 1625 
L 2419 1625 
L 2419 4116 
z
M 2253 4666 
L 3047 4666 
L 3047 1625 
L 3713 1625 
L 3713 1100 
L 3047 1100 
L 3047 0 
L 2419 0 
L 2419 1100 
L 313 1100 
L 313 1709 
L 2253 4666 
z
" transform="scale(0.015625)"/>
       </defs>
       <use xlink:href="#DejaVuSans-32"/>
       <use xlink:href="#DejaVuSans-30" transform="translate(63.623047 0)"/>
       <use xlink:href="#DejaVuSans-32" transform="translate(127.246094 0)"/>
       <use xlink:href="#DejaVuSans-34" transform="translate(190.869141 0)"/>
       <use xlink:href="#DejaVuSans-2d" transform="translate(254.492188 0)"/>
       <use xlink:href="#DejaVuSans-30" transform="translate(290.576172 0)"/>
       <use xlink:href="#DejaVuSans-31" transform="translate(354.199219 0)"/>
      </g>
     </g>
    </g>
    <g id="xtick_7">
     <g id="line2d_13">
      <path d="M 550.527445 320.4 
L 550.527445 43.2 
" clip-path="url(#pdf18cd47fd)" style="fill: none; stroke-dasharray: 5.12,1.28,0.8,1.28; stroke-dashoffset: 0; stroke: #b0b0b0; stroke-width: 0.8"/>
     </g>
     <g id="line2d_14">
      <g>
       <use xlink:href="#m55f284c9c4" x="550.527445" y="320.4" style="fill: #a9a9a9; stroke: #a9a9a9; stroke-width: 0.8"/>
      </g>
     </g>
     <g id="text_7">
      <!-- 2024-07 -->
      <g style="fill: #a9a9a9" transform="translate(529.636039 334.998438) scale(0.1 -0.1)">
       <use xlink:href="#DejaVuSans-32"/>
       <use xlink:href="#DejaVuSans-30" transform="translate(63.623047 0)"/>
       <use xlink:href="#DejaVuSans-32" transform="translate(127.246094 0)"/>
       <use xlink:href="#DejaVuSans-34" transform="translate(190.869141 0)"/>
       <use xlink:href="#DejaVuSans-2d" transform="translate(254.492188 0)"/>
       <use xlink:href="#DejaVuSans-30" transform="translate(290.576172 0)"/>
       <use xlink:href="#DejaVuSans-37" transform="translate(354.199219 0)"/>
      </g>
     </g>
    </g>
    <g id="xtick_8">
     <g id="line2d_15">
      <path d="M 621.193576 320.4 
L 621.193576 43.2 
" clip-path="url(#pdf18cd47fd)" style="fill: none; stroke-dasharray: 5.12,1.28,0.8,1.28; stroke-dashoffset: 0; stroke: #b0b0b0; stroke-width: 0.8"/>
     </g>
     <g id="line2d_16">
      <g>
       <use xlink:href="#m55f284c9c4" x="621.193576" y="320.4" style="fill: #a9a9a9; stroke: #a9a9a9; stroke-width: 0.8"/>
      </g>
     </g>
     <g id="text_8">
      <!-- 2025-01 -->
      <g style="fill: #a9a9a9" transform="translate(600.30217 334.998438) scale(0.1 -0.1)">
       <defs>
        <path id="DejaVuSans-35" d="M 691 4666 
L 3169 4666 
L 3169 4134 
L 1269 4134 
L 1269 2991 
Q 1406 3038 1543 3061 
Q 1681 3084 1819 3084 
Q 2600 3084 3056 2656 
Q 3513 2228 3513 1497 
Q 3513 744 3044 326 
Q 2575 -91 1722 -91 
Q 1428 -91 1123 -41 
Q 819 9 494 109 
L 494 744 
Q 775 591 1075 516 
Q 1375 441 1709 441 
Q 2250 441 2565 725 
Q 2881 1009 2881 1497 
Q 2881 1984 2565 2268 
Q 2250 2553 1709 2553 
Q 1456 2553 1204 2497 
Q 953 2441 691 2322 
L 691 4666 
z
" transform="scale(0.015625)"/>
       </defs>
       <use xlink:href="#DejaVuSans-32"/>
       <use xlink:href="#DejaVuSans-30" transform="translate(63.623047 0)"/>
       <use xlink:href="#DejaVuSans-32" transform="translate(127.246094 0)"/>
       <use xlink:href="#DejaVuSans-35" transform="translate(190.869141 0)"/>
       <use xlink:href="#DejaVuSans-2d" transform="translate(254.492188 0)"/>
       <use xlink:href="#DejaVuSans-30" transform="translate(290.576172 0)"/>
       <use xlink:href="#DejaVuSans-31" transform="translate(354.199219 0)"/>
      </g>
     </g>
    </g>
    <g id="xtick_9">
     <g id="line2d_17">
      <path d="M 690.707542 320.4 
L 690.707542 43.2 
" clip-path="url(#pdf18cd47fd)" style="fill: none; stroke-dasharray: 5.12,1.28,0.8,1.28; stroke-dashoffset: 0; stroke: #b0b0b0; stroke-width: 0.8"/>
     </g>
     <g id="line2d_18">
      <g>
       <use xlink:href="#m55f284c9c4" x="690.707542" y="320.4" style="fill: #a9a9a9; stroke: #a9a9a9; stroke-width: 0.8"/>
      </g>
     </g>
     <g id="text_9">
      <!-- 2025-07 -->
      <g style="fill: #a9a9a9" transform="translate(669.816136 334.998438) scale(0.1 -0.1)">
       <use xlink:href="#DejaVuSans-32"/>
       <use xlink:href="#DejaVuSans-30" transform="translate(63.623047 0)"/>
       <use xlink:href="#DejaVuSans-32" transform="translate(127.246094 0)"/>
       <use xlink:href="#DejaVuSans-35" transform="translate(190.869141 0)"/>
       <use xlink:href="#DejaVuSans-2d" transform="translate(254.492188 0)"/>
       <use xlink:href="#DejaVuSans-30" transform="translate(290.576172 0)"/>
       <use xlink:href="#DejaVuSans-37" transform="translate(354.199219 0)"/>
      </g>
     </g>
    </g>
    <g id="xtick_10">
     <g id="line2d_19">
      <path d="M 761.373674 320.4 
L 761.373674 43.2 
" clip-path="url(#pdf18cd47fd)" style="fill: none; stroke-dasharray: 5.12,1.28,0.8,1.28; stroke-dashoffset: 0; stroke: #b0b0b0; stroke-width: 0.8"/>
     </g>
     <g id="line2d_20">
      <g>
       <use xlink:href="#m55f284c9c4" x="761.373674" y="320.4" style="fill: #a9a9a9; stroke: #a9a9a9; stroke-width: 0.8"/>
      </g>
     </g>
     <g id="text_10">
      <!-- 2026-01 -->
      <g style="fill: #a9a9a9" transform="translate(740.482267 334.998438) scale(0.1 -0.1)">
       <defs>
        <path id="DejaVuSans-36" d="M 2113 2584 
Q 1688 2584 1439 2293 
Q 1191 2003 1191 1497 
Q 1191 994 1439 701 
Q 1688 409 2113 409 
Q 2538 409 2786 701 
Q 3034 994 3034 1497 
Q 3034 2003 2786 2293 
Q 2538 2584 2113 2584 
z
M 3366 4563 
L 3366 3988 
Q 3128 4100 2886 4159 
Q 2644 4219 2406 4219 
Q 1781 4219 1451 3797 
Q 1122 3375 1075 2522 
Q 1259 2794 1537 2939 
Q 1816 3084 2150 3084 
Q 2853 3084 3261 2657 
Q 3669 2231 3669 1497 
Q 3669 778 3244 343 
Q 2819 -91 2113 -91 
Q 1303 -91 875 529 
Q 447 1150 447 2328 
Q 447 3434 972 4092 
Q 1497 4750 2381 4750 
Q 2619 4750 2861 4703 
Q 3103 4656 3366 4563 
z
" transform="scale(0.015625)"/>
       </defs>
       <use xlink:href="#DejaVuSans-32"/>
       <use xlink:href="#DejaVuSans-30" transform="translate(63.623047 0)"/>
       <use xlink:href="#DejaVuSans-32" transform="translate(127.246094 0)"/>
       <use xlink:href="#DejaVuSans-36" transform="translate(190.869141 0)"/>
       <use xlink:href="#DejaVuSans-2d" transform="translate(254.492188 0)"/>
       <use xlink:href="#DejaVuSans-30" transform="translate(290.576172 0)"/>
       <use xlink:href="#DejaVuSans-31" transform="translate(354.199219 0)"/>
      </g>
     </g>
    </g>
   </g>
   <g id="matplotlib.axis_2">
    <g id="ytick_1">
     <g id="line2d_21">
      <path d="M 108 307.83014 
L 777.6 307.83014 
" clip-path="url(#pdf18cd47fd)" style="fill: none; stroke-dasharray: 5.12,1.28,0.8,1.28; stroke-dashoffset: 0; stroke: #b0b0b0; stroke-width: 0.8"/>
     </g>
     <g id="line2d_22">
      <defs>
       <path id="m26d8d311f4" d="M 0 0 
L -3.5 0 
" style="stroke: #a9a9a9; stroke-width: 0.8"/>
      </defs>
      <g>
       <use xlink:href="#m26d8d311f4" x="108" y="307.83014" style="fill: #a9a9a9; stroke: #a9a9a9; stroke-width: 0.8"/>
      </g>
     </g>
     <g id="text_11">
      <!-- 0 -->
      <g style="fill: #a9a9a9" transform="translate(94.6375 311.629359) scale(0.1 -0.1)">
       <use xlink:href="#DejaVuSans-30"/>
      </g>
     </g>
    </g>
    <g id="ytick_2">
     <g id="line2d_23">
      <path d="M 108 277.690205 
L 777.6 277.690205 
" clip-path="url(#pdf18cd47fd)" style="fill: none; stroke-dasharray: 5.12,1.28,0.8,1.28; stroke-dashoffset: 0; stroke: #b0b0b0; stroke-width: 0.8"/>
     </g>
     <g id="line2d_24">
      <g>
       <use xlink:href="#m26d8d311f4" x="108" y="277.690205" style="fill: #a9a9a9; stroke: #a9a9a9; stroke-width: 0.8"/>
      </g>
     </g>
     <g id="text_12">
      <!-- 1000 -->
      <g style="fill: #a9a9a9" transform="translate(75.55 281.489423) scale(0.1 -0.1)">
       <use xlink:href="#DejaVuSans-31"/>
       <use xlink:href="#DejaVuSans-30" transform="translate(63.623047 0)"/>
       <use xlink:href="#DejaVuSans-30" transform="translate(127.246094 0)"/>
       <use xlink:href="#DejaVuSans-30" transform="translate(190.869141 0)"/>
      </g>
     </g>
    </g>
    <g id="ytick_3">
     <g id="line2d_25">
      <path d="M 108 247.550269 
L 777.6 247.550269 
" clip-path="url(#pdf18cd47fd)" style="fill: none; stroke-dasharray: 5.12,1.28,0.8,1.28; stroke-dashoffset: 0; stroke: #b0b0b0; stroke-width: 0.8"/>
     </g>
     <g id="line2d_26">
      <g>
       <use xlink:href="#m26d8d311f4" x="108" y="247.550269" style="fill: #a9a9a9; stroke: #a9a9a9; stroke-width: 0.8"/>
      </g>
     </g>
     <g id="text_13">
      <!-- 2000 -->
      <g style="fill: #a9a9a9" transform="translate(75.55 251.349488) scale(0.1 -0.1)">
       <use xlink:href="#DejaVuSans-32"/>
       <use xlink:href="#DejaVuSans-30" transform="translate(63.623047 0)"/>
       <use xlink:href="#DejaVuSans-30" transform="translate(127.246094 0)"/>
       <use xlink:href="#DejaVuSans-30" transform="translate(190.869141 0)"/>
      </g>
     </g>
    </g>
    <g id="ytick_4">
     <g id="line2d_27">
      <path d="M 108 217.410334 
L 777.6 217.410334 
" clip-path="url(#pdf18cd47fd)" style="fill: none; stroke-dasharray: 5.12,1.28,0.8,1.28; stroke-dashoffset: 0; stroke: #b0b0b0; stroke-width: 0.8"/>
     </g>
     <g id="line2d_28">
      <g>
       <use xlink:href="#m26d8d311f4" x="108" y="217.410334" style="fill: #a9a9a9; stroke: #a9a9a9; stroke-width: 0.8"/>
      </g>
     </g>
     <g id="text_14">
      <!-- 3000 -->
      <g style="fill: #a9a9a9" transform="translate(75.55 221.209552) scale(0.1 -0.1)">
       <use xlink:href="#DejaVuSans-33"/>
       <use xlink:href="#DejaVuSans-30" transform="translate(63.623047 0)"/>
       <use xlink:href="#DejaVuSans-30" transform="translate(127.246094 0)"/>
       <use xlink:href="#DejaVuSans-30" transform="translate(190.869141 0)"/>
      </g>
     </g>
    </g>
    <g id="ytick_5">
     <g id="line2d_29">
      <path d="M 108 187.270398 
L 777.6 187.270398 
" clip-path="url(#pdf18cd47fd)" style="fill: none; stroke-dasharray: 5.12,1.28,0.8,1.28; stroke-dashoffset: 0; stroke: #b0b0b0; stroke-width: 0.8"/>
     </g>
     <g id="line2d_30">
      <g>
       <use xlink:href="#m26d8d311f4" x="108" y="187.270398" style="fill: #a9a9a9; stroke: #a9a9a9; stroke-width: 0.8"/>
      </g>
     </g>
     <g id="text_15">
      <!-- 4000 -->
      <g style="fill: #a9a9a9" transform="translate(75.55 191.069617) scale(0.1 -0.1)">
       <use xlink:href="#DejaVuSans-34"/>
       <use xlink:href="#DejaVuSans-30" transform="translate(63.623047 0)"/>
       <use xlink:href="#DejaVuSans-30" transform="translate(127.246094 0)"/>
       <use xlink:href="#DejaVuSans-30" transform="translate(190.869141 0)"/>
      </g>
     </g>
    </g>
    <g id="ytick_6">
     <g id="line2d_31">
      <path d="M 108 157.130463 
L 777.6 157.130463 
" clip-path="url(#pdf18cd47fd)" style="fill: none; stroke-dasharray: 5.12,1.28,0.8,1.28; stroke-dashoffset: 0; stroke: #b0b0b0; stroke-width: 0.8"/>
     </g>
     <g id="line2d_32">
      <g>
       <use xlink:href="#m26d8d311f4" x="108" y="157.130463" style="fill: #a9a9a9; stroke: #a9a9a9; stroke-width: 0.8"/>
      </g>
     </g>
     <g id="text_16">
      <!-- 5000 -->
      <g style="fill: #a9a9a9" transform="translate(75.55 160.929682) scale(0.1 -0.1)">
       <use xlink:href="#DejaVuSans-35"/>
       <use xlink:href="#DejaVuSans-30" transform="translate(63.623047 0)"/>
       <use xlink:href="#DejaVuSans-30" transform="translate(127.246094 0)"/>
       <use xlink:href="#DejaVuSans-30" transform="translate(190.869141 0)"/>
      </g>
     </g>
    </g>
    <g id="ytick_7">
     <g id="line2d_33">
      <path d="M 108 126.990527 
L 777.6 126.990527 
" clip-path="url(#pdf18cd47fd)" style="fill: none; stroke-dasharray: 5.12,1.28,0.8,1.28; stroke-dashoffset: 0; stroke: #b0b0b0; stroke-width: 0.8"/>
     </g>
     <g id="line2d_34">
      <g>
       <use xlink:href="#m26d8d311f4" x="108" y="126.990527" style="fill: #a9a9a9; stroke: #a9a9a9; stroke-width: 0.8"/>
      </g>
     </g>
     <g id="text_17">
      <!-- 6000 -->
      <g style="fill: #a9a9a9" transform="translate(75.55 130.789746) scale(0.1 -0.1)">
       <use xlink:href="#DejaVuSans-36"/>
       <use xlink:href="#DejaVuSans-30" transform="translate(63.623047 0)"/>
       <use xlink:href="#DejaVuSans-30" transform="translate(127.246094 0)"/>
       <use xlink:href="#DejaVuSans-30" transform="translate(190.869141 0)"/>
      </g>
     </g>
    </g>
    <g id="ytick_8">
     <g id="line2d_35">
      <path d="M 108 96.850592 
L 777.6 96.850592 
" clip-path="url(#pdf18cd47fd)" style="fill: none; stroke-dasharray: 5.12,1.28,0.8,1.28; stroke-dashoffset: 0; stroke: #b0b0b0; stroke-width: 0.8"/>
     </g>
     <g id="line2d_36">
      <g>
       <use xlink:href="#m26d8d311f4" x="108" y="96.850592" style="fill: #a9a9a9; stroke: #a9a9a9; stroke-width: 0.8"/>
      </g>
     </g>
     <g id="text_18">
      <!-- 7000 -->
      <g style="fill: #a9a9a9" transform="translate(75.55 100.649811) scale(0.1 -0.1)">
       <use xlink:href="#DejaVuSans-37"/>
       <use xlink:href="#DejaVuSans-30" transform="translate(63.623047 0)"/>
       <use xlink:href="#DejaVuSans-30" transform="translate(127.246094 0)"/>
       <use xlink:href="#DejaVuSans-30" transform="translate(190.869141 0)"/>
      </g>
     </g>
    </g>
    <g id="ytick_9">
     <g id="line2d_37">
      <path d="M 108 66.710657 
L 777.6 66.710657 
" clip-path="url(#pdf18cd47fd)" style="fill: none; stroke-dasharray: 5.12,1.28,0.8,1.28; stroke-dashoffset: 0; stroke: #b0b0b0; stroke-width: 0.8"/>
     </g>
     <g id="line2d_38">
      <g>
       <use xlink:href="#m26d8d311f4" x="108" y="66.710657" style="fill: #a9a9a9; stroke: #a9a9a9; stroke-width: 0.8"/>
      </g>
     </g>
     <g id="text_19">
      <!-- 8000 -->
      <g style="fill: #a9a9a9" transform="translate(75.55 70.509875) scale(0.1 -0.1)">
       <defs>
        <path id="DejaVuSans-38" d="M 2034 2216 
Q 1584 2216 1326 1975 
Q 1069 1734 1069 1313 
Q 1069 891 1326 650 
Q 1584 409 2034 409 
Q 2484 409 2743 651 
Q 3003 894 3003 1313 
Q 3003 1734 2745 1975 
Q 2488 2216 2034 2216 
z
M 1403 2484 
Q 997 2584 770 2862 
Q 544 3141 544 3541 
Q 544 4100 942 4425 
Q 1341 4750 2034 4750 
Q 2731 4750 3128 4425 
Q 3525 4100 3525 3541 
Q 3525 3141 3298 2862 
Q 3072 2584 2669 2484 
Q 3125 2378 3379 2068 
Q 3634 1759 3634 1313 
Q 3634 634 3220 271 
Q 2806 -91 2034 -91 
Q 1263 -91 848 271 
Q 434 634 434 1313 
Q 434 1759 690 2068 
Q 947 2378 1403 2484 
z
M 1172 3481 
Q 1172 3119 1398 2916 
Q 1625 2713 2034 2713 
Q 2441 2713 2670 2916 
Q 2900 3119 2900 3481 
Q 2900 3844 2670 4047 
Q 2441 4250 2034 4250 
Q 1625 4250 1398 4047 
Q 1172 3844 1172 3481 
z
" transform="scale(0.015625)"/>
       </defs>
       <use xlink:href="#DejaVuSans-38"/>
       <use xlink:href="#DejaVuSans-30" transform="translate(63.623047 0)"/>
       <use xlink:href="#DejaVuSans-30" transform="translate(127.246094 0)"/>
       <use xlink:href="#DejaVuSans-30" transform="translate(190.869141 0)"/>
      </g>
     </g>
    </g>
   </g>
   <g id="line2d_39">
    <path d="M 138.436364 307.73972 
L 140.740694 307.528741 
L 141.124749 307.347901 
L 142.660969 307.136921 
L 144.19719 306.805382 
L 144.9653 306.684822 
L 146.885575 306.503983 
L 147.653685 306.202583 
L 148.03774 305.660065 
L 148.421795 305.388805 
L 148.80585 304.484607 
L 149.189905 304.424327 
L 149.958015 303.942088 
L 150.726126 303.369429 
L 152.262346 302.224112 
L 152.646401 302.073412 
L 153.414511 301.591173 
L 154.566676 301.018515 
L 154.950731 300.355436 
L 155.718841 299.752637 
L 156.486952 299.511518 
L 157.639117 299.330678 
L 159.943447 298.968999 
L 160.327502 298.788159 
L 163.015888 298.54704 
L 164.552108 298.155221 
L 167.624548 297.703122 
L 168.008603 297.492142 
L 168.392658 297.431862 
L 169.160769 297.160603 
L 171.849154 296.678364 
L 172.617264 296.437244 
L 176.07376 295.834446 
L 176.84187 295.653606 
L 178.37809 295.442626 
L 179.1462 295.201507 
L 179.530255 294.628848 
L 180.68242 294.146609 
L 181.834586 293.81507 
L 182.218641 293.60409 
L 182.986751 293.453391 
L 184.522971 292.971152 
L 185.291081 292.910872 
L 186.059191 292.699892 
L 187.595412 292.277933 
L 187.979467 292.247793 
L 188.747577 291.855974 
L 189.131632 291.795694 
L 189.515687 291.584715 
L 193.740293 290.861356 
L 195.276513 290.379117 
L 195.660568 290.107858 
L 197.580843 289.444779 
L 198.348953 288.872121 
L 199.501118 288.631001 
L 204.493834 287.124004 
L 204.877889 287.063724 
L 206.41411 286.430786 
L 206.798165 286.370506 
L 207.566275 286.038967 
L 208.334385 286.008827 
L 209.48655 285.647147 
L 209.870605 285.647147 
L 210.25466 285.466308 
L 211.02277 285.375888 
L 211.406825 285.225188 
L 213.327101 285.134769 
L 213.711156 285.044349 
L 214.479266 284.62239 
L 215.631431 284.200431 
L 216.399541 283.778471 
L 217.551706 283.266093 
L 219.087927 282.452314 
L 219.471982 282.000215 
L 220.240092 280.734338 
L 220.624147 280.613778 
L 221.008202 280.613778 
L 222.544422 279.73972 
L 222.928477 279.6493 
L 223.312532 279.257481 
L 224.080642 278.925942 
L 224.848753 278.564263 
L 225.232808 278.082024 
L 225.616863 277.418945 
L 226.000918 277.177826 
L 226.384973 276.454467 
L 226.769028 276.002368 
L 229.073358 274.676211 
L 230.609578 273.229494 
L 230.993633 272.295156 
L 231.377689 271.692357 
L 231.761744 271.360818 
L 232.145799 271.179978 
L 236.754459 266.930248 
L 238.29068 265.93563 
L 238.674735 265.78493 
L 240.210955 264.820452 
L 240.59501 264.639612 
L 242.515285 262.770936 
L 243.283395 262.439397 
L 244.051506 261.896878 
L 244.435561 261.655759 
L 244.819616 261.595479 
L 245.971781 260.90226 
L 246.355836 260.450161 
L 248.276111 259.334984 
L 248.660166 259.184284 
L 249.812332 258.340366 
L 255.573157 256.170291 
L 256.341268 255.416792 
L 257.493433 254.813994 
L 258.261543 254.301615 
L 259.029653 254.060495 
L 259.413708 253.789236 
L 259.797763 253.668676 
L 260.949928 252.854898 
L 262.870204 252.402799 
L 264.022369 251.67944 
L 265.174534 251.408181 
L 265.558589 251.317761 
L 266.710754 250.443703 
L 268.246974 249.991604 
L 268.63103 249.660065 
L 270.93536 248.816146 
L 271.70347 248.665447 
L 272.47158 248.333907 
L 275.159966 247.27901 
L 275.928076 247.18859 
L 277.080241 246.766631 
L 279.000516 245.772013 
L 281.304847 244.415716 
L 282.072957 244.204736 
L 283.225122 243.601938 
L 283.993232 243.451238 
L 284.761342 242.968999 
L 285.529452 242.758019 
L 286.681617 242.27578 
L 288.217838 242.064801 
L 288.985948 241.642842 
L 289.370003 241.281163 
L 289.754058 240.557804 
L 291.290278 240.105705 
L 292.826498 239.382347 
L 296.282994 237.78493 
L 297.051104 237.60409 
L 298.203269 237.001292 
L 298.587324 236.941012 
L 300.5076 235.946394 
L 301.27571 235.434015 
L 302.427875 235.192896 
L 304.34815 234.680517 
L 304.732205 234.348977 
L 305.500315 234.077718 
L 307.420591 233.26394 
L 307.804646 232.96254 
L 308.188701 232.811841 
L 308.956811 232.359742 
L 310.493031 231.847363 
L 311.261141 231.334984 
L 311.645196 230.913025 
L 312.029252 230.671905 
L 312.413307 230.581485 
L 313.181417 229.918407 
L 313.565472 229.858127 
L 313.949527 229.195048 
L 314.333582 229.014209 
L 314.717637 228.68267 
L 315.101692 228.62239 
L 315.869802 228.110011 
L 316.637912 227.838751 
L 317.021967 227.537352 
L 317.406022 227.386652 
L 319.326298 226.150915 
L 321.630628 225.096017 
L 322.014683 224.402799 
L 322.782793 223.8 
L 323.166848 223.70958 
L 325.471179 222.564263 
L 326.239289 222.232723 
L 327.007399 221.660065 
L 328.159564 220.544887 
L 328.927674 220.062648 
L 329.311729 219.610549 
L 330.84795 218.495371 
L 331.61606 217.681593 
L 332.38417 217.410334 
L 333.15228 216.867815 
L 334.304445 216.234876 
L 334.6885 216.174596 
L 338.144996 214.3662 
L 338.913106 214.155221 
L 340.449326 213.612702 
L 340.833381 213.281163 
L 342.369601 212.648224 
L 342.753656 212.527664 
L 343.521767 212.015285 
L 344.289877 211.683746 
L 345.057987 211.111087 
L 345.826097 209.513671 
L 346.594207 208.609473 
L 347.746372 207.976534 
L 348.514482 207.644995 
L 348.898537 207.584715 
L 349.666648 207.223036 
L 351.202868 206.680517 
L 351.970978 206.228418 
L 352.739088 205.836598 
L 353.123143 205.716039 
L 355.427473 204.269322 
L 355.811529 203.817223 
L 356.963694 203.124004 
L 357.347749 202.973305 
L 358.115859 202.491066 
L 359.652079 201.617008 
L 360.036134 201.526588 
L 360.420189 201.195048 
L 363.108575 200.29085 
L 363.49263 200.019591 
L 364.26074 199.778471 
L 367.33318 198.271475 
L 368.101291 197.849516 
L 368.485346 197.668676 
L 369.253456 197.035737 
L 370.021566 196.824758 
L 370.405621 196.463079 
L 370.789676 196.402799 
L 371.557786 195.8 
L 373.478061 194.624543 
L 374.246171 194.383423 
L 374.630227 194.142304 
L 375.014282 194.082024 
L 376.550502 193.328525 
L 377.702667 192.936706 
L 378.470777 192.816146 
L 380.006997 192.213348 
L 380.391052 192.183208 
L 381.927273 191.580409 
L 383.079438 190.736491 
L 383.463493 190.585791 
L 384.231603 190.133692 
L 384.615658 190.043272 
L 386.919989 188.686975 
L 387.304044 188.596555 
L 388.456209 187.873197 
L 389.608374 187.451238 
L 390.376484 187.179978 
L 391.912704 186.63746 
L 392.680814 186.3662 
L 394.217035 186.034661 
L 394.985145 185.793541 
L 396.90542 185.130463 
L 398.057585 184.768784 
L 398.44164 184.618084 
L 399.593806 184.437244 
L 401.898136 183.985145 
L 403.050301 183.713886 
L 403.434356 183.533046 
L 404.202466 183.382347 
L 404.970576 183.171367 
L 405.738687 182.809688 
L 406.122742 182.658988 
L 406.506797 182.658988 
L 410.731402 181.302691 
L 411.115457 181.091712 
L 411.499512 181.091712 
L 412.267623 180.790312 
L 412.651678 180.368353 
L 414.956008 179.373735 
L 416.492228 178.831216 
L 416.876283 178.590097 
L 418.028449 178.228418 
L 418.796559 178.017438 
L 419.180614 177.746179 
L 419.564669 177.655759 
L 419.948724 177.32422 
L 421.100889 177.0831 
L 421.868999 176.721421 
L 422.253054 176.239182 
L 426.47766 175.274704 
L 426.861715 175.274704 
L 427.629825 175.033584 
L 431.086321 174.129386 
L 431.470376 173.978687 
L 432.238486 173.827987 
L 434.158761 173.315608 
L 435.310926 172.953929 
L 437.231202 172.32099 
L 437.999312 171.989451 
L 438.767422 171.688052 
L 439.151477 171.416792 
L 439.919587 171.175673 
L 442.607972 170.120775 
L 444.144193 169.939935 
L 447.216633 168.764478 
L 447.600688 168.463079 
L 447.984743 168.372659 
L 448.368798 168.161679 
L 448.752853 168.131539 
L 452.977459 166.534123 
L 454.897734 165.991604 
L 455.665845 165.599785 
L 456.81801 165.328525 
L 458.35423 164.032508 
L 459.89045 163.33929 
L 461.42667 162.676211 
L 461.810726 162.585791 
L 462.194781 162.314532 
L 462.962891 162.073412 
L 463.346946 161.802153 
L 465.267221 161.139074 
L 469.107772 159.119699 
L 469.875882 158.758019 
L 470.259937 158.45662 
L 471.028047 158.185361 
L 473.332377 157.040043 
L 473.716432 156.949623 
L 474.868598 156.407104 
L 476.404818 155.864586 
L 477.172928 155.533046 
L 477.941038 155.412487 
L 478.325093 155.141227 
L 479.861313 154.839828 
L 480.629424 154.508288 
L 482.549699 153.57395 
L 487.542415 151.313455 
L 488.69458 150.921636 
L 489.078635 150.650377 
L 489.846745 150.559957 
L 490.2308 150.288698 
L 490.99891 150.168138 
L 491.76702 149.776319 
L 492.53513 149.535199 
L 494.071351 148.99268 
L 495.223516 148.570721 
L 497.143791 148.058342 
L 498.680011 147.395264 
L 499.448122 146.973305 
L 500.984342 146.159526 
L 501.752452 145.978687 
L 502.136507 145.737567 
L 502.520562 145.647147 
L 504.440837 144.68267 
L 507.513278 143.567492 
L 507.897333 143.446932 
L 508.665443 143.024973 
L 510.585718 142.331755 
L 512.890049 141.367277 
L 514.426269 140.613778 
L 518.26682 139.046502 
L 519.03493 138.654682 
L 519.418985 138.564263 
L 520.187095 138.262863 
L 520.57115 138.262863 
L 521.33926 137.901184 
L 522.87548 136.575027 
L 523.259535 136.454467 
L 523.64359 136.213348 
L 524.795756 135.881808 
L 525.179811 135.580409 
L 525.947921 135.30915 
L 527.100086 134.525511 
L 527.868196 134.314532 
L 528.636306 133.892573 
L 529.788471 133.621313 
L 531.708747 132.928095 
L 532.476857 132.686975 
L 533.629022 132.054037 
L 534.397132 131.662217 
L 535.165242 131.451238 
L 536.701463 130.727879 
L 539.005793 129.914101 
L 540.157958 129.371582 
L 542.078233 128.407104 
L 542.846344 128.105705 
L 543.230399 127.744026 
L 544.382564 127.291927 
L 544.766619 127.231647 
L 546.302839 126.508288 
L 547.455004 126.146609 
L 548.607169 125.72465 
L 549.37528 125.483531 
L 550.14339 125.332831 
L 550.9115 124.910872 
L 551.295555 124.760172 
L 551.67961 124.458773 
L 552.831775 124.157374 
L 553.599885 123.855974 
L 554.367995 123.524435 
L 555.904216 122.891496 
L 558.592601 122.168138 
L 559.360711 121.866738 
L 560.896931 121.565339 
L 561.665042 121.414639 
L 562.817207 120.96254 
L 563.969372 120.721421 
L 566.273702 119.334984 
L 567.425868 118.611625 
L 569.730198 117.888267 
L 570.114253 117.586868 
L 573.186693 116.47169 
L 574.338859 116.110011 
L 575.106969 115.688052 
L 575.875079 115.477072 
L 576.259134 115.266093 
L 577.027244 115.115393 
L 578.563464 114.512594 
L 579.331574 114.000215 
L 580.48374 113.698816 
L 581.635905 112.915178 
L 582.01996 112.854898 
L 583.55618 112.221959 
L 585.0924 111.83014 
L 585.476455 111.76986 
L 585.86051 111.58902 
L 586.244566 111.558881 
L 587.012676 111.287621 
L 587.396731 111.257481 
L 588.548896 110.805382 
L 590.085116 110.353283 
L 590.853226 109.750484 
L 592.389447 108.876426 
L 592.773502 108.786006 
L 593.157557 108.575027 
L 593.541612 108.514747 
L 596.998107 106.766631 
L 597.382162 106.404952 
L 599.302438 105.922713 
L 600.454603 105.380194 
L 601.222713 105.169214 
L 601.606768 104.988375 
L 601.990823 104.656835 
L 603.911098 103.963617 
L 608.903814 102.094941 
L 609.671924 101.944241 
L 611.5922 101.311302 
L 612.744365 100.798924 
L 615.43275 99.985145 
L 616.20086 99.533046 
L 629.258732 95.494295 
L 630.026843 95.283315 
L 631.179008 94.861356 
L 631.563063 94.861356 
L 632.715228 94.590097 
L 633.483338 94.439397 
L 634.251448 94.228418 
L 635.403613 93.595479 
L 636.555779 93.2338 
L 639.244164 92.299462 
L 640.780384 91.515823 
L 641.932549 91.244564 
L 642.70066 91.003445 
L 643.46877 90.611625 
L 643.852825 90.280086 
L 644.620935 90.038967 
L 645.00499 89.797847 
L 645.7731 89.707427 
L 648.461486 88.923789 
L 649.613651 88.68267 
L 650.765816 88.38127 
L 651.533926 88.200431 
L 652.686091 87.597632 
L 656.910697 86.000215 
L 657.294752 85.909795 
L 657.678807 85.698816 
L 658.446917 85.578256 
L 659.215027 85.427557 
L 659.599082 85.427557 
L 660.751247 85.065877 
L 661.903413 84.704198 
L 665.359908 83.70958 
L 666.128018 83.498601 
L 666.512073 83.408181 
L 666.896128 83.167061 
L 667.664239 83.016362 
L 668.432349 82.925942 
L 668.816404 82.714962 
L 669.200459 82.684822 
L 670.352624 82.142304 
L 671.504789 81.871044 
L 672.272899 81.539505 
L 673.041009 81.268245 
L 673.80912 81.057266 
L 674.57723 80.725727 
L 674.961285 80.665447 
L 675.729395 80.394187 
L 676.88156 80.062648 
L 677.64967 80.002368 
L 678.801835 79.580409 
L 679.569946 79.459849 
L 682.258331 78.465231 
L 684.562661 78.073412 
L 685.330771 77.832293 
L 685.714826 77.772013 
L 686.482937 77.440474 
L 686.866992 77.380194 
L 687.251047 77.199354 
L 688.019157 76.536276 
L 691.859707 75.119699 
L 694.164038 74.48676 
L 694.932148 74.064801 
L 695.316203 73.974381 
L 696.468368 73.341442 
L 696.852423 73.251023 
L 697.236478 72.949623 
L 698.388644 72.618084 
L 704.533525 69.84521 
L 704.91758 69.78493 
L 707.22191 68.609473 
L 707.605965 68.368353 
L 708.75813 68.036814 
L 710.29435 67.403875 
L 710.678406 67.373735 
L 712.598681 66.650377 
L 713.366791 66.499677 
L 714.134901 65.927018 
L 714.518956 65.927018 
L 715.287066 65.655759 
L 715.671121 65.595479 
L 716.055176 65.384499 
L 717.591397 65.0831 
L 719.127617 64.420022 
L 719.511672 64.420022 
L 720.663837 64.028202 
L 721.431947 63.907643 
L 722.584112 63.244564 
L 723.352223 62.852745 
L 725.272498 62.219806 
L 726.040608 61.888267 
L 728.344938 61.225188 
L 729.497104 60.984069 
L 730.649269 60.56211 
L 732.569544 59.868891 
L 737.946315 58.542734 
L 739.482535 57.819376 
L 740.6347 57.457696 
L 743.323086 56.915178 
L 744.091196 56.794618 
L 746.395526 55.89042 
L 747.163636 55.8 
L 747.163636 55.8 
" clip-path="url(#pdf18cd47fd)" style="fill: none; stroke: #1f77b4; stroke-width: 1.5; stroke-linecap: square"/>
   </g>
   <g id="line2d_40">
    <path d="M 138.820419 307.8 
L 142.276914 307.70958 
L 145.349355 307.558881 
L 146.885575 307.558881 
L 147.26963 307.438321 
L 149.189905 307.347901 
L 151.494236 307.076642 
L 153.798566 306.986222 
L 154.566676 306.895802 
L 157.255062 306.775242 
L 159.943447 306.684822 
L 161.863722 306.624543 
L 166.856438 306.534123 
L 168.776714 306.473843 
L 172.233209 306.383423 
L 173.769429 306.353283 
L 177.60998 306.262863 
L 179.1462 306.112164 
L 180.68242 306.082024 
L 182.986751 305.991604 
L 184.522971 305.961464 
L 186.443246 305.901184 
L 187.979467 305.750484 
L 191.435962 305.660065 
L 192.204072 305.599785 
L 193.740293 305.509365 
L 196.044623 305.418945 
L 197.580843 305.328525 
L 204.493834 304.876426 
L 207.18222 304.786006 
L 208.334385 304.665447 
L 210.25466 304.575027 
L 214.095211 304.364047 
L 217.935761 304.303767 
L 219.471982 304.122928 
L 221.392257 304.032508 
L 225.232808 303.640689 
L 227.537138 303.33929 
L 229.073358 303.27901 
L 232.145799 302.857051 
L 234.450129 302.796771 
L 235.602294 302.676211 
L 236.754459 302.585791 
L 247.508001 301.711733 
L 248.276111 301.561033 
L 250.580442 301.470614 
L 256.725323 301.078794 
L 259.413708 300.988375 
L 260.949928 300.807535 
L 262.870204 300.717115 
L 265.174534 300.626695 
L 267.094809 300.536276 
L 268.63103 300.506136 
L 270.551305 300.445856 
L 271.319415 300.325296 
L 276.696186 300.234876 
L 277.464296 300.144456 
L 282.072957 300.054037 
L 285.529452 299.873197 
L 288.217838 299.782777 
L 289.754058 299.601938 
L 292.442443 299.511518 
L 293.210553 299.390958 
L 295.130829 299.330678 
L 298.971379 299.270398 
L 300.5076 299.119699 
L 302.04382 299.089559 
L 303.195985 298.999139 
L 304.732205 298.848439 
L 308.572756 298.63746 
L 312.413307 298.54704 
L 315.869802 298.3662 
L 317.021967 298.33606 
L 317.790077 298.215501 
L 319.710353 298.125081 
L 320.478463 298.064801 
L 321.246573 298.004521 
L 322.014683 297.944241 
L 325.855234 297.853821 
L 334.304445 297.281163 
L 335.072555 297.220883 
L 336.22472 297.130463 
L 338.913106 297.040043 
L 340.833381 296.979763 
L 346.210152 296.889343 
L 346.978262 296.798924 
L 352.355033 296.708504 
L 356.195584 296.497524 
L 356.963694 296.467384 
L 357.731804 296.376964 
L 359.652079 296.286545 
L 361.572354 296.226265 
L 363.49263 296.135845 
L 365.412905 296.075565 
L 368.869401 295.985145 
L 371.173731 295.894726 
L 376.550502 295.804306 
L 380.775108 295.563186 
L 382.311328 295.502906 
L 383.463493 295.412487 
L 388.840264 295.322067 
L 391.144594 295.231647 
L 398.057585 295.141227 
L 399.593806 295.111087 
L 404.202466 295.050807 
L 404.970576 294.990527 
L 410.347347 294.900108 
L 411.883568 294.869968 
L 421.868999 294.779548 
L 424.17333 294.689128 
L 440.303642 294.598708 
L 442.223917 294.538428 
L 452.209349 294.478149 
L 452.977459 294.417869 
L 454.897734 294.357589 
L 456.0499 294.237029 
L 458.35423 294.146609 
L 461.042615 294.02605 
L 464.499111 293.93563 
L 466.419386 293.87535 
L 469.107772 293.78493 
L 472.180212 293.63423 
L 474.100488 293.543811 
L 475.636708 293.513671 
L 482.165644 293.423251 
L 484.469974 293.332831 
L 488.69458 293.242411 
L 491.382965 293.121851 
L 494.071351 293.061572 
L 494.839461 293.001292 
L 504.056782 292.910872 
L 507.897333 292.699892 
L 510.585718 292.609473 
L 514.810324 292.368353 
L 517.498709 292.277933 
L 519.03493 292.247793 
L 521.723315 292.157374 
L 523.64359 291.946394 
L 527.484141 291.855974 
L 528.252251 291.765554 
L 532.092802 291.675135 
L 534.013077 291.614855 
L 538.237683 291.584715 
L 539.005793 291.494295 
L 543.230399 291.403875 
L 543.998509 291.343595 
L 552.44772 291.253175 
L 554.75205 291.162756 
L 560.512876 291.072336 
L 562.049097 291.042196 
L 565.505592 290.981916 
L 566.273702 290.891496 
L 571.266418 290.801076 
L 573.186693 290.740797 
L 580.099685 290.650377 
L 581.25185 290.559957 
L 582.404015 290.469537 
L 583.55618 290.379117 
L 589.317006 290.288698 
L 591.621336 290.198278 
L 602.758933 290.107858 
L 606.215429 289.927018 
L 611.5922 289.836598 
L 613.12842 289.806459 
L 617.737081 289.716039 
L 619.657356 289.655759 
L 627.722512 289.565339 
L 630.410898 289.444779 
L 637.323889 289.35436 
L 638.860109 289.32422 
L 642.70066 289.2338 
L 645.389045 289.11324 
L 649.613651 289.02282 
L 652.302036 288.90226 
L 655.758532 288.841981 
L 656.526642 288.781701 
L 664.975853 288.691281 
L 667.280184 288.600861 
L 669.968569 288.510441 
L 671.888844 288.450161 
L 683.026441 288.359742 
L 685.330771 288.269322 
L 691.475652 288.178902 
L 693.779983 288.088482 
L 698.772699 287.998062 
L 701.077029 287.907643 
L 704.149469 287.817223 
L 706.4538 287.726803 
L 721.816002 287.636383 
L 724.888443 287.485684 
L 733.721709 287.395264 
L 735.257929 287.365124 
L 744.475251 287.274704 
L 746.395526 287.214424 
L 747.163636 287.214424 
L 747.163636 287.214424 
" clip-path="url(#pdf18cd47fd)" style="fill: none; stroke: #ff7f0e; stroke-width: 1.5; stroke-linecap: square"/>
   </g>
   <g id="patch_3">
    <path d="M 108 320.4 
L 108 43.2 
" style="fill: none; stroke: #a9a9a9; stroke-width: 0.8; stroke-linejoin: miter; stroke-linecap: square"/>
   </g>
   <g id="patch_4">
    <path d="M 777.6 320.4 
L 777.6 43.2 
" style="fill: none"/>
   </g>
   <g id="patch_5">
    <path d="M 108 320.4 
L 777.6 320.4 
" style="fill: none; stroke: #a9a9a9; stroke-width: 0.8; stroke-linejoin: miter; stroke-linecap: square"/>
   </g>
   <g id="patch_6">
    <path d="M 108 43.2 
L 777.6 43.2 
" style="fill: none"/>
   </g>
   <g id="text_20">
    <!-- get_subscribe history -->
    <g style="fill: #a9a9a9" transform="translate(378.6075 37.2) scale(0.12 -0.12)">
     <defs>
      <path id="DejaVuSans-67" d="M 2906 1791 
Q 2906 2416 2648 2759 
Q 2391 3103 1925 3103 
Q 1463 3103 1205 2759 
Q 947 2416 947 1791 
Q 947 1169 1205 825 
Q 1463 481 1925 481 
Q 2391 481 2648 825 
Q 2906 1169 2906 1791 
z
M 3481 434 
Q 3481 -459 3084 -895 
Q 2688 -1331 1869 -1331 
Q 1566 -1331 1297 -1286 
Q 1028 -1241 775 -1147 
L 775 -588 
Q 1028 -725 1275 -790 
Q 1522 -856 1778 -856 
Q 2344 -856 2625 -561 
Q 2906 -266 2906 331 
L 2906 616 
Q 2728 306 2450 153 
Q 2172 0 1784 0 
Q 1141 0 747 490 
Q 353 981 353 1791 
Q 353 2603 747 3093 
Q 1141 3584 1784 3584 
Q 2172 3584 2450 3431 
Q 2728 3278 2906 2969 
L 2906 3500 
L 3481 3500 
L 3481 434 
z
" transform="scale(0.015625)"/>
      <path id="DejaVuSans-65" d="M 3597 1894 
L 3597 1613 
L 953 1613 
Q 991 1019 1311 708 
Q 1631 397 2203 397 
Q 2534 397 2845 478 
Q 3156 559 3463 722 
L 3463 178 
Q 3153 47 2828 -22 
Q 2503 -91 2169 -91 
Q 1331 -91 842 396 
Q 353 884 353 1716 
Q 353 2575 817 3079 
Q 1281 3584 2069 3584 
Q 2775 3584 3186 3129 
Q 3597 2675 3597 1894 
z
M 3022 2063 
Q 3016 2534 2758 2815 
Q 2500 3097 2075 3097 
Q 1594 3097 1305 2825 
Q 1016 2553 972 2059 
L 3022 2063 
z
" transform="scale(0.015625)"/>
      <path id="DejaVuSans-74" d="M 1172 4494 
L 1172 3500 
L 2356 3500 
L 2356 3053 
L 1172 3053 
L 1172 1153 
Q 1172 725 1289 603 
Q 1406 481 1766 481 
L 2356 481 
L 2356 0 
L 1766 0 
Q 1100 0 847 248 
Q 594 497 594 1153 
L 594 3053 
L 172 3053 
L 172 3500 
L 594 3500 
L 594 4494 
L 1172 4494 
z
" transform="scale(0.015625)"/>
      <path id="DejaVuSans-5f" d="M 3263 -1063 
L 3263 -1509 
L -63 -1509 
L -63 -1063 
L 3263 -1063 
z
" transform="scale(0.015625)"/>
      <path id="DejaVuSans-73" d="M 2834 3397 
L 2834 2853 
Q 2591 2978 2328 3040 
Q 2066 3103 1784 3103 
Q 1356 3103 1142 2972 
Q 928 2841 928 2578 
Q 928 2378 1081 2264 
Q 1234 2150 1697 2047 
L 1894 2003 
Q 2506 1872 2764 1633 
Q 3022 1394 3022 966 
Q 3022 478 2636 193 
Q 2250 -91 1575 -91 
Q 1294 -91 989 -36 
Q 684 19 347 128 
L 347 722 
Q 666 556 975 473 
Q 1284 391 1588 391 
Q 1994 391 2212 530 
Q 2431 669 2431 922 
Q 2431 1156 2273 1281 
Q 2116 1406 1581 1522 
L 1381 1569 
Q 847 1681 609 1914 
Q 372 2147 372 2553 
Q 372 3047 722 3315 
Q 1072 3584 1716 3584 
Q 2034 3584 2315 3537 
Q 2597 3491 2834 3397 
z
" transform="scale(0.015625)"/>
      <path id="DejaVuSans-75" d="M 544 1381 
L 544 3500 
L 1119 3500 
L 1119 1403 
Q 1119 906 1312 657 
Q 1506 409 1894 409 
Q 2359 409 2629 706 
Q 2900 1003 2900 1516 
L 2900 3500 
L 3475 3500 
L 3475 0 
L 2900 0 
L 2900 538 
Q 2691 219 2414 64 
Q 2138 -91 1772 -91 
Q 1169 -91 856 284 
Q 544 659 544 1381 
z
M 1991 3584 
L 1991 3584 
z
" transform="scale(0.015625)"/>
      <path id="DejaVuSans-62" d="M 3116 1747 
Q 3116 2381 2855 2742 
Q 2594 3103 2138 3103 
Q 1681 3103 1420 2742 
Q 1159 2381 1159 1747 
Q 1159 1113 1420 752 
Q 1681 391 2138 391 
Q 2594 391 2855 752 
Q 3116 1113 3116 1747 
z
M 1159 2969 
Q 1341 3281 1617 3432 
Q 1894 3584 2278 3584 
Q 2916 3584 3314 3078 
Q 3713 2572 3713 1747 
Q 3713 922 3314 415 
Q 2916 -91 2278 -91 
Q 1894 -91 1617 61 
Q 1341 213 1159 525 
L 1159 0 
L 581 0 
L 581 4863 
L 1159 4863 
L 1159 2969 
z
" transform="scale(0.015625)"/>
      <path id="DejaVuSans-63" d="M 3122 3366 
L 3122 2828 
Q 2878 2963 2633 3030 
Q 2388 3097 2138 3097 
Q 1578 3097 1268 2742 
Q 959 2388 959 1747 
Q 959 1106 1268 751 
Q 1578 397 2138 397 
Q 2388 397 2633 464 
Q 2878 531 3122 666 
L 3122 134 
Q 2881 22 2623 -34 
Q 2366 -91 2075 -91 
Q 1284 -91 818 406 
Q 353 903 353 1747 
Q 353 2603 823 3093 
Q 1294 3584 2113 3584 
Q 2378 3584 2631 3529 
Q 2884 3475 3122 3366 
z
" transform="scale(0.015625)"/>
      <path id="DejaVuSans-72" d="M 2631 2963 
Q 2534 3019 2420 3045 
Q 2306 3072 2169 3072 
Q 1681 3072 1420 2755 
Q 1159 2438 1159 1844 
L 1159 0 
L 581 0 
L 581 3500 
L 1159 3500 
L 1159 2956 
Q 1341 3275 1631 3429 
Q 1922 3584 2338 3584 
Q 2397 3584 2469 3576 
Q 2541 3569 2628 3553 
L 2631 2963 
z
" transform="scale(0.015625)"/>
      <path id="DejaVuSans-69" d="M 603 3500 
L 1178 3500 
L 1178 0 
L 603 0 
L 603 3500 
z
M 603 4863 
L 1178 4863 
L 1178 4134 
L 603 4134 
L 603 4863 
z
" transform="scale(0.015625)"/>
      <path id="DejaVuSans-20" transform="scale(0.015625)"/>
      <path id="DejaVuSans-68" d="M 3513 2113 
L 3513 0 
L 2938 0 
L 2938 2094 
Q 2938 2591 2744 2837 
Q 2550 3084 2163 3084 
Q 1697 3084 1428 2787 
Q 1159 2491 1159 1978 
L 1159 0 
L 581 0 
L 581 4863 
L 1159 4863 
L 1159 2956 
Q 1366 3272 1645 3428 
Q 1925 3584 2291 3584 
Q 2894 3584 3203 3211 
Q 3513 2838 3513 2113 
z
" transform="scale(0.015625)"/>
      <path id="DejaVuSans-6f" d="M 1959 3097 
Q 1497 3097 1228 2736 
Q 959 2375 959 1747 
Q 959 1119 1226 758 
Q 1494 397 1959 397 
Q 2419 397 2687 759 
Q 2956 1122 2956 1747 
Q 2956 2369 2687 2733 
Q 2419 3097 1959 3097 
z
M 1959 3584 
Q 2709 3584 3137 3096 
Q 3566 2609 3566 1747 
Q 3566 888 3137 398 
Q 2709 -91 1959 -91 
Q 1206 -91 779 398 
Q 353 888 353 1747 
Q 353 2609 779 3096 
Q 1206 3584 1959 3584 
z
" transform="scale(0.015625)"/>
      <path id="DejaVuSans-79" d="M 2059 -325 
Q 1816 -950 1584 -1140 
Q 1353 -1331 966 -1331 
L 506 -1331 
L 506 -850 
L 844 -850 
Q 1081 -850 1212 -737 
Q 1344 -625 1503 -206 
L 1606 56 
L 191 3500 
L 800 3500 
L 1894 763 
L 2988 3500 
L 3597 3500 
L 2059 -325 
z
" transform="scale(0.015625)"/>
     </defs>
     <use xlink:href="#DejaVuSans-67"/>
     <use xlink:href="#DejaVuSans-65" transform="translate(63.476562 0)"/>
     <use xlink:href="#DejaVuSans-74" transform="translate(125 0)"/>
     <use xlink:href="#DejaVuSans-5f" transform="translate(164.208984 0)"/>
     <use xlink:href="#DejaVuSans-73" transform="translate(214.208984 0)"/>
     <use xlink:href="#DejaVuSans-75" transform="translate(266.308594 0)"/>
     <use xlink:href="#DejaVuSans-62" transform="translate(329.6875 0)"/>
     <use xlink:href="#DejaVuSans-73" transform="translate(393.164062 0)"/>
     <use xlink:href="#DejaVuSans-63" transform="translate(445.263672 0)"/>
     <use xlink:href="#DejaVuSans-72" transform="translate(500.244141 0)"/>
     <use xlink:href="#DejaVuSans-69" transform="translate(541.357422 0)"/>
     <use xlink:href="#DejaVuSans-62" transform="translate(569.140625 0)"/>
     <use xlink:href="#DejaVuSans-65" transform="translate(632.617188 0)"/>
     <use xlink:href="#DejaVuSans-20" transform="translate(694.140625 0)"/>
     <use xlink:href="#DejaVuSans-68" transform="translate(725.927734 0)"/>
     <use xlink:href="#DejaVuSans-69" transform="translate(789.306641 0)"/>
     <use xlink:href="#DejaVuSans-73" transform="translate(817.089844 0)"/>
     <use xlink:href="#DejaVuSans-74" transform="translate(869.189453 0)"/>
     <use xlink:href="#DejaVuSans-6f" transform="translate(908.398438 0)"/>
     <use xlink:href="#DejaVuSans-72" transform="translate(969.580078 0)"/>
     <use xlink:href="#DejaVuSans-79" transform="translate(1010.693359 0)"/>
    </g>
   </g>
   <g id="legend_1">
    <g id="line2d_41">
     <path d="M 815.08 328.498438 
L 825.08 328.498438 
L 835.08 328.498438 
" style="fill: none; stroke: #1f77b4; stroke-width: 1.5; stroke-linecap: square"/>
    </g>
    <g id="text_21">
     <!-- star -->
     <g style="fill: #a9a9a9" transform="translate(843.08 331.998438) scale(0.1 -0.1)">
      <defs>
       <path id="DejaVuSans-61" d="M 2194 1759 
Q 1497 1759 1228 1600 
Q 959 1441 959 1056 
Q 959 750 1161 570 
Q 1363 391 1709 391 
Q 2188 391 2477 730 
Q 2766 1069 2766 1631 
L 2766 1759 
L 2194 1759 
z
M 3341 1997 
L 3341 0 
L 2766 0 
L 2766 531 
Q 2569 213 2275 61 
Q 1981 -91 1556 -91 
Q 1019 -91 701 211 
Q 384 513 384 1019 
Q 384 1609 779 1909 
Q 1175 2209 1959 2209 
L 2766 2209 
L 2766 2266 
Q 2766 2663 2505 2880 
Q 2244 3097 1772 3097 
Q 1472 3097 1187 3025 
Q 903 2953 641 2809 
L 641 3341 
Q 956 3463 1253 3523 
Q 1550 3584 1831 3584 
Q 2591 3584 2966 3190 
Q 3341 2797 3341 1997 
z
" transform="scale(0.015625)"/>
      </defs>
      <use xlink:href="#DejaVuSans-73"/>
      <use xlink:href="#DejaVuSans-74" transform="translate(52.099609 0)"/>
      <use xlink:href="#DejaVuSans-61" transform="translate(91.308594 0)"/>
      <use xlink:href="#DejaVuSans-72" transform="translate(152.587891 0)"/>
     </g>
    </g>
    <g id="line2d_42">
     <path d="M 815.08 343.176562 
L 825.08 343.176562 
L 835.08 343.176562 
" style="fill: none; stroke: #ff7f0e; stroke-width: 1.5; stroke-linecap: square"/>
    </g>
    <g id="text_22">
     <!-- fork -->
     <g style="fill: #a9a9a9" transform="translate(843.08 346.676562) scale(0.1 -0.1)">
      <defs>
       <path id="DejaVuSans-66" d="M 2375 4863 
L 2375 4384 
L 1825 4384 
Q 1516 4384 1395 4259 
Q 1275 4134 1275 3809 
L 1275 3500 
L 2222 3500 
L 2222 3053 
L 1275 3053 
L 1275 0 
L 697 0 
L 697 3053 
L 147 3053 
L 147 3500 
L 697 3500 
L 697 3744 
Q 697 4328 969 4595 
Q 1241 4863 1831 4863 
L 2375 4863 
z
" transform="scale(0.015625)"/>
       <path id="DejaVuSans-6b" d="M 581 4863 
L 1159 4863 
L 1159 1991 
L 2875 3500 
L 3609 3500 
L 1753 1863 
L 3688 0 
L 2938 0 
L 1159 1709 
L 1159 0 
L 581 0 
L 581 4863 
z
" transform="scale(0.015625)"/>
      </defs>
      <use xlink:href="#DejaVuSans-66"/>
      <use xlink:href="#DejaVuSans-6f" transform="translate(35.205078 0)"/>
      <use xlink:href="#DejaVuSans-72" transform="translate(96.386719 0)"/>
      <use xlink:href="#DejaVuSans-6b" transform="translate(137.5 0)"/>
     </g>
    </g>
   </g>
  </g>
 </g>
 <defs>
  <clipPath id="pdf18cd47fd">
   <rect x="108" y="43.2" width="669.6" height="277.2"/>
  </clipPath>
 </defs>
</svg>
