<?xml version="1.0" encoding="utf-8" standalone="no"?>
<!DOCTYPE svg PUBLIC "-//W3C//DTD SVG 1.1//EN"
  "http://www.w3.org/Graphics/SVG/1.1/DTD/svg11.dtd">
<svg xmlns:xlink="http://www.w3.org/1999/xlink" width="864pt" height="360pt" viewBox="0 0 864 360" xmlns="http://www.w3.org/2000/svg" version="1.1">
 <metadata>
  <rdf:RDF xmlns:dc="http://purl.org/dc/elements/1.1/" xmlns:cc="http://creativecommons.org/ns#" xmlns:rdf="http://www.w3.org/1999/02/22-rdf-syntax-ns#">
   <cc:Work>
    <dc:type rdf:resource="http://purl.org/dc/dcmitype/StillImage"/>
    <dc:date>2024-12-31T20:05:43.316720</dc:date>
    <dc:format>image/svg+xml</dc:format>
    <dc:creator>
     <cc:Agent>
      <dc:title>Matplotlib v3.10.0, https://matplotlib.org/</dc:title>
     </cc:Agent>
    </dc:creator>
   </cc:Work>
  </rdf:RDF>
 </metadata>
 <defs>
  <style type="text/css">*{stroke-linejoin: round; stroke-linecap: butt}</style>
 </defs>
 <g id="figure_1">
  <g id="patch_1">
   <path d="M 0 360 
L 864 360 
L 864 0 
L 0 0 
L 0 360 
z
" style="fill: none; opacity: 0"/>
  </g>
  <g id="axes_1">
   <g id="patch_2">
    <path d="M 108 320.4 
L 777.6 320.4 
L 777.6 43.2 
L 108 43.2 
L 108 320.4 
z
" style="fill: none; opacity: 0"/>
   </g>
   <g id="matplotlib.axis_1">
    <g id="xtick_1">
     <g id="line2d_1">
      <path d="M 127.289288 320.4 
L 127.289288 43.2 
" clip-path="url(#p2fa93a2ba1)" style="fill: none; stroke-dasharray: 5.12,1.28,0.8,1.28; stroke-dashoffset: 0; stroke: #b0b0b0; stroke-width: 0.8"/>
     </g>
     <g id="line2d_2">
      <defs>
       <path id="m7d25029b2d" d="M 0 0 
L 0 3.5 
" style="stroke: #a9a9a9; stroke-width: 0.8"/>
      </defs>
      <g>
       <use xlink:href="#m7d25029b2d" x="127.289288" y="320.4" style="fill: #a9a9a9; stroke: #a9a9a9; stroke-width: 0.8"/>
      </g>
     </g>
     <g id="text_1">
      <!-- 2021-07 -->
      <g style="fill: #a9a9a9" transform="translate(106.397882 334.998438) scale(0.1 -0.1)">
       <defs>
        <path id="DejaVuSans-32" d="M 1228 531 
L 3431 531 
L 3431 0 
L 469 0 
L 469 531 
Q 828 903 1448 1529 
Q 2069 2156 2228 2338 
Q 2531 2678 2651 2914 
Q 2772 3150 2772 3378 
Q 2772 3750 2511 3984 
Q 2250 4219 1831 4219 
Q 1534 4219 1204 4116 
Q 875 4013 500 3803 
L 500 4441 
Q 881 4594 1212 4672 
Q 1544 4750 1819 4750 
Q 2544 4750 2975 4387 
Q 3406 4025 3406 3419 
Q 3406 3131 3298 2873 
Q 3191 2616 2906 2266 
Q 2828 2175 2409 1742 
Q 1991 1309 1228 531 
z
" transform="scale(0.015625)"/>
        <path id="DejaVuSans-30" d="M 2034 4250 
Q 1547 4250 1301 3770 
Q 1056 3291 1056 2328 
Q 1056 1369 1301 889 
Q 1547 409 2034 409 
Q 2525 409 2770 889 
Q 3016 1369 3016 2328 
Q 3016 3291 2770 3770 
Q 2525 4250 2034 4250 
z
M 2034 4750 
Q 2819 4750 3233 4129 
Q 3647 3509 3647 2328 
Q 3647 1150 3233 529 
Q 2819 -91 2034 -91 
Q 1250 -91 836 529 
Q 422 1150 422 2328 
Q 422 3509 836 4129 
Q 1250 4750 2034 4750 
z
" transform="scale(0.015625)"/>
        <path id="DejaVuSans-31" d="M 794 531 
L 1825 531 
L 1825 4091 
L 703 3866 
L 703 4441 
L 1819 4666 
L 2450 4666 
L 2450 531 
L 3481 531 
L 3481 0 
L 794 0 
L 794 531 
z
" transform="scale(0.015625)"/>
        <path id="DejaVuSans-2d" d="M 313 2009 
L 1997 2009 
L 1997 1497 
L 313 1497 
L 313 2009 
z
" transform="scale(0.015625)"/>
        <path id="DejaVuSans-37" d="M 525 4666 
L 3525 4666 
L 3525 4397 
L 1831 0 
L 1172 0 
L 2766 4134 
L 525 4134 
L 525 4666 
z
" transform="scale(0.015625)"/>
       </defs>
       <use xlink:href="#DejaVuSans-32"/>
       <use xlink:href="#DejaVuSans-30" transform="translate(63.623047 0)"/>
       <use xlink:href="#DejaVuSans-32" transform="translate(127.246094 0)"/>
       <use xlink:href="#DejaVuSans-31" transform="translate(190.869141 0)"/>
       <use xlink:href="#DejaVuSans-2d" transform="translate(254.492188 0)"/>
       <use xlink:href="#DejaVuSans-30" transform="translate(290.576172 0)"/>
       <use xlink:href="#DejaVuSans-37" transform="translate(354.199219 0)"/>
      </g>
     </g>
    </g>
    <g id="xtick_2">
     <g id="line2d_3">
      <path d="M 216.465895 320.4 
L 216.465895 43.2 
" clip-path="url(#p2fa93a2ba1)" style="fill: none; stroke-dasharray: 5.12,1.28,0.8,1.28; stroke-dashoffset: 0; stroke: #b0b0b0; stroke-width: 0.8"/>
     </g>
     <g id="line2d_4">
      <g>
       <use xlink:href="#m7d25029b2d" x="216.465895" y="320.4" style="fill: #a9a9a9; stroke: #a9a9a9; stroke-width: 0.8"/>
      </g>
     </g>
     <g id="text_2">
      <!-- 2022-01 -->
      <g style="fill: #a9a9a9" transform="translate(195.574488 334.998438) scale(0.1 -0.1)">
       <use xlink:href="#DejaVuSans-32"/>
       <use xlink:href="#DejaVuSans-30" transform="translate(63.623047 0)"/>
       <use xlink:href="#DejaVuSans-32" transform="translate(127.246094 0)"/>
       <use xlink:href="#DejaVuSans-32" transform="translate(190.869141 0)"/>
       <use xlink:href="#DejaVuSans-2d" transform="translate(254.492188 0)"/>
       <use xlink:href="#DejaVuSans-30" transform="translate(290.576172 0)"/>
       <use xlink:href="#DejaVuSans-31" transform="translate(354.199219 0)"/>
      </g>
     </g>
    </g>
    <g id="xtick_3">
     <g id="line2d_5">
      <path d="M 304.188535 320.4 
L 304.188535 43.2 
" clip-path="url(#p2fa93a2ba1)" style="fill: none; stroke-dasharray: 5.12,1.28,0.8,1.28; stroke-dashoffset: 0; stroke: #b0b0b0; stroke-width: 0.8"/>
     </g>
     <g id="line2d_6">
      <g>
       <use xlink:href="#m7d25029b2d" x="304.188535" y="320.4" style="fill: #a9a9a9; stroke: #a9a9a9; stroke-width: 0.8"/>
      </g>
     </g>
     <g id="text_3">
      <!-- 2022-07 -->
      <g style="fill: #a9a9a9" transform="translate(283.297129 334.998438) scale(0.1 -0.1)">
       <use xlink:href="#DejaVuSans-32"/>
       <use xlink:href="#DejaVuSans-30" transform="translate(63.623047 0)"/>
       <use xlink:href="#DejaVuSans-32" transform="translate(127.246094 0)"/>
       <use xlink:href="#DejaVuSans-32" transform="translate(190.869141 0)"/>
       <use xlink:href="#DejaVuSans-2d" transform="translate(254.492188 0)"/>
       <use xlink:href="#DejaVuSans-30" transform="translate(290.576172 0)"/>
       <use xlink:href="#DejaVuSans-37" transform="translate(354.199219 0)"/>
      </g>
     </g>
    </g>
    <g id="xtick_4">
     <g id="line2d_7">
      <path d="M 393.365142 320.4 
L 393.365142 43.2 
" clip-path="url(#p2fa93a2ba1)" style="fill: none; stroke-dasharray: 5.12,1.28,0.8,1.28; stroke-dashoffset: 0; stroke: #b0b0b0; stroke-width: 0.8"/>
     </g>
     <g id="line2d_8">
      <g>
       <use xlink:href="#m7d25029b2d" x="393.365142" y="320.4" style="fill: #a9a9a9; stroke: #a9a9a9; stroke-width: 0.8"/>
      </g>
     </g>
     <g id="text_4">
      <!-- 2023-01 -->
      <g style="fill: #a9a9a9" transform="translate(372.473736 334.998438) scale(0.1 -0.1)">
       <defs>
        <path id="DejaVuSans-33" d="M 2597 2516 
Q 3050 2419 3304 2112 
Q 3559 1806 3559 1356 
Q 3559 666 3084 287 
Q 2609 -91 1734 -91 
Q 1441 -91 1130 -33 
Q 819 25 488 141 
L 488 750 
Q 750 597 1062 519 
Q 1375 441 1716 441 
Q 2309 441 2620 675 
Q 2931 909 2931 1356 
Q 2931 1769 2642 2001 
Q 2353 2234 1838 2234 
L 1294 2234 
L 1294 2753 
L 1863 2753 
Q 2328 2753 2575 2939 
Q 2822 3125 2822 3475 
Q 2822 3834 2567 4026 
Q 2313 4219 1838 4219 
Q 1578 4219 1281 4162 
Q 984 4106 628 3988 
L 628 4550 
Q 988 4650 1302 4700 
Q 1616 4750 1894 4750 
Q 2613 4750 3031 4423 
Q 3450 4097 3450 3541 
Q 3450 3153 3228 2886 
Q 3006 2619 2597 2516 
z
" transform="scale(0.015625)"/>
       </defs>
       <use xlink:href="#DejaVuSans-32"/>
       <use xlink:href="#DejaVuSans-30" transform="translate(63.623047 0)"/>
       <use xlink:href="#DejaVuSans-32" transform="translate(127.246094 0)"/>
       <use xlink:href="#DejaVuSans-33" transform="translate(190.869141 0)"/>
       <use xlink:href="#DejaVuSans-2d" transform="translate(254.492188 0)"/>
       <use xlink:href="#DejaVuSans-30" transform="translate(290.576172 0)"/>
       <use xlink:href="#DejaVuSans-31" transform="translate(354.199219 0)"/>
      </g>
     </g>
    </g>
    <g id="xtick_5">
     <g id="line2d_9">
      <path d="M 481.087782 320.4 
L 481.087782 43.2 
" clip-path="url(#p2fa93a2ba1)" style="fill: none; stroke-dasharray: 5.12,1.28,0.8,1.28; stroke-dashoffset: 0; stroke: #b0b0b0; stroke-width: 0.8"/>
     </g>
     <g id="line2d_10">
      <g>
       <use xlink:href="#m7d25029b2d" x="481.087782" y="320.4" style="fill: #a9a9a9; stroke: #a9a9a9; stroke-width: 0.8"/>
      </g>
     </g>
     <g id="text_5">
      <!-- 2023-07 -->
      <g style="fill: #a9a9a9" transform="translate(460.196376 334.998438) scale(0.1 -0.1)">
       <use xlink:href="#DejaVuSans-32"/>
       <use xlink:href="#DejaVuSans-30" transform="translate(63.623047 0)"/>
       <use xlink:href="#DejaVuSans-32" transform="translate(127.246094 0)"/>
       <use xlink:href="#DejaVuSans-33" transform="translate(190.869141 0)"/>
       <use xlink:href="#DejaVuSans-2d" transform="translate(254.492188 0)"/>
       <use xlink:href="#DejaVuSans-30" transform="translate(290.576172 0)"/>
       <use xlink:href="#DejaVuSans-37" transform="translate(354.199219 0)"/>
      </g>
     </g>
    </g>
    <g id="xtick_6">
     <g id="line2d_11">
      <path d="M 570.264389 320.4 
L 570.264389 43.2 
" clip-path="url(#p2fa93a2ba1)" style="fill: none; stroke-dasharray: 5.12,1.28,0.8,1.28; stroke-dashoffset: 0; stroke: #b0b0b0; stroke-width: 0.8"/>
     </g>
     <g id="line2d_12">
      <g>
       <use xlink:href="#m7d25029b2d" x="570.264389" y="320.4" style="fill: #a9a9a9; stroke: #a9a9a9; stroke-width: 0.8"/>
      </g>
     </g>
     <g id="text_6">
      <!-- 2024-01 -->
      <g style="fill: #a9a9a9" transform="translate(549.372983 334.998438) scale(0.1 -0.1)">
       <defs>
        <path id="DejaVuSans-34" d="M 2419 4116 
L 825 1625 
L 2419 1625 
L 2419 4116 
z
M 2253 4666 
L 3047 4666 
L 3047 1625 
L 3713 1625 
L 3713 1100 
L 3047 1100 
L 3047 0 
L 2419 0 
L 2419 1100 
L 313 1100 
L 313 1709 
L 2253 4666 
z
" transform="scale(0.015625)"/>
       </defs>
       <use xlink:href="#DejaVuSans-32"/>
       <use xlink:href="#DejaVuSans-30" transform="translate(63.623047 0)"/>
       <use xlink:href="#DejaVuSans-32" transform="translate(127.246094 0)"/>
       <use xlink:href="#DejaVuSans-34" transform="translate(190.869141 0)"/>
       <use xlink:href="#DejaVuSans-2d" transform="translate(254.492188 0)"/>
       <use xlink:href="#DejaVuSans-30" transform="translate(290.576172 0)"/>
       <use xlink:href="#DejaVuSans-31" transform="translate(354.199219 0)"/>
      </g>
     </g>
    </g>
    <g id="xtick_7">
     <g id="line2d_13">
      <path d="M 658.471685 320.4 
L 658.471685 43.2 
" clip-path="url(#p2fa93a2ba1)" style="fill: none; stroke-dasharray: 5.12,1.28,0.8,1.28; stroke-dashoffset: 0; stroke: #b0b0b0; stroke-width: 0.8"/>
     </g>
     <g id="line2d_14">
      <g>
       <use xlink:href="#m7d25029b2d" x="658.471685" y="320.4" style="fill: #a9a9a9; stroke: #a9a9a9; stroke-width: 0.8"/>
      </g>
     </g>
     <g id="text_7">
      <!-- 2024-07 -->
      <g style="fill: #a9a9a9" transform="translate(637.580279 334.998438) scale(0.1 -0.1)">
       <use xlink:href="#DejaVuSans-32"/>
       <use xlink:href="#DejaVuSans-30" transform="translate(63.623047 0)"/>
       <use xlink:href="#DejaVuSans-32" transform="translate(127.246094 0)"/>
       <use xlink:href="#DejaVuSans-34" transform="translate(190.869141 0)"/>
       <use xlink:href="#DejaVuSans-2d" transform="translate(254.492188 0)"/>
       <use xlink:href="#DejaVuSans-30" transform="translate(290.576172 0)"/>
       <use xlink:href="#DejaVuSans-37" transform="translate(354.199219 0)"/>
      </g>
     </g>
    </g>
    <g id="xtick_8">
     <g id="line2d_15">
      <path d="M 747.648292 320.4 
L 747.648292 43.2 
" clip-path="url(#p2fa93a2ba1)" style="fill: none; stroke-dasharray: 5.12,1.28,0.8,1.28; stroke-dashoffset: 0; stroke: #b0b0b0; stroke-width: 0.8"/>
     </g>
     <g id="line2d_16">
      <g>
       <use xlink:href="#m7d25029b2d" x="747.648292" y="320.4" style="fill: #a9a9a9; stroke: #a9a9a9; stroke-width: 0.8"/>
      </g>
     </g>
     <g id="text_8">
      <!-- 2025-01 -->
      <g style="fill: #a9a9a9" transform="translate(726.756886 334.998438) scale(0.1 -0.1)">
       <defs>
        <path id="DejaVuSans-35" d="M 691 4666 
L 3169 4666 
L 3169 4134 
L 1269 4134 
L 1269 2991 
Q 1406 3038 1543 3061 
Q 1681 3084 1819 3084 
Q 2600 3084 3056 2656 
Q 3513 2228 3513 1497 
Q 3513 744 3044 326 
Q 2575 -91 1722 -91 
Q 1428 -91 1123 -41 
Q 819 9 494 109 
L 494 744 
Q 775 591 1075 516 
Q 1375 441 1709 441 
Q 2250 441 2565 725 
Q 2881 1009 2881 1497 
Q 2881 1984 2565 2268 
Q 2250 2553 1709 2553 
Q 1456 2553 1204 2497 
Q 953 2441 691 2322 
L 691 4666 
z
" transform="scale(0.015625)"/>
       </defs>
       <use xlink:href="#DejaVuSans-32"/>
       <use xlink:href="#DejaVuSans-30" transform="translate(63.623047 0)"/>
       <use xlink:href="#DejaVuSans-32" transform="translate(127.246094 0)"/>
       <use xlink:href="#DejaVuSans-35" transform="translate(190.869141 0)"/>
       <use xlink:href="#DejaVuSans-2d" transform="translate(254.492188 0)"/>
       <use xlink:href="#DejaVuSans-30" transform="translate(290.576172 0)"/>
       <use xlink:href="#DejaVuSans-31" transform="translate(354.199219 0)"/>
      </g>
     </g>
    </g>
   </g>
   <g id="matplotlib.axis_2">
    <g id="ytick_1">
     <g id="line2d_17">
      <path d="M 108 307.83524 
L 777.6 307.83524 
" clip-path="url(#p2fa93a2ba1)" style="fill: none; stroke-dasharray: 5.12,1.28,0.8,1.28; stroke-dashoffset: 0; stroke: #b0b0b0; stroke-width: 0.8"/>
     </g>
     <g id="line2d_18">
      <defs>
       <path id="m98bb4c2514" d="M 0 0 
L -3.5 0 
" style="stroke: #a9a9a9; stroke-width: 0.8"/>
      </defs>
      <g>
       <use xlink:href="#m98bb4c2514" x="108" y="307.83524" style="fill: #a9a9a9; stroke: #a9a9a9; stroke-width: 0.8"/>
      </g>
     </g>
     <g id="text_9">
      <!-- 0 -->
      <g style="fill: #a9a9a9" transform="translate(94.6375 311.634459) scale(0.1 -0.1)">
       <use xlink:href="#DejaVuSans-30"/>
      </g>
     </g>
    </g>
    <g id="ytick_2">
     <g id="line2d_19">
      <path d="M 108 279.643379 
L 777.6 279.643379 
" clip-path="url(#p2fa93a2ba1)" style="fill: none; stroke-dasharray: 5.12,1.28,0.8,1.28; stroke-dashoffset: 0; stroke: #b0b0b0; stroke-width: 0.8"/>
     </g>
     <g id="line2d_20">
      <g>
       <use xlink:href="#m98bb4c2514" x="108" y="279.643379" style="fill: #a9a9a9; stroke: #a9a9a9; stroke-width: 0.8"/>
      </g>
     </g>
     <g id="text_10">
      <!-- 800 -->
      <g style="fill: #a9a9a9" transform="translate(81.9125 283.442597) scale(0.1 -0.1)">
       <defs>
        <path id="DejaVuSans-38" d="M 2034 2216 
Q 1584 2216 1326 1975 
Q 1069 1734 1069 1313 
Q 1069 891 1326 650 
Q 1584 409 2034 409 
Q 2484 409 2743 651 
Q 3003 894 3003 1313 
Q 3003 1734 2745 1975 
Q 2488 2216 2034 2216 
z
M 1403 2484 
Q 997 2584 770 2862 
Q 544 3141 544 3541 
Q 544 4100 942 4425 
Q 1341 4750 2034 4750 
Q 2731 4750 3128 4425 
Q 3525 4100 3525 3541 
Q 3525 3141 3298 2862 
Q 3072 2584 2669 2484 
Q 3125 2378 3379 2068 
Q 3634 1759 3634 1313 
Q 3634 634 3220 271 
Q 2806 -91 2034 -91 
Q 1263 -91 848 271 
Q 434 634 434 1313 
Q 434 1759 690 2068 
Q 947 2378 1403 2484 
z
M 1172 3481 
Q 1172 3119 1398 2916 
Q 1625 2713 2034 2713 
Q 2441 2713 2670 2916 
Q 2900 3119 2900 3481 
Q 2900 3844 2670 4047 
Q 2441 4250 2034 4250 
Q 1625 4250 1398 4047 
Q 1172 3844 1172 3481 
z
" transform="scale(0.015625)"/>
       </defs>
       <use xlink:href="#DejaVuSans-38"/>
       <use xlink:href="#DejaVuSans-30" transform="translate(63.623047 0)"/>
       <use xlink:href="#DejaVuSans-30" transform="translate(127.246094 0)"/>
      </g>
     </g>
    </g>
    <g id="ytick_3">
     <g id="line2d_21">
      <path d="M 108 251.451517 
L 777.6 251.451517 
" clip-path="url(#p2fa93a2ba1)" style="fill: none; stroke-dasharray: 5.12,1.28,0.8,1.28; stroke-dashoffset: 0; stroke: #b0b0b0; stroke-width: 0.8"/>
     </g>
     <g id="line2d_22">
      <g>
       <use xlink:href="#m98bb4c2514" x="108" y="251.451517" style="fill: #a9a9a9; stroke: #a9a9a9; stroke-width: 0.8"/>
      </g>
     </g>
     <g id="text_11">
      <!-- 1600 -->
      <g style="fill: #a9a9a9" transform="translate(75.55 255.250736) scale(0.1 -0.1)">
       <defs>
        <path id="DejaVuSans-36" d="M 2113 2584 
Q 1688 2584 1439 2293 
Q 1191 2003 1191 1497 
Q 1191 994 1439 701 
Q 1688 409 2113 409 
Q 2538 409 2786 701 
Q 3034 994 3034 1497 
Q 3034 2003 2786 2293 
Q 2538 2584 2113 2584 
z
M 3366 4563 
L 3366 3988 
Q 3128 4100 2886 4159 
Q 2644 4219 2406 4219 
Q 1781 4219 1451 3797 
Q 1122 3375 1075 2522 
Q 1259 2794 1537 2939 
Q 1816 3084 2150 3084 
Q 2853 3084 3261 2657 
Q 3669 2231 3669 1497 
Q 3669 778 3244 343 
Q 2819 -91 2113 -91 
Q 1303 -91 875 529 
Q 447 1150 447 2328 
Q 447 3434 972 4092 
Q 1497 4750 2381 4750 
Q 2619 4750 2861 4703 
Q 3103 4656 3366 4563 
z
" transform="scale(0.015625)"/>
       </defs>
       <use xlink:href="#DejaVuSans-31"/>
       <use xlink:href="#DejaVuSans-36" transform="translate(63.623047 0)"/>
       <use xlink:href="#DejaVuSans-30" transform="translate(127.246094 0)"/>
       <use xlink:href="#DejaVuSans-30" transform="translate(190.869141 0)"/>
      </g>
     </g>
    </g>
    <g id="ytick_4">
     <g id="line2d_23">
      <path d="M 108 223.259656 
L 777.6 223.259656 
" clip-path="url(#p2fa93a2ba1)" style="fill: none; stroke-dasharray: 5.12,1.28,0.8,1.28; stroke-dashoffset: 0; stroke: #b0b0b0; stroke-width: 0.8"/>
     </g>
     <g id="line2d_24">
      <g>
       <use xlink:href="#m98bb4c2514" x="108" y="223.259656" style="fill: #a9a9a9; stroke: #a9a9a9; stroke-width: 0.8"/>
      </g>
     </g>
     <g id="text_12">
      <!-- 2400 -->
      <g style="fill: #a9a9a9" transform="translate(75.55 227.058875) scale(0.1 -0.1)">
       <use xlink:href="#DejaVuSans-32"/>
       <use xlink:href="#DejaVuSans-34" transform="translate(63.623047 0)"/>
       <use xlink:href="#DejaVuSans-30" transform="translate(127.246094 0)"/>
       <use xlink:href="#DejaVuSans-30" transform="translate(190.869141 0)"/>
      </g>
     </g>
    </g>
    <g id="ytick_5">
     <g id="line2d_25">
      <path d="M 108 195.067795 
L 777.6 195.067795 
" clip-path="url(#p2fa93a2ba1)" style="fill: none; stroke-dasharray: 5.12,1.28,0.8,1.28; stroke-dashoffset: 0; stroke: #b0b0b0; stroke-width: 0.8"/>
     </g>
     <g id="line2d_26">
      <g>
       <use xlink:href="#m98bb4c2514" x="108" y="195.067795" style="fill: #a9a9a9; stroke: #a9a9a9; stroke-width: 0.8"/>
      </g>
     </g>
     <g id="text_13">
      <!-- 3200 -->
      <g style="fill: #a9a9a9" transform="translate(75.55 198.867013) scale(0.1 -0.1)">
       <use xlink:href="#DejaVuSans-33"/>
       <use xlink:href="#DejaVuSans-32" transform="translate(63.623047 0)"/>
       <use xlink:href="#DejaVuSans-30" transform="translate(127.246094 0)"/>
       <use xlink:href="#DejaVuSans-30" transform="translate(190.869141 0)"/>
      </g>
     </g>
    </g>
    <g id="ytick_6">
     <g id="line2d_27">
      <path d="M 108 166.875933 
L 777.6 166.875933 
" clip-path="url(#p2fa93a2ba1)" style="fill: none; stroke-dasharray: 5.12,1.28,0.8,1.28; stroke-dashoffset: 0; stroke: #b0b0b0; stroke-width: 0.8"/>
     </g>
     <g id="line2d_28">
      <g>
       <use xlink:href="#m98bb4c2514" x="108" y="166.875933" style="fill: #a9a9a9; stroke: #a9a9a9; stroke-width: 0.8"/>
      </g>
     </g>
     <g id="text_14">
      <!-- 4000 -->
      <g style="fill: #a9a9a9" transform="translate(75.55 170.675152) scale(0.1 -0.1)">
       <use xlink:href="#DejaVuSans-34"/>
       <use xlink:href="#DejaVuSans-30" transform="translate(63.623047 0)"/>
       <use xlink:href="#DejaVuSans-30" transform="translate(127.246094 0)"/>
       <use xlink:href="#DejaVuSans-30" transform="translate(190.869141 0)"/>
      </g>
     </g>
    </g>
    <g id="ytick_7">
     <g id="line2d_29">
      <path d="M 108 138.684072 
L 777.6 138.684072 
" clip-path="url(#p2fa93a2ba1)" style="fill: none; stroke-dasharray: 5.12,1.28,0.8,1.28; stroke-dashoffset: 0; stroke: #b0b0b0; stroke-width: 0.8"/>
     </g>
     <g id="line2d_30">
      <g>
       <use xlink:href="#m98bb4c2514" x="108" y="138.684072" style="fill: #a9a9a9; stroke: #a9a9a9; stroke-width: 0.8"/>
      </g>
     </g>
     <g id="text_15">
      <!-- 4800 -->
      <g style="fill: #a9a9a9" transform="translate(75.55 142.483291) scale(0.1 -0.1)">
       <use xlink:href="#DejaVuSans-34"/>
       <use xlink:href="#DejaVuSans-38" transform="translate(63.623047 0)"/>
       <use xlink:href="#DejaVuSans-30" transform="translate(127.246094 0)"/>
       <use xlink:href="#DejaVuSans-30" transform="translate(190.869141 0)"/>
      </g>
     </g>
    </g>
    <g id="ytick_8">
     <g id="line2d_31">
      <path d="M 108 110.492211 
L 777.6 110.492211 
" clip-path="url(#p2fa93a2ba1)" style="fill: none; stroke-dasharray: 5.12,1.28,0.8,1.28; stroke-dashoffset: 0; stroke: #b0b0b0; stroke-width: 0.8"/>
     </g>
     <g id="line2d_32">
      <g>
       <use xlink:href="#m98bb4c2514" x="108" y="110.492211" style="fill: #a9a9a9; stroke: #a9a9a9; stroke-width: 0.8"/>
      </g>
     </g>
     <g id="text_16">
      <!-- 5600 -->
      <g style="fill: #a9a9a9" transform="translate(75.55 114.29143) scale(0.1 -0.1)">
       <use xlink:href="#DejaVuSans-35"/>
       <use xlink:href="#DejaVuSans-36" transform="translate(63.623047 0)"/>
       <use xlink:href="#DejaVuSans-30" transform="translate(127.246094 0)"/>
       <use xlink:href="#DejaVuSans-30" transform="translate(190.869141 0)"/>
      </g>
     </g>
    </g>
    <g id="ytick_9">
     <g id="line2d_33">
      <path d="M 108 82.30035 
L 777.6 82.30035 
" clip-path="url(#p2fa93a2ba1)" style="fill: none; stroke-dasharray: 5.12,1.28,0.8,1.28; stroke-dashoffset: 0; stroke: #b0b0b0; stroke-width: 0.8"/>
     </g>
     <g id="line2d_34">
      <g>
       <use xlink:href="#m98bb4c2514" x="108" y="82.30035" style="fill: #a9a9a9; stroke: #a9a9a9; stroke-width: 0.8"/>
      </g>
     </g>
     <g id="text_17">
      <!-- 6400 -->
      <g style="fill: #a9a9a9" transform="translate(75.55 86.099568) scale(0.1 -0.1)">
       <use xlink:href="#DejaVuSans-36"/>
       <use xlink:href="#DejaVuSans-34" transform="translate(63.623047 0)"/>
       <use xlink:href="#DejaVuSans-30" transform="translate(127.246094 0)"/>
       <use xlink:href="#DejaVuSans-30" transform="translate(190.869141 0)"/>
      </g>
     </g>
    </g>
    <g id="ytick_10">
     <g id="line2d_35">
      <path d="M 108 54.108488 
L 777.6 54.108488 
" clip-path="url(#p2fa93a2ba1)" style="fill: none; stroke-dasharray: 5.12,1.28,0.8,1.28; stroke-dashoffset: 0; stroke: #b0b0b0; stroke-width: 0.8"/>
     </g>
     <g id="line2d_36">
      <g>
       <use xlink:href="#m98bb4c2514" x="108" y="54.108488" style="fill: #a9a9a9; stroke: #a9a9a9; stroke-width: 0.8"/>
      </g>
     </g>
     <g id="text_18">
      <!-- 7200 -->
      <g style="fill: #a9a9a9" transform="translate(75.55 57.907707) scale(0.1 -0.1)">
       <use xlink:href="#DejaVuSans-37"/>
       <use xlink:href="#DejaVuSans-32" transform="translate(63.623047 0)"/>
       <use xlink:href="#DejaVuSans-30" transform="translate(127.246094 0)"/>
       <use xlink:href="#DejaVuSans-30" transform="translate(190.869141 0)"/>
      </g>
     </g>
    </g>
   </g>
   <g id="line2d_37">
    <path d="M 138.436364 307.72952 
L 141.344296 307.482842 
L 141.828952 307.271403 
L 143.767574 307.024724 
L 145.706196 306.637086 
L 146.675507 306.496126 
L 149.098784 306.284687 
L 150.068095 305.897049 
L 150.55275 305.262732 
L 151.037406 304.910334 
L 151.522061 303.8179 
L 152.006717 303.74742 
L 152.491372 303.359782 
L 153.460683 302.866424 
L 155.399305 301.315872 
L 157.337927 300.364397 
L 158.791893 299.69484 
L 159.276549 298.919564 
L 160.24586 298.214767 
L 160.730515 298.003328 
L 165.57707 297.298532 
L 166.061726 297.087093 
L 169.454314 296.805174 
L 171.392936 296.347056 
L 175.27018 295.818459 
L 175.754835 295.57178 
L 176.23949 295.501301 
L 177.208801 295.184142 
L 180.60139 294.620305 
L 181.570701 294.338386 
L 185.9326 293.59835 
L 186.901911 293.386911 
L 187.871222 293.351671 
L 189.809844 292.893553 
L 190.294499 292.223997 
L 191.748466 291.660159 
L 193.202432 291.272521 
L 193.687087 291.025843 
L 194.656398 290.849643 
L 196.59502 290.285806 
L 197.564331 290.215327 
L 198.533642 289.968648 
L 200.472264 289.47529 
L 200.95692 289.44005 
L 201.92623 288.981933 
L 202.410886 288.911453 
L 202.895541 288.664774 
L 208.226752 287.783778 
L 210.165373 287.219941 
L 210.650029 286.902783 
L 213.073306 286.092267 
L 214.042617 285.42271 
L 215.496584 285.140791 
L 228.097626 281.581569 
L 228.582281 281.581569 
L 229.066937 281.37013 
L 230.036248 281.264411 
L 230.520903 281.088211 
L 232.459525 281.017732 
L 233.428836 280.841533 
L 234.398147 280.348175 
L 235.852113 279.819578 
L 236.336769 279.502419 
L 237.30608 279.079541 
L 237.790735 278.832863 
L 238.760046 278.515704 
L 239.244702 278.374745 
L 240.214013 277.775668 
L 240.698668 277.24707 
L 241.667979 275.766998 
L 242.152635 275.626038 
L 242.63729 275.626038 
L 244.091257 274.780282 
L 244.575912 274.533604 
L 245.060567 274.427884 
L 245.545223 273.969766 
L 246.514534 273.582128 
L 247.483845 273.124011 
L 249.907122 270.058146 
L 252.815055 268.507593 
L 253.784366 267.732317 
L 254.269021 267.415159 
L 254.753677 266.710362 
L 255.238332 265.617928 
L 255.722988 264.877891 
L 256.207643 264.490253 
L 256.692299 264.278814 
L 260.569543 260.754831 
L 261.538854 259.873836 
L 264.446786 258.076605 
L 264.931442 257.900406 
L 266.385408 257.05465 
L 267.839375 256.103174 
L 269.777997 254.376423 
L 270.747307 253.988785 
L 271.716618 253.319228 
L 272.201274 253.037309 
L 272.685929 252.96683 
L 274.139896 252.156314 
L 274.624551 251.627716 
L 277.047829 250.323843 
L 277.532484 250.147644 
L 278.98645 249.160929 
L 286.256283 246.588421 
L 287.225594 245.707426 
L 288.194904 245.249308 
L 289.164215 244.72071 
L 289.648871 244.438792 
L 290.618182 244.156873 
L 291.102837 243.839715 
L 291.587493 243.698755 
L 293.041459 242.74728 
L 295.464737 242.183443 
L 296.918703 241.337687 
L 298.372669 241.020529 
L 298.857325 240.879569 
L 300.311291 239.787135 
L 302.249913 239.258537 
L 302.734569 238.870899 
L 305.642501 237.884184 
L 306.611812 237.707985 
L 307.581123 237.320347 
L 310.973712 236.086953 
L 311.943023 235.945994 
L 313.396989 235.452636 
L 315.820266 234.289722 
L 317.758888 233.232527 
L 321.636132 231.646735 
L 322.120787 231.576255 
L 323.090098 230.977178 
L 323.574754 230.906698 
L 325.513376 230.131422 
L 327.451998 229.884743 
L 328.421309 229.391386 
L 328.905964 228.968508 
L 329.39062 228.087512 
L 331.329241 227.558915 
L 332.783208 226.818878 
L 333.267863 226.713159 
L 337.145107 224.845448 
L 338.599074 224.56353 
L 339.568384 224.070172 
L 340.05304 223.858733 
L 340.537695 223.788253 
L 342.476317 222.907258 
L 343.930284 221.991022 
L 345.38425 221.709104 
L 347.807528 221.110027 
L 348.292183 220.722388 
L 349.746149 220.193791 
L 351.684771 219.418515 
L 352.169427 219.066117 
L 352.654082 218.889917 
L 353.623393 218.36132 
L 356.046671 217.550804 
L 357.500637 216.38789 
L 357.985292 216.28217 
L 358.954603 215.506894 
L 359.439259 215.436414 
L 359.923914 214.661138 
L 360.40857 214.449699 
L 360.893225 214.062061 
L 361.377881 213.991582 
L 362.347192 213.392505 
L 363.316503 213.075346 
L 363.801158 212.722948 
L 364.285814 212.546749 
L 365.73978 211.524794 
L 367.678402 210.502839 
L 368.163057 210.432359 
L 369.617024 209.692323 
L 370.101679 208.881807 
L 371.07099 208.17701 
L 371.555646 208.071291 
L 372.524957 207.472214 
L 373.009612 207.366494 
L 373.978923 206.873137 
L 375.917545 205.921661 
L 376.4022 205.569263 
L 377.371511 204.617788 
L 378.340822 204.018711 
L 378.825478 203.701552 
L 379.310133 203.172955 
L 381.248755 201.833841 
L 381.733411 201.270004 
L 382.218066 200.882366 
L 383.187377 200.529968 
L 384.156688 199.860411 
L 385.610654 199.120375 
L 386.09531 199.049895 
L 387.549276 198.274619 
L 388.518587 197.675542 
L 393.365142 195.913551 
L 393.849797 195.525912 
L 395.788419 194.785876 
L 396.273075 194.644917 
L 397.242386 194.0106 
L 398.211697 193.587722 
L 399.181008 192.918165 
L 400.150318 190.979975 
L 401.119629 189.8523 
L 402.573596 189.112264 
L 403.542907 188.724626 
L 404.027562 188.654146 
L 404.512218 188.372228 
L 406.935495 187.596951 
L 407.420151 187.385513 
L 408.389461 186.715956 
L 409.843428 186.081639 
L 410.812739 185.553042 
L 411.297394 185.200643 
L 411.78205 184.989204 
L 412.266705 184.636806 
L 412.751361 184.108209 
L 413.720672 183.579611 
L 416.143949 182.275738 
L 419.051882 180.830905 
L 420.505848 180.408027 
L 421.959815 179.84419 
L 422.44447 179.491791 
L 423.413781 179.209873 
L 424.383092 178.822235 
L 424.867748 178.434597 
L 426.806369 177.76504 
L 427.77568 177.060243 
L 428.744991 176.637365 
L 429.714302 175.862089 
L 430.683613 175.509691 
L 431.168269 175.086813 
L 431.652924 175.016333 
L 432.622235 174.276297 
L 433.591546 173.782939 
L 434.076202 173.5715 
L 434.560857 173.078143 
L 437.953445 171.73903 
L 438.922756 171.316152 
L 440.376723 170.858034 
L 441.346034 170.717075 
L 441.830689 170.505636 
L 442.315345 170.435156 
L 443.284655 170.012278 
L 443.769311 169.977038 
L 445.707933 169.237002 
L 447.161899 168.215047 
L 447.646555 168.038848 
L 448.615866 167.51025 
L 449.100521 167.369291 
L 452.008454 165.748259 
L 452.493109 165.64254 
L 453.947076 164.796784 
L 455.401042 164.303426 
L 456.370353 163.986268 
L 458.308975 163.351951 
L 459.278286 163.034792 
L 461.216908 162.647154 
L 461.701563 162.435715 
L 462.186219 162.365236 
L 463.15553 161.942358 
L 463.640185 161.871878 
L 464.124841 161.625199 
L 465.094152 161.449 
L 466.548118 160.920403 
L 467.517429 160.814683 
L 468.971395 160.497525 
L 471.394673 160.074647 
L 483.995715 156.409705 
L 484.480371 155.916347 
L 485.449682 155.528709 
L 489.326925 154.083876 
L 489.811581 153.801958 
L 491.265547 153.37908 
L 492.234858 153.132401 
L 492.719514 152.815243 
L 493.204169 152.709523 
L 493.688825 152.286645 
L 495.142791 152.004727 
L 496.112102 151.546609 
L 496.596757 150.982772 
L 498.535379 150.524654 
L 501.927968 149.819857 
L 502.412623 149.819857 
L 502.897279 149.608418 
L 504.8359 149.25602 
L 505.320556 149.044581 
L 507.259178 148.692183 
L 508.228489 148.269305 
L 509.1978 148.093106 
L 511.621077 147.494029 
L 513.559699 146.894952 
L 514.044354 146.789232 
L 514.52901 146.542553 
L 515.498321 146.295875 
L 515.982976 146.013956 
L 517.436943 145.520599 
L 517.921598 145.20344 
L 518.890909 144.921521 
L 522.768153 143.582408 
L 523.737464 143.511928 
L 525.676086 142.948091 
L 526.160741 142.666173 
L 527.130052 142.384254 
L 529.553329 141.291819 
L 530.037985 141.256579 
L 535.369195 139.388869 
L 537.792472 138.754552 
L 538.761783 138.296434 
L 540.21575 137.979276 
L 542.154372 136.393483 
L 543.123683 136.111565 
L 543.608338 135.723927 
L 546.516271 134.631492 
L 547.000926 134.314334 
L 547.970237 134.032415 
L 548.454893 133.715257 
L 550.87817 132.93998 
L 552.332137 132.094225 
L 552.816792 131.988505 
L 555.240069 130.684632 
L 556.694036 130.050315 
L 557.178691 129.697916 
L 558.148002 129.380758 
L 559.117313 128.816921 
L 559.601969 128.640722 
L 560.086624 128.288323 
L 566.387145 126.068214 
L 566.871801 125.962495 
L 567.356456 125.645336 
L 569.295078 125.257698 
L 570.264389 124.87006 
L 573.172322 123.460467 
L 573.656977 123.389987 
L 575.110944 122.579471 
L 576.56491 122.086114 
L 579.957499 120.711761 
L 580.442154 120.570801 
L 580.926809 120.253643 
L 581.89612 120.147923 
L 582.380776 119.830765 
L 583.350087 119.654566 
L 584.319398 119.196448 
L 584.804053 118.985009 
L 585.288709 118.914529 
L 587.711986 117.963054 
L 589.165953 117.575416 
L 590.135263 117.328737 
L 591.58923 116.905859 
L 592.558541 116.518221 
L 594.497163 115.461026 
L 595.466474 115.073388 
L 595.951129 114.75623 
L 596.92044 114.544791 
L 597.405096 114.262872 
L 597.889751 114.157153 
L 599.343717 113.346637 
L 600.313028 112.958999 
L 602.25165 112.218962 
L 604.674928 111.408446 
L 605.644239 110.915089 
L 608.067516 110.104573 
L 610.975449 108.941659 
L 612.914071 108.060663 
L 617.760625 106.192952 
L 618.245281 105.875794 
L 620.183903 105.206237 
L 620.668558 105.206237 
L 621.637869 104.783359 
L 623.576491 103.232807 
L 624.061146 103.091847 
L 624.545802 102.774689 
L 625.030457 102.668969 
L 625.515113 102.422291 
L 625.999768 102.351811 
L 626.484424 101.999413 
L 626.969079 101.893693 
L 627.93839 101.294616 
L 629.392357 100.55458 
L 630.361668 100.166942 
L 630.846323 99.920263 
L 632.30029 99.603104 
L 634.723567 98.792588 
L 635.692878 98.47543 
L 637.146844 97.735394 
L 638.116155 97.277276 
L 639.085466 97.030597 
L 640.539433 96.36104 
L 644.901332 94.775248 
L 646.355298 93.894253 
L 646.839954 93.788533 
L 647.809265 93.330415 
L 648.778576 92.978017 
L 649.263231 92.555139 
L 650.232542 92.167501 
L 653.140475 91.004587 
L 654.594441 90.581709 
L 655.079097 90.33503 
L 655.563752 90.26455 
L 657.017719 89.735953 
L 658.471685 89.207356 
L 659.440996 88.819718 
L 659.925651 88.432079 
L 661.379618 88.044441 
L 661.864273 87.762523 
L 662.833584 87.515844 
L 664.287551 86.705328 
L 664.772206 86.670088 
L 666.226173 86.21197 
L 667.195483 86.141491 
L 668.164794 85.753853 
L 671.072727 84.908097 
L 672.042038 84.872857 
L 675.919282 83.639463 
L 676.888593 83.110866 
L 677.373248 82.687988 
L 678.827215 81.842232 
L 679.31187 81.489834 
L 680.281181 81.137435 
L 682.704459 80.362159 
L 683.189114 79.974521 
L 686.097047 78.776367 
L 688.035669 78.24777 
L 689.00498 77.824892 
L 689.489635 77.578213 
L 690.458946 77.296294 
L 690.943602 77.014376 
L 691.912913 76.838176 
L 694.33619 75.710502 
L 694.820845 75.428583 
L 696.274812 75.076185 
L 696.759467 74.759027 
L 697.244123 74.582828 
L 697.728778 74.15995 
L 698.213434 74.08947 
L 700.152056 73.314194 
L 702.090677 72.856076 
L 702.575333 72.785596 
L 703.059988 72.574157 
L 703.544644 72.538918 
L 704.513955 72.221759 
L 704.99861 72.186519 
L 706.452577 71.622682 
L 708.391199 71.058845 
L 709.36051 70.318809 
L 711.299131 69.261614 
L 712.753098 68.768256 
L 715.661031 67.464383 
L 716.630342 66.935785 
L 717.114997 66.689106 
L 717.599653 66.230989 
L 720.507585 65.279513 
L 721.476896 64.891875 
L 722.446207 64.609957 
L 722.930863 64.363278 
L 723.415518 63.9404 
L 725.35414 63.447042 
L 725.838796 63.094644 
L 732.139317 60.804055 
L 733.108628 60.627856 
L 737.470527 59.112544 
L 738.439838 58.865865 
L 738.924493 58.654426 
L 739.409149 58.619186 
L 740.37846 58.231548 
L 741.347771 57.632471 
L 741.832426 57.456272 
L 742.317082 57.421032 
L 743.771048 56.786715 
L 745.225014 56.258118 
L 745.70967 56.187638 
L 746.678981 55.8 
L 747.163636 55.8 
L 747.163636 55.8 
" clip-path="url(#p2fa93a2ba1)" style="fill: none; stroke: #1f77b4; stroke-width: 1.5; stroke-linecap: square"/>
   </g>
   <g id="line2d_38">
    <path d="M 138.921019 307.8 
L 143.282918 307.694281 
L 147.160162 307.518081 
L 149.098784 307.518081 
L 149.583439 307.377122 
L 152.006717 307.271403 
L 154.91465 306.954244 
L 157.822583 306.848525 
L 158.791893 306.742805 
L 162.184482 306.601846 
L 165.57707 306.496126 
L 168.000347 306.425647 
L 174.300869 306.319927 
L 176.724146 306.249448 
L 180.116734 306.143728 
L 182.540012 306.073248 
L 187.871222 305.967529 
L 189.809844 305.79133 
L 191.748466 305.75609 
L 194.656398 305.650371 
L 196.59502 305.615131 
L 199.018298 305.544651 
L 200.95692 305.368452 
L 205.318819 305.262732 
L 206.28813 305.192253 
L 208.226752 305.086533 
L 211.134684 304.980814 
L 213.073306 304.875094 
L 221.797105 304.346497 
L 225.189693 304.240778 
L 226.64366 304.099818 
L 229.066937 303.994099 
L 233.913492 303.74742 
L 238.760046 303.67694 
L 240.698668 303.465501 
L 242.63729 303.359782 
L 247.9685 302.866424 
L 251.361089 302.478786 
L 252.815055 302.408307 
L 256.692299 301.914949 
L 259.600232 301.844469 
L 261.054198 301.70351 
L 262.508164 301.597791 
L 276.078518 300.575836 
L 277.047829 300.399636 
L 279.955761 300.293917 
L 287.710249 299.835799 
L 291.102837 299.73008 
L 293.041459 299.518641 
L 295.464737 299.412921 
L 298.372669 299.307202 
L 300.795947 299.201482 
L 302.734569 299.166242 
L 305.157846 299.095763 
L 306.127157 298.954804 
L 312.912334 298.849084 
L 313.881644 298.743365 
L 319.69751 298.637645 
L 324.059409 298.426206 
L 327.451998 298.320487 
L 329.39062 298.109048 
L 332.783208 298.003328 
L 333.752519 297.827129 
L 336.175796 297.756649 
L 341.022351 297.68617 
L 342.960973 297.509971 
L 344.899595 297.474731 
L 346.353561 297.369011 
L 348.292183 297.192812 
L 353.138738 296.946133 
L 357.985292 296.840414 
L 362.347192 296.628975 
L 363.801158 296.593735 
L 364.770469 296.452776 
L 367.193746 296.347056 
L 368.163057 296.276577 
L 369.132368 296.206097 
L 370.101679 296.135617 
L 374.463578 296.065138 
L 375.917545 295.959418 
L 389.003243 295.113662 
L 391.42652 295.007943 
L 393.849797 294.937463 
L 400.634974 294.831744 
L 401.604285 294.690785 
L 408.389461 294.585065 
L 413.236016 294.338386 
L 414.205327 294.303146 
L 415.174638 294.197427 
L 417.597915 294.091707 
L 420.021193 294.021228 
L 422.44447 293.915508 
L 424.867748 293.845029 
L 429.229647 293.739309 
L 432.13758 293.63359 
L 438.922756 293.52787 
L 444.253966 293.245952 
L 446.192588 293.175472 
L 447.646555 293.069752 
L 454.431731 292.964033 
L 457.339664 292.858314 
L 466.063463 292.752594 
L 468.002085 292.717354 
L 473.81795 292.646875 
L 474.787261 292.576395 
L 481.572438 292.470675 
L 483.51106 292.435436 
L 496.112102 292.329716 
L 497.566068 292.188757 
L 519.375565 292.083037 
L 521.798842 292.012558 
L 534.399884 291.906838 
L 535.369195 291.836359 
L 537.792472 291.765879 
L 539.246439 291.62492 
L 542.154372 291.5192 
L 545.54696 291.378241 
L 549.908859 291.272521 
L 552.332137 291.202042 
L 555.724725 291.096322 
L 559.601969 290.920123 
L 562.025246 290.814404 
L 563.963868 290.779164 
L 568.325767 290.673444 
L 570.264389 290.638204 
L 576.56491 290.532485 
L 578.503532 290.497245 
L 580.926809 290.391526 
L 583.834742 290.285806 
L 587.227331 290.215327 
L 588.196642 290.144847 
L 599.828373 290.039127 
L 606.128894 289.686729 
L 608.552171 289.616249 
L 609.521482 289.51053 
L 610.490793 289.44005 
L 614.368037 289.334331 
L 617.27597 289.228611 
L 622.122525 289.122892 
L 624.545802 288.876213 
L 629.392357 288.770494 
L 630.361668 288.664774 
L 635.208222 288.559055 
L 637.6315 288.488575 
L 642.96271 288.453335 
L 643.932021 288.347616 
L 649.263231 288.241896 
L 650.232542 288.171417 
L 660.894962 288.065697 
L 663.802895 287.959978 
L 671.072727 287.854258 
L 673.011349 287.819018 
L 677.373248 287.748539 
L 678.342559 287.642819 
L 684.64308 287.5371 
L 687.066358 287.46662 
L 695.790156 287.360901 
L 697.244123 287.255181 
L 698.698089 287.149462 
L 700.152056 287.043742 
L 707.421888 286.938023 
L 710.32982 286.832303 
L 723.415518 286.726584 
L 727.777417 286.515145 
L 733.593283 286.409425 
L 734.562594 286.303706 
L 741.832426 286.233226 
L 742.801737 286.162746 
L 747.163636 286.092267 
L 747.163636 286.092267 
" clip-path="url(#p2fa93a2ba1)" style="fill: none; stroke: #ff7f0e; stroke-width: 1.5; stroke-linecap: square"/>
   </g>
   <g id="patch_3">
    <path d="M 108 320.4 
L 108 43.2 
" style="fill: none; stroke: #a9a9a9; stroke-width: 0.8; stroke-linejoin: miter; stroke-linecap: square"/>
   </g>
   <g id="patch_4">
    <path d="M 777.6 320.4 
L 777.6 43.2 
" style="fill: none"/>
   </g>
   <g id="patch_5">
    <path d="M 108 320.4 
L 777.6 320.4 
" style="fill: none; stroke: #a9a9a9; stroke-width: 0.8; stroke-linejoin: miter; stroke-linecap: square"/>
   </g>
   <g id="patch_6">
    <path d="M 108 43.2 
L 777.6 43.2 
" style="fill: none"/>
   </g>
   <g id="text_19">
    <!-- get_subscribe history -->
    <g style="fill: #a9a9a9" transform="translate(378.6075 37.2) scale(0.12 -0.12)">
     <defs>
      <path id="DejaVuSans-67" d="M 2906 1791 
Q 2906 2416 2648 2759 
Q 2391 3103 1925 3103 
Q 1463 3103 1205 2759 
Q 947 2416 947 1791 
Q 947 1169 1205 825 
Q 1463 481 1925 481 
Q 2391 481 2648 825 
Q 2906 1169 2906 1791 
z
M 3481 434 
Q 3481 -459 3084 -895 
Q 2688 -1331 1869 -1331 
Q 1566 -1331 1297 -1286 
Q 1028 -1241 775 -1147 
L 775 -588 
Q 1028 -725 1275 -790 
Q 1522 -856 1778 -856 
Q 2344 -856 2625 -561 
Q 2906 -266 2906 331 
L 2906 616 
Q 2728 306 2450 153 
Q 2172 0 1784 0 
Q 1141 0 747 490 
Q 353 981 353 1791 
Q 353 2603 747 3093 
Q 1141 3584 1784 3584 
Q 2172 3584 2450 3431 
Q 2728 3278 2906 2969 
L 2906 3500 
L 3481 3500 
L 3481 434 
z
" transform="scale(0.015625)"/>
      <path id="DejaVuSans-65" d="M 3597 1894 
L 3597 1613 
L 953 1613 
Q 991 1019 1311 708 
Q 1631 397 2203 397 
Q 2534 397 2845 478 
Q 3156 559 3463 722 
L 3463 178 
Q 3153 47 2828 -22 
Q 2503 -91 2169 -91 
Q 1331 -91 842 396 
Q 353 884 353 1716 
Q 353 2575 817 3079 
Q 1281 3584 2069 3584 
Q 2775 3584 3186 3129 
Q 3597 2675 3597 1894 
z
M 3022 2063 
Q 3016 2534 2758 2815 
Q 2500 3097 2075 3097 
Q 1594 3097 1305 2825 
Q 1016 2553 972 2059 
L 3022 2063 
z
" transform="scale(0.015625)"/>
      <path id="DejaVuSans-74" d="M 1172 4494 
L 1172 3500 
L 2356 3500 
L 2356 3053 
L 1172 3053 
L 1172 1153 
Q 1172 725 1289 603 
Q 1406 481 1766 481 
L 2356 481 
L 2356 0 
L 1766 0 
Q 1100 0 847 248 
Q 594 497 594 1153 
L 594 3053 
L 172 3053 
L 172 3500 
L 594 3500 
L 594 4494 
L 1172 4494 
z
" transform="scale(0.015625)"/>
      <path id="DejaVuSans-5f" d="M 3263 -1063 
L 3263 -1509 
L -63 -1509 
L -63 -1063 
L 3263 -1063 
z
" transform="scale(0.015625)"/>
      <path id="DejaVuSans-73" d="M 2834 3397 
L 2834 2853 
Q 2591 2978 2328 3040 
Q 2066 3103 1784 3103 
Q 1356 3103 1142 2972 
Q 928 2841 928 2578 
Q 928 2378 1081 2264 
Q 1234 2150 1697 2047 
L 1894 2003 
Q 2506 1872 2764 1633 
Q 3022 1394 3022 966 
Q 3022 478 2636 193 
Q 2250 -91 1575 -91 
Q 1294 -91 989 -36 
Q 684 19 347 128 
L 347 722 
Q 666 556 975 473 
Q 1284 391 1588 391 
Q 1994 391 2212 530 
Q 2431 669 2431 922 
Q 2431 1156 2273 1281 
Q 2116 1406 1581 1522 
L 1381 1569 
Q 847 1681 609 1914 
Q 372 2147 372 2553 
Q 372 3047 722 3315 
Q 1072 3584 1716 3584 
Q 2034 3584 2315 3537 
Q 2597 3491 2834 3397 
z
" transform="scale(0.015625)"/>
      <path id="DejaVuSans-75" d="M 544 1381 
L 544 3500 
L 1119 3500 
L 1119 1403 
Q 1119 906 1312 657 
Q 1506 409 1894 409 
Q 2359 409 2629 706 
Q 2900 1003 2900 1516 
L 2900 3500 
L 3475 3500 
L 3475 0 
L 2900 0 
L 2900 538 
Q 2691 219 2414 64 
Q 2138 -91 1772 -91 
Q 1169 -91 856 284 
Q 544 659 544 1381 
z
M 1991 3584 
L 1991 3584 
z
" transform="scale(0.015625)"/>
      <path id="DejaVuSans-62" d="M 3116 1747 
Q 3116 2381 2855 2742 
Q 2594 3103 2138 3103 
Q 1681 3103 1420 2742 
Q 1159 2381 1159 1747 
Q 1159 1113 1420 752 
Q 1681 391 2138 391 
Q 2594 391 2855 752 
Q 3116 1113 3116 1747 
z
M 1159 2969 
Q 1341 3281 1617 3432 
Q 1894 3584 2278 3584 
Q 2916 3584 3314 3078 
Q 3713 2572 3713 1747 
Q 3713 922 3314 415 
Q 2916 -91 2278 -91 
Q 1894 -91 1617 61 
Q 1341 213 1159 525 
L 1159 0 
L 581 0 
L 581 4863 
L 1159 4863 
L 1159 2969 
z
" transform="scale(0.015625)"/>
      <path id="DejaVuSans-63" d="M 3122 3366 
L 3122 2828 
Q 2878 2963 2633 3030 
Q 2388 3097 2138 3097 
Q 1578 3097 1268 2742 
Q 959 2388 959 1747 
Q 959 1106 1268 751 
Q 1578 397 2138 397 
Q 2388 397 2633 464 
Q 2878 531 3122 666 
L 3122 134 
Q 2881 22 2623 -34 
Q 2366 -91 2075 -91 
Q 1284 -91 818 406 
Q 353 903 353 1747 
Q 353 2603 823 3093 
Q 1294 3584 2113 3584 
Q 2378 3584 2631 3529 
Q 2884 3475 3122 3366 
z
" transform="scale(0.015625)"/>
      <path id="DejaVuSans-72" d="M 2631 2963 
Q 2534 3019 2420 3045 
Q 2306 3072 2169 3072 
Q 1681 3072 1420 2755 
Q 1159 2438 1159 1844 
L 1159 0 
L 581 0 
L 581 3500 
L 1159 3500 
L 1159 2956 
Q 1341 3275 1631 3429 
Q 1922 3584 2338 3584 
Q 2397 3584 2469 3576 
Q 2541 3569 2628 3553 
L 2631 2963 
z
" transform="scale(0.015625)"/>
      <path id="DejaVuSans-69" d="M 603 3500 
L 1178 3500 
L 1178 0 
L 603 0 
L 603 3500 
z
M 603 4863 
L 1178 4863 
L 1178 4134 
L 603 4134 
L 603 4863 
z
" transform="scale(0.015625)"/>
      <path id="DejaVuSans-20" transform="scale(0.015625)"/>
      <path id="DejaVuSans-68" d="M 3513 2113 
L 3513 0 
L 2938 0 
L 2938 2094 
Q 2938 2591 2744 2837 
Q 2550 3084 2163 3084 
Q 1697 3084 1428 2787 
Q 1159 2491 1159 1978 
L 1159 0 
L 581 0 
L 581 4863 
L 1159 4863 
L 1159 2956 
Q 1366 3272 1645 3428 
Q 1925 3584 2291 3584 
Q 2894 3584 3203 3211 
Q 3513 2838 3513 2113 
z
" transform="scale(0.015625)"/>
      <path id="DejaVuSans-6f" d="M 1959 3097 
Q 1497 3097 1228 2736 
Q 959 2375 959 1747 
Q 959 1119 1226 758 
Q 1494 397 1959 397 
Q 2419 397 2687 759 
Q 2956 1122 2956 1747 
Q 2956 2369 2687 2733 
Q 2419 3097 1959 3097 
z
M 1959 3584 
Q 2709 3584 3137 3096 
Q 3566 2609 3566 1747 
Q 3566 888 3137 398 
Q 2709 -91 1959 -91 
Q 1206 -91 779 398 
Q 353 888 353 1747 
Q 353 2609 779 3096 
Q 1206 3584 1959 3584 
z
" transform="scale(0.015625)"/>
      <path id="DejaVuSans-79" d="M 2059 -325 
Q 1816 -950 1584 -1140 
Q 1353 -1331 966 -1331 
L 506 -1331 
L 506 -850 
L 844 -850 
Q 1081 -850 1212 -737 
Q 1344 -625 1503 -206 
L 1606 56 
L 191 3500 
L 800 3500 
L 1894 763 
L 2988 3500 
L 3597 3500 
L 2059 -325 
z
" transform="scale(0.015625)"/>
     </defs>
     <use xlink:href="#DejaVuSans-67"/>
     <use xlink:href="#DejaVuSans-65" transform="translate(63.476562 0)"/>
     <use xlink:href="#DejaVuSans-74" transform="translate(125 0)"/>
     <use xlink:href="#DejaVuSans-5f" transform="translate(164.208984 0)"/>
     <use xlink:href="#DejaVuSans-73" transform="translate(214.208984 0)"/>
     <use xlink:href="#DejaVuSans-75" transform="translate(266.308594 0)"/>
     <use xlink:href="#DejaVuSans-62" transform="translate(329.6875 0)"/>
     <use xlink:href="#DejaVuSans-73" transform="translate(393.164062 0)"/>
     <use xlink:href="#DejaVuSans-63" transform="translate(445.263672 0)"/>
     <use xlink:href="#DejaVuSans-72" transform="translate(500.244141 0)"/>
     <use xlink:href="#DejaVuSans-69" transform="translate(541.357422 0)"/>
     <use xlink:href="#DejaVuSans-62" transform="translate(569.140625 0)"/>
     <use xlink:href="#DejaVuSans-65" transform="translate(632.617188 0)"/>
     <use xlink:href="#DejaVuSans-20" transform="translate(694.140625 0)"/>
     <use xlink:href="#DejaVuSans-68" transform="translate(725.927734 0)"/>
     <use xlink:href="#DejaVuSans-69" transform="translate(789.306641 0)"/>
     <use xlink:href="#DejaVuSans-73" transform="translate(817.089844 0)"/>
     <use xlink:href="#DejaVuSans-74" transform="translate(869.189453 0)"/>
     <use xlink:href="#DejaVuSans-6f" transform="translate(908.398438 0)"/>
     <use xlink:href="#DejaVuSans-72" transform="translate(969.580078 0)"/>
     <use xlink:href="#DejaVuSans-79" transform="translate(1010.693359 0)"/>
    </g>
   </g>
   <g id="legend_1">
    <g id="line2d_39">
     <path d="M 815.08 328.498438 
L 825.08 328.498438 
L 835.08 328.498438 
" style="fill: none; stroke: #1f77b4; stroke-width: 1.5; stroke-linecap: square"/>
    </g>
    <g id="text_20">
     <!-- star -->
     <g style="fill: #a9a9a9" transform="translate(843.08 331.998438) scale(0.1 -0.1)">
      <defs>
       <path id="DejaVuSans-61" d="M 2194 1759 
Q 1497 1759 1228 1600 
Q 959 1441 959 1056 
Q 959 750 1161 570 
Q 1363 391 1709 391 
Q 2188 391 2477 730 
Q 2766 1069 2766 1631 
L 2766 1759 
L 2194 1759 
z
M 3341 1997 
L 3341 0 
L 2766 0 
L 2766 531 
Q 2569 213 2275 61 
Q 1981 -91 1556 -91 
Q 1019 -91 701 211 
Q 384 513 384 1019 
Q 384 1609 779 1909 
Q 1175 2209 1959 2209 
L 2766 2209 
L 2766 2266 
Q 2766 2663 2505 2880 
Q 2244 3097 1772 3097 
Q 1472 3097 1187 3025 
Q 903 2953 641 2809 
L 641 3341 
Q 956 3463 1253 3523 
Q 1550 3584 1831 3584 
Q 2591 3584 2966 3190 
Q 3341 2797 3341 1997 
z
" transform="scale(0.015625)"/>
      </defs>
      <use xlink:href="#DejaVuSans-73"/>
      <use xlink:href="#DejaVuSans-74" transform="translate(52.099609 0)"/>
      <use xlink:href="#DejaVuSans-61" transform="translate(91.308594 0)"/>
      <use xlink:href="#DejaVuSans-72" transform="translate(152.587891 0)"/>
     </g>
    </g>
    <g id="line2d_40">
     <path d="M 815.08 343.176562 
L 825.08 343.176562 
L 835.08 343.176562 
" style="fill: none; stroke: #ff7f0e; stroke-width: 1.5; stroke-linecap: square"/>
    </g>
    <g id="text_21">
     <!-- fork -->
     <g style="fill: #a9a9a9" transform="translate(843.08 346.676562) scale(0.1 -0.1)">
      <defs>
       <path id="DejaVuSans-66" d="M 2375 4863 
L 2375 4384 
L 1825 4384 
Q 1516 4384 1395 4259 
Q 1275 4134 1275 3809 
L 1275 3500 
L 2222 3500 
L 2222 3053 
L 1275 3053 
L 1275 0 
L 697 0 
L 697 3053 
L 147 3053 
L 147 3500 
L 697 3500 
L 697 3744 
Q 697 4328 969 4595 
Q 1241 4863 1831 4863 
L 2375 4863 
z
" transform="scale(0.015625)"/>
       <path id="DejaVuSans-6b" d="M 581 4863 
L 1159 4863 
L 1159 1991 
L 2875 3500 
L 3609 3500 
L 1753 1863 
L 3688 0 
L 2938 0 
L 1159 1709 
L 1159 0 
L 581 0 
L 581 4863 
z
" transform="scale(0.015625)"/>
      </defs>
      <use xlink:href="#DejaVuSans-66"/>
      <use xlink:href="#DejaVuSans-6f" transform="translate(35.205078 0)"/>
      <use xlink:href="#DejaVuSans-72" transform="translate(96.386719 0)"/>
      <use xlink:href="#DejaVuSans-6b" transform="translate(137.5 0)"/>
     </g>
    </g>
   </g>
  </g>
 </g>
 <defs>
  <clipPath id="p2fa93a2ba1">
   <rect x="108" y="43.2" width="669.6" height="277.2"/>
  </clipPath>
 </defs>
</svg>
