<?xml version="1.0" encoding="utf-8" standalone="no"?>
<!DOCTYPE svg PUBLIC "-//W3C//DTD SVG 1.1//EN"
  "http://www.w3.org/Graphics/SVG/1.1/DTD/svg11.dtd">
<svg xmlns:xlink="http://www.w3.org/1999/xlink" width="864pt" height="360pt" viewBox="0 0 864 360" xmlns="http://www.w3.org/2000/svg" version="1.1">
 <metadata>
  <rdf:RDF xmlns:dc="http://purl.org/dc/elements/1.1/" xmlns:cc="http://creativecommons.org/ns#" xmlns:rdf="http://www.w3.org/1999/02/22-rdf-syntax-ns#">
   <cc:Work>
    <dc:type rdf:resource="http://purl.org/dc/dcmitype/StillImage"/>
    <dc:date>2025-10-07T20:07:28.823035</dc:date>
    <dc:format>image/svg+xml</dc:format>
    <dc:creator>
     <cc:Agent>
      <dc:title>Matplotlib v3.10.6, https://matplotlib.org/</dc:title>
     </cc:Agent>
    </dc:creator>
   </cc:Work>
  </rdf:RDF>
 </metadata>
 <defs>
  <style type="text/css">*{stroke-linejoin: round; stroke-linecap: butt}</style>
 </defs>
 <g id="figure_1">
  <g id="patch_1">
   <path d="M 0 360 
L 864 360 
L 864 0 
L 0 0 
L 0 360 
z
" style="fill: none; opacity: 0"/>
  </g>
  <g id="axes_1">
   <g id="patch_2">
    <path d="M 108 320.4 
L 777.6 320.4 
L 777.6 43.2 
L 108 43.2 
L 108 320.4 
z
" style="fill: none; opacity: 0"/>
   </g>
   <g id="matplotlib.axis_1">
    <g id="xtick_1">
     <g id="line2d_1">
      <path d="M 129.321307 320.4 
L 129.321307 43.2 
" clip-path="url(#pb0a516c2b2)" style="fill: none; stroke-dasharray: 5.12,1.28,0.8,1.28; stroke-dashoffset: 0; stroke: #b0b0b0; stroke-width: 0.8"/>
     </g>
     <g id="line2d_2">
      <defs>
       <path id="ma12da8b4d3" d="M 0 0 
L 0 3.5 
" style="stroke: #a9a9a9; stroke-width: 0.8"/>
      </defs>
      <g>
       <use xlink:href="#ma12da8b4d3" x="129.321307" y="320.4" style="fill: #a9a9a9; stroke: #a9a9a9; stroke-width: 0.8"/>
      </g>
     </g>
     <g id="text_1">
      <!-- 2021-07 -->
      <g style="fill: #a9a9a9" transform="translate(108.429901 334.998438) scale(0.1 -0.1)">
       <defs>
        <path id="DejaVuSans-32" d="M 1228 531 
L 3431 531 
L 3431 0 
L 469 0 
L 469 531 
Q 828 903 1448 1529 
Q 2069 2156 2228 2338 
Q 2531 2678 2651 2914 
Q 2772 3150 2772 3378 
Q 2772 3750 2511 3984 
Q 2250 4219 1831 4219 
Q 1534 4219 1204 4116 
Q 875 4013 500 3803 
L 500 4441 
Q 881 4594 1212 4672 
Q 1544 4750 1819 4750 
Q 2544 4750 2975 4387 
Q 3406 4025 3406 3419 
Q 3406 3131 3298 2873 
Q 3191 2616 2906 2266 
Q 2828 2175 2409 1742 
Q 1991 1309 1228 531 
z
" transform="scale(0.015625)"/>
        <path id="DejaVuSans-30" d="M 2034 4250 
Q 1547 4250 1301 3770 
Q 1056 3291 1056 2328 
Q 1056 1369 1301 889 
Q 1547 409 2034 409 
Q 2525 409 2770 889 
Q 3016 1369 3016 2328 
Q 3016 3291 2770 3770 
Q 2525 4250 2034 4250 
z
M 2034 4750 
Q 2819 4750 3233 4129 
Q 3647 3509 3647 2328 
Q 3647 1150 3233 529 
Q 2819 -91 2034 -91 
Q 1250 -91 836 529 
Q 422 1150 422 2328 
Q 422 3509 836 4129 
Q 1250 4750 2034 4750 
z
" transform="scale(0.015625)"/>
        <path id="DejaVuSans-31" d="M 794 531 
L 1825 531 
L 1825 4091 
L 703 3866 
L 703 4441 
L 1819 4666 
L 2450 4666 
L 2450 531 
L 3481 531 
L 3481 0 
L 794 0 
L 794 531 
z
" transform="scale(0.015625)"/>
        <path id="DejaVuSans-2d" d="M 313 2009 
L 1997 2009 
L 1997 1497 
L 313 1497 
L 313 2009 
z
" transform="scale(0.015625)"/>
        <path id="DejaVuSans-37" d="M 525 4666 
L 3525 4666 
L 3525 4397 
L 1831 0 
L 1172 0 
L 2766 4134 
L 525 4134 
L 525 4666 
z
" transform="scale(0.015625)"/>
       </defs>
       <use xlink:href="#DejaVuSans-32"/>
       <use xlink:href="#DejaVuSans-30" transform="translate(63.623047 0)"/>
       <use xlink:href="#DejaVuSans-32" transform="translate(127.246094 0)"/>
       <use xlink:href="#DejaVuSans-31" transform="translate(190.869141 0)"/>
       <use xlink:href="#DejaVuSans-2d" transform="translate(254.492188 0)"/>
       <use xlink:href="#DejaVuSans-30" transform="translate(290.576172 0)"/>
       <use xlink:href="#DejaVuSans-37" transform="translate(354.199219 0)"/>
      </g>
     </g>
    </g>
    <g id="xtick_2">
     <g id="line2d_3">
      <path d="M 202.241761 320.4 
L 202.241761 43.2 
" clip-path="url(#pb0a516c2b2)" style="fill: none; stroke-dasharray: 5.12,1.28,0.8,1.28; stroke-dashoffset: 0; stroke: #b0b0b0; stroke-width: 0.8"/>
     </g>
     <g id="line2d_4">
      <g>
       <use xlink:href="#ma12da8b4d3" x="202.241761" y="320.4" style="fill: #a9a9a9; stroke: #a9a9a9; stroke-width: 0.8"/>
      </g>
     </g>
     <g id="text_2">
      <!-- 2022-01 -->
      <g style="fill: #a9a9a9" transform="translate(181.350355 334.998438) scale(0.1 -0.1)">
       <use xlink:href="#DejaVuSans-32"/>
       <use xlink:href="#DejaVuSans-30" transform="translate(63.623047 0)"/>
       <use xlink:href="#DejaVuSans-32" transform="translate(127.246094 0)"/>
       <use xlink:href="#DejaVuSans-32" transform="translate(190.869141 0)"/>
       <use xlink:href="#DejaVuSans-2d" transform="translate(254.492188 0)"/>
       <use xlink:href="#DejaVuSans-30" transform="translate(290.576172 0)"/>
       <use xlink:href="#DejaVuSans-31" transform="translate(354.199219 0)"/>
      </g>
     </g>
    </g>
    <g id="xtick_3">
     <g id="line2d_5">
      <path d="M 273.973295 320.4 
L 273.973295 43.2 
" clip-path="url(#pb0a516c2b2)" style="fill: none; stroke-dasharray: 5.12,1.28,0.8,1.28; stroke-dashoffset: 0; stroke: #b0b0b0; stroke-width: 0.8"/>
     </g>
     <g id="line2d_6">
      <g>
       <use xlink:href="#ma12da8b4d3" x="273.973295" y="320.4" style="fill: #a9a9a9; stroke: #a9a9a9; stroke-width: 0.8"/>
      </g>
     </g>
     <g id="text_3">
      <!-- 2022-07 -->
      <g style="fill: #a9a9a9" transform="translate(253.081889 334.998438) scale(0.1 -0.1)">
       <use xlink:href="#DejaVuSans-32"/>
       <use xlink:href="#DejaVuSans-30" transform="translate(63.623047 0)"/>
       <use xlink:href="#DejaVuSans-32" transform="translate(127.246094 0)"/>
       <use xlink:href="#DejaVuSans-32" transform="translate(190.869141 0)"/>
       <use xlink:href="#DejaVuSans-2d" transform="translate(254.492188 0)"/>
       <use xlink:href="#DejaVuSans-30" transform="translate(290.576172 0)"/>
       <use xlink:href="#DejaVuSans-37" transform="translate(354.199219 0)"/>
      </g>
     </g>
    </g>
    <g id="xtick_4">
     <g id="line2d_7">
      <path d="M 346.89375 320.4 
L 346.89375 43.2 
" clip-path="url(#pb0a516c2b2)" style="fill: none; stroke-dasharray: 5.12,1.28,0.8,1.28; stroke-dashoffset: 0; stroke: #b0b0b0; stroke-width: 0.8"/>
     </g>
     <g id="line2d_8">
      <g>
       <use xlink:href="#ma12da8b4d3" x="346.89375" y="320.4" style="fill: #a9a9a9; stroke: #a9a9a9; stroke-width: 0.8"/>
      </g>
     </g>
     <g id="text_4">
      <!-- 2023-01 -->
      <g style="fill: #a9a9a9" transform="translate(326.002344 334.998438) scale(0.1 -0.1)">
       <defs>
        <path id="DejaVuSans-33" d="M 2597 2516 
Q 3050 2419 3304 2112 
Q 3559 1806 3559 1356 
Q 3559 666 3084 287 
Q 2609 -91 1734 -91 
Q 1441 -91 1130 -33 
Q 819 25 488 141 
L 488 750 
Q 750 597 1062 519 
Q 1375 441 1716 441 
Q 2309 441 2620 675 
Q 2931 909 2931 1356 
Q 2931 1769 2642 2001 
Q 2353 2234 1838 2234 
L 1294 2234 
L 1294 2753 
L 1863 2753 
Q 2328 2753 2575 2939 
Q 2822 3125 2822 3475 
Q 2822 3834 2567 4026 
Q 2313 4219 1838 4219 
Q 1578 4219 1281 4162 
Q 984 4106 628 3988 
L 628 4550 
Q 988 4650 1302 4700 
Q 1616 4750 1894 4750 
Q 2613 4750 3031 4423 
Q 3450 4097 3450 3541 
Q 3450 3153 3228 2886 
Q 3006 2619 2597 2516 
z
" transform="scale(0.015625)"/>
       </defs>
       <use xlink:href="#DejaVuSans-32"/>
       <use xlink:href="#DejaVuSans-30" transform="translate(63.623047 0)"/>
       <use xlink:href="#DejaVuSans-32" transform="translate(127.246094 0)"/>
       <use xlink:href="#DejaVuSans-33" transform="translate(190.869141 0)"/>
       <use xlink:href="#DejaVuSans-2d" transform="translate(254.492188 0)"/>
       <use xlink:href="#DejaVuSans-30" transform="translate(290.576172 0)"/>
       <use xlink:href="#DejaVuSans-31" transform="translate(354.199219 0)"/>
      </g>
     </g>
    </g>
    <g id="xtick_5">
     <g id="line2d_9">
      <path d="M 418.625284 320.4 
L 418.625284 43.2 
" clip-path="url(#pb0a516c2b2)" style="fill: none; stroke-dasharray: 5.12,1.28,0.8,1.28; stroke-dashoffset: 0; stroke: #b0b0b0; stroke-width: 0.8"/>
     </g>
     <g id="line2d_10">
      <g>
       <use xlink:href="#ma12da8b4d3" x="418.625284" y="320.4" style="fill: #a9a9a9; stroke: #a9a9a9; stroke-width: 0.8"/>
      </g>
     </g>
     <g id="text_5">
      <!-- 2023-07 -->
      <g style="fill: #a9a9a9" transform="translate(397.733878 334.998438) scale(0.1 -0.1)">
       <use xlink:href="#DejaVuSans-32"/>
       <use xlink:href="#DejaVuSans-30" transform="translate(63.623047 0)"/>
       <use xlink:href="#DejaVuSans-32" transform="translate(127.246094 0)"/>
       <use xlink:href="#DejaVuSans-33" transform="translate(190.869141 0)"/>
       <use xlink:href="#DejaVuSans-2d" transform="translate(254.492188 0)"/>
       <use xlink:href="#DejaVuSans-30" transform="translate(290.576172 0)"/>
       <use xlink:href="#DejaVuSans-37" transform="translate(354.199219 0)"/>
      </g>
     </g>
    </g>
    <g id="xtick_6">
     <g id="line2d_11">
      <path d="M 491.545739 320.4 
L 491.545739 43.2 
" clip-path="url(#pb0a516c2b2)" style="fill: none; stroke-dasharray: 5.12,1.28,0.8,1.28; stroke-dashoffset: 0; stroke: #b0b0b0; stroke-width: 0.8"/>
     </g>
     <g id="line2d_12">
      <g>
       <use xlink:href="#ma12da8b4d3" x="491.545739" y="320.4" style="fill: #a9a9a9; stroke: #a9a9a9; stroke-width: 0.8"/>
      </g>
     </g>
     <g id="text_6">
      <!-- 2024-01 -->
      <g style="fill: #a9a9a9" transform="translate(470.654332 334.998438) scale(0.1 -0.1)">
       <defs>
        <path id="DejaVuSans-34" d="M 2419 4116 
L 825 1625 
L 2419 1625 
L 2419 4116 
z
M 2253 4666 
L 3047 4666 
L 3047 1625 
L 3713 1625 
L 3713 1100 
L 3047 1100 
L 3047 0 
L 2419 0 
L 2419 1100 
L 313 1100 
L 313 1709 
L 2253 4666 
z
" transform="scale(0.015625)"/>
       </defs>
       <use xlink:href="#DejaVuSans-32"/>
       <use xlink:href="#DejaVuSans-30" transform="translate(63.623047 0)"/>
       <use xlink:href="#DejaVuSans-32" transform="translate(127.246094 0)"/>
       <use xlink:href="#DejaVuSans-34" transform="translate(190.869141 0)"/>
       <use xlink:href="#DejaVuSans-2d" transform="translate(254.492188 0)"/>
       <use xlink:href="#DejaVuSans-30" transform="translate(290.576172 0)"/>
       <use xlink:href="#DejaVuSans-31" transform="translate(354.199219 0)"/>
      </g>
     </g>
    </g>
    <g id="xtick_7">
     <g id="line2d_13">
      <path d="M 563.67358 320.4 
L 563.67358 43.2 
" clip-path="url(#pb0a516c2b2)" style="fill: none; stroke-dasharray: 5.12,1.28,0.8,1.28; stroke-dashoffset: 0; stroke: #b0b0b0; stroke-width: 0.8"/>
     </g>
     <g id="line2d_14">
      <g>
       <use xlink:href="#ma12da8b4d3" x="563.67358" y="320.4" style="fill: #a9a9a9; stroke: #a9a9a9; stroke-width: 0.8"/>
      </g>
     </g>
     <g id="text_7">
      <!-- 2024-07 -->
      <g style="fill: #a9a9a9" transform="translate(542.782173 334.998438) scale(0.1 -0.1)">
       <use xlink:href="#DejaVuSans-32"/>
       <use xlink:href="#DejaVuSans-30" transform="translate(63.623047 0)"/>
       <use xlink:href="#DejaVuSans-32" transform="translate(127.246094 0)"/>
       <use xlink:href="#DejaVuSans-34" transform="translate(190.869141 0)"/>
       <use xlink:href="#DejaVuSans-2d" transform="translate(254.492188 0)"/>
       <use xlink:href="#DejaVuSans-30" transform="translate(290.576172 0)"/>
       <use xlink:href="#DejaVuSans-37" transform="translate(354.199219 0)"/>
      </g>
     </g>
    </g>
    <g id="xtick_8">
     <g id="line2d_15">
      <path d="M 636.594034 320.4 
L 636.594034 43.2 
" clip-path="url(#pb0a516c2b2)" style="fill: none; stroke-dasharray: 5.12,1.28,0.8,1.28; stroke-dashoffset: 0; stroke: #b0b0b0; stroke-width: 0.8"/>
     </g>
     <g id="line2d_16">
      <g>
       <use xlink:href="#ma12da8b4d3" x="636.594034" y="320.4" style="fill: #a9a9a9; stroke: #a9a9a9; stroke-width: 0.8"/>
      </g>
     </g>
     <g id="text_8">
      <!-- 2025-01 -->
      <g style="fill: #a9a9a9" transform="translate(615.702628 334.998438) scale(0.1 -0.1)">
       <defs>
        <path id="DejaVuSans-35" d="M 691 4666 
L 3169 4666 
L 3169 4134 
L 1269 4134 
L 1269 2991 
Q 1406 3038 1543 3061 
Q 1681 3084 1819 3084 
Q 2600 3084 3056 2656 
Q 3513 2228 3513 1497 
Q 3513 744 3044 326 
Q 2575 -91 1722 -91 
Q 1428 -91 1123 -41 
Q 819 9 494 109 
L 494 744 
Q 775 591 1075 516 
Q 1375 441 1709 441 
Q 2250 441 2565 725 
Q 2881 1009 2881 1497 
Q 2881 1984 2565 2268 
Q 2250 2553 1709 2553 
Q 1456 2553 1204 2497 
Q 953 2441 691 2322 
L 691 4666 
z
" transform="scale(0.015625)"/>
       </defs>
       <use xlink:href="#DejaVuSans-32"/>
       <use xlink:href="#DejaVuSans-30" transform="translate(63.623047 0)"/>
       <use xlink:href="#DejaVuSans-32" transform="translate(127.246094 0)"/>
       <use xlink:href="#DejaVuSans-35" transform="translate(190.869141 0)"/>
       <use xlink:href="#DejaVuSans-2d" transform="translate(254.492188 0)"/>
       <use xlink:href="#DejaVuSans-30" transform="translate(290.576172 0)"/>
       <use xlink:href="#DejaVuSans-31" transform="translate(354.199219 0)"/>
      </g>
     </g>
    </g>
    <g id="xtick_9">
     <g id="line2d_17">
      <path d="M 708.325568 320.4 
L 708.325568 43.2 
" clip-path="url(#pb0a516c2b2)" style="fill: none; stroke-dasharray: 5.12,1.28,0.8,1.28; stroke-dashoffset: 0; stroke: #b0b0b0; stroke-width: 0.8"/>
     </g>
     <g id="line2d_18">
      <g>
       <use xlink:href="#ma12da8b4d3" x="708.325568" y="320.4" style="fill: #a9a9a9; stroke: #a9a9a9; stroke-width: 0.8"/>
      </g>
     </g>
     <g id="text_9">
      <!-- 2025-07 -->
      <g style="fill: #a9a9a9" transform="translate(687.434162 334.998438) scale(0.1 -0.1)">
       <use xlink:href="#DejaVuSans-32"/>
       <use xlink:href="#DejaVuSans-30" transform="translate(63.623047 0)"/>
       <use xlink:href="#DejaVuSans-32" transform="translate(127.246094 0)"/>
       <use xlink:href="#DejaVuSans-35" transform="translate(190.869141 0)"/>
       <use xlink:href="#DejaVuSans-2d" transform="translate(254.492188 0)"/>
       <use xlink:href="#DejaVuSans-30" transform="translate(290.576172 0)"/>
       <use xlink:href="#DejaVuSans-37" transform="translate(354.199219 0)"/>
      </g>
     </g>
    </g>
   </g>
   <g id="matplotlib.axis_2">
    <g id="ytick_1">
     <g id="line2d_19">
      <path d="M 108 307.830661 
L 777.6 307.830661 
" clip-path="url(#pb0a516c2b2)" style="fill: none; stroke-dasharray: 5.12,1.28,0.8,1.28; stroke-dashoffset: 0; stroke: #b0b0b0; stroke-width: 0.8"/>
     </g>
     <g id="line2d_20">
      <defs>
       <path id="m1aa219a62a" d="M 0 0 
L -3.5 0 
" style="stroke: #a9a9a9; stroke-width: 0.8"/>
      </defs>
      <g>
       <use xlink:href="#m1aa219a62a" x="108" y="307.830661" style="fill: #a9a9a9; stroke: #a9a9a9; stroke-width: 0.8"/>
      </g>
     </g>
     <g id="text_10">
      <!-- 0 -->
      <g style="fill: #a9a9a9" transform="translate(94.6375 311.629879) scale(0.1 -0.1)">
       <use xlink:href="#DejaVuSans-30"/>
      </g>
     </g>
    </g>
    <g id="ytick_2">
     <g id="line2d_21">
      <path d="M 108 277.169996 
L 777.6 277.169996 
" clip-path="url(#pb0a516c2b2)" style="fill: none; stroke-dasharray: 5.12,1.28,0.8,1.28; stroke-dashoffset: 0; stroke: #b0b0b0; stroke-width: 0.8"/>
     </g>
     <g id="line2d_22">
      <g>
       <use xlink:href="#m1aa219a62a" x="108" y="277.169996" style="fill: #a9a9a9; stroke: #a9a9a9; stroke-width: 0.8"/>
      </g>
     </g>
     <g id="text_11">
      <!-- 1000 -->
      <g style="fill: #a9a9a9" transform="translate(75.55 280.969215) scale(0.1 -0.1)">
       <use xlink:href="#DejaVuSans-31"/>
       <use xlink:href="#DejaVuSans-30" transform="translate(63.623047 0)"/>
       <use xlink:href="#DejaVuSans-30" transform="translate(127.246094 0)"/>
       <use xlink:href="#DejaVuSans-30" transform="translate(190.869141 0)"/>
      </g>
     </g>
    </g>
    <g id="ytick_3">
     <g id="line2d_23">
      <path d="M 108 246.509332 
L 777.6 246.509332 
" clip-path="url(#pb0a516c2b2)" style="fill: none; stroke-dasharray: 5.12,1.28,0.8,1.28; stroke-dashoffset: 0; stroke: #b0b0b0; stroke-width: 0.8"/>
     </g>
     <g id="line2d_24">
      <g>
       <use xlink:href="#m1aa219a62a" x="108" y="246.509332" style="fill: #a9a9a9; stroke: #a9a9a9; stroke-width: 0.8"/>
      </g>
     </g>
     <g id="text_12">
      <!-- 2000 -->
      <g style="fill: #a9a9a9" transform="translate(75.55 250.308551) scale(0.1 -0.1)">
       <use xlink:href="#DejaVuSans-32"/>
       <use xlink:href="#DejaVuSans-30" transform="translate(63.623047 0)"/>
       <use xlink:href="#DejaVuSans-30" transform="translate(127.246094 0)"/>
       <use xlink:href="#DejaVuSans-30" transform="translate(190.869141 0)"/>
      </g>
     </g>
    </g>
    <g id="ytick_4">
     <g id="line2d_25">
      <path d="M 108 215.848668 
L 777.6 215.848668 
" clip-path="url(#pb0a516c2b2)" style="fill: none; stroke-dasharray: 5.12,1.28,0.8,1.28; stroke-dashoffset: 0; stroke: #b0b0b0; stroke-width: 0.8"/>
     </g>
     <g id="line2d_26">
      <g>
       <use xlink:href="#m1aa219a62a" x="108" y="215.848668" style="fill: #a9a9a9; stroke: #a9a9a9; stroke-width: 0.8"/>
      </g>
     </g>
     <g id="text_13">
      <!-- 3000 -->
      <g style="fill: #a9a9a9" transform="translate(75.55 219.647886) scale(0.1 -0.1)">
       <use xlink:href="#DejaVuSans-33"/>
       <use xlink:href="#DejaVuSans-30" transform="translate(63.623047 0)"/>
       <use xlink:href="#DejaVuSans-30" transform="translate(127.246094 0)"/>
       <use xlink:href="#DejaVuSans-30" transform="translate(190.869141 0)"/>
      </g>
     </g>
    </g>
    <g id="ytick_5">
     <g id="line2d_27">
      <path d="M 108 185.188003 
L 777.6 185.188003 
" clip-path="url(#pb0a516c2b2)" style="fill: none; stroke-dasharray: 5.12,1.28,0.8,1.28; stroke-dashoffset: 0; stroke: #b0b0b0; stroke-width: 0.8"/>
     </g>
     <g id="line2d_28">
      <g>
       <use xlink:href="#m1aa219a62a" x="108" y="185.188003" style="fill: #a9a9a9; stroke: #a9a9a9; stroke-width: 0.8"/>
      </g>
     </g>
     <g id="text_14">
      <!-- 4000 -->
      <g style="fill: #a9a9a9" transform="translate(75.55 188.987222) scale(0.1 -0.1)">
       <use xlink:href="#DejaVuSans-34"/>
       <use xlink:href="#DejaVuSans-30" transform="translate(63.623047 0)"/>
       <use xlink:href="#DejaVuSans-30" transform="translate(127.246094 0)"/>
       <use xlink:href="#DejaVuSans-30" transform="translate(190.869141 0)"/>
      </g>
     </g>
    </g>
    <g id="ytick_6">
     <g id="line2d_29">
      <path d="M 108 154.527339 
L 777.6 154.527339 
" clip-path="url(#pb0a516c2b2)" style="fill: none; stroke-dasharray: 5.12,1.28,0.8,1.28; stroke-dashoffset: 0; stroke: #b0b0b0; stroke-width: 0.8"/>
     </g>
     <g id="line2d_30">
      <g>
       <use xlink:href="#m1aa219a62a" x="108" y="154.527339" style="fill: #a9a9a9; stroke: #a9a9a9; stroke-width: 0.8"/>
      </g>
     </g>
     <g id="text_15">
      <!-- 5000 -->
      <g style="fill: #a9a9a9" transform="translate(75.55 158.326558) scale(0.1 -0.1)">
       <use xlink:href="#DejaVuSans-35"/>
       <use xlink:href="#DejaVuSans-30" transform="translate(63.623047 0)"/>
       <use xlink:href="#DejaVuSans-30" transform="translate(127.246094 0)"/>
       <use xlink:href="#DejaVuSans-30" transform="translate(190.869141 0)"/>
      </g>
     </g>
    </g>
    <g id="ytick_7">
     <g id="line2d_31">
      <path d="M 108 123.866675 
L 777.6 123.866675 
" clip-path="url(#pb0a516c2b2)" style="fill: none; stroke-dasharray: 5.12,1.28,0.8,1.28; stroke-dashoffset: 0; stroke: #b0b0b0; stroke-width: 0.8"/>
     </g>
     <g id="line2d_32">
      <g>
       <use xlink:href="#m1aa219a62a" x="108" y="123.866675" style="fill: #a9a9a9; stroke: #a9a9a9; stroke-width: 0.8"/>
      </g>
     </g>
     <g id="text_16">
      <!-- 6000 -->
      <g style="fill: #a9a9a9" transform="translate(75.55 127.665894) scale(0.1 -0.1)">
       <defs>
        <path id="DejaVuSans-36" d="M 2113 2584 
Q 1688 2584 1439 2293 
Q 1191 2003 1191 1497 
Q 1191 994 1439 701 
Q 1688 409 2113 409 
Q 2538 409 2786 701 
Q 3034 994 3034 1497 
Q 3034 2003 2786 2293 
Q 2538 2584 2113 2584 
z
M 3366 4563 
L 3366 3988 
Q 3128 4100 2886 4159 
Q 2644 4219 2406 4219 
Q 1781 4219 1451 3797 
Q 1122 3375 1075 2522 
Q 1259 2794 1537 2939 
Q 1816 3084 2150 3084 
Q 2853 3084 3261 2657 
Q 3669 2231 3669 1497 
Q 3669 778 3244 343 
Q 2819 -91 2113 -91 
Q 1303 -91 875 529 
Q 447 1150 447 2328 
Q 447 3434 972 4092 
Q 1497 4750 2381 4750 
Q 2619 4750 2861 4703 
Q 3103 4656 3366 4563 
z
" transform="scale(0.015625)"/>
       </defs>
       <use xlink:href="#DejaVuSans-36"/>
       <use xlink:href="#DejaVuSans-30" transform="translate(63.623047 0)"/>
       <use xlink:href="#DejaVuSans-30" transform="translate(127.246094 0)"/>
       <use xlink:href="#DejaVuSans-30" transform="translate(190.869141 0)"/>
      </g>
     </g>
    </g>
    <g id="ytick_8">
     <g id="line2d_33">
      <path d="M 108 93.20601 
L 777.6 93.20601 
" clip-path="url(#pb0a516c2b2)" style="fill: none; stroke-dasharray: 5.12,1.28,0.8,1.28; stroke-dashoffset: 0; stroke: #b0b0b0; stroke-width: 0.8"/>
     </g>
     <g id="line2d_34">
      <g>
       <use xlink:href="#m1aa219a62a" x="108" y="93.20601" style="fill: #a9a9a9; stroke: #a9a9a9; stroke-width: 0.8"/>
      </g>
     </g>
     <g id="text_17">
      <!-- 7000 -->
      <g style="fill: #a9a9a9" transform="translate(75.55 97.005229) scale(0.1 -0.1)">
       <use xlink:href="#DejaVuSans-37"/>
       <use xlink:href="#DejaVuSans-30" transform="translate(63.623047 0)"/>
       <use xlink:href="#DejaVuSans-30" transform="translate(127.246094 0)"/>
       <use xlink:href="#DejaVuSans-30" transform="translate(190.869141 0)"/>
      </g>
     </g>
    </g>
    <g id="ytick_9">
     <g id="line2d_35">
      <path d="M 108 62.545346 
L 777.6 62.545346 
" clip-path="url(#pb0a516c2b2)" style="fill: none; stroke-dasharray: 5.12,1.28,0.8,1.28; stroke-dashoffset: 0; stroke: #b0b0b0; stroke-width: 0.8"/>
     </g>
     <g id="line2d_36">
      <g>
       <use xlink:href="#m1aa219a62a" x="108" y="62.545346" style="fill: #a9a9a9; stroke: #a9a9a9; stroke-width: 0.8"/>
      </g>
     </g>
     <g id="text_18">
      <!-- 8000 -->
      <g style="fill: #a9a9a9" transform="translate(75.55 66.344565) scale(0.1 -0.1)">
       <defs>
        <path id="DejaVuSans-38" d="M 2034 2216 
Q 1584 2216 1326 1975 
Q 1069 1734 1069 1313 
Q 1069 891 1326 650 
Q 1584 409 2034 409 
Q 2484 409 2743 651 
Q 3003 894 3003 1313 
Q 3003 1734 2745 1975 
Q 2488 2216 2034 2216 
z
M 1403 2484 
Q 997 2584 770 2862 
Q 544 3141 544 3541 
Q 544 4100 942 4425 
Q 1341 4750 2034 4750 
Q 2731 4750 3128 4425 
Q 3525 4100 3525 3541 
Q 3525 3141 3298 2862 
Q 3072 2584 2669 2484 
Q 3125 2378 3379 2068 
Q 3634 1759 3634 1313 
Q 3634 634 3220 271 
Q 2806 -91 2034 -91 
Q 1263 -91 848 271 
Q 434 634 434 1313 
Q 434 1759 690 2068 
Q 947 2378 1403 2484 
z
M 1172 3481 
Q 1172 3119 1398 2916 
Q 1625 2713 2034 2713 
Q 2441 2713 2670 2916 
Q 2900 3119 2900 3481 
Q 2900 3844 2670 4047 
Q 2441 4250 2034 4250 
Q 1625 4250 1398 4047 
Q 1172 3844 1172 3481 
z
" transform="scale(0.015625)"/>
       </defs>
       <use xlink:href="#DejaVuSans-38"/>
       <use xlink:href="#DejaVuSans-30" transform="translate(63.623047 0)"/>
       <use xlink:href="#DejaVuSans-30" transform="translate(127.246094 0)"/>
       <use xlink:href="#DejaVuSans-30" transform="translate(190.869141 0)"/>
      </g>
     </g>
    </g>
   </g>
   <g id="line2d_37">
    <path d="M 138.436364 307.738679 
L 140.814205 307.524054 
L 141.210511 307.34009 
L 142.795739 307.125465 
L 144.380966 306.788198 
L 145.17358 306.665555 
L 147.155114 306.481591 
L 147.947727 306.174985 
L 148.344034 305.623093 
L 148.740341 305.347147 
L 149.136648 304.427327 
L 149.532955 304.366006 
L 150.325568 303.875435 
L 151.118182 303.292882 
L 152.703409 302.127777 
L 153.099716 301.974474 
L 153.89233 301.483903 
L 155.08125 300.901351 
L 155.477557 300.226816 
L 156.27017 299.613603 
L 156.666477 299.429639 
L 160.629545 298.816425 
L 161.025852 298.632461 
L 163.8 298.387176 
L 165.385227 297.988587 
L 168.555682 297.528677 
L 168.951989 297.314053 
L 169.348295 297.252731 
L 170.140909 296.976785 
L 172.915057 296.486215 
L 173.70767 296.24093 
L 177.274432 295.627716 
L 178.067045 295.443752 
L 179.652273 295.229128 
L 180.444886 294.983842 
L 180.841193 294.40129 
L 182.030114 293.910719 
L 183.219034 293.573452 
L 183.615341 293.358827 
L 184.407955 293.205524 
L 185.993182 292.714953 
L 186.785795 292.653632 
L 187.578409 292.439007 
L 189.163636 292.009758 
L 189.559943 291.979097 
L 190.352557 291.580509 
L 190.748864 291.519187 
L 191.14517 291.304563 
L 195.504545 290.538046 
L 197.089773 290.047475 
L 197.48608 289.771529 
L 199.467614 289.096995 
L 200.260227 288.514442 
L 201.449148 288.269157 
L 206.601136 286.736124 
L 206.997443 286.674802 
L 208.58267 286.030928 
L 208.978977 285.969607 
L 209.771591 285.63234 
L 210.564205 285.601679 
L 211.753125 285.233751 
L 212.149432 285.233751 
L 212.545739 285.049787 
L 213.338352 284.957805 
L 213.734659 284.804502 
L 215.319886 284.74318 
L 216.1125 284.589877 
L 216.905114 284.160628 
L 218.094034 283.731379 
L 218.886648 283.302129 
L 220.075568 282.780898 
L 221.660795 281.95306 
L 222.057102 281.49315 
L 222.849716 280.205402 
L 223.246023 280.082759 
L 223.64233 280.082759 
L 225.227557 279.1936 
L 225.623864 279.101618 
L 226.02017 278.70303 
L 226.812784 278.365762 
L 227.605398 277.997834 
L 228.001705 277.507264 
L 228.398011 276.832729 
L 228.794318 276.556783 
L 229.190625 275.820927 
L 229.586932 275.361017 
L 231.964773 274.011948 
L 233.55 272.540236 
L 233.946307 271.589755 
L 234.342614 270.976542 
L 234.73892 270.639275 
L 235.135227 270.455311 
L 236.720455 269.075581 
L 237.909375 268.033118 
L 238.701989 267.021316 
L 239.890909 266.132157 
L 241.476136 265.120355 
L 241.872443 264.967052 
L 243.45767 263.985911 
L 243.853977 263.801947 
L 245.835511 261.900986 
L 246.628125 261.563718 
L 247.420739 260.981166 
L 247.817045 260.73588 
L 248.213352 260.674559 
L 249.402273 259.969364 
L 249.79858 259.509454 
L 251.780114 258.375009 
L 252.17642 258.221706 
L 253.365341 257.363207 
L 259.309943 255.155639 
L 260.102557 254.389123 
L 261.291477 253.775909 
L 262.084091 253.254678 
L 262.876705 253.009393 
L 263.273011 252.733447 
L 263.669318 252.610804 
L 264.858239 251.782966 
L 266.839773 251.323056 
L 268.028693 250.5872 
L 269.217614 250.311254 
L 269.61392 250.219272 
L 270.802841 249.299452 
L 272.388068 248.839543 
L 272.784375 248.502275 
L 275.162216 247.643777 
L 275.95483 247.490473 
L 276.747443 247.153206 
L 279.521591 246.080083 
L 280.314205 245.988101 
L 281.503125 245.558851 
L 283.484659 244.54705 
L 285.8625 243.16732 
L 286.655114 242.952695 
L 287.844034 242.339482 
L 288.636648 242.186178 
L 289.429261 241.695608 
L 290.221875 241.480983 
L 291.410795 240.990412 
L 292.996023 240.775788 
L 293.788636 240.346539 
L 294.184943 239.978611 
L 294.58125 239.242755 
L 296.166477 238.782845 
L 297.751705 238.046989 
L 300.129545 236.881883 
L 300.922159 236.483295 
L 302.11108 236.238009 
L 303.3 235.624796 
L 303.696307 235.563475 
L 305.677841 234.551673 
L 306.470455 234.030442 
L 307.659375 233.785156 
L 309.640909 233.263925 
L 310.037216 232.926658 
L 310.82983 232.650712 
L 312.811364 231.822874 
L 313.20767 231.516267 
L 313.603977 231.362964 
L 314.396591 230.903054 
L 315.981818 230.381823 
L 316.774432 229.860591 
L 317.170739 229.431342 
L 317.567045 229.186057 
L 317.963352 229.094075 
L 318.755966 228.41954 
L 319.152273 228.358219 
L 319.54858 227.683684 
L 319.944886 227.49972 
L 320.341193 227.162453 
L 320.7375 227.101132 
L 321.530114 226.5799 
L 322.322727 226.303954 
L 322.719034 225.997348 
L 323.115341 225.844044 
L 325.096875 224.556296 
L 326.285795 224.096386 
L 327.078409 223.728458 
L 327.474716 223.483173 
L 327.871023 222.777978 
L 328.663636 222.164765 
L 329.059943 222.072783 
L 331.437784 220.877017 
L 332.230398 220.539749 
L 333.023011 219.957197 
L 334.211932 218.822752 
L 335.004545 218.332182 
L 335.400852 217.872272 
L 336.98608 216.737827 
L 337.778693 215.909989 
L 338.571307 215.634043 
L 339.36392 215.082151 
L 340.552841 214.438277 
L 340.949148 214.376956 
L 344.515909 212.506655 
L 345.308523 212.292031 
L 346.89375 211.709478 
L 347.290057 211.372211 
L 348.875284 210.728337 
L 349.271591 210.605694 
L 350.064205 210.084463 
L 350.856818 209.747196 
L 351.649432 209.164643 
L 352.442045 207.539628 
L 353.234659 206.619808 
L 354.42358 205.975934 
L 355.216193 205.638667 
L 355.6125 205.577345 
L 356.405114 205.209417 
L 357.990341 204.657525 
L 358.782955 204.197615 
L 359.575568 203.799027 
L 359.971875 203.676384 
L 362.349716 202.204672 
L 362.746023 201.744762 
L 363.934943 201.039567 
L 364.33125 200.886264 
L 365.123864 200.395693 
L 366.709091 199.506534 
L 367.105398 199.414552 
L 367.501705 199.077284 
L 370.275852 198.126804 
L 370.672159 197.850858 
L 371.464773 197.605572 
L 372.257386 197.268305 
L 372.653693 196.931038 
L 374.23892 196.348485 
L 375.031534 195.765933 
L 375.824148 195.428665 
L 376.616761 194.784791 
L 377.409375 194.570167 
L 377.805682 194.202239 
L 378.201989 194.140917 
L 378.994602 193.527704 
L 380.976136 192.331938 
L 381.76875 192.086653 
L 382.165057 191.841368 
L 382.561364 191.780046 
L 384.146591 191.01353 
L 385.335511 190.614941 
L 386.128125 190.492298 
L 386.524432 190.308334 
L 386.920739 190.247013 
L 387.713352 189.879085 
L 388.109659 189.848424 
L 389.694886 189.235211 
L 390.883807 188.376712 
L 391.280114 188.223409 
L 392.072727 187.763499 
L 392.469034 187.640857 
L 394.846875 186.261127 
L 395.243182 186.169145 
L 396.432102 185.433289 
L 397.621023 185.004039 
L 398.413636 184.728093 
L 399.998864 184.176201 
L 400.791477 183.900256 
L 402.376705 183.562988 
L 402.773011 183.379024 
L 403.565625 183.1644 
L 403.961932 182.980436 
L 404.358239 182.919114 
L 404.754545 182.70449 
L 405.547159 182.551186 
L 406.73608 182.121937 
L 407.925 181.937973 
L 410.302841 181.478063 
L 411.491761 181.202117 
L 411.888068 181.018153 
L 412.680682 180.86485 
L 413.473295 180.650225 
L 414.265909 180.282297 
L 414.662216 180.128994 
L 415.058523 180.128994 
L 419.417898 178.749264 
L 419.814205 178.534639 
L 420.210511 178.534639 
L 421.003125 178.228033 
L 421.399432 177.798783 
L 423.777273 176.786981 
L 425.3625 176.235089 
L 425.758807 175.989804 
L 426.947727 175.621876 
L 427.740341 175.407251 
L 428.136648 175.131306 
L 428.532955 175.039324 
L 428.929261 174.671396 
L 430.118182 174.42611 
L 430.910795 174.058182 
L 431.307102 173.567612 
L 435.666477 172.58647 
L 436.062784 172.58647 
L 436.459091 172.402506 
L 438.044318 172.0959 
L 438.440625 171.911936 
L 440.025852 171.605329 
L 440.818466 171.268062 
L 441.61108 171.114758 
L 443.592614 170.593527 
L 444.781534 170.225599 
L 446.763068 169.581725 
L 447.555682 169.244458 
L 448.348295 168.937851 
L 448.744602 168.661905 
L 449.537216 168.41662 
L 452.311364 167.343497 
L 453.896591 167.159533 
L 457.067045 165.963767 
L 457.463352 165.65716 
L 457.859659 165.565178 
L 458.255966 165.350554 
L 458.652273 165.319893 
L 463.011648 163.694878 
L 464.993182 163.142986 
L 465.785795 162.744397 
L 466.974716 162.468451 
L 468.559943 161.119382 
L 470.14517 160.414187 
L 471.730398 159.739652 
L 472.126705 159.64767 
L 472.523011 159.371724 
L 473.315625 159.126439 
L 473.711932 158.850493 
L 475.693466 158.175958 
L 479.656534 156.121694 
L 480.449148 155.753766 
L 480.845455 155.447159 
L 481.638068 155.171213 
L 484.015909 154.006108 
L 484.412216 153.914126 
L 485.601136 153.362234 
L 487.186364 152.810342 
L 487.978977 152.473075 
L 488.771591 152.350432 
L 489.167898 152.074486 
L 490.753125 151.767879 
L 491.545739 151.430612 
L 493.92358 150.265507 
L 494.319886 150.204185 
L 495.508807 149.49899 
L 496.697727 149.069741 
L 499.471875 147.873975 
L 499.868182 147.751332 
L 500.264489 147.475386 
L 501.057102 147.383404 
L 501.453409 147.107458 
L 502.246023 146.984816 
L 503.038636 146.586227 
L 503.434943 146.402263 
L 504.227557 146.187638 
L 505.02017 145.942353 
L 506.209091 145.482443 
L 507.398011 145.083854 
L 508.586932 144.807909 
L 510.172159 144.133374 
L 510.964773 143.704125 
L 512.55 142.876287 
L 513.342614 142.692323 
L 513.73892 142.447037 
L 514.135227 142.355055 
L 516.116761 141.373914 
L 519.287216 140.23947 
L 519.683523 140.116827 
L 520.476136 139.687578 
L 522.45767 138.982382 
L 524.835511 138.001241 
L 526.420739 137.234724 
L 530.383807 135.64037 
L 531.17642 135.241781 
L 531.572727 135.149799 
L 532.365341 134.843193 
L 532.761648 134.843193 
L 533.554261 134.475265 
L 535.139489 133.126195 
L 535.535795 133.003553 
L 535.932102 132.758267 
L 537.121023 132.421 
L 537.51733 132.114393 
L 537.913636 132.022411 
L 539.102557 131.286556 
L 539.498864 131.01061 
L 540.291477 130.795985 
L 541.084091 130.366736 
L 542.273011 130.09079 
L 544.254545 129.385594 
L 545.047159 129.140309 
L 546.23608 128.496435 
L 547.028693 128.097846 
L 547.821307 127.883222 
L 549.406534 127.147366 
L 549.802841 127.024723 
L 550.595455 126.656795 
L 552.576989 126.012921 
L 553.765909 125.246405 
L 554.162216 125.154423 
L 554.95483 124.755834 
L 555.747443 124.449227 
L 556.14375 124.081299 
L 557.33267 123.621389 
L 557.728977 123.560068 
L 559.314205 122.824212 
L 560.503125 122.456284 
L 560.899432 122.27232 
L 561.295739 122.210999 
L 562.088352 121.873732 
L 563.277273 121.628446 
L 564.069886 121.168536 
L 564.466193 121.015233 
L 564.8625 120.708626 
L 566.05142 120.40202 
L 566.844034 120.095413 
L 567.636648 119.758146 
L 569.221875 119.114272 
L 571.996023 118.378416 
L 572.788636 118.071809 
L 574.373864 117.765203 
L 575.166477 117.611899 
L 576.355398 117.151989 
L 577.544318 116.906704 
L 579.922159 115.496313 
L 581.11108 114.760457 
L 583.48892 114.024602 
L 583.885227 113.717995 
L 587.451989 112.430247 
L 588.244602 112.154301 
L 589.433523 111.63307 
L 593.000284 110.192018 
L 593.792898 109.885412 
L 595.378125 109.241538 
L 595.774432 108.87361 
L 596.170739 108.812289 
L 597.755966 108.168415 
L 599.341193 107.769826 
L 599.7375 107.708505 
L 600.133807 107.524541 
L 600.530114 107.49388 
L 601.322727 107.217934 
L 601.719034 107.187273 
L 602.907955 106.727363 
L 604.493182 106.267453 
L 605.285795 105.65424 
L 606.871023 104.765081 
L 607.26733 104.673099 
L 608.059943 104.366492 
L 611.230398 102.802798 
L 611.626705 102.588174 
L 612.023011 102.220246 
L 614.004545 101.729675 
L 615.193466 101.177783 
L 615.98608 100.963159 
L 616.382386 100.779195 
L 616.778693 100.441927 
L 618.760227 99.736732 
L 623.912216 97.835771 
L 624.70483 97.682467 
L 626.686364 97.038594 
L 627.875284 96.517362 
L 630.649432 95.689524 
L 631.442045 95.229614 
L 634.216193 94.279134 
L 635.80142 93.757902 
L 636.990341 93.481956 
L 638.179261 93.114028 
L 638.575568 93.022046 
L 638.971875 92.7461 
L 639.764489 92.562137 
L 641.349716 92.102227 
L 641.746023 92.071566 
L 642.538636 91.703638 
L 645.312784 90.998443 
L 646.898011 90.41589 
L 647.294318 90.41589 
L 648.483239 90.139944 
L 649.275852 89.986641 
L 650.068466 89.772016 
L 651.257386 89.128142 
L 652.446307 88.760214 
L 655.220455 87.809734 
L 656.805682 87.012556 
L 657.994602 86.73661 
L 658.787216 86.491325 
L 659.57983 86.092736 
L 659.976136 85.755469 
L 660.76875 85.510184 
L 661.165057 85.264898 
L 661.95767 85.172916 
L 664.731818 84.375739 
L 665.920739 84.130454 
L 667.109659 83.823847 
L 667.902273 83.639883 
L 669.091193 83.02667 
L 674.243182 81.033727 
L 675.035795 80.911084 
L 675.828409 80.757781 
L 676.224716 80.757781 
L 677.413636 80.389853 
L 678.602557 80.021925 
L 682.169318 79.010123 
L 682.961932 78.795498 
L 683.358239 78.703516 
L 683.754545 78.458231 
L 684.547159 78.304928 
L 685.339773 78.212946 
L 685.73608 77.998321 
L 686.132386 77.96766 
L 686.925 77.446429 
L 688.510227 77.109162 
L 689.302841 76.771894 
L 690.095455 76.495948 
L 690.888068 76.281324 
L 691.680682 75.944056 
L 692.076989 75.882735 
L 692.869602 75.606789 
L 694.058523 75.269522 
L 694.851136 75.208201 
L 695.64375 74.932255 
L 696.040057 74.778951 
L 696.83267 74.656309 
L 698.417898 73.951113 
L 698.814205 73.889792 
L 699.606818 73.583185 
L 701.984659 73.184597 
L 702.777273 72.939311 
L 703.17358 72.87799 
L 703.966193 72.540723 
L 704.3625 72.479401 
L 704.758807 72.264777 
L 705.55142 71.590242 
L 709.514489 70.149191 
L 711.89233 69.505317 
L 712.288636 69.19871 
L 713.873864 68.493515 
L 715.459091 67.81898 
L 716.251705 67.573695 
L 717.440625 67.113785 
L 718.629545 66.561893 
L 721.403693 65.182163 
L 722.196307 64.875557 
L 724.177841 64.170361 
L 724.574148 63.833094 
L 724.970455 63.741112 
L 725.763068 63.250541 
L 726.951989 62.882613 
L 727.744602 62.576007 
L 728.537216 62.208079 
L 728.933523 62.177418 
L 730.915057 61.441562 
L 731.70767 61.288259 
L 732.500284 60.705706 
L 732.896591 60.705706 
L 734.481818 60.123154 
L 736.067045 59.785886 
L 737.652273 59.111352 
L 738.04858 59.111352 
L 739.2375 58.712763 
L 740.030114 58.59012 
L 740.822727 58.283514 
L 741.615341 57.670301 
L 743.200568 57.118409 
L 743.993182 56.873123 
L 744.785795 56.535856 
L 746.371023 56.014625 
L 747.163636 55.8 
L 747.163636 55.8 
" clip-path="url(#pb0a516c2b2)" style="fill: none; stroke: #1f77b4; stroke-width: 1.5; stroke-linecap: square"/>
   </g>
   <g id="line2d_38">
    <path d="M 138.83267 307.8 
L 142.399432 307.708018 
L 145.569886 307.554715 
L 147.155114 307.554715 
L 147.55142 307.432072 
L 149.532955 307.34009 
L 151.910795 307.064144 
L 154.288636 306.972162 
L 155.08125 306.88018 
L 157.855398 306.757537 
L 160.629545 306.665555 
L 162.61108 306.604234 
L 167.763068 306.512252 
L 169.744602 306.450931 
L 173.311364 306.358949 
L 174.896591 306.328288 
L 178.859659 306.236306 
L 180.444886 306.083003 
L 182.030114 306.052342 
L 184.407955 305.96036 
L 185.993182 305.929699 
L 187.974716 305.868378 
L 189.559943 305.715075 
L 193.126705 305.623093 
L 193.919318 305.561772 
L 195.504545 305.46979 
L 197.882386 305.377808 
L 199.467614 305.285826 
L 206.601136 304.825916 
L 209.375284 304.733934 
L 210.564205 304.611291 
L 212.545739 304.519309 
L 216.508807 304.304684 
L 220.471875 304.243363 
L 222.057102 304.059399 
L 224.038636 303.967417 
L 228.001705 303.568828 
L 230.379545 303.262222 
L 231.964773 303.2009 
L 235.135227 302.771651 
L 237.513068 302.71033 
L 238.701989 302.587687 
L 239.890909 302.495705 
L 250.9875 301.606546 
L 251.780114 301.453242 
L 254.157955 301.36126 
L 260.498864 300.962672 
L 263.273011 300.87069 
L 264.858239 300.686726 
L 266.839773 300.594744 
L 269.217614 300.502762 
L 271.199148 300.41078 
L 272.784375 300.380119 
L 274.765909 300.318798 
L 275.558523 300.196155 
L 281.106818 300.104173 
L 281.899432 300.012191 
L 286.655114 299.920209 
L 290.221875 299.736245 
L 292.996023 299.644263 
L 294.58125 299.460299 
L 297.355398 299.368317 
L 298.148011 299.245675 
L 300.129545 299.184353 
L 304.092614 299.123032 
L 305.677841 298.969729 
L 307.263068 298.939068 
L 308.451989 298.847086 
L 310.037216 298.693783 
L 314.000284 298.479158 
L 317.963352 298.387176 
L 321.530114 298.203212 
L 322.719034 298.172551 
L 323.511648 298.049909 
L 325.493182 297.957927 
L 326.285795 297.896605 
L 327.078409 297.835284 
L 327.871023 297.773963 
L 331.834091 297.681981 
L 340.552841 297.099428 
L 341.345455 297.038107 
L 342.534375 296.946125 
L 345.308523 296.854143 
L 347.290057 296.792822 
L 352.838352 296.70084 
L 353.630966 296.608858 
L 359.179261 296.516876 
L 363.14233 296.302251 
L 363.934943 296.27159 
L 364.727557 296.179608 
L 366.709091 296.087626 
L 368.690625 296.026305 
L 370.672159 295.934323 
L 372.653693 295.873002 
L 376.220455 295.78102 
L 378.598295 295.689038 
L 384.146591 295.597056 
L 388.505966 295.35177 
L 390.091193 295.290449 
L 391.280114 295.198467 
L 396.828409 295.106485 
L 399.20625 295.014503 
L 406.339773 294.922521 
L 407.925 294.89186 
L 412.680682 294.830539 
L 413.473295 294.769218 
L 419.021591 294.677236 
L 420.606818 294.646575 
L 430.910795 294.554593 
L 433.288636 294.462611 
L 449.933523 294.370629 
L 451.915057 294.309308 
L 462.219034 294.247986 
L 463.011648 294.186665 
L 464.993182 294.125344 
L 466.182102 294.002701 
L 468.559943 293.910719 
L 471.334091 293.788076 
L 474.900852 293.696094 
L 476.882386 293.634773 
L 479.656534 293.542791 
L 482.826989 293.389488 
L 484.808523 293.297506 
L 486.39375 293.266845 
L 493.130966 293.174863 
L 495.508807 293.082881 
L 499.868182 292.990899 
L 502.64233 292.868256 
L 505.416477 292.806935 
L 506.209091 292.745614 
L 515.720455 292.653632 
L 519.683523 292.439007 
L 522.45767 292.347025 
L 526.817045 292.10174 
L 529.591193 292.009758 
L 531.17642 291.979097 
L 533.950568 291.887115 
L 535.932102 291.672491 
L 539.89517 291.580509 
L 540.687784 291.488527 
L 544.650852 291.396545 
L 546.632386 291.335223 
L 550.991761 291.304563 
L 551.784375 291.212581 
L 556.14375 291.120599 
L 556.936364 291.059277 
L 565.655114 290.967295 
L 568.032955 290.875313 
L 573.977557 290.783331 
L 575.562784 290.752671 
L 579.129545 290.691349 
L 579.922159 290.599367 
L 585.074148 290.507385 
L 587.055682 290.446064 
L 594.189205 290.354082 
L 595.378125 290.2621 
L 596.567045 290.170118 
L 597.755966 290.078136 
L 603.700568 289.986154 
L 606.078409 289.894172 
L 616.778693 289.80219 
L 620.345455 289.618226 
L 625.101136 289.556905 
L 625.89375 289.495583 
L 631.838352 289.434262 
L 632.630966 289.372941 
L 636.990341 289.280959 
L 638.575568 289.250298 
L 645.312784 289.158316 
L 646.105398 289.096995 
L 653.23892 289.005013 
L 654.824148 288.974352 
L 658.787216 288.88237 
L 661.561364 288.759727 
L 665.920739 288.667745 
L 668.694886 288.545103 
L 672.261648 288.453121 
L 673.054261 288.391799 
L 681.773011 288.299817 
L 684.150852 288.207836 
L 686.925 288.115854 
L 688.906534 288.054532 
L 700.399432 287.96255 
L 702.777273 287.870568 
L 709.118182 287.778586 
L 711.496023 287.686604 
L 716.648011 287.594622 
L 719.025852 287.50264 
L 722.196307 287.410658 
L 724.574148 287.318676 
L 740.42642 287.226694 
L 743.596875 287.073391 
L 747.163636 287.073391 
L 747.163636 287.073391 
" clip-path="url(#pb0a516c2b2)" style="fill: none; stroke: #ff7f0e; stroke-width: 1.5; stroke-linecap: square"/>
   </g>
   <g id="patch_3">
    <path d="M 108 320.4 
L 108 43.2 
" style="fill: none; stroke: #a9a9a9; stroke-width: 0.8; stroke-linejoin: miter; stroke-linecap: square"/>
   </g>
   <g id="patch_4">
    <path d="M 777.6 320.4 
L 777.6 43.2 
" style="fill: none"/>
   </g>
   <g id="patch_5">
    <path d="M 108 320.4 
L 777.6 320.4 
" style="fill: none; stroke: #a9a9a9; stroke-width: 0.8; stroke-linejoin: miter; stroke-linecap: square"/>
   </g>
   <g id="patch_6">
    <path d="M 108 43.2 
L 777.6 43.2 
" style="fill: none"/>
   </g>
   <g id="text_19">
    <!-- get_subscribe history -->
    <g style="fill: #a9a9a9" transform="translate(378.6075 37.2) scale(0.12 -0.12)">
     <defs>
      <path id="DejaVuSans-67" d="M 2906 1791 
Q 2906 2416 2648 2759 
Q 2391 3103 1925 3103 
Q 1463 3103 1205 2759 
Q 947 2416 947 1791 
Q 947 1169 1205 825 
Q 1463 481 1925 481 
Q 2391 481 2648 825 
Q 2906 1169 2906 1791 
z
M 3481 434 
Q 3481 -459 3084 -895 
Q 2688 -1331 1869 -1331 
Q 1566 -1331 1297 -1286 
Q 1028 -1241 775 -1147 
L 775 -588 
Q 1028 -725 1275 -790 
Q 1522 -856 1778 -856 
Q 2344 -856 2625 -561 
Q 2906 -266 2906 331 
L 2906 616 
Q 2728 306 2450 153 
Q 2172 0 1784 0 
Q 1141 0 747 490 
Q 353 981 353 1791 
Q 353 2603 747 3093 
Q 1141 3584 1784 3584 
Q 2172 3584 2450 3431 
Q 2728 3278 2906 2969 
L 2906 3500 
L 3481 3500 
L 3481 434 
z
" transform="scale(0.015625)"/>
      <path id="DejaVuSans-65" d="M 3597 1894 
L 3597 1613 
L 953 1613 
Q 991 1019 1311 708 
Q 1631 397 2203 397 
Q 2534 397 2845 478 
Q 3156 559 3463 722 
L 3463 178 
Q 3153 47 2828 -22 
Q 2503 -91 2169 -91 
Q 1331 -91 842 396 
Q 353 884 353 1716 
Q 353 2575 817 3079 
Q 1281 3584 2069 3584 
Q 2775 3584 3186 3129 
Q 3597 2675 3597 1894 
z
M 3022 2063 
Q 3016 2534 2758 2815 
Q 2500 3097 2075 3097 
Q 1594 3097 1305 2825 
Q 1016 2553 972 2059 
L 3022 2063 
z
" transform="scale(0.015625)"/>
      <path id="DejaVuSans-74" d="M 1172 4494 
L 1172 3500 
L 2356 3500 
L 2356 3053 
L 1172 3053 
L 1172 1153 
Q 1172 725 1289 603 
Q 1406 481 1766 481 
L 2356 481 
L 2356 0 
L 1766 0 
Q 1100 0 847 248 
Q 594 497 594 1153 
L 594 3053 
L 172 3053 
L 172 3500 
L 594 3500 
L 594 4494 
L 1172 4494 
z
" transform="scale(0.015625)"/>
      <path id="DejaVuSans-5f" d="M 3263 -1063 
L 3263 -1509 
L -63 -1509 
L -63 -1063 
L 3263 -1063 
z
" transform="scale(0.015625)"/>
      <path id="DejaVuSans-73" d="M 2834 3397 
L 2834 2853 
Q 2591 2978 2328 3040 
Q 2066 3103 1784 3103 
Q 1356 3103 1142 2972 
Q 928 2841 928 2578 
Q 928 2378 1081 2264 
Q 1234 2150 1697 2047 
L 1894 2003 
Q 2506 1872 2764 1633 
Q 3022 1394 3022 966 
Q 3022 478 2636 193 
Q 2250 -91 1575 -91 
Q 1294 -91 989 -36 
Q 684 19 347 128 
L 347 722 
Q 666 556 975 473 
Q 1284 391 1588 391 
Q 1994 391 2212 530 
Q 2431 669 2431 922 
Q 2431 1156 2273 1281 
Q 2116 1406 1581 1522 
L 1381 1569 
Q 847 1681 609 1914 
Q 372 2147 372 2553 
Q 372 3047 722 3315 
Q 1072 3584 1716 3584 
Q 2034 3584 2315 3537 
Q 2597 3491 2834 3397 
z
" transform="scale(0.015625)"/>
      <path id="DejaVuSans-75" d="M 544 1381 
L 544 3500 
L 1119 3500 
L 1119 1403 
Q 1119 906 1312 657 
Q 1506 409 1894 409 
Q 2359 409 2629 706 
Q 2900 1003 2900 1516 
L 2900 3500 
L 3475 3500 
L 3475 0 
L 2900 0 
L 2900 538 
Q 2691 219 2414 64 
Q 2138 -91 1772 -91 
Q 1169 -91 856 284 
Q 544 659 544 1381 
z
M 1991 3584 
L 1991 3584 
z
" transform="scale(0.015625)"/>
      <path id="DejaVuSans-62" d="M 3116 1747 
Q 3116 2381 2855 2742 
Q 2594 3103 2138 3103 
Q 1681 3103 1420 2742 
Q 1159 2381 1159 1747 
Q 1159 1113 1420 752 
Q 1681 391 2138 391 
Q 2594 391 2855 752 
Q 3116 1113 3116 1747 
z
M 1159 2969 
Q 1341 3281 1617 3432 
Q 1894 3584 2278 3584 
Q 2916 3584 3314 3078 
Q 3713 2572 3713 1747 
Q 3713 922 3314 415 
Q 2916 -91 2278 -91 
Q 1894 -91 1617 61 
Q 1341 213 1159 525 
L 1159 0 
L 581 0 
L 581 4863 
L 1159 4863 
L 1159 2969 
z
" transform="scale(0.015625)"/>
      <path id="DejaVuSans-63" d="M 3122 3366 
L 3122 2828 
Q 2878 2963 2633 3030 
Q 2388 3097 2138 3097 
Q 1578 3097 1268 2742 
Q 959 2388 959 1747 
Q 959 1106 1268 751 
Q 1578 397 2138 397 
Q 2388 397 2633 464 
Q 2878 531 3122 666 
L 3122 134 
Q 2881 22 2623 -34 
Q 2366 -91 2075 -91 
Q 1284 -91 818 406 
Q 353 903 353 1747 
Q 353 2603 823 3093 
Q 1294 3584 2113 3584 
Q 2378 3584 2631 3529 
Q 2884 3475 3122 3366 
z
" transform="scale(0.015625)"/>
      <path id="DejaVuSans-72" d="M 2631 2963 
Q 2534 3019 2420 3045 
Q 2306 3072 2169 3072 
Q 1681 3072 1420 2755 
Q 1159 2438 1159 1844 
L 1159 0 
L 581 0 
L 581 3500 
L 1159 3500 
L 1159 2956 
Q 1341 3275 1631 3429 
Q 1922 3584 2338 3584 
Q 2397 3584 2469 3576 
Q 2541 3569 2628 3553 
L 2631 2963 
z
" transform="scale(0.015625)"/>
      <path id="DejaVuSans-69" d="M 603 3500 
L 1178 3500 
L 1178 0 
L 603 0 
L 603 3500 
z
M 603 4863 
L 1178 4863 
L 1178 4134 
L 603 4134 
L 603 4863 
z
" transform="scale(0.015625)"/>
      <path id="DejaVuSans-20" transform="scale(0.015625)"/>
      <path id="DejaVuSans-68" d="M 3513 2113 
L 3513 0 
L 2938 0 
L 2938 2094 
Q 2938 2591 2744 2837 
Q 2550 3084 2163 3084 
Q 1697 3084 1428 2787 
Q 1159 2491 1159 1978 
L 1159 0 
L 581 0 
L 581 4863 
L 1159 4863 
L 1159 2956 
Q 1366 3272 1645 3428 
Q 1925 3584 2291 3584 
Q 2894 3584 3203 3211 
Q 3513 2838 3513 2113 
z
" transform="scale(0.015625)"/>
      <path id="DejaVuSans-6f" d="M 1959 3097 
Q 1497 3097 1228 2736 
Q 959 2375 959 1747 
Q 959 1119 1226 758 
Q 1494 397 1959 397 
Q 2419 397 2687 759 
Q 2956 1122 2956 1747 
Q 2956 2369 2687 2733 
Q 2419 3097 1959 3097 
z
M 1959 3584 
Q 2709 3584 3137 3096 
Q 3566 2609 3566 1747 
Q 3566 888 3137 398 
Q 2709 -91 1959 -91 
Q 1206 -91 779 398 
Q 353 888 353 1747 
Q 353 2609 779 3096 
Q 1206 3584 1959 3584 
z
" transform="scale(0.015625)"/>
      <path id="DejaVuSans-79" d="M 2059 -325 
Q 1816 -950 1584 -1140 
Q 1353 -1331 966 -1331 
L 506 -1331 
L 506 -850 
L 844 -850 
Q 1081 -850 1212 -737 
Q 1344 -625 1503 -206 
L 1606 56 
L 191 3500 
L 800 3500 
L 1894 763 
L 2988 3500 
L 3597 3500 
L 2059 -325 
z
" transform="scale(0.015625)"/>
     </defs>
     <use xlink:href="#DejaVuSans-67"/>
     <use xlink:href="#DejaVuSans-65" transform="translate(63.476562 0)"/>
     <use xlink:href="#DejaVuSans-74" transform="translate(125 0)"/>
     <use xlink:href="#DejaVuSans-5f" transform="translate(164.208984 0)"/>
     <use xlink:href="#DejaVuSans-73" transform="translate(214.208984 0)"/>
     <use xlink:href="#DejaVuSans-75" transform="translate(266.308594 0)"/>
     <use xlink:href="#DejaVuSans-62" transform="translate(329.6875 0)"/>
     <use xlink:href="#DejaVuSans-73" transform="translate(393.164062 0)"/>
     <use xlink:href="#DejaVuSans-63" transform="translate(445.263672 0)"/>
     <use xlink:href="#DejaVuSans-72" transform="translate(500.244141 0)"/>
     <use xlink:href="#DejaVuSans-69" transform="translate(541.357422 0)"/>
     <use xlink:href="#DejaVuSans-62" transform="translate(569.140625 0)"/>
     <use xlink:href="#DejaVuSans-65" transform="translate(632.617188 0)"/>
     <use xlink:href="#DejaVuSans-20" transform="translate(694.140625 0)"/>
     <use xlink:href="#DejaVuSans-68" transform="translate(725.927734 0)"/>
     <use xlink:href="#DejaVuSans-69" transform="translate(789.306641 0)"/>
     <use xlink:href="#DejaVuSans-73" transform="translate(817.089844 0)"/>
     <use xlink:href="#DejaVuSans-74" transform="translate(869.189453 0)"/>
     <use xlink:href="#DejaVuSans-6f" transform="translate(908.398438 0)"/>
     <use xlink:href="#DejaVuSans-72" transform="translate(969.580078 0)"/>
     <use xlink:href="#DejaVuSans-79" transform="translate(1010.693359 0)"/>
    </g>
   </g>
   <g id="legend_1">
    <g id="line2d_39">
     <path d="M 815.08 328.498438 
L 825.08 328.498438 
L 835.08 328.498438 
" style="fill: none; stroke: #1f77b4; stroke-width: 1.5; stroke-linecap: square"/>
    </g>
    <g id="text_20">
     <!-- star -->
     <g style="fill: #a9a9a9" transform="translate(843.08 331.998438) scale(0.1 -0.1)">
      <defs>
       <path id="DejaVuSans-61" d="M 2194 1759 
Q 1497 1759 1228 1600 
Q 959 1441 959 1056 
Q 959 750 1161 570 
Q 1363 391 1709 391 
Q 2188 391 2477 730 
Q 2766 1069 2766 1631 
L 2766 1759 
L 2194 1759 
z
M 3341 1997 
L 3341 0 
L 2766 0 
L 2766 531 
Q 2569 213 2275 61 
Q 1981 -91 1556 -91 
Q 1019 -91 701 211 
Q 384 513 384 1019 
Q 384 1609 779 1909 
Q 1175 2209 1959 2209 
L 2766 2209 
L 2766 2266 
Q 2766 2663 2505 2880 
Q 2244 3097 1772 3097 
Q 1472 3097 1187 3025 
Q 903 2953 641 2809 
L 641 3341 
Q 956 3463 1253 3523 
Q 1550 3584 1831 3584 
Q 2591 3584 2966 3190 
Q 3341 2797 3341 1997 
z
" transform="scale(0.015625)"/>
      </defs>
      <use xlink:href="#DejaVuSans-73"/>
      <use xlink:href="#DejaVuSans-74" transform="translate(52.099609 0)"/>
      <use xlink:href="#DejaVuSans-61" transform="translate(91.308594 0)"/>
      <use xlink:href="#DejaVuSans-72" transform="translate(152.587891 0)"/>
     </g>
    </g>
    <g id="line2d_40">
     <path d="M 815.08 343.176562 
L 825.08 343.176562 
L 835.08 343.176562 
" style="fill: none; stroke: #ff7f0e; stroke-width: 1.5; stroke-linecap: square"/>
    </g>
    <g id="text_21">
     <!-- fork -->
     <g style="fill: #a9a9a9" transform="translate(843.08 346.676562) scale(0.1 -0.1)">
      <defs>
       <path id="DejaVuSans-66" d="M 2375 4863 
L 2375 4384 
L 1825 4384 
Q 1516 4384 1395 4259 
Q 1275 4134 1275 3809 
L 1275 3500 
L 2222 3500 
L 2222 3053 
L 1275 3053 
L 1275 0 
L 697 0 
L 697 3053 
L 147 3053 
L 147 3500 
L 697 3500 
L 697 3744 
Q 697 4328 969 4595 
Q 1241 4863 1831 4863 
L 2375 4863 
z
" transform="scale(0.015625)"/>
       <path id="DejaVuSans-6b" d="M 581 4863 
L 1159 4863 
L 1159 1991 
L 2875 3500 
L 3609 3500 
L 1753 1863 
L 3688 0 
L 2938 0 
L 1159 1709 
L 1159 0 
L 581 0 
L 581 4863 
z
" transform="scale(0.015625)"/>
      </defs>
      <use xlink:href="#DejaVuSans-66"/>
      <use xlink:href="#DejaVuSans-6f" transform="translate(35.205078 0)"/>
      <use xlink:href="#DejaVuSans-72" transform="translate(96.386719 0)"/>
      <use xlink:href="#DejaVuSans-6b" transform="translate(137.5 0)"/>
     </g>
    </g>
   </g>
  </g>
 </g>
 <defs>
  <clipPath id="pb0a516c2b2">
   <rect x="108" y="43.2" width="669.6" height="277.2"/>
  </clipPath>
 </defs>
</svg>
