<?xml version="1.0" encoding="utf-8" standalone="no"?>
<!DOCTYPE svg PUBLIC "-//W3C//DTD SVG 1.1//EN"
  "http://www.w3.org/Graphics/SVG/1.1/DTD/svg11.dtd">
<svg xmlns:xlink="http://www.w3.org/1999/xlink" width="864pt" height="360pt" viewBox="0 0 864 360" xmlns="http://www.w3.org/2000/svg" version="1.1">
 <metadata>
  <rdf:RDF xmlns:dc="http://purl.org/dc/elements/1.1/" xmlns:cc="http://creativecommons.org/ns#" xmlns:rdf="http://www.w3.org/1999/02/22-rdf-syntax-ns#">
   <cc:Work>
    <dc:type rdf:resource="http://purl.org/dc/dcmitype/StillImage"/>
    <dc:date>2025-12-08T08:17:26.797615</dc:date>
    <dc:format>image/svg+xml</dc:format>
    <dc:creator>
     <cc:Agent>
      <dc:title>Matplotlib v3.10.7, https://matplotlib.org/</dc:title>
     </cc:Agent>
    </dc:creator>
   </cc:Work>
  </rdf:RDF>
 </metadata>
 <defs>
  <style type="text/css">*{stroke-linejoin: round; stroke-linecap: butt}</style>
 </defs>
 <g id="figure_1">
  <g id="patch_1">
   <path d="M 0 360 
L 864 360 
L 864 0 
L 0 0 
L 0 360 
z
" style="fill: none; opacity: 0"/>
  </g>
  <g id="axes_1">
   <g id="patch_2">
    <path d="M 108 320.4 
L 777.6 320.4 
L 777.6 43.2 
L 108 43.2 
L 108 320.4 
z
" style="fill: none; opacity: 0"/>
   </g>
   <g id="matplotlib.axis_1">
    <g id="xtick_1">
     <g id="line2d_1">
      <path d="M 129.674957 320.4 
L 129.674957 43.2 
" clip-path="url(#peab06635a4)" style="fill: none; stroke-dasharray: 5.12,1.28,0.8,1.28; stroke-dashoffset: 0; stroke: #b0b0b0; stroke-width: 0.8"/>
     </g>
     <g id="line2d_2">
      <defs>
       <path id="m0228809c6b" d="M 0 0 
L 0 3.5 
" style="stroke: #a9a9a9; stroke-width: 0.8"/>
      </defs>
      <g>
       <use xlink:href="#m0228809c6b" x="129.674957" y="320.4" style="fill: #a9a9a9; stroke: #a9a9a9; stroke-width: 0.8"/>
      </g>
     </g>
     <g id="text_1">
      <!-- 2021-07 -->
      <g style="fill: #a9a9a9" transform="translate(108.783551 334.998438) scale(0.1 -0.1)">
       <defs>
        <path id="DejaVuSans-32" d="M 1228 531 
L 3431 531 
L 3431 0 
L 469 0 
L 469 531 
Q 828 903 1448 1529 
Q 2069 2156 2228 2338 
Q 2531 2678 2651 2914 
Q 2772 3150 2772 3378 
Q 2772 3750 2511 3984 
Q 2250 4219 1831 4219 
Q 1534 4219 1204 4116 
Q 875 4013 500 3803 
L 500 4441 
Q 881 4594 1212 4672 
Q 1544 4750 1819 4750 
Q 2544 4750 2975 4387 
Q 3406 4025 3406 3419 
Q 3406 3131 3298 2873 
Q 3191 2616 2906 2266 
Q 2828 2175 2409 1742 
Q 1991 1309 1228 531 
z
" transform="scale(0.015625)"/>
        <path id="DejaVuSans-30" d="M 2034 4250 
Q 1547 4250 1301 3770 
Q 1056 3291 1056 2328 
Q 1056 1369 1301 889 
Q 1547 409 2034 409 
Q 2525 409 2770 889 
Q 3016 1369 3016 2328 
Q 3016 3291 2770 3770 
Q 2525 4250 2034 4250 
z
M 2034 4750 
Q 2819 4750 3233 4129 
Q 3647 3509 3647 2328 
Q 3647 1150 3233 529 
Q 2819 -91 2034 -91 
Q 1250 -91 836 529 
Q 422 1150 422 2328 
Q 422 3509 836 4129 
Q 1250 4750 2034 4750 
z
" transform="scale(0.015625)"/>
        <path id="DejaVuSans-31" d="M 794 531 
L 1825 531 
L 1825 4091 
L 703 3866 
L 703 4441 
L 1819 4666 
L 2450 4666 
L 2450 531 
L 3481 531 
L 3481 0 
L 794 0 
L 794 531 
z
" transform="scale(0.015625)"/>
        <path id="DejaVuSans-2d" d="M 313 2009 
L 1997 2009 
L 1997 1497 
L 313 1497 
L 313 2009 
z
" transform="scale(0.015625)"/>
        <path id="DejaVuSans-37" d="M 525 4666 
L 3525 4666 
L 3525 4397 
L 1831 0 
L 1172 0 
L 2766 4134 
L 525 4134 
L 525 4666 
z
" transform="scale(0.015625)"/>
       </defs>
       <use xlink:href="#DejaVuSans-32"/>
       <use xlink:href="#DejaVuSans-30" transform="translate(63.623047 0)"/>
       <use xlink:href="#DejaVuSans-32" transform="translate(127.246094 0)"/>
       <use xlink:href="#DejaVuSans-31" transform="translate(190.869141 0)"/>
       <use xlink:href="#DejaVuSans-2d" transform="translate(254.492188 0)"/>
       <use xlink:href="#DejaVuSans-30" transform="translate(290.576172 0)"/>
       <use xlink:href="#DejaVuSans-37" transform="translate(354.199219 0)"/>
      </g>
     </g>
    </g>
    <g id="xtick_2">
     <g id="line2d_3">
      <path d="M 199.766208 320.4 
L 199.766208 43.2 
" clip-path="url(#peab06635a4)" style="fill: none; stroke-dasharray: 5.12,1.28,0.8,1.28; stroke-dashoffset: 0; stroke: #b0b0b0; stroke-width: 0.8"/>
     </g>
     <g id="line2d_4">
      <g>
       <use xlink:href="#m0228809c6b" x="199.766208" y="320.4" style="fill: #a9a9a9; stroke: #a9a9a9; stroke-width: 0.8"/>
      </g>
     </g>
     <g id="text_2">
      <!-- 2022-01 -->
      <g style="fill: #a9a9a9" transform="translate(178.874802 334.998438) scale(0.1 -0.1)">
       <use xlink:href="#DejaVuSans-32"/>
       <use xlink:href="#DejaVuSans-30" transform="translate(63.623047 0)"/>
       <use xlink:href="#DejaVuSans-32" transform="translate(127.246094 0)"/>
       <use xlink:href="#DejaVuSans-32" transform="translate(190.869141 0)"/>
       <use xlink:href="#DejaVuSans-2d" transform="translate(254.492188 0)"/>
       <use xlink:href="#DejaVuSans-30" transform="translate(290.576172 0)"/>
       <use xlink:href="#DejaVuSans-31" transform="translate(354.199219 0)"/>
      </g>
     </g>
    </g>
    <g id="xtick_3">
     <g id="line2d_5">
      <path d="M 268.714666 320.4 
L 268.714666 43.2 
" clip-path="url(#peab06635a4)" style="fill: none; stroke-dasharray: 5.12,1.28,0.8,1.28; stroke-dashoffset: 0; stroke: #b0b0b0; stroke-width: 0.8"/>
     </g>
     <g id="line2d_6">
      <g>
       <use xlink:href="#m0228809c6b" x="268.714666" y="320.4" style="fill: #a9a9a9; stroke: #a9a9a9; stroke-width: 0.8"/>
      </g>
     </g>
     <g id="text_3">
      <!-- 2022-07 -->
      <g style="fill: #a9a9a9" transform="translate(247.82326 334.998438) scale(0.1 -0.1)">
       <use xlink:href="#DejaVuSans-32"/>
       <use xlink:href="#DejaVuSans-30" transform="translate(63.623047 0)"/>
       <use xlink:href="#DejaVuSans-32" transform="translate(127.246094 0)"/>
       <use xlink:href="#DejaVuSans-32" transform="translate(190.869141 0)"/>
       <use xlink:href="#DejaVuSans-2d" transform="translate(254.492188 0)"/>
       <use xlink:href="#DejaVuSans-30" transform="translate(290.576172 0)"/>
       <use xlink:href="#DejaVuSans-37" transform="translate(354.199219 0)"/>
      </g>
     </g>
    </g>
    <g id="xtick_4">
     <g id="line2d_7">
      <path d="M 338.805916 320.4 
L 338.805916 43.2 
" clip-path="url(#peab06635a4)" style="fill: none; stroke-dasharray: 5.12,1.28,0.8,1.28; stroke-dashoffset: 0; stroke: #b0b0b0; stroke-width: 0.8"/>
     </g>
     <g id="line2d_8">
      <g>
       <use xlink:href="#m0228809c6b" x="338.805916" y="320.4" style="fill: #a9a9a9; stroke: #a9a9a9; stroke-width: 0.8"/>
      </g>
     </g>
     <g id="text_4">
      <!-- 2023-01 -->
      <g style="fill: #a9a9a9" transform="translate(317.91451 334.998438) scale(0.1 -0.1)">
       <defs>
        <path id="DejaVuSans-33" d="M 2597 2516 
Q 3050 2419 3304 2112 
Q 3559 1806 3559 1356 
Q 3559 666 3084 287 
Q 2609 -91 1734 -91 
Q 1441 -91 1130 -33 
Q 819 25 488 141 
L 488 750 
Q 750 597 1062 519 
Q 1375 441 1716 441 
Q 2309 441 2620 675 
Q 2931 909 2931 1356 
Q 2931 1769 2642 2001 
Q 2353 2234 1838 2234 
L 1294 2234 
L 1294 2753 
L 1863 2753 
Q 2328 2753 2575 2939 
Q 2822 3125 2822 3475 
Q 2822 3834 2567 4026 
Q 2313 4219 1838 4219 
Q 1578 4219 1281 4162 
Q 984 4106 628 3988 
L 628 4550 
Q 988 4650 1302 4700 
Q 1616 4750 1894 4750 
Q 2613 4750 3031 4423 
Q 3450 4097 3450 3541 
Q 3450 3153 3228 2886 
Q 3006 2619 2597 2516 
z
" transform="scale(0.015625)"/>
       </defs>
       <use xlink:href="#DejaVuSans-32"/>
       <use xlink:href="#DejaVuSans-30" transform="translate(63.623047 0)"/>
       <use xlink:href="#DejaVuSans-32" transform="translate(127.246094 0)"/>
       <use xlink:href="#DejaVuSans-33" transform="translate(190.869141 0)"/>
       <use xlink:href="#DejaVuSans-2d" transform="translate(254.492188 0)"/>
       <use xlink:href="#DejaVuSans-30" transform="translate(290.576172 0)"/>
       <use xlink:href="#DejaVuSans-31" transform="translate(354.199219 0)"/>
      </g>
     </g>
    </g>
    <g id="xtick_5">
     <g id="line2d_9">
      <path d="M 407.754375 320.4 
L 407.754375 43.2 
" clip-path="url(#peab06635a4)" style="fill: none; stroke-dasharray: 5.12,1.28,0.8,1.28; stroke-dashoffset: 0; stroke: #b0b0b0; stroke-width: 0.8"/>
     </g>
     <g id="line2d_10">
      <g>
       <use xlink:href="#m0228809c6b" x="407.754375" y="320.4" style="fill: #a9a9a9; stroke: #a9a9a9; stroke-width: 0.8"/>
      </g>
     </g>
     <g id="text_5">
      <!-- 2023-07 -->
      <g style="fill: #a9a9a9" transform="translate(386.862969 334.998438) scale(0.1 -0.1)">
       <use xlink:href="#DejaVuSans-32"/>
       <use xlink:href="#DejaVuSans-30" transform="translate(63.623047 0)"/>
       <use xlink:href="#DejaVuSans-32" transform="translate(127.246094 0)"/>
       <use xlink:href="#DejaVuSans-33" transform="translate(190.869141 0)"/>
       <use xlink:href="#DejaVuSans-2d" transform="translate(254.492188 0)"/>
       <use xlink:href="#DejaVuSans-30" transform="translate(290.576172 0)"/>
       <use xlink:href="#DejaVuSans-37" transform="translate(354.199219 0)"/>
      </g>
     </g>
    </g>
    <g id="xtick_6">
     <g id="line2d_11">
      <path d="M 477.845625 320.4 
L 477.845625 43.2 
" clip-path="url(#peab06635a4)" style="fill: none; stroke-dasharray: 5.12,1.28,0.8,1.28; stroke-dashoffset: 0; stroke: #b0b0b0; stroke-width: 0.8"/>
     </g>
     <g id="line2d_12">
      <g>
       <use xlink:href="#m0228809c6b" x="477.845625" y="320.4" style="fill: #a9a9a9; stroke: #a9a9a9; stroke-width: 0.8"/>
      </g>
     </g>
     <g id="text_6">
      <!-- 2024-01 -->
      <g style="fill: #a9a9a9" transform="translate(456.954219 334.998438) scale(0.1 -0.1)">
       <defs>
        <path id="DejaVuSans-34" d="M 2419 4116 
L 825 1625 
L 2419 1625 
L 2419 4116 
z
M 2253 4666 
L 3047 4666 
L 3047 1625 
L 3713 1625 
L 3713 1100 
L 3047 1100 
L 3047 0 
L 2419 0 
L 2419 1100 
L 313 1100 
L 313 1709 
L 2253 4666 
z
" transform="scale(0.015625)"/>
       </defs>
       <use xlink:href="#DejaVuSans-32"/>
       <use xlink:href="#DejaVuSans-30" transform="translate(63.623047 0)"/>
       <use xlink:href="#DejaVuSans-32" transform="translate(127.246094 0)"/>
       <use xlink:href="#DejaVuSans-34" transform="translate(190.869141 0)"/>
       <use xlink:href="#DejaVuSans-2d" transform="translate(254.492188 0)"/>
       <use xlink:href="#DejaVuSans-30" transform="translate(290.576172 0)"/>
       <use xlink:href="#DejaVuSans-31" transform="translate(354.199219 0)"/>
      </g>
     </g>
    </g>
    <g id="xtick_7">
     <g id="line2d_13">
      <path d="M 547.175014 320.4 
L 547.175014 43.2 
" clip-path="url(#peab06635a4)" style="fill: none; stroke-dasharray: 5.12,1.28,0.8,1.28; stroke-dashoffset: 0; stroke: #b0b0b0; stroke-width: 0.8"/>
     </g>
     <g id="line2d_14">
      <g>
       <use xlink:href="#m0228809c6b" x="547.175014" y="320.4" style="fill: #a9a9a9; stroke: #a9a9a9; stroke-width: 0.8"/>
      </g>
     </g>
     <g id="text_7">
      <!-- 2024-07 -->
      <g style="fill: #a9a9a9" transform="translate(526.283608 334.998438) scale(0.1 -0.1)">
       <use xlink:href="#DejaVuSans-32"/>
       <use xlink:href="#DejaVuSans-30" transform="translate(63.623047 0)"/>
       <use xlink:href="#DejaVuSans-32" transform="translate(127.246094 0)"/>
       <use xlink:href="#DejaVuSans-34" transform="translate(190.869141 0)"/>
       <use xlink:href="#DejaVuSans-2d" transform="translate(254.492188 0)"/>
       <use xlink:href="#DejaVuSans-30" transform="translate(290.576172 0)"/>
       <use xlink:href="#DejaVuSans-37" transform="translate(354.199219 0)"/>
      </g>
     </g>
    </g>
    <g id="xtick_8">
     <g id="line2d_15">
      <path d="M 617.266265 320.4 
L 617.266265 43.2 
" clip-path="url(#peab06635a4)" style="fill: none; stroke-dasharray: 5.12,1.28,0.8,1.28; stroke-dashoffset: 0; stroke: #b0b0b0; stroke-width: 0.8"/>
     </g>
     <g id="line2d_16">
      <g>
       <use xlink:href="#m0228809c6b" x="617.266265" y="320.4" style="fill: #a9a9a9; stroke: #a9a9a9; stroke-width: 0.8"/>
      </g>
     </g>
     <g id="text_8">
      <!-- 2025-01 -->
      <g style="fill: #a9a9a9" transform="translate(596.374858 334.998438) scale(0.1 -0.1)">
       <defs>
        <path id="DejaVuSans-35" d="M 691 4666 
L 3169 4666 
L 3169 4134 
L 1269 4134 
L 1269 2991 
Q 1406 3038 1543 3061 
Q 1681 3084 1819 3084 
Q 2600 3084 3056 2656 
Q 3513 2228 3513 1497 
Q 3513 744 3044 326 
Q 2575 -91 1722 -91 
Q 1428 -91 1123 -41 
Q 819 9 494 109 
L 494 744 
Q 775 591 1075 516 
Q 1375 441 1709 441 
Q 2250 441 2565 725 
Q 2881 1009 2881 1497 
Q 2881 1984 2565 2268 
Q 2250 2553 1709 2553 
Q 1456 2553 1204 2497 
Q 953 2441 691 2322 
L 691 4666 
z
" transform="scale(0.015625)"/>
       </defs>
       <use xlink:href="#DejaVuSans-32"/>
       <use xlink:href="#DejaVuSans-30" transform="translate(63.623047 0)"/>
       <use xlink:href="#DejaVuSans-32" transform="translate(127.246094 0)"/>
       <use xlink:href="#DejaVuSans-35" transform="translate(190.869141 0)"/>
       <use xlink:href="#DejaVuSans-2d" transform="translate(254.492188 0)"/>
       <use xlink:href="#DejaVuSans-30" transform="translate(290.576172 0)"/>
       <use xlink:href="#DejaVuSans-31" transform="translate(354.199219 0)"/>
      </g>
     </g>
    </g>
    <g id="xtick_9">
     <g id="line2d_17">
      <path d="M 686.214723 320.4 
L 686.214723 43.2 
" clip-path="url(#peab06635a4)" style="fill: none; stroke-dasharray: 5.12,1.28,0.8,1.28; stroke-dashoffset: 0; stroke: #b0b0b0; stroke-width: 0.8"/>
     </g>
     <g id="line2d_18">
      <g>
       <use xlink:href="#m0228809c6b" x="686.214723" y="320.4" style="fill: #a9a9a9; stroke: #a9a9a9; stroke-width: 0.8"/>
      </g>
     </g>
     <g id="text_9">
      <!-- 2025-07 -->
      <g style="fill: #a9a9a9" transform="translate(665.323317 334.998438) scale(0.1 -0.1)">
       <use xlink:href="#DejaVuSans-32"/>
       <use xlink:href="#DejaVuSans-30" transform="translate(63.623047 0)"/>
       <use xlink:href="#DejaVuSans-32" transform="translate(127.246094 0)"/>
       <use xlink:href="#DejaVuSans-35" transform="translate(190.869141 0)"/>
       <use xlink:href="#DejaVuSans-2d" transform="translate(254.492188 0)"/>
       <use xlink:href="#DejaVuSans-30" transform="translate(290.576172 0)"/>
       <use xlink:href="#DejaVuSans-37" transform="translate(354.199219 0)"/>
      </g>
     </g>
    </g>
    <g id="xtick_10">
     <g id="line2d_19">
      <path d="M 756.305973 320.4 
L 756.305973 43.2 
" clip-path="url(#peab06635a4)" style="fill: none; stroke-dasharray: 5.12,1.28,0.8,1.28; stroke-dashoffset: 0; stroke: #b0b0b0; stroke-width: 0.8"/>
     </g>
     <g id="line2d_20">
      <g>
       <use xlink:href="#m0228809c6b" x="756.305973" y="320.4" style="fill: #a9a9a9; stroke: #a9a9a9; stroke-width: 0.8"/>
      </g>
     </g>
     <g id="text_10">
      <!-- 2026-01 -->
      <g style="fill: #a9a9a9" transform="translate(735.414567 334.998438) scale(0.1 -0.1)">
       <defs>
        <path id="DejaVuSans-36" d="M 2113 2584 
Q 1688 2584 1439 2293 
Q 1191 2003 1191 1497 
Q 1191 994 1439 701 
Q 1688 409 2113 409 
Q 2538 409 2786 701 
Q 3034 994 3034 1497 
Q 3034 2003 2786 2293 
Q 2538 2584 2113 2584 
z
M 3366 4563 
L 3366 3988 
Q 3128 4100 2886 4159 
Q 2644 4219 2406 4219 
Q 1781 4219 1451 3797 
Q 1122 3375 1075 2522 
Q 1259 2794 1537 2939 
Q 1816 3084 2150 3084 
Q 2853 3084 3261 2657 
Q 3669 2231 3669 1497 
Q 3669 778 3244 343 
Q 2819 -91 2113 -91 
Q 1303 -91 875 529 
Q 447 1150 447 2328 
Q 447 3434 972 4092 
Q 1497 4750 2381 4750 
Q 2619 4750 2861 4703 
Q 3103 4656 3366 4563 
z
" transform="scale(0.015625)"/>
       </defs>
       <use xlink:href="#DejaVuSans-32"/>
       <use xlink:href="#DejaVuSans-30" transform="translate(63.623047 0)"/>
       <use xlink:href="#DejaVuSans-32" transform="translate(127.246094 0)"/>
       <use xlink:href="#DejaVuSans-36" transform="translate(190.869141 0)"/>
       <use xlink:href="#DejaVuSans-2d" transform="translate(254.492188 0)"/>
       <use xlink:href="#DejaVuSans-30" transform="translate(290.576172 0)"/>
       <use xlink:href="#DejaVuSans-31" transform="translate(354.199219 0)"/>
      </g>
     </g>
    </g>
   </g>
   <g id="matplotlib.axis_2">
    <g id="ytick_1">
     <g id="line2d_21">
      <path d="M 108 307.829989 
L 777.6 307.829989 
" clip-path="url(#peab06635a4)" style="fill: none; stroke-dasharray: 5.12,1.28,0.8,1.28; stroke-dashoffset: 0; stroke: #b0b0b0; stroke-width: 0.8"/>
     </g>
     <g id="line2d_22">
      <defs>
       <path id="m5ea13848be" d="M 0 0 
L -3.5 0 
" style="stroke: #a9a9a9; stroke-width: 0.8"/>
      </defs>
      <g>
       <use xlink:href="#m5ea13848be" x="108" y="307.829989" style="fill: #a9a9a9; stroke: #a9a9a9; stroke-width: 0.8"/>
      </g>
     </g>
     <g id="text_11">
      <!-- 0 -->
      <g style="fill: #a9a9a9" transform="translate(94.6375 311.629208) scale(0.1 -0.1)">
       <use xlink:href="#DejaVuSans-30"/>
      </g>
     </g>
    </g>
    <g id="ytick_2">
     <g id="line2d_23">
      <path d="M 108 277.8407 
L 777.6 277.8407 
" clip-path="url(#peab06635a4)" style="fill: none; stroke-dasharray: 5.12,1.28,0.8,1.28; stroke-dashoffset: 0; stroke: #b0b0b0; stroke-width: 0.8"/>
     </g>
     <g id="line2d_24">
      <g>
       <use xlink:href="#m5ea13848be" x="108" y="277.8407" style="fill: #a9a9a9; stroke: #a9a9a9; stroke-width: 0.8"/>
      </g>
     </g>
     <g id="text_12">
      <!-- 1000 -->
      <g style="fill: #a9a9a9" transform="translate(75.55 281.639919) scale(0.1 -0.1)">
       <use xlink:href="#DejaVuSans-31"/>
       <use xlink:href="#DejaVuSans-30" transform="translate(63.623047 0)"/>
       <use xlink:href="#DejaVuSans-30" transform="translate(127.246094 0)"/>
       <use xlink:href="#DejaVuSans-30" transform="translate(190.869141 0)"/>
      </g>
     </g>
    </g>
    <g id="ytick_3">
     <g id="line2d_25">
      <path d="M 108 247.85141 
L 777.6 247.85141 
" clip-path="url(#peab06635a4)" style="fill: none; stroke-dasharray: 5.12,1.28,0.8,1.28; stroke-dashoffset: 0; stroke: #b0b0b0; stroke-width: 0.8"/>
     </g>
     <g id="line2d_26">
      <g>
       <use xlink:href="#m5ea13848be" x="108" y="247.85141" style="fill: #a9a9a9; stroke: #a9a9a9; stroke-width: 0.8"/>
      </g>
     </g>
     <g id="text_13">
      <!-- 2000 -->
      <g style="fill: #a9a9a9" transform="translate(75.55 251.650629) scale(0.1 -0.1)">
       <use xlink:href="#DejaVuSans-32"/>
       <use xlink:href="#DejaVuSans-30" transform="translate(63.623047 0)"/>
       <use xlink:href="#DejaVuSans-30" transform="translate(127.246094 0)"/>
       <use xlink:href="#DejaVuSans-30" transform="translate(190.869141 0)"/>
      </g>
     </g>
    </g>
    <g id="ytick_4">
     <g id="line2d_27">
      <path d="M 108 217.862121 
L 777.6 217.862121 
" clip-path="url(#peab06635a4)" style="fill: none; stroke-dasharray: 5.12,1.28,0.8,1.28; stroke-dashoffset: 0; stroke: #b0b0b0; stroke-width: 0.8"/>
     </g>
     <g id="line2d_28">
      <g>
       <use xlink:href="#m5ea13848be" x="108" y="217.862121" style="fill: #a9a9a9; stroke: #a9a9a9; stroke-width: 0.8"/>
      </g>
     </g>
     <g id="text_14">
      <!-- 3000 -->
      <g style="fill: #a9a9a9" transform="translate(75.55 221.661339) scale(0.1 -0.1)">
       <use xlink:href="#DejaVuSans-33"/>
       <use xlink:href="#DejaVuSans-30" transform="translate(63.623047 0)"/>
       <use xlink:href="#DejaVuSans-30" transform="translate(127.246094 0)"/>
       <use xlink:href="#DejaVuSans-30" transform="translate(190.869141 0)"/>
      </g>
     </g>
    </g>
    <g id="ytick_5">
     <g id="line2d_29">
      <path d="M 108 187.872831 
L 777.6 187.872831 
" clip-path="url(#peab06635a4)" style="fill: none; stroke-dasharray: 5.12,1.28,0.8,1.28; stroke-dashoffset: 0; stroke: #b0b0b0; stroke-width: 0.8"/>
     </g>
     <g id="line2d_30">
      <g>
       <use xlink:href="#m5ea13848be" x="108" y="187.872831" style="fill: #a9a9a9; stroke: #a9a9a9; stroke-width: 0.8"/>
      </g>
     </g>
     <g id="text_15">
      <!-- 4000 -->
      <g style="fill: #a9a9a9" transform="translate(75.55 191.67205) scale(0.1 -0.1)">
       <use xlink:href="#DejaVuSans-34"/>
       <use xlink:href="#DejaVuSans-30" transform="translate(63.623047 0)"/>
       <use xlink:href="#DejaVuSans-30" transform="translate(127.246094 0)"/>
       <use xlink:href="#DejaVuSans-30" transform="translate(190.869141 0)"/>
      </g>
     </g>
    </g>
    <g id="ytick_6">
     <g id="line2d_31">
      <path d="M 108 157.883542 
L 777.6 157.883542 
" clip-path="url(#peab06635a4)" style="fill: none; stroke-dasharray: 5.12,1.28,0.8,1.28; stroke-dashoffset: 0; stroke: #b0b0b0; stroke-width: 0.8"/>
     </g>
     <g id="line2d_32">
      <g>
       <use xlink:href="#m5ea13848be" x="108" y="157.883542" style="fill: #a9a9a9; stroke: #a9a9a9; stroke-width: 0.8"/>
      </g>
     </g>
     <g id="text_16">
      <!-- 5000 -->
      <g style="fill: #a9a9a9" transform="translate(75.55 161.68276) scale(0.1 -0.1)">
       <use xlink:href="#DejaVuSans-35"/>
       <use xlink:href="#DejaVuSans-30" transform="translate(63.623047 0)"/>
       <use xlink:href="#DejaVuSans-30" transform="translate(127.246094 0)"/>
       <use xlink:href="#DejaVuSans-30" transform="translate(190.869141 0)"/>
      </g>
     </g>
    </g>
    <g id="ytick_7">
     <g id="line2d_33">
      <path d="M 108 127.894252 
L 777.6 127.894252 
" clip-path="url(#peab06635a4)" style="fill: none; stroke-dasharray: 5.12,1.28,0.8,1.28; stroke-dashoffset: 0; stroke: #b0b0b0; stroke-width: 0.8"/>
     </g>
     <g id="line2d_34">
      <g>
       <use xlink:href="#m5ea13848be" x="108" y="127.894252" style="fill: #a9a9a9; stroke: #a9a9a9; stroke-width: 0.8"/>
      </g>
     </g>
     <g id="text_17">
      <!-- 6000 -->
      <g style="fill: #a9a9a9" transform="translate(75.55 131.693471) scale(0.1 -0.1)">
       <use xlink:href="#DejaVuSans-36"/>
       <use xlink:href="#DejaVuSans-30" transform="translate(63.623047 0)"/>
       <use xlink:href="#DejaVuSans-30" transform="translate(127.246094 0)"/>
       <use xlink:href="#DejaVuSans-30" transform="translate(190.869141 0)"/>
      </g>
     </g>
    </g>
    <g id="ytick_8">
     <g id="line2d_35">
      <path d="M 108 97.904963 
L 777.6 97.904963 
" clip-path="url(#peab06635a4)" style="fill: none; stroke-dasharray: 5.12,1.28,0.8,1.28; stroke-dashoffset: 0; stroke: #b0b0b0; stroke-width: 0.8"/>
     </g>
     <g id="line2d_36">
      <g>
       <use xlink:href="#m5ea13848be" x="108" y="97.904963" style="fill: #a9a9a9; stroke: #a9a9a9; stroke-width: 0.8"/>
      </g>
     </g>
     <g id="text_18">
      <!-- 7000 -->
      <g style="fill: #a9a9a9" transform="translate(75.55 101.704181) scale(0.1 -0.1)">
       <use xlink:href="#DejaVuSans-37"/>
       <use xlink:href="#DejaVuSans-30" transform="translate(63.623047 0)"/>
       <use xlink:href="#DejaVuSans-30" transform="translate(127.246094 0)"/>
       <use xlink:href="#DejaVuSans-30" transform="translate(190.869141 0)"/>
      </g>
     </g>
    </g>
    <g id="ytick_9">
     <g id="line2d_37">
      <path d="M 108 67.915673 
L 777.6 67.915673 
" clip-path="url(#peab06635a4)" style="fill: none; stroke-dasharray: 5.12,1.28,0.8,1.28; stroke-dashoffset: 0; stroke: #b0b0b0; stroke-width: 0.8"/>
     </g>
     <g id="line2d_38">
      <g>
       <use xlink:href="#m5ea13848be" x="108" y="67.915673" style="fill: #a9a9a9; stroke: #a9a9a9; stroke-width: 0.8"/>
      </g>
     </g>
     <g id="text_19">
      <!-- 8000 -->
      <g style="fill: #a9a9a9" transform="translate(75.55 71.714892) scale(0.1 -0.1)">
       <defs>
        <path id="DejaVuSans-38" d="M 2034 2216 
Q 1584 2216 1326 1975 
Q 1069 1734 1069 1313 
Q 1069 891 1326 650 
Q 1584 409 2034 409 
Q 2484 409 2743 651 
Q 3003 894 3003 1313 
Q 3003 1734 2745 1975 
Q 2488 2216 2034 2216 
z
M 1403 2484 
Q 997 2584 770 2862 
Q 544 3141 544 3541 
Q 544 4100 942 4425 
Q 1341 4750 2034 4750 
Q 2731 4750 3128 4425 
Q 3525 4100 3525 3541 
Q 3525 3141 3298 2862 
Q 3072 2584 2669 2484 
Q 3125 2378 3379 2068 
Q 3634 1759 3634 1313 
Q 3634 634 3220 271 
Q 2806 -91 2034 -91 
Q 1263 -91 848 271 
Q 434 634 434 1313 
Q 434 1759 690 2068 
Q 947 2378 1403 2484 
z
M 1172 3481 
Q 1172 3119 1398 2916 
Q 1625 2713 2034 2713 
Q 2441 2713 2670 2916 
Q 2900 3119 2900 3481 
Q 2900 3844 2670 4047 
Q 2441 4250 2034 4250 
Q 1625 4250 1398 4047 
Q 1172 3844 1172 3481 
z
" transform="scale(0.015625)"/>
       </defs>
       <use xlink:href="#DejaVuSans-38"/>
       <use xlink:href="#DejaVuSans-30" transform="translate(63.623047 0)"/>
       <use xlink:href="#DejaVuSans-30" transform="translate(127.246094 0)"/>
       <use xlink:href="#DejaVuSans-30" transform="translate(190.869141 0)"/>
      </g>
     </g>
    </g>
   </g>
   <g id="line2d_39">
    <path d="M 138.436364 307.740021 
L 140.721948 307.530096 
L 141.102879 307.350161 
L 142.626601 307.140236 
L 144.150324 306.810353 
L 144.912186 306.690396 
L 146.816839 306.510461 
L 147.578701 306.210568 
L 147.959631 305.67076 
L 148.340562 305.400857 
L 148.721493 304.501178 
L 149.102423 304.4412 
L 149.864285 303.961371 
L 150.626146 303.391574 
L 152.149869 302.251981 
L 152.5308 302.102035 
L 153.292661 301.622206 
L 154.435453 301.05241 
L 154.816384 300.392645 
L 155.578246 299.79286 
L 156.340107 299.552945 
L 157.482899 299.37301 
L 159.768483 299.013138 
L 160.149414 298.833202 
L 162.815929 298.593288 
L 164.339652 298.203427 
L 167.387098 297.753588 
L 167.768028 297.543663 
L 168.148959 297.483684 
L 168.91082 297.213781 
L 171.577335 296.733952 
L 172.339197 296.494038 
L 175.767573 295.894252 
L 176.529435 295.714316 
L 178.053157 295.504391 
L 178.815019 295.264477 
L 179.195949 294.69468 
L 180.338742 294.214852 
L 181.481534 293.88497 
L 181.862464 293.675045 
L 182.624326 293.525098 
L 184.148049 293.04527 
L 184.90991 292.985291 
L 185.671772 292.775366 
L 187.195494 292.355516 
L 187.576425 292.325527 
L 188.338286 291.935666 
L 188.719217 291.875687 
L 189.100148 291.665762 
L 193.290386 290.946019 
L 194.814109 290.466191 
L 195.195039 290.196287 
L 197.099693 289.536523 
L 197.861554 288.966726 
L 199.004346 288.726812 
L 203.956446 287.227347 
L 204.337376 287.167369 
L 205.861099 286.537594 
L 206.24203 286.477615 
L 207.003891 286.147733 
L 207.765753 286.117744 
L 208.908545 285.757872 
L 209.289475 285.757872 
L 209.670406 285.577936 
L 210.432268 285.487969 
L 210.813198 285.338022 
L 212.717852 285.248054 
L 213.098783 285.158086 
L 213.860644 284.738236 
L 215.003436 284.318386 
L 215.765298 283.898536 
L 216.90809 283.388718 
L 218.431812 282.608997 
L 218.812743 282.159157 
L 219.574605 280.899607 
L 219.955535 280.77965 
L 220.336466 280.77965 
L 221.860189 279.909961 
L 222.24112 279.819993 
L 222.62205 279.430132 
L 223.383912 279.10025 
L 224.145773 278.740378 
L 224.526704 278.26055 
L 224.907635 277.600785 
L 225.288565 277.360871 
L 225.669496 276.671117 
L 226.050427 276.221278 
L 228.336011 274.901749 
L 229.859734 273.462263 
L 230.240664 272.532596 
L 230.621595 271.93281 
L 231.002526 271.602928 
L 231.383457 271.422992 
L 235.954625 267.194502 
L 237.478348 266.204855 
L 237.859279 266.054909 
L 239.383001 265.095252 
L 239.763932 264.915316 
L 241.668586 263.05598 
L 242.430447 262.726098 
L 243.192309 262.186291 
L 243.573239 261.946376 
L 243.95417 261.886398 
L 245.096962 261.196644 
L 245.477893 260.746805 
L 247.382546 259.637201 
L 247.763477 259.487255 
L 248.906269 258.647554 
L 254.62023 256.488326 
L 255.382091 255.738593 
L 256.524883 255.138808 
L 257.286745 254.62899 
L 258.048606 254.389075 
L 258.429537 254.119172 
L 258.810468 253.999215 
L 259.95326 253.189504 
L 261.857913 252.739664 
L 263.000705 252.019921 
L 264.143498 251.750018 
L 264.524428 251.66005 
L 265.66722 250.790361 
L 267.190943 250.340521 
L 267.571874 250.010639 
L 269.857458 249.170939 
L 270.61932 249.020993 
L 271.381181 248.69111 
L 274.047696 247.641485 
L 274.809557 247.551517 
L 275.95235 247.131667 
L 277.857003 246.142021 
L 280.142587 244.792503 
L 280.904449 244.582578 
L 282.047241 243.982792 
L 282.809102 243.832845 
L 283.570964 243.353017 
L 284.332825 243.143092 
L 285.475617 242.663263 
L 286.99934 242.453338 
L 287.761202 242.033488 
L 288.142132 241.673617 
L 288.523063 240.953874 
L 290.046786 240.504034 
L 291.570509 239.784291 
L 294.998885 238.194859 
L 295.760746 238.014923 
L 296.903539 237.415137 
L 297.284469 237.355159 
L 299.189123 236.365512 
L 299.950984 235.855694 
L 301.093776 235.61578 
L 303.760291 234.716101 
L 309.855183 231.80714 
L 310.236113 231.38729 
L 310.617044 231.147376 
L 310.997975 231.057408 
L 311.759836 230.397644 
L 312.140767 230.337665 
L 312.521698 229.677901 
L 312.902628 229.527954 
L 313.283559 229.198072 
L 313.66449 229.138094 
L 314.426351 228.628276 
L 315.188213 228.358372 
L 315.569143 228.058479 
L 315.950074 227.908533 
L 317.473797 226.918886 
L 318.616589 226.3191 
L 319.37845 226.109175 
L 320.140312 225.659336 
L 320.521242 224.969582 
L 321.283104 224.369797 
L 321.664035 224.279829 
L 323.949619 223.140236 
L 324.71148 222.810353 
L 325.473342 222.240557 
L 326.616134 221.130953 
L 327.377995 220.651125 
L 327.758926 220.201285 
L 329.282649 219.091682 
L 330.04451 218.281971 
L 330.806372 218.012067 
L 331.568233 217.47226 
L 332.711025 216.842485 
L 333.091956 216.782506 
L 336.520332 214.983149 
L 337.282194 214.773224 
L 338.805916 214.233417 
L 339.186847 213.903534 
L 340.71057 213.273759 
L 341.091501 213.153802 
L 341.853362 212.643984 
L 342.615224 212.314102 
L 343.377085 211.744306 
L 344.138946 210.154873 
L 344.900808 209.255195 
L 346.0436 208.625419 
L 346.805461 208.295537 
L 347.186392 208.235559 
L 347.948253 207.875687 
L 349.471976 207.33588 
L 350.233838 206.886041 
L 350.995699 206.526169 
L 351.37663 206.406212 
L 353.662214 204.966726 
L 354.043145 204.516887 
L 355.185937 203.827133 
L 355.566868 203.677187 
L 356.328729 203.197358 
L 357.852452 202.327669 
L 358.233383 202.237701 
L 358.614313 201.907819 
L 361.280828 201.00814 
L 361.661759 200.738236 
L 362.42362 200.498322 
L 365.471066 198.998858 
L 366.232928 198.579007 
L 366.613858 198.399072 
L 367.37572 197.769297 
L 368.137581 197.559372 
L 368.518512 197.1995 
L 368.899442 197.139522 
L 369.661304 196.539736 
L 371.565957 195.370154 
L 372.327819 195.130239 
L 372.70875 194.890325 
L 373.08968 194.830346 
L 374.613403 194.080614 
L 375.756195 193.690753 
L 376.518057 193.570796 
L 378.041779 192.97101 
L 378.42271 192.941021 
L 379.946433 192.341235 
L 381.089225 191.501535 
L 381.470156 191.351589 
L 382.232017 190.901749 
L 382.612948 190.811782 
L 384.898532 189.462263 
L 385.279463 189.372296 
L 386.422255 188.652553 
L 387.565047 188.232703 
L 388.326909 187.962799 
L 389.850631 187.422992 
L 390.612493 187.153088 
L 392.136216 186.823206 
L 392.898077 186.583292 
L 394.802731 185.923527 
L 395.945523 185.563656 
L 396.326454 185.413709 
L 397.469246 185.233774 
L 399.75483 184.783934 
L 400.897622 184.514031 
L 401.278553 184.334095 
L 402.040414 184.184149 
L 402.802276 183.974223 
L 403.564137 183.614352 
L 403.945068 183.464406 
L 404.325998 183.464406 
L 408.516236 182.114888 
L 408.897167 181.904963 
L 409.278098 181.904963 
L 410.039959 181.60507 
L 410.42089 181.18522 
L 412.706474 180.195573 
L 414.230197 179.655766 
L 414.611128 179.415851 
L 415.75392 179.05598 
L 416.515781 178.846055 
L 416.896712 178.576151 
L 417.277643 178.486184 
L 417.658573 178.156301 
L 418.801365 177.916387 
L 419.563227 177.556516 
L 419.944157 177.076687 
L 424.134395 176.11703 
L 424.515326 176.11703 
L 425.277187 175.877115 
L 428.705564 174.977437 
L 429.086494 174.82749 
L 429.848356 174.677544 
L 431.753009 174.167726 
L 432.895802 173.807854 
L 434.800455 173.178079 
L 435.562317 172.848197 
L 436.324178 172.548304 
L 436.705109 172.278401 
L 437.46697 172.038486 
L 440.133485 170.988861 
L 441.657208 170.808925 
L 444.704654 169.639343 
L 445.085584 169.33945 
L 445.466515 169.249482 
L 445.847446 169.039557 
L 446.228376 169.009568 
L 450.418614 167.420136 
L 452.323268 166.880328 
L 453.085129 166.490468 
L 454.227921 166.220564 
L 455.751644 164.931025 
L 457.275367 164.241271 
L 458.79909 163.581507 
L 459.18002 163.491539 
L 459.560951 163.221635 
L 460.322813 162.981721 
L 460.703743 162.711817 
L 462.608397 162.052053 
L 466.417704 160.04277 
L 467.179565 159.682899 
L 467.560496 159.383006 
L 468.322357 159.113102 
L 470.607942 157.973509 
L 470.988872 157.883542 
L 472.131665 157.343734 
L 473.655387 156.803927 
L 474.417249 156.474045 
L 475.17911 156.354088 
L 475.560041 156.084184 
L 477.083764 155.784291 
L 477.845625 155.454409 
L 479.750279 154.524741 
L 484.702378 152.275544 
L 485.84517 151.885684 
L 486.226101 151.61578 
L 486.987962 151.525812 
L 487.368893 151.255909 
L 488.130754 151.135951 
L 488.892616 150.746091 
L 489.654477 150.506176 
L 491.1782 149.966369 
L 492.320992 149.546519 
L 494.225646 149.036701 
L 495.749369 148.376937 
L 496.51123 147.957087 
L 498.034953 147.147376 
L 498.796814 146.96744 
L 499.177745 146.727526 
L 499.558676 146.637558 
L 501.463329 145.677901 
L 504.510775 144.568297 
L 504.891706 144.44834 
L 505.653567 144.02849 
L 507.558221 143.338736 
L 509.843805 142.379079 
L 511.367528 141.629347 
L 515.176835 140.069904 
L 515.938696 139.680043 
L 516.319627 139.590075 
L 517.081488 139.290182 
L 517.462419 139.290182 
L 518.22428 138.930311 
L 519.748003 137.610782 
L 520.128934 137.490825 
L 520.509865 137.25091 
L 521.652657 136.921028 
L 522.033587 136.621135 
L 522.795449 136.351232 
L 523.938241 135.57151 
L 524.700102 135.361585 
L 525.461964 134.941735 
L 526.604756 134.671831 
L 528.509409 133.982078 
L 529.271271 133.742164 
L 530.033132 133.382292 
L 531.175924 132.752517 
L 531.937786 132.542592 
L 533.461509 131.822849 
L 535.747093 131.013138 
L 536.889885 130.473331 
L 538.794539 129.513674 
L 539.5564 129.213781 
L 539.937331 128.853909 
L 541.080123 128.40407 
L 541.461054 128.344091 
L 542.984776 127.624348 
L 544.127569 127.264477 
L 545.270361 126.844627 
L 546.032222 126.604713 
L 546.794084 126.454766 
L 547.555945 126.034916 
L 547.936876 125.88497 
L 548.317806 125.585077 
L 549.460598 125.285184 
L 550.22246 124.985291 
L 550.984321 124.655409 
L 552.508044 124.025634 
L 555.174559 123.305891 
L 555.936421 123.005998 
L 557.460143 122.706105 
L 558.222005 122.556159 
L 559.364797 122.106319 
L 560.507589 121.866405 
L 562.793173 120.486898 
L 563.935965 119.767155 
L 566.22155 119.047412 
L 566.60248 118.747519 
L 569.649926 117.637915 
L 570.792718 117.278044 
L 571.55458 116.858194 
L 572.316441 116.648268 
L 572.697372 116.438343 
L 573.459233 116.288397 
L 574.982956 115.688611 
L 575.744817 115.178793 
L 576.88761 114.8789 
L 578.030402 114.099179 
L 578.411332 114.0392 
L 579.935055 113.409425 
L 581.458778 113.019564 
L 581.839709 112.959586 
L 582.220639 112.77965 
L 582.60157 112.749661 
L 583.363432 112.479757 
L 583.744362 112.449768 
L 584.887154 111.999929 
L 586.410877 111.550089 
L 587.172739 110.950303 
L 588.696461 110.080614 
L 589.077392 109.990646 
L 589.458323 109.780721 
L 589.839254 109.720743 
L 593.26763 107.981364 
L 593.648561 107.621492 
L 595.553214 107.141664 
L 596.696006 106.601856 
L 597.457868 106.391931 
L 597.838798 106.211996 
L 598.219729 105.882114 
L 600.124383 105.19236 
L 605.076482 103.333024 
L 605.838343 103.183077 
L 607.742997 102.553302 
L 608.885789 102.043484 
L 611.552304 101.233774 
L 612.314165 100.783934 
L 625.26581 96.76537 
L 626.027671 96.555444 
L 627.170463 96.135594 
L 627.551394 96.135594 
L 628.694186 95.865691 
L 629.456047 95.715744 
L 630.217909 95.505819 
L 631.360701 94.876044 
L 632.503493 94.516173 
L 635.170008 93.586505 
L 636.693731 92.806783 
L 637.836523 92.53688 
L 638.598384 92.296965 
L 639.360246 91.907105 
L 639.741176 91.577222 
L 640.503038 91.337308 
L 640.883969 91.097394 
L 641.64583 91.007426 
L 644.312345 90.227704 
L 645.455137 89.98779 
L 646.597929 89.687897 
L 647.359791 89.507961 
L 648.502583 88.908176 
L 652.692821 87.318743 
L 653.073751 87.228775 
L 653.454682 87.01885 
L 654.216543 86.898893 
L 654.978405 86.748947 
L 655.359336 86.748947 
L 656.502128 86.389075 
L 657.64492 86.029204 
L 661.073296 85.039557 
L 661.835158 84.829632 
L 662.216088 84.739664 
L 662.597019 84.49975 
L 663.35888 84.349804 
L 664.120742 84.259836 
L 664.501673 84.049911 
L 664.882603 84.019921 
L 666.025395 83.480114 
L 667.168188 83.210211 
L 667.930049 82.880328 
L 668.69191 82.610425 
L 669.453772 82.4005 
L 670.215633 82.070618 
L 670.596564 82.010639 
L 671.358425 81.740735 
L 672.501217 81.410853 
L 673.263079 81.350875 
L 674.405871 80.931025 
L 675.167732 80.811067 
L 677.834247 79.821421 
L 680.119832 79.43156 
L 680.881693 79.191646 
L 681.262624 79.131667 
L 682.024485 78.801785 
L 682.405416 78.741806 
L 682.786347 78.561871 
L 683.548208 77.902106 
L 687.357515 76.49261 
L 689.643099 75.892824 
L 690.404961 75.472974 
L 690.785891 75.383006 
L 691.928684 74.753231 
L 692.309614 74.663263 
L 692.690545 74.36337 
L 693.833337 74.033488 
L 699.928228 71.274473 
L 700.309159 71.214495 
L 702.594743 70.044913 
L 702.975674 69.804998 
L 704.118466 69.475116 
L 705.642189 68.845341 
L 706.02312 68.815352 
L 707.927773 68.095609 
L 708.689635 67.945662 
L 709.451496 67.375866 
L 709.832427 67.375866 
L 710.594288 67.105962 
L 710.975219 67.045984 
L 711.35615 66.836059 
L 712.879873 66.536166 
L 714.403595 65.876401 
L 714.784526 65.876401 
L 715.927318 65.486541 
L 716.68918 65.366583 
L 717.831972 64.706819 
L 718.593833 64.316958 
L 720.498487 63.687183 
L 721.260348 63.357301 
L 723.545932 62.727526 
L 724.688725 62.487612 
L 725.831517 62.067762 
L 727.73617 61.378008 
L 733.0692 60.058479 
L 734.592923 59.338736 
L 735.735715 58.978865 
L 738.40223 58.439057 
L 739.164091 58.3191 
L 741.449676 57.419422 
L 742.211537 57.299464 
L 743.73526 56.789647 
L 744.116191 56.789647 
L 744.497121 56.489754 
L 745.258983 56.249839 
L 745.639914 56.249839 
L 746.782706 55.8 
L 747.163636 55.8 
L 747.163636 55.8 
" clip-path="url(#peab06635a4)" style="fill: none; stroke: #1f77b4; stroke-width: 1.5; stroke-linecap: square"/>
   </g>
   <g id="line2d_40">
    <path d="M 138.817294 307.8 
L 142.245671 307.710032 
L 145.293116 307.560086 
L 146.816839 307.560086 
L 147.19777 307.440129 
L 149.102423 307.350161 
L 151.388008 307.080257 
L 153.673592 306.990289 
L 154.435453 306.900321 
L 157.101968 306.780364 
L 159.768483 306.690396 
L 161.673137 306.630418 
L 166.625236 306.54045 
L 168.52989 306.480471 
L 171.958266 306.390503 
L 173.481989 306.360514 
L 177.291296 306.270546 
L 178.815019 306.1206 
L 180.338742 306.09061 
L 182.624326 306.000643 
L 184.148049 305.970653 
L 186.052702 305.910675 
L 187.576425 305.760728 
L 191.004801 305.67076 
L 191.766663 305.610782 
L 193.290386 305.520814 
L 195.57597 305.430846 
L 197.099693 305.340878 
L 203.956446 304.891039 
L 206.622961 304.801071 
L 207.765753 304.681114 
L 209.670406 304.591146 
L 213.479713 304.381221 
L 217.28902 304.321242 
L 218.812743 304.141307 
L 220.717397 304.051339 
L 224.526704 303.661478 
L 226.812288 303.361585 
L 228.336011 303.301607 
L 231.383457 302.881757 
L 233.669041 302.821778 
L 234.811833 302.701821 
L 235.954625 302.611853 
L 255.763022 301.142378 
L 258.429537 301.05241 
L 259.95326 300.872474 
L 261.857913 300.782506 
L 264.143498 300.692538 
L 266.048151 300.602571 
L 267.571874 300.572581 
L 269.476527 300.512603 
L 270.238389 300.422635 
L 275.571419 300.332667 
L 276.33328 300.242699 
L 280.904449 300.152731 
L 284.332825 299.972795 
L 286.99934 299.882828 
L 288.523063 299.702892 
L 291.189578 299.612924 
L 291.951439 299.492967 
L 293.856093 299.432988 
L 297.6654 299.37301 
L 299.189123 299.223063 
L 300.712846 299.193074 
L 301.855638 299.103106 
L 303.379361 298.95316 
L 307.188668 298.743235 
L 310.997975 298.653267 
L 314.426351 298.473331 
L 315.569143 298.443342 
L 316.331005 298.323385 
L 318.235658 298.233417 
L 318.99752 298.173438 
L 319.759381 298.113459 
L 320.521242 298.053481 
L 324.33055 297.963513 
L 332.711025 297.393717 
L 333.472887 297.333738 
L 334.615679 297.24377 
L 337.282194 297.153802 
L 339.186847 297.093824 
L 344.519877 297.003856 
L 345.281739 296.913888 
L 350.614768 296.82392 
L 354.424076 296.613995 
L 355.185937 296.584006 
L 355.947798 296.494038 
L 357.852452 296.40407 
L 359.757105 296.344091 
L 361.661759 296.254124 
L 363.566413 296.194145 
L 366.994789 296.104177 
L 369.280373 296.014209 
L 374.613403 295.924241 
L 378.803641 295.684327 
L 380.327364 295.624348 
L 381.470156 295.534381 
L 386.803186 295.444413 
L 389.08877 295.354445 
L 395.945523 295.264477 
L 397.469246 295.234488 
L 402.040414 295.174509 
L 402.802276 295.114531 
L 408.135305 295.024563 
L 409.659028 294.994573 
L 419.563227 294.904605 
L 421.848811 294.814638 
L 437.847901 294.72467 
L 439.752554 294.664691 
L 449.656753 294.604713 
L 450.418614 294.544734 
L 452.323268 294.484755 
L 453.46606 294.364798 
L 455.751644 294.27483 
L 458.418159 294.154873 
L 461.846535 294.064905 
L 463.751189 294.004927 
L 466.417704 293.914959 
L 469.46515 293.765012 
L 471.369803 293.675045 
L 472.893526 293.645055 
L 479.369348 293.555087 
L 481.654932 293.46512 
L 485.84517 293.375152 
L 488.511685 293.255195 
L 491.1782 293.195216 
L 491.940061 293.135237 
L 501.082398 293.04527 
L 504.891706 292.835345 
L 507.558221 292.745377 
L 511.748458 292.505462 
L 514.414973 292.415494 
L 515.938696 292.385505 
L 518.605211 292.295537 
L 520.509865 292.085612 
L 524.319172 291.995644 
L 525.081033 291.905677 
L 528.89034 291.815709 
L 530.794994 291.75573 
L 534.985232 291.725741 
L 535.747093 291.635773 
L 539.937331 291.545805 
L 540.699192 291.485826 
L 549.079668 291.395859 
L 551.365252 291.305891 
L 557.079213 291.215923 
L 558.602935 291.185934 
L 562.031312 291.125955 
L 562.793173 291.035987 
L 567.745272 290.946019 
L 569.649926 290.886041 
L 576.506679 290.796073 
L 577.649471 290.706105 
L 578.792263 290.616137 
L 579.935055 290.526169 
L 585.649016 290.436201 
L 587.9346 290.346233 
L 598.981591 290.256266 
L 602.409967 290.07633 
L 607.742997 289.986362 
L 609.26672 289.956373 
L 613.837888 289.866405 
L 615.742542 289.806426 
L 623.742087 289.716458 
L 626.408602 289.596501 
L 633.265354 289.506533 
L 634.789077 289.476544 
L 638.598384 289.386576 
L 641.264899 289.266619 
L 645.455137 289.176651 
L 648.121652 289.056694 
L 651.550028 288.996715 
L 652.31189 288.936737 
L 660.692365 288.846769 
L 662.97795 288.756801 
L 665.644465 288.666833 
L 667.549118 288.606855 
L 678.596109 288.516887 
L 680.881693 288.426919 
L 686.976584 288.336951 
L 689.262169 288.246983 
L 694.214268 288.157015 
L 696.499852 288.067047 
L 699.547298 287.97708 
L 701.832882 287.887112 
L 717.07011 287.797144 
L 720.117556 287.647197 
L 728.878962 287.55723 
L 730.402685 287.52724 
L 739.545022 287.437272 
L 741.449676 287.377294 
L 747.163636 287.377294 
L 747.163636 287.377294 
" clip-path="url(#peab06635a4)" style="fill: none; stroke: #ff7f0e; stroke-width: 1.5; stroke-linecap: square"/>
   </g>
   <g id="patch_3">
    <path d="M 108 320.4 
L 108 43.2 
" style="fill: none; stroke: #a9a9a9; stroke-width: 0.8; stroke-linejoin: miter; stroke-linecap: square"/>
   </g>
   <g id="patch_4">
    <path d="M 777.6 320.4 
L 777.6 43.2 
" style="fill: none"/>
   </g>
   <g id="patch_5">
    <path d="M 108 320.4 
L 777.6 320.4 
" style="fill: none; stroke: #a9a9a9; stroke-width: 0.8; stroke-linejoin: miter; stroke-linecap: square"/>
   </g>
   <g id="patch_6">
    <path d="M 108 43.2 
L 777.6 43.2 
" style="fill: none"/>
   </g>
   <g id="text_20">
    <!-- get_subscribe history -->
    <g style="fill: #a9a9a9" transform="translate(378.6075 37.2) scale(0.12 -0.12)">
     <defs>
      <path id="DejaVuSans-67" d="M 2906 1791 
Q 2906 2416 2648 2759 
Q 2391 3103 1925 3103 
Q 1463 3103 1205 2759 
Q 947 2416 947 1791 
Q 947 1169 1205 825 
Q 1463 481 1925 481 
Q 2391 481 2648 825 
Q 2906 1169 2906 1791 
z
M 3481 434 
Q 3481 -459 3084 -895 
Q 2688 -1331 1869 -1331 
Q 1566 -1331 1297 -1286 
Q 1028 -1241 775 -1147 
L 775 -588 
Q 1028 -725 1275 -790 
Q 1522 -856 1778 -856 
Q 2344 -856 2625 -561 
Q 2906 -266 2906 331 
L 2906 616 
Q 2728 306 2450 153 
Q 2172 0 1784 0 
Q 1141 0 747 490 
Q 353 981 353 1791 
Q 353 2603 747 3093 
Q 1141 3584 1784 3584 
Q 2172 3584 2450 3431 
Q 2728 3278 2906 2969 
L 2906 3500 
L 3481 3500 
L 3481 434 
z
" transform="scale(0.015625)"/>
      <path id="DejaVuSans-65" d="M 3597 1894 
L 3597 1613 
L 953 1613 
Q 991 1019 1311 708 
Q 1631 397 2203 397 
Q 2534 397 2845 478 
Q 3156 559 3463 722 
L 3463 178 
Q 3153 47 2828 -22 
Q 2503 -91 2169 -91 
Q 1331 -91 842 396 
Q 353 884 353 1716 
Q 353 2575 817 3079 
Q 1281 3584 2069 3584 
Q 2775 3584 3186 3129 
Q 3597 2675 3597 1894 
z
M 3022 2063 
Q 3016 2534 2758 2815 
Q 2500 3097 2075 3097 
Q 1594 3097 1305 2825 
Q 1016 2553 972 2059 
L 3022 2063 
z
" transform="scale(0.015625)"/>
      <path id="DejaVuSans-74" d="M 1172 4494 
L 1172 3500 
L 2356 3500 
L 2356 3053 
L 1172 3053 
L 1172 1153 
Q 1172 725 1289 603 
Q 1406 481 1766 481 
L 2356 481 
L 2356 0 
L 1766 0 
Q 1100 0 847 248 
Q 594 497 594 1153 
L 594 3053 
L 172 3053 
L 172 3500 
L 594 3500 
L 594 4494 
L 1172 4494 
z
" transform="scale(0.015625)"/>
      <path id="DejaVuSans-5f" d="M 3263 -1063 
L 3263 -1509 
L -63 -1509 
L -63 -1063 
L 3263 -1063 
z
" transform="scale(0.015625)"/>
      <path id="DejaVuSans-73" d="M 2834 3397 
L 2834 2853 
Q 2591 2978 2328 3040 
Q 2066 3103 1784 3103 
Q 1356 3103 1142 2972 
Q 928 2841 928 2578 
Q 928 2378 1081 2264 
Q 1234 2150 1697 2047 
L 1894 2003 
Q 2506 1872 2764 1633 
Q 3022 1394 3022 966 
Q 3022 478 2636 193 
Q 2250 -91 1575 -91 
Q 1294 -91 989 -36 
Q 684 19 347 128 
L 347 722 
Q 666 556 975 473 
Q 1284 391 1588 391 
Q 1994 391 2212 530 
Q 2431 669 2431 922 
Q 2431 1156 2273 1281 
Q 2116 1406 1581 1522 
L 1381 1569 
Q 847 1681 609 1914 
Q 372 2147 372 2553 
Q 372 3047 722 3315 
Q 1072 3584 1716 3584 
Q 2034 3584 2315 3537 
Q 2597 3491 2834 3397 
z
" transform="scale(0.015625)"/>
      <path id="DejaVuSans-75" d="M 544 1381 
L 544 3500 
L 1119 3500 
L 1119 1403 
Q 1119 906 1312 657 
Q 1506 409 1894 409 
Q 2359 409 2629 706 
Q 2900 1003 2900 1516 
L 2900 3500 
L 3475 3500 
L 3475 0 
L 2900 0 
L 2900 538 
Q 2691 219 2414 64 
Q 2138 -91 1772 -91 
Q 1169 -91 856 284 
Q 544 659 544 1381 
z
M 1991 3584 
L 1991 3584 
z
" transform="scale(0.015625)"/>
      <path id="DejaVuSans-62" d="M 3116 1747 
Q 3116 2381 2855 2742 
Q 2594 3103 2138 3103 
Q 1681 3103 1420 2742 
Q 1159 2381 1159 1747 
Q 1159 1113 1420 752 
Q 1681 391 2138 391 
Q 2594 391 2855 752 
Q 3116 1113 3116 1747 
z
M 1159 2969 
Q 1341 3281 1617 3432 
Q 1894 3584 2278 3584 
Q 2916 3584 3314 3078 
Q 3713 2572 3713 1747 
Q 3713 922 3314 415 
Q 2916 -91 2278 -91 
Q 1894 -91 1617 61 
Q 1341 213 1159 525 
L 1159 0 
L 581 0 
L 581 4863 
L 1159 4863 
L 1159 2969 
z
" transform="scale(0.015625)"/>
      <path id="DejaVuSans-63" d="M 3122 3366 
L 3122 2828 
Q 2878 2963 2633 3030 
Q 2388 3097 2138 3097 
Q 1578 3097 1268 2742 
Q 959 2388 959 1747 
Q 959 1106 1268 751 
Q 1578 397 2138 397 
Q 2388 397 2633 464 
Q 2878 531 3122 666 
L 3122 134 
Q 2881 22 2623 -34 
Q 2366 -91 2075 -91 
Q 1284 -91 818 406 
Q 353 903 353 1747 
Q 353 2603 823 3093 
Q 1294 3584 2113 3584 
Q 2378 3584 2631 3529 
Q 2884 3475 3122 3366 
z
" transform="scale(0.015625)"/>
      <path id="DejaVuSans-72" d="M 2631 2963 
Q 2534 3019 2420 3045 
Q 2306 3072 2169 3072 
Q 1681 3072 1420 2755 
Q 1159 2438 1159 1844 
L 1159 0 
L 581 0 
L 581 3500 
L 1159 3500 
L 1159 2956 
Q 1341 3275 1631 3429 
Q 1922 3584 2338 3584 
Q 2397 3584 2469 3576 
Q 2541 3569 2628 3553 
L 2631 2963 
z
" transform="scale(0.015625)"/>
      <path id="DejaVuSans-69" d="M 603 3500 
L 1178 3500 
L 1178 0 
L 603 0 
L 603 3500 
z
M 603 4863 
L 1178 4863 
L 1178 4134 
L 603 4134 
L 603 4863 
z
" transform="scale(0.015625)"/>
      <path id="DejaVuSans-20" transform="scale(0.015625)"/>
      <path id="DejaVuSans-68" d="M 3513 2113 
L 3513 0 
L 2938 0 
L 2938 2094 
Q 2938 2591 2744 2837 
Q 2550 3084 2163 3084 
Q 1697 3084 1428 2787 
Q 1159 2491 1159 1978 
L 1159 0 
L 581 0 
L 581 4863 
L 1159 4863 
L 1159 2956 
Q 1366 3272 1645 3428 
Q 1925 3584 2291 3584 
Q 2894 3584 3203 3211 
Q 3513 2838 3513 2113 
z
" transform="scale(0.015625)"/>
      <path id="DejaVuSans-6f" d="M 1959 3097 
Q 1497 3097 1228 2736 
Q 959 2375 959 1747 
Q 959 1119 1226 758 
Q 1494 397 1959 397 
Q 2419 397 2687 759 
Q 2956 1122 2956 1747 
Q 2956 2369 2687 2733 
Q 2419 3097 1959 3097 
z
M 1959 3584 
Q 2709 3584 3137 3096 
Q 3566 2609 3566 1747 
Q 3566 888 3137 398 
Q 2709 -91 1959 -91 
Q 1206 -91 779 398 
Q 353 888 353 1747 
Q 353 2609 779 3096 
Q 1206 3584 1959 3584 
z
" transform="scale(0.015625)"/>
      <path id="DejaVuSans-79" d="M 2059 -325 
Q 1816 -950 1584 -1140 
Q 1353 -1331 966 -1331 
L 506 -1331 
L 506 -850 
L 844 -850 
Q 1081 -850 1212 -737 
Q 1344 -625 1503 -206 
L 1606 56 
L 191 3500 
L 800 3500 
L 1894 763 
L 2988 3500 
L 3597 3500 
L 2059 -325 
z
" transform="scale(0.015625)"/>
     </defs>
     <use xlink:href="#DejaVuSans-67"/>
     <use xlink:href="#DejaVuSans-65" transform="translate(63.476562 0)"/>
     <use xlink:href="#DejaVuSans-74" transform="translate(125 0)"/>
     <use xlink:href="#DejaVuSans-5f" transform="translate(164.208984 0)"/>
     <use xlink:href="#DejaVuSans-73" transform="translate(214.208984 0)"/>
     <use xlink:href="#DejaVuSans-75" transform="translate(266.308594 0)"/>
     <use xlink:href="#DejaVuSans-62" transform="translate(329.6875 0)"/>
     <use xlink:href="#DejaVuSans-73" transform="translate(393.164062 0)"/>
     <use xlink:href="#DejaVuSans-63" transform="translate(445.263672 0)"/>
     <use xlink:href="#DejaVuSans-72" transform="translate(500.244141 0)"/>
     <use xlink:href="#DejaVuSans-69" transform="translate(541.357422 0)"/>
     <use xlink:href="#DejaVuSans-62" transform="translate(569.140625 0)"/>
     <use xlink:href="#DejaVuSans-65" transform="translate(632.617188 0)"/>
     <use xlink:href="#DejaVuSans-20" transform="translate(694.140625 0)"/>
     <use xlink:href="#DejaVuSans-68" transform="translate(725.927734 0)"/>
     <use xlink:href="#DejaVuSans-69" transform="translate(789.306641 0)"/>
     <use xlink:href="#DejaVuSans-73" transform="translate(817.089844 0)"/>
     <use xlink:href="#DejaVuSans-74" transform="translate(869.189453 0)"/>
     <use xlink:href="#DejaVuSans-6f" transform="translate(908.398438 0)"/>
     <use xlink:href="#DejaVuSans-72" transform="translate(969.580078 0)"/>
     <use xlink:href="#DejaVuSans-79" transform="translate(1010.693359 0)"/>
    </g>
   </g>
   <g id="legend_1">
    <g id="line2d_41">
     <path d="M 815.08 328.498438 
L 825.08 328.498438 
L 835.08 328.498438 
" style="fill: none; stroke: #1f77b4; stroke-width: 1.5; stroke-linecap: square"/>
    </g>
    <g id="text_21">
     <!-- star -->
     <g style="fill: #a9a9a9" transform="translate(843.08 331.998438) scale(0.1 -0.1)">
      <defs>
       <path id="DejaVuSans-61" d="M 2194 1759 
Q 1497 1759 1228 1600 
Q 959 1441 959 1056 
Q 959 750 1161 570 
Q 1363 391 1709 391 
Q 2188 391 2477 730 
Q 2766 1069 2766 1631 
L 2766 1759 
L 2194 1759 
z
M 3341 1997 
L 3341 0 
L 2766 0 
L 2766 531 
Q 2569 213 2275 61 
Q 1981 -91 1556 -91 
Q 1019 -91 701 211 
Q 384 513 384 1019 
Q 384 1609 779 1909 
Q 1175 2209 1959 2209 
L 2766 2209 
L 2766 2266 
Q 2766 2663 2505 2880 
Q 2244 3097 1772 3097 
Q 1472 3097 1187 3025 
Q 903 2953 641 2809 
L 641 3341 
Q 956 3463 1253 3523 
Q 1550 3584 1831 3584 
Q 2591 3584 2966 3190 
Q 3341 2797 3341 1997 
z
" transform="scale(0.015625)"/>
      </defs>
      <use xlink:href="#DejaVuSans-73"/>
      <use xlink:href="#DejaVuSans-74" transform="translate(52.099609 0)"/>
      <use xlink:href="#DejaVuSans-61" transform="translate(91.308594 0)"/>
      <use xlink:href="#DejaVuSans-72" transform="translate(152.587891 0)"/>
     </g>
    </g>
    <g id="line2d_42">
     <path d="M 815.08 343.176562 
L 825.08 343.176562 
L 835.08 343.176562 
" style="fill: none; stroke: #ff7f0e; stroke-width: 1.5; stroke-linecap: square"/>
    </g>
    <g id="text_22">
     <!-- fork -->
     <g style="fill: #a9a9a9" transform="translate(843.08 346.676562) scale(0.1 -0.1)">
      <defs>
       <path id="DejaVuSans-66" d="M 2375 4863 
L 2375 4384 
L 1825 4384 
Q 1516 4384 1395 4259 
Q 1275 4134 1275 3809 
L 1275 3500 
L 2222 3500 
L 2222 3053 
L 1275 3053 
L 1275 0 
L 697 0 
L 697 3053 
L 147 3053 
L 147 3500 
L 697 3500 
L 697 3744 
Q 697 4328 969 4595 
Q 1241 4863 1831 4863 
L 2375 4863 
z
" transform="scale(0.015625)"/>
       <path id="DejaVuSans-6b" d="M 581 4863 
L 1159 4863 
L 1159 1991 
L 2875 3500 
L 3609 3500 
L 1753 1863 
L 3688 0 
L 2938 0 
L 1159 1709 
L 1159 0 
L 581 0 
L 581 4863 
z
" transform="scale(0.015625)"/>
      </defs>
      <use xlink:href="#DejaVuSans-66"/>
      <use xlink:href="#DejaVuSans-6f" transform="translate(35.205078 0)"/>
      <use xlink:href="#DejaVuSans-72" transform="translate(96.386719 0)"/>
      <use xlink:href="#DejaVuSans-6b" transform="translate(137.5 0)"/>
     </g>
    </g>
   </g>
  </g>
 </g>
 <defs>
  <clipPath id="peab06635a4">
   <rect x="108" y="43.2" width="669.6" height="277.2"/>
  </clipPath>
 </defs>
</svg>
