<?xml version="1.0" encoding="utf-8" standalone="no"?>
<!DOCTYPE svg PUBLIC "-//W3C//DTD SVG 1.1//EN"
  "http://www.w3.org/Graphics/SVG/1.1/DTD/svg11.dtd">
<svg xmlns:xlink="http://www.w3.org/1999/xlink" width="864pt" height="360pt" viewBox="0 0 864 360" xmlns="http://www.w3.org/2000/svg" version="1.1">
 <metadata>
  <rdf:RDF xmlns:dc="http://purl.org/dc/elements/1.1/" xmlns:cc="http://creativecommons.org/ns#" xmlns:rdf="http://www.w3.org/1999/02/22-rdf-syntax-ns#">
   <cc:Work>
    <dc:type rdf:resource="http://purl.org/dc/dcmitype/StillImage"/>
    <dc:date>2025-08-26T20:07:24.601553</dc:date>
    <dc:format>image/svg+xml</dc:format>
    <dc:creator>
     <cc:Agent>
      <dc:title>Matplotlib v3.10.5, https://matplotlib.org/</dc:title>
     </cc:Agent>
    </dc:creator>
   </cc:Work>
  </rdf:RDF>
 </metadata>
 <defs>
  <style type="text/css">*{stroke-linejoin: round; stroke-linecap: butt}</style>
 </defs>
 <g id="figure_1">
  <g id="patch_1">
   <path d="M 0 360 
L 864 360 
L 864 0 
L 0 0 
L 0 360 
z
" style="fill: none; opacity: 0"/>
  </g>
  <g id="axes_1">
   <g id="patch_2">
    <path d="M 108 320.4 
L 777.6 320.4 
L 777.6 43.2 
L 108 43.2 
L 108 320.4 
z
" style="fill: none; opacity: 0"/>
   </g>
   <g id="matplotlib.axis_1">
    <g id="xtick_1">
     <g id="line2d_1">
      <path d="M 129.06506 320.4 
L 129.06506 43.2 
" clip-path="url(#p8edb976037)" style="fill: none; stroke-dasharray: 5.12,1.28,0.8,1.28; stroke-dashoffset: 0; stroke: #b0b0b0; stroke-width: 0.8"/>
     </g>
     <g id="line2d_2">
      <defs>
       <path id="mac4450d73a" d="M 0 0 
L 0 3.5 
" style="stroke: #a9a9a9; stroke-width: 0.8"/>
      </defs>
      <g>
       <use xlink:href="#mac4450d73a" x="129.06506" y="320.4" style="fill: #a9a9a9; stroke: #a9a9a9; stroke-width: 0.8"/>
      </g>
     </g>
     <g id="text_1">
      <!-- 2021-07 -->
      <g style="fill: #a9a9a9" transform="translate(108.173654 334.998438) scale(0.1 -0.1)">
       <defs>
        <path id="DejaVuSans-32" d="M 1228 531 
L 3431 531 
L 3431 0 
L 469 0 
L 469 531 
Q 828 903 1448 1529 
Q 2069 2156 2228 2338 
Q 2531 2678 2651 2914 
Q 2772 3150 2772 3378 
Q 2772 3750 2511 3984 
Q 2250 4219 1831 4219 
Q 1534 4219 1204 4116 
Q 875 4013 500 3803 
L 500 4441 
Q 881 4594 1212 4672 
Q 1544 4750 1819 4750 
Q 2544 4750 2975 4387 
Q 3406 4025 3406 3419 
Q 3406 3131 3298 2873 
Q 3191 2616 2906 2266 
Q 2828 2175 2409 1742 
Q 1991 1309 1228 531 
z
" transform="scale(0.015625)"/>
        <path id="DejaVuSans-30" d="M 2034 4250 
Q 1547 4250 1301 3770 
Q 1056 3291 1056 2328 
Q 1056 1369 1301 889 
Q 1547 409 2034 409 
Q 2525 409 2770 889 
Q 3016 1369 3016 2328 
Q 3016 3291 2770 3770 
Q 2525 4250 2034 4250 
z
M 2034 4750 
Q 2819 4750 3233 4129 
Q 3647 3509 3647 2328 
Q 3647 1150 3233 529 
Q 2819 -91 2034 -91 
Q 1250 -91 836 529 
Q 422 1150 422 2328 
Q 422 3509 836 4129 
Q 1250 4750 2034 4750 
z
" transform="scale(0.015625)"/>
        <path id="DejaVuSans-31" d="M 794 531 
L 1825 531 
L 1825 4091 
L 703 3866 
L 703 4441 
L 1819 4666 
L 2450 4666 
L 2450 531 
L 3481 531 
L 3481 0 
L 794 0 
L 794 531 
z
" transform="scale(0.015625)"/>
        <path id="DejaVuSans-2d" d="M 313 2009 
L 1997 2009 
L 1997 1497 
L 313 1497 
L 313 2009 
z
" transform="scale(0.015625)"/>
        <path id="DejaVuSans-37" d="M 525 4666 
L 3525 4666 
L 3525 4397 
L 1831 0 
L 1172 0 
L 2766 4134 
L 525 4134 
L 525 4666 
z
" transform="scale(0.015625)"/>
       </defs>
       <use xlink:href="#DejaVuSans-32"/>
       <use xlink:href="#DejaVuSans-30" transform="translate(63.623047 0)"/>
       <use xlink:href="#DejaVuSans-32" transform="translate(127.246094 0)"/>
       <use xlink:href="#DejaVuSans-31" transform="translate(190.869141 0)"/>
       <use xlink:href="#DejaVuSans-2d" transform="translate(254.492188 0)"/>
       <use xlink:href="#DejaVuSans-30" transform="translate(290.576172 0)"/>
       <use xlink:href="#DejaVuSans-37" transform="translate(354.199219 0)"/>
      </g>
     </g>
    </g>
    <g id="xtick_2">
     <g id="line2d_3">
      <path d="M 204.035487 320.4 
L 204.035487 43.2 
" clip-path="url(#p8edb976037)" style="fill: none; stroke-dasharray: 5.12,1.28,0.8,1.28; stroke-dashoffset: 0; stroke: #b0b0b0; stroke-width: 0.8"/>
     </g>
     <g id="line2d_4">
      <g>
       <use xlink:href="#mac4450d73a" x="204.035487" y="320.4" style="fill: #a9a9a9; stroke: #a9a9a9; stroke-width: 0.8"/>
      </g>
     </g>
     <g id="text_2">
      <!-- 2022-01 -->
      <g style="fill: #a9a9a9" transform="translate(183.144081 334.998438) scale(0.1 -0.1)">
       <use xlink:href="#DejaVuSans-32"/>
       <use xlink:href="#DejaVuSans-30" transform="translate(63.623047 0)"/>
       <use xlink:href="#DejaVuSans-32" transform="translate(127.246094 0)"/>
       <use xlink:href="#DejaVuSans-32" transform="translate(190.869141 0)"/>
       <use xlink:href="#DejaVuSans-2d" transform="translate(254.492188 0)"/>
       <use xlink:href="#DejaVuSans-30" transform="translate(290.576172 0)"/>
       <use xlink:href="#DejaVuSans-31" transform="translate(354.199219 0)"/>
      </g>
     </g>
    </g>
    <g id="xtick_3">
     <g id="line2d_5">
      <path d="M 277.783571 320.4 
L 277.783571 43.2 
" clip-path="url(#p8edb976037)" style="fill: none; stroke-dasharray: 5.12,1.28,0.8,1.28; stroke-dashoffset: 0; stroke: #b0b0b0; stroke-width: 0.8"/>
     </g>
     <g id="line2d_6">
      <g>
       <use xlink:href="#mac4450d73a" x="277.783571" y="320.4" style="fill: #a9a9a9; stroke: #a9a9a9; stroke-width: 0.8"/>
      </g>
     </g>
     <g id="text_3">
      <!-- 2022-07 -->
      <g style="fill: #a9a9a9" transform="translate(256.892164 334.998438) scale(0.1 -0.1)">
       <use xlink:href="#DejaVuSans-32"/>
       <use xlink:href="#DejaVuSans-30" transform="translate(63.623047 0)"/>
       <use xlink:href="#DejaVuSans-32" transform="translate(127.246094 0)"/>
       <use xlink:href="#DejaVuSans-32" transform="translate(190.869141 0)"/>
       <use xlink:href="#DejaVuSans-2d" transform="translate(254.492188 0)"/>
       <use xlink:href="#DejaVuSans-30" transform="translate(290.576172 0)"/>
       <use xlink:href="#DejaVuSans-37" transform="translate(354.199219 0)"/>
      </g>
     </g>
    </g>
    <g id="xtick_4">
     <g id="line2d_7">
      <path d="M 352.753998 320.4 
L 352.753998 43.2 
" clip-path="url(#p8edb976037)" style="fill: none; stroke-dasharray: 5.12,1.28,0.8,1.28; stroke-dashoffset: 0; stroke: #b0b0b0; stroke-width: 0.8"/>
     </g>
     <g id="line2d_8">
      <g>
       <use xlink:href="#mac4450d73a" x="352.753998" y="320.4" style="fill: #a9a9a9; stroke: #a9a9a9; stroke-width: 0.8"/>
      </g>
     </g>
     <g id="text_4">
      <!-- 2023-01 -->
      <g style="fill: #a9a9a9" transform="translate(331.862592 334.998438) scale(0.1 -0.1)">
       <defs>
        <path id="DejaVuSans-33" d="M 2597 2516 
Q 3050 2419 3304 2112 
Q 3559 1806 3559 1356 
Q 3559 666 3084 287 
Q 2609 -91 1734 -91 
Q 1441 -91 1130 -33 
Q 819 25 488 141 
L 488 750 
Q 750 597 1062 519 
Q 1375 441 1716 441 
Q 2309 441 2620 675 
Q 2931 909 2931 1356 
Q 2931 1769 2642 2001 
Q 2353 2234 1838 2234 
L 1294 2234 
L 1294 2753 
L 1863 2753 
Q 2328 2753 2575 2939 
Q 2822 3125 2822 3475 
Q 2822 3834 2567 4026 
Q 2313 4219 1838 4219 
Q 1578 4219 1281 4162 
Q 984 4106 628 3988 
L 628 4550 
Q 988 4650 1302 4700 
Q 1616 4750 1894 4750 
Q 2613 4750 3031 4423 
Q 3450 4097 3450 3541 
Q 3450 3153 3228 2886 
Q 3006 2619 2597 2516 
z
" transform="scale(0.015625)"/>
       </defs>
       <use xlink:href="#DejaVuSans-32"/>
       <use xlink:href="#DejaVuSans-30" transform="translate(63.623047 0)"/>
       <use xlink:href="#DejaVuSans-32" transform="translate(127.246094 0)"/>
       <use xlink:href="#DejaVuSans-33" transform="translate(190.869141 0)"/>
       <use xlink:href="#DejaVuSans-2d" transform="translate(254.492188 0)"/>
       <use xlink:href="#DejaVuSans-30" transform="translate(290.576172 0)"/>
       <use xlink:href="#DejaVuSans-31" transform="translate(354.199219 0)"/>
      </g>
     </g>
    </g>
    <g id="xtick_5">
     <g id="line2d_9">
      <path d="M 426.502081 320.4 
L 426.502081 43.2 
" clip-path="url(#p8edb976037)" style="fill: none; stroke-dasharray: 5.12,1.28,0.8,1.28; stroke-dashoffset: 0; stroke: #b0b0b0; stroke-width: 0.8"/>
     </g>
     <g id="line2d_10">
      <g>
       <use xlink:href="#mac4450d73a" x="426.502081" y="320.4" style="fill: #a9a9a9; stroke: #a9a9a9; stroke-width: 0.8"/>
      </g>
     </g>
     <g id="text_5">
      <!-- 2023-07 -->
      <g style="fill: #a9a9a9" transform="translate(405.610675 334.998438) scale(0.1 -0.1)">
       <use xlink:href="#DejaVuSans-32"/>
       <use xlink:href="#DejaVuSans-30" transform="translate(63.623047 0)"/>
       <use xlink:href="#DejaVuSans-32" transform="translate(127.246094 0)"/>
       <use xlink:href="#DejaVuSans-33" transform="translate(190.869141 0)"/>
       <use xlink:href="#DejaVuSans-2d" transform="translate(254.492188 0)"/>
       <use xlink:href="#DejaVuSans-30" transform="translate(290.576172 0)"/>
       <use xlink:href="#DejaVuSans-37" transform="translate(354.199219 0)"/>
      </g>
     </g>
    </g>
    <g id="xtick_6">
     <g id="line2d_11">
      <path d="M 501.472508 320.4 
L 501.472508 43.2 
" clip-path="url(#p8edb976037)" style="fill: none; stroke-dasharray: 5.12,1.28,0.8,1.28; stroke-dashoffset: 0; stroke: #b0b0b0; stroke-width: 0.8"/>
     </g>
     <g id="line2d_12">
      <g>
       <use xlink:href="#mac4450d73a" x="501.472508" y="320.4" style="fill: #a9a9a9; stroke: #a9a9a9; stroke-width: 0.8"/>
      </g>
     </g>
     <g id="text_6">
      <!-- 2024-01 -->
      <g style="fill: #a9a9a9" transform="translate(480.581102 334.998438) scale(0.1 -0.1)">
       <defs>
        <path id="DejaVuSans-34" d="M 2419 4116 
L 825 1625 
L 2419 1625 
L 2419 4116 
z
M 2253 4666 
L 3047 4666 
L 3047 1625 
L 3713 1625 
L 3713 1100 
L 3047 1100 
L 3047 0 
L 2419 0 
L 2419 1100 
L 313 1100 
L 313 1709 
L 2253 4666 
z
" transform="scale(0.015625)"/>
       </defs>
       <use xlink:href="#DejaVuSans-32"/>
       <use xlink:href="#DejaVuSans-30" transform="translate(63.623047 0)"/>
       <use xlink:href="#DejaVuSans-32" transform="translate(127.246094 0)"/>
       <use xlink:href="#DejaVuSans-34" transform="translate(190.869141 0)"/>
       <use xlink:href="#DejaVuSans-2d" transform="translate(254.492188 0)"/>
       <use xlink:href="#DejaVuSans-30" transform="translate(290.576172 0)"/>
       <use xlink:href="#DejaVuSans-31" transform="translate(354.199219 0)"/>
      </g>
     </g>
    </g>
    <g id="xtick_7">
     <g id="line2d_13">
      <path d="M 575.628039 320.4 
L 575.628039 43.2 
" clip-path="url(#p8edb976037)" style="fill: none; stroke-dasharray: 5.12,1.28,0.8,1.28; stroke-dashoffset: 0; stroke: #b0b0b0; stroke-width: 0.8"/>
     </g>
     <g id="line2d_14">
      <g>
       <use xlink:href="#mac4450d73a" x="575.628039" y="320.4" style="fill: #a9a9a9; stroke: #a9a9a9; stroke-width: 0.8"/>
      </g>
     </g>
     <g id="text_7">
      <!-- 2024-07 -->
      <g style="fill: #a9a9a9" transform="translate(554.736633 334.998438) scale(0.1 -0.1)">
       <use xlink:href="#DejaVuSans-32"/>
       <use xlink:href="#DejaVuSans-30" transform="translate(63.623047 0)"/>
       <use xlink:href="#DejaVuSans-32" transform="translate(127.246094 0)"/>
       <use xlink:href="#DejaVuSans-34" transform="translate(190.869141 0)"/>
       <use xlink:href="#DejaVuSans-2d" transform="translate(254.492188 0)"/>
       <use xlink:href="#DejaVuSans-30" transform="translate(290.576172 0)"/>
       <use xlink:href="#DejaVuSans-37" transform="translate(354.199219 0)"/>
      </g>
     </g>
    </g>
    <g id="xtick_8">
     <g id="line2d_15">
      <path d="M 650.598467 320.4 
L 650.598467 43.2 
" clip-path="url(#p8edb976037)" style="fill: none; stroke-dasharray: 5.12,1.28,0.8,1.28; stroke-dashoffset: 0; stroke: #b0b0b0; stroke-width: 0.8"/>
     </g>
     <g id="line2d_16">
      <g>
       <use xlink:href="#mac4450d73a" x="650.598467" y="320.4" style="fill: #a9a9a9; stroke: #a9a9a9; stroke-width: 0.8"/>
      </g>
     </g>
     <g id="text_8">
      <!-- 2025-01 -->
      <g style="fill: #a9a9a9" transform="translate(629.70706 334.998438) scale(0.1 -0.1)">
       <defs>
        <path id="DejaVuSans-35" d="M 691 4666 
L 3169 4666 
L 3169 4134 
L 1269 4134 
L 1269 2991 
Q 1406 3038 1543 3061 
Q 1681 3084 1819 3084 
Q 2600 3084 3056 2656 
Q 3513 2228 3513 1497 
Q 3513 744 3044 326 
Q 2575 -91 1722 -91 
Q 1428 -91 1123 -41 
Q 819 9 494 109 
L 494 744 
Q 775 591 1075 516 
Q 1375 441 1709 441 
Q 2250 441 2565 725 
Q 2881 1009 2881 1497 
Q 2881 1984 2565 2268 
Q 2250 2553 1709 2553 
Q 1456 2553 1204 2497 
Q 953 2441 691 2322 
L 691 4666 
z
" transform="scale(0.015625)"/>
       </defs>
       <use xlink:href="#DejaVuSans-32"/>
       <use xlink:href="#DejaVuSans-30" transform="translate(63.623047 0)"/>
       <use xlink:href="#DejaVuSans-32" transform="translate(127.246094 0)"/>
       <use xlink:href="#DejaVuSans-35" transform="translate(190.869141 0)"/>
       <use xlink:href="#DejaVuSans-2d" transform="translate(254.492188 0)"/>
       <use xlink:href="#DejaVuSans-30" transform="translate(290.576172 0)"/>
       <use xlink:href="#DejaVuSans-31" transform="translate(354.199219 0)"/>
      </g>
     </g>
    </g>
    <g id="xtick_9">
     <g id="line2d_17">
      <path d="M 724.34655 320.4 
L 724.34655 43.2 
" clip-path="url(#p8edb976037)" style="fill: none; stroke-dasharray: 5.12,1.28,0.8,1.28; stroke-dashoffset: 0; stroke: #b0b0b0; stroke-width: 0.8"/>
     </g>
     <g id="line2d_18">
      <g>
       <use xlink:href="#mac4450d73a" x="724.34655" y="320.4" style="fill: #a9a9a9; stroke: #a9a9a9; stroke-width: 0.8"/>
      </g>
     </g>
     <g id="text_9">
      <!-- 2025-07 -->
      <g style="fill: #a9a9a9" transform="translate(703.455144 334.998438) scale(0.1 -0.1)">
       <use xlink:href="#DejaVuSans-32"/>
       <use xlink:href="#DejaVuSans-30" transform="translate(63.623047 0)"/>
       <use xlink:href="#DejaVuSans-32" transform="translate(127.246094 0)"/>
       <use xlink:href="#DejaVuSans-35" transform="translate(190.869141 0)"/>
       <use xlink:href="#DejaVuSans-2d" transform="translate(254.492188 0)"/>
       <use xlink:href="#DejaVuSans-30" transform="translate(290.576172 0)"/>
       <use xlink:href="#DejaVuSans-37" transform="translate(354.199219 0)"/>
      </g>
     </g>
    </g>
   </g>
   <g id="matplotlib.axis_2">
    <g id="ytick_1">
     <g id="line2d_19">
      <path d="M 108 307.831231 
L 777.6 307.831231 
" clip-path="url(#p8edb976037)" style="fill: none; stroke-dasharray: 5.12,1.28,0.8,1.28; stroke-dashoffset: 0; stroke: #b0b0b0; stroke-width: 0.8"/>
     </g>
     <g id="line2d_20">
      <defs>
       <path id="mf2d62e216d" d="M 0 0 
L -3.5 0 
" style="stroke: #a9a9a9; stroke-width: 0.8"/>
      </defs>
      <g>
       <use xlink:href="#mf2d62e216d" x="108" y="307.831231" style="fill: #a9a9a9; stroke: #a9a9a9; stroke-width: 0.8"/>
      </g>
     </g>
     <g id="text_10">
      <!-- 0 -->
      <g style="fill: #a9a9a9" transform="translate(94.6375 311.630449) scale(0.1 -0.1)">
       <use xlink:href="#DejaVuSans-30"/>
      </g>
     </g>
    </g>
    <g id="ytick_2">
     <g id="line2d_21">
      <path d="M 108 276.600595 
L 777.6 276.600595 
" clip-path="url(#p8edb976037)" style="fill: none; stroke-dasharray: 5.12,1.28,0.8,1.28; stroke-dashoffset: 0; stroke: #b0b0b0; stroke-width: 0.8"/>
     </g>
     <g id="line2d_22">
      <g>
       <use xlink:href="#mf2d62e216d" x="108" y="276.600595" style="fill: #a9a9a9; stroke: #a9a9a9; stroke-width: 0.8"/>
      </g>
     </g>
     <g id="text_11">
      <!-- 1000 -->
      <g style="fill: #a9a9a9" transform="translate(75.55 280.399814) scale(0.1 -0.1)">
       <use xlink:href="#DejaVuSans-31"/>
       <use xlink:href="#DejaVuSans-30" transform="translate(63.623047 0)"/>
       <use xlink:href="#DejaVuSans-30" transform="translate(127.246094 0)"/>
       <use xlink:href="#DejaVuSans-30" transform="translate(190.869141 0)"/>
      </g>
     </g>
    </g>
    <g id="ytick_3">
     <g id="line2d_23">
      <path d="M 108 245.369959 
L 777.6 245.369959 
" clip-path="url(#p8edb976037)" style="fill: none; stroke-dasharray: 5.12,1.28,0.8,1.28; stroke-dashoffset: 0; stroke: #b0b0b0; stroke-width: 0.8"/>
     </g>
     <g id="line2d_24">
      <g>
       <use xlink:href="#mf2d62e216d" x="108" y="245.369959" style="fill: #a9a9a9; stroke: #a9a9a9; stroke-width: 0.8"/>
      </g>
     </g>
     <g id="text_12">
      <!-- 2000 -->
      <g style="fill: #a9a9a9" transform="translate(75.55 249.169178) scale(0.1 -0.1)">
       <use xlink:href="#DejaVuSans-32"/>
       <use xlink:href="#DejaVuSans-30" transform="translate(63.623047 0)"/>
       <use xlink:href="#DejaVuSans-30" transform="translate(127.246094 0)"/>
       <use xlink:href="#DejaVuSans-30" transform="translate(190.869141 0)"/>
      </g>
     </g>
    </g>
    <g id="ytick_4">
     <g id="line2d_25">
      <path d="M 108 214.139323 
L 777.6 214.139323 
" clip-path="url(#p8edb976037)" style="fill: none; stroke-dasharray: 5.12,1.28,0.8,1.28; stroke-dashoffset: 0; stroke: #b0b0b0; stroke-width: 0.8"/>
     </g>
     <g id="line2d_26">
      <g>
       <use xlink:href="#mf2d62e216d" x="108" y="214.139323" style="fill: #a9a9a9; stroke: #a9a9a9; stroke-width: 0.8"/>
      </g>
     </g>
     <g id="text_13">
      <!-- 3000 -->
      <g style="fill: #a9a9a9" transform="translate(75.55 217.938542) scale(0.1 -0.1)">
       <use xlink:href="#DejaVuSans-33"/>
       <use xlink:href="#DejaVuSans-30" transform="translate(63.623047 0)"/>
       <use xlink:href="#DejaVuSans-30" transform="translate(127.246094 0)"/>
       <use xlink:href="#DejaVuSans-30" transform="translate(190.869141 0)"/>
      </g>
     </g>
    </g>
    <g id="ytick_5">
     <g id="line2d_27">
      <path d="M 108 182.908688 
L 777.6 182.908688 
" clip-path="url(#p8edb976037)" style="fill: none; stroke-dasharray: 5.12,1.28,0.8,1.28; stroke-dashoffset: 0; stroke: #b0b0b0; stroke-width: 0.8"/>
     </g>
     <g id="line2d_28">
      <g>
       <use xlink:href="#mf2d62e216d" x="108" y="182.908688" style="fill: #a9a9a9; stroke: #a9a9a9; stroke-width: 0.8"/>
      </g>
     </g>
     <g id="text_14">
      <!-- 4000 -->
      <g style="fill: #a9a9a9" transform="translate(75.55 186.707906) scale(0.1 -0.1)">
       <use xlink:href="#DejaVuSans-34"/>
       <use xlink:href="#DejaVuSans-30" transform="translate(63.623047 0)"/>
       <use xlink:href="#DejaVuSans-30" transform="translate(127.246094 0)"/>
       <use xlink:href="#DejaVuSans-30" transform="translate(190.869141 0)"/>
      </g>
     </g>
    </g>
    <g id="ytick_6">
     <g id="line2d_29">
      <path d="M 108 151.678052 
L 777.6 151.678052 
" clip-path="url(#p8edb976037)" style="fill: none; stroke-dasharray: 5.12,1.28,0.8,1.28; stroke-dashoffset: 0; stroke: #b0b0b0; stroke-width: 0.8"/>
     </g>
     <g id="line2d_30">
      <g>
       <use xlink:href="#mf2d62e216d" x="108" y="151.678052" style="fill: #a9a9a9; stroke: #a9a9a9; stroke-width: 0.8"/>
      </g>
     </g>
     <g id="text_15">
      <!-- 5000 -->
      <g style="fill: #a9a9a9" transform="translate(75.55 155.477271) scale(0.1 -0.1)">
       <use xlink:href="#DejaVuSans-35"/>
       <use xlink:href="#DejaVuSans-30" transform="translate(63.623047 0)"/>
       <use xlink:href="#DejaVuSans-30" transform="translate(127.246094 0)"/>
       <use xlink:href="#DejaVuSans-30" transform="translate(190.869141 0)"/>
      </g>
     </g>
    </g>
    <g id="ytick_7">
     <g id="line2d_31">
      <path d="M 108 120.447416 
L 777.6 120.447416 
" clip-path="url(#p8edb976037)" style="fill: none; stroke-dasharray: 5.12,1.28,0.8,1.28; stroke-dashoffset: 0; stroke: #b0b0b0; stroke-width: 0.8"/>
     </g>
     <g id="line2d_32">
      <g>
       <use xlink:href="#mf2d62e216d" x="108" y="120.447416" style="fill: #a9a9a9; stroke: #a9a9a9; stroke-width: 0.8"/>
      </g>
     </g>
     <g id="text_16">
      <!-- 6000 -->
      <g style="fill: #a9a9a9" transform="translate(75.55 124.246635) scale(0.1 -0.1)">
       <defs>
        <path id="DejaVuSans-36" d="M 2113 2584 
Q 1688 2584 1439 2293 
Q 1191 2003 1191 1497 
Q 1191 994 1439 701 
Q 1688 409 2113 409 
Q 2538 409 2786 701 
Q 3034 994 3034 1497 
Q 3034 2003 2786 2293 
Q 2538 2584 2113 2584 
z
M 3366 4563 
L 3366 3988 
Q 3128 4100 2886 4159 
Q 2644 4219 2406 4219 
Q 1781 4219 1451 3797 
Q 1122 3375 1075 2522 
Q 1259 2794 1537 2939 
Q 1816 3084 2150 3084 
Q 2853 3084 3261 2657 
Q 3669 2231 3669 1497 
Q 3669 778 3244 343 
Q 2819 -91 2113 -91 
Q 1303 -91 875 529 
Q 447 1150 447 2328 
Q 447 3434 972 4092 
Q 1497 4750 2381 4750 
Q 2619 4750 2861 4703 
Q 3103 4656 3366 4563 
z
" transform="scale(0.015625)"/>
       </defs>
       <use xlink:href="#DejaVuSans-36"/>
       <use xlink:href="#DejaVuSans-30" transform="translate(63.623047 0)"/>
       <use xlink:href="#DejaVuSans-30" transform="translate(127.246094 0)"/>
       <use xlink:href="#DejaVuSans-30" transform="translate(190.869141 0)"/>
      </g>
     </g>
    </g>
    <g id="ytick_8">
     <g id="line2d_33">
      <path d="M 108 89.21678 
L 777.6 89.21678 
" clip-path="url(#p8edb976037)" style="fill: none; stroke-dasharray: 5.12,1.28,0.8,1.28; stroke-dashoffset: 0; stroke: #b0b0b0; stroke-width: 0.8"/>
     </g>
     <g id="line2d_34">
      <g>
       <use xlink:href="#mf2d62e216d" x="108" y="89.21678" style="fill: #a9a9a9; stroke: #a9a9a9; stroke-width: 0.8"/>
      </g>
     </g>
     <g id="text_17">
      <!-- 7000 -->
      <g style="fill: #a9a9a9" transform="translate(75.55 93.015999) scale(0.1 -0.1)">
       <use xlink:href="#DejaVuSans-37"/>
       <use xlink:href="#DejaVuSans-30" transform="translate(63.623047 0)"/>
       <use xlink:href="#DejaVuSans-30" transform="translate(127.246094 0)"/>
       <use xlink:href="#DejaVuSans-30" transform="translate(190.869141 0)"/>
      </g>
     </g>
    </g>
    <g id="ytick_9">
     <g id="line2d_35">
      <path d="M 108 57.986145 
L 777.6 57.986145 
" clip-path="url(#p8edb976037)" style="fill: none; stroke-dasharray: 5.12,1.28,0.8,1.28; stroke-dashoffset: 0; stroke: #b0b0b0; stroke-width: 0.8"/>
     </g>
     <g id="line2d_36">
      <g>
       <use xlink:href="#mf2d62e216d" x="108" y="57.986145" style="fill: #a9a9a9; stroke: #a9a9a9; stroke-width: 0.8"/>
      </g>
     </g>
     <g id="text_18">
      <!-- 8000 -->
      <g style="fill: #a9a9a9" transform="translate(75.55 61.785363) scale(0.1 -0.1)">
       <defs>
        <path id="DejaVuSans-38" d="M 2034 2216 
Q 1584 2216 1326 1975 
Q 1069 1734 1069 1313 
Q 1069 891 1326 650 
Q 1584 409 2034 409 
Q 2484 409 2743 651 
Q 3003 894 3003 1313 
Q 3003 1734 2745 1975 
Q 2488 2216 2034 2216 
z
M 1403 2484 
Q 997 2584 770 2862 
Q 544 3141 544 3541 
Q 544 4100 942 4425 
Q 1341 4750 2034 4750 
Q 2731 4750 3128 4425 
Q 3525 4100 3525 3541 
Q 3525 3141 3298 2862 
Q 3072 2584 2669 2484 
Q 3125 2378 3379 2068 
Q 3634 1759 3634 1313 
Q 3634 634 3220 271 
Q 2806 -91 2034 -91 
Q 1263 -91 848 271 
Q 434 634 434 1313 
Q 434 1759 690 2068 
Q 947 2378 1403 2484 
z
M 1172 3481 
Q 1172 3119 1398 2916 
Q 1625 2713 2034 2713 
Q 2441 2713 2670 2916 
Q 2900 3119 2900 3481 
Q 2900 3844 2670 4047 
Q 2441 4250 2034 4250 
Q 1625 4250 1398 4047 
Q 1172 3844 1172 3481 
z
" transform="scale(0.015625)"/>
       </defs>
       <use xlink:href="#DejaVuSans-38"/>
       <use xlink:href="#DejaVuSans-30" transform="translate(63.623047 0)"/>
       <use xlink:href="#DejaVuSans-30" transform="translate(127.246094 0)"/>
       <use xlink:href="#DejaVuSans-30" transform="translate(190.869141 0)"/>
      </g>
     </g>
    </g>
   </g>
   <g id="line2d_37">
    <path d="M 138.436364 307.737539 
L 140.881051 307.518924 
L 141.288499 307.33154 
L 142.918291 307.112926 
L 144.548083 306.769389 
L 145.362979 306.644466 
L 147.400219 306.457083 
L 148.215115 306.113546 
L 148.622563 305.551394 
L 149.030011 305.270319 
L 149.437459 304.333399 
L 149.844907 304.270938 
L 150.252355 303.927401 
L 151.067251 303.490172 
L 152.697043 302.116024 
L 154.326835 301.272797 
L 155.549179 300.679415 
L 155.956627 299.992341 
L 156.771522 299.367728 
L 157.17897 299.180345 
L 161.25345 298.555732 
L 161.660898 298.368348 
L 164.513034 298.118503 
L 166.142826 297.712505 
L 169.40241 297.244045 
L 169.809858 297.025431 
L 170.217306 296.962969 
L 171.032202 296.681894 
L 173.884337 296.182203 
L 174.699233 295.932358 
L 178.366265 295.307746 
L 179.181161 295.120362 
L 179.996057 295.089131 
L 181.625849 294.683133 
L 182.033297 294.089751 
L 183.255641 293.590061 
L 184.477985 293.246524 
L 184.885433 293.027909 
L 185.700329 292.871756 
L 187.33012 292.372066 
L 188.145016 292.309605 
L 188.959912 292.09099 
L 190.589704 291.653761 
L 190.997152 291.622531 
L 191.812048 291.216532 
L 192.219496 291.154071 
L 192.626944 290.935457 
L 197.108872 290.154691 
L 198.738664 289.655001 
L 199.146112 289.373925 
L 201.183352 288.686851 
L 201.998248 288.093469 
L 203.220591 287.843624 
L 208.517415 286.282092 
L 208.924863 286.219631 
L 210.554655 285.563787 
L 210.962103 285.501326 
L 211.776999 285.157789 
L 212.591895 285.126558 
L 213.814239 284.751791 
L 214.221687 284.751791 
L 214.629135 284.564407 
L 215.444031 284.470715 
L 215.851479 284.314562 
L 217.481271 284.252101 
L 218.296166 284.095947 
L 219.111062 283.658719 
L 220.333406 283.190259 
L 221.148302 282.75303 
L 222.370646 282.222109 
L 224.000438 281.378882 
L 224.407886 280.910423 
L 225.222782 279.598736 
L 225.63023 279.473813 
L 226.037678 279.473813 
L 227.66747 278.536894 
L 228.074918 278.443202 
L 228.482366 278.037204 
L 229.297262 277.693667 
L 230.112158 277.318899 
L 230.519606 276.819209 
L 230.927054 276.132135 
L 231.334502 275.85106 
L 231.74195 275.101524 
L 232.149398 274.633065 
L 234.594085 273.258917 
L 236.223877 271.759846 
L 236.631325 270.791697 
L 237.038773 270.167084 
L 237.446221 269.823547 
L 237.853669 269.636163 
L 241.113253 266.54433 
L 241.928149 265.763564 
L 244.372837 264.170802 
L 244.780285 264.014649 
L 246.410077 263.015268 
L 246.817525 262.827884 
L 248.854765 260.891585 
L 249.66966 260.548048 
L 250.484556 259.954666 
L 250.892004 259.704821 
L 251.299452 259.64236 
L 252.521796 258.924055 
L 252.929244 258.455595 
L 254.966484 257.300062 
L 255.373932 257.143909 
L 256.596276 256.269451 
L 262.707996 254.020845 
L 263.522892 253.240079 
L 264.745235 252.615467 
L 265.560131 252.084546 
L 266.375027 251.834701 
L 266.782475 251.553625 
L 267.189923 251.428702 
L 268.412267 250.585475 
L 270.449507 250.117016 
L 271.671851 249.36748 
L 272.894195 249.086405 
L 273.301643 248.992713 
L 274.523987 248.055794 
L 276.153779 247.587334 
L 276.561227 247.243797 
L 279.005915 246.369339 
L 279.820811 246.213186 
L 280.635706 245.869649 
L 283.487842 244.776577 
L 284.302738 244.682885 
L 285.525082 244.245656 
L 287.562322 243.215045 
L 290.00701 241.809667 
L 290.821906 241.591052 
L 292.04425 240.966439 
L 292.859146 240.810286 
L 293.674042 240.310596 
L 294.488938 240.091982 
L 295.711281 239.592291 
L 297.341073 239.373677 
L 298.155969 238.936448 
L 298.563417 238.561681 
L 298.970865 237.812145 
L 300.600657 237.343686 
L 302.230449 236.59415 
L 304.675137 235.407386 
L 305.490033 235.001388 
L 306.712377 234.751543 
L 307.934721 234.12693 
L 308.342169 234.064469 
L 310.379409 233.033858 
L 311.194304 232.502937 
L 312.416648 232.253092 
L 314.453888 231.722171 
L 314.861336 231.378634 
L 315.676232 231.097559 
L 317.713472 230.254331 
L 318.12092 229.942025 
L 318.528368 229.785872 
L 319.343264 229.317412 
L 320.973056 228.786492 
L 321.787952 228.255571 
L 322.1954 227.818342 
L 322.602848 227.568497 
L 323.010296 227.474805 
L 323.825192 226.787731 
L 324.23264 226.72527 
L 324.640088 226.038196 
L 325.047536 225.850812 
L 325.454984 225.507275 
L 325.862432 225.444813 
L 326.677327 224.913893 
L 327.492223 224.632817 
L 327.899671 224.320511 
L 328.307119 224.164357 
L 329.936911 223.040055 
L 331.159255 222.415442 
L 331.974151 222.196827 
L 332.789047 221.728368 
L 333.196495 221.010063 
L 334.011391 220.38545 
L 334.418839 220.291759 
L 336.863527 219.073764 
L 337.678423 218.730227 
L 338.493319 218.136845 
L 339.715663 216.981311 
L 340.530559 216.481621 
L 340.938007 216.013161 
L 342.567798 214.857628 
L 343.382694 214.014401 
L 344.19759 213.733325 
L 345.012486 213.171174 
L 346.23483 212.51533 
L 346.642278 212.452869 
L 350.30931 210.5478 
L 351.531654 210.173033 
L 352.753998 209.673342 
L 353.161446 209.329805 
L 354.791238 208.673962 
L 355.198686 208.54904 
L 356.013582 208.018119 
L 356.828478 207.674582 
L 357.643373 207.0812 
L 358.458269 205.425976 
L 359.273165 204.489057 
L 360.495509 203.833214 
L 361.310405 203.489677 
L 361.717853 203.427215 
L 362.532749 203.052448 
L 364.162541 202.490296 
L 364.977437 202.021837 
L 365.792333 201.615838 
L 366.199781 201.490916 
L 368.644469 199.991845 
L 369.051917 199.523386 
L 370.274261 198.805081 
L 370.681709 198.648928 
L 371.496605 198.149238 
L 373.126396 197.243549 
L 373.533844 197.149857 
L 373.941292 196.80632 
L 376.793428 195.838171 
L 377.200876 195.557095 
L 378.015772 195.30725 
L 378.830668 194.963713 
L 379.238116 194.620176 
L 380.867908 194.026794 
L 381.682804 193.433412 
L 382.4977 193.089875 
L 383.312596 192.434031 
L 384.127492 192.184186 
L 384.53494 191.809419 
L 384.942388 191.746957 
L 385.757284 191.122345 
L 387.794524 189.90435 
L 388.609419 189.654505 
L 389.016867 189.40466 
L 389.424315 189.342199 
L 390.646659 188.655125 
L 396.758379 186.718825 
L 397.980723 185.844367 
L 398.388171 185.688214 
L 399.203067 185.219755 
L 399.610515 185.094832 
L 402.055203 183.689453 
L 402.462651 183.595762 
L 403.684995 182.846226 
L 404.907338 182.408997 
L 405.722234 182.127922 
L 407.352026 181.56577 
L 408.166922 181.284695 
L 409.796714 180.941158 
L 410.204162 180.753774 
L 411.019058 180.535159 
L 411.426506 180.347775 
L 411.833954 180.285314 
L 412.241402 180.0667 
L 413.056298 179.910547 
L 414.278642 179.442087 
L 415.500986 179.254703 
L 417.945674 178.786244 
L 419.168018 178.505168 
L 419.575465 178.317784 
L 420.390361 178.161631 
L 421.205257 177.943016 
L 422.020153 177.568249 
L 422.427601 177.412096 
L 422.835049 177.412096 
L 427.316977 176.006717 
L 427.724425 175.788103 
L 428.131873 175.788103 
L 428.946769 175.475796 
L 429.354217 175.038567 
L 431.798905 174.007956 
L 433.428697 173.445805 
L 433.836145 173.19596 
L 435.058488 172.821192 
L 435.873384 172.602578 
L 436.280832 172.321502 
L 436.68828 172.22781 
L 437.095728 171.853043 
L 438.318072 171.603197 
L 439.132968 171.22843 
L 439.540416 170.72874 
L 444.022344 169.729359 
L 444.429792 169.729359 
L 444.83724 169.541975 
L 446.467032 169.229669 
L 446.87448 169.042285 
L 448.504272 168.729979 
L 449.319168 168.386442 
L 450.134064 168.230289 
L 452.171303 167.699368 
L 453.801095 167.168447 
L 454.208543 167.074755 
L 454.615991 166.856141 
L 455.430887 166.637526 
L 456.245783 166.293989 
L 457.060679 165.981683 
L 457.468127 165.700607 
L 458.283023 165.450762 
L 461.135159 164.35769 
L 462.764951 164.170306 
L 466.024535 162.952311 
L 466.431982 162.640005 
L 466.83943 162.546313 
L 467.246878 162.327699 
L 467.654326 162.296468 
L 472.136254 160.641244 
L 474.173494 160.079093 
L 474.98839 159.673095 
L 476.210734 159.392019 
L 477.840526 158.017871 
L 479.470318 157.299566 
L 480.692662 156.768645 
L 482.322453 156.081571 
L 482.729901 155.956649 
L 483.137349 155.675573 
L 485.174589 154.988499 
L 489.249069 152.896047 
L 490.063965 152.521279 
L 490.471413 152.208973 
L 491.286309 151.927897 
L 493.730997 150.741133 
L 494.138445 150.647441 
L 495.360789 150.085289 
L 496.990581 149.523138 
L 497.805476 149.179601 
L 498.620372 149.054678 
L 499.02782 148.773603 
L 500.657612 148.461296 
L 501.472508 148.117759 
L 503.917196 146.930995 
L 504.324644 146.868534 
L 505.546988 146.150229 
L 506.769332 145.713 
L 509.621468 144.495006 
L 510.028916 144.370083 
L 510.436364 144.089007 
L 511.25126 143.995315 
L 511.658708 143.71424 
L 512.473604 143.589317 
L 513.288499 143.183319 
L 513.695947 142.995935 
L 514.510843 142.777321 
L 515.325739 142.527476 
L 516.548083 142.059016 
L 517.770427 141.653018 
L 518.992771 141.371942 
L 520.622563 140.684868 
L 521.437459 140.247639 
L 523.067251 139.404412 
L 523.882147 139.217028 
L 524.289595 138.967183 
L 524.697043 138.873491 
L 525.919387 138.155187 
L 526.734283 137.81165 
L 532.031106 135.812889 
L 532.438554 135.750428 
L 534.068346 134.969662 
L 534.883242 134.813508 
L 535.698138 134.345049 
L 537.32793 133.564283 
L 541.40241 131.94029 
L 542.217306 131.534292 
L 542.624754 131.4406 
L 543.43965 131.128293 
L 543.847097 131.128293 
L 544.661993 130.753526 
L 546.291785 129.379378 
L 546.699233 129.254455 
L 547.106681 129.00461 
L 548.329025 128.661073 
L 548.736473 128.348767 
L 549.143921 128.255075 
L 550.366265 127.50554 
L 550.773713 127.224464 
L 551.996057 126.756004 
L 552.403505 126.53739 
L 553.625849 126.256314 
L 555.663089 125.53801 
L 556.477985 125.288165 
L 557.700329 124.632321 
L 558.515225 124.226323 
L 559.33012 124.007709 
L 560.959912 123.258173 
L 561.36736 123.133251 
L 562.182256 122.758483 
L 564.219496 122.071409 
L 565.44184 121.290643 
L 565.849288 121.196951 
L 566.664184 120.790953 
L 567.47908 120.478647 
L 567.886528 120.103879 
L 569.108872 119.63542 
L 569.51632 119.572958 
L 571.146112 118.823423 
L 572.368456 118.448655 
L 572.775904 118.261272 
L 573.183352 118.19881 
L 573.998248 117.855273 
L 575.220591 117.574198 
L 576.035487 117.105738 
L 576.442935 116.949585 
L 576.850383 116.637278 
L 578.072727 116.324972 
L 578.480175 116.075127 
L 579.295071 115.856513 
L 580.517415 115.169439 
L 580.924863 115.138208 
L 582.147207 114.73221 
L 582.962103 114.669748 
L 583.776999 114.357442 
L 586.221687 113.607907 
L 587.036583 113.576676 
L 590.296166 112.483604 
L 591.111062 112.046375 
L 591.51851 111.671607 
L 592.740854 110.922072 
L 593.148302 110.609766 
L 594.370646 110.203768 
L 595.185542 109.985153 
L 597.63023 108.86085 
L 598.037678 108.798389 
L 598.852574 108.392391 
L 600.482366 107.955162 
L 601.297262 107.580394 
L 602.112158 107.268088 
L 605.779189 105.769017 
L 606.594085 105.456711 
L 608.223877 104.800868 
L 608.631325 104.4261 
L 609.038773 104.363639 
L 610.668565 103.707795 
L 612.298357 103.301797 
L 612.705805 103.239336 
L 613.113253 103.051952 
L 613.520701 103.020721 
L 614.335597 102.739646 
L 614.743045 102.708415 
L 615.965389 102.239955 
L 617.595181 101.771496 
L 618.410077 101.146883 
L 620.039869 100.241195 
L 620.447317 100.147503 
L 621.262212 99.835196 
L 624.521796 98.242434 
L 624.929244 98.02382 
L 625.336692 97.649052 
L 627.373932 97.149362 
L 628.596276 96.58721 
L 629.411172 96.368596 
L 631.448412 95.400446 
L 631.85586 95.369216 
L 632.263308 95.056909 
L 637.560131 93.12061 
L 638.375027 92.964457 
L 640.412267 92.308613 
L 641.634611 91.777692 
L 644.486747 90.903235 
L 645.301643 90.434775 
L 648.153779 89.466625 
L 649.783571 88.935705 
L 651.005915 88.654629 
L 652.228258 88.279861 
L 652.635706 88.186169 
L 653.043154 87.905094 
L 653.85805 87.71771 
L 655.487842 87.24925 
L 655.89529 87.21802 
L 656.710186 86.843252 
L 659.562322 86.124947 
L 661.192114 85.531565 
L 661.599562 85.531565 
L 662.821906 85.25049 
L 663.636802 85.094336 
L 664.451698 84.875722 
L 665.674042 84.219879 
L 666.896386 83.845111 
L 669.748521 82.876961 
L 671.378313 82.064965 
L 672.600657 81.783889 
L 673.415553 81.534044 
L 674.230449 81.128046 
L 674.637897 80.784509 
L 675.452793 80.534664 
L 675.860241 80.284818 
L 676.675137 80.191127 
L 679.527273 79.37913 
L 680.749617 79.129285 
L 681.971961 78.816979 
L 682.786857 78.629595 
L 684.0092 78.004982 
L 685.638992 77.380369 
L 686.453888 76.94314 
L 686.861336 76.91191 
L 687.676232 76.505912 
L 690.528368 75.693915 
L 691.750712 75.506531 
L 692.565608 75.256686 
L 693.787952 74.881918 
L 697.454984 73.851307 
L 698.26988 73.632693 
L 698.677327 73.539001 
L 699.084775 73.289156 
L 699.899671 73.133003 
L 700.714567 73.039311 
L 701.122015 72.820696 
L 701.529463 72.789466 
L 702.344359 72.258545 
L 703.974151 71.915008 
L 704.789047 71.571471 
L 705.603943 71.290395 
L 706.418839 71.071781 
L 707.233735 70.728244 
L 708.048631 70.447168 
L 709.678423 69.978709 
L 710.493319 69.916247 
L 711.308215 69.635172 
L 711.715663 69.479018 
L 712.530559 69.354096 
L 714.16035 68.635791 
L 714.567798 68.57333 
L 715.382694 68.261024 
L 717.827382 67.855025 
L 718.642278 67.60518 
L 719.049726 67.542719 
L 719.864622 67.199182 
L 720.27207 67.136721 
L 720.679518 66.918106 
L 721.494414 66.231032 
L 725.568894 64.731962 
L 726.38379 64.482117 
L 727.198686 64.263502 
L 728.013582 64.044888 
L 728.42103 63.732581 
L 730.050821 63.014277 
L 731.680613 62.327203 
L 732.495509 62.077358 
L 733.310405 61.765051 
L 735.347645 60.73444 
L 736.162541 60.23475 
L 736.569989 60.141058 
L 737.792333 59.516446 
L 738.607229 59.204139 
L 740.237021 58.641988 
L 740.644469 58.454604 
L 741.051917 58.111067 
L 741.459365 58.017375 
L 742.274261 57.517685 
L 742.681709 57.423993 
L 743.496605 57.049225 
L 744.311501 56.736919 
L 745.126396 56.362151 
L 745.533844 56.330921 
L 747.163636 55.8 
L 747.163636 55.8 
" clip-path="url(#p8edb976037)" style="fill: none; stroke: #1f77b4; stroke-width: 1.5; stroke-linecap: square"/>
   </g>
   <g id="line2d_38">
    <path d="M 138.843812 307.8 
L 142.510843 307.706308 
L 145.770427 307.550155 
L 147.400219 307.550155 
L 147.807667 307.425232 
L 149.844907 307.33154 
L 152.289595 307.050465 
L 154.734283 306.956773 
L 155.549179 306.863081 
L 158.401314 306.738158 
L 161.25345 306.644466 
L 163.29069 306.582005 
L 168.587514 306.488313 
L 170.624754 306.425852 
L 174.291785 306.33216 
L 175.921577 306.300929 
L 179.996057 306.207238 
L 181.625849 306.051084 
L 183.255641 306.019854 
L 185.700329 305.926162 
L 187.33012 305.894931 
L 189.36736 305.83247 
L 190.997152 305.676317 
L 194.664184 305.582625 
L 195.47908 305.520164 
L 197.108872 305.426472 
L 199.55356 305.33278 
L 201.183352 305.239088 
L 208.517415 304.770628 
L 211.369551 304.676936 
L 212.591895 304.552014 
L 214.629135 304.458322 
L 218.703614 304.239708 
L 222.778094 304.177246 
L 224.407886 303.989862 
L 226.445126 303.896171 
L 230.519606 303.490172 
L 232.964294 303.177866 
L 234.594085 303.115405 
L 237.853669 302.678176 
L 240.298357 302.615714 
L 241.520701 302.490792 
L 242.743045 302.3971 
L 254.151588 301.491412 
L 254.966484 301.335258 
L 257.411172 301.241566 
L 263.93034 300.835568 
L 266.782475 300.741876 
L 268.412267 300.554493 
L 270.449507 300.460801 
L 272.894195 300.367109 
L 274.931435 300.273417 
L 276.561227 300.242186 
L 278.598467 300.179725 
L 279.413363 300.054802 
L 285.117634 299.96111 
L 285.93253 299.867419 
L 290.821906 299.773727 
L 294.488938 299.586343 
L 297.341073 299.492651 
L 298.970865 299.305267 
L 301.823001 299.211575 
L 302.637897 299.086653 
L 304.675137 299.024191 
L 308.749617 298.96173 
L 310.379409 298.805577 
L 312.0092 298.774346 
L 313.231544 298.680654 
L 314.861336 298.524501 
L 318.935816 298.305887 
L 323.010296 298.212195 
L 326.677327 298.024811 
L 327.899671 297.99358 
L 328.714567 297.868658 
L 330.751807 297.774966 
L 331.566703 297.712505 
L 332.381599 297.650043 
L 333.196495 297.587582 
L 337.270975 297.49389 
L 346.23483 296.900508 
L 347.049726 296.838047 
L 348.27207 296.744355 
L 351.124206 296.650663 
L 353.161446 296.588202 
L 358.865717 296.49451 
L 359.680613 296.369587 
L 365.384885 296.275895 
L 369.459365 296.057281 
L 370.274261 296.02605 
L 371.089157 295.932358 
L 373.126396 295.838667 
L 375.163636 295.776205 
L 377.200876 295.682513 
L 379.238116 295.620052 
L 382.905148 295.52636 
L 385.349836 295.432668 
L 391.054107 295.338976 
L 395.536035 295.089131 
L 397.165827 295.02667 
L 398.388171 294.932978 
L 404.092442 294.839286 
L 406.53713 294.745594 
L 413.871194 294.651902 
L 415.500986 294.620672 
L 420.390361 294.55821 
L 421.205257 294.495749 
L 426.909529 294.402057 
L 428.539321 294.370827 
L 439.132968 294.277135 
L 441.577656 294.183443 
L 458.690471 294.089751 
L 460.727711 294.02729 
L 471.321358 293.964828 
L 472.136254 293.902367 
L 474.173494 293.839906 
L 475.395838 293.714983 
L 477.840526 293.621291 
L 480.692662 293.496369 
L 484.359693 293.402677 
L 486.396933 293.340216 
L 489.249069 293.246524 
L 492.508653 293.090371 
L 494.545893 292.996679 
L 496.175685 292.965448 
L 503.1023 292.871756 
L 505.546988 292.778064 
L 510.028916 292.684372 
L 512.881051 292.55945 
L 515.733187 292.496988 
L 516.548083 292.434527 
L 526.326835 292.340835 
L 530.401314 292.122221 
L 533.25345 292.028529 
L 537.735378 291.778684 
L 540.587514 291.684992 
L 542.217306 291.653761 
L 545.069441 291.560069 
L 547.106681 291.341455 
L 551.181161 291.247763 
L 551.996057 291.154071 
L 556.070537 291.060379 
L 558.107777 290.997918 
L 562.589704 290.966687 
L 563.4046 290.872995 
L 567.886528 290.779304 
L 568.701424 290.716842 
L 577.665279 290.62315 
L 580.109967 290.529458 
L 586.221687 290.435767 
L 587.851479 290.404536 
L 591.51851 290.342075 
L 592.333406 290.248383 
L 597.63023 290.154691 
L 599.66747 290.09223 
L 607.001533 289.998538 
L 608.223877 289.904846 
L 609.446221 289.811154 
L 610.668565 289.717462 
L 616.780285 289.62377 
L 619.224973 289.530078 
L 630.226068 289.436386 
L 633.8931 289.249002 
L 638.782475 289.186541 
L 639.597371 289.12408 
L 645.709091 289.061619 
L 646.523987 288.999157 
L 651.005915 288.905465 
L 652.635706 288.874235 
L 659.562322 288.780543 
L 660.377218 288.718082 
L 667.711281 288.62439 
L 669.341073 288.593159 
L 673.008105 288.499467 
L 676.267689 288.343314 
L 680.749617 288.249622 
L 683.601752 288.124699 
L 687.268784 288.031008 
L 688.08368 287.968546 
L 696.23264 287.874854 
L 698.26988 287.812393 
L 700.714567 287.718701 
L 703.159255 287.625009 
L 715.382694 287.531317 
L 718.23483 287.406395 
L 723.124206 287.312703 
L 724.753998 287.281472 
L 731.273165 287.18778 
L 732.495509 287.094088 
L 735.755093 287.000397 
L 739.829573 286.781782 
L 747.163636 286.68809 
L 747.163636 286.68809 
" clip-path="url(#p8edb976037)" style="fill: none; stroke: #ff7f0e; stroke-width: 1.5; stroke-linecap: square"/>
   </g>
   <g id="patch_3">
    <path d="M 108 320.4 
L 108 43.2 
" style="fill: none; stroke: #a9a9a9; stroke-width: 0.8; stroke-linejoin: miter; stroke-linecap: square"/>
   </g>
   <g id="patch_4">
    <path d="M 777.6 320.4 
L 777.6 43.2 
" style="fill: none"/>
   </g>
   <g id="patch_5">
    <path d="M 108 320.4 
L 777.6 320.4 
" style="fill: none; stroke: #a9a9a9; stroke-width: 0.8; stroke-linejoin: miter; stroke-linecap: square"/>
   </g>
   <g id="patch_6">
    <path d="M 108 43.2 
L 777.6 43.2 
" style="fill: none"/>
   </g>
   <g id="text_19">
    <!-- get_subscribe history -->
    <g style="fill: #a9a9a9" transform="translate(378.6075 37.2) scale(0.12 -0.12)">
     <defs>
      <path id="DejaVuSans-67" d="M 2906 1791 
Q 2906 2416 2648 2759 
Q 2391 3103 1925 3103 
Q 1463 3103 1205 2759 
Q 947 2416 947 1791 
Q 947 1169 1205 825 
Q 1463 481 1925 481 
Q 2391 481 2648 825 
Q 2906 1169 2906 1791 
z
M 3481 434 
Q 3481 -459 3084 -895 
Q 2688 -1331 1869 -1331 
Q 1566 -1331 1297 -1286 
Q 1028 -1241 775 -1147 
L 775 -588 
Q 1028 -725 1275 -790 
Q 1522 -856 1778 -856 
Q 2344 -856 2625 -561 
Q 2906 -266 2906 331 
L 2906 616 
Q 2728 306 2450 153 
Q 2172 0 1784 0 
Q 1141 0 747 490 
Q 353 981 353 1791 
Q 353 2603 747 3093 
Q 1141 3584 1784 3584 
Q 2172 3584 2450 3431 
Q 2728 3278 2906 2969 
L 2906 3500 
L 3481 3500 
L 3481 434 
z
" transform="scale(0.015625)"/>
      <path id="DejaVuSans-65" d="M 3597 1894 
L 3597 1613 
L 953 1613 
Q 991 1019 1311 708 
Q 1631 397 2203 397 
Q 2534 397 2845 478 
Q 3156 559 3463 722 
L 3463 178 
Q 3153 47 2828 -22 
Q 2503 -91 2169 -91 
Q 1331 -91 842 396 
Q 353 884 353 1716 
Q 353 2575 817 3079 
Q 1281 3584 2069 3584 
Q 2775 3584 3186 3129 
Q 3597 2675 3597 1894 
z
M 3022 2063 
Q 3016 2534 2758 2815 
Q 2500 3097 2075 3097 
Q 1594 3097 1305 2825 
Q 1016 2553 972 2059 
L 3022 2063 
z
" transform="scale(0.015625)"/>
      <path id="DejaVuSans-74" d="M 1172 4494 
L 1172 3500 
L 2356 3500 
L 2356 3053 
L 1172 3053 
L 1172 1153 
Q 1172 725 1289 603 
Q 1406 481 1766 481 
L 2356 481 
L 2356 0 
L 1766 0 
Q 1100 0 847 248 
Q 594 497 594 1153 
L 594 3053 
L 172 3053 
L 172 3500 
L 594 3500 
L 594 4494 
L 1172 4494 
z
" transform="scale(0.015625)"/>
      <path id="DejaVuSans-5f" d="M 3263 -1063 
L 3263 -1509 
L -63 -1509 
L -63 -1063 
L 3263 -1063 
z
" transform="scale(0.015625)"/>
      <path id="DejaVuSans-73" d="M 2834 3397 
L 2834 2853 
Q 2591 2978 2328 3040 
Q 2066 3103 1784 3103 
Q 1356 3103 1142 2972 
Q 928 2841 928 2578 
Q 928 2378 1081 2264 
Q 1234 2150 1697 2047 
L 1894 2003 
Q 2506 1872 2764 1633 
Q 3022 1394 3022 966 
Q 3022 478 2636 193 
Q 2250 -91 1575 -91 
Q 1294 -91 989 -36 
Q 684 19 347 128 
L 347 722 
Q 666 556 975 473 
Q 1284 391 1588 391 
Q 1994 391 2212 530 
Q 2431 669 2431 922 
Q 2431 1156 2273 1281 
Q 2116 1406 1581 1522 
L 1381 1569 
Q 847 1681 609 1914 
Q 372 2147 372 2553 
Q 372 3047 722 3315 
Q 1072 3584 1716 3584 
Q 2034 3584 2315 3537 
Q 2597 3491 2834 3397 
z
" transform="scale(0.015625)"/>
      <path id="DejaVuSans-75" d="M 544 1381 
L 544 3500 
L 1119 3500 
L 1119 1403 
Q 1119 906 1312 657 
Q 1506 409 1894 409 
Q 2359 409 2629 706 
Q 2900 1003 2900 1516 
L 2900 3500 
L 3475 3500 
L 3475 0 
L 2900 0 
L 2900 538 
Q 2691 219 2414 64 
Q 2138 -91 1772 -91 
Q 1169 -91 856 284 
Q 544 659 544 1381 
z
M 1991 3584 
L 1991 3584 
z
" transform="scale(0.015625)"/>
      <path id="DejaVuSans-62" d="M 3116 1747 
Q 3116 2381 2855 2742 
Q 2594 3103 2138 3103 
Q 1681 3103 1420 2742 
Q 1159 2381 1159 1747 
Q 1159 1113 1420 752 
Q 1681 391 2138 391 
Q 2594 391 2855 752 
Q 3116 1113 3116 1747 
z
M 1159 2969 
Q 1341 3281 1617 3432 
Q 1894 3584 2278 3584 
Q 2916 3584 3314 3078 
Q 3713 2572 3713 1747 
Q 3713 922 3314 415 
Q 2916 -91 2278 -91 
Q 1894 -91 1617 61 
Q 1341 213 1159 525 
L 1159 0 
L 581 0 
L 581 4863 
L 1159 4863 
L 1159 2969 
z
" transform="scale(0.015625)"/>
      <path id="DejaVuSans-63" d="M 3122 3366 
L 3122 2828 
Q 2878 2963 2633 3030 
Q 2388 3097 2138 3097 
Q 1578 3097 1268 2742 
Q 959 2388 959 1747 
Q 959 1106 1268 751 
Q 1578 397 2138 397 
Q 2388 397 2633 464 
Q 2878 531 3122 666 
L 3122 134 
Q 2881 22 2623 -34 
Q 2366 -91 2075 -91 
Q 1284 -91 818 406 
Q 353 903 353 1747 
Q 353 2603 823 3093 
Q 1294 3584 2113 3584 
Q 2378 3584 2631 3529 
Q 2884 3475 3122 3366 
z
" transform="scale(0.015625)"/>
      <path id="DejaVuSans-72" d="M 2631 2963 
Q 2534 3019 2420 3045 
Q 2306 3072 2169 3072 
Q 1681 3072 1420 2755 
Q 1159 2438 1159 1844 
L 1159 0 
L 581 0 
L 581 3500 
L 1159 3500 
L 1159 2956 
Q 1341 3275 1631 3429 
Q 1922 3584 2338 3584 
Q 2397 3584 2469 3576 
Q 2541 3569 2628 3553 
L 2631 2963 
z
" transform="scale(0.015625)"/>
      <path id="DejaVuSans-69" d="M 603 3500 
L 1178 3500 
L 1178 0 
L 603 0 
L 603 3500 
z
M 603 4863 
L 1178 4863 
L 1178 4134 
L 603 4134 
L 603 4863 
z
" transform="scale(0.015625)"/>
      <path id="DejaVuSans-20" transform="scale(0.015625)"/>
      <path id="DejaVuSans-68" d="M 3513 2113 
L 3513 0 
L 2938 0 
L 2938 2094 
Q 2938 2591 2744 2837 
Q 2550 3084 2163 3084 
Q 1697 3084 1428 2787 
Q 1159 2491 1159 1978 
L 1159 0 
L 581 0 
L 581 4863 
L 1159 4863 
L 1159 2956 
Q 1366 3272 1645 3428 
Q 1925 3584 2291 3584 
Q 2894 3584 3203 3211 
Q 3513 2838 3513 2113 
z
" transform="scale(0.015625)"/>
      <path id="DejaVuSans-6f" d="M 1959 3097 
Q 1497 3097 1228 2736 
Q 959 2375 959 1747 
Q 959 1119 1226 758 
Q 1494 397 1959 397 
Q 2419 397 2687 759 
Q 2956 1122 2956 1747 
Q 2956 2369 2687 2733 
Q 2419 3097 1959 3097 
z
M 1959 3584 
Q 2709 3584 3137 3096 
Q 3566 2609 3566 1747 
Q 3566 888 3137 398 
Q 2709 -91 1959 -91 
Q 1206 -91 779 398 
Q 353 888 353 1747 
Q 353 2609 779 3096 
Q 1206 3584 1959 3584 
z
" transform="scale(0.015625)"/>
      <path id="DejaVuSans-79" d="M 2059 -325 
Q 1816 -950 1584 -1140 
Q 1353 -1331 966 -1331 
L 506 -1331 
L 506 -850 
L 844 -850 
Q 1081 -850 1212 -737 
Q 1344 -625 1503 -206 
L 1606 56 
L 191 3500 
L 800 3500 
L 1894 763 
L 2988 3500 
L 3597 3500 
L 2059 -325 
z
" transform="scale(0.015625)"/>
     </defs>
     <use xlink:href="#DejaVuSans-67"/>
     <use xlink:href="#DejaVuSans-65" transform="translate(63.476562 0)"/>
     <use xlink:href="#DejaVuSans-74" transform="translate(125 0)"/>
     <use xlink:href="#DejaVuSans-5f" transform="translate(164.208984 0)"/>
     <use xlink:href="#DejaVuSans-73" transform="translate(214.208984 0)"/>
     <use xlink:href="#DejaVuSans-75" transform="translate(266.308594 0)"/>
     <use xlink:href="#DejaVuSans-62" transform="translate(329.6875 0)"/>
     <use xlink:href="#DejaVuSans-73" transform="translate(393.164062 0)"/>
     <use xlink:href="#DejaVuSans-63" transform="translate(445.263672 0)"/>
     <use xlink:href="#DejaVuSans-72" transform="translate(500.244141 0)"/>
     <use xlink:href="#DejaVuSans-69" transform="translate(541.357422 0)"/>
     <use xlink:href="#DejaVuSans-62" transform="translate(569.140625 0)"/>
     <use xlink:href="#DejaVuSans-65" transform="translate(632.617188 0)"/>
     <use xlink:href="#DejaVuSans-20" transform="translate(694.140625 0)"/>
     <use xlink:href="#DejaVuSans-68" transform="translate(725.927734 0)"/>
     <use xlink:href="#DejaVuSans-69" transform="translate(789.306641 0)"/>
     <use xlink:href="#DejaVuSans-73" transform="translate(817.089844 0)"/>
     <use xlink:href="#DejaVuSans-74" transform="translate(869.189453 0)"/>
     <use xlink:href="#DejaVuSans-6f" transform="translate(908.398438 0)"/>
     <use xlink:href="#DejaVuSans-72" transform="translate(969.580078 0)"/>
     <use xlink:href="#DejaVuSans-79" transform="translate(1010.693359 0)"/>
    </g>
   </g>
   <g id="legend_1">
    <g id="line2d_39">
     <path d="M 815.08 328.498438 
L 825.08 328.498438 
L 835.08 328.498438 
" style="fill: none; stroke: #1f77b4; stroke-width: 1.5; stroke-linecap: square"/>
    </g>
    <g id="text_20">
     <!-- star -->
     <g style="fill: #a9a9a9" transform="translate(843.08 331.998438) scale(0.1 -0.1)">
      <defs>
       <path id="DejaVuSans-61" d="M 2194 1759 
Q 1497 1759 1228 1600 
Q 959 1441 959 1056 
Q 959 750 1161 570 
Q 1363 391 1709 391 
Q 2188 391 2477 730 
Q 2766 1069 2766 1631 
L 2766 1759 
L 2194 1759 
z
M 3341 1997 
L 3341 0 
L 2766 0 
L 2766 531 
Q 2569 213 2275 61 
Q 1981 -91 1556 -91 
Q 1019 -91 701 211 
Q 384 513 384 1019 
Q 384 1609 779 1909 
Q 1175 2209 1959 2209 
L 2766 2209 
L 2766 2266 
Q 2766 2663 2505 2880 
Q 2244 3097 1772 3097 
Q 1472 3097 1187 3025 
Q 903 2953 641 2809 
L 641 3341 
Q 956 3463 1253 3523 
Q 1550 3584 1831 3584 
Q 2591 3584 2966 3190 
Q 3341 2797 3341 1997 
z
" transform="scale(0.015625)"/>
      </defs>
      <use xlink:href="#DejaVuSans-73"/>
      <use xlink:href="#DejaVuSans-74" transform="translate(52.099609 0)"/>
      <use xlink:href="#DejaVuSans-61" transform="translate(91.308594 0)"/>
      <use xlink:href="#DejaVuSans-72" transform="translate(152.587891 0)"/>
     </g>
    </g>
    <g id="line2d_40">
     <path d="M 815.08 343.176562 
L 825.08 343.176562 
L 835.08 343.176562 
" style="fill: none; stroke: #ff7f0e; stroke-width: 1.5; stroke-linecap: square"/>
    </g>
    <g id="text_21">
     <!-- fork -->
     <g style="fill: #a9a9a9" transform="translate(843.08 346.676562) scale(0.1 -0.1)">
      <defs>
       <path id="DejaVuSans-66" d="M 2375 4863 
L 2375 4384 
L 1825 4384 
Q 1516 4384 1395 4259 
Q 1275 4134 1275 3809 
L 1275 3500 
L 2222 3500 
L 2222 3053 
L 1275 3053 
L 1275 0 
L 697 0 
L 697 3053 
L 147 3053 
L 147 3500 
L 697 3500 
L 697 3744 
Q 697 4328 969 4595 
Q 1241 4863 1831 4863 
L 2375 4863 
z
" transform="scale(0.015625)"/>
       <path id="DejaVuSans-6b" d="M 581 4863 
L 1159 4863 
L 1159 1991 
L 2875 3500 
L 3609 3500 
L 1753 1863 
L 3688 0 
L 2938 0 
L 1159 1709 
L 1159 0 
L 581 0 
L 581 4863 
z
" transform="scale(0.015625)"/>
      </defs>
      <use xlink:href="#DejaVuSans-66"/>
      <use xlink:href="#DejaVuSans-6f" transform="translate(35.205078 0)"/>
      <use xlink:href="#DejaVuSans-72" transform="translate(96.386719 0)"/>
      <use xlink:href="#DejaVuSans-6b" transform="translate(137.5 0)"/>
     </g>
    </g>
   </g>
  </g>
 </g>
 <defs>
  <clipPath id="p8edb976037">
   <rect x="108" y="43.2" width="669.6" height="277.2"/>
  </clipPath>
 </defs>
</svg>
