<?xml version="1.0" encoding="utf-8" standalone="no"?>
<!DOCTYPE svg PUBLIC "-//W3C//DTD SVG 1.1//EN"
  "http://www.w3.org/Graphics/SVG/1.1/DTD/svg11.dtd">
<svg xmlns:xlink="http://www.w3.org/1999/xlink" width="864pt" height="360pt" viewBox="0 0 864 360" xmlns="http://www.w3.org/2000/svg" version="1.1">
 <metadata>
  <rdf:RDF xmlns:dc="http://purl.org/dc/elements/1.1/" xmlns:cc="http://creativecommons.org/ns#" xmlns:rdf="http://www.w3.org/1999/02/22-rdf-syntax-ns#">
   <cc:Work>
    <dc:type rdf:resource="http://purl.org/dc/dcmitype/StillImage"/>
    <dc:date>2026-04-20T08:29:39.686666</dc:date>
    <dc:format>image/svg+xml</dc:format>
    <dc:creator>
     <cc:Agent>
      <dc:title>Matplotlib v3.10.8, https://matplotlib.org/</dc:title>
     </cc:Agent>
    </dc:creator>
   </cc:Work>
  </rdf:RDF>
 </metadata>
 <defs>
  <style type="text/css">*{stroke-linejoin: round; stroke-linecap: butt}</style>
 </defs>
 <g id="figure_1">
  <g id="patch_1">
   <path d="M 0 360 
L 864 360 
L 864 0 
L 0 0 
L 0 360 
z
" style="fill: none; opacity: 0"/>
  </g>
  <g id="axes_1">
   <g id="patch_2">
    <path d="M 108 320.4 
L 777.6 320.4 
L 777.6 43.2 
L 108 43.2 
L 108 320.4 
z
" style="fill: none; opacity: 0"/>
   </g>
   <g id="matplotlib.axis_1">
    <g id="xtick_1">
     <g id="line2d_1">
      <path d="M 195.053978 320.4 
L 195.053978 43.2 
" clip-path="url(#p12dba09969)" style="fill: none; stroke-dasharray: 5.12,1.28,0.8,1.28; stroke-dashoffset: 0; stroke: #b0b0b0; stroke-width: 0.8"/>
     </g>
     <g id="line2d_2">
      <defs>
       <path id="m1f4667c937" d="M 0 0 
L 0 3.5 
" style="stroke: #a9a9a9; stroke-width: 0.8"/>
      </defs>
      <g>
       <use xlink:href="#m1f4667c937" x="195.053978" y="320.4" style="fill: #a9a9a9; stroke: #a9a9a9; stroke-width: 0.8"/>
      </g>
     </g>
     <g id="text_1">
      <!-- 2022 -->
      <g style="fill: #a9a9a9" transform="translate(182.328978 334.998438) scale(0.1 -0.1)">
       <defs>
        <path id="DejaVuSans-32" d="M 1228 531 
L 3431 531 
L 3431 0 
L 469 0 
L 469 531 
Q 828 903 1448 1529 
Q 2069 2156 2228 2338 
Q 2531 2678 2651 2914 
Q 2772 3150 2772 3378 
Q 2772 3750 2511 3984 
Q 2250 4219 1831 4219 
Q 1534 4219 1204 4116 
Q 875 4013 500 3803 
L 500 4441 
Q 881 4594 1212 4672 
Q 1544 4750 1819 4750 
Q 2544 4750 2975 4387 
Q 3406 4025 3406 3419 
Q 3406 3131 3298 2873 
Q 3191 2616 2906 2266 
Q 2828 2175 2409 1742 
Q 1991 1309 1228 531 
z
" transform="scale(0.015625)"/>
        <path id="DejaVuSans-30" d="M 2034 4250 
Q 1547 4250 1301 3770 
Q 1056 3291 1056 2328 
Q 1056 1369 1301 889 
Q 1547 409 2034 409 
Q 2525 409 2770 889 
Q 3016 1369 3016 2328 
Q 3016 3291 2770 3770 
Q 2525 4250 2034 4250 
z
M 2034 4750 
Q 2819 4750 3233 4129 
Q 3647 3509 3647 2328 
Q 3647 1150 3233 529 
Q 2819 -91 2034 -91 
Q 1250 -91 836 529 
Q 422 1150 422 2328 
Q 422 3509 836 4129 
Q 1250 4750 2034 4750 
z
" transform="scale(0.015625)"/>
       </defs>
       <use xlink:href="#DejaVuSans-32"/>
       <use xlink:href="#DejaVuSans-30" transform="translate(63.623047 0)"/>
       <use xlink:href="#DejaVuSans-32" transform="translate(127.246094 0)"/>
       <use xlink:href="#DejaVuSans-32" transform="translate(190.869141 0)"/>
      </g>
     </g>
    </g>
    <g id="xtick_2">
     <g id="line2d_3">
      <path d="M 323.410682 320.4 
L 323.410682 43.2 
" clip-path="url(#p12dba09969)" style="fill: none; stroke-dasharray: 5.12,1.28,0.8,1.28; stroke-dashoffset: 0; stroke: #b0b0b0; stroke-width: 0.8"/>
     </g>
     <g id="line2d_4">
      <g>
       <use xlink:href="#m1f4667c937" x="323.410682" y="320.4" style="fill: #a9a9a9; stroke: #a9a9a9; stroke-width: 0.8"/>
      </g>
     </g>
     <g id="text_2">
      <!-- 2023 -->
      <g style="fill: #a9a9a9" transform="translate(310.685682 334.998438) scale(0.1 -0.1)">
       <defs>
        <path id="DejaVuSans-33" d="M 2597 2516 
Q 3050 2419 3304 2112 
Q 3559 1806 3559 1356 
Q 3559 666 3084 287 
Q 2609 -91 1734 -91 
Q 1441 -91 1130 -33 
Q 819 25 488 141 
L 488 750 
Q 750 597 1062 519 
Q 1375 441 1716 441 
Q 2309 441 2620 675 
Q 2931 909 2931 1356 
Q 2931 1769 2642 2001 
Q 2353 2234 1838 2234 
L 1294 2234 
L 1294 2753 
L 1863 2753 
Q 2328 2753 2575 2939 
Q 2822 3125 2822 3475 
Q 2822 3834 2567 4026 
Q 2313 4219 1838 4219 
Q 1578 4219 1281 4162 
Q 984 4106 628 3988 
L 628 4550 
Q 988 4650 1302 4700 
Q 1616 4750 1894 4750 
Q 2613 4750 3031 4423 
Q 3450 4097 3450 3541 
Q 3450 3153 3228 2886 
Q 3006 2619 2597 2516 
z
" transform="scale(0.015625)"/>
       </defs>
       <use xlink:href="#DejaVuSans-32"/>
       <use xlink:href="#DejaVuSans-30" transform="translate(63.623047 0)"/>
       <use xlink:href="#DejaVuSans-32" transform="translate(127.246094 0)"/>
       <use xlink:href="#DejaVuSans-33" transform="translate(190.869141 0)"/>
      </g>
     </g>
    </g>
    <g id="xtick_3">
     <g id="line2d_5">
      <path d="M 451.767386 320.4 
L 451.767386 43.2 
" clip-path="url(#p12dba09969)" style="fill: none; stroke-dasharray: 5.12,1.28,0.8,1.28; stroke-dashoffset: 0; stroke: #b0b0b0; stroke-width: 0.8"/>
     </g>
     <g id="line2d_6">
      <g>
       <use xlink:href="#m1f4667c937" x="451.767386" y="320.4" style="fill: #a9a9a9; stroke: #a9a9a9; stroke-width: 0.8"/>
      </g>
     </g>
     <g id="text_3">
      <!-- 2024 -->
      <g style="fill: #a9a9a9" transform="translate(439.042386 334.998438) scale(0.1 -0.1)">
       <defs>
        <path id="DejaVuSans-34" d="M 2419 4116 
L 825 1625 
L 2419 1625 
L 2419 4116 
z
M 2253 4666 
L 3047 4666 
L 3047 1625 
L 3713 1625 
L 3713 1100 
L 3047 1100 
L 3047 0 
L 2419 0 
L 2419 1100 
L 313 1100 
L 313 1709 
L 2253 4666 
z
" transform="scale(0.015625)"/>
       </defs>
       <use xlink:href="#DejaVuSans-32"/>
       <use xlink:href="#DejaVuSans-30" transform="translate(63.623047 0)"/>
       <use xlink:href="#DejaVuSans-32" transform="translate(127.246094 0)"/>
       <use xlink:href="#DejaVuSans-34" transform="translate(190.869141 0)"/>
      </g>
     </g>
    </g>
    <g id="xtick_4">
     <g id="line2d_7">
      <path d="M 580.475752 320.4 
L 580.475752 43.2 
" clip-path="url(#p12dba09969)" style="fill: none; stroke-dasharray: 5.12,1.28,0.8,1.28; stroke-dashoffset: 0; stroke: #b0b0b0; stroke-width: 0.8"/>
     </g>
     <g id="line2d_8">
      <g>
       <use xlink:href="#m1f4667c937" x="580.475752" y="320.4" style="fill: #a9a9a9; stroke: #a9a9a9; stroke-width: 0.8"/>
      </g>
     </g>
     <g id="text_4">
      <!-- 2025 -->
      <g style="fill: #a9a9a9" transform="translate(567.750752 334.998438) scale(0.1 -0.1)">
       <defs>
        <path id="DejaVuSans-35" d="M 691 4666 
L 3169 4666 
L 3169 4134 
L 1269 4134 
L 1269 2991 
Q 1406 3038 1543 3061 
Q 1681 3084 1819 3084 
Q 2600 3084 3056 2656 
Q 3513 2228 3513 1497 
Q 3513 744 3044 326 
Q 2575 -91 1722 -91 
Q 1428 -91 1123 -41 
Q 819 9 494 109 
L 494 744 
Q 775 591 1075 516 
Q 1375 441 1709 441 
Q 2250 441 2565 725 
Q 2881 1009 2881 1497 
Q 2881 1984 2565 2268 
Q 2250 2553 1709 2553 
Q 1456 2553 1204 2497 
Q 953 2441 691 2322 
L 691 4666 
z
" transform="scale(0.015625)"/>
       </defs>
       <use xlink:href="#DejaVuSans-32"/>
       <use xlink:href="#DejaVuSans-30" transform="translate(63.623047 0)"/>
       <use xlink:href="#DejaVuSans-32" transform="translate(127.246094 0)"/>
       <use xlink:href="#DejaVuSans-35" transform="translate(190.869141 0)"/>
      </g>
     </g>
    </g>
    <g id="xtick_5">
     <g id="line2d_9">
      <path d="M 708.832456 320.4 
L 708.832456 43.2 
" clip-path="url(#p12dba09969)" style="fill: none; stroke-dasharray: 5.12,1.28,0.8,1.28; stroke-dashoffset: 0; stroke: #b0b0b0; stroke-width: 0.8"/>
     </g>
     <g id="line2d_10">
      <g>
       <use xlink:href="#m1f4667c937" x="708.832456" y="320.4" style="fill: #a9a9a9; stroke: #a9a9a9; stroke-width: 0.8"/>
      </g>
     </g>
     <g id="text_5">
      <!-- 2026 -->
      <g style="fill: #a9a9a9" transform="translate(696.107456 334.998438) scale(0.1 -0.1)">
       <defs>
        <path id="DejaVuSans-36" d="M 2113 2584 
Q 1688 2584 1439 2293 
Q 1191 2003 1191 1497 
Q 1191 994 1439 701 
Q 1688 409 2113 409 
Q 2538 409 2786 701 
Q 3034 994 3034 1497 
Q 3034 2003 2786 2293 
Q 2538 2584 2113 2584 
z
M 3366 4563 
L 3366 3988 
Q 3128 4100 2886 4159 
Q 2644 4219 2406 4219 
Q 1781 4219 1451 3797 
Q 1122 3375 1075 2522 
Q 1259 2794 1537 2939 
Q 1816 3084 2150 3084 
Q 2853 3084 3261 2657 
Q 3669 2231 3669 1497 
Q 3669 778 3244 343 
Q 2819 -91 2113 -91 
Q 1303 -91 875 529 
Q 447 1150 447 2328 
Q 447 3434 972 4092 
Q 1497 4750 2381 4750 
Q 2619 4750 2861 4703 
Q 3103 4656 3366 4563 
z
" transform="scale(0.015625)"/>
       </defs>
       <use xlink:href="#DejaVuSans-32"/>
       <use xlink:href="#DejaVuSans-30" transform="translate(63.623047 0)"/>
       <use xlink:href="#DejaVuSans-32" transform="translate(127.246094 0)"/>
       <use xlink:href="#DejaVuSans-36" transform="translate(190.869141 0)"/>
      </g>
     </g>
    </g>
   </g>
   <g id="matplotlib.axis_2">
    <g id="ytick_1">
     <g id="line2d_11">
      <path d="M 108 307.828382 
L 777.6 307.828382 
" clip-path="url(#p12dba09969)" style="fill: none; stroke-dasharray: 5.12,1.28,0.8,1.28; stroke-dashoffset: 0; stroke: #b0b0b0; stroke-width: 0.8"/>
     </g>
     <g id="line2d_12">
      <defs>
       <path id="madfd115771" d="M 0 0 
L -3.5 0 
" style="stroke: #a9a9a9; stroke-width: 0.8"/>
      </defs>
      <g>
       <use xlink:href="#madfd115771" x="108" y="307.828382" style="fill: #a9a9a9; stroke: #a9a9a9; stroke-width: 0.8"/>
      </g>
     </g>
     <g id="text_6">
      <!-- 0 -->
      <g style="fill: #a9a9a9" transform="translate(94.6375 311.6276) scale(0.1 -0.1)">
       <use xlink:href="#DejaVuSans-30"/>
      </g>
     </g>
    </g>
    <g id="ytick_2">
     <g id="line2d_13">
      <path d="M 108 279.446807 
L 777.6 279.446807 
" clip-path="url(#p12dba09969)" style="fill: none; stroke-dasharray: 5.12,1.28,0.8,1.28; stroke-dashoffset: 0; stroke: #b0b0b0; stroke-width: 0.8"/>
     </g>
     <g id="line2d_14">
      <g>
       <use xlink:href="#madfd115771" x="108" y="279.446807" style="fill: #a9a9a9; stroke: #a9a9a9; stroke-width: 0.8"/>
      </g>
     </g>
     <g id="text_7">
      <!-- 1000 -->
      <g style="fill: #a9a9a9" transform="translate(75.55 283.246026) scale(0.1 -0.1)">
       <defs>
        <path id="DejaVuSans-31" d="M 794 531 
L 1825 531 
L 1825 4091 
L 703 3866 
L 703 4441 
L 1819 4666 
L 2450 4666 
L 2450 531 
L 3481 531 
L 3481 0 
L 794 0 
L 794 531 
z
" transform="scale(0.015625)"/>
       </defs>
       <use xlink:href="#DejaVuSans-31"/>
       <use xlink:href="#DejaVuSans-30" transform="translate(63.623047 0)"/>
       <use xlink:href="#DejaVuSans-30" transform="translate(127.246094 0)"/>
       <use xlink:href="#DejaVuSans-30" transform="translate(190.869141 0)"/>
      </g>
     </g>
    </g>
    <g id="ytick_3">
     <g id="line2d_15">
      <path d="M 108 251.065233 
L 777.6 251.065233 
" clip-path="url(#p12dba09969)" style="fill: none; stroke-dasharray: 5.12,1.28,0.8,1.28; stroke-dashoffset: 0; stroke: #b0b0b0; stroke-width: 0.8"/>
     </g>
     <g id="line2d_16">
      <g>
       <use xlink:href="#madfd115771" x="108" y="251.065233" style="fill: #a9a9a9; stroke: #a9a9a9; stroke-width: 0.8"/>
      </g>
     </g>
     <g id="text_8">
      <!-- 2000 -->
      <g style="fill: #a9a9a9" transform="translate(75.55 254.864451) scale(0.1 -0.1)">
       <use xlink:href="#DejaVuSans-32"/>
       <use xlink:href="#DejaVuSans-30" transform="translate(63.623047 0)"/>
       <use xlink:href="#DejaVuSans-30" transform="translate(127.246094 0)"/>
       <use xlink:href="#DejaVuSans-30" transform="translate(190.869141 0)"/>
      </g>
     </g>
    </g>
    <g id="ytick_4">
     <g id="line2d_17">
      <path d="M 108 222.683658 
L 777.6 222.683658 
" clip-path="url(#p12dba09969)" style="fill: none; stroke-dasharray: 5.12,1.28,0.8,1.28; stroke-dashoffset: 0; stroke: #b0b0b0; stroke-width: 0.8"/>
     </g>
     <g id="line2d_18">
      <g>
       <use xlink:href="#madfd115771" x="108" y="222.683658" style="fill: #a9a9a9; stroke: #a9a9a9; stroke-width: 0.8"/>
      </g>
     </g>
     <g id="text_9">
      <!-- 3000 -->
      <g style="fill: #a9a9a9" transform="translate(75.55 226.482877) scale(0.1 -0.1)">
       <use xlink:href="#DejaVuSans-33"/>
       <use xlink:href="#DejaVuSans-30" transform="translate(63.623047 0)"/>
       <use xlink:href="#DejaVuSans-30" transform="translate(127.246094 0)"/>
       <use xlink:href="#DejaVuSans-30" transform="translate(190.869141 0)"/>
      </g>
     </g>
    </g>
    <g id="ytick_5">
     <g id="line2d_19">
      <path d="M 108 194.302084 
L 777.6 194.302084 
" clip-path="url(#p12dba09969)" style="fill: none; stroke-dasharray: 5.12,1.28,0.8,1.28; stroke-dashoffset: 0; stroke: #b0b0b0; stroke-width: 0.8"/>
     </g>
     <g id="line2d_20">
      <g>
       <use xlink:href="#madfd115771" x="108" y="194.302084" style="fill: #a9a9a9; stroke: #a9a9a9; stroke-width: 0.8"/>
      </g>
     </g>
     <g id="text_10">
      <!-- 4000 -->
      <g style="fill: #a9a9a9" transform="translate(75.55 198.101302) scale(0.1 -0.1)">
       <use xlink:href="#DejaVuSans-34"/>
       <use xlink:href="#DejaVuSans-30" transform="translate(63.623047 0)"/>
       <use xlink:href="#DejaVuSans-30" transform="translate(127.246094 0)"/>
       <use xlink:href="#DejaVuSans-30" transform="translate(190.869141 0)"/>
      </g>
     </g>
    </g>
    <g id="ytick_6">
     <g id="line2d_21">
      <path d="M 108 165.920509 
L 777.6 165.920509 
" clip-path="url(#p12dba09969)" style="fill: none; stroke-dasharray: 5.12,1.28,0.8,1.28; stroke-dashoffset: 0; stroke: #b0b0b0; stroke-width: 0.8"/>
     </g>
     <g id="line2d_22">
      <g>
       <use xlink:href="#madfd115771" x="108" y="165.920509" style="fill: #a9a9a9; stroke: #a9a9a9; stroke-width: 0.8"/>
      </g>
     </g>
     <g id="text_11">
      <!-- 5000 -->
      <g style="fill: #a9a9a9" transform="translate(75.55 169.719728) scale(0.1 -0.1)">
       <use xlink:href="#DejaVuSans-35"/>
       <use xlink:href="#DejaVuSans-30" transform="translate(63.623047 0)"/>
       <use xlink:href="#DejaVuSans-30" transform="translate(127.246094 0)"/>
       <use xlink:href="#DejaVuSans-30" transform="translate(190.869141 0)"/>
      </g>
     </g>
    </g>
    <g id="ytick_7">
     <g id="line2d_23">
      <path d="M 108 137.538935 
L 777.6 137.538935 
" clip-path="url(#p12dba09969)" style="fill: none; stroke-dasharray: 5.12,1.28,0.8,1.28; stroke-dashoffset: 0; stroke: #b0b0b0; stroke-width: 0.8"/>
     </g>
     <g id="line2d_24">
      <g>
       <use xlink:href="#madfd115771" x="108" y="137.538935" style="fill: #a9a9a9; stroke: #a9a9a9; stroke-width: 0.8"/>
      </g>
     </g>
     <g id="text_12">
      <!-- 6000 -->
      <g style="fill: #a9a9a9" transform="translate(75.55 141.338153) scale(0.1 -0.1)">
       <use xlink:href="#DejaVuSans-36"/>
       <use xlink:href="#DejaVuSans-30" transform="translate(63.623047 0)"/>
       <use xlink:href="#DejaVuSans-30" transform="translate(127.246094 0)"/>
       <use xlink:href="#DejaVuSans-30" transform="translate(190.869141 0)"/>
      </g>
     </g>
    </g>
    <g id="ytick_8">
     <g id="line2d_25">
      <path d="M 108 109.15736 
L 777.6 109.15736 
" clip-path="url(#p12dba09969)" style="fill: none; stroke-dasharray: 5.12,1.28,0.8,1.28; stroke-dashoffset: 0; stroke: #b0b0b0; stroke-width: 0.8"/>
     </g>
     <g id="line2d_26">
      <g>
       <use xlink:href="#madfd115771" x="108" y="109.15736" style="fill: #a9a9a9; stroke: #a9a9a9; stroke-width: 0.8"/>
      </g>
     </g>
     <g id="text_13">
      <!-- 7000 -->
      <g style="fill: #a9a9a9" transform="translate(75.55 112.956579) scale(0.1 -0.1)">
       <defs>
        <path id="DejaVuSans-37" d="M 525 4666 
L 3525 4666 
L 3525 4397 
L 1831 0 
L 1172 0 
L 2766 4134 
L 525 4134 
L 525 4666 
z
" transform="scale(0.015625)"/>
       </defs>
       <use xlink:href="#DejaVuSans-37"/>
       <use xlink:href="#DejaVuSans-30" transform="translate(63.623047 0)"/>
       <use xlink:href="#DejaVuSans-30" transform="translate(127.246094 0)"/>
       <use xlink:href="#DejaVuSans-30" transform="translate(190.869141 0)"/>
      </g>
     </g>
    </g>
    <g id="ytick_9">
     <g id="line2d_27">
      <path d="M 108 80.775786 
L 777.6 80.775786 
" clip-path="url(#p12dba09969)" style="fill: none; stroke-dasharray: 5.12,1.28,0.8,1.28; stroke-dashoffset: 0; stroke: #b0b0b0; stroke-width: 0.8"/>
     </g>
     <g id="line2d_28">
      <g>
       <use xlink:href="#madfd115771" x="108" y="80.775786" style="fill: #a9a9a9; stroke: #a9a9a9; stroke-width: 0.8"/>
      </g>
     </g>
     <g id="text_14">
      <!-- 8000 -->
      <g style="fill: #a9a9a9" transform="translate(75.55 84.575004) scale(0.1 -0.1)">
       <defs>
        <path id="DejaVuSans-38" d="M 2034 2216 
Q 1584 2216 1326 1975 
Q 1069 1734 1069 1313 
Q 1069 891 1326 650 
Q 1584 409 2034 409 
Q 2484 409 2743 651 
Q 3003 894 3003 1313 
Q 3003 1734 2745 1975 
Q 2488 2216 2034 2216 
z
M 1403 2484 
Q 997 2584 770 2862 
Q 544 3141 544 3541 
Q 544 4100 942 4425 
Q 1341 4750 2034 4750 
Q 2731 4750 3128 4425 
Q 3525 4100 3525 3541 
Q 3525 3141 3298 2862 
Q 3072 2584 2669 2484 
Q 3125 2378 3379 2068 
Q 3634 1759 3634 1313 
Q 3634 634 3220 271 
Q 2806 -91 2034 -91 
Q 1263 -91 848 271 
Q 434 634 434 1313 
Q 434 1759 690 2068 
Q 947 2378 1403 2484 
z
M 1172 3481 
Q 1172 3119 1398 2916 
Q 1625 2713 2034 2713 
Q 2441 2713 2670 2916 
Q 2900 3119 2900 3481 
Q 2900 3844 2670 4047 
Q 2441 4250 2034 4250 
Q 1625 4250 1398 4047 
Q 1172 3844 1172 3481 
z
" transform="scale(0.015625)"/>
       </defs>
       <use xlink:href="#DejaVuSans-38"/>
       <use xlink:href="#DejaVuSans-30" transform="translate(63.623047 0)"/>
       <use xlink:href="#DejaVuSans-30" transform="translate(127.246094 0)"/>
       <use xlink:href="#DejaVuSans-30" transform="translate(190.869141 0)"/>
      </g>
     </g>
    </g>
    <g id="ytick_10">
     <g id="line2d_29">
      <path d="M 108 52.394211 
L 777.6 52.394211 
" clip-path="url(#p12dba09969)" style="fill: none; stroke-dasharray: 5.12,1.28,0.8,1.28; stroke-dashoffset: 0; stroke: #b0b0b0; stroke-width: 0.8"/>
     </g>
     <g id="line2d_30">
      <g>
       <use xlink:href="#madfd115771" x="108" y="52.394211" style="fill: #a9a9a9; stroke: #a9a9a9; stroke-width: 0.8"/>
      </g>
     </g>
     <g id="text_15">
      <!-- 9000 -->
      <g style="fill: #a9a9a9" transform="translate(75.55 56.19343) scale(0.1 -0.1)">
       <defs>
        <path id="DejaVuSans-39" d="M 703 97 
L 703 672 
Q 941 559 1184 500 
Q 1428 441 1663 441 
Q 2288 441 2617 861 
Q 2947 1281 2994 2138 
Q 2813 1869 2534 1725 
Q 2256 1581 1919 1581 
Q 1219 1581 811 2004 
Q 403 2428 403 3163 
Q 403 3881 828 4315 
Q 1253 4750 1959 4750 
Q 2769 4750 3195 4129 
Q 3622 3509 3622 2328 
Q 3622 1225 3098 567 
Q 2575 -91 1691 -91 
Q 1453 -91 1209 -44 
Q 966 3 703 97 
z
M 1959 2075 
Q 2384 2075 2632 2365 
Q 2881 2656 2881 3163 
Q 2881 3666 2632 3958 
Q 2384 4250 1959 4250 
Q 1534 4250 1286 3958 
Q 1038 3666 1038 3163 
Q 1038 2656 1286 2365 
Q 1534 2075 1959 2075 
z
" transform="scale(0.015625)"/>
       </defs>
       <use xlink:href="#DejaVuSans-39"/>
       <use xlink:href="#DejaVuSans-30" transform="translate(63.623047 0)"/>
       <use xlink:href="#DejaVuSans-30" transform="translate(127.246094 0)"/>
       <use xlink:href="#DejaVuSans-30" transform="translate(190.869141 0)"/>
      </g>
     </g>
    </g>
   </g>
   <g id="line2d_31">
    <path d="M 138.436364 307.743237 
L 140.546337 307.544566 
L 140.897999 307.374276 
L 142.304648 307.175605 
L 143.711297 306.863408 
L 145.117945 306.636355 
L 146.172932 306.579592 
L 146.876256 306.295777 
L 147.227919 305.784908 
L 147.579581 305.529474 
L 147.931243 304.678027 
L 148.282905 304.621264 
L 148.98623 304.167158 
L 149.689554 303.627909 
L 151.096203 302.549409 
L 151.447865 302.407501 
L 152.15119 301.953396 
L 153.206176 301.414146 
L 153.557838 300.818133 
L 154.261163 300.250501 
L 154.964487 300.023449 
L 156.019474 299.853159 
L 158.129447 299.51258 
L 158.481109 299.342291 
L 160.942745 299.115238 
L 162.349393 298.746278 
L 165.162691 298.320554 
L 165.514353 298.121883 
L 165.866015 298.06512 
L 166.56934 297.809686 
L 169.030975 297.355581 
L 169.7343 297.128528 
L 172.899259 296.560896 
L 173.602584 296.390607 
L 175.009233 296.191936 
L 175.712557 295.964883 
L 176.064219 295.425634 
L 177.119206 294.971528 
L 178.174193 294.659331 
L 178.525855 294.46066 
L 179.229179 294.318752 
L 180.98749 293.864647 
L 182.042477 293.609213 
L 183.449126 293.240252 
L 183.800788 293.211871 
L 184.504112 292.871292 
L 184.855774 292.814529 
L 185.207437 292.615858 
L 189.779045 291.792792 
L 191.185694 291.140016 
L 191.889018 290.941345 
L 192.592343 290.629147 
L 193.295667 290.118279 
L 194.350654 289.891226 
L 198.922262 288.500529 
L 199.273925 288.443766 
L 200.680573 287.847753 
L 201.032236 287.79099 
L 201.73556 287.478793 
L 202.438885 287.450411 
L 203.493871 287.109832 
L 203.845533 287.109832 
L 204.197196 286.939543 
L 204.90052 286.854398 
L 205.252182 286.71249 
L 207.010493 286.627345 
L 207.362155 286.542201 
L 208.06548 286.144859 
L 209.120466 285.747517 
L 209.823791 285.350175 
L 210.878777 284.867688 
L 212.285426 284.158148 
L 212.637088 283.760806 
L 213.340413 282.56878 
L 214.395399 282.228201 
L 214.747062 281.944386 
L 215.802048 281.547044 
L 216.15371 281.178083 
L 217.208697 280.723978 
L 217.560359 280.525307 
L 219.670332 277.970965 
L 220.373657 277.630386 
L 221.780306 276.60865 
L 222.48363 276.097781 
L 222.835292 275.558531 
L 223.186954 274.678703 
L 223.538617 274.111071 
L 225.64859 272.379795 
L 226.703576 271.414821 
L 227.406901 270.47823 
L 228.461888 269.683545 
L 229.868536 268.775335 
L 230.571861 268.377993 
L 231.97851 267.583309 
L 233.736821 265.823651 
L 234.440145 265.511454 
L 235.143469 265.000586 
L 235.495132 264.773533 
L 235.846794 264.71677 
L 236.90178 264.092375 
L 237.253443 263.666652 
L 239.011754 262.644915 
L 239.363416 262.503007 
L 240.418402 261.708323 
L 245.693335 259.66485 
L 246.39666 258.95531 
L 247.451646 258.387679 
L 248.154971 257.905192 
L 248.858295 257.678139 
L 249.209957 257.422705 
L 249.56162 257.309179 
L 250.616606 256.542876 
L 252.726579 255.918482 
L 253.429904 255.464377 
L 254.48489 255.208942 
L 254.836553 255.123798 
L 255.891539 254.329114 
L 257.298188 253.90339 
L 258.001513 253.477666 
L 258.704837 253.165469 
L 259.759824 252.82489 
L 260.463148 252.682982 
L 261.166472 252.370785 
L 263.628108 251.405811 
L 264.331432 251.320667 
L 265.738081 250.753035 
L 269.606365 248.68118 
L 270.30969 248.340601 
L 271.013014 248.000023 
L 271.716338 247.858115 
L 272.419663 247.404009 
L 273.122987 247.205338 
L 274.177974 246.751233 
L 275.584623 246.552562 
L 276.287947 246.15522 
L 276.639609 245.814641 
L 276.991271 245.133484 
L 278.39792 244.70776 
L 279.804569 244.026602 
L 282.969529 242.522379 
L 283.672853 242.352089 
L 284.72784 241.784458 
L 285.079502 241.727695 
L 286.837813 240.791103 
L 287.541138 240.308616 
L 288.596124 240.081563 
L 291.761084 238.9463 
L 293.167733 238.321906 
L 293.519395 238.03809 
L 293.871057 237.924564 
L 294.574382 237.49884 
L 296.332693 236.817682 
L 298.442666 235.199932 
L 298.794328 235.143169 
L 299.14599 234.518775 
L 299.497652 234.376867 
L 299.849315 234.064669 
L 300.200977 234.007906 
L 300.904301 233.52542 
L 301.607626 233.269985 
L 302.31095 232.844262 
L 304.069261 231.680617 
L 306.179234 230.687262 
L 306.530896 230.034486 
L 307.234221 229.466854 
L 307.937545 229.183039 
L 308.289207 228.927604 
L 308.64087 228.84246 
L 309.344194 228.473499 
L 310.750843 227.735578 
L 311.454167 227.082802 
L 312.157492 226.458407 
L 312.860816 226.004302 
L 313.564141 225.323144 
L 314.267465 224.727131 
L 314.619127 224.556842 
L 315.322452 223.790539 
L 316.377438 223.279671 
L 317.080763 222.853948 
L 317.432425 222.740421 
L 317.784087 222.456605 
L 318.135749 222.399842 
L 321.300709 220.696948 
L 322.004033 220.498277 
L 323.410682 220.01579 
L 324.114007 219.533303 
L 325.520655 218.994053 
L 326.22398 218.539948 
L 326.927304 218.256132 
L 327.630629 217.716883 
L 328.333953 216.241041 
L 329.037277 215.389593 
L 330.092264 214.821962 
L 330.795588 214.509765 
L 331.147251 214.453001 
L 331.850575 214.112423 
L 333.608886 213.459646 
L 334.31221 212.97716 
L 335.367197 212.523054 
L 337.125508 211.416173 
L 337.828833 210.735015 
L 338.883819 210.195765 
L 339.587144 209.770042 
L 340.993792 208.946976 
L 341.345455 208.861831 
L 341.697117 208.578016 
L 344.158752 207.726568 
L 344.510414 207.471134 
L 345.213739 207.244082 
L 349.082023 205.285753 
L 349.785347 204.68974 
L 350.488672 204.491069 
L 350.840334 204.15049 
L 351.191996 204.093727 
L 351.895321 203.526095 
L 353.653632 202.419214 
L 354.356956 202.192161 
L 354.708618 201.965109 
L 355.06028 201.908346 
L 357.170254 200.971754 
L 361.3902 199.609438 
L 362.445187 198.843135 
L 363.148511 198.445793 
L 364.55516 197.736254 
L 365.610147 196.998333 
L 366.313471 196.828044 
L 367.368458 196.146886 
L 370.533417 195.011623 
L 371.236742 194.756189 
L 372.643391 194.443991 
L 373.346715 194.216939 
L 375.105026 193.592544 
L 376.160013 193.251965 
L 376.863337 193.081676 
L 378.97331 192.684334 
L 379.676635 192.542426 
L 380.731621 192.286992 
L 381.083283 192.116702 
L 381.786608 191.974794 
L 382.489932 191.776123 
L 383.193257 191.435545 
L 383.544919 191.293637 
L 383.896581 191.293637 
L 389.171514 189.533979 
L 389.523176 189.136637 
L 391.63315 188.200045 
L 393.039798 187.689177 
L 393.391461 187.462124 
L 395.149772 186.922874 
L 395.501434 186.66744 
L 395.853096 186.582295 
L 396.204758 186.270098 
L 397.259745 186.043045 
L 397.963069 185.702466 
L 398.314731 185.248361 
L 409.21626 182.52373 
L 410.622908 182.069625 
L 412.029557 181.61552 
L 412.732882 181.303322 
L 413.436206 181.019507 
L 413.787868 180.764073 
L 415.546179 180.224823 
L 416.952828 179.572046 
L 418.359477 179.401757 
L 426.447708 176.223021 
L 428.206019 175.712152 
L 428.909343 175.343192 
L 429.96433 175.087758 
L 431.370978 173.86735 
L 433.832614 172.760469 
L 436.294249 171.653587 
L 437.349236 171.284627 
L 438.404222 170.745377 
L 441.21752 169.269535 
L 441.920844 168.928956 
L 442.272507 168.64514 
L 443.327493 168.191035 
L 444.734142 167.453114 
L 446.140791 166.885483 
L 448.602426 165.948891 
L 449.305751 165.863746 
L 449.657413 165.608312 
L 451.064062 165.324496 
L 451.767386 165.012299 
L 453.525697 164.13247 
L 458.097306 162.003852 
L 459.152292 161.634891 
L 459.503955 161.379457 
L 460.207279 161.294312 
L 460.558941 161.06726 
L 461.262266 160.953734 
L 465.13055 159.477892 
L 467.240523 158.853497 
L 468.29551 158.399392 
L 468.998834 158.00205 
L 470.405483 157.235747 
L 471.108807 157.065458 
L 471.46047 156.838405 
L 471.812132 156.781642 
L 473.570443 155.873432 
L 478.142051 154.085392 
L 478.493714 154.028629 
L 479.900362 153.31909 
L 480.603687 153.177182 
L 481.307011 152.751458 
L 482.71366 152.041919 
L 489.395242 149.232143 
L 490.098566 148.522604 
L 491.153553 147.983354 
L 492.208539 147.671157 
L 492.560202 147.387341 
L 493.263526 147.131907 
L 494.318513 146.393986 
L 495.021837 146.195315 
L 495.725161 145.797973 
L 496.780148 145.542539 
L 503.46173 142.761144 
L 504.165054 142.448947 
L 506.275028 141.654263 
L 508.033339 140.746052 
L 508.736663 140.519 
L 509.088325 140.178421 
L 510.143312 139.752697 
L 510.494974 139.695934 
L 511.901623 139.014776 
L 512.956609 138.674198 
L 514.011596 138.276856 
L 515.066583 137.964658 
L 515.418245 137.907895 
L 516.121569 137.510553 
L 516.473231 137.368645 
L 516.824894 137.084829 
L 517.87988 136.801014 
L 518.583205 136.517198 
L 519.286529 136.205001 
L 520.693178 135.608987 
L 523.154813 134.984593 
L 523.858138 134.700777 
L 528.078084 133.622277 
L 530.188057 132.316725 
L 531.243044 131.69233 
L 533.353017 131.011172 
L 534.056342 130.585449 
L 536.517977 129.70562 
L 537.572964 129.365041 
L 538.276288 128.967699 
L 538.979612 128.769028 
L 539.331275 128.570357 
L 540.034599 128.428449 
L 541.79291 127.605383 
L 542.496234 127.321568 
L 543.902883 126.753936 
L 544.254545 126.413357 
L 544.606208 126.356594 
L 546.012856 125.760581 
L 547.419505 125.391621 
L 547.771167 125.363239 
L 548.12283 125.19295 
L 548.826154 125.051042 
L 551.991114 124.057687 
L 552.694438 123.490055 
L 554.101087 122.66699 
L 555.156074 122.326411 
L 558.321034 120.737042 
L 558.672696 120.453227 
L 560.782669 119.828832 
L 561.485993 119.545016 
L 562.54098 119.176056 
L 562.892642 118.863859 
L 565.354278 117.955648 
L 566.409264 117.473161 
L 566.760926 117.44478 
L 567.464251 117.160964 
L 568.8709 116.536569 
L 570.980873 115.99732 
L 572.035859 115.514833 
L 575.200819 114.493096 
L 575.904144 114.095754 
L 584.695699 111.31436 
L 585.047361 111.285978 
L 586.45401 110.718347 
L 588.212321 110.349386 
L 589.61897 109.810136 
L 589.970632 109.810136 
L 591.025618 109.554702 
L 591.728943 109.412794 
L 592.432267 109.214123 
L 593.487254 108.646492 
L 594.893903 108.192387 
L 599.465511 106.46111 
L 600.520498 106.09215 
L 602.278809 105.127176 
L 602.982133 105.042032 
L 605.443769 104.332492 
L 606.498755 104.10544 
L 609.312053 103.083703 
L 613.883662 101.295664 
L 614.586986 101.182138 
L 615.29031 101.04023 
L 615.641973 101.04023 
L 616.696959 100.699651 
L 618.45527 100.188783 
L 619.861919 99.706296 
L 624.433528 98.571033 
L 625.488514 98.060164 
L 626.895163 97.606059 
L 631.818434 96.101836 
L 632.170096 96.073454 
L 633.225083 95.676112 
L 633.928407 95.562586 
L 636.390043 94.625994 
L 638.851678 94.143507 
L 640.609989 93.632639 
L 640.961651 93.462349 
L 641.664976 92.837955 
L 644.829935 91.589165 
L 645.53326 91.475639 
L 648.346557 90.539047 
L 649.401544 89.943034 
L 649.753206 89.857889 
L 650.104868 89.574074 
L 651.159855 89.261876 
L 652.566504 88.694245 
L 653.62149 88.183377 
L 654.324815 87.757653 
L 654.676477 87.672508 
L 655.379801 87.275166 
L 658.193099 86.253429 
L 658.544761 85.941232 
L 658.896424 85.884469 
L 659.599748 85.430364 
L 660.654735 85.118166 
L 662.061383 84.522153 
L 662.413046 84.493772 
L 664.171357 83.812614 
L 664.874681 83.670706 
L 665.578005 83.159838 
L 665.929668 83.159838 
L 667.336316 82.648969 
L 668.742965 82.365154 
L 670.149614 81.740759 
L 670.501276 81.740759 
L 672.962912 81.002838 
L 673.666236 80.435207 
L 676.831196 79.271562 
L 678.237845 78.930983 
L 680.69948 78.249825 
L 682.809453 77.511904 
L 684.216102 77.199707 
L 686.677738 76.490168 
L 687.381062 76.34826 
L 690.19436 75.298142 
L 690.897684 75.156234 
L 692.304333 74.9008 
L 693.007657 74.787273 
L 694.414306 74.219642 
L 695.11763 74.020971 
L 695.820955 73.907445 
L 697.227604 73.481721 
L 697.579266 73.481721 
L 698.28259 73.084379 
L 701.44755 72.232932 
L 710.942429 68.287893 
L 711.294092 68.06084 
L 711.645754 67.975695 
L 711.997416 67.748643 
L 712.349078 67.69188 
L 713.052403 67.266156 
L 715.162376 66.783669 
L 715.514038 66.528235 
L 719.382322 65.194301 
L 720.085647 64.825341 
L 721.492296 64.257709 
L 723.953931 63.576551 
L 724.657255 63.463025 
L 725.36058 63.37788 
L 727.118891 63.037301 
L 728.173877 62.441288 
L 728.52554 62.384525 
L 729.228864 62.072328 
L 730.283851 61.902039 
L 730.987175 61.56146 
L 736.262108 59.489605 
L 737.317095 59.234171 
L 739.427068 58.666539 
L 740.130392 58.638157 
L 742.592028 57.871855 
L 742.94369 57.588039 
L 743.295352 57.531276 
L 743.998677 57.219079 
L 744.350339 57.133934 
L 745.053663 56.736592 
L 747.163636 55.8 
L 747.163636 55.8 
" clip-path="url(#p12dba09969)" style="fill: none; stroke: #1f77b4; stroke-width: 1.5; stroke-linecap: square"/>
   </g>
   <g id="line2d_32">
    <path d="M 138.788026 307.8 
L 141.952986 307.714855 
L 144.766283 307.572947 
L 146.172932 307.572947 
L 146.876256 307.459421 
L 155.316149 306.863408 
L 158.129447 306.778263 
L 159.887758 306.7215 
L 164.459367 306.636355 
L 166.217678 306.579592 
L 169.382637 306.494448 
L 170.789286 306.466066 
L 174.305908 306.380921 
L 175.360895 306.267395 
L 178.525855 306.18225 
L 180.284166 306.125487 
L 182.394139 306.068724 
L 183.800788 305.926816 
L 186.965748 305.841671 
L 187.669072 305.784908 
L 189.075721 305.699763 
L 191.185694 305.614619 
L 192.592343 305.529474 
L 198.922262 305.10375 
L 201.383898 305.046987 
L 202.438885 304.933461 
L 204.197196 304.848316 
L 207.713818 304.649645 
L 211.23044 304.592882 
L 212.637088 304.450974 
L 214.395399 304.365829 
L 217.912021 303.996869 
L 220.021995 303.713053 
L 221.428643 303.65629 
L 224.241941 303.28733 
L 226.351914 303.230567 
L 227.406901 303.145422 
L 228.461888 303.060277 
L 246.748322 301.66958 
L 249.209957 301.584435 
L 250.616606 301.414146 
L 252.374917 301.329001 
L 254.48489 301.243856 
L 256.243202 301.158712 
L 257.64985 301.13033 
L 259.408161 301.073567 
L 260.111486 300.988422 
L 265.034757 300.903277 
L 265.738081 300.818133 
L 269.958027 300.732988 
L 273.122987 300.562699 
L 275.584623 300.477554 
L 277.342934 300.278883 
L 279.452907 300.193738 
L 280.507893 300.05183 
L 285.431164 299.966685 
L 286.837813 299.824778 
L 288.244462 299.796396 
L 289.299449 299.711251 
L 290.706097 299.569343 
L 294.222719 299.370672 
L 297.739341 299.285528 
L 300.904301 299.115238 
L 301.959288 299.086857 
L 302.662612 298.97333 
L 304.420923 298.916567 
L 305.124248 298.859804 
L 306.882559 298.774659 
L 308.289207 298.746278 
L 310.750843 298.661133 
L 319.89406 298.008357 
L 322.004033 297.923212 
L 323.762344 297.866449 
L 328.685615 297.781304 
L 329.38894 297.696159 
L 334.31221 297.611015 
L 337.828833 297.412344 
L 338.532157 297.383962 
L 339.235481 297.298817 
L 340.993792 297.213673 
L 342.752103 297.15691 
L 344.510414 297.071765 
L 346.268725 297.015002 
L 349.433685 296.929857 
L 351.543658 296.844712 
L 356.466929 296.759568 
L 360.335213 296.532515 
L 361.741862 296.475752 
L 362.796849 296.390607 
L 367.72012 296.305462 
L 369.830093 296.220318 
L 381.083283 296.135173 
L 383.896581 295.993265 
L 391.984812 295.90812 
L 392.688136 295.851357 
L 398.666394 295.794594 
L 399.369718 295.737831 
L 414.842855 295.652686 
L 416.601166 295.595923 
L 427.854356 295.510778 
L 432.425965 295.226962 
L 435.942587 295.141818 
L 436.645911 295.085055 
L 439.810871 294.99991 
L 440.514196 294.943147 
L 443.679156 294.858002 
L 446.492453 294.716094 
L 453.174035 294.630949 
L 455.284008 294.545805 
L 459.152292 294.46066 
L 461.613928 294.347134 
L 464.075563 294.290371 
L 464.778888 294.233607 
L 473.218781 294.148463 
L 476.735403 293.949792 
L 479.5487 293.864647 
L 480.603687 293.722739 
L 484.120309 293.637594 
L 485.87862 293.580831 
L 489.395242 293.495686 
L 491.153553 293.297015 
L 494.670175 293.211871 
L 495.373499 293.126726 
L 498.890121 293.041581 
L 500.648432 292.984818 
L 504.516717 292.956437 
L 505.220041 292.871292 
L 509.088325 292.786147 
L 509.79165 292.729384 
L 517.528218 292.644239 
L 519.638191 292.559094 
L 524.913124 292.47395 
L 526.319773 292.445568 
L 529.484733 292.417187 
L 530.188057 292.332042 
L 534.759666 292.246897 
L 536.517977 292.190134 
L 542.847897 292.133371 
L 543.902883 292.048226 
L 544.95787 291.963081 
L 546.012856 291.877937 
L 551.28779 291.792792 
L 553.397763 291.707647 
L 563.595967 291.622503 
L 566.760926 291.452213 
L 571.684197 291.367068 
L 573.090846 291.338687 
L 577.310793 291.253542 
L 579.069104 291.196779 
L 587.157334 291.111634 
L 589.267307 291.026489 
L 595.245565 290.941345 
L 597.003876 290.884582 
L 600.168836 290.799437 
L 602.630471 290.685911 
L 606.498755 290.600766 
L 608.960391 290.48724 
L 612.125351 290.430476 
L 612.828675 290.373713 
L 620.565243 290.288569 
L 622.675217 290.203424 
L 625.136852 290.118279 
L 626.895163 290.061516 
L 637.093367 289.976371 
L 639.20334 289.891226 
L 645.181598 289.806082 
L 646.939909 289.749319 
L 651.511517 289.664174 
L 653.62149 289.579029 
L 656.434788 289.493884 
L 658.544761 289.40874 
L 672.611249 289.323595 
L 675.072885 289.210069 
L 683.512778 289.124924 
L 684.919427 289.096542 
L 693.359319 289.011398 
L 695.11763 288.954635 
L 706.370821 288.86949 
L 707.77747 288.841108 
L 718.327336 288.755964 
L 720.085647 288.6992 
L 730.635513 288.614056 
L 732.745486 288.528911 
L 746.10865 288.443766 
L 747.163636 288.415385 
L 747.163636 288.415385 
" clip-path="url(#p12dba09969)" style="fill: none; stroke: #ff7f0e; stroke-width: 1.5; stroke-linecap: square"/>
   </g>
   <g id="patch_3">
    <path d="M 108 320.4 
L 108 43.2 
" style="fill: none; stroke: #a9a9a9; stroke-width: 0.8; stroke-linejoin: miter; stroke-linecap: square"/>
   </g>
   <g id="patch_4">
    <path d="M 777.6 320.4 
L 777.6 43.2 
" style="fill: none"/>
   </g>
   <g id="patch_5">
    <path d="M 108 320.4 
L 777.6 320.4 
" style="fill: none; stroke: #a9a9a9; stroke-width: 0.8; stroke-linejoin: miter; stroke-linecap: square"/>
   </g>
   <g id="patch_6">
    <path d="M 108 43.2 
L 777.6 43.2 
" style="fill: none"/>
   </g>
   <g id="text_16">
    <!-- get_subscribe history -->
    <g style="fill: #a9a9a9" transform="translate(378.6075 37.2) scale(0.12 -0.12)">
     <defs>
      <path id="DejaVuSans-67" d="M 2906 1791 
Q 2906 2416 2648 2759 
Q 2391 3103 1925 3103 
Q 1463 3103 1205 2759 
Q 947 2416 947 1791 
Q 947 1169 1205 825 
Q 1463 481 1925 481 
Q 2391 481 2648 825 
Q 2906 1169 2906 1791 
z
M 3481 434 
Q 3481 -459 3084 -895 
Q 2688 -1331 1869 -1331 
Q 1566 -1331 1297 -1286 
Q 1028 -1241 775 -1147 
L 775 -588 
Q 1028 -725 1275 -790 
Q 1522 -856 1778 -856 
Q 2344 -856 2625 -561 
Q 2906 -266 2906 331 
L 2906 616 
Q 2728 306 2450 153 
Q 2172 0 1784 0 
Q 1141 0 747 490 
Q 353 981 353 1791 
Q 353 2603 747 3093 
Q 1141 3584 1784 3584 
Q 2172 3584 2450 3431 
Q 2728 3278 2906 2969 
L 2906 3500 
L 3481 3500 
L 3481 434 
z
" transform="scale(0.015625)"/>
      <path id="DejaVuSans-65" d="M 3597 1894 
L 3597 1613 
L 953 1613 
Q 991 1019 1311 708 
Q 1631 397 2203 397 
Q 2534 397 2845 478 
Q 3156 559 3463 722 
L 3463 178 
Q 3153 47 2828 -22 
Q 2503 -91 2169 -91 
Q 1331 -91 842 396 
Q 353 884 353 1716 
Q 353 2575 817 3079 
Q 1281 3584 2069 3584 
Q 2775 3584 3186 3129 
Q 3597 2675 3597 1894 
z
M 3022 2063 
Q 3016 2534 2758 2815 
Q 2500 3097 2075 3097 
Q 1594 3097 1305 2825 
Q 1016 2553 972 2059 
L 3022 2063 
z
" transform="scale(0.015625)"/>
      <path id="DejaVuSans-74" d="M 1172 4494 
L 1172 3500 
L 2356 3500 
L 2356 3053 
L 1172 3053 
L 1172 1153 
Q 1172 725 1289 603 
Q 1406 481 1766 481 
L 2356 481 
L 2356 0 
L 1766 0 
Q 1100 0 847 248 
Q 594 497 594 1153 
L 594 3053 
L 172 3053 
L 172 3500 
L 594 3500 
L 594 4494 
L 1172 4494 
z
" transform="scale(0.015625)"/>
      <path id="DejaVuSans-5f" d="M 3263 -1063 
L 3263 -1509 
L -63 -1509 
L -63 -1063 
L 3263 -1063 
z
" transform="scale(0.015625)"/>
      <path id="DejaVuSans-73" d="M 2834 3397 
L 2834 2853 
Q 2591 2978 2328 3040 
Q 2066 3103 1784 3103 
Q 1356 3103 1142 2972 
Q 928 2841 928 2578 
Q 928 2378 1081 2264 
Q 1234 2150 1697 2047 
L 1894 2003 
Q 2506 1872 2764 1633 
Q 3022 1394 3022 966 
Q 3022 478 2636 193 
Q 2250 -91 1575 -91 
Q 1294 -91 989 -36 
Q 684 19 347 128 
L 347 722 
Q 666 556 975 473 
Q 1284 391 1588 391 
Q 1994 391 2212 530 
Q 2431 669 2431 922 
Q 2431 1156 2273 1281 
Q 2116 1406 1581 1522 
L 1381 1569 
Q 847 1681 609 1914 
Q 372 2147 372 2553 
Q 372 3047 722 3315 
Q 1072 3584 1716 3584 
Q 2034 3584 2315 3537 
Q 2597 3491 2834 3397 
z
" transform="scale(0.015625)"/>
      <path id="DejaVuSans-75" d="M 544 1381 
L 544 3500 
L 1119 3500 
L 1119 1403 
Q 1119 906 1312 657 
Q 1506 409 1894 409 
Q 2359 409 2629 706 
Q 2900 1003 2900 1516 
L 2900 3500 
L 3475 3500 
L 3475 0 
L 2900 0 
L 2900 538 
Q 2691 219 2414 64 
Q 2138 -91 1772 -91 
Q 1169 -91 856 284 
Q 544 659 544 1381 
z
M 1991 3584 
L 1991 3584 
z
" transform="scale(0.015625)"/>
      <path id="DejaVuSans-62" d="M 3116 1747 
Q 3116 2381 2855 2742 
Q 2594 3103 2138 3103 
Q 1681 3103 1420 2742 
Q 1159 2381 1159 1747 
Q 1159 1113 1420 752 
Q 1681 391 2138 391 
Q 2594 391 2855 752 
Q 3116 1113 3116 1747 
z
M 1159 2969 
Q 1341 3281 1617 3432 
Q 1894 3584 2278 3584 
Q 2916 3584 3314 3078 
Q 3713 2572 3713 1747 
Q 3713 922 3314 415 
Q 2916 -91 2278 -91 
Q 1894 -91 1617 61 
Q 1341 213 1159 525 
L 1159 0 
L 581 0 
L 581 4863 
L 1159 4863 
L 1159 2969 
z
" transform="scale(0.015625)"/>
      <path id="DejaVuSans-63" d="M 3122 3366 
L 3122 2828 
Q 2878 2963 2633 3030 
Q 2388 3097 2138 3097 
Q 1578 3097 1268 2742 
Q 959 2388 959 1747 
Q 959 1106 1268 751 
Q 1578 397 2138 397 
Q 2388 397 2633 464 
Q 2878 531 3122 666 
L 3122 134 
Q 2881 22 2623 -34 
Q 2366 -91 2075 -91 
Q 1284 -91 818 406 
Q 353 903 353 1747 
Q 353 2603 823 3093 
Q 1294 3584 2113 3584 
Q 2378 3584 2631 3529 
Q 2884 3475 3122 3366 
z
" transform="scale(0.015625)"/>
      <path id="DejaVuSans-72" d="M 2631 2963 
Q 2534 3019 2420 3045 
Q 2306 3072 2169 3072 
Q 1681 3072 1420 2755 
Q 1159 2438 1159 1844 
L 1159 0 
L 581 0 
L 581 3500 
L 1159 3500 
L 1159 2956 
Q 1341 3275 1631 3429 
Q 1922 3584 2338 3584 
Q 2397 3584 2469 3576 
Q 2541 3569 2628 3553 
L 2631 2963 
z
" transform="scale(0.015625)"/>
      <path id="DejaVuSans-69" d="M 603 3500 
L 1178 3500 
L 1178 0 
L 603 0 
L 603 3500 
z
M 603 4863 
L 1178 4863 
L 1178 4134 
L 603 4134 
L 603 4863 
z
" transform="scale(0.015625)"/>
      <path id="DejaVuSans-20" transform="scale(0.015625)"/>
      <path id="DejaVuSans-68" d="M 3513 2113 
L 3513 0 
L 2938 0 
L 2938 2094 
Q 2938 2591 2744 2837 
Q 2550 3084 2163 3084 
Q 1697 3084 1428 2787 
Q 1159 2491 1159 1978 
L 1159 0 
L 581 0 
L 581 4863 
L 1159 4863 
L 1159 2956 
Q 1366 3272 1645 3428 
Q 1925 3584 2291 3584 
Q 2894 3584 3203 3211 
Q 3513 2838 3513 2113 
z
" transform="scale(0.015625)"/>
      <path id="DejaVuSans-6f" d="M 1959 3097 
Q 1497 3097 1228 2736 
Q 959 2375 959 1747 
Q 959 1119 1226 758 
Q 1494 397 1959 397 
Q 2419 397 2687 759 
Q 2956 1122 2956 1747 
Q 2956 2369 2687 2733 
Q 2419 3097 1959 3097 
z
M 1959 3584 
Q 2709 3584 3137 3096 
Q 3566 2609 3566 1747 
Q 3566 888 3137 398 
Q 2709 -91 1959 -91 
Q 1206 -91 779 398 
Q 353 888 353 1747 
Q 353 2609 779 3096 
Q 1206 3584 1959 3584 
z
" transform="scale(0.015625)"/>
      <path id="DejaVuSans-79" d="M 2059 -325 
Q 1816 -950 1584 -1140 
Q 1353 -1331 966 -1331 
L 506 -1331 
L 506 -850 
L 844 -850 
Q 1081 -850 1212 -737 
Q 1344 -625 1503 -206 
L 1606 56 
L 191 3500 
L 800 3500 
L 1894 763 
L 2988 3500 
L 3597 3500 
L 2059 -325 
z
" transform="scale(0.015625)"/>
     </defs>
     <use xlink:href="#DejaVuSans-67"/>
     <use xlink:href="#DejaVuSans-65" transform="translate(63.476562 0)"/>
     <use xlink:href="#DejaVuSans-74" transform="translate(125 0)"/>
     <use xlink:href="#DejaVuSans-5f" transform="translate(164.208984 0)"/>
     <use xlink:href="#DejaVuSans-73" transform="translate(214.208984 0)"/>
     <use xlink:href="#DejaVuSans-75" transform="translate(266.308594 0)"/>
     <use xlink:href="#DejaVuSans-62" transform="translate(329.6875 0)"/>
     <use xlink:href="#DejaVuSans-73" transform="translate(393.164062 0)"/>
     <use xlink:href="#DejaVuSans-63" transform="translate(445.263672 0)"/>
     <use xlink:href="#DejaVuSans-72" transform="translate(500.244141 0)"/>
     <use xlink:href="#DejaVuSans-69" transform="translate(541.357422 0)"/>
     <use xlink:href="#DejaVuSans-62" transform="translate(569.140625 0)"/>
     <use xlink:href="#DejaVuSans-65" transform="translate(632.617188 0)"/>
     <use xlink:href="#DejaVuSans-20" transform="translate(694.140625 0)"/>
     <use xlink:href="#DejaVuSans-68" transform="translate(725.927734 0)"/>
     <use xlink:href="#DejaVuSans-69" transform="translate(789.306641 0)"/>
     <use xlink:href="#DejaVuSans-73" transform="translate(817.089844 0)"/>
     <use xlink:href="#DejaVuSans-74" transform="translate(869.189453 0)"/>
     <use xlink:href="#DejaVuSans-6f" transform="translate(908.398438 0)"/>
     <use xlink:href="#DejaVuSans-72" transform="translate(969.580078 0)"/>
     <use xlink:href="#DejaVuSans-79" transform="translate(1010.693359 0)"/>
    </g>
   </g>
   <g id="legend_1">
    <g id="line2d_33">
     <path d="M 815.08 328.498438 
L 825.08 328.498438 
L 835.08 328.498438 
" style="fill: none; stroke: #1f77b4; stroke-width: 1.5; stroke-linecap: square"/>
    </g>
    <g id="text_17">
     <!-- star -->
     <g style="fill: #a9a9a9" transform="translate(843.08 331.998438) scale(0.1 -0.1)">
      <defs>
       <path id="DejaVuSans-61" d="M 2194 1759 
Q 1497 1759 1228 1600 
Q 959 1441 959 1056 
Q 959 750 1161 570 
Q 1363 391 1709 391 
Q 2188 391 2477 730 
Q 2766 1069 2766 1631 
L 2766 1759 
L 2194 1759 
z
M 3341 1997 
L 3341 0 
L 2766 0 
L 2766 531 
Q 2569 213 2275 61 
Q 1981 -91 1556 -91 
Q 1019 -91 701 211 
Q 384 513 384 1019 
Q 384 1609 779 1909 
Q 1175 2209 1959 2209 
L 2766 2209 
L 2766 2266 
Q 2766 2663 2505 2880 
Q 2244 3097 1772 3097 
Q 1472 3097 1187 3025 
Q 903 2953 641 2809 
L 641 3341 
Q 956 3463 1253 3523 
Q 1550 3584 1831 3584 
Q 2591 3584 2966 3190 
Q 3341 2797 3341 1997 
z
" transform="scale(0.015625)"/>
      </defs>
      <use xlink:href="#DejaVuSans-73"/>
      <use xlink:href="#DejaVuSans-74" transform="translate(52.099609 0)"/>
      <use xlink:href="#DejaVuSans-61" transform="translate(91.308594 0)"/>
      <use xlink:href="#DejaVuSans-72" transform="translate(152.587891 0)"/>
     </g>
    </g>
    <g id="line2d_34">
     <path d="M 815.08 343.176562 
L 825.08 343.176562 
L 835.08 343.176562 
" style="fill: none; stroke: #ff7f0e; stroke-width: 1.5; stroke-linecap: square"/>
    </g>
    <g id="text_18">
     <!-- fork -->
     <g style="fill: #a9a9a9" transform="translate(843.08 346.676562) scale(0.1 -0.1)">
      <defs>
       <path id="DejaVuSans-66" d="M 2375 4863 
L 2375 4384 
L 1825 4384 
Q 1516 4384 1395 4259 
Q 1275 4134 1275 3809 
L 1275 3500 
L 2222 3500 
L 2222 3053 
L 1275 3053 
L 1275 0 
L 697 0 
L 697 3053 
L 147 3053 
L 147 3500 
L 697 3500 
L 697 3744 
Q 697 4328 969 4595 
Q 1241 4863 1831 4863 
L 2375 4863 
z
" transform="scale(0.015625)"/>
       <path id="DejaVuSans-6b" d="M 581 4863 
L 1159 4863 
L 1159 1991 
L 2875 3500 
L 3609 3500 
L 1753 1863 
L 3688 0 
L 2938 0 
L 1159 1709 
L 1159 0 
L 581 0 
L 581 4863 
z
" transform="scale(0.015625)"/>
      </defs>
      <use xlink:href="#DejaVuSans-66"/>
      <use xlink:href="#DejaVuSans-6f" transform="translate(35.205078 0)"/>
      <use xlink:href="#DejaVuSans-72" transform="translate(96.386719 0)"/>
      <use xlink:href="#DejaVuSans-6b" transform="translate(137.5 0)"/>
     </g>
    </g>
   </g>
  </g>
 </g>
 <defs>
  <clipPath id="p12dba09969">
   <rect x="108" y="43.2" width="669.6" height="277.2"/>
  </clipPath>
 </defs>
</svg>
