<?xml version="1.0" encoding="utf-8" standalone="no"?>
<!DOCTYPE svg PUBLIC "-//W3C//DTD SVG 1.1//EN"
  "http://www.w3.org/Graphics/SVG/1.1/DTD/svg11.dtd">
<svg xmlns:xlink="http://www.w3.org/1999/xlink" width="864pt" height="360pt" viewBox="0 0 864 360" xmlns="http://www.w3.org/2000/svg" version="1.1">
 <metadata>
  <rdf:RDF xmlns:dc="http://purl.org/dc/elements/1.1/" xmlns:cc="http://creativecommons.org/ns#" xmlns:rdf="http://www.w3.org/1999/02/22-rdf-syntax-ns#">
   <cc:Work>
    <dc:type rdf:resource="http://purl.org/dc/dcmitype/StillImage"/>
    <dc:date>2025-03-29T08:14:26.208272</dc:date>
    <dc:format>image/svg+xml</dc:format>
    <dc:creator>
     <cc:Agent>
      <dc:title>Matplotlib v3.10.1, https://matplotlib.org/</dc:title>
     </cc:Agent>
    </dc:creator>
   </cc:Work>
  </rdf:RDF>
 </metadata>
 <defs>
  <style type="text/css">*{stroke-linejoin: round; stroke-linecap: butt}</style>
 </defs>
 <g id="figure_1">
  <g id="patch_1">
   <path d="M 0 360 
L 864 360 
L 864 0 
L 0 0 
L 0 360 
z
" style="fill: none; opacity: 0"/>
  </g>
  <g id="axes_1">
   <g id="patch_2">
    <path d="M 108 320.4 
L 777.6 320.4 
L 777.6 43.2 
L 108 43.2 
L 108 320.4 
z
" style="fill: none; opacity: 0"/>
   </g>
   <g id="matplotlib.axis_1">
    <g id="xtick_1">
     <g id="line2d_1">
      <path d="M 128.019156 320.4 
L 128.019156 43.2 
" clip-path="url(#p711b36f63d)" style="fill: none; stroke-dasharray: 5.12,1.28,0.8,1.28; stroke-dashoffset: 0; stroke: #b0b0b0; stroke-width: 0.8"/>
     </g>
     <g id="line2d_2">
      <defs>
       <path id="m3d0384569c" d="M 0 0 
L 0 3.5 
" style="stroke: #a9a9a9; stroke-width: 0.8"/>
      </defs>
      <g>
       <use xlink:href="#m3d0384569c" x="128.019156" y="320.4" style="fill: #a9a9a9; stroke: #a9a9a9; stroke-width: 0.8"/>
      </g>
     </g>
     <g id="text_1">
      <!-- 2021-07 -->
      <g style="fill: #a9a9a9" transform="translate(107.12775 334.998438) scale(0.1 -0.1)">
       <defs>
        <path id="DejaVuSans-32" d="M 1228 531 
L 3431 531 
L 3431 0 
L 469 0 
L 469 531 
Q 828 903 1448 1529 
Q 2069 2156 2228 2338 
Q 2531 2678 2651 2914 
Q 2772 3150 2772 3378 
Q 2772 3750 2511 3984 
Q 2250 4219 1831 4219 
Q 1534 4219 1204 4116 
Q 875 4013 500 3803 
L 500 4441 
Q 881 4594 1212 4672 
Q 1544 4750 1819 4750 
Q 2544 4750 2975 4387 
Q 3406 4025 3406 3419 
Q 3406 3131 3298 2873 
Q 3191 2616 2906 2266 
Q 2828 2175 2409 1742 
Q 1991 1309 1228 531 
z
" transform="scale(0.015625)"/>
        <path id="DejaVuSans-30" d="M 2034 4250 
Q 1547 4250 1301 3770 
Q 1056 3291 1056 2328 
Q 1056 1369 1301 889 
Q 1547 409 2034 409 
Q 2525 409 2770 889 
Q 3016 1369 3016 2328 
Q 3016 3291 2770 3770 
Q 2525 4250 2034 4250 
z
M 2034 4750 
Q 2819 4750 3233 4129 
Q 3647 3509 3647 2328 
Q 3647 1150 3233 529 
Q 2819 -91 2034 -91 
Q 1250 -91 836 529 
Q 422 1150 422 2328 
Q 422 3509 836 4129 
Q 1250 4750 2034 4750 
z
" transform="scale(0.015625)"/>
        <path id="DejaVuSans-31" d="M 794 531 
L 1825 531 
L 1825 4091 
L 703 3866 
L 703 4441 
L 1819 4666 
L 2450 4666 
L 2450 531 
L 3481 531 
L 3481 0 
L 794 0 
L 794 531 
z
" transform="scale(0.015625)"/>
        <path id="DejaVuSans-2d" d="M 313 2009 
L 1997 2009 
L 1997 1497 
L 313 1497 
L 313 2009 
z
" transform="scale(0.015625)"/>
        <path id="DejaVuSans-37" d="M 525 4666 
L 3525 4666 
L 3525 4397 
L 1831 0 
L 1172 0 
L 2766 4134 
L 525 4134 
L 525 4666 
z
" transform="scale(0.015625)"/>
       </defs>
       <use xlink:href="#DejaVuSans-32"/>
       <use xlink:href="#DejaVuSans-30" transform="translate(63.623047 0)"/>
       <use xlink:href="#DejaVuSans-32" transform="translate(127.246094 0)"/>
       <use xlink:href="#DejaVuSans-31" transform="translate(190.869141 0)"/>
       <use xlink:href="#DejaVuSans-2d" transform="translate(254.492188 0)"/>
       <use xlink:href="#DejaVuSans-30" transform="translate(290.576172 0)"/>
       <use xlink:href="#DejaVuSans-37" transform="translate(354.199219 0)"/>
      </g>
     </g>
    </g>
    <g id="xtick_2">
     <g id="line2d_3">
      <path d="M 211.356818 320.4 
L 211.356818 43.2 
" clip-path="url(#p711b36f63d)" style="fill: none; stroke-dasharray: 5.12,1.28,0.8,1.28; stroke-dashoffset: 0; stroke: #b0b0b0; stroke-width: 0.8"/>
     </g>
     <g id="line2d_4">
      <g>
       <use xlink:href="#m3d0384569c" x="211.356818" y="320.4" style="fill: #a9a9a9; stroke: #a9a9a9; stroke-width: 0.8"/>
      </g>
     </g>
     <g id="text_2">
      <!-- 2022-01 -->
      <g style="fill: #a9a9a9" transform="translate(190.465412 334.998438) scale(0.1 -0.1)">
       <use xlink:href="#DejaVuSans-32"/>
       <use xlink:href="#DejaVuSans-30" transform="translate(63.623047 0)"/>
       <use xlink:href="#DejaVuSans-32" transform="translate(127.246094 0)"/>
       <use xlink:href="#DejaVuSans-32" transform="translate(190.869141 0)"/>
       <use xlink:href="#DejaVuSans-2d" transform="translate(254.492188 0)"/>
       <use xlink:href="#DejaVuSans-30" transform="translate(290.576172 0)"/>
       <use xlink:href="#DejaVuSans-31" transform="translate(354.199219 0)"/>
      </g>
     </g>
    </g>
    <g id="xtick_3">
     <g id="line2d_5">
      <path d="M 293.335714 320.4 
L 293.335714 43.2 
" clip-path="url(#p711b36f63d)" style="fill: none; stroke-dasharray: 5.12,1.28,0.8,1.28; stroke-dashoffset: 0; stroke: #b0b0b0; stroke-width: 0.8"/>
     </g>
     <g id="line2d_6">
      <g>
       <use xlink:href="#m3d0384569c" x="293.335714" y="320.4" style="fill: #a9a9a9; stroke: #a9a9a9; stroke-width: 0.8"/>
      </g>
     </g>
     <g id="text_3">
      <!-- 2022-07 -->
      <g style="fill: #a9a9a9" transform="translate(272.444308 334.998438) scale(0.1 -0.1)">
       <use xlink:href="#DejaVuSans-32"/>
       <use xlink:href="#DejaVuSans-30" transform="translate(63.623047 0)"/>
       <use xlink:href="#DejaVuSans-32" transform="translate(127.246094 0)"/>
       <use xlink:href="#DejaVuSans-32" transform="translate(190.869141 0)"/>
       <use xlink:href="#DejaVuSans-2d" transform="translate(254.492188 0)"/>
       <use xlink:href="#DejaVuSans-30" transform="translate(290.576172 0)"/>
       <use xlink:href="#DejaVuSans-37" transform="translate(354.199219 0)"/>
      </g>
     </g>
    </g>
    <g id="xtick_4">
     <g id="line2d_7">
      <path d="M 376.673377 320.4 
L 376.673377 43.2 
" clip-path="url(#p711b36f63d)" style="fill: none; stroke-dasharray: 5.12,1.28,0.8,1.28; stroke-dashoffset: 0; stroke: #b0b0b0; stroke-width: 0.8"/>
     </g>
     <g id="line2d_8">
      <g>
       <use xlink:href="#m3d0384569c" x="376.673377" y="320.4" style="fill: #a9a9a9; stroke: #a9a9a9; stroke-width: 0.8"/>
      </g>
     </g>
     <g id="text_4">
      <!-- 2023-01 -->
      <g style="fill: #a9a9a9" transform="translate(355.78197 334.998438) scale(0.1 -0.1)">
       <defs>
        <path id="DejaVuSans-33" d="M 2597 2516 
Q 3050 2419 3304 2112 
Q 3559 1806 3559 1356 
Q 3559 666 3084 287 
Q 2609 -91 1734 -91 
Q 1441 -91 1130 -33 
Q 819 25 488 141 
L 488 750 
Q 750 597 1062 519 
Q 1375 441 1716 441 
Q 2309 441 2620 675 
Q 2931 909 2931 1356 
Q 2931 1769 2642 2001 
Q 2353 2234 1838 2234 
L 1294 2234 
L 1294 2753 
L 1863 2753 
Q 2328 2753 2575 2939 
Q 2822 3125 2822 3475 
Q 2822 3834 2567 4026 
Q 2313 4219 1838 4219 
Q 1578 4219 1281 4162 
Q 984 4106 628 3988 
L 628 4550 
Q 988 4650 1302 4700 
Q 1616 4750 1894 4750 
Q 2613 4750 3031 4423 
Q 3450 4097 3450 3541 
Q 3450 3153 3228 2886 
Q 3006 2619 2597 2516 
z
" transform="scale(0.015625)"/>
       </defs>
       <use xlink:href="#DejaVuSans-32"/>
       <use xlink:href="#DejaVuSans-30" transform="translate(63.623047 0)"/>
       <use xlink:href="#DejaVuSans-32" transform="translate(127.246094 0)"/>
       <use xlink:href="#DejaVuSans-33" transform="translate(190.869141 0)"/>
       <use xlink:href="#DejaVuSans-2d" transform="translate(254.492188 0)"/>
       <use xlink:href="#DejaVuSans-30" transform="translate(290.576172 0)"/>
       <use xlink:href="#DejaVuSans-31" transform="translate(354.199219 0)"/>
      </g>
     </g>
    </g>
    <g id="xtick_5">
     <g id="line2d_9">
      <path d="M 458.652273 320.4 
L 458.652273 43.2 
" clip-path="url(#p711b36f63d)" style="fill: none; stroke-dasharray: 5.12,1.28,0.8,1.28; stroke-dashoffset: 0; stroke: #b0b0b0; stroke-width: 0.8"/>
     </g>
     <g id="line2d_10">
      <g>
       <use xlink:href="#m3d0384569c" x="458.652273" y="320.4" style="fill: #a9a9a9; stroke: #a9a9a9; stroke-width: 0.8"/>
      </g>
     </g>
     <g id="text_5">
      <!-- 2023-07 -->
      <g style="fill: #a9a9a9" transform="translate(437.760866 334.998438) scale(0.1 -0.1)">
       <use xlink:href="#DejaVuSans-32"/>
       <use xlink:href="#DejaVuSans-30" transform="translate(63.623047 0)"/>
       <use xlink:href="#DejaVuSans-32" transform="translate(127.246094 0)"/>
       <use xlink:href="#DejaVuSans-33" transform="translate(190.869141 0)"/>
       <use xlink:href="#DejaVuSans-2d" transform="translate(254.492188 0)"/>
       <use xlink:href="#DejaVuSans-30" transform="translate(290.576172 0)"/>
       <use xlink:href="#DejaVuSans-37" transform="translate(354.199219 0)"/>
      </g>
     </g>
    </g>
    <g id="xtick_6">
     <g id="line2d_11">
      <path d="M 541.989935 320.4 
L 541.989935 43.2 
" clip-path="url(#p711b36f63d)" style="fill: none; stroke-dasharray: 5.12,1.28,0.8,1.28; stroke-dashoffset: 0; stroke: #b0b0b0; stroke-width: 0.8"/>
     </g>
     <g id="line2d_12">
      <g>
       <use xlink:href="#m3d0384569c" x="541.989935" y="320.4" style="fill: #a9a9a9; stroke: #a9a9a9; stroke-width: 0.8"/>
      </g>
     </g>
     <g id="text_6">
      <!-- 2024-01 -->
      <g style="fill: #a9a9a9" transform="translate(521.098529 334.998438) scale(0.1 -0.1)">
       <defs>
        <path id="DejaVuSans-34" d="M 2419 4116 
L 825 1625 
L 2419 1625 
L 2419 4116 
z
M 2253 4666 
L 3047 4666 
L 3047 1625 
L 3713 1625 
L 3713 1100 
L 3047 1100 
L 3047 0 
L 2419 0 
L 2419 1100 
L 313 1100 
L 313 1709 
L 2253 4666 
z
" transform="scale(0.015625)"/>
       </defs>
       <use xlink:href="#DejaVuSans-32"/>
       <use xlink:href="#DejaVuSans-30" transform="translate(63.623047 0)"/>
       <use xlink:href="#DejaVuSans-32" transform="translate(127.246094 0)"/>
       <use xlink:href="#DejaVuSans-34" transform="translate(190.869141 0)"/>
       <use xlink:href="#DejaVuSans-2d" transform="translate(254.492188 0)"/>
       <use xlink:href="#DejaVuSans-30" transform="translate(290.576172 0)"/>
       <use xlink:href="#DejaVuSans-31" transform="translate(354.199219 0)"/>
      </g>
     </g>
    </g>
    <g id="xtick_7">
     <g id="line2d_13">
      <path d="M 624.421753 320.4 
L 624.421753 43.2 
" clip-path="url(#p711b36f63d)" style="fill: none; stroke-dasharray: 5.12,1.28,0.8,1.28; stroke-dashoffset: 0; stroke: #b0b0b0; stroke-width: 0.8"/>
     </g>
     <g id="line2d_14">
      <g>
       <use xlink:href="#m3d0384569c" x="624.421753" y="320.4" style="fill: #a9a9a9; stroke: #a9a9a9; stroke-width: 0.8"/>
      </g>
     </g>
     <g id="text_7">
      <!-- 2024-07 -->
      <g style="fill: #a9a9a9" transform="translate(603.530347 334.998438) scale(0.1 -0.1)">
       <use xlink:href="#DejaVuSans-32"/>
       <use xlink:href="#DejaVuSans-30" transform="translate(63.623047 0)"/>
       <use xlink:href="#DejaVuSans-32" transform="translate(127.246094 0)"/>
       <use xlink:href="#DejaVuSans-34" transform="translate(190.869141 0)"/>
       <use xlink:href="#DejaVuSans-2d" transform="translate(254.492188 0)"/>
       <use xlink:href="#DejaVuSans-30" transform="translate(290.576172 0)"/>
       <use xlink:href="#DejaVuSans-37" transform="translate(354.199219 0)"/>
      </g>
     </g>
    </g>
    <g id="xtick_8">
     <g id="line2d_15">
      <path d="M 707.759416 320.4 
L 707.759416 43.2 
" clip-path="url(#p711b36f63d)" style="fill: none; stroke-dasharray: 5.12,1.28,0.8,1.28; stroke-dashoffset: 0; stroke: #b0b0b0; stroke-width: 0.8"/>
     </g>
     <g id="line2d_16">
      <g>
       <use xlink:href="#m3d0384569c" x="707.759416" y="320.4" style="fill: #a9a9a9; stroke: #a9a9a9; stroke-width: 0.8"/>
      </g>
     </g>
     <g id="text_8">
      <!-- 2025-01 -->
      <g style="fill: #a9a9a9" transform="translate(686.868009 334.998438) scale(0.1 -0.1)">
       <defs>
        <path id="DejaVuSans-35" d="M 691 4666 
L 3169 4666 
L 3169 4134 
L 1269 4134 
L 1269 2991 
Q 1406 3038 1543 3061 
Q 1681 3084 1819 3084 
Q 2600 3084 3056 2656 
Q 3513 2228 3513 1497 
Q 3513 744 3044 326 
Q 2575 -91 1722 -91 
Q 1428 -91 1123 -41 
Q 819 9 494 109 
L 494 744 
Q 775 591 1075 516 
Q 1375 441 1709 441 
Q 2250 441 2565 725 
Q 2881 1009 2881 1497 
Q 2881 1984 2565 2268 
Q 2250 2553 1709 2553 
Q 1456 2553 1204 2497 
Q 953 2441 691 2322 
L 691 4666 
z
" transform="scale(0.015625)"/>
       </defs>
       <use xlink:href="#DejaVuSans-32"/>
       <use xlink:href="#DejaVuSans-30" transform="translate(63.623047 0)"/>
       <use xlink:href="#DejaVuSans-32" transform="translate(127.246094 0)"/>
       <use xlink:href="#DejaVuSans-35" transform="translate(190.869141 0)"/>
       <use xlink:href="#DejaVuSans-2d" transform="translate(254.492188 0)"/>
       <use xlink:href="#DejaVuSans-30" transform="translate(290.576172 0)"/>
       <use xlink:href="#DejaVuSans-31" transform="translate(354.199219 0)"/>
      </g>
     </g>
    </g>
   </g>
   <g id="matplotlib.axis_2">
    <g id="ytick_1">
     <g id="line2d_17">
      <path d="M 108 307.833735 
L 777.6 307.833735 
" clip-path="url(#p711b36f63d)" style="fill: none; stroke-dasharray: 5.12,1.28,0.8,1.28; stroke-dashoffset: 0; stroke: #b0b0b0; stroke-width: 0.8"/>
     </g>
     <g id="line2d_18">
      <defs>
       <path id="mc779c67ef9" d="M 0 0 
L -3.5 0 
" style="stroke: #a9a9a9; stroke-width: 0.8"/>
      </defs>
      <g>
       <use xlink:href="#mc779c67ef9" x="108" y="307.833735" style="fill: #a9a9a9; stroke: #a9a9a9; stroke-width: 0.8"/>
      </g>
     </g>
     <g id="text_9">
      <!-- 0 -->
      <g style="fill: #a9a9a9" transform="translate(94.6375 311.632954) scale(0.1 -0.1)">
       <use xlink:href="#DejaVuSans-30"/>
      </g>
     </g>
    </g>
    <g id="ytick_2">
     <g id="line2d_19">
      <path d="M 108 274.098795 
L 777.6 274.098795 
" clip-path="url(#p711b36f63d)" style="fill: none; stroke-dasharray: 5.12,1.28,0.8,1.28; stroke-dashoffset: 0; stroke: #b0b0b0; stroke-width: 0.8"/>
     </g>
     <g id="line2d_20">
      <g>
       <use xlink:href="#mc779c67ef9" x="108" y="274.098795" style="fill: #a9a9a9; stroke: #a9a9a9; stroke-width: 0.8"/>
      </g>
     </g>
     <g id="text_10">
      <!-- 1000 -->
      <g style="fill: #a9a9a9" transform="translate(75.55 277.898014) scale(0.1 -0.1)">
       <use xlink:href="#DejaVuSans-31"/>
       <use xlink:href="#DejaVuSans-30" transform="translate(63.623047 0)"/>
       <use xlink:href="#DejaVuSans-30" transform="translate(127.246094 0)"/>
       <use xlink:href="#DejaVuSans-30" transform="translate(190.869141 0)"/>
      </g>
     </g>
    </g>
    <g id="ytick_3">
     <g id="line2d_21">
      <path d="M 108 240.363855 
L 777.6 240.363855 
" clip-path="url(#p711b36f63d)" style="fill: none; stroke-dasharray: 5.12,1.28,0.8,1.28; stroke-dashoffset: 0; stroke: #b0b0b0; stroke-width: 0.8"/>
     </g>
     <g id="line2d_22">
      <g>
       <use xlink:href="#mc779c67ef9" x="108" y="240.363855" style="fill: #a9a9a9; stroke: #a9a9a9; stroke-width: 0.8"/>
      </g>
     </g>
     <g id="text_11">
      <!-- 2000 -->
      <g style="fill: #a9a9a9" transform="translate(75.55 244.163074) scale(0.1 -0.1)">
       <use xlink:href="#DejaVuSans-32"/>
       <use xlink:href="#DejaVuSans-30" transform="translate(63.623047 0)"/>
       <use xlink:href="#DejaVuSans-30" transform="translate(127.246094 0)"/>
       <use xlink:href="#DejaVuSans-30" transform="translate(190.869141 0)"/>
      </g>
     </g>
    </g>
    <g id="ytick_4">
     <g id="line2d_23">
      <path d="M 108 206.628916 
L 777.6 206.628916 
" clip-path="url(#p711b36f63d)" style="fill: none; stroke-dasharray: 5.12,1.28,0.8,1.28; stroke-dashoffset: 0; stroke: #b0b0b0; stroke-width: 0.8"/>
     </g>
     <g id="line2d_24">
      <g>
       <use xlink:href="#mc779c67ef9" x="108" y="206.628916" style="fill: #a9a9a9; stroke: #a9a9a9; stroke-width: 0.8"/>
      </g>
     </g>
     <g id="text_12">
      <!-- 3000 -->
      <g style="fill: #a9a9a9" transform="translate(75.55 210.428134) scale(0.1 -0.1)">
       <use xlink:href="#DejaVuSans-33"/>
       <use xlink:href="#DejaVuSans-30" transform="translate(63.623047 0)"/>
       <use xlink:href="#DejaVuSans-30" transform="translate(127.246094 0)"/>
       <use xlink:href="#DejaVuSans-30" transform="translate(190.869141 0)"/>
      </g>
     </g>
    </g>
    <g id="ytick_5">
     <g id="line2d_25">
      <path d="M 108 172.893976 
L 777.6 172.893976 
" clip-path="url(#p711b36f63d)" style="fill: none; stroke-dasharray: 5.12,1.28,0.8,1.28; stroke-dashoffset: 0; stroke: #b0b0b0; stroke-width: 0.8"/>
     </g>
     <g id="line2d_26">
      <g>
       <use xlink:href="#mc779c67ef9" x="108" y="172.893976" style="fill: #a9a9a9; stroke: #a9a9a9; stroke-width: 0.8"/>
      </g>
     </g>
     <g id="text_13">
      <!-- 4000 -->
      <g style="fill: #a9a9a9" transform="translate(75.55 176.693195) scale(0.1 -0.1)">
       <use xlink:href="#DejaVuSans-34"/>
       <use xlink:href="#DejaVuSans-30" transform="translate(63.623047 0)"/>
       <use xlink:href="#DejaVuSans-30" transform="translate(127.246094 0)"/>
       <use xlink:href="#DejaVuSans-30" transform="translate(190.869141 0)"/>
      </g>
     </g>
    </g>
    <g id="ytick_6">
     <g id="line2d_27">
      <path d="M 108 139.159036 
L 777.6 139.159036 
" clip-path="url(#p711b36f63d)" style="fill: none; stroke-dasharray: 5.12,1.28,0.8,1.28; stroke-dashoffset: 0; stroke: #b0b0b0; stroke-width: 0.8"/>
     </g>
     <g id="line2d_28">
      <g>
       <use xlink:href="#mc779c67ef9" x="108" y="139.159036" style="fill: #a9a9a9; stroke: #a9a9a9; stroke-width: 0.8"/>
      </g>
     </g>
     <g id="text_14">
      <!-- 5000 -->
      <g style="fill: #a9a9a9" transform="translate(75.55 142.958255) scale(0.1 -0.1)">
       <use xlink:href="#DejaVuSans-35"/>
       <use xlink:href="#DejaVuSans-30" transform="translate(63.623047 0)"/>
       <use xlink:href="#DejaVuSans-30" transform="translate(127.246094 0)"/>
       <use xlink:href="#DejaVuSans-30" transform="translate(190.869141 0)"/>
      </g>
     </g>
    </g>
    <g id="ytick_7">
     <g id="line2d_29">
      <path d="M 108 105.424096 
L 777.6 105.424096 
" clip-path="url(#p711b36f63d)" style="fill: none; stroke-dasharray: 5.12,1.28,0.8,1.28; stroke-dashoffset: 0; stroke: #b0b0b0; stroke-width: 0.8"/>
     </g>
     <g id="line2d_30">
      <g>
       <use xlink:href="#mc779c67ef9" x="108" y="105.424096" style="fill: #a9a9a9; stroke: #a9a9a9; stroke-width: 0.8"/>
      </g>
     </g>
     <g id="text_15">
      <!-- 6000 -->
      <g style="fill: #a9a9a9" transform="translate(75.55 109.223315) scale(0.1 -0.1)">
       <defs>
        <path id="DejaVuSans-36" d="M 2113 2584 
Q 1688 2584 1439 2293 
Q 1191 2003 1191 1497 
Q 1191 994 1439 701 
Q 1688 409 2113 409 
Q 2538 409 2786 701 
Q 3034 994 3034 1497 
Q 3034 2003 2786 2293 
Q 2538 2584 2113 2584 
z
M 3366 4563 
L 3366 3988 
Q 3128 4100 2886 4159 
Q 2644 4219 2406 4219 
Q 1781 4219 1451 3797 
Q 1122 3375 1075 2522 
Q 1259 2794 1537 2939 
Q 1816 3084 2150 3084 
Q 2853 3084 3261 2657 
Q 3669 2231 3669 1497 
Q 3669 778 3244 343 
Q 2819 -91 2113 -91 
Q 1303 -91 875 529 
Q 447 1150 447 2328 
Q 447 3434 972 4092 
Q 1497 4750 2381 4750 
Q 2619 4750 2861 4703 
Q 3103 4656 3366 4563 
z
" transform="scale(0.015625)"/>
       </defs>
       <use xlink:href="#DejaVuSans-36"/>
       <use xlink:href="#DejaVuSans-30" transform="translate(63.623047 0)"/>
       <use xlink:href="#DejaVuSans-30" transform="translate(127.246094 0)"/>
       <use xlink:href="#DejaVuSans-30" transform="translate(190.869141 0)"/>
      </g>
     </g>
    </g>
    <g id="ytick_8">
     <g id="line2d_31">
      <path d="M 108 71.689157 
L 777.6 71.689157 
" clip-path="url(#p711b36f63d)" style="fill: none; stroke-dasharray: 5.12,1.28,0.8,1.28; stroke-dashoffset: 0; stroke: #b0b0b0; stroke-width: 0.8"/>
     </g>
     <g id="line2d_32">
      <g>
       <use xlink:href="#mc779c67ef9" x="108" y="71.689157" style="fill: #a9a9a9; stroke: #a9a9a9; stroke-width: 0.8"/>
      </g>
     </g>
     <g id="text_16">
      <!-- 7000 -->
      <g style="fill: #a9a9a9" transform="translate(75.55 75.488375) scale(0.1 -0.1)">
       <use xlink:href="#DejaVuSans-37"/>
       <use xlink:href="#DejaVuSans-30" transform="translate(63.623047 0)"/>
       <use xlink:href="#DejaVuSans-30" transform="translate(127.246094 0)"/>
       <use xlink:href="#DejaVuSans-30" transform="translate(190.869141 0)"/>
      </g>
     </g>
    </g>
   </g>
   <g id="line2d_33">
    <path d="M 138.436364 307.73253 
L 141.153896 307.496386 
L 141.606818 307.293976 
L 143.418506 307.057831 
L 145.230195 306.686747 
L 146.136039 306.551807 
L 148.400649 306.349398 
L 149.306494 305.978313 
L 149.759416 305.371084 
L 150.212338 305.06747 
L 150.66526 304.021687 
L 151.118182 303.954217 
L 151.571104 303.583133 
L 152.476948 303.110843 
L 154.288636 301.626506 
L 156.100325 300.715663 
L 157.459091 300.074699 
L 157.912013 299.33253 
L 158.817857 298.657831 
L 159.270779 298.455422 
L 163.8 297.780723 
L 164.252922 297.578313 
L 167.423377 297.308434 
L 169.235065 296.86988 
L 172.858442 296.363855 
L 173.311364 296.127711 
L 173.764286 296.060241 
L 174.67013 295.756627 
L 177.840584 295.216867 
L 178.746429 294.946988 
L 182.822727 294.238554 
L 183.728571 294.036145 
L 184.634416 294.00241 
L 186.446104 293.563855 
L 186.899026 292.922892 
L 188.257792 292.383133 
L 189.616558 292.012048 
L 190.069481 291.775904 
L 190.975325 291.607229 
L 192.787013 291.06747 
L 193.692857 291 
L 194.598701 290.763855 
L 196.41039 290.291566 
L 196.863312 290.257831 
L 197.769156 289.819277 
L 198.222078 289.751807 
L 198.675 289.515663 
L 203.657143 288.672289 
L 205.468831 288.13253 
L 205.921753 287.828916 
L 208.186364 287.086747 
L 209.092208 286.445783 
L 210.450974 286.175904 
L 220.41526 283.240964 
L 220.868182 283.207229 
L 222.226948 282.80241 
L 222.67987 282.80241 
L 223.132792 282.6 
L 224.038636 282.498795 
L 224.491558 282.33012 
L 226.303247 282.262651 
L 227.209091 282.093976 
L 228.114935 281.621687 
L 229.473701 281.115663 
L 229.926623 280.812048 
L 230.832468 280.407229 
L 231.28539 280.171084 
L 232.191234 279.86747 
L 232.644156 279.73253 
L 233.55 279.159036 
L 234.002922 278.653012 
L 234.908766 277.236145 
L 235.361688 277.101205 
L 235.81461 277.101205 
L 237.173377 276.291566 
L 237.626299 276.055422 
L 238.079221 275.954217 
L 238.532143 275.515663 
L 239.437987 275.144578 
L 240.343831 274.706024 
L 242.608442 271.771084 
L 245.325974 270.286747 
L 246.231818 269.544578 
L 246.68474 269.240964 
L 247.137662 268.6 
L 247.590584 267.554217 
L 248.043506 266.845783 
L 248.496429 266.474699 
L 248.949351 266.272289 
L 252.572727 262.898795 
L 253.478571 262.055422 
L 256.196104 260.33494 
L 256.649026 260.166265 
L 258.007792 259.356627 
L 259.366558 258.445783 
L 261.178247 256.792771 
L 262.084091 256.421687 
L 262.989935 255.780723 
L 263.442857 255.510843 
L 263.895779 255.443373 
L 265.254545 254.66747 
L 265.707468 254.161446 
L 267.972078 252.913253 
L 268.425 252.744578 
L 269.783766 251.8 
L 276.577597 249.371084 
L 277.483442 248.527711 
L 278.842208 247.853012 
L 279.748052 247.279518 
L 280.653896 247.009639 
L 281.106818 246.706024 
L 281.55974 246.571084 
L 282.918506 245.660241 
L 285.183117 245.154217 
L 286.541883 244.344578 
L 287.900649 244.040964 
L 288.353571 243.939759 
L 289.712338 242.893976 
L 291.524026 242.387952 
L 291.976948 242.016867 
L 294.694481 241.072289 
L 295.600325 240.903614 
L 296.506169 240.53253 
L 299.676623 239.351807 
L 300.582468 239.216867 
L 301.941234 238.744578 
L 304.205844 237.631325 
L 306.017532 236.619277 
L 309.640909 235.101205 
L 310.093831 235.033735 
L 310.999675 234.460241 
L 311.905519 234.224096 
L 313.264286 233.684337 
L 315.075974 233.448193 
L 315.981818 232.975904 
L 316.43474 232.571084 
L 316.887662 231.727711 
L 318.699351 231.221687 
L 320.058117 230.513253 
L 320.963961 230.209639 
L 321.869805 229.737349 
L 324.587338 228.624096 
L 325.493182 228.421687 
L 326.399026 227.949398 
L 326.851948 227.746988 
L 327.30487 227.679518 
L 329.569481 226.566265 
L 330.475325 225.992771 
L 331.834091 225.722892 
L 334.098701 225.149398 
L 334.551623 224.778313 
L 335.457468 224.474699 
L 337.722078 223.563855 
L 338.175 223.226506 
L 338.627922 223.057831 
L 339.533766 222.551807 
L 341.345455 221.978313 
L 342.251299 221.404819 
L 342.704221 220.93253 
L 343.157143 220.662651 
L 343.610065 220.561446 
L 344.515909 219.819277 
L 344.968831 219.751807 
L 345.421753 219.009639 
L 345.874675 218.807229 
L 346.327597 218.436145 
L 346.780519 218.368675 
L 347.686364 217.795181 
L 348.592208 217.491566 
L 349.04513 217.154217 
L 349.498052 216.985542 
L 351.30974 215.771084 
L 352.668506 215.062651 
L 353.574351 214.826506 
L 354.480195 214.320482 
L 354.933117 213.544578 
L 355.838961 212.86988 
L 356.291883 212.768675 
L 359.009416 211.453012 
L 359.91526 211.081928 
L 361.274026 209.93494 
L 362.17987 209.159036 
L 363.085714 208.619277 
L 363.538636 208.113253 
L 363.991558 207.809639 
L 364.897403 207.06747 
L 365.350325 206.86506 
L 366.256169 205.954217 
L 367.162013 205.650602 
L 368.067857 205.043373 
L 369.426623 204.33494 
L 369.879545 204.26747 
L 371.238312 203.525301 
L 372.144156 202.951807 
L 376.673377 201.26506 
L 377.126299 200.893976 
L 378.937987 200.185542 
L 379.390909 200.050602 
L 380.296753 199.443373 
L 381.202597 199.072289 
L 382.108442 198.431325 
L 383.014286 196.609639 
L 383.92013 195.53012 
L 385.278896 194.821687 
L 386.18474 194.450602 
L 386.637662 194.383133 
L 387.090584 194.113253 
L 389.355195 193.371084 
L 389.808117 193.168675 
L 390.713961 192.561446 
L 392.072727 191.987952 
L 392.978571 191.481928 
L 393.884416 190.942169 
L 394.337338 190.638554 
L 394.79026 190.13253 
L 395.696104 189.626506 
L 397.960714 188.378313 
L 400.678247 187.028916 
L 402.037013 186.624096 
L 403.395779 186.084337 
L 403.848701 185.746988 
L 404.754545 185.477108 
L 405.66039 185.106024 
L 406.113312 184.73494 
L 407.925 184.093976 
L 408.830844 183.453012 
L 409.736688 183.081928 
L 410.642532 182.373494 
L 411.548377 182.103614 
L 412.001299 181.698795 
L 412.454221 181.631325 
L 413.360065 180.922892 
L 414.265909 180.450602 
L 414.718831 180.248193 
L 415.171753 179.775904 
L 418.342208 178.493976 
L 419.248052 178.089157 
L 420.606818 177.650602 
L 421.512662 177.515663 
L 421.965584 177.313253 
L 422.418506 177.245783 
L 423.324351 176.840964 
L 423.777273 176.807229 
L 425.588961 176.13253 
L 426.947727 175.154217 
L 427.400649 174.985542 
L 428.306494 174.479518 
L 428.759416 174.344578 
L 431.476948 172.792771 
L 431.92987 172.691566 
L 433.288636 171.881928 
L 434.647403 171.409639 
L 435.553247 171.106024 
L 437.364935 170.498795 
L 438.270779 170.195181 
L 440.082468 169.824096 
L 440.53539 169.621687 
L 440.988312 169.554217 
L 441.894156 169.149398 
L 442.347078 169.081928 
L 442.8 168.845783 
L 443.705844 168.677108 
L 445.06461 168.171084 
L 445.970455 168.06988 
L 447.329221 167.766265 
L 449.593831 167.361446 
L 461.369805 163.853012 
L 461.822727 163.380723 
L 462.728571 163.009639 
L 466.351948 161.626506 
L 466.80487 161.356627 
L 468.163636 160.951807 
L 469.069481 160.715663 
L 469.522403 160.412048 
L 469.975325 160.310843 
L 470.428247 159.906024 
L 471.787013 159.636145 
L 472.692857 159.19759 
L 473.145779 158.657831 
L 474.957468 158.219277 
L 478.127922 157.544578 
L 478.580844 157.544578 
L 479.033766 157.342169 
L 480.845455 157.004819 
L 481.298377 156.80241 
L 483.110065 156.46506 
L 484.015909 156.060241 
L 484.921753 155.891566 
L 487.186364 155.318072 
L 488.998052 154.744578 
L 489.450974 154.643373 
L 489.903896 154.407229 
L 490.80974 154.171084 
L 491.715584 153.8 
L 492.621429 153.462651 
L 493.074351 153.159036 
L 493.980195 152.889157 
L 497.603571 151.640964 
L 498.509416 151.573494 
L 500.321104 151.033735 
L 500.774026 150.763855 
L 501.67987 150.493976 
L 503.944481 149.448193 
L 504.397403 149.414458 
L 509.379545 147.626506 
L 511.644156 147.019277 
L 512.55 146.580723 
L 513.908766 146.277108 
L 515.720455 144.792771 
L 517.532143 144.016867 
L 518.437987 143.612048 
L 521.155519 142.566265 
L 521.608442 142.262651 
L 523.873052 141.520482 
L 525.231818 140.744578 
L 525.68474 140.643373 
L 527.949351 139.395181 
L 529.308117 138.787952 
L 529.761039 138.450602 
L 530.666883 138.146988 
L 532.931494 137 
L 534.29026 136.527711 
L 536.101948 135.785542 
L 537.460714 135.279518 
L 537.913636 135.110843 
L 538.819481 134.975904 
L 539.272403 134.672289 
L 541.084091 134.301205 
L 541.989935 133.93012 
L 543.801623 133.086747 
L 550.142532 130.320482 
L 551.501299 129.881928 
L 551.954221 129.578313 
L 552.860065 129.477108 
L 553.312987 129.173494 
L 554.218831 129.004819 
L 555.124675 128.566265 
L 555.577597 128.363855 
L 556.030519 128.296386 
L 556.936364 127.992771 
L 560.106818 126.879518 
L 561.465584 126.575904 
L 563.277273 125.833735 
L 564.183117 125.327711 
L 565.994805 124.416867 
L 566.900649 124.214458 
L 567.353571 123.944578 
L 567.806494 123.843373 
L 569.16526 123.06747 
L 570.071104 122.696386 
L 571.882792 121.987952 
L 574.147403 121.212048 
L 575.053247 120.739759 
L 577.317857 119.963855 
L 580.03539 118.850602 
L 581.847078 118.007229 
L 586.376299 116.253012 
L 586.829221 115.949398 
L 588.640909 115.342169 
L 589.093831 115.342169 
L 589.999675 114.937349 
L 591.811364 113.453012 
L 592.264286 113.318072 
L 592.717208 113.048193 
L 594.075974 112.677108 
L 594.528896 112.339759 
L 594.981818 112.238554 
L 595.887662 111.66506 
L 597.246429 110.956627 
L 598.152273 110.585542 
L 598.605195 110.349398 
L 599.963961 110.045783 
L 602.228571 109.26988 
L 603.134416 108.966265 
L 604.493182 108.257831 
L 605.399026 107.819277 
L 606.30487 107.583133 
L 607.663636 106.942169 
L 611.739935 105.424096 
L 613.098701 104.580723 
L 613.551623 104.479518 
L 614.457468 104.040964 
L 615.363312 103.703614 
L 615.816234 103.298795 
L 616.722078 102.927711 
L 618.080844 102.455422 
L 618.533766 102.084337 
L 618.986688 102.050602 
L 619.892532 101.780723 
L 620.798377 101.477108 
L 621.251299 101.274699 
L 621.704221 101.207229 
L 623.062987 100.701205 
L 624.421753 100.195181 
L 626.233442 99.385542 
L 626.686364 99.318072 
L 630.30974 97.8 
L 631.668506 97.361446 
L 632.574351 97.293976 
L 633.480195 96.922892 
L 636.197727 96.113253 
L 637.103571 96.079518 
L 640.726948 94.898795 
L 641.632792 94.426506 
L 642.085714 94.021687 
L 643.444481 93.212048 
L 644.350325 92.672289 
L 647.067857 91.795181 
L 647.520779 91.424096 
L 650.238312 90.277108 
L 652.05 89.771084 
L 652.955844 89.366265 
L 653.408766 89.13012 
L 654.31461 88.860241 
L 654.767532 88.590361 
L 655.673377 88.421687 
L 659.296753 86.86988 
L 659.749675 86.80241 
L 660.202597 86.498795 
L 660.655519 86.33012 
L 661.108442 85.925301 
L 661.561364 85.857831 
L 663.373052 85.149398 
L 665.18474 84.710843 
L 665.637662 84.643373 
L 666.090584 84.440964 
L 666.543506 84.407229 
L 667.449351 84.103614 
L 667.902273 84.06988 
L 669.261039 83.53012 
L 671.072727 82.990361 
L 671.978571 82.315663 
L 673.79026 81.303614 
L 675.149026 80.831325 
L 678.772403 79.110843 
L 679.225325 78.874699 
L 679.678247 78.436145 
L 681.942857 77.828916 
L 683.301623 77.221687 
L 684.207468 76.985542 
L 684.66039 76.749398 
L 685.113312 76.378313 
L 686.925 75.906024 
L 687.377922 75.568675 
L 693.265909 73.443373 
L 694.171753 73.274699 
L 696.436364 72.566265 
L 697.342208 72.195181 
L 698.248052 71.857831 
L 699.153896 71.621687 
L 699.606818 71.419277 
L 700.05974 71.419277 
L 700.965584 71.048193 
L 701.871429 70.508434 
L 704.136039 69.73253 
L 705.494805 69.260241 
L 705.947727 69.192771 
L 706.853571 68.821687 
L 708.212338 68.518072 
L 709.571104 68.079518 
L 710.024026 67.978313 
L 710.476948 67.674699 
L 711.382792 67.472289 
L 720.441234 64.874699 
L 722.705844 64.46988 
L 723.611688 64.031325 
L 724.517532 63.592771 
L 725.876299 63.187952 
L 730.405519 61.46747 
L 730.858442 61.13012 
L 732.217208 60.826506 
L 733.123052 60.556627 
L 734.028896 60.118072 
L 734.481818 59.713253 
L 735.387662 59.409639 
L 735.840584 59.139759 
L 736.746429 59.038554 
L 739.916883 58.161446 
L 741.275649 57.891566 
L 743.993182 56.980723 
L 745.80487 56.103614 
L 746.710714 55.8 
L 747.163636 55.8 
L 747.163636 55.8 
" clip-path="url(#p711b36f63d)" style="fill: none; stroke: #1f77b4; stroke-width: 1.5; stroke-linecap: square"/>
   </g>
   <g id="line2d_34">
    <path d="M 138.889286 307.8 
L 142.965584 307.698795 
L 146.588961 307.53012 
L 148.400649 307.53012 
L 148.853571 307.395181 
L 151.118182 307.293976 
L 153.835714 306.990361 
L 156.553247 306.889157 
L 157.459091 306.787952 
L 160.629545 306.653012 
L 163.8 306.551807 
L 166.06461 306.484337 
L 171.952597 306.383133 
L 174.217208 306.315663 
L 178.293506 306.214458 
L 180.105195 306.180723 
L 184.634416 306.079518 
L 186.446104 305.910843 
L 188.257792 305.877108 
L 190.975325 305.775904 
L 192.787013 305.742169 
L 195.051623 305.674699 
L 196.863312 305.506024 
L 200.93961 305.404819 
L 201.845455 305.337349 
L 203.657143 305.236145 
L 206.374675 305.13494 
L 208.186364 305.033735 
L 216.338961 304.527711 
L 219.509416 304.426506 
L 220.868182 304.291566 
L 223.132792 304.190361 
L 227.662013 303.954217 
L 232.191234 303.886747 
L 234.002922 303.684337 
L 235.81461 303.583133 
L 240.796753 303.110843 
L 243.967208 302.739759 
L 245.325974 302.672289 
L 248.949351 302.2 
L 251.666883 302.13253 
L 253.025649 301.99759 
L 254.384416 301.896386 
L 267.066234 300.918072 
L 267.972078 300.749398 
L 270.68961 300.648193 
L 277.936364 300.209639 
L 281.106818 300.108434 
L 282.918506 299.906024 
L 285.183117 299.804819 
L 287.900649 299.703614 
L 290.16526 299.60241 
L 291.976948 299.568675 
L 294.241558 299.501205 
L 295.147403 299.366265 
L 301.488312 299.26506 
L 302.394156 299.163855 
L 307.829221 299.062651 
L 311.905519 298.860241 
L 315.075974 298.759036 
L 316.887662 298.556627 
L 320.058117 298.455422 
L 320.963961 298.286747 
L 323.228571 298.219277 
L 327.757792 298.151807 
L 329.569481 297.983133 
L 331.381169 297.949398 
L 332.739935 297.848193 
L 334.551623 297.679518 
L 339.080844 297.443373 
L 343.610065 297.342169 
L 347.686364 297.139759 
L 349.04513 297.106024 
L 349.950974 296.971084 
L 352.215584 296.86988 
L 353.121429 296.80241 
L 354.027273 296.73494 
L 354.933117 296.66747 
L 359.009416 296.6 
L 360.368182 296.498795 
L 372.597078 295.689157 
L 374.861688 295.587952 
L 377.126299 295.520482 
L 383.467208 295.419277 
L 384.373052 295.284337 
L 390.713961 295.183133 
L 395.243182 294.946988 
L 396.149026 294.913253 
L 397.05487 294.812048 
L 399.319481 294.710843 
L 401.584091 294.643373 
L 403.848701 294.542169 
L 406.113312 294.474699 
L 410.18961 294.373494 
L 412.907143 294.272289 
L 419.248052 294.171084 
L 424.230195 293.901205 
L 426.041883 293.833735 
L 427.400649 293.73253 
L 433.741558 293.631325 
L 436.459091 293.53012 
L 444.611688 293.428916 
L 446.423377 293.395181 
L 451.858442 293.327711 
L 452.764286 293.260241 
L 459.105195 293.159036 
L 460.916883 293.125301 
L 472.692857 293.024096 
L 475.41039 292.922892 
L 494.433117 292.821687 
L 496.697727 292.754217 
L 508.473701 292.686747 
L 509.379545 292.619277 
L 511.644156 292.551807 
L 513.002922 292.416867 
L 515.720455 292.315663 
L 518.890909 292.180723 
L 522.967208 292.079518 
L 525.231818 292.012048 
L 528.402273 291.910843 
L 532.025649 291.742169 
L 534.29026 291.640964 
L 536.101948 291.607229 
L 540.178247 291.506024 
L 541.989935 291.472289 
L 547.877922 291.371084 
L 549.68961 291.337349 
L 551.954221 291.236145 
L 554.671753 291.13494 
L 557.842208 291.06747 
L 558.748052 291 
L 569.618182 290.898795 
L 575.506169 290.561446 
L 577.770779 290.493976 
L 578.676623 290.392771 
L 579.582468 290.325301 
L 583.205844 290.224096 
L 585.923377 290.122892 
L 590.452597 290.021687 
L 592.717208 289.785542 
L 597.246429 289.684337 
L 598.152273 289.583133 
L 602.681494 289.481928 
L 604.946104 289.414458 
L 609.928247 289.380723 
L 610.834091 289.279518 
L 615.816234 289.178313 
L 616.722078 289.110843 
L 626.686364 289.009639 
L 629.403896 288.908434 
L 636.197727 288.807229 
L 638.009416 288.773494 
L 642.085714 288.706024 
L 642.991558 288.604819 
L 648.879545 288.503614 
L 651.144156 288.436145 
L 659.296753 288.33494 
L 660.655519 288.233735 
L 662.014286 288.13253 
L 663.373052 288.031325 
L 670.166883 287.93012 
L 672.884416 287.828916 
L 685.113312 287.727711 
L 689.18961 287.525301 
L 694.624675 287.424096 
L 695.530519 287.356627 
L 702.324351 287.289157 
L 703.230195 287.221687 
L 708.212338 287.120482 
L 710.024026 287.086747 
L 716.364935 286.985542 
L 719.082468 286.884337 
L 726.782143 286.783133 
L 728.593831 286.749398 
L 732.67013 286.648193 
L 736.293506 286.479518 
L 741.275649 286.378313 
L 744.446104 286.243373 
L 747.163636 286.243373 
L 747.163636 286.243373 
" clip-path="url(#p711b36f63d)" style="fill: none; stroke: #ff7f0e; stroke-width: 1.5; stroke-linecap: square"/>
   </g>
   <g id="patch_3">
    <path d="M 108 320.4 
L 108 43.2 
" style="fill: none; stroke: #a9a9a9; stroke-width: 0.8; stroke-linejoin: miter; stroke-linecap: square"/>
   </g>
   <g id="patch_4">
    <path d="M 777.6 320.4 
L 777.6 43.2 
" style="fill: none"/>
   </g>
   <g id="patch_5">
    <path d="M 108 320.4 
L 777.6 320.4 
" style="fill: none; stroke: #a9a9a9; stroke-width: 0.8; stroke-linejoin: miter; stroke-linecap: square"/>
   </g>
   <g id="patch_6">
    <path d="M 108 43.2 
L 777.6 43.2 
" style="fill: none"/>
   </g>
   <g id="text_17">
    <!-- get_subscribe history -->
    <g style="fill: #a9a9a9" transform="translate(378.6075 37.2) scale(0.12 -0.12)">
     <defs>
      <path id="DejaVuSans-67" d="M 2906 1791 
Q 2906 2416 2648 2759 
Q 2391 3103 1925 3103 
Q 1463 3103 1205 2759 
Q 947 2416 947 1791 
Q 947 1169 1205 825 
Q 1463 481 1925 481 
Q 2391 481 2648 825 
Q 2906 1169 2906 1791 
z
M 3481 434 
Q 3481 -459 3084 -895 
Q 2688 -1331 1869 -1331 
Q 1566 -1331 1297 -1286 
Q 1028 -1241 775 -1147 
L 775 -588 
Q 1028 -725 1275 -790 
Q 1522 -856 1778 -856 
Q 2344 -856 2625 -561 
Q 2906 -266 2906 331 
L 2906 616 
Q 2728 306 2450 153 
Q 2172 0 1784 0 
Q 1141 0 747 490 
Q 353 981 353 1791 
Q 353 2603 747 3093 
Q 1141 3584 1784 3584 
Q 2172 3584 2450 3431 
Q 2728 3278 2906 2969 
L 2906 3500 
L 3481 3500 
L 3481 434 
z
" transform="scale(0.015625)"/>
      <path id="DejaVuSans-65" d="M 3597 1894 
L 3597 1613 
L 953 1613 
Q 991 1019 1311 708 
Q 1631 397 2203 397 
Q 2534 397 2845 478 
Q 3156 559 3463 722 
L 3463 178 
Q 3153 47 2828 -22 
Q 2503 -91 2169 -91 
Q 1331 -91 842 396 
Q 353 884 353 1716 
Q 353 2575 817 3079 
Q 1281 3584 2069 3584 
Q 2775 3584 3186 3129 
Q 3597 2675 3597 1894 
z
M 3022 2063 
Q 3016 2534 2758 2815 
Q 2500 3097 2075 3097 
Q 1594 3097 1305 2825 
Q 1016 2553 972 2059 
L 3022 2063 
z
" transform="scale(0.015625)"/>
      <path id="DejaVuSans-74" d="M 1172 4494 
L 1172 3500 
L 2356 3500 
L 2356 3053 
L 1172 3053 
L 1172 1153 
Q 1172 725 1289 603 
Q 1406 481 1766 481 
L 2356 481 
L 2356 0 
L 1766 0 
Q 1100 0 847 248 
Q 594 497 594 1153 
L 594 3053 
L 172 3053 
L 172 3500 
L 594 3500 
L 594 4494 
L 1172 4494 
z
" transform="scale(0.015625)"/>
      <path id="DejaVuSans-5f" d="M 3263 -1063 
L 3263 -1509 
L -63 -1509 
L -63 -1063 
L 3263 -1063 
z
" transform="scale(0.015625)"/>
      <path id="DejaVuSans-73" d="M 2834 3397 
L 2834 2853 
Q 2591 2978 2328 3040 
Q 2066 3103 1784 3103 
Q 1356 3103 1142 2972 
Q 928 2841 928 2578 
Q 928 2378 1081 2264 
Q 1234 2150 1697 2047 
L 1894 2003 
Q 2506 1872 2764 1633 
Q 3022 1394 3022 966 
Q 3022 478 2636 193 
Q 2250 -91 1575 -91 
Q 1294 -91 989 -36 
Q 684 19 347 128 
L 347 722 
Q 666 556 975 473 
Q 1284 391 1588 391 
Q 1994 391 2212 530 
Q 2431 669 2431 922 
Q 2431 1156 2273 1281 
Q 2116 1406 1581 1522 
L 1381 1569 
Q 847 1681 609 1914 
Q 372 2147 372 2553 
Q 372 3047 722 3315 
Q 1072 3584 1716 3584 
Q 2034 3584 2315 3537 
Q 2597 3491 2834 3397 
z
" transform="scale(0.015625)"/>
      <path id="DejaVuSans-75" d="M 544 1381 
L 544 3500 
L 1119 3500 
L 1119 1403 
Q 1119 906 1312 657 
Q 1506 409 1894 409 
Q 2359 409 2629 706 
Q 2900 1003 2900 1516 
L 2900 3500 
L 3475 3500 
L 3475 0 
L 2900 0 
L 2900 538 
Q 2691 219 2414 64 
Q 2138 -91 1772 -91 
Q 1169 -91 856 284 
Q 544 659 544 1381 
z
M 1991 3584 
L 1991 3584 
z
" transform="scale(0.015625)"/>
      <path id="DejaVuSans-62" d="M 3116 1747 
Q 3116 2381 2855 2742 
Q 2594 3103 2138 3103 
Q 1681 3103 1420 2742 
Q 1159 2381 1159 1747 
Q 1159 1113 1420 752 
Q 1681 391 2138 391 
Q 2594 391 2855 752 
Q 3116 1113 3116 1747 
z
M 1159 2969 
Q 1341 3281 1617 3432 
Q 1894 3584 2278 3584 
Q 2916 3584 3314 3078 
Q 3713 2572 3713 1747 
Q 3713 922 3314 415 
Q 2916 -91 2278 -91 
Q 1894 -91 1617 61 
Q 1341 213 1159 525 
L 1159 0 
L 581 0 
L 581 4863 
L 1159 4863 
L 1159 2969 
z
" transform="scale(0.015625)"/>
      <path id="DejaVuSans-63" d="M 3122 3366 
L 3122 2828 
Q 2878 2963 2633 3030 
Q 2388 3097 2138 3097 
Q 1578 3097 1268 2742 
Q 959 2388 959 1747 
Q 959 1106 1268 751 
Q 1578 397 2138 397 
Q 2388 397 2633 464 
Q 2878 531 3122 666 
L 3122 134 
Q 2881 22 2623 -34 
Q 2366 -91 2075 -91 
Q 1284 -91 818 406 
Q 353 903 353 1747 
Q 353 2603 823 3093 
Q 1294 3584 2113 3584 
Q 2378 3584 2631 3529 
Q 2884 3475 3122 3366 
z
" transform="scale(0.015625)"/>
      <path id="DejaVuSans-72" d="M 2631 2963 
Q 2534 3019 2420 3045 
Q 2306 3072 2169 3072 
Q 1681 3072 1420 2755 
Q 1159 2438 1159 1844 
L 1159 0 
L 581 0 
L 581 3500 
L 1159 3500 
L 1159 2956 
Q 1341 3275 1631 3429 
Q 1922 3584 2338 3584 
Q 2397 3584 2469 3576 
Q 2541 3569 2628 3553 
L 2631 2963 
z
" transform="scale(0.015625)"/>
      <path id="DejaVuSans-69" d="M 603 3500 
L 1178 3500 
L 1178 0 
L 603 0 
L 603 3500 
z
M 603 4863 
L 1178 4863 
L 1178 4134 
L 603 4134 
L 603 4863 
z
" transform="scale(0.015625)"/>
      <path id="DejaVuSans-20" transform="scale(0.015625)"/>
      <path id="DejaVuSans-68" d="M 3513 2113 
L 3513 0 
L 2938 0 
L 2938 2094 
Q 2938 2591 2744 2837 
Q 2550 3084 2163 3084 
Q 1697 3084 1428 2787 
Q 1159 2491 1159 1978 
L 1159 0 
L 581 0 
L 581 4863 
L 1159 4863 
L 1159 2956 
Q 1366 3272 1645 3428 
Q 1925 3584 2291 3584 
Q 2894 3584 3203 3211 
Q 3513 2838 3513 2113 
z
" transform="scale(0.015625)"/>
      <path id="DejaVuSans-6f" d="M 1959 3097 
Q 1497 3097 1228 2736 
Q 959 2375 959 1747 
Q 959 1119 1226 758 
Q 1494 397 1959 397 
Q 2419 397 2687 759 
Q 2956 1122 2956 1747 
Q 2956 2369 2687 2733 
Q 2419 3097 1959 3097 
z
M 1959 3584 
Q 2709 3584 3137 3096 
Q 3566 2609 3566 1747 
Q 3566 888 3137 398 
Q 2709 -91 1959 -91 
Q 1206 -91 779 398 
Q 353 888 353 1747 
Q 353 2609 779 3096 
Q 1206 3584 1959 3584 
z
" transform="scale(0.015625)"/>
      <path id="DejaVuSans-79" d="M 2059 -325 
Q 1816 -950 1584 -1140 
Q 1353 -1331 966 -1331 
L 506 -1331 
L 506 -850 
L 844 -850 
Q 1081 -850 1212 -737 
Q 1344 -625 1503 -206 
L 1606 56 
L 191 3500 
L 800 3500 
L 1894 763 
L 2988 3500 
L 3597 3500 
L 2059 -325 
z
" transform="scale(0.015625)"/>
     </defs>
     <use xlink:href="#DejaVuSans-67"/>
     <use xlink:href="#DejaVuSans-65" transform="translate(63.476562 0)"/>
     <use xlink:href="#DejaVuSans-74" transform="translate(125 0)"/>
     <use xlink:href="#DejaVuSans-5f" transform="translate(164.208984 0)"/>
     <use xlink:href="#DejaVuSans-73" transform="translate(214.208984 0)"/>
     <use xlink:href="#DejaVuSans-75" transform="translate(266.308594 0)"/>
     <use xlink:href="#DejaVuSans-62" transform="translate(329.6875 0)"/>
     <use xlink:href="#DejaVuSans-73" transform="translate(393.164062 0)"/>
     <use xlink:href="#DejaVuSans-63" transform="translate(445.263672 0)"/>
     <use xlink:href="#DejaVuSans-72" transform="translate(500.244141 0)"/>
     <use xlink:href="#DejaVuSans-69" transform="translate(541.357422 0)"/>
     <use xlink:href="#DejaVuSans-62" transform="translate(569.140625 0)"/>
     <use xlink:href="#DejaVuSans-65" transform="translate(632.617188 0)"/>
     <use xlink:href="#DejaVuSans-20" transform="translate(694.140625 0)"/>
     <use xlink:href="#DejaVuSans-68" transform="translate(725.927734 0)"/>
     <use xlink:href="#DejaVuSans-69" transform="translate(789.306641 0)"/>
     <use xlink:href="#DejaVuSans-73" transform="translate(817.089844 0)"/>
     <use xlink:href="#DejaVuSans-74" transform="translate(869.189453 0)"/>
     <use xlink:href="#DejaVuSans-6f" transform="translate(908.398438 0)"/>
     <use xlink:href="#DejaVuSans-72" transform="translate(969.580078 0)"/>
     <use xlink:href="#DejaVuSans-79" transform="translate(1010.693359 0)"/>
    </g>
   </g>
   <g id="legend_1">
    <g id="line2d_35">
     <path d="M 815.08 328.498438 
L 825.08 328.498438 
L 835.08 328.498438 
" style="fill: none; stroke: #1f77b4; stroke-width: 1.5; stroke-linecap: square"/>
    </g>
    <g id="text_18">
     <!-- star -->
     <g style="fill: #a9a9a9" transform="translate(843.08 331.998438) scale(0.1 -0.1)">
      <defs>
       <path id="DejaVuSans-61" d="M 2194 1759 
Q 1497 1759 1228 1600 
Q 959 1441 959 1056 
Q 959 750 1161 570 
Q 1363 391 1709 391 
Q 2188 391 2477 730 
Q 2766 1069 2766 1631 
L 2766 1759 
L 2194 1759 
z
M 3341 1997 
L 3341 0 
L 2766 0 
L 2766 531 
Q 2569 213 2275 61 
Q 1981 -91 1556 -91 
Q 1019 -91 701 211 
Q 384 513 384 1019 
Q 384 1609 779 1909 
Q 1175 2209 1959 2209 
L 2766 2209 
L 2766 2266 
Q 2766 2663 2505 2880 
Q 2244 3097 1772 3097 
Q 1472 3097 1187 3025 
Q 903 2953 641 2809 
L 641 3341 
Q 956 3463 1253 3523 
Q 1550 3584 1831 3584 
Q 2591 3584 2966 3190 
Q 3341 2797 3341 1997 
z
" transform="scale(0.015625)"/>
      </defs>
      <use xlink:href="#DejaVuSans-73"/>
      <use xlink:href="#DejaVuSans-74" transform="translate(52.099609 0)"/>
      <use xlink:href="#DejaVuSans-61" transform="translate(91.308594 0)"/>
      <use xlink:href="#DejaVuSans-72" transform="translate(152.587891 0)"/>
     </g>
    </g>
    <g id="line2d_36">
     <path d="M 815.08 343.176562 
L 825.08 343.176562 
L 835.08 343.176562 
" style="fill: none; stroke: #ff7f0e; stroke-width: 1.5; stroke-linecap: square"/>
    </g>
    <g id="text_19">
     <!-- fork -->
     <g style="fill: #a9a9a9" transform="translate(843.08 346.676562) scale(0.1 -0.1)">
      <defs>
       <path id="DejaVuSans-66" d="M 2375 4863 
L 2375 4384 
L 1825 4384 
Q 1516 4384 1395 4259 
Q 1275 4134 1275 3809 
L 1275 3500 
L 2222 3500 
L 2222 3053 
L 1275 3053 
L 1275 0 
L 697 0 
L 697 3053 
L 147 3053 
L 147 3500 
L 697 3500 
L 697 3744 
Q 697 4328 969 4595 
Q 1241 4863 1831 4863 
L 2375 4863 
z
" transform="scale(0.015625)"/>
       <path id="DejaVuSans-6b" d="M 581 4863 
L 1159 4863 
L 1159 1991 
L 2875 3500 
L 3609 3500 
L 1753 1863 
L 3688 0 
L 2938 0 
L 1159 1709 
L 1159 0 
L 581 0 
L 581 4863 
z
" transform="scale(0.015625)"/>
      </defs>
      <use xlink:href="#DejaVuSans-66"/>
      <use xlink:href="#DejaVuSans-6f" transform="translate(35.205078 0)"/>
      <use xlink:href="#DejaVuSans-72" transform="translate(96.386719 0)"/>
      <use xlink:href="#DejaVuSans-6b" transform="translate(137.5 0)"/>
     </g>
    </g>
   </g>
  </g>
 </g>
 <defs>
  <clipPath id="p711b36f63d">
   <rect x="108" y="43.2" width="669.6" height="277.2"/>
  </clipPath>
 </defs>
</svg>
