<?xml version="1.0" encoding="utf-8" standalone="no"?>
<!DOCTYPE svg PUBLIC "-//W3C//DTD SVG 1.1//EN"
  "http://www.w3.org/Graphics/SVG/1.1/DTD/svg11.dtd">
<svg xmlns:xlink="http://www.w3.org/1999/xlink" width="864pt" height="360pt" viewBox="0 0 864 360" xmlns="http://www.w3.org/2000/svg" version="1.1">
 <metadata>
  <rdf:RDF xmlns:dc="http://purl.org/dc/elements/1.1/" xmlns:cc="http://creativecommons.org/ns#" xmlns:rdf="http://www.w3.org/1999/02/22-rdf-syntax-ns#">
   <cc:Work>
    <dc:type rdf:resource="http://purl.org/dc/dcmitype/StillImage"/>
    <dc:date>2025-11-19T08:16:40.816432</dc:date>
    <dc:format>image/svg+xml</dc:format>
    <dc:creator>
     <cc:Agent>
      <dc:title>Matplotlib v3.10.7, https://matplotlib.org/</dc:title>
     </cc:Agent>
    </dc:creator>
   </cc:Work>
  </rdf:RDF>
 </metadata>
 <defs>
  <style type="text/css">*{stroke-linejoin: round; stroke-linecap: butt}</style>
 </defs>
 <g id="figure_1">
  <g id="patch_1">
   <path d="M 0 360 
L 864 360 
L 864 0 
L 0 0 
L 0 360 
z
" style="fill: none; opacity: 0"/>
  </g>
  <g id="axes_1">
   <g id="patch_2">
    <path d="M 108 320.4 
L 777.6 320.4 
L 777.6 43.2 
L 108 43.2 
L 108 320.4 
z
" style="fill: none; opacity: 0"/>
   </g>
   <g id="matplotlib.axis_1">
    <g id="xtick_1">
     <g id="line2d_1">
      <path d="M 129.569532 320.4 
L 129.569532 43.2 
" clip-path="url(#p89f42a22d7)" style="fill: none; stroke-dasharray: 5.12,1.28,0.8,1.28; stroke-dashoffset: 0; stroke: #b0b0b0; stroke-width: 0.8"/>
     </g>
     <g id="line2d_2">
      <defs>
       <path id="m447cae868c" d="M 0 0 
L 0 3.5 
" style="stroke: #a9a9a9; stroke-width: 0.8"/>
      </defs>
      <g>
       <use xlink:href="#m447cae868c" x="129.569532" y="320.4" style="fill: #a9a9a9; stroke: #a9a9a9; stroke-width: 0.8"/>
      </g>
     </g>
     <g id="text_1">
      <!-- 2021-07 -->
      <g style="fill: #a9a9a9" transform="translate(108.678126 334.998438) scale(0.1 -0.1)">
       <defs>
        <path id="DejaVuSans-32" d="M 1228 531 
L 3431 531 
L 3431 0 
L 469 0 
L 469 531 
Q 828 903 1448 1529 
Q 2069 2156 2228 2338 
Q 2531 2678 2651 2914 
Q 2772 3150 2772 3378 
Q 2772 3750 2511 3984 
Q 2250 4219 1831 4219 
Q 1534 4219 1204 4116 
Q 875 4013 500 3803 
L 500 4441 
Q 881 4594 1212 4672 
Q 1544 4750 1819 4750 
Q 2544 4750 2975 4387 
Q 3406 4025 3406 3419 
Q 3406 3131 3298 2873 
Q 3191 2616 2906 2266 
Q 2828 2175 2409 1742 
Q 1991 1309 1228 531 
z
" transform="scale(0.015625)"/>
        <path id="DejaVuSans-30" d="M 2034 4250 
Q 1547 4250 1301 3770 
Q 1056 3291 1056 2328 
Q 1056 1369 1301 889 
Q 1547 409 2034 409 
Q 2525 409 2770 889 
Q 3016 1369 3016 2328 
Q 3016 3291 2770 3770 
Q 2525 4250 2034 4250 
z
M 2034 4750 
Q 2819 4750 3233 4129 
Q 3647 3509 3647 2328 
Q 3647 1150 3233 529 
Q 2819 -91 2034 -91 
Q 1250 -91 836 529 
Q 422 1150 422 2328 
Q 422 3509 836 4129 
Q 1250 4750 2034 4750 
z
" transform="scale(0.015625)"/>
        <path id="DejaVuSans-31" d="M 794 531 
L 1825 531 
L 1825 4091 
L 703 3866 
L 703 4441 
L 1819 4666 
L 2450 4666 
L 2450 531 
L 3481 531 
L 3481 0 
L 794 0 
L 794 531 
z
" transform="scale(0.015625)"/>
        <path id="DejaVuSans-2d" d="M 313 2009 
L 1997 2009 
L 1997 1497 
L 313 1497 
L 313 2009 
z
" transform="scale(0.015625)"/>
        <path id="DejaVuSans-37" d="M 525 4666 
L 3525 4666 
L 3525 4397 
L 1831 0 
L 1172 0 
L 2766 4134 
L 525 4134 
L 525 4666 
z
" transform="scale(0.015625)"/>
       </defs>
       <use xlink:href="#DejaVuSans-32"/>
       <use xlink:href="#DejaVuSans-30" transform="translate(63.623047 0)"/>
       <use xlink:href="#DejaVuSans-32" transform="translate(127.246094 0)"/>
       <use xlink:href="#DejaVuSans-31" transform="translate(190.869141 0)"/>
       <use xlink:href="#DejaVuSans-2d" transform="translate(254.492188 0)"/>
       <use xlink:href="#DejaVuSans-30" transform="translate(290.576172 0)"/>
       <use xlink:href="#DejaVuSans-37" transform="translate(354.199219 0)"/>
      </g>
     </g>
    </g>
    <g id="xtick_2">
     <g id="line2d_3">
      <path d="M 200.504186 320.4 
L 200.504186 43.2 
" clip-path="url(#p89f42a22d7)" style="fill: none; stroke-dasharray: 5.12,1.28,0.8,1.28; stroke-dashoffset: 0; stroke: #b0b0b0; stroke-width: 0.8"/>
     </g>
     <g id="line2d_4">
      <g>
       <use xlink:href="#m447cae868c" x="200.504186" y="320.4" style="fill: #a9a9a9; stroke: #a9a9a9; stroke-width: 0.8"/>
      </g>
     </g>
     <g id="text_2">
      <!-- 2022-01 -->
      <g style="fill: #a9a9a9" transform="translate(179.612779 334.998438) scale(0.1 -0.1)">
       <use xlink:href="#DejaVuSans-32"/>
       <use xlink:href="#DejaVuSans-30" transform="translate(63.623047 0)"/>
       <use xlink:href="#DejaVuSans-32" transform="translate(127.246094 0)"/>
       <use xlink:href="#DejaVuSans-32" transform="translate(190.869141 0)"/>
       <use xlink:href="#DejaVuSans-2d" transform="translate(254.492188 0)"/>
       <use xlink:href="#DejaVuSans-30" transform="translate(290.576172 0)"/>
       <use xlink:href="#DejaVuSans-31" transform="translate(354.199219 0)"/>
      </g>
     </g>
    </g>
    <g id="xtick_3">
     <g id="line2d_5">
      <path d="M 270.282296 320.4 
L 270.282296 43.2 
" clip-path="url(#p89f42a22d7)" style="fill: none; stroke-dasharray: 5.12,1.28,0.8,1.28; stroke-dashoffset: 0; stroke: #b0b0b0; stroke-width: 0.8"/>
     </g>
     <g id="line2d_6">
      <g>
       <use xlink:href="#m447cae868c" x="270.282296" y="320.4" style="fill: #a9a9a9; stroke: #a9a9a9; stroke-width: 0.8"/>
      </g>
     </g>
     <g id="text_3">
      <!-- 2022-07 -->
      <g style="fill: #a9a9a9" transform="translate(249.39089 334.998438) scale(0.1 -0.1)">
       <use xlink:href="#DejaVuSans-32"/>
       <use xlink:href="#DejaVuSans-30" transform="translate(63.623047 0)"/>
       <use xlink:href="#DejaVuSans-32" transform="translate(127.246094 0)"/>
       <use xlink:href="#DejaVuSans-32" transform="translate(190.869141 0)"/>
       <use xlink:href="#DejaVuSans-2d" transform="translate(254.492188 0)"/>
       <use xlink:href="#DejaVuSans-30" transform="translate(290.576172 0)"/>
       <use xlink:href="#DejaVuSans-37" transform="translate(354.199219 0)"/>
      </g>
     </g>
    </g>
    <g id="xtick_4">
     <g id="line2d_7">
      <path d="M 341.21695 320.4 
L 341.21695 43.2 
" clip-path="url(#p89f42a22d7)" style="fill: none; stroke-dasharray: 5.12,1.28,0.8,1.28; stroke-dashoffset: 0; stroke: #b0b0b0; stroke-width: 0.8"/>
     </g>
     <g id="line2d_8">
      <g>
       <use xlink:href="#m447cae868c" x="341.21695" y="320.4" style="fill: #a9a9a9; stroke: #a9a9a9; stroke-width: 0.8"/>
      </g>
     </g>
     <g id="text_4">
      <!-- 2023-01 -->
      <g style="fill: #a9a9a9" transform="translate(320.325543 334.998438) scale(0.1 -0.1)">
       <defs>
        <path id="DejaVuSans-33" d="M 2597 2516 
Q 3050 2419 3304 2112 
Q 3559 1806 3559 1356 
Q 3559 666 3084 287 
Q 2609 -91 1734 -91 
Q 1441 -91 1130 -33 
Q 819 25 488 141 
L 488 750 
Q 750 597 1062 519 
Q 1375 441 1716 441 
Q 2309 441 2620 675 
Q 2931 909 2931 1356 
Q 2931 1769 2642 2001 
Q 2353 2234 1838 2234 
L 1294 2234 
L 1294 2753 
L 1863 2753 
Q 2328 2753 2575 2939 
Q 2822 3125 2822 3475 
Q 2822 3834 2567 4026 
Q 2313 4219 1838 4219 
Q 1578 4219 1281 4162 
Q 984 4106 628 3988 
L 628 4550 
Q 988 4650 1302 4700 
Q 1616 4750 1894 4750 
Q 2613 4750 3031 4423 
Q 3450 4097 3450 3541 
Q 3450 3153 3228 2886 
Q 3006 2619 2597 2516 
z
" transform="scale(0.015625)"/>
       </defs>
       <use xlink:href="#DejaVuSans-32"/>
       <use xlink:href="#DejaVuSans-30" transform="translate(63.623047 0)"/>
       <use xlink:href="#DejaVuSans-32" transform="translate(127.246094 0)"/>
       <use xlink:href="#DejaVuSans-33" transform="translate(190.869141 0)"/>
       <use xlink:href="#DejaVuSans-2d" transform="translate(254.492188 0)"/>
       <use xlink:href="#DejaVuSans-30" transform="translate(290.576172 0)"/>
       <use xlink:href="#DejaVuSans-31" transform="translate(354.199219 0)"/>
      </g>
     </g>
    </g>
    <g id="xtick_5">
     <g id="line2d_9">
      <path d="M 410.99506 320.4 
L 410.99506 43.2 
" clip-path="url(#p89f42a22d7)" style="fill: none; stroke-dasharray: 5.12,1.28,0.8,1.28; stroke-dashoffset: 0; stroke: #b0b0b0; stroke-width: 0.8"/>
     </g>
     <g id="line2d_10">
      <g>
       <use xlink:href="#m447cae868c" x="410.99506" y="320.4" style="fill: #a9a9a9; stroke: #a9a9a9; stroke-width: 0.8"/>
      </g>
     </g>
     <g id="text_5">
      <!-- 2023-07 -->
      <g style="fill: #a9a9a9" transform="translate(390.103654 334.998438) scale(0.1 -0.1)">
       <use xlink:href="#DejaVuSans-32"/>
       <use xlink:href="#DejaVuSans-30" transform="translate(63.623047 0)"/>
       <use xlink:href="#DejaVuSans-32" transform="translate(127.246094 0)"/>
       <use xlink:href="#DejaVuSans-33" transform="translate(190.869141 0)"/>
       <use xlink:href="#DejaVuSans-2d" transform="translate(254.492188 0)"/>
       <use xlink:href="#DejaVuSans-30" transform="translate(290.576172 0)"/>
       <use xlink:href="#DejaVuSans-37" transform="translate(354.199219 0)"/>
      </g>
     </g>
    </g>
    <g id="xtick_6">
     <g id="line2d_11">
      <path d="M 481.929714 320.4 
L 481.929714 43.2 
" clip-path="url(#p89f42a22d7)" style="fill: none; stroke-dasharray: 5.12,1.28,0.8,1.28; stroke-dashoffset: 0; stroke: #b0b0b0; stroke-width: 0.8"/>
     </g>
     <g id="line2d_12">
      <g>
       <use xlink:href="#m447cae868c" x="481.929714" y="320.4" style="fill: #a9a9a9; stroke: #a9a9a9; stroke-width: 0.8"/>
      </g>
     </g>
     <g id="text_6">
      <!-- 2024-01 -->
      <g style="fill: #a9a9a9" transform="translate(461.038308 334.998438) scale(0.1 -0.1)">
       <defs>
        <path id="DejaVuSans-34" d="M 2419 4116 
L 825 1625 
L 2419 1625 
L 2419 4116 
z
M 2253 4666 
L 3047 4666 
L 3047 1625 
L 3713 1625 
L 3713 1100 
L 3047 1100 
L 3047 0 
L 2419 0 
L 2419 1100 
L 313 1100 
L 313 1709 
L 2253 4666 
z
" transform="scale(0.015625)"/>
       </defs>
       <use xlink:href="#DejaVuSans-32"/>
       <use xlink:href="#DejaVuSans-30" transform="translate(63.623047 0)"/>
       <use xlink:href="#DejaVuSans-32" transform="translate(127.246094 0)"/>
       <use xlink:href="#DejaVuSans-34" transform="translate(190.869141 0)"/>
       <use xlink:href="#DejaVuSans-2d" transform="translate(254.492188 0)"/>
       <use xlink:href="#DejaVuSans-30" transform="translate(290.576172 0)"/>
       <use xlink:href="#DejaVuSans-31" transform="translate(354.199219 0)"/>
      </g>
     </g>
    </g>
    <g id="xtick_7">
     <g id="line2d_13">
      <path d="M 552.093339 320.4 
L 552.093339 43.2 
" clip-path="url(#p89f42a22d7)" style="fill: none; stroke-dasharray: 5.12,1.28,0.8,1.28; stroke-dashoffset: 0; stroke: #b0b0b0; stroke-width: 0.8"/>
     </g>
     <g id="line2d_14">
      <g>
       <use xlink:href="#m447cae868c" x="552.093339" y="320.4" style="fill: #a9a9a9; stroke: #a9a9a9; stroke-width: 0.8"/>
      </g>
     </g>
     <g id="text_7">
      <!-- 2024-07 -->
      <g style="fill: #a9a9a9" transform="translate(531.201932 334.998438) scale(0.1 -0.1)">
       <use xlink:href="#DejaVuSans-32"/>
       <use xlink:href="#DejaVuSans-30" transform="translate(63.623047 0)"/>
       <use xlink:href="#DejaVuSans-32" transform="translate(127.246094 0)"/>
       <use xlink:href="#DejaVuSans-34" transform="translate(190.869141 0)"/>
       <use xlink:href="#DejaVuSans-2d" transform="translate(254.492188 0)"/>
       <use xlink:href="#DejaVuSans-30" transform="translate(290.576172 0)"/>
       <use xlink:href="#DejaVuSans-37" transform="translate(354.199219 0)"/>
      </g>
     </g>
    </g>
    <g id="xtick_8">
     <g id="line2d_15">
      <path d="M 623.027992 320.4 
L 623.027992 43.2 
" clip-path="url(#p89f42a22d7)" style="fill: none; stroke-dasharray: 5.12,1.28,0.8,1.28; stroke-dashoffset: 0; stroke: #b0b0b0; stroke-width: 0.8"/>
     </g>
     <g id="line2d_16">
      <g>
       <use xlink:href="#m447cae868c" x="623.027992" y="320.4" style="fill: #a9a9a9; stroke: #a9a9a9; stroke-width: 0.8"/>
      </g>
     </g>
     <g id="text_8">
      <!-- 2025-01 -->
      <g style="fill: #a9a9a9" transform="translate(602.136586 334.998438) scale(0.1 -0.1)">
       <defs>
        <path id="DejaVuSans-35" d="M 691 4666 
L 3169 4666 
L 3169 4134 
L 1269 4134 
L 1269 2991 
Q 1406 3038 1543 3061 
Q 1681 3084 1819 3084 
Q 2600 3084 3056 2656 
Q 3513 2228 3513 1497 
Q 3513 744 3044 326 
Q 2575 -91 1722 -91 
Q 1428 -91 1123 -41 
Q 819 9 494 109 
L 494 744 
Q 775 591 1075 516 
Q 1375 441 1709 441 
Q 2250 441 2565 725 
Q 2881 1009 2881 1497 
Q 2881 1984 2565 2268 
Q 2250 2553 1709 2553 
Q 1456 2553 1204 2497 
Q 953 2441 691 2322 
L 691 4666 
z
" transform="scale(0.015625)"/>
       </defs>
       <use xlink:href="#DejaVuSans-32"/>
       <use xlink:href="#DejaVuSans-30" transform="translate(63.623047 0)"/>
       <use xlink:href="#DejaVuSans-32" transform="translate(127.246094 0)"/>
       <use xlink:href="#DejaVuSans-35" transform="translate(190.869141 0)"/>
       <use xlink:href="#DejaVuSans-2d" transform="translate(254.492188 0)"/>
       <use xlink:href="#DejaVuSans-30" transform="translate(290.576172 0)"/>
       <use xlink:href="#DejaVuSans-31" transform="translate(354.199219 0)"/>
      </g>
     </g>
    </g>
    <g id="xtick_9">
     <g id="line2d_17">
      <path d="M 692.806103 320.4 
L 692.806103 43.2 
" clip-path="url(#p89f42a22d7)" style="fill: none; stroke-dasharray: 5.12,1.28,0.8,1.28; stroke-dashoffset: 0; stroke: #b0b0b0; stroke-width: 0.8"/>
     </g>
     <g id="line2d_18">
      <g>
       <use xlink:href="#m447cae868c" x="692.806103" y="320.4" style="fill: #a9a9a9; stroke: #a9a9a9; stroke-width: 0.8"/>
      </g>
     </g>
     <g id="text_9">
      <!-- 2025-07 -->
      <g style="fill: #a9a9a9" transform="translate(671.914697 334.998438) scale(0.1 -0.1)">
       <use xlink:href="#DejaVuSans-32"/>
       <use xlink:href="#DejaVuSans-30" transform="translate(63.623047 0)"/>
       <use xlink:href="#DejaVuSans-32" transform="translate(127.246094 0)"/>
       <use xlink:href="#DejaVuSans-35" transform="translate(190.869141 0)"/>
       <use xlink:href="#DejaVuSans-2d" transform="translate(254.492188 0)"/>
       <use xlink:href="#DejaVuSans-30" transform="translate(290.576172 0)"/>
       <use xlink:href="#DejaVuSans-37" transform="translate(354.199219 0)"/>
      </g>
     </g>
    </g>
    <g id="xtick_10">
     <g id="line2d_19">
      <path d="M 763.740757 320.4 
L 763.740757 43.2 
" clip-path="url(#p89f42a22d7)" style="fill: none; stroke-dasharray: 5.12,1.28,0.8,1.28; stroke-dashoffset: 0; stroke: #b0b0b0; stroke-width: 0.8"/>
     </g>
     <g id="line2d_20">
      <g>
       <use xlink:href="#m447cae868c" x="763.740757" y="320.4" style="fill: #a9a9a9; stroke: #a9a9a9; stroke-width: 0.8"/>
      </g>
     </g>
     <g id="text_10">
      <!-- 2026-01 -->
      <g style="fill: #a9a9a9" transform="translate(742.84935 334.998438) scale(0.1 -0.1)">
       <defs>
        <path id="DejaVuSans-36" d="M 2113 2584 
Q 1688 2584 1439 2293 
Q 1191 2003 1191 1497 
Q 1191 994 1439 701 
Q 1688 409 2113 409 
Q 2538 409 2786 701 
Q 3034 994 3034 1497 
Q 3034 2003 2786 2293 
Q 2538 2584 2113 2584 
z
M 3366 4563 
L 3366 3988 
Q 3128 4100 2886 4159 
Q 2644 4219 2406 4219 
Q 1781 4219 1451 3797 
Q 1122 3375 1075 2522 
Q 1259 2794 1537 2939 
Q 1816 3084 2150 3084 
Q 2853 3084 3261 2657 
Q 3669 2231 3669 1497 
Q 3669 778 3244 343 
Q 2819 -91 2113 -91 
Q 1303 -91 875 529 
Q 447 1150 447 2328 
Q 447 3434 972 4092 
Q 1497 4750 2381 4750 
Q 2619 4750 2861 4703 
Q 3103 4656 3366 4563 
z
" transform="scale(0.015625)"/>
       </defs>
       <use xlink:href="#DejaVuSans-32"/>
       <use xlink:href="#DejaVuSans-30" transform="translate(63.623047 0)"/>
       <use xlink:href="#DejaVuSans-32" transform="translate(127.246094 0)"/>
       <use xlink:href="#DejaVuSans-36" transform="translate(190.869141 0)"/>
       <use xlink:href="#DejaVuSans-2d" transform="translate(254.492188 0)"/>
       <use xlink:href="#DejaVuSans-30" transform="translate(290.576172 0)"/>
       <use xlink:href="#DejaVuSans-31" transform="translate(354.199219 0)"/>
      </g>
     </g>
    </g>
   </g>
   <g id="matplotlib.axis_2">
    <g id="ytick_1">
     <g id="line2d_21">
      <path d="M 108 307.830216 
L 777.6 307.830216 
" clip-path="url(#p89f42a22d7)" style="fill: none; stroke-dasharray: 5.12,1.28,0.8,1.28; stroke-dashoffset: 0; stroke: #b0b0b0; stroke-width: 0.8"/>
     </g>
     <g id="line2d_22">
      <defs>
       <path id="m7724b9e42a" d="M 0 0 
L -3.5 0 
" style="stroke: #a9a9a9; stroke-width: 0.8"/>
      </defs>
      <g>
       <use xlink:href="#m7724b9e42a" x="108" y="307.830216" style="fill: #a9a9a9; stroke: #a9a9a9; stroke-width: 0.8"/>
      </g>
     </g>
     <g id="text_11">
      <!-- 0 -->
      <g style="fill: #a9a9a9" transform="translate(94.6375 311.629435) scale(0.1 -0.1)">
       <use xlink:href="#DejaVuSans-30"/>
      </g>
     </g>
    </g>
    <g id="ytick_2">
     <g id="line2d_23">
      <path d="M 108 277.614388 
L 777.6 277.614388 
" clip-path="url(#p89f42a22d7)" style="fill: none; stroke-dasharray: 5.12,1.28,0.8,1.28; stroke-dashoffset: 0; stroke: #b0b0b0; stroke-width: 0.8"/>
     </g>
     <g id="line2d_24">
      <g>
       <use xlink:href="#m7724b9e42a" x="108" y="277.614388" style="fill: #a9a9a9; stroke: #a9a9a9; stroke-width: 0.8"/>
      </g>
     </g>
     <g id="text_12">
      <!-- 1000 -->
      <g style="fill: #a9a9a9" transform="translate(75.55 281.413607) scale(0.1 -0.1)">
       <use xlink:href="#DejaVuSans-31"/>
       <use xlink:href="#DejaVuSans-30" transform="translate(63.623047 0)"/>
       <use xlink:href="#DejaVuSans-30" transform="translate(127.246094 0)"/>
       <use xlink:href="#DejaVuSans-30" transform="translate(190.869141 0)"/>
      </g>
     </g>
    </g>
    <g id="ytick_3">
     <g id="line2d_25">
      <path d="M 108 247.398561 
L 777.6 247.398561 
" clip-path="url(#p89f42a22d7)" style="fill: none; stroke-dasharray: 5.12,1.28,0.8,1.28; stroke-dashoffset: 0; stroke: #b0b0b0; stroke-width: 0.8"/>
     </g>
     <g id="line2d_26">
      <g>
       <use xlink:href="#m7724b9e42a" x="108" y="247.398561" style="fill: #a9a9a9; stroke: #a9a9a9; stroke-width: 0.8"/>
      </g>
     </g>
     <g id="text_13">
      <!-- 2000 -->
      <g style="fill: #a9a9a9" transform="translate(75.55 251.19778) scale(0.1 -0.1)">
       <use xlink:href="#DejaVuSans-32"/>
       <use xlink:href="#DejaVuSans-30" transform="translate(63.623047 0)"/>
       <use xlink:href="#DejaVuSans-30" transform="translate(127.246094 0)"/>
       <use xlink:href="#DejaVuSans-30" transform="translate(190.869141 0)"/>
      </g>
     </g>
    </g>
    <g id="ytick_4">
     <g id="line2d_27">
      <path d="M 108 217.182734 
L 777.6 217.182734 
" clip-path="url(#p89f42a22d7)" style="fill: none; stroke-dasharray: 5.12,1.28,0.8,1.28; stroke-dashoffset: 0; stroke: #b0b0b0; stroke-width: 0.8"/>
     </g>
     <g id="line2d_28">
      <g>
       <use xlink:href="#m7724b9e42a" x="108" y="217.182734" style="fill: #a9a9a9; stroke: #a9a9a9; stroke-width: 0.8"/>
      </g>
     </g>
     <g id="text_14">
      <!-- 3000 -->
      <g style="fill: #a9a9a9" transform="translate(75.55 220.981953) scale(0.1 -0.1)">
       <use xlink:href="#DejaVuSans-33"/>
       <use xlink:href="#DejaVuSans-30" transform="translate(63.623047 0)"/>
       <use xlink:href="#DejaVuSans-30" transform="translate(127.246094 0)"/>
       <use xlink:href="#DejaVuSans-30" transform="translate(190.869141 0)"/>
      </g>
     </g>
    </g>
    <g id="ytick_5">
     <g id="line2d_29">
      <path d="M 108 186.966906 
L 777.6 186.966906 
" clip-path="url(#p89f42a22d7)" style="fill: none; stroke-dasharray: 5.12,1.28,0.8,1.28; stroke-dashoffset: 0; stroke: #b0b0b0; stroke-width: 0.8"/>
     </g>
     <g id="line2d_30">
      <g>
       <use xlink:href="#m7724b9e42a" x="108" y="186.966906" style="fill: #a9a9a9; stroke: #a9a9a9; stroke-width: 0.8"/>
      </g>
     </g>
     <g id="text_15">
      <!-- 4000 -->
      <g style="fill: #a9a9a9" transform="translate(75.55 190.766125) scale(0.1 -0.1)">
       <use xlink:href="#DejaVuSans-34"/>
       <use xlink:href="#DejaVuSans-30" transform="translate(63.623047 0)"/>
       <use xlink:href="#DejaVuSans-30" transform="translate(127.246094 0)"/>
       <use xlink:href="#DejaVuSans-30" transform="translate(190.869141 0)"/>
      </g>
     </g>
    </g>
    <g id="ytick_6">
     <g id="line2d_31">
      <path d="M 108 156.751079 
L 777.6 156.751079 
" clip-path="url(#p89f42a22d7)" style="fill: none; stroke-dasharray: 5.12,1.28,0.8,1.28; stroke-dashoffset: 0; stroke: #b0b0b0; stroke-width: 0.8"/>
     </g>
     <g id="line2d_32">
      <g>
       <use xlink:href="#m7724b9e42a" x="108" y="156.751079" style="fill: #a9a9a9; stroke: #a9a9a9; stroke-width: 0.8"/>
      </g>
     </g>
     <g id="text_16">
      <!-- 5000 -->
      <g style="fill: #a9a9a9" transform="translate(75.55 160.550298) scale(0.1 -0.1)">
       <use xlink:href="#DejaVuSans-35"/>
       <use xlink:href="#DejaVuSans-30" transform="translate(63.623047 0)"/>
       <use xlink:href="#DejaVuSans-30" transform="translate(127.246094 0)"/>
       <use xlink:href="#DejaVuSans-30" transform="translate(190.869141 0)"/>
      </g>
     </g>
    </g>
    <g id="ytick_7">
     <g id="line2d_33">
      <path d="M 108 126.535252 
L 777.6 126.535252 
" clip-path="url(#p89f42a22d7)" style="fill: none; stroke-dasharray: 5.12,1.28,0.8,1.28; stroke-dashoffset: 0; stroke: #b0b0b0; stroke-width: 0.8"/>
     </g>
     <g id="line2d_34">
      <g>
       <use xlink:href="#m7724b9e42a" x="108" y="126.535252" style="fill: #a9a9a9; stroke: #a9a9a9; stroke-width: 0.8"/>
      </g>
     </g>
     <g id="text_17">
      <!-- 6000 -->
      <g style="fill: #a9a9a9" transform="translate(75.55 130.334471) scale(0.1 -0.1)">
       <use xlink:href="#DejaVuSans-36"/>
       <use xlink:href="#DejaVuSans-30" transform="translate(63.623047 0)"/>
       <use xlink:href="#DejaVuSans-30" transform="translate(127.246094 0)"/>
       <use xlink:href="#DejaVuSans-30" transform="translate(190.869141 0)"/>
      </g>
     </g>
    </g>
    <g id="ytick_8">
     <g id="line2d_35">
      <path d="M 108 96.319424 
L 777.6 96.319424 
" clip-path="url(#p89f42a22d7)" style="fill: none; stroke-dasharray: 5.12,1.28,0.8,1.28; stroke-dashoffset: 0; stroke: #b0b0b0; stroke-width: 0.8"/>
     </g>
     <g id="line2d_36">
      <g>
       <use xlink:href="#m7724b9e42a" x="108" y="96.319424" style="fill: #a9a9a9; stroke: #a9a9a9; stroke-width: 0.8"/>
      </g>
     </g>
     <g id="text_18">
      <!-- 7000 -->
      <g style="fill: #a9a9a9" transform="translate(75.55 100.118643) scale(0.1 -0.1)">
       <use xlink:href="#DejaVuSans-37"/>
       <use xlink:href="#DejaVuSans-30" transform="translate(63.623047 0)"/>
       <use xlink:href="#DejaVuSans-30" transform="translate(127.246094 0)"/>
       <use xlink:href="#DejaVuSans-30" transform="translate(190.869141 0)"/>
      </g>
     </g>
    </g>
    <g id="ytick_9">
     <g id="line2d_37">
      <path d="M 108 66.103597 
L 777.6 66.103597 
" clip-path="url(#p89f42a22d7)" style="fill: none; stroke-dasharray: 5.12,1.28,0.8,1.28; stroke-dashoffset: 0; stroke: #b0b0b0; stroke-width: 0.8"/>
     </g>
     <g id="line2d_38">
      <g>
       <use xlink:href="#m7724b9e42a" x="108" y="66.103597" style="fill: #a9a9a9; stroke: #a9a9a9; stroke-width: 0.8"/>
      </g>
     </g>
     <g id="text_19">
      <!-- 8000 -->
      <g style="fill: #a9a9a9" transform="translate(75.55 69.902816) scale(0.1 -0.1)">
       <defs>
        <path id="DejaVuSans-38" d="M 2034 2216 
Q 1584 2216 1326 1975 
Q 1069 1734 1069 1313 
Q 1069 891 1326 650 
Q 1584 409 2034 409 
Q 2484 409 2743 651 
Q 3003 894 3003 1313 
Q 3003 1734 2745 1975 
Q 2488 2216 2034 2216 
z
M 1403 2484 
Q 997 2584 770 2862 
Q 544 3141 544 3541 
Q 544 4100 942 4425 
Q 1341 4750 2034 4750 
Q 2731 4750 3128 4425 
Q 3525 4100 3525 3541 
Q 3525 3141 3298 2862 
Q 3072 2584 2669 2484 
Q 3125 2378 3379 2068 
Q 3634 1759 3634 1313 
Q 3634 634 3220 271 
Q 2806 -91 2034 -91 
Q 1263 -91 848 271 
Q 434 634 434 1313 
Q 434 1759 690 2068 
Q 947 2378 1403 2484 
z
M 1172 3481 
Q 1172 3119 1398 2916 
Q 1625 2713 2034 2713 
Q 2441 2713 2670 2916 
Q 2900 3119 2900 3481 
Q 2900 3844 2670 4047 
Q 2441 4250 2034 4250 
Q 1625 4250 1398 4047 
Q 1172 3844 1172 3481 
z
" transform="scale(0.015625)"/>
       </defs>
       <use xlink:href="#DejaVuSans-38"/>
       <use xlink:href="#DejaVuSans-30" transform="translate(63.623047 0)"/>
       <use xlink:href="#DejaVuSans-30" transform="translate(127.246094 0)"/>
       <use xlink:href="#DejaVuSans-30" transform="translate(190.869141 0)"/>
      </g>
     </g>
    </g>
   </g>
   <g id="line2d_39">
    <path d="M 138.436364 307.739568 
L 140.74945 307.528058 
L 141.134965 307.346763 
L 142.677022 307.135252 
L 144.21908 306.802878 
L 144.990109 306.682014 
L 146.917681 306.500719 
L 147.68871 306.198561 
L 148.074224 305.654676 
L 148.459739 305.382734 
L 148.845253 304.476259 
L 149.230767 304.415827 
L 150.001796 303.932374 
L 150.772825 303.358273 
L 152.314883 302.210072 
L 152.700397 302.058993 
L 153.471426 301.57554 
L 154.627969 301.001439 
L 155.013484 300.336691 
L 155.784513 299.732374 
L 156.555541 299.490647 
L 157.712085 299.309353 
L 160.025171 298.946763 
L 160.410686 298.765468 
L 163.109287 298.523741 
L 164.651344 298.130935 
L 167.73546 297.677698 
L 168.120974 297.466187 
L 168.506489 297.405755 
L 169.277517 297.133813 
L 171.976118 296.65036 
L 172.747147 296.408633 
L 176.216777 295.804317 
L 176.987806 295.623022 
L 178.529864 295.411511 
L 179.300892 295.169784 
L 179.686407 294.595683 
L 180.84295 294.11223 
L 181.999493 293.779856 
L 182.385008 293.568345 
L 183.156037 293.417266 
L 184.698094 292.933813 
L 185.469123 292.873381 
L 186.240152 292.661871 
L 187.78221 292.238849 
L 188.167724 292.208633 
L 188.938753 291.815827 
L 189.324267 291.755396 
L 189.709782 291.543885 
L 193.95044 290.818705 
L 195.492498 290.335252 
L 195.878013 290.063309 
L 197.805585 289.398561 
L 198.576614 288.82446 
L 199.733157 288.582734 
L 204.744844 287.071942 
L 205.130359 287.011511 
L 206.672416 286.376978 
L 207.057931 286.316547 
L 207.82896 285.984173 
L 208.599988 285.953957 
L 209.756532 285.591367 
L 210.142046 285.591367 
L 210.527561 285.410072 
L 211.298589 285.319424 
L 211.684104 285.168345 
L 213.611676 285.077698 
L 213.99719 284.98705 
L 214.768219 284.564029 
L 215.924763 284.141007 
L 216.695791 283.717986 
L 217.852335 283.204317 
L 219.394392 282.388489 
L 219.779907 281.935252 
L 220.550936 280.666187 
L 220.93645 280.545324 
L 221.321964 280.545324 
L 222.864022 279.669065 
L 223.249537 279.578417 
L 223.635051 279.185612 
L 224.40608 278.853237 
L 225.177109 278.490647 
L 225.562623 278.007194 
L 225.948137 277.342446 
L 226.333652 277.070504 
L 226.719166 276.345324 
L 227.104681 275.892086 
L 229.417767 274.56259 
L 230.959825 273.11223 
L 231.345339 272.17554 
L 231.730854 271.571223 
L 232.116368 271.238849 
L 232.501883 271.057554 
L 237.128056 266.797122 
L 238.670113 265.8 
L 239.055628 265.648921 
L 240.597686 264.682014 
L 240.9832 264.500719 
L 242.910772 262.627338 
L 243.681801 262.294964 
L 244.45283 261.751079 
L 244.838344 261.509353 
L 245.223859 261.448921 
L 246.380402 260.753957 
L 246.765916 260.300719 
L 248.693488 259.182734 
L 249.079003 259.031655 
L 250.235546 258.185612 
L 256.018262 256.010072 
L 256.789291 255.254676 
L 257.945835 254.65036 
L 258.716863 254.136691 
L 259.487892 253.894964 
L 259.873407 253.623022 
L 260.258921 253.502158 
L 261.415464 252.686331 
L 263.343036 252.233094 
L 264.49958 251.507914 
L 265.656123 251.235971 
L 266.041637 251.145324 
L 267.198181 250.238849 
L 268.740238 249.785612 
L 269.125753 249.453237 
L 271.438839 248.607194 
L 272.209868 248.456115 
L 272.980897 248.123741 
L 275.679498 247.066187 
L 276.450527 246.97554 
L 277.60707 246.552518 
L 279.534642 245.555396 
L 281.847729 244.195683 
L 282.618758 243.984173 
L 283.775301 243.379856 
L 284.54633 243.228777 
L 285.317359 242.745324 
L 286.088387 242.533813 
L 287.244931 242.05036 
L 288.786988 241.838849 
L 289.558017 241.415827 
L 289.943532 241.053237 
L 290.329046 240.328058 
L 291.871104 239.87482 
L 293.413161 239.14964 
L 296.882791 237.548201 
L 297.65382 237.366906 
L 298.810363 236.76259 
L 299.195878 236.702158 
L 301.12345 235.705036 
L 301.894479 235.191367 
L 303.051022 234.94964 
L 304.978594 234.435971 
L 305.364108 234.103597 
L 306.135137 233.831655 
L 308.062709 233.015827 
L 308.448224 232.713669 
L 308.833738 232.56259 
L 309.604767 232.109353 
L 311.146825 231.595683 
L 311.917854 231.082014 
L 312.303368 230.658993 
L 312.688882 230.417266 
L 313.074397 230.326619 
L 313.845426 229.661871 
L 314.23094 229.601439 
L 314.616455 228.936691 
L 315.001969 228.755396 
L 315.387483 228.423022 
L 315.772998 228.36259 
L 316.544027 227.848921 
L 317.315056 227.576978 
L 317.70057 227.27482 
L 318.086084 227.123741 
L 320.013657 225.884892 
L 322.326743 224.827338 
L 322.712257 224.132374 
L 323.483286 223.528058 
L 323.868801 223.43741 
L 326.181887 222.289209 
L 326.952916 221.956835 
L 327.723945 221.382734 
L 328.880488 220.264748 
L 329.651517 219.781295 
L 330.037031 219.328058 
L 331.579089 218.210072 
L 332.350118 217.394245 
L 333.121147 217.122302 
L 333.892176 216.578417 
L 335.048719 215.943885 
L 335.434233 215.883453 
L 338.903863 214.070504 
L 339.674892 213.858993 
L 341.21695 213.315108 
L 341.602464 212.982734 
L 343.144522 212.348201 
L 343.530036 212.227338 
L 344.301065 211.713669 
L 345.072094 211.381295 
L 345.843123 210.807194 
L 346.614152 209.205755 
L 347.38518 208.299281 
L 348.541724 207.664748 
L 349.312753 207.332374 
L 349.698267 207.271942 
L 350.469296 206.909353 
L 352.011354 206.365468 
L 352.782382 205.91223 
L 353.553411 205.519424 
L 353.938926 205.398561 
L 356.252012 203.948201 
L 356.637527 203.494964 
L 357.79407 202.8 
L 358.179584 202.648921 
L 358.950613 202.165468 
L 360.492671 201.289209 
L 360.878185 201.198561 
L 361.2637 200.866187 
L 363.962301 199.959712 
L 364.347815 199.68777 
L 365.118844 199.446043 
L 368.202959 197.905036 
L 368.973988 197.482014 
L 369.359503 197.300719 
L 370.130531 196.666187 
L 370.90156 196.454676 
L 371.287075 196.092086 
L 371.672589 196.031655 
L 372.443618 195.427338 
L 374.37119 194.248921 
L 375.142219 194.007194 
L 375.527733 193.765468 
L 375.913248 193.705036 
L 377.455305 192.94964 
L 378.611849 192.556835 
L 379.382878 192.435971 
L 380.924935 191.831655 
L 381.31045 191.801439 
L 382.852507 191.197122 
L 384.009051 190.351079 
L 384.394565 190.2 
L 385.165594 189.746763 
L 385.551108 189.656115 
L 387.864195 188.296403 
L 388.249709 188.205755 
L 389.406253 187.480576 
L 390.562796 187.057554 
L 391.333825 186.785612 
L 392.875882 186.241727 
L 393.646911 185.969784 
L 395.188969 185.63741 
L 395.959998 185.395683 
L 397.88757 184.730935 
L 399.044113 184.368345 
L 399.429627 184.217266 
L 400.586171 184.035971 
L 402.899257 183.582734 
L 404.055801 183.310791 
L 404.441315 183.129496 
L 405.212344 182.978417 
L 405.983373 182.766906 
L 406.754402 182.404317 
L 407.139916 182.253237 
L 407.52543 182.253237 
L 411.766089 180.893525 
L 412.151603 180.682014 
L 412.537118 180.682014 
L 413.308147 180.379856 
L 413.693661 179.956835 
L 416.006748 178.959712 
L 417.548805 178.415827 
L 417.93432 178.174101 
L 419.090863 177.811511 
L 419.861892 177.6 
L 420.247406 177.328058 
L 420.632921 177.23741 
L 421.018435 176.905036 
L 422.174978 176.663309 
L 422.946007 176.300719 
L 423.331522 175.817266 
L 427.57218 174.85036 
L 427.957695 174.85036 
L 428.728724 174.608633 
L 432.198353 173.702158 
L 432.583868 173.551079 
L 433.354897 173.4 
L 435.282469 172.886331 
L 436.439012 172.523741 
L 438.366584 171.889209 
L 439.137613 171.556835 
L 439.908642 171.254676 
L 440.294156 170.982734 
L 441.065185 170.741007 
L 443.763786 169.683453 
L 445.305844 169.502158 
L 448.389959 168.323741 
L 448.775474 168.021583 
L 449.160988 167.930935 
L 449.546502 167.719424 
L 449.932017 167.689209 
L 454.172675 166.08777 
L 456.100248 165.543885 
L 456.871276 165.151079 
L 458.02782 164.879137 
L 459.569877 163.579856 
L 461.111935 162.884892 
L 462.653993 162.220144 
L 463.039507 162.129496 
L 463.425022 161.857554 
L 464.19605 161.615827 
L 464.581565 161.343885 
L 466.509137 160.679137 
L 470.364281 158.654676 
L 471.13531 158.292086 
L 471.520824 157.989928 
L 472.291853 157.717986 
L 474.60494 156.569784 
L 474.990454 156.479137 
L 476.146998 155.935252 
L 477.689055 155.391367 
L 478.460084 155.058993 
L 479.231113 154.938129 
L 479.616627 154.666187 
L 481.158685 154.364029 
L 481.929714 154.031655 
L 483.857286 153.094964 
L 488.868973 150.828777 
L 490.025517 150.435971 
L 490.411031 150.164029 
L 491.18206 150.073381 
L 491.567574 149.801439 
L 492.338603 149.680576 
L 493.109632 149.28777 
L 493.880661 149.046043 
L 495.422719 148.502158 
L 496.579262 148.079137 
L 498.506834 147.565468 
L 500.048892 146.900719 
L 500.819921 146.477698 
L 502.361978 145.661871 
L 503.133007 145.480576 
L 503.518522 145.238849 
L 503.904036 145.148201 
L 505.831608 144.181295 
L 508.915723 143.063309 
L 509.301238 142.942446 
L 510.072267 142.519424 
L 511.999839 141.82446 
L 514.312925 140.857554 
L 515.854983 140.102158 
L 519.710127 138.530935 
L 520.481156 138.138129 
L 520.866671 138.047482 
L 521.637699 137.745324 
L 522.023214 137.745324 
L 522.794243 137.382734 
L 524.3363 136.053237 
L 524.721815 135.932374 
L 525.107329 135.690647 
L 526.263872 135.358273 
L 526.649387 135.056115 
L 527.420416 134.784173 
L 528.576959 133.998561 
L 529.347988 133.78705 
L 530.119017 133.364029 
L 531.27556 133.092086 
L 533.203132 132.397122 
L 533.974161 132.155396 
L 535.130704 131.520863 
L 535.901733 131.128058 
L 536.672762 130.916547 
L 538.21482 130.191367 
L 538.600334 130.070504 
L 539.371363 129.707914 
L 541.298935 129.073381 
L 542.455478 128.317986 
L 542.840993 128.227338 
L 543.612021 127.834532 
L 544.38305 127.532374 
L 544.768565 127.169784 
L 545.925108 126.716547 
L 546.310622 126.656115 
L 547.85268 125.930935 
L 549.009223 125.568345 
L 550.165767 125.145324 
L 550.936795 124.903597 
L 551.707824 124.752518 
L 552.478853 124.329496 
L 552.864368 124.178417 
L 553.249882 123.876259 
L 554.406425 123.574101 
L 555.177454 123.271942 
L 555.948483 122.939568 
L 557.490541 122.305036 
L 560.189142 121.579856 
L 560.96017 121.277698 
L 562.502228 120.97554 
L 563.273257 120.82446 
L 564.4298 120.371223 
L 565.586343 120.129496 
L 567.89943 118.739568 
L 569.055973 118.014388 
L 571.36906 117.289209 
L 571.754574 116.98705 
L 574.83869 115.869065 
L 575.995233 115.506475 
L 576.766262 115.083453 
L 577.537291 114.871942 
L 577.922805 114.660432 
L 578.693834 114.509353 
L 580.235892 113.905036 
L 581.00692 113.391367 
L 582.163464 113.089209 
L 583.320007 112.303597 
L 583.705521 112.243165 
L 585.247579 111.608633 
L 586.789637 111.215827 
L 587.175151 111.155396 
L 587.560666 110.974101 
L 587.94618 110.943885 
L 588.717209 110.671942 
L 589.102723 110.641727 
L 590.259267 110.188489 
L 591.801324 109.735252 
L 592.572353 109.130935 
L 594.114411 108.254676 
L 594.499925 108.164029 
L 594.88544 107.952518 
L 595.270954 107.892086 
L 598.740584 106.139568 
L 599.126098 105.776978 
L 601.05367 105.293525 
L 602.210214 104.74964 
L 602.981242 104.538129 
L 603.366757 104.356835 
L 603.752271 104.02446 
L 605.679843 103.329496 
L 610.691531 101.456115 
L 611.46256 101.305036 
L 613.390132 100.670504 
L 614.546675 100.156835 
L 617.245276 99.341007 
L 618.016305 98.88777 
L 631.123795 94.838849 
L 631.894824 94.627338 
L 633.051367 94.204317 
L 633.436882 94.204317 
L 634.593425 93.932374 
L 635.364454 93.781295 
L 636.135483 93.569784 
L 637.292026 92.935252 
L 638.448569 92.572662 
L 641.14717 91.635971 
L 642.689228 90.85036 
L 643.845771 90.578417 
L 644.6168 90.336691 
L 645.387829 89.943885 
L 645.773343 89.611511 
L 646.544372 89.369784 
L 646.929887 89.128058 
L 647.700915 89.03741 
L 650.399516 88.251799 
L 651.55606 88.010072 
L 652.712603 87.707914 
L 653.483632 87.526619 
L 654.640175 86.922302 
L 659.651863 84.988489 
L 660.422891 84.867626 
L 661.19392 84.716547 
L 661.579435 84.716547 
L 662.735978 84.353957 
L 663.892521 83.991367 
L 667.362151 82.994245 
L 668.13318 82.782734 
L 668.518694 82.692086 
L 668.904209 82.45036 
L 669.675237 82.299281 
L 670.446266 82.208633 
L 670.831781 81.997122 
L 671.217295 81.966906 
L 671.988324 81.453237 
L 673.530382 81.120863 
L 674.301411 80.788489 
L 675.072439 80.516547 
L 675.843468 80.305036 
L 676.614497 79.972662 
L 677.000012 79.91223 
L 677.77104 79.640288 
L 678.927584 79.307914 
L 679.698612 79.247482 
L 680.855156 78.82446 
L 681.626185 78.703597 
L 684.324786 77.706475 
L 686.637872 77.313669 
L 687.408901 77.071942 
L 687.794415 77.011511 
L 688.565444 76.679137 
L 688.950959 76.618705 
L 689.336473 76.43741 
L 690.107502 75.772662 
L 693.962646 74.352518 
L 696.275733 73.717986 
L 697.046761 73.294964 
L 697.432276 73.204317 
L 698.588819 72.569784 
L 698.974334 72.479137 
L 699.359848 72.176978 
L 700.516391 71.844604 
L 706.684622 69.064748 
L 707.070136 69.004317 
L 709.383223 67.825899 
L 709.768737 67.584173 
L 710.925281 67.251799 
L 712.467338 66.617266 
L 712.852853 66.58705 
L 714.780425 65.861871 
L 715.551454 65.710791 
L 716.322483 65.136691 
L 716.707997 65.136691 
L 717.479026 64.864748 
L 717.86454 64.804317 
L 718.250055 64.592806 
L 719.792112 64.260432 
L 721.33417 63.595683 
L 721.719684 63.595683 
L 722.876228 63.202878 
L 723.647257 63.082014 
L 724.8038 62.417266 
L 725.574829 62.02446 
L 727.502401 61.389928 
L 728.27343 61.057554 
L 730.586516 60.392806 
L 731.743059 60.151079 
L 732.899603 59.728058 
L 734.827175 59.033094 
L 740.224377 57.703597 
L 741.766434 56.978417 
L 742.922978 56.615827 
L 745.621579 56.071942 
L 746.392608 55.951079 
L 746.778122 55.8 
L 747.163636 55.8 
L 747.163636 55.8 
" clip-path="url(#p89f42a22d7)" style="fill: none; stroke: #1f77b4; stroke-width: 1.5; stroke-linecap: square"/>
   </g>
   <g id="line2d_40">
    <path d="M 138.821878 307.8 
L 142.291508 307.709353 
L 145.375623 307.558273 
L 146.917681 307.558273 
L 147.303195 307.43741 
L 149.230767 307.346763 
L 151.543854 307.07482 
L 153.856941 306.984173 
L 154.627969 306.893525 
L 157.32657 306.772662 
L 160.025171 306.682014 
L 161.952743 306.621583 
L 166.964431 306.530935 
L 168.892003 306.470504 
L 172.361633 306.379856 
L 173.90369 306.34964 
L 177.758835 306.258993 
L 179.300892 306.107914 
L 180.84295 306.077698 
L 183.156037 305.98705 
L 184.698094 305.956835 
L 186.625666 305.896403 
L 188.167724 305.745324 
L 191.637354 305.654676 
L 192.408383 305.594245 
L 193.95044 305.503597 
L 196.263527 305.41295 
L 197.805585 305.322302 
L 204.744844 304.869065 
L 207.443445 304.778417 
L 208.599988 304.657554 
L 210.527561 304.566906 
L 214.382705 304.355396 
L 218.237849 304.294964 
L 219.779907 304.113669 
L 221.707479 304.023022 
L 225.562623 303.630216 
L 227.87571 303.328058 
L 229.417767 303.267626 
L 232.501883 302.844604 
L 234.814969 302.784173 
L 235.971512 302.663309 
L 237.128056 302.572662 
L 247.92246 301.696403 
L 248.693488 301.545324 
L 251.006575 301.454676 
L 257.174806 301.061871 
L 259.873407 300.971223 
L 261.415464 300.789928 
L 263.343036 300.699281 
L 265.656123 300.608633 
L 267.583695 300.517986 
L 269.125753 300.48777 
L 271.053325 300.427338 
L 271.824354 300.306475 
L 277.221556 300.215827 
L 277.992584 300.12518 
L 282.618758 300.034532 
L 286.088387 299.853237 
L 288.786988 299.76259 
L 290.329046 299.581295 
L 293.027647 299.490647 
L 293.798676 299.369784 
L 295.726248 299.309353 
L 299.581392 299.248921 
L 301.12345 299.097842 
L 302.665508 299.067626 
L 303.822051 298.976978 
L 305.364108 298.825899 
L 309.219253 298.614388 
L 313.074397 298.523741 
L 316.544027 298.342446 
L 317.70057 298.31223 
L 318.471599 298.191367 
L 320.399171 298.100719 
L 321.1702 298.040288 
L 321.941229 297.979856 
L 322.712257 297.919424 
L 326.567402 297.828777 
L 335.048719 297.254676 
L 335.819748 297.194245 
L 336.976291 297.103597 
L 339.674892 297.01295 
L 341.602464 296.952518 
L 346.999666 296.861871 
L 347.770695 296.771223 
L 353.167897 296.680576 
L 357.023041 296.469065 
L 357.79407 296.438849 
L 358.565099 296.348201 
L 360.492671 296.257554 
L 362.420243 296.197122 
L 364.347815 296.106475 
L 366.275387 296.046043 
L 369.745017 295.955396 
L 372.058104 295.864748 
L 377.455305 295.774101 
L 381.695964 295.532374 
L 383.238022 295.471942 
L 384.394565 295.381295 
L 389.791767 295.290647 
L 392.104853 295.2 
L 399.044113 295.109353 
L 400.586171 295.079137 
L 405.212344 295.018705 
L 405.983373 294.958273 
L 411.380575 294.867626 
L 412.922632 294.83741 
L 422.946007 294.746763 
L 425.259094 294.656115 
L 441.4507 294.565468 
L 443.378272 294.505036 
L 453.401647 294.444604 
L 454.172675 294.384173 
L 456.100248 294.323741 
L 457.256791 294.202878 
L 459.569877 294.11223 
L 462.268478 293.991367 
L 465.738108 293.900719 
L 467.66568 293.840288 
L 470.364281 293.74964 
L 473.448397 293.598561 
L 475.375969 293.507914 
L 476.918026 293.477698 
L 483.471772 293.38705 
L 485.784858 293.296403 
L 490.025517 293.205755 
L 492.724118 293.084892 
L 495.422719 293.02446 
L 496.193747 292.964029 
L 505.446094 292.873381 
L 509.301238 292.661871 
L 511.999839 292.571223 
L 516.240497 292.329496 
L 518.939098 292.238849 
L 520.481156 292.208633 
L 523.179757 292.117986 
L 525.107329 291.906475 
L 528.962473 291.815827 
L 529.733502 291.72518 
L 533.588646 291.634532 
L 535.516219 291.574101 
L 539.756877 291.543885 
L 540.527906 291.453237 
L 544.768565 291.36259 
L 545.539594 291.302158 
L 554.020911 291.211511 
L 556.333997 291.120863 
L 562.116714 291.030216 
L 563.658771 291 
L 567.128401 290.939568 
L 567.89943 290.848921 
L 572.911118 290.758273 
L 574.83869 290.697842 
L 581.777949 290.607194 
L 582.934492 290.516547 
L 584.091036 290.425899 
L 585.247579 290.335252 
L 591.030295 290.244604 
L 593.343382 290.153957 
L 604.5233 290.063309 
L 607.99293 289.882014 
L 613.390132 289.791367 
L 614.93219 289.761151 
L 619.558363 289.670504 
L 621.485935 289.610072 
L 629.581738 289.519424 
L 632.280339 289.398561 
L 639.219598 289.307914 
L 640.761656 289.277698 
L 644.6168 289.18705 
L 647.315401 289.066187 
L 651.55606 288.97554 
L 654.254661 288.854676 
L 657.72429 288.764029 
L 658.495319 288.703597 
L 666.976637 288.61295 
L 669.289723 288.522302 
L 671.988324 288.431655 
L 673.915896 288.371223 
L 685.095814 288.280576 
L 687.408901 288.189928 
L 693.577132 288.099281 
L 695.890218 288.008633 
L 700.901906 287.917986 
L 703.214992 287.827338 
L 706.299108 287.736691 
L 708.612194 287.646043 
L 724.032771 287.555396 
L 727.116886 287.404317 
L 735.983718 287.313669 
L 737.525776 287.283453 
L 747.163636 287.192806 
L 747.163636 287.192806 
" clip-path="url(#p89f42a22d7)" style="fill: none; stroke: #ff7f0e; stroke-width: 1.5; stroke-linecap: square"/>
   </g>
   <g id="patch_3">
    <path d="M 108 320.4 
L 108 43.2 
" style="fill: none; stroke: #a9a9a9; stroke-width: 0.8; stroke-linejoin: miter; stroke-linecap: square"/>
   </g>
   <g id="patch_4">
    <path d="M 777.6 320.4 
L 777.6 43.2 
" style="fill: none"/>
   </g>
   <g id="patch_5">
    <path d="M 108 320.4 
L 777.6 320.4 
" style="fill: none; stroke: #a9a9a9; stroke-width: 0.8; stroke-linejoin: miter; stroke-linecap: square"/>
   </g>
   <g id="patch_6">
    <path d="M 108 43.2 
L 777.6 43.2 
" style="fill: none"/>
   </g>
   <g id="text_20">
    <!-- get_subscribe history -->
    <g style="fill: #a9a9a9" transform="translate(378.6075 37.2) scale(0.12 -0.12)">
     <defs>
      <path id="DejaVuSans-67" d="M 2906 1791 
Q 2906 2416 2648 2759 
Q 2391 3103 1925 3103 
Q 1463 3103 1205 2759 
Q 947 2416 947 1791 
Q 947 1169 1205 825 
Q 1463 481 1925 481 
Q 2391 481 2648 825 
Q 2906 1169 2906 1791 
z
M 3481 434 
Q 3481 -459 3084 -895 
Q 2688 -1331 1869 -1331 
Q 1566 -1331 1297 -1286 
Q 1028 -1241 775 -1147 
L 775 -588 
Q 1028 -725 1275 -790 
Q 1522 -856 1778 -856 
Q 2344 -856 2625 -561 
Q 2906 -266 2906 331 
L 2906 616 
Q 2728 306 2450 153 
Q 2172 0 1784 0 
Q 1141 0 747 490 
Q 353 981 353 1791 
Q 353 2603 747 3093 
Q 1141 3584 1784 3584 
Q 2172 3584 2450 3431 
Q 2728 3278 2906 2969 
L 2906 3500 
L 3481 3500 
L 3481 434 
z
" transform="scale(0.015625)"/>
      <path id="DejaVuSans-65" d="M 3597 1894 
L 3597 1613 
L 953 1613 
Q 991 1019 1311 708 
Q 1631 397 2203 397 
Q 2534 397 2845 478 
Q 3156 559 3463 722 
L 3463 178 
Q 3153 47 2828 -22 
Q 2503 -91 2169 -91 
Q 1331 -91 842 396 
Q 353 884 353 1716 
Q 353 2575 817 3079 
Q 1281 3584 2069 3584 
Q 2775 3584 3186 3129 
Q 3597 2675 3597 1894 
z
M 3022 2063 
Q 3016 2534 2758 2815 
Q 2500 3097 2075 3097 
Q 1594 3097 1305 2825 
Q 1016 2553 972 2059 
L 3022 2063 
z
" transform="scale(0.015625)"/>
      <path id="DejaVuSans-74" d="M 1172 4494 
L 1172 3500 
L 2356 3500 
L 2356 3053 
L 1172 3053 
L 1172 1153 
Q 1172 725 1289 603 
Q 1406 481 1766 481 
L 2356 481 
L 2356 0 
L 1766 0 
Q 1100 0 847 248 
Q 594 497 594 1153 
L 594 3053 
L 172 3053 
L 172 3500 
L 594 3500 
L 594 4494 
L 1172 4494 
z
" transform="scale(0.015625)"/>
      <path id="DejaVuSans-5f" d="M 3263 -1063 
L 3263 -1509 
L -63 -1509 
L -63 -1063 
L 3263 -1063 
z
" transform="scale(0.015625)"/>
      <path id="DejaVuSans-73" d="M 2834 3397 
L 2834 2853 
Q 2591 2978 2328 3040 
Q 2066 3103 1784 3103 
Q 1356 3103 1142 2972 
Q 928 2841 928 2578 
Q 928 2378 1081 2264 
Q 1234 2150 1697 2047 
L 1894 2003 
Q 2506 1872 2764 1633 
Q 3022 1394 3022 966 
Q 3022 478 2636 193 
Q 2250 -91 1575 -91 
Q 1294 -91 989 -36 
Q 684 19 347 128 
L 347 722 
Q 666 556 975 473 
Q 1284 391 1588 391 
Q 1994 391 2212 530 
Q 2431 669 2431 922 
Q 2431 1156 2273 1281 
Q 2116 1406 1581 1522 
L 1381 1569 
Q 847 1681 609 1914 
Q 372 2147 372 2553 
Q 372 3047 722 3315 
Q 1072 3584 1716 3584 
Q 2034 3584 2315 3537 
Q 2597 3491 2834 3397 
z
" transform="scale(0.015625)"/>
      <path id="DejaVuSans-75" d="M 544 1381 
L 544 3500 
L 1119 3500 
L 1119 1403 
Q 1119 906 1312 657 
Q 1506 409 1894 409 
Q 2359 409 2629 706 
Q 2900 1003 2900 1516 
L 2900 3500 
L 3475 3500 
L 3475 0 
L 2900 0 
L 2900 538 
Q 2691 219 2414 64 
Q 2138 -91 1772 -91 
Q 1169 -91 856 284 
Q 544 659 544 1381 
z
M 1991 3584 
L 1991 3584 
z
" transform="scale(0.015625)"/>
      <path id="DejaVuSans-62" d="M 3116 1747 
Q 3116 2381 2855 2742 
Q 2594 3103 2138 3103 
Q 1681 3103 1420 2742 
Q 1159 2381 1159 1747 
Q 1159 1113 1420 752 
Q 1681 391 2138 391 
Q 2594 391 2855 752 
Q 3116 1113 3116 1747 
z
M 1159 2969 
Q 1341 3281 1617 3432 
Q 1894 3584 2278 3584 
Q 2916 3584 3314 3078 
Q 3713 2572 3713 1747 
Q 3713 922 3314 415 
Q 2916 -91 2278 -91 
Q 1894 -91 1617 61 
Q 1341 213 1159 525 
L 1159 0 
L 581 0 
L 581 4863 
L 1159 4863 
L 1159 2969 
z
" transform="scale(0.015625)"/>
      <path id="DejaVuSans-63" d="M 3122 3366 
L 3122 2828 
Q 2878 2963 2633 3030 
Q 2388 3097 2138 3097 
Q 1578 3097 1268 2742 
Q 959 2388 959 1747 
Q 959 1106 1268 751 
Q 1578 397 2138 397 
Q 2388 397 2633 464 
Q 2878 531 3122 666 
L 3122 134 
Q 2881 22 2623 -34 
Q 2366 -91 2075 -91 
Q 1284 -91 818 406 
Q 353 903 353 1747 
Q 353 2603 823 3093 
Q 1294 3584 2113 3584 
Q 2378 3584 2631 3529 
Q 2884 3475 3122 3366 
z
" transform="scale(0.015625)"/>
      <path id="DejaVuSans-72" d="M 2631 2963 
Q 2534 3019 2420 3045 
Q 2306 3072 2169 3072 
Q 1681 3072 1420 2755 
Q 1159 2438 1159 1844 
L 1159 0 
L 581 0 
L 581 3500 
L 1159 3500 
L 1159 2956 
Q 1341 3275 1631 3429 
Q 1922 3584 2338 3584 
Q 2397 3584 2469 3576 
Q 2541 3569 2628 3553 
L 2631 2963 
z
" transform="scale(0.015625)"/>
      <path id="DejaVuSans-69" d="M 603 3500 
L 1178 3500 
L 1178 0 
L 603 0 
L 603 3500 
z
M 603 4863 
L 1178 4863 
L 1178 4134 
L 603 4134 
L 603 4863 
z
" transform="scale(0.015625)"/>
      <path id="DejaVuSans-20" transform="scale(0.015625)"/>
      <path id="DejaVuSans-68" d="M 3513 2113 
L 3513 0 
L 2938 0 
L 2938 2094 
Q 2938 2591 2744 2837 
Q 2550 3084 2163 3084 
Q 1697 3084 1428 2787 
Q 1159 2491 1159 1978 
L 1159 0 
L 581 0 
L 581 4863 
L 1159 4863 
L 1159 2956 
Q 1366 3272 1645 3428 
Q 1925 3584 2291 3584 
Q 2894 3584 3203 3211 
Q 3513 2838 3513 2113 
z
" transform="scale(0.015625)"/>
      <path id="DejaVuSans-6f" d="M 1959 3097 
Q 1497 3097 1228 2736 
Q 959 2375 959 1747 
Q 959 1119 1226 758 
Q 1494 397 1959 397 
Q 2419 397 2687 759 
Q 2956 1122 2956 1747 
Q 2956 2369 2687 2733 
Q 2419 3097 1959 3097 
z
M 1959 3584 
Q 2709 3584 3137 3096 
Q 3566 2609 3566 1747 
Q 3566 888 3137 398 
Q 2709 -91 1959 -91 
Q 1206 -91 779 398 
Q 353 888 353 1747 
Q 353 2609 779 3096 
Q 1206 3584 1959 3584 
z
" transform="scale(0.015625)"/>
      <path id="DejaVuSans-79" d="M 2059 -325 
Q 1816 -950 1584 -1140 
Q 1353 -1331 966 -1331 
L 506 -1331 
L 506 -850 
L 844 -850 
Q 1081 -850 1212 -737 
Q 1344 -625 1503 -206 
L 1606 56 
L 191 3500 
L 800 3500 
L 1894 763 
L 2988 3500 
L 3597 3500 
L 2059 -325 
z
" transform="scale(0.015625)"/>
     </defs>
     <use xlink:href="#DejaVuSans-67"/>
     <use xlink:href="#DejaVuSans-65" transform="translate(63.476562 0)"/>
     <use xlink:href="#DejaVuSans-74" transform="translate(125 0)"/>
     <use xlink:href="#DejaVuSans-5f" transform="translate(164.208984 0)"/>
     <use xlink:href="#DejaVuSans-73" transform="translate(214.208984 0)"/>
     <use xlink:href="#DejaVuSans-75" transform="translate(266.308594 0)"/>
     <use xlink:href="#DejaVuSans-62" transform="translate(329.6875 0)"/>
     <use xlink:href="#DejaVuSans-73" transform="translate(393.164062 0)"/>
     <use xlink:href="#DejaVuSans-63" transform="translate(445.263672 0)"/>
     <use xlink:href="#DejaVuSans-72" transform="translate(500.244141 0)"/>
     <use xlink:href="#DejaVuSans-69" transform="translate(541.357422 0)"/>
     <use xlink:href="#DejaVuSans-62" transform="translate(569.140625 0)"/>
     <use xlink:href="#DejaVuSans-65" transform="translate(632.617188 0)"/>
     <use xlink:href="#DejaVuSans-20" transform="translate(694.140625 0)"/>
     <use xlink:href="#DejaVuSans-68" transform="translate(725.927734 0)"/>
     <use xlink:href="#DejaVuSans-69" transform="translate(789.306641 0)"/>
     <use xlink:href="#DejaVuSans-73" transform="translate(817.089844 0)"/>
     <use xlink:href="#DejaVuSans-74" transform="translate(869.189453 0)"/>
     <use xlink:href="#DejaVuSans-6f" transform="translate(908.398438 0)"/>
     <use xlink:href="#DejaVuSans-72" transform="translate(969.580078 0)"/>
     <use xlink:href="#DejaVuSans-79" transform="translate(1010.693359 0)"/>
    </g>
   </g>
   <g id="legend_1">
    <g id="line2d_41">
     <path d="M 815.08 328.498438 
L 825.08 328.498438 
L 835.08 328.498438 
" style="fill: none; stroke: #1f77b4; stroke-width: 1.5; stroke-linecap: square"/>
    </g>
    <g id="text_21">
     <!-- star -->
     <g style="fill: #a9a9a9" transform="translate(843.08 331.998438) scale(0.1 -0.1)">
      <defs>
       <path id="DejaVuSans-61" d="M 2194 1759 
Q 1497 1759 1228 1600 
Q 959 1441 959 1056 
Q 959 750 1161 570 
Q 1363 391 1709 391 
Q 2188 391 2477 730 
Q 2766 1069 2766 1631 
L 2766 1759 
L 2194 1759 
z
M 3341 1997 
L 3341 0 
L 2766 0 
L 2766 531 
Q 2569 213 2275 61 
Q 1981 -91 1556 -91 
Q 1019 -91 701 211 
Q 384 513 384 1019 
Q 384 1609 779 1909 
Q 1175 2209 1959 2209 
L 2766 2209 
L 2766 2266 
Q 2766 2663 2505 2880 
Q 2244 3097 1772 3097 
Q 1472 3097 1187 3025 
Q 903 2953 641 2809 
L 641 3341 
Q 956 3463 1253 3523 
Q 1550 3584 1831 3584 
Q 2591 3584 2966 3190 
Q 3341 2797 3341 1997 
z
" transform="scale(0.015625)"/>
      </defs>
      <use xlink:href="#DejaVuSans-73"/>
      <use xlink:href="#DejaVuSans-74" transform="translate(52.099609 0)"/>
      <use xlink:href="#DejaVuSans-61" transform="translate(91.308594 0)"/>
      <use xlink:href="#DejaVuSans-72" transform="translate(152.587891 0)"/>
     </g>
    </g>
    <g id="line2d_42">
     <path d="M 815.08 343.176562 
L 825.08 343.176562 
L 835.08 343.176562 
" style="fill: none; stroke: #ff7f0e; stroke-width: 1.5; stroke-linecap: square"/>
    </g>
    <g id="text_22">
     <!-- fork -->
     <g style="fill: #a9a9a9" transform="translate(843.08 346.676562) scale(0.1 -0.1)">
      <defs>
       <path id="DejaVuSans-66" d="M 2375 4863 
L 2375 4384 
L 1825 4384 
Q 1516 4384 1395 4259 
Q 1275 4134 1275 3809 
L 1275 3500 
L 2222 3500 
L 2222 3053 
L 1275 3053 
L 1275 0 
L 697 0 
L 697 3053 
L 147 3053 
L 147 3500 
L 697 3500 
L 697 3744 
Q 697 4328 969 4595 
Q 1241 4863 1831 4863 
L 2375 4863 
z
" transform="scale(0.015625)"/>
       <path id="DejaVuSans-6b" d="M 581 4863 
L 1159 4863 
L 1159 1991 
L 2875 3500 
L 3609 3500 
L 1753 1863 
L 3688 0 
L 2938 0 
L 1159 1709 
L 1159 0 
L 581 0 
L 581 4863 
z
" transform="scale(0.015625)"/>
      </defs>
      <use xlink:href="#DejaVuSans-66"/>
      <use xlink:href="#DejaVuSans-6f" transform="translate(35.205078 0)"/>
      <use xlink:href="#DejaVuSans-72" transform="translate(96.386719 0)"/>
      <use xlink:href="#DejaVuSans-6b" transform="translate(137.5 0)"/>
     </g>
    </g>
   </g>
  </g>
 </g>
 <defs>
  <clipPath id="p89f42a22d7">
   <rect x="108" y="43.2" width="669.6" height="277.2"/>
  </clipPath>
 </defs>
</svg>
