<?xml version="1.0" encoding="utf-8" standalone="no"?>
<!DOCTYPE svg PUBLIC "-//W3C//DTD SVG 1.1//EN"
  "http://www.w3.org/Graphics/SVG/1.1/DTD/svg11.dtd">
<svg xmlns:xlink="http://www.w3.org/1999/xlink" width="864pt" height="360pt" viewBox="0 0 864 360" xmlns="http://www.w3.org/2000/svg" version="1.1">
 <metadata>
  <rdf:RDF xmlns:dc="http://purl.org/dc/elements/1.1/" xmlns:cc="http://creativecommons.org/ns#" xmlns:rdf="http://www.w3.org/1999/02/22-rdf-syntax-ns#">
   <cc:Work>
    <dc:type rdf:resource="http://purl.org/dc/dcmitype/StillImage"/>
    <dc:date>2025-07-23T20:07:19.479573</dc:date>
    <dc:format>image/svg+xml</dc:format>
    <dc:creator>
     <cc:Agent>
      <dc:title>Matplotlib v3.10.3, https://matplotlib.org/</dc:title>
     </cc:Agent>
    </dc:creator>
   </cc:Work>
  </rdf:RDF>
 </metadata>
 <defs>
  <style type="text/css">*{stroke-linejoin: round; stroke-linecap: butt}</style>
 </defs>
 <g id="figure_1">
  <g id="patch_1">
   <path d="M 0 360 
L 864 360 
L 864 0 
L 0 0 
L 0 360 
z
" style="fill: none; opacity: 0"/>
  </g>
  <g id="axes_1">
   <g id="patch_2">
    <path d="M 108 320.4 
L 777.6 320.4 
L 777.6 43.2 
L 108 43.2 
L 108 320.4 
z
" style="fill: none; opacity: 0"/>
   </g>
   <g id="matplotlib.axis_1">
    <g id="xtick_1">
     <g id="line2d_1">
      <path d="M 128.846824 320.4 
L 128.846824 43.2 
" clip-path="url(#peda957a9c2)" style="fill: none; stroke-dasharray: 5.12,1.28,0.8,1.28; stroke-dashoffset: 0; stroke: #b0b0b0; stroke-width: 0.8"/>
     </g>
     <g id="line2d_2">
      <defs>
       <path id="mdc597da9e7" d="M 0 0 
L 0 3.5 
" style="stroke: #a9a9a9; stroke-width: 0.8"/>
      </defs>
      <g>
       <use xlink:href="#mdc597da9e7" x="128.846824" y="320.4" style="fill: #a9a9a9; stroke: #a9a9a9; stroke-width: 0.8"/>
      </g>
     </g>
     <g id="text_1">
      <!-- 2021-07 -->
      <g style="fill: #a9a9a9" transform="translate(107.955418 334.998438) scale(0.1 -0.1)">
       <defs>
        <path id="DejaVuSans-32" d="M 1228 531 
L 3431 531 
L 3431 0 
L 469 0 
L 469 531 
Q 828 903 1448 1529 
Q 2069 2156 2228 2338 
Q 2531 2678 2651 2914 
Q 2772 3150 2772 3378 
Q 2772 3750 2511 3984 
Q 2250 4219 1831 4219 
Q 1534 4219 1204 4116 
Q 875 4013 500 3803 
L 500 4441 
Q 881 4594 1212 4672 
Q 1544 4750 1819 4750 
Q 2544 4750 2975 4387 
Q 3406 4025 3406 3419 
Q 3406 3131 3298 2873 
Q 3191 2616 2906 2266 
Q 2828 2175 2409 1742 
Q 1991 1309 1228 531 
z
" transform="scale(0.015625)"/>
        <path id="DejaVuSans-30" d="M 2034 4250 
Q 1547 4250 1301 3770 
Q 1056 3291 1056 2328 
Q 1056 1369 1301 889 
Q 1547 409 2034 409 
Q 2525 409 2770 889 
Q 3016 1369 3016 2328 
Q 3016 3291 2770 3770 
Q 2525 4250 2034 4250 
z
M 2034 4750 
Q 2819 4750 3233 4129 
Q 3647 3509 3647 2328 
Q 3647 1150 3233 529 
Q 2819 -91 2034 -91 
Q 1250 -91 836 529 
Q 422 1150 422 2328 
Q 422 3509 836 4129 
Q 1250 4750 2034 4750 
z
" transform="scale(0.015625)"/>
        <path id="DejaVuSans-31" d="M 794 531 
L 1825 531 
L 1825 4091 
L 703 3866 
L 703 4441 
L 1819 4666 
L 2450 4666 
L 2450 531 
L 3481 531 
L 3481 0 
L 794 0 
L 794 531 
z
" transform="scale(0.015625)"/>
        <path id="DejaVuSans-2d" d="M 313 2009 
L 1997 2009 
L 1997 1497 
L 313 1497 
L 313 2009 
z
" transform="scale(0.015625)"/>
        <path id="DejaVuSans-37" d="M 525 4666 
L 3525 4666 
L 3525 4397 
L 1831 0 
L 1172 0 
L 2766 4134 
L 525 4134 
L 525 4666 
z
" transform="scale(0.015625)"/>
       </defs>
       <use xlink:href="#DejaVuSans-32"/>
       <use xlink:href="#DejaVuSans-30" transform="translate(63.623047 0)"/>
       <use xlink:href="#DejaVuSans-32" transform="translate(127.246094 0)"/>
       <use xlink:href="#DejaVuSans-31" transform="translate(190.869141 0)"/>
       <use xlink:href="#DejaVuSans-2d" transform="translate(254.492188 0)"/>
       <use xlink:href="#DejaVuSans-30" transform="translate(290.576172 0)"/>
       <use xlink:href="#DejaVuSans-37" transform="translate(354.199219 0)"/>
      </g>
     </g>
    </g>
    <g id="xtick_2">
     <g id="line2d_3">
      <path d="M 205.563138 320.4 
L 205.563138 43.2 
" clip-path="url(#peda957a9c2)" style="fill: none; stroke-dasharray: 5.12,1.28,0.8,1.28; stroke-dashoffset: 0; stroke: #b0b0b0; stroke-width: 0.8"/>
     </g>
     <g id="line2d_4">
      <g>
       <use xlink:href="#mdc597da9e7" x="205.563138" y="320.4" style="fill: #a9a9a9; stroke: #a9a9a9; stroke-width: 0.8"/>
      </g>
     </g>
     <g id="text_2">
      <!-- 2022-01 -->
      <g style="fill: #a9a9a9" transform="translate(184.671732 334.998438) scale(0.1 -0.1)">
       <use xlink:href="#DejaVuSans-32"/>
       <use xlink:href="#DejaVuSans-30" transform="translate(63.623047 0)"/>
       <use xlink:href="#DejaVuSans-32" transform="translate(127.246094 0)"/>
       <use xlink:href="#DejaVuSans-32" transform="translate(190.869141 0)"/>
       <use xlink:href="#DejaVuSans-2d" transform="translate(254.492188 0)"/>
       <use xlink:href="#DejaVuSans-30" transform="translate(290.576172 0)"/>
       <use xlink:href="#DejaVuSans-31" transform="translate(354.199219 0)"/>
      </g>
     </g>
    </g>
    <g id="xtick_3">
     <g id="line2d_5">
      <path d="M 281.028643 320.4 
L 281.028643 43.2 
" clip-path="url(#peda957a9c2)" style="fill: none; stroke-dasharray: 5.12,1.28,0.8,1.28; stroke-dashoffset: 0; stroke: #b0b0b0; stroke-width: 0.8"/>
     </g>
     <g id="line2d_6">
      <g>
       <use xlink:href="#mdc597da9e7" x="281.028643" y="320.4" style="fill: #a9a9a9; stroke: #a9a9a9; stroke-width: 0.8"/>
      </g>
     </g>
     <g id="text_3">
      <!-- 2022-07 -->
      <g style="fill: #a9a9a9" transform="translate(260.137236 334.998438) scale(0.1 -0.1)">
       <use xlink:href="#DejaVuSans-32"/>
       <use xlink:href="#DejaVuSans-30" transform="translate(63.623047 0)"/>
       <use xlink:href="#DejaVuSans-32" transform="translate(127.246094 0)"/>
       <use xlink:href="#DejaVuSans-32" transform="translate(190.869141 0)"/>
       <use xlink:href="#DejaVuSans-2d" transform="translate(254.492188 0)"/>
       <use xlink:href="#DejaVuSans-30" transform="translate(290.576172 0)"/>
       <use xlink:href="#DejaVuSans-37" transform="translate(354.199219 0)"/>
      </g>
     </g>
    </g>
    <g id="xtick_4">
     <g id="line2d_7">
      <path d="M 357.744956 320.4 
L 357.744956 43.2 
" clip-path="url(#peda957a9c2)" style="fill: none; stroke-dasharray: 5.12,1.28,0.8,1.28; stroke-dashoffset: 0; stroke: #b0b0b0; stroke-width: 0.8"/>
     </g>
     <g id="line2d_8">
      <g>
       <use xlink:href="#mdc597da9e7" x="357.744956" y="320.4" style="fill: #a9a9a9; stroke: #a9a9a9; stroke-width: 0.8"/>
      </g>
     </g>
     <g id="text_4">
      <!-- 2023-01 -->
      <g style="fill: #a9a9a9" transform="translate(336.85355 334.998438) scale(0.1 -0.1)">
       <defs>
        <path id="DejaVuSans-33" d="M 2597 2516 
Q 3050 2419 3304 2112 
Q 3559 1806 3559 1356 
Q 3559 666 3084 287 
Q 2609 -91 1734 -91 
Q 1441 -91 1130 -33 
Q 819 25 488 141 
L 488 750 
Q 750 597 1062 519 
Q 1375 441 1716 441 
Q 2309 441 2620 675 
Q 2931 909 2931 1356 
Q 2931 1769 2642 2001 
Q 2353 2234 1838 2234 
L 1294 2234 
L 1294 2753 
L 1863 2753 
Q 2328 2753 2575 2939 
Q 2822 3125 2822 3475 
Q 2822 3834 2567 4026 
Q 2313 4219 1838 4219 
Q 1578 4219 1281 4162 
Q 984 4106 628 3988 
L 628 4550 
Q 988 4650 1302 4700 
Q 1616 4750 1894 4750 
Q 2613 4750 3031 4423 
Q 3450 4097 3450 3541 
Q 3450 3153 3228 2886 
Q 3006 2619 2597 2516 
z
" transform="scale(0.015625)"/>
       </defs>
       <use xlink:href="#DejaVuSans-32"/>
       <use xlink:href="#DejaVuSans-30" transform="translate(63.623047 0)"/>
       <use xlink:href="#DejaVuSans-32" transform="translate(127.246094 0)"/>
       <use xlink:href="#DejaVuSans-33" transform="translate(190.869141 0)"/>
       <use xlink:href="#DejaVuSans-2d" transform="translate(254.492188 0)"/>
       <use xlink:href="#DejaVuSans-30" transform="translate(290.576172 0)"/>
       <use xlink:href="#DejaVuSans-31" transform="translate(354.199219 0)"/>
      </g>
     </g>
    </g>
    <g id="xtick_5">
     <g id="line2d_9">
      <path d="M 433.210461 320.4 
L 433.210461 43.2 
" clip-path="url(#peda957a9c2)" style="fill: none; stroke-dasharray: 5.12,1.28,0.8,1.28; stroke-dashoffset: 0; stroke: #b0b0b0; stroke-width: 0.8"/>
     </g>
     <g id="line2d_10">
      <g>
       <use xlink:href="#mdc597da9e7" x="433.210461" y="320.4" style="fill: #a9a9a9; stroke: #a9a9a9; stroke-width: 0.8"/>
      </g>
     </g>
     <g id="text_5">
      <!-- 2023-07 -->
      <g style="fill: #a9a9a9" transform="translate(412.319055 334.998438) scale(0.1 -0.1)">
       <use xlink:href="#DejaVuSans-32"/>
       <use xlink:href="#DejaVuSans-30" transform="translate(63.623047 0)"/>
       <use xlink:href="#DejaVuSans-32" transform="translate(127.246094 0)"/>
       <use xlink:href="#DejaVuSans-33" transform="translate(190.869141 0)"/>
       <use xlink:href="#DejaVuSans-2d" transform="translate(254.492188 0)"/>
       <use xlink:href="#DejaVuSans-30" transform="translate(290.576172 0)"/>
       <use xlink:href="#DejaVuSans-37" transform="translate(354.199219 0)"/>
      </g>
     </g>
    </g>
    <g id="xtick_6">
     <g id="line2d_11">
      <path d="M 509.926775 320.4 
L 509.926775 43.2 
" clip-path="url(#peda957a9c2)" style="fill: none; stroke-dasharray: 5.12,1.28,0.8,1.28; stroke-dashoffset: 0; stroke: #b0b0b0; stroke-width: 0.8"/>
     </g>
     <g id="line2d_12">
      <g>
       <use xlink:href="#mdc597da9e7" x="509.926775" y="320.4" style="fill: #a9a9a9; stroke: #a9a9a9; stroke-width: 0.8"/>
      </g>
     </g>
     <g id="text_6">
      <!-- 2024-01 -->
      <g style="fill: #a9a9a9" transform="translate(489.035368 334.998438) scale(0.1 -0.1)">
       <defs>
        <path id="DejaVuSans-34" d="M 2419 4116 
L 825 1625 
L 2419 1625 
L 2419 4116 
z
M 2253 4666 
L 3047 4666 
L 3047 1625 
L 3713 1625 
L 3713 1100 
L 3047 1100 
L 3047 0 
L 2419 0 
L 2419 1100 
L 313 1100 
L 313 1709 
L 2253 4666 
z
" transform="scale(0.015625)"/>
       </defs>
       <use xlink:href="#DejaVuSans-32"/>
       <use xlink:href="#DejaVuSans-30" transform="translate(63.623047 0)"/>
       <use xlink:href="#DejaVuSans-32" transform="translate(127.246094 0)"/>
       <use xlink:href="#DejaVuSans-34" transform="translate(190.869141 0)"/>
       <use xlink:href="#DejaVuSans-2d" transform="translate(254.492188 0)"/>
       <use xlink:href="#DejaVuSans-30" transform="translate(290.576172 0)"/>
       <use xlink:href="#DejaVuSans-31" transform="translate(354.199219 0)"/>
      </g>
     </g>
    </g>
    <g id="xtick_7">
     <g id="line2d_13">
      <path d="M 585.809215 320.4 
L 585.809215 43.2 
" clip-path="url(#peda957a9c2)" style="fill: none; stroke-dasharray: 5.12,1.28,0.8,1.28; stroke-dashoffset: 0; stroke: #b0b0b0; stroke-width: 0.8"/>
     </g>
     <g id="line2d_14">
      <g>
       <use xlink:href="#mdc597da9e7" x="585.809215" y="320.4" style="fill: #a9a9a9; stroke: #a9a9a9; stroke-width: 0.8"/>
      </g>
     </g>
     <g id="text_7">
      <!-- 2024-07 -->
      <g style="fill: #a9a9a9" transform="translate(564.917809 334.998438) scale(0.1 -0.1)">
       <use xlink:href="#DejaVuSans-32"/>
       <use xlink:href="#DejaVuSans-30" transform="translate(63.623047 0)"/>
       <use xlink:href="#DejaVuSans-32" transform="translate(127.246094 0)"/>
       <use xlink:href="#DejaVuSans-34" transform="translate(190.869141 0)"/>
       <use xlink:href="#DejaVuSans-2d" transform="translate(254.492188 0)"/>
       <use xlink:href="#DejaVuSans-30" transform="translate(290.576172 0)"/>
       <use xlink:href="#DejaVuSans-37" transform="translate(354.199219 0)"/>
      </g>
     </g>
    </g>
    <g id="xtick_8">
     <g id="line2d_15">
      <path d="M 662.525529 320.4 
L 662.525529 43.2 
" clip-path="url(#peda957a9c2)" style="fill: none; stroke-dasharray: 5.12,1.28,0.8,1.28; stroke-dashoffset: 0; stroke: #b0b0b0; stroke-width: 0.8"/>
     </g>
     <g id="line2d_16">
      <g>
       <use xlink:href="#mdc597da9e7" x="662.525529" y="320.4" style="fill: #a9a9a9; stroke: #a9a9a9; stroke-width: 0.8"/>
      </g>
     </g>
     <g id="text_8">
      <!-- 2025-01 -->
      <g style="fill: #a9a9a9" transform="translate(641.634123 334.998438) scale(0.1 -0.1)">
       <defs>
        <path id="DejaVuSans-35" d="M 691 4666 
L 3169 4666 
L 3169 4134 
L 1269 4134 
L 1269 2991 
Q 1406 3038 1543 3061 
Q 1681 3084 1819 3084 
Q 2600 3084 3056 2656 
Q 3513 2228 3513 1497 
Q 3513 744 3044 326 
Q 2575 -91 1722 -91 
Q 1428 -91 1123 -41 
Q 819 9 494 109 
L 494 744 
Q 775 591 1075 516 
Q 1375 441 1709 441 
Q 2250 441 2565 725 
Q 2881 1009 2881 1497 
Q 2881 1984 2565 2268 
Q 2250 2553 1709 2553 
Q 1456 2553 1204 2497 
Q 953 2441 691 2322 
L 691 4666 
z
" transform="scale(0.015625)"/>
       </defs>
       <use xlink:href="#DejaVuSans-32"/>
       <use xlink:href="#DejaVuSans-30" transform="translate(63.623047 0)"/>
       <use xlink:href="#DejaVuSans-32" transform="translate(127.246094 0)"/>
       <use xlink:href="#DejaVuSans-35" transform="translate(190.869141 0)"/>
       <use xlink:href="#DejaVuSans-2d" transform="translate(254.492188 0)"/>
       <use xlink:href="#DejaVuSans-30" transform="translate(290.576172 0)"/>
       <use xlink:href="#DejaVuSans-31" transform="translate(354.199219 0)"/>
      </g>
     </g>
    </g>
    <g id="xtick_9">
     <g id="line2d_17">
      <path d="M 737.991034 320.4 
L 737.991034 43.2 
" clip-path="url(#peda957a9c2)" style="fill: none; stroke-dasharray: 5.12,1.28,0.8,1.28; stroke-dashoffset: 0; stroke: #b0b0b0; stroke-width: 0.8"/>
     </g>
     <g id="line2d_18">
      <g>
       <use xlink:href="#mdc597da9e7" x="737.991034" y="320.4" style="fill: #a9a9a9; stroke: #a9a9a9; stroke-width: 0.8"/>
      </g>
     </g>
     <g id="text_9">
      <!-- 2025-07 -->
      <g style="fill: #a9a9a9" transform="translate(717.099627 334.998438) scale(0.1 -0.1)">
       <use xlink:href="#DejaVuSans-32"/>
       <use xlink:href="#DejaVuSans-30" transform="translate(63.623047 0)"/>
       <use xlink:href="#DejaVuSans-32" transform="translate(127.246094 0)"/>
       <use xlink:href="#DejaVuSans-35" transform="translate(190.869141 0)"/>
       <use xlink:href="#DejaVuSans-2d" transform="translate(254.492188 0)"/>
       <use xlink:href="#DejaVuSans-30" transform="translate(290.576172 0)"/>
       <use xlink:href="#DejaVuSans-37" transform="translate(354.199219 0)"/>
      </g>
     </g>
    </g>
   </g>
   <g id="matplotlib.axis_2">
    <g id="ytick_1">
     <g id="line2d_19">
      <path d="M 108 307.831887 
L 777.6 307.831887 
" clip-path="url(#peda957a9c2)" style="fill: none; stroke-dasharray: 5.12,1.28,0.8,1.28; stroke-dashoffset: 0; stroke: #b0b0b0; stroke-width: 0.8"/>
     </g>
     <g id="line2d_20">
      <defs>
       <path id="mf27271163b" d="M 0 0 
L -3.5 0 
" style="stroke: #a9a9a9; stroke-width: 0.8"/>
      </defs>
      <g>
       <use xlink:href="#mf27271163b" x="108" y="307.831887" style="fill: #a9a9a9; stroke: #a9a9a9; stroke-width: 0.8"/>
      </g>
     </g>
     <g id="text_10">
      <!-- 0 -->
      <g style="fill: #a9a9a9" transform="translate(94.6375 311.631105) scale(0.1 -0.1)">
       <use xlink:href="#DejaVuSans-30"/>
      </g>
     </g>
    </g>
    <g id="ytick_2">
     <g id="line2d_21">
      <path d="M 108 275.945261 
L 777.6 275.945261 
" clip-path="url(#peda957a9c2)" style="fill: none; stroke-dasharray: 5.12,1.28,0.8,1.28; stroke-dashoffset: 0; stroke: #b0b0b0; stroke-width: 0.8"/>
     </g>
     <g id="line2d_22">
      <g>
       <use xlink:href="#mf27271163b" x="108" y="275.945261" style="fill: #a9a9a9; stroke: #a9a9a9; stroke-width: 0.8"/>
      </g>
     </g>
     <g id="text_11">
      <!-- 1000 -->
      <g style="fill: #a9a9a9" transform="translate(75.55 279.74448) scale(0.1 -0.1)">
       <use xlink:href="#DejaVuSans-31"/>
       <use xlink:href="#DejaVuSans-30" transform="translate(63.623047 0)"/>
       <use xlink:href="#DejaVuSans-30" transform="translate(127.246094 0)"/>
       <use xlink:href="#DejaVuSans-30" transform="translate(190.869141 0)"/>
      </g>
     </g>
    </g>
    <g id="ytick_3">
     <g id="line2d_23">
      <path d="M 108 244.058636 
L 777.6 244.058636 
" clip-path="url(#peda957a9c2)" style="fill: none; stroke-dasharray: 5.12,1.28,0.8,1.28; stroke-dashoffset: 0; stroke: #b0b0b0; stroke-width: 0.8"/>
     </g>
     <g id="line2d_24">
      <g>
       <use xlink:href="#mf27271163b" x="108" y="244.058636" style="fill: #a9a9a9; stroke: #a9a9a9; stroke-width: 0.8"/>
      </g>
     </g>
     <g id="text_12">
      <!-- 2000 -->
      <g style="fill: #a9a9a9" transform="translate(75.55 247.857855) scale(0.1 -0.1)">
       <use xlink:href="#DejaVuSans-32"/>
       <use xlink:href="#DejaVuSans-30" transform="translate(63.623047 0)"/>
       <use xlink:href="#DejaVuSans-30" transform="translate(127.246094 0)"/>
       <use xlink:href="#DejaVuSans-30" transform="translate(190.869141 0)"/>
      </g>
     </g>
    </g>
    <g id="ytick_4">
     <g id="line2d_25">
      <path d="M 108 212.172011 
L 777.6 212.172011 
" clip-path="url(#peda957a9c2)" style="fill: none; stroke-dasharray: 5.12,1.28,0.8,1.28; stroke-dashoffset: 0; stroke: #b0b0b0; stroke-width: 0.8"/>
     </g>
     <g id="line2d_26">
      <g>
       <use xlink:href="#mf27271163b" x="108" y="212.172011" style="fill: #a9a9a9; stroke: #a9a9a9; stroke-width: 0.8"/>
      </g>
     </g>
     <g id="text_13">
      <!-- 3000 -->
      <g style="fill: #a9a9a9" transform="translate(75.55 215.971229) scale(0.1 -0.1)">
       <use xlink:href="#DejaVuSans-33"/>
       <use xlink:href="#DejaVuSans-30" transform="translate(63.623047 0)"/>
       <use xlink:href="#DejaVuSans-30" transform="translate(127.246094 0)"/>
       <use xlink:href="#DejaVuSans-30" transform="translate(190.869141 0)"/>
      </g>
     </g>
    </g>
    <g id="ytick_5">
     <g id="line2d_27">
      <path d="M 108 180.285385 
L 777.6 180.285385 
" clip-path="url(#peda957a9c2)" style="fill: none; stroke-dasharray: 5.12,1.28,0.8,1.28; stroke-dashoffset: 0; stroke: #b0b0b0; stroke-width: 0.8"/>
     </g>
     <g id="line2d_28">
      <g>
       <use xlink:href="#mf27271163b" x="108" y="180.285385" style="fill: #a9a9a9; stroke: #a9a9a9; stroke-width: 0.8"/>
      </g>
     </g>
     <g id="text_14">
      <!-- 4000 -->
      <g style="fill: #a9a9a9" transform="translate(75.55 184.084604) scale(0.1 -0.1)">
       <use xlink:href="#DejaVuSans-34"/>
       <use xlink:href="#DejaVuSans-30" transform="translate(63.623047 0)"/>
       <use xlink:href="#DejaVuSans-30" transform="translate(127.246094 0)"/>
       <use xlink:href="#DejaVuSans-30" transform="translate(190.869141 0)"/>
      </g>
     </g>
    </g>
    <g id="ytick_6">
     <g id="line2d_29">
      <path d="M 108 148.39876 
L 777.6 148.39876 
" clip-path="url(#peda957a9c2)" style="fill: none; stroke-dasharray: 5.12,1.28,0.8,1.28; stroke-dashoffset: 0; stroke: #b0b0b0; stroke-width: 0.8"/>
     </g>
     <g id="line2d_30">
      <g>
       <use xlink:href="#mf27271163b" x="108" y="148.39876" style="fill: #a9a9a9; stroke: #a9a9a9; stroke-width: 0.8"/>
      </g>
     </g>
     <g id="text_15">
      <!-- 5000 -->
      <g style="fill: #a9a9a9" transform="translate(75.55 152.197979) scale(0.1 -0.1)">
       <use xlink:href="#DejaVuSans-35"/>
       <use xlink:href="#DejaVuSans-30" transform="translate(63.623047 0)"/>
       <use xlink:href="#DejaVuSans-30" transform="translate(127.246094 0)"/>
       <use xlink:href="#DejaVuSans-30" transform="translate(190.869141 0)"/>
      </g>
     </g>
    </g>
    <g id="ytick_7">
     <g id="line2d_31">
      <path d="M 108 116.512135 
L 777.6 116.512135 
" clip-path="url(#peda957a9c2)" style="fill: none; stroke-dasharray: 5.12,1.28,0.8,1.28; stroke-dashoffset: 0; stroke: #b0b0b0; stroke-width: 0.8"/>
     </g>
     <g id="line2d_32">
      <g>
       <use xlink:href="#mf27271163b" x="108" y="116.512135" style="fill: #a9a9a9; stroke: #a9a9a9; stroke-width: 0.8"/>
      </g>
     </g>
     <g id="text_16">
      <!-- 6000 -->
      <g style="fill: #a9a9a9" transform="translate(75.55 120.311353) scale(0.1 -0.1)">
       <defs>
        <path id="DejaVuSans-36" d="M 2113 2584 
Q 1688 2584 1439 2293 
Q 1191 2003 1191 1497 
Q 1191 994 1439 701 
Q 1688 409 2113 409 
Q 2538 409 2786 701 
Q 3034 994 3034 1497 
Q 3034 2003 2786 2293 
Q 2538 2584 2113 2584 
z
M 3366 4563 
L 3366 3988 
Q 3128 4100 2886 4159 
Q 2644 4219 2406 4219 
Q 1781 4219 1451 3797 
Q 1122 3375 1075 2522 
Q 1259 2794 1537 2939 
Q 1816 3084 2150 3084 
Q 2853 3084 3261 2657 
Q 3669 2231 3669 1497 
Q 3669 778 3244 343 
Q 2819 -91 2113 -91 
Q 1303 -91 875 529 
Q 447 1150 447 2328 
Q 447 3434 972 4092 
Q 1497 4750 2381 4750 
Q 2619 4750 2861 4703 
Q 3103 4656 3366 4563 
z
" transform="scale(0.015625)"/>
       </defs>
       <use xlink:href="#DejaVuSans-36"/>
       <use xlink:href="#DejaVuSans-30" transform="translate(63.623047 0)"/>
       <use xlink:href="#DejaVuSans-30" transform="translate(127.246094 0)"/>
       <use xlink:href="#DejaVuSans-30" transform="translate(190.869141 0)"/>
      </g>
     </g>
    </g>
    <g id="ytick_8">
     <g id="line2d_33">
      <path d="M 108 84.625509 
L 777.6 84.625509 
" clip-path="url(#peda957a9c2)" style="fill: none; stroke-dasharray: 5.12,1.28,0.8,1.28; stroke-dashoffset: 0; stroke: #b0b0b0; stroke-width: 0.8"/>
     </g>
     <g id="line2d_34">
      <g>
       <use xlink:href="#mf27271163b" x="108" y="84.625509" style="fill: #a9a9a9; stroke: #a9a9a9; stroke-width: 0.8"/>
      </g>
     </g>
     <g id="text_17">
      <!-- 7000 -->
      <g style="fill: #a9a9a9" transform="translate(75.55 88.424728) scale(0.1 -0.1)">
       <use xlink:href="#DejaVuSans-37"/>
       <use xlink:href="#DejaVuSans-30" transform="translate(63.623047 0)"/>
       <use xlink:href="#DejaVuSans-30" transform="translate(127.246094 0)"/>
       <use xlink:href="#DejaVuSans-30" transform="translate(190.869141 0)"/>
      </g>
     </g>
    </g>
    <g id="ytick_9">
     <g id="line2d_35">
      <path d="M 108 52.738884 
L 777.6 52.738884 
" clip-path="url(#peda957a9c2)" style="fill: none; stroke-dasharray: 5.12,1.28,0.8,1.28; stroke-dashoffset: 0; stroke: #b0b0b0; stroke-width: 0.8"/>
     </g>
     <g id="line2d_36">
      <g>
       <use xlink:href="#mf27271163b" x="108" y="52.738884" style="fill: #a9a9a9; stroke: #a9a9a9; stroke-width: 0.8"/>
      </g>
     </g>
     <g id="text_18">
      <!-- 8000 -->
      <g style="fill: #a9a9a9" transform="translate(75.55 56.538103) scale(0.1 -0.1)">
       <defs>
        <path id="DejaVuSans-38" d="M 2034 2216 
Q 1584 2216 1326 1975 
Q 1069 1734 1069 1313 
Q 1069 891 1326 650 
Q 1584 409 2034 409 
Q 2484 409 2743 651 
Q 3003 894 3003 1313 
Q 3003 1734 2745 1975 
Q 2488 2216 2034 2216 
z
M 1403 2484 
Q 997 2584 770 2862 
Q 544 3141 544 3541 
Q 544 4100 942 4425 
Q 1341 4750 2034 4750 
Q 2731 4750 3128 4425 
Q 3525 4100 3525 3541 
Q 3525 3141 3298 2862 
Q 3072 2584 2669 2484 
Q 3125 2378 3379 2068 
Q 3634 1759 3634 1313 
Q 3634 634 3220 271 
Q 2806 -91 2034 -91 
Q 1263 -91 848 271 
Q 434 634 434 1313 
Q 434 1759 690 2068 
Q 947 2378 1403 2484 
z
M 1172 3481 
Q 1172 3119 1398 2916 
Q 1625 2713 2034 2713 
Q 2441 2713 2670 2916 
Q 2900 3119 2900 3481 
Q 2900 3844 2670 4047 
Q 2441 4250 2034 4250 
Q 1625 4250 1398 4047 
Q 1172 3844 1172 3481 
z
" transform="scale(0.015625)"/>
       </defs>
       <use xlink:href="#DejaVuSans-38"/>
       <use xlink:href="#DejaVuSans-30" transform="translate(63.623047 0)"/>
       <use xlink:href="#DejaVuSans-30" transform="translate(127.246094 0)"/>
       <use xlink:href="#DejaVuSans-30" transform="translate(190.869141 0)"/>
      </g>
     </g>
    </g>
   </g>
   <g id="line2d_37">
    <path d="M 138.436364 307.736227 
L 140.937983 307.51302 
L 141.354919 307.321701 
L 143.022665 307.098494 
L 144.690411 306.747741 
L 145.524284 306.620195 
L 147.608966 306.428875 
L 148.442839 306.078122 
L 148.859776 305.504163 
L 149.276712 305.217183 
L 149.693649 304.260585 
L 150.110585 304.196811 
L 150.527522 303.846058 
L 151.361395 303.399646 
L 153.029141 301.996634 
L 154.696887 301.135695 
L 155.947696 300.529849 
L 156.364633 299.828344 
L 157.198506 299.190611 
L 157.615442 298.999291 
L 161.784807 298.361559 
L 162.201743 298.170239 
L 165.120299 297.915146 
L 166.788045 297.50062 
L 170.123537 297.022321 
L 170.540473 296.799114 
L 170.95741 296.735341 
L 171.791283 296.448361 
L 174.709838 295.938175 
L 175.543711 295.683082 
L 179.296139 295.04535 
L 180.130012 294.85403 
L 180.963885 294.822143 
L 182.631631 294.407617 
L 183.048568 293.801771 
L 184.299377 293.291585 
L 185.550187 292.940833 
L 185.967123 292.717626 
L 186.800996 292.558193 
L 188.468742 292.048007 
L 189.302615 291.984234 
L 190.136488 291.761027 
L 191.804234 291.314615 
L 192.221171 291.282728 
L 193.055044 290.868202 
L 193.47198 290.804429 
L 193.888917 290.581222 
L 198.475218 289.784057 
L 200.142964 289.273871 
L 200.5599 288.986891 
L 202.644583 288.285385 
L 203.478456 287.679539 
L 204.729265 287.424446 
L 210.14944 285.830115 
L 210.566376 285.766342 
L 212.234122 285.096723 
L 212.651059 285.03295 
L 213.484932 284.682197 
L 214.318804 284.65031 
L 215.569614 284.267671 
L 215.98655 284.267671 
L 216.403487 284.076351 
L 217.23736 283.980691 
L 217.654296 283.821258 
L 219.322042 283.757484 
L 220.155915 283.598051 
L 220.989788 283.151639 
L 222.240598 282.673339 
L 223.074471 282.226926 
L 223.908344 281.780514 
L 224.742217 281.493534 
L 225.159153 281.365988 
L 225.993026 280.823915 
L 226.409963 280.345616 
L 227.243836 279.006377 
L 227.660772 278.878831 
L 228.077709 278.878831 
L 229.745455 277.922232 
L 230.162391 277.826572 
L 230.579328 277.412046 
L 231.4132 277.061293 
L 232.247073 276.678654 
L 232.66401 276.168468 
L 233.080946 275.466962 
L 233.497883 275.179982 
L 233.914819 274.414703 
L 234.331756 273.936404 
L 236.833375 272.533392 
L 238.501121 271.002834 
L 238.918057 270.014349 
L 239.334994 269.376616 
L 239.75193 269.025864 
L 240.168867 268.834544 
L 243.504359 265.677768 
L 244.338232 264.880602 
L 246.839851 263.254384 
L 247.256787 263.094951 
L 248.924533 262.074579 
L 249.341469 261.88326 
L 251.426152 259.906289 
L 252.260025 259.555536 
L 253.093898 258.94969 
L 253.510834 258.694597 
L 253.927771 258.630824 
L 255.17858 257.897431 
L 255.595517 257.419132 
L 257.680199 256.239327 
L 258.097136 256.079894 
L 259.347945 255.187068 
L 265.601993 252.891231 
L 266.435866 252.094066 
L 267.686675 251.456333 
L 268.520548 250.91426 
L 269.354421 250.659167 
L 269.771357 250.372188 
L 270.188294 250.244641 
L 271.439103 249.383702 
L 273.523786 248.905403 
L 274.774595 248.140124 
L 276.025405 247.853144 
L 276.442341 247.757484 
L 277.693151 246.800886 
L 279.360897 246.322586 
L 279.777833 245.971833 
L 282.279452 245.079008 
L 283.113325 244.919575 
L 283.947198 244.568822 
L 286.865753 243.45279 
L 287.699626 243.35713 
L 288.950436 242.910717 
L 291.035118 241.858459 
L 293.536737 240.423561 
L 294.37061 240.200354 
L 295.62142 239.562622 
L 296.455293 239.403189 
L 297.289166 238.893003 
L 298.123039 238.669796 
L 299.373848 238.15961 
L 301.041594 237.936404 
L 301.875467 237.489991 
L 302.292403 237.107352 
L 302.70934 236.342073 
L 304.377086 235.863773 
L 305.627895 235.194154 
L 306.461768 234.907174 
L 307.712578 234.269442 
L 309.79726 233.408503 
L 310.631133 233.217183 
L 311.881943 232.579451 
L 312.298879 232.515678 
L 314.383562 231.463419 
L 315.217435 230.921346 
L 316.468244 230.666253 
L 318.552927 230.124181 
L 318.969863 229.773428 
L 319.803736 229.486448 
L 321.888418 228.625509 
L 322.305355 228.306643 
L 322.722291 228.14721 
L 323.556164 227.668911 
L 325.22391 227.126838 
L 326.057783 226.584765 
L 326.47472 226.138353 
L 326.891656 225.88326 
L 327.308593 225.7876 
L 328.142466 225.086094 
L 328.559402 225.022321 
L 328.976339 224.320815 
L 329.393275 224.129495 
L 329.810212 223.778742 
L 330.227148 223.714969 
L 331.061021 223.172896 
L 331.894894 222.885917 
L 332.311831 222.56705 
L 332.728767 222.407617 
L 334.396513 221.259699 
L 335.647323 220.621966 
L 336.481196 220.39876 
L 337.315068 219.920461 
L 337.732005 219.187068 
L 338.565878 218.549336 
L 338.982814 218.453676 
L 341.484433 217.210097 
L 342.318306 216.859345 
L 343.152179 216.253499 
L 344.402989 215.073694 
L 345.236862 214.563508 
L 345.653798 214.085208 
L 347.321544 212.905403 
L 348.155417 212.044464 
L 348.98929 211.757484 
L 349.823163 211.183525 
L 351.073973 210.513906 
L 351.490909 210.450133 
L 352.741719 209.748627 
L 353.575592 209.206554 
L 357.744956 207.612223 
L 358.161893 207.26147 
L 359.829639 206.591851 
L 360.246575 206.464305 
L 361.080448 205.922232 
L 361.914321 205.571479 
L 362.748194 204.965633 
L 363.582067 203.243756 
L 364.41594 202.223384 
L 365.66675 201.553764 
L 366.500623 201.203012 
L 366.917559 201.139238 
L 367.751432 200.756599 
L 369.419178 200.18264 
L 370.253051 199.70434 
L 371.086924 199.289814 
L 371.503861 199.162267 
L 374.005479 197.631709 
L 374.422416 197.15341 
L 375.673225 196.420018 
L 376.090162 196.260585 
L 376.924035 195.750399 
L 378.591781 194.825686 
L 379.008717 194.730027 
L 379.425654 194.379274 
L 382.344209 193.390788 
L 382.761146 193.071922 
L 383.595019 192.816829 
L 384.428892 192.466076 
L 384.845828 192.115323 
L 386.513574 191.509477 
L 387.347447 190.903632 
L 388.18132 190.552879 
L 389.015193 189.88326 
L 389.849066 189.628167 
L 390.266002 189.245527 
L 390.682939 189.181754 
L 391.516812 188.512135 
L 393.601494 187.268556 
L 394.435367 187.013463 
L 394.852304 186.75837 
L 395.26924 186.694597 
L 396.52005 185.993091 
L 398.187796 185.419132 
L 399.021669 185.291585 
L 399.438605 185.100266 
L 399.855542 185.036492 
L 400.689415 184.653853 
L 401.106351 184.621966 
L 402.774097 183.984234 
L 404.024907 183.059522 
L 404.441843 182.900089 
L 405.275716 182.421789 
L 405.692653 182.294243 
L 408.194271 180.859345 
L 408.611208 180.763685 
L 409.862017 179.998406 
L 411.112827 179.551993 
L 411.9467 179.265013 
L 413.614446 178.691054 
L 414.448319 178.404074 
L 416.116065 178.053322 
L 416.533001 177.862002 
L 417.366874 177.638795 
L 417.783811 177.447476 
L 418.200747 177.383702 
L 418.617684 177.160496 
L 419.451557 177.001063 
L 420.702366 176.522764 
L 421.953176 176.331444 
L 424.454795 175.853144 
L 425.705604 175.566165 
L 426.12254 175.374845 
L 426.956413 175.215412 
L 427.790286 174.992205 
L 428.624159 174.609566 
L 429.041096 174.450133 
L 429.458032 174.450133 
L 434.044334 173.015235 
L 434.46127 172.792028 
L 434.878207 172.792028 
L 435.71208 172.473162 
L 436.129016 172.026749 
L 438.630635 170.974491 
L 440.298381 170.400531 
L 440.715318 170.145438 
L 441.966127 169.762799 
L 442.8 169.539593 
L 443.216936 169.252613 
L 443.633873 169.156953 
L 444.050809 168.774314 
L 445.301619 168.519221 
L 446.135492 168.136581 
L 446.552428 167.626395 
L 451.13873 166.606023 
L 451.555666 166.606023 
L 451.972603 166.414703 
L 453.640349 166.095837 
L 454.057285 165.904517 
L 455.725031 165.585651 
L 456.558904 165.234898 
L 457.392777 165.075465 
L 459.47746 164.533392 
L 461.145205 163.99132 
L 461.562142 163.89566 
L 461.979078 163.672453 
L 462.812951 163.449247 
L 463.646824 163.098494 
L 464.480697 162.779628 
L 464.897634 162.492648 
L 465.731507 162.237555 
L 468.650062 161.121523 
L 470.317808 160.930204 
L 473.6533 159.686625 
L 474.070237 159.367759 
L 474.487173 159.272099 
L 474.90411 159.048893 
L 475.321046 159.017006 
L 479.907347 157.327015 
L 481.99203 156.753056 
L 482.825903 156.33853 
L 484.076712 156.05155 
L 485.744458 154.648539 
L 487.412204 153.915146 
L 488.246077 153.532507 
L 490.747696 152.544021 
L 491.164633 152.257042 
L 493.249315 151.555536 
L 494.500125 150.822143 
L 494.917061 150.726484 
L 497.001743 149.578565 
L 498.252553 149.004606 
L 498.669489 148.68574 
L 499.503362 148.39876 
L 501.588045 147.314615 
L 502.838854 146.868202 
L 504.5066 146.198583 
L 505.75741 145.720283 
L 506.174346 145.56085 
L 507.008219 145.433304 
L 507.425156 145.146324 
L 509.092902 144.827458 
L 509.926775 144.476705 
L 511.594521 143.679539 
L 517.431631 141.064836 
L 518.682441 140.65031 
L 519.099377 140.36333 
L 519.93325 140.267671 
L 520.350187 139.980691 
L 521.18406 139.853144 
L 522.017933 139.438618 
L 522.434869 139.247298 
L 523.268742 139.024092 
L 524.102615 138.768999 
L 525.353425 138.2907 
L 526.604234 137.876174 
L 527.855044 137.589194 
L 529.52279 136.887688 
L 530.356663 136.441275 
L 532.024408 135.580337 
L 532.858281 135.389017 
L 533.275218 135.133924 
L 533.692154 135.038264 
L 534.942964 134.304872 
L 535.776837 133.954119 
L 544.94944 130.382817 
L 546.617186 129.585651 
L 550.78655 127.927547 
L 551.620423 127.51302 
L 552.03736 127.41736 
L 552.454296 127.194154 
L 554.122042 126.715855 
L 555.789788 125.312843 
L 556.206725 125.185297 
L 556.623661 124.930204 
L 557.874471 124.579451 
L 558.291407 124.260585 
L 558.708344 124.164925 
L 559.959153 123.399646 
L 560.37609 123.112666 
L 561.626899 122.634367 
L 562.043836 122.41116 
L 563.294645 122.124181 
L 565.379328 121.390788 
L 566.2132 121.135695 
L 567.46401 120.466076 
L 568.297883 120.05155 
L 569.131756 119.828344 
L 570.382565 119.222498 
L 574.55193 117.532507 
L 576.636613 116.512135 
L 577.470486 116.193268 
L 577.887422 115.810629 
L 578.721295 115.459876 
L 579.972105 115.013463 
L 580.389041 114.66271 
L 580.805978 114.630824 
L 581.639851 114.375731 
L 582.473724 114.088751 
L 582.89066 113.897431 
L 583.307597 113.833658 
L 584.141469 113.482905 
L 585.392279 113.195926 
L 586.226152 112.717626 
L 586.643088 112.558193 
L 587.060025 112.239327 
L 588.310834 111.920461 
L 588.727771 111.665368 
L 589.561644 111.442161 
L 590.812453 110.740655 
L 591.22939 110.708769 
L 592.480199 110.294243 
L 593.314072 110.230469 
L 593.731009 110.007263 
L 594.564882 109.784057 
L 594.981818 109.56085 
L 597.066501 109.146324 
L 597.900374 108.986891 
L 599.151183 108.508592 
L 600.401993 108.221612 
L 601.652802 107.551993 
L 602.069738 107.169353 
L 603.320548 106.404074 
L 603.737484 106.085208 
L 604.988294 105.670682 
L 605.822167 105.447476 
L 609.574595 103.789371 
L 611.242341 103.342958 
L 612.076214 102.960319 
L 612.493151 102.737112 
L 613.327024 102.482019 
L 613.74396 102.258813 
L 614.577833 102.09938 
L 617.913325 100.632595 
L 618.330262 100.568822 
L 619.581071 99.73977 
L 619.998007 99.675996 
L 621.665753 99.006377 
L 623.333499 98.591851 
L 623.750436 98.528078 
L 624.167372 98.336758 
L 624.584309 98.304872 
L 625.418182 98.017892 
L 625.835118 97.986005 
L 627.085928 97.507706 
L 628.753674 97.029407 
L 629.587547 96.391674 
L 631.255293 95.466962 
L 631.672229 95.371302 
L 632.089166 95.148096 
L 632.923039 94.861116 
L 633.339975 94.73357 
L 633.756912 94.382817 
L 635.007721 93.904517 
L 635.841594 93.426218 
L 636.258531 93.203012 
L 636.675467 92.820372 
L 638.760149 92.278299 
L 640.010959 91.70434 
L 640.844832 91.481134 
L 641.261768 91.257927 
L 641.678705 90.907174 
L 643.346451 90.460762 
L 643.763387 90.141895 
L 649.183562 88.133038 
L 650.017435 87.973605 
L 652.102117 87.303986 
L 652.93599 86.953233 
L 653.769863 86.634367 
L 654.603736 86.41116 
L 655.020672 86.219841 
L 655.437609 86.219841 
L 656.271482 85.869088 
L 657.105355 85.390788 
L 660.02391 84.402303 
L 661.691656 83.828344 
L 662.942466 83.541364 
L 664.193275 83.126838 
L 664.610212 83.031178 
L 665.027148 82.744198 
L 665.861021 82.552879 
L 667.528767 82.074579 
L 667.945704 82.042693 
L 668.779577 81.660053 
L 671.698132 80.926661 
L 672.532005 80.575908 
L 676.70137 79.619309 
L 677.952179 78.94969 
L 679.202989 78.56705 
L 682.121544 77.578565 
L 682.538481 77.355359 
L 682.955417 77.259699 
L 684.206227 76.621966 
L 685.0401 76.462533 
L 685.873973 76.20744 
L 686.707846 75.792914 
L 687.124782 75.442161 
L 687.958655 75.187068 
L 688.375592 74.931975 
L 689.209465 74.836315 
L 692.12802 74.007263 
L 693.378829 73.75217 
L 694.629639 73.433304 
L 695.463512 73.210097 
L 696.714321 72.572365 
L 698.382067 71.934632 
L 699.21594 71.48822 
L 699.632877 71.456333 
L 700.46675 71.041807 
L 703.385305 70.212755 
L 704.636115 70.021435 
L 705.469988 69.766342 
L 706.720797 69.383702 
L 710.473225 68.331444 
L 711.307098 68.108237 
L 711.724035 68.012578 
L 712.140971 67.757484 
L 712.974844 67.598051 
L 713.808717 67.502391 
L 714.225654 67.279185 
L 714.64259 67.247298 
L 715.8934 66.609566 
L 717.144209 66.322586 
L 717.978082 65.971833 
L 718.811955 65.684854 
L 719.645828 65.461647 
L 720.479701 65.110895 
L 721.313574 64.823915 
L 722.98132 64.345616 
L 723.815193 64.281842 
L 724.649066 63.994863 
L 725.066002 63.83543 
L 725.899875 63.707883 
L 727.567621 62.974491 
L 727.984558 62.910717 
L 728.401494 62.687511 
L 729.235367 62.528078 
L 730.06924 62.464305 
L 732.570859 61.826572 
L 733.404732 61.475819 
L 733.821669 61.412046 
L 734.238605 61.18884 
L 735.072478 60.487334 
L 740.492653 58.44659 
L 741.743462 58.15961 
L 742.160399 57.840744 
L 743.411208 57.298671 
L 744.245081 56.852259 
L 744.662017 56.756599 
L 745.078954 56.437733 
L 746.329763 56.08698 
L 746.7467 55.863773 
L 747.163636 55.8 
L 747.163636 55.8 
" clip-path="url(#peda957a9c2)" style="fill: none; stroke: #1f77b4; stroke-width: 1.5; stroke-linecap: square"/>
   </g>
   <g id="line2d_38">
    <path d="M 138.8533 307.8 
L 142.605729 307.70434 
L 145.94122 307.544907 
L 147.608966 307.544907 
L 148.025903 307.41736 
L 150.110585 307.321701 
L 152.612204 307.034721 
L 155.113823 306.939061 
L 155.947696 306.843401 
L 158.866252 306.715855 
L 161.784807 306.620195 
L 163.869489 306.556422 
L 169.289664 306.460762 
L 171.374346 306.396988 
L 175.126775 306.301329 
L 176.794521 306.269442 
L 180.963885 306.173782 
L 182.631631 306.014349 
L 184.299377 305.982462 
L 186.800996 305.886802 
L 188.468742 305.854916 
L 190.553425 305.791143 
L 192.221171 305.631709 
L 195.973599 305.53605 
L 196.807472 305.472276 
L 198.475218 305.376616 
L 200.976837 305.280957 
L 202.644583 305.185297 
L 210.14944 304.706997 
L 213.067995 304.611337 
L 214.318804 304.483791 
L 216.403487 304.388131 
L 220.572852 304.164925 
L 224.742217 304.101151 
L 226.409963 303.909832 
L 228.494645 303.814172 
L 232.66401 303.399646 
L 235.165629 303.080779 
L 236.833375 303.017006 
L 240.168867 302.570593 
L 242.670486 302.50682 
L 243.921295 302.379274 
L 245.172105 302.283614 
L 256.846326 301.358902 
L 257.680199 301.199469 
L 260.181818 301.103809 
L 266.852802 300.689283 
L 269.771357 300.593623 
L 271.439103 300.402303 
L 273.523786 300.306643 
L 276.025405 300.210983 
L 278.110087 300.115323 
L 279.777833 300.083437 
L 281.862516 300.019663 
L 282.696389 299.892117 
L 288.533499 299.796457 
L 289.367372 299.700797 
L 294.37061 299.605137 
L 298.123039 299.413818 
L 301.041594 299.318158 
L 302.70934 299.126838 
L 305.627895 299.031178 
L 306.461768 298.903632 
L 308.546451 298.839858 
L 312.715816 298.776085 
L 314.383562 298.616652 
L 316.051308 298.584765 
L 317.302117 298.489105 
L 318.969863 298.329672 
L 323.139228 298.106466 
L 327.308593 298.010806 
L 331.061021 297.819486 
L 332.311831 297.7876 
L 333.145704 297.660053 
L 335.230386 297.564393 
L 336.064259 297.50062 
L 336.898132 297.436847 
L 337.732005 297.373074 
L 341.90137 297.277414 
L 351.073973 296.671568 
L 351.907846 296.607795 
L 353.158655 296.512135 
L 356.07721 296.416475 
L 358.161893 296.352702 
L 363.999004 296.257042 
L 364.832877 296.129495 
L 370.669988 296.033835 
L 374.839352 295.810629 
L 375.673225 295.778742 
L 376.507098 295.683082 
L 378.591781 295.587422 
L 380.676463 295.523649 
L 382.761146 295.427989 
L 384.845828 295.364216 
L 388.598257 295.268556 
L 391.099875 295.172896 
L 396.936986 295.077236 
L 401.523288 294.822143 
L 403.191034 294.75837 
L 404.441843 294.66271 
L 410.278954 294.56705 
L 412.780573 294.471391 
L 420.28543 294.375731 
L 421.953176 294.343844 
L 426.956413 294.280071 
L 427.790286 294.216298 
L 433.627397 294.120638 
L 435.295143 294.088751 
L 446.135492 293.993091 
L 448.637111 293.897431 
L 466.148443 293.801771 
L 468.233126 293.737998 
L 479.073474 293.674225 
L 479.907347 293.610452 
L 481.99203 293.546678 
L 483.242839 293.419132 
L 485.744458 293.323472 
L 488.663014 293.195926 
L 492.415442 293.100266 
L 494.500125 293.036492 
L 497.41868 292.940833 
L 500.754172 292.781399 
L 502.838854 292.68574 
L 504.5066 292.653853 
L 508.259029 292.558193 
L 509.926775 292.526306 
L 515.346949 292.430647 
L 517.014695 292.39876 
L 519.099377 292.3031 
L 521.600996 292.20744 
L 524.519552 292.143667 
L 525.353425 292.079894 
L 535.3599 291.984234 
L 539.529265 291.761027 
L 542.447821 291.665368 
L 547.034122 291.410275 
L 549.952677 291.314615 
L 551.620423 291.282728 
L 554.538979 291.187068 
L 556.623661 290.963862 
L 560.793026 290.868202 
L 561.626899 290.772542 
L 565.796264 290.676882 
L 567.880946 290.613109 
L 572.467248 290.581222 
L 573.301121 290.485562 
L 577.887422 290.389903 
L 578.721295 290.326129 
L 587.893898 290.230469 
L 590.395517 290.13481 
L 596.649564 290.03915 
L 598.31731 290.007263 
L 602.069738 289.94349 
L 602.903611 289.84783 
L 608.323786 289.75217 
L 610.408468 289.688397 
L 617.913325 289.592737 
L 619.164134 289.497077 
L 620.414944 289.401417 
L 621.665753 289.305757 
L 627.919801 289.210097 
L 630.42142 289.114438 
L 641.678705 289.018778 
L 645.431133 288.827458 
L 650.434371 288.731798 
L 651.268244 288.668025 
L 657.522291 288.604252 
L 658.356164 288.540478 
L 662.942466 288.444818 
L 664.610212 288.412932 
L 671.698132 288.317272 
L 672.532005 288.253499 
L 680.036862 288.157839 
L 681.704608 288.125952 
L 685.457036 288.030292 
L 688.792528 287.870859 
L 693.378829 287.775199 
L 696.297385 287.647653 
L 700.049813 287.551993 
L 700.883686 287.48822 
L 709.222416 287.39256 
L 711.307098 287.328787 
L 713.808717 287.233127 
L 716.310336 287.137467 
L 728.818431 287.041807 
L 731.736986 286.91426 
L 736.740224 286.818601 
L 738.40797 286.786714 
L 745.078954 286.691054 
L 746.329763 286.595394 
L 747.163636 286.595394 
L 747.163636 286.595394 
" clip-path="url(#peda957a9c2)" style="fill: none; stroke: #ff7f0e; stroke-width: 1.5; stroke-linecap: square"/>
   </g>
   <g id="patch_3">
    <path d="M 108 320.4 
L 108 43.2 
" style="fill: none; stroke: #a9a9a9; stroke-width: 0.8; stroke-linejoin: miter; stroke-linecap: square"/>
   </g>
   <g id="patch_4">
    <path d="M 777.6 320.4 
L 777.6 43.2 
" style="fill: none"/>
   </g>
   <g id="patch_5">
    <path d="M 108 320.4 
L 777.6 320.4 
" style="fill: none; stroke: #a9a9a9; stroke-width: 0.8; stroke-linejoin: miter; stroke-linecap: square"/>
   </g>
   <g id="patch_6">
    <path d="M 108 43.2 
L 777.6 43.2 
" style="fill: none"/>
   </g>
   <g id="text_19">
    <!-- get_subscribe history -->
    <g style="fill: #a9a9a9" transform="translate(378.6075 37.2) scale(0.12 -0.12)">
     <defs>
      <path id="DejaVuSans-67" d="M 2906 1791 
Q 2906 2416 2648 2759 
Q 2391 3103 1925 3103 
Q 1463 3103 1205 2759 
Q 947 2416 947 1791 
Q 947 1169 1205 825 
Q 1463 481 1925 481 
Q 2391 481 2648 825 
Q 2906 1169 2906 1791 
z
M 3481 434 
Q 3481 -459 3084 -895 
Q 2688 -1331 1869 -1331 
Q 1566 -1331 1297 -1286 
Q 1028 -1241 775 -1147 
L 775 -588 
Q 1028 -725 1275 -790 
Q 1522 -856 1778 -856 
Q 2344 -856 2625 -561 
Q 2906 -266 2906 331 
L 2906 616 
Q 2728 306 2450 153 
Q 2172 0 1784 0 
Q 1141 0 747 490 
Q 353 981 353 1791 
Q 353 2603 747 3093 
Q 1141 3584 1784 3584 
Q 2172 3584 2450 3431 
Q 2728 3278 2906 2969 
L 2906 3500 
L 3481 3500 
L 3481 434 
z
" transform="scale(0.015625)"/>
      <path id="DejaVuSans-65" d="M 3597 1894 
L 3597 1613 
L 953 1613 
Q 991 1019 1311 708 
Q 1631 397 2203 397 
Q 2534 397 2845 478 
Q 3156 559 3463 722 
L 3463 178 
Q 3153 47 2828 -22 
Q 2503 -91 2169 -91 
Q 1331 -91 842 396 
Q 353 884 353 1716 
Q 353 2575 817 3079 
Q 1281 3584 2069 3584 
Q 2775 3584 3186 3129 
Q 3597 2675 3597 1894 
z
M 3022 2063 
Q 3016 2534 2758 2815 
Q 2500 3097 2075 3097 
Q 1594 3097 1305 2825 
Q 1016 2553 972 2059 
L 3022 2063 
z
" transform="scale(0.015625)"/>
      <path id="DejaVuSans-74" d="M 1172 4494 
L 1172 3500 
L 2356 3500 
L 2356 3053 
L 1172 3053 
L 1172 1153 
Q 1172 725 1289 603 
Q 1406 481 1766 481 
L 2356 481 
L 2356 0 
L 1766 0 
Q 1100 0 847 248 
Q 594 497 594 1153 
L 594 3053 
L 172 3053 
L 172 3500 
L 594 3500 
L 594 4494 
L 1172 4494 
z
" transform="scale(0.015625)"/>
      <path id="DejaVuSans-5f" d="M 3263 -1063 
L 3263 -1509 
L -63 -1509 
L -63 -1063 
L 3263 -1063 
z
" transform="scale(0.015625)"/>
      <path id="DejaVuSans-73" d="M 2834 3397 
L 2834 2853 
Q 2591 2978 2328 3040 
Q 2066 3103 1784 3103 
Q 1356 3103 1142 2972 
Q 928 2841 928 2578 
Q 928 2378 1081 2264 
Q 1234 2150 1697 2047 
L 1894 2003 
Q 2506 1872 2764 1633 
Q 3022 1394 3022 966 
Q 3022 478 2636 193 
Q 2250 -91 1575 -91 
Q 1294 -91 989 -36 
Q 684 19 347 128 
L 347 722 
Q 666 556 975 473 
Q 1284 391 1588 391 
Q 1994 391 2212 530 
Q 2431 669 2431 922 
Q 2431 1156 2273 1281 
Q 2116 1406 1581 1522 
L 1381 1569 
Q 847 1681 609 1914 
Q 372 2147 372 2553 
Q 372 3047 722 3315 
Q 1072 3584 1716 3584 
Q 2034 3584 2315 3537 
Q 2597 3491 2834 3397 
z
" transform="scale(0.015625)"/>
      <path id="DejaVuSans-75" d="M 544 1381 
L 544 3500 
L 1119 3500 
L 1119 1403 
Q 1119 906 1312 657 
Q 1506 409 1894 409 
Q 2359 409 2629 706 
Q 2900 1003 2900 1516 
L 2900 3500 
L 3475 3500 
L 3475 0 
L 2900 0 
L 2900 538 
Q 2691 219 2414 64 
Q 2138 -91 1772 -91 
Q 1169 -91 856 284 
Q 544 659 544 1381 
z
M 1991 3584 
L 1991 3584 
z
" transform="scale(0.015625)"/>
      <path id="DejaVuSans-62" d="M 3116 1747 
Q 3116 2381 2855 2742 
Q 2594 3103 2138 3103 
Q 1681 3103 1420 2742 
Q 1159 2381 1159 1747 
Q 1159 1113 1420 752 
Q 1681 391 2138 391 
Q 2594 391 2855 752 
Q 3116 1113 3116 1747 
z
M 1159 2969 
Q 1341 3281 1617 3432 
Q 1894 3584 2278 3584 
Q 2916 3584 3314 3078 
Q 3713 2572 3713 1747 
Q 3713 922 3314 415 
Q 2916 -91 2278 -91 
Q 1894 -91 1617 61 
Q 1341 213 1159 525 
L 1159 0 
L 581 0 
L 581 4863 
L 1159 4863 
L 1159 2969 
z
" transform="scale(0.015625)"/>
      <path id="DejaVuSans-63" d="M 3122 3366 
L 3122 2828 
Q 2878 2963 2633 3030 
Q 2388 3097 2138 3097 
Q 1578 3097 1268 2742 
Q 959 2388 959 1747 
Q 959 1106 1268 751 
Q 1578 397 2138 397 
Q 2388 397 2633 464 
Q 2878 531 3122 666 
L 3122 134 
Q 2881 22 2623 -34 
Q 2366 -91 2075 -91 
Q 1284 -91 818 406 
Q 353 903 353 1747 
Q 353 2603 823 3093 
Q 1294 3584 2113 3584 
Q 2378 3584 2631 3529 
Q 2884 3475 3122 3366 
z
" transform="scale(0.015625)"/>
      <path id="DejaVuSans-72" d="M 2631 2963 
Q 2534 3019 2420 3045 
Q 2306 3072 2169 3072 
Q 1681 3072 1420 2755 
Q 1159 2438 1159 1844 
L 1159 0 
L 581 0 
L 581 3500 
L 1159 3500 
L 1159 2956 
Q 1341 3275 1631 3429 
Q 1922 3584 2338 3584 
Q 2397 3584 2469 3576 
Q 2541 3569 2628 3553 
L 2631 2963 
z
" transform="scale(0.015625)"/>
      <path id="DejaVuSans-69" d="M 603 3500 
L 1178 3500 
L 1178 0 
L 603 0 
L 603 3500 
z
M 603 4863 
L 1178 4863 
L 1178 4134 
L 603 4134 
L 603 4863 
z
" transform="scale(0.015625)"/>
      <path id="DejaVuSans-20" transform="scale(0.015625)"/>
      <path id="DejaVuSans-68" d="M 3513 2113 
L 3513 0 
L 2938 0 
L 2938 2094 
Q 2938 2591 2744 2837 
Q 2550 3084 2163 3084 
Q 1697 3084 1428 2787 
Q 1159 2491 1159 1978 
L 1159 0 
L 581 0 
L 581 4863 
L 1159 4863 
L 1159 2956 
Q 1366 3272 1645 3428 
Q 1925 3584 2291 3584 
Q 2894 3584 3203 3211 
Q 3513 2838 3513 2113 
z
" transform="scale(0.015625)"/>
      <path id="DejaVuSans-6f" d="M 1959 3097 
Q 1497 3097 1228 2736 
Q 959 2375 959 1747 
Q 959 1119 1226 758 
Q 1494 397 1959 397 
Q 2419 397 2687 759 
Q 2956 1122 2956 1747 
Q 2956 2369 2687 2733 
Q 2419 3097 1959 3097 
z
M 1959 3584 
Q 2709 3584 3137 3096 
Q 3566 2609 3566 1747 
Q 3566 888 3137 398 
Q 2709 -91 1959 -91 
Q 1206 -91 779 398 
Q 353 888 353 1747 
Q 353 2609 779 3096 
Q 1206 3584 1959 3584 
z
" transform="scale(0.015625)"/>
      <path id="DejaVuSans-79" d="M 2059 -325 
Q 1816 -950 1584 -1140 
Q 1353 -1331 966 -1331 
L 506 -1331 
L 506 -850 
L 844 -850 
Q 1081 -850 1212 -737 
Q 1344 -625 1503 -206 
L 1606 56 
L 191 3500 
L 800 3500 
L 1894 763 
L 2988 3500 
L 3597 3500 
L 2059 -325 
z
" transform="scale(0.015625)"/>
     </defs>
     <use xlink:href="#DejaVuSans-67"/>
     <use xlink:href="#DejaVuSans-65" transform="translate(63.476562 0)"/>
     <use xlink:href="#DejaVuSans-74" transform="translate(125 0)"/>
     <use xlink:href="#DejaVuSans-5f" transform="translate(164.208984 0)"/>
     <use xlink:href="#DejaVuSans-73" transform="translate(214.208984 0)"/>
     <use xlink:href="#DejaVuSans-75" transform="translate(266.308594 0)"/>
     <use xlink:href="#DejaVuSans-62" transform="translate(329.6875 0)"/>
     <use xlink:href="#DejaVuSans-73" transform="translate(393.164062 0)"/>
     <use xlink:href="#DejaVuSans-63" transform="translate(445.263672 0)"/>
     <use xlink:href="#DejaVuSans-72" transform="translate(500.244141 0)"/>
     <use xlink:href="#DejaVuSans-69" transform="translate(541.357422 0)"/>
     <use xlink:href="#DejaVuSans-62" transform="translate(569.140625 0)"/>
     <use xlink:href="#DejaVuSans-65" transform="translate(632.617188 0)"/>
     <use xlink:href="#DejaVuSans-20" transform="translate(694.140625 0)"/>
     <use xlink:href="#DejaVuSans-68" transform="translate(725.927734 0)"/>
     <use xlink:href="#DejaVuSans-69" transform="translate(789.306641 0)"/>
     <use xlink:href="#DejaVuSans-73" transform="translate(817.089844 0)"/>
     <use xlink:href="#DejaVuSans-74" transform="translate(869.189453 0)"/>
     <use xlink:href="#DejaVuSans-6f" transform="translate(908.398438 0)"/>
     <use xlink:href="#DejaVuSans-72" transform="translate(969.580078 0)"/>
     <use xlink:href="#DejaVuSans-79" transform="translate(1010.693359 0)"/>
    </g>
   </g>
   <g id="legend_1">
    <g id="line2d_39">
     <path d="M 815.08 328.498438 
L 825.08 328.498438 
L 835.08 328.498438 
" style="fill: none; stroke: #1f77b4; stroke-width: 1.5; stroke-linecap: square"/>
    </g>
    <g id="text_20">
     <!-- star -->
     <g style="fill: #a9a9a9" transform="translate(843.08 331.998438) scale(0.1 -0.1)">
      <defs>
       <path id="DejaVuSans-61" d="M 2194 1759 
Q 1497 1759 1228 1600 
Q 959 1441 959 1056 
Q 959 750 1161 570 
Q 1363 391 1709 391 
Q 2188 391 2477 730 
Q 2766 1069 2766 1631 
L 2766 1759 
L 2194 1759 
z
M 3341 1997 
L 3341 0 
L 2766 0 
L 2766 531 
Q 2569 213 2275 61 
Q 1981 -91 1556 -91 
Q 1019 -91 701 211 
Q 384 513 384 1019 
Q 384 1609 779 1909 
Q 1175 2209 1959 2209 
L 2766 2209 
L 2766 2266 
Q 2766 2663 2505 2880 
Q 2244 3097 1772 3097 
Q 1472 3097 1187 3025 
Q 903 2953 641 2809 
L 641 3341 
Q 956 3463 1253 3523 
Q 1550 3584 1831 3584 
Q 2591 3584 2966 3190 
Q 3341 2797 3341 1997 
z
" transform="scale(0.015625)"/>
      </defs>
      <use xlink:href="#DejaVuSans-73"/>
      <use xlink:href="#DejaVuSans-74" transform="translate(52.099609 0)"/>
      <use xlink:href="#DejaVuSans-61" transform="translate(91.308594 0)"/>
      <use xlink:href="#DejaVuSans-72" transform="translate(152.587891 0)"/>
     </g>
    </g>
    <g id="line2d_40">
     <path d="M 815.08 343.176562 
L 825.08 343.176562 
L 835.08 343.176562 
" style="fill: none; stroke: #ff7f0e; stroke-width: 1.5; stroke-linecap: square"/>
    </g>
    <g id="text_21">
     <!-- fork -->
     <g style="fill: #a9a9a9" transform="translate(843.08 346.676562) scale(0.1 -0.1)">
      <defs>
       <path id="DejaVuSans-66" d="M 2375 4863 
L 2375 4384 
L 1825 4384 
Q 1516 4384 1395 4259 
Q 1275 4134 1275 3809 
L 1275 3500 
L 2222 3500 
L 2222 3053 
L 1275 3053 
L 1275 0 
L 697 0 
L 697 3053 
L 147 3053 
L 147 3500 
L 697 3500 
L 697 3744 
Q 697 4328 969 4595 
Q 1241 4863 1831 4863 
L 2375 4863 
z
" transform="scale(0.015625)"/>
       <path id="DejaVuSans-6b" d="M 581 4863 
L 1159 4863 
L 1159 1991 
L 2875 3500 
L 3609 3500 
L 1753 1863 
L 3688 0 
L 2938 0 
L 1159 1709 
L 1159 0 
L 581 0 
L 581 4863 
z
" transform="scale(0.015625)"/>
      </defs>
      <use xlink:href="#DejaVuSans-66"/>
      <use xlink:href="#DejaVuSans-6f" transform="translate(35.205078 0)"/>
      <use xlink:href="#DejaVuSans-72" transform="translate(96.386719 0)"/>
      <use xlink:href="#DejaVuSans-6b" transform="translate(137.5 0)"/>
     </g>
    </g>
   </g>
  </g>
 </g>
 <defs>
  <clipPath id="peda957a9c2">
   <rect x="108" y="43.2" width="669.6" height="277.2"/>
  </clipPath>
 </defs>
</svg>
