<?xml version="1.0" encoding="utf-8" standalone="no"?>
<!DOCTYPE svg PUBLIC "-//W3C//DTD SVG 1.1//EN"
  "http://www.w3.org/Graphics/SVG/1.1/DTD/svg11.dtd">
<svg xmlns:xlink="http://www.w3.org/1999/xlink" width="864pt" height="360pt" viewBox="0 0 864 360" xmlns="http://www.w3.org/2000/svg" version="1.1">
 <metadata>
  <rdf:RDF xmlns:dc="http://purl.org/dc/elements/1.1/" xmlns:cc="http://creativecommons.org/ns#" xmlns:rdf="http://www.w3.org/1999/02/22-rdf-syntax-ns#">
   <cc:Work>
    <dc:type rdf:resource="http://purl.org/dc/dcmitype/StillImage"/>
    <dc:date>2025-04-05T08:14:27.278820</dc:date>
    <dc:format>image/svg+xml</dc:format>
    <dc:creator>
     <cc:Agent>
      <dc:title>Matplotlib v3.10.1, https://matplotlib.org/</dc:title>
     </cc:Agent>
    </dc:creator>
   </cc:Work>
  </rdf:RDF>
 </metadata>
 <defs>
  <style type="text/css">*{stroke-linejoin: round; stroke-linecap: butt}</style>
 </defs>
 <g id="figure_1">
  <g id="patch_1">
   <path d="M 0 360 
L 864 360 
L 864 0 
L 0 0 
L 0 360 
z
" style="fill: none; opacity: 0"/>
  </g>
  <g id="axes_1">
   <g id="patch_2">
    <path d="M 108 320.4 
L 777.6 320.4 
L 777.6 43.2 
L 108 43.2 
L 108 320.4 
z
" style="fill: none; opacity: 0"/>
   </g>
   <g id="matplotlib.axis_1">
    <g id="xtick_1">
     <g id="line2d_1">
      <path d="M 128.073131 320.4 
L 128.073131 43.2 
" clip-path="url(#p7505eda85b)" style="fill: none; stroke-dasharray: 5.12,1.28,0.8,1.28; stroke-dashoffset: 0; stroke: #b0b0b0; stroke-width: 0.8"/>
     </g>
     <g id="line2d_2">
      <defs>
       <path id="m197e5fd41b" d="M 0 0 
L 0 3.5 
" style="stroke: #a9a9a9; stroke-width: 0.8"/>
      </defs>
      <g>
       <use xlink:href="#m197e5fd41b" x="128.073131" y="320.4" style="fill: #a9a9a9; stroke: #a9a9a9; stroke-width: 0.8"/>
      </g>
     </g>
     <g id="text_1">
      <!-- 2021-07 -->
      <g style="fill: #a9a9a9" transform="translate(107.181725 334.998438) scale(0.1 -0.1)">
       <defs>
        <path id="DejaVuSans-32" d="M 1228 531 
L 3431 531 
L 3431 0 
L 469 0 
L 469 531 
Q 828 903 1448 1529 
Q 2069 2156 2228 2338 
Q 2531 2678 2651 2914 
Q 2772 3150 2772 3378 
Q 2772 3750 2511 3984 
Q 2250 4219 1831 4219 
Q 1534 4219 1204 4116 
Q 875 4013 500 3803 
L 500 4441 
Q 881 4594 1212 4672 
Q 1544 4750 1819 4750 
Q 2544 4750 2975 4387 
Q 3406 4025 3406 3419 
Q 3406 3131 3298 2873 
Q 3191 2616 2906 2266 
Q 2828 2175 2409 1742 
Q 1991 1309 1228 531 
z
" transform="scale(0.015625)"/>
        <path id="DejaVuSans-30" d="M 2034 4250 
Q 1547 4250 1301 3770 
Q 1056 3291 1056 2328 
Q 1056 1369 1301 889 
Q 1547 409 2034 409 
Q 2525 409 2770 889 
Q 3016 1369 3016 2328 
Q 3016 3291 2770 3770 
Q 2525 4250 2034 4250 
z
M 2034 4750 
Q 2819 4750 3233 4129 
Q 3647 3509 3647 2328 
Q 3647 1150 3233 529 
Q 2819 -91 2034 -91 
Q 1250 -91 836 529 
Q 422 1150 422 2328 
Q 422 3509 836 4129 
Q 1250 4750 2034 4750 
z
" transform="scale(0.015625)"/>
        <path id="DejaVuSans-31" d="M 794 531 
L 1825 531 
L 1825 4091 
L 703 3866 
L 703 4441 
L 1819 4666 
L 2450 4666 
L 2450 531 
L 3481 531 
L 3481 0 
L 794 0 
L 794 531 
z
" transform="scale(0.015625)"/>
        <path id="DejaVuSans-2d" d="M 313 2009 
L 1997 2009 
L 1997 1497 
L 313 1497 
L 313 2009 
z
" transform="scale(0.015625)"/>
        <path id="DejaVuSans-37" d="M 525 4666 
L 3525 4666 
L 3525 4397 
L 1831 0 
L 1172 0 
L 2766 4134 
L 525 4134 
L 525 4666 
z
" transform="scale(0.015625)"/>
       </defs>
       <use xlink:href="#DejaVuSans-32"/>
       <use xlink:href="#DejaVuSans-30" transform="translate(63.623047 0)"/>
       <use xlink:href="#DejaVuSans-32" transform="translate(127.246094 0)"/>
       <use xlink:href="#DejaVuSans-31" transform="translate(190.869141 0)"/>
       <use xlink:href="#DejaVuSans-2d" transform="translate(254.492188 0)"/>
       <use xlink:href="#DejaVuSans-30" transform="translate(290.576172 0)"/>
       <use xlink:href="#DejaVuSans-37" transform="translate(354.199219 0)"/>
      </g>
     </g>
    </g>
    <g id="xtick_2">
     <g id="line2d_3">
      <path d="M 210.978992 320.4 
L 210.978992 43.2 
" clip-path="url(#p7505eda85b)" style="fill: none; stroke-dasharray: 5.12,1.28,0.8,1.28; stroke-dashoffset: 0; stroke: #b0b0b0; stroke-width: 0.8"/>
     </g>
     <g id="line2d_4">
      <g>
       <use xlink:href="#m197e5fd41b" x="210.978992" y="320.4" style="fill: #a9a9a9; stroke: #a9a9a9; stroke-width: 0.8"/>
      </g>
     </g>
     <g id="text_2">
      <!-- 2022-01 -->
      <g style="fill: #a9a9a9" transform="translate(190.087586 334.998438) scale(0.1 -0.1)">
       <use xlink:href="#DejaVuSans-32"/>
       <use xlink:href="#DejaVuSans-30" transform="translate(63.623047 0)"/>
       <use xlink:href="#DejaVuSans-32" transform="translate(127.246094 0)"/>
       <use xlink:href="#DejaVuSans-32" transform="translate(190.869141 0)"/>
       <use xlink:href="#DejaVuSans-2d" transform="translate(254.492188 0)"/>
       <use xlink:href="#DejaVuSans-30" transform="translate(290.576172 0)"/>
       <use xlink:href="#DejaVuSans-31" transform="translate(354.199219 0)"/>
      </g>
     </g>
    </g>
    <g id="xtick_3">
     <g id="line2d_5">
      <path d="M 292.533127 320.4 
L 292.533127 43.2 
" clip-path="url(#p7505eda85b)" style="fill: none; stroke-dasharray: 5.12,1.28,0.8,1.28; stroke-dashoffset: 0; stroke: #b0b0b0; stroke-width: 0.8"/>
     </g>
     <g id="line2d_6">
      <g>
       <use xlink:href="#m197e5fd41b" x="292.533127" y="320.4" style="fill: #a9a9a9; stroke: #a9a9a9; stroke-width: 0.8"/>
      </g>
     </g>
     <g id="text_3">
      <!-- 2022-07 -->
      <g style="fill: #a9a9a9" transform="translate(271.641721 334.998438) scale(0.1 -0.1)">
       <use xlink:href="#DejaVuSans-32"/>
       <use xlink:href="#DejaVuSans-30" transform="translate(63.623047 0)"/>
       <use xlink:href="#DejaVuSans-32" transform="translate(127.246094 0)"/>
       <use xlink:href="#DejaVuSans-32" transform="translate(190.869141 0)"/>
       <use xlink:href="#DejaVuSans-2d" transform="translate(254.492188 0)"/>
       <use xlink:href="#DejaVuSans-30" transform="translate(290.576172 0)"/>
       <use xlink:href="#DejaVuSans-37" transform="translate(354.199219 0)"/>
      </g>
     </g>
    </g>
    <g id="xtick_4">
     <g id="line2d_7">
      <path d="M 375.438988 320.4 
L 375.438988 43.2 
" clip-path="url(#p7505eda85b)" style="fill: none; stroke-dasharray: 5.12,1.28,0.8,1.28; stroke-dashoffset: 0; stroke: #b0b0b0; stroke-width: 0.8"/>
     </g>
     <g id="line2d_8">
      <g>
       <use xlink:href="#m197e5fd41b" x="375.438988" y="320.4" style="fill: #a9a9a9; stroke: #a9a9a9; stroke-width: 0.8"/>
      </g>
     </g>
     <g id="text_4">
      <!-- 2023-01 -->
      <g style="fill: #a9a9a9" transform="translate(354.547582 334.998438) scale(0.1 -0.1)">
       <defs>
        <path id="DejaVuSans-33" d="M 2597 2516 
Q 3050 2419 3304 2112 
Q 3559 1806 3559 1356 
Q 3559 666 3084 287 
Q 2609 -91 1734 -91 
Q 1441 -91 1130 -33 
Q 819 25 488 141 
L 488 750 
Q 750 597 1062 519 
Q 1375 441 1716 441 
Q 2309 441 2620 675 
Q 2931 909 2931 1356 
Q 2931 1769 2642 2001 
Q 2353 2234 1838 2234 
L 1294 2234 
L 1294 2753 
L 1863 2753 
Q 2328 2753 2575 2939 
Q 2822 3125 2822 3475 
Q 2822 3834 2567 4026 
Q 2313 4219 1838 4219 
Q 1578 4219 1281 4162 
Q 984 4106 628 3988 
L 628 4550 
Q 988 4650 1302 4700 
Q 1616 4750 1894 4750 
Q 2613 4750 3031 4423 
Q 3450 4097 3450 3541 
Q 3450 3153 3228 2886 
Q 3006 2619 2597 2516 
z
" transform="scale(0.015625)"/>
       </defs>
       <use xlink:href="#DejaVuSans-32"/>
       <use xlink:href="#DejaVuSans-30" transform="translate(63.623047 0)"/>
       <use xlink:href="#DejaVuSans-32" transform="translate(127.246094 0)"/>
       <use xlink:href="#DejaVuSans-33" transform="translate(190.869141 0)"/>
       <use xlink:href="#DejaVuSans-2d" transform="translate(254.492188 0)"/>
       <use xlink:href="#DejaVuSans-30" transform="translate(290.576172 0)"/>
       <use xlink:href="#DejaVuSans-31" transform="translate(354.199219 0)"/>
      </g>
     </g>
    </g>
    <g id="xtick_5">
     <g id="line2d_9">
      <path d="M 456.993123 320.4 
L 456.993123 43.2 
" clip-path="url(#p7505eda85b)" style="fill: none; stroke-dasharray: 5.12,1.28,0.8,1.28; stroke-dashoffset: 0; stroke: #b0b0b0; stroke-width: 0.8"/>
     </g>
     <g id="line2d_10">
      <g>
       <use xlink:href="#m197e5fd41b" x="456.993123" y="320.4" style="fill: #a9a9a9; stroke: #a9a9a9; stroke-width: 0.8"/>
      </g>
     </g>
     <g id="text_5">
      <!-- 2023-07 -->
      <g style="fill: #a9a9a9" transform="translate(436.101717 334.998438) scale(0.1 -0.1)">
       <use xlink:href="#DejaVuSans-32"/>
       <use xlink:href="#DejaVuSans-30" transform="translate(63.623047 0)"/>
       <use xlink:href="#DejaVuSans-32" transform="translate(127.246094 0)"/>
       <use xlink:href="#DejaVuSans-33" transform="translate(190.869141 0)"/>
       <use xlink:href="#DejaVuSans-2d" transform="translate(254.492188 0)"/>
       <use xlink:href="#DejaVuSans-30" transform="translate(290.576172 0)"/>
       <use xlink:href="#DejaVuSans-37" transform="translate(354.199219 0)"/>
      </g>
     </g>
    </g>
    <g id="xtick_6">
     <g id="line2d_11">
      <path d="M 539.898984 320.4 
L 539.898984 43.2 
" clip-path="url(#p7505eda85b)" style="fill: none; stroke-dasharray: 5.12,1.28,0.8,1.28; stroke-dashoffset: 0; stroke: #b0b0b0; stroke-width: 0.8"/>
     </g>
     <g id="line2d_12">
      <g>
       <use xlink:href="#m197e5fd41b" x="539.898984" y="320.4" style="fill: #a9a9a9; stroke: #a9a9a9; stroke-width: 0.8"/>
      </g>
     </g>
     <g id="text_6">
      <!-- 2024-01 -->
      <g style="fill: #a9a9a9" transform="translate(519.007578 334.998438) scale(0.1 -0.1)">
       <defs>
        <path id="DejaVuSans-34" d="M 2419 4116 
L 825 1625 
L 2419 1625 
L 2419 4116 
z
M 2253 4666 
L 3047 4666 
L 3047 1625 
L 3713 1625 
L 3713 1100 
L 3047 1100 
L 3047 0 
L 2419 0 
L 2419 1100 
L 313 1100 
L 313 1709 
L 2253 4666 
z
" transform="scale(0.015625)"/>
       </defs>
       <use xlink:href="#DejaVuSans-32"/>
       <use xlink:href="#DejaVuSans-30" transform="translate(63.623047 0)"/>
       <use xlink:href="#DejaVuSans-32" transform="translate(127.246094 0)"/>
       <use xlink:href="#DejaVuSans-34" transform="translate(190.869141 0)"/>
       <use xlink:href="#DejaVuSans-2d" transform="translate(254.492188 0)"/>
       <use xlink:href="#DejaVuSans-30" transform="translate(290.576172 0)"/>
       <use xlink:href="#DejaVuSans-31" transform="translate(354.199219 0)"/>
      </g>
     </g>
    </g>
    <g id="xtick_7">
     <g id="line2d_13">
      <path d="M 621.903694 320.4 
L 621.903694 43.2 
" clip-path="url(#p7505eda85b)" style="fill: none; stroke-dasharray: 5.12,1.28,0.8,1.28; stroke-dashoffset: 0; stroke: #b0b0b0; stroke-width: 0.8"/>
     </g>
     <g id="line2d_14">
      <g>
       <use xlink:href="#m197e5fd41b" x="621.903694" y="320.4" style="fill: #a9a9a9; stroke: #a9a9a9; stroke-width: 0.8"/>
      </g>
     </g>
     <g id="text_7">
      <!-- 2024-07 -->
      <g style="fill: #a9a9a9" transform="translate(601.012288 334.998438) scale(0.1 -0.1)">
       <use xlink:href="#DejaVuSans-32"/>
       <use xlink:href="#DejaVuSans-30" transform="translate(63.623047 0)"/>
       <use xlink:href="#DejaVuSans-32" transform="translate(127.246094 0)"/>
       <use xlink:href="#DejaVuSans-34" transform="translate(190.869141 0)"/>
       <use xlink:href="#DejaVuSans-2d" transform="translate(254.492188 0)"/>
       <use xlink:href="#DejaVuSans-30" transform="translate(290.576172 0)"/>
       <use xlink:href="#DejaVuSans-37" transform="translate(354.199219 0)"/>
      </g>
     </g>
    </g>
    <g id="xtick_8">
     <g id="line2d_15">
      <path d="M 704.809555 320.4 
L 704.809555 43.2 
" clip-path="url(#p7505eda85b)" style="fill: none; stroke-dasharray: 5.12,1.28,0.8,1.28; stroke-dashoffset: 0; stroke: #b0b0b0; stroke-width: 0.8"/>
     </g>
     <g id="line2d_16">
      <g>
       <use xlink:href="#m197e5fd41b" x="704.809555" y="320.4" style="fill: #a9a9a9; stroke: #a9a9a9; stroke-width: 0.8"/>
      </g>
     </g>
     <g id="text_8">
      <!-- 2025-01 -->
      <g style="fill: #a9a9a9" transform="translate(683.918149 334.998438) scale(0.1 -0.1)">
       <defs>
        <path id="DejaVuSans-35" d="M 691 4666 
L 3169 4666 
L 3169 4134 
L 1269 4134 
L 1269 2991 
Q 1406 3038 1543 3061 
Q 1681 3084 1819 3084 
Q 2600 3084 3056 2656 
Q 3513 2228 3513 1497 
Q 3513 744 3044 326 
Q 2575 -91 1722 -91 
Q 1428 -91 1123 -41 
Q 819 9 494 109 
L 494 744 
Q 775 591 1075 516 
Q 1375 441 1709 441 
Q 2250 441 2565 725 
Q 2881 1009 2881 1497 
Q 2881 1984 2565 2268 
Q 2250 2553 1709 2553 
Q 1456 2553 1204 2497 
Q 953 2441 691 2322 
L 691 4666 
z
" transform="scale(0.015625)"/>
       </defs>
       <use xlink:href="#DejaVuSans-32"/>
       <use xlink:href="#DejaVuSans-30" transform="translate(63.623047 0)"/>
       <use xlink:href="#DejaVuSans-32" transform="translate(127.246094 0)"/>
       <use xlink:href="#DejaVuSans-35" transform="translate(190.869141 0)"/>
       <use xlink:href="#DejaVuSans-2d" transform="translate(254.492188 0)"/>
       <use xlink:href="#DejaVuSans-30" transform="translate(290.576172 0)"/>
       <use xlink:href="#DejaVuSans-31" transform="translate(354.199219 0)"/>
      </g>
     </g>
    </g>
   </g>
   <g id="matplotlib.axis_2">
    <g id="ytick_1">
     <g id="line2d_17">
      <path d="M 108 307.833609 
L 777.6 307.833609 
" clip-path="url(#p7505eda85b)" style="fill: none; stroke-dasharray: 5.12,1.28,0.8,1.28; stroke-dashoffset: 0; stroke: #b0b0b0; stroke-width: 0.8"/>
     </g>
     <g id="line2d_18">
      <defs>
       <path id="m9a0d2351ec" d="M 0 0 
L -3.5 0 
" style="stroke: #a9a9a9; stroke-width: 0.8"/>
      </defs>
      <g>
       <use xlink:href="#m9a0d2351ec" x="108" y="307.833609" style="fill: #a9a9a9; stroke: #a9a9a9; stroke-width: 0.8"/>
      </g>
     </g>
     <g id="text_9">
      <!-- 0 -->
      <g style="fill: #a9a9a9" transform="translate(94.6375 311.632828) scale(0.1 -0.1)">
       <use xlink:href="#DejaVuSans-30"/>
      </g>
     </g>
    </g>
    <g id="ytick_2">
     <g id="line2d_19">
      <path d="M 108 274.224647 
L 777.6 274.224647 
" clip-path="url(#p7505eda85b)" style="fill: none; stroke-dasharray: 5.12,1.28,0.8,1.28; stroke-dashoffset: 0; stroke: #b0b0b0; stroke-width: 0.8"/>
     </g>
     <g id="line2d_20">
      <g>
       <use xlink:href="#m9a0d2351ec" x="108" y="274.224647" style="fill: #a9a9a9; stroke: #a9a9a9; stroke-width: 0.8"/>
      </g>
     </g>
     <g id="text_10">
      <!-- 1000 -->
      <g style="fill: #a9a9a9" transform="translate(75.55 278.023865) scale(0.1 -0.1)">
       <use xlink:href="#DejaVuSans-31"/>
       <use xlink:href="#DejaVuSans-30" transform="translate(63.623047 0)"/>
       <use xlink:href="#DejaVuSans-30" transform="translate(127.246094 0)"/>
       <use xlink:href="#DejaVuSans-30" transform="translate(190.869141 0)"/>
      </g>
     </g>
    </g>
    <g id="ytick_3">
     <g id="line2d_21">
      <path d="M 108 240.615684 
L 777.6 240.615684 
" clip-path="url(#p7505eda85b)" style="fill: none; stroke-dasharray: 5.12,1.28,0.8,1.28; stroke-dashoffset: 0; stroke: #b0b0b0; stroke-width: 0.8"/>
     </g>
     <g id="line2d_22">
      <g>
       <use xlink:href="#m9a0d2351ec" x="108" y="240.615684" style="fill: #a9a9a9; stroke: #a9a9a9; stroke-width: 0.8"/>
      </g>
     </g>
     <g id="text_11">
      <!-- 2000 -->
      <g style="fill: #a9a9a9" transform="translate(75.55 244.414903) scale(0.1 -0.1)">
       <use xlink:href="#DejaVuSans-32"/>
       <use xlink:href="#DejaVuSans-30" transform="translate(63.623047 0)"/>
       <use xlink:href="#DejaVuSans-30" transform="translate(127.246094 0)"/>
       <use xlink:href="#DejaVuSans-30" transform="translate(190.869141 0)"/>
      </g>
     </g>
    </g>
    <g id="ytick_4">
     <g id="line2d_23">
      <path d="M 108 207.006722 
L 777.6 207.006722 
" clip-path="url(#p7505eda85b)" style="fill: none; stroke-dasharray: 5.12,1.28,0.8,1.28; stroke-dashoffset: 0; stroke: #b0b0b0; stroke-width: 0.8"/>
     </g>
     <g id="line2d_24">
      <g>
       <use xlink:href="#m9a0d2351ec" x="108" y="207.006722" style="fill: #a9a9a9; stroke: #a9a9a9; stroke-width: 0.8"/>
      </g>
     </g>
     <g id="text_12">
      <!-- 3000 -->
      <g style="fill: #a9a9a9" transform="translate(75.55 210.805941) scale(0.1 -0.1)">
       <use xlink:href="#DejaVuSans-33"/>
       <use xlink:href="#DejaVuSans-30" transform="translate(63.623047 0)"/>
       <use xlink:href="#DejaVuSans-30" transform="translate(127.246094 0)"/>
       <use xlink:href="#DejaVuSans-30" transform="translate(190.869141 0)"/>
      </g>
     </g>
    </g>
    <g id="ytick_5">
     <g id="line2d_25">
      <path d="M 108 173.397759 
L 777.6 173.397759 
" clip-path="url(#p7505eda85b)" style="fill: none; stroke-dasharray: 5.12,1.28,0.8,1.28; stroke-dashoffset: 0; stroke: #b0b0b0; stroke-width: 0.8"/>
     </g>
     <g id="line2d_26">
      <g>
       <use xlink:href="#m9a0d2351ec" x="108" y="173.397759" style="fill: #a9a9a9; stroke: #a9a9a9; stroke-width: 0.8"/>
      </g>
     </g>
     <g id="text_13">
      <!-- 4000 -->
      <g style="fill: #a9a9a9" transform="translate(75.55 177.196978) scale(0.1 -0.1)">
       <use xlink:href="#DejaVuSans-34"/>
       <use xlink:href="#DejaVuSans-30" transform="translate(63.623047 0)"/>
       <use xlink:href="#DejaVuSans-30" transform="translate(127.246094 0)"/>
       <use xlink:href="#DejaVuSans-30" transform="translate(190.869141 0)"/>
      </g>
     </g>
    </g>
    <g id="ytick_6">
     <g id="line2d_27">
      <path d="M 108 139.788797 
L 777.6 139.788797 
" clip-path="url(#p7505eda85b)" style="fill: none; stroke-dasharray: 5.12,1.28,0.8,1.28; stroke-dashoffset: 0; stroke: #b0b0b0; stroke-width: 0.8"/>
     </g>
     <g id="line2d_28">
      <g>
       <use xlink:href="#m9a0d2351ec" x="108" y="139.788797" style="fill: #a9a9a9; stroke: #a9a9a9; stroke-width: 0.8"/>
      </g>
     </g>
     <g id="text_14">
      <!-- 5000 -->
      <g style="fill: #a9a9a9" transform="translate(75.55 143.588016) scale(0.1 -0.1)">
       <use xlink:href="#DejaVuSans-35"/>
       <use xlink:href="#DejaVuSans-30" transform="translate(63.623047 0)"/>
       <use xlink:href="#DejaVuSans-30" transform="translate(127.246094 0)"/>
       <use xlink:href="#DejaVuSans-30" transform="translate(190.869141 0)"/>
      </g>
     </g>
    </g>
    <g id="ytick_7">
     <g id="line2d_29">
      <path d="M 108 106.179835 
L 777.6 106.179835 
" clip-path="url(#p7505eda85b)" style="fill: none; stroke-dasharray: 5.12,1.28,0.8,1.28; stroke-dashoffset: 0; stroke: #b0b0b0; stroke-width: 0.8"/>
     </g>
     <g id="line2d_30">
      <g>
       <use xlink:href="#m9a0d2351ec" x="108" y="106.179835" style="fill: #a9a9a9; stroke: #a9a9a9; stroke-width: 0.8"/>
      </g>
     </g>
     <g id="text_15">
      <!-- 6000 -->
      <g style="fill: #a9a9a9" transform="translate(75.55 109.979053) scale(0.1 -0.1)">
       <defs>
        <path id="DejaVuSans-36" d="M 2113 2584 
Q 1688 2584 1439 2293 
Q 1191 2003 1191 1497 
Q 1191 994 1439 701 
Q 1688 409 2113 409 
Q 2538 409 2786 701 
Q 3034 994 3034 1497 
Q 3034 2003 2786 2293 
Q 2538 2584 2113 2584 
z
M 3366 4563 
L 3366 3988 
Q 3128 4100 2886 4159 
Q 2644 4219 2406 4219 
Q 1781 4219 1451 3797 
Q 1122 3375 1075 2522 
Q 1259 2794 1537 2939 
Q 1816 3084 2150 3084 
Q 2853 3084 3261 2657 
Q 3669 2231 3669 1497 
Q 3669 778 3244 343 
Q 2819 -91 2113 -91 
Q 1303 -91 875 529 
Q 447 1150 447 2328 
Q 447 3434 972 4092 
Q 1497 4750 2381 4750 
Q 2619 4750 2861 4703 
Q 3103 4656 3366 4563 
z
" transform="scale(0.015625)"/>
       </defs>
       <use xlink:href="#DejaVuSans-36"/>
       <use xlink:href="#DejaVuSans-30" transform="translate(63.623047 0)"/>
       <use xlink:href="#DejaVuSans-30" transform="translate(127.246094 0)"/>
       <use xlink:href="#DejaVuSans-30" transform="translate(190.869141 0)"/>
      </g>
     </g>
    </g>
    <g id="ytick_8">
     <g id="line2d_31">
      <path d="M 108 72.570872 
L 777.6 72.570872 
" clip-path="url(#p7505eda85b)" style="fill: none; stroke-dasharray: 5.12,1.28,0.8,1.28; stroke-dashoffset: 0; stroke: #b0b0b0; stroke-width: 0.8"/>
     </g>
     <g id="line2d_32">
      <g>
       <use xlink:href="#m9a0d2351ec" x="108" y="72.570872" style="fill: #a9a9a9; stroke: #a9a9a9; stroke-width: 0.8"/>
      </g>
     </g>
     <g id="text_16">
      <!-- 7000 -->
      <g style="fill: #a9a9a9" transform="translate(75.55 76.370091) scale(0.1 -0.1)">
       <use xlink:href="#DejaVuSans-37"/>
       <use xlink:href="#DejaVuSans-30" transform="translate(63.623047 0)"/>
       <use xlink:href="#DejaVuSans-30" transform="translate(127.246094 0)"/>
       <use xlink:href="#DejaVuSans-30" transform="translate(190.869141 0)"/>
      </g>
     </g>
    </g>
   </g>
   <g id="line2d_33">
    <path d="M 138.436364 307.732782 
L 141.139816 307.497519 
L 141.590391 307.295866 
L 143.392692 307.060603 
L 145.194994 306.690904 
L 146.096144 306.556468 
L 148.349021 306.354815 
L 149.250172 305.985116 
L 149.700747 305.380155 
L 150.151322 305.077674 
L 150.601898 304.069405 
L 151.052473 304.002187 
L 151.503048 303.632489 
L 152.404199 303.161963 
L 154.2065 301.683169 
L 156.008802 300.775727 
L 157.360528 300.137157 
L 157.811103 299.397759 
L 158.712254 298.72558 
L 159.162829 298.523926 
L 163.668582 297.851747 
L 164.119158 297.650093 
L 167.273185 297.381222 
L 169.075486 296.944305 
L 172.680089 296.440171 
L 173.130664 296.204908 
L 173.581239 296.13769 
L 174.48239 295.835209 
L 177.636417 295.297466 
L 178.537568 295.028594 
L 182.592746 294.322806 
L 183.493897 294.121152 
L 184.395047 294.087543 
L 186.197349 293.650627 
L 186.647924 293.012057 
L 187.99965 292.474313 
L 189.351376 292.104615 
L 189.801951 291.869352 
L 190.703102 291.701307 
L 192.505403 291.163564 
L 193.406554 291.096346 
L 194.307705 290.861083 
L 196.110006 290.390557 
L 196.560581 290.356949 
L 197.461732 289.920032 
L 197.912307 289.852814 
L 198.362883 289.617551 
L 203.319211 288.777327 
L 205.121513 288.239584 
L 205.572088 287.937103 
L 207.824965 287.197706 
L 208.726115 286.559136 
L 210.077841 286.290264 
L 219.990499 283.366284 
L 220.441074 283.332675 
L 221.7928 282.929368 
L 222.243375 282.929368 
L 222.693951 282.727714 
L 223.595101 282.626887 
L 224.045677 282.458842 
L 225.847978 282.391624 
L 226.749129 282.22358 
L 227.650279 281.753054 
L 229.002005 281.24892 
L 229.452581 280.946439 
L 230.353731 280.543132 
L 230.804307 280.307869 
L 231.705457 280.005388 
L 232.156033 279.870952 
L 233.057183 279.2996 
L 233.507759 278.795465 
L 234.408909 277.383889 
L 234.859485 277.249453 
L 235.31006 277.249453 
L 236.661786 276.442838 
L 237.112361 276.207575 
L 237.562937 276.106748 
L 238.013512 275.669832 
L 238.914663 275.300133 
L 239.815813 274.863217 
L 242.06869 271.939237 
L 244.772142 270.460443 
L 245.673293 269.721046 
L 246.123868 269.418565 
L 246.574443 268.779995 
L 247.025019 267.738117 
L 247.475594 267.032329 
L 247.926169 266.66263 
L 248.376744 266.460976 
L 251.981347 263.10008 
L 252.882498 262.259856 
L 255.58595 260.545799 
L 256.036525 260.377754 
L 257.388251 259.571139 
L 258.739977 258.663697 
L 260.542278 257.016858 
L 261.443429 256.647159 
L 262.34458 256.008589 
L 262.795155 255.739717 
L 263.24573 255.672499 
L 264.597456 254.899493 
L 265.048032 254.395359 
L 267.300908 253.151827 
L 267.751484 252.983782 
L 269.10321 252.042731 
L 275.86184 249.622886 
L 276.76299 248.782662 
L 278.114716 248.110483 
L 279.015867 247.53913 
L 279.917018 247.270259 
L 280.367593 246.967778 
L 280.818168 246.833342 
L 282.169894 245.9259 
L 284.422771 245.421766 
L 285.774497 244.615151 
L 287.126223 244.31267 
L 287.576798 244.211843 
L 288.928524 243.169965 
L 290.730826 242.665831 
L 291.181401 242.296132 
L 293.884853 241.355081 
L 294.786004 241.187037 
L 295.687154 240.817338 
L 298.841182 239.641024 
L 299.742332 239.506588 
L 301.094058 239.036063 
L 303.346935 237.926967 
L 305.149236 236.918698 
L 308.753839 235.406295 
L 309.204414 235.339077 
L 310.105565 234.767725 
L 311.006716 234.532462 
L 312.358442 233.994719 
L 314.160743 233.759456 
L 315.061894 233.28893 
L 315.512469 232.885623 
L 315.963044 232.045399 
L 317.765346 231.541264 
L 319.117072 230.835476 
L 320.018222 230.532995 
L 320.919373 230.06247 
L 323.622825 228.953374 
L 324.523976 228.75172 
L 325.425126 228.281195 
L 325.875702 228.079541 
L 326.326277 228.012323 
L 328.579153 226.903228 
L 329.480304 226.331875 
L 330.83203 226.063003 
L 333.084907 225.491651 
L 333.535482 225.121953 
L 334.436633 224.819472 
L 336.689509 223.91203 
L 337.140085 223.57594 
L 337.59066 223.407895 
L 338.491811 222.903761 
L 340.294112 222.332409 
L 341.195263 221.761056 
L 341.645838 221.290531 
L 342.096413 221.021659 
L 342.546989 220.920832 
L 343.448139 220.181435 
L 343.898715 220.114217 
L 344.34929 219.37482 
L 344.799865 219.173166 
L 345.250441 218.803468 
L 345.701016 218.73625 
L 346.602167 218.164897 
L 347.503317 217.862417 
L 347.953893 217.526327 
L 348.404468 217.358282 
L 350.206769 216.14836 
L 351.558495 215.442571 
L 352.459646 215.207309 
L 353.360797 214.703174 
L 353.811372 213.930168 
L 354.712523 213.257989 
L 355.163098 213.157162 
L 357.86655 211.846412 
L 358.767701 211.476714 
L 360.119427 210.334009 
L 361.020577 209.561003 
L 361.921728 209.02326 
L 362.372303 208.519125 
L 362.822879 208.216644 
L 363.724029 207.477247 
L 364.174605 207.275593 
L 365.075755 206.368152 
L 365.976906 206.065671 
L 366.878057 205.46071 
L 368.229783 204.754921 
L 368.680358 204.687703 
L 370.032084 203.948306 
L 370.933235 203.376954 
L 375.438988 201.696506 
L 375.889563 201.326807 
L 377.691865 200.621019 
L 378.14244 200.486583 
L 379.043591 199.881622 
L 379.944741 199.511923 
L 380.845892 198.873353 
L 381.747043 197.058469 
L 382.648193 195.982982 
L 383.999919 195.277194 
L 384.90107 194.907495 
L 385.351645 194.840277 
L 385.802221 194.571406 
L 388.055097 193.832009 
L 388.505673 193.630355 
L 389.406823 193.025393 
L 390.758549 192.454041 
L 391.6597 191.949907 
L 392.560851 191.412163 
L 393.011426 191.109683 
L 393.462001 190.605548 
L 394.363152 190.101414 
L 396.616029 188.857882 
L 399.319481 187.513524 
L 400.671207 187.110216 
L 402.022933 186.572473 
L 402.473508 186.236383 
L 403.374659 185.967511 
L 404.275809 185.597813 
L 404.726384 185.228114 
L 406.528686 184.589544 
L 407.429836 183.950974 
L 408.330987 183.581275 
L 409.232138 182.875487 
L 410.133288 182.606615 
L 410.583864 182.203308 
L 411.034439 182.13609 
L 411.93559 181.430301 
L 412.83674 180.959776 
L 413.287316 180.758122 
L 413.737891 180.287597 
L 416.891918 179.010456 
L 417.793069 178.607149 
L 419.144795 178.170232 
L 420.045946 178.035796 
L 420.496521 177.834142 
L 420.947096 177.766925 
L 421.848247 177.363617 
L 422.298822 177.330008 
L 424.101124 176.657829 
L 425.45285 175.683169 
L 425.903425 175.515124 
L 426.804576 175.01099 
L 427.255151 174.876554 
L 429.958603 173.330541 
L 430.409178 173.229715 
L 431.760904 172.423099 
L 433.11263 171.952574 
L 434.013781 171.650093 
L 435.816082 171.045132 
L 436.717233 170.742651 
L 438.519534 170.372953 
L 438.97011 170.171299 
L 439.87126 169.936036 
L 440.321836 169.734383 
L 440.772411 169.667165 
L 441.222986 169.431902 
L 442.124137 169.263857 
L 443.475863 168.759723 
L 444.377014 168.658896 
L 445.72874 168.356415 
L 447.981616 167.953107 
L 459.696575 164.457775 
L 460.14715 163.98725 
L 461.048301 163.617551 
L 464.652904 162.239584 
L 465.103479 161.970712 
L 466.455205 161.567405 
L 467.356356 161.332142 
L 467.806931 161.029661 
L 468.257506 160.928834 
L 468.708082 160.525527 
L 470.059808 160.256655 
L 470.960958 159.819739 
L 471.411534 159.281995 
L 473.213835 158.845079 
L 476.367862 158.172899 
L 476.818438 158.172899 
L 477.269013 157.971246 
L 479.071314 157.635156 
L 479.52189 157.433502 
L 481.324191 157.097413 
L 482.225341 156.694105 
L 483.126492 156.52606 
L 485.379369 155.954708 
L 487.18167 155.383356 
L 487.632245 155.282529 
L 488.082821 155.047266 
L 488.983971 154.812003 
L 489.885122 154.442305 
L 490.786273 154.106215 
L 491.236848 153.803734 
L 492.137999 153.534863 
L 495.742601 152.291331 
L 496.643752 152.224113 
L 498.446053 151.68637 
L 498.896629 151.417498 
L 499.797779 151.148626 
L 502.050656 150.106748 
L 502.501231 150.07314 
L 507.45756 148.291864 
L 509.710437 147.686903 
L 510.611587 147.249987 
L 511.963313 146.947506 
L 513.765615 145.468712 
L 515.567916 144.695706 
L 516.469067 144.292398 
L 519.172519 143.25052 
L 519.623094 142.948039 
L 521.875971 142.208642 
L 523.227697 141.435636 
L 523.678272 141.334809 
L 525.480573 140.32654 
L 527.282875 139.519925 
L 527.73345 139.183836 
L 528.634601 138.881355 
L 530.887477 137.73865 
L 532.239203 137.268125 
L 534.041505 136.528728 
L 535.393231 136.024593 
L 535.843806 135.856548 
L 536.744957 135.722113 
L 537.195532 135.419632 
L 538.997833 135.049933 
L 539.898984 134.680235 
L 541.701285 133.840011 
L 548.00934 131.084076 
L 549.361066 130.647159 
L 549.811641 130.344679 
L 550.712792 130.243852 
L 551.163367 129.941371 
L 552.064518 129.773326 
L 552.965669 129.33641 
L 553.416244 129.134756 
L 554.317395 128.899493 
L 555.218545 128.630621 
L 556.570271 128.126487 
L 557.921997 127.689571 
L 559.273723 127.38709 
L 561.076024 126.647693 
L 561.977175 126.143558 
L 563.779476 125.236116 
L 564.680627 125.034463 
L 565.131202 124.765591 
L 565.581778 124.664764 
L 566.933504 123.891758 
L 567.834654 123.522059 
L 569.636956 122.816271 
L 571.889832 122.043265 
L 572.790983 121.572739 
L 575.04386 120.799733 
L 577.747312 119.690638 
L 579.549613 118.850413 
L 584.055366 117.102747 
L 584.956517 116.665831 
L 585.407092 116.565004 
L 585.857668 116.329741 
L 587.659969 115.825607 
L 589.46227 114.346812 
L 589.912846 114.212377 
L 590.363421 113.943505 
L 591.715147 113.573806 
L 592.165722 113.237717 
L 592.616298 113.13689 
L 593.517448 112.565537 
L 594.869174 111.859749 
L 595.770325 111.490051 
L 596.2209 111.254788 
L 597.572626 110.952307 
L 599.825503 110.179301 
L 600.726654 109.87682 
L 602.07838 109.171032 
L 602.97953 108.734116 
L 603.880681 108.498853 
L 605.232407 107.860283 
L 609.287585 106.347879 
L 610.639311 105.507655 
L 611.089886 105.406828 
L 611.991037 104.969912 
L 612.892188 104.633822 
L 613.342763 104.230515 
L 614.243914 103.860816 
L 615.59564 103.390291 
L 616.046215 103.020592 
L 616.49679 102.986983 
L 617.397941 102.718111 
L 618.299092 102.415631 
L 618.749667 102.213977 
L 619.200242 102.146759 
L 620.551968 101.642625 
L 621.903694 101.13849 
L 623.705996 100.331875 
L 624.156571 100.264657 
L 627.761174 98.752254 
L 629.1129 98.315337 
L 630.01405 98.248119 
L 630.915201 97.878421 
L 633.618653 97.071806 
L 634.519804 97.038197 
L 638.124406 95.861883 
L 639.025557 95.391358 
L 639.476132 94.98805 
L 640.827858 94.181435 
L 641.729009 93.643692 
L 644.432461 92.769859 
L 644.883036 92.40016 
L 647.586488 91.257455 
L 649.388789 90.78693 
L 650.28994 90.383622 
L 650.740515 90.14836 
L 651.641666 89.879488 
L 652.092241 89.610616 
L 652.993392 89.442571 
L 656.597995 87.896559 
L 657.04857 87.829341 
L 657.499145 87.52686 
L 657.949721 87.358816 
L 658.400296 86.955508 
L 658.850871 86.88829 
L 660.653173 86.182502 
L 662.455474 85.745585 
L 662.906049 85.678368 
L 663.356625 85.476714 
L 663.8072 85.443105 
L 664.708351 85.140624 
L 665.158926 85.107015 
L 666.510652 84.569272 
L 668.312953 84.031528 
L 669.214104 83.359349 
L 671.016405 82.35108 
L 672.368131 81.880555 
L 675.972734 80.166498 
L 676.423309 79.931235 
L 676.873885 79.494318 
L 679.126761 78.889357 
L 680.478487 78.284396 
L 681.379638 78.049133 
L 681.830213 77.81387 
L 682.280789 77.444172 
L 684.08309 76.973646 
L 684.533665 76.637557 
L 690.391145 74.520192 
L 691.292295 74.352147 
L 693.545172 73.646359 
L 694.446323 73.27666 
L 695.347473 72.940571 
L 696.248624 72.705308 
L 696.699199 72.503654 
L 697.149775 72.503654 
L 698.050925 72.133956 
L 698.952076 71.596212 
L 701.204953 70.823206 
L 702.556679 70.352681 
L 703.007254 70.285463 
L 703.908405 69.915764 
L 705.260131 69.613284 
L 706.611857 69.176367 
L 707.062432 69.07554 
L 707.513007 68.773059 
L 708.414158 68.571406 
L 717.425664 65.983516 
L 719.678541 65.580208 
L 720.579692 65.143292 
L 721.480842 64.706375 
L 722.832568 64.303067 
L 727.338322 62.656228 
L 727.788897 62.320139 
L 729.140623 62.017658 
L 730.041774 61.748786 
L 730.942924 61.31187 
L 731.3935 60.908562 
L 732.29465 60.606082 
L 732.745226 60.33721 
L 733.646376 60.236383 
L 736.800404 59.36255 
L 738.15213 59.093678 
L 740.855582 58.186236 
L 742.657883 57.312403 
L 746.713061 55.8 
L 747.163636 55.8 
L 747.163636 55.8 
" clip-path="url(#p7505eda85b)" style="fill: none; stroke: #1f77b4; stroke-width: 1.5; stroke-linecap: square"/>
   </g>
   <g id="line2d_34">
    <path d="M 138.886939 307.8 
L 142.942117 307.699173 
L 146.54672 307.531128 
L 148.349021 307.531128 
L 148.799596 307.396692 
L 151.052473 307.295866 
L 153.755925 306.993385 
L 156.459377 306.892558 
L 157.360528 306.791731 
L 160.514555 306.657295 
L 163.668582 306.556468 
L 165.921459 306.48925 
L 171.778938 306.388424 
L 174.031815 306.321206 
L 178.086993 306.220379 
L 179.889294 306.18677 
L 184.395047 306.085943 
L 186.197349 305.917898 
L 187.99965 305.884289 
L 190.703102 305.783462 
L 192.505403 305.749853 
L 194.75828 305.682635 
L 196.560581 305.514591 
L 200.615759 305.413764 
L 201.51691 305.346546 
L 203.319211 305.245719 
L 206.022663 305.144892 
L 207.824965 305.044065 
L 215.935321 304.539931 
L 219.089348 304.439104 
L 220.441074 304.304668 
L 222.693951 304.203841 
L 227.199704 303.968578 
L 231.705457 303.90136 
L 233.507759 303.699707 
L 235.31006 303.59888 
L 240.266389 303.128354 
L 243.420416 302.758656 
L 244.772142 302.691438 
L 248.376744 302.220912 
L 251.080196 302.153694 
L 252.431922 302.019258 
L 253.783648 301.918432 
L 266.399758 300.943772 
L 267.300908 300.775727 
L 270.00436 300.6749 
L 277.213566 300.237983 
L 280.367593 300.137157 
L 282.169894 299.935503 
L 284.422771 299.834676 
L 287.126223 299.733849 
L 289.3791 299.633022 
L 291.181401 299.599413 
L 293.434278 299.532195 
L 294.335428 299.397759 
L 300.643483 299.296933 
L 301.544634 299.196106 
L 306.951538 299.095279 
L 311.006716 298.893625 
L 314.160743 298.792798 
L 315.963044 298.591144 
L 319.117072 298.490317 
L 320.018222 298.322273 
L 322.271099 298.255055 
L 326.776852 298.187837 
L 328.579153 298.019792 
L 330.381455 297.986183 
L 331.733181 297.885356 
L 333.535482 297.717311 
L 338.041235 297.482049 
L 342.546989 297.381222 
L 346.602167 297.179568 
L 347.953893 297.145959 
L 348.855043 297.011523 
L 351.10792 296.910696 
L 352.009071 296.843478 
L 352.910221 296.77626 
L 353.811372 296.709042 
L 357.86655 296.641824 
L 359.218276 296.540998 
L 371.38381 295.734383 
L 373.636687 295.633556 
L 375.889563 295.566338 
L 382.197618 295.465511 
L 383.098769 295.331075 
L 389.406823 295.230248 
L 393.912577 294.994985 
L 394.813727 294.961376 
L 395.714878 294.860549 
L 397.967755 294.759723 
L 400.220631 294.692505 
L 402.473508 294.591678 
L 404.726384 294.52446 
L 408.781562 294.423633 
L 411.485014 294.322806 
L 417.793069 294.221979 
L 422.749398 293.953107 
L 424.551699 293.88589 
L 425.903425 293.785063 
L 432.21148 293.684236 
L 434.914932 293.583409 
L 443.025288 293.482582 
L 444.827589 293.448973 
L 450.234493 293.381755 
L 451.135644 293.314537 
L 457.443698 293.21371 
L 459.246 293.180101 
L 470.960958 293.079274 
L 473.66441 292.978448 
L 492.588574 292.877621 
L 494.841451 292.810403 
L 506.556409 292.743185 
L 507.45756 292.675967 
L 509.710437 292.608749 
L 511.062163 292.474313 
L 513.765615 292.373486 
L 516.919642 292.23905 
L 520.97482 292.138224 
L 523.227697 292.071006 
L 526.381724 291.970179 
L 529.986327 291.802134 
L 532.239203 291.701307 
L 534.041505 291.667698 
L 538.096683 291.566871 
L 539.898984 291.533262 
L 545.756463 291.432435 
L 547.558765 291.398826 
L 549.811641 291.297999 
L 552.515093 291.197173 
L 555.669121 291.129955 
L 556.570271 291.062737 
L 567.384079 290.96191 
L 573.241558 290.62582 
L 575.494435 290.558602 
L 576.395586 290.457775 
L 577.296736 290.390557 
L 580.901339 290.289731 
L 583.604791 290.188904 
L 588.110544 290.088077 
L 590.363421 289.852814 
L 594.869174 289.751987 
L 595.770325 289.65116 
L 600.276078 289.550333 
L 602.528955 289.483115 
L 607.485284 289.449507 
L 608.386434 289.34868 
L 613.342763 289.247853 
L 614.243914 289.180635 
L 624.156571 289.079808 
L 626.860023 288.978981 
L 633.618653 288.878154 
L 635.420954 288.844545 
L 639.476132 288.777327 
L 640.377283 288.6765 
L 646.234762 288.575674 
L 648.487639 288.508456 
L 656.597995 288.407629 
L 657.949721 288.306802 
L 659.301447 288.205975 
L 660.653173 288.105148 
L 667.411803 288.004321 
L 670.115255 287.903494 
L 682.280789 287.802667 
L 686.335967 287.601014 
L 691.742871 287.500187 
L 692.644021 287.432969 
L 699.402651 287.365751 
L 700.303802 287.298533 
L 705.260131 287.197706 
L 707.062432 287.164097 
L 713.370487 287.06327 
L 716.073938 286.962443 
L 723.733719 286.861616 
L 725.53602 286.828007 
L 729.591198 286.727181 
L 733.195801 286.559136 
L 738.15213 286.458309 
L 741.306157 286.323873 
L 745.361335 286.223046 
L 746.262486 286.155828 
L 747.163636 286.155828 
L 747.163636 286.155828 
" clip-path="url(#p7505eda85b)" style="fill: none; stroke: #ff7f0e; stroke-width: 1.5; stroke-linecap: square"/>
   </g>
   <g id="patch_3">
    <path d="M 108 320.4 
L 108 43.2 
" style="fill: none; stroke: #a9a9a9; stroke-width: 0.8; stroke-linejoin: miter; stroke-linecap: square"/>
   </g>
   <g id="patch_4">
    <path d="M 777.6 320.4 
L 777.6 43.2 
" style="fill: none"/>
   </g>
   <g id="patch_5">
    <path d="M 108 320.4 
L 777.6 320.4 
" style="fill: none; stroke: #a9a9a9; stroke-width: 0.8; stroke-linejoin: miter; stroke-linecap: square"/>
   </g>
   <g id="patch_6">
    <path d="M 108 43.2 
L 777.6 43.2 
" style="fill: none"/>
   </g>
   <g id="text_17">
    <!-- get_subscribe history -->
    <g style="fill: #a9a9a9" transform="translate(378.6075 37.2) scale(0.12 -0.12)">
     <defs>
      <path id="DejaVuSans-67" d="M 2906 1791 
Q 2906 2416 2648 2759 
Q 2391 3103 1925 3103 
Q 1463 3103 1205 2759 
Q 947 2416 947 1791 
Q 947 1169 1205 825 
Q 1463 481 1925 481 
Q 2391 481 2648 825 
Q 2906 1169 2906 1791 
z
M 3481 434 
Q 3481 -459 3084 -895 
Q 2688 -1331 1869 -1331 
Q 1566 -1331 1297 -1286 
Q 1028 -1241 775 -1147 
L 775 -588 
Q 1028 -725 1275 -790 
Q 1522 -856 1778 -856 
Q 2344 -856 2625 -561 
Q 2906 -266 2906 331 
L 2906 616 
Q 2728 306 2450 153 
Q 2172 0 1784 0 
Q 1141 0 747 490 
Q 353 981 353 1791 
Q 353 2603 747 3093 
Q 1141 3584 1784 3584 
Q 2172 3584 2450 3431 
Q 2728 3278 2906 2969 
L 2906 3500 
L 3481 3500 
L 3481 434 
z
" transform="scale(0.015625)"/>
      <path id="DejaVuSans-65" d="M 3597 1894 
L 3597 1613 
L 953 1613 
Q 991 1019 1311 708 
Q 1631 397 2203 397 
Q 2534 397 2845 478 
Q 3156 559 3463 722 
L 3463 178 
Q 3153 47 2828 -22 
Q 2503 -91 2169 -91 
Q 1331 -91 842 396 
Q 353 884 353 1716 
Q 353 2575 817 3079 
Q 1281 3584 2069 3584 
Q 2775 3584 3186 3129 
Q 3597 2675 3597 1894 
z
M 3022 2063 
Q 3016 2534 2758 2815 
Q 2500 3097 2075 3097 
Q 1594 3097 1305 2825 
Q 1016 2553 972 2059 
L 3022 2063 
z
" transform="scale(0.015625)"/>
      <path id="DejaVuSans-74" d="M 1172 4494 
L 1172 3500 
L 2356 3500 
L 2356 3053 
L 1172 3053 
L 1172 1153 
Q 1172 725 1289 603 
Q 1406 481 1766 481 
L 2356 481 
L 2356 0 
L 1766 0 
Q 1100 0 847 248 
Q 594 497 594 1153 
L 594 3053 
L 172 3053 
L 172 3500 
L 594 3500 
L 594 4494 
L 1172 4494 
z
" transform="scale(0.015625)"/>
      <path id="DejaVuSans-5f" d="M 3263 -1063 
L 3263 -1509 
L -63 -1509 
L -63 -1063 
L 3263 -1063 
z
" transform="scale(0.015625)"/>
      <path id="DejaVuSans-73" d="M 2834 3397 
L 2834 2853 
Q 2591 2978 2328 3040 
Q 2066 3103 1784 3103 
Q 1356 3103 1142 2972 
Q 928 2841 928 2578 
Q 928 2378 1081 2264 
Q 1234 2150 1697 2047 
L 1894 2003 
Q 2506 1872 2764 1633 
Q 3022 1394 3022 966 
Q 3022 478 2636 193 
Q 2250 -91 1575 -91 
Q 1294 -91 989 -36 
Q 684 19 347 128 
L 347 722 
Q 666 556 975 473 
Q 1284 391 1588 391 
Q 1994 391 2212 530 
Q 2431 669 2431 922 
Q 2431 1156 2273 1281 
Q 2116 1406 1581 1522 
L 1381 1569 
Q 847 1681 609 1914 
Q 372 2147 372 2553 
Q 372 3047 722 3315 
Q 1072 3584 1716 3584 
Q 2034 3584 2315 3537 
Q 2597 3491 2834 3397 
z
" transform="scale(0.015625)"/>
      <path id="DejaVuSans-75" d="M 544 1381 
L 544 3500 
L 1119 3500 
L 1119 1403 
Q 1119 906 1312 657 
Q 1506 409 1894 409 
Q 2359 409 2629 706 
Q 2900 1003 2900 1516 
L 2900 3500 
L 3475 3500 
L 3475 0 
L 2900 0 
L 2900 538 
Q 2691 219 2414 64 
Q 2138 -91 1772 -91 
Q 1169 -91 856 284 
Q 544 659 544 1381 
z
M 1991 3584 
L 1991 3584 
z
" transform="scale(0.015625)"/>
      <path id="DejaVuSans-62" d="M 3116 1747 
Q 3116 2381 2855 2742 
Q 2594 3103 2138 3103 
Q 1681 3103 1420 2742 
Q 1159 2381 1159 1747 
Q 1159 1113 1420 752 
Q 1681 391 2138 391 
Q 2594 391 2855 752 
Q 3116 1113 3116 1747 
z
M 1159 2969 
Q 1341 3281 1617 3432 
Q 1894 3584 2278 3584 
Q 2916 3584 3314 3078 
Q 3713 2572 3713 1747 
Q 3713 922 3314 415 
Q 2916 -91 2278 -91 
Q 1894 -91 1617 61 
Q 1341 213 1159 525 
L 1159 0 
L 581 0 
L 581 4863 
L 1159 4863 
L 1159 2969 
z
" transform="scale(0.015625)"/>
      <path id="DejaVuSans-63" d="M 3122 3366 
L 3122 2828 
Q 2878 2963 2633 3030 
Q 2388 3097 2138 3097 
Q 1578 3097 1268 2742 
Q 959 2388 959 1747 
Q 959 1106 1268 751 
Q 1578 397 2138 397 
Q 2388 397 2633 464 
Q 2878 531 3122 666 
L 3122 134 
Q 2881 22 2623 -34 
Q 2366 -91 2075 -91 
Q 1284 -91 818 406 
Q 353 903 353 1747 
Q 353 2603 823 3093 
Q 1294 3584 2113 3584 
Q 2378 3584 2631 3529 
Q 2884 3475 3122 3366 
z
" transform="scale(0.015625)"/>
      <path id="DejaVuSans-72" d="M 2631 2963 
Q 2534 3019 2420 3045 
Q 2306 3072 2169 3072 
Q 1681 3072 1420 2755 
Q 1159 2438 1159 1844 
L 1159 0 
L 581 0 
L 581 3500 
L 1159 3500 
L 1159 2956 
Q 1341 3275 1631 3429 
Q 1922 3584 2338 3584 
Q 2397 3584 2469 3576 
Q 2541 3569 2628 3553 
L 2631 2963 
z
" transform="scale(0.015625)"/>
      <path id="DejaVuSans-69" d="M 603 3500 
L 1178 3500 
L 1178 0 
L 603 0 
L 603 3500 
z
M 603 4863 
L 1178 4863 
L 1178 4134 
L 603 4134 
L 603 4863 
z
" transform="scale(0.015625)"/>
      <path id="DejaVuSans-20" transform="scale(0.015625)"/>
      <path id="DejaVuSans-68" d="M 3513 2113 
L 3513 0 
L 2938 0 
L 2938 2094 
Q 2938 2591 2744 2837 
Q 2550 3084 2163 3084 
Q 1697 3084 1428 2787 
Q 1159 2491 1159 1978 
L 1159 0 
L 581 0 
L 581 4863 
L 1159 4863 
L 1159 2956 
Q 1366 3272 1645 3428 
Q 1925 3584 2291 3584 
Q 2894 3584 3203 3211 
Q 3513 2838 3513 2113 
z
" transform="scale(0.015625)"/>
      <path id="DejaVuSans-6f" d="M 1959 3097 
Q 1497 3097 1228 2736 
Q 959 2375 959 1747 
Q 959 1119 1226 758 
Q 1494 397 1959 397 
Q 2419 397 2687 759 
Q 2956 1122 2956 1747 
Q 2956 2369 2687 2733 
Q 2419 3097 1959 3097 
z
M 1959 3584 
Q 2709 3584 3137 3096 
Q 3566 2609 3566 1747 
Q 3566 888 3137 398 
Q 2709 -91 1959 -91 
Q 1206 -91 779 398 
Q 353 888 353 1747 
Q 353 2609 779 3096 
Q 1206 3584 1959 3584 
z
" transform="scale(0.015625)"/>
      <path id="DejaVuSans-79" d="M 2059 -325 
Q 1816 -950 1584 -1140 
Q 1353 -1331 966 -1331 
L 506 -1331 
L 506 -850 
L 844 -850 
Q 1081 -850 1212 -737 
Q 1344 -625 1503 -206 
L 1606 56 
L 191 3500 
L 800 3500 
L 1894 763 
L 2988 3500 
L 3597 3500 
L 2059 -325 
z
" transform="scale(0.015625)"/>
     </defs>
     <use xlink:href="#DejaVuSans-67"/>
     <use xlink:href="#DejaVuSans-65" transform="translate(63.476562 0)"/>
     <use xlink:href="#DejaVuSans-74" transform="translate(125 0)"/>
     <use xlink:href="#DejaVuSans-5f" transform="translate(164.208984 0)"/>
     <use xlink:href="#DejaVuSans-73" transform="translate(214.208984 0)"/>
     <use xlink:href="#DejaVuSans-75" transform="translate(266.308594 0)"/>
     <use xlink:href="#DejaVuSans-62" transform="translate(329.6875 0)"/>
     <use xlink:href="#DejaVuSans-73" transform="translate(393.164062 0)"/>
     <use xlink:href="#DejaVuSans-63" transform="translate(445.263672 0)"/>
     <use xlink:href="#DejaVuSans-72" transform="translate(500.244141 0)"/>
     <use xlink:href="#DejaVuSans-69" transform="translate(541.357422 0)"/>
     <use xlink:href="#DejaVuSans-62" transform="translate(569.140625 0)"/>
     <use xlink:href="#DejaVuSans-65" transform="translate(632.617188 0)"/>
     <use xlink:href="#DejaVuSans-20" transform="translate(694.140625 0)"/>
     <use xlink:href="#DejaVuSans-68" transform="translate(725.927734 0)"/>
     <use xlink:href="#DejaVuSans-69" transform="translate(789.306641 0)"/>
     <use xlink:href="#DejaVuSans-73" transform="translate(817.089844 0)"/>
     <use xlink:href="#DejaVuSans-74" transform="translate(869.189453 0)"/>
     <use xlink:href="#DejaVuSans-6f" transform="translate(908.398438 0)"/>
     <use xlink:href="#DejaVuSans-72" transform="translate(969.580078 0)"/>
     <use xlink:href="#DejaVuSans-79" transform="translate(1010.693359 0)"/>
    </g>
   </g>
   <g id="legend_1">
    <g id="line2d_35">
     <path d="M 815.08 328.498438 
L 825.08 328.498438 
L 835.08 328.498438 
" style="fill: none; stroke: #1f77b4; stroke-width: 1.5; stroke-linecap: square"/>
    </g>
    <g id="text_18">
     <!-- star -->
     <g style="fill: #a9a9a9" transform="translate(843.08 331.998438) scale(0.1 -0.1)">
      <defs>
       <path id="DejaVuSans-61" d="M 2194 1759 
Q 1497 1759 1228 1600 
Q 959 1441 959 1056 
Q 959 750 1161 570 
Q 1363 391 1709 391 
Q 2188 391 2477 730 
Q 2766 1069 2766 1631 
L 2766 1759 
L 2194 1759 
z
M 3341 1997 
L 3341 0 
L 2766 0 
L 2766 531 
Q 2569 213 2275 61 
Q 1981 -91 1556 -91 
Q 1019 -91 701 211 
Q 384 513 384 1019 
Q 384 1609 779 1909 
Q 1175 2209 1959 2209 
L 2766 2209 
L 2766 2266 
Q 2766 2663 2505 2880 
Q 2244 3097 1772 3097 
Q 1472 3097 1187 3025 
Q 903 2953 641 2809 
L 641 3341 
Q 956 3463 1253 3523 
Q 1550 3584 1831 3584 
Q 2591 3584 2966 3190 
Q 3341 2797 3341 1997 
z
" transform="scale(0.015625)"/>
      </defs>
      <use xlink:href="#DejaVuSans-73"/>
      <use xlink:href="#DejaVuSans-74" transform="translate(52.099609 0)"/>
      <use xlink:href="#DejaVuSans-61" transform="translate(91.308594 0)"/>
      <use xlink:href="#DejaVuSans-72" transform="translate(152.587891 0)"/>
     </g>
    </g>
    <g id="line2d_36">
     <path d="M 815.08 343.176562 
L 825.08 343.176562 
L 835.08 343.176562 
" style="fill: none; stroke: #ff7f0e; stroke-width: 1.5; stroke-linecap: square"/>
    </g>
    <g id="text_19">
     <!-- fork -->
     <g style="fill: #a9a9a9" transform="translate(843.08 346.676562) scale(0.1 -0.1)">
      <defs>
       <path id="DejaVuSans-66" d="M 2375 4863 
L 2375 4384 
L 1825 4384 
Q 1516 4384 1395 4259 
Q 1275 4134 1275 3809 
L 1275 3500 
L 2222 3500 
L 2222 3053 
L 1275 3053 
L 1275 0 
L 697 0 
L 697 3053 
L 147 3053 
L 147 3500 
L 697 3500 
L 697 3744 
Q 697 4328 969 4595 
Q 1241 4863 1831 4863 
L 2375 4863 
z
" transform="scale(0.015625)"/>
       <path id="DejaVuSans-6b" d="M 581 4863 
L 1159 4863 
L 1159 1991 
L 2875 3500 
L 3609 3500 
L 1753 1863 
L 3688 0 
L 2938 0 
L 1159 1709 
L 1159 0 
L 581 0 
L 581 4863 
z
" transform="scale(0.015625)"/>
      </defs>
      <use xlink:href="#DejaVuSans-66"/>
      <use xlink:href="#DejaVuSans-6f" transform="translate(35.205078 0)"/>
      <use xlink:href="#DejaVuSans-72" transform="translate(96.386719 0)"/>
      <use xlink:href="#DejaVuSans-6b" transform="translate(137.5 0)"/>
     </g>
    </g>
   </g>
  </g>
 </g>
 <defs>
  <clipPath id="p7505eda85b">
   <rect x="108" y="43.2" width="669.6" height="277.2"/>
  </clipPath>
 </defs>
</svg>
