<?xml version="1.0" encoding="utf-8" standalone="no"?>
<!DOCTYPE svg PUBLIC "-//W3C//DTD SVG 1.1//EN"
  "http://www.w3.org/Graphics/SVG/1.1/DTD/svg11.dtd">
<svg xmlns:xlink="http://www.w3.org/1999/xlink" width="864pt" height="360pt" viewBox="0 0 864 360" xmlns="http://www.w3.org/2000/svg" version="1.1">
 <metadata>
  <rdf:RDF xmlns:dc="http://purl.org/dc/elements/1.1/" xmlns:cc="http://creativecommons.org/ns#" xmlns:rdf="http://www.w3.org/1999/02/22-rdf-syntax-ns#">
   <cc:Work>
    <dc:type rdf:resource="http://purl.org/dc/dcmitype/StillImage"/>
    <dc:date>2025-03-24T08:15:16.441270</dc:date>
    <dc:format>image/svg+xml</dc:format>
    <dc:creator>
     <cc:Agent>
      <dc:title>Matplotlib v3.10.1, https://matplotlib.org/</dc:title>
     </cc:Agent>
    </dc:creator>
   </cc:Work>
  </rdf:RDF>
 </metadata>
 <defs>
  <style type="text/css">*{stroke-linejoin: round; stroke-linecap: butt}</style>
 </defs>
 <g id="figure_1">
  <g id="patch_1">
   <path d="M 0 360 
L 864 360 
L 864 0 
L 0 0 
L 0 360 
z
" style="fill: none; opacity: 0"/>
  </g>
  <g id="axes_1">
   <g id="patch_2">
    <path d="M 108 320.4 
L 777.6 320.4 
L 777.6 43.2 
L 108 43.2 
L 108 320.4 
z
" style="fill: none; opacity: 0"/>
   </g>
   <g id="matplotlib.axis_1">
    <g id="xtick_1">
     <g id="line2d_1">
      <path d="M 127.980257 320.4 
L 127.980257 43.2 
" clip-path="url(#pb134248a55)" style="fill: none; stroke-dasharray: 5.12,1.28,0.8,1.28; stroke-dashoffset: 0; stroke: #b0b0b0; stroke-width: 0.8"/>
     </g>
     <g id="line2d_2">
      <defs>
       <path id="m59f2f73d28" d="M 0 0 
L 0 3.5 
" style="stroke: #a9a9a9; stroke-width: 0.8"/>
      </defs>
      <g>
       <use xlink:href="#m59f2f73d28" x="127.980257" y="320.4" style="fill: #a9a9a9; stroke: #a9a9a9; stroke-width: 0.8"/>
      </g>
     </g>
     <g id="text_1">
      <!-- 2021-07 -->
      <g style="fill: #a9a9a9" transform="translate(107.08885 334.998438) scale(0.1 -0.1)">
       <defs>
        <path id="DejaVuSans-32" d="M 1228 531 
L 3431 531 
L 3431 0 
L 469 0 
L 469 531 
Q 828 903 1448 1529 
Q 2069 2156 2228 2338 
Q 2531 2678 2651 2914 
Q 2772 3150 2772 3378 
Q 2772 3750 2511 3984 
Q 2250 4219 1831 4219 
Q 1534 4219 1204 4116 
Q 875 4013 500 3803 
L 500 4441 
Q 881 4594 1212 4672 
Q 1544 4750 1819 4750 
Q 2544 4750 2975 4387 
Q 3406 4025 3406 3419 
Q 3406 3131 3298 2873 
Q 3191 2616 2906 2266 
Q 2828 2175 2409 1742 
Q 1991 1309 1228 531 
z
" transform="scale(0.015625)"/>
        <path id="DejaVuSans-30" d="M 2034 4250 
Q 1547 4250 1301 3770 
Q 1056 3291 1056 2328 
Q 1056 1369 1301 889 
Q 1547 409 2034 409 
Q 2525 409 2770 889 
Q 3016 1369 3016 2328 
Q 3016 3291 2770 3770 
Q 2525 4250 2034 4250 
z
M 2034 4750 
Q 2819 4750 3233 4129 
Q 3647 3509 3647 2328 
Q 3647 1150 3233 529 
Q 2819 -91 2034 -91 
Q 1250 -91 836 529 
Q 422 1150 422 2328 
Q 422 3509 836 4129 
Q 1250 4750 2034 4750 
z
" transform="scale(0.015625)"/>
        <path id="DejaVuSans-31" d="M 794 531 
L 1825 531 
L 1825 4091 
L 703 3866 
L 703 4441 
L 1819 4666 
L 2450 4666 
L 2450 531 
L 3481 531 
L 3481 0 
L 794 0 
L 794 531 
z
" transform="scale(0.015625)"/>
        <path id="DejaVuSans-2d" d="M 313 2009 
L 1997 2009 
L 1997 1497 
L 313 1497 
L 313 2009 
z
" transform="scale(0.015625)"/>
        <path id="DejaVuSans-37" d="M 525 4666 
L 3525 4666 
L 3525 4397 
L 1831 0 
L 1172 0 
L 2766 4134 
L 525 4134 
L 525 4666 
z
" transform="scale(0.015625)"/>
       </defs>
       <use xlink:href="#DejaVuSans-32"/>
       <use xlink:href="#DejaVuSans-30" transform="translate(63.623047 0)"/>
       <use xlink:href="#DejaVuSans-32" transform="translate(127.246094 0)"/>
       <use xlink:href="#DejaVuSans-31" transform="translate(190.869141 0)"/>
       <use xlink:href="#DejaVuSans-2d" transform="translate(254.492188 0)"/>
       <use xlink:href="#DejaVuSans-30" transform="translate(290.576172 0)"/>
       <use xlink:href="#DejaVuSans-37" transform="translate(354.199219 0)"/>
      </g>
     </g>
    </g>
    <g id="xtick_2">
     <g id="line2d_3">
      <path d="M 211.629113 320.4 
L 211.629113 43.2 
" clip-path="url(#pb134248a55)" style="fill: none; stroke-dasharray: 5.12,1.28,0.8,1.28; stroke-dashoffset: 0; stroke: #b0b0b0; stroke-width: 0.8"/>
     </g>
     <g id="line2d_4">
      <g>
       <use xlink:href="#m59f2f73d28" x="211.629113" y="320.4" style="fill: #a9a9a9; stroke: #a9a9a9; stroke-width: 0.8"/>
      </g>
     </g>
     <g id="text_2">
      <!-- 2022-01 -->
      <g style="fill: #a9a9a9" transform="translate(190.737706 334.998438) scale(0.1 -0.1)">
       <use xlink:href="#DejaVuSans-32"/>
       <use xlink:href="#DejaVuSans-30" transform="translate(63.623047 0)"/>
       <use xlink:href="#DejaVuSans-32" transform="translate(127.246094 0)"/>
       <use xlink:href="#DejaVuSans-32" transform="translate(190.869141 0)"/>
       <use xlink:href="#DejaVuSans-2d" transform="translate(254.492188 0)"/>
       <use xlink:href="#DejaVuSans-30" transform="translate(290.576172 0)"/>
       <use xlink:href="#DejaVuSans-31" transform="translate(354.199219 0)"/>
      </g>
     </g>
    </g>
    <g id="xtick_3">
     <g id="line2d_5">
      <path d="M 293.914129 320.4 
L 293.914129 43.2 
" clip-path="url(#pb134248a55)" style="fill: none; stroke-dasharray: 5.12,1.28,0.8,1.28; stroke-dashoffset: 0; stroke: #b0b0b0; stroke-width: 0.8"/>
     </g>
     <g id="line2d_6">
      <g>
       <use xlink:href="#m59f2f73d28" x="293.914129" y="320.4" style="fill: #a9a9a9; stroke: #a9a9a9; stroke-width: 0.8"/>
      </g>
     </g>
     <g id="text_3">
      <!-- 2022-07 -->
      <g style="fill: #a9a9a9" transform="translate(273.022722 334.998438) scale(0.1 -0.1)">
       <use xlink:href="#DejaVuSans-32"/>
       <use xlink:href="#DejaVuSans-30" transform="translate(63.623047 0)"/>
       <use xlink:href="#DejaVuSans-32" transform="translate(127.246094 0)"/>
       <use xlink:href="#DejaVuSans-32" transform="translate(190.869141 0)"/>
       <use xlink:href="#DejaVuSans-2d" transform="translate(254.492188 0)"/>
       <use xlink:href="#DejaVuSans-30" transform="translate(290.576172 0)"/>
       <use xlink:href="#DejaVuSans-37" transform="translate(354.199219 0)"/>
      </g>
     </g>
    </g>
    <g id="xtick_4">
     <g id="line2d_7">
      <path d="M 377.562985 320.4 
L 377.562985 43.2 
" clip-path="url(#pb134248a55)" style="fill: none; stroke-dasharray: 5.12,1.28,0.8,1.28; stroke-dashoffset: 0; stroke: #b0b0b0; stroke-width: 0.8"/>
     </g>
     <g id="line2d_8">
      <g>
       <use xlink:href="#m59f2f73d28" x="377.562985" y="320.4" style="fill: #a9a9a9; stroke: #a9a9a9; stroke-width: 0.8"/>
      </g>
     </g>
     <g id="text_4">
      <!-- 2023-01 -->
      <g style="fill: #a9a9a9" transform="translate(356.671578 334.998438) scale(0.1 -0.1)">
       <defs>
        <path id="DejaVuSans-33" d="M 2597 2516 
Q 3050 2419 3304 2112 
Q 3559 1806 3559 1356 
Q 3559 666 3084 287 
Q 2609 -91 1734 -91 
Q 1441 -91 1130 -33 
Q 819 25 488 141 
L 488 750 
Q 750 597 1062 519 
Q 1375 441 1716 441 
Q 2309 441 2620 675 
Q 2931 909 2931 1356 
Q 2931 1769 2642 2001 
Q 2353 2234 1838 2234 
L 1294 2234 
L 1294 2753 
L 1863 2753 
Q 2328 2753 2575 2939 
Q 2822 3125 2822 3475 
Q 2822 3834 2567 4026 
Q 2313 4219 1838 4219 
Q 1578 4219 1281 4162 
Q 984 4106 628 3988 
L 628 4550 
Q 988 4650 1302 4700 
Q 1616 4750 1894 4750 
Q 2613 4750 3031 4423 
Q 3450 4097 3450 3541 
Q 3450 3153 3228 2886 
Q 3006 2619 2597 2516 
z
" transform="scale(0.015625)"/>
       </defs>
       <use xlink:href="#DejaVuSans-32"/>
       <use xlink:href="#DejaVuSans-30" transform="translate(63.623047 0)"/>
       <use xlink:href="#DejaVuSans-32" transform="translate(127.246094 0)"/>
       <use xlink:href="#DejaVuSans-33" transform="translate(190.869141 0)"/>
       <use xlink:href="#DejaVuSans-2d" transform="translate(254.492188 0)"/>
       <use xlink:href="#DejaVuSans-30" transform="translate(290.576172 0)"/>
       <use xlink:href="#DejaVuSans-31" transform="translate(354.199219 0)"/>
      </g>
     </g>
    </g>
    <g id="xtick_5">
     <g id="line2d_9">
      <path d="M 459.848001 320.4 
L 459.848001 43.2 
" clip-path="url(#pb134248a55)" style="fill: none; stroke-dasharray: 5.12,1.28,0.8,1.28; stroke-dashoffset: 0; stroke: #b0b0b0; stroke-width: 0.8"/>
     </g>
     <g id="line2d_10">
      <g>
       <use xlink:href="#m59f2f73d28" x="459.848001" y="320.4" style="fill: #a9a9a9; stroke: #a9a9a9; stroke-width: 0.8"/>
      </g>
     </g>
     <g id="text_5">
      <!-- 2023-07 -->
      <g style="fill: #a9a9a9" transform="translate(438.956594 334.998438) scale(0.1 -0.1)">
       <use xlink:href="#DejaVuSans-32"/>
       <use xlink:href="#DejaVuSans-30" transform="translate(63.623047 0)"/>
       <use xlink:href="#DejaVuSans-32" transform="translate(127.246094 0)"/>
       <use xlink:href="#DejaVuSans-33" transform="translate(190.869141 0)"/>
       <use xlink:href="#DejaVuSans-2d" transform="translate(254.492188 0)"/>
       <use xlink:href="#DejaVuSans-30" transform="translate(290.576172 0)"/>
       <use xlink:href="#DejaVuSans-37" transform="translate(354.199219 0)"/>
      </g>
     </g>
    </g>
    <g id="xtick_6">
     <g id="line2d_11">
      <path d="M 543.496857 320.4 
L 543.496857 43.2 
" clip-path="url(#pb134248a55)" style="fill: none; stroke-dasharray: 5.12,1.28,0.8,1.28; stroke-dashoffset: 0; stroke: #b0b0b0; stroke-width: 0.8"/>
     </g>
     <g id="line2d_12">
      <g>
       <use xlink:href="#m59f2f73d28" x="543.496857" y="320.4" style="fill: #a9a9a9; stroke: #a9a9a9; stroke-width: 0.8"/>
      </g>
     </g>
     <g id="text_6">
      <!-- 2024-01 -->
      <g style="fill: #a9a9a9" transform="translate(522.60545 334.998438) scale(0.1 -0.1)">
       <defs>
        <path id="DejaVuSans-34" d="M 2419 4116 
L 825 1625 
L 2419 1625 
L 2419 4116 
z
M 2253 4666 
L 3047 4666 
L 3047 1625 
L 3713 1625 
L 3713 1100 
L 3047 1100 
L 3047 0 
L 2419 0 
L 2419 1100 
L 313 1100 
L 313 1709 
L 2253 4666 
z
" transform="scale(0.015625)"/>
       </defs>
       <use xlink:href="#DejaVuSans-32"/>
       <use xlink:href="#DejaVuSans-30" transform="translate(63.623047 0)"/>
       <use xlink:href="#DejaVuSans-32" transform="translate(127.246094 0)"/>
       <use xlink:href="#DejaVuSans-34" transform="translate(190.869141 0)"/>
       <use xlink:href="#DejaVuSans-2d" transform="translate(254.492188 0)"/>
       <use xlink:href="#DejaVuSans-30" transform="translate(290.576172 0)"/>
       <use xlink:href="#DejaVuSans-31" transform="translate(354.199219 0)"/>
      </g>
     </g>
    </g>
    <g id="xtick_7">
     <g id="line2d_13">
      <path d="M 626.236486 320.4 
L 626.236486 43.2 
" clip-path="url(#pb134248a55)" style="fill: none; stroke-dasharray: 5.12,1.28,0.8,1.28; stroke-dashoffset: 0; stroke: #b0b0b0; stroke-width: 0.8"/>
     </g>
     <g id="line2d_14">
      <g>
       <use xlink:href="#m59f2f73d28" x="626.236486" y="320.4" style="fill: #a9a9a9; stroke: #a9a9a9; stroke-width: 0.8"/>
      </g>
     </g>
     <g id="text_7">
      <!-- 2024-07 -->
      <g style="fill: #a9a9a9" transform="translate(605.34508 334.998438) scale(0.1 -0.1)">
       <use xlink:href="#DejaVuSans-32"/>
       <use xlink:href="#DejaVuSans-30" transform="translate(63.623047 0)"/>
       <use xlink:href="#DejaVuSans-32" transform="translate(127.246094 0)"/>
       <use xlink:href="#DejaVuSans-34" transform="translate(190.869141 0)"/>
       <use xlink:href="#DejaVuSans-2d" transform="translate(254.492188 0)"/>
       <use xlink:href="#DejaVuSans-30" transform="translate(290.576172 0)"/>
       <use xlink:href="#DejaVuSans-37" transform="translate(354.199219 0)"/>
      </g>
     </g>
    </g>
    <g id="xtick_8">
     <g id="line2d_15">
      <path d="M 709.885342 320.4 
L 709.885342 43.2 
" clip-path="url(#pb134248a55)" style="fill: none; stroke-dasharray: 5.12,1.28,0.8,1.28; stroke-dashoffset: 0; stroke: #b0b0b0; stroke-width: 0.8"/>
     </g>
     <g id="line2d_16">
      <g>
       <use xlink:href="#m59f2f73d28" x="709.885342" y="320.4" style="fill: #a9a9a9; stroke: #a9a9a9; stroke-width: 0.8"/>
      </g>
     </g>
     <g id="text_8">
      <!-- 2025-01 -->
      <g style="fill: #a9a9a9" transform="translate(688.993936 334.998438) scale(0.1 -0.1)">
       <defs>
        <path id="DejaVuSans-35" d="M 691 4666 
L 3169 4666 
L 3169 4134 
L 1269 4134 
L 1269 2991 
Q 1406 3038 1543 3061 
Q 1681 3084 1819 3084 
Q 2600 3084 3056 2656 
Q 3513 2228 3513 1497 
Q 3513 744 3044 326 
Q 2575 -91 1722 -91 
Q 1428 -91 1123 -41 
Q 819 9 494 109 
L 494 744 
Q 775 591 1075 516 
Q 1375 441 1709 441 
Q 2250 441 2565 725 
Q 2881 1009 2881 1497 
Q 2881 1984 2565 2268 
Q 2250 2553 1709 2553 
Q 1456 2553 1204 2497 
Q 953 2441 691 2322 
L 691 4666 
z
" transform="scale(0.015625)"/>
       </defs>
       <use xlink:href="#DejaVuSans-32"/>
       <use xlink:href="#DejaVuSans-30" transform="translate(63.623047 0)"/>
       <use xlink:href="#DejaVuSans-32" transform="translate(127.246094 0)"/>
       <use xlink:href="#DejaVuSans-35" transform="translate(190.869141 0)"/>
       <use xlink:href="#DejaVuSans-2d" transform="translate(254.492188 0)"/>
       <use xlink:href="#DejaVuSans-30" transform="translate(290.576172 0)"/>
       <use xlink:href="#DejaVuSans-31" transform="translate(354.199219 0)"/>
      </g>
     </g>
    </g>
   </g>
   <g id="matplotlib.axis_2">
    <g id="ytick_1">
     <g id="line2d_17">
      <path d="M 108 307.833853 
L 777.6 307.833853 
" clip-path="url(#pb134248a55)" style="fill: none; stroke-dasharray: 5.12,1.28,0.8,1.28; stroke-dashoffset: 0; stroke: #b0b0b0; stroke-width: 0.8"/>
     </g>
     <g id="line2d_18">
      <defs>
       <path id="me1b2034801" d="M 0 0 
L -3.5 0 
" style="stroke: #a9a9a9; stroke-width: 0.8"/>
      </defs>
      <g>
       <use xlink:href="#me1b2034801" x="108" y="307.833853" style="fill: #a9a9a9; stroke: #a9a9a9; stroke-width: 0.8"/>
      </g>
     </g>
     <g id="text_9">
      <!-- 0 -->
      <g style="fill: #a9a9a9" transform="translate(94.6375 311.633072) scale(0.1 -0.1)">
       <use xlink:href="#DejaVuSans-30"/>
      </g>
     </g>
    </g>
    <g id="ytick_2">
     <g id="line2d_19">
      <path d="M 108 273.981085 
L 777.6 273.981085 
" clip-path="url(#pb134248a55)" style="fill: none; stroke-dasharray: 5.12,1.28,0.8,1.28; stroke-dashoffset: 0; stroke: #b0b0b0; stroke-width: 0.8"/>
     </g>
     <g id="line2d_20">
      <g>
       <use xlink:href="#me1b2034801" x="108" y="273.981085" style="fill: #a9a9a9; stroke: #a9a9a9; stroke-width: 0.8"/>
      </g>
     </g>
     <g id="text_10">
      <!-- 1000 -->
      <g style="fill: #a9a9a9" transform="translate(75.55 277.780304) scale(0.1 -0.1)">
       <use xlink:href="#DejaVuSans-31"/>
       <use xlink:href="#DejaVuSans-30" transform="translate(63.623047 0)"/>
       <use xlink:href="#DejaVuSans-30" transform="translate(127.246094 0)"/>
       <use xlink:href="#DejaVuSans-30" transform="translate(190.869141 0)"/>
      </g>
     </g>
    </g>
    <g id="ytick_3">
     <g id="line2d_21">
      <path d="M 108 240.128318 
L 777.6 240.128318 
" clip-path="url(#pb134248a55)" style="fill: none; stroke-dasharray: 5.12,1.28,0.8,1.28; stroke-dashoffset: 0; stroke: #b0b0b0; stroke-width: 0.8"/>
     </g>
     <g id="line2d_22">
      <g>
       <use xlink:href="#me1b2034801" x="108" y="240.128318" style="fill: #a9a9a9; stroke: #a9a9a9; stroke-width: 0.8"/>
      </g>
     </g>
     <g id="text_11">
      <!-- 2000 -->
      <g style="fill: #a9a9a9" transform="translate(75.55 243.927537) scale(0.1 -0.1)">
       <use xlink:href="#DejaVuSans-32"/>
       <use xlink:href="#DejaVuSans-30" transform="translate(63.623047 0)"/>
       <use xlink:href="#DejaVuSans-30" transform="translate(127.246094 0)"/>
       <use xlink:href="#DejaVuSans-30" transform="translate(190.869141 0)"/>
      </g>
     </g>
    </g>
    <g id="ytick_4">
     <g id="line2d_23">
      <path d="M 108 206.275551 
L 777.6 206.275551 
" clip-path="url(#pb134248a55)" style="fill: none; stroke-dasharray: 5.12,1.28,0.8,1.28; stroke-dashoffset: 0; stroke: #b0b0b0; stroke-width: 0.8"/>
     </g>
     <g id="line2d_24">
      <g>
       <use xlink:href="#me1b2034801" x="108" y="206.275551" style="fill: #a9a9a9; stroke: #a9a9a9; stroke-width: 0.8"/>
      </g>
     </g>
     <g id="text_12">
      <!-- 3000 -->
      <g style="fill: #a9a9a9" transform="translate(75.55 210.07477) scale(0.1 -0.1)">
       <use xlink:href="#DejaVuSans-33"/>
       <use xlink:href="#DejaVuSans-30" transform="translate(63.623047 0)"/>
       <use xlink:href="#DejaVuSans-30" transform="translate(127.246094 0)"/>
       <use xlink:href="#DejaVuSans-30" transform="translate(190.869141 0)"/>
      </g>
     </g>
    </g>
    <g id="ytick_5">
     <g id="line2d_25">
      <path d="M 108 172.422783 
L 777.6 172.422783 
" clip-path="url(#pb134248a55)" style="fill: none; stroke-dasharray: 5.12,1.28,0.8,1.28; stroke-dashoffset: 0; stroke: #b0b0b0; stroke-width: 0.8"/>
     </g>
     <g id="line2d_26">
      <g>
       <use xlink:href="#me1b2034801" x="108" y="172.422783" style="fill: #a9a9a9; stroke: #a9a9a9; stroke-width: 0.8"/>
      </g>
     </g>
     <g id="text_13">
      <!-- 4000 -->
      <g style="fill: #a9a9a9" transform="translate(75.55 176.222002) scale(0.1 -0.1)">
       <use xlink:href="#DejaVuSans-34"/>
       <use xlink:href="#DejaVuSans-30" transform="translate(63.623047 0)"/>
       <use xlink:href="#DejaVuSans-30" transform="translate(127.246094 0)"/>
       <use xlink:href="#DejaVuSans-30" transform="translate(190.869141 0)"/>
      </g>
     </g>
    </g>
    <g id="ytick_6">
     <g id="line2d_27">
      <path d="M 108 138.570016 
L 777.6 138.570016 
" clip-path="url(#pb134248a55)" style="fill: none; stroke-dasharray: 5.12,1.28,0.8,1.28; stroke-dashoffset: 0; stroke: #b0b0b0; stroke-width: 0.8"/>
     </g>
     <g id="line2d_28">
      <g>
       <use xlink:href="#me1b2034801" x="108" y="138.570016" style="fill: #a9a9a9; stroke: #a9a9a9; stroke-width: 0.8"/>
      </g>
     </g>
     <g id="text_14">
      <!-- 5000 -->
      <g style="fill: #a9a9a9" transform="translate(75.55 142.369235) scale(0.1 -0.1)">
       <use xlink:href="#DejaVuSans-35"/>
       <use xlink:href="#DejaVuSans-30" transform="translate(63.623047 0)"/>
       <use xlink:href="#DejaVuSans-30" transform="translate(127.246094 0)"/>
       <use xlink:href="#DejaVuSans-30" transform="translate(190.869141 0)"/>
      </g>
     </g>
    </g>
    <g id="ytick_7">
     <g id="line2d_29">
      <path d="M 108 104.717249 
L 777.6 104.717249 
" clip-path="url(#pb134248a55)" style="fill: none; stroke-dasharray: 5.12,1.28,0.8,1.28; stroke-dashoffset: 0; stroke: #b0b0b0; stroke-width: 0.8"/>
     </g>
     <g id="line2d_30">
      <g>
       <use xlink:href="#me1b2034801" x="108" y="104.717249" style="fill: #a9a9a9; stroke: #a9a9a9; stroke-width: 0.8"/>
      </g>
     </g>
     <g id="text_15">
      <!-- 6000 -->
      <g style="fill: #a9a9a9" transform="translate(75.55 108.516468) scale(0.1 -0.1)">
       <defs>
        <path id="DejaVuSans-36" d="M 2113 2584 
Q 1688 2584 1439 2293 
Q 1191 2003 1191 1497 
Q 1191 994 1439 701 
Q 1688 409 2113 409 
Q 2538 409 2786 701 
Q 3034 994 3034 1497 
Q 3034 2003 2786 2293 
Q 2538 2584 2113 2584 
z
M 3366 4563 
L 3366 3988 
Q 3128 4100 2886 4159 
Q 2644 4219 2406 4219 
Q 1781 4219 1451 3797 
Q 1122 3375 1075 2522 
Q 1259 2794 1537 2939 
Q 1816 3084 2150 3084 
Q 2853 3084 3261 2657 
Q 3669 2231 3669 1497 
Q 3669 778 3244 343 
Q 2819 -91 2113 -91 
Q 1303 -91 875 529 
Q 447 1150 447 2328 
Q 447 3434 972 4092 
Q 1497 4750 2381 4750 
Q 2619 4750 2861 4703 
Q 3103 4656 3366 4563 
z
" transform="scale(0.015625)"/>
       </defs>
       <use xlink:href="#DejaVuSans-36"/>
       <use xlink:href="#DejaVuSans-30" transform="translate(63.623047 0)"/>
       <use xlink:href="#DejaVuSans-30" transform="translate(127.246094 0)"/>
       <use xlink:href="#DejaVuSans-30" transform="translate(190.869141 0)"/>
      </g>
     </g>
    </g>
    <g id="ytick_8">
     <g id="line2d_31">
      <path d="M 108 70.864481 
L 777.6 70.864481 
" clip-path="url(#pb134248a55)" style="fill: none; stroke-dasharray: 5.12,1.28,0.8,1.28; stroke-dashoffset: 0; stroke: #b0b0b0; stroke-width: 0.8"/>
     </g>
     <g id="line2d_32">
      <g>
       <use xlink:href="#me1b2034801" x="108" y="70.864481" style="fill: #a9a9a9; stroke: #a9a9a9; stroke-width: 0.8"/>
      </g>
     </g>
     <g id="text_16">
      <!-- 7000 -->
      <g style="fill: #a9a9a9" transform="translate(75.55 74.6637) scale(0.1 -0.1)">
       <use xlink:href="#DejaVuSans-37"/>
       <use xlink:href="#DejaVuSans-30" transform="translate(63.623047 0)"/>
       <use xlink:href="#DejaVuSans-30" transform="translate(127.246094 0)"/>
       <use xlink:href="#DejaVuSans-30" transform="translate(190.869141 0)"/>
      </g>
     </g>
    </g>
   </g>
   <g id="line2d_33">
    <path d="M 138.436364 307.732294 
L 141.164044 307.495325 
L 141.618657 307.292208 
L 143.43711 307.055239 
L 145.255564 306.682859 
L 146.164791 306.547448 
L 148.437857 306.344331 
L 149.347084 305.971951 
L 149.801697 305.362601 
L 150.256311 305.057926 
L 150.710924 304.00849 
L 151.165537 303.940785 
L 151.620151 303.568404 
L 152.529377 303.094465 
L 154.347831 301.604944 
L 156.166284 300.690919 
L 157.530124 300.047716 
L 157.984738 299.302955 
L 158.893964 298.6259 
L 159.348578 298.422783 
L 163.894711 297.745728 
L 164.349324 297.542611 
L 167.531618 297.271789 
L 169.350071 296.831703 
L 172.986978 296.323912 
L 173.441591 296.086943 
L 173.896205 296.019237 
L 174.805431 295.714562 
L 177.987725 295.172918 
L 178.896952 294.902096 
L 182.988472 294.191188 
L 183.897698 293.988071 
L 184.806925 293.954218 
L 186.625379 293.514132 
L 187.079992 292.87093 
L 188.443832 292.329285 
L 189.807672 291.956905 
L 190.262285 291.719936 
L 191.171512 291.550672 
L 192.989965 291.009027 
L 193.899192 290.941322 
L 194.808419 290.704352 
L 196.626872 290.230414 
L 197.081486 290.196561 
L 197.990712 289.756475 
L 198.445326 289.688769 
L 198.899939 289.4518 
L 203.900686 288.605481 
L 205.719139 288.063837 
L 206.173752 287.759162 
L 208.446819 287.014401 
L 209.356046 286.371198 
L 210.719886 286.100376 
L 220.72138 283.155185 
L 221.175993 283.121333 
L 222.539833 282.715099 
L 222.994446 282.715099 
L 223.44906 282.511983 
L 224.358286 282.410425 
L 224.8129 282.241161 
L 226.631353 282.173455 
L 227.54058 282.004191 
L 228.449807 281.530253 
L 229.813647 281.022461 
L 230.26826 280.717786 
L 231.177487 280.311553 
L 231.6321 280.074584 
L 232.541327 279.769909 
L 232.99594 279.634498 
L 233.905167 279.059001 
L 234.35978 278.551209 
L 235.269007 277.129393 
L 235.72362 276.993982 
L 236.178233 276.993982 
L 237.542073 276.181515 
L 237.996687 275.944546 
L 238.4513 275.842988 
L 238.905914 275.402902 
L 239.81514 275.030521 
L 240.724367 274.590435 
L 242.997434 271.645244 
L 245.725114 270.155723 
L 246.63434 269.410962 
L 247.088954 269.106287 
L 247.543567 268.463084 
L 247.99818 267.413649 
L 248.452794 266.70274 
L 248.907407 266.33036 
L 249.362021 266.127243 
L 252.998927 262.741967 
L 253.908154 261.895648 
L 256.635834 260.169156 
L 257.090447 259.999893 
L 258.454287 259.187426 
L 259.818128 258.273401 
L 261.636581 256.614616 
L 262.545808 256.242235 
L 263.455034 255.599033 
L 263.909648 255.328211 
L 264.364261 255.260505 
L 265.728101 254.481891 
L 266.182714 253.9741 
L 268.455781 252.721548 
L 268.910394 252.552284 
L 270.274235 251.604406 
L 277.093435 249.167007 
L 278.002661 248.320688 
L 279.366501 247.643632 
L 280.275728 247.068135 
L 281.184955 246.797313 
L 281.639568 246.492638 
L 282.094182 246.357227 
L 283.458022 245.443203 
L 285.731088 244.901558 
L 287.094928 244.089092 
L 288.458768 243.784417 
L 288.913382 243.682859 
L 290.277222 242.633423 
L 292.095675 242.125631 
L 292.550289 241.753251 
L 295.277969 240.805373 
L 296.187195 240.63611 
L 297.096422 240.263729 
L 300.278715 239.078882 
L 301.187942 238.943471 
L 302.551782 238.469533 
L 304.824849 237.352391 
L 306.643302 236.336808 
L 310.280209 234.813434 
L 310.734822 234.745728 
L 311.644049 234.170231 
L 312.553276 233.933262 
L 313.917116 233.391617 
L 315.735569 233.154648 
L 316.644796 232.680709 
L 317.099409 232.274476 
L 317.554023 231.428157 
L 319.372476 230.920365 
L 320.736316 230.209457 
L 321.645543 229.904782 
L 322.55477 229.430844 
L 325.28245 228.313702 
L 326.191676 228.110586 
L 327.100903 227.636647 
L 327.555516 227.43353 
L 328.01013 227.365825 
L 330.283196 226.248684 
L 331.192423 225.673186 
L 332.556263 225.402364 
L 334.374717 224.894573 
L 334.82933 224.86072 
L 335.283943 224.48834 
L 336.19317 224.183665 
L 338.466237 223.26964 
L 338.92085 222.931112 
L 339.375463 222.761848 
L 340.28469 222.254057 
L 342.103143 221.67856 
L 343.01237 221.103063 
L 343.466984 220.629124 
L 343.921597 220.358302 
L 344.37621 220.256744 
L 345.285437 219.511983 
L 345.74005 219.444277 
L 346.194664 218.699516 
L 346.649277 218.4964 
L 347.10389 218.124019 
L 347.558504 218.056314 
L 348.46773 217.480817 
L 349.376957 217.176142 
L 349.83157 216.837614 
L 350.286184 216.66835 
L 352.104637 215.449651 
L 353.468477 214.738743 
L 354.377704 214.501773 
L 355.286931 213.993982 
L 355.741544 213.215368 
L 356.650771 212.538313 
L 357.105384 212.436754 
L 359.833064 211.116497 
L 360.742291 210.744116 
L 362.106131 209.593122 
L 363.015357 208.814508 
L 363.924584 208.272864 
L 364.379198 207.765073 
L 364.833811 207.460398 
L 365.743038 206.715637 
L 366.197651 206.51252 
L 367.106878 205.598495 
L 368.016104 205.293821 
L 368.925331 204.684471 
L 370.289171 203.973563 
L 370.743784 203.905857 
L 372.107624 203.161096 
L 373.016851 202.585599 
L 377.562985 200.892961 
L 378.017598 200.52058 
L 379.836051 199.809672 
L 380.290665 199.674261 
L 381.199891 199.064911 
L 382.109118 198.692531 
L 383.018345 198.049328 
L 383.927571 196.221279 
L 384.836798 195.13799 
L 386.200638 194.427082 
L 387.109865 194.054702 
L 387.564478 193.986996 
L 388.019092 193.716174 
L 390.292158 192.971413 
L 390.746772 192.768297 
L 391.655998 192.125094 
L 393.019838 191.549597 
L 393.929065 191.041805 
L 394.838292 190.500161 
L 395.292905 190.195486 
L 395.747519 189.687695 
L 396.656745 189.179903 
L 398.929812 187.927351 
L 401.657492 186.539387 
L 403.021332 186.133154 
L 404.385172 185.59151 
L 404.839785 185.252982 
L 405.749012 184.98216 
L 406.658239 184.60978 
L 407.112852 184.237399 
L 408.931306 183.594197 
L 409.840532 182.950994 
L 410.749759 182.578614 
L 411.658986 181.867706 
L 412.568212 181.596883 
L 413.022826 181.19065 
L 413.477439 181.122945 
L 414.386666 180.412037 
L 415.295892 179.938098 
L 415.750506 179.734981 
L 416.205119 179.261042 
L 419.387413 177.974637 
L 420.296639 177.568404 
L 421.660479 177.128318 
L 422.569706 176.992907 
L 423.024319 176.78979 
L 423.478933 176.722085 
L 424.388159 176.315852 
L 424.842773 176.281999 
L 426.661226 175.604944 
L 428.025066 174.623213 
L 428.47968 174.453949 
L 429.388906 173.946158 
L 429.84352 173.810747 
L 432.5712 172.25352 
L 433.025813 172.151961 
L 434.389653 171.339495 
L 435.753493 170.865556 
L 436.66272 170.560881 
L 438.481173 169.951531 
L 439.3904 169.646857 
L 441.208853 169.274476 
L 441.663467 169.071359 
L 442.11808 169.003654 
L 443.027307 168.597421 
L 443.48192 168.529715 
L 443.936533 168.292746 
L 444.84576 168.123482 
L 446.2096 167.61569 
L 447.118827 167.514132 
L 448.482667 167.209457 
L 450.755734 166.803224 
L 462.575681 163.282536 
L 463.030294 162.808598 
L 463.939521 162.436217 
L 467.576427 161.048254 
L 468.031041 160.777431 
L 469.394881 160.371198 
L 470.304108 160.134229 
L 470.758721 159.829554 
L 471.213334 159.727996 
L 471.667948 159.321762 
L 473.031788 159.05094 
L 473.941014 158.610854 
L 474.395628 158.06921 
L 476.214081 157.629124 
L 479.396374 156.952069 
L 479.850988 156.952069 
L 480.305601 156.748952 
L 482.124055 156.410425 
L 482.578668 156.207308 
L 484.397121 155.86878 
L 485.306348 155.462547 
L 486.215575 155.293283 
L 488.488641 154.717786 
L 490.307095 154.142289 
L 490.761708 154.040731 
L 491.216322 153.803761 
L 492.125548 153.566792 
L 493.034775 153.194412 
L 493.944002 152.855884 
L 494.398615 152.551209 
L 495.307842 152.280387 
L 498.944748 151.027834 
L 499.853975 150.960129 
L 501.672429 150.418485 
L 502.127042 150.147663 
L 503.036269 149.87684 
L 505.309335 148.827405 
L 505.763949 148.793552 
L 510.764695 146.999355 
L 513.037762 146.390005 
L 513.946989 145.949919 
L 515.310829 145.645244 
L 517.129282 144.155723 
L 518.947736 143.377109 
L 519.856962 142.970876 
L 522.584643 141.92144 
L 523.039256 141.616765 
L 525.312323 140.872004 
L 526.676163 140.093391 
L 527.130776 139.991832 
L 529.403843 138.73928 
L 530.767683 138.12993 
L 531.222296 137.791402 
L 532.131523 137.486728 
L 534.40459 136.335733 
L 535.76843 135.861795 
L 537.586883 135.117034 
L 538.950723 134.609242 
L 539.405336 134.439979 
L 540.314563 134.304567 
L 540.769176 133.999893 
L 542.58763 133.627512 
L 543.496857 133.255132 
L 545.31531 132.408812 
L 551.679897 129.632886 
L 553.043737 129.1928 
L 553.49835 128.888125 
L 554.407577 128.786566 
L 554.86219 128.481891 
L 555.771417 128.312628 
L 556.680644 127.872542 
L 557.135257 127.669425 
L 557.58987 127.60172 
L 558.499097 127.297045 
L 561.68139 126.179903 
L 563.04523 125.875228 
L 564.863684 125.130467 
L 565.772911 124.622676 
L 567.591364 123.708651 
L 568.500591 123.505535 
L 568.955204 123.234713 
L 569.409817 123.133154 
L 570.773657 122.354541 
L 571.682884 121.98216 
L 573.501337 121.271252 
L 575.774404 120.492638 
L 576.683631 120.0187 
L 578.956698 119.240086 
L 581.684378 118.122945 
L 583.502831 117.276625 
L 588.048965 115.516282 
L 588.503578 115.211607 
L 590.322031 114.602257 
L 590.776645 114.602257 
L 591.685871 114.196024 
L 593.504325 112.706502 
L 593.958938 112.571091 
L 594.413551 112.300269 
L 595.777392 111.927888 
L 596.232005 111.589361 
L 596.686618 111.487802 
L 597.595845 110.912305 
L 598.959685 110.201397 
L 599.868912 109.829017 
L 600.323525 109.592047 
L 601.687365 109.287372 
L 603.960432 108.508759 
L 604.869658 108.204084 
L 606.233499 107.493176 
L 607.142725 107.05309 
L 608.051952 106.81612 
L 609.415792 106.172918 
L 613.507312 104.649543 
L 614.871152 103.803224 
L 615.325765 103.701666 
L 616.234992 103.26158 
L 617.144219 102.923052 
L 617.598832 102.516819 
L 618.508059 102.144438 
L 619.871899 101.6705 
L 620.326512 101.298119 
L 620.781126 101.264267 
L 621.690352 100.993444 
L 622.599579 100.688769 
L 623.054192 100.485653 
L 623.508806 100.417947 
L 624.872646 99.910156 
L 626.236486 99.402364 
L 628.054939 98.589898 
L 628.509553 98.522192 
L 632.146459 96.998818 
L 633.510299 96.558732 
L 634.419526 96.491026 
L 635.328753 96.118646 
L 638.056433 95.306179 
L 638.96566 95.272327 
L 642.602566 94.08748 
L 643.511793 93.613541 
L 643.966406 93.207308 
L 645.330246 92.394841 
L 646.239473 91.853197 
L 648.967153 90.973025 
L 649.421767 90.600645 
L 652.149447 89.449651 
L 653.9679 88.941859 
L 654.877127 88.535626 
L 655.33174 88.298657 
L 656.240967 88.027834 
L 656.69558 87.757012 
L 657.604807 87.587749 
L 661.241714 86.030521 
L 661.696327 85.962816 
L 662.15094 85.658141 
L 662.605554 85.488877 
L 663.060167 85.082644 
L 663.51478 85.014938 
L 665.333234 84.30403 
L 667.151687 83.863944 
L 667.6063 83.796239 
L 668.060914 83.593122 
L 668.515527 83.559269 
L 669.424754 83.254594 
L 669.879367 83.220742 
L 671.243207 82.679097 
L 673.061661 82.137453 
L 673.970887 81.460398 
L 675.789341 80.444815 
L 677.153181 79.970876 
L 680.790088 78.244385 
L 681.244701 78.007415 
L 681.699314 77.567329 
L 683.972381 76.95798 
L 685.336221 76.34863 
L 686.245448 76.11166 
L 686.700061 75.874691 
L 687.154674 75.502311 
L 688.973128 75.028372 
L 689.427741 74.689844 
L 695.337715 72.55712 
L 696.246941 72.387856 
L 698.520008 71.676948 
L 699.429235 71.304567 
L 700.338462 70.96604 
L 701.247688 70.72907 
L 701.702302 70.525954 
L 702.156915 70.525954 
L 703.066142 70.153573 
L 703.975368 69.611929 
L 706.248435 68.833315 
L 707.612275 68.359377 
L 708.066888 68.291671 
L 708.976115 67.919291 
L 710.339955 67.614616 
L 711.703795 67.17453 
L 712.158409 67.072972 
L 712.613022 66.768297 
L 713.522249 66.56518 
L 722.614516 63.958517 
L 724.887582 63.552284 
L 725.796809 63.112198 
L 726.706036 62.672112 
L 728.069876 62.265879 
L 732.616009 60.539387 
L 733.070623 60.20086 
L 734.434463 59.896185 
L 735.343689 59.625363 
L 736.252916 59.185277 
L 736.707529 58.779044 
L 737.616756 58.474369 
L 738.071369 58.203546 
L 738.980596 58.101988 
L 742.16289 57.221816 
L 743.52673 56.950994 
L 746.25441 56.036969 
L 746.709023 55.8 
L 747.163636 55.8 
L 747.163636 55.8 
" clip-path="url(#pb134248a55)" style="fill: none; stroke: #1f77b4; stroke-width: 1.5; stroke-linecap: square"/>
   </g>
   <g id="line2d_34">
    <path d="M 138.890977 307.8 
L 142.982497 307.698442 
L 146.619404 307.529178 
L 148.437857 307.529178 
L 148.892471 307.393767 
L 151.165537 307.292208 
L 153.893217 306.987534 
L 156.620898 306.885975 
L 157.530124 306.784417 
L 160.712418 306.649006 
L 163.894711 306.547448 
L 166.167778 306.479742 
L 172.077751 306.378184 
L 174.350818 306.310478 
L 177.533112 306.20892 
L 179.806178 306.141214 
L 184.806925 306.039656 
L 186.625379 305.870392 
L 188.443832 305.836539 
L 191.171512 305.734981 
L 192.989965 305.701128 
L 195.263032 305.633423 
L 197.081486 305.464159 
L 201.173006 305.362601 
L 202.082232 305.294895 
L 203.900686 305.193337 
L 206.628366 305.091779 
L 208.446819 304.99022 
L 216.629859 304.482429 
L 219.812153 304.38087 
L 221.175993 304.245459 
L 223.44906 304.143901 
L 227.995193 303.906932 
L 232.541327 303.839226 
L 234.35978 303.63611 
L 236.178233 303.534551 
L 241.17898 303.060613 
L 244.361274 302.688232 
L 245.725114 302.620527 
L 249.362021 302.146588 
L 252.089701 302.078882 
L 253.453541 301.943471 
L 254.817381 301.841913 
L 267.546554 300.860183 
L 268.455781 300.690919 
L 271.183461 300.589361 
L 278.457275 300.149275 
L 281.639568 300.047716 
L 283.458022 299.8446 
L 285.731088 299.743041 
L 288.458768 299.641483 
L 290.731835 299.539925 
L 292.550289 299.506072 
L 294.823355 299.438366 
L 295.732582 299.302955 
L 302.097169 299.201397 
L 303.006396 299.099839 
L 308.461756 298.99828 
L 312.553276 298.795164 
L 315.735569 298.693606 
L 317.554023 298.490489 
L 320.736316 298.388931 
L 321.645543 298.219667 
L 323.91861 298.151961 
L 328.464743 298.084256 
L 330.283196 297.914992 
L 332.10165 297.881139 
L 333.46549 297.779581 
L 335.283943 297.610317 
L 339.830077 297.373348 
L 344.37621 297.271789 
L 348.46773 297.068673 
L 349.83157 297.03482 
L 350.740797 296.899409 
L 353.013864 296.797851 
L 353.923091 296.730145 
L 354.832317 296.66244 
L 355.741544 296.594734 
L 359.833064 296.527028 
L 361.196904 296.42547 
L 373.471464 295.613004 
L 375.744531 295.511445 
L 378.017598 295.44374 
L 384.382185 295.342182 
L 385.291412 295.206771 
L 391.655998 295.105212 
L 396.202132 294.868243 
L 397.111359 294.83439 
L 398.020585 294.732832 
L 400.293652 294.631274 
L 402.566719 294.563568 
L 404.839785 294.46201 
L 407.112852 294.394304 
L 411.204372 294.292746 
L 413.932052 294.191188 
L 420.296639 294.089629 
L 425.297386 293.818807 
L 427.11584 293.751102 
L 428.47968 293.649543 
L 434.844266 293.547985 
L 437.571947 293.446427 
L 445.754987 293.344868 
L 447.57344 293.311016 
L 453.0288 293.24331 
L 453.938027 293.175605 
L 460.302614 293.074046 
L 462.121067 293.040193 
L 473.941014 292.938635 
L 475.304854 292.803224 
L 495.762455 292.701666 
L 498.035522 292.63396 
L 509.855469 292.566255 
L 510.764695 292.498549 
L 513.037762 292.430844 
L 514.401602 292.295433 
L 517.129282 292.193874 
L 520.311576 292.058463 
L 524.403096 291.956905 
L 526.676163 291.889199 
L 529.858456 291.787641 
L 533.495363 291.618377 
L 535.76843 291.516819 
L 537.586883 291.482966 
L 541.678403 291.381408 
L 543.496857 291.347555 
L 549.40683 291.245997 
L 551.225283 291.212144 
L 553.49835 291.110586 
L 556.22603 291.009027 
L 559.408324 290.941322 
L 560.31755 290.873616 
L 571.228271 290.772058 
L 577.138244 290.43353 
L 579.411311 290.365825 
L 580.320538 290.264267 
L 581.229764 290.196561 
L 584.866671 290.095003 
L 587.594351 289.993444 
L 592.140485 289.891886 
L 594.413551 289.654917 
L 598.959685 289.553358 
L 599.868912 289.4518 
L 604.415045 289.350242 
L 606.688112 289.282536 
L 611.688859 289.248684 
L 612.598085 289.147125 
L 617.598832 289.045567 
L 618.508059 288.977861 
L 628.509553 288.876303 
L 631.237233 288.774745 
L 638.056433 288.673186 
L 639.874886 288.639334 
L 643.966406 288.571628 
L 644.875633 288.47007 
L 650.785607 288.368512 
L 653.058673 288.300806 
L 661.241714 288.199248 
L 662.605554 288.097689 
L 663.969394 287.996131 
L 665.333234 287.894573 
L 672.152434 287.793015 
L 674.880114 287.691456 
L 687.154674 287.589898 
L 691.246195 287.386781 
L 696.701555 287.285223 
L 697.610781 287.217517 
L 704.429982 287.149812 
L 705.339208 287.082106 
L 710.339955 286.980548 
L 712.158409 286.946695 
L 718.522995 286.845137 
L 721.250676 286.743579 
L 728.979102 286.64202 
L 730.797556 286.608168 
L 734.889076 286.506609 
L 738.525983 286.337346 
L 743.52673 286.235787 
L 746.709023 286.100376 
L 747.163636 286.100376 
L 747.163636 286.100376 
" clip-path="url(#pb134248a55)" style="fill: none; stroke: #ff7f0e; stroke-width: 1.5; stroke-linecap: square"/>
   </g>
   <g id="patch_3">
    <path d="M 108 320.4 
L 108 43.2 
" style="fill: none; stroke: #a9a9a9; stroke-width: 0.8; stroke-linejoin: miter; stroke-linecap: square"/>
   </g>
   <g id="patch_4">
    <path d="M 777.6 320.4 
L 777.6 43.2 
" style="fill: none"/>
   </g>
   <g id="patch_5">
    <path d="M 108 320.4 
L 777.6 320.4 
" style="fill: none; stroke: #a9a9a9; stroke-width: 0.8; stroke-linejoin: miter; stroke-linecap: square"/>
   </g>
   <g id="patch_6">
    <path d="M 108 43.2 
L 777.6 43.2 
" style="fill: none"/>
   </g>
   <g id="text_17">
    <!-- get_subscribe history -->
    <g style="fill: #a9a9a9" transform="translate(378.6075 37.2) scale(0.12 -0.12)">
     <defs>
      <path id="DejaVuSans-67" d="M 2906 1791 
Q 2906 2416 2648 2759 
Q 2391 3103 1925 3103 
Q 1463 3103 1205 2759 
Q 947 2416 947 1791 
Q 947 1169 1205 825 
Q 1463 481 1925 481 
Q 2391 481 2648 825 
Q 2906 1169 2906 1791 
z
M 3481 434 
Q 3481 -459 3084 -895 
Q 2688 -1331 1869 -1331 
Q 1566 -1331 1297 -1286 
Q 1028 -1241 775 -1147 
L 775 -588 
Q 1028 -725 1275 -790 
Q 1522 -856 1778 -856 
Q 2344 -856 2625 -561 
Q 2906 -266 2906 331 
L 2906 616 
Q 2728 306 2450 153 
Q 2172 0 1784 0 
Q 1141 0 747 490 
Q 353 981 353 1791 
Q 353 2603 747 3093 
Q 1141 3584 1784 3584 
Q 2172 3584 2450 3431 
Q 2728 3278 2906 2969 
L 2906 3500 
L 3481 3500 
L 3481 434 
z
" transform="scale(0.015625)"/>
      <path id="DejaVuSans-65" d="M 3597 1894 
L 3597 1613 
L 953 1613 
Q 991 1019 1311 708 
Q 1631 397 2203 397 
Q 2534 397 2845 478 
Q 3156 559 3463 722 
L 3463 178 
Q 3153 47 2828 -22 
Q 2503 -91 2169 -91 
Q 1331 -91 842 396 
Q 353 884 353 1716 
Q 353 2575 817 3079 
Q 1281 3584 2069 3584 
Q 2775 3584 3186 3129 
Q 3597 2675 3597 1894 
z
M 3022 2063 
Q 3016 2534 2758 2815 
Q 2500 3097 2075 3097 
Q 1594 3097 1305 2825 
Q 1016 2553 972 2059 
L 3022 2063 
z
" transform="scale(0.015625)"/>
      <path id="DejaVuSans-74" d="M 1172 4494 
L 1172 3500 
L 2356 3500 
L 2356 3053 
L 1172 3053 
L 1172 1153 
Q 1172 725 1289 603 
Q 1406 481 1766 481 
L 2356 481 
L 2356 0 
L 1766 0 
Q 1100 0 847 248 
Q 594 497 594 1153 
L 594 3053 
L 172 3053 
L 172 3500 
L 594 3500 
L 594 4494 
L 1172 4494 
z
" transform="scale(0.015625)"/>
      <path id="DejaVuSans-5f" d="M 3263 -1063 
L 3263 -1509 
L -63 -1509 
L -63 -1063 
L 3263 -1063 
z
" transform="scale(0.015625)"/>
      <path id="DejaVuSans-73" d="M 2834 3397 
L 2834 2853 
Q 2591 2978 2328 3040 
Q 2066 3103 1784 3103 
Q 1356 3103 1142 2972 
Q 928 2841 928 2578 
Q 928 2378 1081 2264 
Q 1234 2150 1697 2047 
L 1894 2003 
Q 2506 1872 2764 1633 
Q 3022 1394 3022 966 
Q 3022 478 2636 193 
Q 2250 -91 1575 -91 
Q 1294 -91 989 -36 
Q 684 19 347 128 
L 347 722 
Q 666 556 975 473 
Q 1284 391 1588 391 
Q 1994 391 2212 530 
Q 2431 669 2431 922 
Q 2431 1156 2273 1281 
Q 2116 1406 1581 1522 
L 1381 1569 
Q 847 1681 609 1914 
Q 372 2147 372 2553 
Q 372 3047 722 3315 
Q 1072 3584 1716 3584 
Q 2034 3584 2315 3537 
Q 2597 3491 2834 3397 
z
" transform="scale(0.015625)"/>
      <path id="DejaVuSans-75" d="M 544 1381 
L 544 3500 
L 1119 3500 
L 1119 1403 
Q 1119 906 1312 657 
Q 1506 409 1894 409 
Q 2359 409 2629 706 
Q 2900 1003 2900 1516 
L 2900 3500 
L 3475 3500 
L 3475 0 
L 2900 0 
L 2900 538 
Q 2691 219 2414 64 
Q 2138 -91 1772 -91 
Q 1169 -91 856 284 
Q 544 659 544 1381 
z
M 1991 3584 
L 1991 3584 
z
" transform="scale(0.015625)"/>
      <path id="DejaVuSans-62" d="M 3116 1747 
Q 3116 2381 2855 2742 
Q 2594 3103 2138 3103 
Q 1681 3103 1420 2742 
Q 1159 2381 1159 1747 
Q 1159 1113 1420 752 
Q 1681 391 2138 391 
Q 2594 391 2855 752 
Q 3116 1113 3116 1747 
z
M 1159 2969 
Q 1341 3281 1617 3432 
Q 1894 3584 2278 3584 
Q 2916 3584 3314 3078 
Q 3713 2572 3713 1747 
Q 3713 922 3314 415 
Q 2916 -91 2278 -91 
Q 1894 -91 1617 61 
Q 1341 213 1159 525 
L 1159 0 
L 581 0 
L 581 4863 
L 1159 4863 
L 1159 2969 
z
" transform="scale(0.015625)"/>
      <path id="DejaVuSans-63" d="M 3122 3366 
L 3122 2828 
Q 2878 2963 2633 3030 
Q 2388 3097 2138 3097 
Q 1578 3097 1268 2742 
Q 959 2388 959 1747 
Q 959 1106 1268 751 
Q 1578 397 2138 397 
Q 2388 397 2633 464 
Q 2878 531 3122 666 
L 3122 134 
Q 2881 22 2623 -34 
Q 2366 -91 2075 -91 
Q 1284 -91 818 406 
Q 353 903 353 1747 
Q 353 2603 823 3093 
Q 1294 3584 2113 3584 
Q 2378 3584 2631 3529 
Q 2884 3475 3122 3366 
z
" transform="scale(0.015625)"/>
      <path id="DejaVuSans-72" d="M 2631 2963 
Q 2534 3019 2420 3045 
Q 2306 3072 2169 3072 
Q 1681 3072 1420 2755 
Q 1159 2438 1159 1844 
L 1159 0 
L 581 0 
L 581 3500 
L 1159 3500 
L 1159 2956 
Q 1341 3275 1631 3429 
Q 1922 3584 2338 3584 
Q 2397 3584 2469 3576 
Q 2541 3569 2628 3553 
L 2631 2963 
z
" transform="scale(0.015625)"/>
      <path id="DejaVuSans-69" d="M 603 3500 
L 1178 3500 
L 1178 0 
L 603 0 
L 603 3500 
z
M 603 4863 
L 1178 4863 
L 1178 4134 
L 603 4134 
L 603 4863 
z
" transform="scale(0.015625)"/>
      <path id="DejaVuSans-20" transform="scale(0.015625)"/>
      <path id="DejaVuSans-68" d="M 3513 2113 
L 3513 0 
L 2938 0 
L 2938 2094 
Q 2938 2591 2744 2837 
Q 2550 3084 2163 3084 
Q 1697 3084 1428 2787 
Q 1159 2491 1159 1978 
L 1159 0 
L 581 0 
L 581 4863 
L 1159 4863 
L 1159 2956 
Q 1366 3272 1645 3428 
Q 1925 3584 2291 3584 
Q 2894 3584 3203 3211 
Q 3513 2838 3513 2113 
z
" transform="scale(0.015625)"/>
      <path id="DejaVuSans-6f" d="M 1959 3097 
Q 1497 3097 1228 2736 
Q 959 2375 959 1747 
Q 959 1119 1226 758 
Q 1494 397 1959 397 
Q 2419 397 2687 759 
Q 2956 1122 2956 1747 
Q 2956 2369 2687 2733 
Q 2419 3097 1959 3097 
z
M 1959 3584 
Q 2709 3584 3137 3096 
Q 3566 2609 3566 1747 
Q 3566 888 3137 398 
Q 2709 -91 1959 -91 
Q 1206 -91 779 398 
Q 353 888 353 1747 
Q 353 2609 779 3096 
Q 1206 3584 1959 3584 
z
" transform="scale(0.015625)"/>
      <path id="DejaVuSans-79" d="M 2059 -325 
Q 1816 -950 1584 -1140 
Q 1353 -1331 966 -1331 
L 506 -1331 
L 506 -850 
L 844 -850 
Q 1081 -850 1212 -737 
Q 1344 -625 1503 -206 
L 1606 56 
L 191 3500 
L 800 3500 
L 1894 763 
L 2988 3500 
L 3597 3500 
L 2059 -325 
z
" transform="scale(0.015625)"/>
     </defs>
     <use xlink:href="#DejaVuSans-67"/>
     <use xlink:href="#DejaVuSans-65" transform="translate(63.476562 0)"/>
     <use xlink:href="#DejaVuSans-74" transform="translate(125 0)"/>
     <use xlink:href="#DejaVuSans-5f" transform="translate(164.208984 0)"/>
     <use xlink:href="#DejaVuSans-73" transform="translate(214.208984 0)"/>
     <use xlink:href="#DejaVuSans-75" transform="translate(266.308594 0)"/>
     <use xlink:href="#DejaVuSans-62" transform="translate(329.6875 0)"/>
     <use xlink:href="#DejaVuSans-73" transform="translate(393.164062 0)"/>
     <use xlink:href="#DejaVuSans-63" transform="translate(445.263672 0)"/>
     <use xlink:href="#DejaVuSans-72" transform="translate(500.244141 0)"/>
     <use xlink:href="#DejaVuSans-69" transform="translate(541.357422 0)"/>
     <use xlink:href="#DejaVuSans-62" transform="translate(569.140625 0)"/>
     <use xlink:href="#DejaVuSans-65" transform="translate(632.617188 0)"/>
     <use xlink:href="#DejaVuSans-20" transform="translate(694.140625 0)"/>
     <use xlink:href="#DejaVuSans-68" transform="translate(725.927734 0)"/>
     <use xlink:href="#DejaVuSans-69" transform="translate(789.306641 0)"/>
     <use xlink:href="#DejaVuSans-73" transform="translate(817.089844 0)"/>
     <use xlink:href="#DejaVuSans-74" transform="translate(869.189453 0)"/>
     <use xlink:href="#DejaVuSans-6f" transform="translate(908.398438 0)"/>
     <use xlink:href="#DejaVuSans-72" transform="translate(969.580078 0)"/>
     <use xlink:href="#DejaVuSans-79" transform="translate(1010.693359 0)"/>
    </g>
   </g>
   <g id="legend_1">
    <g id="line2d_35">
     <path d="M 815.08 328.498438 
L 825.08 328.498438 
L 835.08 328.498438 
" style="fill: none; stroke: #1f77b4; stroke-width: 1.5; stroke-linecap: square"/>
    </g>
    <g id="text_18">
     <!-- star -->
     <g style="fill: #a9a9a9" transform="translate(843.08 331.998438) scale(0.1 -0.1)">
      <defs>
       <path id="DejaVuSans-61" d="M 2194 1759 
Q 1497 1759 1228 1600 
Q 959 1441 959 1056 
Q 959 750 1161 570 
Q 1363 391 1709 391 
Q 2188 391 2477 730 
Q 2766 1069 2766 1631 
L 2766 1759 
L 2194 1759 
z
M 3341 1997 
L 3341 0 
L 2766 0 
L 2766 531 
Q 2569 213 2275 61 
Q 1981 -91 1556 -91 
Q 1019 -91 701 211 
Q 384 513 384 1019 
Q 384 1609 779 1909 
Q 1175 2209 1959 2209 
L 2766 2209 
L 2766 2266 
Q 2766 2663 2505 2880 
Q 2244 3097 1772 3097 
Q 1472 3097 1187 3025 
Q 903 2953 641 2809 
L 641 3341 
Q 956 3463 1253 3523 
Q 1550 3584 1831 3584 
Q 2591 3584 2966 3190 
Q 3341 2797 3341 1997 
z
" transform="scale(0.015625)"/>
      </defs>
      <use xlink:href="#DejaVuSans-73"/>
      <use xlink:href="#DejaVuSans-74" transform="translate(52.099609 0)"/>
      <use xlink:href="#DejaVuSans-61" transform="translate(91.308594 0)"/>
      <use xlink:href="#DejaVuSans-72" transform="translate(152.587891 0)"/>
     </g>
    </g>
    <g id="line2d_36">
     <path d="M 815.08 343.176562 
L 825.08 343.176562 
L 835.08 343.176562 
" style="fill: none; stroke: #ff7f0e; stroke-width: 1.5; stroke-linecap: square"/>
    </g>
    <g id="text_19">
     <!-- fork -->
     <g style="fill: #a9a9a9" transform="translate(843.08 346.676562) scale(0.1 -0.1)">
      <defs>
       <path id="DejaVuSans-66" d="M 2375 4863 
L 2375 4384 
L 1825 4384 
Q 1516 4384 1395 4259 
Q 1275 4134 1275 3809 
L 1275 3500 
L 2222 3500 
L 2222 3053 
L 1275 3053 
L 1275 0 
L 697 0 
L 697 3053 
L 147 3053 
L 147 3500 
L 697 3500 
L 697 3744 
Q 697 4328 969 4595 
Q 1241 4863 1831 4863 
L 2375 4863 
z
" transform="scale(0.015625)"/>
       <path id="DejaVuSans-6b" d="M 581 4863 
L 1159 4863 
L 1159 1991 
L 2875 3500 
L 3609 3500 
L 1753 1863 
L 3688 0 
L 2938 0 
L 1159 1709 
L 1159 0 
L 581 0 
L 581 4863 
z
" transform="scale(0.015625)"/>
      </defs>
      <use xlink:href="#DejaVuSans-66"/>
      <use xlink:href="#DejaVuSans-6f" transform="translate(35.205078 0)"/>
      <use xlink:href="#DejaVuSans-72" transform="translate(96.386719 0)"/>
      <use xlink:href="#DejaVuSans-6b" transform="translate(137.5 0)"/>
     </g>
    </g>
   </g>
  </g>
 </g>
 <defs>
  <clipPath id="pb134248a55">
   <rect x="108" y="43.2" width="669.6" height="277.2"/>
  </clipPath>
 </defs>
</svg>
