<?xml version="1.0" encoding="utf-8" standalone="no"?>
<!DOCTYPE svg PUBLIC "-//W3C//DTD SVG 1.1//EN"
  "http://www.w3.org/Graphics/SVG/1.1/DTD/svg11.dtd">
<svg xmlns:xlink="http://www.w3.org/1999/xlink" width="864pt" height="360pt" viewBox="0 0 864 360" xmlns="http://www.w3.org/2000/svg" version="1.1">
 <metadata>
  <rdf:RDF xmlns:dc="http://purl.org/dc/elements/1.1/" xmlns:cc="http://creativecommons.org/ns#" xmlns:rdf="http://www.w3.org/1999/02/22-rdf-syntax-ns#">
   <cc:Work>
    <dc:type rdf:resource="http://purl.org/dc/dcmitype/StillImage"/>
    <dc:date>2025-09-25T20:07:10.285520</dc:date>
    <dc:format>image/svg+xml</dc:format>
    <dc:creator>
     <cc:Agent>
      <dc:title>Matplotlib v3.10.6, https://matplotlib.org/</dc:title>
     </cc:Agent>
    </dc:creator>
   </cc:Work>
  </rdf:RDF>
 </metadata>
 <defs>
  <style type="text/css">*{stroke-linejoin: round; stroke-linecap: butt}</style>
 </defs>
 <g id="figure_1">
  <g id="patch_1">
   <path d="M 0 360 
L 864 360 
L 864 0 
L 0 0 
L 0 360 
z
" style="fill: none; opacity: 0"/>
  </g>
  <g id="axes_1">
   <g id="patch_2">
    <path d="M 108 320.4 
L 777.6 320.4 
L 777.6 43.2 
L 108 43.2 
L 108 320.4 
z
" style="fill: none; opacity: 0"/>
   </g>
   <g id="matplotlib.axis_1">
    <g id="xtick_1">
     <g id="line2d_1">
      <path d="M 129.249535 320.4 
L 129.249535 43.2 
" clip-path="url(#p501f995a02)" style="fill: none; stroke-dasharray: 5.12,1.28,0.8,1.28; stroke-dashoffset: 0; stroke: #b0b0b0; stroke-width: 0.8"/>
     </g>
     <g id="line2d_2">
      <defs>
       <path id="m15e2937123" d="M 0 0 
L 0 3.5 
" style="stroke: #a9a9a9; stroke-width: 0.8"/>
      </defs>
      <g>
       <use xlink:href="#m15e2937123" x="129.249535" y="320.4" style="fill: #a9a9a9; stroke: #a9a9a9; stroke-width: 0.8"/>
      </g>
     </g>
     <g id="text_1">
      <!-- 2021-07 -->
      <g style="fill: #a9a9a9" transform="translate(108.358128 334.998438) scale(0.1 -0.1)">
       <defs>
        <path id="DejaVuSans-32" d="M 1228 531 
L 3431 531 
L 3431 0 
L 469 0 
L 469 531 
Q 828 903 1448 1529 
Q 2069 2156 2228 2338 
Q 2531 2678 2651 2914 
Q 2772 3150 2772 3378 
Q 2772 3750 2511 3984 
Q 2250 4219 1831 4219 
Q 1534 4219 1204 4116 
Q 875 4013 500 3803 
L 500 4441 
Q 881 4594 1212 4672 
Q 1544 4750 1819 4750 
Q 2544 4750 2975 4387 
Q 3406 4025 3406 3419 
Q 3406 3131 3298 2873 
Q 3191 2616 2906 2266 
Q 2828 2175 2409 1742 
Q 1991 1309 1228 531 
z
" transform="scale(0.015625)"/>
        <path id="DejaVuSans-30" d="M 2034 4250 
Q 1547 4250 1301 3770 
Q 1056 3291 1056 2328 
Q 1056 1369 1301 889 
Q 1547 409 2034 409 
Q 2525 409 2770 889 
Q 3016 1369 3016 2328 
Q 3016 3291 2770 3770 
Q 2525 4250 2034 4250 
z
M 2034 4750 
Q 2819 4750 3233 4129 
Q 3647 3509 3647 2328 
Q 3647 1150 3233 529 
Q 2819 -91 2034 -91 
Q 1250 -91 836 529 
Q 422 1150 422 2328 
Q 422 3509 836 4129 
Q 1250 4750 2034 4750 
z
" transform="scale(0.015625)"/>
        <path id="DejaVuSans-31" d="M 794 531 
L 1825 531 
L 1825 4091 
L 703 3866 
L 703 4441 
L 1819 4666 
L 2450 4666 
L 2450 531 
L 3481 531 
L 3481 0 
L 794 0 
L 794 531 
z
" transform="scale(0.015625)"/>
        <path id="DejaVuSans-2d" d="M 313 2009 
L 1997 2009 
L 1997 1497 
L 313 1497 
L 313 2009 
z
" transform="scale(0.015625)"/>
        <path id="DejaVuSans-37" d="M 525 4666 
L 3525 4666 
L 3525 4397 
L 1831 0 
L 1172 0 
L 2766 4134 
L 525 4134 
L 525 4666 
z
" transform="scale(0.015625)"/>
       </defs>
       <use xlink:href="#DejaVuSans-32"/>
       <use xlink:href="#DejaVuSans-30" transform="translate(63.623047 0)"/>
       <use xlink:href="#DejaVuSans-32" transform="translate(127.246094 0)"/>
       <use xlink:href="#DejaVuSans-31" transform="translate(190.869141 0)"/>
       <use xlink:href="#DejaVuSans-2d" transform="translate(254.492188 0)"/>
       <use xlink:href="#DejaVuSans-30" transform="translate(290.576172 0)"/>
       <use xlink:href="#DejaVuSans-37" transform="translate(354.199219 0)"/>
      </g>
     </g>
    </g>
    <g id="xtick_2">
     <g id="line2d_3">
      <path d="M 202.744166 320.4 
L 202.744166 43.2 
" clip-path="url(#p501f995a02)" style="fill: none; stroke-dasharray: 5.12,1.28,0.8,1.28; stroke-dashoffset: 0; stroke: #b0b0b0; stroke-width: 0.8"/>
     </g>
     <g id="line2d_4">
      <g>
       <use xlink:href="#m15e2937123" x="202.744166" y="320.4" style="fill: #a9a9a9; stroke: #a9a9a9; stroke-width: 0.8"/>
      </g>
     </g>
     <g id="text_2">
      <!-- 2022-01 -->
      <g style="fill: #a9a9a9" transform="translate(181.85276 334.998438) scale(0.1 -0.1)">
       <use xlink:href="#DejaVuSans-32"/>
       <use xlink:href="#DejaVuSans-30" transform="translate(63.623047 0)"/>
       <use xlink:href="#DejaVuSans-32" transform="translate(127.246094 0)"/>
       <use xlink:href="#DejaVuSans-32" transform="translate(190.869141 0)"/>
       <use xlink:href="#DejaVuSans-2d" transform="translate(254.492188 0)"/>
       <use xlink:href="#DejaVuSans-30" transform="translate(290.576172 0)"/>
       <use xlink:href="#DejaVuSans-31" transform="translate(354.199219 0)"/>
      </g>
     </g>
    </g>
    <g id="xtick_3">
     <g id="line2d_5">
      <path d="M 275.040515 320.4 
L 275.040515 43.2 
" clip-path="url(#p501f995a02)" style="fill: none; stroke-dasharray: 5.12,1.28,0.8,1.28; stroke-dashoffset: 0; stroke: #b0b0b0; stroke-width: 0.8"/>
     </g>
     <g id="line2d_6">
      <g>
       <use xlink:href="#m15e2937123" x="275.040515" y="320.4" style="fill: #a9a9a9; stroke: #a9a9a9; stroke-width: 0.8"/>
      </g>
     </g>
     <g id="text_3">
      <!-- 2022-07 -->
      <g style="fill: #a9a9a9" transform="translate(254.149109 334.998438) scale(0.1 -0.1)">
       <use xlink:href="#DejaVuSans-32"/>
       <use xlink:href="#DejaVuSans-30" transform="translate(63.623047 0)"/>
       <use xlink:href="#DejaVuSans-32" transform="translate(127.246094 0)"/>
       <use xlink:href="#DejaVuSans-32" transform="translate(190.869141 0)"/>
       <use xlink:href="#DejaVuSans-2d" transform="translate(254.492188 0)"/>
       <use xlink:href="#DejaVuSans-30" transform="translate(290.576172 0)"/>
       <use xlink:href="#DejaVuSans-37" transform="translate(354.199219 0)"/>
      </g>
     </g>
    </g>
    <g id="xtick_4">
     <g id="line2d_7">
      <path d="M 348.535147 320.4 
L 348.535147 43.2 
" clip-path="url(#p501f995a02)" style="fill: none; stroke-dasharray: 5.12,1.28,0.8,1.28; stroke-dashoffset: 0; stroke: #b0b0b0; stroke-width: 0.8"/>
     </g>
     <g id="line2d_8">
      <g>
       <use xlink:href="#m15e2937123" x="348.535147" y="320.4" style="fill: #a9a9a9; stroke: #a9a9a9; stroke-width: 0.8"/>
      </g>
     </g>
     <g id="text_4">
      <!-- 2023-01 -->
      <g style="fill: #a9a9a9" transform="translate(327.64374 334.998438) scale(0.1 -0.1)">
       <defs>
        <path id="DejaVuSans-33" d="M 2597 2516 
Q 3050 2419 3304 2112 
Q 3559 1806 3559 1356 
Q 3559 666 3084 287 
Q 2609 -91 1734 -91 
Q 1441 -91 1130 -33 
Q 819 25 488 141 
L 488 750 
Q 750 597 1062 519 
Q 1375 441 1716 441 
Q 2309 441 2620 675 
Q 2931 909 2931 1356 
Q 2931 1769 2642 2001 
Q 2353 2234 1838 2234 
L 1294 2234 
L 1294 2753 
L 1863 2753 
Q 2328 2753 2575 2939 
Q 2822 3125 2822 3475 
Q 2822 3834 2567 4026 
Q 2313 4219 1838 4219 
Q 1578 4219 1281 4162 
Q 984 4106 628 3988 
L 628 4550 
Q 988 4650 1302 4700 
Q 1616 4750 1894 4750 
Q 2613 4750 3031 4423 
Q 3450 4097 3450 3541 
Q 3450 3153 3228 2886 
Q 3006 2619 2597 2516 
z
" transform="scale(0.015625)"/>
       </defs>
       <use xlink:href="#DejaVuSans-32"/>
       <use xlink:href="#DejaVuSans-30" transform="translate(63.623047 0)"/>
       <use xlink:href="#DejaVuSans-32" transform="translate(127.246094 0)"/>
       <use xlink:href="#DejaVuSans-33" transform="translate(190.869141 0)"/>
       <use xlink:href="#DejaVuSans-2d" transform="translate(254.492188 0)"/>
       <use xlink:href="#DejaVuSans-30" transform="translate(290.576172 0)"/>
       <use xlink:href="#DejaVuSans-31" transform="translate(354.199219 0)"/>
      </g>
     </g>
    </g>
    <g id="xtick_5">
     <g id="line2d_9">
      <path d="M 420.831496 320.4 
L 420.831496 43.2 
" clip-path="url(#p501f995a02)" style="fill: none; stroke-dasharray: 5.12,1.28,0.8,1.28; stroke-dashoffset: 0; stroke: #b0b0b0; stroke-width: 0.8"/>
     </g>
     <g id="line2d_10">
      <g>
       <use xlink:href="#m15e2937123" x="420.831496" y="320.4" style="fill: #a9a9a9; stroke: #a9a9a9; stroke-width: 0.8"/>
      </g>
     </g>
     <g id="text_5">
      <!-- 2023-07 -->
      <g style="fill: #a9a9a9" transform="translate(399.94009 334.998438) scale(0.1 -0.1)">
       <use xlink:href="#DejaVuSans-32"/>
       <use xlink:href="#DejaVuSans-30" transform="translate(63.623047 0)"/>
       <use xlink:href="#DejaVuSans-32" transform="translate(127.246094 0)"/>
       <use xlink:href="#DejaVuSans-33" transform="translate(190.869141 0)"/>
       <use xlink:href="#DejaVuSans-2d" transform="translate(254.492188 0)"/>
       <use xlink:href="#DejaVuSans-30" transform="translate(290.576172 0)"/>
       <use xlink:href="#DejaVuSans-37" transform="translate(354.199219 0)"/>
      </g>
     </g>
    </g>
    <g id="xtick_6">
     <g id="line2d_11">
      <path d="M 494.326127 320.4 
L 494.326127 43.2 
" clip-path="url(#p501f995a02)" style="fill: none; stroke-dasharray: 5.12,1.28,0.8,1.28; stroke-dashoffset: 0; stroke: #b0b0b0; stroke-width: 0.8"/>
     </g>
     <g id="line2d_12">
      <g>
       <use xlink:href="#m15e2937123" x="494.326127" y="320.4" style="fill: #a9a9a9; stroke: #a9a9a9; stroke-width: 0.8"/>
      </g>
     </g>
     <g id="text_6">
      <!-- 2024-01 -->
      <g style="fill: #a9a9a9" transform="translate(473.434721 334.998438) scale(0.1 -0.1)">
       <defs>
        <path id="DejaVuSans-34" d="M 2419 4116 
L 825 1625 
L 2419 1625 
L 2419 4116 
z
M 2253 4666 
L 3047 4666 
L 3047 1625 
L 3713 1625 
L 3713 1100 
L 3047 1100 
L 3047 0 
L 2419 0 
L 2419 1100 
L 313 1100 
L 313 1709 
L 2253 4666 
z
" transform="scale(0.015625)"/>
       </defs>
       <use xlink:href="#DejaVuSans-32"/>
       <use xlink:href="#DejaVuSans-30" transform="translate(63.623047 0)"/>
       <use xlink:href="#DejaVuSans-32" transform="translate(127.246094 0)"/>
       <use xlink:href="#DejaVuSans-34" transform="translate(190.869141 0)"/>
       <use xlink:href="#DejaVuSans-2d" transform="translate(254.492188 0)"/>
       <use xlink:href="#DejaVuSans-30" transform="translate(290.576172 0)"/>
       <use xlink:href="#DejaVuSans-31" transform="translate(354.199219 0)"/>
      </g>
     </g>
    </g>
    <g id="xtick_7">
     <g id="line2d_13">
      <path d="M 567.021904 320.4 
L 567.021904 43.2 
" clip-path="url(#p501f995a02)" style="fill: none; stroke-dasharray: 5.12,1.28,0.8,1.28; stroke-dashoffset: 0; stroke: #b0b0b0; stroke-width: 0.8"/>
     </g>
     <g id="line2d_14">
      <g>
       <use xlink:href="#m15e2937123" x="567.021904" y="320.4" style="fill: #a9a9a9; stroke: #a9a9a9; stroke-width: 0.8"/>
      </g>
     </g>
     <g id="text_7">
      <!-- 2024-07 -->
      <g style="fill: #a9a9a9" transform="translate(546.130498 334.998438) scale(0.1 -0.1)">
       <use xlink:href="#DejaVuSans-32"/>
       <use xlink:href="#DejaVuSans-30" transform="translate(63.623047 0)"/>
       <use xlink:href="#DejaVuSans-32" transform="translate(127.246094 0)"/>
       <use xlink:href="#DejaVuSans-34" transform="translate(190.869141 0)"/>
       <use xlink:href="#DejaVuSans-2d" transform="translate(254.492188 0)"/>
       <use xlink:href="#DejaVuSans-30" transform="translate(290.576172 0)"/>
       <use xlink:href="#DejaVuSans-37" transform="translate(354.199219 0)"/>
      </g>
     </g>
    </g>
    <g id="xtick_8">
     <g id="line2d_15">
      <path d="M 640.516535 320.4 
L 640.516535 43.2 
" clip-path="url(#p501f995a02)" style="fill: none; stroke-dasharray: 5.12,1.28,0.8,1.28; stroke-dashoffset: 0; stroke: #b0b0b0; stroke-width: 0.8"/>
     </g>
     <g id="line2d_16">
      <g>
       <use xlink:href="#m15e2937123" x="640.516535" y="320.4" style="fill: #a9a9a9; stroke: #a9a9a9; stroke-width: 0.8"/>
      </g>
     </g>
     <g id="text_8">
      <!-- 2025-01 -->
      <g style="fill: #a9a9a9" transform="translate(619.625129 334.998438) scale(0.1 -0.1)">
       <defs>
        <path id="DejaVuSans-35" d="M 691 4666 
L 3169 4666 
L 3169 4134 
L 1269 4134 
L 1269 2991 
Q 1406 3038 1543 3061 
Q 1681 3084 1819 3084 
Q 2600 3084 3056 2656 
Q 3513 2228 3513 1497 
Q 3513 744 3044 326 
Q 2575 -91 1722 -91 
Q 1428 -91 1123 -41 
Q 819 9 494 109 
L 494 744 
Q 775 591 1075 516 
Q 1375 441 1709 441 
Q 2250 441 2565 725 
Q 2881 1009 2881 1497 
Q 2881 1984 2565 2268 
Q 2250 2553 1709 2553 
Q 1456 2553 1204 2497 
Q 953 2441 691 2322 
L 691 4666 
z
" transform="scale(0.015625)"/>
       </defs>
       <use xlink:href="#DejaVuSans-32"/>
       <use xlink:href="#DejaVuSans-30" transform="translate(63.623047 0)"/>
       <use xlink:href="#DejaVuSans-32" transform="translate(127.246094 0)"/>
       <use xlink:href="#DejaVuSans-35" transform="translate(190.869141 0)"/>
       <use xlink:href="#DejaVuSans-2d" transform="translate(254.492188 0)"/>
       <use xlink:href="#DejaVuSans-30" transform="translate(290.576172 0)"/>
       <use xlink:href="#DejaVuSans-31" transform="translate(354.199219 0)"/>
      </g>
     </g>
    </g>
    <g id="xtick_9">
     <g id="line2d_17">
      <path d="M 712.812885 320.4 
L 712.812885 43.2 
" clip-path="url(#p501f995a02)" style="fill: none; stroke-dasharray: 5.12,1.28,0.8,1.28; stroke-dashoffset: 0; stroke: #b0b0b0; stroke-width: 0.8"/>
     </g>
     <g id="line2d_18">
      <g>
       <use xlink:href="#m15e2937123" x="712.812885" y="320.4" style="fill: #a9a9a9; stroke: #a9a9a9; stroke-width: 0.8"/>
      </g>
     </g>
     <g id="text_9">
      <!-- 2025-07 -->
      <g style="fill: #a9a9a9" transform="translate(691.921479 334.998438) scale(0.1 -0.1)">
       <use xlink:href="#DejaVuSans-32"/>
       <use xlink:href="#DejaVuSans-30" transform="translate(63.623047 0)"/>
       <use xlink:href="#DejaVuSans-32" transform="translate(127.246094 0)"/>
       <use xlink:href="#DejaVuSans-35" transform="translate(190.869141 0)"/>
       <use xlink:href="#DejaVuSans-2d" transform="translate(254.492188 0)"/>
       <use xlink:href="#DejaVuSans-30" transform="translate(290.576172 0)"/>
       <use xlink:href="#DejaVuSans-37" transform="translate(354.199219 0)"/>
      </g>
     </g>
    </g>
   </g>
   <g id="matplotlib.axis_2">
    <g id="ytick_1">
     <g id="line2d_19">
      <path d="M 108 307.830818 
L 777.6 307.830818 
" clip-path="url(#p501f995a02)" style="fill: none; stroke-dasharray: 5.12,1.28,0.8,1.28; stroke-dashoffset: 0; stroke: #b0b0b0; stroke-width: 0.8"/>
     </g>
     <g id="line2d_20">
      <defs>
       <path id="md44fe1b6b5" d="M 0 0 
L -3.5 0 
" style="stroke: #a9a9a9; stroke-width: 0.8"/>
      </defs>
      <g>
       <use xlink:href="#md44fe1b6b5" x="108" y="307.830818" style="fill: #a9a9a9; stroke: #a9a9a9; stroke-width: 0.8"/>
      </g>
     </g>
     <g id="text_10">
      <!-- 0 -->
      <g style="fill: #a9a9a9" transform="translate(94.6375 311.630037) scale(0.1 -0.1)">
       <use xlink:href="#DejaVuSans-30"/>
      </g>
     </g>
    </g>
    <g id="ytick_2">
     <g id="line2d_21">
      <path d="M 108 277.01267 
L 777.6 277.01267 
" clip-path="url(#p501f995a02)" style="fill: none; stroke-dasharray: 5.12,1.28,0.8,1.28; stroke-dashoffset: 0; stroke: #b0b0b0; stroke-width: 0.8"/>
     </g>
     <g id="line2d_22">
      <g>
       <use xlink:href="#md44fe1b6b5" x="108" y="277.01267" style="fill: #a9a9a9; stroke: #a9a9a9; stroke-width: 0.8"/>
      </g>
     </g>
     <g id="text_11">
      <!-- 1000 -->
      <g style="fill: #a9a9a9" transform="translate(75.55 280.811888) scale(0.1 -0.1)">
       <use xlink:href="#DejaVuSans-31"/>
       <use xlink:href="#DejaVuSans-30" transform="translate(63.623047 0)"/>
       <use xlink:href="#DejaVuSans-30" transform="translate(127.246094 0)"/>
       <use xlink:href="#DejaVuSans-30" transform="translate(190.869141 0)"/>
      </g>
     </g>
    </g>
    <g id="ytick_3">
     <g id="line2d_23">
      <path d="M 108 246.194521 
L 777.6 246.194521 
" clip-path="url(#p501f995a02)" style="fill: none; stroke-dasharray: 5.12,1.28,0.8,1.28; stroke-dashoffset: 0; stroke: #b0b0b0; stroke-width: 0.8"/>
     </g>
     <g id="line2d_24">
      <g>
       <use xlink:href="#md44fe1b6b5" x="108" y="246.194521" style="fill: #a9a9a9; stroke: #a9a9a9; stroke-width: 0.8"/>
      </g>
     </g>
     <g id="text_12">
      <!-- 2000 -->
      <g style="fill: #a9a9a9" transform="translate(75.55 249.99374) scale(0.1 -0.1)">
       <use xlink:href="#DejaVuSans-32"/>
       <use xlink:href="#DejaVuSans-30" transform="translate(63.623047 0)"/>
       <use xlink:href="#DejaVuSans-30" transform="translate(127.246094 0)"/>
       <use xlink:href="#DejaVuSans-30" transform="translate(190.869141 0)"/>
      </g>
     </g>
    </g>
    <g id="ytick_4">
     <g id="line2d_25">
      <path d="M 108 215.376373 
L 777.6 215.376373 
" clip-path="url(#p501f995a02)" style="fill: none; stroke-dasharray: 5.12,1.28,0.8,1.28; stroke-dashoffset: 0; stroke: #b0b0b0; stroke-width: 0.8"/>
     </g>
     <g id="line2d_26">
      <g>
       <use xlink:href="#md44fe1b6b5" x="108" y="215.376373" style="fill: #a9a9a9; stroke: #a9a9a9; stroke-width: 0.8"/>
      </g>
     </g>
     <g id="text_13">
      <!-- 3000 -->
      <g style="fill: #a9a9a9" transform="translate(75.55 219.175592) scale(0.1 -0.1)">
       <use xlink:href="#DejaVuSans-33"/>
       <use xlink:href="#DejaVuSans-30" transform="translate(63.623047 0)"/>
       <use xlink:href="#DejaVuSans-30" transform="translate(127.246094 0)"/>
       <use xlink:href="#DejaVuSans-30" transform="translate(190.869141 0)"/>
      </g>
     </g>
    </g>
    <g id="ytick_5">
     <g id="line2d_27">
      <path d="M 108 184.558224 
L 777.6 184.558224 
" clip-path="url(#p501f995a02)" style="fill: none; stroke-dasharray: 5.12,1.28,0.8,1.28; stroke-dashoffset: 0; stroke: #b0b0b0; stroke-width: 0.8"/>
     </g>
     <g id="line2d_28">
      <g>
       <use xlink:href="#md44fe1b6b5" x="108" y="184.558224" style="fill: #a9a9a9; stroke: #a9a9a9; stroke-width: 0.8"/>
      </g>
     </g>
     <g id="text_14">
      <!-- 4000 -->
      <g style="fill: #a9a9a9" transform="translate(75.55 188.357443) scale(0.1 -0.1)">
       <use xlink:href="#DejaVuSans-34"/>
       <use xlink:href="#DejaVuSans-30" transform="translate(63.623047 0)"/>
       <use xlink:href="#DejaVuSans-30" transform="translate(127.246094 0)"/>
       <use xlink:href="#DejaVuSans-30" transform="translate(190.869141 0)"/>
      </g>
     </g>
    </g>
    <g id="ytick_6">
     <g id="line2d_29">
      <path d="M 108 153.740076 
L 777.6 153.740076 
" clip-path="url(#p501f995a02)" style="fill: none; stroke-dasharray: 5.12,1.28,0.8,1.28; stroke-dashoffset: 0; stroke: #b0b0b0; stroke-width: 0.8"/>
     </g>
     <g id="line2d_30">
      <g>
       <use xlink:href="#md44fe1b6b5" x="108" y="153.740076" style="fill: #a9a9a9; stroke: #a9a9a9; stroke-width: 0.8"/>
      </g>
     </g>
     <g id="text_15">
      <!-- 5000 -->
      <g style="fill: #a9a9a9" transform="translate(75.55 157.539295) scale(0.1 -0.1)">
       <use xlink:href="#DejaVuSans-35"/>
       <use xlink:href="#DejaVuSans-30" transform="translate(63.623047 0)"/>
       <use xlink:href="#DejaVuSans-30" transform="translate(127.246094 0)"/>
       <use xlink:href="#DejaVuSans-30" transform="translate(190.869141 0)"/>
      </g>
     </g>
    </g>
    <g id="ytick_7">
     <g id="line2d_31">
      <path d="M 108 122.921927 
L 777.6 122.921927 
" clip-path="url(#p501f995a02)" style="fill: none; stroke-dasharray: 5.12,1.28,0.8,1.28; stroke-dashoffset: 0; stroke: #b0b0b0; stroke-width: 0.8"/>
     </g>
     <g id="line2d_32">
      <g>
       <use xlink:href="#md44fe1b6b5" x="108" y="122.921927" style="fill: #a9a9a9; stroke: #a9a9a9; stroke-width: 0.8"/>
      </g>
     </g>
     <g id="text_16">
      <!-- 6000 -->
      <g style="fill: #a9a9a9" transform="translate(75.55 126.721146) scale(0.1 -0.1)">
       <defs>
        <path id="DejaVuSans-36" d="M 2113 2584 
Q 1688 2584 1439 2293 
Q 1191 2003 1191 1497 
Q 1191 994 1439 701 
Q 1688 409 2113 409 
Q 2538 409 2786 701 
Q 3034 994 3034 1497 
Q 3034 2003 2786 2293 
Q 2538 2584 2113 2584 
z
M 3366 4563 
L 3366 3988 
Q 3128 4100 2886 4159 
Q 2644 4219 2406 4219 
Q 1781 4219 1451 3797 
Q 1122 3375 1075 2522 
Q 1259 2794 1537 2939 
Q 1816 3084 2150 3084 
Q 2853 3084 3261 2657 
Q 3669 2231 3669 1497 
Q 3669 778 3244 343 
Q 2819 -91 2113 -91 
Q 1303 -91 875 529 
Q 447 1150 447 2328 
Q 447 3434 972 4092 
Q 1497 4750 2381 4750 
Q 2619 4750 2861 4703 
Q 3103 4656 3366 4563 
z
" transform="scale(0.015625)"/>
       </defs>
       <use xlink:href="#DejaVuSans-36"/>
       <use xlink:href="#DejaVuSans-30" transform="translate(63.623047 0)"/>
       <use xlink:href="#DejaVuSans-30" transform="translate(127.246094 0)"/>
       <use xlink:href="#DejaVuSans-30" transform="translate(190.869141 0)"/>
      </g>
     </g>
    </g>
    <g id="ytick_8">
     <g id="line2d_33">
      <path d="M 108 92.103779 
L 777.6 92.103779 
" clip-path="url(#p501f995a02)" style="fill: none; stroke-dasharray: 5.12,1.28,0.8,1.28; stroke-dashoffset: 0; stroke: #b0b0b0; stroke-width: 0.8"/>
     </g>
     <g id="line2d_34">
      <g>
       <use xlink:href="#md44fe1b6b5" x="108" y="92.103779" style="fill: #a9a9a9; stroke: #a9a9a9; stroke-width: 0.8"/>
      </g>
     </g>
     <g id="text_17">
      <!-- 7000 -->
      <g style="fill: #a9a9a9" transform="translate(75.55 95.902998) scale(0.1 -0.1)">
       <use xlink:href="#DejaVuSans-37"/>
       <use xlink:href="#DejaVuSans-30" transform="translate(63.623047 0)"/>
       <use xlink:href="#DejaVuSans-30" transform="translate(127.246094 0)"/>
       <use xlink:href="#DejaVuSans-30" transform="translate(190.869141 0)"/>
      </g>
     </g>
    </g>
    <g id="ytick_9">
     <g id="line2d_35">
      <path d="M 108 61.28563 
L 777.6 61.28563 
" clip-path="url(#p501f995a02)" style="fill: none; stroke-dasharray: 5.12,1.28,0.8,1.28; stroke-dashoffset: 0; stroke: #b0b0b0; stroke-width: 0.8"/>
     </g>
     <g id="line2d_36">
      <g>
       <use xlink:href="#md44fe1b6b5" x="108" y="61.28563" style="fill: #a9a9a9; stroke: #a9a9a9; stroke-width: 0.8"/>
      </g>
     </g>
     <g id="text_18">
      <!-- 8000 -->
      <g style="fill: #a9a9a9" transform="translate(75.55 65.084849) scale(0.1 -0.1)">
       <defs>
        <path id="DejaVuSans-38" d="M 2034 2216 
Q 1584 2216 1326 1975 
Q 1069 1734 1069 1313 
Q 1069 891 1326 650 
Q 1584 409 2034 409 
Q 2484 409 2743 651 
Q 3003 894 3003 1313 
Q 3003 1734 2745 1975 
Q 2488 2216 2034 2216 
z
M 1403 2484 
Q 997 2584 770 2862 
Q 544 3141 544 3541 
Q 544 4100 942 4425 
Q 1341 4750 2034 4750 
Q 2731 4750 3128 4425 
Q 3525 4100 3525 3541 
Q 3525 3141 3298 2862 
Q 3072 2584 2669 2484 
Q 3125 2378 3379 2068 
Q 3634 1759 3634 1313 
Q 3634 634 3220 271 
Q 2806 -91 2034 -91 
Q 1263 -91 848 271 
Q 434 634 434 1313 
Q 434 1759 690 2068 
Q 947 2378 1403 2484 
z
M 1172 3481 
Q 1172 3119 1398 2916 
Q 1625 2713 2034 2713 
Q 2441 2713 2670 2916 
Q 2900 3119 2900 3481 
Q 2900 3844 2670 4047 
Q 2441 4250 2034 4250 
Q 1625 4250 1398 4047 
Q 1172 3844 1172 3481 
z
" transform="scale(0.015625)"/>
       </defs>
       <use xlink:href="#DejaVuSans-38"/>
       <use xlink:href="#DejaVuSans-30" transform="translate(63.623047 0)"/>
       <use xlink:href="#DejaVuSans-30" transform="translate(127.246094 0)"/>
       <use xlink:href="#DejaVuSans-30" transform="translate(190.869141 0)"/>
      </g>
     </g>
    </g>
   </g>
   <g id="line2d_37">
    <path d="M 138.436364 307.738364 
L 140.832928 307.522637 
L 141.232355 307.337728 
L 142.830064 307.122001 
L 144.427774 306.783001 
L 145.226628 306.659729 
L 147.223765 306.47482 
L 148.02262 306.13582 
L 148.422047 305.581093 
L 148.821475 305.30373 
L 149.220902 304.379186 
L 149.620329 304.317549 
L 150.019757 303.97855 
L 150.818611 303.547096 
L 152.416321 302.221915 
L 154.01403 301.389825 
L 155.212312 300.80428 
L 155.611739 300.126281 
L 156.410594 299.509918 
L 156.810021 299.325009 
L 160.804295 298.708646 
L 161.203722 298.523737 
L 163.999714 298.277192 
L 165.597423 297.876556 
L 168.792842 297.414284 
L 169.192269 297.198557 
L 169.591696 297.136921 
L 170.390551 296.859557 
L 173.186543 296.366467 
L 173.985397 296.119922 
L 177.580243 295.503559 
L 178.379098 295.31865 
L 179.976807 295.102923 
L 180.775662 294.856378 
L 181.175089 294.270833 
L 182.373372 293.777742 
L 183.571654 293.438743 
L 183.971081 293.223016 
L 184.769936 293.068925 
L 186.367645 292.575835 
L 187.1665 292.514198 
L 187.965354 292.298471 
L 189.563064 291.867017 
L 189.962491 291.836199 
L 190.761346 291.435563 
L 191.160773 291.373927 
L 191.5602 291.1582 
L 195.953901 290.387746 
L 197.551611 289.894656 
L 197.951038 289.617292 
L 199.948175 288.939293 
L 200.747029 288.353748 
L 201.945311 288.107203 
L 207.137867 286.566296 
L 207.537294 286.504659 
L 209.135004 285.857478 
L 209.534431 285.795842 
L 210.333286 285.456842 
L 211.13214 285.426024 
L 212.330422 285.056206 
L 212.72985 285.056206 
L 213.129277 284.871298 
L 213.928132 284.778843 
L 214.327559 284.624752 
L 215.925268 284.563116 
L 216.724123 284.409025 
L 217.522978 283.977571 
L 218.72126 283.546117 
L 219.520115 283.114663 
L 220.718397 282.590755 
L 222.316106 281.758665 
L 222.715533 281.296392 
L 223.514388 280.00203 
L 223.913815 279.878757 
L 224.313243 279.878757 
L 225.910952 278.985031 
L 226.310379 278.892577 
L 226.709807 278.491941 
L 227.508661 278.152941 
L 228.307516 277.783123 
L 228.706943 277.290033 
L 229.106371 276.612034 
L 229.505798 276.33467 
L 229.905225 275.595035 
L 230.304653 275.132763 
L 232.701217 273.776764 
L 234.298926 272.297493 
L 234.698354 271.34213 
L 235.097781 270.725767 
L 235.497208 270.386768 
L 235.896636 270.201859 
L 237.494345 268.815042 
L 238.692627 267.767225 
L 239.491482 266.750226 
L 240.689764 265.8565 
L 242.287473 264.839501 
L 242.686901 264.68541 
L 244.28461 263.69923 
L 244.684037 263.514321 
L 246.681174 261.603595 
L 247.480029 261.264596 
L 248.278883 260.679051 
L 248.678311 260.432506 
L 249.077738 260.37087 
L 250.27602 259.662052 
L 250.675447 259.19978 
L 252.672584 258.059508 
L 253.072011 257.905418 
L 254.270293 257.042509 
L 260.261704 254.823603 
L 261.060558 254.053149 
L 262.25884 253.436786 
L 263.057695 252.912878 
L 263.85655 252.666332 
L 264.255977 252.388969 
L 264.655404 252.265696 
L 265.853686 251.433606 
L 267.850823 250.971334 
L 269.049105 250.231699 
L 270.247387 249.954335 
L 270.646815 249.861881 
L 271.845097 248.937336 
L 273.442806 248.475064 
L 273.842233 248.136065 
L 276.238797 247.273156 
L 277.037652 247.119066 
L 277.836507 246.780066 
L 280.632498 245.701431 
L 281.431353 245.608976 
L 282.629635 245.177522 
L 284.626772 244.160523 
L 287.023336 242.773707 
L 287.82219 242.55798 
L 289.020472 241.941617 
L 289.819327 241.787526 
L 290.618182 241.294436 
L 291.417037 241.078709 
L 292.615319 240.585618 
L 294.213028 240.369891 
L 295.011883 239.938437 
L 295.41131 239.568619 
L 295.810737 238.828984 
L 297.408447 238.366712 
L 299.006156 237.627076 
L 301.40272 236.455986 
L 302.201575 236.05535 
L 303.399857 235.808805 
L 304.598139 235.192442 
L 304.997566 235.130806 
L 306.994703 234.113807 
L 307.793558 233.589898 
L 308.99184 233.343353 
L 310.988976 232.819445 
L 311.388404 232.480445 
L 312.187258 232.203082 
L 314.184395 231.370992 
L 314.583822 231.06281 
L 314.98325 230.90872 
L 315.782105 230.446447 
L 317.379814 229.922539 
L 318.178669 229.39863 
L 318.578096 228.967176 
L 318.977523 228.720631 
L 319.376951 228.628177 
L 320.175805 227.950177 
L 320.575233 227.888541 
L 320.97466 227.210542 
L 321.374087 227.025633 
L 321.773515 226.686633 
L 322.172942 226.624997 
L 322.971797 226.101088 
L 323.770651 225.823725 
L 324.170079 225.515544 
L 324.569506 225.361453 
L 326.566643 224.097909 
L 327.764925 223.635637 
L 328.56378 223.265819 
L 328.963207 223.019274 
L 329.362634 222.310456 
L 330.161489 221.694093 
L 330.560916 221.601639 
L 332.95748 220.399731 
L 333.756335 220.060731 
L 334.55519 219.475186 
L 335.753472 218.334915 
L 336.552326 217.841825 
L 336.951754 217.379552 
L 338.549463 216.239281 
L 339.348318 215.407191 
L 340.147173 215.129828 
L 340.946027 214.575101 
L 342.144309 213.92792 
L 342.543737 213.866283 
L 346.138583 211.986376 
L 347.336865 211.616559 
L 348.535147 211.154286 
L 348.934574 210.815287 
L 350.532283 210.168106 
L 350.931711 210.044833 
L 351.730565 209.520925 
L 352.52942 209.181925 
L 353.328275 208.59638 
L 354.12713 206.963018 
L 354.925984 206.038474 
L 356.124266 205.391293 
L 356.923121 205.052293 
L 357.322548 204.990657 
L 358.121403 204.620839 
L 359.719112 204.066112 
L 360.517967 203.60384 
L 361.316822 203.203204 
L 361.716249 203.079932 
L 364.112813 201.60066 
L 364.512241 201.138388 
L 365.710523 200.429571 
L 366.10995 200.27548 
L 366.908805 199.78239 
L 368.506514 198.888663 
L 368.905941 198.796209 
L 369.305369 198.457209 
L 372.10136 197.501847 
L 372.500787 197.224483 
L 373.299642 196.977938 
L 374.098497 196.638938 
L 374.497924 196.299939 
L 376.095634 195.714394 
L 376.894488 195.128849 
L 377.693343 194.78985 
L 378.492198 194.142668 
L 379.291052 193.896123 
L 379.69048 193.526305 
L 380.089907 193.464669 
L 380.888762 192.848306 
L 382.885898 191.646398 
L 383.684753 191.399853 
L 384.08418 191.153308 
L 384.483608 191.091672 
L 386.081317 190.321218 
L 387.279599 189.920582 
L 388.078454 189.79731 
L 388.477881 189.612401 
L 388.877309 189.550764 
L 389.676163 189.180947 
L 390.075591 189.150128 
L 391.6733 188.533765 
L 392.871582 187.670857 
L 393.271009 187.516767 
L 394.069864 187.054494 
L 394.469291 186.931222 
L 396.865855 185.544405 
L 397.265283 185.451951 
L 398.463565 184.712315 
L 399.661847 184.280861 
L 400.460702 184.003498 
L 402.058411 183.448771 
L 402.857266 183.171408 
L 404.454975 182.832408 
L 404.854402 182.647499 
L 405.653257 182.431772 
L 406.052684 182.246863 
L 406.452112 182.185227 
L 406.851539 181.9695 
L 407.650394 181.815409 
L 408.848676 181.383955 
L 410.046958 181.199046 
L 412.443522 180.736774 
L 413.641804 180.459411 
L 414.041231 180.274502 
L 414.840086 180.120411 
L 415.638941 179.904684 
L 416.437795 179.534866 
L 416.837223 179.380775 
L 417.23665 179.380775 
L 421.630351 177.993959 
L 422.029778 177.778232 
L 422.429205 177.778232 
L 423.22806 177.47005 
L 423.627487 177.038596 
L 426.024052 176.021597 
L 427.621761 175.46687 
L 428.021188 175.220325 
L 429.21947 174.850508 
L 430.018325 174.63478 
L 430.417752 174.357417 
L 430.81718 174.264963 
L 431.216607 173.895145 
L 432.414889 173.6486 
L 433.213744 173.278782 
L 433.613171 172.785692 
L 438.006872 171.799511 
L 438.406299 171.799511 
L 438.805727 171.614602 
L 440.403436 171.30642 
L 440.802863 171.121512 
L 442.400573 170.81333 
L 443.199427 170.47433 
L 443.998282 170.32024 
L 445.995419 169.796331 
L 447.193701 169.426513 
L 449.190838 168.779332 
L 449.989692 168.440333 
L 450.788547 168.132151 
L 451.187974 167.854788 
L 451.986829 167.608243 
L 454.78282 166.529607 
L 456.38053 166.344699 
L 459.575948 165.142791 
L 459.975376 164.834609 
L 460.374803 164.742155 
L 460.77423 164.526428 
L 461.173658 164.49561 
L 465.567359 162.862248 
L 467.564495 162.307521 
L 468.36335 161.906885 
L 469.561632 161.629522 
L 471.159341 160.273523 
L 472.757051 159.564706 
L 474.35476 158.886707 
L 474.754188 158.794252 
L 475.153615 158.516889 
L 475.95247 158.270344 
L 476.351897 157.99298 
L 478.349034 157.314981 
L 482.343307 155.250165 
L 483.142162 154.880347 
L 483.541589 154.572166 
L 484.340444 154.294802 
L 486.737008 153.123713 
L 487.136435 153.031258 
L 488.334717 152.476532 
L 489.932427 151.921805 
L 490.731281 151.582805 
L 491.530136 151.459533 
L 491.929563 151.182169 
L 493.527273 150.873988 
L 494.326127 150.534988 
L 496.722691 149.363899 
L 497.122119 149.302262 
L 498.320401 148.593445 
L 499.518683 148.161991 
L 502.314674 146.960083 
L 502.714102 146.836811 
L 503.113529 146.559447 
L 503.912384 146.466993 
L 504.311811 146.189629 
L 505.110666 146.066357 
L 505.90952 145.665721 
L 506.308948 145.480812 
L 507.107802 145.265085 
L 507.906657 145.01854 
L 509.104939 144.556268 
L 510.303221 144.155632 
L 511.501503 143.878268 
L 513.099213 143.200269 
L 513.898067 142.768815 
L 515.495777 141.936725 
L 516.294631 141.751816 
L 516.694059 141.505271 
L 517.093486 141.412816 
L 518.291768 140.703999 
L 519.49005 140.241727 
L 522.286042 139.255546 
L 522.685469 139.132273 
L 523.484324 138.700819 
L 525.48146 137.992002 
L 527.878024 137.005821 
L 529.475734 136.235367 
L 533.470007 134.632824 
L 534.268862 134.232188 
L 534.668289 134.139733 
L 535.467144 133.831552 
L 535.866571 133.831552 
L 536.665426 133.461734 
L 538.263135 132.105736 
L 538.662563 131.982463 
L 539.06199 131.735918 
L 540.260272 131.396918 
L 540.659699 131.088737 
L 541.059127 130.996282 
L 542.257409 130.256647 
L 542.656836 129.979283 
L 543.855118 129.517011 
L 544.254545 129.301284 
L 545.452827 129.023921 
L 547.449964 128.315103 
L 548.248819 128.068558 
L 549.447101 127.421377 
L 550.245956 127.020741 
L 551.04481 126.805014 
L 552.64252 126.065379 
L 553.041947 125.942106 
L 553.840802 125.572288 
L 555.837938 124.894289 
L 557.03622 124.123835 
L 557.435648 124.031381 
L 558.234503 123.630745 
L 559.033357 123.322563 
L 559.432785 122.952746 
L 560.631067 122.490473 
L 561.030494 122.428837 
L 562.628203 121.689201 
L 563.826485 121.319384 
L 564.225913 121.134475 
L 564.62534 121.072838 
L 565.424195 120.733839 
L 566.622477 120.487294 
L 567.421331 120.025021 
L 567.820759 119.870931 
L 568.220186 119.562749 
L 569.418468 119.254568 
L 570.217323 118.946386 
L 571.016178 118.607387 
L 572.613887 117.960205 
L 575.409878 117.22057 
L 576.208733 116.912388 
L 577.806442 116.604207 
L 578.605297 116.450116 
L 579.803579 115.987844 
L 581.001861 115.710481 
L 583.398425 114.292846 
L 584.596707 113.55321 
L 586.993271 112.813575 
L 587.392699 112.505393 
L 590.987545 111.211031 
L 591.786399 110.933668 
L 592.984681 110.409759 
L 596.579528 108.930488 
L 597.378382 108.622306 
L 598.976092 107.975125 
L 599.375519 107.605308 
L 599.774946 107.543671 
L 601.372656 106.89649 
L 602.970365 106.495854 
L 603.369792 106.434218 
L 603.76922 106.249309 
L 604.168647 106.218491 
L 604.967502 105.941128 
L 605.366929 105.910309 
L 606.565211 105.448037 
L 608.162921 104.985765 
L 608.961775 104.369402 
L 610.559485 103.475676 
L 610.958912 103.383221 
L 611.757767 103.07504 
L 614.953185 101.503314 
L 615.352613 101.287587 
L 615.75204 100.917769 
L 617.749177 100.424679 
L 618.947459 99.869952 
L 619.746314 99.654225 
L 620.145741 99.469316 
L 620.545168 99.130317 
L 622.542305 98.421499 
L 627.73486 96.510774 
L 628.533715 96.356683 
L 630.530852 95.709502 
L 631.729134 95.185594 
L 634.525125 94.353504 
L 635.32398 93.891232 
L 638.119971 92.935869 
L 639.717681 92.41196 
L 640.915963 92.134597 
L 642.114245 91.764779 
L 642.513672 91.672325 
L 642.913099 91.394961 
L 643.711954 91.210053 
L 645.309664 90.74778 
L 645.709091 90.716962 
L 646.507946 90.347144 
L 649.303937 89.638327 
L 650.901646 89.052782 
L 651.301074 89.052782 
L 652.499356 88.775419 
L 653.29821 88.621328 
L 654.097065 88.405601 
L 655.295347 87.75842 
L 656.493629 87.388602 
L 659.289621 86.43324 
L 660.88733 85.631968 
L 662.085612 85.354604 
L 662.884467 85.108059 
L 663.683321 84.707423 
L 664.082749 84.368424 
L 664.881603 84.121878 
L 665.281031 83.875333 
L 666.079885 83.782879 
L 668.875877 82.981607 
L 670.074159 82.735062 
L 671.272441 82.42688 
L 672.071296 82.241971 
L 673.269578 81.625608 
L 678.462133 79.622429 
L 679.260988 79.499156 
L 680.059843 79.345065 
L 680.45927 79.345065 
L 681.657552 78.975248 
L 682.855834 78.60543 
L 686.45068 77.588431 
L 687.249535 77.372704 
L 687.648962 77.280249 
L 688.048389 77.033704 
L 688.847244 76.879614 
L 689.646099 76.787159 
L 690.045526 76.571432 
L 690.444953 76.540614 
L 691.243808 76.016705 
L 692.841518 75.677706 
L 693.640372 75.338706 
L 694.439227 75.061343 
L 695.238082 74.845616 
L 696.036936 74.506616 
L 696.436364 74.44498 
L 697.235218 74.167616 
L 698.4335 73.828617 
L 699.232355 73.766981 
L 700.03121 73.489617 
L 700.430637 73.335526 
L 701.229492 73.212254 
L 702.827201 72.503436 
L 703.226628 72.4418 
L 704.025483 72.133619 
L 706.422047 71.732983 
L 707.220902 71.486438 
L 707.620329 71.424801 
L 708.419184 71.085802 
L 708.818611 71.024165 
L 709.218039 70.808438 
L 710.016893 70.130439 
L 714.011167 68.651168 
L 716.407731 68.003987 
L 716.807158 67.695805 
L 718.404868 66.986988 
L 720.002577 66.308989 
L 720.801432 66.062443 
L 721.999714 65.600171 
L 722.798568 65.261172 
L 724.396278 64.336627 
L 724.795705 64.244173 
L 725.993987 63.62781 
L 726.792842 63.319628 
L 728.789979 62.610811 
L 729.189406 62.271811 
L 729.588833 62.179357 
L 730.387688 61.686266 
L 731.58597 61.316449 
L 732.384825 61.008267 
L 733.183679 60.638449 
L 733.583107 60.607631 
L 735.580243 59.837177 
L 736.379098 59.683087 
L 737.177953 59.097542 
L 737.57738 59.097542 
L 739.175089 58.511997 
L 740.772799 58.172997 
L 742.370508 57.494998 
L 742.769936 57.494998 
L 743.968218 57.094362 
L 744.767072 56.97109 
L 745.565927 56.662908 
L 746.364782 56.046545 
L 747.163636 55.8 
L 747.163636 55.8 
" clip-path="url(#p501f995a02)" style="fill: none; stroke: #1f77b4; stroke-width: 1.5; stroke-linecap: square"/>
   </g>
   <g id="line2d_38">
    <path d="M 138.835791 307.8 
L 142.430637 307.707546 
L 145.626056 307.553455 
L 147.223765 307.553455 
L 147.623193 307.430182 
L 149.620329 307.337728 
L 152.016893 307.060364 
L 154.413457 306.96791 
L 155.212312 306.875456 
L 158.008304 306.752183 
L 160.804295 306.659729 
L 162.801432 306.598092 
L 167.993987 306.505638 
L 169.991124 306.444001 
L 173.58597 306.351547 
L 175.183679 306.320729 
L 179.177953 306.228274 
L 180.775662 306.074184 
L 182.373372 306.043366 
L 184.769936 305.950911 
L 186.367645 305.920093 
L 188.364782 305.858457 
L 189.962491 305.704366 
L 193.557337 305.611911 
L 194.356192 305.550275 
L 195.953901 305.457821 
L 198.350465 305.365366 
L 199.948175 305.272912 
L 207.137867 304.81064 
L 209.933858 304.718185 
L 211.13214 304.594913 
L 213.129277 304.502458 
L 217.12355 304.286731 
L 221.117824 304.225095 
L 222.715533 304.040186 
L 224.71267 303.947731 
L 228.706943 303.547096 
L 231.103508 303.238914 
L 232.701217 303.177278 
L 235.896636 302.745824 
L 238.2932 302.684187 
L 239.491482 302.560915 
L 240.689764 302.46846 
L 251.873729 301.574734 
L 252.672584 301.420643 
L 255.069148 301.328189 
L 261.459986 300.927553 
L 264.255977 300.835098 
L 265.853686 300.65019 
L 267.850823 300.557735 
L 270.247387 300.465281 
L 272.244524 300.372826 
L 273.842233 300.342008 
L 275.83937 300.280372 
L 276.638225 300.157099 
L 282.230208 300.064645 
L 283.029062 299.97219 
L 287.82219 299.879736 
L 291.417037 299.694827 
L 294.213028 299.602373 
L 295.810737 299.417464 
L 298.606729 299.325009 
L 299.405583 299.201737 
L 301.40272 299.1401 
L 305.396994 299.078464 
L 306.994703 298.924373 
L 308.592412 298.893555 
L 309.790694 298.801101 
L 311.388404 298.64701 
L 315.382677 298.431283 
L 319.376951 298.338828 
L 322.971797 298.15392 
L 324.170079 298.123101 
L 324.968933 297.999829 
L 326.96607 297.907374 
L 327.764925 297.845738 
L 328.56378 297.784102 
L 329.362634 297.722465 
L 333.356908 297.630011 
L 342.144309 297.044466 
L 342.943164 296.98283 
L 344.141446 296.890375 
L 346.937437 296.797921 
L 348.934574 296.736285 
L 354.526557 296.64383 
L 355.325412 296.520558 
L 360.917394 296.428103 
L 364.911668 296.212376 
L 365.710523 296.181558 
L 366.509377 296.089104 
L 368.506514 295.996649 
L 370.503651 295.935013 
L 372.500787 295.842558 
L 374.497924 295.780922 
L 378.09277 295.688468 
L 380.489334 295.596013 
L 386.081317 295.503559 
L 390.475018 295.257014 
L 392.072727 295.195377 
L 393.271009 295.102923 
L 398.862992 295.010468 
L 401.259556 294.918014 
L 408.449248 294.825559 
L 410.046958 294.794741 
L 414.840086 294.733105 
L 415.638941 294.671469 
L 421.230923 294.579014 
L 422.828633 294.548196 
L 433.213744 294.455742 
L 435.610308 294.363287 
L 452.386256 294.270833 
L 454.383393 294.209197 
L 464.768504 294.14756 
L 465.567359 294.085924 
L 467.564495 294.024288 
L 468.762777 293.901015 
L 471.159341 293.808561 
L 473.955333 293.685288 
L 477.550179 293.592834 
L 479.547316 293.531197 
L 482.343307 293.438743 
L 485.538726 293.284652 
L 487.535863 293.192198 
L 489.133572 293.161379 
L 495.923837 293.068925 
L 498.320401 292.976471 
L 502.714102 292.884016 
L 505.510093 292.760744 
L 508.306084 292.699107 
L 509.104939 292.637471 
L 518.691195 292.545017 
L 522.685469 292.329289 
L 525.48146 292.236835 
L 529.875161 291.99029 
L 532.671152 291.897835 
L 534.268862 291.867017 
L 537.064853 291.774563 
L 539.06199 291.558836 
L 543.056263 291.466381 
L 543.855118 291.373927 
L 547.849392 291.281472 
L 549.846528 291.219836 
L 554.240229 291.189018 
L 555.039084 291.096564 
L 559.432785 291.004109 
L 560.231639 290.942473 
L 569.019041 290.850018 
L 571.415605 290.757564 
L 577.407015 290.665109 
L 579.004724 290.634291 
L 582.599571 290.572655 
L 583.398425 290.480201 
L 588.590981 290.387746 
L 590.588117 290.32611 
L 597.77781 290.233655 
L 598.976092 290.141201 
L 600.174374 290.048746 
L 601.372656 289.956292 
L 607.364066 289.863838 
L 609.76063 289.771383 
L 620.545168 289.678929 
L 624.140014 289.49402 
L 628.933142 289.432384 
L 629.731997 289.370747 
L 635.723407 289.309111 
L 636.522262 289.247475 
L 640.915963 289.15502 
L 642.513672 289.124202 
L 649.303937 289.031748 
L 650.102792 288.970111 
L 657.292484 288.877657 
L 658.890193 288.846839 
L 662.884467 288.754384 
L 665.680458 288.631112 
L 670.074159 288.538657 
L 672.87015 288.415385 
L 676.464996 288.32293 
L 677.263851 288.261294 
L 685.252398 288.168839 
L 687.249535 288.107203 
L 689.646099 288.014749 
L 692.042663 287.922294 
L 704.025483 287.82984 
L 706.821475 287.706567 
L 713.611739 287.614113 
L 716.008304 287.521658 
L 721.200859 287.429204 
L 723.597423 287.336749 
L 726.792842 287.244295 
L 729.189406 287.151841 
L 745.1665 287.059386 
L 747.163636 286.966932 
L 747.163636 286.966932 
" clip-path="url(#p501f995a02)" style="fill: none; stroke: #ff7f0e; stroke-width: 1.5; stroke-linecap: square"/>
   </g>
   <g id="patch_3">
    <path d="M 108 320.4 
L 108 43.2 
" style="fill: none; stroke: #a9a9a9; stroke-width: 0.8; stroke-linejoin: miter; stroke-linecap: square"/>
   </g>
   <g id="patch_4">
    <path d="M 777.6 320.4 
L 777.6 43.2 
" style="fill: none"/>
   </g>
   <g id="patch_5">
    <path d="M 108 320.4 
L 777.6 320.4 
" style="fill: none; stroke: #a9a9a9; stroke-width: 0.8; stroke-linejoin: miter; stroke-linecap: square"/>
   </g>
   <g id="patch_6">
    <path d="M 108 43.2 
L 777.6 43.2 
" style="fill: none"/>
   </g>
   <g id="text_19">
    <!-- get_subscribe history -->
    <g style="fill: #a9a9a9" transform="translate(378.6075 37.2) scale(0.12 -0.12)">
     <defs>
      <path id="DejaVuSans-67" d="M 2906 1791 
Q 2906 2416 2648 2759 
Q 2391 3103 1925 3103 
Q 1463 3103 1205 2759 
Q 947 2416 947 1791 
Q 947 1169 1205 825 
Q 1463 481 1925 481 
Q 2391 481 2648 825 
Q 2906 1169 2906 1791 
z
M 3481 434 
Q 3481 -459 3084 -895 
Q 2688 -1331 1869 -1331 
Q 1566 -1331 1297 -1286 
Q 1028 -1241 775 -1147 
L 775 -588 
Q 1028 -725 1275 -790 
Q 1522 -856 1778 -856 
Q 2344 -856 2625 -561 
Q 2906 -266 2906 331 
L 2906 616 
Q 2728 306 2450 153 
Q 2172 0 1784 0 
Q 1141 0 747 490 
Q 353 981 353 1791 
Q 353 2603 747 3093 
Q 1141 3584 1784 3584 
Q 2172 3584 2450 3431 
Q 2728 3278 2906 2969 
L 2906 3500 
L 3481 3500 
L 3481 434 
z
" transform="scale(0.015625)"/>
      <path id="DejaVuSans-65" d="M 3597 1894 
L 3597 1613 
L 953 1613 
Q 991 1019 1311 708 
Q 1631 397 2203 397 
Q 2534 397 2845 478 
Q 3156 559 3463 722 
L 3463 178 
Q 3153 47 2828 -22 
Q 2503 -91 2169 -91 
Q 1331 -91 842 396 
Q 353 884 353 1716 
Q 353 2575 817 3079 
Q 1281 3584 2069 3584 
Q 2775 3584 3186 3129 
Q 3597 2675 3597 1894 
z
M 3022 2063 
Q 3016 2534 2758 2815 
Q 2500 3097 2075 3097 
Q 1594 3097 1305 2825 
Q 1016 2553 972 2059 
L 3022 2063 
z
" transform="scale(0.015625)"/>
      <path id="DejaVuSans-74" d="M 1172 4494 
L 1172 3500 
L 2356 3500 
L 2356 3053 
L 1172 3053 
L 1172 1153 
Q 1172 725 1289 603 
Q 1406 481 1766 481 
L 2356 481 
L 2356 0 
L 1766 0 
Q 1100 0 847 248 
Q 594 497 594 1153 
L 594 3053 
L 172 3053 
L 172 3500 
L 594 3500 
L 594 4494 
L 1172 4494 
z
" transform="scale(0.015625)"/>
      <path id="DejaVuSans-5f" d="M 3263 -1063 
L 3263 -1509 
L -63 -1509 
L -63 -1063 
L 3263 -1063 
z
" transform="scale(0.015625)"/>
      <path id="DejaVuSans-73" d="M 2834 3397 
L 2834 2853 
Q 2591 2978 2328 3040 
Q 2066 3103 1784 3103 
Q 1356 3103 1142 2972 
Q 928 2841 928 2578 
Q 928 2378 1081 2264 
Q 1234 2150 1697 2047 
L 1894 2003 
Q 2506 1872 2764 1633 
Q 3022 1394 3022 966 
Q 3022 478 2636 193 
Q 2250 -91 1575 -91 
Q 1294 -91 989 -36 
Q 684 19 347 128 
L 347 722 
Q 666 556 975 473 
Q 1284 391 1588 391 
Q 1994 391 2212 530 
Q 2431 669 2431 922 
Q 2431 1156 2273 1281 
Q 2116 1406 1581 1522 
L 1381 1569 
Q 847 1681 609 1914 
Q 372 2147 372 2553 
Q 372 3047 722 3315 
Q 1072 3584 1716 3584 
Q 2034 3584 2315 3537 
Q 2597 3491 2834 3397 
z
" transform="scale(0.015625)"/>
      <path id="DejaVuSans-75" d="M 544 1381 
L 544 3500 
L 1119 3500 
L 1119 1403 
Q 1119 906 1312 657 
Q 1506 409 1894 409 
Q 2359 409 2629 706 
Q 2900 1003 2900 1516 
L 2900 3500 
L 3475 3500 
L 3475 0 
L 2900 0 
L 2900 538 
Q 2691 219 2414 64 
Q 2138 -91 1772 -91 
Q 1169 -91 856 284 
Q 544 659 544 1381 
z
M 1991 3584 
L 1991 3584 
z
" transform="scale(0.015625)"/>
      <path id="DejaVuSans-62" d="M 3116 1747 
Q 3116 2381 2855 2742 
Q 2594 3103 2138 3103 
Q 1681 3103 1420 2742 
Q 1159 2381 1159 1747 
Q 1159 1113 1420 752 
Q 1681 391 2138 391 
Q 2594 391 2855 752 
Q 3116 1113 3116 1747 
z
M 1159 2969 
Q 1341 3281 1617 3432 
Q 1894 3584 2278 3584 
Q 2916 3584 3314 3078 
Q 3713 2572 3713 1747 
Q 3713 922 3314 415 
Q 2916 -91 2278 -91 
Q 1894 -91 1617 61 
Q 1341 213 1159 525 
L 1159 0 
L 581 0 
L 581 4863 
L 1159 4863 
L 1159 2969 
z
" transform="scale(0.015625)"/>
      <path id="DejaVuSans-63" d="M 3122 3366 
L 3122 2828 
Q 2878 2963 2633 3030 
Q 2388 3097 2138 3097 
Q 1578 3097 1268 2742 
Q 959 2388 959 1747 
Q 959 1106 1268 751 
Q 1578 397 2138 397 
Q 2388 397 2633 464 
Q 2878 531 3122 666 
L 3122 134 
Q 2881 22 2623 -34 
Q 2366 -91 2075 -91 
Q 1284 -91 818 406 
Q 353 903 353 1747 
Q 353 2603 823 3093 
Q 1294 3584 2113 3584 
Q 2378 3584 2631 3529 
Q 2884 3475 3122 3366 
z
" transform="scale(0.015625)"/>
      <path id="DejaVuSans-72" d="M 2631 2963 
Q 2534 3019 2420 3045 
Q 2306 3072 2169 3072 
Q 1681 3072 1420 2755 
Q 1159 2438 1159 1844 
L 1159 0 
L 581 0 
L 581 3500 
L 1159 3500 
L 1159 2956 
Q 1341 3275 1631 3429 
Q 1922 3584 2338 3584 
Q 2397 3584 2469 3576 
Q 2541 3569 2628 3553 
L 2631 2963 
z
" transform="scale(0.015625)"/>
      <path id="DejaVuSans-69" d="M 603 3500 
L 1178 3500 
L 1178 0 
L 603 0 
L 603 3500 
z
M 603 4863 
L 1178 4863 
L 1178 4134 
L 603 4134 
L 603 4863 
z
" transform="scale(0.015625)"/>
      <path id="DejaVuSans-20" transform="scale(0.015625)"/>
      <path id="DejaVuSans-68" d="M 3513 2113 
L 3513 0 
L 2938 0 
L 2938 2094 
Q 2938 2591 2744 2837 
Q 2550 3084 2163 3084 
Q 1697 3084 1428 2787 
Q 1159 2491 1159 1978 
L 1159 0 
L 581 0 
L 581 4863 
L 1159 4863 
L 1159 2956 
Q 1366 3272 1645 3428 
Q 1925 3584 2291 3584 
Q 2894 3584 3203 3211 
Q 3513 2838 3513 2113 
z
" transform="scale(0.015625)"/>
      <path id="DejaVuSans-6f" d="M 1959 3097 
Q 1497 3097 1228 2736 
Q 959 2375 959 1747 
Q 959 1119 1226 758 
Q 1494 397 1959 397 
Q 2419 397 2687 759 
Q 2956 1122 2956 1747 
Q 2956 2369 2687 2733 
Q 2419 3097 1959 3097 
z
M 1959 3584 
Q 2709 3584 3137 3096 
Q 3566 2609 3566 1747 
Q 3566 888 3137 398 
Q 2709 -91 1959 -91 
Q 1206 -91 779 398 
Q 353 888 353 1747 
Q 353 2609 779 3096 
Q 1206 3584 1959 3584 
z
" transform="scale(0.015625)"/>
      <path id="DejaVuSans-79" d="M 2059 -325 
Q 1816 -950 1584 -1140 
Q 1353 -1331 966 -1331 
L 506 -1331 
L 506 -850 
L 844 -850 
Q 1081 -850 1212 -737 
Q 1344 -625 1503 -206 
L 1606 56 
L 191 3500 
L 800 3500 
L 1894 763 
L 2988 3500 
L 3597 3500 
L 2059 -325 
z
" transform="scale(0.015625)"/>
     </defs>
     <use xlink:href="#DejaVuSans-67"/>
     <use xlink:href="#DejaVuSans-65" transform="translate(63.476562 0)"/>
     <use xlink:href="#DejaVuSans-74" transform="translate(125 0)"/>
     <use xlink:href="#DejaVuSans-5f" transform="translate(164.208984 0)"/>
     <use xlink:href="#DejaVuSans-73" transform="translate(214.208984 0)"/>
     <use xlink:href="#DejaVuSans-75" transform="translate(266.308594 0)"/>
     <use xlink:href="#DejaVuSans-62" transform="translate(329.6875 0)"/>
     <use xlink:href="#DejaVuSans-73" transform="translate(393.164062 0)"/>
     <use xlink:href="#DejaVuSans-63" transform="translate(445.263672 0)"/>
     <use xlink:href="#DejaVuSans-72" transform="translate(500.244141 0)"/>
     <use xlink:href="#DejaVuSans-69" transform="translate(541.357422 0)"/>
     <use xlink:href="#DejaVuSans-62" transform="translate(569.140625 0)"/>
     <use xlink:href="#DejaVuSans-65" transform="translate(632.617188 0)"/>
     <use xlink:href="#DejaVuSans-20" transform="translate(694.140625 0)"/>
     <use xlink:href="#DejaVuSans-68" transform="translate(725.927734 0)"/>
     <use xlink:href="#DejaVuSans-69" transform="translate(789.306641 0)"/>
     <use xlink:href="#DejaVuSans-73" transform="translate(817.089844 0)"/>
     <use xlink:href="#DejaVuSans-74" transform="translate(869.189453 0)"/>
     <use xlink:href="#DejaVuSans-6f" transform="translate(908.398438 0)"/>
     <use xlink:href="#DejaVuSans-72" transform="translate(969.580078 0)"/>
     <use xlink:href="#DejaVuSans-79" transform="translate(1010.693359 0)"/>
    </g>
   </g>
   <g id="legend_1">
    <g id="line2d_39">
     <path d="M 815.08 328.498438 
L 825.08 328.498438 
L 835.08 328.498438 
" style="fill: none; stroke: #1f77b4; stroke-width: 1.5; stroke-linecap: square"/>
    </g>
    <g id="text_20">
     <!-- star -->
     <g style="fill: #a9a9a9" transform="translate(843.08 331.998438) scale(0.1 -0.1)">
      <defs>
       <path id="DejaVuSans-61" d="M 2194 1759 
Q 1497 1759 1228 1600 
Q 959 1441 959 1056 
Q 959 750 1161 570 
Q 1363 391 1709 391 
Q 2188 391 2477 730 
Q 2766 1069 2766 1631 
L 2766 1759 
L 2194 1759 
z
M 3341 1997 
L 3341 0 
L 2766 0 
L 2766 531 
Q 2569 213 2275 61 
Q 1981 -91 1556 -91 
Q 1019 -91 701 211 
Q 384 513 384 1019 
Q 384 1609 779 1909 
Q 1175 2209 1959 2209 
L 2766 2209 
L 2766 2266 
Q 2766 2663 2505 2880 
Q 2244 3097 1772 3097 
Q 1472 3097 1187 3025 
Q 903 2953 641 2809 
L 641 3341 
Q 956 3463 1253 3523 
Q 1550 3584 1831 3584 
Q 2591 3584 2966 3190 
Q 3341 2797 3341 1997 
z
" transform="scale(0.015625)"/>
      </defs>
      <use xlink:href="#DejaVuSans-73"/>
      <use xlink:href="#DejaVuSans-74" transform="translate(52.099609 0)"/>
      <use xlink:href="#DejaVuSans-61" transform="translate(91.308594 0)"/>
      <use xlink:href="#DejaVuSans-72" transform="translate(152.587891 0)"/>
     </g>
    </g>
    <g id="line2d_40">
     <path d="M 815.08 343.176562 
L 825.08 343.176562 
L 835.08 343.176562 
" style="fill: none; stroke: #ff7f0e; stroke-width: 1.5; stroke-linecap: square"/>
    </g>
    <g id="text_21">
     <!-- fork -->
     <g style="fill: #a9a9a9" transform="translate(843.08 346.676562) scale(0.1 -0.1)">
      <defs>
       <path id="DejaVuSans-66" d="M 2375 4863 
L 2375 4384 
L 1825 4384 
Q 1516 4384 1395 4259 
Q 1275 4134 1275 3809 
L 1275 3500 
L 2222 3500 
L 2222 3053 
L 1275 3053 
L 1275 0 
L 697 0 
L 697 3053 
L 147 3053 
L 147 3500 
L 697 3500 
L 697 3744 
Q 697 4328 969 4595 
Q 1241 4863 1831 4863 
L 2375 4863 
z
" transform="scale(0.015625)"/>
       <path id="DejaVuSans-6b" d="M 581 4863 
L 1159 4863 
L 1159 1991 
L 2875 3500 
L 3609 3500 
L 1753 1863 
L 3688 0 
L 2938 0 
L 1159 1709 
L 1159 0 
L 581 0 
L 581 4863 
z
" transform="scale(0.015625)"/>
      </defs>
      <use xlink:href="#DejaVuSans-66"/>
      <use xlink:href="#DejaVuSans-6f" transform="translate(35.205078 0)"/>
      <use xlink:href="#DejaVuSans-72" transform="translate(96.386719 0)"/>
      <use xlink:href="#DejaVuSans-6b" transform="translate(137.5 0)"/>
     </g>
    </g>
   </g>
  </g>
 </g>
 <defs>
  <clipPath id="p501f995a02">
   <rect x="108" y="43.2" width="669.6" height="277.2"/>
  </clipPath>
 </defs>
</svg>
