<?xml version="1.0" encoding="utf-8" standalone="no"?>
<!DOCTYPE svg PUBLIC "-//W3C//DTD SVG 1.1//EN"
  "http://www.w3.org/Graphics/SVG/1.1/DTD/svg11.dtd">
<svg xmlns:xlink="http://www.w3.org/1999/xlink" width="864pt" height="360pt" viewBox="0 0 864 360" xmlns="http://www.w3.org/2000/svg" version="1.1">
 <metadata>
  <rdf:RDF xmlns:dc="http://purl.org/dc/elements/1.1/" xmlns:cc="http://creativecommons.org/ns#" xmlns:rdf="http://www.w3.org/1999/02/22-rdf-syntax-ns#">
   <cc:Work>
    <dc:type rdf:resource="http://purl.org/dc/dcmitype/StillImage"/>
    <dc:date>2024-10-07T08:14:30.761421</dc:date>
    <dc:format>image/svg+xml</dc:format>
    <dc:creator>
     <cc:Agent>
      <dc:title>Matplotlib v3.9.2, https://matplotlib.org/</dc:title>
     </cc:Agent>
    </dc:creator>
   </cc:Work>
  </rdf:RDF>
 </metadata>
 <defs>
  <style type="text/css">*{stroke-linejoin: round; stroke-linecap: butt}</style>
 </defs>
 <g id="figure_1">
  <g id="patch_1">
   <path d="M 0 360 
L 864 360 
L 864 0 
L 0 0 
L 0 360 
z
" style="fill: none; opacity: 0"/>
  </g>
  <g id="axes_1">
   <g id="patch_2">
    <path d="M 108 320.4 
L 777.6 320.4 
L 777.6 43.2 
L 108 43.2 
L 108 320.4 
z
" style="fill: none; opacity: 0"/>
   </g>
   <g id="matplotlib.axis_1">
    <g id="xtick_1">
     <g id="line2d_1">
      <path d="M 158.709945 320.4 
L 158.709945 43.2 
" clip-path="url(#p6160fa2a40)" style="fill: none; stroke-dasharray: 5.12,1.28,0.8,1.28; stroke-dashoffset: 0; stroke: #b0b0b0; stroke-width: 0.8"/>
     </g>
     <g id="line2d_2">
      <defs>
       <path id="m553960251b" d="M 0 0 
L 0 3.5 
" style="stroke: #a9a9a9; stroke-width: 0.8"/>
      </defs>
      <g>
       <use xlink:href="#m553960251b" x="158.709945" y="320.4" style="fill: #a9a9a9; stroke: #a9a9a9; stroke-width: 0.8"/>
      </g>
     </g>
     <g id="text_1">
      <!-- 2021-09 -->
      <g style="fill: #a9a9a9" transform="translate(137.818539 334.998438) scale(0.1 -0.1)">
       <defs>
        <path id="DejaVuSans-32" d="M 1228 531 
L 3431 531 
L 3431 0 
L 469 0 
L 469 531 
Q 828 903 1448 1529 
Q 2069 2156 2228 2338 
Q 2531 2678 2651 2914 
Q 2772 3150 2772 3378 
Q 2772 3750 2511 3984 
Q 2250 4219 1831 4219 
Q 1534 4219 1204 4116 
Q 875 4013 500 3803 
L 500 4441 
Q 881 4594 1212 4672 
Q 1544 4750 1819 4750 
Q 2544 4750 2975 4387 
Q 3406 4025 3406 3419 
Q 3406 3131 3298 2873 
Q 3191 2616 2906 2266 
Q 2828 2175 2409 1742 
Q 1991 1309 1228 531 
z
" transform="scale(0.015625)"/>
        <path id="DejaVuSans-30" d="M 2034 4250 
Q 1547 4250 1301 3770 
Q 1056 3291 1056 2328 
Q 1056 1369 1301 889 
Q 1547 409 2034 409 
Q 2525 409 2770 889 
Q 3016 1369 3016 2328 
Q 3016 3291 2770 3770 
Q 2525 4250 2034 4250 
z
M 2034 4750 
Q 2819 4750 3233 4129 
Q 3647 3509 3647 2328 
Q 3647 1150 3233 529 
Q 2819 -91 2034 -91 
Q 1250 -91 836 529 
Q 422 1150 422 2328 
Q 422 3509 836 4129 
Q 1250 4750 2034 4750 
z
" transform="scale(0.015625)"/>
        <path id="DejaVuSans-31" d="M 794 531 
L 1825 531 
L 1825 4091 
L 703 3866 
L 703 4441 
L 1819 4666 
L 2450 4666 
L 2450 531 
L 3481 531 
L 3481 0 
L 794 0 
L 794 531 
z
" transform="scale(0.015625)"/>
        <path id="DejaVuSans-2d" d="M 313 2009 
L 1997 2009 
L 1997 1497 
L 313 1497 
L 313 2009 
z
" transform="scale(0.015625)"/>
        <path id="DejaVuSans-39" d="M 703 97 
L 703 672 
Q 941 559 1184 500 
Q 1428 441 1663 441 
Q 2288 441 2617 861 
Q 2947 1281 2994 2138 
Q 2813 1869 2534 1725 
Q 2256 1581 1919 1581 
Q 1219 1581 811 2004 
Q 403 2428 403 3163 
Q 403 3881 828 4315 
Q 1253 4750 1959 4750 
Q 2769 4750 3195 4129 
Q 3622 3509 3622 2328 
Q 3622 1225 3098 567 
Q 2575 -91 1691 -91 
Q 1453 -91 1209 -44 
Q 966 3 703 97 
z
M 1959 2075 
Q 2384 2075 2632 2365 
Q 2881 2656 2881 3163 
Q 2881 3666 2632 3958 
Q 2384 4250 1959 4250 
Q 1534 4250 1286 3958 
Q 1038 3666 1038 3163 
Q 1038 2656 1286 2365 
Q 1534 2075 1959 2075 
z
" transform="scale(0.015625)"/>
       </defs>
       <use xlink:href="#DejaVuSans-32"/>
       <use xlink:href="#DejaVuSans-30" x="63.623047"/>
       <use xlink:href="#DejaVuSans-32" x="127.246094"/>
       <use xlink:href="#DejaVuSans-31" x="190.869141"/>
       <use xlink:href="#DejaVuSans-2d" x="254.492188"/>
       <use xlink:href="#DejaVuSans-30" x="290.576172"/>
       <use xlink:href="#DejaVuSans-39" x="354.199219"/>
      </g>
     </g>
    </g>
    <g id="xtick_2">
     <g id="line2d_3">
      <path d="M 222.129866 320.4 
L 222.129866 43.2 
" clip-path="url(#p6160fa2a40)" style="fill: none; stroke-dasharray: 5.12,1.28,0.8,1.28; stroke-dashoffset: 0; stroke: #b0b0b0; stroke-width: 0.8"/>
     </g>
     <g id="line2d_4">
      <g>
       <use xlink:href="#m553960251b" x="222.129866" y="320.4" style="fill: #a9a9a9; stroke: #a9a9a9; stroke-width: 0.8"/>
      </g>
     </g>
     <g id="text_2">
      <!-- 2022-01 -->
      <g style="fill: #a9a9a9" transform="translate(201.238459 334.998438) scale(0.1 -0.1)">
       <use xlink:href="#DejaVuSans-32"/>
       <use xlink:href="#DejaVuSans-30" x="63.623047"/>
       <use xlink:href="#DejaVuSans-32" x="127.246094"/>
       <use xlink:href="#DejaVuSans-32" x="190.869141"/>
       <use xlink:href="#DejaVuSans-2d" x="254.492188"/>
       <use xlink:href="#DejaVuSans-30" x="290.576172"/>
       <use xlink:href="#DejaVuSans-31" x="354.199219"/>
      </g>
     </g>
    </g>
    <g id="xtick_3">
     <g id="line2d_5">
      <path d="M 284.510116 320.4 
L 284.510116 43.2 
" clip-path="url(#p6160fa2a40)" style="fill: none; stroke-dasharray: 5.12,1.28,0.8,1.28; stroke-dashoffset: 0; stroke: #b0b0b0; stroke-width: 0.8"/>
     </g>
     <g id="line2d_6">
      <g>
       <use xlink:href="#m553960251b" x="284.510116" y="320.4" style="fill: #a9a9a9; stroke: #a9a9a9; stroke-width: 0.8"/>
      </g>
     </g>
     <g id="text_3">
      <!-- 2022-05 -->
      <g style="fill: #a9a9a9" transform="translate(263.618709 334.998438) scale(0.1 -0.1)">
       <defs>
        <path id="DejaVuSans-35" d="M 691 4666 
L 3169 4666 
L 3169 4134 
L 1269 4134 
L 1269 2991 
Q 1406 3038 1543 3061 
Q 1681 3084 1819 3084 
Q 2600 3084 3056 2656 
Q 3513 2228 3513 1497 
Q 3513 744 3044 326 
Q 2575 -91 1722 -91 
Q 1428 -91 1123 -41 
Q 819 9 494 109 
L 494 744 
Q 775 591 1075 516 
Q 1375 441 1709 441 
Q 2250 441 2565 725 
Q 2881 1009 2881 1497 
Q 2881 1984 2565 2268 
Q 2250 2553 1709 2553 
Q 1456 2553 1204 2497 
Q 953 2441 691 2322 
L 691 4666 
z
" transform="scale(0.015625)"/>
       </defs>
       <use xlink:href="#DejaVuSans-32"/>
       <use xlink:href="#DejaVuSans-30" x="63.623047"/>
       <use xlink:href="#DejaVuSans-32" x="127.246094"/>
       <use xlink:href="#DejaVuSans-32" x="190.869141"/>
       <use xlink:href="#DejaVuSans-2d" x="254.492188"/>
       <use xlink:href="#DejaVuSans-30" x="290.576172"/>
       <use xlink:href="#DejaVuSans-35" x="354.199219"/>
      </g>
     </g>
    </g>
    <g id="xtick_4">
     <g id="line2d_7">
      <path d="M 348.449872 320.4 
L 348.449872 43.2 
" clip-path="url(#p6160fa2a40)" style="fill: none; stroke-dasharray: 5.12,1.28,0.8,1.28; stroke-dashoffset: 0; stroke: #b0b0b0; stroke-width: 0.8"/>
     </g>
     <g id="line2d_8">
      <g>
       <use xlink:href="#m553960251b" x="348.449872" y="320.4" style="fill: #a9a9a9; stroke: #a9a9a9; stroke-width: 0.8"/>
      </g>
     </g>
     <g id="text_4">
      <!-- 2022-09 -->
      <g style="fill: #a9a9a9" transform="translate(327.558466 334.998438) scale(0.1 -0.1)">
       <use xlink:href="#DejaVuSans-32"/>
       <use xlink:href="#DejaVuSans-30" x="63.623047"/>
       <use xlink:href="#DejaVuSans-32" x="127.246094"/>
       <use xlink:href="#DejaVuSans-32" x="190.869141"/>
       <use xlink:href="#DejaVuSans-2d" x="254.492188"/>
       <use xlink:href="#DejaVuSans-30" x="290.576172"/>
       <use xlink:href="#DejaVuSans-39" x="354.199219"/>
      </g>
     </g>
    </g>
    <g id="xtick_5">
     <g id="line2d_9">
      <path d="M 411.869793 320.4 
L 411.869793 43.2 
" clip-path="url(#p6160fa2a40)" style="fill: none; stroke-dasharray: 5.12,1.28,0.8,1.28; stroke-dashoffset: 0; stroke: #b0b0b0; stroke-width: 0.8"/>
     </g>
     <g id="line2d_10">
      <g>
       <use xlink:href="#m553960251b" x="411.869793" y="320.4" style="fill: #a9a9a9; stroke: #a9a9a9; stroke-width: 0.8"/>
      </g>
     </g>
     <g id="text_5">
      <!-- 2023-01 -->
      <g style="fill: #a9a9a9" transform="translate(390.978386 334.998438) scale(0.1 -0.1)">
       <defs>
        <path id="DejaVuSans-33" d="M 2597 2516 
Q 3050 2419 3304 2112 
Q 3559 1806 3559 1356 
Q 3559 666 3084 287 
Q 2609 -91 1734 -91 
Q 1441 -91 1130 -33 
Q 819 25 488 141 
L 488 750 
Q 750 597 1062 519 
Q 1375 441 1716 441 
Q 2309 441 2620 675 
Q 2931 909 2931 1356 
Q 2931 1769 2642 2001 
Q 2353 2234 1838 2234 
L 1294 2234 
L 1294 2753 
L 1863 2753 
Q 2328 2753 2575 2939 
Q 2822 3125 2822 3475 
Q 2822 3834 2567 4026 
Q 2313 4219 1838 4219 
Q 1578 4219 1281 4162 
Q 984 4106 628 3988 
L 628 4550 
Q 988 4650 1302 4700 
Q 1616 4750 1894 4750 
Q 2613 4750 3031 4423 
Q 3450 4097 3450 3541 
Q 3450 3153 3228 2886 
Q 3006 2619 2597 2516 
z
" transform="scale(0.015625)"/>
       </defs>
       <use xlink:href="#DejaVuSans-32"/>
       <use xlink:href="#DejaVuSans-30" x="63.623047"/>
       <use xlink:href="#DejaVuSans-32" x="127.246094"/>
       <use xlink:href="#DejaVuSans-33" x="190.869141"/>
       <use xlink:href="#DejaVuSans-2d" x="254.492188"/>
       <use xlink:href="#DejaVuSans-30" x="290.576172"/>
       <use xlink:href="#DejaVuSans-31" x="354.199219"/>
      </g>
     </g>
    </g>
    <g id="xtick_6">
     <g id="line2d_11">
      <path d="M 474.250043 320.4 
L 474.250043 43.2 
" clip-path="url(#p6160fa2a40)" style="fill: none; stroke-dasharray: 5.12,1.28,0.8,1.28; stroke-dashoffset: 0; stroke: #b0b0b0; stroke-width: 0.8"/>
     </g>
     <g id="line2d_12">
      <g>
       <use xlink:href="#m553960251b" x="474.250043" y="320.4" style="fill: #a9a9a9; stroke: #a9a9a9; stroke-width: 0.8"/>
      </g>
     </g>
     <g id="text_6">
      <!-- 2023-05 -->
      <g style="fill: #a9a9a9" transform="translate(453.358636 334.998438) scale(0.1 -0.1)">
       <use xlink:href="#DejaVuSans-32"/>
       <use xlink:href="#DejaVuSans-30" x="63.623047"/>
       <use xlink:href="#DejaVuSans-32" x="127.246094"/>
       <use xlink:href="#DejaVuSans-33" x="190.869141"/>
       <use xlink:href="#DejaVuSans-2d" x="254.492188"/>
       <use xlink:href="#DejaVuSans-30" x="290.576172"/>
       <use xlink:href="#DejaVuSans-35" x="354.199219"/>
      </g>
     </g>
    </g>
    <g id="xtick_7">
     <g id="line2d_13">
      <path d="M 538.189799 320.4 
L 538.189799 43.2 
" clip-path="url(#p6160fa2a40)" style="fill: none; stroke-dasharray: 5.12,1.28,0.8,1.28; stroke-dashoffset: 0; stroke: #b0b0b0; stroke-width: 0.8"/>
     </g>
     <g id="line2d_14">
      <g>
       <use xlink:href="#m553960251b" x="538.189799" y="320.4" style="fill: #a9a9a9; stroke: #a9a9a9; stroke-width: 0.8"/>
      </g>
     </g>
     <g id="text_7">
      <!-- 2023-09 -->
      <g style="fill: #a9a9a9" transform="translate(517.298393 334.998438) scale(0.1 -0.1)">
       <use xlink:href="#DejaVuSans-32"/>
       <use xlink:href="#DejaVuSans-30" x="63.623047"/>
       <use xlink:href="#DejaVuSans-32" x="127.246094"/>
       <use xlink:href="#DejaVuSans-33" x="190.869141"/>
       <use xlink:href="#DejaVuSans-2d" x="254.492188"/>
       <use xlink:href="#DejaVuSans-30" x="290.576172"/>
       <use xlink:href="#DejaVuSans-39" x="354.199219"/>
      </g>
     </g>
    </g>
    <g id="xtick_8">
     <g id="line2d_15">
      <path d="M 601.60972 320.4 
L 601.60972 43.2 
" clip-path="url(#p6160fa2a40)" style="fill: none; stroke-dasharray: 5.12,1.28,0.8,1.28; stroke-dashoffset: 0; stroke: #b0b0b0; stroke-width: 0.8"/>
     </g>
     <g id="line2d_16">
      <g>
       <use xlink:href="#m553960251b" x="601.60972" y="320.4" style="fill: #a9a9a9; stroke: #a9a9a9; stroke-width: 0.8"/>
      </g>
     </g>
     <g id="text_8">
      <!-- 2024-01 -->
      <g style="fill: #a9a9a9" transform="translate(580.718313 334.998438) scale(0.1 -0.1)">
       <defs>
        <path id="DejaVuSans-34" d="M 2419 4116 
L 825 1625 
L 2419 1625 
L 2419 4116 
z
M 2253 4666 
L 3047 4666 
L 3047 1625 
L 3713 1625 
L 3713 1100 
L 3047 1100 
L 3047 0 
L 2419 0 
L 2419 1100 
L 313 1100 
L 313 1709 
L 2253 4666 
z
" transform="scale(0.015625)"/>
       </defs>
       <use xlink:href="#DejaVuSans-32"/>
       <use xlink:href="#DejaVuSans-30" x="63.623047"/>
       <use xlink:href="#DejaVuSans-32" x="127.246094"/>
       <use xlink:href="#DejaVuSans-34" x="190.869141"/>
       <use xlink:href="#DejaVuSans-2d" x="254.492188"/>
       <use xlink:href="#DejaVuSans-30" x="290.576172"/>
       <use xlink:href="#DejaVuSans-31" x="354.199219"/>
      </g>
     </g>
    </g>
    <g id="xtick_9">
     <g id="line2d_17">
      <path d="M 664.509805 320.4 
L 664.509805 43.2 
" clip-path="url(#p6160fa2a40)" style="fill: none; stroke-dasharray: 5.12,1.28,0.8,1.28; stroke-dashoffset: 0; stroke: #b0b0b0; stroke-width: 0.8"/>
     </g>
     <g id="line2d_18">
      <g>
       <use xlink:href="#m553960251b" x="664.509805" y="320.4" style="fill: #a9a9a9; stroke: #a9a9a9; stroke-width: 0.8"/>
      </g>
     </g>
     <g id="text_9">
      <!-- 2024-05 -->
      <g style="fill: #a9a9a9" transform="translate(643.618399 334.998438) scale(0.1 -0.1)">
       <use xlink:href="#DejaVuSans-32"/>
       <use xlink:href="#DejaVuSans-30" x="63.623047"/>
       <use xlink:href="#DejaVuSans-32" x="127.246094"/>
       <use xlink:href="#DejaVuSans-34" x="190.869141"/>
       <use xlink:href="#DejaVuSans-2d" x="254.492188"/>
       <use xlink:href="#DejaVuSans-30" x="290.576172"/>
       <use xlink:href="#DejaVuSans-35" x="354.199219"/>
      </g>
     </g>
    </g>
    <g id="xtick_10">
     <g id="line2d_19">
      <path d="M 728.449561 320.4 
L 728.449561 43.2 
" clip-path="url(#p6160fa2a40)" style="fill: none; stroke-dasharray: 5.12,1.28,0.8,1.28; stroke-dashoffset: 0; stroke: #b0b0b0; stroke-width: 0.8"/>
     </g>
     <g id="line2d_20">
      <g>
       <use xlink:href="#m553960251b" x="728.449561" y="320.4" style="fill: #a9a9a9; stroke: #a9a9a9; stroke-width: 0.8"/>
      </g>
     </g>
     <g id="text_10">
      <!-- 2024-09 -->
      <g style="fill: #a9a9a9" transform="translate(707.558155 334.998438) scale(0.1 -0.1)">
       <use xlink:href="#DejaVuSans-32"/>
       <use xlink:href="#DejaVuSans-30" x="63.623047"/>
       <use xlink:href="#DejaVuSans-32" x="127.246094"/>
       <use xlink:href="#DejaVuSans-34" x="190.869141"/>
       <use xlink:href="#DejaVuSans-2d" x="254.492188"/>
       <use xlink:href="#DejaVuSans-30" x="290.576172"/>
       <use xlink:href="#DejaVuSans-39" x="354.199219"/>
      </g>
     </g>
    </g>
   </g>
   <g id="matplotlib.axis_2">
    <g id="ytick_1">
     <g id="line2d_21">
      <path d="M 108 307.8373 
L 777.6 307.8373 
" clip-path="url(#p6160fa2a40)" style="fill: none; stroke-dasharray: 5.12,1.28,0.8,1.28; stroke-dashoffset: 0; stroke: #b0b0b0; stroke-width: 0.8"/>
     </g>
     <g id="line2d_22">
      <defs>
       <path id="m43e9c7d5c2" d="M 0 0 
L -3.5 0 
" style="stroke: #a9a9a9; stroke-width: 0.8"/>
      </defs>
      <g>
       <use xlink:href="#m43e9c7d5c2" x="108" y="307.8373" style="fill: #a9a9a9; stroke: #a9a9a9; stroke-width: 0.8"/>
      </g>
     </g>
     <g id="text_11">
      <!-- 0 -->
      <g style="fill: #a9a9a9" transform="translate(94.6375 311.636519) scale(0.1 -0.1)">
       <use xlink:href="#DejaVuSans-30"/>
      </g>
     </g>
    </g>
    <g id="ytick_2">
     <g id="line2d_23">
      <path d="M 108 277.997158 
L 777.6 277.997158 
" clip-path="url(#p6160fa2a40)" style="fill: none; stroke-dasharray: 5.12,1.28,0.8,1.28; stroke-dashoffset: 0; stroke: #b0b0b0; stroke-width: 0.8"/>
     </g>
     <g id="line2d_24">
      <g>
       <use xlink:href="#m43e9c7d5c2" x="108" y="277.997158" style="fill: #a9a9a9; stroke: #a9a9a9; stroke-width: 0.8"/>
      </g>
     </g>
     <g id="text_12">
      <!-- 800 -->
      <g style="fill: #a9a9a9" transform="translate(81.9125 281.796377) scale(0.1 -0.1)">
       <defs>
        <path id="DejaVuSans-38" d="M 2034 2216 
Q 1584 2216 1326 1975 
Q 1069 1734 1069 1313 
Q 1069 891 1326 650 
Q 1584 409 2034 409 
Q 2484 409 2743 651 
Q 3003 894 3003 1313 
Q 3003 1734 2745 1975 
Q 2488 2216 2034 2216 
z
M 1403 2484 
Q 997 2584 770 2862 
Q 544 3141 544 3541 
Q 544 4100 942 4425 
Q 1341 4750 2034 4750 
Q 2731 4750 3128 4425 
Q 3525 4100 3525 3541 
Q 3525 3141 3298 2862 
Q 3072 2584 2669 2484 
Q 3125 2378 3379 2068 
Q 3634 1759 3634 1313 
Q 3634 634 3220 271 
Q 2806 -91 2034 -91 
Q 1263 -91 848 271 
Q 434 634 434 1313 
Q 434 1759 690 2068 
Q 947 2378 1403 2484 
z
M 1172 3481 
Q 1172 3119 1398 2916 
Q 1625 2713 2034 2713 
Q 2441 2713 2670 2916 
Q 2900 3119 2900 3481 
Q 2900 3844 2670 4047 
Q 2441 4250 2034 4250 
Q 1625 4250 1398 4047 
Q 1172 3844 1172 3481 
z
" transform="scale(0.015625)"/>
       </defs>
       <use xlink:href="#DejaVuSans-38"/>
       <use xlink:href="#DejaVuSans-30" x="63.623047"/>
       <use xlink:href="#DejaVuSans-30" x="127.246094"/>
      </g>
     </g>
    </g>
    <g id="ytick_3">
     <g id="line2d_25">
      <path d="M 108 248.157016 
L 777.6 248.157016 
" clip-path="url(#p6160fa2a40)" style="fill: none; stroke-dasharray: 5.12,1.28,0.8,1.28; stroke-dashoffset: 0; stroke: #b0b0b0; stroke-width: 0.8"/>
     </g>
     <g id="line2d_26">
      <g>
       <use xlink:href="#m43e9c7d5c2" x="108" y="248.157016" style="fill: #a9a9a9; stroke: #a9a9a9; stroke-width: 0.8"/>
      </g>
     </g>
     <g id="text_13">
      <!-- 1600 -->
      <g style="fill: #a9a9a9" transform="translate(75.55 251.956235) scale(0.1 -0.1)">
       <defs>
        <path id="DejaVuSans-36" d="M 2113 2584 
Q 1688 2584 1439 2293 
Q 1191 2003 1191 1497 
Q 1191 994 1439 701 
Q 1688 409 2113 409 
Q 2538 409 2786 701 
Q 3034 994 3034 1497 
Q 3034 2003 2786 2293 
Q 2538 2584 2113 2584 
z
M 3366 4563 
L 3366 3988 
Q 3128 4100 2886 4159 
Q 2644 4219 2406 4219 
Q 1781 4219 1451 3797 
Q 1122 3375 1075 2522 
Q 1259 2794 1537 2939 
Q 1816 3084 2150 3084 
Q 2853 3084 3261 2657 
Q 3669 2231 3669 1497 
Q 3669 778 3244 343 
Q 2819 -91 2113 -91 
Q 1303 -91 875 529 
Q 447 1150 447 2328 
Q 447 3434 972 4092 
Q 1497 4750 2381 4750 
Q 2619 4750 2861 4703 
Q 3103 4656 3366 4563 
z
" transform="scale(0.015625)"/>
       </defs>
       <use xlink:href="#DejaVuSans-31"/>
       <use xlink:href="#DejaVuSans-36" x="63.623047"/>
       <use xlink:href="#DejaVuSans-30" x="127.246094"/>
       <use xlink:href="#DejaVuSans-30" x="190.869141"/>
      </g>
     </g>
    </g>
    <g id="ytick_4">
     <g id="line2d_27">
      <path d="M 108 218.316874 
L 777.6 218.316874 
" clip-path="url(#p6160fa2a40)" style="fill: none; stroke-dasharray: 5.12,1.28,0.8,1.28; stroke-dashoffset: 0; stroke: #b0b0b0; stroke-width: 0.8"/>
     </g>
     <g id="line2d_28">
      <g>
       <use xlink:href="#m43e9c7d5c2" x="108" y="218.316874" style="fill: #a9a9a9; stroke: #a9a9a9; stroke-width: 0.8"/>
      </g>
     </g>
     <g id="text_14">
      <!-- 2400 -->
      <g style="fill: #a9a9a9" transform="translate(75.55 222.116093) scale(0.1 -0.1)">
       <use xlink:href="#DejaVuSans-32"/>
       <use xlink:href="#DejaVuSans-34" x="63.623047"/>
       <use xlink:href="#DejaVuSans-30" x="127.246094"/>
       <use xlink:href="#DejaVuSans-30" x="190.869141"/>
      </g>
     </g>
    </g>
    <g id="ytick_5">
     <g id="line2d_29">
      <path d="M 108 188.476732 
L 777.6 188.476732 
" clip-path="url(#p6160fa2a40)" style="fill: none; stroke-dasharray: 5.12,1.28,0.8,1.28; stroke-dashoffset: 0; stroke: #b0b0b0; stroke-width: 0.8"/>
     </g>
     <g id="line2d_30">
      <g>
       <use xlink:href="#m43e9c7d5c2" x="108" y="188.476732" style="fill: #a9a9a9; stroke: #a9a9a9; stroke-width: 0.8"/>
      </g>
     </g>
     <g id="text_15">
      <!-- 3200 -->
      <g style="fill: #a9a9a9" transform="translate(75.55 192.275951) scale(0.1 -0.1)">
       <use xlink:href="#DejaVuSans-33"/>
       <use xlink:href="#DejaVuSans-32" x="63.623047"/>
       <use xlink:href="#DejaVuSans-30" x="127.246094"/>
       <use xlink:href="#DejaVuSans-30" x="190.869141"/>
      </g>
     </g>
    </g>
    <g id="ytick_6">
     <g id="line2d_31">
      <path d="M 108 158.63659 
L 777.6 158.63659 
" clip-path="url(#p6160fa2a40)" style="fill: none; stroke-dasharray: 5.12,1.28,0.8,1.28; stroke-dashoffset: 0; stroke: #b0b0b0; stroke-width: 0.8"/>
     </g>
     <g id="line2d_32">
      <g>
       <use xlink:href="#m43e9c7d5c2" x="108" y="158.63659" style="fill: #a9a9a9; stroke: #a9a9a9; stroke-width: 0.8"/>
      </g>
     </g>
     <g id="text_16">
      <!-- 4000 -->
      <g style="fill: #a9a9a9" transform="translate(75.55 162.435808) scale(0.1 -0.1)">
       <use xlink:href="#DejaVuSans-34"/>
       <use xlink:href="#DejaVuSans-30" x="63.623047"/>
       <use xlink:href="#DejaVuSans-30" x="127.246094"/>
       <use xlink:href="#DejaVuSans-30" x="190.869141"/>
      </g>
     </g>
    </g>
    <g id="ytick_7">
     <g id="line2d_33">
      <path d="M 108 128.796448 
L 777.6 128.796448 
" clip-path="url(#p6160fa2a40)" style="fill: none; stroke-dasharray: 5.12,1.28,0.8,1.28; stroke-dashoffset: 0; stroke: #b0b0b0; stroke-width: 0.8"/>
     </g>
     <g id="line2d_34">
      <g>
       <use xlink:href="#m43e9c7d5c2" x="108" y="128.796448" style="fill: #a9a9a9; stroke: #a9a9a9; stroke-width: 0.8"/>
      </g>
     </g>
     <g id="text_17">
      <!-- 4800 -->
      <g style="fill: #a9a9a9" transform="translate(75.55 132.595666) scale(0.1 -0.1)">
       <use xlink:href="#DejaVuSans-34"/>
       <use xlink:href="#DejaVuSans-38" x="63.623047"/>
       <use xlink:href="#DejaVuSans-30" x="127.246094"/>
       <use xlink:href="#DejaVuSans-30" x="190.869141"/>
      </g>
     </g>
    </g>
    <g id="ytick_8">
     <g id="line2d_35">
      <path d="M 108 98.956306 
L 777.6 98.956306 
" clip-path="url(#p6160fa2a40)" style="fill: none; stroke-dasharray: 5.12,1.28,0.8,1.28; stroke-dashoffset: 0; stroke: #b0b0b0; stroke-width: 0.8"/>
     </g>
     <g id="line2d_36">
      <g>
       <use xlink:href="#m43e9c7d5c2" x="108" y="98.956306" style="fill: #a9a9a9; stroke: #a9a9a9; stroke-width: 0.8"/>
      </g>
     </g>
     <g id="text_18">
      <!-- 5600 -->
      <g style="fill: #a9a9a9" transform="translate(75.55 102.755524) scale(0.1 -0.1)">
       <use xlink:href="#DejaVuSans-35"/>
       <use xlink:href="#DejaVuSans-36" x="63.623047"/>
       <use xlink:href="#DejaVuSans-30" x="127.246094"/>
       <use xlink:href="#DejaVuSans-30" x="190.869141"/>
      </g>
     </g>
    </g>
    <g id="ytick_9">
     <g id="line2d_37">
      <path d="M 108 69.116163 
L 777.6 69.116163 
" clip-path="url(#p6160fa2a40)" style="fill: none; stroke-dasharray: 5.12,1.28,0.8,1.28; stroke-dashoffset: 0; stroke: #b0b0b0; stroke-width: 0.8"/>
     </g>
     <g id="line2d_38">
      <g>
       <use xlink:href="#m43e9c7d5c2" x="108" y="69.116163" style="fill: #a9a9a9; stroke: #a9a9a9; stroke-width: 0.8"/>
      </g>
     </g>
     <g id="text_19">
      <!-- 6400 -->
      <g style="fill: #a9a9a9" transform="translate(75.55 72.915382) scale(0.1 -0.1)">
       <use xlink:href="#DejaVuSans-36"/>
       <use xlink:href="#DejaVuSans-34" x="63.623047"/>
       <use xlink:href="#DejaVuSans-30" x="127.246094"/>
       <use xlink:href="#DejaVuSans-30" x="190.869141"/>
      </g>
     </g>
    </g>
   </g>
   <g id="line2d_39">
    <path d="M 138.436364 307.7254 
L 141.555376 307.464298 
L 142.075212 307.240497 
L 143.634718 307.091297 
L 147.273566 306.419893 
L 149.872743 306.196092 
L 150.912414 305.78579 
L 151.432249 305.114387 
L 151.952084 304.741385 
L 152.47192 303.58508 
L 152.991755 303.51048 
L 153.511591 303.100178 
L 154.551262 302.577975 
L 156.630603 300.936767 
L 158.709945 299.929663 
L 160.269451 299.220959 
L 160.789287 298.400355 
L 161.828957 297.654352 
L 162.348793 297.430551 
L 167.547147 296.684547 
L 168.066982 296.460746 
L 171.70583 296.162345 
L 173.785172 295.677442 
L 177.943855 295.11794 
L 178.463691 294.856838 
L 178.983526 294.782238 
L 180.023197 294.446536 
L 183.662045 293.849734 
L 184.701716 293.551332 
L 189.380234 292.768028 
L 190.419905 292.544227 
L 191.459576 292.506927 
L 193.538918 292.022025 
L 194.058753 291.313321 
L 195.618259 290.716519 
L 197.177766 290.306217 
L 197.697601 290.045115 
L 198.217437 290.007815 
L 200.816614 289.261812 
L 201.856284 289.187211 
L 202.895955 288.92611 
L 204.975297 288.403908 
L 205.495132 288.366607 
L 206.534803 287.881705 
L 207.054639 287.807105 
L 207.574474 287.546004 
L 213.292664 286.613499 
L 215.372005 286.016696 
L 215.891841 285.680995 
L 218.491018 284.823091 
L 219.530689 284.114387 
L 221.090195 283.815986 
L 230.967068 280.943872 
L 232.006739 280.53357 
L 233.046409 280.45897 
L 234.605916 280.011368 
L 235.125751 280.011368 
L 235.645587 279.787567 
L 236.685257 279.675666 
L 237.205093 279.489165 
L 238.244764 279.451865 
L 240.324105 279.190764 
L 241.363776 278.668561 
L 247.601801 275.871048 
L 248.121637 275.311545 
L 249.161307 273.744938 
L 249.681143 273.595737 
L 250.200978 273.595737 
L 251.240649 272.812433 
L 252.800155 272.290231 
L 253.319991 271.805329 
L 254.359662 271.395027 
L 255.399332 270.910124 
L 256.439003 269.418117 
L 256.958839 269.082416 
L 257.478674 268.187211 
L 257.998509 267.627709 
L 261.117522 265.986501 
L 262.157193 265.165897 
L 262.677028 264.830195 
L 263.196864 264.046892 
L 263.716699 262.890586 
L 264.236534 262.107282 
L 264.75637 261.69698 
L 265.276205 261.473179 
L 268.915053 258.414565 
L 269.954724 257.183659 
L 270.994395 256.437655 
L 272.553901 255.39325 
L 273.073737 254.945648 
L 274.113407 254.609947 
L 275.672914 253.714742 
L 277.23242 252.707638 
L 279.311762 250.842629 
L 280.351432 250.432327 
L 281.391103 249.723623 
L 281.910939 249.425222 
L 282.430774 249.350622 
L 286.069622 247.075311 
L 288.148964 245.956306 
L 288.668799 245.471403 
L 296.986166 242.561989 
L 298.025837 241.629485 
L 299.065507 241.144583 
L 300.105178 240.58508 
L 300.625014 240.286679 
L 301.664684 239.988277 
L 302.18452 239.652575 
L 302.704355 239.503375 
L 304.263862 238.49627 
L 306.863039 237.899467 
L 308.422545 237.004263 
L 309.982051 236.668561 
L 310.501886 236.519361 
L 312.061393 235.325755 
L 314.140734 234.766252 
L 314.66057 234.35595 
L 317.779582 233.311545 
L 318.299418 233.274245 
L 319.858924 232.714742 
L 323.497772 231.409236 
L 324.537443 231.260036 
L 326.096949 230.737833 
L 328.696126 229.506927 
L 330.775468 228.387922 
L 334.934151 226.709414 
L 335.453986 226.634813 
L 336.493657 226.00071 
L 337.013493 225.92611 
L 339.092834 225.068206 
L 341.172176 224.769805 
L 342.211847 224.247602 
L 342.731682 223.8 
L 343.251518 222.867496 
L 345.330859 222.307993 
L 346.890366 221.524689 
L 347.410201 221.412789 
L 351.568884 219.435879 
L 353.128391 219.137478 
L 354.168061 218.615275 
L 354.687897 218.391474 
L 355.207732 218.316874 
L 357.287074 217.384369 
L 358.84658 216.414565 
L 360.406086 216.116163 
L 363.005264 215.48206 
L 363.525099 215.071758 
L 365.084605 214.512256 
L 367.163947 213.691652 
L 367.683782 213.31865 
L 368.203618 213.132149 
L 369.243289 212.572647 
L 371.842466 211.714742 
L 373.401972 210.483837 
L 373.921807 210.371936 
L 374.961478 209.551332 
L 375.481314 209.476732 
L 376.001149 208.656128 
L 376.520984 208.432327 
L 377.04082 208.022025 
L 377.560655 207.947425 
L 378.600326 207.313321 
L 379.639997 206.97762 
L 380.159832 206.567318 
L 380.679668 206.380817 
L 382.239174 205.299112 
L 384.318516 204.217407 
L 384.838351 204.142806 
L 386.397857 203.359503 
L 386.917693 202.501599 
L 387.437528 202.053996 
L 387.957364 201.755595 
L 388.477199 201.643694 
L 389.51687 200.972291 
L 390.036705 200.860391 
L 391.076376 200.338188 
L 393.155718 199.331083 
L 393.675553 198.958082 
L 395.235059 197.540675 
L 396.27473 196.943872 
L 396.794566 196.384369 
L 398.873907 194.966963 
L 399.393743 194.37016 
L 399.913578 193.959858 
L 400.953249 193.586856 
L 401.99292 192.878153 
L 403.552426 192.094849 
L 404.072261 192.020249 
L 405.631768 191.199645 
L 406.671439 190.565542 
L 411.869793 188.700533 
L 412.389628 188.290231 
L 414.46897 187.506927 
L 414.988805 187.357726 
L 415.508641 186.947425 
L 418.107818 185.530018 
L 419.147489 183.478508 
L 420.187159 182.284902 
L 421.22683 181.650799 
L 422.786336 181.016696 
L 423.306172 180.942096 
L 423.826007 180.643694 
L 426.425184 179.823091 
L 426.94502 179.59929 
L 427.984691 178.890586 
L 429.544197 178.219183 
L 430.583868 177.65968 
L 431.103703 177.286679 
L 431.623539 177.062877 
L 432.143374 176.689876 
L 432.663209 176.130373 
L 433.70288 175.57087 
L 436.302057 174.190764 
L 439.42107 172.661456 
L 440.460741 172.325755 
L 442.020247 171.840853 
L 444.099589 170.908348 
L 445.139259 170.498046 
L 445.659095 170.087744 
L 446.698766 169.752043 
L 449.817778 168.148135 
L 450.857449 167.327531 
L 451.89712 166.954529 
L 452.416955 166.506927 
L 452.936791 166.432327 
L 453.976461 165.649023 
L 455.016132 165.126821 
L 455.535968 164.90302 
L 456.055803 164.380817 
L 459.694651 162.96341 
L 460.734322 162.515808 
L 462.293828 162.030906 
L 463.333499 161.881705 
L 463.853334 161.657904 
L 464.37317 161.583304 
L 465.412841 161.135702 
L 465.932676 161.098401 
L 468.012018 160.315098 
L 469.571524 159.233393 
L 470.091359 159.046892 
L 471.13103 158.487389 
L 471.650866 158.338188 
L 474.769878 156.62238 
L 475.289714 156.51048 
L 476.84922 155.615275 
L 478.408726 155.093073 
L 479.448397 154.757371 
L 481.527739 154.085968 
L 482.567409 153.750266 
L 484.646751 153.339964 
L 485.166586 153.116163 
L 485.686422 153.041563 
L 486.726093 152.593961 
L 487.245928 152.519361 
L 487.765764 152.258259 
L 488.805434 152.071758 
L 490.364941 151.512256 
L 491.404611 151.400355 
L 492.964118 151.064654 
L 495.563295 150.617052 
L 509.079016 146.737833 
L 509.598851 146.215631 
L 510.638522 145.805329 
L 513.757534 144.686323 
L 514.27737 144.350622 
L 514.797205 144.238721 
L 515.317041 143.94032 
L 516.876547 143.492718 
L 517.916218 143.231616 
L 518.436053 142.895915 
L 518.955889 142.784014 
L 519.475724 142.336412 
L 521.03523 142.038011 
L 522.074901 141.553108 
L 522.594736 140.956306 
L 524.674078 140.471403 
L 528.312926 139.7254 
L 528.832761 139.7254 
L 529.352597 139.501599 
L 531.431939 139.128597 
L 531.951774 138.904796 
L 534.031116 138.531794 
L 535.070786 138.084192 
L 535.590622 138.046892 
L 544.427824 135.398579 
L 544.947659 135.174778 
L 545.467495 134.801776 
L 546.507166 134.503375 
L 547.546836 134.167673 
L 548.586507 133.757371 
L 550.146014 133.085968 
L 551.70552 132.974067 
L 553.784861 132.377265 
L 554.304697 132.078863 
L 555.344368 131.780462 
L 557.943545 130.624156 
L 558.46338 130.586856 
L 564.18157 128.609947 
L 566.780747 127.938544 
L 567.820418 127.453641 
L 569.379924 127.11794 
L 569.899759 126.707638 
L 570.419595 126.446536 
L 570.93943 125.812433 
L 571.459266 125.439432 
L 572.498936 125.14103 
L 573.018772 124.730728 
L 576.137784 123.574423 
L 576.65762 123.238721 
L 577.697291 122.94032 
L 578.217126 122.604618 
L 580.816303 121.784014 
L 582.375809 120.88881 
L 582.895645 120.776909 
L 585.494822 119.359503 
L 587.054328 118.613499 
L 587.574163 118.240497 
L 588.613834 117.904796 
L 589.653505 117.307993 
L 590.173341 117.121492 
L 590.693176 116.74849 
L 597.451036 114.398579 
L 597.970872 114.286679 
L 598.490707 113.950977 
L 600.570049 113.540675 
L 601.60972 113.130373 
L 602.129555 112.831972 
L 602.649391 112.682771 
L 604.728732 111.601066 
L 605.248568 111.526465 
L 606.808074 110.668561 
L 609.927086 109.437655 
L 612.006428 108.617052 
L 612.526263 108.467851 
L 613.046099 108.132149 
L 614.08577 107.982948 
L 614.605605 107.647247 
L 615.125441 107.609947 
L 616.165111 107.274245 
L 617.204782 106.752043 
L 617.724618 106.677442 
L 620.323795 105.670337 
L 621.883301 105.222735 
L 622.922972 104.961634 
L 624.482478 104.514032 
L 625.522149 104.10373 
L 627.601491 102.984725 
L 628.641161 102.574423 
L 629.160997 102.238721 
L 630.200668 102.01492 
L 630.720503 101.716519 
L 631.240338 101.604618 
L 632.799845 100.746714 
L 633.839516 100.336412 
L 635.399022 99.627709 
L 636.958528 99.217407 
L 640.077541 97.986501 
L 642.156882 97.277798 
L 643.716388 96.718295 
L 644.236224 96.531794 
L 645.275895 95.972291 
L 647.355236 95.039787 
L 652.553591 93.062877 
L 653.073426 92.689876 
L 655.152768 91.981172 
L 655.672603 91.981172 
L 656.712274 91.53357 
L 657.751945 90.601066 
L 658.27178 90.153464 
L 659.831286 89.40746 
L 660.351122 89.29556 
L 660.870957 89.034458 
L 661.390793 88.959858 
L 661.910628 88.586856 
L 662.430463 88.474956 
L 663.470134 87.840853 
L 665.029641 87.057549 
L 666.069311 86.647247 
L 666.589147 86.386146 
L 669.188324 85.752043 
L 669.708159 85.490941 
L 671.267666 85.043339 
L 673.347007 84.036234 
L 674.386678 83.551332 
L 675.426349 83.290231 
L 677.505691 82.320426 
L 678.025526 82.171226 
L 678.545361 81.835524 
L 681.664374 80.716519 
L 683.22388 79.784014 
L 683.743716 79.672114 
L 684.783386 79.149911 
L 685.823057 78.776909 
L 686.342893 78.329307 
L 687.382563 77.919005 
L 688.94207 77.284902 
L 689.461905 76.8746 
L 689.981741 76.8373 
L 691.021411 76.538899 
L 692.061082 76.203197 
L 692.580918 75.942096 
L 693.100753 75.867496 
L 694.660259 75.307993 
L 696.219766 74.74849 
L 697.259436 74.338188 
L 697.779272 73.927886 
L 699.338778 73.517584 
L 699.858613 73.219183 
L 700.898284 72.958082 
L 702.457791 72.100178 
L 702.977626 72.062877 
L 704.537132 71.577975 
L 705.576803 71.466075 
L 706.616474 71.055773 
L 709.735486 70.160568 
L 710.775157 70.123268 
L 713.89417 69.116163 
L 714.414005 69.041563 
L 715.973511 68.220959 
L 716.493347 67.773357 
L 718.052853 66.878153 
L 718.572688 66.467851 
L 719.612359 66.057549 
L 721.171866 65.609947 
L 721.691701 65.311545 
L 722.211536 65.199645 
L 722.731372 64.789343 
L 724.290878 64.080639 
L 724.810713 63.968739 
L 725.850384 63.483837 
L 727.929726 62.924334 
L 730.528903 61.730728 
L 731.048738 61.395027 
L 732.088409 61.208526 
L 734.687586 60.01492 
L 735.207422 59.716519 
L 736.766928 59.306217 
L 738.326434 58.261812 
L 738.84627 58.187211 
L 741.445447 57.142806 
L 743.004953 56.769805 
L 743.524788 56.695204 
L 744.044624 56.471403 
L 744.564459 56.434103 
L 745.60413 56.061101 
L 746.123966 56.023801 
L 746.643801 55.8 
L 747.163636 55.8 
L 747.163636 55.8 
" clip-path="url(#p6160fa2a40)" style="fill: none; stroke: #1f77b4; stroke-width: 1.5; stroke-linecap: square"/>
   </g>
   <g id="line2d_40">
    <path d="M 138.956199 307.8 
L 140.515705 307.7254 
L 142.075212 307.688099 
L 145.194224 307.613499 
L 147.793401 307.501599 
L 149.872743 307.501599 
L 150.392578 307.352398 
L 152.47192 307.277798 
L 154.031426 307.091297 
L 156.110768 306.904796 
L 157.670274 306.830195 
L 162.868628 306.531794 
L 167.027312 306.457194 
L 169.626489 306.345293 
L 175.864514 306.270693 
L 178.463691 306.158792 
L 181.582703 306.084192 
L 183.662045 306.009591 
L 188.340564 305.934991 
L 189.90007 305.897691 
L 191.459576 305.860391 
L 193.538918 305.67389 
L 195.098424 305.63659 
L 197.697601 305.561989 
L 199.776943 305.487389 
L 203.415791 305.412789 
L 205.495132 305.226288 
L 208.094309 305.151687 
L 209.653816 305.114387 
L 212.252993 305.039787 
L 213.812499 304.890586 
L 217.451347 304.815986 
L 220.050524 304.592185 
L 221.090195 304.480284 
L 225.768714 304.219183 
L 228.887726 304.144583 
L 233.566245 303.883481 
L 235.125751 303.808881 
L 240.324105 303.51048 
L 246.042295 303.435879 
L 248.121637 303.212078 
L 249.161307 303.137478 
L 255.919168 302.577975 
L 259.558016 302.167673 
L 261.117522 302.093073 
L 265.796041 301.53357 
L 268.395218 301.45897 
L 269.954724 301.309769 
L 270.994395 301.272469 
L 272.553901 301.160568 
L 273.593572 301.085968 
L 275.153078 300.862167 
L 275.672914 300.862167 
L 277.23242 300.638366 
L 279.311762 300.563766 
L 280.351432 300.489165 
L 282.430774 300.414565 
L 283.470445 300.339964 
L 286.069622 300.078863 
L 287.109293 299.892362 
L 288.668799 299.855062 
L 289.70847 299.780462 
L 292.307647 299.705861 
L 299.065507 299.29556 
L 300.625014 299.220959 
L 307.382874 298.810657 
L 311.021722 298.736057 
L 312.061393 298.624156 
L 315.700241 298.549556 
L 319.339089 298.363055 
L 325.057278 298.288455 
L 328.696126 298.101954 
L 332.854809 298.027353 
L 337.013493 297.803552 
L 340.652341 297.728952 
L 350.529214 297.094849 
L 355.727568 297.020249 
L 358.326745 296.759147 
L 360.925922 296.721847 
L 363.525099 296.460746 
L 368.203618 296.199645 
L 371.32263 296.125044 
L 372.882136 296.087744 
L 374.441643 296.050444 
L 376.001149 295.901243 
L 380.159832 295.826643 
L 381.199503 295.677442 
L 382.239174 295.602842 
L 384.838351 295.490941 
L 385.878022 295.416341 
L 386.917693 295.341741 
L 391.596211 295.26714 
L 393.155718 295.15524 
L 406.671439 294.260036 
L 408.75078 294.185435 
L 411.349957 294.073535 
L 418.627653 293.998934 
L 422.266501 293.812433 
L 426.425184 293.737833 
L 428.504526 293.663233 
L 430.583868 293.625933 
L 432.143374 293.514032 
L 436.821893 293.252931 
L 437.861564 293.17833 
L 439.940905 293.10373 
L 442.540082 293.02913 
L 445.139259 292.917229 
L 448.778107 292.842629 
L 450.857449 292.768028 
L 457.095474 292.693428 
L 459.694651 292.581528 
L 462.813664 292.506927 
L 464.893005 292.320426 
L 466.452511 292.283126 
L 468.531853 292.208526 
L 470.091359 292.096625 
L 475.809549 292.022025 
L 477.888891 291.947425 
L 485.166586 291.872824 
L 486.726093 291.835524 
L 489.845105 291.760924 
L 491.404611 291.723623 
L 498.162472 291.649023 
L 499.202143 291.574423 
L 504.920332 291.499822 
L 506.999674 291.425222 
L 516.876547 291.350622 
L 518.436053 291.313321 
L 523.114572 291.238721 
L 524.154243 291.164121 
L 536.630293 291.08952 
L 538.189799 291.05222 
L 552.225355 290.97762 
L 553.784861 290.94032 
L 563.141899 290.865719 
L 564.18157 290.791119 
L 566.780747 290.716519 
L 568.340253 290.567318 
L 570.93943 290.492718 
L 574.058443 290.343517 
L 578.217126 290.268917 
L 579.256797 290.194316 
L 583.41548 290.119716 
L 586.534493 289.970515 
L 589.13367 289.895915 
L 593.292353 289.672114 
L 596.411366 289.597513 
L 598.490707 289.522913 
L 605.248568 289.448313 
L 607.327909 289.373712 
L 611.486593 289.299112 
L 615.125441 289.112611 
L 619.803959 289.038011 
L 620.84363 288.96341 
L 630.200668 288.88881 
L 631.760174 288.85151 
L 634.359351 288.81421 
L 636.958528 288.553108 
L 641.117211 288.478508 
L 646.315566 288.180107 
L 648.914743 288.105506 
L 650.994084 288.030906 
L 656.712274 287.956306 
L 659.831286 287.620604 
L 663.470134 287.546004 
L 666.589147 287.396803 
L 670.227995 287.322202 
L 672.827172 287.210302 
L 679.585032 287.173002 
L 680.624703 287.061101 
L 684.263551 286.986501 
L 685.823057 286.949201 
L 688.422234 286.8746 
L 689.981741 286.8373 
L 698.818943 286.7627 
L 701.41812 286.650799 
L 708.695816 286.576199 
L 710.775157 286.501599 
L 716.493347 286.426998 
L 717.533018 286.315098 
L 722.211536 286.277798 
L 723.251207 286.203197 
L 725.850384 286.128597 
L 727.409891 286.091297 
L 734.167751 286.016696 
L 735.727257 285.979396 
L 736.766928 285.904796 
L 738.326434 285.867496 
L 738.84627 285.867496 
L 739.885941 285.680995 
L 747.163636 285.606394 
L 747.163636 285.606394 
" clip-path="url(#p6160fa2a40)" style="fill: none; stroke: #ff7f0e; stroke-width: 1.5; stroke-linecap: square"/>
   </g>
   <g id="patch_3">
    <path d="M 108 320.4 
L 108 43.2 
" style="fill: none; stroke: #a9a9a9; stroke-width: 0.8; stroke-linejoin: miter; stroke-linecap: square"/>
   </g>
   <g id="patch_4">
    <path d="M 777.6 320.4 
L 777.6 43.2 
" style="fill: none"/>
   </g>
   <g id="patch_5">
    <path d="M 108 320.4 
L 777.6 320.4 
" style="fill: none; stroke: #a9a9a9; stroke-width: 0.8; stroke-linejoin: miter; stroke-linecap: square"/>
   </g>
   <g id="patch_6">
    <path d="M 108 43.2 
L 777.6 43.2 
" style="fill: none"/>
   </g>
   <g id="text_20">
    <!-- get_subscribe history -->
    <g style="fill: #a9a9a9" transform="translate(378.6075 37.2) scale(0.12 -0.12)">
     <defs>
      <path id="DejaVuSans-67" d="M 2906 1791 
Q 2906 2416 2648 2759 
Q 2391 3103 1925 3103 
Q 1463 3103 1205 2759 
Q 947 2416 947 1791 
Q 947 1169 1205 825 
Q 1463 481 1925 481 
Q 2391 481 2648 825 
Q 2906 1169 2906 1791 
z
M 3481 434 
Q 3481 -459 3084 -895 
Q 2688 -1331 1869 -1331 
Q 1566 -1331 1297 -1286 
Q 1028 -1241 775 -1147 
L 775 -588 
Q 1028 -725 1275 -790 
Q 1522 -856 1778 -856 
Q 2344 -856 2625 -561 
Q 2906 -266 2906 331 
L 2906 616 
Q 2728 306 2450 153 
Q 2172 0 1784 0 
Q 1141 0 747 490 
Q 353 981 353 1791 
Q 353 2603 747 3093 
Q 1141 3584 1784 3584 
Q 2172 3584 2450 3431 
Q 2728 3278 2906 2969 
L 2906 3500 
L 3481 3500 
L 3481 434 
z
" transform="scale(0.015625)"/>
      <path id="DejaVuSans-65" d="M 3597 1894 
L 3597 1613 
L 953 1613 
Q 991 1019 1311 708 
Q 1631 397 2203 397 
Q 2534 397 2845 478 
Q 3156 559 3463 722 
L 3463 178 
Q 3153 47 2828 -22 
Q 2503 -91 2169 -91 
Q 1331 -91 842 396 
Q 353 884 353 1716 
Q 353 2575 817 3079 
Q 1281 3584 2069 3584 
Q 2775 3584 3186 3129 
Q 3597 2675 3597 1894 
z
M 3022 2063 
Q 3016 2534 2758 2815 
Q 2500 3097 2075 3097 
Q 1594 3097 1305 2825 
Q 1016 2553 972 2059 
L 3022 2063 
z
" transform="scale(0.015625)"/>
      <path id="DejaVuSans-74" d="M 1172 4494 
L 1172 3500 
L 2356 3500 
L 2356 3053 
L 1172 3053 
L 1172 1153 
Q 1172 725 1289 603 
Q 1406 481 1766 481 
L 2356 481 
L 2356 0 
L 1766 0 
Q 1100 0 847 248 
Q 594 497 594 1153 
L 594 3053 
L 172 3053 
L 172 3500 
L 594 3500 
L 594 4494 
L 1172 4494 
z
" transform="scale(0.015625)"/>
      <path id="DejaVuSans-5f" d="M 3263 -1063 
L 3263 -1509 
L -63 -1509 
L -63 -1063 
L 3263 -1063 
z
" transform="scale(0.015625)"/>
      <path id="DejaVuSans-73" d="M 2834 3397 
L 2834 2853 
Q 2591 2978 2328 3040 
Q 2066 3103 1784 3103 
Q 1356 3103 1142 2972 
Q 928 2841 928 2578 
Q 928 2378 1081 2264 
Q 1234 2150 1697 2047 
L 1894 2003 
Q 2506 1872 2764 1633 
Q 3022 1394 3022 966 
Q 3022 478 2636 193 
Q 2250 -91 1575 -91 
Q 1294 -91 989 -36 
Q 684 19 347 128 
L 347 722 
Q 666 556 975 473 
Q 1284 391 1588 391 
Q 1994 391 2212 530 
Q 2431 669 2431 922 
Q 2431 1156 2273 1281 
Q 2116 1406 1581 1522 
L 1381 1569 
Q 847 1681 609 1914 
Q 372 2147 372 2553 
Q 372 3047 722 3315 
Q 1072 3584 1716 3584 
Q 2034 3584 2315 3537 
Q 2597 3491 2834 3397 
z
" transform="scale(0.015625)"/>
      <path id="DejaVuSans-75" d="M 544 1381 
L 544 3500 
L 1119 3500 
L 1119 1403 
Q 1119 906 1312 657 
Q 1506 409 1894 409 
Q 2359 409 2629 706 
Q 2900 1003 2900 1516 
L 2900 3500 
L 3475 3500 
L 3475 0 
L 2900 0 
L 2900 538 
Q 2691 219 2414 64 
Q 2138 -91 1772 -91 
Q 1169 -91 856 284 
Q 544 659 544 1381 
z
M 1991 3584 
L 1991 3584 
z
" transform="scale(0.015625)"/>
      <path id="DejaVuSans-62" d="M 3116 1747 
Q 3116 2381 2855 2742 
Q 2594 3103 2138 3103 
Q 1681 3103 1420 2742 
Q 1159 2381 1159 1747 
Q 1159 1113 1420 752 
Q 1681 391 2138 391 
Q 2594 391 2855 752 
Q 3116 1113 3116 1747 
z
M 1159 2969 
Q 1341 3281 1617 3432 
Q 1894 3584 2278 3584 
Q 2916 3584 3314 3078 
Q 3713 2572 3713 1747 
Q 3713 922 3314 415 
Q 2916 -91 2278 -91 
Q 1894 -91 1617 61 
Q 1341 213 1159 525 
L 1159 0 
L 581 0 
L 581 4863 
L 1159 4863 
L 1159 2969 
z
" transform="scale(0.015625)"/>
      <path id="DejaVuSans-63" d="M 3122 3366 
L 3122 2828 
Q 2878 2963 2633 3030 
Q 2388 3097 2138 3097 
Q 1578 3097 1268 2742 
Q 959 2388 959 1747 
Q 959 1106 1268 751 
Q 1578 397 2138 397 
Q 2388 397 2633 464 
Q 2878 531 3122 666 
L 3122 134 
Q 2881 22 2623 -34 
Q 2366 -91 2075 -91 
Q 1284 -91 818 406 
Q 353 903 353 1747 
Q 353 2603 823 3093 
Q 1294 3584 2113 3584 
Q 2378 3584 2631 3529 
Q 2884 3475 3122 3366 
z
" transform="scale(0.015625)"/>
      <path id="DejaVuSans-72" d="M 2631 2963 
Q 2534 3019 2420 3045 
Q 2306 3072 2169 3072 
Q 1681 3072 1420 2755 
Q 1159 2438 1159 1844 
L 1159 0 
L 581 0 
L 581 3500 
L 1159 3500 
L 1159 2956 
Q 1341 3275 1631 3429 
Q 1922 3584 2338 3584 
Q 2397 3584 2469 3576 
Q 2541 3569 2628 3553 
L 2631 2963 
z
" transform="scale(0.015625)"/>
      <path id="DejaVuSans-69" d="M 603 3500 
L 1178 3500 
L 1178 0 
L 603 0 
L 603 3500 
z
M 603 4863 
L 1178 4863 
L 1178 4134 
L 603 4134 
L 603 4863 
z
" transform="scale(0.015625)"/>
      <path id="DejaVuSans-20" transform="scale(0.015625)"/>
      <path id="DejaVuSans-68" d="M 3513 2113 
L 3513 0 
L 2938 0 
L 2938 2094 
Q 2938 2591 2744 2837 
Q 2550 3084 2163 3084 
Q 1697 3084 1428 2787 
Q 1159 2491 1159 1978 
L 1159 0 
L 581 0 
L 581 4863 
L 1159 4863 
L 1159 2956 
Q 1366 3272 1645 3428 
Q 1925 3584 2291 3584 
Q 2894 3584 3203 3211 
Q 3513 2838 3513 2113 
z
" transform="scale(0.015625)"/>
      <path id="DejaVuSans-6f" d="M 1959 3097 
Q 1497 3097 1228 2736 
Q 959 2375 959 1747 
Q 959 1119 1226 758 
Q 1494 397 1959 397 
Q 2419 397 2687 759 
Q 2956 1122 2956 1747 
Q 2956 2369 2687 2733 
Q 2419 3097 1959 3097 
z
M 1959 3584 
Q 2709 3584 3137 3096 
Q 3566 2609 3566 1747 
Q 3566 888 3137 398 
Q 2709 -91 1959 -91 
Q 1206 -91 779 398 
Q 353 888 353 1747 
Q 353 2609 779 3096 
Q 1206 3584 1959 3584 
z
" transform="scale(0.015625)"/>
      <path id="DejaVuSans-79" d="M 2059 -325 
Q 1816 -950 1584 -1140 
Q 1353 -1331 966 -1331 
L 506 -1331 
L 506 -850 
L 844 -850 
Q 1081 -850 1212 -737 
Q 1344 -625 1503 -206 
L 1606 56 
L 191 3500 
L 800 3500 
L 1894 763 
L 2988 3500 
L 3597 3500 
L 2059 -325 
z
" transform="scale(0.015625)"/>
     </defs>
     <use xlink:href="#DejaVuSans-67"/>
     <use xlink:href="#DejaVuSans-65" x="63.476562"/>
     <use xlink:href="#DejaVuSans-74" x="125"/>
     <use xlink:href="#DejaVuSans-5f" x="164.208984"/>
     <use xlink:href="#DejaVuSans-73" x="214.208984"/>
     <use xlink:href="#DejaVuSans-75" x="266.308594"/>
     <use xlink:href="#DejaVuSans-62" x="329.6875"/>
     <use xlink:href="#DejaVuSans-73" x="393.164062"/>
     <use xlink:href="#DejaVuSans-63" x="445.263672"/>
     <use xlink:href="#DejaVuSans-72" x="500.244141"/>
     <use xlink:href="#DejaVuSans-69" x="541.357422"/>
     <use xlink:href="#DejaVuSans-62" x="569.140625"/>
     <use xlink:href="#DejaVuSans-65" x="632.617188"/>
     <use xlink:href="#DejaVuSans-20" x="694.140625"/>
     <use xlink:href="#DejaVuSans-68" x="725.927734"/>
     <use xlink:href="#DejaVuSans-69" x="789.306641"/>
     <use xlink:href="#DejaVuSans-73" x="817.089844"/>
     <use xlink:href="#DejaVuSans-74" x="869.189453"/>
     <use xlink:href="#DejaVuSans-6f" x="908.398438"/>
     <use xlink:href="#DejaVuSans-72" x="969.580078"/>
     <use xlink:href="#DejaVuSans-79" x="1010.693359"/>
    </g>
   </g>
   <g id="legend_1">
    <g id="line2d_41">
     <path d="M 815.08 328.498438 
L 825.08 328.498438 
L 835.08 328.498438 
" style="fill: none; stroke: #1f77b4; stroke-width: 1.5; stroke-linecap: square"/>
    </g>
    <g id="text_21">
     <!-- star -->
     <g style="fill: #a9a9a9" transform="translate(843.08 331.998438) scale(0.1 -0.1)">
      <defs>
       <path id="DejaVuSans-61" d="M 2194 1759 
Q 1497 1759 1228 1600 
Q 959 1441 959 1056 
Q 959 750 1161 570 
Q 1363 391 1709 391 
Q 2188 391 2477 730 
Q 2766 1069 2766 1631 
L 2766 1759 
L 2194 1759 
z
M 3341 1997 
L 3341 0 
L 2766 0 
L 2766 531 
Q 2569 213 2275 61 
Q 1981 -91 1556 -91 
Q 1019 -91 701 211 
Q 384 513 384 1019 
Q 384 1609 779 1909 
Q 1175 2209 1959 2209 
L 2766 2209 
L 2766 2266 
Q 2766 2663 2505 2880 
Q 2244 3097 1772 3097 
Q 1472 3097 1187 3025 
Q 903 2953 641 2809 
L 641 3341 
Q 956 3463 1253 3523 
Q 1550 3584 1831 3584 
Q 2591 3584 2966 3190 
Q 3341 2797 3341 1997 
z
" transform="scale(0.015625)"/>
      </defs>
      <use xlink:href="#DejaVuSans-73"/>
      <use xlink:href="#DejaVuSans-74" x="52.099609"/>
      <use xlink:href="#DejaVuSans-61" x="91.308594"/>
      <use xlink:href="#DejaVuSans-72" x="152.587891"/>
     </g>
    </g>
    <g id="line2d_42">
     <path d="M 815.08 343.176562 
L 825.08 343.176562 
L 835.08 343.176562 
" style="fill: none; stroke: #ff7f0e; stroke-width: 1.5; stroke-linecap: square"/>
    </g>
    <g id="text_22">
     <!-- fork -->
     <g style="fill: #a9a9a9" transform="translate(843.08 346.676562) scale(0.1 -0.1)">
      <defs>
       <path id="DejaVuSans-66" d="M 2375 4863 
L 2375 4384 
L 1825 4384 
Q 1516 4384 1395 4259 
Q 1275 4134 1275 3809 
L 1275 3500 
L 2222 3500 
L 2222 3053 
L 1275 3053 
L 1275 0 
L 697 0 
L 697 3053 
L 147 3053 
L 147 3500 
L 697 3500 
L 697 3744 
Q 697 4328 969 4595 
Q 1241 4863 1831 4863 
L 2375 4863 
z
" transform="scale(0.015625)"/>
       <path id="DejaVuSans-6b" d="M 581 4863 
L 1159 4863 
L 1159 1991 
L 2875 3500 
L 3609 3500 
L 1753 1863 
L 3688 0 
L 2938 0 
L 1159 1709 
L 1159 0 
L 581 0 
L 581 4863 
z
" transform="scale(0.015625)"/>
      </defs>
      <use xlink:href="#DejaVuSans-66"/>
      <use xlink:href="#DejaVuSans-6f" x="35.205078"/>
      <use xlink:href="#DejaVuSans-72" x="96.386719"/>
      <use xlink:href="#DejaVuSans-6b" x="137.5"/>
     </g>
    </g>
   </g>
  </g>
 </g>
 <defs>
  <clipPath id="p6160fa2a40">
   <rect x="108" y="43.2" width="669.6" height="277.2"/>
  </clipPath>
 </defs>
</svg>
