<?xml version="1.0" encoding="utf-8" standalone="no"?>
<!DOCTYPE svg PUBLIC "-//W3C//DTD SVG 1.1//EN"
  "http://www.w3.org/Graphics/SVG/1.1/DTD/svg11.dtd">
<svg xmlns:xlink="http://www.w3.org/1999/xlink" width="864pt" height="360pt" viewBox="0 0 864 360" xmlns="http://www.w3.org/2000/svg" version="1.1">
 <metadata>
  <rdf:RDF xmlns:dc="http://purl.org/dc/elements/1.1/" xmlns:cc="http://creativecommons.org/ns#" xmlns:rdf="http://www.w3.org/1999/02/22-rdf-syntax-ns#">
   <cc:Work>
    <dc:type rdf:resource="http://purl.org/dc/dcmitype/StillImage"/>
    <dc:date>2024-12-31T08:14:10.558935</dc:date>
    <dc:format>image/svg+xml</dc:format>
    <dc:creator>
     <cc:Agent>
      <dc:title>Matplotlib v3.10.0, https://matplotlib.org/</dc:title>
     </cc:Agent>
    </dc:creator>
   </cc:Work>
  </rdf:RDF>
 </metadata>
 <defs>
  <style type="text/css">*{stroke-linejoin: round; stroke-linecap: butt}</style>
 </defs>
 <g id="figure_1">
  <g id="patch_1">
   <path d="M 0 360 
L 864 360 
L 864 0 
L 0 0 
L 0 360 
z
" style="fill: none; opacity: 0"/>
  </g>
  <g id="axes_1">
   <g id="patch_2">
    <path d="M 108 320.4 
L 777.6 320.4 
L 777.6 43.2 
L 108 43.2 
L 108 320.4 
z
" style="fill: none; opacity: 0"/>
   </g>
   <g id="matplotlib.axis_1">
    <g id="xtick_1">
     <g id="line2d_1">
      <path d="M 127.289288 320.4 
L 127.289288 43.2 
" clip-path="url(#p5a265ffb7b)" style="fill: none; stroke-dasharray: 5.12,1.28,0.8,1.28; stroke-dashoffset: 0; stroke: #b0b0b0; stroke-width: 0.8"/>
     </g>
     <g id="line2d_2">
      <defs>
       <path id="m4dec5029e5" d="M 0 0 
L 0 3.5 
" style="stroke: #a9a9a9; stroke-width: 0.8"/>
      </defs>
      <g>
       <use xlink:href="#m4dec5029e5" x="127.289288" y="320.4" style="fill: #a9a9a9; stroke: #a9a9a9; stroke-width: 0.8"/>
      </g>
     </g>
     <g id="text_1">
      <!-- 2021-07 -->
      <g style="fill: #a9a9a9" transform="translate(106.397882 334.998438) scale(0.1 -0.1)">
       <defs>
        <path id="DejaVuSans-32" d="M 1228 531 
L 3431 531 
L 3431 0 
L 469 0 
L 469 531 
Q 828 903 1448 1529 
Q 2069 2156 2228 2338 
Q 2531 2678 2651 2914 
Q 2772 3150 2772 3378 
Q 2772 3750 2511 3984 
Q 2250 4219 1831 4219 
Q 1534 4219 1204 4116 
Q 875 4013 500 3803 
L 500 4441 
Q 881 4594 1212 4672 
Q 1544 4750 1819 4750 
Q 2544 4750 2975 4387 
Q 3406 4025 3406 3419 
Q 3406 3131 3298 2873 
Q 3191 2616 2906 2266 
Q 2828 2175 2409 1742 
Q 1991 1309 1228 531 
z
" transform="scale(0.015625)"/>
        <path id="DejaVuSans-30" d="M 2034 4250 
Q 1547 4250 1301 3770 
Q 1056 3291 1056 2328 
Q 1056 1369 1301 889 
Q 1547 409 2034 409 
Q 2525 409 2770 889 
Q 3016 1369 3016 2328 
Q 3016 3291 2770 3770 
Q 2525 4250 2034 4250 
z
M 2034 4750 
Q 2819 4750 3233 4129 
Q 3647 3509 3647 2328 
Q 3647 1150 3233 529 
Q 2819 -91 2034 -91 
Q 1250 -91 836 529 
Q 422 1150 422 2328 
Q 422 3509 836 4129 
Q 1250 4750 2034 4750 
z
" transform="scale(0.015625)"/>
        <path id="DejaVuSans-31" d="M 794 531 
L 1825 531 
L 1825 4091 
L 703 3866 
L 703 4441 
L 1819 4666 
L 2450 4666 
L 2450 531 
L 3481 531 
L 3481 0 
L 794 0 
L 794 531 
z
" transform="scale(0.015625)"/>
        <path id="DejaVuSans-2d" d="M 313 2009 
L 1997 2009 
L 1997 1497 
L 313 1497 
L 313 2009 
z
" transform="scale(0.015625)"/>
        <path id="DejaVuSans-37" d="M 525 4666 
L 3525 4666 
L 3525 4397 
L 1831 0 
L 1172 0 
L 2766 4134 
L 525 4134 
L 525 4666 
z
" transform="scale(0.015625)"/>
       </defs>
       <use xlink:href="#DejaVuSans-32"/>
       <use xlink:href="#DejaVuSans-30" transform="translate(63.623047 0)"/>
       <use xlink:href="#DejaVuSans-32" transform="translate(127.246094 0)"/>
       <use xlink:href="#DejaVuSans-31" transform="translate(190.869141 0)"/>
       <use xlink:href="#DejaVuSans-2d" transform="translate(254.492188 0)"/>
       <use xlink:href="#DejaVuSans-30" transform="translate(290.576172 0)"/>
       <use xlink:href="#DejaVuSans-37" transform="translate(354.199219 0)"/>
      </g>
     </g>
    </g>
    <g id="xtick_2">
     <g id="line2d_3">
      <path d="M 216.465895 320.4 
L 216.465895 43.2 
" clip-path="url(#p5a265ffb7b)" style="fill: none; stroke-dasharray: 5.12,1.28,0.8,1.28; stroke-dashoffset: 0; stroke: #b0b0b0; stroke-width: 0.8"/>
     </g>
     <g id="line2d_4">
      <g>
       <use xlink:href="#m4dec5029e5" x="216.465895" y="320.4" style="fill: #a9a9a9; stroke: #a9a9a9; stroke-width: 0.8"/>
      </g>
     </g>
     <g id="text_2">
      <!-- 2022-01 -->
      <g style="fill: #a9a9a9" transform="translate(195.574488 334.998438) scale(0.1 -0.1)">
       <use xlink:href="#DejaVuSans-32"/>
       <use xlink:href="#DejaVuSans-30" transform="translate(63.623047 0)"/>
       <use xlink:href="#DejaVuSans-32" transform="translate(127.246094 0)"/>
       <use xlink:href="#DejaVuSans-32" transform="translate(190.869141 0)"/>
       <use xlink:href="#DejaVuSans-2d" transform="translate(254.492188 0)"/>
       <use xlink:href="#DejaVuSans-30" transform="translate(290.576172 0)"/>
       <use xlink:href="#DejaVuSans-31" transform="translate(354.199219 0)"/>
      </g>
     </g>
    </g>
    <g id="xtick_3">
     <g id="line2d_5">
      <path d="M 304.188535 320.4 
L 304.188535 43.2 
" clip-path="url(#p5a265ffb7b)" style="fill: none; stroke-dasharray: 5.12,1.28,0.8,1.28; stroke-dashoffset: 0; stroke: #b0b0b0; stroke-width: 0.8"/>
     </g>
     <g id="line2d_6">
      <g>
       <use xlink:href="#m4dec5029e5" x="304.188535" y="320.4" style="fill: #a9a9a9; stroke: #a9a9a9; stroke-width: 0.8"/>
      </g>
     </g>
     <g id="text_3">
      <!-- 2022-07 -->
      <g style="fill: #a9a9a9" transform="translate(283.297129 334.998438) scale(0.1 -0.1)">
       <use xlink:href="#DejaVuSans-32"/>
       <use xlink:href="#DejaVuSans-30" transform="translate(63.623047 0)"/>
       <use xlink:href="#DejaVuSans-32" transform="translate(127.246094 0)"/>
       <use xlink:href="#DejaVuSans-32" transform="translate(190.869141 0)"/>
       <use xlink:href="#DejaVuSans-2d" transform="translate(254.492188 0)"/>
       <use xlink:href="#DejaVuSans-30" transform="translate(290.576172 0)"/>
       <use xlink:href="#DejaVuSans-37" transform="translate(354.199219 0)"/>
      </g>
     </g>
    </g>
    <g id="xtick_4">
     <g id="line2d_7">
      <path d="M 393.365142 320.4 
L 393.365142 43.2 
" clip-path="url(#p5a265ffb7b)" style="fill: none; stroke-dasharray: 5.12,1.28,0.8,1.28; stroke-dashoffset: 0; stroke: #b0b0b0; stroke-width: 0.8"/>
     </g>
     <g id="line2d_8">
      <g>
       <use xlink:href="#m4dec5029e5" x="393.365142" y="320.4" style="fill: #a9a9a9; stroke: #a9a9a9; stroke-width: 0.8"/>
      </g>
     </g>
     <g id="text_4">
      <!-- 2023-01 -->
      <g style="fill: #a9a9a9" transform="translate(372.473736 334.998438) scale(0.1 -0.1)">
       <defs>
        <path id="DejaVuSans-33" d="M 2597 2516 
Q 3050 2419 3304 2112 
Q 3559 1806 3559 1356 
Q 3559 666 3084 287 
Q 2609 -91 1734 -91 
Q 1441 -91 1130 -33 
Q 819 25 488 141 
L 488 750 
Q 750 597 1062 519 
Q 1375 441 1716 441 
Q 2309 441 2620 675 
Q 2931 909 2931 1356 
Q 2931 1769 2642 2001 
Q 2353 2234 1838 2234 
L 1294 2234 
L 1294 2753 
L 1863 2753 
Q 2328 2753 2575 2939 
Q 2822 3125 2822 3475 
Q 2822 3834 2567 4026 
Q 2313 4219 1838 4219 
Q 1578 4219 1281 4162 
Q 984 4106 628 3988 
L 628 4550 
Q 988 4650 1302 4700 
Q 1616 4750 1894 4750 
Q 2613 4750 3031 4423 
Q 3450 4097 3450 3541 
Q 3450 3153 3228 2886 
Q 3006 2619 2597 2516 
z
" transform="scale(0.015625)"/>
       </defs>
       <use xlink:href="#DejaVuSans-32"/>
       <use xlink:href="#DejaVuSans-30" transform="translate(63.623047 0)"/>
       <use xlink:href="#DejaVuSans-32" transform="translate(127.246094 0)"/>
       <use xlink:href="#DejaVuSans-33" transform="translate(190.869141 0)"/>
       <use xlink:href="#DejaVuSans-2d" transform="translate(254.492188 0)"/>
       <use xlink:href="#DejaVuSans-30" transform="translate(290.576172 0)"/>
       <use xlink:href="#DejaVuSans-31" transform="translate(354.199219 0)"/>
      </g>
     </g>
    </g>
    <g id="xtick_5">
     <g id="line2d_9">
      <path d="M 481.087782 320.4 
L 481.087782 43.2 
" clip-path="url(#p5a265ffb7b)" style="fill: none; stroke-dasharray: 5.12,1.28,0.8,1.28; stroke-dashoffset: 0; stroke: #b0b0b0; stroke-width: 0.8"/>
     </g>
     <g id="line2d_10">
      <g>
       <use xlink:href="#m4dec5029e5" x="481.087782" y="320.4" style="fill: #a9a9a9; stroke: #a9a9a9; stroke-width: 0.8"/>
      </g>
     </g>
     <g id="text_5">
      <!-- 2023-07 -->
      <g style="fill: #a9a9a9" transform="translate(460.196376 334.998438) scale(0.1 -0.1)">
       <use xlink:href="#DejaVuSans-32"/>
       <use xlink:href="#DejaVuSans-30" transform="translate(63.623047 0)"/>
       <use xlink:href="#DejaVuSans-32" transform="translate(127.246094 0)"/>
       <use xlink:href="#DejaVuSans-33" transform="translate(190.869141 0)"/>
       <use xlink:href="#DejaVuSans-2d" transform="translate(254.492188 0)"/>
       <use xlink:href="#DejaVuSans-30" transform="translate(290.576172 0)"/>
       <use xlink:href="#DejaVuSans-37" transform="translate(354.199219 0)"/>
      </g>
     </g>
    </g>
    <g id="xtick_6">
     <g id="line2d_11">
      <path d="M 570.264389 320.4 
L 570.264389 43.2 
" clip-path="url(#p5a265ffb7b)" style="fill: none; stroke-dasharray: 5.12,1.28,0.8,1.28; stroke-dashoffset: 0; stroke: #b0b0b0; stroke-width: 0.8"/>
     </g>
     <g id="line2d_12">
      <g>
       <use xlink:href="#m4dec5029e5" x="570.264389" y="320.4" style="fill: #a9a9a9; stroke: #a9a9a9; stroke-width: 0.8"/>
      </g>
     </g>
     <g id="text_6">
      <!-- 2024-01 -->
      <g style="fill: #a9a9a9" transform="translate(549.372983 334.998438) scale(0.1 -0.1)">
       <defs>
        <path id="DejaVuSans-34" d="M 2419 4116 
L 825 1625 
L 2419 1625 
L 2419 4116 
z
M 2253 4666 
L 3047 4666 
L 3047 1625 
L 3713 1625 
L 3713 1100 
L 3047 1100 
L 3047 0 
L 2419 0 
L 2419 1100 
L 313 1100 
L 313 1709 
L 2253 4666 
z
" transform="scale(0.015625)"/>
       </defs>
       <use xlink:href="#DejaVuSans-32"/>
       <use xlink:href="#DejaVuSans-30" transform="translate(63.623047 0)"/>
       <use xlink:href="#DejaVuSans-32" transform="translate(127.246094 0)"/>
       <use xlink:href="#DejaVuSans-34" transform="translate(190.869141 0)"/>
       <use xlink:href="#DejaVuSans-2d" transform="translate(254.492188 0)"/>
       <use xlink:href="#DejaVuSans-30" transform="translate(290.576172 0)"/>
       <use xlink:href="#DejaVuSans-31" transform="translate(354.199219 0)"/>
      </g>
     </g>
    </g>
    <g id="xtick_7">
     <g id="line2d_13">
      <path d="M 658.471685 320.4 
L 658.471685 43.2 
" clip-path="url(#p5a265ffb7b)" style="fill: none; stroke-dasharray: 5.12,1.28,0.8,1.28; stroke-dashoffset: 0; stroke: #b0b0b0; stroke-width: 0.8"/>
     </g>
     <g id="line2d_14">
      <g>
       <use xlink:href="#m4dec5029e5" x="658.471685" y="320.4" style="fill: #a9a9a9; stroke: #a9a9a9; stroke-width: 0.8"/>
      </g>
     </g>
     <g id="text_7">
      <!-- 2024-07 -->
      <g style="fill: #a9a9a9" transform="translate(637.580279 334.998438) scale(0.1 -0.1)">
       <use xlink:href="#DejaVuSans-32"/>
       <use xlink:href="#DejaVuSans-30" transform="translate(63.623047 0)"/>
       <use xlink:href="#DejaVuSans-32" transform="translate(127.246094 0)"/>
       <use xlink:href="#DejaVuSans-34" transform="translate(190.869141 0)"/>
       <use xlink:href="#DejaVuSans-2d" transform="translate(254.492188 0)"/>
       <use xlink:href="#DejaVuSans-30" transform="translate(290.576172 0)"/>
       <use xlink:href="#DejaVuSans-37" transform="translate(354.199219 0)"/>
      </g>
     </g>
    </g>
    <g id="xtick_8">
     <g id="line2d_15">
      <path d="M 747.648292 320.4 
L 747.648292 43.2 
" clip-path="url(#p5a265ffb7b)" style="fill: none; stroke-dasharray: 5.12,1.28,0.8,1.28; stroke-dashoffset: 0; stroke: #b0b0b0; stroke-width: 0.8"/>
     </g>
     <g id="line2d_16">
      <g>
       <use xlink:href="#m4dec5029e5" x="747.648292" y="320.4" style="fill: #a9a9a9; stroke: #a9a9a9; stroke-width: 0.8"/>
      </g>
     </g>
     <g id="text_8">
      <!-- 2025-01 -->
      <g style="fill: #a9a9a9" transform="translate(726.756886 334.998438) scale(0.1 -0.1)">
       <defs>
        <path id="DejaVuSans-35" d="M 691 4666 
L 3169 4666 
L 3169 4134 
L 1269 4134 
L 1269 2991 
Q 1406 3038 1543 3061 
Q 1681 3084 1819 3084 
Q 2600 3084 3056 2656 
Q 3513 2228 3513 1497 
Q 3513 744 3044 326 
Q 2575 -91 1722 -91 
Q 1428 -91 1123 -41 
Q 819 9 494 109 
L 494 744 
Q 775 591 1075 516 
Q 1375 441 1709 441 
Q 2250 441 2565 725 
Q 2881 1009 2881 1497 
Q 2881 1984 2565 2268 
Q 2250 2553 1709 2553 
Q 1456 2553 1204 2497 
Q 953 2441 691 2322 
L 691 4666 
z
" transform="scale(0.015625)"/>
       </defs>
       <use xlink:href="#DejaVuSans-32"/>
       <use xlink:href="#DejaVuSans-30" transform="translate(63.623047 0)"/>
       <use xlink:href="#DejaVuSans-32" transform="translate(127.246094 0)"/>
       <use xlink:href="#DejaVuSans-35" transform="translate(190.869141 0)"/>
       <use xlink:href="#DejaVuSans-2d" transform="translate(254.492188 0)"/>
       <use xlink:href="#DejaVuSans-30" transform="translate(290.576172 0)"/>
       <use xlink:href="#DejaVuSans-31" transform="translate(354.199219 0)"/>
      </g>
     </g>
    </g>
   </g>
   <g id="matplotlib.axis_2">
    <g id="ytick_1">
     <g id="line2d_17">
      <path d="M 108 307.835235 
L 777.6 307.835235 
" clip-path="url(#p5a265ffb7b)" style="fill: none; stroke-dasharray: 5.12,1.28,0.8,1.28; stroke-dashoffset: 0; stroke: #b0b0b0; stroke-width: 0.8"/>
     </g>
     <g id="line2d_18">
      <defs>
       <path id="m0d3b1db22d" d="M 0 0 
L -3.5 0 
" style="stroke: #a9a9a9; stroke-width: 0.8"/>
      </defs>
      <g>
       <use xlink:href="#m0d3b1db22d" x="108" y="307.835235" style="fill: #a9a9a9; stroke: #a9a9a9; stroke-width: 0.8"/>
      </g>
     </g>
     <g id="text_9">
      <!-- 0 -->
      <g style="fill: #a9a9a9" transform="translate(94.6375 311.634454) scale(0.1 -0.1)">
       <use xlink:href="#DejaVuSans-30"/>
      </g>
     </g>
    </g>
    <g id="ytick_2">
     <g id="line2d_19">
      <path d="M 108 279.647315 
L 777.6 279.647315 
" clip-path="url(#p5a265ffb7b)" style="fill: none; stroke-dasharray: 5.12,1.28,0.8,1.28; stroke-dashoffset: 0; stroke: #b0b0b0; stroke-width: 0.8"/>
     </g>
     <g id="line2d_20">
      <g>
       <use xlink:href="#m0d3b1db22d" x="108" y="279.647315" style="fill: #a9a9a9; stroke: #a9a9a9; stroke-width: 0.8"/>
      </g>
     </g>
     <g id="text_10">
      <!-- 800 -->
      <g style="fill: #a9a9a9" transform="translate(81.9125 283.446534) scale(0.1 -0.1)">
       <defs>
        <path id="DejaVuSans-38" d="M 2034 2216 
Q 1584 2216 1326 1975 
Q 1069 1734 1069 1313 
Q 1069 891 1326 650 
Q 1584 409 2034 409 
Q 2484 409 2743 651 
Q 3003 894 3003 1313 
Q 3003 1734 2745 1975 
Q 2488 2216 2034 2216 
z
M 1403 2484 
Q 997 2584 770 2862 
Q 544 3141 544 3541 
Q 544 4100 942 4425 
Q 1341 4750 2034 4750 
Q 2731 4750 3128 4425 
Q 3525 4100 3525 3541 
Q 3525 3141 3298 2862 
Q 3072 2584 2669 2484 
Q 3125 2378 3379 2068 
Q 3634 1759 3634 1313 
Q 3634 634 3220 271 
Q 2806 -91 2034 -91 
Q 1263 -91 848 271 
Q 434 634 434 1313 
Q 434 1759 690 2068 
Q 947 2378 1403 2484 
z
M 1172 3481 
Q 1172 3119 1398 2916 
Q 1625 2713 2034 2713 
Q 2441 2713 2670 2916 
Q 2900 3119 2900 3481 
Q 2900 3844 2670 4047 
Q 2441 4250 2034 4250 
Q 1625 4250 1398 4047 
Q 1172 3844 1172 3481 
z
" transform="scale(0.015625)"/>
       </defs>
       <use xlink:href="#DejaVuSans-38"/>
       <use xlink:href="#DejaVuSans-30" transform="translate(63.623047 0)"/>
       <use xlink:href="#DejaVuSans-30" transform="translate(127.246094 0)"/>
      </g>
     </g>
    </g>
    <g id="ytick_3">
     <g id="line2d_21">
      <path d="M 108 251.459396 
L 777.6 251.459396 
" clip-path="url(#p5a265ffb7b)" style="fill: none; stroke-dasharray: 5.12,1.28,0.8,1.28; stroke-dashoffset: 0; stroke: #b0b0b0; stroke-width: 0.8"/>
     </g>
     <g id="line2d_22">
      <g>
       <use xlink:href="#m0d3b1db22d" x="108" y="251.459396" style="fill: #a9a9a9; stroke: #a9a9a9; stroke-width: 0.8"/>
      </g>
     </g>
     <g id="text_11">
      <!-- 1600 -->
      <g style="fill: #a9a9a9" transform="translate(75.55 255.258615) scale(0.1 -0.1)">
       <defs>
        <path id="DejaVuSans-36" d="M 2113 2584 
Q 1688 2584 1439 2293 
Q 1191 2003 1191 1497 
Q 1191 994 1439 701 
Q 1688 409 2113 409 
Q 2538 409 2786 701 
Q 3034 994 3034 1497 
Q 3034 2003 2786 2293 
Q 2538 2584 2113 2584 
z
M 3366 4563 
L 3366 3988 
Q 3128 4100 2886 4159 
Q 2644 4219 2406 4219 
Q 1781 4219 1451 3797 
Q 1122 3375 1075 2522 
Q 1259 2794 1537 2939 
Q 1816 3084 2150 3084 
Q 2853 3084 3261 2657 
Q 3669 2231 3669 1497 
Q 3669 778 3244 343 
Q 2819 -91 2113 -91 
Q 1303 -91 875 529 
Q 447 1150 447 2328 
Q 447 3434 972 4092 
Q 1497 4750 2381 4750 
Q 2619 4750 2861 4703 
Q 3103 4656 3366 4563 
z
" transform="scale(0.015625)"/>
       </defs>
       <use xlink:href="#DejaVuSans-31"/>
       <use xlink:href="#DejaVuSans-36" transform="translate(63.623047 0)"/>
       <use xlink:href="#DejaVuSans-30" transform="translate(127.246094 0)"/>
       <use xlink:href="#DejaVuSans-30" transform="translate(190.869141 0)"/>
      </g>
     </g>
    </g>
    <g id="ytick_4">
     <g id="line2d_23">
      <path d="M 108 223.271477 
L 777.6 223.271477 
" clip-path="url(#p5a265ffb7b)" style="fill: none; stroke-dasharray: 5.12,1.28,0.8,1.28; stroke-dashoffset: 0; stroke: #b0b0b0; stroke-width: 0.8"/>
     </g>
     <g id="line2d_24">
      <g>
       <use xlink:href="#m0d3b1db22d" x="108" y="223.271477" style="fill: #a9a9a9; stroke: #a9a9a9; stroke-width: 0.8"/>
      </g>
     </g>
     <g id="text_12">
      <!-- 2400 -->
      <g style="fill: #a9a9a9" transform="translate(75.55 227.070695) scale(0.1 -0.1)">
       <use xlink:href="#DejaVuSans-32"/>
       <use xlink:href="#DejaVuSans-34" transform="translate(63.623047 0)"/>
       <use xlink:href="#DejaVuSans-30" transform="translate(127.246094 0)"/>
       <use xlink:href="#DejaVuSans-30" transform="translate(190.869141 0)"/>
      </g>
     </g>
    </g>
    <g id="ytick_5">
     <g id="line2d_25">
      <path d="M 108 195.083557 
L 777.6 195.083557 
" clip-path="url(#p5a265ffb7b)" style="fill: none; stroke-dasharray: 5.12,1.28,0.8,1.28; stroke-dashoffset: 0; stroke: #b0b0b0; stroke-width: 0.8"/>
     </g>
     <g id="line2d_26">
      <g>
       <use xlink:href="#m0d3b1db22d" x="108" y="195.083557" style="fill: #a9a9a9; stroke: #a9a9a9; stroke-width: 0.8"/>
      </g>
     </g>
     <g id="text_13">
      <!-- 3200 -->
      <g style="fill: #a9a9a9" transform="translate(75.55 198.882776) scale(0.1 -0.1)">
       <use xlink:href="#DejaVuSans-33"/>
       <use xlink:href="#DejaVuSans-32" transform="translate(63.623047 0)"/>
       <use xlink:href="#DejaVuSans-30" transform="translate(127.246094 0)"/>
       <use xlink:href="#DejaVuSans-30" transform="translate(190.869141 0)"/>
      </g>
     </g>
    </g>
    <g id="ytick_6">
     <g id="line2d_27">
      <path d="M 108 166.895638 
L 777.6 166.895638 
" clip-path="url(#p5a265ffb7b)" style="fill: none; stroke-dasharray: 5.12,1.28,0.8,1.28; stroke-dashoffset: 0; stroke: #b0b0b0; stroke-width: 0.8"/>
     </g>
     <g id="line2d_28">
      <g>
       <use xlink:href="#m0d3b1db22d" x="108" y="166.895638" style="fill: #a9a9a9; stroke: #a9a9a9; stroke-width: 0.8"/>
      </g>
     </g>
     <g id="text_14">
      <!-- 4000 -->
      <g style="fill: #a9a9a9" transform="translate(75.55 170.694856) scale(0.1 -0.1)">
       <use xlink:href="#DejaVuSans-34"/>
       <use xlink:href="#DejaVuSans-30" transform="translate(63.623047 0)"/>
       <use xlink:href="#DejaVuSans-30" transform="translate(127.246094 0)"/>
       <use xlink:href="#DejaVuSans-30" transform="translate(190.869141 0)"/>
      </g>
     </g>
    </g>
    <g id="ytick_7">
     <g id="line2d_29">
      <path d="M 108 138.707718 
L 777.6 138.707718 
" clip-path="url(#p5a265ffb7b)" style="fill: none; stroke-dasharray: 5.12,1.28,0.8,1.28; stroke-dashoffset: 0; stroke: #b0b0b0; stroke-width: 0.8"/>
     </g>
     <g id="line2d_30">
      <g>
       <use xlink:href="#m0d3b1db22d" x="108" y="138.707718" style="fill: #a9a9a9; stroke: #a9a9a9; stroke-width: 0.8"/>
      </g>
     </g>
     <g id="text_15">
      <!-- 4800 -->
      <g style="fill: #a9a9a9" transform="translate(75.55 142.506937) scale(0.1 -0.1)">
       <use xlink:href="#DejaVuSans-34"/>
       <use xlink:href="#DejaVuSans-38" transform="translate(63.623047 0)"/>
       <use xlink:href="#DejaVuSans-30" transform="translate(127.246094 0)"/>
       <use xlink:href="#DejaVuSans-30" transform="translate(190.869141 0)"/>
      </g>
     </g>
    </g>
    <g id="ytick_8">
     <g id="line2d_31">
      <path d="M 108 110.519799 
L 777.6 110.519799 
" clip-path="url(#p5a265ffb7b)" style="fill: none; stroke-dasharray: 5.12,1.28,0.8,1.28; stroke-dashoffset: 0; stroke: #b0b0b0; stroke-width: 0.8"/>
     </g>
     <g id="line2d_32">
      <g>
       <use xlink:href="#m0d3b1db22d" x="108" y="110.519799" style="fill: #a9a9a9; stroke: #a9a9a9; stroke-width: 0.8"/>
      </g>
     </g>
     <g id="text_16">
      <!-- 5600 -->
      <g style="fill: #a9a9a9" transform="translate(75.55 114.319017) scale(0.1 -0.1)">
       <use xlink:href="#DejaVuSans-35"/>
       <use xlink:href="#DejaVuSans-36" transform="translate(63.623047 0)"/>
       <use xlink:href="#DejaVuSans-30" transform="translate(127.246094 0)"/>
       <use xlink:href="#DejaVuSans-30" transform="translate(190.869141 0)"/>
      </g>
     </g>
    </g>
    <g id="ytick_9">
     <g id="line2d_33">
      <path d="M 108 82.331879 
L 777.6 82.331879 
" clip-path="url(#p5a265ffb7b)" style="fill: none; stroke-dasharray: 5.12,1.28,0.8,1.28; stroke-dashoffset: 0; stroke: #b0b0b0; stroke-width: 0.8"/>
     </g>
     <g id="line2d_34">
      <g>
       <use xlink:href="#m0d3b1db22d" x="108" y="82.331879" style="fill: #a9a9a9; stroke: #a9a9a9; stroke-width: 0.8"/>
      </g>
     </g>
     <g id="text_17">
      <!-- 6400 -->
      <g style="fill: #a9a9a9" transform="translate(75.55 86.131098) scale(0.1 -0.1)">
       <use xlink:href="#DejaVuSans-36"/>
       <use xlink:href="#DejaVuSans-34" transform="translate(63.623047 0)"/>
       <use xlink:href="#DejaVuSans-30" transform="translate(127.246094 0)"/>
       <use xlink:href="#DejaVuSans-30" transform="translate(190.869141 0)"/>
      </g>
     </g>
    </g>
    <g id="ytick_10">
     <g id="line2d_35">
      <path d="M 108 54.14396 
L 777.6 54.14396 
" clip-path="url(#p5a265ffb7b)" style="fill: none; stroke-dasharray: 5.12,1.28,0.8,1.28; stroke-dashoffset: 0; stroke: #b0b0b0; stroke-width: 0.8"/>
     </g>
     <g id="line2d_36">
      <g>
       <use xlink:href="#m0d3b1db22d" x="108" y="54.14396" style="fill: #a9a9a9; stroke: #a9a9a9; stroke-width: 0.8"/>
      </g>
     </g>
     <g id="text_18">
      <!-- 7200 -->
      <g style="fill: #a9a9a9" transform="translate(75.55 57.943178) scale(0.1 -0.1)">
       <use xlink:href="#DejaVuSans-37"/>
       <use xlink:href="#DejaVuSans-32" transform="translate(63.623047 0)"/>
       <use xlink:href="#DejaVuSans-30" transform="translate(127.246094 0)"/>
       <use xlink:href="#DejaVuSans-30" transform="translate(190.869141 0)"/>
      </g>
     </g>
    </g>
   </g>
   <g id="line2d_37">
    <path d="M 138.436364 307.72953 
L 141.344296 307.482886 
L 141.828952 307.271477 
L 143.767574 307.024832 
L 145.706196 306.637248 
L 146.675507 306.496309 
L 149.098784 306.284899 
L 150.068095 305.897315 
L 150.55275 305.263087 
L 151.037406 304.910738 
L 151.522061 303.818456 
L 152.006717 303.747987 
L 152.491372 303.360403 
L 153.460683 302.867114 
L 155.399305 301.316779 
L 157.337927 300.365436 
L 158.791893 299.695973 
L 159.276549 298.920805 
L 160.24586 298.216107 
L 160.730515 298.004698 
L 165.57707 297.3 
L 166.061726 297.088591 
L 169.454314 296.806711 
L 171.392936 296.348658 
L 175.27018 295.820134 
L 175.754835 295.57349 
L 176.23949 295.50302 
L 177.208801 295.185906 
L 180.60139 294.622148 
L 181.570701 294.340268 
L 185.9326 293.600336 
L 186.901911 293.388926 
L 187.871222 293.353691 
L 189.809844 292.895638 
L 190.294499 292.226174 
L 191.748466 291.662416 
L 193.202432 291.274832 
L 193.687087 291.028188 
L 194.656398 290.852013 
L 196.59502 290.288255 
L 197.564331 290.217785 
L 198.533642 289.971141 
L 200.472264 289.477852 
L 200.95692 289.442617 
L 201.92623 288.984564 
L 202.410886 288.914094 
L 202.895541 288.66745 
L 208.226752 287.786577 
L 210.165373 287.222819 
L 210.650029 286.905705 
L 213.073306 286.095302 
L 214.042617 285.425839 
L 215.496584 285.14396 
L 228.097626 281.585235 
L 228.582281 281.585235 
L 229.066937 281.373826 
L 230.036248 281.268121 
L 230.520903 281.091946 
L 232.459525 281.021477 
L 233.428836 280.845302 
L 234.398147 280.352013 
L 235.852113 279.82349 
L 236.336769 279.506376 
L 237.30608 279.083557 
L 237.790735 278.836913 
L 238.760046 278.519799 
L 239.244702 278.378859 
L 240.214013 277.779866 
L 240.698668 277.251342 
L 241.667979 275.771477 
L 242.152635 275.630537 
L 242.63729 275.630537 
L 244.091257 274.784899 
L 244.575912 274.538255 
L 245.060567 274.43255 
L 245.545223 273.974497 
L 246.514534 273.586913 
L 247.483845 273.128859 
L 249.907122 270.063423 
L 252.815055 268.513087 
L 253.784366 267.737919 
L 254.269021 267.420805 
L 254.753677 266.716107 
L 255.238332 265.623826 
L 255.722988 264.883893 
L 256.207643 264.496309 
L 256.692299 264.284899 
L 260.569543 260.761409 
L 261.538854 259.880537 
L 264.446786 258.083557 
L 265.416097 257.555034 
L 267.354719 256.533221 
L 269.777997 254.348658 
L 270.747307 253.961074 
L 271.716618 253.291611 
L 272.201274 253.009732 
L 272.685929 252.939262 
L 274.139896 252.128859 
L 274.624551 251.600336 
L 277.047829 250.296644 
L 277.532484 250.12047 
L 278.98645 249.133893 
L 286.256283 246.561745 
L 287.225594 245.680872 
L 288.194904 245.222819 
L 289.164215 244.694295 
L 289.648871 244.412416 
L 290.618182 244.130537 
L 291.102837 243.813423 
L 291.587493 243.672483 
L 293.041459 242.721141 
L 295.464737 242.157383 
L 296.918703 241.311745 
L 298.372669 240.994631 
L 298.857325 240.853691 
L 300.311291 239.761409 
L 302.249913 239.232886 
L 302.734569 238.845302 
L 305.642501 237.858725 
L 306.611812 237.68255 
L 307.581123 237.294966 
L 310.973712 236.061745 
L 311.943023 235.920805 
L 313.396989 235.427517 
L 315.820266 234.264765 
L 317.758888 233.207718 
L 321.636132 231.622148 
L 322.120787 231.551678 
L 323.090098 230.952685 
L 323.574754 230.882215 
L 325.513376 230.107047 
L 327.451998 229.860403 
L 328.421309 229.367114 
L 328.905964 228.944295 
L 329.39062 228.063423 
L 331.329241 227.534899 
L 332.783208 226.794966 
L 333.267863 226.689262 
L 337.145107 224.821812 
L 338.599074 224.539933 
L 339.568384 224.046644 
L 340.05304 223.835235 
L 340.537695 223.764765 
L 342.476317 222.883893 
L 343.930284 221.967785 
L 345.38425 221.685906 
L 347.807528 221.086913 
L 348.292183 220.699329 
L 349.746149 220.170805 
L 351.684771 219.395638 
L 352.169427 219.043289 
L 352.654082 218.867114 
L 353.623393 218.338591 
L 356.046671 217.528188 
L 357.500637 216.365436 
L 357.985292 216.259732 
L 358.954603 215.484564 
L 359.439259 215.414094 
L 359.923914 214.638926 
L 360.40857 214.427517 
L 360.893225 214.039933 
L 361.377881 213.969463 
L 362.347192 213.37047 
L 363.316503 213.053356 
L 363.801158 212.701007 
L 364.285814 212.524832 
L 365.73978 211.50302 
L 367.678402 210.481208 
L 368.163057 210.410738 
L 369.617024 209.670805 
L 370.101679 208.860403 
L 371.07099 208.155705 
L 371.555646 208.05 
L 372.524957 207.451007 
L 373.009612 207.345302 
L 373.978923 206.852013 
L 375.917545 205.900671 
L 376.4022 205.548322 
L 377.371511 204.59698 
L 378.340822 203.997987 
L 378.825478 203.680872 
L 379.310133 203.152349 
L 381.248755 201.813423 
L 381.733411 201.249664 
L 382.218066 200.862081 
L 383.187377 200.509732 
L 384.156688 199.840268 
L 385.610654 199.100336 
L 386.09531 199.029866 
L 387.549276 198.254698 
L 388.518587 197.655705 
L 393.365142 195.89396 
L 393.849797 195.506376 
L 395.788419 194.766443 
L 396.273075 194.625503 
L 397.242386 193.991275 
L 398.211697 193.568456 
L 399.181008 192.898993 
L 400.150318 190.961074 
L 401.119629 189.833557 
L 402.573596 189.093624 
L 403.542907 188.70604 
L 404.027562 188.63557 
L 404.512218 188.353691 
L 406.935495 187.578523 
L 407.420151 187.367114 
L 408.389461 186.697651 
L 409.843428 186.063423 
L 410.812739 185.534899 
L 411.297394 185.18255 
L 411.78205 184.971141 
L 412.266705 184.618792 
L 412.751361 184.090268 
L 413.720672 183.561745 
L 416.143949 182.258054 
L 419.051882 180.813423 
L 420.505848 180.390604 
L 421.959815 179.826846 
L 422.44447 179.474497 
L 423.413781 179.192617 
L 424.383092 178.805034 
L 424.867748 178.41745 
L 426.806369 177.747987 
L 427.77568 177.043289 
L 428.744991 176.62047 
L 429.714302 175.845302 
L 430.683613 175.492953 
L 431.168269 175.070134 
L 431.652924 174.999664 
L 432.622235 174.259732 
L 433.591546 173.766443 
L 434.076202 173.555034 
L 434.560857 173.061745 
L 437.953445 171.722819 
L 438.922756 171.3 
L 440.376723 170.841946 
L 441.346034 170.701007 
L 441.830689 170.489597 
L 442.315345 170.419128 
L 443.284655 169.996309 
L 443.769311 169.961074 
L 445.707933 169.221141 
L 447.161899 168.199329 
L 447.646555 168.023154 
L 448.615866 167.494631 
L 449.100521 167.353691 
L 452.008454 165.732886 
L 452.493109 165.627181 
L 453.947076 164.781544 
L 455.401042 164.288255 
L 456.370353 163.971141 
L 458.308975 163.336913 
L 459.278286 163.019799 
L 461.216908 162.632215 
L 461.701563 162.420805 
L 462.186219 162.350336 
L 463.15553 161.927517 
L 463.640185 161.857047 
L 464.124841 161.610403 
L 465.094152 161.434228 
L 466.548118 160.905705 
L 467.517429 160.8 
L 468.971395 160.482886 
L 471.394673 160.060067 
L 483.995715 156.395638 
L 484.480371 155.902349 
L 485.449682 155.514765 
L 489.326925 154.070134 
L 489.811581 153.788255 
L 491.265547 153.365436 
L 492.234858 153.118792 
L 492.719514 152.801678 
L 493.204169 152.695973 
L 493.688825 152.273154 
L 495.142791 151.991275 
L 496.112102 151.533221 
L 496.596757 150.969463 
L 498.535379 150.511409 
L 501.927968 149.806711 
L 502.412623 149.806711 
L 502.897279 149.595302 
L 504.8359 149.242953 
L 505.320556 149.031544 
L 507.259178 148.679195 
L 508.228489 148.256376 
L 509.1978 148.080201 
L 511.621077 147.481208 
L 513.559699 146.882215 
L 514.044354 146.77651 
L 514.52901 146.529866 
L 515.498321 146.283221 
L 515.982976 146.001342 
L 517.436943 145.508054 
L 517.921598 145.19094 
L 518.890909 144.90906 
L 522.768153 143.570134 
L 523.737464 143.499664 
L 525.676086 142.935906 
L 526.160741 142.654027 
L 527.130052 142.372148 
L 529.553329 141.279866 
L 530.037985 141.244631 
L 535.369195 139.377181 
L 537.792472 138.742953 
L 538.761783 138.284899 
L 540.21575 137.967785 
L 542.154372 136.382215 
L 543.123683 136.100336 
L 543.608338 135.712752 
L 546.516271 134.62047 
L 547.000926 134.303356 
L 547.970237 134.021477 
L 548.454893 133.704362 
L 550.87817 132.929195 
L 552.332137 132.083557 
L 552.816792 131.977852 
L 555.240069 130.674161 
L 556.694036 130.039933 
L 557.178691 129.687584 
L 558.148002 129.37047 
L 559.117313 128.806711 
L 559.601969 128.630537 
L 560.086624 128.278188 
L 566.387145 126.058389 
L 566.871801 125.952685 
L 567.356456 125.63557 
L 569.295078 125.247987 
L 570.264389 124.860403 
L 573.172322 123.451007 
L 573.656977 123.380537 
L 575.110944 122.570134 
L 576.56491 122.076846 
L 579.957499 120.702685 
L 580.442154 120.561745 
L 580.926809 120.244631 
L 581.89612 120.138926 
L 582.380776 119.821812 
L 583.350087 119.645638 
L 584.319398 119.187584 
L 584.804053 118.976174 
L 585.288709 118.905705 
L 587.711986 117.954362 
L 589.165953 117.566779 
L 590.135263 117.320134 
L 591.58923 116.897315 
L 592.558541 116.509732 
L 594.497163 115.452685 
L 595.466474 115.065101 
L 595.951129 114.747987 
L 596.92044 114.536577 
L 597.405096 114.254698 
L 597.889751 114.148993 
L 599.343717 113.338591 
L 600.313028 112.951007 
L 602.25165 112.211074 
L 604.674928 111.400671 
L 605.644239 110.907383 
L 608.067516 110.09698 
L 610.975449 108.934228 
L 612.914071 108.053356 
L 617.760625 106.185906 
L 618.245281 105.868792 
L 620.183903 105.199329 
L 620.668558 105.199329 
L 621.637869 104.77651 
L 623.576491 103.226174 
L 624.061146 103.085235 
L 624.545802 102.768121 
L 625.030457 102.662416 
L 625.515113 102.415772 
L 625.999768 102.345302 
L 626.484424 101.992953 
L 626.969079 101.887248 
L 627.93839 101.288255 
L 629.392357 100.548322 
L 630.361668 100.160738 
L 630.846323 99.914094 
L 632.30029 99.59698 
L 634.723567 98.786577 
L 635.692878 98.469463 
L 637.146844 97.72953 
L 638.116155 97.271477 
L 639.085466 97.024832 
L 640.539433 96.355369 
L 644.901332 94.769799 
L 646.355298 93.888926 
L 646.839954 93.783221 
L 647.809265 93.325168 
L 648.778576 92.972819 
L 649.263231 92.55 
L 650.232542 92.162416 
L 653.140475 90.999664 
L 654.594441 90.576846 
L 655.079097 90.330201 
L 655.563752 90.259732 
L 657.017719 89.731208 
L 658.471685 89.202685 
L 659.440996 88.815101 
L 659.925651 88.427517 
L 661.379618 88.039933 
L 661.864273 87.758054 
L 662.833584 87.511409 
L 664.287551 86.701007 
L 664.772206 86.665772 
L 666.226173 86.207718 
L 667.195483 86.137248 
L 668.164794 85.749664 
L 671.072727 84.904027 
L 672.042038 84.868792 
L 675.919282 83.63557 
L 676.888593 83.107047 
L 677.373248 82.684228 
L 678.827215 81.838591 
L 679.31187 81.486242 
L 680.281181 81.133893 
L 682.704459 80.358725 
L 683.189114 79.971141 
L 686.097047 78.773154 
L 688.035669 78.244631 
L 689.00498 77.821812 
L 689.489635 77.575168 
L 690.458946 77.293289 
L 690.943602 77.011409 
L 691.912913 76.835235 
L 694.33619 75.707718 
L 694.820845 75.425839 
L 696.274812 75.07349 
L 696.759467 74.756376 
L 697.244123 74.580201 
L 697.728778 74.157383 
L 698.213434 74.086913 
L 700.152056 73.311745 
L 702.090677 72.853691 
L 702.575333 72.783221 
L 703.059988 72.571812 
L 703.544644 72.536577 
L 704.513955 72.219463 
L 704.99861 72.184228 
L 706.452577 71.62047 
L 708.391199 71.056711 
L 709.36051 70.316779 
L 711.299131 69.259732 
L 712.753098 68.766443 
L 715.661031 67.462752 
L 716.630342 66.934228 
L 717.114997 66.687584 
L 717.599653 66.22953 
L 720.507585 65.278188 
L 721.476896 64.890604 
L 722.446207 64.608725 
L 722.930863 64.362081 
L 723.415518 63.939262 
L 725.35414 63.445973 
L 725.838796 63.093624 
L 732.139317 60.803356 
L 733.108628 60.627181 
L 737.470527 59.112081 
L 738.439838 58.865436 
L 738.924493 58.654027 
L 739.409149 58.618792 
L 740.37846 58.231208 
L 741.347771 57.632215 
L 741.832426 57.45604 
L 742.317082 57.420805 
L 743.771048 56.786577 
L 745.225014 56.258054 
L 745.70967 56.187584 
L 746.678981 55.8 
L 747.163636 55.8 
L 747.163636 55.8 
" clip-path="url(#p5a265ffb7b)" style="fill: none; stroke: #1f77b4; stroke-width: 1.5; stroke-linecap: square"/>
   </g>
   <g id="line2d_38">
    <path d="M 138.921019 307.8 
L 143.282918 307.694295 
L 147.160162 307.518121 
L 149.098784 307.518121 
L 149.583439 307.377181 
L 152.006717 307.271477 
L 154.91465 306.954362 
L 157.822583 306.848658 
L 158.791893 306.742953 
L 162.184482 306.602013 
L 165.57707 306.496309 
L 168.000347 306.425839 
L 174.300869 306.320134 
L 176.724146 306.249664 
L 180.116734 306.14396 
L 182.540012 306.07349 
L 187.871222 305.967785 
L 189.809844 305.791611 
L 191.748466 305.756376 
L 194.656398 305.650671 
L 196.59502 305.615436 
L 199.018298 305.544966 
L 200.95692 305.368792 
L 205.318819 305.263087 
L 206.28813 305.192617 
L 208.226752 305.086913 
L 211.134684 304.981208 
L 213.073306 304.875503 
L 221.797105 304.34698 
L 225.189693 304.241275 
L 226.64366 304.100336 
L 229.066937 303.994631 
L 233.913492 303.747987 
L 238.760046 303.677517 
L 240.698668 303.466107 
L 242.63729 303.360403 
L 247.9685 302.867114 
L 251.361089 302.47953 
L 252.815055 302.40906 
L 256.692299 301.915772 
L 259.600232 301.845302 
L 261.054198 301.704362 
L 262.508164 301.598658 
L 276.078518 300.576846 
L 277.047829 300.400671 
L 279.955761 300.294966 
L 287.710249 299.836913 
L 291.102837 299.731208 
L 293.041459 299.519799 
L 295.464737 299.414094 
L 298.372669 299.308389 
L 300.795947 299.202685 
L 302.734569 299.16745 
L 305.157846 299.09698 
L 306.127157 298.95604 
L 312.912334 298.850336 
L 313.881644 298.744631 
L 319.69751 298.638926 
L 324.059409 298.427517 
L 327.451998 298.321812 
L 329.39062 298.110403 
L 332.783208 298.004698 
L 333.752519 297.828523 
L 336.175796 297.758054 
L 341.022351 297.687584 
L 342.960973 297.511409 
L 344.899595 297.476174 
L 346.353561 297.37047 
L 348.292183 297.194295 
L 353.138738 296.947651 
L 357.985292 296.841946 
L 362.347192 296.630537 
L 363.801158 296.595302 
L 364.770469 296.454362 
L 367.193746 296.348658 
L 368.163057 296.278188 
L 369.132368 296.207718 
L 370.101679 296.137248 
L 374.463578 296.066779 
L 375.917545 295.961074 
L 389.003243 295.115436 
L 391.42652 295.009732 
L 393.849797 294.939262 
L 400.634974 294.833557 
L 401.604285 294.692617 
L 408.389461 294.586913 
L 413.236016 294.340268 
L 414.205327 294.305034 
L 415.174638 294.199329 
L 417.597915 294.093624 
L 420.021193 294.023154 
L 422.44447 293.91745 
L 424.867748 293.84698 
L 429.229647 293.741275 
L 432.13758 293.63557 
L 438.922756 293.529866 
L 444.253966 293.247987 
L 446.192588 293.177517 
L 447.646555 293.071812 
L 454.431731 292.966107 
L 457.339664 292.860403 
L 466.063463 292.754698 
L 468.002085 292.719463 
L 473.81795 292.648993 
L 474.787261 292.578523 
L 481.572438 292.472819 
L 483.51106 292.437584 
L 496.112102 292.331879 
L 497.566068 292.19094 
L 519.375565 292.085235 
L 521.798842 292.014765 
L 534.399884 291.90906 
L 535.369195 291.838591 
L 537.792472 291.768121 
L 539.246439 291.627181 
L 542.154372 291.521477 
L 545.54696 291.380537 
L 549.908859 291.274832 
L 552.332137 291.204362 
L 555.724725 291.098658 
L 559.601969 290.922483 
L 562.025246 290.816779 
L 563.963868 290.781544 
L 568.325767 290.675839 
L 570.264389 290.640604 
L 576.56491 290.534899 
L 578.503532 290.499664 
L 580.926809 290.39396 
L 583.834742 290.288255 
L 587.227331 290.217785 
L 588.196642 290.147315 
L 599.828373 290.041611 
L 606.128894 289.689262 
L 608.552171 289.618792 
L 609.521482 289.513087 
L 610.490793 289.442617 
L 614.368037 289.336913 
L 617.27597 289.231208 
L 622.122525 289.125503 
L 624.545802 288.878859 
L 629.392357 288.773154 
L 630.361668 288.66745 
L 635.208222 288.561745 
L 637.6315 288.491275 
L 642.96271 288.45604 
L 643.932021 288.350336 
L 649.263231 288.244631 
L 650.232542 288.174161 
L 660.894962 288.068456 
L 663.802895 287.962752 
L 671.072727 287.857047 
L 673.011349 287.821812 
L 677.373248 287.751342 
L 678.342559 287.645638 
L 684.64308 287.539933 
L 687.066358 287.469463 
L 695.790156 287.363758 
L 697.244123 287.258054 
L 698.698089 287.152349 
L 700.152056 287.046644 
L 707.421888 286.94094 
L 710.32982 286.835235 
L 723.415518 286.72953 
L 727.777417 286.518121 
L 733.593283 286.412416 
L 734.562594 286.306711 
L 741.832426 286.236242 
L 742.801737 286.165772 
L 747.163636 286.095302 
L 747.163636 286.095302 
" clip-path="url(#p5a265ffb7b)" style="fill: none; stroke: #ff7f0e; stroke-width: 1.5; stroke-linecap: square"/>
   </g>
   <g id="patch_3">
    <path d="M 108 320.4 
L 108 43.2 
" style="fill: none; stroke: #a9a9a9; stroke-width: 0.8; stroke-linejoin: miter; stroke-linecap: square"/>
   </g>
   <g id="patch_4">
    <path d="M 777.6 320.4 
L 777.6 43.2 
" style="fill: none"/>
   </g>
   <g id="patch_5">
    <path d="M 108 320.4 
L 777.6 320.4 
" style="fill: none; stroke: #a9a9a9; stroke-width: 0.8; stroke-linejoin: miter; stroke-linecap: square"/>
   </g>
   <g id="patch_6">
    <path d="M 108 43.2 
L 777.6 43.2 
" style="fill: none"/>
   </g>
   <g id="text_19">
    <!-- get_subscribe history -->
    <g style="fill: #a9a9a9" transform="translate(378.6075 37.2) scale(0.12 -0.12)">
     <defs>
      <path id="DejaVuSans-67" d="M 2906 1791 
Q 2906 2416 2648 2759 
Q 2391 3103 1925 3103 
Q 1463 3103 1205 2759 
Q 947 2416 947 1791 
Q 947 1169 1205 825 
Q 1463 481 1925 481 
Q 2391 481 2648 825 
Q 2906 1169 2906 1791 
z
M 3481 434 
Q 3481 -459 3084 -895 
Q 2688 -1331 1869 -1331 
Q 1566 -1331 1297 -1286 
Q 1028 -1241 775 -1147 
L 775 -588 
Q 1028 -725 1275 -790 
Q 1522 -856 1778 -856 
Q 2344 -856 2625 -561 
Q 2906 -266 2906 331 
L 2906 616 
Q 2728 306 2450 153 
Q 2172 0 1784 0 
Q 1141 0 747 490 
Q 353 981 353 1791 
Q 353 2603 747 3093 
Q 1141 3584 1784 3584 
Q 2172 3584 2450 3431 
Q 2728 3278 2906 2969 
L 2906 3500 
L 3481 3500 
L 3481 434 
z
" transform="scale(0.015625)"/>
      <path id="DejaVuSans-65" d="M 3597 1894 
L 3597 1613 
L 953 1613 
Q 991 1019 1311 708 
Q 1631 397 2203 397 
Q 2534 397 2845 478 
Q 3156 559 3463 722 
L 3463 178 
Q 3153 47 2828 -22 
Q 2503 -91 2169 -91 
Q 1331 -91 842 396 
Q 353 884 353 1716 
Q 353 2575 817 3079 
Q 1281 3584 2069 3584 
Q 2775 3584 3186 3129 
Q 3597 2675 3597 1894 
z
M 3022 2063 
Q 3016 2534 2758 2815 
Q 2500 3097 2075 3097 
Q 1594 3097 1305 2825 
Q 1016 2553 972 2059 
L 3022 2063 
z
" transform="scale(0.015625)"/>
      <path id="DejaVuSans-74" d="M 1172 4494 
L 1172 3500 
L 2356 3500 
L 2356 3053 
L 1172 3053 
L 1172 1153 
Q 1172 725 1289 603 
Q 1406 481 1766 481 
L 2356 481 
L 2356 0 
L 1766 0 
Q 1100 0 847 248 
Q 594 497 594 1153 
L 594 3053 
L 172 3053 
L 172 3500 
L 594 3500 
L 594 4494 
L 1172 4494 
z
" transform="scale(0.015625)"/>
      <path id="DejaVuSans-5f" d="M 3263 -1063 
L 3263 -1509 
L -63 -1509 
L -63 -1063 
L 3263 -1063 
z
" transform="scale(0.015625)"/>
      <path id="DejaVuSans-73" d="M 2834 3397 
L 2834 2853 
Q 2591 2978 2328 3040 
Q 2066 3103 1784 3103 
Q 1356 3103 1142 2972 
Q 928 2841 928 2578 
Q 928 2378 1081 2264 
Q 1234 2150 1697 2047 
L 1894 2003 
Q 2506 1872 2764 1633 
Q 3022 1394 3022 966 
Q 3022 478 2636 193 
Q 2250 -91 1575 -91 
Q 1294 -91 989 -36 
Q 684 19 347 128 
L 347 722 
Q 666 556 975 473 
Q 1284 391 1588 391 
Q 1994 391 2212 530 
Q 2431 669 2431 922 
Q 2431 1156 2273 1281 
Q 2116 1406 1581 1522 
L 1381 1569 
Q 847 1681 609 1914 
Q 372 2147 372 2553 
Q 372 3047 722 3315 
Q 1072 3584 1716 3584 
Q 2034 3584 2315 3537 
Q 2597 3491 2834 3397 
z
" transform="scale(0.015625)"/>
      <path id="DejaVuSans-75" d="M 544 1381 
L 544 3500 
L 1119 3500 
L 1119 1403 
Q 1119 906 1312 657 
Q 1506 409 1894 409 
Q 2359 409 2629 706 
Q 2900 1003 2900 1516 
L 2900 3500 
L 3475 3500 
L 3475 0 
L 2900 0 
L 2900 538 
Q 2691 219 2414 64 
Q 2138 -91 1772 -91 
Q 1169 -91 856 284 
Q 544 659 544 1381 
z
M 1991 3584 
L 1991 3584 
z
" transform="scale(0.015625)"/>
      <path id="DejaVuSans-62" d="M 3116 1747 
Q 3116 2381 2855 2742 
Q 2594 3103 2138 3103 
Q 1681 3103 1420 2742 
Q 1159 2381 1159 1747 
Q 1159 1113 1420 752 
Q 1681 391 2138 391 
Q 2594 391 2855 752 
Q 3116 1113 3116 1747 
z
M 1159 2969 
Q 1341 3281 1617 3432 
Q 1894 3584 2278 3584 
Q 2916 3584 3314 3078 
Q 3713 2572 3713 1747 
Q 3713 922 3314 415 
Q 2916 -91 2278 -91 
Q 1894 -91 1617 61 
Q 1341 213 1159 525 
L 1159 0 
L 581 0 
L 581 4863 
L 1159 4863 
L 1159 2969 
z
" transform="scale(0.015625)"/>
      <path id="DejaVuSans-63" d="M 3122 3366 
L 3122 2828 
Q 2878 2963 2633 3030 
Q 2388 3097 2138 3097 
Q 1578 3097 1268 2742 
Q 959 2388 959 1747 
Q 959 1106 1268 751 
Q 1578 397 2138 397 
Q 2388 397 2633 464 
Q 2878 531 3122 666 
L 3122 134 
Q 2881 22 2623 -34 
Q 2366 -91 2075 -91 
Q 1284 -91 818 406 
Q 353 903 353 1747 
Q 353 2603 823 3093 
Q 1294 3584 2113 3584 
Q 2378 3584 2631 3529 
Q 2884 3475 3122 3366 
z
" transform="scale(0.015625)"/>
      <path id="DejaVuSans-72" d="M 2631 2963 
Q 2534 3019 2420 3045 
Q 2306 3072 2169 3072 
Q 1681 3072 1420 2755 
Q 1159 2438 1159 1844 
L 1159 0 
L 581 0 
L 581 3500 
L 1159 3500 
L 1159 2956 
Q 1341 3275 1631 3429 
Q 1922 3584 2338 3584 
Q 2397 3584 2469 3576 
Q 2541 3569 2628 3553 
L 2631 2963 
z
" transform="scale(0.015625)"/>
      <path id="DejaVuSans-69" d="M 603 3500 
L 1178 3500 
L 1178 0 
L 603 0 
L 603 3500 
z
M 603 4863 
L 1178 4863 
L 1178 4134 
L 603 4134 
L 603 4863 
z
" transform="scale(0.015625)"/>
      <path id="DejaVuSans-20" transform="scale(0.015625)"/>
      <path id="DejaVuSans-68" d="M 3513 2113 
L 3513 0 
L 2938 0 
L 2938 2094 
Q 2938 2591 2744 2837 
Q 2550 3084 2163 3084 
Q 1697 3084 1428 2787 
Q 1159 2491 1159 1978 
L 1159 0 
L 581 0 
L 581 4863 
L 1159 4863 
L 1159 2956 
Q 1366 3272 1645 3428 
Q 1925 3584 2291 3584 
Q 2894 3584 3203 3211 
Q 3513 2838 3513 2113 
z
" transform="scale(0.015625)"/>
      <path id="DejaVuSans-6f" d="M 1959 3097 
Q 1497 3097 1228 2736 
Q 959 2375 959 1747 
Q 959 1119 1226 758 
Q 1494 397 1959 397 
Q 2419 397 2687 759 
Q 2956 1122 2956 1747 
Q 2956 2369 2687 2733 
Q 2419 3097 1959 3097 
z
M 1959 3584 
Q 2709 3584 3137 3096 
Q 3566 2609 3566 1747 
Q 3566 888 3137 398 
Q 2709 -91 1959 -91 
Q 1206 -91 779 398 
Q 353 888 353 1747 
Q 353 2609 779 3096 
Q 1206 3584 1959 3584 
z
" transform="scale(0.015625)"/>
      <path id="DejaVuSans-79" d="M 2059 -325 
Q 1816 -950 1584 -1140 
Q 1353 -1331 966 -1331 
L 506 -1331 
L 506 -850 
L 844 -850 
Q 1081 -850 1212 -737 
Q 1344 -625 1503 -206 
L 1606 56 
L 191 3500 
L 800 3500 
L 1894 763 
L 2988 3500 
L 3597 3500 
L 2059 -325 
z
" transform="scale(0.015625)"/>
     </defs>
     <use xlink:href="#DejaVuSans-67"/>
     <use xlink:href="#DejaVuSans-65" transform="translate(63.476562 0)"/>
     <use xlink:href="#DejaVuSans-74" transform="translate(125 0)"/>
     <use xlink:href="#DejaVuSans-5f" transform="translate(164.208984 0)"/>
     <use xlink:href="#DejaVuSans-73" transform="translate(214.208984 0)"/>
     <use xlink:href="#DejaVuSans-75" transform="translate(266.308594 0)"/>
     <use xlink:href="#DejaVuSans-62" transform="translate(329.6875 0)"/>
     <use xlink:href="#DejaVuSans-73" transform="translate(393.164062 0)"/>
     <use xlink:href="#DejaVuSans-63" transform="translate(445.263672 0)"/>
     <use xlink:href="#DejaVuSans-72" transform="translate(500.244141 0)"/>
     <use xlink:href="#DejaVuSans-69" transform="translate(541.357422 0)"/>
     <use xlink:href="#DejaVuSans-62" transform="translate(569.140625 0)"/>
     <use xlink:href="#DejaVuSans-65" transform="translate(632.617188 0)"/>
     <use xlink:href="#DejaVuSans-20" transform="translate(694.140625 0)"/>
     <use xlink:href="#DejaVuSans-68" transform="translate(725.927734 0)"/>
     <use xlink:href="#DejaVuSans-69" transform="translate(789.306641 0)"/>
     <use xlink:href="#DejaVuSans-73" transform="translate(817.089844 0)"/>
     <use xlink:href="#DejaVuSans-74" transform="translate(869.189453 0)"/>
     <use xlink:href="#DejaVuSans-6f" transform="translate(908.398438 0)"/>
     <use xlink:href="#DejaVuSans-72" transform="translate(969.580078 0)"/>
     <use xlink:href="#DejaVuSans-79" transform="translate(1010.693359 0)"/>
    </g>
   </g>
   <g id="legend_1">
    <g id="line2d_39">
     <path d="M 815.08 328.498438 
L 825.08 328.498438 
L 835.08 328.498438 
" style="fill: none; stroke: #1f77b4; stroke-width: 1.5; stroke-linecap: square"/>
    </g>
    <g id="text_20">
     <!-- star -->
     <g style="fill: #a9a9a9" transform="translate(843.08 331.998438) scale(0.1 -0.1)">
      <defs>
       <path id="DejaVuSans-61" d="M 2194 1759 
Q 1497 1759 1228 1600 
Q 959 1441 959 1056 
Q 959 750 1161 570 
Q 1363 391 1709 391 
Q 2188 391 2477 730 
Q 2766 1069 2766 1631 
L 2766 1759 
L 2194 1759 
z
M 3341 1997 
L 3341 0 
L 2766 0 
L 2766 531 
Q 2569 213 2275 61 
Q 1981 -91 1556 -91 
Q 1019 -91 701 211 
Q 384 513 384 1019 
Q 384 1609 779 1909 
Q 1175 2209 1959 2209 
L 2766 2209 
L 2766 2266 
Q 2766 2663 2505 2880 
Q 2244 3097 1772 3097 
Q 1472 3097 1187 3025 
Q 903 2953 641 2809 
L 641 3341 
Q 956 3463 1253 3523 
Q 1550 3584 1831 3584 
Q 2591 3584 2966 3190 
Q 3341 2797 3341 1997 
z
" transform="scale(0.015625)"/>
      </defs>
      <use xlink:href="#DejaVuSans-73"/>
      <use xlink:href="#DejaVuSans-74" transform="translate(52.099609 0)"/>
      <use xlink:href="#DejaVuSans-61" transform="translate(91.308594 0)"/>
      <use xlink:href="#DejaVuSans-72" transform="translate(152.587891 0)"/>
     </g>
    </g>
    <g id="line2d_40">
     <path d="M 815.08 343.176562 
L 825.08 343.176562 
L 835.08 343.176562 
" style="fill: none; stroke: #ff7f0e; stroke-width: 1.5; stroke-linecap: square"/>
    </g>
    <g id="text_21">
     <!-- fork -->
     <g style="fill: #a9a9a9" transform="translate(843.08 346.676562) scale(0.1 -0.1)">
      <defs>
       <path id="DejaVuSans-66" d="M 2375 4863 
L 2375 4384 
L 1825 4384 
Q 1516 4384 1395 4259 
Q 1275 4134 1275 3809 
L 1275 3500 
L 2222 3500 
L 2222 3053 
L 1275 3053 
L 1275 0 
L 697 0 
L 697 3053 
L 147 3053 
L 147 3500 
L 697 3500 
L 697 3744 
Q 697 4328 969 4595 
Q 1241 4863 1831 4863 
L 2375 4863 
z
" transform="scale(0.015625)"/>
       <path id="DejaVuSans-6b" d="M 581 4863 
L 1159 4863 
L 1159 1991 
L 2875 3500 
L 3609 3500 
L 1753 1863 
L 3688 0 
L 2938 0 
L 1159 1709 
L 1159 0 
L 581 0 
L 581 4863 
z
" transform="scale(0.015625)"/>
      </defs>
      <use xlink:href="#DejaVuSans-66"/>
      <use xlink:href="#DejaVuSans-6f" transform="translate(35.205078 0)"/>
      <use xlink:href="#DejaVuSans-72" transform="translate(96.386719 0)"/>
      <use xlink:href="#DejaVuSans-6b" transform="translate(137.5 0)"/>
     </g>
    </g>
   </g>
  </g>
 </g>
 <defs>
  <clipPath id="p5a265ffb7b">
   <rect x="108" y="43.2" width="669.6" height="277.2"/>
  </clipPath>
 </defs>
</svg>
