<?xml version="1.0" encoding="utf-8" standalone="no"?>
<!DOCTYPE svg PUBLIC "-//W3C//DTD SVG 1.1//EN"
  "http://www.w3.org/Graphics/SVG/1.1/DTD/svg11.dtd">
<svg xmlns:xlink="http://www.w3.org/1999/xlink" width="864pt" height="360pt" viewBox="0 0 864 360" xmlns="http://www.w3.org/2000/svg" version="1.1">
 <metadata>
  <rdf:RDF xmlns:dc="http://purl.org/dc/elements/1.1/" xmlns:cc="http://creativecommons.org/ns#" xmlns:rdf="http://www.w3.org/1999/02/22-rdf-syntax-ns#">
   <cc:Work>
    <dc:type rdf:resource="http://purl.org/dc/dcmitype/StillImage"/>
    <dc:date>2026-03-14T20:09:35.111572</dc:date>
    <dc:format>image/svg+xml</dc:format>
    <dc:creator>
     <cc:Agent>
      <dc:title>Matplotlib v3.10.8, https://matplotlib.org/</dc:title>
     </cc:Agent>
    </dc:creator>
   </cc:Work>
  </rdf:RDF>
 </metadata>
 <defs>
  <style type="text/css">*{stroke-linejoin: round; stroke-linecap: butt}</style>
 </defs>
 <g id="figure_1">
  <g id="patch_1">
   <path d="M 0 360 
L 864 360 
L 864 0 
L 0 0 
L 0 360 
z
" style="fill: none; opacity: 0"/>
  </g>
  <g id="axes_1">
   <g id="patch_2">
    <path d="M 108 320.4 
L 777.6 320.4 
L 777.6 43.2 
L 108 43.2 
L 108 320.4 
z
" style="fill: none; opacity: 0"/>
   </g>
   <g id="matplotlib.axis_1">
    <g id="xtick_1">
     <g id="line2d_1">
      <path d="M 196.290609 320.4 
L 196.290609 43.2 
" clip-path="url(#p6df20fb928)" style="fill: none; stroke-dasharray: 5.12,1.28,0.8,1.28; stroke-dashoffset: 0; stroke: #b0b0b0; stroke-width: 0.8"/>
     </g>
     <g id="line2d_2">
      <defs>
       <path id="m8a38a05d60" d="M 0 0 
L 0 3.5 
" style="stroke: #a9a9a9; stroke-width: 0.8"/>
      </defs>
      <g>
       <use xlink:href="#m8a38a05d60" x="196.290609" y="320.4" style="fill: #a9a9a9; stroke: #a9a9a9; stroke-width: 0.8"/>
      </g>
     </g>
     <g id="text_1">
      <!-- 2022 -->
      <g style="fill: #a9a9a9" transform="translate(183.565609 334.998438) scale(0.1 -0.1)">
       <defs>
        <path id="DejaVuSans-32" d="M 1228 531 
L 3431 531 
L 3431 0 
L 469 0 
L 469 531 
Q 828 903 1448 1529 
Q 2069 2156 2228 2338 
Q 2531 2678 2651 2914 
Q 2772 3150 2772 3378 
Q 2772 3750 2511 3984 
Q 2250 4219 1831 4219 
Q 1534 4219 1204 4116 
Q 875 4013 500 3803 
L 500 4441 
Q 881 4594 1212 4672 
Q 1544 4750 1819 4750 
Q 2544 4750 2975 4387 
Q 3406 4025 3406 3419 
Q 3406 3131 3298 2873 
Q 3191 2616 2906 2266 
Q 2828 2175 2409 1742 
Q 1991 1309 1228 531 
z
" transform="scale(0.015625)"/>
        <path id="DejaVuSans-30" d="M 2034 4250 
Q 1547 4250 1301 3770 
Q 1056 3291 1056 2328 
Q 1056 1369 1301 889 
Q 1547 409 2034 409 
Q 2525 409 2770 889 
Q 3016 1369 3016 2328 
Q 3016 3291 2770 3770 
Q 2525 4250 2034 4250 
z
M 2034 4750 
Q 2819 4750 3233 4129 
Q 3647 3509 3647 2328 
Q 3647 1150 3233 529 
Q 2819 -91 2034 -91 
Q 1250 -91 836 529 
Q 422 1150 422 2328 
Q 422 3509 836 4129 
Q 1250 4750 2034 4750 
z
" transform="scale(0.015625)"/>
       </defs>
       <use xlink:href="#DejaVuSans-32"/>
       <use xlink:href="#DejaVuSans-30" transform="translate(63.623047 0)"/>
       <use xlink:href="#DejaVuSans-32" transform="translate(127.246094 0)"/>
       <use xlink:href="#DejaVuSans-32" transform="translate(190.869141 0)"/>
      </g>
     </g>
    </g>
    <g id="xtick_2">
     <g id="line2d_3">
      <path d="M 327.450853 320.4 
L 327.450853 43.2 
" clip-path="url(#p6df20fb928)" style="fill: none; stroke-dasharray: 5.12,1.28,0.8,1.28; stroke-dashoffset: 0; stroke: #b0b0b0; stroke-width: 0.8"/>
     </g>
     <g id="line2d_4">
      <g>
       <use xlink:href="#m8a38a05d60" x="327.450853" y="320.4" style="fill: #a9a9a9; stroke: #a9a9a9; stroke-width: 0.8"/>
      </g>
     </g>
     <g id="text_2">
      <!-- 2023 -->
      <g style="fill: #a9a9a9" transform="translate(314.725853 334.998438) scale(0.1 -0.1)">
       <defs>
        <path id="DejaVuSans-33" d="M 2597 2516 
Q 3050 2419 3304 2112 
Q 3559 1806 3559 1356 
Q 3559 666 3084 287 
Q 2609 -91 1734 -91 
Q 1441 -91 1130 -33 
Q 819 25 488 141 
L 488 750 
Q 750 597 1062 519 
Q 1375 441 1716 441 
Q 2309 441 2620 675 
Q 2931 909 2931 1356 
Q 2931 1769 2642 2001 
Q 2353 2234 1838 2234 
L 1294 2234 
L 1294 2753 
L 1863 2753 
Q 2328 2753 2575 2939 
Q 2822 3125 2822 3475 
Q 2822 3834 2567 4026 
Q 2313 4219 1838 4219 
Q 1578 4219 1281 4162 
Q 984 4106 628 3988 
L 628 4550 
Q 988 4650 1302 4700 
Q 1616 4750 1894 4750 
Q 2613 4750 3031 4423 
Q 3450 4097 3450 3541 
Q 3450 3153 3228 2886 
Q 3006 2619 2597 2516 
z
" transform="scale(0.015625)"/>
       </defs>
       <use xlink:href="#DejaVuSans-32"/>
       <use xlink:href="#DejaVuSans-30" transform="translate(63.623047 0)"/>
       <use xlink:href="#DejaVuSans-32" transform="translate(127.246094 0)"/>
       <use xlink:href="#DejaVuSans-33" transform="translate(190.869141 0)"/>
      </g>
     </g>
    </g>
    <g id="xtick_3">
     <g id="line2d_5">
      <path d="M 458.611098 320.4 
L 458.611098 43.2 
" clip-path="url(#p6df20fb928)" style="fill: none; stroke-dasharray: 5.12,1.28,0.8,1.28; stroke-dashoffset: 0; stroke: #b0b0b0; stroke-width: 0.8"/>
     </g>
     <g id="line2d_6">
      <g>
       <use xlink:href="#m8a38a05d60" x="458.611098" y="320.4" style="fill: #a9a9a9; stroke: #a9a9a9; stroke-width: 0.8"/>
      </g>
     </g>
     <g id="text_3">
      <!-- 2024 -->
      <g style="fill: #a9a9a9" transform="translate(445.886098 334.998438) scale(0.1 -0.1)">
       <defs>
        <path id="DejaVuSans-34" d="M 2419 4116 
L 825 1625 
L 2419 1625 
L 2419 4116 
z
M 2253 4666 
L 3047 4666 
L 3047 1625 
L 3713 1625 
L 3713 1100 
L 3047 1100 
L 3047 0 
L 2419 0 
L 2419 1100 
L 313 1100 
L 313 1709 
L 2253 4666 
z
" transform="scale(0.015625)"/>
       </defs>
       <use xlink:href="#DejaVuSans-32"/>
       <use xlink:href="#DejaVuSans-30" transform="translate(63.623047 0)"/>
       <use xlink:href="#DejaVuSans-32" transform="translate(127.246094 0)"/>
       <use xlink:href="#DejaVuSans-34" transform="translate(190.869141 0)"/>
      </g>
     </g>
    </g>
    <g id="xtick_4">
     <g id="line2d_7">
      <path d="M 590.130686 320.4 
L 590.130686 43.2 
" clip-path="url(#p6df20fb928)" style="fill: none; stroke-dasharray: 5.12,1.28,0.8,1.28; stroke-dashoffset: 0; stroke: #b0b0b0; stroke-width: 0.8"/>
     </g>
     <g id="line2d_8">
      <g>
       <use xlink:href="#m8a38a05d60" x="590.130686" y="320.4" style="fill: #a9a9a9; stroke: #a9a9a9; stroke-width: 0.8"/>
      </g>
     </g>
     <g id="text_4">
      <!-- 2025 -->
      <g style="fill: #a9a9a9" transform="translate(577.405686 334.998438) scale(0.1 -0.1)">
       <defs>
        <path id="DejaVuSans-35" d="M 691 4666 
L 3169 4666 
L 3169 4134 
L 1269 4134 
L 1269 2991 
Q 1406 3038 1543 3061 
Q 1681 3084 1819 3084 
Q 2600 3084 3056 2656 
Q 3513 2228 3513 1497 
Q 3513 744 3044 326 
Q 2575 -91 1722 -91 
Q 1428 -91 1123 -41 
Q 819 9 494 109 
L 494 744 
Q 775 591 1075 516 
Q 1375 441 1709 441 
Q 2250 441 2565 725 
Q 2881 1009 2881 1497 
Q 2881 1984 2565 2268 
Q 2250 2553 1709 2553 
Q 1456 2553 1204 2497 
Q 953 2441 691 2322 
L 691 4666 
z
" transform="scale(0.015625)"/>
       </defs>
       <use xlink:href="#DejaVuSans-32"/>
       <use xlink:href="#DejaVuSans-30" transform="translate(63.623047 0)"/>
       <use xlink:href="#DejaVuSans-32" transform="translate(127.246094 0)"/>
       <use xlink:href="#DejaVuSans-35" transform="translate(190.869141 0)"/>
      </g>
     </g>
    </g>
    <g id="xtick_5">
     <g id="line2d_9">
      <path d="M 721.290931 320.4 
L 721.290931 43.2 
" clip-path="url(#p6df20fb928)" style="fill: none; stroke-dasharray: 5.12,1.28,0.8,1.28; stroke-dashoffset: 0; stroke: #b0b0b0; stroke-width: 0.8"/>
     </g>
     <g id="line2d_10">
      <g>
       <use xlink:href="#m8a38a05d60" x="721.290931" y="320.4" style="fill: #a9a9a9; stroke: #a9a9a9; stroke-width: 0.8"/>
      </g>
     </g>
     <g id="text_5">
      <!-- 2026 -->
      <g style="fill: #a9a9a9" transform="translate(708.565931 334.998438) scale(0.1 -0.1)">
       <defs>
        <path id="DejaVuSans-36" d="M 2113 2584 
Q 1688 2584 1439 2293 
Q 1191 2003 1191 1497 
Q 1191 994 1439 701 
Q 1688 409 2113 409 
Q 2538 409 2786 701 
Q 3034 994 3034 1497 
Q 3034 2003 2786 2293 
Q 2538 2584 2113 2584 
z
M 3366 4563 
L 3366 3988 
Q 3128 4100 2886 4159 
Q 2644 4219 2406 4219 
Q 1781 4219 1451 3797 
Q 1122 3375 1075 2522 
Q 1259 2794 1537 2939 
Q 1816 3084 2150 3084 
Q 2853 3084 3261 2657 
Q 3669 2231 3669 1497 
Q 3669 778 3244 343 
Q 2819 -91 2113 -91 
Q 1303 -91 875 529 
Q 447 1150 447 2328 
Q 447 3434 972 4092 
Q 1497 4750 2381 4750 
Q 2619 4750 2861 4703 
Q 3103 4656 3366 4563 
z
" transform="scale(0.015625)"/>
       </defs>
       <use xlink:href="#DejaVuSans-32"/>
       <use xlink:href="#DejaVuSans-30" transform="translate(63.623047 0)"/>
       <use xlink:href="#DejaVuSans-32" transform="translate(127.246094 0)"/>
       <use xlink:href="#DejaVuSans-36" transform="translate(190.869141 0)"/>
      </g>
     </g>
    </g>
   </g>
   <g id="matplotlib.axis_2">
    <g id="ytick_1">
     <g id="line2d_11">
      <path d="M 108 307.828767 
L 777.6 307.828767 
" clip-path="url(#p6df20fb928)" style="fill: none; stroke-dasharray: 5.12,1.28,0.8,1.28; stroke-dashoffset: 0; stroke: #b0b0b0; stroke-width: 0.8"/>
     </g>
     <g id="line2d_12">
      <defs>
       <path id="m007ecab21b" d="M 0 0 
L -3.5 0 
" style="stroke: #a9a9a9; stroke-width: 0.8"/>
      </defs>
      <g>
       <use xlink:href="#m007ecab21b" x="108" y="307.828767" style="fill: #a9a9a9; stroke: #a9a9a9; stroke-width: 0.8"/>
      </g>
     </g>
     <g id="text_6">
      <!-- 0 -->
      <g style="fill: #a9a9a9" transform="translate(94.6375 311.627986) scale(0.1 -0.1)">
       <use xlink:href="#DejaVuSans-30"/>
      </g>
     </g>
    </g>
    <g id="ytick_2">
     <g id="line2d_13">
      <path d="M 108 279.061644 
L 777.6 279.061644 
" clip-path="url(#p6df20fb928)" style="fill: none; stroke-dasharray: 5.12,1.28,0.8,1.28; stroke-dashoffset: 0; stroke: #b0b0b0; stroke-width: 0.8"/>
     </g>
     <g id="line2d_14">
      <g>
       <use xlink:href="#m007ecab21b" x="108" y="279.061644" style="fill: #a9a9a9; stroke: #a9a9a9; stroke-width: 0.8"/>
      </g>
     </g>
     <g id="text_7">
      <!-- 1000 -->
      <g style="fill: #a9a9a9" transform="translate(75.55 282.860863) scale(0.1 -0.1)">
       <defs>
        <path id="DejaVuSans-31" d="M 794 531 
L 1825 531 
L 1825 4091 
L 703 3866 
L 703 4441 
L 1819 4666 
L 2450 4666 
L 2450 531 
L 3481 531 
L 3481 0 
L 794 0 
L 794 531 
z
" transform="scale(0.015625)"/>
       </defs>
       <use xlink:href="#DejaVuSans-31"/>
       <use xlink:href="#DejaVuSans-30" transform="translate(63.623047 0)"/>
       <use xlink:href="#DejaVuSans-30" transform="translate(127.246094 0)"/>
       <use xlink:href="#DejaVuSans-30" transform="translate(190.869141 0)"/>
      </g>
     </g>
    </g>
    <g id="ytick_3">
     <g id="line2d_15">
      <path d="M 108 250.294521 
L 777.6 250.294521 
" clip-path="url(#p6df20fb928)" style="fill: none; stroke-dasharray: 5.12,1.28,0.8,1.28; stroke-dashoffset: 0; stroke: #b0b0b0; stroke-width: 0.8"/>
     </g>
     <g id="line2d_16">
      <g>
       <use xlink:href="#m007ecab21b" x="108" y="250.294521" style="fill: #a9a9a9; stroke: #a9a9a9; stroke-width: 0.8"/>
      </g>
     </g>
     <g id="text_8">
      <!-- 2000 -->
      <g style="fill: #a9a9a9" transform="translate(75.55 254.093739) scale(0.1 -0.1)">
       <use xlink:href="#DejaVuSans-32"/>
       <use xlink:href="#DejaVuSans-30" transform="translate(63.623047 0)"/>
       <use xlink:href="#DejaVuSans-30" transform="translate(127.246094 0)"/>
       <use xlink:href="#DejaVuSans-30" transform="translate(190.869141 0)"/>
      </g>
     </g>
    </g>
    <g id="ytick_4">
     <g id="line2d_17">
      <path d="M 108 221.527397 
L 777.6 221.527397 
" clip-path="url(#p6df20fb928)" style="fill: none; stroke-dasharray: 5.12,1.28,0.8,1.28; stroke-dashoffset: 0; stroke: #b0b0b0; stroke-width: 0.8"/>
     </g>
     <g id="line2d_18">
      <g>
       <use xlink:href="#m007ecab21b" x="108" y="221.527397" style="fill: #a9a9a9; stroke: #a9a9a9; stroke-width: 0.8"/>
      </g>
     </g>
     <g id="text_9">
      <!-- 3000 -->
      <g style="fill: #a9a9a9" transform="translate(75.55 225.326616) scale(0.1 -0.1)">
       <use xlink:href="#DejaVuSans-33"/>
       <use xlink:href="#DejaVuSans-30" transform="translate(63.623047 0)"/>
       <use xlink:href="#DejaVuSans-30" transform="translate(127.246094 0)"/>
       <use xlink:href="#DejaVuSans-30" transform="translate(190.869141 0)"/>
      </g>
     </g>
    </g>
    <g id="ytick_5">
     <g id="line2d_19">
      <path d="M 108 192.760274 
L 777.6 192.760274 
" clip-path="url(#p6df20fb928)" style="fill: none; stroke-dasharray: 5.12,1.28,0.8,1.28; stroke-dashoffset: 0; stroke: #b0b0b0; stroke-width: 0.8"/>
     </g>
     <g id="line2d_20">
      <g>
       <use xlink:href="#m007ecab21b" x="108" y="192.760274" style="fill: #a9a9a9; stroke: #a9a9a9; stroke-width: 0.8"/>
      </g>
     </g>
     <g id="text_10">
      <!-- 4000 -->
      <g style="fill: #a9a9a9" transform="translate(75.55 196.559493) scale(0.1 -0.1)">
       <use xlink:href="#DejaVuSans-34"/>
       <use xlink:href="#DejaVuSans-30" transform="translate(63.623047 0)"/>
       <use xlink:href="#DejaVuSans-30" transform="translate(127.246094 0)"/>
       <use xlink:href="#DejaVuSans-30" transform="translate(190.869141 0)"/>
      </g>
     </g>
    </g>
    <g id="ytick_6">
     <g id="line2d_21">
      <path d="M 108 163.993151 
L 777.6 163.993151 
" clip-path="url(#p6df20fb928)" style="fill: none; stroke-dasharray: 5.12,1.28,0.8,1.28; stroke-dashoffset: 0; stroke: #b0b0b0; stroke-width: 0.8"/>
     </g>
     <g id="line2d_22">
      <g>
       <use xlink:href="#m007ecab21b" x="108" y="163.993151" style="fill: #a9a9a9; stroke: #a9a9a9; stroke-width: 0.8"/>
      </g>
     </g>
     <g id="text_11">
      <!-- 5000 -->
      <g style="fill: #a9a9a9" transform="translate(75.55 167.792369) scale(0.1 -0.1)">
       <use xlink:href="#DejaVuSans-35"/>
       <use xlink:href="#DejaVuSans-30" transform="translate(63.623047 0)"/>
       <use xlink:href="#DejaVuSans-30" transform="translate(127.246094 0)"/>
       <use xlink:href="#DejaVuSans-30" transform="translate(190.869141 0)"/>
      </g>
     </g>
    </g>
    <g id="ytick_7">
     <g id="line2d_23">
      <path d="M 108 135.226027 
L 777.6 135.226027 
" clip-path="url(#p6df20fb928)" style="fill: none; stroke-dasharray: 5.12,1.28,0.8,1.28; stroke-dashoffset: 0; stroke: #b0b0b0; stroke-width: 0.8"/>
     </g>
     <g id="line2d_24">
      <g>
       <use xlink:href="#m007ecab21b" x="108" y="135.226027" style="fill: #a9a9a9; stroke: #a9a9a9; stroke-width: 0.8"/>
      </g>
     </g>
     <g id="text_12">
      <!-- 6000 -->
      <g style="fill: #a9a9a9" transform="translate(75.55 139.025246) scale(0.1 -0.1)">
       <use xlink:href="#DejaVuSans-36"/>
       <use xlink:href="#DejaVuSans-30" transform="translate(63.623047 0)"/>
       <use xlink:href="#DejaVuSans-30" transform="translate(127.246094 0)"/>
       <use xlink:href="#DejaVuSans-30" transform="translate(190.869141 0)"/>
      </g>
     </g>
    </g>
    <g id="ytick_8">
     <g id="line2d_25">
      <path d="M 108 106.458904 
L 777.6 106.458904 
" clip-path="url(#p6df20fb928)" style="fill: none; stroke-dasharray: 5.12,1.28,0.8,1.28; stroke-dashoffset: 0; stroke: #b0b0b0; stroke-width: 0.8"/>
     </g>
     <g id="line2d_26">
      <g>
       <use xlink:href="#m007ecab21b" x="108" y="106.458904" style="fill: #a9a9a9; stroke: #a9a9a9; stroke-width: 0.8"/>
      </g>
     </g>
     <g id="text_13">
      <!-- 7000 -->
      <g style="fill: #a9a9a9" transform="translate(75.55 110.258123) scale(0.1 -0.1)">
       <defs>
        <path id="DejaVuSans-37" d="M 525 4666 
L 3525 4666 
L 3525 4397 
L 1831 0 
L 1172 0 
L 2766 4134 
L 525 4134 
L 525 4666 
z
" transform="scale(0.015625)"/>
       </defs>
       <use xlink:href="#DejaVuSans-37"/>
       <use xlink:href="#DejaVuSans-30" transform="translate(63.623047 0)"/>
       <use xlink:href="#DejaVuSans-30" transform="translate(127.246094 0)"/>
       <use xlink:href="#DejaVuSans-30" transform="translate(190.869141 0)"/>
      </g>
     </g>
    </g>
    <g id="ytick_9">
     <g id="line2d_27">
      <path d="M 108 77.691781 
L 777.6 77.691781 
" clip-path="url(#p6df20fb928)" style="fill: none; stroke-dasharray: 5.12,1.28,0.8,1.28; stroke-dashoffset: 0; stroke: #b0b0b0; stroke-width: 0.8"/>
     </g>
     <g id="line2d_28">
      <g>
       <use xlink:href="#m007ecab21b" x="108" y="77.691781" style="fill: #a9a9a9; stroke: #a9a9a9; stroke-width: 0.8"/>
      </g>
     </g>
     <g id="text_14">
      <!-- 8000 -->
      <g style="fill: #a9a9a9" transform="translate(75.55 81.491) scale(0.1 -0.1)">
       <defs>
        <path id="DejaVuSans-38" d="M 2034 2216 
Q 1584 2216 1326 1975 
Q 1069 1734 1069 1313 
Q 1069 891 1326 650 
Q 1584 409 2034 409 
Q 2484 409 2743 651 
Q 3003 894 3003 1313 
Q 3003 1734 2745 1975 
Q 2488 2216 2034 2216 
z
M 1403 2484 
Q 997 2584 770 2862 
Q 544 3141 544 3541 
Q 544 4100 942 4425 
Q 1341 4750 2034 4750 
Q 2731 4750 3128 4425 
Q 3525 4100 3525 3541 
Q 3525 3141 3298 2862 
Q 3072 2584 2669 2484 
Q 3125 2378 3379 2068 
Q 3634 1759 3634 1313 
Q 3634 634 3220 271 
Q 2806 -91 2034 -91 
Q 1263 -91 848 271 
Q 434 634 434 1313 
Q 434 1759 690 2068 
Q 947 2378 1403 2484 
z
M 1172 3481 
Q 1172 3119 1398 2916 
Q 1625 2713 2034 2713 
Q 2441 2713 2670 2916 
Q 2900 3119 2900 3481 
Q 2900 3844 2670 4047 
Q 2441 4250 2034 4250 
Q 1625 4250 1398 4047 
Q 1172 3844 1172 3481 
z
" transform="scale(0.015625)"/>
       </defs>
       <use xlink:href="#DejaVuSans-38"/>
       <use xlink:href="#DejaVuSans-30" transform="translate(63.623047 0)"/>
       <use xlink:href="#DejaVuSans-30" transform="translate(127.246094 0)"/>
       <use xlink:href="#DejaVuSans-30" transform="translate(190.869141 0)"/>
      </g>
     </g>
    </g>
    <g id="ytick_10">
     <g id="line2d_29">
      <path d="M 108 48.924658 
L 777.6 48.924658 
" clip-path="url(#p6df20fb928)" style="fill: none; stroke-dasharray: 5.12,1.28,0.8,1.28; stroke-dashoffset: 0; stroke: #b0b0b0; stroke-width: 0.8"/>
     </g>
     <g id="line2d_30">
      <g>
       <use xlink:href="#m007ecab21b" x="108" y="48.924658" style="fill: #a9a9a9; stroke: #a9a9a9; stroke-width: 0.8"/>
      </g>
     </g>
     <g id="text_15">
      <!-- 9000 -->
      <g style="fill: #a9a9a9" transform="translate(75.55 52.723876) scale(0.1 -0.1)">
       <defs>
        <path id="DejaVuSans-39" d="M 703 97 
L 703 672 
Q 941 559 1184 500 
Q 1428 441 1663 441 
Q 2288 441 2617 861 
Q 2947 1281 2994 2138 
Q 2813 1869 2534 1725 
Q 2256 1581 1919 1581 
Q 1219 1581 811 2004 
Q 403 2428 403 3163 
Q 403 3881 828 4315 
Q 1253 4750 1959 4750 
Q 2769 4750 3195 4129 
Q 3622 3509 3622 2328 
Q 3622 1225 3098 567 
Q 2575 -91 1691 -91 
Q 1453 -91 1209 -44 
Q 966 3 703 97 
z
M 1959 2075 
Q 2384 2075 2632 2365 
Q 2881 2656 2881 3163 
Q 2881 3666 2632 3958 
Q 2384 4250 1959 4250 
Q 1534 4250 1286 3958 
Q 1038 3666 1038 3163 
Q 1038 2656 1286 2365 
Q 1534 2075 1959 2075 
z
" transform="scale(0.015625)"/>
       </defs>
       <use xlink:href="#DejaVuSans-39"/>
       <use xlink:href="#DejaVuSans-30" transform="translate(63.623047 0)"/>
       <use xlink:href="#DejaVuSans-30" transform="translate(127.246094 0)"/>
       <use xlink:href="#DejaVuSans-30" transform="translate(190.869141 0)"/>
      </g>
     </g>
    </g>
   </g>
   <g id="line2d_31">
    <path d="M 138.436364 307.742466 
L 140.592422 307.541096 
L 140.951766 307.368493 
L 142.389138 307.167123 
L 143.826511 306.850685 
L 144.545197 306.735616 
L 146.341913 306.563014 
L 147.060599 306.275342 
L 147.419942 305.757534 
L 147.779285 305.49863 
L 148.138628 304.635616 
L 148.497971 304.578082 
L 149.216658 304.117808 
L 149.935344 303.571233 
L 151.372717 302.478082 
L 151.73206 302.334247 
L 152.450746 301.873973 
L 153.528775 301.327397 
L 153.888118 300.694521 
L 154.606805 300.119178 
L 155.325491 299.889041 
L 156.40352 299.716438 
L 158.559579 299.371233 
L 158.918922 299.19863 
L 161.434324 298.968493 
L 162.871697 298.594521 
L 165.746442 298.163014 
L 166.105785 297.961644 
L 166.465128 297.90411 
L 167.183815 297.645205 
L 169.699216 297.184932 
L 170.417903 296.954795 
L 173.651991 296.379452 
L 174.370677 296.206849 
L 175.80805 296.005479 
L 176.526736 295.775342 
L 176.886079 295.228767 
L 177.964109 294.768493 
L 179.042138 294.452055 
L 179.401481 294.250685 
L 180.120167 294.106849 
L 181.916883 293.646575 
L 182.994913 293.387671 
L 184.432285 293.013699 
L 184.791628 292.984932 
L 185.510314 292.610959 
L 185.869658 292.553425 
L 186.229001 292.352055 
L 190.900462 291.517808 
L 192.337834 290.856164 
L 193.05652 290.654795 
L 193.775207 290.338356 
L 194.493893 289.791781 
L 195.571922 289.561644 
L 203.477471 287.087671 
L 203.836814 287.058904 
L 204.914844 286.713699 
L 205.274187 286.713699 
L 205.63353 286.541096 
L 206.352216 286.454795 
L 206.71156 286.310959 
L 208.508275 286.224658 
L 208.867618 286.138356 
L 209.586305 285.735616 
L 210.664334 285.332877 
L 211.38302 284.930137 
L 212.46105 284.441096 
L 213.898422 283.693151 
L 214.257765 283.290411 
L 214.976452 282.082192 
L 216.054481 281.736986 
L 216.413824 281.449315 
L 217.491854 281.046575 
L 217.851197 280.672603 
L 218.929226 280.212329 
L 219.288569 280.010959 
L 221.444628 277.393151 
L 222.163314 277.047945 
L 223.600687 276.012329 
L 224.319373 275.494521 
L 224.678716 274.947945 
L 225.038059 274.056164 
L 225.397403 273.480822 
L 227.553461 271.726027 
L 228.631491 270.747945 
L 229.350177 269.79863 
L 230.428207 268.993151 
L 231.865579 268.072603 
L 232.584265 267.669863 
L 234.021638 266.864384 
L 235.818354 265.080822 
L 236.53704 264.764384 
L 237.255726 264.246575 
L 237.615069 264.016438 
L 237.974412 263.958904 
L 239.052442 263.29726 
L 239.411785 262.865753 
L 241.208501 261.80137 
L 241.567844 261.657534 
L 242.645873 260.852055 
L 248.03602 258.780822 
L 248.754706 258.061644 
L 249.832736 257.486301 
L 250.551422 256.99726 
L 251.270108 256.767123 
L 251.629452 256.508219 
L 251.988795 256.393151 
L 253.066824 255.616438 
L 254.86354 255.184932 
L 255.941569 254.494521 
L 257.019599 254.235616 
L 257.378942 254.149315 
L 258.456971 253.343836 
L 259.894344 252.912329 
L 260.253687 252.624658 
L 262.409746 251.819178 
L 263.128432 251.675342 
L 263.847118 251.358904 
L 266.36252 250.380822 
L 267.081206 250.294521 
L 268.518579 249.719178 
L 272.471353 247.619178 
L 273.19004 247.273973 
L 273.908726 246.928767 
L 274.627412 246.784932 
L 275.346099 246.324658 
L 276.064785 246.123288 
L 277.142814 245.663014 
L 278.580187 245.461644 
L 279.298873 245.058904 
L 279.658216 244.713699 
L 280.017559 244.023288 
L 281.454932 243.591781 
L 282.892304 242.90137 
L 286.126393 241.376712 
L 286.845079 241.20411 
L 287.923108 240.628767 
L 288.282451 240.571233 
L 290.079167 239.621918 
L 290.797853 239.132877 
L 291.875883 238.90274 
L 295.109971 237.752055 
L 296.547344 237.119178 
L 296.906687 236.831507 
L 297.625373 236.428767 
L 298.344059 236.141096 
L 298.703402 236.054795 
L 300.140775 235.278082 
L 300.500118 234.875342 
L 300.859461 234.645205 
L 301.218804 234.558904 
L 301.937491 233.926027 
L 302.296834 233.868493 
L 302.656177 233.235616 
L 303.01552 233.091781 
L 303.374863 232.775342 
L 303.734206 232.717808 
L 304.452893 232.228767 
L 305.171579 231.969863 
L 305.530922 231.682192 
L 306.249608 231.279452 
L 307.686981 230.358904 
L 309.84304 229.352055 
L 310.202383 228.690411 
L 310.921069 228.115068 
L 311.280412 228.028767 
L 313.436471 226.935616 
L 314.155157 226.619178 
L 314.873844 226.072603 
L 315.59253 225.29589 
L 317.389245 223.886301 
L 318.107932 223.282192 
L 318.467275 223.109589 
L 319.185961 222.332877 
L 320.263991 221.815068 
L 320.982677 221.383562 
L 321.34202 221.268493 
L 321.701363 220.980822 
L 322.060706 220.923288 
L 325.294794 219.19726 
L 326.013481 218.99589 
L 327.450853 218.478082 
L 328.16954 217.989041 
L 329.606912 217.442466 
L 330.325598 216.982192 
L 331.044285 216.694521 
L 331.762971 216.147945 
L 332.481657 214.623288 
L 333.200343 213.760274 
L 334.278373 213.156164 
L 334.997059 212.839726 
L 335.356402 212.782192 
L 336.075089 212.436986 
L 337.871804 211.775342 
L 338.590491 211.286301 
L 339.66852 210.826027 
L 341.465236 209.70411 
L 342.183922 209.013699 
L 343.261951 208.467123 
L 343.621294 208.179452 
L 344.339981 207.805479 
L 346.496039 206.712329 
L 347.214726 206.510959 
L 348.292755 206.165753 
L 349.730128 205.475342 
L 353.682902 203.490411 
L 354.401588 202.886301 
L 355.120275 202.684932 
L 355.479618 202.339726 
L 355.838961 202.282192 
L 356.557647 201.706849 
L 358.354363 200.584932 
L 359.073049 200.354795 
L 359.432392 200.124658 
L 359.791736 200.067123 
L 361.947794 199.117808 
L 366.259912 197.736986 
L 367.337941 196.960274 
L 368.056628 196.557534 
L 369.494 195.838356 
L 370.57203 195.090411 
L 371.290716 194.917808 
L 372.368745 194.227397 
L 375.602834 193.076712 
L 376.32152 192.817808 
L 377.758892 192.50137 
L 378.477579 192.271233 
L 380.274294 191.638356 
L 381.352324 191.293151 
L 382.07101 191.120548 
L 384.227069 190.717808 
L 384.945755 190.573973 
L 386.023784 190.315068 
L 386.383128 190.142466 
L 387.101814 189.99863 
L 387.8205 189.79726 
L 388.539186 189.452055 
L 388.89853 189.308219 
L 389.257873 189.308219 
L 394.64802 187.524658 
L 395.007363 187.121918 
L 397.163422 186.172603 
L 398.600794 185.654795 
L 398.960137 185.424658 
L 400.038167 185.079452 
L 401.475539 184.532877 
L 401.834882 184.216438 
L 402.912912 183.986301 
L 403.631598 183.641096 
L 403.990941 183.180822 
L 407.943716 182.260274 
L 408.303059 182.260274 
L 409.021745 182.030137 
L 412.255833 181.19589 
L 412.97452 181.023288 
L 419.442696 178.865753 
L 419.802039 178.606849 
L 420.520726 178.376712 
L 423.395471 177.341096 
L 424.114157 177.283562 
L 425.551529 176.852055 
L 425.910873 176.621918 
L 426.629559 176.391781 
L 427.348245 176.10411 
L 427.707588 175.816438 
L 428.066931 175.730137 
L 428.426275 175.528767 
L 428.785618 175.5 
L 433.097735 173.889041 
L 436.331824 172.824658 
L 437.769196 171.587671 
L 440.284598 170.465753 
L 442.8 169.343836 
L 443.518686 169.142466 
L 446.752774 167.50274 
L 447.471461 167.071233 
L 450.705549 165.460274 
L 451.064892 165.172603 
L 452.861608 164.482192 
L 455.37701 163.532877 
L 456.095696 163.446575 
L 456.455039 163.187671 
L 457.892412 162.9 
L 458.611098 162.583562 
L 460.407814 161.691781 
L 465.079274 159.534247 
L 466.157304 159.160274 
L 466.516647 158.90137 
L 467.235333 158.815068 
L 467.594676 158.584932 
L 468.313363 158.469863 
L 472.984823 156.715068 
L 474.062853 156.456164 
L 475.500225 155.823288 
L 476.218912 155.420548 
L 477.656284 154.643836 
L 478.37497 154.471233 
L 478.734314 154.241096 
L 479.093657 154.183562 
L 480.890372 153.263014 
L 485.561833 151.450685 
L 485.921176 151.393151 
L 487.358549 150.673973 
L 488.077235 150.530137 
L 488.795921 150.09863 
L 490.233294 149.379452 
L 496.70147 146.819178 
L 498.138843 145.582192 
L 499.216872 145.150685 
L 501.732274 143.884932 
L 502.091617 143.626027 
L 502.810304 143.424658 
L 503.52899 143.021918 
L 504.607019 142.763014 
L 510.35651 140.346575 
L 512.153225 139.59863 
L 514.309284 138.793151 
L 516.106 137.872603 
L 516.824686 137.642466 
L 517.184029 137.29726 
L 518.262059 136.865753 
L 518.621402 136.808219 
L 520.058774 136.117808 
L 521.136804 135.772603 
L 522.214833 135.369863 
L 523.292863 135.053425 
L 523.652206 134.99589 
L 524.370892 134.593151 
L 524.730235 134.449315 
L 525.089578 134.161644 
L 526.167608 133.873973 
L 526.886294 133.586301 
L 527.60498 133.269863 
L 529.042353 132.665753 
L 531.557755 132.032877 
L 532.276441 131.745205 
L 533.713813 131.457534 
L 534.4325 131.313699 
L 535.510529 130.882192 
L 536.588559 130.652055 
L 538.744617 129.328767 
L 539.822647 128.69589 
L 541.978706 128.005479 
L 542.338049 127.717808 
L 545.212794 126.682192 
L 546.290823 126.336986 
L 547.009509 125.934247 
L 547.728196 125.732877 
L 548.087539 125.531507 
L 548.806225 125.387671 
L 550.602941 124.553425 
L 551.321627 124.265753 
L 552.759 123.690411 
L 553.118343 123.345205 
L 553.477686 123.287671 
L 554.915058 122.683562 
L 556.352431 122.309589 
L 556.711774 122.280822 
L 557.071117 122.108219 
L 557.789804 121.964384 
L 561.023892 120.957534 
L 561.742578 120.382192 
L 563.179951 119.547945 
L 563.539294 119.461644 
L 563.898637 119.260274 
L 564.25798 119.20274 
L 567.492068 117.591781 
L 567.851411 117.275342 
L 569.648127 116.843836 
L 570.726156 116.354795 
L 571.444843 116.153425 
L 571.804186 115.980822 
L 572.163529 115.664384 
L 574.678931 114.743836 
L 575.75696 114.254795 
L 576.116304 114.226027 
L 576.83499 113.938356 
L 578.272362 113.305479 
L 580.428421 112.758904 
L 581.506451 112.269863 
L 584.740539 111.234247 
L 585.459225 110.831507 
L 594.442803 108.012329 
L 594.802147 107.983562 
L 595.520833 107.638356 
L 598.395578 106.861644 
L 599.473607 106.458904 
L 599.832951 106.458904 
L 600.91098 106.2 
L 601.629666 106.056164 
L 602.348352 105.854795 
L 603.426382 105.279452 
L 604.504411 104.934247 
L 607.019813 104.071233 
L 608.457186 103.323288 
L 610.972588 102.460274 
L 611.331931 102.143836 
L 612.050617 101.913699 
L 612.40996 101.683562 
L 613.128647 101.59726 
L 615.644049 100.878082 
L 616.722078 100.647945 
L 619.596823 99.612329 
L 624.268284 97.8 
L 624.98697 97.684932 
L 625.705656 97.541096 
L 626.064999 97.541096 
L 627.143029 97.19589 
L 628.221058 96.850685 
L 631.095803 96.016438 
L 632.533176 95.7 
L 632.892519 95.469863 
L 633.611205 95.326027 
L 635.048578 95.038356 
L 636.126607 94.520548 
L 637.204637 94.261644 
L 637.923323 93.945205 
L 640.079382 93.168493 
L 640.438725 93.110959 
L 641.157411 92.852055 
L 645.469529 91.730137 
L 647.625588 90.982192 
L 648.344274 90.924658 
L 650.859676 90.234247 
L 651.937705 89.860274 
L 652.656392 89.227397 
L 655.89048 87.961644 
L 656.609166 87.846575 
L 659.483911 86.868493 
L 660.561941 86.264384 
L 660.921284 86.178082 
L 661.280627 85.890411 
L 662.358656 85.573973 
L 667.748803 83.071233 
L 669.545519 82.438356 
L 669.904862 82.121918 
L 670.264205 82.035616 
L 670.982891 81.575342 
L 672.060921 81.258904 
L 673.498293 80.654795 
L 673.857637 80.626027 
L 675.654352 79.935616 
L 676.373039 79.791781 
L 677.091725 79.273973 
L 677.451068 79.273973 
L 678.88844 78.756164 
L 680.325813 78.468493 
L 681.763186 77.835616 
L 682.122529 77.835616 
L 683.200558 77.461644 
L 683.919244 77.346575 
L 684.997274 76.713699 
L 685.71596 76.339726 
L 690.746764 74.815068 
L 691.46545 74.642466 
L 692.184137 74.354795 
L 693.262166 74.038356 
L 694.699538 73.520548 
L 696.136911 73.20411 
L 698.652313 72.484932 
L 699.370999 72.341096 
L 702.245744 71.276712 
L 702.964431 71.132877 
L 704.401803 70.873973 
L 705.120489 70.758904 
L 706.557862 70.183562 
L 707.276548 69.982192 
L 707.995235 69.867123 
L 709.432607 69.406849 
L 709.79195 69.406849 
L 710.510636 69.00411 
L 712.307352 68.543836 
L 713.026038 68.284932 
L 713.744725 68.141096 
L 715.900784 67.191781 
L 716.260127 67.134247 
L 716.978813 66.789041 
L 717.697499 66.472603 
L 718.416185 66.156164 
L 719.134872 65.868493 
L 719.494215 65.667123 
L 719.853558 65.609589 
L 720.572244 65.293151 
L 721.650274 64.832877 
L 723.446989 64.056164 
L 723.806333 63.826027 
L 724.165676 63.739726 
L 724.525019 63.509589 
L 724.884362 63.452055 
L 725.603048 62.991781 
L 727.759107 62.50274 
L 728.477793 62.1 
L 728.837136 62.042466 
L 730.274509 61.467123 
L 735.664656 59.424658 
L 737.102029 59.079452 
L 738.539401 58.906849 
L 739.617431 58.676712 
L 739.976774 58.619178 
L 740.69546 58.158904 
L 741.773489 57.756164 
L 742.492176 57.583562 
L 743.210862 57.439726 
L 743.929548 57.094521 
L 747.163636 55.8 
L 747.163636 55.8 
" clip-path="url(#p6df20fb928)" style="fill: none; stroke: #1f77b4; stroke-width: 1.5; stroke-linecap: square"/>
   </g>
   <g id="line2d_32">
    <path d="M 138.795707 307.8 
L 142.029795 307.713699 
L 144.90454 307.569863 
L 146.341913 307.569863 
L 147.060599 307.454795 
L 155.684834 306.850685 
L 158.559579 306.764384 
L 160.356295 306.706849 
L 165.027756 306.620548 
L 166.824471 306.563014 
L 170.05856 306.476712 
L 171.495932 306.447945 
L 175.089364 306.361644 
L 176.526736 306.217808 
L 177.964109 306.189041 
L 180.120167 306.10274 
L 181.55754 306.073973 
L 183.354256 306.016438 
L 184.791628 305.872603 
L 188.025716 305.786301 
L 188.744403 305.728767 
L 190.181775 305.642466 
L 192.337834 305.556164 
L 193.775207 305.469863 
L 200.243383 305.038356 
L 202.758785 304.952055 
L 203.836814 304.836986 
L 205.63353 304.750685 
L 209.226961 304.549315 
L 212.820393 304.491781 
L 214.257765 304.347945 
L 216.054481 304.261644 
L 219.647912 303.887671 
L 221.803971 303.6 
L 223.241344 303.542466 
L 226.116089 303.168493 
L 228.272148 303.110959 
L 229.350177 302.99589 
L 230.428207 302.909589 
L 249.11405 301.5 
L 251.629452 301.413699 
L 253.066824 301.241096 
L 254.86354 301.154795 
L 257.019599 301.068493 
L 258.816314 300.982192 
L 260.253687 300.953425 
L 262.050402 300.89589 
L 262.769089 300.809589 
L 267.799893 300.723288 
L 268.518579 300.636986 
L 272.830697 300.550685 
L 276.064785 300.378082 
L 278.580187 300.291781 
L 280.376902 300.090411 
L 282.532961 300.00411 
L 283.251648 299.889041 
L 285.048363 299.831507 
L 288.641795 299.773973 
L 290.079167 299.630137 
L 291.51654 299.60137 
L 292.594569 299.515068 
L 294.031942 299.371233 
L 297.625373 299.169863 
L 301.218804 299.083562 
L 304.452893 298.910959 
L 305.530922 298.882192 
L 306.249608 298.767123 
L 308.046324 298.709589 
L 308.76501 298.652055 
L 310.561726 298.565753 
L 311.999098 298.536986 
L 314.5145 298.450685 
L 323.857422 297.789041 
L 326.013481 297.70274 
L 327.810196 297.645205 
L 332.841 297.558904 
L 333.559687 297.472603 
L 338.590491 297.386301 
L 342.183922 297.184932 
L 342.902608 297.156164 
L 343.621294 297.069863 
L 345.41801 296.983562 
L 347.214726 296.926027 
L 349.011441 296.839726 
L 350.808157 296.782192 
L 354.042245 296.69589 
L 356.198304 296.609589 
L 361.229108 296.523288 
L 365.181883 296.293151 
L 366.619255 296.235616 
L 367.697285 296.149315 
L 372.728088 296.063014 
L 374.884147 295.976712 
L 381.352324 295.890411 
L 382.789696 295.861644 
L 387.101814 295.80411 
L 387.8205 295.746575 
L 392.851304 295.660274 
L 394.288677 295.631507 
L 403.631598 295.545205 
L 405.787657 295.458904 
L 420.880069 295.372603 
L 422.676784 295.315068 
L 433.097735 295.228767 
L 437.05051 294.99863 
L 439.206569 294.912329 
L 441.362627 294.826027 
L 444.956059 294.739726 
L 447.471461 294.624658 
L 450.346206 294.538356 
L 453.220951 294.394521 
L 460.048471 294.308219 
L 462.204529 294.221918 
L 466.157304 294.135616 
L 468.672706 294.020548 
L 471.188108 293.963014 
L 471.906794 293.905479 
L 480.531029 293.819178 
L 484.124461 293.617808 
L 486.639863 293.531507 
L 490.592637 293.30137 
L 494.904755 293.215068 
L 496.342127 293.186301 
L 497.060814 293.128767 
L 498.857529 292.927397 
L 502.450961 292.841096 
L 503.169647 292.754795 
L 506.763078 292.668493 
L 508.559794 292.610959 
L 512.512568 292.582192 
L 513.231255 292.49589 
L 517.184029 292.409589 
L 517.902715 292.352055 
L 525.808264 292.265753 
L 527.964323 292.179452 
L 533.35447 292.093151 
L 534.791843 292.064384 
L 538.025931 292.035616 
L 538.744617 291.949315 
L 543.416078 291.863014 
L 545.212794 291.805479 
L 551.68097 291.719178 
L 552.759 291.632877 
L 553.837029 291.546575 
L 554.915058 291.460274 
L 560.305206 291.373973 
L 562.461264 291.287671 
L 572.882215 291.20137 
L 576.116304 291.028767 
L 581.147107 290.942466 
L 582.58448 290.913699 
L 586.896598 290.827397 
L 588.693313 290.769863 
L 596.958205 290.683562 
L 599.114264 290.59726 
L 605.223098 290.510959 
L 606.66047 290.482192 
L 610.253901 290.39589 
L 612.769303 290.280822 
L 616.722078 290.194521 
L 619.23748 290.079452 
L 622.471568 290.021918 
L 623.190254 289.964384 
L 631.095803 289.878082 
L 633.251862 289.791781 
L 635.767264 289.705479 
L 637.56398 289.647945 
L 647.984931 289.561644 
L 650.14099 289.475342 
L 656.249823 289.389041 
L 658.046539 289.331507 
L 662.717999 289.245205 
L 664.874058 289.158904 
L 667.748803 289.072603 
L 669.904862 288.986301 
L 684.278588 288.9 
L 687.153333 288.756164 
L 695.418225 288.669863 
L 696.855597 288.641096 
L 705.479833 288.554795 
L 707.276548 288.49726 
L 718.775529 288.410959 
L 720.212901 288.382192 
L 730.993195 288.29589 
L 731.711882 288.238356 
L 740.69546 288.152055 
L 742.492176 288.094521 
L 746.44495 288.008219 
L 747.163636 287.979452 
L 747.163636 287.979452 
" clip-path="url(#p6df20fb928)" style="fill: none; stroke: #ff7f0e; stroke-width: 1.5; stroke-linecap: square"/>
   </g>
   <g id="patch_3">
    <path d="M 108 320.4 
L 108 43.2 
" style="fill: none; stroke: #a9a9a9; stroke-width: 0.8; stroke-linejoin: miter; stroke-linecap: square"/>
   </g>
   <g id="patch_4">
    <path d="M 777.6 320.4 
L 777.6 43.2 
" style="fill: none"/>
   </g>
   <g id="patch_5">
    <path d="M 108 320.4 
L 777.6 320.4 
" style="fill: none; stroke: #a9a9a9; stroke-width: 0.8; stroke-linejoin: miter; stroke-linecap: square"/>
   </g>
   <g id="patch_6">
    <path d="M 108 43.2 
L 777.6 43.2 
" style="fill: none"/>
   </g>
   <g id="text_16">
    <!-- get_subscribe history -->
    <g style="fill: #a9a9a9" transform="translate(378.6075 37.2) scale(0.12 -0.12)">
     <defs>
      <path id="DejaVuSans-67" d="M 2906 1791 
Q 2906 2416 2648 2759 
Q 2391 3103 1925 3103 
Q 1463 3103 1205 2759 
Q 947 2416 947 1791 
Q 947 1169 1205 825 
Q 1463 481 1925 481 
Q 2391 481 2648 825 
Q 2906 1169 2906 1791 
z
M 3481 434 
Q 3481 -459 3084 -895 
Q 2688 -1331 1869 -1331 
Q 1566 -1331 1297 -1286 
Q 1028 -1241 775 -1147 
L 775 -588 
Q 1028 -725 1275 -790 
Q 1522 -856 1778 -856 
Q 2344 -856 2625 -561 
Q 2906 -266 2906 331 
L 2906 616 
Q 2728 306 2450 153 
Q 2172 0 1784 0 
Q 1141 0 747 490 
Q 353 981 353 1791 
Q 353 2603 747 3093 
Q 1141 3584 1784 3584 
Q 2172 3584 2450 3431 
Q 2728 3278 2906 2969 
L 2906 3500 
L 3481 3500 
L 3481 434 
z
" transform="scale(0.015625)"/>
      <path id="DejaVuSans-65" d="M 3597 1894 
L 3597 1613 
L 953 1613 
Q 991 1019 1311 708 
Q 1631 397 2203 397 
Q 2534 397 2845 478 
Q 3156 559 3463 722 
L 3463 178 
Q 3153 47 2828 -22 
Q 2503 -91 2169 -91 
Q 1331 -91 842 396 
Q 353 884 353 1716 
Q 353 2575 817 3079 
Q 1281 3584 2069 3584 
Q 2775 3584 3186 3129 
Q 3597 2675 3597 1894 
z
M 3022 2063 
Q 3016 2534 2758 2815 
Q 2500 3097 2075 3097 
Q 1594 3097 1305 2825 
Q 1016 2553 972 2059 
L 3022 2063 
z
" transform="scale(0.015625)"/>
      <path id="DejaVuSans-74" d="M 1172 4494 
L 1172 3500 
L 2356 3500 
L 2356 3053 
L 1172 3053 
L 1172 1153 
Q 1172 725 1289 603 
Q 1406 481 1766 481 
L 2356 481 
L 2356 0 
L 1766 0 
Q 1100 0 847 248 
Q 594 497 594 1153 
L 594 3053 
L 172 3053 
L 172 3500 
L 594 3500 
L 594 4494 
L 1172 4494 
z
" transform="scale(0.015625)"/>
      <path id="DejaVuSans-5f" d="M 3263 -1063 
L 3263 -1509 
L -63 -1509 
L -63 -1063 
L 3263 -1063 
z
" transform="scale(0.015625)"/>
      <path id="DejaVuSans-73" d="M 2834 3397 
L 2834 2853 
Q 2591 2978 2328 3040 
Q 2066 3103 1784 3103 
Q 1356 3103 1142 2972 
Q 928 2841 928 2578 
Q 928 2378 1081 2264 
Q 1234 2150 1697 2047 
L 1894 2003 
Q 2506 1872 2764 1633 
Q 3022 1394 3022 966 
Q 3022 478 2636 193 
Q 2250 -91 1575 -91 
Q 1294 -91 989 -36 
Q 684 19 347 128 
L 347 722 
Q 666 556 975 473 
Q 1284 391 1588 391 
Q 1994 391 2212 530 
Q 2431 669 2431 922 
Q 2431 1156 2273 1281 
Q 2116 1406 1581 1522 
L 1381 1569 
Q 847 1681 609 1914 
Q 372 2147 372 2553 
Q 372 3047 722 3315 
Q 1072 3584 1716 3584 
Q 2034 3584 2315 3537 
Q 2597 3491 2834 3397 
z
" transform="scale(0.015625)"/>
      <path id="DejaVuSans-75" d="M 544 1381 
L 544 3500 
L 1119 3500 
L 1119 1403 
Q 1119 906 1312 657 
Q 1506 409 1894 409 
Q 2359 409 2629 706 
Q 2900 1003 2900 1516 
L 2900 3500 
L 3475 3500 
L 3475 0 
L 2900 0 
L 2900 538 
Q 2691 219 2414 64 
Q 2138 -91 1772 -91 
Q 1169 -91 856 284 
Q 544 659 544 1381 
z
M 1991 3584 
L 1991 3584 
z
" transform="scale(0.015625)"/>
      <path id="DejaVuSans-62" d="M 3116 1747 
Q 3116 2381 2855 2742 
Q 2594 3103 2138 3103 
Q 1681 3103 1420 2742 
Q 1159 2381 1159 1747 
Q 1159 1113 1420 752 
Q 1681 391 2138 391 
Q 2594 391 2855 752 
Q 3116 1113 3116 1747 
z
M 1159 2969 
Q 1341 3281 1617 3432 
Q 1894 3584 2278 3584 
Q 2916 3584 3314 3078 
Q 3713 2572 3713 1747 
Q 3713 922 3314 415 
Q 2916 -91 2278 -91 
Q 1894 -91 1617 61 
Q 1341 213 1159 525 
L 1159 0 
L 581 0 
L 581 4863 
L 1159 4863 
L 1159 2969 
z
" transform="scale(0.015625)"/>
      <path id="DejaVuSans-63" d="M 3122 3366 
L 3122 2828 
Q 2878 2963 2633 3030 
Q 2388 3097 2138 3097 
Q 1578 3097 1268 2742 
Q 959 2388 959 1747 
Q 959 1106 1268 751 
Q 1578 397 2138 397 
Q 2388 397 2633 464 
Q 2878 531 3122 666 
L 3122 134 
Q 2881 22 2623 -34 
Q 2366 -91 2075 -91 
Q 1284 -91 818 406 
Q 353 903 353 1747 
Q 353 2603 823 3093 
Q 1294 3584 2113 3584 
Q 2378 3584 2631 3529 
Q 2884 3475 3122 3366 
z
" transform="scale(0.015625)"/>
      <path id="DejaVuSans-72" d="M 2631 2963 
Q 2534 3019 2420 3045 
Q 2306 3072 2169 3072 
Q 1681 3072 1420 2755 
Q 1159 2438 1159 1844 
L 1159 0 
L 581 0 
L 581 3500 
L 1159 3500 
L 1159 2956 
Q 1341 3275 1631 3429 
Q 1922 3584 2338 3584 
Q 2397 3584 2469 3576 
Q 2541 3569 2628 3553 
L 2631 2963 
z
" transform="scale(0.015625)"/>
      <path id="DejaVuSans-69" d="M 603 3500 
L 1178 3500 
L 1178 0 
L 603 0 
L 603 3500 
z
M 603 4863 
L 1178 4863 
L 1178 4134 
L 603 4134 
L 603 4863 
z
" transform="scale(0.015625)"/>
      <path id="DejaVuSans-20" transform="scale(0.015625)"/>
      <path id="DejaVuSans-68" d="M 3513 2113 
L 3513 0 
L 2938 0 
L 2938 2094 
Q 2938 2591 2744 2837 
Q 2550 3084 2163 3084 
Q 1697 3084 1428 2787 
Q 1159 2491 1159 1978 
L 1159 0 
L 581 0 
L 581 4863 
L 1159 4863 
L 1159 2956 
Q 1366 3272 1645 3428 
Q 1925 3584 2291 3584 
Q 2894 3584 3203 3211 
Q 3513 2838 3513 2113 
z
" transform="scale(0.015625)"/>
      <path id="DejaVuSans-6f" d="M 1959 3097 
Q 1497 3097 1228 2736 
Q 959 2375 959 1747 
Q 959 1119 1226 758 
Q 1494 397 1959 397 
Q 2419 397 2687 759 
Q 2956 1122 2956 1747 
Q 2956 2369 2687 2733 
Q 2419 3097 1959 3097 
z
M 1959 3584 
Q 2709 3584 3137 3096 
Q 3566 2609 3566 1747 
Q 3566 888 3137 398 
Q 2709 -91 1959 -91 
Q 1206 -91 779 398 
Q 353 888 353 1747 
Q 353 2609 779 3096 
Q 1206 3584 1959 3584 
z
" transform="scale(0.015625)"/>
      <path id="DejaVuSans-79" d="M 2059 -325 
Q 1816 -950 1584 -1140 
Q 1353 -1331 966 -1331 
L 506 -1331 
L 506 -850 
L 844 -850 
Q 1081 -850 1212 -737 
Q 1344 -625 1503 -206 
L 1606 56 
L 191 3500 
L 800 3500 
L 1894 763 
L 2988 3500 
L 3597 3500 
L 2059 -325 
z
" transform="scale(0.015625)"/>
     </defs>
     <use xlink:href="#DejaVuSans-67"/>
     <use xlink:href="#DejaVuSans-65" transform="translate(63.476562 0)"/>
     <use xlink:href="#DejaVuSans-74" transform="translate(125 0)"/>
     <use xlink:href="#DejaVuSans-5f" transform="translate(164.208984 0)"/>
     <use xlink:href="#DejaVuSans-73" transform="translate(214.208984 0)"/>
     <use xlink:href="#DejaVuSans-75" transform="translate(266.308594 0)"/>
     <use xlink:href="#DejaVuSans-62" transform="translate(329.6875 0)"/>
     <use xlink:href="#DejaVuSans-73" transform="translate(393.164062 0)"/>
     <use xlink:href="#DejaVuSans-63" transform="translate(445.263672 0)"/>
     <use xlink:href="#DejaVuSans-72" transform="translate(500.244141 0)"/>
     <use xlink:href="#DejaVuSans-69" transform="translate(541.357422 0)"/>
     <use xlink:href="#DejaVuSans-62" transform="translate(569.140625 0)"/>
     <use xlink:href="#DejaVuSans-65" transform="translate(632.617188 0)"/>
     <use xlink:href="#DejaVuSans-20" transform="translate(694.140625 0)"/>
     <use xlink:href="#DejaVuSans-68" transform="translate(725.927734 0)"/>
     <use xlink:href="#DejaVuSans-69" transform="translate(789.306641 0)"/>
     <use xlink:href="#DejaVuSans-73" transform="translate(817.089844 0)"/>
     <use xlink:href="#DejaVuSans-74" transform="translate(869.189453 0)"/>
     <use xlink:href="#DejaVuSans-6f" transform="translate(908.398438 0)"/>
     <use xlink:href="#DejaVuSans-72" transform="translate(969.580078 0)"/>
     <use xlink:href="#DejaVuSans-79" transform="translate(1010.693359 0)"/>
    </g>
   </g>
   <g id="legend_1">
    <g id="line2d_33">
     <path d="M 815.08 328.498438 
L 825.08 328.498438 
L 835.08 328.498438 
" style="fill: none; stroke: #1f77b4; stroke-width: 1.5; stroke-linecap: square"/>
    </g>
    <g id="text_17">
     <!-- star -->
     <g style="fill: #a9a9a9" transform="translate(843.08 331.998438) scale(0.1 -0.1)">
      <defs>
       <path id="DejaVuSans-61" d="M 2194 1759 
Q 1497 1759 1228 1600 
Q 959 1441 959 1056 
Q 959 750 1161 570 
Q 1363 391 1709 391 
Q 2188 391 2477 730 
Q 2766 1069 2766 1631 
L 2766 1759 
L 2194 1759 
z
M 3341 1997 
L 3341 0 
L 2766 0 
L 2766 531 
Q 2569 213 2275 61 
Q 1981 -91 1556 -91 
Q 1019 -91 701 211 
Q 384 513 384 1019 
Q 384 1609 779 1909 
Q 1175 2209 1959 2209 
L 2766 2209 
L 2766 2266 
Q 2766 2663 2505 2880 
Q 2244 3097 1772 3097 
Q 1472 3097 1187 3025 
Q 903 2953 641 2809 
L 641 3341 
Q 956 3463 1253 3523 
Q 1550 3584 1831 3584 
Q 2591 3584 2966 3190 
Q 3341 2797 3341 1997 
z
" transform="scale(0.015625)"/>
      </defs>
      <use xlink:href="#DejaVuSans-73"/>
      <use xlink:href="#DejaVuSans-74" transform="translate(52.099609 0)"/>
      <use xlink:href="#DejaVuSans-61" transform="translate(91.308594 0)"/>
      <use xlink:href="#DejaVuSans-72" transform="translate(152.587891 0)"/>
     </g>
    </g>
    <g id="line2d_34">
     <path d="M 815.08 343.176562 
L 825.08 343.176562 
L 835.08 343.176562 
" style="fill: none; stroke: #ff7f0e; stroke-width: 1.5; stroke-linecap: square"/>
    </g>
    <g id="text_18">
     <!-- fork -->
     <g style="fill: #a9a9a9" transform="translate(843.08 346.676562) scale(0.1 -0.1)">
      <defs>
       <path id="DejaVuSans-66" d="M 2375 4863 
L 2375 4384 
L 1825 4384 
Q 1516 4384 1395 4259 
Q 1275 4134 1275 3809 
L 1275 3500 
L 2222 3500 
L 2222 3053 
L 1275 3053 
L 1275 0 
L 697 0 
L 697 3053 
L 147 3053 
L 147 3500 
L 697 3500 
L 697 3744 
Q 697 4328 969 4595 
Q 1241 4863 1831 4863 
L 2375 4863 
z
" transform="scale(0.015625)"/>
       <path id="DejaVuSans-6b" d="M 581 4863 
L 1159 4863 
L 1159 1991 
L 2875 3500 
L 3609 3500 
L 1753 1863 
L 3688 0 
L 2938 0 
L 1159 1709 
L 1159 0 
L 581 0 
L 581 4863 
z
" transform="scale(0.015625)"/>
      </defs>
      <use xlink:href="#DejaVuSans-66"/>
      <use xlink:href="#DejaVuSans-6f" transform="translate(35.205078 0)"/>
      <use xlink:href="#DejaVuSans-72" transform="translate(96.386719 0)"/>
      <use xlink:href="#DejaVuSans-6b" transform="translate(137.5 0)"/>
     </g>
    </g>
   </g>
  </g>
 </g>
 <defs>
  <clipPath id="p6df20fb928">
   <rect x="108" y="43.2" width="669.6" height="277.2"/>
  </clipPath>
 </defs>
</svg>
