<?xml version="1.0" encoding="utf-8" standalone="no"?>
<!DOCTYPE svg PUBLIC "-//W3C//DTD SVG 1.1//EN"
  "http://www.w3.org/Graphics/SVG/1.1/DTD/svg11.dtd">
<svg xmlns:xlink="http://www.w3.org/1999/xlink" width="864pt" height="360pt" viewBox="0 0 864 360" xmlns="http://www.w3.org/2000/svg" version="1.1">
 <metadata>
  <rdf:RDF xmlns:dc="http://purl.org/dc/elements/1.1/" xmlns:cc="http://creativecommons.org/ns#" xmlns:rdf="http://www.w3.org/1999/02/22-rdf-syntax-ns#">
   <cc:Work>
    <dc:type rdf:resource="http://purl.org/dc/dcmitype/StillImage"/>
    <dc:date>2026-03-04T08:22:16.697828</dc:date>
    <dc:format>image/svg+xml</dc:format>
    <dc:creator>
     <cc:Agent>
      <dc:title>Matplotlib v3.10.8, https://matplotlib.org/</dc:title>
     </cc:Agent>
    </dc:creator>
   </cc:Work>
  </rdf:RDF>
 </metadata>
 <defs>
  <style type="text/css">*{stroke-linejoin: round; stroke-linecap: butt}</style>
 </defs>
 <g id="figure_1">
  <g id="patch_1">
   <path d="M 0 360 
L 864 360 
L 864 0 
L 0 0 
L 0 360 
z
" style="fill: none; opacity: 0"/>
  </g>
  <g id="axes_1">
   <g id="patch_2">
    <path d="M 108 320.4 
L 777.6 320.4 
L 777.6 43.2 
L 108 43.2 
L 108 320.4 
z
" style="fill: none; opacity: 0"/>
   </g>
   <g id="matplotlib.axis_1">
    <g id="xtick_1">
     <g id="line2d_1">
      <path d="M 196.634161 320.4 
L 196.634161 43.2 
" clip-path="url(#p9e4512a95e)" style="fill: none; stroke-dasharray: 5.12,1.28,0.8,1.28; stroke-dashoffset: 0; stroke: #b0b0b0; stroke-width: 0.8"/>
     </g>
     <g id="line2d_2">
      <defs>
       <path id="mc06be68ab3" d="M 0 0 
L 0 3.5 
" style="stroke: #a9a9a9; stroke-width: 0.8"/>
      </defs>
      <g>
       <use xlink:href="#mc06be68ab3" x="196.634161" y="320.4" style="fill: #a9a9a9; stroke: #a9a9a9; stroke-width: 0.8"/>
      </g>
     </g>
     <g id="text_1">
      <!-- 2022 -->
      <g style="fill: #a9a9a9" transform="translate(183.909161 334.998438) scale(0.1 -0.1)">
       <defs>
        <path id="DejaVuSans-32" d="M 1228 531 
L 3431 531 
L 3431 0 
L 469 0 
L 469 531 
Q 828 903 1448 1529 
Q 2069 2156 2228 2338 
Q 2531 2678 2651 2914 
Q 2772 3150 2772 3378 
Q 2772 3750 2511 3984 
Q 2250 4219 1831 4219 
Q 1534 4219 1204 4116 
Q 875 4013 500 3803 
L 500 4441 
Q 881 4594 1212 4672 
Q 1544 4750 1819 4750 
Q 2544 4750 2975 4387 
Q 3406 4025 3406 3419 
Q 3406 3131 3298 2873 
Q 3191 2616 2906 2266 
Q 2828 2175 2409 1742 
Q 1991 1309 1228 531 
z
" transform="scale(0.015625)"/>
        <path id="DejaVuSans-30" d="M 2034 4250 
Q 1547 4250 1301 3770 
Q 1056 3291 1056 2328 
Q 1056 1369 1301 889 
Q 1547 409 2034 409 
Q 2525 409 2770 889 
Q 3016 1369 3016 2328 
Q 3016 3291 2770 3770 
Q 2525 4250 2034 4250 
z
M 2034 4750 
Q 2819 4750 3233 4129 
Q 3647 3509 3647 2328 
Q 3647 1150 3233 529 
Q 2819 -91 2034 -91 
Q 1250 -91 836 529 
Q 422 1150 422 2328 
Q 422 3509 836 4129 
Q 1250 4750 2034 4750 
z
" transform="scale(0.015625)"/>
       </defs>
       <use xlink:href="#DejaVuSans-32"/>
       <use xlink:href="#DejaVuSans-30" transform="translate(63.623047 0)"/>
       <use xlink:href="#DejaVuSans-32" transform="translate(127.246094 0)"/>
       <use xlink:href="#DejaVuSans-32" transform="translate(190.869141 0)"/>
      </g>
     </g>
    </g>
    <g id="xtick_2">
     <g id="line2d_3">
      <path d="M 328.573267 320.4 
L 328.573267 43.2 
" clip-path="url(#p9e4512a95e)" style="fill: none; stroke-dasharray: 5.12,1.28,0.8,1.28; stroke-dashoffset: 0; stroke: #b0b0b0; stroke-width: 0.8"/>
     </g>
     <g id="line2d_4">
      <g>
       <use xlink:href="#mc06be68ab3" x="328.573267" y="320.4" style="fill: #a9a9a9; stroke: #a9a9a9; stroke-width: 0.8"/>
      </g>
     </g>
     <g id="text_2">
      <!-- 2023 -->
      <g style="fill: #a9a9a9" transform="translate(315.848267 334.998438) scale(0.1 -0.1)">
       <defs>
        <path id="DejaVuSans-33" d="M 2597 2516 
Q 3050 2419 3304 2112 
Q 3559 1806 3559 1356 
Q 3559 666 3084 287 
Q 2609 -91 1734 -91 
Q 1441 -91 1130 -33 
Q 819 25 488 141 
L 488 750 
Q 750 597 1062 519 
Q 1375 441 1716 441 
Q 2309 441 2620 675 
Q 2931 909 2931 1356 
Q 2931 1769 2642 2001 
Q 2353 2234 1838 2234 
L 1294 2234 
L 1294 2753 
L 1863 2753 
Q 2328 2753 2575 2939 
Q 2822 3125 2822 3475 
Q 2822 3834 2567 4026 
Q 2313 4219 1838 4219 
Q 1578 4219 1281 4162 
Q 984 4106 628 3988 
L 628 4550 
Q 988 4650 1302 4700 
Q 1616 4750 1894 4750 
Q 2613 4750 3031 4423 
Q 3450 4097 3450 3541 
Q 3450 3153 3228 2886 
Q 3006 2619 2597 2516 
z
" transform="scale(0.015625)"/>
       </defs>
       <use xlink:href="#DejaVuSans-32"/>
       <use xlink:href="#DejaVuSans-30" transform="translate(63.623047 0)"/>
       <use xlink:href="#DejaVuSans-32" transform="translate(127.246094 0)"/>
       <use xlink:href="#DejaVuSans-33" transform="translate(190.869141 0)"/>
      </g>
     </g>
    </g>
    <g id="xtick_3">
     <g id="line2d_5">
      <path d="M 460.512373 320.4 
L 460.512373 43.2 
" clip-path="url(#p9e4512a95e)" style="fill: none; stroke-dasharray: 5.12,1.28,0.8,1.28; stroke-dashoffset: 0; stroke: #b0b0b0; stroke-width: 0.8"/>
     </g>
     <g id="line2d_6">
      <g>
       <use xlink:href="#mc06be68ab3" x="460.512373" y="320.4" style="fill: #a9a9a9; stroke: #a9a9a9; stroke-width: 0.8"/>
      </g>
     </g>
     <g id="text_3">
      <!-- 2024 -->
      <g style="fill: #a9a9a9" transform="translate(447.787373 334.998438) scale(0.1 -0.1)">
       <defs>
        <path id="DejaVuSans-34" d="M 2419 4116 
L 825 1625 
L 2419 1625 
L 2419 4116 
z
M 2253 4666 
L 3047 4666 
L 3047 1625 
L 3713 1625 
L 3713 1100 
L 3047 1100 
L 3047 0 
L 2419 0 
L 2419 1100 
L 313 1100 
L 313 1709 
L 2253 4666 
z
" transform="scale(0.015625)"/>
       </defs>
       <use xlink:href="#DejaVuSans-32"/>
       <use xlink:href="#DejaVuSans-30" transform="translate(63.623047 0)"/>
       <use xlink:href="#DejaVuSans-32" transform="translate(127.246094 0)"/>
       <use xlink:href="#DejaVuSans-34" transform="translate(190.869141 0)"/>
      </g>
     </g>
    </g>
    <g id="xtick_4">
     <g id="line2d_7">
      <path d="M 592.812956 320.4 
L 592.812956 43.2 
" clip-path="url(#p9e4512a95e)" style="fill: none; stroke-dasharray: 5.12,1.28,0.8,1.28; stroke-dashoffset: 0; stroke: #b0b0b0; stroke-width: 0.8"/>
     </g>
     <g id="line2d_8">
      <g>
       <use xlink:href="#mc06be68ab3" x="592.812956" y="320.4" style="fill: #a9a9a9; stroke: #a9a9a9; stroke-width: 0.8"/>
      </g>
     </g>
     <g id="text_4">
      <!-- 2025 -->
      <g style="fill: #a9a9a9" transform="translate(580.087956 334.998438) scale(0.1 -0.1)">
       <defs>
        <path id="DejaVuSans-35" d="M 691 4666 
L 3169 4666 
L 3169 4134 
L 1269 4134 
L 1269 2991 
Q 1406 3038 1543 3061 
Q 1681 3084 1819 3084 
Q 2600 3084 3056 2656 
Q 3513 2228 3513 1497 
Q 3513 744 3044 326 
Q 2575 -91 1722 -91 
Q 1428 -91 1123 -41 
Q 819 9 494 109 
L 494 744 
Q 775 591 1075 516 
Q 1375 441 1709 441 
Q 2250 441 2565 725 
Q 2881 1009 2881 1497 
Q 2881 1984 2565 2268 
Q 2250 2553 1709 2553 
Q 1456 2553 1204 2497 
Q 953 2441 691 2322 
L 691 4666 
z
" transform="scale(0.015625)"/>
       </defs>
       <use xlink:href="#DejaVuSans-32"/>
       <use xlink:href="#DejaVuSans-30" transform="translate(63.623047 0)"/>
       <use xlink:href="#DejaVuSans-32" transform="translate(127.246094 0)"/>
       <use xlink:href="#DejaVuSans-35" transform="translate(190.869141 0)"/>
      </g>
     </g>
    </g>
    <g id="xtick_5">
     <g id="line2d_9">
      <path d="M 724.752062 320.4 
L 724.752062 43.2 
" clip-path="url(#p9e4512a95e)" style="fill: none; stroke-dasharray: 5.12,1.28,0.8,1.28; stroke-dashoffset: 0; stroke: #b0b0b0; stroke-width: 0.8"/>
     </g>
     <g id="line2d_10">
      <g>
       <use xlink:href="#mc06be68ab3" x="724.752062" y="320.4" style="fill: #a9a9a9; stroke: #a9a9a9; stroke-width: 0.8"/>
      </g>
     </g>
     <g id="text_5">
      <!-- 2026 -->
      <g style="fill: #a9a9a9" transform="translate(712.027062 334.998438) scale(0.1 -0.1)">
       <defs>
        <path id="DejaVuSans-36" d="M 2113 2584 
Q 1688 2584 1439 2293 
Q 1191 2003 1191 1497 
Q 1191 994 1439 701 
Q 1688 409 2113 409 
Q 2538 409 2786 701 
Q 3034 994 3034 1497 
Q 3034 2003 2786 2293 
Q 2538 2584 2113 2584 
z
M 3366 4563 
L 3366 3988 
Q 3128 4100 2886 4159 
Q 2644 4219 2406 4219 
Q 1781 4219 1451 3797 
Q 1122 3375 1075 2522 
Q 1259 2794 1537 2939 
Q 1816 3084 2150 3084 
Q 2853 3084 3261 2657 
Q 3669 2231 3669 1497 
Q 3669 778 3244 343 
Q 2819 -91 2113 -91 
Q 1303 -91 875 529 
Q 447 1150 447 2328 
Q 447 3434 972 4092 
Q 1497 4750 2381 4750 
Q 2619 4750 2861 4703 
Q 3103 4656 3366 4563 
z
" transform="scale(0.015625)"/>
       </defs>
       <use xlink:href="#DejaVuSans-32"/>
       <use xlink:href="#DejaVuSans-30" transform="translate(63.623047 0)"/>
       <use xlink:href="#DejaVuSans-32" transform="translate(127.246094 0)"/>
       <use xlink:href="#DejaVuSans-36" transform="translate(190.869141 0)"/>
      </g>
     </g>
    </g>
   </g>
   <g id="matplotlib.axis_2">
    <g id="ytick_1">
     <g id="line2d_11">
      <path d="M 108 307.828929 
L 777.6 307.828929 
" clip-path="url(#p9e4512a95e)" style="fill: none; stroke-dasharray: 5.12,1.28,0.8,1.28; stroke-dashoffset: 0; stroke: #b0b0b0; stroke-width: 0.8"/>
     </g>
     <g id="line2d_12">
      <defs>
       <path id="md07d729d2e" d="M 0 0 
L -3.5 0 
" style="stroke: #a9a9a9; stroke-width: 0.8"/>
      </defs>
      <g>
       <use xlink:href="#md07d729d2e" x="108" y="307.828929" style="fill: #a9a9a9; stroke: #a9a9a9; stroke-width: 0.8"/>
      </g>
     </g>
     <g id="text_6">
      <!-- 0 -->
      <g style="fill: #a9a9a9" transform="translate(94.6375 311.628148) scale(0.1 -0.1)">
       <use xlink:href="#DejaVuSans-30"/>
      </g>
     </g>
    </g>
    <g id="ytick_2">
     <g id="line2d_13">
      <path d="M 108 278.899989 
L 777.6 278.899989 
" clip-path="url(#p9e4512a95e)" style="fill: none; stroke-dasharray: 5.12,1.28,0.8,1.28; stroke-dashoffset: 0; stroke: #b0b0b0; stroke-width: 0.8"/>
     </g>
     <g id="line2d_14">
      <g>
       <use xlink:href="#md07d729d2e" x="108" y="278.899989" style="fill: #a9a9a9; stroke: #a9a9a9; stroke-width: 0.8"/>
      </g>
     </g>
     <g id="text_7">
      <!-- 1000 -->
      <g style="fill: #a9a9a9" transform="translate(75.55 282.699207) scale(0.1 -0.1)">
       <defs>
        <path id="DejaVuSans-31" d="M 794 531 
L 1825 531 
L 1825 4091 
L 703 3866 
L 703 4441 
L 1819 4666 
L 2450 4666 
L 2450 531 
L 3481 531 
L 3481 0 
L 794 0 
L 794 531 
z
" transform="scale(0.015625)"/>
       </defs>
       <use xlink:href="#DejaVuSans-31"/>
       <use xlink:href="#DejaVuSans-30" transform="translate(63.623047 0)"/>
       <use xlink:href="#DejaVuSans-30" transform="translate(127.246094 0)"/>
       <use xlink:href="#DejaVuSans-30" transform="translate(190.869141 0)"/>
      </g>
     </g>
    </g>
    <g id="ytick_3">
     <g id="line2d_15">
      <path d="M 108 249.971048 
L 777.6 249.971048 
" clip-path="url(#p9e4512a95e)" style="fill: none; stroke-dasharray: 5.12,1.28,0.8,1.28; stroke-dashoffset: 0; stroke: #b0b0b0; stroke-width: 0.8"/>
     </g>
     <g id="line2d_16">
      <g>
       <use xlink:href="#md07d729d2e" x="108" y="249.971048" style="fill: #a9a9a9; stroke: #a9a9a9; stroke-width: 0.8"/>
      </g>
     </g>
     <g id="text_8">
      <!-- 2000 -->
      <g style="fill: #a9a9a9" transform="translate(75.55 253.770267) scale(0.1 -0.1)">
       <use xlink:href="#DejaVuSans-32"/>
       <use xlink:href="#DejaVuSans-30" transform="translate(63.623047 0)"/>
       <use xlink:href="#DejaVuSans-30" transform="translate(127.246094 0)"/>
       <use xlink:href="#DejaVuSans-30" transform="translate(190.869141 0)"/>
      </g>
     </g>
    </g>
    <g id="ytick_4">
     <g id="line2d_17">
      <path d="M 108 221.042108 
L 777.6 221.042108 
" clip-path="url(#p9e4512a95e)" style="fill: none; stroke-dasharray: 5.12,1.28,0.8,1.28; stroke-dashoffset: 0; stroke: #b0b0b0; stroke-width: 0.8"/>
     </g>
     <g id="line2d_18">
      <g>
       <use xlink:href="#md07d729d2e" x="108" y="221.042108" style="fill: #a9a9a9; stroke: #a9a9a9; stroke-width: 0.8"/>
      </g>
     </g>
     <g id="text_9">
      <!-- 3000 -->
      <g style="fill: #a9a9a9" transform="translate(75.55 224.841326) scale(0.1 -0.1)">
       <use xlink:href="#DejaVuSans-33"/>
       <use xlink:href="#DejaVuSans-30" transform="translate(63.623047 0)"/>
       <use xlink:href="#DejaVuSans-30" transform="translate(127.246094 0)"/>
       <use xlink:href="#DejaVuSans-30" transform="translate(190.869141 0)"/>
      </g>
     </g>
    </g>
    <g id="ytick_5">
     <g id="line2d_19">
      <path d="M 108 192.113167 
L 777.6 192.113167 
" clip-path="url(#p9e4512a95e)" style="fill: none; stroke-dasharray: 5.12,1.28,0.8,1.28; stroke-dashoffset: 0; stroke: #b0b0b0; stroke-width: 0.8"/>
     </g>
     <g id="line2d_20">
      <g>
       <use xlink:href="#md07d729d2e" x="108" y="192.113167" style="fill: #a9a9a9; stroke: #a9a9a9; stroke-width: 0.8"/>
      </g>
     </g>
     <g id="text_10">
      <!-- 4000 -->
      <g style="fill: #a9a9a9" transform="translate(75.55 195.912386) scale(0.1 -0.1)">
       <use xlink:href="#DejaVuSans-34"/>
       <use xlink:href="#DejaVuSans-30" transform="translate(63.623047 0)"/>
       <use xlink:href="#DejaVuSans-30" transform="translate(127.246094 0)"/>
       <use xlink:href="#DejaVuSans-30" transform="translate(190.869141 0)"/>
      </g>
     </g>
    </g>
    <g id="ytick_6">
     <g id="line2d_21">
      <path d="M 108 163.184227 
L 777.6 163.184227 
" clip-path="url(#p9e4512a95e)" style="fill: none; stroke-dasharray: 5.12,1.28,0.8,1.28; stroke-dashoffset: 0; stroke: #b0b0b0; stroke-width: 0.8"/>
     </g>
     <g id="line2d_22">
      <g>
       <use xlink:href="#md07d729d2e" x="108" y="163.184227" style="fill: #a9a9a9; stroke: #a9a9a9; stroke-width: 0.8"/>
      </g>
     </g>
     <g id="text_11">
      <!-- 5000 -->
      <g style="fill: #a9a9a9" transform="translate(75.55 166.983446) scale(0.1 -0.1)">
       <use xlink:href="#DejaVuSans-35"/>
       <use xlink:href="#DejaVuSans-30" transform="translate(63.623047 0)"/>
       <use xlink:href="#DejaVuSans-30" transform="translate(127.246094 0)"/>
       <use xlink:href="#DejaVuSans-30" transform="translate(190.869141 0)"/>
      </g>
     </g>
    </g>
    <g id="ytick_7">
     <g id="line2d_23">
      <path d="M 108 134.255286 
L 777.6 134.255286 
" clip-path="url(#p9e4512a95e)" style="fill: none; stroke-dasharray: 5.12,1.28,0.8,1.28; stroke-dashoffset: 0; stroke: #b0b0b0; stroke-width: 0.8"/>
     </g>
     <g id="line2d_24">
      <g>
       <use xlink:href="#md07d729d2e" x="108" y="134.255286" style="fill: #a9a9a9; stroke: #a9a9a9; stroke-width: 0.8"/>
      </g>
     </g>
     <g id="text_12">
      <!-- 6000 -->
      <g style="fill: #a9a9a9" transform="translate(75.55 138.054505) scale(0.1 -0.1)">
       <use xlink:href="#DejaVuSans-36"/>
       <use xlink:href="#DejaVuSans-30" transform="translate(63.623047 0)"/>
       <use xlink:href="#DejaVuSans-30" transform="translate(127.246094 0)"/>
       <use xlink:href="#DejaVuSans-30" transform="translate(190.869141 0)"/>
      </g>
     </g>
    </g>
    <g id="ytick_8">
     <g id="line2d_25">
      <path d="M 108 105.326346 
L 777.6 105.326346 
" clip-path="url(#p9e4512a95e)" style="fill: none; stroke-dasharray: 5.12,1.28,0.8,1.28; stroke-dashoffset: 0; stroke: #b0b0b0; stroke-width: 0.8"/>
     </g>
     <g id="line2d_26">
      <g>
       <use xlink:href="#md07d729d2e" x="108" y="105.326346" style="fill: #a9a9a9; stroke: #a9a9a9; stroke-width: 0.8"/>
      </g>
     </g>
     <g id="text_13">
      <!-- 7000 -->
      <g style="fill: #a9a9a9" transform="translate(75.55 109.125565) scale(0.1 -0.1)">
       <defs>
        <path id="DejaVuSans-37" d="M 525 4666 
L 3525 4666 
L 3525 4397 
L 1831 0 
L 1172 0 
L 2766 4134 
L 525 4134 
L 525 4666 
z
" transform="scale(0.015625)"/>
       </defs>
       <use xlink:href="#DejaVuSans-37"/>
       <use xlink:href="#DejaVuSans-30" transform="translate(63.623047 0)"/>
       <use xlink:href="#DejaVuSans-30" transform="translate(127.246094 0)"/>
       <use xlink:href="#DejaVuSans-30" transform="translate(190.869141 0)"/>
      </g>
     </g>
    </g>
    <g id="ytick_9">
     <g id="line2d_27">
      <path d="M 108 76.397406 
L 777.6 76.397406 
" clip-path="url(#p9e4512a95e)" style="fill: none; stroke-dasharray: 5.12,1.28,0.8,1.28; stroke-dashoffset: 0; stroke: #b0b0b0; stroke-width: 0.8"/>
     </g>
     <g id="line2d_28">
      <g>
       <use xlink:href="#md07d729d2e" x="108" y="76.397406" style="fill: #a9a9a9; stroke: #a9a9a9; stroke-width: 0.8"/>
      </g>
     </g>
     <g id="text_14">
      <!-- 8000 -->
      <g style="fill: #a9a9a9" transform="translate(75.55 80.196624) scale(0.1 -0.1)">
       <defs>
        <path id="DejaVuSans-38" d="M 2034 2216 
Q 1584 2216 1326 1975 
Q 1069 1734 1069 1313 
Q 1069 891 1326 650 
Q 1584 409 2034 409 
Q 2484 409 2743 651 
Q 3003 894 3003 1313 
Q 3003 1734 2745 1975 
Q 2488 2216 2034 2216 
z
M 1403 2484 
Q 997 2584 770 2862 
Q 544 3141 544 3541 
Q 544 4100 942 4425 
Q 1341 4750 2034 4750 
Q 2731 4750 3128 4425 
Q 3525 4100 3525 3541 
Q 3525 3141 3298 2862 
Q 3072 2584 2669 2484 
Q 3125 2378 3379 2068 
Q 3634 1759 3634 1313 
Q 3634 634 3220 271 
Q 2806 -91 2034 -91 
Q 1263 -91 848 271 
Q 434 634 434 1313 
Q 434 1759 690 2068 
Q 947 2378 1403 2484 
z
M 1172 3481 
Q 1172 3119 1398 2916 
Q 1625 2713 2034 2713 
Q 2441 2713 2670 2916 
Q 2900 3119 2900 3481 
Q 2900 3844 2670 4047 
Q 2441 4250 2034 4250 
Q 1625 4250 1398 4047 
Q 1172 3844 1172 3481 
z
" transform="scale(0.015625)"/>
       </defs>
       <use xlink:href="#DejaVuSans-38"/>
       <use xlink:href="#DejaVuSans-30" transform="translate(63.623047 0)"/>
       <use xlink:href="#DejaVuSans-30" transform="translate(127.246094 0)"/>
       <use xlink:href="#DejaVuSans-30" transform="translate(190.869141 0)"/>
      </g>
     </g>
    </g>
    <g id="ytick_10">
     <g id="line2d_29">
      <path d="M 108 47.468465 
L 777.6 47.468465 
" clip-path="url(#p9e4512a95e)" style="fill: none; stroke-dasharray: 5.12,1.28,0.8,1.28; stroke-dashoffset: 0; stroke: #b0b0b0; stroke-width: 0.8"/>
     </g>
     <g id="line2d_30">
      <g>
       <use xlink:href="#md07d729d2e" x="108" y="47.468465" style="fill: #a9a9a9; stroke: #a9a9a9; stroke-width: 0.8"/>
      </g>
     </g>
     <g id="text_15">
      <!-- 9000 -->
      <g style="fill: #a9a9a9" transform="translate(75.55 51.267684) scale(0.1 -0.1)">
       <defs>
        <path id="DejaVuSans-39" d="M 703 97 
L 703 672 
Q 941 559 1184 500 
Q 1428 441 1663 441 
Q 2288 441 2617 861 
Q 2947 1281 2994 2138 
Q 2813 1869 2534 1725 
Q 2256 1581 1919 1581 
Q 1219 1581 811 2004 
Q 403 2428 403 3163 
Q 403 3881 828 4315 
Q 1253 4750 1959 4750 
Q 2769 4750 3195 4129 
Q 3622 3509 3622 2328 
Q 3622 1225 3098 567 
Q 2575 -91 1691 -91 
Q 1453 -91 1209 -44 
Q 966 3 703 97 
z
M 1959 2075 
Q 2384 2075 2632 2365 
Q 2881 2656 2881 3163 
Q 2881 3666 2632 3958 
Q 2384 4250 1959 4250 
Q 1534 4250 1286 3958 
Q 1038 3666 1038 3163 
Q 1038 2656 1286 2365 
Q 1534 2075 1959 2075 
z
" transform="scale(0.015625)"/>
       </defs>
       <use xlink:href="#DejaVuSans-39"/>
       <use xlink:href="#DejaVuSans-30" transform="translate(63.623047 0)"/>
       <use xlink:href="#DejaVuSans-30" transform="translate(127.246094 0)"/>
       <use xlink:href="#DejaVuSans-30" transform="translate(190.869141 0)"/>
      </g>
     </g>
    </g>
   </g>
   <g id="line2d_31">
    <path d="M 138.436364 307.742142 
L 140.605226 307.53964 
L 140.966703 307.366066 
L 142.412611 307.163563 
L 143.858519 306.845345 
L 144.581473 306.729629 
L 146.388858 306.556056 
L 147.111812 306.266766 
L 147.473289 305.746045 
L 147.834766 305.485685 
L 148.196243 304.617817 
L 148.55772 304.559959 
L 149.280674 304.097096 
L 150.003628 303.547446 
L 151.449536 302.448146 
L 151.811013 302.303501 
L 152.533967 301.840638 
L 153.618398 301.290988 
L 153.979875 300.654552 
L 154.702829 300.075973 
L 155.425783 299.844541 
L 156.510214 299.670968 
L 158.679076 299.32382 
L 159.040553 299.150247 
L 161.570892 298.918815 
L 163.0168 298.542739 
L 165.908616 298.108805 
L 166.270093 297.906302 
L 166.63157 297.848444 
L 167.354524 297.588084 
L 169.884863 297.125221 
L 170.607817 296.893789 
L 173.86111 296.315211 
L 174.584064 296.141637 
L 176.029972 295.939134 
L 176.752926 295.707703 
L 177.114403 295.158053 
L 178.198834 294.69519 
L 179.283265 294.376972 
L 179.644742 294.174469 
L 180.367696 294.029824 
L 182.175081 293.566961 
L 183.259512 293.306601 
L 184.70542 292.930525 
L 185.066897 292.901596 
L 185.789851 292.525519 
L 186.151328 292.467662 
L 186.512805 292.265159 
L 191.212006 291.42622 
L 192.657914 290.760854 
L 193.380868 290.558352 
L 194.103822 290.240133 
L 194.826776 289.690483 
L 195.911207 289.459052 
L 203.863701 286.971163 
L 204.225178 286.942234 
L 205.309609 286.595087 
L 205.671086 286.595087 
L 206.032563 286.421513 
L 206.755517 286.334726 
L 207.116994 286.190082 
L 208.924379 286.103295 
L 209.285856 286.016508 
L 210.00881 285.611503 
L 211.093241 285.206498 
L 211.816195 284.801492 
L 212.900626 284.3097 
L 214.346534 283.557548 
L 214.708011 283.152543 
L 215.430965 281.937527 
L 216.515396 281.59038 
L 216.876873 281.301091 
L 217.961304 280.896085 
L 218.322781 280.520009 
L 219.407212 280.057146 
L 219.768689 279.854644 
L 221.937551 277.22211 
L 222.660505 276.874963 
L 224.106413 275.833521 
L 224.829367 275.3128 
L 225.190844 274.76315 
L 225.552321 273.866353 
L 225.913798 273.287774 
L 229.528568 269.960946 
L 230.251522 269.237722 
L 231.69743 268.254138 
L 232.058907 267.906991 
L 232.781861 267.67556 
L 233.866292 267.010194 
L 234.950723 266.229113 
L 236.396631 264.811595 
L 237.119585 264.493376 
L 237.842539 263.972655 
L 238.204016 263.741224 
L 238.565493 263.683366 
L 239.649924 263.018 
L 240.011401 262.584066 
L 241.818786 261.513695 
L 242.180263 261.369051 
L 243.264694 260.55904 
L 248.686849 258.476157 
L 249.409803 257.752933 
L 250.494235 257.174354 
L 251.217189 256.682562 
L 251.940143 256.451131 
L 252.30162 256.19077 
L 252.663097 256.075055 
L 253.747528 255.293973 
L 255.554913 254.860039 
L 256.639344 254.165744 
L 257.723775 253.905384 
L 258.085252 253.818597 
L 259.169683 253.008587 
L 260.615591 252.574653 
L 260.977068 252.285363 
L 263.14593 251.475353 
L 263.868884 251.330708 
L 264.591838 251.01249 
L 267.122177 250.028906 
L 267.845131 249.942119 
L 269.291039 249.36354 
L 273.267286 247.251728 
L 273.99024 246.90458 
L 274.713194 246.557433 
L 275.436148 246.412788 
L 276.159102 245.949925 
L 276.882056 245.747423 
L 277.966487 245.28456 
L 279.412395 245.082057 
L 280.135349 244.677052 
L 280.496826 244.329905 
L 280.858303 243.63561 
L 282.304211 243.201676 
L 283.750119 242.507381 
L 287.003412 240.974148 
L 287.726366 240.800574 
L 288.810797 240.221995 
L 289.172274 240.164137 
L 290.979659 239.209482 
L 291.702613 238.71769 
L 292.787044 238.486259 
L 296.040337 237.329101 
L 297.486245 236.692664 
L 297.847722 236.403375 
L 298.570676 235.99837 
L 299.29363 235.70908 
L 299.655107 235.622294 
L 301.101015 234.841212 
L 301.462492 234.436207 
L 301.823969 234.204776 
L 302.185446 234.117989 
L 302.9084 233.481552 
L 303.269877 233.423694 
L 303.631354 232.787257 
L 303.992831 232.642613 
L 304.354308 232.324394 
L 304.715785 232.266537 
L 305.438739 231.774745 
L 306.161693 231.514384 
L 306.52317 231.225095 
L 307.246124 230.82009 
L 308.692032 229.894363 
L 310.860894 228.881851 
L 311.222371 228.216485 
L 311.945325 227.637906 
L 312.306802 227.551119 
L 314.475664 226.45182 
L 315.198618 226.133601 
L 315.921572 225.583951 
L 316.644526 224.80287 
L 318.451911 223.385352 
L 319.174865 222.777844 
L 319.536342 222.60427 
L 320.259296 221.823189 
L 321.343727 221.302468 
L 322.066681 220.868534 
L 322.428158 220.752818 
L 322.789635 220.463529 
L 323.151112 220.405671 
L 326.404405 218.669935 
L 327.127359 218.467432 
L 328.573267 217.946711 
L 329.296221 217.454919 
L 330.742129 216.905269 
L 331.465083 216.442406 
L 332.188037 216.153117 
L 332.910991 215.603467 
L 333.633945 214.070233 
L 334.356899 213.202365 
L 335.44133 212.594857 
L 336.164284 212.276639 
L 336.525761 212.218781 
L 337.248715 211.871634 
L 339.0561 211.206268 
L 339.779054 210.714476 
L 340.863485 210.251613 
L 342.67087 209.123384 
L 343.393824 208.42909 
L 344.478255 207.87944 
L 344.839732 207.59015 
L 345.562686 207.214074 
L 347.731548 206.114774 
L 348.454502 205.912272 
L 349.538933 205.565125 
L 350.984841 204.87083 
L 353.876657 203.424383 
L 354.599611 203.019378 
L 354.961088 202.845804 
L 355.684042 202.238296 
L 356.406996 202.035794 
L 356.768473 201.688647 
L 357.12995 201.630789 
L 357.852904 201.05221 
L 359.660289 199.923981 
L 360.383243 199.69255 
L 360.74472 199.461118 
L 361.106197 199.40326 
L 363.275059 198.448605 
L 367.612783 197.060016 
L 368.697214 196.278935 
L 369.420168 195.87393 
L 370.866076 195.150706 
L 371.950507 194.398554 
L 372.673461 194.22498 
L 373.757892 193.530685 
L 377.011185 192.373528 
L 377.734139 192.113167 
L 379.180048 191.794949 
L 379.903002 191.563517 
L 381.710387 190.927081 
L 382.794818 190.579933 
L 383.517772 190.40636 
L 385.686634 190.001355 
L 386.409588 189.85671 
L 387.494019 189.596349 
L 387.855496 189.422776 
L 388.57845 189.278131 
L 389.301404 189.075629 
L 390.024358 188.728481 
L 390.385835 188.583837 
L 390.747312 188.583837 
L 396.169467 186.790242 
L 396.530944 186.385237 
L 398.699806 185.430582 
L 400.145714 184.909861 
L 400.507191 184.67843 
L 401.591622 184.331282 
L 403.03753 183.781632 
L 403.399007 183.463414 
L 404.483438 183.231983 
L 405.206392 182.884835 
L 405.567869 182.421972 
L 409.544116 181.496246 
L 409.905593 181.496246 
L 410.628547 181.264815 
L 413.88184 180.425875 
L 414.604794 180.252302 
L 421.11138 178.082631 
L 421.472857 177.822271 
L 422.195811 177.590839 
L 425.087627 176.549397 
L 425.810581 176.491539 
L 427.256489 176.057605 
L 427.617966 175.826174 
L 428.34092 175.594742 
L 429.063874 175.305453 
L 429.425351 175.016163 
L 429.786828 174.929377 
L 430.148305 174.726874 
L 430.509782 174.697945 
L 434.847506 173.077924 
L 438.100799 172.007554 
L 439.546707 170.763609 
L 442.077046 169.635381 
L 444.607385 168.507152 
L 445.330339 168.304649 
L 448.583632 166.6557 
L 449.306586 166.221766 
L 452.559879 164.601745 
L 452.921356 164.312456 
L 454.728741 163.618161 
L 457.25908 162.663506 
L 457.982034 162.576719 
L 458.343511 162.316359 
L 459.789419 162.027069 
L 460.512373 161.708851 
L 462.319758 160.812054 
L 467.018959 158.642383 
L 468.10339 158.266307 
L 468.464867 158.005947 
L 469.187821 157.91916 
L 469.549298 157.687728 
L 470.272252 157.572012 
L 474.971453 155.807347 
L 476.055884 155.546987 
L 477.501792 154.91055 
L 478.224746 154.505545 
L 479.670654 153.724463 
L 480.393608 153.55089 
L 480.755085 153.319458 
L 481.116562 153.232671 
L 482.923947 152.306945 
L 487.623148 150.484422 
L 487.984625 150.426564 
L 489.430533 149.703341 
L 490.153487 149.558696 
L 490.876441 149.124762 
L 492.322349 148.401538 
L 498.828935 145.826863 
L 500.274843 144.582918 
L 501.359274 144.148984 
L 503.889613 142.876111 
L 504.25109 142.61575 
L 504.974044 142.413248 
L 505.696998 142.008242 
L 506.781429 141.747882 
L 512.565062 139.317851 
L 514.372447 138.565699 
L 516.541309 137.755688 
L 518.348694 136.829962 
L 519.071648 136.598531 
L 519.433125 136.251383 
L 520.517556 135.817449 
L 520.879033 135.759591 
L 522.324941 135.065297 
L 523.409372 134.718149 
L 524.493803 134.313144 
L 525.578234 133.994926 
L 525.939711 133.937068 
L 526.662665 133.532063 
L 527.024142 133.387418 
L 527.385619 133.098129 
L 528.47005 132.808839 
L 529.193004 132.51955 
L 529.915958 132.201332 
L 531.361866 131.593824 
L 533.892205 130.957387 
L 534.615159 130.668098 
L 536.061067 130.378808 
L 536.784021 130.234164 
L 537.868452 129.80023 
L 538.952883 129.568798 
L 541.121745 128.238067 
L 542.206176 127.60163 
L 544.375038 126.907336 
L 544.736515 126.618046 
L 547.628331 125.576604 
L 548.712762 125.229457 
L 549.435716 124.824452 
L 550.15867 124.621949 
L 550.520147 124.419447 
L 551.243101 124.274802 
L 553.050486 123.435863 
L 553.77344 123.146573 
L 555.219348 122.567994 
L 555.580825 122.220847 
L 555.942302 122.162989 
L 557.38821 121.555482 
L 558.834118 121.179405 
L 559.195595 121.150476 
L 559.557072 120.976903 
L 560.280026 120.832258 
L 563.533319 119.819745 
L 564.256273 119.241166 
L 565.702181 118.402227 
L 566.063658 118.31544 
L 566.425135 118.112938 
L 566.786612 118.05508 
L 570.039905 116.435059 
L 570.401382 116.116841 
L 572.208767 115.682907 
L 573.293198 115.191115 
L 574.016152 114.988612 
L 574.377629 114.815038 
L 574.739106 114.49682 
L 577.269445 113.571094 
L 578.353876 113.079302 
L 578.715353 113.050373 
L 579.438307 112.761084 
L 580.884215 112.124647 
L 583.053077 111.574997 
L 584.137508 111.083205 
L 587.390801 110.012834 
L 588.113755 109.607829 
L 600.403973 105.789209 
L 601.126927 105.586706 
L 602.211358 105.181701 
L 602.572835 105.181701 
L 603.657266 104.921341 
L 604.38022 104.776696 
L 605.103174 104.574194 
L 606.187605 103.995615 
L 607.272036 103.648467 
L 609.802375 102.780599 
L 611.248283 102.028447 
L 613.778622 101.160579 
L 614.140099 100.84236 
L 614.863053 100.610929 
L 615.22453 100.379497 
L 615.947484 100.29271 
L 618.477823 99.569487 
L 619.562254 99.338055 
L 622.45407 98.296613 
L 627.153271 96.47409 
L 627.876225 96.358374 
L 628.599179 96.21373 
L 628.960656 96.21373 
L 630.045087 95.866582 
L 631.129518 95.519435 
L 634.021334 94.680496 
L 635.467242 94.362278 
L 635.828719 94.130846 
L 636.551674 93.986201 
L 637.997582 93.696912 
L 639.082013 93.176191 
L 640.166444 92.915831 
L 640.889398 92.597612 
L 643.05826 91.816531 
L 643.419737 91.758673 
L 644.142691 91.498312 
L 648.480415 90.370084 
L 650.649277 89.617931 
L 651.372231 89.560073 
L 653.541093 89.010424 
L 654.264047 88.692205 
L 654.625524 88.634347 
L 654.987001 88.460774 
L 655.709955 87.824337 
L 658.963248 86.551464 
L 659.686202 86.435748 
L 662.578018 85.452164 
L 663.662449 84.844656 
L 664.023926 84.757869 
L 664.385403 84.46858 
L 665.469834 84.150362 
L 670.891989 81.633544 
L 672.699374 80.997107 
L 673.060851 80.678889 
L 673.422328 80.592102 
L 674.145282 80.129239 
L 675.229713 79.811021 
L 676.675621 79.203513 
L 677.037098 79.174584 
L 678.844483 78.480289 
L 679.567437 78.335645 
L 680.290391 77.814924 
L 680.651868 77.814924 
L 682.097776 77.294203 
L 683.543684 77.004913 
L 684.989592 76.368477 
L 685.351069 76.368477 
L 686.4355 75.9924 
L 687.158454 75.876685 
L 688.242885 75.240248 
L 688.965839 74.864172 
L 691.857655 73.82273 
L 692.580609 73.591298 
L 694.387994 73.244151 
L 700.171626 71.479486 
L 700.533103 71.421628 
L 701.256057 71.132338 
L 702.701965 70.81412 
L 705.593781 69.743749 
L 706.316735 69.599105 
L 707.762643 69.338744 
L 708.485597 69.223028 
L 709.931505 68.64445 
L 710.654459 68.441947 
L 711.377413 68.326231 
L 712.823321 67.863368 
L 713.184798 67.863368 
L 713.907752 67.458363 
L 715.715137 66.9955 
L 716.438091 66.735139 
L 717.161045 66.590495 
L 719.329907 65.63584 
L 719.691384 65.577982 
L 720.414338 65.230835 
L 721.137292 64.912616 
L 721.860246 64.594398 
L 722.5832 64.305108 
L 722.944677 64.102606 
L 723.306154 64.044748 
L 724.029108 63.72653 
L 725.113539 63.263667 
L 726.920924 62.482585 
L 727.282401 62.251154 
L 727.643878 62.164367 
L 728.005355 61.932935 
L 728.366832 61.875077 
L 729.089786 61.412214 
L 731.258648 60.891494 
L 731.981602 60.486488 
L 732.343079 60.42863 
L 733.788987 59.850052 
L 739.211142 57.796097 
L 740.65705 57.44895 
L 742.102958 57.275376 
L 743.187389 57.043944 
L 743.548866 56.986087 
L 744.27182 56.523224 
L 745.356251 56.118218 
L 746.079205 55.944645 
L 747.163636 55.8 
L 747.163636 55.8 
" clip-path="url(#p9e4512a95e)" style="fill: none; stroke: #1f77b4; stroke-width: 1.5; stroke-linecap: square"/>
   </g>
   <g id="line2d_32">
    <path d="M 138.797841 307.8 
L 142.051134 307.713213 
L 144.94295 307.568568 
L 146.388858 307.568568 
L 147.111812 307.452853 
L 155.78726 306.845345 
L 158.679076 306.758558 
L 160.486461 306.7007 
L 165.185662 306.613913 
L 166.993047 306.556056 
L 170.24634 306.469269 
L 171.692248 306.44034 
L 175.307018 306.353553 
L 176.752926 306.208908 
L 178.198834 306.179979 
L 180.367696 306.093193 
L 181.813604 306.064264 
L 183.620989 306.006406 
L 185.066897 305.861761 
L 188.32019 305.774974 
L 189.043144 305.717116 
L 190.489052 305.630329 
L 192.657914 305.543543 
L 194.103822 305.456756 
L 200.610408 305.022822 
L 203.140747 304.936035 
L 204.225178 304.820319 
L 206.032563 304.733532 
L 209.647333 304.53103 
L 213.262103 304.473172 
L 214.708011 304.299598 
L 216.515396 304.212811 
L 220.130166 303.836735 
L 222.299028 303.547446 
L 223.744936 303.489588 
L 226.636752 303.084583 
L 228.805614 303.026725 
L 229.890045 302.911009 
L 230.974476 302.824222 
L 249.771281 301.406704 
L 252.30162 301.319917 
L 253.747528 301.146344 
L 255.554913 301.059557 
L 257.723775 300.97277 
L 259.53116 300.885983 
L 260.977068 300.857054 
L 262.784453 300.799196 
L 263.507407 300.71241 
L 268.568085 300.625623 
L 269.291039 300.538836 
L 273.628763 300.452049 
L 276.882056 300.278475 
L 279.412395 300.191689 
L 280.858303 300.018115 
L 283.388642 299.931328 
L 284.111596 299.815612 
L 285.918981 299.757755 
L 289.533751 299.699897 
L 290.979659 299.555252 
L 292.425567 299.526323 
L 293.509998 299.439536 
L 294.955906 299.294892 
L 298.570676 299.092389 
L 302.185446 299.005602 
L 305.438739 298.832028 
L 306.52317 298.8031 
L 307.246124 298.687384 
L 309.053509 298.629526 
L 309.776463 298.571668 
L 311.583848 298.484881 
L 313.029756 298.455952 
L 315.560095 298.369165 
L 324.958497 297.7038 
L 327.127359 297.617013 
L 328.934744 297.559155 
L 333.995422 297.472368 
L 334.718376 297.385581 
L 339.779054 297.298795 
L 343.393824 297.096292 
L 344.116778 297.067363 
L 344.839732 296.980576 
L 346.647117 296.893789 
L 348.454502 296.835932 
L 350.261887 296.749145 
L 352.069272 296.691287 
L 355.322565 296.6045 
L 357.491427 296.517713 
L 362.552105 296.430926 
L 366.528352 296.199495 
L 367.97426 296.141637 
L 369.058691 296.05485 
L 374.119369 295.968063 
L 376.288231 295.881277 
L 382.794818 295.79449 
L 384.240726 295.765561 
L 388.57845 295.707703 
L 389.301404 295.649845 
L 394.362082 295.563058 
L 395.80799 295.534129 
L 405.206392 295.447342 
L 407.375254 295.360556 
L 422.557288 295.273769 
L 424.364673 295.215911 
L 434.847506 295.129124 
L 438.823753 294.897693 
L 440.992615 294.810906 
L 443.161477 294.724119 
L 446.776247 294.637332 
L 449.306586 294.521616 
L 452.198402 294.43483 
L 455.090218 294.290185 
L 461.958281 294.203398 
L 464.127143 294.116611 
L 468.10339 294.029824 
L 470.633729 293.914109 
L 473.164068 293.856251 
L 473.887022 293.798393 
L 482.56247 293.711606 
L 486.17724 293.509103 
L 488.707579 293.422317 
L 492.683826 293.190885 
L 497.02155 293.104098 
L 498.467458 293.075169 
L 499.190412 293.017311 
L 500.997797 292.814809 
L 504.612567 292.728022 
L 505.335521 292.641235 
L 508.950292 292.554448 
L 510.757677 292.496591 
L 514.733924 292.467662 
L 515.456878 292.380875 
L 519.433125 292.294088 
L 520.156079 292.23623 
L 528.108573 292.149443 
L 530.277435 292.062656 
L 535.69959 291.97587 
L 537.145498 291.946941 
L 540.398791 291.889083 
L 541.121745 291.802296 
L 545.820946 291.715509 
L 547.628331 291.657651 
L 554.134917 291.570864 
L 555.219348 291.484078 
L 556.303779 291.397291 
L 557.38821 291.310504 
L 562.810365 291.223717 
L 564.979227 291.13693 
L 575.46206 291.050143 
L 578.715353 290.87657 
L 583.776031 290.789783 
L 585.221939 290.760854 
L 589.559663 290.674067 
L 591.367048 290.616209 
L 599.681019 290.529423 
L 601.849881 290.442636 
L 607.99499 290.355849 
L 609.440898 290.32692 
L 613.055668 290.240133 
L 615.586007 290.124417 
L 619.562254 290.037631 
L 622.092593 289.921915 
L 625.345886 289.864057 
L 626.06884 289.806199 
L 634.021334 289.719412 
L 636.190197 289.632625 
L 638.720536 289.545839 
L 640.527921 289.487981 
L 651.010754 289.401194 
L 653.179616 289.314407 
L 659.324725 289.22762 
L 661.13211 289.169762 
L 665.831311 289.082976 
L 668.000173 288.996189 
L 670.891989 288.909402 
L 673.060851 288.822615 
L 687.519931 288.735828 
L 690.411747 288.591184 
L 698.725718 288.504397 
L 700.171626 288.475468 
L 708.847074 288.388681 
L 710.654459 288.330823 
L 722.221723 288.244036 
L 723.667631 288.215107 
L 734.511941 288.128321 
L 735.234895 288.070463 
L 744.27182 287.983676 
L 746.079205 287.925818 
L 747.163636 287.925818 
L 747.163636 287.925818 
" clip-path="url(#p9e4512a95e)" style="fill: none; stroke: #ff7f0e; stroke-width: 1.5; stroke-linecap: square"/>
   </g>
   <g id="patch_3">
    <path d="M 108 320.4 
L 108 43.2 
" style="fill: none; stroke: #a9a9a9; stroke-width: 0.8; stroke-linejoin: miter; stroke-linecap: square"/>
   </g>
   <g id="patch_4">
    <path d="M 777.6 320.4 
L 777.6 43.2 
" style="fill: none"/>
   </g>
   <g id="patch_5">
    <path d="M 108 320.4 
L 777.6 320.4 
" style="fill: none; stroke: #a9a9a9; stroke-width: 0.8; stroke-linejoin: miter; stroke-linecap: square"/>
   </g>
   <g id="patch_6">
    <path d="M 108 43.2 
L 777.6 43.2 
" style="fill: none"/>
   </g>
   <g id="text_16">
    <!-- get_subscribe history -->
    <g style="fill: #a9a9a9" transform="translate(378.6075 37.2) scale(0.12 -0.12)">
     <defs>
      <path id="DejaVuSans-67" d="M 2906 1791 
Q 2906 2416 2648 2759 
Q 2391 3103 1925 3103 
Q 1463 3103 1205 2759 
Q 947 2416 947 1791 
Q 947 1169 1205 825 
Q 1463 481 1925 481 
Q 2391 481 2648 825 
Q 2906 1169 2906 1791 
z
M 3481 434 
Q 3481 -459 3084 -895 
Q 2688 -1331 1869 -1331 
Q 1566 -1331 1297 -1286 
Q 1028 -1241 775 -1147 
L 775 -588 
Q 1028 -725 1275 -790 
Q 1522 -856 1778 -856 
Q 2344 -856 2625 -561 
Q 2906 -266 2906 331 
L 2906 616 
Q 2728 306 2450 153 
Q 2172 0 1784 0 
Q 1141 0 747 490 
Q 353 981 353 1791 
Q 353 2603 747 3093 
Q 1141 3584 1784 3584 
Q 2172 3584 2450 3431 
Q 2728 3278 2906 2969 
L 2906 3500 
L 3481 3500 
L 3481 434 
z
" transform="scale(0.015625)"/>
      <path id="DejaVuSans-65" d="M 3597 1894 
L 3597 1613 
L 953 1613 
Q 991 1019 1311 708 
Q 1631 397 2203 397 
Q 2534 397 2845 478 
Q 3156 559 3463 722 
L 3463 178 
Q 3153 47 2828 -22 
Q 2503 -91 2169 -91 
Q 1331 -91 842 396 
Q 353 884 353 1716 
Q 353 2575 817 3079 
Q 1281 3584 2069 3584 
Q 2775 3584 3186 3129 
Q 3597 2675 3597 1894 
z
M 3022 2063 
Q 3016 2534 2758 2815 
Q 2500 3097 2075 3097 
Q 1594 3097 1305 2825 
Q 1016 2553 972 2059 
L 3022 2063 
z
" transform="scale(0.015625)"/>
      <path id="DejaVuSans-74" d="M 1172 4494 
L 1172 3500 
L 2356 3500 
L 2356 3053 
L 1172 3053 
L 1172 1153 
Q 1172 725 1289 603 
Q 1406 481 1766 481 
L 2356 481 
L 2356 0 
L 1766 0 
Q 1100 0 847 248 
Q 594 497 594 1153 
L 594 3053 
L 172 3053 
L 172 3500 
L 594 3500 
L 594 4494 
L 1172 4494 
z
" transform="scale(0.015625)"/>
      <path id="DejaVuSans-5f" d="M 3263 -1063 
L 3263 -1509 
L -63 -1509 
L -63 -1063 
L 3263 -1063 
z
" transform="scale(0.015625)"/>
      <path id="DejaVuSans-73" d="M 2834 3397 
L 2834 2853 
Q 2591 2978 2328 3040 
Q 2066 3103 1784 3103 
Q 1356 3103 1142 2972 
Q 928 2841 928 2578 
Q 928 2378 1081 2264 
Q 1234 2150 1697 2047 
L 1894 2003 
Q 2506 1872 2764 1633 
Q 3022 1394 3022 966 
Q 3022 478 2636 193 
Q 2250 -91 1575 -91 
Q 1294 -91 989 -36 
Q 684 19 347 128 
L 347 722 
Q 666 556 975 473 
Q 1284 391 1588 391 
Q 1994 391 2212 530 
Q 2431 669 2431 922 
Q 2431 1156 2273 1281 
Q 2116 1406 1581 1522 
L 1381 1569 
Q 847 1681 609 1914 
Q 372 2147 372 2553 
Q 372 3047 722 3315 
Q 1072 3584 1716 3584 
Q 2034 3584 2315 3537 
Q 2597 3491 2834 3397 
z
" transform="scale(0.015625)"/>
      <path id="DejaVuSans-75" d="M 544 1381 
L 544 3500 
L 1119 3500 
L 1119 1403 
Q 1119 906 1312 657 
Q 1506 409 1894 409 
Q 2359 409 2629 706 
Q 2900 1003 2900 1516 
L 2900 3500 
L 3475 3500 
L 3475 0 
L 2900 0 
L 2900 538 
Q 2691 219 2414 64 
Q 2138 -91 1772 -91 
Q 1169 -91 856 284 
Q 544 659 544 1381 
z
M 1991 3584 
L 1991 3584 
z
" transform="scale(0.015625)"/>
      <path id="DejaVuSans-62" d="M 3116 1747 
Q 3116 2381 2855 2742 
Q 2594 3103 2138 3103 
Q 1681 3103 1420 2742 
Q 1159 2381 1159 1747 
Q 1159 1113 1420 752 
Q 1681 391 2138 391 
Q 2594 391 2855 752 
Q 3116 1113 3116 1747 
z
M 1159 2969 
Q 1341 3281 1617 3432 
Q 1894 3584 2278 3584 
Q 2916 3584 3314 3078 
Q 3713 2572 3713 1747 
Q 3713 922 3314 415 
Q 2916 -91 2278 -91 
Q 1894 -91 1617 61 
Q 1341 213 1159 525 
L 1159 0 
L 581 0 
L 581 4863 
L 1159 4863 
L 1159 2969 
z
" transform="scale(0.015625)"/>
      <path id="DejaVuSans-63" d="M 3122 3366 
L 3122 2828 
Q 2878 2963 2633 3030 
Q 2388 3097 2138 3097 
Q 1578 3097 1268 2742 
Q 959 2388 959 1747 
Q 959 1106 1268 751 
Q 1578 397 2138 397 
Q 2388 397 2633 464 
Q 2878 531 3122 666 
L 3122 134 
Q 2881 22 2623 -34 
Q 2366 -91 2075 -91 
Q 1284 -91 818 406 
Q 353 903 353 1747 
Q 353 2603 823 3093 
Q 1294 3584 2113 3584 
Q 2378 3584 2631 3529 
Q 2884 3475 3122 3366 
z
" transform="scale(0.015625)"/>
      <path id="DejaVuSans-72" d="M 2631 2963 
Q 2534 3019 2420 3045 
Q 2306 3072 2169 3072 
Q 1681 3072 1420 2755 
Q 1159 2438 1159 1844 
L 1159 0 
L 581 0 
L 581 3500 
L 1159 3500 
L 1159 2956 
Q 1341 3275 1631 3429 
Q 1922 3584 2338 3584 
Q 2397 3584 2469 3576 
Q 2541 3569 2628 3553 
L 2631 2963 
z
" transform="scale(0.015625)"/>
      <path id="DejaVuSans-69" d="M 603 3500 
L 1178 3500 
L 1178 0 
L 603 0 
L 603 3500 
z
M 603 4863 
L 1178 4863 
L 1178 4134 
L 603 4134 
L 603 4863 
z
" transform="scale(0.015625)"/>
      <path id="DejaVuSans-20" transform="scale(0.015625)"/>
      <path id="DejaVuSans-68" d="M 3513 2113 
L 3513 0 
L 2938 0 
L 2938 2094 
Q 2938 2591 2744 2837 
Q 2550 3084 2163 3084 
Q 1697 3084 1428 2787 
Q 1159 2491 1159 1978 
L 1159 0 
L 581 0 
L 581 4863 
L 1159 4863 
L 1159 2956 
Q 1366 3272 1645 3428 
Q 1925 3584 2291 3584 
Q 2894 3584 3203 3211 
Q 3513 2838 3513 2113 
z
" transform="scale(0.015625)"/>
      <path id="DejaVuSans-6f" d="M 1959 3097 
Q 1497 3097 1228 2736 
Q 959 2375 959 1747 
Q 959 1119 1226 758 
Q 1494 397 1959 397 
Q 2419 397 2687 759 
Q 2956 1122 2956 1747 
Q 2956 2369 2687 2733 
Q 2419 3097 1959 3097 
z
M 1959 3584 
Q 2709 3584 3137 3096 
Q 3566 2609 3566 1747 
Q 3566 888 3137 398 
Q 2709 -91 1959 -91 
Q 1206 -91 779 398 
Q 353 888 353 1747 
Q 353 2609 779 3096 
Q 1206 3584 1959 3584 
z
" transform="scale(0.015625)"/>
      <path id="DejaVuSans-79" d="M 2059 -325 
Q 1816 -950 1584 -1140 
Q 1353 -1331 966 -1331 
L 506 -1331 
L 506 -850 
L 844 -850 
Q 1081 -850 1212 -737 
Q 1344 -625 1503 -206 
L 1606 56 
L 191 3500 
L 800 3500 
L 1894 763 
L 2988 3500 
L 3597 3500 
L 2059 -325 
z
" transform="scale(0.015625)"/>
     </defs>
     <use xlink:href="#DejaVuSans-67"/>
     <use xlink:href="#DejaVuSans-65" transform="translate(63.476562 0)"/>
     <use xlink:href="#DejaVuSans-74" transform="translate(125 0)"/>
     <use xlink:href="#DejaVuSans-5f" transform="translate(164.208984 0)"/>
     <use xlink:href="#DejaVuSans-73" transform="translate(214.208984 0)"/>
     <use xlink:href="#DejaVuSans-75" transform="translate(266.308594 0)"/>
     <use xlink:href="#DejaVuSans-62" transform="translate(329.6875 0)"/>
     <use xlink:href="#DejaVuSans-73" transform="translate(393.164062 0)"/>
     <use xlink:href="#DejaVuSans-63" transform="translate(445.263672 0)"/>
     <use xlink:href="#DejaVuSans-72" transform="translate(500.244141 0)"/>
     <use xlink:href="#DejaVuSans-69" transform="translate(541.357422 0)"/>
     <use xlink:href="#DejaVuSans-62" transform="translate(569.140625 0)"/>
     <use xlink:href="#DejaVuSans-65" transform="translate(632.617188 0)"/>
     <use xlink:href="#DejaVuSans-20" transform="translate(694.140625 0)"/>
     <use xlink:href="#DejaVuSans-68" transform="translate(725.927734 0)"/>
     <use xlink:href="#DejaVuSans-69" transform="translate(789.306641 0)"/>
     <use xlink:href="#DejaVuSans-73" transform="translate(817.089844 0)"/>
     <use xlink:href="#DejaVuSans-74" transform="translate(869.189453 0)"/>
     <use xlink:href="#DejaVuSans-6f" transform="translate(908.398438 0)"/>
     <use xlink:href="#DejaVuSans-72" transform="translate(969.580078 0)"/>
     <use xlink:href="#DejaVuSans-79" transform="translate(1010.693359 0)"/>
    </g>
   </g>
   <g id="legend_1">
    <g id="line2d_33">
     <path d="M 815.08 328.498438 
L 825.08 328.498438 
L 835.08 328.498438 
" style="fill: none; stroke: #1f77b4; stroke-width: 1.5; stroke-linecap: square"/>
    </g>
    <g id="text_17">
     <!-- star -->
     <g style="fill: #a9a9a9" transform="translate(843.08 331.998438) scale(0.1 -0.1)">
      <defs>
       <path id="DejaVuSans-61" d="M 2194 1759 
Q 1497 1759 1228 1600 
Q 959 1441 959 1056 
Q 959 750 1161 570 
Q 1363 391 1709 391 
Q 2188 391 2477 730 
Q 2766 1069 2766 1631 
L 2766 1759 
L 2194 1759 
z
M 3341 1997 
L 3341 0 
L 2766 0 
L 2766 531 
Q 2569 213 2275 61 
Q 1981 -91 1556 -91 
Q 1019 -91 701 211 
Q 384 513 384 1019 
Q 384 1609 779 1909 
Q 1175 2209 1959 2209 
L 2766 2209 
L 2766 2266 
Q 2766 2663 2505 2880 
Q 2244 3097 1772 3097 
Q 1472 3097 1187 3025 
Q 903 2953 641 2809 
L 641 3341 
Q 956 3463 1253 3523 
Q 1550 3584 1831 3584 
Q 2591 3584 2966 3190 
Q 3341 2797 3341 1997 
z
" transform="scale(0.015625)"/>
      </defs>
      <use xlink:href="#DejaVuSans-73"/>
      <use xlink:href="#DejaVuSans-74" transform="translate(52.099609 0)"/>
      <use xlink:href="#DejaVuSans-61" transform="translate(91.308594 0)"/>
      <use xlink:href="#DejaVuSans-72" transform="translate(152.587891 0)"/>
     </g>
    </g>
    <g id="line2d_34">
     <path d="M 815.08 343.176562 
L 825.08 343.176562 
L 835.08 343.176562 
" style="fill: none; stroke: #ff7f0e; stroke-width: 1.5; stroke-linecap: square"/>
    </g>
    <g id="text_18">
     <!-- fork -->
     <g style="fill: #a9a9a9" transform="translate(843.08 346.676562) scale(0.1 -0.1)">
      <defs>
       <path id="DejaVuSans-66" d="M 2375 4863 
L 2375 4384 
L 1825 4384 
Q 1516 4384 1395 4259 
Q 1275 4134 1275 3809 
L 1275 3500 
L 2222 3500 
L 2222 3053 
L 1275 3053 
L 1275 0 
L 697 0 
L 697 3053 
L 147 3053 
L 147 3500 
L 697 3500 
L 697 3744 
Q 697 4328 969 4595 
Q 1241 4863 1831 4863 
L 2375 4863 
z
" transform="scale(0.015625)"/>
       <path id="DejaVuSans-6b" d="M 581 4863 
L 1159 4863 
L 1159 1991 
L 2875 3500 
L 3609 3500 
L 1753 1863 
L 3688 0 
L 2938 0 
L 1159 1709 
L 1159 0 
L 581 0 
L 581 4863 
z
" transform="scale(0.015625)"/>
      </defs>
      <use xlink:href="#DejaVuSans-66"/>
      <use xlink:href="#DejaVuSans-6f" transform="translate(35.205078 0)"/>
      <use xlink:href="#DejaVuSans-72" transform="translate(96.386719 0)"/>
      <use xlink:href="#DejaVuSans-6b" transform="translate(137.5 0)"/>
     </g>
    </g>
   </g>
  </g>
 </g>
 <defs>
  <clipPath id="p9e4512a95e">
   <rect x="108" y="43.2" width="669.6" height="277.2"/>
  </clipPath>
 </defs>
</svg>
