<?xml version="1.0" encoding="utf-8" standalone="no"?>
<!DOCTYPE svg PUBLIC "-//W3C//DTD SVG 1.1//EN"
  "http://www.w3.org/Graphics/SVG/1.1/DTD/svg11.dtd">
<svg xmlns:xlink="http://www.w3.org/1999/xlink" width="864pt" height="360pt" viewBox="0 0 864 360" xmlns="http://www.w3.org/2000/svg" version="1.1">
 <metadata>
  <rdf:RDF xmlns:dc="http://purl.org/dc/elements/1.1/" xmlns:cc="http://creativecommons.org/ns#" xmlns:rdf="http://www.w3.org/1999/02/22-rdf-syntax-ns#">
   <cc:Work>
    <dc:type rdf:resource="http://purl.org/dc/dcmitype/StillImage"/>
    <dc:date>2025-06-14T08:15:26.014403</dc:date>
    <dc:format>image/svg+xml</dc:format>
    <dc:creator>
     <cc:Agent>
      <dc:title>Matplotlib v3.10.3, https://matplotlib.org/</dc:title>
     </cc:Agent>
    </dc:creator>
   </cc:Work>
  </rdf:RDF>
 </metadata>
 <defs>
  <style type="text/css">*{stroke-linejoin: round; stroke-linecap: butt}</style>
 </defs>
 <g id="figure_1">
  <g id="patch_1">
   <path d="M 0 360 
L 864 360 
L 864 0 
L 0 0 
L 0 360 
z
" style="fill: none; opacity: 0"/>
  </g>
  <g id="axes_1">
   <g id="patch_2">
    <path d="M 108 320.4 
L 777.6 320.4 
L 777.6 43.2 
L 108 43.2 
L 108 320.4 
z
" style="fill: none; opacity: 0"/>
   </g>
   <g id="matplotlib.axis_1">
    <g id="xtick_1">
     <g id="line2d_1">
      <path d="M 128.583635 320.4 
L 128.583635 43.2 
" clip-path="url(#pfb6627b4b5)" style="fill: none; stroke-dasharray: 5.12,1.28,0.8,1.28; stroke-dashoffset: 0; stroke: #b0b0b0; stroke-width: 0.8"/>
     </g>
     <g id="line2d_2">
      <defs>
       <path id="m456e8d5e9c" d="M 0 0 
L 0 3.5 
" style="stroke: #a9a9a9; stroke-width: 0.8"/>
      </defs>
      <g>
       <use xlink:href="#m456e8d5e9c" x="128.583635" y="320.4" style="fill: #a9a9a9; stroke: #a9a9a9; stroke-width: 0.8"/>
      </g>
     </g>
     <g id="text_1">
      <!-- 2021-07 -->
      <g style="fill: #a9a9a9" transform="translate(107.692229 334.998438) scale(0.1 -0.1)">
       <defs>
        <path id="DejaVuSans-32" d="M 1228 531 
L 3431 531 
L 3431 0 
L 469 0 
L 469 531 
Q 828 903 1448 1529 
Q 2069 2156 2228 2338 
Q 2531 2678 2651 2914 
Q 2772 3150 2772 3378 
Q 2772 3750 2511 3984 
Q 2250 4219 1831 4219 
Q 1534 4219 1204 4116 
Q 875 4013 500 3803 
L 500 4441 
Q 881 4594 1212 4672 
Q 1544 4750 1819 4750 
Q 2544 4750 2975 4387 
Q 3406 4025 3406 3419 
Q 3406 3131 3298 2873 
Q 3191 2616 2906 2266 
Q 2828 2175 2409 1742 
Q 1991 1309 1228 531 
z
" transform="scale(0.015625)"/>
        <path id="DejaVuSans-30" d="M 2034 4250 
Q 1547 4250 1301 3770 
Q 1056 3291 1056 2328 
Q 1056 1369 1301 889 
Q 1547 409 2034 409 
Q 2525 409 2770 889 
Q 3016 1369 3016 2328 
Q 3016 3291 2770 3770 
Q 2525 4250 2034 4250 
z
M 2034 4750 
Q 2819 4750 3233 4129 
Q 3647 3509 3647 2328 
Q 3647 1150 3233 529 
Q 2819 -91 2034 -91 
Q 1250 -91 836 529 
Q 422 1150 422 2328 
Q 422 3509 836 4129 
Q 1250 4750 2034 4750 
z
" transform="scale(0.015625)"/>
        <path id="DejaVuSans-31" d="M 794 531 
L 1825 531 
L 1825 4091 
L 703 3866 
L 703 4441 
L 1819 4666 
L 2450 4666 
L 2450 531 
L 3481 531 
L 3481 0 
L 794 0 
L 794 531 
z
" transform="scale(0.015625)"/>
        <path id="DejaVuSans-2d" d="M 313 2009 
L 1997 2009 
L 1997 1497 
L 313 1497 
L 313 2009 
z
" transform="scale(0.015625)"/>
        <path id="DejaVuSans-37" d="M 525 4666 
L 3525 4666 
L 3525 4397 
L 1831 0 
L 1172 0 
L 2766 4134 
L 525 4134 
L 525 4666 
z
" transform="scale(0.015625)"/>
       </defs>
       <use xlink:href="#DejaVuSans-32"/>
       <use xlink:href="#DejaVuSans-30" transform="translate(63.623047 0)"/>
       <use xlink:href="#DejaVuSans-32" transform="translate(127.246094 0)"/>
       <use xlink:href="#DejaVuSans-31" transform="translate(190.869141 0)"/>
       <use xlink:href="#DejaVuSans-2d" transform="translate(254.492188 0)"/>
       <use xlink:href="#DejaVuSans-30" transform="translate(290.576172 0)"/>
       <use xlink:href="#DejaVuSans-37" transform="translate(354.199219 0)"/>
      </g>
     </g>
    </g>
    <g id="xtick_2">
     <g id="line2d_3">
      <path d="M 207.405464 320.4 
L 207.405464 43.2 
" clip-path="url(#pfb6627b4b5)" style="fill: none; stroke-dasharray: 5.12,1.28,0.8,1.28; stroke-dashoffset: 0; stroke: #b0b0b0; stroke-width: 0.8"/>
     </g>
     <g id="line2d_4">
      <g>
       <use xlink:href="#m456e8d5e9c" x="207.405464" y="320.4" style="fill: #a9a9a9; stroke: #a9a9a9; stroke-width: 0.8"/>
      </g>
     </g>
     <g id="text_2">
      <!-- 2022-01 -->
      <g style="fill: #a9a9a9" transform="translate(186.514057 334.998438) scale(0.1 -0.1)">
       <use xlink:href="#DejaVuSans-32"/>
       <use xlink:href="#DejaVuSans-30" transform="translate(63.623047 0)"/>
       <use xlink:href="#DejaVuSans-32" transform="translate(127.246094 0)"/>
       <use xlink:href="#DejaVuSans-32" transform="translate(190.869141 0)"/>
       <use xlink:href="#DejaVuSans-2d" transform="translate(254.492188 0)"/>
       <use xlink:href="#DejaVuSans-30" transform="translate(290.576172 0)"/>
       <use xlink:href="#DejaVuSans-31" transform="translate(354.199219 0)"/>
      </g>
     </g>
    </g>
    <g id="xtick_3">
     <g id="line2d_5">
      <path d="M 284.942153 320.4 
L 284.942153 43.2 
" clip-path="url(#pfb6627b4b5)" style="fill: none; stroke-dasharray: 5.12,1.28,0.8,1.28; stroke-dashoffset: 0; stroke: #b0b0b0; stroke-width: 0.8"/>
     </g>
     <g id="line2d_6">
      <g>
       <use xlink:href="#m456e8d5e9c" x="284.942153" y="320.4" style="fill: #a9a9a9; stroke: #a9a9a9; stroke-width: 0.8"/>
      </g>
     </g>
     <g id="text_3">
      <!-- 2022-07 -->
      <g style="fill: #a9a9a9" transform="translate(264.050747 334.998438) scale(0.1 -0.1)">
       <use xlink:href="#DejaVuSans-32"/>
       <use xlink:href="#DejaVuSans-30" transform="translate(63.623047 0)"/>
       <use xlink:href="#DejaVuSans-32" transform="translate(127.246094 0)"/>
       <use xlink:href="#DejaVuSans-32" transform="translate(190.869141 0)"/>
       <use xlink:href="#DejaVuSans-2d" transform="translate(254.492188 0)"/>
       <use xlink:href="#DejaVuSans-30" transform="translate(290.576172 0)"/>
       <use xlink:href="#DejaVuSans-37" transform="translate(354.199219 0)"/>
      </g>
     </g>
    </g>
    <g id="xtick_4">
     <g id="line2d_7">
      <path d="M 363.763982 320.4 
L 363.763982 43.2 
" clip-path="url(#pfb6627b4b5)" style="fill: none; stroke-dasharray: 5.12,1.28,0.8,1.28; stroke-dashoffset: 0; stroke: #b0b0b0; stroke-width: 0.8"/>
     </g>
     <g id="line2d_8">
      <g>
       <use xlink:href="#m456e8d5e9c" x="363.763982" y="320.4" style="fill: #a9a9a9; stroke: #a9a9a9; stroke-width: 0.8"/>
      </g>
     </g>
     <g id="text_4">
      <!-- 2023-01 -->
      <g style="fill: #a9a9a9" transform="translate(342.872576 334.998438) scale(0.1 -0.1)">
       <defs>
        <path id="DejaVuSans-33" d="M 2597 2516 
Q 3050 2419 3304 2112 
Q 3559 1806 3559 1356 
Q 3559 666 3084 287 
Q 2609 -91 1734 -91 
Q 1441 -91 1130 -33 
Q 819 25 488 141 
L 488 750 
Q 750 597 1062 519 
Q 1375 441 1716 441 
Q 2309 441 2620 675 
Q 2931 909 2931 1356 
Q 2931 1769 2642 2001 
Q 2353 2234 1838 2234 
L 1294 2234 
L 1294 2753 
L 1863 2753 
Q 2328 2753 2575 2939 
Q 2822 3125 2822 3475 
Q 2822 3834 2567 4026 
Q 2313 4219 1838 4219 
Q 1578 4219 1281 4162 
Q 984 4106 628 3988 
L 628 4550 
Q 988 4650 1302 4700 
Q 1616 4750 1894 4750 
Q 2613 4750 3031 4423 
Q 3450 4097 3450 3541 
Q 3450 3153 3228 2886 
Q 3006 2619 2597 2516 
z
" transform="scale(0.015625)"/>
       </defs>
       <use xlink:href="#DejaVuSans-32"/>
       <use xlink:href="#DejaVuSans-30" transform="translate(63.623047 0)"/>
       <use xlink:href="#DejaVuSans-32" transform="translate(127.246094 0)"/>
       <use xlink:href="#DejaVuSans-33" transform="translate(190.869141 0)"/>
       <use xlink:href="#DejaVuSans-2d" transform="translate(254.492188 0)"/>
       <use xlink:href="#DejaVuSans-30" transform="translate(290.576172 0)"/>
       <use xlink:href="#DejaVuSans-31" transform="translate(354.199219 0)"/>
      </g>
     </g>
    </g>
    <g id="xtick_5">
     <g id="line2d_9">
      <path d="M 441.300672 320.4 
L 441.300672 43.2 
" clip-path="url(#pfb6627b4b5)" style="fill: none; stroke-dasharray: 5.12,1.28,0.8,1.28; stroke-dashoffset: 0; stroke: #b0b0b0; stroke-width: 0.8"/>
     </g>
     <g id="line2d_10">
      <g>
       <use xlink:href="#m456e8d5e9c" x="441.300672" y="320.4" style="fill: #a9a9a9; stroke: #a9a9a9; stroke-width: 0.8"/>
      </g>
     </g>
     <g id="text_5">
      <!-- 2023-07 -->
      <g style="fill: #a9a9a9" transform="translate(420.409265 334.998438) scale(0.1 -0.1)">
       <use xlink:href="#DejaVuSans-32"/>
       <use xlink:href="#DejaVuSans-30" transform="translate(63.623047 0)"/>
       <use xlink:href="#DejaVuSans-32" transform="translate(127.246094 0)"/>
       <use xlink:href="#DejaVuSans-33" transform="translate(190.869141 0)"/>
       <use xlink:href="#DejaVuSans-2d" transform="translate(254.492188 0)"/>
       <use xlink:href="#DejaVuSans-30" transform="translate(290.576172 0)"/>
       <use xlink:href="#DejaVuSans-37" transform="translate(354.199219 0)"/>
      </g>
     </g>
    </g>
    <g id="xtick_6">
     <g id="line2d_11">
      <path d="M 520.1225 320.4 
L 520.1225 43.2 
" clip-path="url(#pfb6627b4b5)" style="fill: none; stroke-dasharray: 5.12,1.28,0.8,1.28; stroke-dashoffset: 0; stroke: #b0b0b0; stroke-width: 0.8"/>
     </g>
     <g id="line2d_12">
      <g>
       <use xlink:href="#m456e8d5e9c" x="520.1225" y="320.4" style="fill: #a9a9a9; stroke: #a9a9a9; stroke-width: 0.8"/>
      </g>
     </g>
     <g id="text_6">
      <!-- 2024-01 -->
      <g style="fill: #a9a9a9" transform="translate(499.231094 334.998438) scale(0.1 -0.1)">
       <defs>
        <path id="DejaVuSans-34" d="M 2419 4116 
L 825 1625 
L 2419 1625 
L 2419 4116 
z
M 2253 4666 
L 3047 4666 
L 3047 1625 
L 3713 1625 
L 3713 1100 
L 3047 1100 
L 3047 0 
L 2419 0 
L 2419 1100 
L 313 1100 
L 313 1709 
L 2253 4666 
z
" transform="scale(0.015625)"/>
       </defs>
       <use xlink:href="#DejaVuSans-32"/>
       <use xlink:href="#DejaVuSans-30" transform="translate(63.623047 0)"/>
       <use xlink:href="#DejaVuSans-32" transform="translate(127.246094 0)"/>
       <use xlink:href="#DejaVuSans-34" transform="translate(190.869141 0)"/>
       <use xlink:href="#DejaVuSans-2d" transform="translate(254.492188 0)"/>
       <use xlink:href="#DejaVuSans-30" transform="translate(290.576172 0)"/>
       <use xlink:href="#DejaVuSans-31" transform="translate(354.199219 0)"/>
      </g>
     </g>
    </g>
    <g id="xtick_7">
     <g id="line2d_13">
      <path d="M 598.08757 320.4 
L 598.08757 43.2 
" clip-path="url(#pfb6627b4b5)" style="fill: none; stroke-dasharray: 5.12,1.28,0.8,1.28; stroke-dashoffset: 0; stroke: #b0b0b0; stroke-width: 0.8"/>
     </g>
     <g id="line2d_14">
      <g>
       <use xlink:href="#m456e8d5e9c" x="598.08757" y="320.4" style="fill: #a9a9a9; stroke: #a9a9a9; stroke-width: 0.8"/>
      </g>
     </g>
     <g id="text_7">
      <!-- 2024-07 -->
      <g style="fill: #a9a9a9" transform="translate(577.196163 334.998438) scale(0.1 -0.1)">
       <use xlink:href="#DejaVuSans-32"/>
       <use xlink:href="#DejaVuSans-30" transform="translate(63.623047 0)"/>
       <use xlink:href="#DejaVuSans-32" transform="translate(127.246094 0)"/>
       <use xlink:href="#DejaVuSans-34" transform="translate(190.869141 0)"/>
       <use xlink:href="#DejaVuSans-2d" transform="translate(254.492188 0)"/>
       <use xlink:href="#DejaVuSans-30" transform="translate(290.576172 0)"/>
       <use xlink:href="#DejaVuSans-37" transform="translate(354.199219 0)"/>
      </g>
     </g>
    </g>
    <g id="xtick_8">
     <g id="line2d_15">
      <path d="M 676.909398 320.4 
L 676.909398 43.2 
" clip-path="url(#pfb6627b4b5)" style="fill: none; stroke-dasharray: 5.12,1.28,0.8,1.28; stroke-dashoffset: 0; stroke: #b0b0b0; stroke-width: 0.8"/>
     </g>
     <g id="line2d_16">
      <g>
       <use xlink:href="#m456e8d5e9c" x="676.909398" y="320.4" style="fill: #a9a9a9; stroke: #a9a9a9; stroke-width: 0.8"/>
      </g>
     </g>
     <g id="text_8">
      <!-- 2025-01 -->
      <g style="fill: #a9a9a9" transform="translate(656.017992 334.998438) scale(0.1 -0.1)">
       <defs>
        <path id="DejaVuSans-35" d="M 691 4666 
L 3169 4666 
L 3169 4134 
L 1269 4134 
L 1269 2991 
Q 1406 3038 1543 3061 
Q 1681 3084 1819 3084 
Q 2600 3084 3056 2656 
Q 3513 2228 3513 1497 
Q 3513 744 3044 326 
Q 2575 -91 1722 -91 
Q 1428 -91 1123 -41 
Q 819 9 494 109 
L 494 744 
Q 775 591 1075 516 
Q 1375 441 1709 441 
Q 2250 441 2565 725 
Q 2881 1009 2881 1497 
Q 2881 1984 2565 2268 
Q 2250 2553 1709 2553 
Q 1456 2553 1204 2497 
Q 953 2441 691 2322 
L 691 4666 
z
" transform="scale(0.015625)"/>
       </defs>
       <use xlink:href="#DejaVuSans-32"/>
       <use xlink:href="#DejaVuSans-30" transform="translate(63.623047 0)"/>
       <use xlink:href="#DejaVuSans-32" transform="translate(127.246094 0)"/>
       <use xlink:href="#DejaVuSans-35" transform="translate(190.869141 0)"/>
       <use xlink:href="#DejaVuSans-2d" transform="translate(254.492188 0)"/>
       <use xlink:href="#DejaVuSans-30" transform="translate(290.576172 0)"/>
       <use xlink:href="#DejaVuSans-31" transform="translate(354.199219 0)"/>
      </g>
     </g>
    </g>
    <g id="xtick_9">
     <g id="line2d_17">
      <path d="M 754.446088 320.4 
L 754.446088 43.2 
" clip-path="url(#pfb6627b4b5)" style="fill: none; stroke-dasharray: 5.12,1.28,0.8,1.28; stroke-dashoffset: 0; stroke: #b0b0b0; stroke-width: 0.8"/>
     </g>
     <g id="line2d_18">
      <g>
       <use xlink:href="#m456e8d5e9c" x="754.446088" y="320.4" style="fill: #a9a9a9; stroke: #a9a9a9; stroke-width: 0.8"/>
      </g>
     </g>
     <g id="text_9">
      <!-- 2025-07 -->
      <g style="fill: #a9a9a9" transform="translate(733.554682 334.998438) scale(0.1 -0.1)">
       <use xlink:href="#DejaVuSans-32"/>
       <use xlink:href="#DejaVuSans-30" transform="translate(63.623047 0)"/>
       <use xlink:href="#DejaVuSans-32" transform="translate(127.246094 0)"/>
       <use xlink:href="#DejaVuSans-35" transform="translate(190.869141 0)"/>
       <use xlink:href="#DejaVuSans-2d" transform="translate(254.492188 0)"/>
       <use xlink:href="#DejaVuSans-30" transform="translate(290.576172 0)"/>
       <use xlink:href="#DejaVuSans-37" transform="translate(354.199219 0)"/>
      </g>
     </g>
    </g>
   </g>
   <g id="matplotlib.axis_2">
    <g id="ytick_1">
     <g id="line2d_19">
      <path d="M 108 307.832613 
L 777.6 307.832613 
" clip-path="url(#pfb6627b4b5)" style="fill: none; stroke-dasharray: 5.12,1.28,0.8,1.28; stroke-dashoffset: 0; stroke: #b0b0b0; stroke-width: 0.8"/>
     </g>
     <g id="line2d_20">
      <defs>
       <path id="m8594f4d2c7" d="M 0 0 
L -3.5 0 
" style="stroke: #a9a9a9; stroke-width: 0.8"/>
      </defs>
      <g>
       <use xlink:href="#m8594f4d2c7" x="108" y="307.832613" style="fill: #a9a9a9; stroke: #a9a9a9; stroke-width: 0.8"/>
      </g>
     </g>
     <g id="text_10">
      <!-- 0 -->
      <g style="fill: #a9a9a9" transform="translate(94.6375 311.631832) scale(0.1 -0.1)">
       <use xlink:href="#DejaVuSans-30"/>
      </g>
     </g>
    </g>
    <g id="ytick_2">
     <g id="line2d_21">
      <path d="M 108 275.219697 
L 777.6 275.219697 
" clip-path="url(#pfb6627b4b5)" style="fill: none; stroke-dasharray: 5.12,1.28,0.8,1.28; stroke-dashoffset: 0; stroke: #b0b0b0; stroke-width: 0.8"/>
     </g>
     <g id="line2d_22">
      <g>
       <use xlink:href="#m8594f4d2c7" x="108" y="275.219697" style="fill: #a9a9a9; stroke: #a9a9a9; stroke-width: 0.8"/>
      </g>
     </g>
     <g id="text_11">
      <!-- 1000 -->
      <g style="fill: #a9a9a9" transform="translate(75.55 279.018916) scale(0.1 -0.1)">
       <use xlink:href="#DejaVuSans-31"/>
       <use xlink:href="#DejaVuSans-30" transform="translate(63.623047 0)"/>
       <use xlink:href="#DejaVuSans-30" transform="translate(127.246094 0)"/>
       <use xlink:href="#DejaVuSans-30" transform="translate(190.869141 0)"/>
      </g>
     </g>
    </g>
    <g id="ytick_3">
     <g id="line2d_23">
      <path d="M 108 242.606781 
L 777.6 242.606781 
" clip-path="url(#pfb6627b4b5)" style="fill: none; stroke-dasharray: 5.12,1.28,0.8,1.28; stroke-dashoffset: 0; stroke: #b0b0b0; stroke-width: 0.8"/>
     </g>
     <g id="line2d_24">
      <g>
       <use xlink:href="#m8594f4d2c7" x="108" y="242.606781" style="fill: #a9a9a9; stroke: #a9a9a9; stroke-width: 0.8"/>
      </g>
     </g>
     <g id="text_12">
      <!-- 2000 -->
      <g style="fill: #a9a9a9" transform="translate(75.55 246.406) scale(0.1 -0.1)">
       <use xlink:href="#DejaVuSans-32"/>
       <use xlink:href="#DejaVuSans-30" transform="translate(63.623047 0)"/>
       <use xlink:href="#DejaVuSans-30" transform="translate(127.246094 0)"/>
       <use xlink:href="#DejaVuSans-30" transform="translate(190.869141 0)"/>
      </g>
     </g>
    </g>
    <g id="ytick_4">
     <g id="line2d_25">
      <path d="M 108 209.993866 
L 777.6 209.993866 
" clip-path="url(#pfb6627b4b5)" style="fill: none; stroke-dasharray: 5.12,1.28,0.8,1.28; stroke-dashoffset: 0; stroke: #b0b0b0; stroke-width: 0.8"/>
     </g>
     <g id="line2d_26">
      <g>
       <use xlink:href="#m8594f4d2c7" x="108" y="209.993866" style="fill: #a9a9a9; stroke: #a9a9a9; stroke-width: 0.8"/>
      </g>
     </g>
     <g id="text_13">
      <!-- 3000 -->
      <g style="fill: #a9a9a9" transform="translate(75.55 213.793084) scale(0.1 -0.1)">
       <use xlink:href="#DejaVuSans-33"/>
       <use xlink:href="#DejaVuSans-30" transform="translate(63.623047 0)"/>
       <use xlink:href="#DejaVuSans-30" transform="translate(127.246094 0)"/>
       <use xlink:href="#DejaVuSans-30" transform="translate(190.869141 0)"/>
      </g>
     </g>
    </g>
    <g id="ytick_5">
     <g id="line2d_27">
      <path d="M 108 177.38095 
L 777.6 177.38095 
" clip-path="url(#pfb6627b4b5)" style="fill: none; stroke-dasharray: 5.12,1.28,0.8,1.28; stroke-dashoffset: 0; stroke: #b0b0b0; stroke-width: 0.8"/>
     </g>
     <g id="line2d_28">
      <g>
       <use xlink:href="#m8594f4d2c7" x="108" y="177.38095" style="fill: #a9a9a9; stroke: #a9a9a9; stroke-width: 0.8"/>
      </g>
     </g>
     <g id="text_14">
      <!-- 4000 -->
      <g style="fill: #a9a9a9" transform="translate(75.55 181.180169) scale(0.1 -0.1)">
       <use xlink:href="#DejaVuSans-34"/>
       <use xlink:href="#DejaVuSans-30" transform="translate(63.623047 0)"/>
       <use xlink:href="#DejaVuSans-30" transform="translate(127.246094 0)"/>
       <use xlink:href="#DejaVuSans-30" transform="translate(190.869141 0)"/>
      </g>
     </g>
    </g>
    <g id="ytick_6">
     <g id="line2d_29">
      <path d="M 108 144.768034 
L 777.6 144.768034 
" clip-path="url(#pfb6627b4b5)" style="fill: none; stroke-dasharray: 5.12,1.28,0.8,1.28; stroke-dashoffset: 0; stroke: #b0b0b0; stroke-width: 0.8"/>
     </g>
     <g id="line2d_30">
      <g>
       <use xlink:href="#m8594f4d2c7" x="108" y="144.768034" style="fill: #a9a9a9; stroke: #a9a9a9; stroke-width: 0.8"/>
      </g>
     </g>
     <g id="text_15">
      <!-- 5000 -->
      <g style="fill: #a9a9a9" transform="translate(75.55 148.567253) scale(0.1 -0.1)">
       <use xlink:href="#DejaVuSans-35"/>
       <use xlink:href="#DejaVuSans-30" transform="translate(63.623047 0)"/>
       <use xlink:href="#DejaVuSans-30" transform="translate(127.246094 0)"/>
       <use xlink:href="#DejaVuSans-30" transform="translate(190.869141 0)"/>
      </g>
     </g>
    </g>
    <g id="ytick_7">
     <g id="line2d_31">
      <path d="M 108 112.155118 
L 777.6 112.155118 
" clip-path="url(#pfb6627b4b5)" style="fill: none; stroke-dasharray: 5.12,1.28,0.8,1.28; stroke-dashoffset: 0; stroke: #b0b0b0; stroke-width: 0.8"/>
     </g>
     <g id="line2d_32">
      <g>
       <use xlink:href="#m8594f4d2c7" x="108" y="112.155118" style="fill: #a9a9a9; stroke: #a9a9a9; stroke-width: 0.8"/>
      </g>
     </g>
     <g id="text_16">
      <!-- 6000 -->
      <g style="fill: #a9a9a9" transform="translate(75.55 115.954337) scale(0.1 -0.1)">
       <defs>
        <path id="DejaVuSans-36" d="M 2113 2584 
Q 1688 2584 1439 2293 
Q 1191 2003 1191 1497 
Q 1191 994 1439 701 
Q 1688 409 2113 409 
Q 2538 409 2786 701 
Q 3034 994 3034 1497 
Q 3034 2003 2786 2293 
Q 2538 2584 2113 2584 
z
M 3366 4563 
L 3366 3988 
Q 3128 4100 2886 4159 
Q 2644 4219 2406 4219 
Q 1781 4219 1451 3797 
Q 1122 3375 1075 2522 
Q 1259 2794 1537 2939 
Q 1816 3084 2150 3084 
Q 2853 3084 3261 2657 
Q 3669 2231 3669 1497 
Q 3669 778 3244 343 
Q 2819 -91 2113 -91 
Q 1303 -91 875 529 
Q 447 1150 447 2328 
Q 447 3434 972 4092 
Q 1497 4750 2381 4750 
Q 2619 4750 2861 4703 
Q 3103 4656 3366 4563 
z
" transform="scale(0.015625)"/>
       </defs>
       <use xlink:href="#DejaVuSans-36"/>
       <use xlink:href="#DejaVuSans-30" transform="translate(63.623047 0)"/>
       <use xlink:href="#DejaVuSans-30" transform="translate(127.246094 0)"/>
       <use xlink:href="#DejaVuSans-30" transform="translate(190.869141 0)"/>
      </g>
     </g>
    </g>
    <g id="ytick_8">
     <g id="line2d_33">
      <path d="M 108 79.542203 
L 777.6 79.542203 
" clip-path="url(#pfb6627b4b5)" style="fill: none; stroke-dasharray: 5.12,1.28,0.8,1.28; stroke-dashoffset: 0; stroke: #b0b0b0; stroke-width: 0.8"/>
     </g>
     <g id="line2d_34">
      <g>
       <use xlink:href="#m8594f4d2c7" x="108" y="79.542203" style="fill: #a9a9a9; stroke: #a9a9a9; stroke-width: 0.8"/>
      </g>
     </g>
     <g id="text_17">
      <!-- 7000 -->
      <g style="fill: #a9a9a9" transform="translate(75.55 83.341421) scale(0.1 -0.1)">
       <use xlink:href="#DejaVuSans-37"/>
       <use xlink:href="#DejaVuSans-30" transform="translate(63.623047 0)"/>
       <use xlink:href="#DejaVuSans-30" transform="translate(127.246094 0)"/>
       <use xlink:href="#DejaVuSans-30" transform="translate(190.869141 0)"/>
      </g>
     </g>
    </g>
    <g id="ytick_9">
     <g id="line2d_35">
      <path d="M 108 46.929287 
L 777.6 46.929287 
" clip-path="url(#pfb6627b4b5)" style="fill: none; stroke-dasharray: 5.12,1.28,0.8,1.28; stroke-dashoffset: 0; stroke: #b0b0b0; stroke-width: 0.8"/>
     </g>
     <g id="line2d_36">
      <g>
       <use xlink:href="#m8594f4d2c7" x="108" y="46.929287" style="fill: #a9a9a9; stroke: #a9a9a9; stroke-width: 0.8"/>
      </g>
     </g>
     <g id="text_18">
      <!-- 8000 -->
      <g style="fill: #a9a9a9" transform="translate(75.55 50.728506) scale(0.1 -0.1)">
       <defs>
        <path id="DejaVuSans-38" d="M 2034 2216 
Q 1584 2216 1326 1975 
Q 1069 1734 1069 1313 
Q 1069 891 1326 650 
Q 1584 409 2034 409 
Q 2484 409 2743 651 
Q 3003 894 3003 1313 
Q 3003 1734 2745 1975 
Q 2488 2216 2034 2216 
z
M 1403 2484 
Q 997 2584 770 2862 
Q 544 3141 544 3541 
Q 544 4100 942 4425 
Q 1341 4750 2034 4750 
Q 2731 4750 3128 4425 
Q 3525 4100 3525 3541 
Q 3525 3141 3298 2862 
Q 3072 2584 2669 2484 
Q 3125 2378 3379 2068 
Q 3634 1759 3634 1313 
Q 3634 634 3220 271 
Q 2806 -91 2034 -91 
Q 1263 -91 848 271 
Q 434 634 434 1313 
Q 434 1759 690 2068 
Q 947 2378 1403 2484 
z
M 1172 3481 
Q 1172 3119 1398 2916 
Q 1625 2713 2034 2713 
Q 2441 2713 2670 2916 
Q 2900 3119 2900 3481 
Q 2900 3844 2670 4047 
Q 2441 4250 2034 4250 
Q 1625 4250 1398 4047 
Q 1172 3844 1172 3481 
z
" transform="scale(0.015625)"/>
       </defs>
       <use xlink:href="#DejaVuSans-38"/>
       <use xlink:href="#DejaVuSans-30" transform="translate(63.623047 0)"/>
       <use xlink:href="#DejaVuSans-30" transform="translate(127.246094 0)"/>
       <use xlink:href="#DejaVuSans-30" transform="translate(190.869141 0)"/>
      </g>
     </g>
    </g>
   </g>
   <g id="line2d_37">
    <path d="M 138.436364 307.734774 
L 141.006641 307.506484 
L 141.43502 307.310806 
L 143.148538 307.082516 
L 144.862056 306.723774 
L 145.718815 306.593322 
L 147.860713 306.397645 
L 148.717472 306.038903 
L 149.145851 305.45187 
L 149.574231 305.158354 
L 150.00261 304.179966 
L 150.43099 304.114741 
L 150.859369 303.755998 
L 151.716128 303.299418 
L 153.429646 301.864449 
L 155.143164 300.983901 
L 156.428303 300.364255 
L 156.856682 299.646771 
L 157.713441 298.994513 
L 158.141821 298.798835 
L 162.425616 298.146577 
L 162.853995 297.950899 
L 165.852652 297.689996 
L 167.56617 297.266028 
L 170.993206 296.776834 
L 171.421585 296.548544 
L 171.849965 296.483318 
L 172.706724 296.189802 
L 175.70538 295.667995 
L 176.562139 295.407092 
L 180.417555 294.754834 
L 181.274314 294.559156 
L 182.131073 294.526543 
L 183.844591 294.102575 
L 184.27297 293.48293 
L 185.558109 292.961123 
L 186.843247 292.602381 
L 187.271627 292.374091 
L 188.128386 292.211026 
L 189.841904 291.68922 
L 190.698663 291.623994 
L 191.555422 291.395703 
L 193.26894 290.939123 
L 193.697319 290.90651 
L 194.554078 290.482542 
L 194.982458 290.417316 
L 195.410837 290.189025 
L 200.123012 289.373703 
L 201.83653 288.851896 
L 202.264909 288.55838 
L 204.406807 287.840896 
L 205.263566 287.22125 
L 206.548704 286.960347 
L 215.973054 284.123023 
L 216.401433 284.09041 
L 217.686572 283.699055 
L 218.114951 283.699055 
L 218.543331 283.503378 
L 219.40009 283.405539 
L 219.828469 283.242474 
L 221.541987 283.177249 
L 222.398746 283.014184 
L 223.255505 282.557603 
L 224.540644 282.068409 
L 225.397403 281.611829 
L 226.254162 281.155248 
L 227.110921 280.861732 
L 227.5393 280.73128 
L 228.396059 280.17686 
L 228.824439 279.687667 
L 229.681198 278.317924 
L 230.109577 278.187472 
L 230.537957 278.187472 
L 231.823095 277.404763 
L 232.251475 277.176472 
L 232.679854 277.078633 
L 233.108234 276.654665 
L 233.964993 276.295923 
L 234.821752 275.904568 
L 236.963649 273.067245 
L 239.533926 271.632276 
L 240.390685 270.914792 
L 240.819065 270.653889 
L 241.247444 270.034244 
L 241.675824 269.023243 
L 242.104203 268.338372 
L 242.532583 267.97963 
L 242.960962 267.783952 
L 246.387998 264.522661 
L 247.244757 263.707338 
L 249.815034 262.044079 
L 250.243414 261.881015 
L 251.956932 260.837401 
L 252.385311 260.641724 
L 254.527209 258.619723 
L 255.383968 258.260981 
L 256.240727 257.641336 
L 256.669106 257.380432 
L 257.097486 257.315206 
L 258.382624 256.565109 
L 258.811004 256.075916 
L 260.952901 254.869238 
L 261.381281 254.706173 
L 262.666419 253.793012 
L 269.092112 251.444882 
L 269.948871 250.629559 
L 271.234009 249.9773 
L 272.090768 249.422881 
L 272.947527 249.161977 
L 273.375907 248.868461 
L 273.804286 248.73801 
L 275.089425 247.857461 
L 277.231322 247.368267 
L 278.516461 246.585557 
L 279.801599 246.292041 
L 280.229979 246.194202 
L 281.515117 245.183202 
L 283.228635 244.694008 
L 283.657015 244.335266 
L 286.227292 243.422104 
L 287.084051 243.25904 
L 287.94081 242.900298 
L 290.939466 241.758846 
L 291.796225 241.628394 
L 293.081364 241.171813 
L 295.223261 240.095587 
L 296.936779 239.117199 
L 300.363815 237.649618 
L 300.792195 237.584392 
L 301.648954 237.029973 
L 302.505713 236.801682 
L 303.790852 236.279876 
L 305.50437 236.051585 
L 306.361129 235.595005 
L 306.789508 235.20365 
L 307.217888 234.42094 
L 308.931406 233.931746 
L 310.216544 233.246875 
L 311.073303 232.953358 
L 311.930062 232.496778 
L 314.500339 231.420551 
L 315.357098 231.224874 
L 316.213857 230.768293 
L 316.642237 230.572616 
L 317.070616 230.50739 
L 319.212514 229.431163 
L 320.069273 228.876744 
L 321.354411 228.615841 
L 323.496309 228.061421 
L 323.924688 227.702679 
L 324.781447 227.409163 
L 326.923345 226.528614 
L 327.351724 226.202485 
L 327.780104 226.03942 
L 328.636863 225.550226 
L 330.350381 224.995807 
L 331.20714 224.441387 
L 331.635519 223.984807 
L 332.063899 223.723903 
L 332.492278 223.626064 
L 333.349037 222.90858 
L 333.777417 222.843354 
L 334.205796 222.12587 
L 334.634176 221.930193 
L 335.062555 221.571451 
L 335.490935 221.506225 
L 336.347694 220.951805 
L 337.204453 220.658289 
L 337.632832 220.33216 
L 338.061212 220.169095 
L 339.77473 218.99503 
L 341.059868 218.310159 
L 341.916627 218.081869 
L 342.773386 217.592675 
L 343.201766 216.842578 
L 344.058525 216.19032 
L 344.486904 216.092481 
L 347.057181 214.820577 
L 347.91394 214.461835 
L 348.770699 213.84219 
L 349.627458 212.961641 
L 353.482874 209.896027 
L 353.911253 209.537285 
L 354.768012 209.243769 
L 355.624771 208.656736 
L 356.90991 207.971865 
L 357.338289 207.906639 
L 358.623428 207.189155 
L 359.480187 206.634735 
L 363.763982 205.00409 
L 364.192361 204.645347 
L 365.905879 203.960476 
L 366.334259 203.830025 
L 367.191018 203.275605 
L 368.047777 202.916863 
L 368.904536 202.297218 
L 369.761295 200.53612 
L 370.618054 199.492507 
L 371.903192 198.807636 
L 372.759951 198.448893 
L 373.188331 198.383668 
L 373.61671 198.122764 
L 375.758608 197.40528 
L 376.186987 197.209603 
L 377.043746 196.62257 
L 378.328885 196.068151 
L 379.185644 195.578957 
L 380.042403 195.05715 
L 380.470782 194.763634 
L 380.899162 194.27444 
L 382.1843 193.524343 
L 382.61268 193.361279 
L 383.469439 192.839472 
L 385.182957 191.893697 
L 385.611336 191.795859 
L 386.039716 191.437117 
L 389.038372 190.426116 
L 389.466752 190.099987 
L 390.323511 189.839084 
L 391.18027 189.480342 
L 391.608649 189.1216 
L 393.322167 188.501954 
L 394.178926 187.882309 
L 395.035685 187.523567 
L 395.892445 186.838695 
L 396.749204 186.577792 
L 397.177583 186.186437 
L 397.605963 186.121211 
L 398.462722 185.43634 
L 399.319481 184.979759 
L 399.74786 184.784082 
L 400.17624 184.327501 
L 403.174896 183.08821 
L 404.031655 182.696855 
L 405.316794 182.272887 
L 406.173553 182.142436 
L 406.601932 181.946758 
L 407.030312 181.881532 
L 407.887071 181.490177 
L 408.31545 181.457564 
L 410.028968 180.805306 
L 411.314107 179.859532 
L 411.742486 179.696467 
L 412.599245 179.207273 
L 413.027625 179.076822 
L 415.597902 177.60924 
L 416.026281 177.511402 
L 417.31142 176.728692 
L 418.596558 176.272111 
L 419.453317 175.978595 
L 421.166835 175.391562 
L 422.023594 175.098046 
L 423.737112 174.739304 
L 424.165492 174.543626 
L 425.022251 174.315336 
L 425.45063 174.119658 
L 425.87901 174.054433 
L 426.307389 173.826142 
L 427.164148 173.663078 
L 428.449287 173.173884 
L 429.306046 173.076045 
L 430.591184 172.782529 
L 432.733082 172.391174 
L 443.870949 168.999431 
L 444.299328 168.54285 
L 446.869605 167.466624 
L 448.583123 166.879591 
L 449.011503 166.618688 
L 450.296641 166.227333 
L 451.1534 165.999042 
L 451.58178 165.705526 
L 452.010159 165.607687 
L 452.438539 165.216332 
L 453.723677 164.955429 
L 454.580436 164.531461 
L 455.008816 164.009654 
L 459.72099 162.966041 
L 460.14937 162.966041 
L 460.577749 162.770364 
L 462.291267 162.444235 
L 462.719647 162.248557 
L 464.433165 161.922428 
L 465.289924 161.563686 
L 466.146683 161.400621 
L 468.28858 160.846202 
L 470.002098 160.291782 
L 470.430478 160.193943 
L 470.858857 159.965653 
L 471.715616 159.737362 
L 472.572375 159.37862 
L 473.429134 159.052491 
L 473.857514 158.758975 
L 474.714273 158.498072 
L 477.712929 157.35662 
L 479.426447 157.128329 
L 482.853483 155.856426 
L 483.281863 155.530296 
L 483.710242 155.432458 
L 484.138622 155.204167 
L 484.567001 155.171554 
L 489.279176 153.475683 
L 491.421074 152.88865 
L 492.277833 152.464682 
L 493.562971 152.171166 
L 495.276489 150.736198 
L 496.990007 149.986101 
L 497.846766 149.594746 
L 500.417043 148.583745 
L 500.845423 148.290229 
L 502.98732 147.572745 
L 504.272459 146.822648 
L 504.700838 146.724809 
L 506.414356 145.746422 
L 508.127874 144.963712 
L 508.556254 144.637583 
L 509.413013 144.344066 
L 511.55491 143.235227 
L 512.840049 142.778646 
L 514.553567 142.061162 
L 515.838705 141.571968 
L 516.267085 141.408904 
L 517.123844 141.278452 
L 517.552223 140.984936 
L 519.265741 140.658807 
L 520.1225 140.300065 
L 521.836018 139.484742 
L 527.833331 136.810483 
L 529.11847 136.386515 
L 529.546849 136.092999 
L 530.403608 135.99516 
L 530.831988 135.701644 
L 531.688747 135.538579 
L 532.545506 135.114611 
L 532.973885 134.918934 
L 533.830644 134.690643 
L 534.687403 134.42974 
L 535.972542 133.940546 
L 537.25768 133.516578 
L 538.542819 133.223062 
L 540.256337 132.505578 
L 541.113096 132.016384 
L 542.826614 131.135835 
L 543.683373 130.940158 
L 544.111752 130.679255 
L 544.540132 130.581416 
L 545.82527 129.831319 
L 546.682029 129.472577 
L 556.106378 125.81993 
L 557.819896 125.004607 
L 562.103691 123.308736 
L 562.96045 122.884768 
L 563.38883 122.786929 
L 563.817209 122.558639 
L 565.530727 122.069445 
L 567.244245 120.634477 
L 567.672625 120.504025 
L 568.101004 120.243122 
L 569.386143 119.884379 
L 569.814522 119.55825 
L 570.242902 119.460412 
L 571.52804 118.677702 
L 571.95642 118.384185 
L 573.241558 117.894992 
L 573.669938 117.666701 
L 574.955076 117.373185 
L 577.096974 116.623088 
L 577.953733 116.362185 
L 579.238871 115.709926 
L 580.09563 115.285958 
L 580.952389 115.057668 
L 582.237528 114.438023 
L 586.092944 112.970441 
L 587.378082 112.155118 
L 587.806462 112.05728 
L 588.663221 111.633312 
L 589.51998 111.307183 
L 589.948359 110.915828 
L 590.805118 110.557086 
L 592.090257 110.100505 
L 592.518636 109.741763 
L 592.947016 109.70915 
L 593.803775 109.448246 
L 594.660534 109.15473 
L 595.088913 108.959053 
L 595.517293 108.893827 
L 596.374052 108.535085 
L 597.65919 108.241569 
L 598.515949 107.752375 
L 598.944329 107.58931 
L 599.372708 107.263181 
L 600.657847 106.937052 
L 601.086226 106.676149 
L 601.942985 106.447858 
L 603.228124 105.697761 
L 603.656503 105.665148 
L 604.941642 105.24118 
L 605.798401 105.175954 
L 606.22678 104.947664 
L 607.083539 104.719374 
L 607.511919 104.491083 
L 609.653816 104.067115 
L 610.510575 103.904051 
L 611.795714 103.414857 
L 613.080852 103.121341 
L 614.365991 102.43647 
L 614.79437 102.045115 
L 616.079509 101.262405 
L 616.507888 100.936275 
L 617.793027 100.512307 
L 618.649786 100.284017 
L 622.505201 98.555533 
L 624.218719 98.098952 
L 625.075478 97.707597 
L 625.503858 97.479306 
L 626.360617 97.218403 
L 626.788996 96.9575 
L 627.645755 96.794435 
L 631.072791 95.294241 
L 631.501171 95.229015 
L 632.786309 94.381079 
L 633.214689 94.315854 
L 634.928207 93.630982 
L 636.641725 93.207014 
L 637.070104 93.141789 
L 637.498484 92.946111 
L 637.926863 92.913498 
L 638.783622 92.619982 
L 639.212002 92.587369 
L 640.49714 92.098175 
L 642.210658 91.608981 
L 643.067417 90.956723 
L 644.780935 89.978336 
L 645.209315 89.880497 
L 645.637694 89.652207 
L 646.494453 89.35869 
L 646.922833 89.228239 
L 647.351212 88.869497 
L 648.636351 88.380303 
L 649.49311 87.891109 
L 649.921489 87.662819 
L 650.349869 87.271464 
L 652.491766 86.684431 
L 653.776905 86.097399 
L 654.633664 85.869108 
L 655.062043 85.640818 
L 655.490423 85.282076 
L 657.203941 84.825495 
L 657.63232 84.499366 
L 663.201254 82.444752 
L 664.058013 82.281688 
L 666.19991 81.596816 
L 667.056669 81.238074 
L 667.913428 80.911945 
L 668.770187 80.683655 
L 669.198567 80.487977 
L 669.626946 80.487977 
L 670.483705 80.129235 
L 671.340464 79.607428 
L 674.339121 78.596428 
L 676.052639 78.009396 
L 677.337777 77.715879 
L 678.622916 77.291911 
L 679.051296 77.194073 
L 679.479675 76.900556 
L 680.336434 76.704879 
L 682.049952 76.215685 
L 682.478332 76.183072 
L 683.335091 75.791717 
L 686.333747 75.04162 
L 687.190506 74.682878 
L 691.474301 73.704491 
L 692.75944 73.01962 
L 694.044578 72.628265 
L 698.328373 71.030232 
L 698.756753 70.704102 
L 700.041891 70.410586 
L 700.89865 70.149683 
L 701.755409 69.725715 
L 702.183789 69.366973 
L 703.040548 69.10607 
L 703.468927 68.845166 
L 704.325686 68.747328 
L 707.324343 67.899392 
L 708.609481 67.638488 
L 709.89462 67.312359 
L 710.751379 67.084069 
L 712.036517 66.399198 
L 713.750035 65.746939 
L 714.606794 65.290358 
L 715.035174 65.257746 
L 715.891933 64.833778 
L 718.890589 63.985842 
L 720.175728 63.790164 
L 721.032487 63.496648 
L 722.317625 63.105293 
L 726.173041 62.029067 
L 727.0298 61.800776 
L 727.458179 61.702938 
L 727.886559 61.442034 
L 728.743318 61.27897 
L 729.600077 61.181131 
L 730.028456 60.952841 
L 730.456836 60.920228 
L 731.313595 60.365808 
L 733.027113 59.974453 
L 733.883872 59.583098 
L 734.740631 59.289582 
L 735.59739 59.061292 
L 736.454149 58.669937 
L 737.310908 58.37642 
L 739.024426 57.887227 
L 739.881185 57.822001 
L 740.737944 57.528485 
L 741.594703 57.300194 
L 742.451462 57.006678 
L 745.450118 55.963065 
L 746.306877 55.897839 
L 747.163636 55.8 
L 747.163636 55.8 
" clip-path="url(#pfb6627b4b5)" style="fill: none; stroke: #1f77b4; stroke-width: 1.5; stroke-linecap: square"/>
   </g>
   <g id="line2d_38">
    <path d="M 138.864743 307.8 
L 142.720159 307.702161 
L 146.147195 307.539097 
L 147.860713 307.539097 
L 148.289092 307.408645 
L 150.43099 307.310806 
L 153.001267 307.01729 
L 155.571544 306.919451 
L 156.428303 306.821613 
L 159.426959 306.691161 
L 162.425616 306.593322 
L 164.567513 306.528096 
L 170.136447 306.430258 
L 172.278344 306.365032 
L 176.13376 306.267193 
L 177.847278 306.23458 
L 182.131073 306.136741 
L 183.844591 305.973677 
L 185.558109 305.941064 
L 188.128386 305.843225 
L 189.841904 305.810612 
L 191.983801 305.745386 
L 193.697319 305.582322 
L 197.552735 305.484483 
L 198.409494 305.419257 
L 200.123012 305.321418 
L 202.693289 305.22358 
L 204.406807 305.125741 
L 212.117638 304.636547 
L 215.116295 304.538708 
L 216.401433 304.408257 
L 218.543331 304.310418 
L 222.827126 304.082128 
L 227.110921 304.016902 
L 228.824439 303.821224 
L 230.537957 303.723386 
L 235.250131 303.266805 
L 238.248788 302.908063 
L 239.533926 302.842837 
L 242.960962 302.386256 
L 245.531239 302.32103 
L 246.816378 302.190578 
L 248.101516 302.09274 
L 260.096142 301.146965 
L 260.952901 300.983901 
L 263.523178 300.886062 
L 270.37725 300.462094 
L 273.375907 300.364255 
L 275.089425 300.168578 
L 277.231322 300.070739 
L 279.801599 299.9729 
L 281.943497 299.875061 
L 283.657015 299.842449 
L 285.798912 299.777223 
L 286.655671 299.646771 
L 292.652984 299.548932 
L 293.509743 299.451094 
L 298.650297 299.353255 
L 302.505713 299.157577 
L 305.50437 299.059739 
L 307.217888 298.864061 
L 310.216544 298.766222 
L 311.073303 298.635771 
L 313.215201 298.570545 
L 317.498996 298.505319 
L 319.212514 298.342254 
L 320.926032 298.309642 
L 322.21117 298.211803 
L 323.924688 298.048738 
L 328.208483 297.820448 
L 332.492278 297.722609 
L 336.347694 297.526932 
L 337.632832 297.494319 
L 338.489591 297.363867 
L 340.631489 297.266028 
L 341.488248 297.200802 
L 342.345007 297.135577 
L 343.201766 297.070351 
L 347.057181 297.005125 
L 348.34232 296.907286 
L 359.908566 296.124576 
L 362.050464 296.026737 
L 364.192361 295.961512 
L 370.189674 295.863673 
L 371.046433 295.733221 
L 377.043746 295.635382 
L 381.327541 295.407092 
L 382.1843 295.374479 
L 383.041059 295.27664 
L 385.182957 295.178802 
L 387.324854 295.113576 
L 389.466752 295.015737 
L 391.608649 294.950511 
L 395.464065 294.852672 
L 398.034342 294.754834 
L 404.031655 294.656995 
L 408.74383 294.396092 
L 410.457348 294.330866 
L 411.742486 294.233027 
L 417.739799 294.135188 
L 420.310076 294.03735 
L 428.020907 293.939511 
L 429.734425 293.906898 
L 434.874979 293.841672 
L 435.731738 293.776446 
L 441.729051 293.678607 
L 443.442569 293.645995 
L 454.580436 293.548156 
L 457.150713 293.450317 
L 475.142652 293.352478 
L 477.28455 293.287252 
L 488.422417 293.222027 
L 489.279176 293.156801 
L 491.421074 293.091575 
L 492.706212 292.961123 
L 495.276489 292.863285 
L 498.275146 292.732833 
L 502.130561 292.634994 
L 504.272459 292.569768 
L 507.271115 292.47193 
L 510.698151 292.308865 
L 512.840049 292.211026 
L 514.553567 292.178413 
L 518.408982 292.080575 
L 520.1225 292.047962 
L 525.691434 291.950123 
L 527.404952 291.91751 
L 529.546849 291.819671 
L 532.117126 291.721833 
L 535.115783 291.656607 
L 535.972542 291.591381 
L 546.25365 291.493542 
L 550.537445 291.265252 
L 553.536101 291.167413 
L 558.248276 290.90651 
L 561.246932 290.808671 
L 562.96045 290.776058 
L 565.959107 290.678219 
L 568.101004 290.449929 
L 572.384799 290.35209 
L 573.241558 290.254251 
L 577.525353 290.156413 
L 579.667251 290.091187 
L 584.379426 290.058574 
L 585.236185 289.960735 
L 589.948359 289.862896 
L 590.805118 289.797671 
L 600.229467 289.699832 
L 602.799744 289.601993 
L 609.225437 289.504154 
L 610.938955 289.471541 
L 614.79437 289.406316 
L 615.651129 289.308477 
L 621.220063 289.210638 
L 623.36196 289.145412 
L 631.072791 289.047573 
L 632.35793 288.949735 
L 633.643068 288.851896 
L 634.928207 288.754057 
L 641.353899 288.656218 
L 643.924176 288.55838 
L 655.490423 288.460541 
L 659.345838 288.264863 
L 664.486392 288.167025 
L 665.343151 288.101799 
L 671.768844 288.036573 
L 672.625603 287.971347 
L 677.337777 287.873508 
L 679.051296 287.840896 
L 685.048609 287.743057 
L 687.618886 287.645218 
L 694.901337 287.547379 
L 696.614855 287.514766 
L 700.470271 287.416928 
L 703.897307 287.253863 
L 708.609481 287.156024 
L 711.608138 287.025573 
L 715.463553 286.927734 
L 716.320312 286.862508 
L 724.887902 286.764669 
L 727.0298 286.699444 
L 729.600077 286.601605 
L 732.170354 286.503766 
L 745.021739 286.405927 
L 747.163636 286.275476 
L 747.163636 286.275476 
" clip-path="url(#pfb6627b4b5)" style="fill: none; stroke: #ff7f0e; stroke-width: 1.5; stroke-linecap: square"/>
   </g>
   <g id="patch_3">
    <path d="M 108 320.4 
L 108 43.2 
" style="fill: none; stroke: #a9a9a9; stroke-width: 0.8; stroke-linejoin: miter; stroke-linecap: square"/>
   </g>
   <g id="patch_4">
    <path d="M 777.6 320.4 
L 777.6 43.2 
" style="fill: none"/>
   </g>
   <g id="patch_5">
    <path d="M 108 320.4 
L 777.6 320.4 
" style="fill: none; stroke: #a9a9a9; stroke-width: 0.8; stroke-linejoin: miter; stroke-linecap: square"/>
   </g>
   <g id="patch_6">
    <path d="M 108 43.2 
L 777.6 43.2 
" style="fill: none"/>
   </g>
   <g id="text_19">
    <!-- get_subscribe history -->
    <g style="fill: #a9a9a9" transform="translate(378.6075 37.2) scale(0.12 -0.12)">
     <defs>
      <path id="DejaVuSans-67" d="M 2906 1791 
Q 2906 2416 2648 2759 
Q 2391 3103 1925 3103 
Q 1463 3103 1205 2759 
Q 947 2416 947 1791 
Q 947 1169 1205 825 
Q 1463 481 1925 481 
Q 2391 481 2648 825 
Q 2906 1169 2906 1791 
z
M 3481 434 
Q 3481 -459 3084 -895 
Q 2688 -1331 1869 -1331 
Q 1566 -1331 1297 -1286 
Q 1028 -1241 775 -1147 
L 775 -588 
Q 1028 -725 1275 -790 
Q 1522 -856 1778 -856 
Q 2344 -856 2625 -561 
Q 2906 -266 2906 331 
L 2906 616 
Q 2728 306 2450 153 
Q 2172 0 1784 0 
Q 1141 0 747 490 
Q 353 981 353 1791 
Q 353 2603 747 3093 
Q 1141 3584 1784 3584 
Q 2172 3584 2450 3431 
Q 2728 3278 2906 2969 
L 2906 3500 
L 3481 3500 
L 3481 434 
z
" transform="scale(0.015625)"/>
      <path id="DejaVuSans-65" d="M 3597 1894 
L 3597 1613 
L 953 1613 
Q 991 1019 1311 708 
Q 1631 397 2203 397 
Q 2534 397 2845 478 
Q 3156 559 3463 722 
L 3463 178 
Q 3153 47 2828 -22 
Q 2503 -91 2169 -91 
Q 1331 -91 842 396 
Q 353 884 353 1716 
Q 353 2575 817 3079 
Q 1281 3584 2069 3584 
Q 2775 3584 3186 3129 
Q 3597 2675 3597 1894 
z
M 3022 2063 
Q 3016 2534 2758 2815 
Q 2500 3097 2075 3097 
Q 1594 3097 1305 2825 
Q 1016 2553 972 2059 
L 3022 2063 
z
" transform="scale(0.015625)"/>
      <path id="DejaVuSans-74" d="M 1172 4494 
L 1172 3500 
L 2356 3500 
L 2356 3053 
L 1172 3053 
L 1172 1153 
Q 1172 725 1289 603 
Q 1406 481 1766 481 
L 2356 481 
L 2356 0 
L 1766 0 
Q 1100 0 847 248 
Q 594 497 594 1153 
L 594 3053 
L 172 3053 
L 172 3500 
L 594 3500 
L 594 4494 
L 1172 4494 
z
" transform="scale(0.015625)"/>
      <path id="DejaVuSans-5f" d="M 3263 -1063 
L 3263 -1509 
L -63 -1509 
L -63 -1063 
L 3263 -1063 
z
" transform="scale(0.015625)"/>
      <path id="DejaVuSans-73" d="M 2834 3397 
L 2834 2853 
Q 2591 2978 2328 3040 
Q 2066 3103 1784 3103 
Q 1356 3103 1142 2972 
Q 928 2841 928 2578 
Q 928 2378 1081 2264 
Q 1234 2150 1697 2047 
L 1894 2003 
Q 2506 1872 2764 1633 
Q 3022 1394 3022 966 
Q 3022 478 2636 193 
Q 2250 -91 1575 -91 
Q 1294 -91 989 -36 
Q 684 19 347 128 
L 347 722 
Q 666 556 975 473 
Q 1284 391 1588 391 
Q 1994 391 2212 530 
Q 2431 669 2431 922 
Q 2431 1156 2273 1281 
Q 2116 1406 1581 1522 
L 1381 1569 
Q 847 1681 609 1914 
Q 372 2147 372 2553 
Q 372 3047 722 3315 
Q 1072 3584 1716 3584 
Q 2034 3584 2315 3537 
Q 2597 3491 2834 3397 
z
" transform="scale(0.015625)"/>
      <path id="DejaVuSans-75" d="M 544 1381 
L 544 3500 
L 1119 3500 
L 1119 1403 
Q 1119 906 1312 657 
Q 1506 409 1894 409 
Q 2359 409 2629 706 
Q 2900 1003 2900 1516 
L 2900 3500 
L 3475 3500 
L 3475 0 
L 2900 0 
L 2900 538 
Q 2691 219 2414 64 
Q 2138 -91 1772 -91 
Q 1169 -91 856 284 
Q 544 659 544 1381 
z
M 1991 3584 
L 1991 3584 
z
" transform="scale(0.015625)"/>
      <path id="DejaVuSans-62" d="M 3116 1747 
Q 3116 2381 2855 2742 
Q 2594 3103 2138 3103 
Q 1681 3103 1420 2742 
Q 1159 2381 1159 1747 
Q 1159 1113 1420 752 
Q 1681 391 2138 391 
Q 2594 391 2855 752 
Q 3116 1113 3116 1747 
z
M 1159 2969 
Q 1341 3281 1617 3432 
Q 1894 3584 2278 3584 
Q 2916 3584 3314 3078 
Q 3713 2572 3713 1747 
Q 3713 922 3314 415 
Q 2916 -91 2278 -91 
Q 1894 -91 1617 61 
Q 1341 213 1159 525 
L 1159 0 
L 581 0 
L 581 4863 
L 1159 4863 
L 1159 2969 
z
" transform="scale(0.015625)"/>
      <path id="DejaVuSans-63" d="M 3122 3366 
L 3122 2828 
Q 2878 2963 2633 3030 
Q 2388 3097 2138 3097 
Q 1578 3097 1268 2742 
Q 959 2388 959 1747 
Q 959 1106 1268 751 
Q 1578 397 2138 397 
Q 2388 397 2633 464 
Q 2878 531 3122 666 
L 3122 134 
Q 2881 22 2623 -34 
Q 2366 -91 2075 -91 
Q 1284 -91 818 406 
Q 353 903 353 1747 
Q 353 2603 823 3093 
Q 1294 3584 2113 3584 
Q 2378 3584 2631 3529 
Q 2884 3475 3122 3366 
z
" transform="scale(0.015625)"/>
      <path id="DejaVuSans-72" d="M 2631 2963 
Q 2534 3019 2420 3045 
Q 2306 3072 2169 3072 
Q 1681 3072 1420 2755 
Q 1159 2438 1159 1844 
L 1159 0 
L 581 0 
L 581 3500 
L 1159 3500 
L 1159 2956 
Q 1341 3275 1631 3429 
Q 1922 3584 2338 3584 
Q 2397 3584 2469 3576 
Q 2541 3569 2628 3553 
L 2631 2963 
z
" transform="scale(0.015625)"/>
      <path id="DejaVuSans-69" d="M 603 3500 
L 1178 3500 
L 1178 0 
L 603 0 
L 603 3500 
z
M 603 4863 
L 1178 4863 
L 1178 4134 
L 603 4134 
L 603 4863 
z
" transform="scale(0.015625)"/>
      <path id="DejaVuSans-20" transform="scale(0.015625)"/>
      <path id="DejaVuSans-68" d="M 3513 2113 
L 3513 0 
L 2938 0 
L 2938 2094 
Q 2938 2591 2744 2837 
Q 2550 3084 2163 3084 
Q 1697 3084 1428 2787 
Q 1159 2491 1159 1978 
L 1159 0 
L 581 0 
L 581 4863 
L 1159 4863 
L 1159 2956 
Q 1366 3272 1645 3428 
Q 1925 3584 2291 3584 
Q 2894 3584 3203 3211 
Q 3513 2838 3513 2113 
z
" transform="scale(0.015625)"/>
      <path id="DejaVuSans-6f" d="M 1959 3097 
Q 1497 3097 1228 2736 
Q 959 2375 959 1747 
Q 959 1119 1226 758 
Q 1494 397 1959 397 
Q 2419 397 2687 759 
Q 2956 1122 2956 1747 
Q 2956 2369 2687 2733 
Q 2419 3097 1959 3097 
z
M 1959 3584 
Q 2709 3584 3137 3096 
Q 3566 2609 3566 1747 
Q 3566 888 3137 398 
Q 2709 -91 1959 -91 
Q 1206 -91 779 398 
Q 353 888 353 1747 
Q 353 2609 779 3096 
Q 1206 3584 1959 3584 
z
" transform="scale(0.015625)"/>
      <path id="DejaVuSans-79" d="M 2059 -325 
Q 1816 -950 1584 -1140 
Q 1353 -1331 966 -1331 
L 506 -1331 
L 506 -850 
L 844 -850 
Q 1081 -850 1212 -737 
Q 1344 -625 1503 -206 
L 1606 56 
L 191 3500 
L 800 3500 
L 1894 763 
L 2988 3500 
L 3597 3500 
L 2059 -325 
z
" transform="scale(0.015625)"/>
     </defs>
     <use xlink:href="#DejaVuSans-67"/>
     <use xlink:href="#DejaVuSans-65" transform="translate(63.476562 0)"/>
     <use xlink:href="#DejaVuSans-74" transform="translate(125 0)"/>
     <use xlink:href="#DejaVuSans-5f" transform="translate(164.208984 0)"/>
     <use xlink:href="#DejaVuSans-73" transform="translate(214.208984 0)"/>
     <use xlink:href="#DejaVuSans-75" transform="translate(266.308594 0)"/>
     <use xlink:href="#DejaVuSans-62" transform="translate(329.6875 0)"/>
     <use xlink:href="#DejaVuSans-73" transform="translate(393.164062 0)"/>
     <use xlink:href="#DejaVuSans-63" transform="translate(445.263672 0)"/>
     <use xlink:href="#DejaVuSans-72" transform="translate(500.244141 0)"/>
     <use xlink:href="#DejaVuSans-69" transform="translate(541.357422 0)"/>
     <use xlink:href="#DejaVuSans-62" transform="translate(569.140625 0)"/>
     <use xlink:href="#DejaVuSans-65" transform="translate(632.617188 0)"/>
     <use xlink:href="#DejaVuSans-20" transform="translate(694.140625 0)"/>
     <use xlink:href="#DejaVuSans-68" transform="translate(725.927734 0)"/>
     <use xlink:href="#DejaVuSans-69" transform="translate(789.306641 0)"/>
     <use xlink:href="#DejaVuSans-73" transform="translate(817.089844 0)"/>
     <use xlink:href="#DejaVuSans-74" transform="translate(869.189453 0)"/>
     <use xlink:href="#DejaVuSans-6f" transform="translate(908.398438 0)"/>
     <use xlink:href="#DejaVuSans-72" transform="translate(969.580078 0)"/>
     <use xlink:href="#DejaVuSans-79" transform="translate(1010.693359 0)"/>
    </g>
   </g>
   <g id="legend_1">
    <g id="line2d_39">
     <path d="M 815.08 328.498438 
L 825.08 328.498438 
L 835.08 328.498438 
" style="fill: none; stroke: #1f77b4; stroke-width: 1.5; stroke-linecap: square"/>
    </g>
    <g id="text_20">
     <!-- star -->
     <g style="fill: #a9a9a9" transform="translate(843.08 331.998438) scale(0.1 -0.1)">
      <defs>
       <path id="DejaVuSans-61" d="M 2194 1759 
Q 1497 1759 1228 1600 
Q 959 1441 959 1056 
Q 959 750 1161 570 
Q 1363 391 1709 391 
Q 2188 391 2477 730 
Q 2766 1069 2766 1631 
L 2766 1759 
L 2194 1759 
z
M 3341 1997 
L 3341 0 
L 2766 0 
L 2766 531 
Q 2569 213 2275 61 
Q 1981 -91 1556 -91 
Q 1019 -91 701 211 
Q 384 513 384 1019 
Q 384 1609 779 1909 
Q 1175 2209 1959 2209 
L 2766 2209 
L 2766 2266 
Q 2766 2663 2505 2880 
Q 2244 3097 1772 3097 
Q 1472 3097 1187 3025 
Q 903 2953 641 2809 
L 641 3341 
Q 956 3463 1253 3523 
Q 1550 3584 1831 3584 
Q 2591 3584 2966 3190 
Q 3341 2797 3341 1997 
z
" transform="scale(0.015625)"/>
      </defs>
      <use xlink:href="#DejaVuSans-73"/>
      <use xlink:href="#DejaVuSans-74" transform="translate(52.099609 0)"/>
      <use xlink:href="#DejaVuSans-61" transform="translate(91.308594 0)"/>
      <use xlink:href="#DejaVuSans-72" transform="translate(152.587891 0)"/>
     </g>
    </g>
    <g id="line2d_40">
     <path d="M 815.08 343.176562 
L 825.08 343.176562 
L 835.08 343.176562 
" style="fill: none; stroke: #ff7f0e; stroke-width: 1.5; stroke-linecap: square"/>
    </g>
    <g id="text_21">
     <!-- fork -->
     <g style="fill: #a9a9a9" transform="translate(843.08 346.676562) scale(0.1 -0.1)">
      <defs>
       <path id="DejaVuSans-66" d="M 2375 4863 
L 2375 4384 
L 1825 4384 
Q 1516 4384 1395 4259 
Q 1275 4134 1275 3809 
L 1275 3500 
L 2222 3500 
L 2222 3053 
L 1275 3053 
L 1275 0 
L 697 0 
L 697 3053 
L 147 3053 
L 147 3500 
L 697 3500 
L 697 3744 
Q 697 4328 969 4595 
Q 1241 4863 1831 4863 
L 2375 4863 
z
" transform="scale(0.015625)"/>
       <path id="DejaVuSans-6b" d="M 581 4863 
L 1159 4863 
L 1159 1991 
L 2875 3500 
L 3609 3500 
L 1753 1863 
L 3688 0 
L 2938 0 
L 1159 1709 
L 1159 0 
L 581 0 
L 581 4863 
z
" transform="scale(0.015625)"/>
      </defs>
      <use xlink:href="#DejaVuSans-66"/>
      <use xlink:href="#DejaVuSans-6f" transform="translate(35.205078 0)"/>
      <use xlink:href="#DejaVuSans-72" transform="translate(96.386719 0)"/>
      <use xlink:href="#DejaVuSans-6b" transform="translate(137.5 0)"/>
     </g>
    </g>
   </g>
  </g>
 </g>
 <defs>
  <clipPath id="pfb6627b4b5">
   <rect x="108" y="43.2" width="669.6" height="277.2"/>
  </clipPath>
 </defs>
</svg>
