<?xml version="1.0" encoding="utf-8" standalone="no"?>
<!DOCTYPE svg PUBLIC "-//W3C//DTD SVG 1.1//EN"
  "http://www.w3.org/Graphics/SVG/1.1/DTD/svg11.dtd">
<svg xmlns:xlink="http://www.w3.org/1999/xlink" width="864pt" height="360pt" viewBox="0 0 864 360" xmlns="http://www.w3.org/2000/svg" version="1.1">
 <metadata>
  <rdf:RDF xmlns:dc="http://purl.org/dc/elements/1.1/" xmlns:cc="http://creativecommons.org/ns#" xmlns:rdf="http://www.w3.org/1999/02/22-rdf-syntax-ns#">
   <cc:Work>
    <dc:type rdf:resource="http://purl.org/dc/dcmitype/StillImage"/>
    <dc:date>2024-12-04T08:15:18.511010</dc:date>
    <dc:format>image/svg+xml</dc:format>
    <dc:creator>
     <cc:Agent>
      <dc:title>Matplotlib v3.9.3, https://matplotlib.org/</dc:title>
     </cc:Agent>
    </dc:creator>
   </cc:Work>
  </rdf:RDF>
 </metadata>
 <defs>
  <style type="text/css">*{stroke-linejoin: round; stroke-linecap: butt}</style>
 </defs>
 <g id="figure_1">
  <g id="patch_1">
   <path d="M 0 360 
L 864 360 
L 864 0 
L 0 0 
L 0 360 
z
" style="fill: none; opacity: 0"/>
  </g>
  <g id="axes_1">
   <g id="patch_2">
    <path d="M 108 320.4 
L 777.6 320.4 
L 777.6 43.2 
L 108 43.2 
L 108 320.4 
z
" style="fill: none; opacity: 0"/>
   </g>
   <g id="matplotlib.axis_1">
    <g id="xtick_1">
     <g id="line2d_1">
      <path d="M 157.753177 320.4 
L 157.753177 43.2 
" clip-path="url(#p29414abc86)" style="fill: none; stroke-dasharray: 5.12,1.28,0.8,1.28; stroke-dashoffset: 0; stroke: #b0b0b0; stroke-width: 0.8"/>
     </g>
     <g id="line2d_2">
      <defs>
       <path id="mab51432f92" d="M 0 0 
L 0 3.5 
" style="stroke: #a9a9a9; stroke-width: 0.8"/>
      </defs>
      <g>
       <use xlink:href="#mab51432f92" x="157.753177" y="320.4" style="fill: #a9a9a9; stroke: #a9a9a9; stroke-width: 0.8"/>
      </g>
     </g>
     <g id="text_1">
      <!-- 2021-09 -->
      <g style="fill: #a9a9a9" transform="translate(136.861771 334.998438) scale(0.1 -0.1)">
       <defs>
        <path id="DejaVuSans-32" d="M 1228 531 
L 3431 531 
L 3431 0 
L 469 0 
L 469 531 
Q 828 903 1448 1529 
Q 2069 2156 2228 2338 
Q 2531 2678 2651 2914 
Q 2772 3150 2772 3378 
Q 2772 3750 2511 3984 
Q 2250 4219 1831 4219 
Q 1534 4219 1204 4116 
Q 875 4013 500 3803 
L 500 4441 
Q 881 4594 1212 4672 
Q 1544 4750 1819 4750 
Q 2544 4750 2975 4387 
Q 3406 4025 3406 3419 
Q 3406 3131 3298 2873 
Q 3191 2616 2906 2266 
Q 2828 2175 2409 1742 
Q 1991 1309 1228 531 
z
" transform="scale(0.015625)"/>
        <path id="DejaVuSans-30" d="M 2034 4250 
Q 1547 4250 1301 3770 
Q 1056 3291 1056 2328 
Q 1056 1369 1301 889 
Q 1547 409 2034 409 
Q 2525 409 2770 889 
Q 3016 1369 3016 2328 
Q 3016 3291 2770 3770 
Q 2525 4250 2034 4250 
z
M 2034 4750 
Q 2819 4750 3233 4129 
Q 3647 3509 3647 2328 
Q 3647 1150 3233 529 
Q 2819 -91 2034 -91 
Q 1250 -91 836 529 
Q 422 1150 422 2328 
Q 422 3509 836 4129 
Q 1250 4750 2034 4750 
z
" transform="scale(0.015625)"/>
        <path id="DejaVuSans-31" d="M 794 531 
L 1825 531 
L 1825 4091 
L 703 3866 
L 703 4441 
L 1819 4666 
L 2450 4666 
L 2450 531 
L 3481 531 
L 3481 0 
L 794 0 
L 794 531 
z
" transform="scale(0.015625)"/>
        <path id="DejaVuSans-2d" d="M 313 2009 
L 1997 2009 
L 1997 1497 
L 313 1497 
L 313 2009 
z
" transform="scale(0.015625)"/>
        <path id="DejaVuSans-39" d="M 703 97 
L 703 672 
Q 941 559 1184 500 
Q 1428 441 1663 441 
Q 2288 441 2617 861 
Q 2947 1281 2994 2138 
Q 2813 1869 2534 1725 
Q 2256 1581 1919 1581 
Q 1219 1581 811 2004 
Q 403 2428 403 3163 
Q 403 3881 828 4315 
Q 1253 4750 1959 4750 
Q 2769 4750 3195 4129 
Q 3622 3509 3622 2328 
Q 3622 1225 3098 567 
Q 2575 -91 1691 -91 
Q 1453 -91 1209 -44 
Q 966 3 703 97 
z
M 1959 2075 
Q 2384 2075 2632 2365 
Q 2881 2656 2881 3163 
Q 2881 3666 2632 3958 
Q 2384 4250 1959 4250 
Q 1534 4250 1286 3958 
Q 1038 3666 1038 3163 
Q 1038 2656 1286 2365 
Q 1534 2075 1959 2075 
z
" transform="scale(0.015625)"/>
       </defs>
       <use xlink:href="#DejaVuSans-32"/>
       <use xlink:href="#DejaVuSans-30" x="63.623047"/>
       <use xlink:href="#DejaVuSans-32" x="127.246094"/>
       <use xlink:href="#DejaVuSans-31" x="190.869141"/>
       <use xlink:href="#DejaVuSans-2d" x="254.492188"/>
       <use xlink:href="#DejaVuSans-30" x="290.576172"/>
       <use xlink:href="#DejaVuSans-39" x="354.199219"/>
      </g>
     </g>
    </g>
    <g id="xtick_2">
     <g id="line2d_3">
      <path d="M 218.180132 320.4 
L 218.180132 43.2 
" clip-path="url(#p29414abc86)" style="fill: none; stroke-dasharray: 5.12,1.28,0.8,1.28; stroke-dashoffset: 0; stroke: #b0b0b0; stroke-width: 0.8"/>
     </g>
     <g id="line2d_4">
      <g>
       <use xlink:href="#mab51432f92" x="218.180132" y="320.4" style="fill: #a9a9a9; stroke: #a9a9a9; stroke-width: 0.8"/>
      </g>
     </g>
     <g id="text_2">
      <!-- 2022-01 -->
      <g style="fill: #a9a9a9" transform="translate(197.288725 334.998438) scale(0.1 -0.1)">
       <use xlink:href="#DejaVuSans-32"/>
       <use xlink:href="#DejaVuSans-30" x="63.623047"/>
       <use xlink:href="#DejaVuSans-32" x="127.246094"/>
       <use xlink:href="#DejaVuSans-32" x="190.869141"/>
       <use xlink:href="#DejaVuSans-2d" x="254.492188"/>
       <use xlink:href="#DejaVuSans-30" x="290.576172"/>
       <use xlink:href="#DejaVuSans-31" x="354.199219"/>
      </g>
     </g>
    </g>
    <g id="xtick_3">
     <g id="line2d_5">
      <path d="M 277.616481 320.4 
L 277.616481 43.2 
" clip-path="url(#p29414abc86)" style="fill: none; stroke-dasharray: 5.12,1.28,0.8,1.28; stroke-dashoffset: 0; stroke: #b0b0b0; stroke-width: 0.8"/>
     </g>
     <g id="line2d_6">
      <g>
       <use xlink:href="#mab51432f92" x="277.616481" y="320.4" style="fill: #a9a9a9; stroke: #a9a9a9; stroke-width: 0.8"/>
      </g>
     </g>
     <g id="text_3">
      <!-- 2022-05 -->
      <g style="fill: #a9a9a9" transform="translate(256.725074 334.998438) scale(0.1 -0.1)">
       <defs>
        <path id="DejaVuSans-35" d="M 691 4666 
L 3169 4666 
L 3169 4134 
L 1269 4134 
L 1269 2991 
Q 1406 3038 1543 3061 
Q 1681 3084 1819 3084 
Q 2600 3084 3056 2656 
Q 3513 2228 3513 1497 
Q 3513 744 3044 326 
Q 2575 -91 1722 -91 
Q 1428 -91 1123 -41 
Q 819 9 494 109 
L 494 744 
Q 775 591 1075 516 
Q 1375 441 1709 441 
Q 2250 441 2565 725 
Q 2881 1009 2881 1497 
Q 2881 1984 2565 2268 
Q 2250 2553 1709 2553 
Q 1456 2553 1204 2497 
Q 953 2441 691 2322 
L 691 4666 
z
" transform="scale(0.015625)"/>
       </defs>
       <use xlink:href="#DejaVuSans-32"/>
       <use xlink:href="#DejaVuSans-30" x="63.623047"/>
       <use xlink:href="#DejaVuSans-32" x="127.246094"/>
       <use xlink:href="#DejaVuSans-32" x="190.869141"/>
       <use xlink:href="#DejaVuSans-2d" x="254.492188"/>
       <use xlink:href="#DejaVuSans-30" x="290.576172"/>
       <use xlink:href="#DejaVuSans-35" x="354.199219"/>
      </g>
     </g>
    </g>
    <g id="xtick_4">
     <g id="line2d_7">
      <path d="M 338.538738 320.4 
L 338.538738 43.2 
" clip-path="url(#p29414abc86)" style="fill: none; stroke-dasharray: 5.12,1.28,0.8,1.28; stroke-dashoffset: 0; stroke: #b0b0b0; stroke-width: 0.8"/>
     </g>
     <g id="line2d_8">
      <g>
       <use xlink:href="#mab51432f92" x="338.538738" y="320.4" style="fill: #a9a9a9; stroke: #a9a9a9; stroke-width: 0.8"/>
      </g>
     </g>
     <g id="text_4">
      <!-- 2022-09 -->
      <g style="fill: #a9a9a9" transform="translate(317.647332 334.998438) scale(0.1 -0.1)">
       <use xlink:href="#DejaVuSans-32"/>
       <use xlink:href="#DejaVuSans-30" x="63.623047"/>
       <use xlink:href="#DejaVuSans-32" x="127.246094"/>
       <use xlink:href="#DejaVuSans-32" x="190.869141"/>
       <use xlink:href="#DejaVuSans-2d" x="254.492188"/>
       <use xlink:href="#DejaVuSans-30" x="290.576172"/>
       <use xlink:href="#DejaVuSans-39" x="354.199219"/>
      </g>
     </g>
    </g>
    <g id="xtick_5">
     <g id="line2d_9">
      <path d="M 398.965693 320.4 
L 398.965693 43.2 
" clip-path="url(#p29414abc86)" style="fill: none; stroke-dasharray: 5.12,1.28,0.8,1.28; stroke-dashoffset: 0; stroke: #b0b0b0; stroke-width: 0.8"/>
     </g>
     <g id="line2d_10">
      <g>
       <use xlink:href="#mab51432f92" x="398.965693" y="320.4" style="fill: #a9a9a9; stroke: #a9a9a9; stroke-width: 0.8"/>
      </g>
     </g>
     <g id="text_5">
      <!-- 2023-01 -->
      <g style="fill: #a9a9a9" transform="translate(378.074286 334.998438) scale(0.1 -0.1)">
       <defs>
        <path id="DejaVuSans-33" d="M 2597 2516 
Q 3050 2419 3304 2112 
Q 3559 1806 3559 1356 
Q 3559 666 3084 287 
Q 2609 -91 1734 -91 
Q 1441 -91 1130 -33 
Q 819 25 488 141 
L 488 750 
Q 750 597 1062 519 
Q 1375 441 1716 441 
Q 2309 441 2620 675 
Q 2931 909 2931 1356 
Q 2931 1769 2642 2001 
Q 2353 2234 1838 2234 
L 1294 2234 
L 1294 2753 
L 1863 2753 
Q 2328 2753 2575 2939 
Q 2822 3125 2822 3475 
Q 2822 3834 2567 4026 
Q 2313 4219 1838 4219 
Q 1578 4219 1281 4162 
Q 984 4106 628 3988 
L 628 4550 
Q 988 4650 1302 4700 
Q 1616 4750 1894 4750 
Q 2613 4750 3031 4423 
Q 3450 4097 3450 3541 
Q 3450 3153 3228 2886 
Q 3006 2619 2597 2516 
z
" transform="scale(0.015625)"/>
       </defs>
       <use xlink:href="#DejaVuSans-32"/>
       <use xlink:href="#DejaVuSans-30" x="63.623047"/>
       <use xlink:href="#DejaVuSans-32" x="127.246094"/>
       <use xlink:href="#DejaVuSans-33" x="190.869141"/>
       <use xlink:href="#DejaVuSans-2d" x="254.492188"/>
       <use xlink:href="#DejaVuSans-30" x="290.576172"/>
       <use xlink:href="#DejaVuSans-31" x="354.199219"/>
      </g>
     </g>
    </g>
    <g id="xtick_6">
     <g id="line2d_11">
      <path d="M 458.402042 320.4 
L 458.402042 43.2 
" clip-path="url(#p29414abc86)" style="fill: none; stroke-dasharray: 5.12,1.28,0.8,1.28; stroke-dashoffset: 0; stroke: #b0b0b0; stroke-width: 0.8"/>
     </g>
     <g id="line2d_12">
      <g>
       <use xlink:href="#mab51432f92" x="458.402042" y="320.4" style="fill: #a9a9a9; stroke: #a9a9a9; stroke-width: 0.8"/>
      </g>
     </g>
     <g id="text_6">
      <!-- 2023-05 -->
      <g style="fill: #a9a9a9" transform="translate(437.510635 334.998438) scale(0.1 -0.1)">
       <use xlink:href="#DejaVuSans-32"/>
       <use xlink:href="#DejaVuSans-30" x="63.623047"/>
       <use xlink:href="#DejaVuSans-32" x="127.246094"/>
       <use xlink:href="#DejaVuSans-33" x="190.869141"/>
       <use xlink:href="#DejaVuSans-2d" x="254.492188"/>
       <use xlink:href="#DejaVuSans-30" x="290.576172"/>
       <use xlink:href="#DejaVuSans-35" x="354.199219"/>
      </g>
     </g>
    </g>
    <g id="xtick_7">
     <g id="line2d_13">
      <path d="M 519.324299 320.4 
L 519.324299 43.2 
" clip-path="url(#p29414abc86)" style="fill: none; stroke-dasharray: 5.12,1.28,0.8,1.28; stroke-dashoffset: 0; stroke: #b0b0b0; stroke-width: 0.8"/>
     </g>
     <g id="line2d_14">
      <g>
       <use xlink:href="#mab51432f92" x="519.324299" y="320.4" style="fill: #a9a9a9; stroke: #a9a9a9; stroke-width: 0.8"/>
      </g>
     </g>
     <g id="text_7">
      <!-- 2023-09 -->
      <g style="fill: #a9a9a9" transform="translate(498.432893 334.998438) scale(0.1 -0.1)">
       <use xlink:href="#DejaVuSans-32"/>
       <use xlink:href="#DejaVuSans-30" x="63.623047"/>
       <use xlink:href="#DejaVuSans-32" x="127.246094"/>
       <use xlink:href="#DejaVuSans-33" x="190.869141"/>
       <use xlink:href="#DejaVuSans-2d" x="254.492188"/>
       <use xlink:href="#DejaVuSans-30" x="290.576172"/>
       <use xlink:href="#DejaVuSans-39" x="354.199219"/>
      </g>
     </g>
    </g>
    <g id="xtick_8">
     <g id="line2d_15">
      <path d="M 579.751254 320.4 
L 579.751254 43.2 
" clip-path="url(#p29414abc86)" style="fill: none; stroke-dasharray: 5.12,1.28,0.8,1.28; stroke-dashoffset: 0; stroke: #b0b0b0; stroke-width: 0.8"/>
     </g>
     <g id="line2d_16">
      <g>
       <use xlink:href="#mab51432f92" x="579.751254" y="320.4" style="fill: #a9a9a9; stroke: #a9a9a9; stroke-width: 0.8"/>
      </g>
     </g>
     <g id="text_8">
      <!-- 2024-01 -->
      <g style="fill: #a9a9a9" transform="translate(558.859848 334.998438) scale(0.1 -0.1)">
       <defs>
        <path id="DejaVuSans-34" d="M 2419 4116 
L 825 1625 
L 2419 1625 
L 2419 4116 
z
M 2253 4666 
L 3047 4666 
L 3047 1625 
L 3713 1625 
L 3713 1100 
L 3047 1100 
L 3047 0 
L 2419 0 
L 2419 1100 
L 313 1100 
L 313 1709 
L 2253 4666 
z
" transform="scale(0.015625)"/>
       </defs>
       <use xlink:href="#DejaVuSans-32"/>
       <use xlink:href="#DejaVuSans-30" x="63.623047"/>
       <use xlink:href="#DejaVuSans-32" x="127.246094"/>
       <use xlink:href="#DejaVuSans-34" x="190.869141"/>
       <use xlink:href="#DejaVuSans-2d" x="254.492188"/>
       <use xlink:href="#DejaVuSans-30" x="290.576172"/>
       <use xlink:href="#DejaVuSans-31" x="354.199219"/>
      </g>
     </g>
    </g>
    <g id="xtick_9">
     <g id="line2d_17">
      <path d="M 639.682906 320.4 
L 639.682906 43.2 
" clip-path="url(#p29414abc86)" style="fill: none; stroke-dasharray: 5.12,1.28,0.8,1.28; stroke-dashoffset: 0; stroke: #b0b0b0; stroke-width: 0.8"/>
     </g>
     <g id="line2d_18">
      <g>
       <use xlink:href="#mab51432f92" x="639.682906" y="320.4" style="fill: #a9a9a9; stroke: #a9a9a9; stroke-width: 0.8"/>
      </g>
     </g>
     <g id="text_9">
      <!-- 2024-05 -->
      <g style="fill: #a9a9a9" transform="translate(618.791499 334.998438) scale(0.1 -0.1)">
       <use xlink:href="#DejaVuSans-32"/>
       <use xlink:href="#DejaVuSans-30" x="63.623047"/>
       <use xlink:href="#DejaVuSans-32" x="127.246094"/>
       <use xlink:href="#DejaVuSans-34" x="190.869141"/>
       <use xlink:href="#DejaVuSans-2d" x="254.492188"/>
       <use xlink:href="#DejaVuSans-30" x="290.576172"/>
       <use xlink:href="#DejaVuSans-35" x="354.199219"/>
      </g>
     </g>
    </g>
    <g id="xtick_10">
     <g id="line2d_19">
      <path d="M 700.605163 320.4 
L 700.605163 43.2 
" clip-path="url(#p29414abc86)" style="fill: none; stroke-dasharray: 5.12,1.28,0.8,1.28; stroke-dashoffset: 0; stroke: #b0b0b0; stroke-width: 0.8"/>
     </g>
     <g id="line2d_20">
      <g>
       <use xlink:href="#mab51432f92" x="700.605163" y="320.4" style="fill: #a9a9a9; stroke: #a9a9a9; stroke-width: 0.8"/>
      </g>
     </g>
     <g id="text_10">
      <!-- 2024-09 -->
      <g style="fill: #a9a9a9" transform="translate(679.713757 334.998438) scale(0.1 -0.1)">
       <use xlink:href="#DejaVuSans-32"/>
       <use xlink:href="#DejaVuSans-30" x="63.623047"/>
       <use xlink:href="#DejaVuSans-32" x="127.246094"/>
       <use xlink:href="#DejaVuSans-34" x="190.869141"/>
       <use xlink:href="#DejaVuSans-2d" x="254.492188"/>
       <use xlink:href="#DejaVuSans-30" x="290.576172"/>
       <use xlink:href="#DejaVuSans-39" x="354.199219"/>
      </g>
     </g>
    </g>
    <g id="xtick_11">
     <g id="line2d_21">
      <path d="M 761.032118 320.4 
L 761.032118 43.2 
" clip-path="url(#p29414abc86)" style="fill: none; stroke-dasharray: 5.12,1.28,0.8,1.28; stroke-dashoffset: 0; stroke: #b0b0b0; stroke-width: 0.8"/>
     </g>
     <g id="line2d_22">
      <g>
       <use xlink:href="#mab51432f92" x="761.032118" y="320.4" style="fill: #a9a9a9; stroke: #a9a9a9; stroke-width: 0.8"/>
      </g>
     </g>
     <g id="text_11">
      <!-- 2025-01 -->
      <g style="fill: #a9a9a9" transform="translate(740.140712 334.998438) scale(0.1 -0.1)">
       <use xlink:href="#DejaVuSans-32"/>
       <use xlink:href="#DejaVuSans-30" x="63.623047"/>
       <use xlink:href="#DejaVuSans-32" x="127.246094"/>
       <use xlink:href="#DejaVuSans-35" x="190.869141"/>
       <use xlink:href="#DejaVuSans-2d" x="254.492188"/>
       <use xlink:href="#DejaVuSans-30" x="290.576172"/>
       <use xlink:href="#DejaVuSans-31" x="354.199219"/>
      </g>
     </g>
    </g>
   </g>
   <g id="matplotlib.axis_2">
    <g id="ytick_1">
     <g id="line2d_23">
      <path d="M 108 307.835816 
L 777.6 307.835816 
" clip-path="url(#p29414abc86)" style="fill: none; stroke-dasharray: 5.12,1.28,0.8,1.28; stroke-dashoffset: 0; stroke: #b0b0b0; stroke-width: 0.8"/>
     </g>
     <g id="line2d_24">
      <defs>
       <path id="m211efb7dcd" d="M 0 0 
L -3.5 0 
" style="stroke: #a9a9a9; stroke-width: 0.8"/>
      </defs>
      <g>
       <use xlink:href="#m211efb7dcd" x="108" y="307.835816" style="fill: #a9a9a9; stroke: #a9a9a9; stroke-width: 0.8"/>
      </g>
     </g>
     <g id="text_12">
      <!-- 0 -->
      <g style="fill: #a9a9a9" transform="translate(94.6375 311.635035) scale(0.1 -0.1)">
       <use xlink:href="#DejaVuSans-30"/>
      </g>
     </g>
    </g>
    <g id="ytick_2">
     <g id="line2d_25">
      <path d="M 108 279.183172 
L 777.6 279.183172 
" clip-path="url(#p29414abc86)" style="fill: none; stroke-dasharray: 5.12,1.28,0.8,1.28; stroke-dashoffset: 0; stroke: #b0b0b0; stroke-width: 0.8"/>
     </g>
     <g id="line2d_26">
      <g>
       <use xlink:href="#m211efb7dcd" x="108" y="279.183172" style="fill: #a9a9a9; stroke: #a9a9a9; stroke-width: 0.8"/>
      </g>
     </g>
     <g id="text_13">
      <!-- 800 -->
      <g style="fill: #a9a9a9" transform="translate(81.9125 282.982391) scale(0.1 -0.1)">
       <defs>
        <path id="DejaVuSans-38" d="M 2034 2216 
Q 1584 2216 1326 1975 
Q 1069 1734 1069 1313 
Q 1069 891 1326 650 
Q 1584 409 2034 409 
Q 2484 409 2743 651 
Q 3003 894 3003 1313 
Q 3003 1734 2745 1975 
Q 2488 2216 2034 2216 
z
M 1403 2484 
Q 997 2584 770 2862 
Q 544 3141 544 3541 
Q 544 4100 942 4425 
Q 1341 4750 2034 4750 
Q 2731 4750 3128 4425 
Q 3525 4100 3525 3541 
Q 3525 3141 3298 2862 
Q 3072 2584 2669 2484 
Q 3125 2378 3379 2068 
Q 3634 1759 3634 1313 
Q 3634 634 3220 271 
Q 2806 -91 2034 -91 
Q 1263 -91 848 271 
Q 434 634 434 1313 
Q 434 1759 690 2068 
Q 947 2378 1403 2484 
z
M 1172 3481 
Q 1172 3119 1398 2916 
Q 1625 2713 2034 2713 
Q 2441 2713 2670 2916 
Q 2900 3119 2900 3481 
Q 2900 3844 2670 4047 
Q 2441 4250 2034 4250 
Q 1625 4250 1398 4047 
Q 1172 3844 1172 3481 
z
" transform="scale(0.015625)"/>
       </defs>
       <use xlink:href="#DejaVuSans-38"/>
       <use xlink:href="#DejaVuSans-30" x="63.623047"/>
       <use xlink:href="#DejaVuSans-30" x="127.246094"/>
      </g>
     </g>
    </g>
    <g id="ytick_3">
     <g id="line2d_27">
      <path d="M 108 250.530529 
L 777.6 250.530529 
" clip-path="url(#p29414abc86)" style="fill: none; stroke-dasharray: 5.12,1.28,0.8,1.28; stroke-dashoffset: 0; stroke: #b0b0b0; stroke-width: 0.8"/>
     </g>
     <g id="line2d_28">
      <g>
       <use xlink:href="#m211efb7dcd" x="108" y="250.530529" style="fill: #a9a9a9; stroke: #a9a9a9; stroke-width: 0.8"/>
      </g>
     </g>
     <g id="text_14">
      <!-- 1600 -->
      <g style="fill: #a9a9a9" transform="translate(75.55 254.329747) scale(0.1 -0.1)">
       <defs>
        <path id="DejaVuSans-36" d="M 2113 2584 
Q 1688 2584 1439 2293 
Q 1191 2003 1191 1497 
Q 1191 994 1439 701 
Q 1688 409 2113 409 
Q 2538 409 2786 701 
Q 3034 994 3034 1497 
Q 3034 2003 2786 2293 
Q 2538 2584 2113 2584 
z
M 3366 4563 
L 3366 3988 
Q 3128 4100 2886 4159 
Q 2644 4219 2406 4219 
Q 1781 4219 1451 3797 
Q 1122 3375 1075 2522 
Q 1259 2794 1537 2939 
Q 1816 3084 2150 3084 
Q 2853 3084 3261 2657 
Q 3669 2231 3669 1497 
Q 3669 778 3244 343 
Q 2819 -91 2113 -91 
Q 1303 -91 875 529 
Q 447 1150 447 2328 
Q 447 3434 972 4092 
Q 1497 4750 2381 4750 
Q 2619 4750 2861 4703 
Q 3103 4656 3366 4563 
z
" transform="scale(0.015625)"/>
       </defs>
       <use xlink:href="#DejaVuSans-31"/>
       <use xlink:href="#DejaVuSans-36" x="63.623047"/>
       <use xlink:href="#DejaVuSans-30" x="127.246094"/>
       <use xlink:href="#DejaVuSans-30" x="190.869141"/>
      </g>
     </g>
    </g>
    <g id="ytick_4">
     <g id="line2d_29">
      <path d="M 108 221.877885 
L 777.6 221.877885 
" clip-path="url(#p29414abc86)" style="fill: none; stroke-dasharray: 5.12,1.28,0.8,1.28; stroke-dashoffset: 0; stroke: #b0b0b0; stroke-width: 0.8"/>
     </g>
     <g id="line2d_30">
      <g>
       <use xlink:href="#m211efb7dcd" x="108" y="221.877885" style="fill: #a9a9a9; stroke: #a9a9a9; stroke-width: 0.8"/>
      </g>
     </g>
     <g id="text_15">
      <!-- 2400 -->
      <g style="fill: #a9a9a9" transform="translate(75.55 225.677104) scale(0.1 -0.1)">
       <use xlink:href="#DejaVuSans-32"/>
       <use xlink:href="#DejaVuSans-34" x="63.623047"/>
       <use xlink:href="#DejaVuSans-30" x="127.246094"/>
       <use xlink:href="#DejaVuSans-30" x="190.869141"/>
      </g>
     </g>
    </g>
    <g id="ytick_5">
     <g id="line2d_31">
      <path d="M 108 193.225242 
L 777.6 193.225242 
" clip-path="url(#p29414abc86)" style="fill: none; stroke-dasharray: 5.12,1.28,0.8,1.28; stroke-dashoffset: 0; stroke: #b0b0b0; stroke-width: 0.8"/>
     </g>
     <g id="line2d_32">
      <g>
       <use xlink:href="#m211efb7dcd" x="108" y="193.225242" style="fill: #a9a9a9; stroke: #a9a9a9; stroke-width: 0.8"/>
      </g>
     </g>
     <g id="text_16">
      <!-- 3200 -->
      <g style="fill: #a9a9a9" transform="translate(75.55 197.02446) scale(0.1 -0.1)">
       <use xlink:href="#DejaVuSans-33"/>
       <use xlink:href="#DejaVuSans-32" x="63.623047"/>
       <use xlink:href="#DejaVuSans-30" x="127.246094"/>
       <use xlink:href="#DejaVuSans-30" x="190.869141"/>
      </g>
     </g>
    </g>
    <g id="ytick_6">
     <g id="line2d_33">
      <path d="M 108 164.572598 
L 777.6 164.572598 
" clip-path="url(#p29414abc86)" style="fill: none; stroke-dasharray: 5.12,1.28,0.8,1.28; stroke-dashoffset: 0; stroke: #b0b0b0; stroke-width: 0.8"/>
     </g>
     <g id="line2d_34">
      <g>
       <use xlink:href="#m211efb7dcd" x="108" y="164.572598" style="fill: #a9a9a9; stroke: #a9a9a9; stroke-width: 0.8"/>
      </g>
     </g>
     <g id="text_17">
      <!-- 4000 -->
      <g style="fill: #a9a9a9" transform="translate(75.55 168.371817) scale(0.1 -0.1)">
       <use xlink:href="#DejaVuSans-34"/>
       <use xlink:href="#DejaVuSans-30" x="63.623047"/>
       <use xlink:href="#DejaVuSans-30" x="127.246094"/>
       <use xlink:href="#DejaVuSans-30" x="190.869141"/>
      </g>
     </g>
    </g>
    <g id="ytick_7">
     <g id="line2d_35">
      <path d="M 108 135.919955 
L 777.6 135.919955 
" clip-path="url(#p29414abc86)" style="fill: none; stroke-dasharray: 5.12,1.28,0.8,1.28; stroke-dashoffset: 0; stroke: #b0b0b0; stroke-width: 0.8"/>
     </g>
     <g id="line2d_36">
      <g>
       <use xlink:href="#m211efb7dcd" x="108" y="135.919955" style="fill: #a9a9a9; stroke: #a9a9a9; stroke-width: 0.8"/>
      </g>
     </g>
     <g id="text_18">
      <!-- 4800 -->
      <g style="fill: #a9a9a9" transform="translate(75.55 139.719173) scale(0.1 -0.1)">
       <use xlink:href="#DejaVuSans-34"/>
       <use xlink:href="#DejaVuSans-38" x="63.623047"/>
       <use xlink:href="#DejaVuSans-30" x="127.246094"/>
       <use xlink:href="#DejaVuSans-30" x="190.869141"/>
      </g>
     </g>
    </g>
    <g id="ytick_8">
     <g id="line2d_37">
      <path d="M 108 107.267311 
L 777.6 107.267311 
" clip-path="url(#p29414abc86)" style="fill: none; stroke-dasharray: 5.12,1.28,0.8,1.28; stroke-dashoffset: 0; stroke: #b0b0b0; stroke-width: 0.8"/>
     </g>
     <g id="line2d_38">
      <g>
       <use xlink:href="#m211efb7dcd" x="108" y="107.267311" style="fill: #a9a9a9; stroke: #a9a9a9; stroke-width: 0.8"/>
      </g>
     </g>
     <g id="text_19">
      <!-- 5600 -->
      <g style="fill: #a9a9a9" transform="translate(75.55 111.06653) scale(0.1 -0.1)">
       <use xlink:href="#DejaVuSans-35"/>
       <use xlink:href="#DejaVuSans-36" x="63.623047"/>
       <use xlink:href="#DejaVuSans-30" x="127.246094"/>
       <use xlink:href="#DejaVuSans-30" x="190.869141"/>
      </g>
     </g>
    </g>
    <g id="ytick_9">
     <g id="line2d_39">
      <path d="M 108 78.614667 
L 777.6 78.614667 
" clip-path="url(#p29414abc86)" style="fill: none; stroke-dasharray: 5.12,1.28,0.8,1.28; stroke-dashoffset: 0; stroke: #b0b0b0; stroke-width: 0.8"/>
     </g>
     <g id="line2d_40">
      <g>
       <use xlink:href="#m211efb7dcd" x="108" y="78.614667" style="fill: #a9a9a9; stroke: #a9a9a9; stroke-width: 0.8"/>
      </g>
     </g>
     <g id="text_20">
      <!-- 6400 -->
      <g style="fill: #a9a9a9" transform="translate(75.55 82.413886) scale(0.1 -0.1)">
       <use xlink:href="#DejaVuSans-36"/>
       <use xlink:href="#DejaVuSans-34" x="63.623047"/>
       <use xlink:href="#DejaVuSans-30" x="127.246094"/>
       <use xlink:href="#DejaVuSans-30" x="190.869141"/>
      </g>
     </g>
    </g>
    <g id="ytick_10">
     <g id="line2d_41">
      <path d="M 108 49.962024 
L 777.6 49.962024 
" clip-path="url(#p29414abc86)" style="fill: none; stroke-dasharray: 5.12,1.28,0.8,1.28; stroke-dashoffset: 0; stroke: #b0b0b0; stroke-width: 0.8"/>
     </g>
     <g id="line2d_42">
      <g>
       <use xlink:href="#m211efb7dcd" x="108" y="49.962024" style="fill: #a9a9a9; stroke: #a9a9a9; stroke-width: 0.8"/>
      </g>
     </g>
     <g id="text_21">
      <!-- 7200 -->
      <g style="fill: #a9a9a9" transform="translate(75.55 53.761243) scale(0.1 -0.1)">
       <defs>
        <path id="DejaVuSans-37" d="M 525 4666 
L 3525 4666 
L 3525 4397 
L 1831 0 
L 1172 0 
L 2766 4134 
L 525 4134 
L 525 4666 
z
" transform="scale(0.015625)"/>
       </defs>
       <use xlink:href="#DejaVuSans-37"/>
       <use xlink:href="#DejaVuSans-32" x="63.623047"/>
       <use xlink:href="#DejaVuSans-30" x="127.246094"/>
       <use xlink:href="#DejaVuSans-30" x="190.869141"/>
      </g>
     </g>
    </g>
   </g>
   <g id="line2d_43">
    <path d="M 138.436364 307.728368 
L 141.408181 307.477658 
L 141.903484 307.262763 
L 143.884696 307.012052 
L 145.865907 306.618078 
L 146.856513 306.474815 
L 149.333028 306.25992 
L 150.323633 305.865947 
L 150.818936 305.221262 
L 151.314239 304.863104 
L 151.809542 303.752814 
L 152.304845 303.681182 
L 152.800148 303.287209 
L 153.790754 302.785787 
L 155.771965 301.209892 
L 157.753177 300.242865 
L 159.239086 299.562365 
L 159.734389 298.774417 
L 160.724994 298.058101 
L 161.220297 297.843206 
L 166.173326 297.12689 
L 166.668629 296.911995 
L 170.13575 296.625469 
L 172.116961 296.159864 
L 176.079385 295.622626 
L 176.574687 295.371916 
L 177.06999 295.300284 
L 178.060596 294.977942 
L 181.527717 294.404889 
L 182.518322 294.118363 
L 186.976049 293.366231 
L 187.966654 293.151336 
L 188.95726 293.11552 
L 190.938472 292.649915 
L 191.433775 291.969414 
L 192.919683 291.396362 
L 194.405592 291.002388 
L 194.900895 290.751677 
L 195.891501 290.572598 
L 197.872712 289.999545 
L 198.863318 289.927914 
L 199.853924 289.677203 
L 201.835136 289.175782 
L 202.330439 289.139966 
L 203.321044 288.67436 
L 203.816347 288.602729 
L 204.31165 288.352018 
L 209.759982 287.456623 
L 211.741194 286.88357 
L 212.236497 286.561228 
L 214.713011 285.737464 
L 215.703617 285.056964 
L 217.189526 284.770438 
L 230.067401 281.153042 
L 230.562704 281.153042 
L 231.058007 280.938147 
L 232.048613 280.830699 
L 232.543916 280.65162 
L 234.525128 280.544173 
L 235.515733 280.365094 
L 236.506339 279.863673 
L 237.992248 279.326435 
L 238.487551 279.004093 
L 239.478157 278.574304 
L 239.97346 278.323593 
L 240.964065 278.001251 
L 241.459368 277.857987 
L 242.449974 277.249119 
L 242.945277 276.711882 
L 243.935883 275.207618 
L 244.431186 275.064355 
L 244.926489 275.064355 
L 246.412397 274.204775 
L 246.9077 273.954065 
L 247.403003 273.846617 
L 247.898306 273.381012 
L 248.888912 272.987038 
L 249.879518 272.521433 
L 250.374821 271.912564 
L 250.870124 271.124616 
L 251.365426 270.802274 
L 251.860729 269.942695 
L 252.356032 269.405458 
L 255.32785 267.829562 
L 256.318456 267.041615 
L 256.813758 266.719272 
L 257.309061 265.96714 
L 257.804364 264.85685 
L 258.299667 264.104719 
L 258.79497 263.710745 
L 259.290273 263.49585 
L 262.757393 260.558954 
L 263.747999 259.377032 
L 264.738605 258.660716 
L 267.215119 257.156453 
L 268.205725 256.619215 
L 270.186937 255.580557 
L 272.663451 253.359977 
L 273.654057 252.966003 
L 274.644663 252.285503 
L 275.139966 251.998977 
L 275.635269 251.927345 
L 277.121178 251.103582 
L 277.616481 250.566345 
L 280.092995 249.24116 
L 280.588298 249.062081 
L 282.074207 248.059238 
L 289.50375 245.444684 
L 290.494356 244.549289 
L 291.484962 244.083684 
L 292.475568 243.546447 
L 292.970871 243.25992 
L 293.961476 242.973394 
L 294.456779 242.651052 
L 294.952082 242.507789 
L 296.437991 241.540762 
L 298.914506 240.967709 
L 300.400414 240.10813 
L 301.886323 239.785787 
L 302.381626 239.642524 
L 303.867535 238.532234 
L 305.848746 237.994997 
L 306.344049 237.601023 
L 309.315867 236.598181 
L 310.306472 236.419102 
L 311.297078 236.025128 
L 314.764199 234.771575 
L 315.754804 234.628312 
L 317.240713 234.12689 
L 319.717228 232.944969 
L 321.698439 231.870495 
L 325.660862 230.258783 
L 326.156165 230.187152 
L 327.146771 229.578283 
L 327.642074 229.506652 
L 329.623286 228.682888 
L 331.604497 228.396362 
L 332.595103 227.89494 
L 333.090406 227.465151 
L 333.585709 226.569756 
L 335.566921 226.032518 
L 337.052829 225.280387 
L 337.548132 225.172939 
L 341.510556 223.274702 
L 342.996464 222.988175 
L 343.98707 222.486754 
L 344.482373 222.271859 
L 344.977676 222.200227 
L 346.958887 221.304832 
L 348.444796 220.373621 
L 349.930705 220.087095 
L 352.407219 219.478226 
L 352.902522 219.084252 
L 354.388431 218.547015 
L 356.369643 217.759068 
L 356.864946 217.40091 
L 357.360249 217.221831 
L 358.350854 216.684594 
L 360.827369 215.86083 
L 362.313278 214.678908 
L 362.808581 214.571461 
L 363.799186 213.783513 
L 364.294489 213.711882 
L 364.789792 212.923934 
L 365.285095 212.709039 
L 365.780398 212.315065 
L 366.275701 212.243434 
L 367.266307 211.634565 
L 368.256912 211.312223 
L 368.752215 210.954065 
L 369.247518 210.774986 
L 370.733427 209.736327 
L 372.714639 208.697669 
L 373.209942 208.626038 
L 374.69585 207.873906 
L 375.191153 207.050142 
L 376.181759 206.333826 
L 376.677062 206.226379 
L 377.667668 205.61751 
L 378.162971 205.510063 
L 379.153576 205.008641 
L 381.134788 204.041615 
L 381.630091 203.683457 
L 382.620697 202.71643 
L 383.611303 202.107561 
L 384.106606 201.785219 
L 384.601908 201.247982 
L 386.58312 199.886981 
L 387.078423 199.313928 
L 387.573726 198.919955 
L 388.564332 198.561796 
L 389.554937 197.881296 
L 391.040846 197.129164 
L 391.536149 197.057533 
L 393.022058 196.269585 
L 394.012664 195.660716 
L 398.965693 193.869926 
L 399.460996 193.475952 
L 401.442207 192.72382 
L 401.93751 192.580557 
L 402.432813 192.186583 
L 404.909328 190.825583 
L 405.899933 188.855713 
L 406.890539 187.709608 
L 408.376448 186.957476 
L 409.367054 186.563502 
L 409.862357 186.49187 
L 410.35766 186.205344 
L 412.834174 185.417396 
L 413.329477 185.202501 
L 414.320083 184.522001 
L 415.805992 183.877317 
L 416.796597 183.34008 
L 417.2919 182.981922 
L 417.787203 182.767027 
L 418.282506 182.408869 
L 418.777809 181.871632 
L 419.768415 181.334395 
L 422.244929 180.00921 
L 425.216747 178.540762 
L 426.702656 178.110972 
L 428.188564 177.537919 
L 428.683867 177.179761 
L 429.674473 176.893235 
L 430.665079 176.499261 
L 431.160382 176.105287 
L 433.141593 175.424787 
L 434.132199 174.708471 
L 435.122805 174.278681 
L 436.113411 173.490733 
L 437.104017 173.132575 
L 437.599319 172.702786 
L 438.094622 172.631154 
L 439.085228 171.879022 
L 440.075834 171.377601 
L 440.571137 171.162706 
L 441.06644 170.661285 
L 444.53356 169.300284 
L 445.524166 168.870495 
L 447.010075 168.404889 
L 448.000681 168.261626 
L 448.495983 168.046731 
L 448.991286 167.975099 
L 449.981892 167.54531 
L 450.477195 167.509494 
L 452.458407 166.757362 
L 453.944315 165.718704 
L 454.439618 165.539625 
L 455.430224 165.002388 
L 455.925527 164.859125 
L 458.897344 163.211597 
L 459.392647 163.10415 
L 460.878556 162.244571 
L 462.364465 161.74315 
L 463.355071 161.420807 
L 465.336282 160.776123 
L 466.326888 160.453781 
L 468.3081 160.059807 
L 468.803403 159.844912 
L 469.298706 159.77328 
L 470.289311 159.343491 
L 470.784614 159.271859 
L 471.279917 159.021148 
L 472.270523 158.842069 
L 473.756432 158.304832 
L 474.747038 158.197385 
L 476.232946 157.875043 
L 478.709461 157.445253 
L 491.587336 153.720409 
L 492.082639 153.218988 
L 493.073245 152.825014 
L 497.035668 151.356566 
L 497.530971 151.07004 
L 499.01688 150.64025 
L 500.007486 150.38954 
L 500.502789 150.067197 
L 500.998092 149.95975 
L 501.493394 149.52996 
L 502.979303 149.243434 
L 503.969909 148.777828 
L 504.465212 148.204775 
L 506.446424 147.73917 
L 509.913544 147.022854 
L 510.408847 147.022854 
L 510.90415 146.807959 
L 512.885361 146.449801 
L 513.380664 146.234906 
L 515.361876 145.876748 
L 516.352482 145.446958 
L 517.343088 145.267879 
L 519.819602 144.659011 
L 521.800814 144.050142 
L 522.296117 143.942695 
L 522.791419 143.691984 
L 523.782025 143.441273 
L 524.277328 143.154747 
L 525.763237 142.653326 
L 526.25854 142.330984 
L 527.249146 142.044457 
L 528.239751 141.722115 
L 529.230357 141.328141 
L 530.716266 140.683457 
L 532.697478 140.432746 
L 536.659901 139.03593 
L 537.155204 138.677771 
L 537.650507 138.570324 
L 538.14581 138.319613 
L 538.641113 138.283798 
L 544.089444 136.38556 
L 546.565959 135.740875 
L 547.556565 135.27527 
L 549.042474 134.952928 
L 549.537776 134.558954 
L 550.033079 134.308243 
L 550.528382 133.699375 
L 551.023685 133.341217 
L 552.014291 133.05469 
L 552.509594 132.660716 
L 555.481411 131.550426 
L 555.976714 131.228084 
L 556.96732 130.941558 
L 557.462623 130.619215 
L 559.939138 129.831268 
L 561.425046 128.971688 
L 561.920349 128.864241 
L 564.396864 127.539056 
L 565.882772 126.894372 
L 566.378075 126.536214 
L 567.368681 126.213872 
L 568.359287 125.640819 
L 568.85459 125.46174 
L 569.349893 125.103582 
L 575.788831 122.847186 
L 576.284133 122.739738 
L 576.779436 122.417396 
L 578.760648 122.023422 
L 579.751254 121.629449 
L 582.723071 120.196816 
L 583.218374 120.125185 
L 584.704283 119.301421 
L 586.190192 118.8 
L 589.657312 117.403184 
L 590.152615 117.25992 
L 590.647918 116.937578 
L 591.638524 116.830131 
L 592.133826 116.507789 
L 593.124432 116.328709 
L 594.115038 115.863104 
L 594.610341 115.648209 
L 595.105644 115.576578 
L 597.582158 114.609551 
L 599.068067 114.215577 
L 600.058673 113.964866 
L 601.544582 113.535077 
L 602.535188 113.141103 
L 604.516399 112.066629 
L 605.507005 111.672655 
L 606.002308 111.350313 
L 606.992914 111.135418 
L 607.488217 110.848891 
L 607.983519 110.741444 
L 609.469428 109.917681 
L 610.460034 109.523707 
L 612.441246 108.771575 
L 614.91776 107.947811 
L 615.908366 107.44639 
L 618.384881 106.622626 
L 621.356698 105.440705 
L 623.33791 104.54531 
L 628.290939 102.647072 
L 628.786242 102.32473 
L 630.767453 101.64423 
L 631.262756 101.64423 
L 632.253362 101.21444 
L 633.243968 100.319045 
L 633.739271 99.889255 
L 635.225179 99.172939 
L 635.720482 99.065492 
L 636.215785 98.814781 
L 636.711088 98.74315 
L 637.206391 98.384991 
L 637.701694 98.277544 
L 638.6923 97.668675 
L 640.178208 96.916543 
L 641.168814 96.52257 
L 641.664117 96.271859 
L 643.150026 95.949517 
L 645.62654 95.125753 
L 646.617146 94.803411 
L 648.103055 94.051279 
L 649.093661 93.585674 
L 650.084267 93.334963 
L 651.570175 92.654463 
L 656.027901 91.006936 
L 657.51381 90.111541 
L 658.009113 90.004093 
L 658.999719 89.502672 
L 659.990325 89.144514 
L 660.485628 88.714724 
L 661.476233 88.32075 
L 662.962142 87.711882 
L 663.457445 87.317908 
L 663.952748 87.282092 
L 664.943354 86.995566 
L 665.93396 86.673223 
L 666.429263 86.422513 
L 666.924565 86.350881 
L 668.410474 85.813644 
L 669.896383 85.276407 
L 670.886989 84.882433 
L 671.382292 84.488459 
L 672.8682 84.094486 
L 673.363503 83.807959 
L 674.354109 83.557248 
L 675.840018 82.733485 
L 676.335321 82.697669 
L 677.821229 82.232064 
L 678.811835 82.160432 
L 679.802441 81.766458 
L 682.774258 80.906879 
L 683.764864 80.871063 
L 687.727288 79.61751 
L 688.717893 79.080273 
L 689.213196 78.650483 
L 690.699105 77.790904 
L 691.689711 77.182035 
L 694.661528 76.250824 
L 695.156831 75.85685 
L 698.128649 74.639113 
L 700.10986 74.101876 
L 701.100466 73.672086 
L 701.595769 73.421376 
L 702.586375 73.134849 
L 703.081678 72.812507 
L 704.072283 72.633428 
L 706.548798 71.487322 
L 707.044101 71.200796 
L 708.53001 70.842638 
L 709.025313 70.520296 
L 709.520615 70.341217 
L 710.015918 69.911427 
L 710.511221 69.839795 
L 712.987736 68.872769 
L 714.473645 68.550426 
L 714.968947 68.478795 
L 715.46425 68.2639 
L 715.959553 68.228084 
L 716.950159 67.905742 
L 717.445462 67.869926 
L 718.931371 67.296873 
L 720.912582 66.72382 
L 721.903188 65.971688 
L 723.8844 64.897214 
L 725.370308 64.395793 
L 728.342126 63.070608 
L 729.332732 62.533371 
L 729.828035 62.282661 
L 730.323338 61.817055 
L 733.295155 60.850028 
L 734.285761 60.456055 
L 735.276367 60.169528 
L 735.77167 59.918818 
L 736.266972 59.453212 
L 738.248184 58.951791 
L 738.743487 58.593633 
L 746.668333 55.8 
L 747.163636 55.8 
L 747.163636 55.8 
" clip-path="url(#p29414abc86)" style="fill: none; stroke: #1f77b4; stroke-width: 1.5; stroke-linecap: square"/>
   </g>
   <g id="line2d_44">
    <path d="M 138.931667 307.8 
L 143.389393 307.692553 
L 147.351816 307.513474 
L 149.333028 307.513474 
L 149.82833 307.37021 
L 152.304845 307.262763 
L 155.276662 306.940421 
L 158.24848 306.832973 
L 159.239086 306.725526 
L 162.706206 306.582263 
L 166.173326 306.474815 
L 168.649841 306.403184 
L 175.088779 306.295736 
L 177.565293 306.224105 
L 181.032414 306.116657 
L 183.508928 306.045026 
L 188.95726 305.937578 
L 190.938472 305.758499 
L 192.919683 305.722683 
L 195.891501 305.615236 
L 197.872712 305.57942 
L 200.349227 305.507789 
L 202.330439 305.328709 
L 206.788165 305.221262 
L 207.778771 305.14963 
L 209.759982 305.042183 
L 212.7318 304.934736 
L 214.713011 304.827288 
L 223.628464 304.290051 
L 227.095584 304.182604 
L 228.581493 304.039341 
L 231.058007 303.931893 
L 236.011036 303.681182 
L 240.964065 303.609551 
L 242.945277 303.394656 
L 244.926489 303.287209 
L 250.374821 302.785787 
L 253.841941 302.391814 
L 255.32785 302.320182 
L 259.785576 301.782945 
L 262.26209 301.711313 
L 263.747999 301.56805 
L 265.233908 301.460603 
L 279.102389 300.421944 
L 280.092995 300.242865 
L 283.064812 300.135418 
L 290.989659 299.669812 
L 294.456779 299.562365 
L 296.437991 299.34747 
L 298.914506 299.240023 
L 301.886323 299.132575 
L 304.362837 299.025128 
L 306.344049 298.989312 
L 308.820564 298.917681 
L 309.811169 298.774417 
L 316.74541 298.66697 
L 317.736016 298.559522 
L 323.679651 298.452075 
L 328.137377 298.23718 
L 331.604497 298.129733 
L 333.585709 297.914838 
L 337.052829 297.807391 
L 338.043435 297.628312 
L 340.51995 297.55668 
L 345.472979 297.485048 
L 347.949493 297.234338 
L 350.921311 297.12689 
L 352.902522 296.947811 
L 357.855551 296.697101 
L 362.808581 296.589653 
L 367.266307 296.374758 
L 368.752215 296.338943 
L 369.742821 296.195679 
L 372.219336 296.088232 
L 373.209942 296.0166 
L 374.200547 295.944969 
L 375.191153 295.873337 
L 379.648879 295.801706 
L 381.134788 295.694258 
L 394.507967 294.834679 
L 396.984481 294.727231 
L 399.460996 294.6556 
L 406.395236 294.548152 
L 407.385842 294.404889 
L 414.320083 294.297442 
L 419.273112 294.046731 
L 420.263718 294.010915 
L 421.254324 293.903468 
L 423.730838 293.79602 
L 426.207353 293.724389 
L 428.683867 293.616941 
L 431.160382 293.54531 
L 435.618108 293.437862 
L 438.589925 293.330415 
L 445.524166 293.222968 
L 450.972498 292.936441 
L 452.95371 292.86481 
L 454.439618 292.757362 
L 461.373859 292.649915 
L 464.345676 292.542467 
L 473.261129 292.43502 
L 475.24234 292.399204 
L 481.185975 292.327572 
L 482.176581 292.255941 
L 489.110822 292.148493 
L 491.092033 292.112678 
L 503.969909 292.00523 
L 505.455818 291.861967 
L 527.744449 291.75452 
L 530.220963 291.682888 
L 543.098839 291.575441 
L 544.089444 291.503809 
L 546.565959 291.432177 
L 548.051868 291.288914 
L 551.023685 291.181467 
L 554.490806 291.038204 
L 558.948532 290.930756 
L 561.425046 290.859125 
L 564.892167 290.751677 
L 568.85459 290.572598 
L 571.331104 290.465151 
L 573.312316 290.429335 
L 577.770042 290.321887 
L 579.751254 290.286072 
L 586.190192 290.178624 
L 588.171403 290.142808 
L 590.647918 290.035361 
L 593.619735 289.927914 
L 597.086856 289.856282 
L 598.077461 289.78465 
L 609.964731 289.677203 
L 616.403669 289.319045 
L 618.880183 289.247413 
L 619.870789 289.139966 
L 620.861395 289.068334 
L 624.823818 288.960887 
L 627.795636 288.853439 
L 632.748665 288.745992 
L 635.225179 288.495281 
L 640.178208 288.387834 
L 641.168814 288.280387 
L 646.121843 288.172939 
L 648.598358 288.101308 
L 654.04669 288.065492 
L 655.037296 287.958044 
L 660.485628 287.850597 
L 661.476233 287.778965 
L 672.372897 287.671518 
L 675.344715 287.56407 
L 682.774258 287.456623 
L 684.75547 287.420807 
L 689.213196 287.349176 
L 690.203802 287.241728 
L 696.147437 287.134281 
L 699.119254 287.026833 
L 708.034707 286.919386 
L 709.520615 286.811939 
L 711.006524 286.704491 
L 712.492433 286.597044 
L 719.921976 286.489596 
L 723.389097 286.346333 
L 736.266972 286.238886 
L 740.724699 286.023991 
L 746.173031 285.916543 
L 747.163636 285.880728 
L 747.163636 285.880728 
" clip-path="url(#p29414abc86)" style="fill: none; stroke: #ff7f0e; stroke-width: 1.5; stroke-linecap: square"/>
   </g>
   <g id="patch_3">
    <path d="M 108 320.4 
L 108 43.2 
" style="fill: none; stroke: #a9a9a9; stroke-width: 0.8; stroke-linejoin: miter; stroke-linecap: square"/>
   </g>
   <g id="patch_4">
    <path d="M 777.6 320.4 
L 777.6 43.2 
" style="fill: none"/>
   </g>
   <g id="patch_5">
    <path d="M 108 320.4 
L 777.6 320.4 
" style="fill: none; stroke: #a9a9a9; stroke-width: 0.8; stroke-linejoin: miter; stroke-linecap: square"/>
   </g>
   <g id="patch_6">
    <path d="M 108 43.2 
L 777.6 43.2 
" style="fill: none"/>
   </g>
   <g id="text_22">
    <!-- get_subscribe history -->
    <g style="fill: #a9a9a9" transform="translate(378.6075 37.2) scale(0.12 -0.12)">
     <defs>
      <path id="DejaVuSans-67" d="M 2906 1791 
Q 2906 2416 2648 2759 
Q 2391 3103 1925 3103 
Q 1463 3103 1205 2759 
Q 947 2416 947 1791 
Q 947 1169 1205 825 
Q 1463 481 1925 481 
Q 2391 481 2648 825 
Q 2906 1169 2906 1791 
z
M 3481 434 
Q 3481 -459 3084 -895 
Q 2688 -1331 1869 -1331 
Q 1566 -1331 1297 -1286 
Q 1028 -1241 775 -1147 
L 775 -588 
Q 1028 -725 1275 -790 
Q 1522 -856 1778 -856 
Q 2344 -856 2625 -561 
Q 2906 -266 2906 331 
L 2906 616 
Q 2728 306 2450 153 
Q 2172 0 1784 0 
Q 1141 0 747 490 
Q 353 981 353 1791 
Q 353 2603 747 3093 
Q 1141 3584 1784 3584 
Q 2172 3584 2450 3431 
Q 2728 3278 2906 2969 
L 2906 3500 
L 3481 3500 
L 3481 434 
z
" transform="scale(0.015625)"/>
      <path id="DejaVuSans-65" d="M 3597 1894 
L 3597 1613 
L 953 1613 
Q 991 1019 1311 708 
Q 1631 397 2203 397 
Q 2534 397 2845 478 
Q 3156 559 3463 722 
L 3463 178 
Q 3153 47 2828 -22 
Q 2503 -91 2169 -91 
Q 1331 -91 842 396 
Q 353 884 353 1716 
Q 353 2575 817 3079 
Q 1281 3584 2069 3584 
Q 2775 3584 3186 3129 
Q 3597 2675 3597 1894 
z
M 3022 2063 
Q 3016 2534 2758 2815 
Q 2500 3097 2075 3097 
Q 1594 3097 1305 2825 
Q 1016 2553 972 2059 
L 3022 2063 
z
" transform="scale(0.015625)"/>
      <path id="DejaVuSans-74" d="M 1172 4494 
L 1172 3500 
L 2356 3500 
L 2356 3053 
L 1172 3053 
L 1172 1153 
Q 1172 725 1289 603 
Q 1406 481 1766 481 
L 2356 481 
L 2356 0 
L 1766 0 
Q 1100 0 847 248 
Q 594 497 594 1153 
L 594 3053 
L 172 3053 
L 172 3500 
L 594 3500 
L 594 4494 
L 1172 4494 
z
" transform="scale(0.015625)"/>
      <path id="DejaVuSans-5f" d="M 3263 -1063 
L 3263 -1509 
L -63 -1509 
L -63 -1063 
L 3263 -1063 
z
" transform="scale(0.015625)"/>
      <path id="DejaVuSans-73" d="M 2834 3397 
L 2834 2853 
Q 2591 2978 2328 3040 
Q 2066 3103 1784 3103 
Q 1356 3103 1142 2972 
Q 928 2841 928 2578 
Q 928 2378 1081 2264 
Q 1234 2150 1697 2047 
L 1894 2003 
Q 2506 1872 2764 1633 
Q 3022 1394 3022 966 
Q 3022 478 2636 193 
Q 2250 -91 1575 -91 
Q 1294 -91 989 -36 
Q 684 19 347 128 
L 347 722 
Q 666 556 975 473 
Q 1284 391 1588 391 
Q 1994 391 2212 530 
Q 2431 669 2431 922 
Q 2431 1156 2273 1281 
Q 2116 1406 1581 1522 
L 1381 1569 
Q 847 1681 609 1914 
Q 372 2147 372 2553 
Q 372 3047 722 3315 
Q 1072 3584 1716 3584 
Q 2034 3584 2315 3537 
Q 2597 3491 2834 3397 
z
" transform="scale(0.015625)"/>
      <path id="DejaVuSans-75" d="M 544 1381 
L 544 3500 
L 1119 3500 
L 1119 1403 
Q 1119 906 1312 657 
Q 1506 409 1894 409 
Q 2359 409 2629 706 
Q 2900 1003 2900 1516 
L 2900 3500 
L 3475 3500 
L 3475 0 
L 2900 0 
L 2900 538 
Q 2691 219 2414 64 
Q 2138 -91 1772 -91 
Q 1169 -91 856 284 
Q 544 659 544 1381 
z
M 1991 3584 
L 1991 3584 
z
" transform="scale(0.015625)"/>
      <path id="DejaVuSans-62" d="M 3116 1747 
Q 3116 2381 2855 2742 
Q 2594 3103 2138 3103 
Q 1681 3103 1420 2742 
Q 1159 2381 1159 1747 
Q 1159 1113 1420 752 
Q 1681 391 2138 391 
Q 2594 391 2855 752 
Q 3116 1113 3116 1747 
z
M 1159 2969 
Q 1341 3281 1617 3432 
Q 1894 3584 2278 3584 
Q 2916 3584 3314 3078 
Q 3713 2572 3713 1747 
Q 3713 922 3314 415 
Q 2916 -91 2278 -91 
Q 1894 -91 1617 61 
Q 1341 213 1159 525 
L 1159 0 
L 581 0 
L 581 4863 
L 1159 4863 
L 1159 2969 
z
" transform="scale(0.015625)"/>
      <path id="DejaVuSans-63" d="M 3122 3366 
L 3122 2828 
Q 2878 2963 2633 3030 
Q 2388 3097 2138 3097 
Q 1578 3097 1268 2742 
Q 959 2388 959 1747 
Q 959 1106 1268 751 
Q 1578 397 2138 397 
Q 2388 397 2633 464 
Q 2878 531 3122 666 
L 3122 134 
Q 2881 22 2623 -34 
Q 2366 -91 2075 -91 
Q 1284 -91 818 406 
Q 353 903 353 1747 
Q 353 2603 823 3093 
Q 1294 3584 2113 3584 
Q 2378 3584 2631 3529 
Q 2884 3475 3122 3366 
z
" transform="scale(0.015625)"/>
      <path id="DejaVuSans-72" d="M 2631 2963 
Q 2534 3019 2420 3045 
Q 2306 3072 2169 3072 
Q 1681 3072 1420 2755 
Q 1159 2438 1159 1844 
L 1159 0 
L 581 0 
L 581 3500 
L 1159 3500 
L 1159 2956 
Q 1341 3275 1631 3429 
Q 1922 3584 2338 3584 
Q 2397 3584 2469 3576 
Q 2541 3569 2628 3553 
L 2631 2963 
z
" transform="scale(0.015625)"/>
      <path id="DejaVuSans-69" d="M 603 3500 
L 1178 3500 
L 1178 0 
L 603 0 
L 603 3500 
z
M 603 4863 
L 1178 4863 
L 1178 4134 
L 603 4134 
L 603 4863 
z
" transform="scale(0.015625)"/>
      <path id="DejaVuSans-20" transform="scale(0.015625)"/>
      <path id="DejaVuSans-68" d="M 3513 2113 
L 3513 0 
L 2938 0 
L 2938 2094 
Q 2938 2591 2744 2837 
Q 2550 3084 2163 3084 
Q 1697 3084 1428 2787 
Q 1159 2491 1159 1978 
L 1159 0 
L 581 0 
L 581 4863 
L 1159 4863 
L 1159 2956 
Q 1366 3272 1645 3428 
Q 1925 3584 2291 3584 
Q 2894 3584 3203 3211 
Q 3513 2838 3513 2113 
z
" transform="scale(0.015625)"/>
      <path id="DejaVuSans-6f" d="M 1959 3097 
Q 1497 3097 1228 2736 
Q 959 2375 959 1747 
Q 959 1119 1226 758 
Q 1494 397 1959 397 
Q 2419 397 2687 759 
Q 2956 1122 2956 1747 
Q 2956 2369 2687 2733 
Q 2419 3097 1959 3097 
z
M 1959 3584 
Q 2709 3584 3137 3096 
Q 3566 2609 3566 1747 
Q 3566 888 3137 398 
Q 2709 -91 1959 -91 
Q 1206 -91 779 398 
Q 353 888 353 1747 
Q 353 2609 779 3096 
Q 1206 3584 1959 3584 
z
" transform="scale(0.015625)"/>
      <path id="DejaVuSans-79" d="M 2059 -325 
Q 1816 -950 1584 -1140 
Q 1353 -1331 966 -1331 
L 506 -1331 
L 506 -850 
L 844 -850 
Q 1081 -850 1212 -737 
Q 1344 -625 1503 -206 
L 1606 56 
L 191 3500 
L 800 3500 
L 1894 763 
L 2988 3500 
L 3597 3500 
L 2059 -325 
z
" transform="scale(0.015625)"/>
     </defs>
     <use xlink:href="#DejaVuSans-67"/>
     <use xlink:href="#DejaVuSans-65" x="63.476562"/>
     <use xlink:href="#DejaVuSans-74" x="125"/>
     <use xlink:href="#DejaVuSans-5f" x="164.208984"/>
     <use xlink:href="#DejaVuSans-73" x="214.208984"/>
     <use xlink:href="#DejaVuSans-75" x="266.308594"/>
     <use xlink:href="#DejaVuSans-62" x="329.6875"/>
     <use xlink:href="#DejaVuSans-73" x="393.164062"/>
     <use xlink:href="#DejaVuSans-63" x="445.263672"/>
     <use xlink:href="#DejaVuSans-72" x="500.244141"/>
     <use xlink:href="#DejaVuSans-69" x="541.357422"/>
     <use xlink:href="#DejaVuSans-62" x="569.140625"/>
     <use xlink:href="#DejaVuSans-65" x="632.617188"/>
     <use xlink:href="#DejaVuSans-20" x="694.140625"/>
     <use xlink:href="#DejaVuSans-68" x="725.927734"/>
     <use xlink:href="#DejaVuSans-69" x="789.306641"/>
     <use xlink:href="#DejaVuSans-73" x="817.089844"/>
     <use xlink:href="#DejaVuSans-74" x="869.189453"/>
     <use xlink:href="#DejaVuSans-6f" x="908.398438"/>
     <use xlink:href="#DejaVuSans-72" x="969.580078"/>
     <use xlink:href="#DejaVuSans-79" x="1010.693359"/>
    </g>
   </g>
   <g id="legend_1">
    <g id="line2d_45">
     <path d="M 815.08 328.498438 
L 825.08 328.498438 
L 835.08 328.498438 
" style="fill: none; stroke: #1f77b4; stroke-width: 1.5; stroke-linecap: square"/>
    </g>
    <g id="text_23">
     <!-- star -->
     <g style="fill: #a9a9a9" transform="translate(843.08 331.998438) scale(0.1 -0.1)">
      <defs>
       <path id="DejaVuSans-61" d="M 2194 1759 
Q 1497 1759 1228 1600 
Q 959 1441 959 1056 
Q 959 750 1161 570 
Q 1363 391 1709 391 
Q 2188 391 2477 730 
Q 2766 1069 2766 1631 
L 2766 1759 
L 2194 1759 
z
M 3341 1997 
L 3341 0 
L 2766 0 
L 2766 531 
Q 2569 213 2275 61 
Q 1981 -91 1556 -91 
Q 1019 -91 701 211 
Q 384 513 384 1019 
Q 384 1609 779 1909 
Q 1175 2209 1959 2209 
L 2766 2209 
L 2766 2266 
Q 2766 2663 2505 2880 
Q 2244 3097 1772 3097 
Q 1472 3097 1187 3025 
Q 903 2953 641 2809 
L 641 3341 
Q 956 3463 1253 3523 
Q 1550 3584 1831 3584 
Q 2591 3584 2966 3190 
Q 3341 2797 3341 1997 
z
" transform="scale(0.015625)"/>
      </defs>
      <use xlink:href="#DejaVuSans-73"/>
      <use xlink:href="#DejaVuSans-74" x="52.099609"/>
      <use xlink:href="#DejaVuSans-61" x="91.308594"/>
      <use xlink:href="#DejaVuSans-72" x="152.587891"/>
     </g>
    </g>
    <g id="line2d_46">
     <path d="M 815.08 343.176562 
L 825.08 343.176562 
L 835.08 343.176562 
" style="fill: none; stroke: #ff7f0e; stroke-width: 1.5; stroke-linecap: square"/>
    </g>
    <g id="text_24">
     <!-- fork -->
     <g style="fill: #a9a9a9" transform="translate(843.08 346.676562) scale(0.1 -0.1)">
      <defs>
       <path id="DejaVuSans-66" d="M 2375 4863 
L 2375 4384 
L 1825 4384 
Q 1516 4384 1395 4259 
Q 1275 4134 1275 3809 
L 1275 3500 
L 2222 3500 
L 2222 3053 
L 1275 3053 
L 1275 0 
L 697 0 
L 697 3053 
L 147 3053 
L 147 3500 
L 697 3500 
L 697 3744 
Q 697 4328 969 4595 
Q 1241 4863 1831 4863 
L 2375 4863 
z
" transform="scale(0.015625)"/>
       <path id="DejaVuSans-6b" d="M 581 4863 
L 1159 4863 
L 1159 1991 
L 2875 3500 
L 3609 3500 
L 1753 1863 
L 3688 0 
L 2938 0 
L 1159 1709 
L 1159 0 
L 581 0 
L 581 4863 
z
" transform="scale(0.015625)"/>
      </defs>
      <use xlink:href="#DejaVuSans-66"/>
      <use xlink:href="#DejaVuSans-6f" x="35.205078"/>
      <use xlink:href="#DejaVuSans-72" x="96.386719"/>
      <use xlink:href="#DejaVuSans-6b" x="137.5"/>
     </g>
    </g>
   </g>
  </g>
 </g>
 <defs>
  <clipPath id="p29414abc86">
   <rect x="108" y="43.2" width="669.6" height="277.2"/>
  </clipPath>
 </defs>
</svg>
