<?xml version="1.0" encoding="utf-8" standalone="no"?>
<!DOCTYPE svg PUBLIC "-//W3C//DTD SVG 1.1//EN"
  "http://www.w3.org/Graphics/SVG/1.1/DTD/svg11.dtd">
<svg xmlns:xlink="http://www.w3.org/1999/xlink" width="864pt" height="360pt" viewBox="0 0 864 360" xmlns="http://www.w3.org/2000/svg" version="1.1">
 <metadata>
  <rdf:RDF xmlns:dc="http://purl.org/dc/elements/1.1/" xmlns:cc="http://creativecommons.org/ns#" xmlns:rdf="http://www.w3.org/1999/02/22-rdf-syntax-ns#">
   <cc:Work>
    <dc:type rdf:resource="http://purl.org/dc/dcmitype/StillImage"/>
    <dc:date>2024-10-21T20:06:50.997805</dc:date>
    <dc:format>image/svg+xml</dc:format>
    <dc:creator>
     <cc:Agent>
      <dc:title>Matplotlib v3.9.2, https://matplotlib.org/</dc:title>
     </cc:Agent>
    </dc:creator>
   </cc:Work>
  </rdf:RDF>
 </metadata>
 <defs>
  <style type="text/css">*{stroke-linejoin: round; stroke-linecap: butt}</style>
 </defs>
 <g id="figure_1">
  <g id="patch_1">
   <path d="M 0 360 
L 864 360 
L 864 0 
L 0 0 
L 0 360 
z
" style="fill: none; opacity: 0"/>
  </g>
  <g id="axes_1">
   <g id="patch_2">
    <path d="M 108 320.4 
L 777.6 320.4 
L 777.6 43.2 
L 108 43.2 
L 108 320.4 
z
" style="fill: none; opacity: 0"/>
   </g>
   <g id="matplotlib.axis_1">
    <g id="xtick_1">
     <g id="line2d_1">
      <path d="M 158.470426 320.4 
L 158.470426 43.2 
" clip-path="url(#p9878b0b5db)" style="fill: none; stroke-dasharray: 5.12,1.28,0.8,1.28; stroke-dashoffset: 0; stroke: #b0b0b0; stroke-width: 0.8"/>
     </g>
     <g id="line2d_2">
      <defs>
       <path id="mf297eb092e" d="M 0 0 
L 0 3.5 
" style="stroke: #a9a9a9; stroke-width: 0.8"/>
      </defs>
      <g>
       <use xlink:href="#mf297eb092e" x="158.470426" y="320.4" style="fill: #a9a9a9; stroke: #a9a9a9; stroke-width: 0.8"/>
      </g>
     </g>
     <g id="text_1">
      <!-- 2021-09 -->
      <g style="fill: #a9a9a9" transform="translate(137.57902 334.998438) scale(0.1 -0.1)">
       <defs>
        <path id="DejaVuSans-32" d="M 1228 531 
L 3431 531 
L 3431 0 
L 469 0 
L 469 531 
Q 828 903 1448 1529 
Q 2069 2156 2228 2338 
Q 2531 2678 2651 2914 
Q 2772 3150 2772 3378 
Q 2772 3750 2511 3984 
Q 2250 4219 1831 4219 
Q 1534 4219 1204 4116 
Q 875 4013 500 3803 
L 500 4441 
Q 881 4594 1212 4672 
Q 1544 4750 1819 4750 
Q 2544 4750 2975 4387 
Q 3406 4025 3406 3419 
Q 3406 3131 3298 2873 
Q 3191 2616 2906 2266 
Q 2828 2175 2409 1742 
Q 1991 1309 1228 531 
z
" transform="scale(0.015625)"/>
        <path id="DejaVuSans-30" d="M 2034 4250 
Q 1547 4250 1301 3770 
Q 1056 3291 1056 2328 
Q 1056 1369 1301 889 
Q 1547 409 2034 409 
Q 2525 409 2770 889 
Q 3016 1369 3016 2328 
Q 3016 3291 2770 3770 
Q 2525 4250 2034 4250 
z
M 2034 4750 
Q 2819 4750 3233 4129 
Q 3647 3509 3647 2328 
Q 3647 1150 3233 529 
Q 2819 -91 2034 -91 
Q 1250 -91 836 529 
Q 422 1150 422 2328 
Q 422 3509 836 4129 
Q 1250 4750 2034 4750 
z
" transform="scale(0.015625)"/>
        <path id="DejaVuSans-31" d="M 794 531 
L 1825 531 
L 1825 4091 
L 703 3866 
L 703 4441 
L 1819 4666 
L 2450 4666 
L 2450 531 
L 3481 531 
L 3481 0 
L 794 0 
L 794 531 
z
" transform="scale(0.015625)"/>
        <path id="DejaVuSans-2d" d="M 313 2009 
L 1997 2009 
L 1997 1497 
L 313 1497 
L 313 2009 
z
" transform="scale(0.015625)"/>
        <path id="DejaVuSans-39" d="M 703 97 
L 703 672 
Q 941 559 1184 500 
Q 1428 441 1663 441 
Q 2288 441 2617 861 
Q 2947 1281 2994 2138 
Q 2813 1869 2534 1725 
Q 2256 1581 1919 1581 
Q 1219 1581 811 2004 
Q 403 2428 403 3163 
Q 403 3881 828 4315 
Q 1253 4750 1959 4750 
Q 2769 4750 3195 4129 
Q 3622 3509 3622 2328 
Q 3622 1225 3098 567 
Q 2575 -91 1691 -91 
Q 1453 -91 1209 -44 
Q 966 3 703 97 
z
M 1959 2075 
Q 2384 2075 2632 2365 
Q 2881 2656 2881 3163 
Q 2881 3666 2632 3958 
Q 2384 4250 1959 4250 
Q 1534 4250 1286 3958 
Q 1038 3666 1038 3163 
Q 1038 2656 1286 2365 
Q 1534 2075 1959 2075 
z
" transform="scale(0.015625)"/>
       </defs>
       <use xlink:href="#DejaVuSans-32"/>
       <use xlink:href="#DejaVuSans-30" x="63.623047"/>
       <use xlink:href="#DejaVuSans-32" x="127.246094"/>
       <use xlink:href="#DejaVuSans-31" x="190.869141"/>
       <use xlink:href="#DejaVuSans-2d" x="254.492188"/>
       <use xlink:href="#DejaVuSans-30" x="290.576172"/>
       <use xlink:href="#DejaVuSans-39" x="354.199219"/>
      </g>
     </g>
    </g>
    <g id="xtick_2">
     <g id="line2d_3">
      <path d="M 221.141082 320.4 
L 221.141082 43.2 
" clip-path="url(#p9878b0b5db)" style="fill: none; stroke-dasharray: 5.12,1.28,0.8,1.28; stroke-dashoffset: 0; stroke: #b0b0b0; stroke-width: 0.8"/>
     </g>
     <g id="line2d_4">
      <g>
       <use xlink:href="#mf297eb092e" x="221.141082" y="320.4" style="fill: #a9a9a9; stroke: #a9a9a9; stroke-width: 0.8"/>
      </g>
     </g>
     <g id="text_2">
      <!-- 2022-01 -->
      <g style="fill: #a9a9a9" transform="translate(200.249675 334.998438) scale(0.1 -0.1)">
       <use xlink:href="#DejaVuSans-32"/>
       <use xlink:href="#DejaVuSans-30" x="63.623047"/>
       <use xlink:href="#DejaVuSans-32" x="127.246094"/>
       <use xlink:href="#DejaVuSans-32" x="190.869141"/>
       <use xlink:href="#DejaVuSans-2d" x="254.492188"/>
       <use xlink:href="#DejaVuSans-30" x="290.576172"/>
       <use xlink:href="#DejaVuSans-31" x="354.199219"/>
      </g>
     </g>
    </g>
    <g id="xtick_3">
     <g id="line2d_5">
      <path d="M 282.78435 320.4 
L 282.78435 43.2 
" clip-path="url(#p9878b0b5db)" style="fill: none; stroke-dasharray: 5.12,1.28,0.8,1.28; stroke-dashoffset: 0; stroke: #b0b0b0; stroke-width: 0.8"/>
     </g>
     <g id="line2d_6">
      <g>
       <use xlink:href="#mf297eb092e" x="282.78435" y="320.4" style="fill: #a9a9a9; stroke: #a9a9a9; stroke-width: 0.8"/>
      </g>
     </g>
     <g id="text_3">
      <!-- 2022-05 -->
      <g style="fill: #a9a9a9" transform="translate(261.892944 334.998438) scale(0.1 -0.1)">
       <defs>
        <path id="DejaVuSans-35" d="M 691 4666 
L 3169 4666 
L 3169 4134 
L 1269 4134 
L 1269 2991 
Q 1406 3038 1543 3061 
Q 1681 3084 1819 3084 
Q 2600 3084 3056 2656 
Q 3513 2228 3513 1497 
Q 3513 744 3044 326 
Q 2575 -91 1722 -91 
Q 1428 -91 1123 -41 
Q 819 9 494 109 
L 494 744 
Q 775 591 1075 516 
Q 1375 441 1709 441 
Q 2250 441 2565 725 
Q 2881 1009 2881 1497 
Q 2881 1984 2565 2268 
Q 2250 2553 1709 2553 
Q 1456 2553 1204 2497 
Q 953 2441 691 2322 
L 691 4666 
z
" transform="scale(0.015625)"/>
       </defs>
       <use xlink:href="#DejaVuSans-32"/>
       <use xlink:href="#DejaVuSans-30" x="63.623047"/>
       <use xlink:href="#DejaVuSans-32" x="127.246094"/>
       <use xlink:href="#DejaVuSans-32" x="190.869141"/>
       <use xlink:href="#DejaVuSans-2d" x="254.492188"/>
       <use xlink:href="#DejaVuSans-30" x="290.576172"/>
       <use xlink:href="#DejaVuSans-35" x="354.199219"/>
      </g>
     </g>
    </g>
    <g id="xtick_4">
     <g id="line2d_7">
      <path d="M 345.9687 320.4 
L 345.9687 43.2 
" clip-path="url(#p9878b0b5db)" style="fill: none; stroke-dasharray: 5.12,1.28,0.8,1.28; stroke-dashoffset: 0; stroke: #b0b0b0; stroke-width: 0.8"/>
     </g>
     <g id="line2d_8">
      <g>
       <use xlink:href="#mf297eb092e" x="345.9687" y="320.4" style="fill: #a9a9a9; stroke: #a9a9a9; stroke-width: 0.8"/>
      </g>
     </g>
     <g id="text_4">
      <!-- 2022-09 -->
      <g style="fill: #a9a9a9" transform="translate(325.077293 334.998438) scale(0.1 -0.1)">
       <use xlink:href="#DejaVuSans-32"/>
       <use xlink:href="#DejaVuSans-30" x="63.623047"/>
       <use xlink:href="#DejaVuSans-32" x="127.246094"/>
       <use xlink:href="#DejaVuSans-32" x="190.869141"/>
       <use xlink:href="#DejaVuSans-2d" x="254.492188"/>
       <use xlink:href="#DejaVuSans-30" x="290.576172"/>
       <use xlink:href="#DejaVuSans-39" x="354.199219"/>
      </g>
     </g>
    </g>
    <g id="xtick_5">
     <g id="line2d_9">
      <path d="M 408.639356 320.4 
L 408.639356 43.2 
" clip-path="url(#p9878b0b5db)" style="fill: none; stroke-dasharray: 5.12,1.28,0.8,1.28; stroke-dashoffset: 0; stroke: #b0b0b0; stroke-width: 0.8"/>
     </g>
     <g id="line2d_10">
      <g>
       <use xlink:href="#mf297eb092e" x="408.639356" y="320.4" style="fill: #a9a9a9; stroke: #a9a9a9; stroke-width: 0.8"/>
      </g>
     </g>
     <g id="text_5">
      <!-- 2023-01 -->
      <g style="fill: #a9a9a9" transform="translate(387.747949 334.998438) scale(0.1 -0.1)">
       <defs>
        <path id="DejaVuSans-33" d="M 2597 2516 
Q 3050 2419 3304 2112 
Q 3559 1806 3559 1356 
Q 3559 666 3084 287 
Q 2609 -91 1734 -91 
Q 1441 -91 1130 -33 
Q 819 25 488 141 
L 488 750 
Q 750 597 1062 519 
Q 1375 441 1716 441 
Q 2309 441 2620 675 
Q 2931 909 2931 1356 
Q 2931 1769 2642 2001 
Q 2353 2234 1838 2234 
L 1294 2234 
L 1294 2753 
L 1863 2753 
Q 2328 2753 2575 2939 
Q 2822 3125 2822 3475 
Q 2822 3834 2567 4026 
Q 2313 4219 1838 4219 
Q 1578 4219 1281 4162 
Q 984 4106 628 3988 
L 628 4550 
Q 988 4650 1302 4700 
Q 1616 4750 1894 4750 
Q 2613 4750 3031 4423 
Q 3450 4097 3450 3541 
Q 3450 3153 3228 2886 
Q 3006 2619 2597 2516 
z
" transform="scale(0.015625)"/>
       </defs>
       <use xlink:href="#DejaVuSans-32"/>
       <use xlink:href="#DejaVuSans-30" x="63.623047"/>
       <use xlink:href="#DejaVuSans-32" x="127.246094"/>
       <use xlink:href="#DejaVuSans-33" x="190.869141"/>
       <use xlink:href="#DejaVuSans-2d" x="254.492188"/>
       <use xlink:href="#DejaVuSans-30" x="290.576172"/>
       <use xlink:href="#DejaVuSans-31" x="354.199219"/>
      </g>
     </g>
    </g>
    <g id="xtick_6">
     <g id="line2d_11">
      <path d="M 470.282624 320.4 
L 470.282624 43.2 
" clip-path="url(#p9878b0b5db)" style="fill: none; stroke-dasharray: 5.12,1.28,0.8,1.28; stroke-dashoffset: 0; stroke: #b0b0b0; stroke-width: 0.8"/>
     </g>
     <g id="line2d_12">
      <g>
       <use xlink:href="#mf297eb092e" x="470.282624" y="320.4" style="fill: #a9a9a9; stroke: #a9a9a9; stroke-width: 0.8"/>
      </g>
     </g>
     <g id="text_6">
      <!-- 2023-05 -->
      <g style="fill: #a9a9a9" transform="translate(449.391217 334.998438) scale(0.1 -0.1)">
       <use xlink:href="#DejaVuSans-32"/>
       <use xlink:href="#DejaVuSans-30" x="63.623047"/>
       <use xlink:href="#DejaVuSans-32" x="127.246094"/>
       <use xlink:href="#DejaVuSans-33" x="190.869141"/>
       <use xlink:href="#DejaVuSans-2d" x="254.492188"/>
       <use xlink:href="#DejaVuSans-30" x="290.576172"/>
       <use xlink:href="#DejaVuSans-35" x="354.199219"/>
      </g>
     </g>
    </g>
    <g id="xtick_7">
     <g id="line2d_13">
      <path d="M 533.466974 320.4 
L 533.466974 43.2 
" clip-path="url(#p9878b0b5db)" style="fill: none; stroke-dasharray: 5.12,1.28,0.8,1.28; stroke-dashoffset: 0; stroke: #b0b0b0; stroke-width: 0.8"/>
     </g>
     <g id="line2d_14">
      <g>
       <use xlink:href="#mf297eb092e" x="533.466974" y="320.4" style="fill: #a9a9a9; stroke: #a9a9a9; stroke-width: 0.8"/>
      </g>
     </g>
     <g id="text_7">
      <!-- 2023-09 -->
      <g style="fill: #a9a9a9" transform="translate(512.575567 334.998438) scale(0.1 -0.1)">
       <use xlink:href="#DejaVuSans-32"/>
       <use xlink:href="#DejaVuSans-30" x="63.623047"/>
       <use xlink:href="#DejaVuSans-32" x="127.246094"/>
       <use xlink:href="#DejaVuSans-33" x="190.869141"/>
       <use xlink:href="#DejaVuSans-2d" x="254.492188"/>
       <use xlink:href="#DejaVuSans-30" x="290.576172"/>
       <use xlink:href="#DejaVuSans-39" x="354.199219"/>
      </g>
     </g>
    </g>
    <g id="xtick_8">
     <g id="line2d_15">
      <path d="M 596.137629 320.4 
L 596.137629 43.2 
" clip-path="url(#p9878b0b5db)" style="fill: none; stroke-dasharray: 5.12,1.28,0.8,1.28; stroke-dashoffset: 0; stroke: #b0b0b0; stroke-width: 0.8"/>
     </g>
     <g id="line2d_16">
      <g>
       <use xlink:href="#mf297eb092e" x="596.137629" y="320.4" style="fill: #a9a9a9; stroke: #a9a9a9; stroke-width: 0.8"/>
      </g>
     </g>
     <g id="text_8">
      <!-- 2024-01 -->
      <g style="fill: #a9a9a9" transform="translate(575.246223 334.998438) scale(0.1 -0.1)">
       <defs>
        <path id="DejaVuSans-34" d="M 2419 4116 
L 825 1625 
L 2419 1625 
L 2419 4116 
z
M 2253 4666 
L 3047 4666 
L 3047 1625 
L 3713 1625 
L 3713 1100 
L 3047 1100 
L 3047 0 
L 2419 0 
L 2419 1100 
L 313 1100 
L 313 1709 
L 2253 4666 
z
" transform="scale(0.015625)"/>
       </defs>
       <use xlink:href="#DejaVuSans-32"/>
       <use xlink:href="#DejaVuSans-30" x="63.623047"/>
       <use xlink:href="#DejaVuSans-32" x="127.246094"/>
       <use xlink:href="#DejaVuSans-34" x="190.869141"/>
       <use xlink:href="#DejaVuSans-2d" x="254.492188"/>
       <use xlink:href="#DejaVuSans-30" x="290.576172"/>
       <use xlink:href="#DejaVuSans-31" x="354.199219"/>
      </g>
     </g>
    </g>
    <g id="xtick_9">
     <g id="line2d_17">
      <path d="M 658.294591 320.4 
L 658.294591 43.2 
" clip-path="url(#p9878b0b5db)" style="fill: none; stroke-dasharray: 5.12,1.28,0.8,1.28; stroke-dashoffset: 0; stroke: #b0b0b0; stroke-width: 0.8"/>
     </g>
     <g id="line2d_18">
      <g>
       <use xlink:href="#mf297eb092e" x="658.294591" y="320.4" style="fill: #a9a9a9; stroke: #a9a9a9; stroke-width: 0.8"/>
      </g>
     </g>
     <g id="text_9">
      <!-- 2024-05 -->
      <g style="fill: #a9a9a9" transform="translate(637.403185 334.998438) scale(0.1 -0.1)">
       <use xlink:href="#DejaVuSans-32"/>
       <use xlink:href="#DejaVuSans-30" x="63.623047"/>
       <use xlink:href="#DejaVuSans-32" x="127.246094"/>
       <use xlink:href="#DejaVuSans-34" x="190.869141"/>
       <use xlink:href="#DejaVuSans-2d" x="254.492188"/>
       <use xlink:href="#DejaVuSans-30" x="290.576172"/>
       <use xlink:href="#DejaVuSans-35" x="354.199219"/>
      </g>
     </g>
    </g>
    <g id="xtick_10">
     <g id="line2d_19">
      <path d="M 721.478941 320.4 
L 721.478941 43.2 
" clip-path="url(#p9878b0b5db)" style="fill: none; stroke-dasharray: 5.12,1.28,0.8,1.28; stroke-dashoffset: 0; stroke: #b0b0b0; stroke-width: 0.8"/>
     </g>
     <g id="line2d_20">
      <g>
       <use xlink:href="#mf297eb092e" x="721.478941" y="320.4" style="fill: #a9a9a9; stroke: #a9a9a9; stroke-width: 0.8"/>
      </g>
     </g>
     <g id="text_10">
      <!-- 2024-09 -->
      <g style="fill: #a9a9a9" transform="translate(700.587535 334.998438) scale(0.1 -0.1)">
       <use xlink:href="#DejaVuSans-32"/>
       <use xlink:href="#DejaVuSans-30" x="63.623047"/>
       <use xlink:href="#DejaVuSans-32" x="127.246094"/>
       <use xlink:href="#DejaVuSans-34" x="190.869141"/>
       <use xlink:href="#DejaVuSans-2d" x="254.492188"/>
       <use xlink:href="#DejaVuSans-30" x="290.576172"/>
       <use xlink:href="#DejaVuSans-39" x="354.199219"/>
      </g>
     </g>
    </g>
   </g>
   <g id="matplotlib.axis_2">
    <g id="ytick_1">
     <g id="line2d_21">
      <path d="M 108 307.836864 
L 777.6 307.836864 
" clip-path="url(#p9878b0b5db)" style="fill: none; stroke-dasharray: 5.12,1.28,0.8,1.28; stroke-dashoffset: 0; stroke: #b0b0b0; stroke-width: 0.8"/>
     </g>
     <g id="line2d_22">
      <defs>
       <path id="mca497b59a3" d="M 0 0 
L -3.5 0 
" style="stroke: #a9a9a9; stroke-width: 0.8"/>
      </defs>
      <g>
       <use xlink:href="#mca497b59a3" x="108" y="307.836864" style="fill: #a9a9a9; stroke: #a9a9a9; stroke-width: 0.8"/>
      </g>
     </g>
     <g id="text_11">
      <!-- 0 -->
      <g style="fill: #a9a9a9" transform="translate(94.6375 311.636082) scale(0.1 -0.1)">
       <use xlink:href="#DejaVuSans-30"/>
      </g>
     </g>
    </g>
    <g id="ytick_2">
     <g id="line2d_23">
      <path d="M 108 278.345933 
L 777.6 278.345933 
" clip-path="url(#p9878b0b5db)" style="fill: none; stroke-dasharray: 5.12,1.28,0.8,1.28; stroke-dashoffset: 0; stroke: #b0b0b0; stroke-width: 0.8"/>
     </g>
     <g id="line2d_24">
      <g>
       <use xlink:href="#mca497b59a3" x="108" y="278.345933" style="fill: #a9a9a9; stroke: #a9a9a9; stroke-width: 0.8"/>
      </g>
     </g>
     <g id="text_12">
      <!-- 800 -->
      <g style="fill: #a9a9a9" transform="translate(81.9125 282.145152) scale(0.1 -0.1)">
       <defs>
        <path id="DejaVuSans-38" d="M 2034 2216 
Q 1584 2216 1326 1975 
Q 1069 1734 1069 1313 
Q 1069 891 1326 650 
Q 1584 409 2034 409 
Q 2484 409 2743 651 
Q 3003 894 3003 1313 
Q 3003 1734 2745 1975 
Q 2488 2216 2034 2216 
z
M 1403 2484 
Q 997 2584 770 2862 
Q 544 3141 544 3541 
Q 544 4100 942 4425 
Q 1341 4750 2034 4750 
Q 2731 4750 3128 4425 
Q 3525 4100 3525 3541 
Q 3525 3141 3298 2862 
Q 3072 2584 2669 2484 
Q 3125 2378 3379 2068 
Q 3634 1759 3634 1313 
Q 3634 634 3220 271 
Q 2806 -91 2034 -91 
Q 1263 -91 848 271 
Q 434 634 434 1313 
Q 434 1759 690 2068 
Q 947 2378 1403 2484 
z
M 1172 3481 
Q 1172 3119 1398 2916 
Q 1625 2713 2034 2713 
Q 2441 2713 2670 2916 
Q 2900 3119 2900 3481 
Q 2900 3844 2670 4047 
Q 2441 4250 2034 4250 
Q 1625 4250 1398 4047 
Q 1172 3844 1172 3481 
z
" transform="scale(0.015625)"/>
       </defs>
       <use xlink:href="#DejaVuSans-38"/>
       <use xlink:href="#DejaVuSans-30" x="63.623047"/>
       <use xlink:href="#DejaVuSans-30" x="127.246094"/>
      </g>
     </g>
    </g>
    <g id="ytick_3">
     <g id="line2d_25">
      <path d="M 108 248.855003 
L 777.6 248.855003 
" clip-path="url(#p9878b0b5db)" style="fill: none; stroke-dasharray: 5.12,1.28,0.8,1.28; stroke-dashoffset: 0; stroke: #b0b0b0; stroke-width: 0.8"/>
     </g>
     <g id="line2d_26">
      <g>
       <use xlink:href="#mca497b59a3" x="108" y="248.855003" style="fill: #a9a9a9; stroke: #a9a9a9; stroke-width: 0.8"/>
      </g>
     </g>
     <g id="text_13">
      <!-- 1600 -->
      <g style="fill: #a9a9a9" transform="translate(75.55 252.654222) scale(0.1 -0.1)">
       <defs>
        <path id="DejaVuSans-36" d="M 2113 2584 
Q 1688 2584 1439 2293 
Q 1191 2003 1191 1497 
Q 1191 994 1439 701 
Q 1688 409 2113 409 
Q 2538 409 2786 701 
Q 3034 994 3034 1497 
Q 3034 2003 2786 2293 
Q 2538 2584 2113 2584 
z
M 3366 4563 
L 3366 3988 
Q 3128 4100 2886 4159 
Q 2644 4219 2406 4219 
Q 1781 4219 1451 3797 
Q 1122 3375 1075 2522 
Q 1259 2794 1537 2939 
Q 1816 3084 2150 3084 
Q 2853 3084 3261 2657 
Q 3669 2231 3669 1497 
Q 3669 778 3244 343 
Q 2819 -91 2113 -91 
Q 1303 -91 875 529 
Q 447 1150 447 2328 
Q 447 3434 972 4092 
Q 1497 4750 2381 4750 
Q 2619 4750 2861 4703 
Q 3103 4656 3366 4563 
z
" transform="scale(0.015625)"/>
       </defs>
       <use xlink:href="#DejaVuSans-31"/>
       <use xlink:href="#DejaVuSans-36" x="63.623047"/>
       <use xlink:href="#DejaVuSans-30" x="127.246094"/>
       <use xlink:href="#DejaVuSans-30" x="190.869141"/>
      </g>
     </g>
    </g>
    <g id="ytick_4">
     <g id="line2d_27">
      <path d="M 108 219.364073 
L 777.6 219.364073 
" clip-path="url(#p9878b0b5db)" style="fill: none; stroke-dasharray: 5.12,1.28,0.8,1.28; stroke-dashoffset: 0; stroke: #b0b0b0; stroke-width: 0.8"/>
     </g>
     <g id="line2d_28">
      <g>
       <use xlink:href="#mca497b59a3" x="108" y="219.364073" style="fill: #a9a9a9; stroke: #a9a9a9; stroke-width: 0.8"/>
      </g>
     </g>
     <g id="text_14">
      <!-- 2400 -->
      <g style="fill: #a9a9a9" transform="translate(75.55 223.163291) scale(0.1 -0.1)">
       <use xlink:href="#DejaVuSans-32"/>
       <use xlink:href="#DejaVuSans-34" x="63.623047"/>
       <use xlink:href="#DejaVuSans-30" x="127.246094"/>
       <use xlink:href="#DejaVuSans-30" x="190.869141"/>
      </g>
     </g>
    </g>
    <g id="ytick_5">
     <g id="line2d_29">
      <path d="M 108 189.873142 
L 777.6 189.873142 
" clip-path="url(#p9878b0b5db)" style="fill: none; stroke-dasharray: 5.12,1.28,0.8,1.28; stroke-dashoffset: 0; stroke: #b0b0b0; stroke-width: 0.8"/>
     </g>
     <g id="line2d_30">
      <g>
       <use xlink:href="#mca497b59a3" x="108" y="189.873142" style="fill: #a9a9a9; stroke: #a9a9a9; stroke-width: 0.8"/>
      </g>
     </g>
     <g id="text_15">
      <!-- 3200 -->
      <g style="fill: #a9a9a9" transform="translate(75.55 193.672361) scale(0.1 -0.1)">
       <use xlink:href="#DejaVuSans-33"/>
       <use xlink:href="#DejaVuSans-32" x="63.623047"/>
       <use xlink:href="#DejaVuSans-30" x="127.246094"/>
       <use xlink:href="#DejaVuSans-30" x="190.869141"/>
      </g>
     </g>
    </g>
    <g id="ytick_6">
     <g id="line2d_31">
      <path d="M 108 160.382212 
L 777.6 160.382212 
" clip-path="url(#p9878b0b5db)" style="fill: none; stroke-dasharray: 5.12,1.28,0.8,1.28; stroke-dashoffset: 0; stroke: #b0b0b0; stroke-width: 0.8"/>
     </g>
     <g id="line2d_32">
      <g>
       <use xlink:href="#mca497b59a3" x="108" y="160.382212" style="fill: #a9a9a9; stroke: #a9a9a9; stroke-width: 0.8"/>
      </g>
     </g>
     <g id="text_16">
      <!-- 4000 -->
      <g style="fill: #a9a9a9" transform="translate(75.55 164.181431) scale(0.1 -0.1)">
       <use xlink:href="#DejaVuSans-34"/>
       <use xlink:href="#DejaVuSans-30" x="63.623047"/>
       <use xlink:href="#DejaVuSans-30" x="127.246094"/>
       <use xlink:href="#DejaVuSans-30" x="190.869141"/>
      </g>
     </g>
    </g>
    <g id="ytick_7">
     <g id="line2d_33">
      <path d="M 108 130.891281 
L 777.6 130.891281 
" clip-path="url(#p9878b0b5db)" style="fill: none; stroke-dasharray: 5.12,1.28,0.8,1.28; stroke-dashoffset: 0; stroke: #b0b0b0; stroke-width: 0.8"/>
     </g>
     <g id="line2d_34">
      <g>
       <use xlink:href="#mca497b59a3" x="108" y="130.891281" style="fill: #a9a9a9; stroke: #a9a9a9; stroke-width: 0.8"/>
      </g>
     </g>
     <g id="text_17">
      <!-- 4800 -->
      <g style="fill: #a9a9a9" transform="translate(75.55 134.6905) scale(0.1 -0.1)">
       <use xlink:href="#DejaVuSans-34"/>
       <use xlink:href="#DejaVuSans-38" x="63.623047"/>
       <use xlink:href="#DejaVuSans-30" x="127.246094"/>
       <use xlink:href="#DejaVuSans-30" x="190.869141"/>
      </g>
     </g>
    </g>
    <g id="ytick_8">
     <g id="line2d_35">
      <path d="M 108 101.400351 
L 777.6 101.400351 
" clip-path="url(#p9878b0b5db)" style="fill: none; stroke-dasharray: 5.12,1.28,0.8,1.28; stroke-dashoffset: 0; stroke: #b0b0b0; stroke-width: 0.8"/>
     </g>
     <g id="line2d_36">
      <g>
       <use xlink:href="#mca497b59a3" x="108" y="101.400351" style="fill: #a9a9a9; stroke: #a9a9a9; stroke-width: 0.8"/>
      </g>
     </g>
     <g id="text_18">
      <!-- 5600 -->
      <g style="fill: #a9a9a9" transform="translate(75.55 105.19957) scale(0.1 -0.1)">
       <use xlink:href="#DejaVuSans-35"/>
       <use xlink:href="#DejaVuSans-36" x="63.623047"/>
       <use xlink:href="#DejaVuSans-30" x="127.246094"/>
       <use xlink:href="#DejaVuSans-30" x="190.869141"/>
      </g>
     </g>
    </g>
    <g id="ytick_9">
     <g id="line2d_37">
      <path d="M 108 71.909421 
L 777.6 71.909421 
" clip-path="url(#p9878b0b5db)" style="fill: none; stroke-dasharray: 5.12,1.28,0.8,1.28; stroke-dashoffset: 0; stroke: #b0b0b0; stroke-width: 0.8"/>
     </g>
     <g id="line2d_38">
      <g>
       <use xlink:href="#mca497b59a3" x="108" y="71.909421" style="fill: #a9a9a9; stroke: #a9a9a9; stroke-width: 0.8"/>
      </g>
     </g>
     <g id="text_19">
      <!-- 6400 -->
      <g style="fill: #a9a9a9" transform="translate(75.55 75.708639) scale(0.1 -0.1)">
       <use xlink:href="#DejaVuSans-36"/>
       <use xlink:href="#DejaVuSans-34" x="63.623047"/>
       <use xlink:href="#DejaVuSans-30" x="127.246094"/>
       <use xlink:href="#DejaVuSans-30" x="190.869141"/>
      </g>
     </g>
    </g>
   </g>
   <g id="line2d_39">
    <path d="M 138.436364 307.726273 
L 141.518527 307.468227 
L 142.032221 307.247045 
L 144.086997 306.988999 
L 146.141772 306.583499 
L 147.16916 306.436044 
L 149.737629 306.214862 
L 150.765017 305.809362 
L 151.278711 305.145816 
L 151.792405 304.77718 
L 152.306099 303.634406 
L 152.819793 303.560679 
L 153.333487 303.155178 
L 154.360875 302.639087 
L 156.41565 301.017086 
L 158.470426 300.021767 
L 160.011507 299.321358 
L 160.525201 298.510357 
L 161.552589 297.773084 
L 162.066283 297.551902 
L 167.203222 296.814628 
L 167.716916 296.593446 
L 171.312773 296.298537 
L 173.367549 295.81931 
L 177.4771 295.266355 
L 177.990794 295.008309 
L 178.504488 294.934582 
L 179.531876 294.602809 
L 183.127733 294.01299 
L 184.155121 293.718081 
L 188.778366 292.943944 
L 189.805754 292.722762 
L 190.833142 292.685898 
L 192.887917 292.206671 
L 193.401611 291.506261 
L 194.942693 290.916442 
L 196.483774 290.510942 
L 196.997468 290.252896 
L 198.024856 290.068578 
L 200.079632 289.47876 
L 201.10702 289.405032 
L 202.134407 289.146987 
L 204.189183 288.630895 
L 204.702877 288.594032 
L 205.730265 288.114804 
L 206.243959 288.041077 
L 206.757652 287.783031 
L 212.408285 286.861439 
L 214.463061 286.271621 
L 214.976755 285.939848 
L 217.545224 285.091984 
L 218.572612 284.391574 
L 220.113694 284.096665 
L 229.873878 281.258163 
L 230.901266 280.852662 
L 231.928654 280.778935 
L 233.469735 280.336571 
L 233.983429 280.336571 
L 234.497123 280.115389 
L 235.524511 280.004798 
L 236.038205 279.82048 
L 238.09298 279.709889 
L 239.120368 279.525571 
L 240.147756 279.009479 
L 246.312083 276.244705 
L 246.825777 275.69175 
L 247.853165 274.143476 
L 248.366858 273.996021 
L 248.880552 273.996021 
L 249.90794 273.221884 
L 251.449022 272.705793 
L 251.962716 272.226565 
L 252.990104 271.821065 
L 254.017491 271.341837 
L 255.044879 269.867291 
L 255.558573 269.535518 
L 256.072267 268.65079 
L 256.585961 268.097835 
L 259.668124 266.475834 
L 260.695512 265.664833 
L 261.209206 265.33306 
L 261.7229 264.558923 
L 262.236594 263.41615 
L 262.750288 262.642013 
L 263.263982 262.236513 
L 263.777675 262.015331 
L 267.373533 258.99251 
L 268.400921 257.776009 
L 269.428308 257.038736 
L 270.96939 256.006554 
L 271.483084 255.56419 
L 272.510472 255.232417 
L 274.051554 254.347689 
L 275.592635 253.35237 
L 277.647411 251.509187 
L 278.674799 251.103686 
L 279.702186 250.403277 
L 280.21588 250.108367 
L 280.729574 250.03464 
L 284.325432 247.785957 
L 286.380207 246.680047 
L 286.893901 246.200819 
L 295.113003 243.325453 
L 296.140391 242.403862 
L 297.167779 241.924634 
L 298.195167 241.371679 
L 298.708861 241.07677 
L 299.736249 240.781861 
L 300.249942 240.450088 
L 300.763636 240.302633 
L 302.304718 239.307314 
L 304.873188 238.717496 
L 306.414269 237.832768 
L 307.955351 237.500995 
L 308.469045 237.35354 
L 310.010127 236.210767 
L 312.064902 235.657812 
L 312.578596 235.252311 
L 315.660759 234.220129 
L 316.688147 234.03581 
L 317.715535 233.63031 
L 321.311392 232.340082 
L 322.33878 232.192627 
L 323.879862 231.676536 
L 326.448331 230.460035 
L 328.503107 229.354125 
L 332.612658 227.69526 
L 333.126352 227.621533 
L 334.15374 226.994851 
L 334.667434 226.921123 
L 336.722209 226.073259 
L 338.776985 225.77835 
L 339.804373 225.262259 
L 340.318067 224.819895 
L 340.831761 223.898303 
L 342.886536 223.345348 
L 344.427618 222.571211 
L 344.941312 222.46062 
L 349.050863 220.506846 
L 350.591945 220.211937 
L 351.619333 219.695846 
L 352.133026 219.474664 
L 352.64672 219.400936 
L 354.701496 218.479345 
L 356.242578 217.520889 
L 357.783659 217.22598 
L 360.352129 216.599298 
L 360.865823 216.193798 
L 362.406904 215.640843 
L 364.46168 214.829842 
L 364.975374 214.461205 
L 365.489068 214.276887 
L 366.516456 213.723932 
L 369.084925 212.876068 
L 370.626007 211.659567 
L 371.139701 211.548976 
L 372.167089 210.737975 
L 372.680783 210.664248 
L 373.194476 209.853248 
L 373.70817 209.632066 
L 374.221864 209.226565 
L 374.735558 209.152838 
L 375.762946 208.526156 
L 376.790334 208.194383 
L 377.304028 207.788882 
L 377.817722 207.604564 
L 379.358803 206.535518 
L 381.413579 205.466472 
L 381.927273 205.392744 
L 383.468354 204.618607 
L 383.982048 203.770743 
L 384.495742 203.328379 
L 385.009436 203.03347 
L 385.52313 202.922879 
L 386.550518 202.259333 
L 387.064212 202.148742 
L 388.0916 201.632651 
L 390.146375 200.637332 
L 390.660069 200.268695 
L 391.687457 199.273376 
L 392.714845 198.646694 
L 393.228539 198.314921 
L 393.742232 197.761966 
L 395.797008 196.361147 
L 396.310702 195.771328 
L 396.824396 195.365828 
L 397.851784 194.997191 
L 398.879171 194.296782 
L 400.420253 193.522645 
L 400.933947 193.448917 
L 402.475029 192.637917 
L 403.502417 192.011235 
L 408.639356 190.168051 
L 409.153049 189.762551 
L 411.207825 188.988414 
L 411.721519 188.84096 
L 412.235213 188.435459 
L 414.803682 187.03464 
L 415.83107 185.007139 
L 416.858458 183.827501 
L 417.885846 183.200819 
L 419.426928 182.574137 
L 419.940621 182.50041 
L 420.454315 182.2055 
L 423.022785 181.3945 
L 423.536479 181.173318 
L 424.563867 180.472908 
L 426.104948 179.809362 
L 427.132336 179.256407 
L 427.64603 178.887771 
L 428.159724 178.666589 
L 428.673418 178.297952 
L 429.187112 177.744997 
L 430.214499 177.192042 
L 432.782969 175.828087 
L 435.865132 174.316676 
L 436.89252 173.984903 
L 438.433602 173.505676 
L 440.488377 172.584084 
L 441.515765 172.178584 
L 442.029459 171.773084 
L 443.056847 171.441311 
L 446.13901 169.856173 
L 447.166398 169.045173 
L 448.193786 168.676536 
L 448.70748 168.234172 
L 449.221174 168.160445 
L 450.248562 167.386308 
L 451.275949 166.870217 
L 451.789643 166.649035 
L 452.303337 166.132943 
L 455.899194 164.732124 
L 456.926582 164.28976 
L 458.467664 163.810532 
L 459.495052 163.663078 
L 460.008746 163.441896 
L 460.52244 163.368169 
L 461.549827 162.925805 
L 462.063521 162.888941 
L 464.118297 162.114804 
L 465.659379 161.045758 
L 466.173072 160.861439 
L 467.20046 160.308484 
L 467.714154 160.16103 
L 470.796318 158.465301 
L 471.310012 158.35471 
L 472.851093 157.469982 
L 474.392175 156.953891 
L 475.419563 156.622118 
L 477.474338 155.958572 
L 478.501726 155.626799 
L 480.556502 155.221299 
L 481.070196 155.000117 
L 481.58389 154.92639 
L 482.611277 154.484026 
L 483.124971 154.410298 
L 483.638665 154.152253 
L 484.666053 153.967934 
L 486.207135 153.41498 
L 487.234522 153.304389 
L 488.775604 152.972616 
L 491.344074 152.530252 
L 504.700115 148.696431 
L 505.213809 148.180339 
L 506.241197 147.774839 
L 509.32336 146.668929 
L 509.837054 146.337156 
L 510.350748 146.226565 
L 510.864442 145.931656 
L 512.405524 145.489292 
L 513.432911 145.231246 
L 513.946605 144.899473 
L 514.460299 144.788882 
L 514.973993 144.346518 
L 516.515075 144.051609 
L 517.542463 143.572382 
L 518.056157 142.982563 
L 520.110932 142.503335 
L 523.706789 141.766062 
L 524.220483 141.766062 
L 524.734177 141.54488 
L 526.788953 141.176243 
L 527.302647 140.955061 
L 529.357422 140.586425 
L 530.38481 140.144061 
L 531.412198 139.959743 
L 533.980667 139.33306 
L 536.035443 138.706378 
L 536.549137 138.595787 
L 537.062831 138.337741 
L 538.090219 138.079696 
L 538.603913 137.784786 
L 540.144994 137.268695 
L 540.658688 136.900059 
L 541.686076 136.605149 
L 542.713464 136.273376 
L 543.740852 135.867876 
L 545.281933 135.20433 
L 547.336709 134.946284 
L 551.44626 133.508602 
L 551.959954 133.139965 
L 552.473648 133.029374 
L 552.987342 132.771328 
L 553.501036 132.734465 
L 559.151669 130.78069 
L 561.720138 130.117145 
L 562.747526 129.637917 
L 564.288608 129.306144 
L 564.802301 128.900644 
L 565.315995 128.642598 
L 565.829689 128.015916 
L 566.343383 127.647279 
L 567.370771 127.35237 
L 567.884465 126.94687 
L 570.966628 125.804096 
L 571.480322 125.472323 
L 572.50771 125.177414 
L 573.021404 124.845641 
L 575.589873 124.03464 
L 577.130955 123.149912 
L 577.644649 123.039321 
L 580.213119 121.675366 
L 581.7542 120.974956 
L 582.267894 120.606319 
L 583.295282 120.274547 
L 584.32267 119.684728 
L 584.836364 119.50041 
L 585.350058 119.131773 
L 592.028078 116.809362 
L 592.541772 116.698771 
L 593.055466 116.366998 
L 595.110242 115.961498 
L 596.137629 115.555998 
L 596.651323 115.261088 
L 597.165017 115.113634 
L 599.219793 114.044587 
L 599.733487 113.97086 
L 601.274568 113.122996 
L 604.356732 111.906495 
L 606.411507 111.095494 
L 606.925201 110.94804 
L 607.438895 110.616267 
L 608.466283 110.468812 
L 608.979977 110.137039 
L 610.007365 109.952721 
L 611.034753 109.473493 
L 611.548446 109.252311 
L 612.06214 109.178584 
L 614.63061 108.183265 
L 616.171692 107.777765 
L 617.199079 107.519719 
L 618.740161 107.077355 
L 619.767549 106.671855 
L 621.822325 105.565945 
L 622.849712 105.160445 
L 623.363406 104.828672 
L 624.390794 104.60749 
L 624.904488 104.31258 
L 625.418182 104.201989 
L 626.959264 103.354125 
L 627.986651 102.948625 
L 629.527733 102.248215 
L 631.068815 101.842715 
L 634.150978 100.626214 
L 636.205754 99.925805 
L 637.746835 99.37285 
L 638.260529 99.188531 
L 639.287917 98.635576 
L 641.342693 97.713985 
L 646.479632 95.760211 
L 646.993326 95.391574 
L 649.048101 94.691164 
L 649.561795 94.691164 
L 650.589183 94.2488 
L 651.616571 93.327209 
L 652.130265 92.884845 
L 653.671346 92.147572 
L 654.18504 92.036981 
L 654.698734 91.778935 
L 655.212428 91.705208 
L 655.726122 91.336571 
L 656.239816 91.22598 
L 657.267204 90.599298 
L 658.808285 89.825161 
L 659.835673 89.419661 
L 660.349367 89.161615 
L 662.917837 88.534933 
L 663.43153 88.276887 
L 664.972612 87.834523 
L 667.027388 86.839204 
L 668.054776 86.359977 
L 669.082163 86.101931 
L 671.136939 85.180339 
L 671.650633 85.032885 
L 672.164327 84.701112 
L 675.24649 83.595202 
L 676.787572 82.67361 
L 677.301266 82.563019 
L 678.328654 82.046928 
L 679.356041 81.678291 
L 679.869735 81.235927 
L 680.897123 80.830427 
L 682.438205 80.203745 
L 682.951899 79.798245 
L 683.465593 79.761381 
L 684.49298 79.466472 
L 685.520368 79.134699 
L 686.034062 78.876653 
L 686.547756 78.802926 
L 688.088838 78.249971 
L 689.629919 77.697016 
L 690.657307 77.291516 
L 691.171001 76.886015 
L 692.712083 76.480515 
L 693.225777 76.185606 
L 694.253165 75.92756 
L 695.794246 75.079696 
L 696.30794 75.042832 
L 697.849022 74.563604 
L 698.87641 74.489877 
L 699.903797 74.084377 
L 702.985961 73.199649 
L 704.013349 73.162785 
L 707.095512 72.167466 
L 707.609206 72.093739 
L 709.150288 71.282738 
L 709.663982 70.840374 
L 711.205063 69.955647 
L 711.718757 69.550146 
L 712.746145 69.144646 
L 714.287227 68.702282 
L 714.800921 68.407373 
L 715.314614 68.296782 
L 715.828308 67.891281 
L 718.910472 66.637917 
L 720.965247 66.084962 
L 721.992635 65.642598 
L 723.020023 65.237098 
L 724.561105 64.610415 
L 725.588493 64.278642 
L 727.129574 63.688824 
L 728.156962 63.025278 
L 729.698044 62.619778 
L 731.239125 61.587595 
L 731.752819 61.513868 
L 734.321289 60.481685 
L 735.862371 60.113049 
L 736.376064 60.039321 
L 736.889758 59.818139 
L 737.403452 59.781276 
L 738.43084 59.412639 
L 738.944534 59.375775 
L 740.485616 58.785957 
L 742.540391 58.196138 
L 743.567779 57.422001 
L 745.622555 56.279228 
L 747.163636 55.8 
L 747.163636 55.8 
" clip-path="url(#p9878b0b5db)" style="fill: none; stroke: #1f77b4; stroke-width: 1.5; stroke-linecap: square"/>
   </g>
   <g id="line2d_40">
    <path d="M 138.950058 307.8 
L 143.573303 307.689409 
L 147.682854 307.505091 
L 149.737629 307.505091 
L 150.251323 307.357636 
L 152.819793 307.247045 
L 155.901956 306.915272 
L 158.98412 306.804681 
L 160.011507 306.69409 
L 163.607365 306.546635 
L 167.203222 306.436044 
L 169.771692 306.362317 
L 176.449712 306.251726 
L 179.018182 306.177999 
L 182.614039 306.067408 
L 185.182509 305.993681 
L 190.833142 305.88309 
L 192.887917 305.698771 
L 194.942693 305.661908 
L 198.024856 305.551317 
L 200.079632 305.514453 
L 202.648101 305.440726 
L 204.702877 305.256407 
L 209.326122 305.145816 
L 210.35351 305.072089 
L 212.408285 304.961498 
L 215.490449 304.850907 
L 217.545224 304.740316 
L 226.791715 304.187361 
L 230.387572 304.07677 
L 231.928654 303.929315 
L 234.497123 303.818724 
L 239.634062 303.560679 
L 244.771001 303.486951 
L 246.825777 303.265769 
L 248.880552 303.155178 
L 254.531185 302.639087 
L 258.127043 302.233587 
L 259.668124 302.15986 
L 264.291369 301.606905 
L 266.859839 301.533177 
L 268.400921 301.385723 
L 269.942002 301.275132 
L 275.078941 300.795904 
L 276.620023 300.648449 
L 279.702186 300.537858 
L 284.325432 300.169222 
L 285.352819 299.984903 
L 288.434983 299.874312 
L 296.654085 299.395085 
L 300.249942 299.284494 
L 302.304718 299.063312 
L 304.873188 298.952721 
L 307.955351 298.84213 
L 310.52382 298.731539 
L 312.578596 298.694675 
L 315.147066 298.620948 
L 316.174453 298.473493 
L 323.366168 298.362902 
L 324.393556 298.252311 
L 330.557883 298.14172 
L 335.181128 297.920538 
L 338.776985 297.809947 
L 340.831761 297.588765 
L 344.427618 297.478174 
L 345.455006 297.293856 
L 348.023475 297.220129 
L 353.160414 297.146401 
L 355.728884 296.888356 
L 358.811047 296.777765 
L 360.865823 296.593446 
L 366.002762 296.335401 
L 371.139701 296.22481 
L 375.762946 296.003628 
L 377.304028 295.966764 
L 378.331415 295.81931 
L 380.899885 295.708719 
L 381.927273 295.634991 
L 382.954661 295.561264 
L 383.982048 295.487537 
L 388.605293 295.413809 
L 390.146375 295.303218 
L 404.01611 294.41849 
L 406.58458 294.307899 
L 409.153049 294.234172 
L 416.344764 294.123581 
L 417.372152 293.976126 
L 424.563867 293.865535 
L 429.700806 293.60749 
L 430.728193 293.570626 
L 431.755581 293.460035 
L 434.324051 293.349444 
L 436.89252 293.275717 
L 439.46099 293.165126 
L 442.029459 293.091398 
L 446.652704 292.980807 
L 449.734868 292.870217 
L 456.926582 292.759626 
L 462.577215 292.464716 
L 464.631991 292.390989 
L 466.173072 292.280398 
L 473.364787 292.169807 
L 476.446951 292.059216 
L 485.693441 291.948625 
L 487.748216 291.911761 
L 493.912543 291.838034 
L 494.939931 291.764307 
L 502.131646 291.653716 
L 504.186421 291.616852 
L 517.542463 291.506261 
L 519.083544 291.358806 
L 542.19977 291.248215 
L 544.768239 291.174488 
L 558.124281 291.063897 
L 559.151669 290.99017 
L 561.720138 290.916442 
L 563.26122 290.768988 
L 566.343383 290.658397 
L 569.939241 290.510942 
L 574.562486 290.400351 
L 577.130955 290.326624 
L 580.726812 290.216033 
L 584.836364 290.031714 
L 587.404833 289.921123 
L 590.486997 289.810532 
L 598.192405 289.699941 
L 601.274568 289.58935 
L 606.925201 289.47876 
L 610.521059 289.331305 
L 614.116916 289.257578 
L 615.144304 289.18385 
L 627.472957 289.073259 
L 634.150978 288.704623 
L 636.719448 288.630895 
L 637.746835 288.520304 
L 638.774223 288.446577 
L 642.883774 288.335986 
L 645.965938 288.225395 
L 651.102877 288.114804 
L 653.671346 287.856758 
L 658.808285 287.746167 
L 659.835673 287.635576 
L 664.972612 287.524985 
L 667.541082 287.451258 
L 673.191715 287.414394 
L 674.219102 287.303803 
L 679.869735 287.193212 
L 680.897123 287.119485 
L 692.198389 287.008894 
L 695.280552 286.898303 
L 702.985961 286.787712 
L 705.040736 286.750848 
L 709.663982 286.677121 
L 710.691369 286.56653 
L 716.855696 286.455939 
L 719.93786 286.345348 
L 729.18435 286.234757 
L 730.725432 286.124166 
L 732.266513 286.013575 
L 733.807595 285.902984 
L 741.513003 285.792393 
L 745.108861 285.644939 
L 747.163636 285.534348 
L 747.163636 285.534348 
" clip-path="url(#p9878b0b5db)" style="fill: none; stroke: #ff7f0e; stroke-width: 1.5; stroke-linecap: square"/>
   </g>
   <g id="patch_3">
    <path d="M 108 320.4 
L 108 43.2 
" style="fill: none; stroke: #a9a9a9; stroke-width: 0.8; stroke-linejoin: miter; stroke-linecap: square"/>
   </g>
   <g id="patch_4">
    <path d="M 777.6 320.4 
L 777.6 43.2 
" style="fill: none"/>
   </g>
   <g id="patch_5">
    <path d="M 108 320.4 
L 777.6 320.4 
" style="fill: none; stroke: #a9a9a9; stroke-width: 0.8; stroke-linejoin: miter; stroke-linecap: square"/>
   </g>
   <g id="patch_6">
    <path d="M 108 43.2 
L 777.6 43.2 
" style="fill: none"/>
   </g>
   <g id="text_20">
    <!-- get_subscribe history -->
    <g style="fill: #a9a9a9" transform="translate(378.6075 37.2) scale(0.12 -0.12)">
     <defs>
      <path id="DejaVuSans-67" d="M 2906 1791 
Q 2906 2416 2648 2759 
Q 2391 3103 1925 3103 
Q 1463 3103 1205 2759 
Q 947 2416 947 1791 
Q 947 1169 1205 825 
Q 1463 481 1925 481 
Q 2391 481 2648 825 
Q 2906 1169 2906 1791 
z
M 3481 434 
Q 3481 -459 3084 -895 
Q 2688 -1331 1869 -1331 
Q 1566 -1331 1297 -1286 
Q 1028 -1241 775 -1147 
L 775 -588 
Q 1028 -725 1275 -790 
Q 1522 -856 1778 -856 
Q 2344 -856 2625 -561 
Q 2906 -266 2906 331 
L 2906 616 
Q 2728 306 2450 153 
Q 2172 0 1784 0 
Q 1141 0 747 490 
Q 353 981 353 1791 
Q 353 2603 747 3093 
Q 1141 3584 1784 3584 
Q 2172 3584 2450 3431 
Q 2728 3278 2906 2969 
L 2906 3500 
L 3481 3500 
L 3481 434 
z
" transform="scale(0.015625)"/>
      <path id="DejaVuSans-65" d="M 3597 1894 
L 3597 1613 
L 953 1613 
Q 991 1019 1311 708 
Q 1631 397 2203 397 
Q 2534 397 2845 478 
Q 3156 559 3463 722 
L 3463 178 
Q 3153 47 2828 -22 
Q 2503 -91 2169 -91 
Q 1331 -91 842 396 
Q 353 884 353 1716 
Q 353 2575 817 3079 
Q 1281 3584 2069 3584 
Q 2775 3584 3186 3129 
Q 3597 2675 3597 1894 
z
M 3022 2063 
Q 3016 2534 2758 2815 
Q 2500 3097 2075 3097 
Q 1594 3097 1305 2825 
Q 1016 2553 972 2059 
L 3022 2063 
z
" transform="scale(0.015625)"/>
      <path id="DejaVuSans-74" d="M 1172 4494 
L 1172 3500 
L 2356 3500 
L 2356 3053 
L 1172 3053 
L 1172 1153 
Q 1172 725 1289 603 
Q 1406 481 1766 481 
L 2356 481 
L 2356 0 
L 1766 0 
Q 1100 0 847 248 
Q 594 497 594 1153 
L 594 3053 
L 172 3053 
L 172 3500 
L 594 3500 
L 594 4494 
L 1172 4494 
z
" transform="scale(0.015625)"/>
      <path id="DejaVuSans-5f" d="M 3263 -1063 
L 3263 -1509 
L -63 -1509 
L -63 -1063 
L 3263 -1063 
z
" transform="scale(0.015625)"/>
      <path id="DejaVuSans-73" d="M 2834 3397 
L 2834 2853 
Q 2591 2978 2328 3040 
Q 2066 3103 1784 3103 
Q 1356 3103 1142 2972 
Q 928 2841 928 2578 
Q 928 2378 1081 2264 
Q 1234 2150 1697 2047 
L 1894 2003 
Q 2506 1872 2764 1633 
Q 3022 1394 3022 966 
Q 3022 478 2636 193 
Q 2250 -91 1575 -91 
Q 1294 -91 989 -36 
Q 684 19 347 128 
L 347 722 
Q 666 556 975 473 
Q 1284 391 1588 391 
Q 1994 391 2212 530 
Q 2431 669 2431 922 
Q 2431 1156 2273 1281 
Q 2116 1406 1581 1522 
L 1381 1569 
Q 847 1681 609 1914 
Q 372 2147 372 2553 
Q 372 3047 722 3315 
Q 1072 3584 1716 3584 
Q 2034 3584 2315 3537 
Q 2597 3491 2834 3397 
z
" transform="scale(0.015625)"/>
      <path id="DejaVuSans-75" d="M 544 1381 
L 544 3500 
L 1119 3500 
L 1119 1403 
Q 1119 906 1312 657 
Q 1506 409 1894 409 
Q 2359 409 2629 706 
Q 2900 1003 2900 1516 
L 2900 3500 
L 3475 3500 
L 3475 0 
L 2900 0 
L 2900 538 
Q 2691 219 2414 64 
Q 2138 -91 1772 -91 
Q 1169 -91 856 284 
Q 544 659 544 1381 
z
M 1991 3584 
L 1991 3584 
z
" transform="scale(0.015625)"/>
      <path id="DejaVuSans-62" d="M 3116 1747 
Q 3116 2381 2855 2742 
Q 2594 3103 2138 3103 
Q 1681 3103 1420 2742 
Q 1159 2381 1159 1747 
Q 1159 1113 1420 752 
Q 1681 391 2138 391 
Q 2594 391 2855 752 
Q 3116 1113 3116 1747 
z
M 1159 2969 
Q 1341 3281 1617 3432 
Q 1894 3584 2278 3584 
Q 2916 3584 3314 3078 
Q 3713 2572 3713 1747 
Q 3713 922 3314 415 
Q 2916 -91 2278 -91 
Q 1894 -91 1617 61 
Q 1341 213 1159 525 
L 1159 0 
L 581 0 
L 581 4863 
L 1159 4863 
L 1159 2969 
z
" transform="scale(0.015625)"/>
      <path id="DejaVuSans-63" d="M 3122 3366 
L 3122 2828 
Q 2878 2963 2633 3030 
Q 2388 3097 2138 3097 
Q 1578 3097 1268 2742 
Q 959 2388 959 1747 
Q 959 1106 1268 751 
Q 1578 397 2138 397 
Q 2388 397 2633 464 
Q 2878 531 3122 666 
L 3122 134 
Q 2881 22 2623 -34 
Q 2366 -91 2075 -91 
Q 1284 -91 818 406 
Q 353 903 353 1747 
Q 353 2603 823 3093 
Q 1294 3584 2113 3584 
Q 2378 3584 2631 3529 
Q 2884 3475 3122 3366 
z
" transform="scale(0.015625)"/>
      <path id="DejaVuSans-72" d="M 2631 2963 
Q 2534 3019 2420 3045 
Q 2306 3072 2169 3072 
Q 1681 3072 1420 2755 
Q 1159 2438 1159 1844 
L 1159 0 
L 581 0 
L 581 3500 
L 1159 3500 
L 1159 2956 
Q 1341 3275 1631 3429 
Q 1922 3584 2338 3584 
Q 2397 3584 2469 3576 
Q 2541 3569 2628 3553 
L 2631 2963 
z
" transform="scale(0.015625)"/>
      <path id="DejaVuSans-69" d="M 603 3500 
L 1178 3500 
L 1178 0 
L 603 0 
L 603 3500 
z
M 603 4863 
L 1178 4863 
L 1178 4134 
L 603 4134 
L 603 4863 
z
" transform="scale(0.015625)"/>
      <path id="DejaVuSans-20" transform="scale(0.015625)"/>
      <path id="DejaVuSans-68" d="M 3513 2113 
L 3513 0 
L 2938 0 
L 2938 2094 
Q 2938 2591 2744 2837 
Q 2550 3084 2163 3084 
Q 1697 3084 1428 2787 
Q 1159 2491 1159 1978 
L 1159 0 
L 581 0 
L 581 4863 
L 1159 4863 
L 1159 2956 
Q 1366 3272 1645 3428 
Q 1925 3584 2291 3584 
Q 2894 3584 3203 3211 
Q 3513 2838 3513 2113 
z
" transform="scale(0.015625)"/>
      <path id="DejaVuSans-6f" d="M 1959 3097 
Q 1497 3097 1228 2736 
Q 959 2375 959 1747 
Q 959 1119 1226 758 
Q 1494 397 1959 397 
Q 2419 397 2687 759 
Q 2956 1122 2956 1747 
Q 2956 2369 2687 2733 
Q 2419 3097 1959 3097 
z
M 1959 3584 
Q 2709 3584 3137 3096 
Q 3566 2609 3566 1747 
Q 3566 888 3137 398 
Q 2709 -91 1959 -91 
Q 1206 -91 779 398 
Q 353 888 353 1747 
Q 353 2609 779 3096 
Q 1206 3584 1959 3584 
z
" transform="scale(0.015625)"/>
      <path id="DejaVuSans-79" d="M 2059 -325 
Q 1816 -950 1584 -1140 
Q 1353 -1331 966 -1331 
L 506 -1331 
L 506 -850 
L 844 -850 
Q 1081 -850 1212 -737 
Q 1344 -625 1503 -206 
L 1606 56 
L 191 3500 
L 800 3500 
L 1894 763 
L 2988 3500 
L 3597 3500 
L 2059 -325 
z
" transform="scale(0.015625)"/>
     </defs>
     <use xlink:href="#DejaVuSans-67"/>
     <use xlink:href="#DejaVuSans-65" x="63.476562"/>
     <use xlink:href="#DejaVuSans-74" x="125"/>
     <use xlink:href="#DejaVuSans-5f" x="164.208984"/>
     <use xlink:href="#DejaVuSans-73" x="214.208984"/>
     <use xlink:href="#DejaVuSans-75" x="266.308594"/>
     <use xlink:href="#DejaVuSans-62" x="329.6875"/>
     <use xlink:href="#DejaVuSans-73" x="393.164062"/>
     <use xlink:href="#DejaVuSans-63" x="445.263672"/>
     <use xlink:href="#DejaVuSans-72" x="500.244141"/>
     <use xlink:href="#DejaVuSans-69" x="541.357422"/>
     <use xlink:href="#DejaVuSans-62" x="569.140625"/>
     <use xlink:href="#DejaVuSans-65" x="632.617188"/>
     <use xlink:href="#DejaVuSans-20" x="694.140625"/>
     <use xlink:href="#DejaVuSans-68" x="725.927734"/>
     <use xlink:href="#DejaVuSans-69" x="789.306641"/>
     <use xlink:href="#DejaVuSans-73" x="817.089844"/>
     <use xlink:href="#DejaVuSans-74" x="869.189453"/>
     <use xlink:href="#DejaVuSans-6f" x="908.398438"/>
     <use xlink:href="#DejaVuSans-72" x="969.580078"/>
     <use xlink:href="#DejaVuSans-79" x="1010.693359"/>
    </g>
   </g>
   <g id="legend_1">
    <g id="line2d_41">
     <path d="M 815.08 328.498438 
L 825.08 328.498438 
L 835.08 328.498438 
" style="fill: none; stroke: #1f77b4; stroke-width: 1.5; stroke-linecap: square"/>
    </g>
    <g id="text_21">
     <!-- star -->
     <g style="fill: #a9a9a9" transform="translate(843.08 331.998438) scale(0.1 -0.1)">
      <defs>
       <path id="DejaVuSans-61" d="M 2194 1759 
Q 1497 1759 1228 1600 
Q 959 1441 959 1056 
Q 959 750 1161 570 
Q 1363 391 1709 391 
Q 2188 391 2477 730 
Q 2766 1069 2766 1631 
L 2766 1759 
L 2194 1759 
z
M 3341 1997 
L 3341 0 
L 2766 0 
L 2766 531 
Q 2569 213 2275 61 
Q 1981 -91 1556 -91 
Q 1019 -91 701 211 
Q 384 513 384 1019 
Q 384 1609 779 1909 
Q 1175 2209 1959 2209 
L 2766 2209 
L 2766 2266 
Q 2766 2663 2505 2880 
Q 2244 3097 1772 3097 
Q 1472 3097 1187 3025 
Q 903 2953 641 2809 
L 641 3341 
Q 956 3463 1253 3523 
Q 1550 3584 1831 3584 
Q 2591 3584 2966 3190 
Q 3341 2797 3341 1997 
z
" transform="scale(0.015625)"/>
      </defs>
      <use xlink:href="#DejaVuSans-73"/>
      <use xlink:href="#DejaVuSans-74" x="52.099609"/>
      <use xlink:href="#DejaVuSans-61" x="91.308594"/>
      <use xlink:href="#DejaVuSans-72" x="152.587891"/>
     </g>
    </g>
    <g id="line2d_42">
     <path d="M 815.08 343.176562 
L 825.08 343.176562 
L 835.08 343.176562 
" style="fill: none; stroke: #ff7f0e; stroke-width: 1.5; stroke-linecap: square"/>
    </g>
    <g id="text_22">
     <!-- fork -->
     <g style="fill: #a9a9a9" transform="translate(843.08 346.676562) scale(0.1 -0.1)">
      <defs>
       <path id="DejaVuSans-66" d="M 2375 4863 
L 2375 4384 
L 1825 4384 
Q 1516 4384 1395 4259 
Q 1275 4134 1275 3809 
L 1275 3500 
L 2222 3500 
L 2222 3053 
L 1275 3053 
L 1275 0 
L 697 0 
L 697 3053 
L 147 3053 
L 147 3500 
L 697 3500 
L 697 3744 
Q 697 4328 969 4595 
Q 1241 4863 1831 4863 
L 2375 4863 
z
" transform="scale(0.015625)"/>
       <path id="DejaVuSans-6b" d="M 581 4863 
L 1159 4863 
L 1159 1991 
L 2875 3500 
L 3609 3500 
L 1753 1863 
L 3688 0 
L 2938 0 
L 1159 1709 
L 1159 0 
L 581 0 
L 581 4863 
z
" transform="scale(0.015625)"/>
      </defs>
      <use xlink:href="#DejaVuSans-66"/>
      <use xlink:href="#DejaVuSans-6f" x="35.205078"/>
      <use xlink:href="#DejaVuSans-72" x="96.386719"/>
      <use xlink:href="#DejaVuSans-6b" x="137.5"/>
     </g>
    </g>
   </g>
  </g>
 </g>
 <defs>
  <clipPath id="p9878b0b5db">
   <rect x="108" y="43.2" width="669.6" height="277.2"/>
  </clipPath>
 </defs>
</svg>
