<?xml version="1.0" encoding="utf-8" standalone="no"?>
<!DOCTYPE svg PUBLIC "-//W3C//DTD SVG 1.1//EN"
  "http://www.w3.org/Graphics/SVG/1.1/DTD/svg11.dtd">
<svg xmlns:xlink="http://www.w3.org/1999/xlink" width="864pt" height="360pt" viewBox="0 0 864 360" xmlns="http://www.w3.org/2000/svg" version="1.1">
 <metadata>
  <rdf:RDF xmlns:dc="http://purl.org/dc/elements/1.1/" xmlns:cc="http://creativecommons.org/ns#" xmlns:rdf="http://www.w3.org/1999/02/22-rdf-syntax-ns#">
   <cc:Work>
    <dc:type rdf:resource="http://purl.org/dc/dcmitype/StillImage"/>
    <dc:date>2025-09-01T20:06:57.345692</dc:date>
    <dc:format>image/svg+xml</dc:format>
    <dc:creator>
     <cc:Agent>
      <dc:title>Matplotlib v3.10.6, https://matplotlib.org/</dc:title>
     </cc:Agent>
    </dc:creator>
   </cc:Work>
  </rdf:RDF>
 </metadata>
 <defs>
  <style type="text/css">*{stroke-linejoin: round; stroke-linecap: butt}</style>
 </defs>
 <g id="figure_1">
  <g id="patch_1">
   <path d="M 0 360 
L 864 360 
L 864 0 
L 0 0 
L 0 360 
z
" style="fill: none; opacity: 0"/>
  </g>
  <g id="axes_1">
   <g id="patch_2">
    <path d="M 108 320.4 
L 777.6 320.4 
L 777.6 43.2 
L 108 43.2 
L 108 320.4 
z
" style="fill: none; opacity: 0"/>
   </g>
   <g id="matplotlib.axis_1">
    <g id="xtick_1">
     <g id="line2d_1">
      <path d="M 129.102545 320.4 
L 129.102545 43.2 
" clip-path="url(#p6146419100)" style="fill: none; stroke-dasharray: 5.12,1.28,0.8,1.28; stroke-dashoffset: 0; stroke: #b0b0b0; stroke-width: 0.8"/>
     </g>
     <g id="line2d_2">
      <defs>
       <path id="m2ca6248864" d="M 0 0 
L 0 3.5 
" style="stroke: #a9a9a9; stroke-width: 0.8"/>
      </defs>
      <g>
       <use xlink:href="#m2ca6248864" x="129.102545" y="320.4" style="fill: #a9a9a9; stroke: #a9a9a9; stroke-width: 0.8"/>
      </g>
     </g>
     <g id="text_1">
      <!-- 2021-07 -->
      <g style="fill: #a9a9a9" transform="translate(108.211139 334.998438) scale(0.1 -0.1)">
       <defs>
        <path id="DejaVuSans-32" d="M 1228 531 
L 3431 531 
L 3431 0 
L 469 0 
L 469 531 
Q 828 903 1448 1529 
Q 2069 2156 2228 2338 
Q 2531 2678 2651 2914 
Q 2772 3150 2772 3378 
Q 2772 3750 2511 3984 
Q 2250 4219 1831 4219 
Q 1534 4219 1204 4116 
Q 875 4013 500 3803 
L 500 4441 
Q 881 4594 1212 4672 
Q 1544 4750 1819 4750 
Q 2544 4750 2975 4387 
Q 3406 4025 3406 3419 
Q 3406 3131 3298 2873 
Q 3191 2616 2906 2266 
Q 2828 2175 2409 1742 
Q 1991 1309 1228 531 
z
" transform="scale(0.015625)"/>
        <path id="DejaVuSans-30" d="M 2034 4250 
Q 1547 4250 1301 3770 
Q 1056 3291 1056 2328 
Q 1056 1369 1301 889 
Q 1547 409 2034 409 
Q 2525 409 2770 889 
Q 3016 1369 3016 2328 
Q 3016 3291 2770 3770 
Q 2525 4250 2034 4250 
z
M 2034 4750 
Q 2819 4750 3233 4129 
Q 3647 3509 3647 2328 
Q 3647 1150 3233 529 
Q 2819 -91 2034 -91 
Q 1250 -91 836 529 
Q 422 1150 422 2328 
Q 422 3509 836 4129 
Q 1250 4750 2034 4750 
z
" transform="scale(0.015625)"/>
        <path id="DejaVuSans-31" d="M 794 531 
L 1825 531 
L 1825 4091 
L 703 3866 
L 703 4441 
L 1819 4666 
L 2450 4666 
L 2450 531 
L 3481 531 
L 3481 0 
L 794 0 
L 794 531 
z
" transform="scale(0.015625)"/>
        <path id="DejaVuSans-2d" d="M 313 2009 
L 1997 2009 
L 1997 1497 
L 313 1497 
L 313 2009 
z
" transform="scale(0.015625)"/>
        <path id="DejaVuSans-37" d="M 525 4666 
L 3525 4666 
L 3525 4397 
L 1831 0 
L 1172 0 
L 2766 4134 
L 525 4134 
L 525 4666 
z
" transform="scale(0.015625)"/>
       </defs>
       <use xlink:href="#DejaVuSans-32"/>
       <use xlink:href="#DejaVuSans-30" transform="translate(63.623047 0)"/>
       <use xlink:href="#DejaVuSans-32" transform="translate(127.246094 0)"/>
       <use xlink:href="#DejaVuSans-31" transform="translate(190.869141 0)"/>
       <use xlink:href="#DejaVuSans-2d" transform="translate(254.492188 0)"/>
       <use xlink:href="#DejaVuSans-30" transform="translate(290.576172 0)"/>
       <use xlink:href="#DejaVuSans-37" transform="translate(354.199219 0)"/>
      </g>
     </g>
    </g>
    <g id="xtick_2">
     <g id="line2d_3">
      <path d="M 203.773091 320.4 
L 203.773091 43.2 
" clip-path="url(#p6146419100)" style="fill: none; stroke-dasharray: 5.12,1.28,0.8,1.28; stroke-dashoffset: 0; stroke: #b0b0b0; stroke-width: 0.8"/>
     </g>
     <g id="line2d_4">
      <g>
       <use xlink:href="#m2ca6248864" x="203.773091" y="320.4" style="fill: #a9a9a9; stroke: #a9a9a9; stroke-width: 0.8"/>
      </g>
     </g>
     <g id="text_2">
      <!-- 2022-01 -->
      <g style="fill: #a9a9a9" transform="translate(182.881685 334.998438) scale(0.1 -0.1)">
       <use xlink:href="#DejaVuSans-32"/>
       <use xlink:href="#DejaVuSans-30" transform="translate(63.623047 0)"/>
       <use xlink:href="#DejaVuSans-32" transform="translate(127.246094 0)"/>
       <use xlink:href="#DejaVuSans-32" transform="translate(190.869141 0)"/>
       <use xlink:href="#DejaVuSans-2d" transform="translate(254.492188 0)"/>
       <use xlink:href="#DejaVuSans-30" transform="translate(290.576172 0)"/>
       <use xlink:href="#DejaVuSans-31" transform="translate(354.199219 0)"/>
      </g>
     </g>
    </g>
    <g id="xtick_3">
     <g id="line2d_5">
      <path d="M 277.226182 320.4 
L 277.226182 43.2 
" clip-path="url(#p6146419100)" style="fill: none; stroke-dasharray: 5.12,1.28,0.8,1.28; stroke-dashoffset: 0; stroke: #b0b0b0; stroke-width: 0.8"/>
     </g>
     <g id="line2d_6">
      <g>
       <use xlink:href="#m2ca6248864" x="277.226182" y="320.4" style="fill: #a9a9a9; stroke: #a9a9a9; stroke-width: 0.8"/>
      </g>
     </g>
     <g id="text_3">
      <!-- 2022-07 -->
      <g style="fill: #a9a9a9" transform="translate(256.334776 334.998438) scale(0.1 -0.1)">
       <use xlink:href="#DejaVuSans-32"/>
       <use xlink:href="#DejaVuSans-30" transform="translate(63.623047 0)"/>
       <use xlink:href="#DejaVuSans-32" transform="translate(127.246094 0)"/>
       <use xlink:href="#DejaVuSans-32" transform="translate(190.869141 0)"/>
       <use xlink:href="#DejaVuSans-2d" transform="translate(254.492188 0)"/>
       <use xlink:href="#DejaVuSans-30" transform="translate(290.576172 0)"/>
       <use xlink:href="#DejaVuSans-37" transform="translate(354.199219 0)"/>
      </g>
     </g>
    </g>
    <g id="xtick_4">
     <g id="line2d_7">
      <path d="M 351.896727 320.4 
L 351.896727 43.2 
" clip-path="url(#p6146419100)" style="fill: none; stroke-dasharray: 5.12,1.28,0.8,1.28; stroke-dashoffset: 0; stroke: #b0b0b0; stroke-width: 0.8"/>
     </g>
     <g id="line2d_8">
      <g>
       <use xlink:href="#m2ca6248864" x="351.896727" y="320.4" style="fill: #a9a9a9; stroke: #a9a9a9; stroke-width: 0.8"/>
      </g>
     </g>
     <g id="text_4">
      <!-- 2023-01 -->
      <g style="fill: #a9a9a9" transform="translate(331.005321 334.998438) scale(0.1 -0.1)">
       <defs>
        <path id="DejaVuSans-33" d="M 2597 2516 
Q 3050 2419 3304 2112 
Q 3559 1806 3559 1356 
Q 3559 666 3084 287 
Q 2609 -91 1734 -91 
Q 1441 -91 1130 -33 
Q 819 25 488 141 
L 488 750 
Q 750 597 1062 519 
Q 1375 441 1716 441 
Q 2309 441 2620 675 
Q 2931 909 2931 1356 
Q 2931 1769 2642 2001 
Q 2353 2234 1838 2234 
L 1294 2234 
L 1294 2753 
L 1863 2753 
Q 2328 2753 2575 2939 
Q 2822 3125 2822 3475 
Q 2822 3834 2567 4026 
Q 2313 4219 1838 4219 
Q 1578 4219 1281 4162 
Q 984 4106 628 3988 
L 628 4550 
Q 988 4650 1302 4700 
Q 1616 4750 1894 4750 
Q 2613 4750 3031 4423 
Q 3450 4097 3450 3541 
Q 3450 3153 3228 2886 
Q 3006 2619 2597 2516 
z
" transform="scale(0.015625)"/>
       </defs>
       <use xlink:href="#DejaVuSans-32"/>
       <use xlink:href="#DejaVuSans-30" transform="translate(63.623047 0)"/>
       <use xlink:href="#DejaVuSans-32" transform="translate(127.246094 0)"/>
       <use xlink:href="#DejaVuSans-33" transform="translate(190.869141 0)"/>
       <use xlink:href="#DejaVuSans-2d" transform="translate(254.492188 0)"/>
       <use xlink:href="#DejaVuSans-30" transform="translate(290.576172 0)"/>
       <use xlink:href="#DejaVuSans-31" transform="translate(354.199219 0)"/>
      </g>
     </g>
    </g>
    <g id="xtick_5">
     <g id="line2d_9">
      <path d="M 425.349818 320.4 
L 425.349818 43.2 
" clip-path="url(#p6146419100)" style="fill: none; stroke-dasharray: 5.12,1.28,0.8,1.28; stroke-dashoffset: 0; stroke: #b0b0b0; stroke-width: 0.8"/>
     </g>
     <g id="line2d_10">
      <g>
       <use xlink:href="#m2ca6248864" x="425.349818" y="320.4" style="fill: #a9a9a9; stroke: #a9a9a9; stroke-width: 0.8"/>
      </g>
     </g>
     <g id="text_5">
      <!-- 2023-07 -->
      <g style="fill: #a9a9a9" transform="translate(404.458412 334.998438) scale(0.1 -0.1)">
       <use xlink:href="#DejaVuSans-32"/>
       <use xlink:href="#DejaVuSans-30" transform="translate(63.623047 0)"/>
       <use xlink:href="#DejaVuSans-32" transform="translate(127.246094 0)"/>
       <use xlink:href="#DejaVuSans-33" transform="translate(190.869141 0)"/>
       <use xlink:href="#DejaVuSans-2d" transform="translate(254.492188 0)"/>
       <use xlink:href="#DejaVuSans-30" transform="translate(290.576172 0)"/>
       <use xlink:href="#DejaVuSans-37" transform="translate(354.199219 0)"/>
      </g>
     </g>
    </g>
    <g id="xtick_6">
     <g id="line2d_11">
      <path d="M 500.020364 320.4 
L 500.020364 43.2 
" clip-path="url(#p6146419100)" style="fill: none; stroke-dasharray: 5.12,1.28,0.8,1.28; stroke-dashoffset: 0; stroke: #b0b0b0; stroke-width: 0.8"/>
     </g>
     <g id="line2d_12">
      <g>
       <use xlink:href="#m2ca6248864" x="500.020364" y="320.4" style="fill: #a9a9a9; stroke: #a9a9a9; stroke-width: 0.8"/>
      </g>
     </g>
     <g id="text_6">
      <!-- 2024-01 -->
      <g style="fill: #a9a9a9" transform="translate(479.128957 334.998438) scale(0.1 -0.1)">
       <defs>
        <path id="DejaVuSans-34" d="M 2419 4116 
L 825 1625 
L 2419 1625 
L 2419 4116 
z
M 2253 4666 
L 3047 4666 
L 3047 1625 
L 3713 1625 
L 3713 1100 
L 3047 1100 
L 3047 0 
L 2419 0 
L 2419 1100 
L 313 1100 
L 313 1709 
L 2253 4666 
z
" transform="scale(0.015625)"/>
       </defs>
       <use xlink:href="#DejaVuSans-32"/>
       <use xlink:href="#DejaVuSans-30" transform="translate(63.623047 0)"/>
       <use xlink:href="#DejaVuSans-32" transform="translate(127.246094 0)"/>
       <use xlink:href="#DejaVuSans-34" transform="translate(190.869141 0)"/>
       <use xlink:href="#DejaVuSans-2d" transform="translate(254.492188 0)"/>
       <use xlink:href="#DejaVuSans-30" transform="translate(290.576172 0)"/>
       <use xlink:href="#DejaVuSans-31" transform="translate(354.199219 0)"/>
      </g>
     </g>
    </g>
    <g id="xtick_7">
     <g id="line2d_13">
      <path d="M 573.879273 320.4 
L 573.879273 43.2 
" clip-path="url(#p6146419100)" style="fill: none; stroke-dasharray: 5.12,1.28,0.8,1.28; stroke-dashoffset: 0; stroke: #b0b0b0; stroke-width: 0.8"/>
     </g>
     <g id="line2d_14">
      <g>
       <use xlink:href="#m2ca6248864" x="573.879273" y="320.4" style="fill: #a9a9a9; stroke: #a9a9a9; stroke-width: 0.8"/>
      </g>
     </g>
     <g id="text_7">
      <!-- 2024-07 -->
      <g style="fill: #a9a9a9" transform="translate(552.987866 334.998438) scale(0.1 -0.1)">
       <use xlink:href="#DejaVuSans-32"/>
       <use xlink:href="#DejaVuSans-30" transform="translate(63.623047 0)"/>
       <use xlink:href="#DejaVuSans-32" transform="translate(127.246094 0)"/>
       <use xlink:href="#DejaVuSans-34" transform="translate(190.869141 0)"/>
       <use xlink:href="#DejaVuSans-2d" transform="translate(254.492188 0)"/>
       <use xlink:href="#DejaVuSans-30" transform="translate(290.576172 0)"/>
       <use xlink:href="#DejaVuSans-37" transform="translate(354.199219 0)"/>
      </g>
     </g>
    </g>
    <g id="xtick_8">
     <g id="line2d_15">
      <path d="M 648.549818 320.4 
L 648.549818 43.2 
" clip-path="url(#p6146419100)" style="fill: none; stroke-dasharray: 5.12,1.28,0.8,1.28; stroke-dashoffset: 0; stroke: #b0b0b0; stroke-width: 0.8"/>
     </g>
     <g id="line2d_16">
      <g>
       <use xlink:href="#m2ca6248864" x="648.549818" y="320.4" style="fill: #a9a9a9; stroke: #a9a9a9; stroke-width: 0.8"/>
      </g>
     </g>
     <g id="text_8">
      <!-- 2025-01 -->
      <g style="fill: #a9a9a9" transform="translate(627.658412 334.998438) scale(0.1 -0.1)">
       <defs>
        <path id="DejaVuSans-35" d="M 691 4666 
L 3169 4666 
L 3169 4134 
L 1269 4134 
L 1269 2991 
Q 1406 3038 1543 3061 
Q 1681 3084 1819 3084 
Q 2600 3084 3056 2656 
Q 3513 2228 3513 1497 
Q 3513 744 3044 326 
Q 2575 -91 1722 -91 
Q 1428 -91 1123 -41 
Q 819 9 494 109 
L 494 744 
Q 775 591 1075 516 
Q 1375 441 1709 441 
Q 2250 441 2565 725 
Q 2881 1009 2881 1497 
Q 2881 1984 2565 2268 
Q 2250 2553 1709 2553 
Q 1456 2553 1204 2497 
Q 953 2441 691 2322 
L 691 4666 
z
" transform="scale(0.015625)"/>
       </defs>
       <use xlink:href="#DejaVuSans-32"/>
       <use xlink:href="#DejaVuSans-30" transform="translate(63.623047 0)"/>
       <use xlink:href="#DejaVuSans-32" transform="translate(127.246094 0)"/>
       <use xlink:href="#DejaVuSans-35" transform="translate(190.869141 0)"/>
       <use xlink:href="#DejaVuSans-2d" transform="translate(254.492188 0)"/>
       <use xlink:href="#DejaVuSans-30" transform="translate(290.576172 0)"/>
       <use xlink:href="#DejaVuSans-31" transform="translate(354.199219 0)"/>
      </g>
     </g>
    </g>
    <g id="xtick_9">
     <g id="line2d_17">
      <path d="M 722.002909 320.4 
L 722.002909 43.2 
" clip-path="url(#p6146419100)" style="fill: none; stroke-dasharray: 5.12,1.28,0.8,1.28; stroke-dashoffset: 0; stroke: #b0b0b0; stroke-width: 0.8"/>
     </g>
     <g id="line2d_18">
      <g>
       <use xlink:href="#m2ca6248864" x="722.002909" y="320.4" style="fill: #a9a9a9; stroke: #a9a9a9; stroke-width: 0.8"/>
      </g>
     </g>
     <g id="text_9">
      <!-- 2025-07 -->
      <g style="fill: #a9a9a9" transform="translate(701.111503 334.998438) scale(0.1 -0.1)">
       <use xlink:href="#DejaVuSans-32"/>
       <use xlink:href="#DejaVuSans-30" transform="translate(63.623047 0)"/>
       <use xlink:href="#DejaVuSans-32" transform="translate(127.246094 0)"/>
       <use xlink:href="#DejaVuSans-35" transform="translate(190.869141 0)"/>
       <use xlink:href="#DejaVuSans-2d" transform="translate(254.492188 0)"/>
       <use xlink:href="#DejaVuSans-30" transform="translate(290.576172 0)"/>
       <use xlink:href="#DejaVuSans-37" transform="translate(354.199219 0)"/>
      </g>
     </g>
    </g>
   </g>
   <g id="matplotlib.axis_2">
    <g id="ytick_1">
     <g id="line2d_19">
      <path d="M 108 307.831107 
L 777.6 307.831107 
" clip-path="url(#p6146419100)" style="fill: none; stroke-dasharray: 5.12,1.28,0.8,1.28; stroke-dashoffset: 0; stroke: #b0b0b0; stroke-width: 0.8"/>
     </g>
     <g id="line2d_20">
      <defs>
       <path id="m183cdfc78c" d="M 0 0 
L -3.5 0 
" style="stroke: #a9a9a9; stroke-width: 0.8"/>
      </defs>
      <g>
       <use xlink:href="#m183cdfc78c" x="108" y="307.831107" style="fill: #a9a9a9; stroke: #a9a9a9; stroke-width: 0.8"/>
      </g>
     </g>
     <g id="text_10">
      <!-- 0 -->
      <g style="fill: #a9a9a9" transform="translate(94.6375 311.630326) scale(0.1 -0.1)">
       <use xlink:href="#DejaVuSans-30"/>
      </g>
     </g>
    </g>
    <g id="ytick_2">
     <g id="line2d_21">
      <path d="M 108 276.723837 
L 777.6 276.723837 
" clip-path="url(#p6146419100)" style="fill: none; stroke-dasharray: 5.12,1.28,0.8,1.28; stroke-dashoffset: 0; stroke: #b0b0b0; stroke-width: 0.8"/>
     </g>
     <g id="line2d_22">
      <g>
       <use xlink:href="#m183cdfc78c" x="108" y="276.723837" style="fill: #a9a9a9; stroke: #a9a9a9; stroke-width: 0.8"/>
      </g>
     </g>
     <g id="text_11">
      <!-- 1000 -->
      <g style="fill: #a9a9a9" transform="translate(75.55 280.523055) scale(0.1 -0.1)">
       <use xlink:href="#DejaVuSans-31"/>
       <use xlink:href="#DejaVuSans-30" transform="translate(63.623047 0)"/>
       <use xlink:href="#DejaVuSans-30" transform="translate(127.246094 0)"/>
       <use xlink:href="#DejaVuSans-30" transform="translate(190.869141 0)"/>
      </g>
     </g>
    </g>
    <g id="ytick_3">
     <g id="line2d_23">
      <path d="M 108 245.616566 
L 777.6 245.616566 
" clip-path="url(#p6146419100)" style="fill: none; stroke-dasharray: 5.12,1.28,0.8,1.28; stroke-dashoffset: 0; stroke: #b0b0b0; stroke-width: 0.8"/>
     </g>
     <g id="line2d_24">
      <g>
       <use xlink:href="#m183cdfc78c" x="108" y="245.616566" style="fill: #a9a9a9; stroke: #a9a9a9; stroke-width: 0.8"/>
      </g>
     </g>
     <g id="text_12">
      <!-- 2000 -->
      <g style="fill: #a9a9a9" transform="translate(75.55 249.415785) scale(0.1 -0.1)">
       <use xlink:href="#DejaVuSans-32"/>
       <use xlink:href="#DejaVuSans-30" transform="translate(63.623047 0)"/>
       <use xlink:href="#DejaVuSans-30" transform="translate(127.246094 0)"/>
       <use xlink:href="#DejaVuSans-30" transform="translate(190.869141 0)"/>
      </g>
     </g>
    </g>
    <g id="ytick_4">
     <g id="line2d_25">
      <path d="M 108 214.509295 
L 777.6 214.509295 
" clip-path="url(#p6146419100)" style="fill: none; stroke-dasharray: 5.12,1.28,0.8,1.28; stroke-dashoffset: 0; stroke: #b0b0b0; stroke-width: 0.8"/>
     </g>
     <g id="line2d_26">
      <g>
       <use xlink:href="#m183cdfc78c" x="108" y="214.509295" style="fill: #a9a9a9; stroke: #a9a9a9; stroke-width: 0.8"/>
      </g>
     </g>
     <g id="text_13">
      <!-- 3000 -->
      <g style="fill: #a9a9a9" transform="translate(75.55 218.308514) scale(0.1 -0.1)">
       <use xlink:href="#DejaVuSans-33"/>
       <use xlink:href="#DejaVuSans-30" transform="translate(63.623047 0)"/>
       <use xlink:href="#DejaVuSans-30" transform="translate(127.246094 0)"/>
       <use xlink:href="#DejaVuSans-30" transform="translate(190.869141 0)"/>
      </g>
     </g>
    </g>
    <g id="ytick_5">
     <g id="line2d_27">
      <path d="M 108 183.402024 
L 777.6 183.402024 
" clip-path="url(#p6146419100)" style="fill: none; stroke-dasharray: 5.12,1.28,0.8,1.28; stroke-dashoffset: 0; stroke: #b0b0b0; stroke-width: 0.8"/>
     </g>
     <g id="line2d_28">
      <g>
       <use xlink:href="#m183cdfc78c" x="108" y="183.402024" style="fill: #a9a9a9; stroke: #a9a9a9; stroke-width: 0.8"/>
      </g>
     </g>
     <g id="text_14">
      <!-- 4000 -->
      <g style="fill: #a9a9a9" transform="translate(75.55 187.201243) scale(0.1 -0.1)">
       <use xlink:href="#DejaVuSans-34"/>
       <use xlink:href="#DejaVuSans-30" transform="translate(63.623047 0)"/>
       <use xlink:href="#DejaVuSans-30" transform="translate(127.246094 0)"/>
       <use xlink:href="#DejaVuSans-30" transform="translate(190.869141 0)"/>
      </g>
     </g>
    </g>
    <g id="ytick_6">
     <g id="line2d_29">
      <path d="M 108 152.294754 
L 777.6 152.294754 
" clip-path="url(#p6146419100)" style="fill: none; stroke-dasharray: 5.12,1.28,0.8,1.28; stroke-dashoffset: 0; stroke: #b0b0b0; stroke-width: 0.8"/>
     </g>
     <g id="line2d_30">
      <g>
       <use xlink:href="#m183cdfc78c" x="108" y="152.294754" style="fill: #a9a9a9; stroke: #a9a9a9; stroke-width: 0.8"/>
      </g>
     </g>
     <g id="text_15">
      <!-- 5000 -->
      <g style="fill: #a9a9a9" transform="translate(75.55 156.093972) scale(0.1 -0.1)">
       <use xlink:href="#DejaVuSans-35"/>
       <use xlink:href="#DejaVuSans-30" transform="translate(63.623047 0)"/>
       <use xlink:href="#DejaVuSans-30" transform="translate(127.246094 0)"/>
       <use xlink:href="#DejaVuSans-30" transform="translate(190.869141 0)"/>
      </g>
     </g>
    </g>
    <g id="ytick_7">
     <g id="line2d_31">
      <path d="M 108 121.187483 
L 777.6 121.187483 
" clip-path="url(#p6146419100)" style="fill: none; stroke-dasharray: 5.12,1.28,0.8,1.28; stroke-dashoffset: 0; stroke: #b0b0b0; stroke-width: 0.8"/>
     </g>
     <g id="line2d_32">
      <g>
       <use xlink:href="#m183cdfc78c" x="108" y="121.187483" style="fill: #a9a9a9; stroke: #a9a9a9; stroke-width: 0.8"/>
      </g>
     </g>
     <g id="text_16">
      <!-- 6000 -->
      <g style="fill: #a9a9a9" transform="translate(75.55 124.986702) scale(0.1 -0.1)">
       <defs>
        <path id="DejaVuSans-36" d="M 2113 2584 
Q 1688 2584 1439 2293 
Q 1191 2003 1191 1497 
Q 1191 994 1439 701 
Q 1688 409 2113 409 
Q 2538 409 2786 701 
Q 3034 994 3034 1497 
Q 3034 2003 2786 2293 
Q 2538 2584 2113 2584 
z
M 3366 4563 
L 3366 3988 
Q 3128 4100 2886 4159 
Q 2644 4219 2406 4219 
Q 1781 4219 1451 3797 
Q 1122 3375 1075 2522 
Q 1259 2794 1537 2939 
Q 1816 3084 2150 3084 
Q 2853 3084 3261 2657 
Q 3669 2231 3669 1497 
Q 3669 778 3244 343 
Q 2819 -91 2113 -91 
Q 1303 -91 875 529 
Q 447 1150 447 2328 
Q 447 3434 972 4092 
Q 1497 4750 2381 4750 
Q 2619 4750 2861 4703 
Q 3103 4656 3366 4563 
z
" transform="scale(0.015625)"/>
       </defs>
       <use xlink:href="#DejaVuSans-36"/>
       <use xlink:href="#DejaVuSans-30" transform="translate(63.623047 0)"/>
       <use xlink:href="#DejaVuSans-30" transform="translate(127.246094 0)"/>
       <use xlink:href="#DejaVuSans-30" transform="translate(190.869141 0)"/>
      </g>
     </g>
    </g>
    <g id="ytick_8">
     <g id="line2d_33">
      <path d="M 108 90.080212 
L 777.6 90.080212 
" clip-path="url(#p6146419100)" style="fill: none; stroke-dasharray: 5.12,1.28,0.8,1.28; stroke-dashoffset: 0; stroke: #b0b0b0; stroke-width: 0.8"/>
     </g>
     <g id="line2d_34">
      <g>
       <use xlink:href="#m183cdfc78c" x="108" y="90.080212" style="fill: #a9a9a9; stroke: #a9a9a9; stroke-width: 0.8"/>
      </g>
     </g>
     <g id="text_17">
      <!-- 7000 -->
      <g style="fill: #a9a9a9" transform="translate(75.55 93.879431) scale(0.1 -0.1)">
       <use xlink:href="#DejaVuSans-37"/>
       <use xlink:href="#DejaVuSans-30" transform="translate(63.623047 0)"/>
       <use xlink:href="#DejaVuSans-30" transform="translate(127.246094 0)"/>
       <use xlink:href="#DejaVuSans-30" transform="translate(190.869141 0)"/>
      </g>
     </g>
    </g>
    <g id="ytick_9">
     <g id="line2d_35">
      <path d="M 108 58.972942 
L 777.6 58.972942 
" clip-path="url(#p6146419100)" style="fill: none; stroke-dasharray: 5.12,1.28,0.8,1.28; stroke-dashoffset: 0; stroke: #b0b0b0; stroke-width: 0.8"/>
     </g>
     <g id="line2d_36">
      <g>
       <use xlink:href="#m183cdfc78c" x="108" y="58.972942" style="fill: #a9a9a9; stroke: #a9a9a9; stroke-width: 0.8"/>
      </g>
     </g>
     <g id="text_18">
      <!-- 8000 -->
      <g style="fill: #a9a9a9" transform="translate(75.55 62.77216) scale(0.1 -0.1)">
       <defs>
        <path id="DejaVuSans-38" d="M 2034 2216 
Q 1584 2216 1326 1975 
Q 1069 1734 1069 1313 
Q 1069 891 1326 650 
Q 1584 409 2034 409 
Q 2484 409 2743 651 
Q 3003 894 3003 1313 
Q 3003 1734 2745 1975 
Q 2488 2216 2034 2216 
z
M 1403 2484 
Q 997 2584 770 2862 
Q 544 3141 544 3541 
Q 544 4100 942 4425 
Q 1341 4750 2034 4750 
Q 2731 4750 3128 4425 
Q 3525 4100 3525 3541 
Q 3525 3141 3298 2862 
Q 3072 2584 2669 2484 
Q 3125 2378 3379 2068 
Q 3634 1759 3634 1313 
Q 3634 634 3220 271 
Q 2806 -91 2034 -91 
Q 1263 -91 848 271 
Q 434 634 434 1313 
Q 434 1759 690 2068 
Q 947 2378 1403 2484 
z
M 1172 3481 
Q 1172 3119 1398 2916 
Q 1625 2713 2034 2713 
Q 2441 2713 2670 2916 
Q 2900 3119 2900 3481 
Q 2900 3844 2670 4047 
Q 2441 4250 2034 4250 
Q 1625 4250 1398 4047 
Q 1172 3844 1172 3481 
z
" transform="scale(0.015625)"/>
       </defs>
       <use xlink:href="#DejaVuSans-38"/>
       <use xlink:href="#DejaVuSans-30" transform="translate(63.623047 0)"/>
       <use xlink:href="#DejaVuSans-30" transform="translate(127.246094 0)"/>
       <use xlink:href="#DejaVuSans-30" transform="translate(190.869141 0)"/>
      </g>
     </g>
    </g>
   </g>
   <g id="line2d_37">
    <path d="M 138.436364 307.737785 
L 140.871273 307.520035 
L 141.277091 307.333391 
L 142.900364 307.11564 
L 144.523636 306.77346 
L 145.335273 306.649031 
L 147.364364 306.462387 
L 148.176 306.120207 
L 148.581818 305.560277 
L 148.987636 305.280311 
L 149.393455 304.347093 
L 149.799273 304.284878 
L 150.205091 303.942698 
L 151.016727 303.507197 
L 152.64 302.138477 
L 154.263273 301.29858 
L 155.480727 300.707542 
L 155.886545 300.023182 
L 156.698182 299.401037 
L 157.104 299.214393 
L 161.162182 298.592248 
L 161.568 298.405604 
L 164.408727 298.156746 
L 166.032 297.752352 
L 169.278545 297.285743 
L 169.684364 297.067992 
L 170.090182 297.005777 
L 170.901818 296.725812 
L 173.742545 296.228095 
L 174.554182 295.979237 
L 178.206545 295.357092 
L 179.018182 295.170448 
L 179.829818 295.139341 
L 181.453091 294.734946 
L 181.858909 294.143908 
L 183.076364 293.646192 
L 184.293818 293.304012 
L 184.699636 293.086261 
L 185.511273 292.930725 
L 187.134545 292.433008 
L 187.946182 292.370794 
L 188.757818 292.153043 
L 190.381091 291.717541 
L 190.786909 291.686434 
L 191.598545 291.282039 
L 192.004364 291.219825 
L 192.410182 291.002074 
L 196.874182 290.224392 
L 198.497455 289.726676 
L 198.903273 289.44671 
L 200.932364 288.76235 
L 201.744 288.171312 
L 202.961455 287.922454 
L 208.237091 286.36709 
L 208.642909 286.304876 
L 210.266182 285.651623 
L 210.672 285.589409 
L 211.483636 285.247229 
L 212.295273 285.216121 
L 213.512727 284.842834 
L 213.918545 284.842834 
L 214.324364 284.656191 
L 215.136 284.562869 
L 215.541818 284.407332 
L 217.165091 284.345118 
L 217.976727 284.189582 
L 218.788364 283.75408 
L 220.005818 283.287471 
L 220.817455 282.851969 
L 222.034909 282.323145 
L 223.658182 281.483249 
L 224.064 281.01664 
L 224.875636 279.710135 
L 225.281455 279.585705 
L 225.687273 279.585705 
L 227.310545 278.652487 
L 227.716364 278.559166 
L 228.122182 278.154771 
L 228.933818 277.812591 
L 229.745455 277.439304 
L 230.151273 276.941587 
L 230.557091 276.257228 
L 230.962909 275.977262 
L 231.368727 275.230688 
L 231.774545 274.764079 
L 234.209455 273.395359 
L 235.832727 271.90221 
L 236.238545 270.937884 
L 236.644364 270.315739 
L 237.050182 269.973559 
L 237.456 269.786915 
L 240.702545 266.707295 
L 241.514182 265.929614 
L 243.949091 264.343143 
L 244.354909 264.187606 
L 245.978182 263.192174 
L 246.384 263.00553 
L 248.413091 261.076879 
L 249.224727 260.734699 
L 250.036364 260.143661 
L 250.442182 259.894803 
L 250.848 259.832589 
L 252.065455 259.117121 
L 252.471273 258.650512 
L 254.500364 257.499543 
L 254.906182 257.344007 
L 256.123636 256.473003 
L 262.210909 254.23328 
L 263.022545 253.455598 
L 264.24 252.833453 
L 265.051636 252.304629 
L 265.863273 252.055771 
L 266.269091 251.775805 
L 266.674909 251.651376 
L 267.892364 250.81148 
L 269.921455 250.344871 
L 271.138909 249.598297 
L 272.356364 249.318331 
L 272.762182 249.225009 
L 273.979636 248.291791 
L 275.602909 247.825182 
L 276.008727 247.483002 
L 278.443636 246.611999 
L 279.255273 246.456462 
L 280.066909 246.114282 
L 282.907636 245.025528 
L 283.719273 244.932206 
L 284.936727 244.496704 
L 286.965818 243.470164 
L 289.400727 242.070337 
L 290.212364 241.852586 
L 291.429818 241.230441 
L 292.241455 241.074904 
L 293.053091 240.577188 
L 293.864727 240.359437 
L 295.082182 239.861721 
L 296.705455 239.64397 
L 297.517091 239.208468 
L 297.922909 238.835181 
L 298.328727 238.088606 
L 299.952 237.621997 
L 301.575273 236.875423 
L 304.010182 235.693347 
L 304.821818 235.288952 
L 306.039273 235.040094 
L 307.256727 234.417948 
L 307.662545 234.355734 
L 309.691636 233.329194 
L 310.503273 232.80037 
L 311.720727 232.551512 
L 313.749818 232.022689 
L 314.155636 231.680509 
L 314.967273 231.400543 
L 316.996364 230.560647 
L 317.402182 230.249574 
L 317.808 230.094038 
L 318.619636 229.627429 
L 320.242909 229.098605 
L 321.054545 228.569782 
L 321.460364 228.13428 
L 321.866182 227.885422 
L 322.272 227.7921 
L 323.083636 227.10774 
L 323.489455 227.045525 
L 323.895273 226.361165 
L 324.301091 226.174522 
L 324.706909 225.832342 
L 325.112727 225.770127 
L 325.924364 225.241304 
L 326.736 224.961338 
L 327.141818 224.650265 
L 327.547636 224.494729 
L 329.170909 223.374867 
L 330.388364 222.752722 
L 331.2 222.534971 
L 332.011636 222.068362 
L 332.417455 221.352895 
L 333.229091 220.730749 
L 333.634909 220.637427 
L 336.069818 219.424244 
L 336.881455 219.082064 
L 337.693091 218.491026 
L 338.910545 217.340057 
L 339.722182 216.84234 
L 340.128 216.375731 
L 341.751273 215.224762 
L 342.562909 214.384866 
L 343.374545 214.104901 
L 344.186182 213.54497 
L 345.403636 212.891717 
L 345.809455 212.829503 
L 349.461818 210.931959 
L 350.679273 210.558672 
L 351.896727 210.060955 
L 352.302545 209.718775 
L 353.925818 209.065523 
L 354.331636 208.941094 
L 355.143273 208.41227 
L 355.954909 208.07009 
L 356.766545 207.479052 
L 357.578182 205.830367 
L 358.389818 204.897149 
L 359.607273 204.243896 
L 360.418909 203.901716 
L 360.824727 203.839501 
L 361.636364 203.466214 
L 363.259636 202.906283 
L 364.071273 202.439674 
L 364.882909 202.03528 
L 365.288727 201.910851 
L 367.723636 200.417702 
L 368.129455 199.951092 
L 369.346909 199.235625 
L 369.752727 199.080089 
L 370.564364 198.582373 
L 372.187636 197.680262 
L 372.593455 197.58694 
L 372.999273 197.24476 
L 375.84 196.280435 
L 376.245818 196.000469 
L 377.057455 195.751611 
L 377.869091 195.409431 
L 378.274909 195.067251 
L 379.898182 194.476213 
L 380.709818 193.885175 
L 381.521455 193.542995 
L 382.333091 192.889742 
L 383.144727 192.640884 
L 383.550545 192.267597 
L 383.956364 192.205382 
L 384.768 191.583237 
L 386.797091 190.370053 
L 387.608727 190.121195 
L 388.014545 189.872337 
L 388.420364 189.810122 
L 389.637818 189.125762 
L 395.725091 187.197111 
L 396.942545 186.326108 
L 397.348364 186.170572 
L 398.16 185.703962 
L 398.565818 185.579533 
L 401.000727 184.179706 
L 401.406545 184.086384 
L 402.624 183.33981 
L 403.841455 182.904308 
L 404.653091 182.624343 
L 406.276364 182.064412 
L 407.088 181.784446 
L 408.711273 181.442266 
L 409.117091 181.255623 
L 409.928727 181.037872 
L 410.334545 180.851228 
L 410.740364 180.789014 
L 411.146182 180.571263 
L 411.957818 180.415726 
L 413.175273 179.949117 
L 414.392727 179.762474 
L 416.827636 179.295865 
L 418.045091 179.015899 
L 418.450909 178.829256 
L 419.262545 178.673719 
L 420.074182 178.455968 
L 420.885818 178.082681 
L 421.291636 177.927145 
L 421.697455 177.927145 
L 426.161455 176.527318 
L 426.567273 176.309567 
L 426.973091 176.309567 
L 427.784727 175.998494 
L 428.190545 175.562992 
L 430.625455 174.536452 
L 432.248727 173.976521 
L 432.654545 173.727663 
L 433.872 173.354376 
L 434.683636 173.136625 
L 435.089455 172.85666 
L 435.495273 172.763338 
L 435.901091 172.390051 
L 437.118545 172.141192 
L 437.930182 171.767905 
L 438.336 171.270189 
L 442.8 170.274756 
L 443.205818 170.274756 
L 443.611636 170.088113 
L 445.234909 169.77704 
L 445.640727 169.590396 
L 447.264 169.279324 
L 448.075636 168.937144 
L 448.887273 168.781607 
L 450.916364 168.252784 
L 452.539636 167.72396 
L 452.945455 167.630638 
L 453.351273 167.412887 
L 454.162909 167.195136 
L 454.974545 166.852956 
L 455.786182 166.541884 
L 456.192 166.261918 
L 457.003636 166.01306 
L 459.844364 164.924306 
L 461.467636 164.737662 
L 464.714182 163.524478 
L 465.12 163.213406 
L 465.525818 163.120084 
L 465.931636 162.902333 
L 466.337455 162.871226 
L 470.801455 161.22254 
L 472.830545 160.66261 
L 473.642182 160.258215 
L 474.859636 159.97825 
L 476.482909 158.60953 
L 478.106182 157.894062 
L 479.323636 157.365239 
L 480.946909 156.680879 
L 481.352727 156.55645 
L 481.758545 156.276484 
L 483.787636 155.592124 
L 487.845818 153.507937 
L 488.657455 153.13465 
L 489.063273 152.823577 
L 489.874909 152.543612 
L 492.309818 151.361536 
L 492.715636 151.268214 
L 493.933091 150.708283 
L 495.556364 150.148352 
L 496.368 149.806172 
L 497.179636 149.681743 
L 497.585455 149.401778 
L 499.208727 149.090705 
L 500.020364 148.748525 
L 502.455273 147.566449 
L 502.861091 147.504234 
L 504.078545 146.788767 
L 505.296 146.353265 
L 508.136727 145.140081 
L 508.542545 145.015652 
L 508.948364 144.735687 
L 509.76 144.642365 
L 510.165818 144.3624 
L 510.977455 144.237971 
L 511.789091 143.833576 
L 512.194909 143.646932 
L 513.006545 143.429182 
L 513.818182 143.180323 
L 515.035636 142.713714 
L 516.253091 142.30932 
L 517.470545 142.029354 
L 519.093818 141.344994 
L 519.905455 140.909493 
L 521.528727 140.069596 
L 522.340364 139.882953 
L 522.746182 139.634095 
L 523.152 139.540773 
L 524.369455 138.825306 
L 525.181091 138.483126 
L 530.456727 136.49226 
L 530.862545 136.430046 
L 532.485818 135.652364 
L 533.297455 135.496828 
L 534.109091 135.030218 
L 535.732364 134.252537 
L 539.790545 132.634959 
L 540.602182 132.230564 
L 541.008 132.137242 
L 541.819636 131.82617 
L 542.225455 131.82617 
L 543.037091 131.452882 
L 544.660364 130.084162 
L 545.066182 129.959733 
L 545.472 129.710875 
L 546.689455 129.368695 
L 547.095273 129.057623 
L 547.501091 128.964301 
L 548.718545 128.217726 
L 549.124364 127.937761 
L 550.341818 127.471152 
L 550.747636 127.253401 
L 551.965091 126.973435 
L 553.994182 126.257968 
L 554.805818 126.00911 
L 556.023273 125.355857 
L 556.834909 124.951463 
L 557.646545 124.733712 
L 559.269818 123.987137 
L 559.675636 123.862708 
L 560.487273 123.489421 
L 562.516364 122.805061 
L 563.733818 122.027379 
L 564.139636 121.934058 
L 564.951273 121.529663 
L 565.762909 121.21859 
L 566.168727 120.845303 
L 567.386182 120.378694 
L 567.792 120.316479 
L 569.415273 119.569905 
L 570.632727 119.196618 
L 571.038545 119.009974 
L 571.444364 118.94776 
L 572.256 118.60558 
L 573.473455 118.325614 
L 574.285091 117.859005 
L 574.690909 117.703469 
L 575.096727 117.392396 
L 576.314182 117.081323 
L 576.72 116.832465 
L 577.531636 116.614714 
L 578.749091 115.930354 
L 579.154909 115.899247 
L 580.372364 115.494852 
L 581.184 115.432638 
L 581.995636 115.121565 
L 584.430545 114.374991 
L 585.242182 114.343883 
L 588.488727 113.255129 
L 589.300364 112.819627 
L 589.706182 112.44634 
L 590.923636 111.699765 
L 591.329455 111.388693 
L 592.546909 110.984298 
L 593.358545 110.766547 
L 595.793455 109.646686 
L 596.199273 109.584471 
L 597.010909 109.180077 
L 598.634182 108.744575 
L 599.445818 108.371287 
L 600.257455 108.060215 
L 603.909818 106.567066 
L 604.721455 106.255993 
L 606.344727 105.60274 
L 606.750545 105.229453 
L 607.156364 105.167239 
L 608.779636 104.513986 
L 610.402909 104.109591 
L 610.808727 104.047377 
L 611.214545 103.860733 
L 611.620364 103.829626 
L 612.432 103.549661 
L 612.837818 103.518553 
L 614.055273 103.051944 
L 615.678545 102.585335 
L 616.490182 101.96319 
L 618.113455 101.061079 
L 618.519273 100.967757 
L 619.330909 100.656684 
L 622.577455 99.070214 
L 622.983273 98.852463 
L 623.389091 98.479175 
L 625.418182 97.981459 
L 626.635636 97.421528 
L 627.447273 97.203777 
L 629.476364 96.239452 
L 629.882182 96.208345 
L 630.288 95.897272 
L 635.563636 93.968621 
L 636.375273 93.813085 
L 638.404364 93.159832 
L 639.621818 92.631009 
L 642.462545 91.760005 
L 643.274182 91.293396 
L 646.114909 90.32907 
L 647.738182 89.800247 
L 648.955636 89.520281 
L 650.173091 89.146994 
L 650.578909 89.053672 
L 650.984727 88.773707 
L 651.796364 88.587063 
L 653.419636 88.120454 
L 653.825455 88.089347 
L 654.637091 87.71606 
L 657.477818 87.000593 
L 659.101091 86.409554 
L 659.506909 86.409554 
L 660.724364 86.129589 
L 661.536 85.974053 
L 662.347636 85.756302 
L 663.565091 85.103049 
L 664.782545 84.729762 
L 667.623273 83.765436 
L 669.246545 82.956647 
L 670.464 82.676682 
L 671.275636 82.427824 
L 672.087273 82.023429 
L 672.493091 81.681249 
L 673.304727 81.432391 
L 673.710545 81.183533 
L 674.522182 81.090211 
L 677.362909 80.281422 
L 678.580364 80.032564 
L 679.797818 79.721491 
L 680.609455 79.534848 
L 681.826909 78.912702 
L 687.102545 76.89073 
L 687.914182 76.7663 
L 688.725818 76.610764 
L 689.131636 76.610764 
L 690.349091 76.20637 
L 691.566545 75.833082 
L 695.218909 74.806542 
L 696.030545 74.588792 
L 696.436364 74.49547 
L 696.842182 74.246612 
L 697.653818 74.091075 
L 698.465455 73.997753 
L 698.871273 73.780002 
L 699.277091 73.748895 
L 700.088727 73.220072 
L 701.712 72.877892 
L 702.523636 72.535712 
L 703.335273 72.255746 
L 704.146909 72.037995 
L 704.958545 71.695815 
L 705.770182 71.41585 
L 707.393455 70.949241 
L 708.205091 70.887026 
L 709.016727 70.607061 
L 709.422545 70.451525 
L 710.234182 70.327095 
L 711.857455 69.611628 
L 712.263273 69.549414 
L 713.074909 69.238341 
L 715.509818 68.833946 
L 716.321455 68.585088 
L 716.727273 68.522874 
L 717.538909 68.180694 
L 717.944727 68.118479 
L 718.350545 67.900728 
L 719.162182 67.216368 
L 723.220364 65.723219 
L 724.032 65.474361 
L 724.843636 65.25661 
L 725.655273 65.038859 
L 726.061091 64.727787 
L 727.684364 64.012319 
L 729.307636 63.32796 
L 730.119273 63.079101 
L 730.930909 62.768029 
L 732.96 61.741489 
L 733.771636 61.243772 
L 734.177455 61.150451 
L 735.394909 60.528305 
L 736.206545 60.217232 
L 737.829818 59.657302 
L 738.235636 59.470658 
L 738.641455 59.128478 
L 739.047273 59.035156 
L 739.858909 58.53744 
L 740.264727 58.444118 
L 741.076364 58.070831 
L 741.888 57.759758 
L 742.699636 57.386471 
L 743.105455 57.355364 
L 745.134545 56.577682 
L 745.540364 56.546574 
L 745.946182 56.391038 
L 746.757818 55.8 
L 747.163636 55.8 
L 747.163636 55.8 
" clip-path="url(#p6146419100)" style="fill: none; stroke: #1f77b4; stroke-width: 1.5; stroke-linecap: square"/>
   </g>
   <g id="line2d_38">
    <path d="M 138.842182 307.8 
L 142.494545 307.706678 
L 145.741091 307.551142 
L 147.364364 307.551142 
L 147.770182 307.426713 
L 149.799273 307.333391 
L 152.234182 307.053426 
L 154.669091 306.960104 
L 155.480727 306.866782 
L 158.321455 306.742353 
L 161.162182 306.649031 
L 163.191273 306.586816 
L 168.466909 306.493495 
L 170.496 306.43128 
L 174.148364 306.337958 
L 175.771636 306.306851 
L 179.829818 306.213529 
L 181.453091 306.057993 
L 183.076364 306.026886 
L 185.511273 305.933564 
L 187.134545 305.902456 
L 189.163636 305.840242 
L 190.786909 305.684706 
L 194.439273 305.591384 
L 195.250909 305.529169 
L 196.874182 305.435847 
L 199.309091 305.342526 
L 200.932364 305.249204 
L 208.237091 304.782595 
L 211.077818 304.689273 
L 212.295273 304.564844 
L 214.324364 304.471522 
L 218.382545 304.253771 
L 222.440727 304.191557 
L 224.064 304.004913 
L 226.093091 303.911591 
L 230.151273 303.507197 
L 232.586182 303.196124 
L 234.209455 303.133909 
L 237.456 302.698408 
L 239.890909 302.636193 
L 241.108364 302.511764 
L 242.325818 302.418442 
L 253.688727 301.516331 
L 254.500364 301.360795 
L 256.935273 301.267473 
L 263.428364 300.863079 
L 266.269091 300.769757 
L 267.892364 300.583113 
L 269.921455 300.489791 
L 272.356364 300.39647 
L 274.385455 300.303148 
L 276.008727 300.27204 
L 278.037818 300.209826 
L 278.849455 300.085397 
L 284.530909 299.992075 
L 285.342545 299.898753 
L 290.212364 299.805431 
L 293.864727 299.618788 
L 296.705455 299.525466 
L 298.328727 299.338822 
L 301.169455 299.245501 
L 301.981091 299.121071 
L 304.010182 299.058857 
L 308.068364 298.996642 
L 309.691636 298.841106 
L 311.314909 298.809999 
L 312.532364 298.716677 
L 314.155636 298.561141 
L 318.213818 298.34339 
L 322.272 298.250068 
L 325.924364 298.063424 
L 327.141818 298.032317 
L 327.953455 297.907888 
L 329.982545 297.814566 
L 330.794182 297.752352 
L 331.605818 297.690137 
L 332.417455 297.627922 
L 336.475636 297.534601 
L 345.403636 296.943563 
L 346.215273 296.881348 
L 347.432727 296.788026 
L 350.273455 296.694704 
L 352.302545 296.63249 
L 357.984 296.539168 
L 358.795636 296.414739 
L 364.477091 296.321417 
L 368.535273 296.103666 
L 369.346909 296.072559 
L 370.158545 295.979237 
L 372.187636 295.885915 
L 374.216727 295.823701 
L 376.245818 295.730379 
L 378.274909 295.668164 
L 381.927273 295.574843 
L 384.362182 295.481521 
L 390.043636 295.388199 
L 394.507636 295.139341 
L 396.130909 295.077126 
L 397.348364 294.983804 
L 403.029818 294.890483 
L 405.464727 294.797161 
L 412.769455 294.703839 
L 414.392727 294.672732 
L 419.262545 294.610517 
L 420.074182 294.548303 
L 425.755636 294.454981 
L 427.378909 294.423874 
L 437.930182 294.330552 
L 440.365091 294.23723 
L 457.409455 294.143908 
L 459.438545 294.081694 
L 469.989818 294.019479 
L 470.801455 293.957265 
L 472.830545 293.89505 
L 474.048 293.770621 
L 476.482909 293.677299 
L 479.323636 293.55287 
L 482.976 293.459548 
L 485.005091 293.397334 
L 487.845818 293.304012 
L 491.092364 293.148475 
L 493.121455 293.055154 
L 494.744727 293.024046 
L 501.643636 292.930725 
L 504.078545 292.837403 
L 508.542545 292.744081 
L 511.383273 292.619652 
L 514.224 292.557437 
L 515.035636 292.495223 
L 524.775273 292.401901 
L 528.833455 292.18415 
L 531.674182 292.090828 
L 536.138182 291.84197 
L 538.978909 291.748648 
L 540.602182 291.717541 
L 543.442909 291.624219 
L 545.472 291.406468 
L 549.530182 291.313147 
L 550.341818 291.219825 
L 554.4 291.126503 
L 556.429091 291.064288 
L 560.893091 291.033181 
L 561.704727 290.939859 
L 566.168727 290.846537 
L 566.980364 290.784323 
L 575.908364 290.691001 
L 578.343273 290.597679 
L 584.430545 290.504357 
L 586.053818 290.47325 
L 589.706182 290.411036 
L 590.517818 290.317714 
L 595.793455 290.224392 
L 597.822545 290.162178 
L 605.127273 290.068856 
L 606.344727 289.975534 
L 607.562182 289.882212 
L 608.779636 289.78889 
L 614.866909 289.695568 
L 617.301818 289.602247 
L 628.258909 289.508925 
L 631.911273 289.322281 
L 636.781091 289.260067 
L 637.592727 289.197852 
L 643.68 289.135638 
L 644.491636 289.073423 
L 648.955636 288.980101 
L 650.578909 288.948994 
L 657.477818 288.855672 
L 658.289455 288.793458 
L 665.594182 288.700136 
L 667.217455 288.669029 
L 670.869818 288.575707 
L 674.116364 288.42017 
L 678.580364 288.326849 
L 681.421091 288.202419 
L 685.073455 288.109098 
L 685.885091 288.046883 
L 694.001455 287.953561 
L 696.030545 287.891347 
L 698.465455 287.798025 
L 700.900364 287.704703 
L 713.074909 287.611381 
L 715.915636 287.486952 
L 722.814545 287.39363 
L 725.249455 287.300309 
L 730.525091 287.206987 
L 732.96 287.113665 
L 735.800727 287.020343 
L 738.641455 286.895914 
L 747.163636 286.8337 
L 747.163636 286.8337 
" clip-path="url(#p6146419100)" style="fill: none; stroke: #ff7f0e; stroke-width: 1.5; stroke-linecap: square"/>
   </g>
   <g id="patch_3">
    <path d="M 108 320.4 
L 108 43.2 
" style="fill: none; stroke: #a9a9a9; stroke-width: 0.8; stroke-linejoin: miter; stroke-linecap: square"/>
   </g>
   <g id="patch_4">
    <path d="M 777.6 320.4 
L 777.6 43.2 
" style="fill: none"/>
   </g>
   <g id="patch_5">
    <path d="M 108 320.4 
L 777.6 320.4 
" style="fill: none; stroke: #a9a9a9; stroke-width: 0.8; stroke-linejoin: miter; stroke-linecap: square"/>
   </g>
   <g id="patch_6">
    <path d="M 108 43.2 
L 777.6 43.2 
" style="fill: none"/>
   </g>
   <g id="text_19">
    <!-- get_subscribe history -->
    <g style="fill: #a9a9a9" transform="translate(378.6075 37.2) scale(0.12 -0.12)">
     <defs>
      <path id="DejaVuSans-67" d="M 2906 1791 
Q 2906 2416 2648 2759 
Q 2391 3103 1925 3103 
Q 1463 3103 1205 2759 
Q 947 2416 947 1791 
Q 947 1169 1205 825 
Q 1463 481 1925 481 
Q 2391 481 2648 825 
Q 2906 1169 2906 1791 
z
M 3481 434 
Q 3481 -459 3084 -895 
Q 2688 -1331 1869 -1331 
Q 1566 -1331 1297 -1286 
Q 1028 -1241 775 -1147 
L 775 -588 
Q 1028 -725 1275 -790 
Q 1522 -856 1778 -856 
Q 2344 -856 2625 -561 
Q 2906 -266 2906 331 
L 2906 616 
Q 2728 306 2450 153 
Q 2172 0 1784 0 
Q 1141 0 747 490 
Q 353 981 353 1791 
Q 353 2603 747 3093 
Q 1141 3584 1784 3584 
Q 2172 3584 2450 3431 
Q 2728 3278 2906 2969 
L 2906 3500 
L 3481 3500 
L 3481 434 
z
" transform="scale(0.015625)"/>
      <path id="DejaVuSans-65" d="M 3597 1894 
L 3597 1613 
L 953 1613 
Q 991 1019 1311 708 
Q 1631 397 2203 397 
Q 2534 397 2845 478 
Q 3156 559 3463 722 
L 3463 178 
Q 3153 47 2828 -22 
Q 2503 -91 2169 -91 
Q 1331 -91 842 396 
Q 353 884 353 1716 
Q 353 2575 817 3079 
Q 1281 3584 2069 3584 
Q 2775 3584 3186 3129 
Q 3597 2675 3597 1894 
z
M 3022 2063 
Q 3016 2534 2758 2815 
Q 2500 3097 2075 3097 
Q 1594 3097 1305 2825 
Q 1016 2553 972 2059 
L 3022 2063 
z
" transform="scale(0.015625)"/>
      <path id="DejaVuSans-74" d="M 1172 4494 
L 1172 3500 
L 2356 3500 
L 2356 3053 
L 1172 3053 
L 1172 1153 
Q 1172 725 1289 603 
Q 1406 481 1766 481 
L 2356 481 
L 2356 0 
L 1766 0 
Q 1100 0 847 248 
Q 594 497 594 1153 
L 594 3053 
L 172 3053 
L 172 3500 
L 594 3500 
L 594 4494 
L 1172 4494 
z
" transform="scale(0.015625)"/>
      <path id="DejaVuSans-5f" d="M 3263 -1063 
L 3263 -1509 
L -63 -1509 
L -63 -1063 
L 3263 -1063 
z
" transform="scale(0.015625)"/>
      <path id="DejaVuSans-73" d="M 2834 3397 
L 2834 2853 
Q 2591 2978 2328 3040 
Q 2066 3103 1784 3103 
Q 1356 3103 1142 2972 
Q 928 2841 928 2578 
Q 928 2378 1081 2264 
Q 1234 2150 1697 2047 
L 1894 2003 
Q 2506 1872 2764 1633 
Q 3022 1394 3022 966 
Q 3022 478 2636 193 
Q 2250 -91 1575 -91 
Q 1294 -91 989 -36 
Q 684 19 347 128 
L 347 722 
Q 666 556 975 473 
Q 1284 391 1588 391 
Q 1994 391 2212 530 
Q 2431 669 2431 922 
Q 2431 1156 2273 1281 
Q 2116 1406 1581 1522 
L 1381 1569 
Q 847 1681 609 1914 
Q 372 2147 372 2553 
Q 372 3047 722 3315 
Q 1072 3584 1716 3584 
Q 2034 3584 2315 3537 
Q 2597 3491 2834 3397 
z
" transform="scale(0.015625)"/>
      <path id="DejaVuSans-75" d="M 544 1381 
L 544 3500 
L 1119 3500 
L 1119 1403 
Q 1119 906 1312 657 
Q 1506 409 1894 409 
Q 2359 409 2629 706 
Q 2900 1003 2900 1516 
L 2900 3500 
L 3475 3500 
L 3475 0 
L 2900 0 
L 2900 538 
Q 2691 219 2414 64 
Q 2138 -91 1772 -91 
Q 1169 -91 856 284 
Q 544 659 544 1381 
z
M 1991 3584 
L 1991 3584 
z
" transform="scale(0.015625)"/>
      <path id="DejaVuSans-62" d="M 3116 1747 
Q 3116 2381 2855 2742 
Q 2594 3103 2138 3103 
Q 1681 3103 1420 2742 
Q 1159 2381 1159 1747 
Q 1159 1113 1420 752 
Q 1681 391 2138 391 
Q 2594 391 2855 752 
Q 3116 1113 3116 1747 
z
M 1159 2969 
Q 1341 3281 1617 3432 
Q 1894 3584 2278 3584 
Q 2916 3584 3314 3078 
Q 3713 2572 3713 1747 
Q 3713 922 3314 415 
Q 2916 -91 2278 -91 
Q 1894 -91 1617 61 
Q 1341 213 1159 525 
L 1159 0 
L 581 0 
L 581 4863 
L 1159 4863 
L 1159 2969 
z
" transform="scale(0.015625)"/>
      <path id="DejaVuSans-63" d="M 3122 3366 
L 3122 2828 
Q 2878 2963 2633 3030 
Q 2388 3097 2138 3097 
Q 1578 3097 1268 2742 
Q 959 2388 959 1747 
Q 959 1106 1268 751 
Q 1578 397 2138 397 
Q 2388 397 2633 464 
Q 2878 531 3122 666 
L 3122 134 
Q 2881 22 2623 -34 
Q 2366 -91 2075 -91 
Q 1284 -91 818 406 
Q 353 903 353 1747 
Q 353 2603 823 3093 
Q 1294 3584 2113 3584 
Q 2378 3584 2631 3529 
Q 2884 3475 3122 3366 
z
" transform="scale(0.015625)"/>
      <path id="DejaVuSans-72" d="M 2631 2963 
Q 2534 3019 2420 3045 
Q 2306 3072 2169 3072 
Q 1681 3072 1420 2755 
Q 1159 2438 1159 1844 
L 1159 0 
L 581 0 
L 581 3500 
L 1159 3500 
L 1159 2956 
Q 1341 3275 1631 3429 
Q 1922 3584 2338 3584 
Q 2397 3584 2469 3576 
Q 2541 3569 2628 3553 
L 2631 2963 
z
" transform="scale(0.015625)"/>
      <path id="DejaVuSans-69" d="M 603 3500 
L 1178 3500 
L 1178 0 
L 603 0 
L 603 3500 
z
M 603 4863 
L 1178 4863 
L 1178 4134 
L 603 4134 
L 603 4863 
z
" transform="scale(0.015625)"/>
      <path id="DejaVuSans-20" transform="scale(0.015625)"/>
      <path id="DejaVuSans-68" d="M 3513 2113 
L 3513 0 
L 2938 0 
L 2938 2094 
Q 2938 2591 2744 2837 
Q 2550 3084 2163 3084 
Q 1697 3084 1428 2787 
Q 1159 2491 1159 1978 
L 1159 0 
L 581 0 
L 581 4863 
L 1159 4863 
L 1159 2956 
Q 1366 3272 1645 3428 
Q 1925 3584 2291 3584 
Q 2894 3584 3203 3211 
Q 3513 2838 3513 2113 
z
" transform="scale(0.015625)"/>
      <path id="DejaVuSans-6f" d="M 1959 3097 
Q 1497 3097 1228 2736 
Q 959 2375 959 1747 
Q 959 1119 1226 758 
Q 1494 397 1959 397 
Q 2419 397 2687 759 
Q 2956 1122 2956 1747 
Q 2956 2369 2687 2733 
Q 2419 3097 1959 3097 
z
M 1959 3584 
Q 2709 3584 3137 3096 
Q 3566 2609 3566 1747 
Q 3566 888 3137 398 
Q 2709 -91 1959 -91 
Q 1206 -91 779 398 
Q 353 888 353 1747 
Q 353 2609 779 3096 
Q 1206 3584 1959 3584 
z
" transform="scale(0.015625)"/>
      <path id="DejaVuSans-79" d="M 2059 -325 
Q 1816 -950 1584 -1140 
Q 1353 -1331 966 -1331 
L 506 -1331 
L 506 -850 
L 844 -850 
Q 1081 -850 1212 -737 
Q 1344 -625 1503 -206 
L 1606 56 
L 191 3500 
L 800 3500 
L 1894 763 
L 2988 3500 
L 3597 3500 
L 2059 -325 
z
" transform="scale(0.015625)"/>
     </defs>
     <use xlink:href="#DejaVuSans-67"/>
     <use xlink:href="#DejaVuSans-65" transform="translate(63.476562 0)"/>
     <use xlink:href="#DejaVuSans-74" transform="translate(125 0)"/>
     <use xlink:href="#DejaVuSans-5f" transform="translate(164.208984 0)"/>
     <use xlink:href="#DejaVuSans-73" transform="translate(214.208984 0)"/>
     <use xlink:href="#DejaVuSans-75" transform="translate(266.308594 0)"/>
     <use xlink:href="#DejaVuSans-62" transform="translate(329.6875 0)"/>
     <use xlink:href="#DejaVuSans-73" transform="translate(393.164062 0)"/>
     <use xlink:href="#DejaVuSans-63" transform="translate(445.263672 0)"/>
     <use xlink:href="#DejaVuSans-72" transform="translate(500.244141 0)"/>
     <use xlink:href="#DejaVuSans-69" transform="translate(541.357422 0)"/>
     <use xlink:href="#DejaVuSans-62" transform="translate(569.140625 0)"/>
     <use xlink:href="#DejaVuSans-65" transform="translate(632.617188 0)"/>
     <use xlink:href="#DejaVuSans-20" transform="translate(694.140625 0)"/>
     <use xlink:href="#DejaVuSans-68" transform="translate(725.927734 0)"/>
     <use xlink:href="#DejaVuSans-69" transform="translate(789.306641 0)"/>
     <use xlink:href="#DejaVuSans-73" transform="translate(817.089844 0)"/>
     <use xlink:href="#DejaVuSans-74" transform="translate(869.189453 0)"/>
     <use xlink:href="#DejaVuSans-6f" transform="translate(908.398438 0)"/>
     <use xlink:href="#DejaVuSans-72" transform="translate(969.580078 0)"/>
     <use xlink:href="#DejaVuSans-79" transform="translate(1010.693359 0)"/>
    </g>
   </g>
   <g id="legend_1">
    <g id="line2d_39">
     <path d="M 815.08 328.498438 
L 825.08 328.498438 
L 835.08 328.498438 
" style="fill: none; stroke: #1f77b4; stroke-width: 1.5; stroke-linecap: square"/>
    </g>
    <g id="text_20">
     <!-- star -->
     <g style="fill: #a9a9a9" transform="translate(843.08 331.998438) scale(0.1 -0.1)">
      <defs>
       <path id="DejaVuSans-61" d="M 2194 1759 
Q 1497 1759 1228 1600 
Q 959 1441 959 1056 
Q 959 750 1161 570 
Q 1363 391 1709 391 
Q 2188 391 2477 730 
Q 2766 1069 2766 1631 
L 2766 1759 
L 2194 1759 
z
M 3341 1997 
L 3341 0 
L 2766 0 
L 2766 531 
Q 2569 213 2275 61 
Q 1981 -91 1556 -91 
Q 1019 -91 701 211 
Q 384 513 384 1019 
Q 384 1609 779 1909 
Q 1175 2209 1959 2209 
L 2766 2209 
L 2766 2266 
Q 2766 2663 2505 2880 
Q 2244 3097 1772 3097 
Q 1472 3097 1187 3025 
Q 903 2953 641 2809 
L 641 3341 
Q 956 3463 1253 3523 
Q 1550 3584 1831 3584 
Q 2591 3584 2966 3190 
Q 3341 2797 3341 1997 
z
" transform="scale(0.015625)"/>
      </defs>
      <use xlink:href="#DejaVuSans-73"/>
      <use xlink:href="#DejaVuSans-74" transform="translate(52.099609 0)"/>
      <use xlink:href="#DejaVuSans-61" transform="translate(91.308594 0)"/>
      <use xlink:href="#DejaVuSans-72" transform="translate(152.587891 0)"/>
     </g>
    </g>
    <g id="line2d_40">
     <path d="M 815.08 343.176562 
L 825.08 343.176562 
L 835.08 343.176562 
" style="fill: none; stroke: #ff7f0e; stroke-width: 1.5; stroke-linecap: square"/>
    </g>
    <g id="text_21">
     <!-- fork -->
     <g style="fill: #a9a9a9" transform="translate(843.08 346.676562) scale(0.1 -0.1)">
      <defs>
       <path id="DejaVuSans-66" d="M 2375 4863 
L 2375 4384 
L 1825 4384 
Q 1516 4384 1395 4259 
Q 1275 4134 1275 3809 
L 1275 3500 
L 2222 3500 
L 2222 3053 
L 1275 3053 
L 1275 0 
L 697 0 
L 697 3053 
L 147 3053 
L 147 3500 
L 697 3500 
L 697 3744 
Q 697 4328 969 4595 
Q 1241 4863 1831 4863 
L 2375 4863 
z
" transform="scale(0.015625)"/>
       <path id="DejaVuSans-6b" d="M 581 4863 
L 1159 4863 
L 1159 1991 
L 2875 3500 
L 3609 3500 
L 1753 1863 
L 3688 0 
L 2938 0 
L 1159 1709 
L 1159 0 
L 581 0 
L 581 4863 
z
" transform="scale(0.015625)"/>
      </defs>
      <use xlink:href="#DejaVuSans-66"/>
      <use xlink:href="#DejaVuSans-6f" transform="translate(35.205078 0)"/>
      <use xlink:href="#DejaVuSans-72" transform="translate(96.386719 0)"/>
      <use xlink:href="#DejaVuSans-6b" transform="translate(137.5 0)"/>
     </g>
    </g>
   </g>
  </g>
 </g>
 <defs>
  <clipPath id="p6146419100">
   <rect x="108" y="43.2" width="669.6" height="277.2"/>
  </clipPath>
 </defs>
</svg>
