<?xml version="1.0" encoding="utf-8" standalone="no"?>
<!DOCTYPE svg PUBLIC "-//W3C//DTD SVG 1.1//EN"
  "http://www.w3.org/Graphics/SVG/1.1/DTD/svg11.dtd">
<svg xmlns:xlink="http://www.w3.org/1999/xlink" width="864pt" height="360pt" viewBox="0 0 864 360" xmlns="http://www.w3.org/2000/svg" version="1.1">
 <metadata>
  <rdf:RDF xmlns:dc="http://purl.org/dc/elements/1.1/" xmlns:cc="http://creativecommons.org/ns#" xmlns:rdf="http://www.w3.org/1999/02/22-rdf-syntax-ns#">
   <cc:Work>
    <dc:type rdf:resource="http://purl.org/dc/dcmitype/StillImage"/>
    <dc:date>2025-09-19T20:06:51.486409</dc:date>
    <dc:format>image/svg+xml</dc:format>
    <dc:creator>
     <cc:Agent>
      <dc:title>Matplotlib v3.10.6, https://matplotlib.org/</dc:title>
     </cc:Agent>
    </dc:creator>
   </cc:Work>
  </rdf:RDF>
 </metadata>
 <defs>
  <style type="text/css">*{stroke-linejoin: round; stroke-linecap: butt}</style>
 </defs>
 <g id="figure_1">
  <g id="patch_1">
   <path d="M 0 360 
L 864 360 
L 864 0 
L 0 0 
L 0 360 
z
" style="fill: none; opacity: 0"/>
  </g>
  <g id="axes_1">
   <g id="patch_2">
    <path d="M 108 320.4 
L 777.6 320.4 
L 777.6 43.2 
L 108 43.2 
L 108 320.4 
z
" style="fill: none; opacity: 0"/>
   </g>
   <g id="matplotlib.axis_1">
    <g id="xtick_1">
     <g id="line2d_1">
      <path d="M 129.213223 320.4 
L 129.213223 43.2 
" clip-path="url(#p7bf71b8c83)" style="fill: none; stroke-dasharray: 5.12,1.28,0.8,1.28; stroke-dashoffset: 0; stroke: #b0b0b0; stroke-width: 0.8"/>
     </g>
     <g id="line2d_2">
      <defs>
       <path id="m22eecc427d" d="M 0 0 
L 0 3.5 
" style="stroke: #a9a9a9; stroke-width: 0.8"/>
      </defs>
      <g>
       <use xlink:href="#m22eecc427d" x="129.213223" y="320.4" style="fill: #a9a9a9; stroke: #a9a9a9; stroke-width: 0.8"/>
      </g>
     </g>
     <g id="text_1">
      <!-- 2021-07 -->
      <g style="fill: #a9a9a9" transform="translate(108.321817 334.998438) scale(0.1 -0.1)">
       <defs>
        <path id="DejaVuSans-32" d="M 1228 531 
L 3431 531 
L 3431 0 
L 469 0 
L 469 531 
Q 828 903 1448 1529 
Q 2069 2156 2228 2338 
Q 2531 2678 2651 2914 
Q 2772 3150 2772 3378 
Q 2772 3750 2511 3984 
Q 2250 4219 1831 4219 
Q 1534 4219 1204 4116 
Q 875 4013 500 3803 
L 500 4441 
Q 881 4594 1212 4672 
Q 1544 4750 1819 4750 
Q 2544 4750 2975 4387 
Q 3406 4025 3406 3419 
Q 3406 3131 3298 2873 
Q 3191 2616 2906 2266 
Q 2828 2175 2409 1742 
Q 1991 1309 1228 531 
z
" transform="scale(0.015625)"/>
        <path id="DejaVuSans-30" d="M 2034 4250 
Q 1547 4250 1301 3770 
Q 1056 3291 1056 2328 
Q 1056 1369 1301 889 
Q 1547 409 2034 409 
Q 2525 409 2770 889 
Q 3016 1369 3016 2328 
Q 3016 3291 2770 3770 
Q 2525 4250 2034 4250 
z
M 2034 4750 
Q 2819 4750 3233 4129 
Q 3647 3509 3647 2328 
Q 3647 1150 3233 529 
Q 2819 -91 2034 -91 
Q 1250 -91 836 529 
Q 422 1150 422 2328 
Q 422 3509 836 4129 
Q 1250 4750 2034 4750 
z
" transform="scale(0.015625)"/>
        <path id="DejaVuSans-31" d="M 794 531 
L 1825 531 
L 1825 4091 
L 703 3866 
L 703 4441 
L 1819 4666 
L 2450 4666 
L 2450 531 
L 3481 531 
L 3481 0 
L 794 0 
L 794 531 
z
" transform="scale(0.015625)"/>
        <path id="DejaVuSans-2d" d="M 313 2009 
L 1997 2009 
L 1997 1497 
L 313 1497 
L 313 2009 
z
" transform="scale(0.015625)"/>
        <path id="DejaVuSans-37" d="M 525 4666 
L 3525 4666 
L 3525 4397 
L 1831 0 
L 1172 0 
L 2766 4134 
L 525 4134 
L 525 4666 
z
" transform="scale(0.015625)"/>
       </defs>
       <use xlink:href="#DejaVuSans-32"/>
       <use xlink:href="#DejaVuSans-30" transform="translate(63.623047 0)"/>
       <use xlink:href="#DejaVuSans-32" transform="translate(127.246094 0)"/>
       <use xlink:href="#DejaVuSans-31" transform="translate(190.869141 0)"/>
       <use xlink:href="#DejaVuSans-2d" transform="translate(254.492188 0)"/>
       <use xlink:href="#DejaVuSans-30" transform="translate(290.576172 0)"/>
       <use xlink:href="#DejaVuSans-37" transform="translate(354.199219 0)"/>
      </g>
     </g>
    </g>
    <g id="xtick_2">
     <g id="line2d_3">
      <path d="M 202.998347 320.4 
L 202.998347 43.2 
" clip-path="url(#p7bf71b8c83)" style="fill: none; stroke-dasharray: 5.12,1.28,0.8,1.28; stroke-dashoffset: 0; stroke: #b0b0b0; stroke-width: 0.8"/>
     </g>
     <g id="line2d_4">
      <g>
       <use xlink:href="#m22eecc427d" x="202.998347" y="320.4" style="fill: #a9a9a9; stroke: #a9a9a9; stroke-width: 0.8"/>
      </g>
     </g>
     <g id="text_2">
      <!-- 2022-01 -->
      <g style="fill: #a9a9a9" transform="translate(182.106941 334.998438) scale(0.1 -0.1)">
       <use xlink:href="#DejaVuSans-32"/>
       <use xlink:href="#DejaVuSans-30" transform="translate(63.623047 0)"/>
       <use xlink:href="#DejaVuSans-32" transform="translate(127.246094 0)"/>
       <use xlink:href="#DejaVuSans-32" transform="translate(190.869141 0)"/>
       <use xlink:href="#DejaVuSans-2d" transform="translate(254.492188 0)"/>
       <use xlink:href="#DejaVuSans-30" transform="translate(290.576172 0)"/>
       <use xlink:href="#DejaVuSans-31" transform="translate(354.199219 0)"/>
      </g>
     </g>
    </g>
    <g id="xtick_3">
     <g id="line2d_5">
      <path d="M 275.580453 320.4 
L 275.580453 43.2 
" clip-path="url(#p7bf71b8c83)" style="fill: none; stroke-dasharray: 5.12,1.28,0.8,1.28; stroke-dashoffset: 0; stroke: #b0b0b0; stroke-width: 0.8"/>
     </g>
     <g id="line2d_6">
      <g>
       <use xlink:href="#m22eecc427d" x="275.580453" y="320.4" style="fill: #a9a9a9; stroke: #a9a9a9; stroke-width: 0.8"/>
      </g>
     </g>
     <g id="text_3">
      <!-- 2022-07 -->
      <g style="fill: #a9a9a9" transform="translate(254.689046 334.998438) scale(0.1 -0.1)">
       <use xlink:href="#DejaVuSans-32"/>
       <use xlink:href="#DejaVuSans-30" transform="translate(63.623047 0)"/>
       <use xlink:href="#DejaVuSans-32" transform="translate(127.246094 0)"/>
       <use xlink:href="#DejaVuSans-32" transform="translate(190.869141 0)"/>
       <use xlink:href="#DejaVuSans-2d" transform="translate(254.492188 0)"/>
       <use xlink:href="#DejaVuSans-30" transform="translate(290.576172 0)"/>
       <use xlink:href="#DejaVuSans-37" transform="translate(354.199219 0)"/>
      </g>
     </g>
    </g>
    <g id="xtick_4">
     <g id="line2d_7">
      <path d="M 349.365577 320.4 
L 349.365577 43.2 
" clip-path="url(#p7bf71b8c83)" style="fill: none; stroke-dasharray: 5.12,1.28,0.8,1.28; stroke-dashoffset: 0; stroke: #b0b0b0; stroke-width: 0.8"/>
     </g>
     <g id="line2d_8">
      <g>
       <use xlink:href="#m22eecc427d" x="349.365577" y="320.4" style="fill: #a9a9a9; stroke: #a9a9a9; stroke-width: 0.8"/>
      </g>
     </g>
     <g id="text_4">
      <!-- 2023-01 -->
      <g style="fill: #a9a9a9" transform="translate(328.47417 334.998438) scale(0.1 -0.1)">
       <defs>
        <path id="DejaVuSans-33" d="M 2597 2516 
Q 3050 2419 3304 2112 
Q 3559 1806 3559 1356 
Q 3559 666 3084 287 
Q 2609 -91 1734 -91 
Q 1441 -91 1130 -33 
Q 819 25 488 141 
L 488 750 
Q 750 597 1062 519 
Q 1375 441 1716 441 
Q 2309 441 2620 675 
Q 2931 909 2931 1356 
Q 2931 1769 2642 2001 
Q 2353 2234 1838 2234 
L 1294 2234 
L 1294 2753 
L 1863 2753 
Q 2328 2753 2575 2939 
Q 2822 3125 2822 3475 
Q 2822 3834 2567 4026 
Q 2313 4219 1838 4219 
Q 1578 4219 1281 4162 
Q 984 4106 628 3988 
L 628 4550 
Q 988 4650 1302 4700 
Q 1616 4750 1894 4750 
Q 2613 4750 3031 4423 
Q 3450 4097 3450 3541 
Q 3450 3153 3228 2886 
Q 3006 2619 2597 2516 
z
" transform="scale(0.015625)"/>
       </defs>
       <use xlink:href="#DejaVuSans-32"/>
       <use xlink:href="#DejaVuSans-30" transform="translate(63.623047 0)"/>
       <use xlink:href="#DejaVuSans-32" transform="translate(127.246094 0)"/>
       <use xlink:href="#DejaVuSans-33" transform="translate(190.869141 0)"/>
       <use xlink:href="#DejaVuSans-2d" transform="translate(254.492188 0)"/>
       <use xlink:href="#DejaVuSans-30" transform="translate(290.576172 0)"/>
       <use xlink:href="#DejaVuSans-31" transform="translate(354.199219 0)"/>
      </g>
     </g>
    </g>
    <g id="xtick_5">
     <g id="line2d_9">
      <path d="M 421.947682 320.4 
L 421.947682 43.2 
" clip-path="url(#p7bf71b8c83)" style="fill: none; stroke-dasharray: 5.12,1.28,0.8,1.28; stroke-dashoffset: 0; stroke: #b0b0b0; stroke-width: 0.8"/>
     </g>
     <g id="line2d_10">
      <g>
       <use xlink:href="#m22eecc427d" x="421.947682" y="320.4" style="fill: #a9a9a9; stroke: #a9a9a9; stroke-width: 0.8"/>
      </g>
     </g>
     <g id="text_5">
      <!-- 2023-07 -->
      <g style="fill: #a9a9a9" transform="translate(401.056276 334.998438) scale(0.1 -0.1)">
       <use xlink:href="#DejaVuSans-32"/>
       <use xlink:href="#DejaVuSans-30" transform="translate(63.623047 0)"/>
       <use xlink:href="#DejaVuSans-32" transform="translate(127.246094 0)"/>
       <use xlink:href="#DejaVuSans-33" transform="translate(190.869141 0)"/>
       <use xlink:href="#DejaVuSans-2d" transform="translate(254.492188 0)"/>
       <use xlink:href="#DejaVuSans-30" transform="translate(290.576172 0)"/>
       <use xlink:href="#DejaVuSans-37" transform="translate(354.199219 0)"/>
      </g>
     </g>
    </g>
    <g id="xtick_6">
     <g id="line2d_11">
      <path d="M 495.732806 320.4 
L 495.732806 43.2 
" clip-path="url(#p7bf71b8c83)" style="fill: none; stroke-dasharray: 5.12,1.28,0.8,1.28; stroke-dashoffset: 0; stroke: #b0b0b0; stroke-width: 0.8"/>
     </g>
     <g id="line2d_12">
      <g>
       <use xlink:href="#m22eecc427d" x="495.732806" y="320.4" style="fill: #a9a9a9; stroke: #a9a9a9; stroke-width: 0.8"/>
      </g>
     </g>
     <g id="text_6">
      <!-- 2024-01 -->
      <g style="fill: #a9a9a9" transform="translate(474.8414 334.998438) scale(0.1 -0.1)">
       <defs>
        <path id="DejaVuSans-34" d="M 2419 4116 
L 825 1625 
L 2419 1625 
L 2419 4116 
z
M 2253 4666 
L 3047 4666 
L 3047 1625 
L 3713 1625 
L 3713 1100 
L 3047 1100 
L 3047 0 
L 2419 0 
L 2419 1100 
L 313 1100 
L 313 1709 
L 2253 4666 
z
" transform="scale(0.015625)"/>
       </defs>
       <use xlink:href="#DejaVuSans-32"/>
       <use xlink:href="#DejaVuSans-30" transform="translate(63.623047 0)"/>
       <use xlink:href="#DejaVuSans-32" transform="translate(127.246094 0)"/>
       <use xlink:href="#DejaVuSans-34" transform="translate(190.869141 0)"/>
       <use xlink:href="#DejaVuSans-2d" transform="translate(254.492188 0)"/>
       <use xlink:href="#DejaVuSans-30" transform="translate(290.576172 0)"/>
       <use xlink:href="#DejaVuSans-31" transform="translate(354.199219 0)"/>
      </g>
     </g>
    </g>
    <g id="xtick_7">
     <g id="line2d_13">
      <path d="M 568.715918 320.4 
L 568.715918 43.2 
" clip-path="url(#p7bf71b8c83)" style="fill: none; stroke-dasharray: 5.12,1.28,0.8,1.28; stroke-dashoffset: 0; stroke: #b0b0b0; stroke-width: 0.8"/>
     </g>
     <g id="line2d_14">
      <g>
       <use xlink:href="#m22eecc427d" x="568.715918" y="320.4" style="fill: #a9a9a9; stroke: #a9a9a9; stroke-width: 0.8"/>
      </g>
     </g>
     <g id="text_7">
      <!-- 2024-07 -->
      <g style="fill: #a9a9a9" transform="translate(547.824512 334.998438) scale(0.1 -0.1)">
       <use xlink:href="#DejaVuSans-32"/>
       <use xlink:href="#DejaVuSans-30" transform="translate(63.623047 0)"/>
       <use xlink:href="#DejaVuSans-32" transform="translate(127.246094 0)"/>
       <use xlink:href="#DejaVuSans-34" transform="translate(190.869141 0)"/>
       <use xlink:href="#DejaVuSans-2d" transform="translate(254.492188 0)"/>
       <use xlink:href="#DejaVuSans-30" transform="translate(290.576172 0)"/>
       <use xlink:href="#DejaVuSans-37" transform="translate(354.199219 0)"/>
      </g>
     </g>
    </g>
    <g id="xtick_8">
     <g id="line2d_15">
      <path d="M 642.501042 320.4 
L 642.501042 43.2 
" clip-path="url(#p7bf71b8c83)" style="fill: none; stroke-dasharray: 5.12,1.28,0.8,1.28; stroke-dashoffset: 0; stroke: #b0b0b0; stroke-width: 0.8"/>
     </g>
     <g id="line2d_16">
      <g>
       <use xlink:href="#m22eecc427d" x="642.501042" y="320.4" style="fill: #a9a9a9; stroke: #a9a9a9; stroke-width: 0.8"/>
      </g>
     </g>
     <g id="text_8">
      <!-- 2025-01 -->
      <g style="fill: #a9a9a9" transform="translate(621.609636 334.998438) scale(0.1 -0.1)">
       <defs>
        <path id="DejaVuSans-35" d="M 691 4666 
L 3169 4666 
L 3169 4134 
L 1269 4134 
L 1269 2991 
Q 1406 3038 1543 3061 
Q 1681 3084 1819 3084 
Q 2600 3084 3056 2656 
Q 3513 2228 3513 1497 
Q 3513 744 3044 326 
Q 2575 -91 1722 -91 
Q 1428 -91 1123 -41 
Q 819 9 494 109 
L 494 744 
Q 775 591 1075 516 
Q 1375 441 1709 441 
Q 2250 441 2565 725 
Q 2881 1009 2881 1497 
Q 2881 1984 2565 2268 
Q 2250 2553 1709 2553 
Q 1456 2553 1204 2497 
Q 953 2441 691 2322 
L 691 4666 
z
" transform="scale(0.015625)"/>
       </defs>
       <use xlink:href="#DejaVuSans-32"/>
       <use xlink:href="#DejaVuSans-30" transform="translate(63.623047 0)"/>
       <use xlink:href="#DejaVuSans-32" transform="translate(127.246094 0)"/>
       <use xlink:href="#DejaVuSans-35" transform="translate(190.869141 0)"/>
       <use xlink:href="#DejaVuSans-2d" transform="translate(254.492188 0)"/>
       <use xlink:href="#DejaVuSans-30" transform="translate(290.576172 0)"/>
       <use xlink:href="#DejaVuSans-31" transform="translate(354.199219 0)"/>
      </g>
     </g>
    </g>
    <g id="xtick_9">
     <g id="line2d_17">
      <path d="M 715.083148 320.4 
L 715.083148 43.2 
" clip-path="url(#p7bf71b8c83)" style="fill: none; stroke-dasharray: 5.12,1.28,0.8,1.28; stroke-dashoffset: 0; stroke: #b0b0b0; stroke-width: 0.8"/>
     </g>
     <g id="line2d_18">
      <g>
       <use xlink:href="#m22eecc427d" x="715.083148" y="320.4" style="fill: #a9a9a9; stroke: #a9a9a9; stroke-width: 0.8"/>
      </g>
     </g>
     <g id="text_9">
      <!-- 2025-07 -->
      <g style="fill: #a9a9a9" transform="translate(694.191741 334.998438) scale(0.1 -0.1)">
       <use xlink:href="#DejaVuSans-32"/>
       <use xlink:href="#DejaVuSans-30" transform="translate(63.623047 0)"/>
       <use xlink:href="#DejaVuSans-32" transform="translate(127.246094 0)"/>
       <use xlink:href="#DejaVuSans-35" transform="translate(190.869141 0)"/>
       <use xlink:href="#DejaVuSans-2d" transform="translate(254.492188 0)"/>
       <use xlink:href="#DejaVuSans-30" transform="translate(290.576172 0)"/>
       <use xlink:href="#DejaVuSans-37" transform="translate(354.199219 0)"/>
      </g>
     </g>
    </g>
   </g>
   <g id="matplotlib.axis_2">
    <g id="ytick_1">
     <g id="line2d_19">
      <path d="M 108 307.830939 
L 777.6 307.830939 
" clip-path="url(#p7bf71b8c83)" style="fill: none; stroke-dasharray: 5.12,1.28,0.8,1.28; stroke-dashoffset: 0; stroke: #b0b0b0; stroke-width: 0.8"/>
     </g>
     <g id="line2d_20">
      <defs>
       <path id="mff7c95210d" d="M 0 0 
L -3.5 0 
" style="stroke: #a9a9a9; stroke-width: 0.8"/>
      </defs>
      <g>
       <use xlink:href="#mff7c95210d" x="108" y="307.830939" style="fill: #a9a9a9; stroke: #a9a9a9; stroke-width: 0.8"/>
      </g>
     </g>
     <g id="text_10">
      <!-- 0 -->
      <g style="fill: #a9a9a9" transform="translate(94.6375 311.630158) scale(0.1 -0.1)">
       <use xlink:href="#DejaVuSans-30"/>
      </g>
     </g>
    </g>
    <g id="ytick_2">
     <g id="line2d_21">
      <path d="M 108 276.891713 
L 777.6 276.891713 
" clip-path="url(#p7bf71b8c83)" style="fill: none; stroke-dasharray: 5.12,1.28,0.8,1.28; stroke-dashoffset: 0; stroke: #b0b0b0; stroke-width: 0.8"/>
     </g>
     <g id="line2d_22">
      <g>
       <use xlink:href="#mff7c95210d" x="108" y="276.891713" style="fill: #a9a9a9; stroke: #a9a9a9; stroke-width: 0.8"/>
      </g>
     </g>
     <g id="text_11">
      <!-- 1000 -->
      <g style="fill: #a9a9a9" transform="translate(75.55 280.690931) scale(0.1 -0.1)">
       <use xlink:href="#DejaVuSans-31"/>
       <use xlink:href="#DejaVuSans-30" transform="translate(63.623047 0)"/>
       <use xlink:href="#DejaVuSans-30" transform="translate(127.246094 0)"/>
       <use xlink:href="#DejaVuSans-30" transform="translate(190.869141 0)"/>
      </g>
     </g>
    </g>
    <g id="ytick_3">
     <g id="line2d_23">
      <path d="M 108 245.952486 
L 777.6 245.952486 
" clip-path="url(#p7bf71b8c83)" style="fill: none; stroke-dasharray: 5.12,1.28,0.8,1.28; stroke-dashoffset: 0; stroke: #b0b0b0; stroke-width: 0.8"/>
     </g>
     <g id="line2d_24">
      <g>
       <use xlink:href="#mff7c95210d" x="108" y="245.952486" style="fill: #a9a9a9; stroke: #a9a9a9; stroke-width: 0.8"/>
      </g>
     </g>
     <g id="text_12">
      <!-- 2000 -->
      <g style="fill: #a9a9a9" transform="translate(75.55 249.751705) scale(0.1 -0.1)">
       <use xlink:href="#DejaVuSans-32"/>
       <use xlink:href="#DejaVuSans-30" transform="translate(63.623047 0)"/>
       <use xlink:href="#DejaVuSans-30" transform="translate(127.246094 0)"/>
       <use xlink:href="#DejaVuSans-30" transform="translate(190.869141 0)"/>
      </g>
     </g>
    </g>
    <g id="ytick_4">
     <g id="line2d_25">
      <path d="M 108 215.01326 
L 777.6 215.01326 
" clip-path="url(#p7bf71b8c83)" style="fill: none; stroke-dasharray: 5.12,1.28,0.8,1.28; stroke-dashoffset: 0; stroke: #b0b0b0; stroke-width: 0.8"/>
     </g>
     <g id="line2d_26">
      <g>
       <use xlink:href="#mff7c95210d" x="108" y="215.01326" style="fill: #a9a9a9; stroke: #a9a9a9; stroke-width: 0.8"/>
      </g>
     </g>
     <g id="text_13">
      <!-- 3000 -->
      <g style="fill: #a9a9a9" transform="translate(75.55 218.812478) scale(0.1 -0.1)">
       <use xlink:href="#DejaVuSans-33"/>
       <use xlink:href="#DejaVuSans-30" transform="translate(63.623047 0)"/>
       <use xlink:href="#DejaVuSans-30" transform="translate(127.246094 0)"/>
       <use xlink:href="#DejaVuSans-30" transform="translate(190.869141 0)"/>
      </g>
     </g>
    </g>
    <g id="ytick_5">
     <g id="line2d_27">
      <path d="M 108 184.074033 
L 777.6 184.074033 
" clip-path="url(#p7bf71b8c83)" style="fill: none; stroke-dasharray: 5.12,1.28,0.8,1.28; stroke-dashoffset: 0; stroke: #b0b0b0; stroke-width: 0.8"/>
     </g>
     <g id="line2d_28">
      <g>
       <use xlink:href="#mff7c95210d" x="108" y="184.074033" style="fill: #a9a9a9; stroke: #a9a9a9; stroke-width: 0.8"/>
      </g>
     </g>
     <g id="text_14">
      <!-- 4000 -->
      <g style="fill: #a9a9a9" transform="translate(75.55 187.873252) scale(0.1 -0.1)">
       <use xlink:href="#DejaVuSans-34"/>
       <use xlink:href="#DejaVuSans-30" transform="translate(63.623047 0)"/>
       <use xlink:href="#DejaVuSans-30" transform="translate(127.246094 0)"/>
       <use xlink:href="#DejaVuSans-30" transform="translate(190.869141 0)"/>
      </g>
     </g>
    </g>
    <g id="ytick_6">
     <g id="line2d_29">
      <path d="M 108 153.134807 
L 777.6 153.134807 
" clip-path="url(#p7bf71b8c83)" style="fill: none; stroke-dasharray: 5.12,1.28,0.8,1.28; stroke-dashoffset: 0; stroke: #b0b0b0; stroke-width: 0.8"/>
     </g>
     <g id="line2d_30">
      <g>
       <use xlink:href="#mff7c95210d" x="108" y="153.134807" style="fill: #a9a9a9; stroke: #a9a9a9; stroke-width: 0.8"/>
      </g>
     </g>
     <g id="text_15">
      <!-- 5000 -->
      <g style="fill: #a9a9a9" transform="translate(75.55 156.934025) scale(0.1 -0.1)">
       <use xlink:href="#DejaVuSans-35"/>
       <use xlink:href="#DejaVuSans-30" transform="translate(63.623047 0)"/>
       <use xlink:href="#DejaVuSans-30" transform="translate(127.246094 0)"/>
       <use xlink:href="#DejaVuSans-30" transform="translate(190.869141 0)"/>
      </g>
     </g>
    </g>
    <g id="ytick_7">
     <g id="line2d_31">
      <path d="M 108 122.19558 
L 777.6 122.19558 
" clip-path="url(#p7bf71b8c83)" style="fill: none; stroke-dasharray: 5.12,1.28,0.8,1.28; stroke-dashoffset: 0; stroke: #b0b0b0; stroke-width: 0.8"/>
     </g>
     <g id="line2d_32">
      <g>
       <use xlink:href="#mff7c95210d" x="108" y="122.19558" style="fill: #a9a9a9; stroke: #a9a9a9; stroke-width: 0.8"/>
      </g>
     </g>
     <g id="text_16">
      <!-- 6000 -->
      <g style="fill: #a9a9a9" transform="translate(75.55 125.994799) scale(0.1 -0.1)">
       <defs>
        <path id="DejaVuSans-36" d="M 2113 2584 
Q 1688 2584 1439 2293 
Q 1191 2003 1191 1497 
Q 1191 994 1439 701 
Q 1688 409 2113 409 
Q 2538 409 2786 701 
Q 3034 994 3034 1497 
Q 3034 2003 2786 2293 
Q 2538 2584 2113 2584 
z
M 3366 4563 
L 3366 3988 
Q 3128 4100 2886 4159 
Q 2644 4219 2406 4219 
Q 1781 4219 1451 3797 
Q 1122 3375 1075 2522 
Q 1259 2794 1537 2939 
Q 1816 3084 2150 3084 
Q 2853 3084 3261 2657 
Q 3669 2231 3669 1497 
Q 3669 778 3244 343 
Q 2819 -91 2113 -91 
Q 1303 -91 875 529 
Q 447 1150 447 2328 
Q 447 3434 972 4092 
Q 1497 4750 2381 4750 
Q 2619 4750 2861 4703 
Q 3103 4656 3366 4563 
z
" transform="scale(0.015625)"/>
       </defs>
       <use xlink:href="#DejaVuSans-36"/>
       <use xlink:href="#DejaVuSans-30" transform="translate(63.623047 0)"/>
       <use xlink:href="#DejaVuSans-30" transform="translate(127.246094 0)"/>
       <use xlink:href="#DejaVuSans-30" transform="translate(190.869141 0)"/>
      </g>
     </g>
    </g>
    <g id="ytick_8">
     <g id="line2d_33">
      <path d="M 108 91.256354 
L 777.6 91.256354 
" clip-path="url(#p7bf71b8c83)" style="fill: none; stroke-dasharray: 5.12,1.28,0.8,1.28; stroke-dashoffset: 0; stroke: #b0b0b0; stroke-width: 0.8"/>
     </g>
     <g id="line2d_34">
      <g>
       <use xlink:href="#mff7c95210d" x="108" y="91.256354" style="fill: #a9a9a9; stroke: #a9a9a9; stroke-width: 0.8"/>
      </g>
     </g>
     <g id="text_17">
      <!-- 7000 -->
      <g style="fill: #a9a9a9" transform="translate(75.55 95.055572) scale(0.1 -0.1)">
       <use xlink:href="#DejaVuSans-37"/>
       <use xlink:href="#DejaVuSans-30" transform="translate(63.623047 0)"/>
       <use xlink:href="#DejaVuSans-30" transform="translate(127.246094 0)"/>
       <use xlink:href="#DejaVuSans-30" transform="translate(190.869141 0)"/>
      </g>
     </g>
    </g>
    <g id="ytick_9">
     <g id="line2d_35">
      <path d="M 108 60.317127 
L 777.6 60.317127 
" clip-path="url(#p7bf71b8c83)" style="fill: none; stroke-dasharray: 5.12,1.28,0.8,1.28; stroke-dashoffset: 0; stroke: #b0b0b0; stroke-width: 0.8"/>
     </g>
     <g id="line2d_36">
      <g>
       <use xlink:href="#mff7c95210d" x="108" y="60.317127" style="fill: #a9a9a9; stroke: #a9a9a9; stroke-width: 0.8"/>
      </g>
     </g>
     <g id="text_18">
      <!-- 8000 -->
      <g style="fill: #a9a9a9" transform="translate(75.55 64.116346) scale(0.1 -0.1)">
       <defs>
        <path id="DejaVuSans-38" d="M 2034 2216 
Q 1584 2216 1326 1975 
Q 1069 1734 1069 1313 
Q 1069 891 1326 650 
Q 1584 409 2034 409 
Q 2484 409 2743 651 
Q 3003 894 3003 1313 
Q 3003 1734 2745 1975 
Q 2488 2216 2034 2216 
z
M 1403 2484 
Q 997 2584 770 2862 
Q 544 3141 544 3541 
Q 544 4100 942 4425 
Q 1341 4750 2034 4750 
Q 2731 4750 3128 4425 
Q 3525 4100 3525 3541 
Q 3525 3141 3298 2862 
Q 3072 2584 2669 2484 
Q 3125 2378 3379 2068 
Q 3634 1759 3634 1313 
Q 3634 634 3220 271 
Q 2806 -91 2034 -91 
Q 1263 -91 848 271 
Q 434 634 434 1313 
Q 434 1759 690 2068 
Q 947 2378 1403 2484 
z
M 1172 3481 
Q 1172 3119 1398 2916 
Q 1625 2713 2034 2713 
Q 2441 2713 2670 2916 
Q 2900 3119 2900 3481 
Q 2900 3844 2670 4047 
Q 2441 4250 2034 4250 
Q 1625 4250 1398 4047 
Q 1172 3844 1172 3481 
z
" transform="scale(0.015625)"/>
       </defs>
       <use xlink:href="#DejaVuSans-38"/>
       <use xlink:href="#DejaVuSans-30" transform="translate(63.623047 0)"/>
       <use xlink:href="#DejaVuSans-30" transform="translate(127.246094 0)"/>
       <use xlink:href="#DejaVuSans-30" transform="translate(190.869141 0)"/>
      </g>
     </g>
    </g>
   </g>
   <g id="line2d_37">
    <path d="M 138.436364 307.738122 
L 140.8424 307.521547 
L 141.243406 307.335912 
L 142.847431 307.119337 
L 144.451455 306.779006 
L 145.253467 306.655249 
L 147.258498 306.469613 
L 148.06051 306.129282 
L 148.461516 305.572376 
L 148.862522 305.293923 
L 149.263529 304.365746 
L 149.664535 304.303867 
L 150.065541 303.963536 
L 150.867553 303.530387 
L 152.471577 302.2 
L 154.075602 301.364641 
L 155.27862 300.776796 
L 155.679626 300.096133 
L 156.481639 299.477348 
L 156.882645 299.291713 
L 160.892706 298.672928 
L 161.293712 298.487293 
L 164.100755 298.239779 
L 165.704779 297.837569 
L 168.912828 297.373481 
L 169.313834 297.156906 
L 169.71484 297.095028 
L 170.516852 296.816575 
L 173.323895 296.321547 
L 174.125907 296.074033 
L 177.734962 295.455249 
L 178.536974 295.269613 
L 179.338987 295.238674 
L 180.943011 294.836464 
L 181.344017 294.248619 
L 182.547036 293.753591 
L 183.750054 293.41326 
L 184.15106 293.196685 
L 184.953072 293.041989 
L 186.557097 292.546961 
L 187.359109 292.485083 
L 188.161121 292.268508 
L 189.765146 291.835359 
L 190.166152 291.80442 
L 190.968164 291.40221 
L 191.36917 291.340331 
L 191.770176 291.123757 
L 196.181243 290.350276 
L 197.785268 289.855249 
L 198.186274 289.576796 
L 200.191304 288.896133 
L 200.993317 288.308287 
L 202.196335 288.060773 
L 207.409414 286.513812 
L 207.81042 286.451934 
L 209.414445 285.80221 
L 209.815451 285.740331 
L 210.617463 285.4 
L 211.419475 285.369061 
L 212.622494 284.99779 
L 213.0235 284.99779 
L 213.424506 284.812155 
L 214.226518 284.719337 
L 214.627524 284.564641 
L 216.231549 284.502762 
L 217.033561 284.348066 
L 217.835573 283.914917 
L 219.038591 283.481768 
L 219.840604 283.048619 
L 221.043622 282.522652 
L 222.647646 281.687293 
L 223.048653 281.223204 
L 223.850665 279.923757 
L 224.251671 279.8 
L 224.652677 279.8 
L 226.256701 278.902762 
L 226.657708 278.809945 
L 227.058714 278.407735 
L 227.860726 278.067403 
L 228.662738 277.696133 
L 229.063744 277.201105 
L 229.46475 276.520442 
L 229.865756 276.241989 
L 230.266762 275.499448 
L 230.667769 275.035359 
L 233.073805 273.674033 
L 234.67783 272.18895 
L 235.078836 271.229834 
L 235.479842 270.61105 
L 235.880848 270.270718 
L 236.281854 270.085083 
L 239.489903 267.022099 
L 240.291915 266.248619 
L 242.697952 264.670718 
L 243.098958 264.516022 
L 244.702982 263.525967 
L 245.103989 263.340331 
L 247.109019 261.422099 
L 247.911031 261.081768 
L 248.713043 260.493923 
L 249.11405 260.246409 
L 249.515056 260.18453 
L 250.718074 259.472928 
L 251.11908 259.00884 
L 253.124111 257.864088 
L 253.525117 257.709392 
L 254.728135 256.843094 
L 260.743227 254.61547 
L 261.545239 253.841989 
L 262.748257 253.223204 
L 263.550269 252.697238 
L 264.352282 252.449724 
L 264.753288 252.171271 
L 265.154294 252.047514 
L 266.357312 251.212155 
L 268.362343 250.748066 
L 269.565361 250.005525 
L 270.768379 249.727072 
L 271.169386 249.634254 
L 272.372404 248.706077 
L 273.976428 248.241989 
L 274.377434 247.901657 
L 276.783471 247.035359 
L 277.585483 246.880663 
L 278.387496 246.540331 
L 281.194538 245.457459 
L 281.99655 245.364641 
L 283.199569 244.931492 
L 285.204599 243.910497 
L 287.610636 242.518232 
L 288.412648 242.301657 
L 289.615667 241.682873 
L 290.417679 241.528177 
L 291.219691 241.033149 
L 292.021703 240.816575 
L 293.224722 240.321547 
L 294.828746 240.104972 
L 295.630758 239.671823 
L 296.031764 239.300552 
L 296.43277 238.558011 
L 298.036795 238.093923 
L 299.640819 237.351381 
L 302.046856 236.175691 
L 302.848868 235.773481 
L 304.051886 235.525967 
L 305.254905 234.907182 
L 305.655911 234.845304 
L 307.660941 233.824309 
L 308.462954 233.298343 
L 309.665972 233.050829 
L 311.671003 232.524862 
L 312.072009 232.18453 
L 312.874021 231.906077 
L 314.879051 231.070718 
L 315.280057 230.761326 
L 315.681064 230.60663 
L 316.483076 230.142541 
L 318.0871 229.616575 
L 318.889112 229.090608 
L 319.290119 228.657459 
L 319.691125 228.409945 
L 320.092131 228.317127 
L 320.894143 227.636464 
L 321.295149 227.574586 
L 321.696155 226.893923 
L 322.097161 226.708287 
L 322.498167 226.367956 
L 322.899174 226.306077 
L 323.701186 225.78011 
L 324.503198 225.501657 
L 324.904204 225.192265 
L 325.30521 225.037569 
L 327.310241 223.738122 
L 328.513259 223.274033 
L 329.315271 222.902762 
L 329.716277 222.655249 
L 330.117284 221.943646 
L 330.919296 221.324862 
L 331.320302 221.232044 
L 333.726338 220.025414 
L 334.528351 219.685083 
L 335.330363 219.097238 
L 336.533381 217.952486 
L 337.335393 217.457459 
L 337.7364 216.99337 
L 339.340424 215.848619 
L 340.142436 215.01326 
L 340.944448 214.734807 
L 341.746461 214.177901 
L 342.949479 213.528177 
L 343.350485 213.466298 
L 346.95954 211.579006 
L 348.162558 211.207735 
L 349.365577 210.743646 
L 349.766583 210.403315 
L 351.370607 209.753591 
L 351.771613 209.629834 
L 352.573626 209.103867 
L 353.375638 208.763536 
L 354.17765 208.175691 
L 354.979662 206.535912 
L 355.781674 205.607735 
L 356.984693 204.958011 
L 357.786705 204.61768 
L 358.187711 204.555801 
L 358.989723 204.18453 
L 360.593748 203.627624 
L 361.39576 203.163536 
L 362.197772 202.761326 
L 362.598778 202.637569 
L 365.004815 201.152486 
L 365.405821 200.688398 
L 366.608839 199.976796 
L 367.009845 199.822099 
L 367.811858 199.327072 
L 369.415882 198.429834 
L 369.816888 198.337017 
L 370.217894 197.996685 
L 373.024937 197.037569 
L 373.425943 196.759116 
L 374.227955 196.511602 
L 375.029968 196.171271 
L 375.430974 195.830939 
L 377.034998 195.243094 
L 377.83701 194.655249 
L 378.639023 194.314917 
L 379.441035 193.665193 
L 380.243047 193.41768 
L 380.644053 193.046409 
L 381.045059 192.98453 
L 381.847072 192.365746 
L 383.852102 191.159116 
L 384.654114 190.911602 
L 385.05512 190.664088 
L 385.456126 190.60221 
L 387.060151 189.828729 
L 388.263169 189.426519 
L 389.065181 189.302762 
L 389.466188 189.117127 
L 389.867194 189.055249 
L 390.669206 188.683978 
L 391.070212 188.653039 
L 392.674236 188.034254 
L 393.877255 187.167956 
L 394.278261 187.01326 
L 395.080273 186.549171 
L 395.481279 186.425414 
L 397.887316 185.033149 
L 398.288322 184.940331 
L 399.49134 184.19779 
L 400.694359 183.764641 
L 401.496371 183.486188 
L 403.100395 182.929282 
L 403.902407 182.650829 
L 405.506432 182.310497 
L 405.907438 182.124862 
L 406.70945 181.908287 
L 407.110456 181.722652 
L 407.511462 181.660773 
L 407.912469 181.444199 
L 408.714481 181.289503 
L 409.917499 180.825414 
L 411.120517 180.639779 
L 413.526554 180.175691 
L 414.729572 179.897238 
L 415.130579 179.711602 
L 415.932591 179.556906 
L 416.734603 179.340331 
L 417.536615 178.969061 
L 417.937621 178.814365 
L 418.338627 178.814365 
L 422.749695 177.422099 
L 423.150701 177.205525 
L 423.551707 177.205525 
L 424.353719 176.896133 
L 424.754725 176.462983 
L 427.160762 175.441989 
L 428.764786 174.885083 
L 429.165792 174.637569 
L 430.368811 174.266298 
L 431.170823 174.049724 
L 431.571829 173.771271 
L 431.972835 173.678453 
L 432.373841 173.307182 
L 433.57686 173.059669 
L 434.378872 172.688398 
L 434.779878 172.19337 
L 439.190945 171.203315 
L 439.591951 171.203315 
L 439.992957 171.01768 
L 441.596982 170.708287 
L 441.997988 170.522652 
L 443.602012 170.21326 
L 444.404024 169.872928 
L 445.206037 169.718232 
L 447.211067 169.192265 
L 448.414086 168.820994 
L 450.419116 168.171271 
L 451.221128 167.830939 
L 452.02314 167.521547 
L 452.424147 167.243094 
L 453.226159 166.99558 
L 456.033202 165.912707 
L 457.637226 165.727072 
L 460.845275 164.520442 
L 461.246281 164.21105 
L 461.647287 164.118232 
L 462.048293 163.901657 
L 462.449299 163.870718 
L 466.860367 162.230939 
L 468.865397 161.674033 
L 469.667409 161.271823 
L 470.870428 160.99337 
L 472.474452 159.632044 
L 474.078476 158.920442 
L 475.281495 158.394475 
L 476.885519 157.713812 
L 477.286525 157.590055 
L 477.687531 157.311602 
L 479.692562 156.630939 
L 483.702623 154.558011 
L 484.504635 154.18674 
L 484.905641 153.877348 
L 485.707654 153.598895 
L 488.11369 152.423204 
L 488.514696 152.330387 
L 489.717715 151.773481 
L 491.321739 151.216575 
L 492.123751 150.876243 
L 492.925764 150.752486 
L 493.32677 150.474033 
L 494.930794 150.164641 
L 495.732806 149.824309 
L 498.138843 148.648619 
L 498.539849 148.58674 
L 499.742867 147.875138 
L 500.945886 147.441989 
L 503.752928 146.235359 
L 504.153935 146.111602 
L 504.554941 145.833149 
L 505.356953 145.740331 
L 505.757959 145.461878 
L 506.559971 145.338122 
L 507.361983 144.935912 
L 507.76299 144.750276 
L 508.565002 144.533702 
L 509.367014 144.286188 
L 510.570032 143.822099 
L 511.773051 143.41989 
L 512.976069 143.141436 
L 514.580093 142.460773 
L 515.382106 142.027624 
L 516.98613 141.192265 
L 517.788142 141.00663 
L 518.189148 140.759116 
L 518.590155 140.666298 
L 519.793173 139.954696 
L 520.996191 139.490608 
L 523.803234 138.500552 
L 524.20424 138.376796 
L 525.006252 137.943646 
L 527.011283 137.232044 
L 529.417319 136.241989 
L 531.021344 135.468508 
L 535.031405 133.859669 
L 535.833417 133.457459 
L 536.234423 133.364641 
L 537.036436 133.055249 
L 537.437442 133.055249 
L 538.239454 132.683978 
L 539.843478 131.322652 
L 540.244484 131.198895 
L 540.64549 130.951381 
L 541.848509 130.61105 
L 542.249515 130.301657 
L 542.650521 130.20884 
L 543.853539 129.466298 
L 544.254545 129.187845 
L 545.457564 128.723757 
L 545.85857 128.507182 
L 547.061588 128.228729 
L 549.066619 127.517127 
L 549.868631 127.269613 
L 551.071649 126.61989 
L 551.873662 126.21768 
L 552.675674 126.001105 
L 554.279698 125.258564 
L 554.680704 125.134807 
L 555.482716 124.763536 
L 557.487747 124.082873 
L 558.690765 123.309392 
L 559.091771 123.216575 
L 559.893784 122.814365 
L 560.695796 122.504972 
L 561.096802 122.133702 
L 562.29982 121.669613 
L 562.700826 121.607735 
L 564.304851 120.865193 
L 565.507869 120.493923 
L 565.908875 120.308287 
L 566.309881 120.246409 
L 567.111894 119.906077 
L 568.314912 119.658564 
L 569.116924 119.194475 
L 569.51793 119.039779 
L 569.918936 118.730387 
L 571.121955 118.420994 
L 571.923967 118.111602 
L 572.725979 117.771271 
L 574.330004 117.121547 
L 577.137046 116.379006 
L 577.939059 116.069613 
L 579.543083 115.760221 
L 580.345095 115.605525 
L 581.548114 115.141436 
L 582.751132 114.862983 
L 585.157169 113.439779 
L 586.360187 112.697238 
L 588.766223 111.954696 
L 589.16723 111.645304 
L 592.776285 110.345856 
L 593.578297 110.067403 
L 594.781315 109.541436 
L 598.39037 108.056354 
L 599.192382 107.746961 
L 600.796407 107.097238 
L 601.197413 106.725967 
L 601.598419 106.664088 
L 603.202443 106.014365 
L 604.806468 105.612155 
L 605.207474 105.550276 
L 605.60848 105.364641 
L 606.009486 105.333702 
L 606.811498 105.055249 
L 607.212504 105.024309 
L 608.415523 104.560221 
L 610.019547 104.096133 
L 610.821559 103.477348 
L 612.425584 102.58011 
L 612.82659 102.487293 
L 613.628602 102.177901 
L 616.836651 100.6 
L 617.237657 100.383425 
L 617.638663 100.012155 
L 619.643694 99.517127 
L 620.846712 98.960221 
L 621.648724 98.743646 
L 622.049731 98.558011 
L 622.450737 98.21768 
L 624.054761 97.78453 
L 624.455767 97.475138 
L 629.668847 95.556906 
L 630.470859 95.40221 
L 632.475889 94.752486 
L 633.678908 94.226519 
L 636.48595 93.39116 
L 637.287963 92.927072 
L 640.095005 91.967956 
L 641.69903 91.441989 
L 642.902048 91.163536 
L 644.105066 90.792265 
L 644.506073 90.699448 
L 644.907079 90.420994 
L 645.709091 90.235359 
L 647.313115 89.771271 
L 647.714121 89.740331 
L 648.516134 89.369061 
L 651.323176 88.657459 
L 652.927201 88.069613 
L 653.328207 88.069613 
L 654.531225 87.79116 
L 655.333238 87.636464 
L 656.13525 87.41989 
L 657.338268 86.770166 
L 658.541286 86.398895 
L 661.348329 85.439779 
L 662.952354 84.635359 
L 664.155372 84.356906 
L 664.957384 84.109392 
L 665.759396 83.707182 
L 666.160402 83.366851 
L 666.962415 83.119337 
L 667.363421 82.871823 
L 668.165433 82.779006 
L 670.972476 81.974586 
L 672.175494 81.727072 
L 673.378512 81.41768 
L 674.180525 81.232044 
L 675.383543 80.61326 
L 680.596622 78.60221 
L 681.398635 78.478453 
L 682.200647 78.323757 
L 682.601653 78.323757 
L 683.804671 77.952486 
L 685.00769 77.581215 
L 688.616745 76.560221 
L 689.418757 76.343646 
L 689.819763 76.250829 
L 690.220769 76.003315 
L 691.022781 75.848619 
L 691.824793 75.755801 
L 692.225799 75.539227 
L 692.626806 75.508287 
L 693.428818 74.98232 
L 695.032842 74.641989 
L 695.834854 74.301657 
L 696.636867 74.023204 
L 697.438879 73.80663 
L 698.240891 73.466298 
L 699.443909 73.095028 
L 700.646928 72.754696 
L 701.44894 72.692818 
L 702.250952 72.414365 
L 702.651958 72.259669 
L 703.453971 72.135912 
L 705.057995 71.424309 
L 705.459001 71.362431 
L 706.261013 71.053039 
L 708.66705 70.650829 
L 709.469062 70.403315 
L 709.870068 70.341436 
L 710.67208 70.001105 
L 711.073087 69.939227 
L 711.474093 69.722652 
L 712.276105 69.041989 
L 716.286166 67.556906 
L 718.692203 66.907182 
L 719.093209 66.59779 
L 720.697233 65.886188 
L 722.301258 65.205525 
L 723.10327 64.958011 
L 724.306288 64.493923 
L 725.1083 64.153591 
L 726.712325 63.194475 
L 727.113331 63.101657 
L 728.316349 62.482873 
L 729.118361 62.173481 
L 730.722386 61.616575 
L 731.123392 61.430939 
L 731.524398 61.090608 
L 731.925404 60.99779 
L 732.727416 60.502762 
L 733.930435 60.131492 
L 734.732447 59.822099 
L 735.534459 59.450829 
L 735.935465 59.41989 
L 737.940496 58.646409 
L 738.742508 58.491713 
L 739.54452 57.903867 
L 739.945526 57.903867 
L 741.549551 57.316022 
L 743.153575 56.975691 
L 744.7576 56.295028 
L 745.158606 56.295028 
L 746.361624 55.892818 
L 747.163636 55.8 
L 747.163636 55.8 
" clip-path="url(#p7bf71b8c83)" style="fill: none; stroke: #1f77b4; stroke-width: 1.5; stroke-linecap: square"/>
   </g>
   <g id="line2d_38">
    <path d="M 138.83737 307.8 
L 142.446425 307.707182 
L 145.654474 307.552486 
L 147.258498 307.552486 
L 147.659504 307.428729 
L 149.664535 307.335912 
L 152.070571 307.057459 
L 154.476608 306.964641 
L 155.27862 306.871823 
L 158.085663 306.748066 
L 160.892706 306.655249 
L 162.897736 306.59337 
L 168.110816 306.500552 
L 170.115846 306.438674 
L 173.724901 306.345856 
L 175.328926 306.314917 
L 179.338987 306.222099 
L 180.943011 306.067403 
L 182.547036 306.036464 
L 184.953072 305.943646 
L 186.557097 305.912707 
L 188.562127 305.850829 
L 190.166152 305.696133 
L 193.775207 305.603315 
L 194.577219 305.541436 
L 196.181243 305.448619 
L 198.58728 305.355801 
L 200.191304 305.262983 
L 207.409414 304.798895 
L 210.216457 304.706077 
L 211.419475 304.58232 
L 213.424506 304.489503 
L 217.434567 304.272928 
L 221.444628 304.21105 
L 223.048653 304.025414 
L 225.053683 303.932597 
L 229.063744 303.530387 
L 231.469781 303.220994 
L 233.073805 303.159116 
L 236.281854 302.725967 
L 238.687891 302.664088 
L 239.890909 302.540331 
L 241.093927 302.447514 
L 252.322098 301.550276 
L 253.124111 301.39558 
L 255.530147 301.302762 
L 261.946245 300.900552 
L 264.753288 300.807735 
L 266.357312 300.622099 
L 268.362343 300.529282 
L 270.768379 300.436464 
L 272.77341 300.343646 
L 274.377434 300.312707 
L 276.382465 300.250829 
L 277.184477 300.127072 
L 282.798563 300.034254 
L 283.600575 299.941436 
L 288.412648 299.848619 
L 292.021703 299.662983 
L 294.828746 299.570166 
L 296.43277 299.38453 
L 299.239813 299.291713 
L 300.041825 299.167956 
L 302.046856 299.106077 
L 306.056917 299.044199 
L 307.660941 298.889503 
L 309.264966 298.858564 
L 310.467984 298.765746 
L 312.072009 298.61105 
L 316.08207 298.394475 
L 320.092131 298.301657 
L 323.701186 298.116022 
L 324.904204 298.085083 
L 325.706216 297.961326 
L 327.711247 297.868508 
L 328.513259 297.80663 
L 329.315271 297.744751 
L 330.117284 297.682873 
L 334.127345 297.590055 
L 342.949479 297.00221 
L 343.751491 296.940331 
L 344.95451 296.847514 
L 347.761552 296.754696 
L 349.766583 296.692818 
L 355.380668 296.6 
L 356.182681 296.476243 
L 361.796766 296.383425 
L 365.806827 296.166851 
L 366.608839 296.135912 
L 367.410852 296.043094 
L 369.415882 295.950276 
L 371.420913 295.888398 
L 373.425943 295.79558 
L 375.430974 295.733702 
L 379.040029 295.640884 
L 381.446065 295.548066 
L 387.060151 295.455249 
L 391.471218 295.207735 
L 393.075243 295.145856 
L 394.278261 295.053039 
L 399.892346 294.960221 
L 402.298383 294.867403 
L 409.516493 294.774586 
L 411.120517 294.743646 
L 415.932591 294.681768 
L 416.734603 294.61989 
L 422.348688 294.527072 
L 423.952713 294.496133 
L 434.378872 294.403315 
L 436.784908 294.310497 
L 453.627165 294.21768 
L 455.632195 294.155801 
L 466.058354 294.093923 
L 466.860367 294.032044 
L 468.865397 293.970166 
L 470.068415 293.846409 
L 472.474452 293.753591 
L 475.281495 293.629834 
L 478.89055 293.537017 
L 480.89558 293.475138 
L 483.702623 293.38232 
L 486.910672 293.227624 
L 488.915702 293.134807 
L 490.519727 293.103867 
L 497.336831 293.01105 
L 499.742867 292.918232 
L 504.153935 292.825414 
L 506.960977 292.701657 
L 509.76802 292.639779 
L 510.570032 292.577901 
L 520.194179 292.485083 
L 524.20424 292.268508 
L 527.011283 292.175691 
L 531.42235 291.928177 
L 534.229393 291.835359 
L 535.833417 291.80442 
L 538.64046 291.711602 
L 540.64549 291.495028 
L 544.655552 291.40221 
L 545.457564 291.309392 
L 549.467625 291.216575 
L 551.472655 291.154696 
L 555.883723 291.123757 
L 556.685735 291.030939 
L 561.096802 290.938122 
L 561.898814 290.876243 
L 570.720949 290.783425 
L 573.126985 290.690608 
L 579.142077 290.59779 
L 580.746101 290.566851 
L 584.355156 290.504972 
L 585.157169 290.412155 
L 590.370248 290.319337 
L 592.375278 290.257459 
L 599.593388 290.164641 
L 600.796407 290.071823 
L 601.999425 289.979006 
L 603.202443 289.886188 
L 609.217535 289.79337 
L 611.623572 289.700552 
L 622.450737 289.607735 
L 626.059792 289.422099 
L 630.871865 289.360221 
L 631.673877 289.298343 
L 637.688969 289.236464 
L 638.490981 289.174586 
L 642.902048 289.081768 
L 644.506073 289.050829 
L 651.323176 288.958011 
L 652.125189 288.896133 
L 659.343299 288.803315 
L 660.947323 288.772376 
L 664.957384 288.679558 
L 667.764427 288.555801 
L 672.175494 288.462983 
L 674.982537 288.339227 
L 678.591592 288.246409 
L 679.393604 288.18453 
L 687.413726 288.091713 
L 689.418757 288.029834 
L 691.824793 287.937017 
L 694.23083 287.844199 
L 706.261013 287.751381 
L 709.068056 287.627624 
L 715.88516 287.534807 
L 718.291197 287.441989 
L 723.504276 287.349171 
L 725.910313 287.256354 
L 729.118361 287.163536 
L 731.524398 287.070718 
L 747.163636 286.977901 
L 747.163636 286.977901 
" clip-path="url(#p7bf71b8c83)" style="fill: none; stroke: #ff7f0e; stroke-width: 1.5; stroke-linecap: square"/>
   </g>
   <g id="patch_3">
    <path d="M 108 320.4 
L 108 43.2 
" style="fill: none; stroke: #a9a9a9; stroke-width: 0.8; stroke-linejoin: miter; stroke-linecap: square"/>
   </g>
   <g id="patch_4">
    <path d="M 777.6 320.4 
L 777.6 43.2 
" style="fill: none"/>
   </g>
   <g id="patch_5">
    <path d="M 108 320.4 
L 777.6 320.4 
" style="fill: none; stroke: #a9a9a9; stroke-width: 0.8; stroke-linejoin: miter; stroke-linecap: square"/>
   </g>
   <g id="patch_6">
    <path d="M 108 43.2 
L 777.6 43.2 
" style="fill: none"/>
   </g>
   <g id="text_19">
    <!-- get_subscribe history -->
    <g style="fill: #a9a9a9" transform="translate(378.6075 37.2) scale(0.12 -0.12)">
     <defs>
      <path id="DejaVuSans-67" d="M 2906 1791 
Q 2906 2416 2648 2759 
Q 2391 3103 1925 3103 
Q 1463 3103 1205 2759 
Q 947 2416 947 1791 
Q 947 1169 1205 825 
Q 1463 481 1925 481 
Q 2391 481 2648 825 
Q 2906 1169 2906 1791 
z
M 3481 434 
Q 3481 -459 3084 -895 
Q 2688 -1331 1869 -1331 
Q 1566 -1331 1297 -1286 
Q 1028 -1241 775 -1147 
L 775 -588 
Q 1028 -725 1275 -790 
Q 1522 -856 1778 -856 
Q 2344 -856 2625 -561 
Q 2906 -266 2906 331 
L 2906 616 
Q 2728 306 2450 153 
Q 2172 0 1784 0 
Q 1141 0 747 490 
Q 353 981 353 1791 
Q 353 2603 747 3093 
Q 1141 3584 1784 3584 
Q 2172 3584 2450 3431 
Q 2728 3278 2906 2969 
L 2906 3500 
L 3481 3500 
L 3481 434 
z
" transform="scale(0.015625)"/>
      <path id="DejaVuSans-65" d="M 3597 1894 
L 3597 1613 
L 953 1613 
Q 991 1019 1311 708 
Q 1631 397 2203 397 
Q 2534 397 2845 478 
Q 3156 559 3463 722 
L 3463 178 
Q 3153 47 2828 -22 
Q 2503 -91 2169 -91 
Q 1331 -91 842 396 
Q 353 884 353 1716 
Q 353 2575 817 3079 
Q 1281 3584 2069 3584 
Q 2775 3584 3186 3129 
Q 3597 2675 3597 1894 
z
M 3022 2063 
Q 3016 2534 2758 2815 
Q 2500 3097 2075 3097 
Q 1594 3097 1305 2825 
Q 1016 2553 972 2059 
L 3022 2063 
z
" transform="scale(0.015625)"/>
      <path id="DejaVuSans-74" d="M 1172 4494 
L 1172 3500 
L 2356 3500 
L 2356 3053 
L 1172 3053 
L 1172 1153 
Q 1172 725 1289 603 
Q 1406 481 1766 481 
L 2356 481 
L 2356 0 
L 1766 0 
Q 1100 0 847 248 
Q 594 497 594 1153 
L 594 3053 
L 172 3053 
L 172 3500 
L 594 3500 
L 594 4494 
L 1172 4494 
z
" transform="scale(0.015625)"/>
      <path id="DejaVuSans-5f" d="M 3263 -1063 
L 3263 -1509 
L -63 -1509 
L -63 -1063 
L 3263 -1063 
z
" transform="scale(0.015625)"/>
      <path id="DejaVuSans-73" d="M 2834 3397 
L 2834 2853 
Q 2591 2978 2328 3040 
Q 2066 3103 1784 3103 
Q 1356 3103 1142 2972 
Q 928 2841 928 2578 
Q 928 2378 1081 2264 
Q 1234 2150 1697 2047 
L 1894 2003 
Q 2506 1872 2764 1633 
Q 3022 1394 3022 966 
Q 3022 478 2636 193 
Q 2250 -91 1575 -91 
Q 1294 -91 989 -36 
Q 684 19 347 128 
L 347 722 
Q 666 556 975 473 
Q 1284 391 1588 391 
Q 1994 391 2212 530 
Q 2431 669 2431 922 
Q 2431 1156 2273 1281 
Q 2116 1406 1581 1522 
L 1381 1569 
Q 847 1681 609 1914 
Q 372 2147 372 2553 
Q 372 3047 722 3315 
Q 1072 3584 1716 3584 
Q 2034 3584 2315 3537 
Q 2597 3491 2834 3397 
z
" transform="scale(0.015625)"/>
      <path id="DejaVuSans-75" d="M 544 1381 
L 544 3500 
L 1119 3500 
L 1119 1403 
Q 1119 906 1312 657 
Q 1506 409 1894 409 
Q 2359 409 2629 706 
Q 2900 1003 2900 1516 
L 2900 3500 
L 3475 3500 
L 3475 0 
L 2900 0 
L 2900 538 
Q 2691 219 2414 64 
Q 2138 -91 1772 -91 
Q 1169 -91 856 284 
Q 544 659 544 1381 
z
M 1991 3584 
L 1991 3584 
z
" transform="scale(0.015625)"/>
      <path id="DejaVuSans-62" d="M 3116 1747 
Q 3116 2381 2855 2742 
Q 2594 3103 2138 3103 
Q 1681 3103 1420 2742 
Q 1159 2381 1159 1747 
Q 1159 1113 1420 752 
Q 1681 391 2138 391 
Q 2594 391 2855 752 
Q 3116 1113 3116 1747 
z
M 1159 2969 
Q 1341 3281 1617 3432 
Q 1894 3584 2278 3584 
Q 2916 3584 3314 3078 
Q 3713 2572 3713 1747 
Q 3713 922 3314 415 
Q 2916 -91 2278 -91 
Q 1894 -91 1617 61 
Q 1341 213 1159 525 
L 1159 0 
L 581 0 
L 581 4863 
L 1159 4863 
L 1159 2969 
z
" transform="scale(0.015625)"/>
      <path id="DejaVuSans-63" d="M 3122 3366 
L 3122 2828 
Q 2878 2963 2633 3030 
Q 2388 3097 2138 3097 
Q 1578 3097 1268 2742 
Q 959 2388 959 1747 
Q 959 1106 1268 751 
Q 1578 397 2138 397 
Q 2388 397 2633 464 
Q 2878 531 3122 666 
L 3122 134 
Q 2881 22 2623 -34 
Q 2366 -91 2075 -91 
Q 1284 -91 818 406 
Q 353 903 353 1747 
Q 353 2603 823 3093 
Q 1294 3584 2113 3584 
Q 2378 3584 2631 3529 
Q 2884 3475 3122 3366 
z
" transform="scale(0.015625)"/>
      <path id="DejaVuSans-72" d="M 2631 2963 
Q 2534 3019 2420 3045 
Q 2306 3072 2169 3072 
Q 1681 3072 1420 2755 
Q 1159 2438 1159 1844 
L 1159 0 
L 581 0 
L 581 3500 
L 1159 3500 
L 1159 2956 
Q 1341 3275 1631 3429 
Q 1922 3584 2338 3584 
Q 2397 3584 2469 3576 
Q 2541 3569 2628 3553 
L 2631 2963 
z
" transform="scale(0.015625)"/>
      <path id="DejaVuSans-69" d="M 603 3500 
L 1178 3500 
L 1178 0 
L 603 0 
L 603 3500 
z
M 603 4863 
L 1178 4863 
L 1178 4134 
L 603 4134 
L 603 4863 
z
" transform="scale(0.015625)"/>
      <path id="DejaVuSans-20" transform="scale(0.015625)"/>
      <path id="DejaVuSans-68" d="M 3513 2113 
L 3513 0 
L 2938 0 
L 2938 2094 
Q 2938 2591 2744 2837 
Q 2550 3084 2163 3084 
Q 1697 3084 1428 2787 
Q 1159 2491 1159 1978 
L 1159 0 
L 581 0 
L 581 4863 
L 1159 4863 
L 1159 2956 
Q 1366 3272 1645 3428 
Q 1925 3584 2291 3584 
Q 2894 3584 3203 3211 
Q 3513 2838 3513 2113 
z
" transform="scale(0.015625)"/>
      <path id="DejaVuSans-6f" d="M 1959 3097 
Q 1497 3097 1228 2736 
Q 959 2375 959 1747 
Q 959 1119 1226 758 
Q 1494 397 1959 397 
Q 2419 397 2687 759 
Q 2956 1122 2956 1747 
Q 2956 2369 2687 2733 
Q 2419 3097 1959 3097 
z
M 1959 3584 
Q 2709 3584 3137 3096 
Q 3566 2609 3566 1747 
Q 3566 888 3137 398 
Q 2709 -91 1959 -91 
Q 1206 -91 779 398 
Q 353 888 353 1747 
Q 353 2609 779 3096 
Q 1206 3584 1959 3584 
z
" transform="scale(0.015625)"/>
      <path id="DejaVuSans-79" d="M 2059 -325 
Q 1816 -950 1584 -1140 
Q 1353 -1331 966 -1331 
L 506 -1331 
L 506 -850 
L 844 -850 
Q 1081 -850 1212 -737 
Q 1344 -625 1503 -206 
L 1606 56 
L 191 3500 
L 800 3500 
L 1894 763 
L 2988 3500 
L 3597 3500 
L 2059 -325 
z
" transform="scale(0.015625)"/>
     </defs>
     <use xlink:href="#DejaVuSans-67"/>
     <use xlink:href="#DejaVuSans-65" transform="translate(63.476562 0)"/>
     <use xlink:href="#DejaVuSans-74" transform="translate(125 0)"/>
     <use xlink:href="#DejaVuSans-5f" transform="translate(164.208984 0)"/>
     <use xlink:href="#DejaVuSans-73" transform="translate(214.208984 0)"/>
     <use xlink:href="#DejaVuSans-75" transform="translate(266.308594 0)"/>
     <use xlink:href="#DejaVuSans-62" transform="translate(329.6875 0)"/>
     <use xlink:href="#DejaVuSans-73" transform="translate(393.164062 0)"/>
     <use xlink:href="#DejaVuSans-63" transform="translate(445.263672 0)"/>
     <use xlink:href="#DejaVuSans-72" transform="translate(500.244141 0)"/>
     <use xlink:href="#DejaVuSans-69" transform="translate(541.357422 0)"/>
     <use xlink:href="#DejaVuSans-62" transform="translate(569.140625 0)"/>
     <use xlink:href="#DejaVuSans-65" transform="translate(632.617188 0)"/>
     <use xlink:href="#DejaVuSans-20" transform="translate(694.140625 0)"/>
     <use xlink:href="#DejaVuSans-68" transform="translate(725.927734 0)"/>
     <use xlink:href="#DejaVuSans-69" transform="translate(789.306641 0)"/>
     <use xlink:href="#DejaVuSans-73" transform="translate(817.089844 0)"/>
     <use xlink:href="#DejaVuSans-74" transform="translate(869.189453 0)"/>
     <use xlink:href="#DejaVuSans-6f" transform="translate(908.398438 0)"/>
     <use xlink:href="#DejaVuSans-72" transform="translate(969.580078 0)"/>
     <use xlink:href="#DejaVuSans-79" transform="translate(1010.693359 0)"/>
    </g>
   </g>
   <g id="legend_1">
    <g id="line2d_39">
     <path d="M 815.08 328.498438 
L 825.08 328.498438 
L 835.08 328.498438 
" style="fill: none; stroke: #1f77b4; stroke-width: 1.5; stroke-linecap: square"/>
    </g>
    <g id="text_20">
     <!-- star -->
     <g style="fill: #a9a9a9" transform="translate(843.08 331.998438) scale(0.1 -0.1)">
      <defs>
       <path id="DejaVuSans-61" d="M 2194 1759 
Q 1497 1759 1228 1600 
Q 959 1441 959 1056 
Q 959 750 1161 570 
Q 1363 391 1709 391 
Q 2188 391 2477 730 
Q 2766 1069 2766 1631 
L 2766 1759 
L 2194 1759 
z
M 3341 1997 
L 3341 0 
L 2766 0 
L 2766 531 
Q 2569 213 2275 61 
Q 1981 -91 1556 -91 
Q 1019 -91 701 211 
Q 384 513 384 1019 
Q 384 1609 779 1909 
Q 1175 2209 1959 2209 
L 2766 2209 
L 2766 2266 
Q 2766 2663 2505 2880 
Q 2244 3097 1772 3097 
Q 1472 3097 1187 3025 
Q 903 2953 641 2809 
L 641 3341 
Q 956 3463 1253 3523 
Q 1550 3584 1831 3584 
Q 2591 3584 2966 3190 
Q 3341 2797 3341 1997 
z
" transform="scale(0.015625)"/>
      </defs>
      <use xlink:href="#DejaVuSans-73"/>
      <use xlink:href="#DejaVuSans-74" transform="translate(52.099609 0)"/>
      <use xlink:href="#DejaVuSans-61" transform="translate(91.308594 0)"/>
      <use xlink:href="#DejaVuSans-72" transform="translate(152.587891 0)"/>
     </g>
    </g>
    <g id="line2d_40">
     <path d="M 815.08 343.176562 
L 825.08 343.176562 
L 835.08 343.176562 
" style="fill: none; stroke: #ff7f0e; stroke-width: 1.5; stroke-linecap: square"/>
    </g>
    <g id="text_21">
     <!-- fork -->
     <g style="fill: #a9a9a9" transform="translate(843.08 346.676562) scale(0.1 -0.1)">
      <defs>
       <path id="DejaVuSans-66" d="M 2375 4863 
L 2375 4384 
L 1825 4384 
Q 1516 4384 1395 4259 
Q 1275 4134 1275 3809 
L 1275 3500 
L 2222 3500 
L 2222 3053 
L 1275 3053 
L 1275 0 
L 697 0 
L 697 3053 
L 147 3053 
L 147 3500 
L 697 3500 
L 697 3744 
Q 697 4328 969 4595 
Q 1241 4863 1831 4863 
L 2375 4863 
z
" transform="scale(0.015625)"/>
       <path id="DejaVuSans-6b" d="M 581 4863 
L 1159 4863 
L 1159 1991 
L 2875 3500 
L 3609 3500 
L 1753 1863 
L 3688 0 
L 2938 0 
L 1159 1709 
L 1159 0 
L 581 0 
L 581 4863 
z
" transform="scale(0.015625)"/>
      </defs>
      <use xlink:href="#DejaVuSans-66"/>
      <use xlink:href="#DejaVuSans-6f" transform="translate(35.205078 0)"/>
      <use xlink:href="#DejaVuSans-72" transform="translate(96.386719 0)"/>
      <use xlink:href="#DejaVuSans-6b" transform="translate(137.5 0)"/>
     </g>
    </g>
   </g>
  </g>
 </g>
 <defs>
  <clipPath id="p7bf71b8c83">
   <rect x="108" y="43.2" width="669.6" height="277.2"/>
  </clipPath>
 </defs>
</svg>
