<?xml version="1.0" encoding="utf-8" standalone="no"?>
<!DOCTYPE svg PUBLIC "-//W3C//DTD SVG 1.1//EN"
  "http://www.w3.org/Graphics/SVG/1.1/DTD/svg11.dtd">
<svg xmlns:xlink="http://www.w3.org/1999/xlink" width="864pt" height="360pt" viewBox="0 0 864 360" xmlns="http://www.w3.org/2000/svg" version="1.1">
 <metadata>
  <rdf:RDF xmlns:dc="http://purl.org/dc/elements/1.1/" xmlns:cc="http://creativecommons.org/ns#" xmlns:rdf="http://www.w3.org/1999/02/22-rdf-syntax-ns#">
   <cc:Work>
    <dc:type rdf:resource="http://purl.org/dc/dcmitype/StillImage"/>
    <dc:date>2026-02-26T08:20:37.557134</dc:date>
    <dc:format>image/svg+xml</dc:format>
    <dc:creator>
     <cc:Agent>
      <dc:title>Matplotlib v3.10.8, https://matplotlib.org/</dc:title>
     </cc:Agent>
    </dc:creator>
   </cc:Work>
  </rdf:RDF>
 </metadata>
 <defs>
  <style type="text/css">*{stroke-linejoin: round; stroke-linecap: butt}</style>
 </defs>
 <g id="figure_1">
  <g id="patch_1">
   <path d="M 0 360 
L 864 360 
L 864 0 
L 0 0 
L 0 360 
z
" style="fill: none; opacity: 0"/>
  </g>
  <g id="axes_1">
   <g id="patch_2">
    <path d="M 108 320.4 
L 777.6 320.4 
L 777.6 43.2 
L 108 43.2 
L 108 320.4 
z
" style="fill: none; opacity: 0"/>
   </g>
   <g id="matplotlib.axis_1">
    <g id="xtick_1">
     <g id="line2d_1">
      <path d="M 196.842258 320.4 
L 196.842258 43.2 
" clip-path="url(#p0d8408b711)" style="fill: none; stroke-dasharray: 5.12,1.28,0.8,1.28; stroke-dashoffset: 0; stroke: #b0b0b0; stroke-width: 0.8"/>
     </g>
     <g id="line2d_2">
      <defs>
       <path id="m716205aa2c" d="M 0 0 
L 0 3.5 
" style="stroke: #a9a9a9; stroke-width: 0.8"/>
      </defs>
      <g>
       <use xlink:href="#m716205aa2c" x="196.842258" y="320.4" style="fill: #a9a9a9; stroke: #a9a9a9; stroke-width: 0.8"/>
      </g>
     </g>
     <g id="text_1">
      <!-- 2022 -->
      <g style="fill: #a9a9a9" transform="translate(184.117258 334.998438) scale(0.1 -0.1)">
       <defs>
        <path id="DejaVuSans-32" d="M 1228 531 
L 3431 531 
L 3431 0 
L 469 0 
L 469 531 
Q 828 903 1448 1529 
Q 2069 2156 2228 2338 
Q 2531 2678 2651 2914 
Q 2772 3150 2772 3378 
Q 2772 3750 2511 3984 
Q 2250 4219 1831 4219 
Q 1534 4219 1204 4116 
Q 875 4013 500 3803 
L 500 4441 
Q 881 4594 1212 4672 
Q 1544 4750 1819 4750 
Q 2544 4750 2975 4387 
Q 3406 4025 3406 3419 
Q 3406 3131 3298 2873 
Q 3191 2616 2906 2266 
Q 2828 2175 2409 1742 
Q 1991 1309 1228 531 
z
" transform="scale(0.015625)"/>
        <path id="DejaVuSans-30" d="M 2034 4250 
Q 1547 4250 1301 3770 
Q 1056 3291 1056 2328 
Q 1056 1369 1301 889 
Q 1547 409 2034 409 
Q 2525 409 2770 889 
Q 3016 1369 3016 2328 
Q 3016 3291 2770 3770 
Q 2525 4250 2034 4250 
z
M 2034 4750 
Q 2819 4750 3233 4129 
Q 3647 3509 3647 2328 
Q 3647 1150 3233 529 
Q 2819 -91 2034 -91 
Q 1250 -91 836 529 
Q 422 1150 422 2328 
Q 422 3509 836 4129 
Q 1250 4750 2034 4750 
z
" transform="scale(0.015625)"/>
       </defs>
       <use xlink:href="#DejaVuSans-32"/>
       <use xlink:href="#DejaVuSans-30" transform="translate(63.623047 0)"/>
       <use xlink:href="#DejaVuSans-32" transform="translate(127.246094 0)"/>
       <use xlink:href="#DejaVuSans-32" transform="translate(190.869141 0)"/>
      </g>
     </g>
    </g>
    <g id="xtick_2">
     <g id="line2d_3">
      <path d="M 329.253137 320.4 
L 329.253137 43.2 
" clip-path="url(#p0d8408b711)" style="fill: none; stroke-dasharray: 5.12,1.28,0.8,1.28; stroke-dashoffset: 0; stroke: #b0b0b0; stroke-width: 0.8"/>
     </g>
     <g id="line2d_4">
      <g>
       <use xlink:href="#m716205aa2c" x="329.253137" y="320.4" style="fill: #a9a9a9; stroke: #a9a9a9; stroke-width: 0.8"/>
      </g>
     </g>
     <g id="text_2">
      <!-- 2023 -->
      <g style="fill: #a9a9a9" transform="translate(316.528137 334.998438) scale(0.1 -0.1)">
       <defs>
        <path id="DejaVuSans-33" d="M 2597 2516 
Q 3050 2419 3304 2112 
Q 3559 1806 3559 1356 
Q 3559 666 3084 287 
Q 2609 -91 1734 -91 
Q 1441 -91 1130 -33 
Q 819 25 488 141 
L 488 750 
Q 750 597 1062 519 
Q 1375 441 1716 441 
Q 2309 441 2620 675 
Q 2931 909 2931 1356 
Q 2931 1769 2642 2001 
Q 2353 2234 1838 2234 
L 1294 2234 
L 1294 2753 
L 1863 2753 
Q 2328 2753 2575 2939 
Q 2822 3125 2822 3475 
Q 2822 3834 2567 4026 
Q 2313 4219 1838 4219 
Q 1578 4219 1281 4162 
Q 984 4106 628 3988 
L 628 4550 
Q 988 4650 1302 4700 
Q 1616 4750 1894 4750 
Q 2613 4750 3031 4423 
Q 3450 4097 3450 3541 
Q 3450 3153 3228 2886 
Q 3006 2619 2597 2516 
z
" transform="scale(0.015625)"/>
       </defs>
       <use xlink:href="#DejaVuSans-32"/>
       <use xlink:href="#DejaVuSans-30" transform="translate(63.623047 0)"/>
       <use xlink:href="#DejaVuSans-32" transform="translate(127.246094 0)"/>
       <use xlink:href="#DejaVuSans-33" transform="translate(190.869141 0)"/>
      </g>
     </g>
    </g>
    <g id="xtick_3">
     <g id="line2d_5">
      <path d="M 461.664016 320.4 
L 461.664016 43.2 
" clip-path="url(#p0d8408b711)" style="fill: none; stroke-dasharray: 5.12,1.28,0.8,1.28; stroke-dashoffset: 0; stroke: #b0b0b0; stroke-width: 0.8"/>
     </g>
     <g id="line2d_6">
      <g>
       <use xlink:href="#m716205aa2c" x="461.664016" y="320.4" style="fill: #a9a9a9; stroke: #a9a9a9; stroke-width: 0.8"/>
      </g>
     </g>
     <g id="text_3">
      <!-- 2024 -->
      <g style="fill: #a9a9a9" transform="translate(448.939016 334.998438) scale(0.1 -0.1)">
       <defs>
        <path id="DejaVuSans-34" d="M 2419 4116 
L 825 1625 
L 2419 1625 
L 2419 4116 
z
M 2253 4666 
L 3047 4666 
L 3047 1625 
L 3713 1625 
L 3713 1100 
L 3047 1100 
L 3047 0 
L 2419 0 
L 2419 1100 
L 313 1100 
L 313 1709 
L 2253 4666 
z
" transform="scale(0.015625)"/>
       </defs>
       <use xlink:href="#DejaVuSans-32"/>
       <use xlink:href="#DejaVuSans-30" transform="translate(63.623047 0)"/>
       <use xlink:href="#DejaVuSans-32" transform="translate(127.246094 0)"/>
       <use xlink:href="#DejaVuSans-34" transform="translate(190.869141 0)"/>
      </g>
     </g>
    </g>
    <g id="xtick_4">
     <g id="line2d_7">
      <path d="M 594.437664 320.4 
L 594.437664 43.2 
" clip-path="url(#p0d8408b711)" style="fill: none; stroke-dasharray: 5.12,1.28,0.8,1.28; stroke-dashoffset: 0; stroke: #b0b0b0; stroke-width: 0.8"/>
     </g>
     <g id="line2d_8">
      <g>
       <use xlink:href="#m716205aa2c" x="594.437664" y="320.4" style="fill: #a9a9a9; stroke: #a9a9a9; stroke-width: 0.8"/>
      </g>
     </g>
     <g id="text_4">
      <!-- 2025 -->
      <g style="fill: #a9a9a9" transform="translate(581.712664 334.998438) scale(0.1 -0.1)">
       <defs>
        <path id="DejaVuSans-35" d="M 691 4666 
L 3169 4666 
L 3169 4134 
L 1269 4134 
L 1269 2991 
Q 1406 3038 1543 3061 
Q 1681 3084 1819 3084 
Q 2600 3084 3056 2656 
Q 3513 2228 3513 1497 
Q 3513 744 3044 326 
Q 2575 -91 1722 -91 
Q 1428 -91 1123 -41 
Q 819 9 494 109 
L 494 744 
Q 775 591 1075 516 
Q 1375 441 1709 441 
Q 2250 441 2565 725 
Q 2881 1009 2881 1497 
Q 2881 1984 2565 2268 
Q 2250 2553 1709 2553 
Q 1456 2553 1204 2497 
Q 953 2441 691 2322 
L 691 4666 
z
" transform="scale(0.015625)"/>
       </defs>
       <use xlink:href="#DejaVuSans-32"/>
       <use xlink:href="#DejaVuSans-30" transform="translate(63.623047 0)"/>
       <use xlink:href="#DejaVuSans-32" transform="translate(127.246094 0)"/>
       <use xlink:href="#DejaVuSans-35" transform="translate(190.869141 0)"/>
      </g>
     </g>
    </g>
    <g id="xtick_5">
     <g id="line2d_9">
      <path d="M 726.848543 320.4 
L 726.848543 43.2 
" clip-path="url(#p0d8408b711)" style="fill: none; stroke-dasharray: 5.12,1.28,0.8,1.28; stroke-dashoffset: 0; stroke: #b0b0b0; stroke-width: 0.8"/>
     </g>
     <g id="line2d_10">
      <g>
       <use xlink:href="#m716205aa2c" x="726.848543" y="320.4" style="fill: #a9a9a9; stroke: #a9a9a9; stroke-width: 0.8"/>
      </g>
     </g>
     <g id="text_5">
      <!-- 2026 -->
      <g style="fill: #a9a9a9" transform="translate(714.123543 334.998438) scale(0.1 -0.1)">
       <defs>
        <path id="DejaVuSans-36" d="M 2113 2584 
Q 1688 2584 1439 2293 
Q 1191 2003 1191 1497 
Q 1191 994 1439 701 
Q 1688 409 2113 409 
Q 2538 409 2786 701 
Q 3034 994 3034 1497 
Q 3034 2003 2786 2293 
Q 2538 2584 2113 2584 
z
M 3366 4563 
L 3366 3988 
Q 3128 4100 2886 4159 
Q 2644 4219 2406 4219 
Q 1781 4219 1451 3797 
Q 1122 3375 1075 2522 
Q 1259 2794 1537 2939 
Q 1816 3084 2150 3084 
Q 2853 3084 3261 2657 
Q 3669 2231 3669 1497 
Q 3669 778 3244 343 
Q 2819 -91 2113 -91 
Q 1303 -91 875 529 
Q 447 1150 447 2328 
Q 447 3434 972 4092 
Q 1497 4750 2381 4750 
Q 2619 4750 2861 4703 
Q 3103 4656 3366 4563 
z
" transform="scale(0.015625)"/>
       </defs>
       <use xlink:href="#DejaVuSans-32"/>
       <use xlink:href="#DejaVuSans-30" transform="translate(63.623047 0)"/>
       <use xlink:href="#DejaVuSans-32" transform="translate(127.246094 0)"/>
       <use xlink:href="#DejaVuSans-36" transform="translate(190.869141 0)"/>
      </g>
     </g>
    </g>
   </g>
   <g id="matplotlib.axis_2">
    <g id="ytick_1">
     <g id="line2d_11">
      <path d="M 108 307.828972 
L 777.6 307.828972 
" clip-path="url(#p0d8408b711)" style="fill: none; stroke-dasharray: 5.12,1.28,0.8,1.28; stroke-dashoffset: 0; stroke: #b0b0b0; stroke-width: 0.8"/>
     </g>
     <g id="line2d_12">
      <defs>
       <path id="m126c03fba8" d="M 0 0 
L -3.5 0 
" style="stroke: #a9a9a9; stroke-width: 0.8"/>
      </defs>
      <g>
       <use xlink:href="#m126c03fba8" x="108" y="307.828972" style="fill: #a9a9a9; stroke: #a9a9a9; stroke-width: 0.8"/>
      </g>
     </g>
     <g id="text_6">
      <!-- 0 -->
      <g style="fill: #a9a9a9" transform="translate(94.6375 311.628191) scale(0.1 -0.1)">
       <use xlink:href="#DejaVuSans-30"/>
      </g>
     </g>
    </g>
    <g id="ytick_2">
     <g id="line2d_13">
      <path d="M 108 278.856795 
L 777.6 278.856795 
" clip-path="url(#p0d8408b711)" style="fill: none; stroke-dasharray: 5.12,1.28,0.8,1.28; stroke-dashoffset: 0; stroke: #b0b0b0; stroke-width: 0.8"/>
     </g>
     <g id="line2d_14">
      <g>
       <use xlink:href="#m126c03fba8" x="108" y="278.856795" style="fill: #a9a9a9; stroke: #a9a9a9; stroke-width: 0.8"/>
      </g>
     </g>
     <g id="text_7">
      <!-- 1000 -->
      <g style="fill: #a9a9a9" transform="translate(75.55 282.656013) scale(0.1 -0.1)">
       <defs>
        <path id="DejaVuSans-31" d="M 794 531 
L 1825 531 
L 1825 4091 
L 703 3866 
L 703 4441 
L 1819 4666 
L 2450 4666 
L 2450 531 
L 3481 531 
L 3481 0 
L 794 0 
L 794 531 
z
" transform="scale(0.015625)"/>
       </defs>
       <use xlink:href="#DejaVuSans-31"/>
       <use xlink:href="#DejaVuSans-30" transform="translate(63.623047 0)"/>
       <use xlink:href="#DejaVuSans-30" transform="translate(127.246094 0)"/>
       <use xlink:href="#DejaVuSans-30" transform="translate(190.869141 0)"/>
      </g>
     </g>
    </g>
    <g id="ytick_3">
     <g id="line2d_15">
      <path d="M 108 249.884617 
L 777.6 249.884617 
" clip-path="url(#p0d8408b711)" style="fill: none; stroke-dasharray: 5.12,1.28,0.8,1.28; stroke-dashoffset: 0; stroke: #b0b0b0; stroke-width: 0.8"/>
     </g>
     <g id="line2d_16">
      <g>
       <use xlink:href="#m126c03fba8" x="108" y="249.884617" style="fill: #a9a9a9; stroke: #a9a9a9; stroke-width: 0.8"/>
      </g>
     </g>
     <g id="text_8">
      <!-- 2000 -->
      <g style="fill: #a9a9a9" transform="translate(75.55 253.683836) scale(0.1 -0.1)">
       <use xlink:href="#DejaVuSans-32"/>
       <use xlink:href="#DejaVuSans-30" transform="translate(63.623047 0)"/>
       <use xlink:href="#DejaVuSans-30" transform="translate(127.246094 0)"/>
       <use xlink:href="#DejaVuSans-30" transform="translate(190.869141 0)"/>
      </g>
     </g>
    </g>
    <g id="ytick_4">
     <g id="line2d_17">
      <path d="M 108 220.91244 
L 777.6 220.91244 
" clip-path="url(#p0d8408b711)" style="fill: none; stroke-dasharray: 5.12,1.28,0.8,1.28; stroke-dashoffset: 0; stroke: #b0b0b0; stroke-width: 0.8"/>
     </g>
     <g id="line2d_18">
      <g>
       <use xlink:href="#m126c03fba8" x="108" y="220.91244" style="fill: #a9a9a9; stroke: #a9a9a9; stroke-width: 0.8"/>
      </g>
     </g>
     <g id="text_9">
      <!-- 3000 -->
      <g style="fill: #a9a9a9" transform="translate(75.55 224.711658) scale(0.1 -0.1)">
       <use xlink:href="#DejaVuSans-33"/>
       <use xlink:href="#DejaVuSans-30" transform="translate(63.623047 0)"/>
       <use xlink:href="#DejaVuSans-30" transform="translate(127.246094 0)"/>
       <use xlink:href="#DejaVuSans-30" transform="translate(190.869141 0)"/>
      </g>
     </g>
    </g>
    <g id="ytick_5">
     <g id="line2d_19">
      <path d="M 108 191.940262 
L 777.6 191.940262 
" clip-path="url(#p0d8408b711)" style="fill: none; stroke-dasharray: 5.12,1.28,0.8,1.28; stroke-dashoffset: 0; stroke: #b0b0b0; stroke-width: 0.8"/>
     </g>
     <g id="line2d_20">
      <g>
       <use xlink:href="#m126c03fba8" x="108" y="191.940262" style="fill: #a9a9a9; stroke: #a9a9a9; stroke-width: 0.8"/>
      </g>
     </g>
     <g id="text_10">
      <!-- 4000 -->
      <g style="fill: #a9a9a9" transform="translate(75.55 195.739481) scale(0.1 -0.1)">
       <use xlink:href="#DejaVuSans-34"/>
       <use xlink:href="#DejaVuSans-30" transform="translate(63.623047 0)"/>
       <use xlink:href="#DejaVuSans-30" transform="translate(127.246094 0)"/>
       <use xlink:href="#DejaVuSans-30" transform="translate(190.869141 0)"/>
      </g>
     </g>
    </g>
    <g id="ytick_6">
     <g id="line2d_21">
      <path d="M 108 162.968085 
L 777.6 162.968085 
" clip-path="url(#p0d8408b711)" style="fill: none; stroke-dasharray: 5.12,1.28,0.8,1.28; stroke-dashoffset: 0; stroke: #b0b0b0; stroke-width: 0.8"/>
     </g>
     <g id="line2d_22">
      <g>
       <use xlink:href="#m126c03fba8" x="108" y="162.968085" style="fill: #a9a9a9; stroke: #a9a9a9; stroke-width: 0.8"/>
      </g>
     </g>
     <g id="text_11">
      <!-- 5000 -->
      <g style="fill: #a9a9a9" transform="translate(75.55 166.767303) scale(0.1 -0.1)">
       <use xlink:href="#DejaVuSans-35"/>
       <use xlink:href="#DejaVuSans-30" transform="translate(63.623047 0)"/>
       <use xlink:href="#DejaVuSans-30" transform="translate(127.246094 0)"/>
       <use xlink:href="#DejaVuSans-30" transform="translate(190.869141 0)"/>
      </g>
     </g>
    </g>
    <g id="ytick_7">
     <g id="line2d_23">
      <path d="M 108 133.995907 
L 777.6 133.995907 
" clip-path="url(#p0d8408b711)" style="fill: none; stroke-dasharray: 5.12,1.28,0.8,1.28; stroke-dashoffset: 0; stroke: #b0b0b0; stroke-width: 0.8"/>
     </g>
     <g id="line2d_24">
      <g>
       <use xlink:href="#m126c03fba8" x="108" y="133.995907" style="fill: #a9a9a9; stroke: #a9a9a9; stroke-width: 0.8"/>
      </g>
     </g>
     <g id="text_12">
      <!-- 6000 -->
      <g style="fill: #a9a9a9" transform="translate(75.55 137.795126) scale(0.1 -0.1)">
       <use xlink:href="#DejaVuSans-36"/>
       <use xlink:href="#DejaVuSans-30" transform="translate(63.623047 0)"/>
       <use xlink:href="#DejaVuSans-30" transform="translate(127.246094 0)"/>
       <use xlink:href="#DejaVuSans-30" transform="translate(190.869141 0)"/>
      </g>
     </g>
    </g>
    <g id="ytick_8">
     <g id="line2d_25">
      <path d="M 108 105.02373 
L 777.6 105.02373 
" clip-path="url(#p0d8408b711)" style="fill: none; stroke-dasharray: 5.12,1.28,0.8,1.28; stroke-dashoffset: 0; stroke: #b0b0b0; stroke-width: 0.8"/>
     </g>
     <g id="line2d_26">
      <g>
       <use xlink:href="#m126c03fba8" x="108" y="105.02373" style="fill: #a9a9a9; stroke: #a9a9a9; stroke-width: 0.8"/>
      </g>
     </g>
     <g id="text_13">
      <!-- 7000 -->
      <g style="fill: #a9a9a9" transform="translate(75.55 108.822948) scale(0.1 -0.1)">
       <defs>
        <path id="DejaVuSans-37" d="M 525 4666 
L 3525 4666 
L 3525 4397 
L 1831 0 
L 1172 0 
L 2766 4134 
L 525 4134 
L 525 4666 
z
" transform="scale(0.015625)"/>
       </defs>
       <use xlink:href="#DejaVuSans-37"/>
       <use xlink:href="#DejaVuSans-30" transform="translate(63.623047 0)"/>
       <use xlink:href="#DejaVuSans-30" transform="translate(127.246094 0)"/>
       <use xlink:href="#DejaVuSans-30" transform="translate(190.869141 0)"/>
      </g>
     </g>
    </g>
    <g id="ytick_9">
     <g id="line2d_27">
      <path d="M 108 76.051552 
L 777.6 76.051552 
" clip-path="url(#p0d8408b711)" style="fill: none; stroke-dasharray: 5.12,1.28,0.8,1.28; stroke-dashoffset: 0; stroke: #b0b0b0; stroke-width: 0.8"/>
     </g>
     <g id="line2d_28">
      <g>
       <use xlink:href="#m126c03fba8" x="108" y="76.051552" style="fill: #a9a9a9; stroke: #a9a9a9; stroke-width: 0.8"/>
      </g>
     </g>
     <g id="text_14">
      <!-- 8000 -->
      <g style="fill: #a9a9a9" transform="translate(75.55 79.850771) scale(0.1 -0.1)">
       <defs>
        <path id="DejaVuSans-38" d="M 2034 2216 
Q 1584 2216 1326 1975 
Q 1069 1734 1069 1313 
Q 1069 891 1326 650 
Q 1584 409 2034 409 
Q 2484 409 2743 651 
Q 3003 894 3003 1313 
Q 3003 1734 2745 1975 
Q 2488 2216 2034 2216 
z
M 1403 2484 
Q 997 2584 770 2862 
Q 544 3141 544 3541 
Q 544 4100 942 4425 
Q 1341 4750 2034 4750 
Q 2731 4750 3128 4425 
Q 3525 4100 3525 3541 
Q 3525 3141 3298 2862 
Q 3072 2584 2669 2484 
Q 3125 2378 3379 2068 
Q 3634 1759 3634 1313 
Q 3634 634 3220 271 
Q 2806 -91 2034 -91 
Q 1263 -91 848 271 
Q 434 634 434 1313 
Q 434 1759 690 2068 
Q 947 2378 1403 2484 
z
M 1172 3481 
Q 1172 3119 1398 2916 
Q 1625 2713 2034 2713 
Q 2441 2713 2670 2916 
Q 2900 3119 2900 3481 
Q 2900 3844 2670 4047 
Q 2441 4250 2034 4250 
Q 1625 4250 1398 4047 
Q 1172 3844 1172 3481 
z
" transform="scale(0.015625)"/>
       </defs>
       <use xlink:href="#DejaVuSans-38"/>
       <use xlink:href="#DejaVuSans-30" transform="translate(63.623047 0)"/>
       <use xlink:href="#DejaVuSans-30" transform="translate(127.246094 0)"/>
       <use xlink:href="#DejaVuSans-30" transform="translate(190.869141 0)"/>
      </g>
     </g>
    </g>
    <g id="ytick_10">
     <g id="line2d_29">
      <path d="M 108 47.079375 
L 777.6 47.079375 
" clip-path="url(#p0d8408b711)" style="fill: none; stroke-dasharray: 5.12,1.28,0.8,1.28; stroke-dashoffset: 0; stroke: #b0b0b0; stroke-width: 0.8"/>
     </g>
     <g id="line2d_30">
      <g>
       <use xlink:href="#m126c03fba8" x="108" y="47.079375" style="fill: #a9a9a9; stroke: #a9a9a9; stroke-width: 0.8"/>
      </g>
     </g>
     <g id="text_15">
      <!-- 9000 -->
      <g style="fill: #a9a9a9" transform="translate(75.55 50.878593) scale(0.1 -0.1)">
       <defs>
        <path id="DejaVuSans-39" d="M 703 97 
L 703 672 
Q 941 559 1184 500 
Q 1428 441 1663 441 
Q 2288 441 2617 861 
Q 2947 1281 2994 2138 
Q 2813 1869 2534 1725 
Q 2256 1581 1919 1581 
Q 1219 1581 811 2004 
Q 403 2428 403 3163 
Q 403 3881 828 4315 
Q 1253 4750 1959 4750 
Q 2769 4750 3195 4129 
Q 3622 3509 3622 2328 
Q 3622 1225 3098 567 
Q 2575 -91 1691 -91 
Q 1453 -91 1209 -44 
Q 966 3 703 97 
z
M 1959 2075 
Q 2384 2075 2632 2365 
Q 2881 2656 2881 3163 
Q 2881 3666 2632 3958 
Q 2384 4250 1959 4250 
Q 1534 4250 1286 3958 
Q 1038 3666 1038 3163 
Q 1038 2656 1286 2365 
Q 1534 2075 1959 2075 
z
" transform="scale(0.015625)"/>
       </defs>
       <use xlink:href="#DejaVuSans-39"/>
       <use xlink:href="#DejaVuSans-30" transform="translate(63.623047 0)"/>
       <use xlink:href="#DejaVuSans-30" transform="translate(127.246094 0)"/>
       <use xlink:href="#DejaVuSans-30" transform="translate(190.869141 0)"/>
      </g>
     </g>
    </g>
   </g>
   <g id="line2d_31">
    <path d="M 138.436364 307.742056 
L 140.612981 307.53925 
L 140.97575 307.365417 
L 142.426828 307.162612 
L 143.877907 306.843918 
L 144.603446 306.728029 
L 146.417293 306.554196 
L 147.142832 306.264475 
L 147.505602 305.742975 
L 147.868371 305.482226 
L 148.231141 304.61306 
L 148.59391 304.555116 
L 149.31945 304.091561 
L 150.044989 303.54109 
L 151.496067 302.440147 
L 151.858836 302.295286 
L 152.584375 301.831731 
L 153.672684 301.28126 
L 154.035453 300.643872 
L 154.760993 300.064429 
L 155.486532 299.832651 
L 156.57484 299.658818 
L 158.751457 299.311152 
L 159.114227 299.137319 
L 161.653614 298.905542 
L 163.104692 298.528903 
L 166.006848 298.094321 
L 166.369618 297.891515 
L 166.732387 297.833571 
L 167.457926 297.572821 
L 169.997313 297.109266 
L 170.722852 296.877489 
L 173.987778 296.298046 
L 174.713317 296.124212 
L 176.164395 295.921407 
L 176.889934 295.68963 
L 177.252703 295.139158 
L 178.341012 294.675604 
L 179.429321 294.35691 
L 179.79209 294.154104 
L 180.517629 294.009244 
L 182.331477 293.545689 
L 183.419785 293.284939 
L 184.870864 292.908301 
L 185.233633 292.879329 
L 185.959172 292.50269 
L 186.321942 292.444746 
L 186.684711 292.241941 
L 190.675176 291.546608 
L 192.126254 291.083054 
L 192.489024 290.822304 
L 194.302871 290.184916 
L 195.02841 289.634445 
L 196.116719 289.402667 
L 204.097649 286.91106 
L 204.460418 286.882088 
L 205.548727 286.534422 
L 205.911496 286.534422 
L 206.274266 286.360589 
L 206.999805 286.273672 
L 207.362574 286.128811 
L 209.176422 286.041895 
L 209.539192 285.954978 
L 210.264731 285.549368 
L 211.353039 285.143757 
L 212.078578 284.738147 
L 213.166887 284.24562 
L 214.617965 283.492343 
L 214.980735 283.086733 
L 215.706274 281.869901 
L 216.794582 281.522235 
L 217.157352 281.232513 
L 218.24566 280.826903 
L 218.60843 280.450264 
L 219.696739 279.98671 
L 220.059508 279.783904 
L 222.236125 277.147436 
L 222.961664 276.79977 
L 224.412742 275.756772 
L 225.138282 275.235272 
L 225.501051 274.684801 
L 225.863821 273.786664 
L 226.22659 273.20722 
L 229.854285 269.87542 
L 230.579824 269.151115 
L 232.030903 268.166061 
L 232.393672 267.818395 
L 233.119211 267.586618 
L 234.20752 266.920258 
L 235.295828 266.138009 
L 236.746906 264.718372 
L 237.472446 264.399678 
L 238.197985 263.878179 
L 238.560754 263.646401 
L 238.923524 263.588457 
L 240.011832 262.922097 
L 240.374602 262.487514 
L 242.188449 261.415544 
L 242.551219 261.270683 
L 243.639528 260.459462 
L 249.081071 258.373465 
L 249.80661 257.649161 
L 250.894918 257.069717 
L 251.620457 256.57719 
L 252.345996 256.345413 
L 252.708766 256.084663 
L 253.071535 255.968774 
L 254.159844 255.186526 
L 255.973692 254.751943 
L 257.062 254.056611 
L 258.150309 253.795861 
L 258.513078 253.708945 
L 259.601387 252.897724 
L 261.052465 252.463141 
L 261.415235 252.173419 
L 263.591852 251.362198 
L 264.317391 251.217337 
L 265.04293 250.898643 
L 267.582317 249.913589 
L 268.307856 249.826673 
L 269.758934 249.247229 
L 273.749399 247.13226 
L 274.474938 246.784594 
L 275.200477 246.436928 
L 275.926016 246.292067 
L 276.651555 245.828512 
L 277.377094 245.625707 
L 278.465403 245.162152 
L 279.916481 244.959347 
L 280.64202 244.553736 
L 281.004789 244.20607 
L 281.367559 243.510738 
L 282.818637 243.076155 
L 284.269715 242.380823 
L 287.534641 240.845298 
L 288.26018 240.671465 
L 289.348488 240.092021 
L 289.711258 240.034077 
L 291.525106 239.077995 
L 292.250645 238.585468 
L 293.338953 238.353691 
L 296.603879 237.194803 
L 298.054957 236.557415 
L 298.417727 236.267694 
L 299.143266 235.862083 
L 299.868805 235.572361 
L 300.231574 235.485445 
L 301.682653 234.703196 
L 302.045422 234.297586 
L 302.408192 234.065808 
L 302.770961 233.978892 
L 303.4965 233.341504 
L 303.85927 233.283559 
L 304.222039 232.646172 
L 304.584809 232.501311 
L 304.947578 232.182617 
L 305.310348 232.124672 
L 306.035887 231.632145 
L 306.761426 231.371396 
L 307.124195 231.081674 
L 307.849735 230.676063 
L 309.300813 229.748954 
L 311.47743 228.734928 
L 311.840199 228.068567 
L 312.565738 227.489124 
L 312.928508 227.402207 
L 315.105125 226.301265 
L 315.830664 225.982571 
L 316.556203 225.432099 
L 317.281742 224.649851 
L 319.09559 223.230214 
L 319.821129 222.621798 
L 320.183899 222.447965 
L 320.909438 221.665716 
L 321.997746 221.144217 
L 322.723285 220.709634 
L 323.086055 220.593746 
L 323.448824 220.304024 
L 323.811594 220.24608 
L 327.07652 218.507749 
L 327.802059 218.304944 
L 329.253137 217.783444 
L 329.978676 217.290917 
L 331.429754 216.740446 
L 332.155293 216.276891 
L 332.880832 215.987169 
L 333.606371 215.436698 
L 334.33191 213.901173 
L 335.057449 213.032007 
L 336.145758 212.423592 
L 336.871297 212.104898 
L 337.234067 212.046953 
L 337.959606 211.699287 
L 339.773453 211.032927 
L 340.498992 210.5404 
L 341.587301 210.076845 
L 343.401149 208.94693 
L 343.763918 208.512348 
L 344.852227 207.845988 
L 345.214996 207.701127 
L 345.940535 207.237572 
L 347.391613 206.397379 
L 347.754383 206.310462 
L 348.117152 206.02074 
L 350.656539 205.151575 
L 351.019309 204.890825 
L 351.744848 204.659048 
L 354.647004 203.210439 
L 355.372543 202.804829 
L 355.735313 202.630996 
L 356.460852 202.02258 
L 357.186391 201.819775 
L 357.54916 201.472109 
L 357.91193 201.414164 
L 358.637469 200.834721 
L 360.451317 199.704806 
L 361.176856 199.473028 
L 361.539625 199.241251 
L 361.902395 199.183307 
L 364.079012 198.227225 
L 368.432246 196.83656 
L 369.520555 196.054311 
L 370.246094 195.648701 
L 371.697172 194.924396 
L 372.785481 194.17112 
L 373.51102 193.997287 
L 374.599328 193.301954 
L 377.864254 192.143067 
L 378.589793 191.882318 
L 380.040871 191.563624 
L 380.76641 191.331846 
L 382.580258 190.694458 
L 383.668566 190.346792 
L 384.394106 190.172959 
L 386.570723 189.767349 
L 387.296262 189.622488 
L 388.38457 189.361738 
L 388.74734 189.187905 
L 389.472879 189.043044 
L 390.198418 188.840239 
L 390.923957 188.492573 
L 391.286727 188.347712 
L 391.649496 188.347712 
L 397.091039 186.551437 
L 397.453809 186.145827 
L 399.630426 185.189745 
L 401.081504 184.668246 
L 401.444273 184.436468 
L 402.532582 184.088802 
L 403.98366 183.538331 
L 404.34643 183.219637 
L 405.434738 182.987859 
L 406.160277 182.640193 
L 406.523047 182.176638 
L 410.513512 181.249529 
L 410.876281 181.249529 
L 411.60182 181.017751 
L 414.866746 180.177558 
L 415.592285 180.003725 
L 422.122137 177.830812 
L 422.484906 177.570062 
L 423.210445 177.338285 
L 426.112602 176.295286 
L 426.838141 176.237342 
L 428.289219 175.802759 
L 428.651988 175.570982 
L 429.377527 175.339204 
L 431.554145 174.412095 
L 435.907379 172.789653 
L 439.172305 171.717682 
L 440.623383 170.471879 
L 443.16277 169.341964 
L 445.702156 168.212049 
L 446.427695 168.009244 
L 449.692621 166.357829 
L 450.41816 165.923247 
L 453.683086 164.300805 
L 454.045855 164.011083 
L 455.859703 163.315751 
L 458.39909 162.359669 
L 459.124629 162.272752 
L 459.487398 162.012003 
L 460.938477 161.722281 
L 461.664016 161.403587 
L 463.477863 160.50545 
L 468.193867 158.332536 
L 469.282176 157.955898 
L 469.644945 157.695148 
L 470.370484 157.608232 
L 470.733254 157.347482 
L 471.458793 157.231593 
L 476.174797 155.464291 
L 477.263105 155.203541 
L 478.714184 154.566153 
L 479.439723 154.160543 
L 480.890801 153.378294 
L 481.61634 153.204461 
L 481.979109 152.972683 
L 482.341879 152.885767 
L 484.155727 151.958657 
L 488.87173 150.13341 
L 489.2345 150.075466 
L 490.685578 149.351161 
L 491.411117 149.2063 
L 492.136656 148.771718 
L 493.587734 148.047413 
L 500.117586 145.468889 
L 501.568664 144.194114 
L 502.656973 143.759531 
L 505.196359 142.484755 
L 505.559129 142.224006 
L 506.284668 142.0212 
L 507.010207 141.61559 
L 508.098516 141.35484 
L 513.902828 138.921177 
L 515.716676 138.167901 
L 517.893293 137.35668 
L 519.707141 136.42957 
L 520.43268 136.197793 
L 520.795449 135.850126 
L 521.883758 135.415544 
L 522.246527 135.357599 
L 523.697605 134.662267 
L 524.785914 134.314601 
L 525.874223 133.908991 
L 526.962531 133.590297 
L 527.325301 133.532352 
L 528.05084 133.126742 
L 528.413609 132.981881 
L 528.776379 132.692159 
L 529.864687 132.402437 
L 530.590226 132.112716 
L 531.315766 131.794022 
L 532.766844 131.185606 
L 535.30623 130.548218 
L 536.031769 130.258496 
L 537.482848 129.968774 
L 538.208387 129.823914 
L 539.296695 129.389331 
L 540.385004 129.157553 
L 542.561621 127.824833 
L 543.64993 127.187445 
L 545.826547 126.492113 
L 546.189316 126.202391 
L 549.091473 125.159393 
L 550.179781 124.811727 
L 550.90532 124.406116 
L 551.630859 124.203311 
L 551.993629 124.000506 
L 552.719168 123.855645 
L 554.533015 123.015452 
L 555.258555 122.72573 
L 556.709633 122.146287 
L 557.072402 121.79862 
L 557.435172 121.740676 
L 558.88625 121.13226 
L 560.337328 120.755622 
L 560.700098 120.72665 
L 561.062867 120.552817 
L 561.788406 120.407956 
L 565.053332 119.39393 
L 565.778871 118.814486 
L 567.229949 117.974293 
L 567.592719 117.887376 
L 567.955488 117.684571 
L 568.318258 117.626627 
L 571.583183 116.004185 
L 571.945953 115.685491 
L 573.759801 115.250908 
L 574.848109 114.758381 
L 575.573648 114.555576 
L 575.936418 114.381743 
L 576.299187 114.063049 
L 578.838574 113.135939 
L 579.926883 112.643412 
L 580.289652 112.61444 
L 581.015191 112.324718 
L 582.466269 111.68733 
L 584.642887 111.136859 
L 585.731195 110.644332 
L 588.996121 109.572361 
L 589.72166 109.166751 
L 602.055824 105.342424 
L 602.781363 105.139618 
L 603.869672 104.734008 
L 604.232441 104.734008 
L 605.32075 104.473258 
L 606.046289 104.328397 
L 606.771828 104.125592 
L 607.860137 103.546149 
L 608.948445 103.198482 
L 611.487832 102.329317 
L 612.93891 101.57604 
L 615.478297 100.706875 
L 615.841066 100.388181 
L 616.566605 100.156404 
L 616.929375 99.924626 
L 617.654914 99.83771 
L 620.194301 99.113405 
L 621.282609 98.881628 
L 624.184765 97.83863 
L 628.900769 96.013382 
L 629.626308 95.897494 
L 630.351847 95.752633 
L 630.714617 95.752633 
L 631.802926 95.404967 
L 632.891234 95.057301 
L 635.79339 94.217107 
L 637.244469 93.898413 
L 637.607238 93.666636 
L 638.332777 93.521775 
L 639.783855 93.232053 
L 640.872164 92.710554 
L 641.960472 92.449805 
L 642.686011 92.131111 
L 644.862629 91.348862 
L 645.225398 91.290917 
L 645.950937 91.030168 
L 650.304172 89.900253 
L 652.480789 89.146976 
L 653.206328 89.089032 
L 655.382945 88.538561 
L 656.108484 88.219867 
L 656.471254 88.161922 
L 656.834023 87.988089 
L 657.559562 87.350701 
L 660.824488 86.075926 
L 661.550027 85.960037 
L 664.452183 84.974983 
L 665.540492 84.366567 
L 665.903261 84.27965 
L 666.266031 83.989929 
L 667.35434 83.671235 
L 672.795883 81.150655 
L 674.60973 80.513267 
L 674.9725 80.194573 
L 675.335269 80.107657 
L 676.060808 79.644102 
L 677.149117 79.325408 
L 678.600195 78.716992 
L 678.962965 78.68802 
L 680.776812 77.992688 
L 681.502351 77.847827 
L 682.22789 77.326328 
L 682.59066 77.326328 
L 684.041738 76.804829 
L 685.492816 76.515107 
L 686.943894 75.877719 
L 687.306664 75.877719 
L 688.394972 75.501081 
L 689.120511 75.385192 
L 690.20882 74.747804 
L 690.934359 74.371166 
L 693.836515 73.328167 
L 694.562054 73.09639 
L 696.375902 72.748724 
L 702.180215 70.981421 
L 702.542984 70.923477 
L 703.268523 70.633755 
L 704.719601 70.315061 
L 707.621758 69.24309 
L 708.347297 69.098229 
L 709.798375 68.83748 
L 710.523914 68.721591 
L 711.974992 68.142148 
L 712.700531 67.939342 
L 713.42607 67.823454 
L 714.877148 67.359899 
L 715.239918 67.359899 
L 715.965457 66.954288 
L 717.779304 66.490734 
L 718.504843 66.229984 
L 719.230382 66.085123 
L 721.407 65.129041 
L 721.769769 65.071097 
L 722.495308 64.723431 
L 723.220847 64.404737 
L 723.946386 64.086043 
L 724.671925 63.796321 
L 725.034695 63.593516 
L 725.397465 63.535571 
L 726.123004 63.187905 
L 727.211312 62.72435 
L 729.02516 61.942102 
L 729.387929 61.710324 
L 729.750699 61.623408 
L 730.113468 61.39163 
L 730.476238 61.333686 
L 731.201777 60.870131 
L 733.378394 60.348632 
L 734.103933 59.943021 
L 734.466703 59.885077 
L 735.917781 59.305633 
L 741.359324 57.248609 
L 742.810402 56.900943 
L 744.26148 56.72711 
L 745.349789 56.495332 
L 745.712558 56.437388 
L 746.438097 55.973833 
L 746.800867 55.8 
L 747.163636 55.8 
L 747.163636 55.8 
" clip-path="url(#p0d8408b711)" style="fill: none; stroke: #1f77b4; stroke-width: 1.5; stroke-linecap: square"/>
   </g>
   <g id="line2d_32">
    <path d="M 138.799133 307.8 
L 142.064059 307.713083 
L 144.966215 307.568223 
L 146.417293 307.568223 
L 147.142832 307.452334 
L 155.849301 306.843918 
L 158.751457 306.757002 
L 160.565305 306.699057 
L 165.281309 306.612141 
L 167.095157 306.554196 
L 170.360082 306.46728 
L 171.81116 306.438308 
L 175.438856 306.351391 
L 176.889934 306.20653 
L 178.341012 306.177558 
L 180.517629 306.090642 
L 181.968707 306.061669 
L 183.782555 306.003725 
L 185.233633 305.858864 
L 188.498559 305.771948 
L 189.224098 305.714003 
L 190.675176 305.627087 
L 192.851793 305.54017 
L 194.302871 305.453254 
L 200.832723 305.018671 
L 203.37211 304.931754 
L 204.460418 304.815866 
L 206.274266 304.728949 
L 209.901961 304.526144 
L 213.529657 304.4682 
L 214.980735 304.294367 
L 216.794582 304.20745 
L 220.422278 303.830812 
L 222.598895 303.54109 
L 224.049973 303.483146 
L 226.952129 303.077535 
L 229.128746 303.019591 
L 230.217055 302.903702 
L 231.305364 302.816785 
L 250.169379 301.397149 
L 252.708766 301.310232 
L 254.159844 301.136399 
L 255.973692 301.049483 
L 258.150309 300.962566 
L 259.964156 300.87565 
L 261.415235 300.846677 
L 263.229082 300.788733 
L 263.954621 300.701817 
L 269.033395 300.6149 
L 269.758934 300.527983 
L 274.112168 300.441067 
L 277.377094 300.267234 
L 279.916481 300.180317 
L 281.367559 300.006484 
L 283.906945 299.919568 
L 284.632485 299.803679 
L 286.446332 299.745735 
L 290.074028 299.68779 
L 291.525106 299.542929 
L 292.976184 299.513957 
L 294.064492 299.427041 
L 295.51557 299.28218 
L 299.143266 299.079375 
L 302.770961 298.992458 
L 306.035887 298.818625 
L 307.124195 298.789653 
L 307.849735 298.673764 
L 309.663582 298.586848 
L 310.389121 298.528903 
L 312.202969 298.441987 
L 313.654047 298.413014 
L 316.193434 298.326098 
L 325.625442 297.659738 
L 327.802059 297.572821 
L 329.615906 297.514877 
L 334.69468 297.42796 
L 335.420219 297.341044 
L 340.498992 297.254127 
L 344.126688 297.051322 
L 344.852227 297.02235 
L 345.577766 296.935433 
L 347.391613 296.848517 
L 349.205461 296.790573 
L 351.019309 296.703656 
L 352.833156 296.645712 
L 356.098082 296.558795 
L 358.274699 296.471879 
L 363.353473 296.384962 
L 367.343938 296.153185 
L 368.795016 296.09524 
L 369.883324 296.008324 
L 374.962098 295.921407 
L 377.138715 295.834491 
L 383.668566 295.747574 
L 385.119645 295.718602 
L 389.472879 295.660658 
L 390.198418 295.602713 
L 395.277191 295.515797 
L 396.72827 295.486825 
L 406.160277 295.399908 
L 408.336895 295.312991 
L 423.573215 295.226075 
L 425.387063 295.168131 
L 435.907379 295.081214 
L 439.897844 294.849437 
L 442.074461 294.76252 
L 444.251078 294.675604 
L 447.878773 294.588687 
L 450.41816 294.472798 
L 453.320316 294.385882 
L 456.222473 294.241021 
L 463.115094 294.154104 
L 465.291711 294.067188 
L 469.282176 293.980271 
L 471.821562 293.864383 
L 474.360949 293.806438 
L 475.086488 293.748494 
L 483.792957 293.661577 
L 487.420652 293.458772 
L 489.960039 293.371856 
L 493.950504 293.140078 
L 498.303738 293.053162 
L 499.754816 293.024189 
L 500.480355 292.966245 
L 502.294203 292.76344 
L 505.921898 292.676523 
L 506.647437 292.589607 
L 510.275133 292.50269 
L 512.08898 292.444746 
L 516.079445 292.415774 
L 516.804984 292.328857 
L 520.795449 292.241941 
L 521.520988 292.183996 
L 529.501918 292.09708 
L 531.678535 292.010163 
L 537.120078 291.923247 
L 538.571156 291.894275 
L 541.836082 291.83633 
L 542.561621 291.749414 
L 547.277625 291.662497 
L 549.091473 291.604553 
L 555.621324 291.517636 
L 556.709633 291.43072 
L 557.797941 291.343803 
L 558.88625 291.256887 
L 564.327793 291.16997 
L 566.50441 291.083054 
L 577.024726 290.996137 
L 580.289652 290.822304 
L 585.368426 290.735387 
L 586.819504 290.706415 
L 591.172738 290.619499 
L 592.986586 290.561554 
L 601.330285 290.474638 
L 603.506902 290.387721 
L 609.673984 290.300805 
L 611.125062 290.271833 
L 614.752758 290.184916 
L 617.292144 290.069027 
L 621.282609 289.982111 
L 623.821996 289.866222 
L 627.086922 289.808278 
L 627.812461 289.750333 
L 635.79339 289.663417 
L 637.970008 289.5765 
L 640.509394 289.489584 
L 642.323242 289.431639 
L 652.843558 289.344723 
L 655.020176 289.257806 
L 661.187258 289.17089 
L 663.001105 289.112946 
L 667.717109 289.026029 
L 669.893726 288.939112 
L 672.795883 288.852196 
L 674.9725 288.765279 
L 689.483281 288.678363 
L 692.385437 288.533502 
L 700.729136 288.446585 
L 702.180215 288.417613 
L 710.886683 288.330697 
L 712.700531 288.272752 
L 724.309156 288.185836 
L 725.760234 288.156864 
L 736.64332 288.069947 
L 737.368859 288.012003 
L 746.438097 287.925086 
L 747.163636 287.896114 
L 747.163636 287.896114 
" clip-path="url(#p0d8408b711)" style="fill: none; stroke: #ff7f0e; stroke-width: 1.5; stroke-linecap: square"/>
   </g>
   <g id="patch_3">
    <path d="M 108 320.4 
L 108 43.2 
" style="fill: none; stroke: #a9a9a9; stroke-width: 0.8; stroke-linejoin: miter; stroke-linecap: square"/>
   </g>
   <g id="patch_4">
    <path d="M 777.6 320.4 
L 777.6 43.2 
" style="fill: none"/>
   </g>
   <g id="patch_5">
    <path d="M 108 320.4 
L 777.6 320.4 
" style="fill: none; stroke: #a9a9a9; stroke-width: 0.8; stroke-linejoin: miter; stroke-linecap: square"/>
   </g>
   <g id="patch_6">
    <path d="M 108 43.2 
L 777.6 43.2 
" style="fill: none"/>
   </g>
   <g id="text_16">
    <!-- get_subscribe history -->
    <g style="fill: #a9a9a9" transform="translate(378.6075 37.2) scale(0.12 -0.12)">
     <defs>
      <path id="DejaVuSans-67" d="M 2906 1791 
Q 2906 2416 2648 2759 
Q 2391 3103 1925 3103 
Q 1463 3103 1205 2759 
Q 947 2416 947 1791 
Q 947 1169 1205 825 
Q 1463 481 1925 481 
Q 2391 481 2648 825 
Q 2906 1169 2906 1791 
z
M 3481 434 
Q 3481 -459 3084 -895 
Q 2688 -1331 1869 -1331 
Q 1566 -1331 1297 -1286 
Q 1028 -1241 775 -1147 
L 775 -588 
Q 1028 -725 1275 -790 
Q 1522 -856 1778 -856 
Q 2344 -856 2625 -561 
Q 2906 -266 2906 331 
L 2906 616 
Q 2728 306 2450 153 
Q 2172 0 1784 0 
Q 1141 0 747 490 
Q 353 981 353 1791 
Q 353 2603 747 3093 
Q 1141 3584 1784 3584 
Q 2172 3584 2450 3431 
Q 2728 3278 2906 2969 
L 2906 3500 
L 3481 3500 
L 3481 434 
z
" transform="scale(0.015625)"/>
      <path id="DejaVuSans-65" d="M 3597 1894 
L 3597 1613 
L 953 1613 
Q 991 1019 1311 708 
Q 1631 397 2203 397 
Q 2534 397 2845 478 
Q 3156 559 3463 722 
L 3463 178 
Q 3153 47 2828 -22 
Q 2503 -91 2169 -91 
Q 1331 -91 842 396 
Q 353 884 353 1716 
Q 353 2575 817 3079 
Q 1281 3584 2069 3584 
Q 2775 3584 3186 3129 
Q 3597 2675 3597 1894 
z
M 3022 2063 
Q 3016 2534 2758 2815 
Q 2500 3097 2075 3097 
Q 1594 3097 1305 2825 
Q 1016 2553 972 2059 
L 3022 2063 
z
" transform="scale(0.015625)"/>
      <path id="DejaVuSans-74" d="M 1172 4494 
L 1172 3500 
L 2356 3500 
L 2356 3053 
L 1172 3053 
L 1172 1153 
Q 1172 725 1289 603 
Q 1406 481 1766 481 
L 2356 481 
L 2356 0 
L 1766 0 
Q 1100 0 847 248 
Q 594 497 594 1153 
L 594 3053 
L 172 3053 
L 172 3500 
L 594 3500 
L 594 4494 
L 1172 4494 
z
" transform="scale(0.015625)"/>
      <path id="DejaVuSans-5f" d="M 3263 -1063 
L 3263 -1509 
L -63 -1509 
L -63 -1063 
L 3263 -1063 
z
" transform="scale(0.015625)"/>
      <path id="DejaVuSans-73" d="M 2834 3397 
L 2834 2853 
Q 2591 2978 2328 3040 
Q 2066 3103 1784 3103 
Q 1356 3103 1142 2972 
Q 928 2841 928 2578 
Q 928 2378 1081 2264 
Q 1234 2150 1697 2047 
L 1894 2003 
Q 2506 1872 2764 1633 
Q 3022 1394 3022 966 
Q 3022 478 2636 193 
Q 2250 -91 1575 -91 
Q 1294 -91 989 -36 
Q 684 19 347 128 
L 347 722 
Q 666 556 975 473 
Q 1284 391 1588 391 
Q 1994 391 2212 530 
Q 2431 669 2431 922 
Q 2431 1156 2273 1281 
Q 2116 1406 1581 1522 
L 1381 1569 
Q 847 1681 609 1914 
Q 372 2147 372 2553 
Q 372 3047 722 3315 
Q 1072 3584 1716 3584 
Q 2034 3584 2315 3537 
Q 2597 3491 2834 3397 
z
" transform="scale(0.015625)"/>
      <path id="DejaVuSans-75" d="M 544 1381 
L 544 3500 
L 1119 3500 
L 1119 1403 
Q 1119 906 1312 657 
Q 1506 409 1894 409 
Q 2359 409 2629 706 
Q 2900 1003 2900 1516 
L 2900 3500 
L 3475 3500 
L 3475 0 
L 2900 0 
L 2900 538 
Q 2691 219 2414 64 
Q 2138 -91 1772 -91 
Q 1169 -91 856 284 
Q 544 659 544 1381 
z
M 1991 3584 
L 1991 3584 
z
" transform="scale(0.015625)"/>
      <path id="DejaVuSans-62" d="M 3116 1747 
Q 3116 2381 2855 2742 
Q 2594 3103 2138 3103 
Q 1681 3103 1420 2742 
Q 1159 2381 1159 1747 
Q 1159 1113 1420 752 
Q 1681 391 2138 391 
Q 2594 391 2855 752 
Q 3116 1113 3116 1747 
z
M 1159 2969 
Q 1341 3281 1617 3432 
Q 1894 3584 2278 3584 
Q 2916 3584 3314 3078 
Q 3713 2572 3713 1747 
Q 3713 922 3314 415 
Q 2916 -91 2278 -91 
Q 1894 -91 1617 61 
Q 1341 213 1159 525 
L 1159 0 
L 581 0 
L 581 4863 
L 1159 4863 
L 1159 2969 
z
" transform="scale(0.015625)"/>
      <path id="DejaVuSans-63" d="M 3122 3366 
L 3122 2828 
Q 2878 2963 2633 3030 
Q 2388 3097 2138 3097 
Q 1578 3097 1268 2742 
Q 959 2388 959 1747 
Q 959 1106 1268 751 
Q 1578 397 2138 397 
Q 2388 397 2633 464 
Q 2878 531 3122 666 
L 3122 134 
Q 2881 22 2623 -34 
Q 2366 -91 2075 -91 
Q 1284 -91 818 406 
Q 353 903 353 1747 
Q 353 2603 823 3093 
Q 1294 3584 2113 3584 
Q 2378 3584 2631 3529 
Q 2884 3475 3122 3366 
z
" transform="scale(0.015625)"/>
      <path id="DejaVuSans-72" d="M 2631 2963 
Q 2534 3019 2420 3045 
Q 2306 3072 2169 3072 
Q 1681 3072 1420 2755 
Q 1159 2438 1159 1844 
L 1159 0 
L 581 0 
L 581 3500 
L 1159 3500 
L 1159 2956 
Q 1341 3275 1631 3429 
Q 1922 3584 2338 3584 
Q 2397 3584 2469 3576 
Q 2541 3569 2628 3553 
L 2631 2963 
z
" transform="scale(0.015625)"/>
      <path id="DejaVuSans-69" d="M 603 3500 
L 1178 3500 
L 1178 0 
L 603 0 
L 603 3500 
z
M 603 4863 
L 1178 4863 
L 1178 4134 
L 603 4134 
L 603 4863 
z
" transform="scale(0.015625)"/>
      <path id="DejaVuSans-20" transform="scale(0.015625)"/>
      <path id="DejaVuSans-68" d="M 3513 2113 
L 3513 0 
L 2938 0 
L 2938 2094 
Q 2938 2591 2744 2837 
Q 2550 3084 2163 3084 
Q 1697 3084 1428 2787 
Q 1159 2491 1159 1978 
L 1159 0 
L 581 0 
L 581 4863 
L 1159 4863 
L 1159 2956 
Q 1366 3272 1645 3428 
Q 1925 3584 2291 3584 
Q 2894 3584 3203 3211 
Q 3513 2838 3513 2113 
z
" transform="scale(0.015625)"/>
      <path id="DejaVuSans-6f" d="M 1959 3097 
Q 1497 3097 1228 2736 
Q 959 2375 959 1747 
Q 959 1119 1226 758 
Q 1494 397 1959 397 
Q 2419 397 2687 759 
Q 2956 1122 2956 1747 
Q 2956 2369 2687 2733 
Q 2419 3097 1959 3097 
z
M 1959 3584 
Q 2709 3584 3137 3096 
Q 3566 2609 3566 1747 
Q 3566 888 3137 398 
Q 2709 -91 1959 -91 
Q 1206 -91 779 398 
Q 353 888 353 1747 
Q 353 2609 779 3096 
Q 1206 3584 1959 3584 
z
" transform="scale(0.015625)"/>
      <path id="DejaVuSans-79" d="M 2059 -325 
Q 1816 -950 1584 -1140 
Q 1353 -1331 966 -1331 
L 506 -1331 
L 506 -850 
L 844 -850 
Q 1081 -850 1212 -737 
Q 1344 -625 1503 -206 
L 1606 56 
L 191 3500 
L 800 3500 
L 1894 763 
L 2988 3500 
L 3597 3500 
L 2059 -325 
z
" transform="scale(0.015625)"/>
     </defs>
     <use xlink:href="#DejaVuSans-67"/>
     <use xlink:href="#DejaVuSans-65" transform="translate(63.476562 0)"/>
     <use xlink:href="#DejaVuSans-74" transform="translate(125 0)"/>
     <use xlink:href="#DejaVuSans-5f" transform="translate(164.208984 0)"/>
     <use xlink:href="#DejaVuSans-73" transform="translate(214.208984 0)"/>
     <use xlink:href="#DejaVuSans-75" transform="translate(266.308594 0)"/>
     <use xlink:href="#DejaVuSans-62" transform="translate(329.6875 0)"/>
     <use xlink:href="#DejaVuSans-73" transform="translate(393.164062 0)"/>
     <use xlink:href="#DejaVuSans-63" transform="translate(445.263672 0)"/>
     <use xlink:href="#DejaVuSans-72" transform="translate(500.244141 0)"/>
     <use xlink:href="#DejaVuSans-69" transform="translate(541.357422 0)"/>
     <use xlink:href="#DejaVuSans-62" transform="translate(569.140625 0)"/>
     <use xlink:href="#DejaVuSans-65" transform="translate(632.617188 0)"/>
     <use xlink:href="#DejaVuSans-20" transform="translate(694.140625 0)"/>
     <use xlink:href="#DejaVuSans-68" transform="translate(725.927734 0)"/>
     <use xlink:href="#DejaVuSans-69" transform="translate(789.306641 0)"/>
     <use xlink:href="#DejaVuSans-73" transform="translate(817.089844 0)"/>
     <use xlink:href="#DejaVuSans-74" transform="translate(869.189453 0)"/>
     <use xlink:href="#DejaVuSans-6f" transform="translate(908.398438 0)"/>
     <use xlink:href="#DejaVuSans-72" transform="translate(969.580078 0)"/>
     <use xlink:href="#DejaVuSans-79" transform="translate(1010.693359 0)"/>
    </g>
   </g>
   <g id="legend_1">
    <g id="line2d_33">
     <path d="M 815.08 328.498438 
L 825.08 328.498438 
L 835.08 328.498438 
" style="fill: none; stroke: #1f77b4; stroke-width: 1.5; stroke-linecap: square"/>
    </g>
    <g id="text_17">
     <!-- star -->
     <g style="fill: #a9a9a9" transform="translate(843.08 331.998438) scale(0.1 -0.1)">
      <defs>
       <path id="DejaVuSans-61" d="M 2194 1759 
Q 1497 1759 1228 1600 
Q 959 1441 959 1056 
Q 959 750 1161 570 
Q 1363 391 1709 391 
Q 2188 391 2477 730 
Q 2766 1069 2766 1631 
L 2766 1759 
L 2194 1759 
z
M 3341 1997 
L 3341 0 
L 2766 0 
L 2766 531 
Q 2569 213 2275 61 
Q 1981 -91 1556 -91 
Q 1019 -91 701 211 
Q 384 513 384 1019 
Q 384 1609 779 1909 
Q 1175 2209 1959 2209 
L 2766 2209 
L 2766 2266 
Q 2766 2663 2505 2880 
Q 2244 3097 1772 3097 
Q 1472 3097 1187 3025 
Q 903 2953 641 2809 
L 641 3341 
Q 956 3463 1253 3523 
Q 1550 3584 1831 3584 
Q 2591 3584 2966 3190 
Q 3341 2797 3341 1997 
z
" transform="scale(0.015625)"/>
      </defs>
      <use xlink:href="#DejaVuSans-73"/>
      <use xlink:href="#DejaVuSans-74" transform="translate(52.099609 0)"/>
      <use xlink:href="#DejaVuSans-61" transform="translate(91.308594 0)"/>
      <use xlink:href="#DejaVuSans-72" transform="translate(152.587891 0)"/>
     </g>
    </g>
    <g id="line2d_34">
     <path d="M 815.08 343.176562 
L 825.08 343.176562 
L 835.08 343.176562 
" style="fill: none; stroke: #ff7f0e; stroke-width: 1.5; stroke-linecap: square"/>
    </g>
    <g id="text_18">
     <!-- fork -->
     <g style="fill: #a9a9a9" transform="translate(843.08 346.676562) scale(0.1 -0.1)">
      <defs>
       <path id="DejaVuSans-66" d="M 2375 4863 
L 2375 4384 
L 1825 4384 
Q 1516 4384 1395 4259 
Q 1275 4134 1275 3809 
L 1275 3500 
L 2222 3500 
L 2222 3053 
L 1275 3053 
L 1275 0 
L 697 0 
L 697 3053 
L 147 3053 
L 147 3500 
L 697 3500 
L 697 3744 
Q 697 4328 969 4595 
Q 1241 4863 1831 4863 
L 2375 4863 
z
" transform="scale(0.015625)"/>
       <path id="DejaVuSans-6b" d="M 581 4863 
L 1159 4863 
L 1159 1991 
L 2875 3500 
L 3609 3500 
L 1753 1863 
L 3688 0 
L 2938 0 
L 1159 1709 
L 1159 0 
L 581 0 
L 581 4863 
z
" transform="scale(0.015625)"/>
      </defs>
      <use xlink:href="#DejaVuSans-66"/>
      <use xlink:href="#DejaVuSans-6f" transform="translate(35.205078 0)"/>
      <use xlink:href="#DejaVuSans-72" transform="translate(96.386719 0)"/>
      <use xlink:href="#DejaVuSans-6b" transform="translate(137.5 0)"/>
     </g>
    </g>
   </g>
  </g>
 </g>
 <defs>
  <clipPath id="p0d8408b711">
   <rect x="108" y="43.2" width="669.6" height="277.2"/>
  </clipPath>
 </defs>
</svg>
