<?xml version="1.0" encoding="utf-8" standalone="no"?>
<!DOCTYPE svg PUBLIC "-//W3C//DTD SVG 1.1//EN"
  "http://www.w3.org/Graphics/SVG/1.1/DTD/svg11.dtd">
<svg xmlns:xlink="http://www.w3.org/1999/xlink" width="864pt" height="360pt" viewBox="0 0 864 360" xmlns="http://www.w3.org/2000/svg" version="1.1">
 <metadata>
  <rdf:RDF xmlns:dc="http://purl.org/dc/elements/1.1/" xmlns:cc="http://creativecommons.org/ns#" xmlns:rdf="http://www.w3.org/1999/02/22-rdf-syntax-ns#">
   <cc:Work>
    <dc:type rdf:resource="http://purl.org/dc/dcmitype/StillImage"/>
    <dc:date>2025-12-10T20:08:49.220886</dc:date>
    <dc:format>image/svg+xml</dc:format>
    <dc:creator>
     <cc:Agent>
      <dc:title>Matplotlib v3.10.7, https://matplotlib.org/</dc:title>
     </cc:Agent>
    </dc:creator>
   </cc:Work>
  </rdf:RDF>
 </metadata>
 <defs>
  <style type="text/css">*{stroke-linejoin: round; stroke-linecap: butt}</style>
 </defs>
 <g id="figure_1">
  <g id="patch_1">
   <path d="M 0 360 
L 864 360 
L 864 0 
L 0 0 
L 0 360 
z
" style="fill: none; opacity: 0"/>
  </g>
  <g id="axes_1">
   <g id="patch_2">
    <path d="M 108 320.4 
L 777.6 320.4 
L 777.6 43.2 
L 108 43.2 
L 108 320.4 
z
" style="fill: none; opacity: 0"/>
   </g>
   <g id="matplotlib.axis_1">
    <g id="xtick_1">
     <g id="line2d_1">
      <path d="M 129.685909 320.4 
L 129.685909 43.2 
" clip-path="url(#p1c2c436678)" style="fill: none; stroke-dasharray: 5.12,1.28,0.8,1.28; stroke-dashoffset: 0; stroke: #b0b0b0; stroke-width: 0.8"/>
     </g>
     <g id="line2d_2">
      <defs>
       <path id="m7c4c673a4f" d="M 0 0 
L 0 3.5 
" style="stroke: #a9a9a9; stroke-width: 0.8"/>
      </defs>
      <g>
       <use xlink:href="#m7c4c673a4f" x="129.685909" y="320.4" style="fill: #a9a9a9; stroke: #a9a9a9; stroke-width: 0.8"/>
      </g>
     </g>
     <g id="text_1">
      <!-- 2021-07 -->
      <g style="fill: #a9a9a9" transform="translate(108.794503 334.998438) scale(0.1 -0.1)">
       <defs>
        <path id="DejaVuSans-32" d="M 1228 531 
L 3431 531 
L 3431 0 
L 469 0 
L 469 531 
Q 828 903 1448 1529 
Q 2069 2156 2228 2338 
Q 2531 2678 2651 2914 
Q 2772 3150 2772 3378 
Q 2772 3750 2511 3984 
Q 2250 4219 1831 4219 
Q 1534 4219 1204 4116 
Q 875 4013 500 3803 
L 500 4441 
Q 881 4594 1212 4672 
Q 1544 4750 1819 4750 
Q 2544 4750 2975 4387 
Q 3406 4025 3406 3419 
Q 3406 3131 3298 2873 
Q 3191 2616 2906 2266 
Q 2828 2175 2409 1742 
Q 1991 1309 1228 531 
z
" transform="scale(0.015625)"/>
        <path id="DejaVuSans-30" d="M 2034 4250 
Q 1547 4250 1301 3770 
Q 1056 3291 1056 2328 
Q 1056 1369 1301 889 
Q 1547 409 2034 409 
Q 2525 409 2770 889 
Q 3016 1369 3016 2328 
Q 3016 3291 2770 3770 
Q 2525 4250 2034 4250 
z
M 2034 4750 
Q 2819 4750 3233 4129 
Q 3647 3509 3647 2328 
Q 3647 1150 3233 529 
Q 2819 -91 2034 -91 
Q 1250 -91 836 529 
Q 422 1150 422 2328 
Q 422 3509 836 4129 
Q 1250 4750 2034 4750 
z
" transform="scale(0.015625)"/>
        <path id="DejaVuSans-31" d="M 794 531 
L 1825 531 
L 1825 4091 
L 703 3866 
L 703 4441 
L 1819 4666 
L 2450 4666 
L 2450 531 
L 3481 531 
L 3481 0 
L 794 0 
L 794 531 
z
" transform="scale(0.015625)"/>
        <path id="DejaVuSans-2d" d="M 313 2009 
L 1997 2009 
L 1997 1497 
L 313 1497 
L 313 2009 
z
" transform="scale(0.015625)"/>
        <path id="DejaVuSans-37" d="M 525 4666 
L 3525 4666 
L 3525 4397 
L 1831 0 
L 1172 0 
L 2766 4134 
L 525 4134 
L 525 4666 
z
" transform="scale(0.015625)"/>
       </defs>
       <use xlink:href="#DejaVuSans-32"/>
       <use xlink:href="#DejaVuSans-30" transform="translate(63.623047 0)"/>
       <use xlink:href="#DejaVuSans-32" transform="translate(127.246094 0)"/>
       <use xlink:href="#DejaVuSans-31" transform="translate(190.869141 0)"/>
       <use xlink:href="#DejaVuSans-2d" transform="translate(254.492188 0)"/>
       <use xlink:href="#DejaVuSans-30" transform="translate(290.576172 0)"/>
       <use xlink:href="#DejaVuSans-37" transform="translate(354.199219 0)"/>
      </g>
     </g>
    </g>
    <g id="xtick_2">
     <g id="line2d_3">
      <path d="M 199.689545 320.4 
L 199.689545 43.2 
" clip-path="url(#p1c2c436678)" style="fill: none; stroke-dasharray: 5.12,1.28,0.8,1.28; stroke-dashoffset: 0; stroke: #b0b0b0; stroke-width: 0.8"/>
     </g>
     <g id="line2d_4">
      <g>
       <use xlink:href="#m7c4c673a4f" x="199.689545" y="320.4" style="fill: #a9a9a9; stroke: #a9a9a9; stroke-width: 0.8"/>
      </g>
     </g>
     <g id="text_2">
      <!-- 2022-01 -->
      <g style="fill: #a9a9a9" transform="translate(178.798139 334.998438) scale(0.1 -0.1)">
       <use xlink:href="#DejaVuSans-32"/>
       <use xlink:href="#DejaVuSans-30" transform="translate(63.623047 0)"/>
       <use xlink:href="#DejaVuSans-32" transform="translate(127.246094 0)"/>
       <use xlink:href="#DejaVuSans-32" transform="translate(190.869141 0)"/>
       <use xlink:href="#DejaVuSans-2d" transform="translate(254.492188 0)"/>
       <use xlink:href="#DejaVuSans-30" transform="translate(290.576172 0)"/>
       <use xlink:href="#DejaVuSans-31" transform="translate(354.199219 0)"/>
      </g>
     </g>
    </g>
    <g id="xtick_3">
     <g id="line2d_5">
      <path d="M 268.551818 320.4 
L 268.551818 43.2 
" clip-path="url(#p1c2c436678)" style="fill: none; stroke-dasharray: 5.12,1.28,0.8,1.28; stroke-dashoffset: 0; stroke: #b0b0b0; stroke-width: 0.8"/>
     </g>
     <g id="line2d_6">
      <g>
       <use xlink:href="#m7c4c673a4f" x="268.551818" y="320.4" style="fill: #a9a9a9; stroke: #a9a9a9; stroke-width: 0.8"/>
      </g>
     </g>
     <g id="text_3">
      <!-- 2022-07 -->
      <g style="fill: #a9a9a9" transform="translate(247.660412 334.998438) scale(0.1 -0.1)">
       <use xlink:href="#DejaVuSans-32"/>
       <use xlink:href="#DejaVuSans-30" transform="translate(63.623047 0)"/>
       <use xlink:href="#DejaVuSans-32" transform="translate(127.246094 0)"/>
       <use xlink:href="#DejaVuSans-32" transform="translate(190.869141 0)"/>
       <use xlink:href="#DejaVuSans-2d" transform="translate(254.492188 0)"/>
       <use xlink:href="#DejaVuSans-30" transform="translate(290.576172 0)"/>
       <use xlink:href="#DejaVuSans-37" transform="translate(354.199219 0)"/>
      </g>
     </g>
    </g>
    <g id="xtick_4">
     <g id="line2d_7">
      <path d="M 338.555455 320.4 
L 338.555455 43.2 
" clip-path="url(#p1c2c436678)" style="fill: none; stroke-dasharray: 5.12,1.28,0.8,1.28; stroke-dashoffset: 0; stroke: #b0b0b0; stroke-width: 0.8"/>
     </g>
     <g id="line2d_8">
      <g>
       <use xlink:href="#m7c4c673a4f" x="338.555455" y="320.4" style="fill: #a9a9a9; stroke: #a9a9a9; stroke-width: 0.8"/>
      </g>
     </g>
     <g id="text_4">
      <!-- 2023-01 -->
      <g style="fill: #a9a9a9" transform="translate(317.664048 334.998438) scale(0.1 -0.1)">
       <defs>
        <path id="DejaVuSans-33" d="M 2597 2516 
Q 3050 2419 3304 2112 
Q 3559 1806 3559 1356 
Q 3559 666 3084 287 
Q 2609 -91 1734 -91 
Q 1441 -91 1130 -33 
Q 819 25 488 141 
L 488 750 
Q 750 597 1062 519 
Q 1375 441 1716 441 
Q 2309 441 2620 675 
Q 2931 909 2931 1356 
Q 2931 1769 2642 2001 
Q 2353 2234 1838 2234 
L 1294 2234 
L 1294 2753 
L 1863 2753 
Q 2328 2753 2575 2939 
Q 2822 3125 2822 3475 
Q 2822 3834 2567 4026 
Q 2313 4219 1838 4219 
Q 1578 4219 1281 4162 
Q 984 4106 628 3988 
L 628 4550 
Q 988 4650 1302 4700 
Q 1616 4750 1894 4750 
Q 2613 4750 3031 4423 
Q 3450 4097 3450 3541 
Q 3450 3153 3228 2886 
Q 3006 2619 2597 2516 
z
" transform="scale(0.015625)"/>
       </defs>
       <use xlink:href="#DejaVuSans-32"/>
       <use xlink:href="#DejaVuSans-30" transform="translate(63.623047 0)"/>
       <use xlink:href="#DejaVuSans-32" transform="translate(127.246094 0)"/>
       <use xlink:href="#DejaVuSans-33" transform="translate(190.869141 0)"/>
       <use xlink:href="#DejaVuSans-2d" transform="translate(254.492188 0)"/>
       <use xlink:href="#DejaVuSans-30" transform="translate(290.576172 0)"/>
       <use xlink:href="#DejaVuSans-31" transform="translate(354.199219 0)"/>
      </g>
     </g>
    </g>
    <g id="xtick_5">
     <g id="line2d_9">
      <path d="M 407.417727 320.4 
L 407.417727 43.2 
" clip-path="url(#p1c2c436678)" style="fill: none; stroke-dasharray: 5.12,1.28,0.8,1.28; stroke-dashoffset: 0; stroke: #b0b0b0; stroke-width: 0.8"/>
     </g>
     <g id="line2d_10">
      <g>
       <use xlink:href="#m7c4c673a4f" x="407.417727" y="320.4" style="fill: #a9a9a9; stroke: #a9a9a9; stroke-width: 0.8"/>
      </g>
     </g>
     <g id="text_5">
      <!-- 2023-07 -->
      <g style="fill: #a9a9a9" transform="translate(386.526321 334.998438) scale(0.1 -0.1)">
       <use xlink:href="#DejaVuSans-32"/>
       <use xlink:href="#DejaVuSans-30" transform="translate(63.623047 0)"/>
       <use xlink:href="#DejaVuSans-32" transform="translate(127.246094 0)"/>
       <use xlink:href="#DejaVuSans-33" transform="translate(190.869141 0)"/>
       <use xlink:href="#DejaVuSans-2d" transform="translate(254.492188 0)"/>
       <use xlink:href="#DejaVuSans-30" transform="translate(290.576172 0)"/>
       <use xlink:href="#DejaVuSans-37" transform="translate(354.199219 0)"/>
      </g>
     </g>
    </g>
    <g id="xtick_6">
     <g id="line2d_11">
      <path d="M 477.421364 320.4 
L 477.421364 43.2 
" clip-path="url(#p1c2c436678)" style="fill: none; stroke-dasharray: 5.12,1.28,0.8,1.28; stroke-dashoffset: 0; stroke: #b0b0b0; stroke-width: 0.8"/>
     </g>
     <g id="line2d_12">
      <g>
       <use xlink:href="#m7c4c673a4f" x="477.421364" y="320.4" style="fill: #a9a9a9; stroke: #a9a9a9; stroke-width: 0.8"/>
      </g>
     </g>
     <g id="text_6">
      <!-- 2024-01 -->
      <g style="fill: #a9a9a9" transform="translate(456.529957 334.998438) scale(0.1 -0.1)">
       <defs>
        <path id="DejaVuSans-34" d="M 2419 4116 
L 825 1625 
L 2419 1625 
L 2419 4116 
z
M 2253 4666 
L 3047 4666 
L 3047 1625 
L 3713 1625 
L 3713 1100 
L 3047 1100 
L 3047 0 
L 2419 0 
L 2419 1100 
L 313 1100 
L 313 1709 
L 2253 4666 
z
" transform="scale(0.015625)"/>
       </defs>
       <use xlink:href="#DejaVuSans-32"/>
       <use xlink:href="#DejaVuSans-30" transform="translate(63.623047 0)"/>
       <use xlink:href="#DejaVuSans-32" transform="translate(127.246094 0)"/>
       <use xlink:href="#DejaVuSans-34" transform="translate(190.869141 0)"/>
       <use xlink:href="#DejaVuSans-2d" transform="translate(254.492188 0)"/>
       <use xlink:href="#DejaVuSans-30" transform="translate(290.576172 0)"/>
       <use xlink:href="#DejaVuSans-31" transform="translate(354.199219 0)"/>
      </g>
     </g>
    </g>
    <g id="xtick_7">
     <g id="line2d_13">
      <path d="M 546.664091 320.4 
L 546.664091 43.2 
" clip-path="url(#p1c2c436678)" style="fill: none; stroke-dasharray: 5.12,1.28,0.8,1.28; stroke-dashoffset: 0; stroke: #b0b0b0; stroke-width: 0.8"/>
     </g>
     <g id="line2d_14">
      <g>
       <use xlink:href="#m7c4c673a4f" x="546.664091" y="320.4" style="fill: #a9a9a9; stroke: #a9a9a9; stroke-width: 0.8"/>
      </g>
     </g>
     <g id="text_7">
      <!-- 2024-07 -->
      <g style="fill: #a9a9a9" transform="translate(525.772685 334.998438) scale(0.1 -0.1)">
       <use xlink:href="#DejaVuSans-32"/>
       <use xlink:href="#DejaVuSans-30" transform="translate(63.623047 0)"/>
       <use xlink:href="#DejaVuSans-32" transform="translate(127.246094 0)"/>
       <use xlink:href="#DejaVuSans-34" transform="translate(190.869141 0)"/>
       <use xlink:href="#DejaVuSans-2d" transform="translate(254.492188 0)"/>
       <use xlink:href="#DejaVuSans-30" transform="translate(290.576172 0)"/>
       <use xlink:href="#DejaVuSans-37" transform="translate(354.199219 0)"/>
      </g>
     </g>
    </g>
    <g id="xtick_8">
     <g id="line2d_15">
      <path d="M 616.667727 320.4 
L 616.667727 43.2 
" clip-path="url(#p1c2c436678)" style="fill: none; stroke-dasharray: 5.12,1.28,0.8,1.28; stroke-dashoffset: 0; stroke: #b0b0b0; stroke-width: 0.8"/>
     </g>
     <g id="line2d_16">
      <g>
       <use xlink:href="#m7c4c673a4f" x="616.667727" y="320.4" style="fill: #a9a9a9; stroke: #a9a9a9; stroke-width: 0.8"/>
      </g>
     </g>
     <g id="text_8">
      <!-- 2025-01 -->
      <g style="fill: #a9a9a9" transform="translate(595.776321 334.998438) scale(0.1 -0.1)">
       <defs>
        <path id="DejaVuSans-35" d="M 691 4666 
L 3169 4666 
L 3169 4134 
L 1269 4134 
L 1269 2991 
Q 1406 3038 1543 3061 
Q 1681 3084 1819 3084 
Q 2600 3084 3056 2656 
Q 3513 2228 3513 1497 
Q 3513 744 3044 326 
Q 2575 -91 1722 -91 
Q 1428 -91 1123 -41 
Q 819 9 494 109 
L 494 744 
Q 775 591 1075 516 
Q 1375 441 1709 441 
Q 2250 441 2565 725 
Q 2881 1009 2881 1497 
Q 2881 1984 2565 2268 
Q 2250 2553 1709 2553 
Q 1456 2553 1204 2497 
Q 953 2441 691 2322 
L 691 4666 
z
" transform="scale(0.015625)"/>
       </defs>
       <use xlink:href="#DejaVuSans-32"/>
       <use xlink:href="#DejaVuSans-30" transform="translate(63.623047 0)"/>
       <use xlink:href="#DejaVuSans-32" transform="translate(127.246094 0)"/>
       <use xlink:href="#DejaVuSans-35" transform="translate(190.869141 0)"/>
       <use xlink:href="#DejaVuSans-2d" transform="translate(254.492188 0)"/>
       <use xlink:href="#DejaVuSans-30" transform="translate(290.576172 0)"/>
       <use xlink:href="#DejaVuSans-31" transform="translate(354.199219 0)"/>
      </g>
     </g>
    </g>
    <g id="xtick_9">
     <g id="line2d_17">
      <path d="M 685.53 320.4 
L 685.53 43.2 
" clip-path="url(#p1c2c436678)" style="fill: none; stroke-dasharray: 5.12,1.28,0.8,1.28; stroke-dashoffset: 0; stroke: #b0b0b0; stroke-width: 0.8"/>
     </g>
     <g id="line2d_18">
      <g>
       <use xlink:href="#m7c4c673a4f" x="685.53" y="320.4" style="fill: #a9a9a9; stroke: #a9a9a9; stroke-width: 0.8"/>
      </g>
     </g>
     <g id="text_9">
      <!-- 2025-07 -->
      <g style="fill: #a9a9a9" transform="translate(664.638594 334.998438) scale(0.1 -0.1)">
       <use xlink:href="#DejaVuSans-32"/>
       <use xlink:href="#DejaVuSans-30" transform="translate(63.623047 0)"/>
       <use xlink:href="#DejaVuSans-32" transform="translate(127.246094 0)"/>
       <use xlink:href="#DejaVuSans-35" transform="translate(190.869141 0)"/>
       <use xlink:href="#DejaVuSans-2d" transform="translate(254.492188 0)"/>
       <use xlink:href="#DejaVuSans-30" transform="translate(290.576172 0)"/>
       <use xlink:href="#DejaVuSans-37" transform="translate(354.199219 0)"/>
      </g>
     </g>
    </g>
    <g id="xtick_10">
     <g id="line2d_19">
      <path d="M 755.533636 320.4 
L 755.533636 43.2 
" clip-path="url(#p1c2c436678)" style="fill: none; stroke-dasharray: 5.12,1.28,0.8,1.28; stroke-dashoffset: 0; stroke: #b0b0b0; stroke-width: 0.8"/>
     </g>
     <g id="line2d_20">
      <g>
       <use xlink:href="#m7c4c673a4f" x="755.533636" y="320.4" style="fill: #a9a9a9; stroke: #a9a9a9; stroke-width: 0.8"/>
      </g>
     </g>
     <g id="text_10">
      <!-- 2026-01 -->
      <g style="fill: #a9a9a9" transform="translate(734.64223 334.998438) scale(0.1 -0.1)">
       <defs>
        <path id="DejaVuSans-36" d="M 2113 2584 
Q 1688 2584 1439 2293 
Q 1191 2003 1191 1497 
Q 1191 994 1439 701 
Q 1688 409 2113 409 
Q 2538 409 2786 701 
Q 3034 994 3034 1497 
Q 3034 2003 2786 2293 
Q 2538 2584 2113 2584 
z
M 3366 4563 
L 3366 3988 
Q 3128 4100 2886 4159 
Q 2644 4219 2406 4219 
Q 1781 4219 1451 3797 
Q 1122 3375 1075 2522 
Q 1259 2794 1537 2939 
Q 1816 3084 2150 3084 
Q 2853 3084 3261 2657 
Q 3669 2231 3669 1497 
Q 3669 778 3244 343 
Q 2819 -91 2113 -91 
Q 1303 -91 875 529 
Q 447 1150 447 2328 
Q 447 3434 972 4092 
Q 1497 4750 2381 4750 
Q 2619 4750 2861 4703 
Q 3103 4656 3366 4563 
z
" transform="scale(0.015625)"/>
       </defs>
       <use xlink:href="#DejaVuSans-32"/>
       <use xlink:href="#DejaVuSans-30" transform="translate(63.623047 0)"/>
       <use xlink:href="#DejaVuSans-32" transform="translate(127.246094 0)"/>
       <use xlink:href="#DejaVuSans-36" transform="translate(190.869141 0)"/>
       <use xlink:href="#DejaVuSans-2d" transform="translate(254.492188 0)"/>
       <use xlink:href="#DejaVuSans-30" transform="translate(290.576172 0)"/>
       <use xlink:href="#DejaVuSans-31" transform="translate(354.199219 0)"/>
      </g>
     </g>
    </g>
   </g>
   <g id="matplotlib.axis_2">
    <g id="ytick_1">
     <g id="line2d_21">
      <path d="M 108 307.829954 
L 777.6 307.829954 
" clip-path="url(#p1c2c436678)" style="fill: none; stroke-dasharray: 5.12,1.28,0.8,1.28; stroke-dashoffset: 0; stroke: #b0b0b0; stroke-width: 0.8"/>
     </g>
     <g id="line2d_22">
      <defs>
       <path id="m59e9ae72e3" d="M 0 0 
L -3.5 0 
" style="stroke: #a9a9a9; stroke-width: 0.8"/>
      </defs>
      <g>
       <use xlink:href="#m59e9ae72e3" x="108" y="307.829954" style="fill: #a9a9a9; stroke: #a9a9a9; stroke-width: 0.8"/>
      </g>
     </g>
     <g id="text_11">
      <!-- 0 -->
      <g style="fill: #a9a9a9" transform="translate(94.6375 311.629172) scale(0.1 -0.1)">
       <use xlink:href="#DejaVuSans-30"/>
      </g>
     </g>
    </g>
    <g id="ytick_2">
     <g id="line2d_23">
      <path d="M 108 277.87631 
L 777.6 277.87631 
" clip-path="url(#p1c2c436678)" style="fill: none; stroke-dasharray: 5.12,1.28,0.8,1.28; stroke-dashoffset: 0; stroke: #b0b0b0; stroke-width: 0.8"/>
     </g>
     <g id="line2d_24">
      <g>
       <use xlink:href="#m59e9ae72e3" x="108" y="277.87631" style="fill: #a9a9a9; stroke: #a9a9a9; stroke-width: 0.8"/>
      </g>
     </g>
     <g id="text_12">
      <!-- 1000 -->
      <g style="fill: #a9a9a9" transform="translate(75.55 281.675529) scale(0.1 -0.1)">
       <use xlink:href="#DejaVuSans-31"/>
       <use xlink:href="#DejaVuSans-30" transform="translate(63.623047 0)"/>
       <use xlink:href="#DejaVuSans-30" transform="translate(127.246094 0)"/>
       <use xlink:href="#DejaVuSans-30" transform="translate(190.869141 0)"/>
      </g>
     </g>
    </g>
    <g id="ytick_3">
     <g id="line2d_25">
      <path d="M 108 247.922667 
L 777.6 247.922667 
" clip-path="url(#p1c2c436678)" style="fill: none; stroke-dasharray: 5.12,1.28,0.8,1.28; stroke-dashoffset: 0; stroke: #b0b0b0; stroke-width: 0.8"/>
     </g>
     <g id="line2d_26">
      <g>
       <use xlink:href="#m59e9ae72e3" x="108" y="247.922667" style="fill: #a9a9a9; stroke: #a9a9a9; stroke-width: 0.8"/>
      </g>
     </g>
     <g id="text_13">
      <!-- 2000 -->
      <g style="fill: #a9a9a9" transform="translate(75.55 251.721886) scale(0.1 -0.1)">
       <use xlink:href="#DejaVuSans-32"/>
       <use xlink:href="#DejaVuSans-30" transform="translate(63.623047 0)"/>
       <use xlink:href="#DejaVuSans-30" transform="translate(127.246094 0)"/>
       <use xlink:href="#DejaVuSans-30" transform="translate(190.869141 0)"/>
      </g>
     </g>
    </g>
    <g id="ytick_4">
     <g id="line2d_27">
      <path d="M 108 217.969024 
L 777.6 217.969024 
" clip-path="url(#p1c2c436678)" style="fill: none; stroke-dasharray: 5.12,1.28,0.8,1.28; stroke-dashoffset: 0; stroke: #b0b0b0; stroke-width: 0.8"/>
     </g>
     <g id="line2d_28">
      <g>
       <use xlink:href="#m59e9ae72e3" x="108" y="217.969024" style="fill: #a9a9a9; stroke: #a9a9a9; stroke-width: 0.8"/>
      </g>
     </g>
     <g id="text_14">
      <!-- 3000 -->
      <g style="fill: #a9a9a9" transform="translate(75.55 221.768243) scale(0.1 -0.1)">
       <use xlink:href="#DejaVuSans-33"/>
       <use xlink:href="#DejaVuSans-30" transform="translate(63.623047 0)"/>
       <use xlink:href="#DejaVuSans-30" transform="translate(127.246094 0)"/>
       <use xlink:href="#DejaVuSans-30" transform="translate(190.869141 0)"/>
      </g>
     </g>
    </g>
    <g id="ytick_5">
     <g id="line2d_29">
      <path d="M 108 188.015381 
L 777.6 188.015381 
" clip-path="url(#p1c2c436678)" style="fill: none; stroke-dasharray: 5.12,1.28,0.8,1.28; stroke-dashoffset: 0; stroke: #b0b0b0; stroke-width: 0.8"/>
     </g>
     <g id="line2d_30">
      <g>
       <use xlink:href="#m59e9ae72e3" x="108" y="188.015381" style="fill: #a9a9a9; stroke: #a9a9a9; stroke-width: 0.8"/>
      </g>
     </g>
     <g id="text_15">
      <!-- 4000 -->
      <g style="fill: #a9a9a9" transform="translate(75.55 191.8146) scale(0.1 -0.1)">
       <use xlink:href="#DejaVuSans-34"/>
       <use xlink:href="#DejaVuSans-30" transform="translate(63.623047 0)"/>
       <use xlink:href="#DejaVuSans-30" transform="translate(127.246094 0)"/>
       <use xlink:href="#DejaVuSans-30" transform="translate(190.869141 0)"/>
      </g>
     </g>
    </g>
    <g id="ytick_6">
     <g id="line2d_31">
      <path d="M 108 158.061738 
L 777.6 158.061738 
" clip-path="url(#p1c2c436678)" style="fill: none; stroke-dasharray: 5.12,1.28,0.8,1.28; stroke-dashoffset: 0; stroke: #b0b0b0; stroke-width: 0.8"/>
     </g>
     <g id="line2d_32">
      <g>
       <use xlink:href="#m59e9ae72e3" x="108" y="158.061738" style="fill: #a9a9a9; stroke: #a9a9a9; stroke-width: 0.8"/>
      </g>
     </g>
     <g id="text_16">
      <!-- 5000 -->
      <g style="fill: #a9a9a9" transform="translate(75.55 161.860957) scale(0.1 -0.1)">
       <use xlink:href="#DejaVuSans-35"/>
       <use xlink:href="#DejaVuSans-30" transform="translate(63.623047 0)"/>
       <use xlink:href="#DejaVuSans-30" transform="translate(127.246094 0)"/>
       <use xlink:href="#DejaVuSans-30" transform="translate(190.869141 0)"/>
      </g>
     </g>
    </g>
    <g id="ytick_7">
     <g id="line2d_33">
      <path d="M 108 128.108095 
L 777.6 128.108095 
" clip-path="url(#p1c2c436678)" style="fill: none; stroke-dasharray: 5.12,1.28,0.8,1.28; stroke-dashoffset: 0; stroke: #b0b0b0; stroke-width: 0.8"/>
     </g>
     <g id="line2d_34">
      <g>
       <use xlink:href="#m59e9ae72e3" x="108" y="128.108095" style="fill: #a9a9a9; stroke: #a9a9a9; stroke-width: 0.8"/>
      </g>
     </g>
     <g id="text_17">
      <!-- 6000 -->
      <g style="fill: #a9a9a9" transform="translate(75.55 131.907313) scale(0.1 -0.1)">
       <use xlink:href="#DejaVuSans-36"/>
       <use xlink:href="#DejaVuSans-30" transform="translate(63.623047 0)"/>
       <use xlink:href="#DejaVuSans-30" transform="translate(127.246094 0)"/>
       <use xlink:href="#DejaVuSans-30" transform="translate(190.869141 0)"/>
      </g>
     </g>
    </g>
    <g id="ytick_8">
     <g id="line2d_35">
      <path d="M 108 98.154451 
L 777.6 98.154451 
" clip-path="url(#p1c2c436678)" style="fill: none; stroke-dasharray: 5.12,1.28,0.8,1.28; stroke-dashoffset: 0; stroke: #b0b0b0; stroke-width: 0.8"/>
     </g>
     <g id="line2d_36">
      <g>
       <use xlink:href="#m59e9ae72e3" x="108" y="98.154451" style="fill: #a9a9a9; stroke: #a9a9a9; stroke-width: 0.8"/>
      </g>
     </g>
     <g id="text_18">
      <!-- 7000 -->
      <g style="fill: #a9a9a9" transform="translate(75.55 101.95367) scale(0.1 -0.1)">
       <use xlink:href="#DejaVuSans-37"/>
       <use xlink:href="#DejaVuSans-30" transform="translate(63.623047 0)"/>
       <use xlink:href="#DejaVuSans-30" transform="translate(127.246094 0)"/>
       <use xlink:href="#DejaVuSans-30" transform="translate(190.869141 0)"/>
      </g>
     </g>
    </g>
    <g id="ytick_9">
     <g id="line2d_37">
      <path d="M 108 68.200808 
L 777.6 68.200808 
" clip-path="url(#p1c2c436678)" style="fill: none; stroke-dasharray: 5.12,1.28,0.8,1.28; stroke-dashoffset: 0; stroke: #b0b0b0; stroke-width: 0.8"/>
     </g>
     <g id="line2d_38">
      <g>
       <use xlink:href="#m59e9ae72e3" x="108" y="68.200808" style="fill: #a9a9a9; stroke: #a9a9a9; stroke-width: 0.8"/>
      </g>
     </g>
     <g id="text_19">
      <!-- 8000 -->
      <g style="fill: #a9a9a9" transform="translate(75.55 72.000027) scale(0.1 -0.1)">
       <defs>
        <path id="DejaVuSans-38" d="M 2034 2216 
Q 1584 2216 1326 1975 
Q 1069 1734 1069 1313 
Q 1069 891 1326 650 
Q 1584 409 2034 409 
Q 2484 409 2743 651 
Q 3003 894 3003 1313 
Q 3003 1734 2745 1975 
Q 2488 2216 2034 2216 
z
M 1403 2484 
Q 997 2584 770 2862 
Q 544 3141 544 3541 
Q 544 4100 942 4425 
Q 1341 4750 2034 4750 
Q 2731 4750 3128 4425 
Q 3525 4100 3525 3541 
Q 3525 3141 3298 2862 
Q 3072 2584 2669 2484 
Q 3125 2378 3379 2068 
Q 3634 1759 3634 1313 
Q 3634 634 3220 271 
Q 2806 -91 2034 -91 
Q 1263 -91 848 271 
Q 434 634 434 1313 
Q 434 1759 690 2068 
Q 947 2378 1403 2484 
z
M 1172 3481 
Q 1172 3119 1398 2916 
Q 1625 2713 2034 2713 
Q 2441 2713 2670 2916 
Q 2900 3119 2900 3481 
Q 2900 3844 2670 4047 
Q 2441 4250 2034 4250 
Q 1625 4250 1398 4047 
Q 1172 3844 1172 3481 
z
" transform="scale(0.015625)"/>
       </defs>
       <use xlink:href="#DejaVuSans-38"/>
       <use xlink:href="#DejaVuSans-30" transform="translate(63.623047 0)"/>
       <use xlink:href="#DejaVuSans-30" transform="translate(127.246094 0)"/>
       <use xlink:href="#DejaVuSans-30" transform="translate(190.869141 0)"/>
      </g>
     </g>
    </g>
   </g>
   <g id="line2d_39">
    <path d="M 138.436364 307.740093 
L 140.719091 307.530417 
L 141.099545 307.350695 
L 142.621364 307.14102 
L 144.143182 306.81153 
L 144.904091 306.691715 
L 146.806364 306.511993 
L 147.567273 306.212457 
L 147.947727 305.673291 
L 148.328182 305.403709 
L 148.708636 304.505099 
L 149.089091 304.445192 
L 149.85 303.965934 
L 150.610909 303.396814 
L 152.132727 302.258576 
L 152.513182 302.108808 
L 153.274091 301.62955 
L 154.415455 301.06043 
L 154.795909 300.40145 
L 155.556818 299.802377 
L 156.317727 299.562748 
L 157.459091 299.383026 
L 159.741818 299.023583 
L 160.122273 298.843861 
L 162.785455 298.604232 
L 164.307273 298.214834 
L 167.350909 297.76553 
L 167.731364 297.555854 
L 168.111818 297.495947 
L 168.872727 297.226364 
L 171.535909 296.747106 
L 172.296818 296.507477 
L 175.720909 295.908404 
L 176.481818 295.728682 
L 178.003636 295.519006 
L 178.764545 295.279377 
L 179.145 294.710258 
L 180.286364 294.231 
L 181.427727 293.90151 
L 181.808182 293.691834 
L 182.569091 293.542066 
L 184.090909 293.062808 
L 184.851818 293.0029 
L 185.612727 292.793225 
L 187.134545 292.373874 
L 187.515 292.34392 
L 188.275909 291.954523 
L 188.656364 291.894615 
L 189.036818 291.68494 
L 193.221818 290.966053 
L 194.743636 290.486794 
L 195.124091 290.217211 
L 197.026364 289.558231 
L 197.787273 288.989112 
L 198.928636 288.749483 
L 203.874545 287.251801 
L 204.255 287.191893 
L 205.776818 286.562867 
L 206.157273 286.50296 
L 206.918182 286.17347 
L 207.679091 286.143516 
L 208.820455 285.784072 
L 209.200909 285.784072 
L 209.581364 285.60435 
L 210.342273 285.514489 
L 210.722727 285.364721 
L 212.625 285.27486 
L 213.005455 285.184999 
L 213.766364 284.765648 
L 214.907727 284.346297 
L 215.668636 283.926946 
L 216.81 283.417734 
L 218.331818 282.63894 
L 218.712273 282.189635 
L 219.473182 280.931582 
L 219.853636 280.811768 
L 220.234091 280.811768 
L 221.755909 279.943112 
L 222.136364 279.853251 
L 222.516818 279.463854 
L 223.277727 279.134363 
L 224.038636 278.77492 
L 224.419091 278.295661 
L 224.799545 277.636681 
L 225.18 277.397052 
L 225.560455 276.708118 
L 225.940909 276.258814 
L 228.223636 274.940853 
L 229.745455 273.503079 
L 230.125909 272.574516 
L 230.506364 271.975443 
L 230.886818 271.645953 
L 231.267273 271.466231 
L 235.832727 267.242767 
L 237.354545 266.254297 
L 237.735 266.104529 
L 239.256818 265.146012 
L 239.637273 264.96629 
L 241.539545 263.109164 
L 242.300455 262.779674 
L 243.061364 262.240509 
L 243.441818 262.00088 
L 243.822273 261.940972 
L 244.963636 261.252039 
L 245.344091 260.802734 
L 247.246364 259.694449 
L 247.626818 259.544681 
L 248.768182 258.705979 
L 254.475 256.549317 
L 255.235909 255.800475 
L 256.377273 255.201403 
L 257.138182 254.692191 
L 257.899091 254.452562 
L 258.279545 254.182979 
L 258.66 254.063164 
L 259.801364 253.254416 
L 261.703636 252.805111 
L 262.845 252.086224 
L 263.986364 251.816641 
L 264.366818 251.72678 
L 265.508182 250.858124 
L 267.03 250.40882 
L 267.410455 250.07933 
L 269.693182 249.240628 
L 270.454091 249.090859 
L 271.215 248.761369 
L 273.878182 247.742945 
L 274.639091 247.653085 
L 275.780455 247.233734 
L 277.682727 246.245263 
L 279.965455 244.897349 
L 280.726364 244.687674 
L 281.867727 244.088601 
L 282.628636 243.938833 
L 283.389545 243.459574 
L 284.150455 243.249899 
L 285.291818 242.770641 
L 286.813636 242.560965 
L 287.574545 242.141614 
L 287.955 241.78217 
L 288.335455 241.063283 
L 289.857273 240.613978 
L 291.379091 239.895091 
L 294.803182 238.307548 
L 295.564091 238.127826 
L 296.705455 237.528753 
L 297.085909 237.468846 
L 298.988182 236.480376 
L 299.749091 235.971164 
L 300.890455 235.731535 
L 303.553636 234.832925 
L 309.640909 231.927422 
L 310.021364 231.508071 
L 310.401818 231.268442 
L 310.782273 231.178581 
L 311.543182 230.519601 
L 311.923636 230.459693 
L 312.304091 229.800713 
L 312.684545 229.650945 
L 313.065 229.321455 
L 313.445455 229.261548 
L 314.206364 228.752336 
L 314.967273 228.482753 
L 315.347727 228.183216 
L 315.728182 228.033448 
L 317.25 227.044978 
L 318.391364 226.445905 
L 319.152273 226.23623 
L 319.913182 225.786925 
L 320.293636 225.097991 
L 321.054545 224.498918 
L 321.435 224.409057 
L 323.717727 223.270819 
L 324.478636 222.941329 
L 325.239545 222.37221 
L 326.380909 221.263925 
L 327.141818 220.784667 
L 327.522273 220.335362 
L 329.044091 219.227077 
L 329.805 218.418329 
L 330.565909 218.148746 
L 331.326818 217.60958 
L 332.468182 216.980554 
L 332.848636 216.920647 
L 336.272727 215.123428 
L 337.033636 214.913753 
L 338.555455 214.374587 
L 338.935909 214.045097 
L 340.457727 213.41607 
L 340.838182 213.296256 
L 341.599091 212.787044 
L 342.36 212.457554 
L 343.120909 211.888435 
L 343.881818 210.300891 
L 344.642727 209.402282 
L 345.784091 208.773256 
L 346.545 208.443766 
L 346.925455 208.383858 
L 347.686364 208.024415 
L 349.208182 207.485249 
L 349.969091 207.035944 
L 350.73 206.676501 
L 351.110455 206.556686 
L 353.393182 205.118911 
L 353.773636 204.669607 
L 354.915 203.980673 
L 355.295455 203.830905 
L 356.056364 203.351646 
L 357.578182 202.482991 
L 357.958636 202.39313 
L 358.339091 202.06364 
L 361.002273 201.16503 
L 361.382727 200.895448 
L 362.143636 200.655818 
L 365.187273 199.158136 
L 365.948182 198.738785 
L 366.328636 198.559063 
L 367.089545 197.930037 
L 367.850455 197.720361 
L 368.230909 197.360918 
L 368.611364 197.30101 
L 369.372273 196.701937 
L 371.274545 195.533745 
L 372.035455 195.294116 
L 372.415909 195.054487 
L 372.796364 194.99458 
L 374.318182 194.245739 
L 375.459545 193.856341 
L 376.220455 193.736527 
L 377.742273 193.137454 
L 378.122727 193.1075 
L 379.644545 192.508427 
L 380.785909 191.669725 
L 381.166364 191.519957 
L 381.927273 191.070653 
L 382.307727 190.980792 
L 384.590455 189.632878 
L 384.970909 189.543017 
L 386.112273 188.824129 
L 387.253636 188.404778 
L 388.014545 188.135196 
L 389.536364 187.59603 
L 390.297273 187.326447 
L 391.819091 186.996957 
L 392.58 186.757328 
L 394.482273 186.098348 
L 395.623636 185.738904 
L 396.004091 185.589136 
L 397.145455 185.409414 
L 399.428182 184.960109 
L 400.569545 184.690527 
L 400.95 184.510805 
L 401.710909 184.361036 
L 402.471818 184.151361 
L 403.232727 183.791917 
L 403.613182 183.642149 
L 403.993636 183.642149 
L 408.178636 182.294235 
L 408.559091 182.08456 
L 408.939545 182.08456 
L 409.700455 181.785023 
L 410.080909 181.365672 
L 412.363636 180.377202 
L 413.885455 179.838036 
L 414.265909 179.598407 
L 415.407273 179.238964 
L 416.168182 179.029288 
L 416.548636 178.759705 
L 416.929091 178.669844 
L 417.309545 178.340354 
L 418.450909 178.100725 
L 419.211818 177.741281 
L 419.592273 177.262023 
L 423.777273 176.303506 
L 424.157727 176.303506 
L 424.918636 176.063877 
L 428.342727 175.165268 
L 428.723182 175.0155 
L 429.484091 174.865732 
L 431.386364 174.35652 
L 432.527727 173.997076 
L 434.43 173.368049 
L 435.190909 173.038559 
L 435.951818 172.739023 
L 436.332273 172.46944 
L 437.093182 172.229811 
L 439.756364 171.181433 
L 441.278182 171.001712 
L 444.321818 169.83352 
L 444.702273 169.533983 
L 445.082727 169.444122 
L 445.463182 169.234447 
L 445.843636 169.204493 
L 450.028636 167.61695 
L 451.930909 167.077784 
L 452.691818 166.688387 
L 453.833182 166.418804 
L 455.355 165.130798 
L 456.876818 164.441864 
L 458.398636 163.782884 
L 458.779091 163.693023 
L 459.159545 163.42344 
L 459.920455 163.183811 
L 460.300909 162.914228 
L 462.203182 162.255248 
L 466.007727 160.248354 
L 466.768636 159.88891 
L 467.149091 159.589374 
L 467.91 159.319791 
L 470.192727 158.181552 
L 470.573182 158.091691 
L 471.714545 157.552526 
L 473.236364 157.01336 
L 473.997273 156.68387 
L 474.758182 156.564056 
L 475.138636 156.294473 
L 476.660455 155.994936 
L 477.421364 155.665446 
L 479.323636 154.736883 
L 484.269545 152.49036 
L 485.410909 152.100963 
L 485.791364 151.83138 
L 486.552273 151.741519 
L 486.932727 151.471936 
L 487.693636 151.352122 
L 488.454545 150.962724 
L 489.215455 150.723095 
L 490.737273 150.18393 
L 491.878636 149.764579 
L 493.780909 149.255367 
L 495.302727 148.596387 
L 496.063636 148.177036 
L 497.585455 147.368287 
L 498.346364 147.188565 
L 498.726818 146.948936 
L 499.107273 146.859075 
L 501.009545 145.900559 
L 504.053182 144.792274 
L 504.433636 144.672459 
L 505.194545 144.253108 
L 507.096818 143.564174 
L 509.379545 142.605658 
L 510.901364 141.856817 
L 514.705909 140.299227 
L 515.466818 139.90983 
L 515.847273 139.819969 
L 516.608182 139.520433 
L 516.988636 139.520433 
L 517.749545 139.160989 
L 519.271364 137.843029 
L 519.651818 137.723214 
L 520.032273 137.483585 
L 521.173636 137.154095 
L 521.554091 136.854558 
L 522.315 136.584976 
L 523.456364 135.806181 
L 524.217273 135.596505 
L 524.978182 135.177154 
L 526.119545 134.907572 
L 528.021818 134.218638 
L 528.782727 133.979009 
L 529.543636 133.619565 
L 530.685 132.990538 
L 531.445909 132.780863 
L 532.967727 132.061976 
L 535.250455 131.253227 
L 536.391818 130.714062 
L 538.294091 129.755545 
L 539.055 129.456009 
L 539.435455 129.096565 
L 540.576818 128.64726 
L 540.957273 128.587353 
L 542.479091 127.868465 
L 543.620455 127.509022 
L 544.761818 127.089671 
L 545.522727 126.850042 
L 546.283636 126.700273 
L 547.044545 126.280922 
L 547.425 126.131154 
L 547.805455 125.831618 
L 548.946818 125.532081 
L 549.707727 125.232545 
L 550.468636 124.903055 
L 551.990455 124.274028 
L 554.653636 123.555141 
L 555.414545 123.255604 
L 556.936364 122.956068 
L 557.697273 122.8063 
L 558.838636 122.356995 
L 559.98 122.117366 
L 562.262727 120.739498 
L 563.404091 120.020611 
L 565.686818 119.301724 
L 566.067273 119.002187 
L 569.110909 117.893902 
L 570.252273 117.534459 
L 571.013182 117.115108 
L 571.774091 116.905432 
L 572.154545 116.695757 
L 572.915455 116.545988 
L 574.437273 115.946915 
L 575.198182 115.437704 
L 576.339545 115.138167 
L 577.480909 114.359372 
L 577.861364 114.299465 
L 579.383182 113.670439 
L 580.905 113.281041 
L 581.285455 113.221134 
L 581.665909 113.041412 
L 582.046364 113.011458 
L 582.807273 112.741876 
L 583.187727 112.711922 
L 584.329091 112.262617 
L 585.850909 111.813313 
L 586.611818 111.21424 
L 588.133636 110.345584 
L 588.514091 110.255723 
L 588.894545 110.046048 
L 589.275 109.98614 
L 592.699091 108.248829 
L 593.079545 107.889385 
L 594.981818 107.410127 
L 596.123182 106.870962 
L 596.884091 106.661286 
L 597.264545 106.481564 
L 597.645 106.152074 
L 599.547273 105.46314 
L 604.493182 103.606015 
L 605.254091 103.456246 
L 607.156364 102.82722 
L 608.297727 102.318008 
L 610.960909 101.509259 
L 611.721818 101.059955 
L 624.657273 97.046167 
L 625.418182 96.836491 
L 626.559545 96.41714 
L 626.94 96.41714 
L 628.081364 96.147557 
L 628.842273 95.997789 
L 629.603182 95.788114 
L 630.744545 95.159087 
L 631.885909 94.799643 
L 634.549091 93.87108 
L 636.070909 93.092286 
L 637.212273 92.822703 
L 637.973182 92.583074 
L 638.734091 92.193676 
L 639.114545 91.864186 
L 639.875455 91.624557 
L 640.255909 91.384928 
L 641.016818 91.295067 
L 643.68 90.516272 
L 644.821364 90.276643 
L 645.962727 89.977107 
L 646.723636 89.797385 
L 647.865 89.198312 
L 652.05 87.610769 
L 652.430455 87.520908 
L 652.810909 87.311233 
L 653.571818 87.191418 
L 654.332727 87.04165 
L 654.713182 87.04165 
L 655.854545 86.682206 
L 656.995909 86.322762 
L 660.42 85.334292 
L 661.180909 85.124617 
L 661.561364 85.034756 
L 661.941818 84.795127 
L 662.702727 84.645358 
L 663.463636 84.555497 
L 663.844091 84.345822 
L 664.224545 84.315868 
L 665.365909 83.776703 
L 666.507273 83.50712 
L 667.268182 83.17763 
L 668.029091 82.908047 
L 668.79 82.698372 
L 669.550909 82.368881 
L 669.931364 82.308974 
L 670.692273 82.039391 
L 671.833636 81.709901 
L 672.594545 81.649994 
L 673.735909 81.230643 
L 674.496818 81.110828 
L 677.16 80.122358 
L 679.442727 79.732961 
L 680.203636 79.493332 
L 680.584091 79.433424 
L 681.345 79.103934 
L 681.725455 79.044027 
L 682.105909 78.864305 
L 682.866818 78.205325 
L 686.671364 76.797504 
L 688.954091 76.198431 
L 689.715 75.77908 
L 690.095455 75.689219 
L 691.236818 75.060193 
L 691.617273 74.970332 
L 691.997727 74.670795 
L 693.139091 74.341305 
L 699.226364 71.58557 
L 699.606818 71.525663 
L 701.889545 70.357471 
L 702.27 70.117841 
L 703.411364 69.788351 
L 704.933182 69.159325 
L 705.313636 69.129371 
L 707.215909 68.410484 
L 707.976818 68.260716 
L 708.737727 67.691596 
L 709.118182 67.691596 
L 709.879091 67.422014 
L 710.259545 67.362106 
L 710.64 67.152431 
L 712.161818 66.852894 
L 713.683636 66.193914 
L 714.064091 66.193914 
L 715.205455 65.804517 
L 715.966364 65.684702 
L 717.107727 65.025722 
L 717.868636 64.636325 
L 719.770909 64.007298 
L 720.531818 63.677808 
L 722.814545 63.048782 
L 723.955909 62.809153 
L 725.097273 62.389801 
L 726.999545 61.700868 
L 732.325909 60.382907 
L 733.847727 59.66402 
L 734.989091 59.304576 
L 737.652273 58.765411 
L 738.413182 58.645596 
L 740.695909 57.746987 
L 741.456818 57.627172 
L 742.978636 57.11796 
L 743.359091 57.11796 
L 743.739545 56.818424 
L 744.500455 56.578795 
L 744.880909 56.578795 
L 746.022273 56.159444 
L 746.783182 55.859907 
L 747.163636 55.8 
L 747.163636 55.8 
" clip-path="url(#p1c2c436678)" style="fill: none; stroke: #1f77b4; stroke-width: 1.5; stroke-linecap: square"/>
   </g>
   <g id="line2d_40">
    <path d="M 138.816818 307.8 
L 142.240909 307.710139 
L 145.284545 307.560371 
L 146.806364 307.560371 
L 147.186818 307.440556 
L 149.089091 307.350695 
L 151.371818 307.081113 
L 153.654545 306.991252 
L 154.415455 306.901391 
L 157.078636 306.781576 
L 159.741818 306.691715 
L 161.644091 306.631808 
L 166.59 306.541947 
L 168.492273 306.48204 
L 171.916364 306.392179 
L 173.438182 306.362225 
L 177.242727 306.272364 
L 178.764545 306.122596 
L 180.286364 306.092642 
L 182.569091 306.002781 
L 184.090909 305.972828 
L 185.993182 305.91292 
L 187.515 305.763152 
L 190.939091 305.673291 
L 191.7 305.613384 
L 193.221818 305.523523 
L 195.504545 305.433662 
L 197.026364 305.343801 
L 203.874545 304.894497 
L 206.537727 304.804636 
L 207.679091 304.684821 
L 209.581364 304.59496 
L 213.385909 304.385285 
L 217.190455 304.325377 
L 218.712273 304.145656 
L 220.614545 304.055795 
L 224.419091 303.666397 
L 226.701818 303.366861 
L 228.223636 303.306954 
L 231.267273 302.887603 
L 233.55 302.827695 
L 234.691364 302.707881 
L 235.832727 302.61802 
L 255.616364 301.150291 
L 258.279545 301.06043 
L 259.801364 300.880708 
L 261.703636 300.790847 
L 263.986364 300.700987 
L 265.888636 300.611126 
L 267.410455 300.581172 
L 269.312727 300.521265 
L 270.073636 300.431404 
L 275.4 300.341543 
L 276.160909 300.251682 
L 280.726364 300.161821 
L 284.150455 299.982099 
L 286.813636 299.892238 
L 288.335455 299.712516 
L 290.998636 299.622655 
L 291.759545 299.502841 
L 293.661818 299.442934 
L 297.466364 299.383026 
L 298.988182 299.233258 
L 300.51 299.203304 
L 301.651364 299.113443 
L 303.173182 298.963675 
L 306.977727 298.754 
L 310.782273 298.664139 
L 314.206364 298.484417 
L 315.347727 298.454463 
L 316.108636 298.334649 
L 318.010909 298.244788 
L 318.771818 298.184881 
L 319.532727 298.124973 
L 320.293636 298.065066 
L 324.098182 297.975205 
L 332.468182 297.406086 
L 333.229091 297.346179 
L 334.370455 297.256318 
L 337.033636 297.166457 
L 338.935909 297.106549 
L 344.262273 297.016688 
L 345.023182 296.926828 
L 350.349545 296.836967 
L 354.154091 296.627291 
L 354.915 296.597337 
L 355.675909 296.507477 
L 357.578182 296.417616 
L 359.480455 296.357708 
L 361.382727 296.267847 
L 363.285 296.20794 
L 366.709091 296.118079 
L 368.991818 296.028218 
L 374.318182 295.938357 
L 378.503182 295.698728 
L 380.025 295.638821 
L 381.166364 295.54896 
L 386.492727 295.459099 
L 388.775455 295.369238 
L 395.623636 295.279377 
L 397.145455 295.249424 
L 401.710909 295.189516 
L 402.471818 295.129609 
L 407.798182 295.039748 
L 409.32 295.009794 
L 419.211818 294.919933 
L 421.494545 294.830073 
L 437.473636 294.740212 
L 439.375909 294.680304 
L 449.267727 294.620397 
L 450.028636 294.56049 
L 451.930909 294.500582 
L 453.072273 294.380768 
L 455.355 294.290907 
L 458.018182 294.171092 
L 461.442273 294.081231 
L 463.344545 294.021324 
L 466.007727 293.931463 
L 469.051364 293.781695 
L 470.953636 293.691834 
L 472.475455 293.66188 
L 478.943182 293.572019 
L 481.225909 293.482159 
L 485.410909 293.392298 
L 488.074091 293.272483 
L 490.737273 293.212576 
L 491.498182 293.152668 
L 500.629091 293.062808 
L 504.433636 292.853132 
L 507.096818 292.763271 
L 511.281818 292.523642 
L 513.945 292.433781 
L 515.466818 292.403827 
L 518.13 292.313966 
L 520.032273 292.104291 
L 523.836818 292.01443 
L 524.597727 291.924569 
L 528.402273 291.834708 
L 530.304545 291.774801 
L 534.489545 291.744847 
L 535.250455 291.654986 
L 539.435455 291.565125 
L 540.196364 291.505218 
L 548.566364 291.415357 
L 550.849091 291.325496 
L 556.555909 291.235635 
L 558.077727 291.205682 
L 561.501818 291.145774 
L 562.262727 291.055913 
L 567.208636 290.966053 
L 569.110909 290.906145 
L 575.959091 290.816284 
L 577.100455 290.726423 
L 578.241818 290.636562 
L 579.383182 290.546702 
L 585.09 290.456841 
L 587.372727 290.36698 
L 598.405909 290.277119 
L 601.83 290.097397 
L 607.156364 290.007536 
L 608.678182 289.977582 
L 613.243636 289.887721 
L 615.145909 289.827814 
L 623.135455 289.737953 
L 625.798636 289.618139 
L 632.646818 289.528278 
L 634.168636 289.498324 
L 637.973182 289.408463 
L 640.636364 289.288649 
L 644.821364 289.198788 
L 647.484545 289.078973 
L 650.908636 289.019066 
L 651.669545 288.959158 
L 660.039545 288.869298 
L 662.322273 288.779437 
L 664.985455 288.689576 
L 666.887727 288.629668 
L 677.920909 288.539807 
L 680.203636 288.449947 
L 686.290909 288.360086 
L 688.573636 288.270225 
L 693.519545 288.180364 
L 695.802273 288.090503 
L 698.845909 288.000642 
L 701.128636 287.910781 
L 716.346818 287.82092 
L 719.390455 287.671152 
L 728.140909 287.581291 
L 729.662727 287.551337 
L 738.793636 287.461476 
L 740.695909 287.401569 
L 747.163636 287.371615 
L 747.163636 287.371615 
" clip-path="url(#p1c2c436678)" style="fill: none; stroke: #ff7f0e; stroke-width: 1.5; stroke-linecap: square"/>
   </g>
   <g id="patch_3">
    <path d="M 108 320.4 
L 108 43.2 
" style="fill: none; stroke: #a9a9a9; stroke-width: 0.8; stroke-linejoin: miter; stroke-linecap: square"/>
   </g>
   <g id="patch_4">
    <path d="M 777.6 320.4 
L 777.6 43.2 
" style="fill: none"/>
   </g>
   <g id="patch_5">
    <path d="M 108 320.4 
L 777.6 320.4 
" style="fill: none; stroke: #a9a9a9; stroke-width: 0.8; stroke-linejoin: miter; stroke-linecap: square"/>
   </g>
   <g id="patch_6">
    <path d="M 108 43.2 
L 777.6 43.2 
" style="fill: none"/>
   </g>
   <g id="text_20">
    <!-- get_subscribe history -->
    <g style="fill: #a9a9a9" transform="translate(378.6075 37.2) scale(0.12 -0.12)">
     <defs>
      <path id="DejaVuSans-67" d="M 2906 1791 
Q 2906 2416 2648 2759 
Q 2391 3103 1925 3103 
Q 1463 3103 1205 2759 
Q 947 2416 947 1791 
Q 947 1169 1205 825 
Q 1463 481 1925 481 
Q 2391 481 2648 825 
Q 2906 1169 2906 1791 
z
M 3481 434 
Q 3481 -459 3084 -895 
Q 2688 -1331 1869 -1331 
Q 1566 -1331 1297 -1286 
Q 1028 -1241 775 -1147 
L 775 -588 
Q 1028 -725 1275 -790 
Q 1522 -856 1778 -856 
Q 2344 -856 2625 -561 
Q 2906 -266 2906 331 
L 2906 616 
Q 2728 306 2450 153 
Q 2172 0 1784 0 
Q 1141 0 747 490 
Q 353 981 353 1791 
Q 353 2603 747 3093 
Q 1141 3584 1784 3584 
Q 2172 3584 2450 3431 
Q 2728 3278 2906 2969 
L 2906 3500 
L 3481 3500 
L 3481 434 
z
" transform="scale(0.015625)"/>
      <path id="DejaVuSans-65" d="M 3597 1894 
L 3597 1613 
L 953 1613 
Q 991 1019 1311 708 
Q 1631 397 2203 397 
Q 2534 397 2845 478 
Q 3156 559 3463 722 
L 3463 178 
Q 3153 47 2828 -22 
Q 2503 -91 2169 -91 
Q 1331 -91 842 396 
Q 353 884 353 1716 
Q 353 2575 817 3079 
Q 1281 3584 2069 3584 
Q 2775 3584 3186 3129 
Q 3597 2675 3597 1894 
z
M 3022 2063 
Q 3016 2534 2758 2815 
Q 2500 3097 2075 3097 
Q 1594 3097 1305 2825 
Q 1016 2553 972 2059 
L 3022 2063 
z
" transform="scale(0.015625)"/>
      <path id="DejaVuSans-74" d="M 1172 4494 
L 1172 3500 
L 2356 3500 
L 2356 3053 
L 1172 3053 
L 1172 1153 
Q 1172 725 1289 603 
Q 1406 481 1766 481 
L 2356 481 
L 2356 0 
L 1766 0 
Q 1100 0 847 248 
Q 594 497 594 1153 
L 594 3053 
L 172 3053 
L 172 3500 
L 594 3500 
L 594 4494 
L 1172 4494 
z
" transform="scale(0.015625)"/>
      <path id="DejaVuSans-5f" d="M 3263 -1063 
L 3263 -1509 
L -63 -1509 
L -63 -1063 
L 3263 -1063 
z
" transform="scale(0.015625)"/>
      <path id="DejaVuSans-73" d="M 2834 3397 
L 2834 2853 
Q 2591 2978 2328 3040 
Q 2066 3103 1784 3103 
Q 1356 3103 1142 2972 
Q 928 2841 928 2578 
Q 928 2378 1081 2264 
Q 1234 2150 1697 2047 
L 1894 2003 
Q 2506 1872 2764 1633 
Q 3022 1394 3022 966 
Q 3022 478 2636 193 
Q 2250 -91 1575 -91 
Q 1294 -91 989 -36 
Q 684 19 347 128 
L 347 722 
Q 666 556 975 473 
Q 1284 391 1588 391 
Q 1994 391 2212 530 
Q 2431 669 2431 922 
Q 2431 1156 2273 1281 
Q 2116 1406 1581 1522 
L 1381 1569 
Q 847 1681 609 1914 
Q 372 2147 372 2553 
Q 372 3047 722 3315 
Q 1072 3584 1716 3584 
Q 2034 3584 2315 3537 
Q 2597 3491 2834 3397 
z
" transform="scale(0.015625)"/>
      <path id="DejaVuSans-75" d="M 544 1381 
L 544 3500 
L 1119 3500 
L 1119 1403 
Q 1119 906 1312 657 
Q 1506 409 1894 409 
Q 2359 409 2629 706 
Q 2900 1003 2900 1516 
L 2900 3500 
L 3475 3500 
L 3475 0 
L 2900 0 
L 2900 538 
Q 2691 219 2414 64 
Q 2138 -91 1772 -91 
Q 1169 -91 856 284 
Q 544 659 544 1381 
z
M 1991 3584 
L 1991 3584 
z
" transform="scale(0.015625)"/>
      <path id="DejaVuSans-62" d="M 3116 1747 
Q 3116 2381 2855 2742 
Q 2594 3103 2138 3103 
Q 1681 3103 1420 2742 
Q 1159 2381 1159 1747 
Q 1159 1113 1420 752 
Q 1681 391 2138 391 
Q 2594 391 2855 752 
Q 3116 1113 3116 1747 
z
M 1159 2969 
Q 1341 3281 1617 3432 
Q 1894 3584 2278 3584 
Q 2916 3584 3314 3078 
Q 3713 2572 3713 1747 
Q 3713 922 3314 415 
Q 2916 -91 2278 -91 
Q 1894 -91 1617 61 
Q 1341 213 1159 525 
L 1159 0 
L 581 0 
L 581 4863 
L 1159 4863 
L 1159 2969 
z
" transform="scale(0.015625)"/>
      <path id="DejaVuSans-63" d="M 3122 3366 
L 3122 2828 
Q 2878 2963 2633 3030 
Q 2388 3097 2138 3097 
Q 1578 3097 1268 2742 
Q 959 2388 959 1747 
Q 959 1106 1268 751 
Q 1578 397 2138 397 
Q 2388 397 2633 464 
Q 2878 531 3122 666 
L 3122 134 
Q 2881 22 2623 -34 
Q 2366 -91 2075 -91 
Q 1284 -91 818 406 
Q 353 903 353 1747 
Q 353 2603 823 3093 
Q 1294 3584 2113 3584 
Q 2378 3584 2631 3529 
Q 2884 3475 3122 3366 
z
" transform="scale(0.015625)"/>
      <path id="DejaVuSans-72" d="M 2631 2963 
Q 2534 3019 2420 3045 
Q 2306 3072 2169 3072 
Q 1681 3072 1420 2755 
Q 1159 2438 1159 1844 
L 1159 0 
L 581 0 
L 581 3500 
L 1159 3500 
L 1159 2956 
Q 1341 3275 1631 3429 
Q 1922 3584 2338 3584 
Q 2397 3584 2469 3576 
Q 2541 3569 2628 3553 
L 2631 2963 
z
" transform="scale(0.015625)"/>
      <path id="DejaVuSans-69" d="M 603 3500 
L 1178 3500 
L 1178 0 
L 603 0 
L 603 3500 
z
M 603 4863 
L 1178 4863 
L 1178 4134 
L 603 4134 
L 603 4863 
z
" transform="scale(0.015625)"/>
      <path id="DejaVuSans-20" transform="scale(0.015625)"/>
      <path id="DejaVuSans-68" d="M 3513 2113 
L 3513 0 
L 2938 0 
L 2938 2094 
Q 2938 2591 2744 2837 
Q 2550 3084 2163 3084 
Q 1697 3084 1428 2787 
Q 1159 2491 1159 1978 
L 1159 0 
L 581 0 
L 581 4863 
L 1159 4863 
L 1159 2956 
Q 1366 3272 1645 3428 
Q 1925 3584 2291 3584 
Q 2894 3584 3203 3211 
Q 3513 2838 3513 2113 
z
" transform="scale(0.015625)"/>
      <path id="DejaVuSans-6f" d="M 1959 3097 
Q 1497 3097 1228 2736 
Q 959 2375 959 1747 
Q 959 1119 1226 758 
Q 1494 397 1959 397 
Q 2419 397 2687 759 
Q 2956 1122 2956 1747 
Q 2956 2369 2687 2733 
Q 2419 3097 1959 3097 
z
M 1959 3584 
Q 2709 3584 3137 3096 
Q 3566 2609 3566 1747 
Q 3566 888 3137 398 
Q 2709 -91 1959 -91 
Q 1206 -91 779 398 
Q 353 888 353 1747 
Q 353 2609 779 3096 
Q 1206 3584 1959 3584 
z
" transform="scale(0.015625)"/>
      <path id="DejaVuSans-79" d="M 2059 -325 
Q 1816 -950 1584 -1140 
Q 1353 -1331 966 -1331 
L 506 -1331 
L 506 -850 
L 844 -850 
Q 1081 -850 1212 -737 
Q 1344 -625 1503 -206 
L 1606 56 
L 191 3500 
L 800 3500 
L 1894 763 
L 2988 3500 
L 3597 3500 
L 2059 -325 
z
" transform="scale(0.015625)"/>
     </defs>
     <use xlink:href="#DejaVuSans-67"/>
     <use xlink:href="#DejaVuSans-65" transform="translate(63.476562 0)"/>
     <use xlink:href="#DejaVuSans-74" transform="translate(125 0)"/>
     <use xlink:href="#DejaVuSans-5f" transform="translate(164.208984 0)"/>
     <use xlink:href="#DejaVuSans-73" transform="translate(214.208984 0)"/>
     <use xlink:href="#DejaVuSans-75" transform="translate(266.308594 0)"/>
     <use xlink:href="#DejaVuSans-62" transform="translate(329.6875 0)"/>
     <use xlink:href="#DejaVuSans-73" transform="translate(393.164062 0)"/>
     <use xlink:href="#DejaVuSans-63" transform="translate(445.263672 0)"/>
     <use xlink:href="#DejaVuSans-72" transform="translate(500.244141 0)"/>
     <use xlink:href="#DejaVuSans-69" transform="translate(541.357422 0)"/>
     <use xlink:href="#DejaVuSans-62" transform="translate(569.140625 0)"/>
     <use xlink:href="#DejaVuSans-65" transform="translate(632.617188 0)"/>
     <use xlink:href="#DejaVuSans-20" transform="translate(694.140625 0)"/>
     <use xlink:href="#DejaVuSans-68" transform="translate(725.927734 0)"/>
     <use xlink:href="#DejaVuSans-69" transform="translate(789.306641 0)"/>
     <use xlink:href="#DejaVuSans-73" transform="translate(817.089844 0)"/>
     <use xlink:href="#DejaVuSans-74" transform="translate(869.189453 0)"/>
     <use xlink:href="#DejaVuSans-6f" transform="translate(908.398438 0)"/>
     <use xlink:href="#DejaVuSans-72" transform="translate(969.580078 0)"/>
     <use xlink:href="#DejaVuSans-79" transform="translate(1010.693359 0)"/>
    </g>
   </g>
   <g id="legend_1">
    <g id="line2d_41">
     <path d="M 815.08 328.498438 
L 825.08 328.498438 
L 835.08 328.498438 
" style="fill: none; stroke: #1f77b4; stroke-width: 1.5; stroke-linecap: square"/>
    </g>
    <g id="text_21">
     <!-- star -->
     <g style="fill: #a9a9a9" transform="translate(843.08 331.998438) scale(0.1 -0.1)">
      <defs>
       <path id="DejaVuSans-61" d="M 2194 1759 
Q 1497 1759 1228 1600 
Q 959 1441 959 1056 
Q 959 750 1161 570 
Q 1363 391 1709 391 
Q 2188 391 2477 730 
Q 2766 1069 2766 1631 
L 2766 1759 
L 2194 1759 
z
M 3341 1997 
L 3341 0 
L 2766 0 
L 2766 531 
Q 2569 213 2275 61 
Q 1981 -91 1556 -91 
Q 1019 -91 701 211 
Q 384 513 384 1019 
Q 384 1609 779 1909 
Q 1175 2209 1959 2209 
L 2766 2209 
L 2766 2266 
Q 2766 2663 2505 2880 
Q 2244 3097 1772 3097 
Q 1472 3097 1187 3025 
Q 903 2953 641 2809 
L 641 3341 
Q 956 3463 1253 3523 
Q 1550 3584 1831 3584 
Q 2591 3584 2966 3190 
Q 3341 2797 3341 1997 
z
" transform="scale(0.015625)"/>
      </defs>
      <use xlink:href="#DejaVuSans-73"/>
      <use xlink:href="#DejaVuSans-74" transform="translate(52.099609 0)"/>
      <use xlink:href="#DejaVuSans-61" transform="translate(91.308594 0)"/>
      <use xlink:href="#DejaVuSans-72" transform="translate(152.587891 0)"/>
     </g>
    </g>
    <g id="line2d_42">
     <path d="M 815.08 343.176562 
L 825.08 343.176562 
L 835.08 343.176562 
" style="fill: none; stroke: #ff7f0e; stroke-width: 1.5; stroke-linecap: square"/>
    </g>
    <g id="text_22">
     <!-- fork -->
     <g style="fill: #a9a9a9" transform="translate(843.08 346.676562) scale(0.1 -0.1)">
      <defs>
       <path id="DejaVuSans-66" d="M 2375 4863 
L 2375 4384 
L 1825 4384 
Q 1516 4384 1395 4259 
Q 1275 4134 1275 3809 
L 1275 3500 
L 2222 3500 
L 2222 3053 
L 1275 3053 
L 1275 0 
L 697 0 
L 697 3053 
L 147 3053 
L 147 3500 
L 697 3500 
L 697 3744 
Q 697 4328 969 4595 
Q 1241 4863 1831 4863 
L 2375 4863 
z
" transform="scale(0.015625)"/>
       <path id="DejaVuSans-6b" d="M 581 4863 
L 1159 4863 
L 1159 1991 
L 2875 3500 
L 3609 3500 
L 1753 1863 
L 3688 0 
L 2938 0 
L 1159 1709 
L 1159 0 
L 581 0 
L 581 4863 
z
" transform="scale(0.015625)"/>
      </defs>
      <use xlink:href="#DejaVuSans-66"/>
      <use xlink:href="#DejaVuSans-6f" transform="translate(35.205078 0)"/>
      <use xlink:href="#DejaVuSans-72" transform="translate(96.386719 0)"/>
      <use xlink:href="#DejaVuSans-6b" transform="translate(137.5 0)"/>
     </g>
    </g>
   </g>
  </g>
 </g>
 <defs>
  <clipPath id="p1c2c436678">
   <rect x="108" y="43.2" width="669.6" height="277.2"/>
  </clipPath>
 </defs>
</svg>
