<?xml version="1.0" encoding="utf-8" standalone="no"?>
<!DOCTYPE svg PUBLIC "-//W3C//DTD SVG 1.1//EN"
  "http://www.w3.org/Graphics/SVG/1.1/DTD/svg11.dtd">
<svg xmlns:xlink="http://www.w3.org/1999/xlink" width="864pt" height="360pt" viewBox="0 0 864 360" xmlns="http://www.w3.org/2000/svg" version="1.1">
 <metadata>
  <rdf:RDF xmlns:dc="http://purl.org/dc/elements/1.1/" xmlns:cc="http://creativecommons.org/ns#" xmlns:rdf="http://www.w3.org/1999/02/22-rdf-syntax-ns#">
   <cc:Work>
    <dc:type rdf:resource="http://purl.org/dc/dcmitype/StillImage"/>
    <dc:date>2026-02-23T08:22:23.751924</dc:date>
    <dc:format>image/svg+xml</dc:format>
    <dc:creator>
     <cc:Agent>
      <dc:title>Matplotlib v3.10.8, https://matplotlib.org/</dc:title>
     </cc:Agent>
    </dc:creator>
   </cc:Work>
  </rdf:RDF>
 </metadata>
 <defs>
  <style type="text/css">*{stroke-linejoin: round; stroke-linecap: butt}</style>
 </defs>
 <g id="figure_1">
  <g id="patch_1">
   <path d="M 0 360 
L 864 360 
L 864 0 
L 0 0 
L 0 360 
z
" style="fill: none; opacity: 0"/>
  </g>
  <g id="axes_1">
   <g id="patch_2">
    <path d="M 108 320.4 
L 777.6 320.4 
L 777.6 43.2 
L 108 43.2 
L 108 320.4 
z
" style="fill: none; opacity: 0"/>
   </g>
   <g id="matplotlib.axis_1">
    <g id="xtick_1">
     <g id="line2d_1">
      <path d="M 196.946866 320.4 
L 196.946866 43.2 
" clip-path="url(#pa4807e0e41)" style="fill: none; stroke-dasharray: 5.12,1.28,0.8,1.28; stroke-dashoffset: 0; stroke: #b0b0b0; stroke-width: 0.8"/>
     </g>
     <g id="line2d_2">
      <defs>
       <path id="m26fcb47723" d="M 0 0 
L 0 3.5 
" style="stroke: #a9a9a9; stroke-width: 0.8"/>
      </defs>
      <g>
       <use xlink:href="#m26fcb47723" x="196.946866" y="320.4" style="fill: #a9a9a9; stroke: #a9a9a9; stroke-width: 0.8"/>
      </g>
     </g>
     <g id="text_1">
      <!-- 2022 -->
      <g style="fill: #a9a9a9" transform="translate(184.221866 334.998438) scale(0.1 -0.1)">
       <defs>
        <path id="DejaVuSans-32" d="M 1228 531 
L 3431 531 
L 3431 0 
L 469 0 
L 469 531 
Q 828 903 1448 1529 
Q 2069 2156 2228 2338 
Q 2531 2678 2651 2914 
Q 2772 3150 2772 3378 
Q 2772 3750 2511 3984 
Q 2250 4219 1831 4219 
Q 1534 4219 1204 4116 
Q 875 4013 500 3803 
L 500 4441 
Q 881 4594 1212 4672 
Q 1544 4750 1819 4750 
Q 2544 4750 2975 4387 
Q 3406 4025 3406 3419 
Q 3406 3131 3298 2873 
Q 3191 2616 2906 2266 
Q 2828 2175 2409 1742 
Q 1991 1309 1228 531 
z
" transform="scale(0.015625)"/>
        <path id="DejaVuSans-30" d="M 2034 4250 
Q 1547 4250 1301 3770 
Q 1056 3291 1056 2328 
Q 1056 1369 1301 889 
Q 1547 409 2034 409 
Q 2525 409 2770 889 
Q 3016 1369 3016 2328 
Q 3016 3291 2770 3770 
Q 2525 4250 2034 4250 
z
M 2034 4750 
Q 2819 4750 3233 4129 
Q 3647 3509 3647 2328 
Q 3647 1150 3233 529 
Q 2819 -91 2034 -91 
Q 1250 -91 836 529 
Q 422 1150 422 2328 
Q 422 3509 836 4129 
Q 1250 4750 2034 4750 
z
" transform="scale(0.015625)"/>
       </defs>
       <use xlink:href="#DejaVuSans-32"/>
       <use xlink:href="#DejaVuSans-30" transform="translate(63.623047 0)"/>
       <use xlink:href="#DejaVuSans-32" transform="translate(127.246094 0)"/>
       <use xlink:href="#DejaVuSans-32" transform="translate(190.869141 0)"/>
      </g>
     </g>
    </g>
    <g id="xtick_2">
     <g id="line2d_3">
      <path d="M 329.594898 320.4 
L 329.594898 43.2 
" clip-path="url(#pa4807e0e41)" style="fill: none; stroke-dasharray: 5.12,1.28,0.8,1.28; stroke-dashoffset: 0; stroke: #b0b0b0; stroke-width: 0.8"/>
     </g>
     <g id="line2d_4">
      <g>
       <use xlink:href="#m26fcb47723" x="329.594898" y="320.4" style="fill: #a9a9a9; stroke: #a9a9a9; stroke-width: 0.8"/>
      </g>
     </g>
     <g id="text_2">
      <!-- 2023 -->
      <g style="fill: #a9a9a9" transform="translate(316.869898 334.998438) scale(0.1 -0.1)">
       <defs>
        <path id="DejaVuSans-33" d="M 2597 2516 
Q 3050 2419 3304 2112 
Q 3559 1806 3559 1356 
Q 3559 666 3084 287 
Q 2609 -91 1734 -91 
Q 1441 -91 1130 -33 
Q 819 25 488 141 
L 488 750 
Q 750 597 1062 519 
Q 1375 441 1716 441 
Q 2309 441 2620 675 
Q 2931 909 2931 1356 
Q 2931 1769 2642 2001 
Q 2353 2234 1838 2234 
L 1294 2234 
L 1294 2753 
L 1863 2753 
Q 2328 2753 2575 2939 
Q 2822 3125 2822 3475 
Q 2822 3834 2567 4026 
Q 2313 4219 1838 4219 
Q 1578 4219 1281 4162 
Q 984 4106 628 3988 
L 628 4550 
Q 988 4650 1302 4700 
Q 1616 4750 1894 4750 
Q 2613 4750 3031 4423 
Q 3450 4097 3450 3541 
Q 3450 3153 3228 2886 
Q 3006 2619 2597 2516 
z
" transform="scale(0.015625)"/>
       </defs>
       <use xlink:href="#DejaVuSans-32"/>
       <use xlink:href="#DejaVuSans-30" transform="translate(63.623047 0)"/>
       <use xlink:href="#DejaVuSans-32" transform="translate(127.246094 0)"/>
       <use xlink:href="#DejaVuSans-33" transform="translate(190.869141 0)"/>
      </g>
     </g>
    </g>
    <g id="xtick_3">
     <g id="line2d_5">
      <path d="M 462.242931 320.4 
L 462.242931 43.2 
" clip-path="url(#pa4807e0e41)" style="fill: none; stroke-dasharray: 5.12,1.28,0.8,1.28; stroke-dashoffset: 0; stroke: #b0b0b0; stroke-width: 0.8"/>
     </g>
     <g id="line2d_6">
      <g>
       <use xlink:href="#m26fcb47723" x="462.242931" y="320.4" style="fill: #a9a9a9; stroke: #a9a9a9; stroke-width: 0.8"/>
      </g>
     </g>
     <g id="text_3">
      <!-- 2024 -->
      <g style="fill: #a9a9a9" transform="translate(449.517931 334.998438) scale(0.1 -0.1)">
       <defs>
        <path id="DejaVuSans-34" d="M 2419 4116 
L 825 1625 
L 2419 1625 
L 2419 4116 
z
M 2253 4666 
L 3047 4666 
L 3047 1625 
L 3713 1625 
L 3713 1100 
L 3047 1100 
L 3047 0 
L 2419 0 
L 2419 1100 
L 313 1100 
L 313 1709 
L 2253 4666 
z
" transform="scale(0.015625)"/>
       </defs>
       <use xlink:href="#DejaVuSans-32"/>
       <use xlink:href="#DejaVuSans-30" transform="translate(63.623047 0)"/>
       <use xlink:href="#DejaVuSans-32" transform="translate(127.246094 0)"/>
       <use xlink:href="#DejaVuSans-34" transform="translate(190.869141 0)"/>
      </g>
     </g>
    </g>
    <g id="xtick_4">
     <g id="line2d_7">
      <path d="M 595.254383 320.4 
L 595.254383 43.2 
" clip-path="url(#pa4807e0e41)" style="fill: none; stroke-dasharray: 5.12,1.28,0.8,1.28; stroke-dashoffset: 0; stroke: #b0b0b0; stroke-width: 0.8"/>
     </g>
     <g id="line2d_8">
      <g>
       <use xlink:href="#m26fcb47723" x="595.254383" y="320.4" style="fill: #a9a9a9; stroke: #a9a9a9; stroke-width: 0.8"/>
      </g>
     </g>
     <g id="text_4">
      <!-- 2025 -->
      <g style="fill: #a9a9a9" transform="translate(582.529383 334.998438) scale(0.1 -0.1)">
       <defs>
        <path id="DejaVuSans-35" d="M 691 4666 
L 3169 4666 
L 3169 4134 
L 1269 4134 
L 1269 2991 
Q 1406 3038 1543 3061 
Q 1681 3084 1819 3084 
Q 2600 3084 3056 2656 
Q 3513 2228 3513 1497 
Q 3513 744 3044 326 
Q 2575 -91 1722 -91 
Q 1428 -91 1123 -41 
Q 819 9 494 109 
L 494 744 
Q 775 591 1075 516 
Q 1375 441 1709 441 
Q 2250 441 2565 725 
Q 2881 1009 2881 1497 
Q 2881 1984 2565 2268 
Q 2250 2553 1709 2553 
Q 1456 2553 1204 2497 
Q 953 2441 691 2322 
L 691 4666 
z
" transform="scale(0.015625)"/>
       </defs>
       <use xlink:href="#DejaVuSans-32"/>
       <use xlink:href="#DejaVuSans-30" transform="translate(63.623047 0)"/>
       <use xlink:href="#DejaVuSans-32" transform="translate(127.246094 0)"/>
       <use xlink:href="#DejaVuSans-35" transform="translate(190.869141 0)"/>
      </g>
     </g>
    </g>
    <g id="xtick_5">
     <g id="line2d_9">
      <path d="M 727.902415 320.4 
L 727.902415 43.2 
" clip-path="url(#pa4807e0e41)" style="fill: none; stroke-dasharray: 5.12,1.28,0.8,1.28; stroke-dashoffset: 0; stroke: #b0b0b0; stroke-width: 0.8"/>
     </g>
     <g id="line2d_10">
      <g>
       <use xlink:href="#m26fcb47723" x="727.902415" y="320.4" style="fill: #a9a9a9; stroke: #a9a9a9; stroke-width: 0.8"/>
      </g>
     </g>
     <g id="text_5">
      <!-- 2026 -->
      <g style="fill: #a9a9a9" transform="translate(715.177415 334.998438) scale(0.1 -0.1)">
       <defs>
        <path id="DejaVuSans-36" d="M 2113 2584 
Q 1688 2584 1439 2293 
Q 1191 2003 1191 1497 
Q 1191 994 1439 701 
Q 1688 409 2113 409 
Q 2538 409 2786 701 
Q 3034 994 3034 1497 
Q 3034 2003 2786 2293 
Q 2538 2584 2113 2584 
z
M 3366 4563 
L 3366 3988 
Q 3128 4100 2886 4159 
Q 2644 4219 2406 4219 
Q 1781 4219 1451 3797 
Q 1122 3375 1075 2522 
Q 1259 2794 1537 2939 
Q 1816 3084 2150 3084 
Q 2853 3084 3261 2657 
Q 3669 2231 3669 1497 
Q 3669 778 3244 343 
Q 2819 -91 2113 -91 
Q 1303 -91 875 529 
Q 447 1150 447 2328 
Q 447 3434 972 4092 
Q 1497 4750 2381 4750 
Q 2619 4750 2861 4703 
Q 3103 4656 3366 4563 
z
" transform="scale(0.015625)"/>
       </defs>
       <use xlink:href="#DejaVuSans-32"/>
       <use xlink:href="#DejaVuSans-30" transform="translate(63.623047 0)"/>
       <use xlink:href="#DejaVuSans-32" transform="translate(127.246094 0)"/>
       <use xlink:href="#DejaVuSans-36" transform="translate(190.869141 0)"/>
      </g>
     </g>
    </g>
   </g>
   <g id="matplotlib.axis_2">
    <g id="ytick_1">
     <g id="line2d_11">
      <path d="M 108 307.829036 
L 777.6 307.829036 
" clip-path="url(#pa4807e0e41)" style="fill: none; stroke-dasharray: 5.12,1.28,0.8,1.28; stroke-dashoffset: 0; stroke: #b0b0b0; stroke-width: 0.8"/>
     </g>
     <g id="line2d_12">
      <defs>
       <path id="mc517fa1d1d" d="M 0 0 
L -3.5 0 
" style="stroke: #a9a9a9; stroke-width: 0.8"/>
      </defs>
      <g>
       <use xlink:href="#mc517fa1d1d" x="108" y="307.829036" style="fill: #a9a9a9; stroke: #a9a9a9; stroke-width: 0.8"/>
      </g>
     </g>
     <g id="text_6">
      <!-- 0 -->
      <g style="fill: #a9a9a9" transform="translate(94.6375 311.628254) scale(0.1 -0.1)">
       <use xlink:href="#DejaVuSans-30"/>
      </g>
     </g>
    </g>
    <g id="ytick_2">
     <g id="line2d_13">
      <path d="M 108 278.793432 
L 777.6 278.793432 
" clip-path="url(#pa4807e0e41)" style="fill: none; stroke-dasharray: 5.12,1.28,0.8,1.28; stroke-dashoffset: 0; stroke: #b0b0b0; stroke-width: 0.8"/>
     </g>
     <g id="line2d_14">
      <g>
       <use xlink:href="#mc517fa1d1d" x="108" y="278.793432" style="fill: #a9a9a9; stroke: #a9a9a9; stroke-width: 0.8"/>
      </g>
     </g>
     <g id="text_7">
      <!-- 1000 -->
      <g style="fill: #a9a9a9" transform="translate(75.55 282.592651) scale(0.1 -0.1)">
       <defs>
        <path id="DejaVuSans-31" d="M 794 531 
L 1825 531 
L 1825 4091 
L 703 3866 
L 703 4441 
L 1819 4666 
L 2450 4666 
L 2450 531 
L 3481 531 
L 3481 0 
L 794 0 
L 794 531 
z
" transform="scale(0.015625)"/>
       </defs>
       <use xlink:href="#DejaVuSans-31"/>
       <use xlink:href="#DejaVuSans-30" transform="translate(63.623047 0)"/>
       <use xlink:href="#DejaVuSans-30" transform="translate(127.246094 0)"/>
       <use xlink:href="#DejaVuSans-30" transform="translate(190.869141 0)"/>
      </g>
     </g>
    </g>
    <g id="ytick_3">
     <g id="line2d_15">
      <path d="M 108 249.757829 
L 777.6 249.757829 
" clip-path="url(#pa4807e0e41)" style="fill: none; stroke-dasharray: 5.12,1.28,0.8,1.28; stroke-dashoffset: 0; stroke: #b0b0b0; stroke-width: 0.8"/>
     </g>
     <g id="line2d_16">
      <g>
       <use xlink:href="#mc517fa1d1d" x="108" y="249.757829" style="fill: #a9a9a9; stroke: #a9a9a9; stroke-width: 0.8"/>
      </g>
     </g>
     <g id="text_8">
      <!-- 2000 -->
      <g style="fill: #a9a9a9" transform="translate(75.55 253.557048) scale(0.1 -0.1)">
       <use xlink:href="#DejaVuSans-32"/>
       <use xlink:href="#DejaVuSans-30" transform="translate(63.623047 0)"/>
       <use xlink:href="#DejaVuSans-30" transform="translate(127.246094 0)"/>
       <use xlink:href="#DejaVuSans-30" transform="translate(190.869141 0)"/>
      </g>
     </g>
    </g>
    <g id="ytick_4">
     <g id="line2d_17">
      <path d="M 108 220.722226 
L 777.6 220.722226 
" clip-path="url(#pa4807e0e41)" style="fill: none; stroke-dasharray: 5.12,1.28,0.8,1.28; stroke-dashoffset: 0; stroke: #b0b0b0; stroke-width: 0.8"/>
     </g>
     <g id="line2d_18">
      <g>
       <use xlink:href="#mc517fa1d1d" x="108" y="220.722226" style="fill: #a9a9a9; stroke: #a9a9a9; stroke-width: 0.8"/>
      </g>
     </g>
     <g id="text_9">
      <!-- 3000 -->
      <g style="fill: #a9a9a9" transform="translate(75.55 224.521445) scale(0.1 -0.1)">
       <use xlink:href="#DejaVuSans-33"/>
       <use xlink:href="#DejaVuSans-30" transform="translate(63.623047 0)"/>
       <use xlink:href="#DejaVuSans-30" transform="translate(127.246094 0)"/>
       <use xlink:href="#DejaVuSans-30" transform="translate(190.869141 0)"/>
      </g>
     </g>
    </g>
    <g id="ytick_5">
     <g id="line2d_19">
      <path d="M 108 191.686623 
L 777.6 191.686623 
" clip-path="url(#pa4807e0e41)" style="fill: none; stroke-dasharray: 5.12,1.28,0.8,1.28; stroke-dashoffset: 0; stroke: #b0b0b0; stroke-width: 0.8"/>
     </g>
     <g id="line2d_20">
      <g>
       <use xlink:href="#mc517fa1d1d" x="108" y="191.686623" style="fill: #a9a9a9; stroke: #a9a9a9; stroke-width: 0.8"/>
      </g>
     </g>
     <g id="text_10">
      <!-- 4000 -->
      <g style="fill: #a9a9a9" transform="translate(75.55 195.485842) scale(0.1 -0.1)">
       <use xlink:href="#DejaVuSans-34"/>
       <use xlink:href="#DejaVuSans-30" transform="translate(63.623047 0)"/>
       <use xlink:href="#DejaVuSans-30" transform="translate(127.246094 0)"/>
       <use xlink:href="#DejaVuSans-30" transform="translate(190.869141 0)"/>
      </g>
     </g>
    </g>
    <g id="ytick_6">
     <g id="line2d_21">
      <path d="M 108 162.65102 
L 777.6 162.65102 
" clip-path="url(#pa4807e0e41)" style="fill: none; stroke-dasharray: 5.12,1.28,0.8,1.28; stroke-dashoffset: 0; stroke: #b0b0b0; stroke-width: 0.8"/>
     </g>
     <g id="line2d_22">
      <g>
       <use xlink:href="#mc517fa1d1d" x="108" y="162.65102" style="fill: #a9a9a9; stroke: #a9a9a9; stroke-width: 0.8"/>
      </g>
     </g>
     <g id="text_11">
      <!-- 5000 -->
      <g style="fill: #a9a9a9" transform="translate(75.55 166.450238) scale(0.1 -0.1)">
       <use xlink:href="#DejaVuSans-35"/>
       <use xlink:href="#DejaVuSans-30" transform="translate(63.623047 0)"/>
       <use xlink:href="#DejaVuSans-30" transform="translate(127.246094 0)"/>
       <use xlink:href="#DejaVuSans-30" transform="translate(190.869141 0)"/>
      </g>
     </g>
    </g>
    <g id="ytick_7">
     <g id="line2d_23">
      <path d="M 108 133.615417 
L 777.6 133.615417 
" clip-path="url(#pa4807e0e41)" style="fill: none; stroke-dasharray: 5.12,1.28,0.8,1.28; stroke-dashoffset: 0; stroke: #b0b0b0; stroke-width: 0.8"/>
     </g>
     <g id="line2d_24">
      <g>
       <use xlink:href="#mc517fa1d1d" x="108" y="133.615417" style="fill: #a9a9a9; stroke: #a9a9a9; stroke-width: 0.8"/>
      </g>
     </g>
     <g id="text_12">
      <!-- 6000 -->
      <g style="fill: #a9a9a9" transform="translate(75.55 137.414635) scale(0.1 -0.1)">
       <use xlink:href="#DejaVuSans-36"/>
       <use xlink:href="#DejaVuSans-30" transform="translate(63.623047 0)"/>
       <use xlink:href="#DejaVuSans-30" transform="translate(127.246094 0)"/>
       <use xlink:href="#DejaVuSans-30" transform="translate(190.869141 0)"/>
      </g>
     </g>
    </g>
    <g id="ytick_8">
     <g id="line2d_25">
      <path d="M 108 104.579813 
L 777.6 104.579813 
" clip-path="url(#pa4807e0e41)" style="fill: none; stroke-dasharray: 5.12,1.28,0.8,1.28; stroke-dashoffset: 0; stroke: #b0b0b0; stroke-width: 0.8"/>
     </g>
     <g id="line2d_26">
      <g>
       <use xlink:href="#mc517fa1d1d" x="108" y="104.579813" style="fill: #a9a9a9; stroke: #a9a9a9; stroke-width: 0.8"/>
      </g>
     </g>
     <g id="text_13">
      <!-- 7000 -->
      <g style="fill: #a9a9a9" transform="translate(75.55 108.379032) scale(0.1 -0.1)">
       <defs>
        <path id="DejaVuSans-37" d="M 525 4666 
L 3525 4666 
L 3525 4397 
L 1831 0 
L 1172 0 
L 2766 4134 
L 525 4134 
L 525 4666 
z
" transform="scale(0.015625)"/>
       </defs>
       <use xlink:href="#DejaVuSans-37"/>
       <use xlink:href="#DejaVuSans-30" transform="translate(63.623047 0)"/>
       <use xlink:href="#DejaVuSans-30" transform="translate(127.246094 0)"/>
       <use xlink:href="#DejaVuSans-30" transform="translate(190.869141 0)"/>
      </g>
     </g>
    </g>
    <g id="ytick_9">
     <g id="line2d_27">
      <path d="M 108 75.54421 
L 777.6 75.54421 
" clip-path="url(#pa4807e0e41)" style="fill: none; stroke-dasharray: 5.12,1.28,0.8,1.28; stroke-dashoffset: 0; stroke: #b0b0b0; stroke-width: 0.8"/>
     </g>
     <g id="line2d_28">
      <g>
       <use xlink:href="#mc517fa1d1d" x="108" y="75.54421" style="fill: #a9a9a9; stroke: #a9a9a9; stroke-width: 0.8"/>
      </g>
     </g>
     <g id="text_14">
      <!-- 8000 -->
      <g style="fill: #a9a9a9" transform="translate(75.55 79.343429) scale(0.1 -0.1)">
       <defs>
        <path id="DejaVuSans-38" d="M 2034 2216 
Q 1584 2216 1326 1975 
Q 1069 1734 1069 1313 
Q 1069 891 1326 650 
Q 1584 409 2034 409 
Q 2484 409 2743 651 
Q 3003 894 3003 1313 
Q 3003 1734 2745 1975 
Q 2488 2216 2034 2216 
z
M 1403 2484 
Q 997 2584 770 2862 
Q 544 3141 544 3541 
Q 544 4100 942 4425 
Q 1341 4750 2034 4750 
Q 2731 4750 3128 4425 
Q 3525 4100 3525 3541 
Q 3525 3141 3298 2862 
Q 3072 2584 2669 2484 
Q 3125 2378 3379 2068 
Q 3634 1759 3634 1313 
Q 3634 634 3220 271 
Q 2806 -91 2034 -91 
Q 1263 -91 848 271 
Q 434 634 434 1313 
Q 434 1759 690 2068 
Q 947 2378 1403 2484 
z
M 1172 3481 
Q 1172 3119 1398 2916 
Q 1625 2713 2034 2713 
Q 2441 2713 2670 2916 
Q 2900 3119 2900 3481 
Q 2900 3844 2670 4047 
Q 2441 4250 2034 4250 
Q 1625 4250 1398 4047 
Q 1172 3844 1172 3481 
z
" transform="scale(0.015625)"/>
       </defs>
       <use xlink:href="#DejaVuSans-38"/>
       <use xlink:href="#DejaVuSans-30" transform="translate(63.623047 0)"/>
       <use xlink:href="#DejaVuSans-30" transform="translate(127.246094 0)"/>
       <use xlink:href="#DejaVuSans-30" transform="translate(190.869141 0)"/>
      </g>
     </g>
    </g>
    <g id="ytick_10">
     <g id="line2d_29">
      <path d="M 108 46.508607 
L 777.6 46.508607 
" clip-path="url(#pa4807e0e41)" style="fill: none; stroke-dasharray: 5.12,1.28,0.8,1.28; stroke-dashoffset: 0; stroke: #b0b0b0; stroke-width: 0.8"/>
     </g>
     <g id="line2d_30">
      <g>
       <use xlink:href="#mc517fa1d1d" x="108" y="46.508607" style="fill: #a9a9a9; stroke: #a9a9a9; stroke-width: 0.8"/>
      </g>
     </g>
     <g id="text_15">
      <!-- 9000 -->
      <g style="fill: #a9a9a9" transform="translate(75.55 50.307826) scale(0.1 -0.1)">
       <defs>
        <path id="DejaVuSans-39" d="M 703 97 
L 703 672 
Q 941 559 1184 500 
Q 1428 441 1663 441 
Q 2288 441 2617 861 
Q 2947 1281 2994 2138 
Q 2813 1869 2534 1725 
Q 2256 1581 1919 1581 
Q 1219 1581 811 2004 
Q 403 2428 403 3163 
Q 403 3881 828 4315 
Q 1253 4750 1959 4750 
Q 2769 4750 3195 4129 
Q 3622 3509 3622 2328 
Q 3622 1225 3098 567 
Q 2575 -91 1691 -91 
Q 1453 -91 1209 -44 
Q 966 3 703 97 
z
M 1959 2075 
Q 2384 2075 2632 2365 
Q 2881 2656 2881 3163 
Q 2881 3666 2632 3958 
Q 2384 4250 1959 4250 
Q 1534 4250 1286 3958 
Q 1038 3666 1038 3163 
Q 1038 2656 1286 2365 
Q 1534 2075 1959 2075 
z
" transform="scale(0.015625)"/>
       </defs>
       <use xlink:href="#DejaVuSans-39"/>
       <use xlink:href="#DejaVuSans-30" transform="translate(63.623047 0)"/>
       <use xlink:href="#DejaVuSans-30" transform="translate(127.246094 0)"/>
       <use xlink:href="#DejaVuSans-30" transform="translate(190.869141 0)"/>
      </g>
     </g>
    </g>
   </g>
   <g id="line2d_31">
    <path d="M 138.436364 307.741929 
L 140.616879 307.53868 
L 140.980299 307.364466 
L 142.433976 307.161217 
L 143.887653 306.841825 
L 144.614491 306.725683 
L 146.431588 306.551469 
L 147.158426 306.261113 
L 147.521845 305.738472 
L 147.885265 305.477152 
L 148.248684 304.606084 
L 148.612103 304.548012 
L 149.338942 304.083443 
L 150.06578 303.531766 
L 151.519457 302.428413 
L 151.882877 302.283235 
L 152.609715 301.818666 
L 153.699973 301.266989 
L 154.063392 300.628206 
L 154.790231 300.047494 
L 155.517069 299.815209 
L 156.607327 299.640996 
L 158.787843 299.292568 
L 159.151262 299.118355 
L 161.695197 298.88607 
L 163.148874 298.508607 
L 166.056228 298.073073 
L 166.419647 297.869824 
L 166.783066 297.811753 
L 167.509905 297.550432 
L 170.05384 297.085862 
L 170.780678 296.853578 
L 174.051452 296.272866 
L 174.77829 296.098652 
L 176.231967 295.895403 
L 176.958806 295.663118 
L 177.322225 295.111441 
L 178.412483 294.646872 
L 179.502741 294.32748 
L 179.86616 294.124231 
L 180.592999 293.979053 
L 182.410095 293.514483 
L 183.500353 293.253163 
L 184.95403 292.8757 
L 185.317449 292.846664 
L 186.044288 292.469202 
L 186.407707 292.41113 
L 186.771126 292.207881 
L 190.768738 291.511027 
L 192.222415 291.046457 
L 192.585834 290.785137 
L 194.402931 290.146353 
L 195.129769 289.594677 
L 196.220027 289.362392 
L 204.215251 286.86533 
L 204.57867 286.836295 
L 205.668928 286.487867 
L 206.032347 286.487867 
L 206.395767 286.313654 
L 207.122605 286.226547 
L 207.486024 286.081369 
L 209.303121 285.994262 
L 209.66654 285.907155 
L 210.393379 285.500657 
L 211.483636 285.094158 
L 212.210475 284.68766 
L 213.300733 284.194055 
L 214.75441 283.439129 
L 215.117829 283.03263 
L 215.844668 281.813135 
L 216.934925 281.464708 
L 217.298345 281.174352 
L 218.388602 280.767853 
L 218.752022 280.390391 
L 219.84228 279.925821 
L 220.205699 279.722572 
L 222.386214 277.080332 
L 223.113053 276.731905 
L 224.56673 275.686623 
L 225.293569 275.163982 
L 225.656988 274.612306 
L 226.020407 273.712202 
L 226.383826 273.13149 
L 230.018019 269.792395 
L 230.744858 269.066505 
L 232.198535 268.079295 
L 232.561954 267.730868 
L 233.288792 267.498583 
L 234.37905 266.830764 
L 235.469308 266.046803 
L 236.922985 264.624058 
L 237.649824 264.304666 
L 238.376662 263.782026 
L 238.740081 263.549741 
L 239.103501 263.49167 
L 240.193758 262.823851 
L 240.557178 262.388317 
L 242.374274 261.313999 
L 242.737693 261.168821 
L 243.827951 260.355824 
L 249.27924 258.265261 
L 250.006079 257.539371 
L 251.096336 256.958659 
L 251.823175 256.465054 
L 252.550014 256.232769 
L 252.913433 255.971448 
L 253.276852 255.855306 
L 254.36711 255.071345 
L 256.184206 254.635811 
L 257.274464 253.938956 
L 258.364722 253.677636 
L 258.728141 253.590529 
L 259.818399 252.777532 
L 261.272076 252.341998 
L 261.635495 252.051642 
L 263.816011 251.238645 
L 264.542849 251.093467 
L 265.269688 250.774075 
L 267.813623 249.786865 
L 268.540461 249.699758 
L 269.994138 249.119046 
L 273.99175 246.999447 
L 274.718589 246.65102 
L 275.445427 246.302592 
L 276.172266 246.157414 
L 276.899104 245.692845 
L 277.625943 245.489596 
L 278.716201 245.025026 
L 280.169878 244.821777 
L 280.896716 244.415278 
L 281.260136 244.066851 
L 281.623555 243.369997 
L 283.077232 242.934462 
L 284.530909 242.237608 
L 287.801682 240.698721 
L 288.528521 240.524507 
L 289.618779 239.943795 
L 289.982198 239.885724 
L 291.799294 238.927549 
L 292.526133 238.433944 
L 293.616391 238.201659 
L 296.887164 237.040235 
L 298.340841 236.401452 
L 298.704261 236.111096 
L 299.431099 235.704597 
L 300.157938 235.414241 
L 300.521357 235.327134 
L 301.975034 234.543173 
L 302.338453 234.136675 
L 302.701872 233.90439 
L 303.065292 233.817283 
L 303.79213 233.1785 
L 304.15555 233.120429 
L 304.518969 232.481645 
L 304.882388 232.336467 
L 305.245807 232.017076 
L 305.609227 231.959004 
L 306.336065 231.465399 
L 307.062904 231.204079 
L 307.426323 230.913723 
L 308.153161 230.507224 
L 309.606839 229.578085 
L 311.787354 228.561839 
L 312.150773 227.89402 
L 312.877612 227.313308 
L 313.241031 227.226201 
L 315.421547 226.122848 
L 316.148385 225.803457 
L 316.875224 225.25178 
L 317.602062 224.467819 
L 319.419159 223.045074 
L 320.145997 222.435327 
L 320.509417 222.261113 
L 321.236255 221.477152 
L 322.326513 220.954511 
L 323.053351 220.518977 
L 323.416771 220.402834 
L 323.78019 220.112478 
L 324.143609 220.054407 
L 327.414383 218.312271 
L 328.141221 218.109022 
L 329.594898 217.586381 
L 330.321737 217.092776 
L 331.775414 216.541099 
L 332.502252 216.07653 
L 333.229091 215.786174 
L 333.955929 215.234497 
L 334.682768 213.69561 
L 335.409607 212.824542 
L 336.499864 212.214794 
L 337.226703 211.895403 
L 337.590122 211.837331 
L 338.316961 211.488904 
L 340.134057 210.821085 
L 340.860896 210.32748 
L 341.951153 209.86291 
L 343.40483 208.962807 
L 343.76825 208.701486 
L 344.131669 208.265952 
L 345.221927 207.598133 
L 345.585346 207.452955 
L 346.312185 206.988386 
L 347.765862 206.146353 
L 348.129281 206.059246 
L 348.4927 205.76889 
L 351.036635 204.897822 
L 351.400054 204.636502 
L 352.126893 204.404217 
L 355.034247 202.952437 
L 355.761085 202.545938 
L 356.124505 202.371725 
L 356.851343 201.761977 
L 357.578182 201.558728 
L 357.941601 201.210301 
L 358.30502 201.15223 
L 359.031859 200.571517 
L 360.848955 199.439129 
L 361.575794 199.206844 
L 361.939213 198.974559 
L 362.302632 198.916488 
L 364.483148 197.958313 
L 368.844179 196.564604 
L 369.934437 195.780643 
L 370.661275 195.374144 
L 372.114953 194.648254 
L 373.20521 193.893329 
L 373.932049 193.719115 
L 375.022307 193.022261 
L 378.29308 191.860837 
L 379.019919 191.599516 
L 380.473596 191.280124 
L 381.200434 191.04784 
L 383.017531 190.409056 
L 384.107788 190.060629 
L 384.834627 189.886415 
L 387.015142 189.479917 
L 387.741981 189.334739 
L 388.832239 189.073419 
L 389.195658 188.899205 
L 389.922497 188.754027 
L 390.649335 188.550778 
L 391.376174 188.202351 
L 391.739593 188.057172 
L 392.103012 188.057172 
L 397.554301 186.256965 
L 397.91772 185.850467 
L 400.098236 184.892292 
L 401.551913 184.369651 
L 401.915332 184.137366 
L 403.00559 183.788939 
L 404.459267 183.237262 
L 404.822687 182.917871 
L 405.912944 182.685586 
L 406.639783 182.337159 
L 407.003202 181.872589 
L 411.000814 180.94345 
L 411.364233 180.94345 
L 412.091072 180.711165 
L 415.361845 179.869132 
L 416.088684 179.694919 
L 422.630231 177.517249 
L 422.99365 177.255928 
L 423.720488 177.023643 
L 426.627843 175.978362 
L 427.354681 175.92029 
L 428.808358 175.484756 
L 429.171777 175.252471 
L 429.898616 175.020187 
L 432.079132 174.091047 
L 436.440163 172.465054 
L 439.710936 171.390736 
L 441.164613 170.142205 
L 443.708548 169.009817 
L 446.252483 167.877428 
L 446.979322 167.674179 
L 450.250095 166.01915 
L 450.976934 165.583616 
L 454.247707 163.957622 
L 454.611126 163.667266 
L 456.428223 162.970411 
L 458.972157 162.012236 
L 459.698996 161.92513 
L 460.062415 161.663809 
L 461.516092 161.373453 
L 462.242931 161.054062 
L 464.060027 160.153958 
L 468.784478 157.976288 
L 469.874735 157.598825 
L 470.238155 157.337504 
L 470.964993 157.250398 
L 471.328412 156.989077 
L 472.055251 156.872935 
L 476.779701 155.101763 
L 477.869959 154.840442 
L 479.323636 154.201659 
L 480.050475 153.795161 
L 481.504152 153.011199 
L 482.230991 152.836986 
L 482.59441 152.604701 
L 482.957829 152.517594 
L 484.774925 151.588455 
L 489.499376 149.759212 
L 489.862795 149.701141 
L 491.316472 148.975251 
L 492.043311 148.830073 
L 492.770149 148.394539 
L 494.223826 147.668648 
L 500.765373 145.08448 
L 502.21905 143.806913 
L 503.309308 143.371379 
L 505.853243 142.093813 
L 506.216662 141.832492 
L 506.943501 141.629243 
L 507.670339 141.222745 
L 508.760597 140.961424 
L 514.575305 138.522433 
L 516.392402 137.767508 
L 518.209498 137.186796 
L 519.299756 136.460906 
L 519.663175 136.373799 
L 520.390014 135.996336 
L 521.116852 135.764051 
L 521.480271 135.415624 
L 522.570529 134.98009 
L 522.933948 134.922019 
L 524.387626 134.225164 
L 525.477883 133.876737 
L 526.568141 133.470239 
L 527.658399 133.150847 
L 528.021818 133.092776 
L 528.748657 132.686277 
L 529.112076 132.541099 
L 529.475495 132.250743 
L 530.565753 131.960387 
L 531.292592 131.670031 
L 532.01943 131.350639 
L 533.473107 130.740892 
L 536.017042 130.102109 
L 536.743881 129.811753 
L 538.197558 129.521396 
L 538.924396 129.376218 
L 540.014654 128.940684 
L 541.104912 128.7084 
L 543.285427 127.372762 
L 544.375685 126.733979 
L 546.556201 126.037124 
L 546.91962 125.746768 
L 549.826974 124.701486 
L 550.917232 124.353059 
L 551.644071 123.946561 
L 552.370909 123.743311 
L 552.734328 123.540062 
L 553.461167 123.394884 
L 555.278263 122.552852 
L 556.005102 122.262496 
L 557.458779 121.681784 
L 557.822198 121.333356 
L 558.185617 121.275285 
L 559.639294 120.665538 
L 561.092972 120.288075 
L 561.456391 120.259039 
L 561.81981 120.084825 
L 562.546649 119.939647 
L 565.817422 118.923401 
L 566.544261 118.342689 
L 567.997938 117.500657 
L 568.361357 117.41355 
L 568.724776 117.210301 
L 569.088195 117.15223 
L 572.358969 115.526236 
L 572.722388 115.206844 
L 574.539484 114.77131 
L 575.629742 114.277705 
L 576.356581 114.074456 
L 576.72 113.900242 
L 577.083419 113.58085 
L 579.627354 112.651711 
L 580.717612 112.158106 
L 581.081031 112.12907 
L 581.80787 111.838714 
L 583.261547 111.199931 
L 585.442062 110.648254 
L 586.53232 110.154649 
L 589.803094 109.080332 
L 590.529932 108.673833 
L 602.886187 104.841134 
L 603.613026 104.637885 
L 604.703284 104.231386 
L 605.066703 104.231386 
L 606.156961 103.970066 
L 606.883799 103.824888 
L 607.610638 103.621638 
L 608.700896 103.040926 
L 609.791153 102.692499 
L 612.335088 101.821431 
L 613.788765 101.066505 
L 616.3327 100.195437 
L 616.696119 99.876046 
L 617.422958 99.643761 
L 617.786377 99.411476 
L 618.513216 99.324369 
L 621.057151 98.598479 
L 622.147408 98.366194 
L 625.054763 97.320913 
L 629.779213 95.49167 
L 630.506052 95.375527 
L 631.23289 95.230349 
L 631.596309 95.230349 
L 632.686567 94.881922 
L 633.776825 94.533495 
L 637.047598 93.604355 
L 637.411018 93.57532 
L 639.228114 92.965572 
L 640.681791 92.675216 
L 641.772049 92.152575 
L 642.862307 91.891255 
L 643.589145 91.571863 
L 645.769661 90.787902 
L 646.13308 90.729831 
L 646.859919 90.46851 
L 651.22095 89.336122 
L 653.401465 88.581196 
L 654.128304 88.523125 
L 656.30882 87.971448 
L 657.035658 87.652057 
L 657.399077 87.593985 
L 657.762497 87.419772 
L 658.489335 86.780989 
L 661.760109 85.503422 
L 662.486947 85.38728 
L 665.394301 84.400069 
L 666.484559 83.790321 
L 666.847978 83.703215 
L 667.211398 83.412859 
L 668.301655 83.093467 
L 673.752944 80.56737 
L 675.570041 79.928586 
L 675.93346 79.609195 
L 676.296879 79.522088 
L 677.023718 79.057518 
L 678.113976 78.738127 
L 679.567653 78.128379 
L 679.931072 78.099343 
L 681.748168 77.402489 
L 682.475007 77.257311 
L 683.201845 76.73467 
L 683.565265 76.73467 
L 685.018942 76.212029 
L 686.472619 75.921673 
L 687.926296 75.28289 
L 688.289715 75.28289 
L 689.379973 74.905427 
L 690.106811 74.789284 
L 691.197069 74.150501 
L 691.923908 73.773038 
L 694.831262 72.727757 
L 695.5581 72.495472 
L 697.375197 72.147045 
L 703.189905 70.375873 
L 703.553324 70.317802 
L 704.280163 70.027446 
L 705.73384 69.708054 
L 708.641194 68.633737 
L 709.368033 68.488559 
L 710.82171 68.227238 
L 711.548548 68.111096 
L 713.002225 67.530384 
L 713.729064 67.327134 
L 714.455902 67.210992 
L 715.909579 66.746422 
L 716.272999 66.746422 
L 716.999837 66.339924 
L 718.816934 65.875354 
L 719.543772 65.614034 
L 720.270611 65.468856 
L 722.451126 64.510681 
L 722.814545 64.45261 
L 723.541384 64.104183 
L 724.268223 63.784791 
L 724.995061 63.465399 
L 725.7219 63.175043 
L 726.085319 62.971794 
L 726.448738 62.913723 
L 727.175577 62.565296 
L 728.265834 62.100726 
L 730.082931 61.316765 
L 730.44635 61.08448 
L 730.809769 60.997373 
L 731.173189 60.765088 
L 731.536608 60.707017 
L 732.263446 60.242447 
L 734.443962 59.719806 
L 735.170801 59.313308 
L 735.53422 59.255237 
L 736.987897 58.674525 
L 742.439186 56.612997 
L 743.892863 56.26457 
L 745.34654 56.090356 
L 746.436798 55.858071 
L 747.163636 55.8 
L 747.163636 55.8 
" clip-path="url(#pa4807e0e41)" style="fill: none; stroke: #1f77b4; stroke-width: 1.5; stroke-linecap: square"/>
   </g>
   <g id="line2d_32">
    <path d="M 138.799783 307.8 
L 142.070556 307.712893 
L 144.97791 307.567715 
L 146.431588 307.567715 
L 147.158426 307.451573 
L 155.880488 306.841825 
L 158.787843 306.754718 
L 160.604939 306.696647 
L 165.329389 306.60954 
L 167.146486 306.551469 
L 170.417259 306.464362 
L 171.870936 306.435327 
L 175.505129 306.34822 
L 176.958806 306.203042 
L 178.412483 306.174006 
L 180.592999 306.086899 
L 182.046676 306.057864 
L 183.863772 305.999793 
L 185.317449 305.854615 
L 188.588223 305.767508 
L 189.315061 305.709437 
L 190.768738 305.62233 
L 192.949254 305.535223 
L 194.402931 305.448116 
L 200.944478 305.012582 
L 203.488412 304.925475 
L 204.57867 304.809333 
L 206.395767 304.722226 
L 210.029959 304.518977 
L 213.664152 304.460906 
L 215.117829 304.286692 
L 216.934925 304.199585 
L 220.569118 303.822122 
L 222.749634 303.531766 
L 224.203311 303.473695 
L 227.110665 303.067197 
L 229.29118 303.009125 
L 230.381438 302.892983 
L 231.471696 302.805876 
L 250.369498 301.383132 
L 252.913433 301.296025 
L 254.36711 301.121811 
L 256.184206 301.034704 
L 258.364722 300.947598 
L 260.181818 300.860491 
L 261.635495 300.831455 
L 263.452592 300.773384 
L 264.17943 300.686277 
L 269.2673 300.59917 
L 269.994138 300.512064 
L 274.35517 300.424957 
L 277.625943 300.250743 
L 280.169878 300.163636 
L 281.623555 299.989423 
L 284.16749 299.902316 
L 284.894328 299.786174 
L 286.711425 299.728102 
L 290.345617 299.670031 
L 291.799294 299.524853 
L 293.252972 299.495817 
L 294.343229 299.408711 
L 295.796906 299.263533 
L 299.431099 299.060283 
L 303.065292 298.973177 
L 306.336065 298.798963 
L 307.426323 298.769927 
L 308.153161 298.653785 
L 309.970258 298.566678 
L 310.697096 298.508607 
L 312.514193 298.4215 
L 313.96787 298.392465 
L 316.511805 298.305358 
L 325.960706 297.637539 
L 328.141221 297.550432 
L 329.958318 297.492361 
L 335.046187 297.405254 
L 335.773026 297.318147 
L 340.860896 297.23104 
L 344.495088 297.027791 
L 345.221927 296.998756 
L 345.948765 296.911649 
L 347.765862 296.824542 
L 349.582958 296.766471 
L 351.400054 296.679364 
L 353.217151 296.621293 
L 356.487924 296.534186 
L 358.66844 296.447079 
L 363.756309 296.359972 
L 367.753921 296.127688 
L 369.207598 296.069616 
L 370.297856 295.98251 
L 375.385726 295.895403 
L 377.566242 295.808296 
L 384.107788 295.721189 
L 385.561465 295.692153 
L 389.922497 295.634082 
L 390.649335 295.576011 
L 395.737205 295.488904 
L 397.190882 295.459869 
L 406.639783 295.372762 
L 408.820299 295.285655 
L 424.083908 295.198548 
L 425.901004 295.140477 
L 436.440163 295.05337 
L 440.437775 294.821085 
L 442.61829 294.733979 
L 444.798806 294.646872 
L 448.432999 294.559765 
L 450.976934 294.443623 
L 453.884288 294.356516 
L 456.791642 294.211338 
L 463.696608 294.124231 
L 465.877123 294.037124 
L 469.874735 293.950017 
L 472.41867 293.833875 
L 474.962605 293.775804 
L 475.689444 293.717732 
L 484.411506 293.630626 
L 488.045699 293.427376 
L 490.589634 293.34027 
L 494.587246 293.107985 
L 498.948277 293.020878 
L 500.401954 292.991842 
L 501.128792 292.933771 
L 502.945889 292.730522 
L 506.580081 292.643415 
L 507.30692 292.556308 
L 510.941113 292.469202 
L 512.758209 292.41113 
L 516.755821 292.382095 
L 517.482659 292.294988 
L 521.480271 292.207881 
L 522.20711 292.14981 
L 530.202334 292.062703 
L 532.382849 291.975596 
L 537.834138 291.888489 
L 539.287815 291.859454 
L 542.558589 291.801383 
L 543.285427 291.714276 
L 548.009878 291.627169 
L 549.826974 291.569098 
L 556.368521 291.481991 
L 557.458779 291.394884 
L 558.549037 291.307777 
L 559.639294 291.220671 
L 565.090583 291.133564 
L 567.271099 291.046457 
L 577.810258 290.95935 
L 581.081031 290.785137 
L 586.168901 290.69803 
L 587.622578 290.668994 
L 591.983609 290.581887 
L 593.800706 290.523816 
L 602.159349 290.436709 
L 604.339864 290.349602 
L 610.517992 290.262496 
L 611.971669 290.23346 
L 615.605862 290.146353 
L 618.149796 290.030211 
L 622.147408 289.943104 
L 624.691343 289.826962 
L 627.962117 289.76889 
L 628.688955 289.710819 
L 636.684179 289.623712 
L 638.864695 289.536606 
L 641.40863 289.449499 
L 643.225726 289.391428 
L 653.764885 289.304321 
L 655.9454 289.217214 
L 662.123528 289.130107 
L 663.940624 289.072036 
L 668.665075 288.984929 
L 670.84559 288.897822 
L 673.752944 288.810716 
L 675.93346 288.723609 
L 690.470231 288.636502 
L 693.377585 288.491324 
L 701.736228 288.404217 
L 703.189905 288.375181 
L 711.911967 288.288075 
L 713.729064 288.230003 
L 725.35848 288.142897 
L 726.812157 288.113861 
L 737.714735 288.026754 
L 738.441574 287.968683 
L 747.163636 287.939647 
L 747.163636 287.939647 
" clip-path="url(#pa4807e0e41)" style="fill: none; stroke: #ff7f0e; stroke-width: 1.5; stroke-linecap: square"/>
   </g>
   <g id="patch_3">
    <path d="M 108 320.4 
L 108 43.2 
" style="fill: none; stroke: #a9a9a9; stroke-width: 0.8; stroke-linejoin: miter; stroke-linecap: square"/>
   </g>
   <g id="patch_4">
    <path d="M 777.6 320.4 
L 777.6 43.2 
" style="fill: none"/>
   </g>
   <g id="patch_5">
    <path d="M 108 320.4 
L 777.6 320.4 
" style="fill: none; stroke: #a9a9a9; stroke-width: 0.8; stroke-linejoin: miter; stroke-linecap: square"/>
   </g>
   <g id="patch_6">
    <path d="M 108 43.2 
L 777.6 43.2 
" style="fill: none"/>
   </g>
   <g id="text_16">
    <!-- get_subscribe history -->
    <g style="fill: #a9a9a9" transform="translate(378.6075 37.2) scale(0.12 -0.12)">
     <defs>
      <path id="DejaVuSans-67" d="M 2906 1791 
Q 2906 2416 2648 2759 
Q 2391 3103 1925 3103 
Q 1463 3103 1205 2759 
Q 947 2416 947 1791 
Q 947 1169 1205 825 
Q 1463 481 1925 481 
Q 2391 481 2648 825 
Q 2906 1169 2906 1791 
z
M 3481 434 
Q 3481 -459 3084 -895 
Q 2688 -1331 1869 -1331 
Q 1566 -1331 1297 -1286 
Q 1028 -1241 775 -1147 
L 775 -588 
Q 1028 -725 1275 -790 
Q 1522 -856 1778 -856 
Q 2344 -856 2625 -561 
Q 2906 -266 2906 331 
L 2906 616 
Q 2728 306 2450 153 
Q 2172 0 1784 0 
Q 1141 0 747 490 
Q 353 981 353 1791 
Q 353 2603 747 3093 
Q 1141 3584 1784 3584 
Q 2172 3584 2450 3431 
Q 2728 3278 2906 2969 
L 2906 3500 
L 3481 3500 
L 3481 434 
z
" transform="scale(0.015625)"/>
      <path id="DejaVuSans-65" d="M 3597 1894 
L 3597 1613 
L 953 1613 
Q 991 1019 1311 708 
Q 1631 397 2203 397 
Q 2534 397 2845 478 
Q 3156 559 3463 722 
L 3463 178 
Q 3153 47 2828 -22 
Q 2503 -91 2169 -91 
Q 1331 -91 842 396 
Q 353 884 353 1716 
Q 353 2575 817 3079 
Q 1281 3584 2069 3584 
Q 2775 3584 3186 3129 
Q 3597 2675 3597 1894 
z
M 3022 2063 
Q 3016 2534 2758 2815 
Q 2500 3097 2075 3097 
Q 1594 3097 1305 2825 
Q 1016 2553 972 2059 
L 3022 2063 
z
" transform="scale(0.015625)"/>
      <path id="DejaVuSans-74" d="M 1172 4494 
L 1172 3500 
L 2356 3500 
L 2356 3053 
L 1172 3053 
L 1172 1153 
Q 1172 725 1289 603 
Q 1406 481 1766 481 
L 2356 481 
L 2356 0 
L 1766 0 
Q 1100 0 847 248 
Q 594 497 594 1153 
L 594 3053 
L 172 3053 
L 172 3500 
L 594 3500 
L 594 4494 
L 1172 4494 
z
" transform="scale(0.015625)"/>
      <path id="DejaVuSans-5f" d="M 3263 -1063 
L 3263 -1509 
L -63 -1509 
L -63 -1063 
L 3263 -1063 
z
" transform="scale(0.015625)"/>
      <path id="DejaVuSans-73" d="M 2834 3397 
L 2834 2853 
Q 2591 2978 2328 3040 
Q 2066 3103 1784 3103 
Q 1356 3103 1142 2972 
Q 928 2841 928 2578 
Q 928 2378 1081 2264 
Q 1234 2150 1697 2047 
L 1894 2003 
Q 2506 1872 2764 1633 
Q 3022 1394 3022 966 
Q 3022 478 2636 193 
Q 2250 -91 1575 -91 
Q 1294 -91 989 -36 
Q 684 19 347 128 
L 347 722 
Q 666 556 975 473 
Q 1284 391 1588 391 
Q 1994 391 2212 530 
Q 2431 669 2431 922 
Q 2431 1156 2273 1281 
Q 2116 1406 1581 1522 
L 1381 1569 
Q 847 1681 609 1914 
Q 372 2147 372 2553 
Q 372 3047 722 3315 
Q 1072 3584 1716 3584 
Q 2034 3584 2315 3537 
Q 2597 3491 2834 3397 
z
" transform="scale(0.015625)"/>
      <path id="DejaVuSans-75" d="M 544 1381 
L 544 3500 
L 1119 3500 
L 1119 1403 
Q 1119 906 1312 657 
Q 1506 409 1894 409 
Q 2359 409 2629 706 
Q 2900 1003 2900 1516 
L 2900 3500 
L 3475 3500 
L 3475 0 
L 2900 0 
L 2900 538 
Q 2691 219 2414 64 
Q 2138 -91 1772 -91 
Q 1169 -91 856 284 
Q 544 659 544 1381 
z
M 1991 3584 
L 1991 3584 
z
" transform="scale(0.015625)"/>
      <path id="DejaVuSans-62" d="M 3116 1747 
Q 3116 2381 2855 2742 
Q 2594 3103 2138 3103 
Q 1681 3103 1420 2742 
Q 1159 2381 1159 1747 
Q 1159 1113 1420 752 
Q 1681 391 2138 391 
Q 2594 391 2855 752 
Q 3116 1113 3116 1747 
z
M 1159 2969 
Q 1341 3281 1617 3432 
Q 1894 3584 2278 3584 
Q 2916 3584 3314 3078 
Q 3713 2572 3713 1747 
Q 3713 922 3314 415 
Q 2916 -91 2278 -91 
Q 1894 -91 1617 61 
Q 1341 213 1159 525 
L 1159 0 
L 581 0 
L 581 4863 
L 1159 4863 
L 1159 2969 
z
" transform="scale(0.015625)"/>
      <path id="DejaVuSans-63" d="M 3122 3366 
L 3122 2828 
Q 2878 2963 2633 3030 
Q 2388 3097 2138 3097 
Q 1578 3097 1268 2742 
Q 959 2388 959 1747 
Q 959 1106 1268 751 
Q 1578 397 2138 397 
Q 2388 397 2633 464 
Q 2878 531 3122 666 
L 3122 134 
Q 2881 22 2623 -34 
Q 2366 -91 2075 -91 
Q 1284 -91 818 406 
Q 353 903 353 1747 
Q 353 2603 823 3093 
Q 1294 3584 2113 3584 
Q 2378 3584 2631 3529 
Q 2884 3475 3122 3366 
z
" transform="scale(0.015625)"/>
      <path id="DejaVuSans-72" d="M 2631 2963 
Q 2534 3019 2420 3045 
Q 2306 3072 2169 3072 
Q 1681 3072 1420 2755 
Q 1159 2438 1159 1844 
L 1159 0 
L 581 0 
L 581 3500 
L 1159 3500 
L 1159 2956 
Q 1341 3275 1631 3429 
Q 1922 3584 2338 3584 
Q 2397 3584 2469 3576 
Q 2541 3569 2628 3553 
L 2631 2963 
z
" transform="scale(0.015625)"/>
      <path id="DejaVuSans-69" d="M 603 3500 
L 1178 3500 
L 1178 0 
L 603 0 
L 603 3500 
z
M 603 4863 
L 1178 4863 
L 1178 4134 
L 603 4134 
L 603 4863 
z
" transform="scale(0.015625)"/>
      <path id="DejaVuSans-20" transform="scale(0.015625)"/>
      <path id="DejaVuSans-68" d="M 3513 2113 
L 3513 0 
L 2938 0 
L 2938 2094 
Q 2938 2591 2744 2837 
Q 2550 3084 2163 3084 
Q 1697 3084 1428 2787 
Q 1159 2491 1159 1978 
L 1159 0 
L 581 0 
L 581 4863 
L 1159 4863 
L 1159 2956 
Q 1366 3272 1645 3428 
Q 1925 3584 2291 3584 
Q 2894 3584 3203 3211 
Q 3513 2838 3513 2113 
z
" transform="scale(0.015625)"/>
      <path id="DejaVuSans-6f" d="M 1959 3097 
Q 1497 3097 1228 2736 
Q 959 2375 959 1747 
Q 959 1119 1226 758 
Q 1494 397 1959 397 
Q 2419 397 2687 759 
Q 2956 1122 2956 1747 
Q 2956 2369 2687 2733 
Q 2419 3097 1959 3097 
z
M 1959 3584 
Q 2709 3584 3137 3096 
Q 3566 2609 3566 1747 
Q 3566 888 3137 398 
Q 2709 -91 1959 -91 
Q 1206 -91 779 398 
Q 353 888 353 1747 
Q 353 2609 779 3096 
Q 1206 3584 1959 3584 
z
" transform="scale(0.015625)"/>
      <path id="DejaVuSans-79" d="M 2059 -325 
Q 1816 -950 1584 -1140 
Q 1353 -1331 966 -1331 
L 506 -1331 
L 506 -850 
L 844 -850 
Q 1081 -850 1212 -737 
Q 1344 -625 1503 -206 
L 1606 56 
L 191 3500 
L 800 3500 
L 1894 763 
L 2988 3500 
L 3597 3500 
L 2059 -325 
z
" transform="scale(0.015625)"/>
     </defs>
     <use xlink:href="#DejaVuSans-67"/>
     <use xlink:href="#DejaVuSans-65" transform="translate(63.476562 0)"/>
     <use xlink:href="#DejaVuSans-74" transform="translate(125 0)"/>
     <use xlink:href="#DejaVuSans-5f" transform="translate(164.208984 0)"/>
     <use xlink:href="#DejaVuSans-73" transform="translate(214.208984 0)"/>
     <use xlink:href="#DejaVuSans-75" transform="translate(266.308594 0)"/>
     <use xlink:href="#DejaVuSans-62" transform="translate(329.6875 0)"/>
     <use xlink:href="#DejaVuSans-73" transform="translate(393.164062 0)"/>
     <use xlink:href="#DejaVuSans-63" transform="translate(445.263672 0)"/>
     <use xlink:href="#DejaVuSans-72" transform="translate(500.244141 0)"/>
     <use xlink:href="#DejaVuSans-69" transform="translate(541.357422 0)"/>
     <use xlink:href="#DejaVuSans-62" transform="translate(569.140625 0)"/>
     <use xlink:href="#DejaVuSans-65" transform="translate(632.617188 0)"/>
     <use xlink:href="#DejaVuSans-20" transform="translate(694.140625 0)"/>
     <use xlink:href="#DejaVuSans-68" transform="translate(725.927734 0)"/>
     <use xlink:href="#DejaVuSans-69" transform="translate(789.306641 0)"/>
     <use xlink:href="#DejaVuSans-73" transform="translate(817.089844 0)"/>
     <use xlink:href="#DejaVuSans-74" transform="translate(869.189453 0)"/>
     <use xlink:href="#DejaVuSans-6f" transform="translate(908.398438 0)"/>
     <use xlink:href="#DejaVuSans-72" transform="translate(969.580078 0)"/>
     <use xlink:href="#DejaVuSans-79" transform="translate(1010.693359 0)"/>
    </g>
   </g>
   <g id="legend_1">
    <g id="line2d_33">
     <path d="M 815.08 328.498438 
L 825.08 328.498438 
L 835.08 328.498438 
" style="fill: none; stroke: #1f77b4; stroke-width: 1.5; stroke-linecap: square"/>
    </g>
    <g id="text_17">
     <!-- star -->
     <g style="fill: #a9a9a9" transform="translate(843.08 331.998438) scale(0.1 -0.1)">
      <defs>
       <path id="DejaVuSans-61" d="M 2194 1759 
Q 1497 1759 1228 1600 
Q 959 1441 959 1056 
Q 959 750 1161 570 
Q 1363 391 1709 391 
Q 2188 391 2477 730 
Q 2766 1069 2766 1631 
L 2766 1759 
L 2194 1759 
z
M 3341 1997 
L 3341 0 
L 2766 0 
L 2766 531 
Q 2569 213 2275 61 
Q 1981 -91 1556 -91 
Q 1019 -91 701 211 
Q 384 513 384 1019 
Q 384 1609 779 1909 
Q 1175 2209 1959 2209 
L 2766 2209 
L 2766 2266 
Q 2766 2663 2505 2880 
Q 2244 3097 1772 3097 
Q 1472 3097 1187 3025 
Q 903 2953 641 2809 
L 641 3341 
Q 956 3463 1253 3523 
Q 1550 3584 1831 3584 
Q 2591 3584 2966 3190 
Q 3341 2797 3341 1997 
z
" transform="scale(0.015625)"/>
      </defs>
      <use xlink:href="#DejaVuSans-73"/>
      <use xlink:href="#DejaVuSans-74" transform="translate(52.099609 0)"/>
      <use xlink:href="#DejaVuSans-61" transform="translate(91.308594 0)"/>
      <use xlink:href="#DejaVuSans-72" transform="translate(152.587891 0)"/>
     </g>
    </g>
    <g id="line2d_34">
     <path d="M 815.08 343.176562 
L 825.08 343.176562 
L 835.08 343.176562 
" style="fill: none; stroke: #ff7f0e; stroke-width: 1.5; stroke-linecap: square"/>
    </g>
    <g id="text_18">
     <!-- fork -->
     <g style="fill: #a9a9a9" transform="translate(843.08 346.676562) scale(0.1 -0.1)">
      <defs>
       <path id="DejaVuSans-66" d="M 2375 4863 
L 2375 4384 
L 1825 4384 
Q 1516 4384 1395 4259 
Q 1275 4134 1275 3809 
L 1275 3500 
L 2222 3500 
L 2222 3053 
L 1275 3053 
L 1275 0 
L 697 0 
L 697 3053 
L 147 3053 
L 147 3500 
L 697 3500 
L 697 3744 
Q 697 4328 969 4595 
Q 1241 4863 1831 4863 
L 2375 4863 
z
" transform="scale(0.015625)"/>
       <path id="DejaVuSans-6b" d="M 581 4863 
L 1159 4863 
L 1159 1991 
L 2875 3500 
L 3609 3500 
L 1753 1863 
L 3688 0 
L 2938 0 
L 1159 1709 
L 1159 0 
L 581 0 
L 581 4863 
z
" transform="scale(0.015625)"/>
      </defs>
      <use xlink:href="#DejaVuSans-66"/>
      <use xlink:href="#DejaVuSans-6f" transform="translate(35.205078 0)"/>
      <use xlink:href="#DejaVuSans-72" transform="translate(96.386719 0)"/>
      <use xlink:href="#DejaVuSans-6b" transform="translate(137.5 0)"/>
     </g>
    </g>
   </g>
  </g>
 </g>
 <defs>
  <clipPath id="pa4807e0e41">
   <rect x="108" y="43.2" width="669.6" height="277.2"/>
  </clipPath>
 </defs>
</svg>
