<?xml version="1.0" encoding="utf-8" standalone="no"?>
<!DOCTYPE svg PUBLIC "-//W3C//DTD SVG 1.1//EN"
  "http://www.w3.org/Graphics/SVG/1.1/DTD/svg11.dtd">
<svg xmlns:xlink="http://www.w3.org/1999/xlink" width="864pt" height="360pt" viewBox="0 0 864 360" xmlns="http://www.w3.org/2000/svg" version="1.1">
 <metadata>
  <rdf:RDF xmlns:dc="http://purl.org/dc/elements/1.1/" xmlns:cc="http://creativecommons.org/ns#" xmlns:rdf="http://www.w3.org/1999/02/22-rdf-syntax-ns#">
   <cc:Work>
    <dc:type rdf:resource="http://purl.org/dc/dcmitype/StillImage"/>
    <dc:date>2025-07-02T08:16:46.035333</dc:date>
    <dc:format>image/svg+xml</dc:format>
    <dc:creator>
     <cc:Agent>
      <dc:title>Matplotlib v3.10.3, https://matplotlib.org/</dc:title>
     </cc:Agent>
    </dc:creator>
   </cc:Work>
  </rdf:RDF>
 </metadata>
 <defs>
  <style type="text/css">*{stroke-linejoin: round; stroke-linecap: butt}</style>
 </defs>
 <g id="figure_1">
  <g id="patch_1">
   <path d="M 0 360 
L 864 360 
L 864 0 
L 0 0 
L 0 360 
z
" style="fill: none; opacity: 0"/>
  </g>
  <g id="axes_1">
   <g id="patch_2">
    <path d="M 108 320.4 
L 777.6 320.4 
L 777.6 43.2 
L 108 43.2 
L 108 320.4 
z
" style="fill: none; opacity: 0"/>
   </g>
   <g id="matplotlib.axis_1">
    <g id="xtick_1">
     <g id="line2d_1">
      <path d="M 128.70688 320.4 
L 128.70688 43.2 
" clip-path="url(#p1b25c71b18)" style="fill: none; stroke-dasharray: 5.12,1.28,0.8,1.28; stroke-dashoffset: 0; stroke: #b0b0b0; stroke-width: 0.8"/>
     </g>
     <g id="line2d_2">
      <defs>
       <path id="m9fbe8a913a" d="M 0 0 
L 0 3.5 
" style="stroke: #a9a9a9; stroke-width: 0.8"/>
      </defs>
      <g>
       <use xlink:href="#m9fbe8a913a" x="128.70688" y="320.4" style="fill: #a9a9a9; stroke: #a9a9a9; stroke-width: 0.8"/>
      </g>
     </g>
     <g id="text_1">
      <!-- 2021-07 -->
      <g style="fill: #a9a9a9" transform="translate(107.815474 334.998438) scale(0.1 -0.1)">
       <defs>
        <path id="DejaVuSans-32" d="M 1228 531 
L 3431 531 
L 3431 0 
L 469 0 
L 469 531 
Q 828 903 1448 1529 
Q 2069 2156 2228 2338 
Q 2531 2678 2651 2914 
Q 2772 3150 2772 3378 
Q 2772 3750 2511 3984 
Q 2250 4219 1831 4219 
Q 1534 4219 1204 4116 
Q 875 4013 500 3803 
L 500 4441 
Q 881 4594 1212 4672 
Q 1544 4750 1819 4750 
Q 2544 4750 2975 4387 
Q 3406 4025 3406 3419 
Q 3406 3131 3298 2873 
Q 3191 2616 2906 2266 
Q 2828 2175 2409 1742 
Q 1991 1309 1228 531 
z
" transform="scale(0.015625)"/>
        <path id="DejaVuSans-30" d="M 2034 4250 
Q 1547 4250 1301 3770 
Q 1056 3291 1056 2328 
Q 1056 1369 1301 889 
Q 1547 409 2034 409 
Q 2525 409 2770 889 
Q 3016 1369 3016 2328 
Q 3016 3291 2770 3770 
Q 2525 4250 2034 4250 
z
M 2034 4750 
Q 2819 4750 3233 4129 
Q 3647 3509 3647 2328 
Q 3647 1150 3233 529 
Q 2819 -91 2034 -91 
Q 1250 -91 836 529 
Q 422 1150 422 2328 
Q 422 3509 836 4129 
Q 1250 4750 2034 4750 
z
" transform="scale(0.015625)"/>
        <path id="DejaVuSans-31" d="M 794 531 
L 1825 531 
L 1825 4091 
L 703 3866 
L 703 4441 
L 1819 4666 
L 2450 4666 
L 2450 531 
L 3481 531 
L 3481 0 
L 794 0 
L 794 531 
z
" transform="scale(0.015625)"/>
        <path id="DejaVuSans-2d" d="M 313 2009 
L 1997 2009 
L 1997 1497 
L 313 1497 
L 313 2009 
z
" transform="scale(0.015625)"/>
        <path id="DejaVuSans-37" d="M 525 4666 
L 3525 4666 
L 3525 4397 
L 1831 0 
L 1172 0 
L 2766 4134 
L 525 4134 
L 525 4666 
z
" transform="scale(0.015625)"/>
       </defs>
       <use xlink:href="#DejaVuSans-32"/>
       <use xlink:href="#DejaVuSans-30" transform="translate(63.623047 0)"/>
       <use xlink:href="#DejaVuSans-32" transform="translate(127.246094 0)"/>
       <use xlink:href="#DejaVuSans-31" transform="translate(190.869141 0)"/>
       <use xlink:href="#DejaVuSans-2d" transform="translate(254.492188 0)"/>
       <use xlink:href="#DejaVuSans-30" transform="translate(290.576172 0)"/>
       <use xlink:href="#DejaVuSans-37" transform="translate(354.199219 0)"/>
      </g>
     </g>
    </g>
    <g id="xtick_2">
     <g id="line2d_3">
      <path d="M 206.542751 320.4 
L 206.542751 43.2 
" clip-path="url(#p1b25c71b18)" style="fill: none; stroke-dasharray: 5.12,1.28,0.8,1.28; stroke-dashoffset: 0; stroke: #b0b0b0; stroke-width: 0.8"/>
     </g>
     <g id="line2d_4">
      <g>
       <use xlink:href="#m9fbe8a913a" x="206.542751" y="320.4" style="fill: #a9a9a9; stroke: #a9a9a9; stroke-width: 0.8"/>
      </g>
     </g>
     <g id="text_2">
      <!-- 2022-01 -->
      <g style="fill: #a9a9a9" transform="translate(185.651344 334.998438) scale(0.1 -0.1)">
       <use xlink:href="#DejaVuSans-32"/>
       <use xlink:href="#DejaVuSans-30" transform="translate(63.623047 0)"/>
       <use xlink:href="#DejaVuSans-32" transform="translate(127.246094 0)"/>
       <use xlink:href="#DejaVuSans-32" transform="translate(190.869141 0)"/>
       <use xlink:href="#DejaVuSans-2d" transform="translate(254.492188 0)"/>
       <use xlink:href="#DejaVuSans-30" transform="translate(290.576172 0)"/>
       <use xlink:href="#DejaVuSans-31" transform="translate(354.199219 0)"/>
      </g>
     </g>
    </g>
    <g id="xtick_3">
     <g id="line2d_5">
      <path d="M 283.109558 320.4 
L 283.109558 43.2 
" clip-path="url(#p1b25c71b18)" style="fill: none; stroke-dasharray: 5.12,1.28,0.8,1.28; stroke-dashoffset: 0; stroke: #b0b0b0; stroke-width: 0.8"/>
     </g>
     <g id="line2d_6">
      <g>
       <use xlink:href="#m9fbe8a913a" x="283.109558" y="320.4" style="fill: #a9a9a9; stroke: #a9a9a9; stroke-width: 0.8"/>
      </g>
     </g>
     <g id="text_3">
      <!-- 2022-07 -->
      <g style="fill: #a9a9a9" transform="translate(262.218152 334.998438) scale(0.1 -0.1)">
       <use xlink:href="#DejaVuSans-32"/>
       <use xlink:href="#DejaVuSans-30" transform="translate(63.623047 0)"/>
       <use xlink:href="#DejaVuSans-32" transform="translate(127.246094 0)"/>
       <use xlink:href="#DejaVuSans-32" transform="translate(190.869141 0)"/>
       <use xlink:href="#DejaVuSans-2d" transform="translate(254.492188 0)"/>
       <use xlink:href="#DejaVuSans-30" transform="translate(290.576172 0)"/>
       <use xlink:href="#DejaVuSans-37" transform="translate(354.199219 0)"/>
      </g>
     </g>
    </g>
    <g id="xtick_4">
     <g id="line2d_7">
      <path d="M 360.945429 320.4 
L 360.945429 43.2 
" clip-path="url(#p1b25c71b18)" style="fill: none; stroke-dasharray: 5.12,1.28,0.8,1.28; stroke-dashoffset: 0; stroke: #b0b0b0; stroke-width: 0.8"/>
     </g>
     <g id="line2d_8">
      <g>
       <use xlink:href="#m9fbe8a913a" x="360.945429" y="320.4" style="fill: #a9a9a9; stroke: #a9a9a9; stroke-width: 0.8"/>
      </g>
     </g>
     <g id="text_4">
      <!-- 2023-01 -->
      <g style="fill: #a9a9a9" transform="translate(340.054023 334.998438) scale(0.1 -0.1)">
       <defs>
        <path id="DejaVuSans-33" d="M 2597 2516 
Q 3050 2419 3304 2112 
Q 3559 1806 3559 1356 
Q 3559 666 3084 287 
Q 2609 -91 1734 -91 
Q 1441 -91 1130 -33 
Q 819 25 488 141 
L 488 750 
Q 750 597 1062 519 
Q 1375 441 1716 441 
Q 2309 441 2620 675 
Q 2931 909 2931 1356 
Q 2931 1769 2642 2001 
Q 2353 2234 1838 2234 
L 1294 2234 
L 1294 2753 
L 1863 2753 
Q 2328 2753 2575 2939 
Q 2822 3125 2822 3475 
Q 2822 3834 2567 4026 
Q 2313 4219 1838 4219 
Q 1578 4219 1281 4162 
Q 984 4106 628 3988 
L 628 4550 
Q 988 4650 1302 4700 
Q 1616 4750 1894 4750 
Q 2613 4750 3031 4423 
Q 3450 4097 3450 3541 
Q 3450 3153 3228 2886 
Q 3006 2619 2597 2516 
z
" transform="scale(0.015625)"/>
       </defs>
       <use xlink:href="#DejaVuSans-32"/>
       <use xlink:href="#DejaVuSans-30" transform="translate(63.623047 0)"/>
       <use xlink:href="#DejaVuSans-32" transform="translate(127.246094 0)"/>
       <use xlink:href="#DejaVuSans-33" transform="translate(190.869141 0)"/>
       <use xlink:href="#DejaVuSans-2d" transform="translate(254.492188 0)"/>
       <use xlink:href="#DejaVuSans-30" transform="translate(290.576172 0)"/>
       <use xlink:href="#DejaVuSans-31" transform="translate(354.199219 0)"/>
      </g>
     </g>
    </g>
    <g id="xtick_5">
     <g id="line2d_9">
      <path d="M 437.512237 320.4 
L 437.512237 43.2 
" clip-path="url(#p1b25c71b18)" style="fill: none; stroke-dasharray: 5.12,1.28,0.8,1.28; stroke-dashoffset: 0; stroke: #b0b0b0; stroke-width: 0.8"/>
     </g>
     <g id="line2d_10">
      <g>
       <use xlink:href="#m9fbe8a913a" x="437.512237" y="320.4" style="fill: #a9a9a9; stroke: #a9a9a9; stroke-width: 0.8"/>
      </g>
     </g>
     <g id="text_5">
      <!-- 2023-07 -->
      <g style="fill: #a9a9a9" transform="translate(416.620831 334.998438) scale(0.1 -0.1)">
       <use xlink:href="#DejaVuSans-32"/>
       <use xlink:href="#DejaVuSans-30" transform="translate(63.623047 0)"/>
       <use xlink:href="#DejaVuSans-32" transform="translate(127.246094 0)"/>
       <use xlink:href="#DejaVuSans-33" transform="translate(190.869141 0)"/>
       <use xlink:href="#DejaVuSans-2d" transform="translate(254.492188 0)"/>
       <use xlink:href="#DejaVuSans-30" transform="translate(290.576172 0)"/>
       <use xlink:href="#DejaVuSans-37" transform="translate(354.199219 0)"/>
      </g>
     </g>
    </g>
    <g id="xtick_6">
     <g id="line2d_11">
      <path d="M 515.348108 320.4 
L 515.348108 43.2 
" clip-path="url(#p1b25c71b18)" style="fill: none; stroke-dasharray: 5.12,1.28,0.8,1.28; stroke-dashoffset: 0; stroke: #b0b0b0; stroke-width: 0.8"/>
     </g>
     <g id="line2d_12">
      <g>
       <use xlink:href="#m9fbe8a913a" x="515.348108" y="320.4" style="fill: #a9a9a9; stroke: #a9a9a9; stroke-width: 0.8"/>
      </g>
     </g>
     <g id="text_6">
      <!-- 2024-01 -->
      <g style="fill: #a9a9a9" transform="translate(494.456702 334.998438) scale(0.1 -0.1)">
       <defs>
        <path id="DejaVuSans-34" d="M 2419 4116 
L 825 1625 
L 2419 1625 
L 2419 4116 
z
M 2253 4666 
L 3047 4666 
L 3047 1625 
L 3713 1625 
L 3713 1100 
L 3047 1100 
L 3047 0 
L 2419 0 
L 2419 1100 
L 313 1100 
L 313 1709 
L 2253 4666 
z
" transform="scale(0.015625)"/>
       </defs>
       <use xlink:href="#DejaVuSans-32"/>
       <use xlink:href="#DejaVuSans-30" transform="translate(63.623047 0)"/>
       <use xlink:href="#DejaVuSans-32" transform="translate(127.246094 0)"/>
       <use xlink:href="#DejaVuSans-34" transform="translate(190.869141 0)"/>
       <use xlink:href="#DejaVuSans-2d" transform="translate(254.492188 0)"/>
       <use xlink:href="#DejaVuSans-30" transform="translate(290.576172 0)"/>
       <use xlink:href="#DejaVuSans-31" transform="translate(354.199219 0)"/>
      </g>
     </g>
    </g>
    <g id="xtick_7">
     <g id="line2d_13">
      <path d="M 592.337937 320.4 
L 592.337937 43.2 
" clip-path="url(#p1b25c71b18)" style="fill: none; stroke-dasharray: 5.12,1.28,0.8,1.28; stroke-dashoffset: 0; stroke: #b0b0b0; stroke-width: 0.8"/>
     </g>
     <g id="line2d_14">
      <g>
       <use xlink:href="#m9fbe8a913a" x="592.337937" y="320.4" style="fill: #a9a9a9; stroke: #a9a9a9; stroke-width: 0.8"/>
      </g>
     </g>
     <g id="text_7">
      <!-- 2024-07 -->
      <g style="fill: #a9a9a9" transform="translate(571.44653 334.998438) scale(0.1 -0.1)">
       <use xlink:href="#DejaVuSans-32"/>
       <use xlink:href="#DejaVuSans-30" transform="translate(63.623047 0)"/>
       <use xlink:href="#DejaVuSans-32" transform="translate(127.246094 0)"/>
       <use xlink:href="#DejaVuSans-34" transform="translate(190.869141 0)"/>
       <use xlink:href="#DejaVuSans-2d" transform="translate(254.492188 0)"/>
       <use xlink:href="#DejaVuSans-30" transform="translate(290.576172 0)"/>
       <use xlink:href="#DejaVuSans-37" transform="translate(354.199219 0)"/>
      </g>
     </g>
    </g>
    <g id="xtick_8">
     <g id="line2d_15">
      <path d="M 670.173808 320.4 
L 670.173808 43.2 
" clip-path="url(#p1b25c71b18)" style="fill: none; stroke-dasharray: 5.12,1.28,0.8,1.28; stroke-dashoffset: 0; stroke: #b0b0b0; stroke-width: 0.8"/>
     </g>
     <g id="line2d_16">
      <g>
       <use xlink:href="#m9fbe8a913a" x="670.173808" y="320.4" style="fill: #a9a9a9; stroke: #a9a9a9; stroke-width: 0.8"/>
      </g>
     </g>
     <g id="text_8">
      <!-- 2025-01 -->
      <g style="fill: #a9a9a9" transform="translate(649.282401 334.998438) scale(0.1 -0.1)">
       <defs>
        <path id="DejaVuSans-35" d="M 691 4666 
L 3169 4666 
L 3169 4134 
L 1269 4134 
L 1269 2991 
Q 1406 3038 1543 3061 
Q 1681 3084 1819 3084 
Q 2600 3084 3056 2656 
Q 3513 2228 3513 1497 
Q 3513 744 3044 326 
Q 2575 -91 1722 -91 
Q 1428 -91 1123 -41 
Q 819 9 494 109 
L 494 744 
Q 775 591 1075 516 
Q 1375 441 1709 441 
Q 2250 441 2565 725 
Q 2881 1009 2881 1497 
Q 2881 1984 2565 2268 
Q 2250 2553 1709 2553 
Q 1456 2553 1204 2497 
Q 953 2441 691 2322 
L 691 4666 
z
" transform="scale(0.015625)"/>
       </defs>
       <use xlink:href="#DejaVuSans-32"/>
       <use xlink:href="#DejaVuSans-30" transform="translate(63.623047 0)"/>
       <use xlink:href="#DejaVuSans-32" transform="translate(127.246094 0)"/>
       <use xlink:href="#DejaVuSans-35" transform="translate(190.869141 0)"/>
       <use xlink:href="#DejaVuSans-2d" transform="translate(254.492188 0)"/>
       <use xlink:href="#DejaVuSans-30" transform="translate(290.576172 0)"/>
       <use xlink:href="#DejaVuSans-31" transform="translate(354.199219 0)"/>
      </g>
     </g>
    </g>
    <g id="xtick_9">
     <g id="line2d_17">
      <path d="M 746.740615 320.4 
L 746.740615 43.2 
" clip-path="url(#p1b25c71b18)" style="fill: none; stroke-dasharray: 5.12,1.28,0.8,1.28; stroke-dashoffset: 0; stroke: #b0b0b0; stroke-width: 0.8"/>
     </g>
     <g id="line2d_18">
      <g>
       <use xlink:href="#m9fbe8a913a" x="746.740615" y="320.4" style="fill: #a9a9a9; stroke: #a9a9a9; stroke-width: 0.8"/>
      </g>
     </g>
     <g id="text_9">
      <!-- 2025-07 -->
      <g style="fill: #a9a9a9" transform="translate(725.849209 334.998438) scale(0.1 -0.1)">
       <use xlink:href="#DejaVuSans-32"/>
       <use xlink:href="#DejaVuSans-30" transform="translate(63.623047 0)"/>
       <use xlink:href="#DejaVuSans-32" transform="translate(127.246094 0)"/>
       <use xlink:href="#DejaVuSans-35" transform="translate(190.869141 0)"/>
       <use xlink:href="#DejaVuSans-2d" transform="translate(254.492188 0)"/>
       <use xlink:href="#DejaVuSans-30" transform="translate(290.576172 0)"/>
       <use xlink:href="#DejaVuSans-37" transform="translate(354.199219 0)"/>
      </g>
     </g>
    </g>
   </g>
   <g id="matplotlib.axis_2">
    <g id="ytick_1">
     <g id="line2d_19">
      <path d="M 108 307.832295 
L 777.6 307.832295 
" clip-path="url(#p1b25c71b18)" style="fill: none; stroke-dasharray: 5.12,1.28,0.8,1.28; stroke-dashoffset: 0; stroke: #b0b0b0; stroke-width: 0.8"/>
     </g>
     <g id="line2d_20">
      <defs>
       <path id="me8d00f7d0d" d="M 0 0 
L -3.5 0 
" style="stroke: #a9a9a9; stroke-width: 0.8"/>
      </defs>
      <g>
       <use xlink:href="#me8d00f7d0d" x="108" y="307.832295" style="fill: #a9a9a9; stroke: #a9a9a9; stroke-width: 0.8"/>
      </g>
     </g>
     <g id="text_10">
      <!-- 0 -->
      <g style="fill: #a9a9a9" transform="translate(94.6375 311.631514) scale(0.1 -0.1)">
       <use xlink:href="#DejaVuSans-30"/>
      </g>
     </g>
    </g>
    <g id="ytick_2">
     <g id="line2d_21">
      <path d="M 108 275.537024 
L 777.6 275.537024 
" clip-path="url(#p1b25c71b18)" style="fill: none; stroke-dasharray: 5.12,1.28,0.8,1.28; stroke-dashoffset: 0; stroke: #b0b0b0; stroke-width: 0.8"/>
     </g>
     <g id="line2d_22">
      <g>
       <use xlink:href="#me8d00f7d0d" x="108" y="275.537024" style="fill: #a9a9a9; stroke: #a9a9a9; stroke-width: 0.8"/>
      </g>
     </g>
     <g id="text_11">
      <!-- 1000 -->
      <g style="fill: #a9a9a9" transform="translate(75.55 279.336243) scale(0.1 -0.1)">
       <use xlink:href="#DejaVuSans-31"/>
       <use xlink:href="#DejaVuSans-30" transform="translate(63.623047 0)"/>
       <use xlink:href="#DejaVuSans-30" transform="translate(127.246094 0)"/>
       <use xlink:href="#DejaVuSans-30" transform="translate(190.869141 0)"/>
      </g>
     </g>
    </g>
    <g id="ytick_3">
     <g id="line2d_23">
      <path d="M 108 243.241753 
L 777.6 243.241753 
" clip-path="url(#p1b25c71b18)" style="fill: none; stroke-dasharray: 5.12,1.28,0.8,1.28; stroke-dashoffset: 0; stroke: #b0b0b0; stroke-width: 0.8"/>
     </g>
     <g id="line2d_24">
      <g>
       <use xlink:href="#me8d00f7d0d" x="108" y="243.241753" style="fill: #a9a9a9; stroke: #a9a9a9; stroke-width: 0.8"/>
      </g>
     </g>
     <g id="text_12">
      <!-- 2000 -->
      <g style="fill: #a9a9a9" transform="translate(75.55 247.040972) scale(0.1 -0.1)">
       <use xlink:href="#DejaVuSans-32"/>
       <use xlink:href="#DejaVuSans-30" transform="translate(63.623047 0)"/>
       <use xlink:href="#DejaVuSans-30" transform="translate(127.246094 0)"/>
       <use xlink:href="#DejaVuSans-30" transform="translate(190.869141 0)"/>
      </g>
     </g>
    </g>
    <g id="ytick_4">
     <g id="line2d_25">
      <path d="M 108 210.946482 
L 777.6 210.946482 
" clip-path="url(#p1b25c71b18)" style="fill: none; stroke-dasharray: 5.12,1.28,0.8,1.28; stroke-dashoffset: 0; stroke: #b0b0b0; stroke-width: 0.8"/>
     </g>
     <g id="line2d_26">
      <g>
       <use xlink:href="#me8d00f7d0d" x="108" y="210.946482" style="fill: #a9a9a9; stroke: #a9a9a9; stroke-width: 0.8"/>
      </g>
     </g>
     <g id="text_13">
      <!-- 3000 -->
      <g style="fill: #a9a9a9" transform="translate(75.55 214.745701) scale(0.1 -0.1)">
       <use xlink:href="#DejaVuSans-33"/>
       <use xlink:href="#DejaVuSans-30" transform="translate(63.623047 0)"/>
       <use xlink:href="#DejaVuSans-30" transform="translate(127.246094 0)"/>
       <use xlink:href="#DejaVuSans-30" transform="translate(190.869141 0)"/>
      </g>
     </g>
    </g>
    <g id="ytick_5">
     <g id="line2d_27">
      <path d="M 108 178.651211 
L 777.6 178.651211 
" clip-path="url(#p1b25c71b18)" style="fill: none; stroke-dasharray: 5.12,1.28,0.8,1.28; stroke-dashoffset: 0; stroke: #b0b0b0; stroke-width: 0.8"/>
     </g>
     <g id="line2d_28">
      <g>
       <use xlink:href="#me8d00f7d0d" x="108" y="178.651211" style="fill: #a9a9a9; stroke: #a9a9a9; stroke-width: 0.8"/>
      </g>
     </g>
     <g id="text_14">
      <!-- 4000 -->
      <g style="fill: #a9a9a9" transform="translate(75.55 182.45043) scale(0.1 -0.1)">
       <use xlink:href="#DejaVuSans-34"/>
       <use xlink:href="#DejaVuSans-30" transform="translate(63.623047 0)"/>
       <use xlink:href="#DejaVuSans-30" transform="translate(127.246094 0)"/>
       <use xlink:href="#DejaVuSans-30" transform="translate(190.869141 0)"/>
      </g>
     </g>
    </g>
    <g id="ytick_6">
     <g id="line2d_29">
      <path d="M 108 146.35594 
L 777.6 146.35594 
" clip-path="url(#p1b25c71b18)" style="fill: none; stroke-dasharray: 5.12,1.28,0.8,1.28; stroke-dashoffset: 0; stroke: #b0b0b0; stroke-width: 0.8"/>
     </g>
     <g id="line2d_30">
      <g>
       <use xlink:href="#me8d00f7d0d" x="108" y="146.35594" style="fill: #a9a9a9; stroke: #a9a9a9; stroke-width: 0.8"/>
      </g>
     </g>
     <g id="text_15">
      <!-- 5000 -->
      <g style="fill: #a9a9a9" transform="translate(75.55 150.155159) scale(0.1 -0.1)">
       <use xlink:href="#DejaVuSans-35"/>
       <use xlink:href="#DejaVuSans-30" transform="translate(63.623047 0)"/>
       <use xlink:href="#DejaVuSans-30" transform="translate(127.246094 0)"/>
       <use xlink:href="#DejaVuSans-30" transform="translate(190.869141 0)"/>
      </g>
     </g>
    </g>
    <g id="ytick_7">
     <g id="line2d_31">
      <path d="M 108 114.060669 
L 777.6 114.060669 
" clip-path="url(#p1b25c71b18)" style="fill: none; stroke-dasharray: 5.12,1.28,0.8,1.28; stroke-dashoffset: 0; stroke: #b0b0b0; stroke-width: 0.8"/>
     </g>
     <g id="line2d_32">
      <g>
       <use xlink:href="#me8d00f7d0d" x="108" y="114.060669" style="fill: #a9a9a9; stroke: #a9a9a9; stroke-width: 0.8"/>
      </g>
     </g>
     <g id="text_16">
      <!-- 6000 -->
      <g style="fill: #a9a9a9" transform="translate(75.55 117.859888) scale(0.1 -0.1)">
       <defs>
        <path id="DejaVuSans-36" d="M 2113 2584 
Q 1688 2584 1439 2293 
Q 1191 2003 1191 1497 
Q 1191 994 1439 701 
Q 1688 409 2113 409 
Q 2538 409 2786 701 
Q 3034 994 3034 1497 
Q 3034 2003 2786 2293 
Q 2538 2584 2113 2584 
z
M 3366 4563 
L 3366 3988 
Q 3128 4100 2886 4159 
Q 2644 4219 2406 4219 
Q 1781 4219 1451 3797 
Q 1122 3375 1075 2522 
Q 1259 2794 1537 2939 
Q 1816 3084 2150 3084 
Q 2853 3084 3261 2657 
Q 3669 2231 3669 1497 
Q 3669 778 3244 343 
Q 2819 -91 2113 -91 
Q 1303 -91 875 529 
Q 447 1150 447 2328 
Q 447 3434 972 4092 
Q 1497 4750 2381 4750 
Q 2619 4750 2861 4703 
Q 3103 4656 3366 4563 
z
" transform="scale(0.015625)"/>
       </defs>
       <use xlink:href="#DejaVuSans-36"/>
       <use xlink:href="#DejaVuSans-30" transform="translate(63.623047 0)"/>
       <use xlink:href="#DejaVuSans-30" transform="translate(127.246094 0)"/>
       <use xlink:href="#DejaVuSans-30" transform="translate(190.869141 0)"/>
      </g>
     </g>
    </g>
    <g id="ytick_8">
     <g id="line2d_33">
      <path d="M 108 81.765398 
L 777.6 81.765398 
" clip-path="url(#p1b25c71b18)" style="fill: none; stroke-dasharray: 5.12,1.28,0.8,1.28; stroke-dashoffset: 0; stroke: #b0b0b0; stroke-width: 0.8"/>
     </g>
     <g id="line2d_34">
      <g>
       <use xlink:href="#me8d00f7d0d" x="108" y="81.765398" style="fill: #a9a9a9; stroke: #a9a9a9; stroke-width: 0.8"/>
      </g>
     </g>
     <g id="text_17">
      <!-- 7000 -->
      <g style="fill: #a9a9a9" transform="translate(75.55 85.564617) scale(0.1 -0.1)">
       <use xlink:href="#DejaVuSans-37"/>
       <use xlink:href="#DejaVuSans-30" transform="translate(63.623047 0)"/>
       <use xlink:href="#DejaVuSans-30" transform="translate(127.246094 0)"/>
       <use xlink:href="#DejaVuSans-30" transform="translate(190.869141 0)"/>
      </g>
     </g>
    </g>
    <g id="ytick_9">
     <g id="line2d_35">
      <path d="M 108 49.470127 
L 777.6 49.470127 
" clip-path="url(#p1b25c71b18)" style="fill: none; stroke-dasharray: 5.12,1.28,0.8,1.28; stroke-dashoffset: 0; stroke: #b0b0b0; stroke-width: 0.8"/>
     </g>
     <g id="line2d_36">
      <g>
       <use xlink:href="#me8d00f7d0d" x="108" y="49.470127" style="fill: #a9a9a9; stroke: #a9a9a9; stroke-width: 0.8"/>
      </g>
     </g>
     <g id="text_18">
      <!-- 8000 -->
      <g style="fill: #a9a9a9" transform="translate(75.55 53.269346) scale(0.1 -0.1)">
       <defs>
        <path id="DejaVuSans-38" d="M 2034 2216 
Q 1584 2216 1326 1975 
Q 1069 1734 1069 1313 
Q 1069 891 1326 650 
Q 1584 409 2034 409 
Q 2484 409 2743 651 
Q 3003 894 3003 1313 
Q 3003 1734 2745 1975 
Q 2488 2216 2034 2216 
z
M 1403 2484 
Q 997 2584 770 2862 
Q 544 3141 544 3541 
Q 544 4100 942 4425 
Q 1341 4750 2034 4750 
Q 2731 4750 3128 4425 
Q 3525 4100 3525 3541 
Q 3525 3141 3298 2862 
Q 3072 2584 2669 2484 
Q 3125 2378 3379 2068 
Q 3634 1759 3634 1313 
Q 3634 634 3220 271 
Q 2806 -91 2034 -91 
Q 1263 -91 848 271 
Q 434 634 434 1313 
Q 434 1759 690 2068 
Q 947 2378 1403 2484 
z
M 1172 3481 
Q 1172 3119 1398 2916 
Q 1625 2713 2034 2713 
Q 2441 2713 2670 2916 
Q 2900 3119 2900 3481 
Q 2900 3844 2670 4047 
Q 2441 4250 2034 4250 
Q 1625 4250 1398 4047 
Q 1172 3844 1172 3481 
z
" transform="scale(0.015625)"/>
       </defs>
       <use xlink:href="#DejaVuSans-38"/>
       <use xlink:href="#DejaVuSans-30" transform="translate(63.623047 0)"/>
       <use xlink:href="#DejaVuSans-30" transform="translate(127.246094 0)"/>
       <use xlink:href="#DejaVuSans-30" transform="translate(190.869141 0)"/>
      </g>
     </g>
    </g>
   </g>
   <g id="line2d_37">
    <path d="M 138.436364 307.735409 
L 140.97449 307.509343 
L 141.397511 307.315571 
L 143.089595 307.089504 
L 144.781679 306.734256 
L 145.627721 306.605075 
L 147.742826 306.411303 
L 148.588869 306.056055 
L 149.01189 305.47474 
L 149.434911 305.184083 
L 149.857932 304.215225 
L 150.280953 304.150634 
L 150.703974 303.795386 
L 151.550016 303.343253 
L 153.2421 301.922261 
L 154.934184 301.050288 
L 156.203247 300.436678 
L 156.626268 299.726182 
L 157.47231 299.080277 
L 157.895331 298.886505 
L 162.125542 298.2406 
L 162.548563 298.046828 
L 165.50971 297.788466 
L 167.201794 297.368627 
L 170.585962 296.884198 
L 171.008984 296.658131 
L 171.432005 296.593541 
L 172.278047 296.302884 
L 175.239194 295.786159 
L 176.085236 295.527797 
L 179.892425 294.881892 
L 180.738467 294.68812 
L 181.584509 294.655825 
L 183.276594 294.235986 
L 183.699615 293.622376 
L 184.968678 293.105652 
L 186.237741 292.750404 
L 186.660762 292.524337 
L 187.506804 292.36286 
L 189.198888 291.846136 
L 190.04493 291.781546 
L 190.890972 291.555479 
L 192.583056 291.103345 
L 193.006077 291.07105 
L 193.85212 290.651211 
L 194.275141 290.586621 
L 194.698162 290.360554 
L 199.351393 289.553172 
L 201.043477 289.036448 
L 201.466498 288.74579 
L 203.581603 288.035294 
L 204.427645 287.421684 
L 205.696709 287.163322 
L 211.195982 285.548558 
L 211.619003 285.483968 
L 213.311087 284.805767 
L 213.734108 284.741176 
L 214.58015 284.385928 
L 215.426192 284.353633 
L 216.695256 283.96609 
L 217.118277 283.96609 
L 217.541298 283.772318 
L 218.38734 283.675433 
L 218.810361 283.513956 
L 220.502445 283.449366 
L 221.348487 283.287889 
L 222.194529 282.835755 
L 223.463592 282.351326 
L 224.309634 281.899193 
L 225.155676 281.447059 
L 226.001718 281.156401 
L 226.424739 281.02722 
L 227.270781 280.478201 
L 227.693803 279.993772 
L 228.539845 278.63737 
L 228.962866 278.508189 
L 229.385887 278.508189 
L 231.077971 277.539331 
L 231.500992 277.442445 
L 231.924013 277.022607 
L 232.770055 276.667359 
L 233.616097 276.279815 
L 234.039118 275.763091 
L 234.462139 275.052595 
L 234.88516 274.761938 
L 235.308181 273.986851 
L 235.731202 273.502422 
L 238.269328 272.08143 
L 239.115371 271.370934 
L 239.538392 271.112572 
L 239.961413 270.498962 
L 240.384434 269.497809 
L 240.807455 268.851903 
L 241.230476 268.496655 
L 241.653497 268.302884 
L 245.037665 265.105652 
L 245.883707 264.29827 
L 248.421833 262.651211 
L 248.844854 262.489735 
L 250.536939 261.456286 
L 250.95996 261.262514 
L 253.075065 259.260208 
L 253.921107 258.90496 
L 254.767149 258.291349 
L 255.19017 258.032987 
L 255.613191 257.968397 
L 256.882254 257.225606 
L 257.305275 256.741176 
L 259.42038 255.546251 
L 259.843401 255.384775 
L 261.112464 254.480507 
L 267.45778 252.155248 
L 268.303822 251.347866 
L 269.572885 250.701961 
L 270.418927 250.152941 
L 271.264969 249.894579 
L 271.68799 249.603922 
L 272.111011 249.47474 
L 273.380075 248.602768 
L 275.49518 248.118339 
L 276.764243 247.343253 
L 278.033306 247.052595 
L 278.456327 246.955709 
L 279.72539 245.986851 
L 281.417474 245.502422 
L 281.840495 245.147174 
L 284.378622 244.242907 
L 285.224664 244.08143 
L 286.070706 243.726182 
L 289.031853 242.595848 
L 289.877895 242.466667 
L 291.146958 242.014533 
L 293.262063 240.948789 
L 295.80019 239.495502 
L 296.646232 239.269435 
L 297.915295 238.623529 
L 298.761337 238.462053 
L 299.607379 237.945329 
L 300.453421 237.719262 
L 301.722484 237.202537 
L 303.414568 236.976471 
L 304.26061 236.524337 
L 304.683631 236.136794 
L 305.106652 235.361707 
L 306.798736 234.877278 
L 308.0678 234.199077 
L 308.913842 233.90842 
L 310.182905 233.262514 
L 312.29801 232.390542 
L 313.144052 232.19677 
L 314.413115 231.550865 
L 314.836136 231.486275 
L 316.951241 230.420531 
L 317.797283 229.871511 
L 319.066347 229.613149 
L 321.181452 229.064129 
L 321.604473 228.708881 
L 322.450515 228.418224 
L 324.56562 227.546251 
L 324.988641 227.223299 
L 325.411662 227.061822 
L 326.257704 226.577393 
L 327.949788 226.028374 
L 328.79583 225.479354 
L 329.218851 225.02722 
L 329.641873 224.768858 
L 330.064894 224.671972 
L 330.910936 223.961476 
L 331.333957 223.896886 
L 331.756978 223.18639 
L 332.179999 222.992618 
L 332.60302 222.63737 
L 333.026041 222.57278 
L 333.872083 222.02376 
L 334.718125 221.733103 
L 335.141146 221.41015 
L 335.564167 221.248674 
L 337.256251 220.086044 
L 338.525314 219.440138 
L 339.371356 219.214072 
L 340.217398 218.729642 
L 340.640419 217.986851 
L 341.486462 217.340946 
L 341.909483 217.24406 
L 344.447609 215.984544 
L 345.293651 215.629296 
L 346.139693 215.015686 
L 347.408756 213.820761 
L 348.254798 213.304037 
L 348.677819 212.819608 
L 350.369903 211.624683 
L 351.215945 210.75271 
L 352.061987 210.462053 
L 352.90803 209.880738 
L 354.177093 209.202537 
L 354.600114 209.137947 
L 355.869177 208.427451 
L 356.715219 207.878431 
L 360.945429 206.263668 
L 361.36845 205.90842 
L 363.060534 205.230219 
L 363.483555 205.101038 
L 364.329598 204.552018 
L 365.17564 204.19677 
L 366.021682 203.58316 
L 366.867724 201.839216 
L 367.713766 200.805767 
L 368.982829 200.127566 
L 369.828871 199.772318 
L 370.251892 199.707728 
L 371.097934 199.320185 
L 372.790018 198.73887 
L 373.63606 198.254441 
L 374.482102 197.834602 
L 374.905124 197.705421 
L 377.44325 196.155248 
L 377.866271 195.670819 
L 379.135334 194.928028 
L 379.558355 194.766551 
L 380.404397 194.249827 
L 382.096481 193.313264 
L 382.519502 193.216378 
L 382.942523 192.86113 
L 385.90367 191.859977 
L 386.326692 191.537024 
L 387.172734 191.278662 
L 388.018776 190.923414 
L 388.441797 190.568166 
L 390.133881 189.954556 
L 390.979923 189.340946 
L 391.825965 188.985698 
L 392.672007 188.307497 
L 393.518049 188.049135 
L 393.94107 187.661592 
L 394.364091 187.597001 
L 395.210133 186.9188 
L 397.325238 185.659285 
L 398.171281 185.400923 
L 398.594302 185.142561 
L 399.017323 185.07797 
L 400.286386 184.367474 
L 401.97847 183.786159 
L 402.824512 183.656978 
L 403.247533 183.463206 
L 403.670554 183.398616 
L 404.516596 183.011073 
L 404.939617 182.978777 
L 406.631701 182.332872 
L 407.900764 181.396309 
L 408.323785 181.234833 
L 409.169828 180.750404 
L 409.592849 180.621223 
L 412.130975 179.167935 
L 412.553996 179.07105 
L 413.823059 178.295963 
L 415.092122 177.843829 
L 415.938164 177.553172 
L 417.630248 176.971857 
L 418.47629 176.6812 
L 420.168375 176.325952 
L 420.591396 176.13218 
L 421.437438 175.906113 
L 421.860459 175.712341 
L 422.28348 175.647751 
L 422.706501 175.421684 
L 423.552543 175.260208 
L 424.821606 174.775779 
L 426.090669 174.582007 
L 428.628795 174.097578 
L 429.897858 173.80692 
L 430.320879 173.613149 
L 431.166921 173.451672 
L 432.012964 173.225606 
L 432.859006 172.838062 
L 433.282027 172.676586 
L 433.705048 172.676586 
L 438.358279 171.223299 
L 438.7813 170.997232 
L 439.204321 170.997232 
L 440.050363 170.674279 
L 440.473384 170.222145 
L 443.011511 169.156401 
L 444.703595 168.575087 
L 445.126616 168.316724 
L 446.395679 167.929181 
L 447.241721 167.703114 
L 447.664742 167.412457 
L 448.087763 167.315571 
L 448.510784 166.928028 
L 449.779847 166.669666 
L 450.625889 166.282122 
L 451.04891 165.765398 
L 455.702142 164.731949 
L 456.125163 164.731949 
L 456.548184 164.538178 
L 458.240268 164.215225 
L 458.663289 164.021453 
L 460.355373 163.698501 
L 461.201415 163.343253 
L 462.047457 163.181776 
L 464.162562 162.632757 
L 465.854647 162.083737 
L 466.277668 161.986851 
L 466.700689 161.760784 
L 467.546731 161.534717 
L 468.392773 161.179469 
L 469.238815 160.856517 
L 469.661836 160.565859 
L 470.507878 160.307497 
L 473.469025 159.177163 
L 475.161109 158.983391 
L 478.545278 157.723875 
L 478.968299 157.400923 
L 479.39132 157.304037 
L 479.814341 157.07797 
L 480.237362 157.045675 
L 484.890593 155.334025 
L 487.005698 154.75271 
L 487.85174 154.332872 
L 489.120804 154.042215 
L 490.812888 152.621223 
L 492.504972 151.878431 
L 493.351014 151.490888 
L 495.88914 150.489735 
L 496.312161 150.199077 
L 498.427266 149.488581 
L 499.69633 148.74579 
L 500.119351 148.648904 
L 502.234456 147.486275 
L 503.503519 146.90496 
L 503.92654 146.582007 
L 504.772582 146.291349 
L 506.887687 145.19331 
L 508.15675 144.741176 
L 509.848834 144.030681 
L 511.117898 143.546251 
L 511.540919 143.384775 
L 512.386961 143.255594 
L 512.809982 142.964937 
L 514.502066 142.641984 
L 515.348108 142.286736 
L 517.040192 141.479354 
L 522.962487 138.831142 
L 524.23155 138.411303 
L 524.654571 138.120646 
L 525.500613 138.02376 
L 525.923634 137.733103 
L 526.769676 137.603922 
L 527.615718 137.184083 
L 528.038739 136.990311 
L 528.884781 136.764245 
L 529.730823 136.505882 
L 530.999886 136.021453 
L 532.268949 135.601615 
L 533.538013 135.310957 
L 535.230097 134.600461 
L 536.076139 134.148328 
L 537.768223 133.276355 
L 538.614265 133.082584 
L 539.037286 132.824221 
L 539.460307 132.727336 
L 540.72937 131.984544 
L 541.575412 131.629296 
L 550.881875 128.012226 
L 552.573959 127.204844 
L 556.80417 125.52549 
L 557.650212 125.105652 
L 558.073233 125.008766 
L 558.496254 124.782699 
L 560.188338 124.29827 
L 561.880422 122.877278 
L 562.303443 122.748097 
L 562.726464 122.489735 
L 563.995527 122.134487 
L 564.418548 121.811534 
L 564.841569 121.714648 
L 566.110632 120.939562 
L 566.533653 120.648904 
L 567.802717 120.164475 
L 568.225738 119.938408 
L 569.494801 119.647751 
L 571.609906 118.90496 
L 572.455948 118.646597 
L 573.725011 117.968397 
L 574.571053 117.548558 
L 575.417095 117.322491 
L 576.686158 116.708881 
L 580.916369 114.997232 
L 583.031474 113.963783 
L 583.877516 113.64083 
L 584.300537 113.253287 
L 585.146579 112.898039 
L 586.415642 112.445905 
L 586.838663 112.090657 
L 587.261684 112.058362 
L 588.107726 111.8 
L 588.953768 111.509343 
L 589.376789 111.315571 
L 589.79981 111.25098 
L 590.645853 110.895732 
L 591.914916 110.605075 
L 592.760958 110.120646 
L 593.183979 109.95917 
L 593.607 109.636217 
L 594.876063 109.313264 
L 595.299084 109.054902 
L 596.145126 108.828835 
L 597.414189 108.118339 
L 597.83721 108.086044 
L 599.106273 107.666205 
L 599.952315 107.601615 
L 600.375336 107.375548 
L 601.221378 107.149481 
L 601.6444 106.923414 
L 603.759505 106.503576 
L 604.605547 106.342099 
L 605.87461 105.85767 
L 607.143673 105.567013 
L 608.412736 104.888812 
L 608.835757 104.501269 
L 610.10482 103.726182 
L 610.527841 103.40323 
L 611.796904 102.983391 
L 612.642946 102.757324 
L 616.450136 101.07797 
L 618.14222 100.625836 
L 618.988262 100.238293 
L 619.411283 100.012226 
L 620.257325 99.753864 
L 620.680346 99.527797 
L 621.526388 99.366321 
L 624.910557 97.880738 
L 625.333578 97.816148 
L 626.602641 96.976471 
L 627.025662 96.91188 
L 628.717746 96.233679 
L 630.40983 95.813841 
L 630.832851 95.74925 
L 631.255872 95.555479 
L 631.678893 95.523183 
L 632.524935 95.232526 
L 632.947956 95.200231 
L 634.217019 94.715802 
L 635.909104 94.231373 
L 636.755146 93.585467 
L 638.44723 92.616609 
L 638.870251 92.519723 
L 639.293272 92.293656 
L 640.139314 92.002999 
L 640.562335 91.873818 
L 640.985356 91.51857 
L 642.254419 91.034141 
L 643.100461 90.549712 
L 643.523482 90.323645 
L 643.946503 89.936101 
L 646.061608 89.354787 
L 647.330672 88.773472 
L 648.176714 88.547405 
L 648.599735 88.321338 
L 649.022756 87.96609 
L 650.71484 87.513956 
L 651.137861 87.191003 
L 656.637134 85.156401 
L 657.483176 84.994925 
L 659.598282 84.316724 
L 660.444324 83.961476 
L 661.290366 83.638524 
L 662.136408 83.412457 
L 662.559429 83.218685 
L 662.98245 83.218685 
L 663.828492 82.863437 
L 664.674534 82.379008 
L 667.635681 81.377855 
L 669.327765 80.79654 
L 670.596829 80.505882 
L 671.865892 80.086044 
L 672.288913 79.989158 
L 672.711934 79.698501 
L 673.557976 79.504729 
L 675.25006 79.0203 
L 675.673081 78.988005 
L 676.519123 78.600461 
L 679.48027 77.85767 
L 680.326312 77.502422 
L 684.556523 76.533564 
L 685.825586 75.855363 
L 687.094649 75.46782 
L 693.016944 73.304037 
L 693.862986 73.045675 
L 694.709028 72.625836 
L 695.132049 72.270588 
L 695.978091 72.012226 
L 696.401112 71.753864 
L 697.247154 71.656978 
L 700.208301 70.817301 
L 701.477364 70.558939 
L 702.746427 70.235986 
L 703.59247 70.009919 
L 704.861533 69.331719 
L 706.553617 68.685813 
L 707.399659 68.233679 
L 707.82268 68.201384 
L 708.668722 67.781546 
L 711.629869 66.941869 
L 712.898932 66.748097 
L 713.744974 66.457439 
L 715.014038 66.069896 
L 718.821227 65.004152 
L 719.667269 64.778085 
L 720.09029 64.6812 
L 720.513311 64.422837 
L 721.359353 64.261361 
L 722.205395 64.164475 
L 722.628416 63.938408 
L 723.051437 63.906113 
L 724.3205 63.260208 
L 725.589563 62.96955 
L 726.435606 62.582007 
L 727.281648 62.291349 
L 728.12769 62.065283 
L 728.973732 61.710035 
L 729.819774 61.419377 
L 731.511858 60.934948 
L 732.3579 60.870358 
L 733.203942 60.5797 
L 733.626963 60.418224 
L 734.473005 60.289043 
L 736.165089 59.546251 
L 736.58811 59.481661 
L 737.011131 59.255594 
L 737.857174 59.094118 
L 738.703216 59.029527 
L 741.241342 58.351326 
L 742.087384 57.996078 
L 742.510405 57.931488 
L 742.933426 57.673126 
L 743.779468 56.930334 
L 746.740615 55.8 
L 747.163636 55.8 
L 747.163636 55.8 
" clip-path="url(#p1b25c71b18)" style="fill: none; stroke: #1f77b4; stroke-width: 1.5; stroke-linecap: square"/>
   </g>
   <g id="line2d_38">
    <path d="M 138.859385 307.8 
L 142.666574 307.703114 
L 146.050742 307.541638 
L 147.742826 307.541638 
L 148.165847 307.412457 
L 150.280953 307.315571 
L 152.819079 307.024913 
L 155.357205 306.928028 
L 156.203247 306.831142 
L 159.164394 306.701961 
L 162.125542 306.605075 
L 164.240647 306.540484 
L 169.73992 306.443599 
L 171.855026 306.379008 
L 175.662215 306.282122 
L 177.354299 306.249827 
L 181.584509 306.152941 
L 183.276594 305.991465 
L 184.968678 305.95917 
L 187.506804 305.862284 
L 189.198888 305.829988 
L 191.313993 305.765398 
L 193.006077 305.603922 
L 196.813267 305.507036 
L 197.659309 305.442445 
L 199.351393 305.345559 
L 201.889519 305.248674 
L 203.581603 305.151788 
L 211.195982 304.667359 
L 214.157129 304.570473 
L 215.426192 304.441292 
L 217.541298 304.344406 
L 221.771508 304.118339 
L 226.001718 304.053749 
L 227.693803 303.859977 
L 229.808908 303.763091 
L 234.039118 303.343253 
L 236.577244 303.0203 
L 238.269328 302.955709 
L 241.653497 302.503576 
L 244.191623 302.438985 
L 245.460686 302.309804 
L 246.729749 302.212918 
L 258.574338 301.276355 
L 259.42038 301.114879 
L 261.958507 301.017993 
L 268.726843 300.598155 
L 271.68799 300.501269 
L 273.380075 300.307497 
L 275.49518 300.210611 
L 278.033306 300.113725 
L 280.148411 300.01684 
L 281.840495 299.984544 
L 283.9556 299.919954 
L 284.801643 299.790773 
L 290.723937 299.693887 
L 291.569979 299.597001 
L 296.646232 299.500115 
L 300.453421 299.306344 
L 303.414568 299.209458 
L 305.106652 299.015686 
L 308.0678 298.9188 
L 308.913842 298.789619 
L 311.028947 298.725029 
L 315.259157 298.660438 
L 316.951241 298.498962 
L 318.643326 298.466667 
L 319.912389 298.369781 
L 321.604473 298.208304 
L 325.834683 297.982238 
L 330.064894 297.885352 
L 333.872083 297.69158 
L 335.141146 297.659285 
L 335.987188 297.530104 
L 338.102293 297.433218 
L 338.948335 297.368627 
L 339.794377 297.304037 
L 340.640419 297.239446 
L 344.87063 297.142561 
L 356.715219 296.335179 
L 359.253345 296.238293 
L 361.36845 296.173702 
L 367.290745 296.076817 
L 368.136787 295.947636 
L 374.059081 295.85075 
L 378.289292 295.624683 
L 379.135334 295.592388 
L 379.981376 295.495502 
L 382.096481 295.398616 
L 384.211586 295.334025 
L 386.326692 295.23714 
L 388.441797 295.172549 
L 392.248986 295.075663 
L 394.787112 294.978777 
L 400.709407 294.881892 
L 405.362638 294.623529 
L 407.054722 294.558939 
L 408.323785 294.462053 
L 414.24608 294.365167 
L 416.784206 294.268281 
L 424.398585 294.171396 
L 426.090669 294.1391 
L 431.166921 294.07451 
L 432.012964 294.009919 
L 437.935258 293.913033 
L 439.627342 293.880738 
L 450.625889 293.783852 
L 453.164015 293.686967 
L 470.930899 293.590081 
L 473.046004 293.52549 
L 484.044551 293.4609 
L 484.890593 293.396309 
L 487.005698 293.331719 
L 488.274762 293.202537 
L 490.812888 293.105652 
L 493.774035 292.976471 
L 497.581224 292.879585 
L 499.69633 292.814994 
L 502.657477 292.718108 
L 506.041645 292.556632 
L 508.15675 292.459746 
L 509.848834 292.427451 
L 513.656024 292.330565 
L 515.348108 292.29827 
L 520.847381 292.201384 
L 522.539466 292.169089 
L 524.654571 292.072203 
L 527.192697 291.975317 
L 530.153844 291.910727 
L 530.999886 291.846136 
L 541.152391 291.74925 
L 545.382602 291.523183 
L 548.343749 291.426298 
L 552.99698 291.167935 
L 555.958127 291.07105 
L 557.650212 291.038754 
L 560.611359 290.941869 
L 562.726464 290.715802 
L 566.956674 290.618916 
L 567.802717 290.52203 
L 572.032927 290.425144 
L 574.148032 290.360554 
L 578.801264 290.328258 
L 579.647306 290.231373 
L 584.300537 290.134487 
L 585.146579 290.069896 
L 594.453042 289.97301 
L 596.991168 289.876125 
L 603.336484 289.779239 
L 605.028568 289.746943 
L 608.835757 289.682353 
L 609.681799 289.585467 
L 615.181073 289.488581 
L 617.296178 289.423991 
L 624.910557 289.327105 
L 626.17962 289.230219 
L 627.448683 289.133333 
L 628.717746 289.036448 
L 635.063061 288.939562 
L 637.601188 288.842676 
L 649.022756 288.74579 
L 652.829945 288.552018 
L 657.906197 288.455133 
L 658.75224 288.390542 
L 665.097555 288.325952 
L 665.943597 288.261361 
L 670.596829 288.164475 
L 672.288913 288.13218 
L 679.48027 288.035294 
L 680.326312 287.970704 
L 687.940691 287.873818 
L 689.632775 287.841522 
L 693.439965 287.744637 
L 696.824133 287.58316 
L 701.477364 287.486275 
L 704.438512 287.357093 
L 708.245701 287.260208 
L 709.091743 287.195617 
L 717.552164 287.098731 
L 719.667269 287.034141 
L 722.205395 286.937255 
L 724.743521 286.840369 
L 737.434153 286.743483 
L 740.3953 286.614302 
L 745.471552 286.517416 
L 747.163636 286.485121 
L 747.163636 286.485121 
" clip-path="url(#p1b25c71b18)" style="fill: none; stroke: #ff7f0e; stroke-width: 1.5; stroke-linecap: square"/>
   </g>
   <g id="patch_3">
    <path d="M 108 320.4 
L 108 43.2 
" style="fill: none; stroke: #a9a9a9; stroke-width: 0.8; stroke-linejoin: miter; stroke-linecap: square"/>
   </g>
   <g id="patch_4">
    <path d="M 777.6 320.4 
L 777.6 43.2 
" style="fill: none"/>
   </g>
   <g id="patch_5">
    <path d="M 108 320.4 
L 777.6 320.4 
" style="fill: none; stroke: #a9a9a9; stroke-width: 0.8; stroke-linejoin: miter; stroke-linecap: square"/>
   </g>
   <g id="patch_6">
    <path d="M 108 43.2 
L 777.6 43.2 
" style="fill: none"/>
   </g>
   <g id="text_19">
    <!-- get_subscribe history -->
    <g style="fill: #a9a9a9" transform="translate(378.6075 37.2) scale(0.12 -0.12)">
     <defs>
      <path id="DejaVuSans-67" d="M 2906 1791 
Q 2906 2416 2648 2759 
Q 2391 3103 1925 3103 
Q 1463 3103 1205 2759 
Q 947 2416 947 1791 
Q 947 1169 1205 825 
Q 1463 481 1925 481 
Q 2391 481 2648 825 
Q 2906 1169 2906 1791 
z
M 3481 434 
Q 3481 -459 3084 -895 
Q 2688 -1331 1869 -1331 
Q 1566 -1331 1297 -1286 
Q 1028 -1241 775 -1147 
L 775 -588 
Q 1028 -725 1275 -790 
Q 1522 -856 1778 -856 
Q 2344 -856 2625 -561 
Q 2906 -266 2906 331 
L 2906 616 
Q 2728 306 2450 153 
Q 2172 0 1784 0 
Q 1141 0 747 490 
Q 353 981 353 1791 
Q 353 2603 747 3093 
Q 1141 3584 1784 3584 
Q 2172 3584 2450 3431 
Q 2728 3278 2906 2969 
L 2906 3500 
L 3481 3500 
L 3481 434 
z
" transform="scale(0.015625)"/>
      <path id="DejaVuSans-65" d="M 3597 1894 
L 3597 1613 
L 953 1613 
Q 991 1019 1311 708 
Q 1631 397 2203 397 
Q 2534 397 2845 478 
Q 3156 559 3463 722 
L 3463 178 
Q 3153 47 2828 -22 
Q 2503 -91 2169 -91 
Q 1331 -91 842 396 
Q 353 884 353 1716 
Q 353 2575 817 3079 
Q 1281 3584 2069 3584 
Q 2775 3584 3186 3129 
Q 3597 2675 3597 1894 
z
M 3022 2063 
Q 3016 2534 2758 2815 
Q 2500 3097 2075 3097 
Q 1594 3097 1305 2825 
Q 1016 2553 972 2059 
L 3022 2063 
z
" transform="scale(0.015625)"/>
      <path id="DejaVuSans-74" d="M 1172 4494 
L 1172 3500 
L 2356 3500 
L 2356 3053 
L 1172 3053 
L 1172 1153 
Q 1172 725 1289 603 
Q 1406 481 1766 481 
L 2356 481 
L 2356 0 
L 1766 0 
Q 1100 0 847 248 
Q 594 497 594 1153 
L 594 3053 
L 172 3053 
L 172 3500 
L 594 3500 
L 594 4494 
L 1172 4494 
z
" transform="scale(0.015625)"/>
      <path id="DejaVuSans-5f" d="M 3263 -1063 
L 3263 -1509 
L -63 -1509 
L -63 -1063 
L 3263 -1063 
z
" transform="scale(0.015625)"/>
      <path id="DejaVuSans-73" d="M 2834 3397 
L 2834 2853 
Q 2591 2978 2328 3040 
Q 2066 3103 1784 3103 
Q 1356 3103 1142 2972 
Q 928 2841 928 2578 
Q 928 2378 1081 2264 
Q 1234 2150 1697 2047 
L 1894 2003 
Q 2506 1872 2764 1633 
Q 3022 1394 3022 966 
Q 3022 478 2636 193 
Q 2250 -91 1575 -91 
Q 1294 -91 989 -36 
Q 684 19 347 128 
L 347 722 
Q 666 556 975 473 
Q 1284 391 1588 391 
Q 1994 391 2212 530 
Q 2431 669 2431 922 
Q 2431 1156 2273 1281 
Q 2116 1406 1581 1522 
L 1381 1569 
Q 847 1681 609 1914 
Q 372 2147 372 2553 
Q 372 3047 722 3315 
Q 1072 3584 1716 3584 
Q 2034 3584 2315 3537 
Q 2597 3491 2834 3397 
z
" transform="scale(0.015625)"/>
      <path id="DejaVuSans-75" d="M 544 1381 
L 544 3500 
L 1119 3500 
L 1119 1403 
Q 1119 906 1312 657 
Q 1506 409 1894 409 
Q 2359 409 2629 706 
Q 2900 1003 2900 1516 
L 2900 3500 
L 3475 3500 
L 3475 0 
L 2900 0 
L 2900 538 
Q 2691 219 2414 64 
Q 2138 -91 1772 -91 
Q 1169 -91 856 284 
Q 544 659 544 1381 
z
M 1991 3584 
L 1991 3584 
z
" transform="scale(0.015625)"/>
      <path id="DejaVuSans-62" d="M 3116 1747 
Q 3116 2381 2855 2742 
Q 2594 3103 2138 3103 
Q 1681 3103 1420 2742 
Q 1159 2381 1159 1747 
Q 1159 1113 1420 752 
Q 1681 391 2138 391 
Q 2594 391 2855 752 
Q 3116 1113 3116 1747 
z
M 1159 2969 
Q 1341 3281 1617 3432 
Q 1894 3584 2278 3584 
Q 2916 3584 3314 3078 
Q 3713 2572 3713 1747 
Q 3713 922 3314 415 
Q 2916 -91 2278 -91 
Q 1894 -91 1617 61 
Q 1341 213 1159 525 
L 1159 0 
L 581 0 
L 581 4863 
L 1159 4863 
L 1159 2969 
z
" transform="scale(0.015625)"/>
      <path id="DejaVuSans-63" d="M 3122 3366 
L 3122 2828 
Q 2878 2963 2633 3030 
Q 2388 3097 2138 3097 
Q 1578 3097 1268 2742 
Q 959 2388 959 1747 
Q 959 1106 1268 751 
Q 1578 397 2138 397 
Q 2388 397 2633 464 
Q 2878 531 3122 666 
L 3122 134 
Q 2881 22 2623 -34 
Q 2366 -91 2075 -91 
Q 1284 -91 818 406 
Q 353 903 353 1747 
Q 353 2603 823 3093 
Q 1294 3584 2113 3584 
Q 2378 3584 2631 3529 
Q 2884 3475 3122 3366 
z
" transform="scale(0.015625)"/>
      <path id="DejaVuSans-72" d="M 2631 2963 
Q 2534 3019 2420 3045 
Q 2306 3072 2169 3072 
Q 1681 3072 1420 2755 
Q 1159 2438 1159 1844 
L 1159 0 
L 581 0 
L 581 3500 
L 1159 3500 
L 1159 2956 
Q 1341 3275 1631 3429 
Q 1922 3584 2338 3584 
Q 2397 3584 2469 3576 
Q 2541 3569 2628 3553 
L 2631 2963 
z
" transform="scale(0.015625)"/>
      <path id="DejaVuSans-69" d="M 603 3500 
L 1178 3500 
L 1178 0 
L 603 0 
L 603 3500 
z
M 603 4863 
L 1178 4863 
L 1178 4134 
L 603 4134 
L 603 4863 
z
" transform="scale(0.015625)"/>
      <path id="DejaVuSans-20" transform="scale(0.015625)"/>
      <path id="DejaVuSans-68" d="M 3513 2113 
L 3513 0 
L 2938 0 
L 2938 2094 
Q 2938 2591 2744 2837 
Q 2550 3084 2163 3084 
Q 1697 3084 1428 2787 
Q 1159 2491 1159 1978 
L 1159 0 
L 581 0 
L 581 4863 
L 1159 4863 
L 1159 2956 
Q 1366 3272 1645 3428 
Q 1925 3584 2291 3584 
Q 2894 3584 3203 3211 
Q 3513 2838 3513 2113 
z
" transform="scale(0.015625)"/>
      <path id="DejaVuSans-6f" d="M 1959 3097 
Q 1497 3097 1228 2736 
Q 959 2375 959 1747 
Q 959 1119 1226 758 
Q 1494 397 1959 397 
Q 2419 397 2687 759 
Q 2956 1122 2956 1747 
Q 2956 2369 2687 2733 
Q 2419 3097 1959 3097 
z
M 1959 3584 
Q 2709 3584 3137 3096 
Q 3566 2609 3566 1747 
Q 3566 888 3137 398 
Q 2709 -91 1959 -91 
Q 1206 -91 779 398 
Q 353 888 353 1747 
Q 353 2609 779 3096 
Q 1206 3584 1959 3584 
z
" transform="scale(0.015625)"/>
      <path id="DejaVuSans-79" d="M 2059 -325 
Q 1816 -950 1584 -1140 
Q 1353 -1331 966 -1331 
L 506 -1331 
L 506 -850 
L 844 -850 
Q 1081 -850 1212 -737 
Q 1344 -625 1503 -206 
L 1606 56 
L 191 3500 
L 800 3500 
L 1894 763 
L 2988 3500 
L 3597 3500 
L 2059 -325 
z
" transform="scale(0.015625)"/>
     </defs>
     <use xlink:href="#DejaVuSans-67"/>
     <use xlink:href="#DejaVuSans-65" transform="translate(63.476562 0)"/>
     <use xlink:href="#DejaVuSans-74" transform="translate(125 0)"/>
     <use xlink:href="#DejaVuSans-5f" transform="translate(164.208984 0)"/>
     <use xlink:href="#DejaVuSans-73" transform="translate(214.208984 0)"/>
     <use xlink:href="#DejaVuSans-75" transform="translate(266.308594 0)"/>
     <use xlink:href="#DejaVuSans-62" transform="translate(329.6875 0)"/>
     <use xlink:href="#DejaVuSans-73" transform="translate(393.164062 0)"/>
     <use xlink:href="#DejaVuSans-63" transform="translate(445.263672 0)"/>
     <use xlink:href="#DejaVuSans-72" transform="translate(500.244141 0)"/>
     <use xlink:href="#DejaVuSans-69" transform="translate(541.357422 0)"/>
     <use xlink:href="#DejaVuSans-62" transform="translate(569.140625 0)"/>
     <use xlink:href="#DejaVuSans-65" transform="translate(632.617188 0)"/>
     <use xlink:href="#DejaVuSans-20" transform="translate(694.140625 0)"/>
     <use xlink:href="#DejaVuSans-68" transform="translate(725.927734 0)"/>
     <use xlink:href="#DejaVuSans-69" transform="translate(789.306641 0)"/>
     <use xlink:href="#DejaVuSans-73" transform="translate(817.089844 0)"/>
     <use xlink:href="#DejaVuSans-74" transform="translate(869.189453 0)"/>
     <use xlink:href="#DejaVuSans-6f" transform="translate(908.398438 0)"/>
     <use xlink:href="#DejaVuSans-72" transform="translate(969.580078 0)"/>
     <use xlink:href="#DejaVuSans-79" transform="translate(1010.693359 0)"/>
    </g>
   </g>
   <g id="legend_1">
    <g id="line2d_39">
     <path d="M 815.08 328.498438 
L 825.08 328.498438 
L 835.08 328.498438 
" style="fill: none; stroke: #1f77b4; stroke-width: 1.5; stroke-linecap: square"/>
    </g>
    <g id="text_20">
     <!-- star -->
     <g style="fill: #a9a9a9" transform="translate(843.08 331.998438) scale(0.1 -0.1)">
      <defs>
       <path id="DejaVuSans-61" d="M 2194 1759 
Q 1497 1759 1228 1600 
Q 959 1441 959 1056 
Q 959 750 1161 570 
Q 1363 391 1709 391 
Q 2188 391 2477 730 
Q 2766 1069 2766 1631 
L 2766 1759 
L 2194 1759 
z
M 3341 1997 
L 3341 0 
L 2766 0 
L 2766 531 
Q 2569 213 2275 61 
Q 1981 -91 1556 -91 
Q 1019 -91 701 211 
Q 384 513 384 1019 
Q 384 1609 779 1909 
Q 1175 2209 1959 2209 
L 2766 2209 
L 2766 2266 
Q 2766 2663 2505 2880 
Q 2244 3097 1772 3097 
Q 1472 3097 1187 3025 
Q 903 2953 641 2809 
L 641 3341 
Q 956 3463 1253 3523 
Q 1550 3584 1831 3584 
Q 2591 3584 2966 3190 
Q 3341 2797 3341 1997 
z
" transform="scale(0.015625)"/>
      </defs>
      <use xlink:href="#DejaVuSans-73"/>
      <use xlink:href="#DejaVuSans-74" transform="translate(52.099609 0)"/>
      <use xlink:href="#DejaVuSans-61" transform="translate(91.308594 0)"/>
      <use xlink:href="#DejaVuSans-72" transform="translate(152.587891 0)"/>
     </g>
    </g>
    <g id="line2d_40">
     <path d="M 815.08 343.176562 
L 825.08 343.176562 
L 835.08 343.176562 
" style="fill: none; stroke: #ff7f0e; stroke-width: 1.5; stroke-linecap: square"/>
    </g>
    <g id="text_21">
     <!-- fork -->
     <g style="fill: #a9a9a9" transform="translate(843.08 346.676562) scale(0.1 -0.1)">
      <defs>
       <path id="DejaVuSans-66" d="M 2375 4863 
L 2375 4384 
L 1825 4384 
Q 1516 4384 1395 4259 
Q 1275 4134 1275 3809 
L 1275 3500 
L 2222 3500 
L 2222 3053 
L 1275 3053 
L 1275 0 
L 697 0 
L 697 3053 
L 147 3053 
L 147 3500 
L 697 3500 
L 697 3744 
Q 697 4328 969 4595 
Q 1241 4863 1831 4863 
L 2375 4863 
z
" transform="scale(0.015625)"/>
       <path id="DejaVuSans-6b" d="M 581 4863 
L 1159 4863 
L 1159 1991 
L 2875 3500 
L 3609 3500 
L 1753 1863 
L 3688 0 
L 2938 0 
L 1159 1709 
L 1159 0 
L 581 0 
L 581 4863 
z
" transform="scale(0.015625)"/>
      </defs>
      <use xlink:href="#DejaVuSans-66"/>
      <use xlink:href="#DejaVuSans-6f" transform="translate(35.205078 0)"/>
      <use xlink:href="#DejaVuSans-72" transform="translate(96.386719 0)"/>
      <use xlink:href="#DejaVuSans-6b" transform="translate(137.5 0)"/>
     </g>
    </g>
   </g>
  </g>
 </g>
 <defs>
  <clipPath id="p1b25c71b18">
   <rect x="108" y="43.2" width="669.6" height="277.2"/>
  </clipPath>
 </defs>
</svg>
