<?xml version="1.0" encoding="utf-8" standalone="no"?>
<!DOCTYPE svg PUBLIC "-//W3C//DTD SVG 1.1//EN"
  "http://www.w3.org/Graphics/SVG/1.1/DTD/svg11.dtd">
<svg xmlns:xlink="http://www.w3.org/1999/xlink" width="864pt" height="360pt" viewBox="0 0 864 360" xmlns="http://www.w3.org/2000/svg" version="1.1">
 <metadata>
  <rdf:RDF xmlns:dc="http://purl.org/dc/elements/1.1/" xmlns:cc="http://creativecommons.org/ns#" xmlns:rdf="http://www.w3.org/1999/02/22-rdf-syntax-ns#">
   <cc:Work>
    <dc:type rdf:resource="http://purl.org/dc/dcmitype/StillImage"/>
    <dc:date>2026-02-25T08:24:01.359503</dc:date>
    <dc:format>image/svg+xml</dc:format>
    <dc:creator>
     <cc:Agent>
      <dc:title>Matplotlib v3.10.8, https://matplotlib.org/</dc:title>
     </cc:Agent>
    </dc:creator>
   </cc:Work>
  </rdf:RDF>
 </metadata>
 <defs>
  <style type="text/css">*{stroke-linejoin: round; stroke-linecap: butt}</style>
 </defs>
 <g id="figure_1">
  <g id="patch_1">
   <path d="M 0 360 
L 864 360 
L 864 0 
L 0 0 
L 0 360 
z
" style="fill: none; opacity: 0"/>
  </g>
  <g id="axes_1">
   <g id="patch_2">
    <path d="M 108 320.4 
L 777.6 320.4 
L 777.6 43.2 
L 108 43.2 
L 108 320.4 
z
" style="fill: none; opacity: 0"/>
   </g>
   <g id="matplotlib.axis_1">
    <g id="xtick_1">
     <g id="line2d_1">
      <path d="M 196.877086 320.4 
L 196.877086 43.2 
" clip-path="url(#pc0e180a6d4)" style="fill: none; stroke-dasharray: 5.12,1.28,0.8,1.28; stroke-dashoffset: 0; stroke: #b0b0b0; stroke-width: 0.8"/>
     </g>
     <g id="line2d_2">
      <defs>
       <path id="m4dfdcee000" d="M 0 0 
L 0 3.5 
" style="stroke: #a9a9a9; stroke-width: 0.8"/>
      </defs>
      <g>
       <use xlink:href="#m4dfdcee000" x="196.877086" y="320.4" style="fill: #a9a9a9; stroke: #a9a9a9; stroke-width: 0.8"/>
      </g>
     </g>
     <g id="text_1">
      <!-- 2022 -->
      <g style="fill: #a9a9a9" transform="translate(184.152086 334.998438) scale(0.1 -0.1)">
       <defs>
        <path id="DejaVuSans-32" d="M 1228 531 
L 3431 531 
L 3431 0 
L 469 0 
L 469 531 
Q 828 903 1448 1529 
Q 2069 2156 2228 2338 
Q 2531 2678 2651 2914 
Q 2772 3150 2772 3378 
Q 2772 3750 2511 3984 
Q 2250 4219 1831 4219 
Q 1534 4219 1204 4116 
Q 875 4013 500 3803 
L 500 4441 
Q 881 4594 1212 4672 
Q 1544 4750 1819 4750 
Q 2544 4750 2975 4387 
Q 3406 4025 3406 3419 
Q 3406 3131 3298 2873 
Q 3191 2616 2906 2266 
Q 2828 2175 2409 1742 
Q 1991 1309 1228 531 
z
" transform="scale(0.015625)"/>
        <path id="DejaVuSans-30" d="M 2034 4250 
Q 1547 4250 1301 3770 
Q 1056 3291 1056 2328 
Q 1056 1369 1301 889 
Q 1547 409 2034 409 
Q 2525 409 2770 889 
Q 3016 1369 3016 2328 
Q 3016 3291 2770 3770 
Q 2525 4250 2034 4250 
z
M 2034 4750 
Q 2819 4750 3233 4129 
Q 3647 3509 3647 2328 
Q 3647 1150 3233 529 
Q 2819 -91 2034 -91 
Q 1250 -91 836 529 
Q 422 1150 422 2328 
Q 422 3509 836 4129 
Q 1250 4750 2034 4750 
z
" transform="scale(0.015625)"/>
       </defs>
       <use xlink:href="#DejaVuSans-32"/>
       <use xlink:href="#DejaVuSans-30" transform="translate(63.623047 0)"/>
       <use xlink:href="#DejaVuSans-32" transform="translate(127.246094 0)"/>
       <use xlink:href="#DejaVuSans-32" transform="translate(190.869141 0)"/>
      </g>
     </g>
    </g>
    <g id="xtick_2">
     <g id="line2d_3">
      <path d="M 329.366921 320.4 
L 329.366921 43.2 
" clip-path="url(#pc0e180a6d4)" style="fill: none; stroke-dasharray: 5.12,1.28,0.8,1.28; stroke-dashoffset: 0; stroke: #b0b0b0; stroke-width: 0.8"/>
     </g>
     <g id="line2d_4">
      <g>
       <use xlink:href="#m4dfdcee000" x="329.366921" y="320.4" style="fill: #a9a9a9; stroke: #a9a9a9; stroke-width: 0.8"/>
      </g>
     </g>
     <g id="text_2">
      <!-- 2023 -->
      <g style="fill: #a9a9a9" transform="translate(316.641921 334.998438) scale(0.1 -0.1)">
       <defs>
        <path id="DejaVuSans-33" d="M 2597 2516 
Q 3050 2419 3304 2112 
Q 3559 1806 3559 1356 
Q 3559 666 3084 287 
Q 2609 -91 1734 -91 
Q 1441 -91 1130 -33 
Q 819 25 488 141 
L 488 750 
Q 750 597 1062 519 
Q 1375 441 1716 441 
Q 2309 441 2620 675 
Q 2931 909 2931 1356 
Q 2931 1769 2642 2001 
Q 2353 2234 1838 2234 
L 1294 2234 
L 1294 2753 
L 1863 2753 
Q 2328 2753 2575 2939 
Q 2822 3125 2822 3475 
Q 2822 3834 2567 4026 
Q 2313 4219 1838 4219 
Q 1578 4219 1281 4162 
Q 984 4106 628 3988 
L 628 4550 
Q 988 4650 1302 4700 
Q 1616 4750 1894 4750 
Q 2613 4750 3031 4423 
Q 3450 4097 3450 3541 
Q 3450 3153 3228 2886 
Q 3006 2619 2597 2516 
z
" transform="scale(0.015625)"/>
       </defs>
       <use xlink:href="#DejaVuSans-32"/>
       <use xlink:href="#DejaVuSans-30" transform="translate(63.623047 0)"/>
       <use xlink:href="#DejaVuSans-32" transform="translate(127.246094 0)"/>
       <use xlink:href="#DejaVuSans-33" transform="translate(190.869141 0)"/>
      </g>
     </g>
    </g>
    <g id="xtick_3">
     <g id="line2d_5">
      <path d="M 461.856757 320.4 
L 461.856757 43.2 
" clip-path="url(#pc0e180a6d4)" style="fill: none; stroke-dasharray: 5.12,1.28,0.8,1.28; stroke-dashoffset: 0; stroke: #b0b0b0; stroke-width: 0.8"/>
     </g>
     <g id="line2d_6">
      <g>
       <use xlink:href="#m4dfdcee000" x="461.856757" y="320.4" style="fill: #a9a9a9; stroke: #a9a9a9; stroke-width: 0.8"/>
      </g>
     </g>
     <g id="text_3">
      <!-- 2024 -->
      <g style="fill: #a9a9a9" transform="translate(449.131757 334.998438) scale(0.1 -0.1)">
       <defs>
        <path id="DejaVuSans-34" d="M 2419 4116 
L 825 1625 
L 2419 1625 
L 2419 4116 
z
M 2253 4666 
L 3047 4666 
L 3047 1625 
L 3713 1625 
L 3713 1100 
L 3047 1100 
L 3047 0 
L 2419 0 
L 2419 1100 
L 313 1100 
L 313 1709 
L 2253 4666 
z
" transform="scale(0.015625)"/>
       </defs>
       <use xlink:href="#DejaVuSans-32"/>
       <use xlink:href="#DejaVuSans-30" transform="translate(63.623047 0)"/>
       <use xlink:href="#DejaVuSans-32" transform="translate(127.246094 0)"/>
       <use xlink:href="#DejaVuSans-34" transform="translate(190.869141 0)"/>
      </g>
     </g>
    </g>
    <g id="xtick_4">
     <g id="line2d_7">
      <path d="M 594.709579 320.4 
L 594.709579 43.2 
" clip-path="url(#pc0e180a6d4)" style="fill: none; stroke-dasharray: 5.12,1.28,0.8,1.28; stroke-dashoffset: 0; stroke: #b0b0b0; stroke-width: 0.8"/>
     </g>
     <g id="line2d_8">
      <g>
       <use xlink:href="#m4dfdcee000" x="594.709579" y="320.4" style="fill: #a9a9a9; stroke: #a9a9a9; stroke-width: 0.8"/>
      </g>
     </g>
     <g id="text_4">
      <!-- 2025 -->
      <g style="fill: #a9a9a9" transform="translate(581.984579 334.998438) scale(0.1 -0.1)">
       <defs>
        <path id="DejaVuSans-35" d="M 691 4666 
L 3169 4666 
L 3169 4134 
L 1269 4134 
L 1269 2991 
Q 1406 3038 1543 3061 
Q 1681 3084 1819 3084 
Q 2600 3084 3056 2656 
Q 3513 2228 3513 1497 
Q 3513 744 3044 326 
Q 2575 -91 1722 -91 
Q 1428 -91 1123 -41 
Q 819 9 494 109 
L 494 744 
Q 775 591 1075 516 
Q 1375 441 1709 441 
Q 2250 441 2565 725 
Q 2881 1009 2881 1497 
Q 2881 1984 2565 2268 
Q 2250 2553 1709 2553 
Q 1456 2553 1204 2497 
Q 953 2441 691 2322 
L 691 4666 
z
" transform="scale(0.015625)"/>
       </defs>
       <use xlink:href="#DejaVuSans-32"/>
       <use xlink:href="#DejaVuSans-30" transform="translate(63.623047 0)"/>
       <use xlink:href="#DejaVuSans-32" transform="translate(127.246094 0)"/>
       <use xlink:href="#DejaVuSans-35" transform="translate(190.869141 0)"/>
      </g>
     </g>
    </g>
    <g id="xtick_5">
     <g id="line2d_9">
      <path d="M 727.199415 320.4 
L 727.199415 43.2 
" clip-path="url(#pc0e180a6d4)" style="fill: none; stroke-dasharray: 5.12,1.28,0.8,1.28; stroke-dashoffset: 0; stroke: #b0b0b0; stroke-width: 0.8"/>
     </g>
     <g id="line2d_10">
      <g>
       <use xlink:href="#m4dfdcee000" x="727.199415" y="320.4" style="fill: #a9a9a9; stroke: #a9a9a9; stroke-width: 0.8"/>
      </g>
     </g>
     <g id="text_5">
      <!-- 2026 -->
      <g style="fill: #a9a9a9" transform="translate(714.474415 334.998438) scale(0.1 -0.1)">
       <defs>
        <path id="DejaVuSans-36" d="M 2113 2584 
Q 1688 2584 1439 2293 
Q 1191 2003 1191 1497 
Q 1191 994 1439 701 
Q 1688 409 2113 409 
Q 2538 409 2786 701 
Q 3034 994 3034 1497 
Q 3034 2003 2786 2293 
Q 2538 2584 2113 2584 
z
M 3366 4563 
L 3366 3988 
Q 3128 4100 2886 4159 
Q 2644 4219 2406 4219 
Q 1781 4219 1451 3797 
Q 1122 3375 1075 2522 
Q 1259 2794 1537 2939 
Q 1816 3084 2150 3084 
Q 2853 3084 3261 2657 
Q 3669 2231 3669 1497 
Q 3669 778 3244 343 
Q 2819 -91 2113 -91 
Q 1303 -91 875 529 
Q 447 1150 447 2328 
Q 447 3434 972 4092 
Q 1497 4750 2381 4750 
Q 2619 4750 2861 4703 
Q 3103 4656 3366 4563 
z
" transform="scale(0.015625)"/>
       </defs>
       <use xlink:href="#DejaVuSans-32"/>
       <use xlink:href="#DejaVuSans-30" transform="translate(63.623047 0)"/>
       <use xlink:href="#DejaVuSans-32" transform="translate(127.246094 0)"/>
       <use xlink:href="#DejaVuSans-36" transform="translate(190.869141 0)"/>
      </g>
     </g>
    </g>
   </g>
   <g id="matplotlib.axis_2">
    <g id="ytick_1">
     <g id="line2d_11">
      <path d="M 108 307.828989 
L 777.6 307.828989 
" clip-path="url(#pc0e180a6d4)" style="fill: none; stroke-dasharray: 5.12,1.28,0.8,1.28; stroke-dashoffset: 0; stroke: #b0b0b0; stroke-width: 0.8"/>
     </g>
     <g id="line2d_12">
      <defs>
       <path id="m78626fb45d" d="M 0 0 
L -3.5 0 
" style="stroke: #a9a9a9; stroke-width: 0.8"/>
      </defs>
      <g>
       <use xlink:href="#m78626fb45d" x="108" y="307.828989" style="fill: #a9a9a9; stroke: #a9a9a9; stroke-width: 0.8"/>
      </g>
     </g>
     <g id="text_6">
      <!-- 0 -->
      <g style="fill: #a9a9a9" transform="translate(94.6375 311.628208) scale(0.1 -0.1)">
       <use xlink:href="#DejaVuSans-30"/>
      </g>
     </g>
    </g>
    <g id="ytick_2">
     <g id="line2d_13">
      <path d="M 108 278.840147 
L 777.6 278.840147 
" clip-path="url(#pc0e180a6d4)" style="fill: none; stroke-dasharray: 5.12,1.28,0.8,1.28; stroke-dashoffset: 0; stroke: #b0b0b0; stroke-width: 0.8"/>
     </g>
     <g id="line2d_14">
      <g>
       <use xlink:href="#m78626fb45d" x="108" y="278.840147" style="fill: #a9a9a9; stroke: #a9a9a9; stroke-width: 0.8"/>
      </g>
     </g>
     <g id="text_7">
      <!-- 1000 -->
      <g style="fill: #a9a9a9" transform="translate(75.55 282.639366) scale(0.1 -0.1)">
       <defs>
        <path id="DejaVuSans-31" d="M 794 531 
L 1825 531 
L 1825 4091 
L 703 3866 
L 703 4441 
L 1819 4666 
L 2450 4666 
L 2450 531 
L 3481 531 
L 3481 0 
L 794 0 
L 794 531 
z
" transform="scale(0.015625)"/>
       </defs>
       <use xlink:href="#DejaVuSans-31"/>
       <use xlink:href="#DejaVuSans-30" transform="translate(63.623047 0)"/>
       <use xlink:href="#DejaVuSans-30" transform="translate(127.246094 0)"/>
       <use xlink:href="#DejaVuSans-30" transform="translate(190.869141 0)"/>
      </g>
     </g>
    </g>
    <g id="ytick_3">
     <g id="line2d_15">
      <path d="M 108 249.851306 
L 777.6 249.851306 
" clip-path="url(#pc0e180a6d4)" style="fill: none; stroke-dasharray: 5.12,1.28,0.8,1.28; stroke-dashoffset: 0; stroke: #b0b0b0; stroke-width: 0.8"/>
     </g>
     <g id="line2d_16">
      <g>
       <use xlink:href="#m78626fb45d" x="108" y="249.851306" style="fill: #a9a9a9; stroke: #a9a9a9; stroke-width: 0.8"/>
      </g>
     </g>
     <g id="text_8">
      <!-- 2000 -->
      <g style="fill: #a9a9a9" transform="translate(75.55 253.650524) scale(0.1 -0.1)">
       <use xlink:href="#DejaVuSans-32"/>
       <use xlink:href="#DejaVuSans-30" transform="translate(63.623047 0)"/>
       <use xlink:href="#DejaVuSans-30" transform="translate(127.246094 0)"/>
       <use xlink:href="#DejaVuSans-30" transform="translate(190.869141 0)"/>
      </g>
     </g>
    </g>
    <g id="ytick_4">
     <g id="line2d_17">
      <path d="M 108 220.862464 
L 777.6 220.862464 
" clip-path="url(#pc0e180a6d4)" style="fill: none; stroke-dasharray: 5.12,1.28,0.8,1.28; stroke-dashoffset: 0; stroke: #b0b0b0; stroke-width: 0.8"/>
     </g>
     <g id="line2d_18">
      <g>
       <use xlink:href="#m78626fb45d" x="108" y="220.862464" style="fill: #a9a9a9; stroke: #a9a9a9; stroke-width: 0.8"/>
      </g>
     </g>
     <g id="text_9">
      <!-- 3000 -->
      <g style="fill: #a9a9a9" transform="translate(75.55 224.661683) scale(0.1 -0.1)">
       <use xlink:href="#DejaVuSans-33"/>
       <use xlink:href="#DejaVuSans-30" transform="translate(63.623047 0)"/>
       <use xlink:href="#DejaVuSans-30" transform="translate(127.246094 0)"/>
       <use xlink:href="#DejaVuSans-30" transform="translate(190.869141 0)"/>
      </g>
     </g>
    </g>
    <g id="ytick_5">
     <g id="line2d_19">
      <path d="M 108 191.873622 
L 777.6 191.873622 
" clip-path="url(#pc0e180a6d4)" style="fill: none; stroke-dasharray: 5.12,1.28,0.8,1.28; stroke-dashoffset: 0; stroke: #b0b0b0; stroke-width: 0.8"/>
     </g>
     <g id="line2d_20">
      <g>
       <use xlink:href="#m78626fb45d" x="108" y="191.873622" style="fill: #a9a9a9; stroke: #a9a9a9; stroke-width: 0.8"/>
      </g>
     </g>
     <g id="text_10">
      <!-- 4000 -->
      <g style="fill: #a9a9a9" transform="translate(75.55 195.672841) scale(0.1 -0.1)">
       <use xlink:href="#DejaVuSans-34"/>
       <use xlink:href="#DejaVuSans-30" transform="translate(63.623047 0)"/>
       <use xlink:href="#DejaVuSans-30" transform="translate(127.246094 0)"/>
       <use xlink:href="#DejaVuSans-30" transform="translate(190.869141 0)"/>
      </g>
     </g>
    </g>
    <g id="ytick_6">
     <g id="line2d_21">
      <path d="M 108 162.884781 
L 777.6 162.884781 
" clip-path="url(#pc0e180a6d4)" style="fill: none; stroke-dasharray: 5.12,1.28,0.8,1.28; stroke-dashoffset: 0; stroke: #b0b0b0; stroke-width: 0.8"/>
     </g>
     <g id="line2d_22">
      <g>
       <use xlink:href="#m78626fb45d" x="108" y="162.884781" style="fill: #a9a9a9; stroke: #a9a9a9; stroke-width: 0.8"/>
      </g>
     </g>
     <g id="text_11">
      <!-- 5000 -->
      <g style="fill: #a9a9a9" transform="translate(75.55 166.684) scale(0.1 -0.1)">
       <use xlink:href="#DejaVuSans-35"/>
       <use xlink:href="#DejaVuSans-30" transform="translate(63.623047 0)"/>
       <use xlink:href="#DejaVuSans-30" transform="translate(127.246094 0)"/>
       <use xlink:href="#DejaVuSans-30" transform="translate(190.869141 0)"/>
      </g>
     </g>
    </g>
    <g id="ytick_7">
     <g id="line2d_23">
      <path d="M 108 133.895939 
L 777.6 133.895939 
" clip-path="url(#pc0e180a6d4)" style="fill: none; stroke-dasharray: 5.12,1.28,0.8,1.28; stroke-dashoffset: 0; stroke: #b0b0b0; stroke-width: 0.8"/>
     </g>
     <g id="line2d_24">
      <g>
       <use xlink:href="#m78626fb45d" x="108" y="133.895939" style="fill: #a9a9a9; stroke: #a9a9a9; stroke-width: 0.8"/>
      </g>
     </g>
     <g id="text_12">
      <!-- 6000 -->
      <g style="fill: #a9a9a9" transform="translate(75.55 137.695158) scale(0.1 -0.1)">
       <use xlink:href="#DejaVuSans-36"/>
       <use xlink:href="#DejaVuSans-30" transform="translate(63.623047 0)"/>
       <use xlink:href="#DejaVuSans-30" transform="translate(127.246094 0)"/>
       <use xlink:href="#DejaVuSans-30" transform="translate(190.869141 0)"/>
      </g>
     </g>
    </g>
    <g id="ytick_8">
     <g id="line2d_25">
      <path d="M 108 104.907098 
L 777.6 104.907098 
" clip-path="url(#pc0e180a6d4)" style="fill: none; stroke-dasharray: 5.12,1.28,0.8,1.28; stroke-dashoffset: 0; stroke: #b0b0b0; stroke-width: 0.8"/>
     </g>
     <g id="line2d_26">
      <g>
       <use xlink:href="#m78626fb45d" x="108" y="104.907098" style="fill: #a9a9a9; stroke: #a9a9a9; stroke-width: 0.8"/>
      </g>
     </g>
     <g id="text_13">
      <!-- 7000 -->
      <g style="fill: #a9a9a9" transform="translate(75.55 108.706316) scale(0.1 -0.1)">
       <defs>
        <path id="DejaVuSans-37" d="M 525 4666 
L 3525 4666 
L 3525 4397 
L 1831 0 
L 1172 0 
L 2766 4134 
L 525 4134 
L 525 4666 
z
" transform="scale(0.015625)"/>
       </defs>
       <use xlink:href="#DejaVuSans-37"/>
       <use xlink:href="#DejaVuSans-30" transform="translate(63.623047 0)"/>
       <use xlink:href="#DejaVuSans-30" transform="translate(127.246094 0)"/>
       <use xlink:href="#DejaVuSans-30" transform="translate(190.869141 0)"/>
      </g>
     </g>
    </g>
    <g id="ytick_9">
     <g id="line2d_27">
      <path d="M 108 75.918256 
L 777.6 75.918256 
" clip-path="url(#pc0e180a6d4)" style="fill: none; stroke-dasharray: 5.12,1.28,0.8,1.28; stroke-dashoffset: 0; stroke: #b0b0b0; stroke-width: 0.8"/>
     </g>
     <g id="line2d_28">
      <g>
       <use xlink:href="#m78626fb45d" x="108" y="75.918256" style="fill: #a9a9a9; stroke: #a9a9a9; stroke-width: 0.8"/>
      </g>
     </g>
     <g id="text_14">
      <!-- 8000 -->
      <g style="fill: #a9a9a9" transform="translate(75.55 79.717475) scale(0.1 -0.1)">
       <defs>
        <path id="DejaVuSans-38" d="M 2034 2216 
Q 1584 2216 1326 1975 
Q 1069 1734 1069 1313 
Q 1069 891 1326 650 
Q 1584 409 2034 409 
Q 2484 409 2743 651 
Q 3003 894 3003 1313 
Q 3003 1734 2745 1975 
Q 2488 2216 2034 2216 
z
M 1403 2484 
Q 997 2584 770 2862 
Q 544 3141 544 3541 
Q 544 4100 942 4425 
Q 1341 4750 2034 4750 
Q 2731 4750 3128 4425 
Q 3525 4100 3525 3541 
Q 3525 3141 3298 2862 
Q 3072 2584 2669 2484 
Q 3125 2378 3379 2068 
Q 3634 1759 3634 1313 
Q 3634 634 3220 271 
Q 2806 -91 2034 -91 
Q 1263 -91 848 271 
Q 434 634 434 1313 
Q 434 1759 690 2068 
Q 947 2378 1403 2484 
z
M 1172 3481 
Q 1172 3119 1398 2916 
Q 1625 2713 2034 2713 
Q 2441 2713 2670 2916 
Q 2900 3119 2900 3481 
Q 2900 3844 2670 4047 
Q 2441 4250 2034 4250 
Q 1625 4250 1398 4047 
Q 1172 3844 1172 3481 
z
" transform="scale(0.015625)"/>
       </defs>
       <use xlink:href="#DejaVuSans-38"/>
       <use xlink:href="#DejaVuSans-30" transform="translate(63.623047 0)"/>
       <use xlink:href="#DejaVuSans-30" transform="translate(127.246094 0)"/>
       <use xlink:href="#DejaVuSans-30" transform="translate(190.869141 0)"/>
      </g>
     </g>
    </g>
    <g id="ytick_10">
     <g id="line2d_29">
      <path d="M 108 46.929414 
L 777.6 46.929414 
" clip-path="url(#pc0e180a6d4)" style="fill: none; stroke-dasharray: 5.12,1.28,0.8,1.28; stroke-dashoffset: 0; stroke: #b0b0b0; stroke-width: 0.8"/>
     </g>
     <g id="line2d_30">
      <g>
       <use xlink:href="#m78626fb45d" x="108" y="46.929414" style="fill: #a9a9a9; stroke: #a9a9a9; stroke-width: 0.8"/>
      </g>
     </g>
     <g id="text_15">
      <!-- 9000 -->
      <g style="fill: #a9a9a9" transform="translate(75.55 50.728633) scale(0.1 -0.1)">
       <defs>
        <path id="DejaVuSans-39" d="M 703 97 
L 703 672 
Q 941 559 1184 500 
Q 1428 441 1663 441 
Q 2288 441 2617 861 
Q 2947 1281 2994 2138 
Q 2813 1869 2534 1725 
Q 2256 1581 1919 1581 
Q 1219 1581 811 2004 
Q 403 2428 403 3163 
Q 403 3881 828 4315 
Q 1253 4750 1959 4750 
Q 2769 4750 3195 4129 
Q 3622 3509 3622 2328 
Q 3622 1225 3098 567 
Q 2575 -91 1691 -91 
Q 1453 -91 1209 -44 
Q 966 3 703 97 
z
M 1959 2075 
Q 2384 2075 2632 2365 
Q 2881 2656 2881 3163 
Q 2881 3666 2632 3958 
Q 2384 4250 1959 4250 
Q 1534 4250 1286 3958 
Q 1038 3666 1038 3163 
Q 1038 2656 1286 2365 
Q 1534 2075 1959 2075 
z
" transform="scale(0.015625)"/>
       </defs>
       <use xlink:href="#DejaVuSans-39"/>
       <use xlink:href="#DejaVuSans-30" transform="translate(63.623047 0)"/>
       <use xlink:href="#DejaVuSans-30" transform="translate(127.246094 0)"/>
       <use xlink:href="#DejaVuSans-30" transform="translate(190.869141 0)"/>
      </g>
     </g>
    </g>
   </g>
   <g id="line2d_31">
    <path d="M 138.436364 307.742022 
L 140.614279 307.5391 
L 140.977265 307.365167 
L 142.429208 307.162245 
L 143.881151 306.843368 
L 144.607123 306.727413 
L 146.422052 306.55348 
L 147.148024 306.263591 
L 147.51101 305.741792 
L 147.873996 305.480893 
L 148.236982 304.611227 
L 148.599967 304.55325 
L 149.325939 304.089428 
L 150.051911 303.53864 
L 151.503854 302.437064 
L 151.86684 302.29212 
L 152.592812 301.828299 
L 153.681769 301.277511 
L 154.044755 300.639756 
L 154.770727 300.059979 
L 155.496699 299.828069 
L 156.585656 299.654136 
L 158.763571 299.306269 
L 159.126557 299.132336 
L 161.667458 298.900426 
L 163.119402 298.523571 
L 166.023288 298.088738 
L 166.386274 297.885816 
L 166.74926 297.827838 
L 167.475232 297.566939 
L 170.016133 297.103117 
L 170.742104 296.871207 
L 174.008977 296.29143 
L 174.734949 296.117497 
L 176.186892 295.914575 
L 176.912864 295.682664 
L 177.27585 295.131876 
L 178.364807 294.668055 
L 179.453765 294.349177 
L 179.816751 294.146256 
L 180.542722 294.001311 
L 182.357652 293.53749 
L 183.446609 293.27659 
L 184.898553 292.899735 
L 185.261538 292.870747 
L 185.98751 292.493892 
L 186.350496 292.435914 
L 186.713482 292.232992 
L 190.706326 291.53726 
L 192.15827 291.073438 
L 192.521255 290.812539 
L 194.336185 290.174784 
L 195.062156 289.623996 
L 196.151114 289.392086 
L 204.136803 286.899045 
L 204.499789 286.870056 
L 205.588746 286.52219 
L 205.951732 286.52219 
L 206.314718 286.348257 
L 207.04069 286.261291 
L 207.403675 286.116346 
L 209.218605 286.02938 
L 209.581591 285.942413 
L 210.307562 285.53657 
L 211.39652 285.130726 
L 212.122491 284.724882 
L 213.211449 284.232072 
L 214.663392 283.478362 
L 215.026378 283.072518 
L 215.75235 281.854987 
L 216.841308 281.507121 
L 217.204293 281.217232 
L 218.293251 280.811388 
L 218.656237 280.434534 
L 219.745194 279.970712 
L 220.10818 279.76779 
L 222.286095 277.129806 
L 223.012067 276.781939 
L 224.46401 275.738341 
L 225.189982 275.216542 
L 225.552968 274.665754 
L 225.915954 273.7671 
L 226.27894 273.187323 
L 229.908798 269.853606 
L 230.63477 269.128885 
L 232.086713 268.143265 
L 232.449699 267.795399 
L 233.175671 267.563488 
L 234.264628 266.896745 
L 235.353586 266.114046 
L 236.805529 264.693593 
L 237.531501 264.374715 
L 238.257473 263.852916 
L 238.620459 263.621005 
L 238.983444 263.563028 
L 240.072402 262.896284 
L 240.435388 262.461452 
L 242.250317 261.388865 
L 242.613303 261.24392 
L 243.702261 260.432233 
L 249.147048 258.345036 
L 249.87302 257.620315 
L 250.961978 257.040538 
L 251.687949 256.547728 
L 252.413921 256.315817 
L 252.776907 256.054918 
L 253.139893 255.938962 
L 254.22885 255.156264 
L 256.043779 254.721431 
L 257.132737 254.025699 
L 258.221695 253.764799 
L 258.58468 253.677833 
L 259.673638 252.866145 
L 261.125581 252.431313 
L 261.488567 252.141424 
L 263.666482 251.329737 
L 264.392454 251.184792 
L 265.118426 250.865915 
L 267.659327 249.880294 
L 268.385298 249.793328 
L 269.837242 249.213551 
L 273.830086 247.097366 
L 274.556058 246.7495 
L 275.28203 246.401633 
L 276.008001 246.256689 
L 276.733973 245.792868 
L 277.459945 245.589946 
L 278.548902 245.126124 
L 280.000846 244.923203 
L 280.726817 244.517359 
L 281.089803 244.169493 
L 281.452789 243.47376 
L 282.904732 243.038928 
L 284.356676 242.343196 
L 287.623549 240.806787 
L 288.34952 240.632854 
L 289.438478 240.053077 
L 289.801464 239.9951 
L 291.616393 239.038468 
L 292.342365 238.545657 
L 293.431322 238.313747 
L 296.698195 237.154193 
L 298.150138 236.516439 
L 298.513124 236.22655 
L 299.239096 235.820706 
L 299.965067 235.530818 
L 300.328053 235.443851 
L 301.779997 234.661153 
L 302.142983 234.255309 
L 302.505968 234.023398 
L 302.868954 233.936432 
L 303.594926 233.298677 
L 303.957912 233.240699 
L 304.320898 232.602945 
L 304.683884 232.458001 
L 305.046869 232.139123 
L 305.409855 232.081146 
L 306.135827 231.588335 
L 306.861799 231.327436 
L 307.224785 231.037547 
L 307.950756 230.631704 
L 309.4027 229.704061 
L 311.580615 228.689451 
L 311.943601 228.022708 
L 312.669572 227.442931 
L 313.032558 227.355965 
L 315.210473 226.254389 
L 315.936445 225.935511 
L 316.662417 225.384723 
L 317.388388 224.602025 
L 319.203318 223.181571 
L 319.929289 222.572806 
L 320.292275 222.398873 
L 321.018247 221.616174 
L 322.107204 221.094375 
L 322.833176 220.659542 
L 323.196162 220.543587 
L 323.559148 220.253698 
L 323.922134 220.195721 
L 327.189006 218.45639 
L 327.914978 218.253468 
L 329.366921 217.731669 
L 330.092893 217.238859 
L 331.544837 216.688071 
L 332.270808 216.224249 
L 332.99678 215.934361 
L 333.722752 215.383573 
L 334.448723 213.847164 
L 335.174695 212.977499 
L 336.263653 212.368733 
L 336.989624 212.049856 
L 337.35261 211.991879 
L 338.078582 211.644012 
L 339.893511 210.977269 
L 340.619483 210.484459 
L 341.70844 210.020637 
L 343.160384 209.121983 
L 343.52337 208.861084 
L 343.886356 208.426251 
L 344.975313 207.759508 
L 345.338299 207.614563 
L 346.064271 207.150742 
L 347.516214 206.310066 
L 347.8792 206.223099 
L 348.242186 205.933211 
L 350.783087 205.063545 
L 351.146073 204.802646 
L 351.872044 204.570735 
L 354.775931 203.121293 
L 355.501903 202.715449 
L 355.864889 202.541516 
L 356.59086 201.93275 
L 357.316832 201.729829 
L 357.679818 201.381962 
L 358.042804 201.323985 
L 358.768775 200.744208 
L 360.583705 199.613643 
L 361.309676 199.381732 
L 361.672662 199.149822 
L 362.035648 199.091844 
L 364.213563 198.135212 
L 368.569393 196.743748 
L 369.658351 195.961049 
L 370.384323 195.555205 
L 371.836266 194.830484 
L 372.925224 194.076774 
L 373.651195 193.902841 
L 374.740153 193.207109 
L 378.007026 192.047556 
L 378.732997 191.786656 
L 380.184941 191.467779 
L 380.910912 191.235868 
L 382.725842 190.598113 
L 383.814799 190.250247 
L 384.540771 190.076314 
L 386.718686 189.67047 
L 387.444658 189.525526 
L 388.533615 189.264627 
L 388.896601 189.090694 
L 389.622573 188.945749 
L 390.348544 188.742828 
L 391.074516 188.394961 
L 391.437502 188.250017 
L 391.800488 188.250017 
L 397.245276 186.452709 
L 397.608262 186.046865 
L 399.786177 185.090234 
L 401.23812 184.568434 
L 401.601106 184.336524 
L 402.690063 183.988658 
L 404.142007 183.43787 
L 404.504993 183.118992 
L 405.59395 182.887082 
L 406.319922 182.539215 
L 406.682908 182.075394 
L 410.675752 181.147751 
L 411.038738 181.147751 
L 411.76471 180.91584 
L 415.031582 180.075164 
L 415.757554 179.901231 
L 422.291299 177.727068 
L 422.654285 177.466168 
L 423.380257 177.234257 
L 426.284144 176.190659 
L 427.010115 176.132681 
L 428.462059 175.697849 
L 428.825045 175.465938 
L 429.551016 175.234027 
L 431.728932 174.306384 
L 436.084762 172.683009 
L 439.351634 171.610422 
L 440.803578 170.363902 
L 443.344479 169.233337 
L 445.88538 168.102772 
L 446.611351 167.89985 
L 449.878224 166.247486 
L 450.604196 165.812654 
L 453.871068 164.189279 
L 454.234054 163.89939 
L 456.048984 163.203658 
L 458.589885 162.247026 
L 459.315856 162.16006 
L 459.678842 161.89916 
L 461.130785 161.609272 
L 461.856757 161.290395 
L 463.671686 160.39174 
L 468.390503 158.217577 
L 469.47946 157.840722 
L 469.842446 157.579823 
L 470.568418 157.492856 
L 470.931403 157.231957 
L 471.657375 157.116001 
L 476.376191 155.347682 
L 477.465149 155.086782 
L 478.917092 154.449028 
L 479.643064 154.043184 
L 481.095007 153.260485 
L 481.820979 153.086552 
L 482.183965 152.854642 
L 482.546951 152.767675 
L 484.36188 151.840032 
L 489.080696 150.013735 
L 489.443682 149.955758 
L 490.895625 149.231036 
L 491.621597 149.086092 
L 492.347569 148.65126 
L 493.799512 147.926539 
L 500.333257 145.346532 
L 501.785201 144.071023 
L 502.874158 143.63619 
L 505.415059 142.360681 
L 505.778045 142.099781 
L 506.504017 141.89686 
L 507.229989 141.491016 
L 508.318946 141.230116 
L 514.12672 138.795053 
L 515.941649 138.041344 
L 518.119564 137.229656 
L 519.934493 136.302013 
L 520.660465 136.070102 
L 521.023451 135.722236 
L 522.112409 135.287404 
L 522.475394 135.229426 
L 523.927338 134.533694 
L 525.016295 134.185828 
L 526.105253 133.779984 
L 527.19421 133.461107 
L 527.557196 133.403129 
L 528.283168 132.997285 
L 528.646154 132.852341 
L 529.00914 132.562453 
L 530.098097 132.272564 
L 530.824069 131.982676 
L 531.550041 131.663798 
L 533.001984 131.055033 
L 535.542885 130.417278 
L 536.268857 130.12739 
L 537.7208 129.837501 
L 538.446772 129.692557 
L 539.535729 129.257725 
L 540.624687 129.025814 
L 542.802602 127.692327 
L 543.89156 127.054573 
L 546.069475 126.35884 
L 546.432461 126.068952 
L 549.336347 125.025354 
L 550.425305 124.677488 
L 551.151277 124.271644 
L 551.877248 124.068722 
L 552.240234 123.8658 
L 552.966206 123.720856 
L 554.781135 122.880179 
L 555.507107 122.590291 
L 556.95905 122.010514 
L 557.322036 121.662648 
L 557.685022 121.60467 
L 559.136965 120.995905 
L 560.588909 120.61905 
L 560.951895 120.590061 
L 561.31488 120.416128 
L 562.040852 120.271184 
L 565.307725 119.256574 
L 566.033697 118.676797 
L 567.48564 117.836121 
L 567.848626 117.749154 
L 568.211612 117.546233 
L 568.574597 117.488255 
L 571.84147 115.86488 
L 572.204456 115.546003 
L 574.019385 115.11117 
L 575.108343 114.61836 
L 575.834315 114.415438 
L 576.1973 114.241505 
L 576.560286 113.922627 
L 579.101187 112.994984 
L 580.190145 112.502174 
L 580.553131 112.473185 
L 581.279102 112.183297 
L 582.731046 111.545542 
L 584.908961 110.994754 
L 585.997918 110.501944 
L 589.264791 109.429357 
L 589.990763 109.023513 
L 602.332282 105.196986 
L 603.058253 104.994064 
L 604.147211 104.58822 
L 604.510197 104.58822 
L 605.599154 104.327321 
L 606.325126 104.182377 
L 607.051098 103.979455 
L 608.140055 103.399678 
L 609.229013 103.051812 
L 611.769914 102.182147 
L 613.221857 101.428437 
L 615.762758 100.558771 
L 616.125744 100.239894 
L 616.851716 100.007983 
L 617.214702 99.776073 
L 617.940673 99.689106 
L 620.481574 98.964385 
L 621.570532 98.732474 
L 624.474419 97.688876 
L 629.193235 95.862579 
L 629.919206 95.746624 
L 630.645178 95.60168 
L 631.008164 95.60168 
L 632.097121 95.253813 
L 633.186079 94.905947 
L 636.089966 94.065271 
L 637.541909 93.746394 
L 637.904895 93.514483 
L 638.630867 93.369539 
L 640.08281 93.07965 
L 641.171768 92.557851 
L 642.260725 92.296952 
L 642.986697 91.978074 
L 645.164612 91.195376 
L 645.527598 91.137398 
L 646.25357 90.876498 
L 650.6094 89.745934 
L 652.787315 88.992224 
L 653.513287 88.934246 
L 655.691202 88.383458 
L 656.417174 88.064581 
L 656.780159 88.006603 
L 657.143145 87.83267 
L 657.869117 87.194915 
L 661.13599 85.919406 
L 661.861961 85.803451 
L 664.765848 84.81783 
L 665.854806 84.209065 
L 666.217792 84.122098 
L 666.580777 83.83221 
L 667.669735 83.513333 
L 673.114523 80.991303 
L 674.929452 80.353549 
L 675.292438 80.034672 
L 675.655424 79.947705 
L 676.381395 79.483884 
L 677.470353 79.165006 
L 678.922296 78.556241 
L 679.285282 78.527252 
L 681.100211 77.83152 
L 681.826183 77.686575 
L 682.552155 77.164776 
L 682.915141 77.164776 
L 684.367084 76.642977 
L 685.819027 76.353089 
L 687.270971 75.715334 
L 687.633957 75.715334 
L 688.722914 75.338479 
L 689.448886 75.222524 
L 690.537844 74.584769 
L 691.263815 74.207914 
L 694.167702 73.164316 
L 694.893674 72.932405 
L 696.708603 72.584539 
L 702.516377 70.81622 
L 702.879362 70.758242 
L 703.605334 70.468354 
L 705.057278 70.149477 
L 707.961164 69.076889 
L 708.687136 68.931945 
L 710.13908 68.671046 
L 710.865051 68.55509 
L 712.316995 67.975313 
L 713.042966 67.772392 
L 713.768938 67.656436 
L 715.220881 67.192615 
L 715.583867 67.192615 
L 716.309839 66.786771 
L 718.124768 66.322949 
L 718.85074 66.06205 
L 719.576712 65.917106 
L 721.754627 64.960474 
L 722.117613 64.902496 
L 722.843584 64.55463 
L 723.569556 64.235753 
L 724.295528 63.916876 
L 725.021499 63.626987 
L 725.384485 63.424065 
L 725.747471 63.366088 
L 726.473443 63.018222 
L 727.5624 62.5544 
L 729.37733 61.771701 
L 729.740315 61.539791 
L 730.103301 61.452824 
L 730.466287 61.220913 
L 730.829273 61.162936 
L 731.555245 60.699114 
L 733.73316 60.177315 
L 734.459132 59.771471 
L 734.822117 59.713494 
L 736.274061 59.133717 
L 741.718849 57.075509 
L 743.170792 56.727643 
L 744.622735 56.55371 
L 745.711693 56.321799 
L 746.074679 56.263821 
L 746.800651 55.8 
L 747.163636 55.8 
L 747.163636 55.8 
" clip-path="url(#pc0e180a6d4)" style="fill: none; stroke: #1f77b4; stroke-width: 1.5; stroke-linecap: square"/>
   </g>
   <g id="line2d_32">
    <path d="M 138.799349 307.8 
L 142.066222 307.713033 
L 144.970109 307.568089 
L 146.422052 307.568089 
L 147.148024 307.452134 
L 155.859685 306.843368 
L 158.763571 306.756402 
L 160.578501 306.698424 
L 165.297317 306.611457 
L 167.112246 306.55348 
L 170.379119 306.466513 
L 171.831062 306.437524 
L 175.46092 306.350558 
L 176.912864 306.205614 
L 178.364807 306.176625 
L 180.542722 306.089658 
L 181.994666 306.06067 
L 183.809595 306.002692 
L 185.261538 305.857748 
L 188.528411 305.770781 
L 189.254383 305.712803 
L 190.706326 305.625837 
L 192.884241 305.53887 
L 194.336185 305.451904 
L 200.86993 305.017071 
L 203.410831 304.930105 
L 204.499789 304.814149 
L 206.314718 304.727183 
L 209.944576 304.524261 
L 213.574435 304.466283 
L 215.026378 304.29235 
L 216.841308 304.205384 
L 220.471166 303.828529 
L 222.649081 303.53864 
L 224.101025 303.480663 
L 227.004911 303.074819 
L 229.182826 303.016841 
L 230.271784 302.900886 
L 231.360742 302.813919 
L 250.236006 301.393466 
L 252.776907 301.306499 
L 254.22885 301.132566 
L 256.043779 301.0456 
L 258.221695 300.958633 
L 260.036624 300.871667 
L 261.488567 300.842678 
L 263.303497 300.7847 
L 264.029468 300.697734 
L 269.11127 300.610767 
L 269.837242 300.523801 
L 274.193072 300.436834 
L 277.459945 300.262901 
L 280.000846 300.175935 
L 281.452789 300.002002 
L 283.99369 299.915035 
L 284.719662 299.79908 
L 286.534591 299.741102 
L 290.16445 299.683124 
L 291.616393 299.53818 
L 293.068336 299.509191 
L 294.157294 299.422225 
L 295.609237 299.277281 
L 299.239096 299.074359 
L 302.868954 298.987392 
L 306.135827 298.813459 
L 307.224785 298.78447 
L 307.950756 298.668515 
L 309.765685 298.581548 
L 310.491657 298.523571 
L 312.306586 298.436604 
L 313.75853 298.407615 
L 316.299431 298.320649 
L 325.737063 297.653905 
L 327.914978 297.566939 
L 329.729907 297.508961 
L 334.811709 297.421995 
L 335.537681 297.335028 
L 340.619483 297.248062 
L 344.249341 297.04514 
L 344.975313 297.016151 
L 345.701285 296.929184 
L 347.516214 296.842218 
L 349.331143 296.78424 
L 351.146073 296.697274 
L 352.961002 296.639296 
L 356.227874 296.552329 
L 358.40579 296.465363 
L 363.487591 296.378396 
L 367.480436 296.146486 
L 368.932379 296.088508 
L 370.021337 296.001541 
L 375.103139 295.914575 
L 377.281054 295.827608 
L 383.814799 295.740642 
L 385.266743 295.711653 
L 389.622573 295.653675 
L 390.348544 295.595698 
L 395.430346 295.508731 
L 396.88229 295.479742 
L 406.319922 295.392776 
L 408.497837 295.305809 
L 423.743243 295.218843 
L 425.558172 295.160865 
L 436.084762 295.073899 
L 440.077606 294.841988 
L 442.255521 294.755021 
L 444.433436 294.668055 
L 448.063295 294.581088 
L 450.604196 294.465133 
L 453.508083 294.378166 
L 456.411969 294.233222 
L 463.308701 294.146256 
L 465.486616 294.059289 
L 469.47946 293.972323 
L 472.020361 293.856367 
L 474.561262 293.79839 
L 475.287234 293.740412 
L 483.998894 293.653445 
L 487.628753 293.450523 
L 490.169654 293.363557 
L 494.162498 293.131646 
L 498.518328 293.04468 
L 499.970272 293.015691 
L 500.696243 292.957713 
L 502.511173 292.754791 
L 506.141031 292.667825 
L 506.867003 292.580858 
L 510.496861 292.493892 
L 512.311791 292.435914 
L 516.304635 292.406925 
L 517.030607 292.319959 
L 521.023451 292.232992 
L 521.749423 292.175014 
L 529.735111 292.088048 
L 531.913027 292.001081 
L 537.357814 291.914115 
L 538.809758 291.885126 
L 542.07663 291.827148 
L 542.802602 291.740182 
L 547.521418 291.653215 
L 549.336347 291.595238 
L 555.870093 291.508271 
L 556.95905 291.421304 
L 558.048008 291.334338 
L 559.136965 291.247371 
L 564.581753 291.160405 
L 566.759668 291.073438 
L 577.286258 290.986472 
L 580.553131 290.812539 
L 585.634933 290.725572 
L 587.086876 290.696583 
L 591.442706 290.609617 
L 593.257635 290.551639 
L 601.60631 290.464673 
L 603.784225 290.377706 
L 609.954985 290.29074 
L 611.406928 290.261751 
L 615.036786 290.174784 
L 617.577687 290.058829 
L 621.570532 289.971862 
L 624.111433 289.855907 
L 627.378305 289.797929 
L 628.104277 289.739952 
L 636.089966 289.652985 
L 638.267881 289.566019 
L 640.808782 289.479052 
L 642.623711 289.421074 
L 653.150301 289.334108 
L 655.328216 289.247141 
L 661.498975 289.160175 
L 663.313905 289.102197 
L 668.032721 289.015231 
L 670.210636 288.928264 
L 673.114523 288.841298 
L 675.292438 288.754331 
L 689.811872 288.667365 
L 692.715759 288.52242 
L 701.064433 288.435454 
L 702.516377 288.406465 
L 711.228037 288.319498 
L 713.042966 288.261521 
L 724.658514 288.174554 
L 726.110457 288.145565 
L 737.000033 288.058599 
L 737.726004 288.000621 
L 747.163636 287.913655 
L 747.163636 287.913655 
" clip-path="url(#pc0e180a6d4)" style="fill: none; stroke: #ff7f0e; stroke-width: 1.5; stroke-linecap: square"/>
   </g>
   <g id="patch_3">
    <path d="M 108 320.4 
L 108 43.2 
" style="fill: none; stroke: #a9a9a9; stroke-width: 0.8; stroke-linejoin: miter; stroke-linecap: square"/>
   </g>
   <g id="patch_4">
    <path d="M 777.6 320.4 
L 777.6 43.2 
" style="fill: none"/>
   </g>
   <g id="patch_5">
    <path d="M 108 320.4 
L 777.6 320.4 
" style="fill: none; stroke: #a9a9a9; stroke-width: 0.8; stroke-linejoin: miter; stroke-linecap: square"/>
   </g>
   <g id="patch_6">
    <path d="M 108 43.2 
L 777.6 43.2 
" style="fill: none"/>
   </g>
   <g id="text_16">
    <!-- get_subscribe history -->
    <g style="fill: #a9a9a9" transform="translate(378.6075 37.2) scale(0.12 -0.12)">
     <defs>
      <path id="DejaVuSans-67" d="M 2906 1791 
Q 2906 2416 2648 2759 
Q 2391 3103 1925 3103 
Q 1463 3103 1205 2759 
Q 947 2416 947 1791 
Q 947 1169 1205 825 
Q 1463 481 1925 481 
Q 2391 481 2648 825 
Q 2906 1169 2906 1791 
z
M 3481 434 
Q 3481 -459 3084 -895 
Q 2688 -1331 1869 -1331 
Q 1566 -1331 1297 -1286 
Q 1028 -1241 775 -1147 
L 775 -588 
Q 1028 -725 1275 -790 
Q 1522 -856 1778 -856 
Q 2344 -856 2625 -561 
Q 2906 -266 2906 331 
L 2906 616 
Q 2728 306 2450 153 
Q 2172 0 1784 0 
Q 1141 0 747 490 
Q 353 981 353 1791 
Q 353 2603 747 3093 
Q 1141 3584 1784 3584 
Q 2172 3584 2450 3431 
Q 2728 3278 2906 2969 
L 2906 3500 
L 3481 3500 
L 3481 434 
z
" transform="scale(0.015625)"/>
      <path id="DejaVuSans-65" d="M 3597 1894 
L 3597 1613 
L 953 1613 
Q 991 1019 1311 708 
Q 1631 397 2203 397 
Q 2534 397 2845 478 
Q 3156 559 3463 722 
L 3463 178 
Q 3153 47 2828 -22 
Q 2503 -91 2169 -91 
Q 1331 -91 842 396 
Q 353 884 353 1716 
Q 353 2575 817 3079 
Q 1281 3584 2069 3584 
Q 2775 3584 3186 3129 
Q 3597 2675 3597 1894 
z
M 3022 2063 
Q 3016 2534 2758 2815 
Q 2500 3097 2075 3097 
Q 1594 3097 1305 2825 
Q 1016 2553 972 2059 
L 3022 2063 
z
" transform="scale(0.015625)"/>
      <path id="DejaVuSans-74" d="M 1172 4494 
L 1172 3500 
L 2356 3500 
L 2356 3053 
L 1172 3053 
L 1172 1153 
Q 1172 725 1289 603 
Q 1406 481 1766 481 
L 2356 481 
L 2356 0 
L 1766 0 
Q 1100 0 847 248 
Q 594 497 594 1153 
L 594 3053 
L 172 3053 
L 172 3500 
L 594 3500 
L 594 4494 
L 1172 4494 
z
" transform="scale(0.015625)"/>
      <path id="DejaVuSans-5f" d="M 3263 -1063 
L 3263 -1509 
L -63 -1509 
L -63 -1063 
L 3263 -1063 
z
" transform="scale(0.015625)"/>
      <path id="DejaVuSans-73" d="M 2834 3397 
L 2834 2853 
Q 2591 2978 2328 3040 
Q 2066 3103 1784 3103 
Q 1356 3103 1142 2972 
Q 928 2841 928 2578 
Q 928 2378 1081 2264 
Q 1234 2150 1697 2047 
L 1894 2003 
Q 2506 1872 2764 1633 
Q 3022 1394 3022 966 
Q 3022 478 2636 193 
Q 2250 -91 1575 -91 
Q 1294 -91 989 -36 
Q 684 19 347 128 
L 347 722 
Q 666 556 975 473 
Q 1284 391 1588 391 
Q 1994 391 2212 530 
Q 2431 669 2431 922 
Q 2431 1156 2273 1281 
Q 2116 1406 1581 1522 
L 1381 1569 
Q 847 1681 609 1914 
Q 372 2147 372 2553 
Q 372 3047 722 3315 
Q 1072 3584 1716 3584 
Q 2034 3584 2315 3537 
Q 2597 3491 2834 3397 
z
" transform="scale(0.015625)"/>
      <path id="DejaVuSans-75" d="M 544 1381 
L 544 3500 
L 1119 3500 
L 1119 1403 
Q 1119 906 1312 657 
Q 1506 409 1894 409 
Q 2359 409 2629 706 
Q 2900 1003 2900 1516 
L 2900 3500 
L 3475 3500 
L 3475 0 
L 2900 0 
L 2900 538 
Q 2691 219 2414 64 
Q 2138 -91 1772 -91 
Q 1169 -91 856 284 
Q 544 659 544 1381 
z
M 1991 3584 
L 1991 3584 
z
" transform="scale(0.015625)"/>
      <path id="DejaVuSans-62" d="M 3116 1747 
Q 3116 2381 2855 2742 
Q 2594 3103 2138 3103 
Q 1681 3103 1420 2742 
Q 1159 2381 1159 1747 
Q 1159 1113 1420 752 
Q 1681 391 2138 391 
Q 2594 391 2855 752 
Q 3116 1113 3116 1747 
z
M 1159 2969 
Q 1341 3281 1617 3432 
Q 1894 3584 2278 3584 
Q 2916 3584 3314 3078 
Q 3713 2572 3713 1747 
Q 3713 922 3314 415 
Q 2916 -91 2278 -91 
Q 1894 -91 1617 61 
Q 1341 213 1159 525 
L 1159 0 
L 581 0 
L 581 4863 
L 1159 4863 
L 1159 2969 
z
" transform="scale(0.015625)"/>
      <path id="DejaVuSans-63" d="M 3122 3366 
L 3122 2828 
Q 2878 2963 2633 3030 
Q 2388 3097 2138 3097 
Q 1578 3097 1268 2742 
Q 959 2388 959 1747 
Q 959 1106 1268 751 
Q 1578 397 2138 397 
Q 2388 397 2633 464 
Q 2878 531 3122 666 
L 3122 134 
Q 2881 22 2623 -34 
Q 2366 -91 2075 -91 
Q 1284 -91 818 406 
Q 353 903 353 1747 
Q 353 2603 823 3093 
Q 1294 3584 2113 3584 
Q 2378 3584 2631 3529 
Q 2884 3475 3122 3366 
z
" transform="scale(0.015625)"/>
      <path id="DejaVuSans-72" d="M 2631 2963 
Q 2534 3019 2420 3045 
Q 2306 3072 2169 3072 
Q 1681 3072 1420 2755 
Q 1159 2438 1159 1844 
L 1159 0 
L 581 0 
L 581 3500 
L 1159 3500 
L 1159 2956 
Q 1341 3275 1631 3429 
Q 1922 3584 2338 3584 
Q 2397 3584 2469 3576 
Q 2541 3569 2628 3553 
L 2631 2963 
z
" transform="scale(0.015625)"/>
      <path id="DejaVuSans-69" d="M 603 3500 
L 1178 3500 
L 1178 0 
L 603 0 
L 603 3500 
z
M 603 4863 
L 1178 4863 
L 1178 4134 
L 603 4134 
L 603 4863 
z
" transform="scale(0.015625)"/>
      <path id="DejaVuSans-20" transform="scale(0.015625)"/>
      <path id="DejaVuSans-68" d="M 3513 2113 
L 3513 0 
L 2938 0 
L 2938 2094 
Q 2938 2591 2744 2837 
Q 2550 3084 2163 3084 
Q 1697 3084 1428 2787 
Q 1159 2491 1159 1978 
L 1159 0 
L 581 0 
L 581 4863 
L 1159 4863 
L 1159 2956 
Q 1366 3272 1645 3428 
Q 1925 3584 2291 3584 
Q 2894 3584 3203 3211 
Q 3513 2838 3513 2113 
z
" transform="scale(0.015625)"/>
      <path id="DejaVuSans-6f" d="M 1959 3097 
Q 1497 3097 1228 2736 
Q 959 2375 959 1747 
Q 959 1119 1226 758 
Q 1494 397 1959 397 
Q 2419 397 2687 759 
Q 2956 1122 2956 1747 
Q 2956 2369 2687 2733 
Q 2419 3097 1959 3097 
z
M 1959 3584 
Q 2709 3584 3137 3096 
Q 3566 2609 3566 1747 
Q 3566 888 3137 398 
Q 2709 -91 1959 -91 
Q 1206 -91 779 398 
Q 353 888 353 1747 
Q 353 2609 779 3096 
Q 1206 3584 1959 3584 
z
" transform="scale(0.015625)"/>
      <path id="DejaVuSans-79" d="M 2059 -325 
Q 1816 -950 1584 -1140 
Q 1353 -1331 966 -1331 
L 506 -1331 
L 506 -850 
L 844 -850 
Q 1081 -850 1212 -737 
Q 1344 -625 1503 -206 
L 1606 56 
L 191 3500 
L 800 3500 
L 1894 763 
L 2988 3500 
L 3597 3500 
L 2059 -325 
z
" transform="scale(0.015625)"/>
     </defs>
     <use xlink:href="#DejaVuSans-67"/>
     <use xlink:href="#DejaVuSans-65" transform="translate(63.476562 0)"/>
     <use xlink:href="#DejaVuSans-74" transform="translate(125 0)"/>
     <use xlink:href="#DejaVuSans-5f" transform="translate(164.208984 0)"/>
     <use xlink:href="#DejaVuSans-73" transform="translate(214.208984 0)"/>
     <use xlink:href="#DejaVuSans-75" transform="translate(266.308594 0)"/>
     <use xlink:href="#DejaVuSans-62" transform="translate(329.6875 0)"/>
     <use xlink:href="#DejaVuSans-73" transform="translate(393.164062 0)"/>
     <use xlink:href="#DejaVuSans-63" transform="translate(445.263672 0)"/>
     <use xlink:href="#DejaVuSans-72" transform="translate(500.244141 0)"/>
     <use xlink:href="#DejaVuSans-69" transform="translate(541.357422 0)"/>
     <use xlink:href="#DejaVuSans-62" transform="translate(569.140625 0)"/>
     <use xlink:href="#DejaVuSans-65" transform="translate(632.617188 0)"/>
     <use xlink:href="#DejaVuSans-20" transform="translate(694.140625 0)"/>
     <use xlink:href="#DejaVuSans-68" transform="translate(725.927734 0)"/>
     <use xlink:href="#DejaVuSans-69" transform="translate(789.306641 0)"/>
     <use xlink:href="#DejaVuSans-73" transform="translate(817.089844 0)"/>
     <use xlink:href="#DejaVuSans-74" transform="translate(869.189453 0)"/>
     <use xlink:href="#DejaVuSans-6f" transform="translate(908.398438 0)"/>
     <use xlink:href="#DejaVuSans-72" transform="translate(969.580078 0)"/>
     <use xlink:href="#DejaVuSans-79" transform="translate(1010.693359 0)"/>
    </g>
   </g>
   <g id="legend_1">
    <g id="line2d_33">
     <path d="M 815.08 328.498438 
L 825.08 328.498438 
L 835.08 328.498438 
" style="fill: none; stroke: #1f77b4; stroke-width: 1.5; stroke-linecap: square"/>
    </g>
    <g id="text_17">
     <!-- star -->
     <g style="fill: #a9a9a9" transform="translate(843.08 331.998438) scale(0.1 -0.1)">
      <defs>
       <path id="DejaVuSans-61" d="M 2194 1759 
Q 1497 1759 1228 1600 
Q 959 1441 959 1056 
Q 959 750 1161 570 
Q 1363 391 1709 391 
Q 2188 391 2477 730 
Q 2766 1069 2766 1631 
L 2766 1759 
L 2194 1759 
z
M 3341 1997 
L 3341 0 
L 2766 0 
L 2766 531 
Q 2569 213 2275 61 
Q 1981 -91 1556 -91 
Q 1019 -91 701 211 
Q 384 513 384 1019 
Q 384 1609 779 1909 
Q 1175 2209 1959 2209 
L 2766 2209 
L 2766 2266 
Q 2766 2663 2505 2880 
Q 2244 3097 1772 3097 
Q 1472 3097 1187 3025 
Q 903 2953 641 2809 
L 641 3341 
Q 956 3463 1253 3523 
Q 1550 3584 1831 3584 
Q 2591 3584 2966 3190 
Q 3341 2797 3341 1997 
z
" transform="scale(0.015625)"/>
      </defs>
      <use xlink:href="#DejaVuSans-73"/>
      <use xlink:href="#DejaVuSans-74" transform="translate(52.099609 0)"/>
      <use xlink:href="#DejaVuSans-61" transform="translate(91.308594 0)"/>
      <use xlink:href="#DejaVuSans-72" transform="translate(152.587891 0)"/>
     </g>
    </g>
    <g id="line2d_34">
     <path d="M 815.08 343.176562 
L 825.08 343.176562 
L 835.08 343.176562 
" style="fill: none; stroke: #ff7f0e; stroke-width: 1.5; stroke-linecap: square"/>
    </g>
    <g id="text_18">
     <!-- fork -->
     <g style="fill: #a9a9a9" transform="translate(843.08 346.676562) scale(0.1 -0.1)">
      <defs>
       <path id="DejaVuSans-66" d="M 2375 4863 
L 2375 4384 
L 1825 4384 
Q 1516 4384 1395 4259 
Q 1275 4134 1275 3809 
L 1275 3500 
L 2222 3500 
L 2222 3053 
L 1275 3053 
L 1275 0 
L 697 0 
L 697 3053 
L 147 3053 
L 147 3500 
L 697 3500 
L 697 3744 
Q 697 4328 969 4595 
Q 1241 4863 1831 4863 
L 2375 4863 
z
" transform="scale(0.015625)"/>
       <path id="DejaVuSans-6b" d="M 581 4863 
L 1159 4863 
L 1159 1991 
L 2875 3500 
L 3609 3500 
L 1753 1863 
L 3688 0 
L 2938 0 
L 1159 1709 
L 1159 0 
L 581 0 
L 581 4863 
z
" transform="scale(0.015625)"/>
      </defs>
      <use xlink:href="#DejaVuSans-66"/>
      <use xlink:href="#DejaVuSans-6f" transform="translate(35.205078 0)"/>
      <use xlink:href="#DejaVuSans-72" transform="translate(96.386719 0)"/>
      <use xlink:href="#DejaVuSans-6b" transform="translate(137.5 0)"/>
     </g>
    </g>
   </g>
  </g>
 </g>
 <defs>
  <clipPath id="pc0e180a6d4">
   <rect x="108" y="43.2" width="669.6" height="277.2"/>
  </clipPath>
 </defs>
</svg>
