<?xml version="1.0" encoding="utf-8" standalone="no"?>
<!DOCTYPE svg PUBLIC "-//W3C//DTD SVG 1.1//EN"
  "http://www.w3.org/Graphics/SVG/1.1/DTD/svg11.dtd">
<svg xmlns:xlink="http://www.w3.org/1999/xlink" width="864pt" height="360pt" viewBox="0 0 864 360" xmlns="http://www.w3.org/2000/svg" version="1.1">
 <metadata>
  <rdf:RDF xmlns:dc="http://purl.org/dc/elements/1.1/" xmlns:cc="http://creativecommons.org/ns#" xmlns:rdf="http://www.w3.org/1999/02/22-rdf-syntax-ns#">
   <cc:Work>
    <dc:type rdf:resource="http://purl.org/dc/dcmitype/StillImage"/>
    <dc:date>2026-06-12T21:09:31.774536</dc:date>
    <dc:format>image/svg+xml</dc:format>
    <dc:creator>
     <cc:Agent>
      <dc:title>Matplotlib v3.11.0, https://matplotlib.org/</dc:title>
     </cc:Agent>
    </dc:creator>
   </cc:Work>
  </rdf:RDF>
 </metadata>
 <defs>
  <style type="text/css">*{stroke-linejoin: round; stroke-linecap: butt}</style>
 </defs>
 <g id="figure_1">
  <g id="patch_1">
   <path d="M 0 360 
L 864 360 
L 864 0 
L 0 0 
L 0 360 
z
" style="fill: none; opacity: 0"/>
  </g>
  <g id="axes_1">
   <g id="patch_2">
    <path d="M 108 320.4 
L 777.6 320.4 
L 777.6 43.2 
L 108 43.2 
L 108 320.4 
z
" style="fill: none; opacity: 0"/>
   </g>
   <g id="matplotlib.axis_1">
    <g id="xtick_1">
     <g id="line2d_1">
      <path d="M 193.371953 320.4 
L 193.371953 43.2 
" clip-path="url(#pa96bed1bd6)" style="fill: none; stroke-dasharray: 5.12,1.28,0.8,1.28; stroke-dashoffset: 0; stroke: #b0b0b0; stroke-width: 0.8"/>
     </g>
     <g id="line2d_2">
      <defs>
       <path id="m2c1ff3e03a" d="M 0 0 
L 0 3.5 
" style="stroke: #a9a9a9; stroke-width: 0.8"/>
      </defs>
      <g>
       <use xlink:href="#m2c1ff3e03a" x="193.371953" y="320.4" style="fill: #a9a9a9; stroke: #a9a9a9; stroke-width: 0.8"/>
      </g>
     </g>
     <g id="text_1">
      <!-- 2022 -->
      <g style="fill: #a9a9a9" transform="translate(180.646953 334.997656) scale(0.1 -0.1)">
       <defs>
        <path id="DejaVuSans-15" d="M 1228 531 
L 3431 531 
L 3431 0 
L 469 0 
L 469 531 
Q 828 903 1448 1529 
Q 2069 2156 2228 2338 
Q 2531 2678 2651 2914 
Q 2772 3150 2772 3378 
Q 2772 3750 2511 3984 
Q 2250 4219 1831 4219 
Q 1534 4219 1204 4116 
Q 875 4013 500 3803 
L 500 4441 
Q 881 4594 1212 4672 
Q 1544 4750 1819 4750 
Q 2544 4750 2975 4387 
Q 3406 4025 3406 3419 
Q 3406 3131 3298 2873 
Q 3191 2616 2906 2266 
Q 2828 2175 2409 1742 
Q 1991 1309 1228 531 
z
" transform="scale(0.015625)"/>
        <path id="DejaVuSans-13" d="M 2034 4250 
Q 1547 4250 1301 3770 
Q 1056 3291 1056 2328 
Q 1056 1369 1301 889 
Q 1547 409 2034 409 
Q 2525 409 2770 889 
Q 3016 1369 3016 2328 
Q 3016 3291 2770 3770 
Q 2525 4250 2034 4250 
z
M 2034 4750 
Q 2819 4750 3233 4129 
Q 3647 3509 3647 2328 
Q 3647 1150 3233 529 
Q 2819 -91 2034 -91 
Q 1250 -91 836 529 
Q 422 1150 422 2328 
Q 422 3509 836 4129 
Q 1250 4750 2034 4750 
z
" transform="scale(0.015625)"/>
       </defs>
       <use xlink:href="#DejaVuSans-15"/>
       <use xlink:href="#DejaVuSans-13" transform="translate(63.625 0)"/>
       <use xlink:href="#DejaVuSans-15" transform="translate(127.25 0)"/>
       <use xlink:href="#DejaVuSans-15" transform="translate(190.875 0)"/>
      </g>
     </g>
    </g>
    <g id="xtick_2">
     <g id="line2d_3">
      <path d="M 317.915369 320.4 
L 317.915369 43.2 
" clip-path="url(#pa96bed1bd6)" style="fill: none; stroke-dasharray: 5.12,1.28,0.8,1.28; stroke-dashoffset: 0; stroke: #b0b0b0; stroke-width: 0.8"/>
     </g>
     <g id="line2d_4">
      <g>
       <use xlink:href="#m2c1ff3e03a" x="317.915369" y="320.4" style="fill: #a9a9a9; stroke: #a9a9a9; stroke-width: 0.8"/>
      </g>
     </g>
     <g id="text_2">
      <!-- 2023 -->
      <g style="fill: #a9a9a9" transform="translate(305.190369 334.997656) scale(0.1 -0.1)">
       <defs>
        <path id="DejaVuSans-16" d="M 2597 2516 
Q 3050 2419 3304 2112 
Q 3559 1806 3559 1356 
Q 3559 666 3084 287 
Q 2609 -91 1734 -91 
Q 1441 -91 1130 -33 
Q 819 25 488 141 
L 488 750 
Q 750 597 1062 519 
Q 1375 441 1716 441 
Q 2309 441 2620 675 
Q 2931 909 2931 1356 
Q 2931 1769 2642 2001 
Q 2353 2234 1838 2234 
L 1294 2234 
L 1294 2753 
L 1863 2753 
Q 2328 2753 2575 2939 
Q 2822 3125 2822 3475 
Q 2822 3834 2567 4026 
Q 2313 4219 1838 4219 
Q 1578 4219 1281 4162 
Q 984 4106 628 3988 
L 628 4550 
Q 988 4650 1302 4700 
Q 1616 4750 1894 4750 
Q 2613 4750 3031 4423 
Q 3450 4097 3450 3541 
Q 3450 3153 3228 2886 
Q 3006 2619 2597 2516 
z
" transform="scale(0.015625)"/>
       </defs>
       <use xlink:href="#DejaVuSans-15"/>
       <use xlink:href="#DejaVuSans-13" transform="translate(63.625 0)"/>
       <use xlink:href="#DejaVuSans-15" transform="translate(127.25 0)"/>
       <use xlink:href="#DejaVuSans-16" transform="translate(190.875 0)"/>
      </g>
     </g>
    </g>
    <g id="xtick_3">
     <g id="line2d_5">
      <path d="M 442.458785 320.4 
L 442.458785 43.2 
" clip-path="url(#pa96bed1bd6)" style="fill: none; stroke-dasharray: 5.12,1.28,0.8,1.28; stroke-dashoffset: 0; stroke: #b0b0b0; stroke-width: 0.8"/>
     </g>
     <g id="line2d_6">
      <g>
       <use xlink:href="#m2c1ff3e03a" x="442.458785" y="320.4" style="fill: #a9a9a9; stroke: #a9a9a9; stroke-width: 0.8"/>
      </g>
     </g>
     <g id="text_3">
      <!-- 2024 -->
      <g style="fill: #a9a9a9" transform="translate(429.733785 334.997656) scale(0.1 -0.1)">
       <defs>
        <path id="DejaVuSans-17" d="M 2419 4116 
L 825 1625 
L 2419 1625 
L 2419 4116 
z
M 2253 4666 
L 3047 4666 
L 3047 1625 
L 3713 1625 
L 3713 1100 
L 3047 1100 
L 3047 0 
L 2419 0 
L 2419 1100 
L 313 1100 
L 313 1709 
L 2253 4666 
z
" transform="scale(0.015625)"/>
       </defs>
       <use xlink:href="#DejaVuSans-15"/>
       <use xlink:href="#DejaVuSans-13" transform="translate(63.625 0)"/>
       <use xlink:href="#DejaVuSans-15" transform="translate(127.25 0)"/>
       <use xlink:href="#DejaVuSans-17" transform="translate(190.875 0)"/>
      </g>
     </g>
    </g>
    <g id="xtick_4">
     <g id="line2d_7">
      <path d="M 567.343416 320.4 
L 567.343416 43.2 
" clip-path="url(#pa96bed1bd6)" style="fill: none; stroke-dasharray: 5.12,1.28,0.8,1.28; stroke-dashoffset: 0; stroke: #b0b0b0; stroke-width: 0.8"/>
     </g>
     <g id="line2d_8">
      <g>
       <use xlink:href="#m2c1ff3e03a" x="567.343416" y="320.4" style="fill: #a9a9a9; stroke: #a9a9a9; stroke-width: 0.8"/>
      </g>
     </g>
     <g id="text_4">
      <!-- 2025 -->
      <g style="fill: #a9a9a9" transform="translate(554.618416 334.997656) scale(0.1 -0.1)">
       <defs>
        <path id="DejaVuSans-18" d="M 691 4666 
L 3169 4666 
L 3169 4134 
L 1269 4134 
L 1269 2991 
Q 1406 3038 1543 3061 
Q 1681 3084 1819 3084 
Q 2600 3084 3056 2656 
Q 3513 2228 3513 1497 
Q 3513 744 3044 326 
Q 2575 -91 1722 -91 
Q 1428 -91 1123 -41 
Q 819 9 494 109 
L 494 744 
Q 775 591 1075 516 
Q 1375 441 1709 441 
Q 2250 441 2565 725 
Q 2881 1009 2881 1497 
Q 2881 1984 2565 2268 
Q 2250 2553 1709 2553 
Q 1456 2553 1204 2497 
Q 953 2441 691 2322 
L 691 4666 
z
" transform="scale(0.015625)"/>
       </defs>
       <use xlink:href="#DejaVuSans-15"/>
       <use xlink:href="#DejaVuSans-13" transform="translate(63.625 0)"/>
       <use xlink:href="#DejaVuSans-15" transform="translate(127.25 0)"/>
       <use xlink:href="#DejaVuSans-18" transform="translate(190.875 0)"/>
      </g>
     </g>
    </g>
    <g id="xtick_5">
     <g id="line2d_9">
      <path d="M 691.886832 320.4 
L 691.886832 43.2 
" clip-path="url(#pa96bed1bd6)" style="fill: none; stroke-dasharray: 5.12,1.28,0.8,1.28; stroke-dashoffset: 0; stroke: #b0b0b0; stroke-width: 0.8"/>
     </g>
     <g id="line2d_10">
      <g>
       <use xlink:href="#m2c1ff3e03a" x="691.886832" y="320.4" style="fill: #a9a9a9; stroke: #a9a9a9; stroke-width: 0.8"/>
      </g>
     </g>
     <g id="text_5">
      <!-- 2026 -->
      <g style="fill: #a9a9a9" transform="translate(679.161832 334.997656) scale(0.1 -0.1)">
       <defs>
        <path id="DejaVuSans-19" d="M 2113 2584 
Q 1688 2584 1439 2293 
Q 1191 2003 1191 1497 
Q 1191 994 1439 701 
Q 1688 409 2113 409 
Q 2538 409 2786 701 
Q 3034 994 3034 1497 
Q 3034 2003 2786 2293 
Q 2538 2584 2113 2584 
z
M 3366 4563 
L 3366 3988 
Q 3128 4100 2886 4159 
Q 2644 4219 2406 4219 
Q 1781 4219 1451 3797 
Q 1122 3375 1075 2522 
Q 1259 2794 1537 2939 
Q 1816 3084 2150 3084 
Q 2853 3084 3261 2657 
Q 3669 2231 3669 1497 
Q 3669 778 3244 343 
Q 2819 -91 2113 -91 
Q 1303 -91 875 529 
Q 447 1150 447 2328 
Q 447 3434 972 4092 
Q 1497 4750 2381 4750 
Q 2619 4750 2861 4703 
Q 3103 4656 3366 4563 
z
" transform="scale(0.015625)"/>
       </defs>
       <use xlink:href="#DejaVuSans-15"/>
       <use xlink:href="#DejaVuSans-13" transform="translate(63.625 0)"/>
       <use xlink:href="#DejaVuSans-15" transform="translate(127.25 0)"/>
       <use xlink:href="#DejaVuSans-19" transform="translate(190.875 0)"/>
      </g>
     </g>
    </g>
   </g>
   <g id="matplotlib.axis_2">
    <g id="ytick_1">
     <g id="line2d_11">
      <path d="M 108 307.827919 
L 777.6 307.827919 
" clip-path="url(#pa96bed1bd6)" style="fill: none; stroke-dasharray: 5.12,1.28,0.8,1.28; stroke-dashoffset: 0; stroke: #b0b0b0; stroke-width: 0.8"/>
     </g>
     <g id="line2d_12">
      <defs>
       <path id="m9bf35f6df2" d="M 0 0 
L -3.5 0 
" style="stroke: #a9a9a9; stroke-width: 0.8"/>
      </defs>
      <g>
       <use xlink:href="#m9bf35f6df2" x="108" y="307.827919" style="fill: #a9a9a9; stroke: #a9a9a9; stroke-width: 0.8"/>
      </g>
     </g>
     <g id="text_6">
      <!-- 0 -->
      <g style="fill: #a9a9a9" transform="translate(94.6375 311.626747) scale(0.1 -0.1)">
       <use xlink:href="#DejaVuSans-13"/>
      </g>
     </g>
    </g>
    <g id="ytick_2">
     <g id="line2d_13">
      <path d="M 108 279.908575 
L 777.6 279.908575 
" clip-path="url(#pa96bed1bd6)" style="fill: none; stroke-dasharray: 5.12,1.28,0.8,1.28; stroke-dashoffset: 0; stroke: #b0b0b0; stroke-width: 0.8"/>
     </g>
     <g id="line2d_14">
      <g>
       <use xlink:href="#m9bf35f6df2" x="108" y="279.908575" style="fill: #a9a9a9; stroke: #a9a9a9; stroke-width: 0.8"/>
      </g>
     </g>
     <g id="text_7">
      <!-- 1000 -->
      <g style="fill: #a9a9a9" transform="translate(75.55 283.707403) scale(0.1 -0.1)">
       <defs>
        <path id="DejaVuSans-14" d="M 794 531 
L 1825 531 
L 1825 4091 
L 703 3866 
L 703 4441 
L 1819 4666 
L 2450 4666 
L 2450 531 
L 3481 531 
L 3481 0 
L 794 0 
L 794 531 
z
" transform="scale(0.015625)"/>
       </defs>
       <use xlink:href="#DejaVuSans-14"/>
       <use xlink:href="#DejaVuSans-13" transform="translate(63.625 0)"/>
       <use xlink:href="#DejaVuSans-13" transform="translate(127.25 0)"/>
       <use xlink:href="#DejaVuSans-13" transform="translate(190.875 0)"/>
      </g>
     </g>
    </g>
    <g id="ytick_3">
     <g id="line2d_15">
      <path d="M 108 251.989231 
L 777.6 251.989231 
" clip-path="url(#pa96bed1bd6)" style="fill: none; stroke-dasharray: 5.12,1.28,0.8,1.28; stroke-dashoffset: 0; stroke: #b0b0b0; stroke-width: 0.8"/>
     </g>
     <g id="line2d_16">
      <g>
       <use xlink:href="#m9bf35f6df2" x="108" y="251.989231" style="fill: #a9a9a9; stroke: #a9a9a9; stroke-width: 0.8"/>
      </g>
     </g>
     <g id="text_8">
      <!-- 2000 -->
      <g style="fill: #a9a9a9" transform="translate(75.55 255.788059) scale(0.1 -0.1)">
       <use xlink:href="#DejaVuSans-15"/>
       <use xlink:href="#DejaVuSans-13" transform="translate(63.625 0)"/>
       <use xlink:href="#DejaVuSans-13" transform="translate(127.25 0)"/>
       <use xlink:href="#DejaVuSans-13" transform="translate(190.875 0)"/>
      </g>
     </g>
    </g>
    <g id="ytick_4">
     <g id="line2d_17">
      <path d="M 108 224.069887 
L 777.6 224.069887 
" clip-path="url(#pa96bed1bd6)" style="fill: none; stroke-dasharray: 5.12,1.28,0.8,1.28; stroke-dashoffset: 0; stroke: #b0b0b0; stroke-width: 0.8"/>
     </g>
     <g id="line2d_18">
      <g>
       <use xlink:href="#m9bf35f6df2" x="108" y="224.069887" style="fill: #a9a9a9; stroke: #a9a9a9; stroke-width: 0.8"/>
      </g>
     </g>
     <g id="text_9">
      <!-- 3000 -->
      <g style="fill: #a9a9a9" transform="translate(75.55 227.868715) scale(0.1 -0.1)">
       <use xlink:href="#DejaVuSans-16"/>
       <use xlink:href="#DejaVuSans-13" transform="translate(63.625 0)"/>
       <use xlink:href="#DejaVuSans-13" transform="translate(127.25 0)"/>
       <use xlink:href="#DejaVuSans-13" transform="translate(190.875 0)"/>
      </g>
     </g>
    </g>
    <g id="ytick_5">
     <g id="line2d_19">
      <path d="M 108 196.150543 
L 777.6 196.150543 
" clip-path="url(#pa96bed1bd6)" style="fill: none; stroke-dasharray: 5.12,1.28,0.8,1.28; stroke-dashoffset: 0; stroke: #b0b0b0; stroke-width: 0.8"/>
     </g>
     <g id="line2d_20">
      <g>
       <use xlink:href="#m9bf35f6df2" x="108" y="196.150543" style="fill: #a9a9a9; stroke: #a9a9a9; stroke-width: 0.8"/>
      </g>
     </g>
     <g id="text_10">
      <!-- 4000 -->
      <g style="fill: #a9a9a9" transform="translate(75.55 199.949371) scale(0.1 -0.1)">
       <use xlink:href="#DejaVuSans-17"/>
       <use xlink:href="#DejaVuSans-13" transform="translate(63.625 0)"/>
       <use xlink:href="#DejaVuSans-13" transform="translate(127.25 0)"/>
       <use xlink:href="#DejaVuSans-13" transform="translate(190.875 0)"/>
      </g>
     </g>
    </g>
    <g id="ytick_6">
     <g id="line2d_21">
      <path d="M 108 168.231199 
L 777.6 168.231199 
" clip-path="url(#pa96bed1bd6)" style="fill: none; stroke-dasharray: 5.12,1.28,0.8,1.28; stroke-dashoffset: 0; stroke: #b0b0b0; stroke-width: 0.8"/>
     </g>
     <g id="line2d_22">
      <g>
       <use xlink:href="#m9bf35f6df2" x="108" y="168.231199" style="fill: #a9a9a9; stroke: #a9a9a9; stroke-width: 0.8"/>
      </g>
     </g>
     <g id="text_11">
      <!-- 5000 -->
      <g style="fill: #a9a9a9" transform="translate(75.55 172.030027) scale(0.1 -0.1)">
       <use xlink:href="#DejaVuSans-18"/>
       <use xlink:href="#DejaVuSans-13" transform="translate(63.625 0)"/>
       <use xlink:href="#DejaVuSans-13" transform="translate(127.25 0)"/>
       <use xlink:href="#DejaVuSans-13" transform="translate(190.875 0)"/>
      </g>
     </g>
    </g>
    <g id="ytick_7">
     <g id="line2d_23">
      <path d="M 108 140.311855 
L 777.6 140.311855 
" clip-path="url(#pa96bed1bd6)" style="fill: none; stroke-dasharray: 5.12,1.28,0.8,1.28; stroke-dashoffset: 0; stroke: #b0b0b0; stroke-width: 0.8"/>
     </g>
     <g id="line2d_24">
      <g>
       <use xlink:href="#m9bf35f6df2" x="108" y="140.311855" style="fill: #a9a9a9; stroke: #a9a9a9; stroke-width: 0.8"/>
      </g>
     </g>
     <g id="text_12">
      <!-- 6000 -->
      <g style="fill: #a9a9a9" transform="translate(75.55 144.110683) scale(0.1 -0.1)">
       <use xlink:href="#DejaVuSans-19"/>
       <use xlink:href="#DejaVuSans-13" transform="translate(63.625 0)"/>
       <use xlink:href="#DejaVuSans-13" transform="translate(127.25 0)"/>
       <use xlink:href="#DejaVuSans-13" transform="translate(190.875 0)"/>
      </g>
     </g>
    </g>
    <g id="ytick_8">
     <g id="line2d_25">
      <path d="M 108 112.392511 
L 777.6 112.392511 
" clip-path="url(#pa96bed1bd6)" style="fill: none; stroke-dasharray: 5.12,1.28,0.8,1.28; stroke-dashoffset: 0; stroke: #b0b0b0; stroke-width: 0.8"/>
     </g>
     <g id="line2d_26">
      <g>
       <use xlink:href="#m9bf35f6df2" x="108" y="112.392511" style="fill: #a9a9a9; stroke: #a9a9a9; stroke-width: 0.8"/>
      </g>
     </g>
     <g id="text_13">
      <!-- 7000 -->
      <g style="fill: #a9a9a9" transform="translate(75.55 116.191339) scale(0.1 -0.1)">
       <defs>
        <path id="DejaVuSans-1a" d="M 525 4666 
L 3525 4666 
L 3525 4397 
L 1831 0 
L 1172 0 
L 2766 4134 
L 525 4134 
L 525 4666 
z
" transform="scale(0.015625)"/>
       </defs>
       <use xlink:href="#DejaVuSans-1a"/>
       <use xlink:href="#DejaVuSans-13" transform="translate(63.625 0)"/>
       <use xlink:href="#DejaVuSans-13" transform="translate(127.25 0)"/>
       <use xlink:href="#DejaVuSans-13" transform="translate(190.875 0)"/>
      </g>
     </g>
    </g>
    <g id="ytick_9">
     <g id="line2d_27">
      <path d="M 108 84.473166 
L 777.6 84.473166 
" clip-path="url(#pa96bed1bd6)" style="fill: none; stroke-dasharray: 5.12,1.28,0.8,1.28; stroke-dashoffset: 0; stroke: #b0b0b0; stroke-width: 0.8"/>
     </g>
     <g id="line2d_28">
      <g>
       <use xlink:href="#m9bf35f6df2" x="108" y="84.473166" style="fill: #a9a9a9; stroke: #a9a9a9; stroke-width: 0.8"/>
      </g>
     </g>
     <g id="text_14">
      <!-- 8000 -->
      <g style="fill: #a9a9a9" transform="translate(75.55 88.271995) scale(0.1 -0.1)">
       <defs>
        <path id="DejaVuSans-1b" d="M 2034 2216 
Q 1584 2216 1326 1975 
Q 1069 1734 1069 1313 
Q 1069 891 1326 650 
Q 1584 409 2034 409 
Q 2484 409 2743 651 
Q 3003 894 3003 1313 
Q 3003 1734 2745 1975 
Q 2488 2216 2034 2216 
z
M 1403 2484 
Q 997 2584 770 2862 
Q 544 3141 544 3541 
Q 544 4100 942 4425 
Q 1341 4750 2034 4750 
Q 2731 4750 3128 4425 
Q 3525 4100 3525 3541 
Q 3525 3141 3298 2862 
Q 3072 2584 2669 2484 
Q 3125 2378 3379 2068 
Q 3634 1759 3634 1313 
Q 3634 634 3220 271 
Q 2806 -91 2034 -91 
Q 1263 -91 848 271 
Q 434 634 434 1313 
Q 434 1759 690 2068 
Q 947 2378 1403 2484 
z
M 1172 3481 
Q 1172 3119 1398 2916 
Q 1625 2713 2034 2713 
Q 2441 2713 2670 2916 
Q 2900 3119 2900 3481 
Q 2900 3844 2670 4047 
Q 2441 4250 2034 4250 
Q 1625 4250 1398 4047 
Q 1172 3844 1172 3481 
z
" transform="scale(0.015625)"/>
       </defs>
       <use xlink:href="#DejaVuSans-1b"/>
       <use xlink:href="#DejaVuSans-13" transform="translate(63.625 0)"/>
       <use xlink:href="#DejaVuSans-13" transform="translate(127.25 0)"/>
       <use xlink:href="#DejaVuSans-13" transform="translate(190.875 0)"/>
      </g>
     </g>
    </g>
    <g id="ytick_10">
     <g id="line2d_29">
      <path d="M 108 56.553822 
L 777.6 56.553822 
" clip-path="url(#pa96bed1bd6)" style="fill: none; stroke-dasharray: 5.12,1.28,0.8,1.28; stroke-dashoffset: 0; stroke: #b0b0b0; stroke-width: 0.8"/>
     </g>
     <g id="line2d_30">
      <g>
       <use xlink:href="#m9bf35f6df2" x="108" y="56.553822" style="fill: #a9a9a9; stroke: #a9a9a9; stroke-width: 0.8"/>
      </g>
     </g>
     <g id="text_15">
      <!-- 9000 -->
      <g style="fill: #a9a9a9" transform="translate(75.55 60.35265) scale(0.1 -0.1)">
       <defs>
        <path id="DejaVuSans-1c" d="M 703 97 
L 703 672 
Q 941 559 1184 500 
Q 1428 441 1663 441 
Q 2288 441 2617 861 
Q 2947 1281 2994 2138 
Q 2813 1869 2534 1725 
Q 2256 1581 1919 1581 
Q 1219 1581 811 2004 
Q 403 2428 403 3163 
Q 403 3881 828 4315 
Q 1253 4750 1959 4750 
Q 2769 4750 3195 4129 
Q 3622 3509 3622 2328 
Q 3622 1225 3098 567 
Q 2575 -91 1691 -91 
Q 1453 -91 1209 -44 
Q 966 3 703 97 
z
M 1959 2075 
Q 2384 2075 2632 2365 
Q 2881 2656 2881 3163 
Q 2881 3666 2632 3958 
Q 2384 4250 1959 4250 
Q 1534 4250 1286 3958 
Q 1038 3666 1038 3163 
Q 1038 2656 1286 2365 
Q 1534 2075 1959 2075 
z
" transform="scale(0.015625)"/>
       </defs>
       <use xlink:href="#DejaVuSans-1c"/>
       <use xlink:href="#DejaVuSans-13" transform="translate(63.625 0)"/>
       <use xlink:href="#DejaVuSans-13" transform="translate(127.25 0)"/>
       <use xlink:href="#DejaVuSans-13" transform="translate(190.875 0)"/>
      </g>
     </g>
    </g>
   </g>
   <g id="line2d_31">
    <path d="M 138.436364 307.744161 
L 140.483653 307.548726 
L 140.824868 307.38121 
L 142.189727 307.185774 
L 146.284305 306.431952 
L 146.62552 306.320275 
L 146.966735 305.817727 
L 147.307949 305.566452 
L 147.649164 304.728872 
L 147.990379 304.673033 
L 151.402528 302.244051 
L 152.767387 301.546067 
L 153.108602 300.959761 
L 153.791031 300.401374 
L 154.473461 300.178019 
L 155.497106 300.010503 
L 164.368691 298.502858 
L 164.709906 298.307423 
L 165.392336 298.084068 
L 167.09841 297.749036 
L 167.78084 297.609439 
L 171.534203 296.883536 
L 172.557848 296.604343 
L 173.922707 296.408908 
L 174.605137 296.185553 
L 174.946351 295.655085 
L 175.969996 295.208376 
L 176.99364 294.901263 
L 177.334855 294.705828 
L 178.017285 294.566231 
L 179.723359 294.119521 
L 180.747004 293.868247 
L 182.111863 293.533215 
L 182.453078 293.505296 
L 183.135508 293.170264 
L 183.476722 293.114425 
L 183.817937 292.91899 
L 188.25373 292.109329 
L 189.618589 291.467184 
L 190.301019 291.271748 
L 190.983449 290.964635 
L 191.665879 290.462087 
L 193.371953 290.071216 
L 194.054382 289.819942 
L 194.395597 289.764104 
L 195.078027 289.401152 
L 197.807746 288.64733 
L 198.83139 288.22854 
L 199.172605 288.172701 
L 199.855035 287.865588 
L 200.537464 287.837669 
L 201.561109 287.502637 
L 201.902324 287.502637 
L 202.243539 287.335121 
L 202.925968 287.251363 
L 203.267183 287.111766 
L 204.973257 287.028008 
L 205.314472 286.94425 
L 205.996902 286.553379 
L 207.020546 286.162508 
L 207.702976 285.771637 
L 208.72662 285.297009 
L 210.09148 284.599025 
L 210.432695 284.208154 
L 211.115124 283.035542 
L 212.138769 282.70051 
L 212.479984 282.421316 
L 213.503628 282.058365 
L 213.844843 281.695413 
L 214.868488 281.248704 
L 215.209702 281.053268 
L 217.256991 278.540527 
L 217.939421 278.205495 
L 219.30428 277.200399 
L 219.98671 276.697851 
L 220.327925 276.167383 
L 220.66914 275.301883 
L 221.010355 274.743497 
L 223.057644 273.040417 
L 224.081288 272.091159 
L 224.763718 271.169821 
L 225.446148 270.639353 
L 226.469792 269.941369 
L 226.811007 269.606337 
L 227.493437 269.382982 
L 228.517081 268.740838 
L 229.540726 267.987015 
L 230.905585 266.646887 
L 231.588015 266.339774 
L 232.270444 265.837226 
L 232.611659 265.64179 
L 232.952874 265.585952 
L 233.976519 264.971726 
L 234.317733 264.552936 
L 236.023808 263.54784 
L 236.365022 263.408243 
L 237.388667 262.626501 
L 242.50689 260.616308 
L 243.189319 259.918325 
L 244.212964 259.359938 
L 244.895393 258.885309 
L 245.577823 258.661954 
L 245.919038 258.41068 
L 246.260253 258.299003 
L 247.283897 257.545181 
L 249.331186 256.930955 
L 250.013616 256.484246 
L 251.378475 256.149213 
L 252.40212 255.367472 
L 253.766979 254.948682 
L 254.449409 254.529891 
L 255.473053 254.111101 
L 256.837913 253.776069 
L 257.520342 253.468956 
L 259.908846 252.519699 
L 260.591276 252.435941 
L 261.956135 251.877554 
L 265.709499 249.839442 
L 266.391928 249.504409 
L 267.074358 249.169377 
L 267.756788 249.029781 
L 268.439217 248.583071 
L 269.121647 248.387636 
L 270.145291 247.940926 
L 271.851366 247.550055 
L 272.192581 247.35462 
L 272.533795 247.019588 
L 272.87501 246.349524 
L 274.23987 245.958653 
L 275.604729 245.288589 
L 278.675662 243.808863 
L 279.358092 243.641347 
L 280.381737 243.08296 
L 281.064166 242.859606 
L 282.087811 242.357057 
L 283.111455 241.603235 
L 284.81753 241.268203 
L 285.499959 240.98901 
L 285.841174 240.96109 
L 286.182389 240.681897 
L 286.864819 240.430623 
L 288.570893 239.6768 
L 288.912108 239.397607 
L 289.253322 239.28593 
L 289.935752 238.867139 
L 291.641826 238.197075 
L 293.689115 236.633592 
L 294.03033 236.577753 
L 294.371545 235.963528 
L 294.71276 235.823931 
L 295.053975 235.516818 
L 295.39519 235.460979 
L 296.077619 234.986351 
L 296.760049 234.735076 
L 298.466123 233.590383 
L 301.195842 232.250255 
L 301.537057 231.60811 
L 302.219486 231.049723 
L 302.901916 230.77053 
L 303.243131 230.519255 
L 303.584346 230.435497 
L 304.266775 230.072546 
L 305.631635 229.346643 
L 306.314064 228.704498 
L 306.996494 228.090273 
L 307.678924 227.643563 
L 308.361353 227.001418 
L 309.043783 226.415112 
L 309.384998 226.247596 
L 310.067428 225.521693 
L 311.091072 225.019145 
L 311.773502 224.600355 
L 312.114717 224.488677 
L 312.455932 224.209484 
L 312.797146 224.153645 
L 315.86808 222.478484 
L 316.55051 222.283049 
L 317.915369 221.80842 
L 318.597799 221.333791 
L 319.962658 220.803324 
L 320.645088 220.384534 
L 321.327517 220.10534 
L 322.009947 219.574873 
L 322.692377 218.150986 
L 323.374806 217.313406 
L 324.398451 216.755019 
L 325.080881 216.447906 
L 325.422095 216.392067 
L 326.104525 216.057035 
L 327.810599 215.41489 
L 328.493029 214.940261 
L 329.516673 214.493552 
L 330.881533 213.628052 
L 331.222748 213.376778 
L 331.905177 212.706714 
L 332.928822 212.176246 
L 333.611252 211.757456 
L 334.976111 210.947795 
L 335.317326 210.864037 
L 335.658541 210.584844 
L 338.047044 209.747263 
L 338.388259 209.495989 
L 339.070689 209.272635 
L 342.824052 207.3462 
L 343.506482 206.787813 
L 344.188912 206.592378 
L 344.530126 206.257345 
L 344.871341 206.201507 
L 345.553771 205.64312 
L 347.259845 204.554265 
L 347.942275 204.330911 
L 348.28349 204.107556 
L 348.965919 203.884201 
L 349.989564 203.381653 
L 351.013208 203.018702 
L 351.695638 202.907024 
L 352.719283 202.488234 
L 354.766572 201.846089 
L 355.790216 201.092267 
L 356.472646 200.701396 
L 357.837505 200.003412 
L 358.86115 199.277509 
L 359.543579 199.109993 
L 360.567224 198.439929 
L 363.638157 197.323155 
L 364.320587 197.071881 
L 365.685446 196.764768 
L 366.367876 196.541414 
L 368.07395 195.927188 
L 369.097595 195.592156 
L 369.780024 195.42464 
L 373.192173 194.754576 
L 375.239462 194.168269 
L 375.921892 193.861157 
L 376.263106 193.72156 
L 376.604321 193.72156 
L 381.722544 191.990561 
L 382.063759 191.59969 
L 384.111048 190.678351 
L 385.475907 190.175803 
L 385.817122 189.952448 
L 387.523196 189.421981 
L 387.864411 189.170707 
L 388.205626 189.086949 
L 388.546841 188.779836 
L 389.570485 188.556481 
L 390.252915 188.221449 
L 390.59413 187.77474 
L 397.418426 186.155418 
L 397.759641 186.155418 
L 399.124501 185.708708 
L 405.266368 183.670596 
L 405.607583 183.419322 
L 407.313657 182.888854 
L 408.678516 182.24671 
L 410.043375 182.079193 
L 417.891317 178.980146 
L 419.597391 178.477598 
L 420.279821 178.114647 
L 421.303465 177.863372 
L 422.668325 176.662841 
L 425.056828 175.573986 
L 427.445332 174.485132 
L 428.468977 174.12218 
L 429.492621 173.591713 
L 432.22234 172.139907 
L 432.90477 171.804875 
L 433.245985 171.525681 
L 434.269629 171.078972 
L 435.634488 170.353069 
L 436.999348 169.794682 
L 439.387852 168.873344 
L 440.070281 168.789586 
L 440.411496 168.538312 
L 442.11757 168.147441 
L 444.164859 167.086506 
L 448.600652 164.992555 
L 449.624297 164.629603 
L 449.965512 164.378329 
L 450.647941 164.294571 
L 450.989156 164.071216 
L 451.671586 163.959539 
L 455.424949 162.507733 
L 457.472238 161.893508 
L 458.495883 161.446798 
L 459.178312 161.055927 
L 460.543172 160.302105 
L 461.225601 160.134589 
L 461.566816 159.911234 
L 461.908031 159.855396 
L 463.614105 158.961977 
L 468.049898 157.203058 
L 468.391113 157.147219 
L 469.755972 156.449236 
L 470.438402 156.309639 
L 471.120832 155.890849 
L 472.485691 155.192865 
L 477.945128 153.070995 
L 478.627558 152.763882 
L 479.992417 151.56335 
L 481.016062 151.14456 
L 483.404566 149.916109 
L 483.745781 149.664835 
L 484.42821 149.4694 
L 485.11064 149.078529 
L 486.134285 148.827255 
L 495.6883 144.834788 
L 496.029515 144.583514 
L 496.37073 144.499756 
L 497.053159 144.136805 
L 497.735589 143.91345 
L 498.076804 143.578418 
L 499.100448 143.159628 
L 499.441663 143.103789 
L 500.806523 142.433725 
L 501.830167 142.098693 
L 502.853812 141.707822 
L 503.877456 141.400709 
L 504.218671 141.34487 
L 504.901101 140.954 
L 505.242316 140.814403 
L 505.58353 140.535209 
L 506.607175 140.256016 
L 507.289605 139.976823 
L 507.972034 139.66971 
L 509.336894 139.083404 
L 511.725397 138.469178 
L 512.407827 138.189984 
L 516.502405 137.129049 
L 518.890909 135.677244 
L 519.232124 135.39805 
L 521.620628 134.616308 
L 522.303057 134.197518 
L 524.691561 133.332019 
L 525.715206 132.996986 
L 526.397636 132.606116 
L 527.080065 132.466519 
L 527.42128 132.271084 
L 528.444925 131.99189 
L 529.809784 131.321826 
L 530.492214 131.042632 
L 531.857073 130.484246 
L 532.198288 130.149213 
L 532.880717 129.925859 
L 533.563147 129.562907 
L 534.928007 129.255794 
L 536.975296 128.697407 
L 537.31651 128.669488 
L 538.340155 128.250698 
L 539.705014 127.859827 
L 540.387444 127.30144 
L 541.752303 126.491779 
L 542.775948 126.156747 
L 545.846881 124.593264 
L 546.188096 124.31407 
L 548.235385 123.699845 
L 548.917815 123.420651 
L 549.941459 123.0577 
L 550.282674 122.750587 
L 552.671178 121.857168 
L 553.694823 121.382539 
L 554.036038 121.35462 
L 554.718467 121.075427 
L 556.083327 120.461201 
L 558.813045 119.679459 
L 559.83669 119.20483 
L 561.201549 118.78604 
L 561.542764 118.78604 
L 562.225194 118.506847 
L 562.907623 118.115976 
L 571.437994 115.4078 
L 571.779209 115.37988 
L 573.144068 114.821493 
L 574.850143 114.458542 
L 576.215002 113.928074 
L 576.897432 113.844316 
L 578.603506 113.509284 
L 579.285936 113.174252 
L 579.968365 112.811301 
L 581.333225 112.364591 
L 585.769018 110.661511 
L 586.792662 110.29856 
L 588.498736 109.377221 
L 589.181166 109.293463 
L 591.56967 108.59548 
L 593.275744 108.232528 
L 599.758826 105.636029 
L 600.441256 105.524352 
L 601.123685 105.384755 
L 601.4649 105.384755 
L 602.488545 105.049723 
L 604.194619 104.547175 
L 605.559478 104.100465 
L 610.336486 102.872014 
L 610.677701 102.62074 
L 612.04256 102.313627 
L 612.72499 102.006515 
L 614.772279 101.280612 
L 615.454709 101.057257 
L 619.890501 99.884644 
L 621.93779 99.158741 
L 622.62022 99.102903 
L 625.008724 98.432838 
L 626.032369 98.097806 
L 626.714798 97.483581 
L 629.785732 96.25513 
L 630.468161 96.143452 
L 633.19788 95.222114 
L 634.221525 94.635808 
L 634.56274 94.55205 
L 634.903954 94.300776 
L 636.610029 93.770308 
L 638.316103 92.988566 
L 638.998532 92.569776 
L 639.339747 92.486018 
L 640.022177 92.095147 
L 642.751896 91.090051 
L 643.09311 90.782938 
L 643.434325 90.727099 
L 644.116755 90.28039 
L 645.1404 89.973277 
L 646.505259 89.386971 
L 646.846474 89.359052 
L 648.552548 88.688987 
L 649.234978 88.549391 
L 649.917407 88.046842 
L 650.258622 88.046842 
L 651.623481 87.544294 
L 652.988341 87.265101 
L 654.3532 86.650875 
L 654.694415 86.650875 
L 657.082919 85.924972 
L 657.765349 85.366585 
L 660.836282 84.221892 
L 662.201141 83.88686 
L 665.272075 83.021361 
L 666.636934 82.518812 
L 668.001794 82.2117 
L 670.390298 81.513716 
L 671.072727 81.374119 
L 673.802446 80.341103 
L 674.484876 80.201507 
L 675.849735 79.950233 
L 676.532165 79.838555 
L 677.897024 79.280168 
L 678.579454 79.084733 
L 679.261883 78.973056 
L 680.626743 78.554265 
L 680.967958 78.554265 
L 681.650387 78.163395 
L 684.721321 77.325814 
L 693.934121 73.472945 
L 694.275336 73.24959 
L 694.616551 73.165832 
L 694.957766 72.942477 
L 695.298981 72.886639 
L 695.981411 72.467848 
L 698.0287 72.049058 
L 698.369914 71.797784 
L 702.123278 70.485575 
L 702.805707 70.122624 
L 704.170567 69.564237 
L 706.217856 68.950011 
L 707.92393 68.726656 
L 709.630004 68.391624 
L 710.653649 67.833237 
L 711.336078 67.609883 
L 712.018508 67.442366 
L 712.700938 67.30277 
L 713.383367 66.967738 
L 718.50159 64.957545 
L 719.866449 64.622513 
L 720.548879 64.371239 
L 720.890094 64.371239 
L 721.231309 64.203723 
L 722.937383 63.980368 
L 723.278598 63.729094 
L 724.643457 63.394062 
L 724.984672 63.114868 
L 725.325887 63.086949 
L 726.008316 62.779836 
L 726.349531 62.696078 
L 727.031961 62.305207 
L 729.76168 61.020917 
L 730.444109 60.741724 
L 731.467754 60.406692 
L 736.927191 58.954886 
L 738.292051 58.619854 
L 738.97448 58.452338 
L 739.65691 58.228983 
L 740.33934 58.089386 
L 741.021769 57.838112 
L 741.362984 57.698515 
L 742.045414 57.670596 
L 743.751488 57.08429 
L 744.092703 56.749258 
L 745.457562 56.414226 
L 746.139992 56.274629 
L 746.481207 55.967516 
L 747.163636 55.8 
L 747.163636 55.8 
" clip-path="url(#pa96bed1bd6)" style="fill: none; stroke: #1f77b4; stroke-width: 1.5; stroke-linecap: square"/>
   </g>
   <g id="line2d_32">
    <path d="M 138.777578 307.8 
L 141.848512 307.716242 
L 144.578231 307.576645 
L 145.94309 307.576645 
L 146.62552 307.464968 
L 154.814676 306.878662 
L 157.544395 306.794904 
L 159.250469 306.739065 
L 163.686262 306.655307 
L 165.392336 306.599468 
L 168.463269 306.51571 
L 169.828129 306.487791 
L 173.240277 306.404033 
L 174.605137 306.292355 
L 175.969996 306.264436 
L 178.017285 306.180678 
L 179.382144 306.152759 
L 181.088219 306.09692 
L 182.453078 305.957323 
L 185.524011 305.873565 
L 186.547656 305.817727 
L 187.5713 305.733969 
L 189.618589 305.650211 
L 190.983449 305.566452 
L 197.125316 305.147662 
L 199.51382 305.091824 
L 200.878679 304.980146 
L 202.243539 304.896388 
L 205.655687 304.700953 
L 209.067835 304.645114 
L 210.432695 304.505517 
L 212.138769 304.421759 
L 215.550917 304.058808 
L 217.939421 303.779614 
L 218.963066 303.723776 
L 221.692784 303.360824 
L 223.740073 303.304986 
L 224.763718 303.221228 
L 225.787362 303.13747 
L 243.530534 301.769422 
L 245.919038 301.685664 
L 247.966327 301.462309 
L 250.696046 301.378551 
L 253.425764 301.238954 
L 255.814268 301.183115 
L 256.496698 301.099357 
L 261.273706 301.015599 
L 261.956135 300.931841 
L 266.050713 300.848083 
L 269.121647 300.680567 
L 271.510151 300.596809 
L 273.216225 300.401374 
L 275.263514 300.317616 
L 276.287159 300.178019 
L 281.064166 300.094261 
L 282.770241 299.926745 
L 284.81753 299.842987 
L 286.864819 299.619632 
L 288.912108 299.535874 
L 290.618182 299.480035 
L 293.347901 299.396277 
L 294.71276 299.2846 
L 297.101264 299.228761 
L 297.783693 299.117084 
L 299.489768 299.061245 
L 300.854627 298.949568 
L 302.560701 298.893729 
L 305.631635 298.809971 
L 314.503221 298.167826 
L 316.55051 298.084068 
L 318.256584 298.02823 
L 323.033592 297.944472 
L 323.716021 297.860713 
L 328.493029 297.776955 
L 331.905177 297.58152 
L 332.587607 297.553601 
L 333.270037 297.469843 
L 334.976111 297.386085 
L 336.682185 297.330246 
L 338.388259 297.246488 
L 340.094333 297.190649 
L 343.165267 297.106891 
L 345.212556 297.023133 
L 349.989564 296.939375 
L 353.742927 296.71602 
L 355.107786 296.660182 
L 356.131431 296.576424 
L 360.908439 296.492666 
L 362.955728 296.408908 
L 373.874603 296.32515 
L 376.604321 296.185553 
L 384.452263 296.101795 
L 385.475907 296.045956 
L 396.735997 295.962198 
L 398.442071 295.906359 
L 414.479168 295.822601 
L 415.844028 295.794682 
L 419.597391 295.710924 
L 420.96225 295.599247 
L 422.668325 295.515489 
L 425.056828 295.403811 
L 428.127762 295.320053 
L 429.833836 295.264214 
L 432.22234 295.180456 
L 433.928414 295.124618 
L 435.975703 295.04086 
L 436.999348 294.957102 
L 443.823645 294.873344 
L 445.870934 294.789586 
L 449.624297 294.705828 
L 452.012801 294.59415 
L 454.401305 294.538312 
L 455.424949 294.482473 
L 463.27289 294.398715 
L 466.685039 294.203279 
L 469.414757 294.119521 
L 470.438402 293.979925 
L 473.85055 293.896167 
L 475.556625 293.840328 
L 478.968773 293.75657 
L 480.674847 293.561135 
L 484.086996 293.477376 
L 484.769425 293.393618 
L 488.181574 293.30986 
L 489.887648 293.254022 
L 495.00587 293.170264 
L 497.053159 293.086506 
L 504.218671 293.002748 
L 505.242316 292.946909 
L 509.678108 292.863151 
L 511.042968 292.835232 
L 516.502405 292.751474 
L 518.890909 292.639796 
L 522.985487 292.556038 
L 524.691561 292.500199 
L 530.833428 292.444361 
L 531.857073 292.360603 
L 532.880717 292.276845 
L 533.904362 292.193087 
L 539.022585 292.109329 
L 541.069874 292.025571 
L 550.965104 291.941813 
L 554.036038 291.774296 
L 558.813045 291.690538 
L 560.177905 291.662619 
L 564.272483 291.578861 
L 565.978557 291.523022 
L 573.826498 291.439264 
L 575.873787 291.355506 
L 582.698084 291.271748 
L 584.404158 291.21591 
L 586.792662 291.132152 
L 588.839951 291.048394 
L 592.593314 290.964635 
L 594.981818 290.852958 
L 598.052752 290.797119 
L 599.076396 290.741281 
L 606.241908 290.657523 
L 608.289197 290.573765 
L 610.677701 290.490007 
L 612.383775 290.434168 
L 622.279005 290.35041 
L 624.326294 290.266652 
L 630.126947 290.182894 
L 631.833021 290.127055 
L 636.268814 290.043297 
L 638.316103 289.959539 
L 641.045821 289.875781 
L 643.09311 289.792023 
L 656.741704 289.708265 
L 659.130208 289.596588 
L 667.319364 289.51283 
L 668.684223 289.48491 
L 676.87338 289.401152 
L 678.579454 289.345314 
L 689.498329 289.261556 
L 690.863188 289.233636 
L 701.099633 289.149878 
L 702.805707 289.094039 
L 713.042152 289.010281 
L 715.089442 288.926523 
L 728.055605 288.842765 
L 729.76168 288.786927 
L 735.903547 288.703169 
L 737.268406 288.675249 
L 739.998125 288.619411 
L 741.021769 288.563572 
L 747.163636 288.535653 
L 747.163636 288.535653 
" clip-path="url(#pa96bed1bd6)" style="fill: none; stroke: #ff7f0e; stroke-width: 1.5; stroke-linecap: square"/>
   </g>
   <g id="patch_3">
    <path d="M 108 320.4 
L 108 43.2 
" style="fill: none; stroke: #a9a9a9; stroke-width: 0.8; stroke-linejoin: miter; stroke-linecap: square"/>
   </g>
   <g id="patch_4">
    <path d="M 777.6 320.4 
L 777.6 43.2 
" style="fill: none"/>
   </g>
   <g id="patch_5">
    <path d="M 108 320.4 
L 777.6 320.4 
" style="fill: none; stroke: #a9a9a9; stroke-width: 0.8; stroke-linejoin: miter; stroke-linecap: square"/>
   </g>
   <g id="patch_6">
    <path d="M 108 43.2 
L 777.6 43.2 
" style="fill: none"/>
   </g>
   <g id="text_16">
    <!-- get_subscribe history -->
    <g style="fill: #a9a9a9" transform="translate(378.6075 37.2) scale(0.12 -0.12)">
     <defs>
      <path id="DejaVuSans-4a" d="M 2906 1791 
Q 2906 2416 2648 2759 
Q 2391 3103 1925 3103 
Q 1463 3103 1205 2759 
Q 947 2416 947 1791 
Q 947 1169 1205 825 
Q 1463 481 1925 481 
Q 2391 481 2648 825 
Q 2906 1169 2906 1791 
z
M 3481 434 
Q 3481 -459 3084 -895 
Q 2688 -1331 1869 -1331 
Q 1566 -1331 1297 -1286 
Q 1028 -1241 775 -1147 
L 775 -588 
Q 1028 -725 1275 -790 
Q 1522 -856 1778 -856 
Q 2344 -856 2625 -561 
Q 2906 -266 2906 331 
L 2906 616 
Q 2728 306 2450 153 
Q 2172 0 1784 0 
Q 1141 0 747 490 
Q 353 981 353 1791 
Q 353 2603 747 3093 
Q 1141 3584 1784 3584 
Q 2172 3584 2450 3431 
Q 2728 3278 2906 2969 
L 2906 3500 
L 3481 3500 
L 3481 434 
z
" transform="scale(0.015625)"/>
      <path id="DejaVuSans-48" d="M 3597 1894 
L 3597 1613 
L 953 1613 
Q 991 1019 1311 708 
Q 1631 397 2203 397 
Q 2534 397 2845 478 
Q 3156 559 3463 722 
L 3463 178 
Q 3153 47 2828 -22 
Q 2503 -91 2169 -91 
Q 1331 -91 842 396 
Q 353 884 353 1716 
Q 353 2575 817 3079 
Q 1281 3584 2069 3584 
Q 2775 3584 3186 3129 
Q 3597 2675 3597 1894 
z
M 3022 2063 
Q 3016 2534 2758 2815 
Q 2500 3097 2075 3097 
Q 1594 3097 1305 2825 
Q 1016 2553 972 2059 
L 3022 2063 
z
" transform="scale(0.015625)"/>
      <path id="DejaVuSans-57" d="M 1172 4494 
L 1172 3500 
L 2356 3500 
L 2356 3053 
L 1172 3053 
L 1172 1153 
Q 1172 725 1289 603 
Q 1406 481 1766 481 
L 2356 481 
L 2356 0 
L 1766 0 
Q 1100 0 847 248 
Q 594 497 594 1153 
L 594 3053 
L 172 3053 
L 172 3500 
L 594 3500 
L 594 4494 
L 1172 4494 
z
" transform="scale(0.015625)"/>
      <path id="DejaVuSans-42" d="M 3263 -1063 
L 3263 -1509 
L -63 -1509 
L -63 -1063 
L 3263 -1063 
z
" transform="scale(0.015625)"/>
      <path id="DejaVuSans-56" d="M 2834 3397 
L 2834 2853 
Q 2591 2978 2328 3040 
Q 2066 3103 1784 3103 
Q 1356 3103 1142 2972 
Q 928 2841 928 2578 
Q 928 2378 1081 2264 
Q 1234 2150 1697 2047 
L 1894 2003 
Q 2506 1872 2764 1633 
Q 3022 1394 3022 966 
Q 3022 478 2636 193 
Q 2250 -91 1575 -91 
Q 1294 -91 989 -36 
Q 684 19 347 128 
L 347 722 
Q 666 556 975 473 
Q 1284 391 1588 391 
Q 1994 391 2212 530 
Q 2431 669 2431 922 
Q 2431 1156 2273 1281 
Q 2116 1406 1581 1522 
L 1381 1569 
Q 847 1681 609 1914 
Q 372 2147 372 2553 
Q 372 3047 722 3315 
Q 1072 3584 1716 3584 
Q 2034 3584 2315 3537 
Q 2597 3491 2834 3397 
z
" transform="scale(0.015625)"/>
      <path id="DejaVuSans-58" d="M 544 1381 
L 544 3500 
L 1119 3500 
L 1119 1403 
Q 1119 906 1312 657 
Q 1506 409 1894 409 
Q 2359 409 2629 706 
Q 2900 1003 2900 1516 
L 2900 3500 
L 3475 3500 
L 3475 0 
L 2900 0 
L 2900 538 
Q 2691 219 2414 64 
Q 2138 -91 1772 -91 
Q 1169 -91 856 284 
Q 544 659 544 1381 
z
M 1991 3584 
L 1991 3584 
z
" transform="scale(0.015625)"/>
      <path id="DejaVuSans-45" d="M 3116 1747 
Q 3116 2381 2855 2742 
Q 2594 3103 2138 3103 
Q 1681 3103 1420 2742 
Q 1159 2381 1159 1747 
Q 1159 1113 1420 752 
Q 1681 391 2138 391 
Q 2594 391 2855 752 
Q 3116 1113 3116 1747 
z
M 1159 2969 
Q 1341 3281 1617 3432 
Q 1894 3584 2278 3584 
Q 2916 3584 3314 3078 
Q 3713 2572 3713 1747 
Q 3713 922 3314 415 
Q 2916 -91 2278 -91 
Q 1894 -91 1617 61 
Q 1341 213 1159 525 
L 1159 0 
L 581 0 
L 581 4863 
L 1159 4863 
L 1159 2969 
z
" transform="scale(0.015625)"/>
      <path id="DejaVuSans-46" d="M 3122 3366 
L 3122 2828 
Q 2878 2963 2633 3030 
Q 2388 3097 2138 3097 
Q 1578 3097 1268 2742 
Q 959 2388 959 1747 
Q 959 1106 1268 751 
Q 1578 397 2138 397 
Q 2388 397 2633 464 
Q 2878 531 3122 666 
L 3122 134 
Q 2881 22 2623 -34 
Q 2366 -91 2075 -91 
Q 1284 -91 818 406 
Q 353 903 353 1747 
Q 353 2603 823 3093 
Q 1294 3584 2113 3584 
Q 2378 3584 2631 3529 
Q 2884 3475 3122 3366 
z
" transform="scale(0.015625)"/>
      <path id="DejaVuSans-55" d="M 2631 2963 
Q 2534 3019 2420 3045 
Q 2306 3072 2169 3072 
Q 1681 3072 1420 2755 
Q 1159 2438 1159 1844 
L 1159 0 
L 581 0 
L 581 3500 
L 1159 3500 
L 1159 2956 
Q 1341 3275 1631 3429 
Q 1922 3584 2338 3584 
Q 2397 3584 2469 3576 
Q 2541 3569 2628 3553 
L 2631 2963 
z
" transform="scale(0.015625)"/>
      <path id="DejaVuSans-4c" d="M 603 3500 
L 1178 3500 
L 1178 0 
L 603 0 
L 603 3500 
z
M 603 4863 
L 1178 4863 
L 1178 4134 
L 603 4134 
L 603 4863 
z
" transform="scale(0.015625)"/>
      <path id="DejaVuSans-3" transform="scale(0.015625)"/>
      <path id="DejaVuSans-4b" d="M 3513 2113 
L 3513 0 
L 2938 0 
L 2938 2094 
Q 2938 2591 2744 2837 
Q 2550 3084 2163 3084 
Q 1697 3084 1428 2787 
Q 1159 2491 1159 1978 
L 1159 0 
L 581 0 
L 581 4863 
L 1159 4863 
L 1159 2956 
Q 1366 3272 1645 3428 
Q 1925 3584 2291 3584 
Q 2894 3584 3203 3211 
Q 3513 2838 3513 2113 
z
" transform="scale(0.015625)"/>
      <path id="DejaVuSans-52" d="M 1959 3097 
Q 1497 3097 1228 2736 
Q 959 2375 959 1747 
Q 959 1119 1226 758 
Q 1494 397 1959 397 
Q 2419 397 2687 759 
Q 2956 1122 2956 1747 
Q 2956 2369 2687 2733 
Q 2419 3097 1959 3097 
z
M 1959 3584 
Q 2709 3584 3137 3096 
Q 3566 2609 3566 1747 
Q 3566 888 3137 398 
Q 2709 -91 1959 -91 
Q 1206 -91 779 398 
Q 353 888 353 1747 
Q 353 2609 779 3096 
Q 1206 3584 1959 3584 
z
" transform="scale(0.015625)"/>
      <path id="DejaVuSans-5c" d="M 2059 -325 
Q 1816 -950 1584 -1140 
Q 1353 -1331 966 -1331 
L 506 -1331 
L 506 -850 
L 844 -850 
Q 1081 -850 1212 -737 
Q 1344 -625 1503 -206 
L 1606 56 
L 191 3500 
L 800 3500 
L 1894 763 
L 2988 3500 
L 3597 3500 
L 2059 -325 
z
" transform="scale(0.015625)"/>
     </defs>
     <use xlink:href="#DejaVuSans-4a"/>
     <use xlink:href="#DejaVuSans-48" transform="translate(63.484375 0)"/>
     <use xlink:href="#DejaVuSans-57" transform="translate(125.015625 0)"/>
     <use xlink:href="#DejaVuSans-42" transform="translate(164.21875 0)"/>
     <use xlink:href="#DejaVuSans-56" transform="translate(214.21875 0)"/>
     <use xlink:href="#DejaVuSans-58" transform="translate(266.3125 0)"/>
     <use xlink:href="#DejaVuSans-45" transform="translate(329.6875 0)"/>
     <use xlink:href="#DejaVuSans-56" transform="translate(393.171875 0)"/>
     <use xlink:href="#DejaVuSans-46" transform="translate(445.265625 0)"/>
     <use xlink:href="#DejaVuSans-55" transform="translate(500.25 0)"/>
     <use xlink:href="#DejaVuSans-4c" transform="translate(541.359375 0)"/>
     <use xlink:href="#DejaVuSans-45" transform="translate(569.140625 0)"/>
     <use xlink:href="#DejaVuSans-48" transform="translate(632.625 0)"/>
     <use xlink:href="#DejaVuSans-3" transform="translate(694.15625 0)"/>
     <use xlink:href="#DejaVuSans-4b" transform="translate(725.9375 0)"/>
     <use xlink:href="#DejaVuSans-4c" transform="translate(789.3125 0)"/>
     <use xlink:href="#DejaVuSans-56" transform="translate(817.09375 0)"/>
     <use xlink:href="#DejaVuSans-57" transform="translate(869.1875 0)"/>
     <use xlink:href="#DejaVuSans-52" transform="translate(908.390625 0)"/>
     <use xlink:href="#DejaVuSans-55" transform="translate(969.578125 0)"/>
     <use xlink:href="#DejaVuSans-5c" transform="translate(1010.6875 0)"/>
    </g>
   </g>
   <g id="legend_1">
    <g id="line2d_33">
     <path d="M 815.08 328.498438 
L 825.08 328.498438 
L 835.08 328.498438 
" style="fill: none; stroke: #1f77b4; stroke-width: 1.5; stroke-linecap: square"/>
    </g>
    <g id="text_17">
     <!-- star -->
     <g style="fill: #a9a9a9" transform="translate(843.08 331.998438) scale(0.1 -0.1)">
      <defs>
       <path id="DejaVuSans-44" d="M 2194 1759 
Q 1497 1759 1228 1600 
Q 959 1441 959 1056 
Q 959 750 1161 570 
Q 1363 391 1709 391 
Q 2188 391 2477 730 
Q 2766 1069 2766 1631 
L 2766 1759 
L 2194 1759 
z
M 3341 1997 
L 3341 0 
L 2766 0 
L 2766 531 
Q 2569 213 2275 61 
Q 1981 -91 1556 -91 
Q 1019 -91 701 211 
Q 384 513 384 1019 
Q 384 1609 779 1909 
Q 1175 2209 1959 2209 
L 2766 2209 
L 2766 2266 
Q 2766 2663 2505 2880 
Q 2244 3097 1772 3097 
Q 1472 3097 1187 3025 
Q 903 2953 641 2809 
L 641 3341 
Q 956 3463 1253 3523 
Q 1550 3584 1831 3584 
Q 2591 3584 2966 3190 
Q 3341 2797 3341 1997 
z
" transform="scale(0.015625)"/>
      </defs>
      <use xlink:href="#DejaVuSans-56"/>
      <use xlink:href="#DejaVuSans-57" transform="translate(52.09375 0)"/>
      <use xlink:href="#DejaVuSans-44" transform="translate(91.296875 0)"/>
      <use xlink:href="#DejaVuSans-55" transform="translate(152.578125 0)"/>
     </g>
    </g>
    <g id="line2d_34">
     <path d="M 815.08 343.499219 
L 825.08 343.499219 
L 835.08 343.499219 
" style="fill: none; stroke: #ff7f0e; stroke-width: 1.5; stroke-linecap: square"/>
    </g>
    <g id="text_18">
     <!-- fork -->
     <g style="fill: #a9a9a9" transform="translate(843.08 346.999219) scale(0.1 -0.1)">
      <defs>
       <path id="DejaVuSans-49" d="M 2375 4863 
L 2375 4384 
L 1825 4384 
Q 1516 4384 1395 4259 
Q 1275 4134 1275 3809 
L 1275 3500 
L 2222 3500 
L 2222 3053 
L 1275 3053 
L 1275 0 
L 697 0 
L 697 3053 
L 147 3053 
L 147 3500 
L 697 3500 
L 697 3744 
Q 697 4328 969 4595 
Q 1241 4863 1831 4863 
L 2375 4863 
z
" transform="scale(0.015625)"/>
       <path id="DejaVuSans-4e" d="M 581 4863 
L 1159 4863 
L 1159 1991 
L 2875 3500 
L 3609 3500 
L 1753 1863 
L 3688 0 
L 2938 0 
L 1159 1709 
L 1159 0 
L 581 0 
L 581 4863 
z
" transform="scale(0.015625)"/>
      </defs>
      <use xlink:href="#DejaVuSans-49"/>
      <use xlink:href="#DejaVuSans-52" transform="translate(35.203125 0)"/>
      <use xlink:href="#DejaVuSans-55" transform="translate(96.390625 0)"/>
      <use xlink:href="#DejaVuSans-4e" transform="translate(137.5 0)"/>
     </g>
    </g>
   </g>
  </g>
 </g>
 <defs>
  <clipPath id="pa96bed1bd6">
   <rect x="108" y="43.2" width="669.6" height="277.2"/>
  </clipPath>
 </defs>
</svg>
