<?xml version="1.0" encoding="utf-8" standalone="no"?>
<!DOCTYPE svg PUBLIC "-//W3C//DTD SVG 1.1//EN"
  "http://www.w3.org/Graphics/SVG/1.1/DTD/svg11.dtd">
<svg xmlns:xlink="http://www.w3.org/1999/xlink" width="864pt" height="360pt" viewBox="0 0 864 360" xmlns="http://www.w3.org/2000/svg" version="1.1">
 <metadata>
  <rdf:RDF xmlns:dc="http://purl.org/dc/elements/1.1/" xmlns:cc="http://creativecommons.org/ns#" xmlns:rdf="http://www.w3.org/1999/02/22-rdf-syntax-ns#">
   <cc:Work>
    <dc:type rdf:resource="http://purl.org/dc/dcmitype/StillImage"/>
    <dc:date>2024-03-26T20:05:46.475726</dc:date>
    <dc:format>image/svg+xml</dc:format>
    <dc:creator>
     <cc:Agent>
      <dc:title>Matplotlib v3.8.3, https://matplotlib.org/</dc:title>
     </cc:Agent>
    </dc:creator>
   </cc:Work>
  </rdf:RDF>
 </metadata>
 <defs>
  <style type="text/css">*{stroke-linejoin: round; stroke-linecap: butt}</style>
 </defs>
 <g id="figure_1">
  <g id="patch_1">
   <path d="M 0 360 
L 864 360 
L 864 0 
L 0 0 
L 0 360 
z
" style="fill: none; opacity: 0"/>
  </g>
  <g id="axes_1">
   <g id="patch_2">
    <path d="M 108 320.4 
L 777.6 320.4 
L 777.6 43.2 
L 108 43.2 
L 108 320.4 
z
" style="fill: none; opacity: 0"/>
   </g>
   <g id="matplotlib.axis_1">
    <g id="xtick_1">
     <g id="line2d_1">
      <path d="M 162.760507 320.4 
L 162.760507 43.2 
" clip-path="url(#pca76a94b6a)" style="fill: none; stroke-dasharray: 5.12,1.28,0.8,1.28; stroke-dashoffset: 0; stroke: #b0b0b0; stroke-width: 0.8"/>
     </g>
     <g id="line2d_2">
      <defs>
       <path id="mea50686b26" d="M 0 0 
L 0 3.5 
" style="stroke: #a9a9a9; stroke-width: 0.8"/>
      </defs>
      <g>
       <use xlink:href="#mea50686b26" x="162.760507" y="320.4" style="fill: #a9a9a9; stroke: #a9a9a9; stroke-width: 0.8"/>
      </g>
     </g>
     <g id="text_1">
      <!-- 2021-09 -->
      <g style="fill: #a9a9a9" transform="translate(141.8691 334.998438) scale(0.1 -0.1)">
       <defs>
        <path id="DejaVuSans-32" d="M 1228 531 
L 3431 531 
L 3431 0 
L 469 0 
L 469 531 
Q 828 903 1448 1529 
Q 2069 2156 2228 2338 
Q 2531 2678 2651 2914 
Q 2772 3150 2772 3378 
Q 2772 3750 2511 3984 
Q 2250 4219 1831 4219 
Q 1534 4219 1204 4116 
Q 875 4013 500 3803 
L 500 4441 
Q 881 4594 1212 4672 
Q 1544 4750 1819 4750 
Q 2544 4750 2975 4387 
Q 3406 4025 3406 3419 
Q 3406 3131 3298 2873 
Q 3191 2616 2906 2266 
Q 2828 2175 2409 1742 
Q 1991 1309 1228 531 
z
" transform="scale(0.015625)"/>
        <path id="DejaVuSans-30" d="M 2034 4250 
Q 1547 4250 1301 3770 
Q 1056 3291 1056 2328 
Q 1056 1369 1301 889 
Q 1547 409 2034 409 
Q 2525 409 2770 889 
Q 3016 1369 3016 2328 
Q 3016 3291 2770 3770 
Q 2525 4250 2034 4250 
z
M 2034 4750 
Q 2819 4750 3233 4129 
Q 3647 3509 3647 2328 
Q 3647 1150 3233 529 
Q 2819 -91 2034 -91 
Q 1250 -91 836 529 
Q 422 1150 422 2328 
Q 422 3509 836 4129 
Q 1250 4750 2034 4750 
z
" transform="scale(0.015625)"/>
        <path id="DejaVuSans-31" d="M 794 531 
L 1825 531 
L 1825 4091 
L 703 3866 
L 703 4441 
L 1819 4666 
L 2450 4666 
L 2450 531 
L 3481 531 
L 3481 0 
L 794 0 
L 794 531 
z
" transform="scale(0.015625)"/>
        <path id="DejaVuSans-2d" d="M 313 2009 
L 1997 2009 
L 1997 1497 
L 313 1497 
L 313 2009 
z
" transform="scale(0.015625)"/>
        <path id="DejaVuSans-39" d="M 703 97 
L 703 672 
Q 941 559 1184 500 
Q 1428 441 1663 441 
Q 2288 441 2617 861 
Q 2947 1281 2994 2138 
Q 2813 1869 2534 1725 
Q 2256 1581 1919 1581 
Q 1219 1581 811 2004 
Q 403 2428 403 3163 
Q 403 3881 828 4315 
Q 1253 4750 1959 4750 
Q 2769 4750 3195 4129 
Q 3622 3509 3622 2328 
Q 3622 1225 3098 567 
Q 2575 -91 1691 -91 
Q 1453 -91 1209 -44 
Q 966 3 703 97 
z
M 1959 2075 
Q 2384 2075 2632 2365 
Q 2881 2656 2881 3163 
Q 2881 3666 2632 3958 
Q 2384 4250 1959 4250 
Q 1534 4250 1286 3958 
Q 1038 3666 1038 3163 
Q 1038 2656 1286 2365 
Q 1534 2075 1959 2075 
z
" transform="scale(0.015625)"/>
       </defs>
       <use xlink:href="#DejaVuSans-32"/>
       <use xlink:href="#DejaVuSans-30" x="63.623047"/>
       <use xlink:href="#DejaVuSans-32" x="127.246094"/>
       <use xlink:href="#DejaVuSans-31" x="190.869141"/>
       <use xlink:href="#DejaVuSans-2d" x="254.492188"/>
       <use xlink:href="#DejaVuSans-30" x="290.576172"/>
       <use xlink:href="#DejaVuSans-39" x="354.199219"/>
      </g>
     </g>
    </g>
    <g id="xtick_2">
     <g id="line2d_3">
      <path d="M 238.851416 320.4 
L 238.851416 43.2 
" clip-path="url(#pca76a94b6a)" style="fill: none; stroke-dasharray: 5.12,1.28,0.8,1.28; stroke-dashoffset: 0; stroke: #b0b0b0; stroke-width: 0.8"/>
     </g>
     <g id="line2d_4">
      <g>
       <use xlink:href="#mea50686b26" x="238.851416" y="320.4" style="fill: #a9a9a9; stroke: #a9a9a9; stroke-width: 0.8"/>
      </g>
     </g>
     <g id="text_2">
      <!-- 2022-01 -->
      <g style="fill: #a9a9a9" transform="translate(217.96001 334.998438) scale(0.1 -0.1)">
       <use xlink:href="#DejaVuSans-32"/>
       <use xlink:href="#DejaVuSans-30" x="63.623047"/>
       <use xlink:href="#DejaVuSans-32" x="127.246094"/>
       <use xlink:href="#DejaVuSans-32" x="190.869141"/>
       <use xlink:href="#DejaVuSans-2d" x="254.492188"/>
       <use xlink:href="#DejaVuSans-30" x="290.576172"/>
       <use xlink:href="#DejaVuSans-31" x="354.199219"/>
      </g>
     </g>
    </g>
    <g id="xtick_3">
     <g id="line2d_5">
      <path d="M 313.694933 320.4 
L 313.694933 43.2 
" clip-path="url(#pca76a94b6a)" style="fill: none; stroke-dasharray: 5.12,1.28,0.8,1.28; stroke-dashoffset: 0; stroke: #b0b0b0; stroke-width: 0.8"/>
     </g>
     <g id="line2d_6">
      <g>
       <use xlink:href="#mea50686b26" x="313.694933" y="320.4" style="fill: #a9a9a9; stroke: #a9a9a9; stroke-width: 0.8"/>
      </g>
     </g>
     <g id="text_3">
      <!-- 2022-05 -->
      <g style="fill: #a9a9a9" transform="translate(292.803527 334.998438) scale(0.1 -0.1)">
       <defs>
        <path id="DejaVuSans-35" d="M 691 4666 
L 3169 4666 
L 3169 4134 
L 1269 4134 
L 1269 2991 
Q 1406 3038 1543 3061 
Q 1681 3084 1819 3084 
Q 2600 3084 3056 2656 
Q 3513 2228 3513 1497 
Q 3513 744 3044 326 
Q 2575 -91 1722 -91 
Q 1428 -91 1123 -41 
Q 819 9 494 109 
L 494 744 
Q 775 591 1075 516 
Q 1375 441 1709 441 
Q 2250 441 2565 725 
Q 2881 1009 2881 1497 
Q 2881 1984 2565 2268 
Q 2250 2553 1709 2553 
Q 1456 2553 1204 2497 
Q 953 2441 691 2322 
L 691 4666 
z
" transform="scale(0.015625)"/>
       </defs>
       <use xlink:href="#DejaVuSans-32"/>
       <use xlink:href="#DejaVuSans-30" x="63.623047"/>
       <use xlink:href="#DejaVuSans-32" x="127.246094"/>
       <use xlink:href="#DejaVuSans-32" x="190.869141"/>
       <use xlink:href="#DejaVuSans-2d" x="254.492188"/>
       <use xlink:href="#DejaVuSans-30" x="290.576172"/>
       <use xlink:href="#DejaVuSans-35" x="354.199219"/>
      </g>
     </g>
    </g>
    <g id="xtick_4">
     <g id="line2d_7">
      <path d="M 390.409538 320.4 
L 390.409538 43.2 
" clip-path="url(#pca76a94b6a)" style="fill: none; stroke-dasharray: 5.12,1.28,0.8,1.28; stroke-dashoffset: 0; stroke: #b0b0b0; stroke-width: 0.8"/>
     </g>
     <g id="line2d_8">
      <g>
       <use xlink:href="#mea50686b26" x="390.409538" y="320.4" style="fill: #a9a9a9; stroke: #a9a9a9; stroke-width: 0.8"/>
      </g>
     </g>
     <g id="text_4">
      <!-- 2022-09 -->
      <g style="fill: #a9a9a9" transform="translate(369.518132 334.998438) scale(0.1 -0.1)">
       <use xlink:href="#DejaVuSans-32"/>
       <use xlink:href="#DejaVuSans-30" x="63.623047"/>
       <use xlink:href="#DejaVuSans-32" x="127.246094"/>
       <use xlink:href="#DejaVuSans-32" x="190.869141"/>
       <use xlink:href="#DejaVuSans-2d" x="254.492188"/>
       <use xlink:href="#DejaVuSans-30" x="290.576172"/>
       <use xlink:href="#DejaVuSans-39" x="354.199219"/>
      </g>
     </g>
    </g>
    <g id="xtick_5">
     <g id="line2d_9">
      <path d="M 466.500447 320.4 
L 466.500447 43.2 
" clip-path="url(#pca76a94b6a)" style="fill: none; stroke-dasharray: 5.12,1.28,0.8,1.28; stroke-dashoffset: 0; stroke: #b0b0b0; stroke-width: 0.8"/>
     </g>
     <g id="line2d_10">
      <g>
       <use xlink:href="#mea50686b26" x="466.500447" y="320.4" style="fill: #a9a9a9; stroke: #a9a9a9; stroke-width: 0.8"/>
      </g>
     </g>
     <g id="text_5">
      <!-- 2023-01 -->
      <g style="fill: #a9a9a9" transform="translate(445.609041 334.998438) scale(0.1 -0.1)">
       <defs>
        <path id="DejaVuSans-33" d="M 2597 2516 
Q 3050 2419 3304 2112 
Q 3559 1806 3559 1356 
Q 3559 666 3084 287 
Q 2609 -91 1734 -91 
Q 1441 -91 1130 -33 
Q 819 25 488 141 
L 488 750 
Q 750 597 1062 519 
Q 1375 441 1716 441 
Q 2309 441 2620 675 
Q 2931 909 2931 1356 
Q 2931 1769 2642 2001 
Q 2353 2234 1838 2234 
L 1294 2234 
L 1294 2753 
L 1863 2753 
Q 2328 2753 2575 2939 
Q 2822 3125 2822 3475 
Q 2822 3834 2567 4026 
Q 2313 4219 1838 4219 
Q 1578 4219 1281 4162 
Q 984 4106 628 3988 
L 628 4550 
Q 988 4650 1302 4700 
Q 1616 4750 1894 4750 
Q 2613 4750 3031 4423 
Q 3450 4097 3450 3541 
Q 3450 3153 3228 2886 
Q 3006 2619 2597 2516 
z
" transform="scale(0.015625)"/>
       </defs>
       <use xlink:href="#DejaVuSans-32"/>
       <use xlink:href="#DejaVuSans-30" x="63.623047"/>
       <use xlink:href="#DejaVuSans-32" x="127.246094"/>
       <use xlink:href="#DejaVuSans-33" x="190.869141"/>
       <use xlink:href="#DejaVuSans-2d" x="254.492188"/>
       <use xlink:href="#DejaVuSans-30" x="290.576172"/>
       <use xlink:href="#DejaVuSans-31" x="354.199219"/>
      </g>
     </g>
    </g>
    <g id="xtick_6">
     <g id="line2d_11">
      <path d="M 541.343964 320.4 
L 541.343964 43.2 
" clip-path="url(#pca76a94b6a)" style="fill: none; stroke-dasharray: 5.12,1.28,0.8,1.28; stroke-dashoffset: 0; stroke: #b0b0b0; stroke-width: 0.8"/>
     </g>
     <g id="line2d_12">
      <g>
       <use xlink:href="#mea50686b26" x="541.343964" y="320.4" style="fill: #a9a9a9; stroke: #a9a9a9; stroke-width: 0.8"/>
      </g>
     </g>
     <g id="text_6">
      <!-- 2023-05 -->
      <g style="fill: #a9a9a9" transform="translate(520.452558 334.998438) scale(0.1 -0.1)">
       <use xlink:href="#DejaVuSans-32"/>
       <use xlink:href="#DejaVuSans-30" x="63.623047"/>
       <use xlink:href="#DejaVuSans-32" x="127.246094"/>
       <use xlink:href="#DejaVuSans-33" x="190.869141"/>
       <use xlink:href="#DejaVuSans-2d" x="254.492188"/>
       <use xlink:href="#DejaVuSans-30" x="290.576172"/>
       <use xlink:href="#DejaVuSans-35" x="354.199219"/>
      </g>
     </g>
    </g>
    <g id="xtick_7">
     <g id="line2d_13">
      <path d="M 618.058569 320.4 
L 618.058569 43.2 
" clip-path="url(#pca76a94b6a)" style="fill: none; stroke-dasharray: 5.12,1.28,0.8,1.28; stroke-dashoffset: 0; stroke: #b0b0b0; stroke-width: 0.8"/>
     </g>
     <g id="line2d_14">
      <g>
       <use xlink:href="#mea50686b26" x="618.058569" y="320.4" style="fill: #a9a9a9; stroke: #a9a9a9; stroke-width: 0.8"/>
      </g>
     </g>
     <g id="text_7">
      <!-- 2023-09 -->
      <g style="fill: #a9a9a9" transform="translate(597.167163 334.998438) scale(0.1 -0.1)">
       <use xlink:href="#DejaVuSans-32"/>
       <use xlink:href="#DejaVuSans-30" x="63.623047"/>
       <use xlink:href="#DejaVuSans-32" x="127.246094"/>
       <use xlink:href="#DejaVuSans-33" x="190.869141"/>
       <use xlink:href="#DejaVuSans-2d" x="254.492188"/>
       <use xlink:href="#DejaVuSans-30" x="290.576172"/>
       <use xlink:href="#DejaVuSans-39" x="354.199219"/>
      </g>
     </g>
    </g>
    <g id="xtick_8">
     <g id="line2d_15">
      <path d="M 694.149478 320.4 
L 694.149478 43.2 
" clip-path="url(#pca76a94b6a)" style="fill: none; stroke-dasharray: 5.12,1.28,0.8,1.28; stroke-dashoffset: 0; stroke: #b0b0b0; stroke-width: 0.8"/>
     </g>
     <g id="line2d_16">
      <g>
       <use xlink:href="#mea50686b26" x="694.149478" y="320.4" style="fill: #a9a9a9; stroke: #a9a9a9; stroke-width: 0.8"/>
      </g>
     </g>
     <g id="text_8">
      <!-- 2024-01 -->
      <g style="fill: #a9a9a9" transform="translate(673.258072 334.998438) scale(0.1 -0.1)">
       <defs>
        <path id="DejaVuSans-34" d="M 2419 4116 
L 825 1625 
L 2419 1625 
L 2419 4116 
z
M 2253 4666 
L 3047 4666 
L 3047 1625 
L 3713 1625 
L 3713 1100 
L 3047 1100 
L 3047 0 
L 2419 0 
L 2419 1100 
L 313 1100 
L 313 1709 
L 2253 4666 
z
" transform="scale(0.015625)"/>
       </defs>
       <use xlink:href="#DejaVuSans-32"/>
       <use xlink:href="#DejaVuSans-30" x="63.623047"/>
       <use xlink:href="#DejaVuSans-32" x="127.246094"/>
       <use xlink:href="#DejaVuSans-34" x="190.869141"/>
       <use xlink:href="#DejaVuSans-2d" x="254.492188"/>
       <use xlink:href="#DejaVuSans-30" x="290.576172"/>
       <use xlink:href="#DejaVuSans-31" x="354.199219"/>
      </g>
     </g>
    </g>
    <g id="xtick_9">
     <g id="line2d_17">
      <path d="M 769.616692 320.4 
L 769.616692 43.2 
" clip-path="url(#pca76a94b6a)" style="fill: none; stroke-dasharray: 5.12,1.28,0.8,1.28; stroke-dashoffset: 0; stroke: #b0b0b0; stroke-width: 0.8"/>
     </g>
     <g id="line2d_18">
      <g>
       <use xlink:href="#mea50686b26" x="769.616692" y="320.4" style="fill: #a9a9a9; stroke: #a9a9a9; stroke-width: 0.8"/>
      </g>
     </g>
     <g id="text_9">
      <!-- 2024-05 -->
      <g style="fill: #a9a9a9" transform="translate(748.725285 334.998438) scale(0.1 -0.1)">
       <use xlink:href="#DejaVuSans-32"/>
       <use xlink:href="#DejaVuSans-30" x="63.623047"/>
       <use xlink:href="#DejaVuSans-32" x="127.246094"/>
       <use xlink:href="#DejaVuSans-34" x="190.869141"/>
       <use xlink:href="#DejaVuSans-2d" x="254.492188"/>
       <use xlink:href="#DejaVuSans-30" x="290.576172"/>
       <use xlink:href="#DejaVuSans-35" x="354.199219"/>
      </g>
     </g>
    </g>
   </g>
   <g id="matplotlib.axis_2">
    <g id="ytick_1">
     <g id="line2d_19">
      <path d="M 108 307.843292 
L 777.6 307.843292 
" clip-path="url(#pca76a94b6a)" style="fill: none; stroke-dasharray: 5.12,1.28,0.8,1.28; stroke-dashoffset: 0; stroke: #b0b0b0; stroke-width: 0.8"/>
     </g>
     <g id="line2d_20">
      <defs>
       <path id="m4b6c5e805f" d="M 0 0 
L -3.5 0 
" style="stroke: #a9a9a9; stroke-width: 0.8"/>
      </defs>
      <g>
       <use xlink:href="#m4b6c5e805f" x="108" y="307.843292" style="fill: #a9a9a9; stroke: #a9a9a9; stroke-width: 0.8"/>
      </g>
     </g>
     <g id="text_10">
      <!-- 0 -->
      <g style="fill: #a9a9a9" transform="translate(94.6375 311.64251) scale(0.1 -0.1)">
       <use xlink:href="#DejaVuSans-30"/>
      </g>
     </g>
    </g>
    <g id="ytick_2">
     <g id="line2d_21">
      <path d="M 108 273.210067 
L 777.6 273.210067 
" clip-path="url(#pca76a94b6a)" style="fill: none; stroke-dasharray: 5.12,1.28,0.8,1.28; stroke-dashoffset: 0; stroke: #b0b0b0; stroke-width: 0.8"/>
     </g>
     <g id="line2d_22">
      <g>
       <use xlink:href="#m4b6c5e805f" x="108" y="273.210067" style="fill: #a9a9a9; stroke: #a9a9a9; stroke-width: 0.8"/>
      </g>
     </g>
     <g id="text_11">
      <!-- 800 -->
      <g style="fill: #a9a9a9" transform="translate(81.9125 277.009286) scale(0.1 -0.1)">
       <defs>
        <path id="DejaVuSans-38" d="M 2034 2216 
Q 1584 2216 1326 1975 
Q 1069 1734 1069 1313 
Q 1069 891 1326 650 
Q 1584 409 2034 409 
Q 2484 409 2743 651 
Q 3003 894 3003 1313 
Q 3003 1734 2745 1975 
Q 2488 2216 2034 2216 
z
M 1403 2484 
Q 997 2584 770 2862 
Q 544 3141 544 3541 
Q 544 4100 942 4425 
Q 1341 4750 2034 4750 
Q 2731 4750 3128 4425 
Q 3525 4100 3525 3541 
Q 3525 3141 3298 2862 
Q 3072 2584 2669 2484 
Q 3125 2378 3379 2068 
Q 3634 1759 3634 1313 
Q 3634 634 3220 271 
Q 2806 -91 2034 -91 
Q 1263 -91 848 271 
Q 434 634 434 1313 
Q 434 1759 690 2068 
Q 947 2378 1403 2484 
z
M 1172 3481 
Q 1172 3119 1398 2916 
Q 1625 2713 2034 2713 
Q 2441 2713 2670 2916 
Q 2900 3119 2900 3481 
Q 2900 3844 2670 4047 
Q 2441 4250 2034 4250 
Q 1625 4250 1398 4047 
Q 1172 3844 1172 3481 
z
" transform="scale(0.015625)"/>
       </defs>
       <use xlink:href="#DejaVuSans-38"/>
       <use xlink:href="#DejaVuSans-30" x="63.623047"/>
       <use xlink:href="#DejaVuSans-30" x="127.246094"/>
      </g>
     </g>
    </g>
    <g id="ytick_3">
     <g id="line2d_23">
      <path d="M 108 238.576842 
L 777.6 238.576842 
" clip-path="url(#pca76a94b6a)" style="fill: none; stroke-dasharray: 5.12,1.28,0.8,1.28; stroke-dashoffset: 0; stroke: #b0b0b0; stroke-width: 0.8"/>
     </g>
     <g id="line2d_24">
      <g>
       <use xlink:href="#m4b6c5e805f" x="108" y="238.576842" style="fill: #a9a9a9; stroke: #a9a9a9; stroke-width: 0.8"/>
      </g>
     </g>
     <g id="text_12">
      <!-- 1600 -->
      <g style="fill: #a9a9a9" transform="translate(75.55 242.376061) scale(0.1 -0.1)">
       <defs>
        <path id="DejaVuSans-36" d="M 2113 2584 
Q 1688 2584 1439 2293 
Q 1191 2003 1191 1497 
Q 1191 994 1439 701 
Q 1688 409 2113 409 
Q 2538 409 2786 701 
Q 3034 994 3034 1497 
Q 3034 2003 2786 2293 
Q 2538 2584 2113 2584 
z
M 3366 4563 
L 3366 3988 
Q 3128 4100 2886 4159 
Q 2644 4219 2406 4219 
Q 1781 4219 1451 3797 
Q 1122 3375 1075 2522 
Q 1259 2794 1537 2939 
Q 1816 3084 2150 3084 
Q 2853 3084 3261 2657 
Q 3669 2231 3669 1497 
Q 3669 778 3244 343 
Q 2819 -91 2113 -91 
Q 1303 -91 875 529 
Q 447 1150 447 2328 
Q 447 3434 972 4092 
Q 1497 4750 2381 4750 
Q 2619 4750 2861 4703 
Q 3103 4656 3366 4563 
z
" transform="scale(0.015625)"/>
       </defs>
       <use xlink:href="#DejaVuSans-31"/>
       <use xlink:href="#DejaVuSans-36" x="63.623047"/>
       <use xlink:href="#DejaVuSans-30" x="127.246094"/>
       <use xlink:href="#DejaVuSans-30" x="190.869141"/>
      </g>
     </g>
    </g>
    <g id="ytick_4">
     <g id="line2d_25">
      <path d="M 108 203.943618 
L 777.6 203.943618 
" clip-path="url(#pca76a94b6a)" style="fill: none; stroke-dasharray: 5.12,1.28,0.8,1.28; stroke-dashoffset: 0; stroke: #b0b0b0; stroke-width: 0.8"/>
     </g>
     <g id="line2d_26">
      <g>
       <use xlink:href="#m4b6c5e805f" x="108" y="203.943618" style="fill: #a9a9a9; stroke: #a9a9a9; stroke-width: 0.8"/>
      </g>
     </g>
     <g id="text_13">
      <!-- 2400 -->
      <g style="fill: #a9a9a9" transform="translate(75.55 207.742837) scale(0.1 -0.1)">
       <use xlink:href="#DejaVuSans-32"/>
       <use xlink:href="#DejaVuSans-34" x="63.623047"/>
       <use xlink:href="#DejaVuSans-30" x="127.246094"/>
       <use xlink:href="#DejaVuSans-30" x="190.869141"/>
      </g>
     </g>
    </g>
    <g id="ytick_5">
     <g id="line2d_27">
      <path d="M 108 169.310393 
L 777.6 169.310393 
" clip-path="url(#pca76a94b6a)" style="fill: none; stroke-dasharray: 5.12,1.28,0.8,1.28; stroke-dashoffset: 0; stroke: #b0b0b0; stroke-width: 0.8"/>
     </g>
     <g id="line2d_28">
      <g>
       <use xlink:href="#m4b6c5e805f" x="108" y="169.310393" style="fill: #a9a9a9; stroke: #a9a9a9; stroke-width: 0.8"/>
      </g>
     </g>
     <g id="text_14">
      <!-- 3200 -->
      <g style="fill: #a9a9a9" transform="translate(75.55 173.109612) scale(0.1 -0.1)">
       <use xlink:href="#DejaVuSans-33"/>
       <use xlink:href="#DejaVuSans-32" x="63.623047"/>
       <use xlink:href="#DejaVuSans-30" x="127.246094"/>
       <use xlink:href="#DejaVuSans-30" x="190.869141"/>
      </g>
     </g>
    </g>
    <g id="ytick_6">
     <g id="line2d_29">
      <path d="M 108 134.677169 
L 777.6 134.677169 
" clip-path="url(#pca76a94b6a)" style="fill: none; stroke-dasharray: 5.12,1.28,0.8,1.28; stroke-dashoffset: 0; stroke: #b0b0b0; stroke-width: 0.8"/>
     </g>
     <g id="line2d_30">
      <g>
       <use xlink:href="#m4b6c5e805f" x="108" y="134.677169" style="fill: #a9a9a9; stroke: #a9a9a9; stroke-width: 0.8"/>
      </g>
     </g>
     <g id="text_15">
      <!-- 4000 -->
      <g style="fill: #a9a9a9" transform="translate(75.55 138.476388) scale(0.1 -0.1)">
       <use xlink:href="#DejaVuSans-34"/>
       <use xlink:href="#DejaVuSans-30" x="63.623047"/>
       <use xlink:href="#DejaVuSans-30" x="127.246094"/>
       <use xlink:href="#DejaVuSans-30" x="190.869141"/>
      </g>
     </g>
    </g>
    <g id="ytick_7">
     <g id="line2d_31">
      <path d="M 108 100.043944 
L 777.6 100.043944 
" clip-path="url(#pca76a94b6a)" style="fill: none; stroke-dasharray: 5.12,1.28,0.8,1.28; stroke-dashoffset: 0; stroke: #b0b0b0; stroke-width: 0.8"/>
     </g>
     <g id="line2d_32">
      <g>
       <use xlink:href="#m4b6c5e805f" x="108" y="100.043944" style="fill: #a9a9a9; stroke: #a9a9a9; stroke-width: 0.8"/>
      </g>
     </g>
     <g id="text_16">
      <!-- 4800 -->
      <g style="fill: #a9a9a9" transform="translate(75.55 103.843163) scale(0.1 -0.1)">
       <use xlink:href="#DejaVuSans-34"/>
       <use xlink:href="#DejaVuSans-38" x="63.623047"/>
       <use xlink:href="#DejaVuSans-30" x="127.246094"/>
       <use xlink:href="#DejaVuSans-30" x="190.869141"/>
      </g>
     </g>
    </g>
    <g id="ytick_8">
     <g id="line2d_33">
      <path d="M 108 65.41072 
L 777.6 65.41072 
" clip-path="url(#pca76a94b6a)" style="fill: none; stroke-dasharray: 5.12,1.28,0.8,1.28; stroke-dashoffset: 0; stroke: #b0b0b0; stroke-width: 0.8"/>
     </g>
     <g id="line2d_34">
      <g>
       <use xlink:href="#m4b6c5e805f" x="108" y="65.41072" style="fill: #a9a9a9; stroke: #a9a9a9; stroke-width: 0.8"/>
      </g>
     </g>
     <g id="text_17">
      <!-- 5600 -->
      <g style="fill: #a9a9a9" transform="translate(75.55 69.209939) scale(0.1 -0.1)">
       <use xlink:href="#DejaVuSans-35"/>
       <use xlink:href="#DejaVuSans-36" x="63.623047"/>
       <use xlink:href="#DejaVuSans-30" x="127.246094"/>
       <use xlink:href="#DejaVuSans-30" x="190.869141"/>
      </g>
     </g>
    </g>
   </g>
   <g id="line2d_35">
    <path d="M 138.436364 307.713417 
L 142.178539 307.410376 
L 142.802235 307.150627 
L 144.673323 306.934169 
L 148.415499 306.198213 
L 152.157675 305.895173 
L 152.781371 305.592132 
L 153.405067 305.418966 
L 154.028763 304.639718 
L 154.652459 304.206803 
L 155.276155 302.864766 
L 155.899851 302.778182 
L 156.523547 302.301976 
L 157.770939 301.695894 
L 160.265723 299.791067 
L 161.513115 299.271568 
L 162.136811 298.838653 
L 164.631595 297.756365 
L 165.255291 296.803951 
L 166.502683 295.938121 
L 167.126379 295.63508 
L 173.363338 294.769249 
L 173.987034 294.466209 
L 178.352906 294.119876 
L 180.223994 293.643669 
L 185.837258 292.907713 
L 186.460954 292.561381 
L 187.08465 292.474798 
L 187.708346 292.215049 
L 188.955738 291.998591 
L 189.579434 291.9553 
L 190.826826 291.695551 
L 191.450522 291.652259 
L 193.945306 291.046178 
L 195.816393 290.873012 
L 197.063785 290.743137 
L 197.687481 290.569971 
L 198.311177 290.526679 
L 200.182265 289.963889 
L 203.924441 289.401099 
L 204.548137 289.227933 
L 205.171833 288.405394 
L 207.042921 287.71273 
L 208.914009 287.193231 
L 209.537705 286.890191 
L 210.161401 286.846899 
L 213.279881 285.981069 
L 214.527273 285.894485 
L 215.150969 285.807902 
L 217.022057 285.245113 
L 219.516841 284.639031 
L 220.140537 284.379282 
L 220.764232 284.292699 
L 221.387928 283.989658 
L 227.624888 283.037244 
L 230.743368 282.171414 
L 231.367064 281.78179 
L 233.861848 281.132417 
L 235.10924 280.396461 
L 235.732936 279.963546 
L 237.604024 279.617214 
L 241.3462 278.491634 
L 242.593592 278.10201 
L 243.217288 278.015427 
L 244.46468 277.669095 
L 245.712072 277.366054 
L 246.335768 277.279471 
L 247.583159 276.759973 
L 248.206855 276.630098 
L 248.830551 276.370349 
L 249.454247 276.283766 
L 250.077943 275.980725 
L 250.701639 275.807559 
L 251.949031 275.720976 
L 253.196423 275.28806 
L 254.443815 275.201477 
L 255.067511 274.898437 
L 257.562295 274.465521 
L 260.057079 274.249064 
L 260.680775 274.119189 
L 261.928167 273.513108 
L 268.788823 270.612575 
L 269.412519 270.266243 
L 270.036215 269.61687 
L 270.659911 268.577873 
L 271.283607 267.755334 
L 271.907303 267.582168 
L 272.530999 267.582168 
L 273.77839 266.673046 
L 274.402086 266.49988 
L 275.025782 266.153548 
L 275.649478 266.023673 
L 276.273174 265.460883 
L 276.89687 265.287717 
L 278.767958 264.378595 
L 280.01535 262.646934 
L 280.639046 262.25731 
L 281.262742 261.218313 
L 281.886438 260.56894 
L 282.510134 260.265899 
L 283.13383 260.092733 
L 285.628614 258.620821 
L 286.876006 257.625116 
L 287.499702 257.235492 
L 288.123398 256.32637 
L 288.747094 254.941041 
L 289.37079 254.031919 
L 289.994486 253.555712 
L 290.618182 253.295963 
L 293.112966 251.131386 
L 294.360358 250.135681 
L 294.984054 249.616183 
L 295.60775 248.793644 
L 296.855142 247.711355 
L 299.349925 246.109569 
L 299.973621 245.546779 
L 300.597317 245.416904 
L 301.221013 245.157155 
L 303.092101 244.118158 
L 304.339493 243.512077 
L 305.586885 242.343206 
L 306.210581 241.60725 
L 307.457973 240.741419 
L 308.081669 240.568253 
L 308.705365 240.265212 
L 309.952757 239.442673 
L 310.576453 239.096341 
L 311.200149 239.009758 
L 316.813413 235.633018 
L 317.437109 235.416561 
L 319.308197 234.204398 
L 321.179285 233.641608 
L 321.802981 233.208693 
L 322.426677 233.078818 
L 323.674069 232.645903 
L 325.545156 231.909947 
L 327.416244 231.217282 
L 328.663636 231.000825 
L 329.911028 229.918536 
L 331.15842 229.312455 
L 332.405812 228.61979 
L 333.029508 228.273458 
L 334.2769 227.927126 
L 334.900596 227.537502 
L 335.524292 227.364336 
L 337.39538 226.195465 
L 340.51386 225.459509 
L 342.384948 224.37722 
L 343.008644 224.290637 
L 343.63234 224.07418 
L 344.879732 223.814431 
L 346.75082 222.429102 
L 348.621908 221.996186 
L 349.245604 221.779729 
L 349.8693 221.303522 
L 353.611475 220.091359 
L 354.235171 220.048067 
L 354.858867 219.874901 
L 356.106259 219.355403 
L 360.472131 217.840199 
L 361.719523 217.667033 
L 362.343219 217.493867 
L 362.966915 217.190826 
L 363.590611 217.060952 
L 365.461699 216.195121 
L 367.332787 215.285999 
L 367.956483 214.853084 
L 368.580179 214.679918 
L 370.451267 213.684212 
L 371.698659 213.381172 
L 372.946051 212.731799 
L 374.193443 212.385466 
L 374.817139 212.298883 
L 376.064531 211.562927 
L 376.688227 211.433053 
L 377.935618 210.913554 
L 378.559314 210.78368 
L 379.18301 210.437348 
L 381.677794 210.047724 
L 382.925186 209.441642 
L 383.548882 208.922144 
L 384.172578 207.839856 
L 385.41997 207.580107 
L 386.043666 207.450232 
L 388.53845 206.151486 
L 389.162146 206.021611 
L 394.151714 203.683869 
L 396.022802 203.294245 
L 397.270194 202.688164 
L 397.89389 202.428414 
L 398.517586 202.341831 
L 401.01237 201.259543 
L 402.883458 200.090672 
L 403.507154 200.004089 
L 404.130849 199.787631 
L 404.754545 199.744339 
L 407.873025 198.9218 
L 408.496721 198.445594 
L 409.744113 198.012678 
L 411.615201 197.406597 
L 412.238897 197.016973 
L 412.862593 196.843807 
L 413.486289 196.410892 
L 414.109985 196.151142 
L 415.357377 195.501769 
L 417.852161 194.722522 
L 418.475857 194.419481 
L 420.346945 192.990861 
L 420.970641 192.860986 
L 422.218033 191.908572 
L 422.841729 191.778698 
L 423.465425 190.826284 
L 424.089121 190.566535 
L 424.712817 190.090328 
L 425.336513 190.003745 
L 426.583905 189.267789 
L 427.207601 189.137914 
L 427.831297 188.878165 
L 428.454993 188.401958 
L 429.078689 188.185501 
L 430.949776 186.930046 
L 433.44456 185.674592 
L 434.068256 185.588009 
L 435.315648 185.025219 
L 435.939344 184.678887 
L 436.56304 183.63989 
L 437.186736 183.0771 
L 437.810432 182.730768 
L 438.434128 182.600893 
L 439.68152 181.821646 
L 440.305216 181.691771 
L 441.552608 181.08569 
L 443.423696 180.306442 
L 444.671088 179.440612 
L 445.91848 178.141866 
L 449.03696 175.890706 
L 450.284352 174.851709 
L 450.908048 174.59196 
L 451.531744 173.899296 
L 452.15544 173.423089 
L 453.402832 172.990174 
L 454.650224 172.167634 
L 455.27392 171.864594 
L 455.897615 171.691428 
L 456.521311 171.258512 
L 457.145007 171.128638 
L 459.016095 170.132932 
L 460.263487 169.396976 
L 466.500447 167.189108 
L 467.124143 166.626319 
L 468.995231 165.933654 
L 470.242623 165.54403 
L 470.866319 165.067823 
L 473.361103 163.769077 
L 473.984799 163.422745 
L 475.232191 160.99842 
L 476.479583 159.526507 
L 477.726975 158.790551 
L 479.598063 158.054595 
L 480.221759 157.968012 
L 480.845455 157.62168 
L 482.716542 157.05889 
L 485.211326 155.93331 
L 485.835022 155.543687 
L 487.082414 155.110771 
L 490.82459 152.946195 
L 491.448286 152.296822 
L 492.695678 151.647449 
L 493.319374 151.301117 
L 493.94307 151.084659 
L 494.566766 150.651744 
L 495.814158 150.045662 
L 497.685246 149.049957 
L 498.308942 148.876791 
L 498.932638 148.400584 
L 499.556334 148.140835 
L 500.18003 148.01096 
L 501.427422 147.578045 
L 503.29851 146.885381 
L 503.922206 146.452465 
L 505.169598 146.106133 
L 506.41699 145.629926 
L 507.040686 145.153719 
L 508.288077 144.764096 
L 508.911773 144.461055 
L 509.535469 144.287889 
L 510.782861 143.422058 
L 512.030253 142.859268 
L 513.277645 141.906854 
L 514.525037 141.473939 
L 515.148733 140.954441 
L 515.772429 140.867858 
L 517.019821 139.958736 
L 518.267213 139.352654 
L 518.890909 139.092905 
L 519.514605 138.486824 
L 523.256781 137.144786 
L 525.127869 136.322247 
L 526.998957 135.759457 
L 528.246349 135.586291 
L 528.870045 135.326542 
L 529.493741 135.239959 
L 530.741133 134.72046 
L 531.364829 134.677169 
L 533.859613 133.768047 
L 535.7307 132.512592 
L 536.354396 132.252843 
L 537.601788 131.60347 
L 538.225484 131.387013 
L 540.720268 129.9151 
L 541.343964 129.525477 
L 542.591356 129.222436 
L 544.462444 128.183439 
L 546.333532 127.577358 
L 546.957228 127.317609 
L 548.20462 127.014568 
L 551.3231 126.018863 
L 553.194188 125.67253 
L 555.688972 124.893283 
L 556.312668 124.633534 
L 556.936364 124.546951 
L 557.56006 124.24391 
L 558.807452 123.984161 
L 560.054844 123.551245 
L 560.678539 123.334788 
L 561.925931 123.204913 
L 563.173323 122.901873 
L 565.044411 122.598832 
L 565.668107 122.382374 
L 566.915499 122.2525 
L 572.528763 120.607421 
L 573.152459 120.390964 
L 573.776155 120.347672 
L 577.518331 119.222092 
L 578.765723 118.789177 
L 579.389419 118.702594 
L 581.260507 118.053221 
L 581.884203 118.053221 
L 583.131595 117.620306 
L 583.755291 117.014224 
L 584.378987 116.711184 
L 585.626379 116.32156 
L 588.121162 115.369146 
L 588.744858 115.239272 
L 589.368554 114.849648 
L 589.99225 114.719773 
L 590.615946 114.373441 
L 593.734426 113.464319 
L 594.358122 113.074695 
L 594.981818 112.94482 
L 595.605514 112.425322 
L 597.476602 112.07899 
L 598.723994 111.386325 
L 599.34769 110.693661 
L 600.595082 110.433912 
L 604.960954 109.438206 
L 605.58465 109.26504 
L 606.832042 109.221749 
L 607.455738 108.918708 
L 609.950522 108.485793 
L 610.574218 108.182752 
L 612.445306 107.923003 
L 614.940089 107.143755 
L 616.811177 106.71084 
L 618.682265 106.234633 
L 620.553353 105.671843 
L 623.671833 104.762721 
L 624.295529 104.416389 
L 626.166617 103.767016 
L 626.790313 103.290809 
L 628.037705 102.944477 
L 628.661401 102.684728 
L 629.908793 102.338395 
L 632.403577 101.212816 
L 634.274665 101.082941 
L 636.769449 100.346985 
L 637.393145 99.957361 
L 638.640537 99.611029 
L 640.511624 98.658615 
L 641.13532 98.528741 
L 641.759016 98.2257 
L 642.382712 98.182409 
L 649.243368 95.887957 
L 651.738152 95.281876 
L 652.361848 95.10871 
L 653.60924 94.54592 
L 654.232936 94.459337 
L 655.480328 94.113005 
L 656.104024 93.636798 
L 656.72772 93.333757 
L 657.351416 92.597801 
L 657.975112 92.164886 
L 659.222504 91.775262 
L 659.8462 91.299055 
L 666.706855 88.485106 
L 667.954247 88.182065 
L 669.825335 87.316234 
L 671.072727 86.580278 
L 671.696423 86.450404 
L 672.320119 85.974197 
L 673.567511 85.368115 
L 674.814903 84.588868 
L 676.685991 83.723037 
L 677.309687 83.290122 
L 678.557079 82.813915 
L 679.804471 82.077959 
L 680.428167 81.774918 
L 681.051863 81.342003 
L 682.299255 80.909088 
L 682.922951 80.779213 
L 685.417735 79.653633 
L 688.536215 78.571345 
L 689.159911 78.528054 
L 689.783607 78.354887 
L 690.407303 77.965264 
L 691.030999 77.878681 
L 691.654694 77.662223 
L 693.525782 77.315891 
L 696.644262 75.714104 
L 697.891654 75.02144 
L 698.51535 74.934857 
L 700.386438 73.939151 
L 702.257526 73.246487 
L 704.128614 72.423948 
L 706.623398 71.428243 
L 707.247094 71.255076 
L 707.87079 70.865453 
L 709.118182 70.692287 
L 709.741878 70.302663 
L 710.365574 70.259371 
L 711.612966 69.869747 
L 712.860358 69.263666 
L 713.484054 69.177083 
L 714.10775 68.917334 
L 714.731446 68.787459 
L 716.602534 67.96492 
L 717.22623 67.835046 
L 717.849925 67.575296 
L 720.968405 66.83934 
L 722.839493 66.103384 
L 725.334277 64.674764 
L 726.581669 64.198557 
L 727.205365 63.808933 
L 728.452757 63.549184 
L 729.076453 63.202852 
L 729.700149 63.072977 
L 730.947541 62.380313 
L 734.689717 60.648651 
L 736.560805 60.04257 
L 737.808197 59.609655 
L 738.431893 59.393197 
L 739.679285 58.743824 
L 740.926677 58.3542 
L 741.550373 58.224326 
L 744.045156 57.055454 
L 744.668852 56.968871 
L 745.292548 56.752414 
L 746.53994 56.016458 
L 747.163636 55.8 
L 747.163636 55.8 
" clip-path="url(#pca76a94b6a)" style="fill: none; stroke: #1f77b4; stroke-width: 1.5; stroke-linecap: square"/>
   </g>
   <g id="line2d_36">
    <path d="M 139.06006 307.8 
L 140.931148 307.713417 
L 142.802235 307.670125 
L 146.544411 307.583542 
L 149.662891 307.453668 
L 152.157675 307.453668 
L 152.781371 307.280502 
L 155.276155 307.193919 
L 157.147243 306.977461 
L 159.018331 306.804295 
L 162.760507 306.631129 
L 163.384203 306.631129 
L 164.007899 306.501254 
L 166.502683 306.414671 
L 167.750075 306.328088 
L 172.739642 306.241505 
L 175.858122 306.11163 
L 183.342474 306.025047 
L 186.460954 305.895173 
L 190.20313 305.80859 
L 192.697914 305.722007 
L 198.311177 305.635423 
L 200.182265 305.592132 
L 202.053353 305.54884 
L 203.924441 305.332383 
L 207.666617 305.289091 
L 208.914009 305.202508 
L 213.279881 305.115925 
L 220.140537 304.726301 
L 224.506408 304.639718 
L 225.7538 304.553135 
L 227.624888 304.466552 
L 231.367064 304.293386 
L 233.861848 304.250094 
L 235.732936 304.076928 
L 245.712072 303.470847 
L 248.206855 303.384264 
L 252.572727 303.167806 
L 254.443815 303.081223 
L 260.680775 302.734891 
L 267.541431 302.648308 
L 270.036215 302.388559 
L 271.283607 302.301976 
L 279.391654 301.652603 
L 283.13383 301.176396 
L 285.628614 301.089813 
L 290.618182 300.44044 
L 294.360358 300.353857 
L 296.231446 300.180691 
L 297.478838 300.137399 
L 298.72623 300.007524 
L 300.597317 299.920941 
L 301.844709 299.747775 
L 304.963189 299.401443 
L 307.457973 299.31486 
L 308.705365 299.228277 
L 311.200149 299.141694 
L 312.447541 299.055111 
L 315.566021 298.75207 
L 316.189717 298.578904 
L 319.931893 298.405738 
L 323.050373 298.319155 
L 331.15842 297.842948 
L 333.029508 297.756365 
L 341.137556 297.280158 
L 345.503428 297.193575 
L 346.127124 297.0637 
L 351.116692 296.977117 
L 355.482563 296.76066 
L 362.343219 296.674077 
L 366.709091 296.457619 
L 371.698659 296.371036 
L 376.688227 296.111287 
L 381.054098 296.024704 
L 392.904322 295.288748 
L 397.89389 295.202165 
L 414.109985 294.163168 
L 417.852161 294.076585 
L 419.723249 294.033293 
L 421.594337 293.990002 
L 423.465425 293.816836 
L 428.454993 293.730253 
L 429.702385 293.513795 
L 430.949776 293.427212 
L 434.068256 293.297337 
L 435.315648 293.210754 
L 436.56304 293.124171 
L 442.176304 293.037588 
L 443.423696 292.907713 
L 445.91848 292.864422 
L 446.542176 292.734547 
L 447.789568 292.647964 
L 448.413264 292.51809 
L 450.284352 292.431507 
L 460.887183 291.782134 
L 462.758271 291.695551 
L 465.876751 291.565676 
L 474.608495 291.479093 
L 478.974367 291.262635 
L 483.963934 291.176052 
L 486.458718 291.089469 
L 488.953502 291.046178 
L 490.200894 290.916303 
L 492.695678 290.82972 
L 498.932638 290.483388 
L 502.674814 290.440096 
L 504.545902 290.26693 
L 506.41699 290.223639 
L 510.782861 290.137055 
L 513.277645 290.050472 
L 520.761997 289.963889 
L 523.880477 289.834015 
L 527.622653 289.747432 
L 529.493741 289.530974 
L 533.235917 289.487683 
L 535.107004 289.314516 
L 537.601788 289.227933 
L 545.08614 289.14135 
L 548.20462 289.011476 
L 558.807452 288.968184 
L 560.054844 288.881601 
L 561.925931 288.83831 
L 570.033979 288.751727 
L 571.281371 288.665143 
L 578.142027 288.57856 
L 580.636811 288.491977 
L 588.121162 288.448686 
L 589.368554 288.362103 
L 598.723994 288.318811 
L 600.595082 288.145645 
L 616.187481 288.059062 
L 618.058569 288.01577 
L 634.898361 287.929187 
L 637.393145 287.842604 
L 647.995976 287.756021 
L 649.243368 287.669438 
L 652.361848 287.582855 
L 654.232936 287.409689 
L 657.351416 287.323106 
L 659.8462 287.236523 
L 663.588376 287.14994 
L 665.459463 287.106648 
L 667.954247 287.020065 
L 669.825335 286.976774 
L 672.943815 286.890191 
L 674.191207 286.803608 
L 677.933383 286.717025 
L 681.051863 286.58715 
L 682.299255 286.543858 
L 684.170343 286.370692 
L 687.912519 286.284109 
L 690.407303 286.197526 
L 696.644262 286.110943 
L 699.762742 285.981069 
L 705.999702 285.894485 
L 710.365574 285.678028 
L 715.978838 285.591445 
L 717.22623 285.504862 
L 728.452757 285.418279 
L 730.323845 285.374987 
L 733.442325 285.331696 
L 735.937109 285.071946 
L 737.808197 285.028655 
L 741.550373 284.942072 
L 747.163636 284.59574 
L 747.163636 284.59574 
" clip-path="url(#pca76a94b6a)" style="fill: none; stroke: #ff7f0e; stroke-width: 1.5; stroke-linecap: square"/>
   </g>
   <g id="patch_3">
    <path d="M 108 320.4 
L 108 43.2 
" style="fill: none; stroke: #a9a9a9; stroke-width: 0.8; stroke-linejoin: miter; stroke-linecap: square"/>
   </g>
   <g id="patch_4">
    <path d="M 777.6 320.4 
L 777.6 43.2 
" style="fill: none"/>
   </g>
   <g id="patch_5">
    <path d="M 108 320.4 
L 777.6 320.4 
" style="fill: none; stroke: #a9a9a9; stroke-width: 0.8; stroke-linejoin: miter; stroke-linecap: square"/>
   </g>
   <g id="patch_6">
    <path d="M 108 43.2 
L 777.6 43.2 
" style="fill: none"/>
   </g>
   <g id="text_18">
    <!-- get_subscribe history -->
    <g style="fill: #a9a9a9" transform="translate(378.6075 37.2) scale(0.12 -0.12)">
     <defs>
      <path id="DejaVuSans-67" d="M 2906 1791 
Q 2906 2416 2648 2759 
Q 2391 3103 1925 3103 
Q 1463 3103 1205 2759 
Q 947 2416 947 1791 
Q 947 1169 1205 825 
Q 1463 481 1925 481 
Q 2391 481 2648 825 
Q 2906 1169 2906 1791 
z
M 3481 434 
Q 3481 -459 3084 -895 
Q 2688 -1331 1869 -1331 
Q 1566 -1331 1297 -1286 
Q 1028 -1241 775 -1147 
L 775 -588 
Q 1028 -725 1275 -790 
Q 1522 -856 1778 -856 
Q 2344 -856 2625 -561 
Q 2906 -266 2906 331 
L 2906 616 
Q 2728 306 2450 153 
Q 2172 0 1784 0 
Q 1141 0 747 490 
Q 353 981 353 1791 
Q 353 2603 747 3093 
Q 1141 3584 1784 3584 
Q 2172 3584 2450 3431 
Q 2728 3278 2906 2969 
L 2906 3500 
L 3481 3500 
L 3481 434 
z
" transform="scale(0.015625)"/>
      <path id="DejaVuSans-65" d="M 3597 1894 
L 3597 1613 
L 953 1613 
Q 991 1019 1311 708 
Q 1631 397 2203 397 
Q 2534 397 2845 478 
Q 3156 559 3463 722 
L 3463 178 
Q 3153 47 2828 -22 
Q 2503 -91 2169 -91 
Q 1331 -91 842 396 
Q 353 884 353 1716 
Q 353 2575 817 3079 
Q 1281 3584 2069 3584 
Q 2775 3584 3186 3129 
Q 3597 2675 3597 1894 
z
M 3022 2063 
Q 3016 2534 2758 2815 
Q 2500 3097 2075 3097 
Q 1594 3097 1305 2825 
Q 1016 2553 972 2059 
L 3022 2063 
z
" transform="scale(0.015625)"/>
      <path id="DejaVuSans-74" d="M 1172 4494 
L 1172 3500 
L 2356 3500 
L 2356 3053 
L 1172 3053 
L 1172 1153 
Q 1172 725 1289 603 
Q 1406 481 1766 481 
L 2356 481 
L 2356 0 
L 1766 0 
Q 1100 0 847 248 
Q 594 497 594 1153 
L 594 3053 
L 172 3053 
L 172 3500 
L 594 3500 
L 594 4494 
L 1172 4494 
z
" transform="scale(0.015625)"/>
      <path id="DejaVuSans-5f" d="M 3263 -1063 
L 3263 -1509 
L -63 -1509 
L -63 -1063 
L 3263 -1063 
z
" transform="scale(0.015625)"/>
      <path id="DejaVuSans-73" d="M 2834 3397 
L 2834 2853 
Q 2591 2978 2328 3040 
Q 2066 3103 1784 3103 
Q 1356 3103 1142 2972 
Q 928 2841 928 2578 
Q 928 2378 1081 2264 
Q 1234 2150 1697 2047 
L 1894 2003 
Q 2506 1872 2764 1633 
Q 3022 1394 3022 966 
Q 3022 478 2636 193 
Q 2250 -91 1575 -91 
Q 1294 -91 989 -36 
Q 684 19 347 128 
L 347 722 
Q 666 556 975 473 
Q 1284 391 1588 391 
Q 1994 391 2212 530 
Q 2431 669 2431 922 
Q 2431 1156 2273 1281 
Q 2116 1406 1581 1522 
L 1381 1569 
Q 847 1681 609 1914 
Q 372 2147 372 2553 
Q 372 3047 722 3315 
Q 1072 3584 1716 3584 
Q 2034 3584 2315 3537 
Q 2597 3491 2834 3397 
z
" transform="scale(0.015625)"/>
      <path id="DejaVuSans-75" d="M 544 1381 
L 544 3500 
L 1119 3500 
L 1119 1403 
Q 1119 906 1312 657 
Q 1506 409 1894 409 
Q 2359 409 2629 706 
Q 2900 1003 2900 1516 
L 2900 3500 
L 3475 3500 
L 3475 0 
L 2900 0 
L 2900 538 
Q 2691 219 2414 64 
Q 2138 -91 1772 -91 
Q 1169 -91 856 284 
Q 544 659 544 1381 
z
M 1991 3584 
L 1991 3584 
z
" transform="scale(0.015625)"/>
      <path id="DejaVuSans-62" d="M 3116 1747 
Q 3116 2381 2855 2742 
Q 2594 3103 2138 3103 
Q 1681 3103 1420 2742 
Q 1159 2381 1159 1747 
Q 1159 1113 1420 752 
Q 1681 391 2138 391 
Q 2594 391 2855 752 
Q 3116 1113 3116 1747 
z
M 1159 2969 
Q 1341 3281 1617 3432 
Q 1894 3584 2278 3584 
Q 2916 3584 3314 3078 
Q 3713 2572 3713 1747 
Q 3713 922 3314 415 
Q 2916 -91 2278 -91 
Q 1894 -91 1617 61 
Q 1341 213 1159 525 
L 1159 0 
L 581 0 
L 581 4863 
L 1159 4863 
L 1159 2969 
z
" transform="scale(0.015625)"/>
      <path id="DejaVuSans-63" d="M 3122 3366 
L 3122 2828 
Q 2878 2963 2633 3030 
Q 2388 3097 2138 3097 
Q 1578 3097 1268 2742 
Q 959 2388 959 1747 
Q 959 1106 1268 751 
Q 1578 397 2138 397 
Q 2388 397 2633 464 
Q 2878 531 3122 666 
L 3122 134 
Q 2881 22 2623 -34 
Q 2366 -91 2075 -91 
Q 1284 -91 818 406 
Q 353 903 353 1747 
Q 353 2603 823 3093 
Q 1294 3584 2113 3584 
Q 2378 3584 2631 3529 
Q 2884 3475 3122 3366 
z
" transform="scale(0.015625)"/>
      <path id="DejaVuSans-72" d="M 2631 2963 
Q 2534 3019 2420 3045 
Q 2306 3072 2169 3072 
Q 1681 3072 1420 2755 
Q 1159 2438 1159 1844 
L 1159 0 
L 581 0 
L 581 3500 
L 1159 3500 
L 1159 2956 
Q 1341 3275 1631 3429 
Q 1922 3584 2338 3584 
Q 2397 3584 2469 3576 
Q 2541 3569 2628 3553 
L 2631 2963 
z
" transform="scale(0.015625)"/>
      <path id="DejaVuSans-69" d="M 603 3500 
L 1178 3500 
L 1178 0 
L 603 0 
L 603 3500 
z
M 603 4863 
L 1178 4863 
L 1178 4134 
L 603 4134 
L 603 4863 
z
" transform="scale(0.015625)"/>
      <path id="DejaVuSans-20" transform="scale(0.015625)"/>
      <path id="DejaVuSans-68" d="M 3513 2113 
L 3513 0 
L 2938 0 
L 2938 2094 
Q 2938 2591 2744 2837 
Q 2550 3084 2163 3084 
Q 1697 3084 1428 2787 
Q 1159 2491 1159 1978 
L 1159 0 
L 581 0 
L 581 4863 
L 1159 4863 
L 1159 2956 
Q 1366 3272 1645 3428 
Q 1925 3584 2291 3584 
Q 2894 3584 3203 3211 
Q 3513 2838 3513 2113 
z
" transform="scale(0.015625)"/>
      <path id="DejaVuSans-6f" d="M 1959 3097 
Q 1497 3097 1228 2736 
Q 959 2375 959 1747 
Q 959 1119 1226 758 
Q 1494 397 1959 397 
Q 2419 397 2687 759 
Q 2956 1122 2956 1747 
Q 2956 2369 2687 2733 
Q 2419 3097 1959 3097 
z
M 1959 3584 
Q 2709 3584 3137 3096 
Q 3566 2609 3566 1747 
Q 3566 888 3137 398 
Q 2709 -91 1959 -91 
Q 1206 -91 779 398 
Q 353 888 353 1747 
Q 353 2609 779 3096 
Q 1206 3584 1959 3584 
z
" transform="scale(0.015625)"/>
      <path id="DejaVuSans-79" d="M 2059 -325 
Q 1816 -950 1584 -1140 
Q 1353 -1331 966 -1331 
L 506 -1331 
L 506 -850 
L 844 -850 
Q 1081 -850 1212 -737 
Q 1344 -625 1503 -206 
L 1606 56 
L 191 3500 
L 800 3500 
L 1894 763 
L 2988 3500 
L 3597 3500 
L 2059 -325 
z
" transform="scale(0.015625)"/>
     </defs>
     <use xlink:href="#DejaVuSans-67"/>
     <use xlink:href="#DejaVuSans-65" x="63.476562"/>
     <use xlink:href="#DejaVuSans-74" x="125"/>
     <use xlink:href="#DejaVuSans-5f" x="164.208984"/>
     <use xlink:href="#DejaVuSans-73" x="214.208984"/>
     <use xlink:href="#DejaVuSans-75" x="266.308594"/>
     <use xlink:href="#DejaVuSans-62" x="329.6875"/>
     <use xlink:href="#DejaVuSans-73" x="393.164062"/>
     <use xlink:href="#DejaVuSans-63" x="445.263672"/>
     <use xlink:href="#DejaVuSans-72" x="500.244141"/>
     <use xlink:href="#DejaVuSans-69" x="541.357422"/>
     <use xlink:href="#DejaVuSans-62" x="569.140625"/>
     <use xlink:href="#DejaVuSans-65" x="632.617188"/>
     <use xlink:href="#DejaVuSans-20" x="694.140625"/>
     <use xlink:href="#DejaVuSans-68" x="725.927734"/>
     <use xlink:href="#DejaVuSans-69" x="789.306641"/>
     <use xlink:href="#DejaVuSans-73" x="817.089844"/>
     <use xlink:href="#DejaVuSans-74" x="869.189453"/>
     <use xlink:href="#DejaVuSans-6f" x="908.398438"/>
     <use xlink:href="#DejaVuSans-72" x="969.580078"/>
     <use xlink:href="#DejaVuSans-79" x="1010.693359"/>
    </g>
   </g>
   <g id="legend_1">
    <g id="line2d_37">
     <path d="M 815.08 328.498438 
L 825.08 328.498438 
L 835.08 328.498438 
" style="fill: none; stroke: #1f77b4; stroke-width: 1.5; stroke-linecap: square"/>
    </g>
    <g id="text_19">
     <!-- star -->
     <g style="fill: #a9a9a9" transform="translate(843.08 331.998438) scale(0.1 -0.1)">
      <defs>
       <path id="DejaVuSans-61" d="M 2194 1759 
Q 1497 1759 1228 1600 
Q 959 1441 959 1056 
Q 959 750 1161 570 
Q 1363 391 1709 391 
Q 2188 391 2477 730 
Q 2766 1069 2766 1631 
L 2766 1759 
L 2194 1759 
z
M 3341 1997 
L 3341 0 
L 2766 0 
L 2766 531 
Q 2569 213 2275 61 
Q 1981 -91 1556 -91 
Q 1019 -91 701 211 
Q 384 513 384 1019 
Q 384 1609 779 1909 
Q 1175 2209 1959 2209 
L 2766 2209 
L 2766 2266 
Q 2766 2663 2505 2880 
Q 2244 3097 1772 3097 
Q 1472 3097 1187 3025 
Q 903 2953 641 2809 
L 641 3341 
Q 956 3463 1253 3523 
Q 1550 3584 1831 3584 
Q 2591 3584 2966 3190 
Q 3341 2797 3341 1997 
z
" transform="scale(0.015625)"/>
      </defs>
      <use xlink:href="#DejaVuSans-73"/>
      <use xlink:href="#DejaVuSans-74" x="52.099609"/>
      <use xlink:href="#DejaVuSans-61" x="91.308594"/>
      <use xlink:href="#DejaVuSans-72" x="152.587891"/>
     </g>
    </g>
    <g id="line2d_38">
     <path d="M 815.08 343.176562 
L 825.08 343.176562 
L 835.08 343.176562 
" style="fill: none; stroke: #ff7f0e; stroke-width: 1.5; stroke-linecap: square"/>
    </g>
    <g id="text_20">
     <!-- fork -->
     <g style="fill: #a9a9a9" transform="translate(843.08 346.676562) scale(0.1 -0.1)">
      <defs>
       <path id="DejaVuSans-66" d="M 2375 4863 
L 2375 4384 
L 1825 4384 
Q 1516 4384 1395 4259 
Q 1275 4134 1275 3809 
L 1275 3500 
L 2222 3500 
L 2222 3053 
L 1275 3053 
L 1275 0 
L 697 0 
L 697 3053 
L 147 3053 
L 147 3500 
L 697 3500 
L 697 3744 
Q 697 4328 969 4595 
Q 1241 4863 1831 4863 
L 2375 4863 
z
" transform="scale(0.015625)"/>
       <path id="DejaVuSans-6b" d="M 581 4863 
L 1159 4863 
L 1159 1991 
L 2875 3500 
L 3609 3500 
L 1753 1863 
L 3688 0 
L 2938 0 
L 1159 1709 
L 1159 0 
L 581 0 
L 581 4863 
z
" transform="scale(0.015625)"/>
      </defs>
      <use xlink:href="#DejaVuSans-66"/>
      <use xlink:href="#DejaVuSans-6f" x="35.205078"/>
      <use xlink:href="#DejaVuSans-72" x="96.386719"/>
      <use xlink:href="#DejaVuSans-6b" x="137.5"/>
     </g>
    </g>
   </g>
  </g>
 </g>
 <defs>
  <clipPath id="pca76a94b6a">
   <rect x="108" y="43.2" width="669.6" height="277.2"/>
  </clipPath>
 </defs>
</svg>
