<?xml version="1.0" encoding="utf-8" standalone="no"?>
<!DOCTYPE svg PUBLIC "-//W3C//DTD SVG 1.1//EN"
  "http://www.w3.org/Graphics/SVG/1.1/DTD/svg11.dtd">
<svg xmlns:xlink="http://www.w3.org/1999/xlink" width="864pt" height="360pt" viewBox="0 0 864 360" xmlns="http://www.w3.org/2000/svg" version="1.1">
 <metadata>
  <rdf:RDF xmlns:dc="http://purl.org/dc/elements/1.1/" xmlns:cc="http://creativecommons.org/ns#" xmlns:rdf="http://www.w3.org/1999/02/22-rdf-syntax-ns#">
   <cc:Work>
    <dc:type rdf:resource="http://purl.org/dc/dcmitype/StillImage"/>
    <dc:date>2026-01-02T20:08:00.566772</dc:date>
    <dc:format>image/svg+xml</dc:format>
    <dc:creator>
     <cc:Agent>
      <dc:title>Matplotlib v3.10.8, https://matplotlib.org/</dc:title>
     </cc:Agent>
    </dc:creator>
   </cc:Work>
  </rdf:RDF>
 </metadata>
 <defs>
  <style type="text/css">*{stroke-linejoin: round; stroke-linecap: butt}</style>
 </defs>
 <g id="figure_1">
  <g id="patch_1">
   <path d="M 0 360 
L 864 360 
L 864 0 
L 0 0 
L 0 360 
z
" style="fill: none; opacity: 0"/>
  </g>
  <g id="axes_1">
   <g id="patch_2">
    <path d="M 108 320.4 
L 777.6 320.4 
L 777.6 43.2 
L 108 43.2 
L 108 320.4 
z
" style="fill: none; opacity: 0"/>
   </g>
   <g id="matplotlib.axis_1">
    <g id="xtick_1">
     <g id="line2d_1">
      <path d="M 129.809914 320.4 
L 129.809914 43.2 
" clip-path="url(#p58011c3cf9)" style="fill: none; stroke-dasharray: 5.12,1.28,0.8,1.28; stroke-dashoffset: 0; stroke: #b0b0b0; stroke-width: 0.8"/>
     </g>
     <g id="line2d_2">
      <defs>
       <path id="mf80d977710" d="M 0 0 
L 0 3.5 
" style="stroke: #a9a9a9; stroke-width: 0.8"/>
      </defs>
      <g>
       <use xlink:href="#mf80d977710" x="129.809914" y="320.4" style="fill: #a9a9a9; stroke: #a9a9a9; stroke-width: 0.8"/>
      </g>
     </g>
     <g id="text_1">
      <!-- 2021-07 -->
      <g style="fill: #a9a9a9" transform="translate(108.918508 334.998438) scale(0.1 -0.1)">
       <defs>
        <path id="DejaVuSans-32" d="M 1228 531 
L 3431 531 
L 3431 0 
L 469 0 
L 469 531 
Q 828 903 1448 1529 
Q 2069 2156 2228 2338 
Q 2531 2678 2651 2914 
Q 2772 3150 2772 3378 
Q 2772 3750 2511 3984 
Q 2250 4219 1831 4219 
Q 1534 4219 1204 4116 
Q 875 4013 500 3803 
L 500 4441 
Q 881 4594 1212 4672 
Q 1544 4750 1819 4750 
Q 2544 4750 2975 4387 
Q 3406 4025 3406 3419 
Q 3406 3131 3298 2873 
Q 3191 2616 2906 2266 
Q 2828 2175 2409 1742 
Q 1991 1309 1228 531 
z
" transform="scale(0.015625)"/>
        <path id="DejaVuSans-30" d="M 2034 4250 
Q 1547 4250 1301 3770 
Q 1056 3291 1056 2328 
Q 1056 1369 1301 889 
Q 1547 409 2034 409 
Q 2525 409 2770 889 
Q 3016 1369 3016 2328 
Q 3016 3291 2770 3770 
Q 2525 4250 2034 4250 
z
M 2034 4750 
Q 2819 4750 3233 4129 
Q 3647 3509 3647 2328 
Q 3647 1150 3233 529 
Q 2819 -91 2034 -91 
Q 1250 -91 836 529 
Q 422 1150 422 2328 
Q 422 3509 836 4129 
Q 1250 4750 2034 4750 
z
" transform="scale(0.015625)"/>
        <path id="DejaVuSans-31" d="M 794 531 
L 1825 531 
L 1825 4091 
L 703 3866 
L 703 4441 
L 1819 4666 
L 2450 4666 
L 2450 531 
L 3481 531 
L 3481 0 
L 794 0 
L 794 531 
z
" transform="scale(0.015625)"/>
        <path id="DejaVuSans-2d" d="M 313 2009 
L 1997 2009 
L 1997 1497 
L 313 1497 
L 313 2009 
z
" transform="scale(0.015625)"/>
        <path id="DejaVuSans-37" d="M 525 4666 
L 3525 4666 
L 3525 4397 
L 1831 0 
L 1172 0 
L 2766 4134 
L 525 4134 
L 525 4666 
z
" transform="scale(0.015625)"/>
       </defs>
       <use xlink:href="#DejaVuSans-32"/>
       <use xlink:href="#DejaVuSans-30" transform="translate(63.623047 0)"/>
       <use xlink:href="#DejaVuSans-32" transform="translate(127.246094 0)"/>
       <use xlink:href="#DejaVuSans-31" transform="translate(190.869141 0)"/>
       <use xlink:href="#DejaVuSans-2d" transform="translate(254.492188 0)"/>
       <use xlink:href="#DejaVuSans-30" transform="translate(290.576172 0)"/>
       <use xlink:href="#DejaVuSans-37" transform="translate(354.199219 0)"/>
      </g>
     </g>
    </g>
    <g id="xtick_2">
     <g id="line2d_3">
      <path d="M 198.821509 320.4 
L 198.821509 43.2 
" clip-path="url(#p58011c3cf9)" style="fill: none; stroke-dasharray: 5.12,1.28,0.8,1.28; stroke-dashoffset: 0; stroke: #b0b0b0; stroke-width: 0.8"/>
     </g>
     <g id="line2d_4">
      <g>
       <use xlink:href="#mf80d977710" x="198.821509" y="320.4" style="fill: #a9a9a9; stroke: #a9a9a9; stroke-width: 0.8"/>
      </g>
     </g>
     <g id="text_2">
      <!-- 2022-01 -->
      <g style="fill: #a9a9a9" transform="translate(177.930103 334.998438) scale(0.1 -0.1)">
       <use xlink:href="#DejaVuSans-32"/>
       <use xlink:href="#DejaVuSans-30" transform="translate(63.623047 0)"/>
       <use xlink:href="#DejaVuSans-32" transform="translate(127.246094 0)"/>
       <use xlink:href="#DejaVuSans-32" transform="translate(190.869141 0)"/>
       <use xlink:href="#DejaVuSans-2d" transform="translate(254.492188 0)"/>
       <use xlink:href="#DejaVuSans-30" transform="translate(290.576172 0)"/>
       <use xlink:href="#DejaVuSans-31" transform="translate(354.199219 0)"/>
      </g>
     </g>
    </g>
    <g id="xtick_3">
     <g id="line2d_5">
      <path d="M 266.707915 320.4 
L 266.707915 43.2 
" clip-path="url(#p58011c3cf9)" style="fill: none; stroke-dasharray: 5.12,1.28,0.8,1.28; stroke-dashoffset: 0; stroke: #b0b0b0; stroke-width: 0.8"/>
     </g>
     <g id="line2d_6">
      <g>
       <use xlink:href="#mf80d977710" x="266.707915" y="320.4" style="fill: #a9a9a9; stroke: #a9a9a9; stroke-width: 0.8"/>
      </g>
     </g>
     <g id="text_3">
      <!-- 2022-07 -->
      <g style="fill: #a9a9a9" transform="translate(245.816508 334.998438) scale(0.1 -0.1)">
       <use xlink:href="#DejaVuSans-32"/>
       <use xlink:href="#DejaVuSans-30" transform="translate(63.623047 0)"/>
       <use xlink:href="#DejaVuSans-32" transform="translate(127.246094 0)"/>
       <use xlink:href="#DejaVuSans-32" transform="translate(190.869141 0)"/>
       <use xlink:href="#DejaVuSans-2d" transform="translate(254.492188 0)"/>
       <use xlink:href="#DejaVuSans-30" transform="translate(290.576172 0)"/>
       <use xlink:href="#DejaVuSans-37" transform="translate(354.199219 0)"/>
      </g>
     </g>
    </g>
    <g id="xtick_4">
     <g id="line2d_7">
      <path d="M 335.719509 320.4 
L 335.719509 43.2 
" clip-path="url(#p58011c3cf9)" style="fill: none; stroke-dasharray: 5.12,1.28,0.8,1.28; stroke-dashoffset: 0; stroke: #b0b0b0; stroke-width: 0.8"/>
     </g>
     <g id="line2d_8">
      <g>
       <use xlink:href="#mf80d977710" x="335.719509" y="320.4" style="fill: #a9a9a9; stroke: #a9a9a9; stroke-width: 0.8"/>
      </g>
     </g>
     <g id="text_4">
      <!-- 2023-01 -->
      <g style="fill: #a9a9a9" transform="translate(314.828103 334.998438) scale(0.1 -0.1)">
       <defs>
        <path id="DejaVuSans-33" d="M 2597 2516 
Q 3050 2419 3304 2112 
Q 3559 1806 3559 1356 
Q 3559 666 3084 287 
Q 2609 -91 1734 -91 
Q 1441 -91 1130 -33 
Q 819 25 488 141 
L 488 750 
Q 750 597 1062 519 
Q 1375 441 1716 441 
Q 2309 441 2620 675 
Q 2931 909 2931 1356 
Q 2931 1769 2642 2001 
Q 2353 2234 1838 2234 
L 1294 2234 
L 1294 2753 
L 1863 2753 
Q 2328 2753 2575 2939 
Q 2822 3125 2822 3475 
Q 2822 3834 2567 4026 
Q 2313 4219 1838 4219 
Q 1578 4219 1281 4162 
Q 984 4106 628 3988 
L 628 4550 
Q 988 4650 1302 4700 
Q 1616 4750 1894 4750 
Q 2613 4750 3031 4423 
Q 3450 4097 3450 3541 
Q 3450 3153 3228 2886 
Q 3006 2619 2597 2516 
z
" transform="scale(0.015625)"/>
       </defs>
       <use xlink:href="#DejaVuSans-32"/>
       <use xlink:href="#DejaVuSans-30" transform="translate(63.623047 0)"/>
       <use xlink:href="#DejaVuSans-32" transform="translate(127.246094 0)"/>
       <use xlink:href="#DejaVuSans-33" transform="translate(190.869141 0)"/>
       <use xlink:href="#DejaVuSans-2d" transform="translate(254.492188 0)"/>
       <use xlink:href="#DejaVuSans-30" transform="translate(290.576172 0)"/>
       <use xlink:href="#DejaVuSans-31" transform="translate(354.199219 0)"/>
      </g>
     </g>
    </g>
    <g id="xtick_5">
     <g id="line2d_9">
      <path d="M 403.605915 320.4 
L 403.605915 43.2 
" clip-path="url(#p58011c3cf9)" style="fill: none; stroke-dasharray: 5.12,1.28,0.8,1.28; stroke-dashoffset: 0; stroke: #b0b0b0; stroke-width: 0.8"/>
     </g>
     <g id="line2d_10">
      <g>
       <use xlink:href="#mf80d977710" x="403.605915" y="320.4" style="fill: #a9a9a9; stroke: #a9a9a9; stroke-width: 0.8"/>
      </g>
     </g>
     <g id="text_5">
      <!-- 2023-07 -->
      <g style="fill: #a9a9a9" transform="translate(382.714509 334.998438) scale(0.1 -0.1)">
       <use xlink:href="#DejaVuSans-32"/>
       <use xlink:href="#DejaVuSans-30" transform="translate(63.623047 0)"/>
       <use xlink:href="#DejaVuSans-32" transform="translate(127.246094 0)"/>
       <use xlink:href="#DejaVuSans-33" transform="translate(190.869141 0)"/>
       <use xlink:href="#DejaVuSans-2d" transform="translate(254.492188 0)"/>
       <use xlink:href="#DejaVuSans-30" transform="translate(290.576172 0)"/>
       <use xlink:href="#DejaVuSans-37" transform="translate(354.199219 0)"/>
      </g>
     </g>
    </g>
    <g id="xtick_6">
     <g id="line2d_11">
      <path d="M 472.61751 320.4 
L 472.61751 43.2 
" clip-path="url(#p58011c3cf9)" style="fill: none; stroke-dasharray: 5.12,1.28,0.8,1.28; stroke-dashoffset: 0; stroke: #b0b0b0; stroke-width: 0.8"/>
     </g>
     <g id="line2d_12">
      <g>
       <use xlink:href="#mf80d977710" x="472.61751" y="320.4" style="fill: #a9a9a9; stroke: #a9a9a9; stroke-width: 0.8"/>
      </g>
     </g>
     <g id="text_6">
      <!-- 2024-01 -->
      <g style="fill: #a9a9a9" transform="translate(451.726103 334.998438) scale(0.1 -0.1)">
       <defs>
        <path id="DejaVuSans-34" d="M 2419 4116 
L 825 1625 
L 2419 1625 
L 2419 4116 
z
M 2253 4666 
L 3047 4666 
L 3047 1625 
L 3713 1625 
L 3713 1100 
L 3047 1100 
L 3047 0 
L 2419 0 
L 2419 1100 
L 313 1100 
L 313 1709 
L 2253 4666 
z
" transform="scale(0.015625)"/>
       </defs>
       <use xlink:href="#DejaVuSans-32"/>
       <use xlink:href="#DejaVuSans-30" transform="translate(63.623047 0)"/>
       <use xlink:href="#DejaVuSans-32" transform="translate(127.246094 0)"/>
       <use xlink:href="#DejaVuSans-34" transform="translate(190.869141 0)"/>
       <use xlink:href="#DejaVuSans-2d" transform="translate(254.492188 0)"/>
       <use xlink:href="#DejaVuSans-30" transform="translate(290.576172 0)"/>
       <use xlink:href="#DejaVuSans-31" transform="translate(354.199219 0)"/>
      </g>
     </g>
    </g>
    <g id="xtick_7">
     <g id="line2d_13">
      <path d="M 540.878978 320.4 
L 540.878978 43.2 
" clip-path="url(#p58011c3cf9)" style="fill: none; stroke-dasharray: 5.12,1.28,0.8,1.28; stroke-dashoffset: 0; stroke: #b0b0b0; stroke-width: 0.8"/>
     </g>
     <g id="line2d_14">
      <g>
       <use xlink:href="#mf80d977710" x="540.878978" y="320.4" style="fill: #a9a9a9; stroke: #a9a9a9; stroke-width: 0.8"/>
      </g>
     </g>
     <g id="text_7">
      <!-- 2024-07 -->
      <g style="fill: #a9a9a9" transform="translate(519.987572 334.998438) scale(0.1 -0.1)">
       <use xlink:href="#DejaVuSans-32"/>
       <use xlink:href="#DejaVuSans-30" transform="translate(63.623047 0)"/>
       <use xlink:href="#DejaVuSans-32" transform="translate(127.246094 0)"/>
       <use xlink:href="#DejaVuSans-34" transform="translate(190.869141 0)"/>
       <use xlink:href="#DejaVuSans-2d" transform="translate(254.492188 0)"/>
       <use xlink:href="#DejaVuSans-30" transform="translate(290.576172 0)"/>
       <use xlink:href="#DejaVuSans-37" transform="translate(354.199219 0)"/>
      </g>
     </g>
    </g>
    <g id="xtick_8">
     <g id="line2d_15">
      <path d="M 609.890573 320.4 
L 609.890573 43.2 
" clip-path="url(#p58011c3cf9)" style="fill: none; stroke-dasharray: 5.12,1.28,0.8,1.28; stroke-dashoffset: 0; stroke: #b0b0b0; stroke-width: 0.8"/>
     </g>
     <g id="line2d_16">
      <g>
       <use xlink:href="#mf80d977710" x="609.890573" y="320.4" style="fill: #a9a9a9; stroke: #a9a9a9; stroke-width: 0.8"/>
      </g>
     </g>
     <g id="text_8">
      <!-- 2025-01 -->
      <g style="fill: #a9a9a9" transform="translate(588.999167 334.998438) scale(0.1 -0.1)">
       <defs>
        <path id="DejaVuSans-35" d="M 691 4666 
L 3169 4666 
L 3169 4134 
L 1269 4134 
L 1269 2991 
Q 1406 3038 1543 3061 
Q 1681 3084 1819 3084 
Q 2600 3084 3056 2656 
Q 3513 2228 3513 1497 
Q 3513 744 3044 326 
Q 2575 -91 1722 -91 
Q 1428 -91 1123 -41 
Q 819 9 494 109 
L 494 744 
Q 775 591 1075 516 
Q 1375 441 1709 441 
Q 2250 441 2565 725 
Q 2881 1009 2881 1497 
Q 2881 1984 2565 2268 
Q 2250 2553 1709 2553 
Q 1456 2553 1204 2497 
Q 953 2441 691 2322 
L 691 4666 
z
" transform="scale(0.015625)"/>
       </defs>
       <use xlink:href="#DejaVuSans-32"/>
       <use xlink:href="#DejaVuSans-30" transform="translate(63.623047 0)"/>
       <use xlink:href="#DejaVuSans-32" transform="translate(127.246094 0)"/>
       <use xlink:href="#DejaVuSans-35" transform="translate(190.869141 0)"/>
       <use xlink:href="#DejaVuSans-2d" transform="translate(254.492188 0)"/>
       <use xlink:href="#DejaVuSans-30" transform="translate(290.576172 0)"/>
       <use xlink:href="#DejaVuSans-31" transform="translate(354.199219 0)"/>
      </g>
     </g>
    </g>
    <g id="xtick_9">
     <g id="line2d_17">
      <path d="M 677.776979 320.4 
L 677.776979 43.2 
" clip-path="url(#p58011c3cf9)" style="fill: none; stroke-dasharray: 5.12,1.28,0.8,1.28; stroke-dashoffset: 0; stroke: #b0b0b0; stroke-width: 0.8"/>
     </g>
     <g id="line2d_18">
      <g>
       <use xlink:href="#mf80d977710" x="677.776979" y="320.4" style="fill: #a9a9a9; stroke: #a9a9a9; stroke-width: 0.8"/>
      </g>
     </g>
     <g id="text_9">
      <!-- 2025-07 -->
      <g style="fill: #a9a9a9" transform="translate(656.885572 334.998438) scale(0.1 -0.1)">
       <use xlink:href="#DejaVuSans-32"/>
       <use xlink:href="#DejaVuSans-30" transform="translate(63.623047 0)"/>
       <use xlink:href="#DejaVuSans-32" transform="translate(127.246094 0)"/>
       <use xlink:href="#DejaVuSans-35" transform="translate(190.869141 0)"/>
       <use xlink:href="#DejaVuSans-2d" transform="translate(254.492188 0)"/>
       <use xlink:href="#DejaVuSans-30" transform="translate(290.576172 0)"/>
       <use xlink:href="#DejaVuSans-37" transform="translate(354.199219 0)"/>
      </g>
     </g>
    </g>
    <g id="xtick_10">
     <g id="line2d_19">
      <path d="M 746.788573 320.4 
L 746.788573 43.2 
" clip-path="url(#p58011c3cf9)" style="fill: none; stroke-dasharray: 5.12,1.28,0.8,1.28; stroke-dashoffset: 0; stroke: #b0b0b0; stroke-width: 0.8"/>
     </g>
     <g id="line2d_20">
      <g>
       <use xlink:href="#mf80d977710" x="746.788573" y="320.4" style="fill: #a9a9a9; stroke: #a9a9a9; stroke-width: 0.8"/>
      </g>
     </g>
     <g id="text_10">
      <!-- 2026-01 -->
      <g style="fill: #a9a9a9" transform="translate(725.897167 334.998438) scale(0.1 -0.1)">
       <defs>
        <path id="DejaVuSans-36" d="M 2113 2584 
Q 1688 2584 1439 2293 
Q 1191 2003 1191 1497 
Q 1191 994 1439 701 
Q 1688 409 2113 409 
Q 2538 409 2786 701 
Q 3034 994 3034 1497 
Q 3034 2003 2786 2293 
Q 2538 2584 2113 2584 
z
M 3366 4563 
L 3366 3988 
Q 3128 4100 2886 4159 
Q 2644 4219 2406 4219 
Q 1781 4219 1451 3797 
Q 1122 3375 1075 2522 
Q 1259 2794 1537 2939 
Q 1816 3084 2150 3084 
Q 2853 3084 3261 2657 
Q 3669 2231 3669 1497 
Q 3669 778 3244 343 
Q 2819 -91 2113 -91 
Q 1303 -91 875 529 
Q 447 1150 447 2328 
Q 447 3434 972 4092 
Q 1497 4750 2381 4750 
Q 2619 4750 2861 4703 
Q 3103 4656 3366 4563 
z
" transform="scale(0.015625)"/>
       </defs>
       <use xlink:href="#DejaVuSans-32"/>
       <use xlink:href="#DejaVuSans-30" transform="translate(63.623047 0)"/>
       <use xlink:href="#DejaVuSans-32" transform="translate(127.246094 0)"/>
       <use xlink:href="#DejaVuSans-36" transform="translate(190.869141 0)"/>
       <use xlink:href="#DejaVuSans-2d" transform="translate(254.492188 0)"/>
       <use xlink:href="#DejaVuSans-30" transform="translate(290.576172 0)"/>
       <use xlink:href="#DejaVuSans-31" transform="translate(354.199219 0)"/>
      </g>
     </g>
    </g>
   </g>
   <g id="matplotlib.axis_2">
    <g id="ytick_1">
     <g id="line2d_21">
      <path d="M 108 307.829623 
L 777.6 307.829623 
" clip-path="url(#p58011c3cf9)" style="fill: none; stroke-dasharray: 5.12,1.28,0.8,1.28; stroke-dashoffset: 0; stroke: #b0b0b0; stroke-width: 0.8"/>
     </g>
     <g id="line2d_22">
      <defs>
       <path id="mc392a0cbd0" d="M 0 0 
L -3.5 0 
" style="stroke: #a9a9a9; stroke-width: 0.8"/>
      </defs>
      <g>
       <use xlink:href="#mc392a0cbd0" x="108" y="307.829623" style="fill: #a9a9a9; stroke: #a9a9a9; stroke-width: 0.8"/>
      </g>
     </g>
     <g id="text_11">
      <!-- 0 -->
      <g style="fill: #a9a9a9" transform="translate(94.6375 311.628841) scale(0.1 -0.1)">
       <use xlink:href="#DejaVuSans-30"/>
      </g>
     </g>
    </g>
    <g id="ytick_2">
     <g id="line2d_23">
      <path d="M 108 278.206959 
L 777.6 278.206959 
" clip-path="url(#p58011c3cf9)" style="fill: none; stroke-dasharray: 5.12,1.28,0.8,1.28; stroke-dashoffset: 0; stroke: #b0b0b0; stroke-width: 0.8"/>
     </g>
     <g id="line2d_24">
      <g>
       <use xlink:href="#mc392a0cbd0" x="108" y="278.206959" style="fill: #a9a9a9; stroke: #a9a9a9; stroke-width: 0.8"/>
      </g>
     </g>
     <g id="text_12">
      <!-- 1000 -->
      <g style="fill: #a9a9a9" transform="translate(75.55 282.006178) scale(0.1 -0.1)">
       <use xlink:href="#DejaVuSans-31"/>
       <use xlink:href="#DejaVuSans-30" transform="translate(63.623047 0)"/>
       <use xlink:href="#DejaVuSans-30" transform="translate(127.246094 0)"/>
       <use xlink:href="#DejaVuSans-30" transform="translate(190.869141 0)"/>
      </g>
     </g>
    </g>
    <g id="ytick_3">
     <g id="line2d_25">
      <path d="M 108 248.584295 
L 777.6 248.584295 
" clip-path="url(#p58011c3cf9)" style="fill: none; stroke-dasharray: 5.12,1.28,0.8,1.28; stroke-dashoffset: 0; stroke: #b0b0b0; stroke-width: 0.8"/>
     </g>
     <g id="line2d_26">
      <g>
       <use xlink:href="#mc392a0cbd0" x="108" y="248.584295" style="fill: #a9a9a9; stroke: #a9a9a9; stroke-width: 0.8"/>
      </g>
     </g>
     <g id="text_13">
      <!-- 2000 -->
      <g style="fill: #a9a9a9" transform="translate(75.55 252.383514) scale(0.1 -0.1)">
       <use xlink:href="#DejaVuSans-32"/>
       <use xlink:href="#DejaVuSans-30" transform="translate(63.623047 0)"/>
       <use xlink:href="#DejaVuSans-30" transform="translate(127.246094 0)"/>
       <use xlink:href="#DejaVuSans-30" transform="translate(190.869141 0)"/>
      </g>
     </g>
    </g>
    <g id="ytick_4">
     <g id="line2d_27">
      <path d="M 108 218.961632 
L 777.6 218.961632 
" clip-path="url(#p58011c3cf9)" style="fill: none; stroke-dasharray: 5.12,1.28,0.8,1.28; stroke-dashoffset: 0; stroke: #b0b0b0; stroke-width: 0.8"/>
     </g>
     <g id="line2d_28">
      <g>
       <use xlink:href="#mc392a0cbd0" x="108" y="218.961632" style="fill: #a9a9a9; stroke: #a9a9a9; stroke-width: 0.8"/>
      </g>
     </g>
     <g id="text_14">
      <!-- 3000 -->
      <g style="fill: #a9a9a9" transform="translate(75.55 222.76085) scale(0.1 -0.1)">
       <use xlink:href="#DejaVuSans-33"/>
       <use xlink:href="#DejaVuSans-30" transform="translate(63.623047 0)"/>
       <use xlink:href="#DejaVuSans-30" transform="translate(127.246094 0)"/>
       <use xlink:href="#DejaVuSans-30" transform="translate(190.869141 0)"/>
      </g>
     </g>
    </g>
    <g id="ytick_5">
     <g id="line2d_29">
      <path d="M 108 189.338968 
L 777.6 189.338968 
" clip-path="url(#p58011c3cf9)" style="fill: none; stroke-dasharray: 5.12,1.28,0.8,1.28; stroke-dashoffset: 0; stroke: #b0b0b0; stroke-width: 0.8"/>
     </g>
     <g id="line2d_30">
      <g>
       <use xlink:href="#mc392a0cbd0" x="108" y="189.338968" style="fill: #a9a9a9; stroke: #a9a9a9; stroke-width: 0.8"/>
      </g>
     </g>
     <g id="text_15">
      <!-- 4000 -->
      <g style="fill: #a9a9a9" transform="translate(75.55 193.138187) scale(0.1 -0.1)">
       <use xlink:href="#DejaVuSans-34"/>
       <use xlink:href="#DejaVuSans-30" transform="translate(63.623047 0)"/>
       <use xlink:href="#DejaVuSans-30" transform="translate(127.246094 0)"/>
       <use xlink:href="#DejaVuSans-30" transform="translate(190.869141 0)"/>
      </g>
     </g>
    </g>
    <g id="ytick_6">
     <g id="line2d_31">
      <path d="M 108 159.716304 
L 777.6 159.716304 
" clip-path="url(#p58011c3cf9)" style="fill: none; stroke-dasharray: 5.12,1.28,0.8,1.28; stroke-dashoffset: 0; stroke: #b0b0b0; stroke-width: 0.8"/>
     </g>
     <g id="line2d_32">
      <g>
       <use xlink:href="#mc392a0cbd0" x="108" y="159.716304" style="fill: #a9a9a9; stroke: #a9a9a9; stroke-width: 0.8"/>
      </g>
     </g>
     <g id="text_16">
      <!-- 5000 -->
      <g style="fill: #a9a9a9" transform="translate(75.55 163.515523) scale(0.1 -0.1)">
       <use xlink:href="#DejaVuSans-35"/>
       <use xlink:href="#DejaVuSans-30" transform="translate(63.623047 0)"/>
       <use xlink:href="#DejaVuSans-30" transform="translate(127.246094 0)"/>
       <use xlink:href="#DejaVuSans-30" transform="translate(190.869141 0)"/>
      </g>
     </g>
    </g>
    <g id="ytick_7">
     <g id="line2d_33">
      <path d="M 108 130.093641 
L 777.6 130.093641 
" clip-path="url(#p58011c3cf9)" style="fill: none; stroke-dasharray: 5.12,1.28,0.8,1.28; stroke-dashoffset: 0; stroke: #b0b0b0; stroke-width: 0.8"/>
     </g>
     <g id="line2d_34">
      <g>
       <use xlink:href="#mc392a0cbd0" x="108" y="130.093641" style="fill: #a9a9a9; stroke: #a9a9a9; stroke-width: 0.8"/>
      </g>
     </g>
     <g id="text_17">
      <!-- 6000 -->
      <g style="fill: #a9a9a9" transform="translate(75.55 133.892859) scale(0.1 -0.1)">
       <use xlink:href="#DejaVuSans-36"/>
       <use xlink:href="#DejaVuSans-30" transform="translate(63.623047 0)"/>
       <use xlink:href="#DejaVuSans-30" transform="translate(127.246094 0)"/>
       <use xlink:href="#DejaVuSans-30" transform="translate(190.869141 0)"/>
      </g>
     </g>
    </g>
    <g id="ytick_8">
     <g id="line2d_35">
      <path d="M 108 100.470977 
L 777.6 100.470977 
" clip-path="url(#p58011c3cf9)" style="fill: none; stroke-dasharray: 5.12,1.28,0.8,1.28; stroke-dashoffset: 0; stroke: #b0b0b0; stroke-width: 0.8"/>
     </g>
     <g id="line2d_36">
      <g>
       <use xlink:href="#mc392a0cbd0" x="108" y="100.470977" style="fill: #a9a9a9; stroke: #a9a9a9; stroke-width: 0.8"/>
      </g>
     </g>
     <g id="text_18">
      <!-- 7000 -->
      <g style="fill: #a9a9a9" transform="translate(75.55 104.270196) scale(0.1 -0.1)">
       <use xlink:href="#DejaVuSans-37"/>
       <use xlink:href="#DejaVuSans-30" transform="translate(63.623047 0)"/>
       <use xlink:href="#DejaVuSans-30" transform="translate(127.246094 0)"/>
       <use xlink:href="#DejaVuSans-30" transform="translate(190.869141 0)"/>
      </g>
     </g>
    </g>
    <g id="ytick_9">
     <g id="line2d_37">
      <path d="M 108 70.848313 
L 777.6 70.848313 
" clip-path="url(#p58011c3cf9)" style="fill: none; stroke-dasharray: 5.12,1.28,0.8,1.28; stroke-dashoffset: 0; stroke: #b0b0b0; stroke-width: 0.8"/>
     </g>
     <g id="line2d_38">
      <g>
       <use xlink:href="#mc392a0cbd0" x="108" y="70.848313" style="fill: #a9a9a9; stroke: #a9a9a9; stroke-width: 0.8"/>
      </g>
     </g>
     <g id="text_19">
      <!-- 8000 -->
      <g style="fill: #a9a9a9" transform="translate(75.55 74.647532) scale(0.1 -0.1)">
       <defs>
        <path id="DejaVuSans-38" d="M 2034 2216 
Q 1584 2216 1326 1975 
Q 1069 1734 1069 1313 
Q 1069 891 1326 650 
Q 1584 409 2034 409 
Q 2484 409 2743 651 
Q 3003 894 3003 1313 
Q 3003 1734 2745 1975 
Q 2488 2216 2034 2216 
z
M 1403 2484 
Q 997 2584 770 2862 
Q 544 3141 544 3541 
Q 544 4100 942 4425 
Q 1341 4750 2034 4750 
Q 2731 4750 3128 4425 
Q 3525 4100 3525 3541 
Q 3525 3141 3298 2862 
Q 3072 2584 2669 2484 
Q 3125 2378 3379 2068 
Q 3634 1759 3634 1313 
Q 3634 634 3220 271 
Q 2806 -91 2034 -91 
Q 1263 -91 848 271 
Q 434 634 434 1313 
Q 434 1759 690 2068 
Q 947 2378 1403 2484 
z
M 1172 3481 
Q 1172 3119 1398 2916 
Q 1625 2713 2034 2713 
Q 2441 2713 2670 2916 
Q 2900 3119 2900 3481 
Q 2900 3844 2670 4047 
Q 2441 4250 2034 4250 
Q 1625 4250 1398 4047 
Q 1172 3844 1172 3481 
z
" transform="scale(0.015625)"/>
       </defs>
       <use xlink:href="#DejaVuSans-38"/>
       <use xlink:href="#DejaVuSans-30" transform="translate(63.623047 0)"/>
       <use xlink:href="#DejaVuSans-30" transform="translate(127.246094 0)"/>
       <use xlink:href="#DejaVuSans-30" transform="translate(190.869141 0)"/>
      </g>
     </g>
    </g>
   </g>
   <g id="line2d_39">
    <path d="M 138.436364 307.740755 
L 140.686742 307.533396 
L 141.061805 307.35566 
L 142.562057 307.148301 
L 144.062309 306.822452 
L 144.812435 306.703961 
L 146.68775 306.526225 
L 147.437876 306.229999 
L 147.812939 305.696791 
L 148.188002 305.430187 
L 148.563065 304.541507 
L 148.938128 304.482262 
L 149.688254 304.008299 
L 150.43838 303.445468 
L 151.938632 302.319807 
L 152.313695 302.171694 
L 153.063821 301.697731 
L 154.18901 301.134901 
L 154.564073 300.483202 
L 155.314199 299.890749 
L 156.064325 299.653767 
L 157.189514 299.476032 
L 159.439892 299.12056 
L 159.814955 298.942824 
L 162.440397 298.705842 
L 163.940649 298.320748 
L 166.941153 297.876408 
L 167.316216 297.669049 
L 167.691279 297.609804 
L 168.441405 297.3432 
L 171.066846 296.869237 
L 171.816972 296.632256 
L 175.192539 296.039803 
L 175.942665 295.862067 
L 177.442917 295.654708 
L 178.193043 295.417727 
L 178.568106 294.854896 
L 179.693295 294.380933 
L 180.818484 294.055084 
L 181.193547 293.847725 
L 181.943673 293.699612 
L 183.443925 293.225649 
L 184.194051 293.166404 
L 184.944177 292.959045 
L 186.44443 292.544328 
L 186.819493 292.514706 
L 187.569619 292.129611 
L 187.944682 292.070366 
L 188.319745 291.863007 
L 192.445438 291.152063 
L 193.94569 290.6781 
L 194.320753 290.411496 
L 196.196068 289.759798 
L 196.946194 289.196967 
L 198.071383 288.959986 
L 202.947202 287.478853 
L 203.322265 287.419607 
L 204.822517 286.797531 
L 205.19758 286.738286 
L 205.947706 286.412437 
L 206.697832 286.382814 
L 207.823021 286.027342 
L 208.198084 286.027342 
L 208.573147 285.849606 
L 209.323273 285.760738 
L 209.698336 285.612625 
L 211.573651 285.523757 
L 211.948715 285.434889 
L 212.698841 285.020172 
L 213.82403 284.605454 
L 214.574156 284.190737 
L 215.699345 283.687152 
L 217.199597 282.916963 
L 217.57466 282.472623 
L 218.324786 281.228471 
L 218.699849 281.10998 
L 219.074912 281.10998 
L 220.575164 280.250923 
L 220.950227 280.162055 
L 221.32529 279.77696 
L 222.075416 279.451111 
L 222.825542 279.095639 
L 225.07592 276.399976 
L 225.450983 276.281486 
L 227.326298 274.978089 
L 228.076424 274.444881 
L 228.451487 273.88205 
L 228.82655 272.963748 
L 229.201613 272.371294 
L 229.576676 272.045445 
L 229.951739 271.867709 
L 234.452495 267.690913 
L 235.952747 266.742988 
L 236.702873 266.328271 
L 238.203126 265.469214 
L 240.078441 263.632608 
L 240.828567 263.306759 
L 241.578693 262.773551 
L 241.953756 262.53657 
L 242.328819 262.477325 
L 243.454008 261.796003 
L 243.829071 261.351663 
L 245.704386 260.255625 
L 246.079449 260.107511 
L 247.204638 259.278077 
L 252.830583 257.145245 
L 253.580709 256.404679 
L 254.705898 255.812225 
L 255.456024 255.30864 
L 256.20615 255.071659 
L 256.581213 254.805055 
L 256.956276 254.686564 
L 258.081465 253.886752 
L 259.95678 253.442412 
L 261.081969 252.731468 
L 262.207158 252.464864 
L 262.582221 252.375996 
L 263.707411 251.516939 
L 265.207663 251.072599 
L 265.582726 250.776372 
L 267.833104 249.946938 
L 268.58323 249.798824 
L 269.333356 249.472975 
L 271.958797 248.465805 
L 272.708923 248.376937 
L 273.834112 247.962219 
L 275.709427 246.984671 
L 277.959805 245.651652 
L 278.709931 245.444293 
L 279.83512 244.85184 
L 280.585246 244.703726 
L 281.335372 244.229764 
L 282.085498 244.022405 
L 283.210687 243.548442 
L 284.710939 243.341084 
L 285.461065 242.926367 
L 285.836128 242.570895 
L 286.211191 241.859951 
L 287.711443 241.415611 
L 289.211696 240.704667 
L 292.587263 239.134666 
L 293.337389 238.95693 
L 294.462578 238.364476 
L 294.837641 238.305231 
L 296.712956 237.327683 
L 297.463082 236.824098 
L 298.588271 236.587116 
L 301.213712 235.698437 
L 307.21472 232.825038 
L 307.589783 232.410321 
L 307.964846 232.17334 
L 308.339909 232.084472 
L 309.090035 231.432773 
L 309.465098 231.373528 
L 309.840161 230.721829 
L 310.215224 230.573716 
L 310.590287 230.247866 
L 310.96535 230.188621 
L 311.715476 229.685036 
L 312.465602 229.418432 
L 312.840665 229.122205 
L 313.590791 228.707488 
L 314.715981 227.996544 
L 315.84117 227.404091 
L 316.591296 227.196732 
L 317.341422 226.752392 
L 317.716485 226.071071 
L 318.466611 225.478618 
L 318.841674 225.38975 
L 321.092052 224.264088 
L 321.842178 223.938239 
L 322.592304 223.375408 
L 323.34243 222.575597 
L 325.217745 221.124086 
L 325.967871 220.50201 
L 326.342934 220.324274 
L 327.09306 219.524462 
L 328.218249 218.961632 
L 328.968375 218.517292 
L 329.343438 218.398801 
L 329.718501 218.102574 
L 330.093564 218.043329 
L 333.469131 216.265969 
L 334.219257 216.058611 
L 335.719509 215.525403 
L 336.094572 215.199553 
L 337.594824 214.577477 
L 337.969887 214.458987 
L 338.720013 213.955401 
L 339.470139 213.629552 
L 340.220266 213.066722 
L 340.970392 211.49672 
L 341.720518 210.60804 
L 342.845707 209.985964 
L 343.595833 209.660115 
L 343.970896 209.60087 
L 344.721022 209.245398 
L 346.221274 208.71219 
L 346.9714 208.26785 
L 347.721526 207.912378 
L 348.096589 207.793887 
L 350.346967 206.372 
L 350.72203 205.92766 
L 351.847219 205.246338 
L 352.222282 205.098225 
L 352.972408 204.624262 
L 354.47266 203.765205 
L 354.847723 203.676337 
L 355.222786 203.350488 
L 357.848227 202.461808 
L 358.22329 202.195204 
L 358.973416 201.958223 
L 361.97392 200.477089 
L 362.724046 200.062372 
L 363.099109 199.884636 
L 363.849235 199.26256 
L 364.599361 199.055202 
L 364.974424 198.69973 
L 365.349487 198.640484 
L 366.099614 198.048031 
L 367.974929 196.892747 
L 368.725055 196.655766 
L 369.100118 196.418785 
L 369.475181 196.359539 
L 370.975433 195.618973 
L 372.100622 195.233878 
L 372.850748 195.115387 
L 374.351 194.522934 
L 374.726063 194.493311 
L 376.601378 193.634254 
L 377.351504 193.101046 
L 378.10163 192.686329 
L 379.601882 191.945762 
L 380.727071 191.175573 
L 381.477197 190.997837 
L 382.602386 190.286893 
L 383.727575 189.872176 
L 384.477701 189.605572 
L 385.977953 189.072364 
L 386.728079 188.80576 
L 388.228331 188.479911 
L 388.978457 188.242929 
L 390.853772 187.591231 
L 391.978962 187.235759 
L 392.729088 187.058023 
L 394.979466 186.643306 
L 395.729592 186.495192 
L 396.854781 186.228588 
L 397.229844 186.050852 
L 397.97997 185.902739 
L 398.730096 185.69538 
L 399.480222 185.339908 
L 399.855285 185.191795 
L 400.230348 185.191795 
L 404.356041 183.858775 
L 404.731104 183.651416 
L 405.106167 183.651416 
L 405.856293 183.35519 
L 406.231356 182.940473 
L 408.481734 181.962925 
L 409.981986 181.429717 
L 410.357049 181.192735 
L 411.482238 180.837263 
L 412.232364 180.629905 
L 412.607427 180.363301 
L 412.98249 180.274433 
L 413.357553 179.948584 
L 414.482742 179.711602 
L 415.232868 179.35613 
L 415.607931 178.882168 
L 419.733625 177.934242 
L 420.108688 177.934242 
L 420.858814 177.697261 
L 424.234381 176.838204 
L 424.984507 176.660468 
L 428.735137 175.564429 
L 429.1102 175.475561 
L 429.485263 175.268203 
L 430.235389 175.060844 
L 430.985515 174.734995 
L 431.735641 174.438768 
L 432.110704 174.172164 
L 432.86083 173.935183 
L 435.861334 172.868767 
L 436.61146 172.809522 
L 438.111712 172.365182 
L 438.486775 172.1282 
L 439.236901 171.891219 
L 441.487279 170.943294 
L 445.988036 169.284425 
L 447.863351 168.632726 
L 448.613477 168.395745 
L 449.363603 168.188386 
L 450.863855 166.914611 
L 453.489296 165.759328 
L 456.114737 164.604044 
L 456.864863 164.396685 
L 460.24043 162.708193 
L 460.990556 162.263853 
L 464.366123 160.604984 
L 464.741186 160.308757 
L 469.241943 158.590643 
L 469.992069 158.472152 
L 470.367132 158.205548 
L 471.867384 157.909322 
L 472.61751 157.583472 
L 474.492825 156.66517 
L 479.368644 154.44347 
L 480.493833 154.058375 
L 480.868896 153.791771 
L 481.619022 153.702903 
L 481.994085 153.4363 
L 482.744211 153.317809 
L 487.62003 151.510826 
L 488.745219 151.244222 
L 490.245471 150.592524 
L 490.995597 150.177807 
L 492.495849 149.377995 
L 493.245975 149.200259 
L 493.621038 148.963277 
L 493.996101 148.874409 
L 495.871417 147.926484 
L 500.747236 146.060256 
L 501.122299 146.001011 
L 502.622551 145.260444 
L 503.372677 145.112331 
L 504.122803 144.667991 
L 505.623055 143.927424 
L 512.374189 141.291007 
L 513.874441 139.98761 
L 514.249504 139.86912 
L 514.624567 139.632138 
L 515.749756 139.306289 
L 516.124819 139.010062 
L 516.874945 138.743458 
L 518.000134 137.973269 
L 518.75026 137.76591 
L 519.500386 137.351193 
L 520.625576 137.084589 
L 526.626584 134.596285 
L 528.501899 133.826096 
L 530.377214 133.233643 
L 531.502403 132.493076 
L 531.877466 132.404208 
L 532.627592 132.019114 
L 533.377718 131.782132 
L 533.752781 131.42666 
L 534.87797 130.98232 
L 535.253033 130.923075 
L 536.753285 130.212131 
L 537.878474 129.856659 
L 539.003663 129.441942 
L 540.128852 129.116093 
L 540.503915 129.056847 
L 541.254041 128.64213 
L 541.629104 128.494017 
L 542.004167 128.19779 
L 543.129356 127.901563 
L 543.879482 127.605337 
L 544.629608 127.279487 
L 546.129861 126.657412 
L 548.755302 125.946468 
L 549.505428 125.650241 
L 551.00568 125.354014 
L 551.755806 125.205901 
L 552.880995 124.761561 
L 554.006184 124.52458 
L 556.256562 123.161937 
L 557.381751 122.480616 
L 559.632129 121.769672 
L 560.007192 121.473445 
L 563.007696 120.377407 
L 564.132885 120.021935 
L 564.883011 119.607218 
L 565.633137 119.399859 
L 566.0082 119.1925 
L 566.758326 119.044387 
L 568.258578 118.451934 
L 569.008704 117.948348 
L 570.133893 117.652122 
L 571.259083 116.881933 
L 571.634146 116.822687 
L 573.134398 116.200611 
L 574.63465 115.815517 
L 575.009713 115.756271 
L 575.384776 115.578535 
L 576.134902 115.430422 
L 579.510469 114.393629 
L 580.260595 113.801176 
L 581.760847 112.942118 
L 582.13591 112.85325 
L 582.510973 112.645892 
L 582.886036 112.586646 
L 586.261603 110.898154 
L 586.636666 110.572305 
L 588.511981 110.098343 
L 589.63717 109.594757 
L 590.387296 109.387399 
L 590.762359 109.209663 
L 591.137422 108.883813 
L 593.012737 108.202492 
L 597.888557 106.365887 
L 598.638683 106.217774 
L 600.513998 105.595698 
L 601.639187 105.092112 
L 604.264628 104.2923 
L 605.014754 103.847961 
L 617.766896 99.908146 
L 618.517022 99.700788 
L 619.642211 99.28607 
L 620.017274 99.28607 
L 621.142463 99.019466 
L 621.892589 98.871353 
L 622.642716 98.663994 
L 623.767905 98.041918 
L 624.893094 97.686446 
L 627.518535 96.797767 
L 629.018787 96.027577 
L 630.143976 95.760973 
L 630.894102 95.523992 
L 631.644228 95.138897 
L 632.019291 94.813048 
L 632.769417 94.576067 
L 633.14448 94.339085 
L 633.894606 94.250217 
L 636.520047 93.480028 
L 637.645236 93.243047 
L 638.770425 92.94682 
L 639.520551 92.769084 
L 640.64574 92.176631 
L 645.521559 90.310403 
L 646.271685 90.191913 
L 647.021811 90.043799 
L 647.396874 90.043799 
L 648.522064 89.688327 
L 649.647253 89.332855 
L 653.02282 88.355307 
L 653.397883 88.325685 
L 655.273198 87.703609 
L 656.023324 87.614741 
L 656.398387 87.407382 
L 656.77345 87.377759 
L 657.898639 86.844552 
L 659.023828 86.577948 
L 659.773954 86.252098 
L 662.024332 85.452286 
L 662.399395 85.393041 
L 663.149521 85.126437 
L 667.650277 83.971153 
L 669.900655 83.200964 
L 670.650781 83.141719 
L 672.901159 82.578888 
L 673.651285 82.253039 
L 674.026349 82.193793 
L 674.401412 82.016057 
L 675.151538 81.364359 
L 678.902168 79.972094 
L 681.152546 79.37964 
L 681.902672 78.964923 
L 682.277735 78.876055 
L 683.402924 78.253979 
L 683.777987 78.165111 
L 684.15305 77.868884 
L 685.278239 77.543035 
L 691.279247 74.81775 
L 691.65431 74.758505 
L 693.904688 73.603221 
L 694.279751 73.36624 
L 695.40494 73.04039 
L 696.905192 72.418314 
L 697.280255 72.388692 
L 699.15557 71.677748 
L 699.905697 71.529634 
L 700.655823 70.966804 
L 701.030886 70.966804 
L 702.531138 70.433596 
L 704.03139 70.137369 
L 705.531642 69.485671 
L 705.906705 69.485671 
L 707.031894 69.100576 
L 707.78202 68.982085 
L 708.907209 68.330387 
L 709.657335 67.945292 
L 711.53265 67.323216 
L 712.282776 66.997367 
L 714.158091 66.493782 
L 716.408469 65.871706 
L 720.909225 64.538686 
L 723.909729 63.768497 
L 725.409982 63.057553 
L 726.535171 62.702081 
L 729.160612 62.168873 
L 729.910738 62.050382 
L 731.035927 61.606042 
L 732.161116 61.191325 
L 732.911242 61.072834 
L 734.411494 60.569249 
L 734.786557 60.569249 
L 735.16162 60.273022 
L 735.911746 60.036041 
L 736.286809 60.036041 
L 739.662376 58.91038 
L 741.162628 58.258681 
L 741.537691 58.199436 
L 742.287817 57.843964 
L 743.037943 57.518114 
L 743.788069 57.192265 
L 744.538195 56.896039 
L 744.913258 56.659057 
L 745.288321 56.599812 
L 746.038447 56.214717 
L 747.163636 55.8 
L 747.163636 55.8 
" clip-path="url(#p58011c3cf9)" style="fill: none; stroke: #1f77b4; stroke-width: 1.5; stroke-linecap: square"/>
   </g>
   <g id="line2d_40">
    <path d="M 138.811427 307.8 
L 142.186994 307.711132 
L 145.187498 307.563019 
L 146.68775 307.563019 
L 147.062813 307.444528 
L 148.938128 307.35566 
L 151.188506 307.089056 
L 153.438884 307.000188 
L 154.18901 306.91132 
L 156.814451 306.792829 
L 159.439892 306.703961 
L 161.315208 306.644716 
L 166.191027 306.555848 
L 168.066342 306.496603 
L 171.441909 306.407735 
L 172.942161 306.378112 
L 176.692791 306.289244 
L 178.193043 306.141131 
L 179.693295 306.111508 
L 181.943673 306.02264 
L 183.443925 305.993018 
L 185.31924 305.933772 
L 186.819493 305.785659 
L 190.19506 305.696791 
L 190.945186 305.637546 
L 192.445438 305.548678 
L 194.695816 305.45981 
L 196.196068 305.370942 
L 202.947202 304.926602 
L 205.572643 304.837734 
L 206.697832 304.719243 
L 208.573147 304.630375 
L 212.323778 304.423016 
L 216.074408 304.363771 
L 217.57466 304.186035 
L 219.449975 304.097167 
L 223.200605 303.712072 
L 225.450983 303.415846 
L 226.951235 303.3566 
L 229.951739 302.941883 
L 232.202117 302.882638 
L 233.327306 302.764147 
L 234.452495 302.675279 
L 253.955772 301.223769 
L 256.581213 301.134901 
L 258.081465 300.957165 
L 259.95678 300.868297 
L 262.207158 300.779429 
L 264.082474 300.690561 
L 265.582726 300.660938 
L 267.458041 300.601693 
L 268.208167 300.512825 
L 273.459049 300.423957 
L 274.209175 300.335089 
L 278.709931 300.246221 
L 282.085498 300.068485 
L 284.710939 299.979617 
L 286.211191 299.801881 
L 288.836632 299.713013 
L 289.586759 299.594522 
L 291.462074 299.535277 
L 295.212704 299.476032 
L 296.712956 299.327918 
L 298.213208 299.298296 
L 299.338397 299.209428 
L 300.838649 299.061314 
L 304.589279 298.853956 
L 308.339909 298.765088 
L 311.715476 298.587352 
L 312.840665 298.557729 
L 313.590791 298.439238 
L 315.466107 298.35037 
L 316.216233 298.291125 
L 318.091548 298.202257 
L 319.5918 298.172634 
L 322.217241 298.083766 
L 331.968879 297.402445 
L 334.219257 297.313577 
L 336.094572 297.254332 
L 341.345455 297.165464 
L 342.095581 297.076596 
L 347.346463 296.987728 
L 351.097093 296.780369 
L 351.847219 296.750746 
L 352.597345 296.661878 
L 354.47266 296.57301 
L 356.347975 296.513765 
L 358.22329 296.424897 
L 360.098605 296.365652 
L 363.474172 296.276784 
L 365.72455 296.187916 
L 370.975433 296.099048 
L 375.101126 295.862067 
L 376.601378 295.802821 
L 377.726567 295.713953 
L 382.977449 295.625085 
L 385.227827 295.536217 
L 391.978962 295.447349 
L 393.479214 295.417727 
L 397.97997 295.358481 
L 398.730096 295.299236 
L 403.980978 295.210368 
L 405.48123 295.180745 
L 415.232868 295.091877 
L 417.483247 295.003009 
L 433.235893 294.914141 
L 435.111208 294.854896 
L 444.862847 294.795651 
L 445.612973 294.736405 
L 447.488288 294.67716 
L 448.613477 294.558669 
L 450.863855 294.469801 
L 453.489296 294.351311 
L 456.864863 294.262443 
L 458.740178 294.203197 
L 461.365619 294.114329 
L 464.366123 293.966216 
L 466.241438 293.877348 
L 467.74169 293.847725 
L 474.117762 293.758857 
L 476.36814 293.669989 
L 480.493833 293.581121 
L 483.119274 293.462631 
L 485.744715 293.403385 
L 486.494841 293.34414 
L 495.496354 293.255272 
L 499.246984 293.047913 
L 501.872425 292.959045 
L 505.998118 292.722064 
L 508.623559 292.633196 
L 510.123811 292.603574 
L 512.749252 292.514706 
L 514.624567 292.307347 
L 518.375197 292.218479 
L 519.125323 292.129611 
L 522.875954 292.040743 
L 524.751269 291.981498 
L 528.876962 291.951875 
L 529.627088 291.863007 
L 533.752781 291.774139 
L 534.502907 291.714894 
L 542.754293 291.626026 
L 545.004671 291.537158 
L 550.630617 291.44829 
L 552.130869 291.418667 
L 555.506436 291.359422 
L 556.256562 291.270554 
L 561.132381 291.181686 
L 563.007696 291.12244 
L 569.75883 291.033572 
L 570.884019 290.944704 
L 572.009209 290.855836 
L 573.134398 290.766968 
L 578.760343 290.6781 
L 581.010721 290.589232 
L 591.887548 290.500364 
L 595.263115 290.322628 
L 600.513998 290.23376 
L 602.01425 290.204138 
L 606.515006 290.11527 
L 608.390321 290.056024 
L 616.266644 289.967156 
L 618.892085 289.848666 
L 625.64322 289.759798 
L 627.143472 289.730175 
L 630.894102 289.641307 
L 633.519543 289.522817 
L 637.645236 289.433949 
L 640.270677 289.315458 
L 643.646244 289.256213 
L 644.39637 289.196967 
L 652.647757 289.108099 
L 654.898135 289.019231 
L 657.523576 288.930363 
L 659.398891 288.871118 
L 670.275718 288.78225 
L 672.526096 288.693382 
L 678.527105 288.604514 
L 680.777483 288.515646 
L 685.653302 288.426778 
L 687.90368 288.33791 
L 690.904184 288.249042 
L 693.154562 288.160174 
L 708.157083 288.071306 
L 711.157587 287.923193 
L 719.784036 287.834325 
L 721.284288 287.804702 
L 730.285801 287.715834 
L 732.161116 287.656589 
L 744.163132 287.567721 
L 745.663384 287.538098 
L 747.163636 287.508475 
L 747.163636 287.508475 
" clip-path="url(#p58011c3cf9)" style="fill: none; stroke: #ff7f0e; stroke-width: 1.5; stroke-linecap: square"/>
   </g>
   <g id="patch_3">
    <path d="M 108 320.4 
L 108 43.2 
" style="fill: none; stroke: #a9a9a9; stroke-width: 0.8; stroke-linejoin: miter; stroke-linecap: square"/>
   </g>
   <g id="patch_4">
    <path d="M 777.6 320.4 
L 777.6 43.2 
" style="fill: none"/>
   </g>
   <g id="patch_5">
    <path d="M 108 320.4 
L 777.6 320.4 
" style="fill: none; stroke: #a9a9a9; stroke-width: 0.8; stroke-linejoin: miter; stroke-linecap: square"/>
   </g>
   <g id="patch_6">
    <path d="M 108 43.2 
L 777.6 43.2 
" style="fill: none"/>
   </g>
   <g id="text_20">
    <!-- get_subscribe history -->
    <g style="fill: #a9a9a9" transform="translate(378.6075 37.2) scale(0.12 -0.12)">
     <defs>
      <path id="DejaVuSans-67" d="M 2906 1791 
Q 2906 2416 2648 2759 
Q 2391 3103 1925 3103 
Q 1463 3103 1205 2759 
Q 947 2416 947 1791 
Q 947 1169 1205 825 
Q 1463 481 1925 481 
Q 2391 481 2648 825 
Q 2906 1169 2906 1791 
z
M 3481 434 
Q 3481 -459 3084 -895 
Q 2688 -1331 1869 -1331 
Q 1566 -1331 1297 -1286 
Q 1028 -1241 775 -1147 
L 775 -588 
Q 1028 -725 1275 -790 
Q 1522 -856 1778 -856 
Q 2344 -856 2625 -561 
Q 2906 -266 2906 331 
L 2906 616 
Q 2728 306 2450 153 
Q 2172 0 1784 0 
Q 1141 0 747 490 
Q 353 981 353 1791 
Q 353 2603 747 3093 
Q 1141 3584 1784 3584 
Q 2172 3584 2450 3431 
Q 2728 3278 2906 2969 
L 2906 3500 
L 3481 3500 
L 3481 434 
z
" transform="scale(0.015625)"/>
      <path id="DejaVuSans-65" d="M 3597 1894 
L 3597 1613 
L 953 1613 
Q 991 1019 1311 708 
Q 1631 397 2203 397 
Q 2534 397 2845 478 
Q 3156 559 3463 722 
L 3463 178 
Q 3153 47 2828 -22 
Q 2503 -91 2169 -91 
Q 1331 -91 842 396 
Q 353 884 353 1716 
Q 353 2575 817 3079 
Q 1281 3584 2069 3584 
Q 2775 3584 3186 3129 
Q 3597 2675 3597 1894 
z
M 3022 2063 
Q 3016 2534 2758 2815 
Q 2500 3097 2075 3097 
Q 1594 3097 1305 2825 
Q 1016 2553 972 2059 
L 3022 2063 
z
" transform="scale(0.015625)"/>
      <path id="DejaVuSans-74" d="M 1172 4494 
L 1172 3500 
L 2356 3500 
L 2356 3053 
L 1172 3053 
L 1172 1153 
Q 1172 725 1289 603 
Q 1406 481 1766 481 
L 2356 481 
L 2356 0 
L 1766 0 
Q 1100 0 847 248 
Q 594 497 594 1153 
L 594 3053 
L 172 3053 
L 172 3500 
L 594 3500 
L 594 4494 
L 1172 4494 
z
" transform="scale(0.015625)"/>
      <path id="DejaVuSans-5f" d="M 3263 -1063 
L 3263 -1509 
L -63 -1509 
L -63 -1063 
L 3263 -1063 
z
" transform="scale(0.015625)"/>
      <path id="DejaVuSans-73" d="M 2834 3397 
L 2834 2853 
Q 2591 2978 2328 3040 
Q 2066 3103 1784 3103 
Q 1356 3103 1142 2972 
Q 928 2841 928 2578 
Q 928 2378 1081 2264 
Q 1234 2150 1697 2047 
L 1894 2003 
Q 2506 1872 2764 1633 
Q 3022 1394 3022 966 
Q 3022 478 2636 193 
Q 2250 -91 1575 -91 
Q 1294 -91 989 -36 
Q 684 19 347 128 
L 347 722 
Q 666 556 975 473 
Q 1284 391 1588 391 
Q 1994 391 2212 530 
Q 2431 669 2431 922 
Q 2431 1156 2273 1281 
Q 2116 1406 1581 1522 
L 1381 1569 
Q 847 1681 609 1914 
Q 372 2147 372 2553 
Q 372 3047 722 3315 
Q 1072 3584 1716 3584 
Q 2034 3584 2315 3537 
Q 2597 3491 2834 3397 
z
" transform="scale(0.015625)"/>
      <path id="DejaVuSans-75" d="M 544 1381 
L 544 3500 
L 1119 3500 
L 1119 1403 
Q 1119 906 1312 657 
Q 1506 409 1894 409 
Q 2359 409 2629 706 
Q 2900 1003 2900 1516 
L 2900 3500 
L 3475 3500 
L 3475 0 
L 2900 0 
L 2900 538 
Q 2691 219 2414 64 
Q 2138 -91 1772 -91 
Q 1169 -91 856 284 
Q 544 659 544 1381 
z
M 1991 3584 
L 1991 3584 
z
" transform="scale(0.015625)"/>
      <path id="DejaVuSans-62" d="M 3116 1747 
Q 3116 2381 2855 2742 
Q 2594 3103 2138 3103 
Q 1681 3103 1420 2742 
Q 1159 2381 1159 1747 
Q 1159 1113 1420 752 
Q 1681 391 2138 391 
Q 2594 391 2855 752 
Q 3116 1113 3116 1747 
z
M 1159 2969 
Q 1341 3281 1617 3432 
Q 1894 3584 2278 3584 
Q 2916 3584 3314 3078 
Q 3713 2572 3713 1747 
Q 3713 922 3314 415 
Q 2916 -91 2278 -91 
Q 1894 -91 1617 61 
Q 1341 213 1159 525 
L 1159 0 
L 581 0 
L 581 4863 
L 1159 4863 
L 1159 2969 
z
" transform="scale(0.015625)"/>
      <path id="DejaVuSans-63" d="M 3122 3366 
L 3122 2828 
Q 2878 2963 2633 3030 
Q 2388 3097 2138 3097 
Q 1578 3097 1268 2742 
Q 959 2388 959 1747 
Q 959 1106 1268 751 
Q 1578 397 2138 397 
Q 2388 397 2633 464 
Q 2878 531 3122 666 
L 3122 134 
Q 2881 22 2623 -34 
Q 2366 -91 2075 -91 
Q 1284 -91 818 406 
Q 353 903 353 1747 
Q 353 2603 823 3093 
Q 1294 3584 2113 3584 
Q 2378 3584 2631 3529 
Q 2884 3475 3122 3366 
z
" transform="scale(0.015625)"/>
      <path id="DejaVuSans-72" d="M 2631 2963 
Q 2534 3019 2420 3045 
Q 2306 3072 2169 3072 
Q 1681 3072 1420 2755 
Q 1159 2438 1159 1844 
L 1159 0 
L 581 0 
L 581 3500 
L 1159 3500 
L 1159 2956 
Q 1341 3275 1631 3429 
Q 1922 3584 2338 3584 
Q 2397 3584 2469 3576 
Q 2541 3569 2628 3553 
L 2631 2963 
z
" transform="scale(0.015625)"/>
      <path id="DejaVuSans-69" d="M 603 3500 
L 1178 3500 
L 1178 0 
L 603 0 
L 603 3500 
z
M 603 4863 
L 1178 4863 
L 1178 4134 
L 603 4134 
L 603 4863 
z
" transform="scale(0.015625)"/>
      <path id="DejaVuSans-20" transform="scale(0.015625)"/>
      <path id="DejaVuSans-68" d="M 3513 2113 
L 3513 0 
L 2938 0 
L 2938 2094 
Q 2938 2591 2744 2837 
Q 2550 3084 2163 3084 
Q 1697 3084 1428 2787 
Q 1159 2491 1159 1978 
L 1159 0 
L 581 0 
L 581 4863 
L 1159 4863 
L 1159 2956 
Q 1366 3272 1645 3428 
Q 1925 3584 2291 3584 
Q 2894 3584 3203 3211 
Q 3513 2838 3513 2113 
z
" transform="scale(0.015625)"/>
      <path id="DejaVuSans-6f" d="M 1959 3097 
Q 1497 3097 1228 2736 
Q 959 2375 959 1747 
Q 959 1119 1226 758 
Q 1494 397 1959 397 
Q 2419 397 2687 759 
Q 2956 1122 2956 1747 
Q 2956 2369 2687 2733 
Q 2419 3097 1959 3097 
z
M 1959 3584 
Q 2709 3584 3137 3096 
Q 3566 2609 3566 1747 
Q 3566 888 3137 398 
Q 2709 -91 1959 -91 
Q 1206 -91 779 398 
Q 353 888 353 1747 
Q 353 2609 779 3096 
Q 1206 3584 1959 3584 
z
" transform="scale(0.015625)"/>
      <path id="DejaVuSans-79" d="M 2059 -325 
Q 1816 -950 1584 -1140 
Q 1353 -1331 966 -1331 
L 506 -1331 
L 506 -850 
L 844 -850 
Q 1081 -850 1212 -737 
Q 1344 -625 1503 -206 
L 1606 56 
L 191 3500 
L 800 3500 
L 1894 763 
L 2988 3500 
L 3597 3500 
L 2059 -325 
z
" transform="scale(0.015625)"/>
     </defs>
     <use xlink:href="#DejaVuSans-67"/>
     <use xlink:href="#DejaVuSans-65" transform="translate(63.476562 0)"/>
     <use xlink:href="#DejaVuSans-74" transform="translate(125 0)"/>
     <use xlink:href="#DejaVuSans-5f" transform="translate(164.208984 0)"/>
     <use xlink:href="#DejaVuSans-73" transform="translate(214.208984 0)"/>
     <use xlink:href="#DejaVuSans-75" transform="translate(266.308594 0)"/>
     <use xlink:href="#DejaVuSans-62" transform="translate(329.6875 0)"/>
     <use xlink:href="#DejaVuSans-73" transform="translate(393.164062 0)"/>
     <use xlink:href="#DejaVuSans-63" transform="translate(445.263672 0)"/>
     <use xlink:href="#DejaVuSans-72" transform="translate(500.244141 0)"/>
     <use xlink:href="#DejaVuSans-69" transform="translate(541.357422 0)"/>
     <use xlink:href="#DejaVuSans-62" transform="translate(569.140625 0)"/>
     <use xlink:href="#DejaVuSans-65" transform="translate(632.617188 0)"/>
     <use xlink:href="#DejaVuSans-20" transform="translate(694.140625 0)"/>
     <use xlink:href="#DejaVuSans-68" transform="translate(725.927734 0)"/>
     <use xlink:href="#DejaVuSans-69" transform="translate(789.306641 0)"/>
     <use xlink:href="#DejaVuSans-73" transform="translate(817.089844 0)"/>
     <use xlink:href="#DejaVuSans-74" transform="translate(869.189453 0)"/>
     <use xlink:href="#DejaVuSans-6f" transform="translate(908.398438 0)"/>
     <use xlink:href="#DejaVuSans-72" transform="translate(969.580078 0)"/>
     <use xlink:href="#DejaVuSans-79" transform="translate(1010.693359 0)"/>
    </g>
   </g>
   <g id="legend_1">
    <g id="line2d_41">
     <path d="M 815.08 328.498438 
L 825.08 328.498438 
L 835.08 328.498438 
" style="fill: none; stroke: #1f77b4; stroke-width: 1.5; stroke-linecap: square"/>
    </g>
    <g id="text_21">
     <!-- star -->
     <g style="fill: #a9a9a9" transform="translate(843.08 331.998438) scale(0.1 -0.1)">
      <defs>
       <path id="DejaVuSans-61" d="M 2194 1759 
Q 1497 1759 1228 1600 
Q 959 1441 959 1056 
Q 959 750 1161 570 
Q 1363 391 1709 391 
Q 2188 391 2477 730 
Q 2766 1069 2766 1631 
L 2766 1759 
L 2194 1759 
z
M 3341 1997 
L 3341 0 
L 2766 0 
L 2766 531 
Q 2569 213 2275 61 
Q 1981 -91 1556 -91 
Q 1019 -91 701 211 
Q 384 513 384 1019 
Q 384 1609 779 1909 
Q 1175 2209 1959 2209 
L 2766 2209 
L 2766 2266 
Q 2766 2663 2505 2880 
Q 2244 3097 1772 3097 
Q 1472 3097 1187 3025 
Q 903 2953 641 2809 
L 641 3341 
Q 956 3463 1253 3523 
Q 1550 3584 1831 3584 
Q 2591 3584 2966 3190 
Q 3341 2797 3341 1997 
z
" transform="scale(0.015625)"/>
      </defs>
      <use xlink:href="#DejaVuSans-73"/>
      <use xlink:href="#DejaVuSans-74" transform="translate(52.099609 0)"/>
      <use xlink:href="#DejaVuSans-61" transform="translate(91.308594 0)"/>
      <use xlink:href="#DejaVuSans-72" transform="translate(152.587891 0)"/>
     </g>
    </g>
    <g id="line2d_42">
     <path d="M 815.08 343.176562 
L 825.08 343.176562 
L 835.08 343.176562 
" style="fill: none; stroke: #ff7f0e; stroke-width: 1.5; stroke-linecap: square"/>
    </g>
    <g id="text_22">
     <!-- fork -->
     <g style="fill: #a9a9a9" transform="translate(843.08 346.676562) scale(0.1 -0.1)">
      <defs>
       <path id="DejaVuSans-66" d="M 2375 4863 
L 2375 4384 
L 1825 4384 
Q 1516 4384 1395 4259 
Q 1275 4134 1275 3809 
L 1275 3500 
L 2222 3500 
L 2222 3053 
L 1275 3053 
L 1275 0 
L 697 0 
L 697 3053 
L 147 3053 
L 147 3500 
L 697 3500 
L 697 3744 
Q 697 4328 969 4595 
Q 1241 4863 1831 4863 
L 2375 4863 
z
" transform="scale(0.015625)"/>
       <path id="DejaVuSans-6b" d="M 581 4863 
L 1159 4863 
L 1159 1991 
L 2875 3500 
L 3609 3500 
L 1753 1863 
L 3688 0 
L 2938 0 
L 1159 1709 
L 1159 0 
L 581 0 
L 581 4863 
z
" transform="scale(0.015625)"/>
      </defs>
      <use xlink:href="#DejaVuSans-66"/>
      <use xlink:href="#DejaVuSans-6f" transform="translate(35.205078 0)"/>
      <use xlink:href="#DejaVuSans-72" transform="translate(96.386719 0)"/>
      <use xlink:href="#DejaVuSans-6b" transform="translate(137.5 0)"/>
     </g>
    </g>
   </g>
  </g>
 </g>
 <defs>
  <clipPath id="p58011c3cf9">
   <rect x="108" y="43.2" width="669.6" height="277.2"/>
  </clipPath>
 </defs>
</svg>
