<?xml version="1.0" encoding="utf-8" standalone="no"?>
<!DOCTYPE svg PUBLIC "-//W3C//DTD SVG 1.1//EN"
  "http://www.w3.org/Graphics/SVG/1.1/DTD/svg11.dtd">
<svg xmlns:xlink="http://www.w3.org/1999/xlink" width="864pt" height="360pt" viewBox="0 0 864 360" xmlns="http://www.w3.org/2000/svg" version="1.1">
 <metadata>
  <rdf:RDF xmlns:dc="http://purl.org/dc/elements/1.1/" xmlns:cc="http://creativecommons.org/ns#" xmlns:rdf="http://www.w3.org/1999/02/22-rdf-syntax-ns#">
   <cc:Work>
    <dc:type rdf:resource="http://purl.org/dc/dcmitype/StillImage"/>
    <dc:date>2025-07-03T08:16:34.304255</dc:date>
    <dc:format>image/svg+xml</dc:format>
    <dc:creator>
     <cc:Agent>
      <dc:title>Matplotlib v3.10.3, https://matplotlib.org/</dc:title>
     </cc:Agent>
    </dc:creator>
   </cc:Work>
  </rdf:RDF>
 </metadata>
 <defs>
  <style type="text/css">*{stroke-linejoin: round; stroke-linecap: butt}</style>
 </defs>
 <g id="figure_1">
  <g id="patch_1">
   <path d="M 0 360 
L 864 360 
L 864 0 
L 0 0 
L 0 360 
z
" style="fill: none; opacity: 0"/>
  </g>
  <g id="axes_1">
   <g id="patch_2">
    <path d="M 108 320.4 
L 777.6 320.4 
L 777.6 43.2 
L 108 43.2 
L 108 320.4 
z
" style="fill: none; opacity: 0"/>
   </g>
   <g id="matplotlib.axis_1">
    <g id="xtick_1">
     <g id="line2d_1">
      <path d="M 128.713636 320.4 
L 128.713636 43.2 
" clip-path="url(#p14588d00d1)" style="fill: none; stroke-dasharray: 5.12,1.28,0.8,1.28; stroke-dashoffset: 0; stroke: #b0b0b0; stroke-width: 0.8"/>
     </g>
     <g id="line2d_2">
      <defs>
       <path id="m593c74a9b6" d="M 0 0 
L 0 3.5 
" style="stroke: #a9a9a9; stroke-width: 0.8"/>
      </defs>
      <g>
       <use xlink:href="#m593c74a9b6" x="128.713636" y="320.4" style="fill: #a9a9a9; stroke: #a9a9a9; stroke-width: 0.8"/>
      </g>
     </g>
     <g id="text_1">
      <!-- 2021-07 -->
      <g style="fill: #a9a9a9" transform="translate(107.82223 334.998438) scale(0.1 -0.1)">
       <defs>
        <path id="DejaVuSans-32" d="M 1228 531 
L 3431 531 
L 3431 0 
L 469 0 
L 469 531 
Q 828 903 1448 1529 
Q 2069 2156 2228 2338 
Q 2531 2678 2651 2914 
Q 2772 3150 2772 3378 
Q 2772 3750 2511 3984 
Q 2250 4219 1831 4219 
Q 1534 4219 1204 4116 
Q 875 4013 500 3803 
L 500 4441 
Q 881 4594 1212 4672 
Q 1544 4750 1819 4750 
Q 2544 4750 2975 4387 
Q 3406 4025 3406 3419 
Q 3406 3131 3298 2873 
Q 3191 2616 2906 2266 
Q 2828 2175 2409 1742 
Q 1991 1309 1228 531 
z
" transform="scale(0.015625)"/>
        <path id="DejaVuSans-30" d="M 2034 4250 
Q 1547 4250 1301 3770 
Q 1056 3291 1056 2328 
Q 1056 1369 1301 889 
Q 1547 409 2034 409 
Q 2525 409 2770 889 
Q 3016 1369 3016 2328 
Q 3016 3291 2770 3770 
Q 2525 4250 2034 4250 
z
M 2034 4750 
Q 2819 4750 3233 4129 
Q 3647 3509 3647 2328 
Q 3647 1150 3233 529 
Q 2819 -91 2034 -91 
Q 1250 -91 836 529 
Q 422 1150 422 2328 
Q 422 3509 836 4129 
Q 1250 4750 2034 4750 
z
" transform="scale(0.015625)"/>
        <path id="DejaVuSans-31" d="M 794 531 
L 1825 531 
L 1825 4091 
L 703 3866 
L 703 4441 
L 1819 4666 
L 2450 4666 
L 2450 531 
L 3481 531 
L 3481 0 
L 794 0 
L 794 531 
z
" transform="scale(0.015625)"/>
        <path id="DejaVuSans-2d" d="M 313 2009 
L 1997 2009 
L 1997 1497 
L 313 1497 
L 313 2009 
z
" transform="scale(0.015625)"/>
        <path id="DejaVuSans-37" d="M 525 4666 
L 3525 4666 
L 3525 4397 
L 1831 0 
L 1172 0 
L 2766 4134 
L 525 4134 
L 525 4666 
z
" transform="scale(0.015625)"/>
       </defs>
       <use xlink:href="#DejaVuSans-32"/>
       <use xlink:href="#DejaVuSans-30" transform="translate(63.623047 0)"/>
       <use xlink:href="#DejaVuSans-32" transform="translate(127.246094 0)"/>
       <use xlink:href="#DejaVuSans-31" transform="translate(190.869141 0)"/>
       <use xlink:href="#DejaVuSans-2d" transform="translate(254.492188 0)"/>
       <use xlink:href="#DejaVuSans-30" transform="translate(290.576172 0)"/>
       <use xlink:href="#DejaVuSans-37" transform="translate(354.199219 0)"/>
      </g>
     </g>
    </g>
    <g id="xtick_2">
     <g id="line2d_3">
      <path d="M 206.495455 320.4 
L 206.495455 43.2 
" clip-path="url(#p14588d00d1)" style="fill: none; stroke-dasharray: 5.12,1.28,0.8,1.28; stroke-dashoffset: 0; stroke: #b0b0b0; stroke-width: 0.8"/>
     </g>
     <g id="line2d_4">
      <g>
       <use xlink:href="#m593c74a9b6" x="206.495455" y="320.4" style="fill: #a9a9a9; stroke: #a9a9a9; stroke-width: 0.8"/>
      </g>
     </g>
     <g id="text_2">
      <!-- 2022-01 -->
      <g style="fill: #a9a9a9" transform="translate(185.604048 334.998438) scale(0.1 -0.1)">
       <use xlink:href="#DejaVuSans-32"/>
       <use xlink:href="#DejaVuSans-30" transform="translate(63.623047 0)"/>
       <use xlink:href="#DejaVuSans-32" transform="translate(127.246094 0)"/>
       <use xlink:href="#DejaVuSans-32" transform="translate(190.869141 0)"/>
       <use xlink:href="#DejaVuSans-2d" transform="translate(254.492188 0)"/>
       <use xlink:href="#DejaVuSans-30" transform="translate(290.576172 0)"/>
       <use xlink:href="#DejaVuSans-31" transform="translate(354.199219 0)"/>
      </g>
     </g>
    </g>
    <g id="xtick_3">
     <g id="line2d_5">
      <path d="M 283.009091 320.4 
L 283.009091 43.2 
" clip-path="url(#p14588d00d1)" style="fill: none; stroke-dasharray: 5.12,1.28,0.8,1.28; stroke-dashoffset: 0; stroke: #b0b0b0; stroke-width: 0.8"/>
     </g>
     <g id="line2d_6">
      <g>
       <use xlink:href="#m593c74a9b6" x="283.009091" y="320.4" style="fill: #a9a9a9; stroke: #a9a9a9; stroke-width: 0.8"/>
      </g>
     </g>
     <g id="text_3">
      <!-- 2022-07 -->
      <g style="fill: #a9a9a9" transform="translate(262.117685 334.998438) scale(0.1 -0.1)">
       <use xlink:href="#DejaVuSans-32"/>
       <use xlink:href="#DejaVuSans-30" transform="translate(63.623047 0)"/>
       <use xlink:href="#DejaVuSans-32" transform="translate(127.246094 0)"/>
       <use xlink:href="#DejaVuSans-32" transform="translate(190.869141 0)"/>
       <use xlink:href="#DejaVuSans-2d" transform="translate(254.492188 0)"/>
       <use xlink:href="#DejaVuSans-30" transform="translate(290.576172 0)"/>
       <use xlink:href="#DejaVuSans-37" transform="translate(354.199219 0)"/>
      </g>
     </g>
    </g>
    <g id="xtick_4">
     <g id="line2d_7">
      <path d="M 360.790909 320.4 
L 360.790909 43.2 
" clip-path="url(#p14588d00d1)" style="fill: none; stroke-dasharray: 5.12,1.28,0.8,1.28; stroke-dashoffset: 0; stroke: #b0b0b0; stroke-width: 0.8"/>
     </g>
     <g id="line2d_8">
      <g>
       <use xlink:href="#m593c74a9b6" x="360.790909" y="320.4" style="fill: #a9a9a9; stroke: #a9a9a9; stroke-width: 0.8"/>
      </g>
     </g>
     <g id="text_4">
      <!-- 2023-01 -->
      <g style="fill: #a9a9a9" transform="translate(339.899503 334.998438) scale(0.1 -0.1)">
       <defs>
        <path id="DejaVuSans-33" d="M 2597 2516 
Q 3050 2419 3304 2112 
Q 3559 1806 3559 1356 
Q 3559 666 3084 287 
Q 2609 -91 1734 -91 
Q 1441 -91 1130 -33 
Q 819 25 488 141 
L 488 750 
Q 750 597 1062 519 
Q 1375 441 1716 441 
Q 2309 441 2620 675 
Q 2931 909 2931 1356 
Q 2931 1769 2642 2001 
Q 2353 2234 1838 2234 
L 1294 2234 
L 1294 2753 
L 1863 2753 
Q 2328 2753 2575 2939 
Q 2822 3125 2822 3475 
Q 2822 3834 2567 4026 
Q 2313 4219 1838 4219 
Q 1578 4219 1281 4162 
Q 984 4106 628 3988 
L 628 4550 
Q 988 4650 1302 4700 
Q 1616 4750 1894 4750 
Q 2613 4750 3031 4423 
Q 3450 4097 3450 3541 
Q 3450 3153 3228 2886 
Q 3006 2619 2597 2516 
z
" transform="scale(0.015625)"/>
       </defs>
       <use xlink:href="#DejaVuSans-32"/>
       <use xlink:href="#DejaVuSans-30" transform="translate(63.623047 0)"/>
       <use xlink:href="#DejaVuSans-32" transform="translate(127.246094 0)"/>
       <use xlink:href="#DejaVuSans-33" transform="translate(190.869141 0)"/>
       <use xlink:href="#DejaVuSans-2d" transform="translate(254.492188 0)"/>
       <use xlink:href="#DejaVuSans-30" transform="translate(290.576172 0)"/>
       <use xlink:href="#DejaVuSans-31" transform="translate(354.199219 0)"/>
      </g>
     </g>
    </g>
    <g id="xtick_5">
     <g id="line2d_9">
      <path d="M 437.304545 320.4 
L 437.304545 43.2 
" clip-path="url(#p14588d00d1)" style="fill: none; stroke-dasharray: 5.12,1.28,0.8,1.28; stroke-dashoffset: 0; stroke: #b0b0b0; stroke-width: 0.8"/>
     </g>
     <g id="line2d_10">
      <g>
       <use xlink:href="#m593c74a9b6" x="437.304545" y="320.4" style="fill: #a9a9a9; stroke: #a9a9a9; stroke-width: 0.8"/>
      </g>
     </g>
     <g id="text_5">
      <!-- 2023-07 -->
      <g style="fill: #a9a9a9" transform="translate(416.413139 334.998438) scale(0.1 -0.1)">
       <use xlink:href="#DejaVuSans-32"/>
       <use xlink:href="#DejaVuSans-30" transform="translate(63.623047 0)"/>
       <use xlink:href="#DejaVuSans-32" transform="translate(127.246094 0)"/>
       <use xlink:href="#DejaVuSans-33" transform="translate(190.869141 0)"/>
       <use xlink:href="#DejaVuSans-2d" transform="translate(254.492188 0)"/>
       <use xlink:href="#DejaVuSans-30" transform="translate(290.576172 0)"/>
       <use xlink:href="#DejaVuSans-37" transform="translate(354.199219 0)"/>
      </g>
     </g>
    </g>
    <g id="xtick_6">
     <g id="line2d_11">
      <path d="M 515.086364 320.4 
L 515.086364 43.2 
" clip-path="url(#p14588d00d1)" style="fill: none; stroke-dasharray: 5.12,1.28,0.8,1.28; stroke-dashoffset: 0; stroke: #b0b0b0; stroke-width: 0.8"/>
     </g>
     <g id="line2d_12">
      <g>
       <use xlink:href="#m593c74a9b6" x="515.086364" y="320.4" style="fill: #a9a9a9; stroke: #a9a9a9; stroke-width: 0.8"/>
      </g>
     </g>
     <g id="text_6">
      <!-- 2024-01 -->
      <g style="fill: #a9a9a9" transform="translate(494.194957 334.998438) scale(0.1 -0.1)">
       <defs>
        <path id="DejaVuSans-34" d="M 2419 4116 
L 825 1625 
L 2419 1625 
L 2419 4116 
z
M 2253 4666 
L 3047 4666 
L 3047 1625 
L 3713 1625 
L 3713 1100 
L 3047 1100 
L 3047 0 
L 2419 0 
L 2419 1100 
L 313 1100 
L 313 1709 
L 2253 4666 
z
" transform="scale(0.015625)"/>
       </defs>
       <use xlink:href="#DejaVuSans-32"/>
       <use xlink:href="#DejaVuSans-30" transform="translate(63.623047 0)"/>
       <use xlink:href="#DejaVuSans-32" transform="translate(127.246094 0)"/>
       <use xlink:href="#DejaVuSans-34" transform="translate(190.869141 0)"/>
       <use xlink:href="#DejaVuSans-2d" transform="translate(254.492188 0)"/>
       <use xlink:href="#DejaVuSans-30" transform="translate(290.576172 0)"/>
       <use xlink:href="#DejaVuSans-31" transform="translate(354.199219 0)"/>
      </g>
     </g>
    </g>
    <g id="xtick_7">
     <g id="line2d_13">
      <path d="M 592.022727 320.4 
L 592.022727 43.2 
" clip-path="url(#p14588d00d1)" style="fill: none; stroke-dasharray: 5.12,1.28,0.8,1.28; stroke-dashoffset: 0; stroke: #b0b0b0; stroke-width: 0.8"/>
     </g>
     <g id="line2d_14">
      <g>
       <use xlink:href="#m593c74a9b6" x="592.022727" y="320.4" style="fill: #a9a9a9; stroke: #a9a9a9; stroke-width: 0.8"/>
      </g>
     </g>
     <g id="text_7">
      <!-- 2024-07 -->
      <g style="fill: #a9a9a9" transform="translate(571.131321 334.998438) scale(0.1 -0.1)">
       <use xlink:href="#DejaVuSans-32"/>
       <use xlink:href="#DejaVuSans-30" transform="translate(63.623047 0)"/>
       <use xlink:href="#DejaVuSans-32" transform="translate(127.246094 0)"/>
       <use xlink:href="#DejaVuSans-34" transform="translate(190.869141 0)"/>
       <use xlink:href="#DejaVuSans-2d" transform="translate(254.492188 0)"/>
       <use xlink:href="#DejaVuSans-30" transform="translate(290.576172 0)"/>
       <use xlink:href="#DejaVuSans-37" transform="translate(354.199219 0)"/>
      </g>
     </g>
    </g>
    <g id="xtick_8">
     <g id="line2d_15">
      <path d="M 669.804545 320.4 
L 669.804545 43.2 
" clip-path="url(#p14588d00d1)" style="fill: none; stroke-dasharray: 5.12,1.28,0.8,1.28; stroke-dashoffset: 0; stroke: #b0b0b0; stroke-width: 0.8"/>
     </g>
     <g id="line2d_16">
      <g>
       <use xlink:href="#m593c74a9b6" x="669.804545" y="320.4" style="fill: #a9a9a9; stroke: #a9a9a9; stroke-width: 0.8"/>
      </g>
     </g>
     <g id="text_8">
      <!-- 2025-01 -->
      <g style="fill: #a9a9a9" transform="translate(648.913139 334.998438) scale(0.1 -0.1)">
       <defs>
        <path id="DejaVuSans-35" d="M 691 4666 
L 3169 4666 
L 3169 4134 
L 1269 4134 
L 1269 2991 
Q 1406 3038 1543 3061 
Q 1681 3084 1819 3084 
Q 2600 3084 3056 2656 
Q 3513 2228 3513 1497 
Q 3513 744 3044 326 
Q 2575 -91 1722 -91 
Q 1428 -91 1123 -41 
Q 819 9 494 109 
L 494 744 
Q 775 591 1075 516 
Q 1375 441 1709 441 
Q 2250 441 2565 725 
Q 2881 1009 2881 1497 
Q 2881 1984 2565 2268 
Q 2250 2553 1709 2553 
Q 1456 2553 1204 2497 
Q 953 2441 691 2322 
L 691 4666 
z
" transform="scale(0.015625)"/>
       </defs>
       <use xlink:href="#DejaVuSans-32"/>
       <use xlink:href="#DejaVuSans-30" transform="translate(63.623047 0)"/>
       <use xlink:href="#DejaVuSans-32" transform="translate(127.246094 0)"/>
       <use xlink:href="#DejaVuSans-35" transform="translate(190.869141 0)"/>
       <use xlink:href="#DejaVuSans-2d" transform="translate(254.492188 0)"/>
       <use xlink:href="#DejaVuSans-30" transform="translate(290.576172 0)"/>
       <use xlink:href="#DejaVuSans-31" transform="translate(354.199219 0)"/>
      </g>
     </g>
    </g>
    <g id="xtick_9">
     <g id="line2d_17">
      <path d="M 746.318182 320.4 
L 746.318182 43.2 
" clip-path="url(#p14588d00d1)" style="fill: none; stroke-dasharray: 5.12,1.28,0.8,1.28; stroke-dashoffset: 0; stroke: #b0b0b0; stroke-width: 0.8"/>
     </g>
     <g id="line2d_18">
      <g>
       <use xlink:href="#m593c74a9b6" x="746.318182" y="320.4" style="fill: #a9a9a9; stroke: #a9a9a9; stroke-width: 0.8"/>
      </g>
     </g>
     <g id="text_9">
      <!-- 2025-07 -->
      <g style="fill: #a9a9a9" transform="translate(725.426776 334.998438) scale(0.1 -0.1)">
       <use xlink:href="#DejaVuSans-32"/>
       <use xlink:href="#DejaVuSans-30" transform="translate(63.623047 0)"/>
       <use xlink:href="#DejaVuSans-32" transform="translate(127.246094 0)"/>
       <use xlink:href="#DejaVuSans-35" transform="translate(190.869141 0)"/>
       <use xlink:href="#DejaVuSans-2d" transform="translate(254.492188 0)"/>
       <use xlink:href="#DejaVuSans-30" transform="translate(290.576172 0)"/>
       <use xlink:href="#DejaVuSans-37" transform="translate(354.199219 0)"/>
      </g>
     </g>
    </g>
   </g>
   <g id="matplotlib.axis_2">
    <g id="ytick_1">
     <g id="line2d_19">
      <path d="M 108 307.832275 
L 777.6 307.832275 
" clip-path="url(#p14588d00d1)" style="fill: none; stroke-dasharray: 5.12,1.28,0.8,1.28; stroke-dashoffset: 0; stroke: #b0b0b0; stroke-width: 0.8"/>
     </g>
     <g id="line2d_20">
      <defs>
       <path id="m157e13d29e" d="M 0 0 
L -3.5 0 
" style="stroke: #a9a9a9; stroke-width: 0.8"/>
      </defs>
      <g>
       <use xlink:href="#m157e13d29e" x="108" y="307.832275" style="fill: #a9a9a9; stroke: #a9a9a9; stroke-width: 0.8"/>
      </g>
     </g>
     <g id="text_10">
      <!-- 0 -->
      <g style="fill: #a9a9a9" transform="translate(94.6375 311.631493) scale(0.1 -0.1)">
       <use xlink:href="#DejaVuSans-30"/>
      </g>
     </g>
    </g>
    <g id="ytick_2">
     <g id="line2d_21">
      <path d="M 108 275.557684 
L 777.6 275.557684 
" clip-path="url(#p14588d00d1)" style="fill: none; stroke-dasharray: 5.12,1.28,0.8,1.28; stroke-dashoffset: 0; stroke: #b0b0b0; stroke-width: 0.8"/>
     </g>
     <g id="line2d_22">
      <g>
       <use xlink:href="#m157e13d29e" x="108" y="275.557684" style="fill: #a9a9a9; stroke: #a9a9a9; stroke-width: 0.8"/>
      </g>
     </g>
     <g id="text_11">
      <!-- 1000 -->
      <g style="fill: #a9a9a9" transform="translate(75.55 279.356903) scale(0.1 -0.1)">
       <use xlink:href="#DejaVuSans-31"/>
       <use xlink:href="#DejaVuSans-30" transform="translate(63.623047 0)"/>
       <use xlink:href="#DejaVuSans-30" transform="translate(127.246094 0)"/>
       <use xlink:href="#DejaVuSans-30" transform="translate(190.869141 0)"/>
      </g>
     </g>
    </g>
    <g id="ytick_3">
     <g id="line2d_23">
      <path d="M 108 243.283094 
L 777.6 243.283094 
" clip-path="url(#p14588d00d1)" style="fill: none; stroke-dasharray: 5.12,1.28,0.8,1.28; stroke-dashoffset: 0; stroke: #b0b0b0; stroke-width: 0.8"/>
     </g>
     <g id="line2d_24">
      <g>
       <use xlink:href="#m157e13d29e" x="108" y="243.283094" style="fill: #a9a9a9; stroke: #a9a9a9; stroke-width: 0.8"/>
      </g>
     </g>
     <g id="text_12">
      <!-- 2000 -->
      <g style="fill: #a9a9a9" transform="translate(75.55 247.082313) scale(0.1 -0.1)">
       <use xlink:href="#DejaVuSans-32"/>
       <use xlink:href="#DejaVuSans-30" transform="translate(63.623047 0)"/>
       <use xlink:href="#DejaVuSans-30" transform="translate(127.246094 0)"/>
       <use xlink:href="#DejaVuSans-30" transform="translate(190.869141 0)"/>
      </g>
     </g>
    </g>
    <g id="ytick_4">
     <g id="line2d_25">
      <path d="M 108 211.008504 
L 777.6 211.008504 
" clip-path="url(#p14588d00d1)" style="fill: none; stroke-dasharray: 5.12,1.28,0.8,1.28; stroke-dashoffset: 0; stroke: #b0b0b0; stroke-width: 0.8"/>
     </g>
     <g id="line2d_26">
      <g>
       <use xlink:href="#m157e13d29e" x="108" y="211.008504" style="fill: #a9a9a9; stroke: #a9a9a9; stroke-width: 0.8"/>
      </g>
     </g>
     <g id="text_13">
      <!-- 3000 -->
      <g style="fill: #a9a9a9" transform="translate(75.55 214.807723) scale(0.1 -0.1)">
       <use xlink:href="#DejaVuSans-33"/>
       <use xlink:href="#DejaVuSans-30" transform="translate(63.623047 0)"/>
       <use xlink:href="#DejaVuSans-30" transform="translate(127.246094 0)"/>
       <use xlink:href="#DejaVuSans-30" transform="translate(190.869141 0)"/>
      </g>
     </g>
    </g>
    <g id="ytick_5">
     <g id="line2d_27">
      <path d="M 108 178.733914 
L 777.6 178.733914 
" clip-path="url(#p14588d00d1)" style="fill: none; stroke-dasharray: 5.12,1.28,0.8,1.28; stroke-dashoffset: 0; stroke: #b0b0b0; stroke-width: 0.8"/>
     </g>
     <g id="line2d_28">
      <g>
       <use xlink:href="#m157e13d29e" x="108" y="178.733914" style="fill: #a9a9a9; stroke: #a9a9a9; stroke-width: 0.8"/>
      </g>
     </g>
     <g id="text_14">
      <!-- 4000 -->
      <g style="fill: #a9a9a9" transform="translate(75.55 182.533133) scale(0.1 -0.1)">
       <use xlink:href="#DejaVuSans-34"/>
       <use xlink:href="#DejaVuSans-30" transform="translate(63.623047 0)"/>
       <use xlink:href="#DejaVuSans-30" transform="translate(127.246094 0)"/>
       <use xlink:href="#DejaVuSans-30" transform="translate(190.869141 0)"/>
      </g>
     </g>
    </g>
    <g id="ytick_6">
     <g id="line2d_29">
      <path d="M 108 146.459324 
L 777.6 146.459324 
" clip-path="url(#p14588d00d1)" style="fill: none; stroke-dasharray: 5.12,1.28,0.8,1.28; stroke-dashoffset: 0; stroke: #b0b0b0; stroke-width: 0.8"/>
     </g>
     <g id="line2d_30">
      <g>
       <use xlink:href="#m157e13d29e" x="108" y="146.459324" style="fill: #a9a9a9; stroke: #a9a9a9; stroke-width: 0.8"/>
      </g>
     </g>
     <g id="text_15">
      <!-- 5000 -->
      <g style="fill: #a9a9a9" transform="translate(75.55 150.258543) scale(0.1 -0.1)">
       <use xlink:href="#DejaVuSans-35"/>
       <use xlink:href="#DejaVuSans-30" transform="translate(63.623047 0)"/>
       <use xlink:href="#DejaVuSans-30" transform="translate(127.246094 0)"/>
       <use xlink:href="#DejaVuSans-30" transform="translate(190.869141 0)"/>
      </g>
     </g>
    </g>
    <g id="ytick_7">
     <g id="line2d_31">
      <path d="M 108 114.184734 
L 777.6 114.184734 
" clip-path="url(#p14588d00d1)" style="fill: none; stroke-dasharray: 5.12,1.28,0.8,1.28; stroke-dashoffset: 0; stroke: #b0b0b0; stroke-width: 0.8"/>
     </g>
     <g id="line2d_32">
      <g>
       <use xlink:href="#m157e13d29e" x="108" y="114.184734" style="fill: #a9a9a9; stroke: #a9a9a9; stroke-width: 0.8"/>
      </g>
     </g>
     <g id="text_16">
      <!-- 6000 -->
      <g style="fill: #a9a9a9" transform="translate(75.55 117.983952) scale(0.1 -0.1)">
       <defs>
        <path id="DejaVuSans-36" d="M 2113 2584 
Q 1688 2584 1439 2293 
Q 1191 2003 1191 1497 
Q 1191 994 1439 701 
Q 1688 409 2113 409 
Q 2538 409 2786 701 
Q 3034 994 3034 1497 
Q 3034 2003 2786 2293 
Q 2538 2584 2113 2584 
z
M 3366 4563 
L 3366 3988 
Q 3128 4100 2886 4159 
Q 2644 4219 2406 4219 
Q 1781 4219 1451 3797 
Q 1122 3375 1075 2522 
Q 1259 2794 1537 2939 
Q 1816 3084 2150 3084 
Q 2853 3084 3261 2657 
Q 3669 2231 3669 1497 
Q 3669 778 3244 343 
Q 2819 -91 2113 -91 
Q 1303 -91 875 529 
Q 447 1150 447 2328 
Q 447 3434 972 4092 
Q 1497 4750 2381 4750 
Q 2619 4750 2861 4703 
Q 3103 4656 3366 4563 
z
" transform="scale(0.015625)"/>
       </defs>
       <use xlink:href="#DejaVuSans-36"/>
       <use xlink:href="#DejaVuSans-30" transform="translate(63.623047 0)"/>
       <use xlink:href="#DejaVuSans-30" transform="translate(127.246094 0)"/>
       <use xlink:href="#DejaVuSans-30" transform="translate(190.869141 0)"/>
      </g>
     </g>
    </g>
    <g id="ytick_8">
     <g id="line2d_33">
      <path d="M 108 81.910143 
L 777.6 81.910143 
" clip-path="url(#p14588d00d1)" style="fill: none; stroke-dasharray: 5.12,1.28,0.8,1.28; stroke-dashoffset: 0; stroke: #b0b0b0; stroke-width: 0.8"/>
     </g>
     <g id="line2d_34">
      <g>
       <use xlink:href="#m157e13d29e" x="108" y="81.910143" style="fill: #a9a9a9; stroke: #a9a9a9; stroke-width: 0.8"/>
      </g>
     </g>
     <g id="text_17">
      <!-- 7000 -->
      <g style="fill: #a9a9a9" transform="translate(75.55 85.709362) scale(0.1 -0.1)">
       <use xlink:href="#DejaVuSans-37"/>
       <use xlink:href="#DejaVuSans-30" transform="translate(63.623047 0)"/>
       <use xlink:href="#DejaVuSans-30" transform="translate(127.246094 0)"/>
       <use xlink:href="#DejaVuSans-30" transform="translate(190.869141 0)"/>
      </g>
     </g>
    </g>
    <g id="ytick_9">
     <g id="line2d_35">
      <path d="M 108 49.635553 
L 777.6 49.635553 
" clip-path="url(#p14588d00d1)" style="fill: none; stroke-dasharray: 5.12,1.28,0.8,1.28; stroke-dashoffset: 0; stroke: #b0b0b0; stroke-width: 0.8"/>
     </g>
     <g id="line2d_36">
      <g>
       <use xlink:href="#m157e13d29e" x="108" y="49.635553" style="fill: #a9a9a9; stroke: #a9a9a9; stroke-width: 0.8"/>
      </g>
     </g>
     <g id="text_18">
      <!-- 8000 -->
      <g style="fill: #a9a9a9" transform="translate(75.55 53.434772) scale(0.1 -0.1)">
       <defs>
        <path id="DejaVuSans-38" d="M 2034 2216 
Q 1584 2216 1326 1975 
Q 1069 1734 1069 1313 
Q 1069 891 1326 650 
Q 1584 409 2034 409 
Q 2484 409 2743 651 
Q 3003 894 3003 1313 
Q 3003 1734 2745 1975 
Q 2488 2216 2034 2216 
z
M 1403 2484 
Q 997 2584 770 2862 
Q 544 3141 544 3541 
Q 544 4100 942 4425 
Q 1341 4750 2034 4750 
Q 2731 4750 3128 4425 
Q 3525 4100 3525 3541 
Q 3525 3141 3298 2862 
Q 3072 2584 2669 2484 
Q 3125 2378 3379 2068 
Q 3634 1759 3634 1313 
Q 3634 634 3220 271 
Q 2806 -91 2034 -91 
Q 1263 -91 848 271 
Q 434 634 434 1313 
Q 434 1759 690 2068 
Q 947 2378 1403 2484 
z
M 1172 3481 
Q 1172 3119 1398 2916 
Q 1625 2713 2034 2713 
Q 2441 2713 2670 2916 
Q 2900 3119 2900 3481 
Q 2900 3844 2670 4047 
Q 2441 4250 2034 4250 
Q 1625 4250 1398 4047 
Q 1172 3844 1172 3481 
z
" transform="scale(0.015625)"/>
       </defs>
       <use xlink:href="#DejaVuSans-38"/>
       <use xlink:href="#DejaVuSans-30" transform="translate(63.623047 0)"/>
       <use xlink:href="#DejaVuSans-30" transform="translate(127.246094 0)"/>
       <use xlink:href="#DejaVuSans-30" transform="translate(190.869141 0)"/>
      </g>
     </g>
    </g>
   </g>
   <g id="line2d_37">
    <path d="M 138.436364 307.735451 
L 140.972727 307.509529 
L 141.395455 307.315881 
L 143.086364 307.089959 
L 144.777273 306.734939 
L 145.622727 306.60584 
L 147.736364 306.412193 
L 148.581818 306.057172 
L 149.004545 305.47623 
L 149.427273 305.185758 
L 149.85 304.21752 
L 150.272727 304.152971 
L 150.695455 303.797951 
L 151.540909 303.346107 
L 153.231818 301.926025 
L 154.922727 301.054611 
L 156.190909 300.441393 
L 156.613636 299.731352 
L 157.459091 299.085861 
L 157.881818 298.892213 
L 162.109091 298.246721 
L 162.531818 298.053074 
L 165.490909 297.794877 
L 167.181818 297.375307 
L 170.563636 296.891189 
L 170.986364 296.665266 
L 171.409091 296.600717 
L 172.254545 296.310246 
L 175.213636 295.793852 
L 176.059091 295.535656 
L 179.863636 294.890164 
L 180.709091 294.696516 
L 181.554545 294.664242 
L 183.245455 294.244672 
L 183.668182 293.631455 
L 184.936364 293.115061 
L 186.204545 292.760041 
L 186.627273 292.534119 
L 187.472727 292.372746 
L 189.163636 291.856352 
L 190.009091 291.791803 
L 190.854545 291.565881 
L 192.545455 291.114037 
L 192.968182 291.081762 
L 193.813636 290.662193 
L 194.236364 290.597643 
L 194.659091 290.371721 
L 199.309091 289.564857 
L 201 289.048463 
L 201.422727 288.757992 
L 203.536364 288.047951 
L 204.381818 287.434734 
L 205.65 287.176537 
L 211.145455 285.562807 
L 211.568182 285.498258 
L 213.259091 284.820492 
L 213.681818 284.755943 
L 214.527273 284.400922 
L 215.372727 284.368648 
L 216.640909 283.981352 
L 217.063636 283.981352 
L 217.486364 283.787705 
L 218.331818 283.690881 
L 218.754545 283.529508 
L 220.445455 283.464959 
L 221.290909 283.303586 
L 222.136364 282.851742 
L 223.404545 282.367623 
L 224.25 281.915779 
L 225.095455 281.463934 
L 225.940909 281.173463 
L 226.363636 281.044365 
L 227.209091 280.495697 
L 227.631818 280.011578 
L 228.477273 278.656045 
L 228.9 278.526947 
L 229.322727 278.526947 
L 231.013636 277.558709 
L 231.436364 277.461885 
L 231.859091 277.042316 
L 232.704545 276.687295 
L 233.55 276.3 
L 233.972727 275.783607 
L 234.395455 275.073566 
L 234.818182 274.783094 
L 235.240909 274.008504 
L 235.663636 273.524385 
L 238.2 272.104303 
L 239.045455 271.394262 
L 239.468182 271.136066 
L 239.890909 270.522848 
L 240.313636 269.522336 
L 240.736364 268.876844 
L 241.159091 268.521824 
L 241.581818 268.328176 
L 244.963636 265.132992 
L 245.809091 264.326127 
L 248.345455 262.680123 
L 248.768182 262.51875 
L 250.459091 261.485963 
L 250.881818 261.292316 
L 252.995455 259.291291 
L 253.840909 258.93627 
L 254.686364 258.323053 
L 255.109091 258.064857 
L 255.531818 258.000307 
L 256.8 257.257992 
L 257.222727 256.773873 
L 259.336364 255.579713 
L 259.759091 255.41834 
L 261.027273 254.514652 
L 267.368182 252.190881 
L 268.213636 251.384016 
L 269.481818 250.738525 
L 270.327273 250.189857 
L 271.172727 249.93166 
L 271.595455 249.641189 
L 272.018182 249.51209 
L 273.286364 248.640676 
L 275.4 248.156557 
L 276.668182 247.381967 
L 277.936364 247.091496 
L 278.359091 246.994672 
L 279.627273 246.026434 
L 281.318182 245.542316 
L 281.740909 245.187295 
L 284.277273 244.283607 
L 285.122727 244.122234 
L 285.968182 243.767213 
L 288.927273 242.637602 
L 289.772727 242.508504 
L 291.040909 242.05666 
L 293.154545 240.991598 
L 295.690909 239.539242 
L 296.536364 239.31332 
L 297.804545 238.667828 
L 298.65 238.506455 
L 299.495455 237.990061 
L 300.340909 237.764139 
L 301.609091 237.247746 
L 303.3 237.021824 
L 304.145455 236.56998 
L 304.568182 236.182684 
L 304.990909 235.408094 
L 306.681818 234.923975 
L 307.95 234.246209 
L 308.795455 233.955738 
L 310.063636 233.310246 
L 312.177273 232.438832 
L 313.022727 232.245184 
L 314.290909 231.599693 
L 314.713636 231.535143 
L 316.827273 230.470082 
L 317.672727 229.921414 
L 318.940909 229.663217 
L 321.054545 229.114549 
L 321.477273 228.759529 
L 322.322727 228.469057 
L 324.436364 227.597643 
L 324.859091 227.274898 
L 325.281818 227.113525 
L 326.127273 226.629406 
L 327.818182 226.080738 
L 328.663636 225.53207 
L 329.086364 225.080225 
L 329.509091 224.822029 
L 329.931818 224.725205 
L 330.777273 224.015164 
L 331.2 223.950615 
L 331.622727 223.240574 
L 332.045455 223.046926 
L 332.468182 222.691906 
L 332.890909 222.627357 
L 333.736364 222.078689 
L 334.581818 221.788217 
L 335.004545 221.465471 
L 335.427273 221.304098 
L 337.118182 220.142213 
L 338.386364 219.496721 
L 339.231818 219.270799 
L 340.077273 218.78668 
L 340.5 218.044365 
L 341.345455 217.398873 
L 341.768182 217.302049 
L 344.304545 216.04334 
L 345.15 215.68832 
L 345.995455 215.075102 
L 347.263636 213.880943 
L 348.109091 213.364549 
L 348.531818 212.88043 
L 350.222727 211.68627 
L 351.068182 210.814857 
L 351.913636 210.524385 
L 352.759091 209.943443 
L 354.027273 209.265676 
L 354.45 209.201127 
L 355.718182 208.491086 
L 356.563636 207.942418 
L 360.790909 206.328689 
L 361.213636 205.973668 
L 362.904545 205.295902 
L 363.327273 205.166803 
L 364.172727 204.618135 
L 365.018182 204.263115 
L 365.863636 203.649898 
L 366.709091 201.90707 
L 367.554545 200.874283 
L 368.822727 200.196516 
L 369.668182 199.841496 
L 370.090909 199.776947 
L 370.936364 199.389652 
L 372.627273 198.808709 
L 373.472727 198.32459 
L 374.318182 197.90502 
L 374.740909 197.775922 
L 377.277273 196.226742 
L 377.7 195.742623 
L 378.968182 195.000307 
L 379.390909 194.838934 
L 380.236364 194.322541 
L 381.927273 193.386578 
L 382.35 193.289754 
L 382.772727 192.934734 
L 385.731818 191.934221 
L 386.154545 191.611475 
L 387 191.353279 
L 387.845455 190.998258 
L 388.268182 190.643238 
L 389.959091 190.03002 
L 390.804545 189.416803 
L 391.65 189.061783 
L 392.495455 188.384016 
L 393.340909 188.12582 
L 393.763636 187.738525 
L 394.186364 187.673975 
L 395.031818 186.996209 
L 397.145455 185.7375 
L 397.990909 185.479303 
L 398.413636 185.221107 
L 398.836364 185.156557 
L 400.104545 184.446516 
L 401.795455 183.865574 
L 402.640909 183.736475 
L 403.063636 183.542828 
L 403.486364 183.478279 
L 404.331818 183.090984 
L 404.754545 183.058709 
L 406.445455 182.413217 
L 407.713636 181.477254 
L 408.136364 181.315881 
L 408.981818 180.831762 
L 409.404545 180.702664 
L 411.940909 179.250307 
L 412.363636 179.153484 
L 413.631818 178.378893 
L 414.9 177.927049 
L 415.745455 177.636578 
L 417.436364 177.055635 
L 418.281818 176.765164 
L 419.972727 176.410143 
L 420.395455 176.216496 
L 421.240909 175.990574 
L 421.663636 175.796926 
L 422.086364 175.732377 
L 422.509091 175.506455 
L 423.354545 175.345082 
L 424.622727 174.860963 
L 425.890909 174.667316 
L 428.427273 174.183197 
L 429.695455 173.892725 
L 430.118182 173.699078 
L 430.963636 173.537705 
L 431.809091 173.311783 
L 432.654545 172.924488 
L 433.077273 172.763115 
L 433.5 172.763115 
L 438.15 171.310758 
L 438.572727 171.084836 
L 438.995455 171.084836 
L 439.840909 170.76209 
L 440.263636 170.310246 
L 442.8 169.245184 
L 444.490909 168.664242 
L 444.913636 168.406045 
L 446.181818 168.01875 
L 447.027273 167.792828 
L 447.45 167.502357 
L 447.872727 167.405533 
L 448.295455 167.018238 
L 449.563636 166.760041 
L 450.409091 166.372746 
L 450.831818 165.856352 
L 455.481818 164.823566 
L 455.904545 164.823566 
L 456.327273 164.629918 
L 458.018182 164.307172 
L 458.440909 164.113525 
L 460.131818 163.790779 
L 460.977273 163.435758 
L 461.822727 163.274385 
L 463.936364 162.725717 
L 465.627273 162.177049 
L 466.05 162.080225 
L 466.472727 161.854303 
L 467.318182 161.628381 
L 468.163636 161.273361 
L 469.009091 160.950615 
L 469.431818 160.660143 
L 470.277273 160.401947 
L 473.236364 159.272336 
L 474.927273 159.078689 
L 478.309091 157.81998 
L 478.731818 157.497234 
L 479.154545 157.40041 
L 479.577273 157.174488 
L 480 157.142213 
L 484.65 155.43166 
L 486.763636 154.850717 
L 487.609091 154.431148 
L 488.877273 154.140676 
L 490.568182 152.720594 
L 492.259091 151.978279 
L 493.104545 151.590984 
L 495.640909 150.590471 
L 496.063636 150.3 
L 498.177273 149.589959 
L 499.445455 148.847643 
L 499.868182 148.75082 
L 501.981818 147.588934 
L 503.25 147.007992 
L 503.672727 146.685246 
L 504.518182 146.394775 
L 506.631818 145.297439 
L 507.9 144.845594 
L 509.590909 144.135553 
L 510.859091 143.651434 
L 511.281818 143.490061 
L 512.127273 143.360963 
L 512.55 143.070492 
L 514.240909 142.747746 
L 515.086364 142.392725 
L 516.777273 141.585861 
L 522.695455 138.939344 
L 523.963636 138.519775 
L 524.386364 138.229303 
L 525.231818 138.13248 
L 525.654545 137.842008 
L 526.5 137.71291 
L 527.345455 137.29334 
L 527.768182 137.099693 
L 528.613636 136.87377 
L 529.459091 136.615574 
L 530.727273 136.131455 
L 531.995455 135.711885 
L 533.263636 135.421414 
L 534.954545 134.711373 
L 535.8 134.259529 
L 537.490909 133.388115 
L 538.336364 133.194467 
L 538.759091 132.93627 
L 539.181818 132.839447 
L 540.45 132.097131 
L 541.295455 131.742111 
L 550.595455 128.127357 
L 552.286364 127.320492 
L 556.513636 125.642213 
L 557.359091 125.222643 
L 557.781818 125.12582 
L 558.204545 124.899898 
L 559.895455 124.415779 
L 561.586364 122.995697 
L 562.009091 122.866598 
L 562.431818 122.608402 
L 563.7 122.253381 
L 564.122727 121.930635 
L 564.545455 121.833811 
L 565.813636 121.059221 
L 566.236364 120.76875 
L 567.504545 120.284631 
L 567.927273 120.058709 
L 569.195455 119.768238 
L 571.309091 119.025922 
L 572.154545 118.767725 
L 573.422727 118.089959 
L 574.268182 117.670389 
L 575.113636 117.444467 
L 576.381818 116.83125 
L 580.609091 115.120697 
L 582.722727 114.08791 
L 583.568182 113.765164 
L 583.990909 113.377869 
L 584.836364 113.022848 
L 586.104545 112.571004 
L 586.527273 112.215984 
L 586.95 112.183709 
L 587.795455 111.925512 
L 588.640909 111.635041 
L 589.063636 111.441393 
L 589.486364 111.376844 
L 590.331818 111.021824 
L 591.6 110.731352 
L 592.445455 110.247234 
L 592.868182 110.085861 
L 593.290909 109.763115 
L 594.559091 109.440369 
L 594.981818 109.182172 
L 595.827273 108.95625 
L 597.095455 108.246209 
L 597.518182 108.213934 
L 598.786364 107.794365 
L 599.631818 107.729816 
L 600.054545 107.503893 
L 600.9 107.277971 
L 601.322727 107.052049 
L 603.436364 106.63248 
L 604.281818 106.471107 
L 605.55 105.986988 
L 606.818182 105.696516 
L 608.086364 105.01875 
L 608.509091 104.631455 
L 609.777273 103.856865 
L 610.2 103.534119 
L 611.468182 103.114549 
L 612.313636 102.888627 
L 616.118182 101.210348 
L 617.809091 100.758504 
L 618.654545 100.371209 
L 619.077273 100.145287 
L 619.922727 99.88709 
L 620.345455 99.661168 
L 621.190909 99.499795 
L 624.572727 98.015164 
L 624.995455 97.950615 
L 626.263636 97.111475 
L 626.686364 97.046926 
L 628.377273 96.36916 
L 630.068182 95.94959 
L 630.490909 95.885041 
L 630.913636 95.691393 
L 631.336364 95.659119 
L 632.181818 95.368648 
L 632.604545 95.336373 
L 633.872727 94.852254 
L 635.563636 94.368135 
L 636.409091 93.722643 
L 638.1 92.754406 
L 638.522727 92.657582 
L 638.945455 92.43166 
L 639.790909 92.141189 
L 640.213636 92.01209 
L 640.636364 91.65707 
L 641.904545 91.172951 
L 642.75 90.688832 
L 643.172727 90.46291 
L 643.595455 90.075615 
L 645.709091 89.494672 
L 646.977273 88.91373 
L 647.822727 88.687807 
L 648.245455 88.461885 
L 648.668182 88.106865 
L 650.359091 87.65502 
L 650.781818 87.332275 
L 656.277273 85.298975 
L 657.122727 85.137602 
L 659.236364 84.459836 
L 660.081818 84.104816 
L 660.927273 83.78207 
L 661.772727 83.556148 
L 662.195455 83.3625 
L 662.618182 83.3625 
L 663.463636 83.00748 
L 664.309091 82.523361 
L 667.268182 81.522848 
L 668.959091 80.941906 
L 670.227273 80.651434 
L 671.495455 80.231865 
L 671.918182 80.135041 
L 672.340909 79.84457 
L 673.186364 79.650922 
L 674.877273 79.166803 
L 675.3 79.134529 
L 676.145455 78.747234 
L 679.104545 78.004918 
L 679.95 77.649898 
L 684.177273 76.68166 
L 685.445455 76.003893 
L 686.713636 75.616598 
L 692.631818 73.454201 
L 693.477273 73.196004 
L 694.322727 72.776434 
L 694.745455 72.421414 
L 695.590909 72.163217 
L 696.013636 71.90502 
L 696.859091 71.808197 
L 699.818182 70.969057 
L 701.086364 70.710861 
L 702.354545 70.388115 
L 703.2 70.162193 
L 704.468182 69.516701 
L 706.159091 68.871209 
L 707.004545 68.419365 
L 707.427273 68.38709 
L 708.272727 67.96752 
L 711.231818 67.128381 
L 712.5 66.934734 
L 713.345455 66.644262 
L 714.613636 66.256967 
L 718.418182 65.191906 
L 719.263636 64.965984 
L 719.686364 64.86916 
L 720.109091 64.610963 
L 720.954545 64.44959 
L 721.8 64.352766 
L 722.222727 64.126844 
L 722.645455 64.09457 
L 723.913636 63.449078 
L 725.181818 63.158607 
L 726.027273 62.771311 
L 726.872727 62.48084 
L 727.718182 62.254918 
L 728.563636 61.899898 
L 729.409091 61.609426 
L 731.1 61.125307 
L 731.945455 61.060758 
L 732.790909 60.770287 
L 733.213636 60.608914 
L 734.059091 60.479816 
L 735.75 59.7375 
L 736.172727 59.672951 
L 736.595455 59.447029 
L 737.440909 59.285656 
L 738.286364 59.221107 
L 740.822727 58.54334 
L 741.668182 58.18832 
L 742.090909 58.12377 
L 742.513636 57.865574 
L 743.359091 57.123258 
L 746.740909 55.8 
L 747.163636 55.8 
L 747.163636 55.8 
" clip-path="url(#p14588d00d1)" style="fill: none; stroke: #1f77b4; stroke-width: 1.5; stroke-linecap: square"/>
   </g>
   <g id="line2d_38">
    <path d="M 138.859091 307.8 
L 142.663636 307.703176 
L 146.045455 307.541803 
L 147.736364 307.541803 
L 148.159091 307.412705 
L 150.272727 307.315881 
L 152.809091 307.02541 
L 155.345455 306.928586 
L 156.190909 306.831762 
L 159.15 306.702664 
L 162.109091 306.60584 
L 164.222727 306.541291 
L 169.718182 306.444467 
L 171.831818 306.379918 
L 175.636364 306.283094 
L 177.327273 306.25082 
L 181.554545 306.153996 
L 183.245455 305.992623 
L 184.936364 305.960348 
L 187.472727 305.863525 
L 189.163636 305.83125 
L 191.277273 305.766701 
L 192.968182 305.605328 
L 196.772727 305.508504 
L 197.618182 305.443955 
L 199.309091 305.347131 
L 201.845455 305.250307 
L 203.536364 305.153484 
L 211.145455 304.669365 
L 214.104545 304.572541 
L 215.372727 304.443443 
L 217.486364 304.346619 
L 221.713636 304.120697 
L 225.940909 304.056148 
L 227.631818 303.8625 
L 229.745455 303.765676 
L 233.972727 303.346107 
L 236.509091 303.023361 
L 238.2 302.958811 
L 241.581818 302.506967 
L 244.118182 302.442418 
L 245.386364 302.31332 
L 246.654545 302.216496 
L 258.490909 301.280533 
L 259.336364 301.11916 
L 261.872727 301.022336 
L 268.636364 300.602766 
L 271.595455 300.505943 
L 273.286364 300.312295 
L 275.4 300.215471 
L 277.936364 300.118648 
L 280.05 300.021824 
L 281.740909 299.989549 
L 283.854545 299.925 
L 284.7 299.795902 
L 290.618182 299.699078 
L 291.463636 299.602254 
L 296.536364 299.50543 
L 300.340909 299.311783 
L 303.3 299.214959 
L 304.990909 299.021311 
L 307.95 298.924488 
L 308.795455 298.795389 
L 310.909091 298.73084 
L 315.136364 298.666291 
L 316.827273 298.504918 
L 318.518182 298.472643 
L 319.786364 298.37582 
L 321.477273 298.214447 
L 325.704545 297.988525 
L 329.931818 297.891701 
L 333.736364 297.698053 
L 335.004545 297.665779 
L 335.85 297.53668 
L 337.963636 297.439857 
L 338.809091 297.375307 
L 339.654545 297.310758 
L 340.5 297.246209 
L 344.727273 297.149385 
L 356.563636 296.34252 
L 359.1 296.245697 
L 361.213636 296.181148 
L 367.131818 296.084324 
L 367.977273 295.955225 
L 373.895455 295.858402 
L 378.122727 295.63248 
L 378.968182 295.600205 
L 379.813636 295.503381 
L 381.927273 295.406557 
L 384.040909 295.342008 
L 386.154545 295.245184 
L 388.268182 295.180635 
L 392.072727 295.083811 
L 394.609091 294.986988 
L 400.527273 294.890164 
L 405.177273 294.631967 
L 406.868182 294.567418 
L 408.136364 294.470594 
L 414.054545 294.37377 
L 416.590909 294.276947 
L 424.2 294.180123 
L 425.890909 294.147848 
L 430.963636 294.083299 
L 431.809091 294.01875 
L 437.727273 293.921926 
L 439.418182 293.889652 
L 450.409091 293.792828 
L 452.945455 293.696004 
L 470.7 293.59918 
L 472.813636 293.534631 
L 483.804545 293.470082 
L 484.65 293.405533 
L 486.763636 293.340984 
L 488.031818 293.211885 
L 490.568182 293.115061 
L 493.527273 292.985963 
L 497.331818 292.889139 
L 499.445455 292.82459 
L 502.404545 292.727766 
L 505.786364 292.566393 
L 507.9 292.46957 
L 509.590909 292.437295 
L 513.395455 292.340471 
L 515.086364 292.308197 
L 520.581818 292.211373 
L 522.272727 292.179098 
L 524.386364 292.082275 
L 526.922727 291.985451 
L 529.881818 291.920902 
L 530.727273 291.856352 
L 540.872727 291.759529 
L 545.1 291.533607 
L 548.059091 291.436783 
L 552.709091 291.178586 
L 555.668182 291.081762 
L 557.359091 291.049488 
L 560.318182 290.952664 
L 562.431818 290.726742 
L 566.659091 290.629918 
L 567.504545 290.533094 
L 571.731818 290.43627 
L 573.845455 290.371721 
L 578.495455 290.339447 
L 579.340909 290.242623 
L 583.990909 290.145799 
L 584.836364 290.08125 
L 594.136364 289.984426 
L 596.672727 289.887602 
L 603.013636 289.790779 
L 604.704545 289.758504 
L 608.509091 289.693955 
L 609.354545 289.597131 
L 614.85 289.500307 
L 616.963636 289.435758 
L 624.572727 289.338934 
L 625.840909 289.242111 
L 627.109091 289.145287 
L 628.377273 289.048463 
L 634.718182 288.951639 
L 637.254545 288.854816 
L 648.668182 288.757992 
L 652.472727 288.564344 
L 657.545455 288.46752 
L 658.390909 288.402971 
L 664.731818 288.338422 
L 665.577273 288.273873 
L 670.227273 288.177049 
L 671.918182 288.144775 
L 679.104545 288.047951 
L 679.95 287.983402 
L 687.559091 287.886578 
L 689.25 287.854303 
L 693.054545 287.75748 
L 696.436364 287.596107 
L 701.086364 287.499283 
L 704.045455 287.370184 
L 707.85 287.273361 
L 708.695455 287.208811 
L 717.15 287.111988 
L 719.263636 287.047439 
L 721.8 286.950615 
L 724.336364 286.853791 
L 737.018182 286.756967 
L 739.977273 286.627869 
L 745.05 286.531045 
L 746.740909 286.49877 
L 747.163636 286.49877 
L 747.163636 286.49877 
" clip-path="url(#p14588d00d1)" style="fill: none; stroke: #ff7f0e; stroke-width: 1.5; stroke-linecap: square"/>
   </g>
   <g id="patch_3">
    <path d="M 108 320.4 
L 108 43.2 
" style="fill: none; stroke: #a9a9a9; stroke-width: 0.8; stroke-linejoin: miter; stroke-linecap: square"/>
   </g>
   <g id="patch_4">
    <path d="M 777.6 320.4 
L 777.6 43.2 
" style="fill: none"/>
   </g>
   <g id="patch_5">
    <path d="M 108 320.4 
L 777.6 320.4 
" style="fill: none; stroke: #a9a9a9; stroke-width: 0.8; stroke-linejoin: miter; stroke-linecap: square"/>
   </g>
   <g id="patch_6">
    <path d="M 108 43.2 
L 777.6 43.2 
" style="fill: none"/>
   </g>
   <g id="text_19">
    <!-- get_subscribe history -->
    <g style="fill: #a9a9a9" transform="translate(378.6075 37.2) scale(0.12 -0.12)">
     <defs>
      <path id="DejaVuSans-67" d="M 2906 1791 
Q 2906 2416 2648 2759 
Q 2391 3103 1925 3103 
Q 1463 3103 1205 2759 
Q 947 2416 947 1791 
Q 947 1169 1205 825 
Q 1463 481 1925 481 
Q 2391 481 2648 825 
Q 2906 1169 2906 1791 
z
M 3481 434 
Q 3481 -459 3084 -895 
Q 2688 -1331 1869 -1331 
Q 1566 -1331 1297 -1286 
Q 1028 -1241 775 -1147 
L 775 -588 
Q 1028 -725 1275 -790 
Q 1522 -856 1778 -856 
Q 2344 -856 2625 -561 
Q 2906 -266 2906 331 
L 2906 616 
Q 2728 306 2450 153 
Q 2172 0 1784 0 
Q 1141 0 747 490 
Q 353 981 353 1791 
Q 353 2603 747 3093 
Q 1141 3584 1784 3584 
Q 2172 3584 2450 3431 
Q 2728 3278 2906 2969 
L 2906 3500 
L 3481 3500 
L 3481 434 
z
" transform="scale(0.015625)"/>
      <path id="DejaVuSans-65" d="M 3597 1894 
L 3597 1613 
L 953 1613 
Q 991 1019 1311 708 
Q 1631 397 2203 397 
Q 2534 397 2845 478 
Q 3156 559 3463 722 
L 3463 178 
Q 3153 47 2828 -22 
Q 2503 -91 2169 -91 
Q 1331 -91 842 396 
Q 353 884 353 1716 
Q 353 2575 817 3079 
Q 1281 3584 2069 3584 
Q 2775 3584 3186 3129 
Q 3597 2675 3597 1894 
z
M 3022 2063 
Q 3016 2534 2758 2815 
Q 2500 3097 2075 3097 
Q 1594 3097 1305 2825 
Q 1016 2553 972 2059 
L 3022 2063 
z
" transform="scale(0.015625)"/>
      <path id="DejaVuSans-74" d="M 1172 4494 
L 1172 3500 
L 2356 3500 
L 2356 3053 
L 1172 3053 
L 1172 1153 
Q 1172 725 1289 603 
Q 1406 481 1766 481 
L 2356 481 
L 2356 0 
L 1766 0 
Q 1100 0 847 248 
Q 594 497 594 1153 
L 594 3053 
L 172 3053 
L 172 3500 
L 594 3500 
L 594 4494 
L 1172 4494 
z
" transform="scale(0.015625)"/>
      <path id="DejaVuSans-5f" d="M 3263 -1063 
L 3263 -1509 
L -63 -1509 
L -63 -1063 
L 3263 -1063 
z
" transform="scale(0.015625)"/>
      <path id="DejaVuSans-73" d="M 2834 3397 
L 2834 2853 
Q 2591 2978 2328 3040 
Q 2066 3103 1784 3103 
Q 1356 3103 1142 2972 
Q 928 2841 928 2578 
Q 928 2378 1081 2264 
Q 1234 2150 1697 2047 
L 1894 2003 
Q 2506 1872 2764 1633 
Q 3022 1394 3022 966 
Q 3022 478 2636 193 
Q 2250 -91 1575 -91 
Q 1294 -91 989 -36 
Q 684 19 347 128 
L 347 722 
Q 666 556 975 473 
Q 1284 391 1588 391 
Q 1994 391 2212 530 
Q 2431 669 2431 922 
Q 2431 1156 2273 1281 
Q 2116 1406 1581 1522 
L 1381 1569 
Q 847 1681 609 1914 
Q 372 2147 372 2553 
Q 372 3047 722 3315 
Q 1072 3584 1716 3584 
Q 2034 3584 2315 3537 
Q 2597 3491 2834 3397 
z
" transform="scale(0.015625)"/>
      <path id="DejaVuSans-75" d="M 544 1381 
L 544 3500 
L 1119 3500 
L 1119 1403 
Q 1119 906 1312 657 
Q 1506 409 1894 409 
Q 2359 409 2629 706 
Q 2900 1003 2900 1516 
L 2900 3500 
L 3475 3500 
L 3475 0 
L 2900 0 
L 2900 538 
Q 2691 219 2414 64 
Q 2138 -91 1772 -91 
Q 1169 -91 856 284 
Q 544 659 544 1381 
z
M 1991 3584 
L 1991 3584 
z
" transform="scale(0.015625)"/>
      <path id="DejaVuSans-62" d="M 3116 1747 
Q 3116 2381 2855 2742 
Q 2594 3103 2138 3103 
Q 1681 3103 1420 2742 
Q 1159 2381 1159 1747 
Q 1159 1113 1420 752 
Q 1681 391 2138 391 
Q 2594 391 2855 752 
Q 3116 1113 3116 1747 
z
M 1159 2969 
Q 1341 3281 1617 3432 
Q 1894 3584 2278 3584 
Q 2916 3584 3314 3078 
Q 3713 2572 3713 1747 
Q 3713 922 3314 415 
Q 2916 -91 2278 -91 
Q 1894 -91 1617 61 
Q 1341 213 1159 525 
L 1159 0 
L 581 0 
L 581 4863 
L 1159 4863 
L 1159 2969 
z
" transform="scale(0.015625)"/>
      <path id="DejaVuSans-63" d="M 3122 3366 
L 3122 2828 
Q 2878 2963 2633 3030 
Q 2388 3097 2138 3097 
Q 1578 3097 1268 2742 
Q 959 2388 959 1747 
Q 959 1106 1268 751 
Q 1578 397 2138 397 
Q 2388 397 2633 464 
Q 2878 531 3122 666 
L 3122 134 
Q 2881 22 2623 -34 
Q 2366 -91 2075 -91 
Q 1284 -91 818 406 
Q 353 903 353 1747 
Q 353 2603 823 3093 
Q 1294 3584 2113 3584 
Q 2378 3584 2631 3529 
Q 2884 3475 3122 3366 
z
" transform="scale(0.015625)"/>
      <path id="DejaVuSans-72" d="M 2631 2963 
Q 2534 3019 2420 3045 
Q 2306 3072 2169 3072 
Q 1681 3072 1420 2755 
Q 1159 2438 1159 1844 
L 1159 0 
L 581 0 
L 581 3500 
L 1159 3500 
L 1159 2956 
Q 1341 3275 1631 3429 
Q 1922 3584 2338 3584 
Q 2397 3584 2469 3576 
Q 2541 3569 2628 3553 
L 2631 2963 
z
" transform="scale(0.015625)"/>
      <path id="DejaVuSans-69" d="M 603 3500 
L 1178 3500 
L 1178 0 
L 603 0 
L 603 3500 
z
M 603 4863 
L 1178 4863 
L 1178 4134 
L 603 4134 
L 603 4863 
z
" transform="scale(0.015625)"/>
      <path id="DejaVuSans-20" transform="scale(0.015625)"/>
      <path id="DejaVuSans-68" d="M 3513 2113 
L 3513 0 
L 2938 0 
L 2938 2094 
Q 2938 2591 2744 2837 
Q 2550 3084 2163 3084 
Q 1697 3084 1428 2787 
Q 1159 2491 1159 1978 
L 1159 0 
L 581 0 
L 581 4863 
L 1159 4863 
L 1159 2956 
Q 1366 3272 1645 3428 
Q 1925 3584 2291 3584 
Q 2894 3584 3203 3211 
Q 3513 2838 3513 2113 
z
" transform="scale(0.015625)"/>
      <path id="DejaVuSans-6f" d="M 1959 3097 
Q 1497 3097 1228 2736 
Q 959 2375 959 1747 
Q 959 1119 1226 758 
Q 1494 397 1959 397 
Q 2419 397 2687 759 
Q 2956 1122 2956 1747 
Q 2956 2369 2687 2733 
Q 2419 3097 1959 3097 
z
M 1959 3584 
Q 2709 3584 3137 3096 
Q 3566 2609 3566 1747 
Q 3566 888 3137 398 
Q 2709 -91 1959 -91 
Q 1206 -91 779 398 
Q 353 888 353 1747 
Q 353 2609 779 3096 
Q 1206 3584 1959 3584 
z
" transform="scale(0.015625)"/>
      <path id="DejaVuSans-79" d="M 2059 -325 
Q 1816 -950 1584 -1140 
Q 1353 -1331 966 -1331 
L 506 -1331 
L 506 -850 
L 844 -850 
Q 1081 -850 1212 -737 
Q 1344 -625 1503 -206 
L 1606 56 
L 191 3500 
L 800 3500 
L 1894 763 
L 2988 3500 
L 3597 3500 
L 2059 -325 
z
" transform="scale(0.015625)"/>
     </defs>
     <use xlink:href="#DejaVuSans-67"/>
     <use xlink:href="#DejaVuSans-65" transform="translate(63.476562 0)"/>
     <use xlink:href="#DejaVuSans-74" transform="translate(125 0)"/>
     <use xlink:href="#DejaVuSans-5f" transform="translate(164.208984 0)"/>
     <use xlink:href="#DejaVuSans-73" transform="translate(214.208984 0)"/>
     <use xlink:href="#DejaVuSans-75" transform="translate(266.308594 0)"/>
     <use xlink:href="#DejaVuSans-62" transform="translate(329.6875 0)"/>
     <use xlink:href="#DejaVuSans-73" transform="translate(393.164062 0)"/>
     <use xlink:href="#DejaVuSans-63" transform="translate(445.263672 0)"/>
     <use xlink:href="#DejaVuSans-72" transform="translate(500.244141 0)"/>
     <use xlink:href="#DejaVuSans-69" transform="translate(541.357422 0)"/>
     <use xlink:href="#DejaVuSans-62" transform="translate(569.140625 0)"/>
     <use xlink:href="#DejaVuSans-65" transform="translate(632.617188 0)"/>
     <use xlink:href="#DejaVuSans-20" transform="translate(694.140625 0)"/>
     <use xlink:href="#DejaVuSans-68" transform="translate(725.927734 0)"/>
     <use xlink:href="#DejaVuSans-69" transform="translate(789.306641 0)"/>
     <use xlink:href="#DejaVuSans-73" transform="translate(817.089844 0)"/>
     <use xlink:href="#DejaVuSans-74" transform="translate(869.189453 0)"/>
     <use xlink:href="#DejaVuSans-6f" transform="translate(908.398438 0)"/>
     <use xlink:href="#DejaVuSans-72" transform="translate(969.580078 0)"/>
     <use xlink:href="#DejaVuSans-79" transform="translate(1010.693359 0)"/>
    </g>
   </g>
   <g id="legend_1">
    <g id="line2d_39">
     <path d="M 815.08 328.498438 
L 825.08 328.498438 
L 835.08 328.498438 
" style="fill: none; stroke: #1f77b4; stroke-width: 1.5; stroke-linecap: square"/>
    </g>
    <g id="text_20">
     <!-- star -->
     <g style="fill: #a9a9a9" transform="translate(843.08 331.998438) scale(0.1 -0.1)">
      <defs>
       <path id="DejaVuSans-61" d="M 2194 1759 
Q 1497 1759 1228 1600 
Q 959 1441 959 1056 
Q 959 750 1161 570 
Q 1363 391 1709 391 
Q 2188 391 2477 730 
Q 2766 1069 2766 1631 
L 2766 1759 
L 2194 1759 
z
M 3341 1997 
L 3341 0 
L 2766 0 
L 2766 531 
Q 2569 213 2275 61 
Q 1981 -91 1556 -91 
Q 1019 -91 701 211 
Q 384 513 384 1019 
Q 384 1609 779 1909 
Q 1175 2209 1959 2209 
L 2766 2209 
L 2766 2266 
Q 2766 2663 2505 2880 
Q 2244 3097 1772 3097 
Q 1472 3097 1187 3025 
Q 903 2953 641 2809 
L 641 3341 
Q 956 3463 1253 3523 
Q 1550 3584 1831 3584 
Q 2591 3584 2966 3190 
Q 3341 2797 3341 1997 
z
" transform="scale(0.015625)"/>
      </defs>
      <use xlink:href="#DejaVuSans-73"/>
      <use xlink:href="#DejaVuSans-74" transform="translate(52.099609 0)"/>
      <use xlink:href="#DejaVuSans-61" transform="translate(91.308594 0)"/>
      <use xlink:href="#DejaVuSans-72" transform="translate(152.587891 0)"/>
     </g>
    </g>
    <g id="line2d_40">
     <path d="M 815.08 343.176562 
L 825.08 343.176562 
L 835.08 343.176562 
" style="fill: none; stroke: #ff7f0e; stroke-width: 1.5; stroke-linecap: square"/>
    </g>
    <g id="text_21">
     <!-- fork -->
     <g style="fill: #a9a9a9" transform="translate(843.08 346.676562) scale(0.1 -0.1)">
      <defs>
       <path id="DejaVuSans-66" d="M 2375 4863 
L 2375 4384 
L 1825 4384 
Q 1516 4384 1395 4259 
Q 1275 4134 1275 3809 
L 1275 3500 
L 2222 3500 
L 2222 3053 
L 1275 3053 
L 1275 0 
L 697 0 
L 697 3053 
L 147 3053 
L 147 3500 
L 697 3500 
L 697 3744 
Q 697 4328 969 4595 
Q 1241 4863 1831 4863 
L 2375 4863 
z
" transform="scale(0.015625)"/>
       <path id="DejaVuSans-6b" d="M 581 4863 
L 1159 4863 
L 1159 1991 
L 2875 3500 
L 3609 3500 
L 1753 1863 
L 3688 0 
L 2938 0 
L 1159 1709 
L 1159 0 
L 581 0 
L 581 4863 
z
" transform="scale(0.015625)"/>
      </defs>
      <use xlink:href="#DejaVuSans-66"/>
      <use xlink:href="#DejaVuSans-6f" transform="translate(35.205078 0)"/>
      <use xlink:href="#DejaVuSans-72" transform="translate(96.386719 0)"/>
      <use xlink:href="#DejaVuSans-6b" transform="translate(137.5 0)"/>
     </g>
    </g>
   </g>
  </g>
 </g>
 <defs>
  <clipPath id="p14588d00d1">
   <rect x="108" y="43.2" width="669.6" height="277.2"/>
  </clipPath>
 </defs>
</svg>
