<?xml version="1.0" encoding="utf-8" standalone="no"?>
<!DOCTYPE svg PUBLIC "-//W3C//DTD SVG 1.1//EN"
  "http://www.w3.org/Graphics/SVG/1.1/DTD/svg11.dtd">
<svg xmlns:xlink="http://www.w3.org/1999/xlink" width="864pt" height="360pt" viewBox="0 0 864 360" xmlns="http://www.w3.org/2000/svg" version="1.1">
 <metadata>
  <rdf:RDF xmlns:dc="http://purl.org/dc/elements/1.1/" xmlns:cc="http://creativecommons.org/ns#" xmlns:rdf="http://www.w3.org/1999/02/22-rdf-syntax-ns#">
   <cc:Work>
    <dc:type rdf:resource="http://purl.org/dc/dcmitype/StillImage"/>
    <dc:date>2026-03-12T20:12:21.416890</dc:date>
    <dc:format>image/svg+xml</dc:format>
    <dc:creator>
     <cc:Agent>
      <dc:title>Matplotlib v3.10.8, https://matplotlib.org/</dc:title>
     </cc:Agent>
    </dc:creator>
   </cc:Work>
  </rdf:RDF>
 </metadata>
 <defs>
  <style type="text/css">*{stroke-linejoin: round; stroke-linecap: butt}</style>
 </defs>
 <g id="figure_1">
  <g id="patch_1">
   <path d="M 0 360 
L 864 360 
L 864 0 
L 0 0 
L 0 360 
z
" style="fill: none; opacity: 0"/>
  </g>
  <g id="axes_1">
   <g id="patch_2">
    <path d="M 108 320.4 
L 777.6 320.4 
L 777.6 43.2 
L 108 43.2 
L 108 320.4 
z
" style="fill: none; opacity: 0"/>
   </g>
   <g id="matplotlib.axis_1">
    <g id="xtick_1">
     <g id="line2d_1">
      <path d="M 196.358994 320.4 
L 196.358994 43.2 
" clip-path="url(#p5a6ae2f2a0)" style="fill: none; stroke-dasharray: 5.12,1.28,0.8,1.28; stroke-dashoffset: 0; stroke: #b0b0b0; stroke-width: 0.8"/>
     </g>
     <g id="line2d_2">
      <defs>
       <path id="m8d69c4ce2a" d="M 0 0 
L 0 3.5 
" style="stroke: #a9a9a9; stroke-width: 0.8"/>
      </defs>
      <g>
       <use xlink:href="#m8d69c4ce2a" x="196.358994" y="320.4" style="fill: #a9a9a9; stroke: #a9a9a9; stroke-width: 0.8"/>
      </g>
     </g>
     <g id="text_1">
      <!-- 2022 -->
      <g style="fill: #a9a9a9" transform="translate(183.633994 334.998438) scale(0.1 -0.1)">
       <defs>
        <path id="DejaVuSans-32" d="M 1228 531 
L 3431 531 
L 3431 0 
L 469 0 
L 469 531 
Q 828 903 1448 1529 
Q 2069 2156 2228 2338 
Q 2531 2678 2651 2914 
Q 2772 3150 2772 3378 
Q 2772 3750 2511 3984 
Q 2250 4219 1831 4219 
Q 1534 4219 1204 4116 
Q 875 4013 500 3803 
L 500 4441 
Q 881 4594 1212 4672 
Q 1544 4750 1819 4750 
Q 2544 4750 2975 4387 
Q 3406 4025 3406 3419 
Q 3406 3131 3298 2873 
Q 3191 2616 2906 2266 
Q 2828 2175 2409 1742 
Q 1991 1309 1228 531 
z
" transform="scale(0.015625)"/>
        <path id="DejaVuSans-30" d="M 2034 4250 
Q 1547 4250 1301 3770 
Q 1056 3291 1056 2328 
Q 1056 1369 1301 889 
Q 1547 409 2034 409 
Q 2525 409 2770 889 
Q 3016 1369 3016 2328 
Q 3016 3291 2770 3770 
Q 2525 4250 2034 4250 
z
M 2034 4750 
Q 2819 4750 3233 4129 
Q 3647 3509 3647 2328 
Q 3647 1150 3233 529 
Q 2819 -91 2034 -91 
Q 1250 -91 836 529 
Q 422 1150 422 2328 
Q 422 3509 836 4129 
Q 1250 4750 2034 4750 
z
" transform="scale(0.015625)"/>
       </defs>
       <use xlink:href="#DejaVuSans-32"/>
       <use xlink:href="#DejaVuSans-30" transform="translate(63.623047 0)"/>
       <use xlink:href="#DejaVuSans-32" transform="translate(127.246094 0)"/>
       <use xlink:href="#DejaVuSans-32" transform="translate(190.869141 0)"/>
      </g>
     </g>
    </g>
    <g id="xtick_2">
     <g id="line2d_3">
      <path d="M 327.674275 320.4 
L 327.674275 43.2 
" clip-path="url(#p5a6ae2f2a0)" style="fill: none; stroke-dasharray: 5.12,1.28,0.8,1.28; stroke-dashoffset: 0; stroke: #b0b0b0; stroke-width: 0.8"/>
     </g>
     <g id="line2d_4">
      <g>
       <use xlink:href="#m8d69c4ce2a" x="327.674275" y="320.4" style="fill: #a9a9a9; stroke: #a9a9a9; stroke-width: 0.8"/>
      </g>
     </g>
     <g id="text_2">
      <!-- 2023 -->
      <g style="fill: #a9a9a9" transform="translate(314.949275 334.998438) scale(0.1 -0.1)">
       <defs>
        <path id="DejaVuSans-33" d="M 2597 2516 
Q 3050 2419 3304 2112 
Q 3559 1806 3559 1356 
Q 3559 666 3084 287 
Q 2609 -91 1734 -91 
Q 1441 -91 1130 -33 
Q 819 25 488 141 
L 488 750 
Q 750 597 1062 519 
Q 1375 441 1716 441 
Q 2309 441 2620 675 
Q 2931 909 2931 1356 
Q 2931 1769 2642 2001 
Q 2353 2234 1838 2234 
L 1294 2234 
L 1294 2753 
L 1863 2753 
Q 2328 2753 2575 2939 
Q 2822 3125 2822 3475 
Q 2822 3834 2567 4026 
Q 2313 4219 1838 4219 
Q 1578 4219 1281 4162 
Q 984 4106 628 3988 
L 628 4550 
Q 988 4650 1302 4700 
Q 1616 4750 1894 4750 
Q 2613 4750 3031 4423 
Q 3450 4097 3450 3541 
Q 3450 3153 3228 2886 
Q 3006 2619 2597 2516 
z
" transform="scale(0.015625)"/>
       </defs>
       <use xlink:href="#DejaVuSans-32"/>
       <use xlink:href="#DejaVuSans-30" transform="translate(63.623047 0)"/>
       <use xlink:href="#DejaVuSans-32" transform="translate(127.246094 0)"/>
       <use xlink:href="#DejaVuSans-33" transform="translate(190.869141 0)"/>
      </g>
     </g>
    </g>
    <g id="xtick_3">
     <g id="line2d_5">
      <path d="M 458.989555 320.4 
L 458.989555 43.2 
" clip-path="url(#p5a6ae2f2a0)" style="fill: none; stroke-dasharray: 5.12,1.28,0.8,1.28; stroke-dashoffset: 0; stroke: #b0b0b0; stroke-width: 0.8"/>
     </g>
     <g id="line2d_6">
      <g>
       <use xlink:href="#m8d69c4ce2a" x="458.989555" y="320.4" style="fill: #a9a9a9; stroke: #a9a9a9; stroke-width: 0.8"/>
      </g>
     </g>
     <g id="text_3">
      <!-- 2024 -->
      <g style="fill: #a9a9a9" transform="translate(446.264555 334.998438) scale(0.1 -0.1)">
       <defs>
        <path id="DejaVuSans-34" d="M 2419 4116 
L 825 1625 
L 2419 1625 
L 2419 4116 
z
M 2253 4666 
L 3047 4666 
L 3047 1625 
L 3713 1625 
L 3713 1100 
L 3047 1100 
L 3047 0 
L 2419 0 
L 2419 1100 
L 313 1100 
L 313 1709 
L 2253 4666 
z
" transform="scale(0.015625)"/>
       </defs>
       <use xlink:href="#DejaVuSans-32"/>
       <use xlink:href="#DejaVuSans-30" transform="translate(63.623047 0)"/>
       <use xlink:href="#DejaVuSans-32" transform="translate(127.246094 0)"/>
       <use xlink:href="#DejaVuSans-34" transform="translate(190.869141 0)"/>
      </g>
     </g>
    </g>
    <g id="xtick_4">
     <g id="line2d_7">
      <path d="M 590.664603 320.4 
L 590.664603 43.2 
" clip-path="url(#p5a6ae2f2a0)" style="fill: none; stroke-dasharray: 5.12,1.28,0.8,1.28; stroke-dashoffset: 0; stroke: #b0b0b0; stroke-width: 0.8"/>
     </g>
     <g id="line2d_8">
      <g>
       <use xlink:href="#m8d69c4ce2a" x="590.664603" y="320.4" style="fill: #a9a9a9; stroke: #a9a9a9; stroke-width: 0.8"/>
      </g>
     </g>
     <g id="text_4">
      <!-- 2025 -->
      <g style="fill: #a9a9a9" transform="translate(577.939603 334.998438) scale(0.1 -0.1)">
       <defs>
        <path id="DejaVuSans-35" d="M 691 4666 
L 3169 4666 
L 3169 4134 
L 1269 4134 
L 1269 2991 
Q 1406 3038 1543 3061 
Q 1681 3084 1819 3084 
Q 2600 3084 3056 2656 
Q 3513 2228 3513 1497 
Q 3513 744 3044 326 
Q 2575 -91 1722 -91 
Q 1428 -91 1123 -41 
Q 819 9 494 109 
L 494 744 
Q 775 591 1075 516 
Q 1375 441 1709 441 
Q 2250 441 2565 725 
Q 2881 1009 2881 1497 
Q 2881 1984 2565 2268 
Q 2250 2553 1709 2553 
Q 1456 2553 1204 2497 
Q 953 2441 691 2322 
L 691 4666 
z
" transform="scale(0.015625)"/>
       </defs>
       <use xlink:href="#DejaVuSans-32"/>
       <use xlink:href="#DejaVuSans-30" transform="translate(63.623047 0)"/>
       <use xlink:href="#DejaVuSans-32" transform="translate(127.246094 0)"/>
       <use xlink:href="#DejaVuSans-35" transform="translate(190.869141 0)"/>
      </g>
     </g>
    </g>
    <g id="xtick_5">
     <g id="line2d_9">
      <path d="M 721.979884 320.4 
L 721.979884 43.2 
" clip-path="url(#p5a6ae2f2a0)" style="fill: none; stroke-dasharray: 5.12,1.28,0.8,1.28; stroke-dashoffset: 0; stroke: #b0b0b0; stroke-width: 0.8"/>
     </g>
     <g id="line2d_10">
      <g>
       <use xlink:href="#m8d69c4ce2a" x="721.979884" y="320.4" style="fill: #a9a9a9; stroke: #a9a9a9; stroke-width: 0.8"/>
      </g>
     </g>
     <g id="text_5">
      <!-- 2026 -->
      <g style="fill: #a9a9a9" transform="translate(709.254884 334.998438) scale(0.1 -0.1)">
       <defs>
        <path id="DejaVuSans-36" d="M 2113 2584 
Q 1688 2584 1439 2293 
Q 1191 2003 1191 1497 
Q 1191 994 1439 701 
Q 1688 409 2113 409 
Q 2538 409 2786 701 
Q 3034 994 3034 1497 
Q 3034 2003 2786 2293 
Q 2538 2584 2113 2584 
z
M 3366 4563 
L 3366 3988 
Q 3128 4100 2886 4159 
Q 2644 4219 2406 4219 
Q 1781 4219 1451 3797 
Q 1122 3375 1075 2522 
Q 1259 2794 1537 2939 
Q 1816 3084 2150 3084 
Q 2853 3084 3261 2657 
Q 3669 2231 3669 1497 
Q 3669 778 3244 343 
Q 2819 -91 2113 -91 
Q 1303 -91 875 529 
Q 447 1150 447 2328 
Q 447 3434 972 4092 
Q 1497 4750 2381 4750 
Q 2619 4750 2861 4703 
Q 3103 4656 3366 4563 
z
" transform="scale(0.015625)"/>
       </defs>
       <use xlink:href="#DejaVuSans-32"/>
       <use xlink:href="#DejaVuSans-30" transform="translate(63.623047 0)"/>
       <use xlink:href="#DejaVuSans-32" transform="translate(127.246094 0)"/>
       <use xlink:href="#DejaVuSans-36" transform="translate(190.869141 0)"/>
      </g>
     </g>
    </g>
   </g>
   <g id="matplotlib.axis_2">
    <g id="ytick_1">
     <g id="line2d_11">
      <path d="M 108 307.82878 
L 777.6 307.82878 
" clip-path="url(#p5a6ae2f2a0)" style="fill: none; stroke-dasharray: 5.12,1.28,0.8,1.28; stroke-dashoffset: 0; stroke: #b0b0b0; stroke-width: 0.8"/>
     </g>
     <g id="line2d_12">
      <defs>
       <path id="mafcb383574" d="M 0 0 
L -3.5 0 
" style="stroke: #a9a9a9; stroke-width: 0.8"/>
      </defs>
      <g>
       <use xlink:href="#mafcb383574" x="108" y="307.82878" style="fill: #a9a9a9; stroke: #a9a9a9; stroke-width: 0.8"/>
      </g>
     </g>
     <g id="text_6">
      <!-- 0 -->
      <g style="fill: #a9a9a9" transform="translate(94.6375 311.627999) scale(0.1 -0.1)">
       <use xlink:href="#DejaVuSans-30"/>
      </g>
     </g>
    </g>
    <g id="ytick_2">
     <g id="line2d_13">
      <path d="M 108 279.048515 
L 777.6 279.048515 
" clip-path="url(#p5a6ae2f2a0)" style="fill: none; stroke-dasharray: 5.12,1.28,0.8,1.28; stroke-dashoffset: 0; stroke: #b0b0b0; stroke-width: 0.8"/>
     </g>
     <g id="line2d_14">
      <g>
       <use xlink:href="#mafcb383574" x="108" y="279.048515" style="fill: #a9a9a9; stroke: #a9a9a9; stroke-width: 0.8"/>
      </g>
     </g>
     <g id="text_7">
      <!-- 1000 -->
      <g style="fill: #a9a9a9" transform="translate(75.55 282.847734) scale(0.1 -0.1)">
       <defs>
        <path id="DejaVuSans-31" d="M 794 531 
L 1825 531 
L 1825 4091 
L 703 3866 
L 703 4441 
L 1819 4666 
L 2450 4666 
L 2450 531 
L 3481 531 
L 3481 0 
L 794 0 
L 794 531 
z
" transform="scale(0.015625)"/>
       </defs>
       <use xlink:href="#DejaVuSans-31"/>
       <use xlink:href="#DejaVuSans-30" transform="translate(63.623047 0)"/>
       <use xlink:href="#DejaVuSans-30" transform="translate(127.246094 0)"/>
       <use xlink:href="#DejaVuSans-30" transform="translate(190.869141 0)"/>
      </g>
     </g>
    </g>
    <g id="ytick_3">
     <g id="line2d_15">
      <path d="M 108 250.26825 
L 777.6 250.26825 
" clip-path="url(#p5a6ae2f2a0)" style="fill: none; stroke-dasharray: 5.12,1.28,0.8,1.28; stroke-dashoffset: 0; stroke: #b0b0b0; stroke-width: 0.8"/>
     </g>
     <g id="line2d_16">
      <g>
       <use xlink:href="#mafcb383574" x="108" y="250.26825" style="fill: #a9a9a9; stroke: #a9a9a9; stroke-width: 0.8"/>
      </g>
     </g>
     <g id="text_8">
      <!-- 2000 -->
      <g style="fill: #a9a9a9" transform="translate(75.55 254.067469) scale(0.1 -0.1)">
       <use xlink:href="#DejaVuSans-32"/>
       <use xlink:href="#DejaVuSans-30" transform="translate(63.623047 0)"/>
       <use xlink:href="#DejaVuSans-30" transform="translate(127.246094 0)"/>
       <use xlink:href="#DejaVuSans-30" transform="translate(190.869141 0)"/>
      </g>
     </g>
    </g>
    <g id="ytick_4">
     <g id="line2d_17">
      <path d="M 108 221.487985 
L 777.6 221.487985 
" clip-path="url(#p5a6ae2f2a0)" style="fill: none; stroke-dasharray: 5.12,1.28,0.8,1.28; stroke-dashoffset: 0; stroke: #b0b0b0; stroke-width: 0.8"/>
     </g>
     <g id="line2d_18">
      <g>
       <use xlink:href="#mafcb383574" x="108" y="221.487985" style="fill: #a9a9a9; stroke: #a9a9a9; stroke-width: 0.8"/>
      </g>
     </g>
     <g id="text_9">
      <!-- 3000 -->
      <g style="fill: #a9a9a9" transform="translate(75.55 225.287204) scale(0.1 -0.1)">
       <use xlink:href="#DejaVuSans-33"/>
       <use xlink:href="#DejaVuSans-30" transform="translate(63.623047 0)"/>
       <use xlink:href="#DejaVuSans-30" transform="translate(127.246094 0)"/>
       <use xlink:href="#DejaVuSans-30" transform="translate(190.869141 0)"/>
      </g>
     </g>
    </g>
    <g id="ytick_5">
     <g id="line2d_19">
      <path d="M 108 192.70772 
L 777.6 192.70772 
" clip-path="url(#p5a6ae2f2a0)" style="fill: none; stroke-dasharray: 5.12,1.28,0.8,1.28; stroke-dashoffset: 0; stroke: #b0b0b0; stroke-width: 0.8"/>
     </g>
     <g id="line2d_20">
      <g>
       <use xlink:href="#mafcb383574" x="108" y="192.70772" style="fill: #a9a9a9; stroke: #a9a9a9; stroke-width: 0.8"/>
      </g>
     </g>
     <g id="text_10">
      <!-- 4000 -->
      <g style="fill: #a9a9a9" transform="translate(75.55 196.506939) scale(0.1 -0.1)">
       <use xlink:href="#DejaVuSans-34"/>
       <use xlink:href="#DejaVuSans-30" transform="translate(63.623047 0)"/>
       <use xlink:href="#DejaVuSans-30" transform="translate(127.246094 0)"/>
       <use xlink:href="#DejaVuSans-30" transform="translate(190.869141 0)"/>
      </g>
     </g>
    </g>
    <g id="ytick_6">
     <g id="line2d_21">
      <path d="M 108 163.927455 
L 777.6 163.927455 
" clip-path="url(#p5a6ae2f2a0)" style="fill: none; stroke-dasharray: 5.12,1.28,0.8,1.28; stroke-dashoffset: 0; stroke: #b0b0b0; stroke-width: 0.8"/>
     </g>
     <g id="line2d_22">
      <g>
       <use xlink:href="#mafcb383574" x="108" y="163.927455" style="fill: #a9a9a9; stroke: #a9a9a9; stroke-width: 0.8"/>
      </g>
     </g>
     <g id="text_11">
      <!-- 5000 -->
      <g style="fill: #a9a9a9" transform="translate(75.55 167.726674) scale(0.1 -0.1)">
       <use xlink:href="#DejaVuSans-35"/>
       <use xlink:href="#DejaVuSans-30" transform="translate(63.623047 0)"/>
       <use xlink:href="#DejaVuSans-30" transform="translate(127.246094 0)"/>
       <use xlink:href="#DejaVuSans-30" transform="translate(190.869141 0)"/>
      </g>
     </g>
    </g>
    <g id="ytick_7">
     <g id="line2d_23">
      <path d="M 108 135.14719 
L 777.6 135.14719 
" clip-path="url(#p5a6ae2f2a0)" style="fill: none; stroke-dasharray: 5.12,1.28,0.8,1.28; stroke-dashoffset: 0; stroke: #b0b0b0; stroke-width: 0.8"/>
     </g>
     <g id="line2d_24">
      <g>
       <use xlink:href="#mafcb383574" x="108" y="135.14719" style="fill: #a9a9a9; stroke: #a9a9a9; stroke-width: 0.8"/>
      </g>
     </g>
     <g id="text_12">
      <!-- 6000 -->
      <g style="fill: #a9a9a9" transform="translate(75.55 138.946409) scale(0.1 -0.1)">
       <use xlink:href="#DejaVuSans-36"/>
       <use xlink:href="#DejaVuSans-30" transform="translate(63.623047 0)"/>
       <use xlink:href="#DejaVuSans-30" transform="translate(127.246094 0)"/>
       <use xlink:href="#DejaVuSans-30" transform="translate(190.869141 0)"/>
      </g>
     </g>
    </g>
    <g id="ytick_8">
     <g id="line2d_25">
      <path d="M 108 106.366926 
L 777.6 106.366926 
" clip-path="url(#p5a6ae2f2a0)" style="fill: none; stroke-dasharray: 5.12,1.28,0.8,1.28; stroke-dashoffset: 0; stroke: #b0b0b0; stroke-width: 0.8"/>
     </g>
     <g id="line2d_26">
      <g>
       <use xlink:href="#mafcb383574" x="108" y="106.366926" style="fill: #a9a9a9; stroke: #a9a9a9; stroke-width: 0.8"/>
      </g>
     </g>
     <g id="text_13">
      <!-- 7000 -->
      <g style="fill: #a9a9a9" transform="translate(75.55 110.166144) scale(0.1 -0.1)">
       <defs>
        <path id="DejaVuSans-37" d="M 525 4666 
L 3525 4666 
L 3525 4397 
L 1831 0 
L 1172 0 
L 2766 4134 
L 525 4134 
L 525 4666 
z
" transform="scale(0.015625)"/>
       </defs>
       <use xlink:href="#DejaVuSans-37"/>
       <use xlink:href="#DejaVuSans-30" transform="translate(63.623047 0)"/>
       <use xlink:href="#DejaVuSans-30" transform="translate(127.246094 0)"/>
       <use xlink:href="#DejaVuSans-30" transform="translate(190.869141 0)"/>
      </g>
     </g>
    </g>
    <g id="ytick_9">
     <g id="line2d_27">
      <path d="M 108 77.586661 
L 777.6 77.586661 
" clip-path="url(#p5a6ae2f2a0)" style="fill: none; stroke-dasharray: 5.12,1.28,0.8,1.28; stroke-dashoffset: 0; stroke: #b0b0b0; stroke-width: 0.8"/>
     </g>
     <g id="line2d_28">
      <g>
       <use xlink:href="#mafcb383574" x="108" y="77.586661" style="fill: #a9a9a9; stroke: #a9a9a9; stroke-width: 0.8"/>
      </g>
     </g>
     <g id="text_14">
      <!-- 8000 -->
      <g style="fill: #a9a9a9" transform="translate(75.55 81.385879) scale(0.1 -0.1)">
       <defs>
        <path id="DejaVuSans-38" d="M 2034 2216 
Q 1584 2216 1326 1975 
Q 1069 1734 1069 1313 
Q 1069 891 1326 650 
Q 1584 409 2034 409 
Q 2484 409 2743 651 
Q 3003 894 3003 1313 
Q 3003 1734 2745 1975 
Q 2488 2216 2034 2216 
z
M 1403 2484 
Q 997 2584 770 2862 
Q 544 3141 544 3541 
Q 544 4100 942 4425 
Q 1341 4750 2034 4750 
Q 2731 4750 3128 4425 
Q 3525 4100 3525 3541 
Q 3525 3141 3298 2862 
Q 3072 2584 2669 2484 
Q 3125 2378 3379 2068 
Q 3634 1759 3634 1313 
Q 3634 634 3220 271 
Q 2806 -91 2034 -91 
Q 1263 -91 848 271 
Q 434 634 434 1313 
Q 434 1759 690 2068 
Q 947 2378 1403 2484 
z
M 1172 3481 
Q 1172 3119 1398 2916 
Q 1625 2713 2034 2713 
Q 2441 2713 2670 2916 
Q 2900 3119 2900 3481 
Q 2900 3844 2670 4047 
Q 2441 4250 2034 4250 
Q 1625 4250 1398 4047 
Q 1172 3844 1172 3481 
z
" transform="scale(0.015625)"/>
       </defs>
       <use xlink:href="#DejaVuSans-38"/>
       <use xlink:href="#DejaVuSans-30" transform="translate(63.623047 0)"/>
       <use xlink:href="#DejaVuSans-30" transform="translate(127.246094 0)"/>
       <use xlink:href="#DejaVuSans-30" transform="translate(190.869141 0)"/>
      </g>
     </g>
    </g>
    <g id="ytick_10">
     <g id="line2d_29">
      <path d="M 108 48.806396 
L 777.6 48.806396 
" clip-path="url(#p5a6ae2f2a0)" style="fill: none; stroke-dasharray: 5.12,1.28,0.8,1.28; stroke-dashoffset: 0; stroke: #b0b0b0; stroke-width: 0.8"/>
     </g>
     <g id="line2d_30">
      <g>
       <use xlink:href="#mafcb383574" x="108" y="48.806396" style="fill: #a9a9a9; stroke: #a9a9a9; stroke-width: 0.8"/>
      </g>
     </g>
     <g id="text_15">
      <!-- 9000 -->
      <g style="fill: #a9a9a9" transform="translate(75.55 52.605614) scale(0.1 -0.1)">
       <defs>
        <path id="DejaVuSans-39" d="M 703 97 
L 703 672 
Q 941 559 1184 500 
Q 1428 441 1663 441 
Q 2288 441 2617 861 
Q 2947 1281 2994 2138 
Q 2813 1869 2534 1725 
Q 2256 1581 1919 1581 
Q 1219 1581 811 2004 
Q 403 2428 403 3163 
Q 403 3881 828 4315 
Q 1253 4750 1959 4750 
Q 2769 4750 3195 4129 
Q 3622 3509 3622 2328 
Q 3622 1225 3098 567 
Q 2575 -91 1691 -91 
Q 1453 -91 1209 -44 
Q 966 3 703 97 
z
M 1959 2075 
Q 2384 2075 2632 2365 
Q 2881 2656 2881 3163 
Q 2881 3666 2632 3958 
Q 2384 4250 1959 4250 
Q 1534 4250 1286 3958 
Q 1038 3666 1038 3163 
Q 1038 2656 1286 2365 
Q 1534 2075 1959 2075 
z
" transform="scale(0.015625)"/>
       </defs>
       <use xlink:href="#DejaVuSans-39"/>
       <use xlink:href="#DejaVuSans-30" transform="translate(63.623047 0)"/>
       <use xlink:href="#DejaVuSans-30" transform="translate(127.246094 0)"/>
       <use xlink:href="#DejaVuSans-30" transform="translate(190.869141 0)"/>
      </g>
     </g>
    </g>
   </g>
   <g id="line2d_31">
    <path d="M 138.436364 307.742439 
L 140.594971 307.540978 
L 140.954739 307.368296 
L 142.39381 307.166834 
L 143.832882 306.850251 
L 144.552418 306.73513 
L 146.351257 306.562449 
L 147.070793 306.274646 
L 147.430561 305.756601 
L 147.790329 305.497579 
L 148.150097 304.634171 
L 148.509865 304.57661 
L 149.2294 304.116126 
L 149.948936 303.569301 
L 151.388008 302.475651 
L 151.747776 302.33175 
L 152.467311 301.871265 
L 153.546615 301.32444 
L 153.906383 300.691275 
L 154.625919 300.115669 
L 155.345455 299.885427 
L 156.424758 299.712746 
L 158.583366 299.367382 
L 158.943133 299.194701 
L 161.461509 298.964459 
L 162.90058 298.590315 
L 165.778723 298.158611 
L 166.138491 297.957149 
L 166.498259 297.899589 
L 167.217795 297.640566 
L 169.73617 297.180082 
L 170.455706 296.94984 
L 173.693617 296.374235 
L 174.413153 296.201553 
L 175.852224 296.000091 
L 176.57176 295.769849 
L 176.931528 295.223024 
L 178.010832 294.76254 
L 179.090135 294.445957 
L 179.449903 294.244495 
L 180.169439 294.100594 
L 181.968279 293.64011 
L 183.047582 293.381087 
L 184.486654 293.006944 
L 184.846422 292.978164 
L 185.565957 292.60402 
L 185.925725 292.54646 
L 186.285493 292.344998 
L 190.962476 291.51037 
L 192.401547 290.848424 
L 193.121083 290.646962 
L 193.840619 290.330379 
L 194.560155 289.783554 
L 195.639458 289.553312 
L 203.554352 287.078209 
L 203.91412 287.049429 
L 204.993424 286.704066 
L 205.353191 286.704066 
L 205.712959 286.531384 
L 206.432495 286.445043 
L 206.792263 286.301142 
L 208.591103 286.214801 
L 208.95087 286.12846 
L 209.670406 285.725537 
L 210.74971 285.322613 
L 211.469246 284.919689 
L 212.548549 284.430425 
L 213.987621 283.682138 
L 214.347389 283.279214 
L 215.066925 282.070443 
L 216.146228 281.72508 
L 216.505996 281.437277 
L 217.5853 281.034354 
L 217.945068 280.66021 
L 219.024371 280.199726 
L 219.384139 279.998264 
L 221.542747 277.37926 
L 222.262282 277.033897 
L 223.701354 275.997807 
L 224.42089 275.479762 
L 224.780658 274.932937 
L 225.140426 274.040749 
L 225.500193 273.465144 
L 227.658801 271.709548 
L 228.738104 270.731019 
L 229.45764 269.78127 
L 230.536944 268.975423 
L 231.976015 268.054454 
L 232.695551 267.65153 
L 234.134623 266.845683 
L 235.933462 265.061307 
L 236.652998 264.744724 
L 237.372534 264.226679 
L 237.732302 263.996437 
L 238.09207 263.938876 
L 239.171373 263.27693 
L 239.531141 262.845226 
L 241.329981 261.780356 
L 241.689749 261.636455 
L 242.769052 260.830608 
L 248.165571 258.758429 
L 248.885106 258.038922 
L 249.96441 257.463317 
L 250.683946 256.974052 
L 251.403482 256.74381 
L 251.76325 256.484788 
L 252.123017 256.369667 
L 253.202321 255.592599 
L 255.001161 255.160895 
L 256.080464 254.470169 
L 257.159768 254.211147 
L 257.519536 254.124806 
L 258.598839 253.318958 
L 260.037911 252.887254 
L 260.397679 252.599452 
L 262.556286 251.793604 
L 263.275822 251.649703 
L 263.995358 251.33312 
L 266.513733 250.354591 
L 267.233269 250.26825 
L 268.67234 249.692645 
L 272.629787 247.591686 
L 273.349323 247.246323 
L 274.068859 246.900959 
L 274.788395 246.757058 
L 275.50793 246.296574 
L 276.227466 246.095112 
L 277.30677 245.634628 
L 278.745841 245.433166 
L 279.465377 245.030242 
L 279.825145 244.684879 
L 280.184913 243.994153 
L 281.623985 243.562449 
L 283.063056 242.871722 
L 286.300967 241.346368 
L 287.020503 241.173687 
L 288.099807 240.598081 
L 288.459574 240.540521 
L 290.258414 239.590772 
L 290.97795 239.101508 
L 292.057253 238.871265 
L 295.295164 237.720055 
L 296.734236 237.086889 
L 297.094004 236.799086 
L 297.81354 236.396163 
L 298.533075 236.10836 
L 298.892843 236.022019 
L 300.331915 235.244952 
L 300.691683 234.842028 
L 301.051451 234.611786 
L 301.411219 234.525445 
L 302.130754 233.89228 
L 302.490522 233.834719 
L 302.85029 233.201553 
L 303.210058 233.057652 
L 303.569826 232.741069 
L 303.929594 232.683508 
L 304.64913 232.194244 
L 305.368665 231.935222 
L 305.728433 231.647419 
L 306.447969 231.244495 
L 307.887041 230.323527 
L 310.045648 229.316217 
L 310.405416 228.654271 
L 311.124952 228.078666 
L 311.48472 227.992325 
L 313.643327 226.898675 
L 314.362863 226.582092 
L 315.082398 226.035267 
L 315.801934 225.2582 
L 317.600774 223.847967 
L 318.320309 223.243582 
L 318.680077 223.0709 
L 319.399613 222.293833 
L 320.478917 221.775788 
L 321.198453 221.344084 
L 321.558221 221.228963 
L 321.917988 220.94116 
L 322.277756 220.8836 
L 325.515667 219.156784 
L 326.235203 218.955322 
L 327.674275 218.437277 
L 328.39381 217.948013 
L 329.832882 217.401188 
L 330.552418 216.940704 
L 331.271954 216.652901 
L 331.991489 216.106076 
L 332.711025 214.580722 
L 333.430561 213.717314 
L 334.509865 213.112928 
L 335.2294 212.796345 
L 335.589168 212.738785 
L 336.308704 212.393422 
L 338.107544 211.731476 
L 338.827079 211.242211 
L 339.906383 210.781727 
L 341.705222 209.659296 
L 342.424758 208.96857 
L 343.504062 208.421745 
L 343.86383 208.133942 
L 344.583366 207.759799 
L 346.741973 206.666149 
L 347.461509 206.464687 
L 348.540812 206.119324 
L 349.979884 205.428598 
L 352.858027 203.989584 
L 353.577563 203.586661 
L 353.937331 203.413979 
L 354.656867 202.809593 
L 355.376402 202.608132 
L 355.73617 202.262768 
L 356.095938 202.205208 
L 356.815474 201.629603 
L 358.614313 200.507172 
L 359.333849 200.27693 
L 359.693617 200.046688 
L 360.053385 199.989127 
L 362.211992 199.039379 
L 366.529207 197.657926 
L 367.608511 196.880859 
L 368.328046 196.477935 
L 369.767118 195.758429 
L 370.846422 195.010142 
L 371.565957 194.83746 
L 372.645261 194.146734 
L 375.883172 192.995523 
L 376.602708 192.736501 
L 378.041779 192.419918 
L 378.761315 192.189676 
L 380.560155 191.55651 
L 381.639458 191.211147 
L 382.358994 191.038465 
L 384.517602 190.635541 
L 385.237137 190.49164 
L 386.316441 190.232618 
L 386.676209 190.059936 
L 387.395745 189.916035 
L 388.11528 189.714573 
L 388.834816 189.36921 
L 389.194584 189.225308 
L 389.554352 189.225308 
L 394.95087 187.440932 
L 395.310638 187.038008 
L 397.469246 186.088259 
L 398.908317 185.570215 
L 399.268085 185.339973 
L 400.347389 184.994609 
L 401.78646 184.447784 
L 402.146228 184.131201 
L 403.225532 183.900959 
L 403.945068 183.555596 
L 404.304836 183.095112 
L 408.262282 182.174143 
L 408.62205 182.174143 
L 409.341586 181.943901 
L 412.579497 181.109274 
L 413.299033 180.936592 
L 419.774855 178.778072 
L 420.134623 178.51905 
L 420.854159 178.288808 
L 423.732302 177.252718 
L 424.451838 177.195158 
L 425.890909 176.763454 
L 426.250677 176.533212 
L 426.970213 176.302969 
L 427.689749 176.015167 
L 428.049516 175.727364 
L 428.409284 175.641023 
L 428.769052 175.439561 
L 429.12882 175.410781 
L 433.446035 173.799086 
L 436.683946 172.734217 
L 438.123017 171.496665 
L 440.641393 170.374235 
L 443.159768 169.251804 
L 443.879304 169.050343 
L 447.117215 167.409868 
L 447.83675 166.978164 
L 451.074662 165.366469 
L 451.434429 165.078666 
L 453.233269 164.38794 
L 455.751644 163.438191 
L 456.47118 163.35185 
L 456.830948 163.092828 
L 458.270019 162.805025 
L 458.989555 162.488442 
L 460.788395 161.596254 
L 465.465377 159.437734 
L 466.544681 159.063591 
L 466.904449 158.804568 
L 467.623985 158.718228 
L 467.983752 158.487985 
L 468.703288 158.372864 
L 473.380271 156.617268 
L 474.459574 156.358246 
L 475.898646 155.72508 
L 476.618182 155.322156 
L 478.057253 154.545089 
L 478.776789 154.372407 
L 479.136557 154.142165 
L 479.496325 154.084605 
L 481.295164 153.163636 
L 485.972147 151.35048 
L 486.331915 151.292919 
L 487.770986 150.573413 
L 488.490522 150.429511 
L 489.210058 149.997807 
L 490.64913 149.278301 
L 497.124952 146.716857 
L 498.564023 145.479306 
L 499.643327 145.047602 
L 502.161702 143.78127 
L 502.52147 143.522248 
L 503.241006 143.320786 
L 503.960542 142.917862 
L 505.039845 142.65884 
L 510.796132 140.241297 
L 512.594971 139.493011 
L 514.753578 138.687163 
L 516.552418 137.766195 
L 517.271954 137.535952 
L 517.631721 137.190589 
L 518.711025 136.758885 
L 519.070793 136.701325 
L 520.509865 136.010598 
L 521.589168 135.665235 
L 522.668472 135.262312 
L 523.747776 134.945729 
L 524.107544 134.888168 
L 524.827079 134.485244 
L 525.186847 134.341343 
L 525.546615 134.05354 
L 526.625919 133.765738 
L 527.345455 133.477935 
L 528.06499 133.161352 
L 529.504062 132.556967 
L 532.022437 131.923801 
L 532.741973 131.635998 
L 534.181044 131.348196 
L 534.90058 131.204294 
L 535.979884 130.77259 
L 537.059188 130.542348 
L 539.217795 129.218456 
L 540.297099 128.58529 
L 542.455706 127.894564 
L 542.815474 127.606761 
L 545.693617 126.570672 
L 546.772921 126.225308 
L 547.492456 125.822385 
L 548.211992 125.620923 
L 548.57176 125.419461 
L 549.291296 125.27556 
L 551.090135 124.440932 
L 551.809671 124.153129 
L 553.248743 123.577524 
L 553.608511 123.232161 
L 553.968279 123.1746 
L 555.40735 122.570215 
L 556.846422 122.196071 
L 557.20619 122.167291 
L 557.565957 121.994609 
L 558.285493 121.850708 
L 561.523404 120.843399 
L 562.24294 120.267794 
L 563.682012 119.433166 
L 564.041779 119.346825 
L 564.401547 119.145363 
L 564.761315 119.087803 
L 567.999226 117.476108 
L 568.358994 117.159525 
L 570.157834 116.727821 
L 571.237137 116.238556 
L 571.956673 116.037095 
L 572.316441 115.864413 
L 572.676209 115.54783 
L 575.194584 114.626862 
L 576.273888 114.137597 
L 576.633656 114.108817 
L 577.353191 113.821014 
L 578.792263 113.187848 
L 580.95087 112.641023 
L 582.030174 112.151759 
L 585.268085 111.086889 
L 585.987621 110.683965 
L 598.219729 106.88497 
L 598.939265 106.683508 
L 600.018569 106.280585 
L 600.378337 106.280585 
L 601.45764 106.021562 
L 602.177176 105.877661 
L 602.896712 105.676199 
L 603.976015 105.100594 
L 605.055319 104.755231 
L 607.573694 103.891823 
L 609.012766 103.143536 
L 611.531141 102.280128 
L 611.890909 101.963545 
L 612.610445 101.733303 
L 612.970213 101.503061 
L 613.689749 101.41672 
L 616.208124 100.697213 
L 617.287427 100.466971 
L 620.165571 99.430882 
L 624.842553 97.617725 
L 625.562089 97.502604 
L 626.281625 97.358703 
L 626.641393 97.358703 
L 627.720696 97.013339 
L 628.8 96.667976 
L 631.678143 95.833349 
L 633.117215 95.516766 
L 633.476983 95.286524 
L 634.196518 95.142622 
L 635.63559 94.85482 
L 636.714894 94.336775 
L 637.794197 94.077752 
L 638.513733 93.761169 
L 640.67234 92.984102 
L 641.032108 92.926542 
L 641.751644 92.667519 
L 646.068859 91.545089 
L 648.227466 90.796802 
L 648.947002 90.739242 
L 651.105609 90.192417 
L 651.825145 89.875834 
L 652.184913 89.818273 
L 652.544681 89.645592 
L 653.264217 89.012426 
L 656.502128 87.746094 
L 657.221663 87.630973 
L 660.099807 86.652444 
L 661.17911 86.048058 
L 661.538878 85.961718 
L 661.898646 85.673915 
L 662.97795 85.357332 
L 668.374468 82.853449 
L 670.173308 82.220283 
L 670.533075 81.9037 
L 670.892843 81.81736 
L 671.612379 81.356875 
L 672.691683 81.040292 
L 674.130754 80.435907 
L 674.490522 80.407127 
L 676.289362 79.7164 
L 677.008897 79.572499 
L 677.728433 79.054454 
L 678.088201 79.054454 
L 679.527273 78.536409 
L 680.966344 78.248607 
L 682.405416 77.615441 
L 682.765184 77.615441 
L 683.844487 77.241297 
L 684.564023 77.126176 
L 685.643327 76.493011 
L 686.362863 76.118867 
L 691.399613 74.593513 
L 692.119149 74.420831 
L 692.838685 74.133029 
L 693.917988 73.816446 
L 695.35706 73.298401 
L 696.796132 72.981818 
L 699.314507 72.262312 
L 700.034043 72.11841 
L 702.912186 71.05354 
L 703.631721 70.909639 
L 705.070793 70.650617 
L 705.790329 70.535496 
L 707.2294 69.95989 
L 707.948936 69.758429 
L 708.668472 69.643307 
L 710.107544 69.182823 
L 710.467311 69.182823 
L 711.186847 68.779899 
L 712.985687 68.319415 
L 713.705222 68.060393 
L 714.424758 67.916492 
L 716.583366 66.966743 
L 716.943133 66.909182 
L 717.662669 66.563819 
L 718.382205 66.247236 
L 719.101741 65.930653 
L 719.821277 65.642851 
L 720.181044 65.441389 
L 720.540812 65.383828 
L 721.260348 65.067245 
L 722.339652 64.606761 
L 724.138491 63.829694 
L 724.498259 63.599452 
L 724.858027 63.513111 
L 725.217795 63.282869 
L 725.577563 63.225308 
L 726.297099 62.764824 
L 728.455706 62.246779 
L 729.175242 61.843856 
L 729.53501 61.786295 
L 730.974081 61.21069 
L 736.3706 59.167291 
L 737.809671 58.821928 
L 739.248743 58.649246 
L 740.328046 58.419004 
L 740.687814 58.361444 
L 741.40735 57.900959 
L 742.486654 57.498036 
L 743.20619 57.325354 
L 743.925725 57.181453 
L 744.645261 56.83609 
L 747.163636 55.8 
L 747.163636 55.8 
" clip-path="url(#p5a6ae2f2a0)" style="fill: none; stroke: #1f77b4; stroke-width: 1.5; stroke-linecap: square"/>
   </g>
   <g id="line2d_32">
    <path d="M 138.796132 307.8 
L 142.034043 307.713659 
L 144.912186 307.569758 
L 146.351257 307.569758 
L 147.070793 307.454637 
L 155.705222 306.850251 
L 158.583366 306.76391 
L 160.382205 306.70635 
L 165.059188 306.620009 
L 166.858027 306.562449 
L 170.095938 306.476108 
L 171.53501 306.447328 
L 175.132689 306.360987 
L 176.57176 306.217085 
L 178.010832 306.188305 
L 180.169439 306.101964 
L 181.608511 306.073184 
L 183.40735 306.015624 
L 184.846422 305.871722 
L 188.084333 305.785381 
L 188.803868 305.727821 
L 190.24294 305.64148 
L 192.401547 305.555139 
L 193.840619 305.468799 
L 200.316441 305.037095 
L 202.834816 304.950754 
L 203.91412 304.835633 
L 205.712959 304.749292 
L 209.310638 304.54783 
L 212.908317 304.49027 
L 214.347389 304.346368 
L 216.146228 304.260027 
L 219.743907 303.885884 
L 221.902515 303.598081 
L 223.341586 303.540521 
L 226.219729 303.166377 
L 228.378337 303.108817 
L 229.45764 302.993696 
L 230.536944 302.907355 
L 249.244874 301.497122 
L 251.76325 301.410781 
L 253.202321 301.2381 
L 255.001161 301.151759 
L 257.159768 301.065418 
L 258.958607 300.979077 
L 260.397679 300.950297 
L 262.196518 300.892736 
L 262.916054 300.806396 
L 267.952805 300.720055 
L 268.67234 300.633714 
L 272.989555 300.547373 
L 276.227466 300.374692 
L 278.745841 300.288351 
L 280.544681 300.086889 
L 282.703288 300.000548 
L 283.422824 299.885427 
L 285.221663 299.827867 
L 288.819342 299.770306 
L 290.258414 299.626405 
L 291.697485 299.597624 
L 292.776789 299.511284 
L 294.215861 299.367382 
L 297.81354 299.165921 
L 301.411219 299.07958 
L 304.64913 298.906898 
L 305.728433 298.878118 
L 306.447969 298.762997 
L 308.246809 298.705436 
L 308.966344 298.647876 
L 310.765184 298.561535 
L 312.204255 298.532755 
L 314.722631 298.446414 
L 324.076596 297.784468 
L 326.235203 297.698127 
L 328.034043 297.640566 
L 333.070793 297.554226 
L 333.790329 297.467885 
L 338.827079 297.381544 
L 342.424758 297.180082 
L 343.144294 297.151302 
L 343.86383 297.064961 
L 345.662669 296.97862 
L 347.461509 296.92106 
L 349.260348 296.834719 
L 351.059188 296.777159 
L 354.297099 296.690818 
L 356.455706 296.604477 
L 361.492456 296.518136 
L 365.449903 296.287894 
L 366.888975 296.230333 
L 367.968279 296.143993 
L 373.005029 296.057652 
L 375.163636 295.971311 
L 381.639458 295.88497 
L 383.07853 295.85619 
L 387.395745 295.79863 
L 388.11528 295.741069 
L 393.152031 295.654728 
L 394.591103 295.625948 
L 403.945068 295.539607 
L 406.103675 295.453266 
L 421.213926 295.366926 
L 423.012766 295.309365 
L 433.446035 295.223024 
L 437.403482 294.992782 
L 439.562089 294.906441 
L 441.720696 294.820101 
L 445.318375 294.73376 
L 447.83675 294.618639 
L 450.714894 294.532298 
L 453.593037 294.388397 
L 460.428627 294.302056 
L 462.587234 294.215715 
L 466.544681 294.129374 
L 469.063056 294.014253 
L 471.581431 293.956693 
L 472.300967 293.899132 
L 480.935397 293.812791 
L 484.533075 293.611329 
L 487.051451 293.524989 
L 491.008897 293.294746 
L 495.326112 293.208406 
L 496.765184 293.179625 
L 497.48472 293.122065 
L 499.283559 292.920603 
L 502.881238 292.834262 
L 503.600774 292.747921 
L 507.198453 292.661581 
L 508.997292 292.60402 
L 512.954739 292.57524 
L 513.674275 292.488899 
L 517.631721 292.402558 
L 518.351257 292.344998 
L 526.266151 292.258657 
L 528.424758 292.172316 
L 533.821277 292.085975 
L 535.260348 292.057195 
L 538.498259 292.028415 
L 539.217795 291.942074 
L 543.894778 291.855733 
L 545.693617 291.798173 
L 552.169439 291.711832 
L 553.248743 291.625491 
L 554.328046 291.53915 
L 555.40735 291.45281 
L 560.803868 291.366469 
L 562.962476 291.280128 
L 573.395745 291.193787 
L 576.633656 291.021106 
L 581.670406 290.934765 
L 583.109478 290.905984 
L 587.426692 290.819644 
L 589.225532 290.762083 
L 597.500193 290.675742 
L 599.658801 290.589402 
L 605.774855 290.503061 
L 607.213926 290.47428 
L 610.811605 290.38794 
L 613.329981 290.272819 
L 617.287427 290.186478 
L 619.805803 290.071357 
L 623.043714 290.013796 
L 623.76325 289.956236 
L 631.678143 289.869895 
L 633.83675 289.783554 
L 636.355126 289.697213 
L 638.153965 289.639653 
L 648.587234 289.553312 
L 650.745841 289.466971 
L 656.861896 289.38063 
L 658.660735 289.32307 
L 663.337718 289.236729 
L 665.496325 289.150388 
L 668.374468 289.064048 
L 670.533075 288.977707 
L 684.923791 288.891366 
L 687.801934 288.747465 
L 696.076596 288.661124 
L 697.515667 288.632344 
L 706.150097 288.546003 
L 707.948936 288.488442 
L 719.461509 288.402101 
L 720.90058 288.373321 
L 731.693617 288.28698 
L 732.413153 288.22942 
L 741.40735 288.143079 
L 743.20619 288.085519 
L 747.163636 287.999178 
L 747.163636 287.999178 
" clip-path="url(#p5a6ae2f2a0)" style="fill: none; stroke: #ff7f0e; stroke-width: 1.5; stroke-linecap: square"/>
   </g>
   <g id="patch_3">
    <path d="M 108 320.4 
L 108 43.2 
" style="fill: none; stroke: #a9a9a9; stroke-width: 0.8; stroke-linejoin: miter; stroke-linecap: square"/>
   </g>
   <g id="patch_4">
    <path d="M 777.6 320.4 
L 777.6 43.2 
" style="fill: none"/>
   </g>
   <g id="patch_5">
    <path d="M 108 320.4 
L 777.6 320.4 
" style="fill: none; stroke: #a9a9a9; stroke-width: 0.8; stroke-linejoin: miter; stroke-linecap: square"/>
   </g>
   <g id="patch_6">
    <path d="M 108 43.2 
L 777.6 43.2 
" style="fill: none"/>
   </g>
   <g id="text_16">
    <!-- get_subscribe history -->
    <g style="fill: #a9a9a9" transform="translate(378.6075 37.2) scale(0.12 -0.12)">
     <defs>
      <path id="DejaVuSans-67" d="M 2906 1791 
Q 2906 2416 2648 2759 
Q 2391 3103 1925 3103 
Q 1463 3103 1205 2759 
Q 947 2416 947 1791 
Q 947 1169 1205 825 
Q 1463 481 1925 481 
Q 2391 481 2648 825 
Q 2906 1169 2906 1791 
z
M 3481 434 
Q 3481 -459 3084 -895 
Q 2688 -1331 1869 -1331 
Q 1566 -1331 1297 -1286 
Q 1028 -1241 775 -1147 
L 775 -588 
Q 1028 -725 1275 -790 
Q 1522 -856 1778 -856 
Q 2344 -856 2625 -561 
Q 2906 -266 2906 331 
L 2906 616 
Q 2728 306 2450 153 
Q 2172 0 1784 0 
Q 1141 0 747 490 
Q 353 981 353 1791 
Q 353 2603 747 3093 
Q 1141 3584 1784 3584 
Q 2172 3584 2450 3431 
Q 2728 3278 2906 2969 
L 2906 3500 
L 3481 3500 
L 3481 434 
z
" transform="scale(0.015625)"/>
      <path id="DejaVuSans-65" d="M 3597 1894 
L 3597 1613 
L 953 1613 
Q 991 1019 1311 708 
Q 1631 397 2203 397 
Q 2534 397 2845 478 
Q 3156 559 3463 722 
L 3463 178 
Q 3153 47 2828 -22 
Q 2503 -91 2169 -91 
Q 1331 -91 842 396 
Q 353 884 353 1716 
Q 353 2575 817 3079 
Q 1281 3584 2069 3584 
Q 2775 3584 3186 3129 
Q 3597 2675 3597 1894 
z
M 3022 2063 
Q 3016 2534 2758 2815 
Q 2500 3097 2075 3097 
Q 1594 3097 1305 2825 
Q 1016 2553 972 2059 
L 3022 2063 
z
" transform="scale(0.015625)"/>
      <path id="DejaVuSans-74" d="M 1172 4494 
L 1172 3500 
L 2356 3500 
L 2356 3053 
L 1172 3053 
L 1172 1153 
Q 1172 725 1289 603 
Q 1406 481 1766 481 
L 2356 481 
L 2356 0 
L 1766 0 
Q 1100 0 847 248 
Q 594 497 594 1153 
L 594 3053 
L 172 3053 
L 172 3500 
L 594 3500 
L 594 4494 
L 1172 4494 
z
" transform="scale(0.015625)"/>
      <path id="DejaVuSans-5f" d="M 3263 -1063 
L 3263 -1509 
L -63 -1509 
L -63 -1063 
L 3263 -1063 
z
" transform="scale(0.015625)"/>
      <path id="DejaVuSans-73" d="M 2834 3397 
L 2834 2853 
Q 2591 2978 2328 3040 
Q 2066 3103 1784 3103 
Q 1356 3103 1142 2972 
Q 928 2841 928 2578 
Q 928 2378 1081 2264 
Q 1234 2150 1697 2047 
L 1894 2003 
Q 2506 1872 2764 1633 
Q 3022 1394 3022 966 
Q 3022 478 2636 193 
Q 2250 -91 1575 -91 
Q 1294 -91 989 -36 
Q 684 19 347 128 
L 347 722 
Q 666 556 975 473 
Q 1284 391 1588 391 
Q 1994 391 2212 530 
Q 2431 669 2431 922 
Q 2431 1156 2273 1281 
Q 2116 1406 1581 1522 
L 1381 1569 
Q 847 1681 609 1914 
Q 372 2147 372 2553 
Q 372 3047 722 3315 
Q 1072 3584 1716 3584 
Q 2034 3584 2315 3537 
Q 2597 3491 2834 3397 
z
" transform="scale(0.015625)"/>
      <path id="DejaVuSans-75" d="M 544 1381 
L 544 3500 
L 1119 3500 
L 1119 1403 
Q 1119 906 1312 657 
Q 1506 409 1894 409 
Q 2359 409 2629 706 
Q 2900 1003 2900 1516 
L 2900 3500 
L 3475 3500 
L 3475 0 
L 2900 0 
L 2900 538 
Q 2691 219 2414 64 
Q 2138 -91 1772 -91 
Q 1169 -91 856 284 
Q 544 659 544 1381 
z
M 1991 3584 
L 1991 3584 
z
" transform="scale(0.015625)"/>
      <path id="DejaVuSans-62" d="M 3116 1747 
Q 3116 2381 2855 2742 
Q 2594 3103 2138 3103 
Q 1681 3103 1420 2742 
Q 1159 2381 1159 1747 
Q 1159 1113 1420 752 
Q 1681 391 2138 391 
Q 2594 391 2855 752 
Q 3116 1113 3116 1747 
z
M 1159 2969 
Q 1341 3281 1617 3432 
Q 1894 3584 2278 3584 
Q 2916 3584 3314 3078 
Q 3713 2572 3713 1747 
Q 3713 922 3314 415 
Q 2916 -91 2278 -91 
Q 1894 -91 1617 61 
Q 1341 213 1159 525 
L 1159 0 
L 581 0 
L 581 4863 
L 1159 4863 
L 1159 2969 
z
" transform="scale(0.015625)"/>
      <path id="DejaVuSans-63" d="M 3122 3366 
L 3122 2828 
Q 2878 2963 2633 3030 
Q 2388 3097 2138 3097 
Q 1578 3097 1268 2742 
Q 959 2388 959 1747 
Q 959 1106 1268 751 
Q 1578 397 2138 397 
Q 2388 397 2633 464 
Q 2878 531 3122 666 
L 3122 134 
Q 2881 22 2623 -34 
Q 2366 -91 2075 -91 
Q 1284 -91 818 406 
Q 353 903 353 1747 
Q 353 2603 823 3093 
Q 1294 3584 2113 3584 
Q 2378 3584 2631 3529 
Q 2884 3475 3122 3366 
z
" transform="scale(0.015625)"/>
      <path id="DejaVuSans-72" d="M 2631 2963 
Q 2534 3019 2420 3045 
Q 2306 3072 2169 3072 
Q 1681 3072 1420 2755 
Q 1159 2438 1159 1844 
L 1159 0 
L 581 0 
L 581 3500 
L 1159 3500 
L 1159 2956 
Q 1341 3275 1631 3429 
Q 1922 3584 2338 3584 
Q 2397 3584 2469 3576 
Q 2541 3569 2628 3553 
L 2631 2963 
z
" transform="scale(0.015625)"/>
      <path id="DejaVuSans-69" d="M 603 3500 
L 1178 3500 
L 1178 0 
L 603 0 
L 603 3500 
z
M 603 4863 
L 1178 4863 
L 1178 4134 
L 603 4134 
L 603 4863 
z
" transform="scale(0.015625)"/>
      <path id="DejaVuSans-20" transform="scale(0.015625)"/>
      <path id="DejaVuSans-68" d="M 3513 2113 
L 3513 0 
L 2938 0 
L 2938 2094 
Q 2938 2591 2744 2837 
Q 2550 3084 2163 3084 
Q 1697 3084 1428 2787 
Q 1159 2491 1159 1978 
L 1159 0 
L 581 0 
L 581 4863 
L 1159 4863 
L 1159 2956 
Q 1366 3272 1645 3428 
Q 1925 3584 2291 3584 
Q 2894 3584 3203 3211 
Q 3513 2838 3513 2113 
z
" transform="scale(0.015625)"/>
      <path id="DejaVuSans-6f" d="M 1959 3097 
Q 1497 3097 1228 2736 
Q 959 2375 959 1747 
Q 959 1119 1226 758 
Q 1494 397 1959 397 
Q 2419 397 2687 759 
Q 2956 1122 2956 1747 
Q 2956 2369 2687 2733 
Q 2419 3097 1959 3097 
z
M 1959 3584 
Q 2709 3584 3137 3096 
Q 3566 2609 3566 1747 
Q 3566 888 3137 398 
Q 2709 -91 1959 -91 
Q 1206 -91 779 398 
Q 353 888 353 1747 
Q 353 2609 779 3096 
Q 1206 3584 1959 3584 
z
" transform="scale(0.015625)"/>
      <path id="DejaVuSans-79" d="M 2059 -325 
Q 1816 -950 1584 -1140 
Q 1353 -1331 966 -1331 
L 506 -1331 
L 506 -850 
L 844 -850 
Q 1081 -850 1212 -737 
Q 1344 -625 1503 -206 
L 1606 56 
L 191 3500 
L 800 3500 
L 1894 763 
L 2988 3500 
L 3597 3500 
L 2059 -325 
z
" transform="scale(0.015625)"/>
     </defs>
     <use xlink:href="#DejaVuSans-67"/>
     <use xlink:href="#DejaVuSans-65" transform="translate(63.476562 0)"/>
     <use xlink:href="#DejaVuSans-74" transform="translate(125 0)"/>
     <use xlink:href="#DejaVuSans-5f" transform="translate(164.208984 0)"/>
     <use xlink:href="#DejaVuSans-73" transform="translate(214.208984 0)"/>
     <use xlink:href="#DejaVuSans-75" transform="translate(266.308594 0)"/>
     <use xlink:href="#DejaVuSans-62" transform="translate(329.6875 0)"/>
     <use xlink:href="#DejaVuSans-73" transform="translate(393.164062 0)"/>
     <use xlink:href="#DejaVuSans-63" transform="translate(445.263672 0)"/>
     <use xlink:href="#DejaVuSans-72" transform="translate(500.244141 0)"/>
     <use xlink:href="#DejaVuSans-69" transform="translate(541.357422 0)"/>
     <use xlink:href="#DejaVuSans-62" transform="translate(569.140625 0)"/>
     <use xlink:href="#DejaVuSans-65" transform="translate(632.617188 0)"/>
     <use xlink:href="#DejaVuSans-20" transform="translate(694.140625 0)"/>
     <use xlink:href="#DejaVuSans-68" transform="translate(725.927734 0)"/>
     <use xlink:href="#DejaVuSans-69" transform="translate(789.306641 0)"/>
     <use xlink:href="#DejaVuSans-73" transform="translate(817.089844 0)"/>
     <use xlink:href="#DejaVuSans-74" transform="translate(869.189453 0)"/>
     <use xlink:href="#DejaVuSans-6f" transform="translate(908.398438 0)"/>
     <use xlink:href="#DejaVuSans-72" transform="translate(969.580078 0)"/>
     <use xlink:href="#DejaVuSans-79" transform="translate(1010.693359 0)"/>
    </g>
   </g>
   <g id="legend_1">
    <g id="line2d_33">
     <path d="M 815.08 328.498438 
L 825.08 328.498438 
L 835.08 328.498438 
" style="fill: none; stroke: #1f77b4; stroke-width: 1.5; stroke-linecap: square"/>
    </g>
    <g id="text_17">
     <!-- star -->
     <g style="fill: #a9a9a9" transform="translate(843.08 331.998438) scale(0.1 -0.1)">
      <defs>
       <path id="DejaVuSans-61" d="M 2194 1759 
Q 1497 1759 1228 1600 
Q 959 1441 959 1056 
Q 959 750 1161 570 
Q 1363 391 1709 391 
Q 2188 391 2477 730 
Q 2766 1069 2766 1631 
L 2766 1759 
L 2194 1759 
z
M 3341 1997 
L 3341 0 
L 2766 0 
L 2766 531 
Q 2569 213 2275 61 
Q 1981 -91 1556 -91 
Q 1019 -91 701 211 
Q 384 513 384 1019 
Q 384 1609 779 1909 
Q 1175 2209 1959 2209 
L 2766 2209 
L 2766 2266 
Q 2766 2663 2505 2880 
Q 2244 3097 1772 3097 
Q 1472 3097 1187 3025 
Q 903 2953 641 2809 
L 641 3341 
Q 956 3463 1253 3523 
Q 1550 3584 1831 3584 
Q 2591 3584 2966 3190 
Q 3341 2797 3341 1997 
z
" transform="scale(0.015625)"/>
      </defs>
      <use xlink:href="#DejaVuSans-73"/>
      <use xlink:href="#DejaVuSans-74" transform="translate(52.099609 0)"/>
      <use xlink:href="#DejaVuSans-61" transform="translate(91.308594 0)"/>
      <use xlink:href="#DejaVuSans-72" transform="translate(152.587891 0)"/>
     </g>
    </g>
    <g id="line2d_34">
     <path d="M 815.08 343.176562 
L 825.08 343.176562 
L 835.08 343.176562 
" style="fill: none; stroke: #ff7f0e; stroke-width: 1.5; stroke-linecap: square"/>
    </g>
    <g id="text_18">
     <!-- fork -->
     <g style="fill: #a9a9a9" transform="translate(843.08 346.676562) scale(0.1 -0.1)">
      <defs>
       <path id="DejaVuSans-66" d="M 2375 4863 
L 2375 4384 
L 1825 4384 
Q 1516 4384 1395 4259 
Q 1275 4134 1275 3809 
L 1275 3500 
L 2222 3500 
L 2222 3053 
L 1275 3053 
L 1275 0 
L 697 0 
L 697 3053 
L 147 3053 
L 147 3500 
L 697 3500 
L 697 3744 
Q 697 4328 969 4595 
Q 1241 4863 1831 4863 
L 2375 4863 
z
" transform="scale(0.015625)"/>
       <path id="DejaVuSans-6b" d="M 581 4863 
L 1159 4863 
L 1159 1991 
L 2875 3500 
L 3609 3500 
L 1753 1863 
L 3688 0 
L 2938 0 
L 1159 1709 
L 1159 0 
L 581 0 
L 581 4863 
z
" transform="scale(0.015625)"/>
      </defs>
      <use xlink:href="#DejaVuSans-66"/>
      <use xlink:href="#DejaVuSans-6f" transform="translate(35.205078 0)"/>
      <use xlink:href="#DejaVuSans-72" transform="translate(96.386719 0)"/>
      <use xlink:href="#DejaVuSans-6b" transform="translate(137.5 0)"/>
     </g>
    </g>
   </g>
  </g>
 </g>
 <defs>
  <clipPath id="p5a6ae2f2a0">
   <rect x="108" y="43.2" width="669.6" height="277.2"/>
  </clipPath>
 </defs>
</svg>
