<?xml version="1.0" encoding="utf-8" standalone="no"?>
<!DOCTYPE svg PUBLIC "-//W3C//DTD SVG 1.1//EN"
  "http://www.w3.org/Graphics/SVG/1.1/DTD/svg11.dtd">
<svg xmlns:xlink="http://www.w3.org/1999/xlink" width="864pt" height="360pt" viewBox="0 0 864 360" xmlns="http://www.w3.org/2000/svg" version="1.1">
 <metadata>
  <rdf:RDF xmlns:dc="http://purl.org/dc/elements/1.1/" xmlns:cc="http://creativecommons.org/ns#" xmlns:rdf="http://www.w3.org/1999/02/22-rdf-syntax-ns#">
   <cc:Work>
    <dc:type rdf:resource="http://purl.org/dc/dcmitype/StillImage"/>
    <dc:date>2025-10-27T08:17:27.024212</dc:date>
    <dc:format>image/svg+xml</dc:format>
    <dc:creator>
     <cc:Agent>
      <dc:title>Matplotlib v3.10.7, https://matplotlib.org/</dc:title>
     </cc:Agent>
    </dc:creator>
   </cc:Work>
  </rdf:RDF>
 </metadata>
 <defs>
  <style type="text/css">*{stroke-linejoin: round; stroke-linecap: butt}</style>
 </defs>
 <g id="figure_1">
  <g id="patch_1">
   <path d="M 0 360 
L 864 360 
L 864 0 
L 0 0 
L 0 360 
z
" style="fill: none; opacity: 0"/>
  </g>
  <g id="axes_1">
   <g id="patch_2">
    <path d="M 108 320.4 
L 777.6 320.4 
L 777.6 43.2 
L 108 43.2 
L 108 320.4 
z
" style="fill: none; opacity: 0"/>
   </g>
   <g id="matplotlib.axis_1">
    <g id="xtick_1">
     <g id="line2d_1">
      <path d="M 129.438467 320.4 
L 129.438467 43.2 
" clip-path="url(#pbaff9f27db)" style="fill: none; stroke-dasharray: 5.12,1.28,0.8,1.28; stroke-dashoffset: 0; stroke: #b0b0b0; stroke-width: 0.8"/>
     </g>
     <g id="line2d_2">
      <defs>
       <path id="me58c3eb2e9" d="M 0 0 
L 0 3.5 
" style="stroke: #a9a9a9; stroke-width: 0.8"/>
      </defs>
      <g>
       <use xlink:href="#me58c3eb2e9" x="129.438467" y="320.4" style="fill: #a9a9a9; stroke: #a9a9a9; stroke-width: 0.8"/>
      </g>
     </g>
     <g id="text_1">
      <!-- 2021-07 -->
      <g style="fill: #a9a9a9" transform="translate(108.547061 334.998438) scale(0.1 -0.1)">
       <defs>
        <path id="DejaVuSans-32" d="M 1228 531 
L 3431 531 
L 3431 0 
L 469 0 
L 469 531 
Q 828 903 1448 1529 
Q 2069 2156 2228 2338 
Q 2531 2678 2651 2914 
Q 2772 3150 2772 3378 
Q 2772 3750 2511 3984 
Q 2250 4219 1831 4219 
Q 1534 4219 1204 4116 
Q 875 4013 500 3803 
L 500 4441 
Q 881 4594 1212 4672 
Q 1544 4750 1819 4750 
Q 2544 4750 2975 4387 
Q 3406 4025 3406 3419 
Q 3406 3131 3298 2873 
Q 3191 2616 2906 2266 
Q 2828 2175 2409 1742 
Q 1991 1309 1228 531 
z
" transform="scale(0.015625)"/>
        <path id="DejaVuSans-30" d="M 2034 4250 
Q 1547 4250 1301 3770 
Q 1056 3291 1056 2328 
Q 1056 1369 1301 889 
Q 1547 409 2034 409 
Q 2525 409 2770 889 
Q 3016 1369 3016 2328 
Q 3016 3291 2770 3770 
Q 2525 4250 2034 4250 
z
M 2034 4750 
Q 2819 4750 3233 4129 
Q 3647 3509 3647 2328 
Q 3647 1150 3233 529 
Q 2819 -91 2034 -91 
Q 1250 -91 836 529 
Q 422 1150 422 2328 
Q 422 3509 836 4129 
Q 1250 4750 2034 4750 
z
" transform="scale(0.015625)"/>
        <path id="DejaVuSans-31" d="M 794 531 
L 1825 531 
L 1825 4091 
L 703 3866 
L 703 4441 
L 1819 4666 
L 2450 4666 
L 2450 531 
L 3481 531 
L 3481 0 
L 794 0 
L 794 531 
z
" transform="scale(0.015625)"/>
        <path id="DejaVuSans-2d" d="M 313 2009 
L 1997 2009 
L 1997 1497 
L 313 1497 
L 313 2009 
z
" transform="scale(0.015625)"/>
        <path id="DejaVuSans-37" d="M 525 4666 
L 3525 4666 
L 3525 4397 
L 1831 0 
L 1172 0 
L 2766 4134 
L 525 4134 
L 525 4666 
z
" transform="scale(0.015625)"/>
       </defs>
       <use xlink:href="#DejaVuSans-32"/>
       <use xlink:href="#DejaVuSans-30" transform="translate(63.623047 0)"/>
       <use xlink:href="#DejaVuSans-32" transform="translate(127.246094 0)"/>
       <use xlink:href="#DejaVuSans-31" transform="translate(190.869141 0)"/>
       <use xlink:href="#DejaVuSans-2d" transform="translate(254.492188 0)"/>
       <use xlink:href="#DejaVuSans-30" transform="translate(290.576172 0)"/>
       <use xlink:href="#DejaVuSans-37" transform="translate(354.199219 0)"/>
      </g>
     </g>
    </g>
    <g id="xtick_2">
     <g id="line2d_3">
      <path d="M 201.421641 320.4 
L 201.421641 43.2 
" clip-path="url(#pbaff9f27db)" style="fill: none; stroke-dasharray: 5.12,1.28,0.8,1.28; stroke-dashoffset: 0; stroke: #b0b0b0; stroke-width: 0.8"/>
     </g>
     <g id="line2d_4">
      <g>
       <use xlink:href="#me58c3eb2e9" x="201.421641" y="320.4" style="fill: #a9a9a9; stroke: #a9a9a9; stroke-width: 0.8"/>
      </g>
     </g>
     <g id="text_2">
      <!-- 2022-01 -->
      <g style="fill: #a9a9a9" transform="translate(180.530234 334.998438) scale(0.1 -0.1)">
       <use xlink:href="#DejaVuSans-32"/>
       <use xlink:href="#DejaVuSans-30" transform="translate(63.623047 0)"/>
       <use xlink:href="#DejaVuSans-32" transform="translate(127.246094 0)"/>
       <use xlink:href="#DejaVuSans-32" transform="translate(190.869141 0)"/>
       <use xlink:href="#DejaVuSans-2d" transform="translate(254.492188 0)"/>
       <use xlink:href="#DejaVuSans-30" transform="translate(290.576172 0)"/>
       <use xlink:href="#DejaVuSans-31" transform="translate(354.199219 0)"/>
      </g>
     </g>
    </g>
    <g id="xtick_3">
     <g id="line2d_5">
      <path d="M 272.231176 320.4 
L 272.231176 43.2 
" clip-path="url(#pbaff9f27db)" style="fill: none; stroke-dasharray: 5.12,1.28,0.8,1.28; stroke-dashoffset: 0; stroke: #b0b0b0; stroke-width: 0.8"/>
     </g>
     <g id="line2d_6">
      <g>
       <use xlink:href="#me58c3eb2e9" x="272.231176" y="320.4" style="fill: #a9a9a9; stroke: #a9a9a9; stroke-width: 0.8"/>
      </g>
     </g>
     <g id="text_3">
      <!-- 2022-07 -->
      <g style="fill: #a9a9a9" transform="translate(251.339769 334.998438) scale(0.1 -0.1)">
       <use xlink:href="#DejaVuSans-32"/>
       <use xlink:href="#DejaVuSans-30" transform="translate(63.623047 0)"/>
       <use xlink:href="#DejaVuSans-32" transform="translate(127.246094 0)"/>
       <use xlink:href="#DejaVuSans-32" transform="translate(190.869141 0)"/>
       <use xlink:href="#DejaVuSans-2d" transform="translate(254.492188 0)"/>
       <use xlink:href="#DejaVuSans-30" transform="translate(290.576172 0)"/>
       <use xlink:href="#DejaVuSans-37" transform="translate(354.199219 0)"/>
      </g>
     </g>
    </g>
    <g id="xtick_4">
     <g id="line2d_7">
      <path d="M 344.214349 320.4 
L 344.214349 43.2 
" clip-path="url(#pbaff9f27db)" style="fill: none; stroke-dasharray: 5.12,1.28,0.8,1.28; stroke-dashoffset: 0; stroke: #b0b0b0; stroke-width: 0.8"/>
     </g>
     <g id="line2d_8">
      <g>
       <use xlink:href="#me58c3eb2e9" x="344.214349" y="320.4" style="fill: #a9a9a9; stroke: #a9a9a9; stroke-width: 0.8"/>
      </g>
     </g>
     <g id="text_4">
      <!-- 2023-01 -->
      <g style="fill: #a9a9a9" transform="translate(323.322943 334.998438) scale(0.1 -0.1)">
       <defs>
        <path id="DejaVuSans-33" d="M 2597 2516 
Q 3050 2419 3304 2112 
Q 3559 1806 3559 1356 
Q 3559 666 3084 287 
Q 2609 -91 1734 -91 
Q 1441 -91 1130 -33 
Q 819 25 488 141 
L 488 750 
Q 750 597 1062 519 
Q 1375 441 1716 441 
Q 2309 441 2620 675 
Q 2931 909 2931 1356 
Q 2931 1769 2642 2001 
Q 2353 2234 1838 2234 
L 1294 2234 
L 1294 2753 
L 1863 2753 
Q 2328 2753 2575 2939 
Q 2822 3125 2822 3475 
Q 2822 3834 2567 4026 
Q 2313 4219 1838 4219 
Q 1578 4219 1281 4162 
Q 984 4106 628 3988 
L 628 4550 
Q 988 4650 1302 4700 
Q 1616 4750 1894 4750 
Q 2613 4750 3031 4423 
Q 3450 4097 3450 3541 
Q 3450 3153 3228 2886 
Q 3006 2619 2597 2516 
z
" transform="scale(0.015625)"/>
       </defs>
       <use xlink:href="#DejaVuSans-32"/>
       <use xlink:href="#DejaVuSans-30" transform="translate(63.623047 0)"/>
       <use xlink:href="#DejaVuSans-32" transform="translate(127.246094 0)"/>
       <use xlink:href="#DejaVuSans-33" transform="translate(190.869141 0)"/>
       <use xlink:href="#DejaVuSans-2d" transform="translate(254.492188 0)"/>
       <use xlink:href="#DejaVuSans-30" transform="translate(290.576172 0)"/>
       <use xlink:href="#DejaVuSans-31" transform="translate(354.199219 0)"/>
      </g>
     </g>
    </g>
    <g id="xtick_5">
     <g id="line2d_9">
      <path d="M 415.023884 320.4 
L 415.023884 43.2 
" clip-path="url(#pbaff9f27db)" style="fill: none; stroke-dasharray: 5.12,1.28,0.8,1.28; stroke-dashoffset: 0; stroke: #b0b0b0; stroke-width: 0.8"/>
     </g>
     <g id="line2d_10">
      <g>
       <use xlink:href="#me58c3eb2e9" x="415.023884" y="320.4" style="fill: #a9a9a9; stroke: #a9a9a9; stroke-width: 0.8"/>
      </g>
     </g>
     <g id="text_5">
      <!-- 2023-07 -->
      <g style="fill: #a9a9a9" transform="translate(394.132478 334.998438) scale(0.1 -0.1)">
       <use xlink:href="#DejaVuSans-32"/>
       <use xlink:href="#DejaVuSans-30" transform="translate(63.623047 0)"/>
       <use xlink:href="#DejaVuSans-32" transform="translate(127.246094 0)"/>
       <use xlink:href="#DejaVuSans-33" transform="translate(190.869141 0)"/>
       <use xlink:href="#DejaVuSans-2d" transform="translate(254.492188 0)"/>
       <use xlink:href="#DejaVuSans-30" transform="translate(290.576172 0)"/>
       <use xlink:href="#DejaVuSans-37" transform="translate(354.199219 0)"/>
      </g>
     </g>
    </g>
    <g id="xtick_6">
     <g id="line2d_11">
      <path d="M 487.007058 320.4 
L 487.007058 43.2 
" clip-path="url(#pbaff9f27db)" style="fill: none; stroke-dasharray: 5.12,1.28,0.8,1.28; stroke-dashoffset: 0; stroke: #b0b0b0; stroke-width: 0.8"/>
     </g>
     <g id="line2d_12">
      <g>
       <use xlink:href="#me58c3eb2e9" x="487.007058" y="320.4" style="fill: #a9a9a9; stroke: #a9a9a9; stroke-width: 0.8"/>
      </g>
     </g>
     <g id="text_6">
      <!-- 2024-01 -->
      <g style="fill: #a9a9a9" transform="translate(466.115651 334.998438) scale(0.1 -0.1)">
       <defs>
        <path id="DejaVuSans-34" d="M 2419 4116 
L 825 1625 
L 2419 1625 
L 2419 4116 
z
M 2253 4666 
L 3047 4666 
L 3047 1625 
L 3713 1625 
L 3713 1100 
L 3047 1100 
L 3047 0 
L 2419 0 
L 2419 1100 
L 313 1100 
L 313 1709 
L 2253 4666 
z
" transform="scale(0.015625)"/>
       </defs>
       <use xlink:href="#DejaVuSans-32"/>
       <use xlink:href="#DejaVuSans-30" transform="translate(63.623047 0)"/>
       <use xlink:href="#DejaVuSans-32" transform="translate(127.246094 0)"/>
       <use xlink:href="#DejaVuSans-34" transform="translate(190.869141 0)"/>
       <use xlink:href="#DejaVuSans-2d" transform="translate(254.492188 0)"/>
       <use xlink:href="#DejaVuSans-30" transform="translate(290.576172 0)"/>
       <use xlink:href="#DejaVuSans-31" transform="translate(354.199219 0)"/>
      </g>
     </g>
    </g>
    <g id="xtick_7">
     <g id="line2d_13">
      <path d="M 558.207806 320.4 
L 558.207806 43.2 
" clip-path="url(#pbaff9f27db)" style="fill: none; stroke-dasharray: 5.12,1.28,0.8,1.28; stroke-dashoffset: 0; stroke: #b0b0b0; stroke-width: 0.8"/>
     </g>
     <g id="line2d_14">
      <g>
       <use xlink:href="#me58c3eb2e9" x="558.207806" y="320.4" style="fill: #a9a9a9; stroke: #a9a9a9; stroke-width: 0.8"/>
      </g>
     </g>
     <g id="text_7">
      <!-- 2024-07 -->
      <g style="fill: #a9a9a9" transform="translate(537.316399 334.998438) scale(0.1 -0.1)">
       <use xlink:href="#DejaVuSans-32"/>
       <use xlink:href="#DejaVuSans-30" transform="translate(63.623047 0)"/>
       <use xlink:href="#DejaVuSans-32" transform="translate(127.246094 0)"/>
       <use xlink:href="#DejaVuSans-34" transform="translate(190.869141 0)"/>
       <use xlink:href="#DejaVuSans-2d" transform="translate(254.492188 0)"/>
       <use xlink:href="#DejaVuSans-30" transform="translate(290.576172 0)"/>
       <use xlink:href="#DejaVuSans-37" transform="translate(354.199219 0)"/>
      </g>
     </g>
    </g>
    <g id="xtick_8">
     <g id="line2d_15">
      <path d="M 630.190979 320.4 
L 630.190979 43.2 
" clip-path="url(#pbaff9f27db)" style="fill: none; stroke-dasharray: 5.12,1.28,0.8,1.28; stroke-dashoffset: 0; stroke: #b0b0b0; stroke-width: 0.8"/>
     </g>
     <g id="line2d_16">
      <g>
       <use xlink:href="#me58c3eb2e9" x="630.190979" y="320.4" style="fill: #a9a9a9; stroke: #a9a9a9; stroke-width: 0.8"/>
      </g>
     </g>
     <g id="text_8">
      <!-- 2025-01 -->
      <g style="fill: #a9a9a9" transform="translate(609.299573 334.998438) scale(0.1 -0.1)">
       <defs>
        <path id="DejaVuSans-35" d="M 691 4666 
L 3169 4666 
L 3169 4134 
L 1269 4134 
L 1269 2991 
Q 1406 3038 1543 3061 
Q 1681 3084 1819 3084 
Q 2600 3084 3056 2656 
Q 3513 2228 3513 1497 
Q 3513 744 3044 326 
Q 2575 -91 1722 -91 
Q 1428 -91 1123 -41 
Q 819 9 494 109 
L 494 744 
Q 775 591 1075 516 
Q 1375 441 1709 441 
Q 2250 441 2565 725 
Q 2881 1009 2881 1497 
Q 2881 1984 2565 2268 
Q 2250 2553 1709 2553 
Q 1456 2553 1204 2497 
Q 953 2441 691 2322 
L 691 4666 
z
" transform="scale(0.015625)"/>
       </defs>
       <use xlink:href="#DejaVuSans-32"/>
       <use xlink:href="#DejaVuSans-30" transform="translate(63.623047 0)"/>
       <use xlink:href="#DejaVuSans-32" transform="translate(127.246094 0)"/>
       <use xlink:href="#DejaVuSans-35" transform="translate(190.869141 0)"/>
       <use xlink:href="#DejaVuSans-2d" transform="translate(254.492188 0)"/>
       <use xlink:href="#DejaVuSans-30" transform="translate(290.576172 0)"/>
       <use xlink:href="#DejaVuSans-31" transform="translate(354.199219 0)"/>
      </g>
     </g>
    </g>
    <g id="xtick_9">
     <g id="line2d_17">
      <path d="M 701.000514 320.4 
L 701.000514 43.2 
" clip-path="url(#pbaff9f27db)" style="fill: none; stroke-dasharray: 5.12,1.28,0.8,1.28; stroke-dashoffset: 0; stroke: #b0b0b0; stroke-width: 0.8"/>
     </g>
     <g id="line2d_18">
      <g>
       <use xlink:href="#me58c3eb2e9" x="701.000514" y="320.4" style="fill: #a9a9a9; stroke: #a9a9a9; stroke-width: 0.8"/>
      </g>
     </g>
     <g id="text_9">
      <!-- 2025-07 -->
      <g style="fill: #a9a9a9" transform="translate(680.109108 334.998438) scale(0.1 -0.1)">
       <use xlink:href="#DejaVuSans-32"/>
       <use xlink:href="#DejaVuSans-30" transform="translate(63.623047 0)"/>
       <use xlink:href="#DejaVuSans-32" transform="translate(127.246094 0)"/>
       <use xlink:href="#DejaVuSans-35" transform="translate(190.869141 0)"/>
       <use xlink:href="#DejaVuSans-2d" transform="translate(254.492188 0)"/>
       <use xlink:href="#DejaVuSans-30" transform="translate(290.576172 0)"/>
       <use xlink:href="#DejaVuSans-37" transform="translate(354.199219 0)"/>
      </g>
     </g>
    </g>
    <g id="xtick_10">
     <g id="line2d_19">
      <path d="M 772.983688 320.4 
L 772.983688 43.2 
" clip-path="url(#pbaff9f27db)" style="fill: none; stroke-dasharray: 5.12,1.28,0.8,1.28; stroke-dashoffset: 0; stroke: #b0b0b0; stroke-width: 0.8"/>
     </g>
     <g id="line2d_20">
      <g>
       <use xlink:href="#me58c3eb2e9" x="772.983688" y="320.4" style="fill: #a9a9a9; stroke: #a9a9a9; stroke-width: 0.8"/>
      </g>
     </g>
     <g id="text_10">
      <!-- 2026-01 -->
      <g style="fill: #a9a9a9" transform="translate(752.092282 334.998438) scale(0.1 -0.1)">
       <defs>
        <path id="DejaVuSans-36" d="M 2113 2584 
Q 1688 2584 1439 2293 
Q 1191 2003 1191 1497 
Q 1191 994 1439 701 
Q 1688 409 2113 409 
Q 2538 409 2786 701 
Q 3034 994 3034 1497 
Q 3034 2003 2786 2293 
Q 2538 2584 2113 2584 
z
M 3366 4563 
L 3366 3988 
Q 3128 4100 2886 4159 
Q 2644 4219 2406 4219 
Q 1781 4219 1451 3797 
Q 1122 3375 1075 2522 
Q 1259 2794 1537 2939 
Q 1816 3084 2150 3084 
Q 2853 3084 3261 2657 
Q 3669 2231 3669 1497 
Q 3669 778 3244 343 
Q 2819 -91 2113 -91 
Q 1303 -91 875 529 
Q 447 1150 447 2328 
Q 447 3434 972 4092 
Q 1497 4750 2381 4750 
Q 2619 4750 2861 4703 
Q 3103 4656 3366 4563 
z
" transform="scale(0.015625)"/>
       </defs>
       <use xlink:href="#DejaVuSans-32"/>
       <use xlink:href="#DejaVuSans-30" transform="translate(63.623047 0)"/>
       <use xlink:href="#DejaVuSans-32" transform="translate(127.246094 0)"/>
       <use xlink:href="#DejaVuSans-36" transform="translate(190.869141 0)"/>
       <use xlink:href="#DejaVuSans-2d" transform="translate(254.492188 0)"/>
       <use xlink:href="#DejaVuSans-30" transform="translate(290.576172 0)"/>
       <use xlink:href="#DejaVuSans-31" transform="translate(354.199219 0)"/>
      </g>
     </g>
    </g>
   </g>
   <g id="matplotlib.axis_2">
    <g id="ytick_1">
     <g id="line2d_21">
      <path d="M 108 307.830438 
L 777.6 307.830438 
" clip-path="url(#pbaff9f27db)" style="fill: none; stroke-dasharray: 5.12,1.28,0.8,1.28; stroke-dashoffset: 0; stroke: #b0b0b0; stroke-width: 0.8"/>
     </g>
     <g id="line2d_22">
      <defs>
       <path id="m617a35f218" d="M 0 0 
L -3.5 0 
" style="stroke: #a9a9a9; stroke-width: 0.8"/>
      </defs>
      <g>
       <use xlink:href="#m617a35f218" x="108" y="307.830438" style="fill: #a9a9a9; stroke: #a9a9a9; stroke-width: 0.8"/>
      </g>
     </g>
     <g id="text_11">
      <!-- 0 -->
      <g style="fill: #a9a9a9" transform="translate(94.6375 311.629657) scale(0.1 -0.1)">
       <use xlink:href="#DejaVuSans-30"/>
      </g>
     </g>
    </g>
    <g id="ytick_2">
     <g id="line2d_23">
      <path d="M 108 277.39198 
L 777.6 277.39198 
" clip-path="url(#pbaff9f27db)" style="fill: none; stroke-dasharray: 5.12,1.28,0.8,1.28; stroke-dashoffset: 0; stroke: #b0b0b0; stroke-width: 0.8"/>
     </g>
     <g id="line2d_24">
      <g>
       <use xlink:href="#m617a35f218" x="108" y="277.39198" style="fill: #a9a9a9; stroke: #a9a9a9; stroke-width: 0.8"/>
      </g>
     </g>
     <g id="text_12">
      <!-- 1000 -->
      <g style="fill: #a9a9a9" transform="translate(75.55 281.191198) scale(0.1 -0.1)">
       <use xlink:href="#DejaVuSans-31"/>
       <use xlink:href="#DejaVuSans-30" transform="translate(63.623047 0)"/>
       <use xlink:href="#DejaVuSans-30" transform="translate(127.246094 0)"/>
       <use xlink:href="#DejaVuSans-30" transform="translate(190.869141 0)"/>
      </g>
     </g>
    </g>
    <g id="ytick_3">
     <g id="line2d_25">
      <path d="M 108 246.953521 
L 777.6 246.953521 
" clip-path="url(#pbaff9f27db)" style="fill: none; stroke-dasharray: 5.12,1.28,0.8,1.28; stroke-dashoffset: 0; stroke: #b0b0b0; stroke-width: 0.8"/>
     </g>
     <g id="line2d_26">
      <g>
       <use xlink:href="#m617a35f218" x="108" y="246.953521" style="fill: #a9a9a9; stroke: #a9a9a9; stroke-width: 0.8"/>
      </g>
     </g>
     <g id="text_13">
      <!-- 2000 -->
      <g style="fill: #a9a9a9" transform="translate(75.55 250.75274) scale(0.1 -0.1)">
       <use xlink:href="#DejaVuSans-32"/>
       <use xlink:href="#DejaVuSans-30" transform="translate(63.623047 0)"/>
       <use xlink:href="#DejaVuSans-30" transform="translate(127.246094 0)"/>
       <use xlink:href="#DejaVuSans-30" transform="translate(190.869141 0)"/>
      </g>
     </g>
    </g>
    <g id="ytick_4">
     <g id="line2d_27">
      <path d="M 108 216.515062 
L 777.6 216.515062 
" clip-path="url(#pbaff9f27db)" style="fill: none; stroke-dasharray: 5.12,1.28,0.8,1.28; stroke-dashoffset: 0; stroke: #b0b0b0; stroke-width: 0.8"/>
     </g>
     <g id="line2d_28">
      <g>
       <use xlink:href="#m617a35f218" x="108" y="216.515062" style="fill: #a9a9a9; stroke: #a9a9a9; stroke-width: 0.8"/>
      </g>
     </g>
     <g id="text_14">
      <!-- 3000 -->
      <g style="fill: #a9a9a9" transform="translate(75.55 220.314281) scale(0.1 -0.1)">
       <use xlink:href="#DejaVuSans-33"/>
       <use xlink:href="#DejaVuSans-30" transform="translate(63.623047 0)"/>
       <use xlink:href="#DejaVuSans-30" transform="translate(127.246094 0)"/>
       <use xlink:href="#DejaVuSans-30" transform="translate(190.869141 0)"/>
      </g>
     </g>
    </g>
    <g id="ytick_5">
     <g id="line2d_29">
      <path d="M 108 186.076603 
L 777.6 186.076603 
" clip-path="url(#pbaff9f27db)" style="fill: none; stroke-dasharray: 5.12,1.28,0.8,1.28; stroke-dashoffset: 0; stroke: #b0b0b0; stroke-width: 0.8"/>
     </g>
     <g id="line2d_30">
      <g>
       <use xlink:href="#m617a35f218" x="108" y="186.076603" style="fill: #a9a9a9; stroke: #a9a9a9; stroke-width: 0.8"/>
      </g>
     </g>
     <g id="text_15">
      <!-- 4000 -->
      <g style="fill: #a9a9a9" transform="translate(75.55 189.875822) scale(0.1 -0.1)">
       <use xlink:href="#DejaVuSans-34"/>
       <use xlink:href="#DejaVuSans-30" transform="translate(63.623047 0)"/>
       <use xlink:href="#DejaVuSans-30" transform="translate(127.246094 0)"/>
       <use xlink:href="#DejaVuSans-30" transform="translate(190.869141 0)"/>
      </g>
     </g>
    </g>
    <g id="ytick_6">
     <g id="line2d_31">
      <path d="M 108 155.638145 
L 777.6 155.638145 
" clip-path="url(#pbaff9f27db)" style="fill: none; stroke-dasharray: 5.12,1.28,0.8,1.28; stroke-dashoffset: 0; stroke: #b0b0b0; stroke-width: 0.8"/>
     </g>
     <g id="line2d_32">
      <g>
       <use xlink:href="#m617a35f218" x="108" y="155.638145" style="fill: #a9a9a9; stroke: #a9a9a9; stroke-width: 0.8"/>
      </g>
     </g>
     <g id="text_16">
      <!-- 5000 -->
      <g style="fill: #a9a9a9" transform="translate(75.55 159.437363) scale(0.1 -0.1)">
       <use xlink:href="#DejaVuSans-35"/>
       <use xlink:href="#DejaVuSans-30" transform="translate(63.623047 0)"/>
       <use xlink:href="#DejaVuSans-30" transform="translate(127.246094 0)"/>
       <use xlink:href="#DejaVuSans-30" transform="translate(190.869141 0)"/>
      </g>
     </g>
    </g>
    <g id="ytick_7">
     <g id="line2d_33">
      <path d="M 108 125.199686 
L 777.6 125.199686 
" clip-path="url(#pbaff9f27db)" style="fill: none; stroke-dasharray: 5.12,1.28,0.8,1.28; stroke-dashoffset: 0; stroke: #b0b0b0; stroke-width: 0.8"/>
     </g>
     <g id="line2d_34">
      <g>
       <use xlink:href="#m617a35f218" x="108" y="125.199686" style="fill: #a9a9a9; stroke: #a9a9a9; stroke-width: 0.8"/>
      </g>
     </g>
     <g id="text_17">
      <!-- 6000 -->
      <g style="fill: #a9a9a9" transform="translate(75.55 128.998905) scale(0.1 -0.1)">
       <use xlink:href="#DejaVuSans-36"/>
       <use xlink:href="#DejaVuSans-30" transform="translate(63.623047 0)"/>
       <use xlink:href="#DejaVuSans-30" transform="translate(127.246094 0)"/>
       <use xlink:href="#DejaVuSans-30" transform="translate(190.869141 0)"/>
      </g>
     </g>
    </g>
    <g id="ytick_8">
     <g id="line2d_35">
      <path d="M 108 94.761227 
L 777.6 94.761227 
" clip-path="url(#pbaff9f27db)" style="fill: none; stroke-dasharray: 5.12,1.28,0.8,1.28; stroke-dashoffset: 0; stroke: #b0b0b0; stroke-width: 0.8"/>
     </g>
     <g id="line2d_36">
      <g>
       <use xlink:href="#m617a35f218" x="108" y="94.761227" style="fill: #a9a9a9; stroke: #a9a9a9; stroke-width: 0.8"/>
      </g>
     </g>
     <g id="text_18">
      <!-- 7000 -->
      <g style="fill: #a9a9a9" transform="translate(75.55 98.560446) scale(0.1 -0.1)">
       <use xlink:href="#DejaVuSans-37"/>
       <use xlink:href="#DejaVuSans-30" transform="translate(63.623047 0)"/>
       <use xlink:href="#DejaVuSans-30" transform="translate(127.246094 0)"/>
       <use xlink:href="#DejaVuSans-30" transform="translate(190.869141 0)"/>
      </g>
     </g>
    </g>
    <g id="ytick_9">
     <g id="line2d_37">
      <path d="M 108 64.322768 
L 777.6 64.322768 
" clip-path="url(#pbaff9f27db)" style="fill: none; stroke-dasharray: 5.12,1.28,0.8,1.28; stroke-dashoffset: 0; stroke: #b0b0b0; stroke-width: 0.8"/>
     </g>
     <g id="line2d_38">
      <g>
       <use xlink:href="#m617a35f218" x="108" y="64.322768" style="fill: #a9a9a9; stroke: #a9a9a9; stroke-width: 0.8"/>
      </g>
     </g>
     <g id="text_19">
      <!-- 8000 -->
      <g style="fill: #a9a9a9" transform="translate(75.55 68.121987) scale(0.1 -0.1)">
       <defs>
        <path id="DejaVuSans-38" d="M 2034 2216 
Q 1584 2216 1326 1975 
Q 1069 1734 1069 1313 
Q 1069 891 1326 650 
Q 1584 409 2034 409 
Q 2484 409 2743 651 
Q 3003 894 3003 1313 
Q 3003 1734 2745 1975 
Q 2488 2216 2034 2216 
z
M 1403 2484 
Q 997 2584 770 2862 
Q 544 3141 544 3541 
Q 544 4100 942 4425 
Q 1341 4750 2034 4750 
Q 2731 4750 3128 4425 
Q 3525 4100 3525 3541 
Q 3525 3141 3298 2862 
Q 3072 2584 2669 2484 
Q 3125 2378 3379 2068 
Q 3634 1759 3634 1313 
Q 3634 634 3220 271 
Q 2806 -91 2034 -91 
Q 1263 -91 848 271 
Q 434 634 434 1313 
Q 434 1759 690 2068 
Q 947 2378 1403 2484 
z
M 1172 3481 
Q 1172 3119 1398 2916 
Q 1625 2713 2034 2713 
Q 2441 2713 2670 2916 
Q 2900 3119 2900 3481 
Q 2900 3844 2670 4047 
Q 2441 4250 2034 4250 
Q 1625 4250 1398 4047 
Q 1172 3844 1172 3481 
z
" transform="scale(0.015625)"/>
       </defs>
       <use xlink:href="#DejaVuSans-38"/>
       <use xlink:href="#DejaVuSans-30" transform="translate(63.623047 0)"/>
       <use xlink:href="#DejaVuSans-30" transform="translate(127.246094 0)"/>
       <use xlink:href="#DejaVuSans-30" transform="translate(190.869141 0)"/>
      </g>
     </g>
    </g>
   </g>
   <g id="line2d_39">
    <path d="M 138.436364 307.739123 
L 140.783641 307.526054 
L 141.174854 307.343423 
L 142.739706 307.130354 
L 144.304557 306.795531 
L 145.086983 306.673777 
L 147.043047 306.491146 
L 147.825473 306.186762 
L 148.216686 305.638869 
L 148.607899 305.364923 
L 148.999112 304.45177 
L 149.390325 304.390893 
L 150.172751 303.903877 
L 150.955176 303.325547 
L 152.520028 302.168885 
L 152.911241 302.016693 
L 153.693667 301.529677 
L 154.867305 300.951347 
L 155.258518 300.281701 
L 156.040944 299.672932 
L 156.82337 299.429424 
L 157.997009 299.246793 
L 160.344286 298.881532 
L 160.735499 298.698901 
L 163.473989 298.455393 
L 165.038841 298.059693 
L 168.168544 297.603116 
L 168.559757 297.390047 
L 168.95097 297.32917 
L 169.733396 297.055224 
L 172.471886 296.568209 
L 173.254312 296.324701 
L 176.775228 295.715932 
L 177.557654 295.533301 
L 179.122505 295.320232 
L 179.904931 295.076724 
L 180.296144 294.498394 
L 181.469783 294.011378 
L 182.643421 293.676555 
L 183.034634 293.463486 
L 183.81706 293.311294 
L 185.381912 292.824278 
L 186.164337 292.763401 
L 186.946763 292.550332 
L 188.511615 292.124194 
L 188.902828 292.093755 
L 189.685254 291.698055 
L 190.076466 291.637178 
L 190.467679 291.424109 
L 194.771021 290.663148 
L 196.335873 290.176132 
L 196.727086 289.902186 
L 198.68315 289.23254 
L 199.465576 288.654209 
L 200.639215 288.410702 
L 205.724982 286.888779 
L 206.116195 286.827902 
L 207.681047 286.188694 
L 208.07226 286.127817 
L 208.854686 285.792994 
L 209.637111 285.762556 
L 210.81075 285.397294 
L 211.201963 285.397294 
L 211.593176 285.214664 
L 212.375602 285.123348 
L 212.766815 284.971156 
L 214.331666 284.910279 
L 215.114092 284.758087 
L 215.896518 284.331948 
L 217.070157 283.90581 
L 217.852582 283.479671 
L 219.026221 282.962218 
L 220.591073 282.140379 
L 220.982286 281.683802 
L 221.764711 280.405387 
L 222.155924 280.283633 
L 222.547137 280.283633 
L 224.111989 279.400918 
L 224.503202 279.309603 
L 224.894415 278.913903 
L 225.67684 278.57908 
L 226.459266 278.213818 
L 226.850479 277.726803 
L 227.241692 277.057157 
L 227.632905 276.783211 
L 228.024118 276.052688 
L 228.415331 275.596111 
L 230.762608 274.256818 
L 232.32746 272.795772 
L 232.718673 271.85218 
L 233.109885 271.243411 
L 233.501098 270.908588 
L 233.892311 270.725957 
L 235.457163 269.356227 
L 236.630802 268.321319 
L 237.413227 267.31685 
L 238.586866 266.434135 
L 240.151718 265.429665 
L 240.542931 265.277473 
L 242.107782 264.303442 
L 242.498995 264.120812 
L 244.45506 262.233627 
L 245.237485 261.898804 
L 246.019911 261.320473 
L 246.411124 261.076966 
L 246.802337 261.016089 
L 247.975976 260.316004 
L 248.367189 259.859427 
L 250.323253 258.733204 
L 250.714466 258.581012 
L 251.888105 257.728735 
L 257.756298 255.537166 
L 258.538724 254.776205 
L 259.712363 254.167436 
L 260.494789 253.649982 
L 261.277214 253.406474 
L 261.668427 253.132528 
L 262.05964 253.010774 
L 263.233279 252.188936 
L 265.189343 251.732359 
L 266.362982 251.001836 
L 267.536621 250.72789 
L 267.927834 250.636574 
L 269.101472 249.723421 
L 270.666324 249.266844 
L 271.057537 248.932021 
L 273.404814 248.079744 
L 274.18724 247.927552 
L 274.969666 247.592729 
L 277.708156 246.527383 
L 278.490582 246.436067 
L 279.664221 246.009929 
L 281.620285 245.00546 
L 283.967563 243.635729 
L 284.749988 243.42266 
L 285.923627 242.813891 
L 286.706053 242.661698 
L 287.488479 242.174683 
L 288.270904 241.961614 
L 289.444543 241.474598 
L 291.009395 241.261529 
L 291.791821 240.835391 
L 292.183033 240.470129 
L 292.574246 239.739606 
L 294.139098 239.283029 
L 295.70395 238.552506 
L 299.224866 236.939268 
L 300.007291 236.756637 
L 301.18093 236.147868 
L 301.572143 236.086991 
L 303.528208 235.082522 
L 304.310633 234.565068 
L 305.484272 234.321561 
L 307.440337 233.804107 
L 307.831549 233.469284 
L 308.613975 233.195338 
L 310.57004 232.373499 
L 310.961253 232.069115 
L 311.352466 231.916922 
L 312.134891 231.460345 
L 313.699743 230.942892 
L 314.482169 230.425438 
L 314.873382 229.999299 
L 315.264595 229.755792 
L 315.655807 229.664476 
L 316.438233 228.99483 
L 316.829446 228.933953 
L 317.220659 228.264307 
L 317.611872 228.081677 
L 318.003085 227.746853 
L 318.394298 227.685977 
L 319.176724 227.168523 
L 319.959149 226.894577 
L 320.350362 226.590192 
L 320.741575 226.438 
L 322.69764 225.159584 
L 325.044917 224.094238 
L 325.43613 223.394154 
L 326.218556 222.785385 
L 326.609769 222.694069 
L 328.957046 221.506969 
L 329.739472 221.172146 
L 330.521898 220.593816 
L 331.695536 219.467593 
L 332.477962 218.980577 
L 332.869175 218.524 
L 334.434027 217.397778 
L 335.216452 216.575939 
L 335.998878 216.301993 
L 336.781304 215.754101 
L 337.954943 215.114893 
L 338.346156 215.054016 
L 341.867072 213.19727 
L 342.649498 212.984201 
L 344.214349 212.40587 
L 344.605562 212.071047 
L 346.170414 211.43184 
L 346.561627 211.310086 
L 347.344052 210.792632 
L 348.126478 210.457809 
L 348.908904 209.879478 
L 349.69133 208.26624 
L 350.473756 207.353086 
L 351.647394 206.713878 
L 352.42982 206.379055 
L 352.821033 206.318179 
L 353.603459 205.952917 
L 355.16831 205.405025 
L 355.950736 204.948448 
L 356.733162 204.552748 
L 357.124375 204.430994 
L 359.471652 202.969948 
L 359.862865 202.513371 
L 361.036504 201.813287 
L 361.427717 201.661094 
L 362.210143 201.174079 
L 363.774994 200.291364 
L 364.166207 200.200048 
L 364.55742 199.865225 
L 367.29591 198.952072 
L 367.687123 198.678125 
L 368.469549 198.434618 
L 371.599252 196.882256 
L 372.381678 196.456118 
L 372.772891 196.273487 
L 373.555317 195.63428 
L 374.337742 195.42121 
L 374.728955 195.055949 
L 375.120168 194.995072 
L 375.902594 194.386303 
L 377.858659 193.199203 
L 378.641084 192.955695 
L 379.032297 192.712187 
L 379.42351 192.651311 
L 380.988362 191.890349 
L 382.162 191.494649 
L 382.944426 191.372895 
L 384.509278 190.764126 
L 384.900491 190.733688 
L 386.465342 190.124918 
L 387.638981 189.272642 
L 388.030194 189.120449 
L 388.81262 188.663872 
L 389.203833 188.542119 
L 391.55111 187.172388 
L 391.942323 187.081073 
L 393.115962 186.35055 
L 394.2896 185.924411 
L 395.072026 185.650465 
L 396.636878 185.102573 
L 397.419304 184.828627 
L 398.984155 184.493804 
L 399.766581 184.250296 
L 401.722645 183.58065 
L 402.896284 183.215388 
L 403.287497 183.063196 
L 404.461136 182.880565 
L 406.808413 182.423988 
L 407.982052 182.150042 
L 408.373265 181.967412 
L 409.155691 181.815219 
L 409.938116 181.60215 
L 410.720542 181.236889 
L 411.111755 181.084696 
L 411.502968 181.084696 
L 415.80631 179.714966 
L 416.197523 179.501896 
L 416.588736 179.501896 
L 417.371161 179.197512 
L 417.762374 178.771373 
L 420.109652 177.766904 
L 421.674503 177.219012 
L 422.065716 176.975504 
L 423.239355 176.610243 
L 424.021781 176.397174 
L 424.412994 176.123227 
L 424.804207 176.031912 
L 425.195419 175.666651 
L 426.369058 175.423143 
L 427.151484 175.057881 
L 427.542697 174.570866 
L 431.846039 173.596835 
L 432.237252 173.596835 
L 433.019677 173.353328 
L 436.540594 172.440174 
L 436.931806 172.287982 
L 437.714232 172.135789 
L 439.670297 171.618336 
L 440.843935 171.253074 
L 442.8 170.613866 
L 443.582426 170.279043 
L 444.364852 169.974659 
L 444.756065 169.700713 
L 445.53849 169.457205 
L 448.276981 168.391859 
L 449.841832 168.209228 
L 452.971535 167.022128 
L 453.362748 166.717744 
L 453.753961 166.626428 
L 454.145174 166.413359 
L 454.536387 166.382921 
L 458.839729 164.769682 
L 460.795793 164.22179 
L 461.578219 163.82609 
L 462.751858 163.552144 
L 464.31671 162.212852 
L 465.881561 161.512767 
L 467.446413 160.843121 
L 467.837626 160.751806 
L 468.228839 160.47786 
L 469.011264 160.234352 
L 469.402477 159.960406 
L 471.358542 159.29076 
L 475.270671 157.251383 
L 476.053097 156.886122 
L 476.444309 156.581737 
L 477.226735 156.307791 
L 479.574013 155.151129 
L 479.965226 155.059814 
L 481.138864 154.511922 
L 482.703716 153.964029 
L 483.486142 153.629206 
L 484.268567 153.507453 
L 484.65978 153.233506 
L 486.224632 152.929122 
L 487.007058 152.594299 
L 489.354335 151.437637 
L 489.745548 151.37676 
L 490.919187 150.676676 
L 492.092825 150.250538 
L 494.831316 149.063438 
L 495.222529 148.941684 
L 495.613742 148.667738 
L 496.396167 148.576422 
L 496.78738 148.302476 
L 497.569806 148.180722 
L 498.352232 147.785022 
L 499.134658 147.541515 
L 500.699509 146.993622 
L 501.873148 146.567484 
L 503.829212 146.05003 
L 505.394064 145.380384 
L 506.17649 144.954246 
L 507.741341 144.132407 
L 508.523767 143.949777 
L 508.91498 143.706269 
L 509.306193 143.614953 
L 511.262258 142.640923 
L 514.391961 141.5147 
L 514.783174 141.392946 
L 515.565599 140.966808 
L 517.521664 140.266723 
L 519.868941 139.292692 
L 521.433793 138.531731 
L 525.345922 136.948931 
L 526.128348 136.553231 
L 526.519561 136.461916 
L 527.301986 136.157531 
L 527.693199 136.157531 
L 528.475625 135.79227 
L 530.040477 134.452977 
L 530.43169 134.331224 
L 530.822903 134.087716 
L 531.996541 133.752893 
L 532.387754 133.448508 
L 533.17018 133.174562 
L 534.343819 132.383162 
L 535.126244 132.170093 
L 535.90867 131.743955 
L 537.082309 131.470008 
L 539.038373 130.769924 
L 539.820799 130.526416 
L 540.994438 129.887209 
L 541.776864 129.491509 
L 542.55929 129.278439 
L 544.124141 128.547916 
L 544.515354 128.426163 
L 545.29778 128.060901 
L 547.253844 127.421693 
L 548.427483 126.660732 
L 548.818696 126.569417 
L 549.601122 126.173717 
L 550.383548 125.869332 
L 550.77476 125.504071 
L 551.948399 125.047494 
L 552.339612 124.986617 
L 553.904464 124.256094 
L 555.078102 123.890832 
L 556.251741 123.464694 
L 557.034167 123.221186 
L 557.816593 123.068994 
L 558.599018 122.612417 
L 558.990231 122.460225 
L 559.381444 122.15584 
L 560.555083 121.851455 
L 561.337509 121.547071 
L 562.119935 121.212248 
L 563.684786 120.57304 
L 566.423276 119.842517 
L 567.205702 119.538133 
L 568.770554 119.233748 
L 569.55298 119.081556 
L 570.726618 118.624979 
L 571.900257 118.381471 
L 574.247534 116.981302 
L 575.421173 116.250779 
L 577.768451 115.520256 
L 578.159663 115.215871 
L 581.289367 114.089649 
L 582.463005 113.724387 
L 583.245431 113.298249 
L 584.027857 113.085179 
L 584.41907 112.87211 
L 585.201496 112.719918 
L 586.766347 112.111149 
L 587.548773 111.593695 
L 588.722412 111.28931 
L 589.89605 110.49791 
L 590.287263 110.437033 
L 591.852115 109.797826 
L 593.416967 109.402126 
L 593.808179 109.341249 
L 594.199392 109.158618 
L 594.590605 109.12818 
L 595.373031 108.854234 
L 595.764244 108.823795 
L 596.937883 108.367218 
L 598.502734 107.910641 
L 599.28516 107.301872 
L 600.850012 106.419157 
L 601.241225 106.327842 
L 602.02365 106.023457 
L 605.544566 104.258026 
L 605.935779 103.892765 
L 607.891844 103.405749 
L 609.065483 102.857857 
L 609.847908 102.644788 
L 610.239121 102.462157 
L 610.630334 102.127334 
L 612.586399 101.42725 
L 617.672166 99.540065 
L 618.454592 99.387873 
L 620.410657 98.748665 
L 621.584295 98.231211 
L 624.322786 97.409373 
L 625.105211 96.952796 
L 627.843702 96.009204 
L 629.408553 95.49175 
L 630.582192 95.217804 
L 631.755831 94.852543 
L 632.147044 94.761227 
L 632.538257 94.51772 
L 633.320682 94.335089 
L 634.885534 93.878512 
L 635.276747 93.848073 
L 636.059173 93.482812 
L 638.797663 92.782727 
L 640.362515 92.204397 
L 640.753728 92.204397 
L 641.927366 91.930451 
L 642.709792 91.778258 
L 643.492218 91.565189 
L 644.665857 90.925981 
L 645.839495 90.56072 
L 648.577986 89.617128 
L 650.142837 88.825728 
L 651.316476 88.551782 
L 652.098902 88.308274 
L 652.881327 87.912574 
L 653.27254 87.577751 
L 654.054966 87.334243 
L 654.446179 87.090736 
L 655.228605 86.99942 
L 657.967095 86.20802 
L 659.140734 85.964513 
L 660.314373 85.660128 
L 661.096798 85.477497 
L 662.270437 84.868728 
L 667.356205 82.920667 
L 668.138631 82.798913 
L 668.921056 82.646721 
L 669.312269 82.646721 
L 670.485908 82.281459 
L 671.659547 81.916198 
L 675.180463 80.911728 
L 675.962889 80.698659 
L 676.354101 80.607344 
L 676.745314 80.363836 
L 677.52774 80.211644 
L 678.310166 80.120329 
L 678.701379 79.907259 
L 679.092592 79.876821 
L 679.875018 79.359367 
L 681.439869 79.024544 
L 682.222295 78.689721 
L 683.004721 78.415775 
L 683.787147 78.202706 
L 684.569572 77.867883 
L 684.960785 77.807006 
L 685.743211 77.53306 
L 686.91685 77.198237 
L 687.699276 77.13736 
L 688.872914 76.711221 
L 689.65534 76.589467 
L 692.39383 75.55456 
L 694.741108 75.15886 
L 695.523534 74.915352 
L 695.914746 74.854475 
L 696.697172 74.519652 
L 697.088385 74.458775 
L 697.479598 74.276144 
L 698.262024 73.606498 
L 702.174153 72.175891 
L 704.52143 71.536683 
L 705.303856 71.110545 
L 705.695069 71.019229 
L 706.868708 70.380022 
L 707.259921 70.288706 
L 707.651133 69.984322 
L 708.824772 69.649499 
L 715.084179 66.849161 
L 715.475391 66.788284 
L 717.822669 65.601184 
L 718.213882 65.357676 
L 719.38752 65.022853 
L 720.169946 64.718468 
L 720.952372 64.353207 
L 721.343585 64.322768 
L 723.299649 63.592245 
L 724.082075 63.440053 
L 724.864501 62.861722 
L 725.255714 62.861722 
L 726.03814 62.587776 
L 726.429353 62.526899 
L 726.820566 62.31383 
L 728.385417 61.979007 
L 729.950269 61.309361 
L 730.341482 61.309361 
L 731.51512 60.913661 
L 732.297546 60.791907 
L 733.471185 60.122261 
L 734.253611 59.726561 
L 736.209675 59.087354 
L 736.992101 58.75253 
L 738.556953 58.235077 
L 740.90423 57.595869 
L 743.251507 56.774031 
L 744.033933 56.500085 
L 744.425146 56.439208 
L 745.207572 56.1957 
L 745.989998 55.982631 
L 747.163636 55.8 
L 747.163636 55.8 
" clip-path="url(#pbaff9f27db)" style="fill: none; stroke: #1f77b4; stroke-width: 1.5; stroke-linecap: square"/>
   </g>
   <g id="line2d_40">
    <path d="M 138.827577 307.8 
L 142.348493 307.708685 
L 145.478196 307.556492 
L 147.043047 307.556492 
L 147.43426 307.434738 
L 149.390325 307.343423 
L 151.737602 307.069477 
L 154.08488 306.978162 
L 154.867305 306.886846 
L 157.605796 306.765092 
L 160.344286 306.673777 
L 162.300351 306.6129 
L 167.386118 306.521585 
L 169.342183 306.460708 
L 172.863099 306.369392 
L 174.42795 306.338954 
L 178.340079 306.247639 
L 179.904931 306.095446 
L 181.469783 306.065008 
L 183.81706 305.973692 
L 185.381912 305.943254 
L 187.337976 305.882377 
L 188.902828 305.730185 
L 192.423744 305.638869 
L 193.20617 305.577993 
L 194.771021 305.486677 
L 197.118299 305.395362 
L 198.68315 305.304046 
L 205.724982 304.84747 
L 208.463473 304.756154 
L 209.637111 304.6344 
L 211.593176 304.543085 
L 215.505305 304.330016 
L 219.417434 304.269139 
L 220.982286 304.086508 
L 222.93835 303.995193 
L 226.850479 303.599493 
L 229.197756 303.295108 
L 230.762608 303.234231 
L 233.892311 302.808093 
L 236.239589 302.747216 
L 237.413227 302.625462 
L 238.586866 302.534147 
L 249.540827 301.651431 
L 250.323253 301.499239 
L 252.67053 301.407924 
L 258.929937 301.012224 
L 261.668427 300.920908 
L 263.233279 300.738278 
L 265.189343 300.646962 
L 267.536621 300.555647 
L 269.492685 300.464331 
L 271.057537 300.433893 
L 273.013601 300.373016 
L 273.796027 300.251262 
L 279.273008 300.159947 
L 280.055434 300.068631 
L 284.749988 299.977316 
L 288.270904 299.794685 
L 291.009395 299.70337 
L 292.574246 299.520739 
L 295.312737 299.429424 
L 296.095162 299.30767 
L 298.051227 299.246793 
L 301.963356 299.185916 
L 303.528208 299.033724 
L 305.093059 299.003285 
L 306.266698 298.91197 
L 307.831549 298.759778 
L 311.743678 298.546709 
L 315.655807 298.455393 
L 319.176724 298.272762 
L 320.350362 298.242324 
L 321.132788 298.12057 
L 323.088853 298.029255 
L 323.871278 297.968378 
L 324.653704 297.907501 
L 325.43613 297.846624 
L 329.348259 297.755309 
L 337.954943 297.176978 
L 338.737369 297.116101 
L 339.911007 297.024786 
L 342.649498 296.93347 
L 344.605562 296.872593 
L 350.082543 296.781278 
L 350.864968 296.689963 
L 356.341949 296.598647 
L 360.254078 296.385578 
L 361.036504 296.35514 
L 361.81893 296.263824 
L 363.774994 296.172509 
L 365.731059 296.111632 
L 367.687123 296.020316 
L 369.643188 295.95944 
L 373.164104 295.868124 
L 375.511381 295.776809 
L 380.988362 295.685493 
L 385.291704 295.441986 
L 386.856555 295.381109 
L 388.030194 295.289793 
L 393.507175 295.198478 
L 395.854452 295.107163 
L 402.896284 295.015847 
L 404.461136 294.985409 
L 409.155691 294.924532 
L 409.938116 294.863655 
L 415.415097 294.77234 
L 416.979949 294.741901 
L 427.151484 294.650586 
L 429.498761 294.55927 
L 445.929703 294.467955 
L 447.885768 294.407078 
L 458.057303 294.346201 
L 458.839729 294.285324 
L 460.795793 294.224447 
L 461.969432 294.102694 
L 464.31671 294.011378 
L 467.0552 293.889624 
L 470.576116 293.798309 
L 472.53218 293.737432 
L 475.270671 293.646117 
L 478.400374 293.493924 
L 480.356438 293.402609 
L 481.92129 293.372171 
L 488.571909 293.280855 
L 490.919187 293.18954 
L 495.222529 293.098224 
L 497.961019 292.976471 
L 500.699509 292.915594 
L 501.481935 292.854717 
L 510.871045 292.763401 
L 514.783174 292.550332 
L 517.521664 292.459017 
L 521.825006 292.215509 
L 524.563496 292.124194 
L 526.128348 292.093755 
L 528.866838 292.00244 
L 530.822903 291.789371 
L 534.735032 291.698055 
L 535.517457 291.60674 
L 539.429586 291.515425 
L 541.385651 291.454548 
L 545.688993 291.424109 
L 546.471419 291.332794 
L 550.77476 291.241478 
L 551.557186 291.180602 
L 560.16387 291.089286 
L 562.511147 290.997971 
L 568.379341 290.906655 
L 569.944193 290.876217 
L 573.465109 290.81534 
L 574.247534 290.724025 
L 579.333302 290.632709 
L 581.289367 290.571832 
L 588.331199 290.480517 
L 589.504838 290.389202 
L 590.678476 290.297886 
L 591.852115 290.206571 
L 597.720308 290.115255 
L 600.067586 290.02394 
L 611.41276 289.932625 
L 614.933676 289.749994 
L 620.410657 289.658679 
L 621.975508 289.62824 
L 626.670063 289.536925 
L 628.626128 289.476048 
L 636.841599 289.384732 
L 639.580089 289.262979 
L 646.621921 289.171663 
L 648.186773 289.141225 
L 652.098902 289.049909 
L 654.837392 288.928156 
L 659.140734 288.83684 
L 661.879224 288.715086 
L 665.40014 288.623771 
L 666.182566 288.562894 
L 674.78925 288.471579 
L 677.136527 288.380263 
L 679.875018 288.288948 
L 681.831082 288.228071 
L 693.176256 288.136756 
L 695.523534 288.04544 
L 701.78294 287.954125 
L 704.130217 287.86281 
L 709.215985 287.771494 
L 711.563262 287.680179 
L 714.692966 287.588863 
L 717.040243 287.497548 
L 732.688759 287.406233 
L 735.818462 287.25404 
L 744.816359 287.162725 
L 746.381211 287.132287 
L 747.163636 287.132287 
L 747.163636 287.132287 
" clip-path="url(#pbaff9f27db)" style="fill: none; stroke: #ff7f0e; stroke-width: 1.5; stroke-linecap: square"/>
   </g>
   <g id="patch_3">
    <path d="M 108 320.4 
L 108 43.2 
" style="fill: none; stroke: #a9a9a9; stroke-width: 0.8; stroke-linejoin: miter; stroke-linecap: square"/>
   </g>
   <g id="patch_4">
    <path d="M 777.6 320.4 
L 777.6 43.2 
" style="fill: none"/>
   </g>
   <g id="patch_5">
    <path d="M 108 320.4 
L 777.6 320.4 
" style="fill: none; stroke: #a9a9a9; stroke-width: 0.8; stroke-linejoin: miter; stroke-linecap: square"/>
   </g>
   <g id="patch_6">
    <path d="M 108 43.2 
L 777.6 43.2 
" style="fill: none"/>
   </g>
   <g id="text_20">
    <!-- get_subscribe history -->
    <g style="fill: #a9a9a9" transform="translate(378.6075 37.2) scale(0.12 -0.12)">
     <defs>
      <path id="DejaVuSans-67" d="M 2906 1791 
Q 2906 2416 2648 2759 
Q 2391 3103 1925 3103 
Q 1463 3103 1205 2759 
Q 947 2416 947 1791 
Q 947 1169 1205 825 
Q 1463 481 1925 481 
Q 2391 481 2648 825 
Q 2906 1169 2906 1791 
z
M 3481 434 
Q 3481 -459 3084 -895 
Q 2688 -1331 1869 -1331 
Q 1566 -1331 1297 -1286 
Q 1028 -1241 775 -1147 
L 775 -588 
Q 1028 -725 1275 -790 
Q 1522 -856 1778 -856 
Q 2344 -856 2625 -561 
Q 2906 -266 2906 331 
L 2906 616 
Q 2728 306 2450 153 
Q 2172 0 1784 0 
Q 1141 0 747 490 
Q 353 981 353 1791 
Q 353 2603 747 3093 
Q 1141 3584 1784 3584 
Q 2172 3584 2450 3431 
Q 2728 3278 2906 2969 
L 2906 3500 
L 3481 3500 
L 3481 434 
z
" transform="scale(0.015625)"/>
      <path id="DejaVuSans-65" d="M 3597 1894 
L 3597 1613 
L 953 1613 
Q 991 1019 1311 708 
Q 1631 397 2203 397 
Q 2534 397 2845 478 
Q 3156 559 3463 722 
L 3463 178 
Q 3153 47 2828 -22 
Q 2503 -91 2169 -91 
Q 1331 -91 842 396 
Q 353 884 353 1716 
Q 353 2575 817 3079 
Q 1281 3584 2069 3584 
Q 2775 3584 3186 3129 
Q 3597 2675 3597 1894 
z
M 3022 2063 
Q 3016 2534 2758 2815 
Q 2500 3097 2075 3097 
Q 1594 3097 1305 2825 
Q 1016 2553 972 2059 
L 3022 2063 
z
" transform="scale(0.015625)"/>
      <path id="DejaVuSans-74" d="M 1172 4494 
L 1172 3500 
L 2356 3500 
L 2356 3053 
L 1172 3053 
L 1172 1153 
Q 1172 725 1289 603 
Q 1406 481 1766 481 
L 2356 481 
L 2356 0 
L 1766 0 
Q 1100 0 847 248 
Q 594 497 594 1153 
L 594 3053 
L 172 3053 
L 172 3500 
L 594 3500 
L 594 4494 
L 1172 4494 
z
" transform="scale(0.015625)"/>
      <path id="DejaVuSans-5f" d="M 3263 -1063 
L 3263 -1509 
L -63 -1509 
L -63 -1063 
L 3263 -1063 
z
" transform="scale(0.015625)"/>
      <path id="DejaVuSans-73" d="M 2834 3397 
L 2834 2853 
Q 2591 2978 2328 3040 
Q 2066 3103 1784 3103 
Q 1356 3103 1142 2972 
Q 928 2841 928 2578 
Q 928 2378 1081 2264 
Q 1234 2150 1697 2047 
L 1894 2003 
Q 2506 1872 2764 1633 
Q 3022 1394 3022 966 
Q 3022 478 2636 193 
Q 2250 -91 1575 -91 
Q 1294 -91 989 -36 
Q 684 19 347 128 
L 347 722 
Q 666 556 975 473 
Q 1284 391 1588 391 
Q 1994 391 2212 530 
Q 2431 669 2431 922 
Q 2431 1156 2273 1281 
Q 2116 1406 1581 1522 
L 1381 1569 
Q 847 1681 609 1914 
Q 372 2147 372 2553 
Q 372 3047 722 3315 
Q 1072 3584 1716 3584 
Q 2034 3584 2315 3537 
Q 2597 3491 2834 3397 
z
" transform="scale(0.015625)"/>
      <path id="DejaVuSans-75" d="M 544 1381 
L 544 3500 
L 1119 3500 
L 1119 1403 
Q 1119 906 1312 657 
Q 1506 409 1894 409 
Q 2359 409 2629 706 
Q 2900 1003 2900 1516 
L 2900 3500 
L 3475 3500 
L 3475 0 
L 2900 0 
L 2900 538 
Q 2691 219 2414 64 
Q 2138 -91 1772 -91 
Q 1169 -91 856 284 
Q 544 659 544 1381 
z
M 1991 3584 
L 1991 3584 
z
" transform="scale(0.015625)"/>
      <path id="DejaVuSans-62" d="M 3116 1747 
Q 3116 2381 2855 2742 
Q 2594 3103 2138 3103 
Q 1681 3103 1420 2742 
Q 1159 2381 1159 1747 
Q 1159 1113 1420 752 
Q 1681 391 2138 391 
Q 2594 391 2855 752 
Q 3116 1113 3116 1747 
z
M 1159 2969 
Q 1341 3281 1617 3432 
Q 1894 3584 2278 3584 
Q 2916 3584 3314 3078 
Q 3713 2572 3713 1747 
Q 3713 922 3314 415 
Q 2916 -91 2278 -91 
Q 1894 -91 1617 61 
Q 1341 213 1159 525 
L 1159 0 
L 581 0 
L 581 4863 
L 1159 4863 
L 1159 2969 
z
" transform="scale(0.015625)"/>
      <path id="DejaVuSans-63" d="M 3122 3366 
L 3122 2828 
Q 2878 2963 2633 3030 
Q 2388 3097 2138 3097 
Q 1578 3097 1268 2742 
Q 959 2388 959 1747 
Q 959 1106 1268 751 
Q 1578 397 2138 397 
Q 2388 397 2633 464 
Q 2878 531 3122 666 
L 3122 134 
Q 2881 22 2623 -34 
Q 2366 -91 2075 -91 
Q 1284 -91 818 406 
Q 353 903 353 1747 
Q 353 2603 823 3093 
Q 1294 3584 2113 3584 
Q 2378 3584 2631 3529 
Q 2884 3475 3122 3366 
z
" transform="scale(0.015625)"/>
      <path id="DejaVuSans-72" d="M 2631 2963 
Q 2534 3019 2420 3045 
Q 2306 3072 2169 3072 
Q 1681 3072 1420 2755 
Q 1159 2438 1159 1844 
L 1159 0 
L 581 0 
L 581 3500 
L 1159 3500 
L 1159 2956 
Q 1341 3275 1631 3429 
Q 1922 3584 2338 3584 
Q 2397 3584 2469 3576 
Q 2541 3569 2628 3553 
L 2631 2963 
z
" transform="scale(0.015625)"/>
      <path id="DejaVuSans-69" d="M 603 3500 
L 1178 3500 
L 1178 0 
L 603 0 
L 603 3500 
z
M 603 4863 
L 1178 4863 
L 1178 4134 
L 603 4134 
L 603 4863 
z
" transform="scale(0.015625)"/>
      <path id="DejaVuSans-20" transform="scale(0.015625)"/>
      <path id="DejaVuSans-68" d="M 3513 2113 
L 3513 0 
L 2938 0 
L 2938 2094 
Q 2938 2591 2744 2837 
Q 2550 3084 2163 3084 
Q 1697 3084 1428 2787 
Q 1159 2491 1159 1978 
L 1159 0 
L 581 0 
L 581 4863 
L 1159 4863 
L 1159 2956 
Q 1366 3272 1645 3428 
Q 1925 3584 2291 3584 
Q 2894 3584 3203 3211 
Q 3513 2838 3513 2113 
z
" transform="scale(0.015625)"/>
      <path id="DejaVuSans-6f" d="M 1959 3097 
Q 1497 3097 1228 2736 
Q 959 2375 959 1747 
Q 959 1119 1226 758 
Q 1494 397 1959 397 
Q 2419 397 2687 759 
Q 2956 1122 2956 1747 
Q 2956 2369 2687 2733 
Q 2419 3097 1959 3097 
z
M 1959 3584 
Q 2709 3584 3137 3096 
Q 3566 2609 3566 1747 
Q 3566 888 3137 398 
Q 2709 -91 1959 -91 
Q 1206 -91 779 398 
Q 353 888 353 1747 
Q 353 2609 779 3096 
Q 1206 3584 1959 3584 
z
" transform="scale(0.015625)"/>
      <path id="DejaVuSans-79" d="M 2059 -325 
Q 1816 -950 1584 -1140 
Q 1353 -1331 966 -1331 
L 506 -1331 
L 506 -850 
L 844 -850 
Q 1081 -850 1212 -737 
Q 1344 -625 1503 -206 
L 1606 56 
L 191 3500 
L 800 3500 
L 1894 763 
L 2988 3500 
L 3597 3500 
L 2059 -325 
z
" transform="scale(0.015625)"/>
     </defs>
     <use xlink:href="#DejaVuSans-67"/>
     <use xlink:href="#DejaVuSans-65" transform="translate(63.476562 0)"/>
     <use xlink:href="#DejaVuSans-74" transform="translate(125 0)"/>
     <use xlink:href="#DejaVuSans-5f" transform="translate(164.208984 0)"/>
     <use xlink:href="#DejaVuSans-73" transform="translate(214.208984 0)"/>
     <use xlink:href="#DejaVuSans-75" transform="translate(266.308594 0)"/>
     <use xlink:href="#DejaVuSans-62" transform="translate(329.6875 0)"/>
     <use xlink:href="#DejaVuSans-73" transform="translate(393.164062 0)"/>
     <use xlink:href="#DejaVuSans-63" transform="translate(445.263672 0)"/>
     <use xlink:href="#DejaVuSans-72" transform="translate(500.244141 0)"/>
     <use xlink:href="#DejaVuSans-69" transform="translate(541.357422 0)"/>
     <use xlink:href="#DejaVuSans-62" transform="translate(569.140625 0)"/>
     <use xlink:href="#DejaVuSans-65" transform="translate(632.617188 0)"/>
     <use xlink:href="#DejaVuSans-20" transform="translate(694.140625 0)"/>
     <use xlink:href="#DejaVuSans-68" transform="translate(725.927734 0)"/>
     <use xlink:href="#DejaVuSans-69" transform="translate(789.306641 0)"/>
     <use xlink:href="#DejaVuSans-73" transform="translate(817.089844 0)"/>
     <use xlink:href="#DejaVuSans-74" transform="translate(869.189453 0)"/>
     <use xlink:href="#DejaVuSans-6f" transform="translate(908.398438 0)"/>
     <use xlink:href="#DejaVuSans-72" transform="translate(969.580078 0)"/>
     <use xlink:href="#DejaVuSans-79" transform="translate(1010.693359 0)"/>
    </g>
   </g>
   <g id="legend_1">
    <g id="line2d_41">
     <path d="M 815.08 328.498438 
L 825.08 328.498438 
L 835.08 328.498438 
" style="fill: none; stroke: #1f77b4; stroke-width: 1.5; stroke-linecap: square"/>
    </g>
    <g id="text_21">
     <!-- star -->
     <g style="fill: #a9a9a9" transform="translate(843.08 331.998438) scale(0.1 -0.1)">
      <defs>
       <path id="DejaVuSans-61" d="M 2194 1759 
Q 1497 1759 1228 1600 
Q 959 1441 959 1056 
Q 959 750 1161 570 
Q 1363 391 1709 391 
Q 2188 391 2477 730 
Q 2766 1069 2766 1631 
L 2766 1759 
L 2194 1759 
z
M 3341 1997 
L 3341 0 
L 2766 0 
L 2766 531 
Q 2569 213 2275 61 
Q 1981 -91 1556 -91 
Q 1019 -91 701 211 
Q 384 513 384 1019 
Q 384 1609 779 1909 
Q 1175 2209 1959 2209 
L 2766 2209 
L 2766 2266 
Q 2766 2663 2505 2880 
Q 2244 3097 1772 3097 
Q 1472 3097 1187 3025 
Q 903 2953 641 2809 
L 641 3341 
Q 956 3463 1253 3523 
Q 1550 3584 1831 3584 
Q 2591 3584 2966 3190 
Q 3341 2797 3341 1997 
z
" transform="scale(0.015625)"/>
      </defs>
      <use xlink:href="#DejaVuSans-73"/>
      <use xlink:href="#DejaVuSans-74" transform="translate(52.099609 0)"/>
      <use xlink:href="#DejaVuSans-61" transform="translate(91.308594 0)"/>
      <use xlink:href="#DejaVuSans-72" transform="translate(152.587891 0)"/>
     </g>
    </g>
    <g id="line2d_42">
     <path d="M 815.08 343.176562 
L 825.08 343.176562 
L 835.08 343.176562 
" style="fill: none; stroke: #ff7f0e; stroke-width: 1.5; stroke-linecap: square"/>
    </g>
    <g id="text_22">
     <!-- fork -->
     <g style="fill: #a9a9a9" transform="translate(843.08 346.676562) scale(0.1 -0.1)">
      <defs>
       <path id="DejaVuSans-66" d="M 2375 4863 
L 2375 4384 
L 1825 4384 
Q 1516 4384 1395 4259 
Q 1275 4134 1275 3809 
L 1275 3500 
L 2222 3500 
L 2222 3053 
L 1275 3053 
L 1275 0 
L 697 0 
L 697 3053 
L 147 3053 
L 147 3500 
L 697 3500 
L 697 3744 
Q 697 4328 969 4595 
Q 1241 4863 1831 4863 
L 2375 4863 
z
" transform="scale(0.015625)"/>
       <path id="DejaVuSans-6b" d="M 581 4863 
L 1159 4863 
L 1159 1991 
L 2875 3500 
L 3609 3500 
L 1753 1863 
L 3688 0 
L 2938 0 
L 1159 1709 
L 1159 0 
L 581 0 
L 581 4863 
z
" transform="scale(0.015625)"/>
      </defs>
      <use xlink:href="#DejaVuSans-66"/>
      <use xlink:href="#DejaVuSans-6f" transform="translate(35.205078 0)"/>
      <use xlink:href="#DejaVuSans-72" transform="translate(96.386719 0)"/>
      <use xlink:href="#DejaVuSans-6b" transform="translate(137.5 0)"/>
     </g>
    </g>
   </g>
  </g>
 </g>
 <defs>
  <clipPath id="pbaff9f27db">
   <rect x="108" y="43.2" width="669.6" height="277.2"/>
  </clipPath>
 </defs>
</svg>
