<?xml version="1.0" encoding="utf-8" standalone="no"?>
<!DOCTYPE svg PUBLIC "-//W3C//DTD SVG 1.1//EN"
  "http://www.w3.org/Graphics/SVG/1.1/DTD/svg11.dtd">
<svg xmlns:xlink="http://www.w3.org/1999/xlink" width="864pt" height="360pt" viewBox="0 0 864 360" xmlns="http://www.w3.org/2000/svg" version="1.1">
 <metadata>
  <rdf:RDF xmlns:dc="http://purl.org/dc/elements/1.1/" xmlns:cc="http://creativecommons.org/ns#" xmlns:rdf="http://www.w3.org/1999/02/22-rdf-syntax-ns#">
   <cc:Work>
    <dc:type rdf:resource="http://purl.org/dc/dcmitype/StillImage"/>
    <dc:date>2026-02-28T08:19:00.697782</dc:date>
    <dc:format>image/svg+xml</dc:format>
    <dc:creator>
     <cc:Agent>
      <dc:title>Matplotlib v3.10.8, https://matplotlib.org/</dc:title>
     </cc:Agent>
    </dc:creator>
   </cc:Work>
  </rdf:RDF>
 </metadata>
 <defs>
  <style type="text/css">*{stroke-linejoin: round; stroke-linecap: butt}</style>
 </defs>
 <g id="figure_1">
  <g id="patch_1">
   <path d="M 0 360 
L 864 360 
L 864 0 
L 0 0 
L 0 360 
z
" style="fill: none; opacity: 0"/>
  </g>
  <g id="axes_1">
   <g id="patch_2">
    <path d="M 108 320.4 
L 777.6 320.4 
L 777.6 43.2 
L 108 43.2 
L 108 320.4 
z
" style="fill: none; opacity: 0"/>
   </g>
   <g id="matplotlib.axis_1">
    <g id="xtick_1">
     <g id="line2d_1">
      <path d="M 196.772727 320.4 
L 196.772727 43.2 
" clip-path="url(#p18e78d9fb1)" style="fill: none; stroke-dasharray: 5.12,1.28,0.8,1.28; stroke-dashoffset: 0; stroke: #b0b0b0; stroke-width: 0.8"/>
     </g>
     <g id="line2d_2">
      <defs>
       <path id="m8475ce7420" d="M 0 0 
L 0 3.5 
" style="stroke: #a9a9a9; stroke-width: 0.8"/>
      </defs>
      <g>
       <use xlink:href="#m8475ce7420" x="196.772727" y="320.4" style="fill: #a9a9a9; stroke: #a9a9a9; stroke-width: 0.8"/>
      </g>
     </g>
     <g id="text_1">
      <!-- 2022 -->
      <g style="fill: #a9a9a9" transform="translate(184.047727 334.998438) scale(0.1 -0.1)">
       <defs>
        <path id="DejaVuSans-32" d="M 1228 531 
L 3431 531 
L 3431 0 
L 469 0 
L 469 531 
Q 828 903 1448 1529 
Q 2069 2156 2228 2338 
Q 2531 2678 2651 2914 
Q 2772 3150 2772 3378 
Q 2772 3750 2511 3984 
Q 2250 4219 1831 4219 
Q 1534 4219 1204 4116 
Q 875 4013 500 3803 
L 500 4441 
Q 881 4594 1212 4672 
Q 1544 4750 1819 4750 
Q 2544 4750 2975 4387 
Q 3406 4025 3406 3419 
Q 3406 3131 3298 2873 
Q 3191 2616 2906 2266 
Q 2828 2175 2409 1742 
Q 1991 1309 1228 531 
z
" transform="scale(0.015625)"/>
        <path id="DejaVuSans-30" d="M 2034 4250 
Q 1547 4250 1301 3770 
Q 1056 3291 1056 2328 
Q 1056 1369 1301 889 
Q 1547 409 2034 409 
Q 2525 409 2770 889 
Q 3016 1369 3016 2328 
Q 3016 3291 2770 3770 
Q 2525 4250 2034 4250 
z
M 2034 4750 
Q 2819 4750 3233 4129 
Q 3647 3509 3647 2328 
Q 3647 1150 3233 529 
Q 2819 -91 2034 -91 
Q 1250 -91 836 529 
Q 422 1150 422 2328 
Q 422 3509 836 4129 
Q 1250 4750 2034 4750 
z
" transform="scale(0.015625)"/>
       </defs>
       <use xlink:href="#DejaVuSans-32"/>
       <use xlink:href="#DejaVuSans-30" transform="translate(63.623047 0)"/>
       <use xlink:href="#DejaVuSans-32" transform="translate(127.246094 0)"/>
       <use xlink:href="#DejaVuSans-32" transform="translate(190.869141 0)"/>
      </g>
     </g>
    </g>
    <g id="xtick_2">
     <g id="line2d_3">
      <path d="M 329.025974 320.4 
L 329.025974 43.2 
" clip-path="url(#p18e78d9fb1)" style="fill: none; stroke-dasharray: 5.12,1.28,0.8,1.28; stroke-dashoffset: 0; stroke: #b0b0b0; stroke-width: 0.8"/>
     </g>
     <g id="line2d_4">
      <g>
       <use xlink:href="#m8475ce7420" x="329.025974" y="320.4" style="fill: #a9a9a9; stroke: #a9a9a9; stroke-width: 0.8"/>
      </g>
     </g>
     <g id="text_2">
      <!-- 2023 -->
      <g style="fill: #a9a9a9" transform="translate(316.300974 334.998438) scale(0.1 -0.1)">
       <defs>
        <path id="DejaVuSans-33" d="M 2597 2516 
Q 3050 2419 3304 2112 
Q 3559 1806 3559 1356 
Q 3559 666 3084 287 
Q 2609 -91 1734 -91 
Q 1441 -91 1130 -33 
Q 819 25 488 141 
L 488 750 
Q 750 597 1062 519 
Q 1375 441 1716 441 
Q 2309 441 2620 675 
Q 2931 909 2931 1356 
Q 2931 1769 2642 2001 
Q 2353 2234 1838 2234 
L 1294 2234 
L 1294 2753 
L 1863 2753 
Q 2328 2753 2575 2939 
Q 2822 3125 2822 3475 
Q 2822 3834 2567 4026 
Q 2313 4219 1838 4219 
Q 1578 4219 1281 4162 
Q 984 4106 628 3988 
L 628 4550 
Q 988 4650 1302 4700 
Q 1616 4750 1894 4750 
Q 2613 4750 3031 4423 
Q 3450 4097 3450 3541 
Q 3450 3153 3228 2886 
Q 3006 2619 2597 2516 
z
" transform="scale(0.015625)"/>
       </defs>
       <use xlink:href="#DejaVuSans-32"/>
       <use xlink:href="#DejaVuSans-30" transform="translate(63.623047 0)"/>
       <use xlink:href="#DejaVuSans-32" transform="translate(127.246094 0)"/>
       <use xlink:href="#DejaVuSans-33" transform="translate(190.869141 0)"/>
      </g>
     </g>
    </g>
    <g id="xtick_3">
     <g id="line2d_5">
      <path d="M 461.279221 320.4 
L 461.279221 43.2 
" clip-path="url(#p18e78d9fb1)" style="fill: none; stroke-dasharray: 5.12,1.28,0.8,1.28; stroke-dashoffset: 0; stroke: #b0b0b0; stroke-width: 0.8"/>
     </g>
     <g id="line2d_6">
      <g>
       <use xlink:href="#m8475ce7420" x="461.279221" y="320.4" style="fill: #a9a9a9; stroke: #a9a9a9; stroke-width: 0.8"/>
      </g>
     </g>
     <g id="text_3">
      <!-- 2024 -->
      <g style="fill: #a9a9a9" transform="translate(448.554221 334.998438) scale(0.1 -0.1)">
       <defs>
        <path id="DejaVuSans-34" d="M 2419 4116 
L 825 1625 
L 2419 1625 
L 2419 4116 
z
M 2253 4666 
L 3047 4666 
L 3047 1625 
L 3713 1625 
L 3713 1100 
L 3047 1100 
L 3047 0 
L 2419 0 
L 2419 1100 
L 313 1100 
L 313 1709 
L 2253 4666 
z
" transform="scale(0.015625)"/>
       </defs>
       <use xlink:href="#DejaVuSans-32"/>
       <use xlink:href="#DejaVuSans-30" transform="translate(63.623047 0)"/>
       <use xlink:href="#DejaVuSans-32" transform="translate(127.246094 0)"/>
       <use xlink:href="#DejaVuSans-34" transform="translate(190.869141 0)"/>
      </g>
     </g>
    </g>
    <g id="xtick_4">
     <g id="line2d_7">
      <path d="M 593.894805 320.4 
L 593.894805 43.2 
" clip-path="url(#p18e78d9fb1)" style="fill: none; stroke-dasharray: 5.12,1.28,0.8,1.28; stroke-dashoffset: 0; stroke: #b0b0b0; stroke-width: 0.8"/>
     </g>
     <g id="line2d_8">
      <g>
       <use xlink:href="#m8475ce7420" x="593.894805" y="320.4" style="fill: #a9a9a9; stroke: #a9a9a9; stroke-width: 0.8"/>
      </g>
     </g>
     <g id="text_4">
      <!-- 2025 -->
      <g style="fill: #a9a9a9" transform="translate(581.169805 334.998438) scale(0.1 -0.1)">
       <defs>
        <path id="DejaVuSans-35" d="M 691 4666 
L 3169 4666 
L 3169 4134 
L 1269 4134 
L 1269 2991 
Q 1406 3038 1543 3061 
Q 1681 3084 1819 3084 
Q 2600 3084 3056 2656 
Q 3513 2228 3513 1497 
Q 3513 744 3044 326 
Q 2575 -91 1722 -91 
Q 1428 -91 1123 -41 
Q 819 9 494 109 
L 494 744 
Q 775 591 1075 516 
Q 1375 441 1709 441 
Q 2250 441 2565 725 
Q 2881 1009 2881 1497 
Q 2881 1984 2565 2268 
Q 2250 2553 1709 2553 
Q 1456 2553 1204 2497 
Q 953 2441 691 2322 
L 691 4666 
z
" transform="scale(0.015625)"/>
       </defs>
       <use xlink:href="#DejaVuSans-32"/>
       <use xlink:href="#DejaVuSans-30" transform="translate(63.623047 0)"/>
       <use xlink:href="#DejaVuSans-32" transform="translate(127.246094 0)"/>
       <use xlink:href="#DejaVuSans-35" transform="translate(190.869141 0)"/>
      </g>
     </g>
    </g>
    <g id="xtick_5">
     <g id="line2d_9">
      <path d="M 726.148052 320.4 
L 726.148052 43.2 
" clip-path="url(#p18e78d9fb1)" style="fill: none; stroke-dasharray: 5.12,1.28,0.8,1.28; stroke-dashoffset: 0; stroke: #b0b0b0; stroke-width: 0.8"/>
     </g>
     <g id="line2d_10">
      <g>
       <use xlink:href="#m8475ce7420" x="726.148052" y="320.4" style="fill: #a9a9a9; stroke: #a9a9a9; stroke-width: 0.8"/>
      </g>
     </g>
     <g id="text_5">
      <!-- 2026 -->
      <g style="fill: #a9a9a9" transform="translate(713.423052 334.998438) scale(0.1 -0.1)">
       <defs>
        <path id="DejaVuSans-36" d="M 2113 2584 
Q 1688 2584 1439 2293 
Q 1191 2003 1191 1497 
Q 1191 994 1439 701 
Q 1688 409 2113 409 
Q 2538 409 2786 701 
Q 3034 994 3034 1497 
Q 3034 2003 2786 2293 
Q 2538 2584 2113 2584 
z
M 3366 4563 
L 3366 3988 
Q 3128 4100 2886 4159 
Q 2644 4219 2406 4219 
Q 1781 4219 1451 3797 
Q 1122 3375 1075 2522 
Q 1259 2794 1537 2939 
Q 1816 3084 2150 3084 
Q 2853 3084 3261 2657 
Q 3669 2231 3669 1497 
Q 3669 778 3244 343 
Q 2819 -91 2113 -91 
Q 1303 -91 875 529 
Q 447 1150 447 2328 
Q 447 3434 972 4092 
Q 1497 4750 2381 4750 
Q 2619 4750 2861 4703 
Q 3103 4656 3366 4563 
z
" transform="scale(0.015625)"/>
       </defs>
       <use xlink:href="#DejaVuSans-32"/>
       <use xlink:href="#DejaVuSans-30" transform="translate(63.623047 0)"/>
       <use xlink:href="#DejaVuSans-32" transform="translate(127.246094 0)"/>
       <use xlink:href="#DejaVuSans-36" transform="translate(190.869141 0)"/>
      </g>
     </g>
    </g>
   </g>
   <g id="matplotlib.axis_2">
    <g id="ytick_1">
     <g id="line2d_11">
      <path d="M 108 307.828959 
L 777.6 307.828959 
" clip-path="url(#p18e78d9fb1)" style="fill: none; stroke-dasharray: 5.12,1.28,0.8,1.28; stroke-dashoffset: 0; stroke: #b0b0b0; stroke-width: 0.8"/>
     </g>
     <g id="line2d_12">
      <defs>
       <path id="m07ebd8918e" d="M 0 0 
L -3.5 0 
" style="stroke: #a9a9a9; stroke-width: 0.8"/>
      </defs>
      <g>
       <use xlink:href="#m07ebd8918e" x="108" y="307.828959" style="fill: #a9a9a9; stroke: #a9a9a9; stroke-width: 0.8"/>
      </g>
     </g>
     <g id="text_6">
      <!-- 0 -->
      <g style="fill: #a9a9a9" transform="translate(94.6375 311.628178) scale(0.1 -0.1)">
       <use xlink:href="#DejaVuSans-30"/>
      </g>
     </g>
    </g>
    <g id="ytick_2">
     <g id="line2d_13">
      <path d="M 108 278.870099 
L 777.6 278.870099 
" clip-path="url(#p18e78d9fb1)" style="fill: none; stroke-dasharray: 5.12,1.28,0.8,1.28; stroke-dashoffset: 0; stroke: #b0b0b0; stroke-width: 0.8"/>
     </g>
     <g id="line2d_14">
      <g>
       <use xlink:href="#m07ebd8918e" x="108" y="278.870099" style="fill: #a9a9a9; stroke: #a9a9a9; stroke-width: 0.8"/>
      </g>
     </g>
     <g id="text_7">
      <!-- 1000 -->
      <g style="fill: #a9a9a9" transform="translate(75.55 282.669318) scale(0.1 -0.1)">
       <defs>
        <path id="DejaVuSans-31" d="M 794 531 
L 1825 531 
L 1825 4091 
L 703 3866 
L 703 4441 
L 1819 4666 
L 2450 4666 
L 2450 531 
L 3481 531 
L 3481 0 
L 794 0 
L 794 531 
z
" transform="scale(0.015625)"/>
       </defs>
       <use xlink:href="#DejaVuSans-31"/>
       <use xlink:href="#DejaVuSans-30" transform="translate(63.623047 0)"/>
       <use xlink:href="#DejaVuSans-30" transform="translate(127.246094 0)"/>
       <use xlink:href="#DejaVuSans-30" transform="translate(190.869141 0)"/>
      </g>
     </g>
    </g>
    <g id="ytick_3">
     <g id="line2d_15">
      <path d="M 108 249.911239 
L 777.6 249.911239 
" clip-path="url(#p18e78d9fb1)" style="fill: none; stroke-dasharray: 5.12,1.28,0.8,1.28; stroke-dashoffset: 0; stroke: #b0b0b0; stroke-width: 0.8"/>
     </g>
     <g id="line2d_16">
      <g>
       <use xlink:href="#m07ebd8918e" x="108" y="249.911239" style="fill: #a9a9a9; stroke: #a9a9a9; stroke-width: 0.8"/>
      </g>
     </g>
     <g id="text_8">
      <!-- 2000 -->
      <g style="fill: #a9a9a9" transform="translate(75.55 253.710458) scale(0.1 -0.1)">
       <use xlink:href="#DejaVuSans-32"/>
       <use xlink:href="#DejaVuSans-30" transform="translate(63.623047 0)"/>
       <use xlink:href="#DejaVuSans-30" transform="translate(127.246094 0)"/>
       <use xlink:href="#DejaVuSans-30" transform="translate(190.869141 0)"/>
      </g>
     </g>
    </g>
    <g id="ytick_4">
     <g id="line2d_17">
      <path d="M 108 220.952379 
L 777.6 220.952379 
" clip-path="url(#p18e78d9fb1)" style="fill: none; stroke-dasharray: 5.12,1.28,0.8,1.28; stroke-dashoffset: 0; stroke: #b0b0b0; stroke-width: 0.8"/>
     </g>
     <g id="line2d_18">
      <g>
       <use xlink:href="#m07ebd8918e" x="108" y="220.952379" style="fill: #a9a9a9; stroke: #a9a9a9; stroke-width: 0.8"/>
      </g>
     </g>
     <g id="text_9">
      <!-- 3000 -->
      <g style="fill: #a9a9a9" transform="translate(75.55 224.751598) scale(0.1 -0.1)">
       <use xlink:href="#DejaVuSans-33"/>
       <use xlink:href="#DejaVuSans-30" transform="translate(63.623047 0)"/>
       <use xlink:href="#DejaVuSans-30" transform="translate(127.246094 0)"/>
       <use xlink:href="#DejaVuSans-30" transform="translate(190.869141 0)"/>
      </g>
     </g>
    </g>
    <g id="ytick_5">
     <g id="line2d_19">
      <path d="M 108 191.993519 
L 777.6 191.993519 
" clip-path="url(#p18e78d9fb1)" style="fill: none; stroke-dasharray: 5.12,1.28,0.8,1.28; stroke-dashoffset: 0; stroke: #b0b0b0; stroke-width: 0.8"/>
     </g>
     <g id="line2d_20">
      <g>
       <use xlink:href="#m07ebd8918e" x="108" y="191.993519" style="fill: #a9a9a9; stroke: #a9a9a9; stroke-width: 0.8"/>
      </g>
     </g>
     <g id="text_10">
      <!-- 4000 -->
      <g style="fill: #a9a9a9" transform="translate(75.55 195.792737) scale(0.1 -0.1)">
       <use xlink:href="#DejaVuSans-34"/>
       <use xlink:href="#DejaVuSans-30" transform="translate(63.623047 0)"/>
       <use xlink:href="#DejaVuSans-30" transform="translate(127.246094 0)"/>
       <use xlink:href="#DejaVuSans-30" transform="translate(190.869141 0)"/>
      </g>
     </g>
    </g>
    <g id="ytick_6">
     <g id="line2d_21">
      <path d="M 108 163.034659 
L 777.6 163.034659 
" clip-path="url(#p18e78d9fb1)" style="fill: none; stroke-dasharray: 5.12,1.28,0.8,1.28; stroke-dashoffset: 0; stroke: #b0b0b0; stroke-width: 0.8"/>
     </g>
     <g id="line2d_22">
      <g>
       <use xlink:href="#m07ebd8918e" x="108" y="163.034659" style="fill: #a9a9a9; stroke: #a9a9a9; stroke-width: 0.8"/>
      </g>
     </g>
     <g id="text_11">
      <!-- 5000 -->
      <g style="fill: #a9a9a9" transform="translate(75.55 166.833877) scale(0.1 -0.1)">
       <use xlink:href="#DejaVuSans-35"/>
       <use xlink:href="#DejaVuSans-30" transform="translate(63.623047 0)"/>
       <use xlink:href="#DejaVuSans-30" transform="translate(127.246094 0)"/>
       <use xlink:href="#DejaVuSans-30" transform="translate(190.869141 0)"/>
      </g>
     </g>
    </g>
    <g id="ytick_7">
     <g id="line2d_23">
      <path d="M 108 134.075799 
L 777.6 134.075799 
" clip-path="url(#p18e78d9fb1)" style="fill: none; stroke-dasharray: 5.12,1.28,0.8,1.28; stroke-dashoffset: 0; stroke: #b0b0b0; stroke-width: 0.8"/>
     </g>
     <g id="line2d_24">
      <g>
       <use xlink:href="#m07ebd8918e" x="108" y="134.075799" style="fill: #a9a9a9; stroke: #a9a9a9; stroke-width: 0.8"/>
      </g>
     </g>
     <g id="text_12">
      <!-- 6000 -->
      <g style="fill: #a9a9a9" transform="translate(75.55 137.875017) scale(0.1 -0.1)">
       <use xlink:href="#DejaVuSans-36"/>
       <use xlink:href="#DejaVuSans-30" transform="translate(63.623047 0)"/>
       <use xlink:href="#DejaVuSans-30" transform="translate(127.246094 0)"/>
       <use xlink:href="#DejaVuSans-30" transform="translate(190.869141 0)"/>
      </g>
     </g>
    </g>
    <g id="ytick_8">
     <g id="line2d_25">
      <path d="M 108 105.116939 
L 777.6 105.116939 
" clip-path="url(#p18e78d9fb1)" style="fill: none; stroke-dasharray: 5.12,1.28,0.8,1.28; stroke-dashoffset: 0; stroke: #b0b0b0; stroke-width: 0.8"/>
     </g>
     <g id="line2d_26">
      <g>
       <use xlink:href="#m07ebd8918e" x="108" y="105.116939" style="fill: #a9a9a9; stroke: #a9a9a9; stroke-width: 0.8"/>
      </g>
     </g>
     <g id="text_13">
      <!-- 7000 -->
      <g style="fill: #a9a9a9" transform="translate(75.55 108.916157) scale(0.1 -0.1)">
       <defs>
        <path id="DejaVuSans-37" d="M 525 4666 
L 3525 4666 
L 3525 4397 
L 1831 0 
L 1172 0 
L 2766 4134 
L 525 4134 
L 525 4666 
z
" transform="scale(0.015625)"/>
       </defs>
       <use xlink:href="#DejaVuSans-37"/>
       <use xlink:href="#DejaVuSans-30" transform="translate(63.623047 0)"/>
       <use xlink:href="#DejaVuSans-30" transform="translate(127.246094 0)"/>
       <use xlink:href="#DejaVuSans-30" transform="translate(190.869141 0)"/>
      </g>
     </g>
    </g>
    <g id="ytick_9">
     <g id="line2d_27">
      <path d="M 108 76.158079 
L 777.6 76.158079 
" clip-path="url(#p18e78d9fb1)" style="fill: none; stroke-dasharray: 5.12,1.28,0.8,1.28; stroke-dashoffset: 0; stroke: #b0b0b0; stroke-width: 0.8"/>
     </g>
     <g id="line2d_28">
      <g>
       <use xlink:href="#m07ebd8918e" x="108" y="76.158079" style="fill: #a9a9a9; stroke: #a9a9a9; stroke-width: 0.8"/>
      </g>
     </g>
     <g id="text_14">
      <!-- 8000 -->
      <g style="fill: #a9a9a9" transform="translate(75.55 79.957297) scale(0.1 -0.1)">
       <defs>
        <path id="DejaVuSans-38" d="M 2034 2216 
Q 1584 2216 1326 1975 
Q 1069 1734 1069 1313 
Q 1069 891 1326 650 
Q 1584 409 2034 409 
Q 2484 409 2743 651 
Q 3003 894 3003 1313 
Q 3003 1734 2745 1975 
Q 2488 2216 2034 2216 
z
M 1403 2484 
Q 997 2584 770 2862 
Q 544 3141 544 3541 
Q 544 4100 942 4425 
Q 1341 4750 2034 4750 
Q 2731 4750 3128 4425 
Q 3525 4100 3525 3541 
Q 3525 3141 3298 2862 
Q 3072 2584 2669 2484 
Q 3125 2378 3379 2068 
Q 3634 1759 3634 1313 
Q 3634 634 3220 271 
Q 2806 -91 2034 -91 
Q 1263 -91 848 271 
Q 434 634 434 1313 
Q 434 1759 690 2068 
Q 947 2378 1403 2484 
z
M 1172 3481 
Q 1172 3119 1398 2916 
Q 1625 2713 2034 2713 
Q 2441 2713 2670 2916 
Q 2900 3119 2900 3481 
Q 2900 3844 2670 4047 
Q 2441 4250 2034 4250 
Q 1625 4250 1398 4047 
Q 1172 3844 1172 3481 
z
" transform="scale(0.015625)"/>
       </defs>
       <use xlink:href="#DejaVuSans-38"/>
       <use xlink:href="#DejaVuSans-30" transform="translate(63.623047 0)"/>
       <use xlink:href="#DejaVuSans-30" transform="translate(127.246094 0)"/>
       <use xlink:href="#DejaVuSans-30" transform="translate(190.869141 0)"/>
      </g>
     </g>
    </g>
    <g id="ytick_10">
     <g id="line2d_29">
      <path d="M 108 47.199219 
L 777.6 47.199219 
" clip-path="url(#p18e78d9fb1)" style="fill: none; stroke-dasharray: 5.12,1.28,0.8,1.28; stroke-dashoffset: 0; stroke: #b0b0b0; stroke-width: 0.8"/>
     </g>
     <g id="line2d_30">
      <g>
       <use xlink:href="#m07ebd8918e" x="108" y="47.199219" style="fill: #a9a9a9; stroke: #a9a9a9; stroke-width: 0.8"/>
      </g>
     </g>
     <g id="text_15">
      <!-- 9000 -->
      <g style="fill: #a9a9a9" transform="translate(75.55 50.998437) scale(0.1 -0.1)">
       <defs>
        <path id="DejaVuSans-39" d="M 703 97 
L 703 672 
Q 941 559 1184 500 
Q 1428 441 1663 441 
Q 2288 441 2617 861 
Q 2947 1281 2994 2138 
Q 2813 1869 2534 1725 
Q 2256 1581 1919 1581 
Q 1219 1581 811 2004 
Q 403 2428 403 3163 
Q 403 3881 828 4315 
Q 1253 4750 1959 4750 
Q 2769 4750 3195 4129 
Q 3622 3509 3622 2328 
Q 3622 1225 3098 567 
Q 2575 -91 1691 -91 
Q 1453 -91 1209 -44 
Q 966 3 703 97 
z
M 1959 2075 
Q 2384 2075 2632 2365 
Q 2881 2656 2881 3163 
Q 2881 3666 2632 3958 
Q 2384 4250 1959 4250 
Q 1534 4250 1286 3958 
Q 1038 3666 1038 3163 
Q 1038 2656 1286 2365 
Q 1534 2075 1959 2075 
z
" transform="scale(0.015625)"/>
       </defs>
       <use xlink:href="#DejaVuSans-39"/>
       <use xlink:href="#DejaVuSans-30" transform="translate(63.623047 0)"/>
       <use xlink:href="#DejaVuSans-30" transform="translate(127.246094 0)"/>
       <use xlink:href="#DejaVuSans-30" transform="translate(190.869141 0)"/>
      </g>
     </g>
    </g>
   </g>
   <g id="line2d_31">
    <path d="M 138.436364 307.742082 
L 140.61039 307.53937 
L 140.972727 307.365617 
L 142.422078 307.162905 
L 143.871429 306.844358 
L 144.596104 306.728522 
L 146.407792 306.554769 
L 147.132468 306.26518 
L 147.494805 305.743921 
L 147.857143 305.483291 
L 148.219481 304.614525 
L 148.581818 304.556608 
L 149.306494 304.093266 
L 150.031169 303.543048 
L 151.480519 302.442611 
L 151.842857 302.297817 
L 152.567532 301.834475 
L 153.654545 301.284256 
L 154.016883 300.647162 
L 154.741558 300.067984 
L 155.466234 299.836313 
L 156.553247 299.66256 
L 158.727273 299.315054 
L 159.08961 299.141301 
L 161.625974 298.90963 
L 163.075325 298.533165 
L 165.974026 298.098782 
L 166.336364 297.89607 
L 166.698701 297.838152 
L 167.423377 297.577522 
L 169.95974 297.114181 
L 170.684416 296.88251 
L 173.945455 296.303333 
L 174.67013 296.129579 
L 176.119481 295.926867 
L 176.844156 295.695197 
L 177.206494 295.144978 
L 178.293506 294.681636 
L 179.380519 294.363089 
L 179.742857 294.160377 
L 180.467532 294.015583 
L 182.279221 293.552241 
L 183.366234 293.291611 
L 184.815584 292.915146 
L 185.177922 292.886187 
L 185.902597 292.509722 
L 186.264935 292.451804 
L 186.627273 292.249092 
L 191.337662 291.409285 
L 192.787013 290.743231 
L 193.511688 290.540519 
L 194.236364 290.221972 
L 194.961039 289.671754 
L 196.048052 289.440083 
L 204.019481 286.949621 
L 204.381818 286.920662 
L 205.468831 286.573156 
L 205.831169 286.573156 
L 206.193506 286.399402 
L 206.918182 286.312526 
L 207.280519 286.167732 
L 209.092208 286.080855 
L 209.454545 285.993978 
L 210.179221 285.588554 
L 211.266234 285.18313 
L 211.990909 284.777706 
L 213.077922 284.285406 
L 214.527273 283.532475 
L 214.88961 283.127051 
L 215.614286 281.910779 
L 216.701299 281.563273 
L 217.063636 281.273684 
L 218.150649 280.86826 
L 218.512987 280.491795 
L 219.6 280.028453 
L 219.962338 279.825741 
L 222.136364 277.190485 
L 222.861039 276.842979 
L 224.31039 275.80046 
L 225.035065 275.2792 
L 225.397403 274.728982 
L 225.75974 273.831257 
L 226.122078 273.25208 
L 229.745455 269.921811 
L 230.47013 269.19784 
L 231.919481 268.213238 
L 232.281818 267.865732 
L 233.006494 267.634061 
L 234.093506 266.968007 
L 235.180519 266.186118 
L 236.62987 264.767134 
L 237.354545 264.448587 
L 238.079221 263.927327 
L 238.441558 263.695656 
L 238.803896 263.637738 
L 239.890909 262.971685 
L 240.253247 262.537302 
L 242.064935 261.465824 
L 242.427273 261.32103 
L 243.514286 260.510182 
L 248.949351 258.425144 
L 249.674026 257.701172 
L 250.761039 257.121995 
L 251.485714 256.629694 
L 252.21039 256.398023 
L 252.572727 256.137394 
L 252.935065 256.021558 
L 254.022078 255.239669 
L 255.833766 254.805286 
L 256.920779 254.110274 
L 258.007792 253.849644 
L 258.37013 253.762767 
L 259.457143 252.951919 
L 260.906494 252.517536 
L 261.268831 252.227948 
L 263.442857 251.4171 
L 264.167532 251.272305 
L 264.892208 250.953758 
L 267.428571 249.969157 
L 268.153247 249.88228 
L 269.602597 249.303103 
L 273.588312 247.189106 
L 274.312987 246.8416 
L 275.037662 246.494093 
L 275.762338 246.349299 
L 276.487013 245.885957 
L 277.211688 245.683245 
L 278.298701 245.219903 
L 279.748052 245.017191 
L 280.472727 244.611767 
L 280.835065 244.264261 
L 281.197403 243.569248 
L 282.646753 243.134866 
L 284.096104 242.439853 
L 287.357143 240.905033 
L 288.081818 240.73128 
L 289.168831 240.152103 
L 289.531169 240.094185 
L 291.342857 239.138543 
L 292.067532 238.646242 
L 293.154545 238.414571 
L 296.415584 237.256217 
L 297.864935 236.619122 
L 298.227273 236.329533 
L 298.951948 235.924109 
L 299.676623 235.634521 
L 300.038961 235.547644 
L 301.488312 234.765755 
L 301.850649 234.360331 
L 302.212987 234.12866 
L 302.575325 234.041783 
L 303.3 233.404689 
L 303.662338 233.346771 
L 304.024675 232.709676 
L 304.387013 232.564882 
L 304.749351 232.246334 
L 305.111688 232.188416 
L 305.836364 231.696116 
L 306.561039 231.435486 
L 306.923377 231.145897 
L 307.648052 230.740473 
L 309.097403 229.81379 
L 311.271429 228.80023 
L 311.633766 228.134176 
L 312.358442 227.554999 
L 312.720779 227.468122 
L 314.894805 226.367686 
L 315.619481 226.049138 
L 316.344156 225.49892 
L 317.068831 224.717031 
L 318.880519 223.298046 
L 319.605195 222.68991 
L 319.967532 222.516157 
L 320.692208 221.734268 
L 321.779221 221.213009 
L 322.503896 220.778626 
L 322.866234 220.66279 
L 323.228571 220.373202 
L 323.590909 220.315284 
L 326.851948 218.577752 
L 327.576623 218.37504 
L 329.025974 217.853781 
L 329.750649 217.36148 
L 331.2 216.811262 
L 331.924675 216.34792 
L 332.649351 216.058331 
L 333.374026 215.508113 
L 334.098701 213.973293 
L 334.823377 213.104528 
L 335.91039 212.496392 
L 336.635065 212.177844 
L 336.997403 212.119926 
L 337.722078 211.77242 
L 339.533766 211.106366 
L 340.258442 210.614066 
L 341.345455 210.150724 
L 343.157143 209.021328 
L 343.519481 208.586946 
L 344.606494 207.920892 
L 344.968831 207.776097 
L 345.693506 207.312756 
L 347.142857 206.472949 
L 347.505195 206.386072 
L 347.867532 206.096484 
L 350.403896 205.227718 
L 350.766234 204.967088 
L 351.490909 204.735417 
L 354.38961 203.287474 
L 355.114286 202.88205 
L 355.476623 202.708297 
L 356.201299 202.100161 
L 356.925974 201.897449 
L 357.288312 201.549943 
L 357.650649 201.492025 
L 358.375325 200.912848 
L 360.187013 199.783452 
L 360.911688 199.551781 
L 361.274026 199.32011 
L 361.636364 199.262193 
L 363.81039 198.30655 
L 368.158442 196.916525 
L 369.245455 196.134636 
L 369.97013 195.729212 
L 371.419481 195.00524 
L 372.506494 194.25231 
L 373.231169 194.078557 
L 374.318182 193.383544 
L 377.579221 192.22519 
L 378.303896 191.96456 
L 379.753247 191.646012 
L 380.477922 191.414342 
L 382.28961 190.777247 
L 383.376623 190.42974 
L 384.101299 190.255987 
L 386.275325 189.850563 
L 387 189.705769 
L 388.087013 189.445139 
L 388.449351 189.271386 
L 389.174026 189.126592 
L 389.898701 188.92388 
L 390.623377 188.576373 
L 390.985714 188.431579 
L 391.348052 188.431579 
L 396.783117 186.63613 
L 397.145455 186.230706 
L 399.319481 185.275063 
L 400.768831 184.753804 
L 401.131169 184.522133 
L 402.218182 184.174627 
L 403.667532 183.624408 
L 404.02987 183.305861 
L 405.116883 183.07419 
L 405.841558 182.726684 
L 406.203896 182.263342 
L 410.18961 181.336658 
L 410.551948 181.336658 
L 411.276623 181.104987 
L 414.537662 180.26518 
L 415.262338 180.091427 
L 421.784416 177.919513 
L 422.146753 177.658883 
L 422.871429 177.427212 
L 425.77013 176.384693 
L 426.494805 176.326775 
L 427.944156 175.892393 
L 428.306494 175.660722 
L 429.031169 175.429051 
L 429.755844 175.139462 
L 430.118182 174.849874 
L 430.480519 174.762997 
L 430.842857 174.560285 
L 431.205195 174.531326 
L 435.553247 172.90963 
L 438.814286 171.838152 
L 440.263636 170.592921 
L 442.8 169.463526 
L 445.336364 168.33413 
L 446.061039 168.131418 
L 449.322078 166.480763 
L 450.046753 166.04638 
L 453.307792 164.424684 
L 453.67013 164.135095 
L 455.481818 163.440083 
L 458.018182 162.48444 
L 458.742857 162.397564 
L 459.105195 162.136934 
L 460.554545 161.847345 
L 461.279221 161.528798 
L 463.090909 160.631073 
L 467.801299 158.459159 
L 468.888312 158.082694 
L 469.250649 157.822064 
L 469.975325 157.735187 
L 470.337662 157.474558 
L 471.062338 157.358722 
L 475.772727 155.592232 
L 476.85974 155.331602 
L 478.309091 154.694507 
L 479.033766 154.289083 
L 480.483117 153.507194 
L 481.207792 153.333441 
L 481.57013 153.10177 
L 481.932468 153.014893 
L 483.744156 152.08821 
L 488.454545 150.263801 
L 488.816883 150.205884 
L 490.266234 149.481912 
L 490.990909 149.337118 
L 491.715584 148.902735 
L 493.164935 148.178764 
L 499.687013 145.601425 
L 501.136364 144.356194 
L 502.223377 143.921811 
L 504.75974 142.647621 
L 505.122078 142.386991 
L 505.846753 142.184279 
L 506.571429 141.778855 
L 507.658442 141.518226 
L 513.455844 139.085681 
L 515.267532 138.332751 
L 517.441558 137.521903 
L 519.253247 136.595219 
L 519.977922 136.363549 
L 520.34026 136.016042 
L 521.427273 135.581659 
L 521.78961 135.523742 
L 523.238961 134.828729 
L 524.325974 134.481223 
L 525.412987 134.075799 
L 526.5 133.757251 
L 526.862338 133.699333 
L 527.587013 133.293909 
L 527.949351 133.149115 
L 528.311688 132.859527 
L 529.398701 132.569938 
L 530.123377 132.280349 
L 530.848052 131.961802 
L 532.297403 131.353666 
L 534.833766 130.716571 
L 535.558442 130.426982 
L 537.007792 130.137394 
L 537.732468 129.992599 
L 538.819481 129.558217 
L 539.906494 129.326546 
L 542.080519 127.994438 
L 543.167532 127.357343 
L 545.341558 126.66233 
L 545.703896 126.372742 
L 548.602597 125.330223 
L 549.68961 124.982717 
L 550.414286 124.577293 
L 551.138961 124.374581 
L 551.501299 124.171869 
L 552.225974 124.027074 
L 554.037662 123.187267 
L 554.762338 122.897679 
L 556.211688 122.318501 
L 556.574026 121.970995 
L 556.936364 121.913077 
L 558.385714 121.304941 
L 559.835065 120.928476 
L 560.197403 120.899517 
L 560.55974 120.725764 
L 561.284416 120.58097 
L 564.545455 119.56741 
L 565.27013 118.988233 
L 566.719481 118.148426 
L 567.081818 118.061549 
L 567.444156 117.858837 
L 567.806494 117.800919 
L 571.067532 116.179223 
L 571.42987 115.860676 
L 573.241558 115.426293 
L 574.328571 114.933992 
L 575.053247 114.73128 
L 575.415584 114.557527 
L 575.777922 114.23898 
L 578.314286 113.312296 
L 579.401299 112.819995 
L 579.763636 112.791037 
L 580.488312 112.501448 
L 581.937662 111.864353 
L 584.111688 111.314135 
L 585.198701 110.821834 
L 588.45974 109.750356 
L 589.184416 109.344932 
L 601.503896 105.522363 
L 602.228571 105.319651 
L 603.315584 104.914227 
L 603.677922 104.914227 
L 604.764935 104.653597 
L 605.48961 104.508803 
L 606.214286 104.306091 
L 607.301299 103.726913 
L 608.388312 103.379407 
L 610.924675 102.510641 
L 612.374026 101.757711 
L 614.91039 100.888945 
L 615.272727 100.570398 
L 615.997403 100.338727 
L 616.35974 100.107056 
L 617.084416 100.020179 
L 619.620779 99.296208 
L 620.707792 99.064537 
L 623.606494 98.022018 
L 628.316883 96.19761 
L 629.041558 96.081774 
L 629.766234 95.93698 
L 630.128571 95.93698 
L 631.215584 95.589474 
L 632.302597 95.241967 
L 635.201299 94.40216 
L 636.650649 94.083613 
L 637.012987 93.851942 
L 637.737662 93.707148 
L 639.187013 93.417559 
L 640.274026 92.8963 
L 641.361039 92.63567 
L 642.085714 92.317123 
L 644.25974 91.535233 
L 644.622078 91.477316 
L 645.346753 91.216686 
L 649.694805 90.08729 
L 651.868831 89.33436 
L 652.593506 89.276442 
L 654.767532 88.726224 
L 655.492208 88.407676 
L 655.854545 88.349759 
L 656.216883 88.176006 
L 656.941558 87.538911 
L 660.202597 86.264721 
L 660.927273 86.148885 
L 663.825974 85.164284 
L 664.912987 84.556148 
L 665.275325 84.469271 
L 665.637662 84.179683 
L 666.724675 83.861135 
L 672.15974 81.341715 
L 673.971429 80.70462 
L 674.333766 80.386072 
L 674.696104 80.299196 
L 675.420779 79.835854 
L 676.507792 79.517306 
L 677.957143 78.90917 
L 678.319481 78.880211 
L 680.131169 78.185199 
L 680.855844 78.040405 
L 681.580519 77.519145 
L 681.942857 77.519145 
L 683.392208 76.997886 
L 684.841558 76.708297 
L 686.290909 76.071202 
L 686.653247 76.071202 
L 687.74026 75.694737 
L 688.464935 75.578901 
L 689.551948 74.941806 
L 690.276623 74.565341 
L 693.175325 73.522822 
L 693.9 73.291151 
L 695.711688 72.943645 
L 701.509091 71.177155 
L 701.871429 71.119237 
L 702.596104 70.829648 
L 704.045455 70.511101 
L 706.944156 69.439623 
L 707.668831 69.294829 
L 709.118182 69.034199 
L 709.842857 68.918364 
L 711.292208 68.339186 
L 712.016883 68.136474 
L 712.741558 68.020639 
L 714.190909 67.557297 
L 714.553247 67.557297 
L 715.277922 67.151873 
L 717.08961 66.688531 
L 717.814286 66.427902 
L 718.538961 66.283107 
L 720.712987 65.327465 
L 721.075325 65.269547 
L 721.8 64.922041 
L 722.524675 64.603493 
L 723.249351 64.284946 
L 723.974026 63.995357 
L 724.336364 63.792645 
L 724.698701 63.734728 
L 725.423377 63.41618 
L 726.51039 62.952838 
L 728.322078 62.170949 
L 728.684416 61.939278 
L 729.046753 61.852402 
L 729.409091 61.620731 
L 729.771429 61.562813 
L 730.496104 61.099471 
L 732.67013 60.578212 
L 733.394805 60.172788 
L 733.757143 60.11487 
L 735.206494 59.535693 
L 740.641558 57.479614 
L 742.090909 57.132108 
L 743.54026 56.958354 
L 744.627273 56.726684 
L 744.98961 56.668766 
L 745.714286 56.205424 
L 746.801299 55.8 
L 747.163636 55.8 
L 747.163636 55.8 
" clip-path="url(#p18e78d9fb1)" style="fill: none; stroke: #1f77b4; stroke-width: 1.5; stroke-linecap: square"/>
   </g>
   <g id="line2d_32">
    <path d="M 138.798701 307.8 
L 142.05974 307.713123 
L 144.958442 307.568329 
L 146.407792 307.568329 
L 147.132468 307.452494 
L 155.828571 306.844358 
L 158.727273 306.757481 
L 160.538961 306.699563 
L 165.249351 306.612687 
L 167.061039 306.554769 
L 170.322078 306.467892 
L 171.771429 306.438934 
L 175.394805 306.352057 
L 176.844156 306.207263 
L 178.293506 306.178304 
L 180.467532 306.091427 
L 181.916883 306.062468 
L 183.728571 306.004551 
L 185.177922 305.859756 
L 188.438961 305.77288 
L 189.163636 305.714962 
L 190.612987 305.628085 
L 192.787013 305.541209 
L 194.236364 305.454332 
L 200.758442 305.019949 
L 203.294805 304.933073 
L 204.381818 304.817237 
L 206.193506 304.730361 
L 209.816883 304.527649 
L 213.44026 304.469731 
L 214.88961 304.295978 
L 216.701299 304.209101 
L 220.324675 303.832636 
L 222.498701 303.543048 
L 223.948052 303.48513 
L 226.846753 303.079706 
L 229.020779 303.021788 
L 230.107792 302.905953 
L 231.194805 302.819076 
L 250.036364 301.400092 
L 252.572727 301.313215 
L 254.022078 301.139462 
L 255.833766 301.052586 
L 258.007792 300.965709 
L 259.819481 300.878832 
L 261.268831 300.849874 
L 263.080519 300.791956 
L 263.805195 300.705079 
L 268.877922 300.618203 
L 269.602597 300.531326 
L 273.950649 300.44445 
L 277.211688 300.270696 
L 279.748052 300.18382 
L 281.197403 300.010067 
L 283.733766 299.92319 
L 284.458442 299.807355 
L 286.27013 299.749437 
L 289.893506 299.691519 
L 291.342857 299.546725 
L 292.792208 299.517766 
L 293.879221 299.430889 
L 295.328571 299.286095 
L 298.951948 299.083383 
L 302.575325 298.996507 
L 305.836364 298.822753 
L 306.923377 298.793795 
L 307.648052 298.677959 
L 309.45974 298.620041 
L 310.184416 298.562124 
L 311.996104 298.475247 
L 313.445455 298.446288 
L 315.981818 298.359412 
L 325.402597 297.693358 
L 327.576623 297.606481 
L 329.388312 297.548564 
L 334.461039 297.461687 
L 335.185714 297.37481 
L 340.258442 297.287934 
L 343.881818 297.085222 
L 344.606494 297.056263 
L 345.331169 296.969386 
L 347.142857 296.88251 
L 348.954545 296.824592 
L 350.766234 296.737715 
L 352.577922 296.679798 
L 355.838961 296.592921 
L 358.012987 296.506045 
L 363.085714 296.419168 
L 367.071429 296.187497 
L 368.520779 296.129579 
L 369.607792 296.042703 
L 374.680519 295.955826 
L 376.854545 295.86895 
L 383.376623 295.782073 
L 384.825974 295.753114 
L 389.174026 295.695197 
L 389.898701 295.637279 
L 394.971429 295.550402 
L 396.420779 295.521443 
L 405.841558 295.434567 
L 408.015584 295.34769 
L 423.233766 295.260814 
L 425.045455 295.202896 
L 435.553247 295.116019 
L 439.538961 294.884348 
L 441.712987 294.797472 
L 443.887013 294.710595 
L 447.51039 294.623719 
L 450.046753 294.507883 
L 452.945455 294.421007 
L 455.844156 294.276212 
L 462.728571 294.189336 
L 464.902597 294.102459 
L 468.888312 294.015583 
L 471.424675 293.899747 
L 473.961039 293.841829 
L 474.685714 293.783912 
L 483.381818 293.697035 
L 487.005195 293.494323 
L 489.541558 293.407447 
L 493.527273 293.175776 
L 497.875325 293.088899 
L 499.324675 293.05994 
L 500.049351 293.002023 
L 501.861039 292.799311 
L 505.484416 292.712434 
L 506.209091 292.625557 
L 509.832468 292.538681 
L 511.644156 292.480763 
L 515.62987 292.451804 
L 516.354545 292.364928 
L 520.34026 292.278051 
L 521.064935 292.220133 
L 529.036364 292.133257 
L 531.21039 292.04638 
L 536.645455 291.959504 
L 538.094805 291.930545 
L 541.355844 291.872627 
L 542.080519 291.78575 
L 546.790909 291.698874 
L 548.602597 291.640956 
L 555.124675 291.55408 
L 556.211688 291.467203 
L 557.298701 291.380326 
L 558.385714 291.29345 
L 563.820779 291.206573 
L 565.994805 291.119697 
L 576.502597 291.03282 
L 579.763636 290.859067 
L 584.836364 290.77219 
L 586.285714 290.743231 
L 590.633766 290.656355 
L 592.445455 290.598437 
L 600.779221 290.511561 
L 602.953247 290.424684 
L 609.112987 290.337807 
L 610.562338 290.308849 
L 614.185714 290.221972 
L 616.722078 290.106137 
L 620.707792 290.01926 
L 623.244156 289.903425 
L 626.505195 289.845507 
L 627.22987 289.787589 
L 635.201299 289.700712 
L 637.375325 289.613836 
L 639.911688 289.526959 
L 641.723377 289.469042 
L 652.231169 289.382165 
L 654.405195 289.295288 
L 660.564935 289.208412 
L 662.376623 289.150494 
L 667.087013 289.063618 
L 669.261039 288.976741 
L 672.15974 288.889864 
L 674.333766 288.802988 
L 688.827273 288.716111 
L 691.725974 288.571317 
L 700.05974 288.48444 
L 701.509091 288.455481 
L 710.205195 288.368605 
L 712.016883 288.310687 
L 723.611688 288.223811 
L 725.061039 288.194852 
L 735.931169 288.107975 
L 736.655844 288.050057 
L 745.714286 287.963181 
L 747.163636 287.905263 
L 747.163636 287.905263 
" clip-path="url(#p18e78d9fb1)" style="fill: none; stroke: #ff7f0e; stroke-width: 1.5; stroke-linecap: square"/>
   </g>
   <g id="patch_3">
    <path d="M 108 320.4 
L 108 43.2 
" style="fill: none; stroke: #a9a9a9; stroke-width: 0.8; stroke-linejoin: miter; stroke-linecap: square"/>
   </g>
   <g id="patch_4">
    <path d="M 777.6 320.4 
L 777.6 43.2 
" style="fill: none"/>
   </g>
   <g id="patch_5">
    <path d="M 108 320.4 
L 777.6 320.4 
" style="fill: none; stroke: #a9a9a9; stroke-width: 0.8; stroke-linejoin: miter; stroke-linecap: square"/>
   </g>
   <g id="patch_6">
    <path d="M 108 43.2 
L 777.6 43.2 
" style="fill: none"/>
   </g>
   <g id="text_16">
    <!-- get_subscribe history -->
    <g style="fill: #a9a9a9" transform="translate(378.6075 37.2) scale(0.12 -0.12)">
     <defs>
      <path id="DejaVuSans-67" d="M 2906 1791 
Q 2906 2416 2648 2759 
Q 2391 3103 1925 3103 
Q 1463 3103 1205 2759 
Q 947 2416 947 1791 
Q 947 1169 1205 825 
Q 1463 481 1925 481 
Q 2391 481 2648 825 
Q 2906 1169 2906 1791 
z
M 3481 434 
Q 3481 -459 3084 -895 
Q 2688 -1331 1869 -1331 
Q 1566 -1331 1297 -1286 
Q 1028 -1241 775 -1147 
L 775 -588 
Q 1028 -725 1275 -790 
Q 1522 -856 1778 -856 
Q 2344 -856 2625 -561 
Q 2906 -266 2906 331 
L 2906 616 
Q 2728 306 2450 153 
Q 2172 0 1784 0 
Q 1141 0 747 490 
Q 353 981 353 1791 
Q 353 2603 747 3093 
Q 1141 3584 1784 3584 
Q 2172 3584 2450 3431 
Q 2728 3278 2906 2969 
L 2906 3500 
L 3481 3500 
L 3481 434 
z
" transform="scale(0.015625)"/>
      <path id="DejaVuSans-65" d="M 3597 1894 
L 3597 1613 
L 953 1613 
Q 991 1019 1311 708 
Q 1631 397 2203 397 
Q 2534 397 2845 478 
Q 3156 559 3463 722 
L 3463 178 
Q 3153 47 2828 -22 
Q 2503 -91 2169 -91 
Q 1331 -91 842 396 
Q 353 884 353 1716 
Q 353 2575 817 3079 
Q 1281 3584 2069 3584 
Q 2775 3584 3186 3129 
Q 3597 2675 3597 1894 
z
M 3022 2063 
Q 3016 2534 2758 2815 
Q 2500 3097 2075 3097 
Q 1594 3097 1305 2825 
Q 1016 2553 972 2059 
L 3022 2063 
z
" transform="scale(0.015625)"/>
      <path id="DejaVuSans-74" d="M 1172 4494 
L 1172 3500 
L 2356 3500 
L 2356 3053 
L 1172 3053 
L 1172 1153 
Q 1172 725 1289 603 
Q 1406 481 1766 481 
L 2356 481 
L 2356 0 
L 1766 0 
Q 1100 0 847 248 
Q 594 497 594 1153 
L 594 3053 
L 172 3053 
L 172 3500 
L 594 3500 
L 594 4494 
L 1172 4494 
z
" transform="scale(0.015625)"/>
      <path id="DejaVuSans-5f" d="M 3263 -1063 
L 3263 -1509 
L -63 -1509 
L -63 -1063 
L 3263 -1063 
z
" transform="scale(0.015625)"/>
      <path id="DejaVuSans-73" d="M 2834 3397 
L 2834 2853 
Q 2591 2978 2328 3040 
Q 2066 3103 1784 3103 
Q 1356 3103 1142 2972 
Q 928 2841 928 2578 
Q 928 2378 1081 2264 
Q 1234 2150 1697 2047 
L 1894 2003 
Q 2506 1872 2764 1633 
Q 3022 1394 3022 966 
Q 3022 478 2636 193 
Q 2250 -91 1575 -91 
Q 1294 -91 989 -36 
Q 684 19 347 128 
L 347 722 
Q 666 556 975 473 
Q 1284 391 1588 391 
Q 1994 391 2212 530 
Q 2431 669 2431 922 
Q 2431 1156 2273 1281 
Q 2116 1406 1581 1522 
L 1381 1569 
Q 847 1681 609 1914 
Q 372 2147 372 2553 
Q 372 3047 722 3315 
Q 1072 3584 1716 3584 
Q 2034 3584 2315 3537 
Q 2597 3491 2834 3397 
z
" transform="scale(0.015625)"/>
      <path id="DejaVuSans-75" d="M 544 1381 
L 544 3500 
L 1119 3500 
L 1119 1403 
Q 1119 906 1312 657 
Q 1506 409 1894 409 
Q 2359 409 2629 706 
Q 2900 1003 2900 1516 
L 2900 3500 
L 3475 3500 
L 3475 0 
L 2900 0 
L 2900 538 
Q 2691 219 2414 64 
Q 2138 -91 1772 -91 
Q 1169 -91 856 284 
Q 544 659 544 1381 
z
M 1991 3584 
L 1991 3584 
z
" transform="scale(0.015625)"/>
      <path id="DejaVuSans-62" d="M 3116 1747 
Q 3116 2381 2855 2742 
Q 2594 3103 2138 3103 
Q 1681 3103 1420 2742 
Q 1159 2381 1159 1747 
Q 1159 1113 1420 752 
Q 1681 391 2138 391 
Q 2594 391 2855 752 
Q 3116 1113 3116 1747 
z
M 1159 2969 
Q 1341 3281 1617 3432 
Q 1894 3584 2278 3584 
Q 2916 3584 3314 3078 
Q 3713 2572 3713 1747 
Q 3713 922 3314 415 
Q 2916 -91 2278 -91 
Q 1894 -91 1617 61 
Q 1341 213 1159 525 
L 1159 0 
L 581 0 
L 581 4863 
L 1159 4863 
L 1159 2969 
z
" transform="scale(0.015625)"/>
      <path id="DejaVuSans-63" d="M 3122 3366 
L 3122 2828 
Q 2878 2963 2633 3030 
Q 2388 3097 2138 3097 
Q 1578 3097 1268 2742 
Q 959 2388 959 1747 
Q 959 1106 1268 751 
Q 1578 397 2138 397 
Q 2388 397 2633 464 
Q 2878 531 3122 666 
L 3122 134 
Q 2881 22 2623 -34 
Q 2366 -91 2075 -91 
Q 1284 -91 818 406 
Q 353 903 353 1747 
Q 353 2603 823 3093 
Q 1294 3584 2113 3584 
Q 2378 3584 2631 3529 
Q 2884 3475 3122 3366 
z
" transform="scale(0.015625)"/>
      <path id="DejaVuSans-72" d="M 2631 2963 
Q 2534 3019 2420 3045 
Q 2306 3072 2169 3072 
Q 1681 3072 1420 2755 
Q 1159 2438 1159 1844 
L 1159 0 
L 581 0 
L 581 3500 
L 1159 3500 
L 1159 2956 
Q 1341 3275 1631 3429 
Q 1922 3584 2338 3584 
Q 2397 3584 2469 3576 
Q 2541 3569 2628 3553 
L 2631 2963 
z
" transform="scale(0.015625)"/>
      <path id="DejaVuSans-69" d="M 603 3500 
L 1178 3500 
L 1178 0 
L 603 0 
L 603 3500 
z
M 603 4863 
L 1178 4863 
L 1178 4134 
L 603 4134 
L 603 4863 
z
" transform="scale(0.015625)"/>
      <path id="DejaVuSans-20" transform="scale(0.015625)"/>
      <path id="DejaVuSans-68" d="M 3513 2113 
L 3513 0 
L 2938 0 
L 2938 2094 
Q 2938 2591 2744 2837 
Q 2550 3084 2163 3084 
Q 1697 3084 1428 2787 
Q 1159 2491 1159 1978 
L 1159 0 
L 581 0 
L 581 4863 
L 1159 4863 
L 1159 2956 
Q 1366 3272 1645 3428 
Q 1925 3584 2291 3584 
Q 2894 3584 3203 3211 
Q 3513 2838 3513 2113 
z
" transform="scale(0.015625)"/>
      <path id="DejaVuSans-6f" d="M 1959 3097 
Q 1497 3097 1228 2736 
Q 959 2375 959 1747 
Q 959 1119 1226 758 
Q 1494 397 1959 397 
Q 2419 397 2687 759 
Q 2956 1122 2956 1747 
Q 2956 2369 2687 2733 
Q 2419 3097 1959 3097 
z
M 1959 3584 
Q 2709 3584 3137 3096 
Q 3566 2609 3566 1747 
Q 3566 888 3137 398 
Q 2709 -91 1959 -91 
Q 1206 -91 779 398 
Q 353 888 353 1747 
Q 353 2609 779 3096 
Q 1206 3584 1959 3584 
z
" transform="scale(0.015625)"/>
      <path id="DejaVuSans-79" d="M 2059 -325 
Q 1816 -950 1584 -1140 
Q 1353 -1331 966 -1331 
L 506 -1331 
L 506 -850 
L 844 -850 
Q 1081 -850 1212 -737 
Q 1344 -625 1503 -206 
L 1606 56 
L 191 3500 
L 800 3500 
L 1894 763 
L 2988 3500 
L 3597 3500 
L 2059 -325 
z
" transform="scale(0.015625)"/>
     </defs>
     <use xlink:href="#DejaVuSans-67"/>
     <use xlink:href="#DejaVuSans-65" transform="translate(63.476562 0)"/>
     <use xlink:href="#DejaVuSans-74" transform="translate(125 0)"/>
     <use xlink:href="#DejaVuSans-5f" transform="translate(164.208984 0)"/>
     <use xlink:href="#DejaVuSans-73" transform="translate(214.208984 0)"/>
     <use xlink:href="#DejaVuSans-75" transform="translate(266.308594 0)"/>
     <use xlink:href="#DejaVuSans-62" transform="translate(329.6875 0)"/>
     <use xlink:href="#DejaVuSans-73" transform="translate(393.164062 0)"/>
     <use xlink:href="#DejaVuSans-63" transform="translate(445.263672 0)"/>
     <use xlink:href="#DejaVuSans-72" transform="translate(500.244141 0)"/>
     <use xlink:href="#DejaVuSans-69" transform="translate(541.357422 0)"/>
     <use xlink:href="#DejaVuSans-62" transform="translate(569.140625 0)"/>
     <use xlink:href="#DejaVuSans-65" transform="translate(632.617188 0)"/>
     <use xlink:href="#DejaVuSans-20" transform="translate(694.140625 0)"/>
     <use xlink:href="#DejaVuSans-68" transform="translate(725.927734 0)"/>
     <use xlink:href="#DejaVuSans-69" transform="translate(789.306641 0)"/>
     <use xlink:href="#DejaVuSans-73" transform="translate(817.089844 0)"/>
     <use xlink:href="#DejaVuSans-74" transform="translate(869.189453 0)"/>
     <use xlink:href="#DejaVuSans-6f" transform="translate(908.398438 0)"/>
     <use xlink:href="#DejaVuSans-72" transform="translate(969.580078 0)"/>
     <use xlink:href="#DejaVuSans-79" transform="translate(1010.693359 0)"/>
    </g>
   </g>
   <g id="legend_1">
    <g id="line2d_33">
     <path d="M 815.08 328.498438 
L 825.08 328.498438 
L 835.08 328.498438 
" style="fill: none; stroke: #1f77b4; stroke-width: 1.5; stroke-linecap: square"/>
    </g>
    <g id="text_17">
     <!-- star -->
     <g style="fill: #a9a9a9" transform="translate(843.08 331.998438) scale(0.1 -0.1)">
      <defs>
       <path id="DejaVuSans-61" d="M 2194 1759 
Q 1497 1759 1228 1600 
Q 959 1441 959 1056 
Q 959 750 1161 570 
Q 1363 391 1709 391 
Q 2188 391 2477 730 
Q 2766 1069 2766 1631 
L 2766 1759 
L 2194 1759 
z
M 3341 1997 
L 3341 0 
L 2766 0 
L 2766 531 
Q 2569 213 2275 61 
Q 1981 -91 1556 -91 
Q 1019 -91 701 211 
Q 384 513 384 1019 
Q 384 1609 779 1909 
Q 1175 2209 1959 2209 
L 2766 2209 
L 2766 2266 
Q 2766 2663 2505 2880 
Q 2244 3097 1772 3097 
Q 1472 3097 1187 3025 
Q 903 2953 641 2809 
L 641 3341 
Q 956 3463 1253 3523 
Q 1550 3584 1831 3584 
Q 2591 3584 2966 3190 
Q 3341 2797 3341 1997 
z
" transform="scale(0.015625)"/>
      </defs>
      <use xlink:href="#DejaVuSans-73"/>
      <use xlink:href="#DejaVuSans-74" transform="translate(52.099609 0)"/>
      <use xlink:href="#DejaVuSans-61" transform="translate(91.308594 0)"/>
      <use xlink:href="#DejaVuSans-72" transform="translate(152.587891 0)"/>
     </g>
    </g>
    <g id="line2d_34">
     <path d="M 815.08 343.176562 
L 825.08 343.176562 
L 835.08 343.176562 
" style="fill: none; stroke: #ff7f0e; stroke-width: 1.5; stroke-linecap: square"/>
    </g>
    <g id="text_18">
     <!-- fork -->
     <g style="fill: #a9a9a9" transform="translate(843.08 346.676562) scale(0.1 -0.1)">
      <defs>
       <path id="DejaVuSans-66" d="M 2375 4863 
L 2375 4384 
L 1825 4384 
Q 1516 4384 1395 4259 
Q 1275 4134 1275 3809 
L 1275 3500 
L 2222 3500 
L 2222 3053 
L 1275 3053 
L 1275 0 
L 697 0 
L 697 3053 
L 147 3053 
L 147 3500 
L 697 3500 
L 697 3744 
Q 697 4328 969 4595 
Q 1241 4863 1831 4863 
L 2375 4863 
z
" transform="scale(0.015625)"/>
       <path id="DejaVuSans-6b" d="M 581 4863 
L 1159 4863 
L 1159 1991 
L 2875 3500 
L 3609 3500 
L 1753 1863 
L 3688 0 
L 2938 0 
L 1159 1709 
L 1159 0 
L 581 0 
L 581 4863 
z
" transform="scale(0.015625)"/>
      </defs>
      <use xlink:href="#DejaVuSans-66"/>
      <use xlink:href="#DejaVuSans-6f" transform="translate(35.205078 0)"/>
      <use xlink:href="#DejaVuSans-72" transform="translate(96.386719 0)"/>
      <use xlink:href="#DejaVuSans-6b" transform="translate(137.5 0)"/>
     </g>
    </g>
   </g>
  </g>
 </g>
 <defs>
  <clipPath id="p18e78d9fb1">
   <rect x="108" y="43.2" width="669.6" height="277.2"/>
  </clipPath>
 </defs>
</svg>
