<?xml version="1.0" encoding="utf-8" standalone="no"?>
<!DOCTYPE svg PUBLIC "-//W3C//DTD SVG 1.1//EN"
  "http://www.w3.org/Graphics/SVG/1.1/DTD/svg11.dtd">
<svg xmlns:xlink="http://www.w3.org/1999/xlink" width="864pt" height="360pt" viewBox="0 0 864 360" xmlns="http://www.w3.org/2000/svg" version="1.1">
 <metadata>
  <rdf:RDF xmlns:dc="http://purl.org/dc/elements/1.1/" xmlns:cc="http://creativecommons.org/ns#" xmlns:rdf="http://www.w3.org/1999/02/22-rdf-syntax-ns#">
   <cc:Work>
    <dc:type rdf:resource="http://purl.org/dc/dcmitype/StillImage"/>
    <dc:date>2025-10-06T20:06:57.623235</dc:date>
    <dc:format>image/svg+xml</dc:format>
    <dc:creator>
     <cc:Agent>
      <dc:title>Matplotlib v3.10.6, https://matplotlib.org/</dc:title>
     </cc:Agent>
    </dc:creator>
   </cc:Work>
  </rdf:RDF>
 </metadata>
 <defs>
  <style type="text/css">*{stroke-linejoin: round; stroke-linecap: butt}</style>
 </defs>
 <g id="figure_1">
  <g id="patch_1">
   <path d="M 0 360 
L 864 360 
L 864 0 
L 0 0 
L 0 360 
z
" style="fill: none; opacity: 0"/>
  </g>
  <g id="axes_1">
   <g id="patch_2">
    <path d="M 108 320.4 
L 777.6 320.4 
L 777.6 43.2 
L 108 43.2 
L 108 320.4 
z
" style="fill: none; opacity: 0"/>
   </g>
   <g id="matplotlib.axis_1">
    <g id="xtick_1">
     <g id="line2d_1">
      <path d="M 129.315369 320.4 
L 129.315369 43.2 
" clip-path="url(#p7906907b78)" style="fill: none; stroke-dasharray: 5.12,1.28,0.8,1.28; stroke-dashoffset: 0; stroke: #b0b0b0; stroke-width: 0.8"/>
     </g>
     <g id="line2d_2">
      <defs>
       <path id="m2740544dd2" d="M 0 0 
L 0 3.5 
" style="stroke: #a9a9a9; stroke-width: 0.8"/>
      </defs>
      <g>
       <use xlink:href="#m2740544dd2" x="129.315369" y="320.4" style="fill: #a9a9a9; stroke: #a9a9a9; stroke-width: 0.8"/>
      </g>
     </g>
     <g id="text_1">
      <!-- 2021-07 -->
      <g style="fill: #a9a9a9" transform="translate(108.423962 334.998438) scale(0.1 -0.1)">
       <defs>
        <path id="DejaVuSans-32" d="M 1228 531 
L 3431 531 
L 3431 0 
L 469 0 
L 469 531 
Q 828 903 1448 1529 
Q 2069 2156 2228 2338 
Q 2531 2678 2651 2914 
Q 2772 3150 2772 3378 
Q 2772 3750 2511 3984 
Q 2250 4219 1831 4219 
Q 1534 4219 1204 4116 
Q 875 4013 500 3803 
L 500 4441 
Q 881 4594 1212 4672 
Q 1544 4750 1819 4750 
Q 2544 4750 2975 4387 
Q 3406 4025 3406 3419 
Q 3406 3131 3298 2873 
Q 3191 2616 2906 2266 
Q 2828 2175 2409 1742 
Q 1991 1309 1228 531 
z
" transform="scale(0.015625)"/>
        <path id="DejaVuSans-30" d="M 2034 4250 
Q 1547 4250 1301 3770 
Q 1056 3291 1056 2328 
Q 1056 1369 1301 889 
Q 1547 409 2034 409 
Q 2525 409 2770 889 
Q 3016 1369 3016 2328 
Q 3016 3291 2770 3770 
Q 2525 4250 2034 4250 
z
M 2034 4750 
Q 2819 4750 3233 4129 
Q 3647 3509 3647 2328 
Q 3647 1150 3233 529 
Q 2819 -91 2034 -91 
Q 1250 -91 836 529 
Q 422 1150 422 2328 
Q 422 3509 836 4129 
Q 1250 4750 2034 4750 
z
" transform="scale(0.015625)"/>
        <path id="DejaVuSans-31" d="M 794 531 
L 1825 531 
L 1825 4091 
L 703 3866 
L 703 4441 
L 1819 4666 
L 2450 4666 
L 2450 531 
L 3481 531 
L 3481 0 
L 794 0 
L 794 531 
z
" transform="scale(0.015625)"/>
        <path id="DejaVuSans-2d" d="M 313 2009 
L 1997 2009 
L 1997 1497 
L 313 1497 
L 313 2009 
z
" transform="scale(0.015625)"/>
        <path id="DejaVuSans-37" d="M 525 4666 
L 3525 4666 
L 3525 4397 
L 1831 0 
L 1172 0 
L 2766 4134 
L 525 4134 
L 525 4666 
z
" transform="scale(0.015625)"/>
       </defs>
       <use xlink:href="#DejaVuSans-32"/>
       <use xlink:href="#DejaVuSans-30" transform="translate(63.623047 0)"/>
       <use xlink:href="#DejaVuSans-32" transform="translate(127.246094 0)"/>
       <use xlink:href="#DejaVuSans-31" transform="translate(190.869141 0)"/>
       <use xlink:href="#DejaVuSans-2d" transform="translate(254.492188 0)"/>
       <use xlink:href="#DejaVuSans-30" transform="translate(290.576172 0)"/>
       <use xlink:href="#DejaVuSans-37" transform="translate(354.199219 0)"/>
      </g>
     </g>
    </g>
    <g id="xtick_2">
     <g id="line2d_3">
      <path d="M 202.283328 320.4 
L 202.283328 43.2 
" clip-path="url(#p7906907b78)" style="fill: none; stroke-dasharray: 5.12,1.28,0.8,1.28; stroke-dashoffset: 0; stroke: #b0b0b0; stroke-width: 0.8"/>
     </g>
     <g id="line2d_4">
      <g>
       <use xlink:href="#m2740544dd2" x="202.283328" y="320.4" style="fill: #a9a9a9; stroke: #a9a9a9; stroke-width: 0.8"/>
      </g>
     </g>
     <g id="text_2">
      <!-- 2022-01 -->
      <g style="fill: #a9a9a9" transform="translate(181.391922 334.998438) scale(0.1 -0.1)">
       <use xlink:href="#DejaVuSans-32"/>
       <use xlink:href="#DejaVuSans-30" transform="translate(63.623047 0)"/>
       <use xlink:href="#DejaVuSans-32" transform="translate(127.246094 0)"/>
       <use xlink:href="#DejaVuSans-32" transform="translate(190.869141 0)"/>
       <use xlink:href="#DejaVuSans-2d" transform="translate(254.492188 0)"/>
       <use xlink:href="#DejaVuSans-30" transform="translate(290.576172 0)"/>
       <use xlink:href="#DejaVuSans-31" transform="translate(354.199219 0)"/>
      </g>
     </g>
    </g>
    <g id="xtick_3">
     <g id="line2d_5">
      <path d="M 274.061593 320.4 
L 274.061593 43.2 
" clip-path="url(#p7906907b78)" style="fill: none; stroke-dasharray: 5.12,1.28,0.8,1.28; stroke-dashoffset: 0; stroke: #b0b0b0; stroke-width: 0.8"/>
     </g>
     <g id="line2d_6">
      <g>
       <use xlink:href="#m2740544dd2" x="274.061593" y="320.4" style="fill: #a9a9a9; stroke: #a9a9a9; stroke-width: 0.8"/>
      </g>
     </g>
     <g id="text_3">
      <!-- 2022-07 -->
      <g style="fill: #a9a9a9" transform="translate(253.170187 334.998438) scale(0.1 -0.1)">
       <use xlink:href="#DejaVuSans-32"/>
       <use xlink:href="#DejaVuSans-30" transform="translate(63.623047 0)"/>
       <use xlink:href="#DejaVuSans-32" transform="translate(127.246094 0)"/>
       <use xlink:href="#DejaVuSans-32" transform="translate(190.869141 0)"/>
       <use xlink:href="#DejaVuSans-2d" transform="translate(254.492188 0)"/>
       <use xlink:href="#DejaVuSans-30" transform="translate(290.576172 0)"/>
       <use xlink:href="#DejaVuSans-37" transform="translate(354.199219 0)"/>
      </g>
     </g>
    </g>
    <g id="xtick_4">
     <g id="line2d_7">
      <path d="M 347.029553 320.4 
L 347.029553 43.2 
" clip-path="url(#p7906907b78)" style="fill: none; stroke-dasharray: 5.12,1.28,0.8,1.28; stroke-dashoffset: 0; stroke: #b0b0b0; stroke-width: 0.8"/>
     </g>
     <g id="line2d_8">
      <g>
       <use xlink:href="#m2740544dd2" x="347.029553" y="320.4" style="fill: #a9a9a9; stroke: #a9a9a9; stroke-width: 0.8"/>
      </g>
     </g>
     <g id="text_4">
      <!-- 2023-01 -->
      <g style="fill: #a9a9a9" transform="translate(326.138147 334.998438) scale(0.1 -0.1)">
       <defs>
        <path id="DejaVuSans-33" d="M 2597 2516 
Q 3050 2419 3304 2112 
Q 3559 1806 3559 1356 
Q 3559 666 3084 287 
Q 2609 -91 1734 -91 
Q 1441 -91 1130 -33 
Q 819 25 488 141 
L 488 750 
Q 750 597 1062 519 
Q 1375 441 1716 441 
Q 2309 441 2620 675 
Q 2931 909 2931 1356 
Q 2931 1769 2642 2001 
Q 2353 2234 1838 2234 
L 1294 2234 
L 1294 2753 
L 1863 2753 
Q 2328 2753 2575 2939 
Q 2822 3125 2822 3475 
Q 2822 3834 2567 4026 
Q 2313 4219 1838 4219 
Q 1578 4219 1281 4162 
Q 984 4106 628 3988 
L 628 4550 
Q 988 4650 1302 4700 
Q 1616 4750 1894 4750 
Q 2613 4750 3031 4423 
Q 3450 4097 3450 3541 
Q 3450 3153 3228 2886 
Q 3006 2619 2597 2516 
z
" transform="scale(0.015625)"/>
       </defs>
       <use xlink:href="#DejaVuSans-32"/>
       <use xlink:href="#DejaVuSans-30" transform="translate(63.623047 0)"/>
       <use xlink:href="#DejaVuSans-32" transform="translate(127.246094 0)"/>
       <use xlink:href="#DejaVuSans-33" transform="translate(190.869141 0)"/>
       <use xlink:href="#DejaVuSans-2d" transform="translate(254.492188 0)"/>
       <use xlink:href="#DejaVuSans-30" transform="translate(290.576172 0)"/>
       <use xlink:href="#DejaVuSans-31" transform="translate(354.199219 0)"/>
      </g>
     </g>
    </g>
    <g id="xtick_5">
     <g id="line2d_9">
      <path d="M 418.807818 320.4 
L 418.807818 43.2 
" clip-path="url(#p7906907b78)" style="fill: none; stroke-dasharray: 5.12,1.28,0.8,1.28; stroke-dashoffset: 0; stroke: #b0b0b0; stroke-width: 0.8"/>
     </g>
     <g id="line2d_10">
      <g>
       <use xlink:href="#m2740544dd2" x="418.807818" y="320.4" style="fill: #a9a9a9; stroke: #a9a9a9; stroke-width: 0.8"/>
      </g>
     </g>
     <g id="text_5">
      <!-- 2023-07 -->
      <g style="fill: #a9a9a9" transform="translate(397.916411 334.998438) scale(0.1 -0.1)">
       <use xlink:href="#DejaVuSans-32"/>
       <use xlink:href="#DejaVuSans-30" transform="translate(63.623047 0)"/>
       <use xlink:href="#DejaVuSans-32" transform="translate(127.246094 0)"/>
       <use xlink:href="#DejaVuSans-33" transform="translate(190.869141 0)"/>
       <use xlink:href="#DejaVuSans-2d" transform="translate(254.492188 0)"/>
       <use xlink:href="#DejaVuSans-30" transform="translate(290.576172 0)"/>
       <use xlink:href="#DejaVuSans-37" transform="translate(354.199219 0)"/>
      </g>
     </g>
    </g>
    <g id="xtick_6">
     <g id="line2d_11">
      <path d="M 491.775777 320.4 
L 491.775777 43.2 
" clip-path="url(#p7906907b78)" style="fill: none; stroke-dasharray: 5.12,1.28,0.8,1.28; stroke-dashoffset: 0; stroke: #b0b0b0; stroke-width: 0.8"/>
     </g>
     <g id="line2d_12">
      <g>
       <use xlink:href="#m2740544dd2" x="491.775777" y="320.4" style="fill: #a9a9a9; stroke: #a9a9a9; stroke-width: 0.8"/>
      </g>
     </g>
     <g id="text_6">
      <!-- 2024-01 -->
      <g style="fill: #a9a9a9" transform="translate(470.884371 334.998438) scale(0.1 -0.1)">
       <defs>
        <path id="DejaVuSans-34" d="M 2419 4116 
L 825 1625 
L 2419 1625 
L 2419 4116 
z
M 2253 4666 
L 3047 4666 
L 3047 1625 
L 3713 1625 
L 3713 1100 
L 3047 1100 
L 3047 0 
L 2419 0 
L 2419 1100 
L 313 1100 
L 313 1709 
L 2253 4666 
z
" transform="scale(0.015625)"/>
       </defs>
       <use xlink:href="#DejaVuSans-32"/>
       <use xlink:href="#DejaVuSans-30" transform="translate(63.623047 0)"/>
       <use xlink:href="#DejaVuSans-32" transform="translate(127.246094 0)"/>
       <use xlink:href="#DejaVuSans-34" transform="translate(190.869141 0)"/>
       <use xlink:href="#DejaVuSans-2d" transform="translate(254.492188 0)"/>
       <use xlink:href="#DejaVuSans-30" transform="translate(290.576172 0)"/>
       <use xlink:href="#DejaVuSans-31" transform="translate(354.199219 0)"/>
      </g>
     </g>
    </g>
    <g id="xtick_7">
     <g id="line2d_13">
      <path d="M 563.950607 320.4 
L 563.950607 43.2 
" clip-path="url(#p7906907b78)" style="fill: none; stroke-dasharray: 5.12,1.28,0.8,1.28; stroke-dashoffset: 0; stroke: #b0b0b0; stroke-width: 0.8"/>
     </g>
     <g id="line2d_14">
      <g>
       <use xlink:href="#m2740544dd2" x="563.950607" y="320.4" style="fill: #a9a9a9; stroke: #a9a9a9; stroke-width: 0.8"/>
      </g>
     </g>
     <g id="text_7">
      <!-- 2024-07 -->
      <g style="fill: #a9a9a9" transform="translate(543.059201 334.998438) scale(0.1 -0.1)">
       <use xlink:href="#DejaVuSans-32"/>
       <use xlink:href="#DejaVuSans-30" transform="translate(63.623047 0)"/>
       <use xlink:href="#DejaVuSans-32" transform="translate(127.246094 0)"/>
       <use xlink:href="#DejaVuSans-34" transform="translate(190.869141 0)"/>
       <use xlink:href="#DejaVuSans-2d" transform="translate(254.492188 0)"/>
       <use xlink:href="#DejaVuSans-30" transform="translate(290.576172 0)"/>
       <use xlink:href="#DejaVuSans-37" transform="translate(354.199219 0)"/>
      </g>
     </g>
    </g>
    <g id="xtick_8">
     <g id="line2d_15">
      <path d="M 636.918567 320.4 
L 636.918567 43.2 
" clip-path="url(#p7906907b78)" style="fill: none; stroke-dasharray: 5.12,1.28,0.8,1.28; stroke-dashoffset: 0; stroke: #b0b0b0; stroke-width: 0.8"/>
     </g>
     <g id="line2d_16">
      <g>
       <use xlink:href="#m2740544dd2" x="636.918567" y="320.4" style="fill: #a9a9a9; stroke: #a9a9a9; stroke-width: 0.8"/>
      </g>
     </g>
     <g id="text_8">
      <!-- 2025-01 -->
      <g style="fill: #a9a9a9" transform="translate(616.027161 334.998438) scale(0.1 -0.1)">
       <defs>
        <path id="DejaVuSans-35" d="M 691 4666 
L 3169 4666 
L 3169 4134 
L 1269 4134 
L 1269 2991 
Q 1406 3038 1543 3061 
Q 1681 3084 1819 3084 
Q 2600 3084 3056 2656 
Q 3513 2228 3513 1497 
Q 3513 744 3044 326 
Q 2575 -91 1722 -91 
Q 1428 -91 1123 -41 
Q 819 9 494 109 
L 494 744 
Q 775 591 1075 516 
Q 1375 441 1709 441 
Q 2250 441 2565 725 
Q 2881 1009 2881 1497 
Q 2881 1984 2565 2268 
Q 2250 2553 1709 2553 
Q 1456 2553 1204 2497 
Q 953 2441 691 2322 
L 691 4666 
z
" transform="scale(0.015625)"/>
       </defs>
       <use xlink:href="#DejaVuSans-32"/>
       <use xlink:href="#DejaVuSans-30" transform="translate(63.623047 0)"/>
       <use xlink:href="#DejaVuSans-32" transform="translate(127.246094 0)"/>
       <use xlink:href="#DejaVuSans-35" transform="translate(190.869141 0)"/>
       <use xlink:href="#DejaVuSans-2d" transform="translate(254.492188 0)"/>
       <use xlink:href="#DejaVuSans-30" transform="translate(290.576172 0)"/>
       <use xlink:href="#DejaVuSans-31" transform="translate(354.199219 0)"/>
      </g>
     </g>
    </g>
    <g id="xtick_9">
     <g id="line2d_17">
      <path d="M 708.696832 320.4 
L 708.696832 43.2 
" clip-path="url(#p7906907b78)" style="fill: none; stroke-dasharray: 5.12,1.28,0.8,1.28; stroke-dashoffset: 0; stroke: #b0b0b0; stroke-width: 0.8"/>
     </g>
     <g id="line2d_18">
      <g>
       <use xlink:href="#m2740544dd2" x="708.696832" y="320.4" style="fill: #a9a9a9; stroke: #a9a9a9; stroke-width: 0.8"/>
      </g>
     </g>
     <g id="text_9">
      <!-- 2025-07 -->
      <g style="fill: #a9a9a9" transform="translate(687.805425 334.998438) scale(0.1 -0.1)">
       <use xlink:href="#DejaVuSans-32"/>
       <use xlink:href="#DejaVuSans-30" transform="translate(63.623047 0)"/>
       <use xlink:href="#DejaVuSans-32" transform="translate(127.246094 0)"/>
       <use xlink:href="#DejaVuSans-35" transform="translate(190.869141 0)"/>
       <use xlink:href="#DejaVuSans-2d" transform="translate(254.492188 0)"/>
       <use xlink:href="#DejaVuSans-30" transform="translate(290.576172 0)"/>
       <use xlink:href="#DejaVuSans-37" transform="translate(354.199219 0)"/>
      </g>
     </g>
    </g>
   </g>
   <g id="matplotlib.axis_2">
    <g id="ytick_1">
     <g id="line2d_19">
      <path d="M 108 307.830683 
L 777.6 307.830683 
" clip-path="url(#p7906907b78)" style="fill: none; stroke-dasharray: 5.12,1.28,0.8,1.28; stroke-dashoffset: 0; stroke: #b0b0b0; stroke-width: 0.8"/>
     </g>
     <g id="line2d_20">
      <defs>
       <path id="m8c03a48948" d="M 0 0 
L -3.5 0 
" style="stroke: #a9a9a9; stroke-width: 0.8"/>
      </defs>
      <g>
       <use xlink:href="#m8c03a48948" x="108" y="307.830683" style="fill: #a9a9a9; stroke: #a9a9a9; stroke-width: 0.8"/>
      </g>
     </g>
     <g id="text_10">
      <!-- 0 -->
      <g style="fill: #a9a9a9" transform="translate(94.6375 311.629902) scale(0.1 -0.1)">
       <use xlink:href="#DejaVuSans-30"/>
      </g>
     </g>
    </g>
    <g id="ytick_2">
     <g id="line2d_21">
      <path d="M 108 277.14762 
L 777.6 277.14762 
" clip-path="url(#p7906907b78)" style="fill: none; stroke-dasharray: 5.12,1.28,0.8,1.28; stroke-dashoffset: 0; stroke: #b0b0b0; stroke-width: 0.8"/>
     </g>
     <g id="line2d_22">
      <g>
       <use xlink:href="#m8c03a48948" x="108" y="277.14762" style="fill: #a9a9a9; stroke: #a9a9a9; stroke-width: 0.8"/>
      </g>
     </g>
     <g id="text_11">
      <!-- 1000 -->
      <g style="fill: #a9a9a9" transform="translate(75.55 280.946838) scale(0.1 -0.1)">
       <use xlink:href="#DejaVuSans-31"/>
       <use xlink:href="#DejaVuSans-30" transform="translate(63.623047 0)"/>
       <use xlink:href="#DejaVuSans-30" transform="translate(127.246094 0)"/>
       <use xlink:href="#DejaVuSans-30" transform="translate(190.869141 0)"/>
      </g>
     </g>
    </g>
    <g id="ytick_3">
     <g id="line2d_23">
      <path d="M 108 246.464556 
L 777.6 246.464556 
" clip-path="url(#p7906907b78)" style="fill: none; stroke-dasharray: 5.12,1.28,0.8,1.28; stroke-dashoffset: 0; stroke: #b0b0b0; stroke-width: 0.8"/>
     </g>
     <g id="line2d_24">
      <g>
       <use xlink:href="#m8c03a48948" x="108" y="246.464556" style="fill: #a9a9a9; stroke: #a9a9a9; stroke-width: 0.8"/>
      </g>
     </g>
     <g id="text_12">
      <!-- 2000 -->
      <g style="fill: #a9a9a9" transform="translate(75.55 250.263775) scale(0.1 -0.1)">
       <use xlink:href="#DejaVuSans-32"/>
       <use xlink:href="#DejaVuSans-30" transform="translate(63.623047 0)"/>
       <use xlink:href="#DejaVuSans-30" transform="translate(127.246094 0)"/>
       <use xlink:href="#DejaVuSans-30" transform="translate(190.869141 0)"/>
      </g>
     </g>
    </g>
    <g id="ytick_4">
     <g id="line2d_25">
      <path d="M 108 215.781493 
L 777.6 215.781493 
" clip-path="url(#p7906907b78)" style="fill: none; stroke-dasharray: 5.12,1.28,0.8,1.28; stroke-dashoffset: 0; stroke: #b0b0b0; stroke-width: 0.8"/>
     </g>
     <g id="line2d_26">
      <g>
       <use xlink:href="#m8c03a48948" x="108" y="215.781493" style="fill: #a9a9a9; stroke: #a9a9a9; stroke-width: 0.8"/>
      </g>
     </g>
     <g id="text_13">
      <!-- 3000 -->
      <g style="fill: #a9a9a9" transform="translate(75.55 219.580712) scale(0.1 -0.1)">
       <use xlink:href="#DejaVuSans-33"/>
       <use xlink:href="#DejaVuSans-30" transform="translate(63.623047 0)"/>
       <use xlink:href="#DejaVuSans-30" transform="translate(127.246094 0)"/>
       <use xlink:href="#DejaVuSans-30" transform="translate(190.869141 0)"/>
      </g>
     </g>
    </g>
    <g id="ytick_5">
     <g id="line2d_27">
      <path d="M 108 185.098429 
L 777.6 185.098429 
" clip-path="url(#p7906907b78)" style="fill: none; stroke-dasharray: 5.12,1.28,0.8,1.28; stroke-dashoffset: 0; stroke: #b0b0b0; stroke-width: 0.8"/>
     </g>
     <g id="line2d_28">
      <g>
       <use xlink:href="#m8c03a48948" x="108" y="185.098429" style="fill: #a9a9a9; stroke: #a9a9a9; stroke-width: 0.8"/>
      </g>
     </g>
     <g id="text_14">
      <!-- 4000 -->
      <g style="fill: #a9a9a9" transform="translate(75.55 188.897648) scale(0.1 -0.1)">
       <use xlink:href="#DejaVuSans-34"/>
       <use xlink:href="#DejaVuSans-30" transform="translate(63.623047 0)"/>
       <use xlink:href="#DejaVuSans-30" transform="translate(127.246094 0)"/>
       <use xlink:href="#DejaVuSans-30" transform="translate(190.869141 0)"/>
      </g>
     </g>
    </g>
    <g id="ytick_6">
     <g id="line2d_29">
      <path d="M 108 154.415366 
L 777.6 154.415366 
" clip-path="url(#p7906907b78)" style="fill: none; stroke-dasharray: 5.12,1.28,0.8,1.28; stroke-dashoffset: 0; stroke: #b0b0b0; stroke-width: 0.8"/>
     </g>
     <g id="line2d_30">
      <g>
       <use xlink:href="#m8c03a48948" x="108" y="154.415366" style="fill: #a9a9a9; stroke: #a9a9a9; stroke-width: 0.8"/>
      </g>
     </g>
     <g id="text_15">
      <!-- 5000 -->
      <g style="fill: #a9a9a9" transform="translate(75.55 158.214585) scale(0.1 -0.1)">
       <use xlink:href="#DejaVuSans-35"/>
       <use xlink:href="#DejaVuSans-30" transform="translate(63.623047 0)"/>
       <use xlink:href="#DejaVuSans-30" transform="translate(127.246094 0)"/>
       <use xlink:href="#DejaVuSans-30" transform="translate(190.869141 0)"/>
      </g>
     </g>
    </g>
    <g id="ytick_7">
     <g id="line2d_31">
      <path d="M 108 123.732302 
L 777.6 123.732302 
" clip-path="url(#p7906907b78)" style="fill: none; stroke-dasharray: 5.12,1.28,0.8,1.28; stroke-dashoffset: 0; stroke: #b0b0b0; stroke-width: 0.8"/>
     </g>
     <g id="line2d_32">
      <g>
       <use xlink:href="#m8c03a48948" x="108" y="123.732302" style="fill: #a9a9a9; stroke: #a9a9a9; stroke-width: 0.8"/>
      </g>
     </g>
     <g id="text_16">
      <!-- 6000 -->
      <g style="fill: #a9a9a9" transform="translate(75.55 127.531521) scale(0.1 -0.1)">
       <defs>
        <path id="DejaVuSans-36" d="M 2113 2584 
Q 1688 2584 1439 2293 
Q 1191 2003 1191 1497 
Q 1191 994 1439 701 
Q 1688 409 2113 409 
Q 2538 409 2786 701 
Q 3034 994 3034 1497 
Q 3034 2003 2786 2293 
Q 2538 2584 2113 2584 
z
M 3366 4563 
L 3366 3988 
Q 3128 4100 2886 4159 
Q 2644 4219 2406 4219 
Q 1781 4219 1451 3797 
Q 1122 3375 1075 2522 
Q 1259 2794 1537 2939 
Q 1816 3084 2150 3084 
Q 2853 3084 3261 2657 
Q 3669 2231 3669 1497 
Q 3669 778 3244 343 
Q 2819 -91 2113 -91 
Q 1303 -91 875 529 
Q 447 1150 447 2328 
Q 447 3434 972 4092 
Q 1497 4750 2381 4750 
Q 2619 4750 2861 4703 
Q 3103 4656 3366 4563 
z
" transform="scale(0.015625)"/>
       </defs>
       <use xlink:href="#DejaVuSans-36"/>
       <use xlink:href="#DejaVuSans-30" transform="translate(63.623047 0)"/>
       <use xlink:href="#DejaVuSans-30" transform="translate(127.246094 0)"/>
       <use xlink:href="#DejaVuSans-30" transform="translate(190.869141 0)"/>
      </g>
     </g>
    </g>
    <g id="ytick_8">
     <g id="line2d_33">
      <path d="M 108 93.049239 
L 777.6 93.049239 
" clip-path="url(#p7906907b78)" style="fill: none; stroke-dasharray: 5.12,1.28,0.8,1.28; stroke-dashoffset: 0; stroke: #b0b0b0; stroke-width: 0.8"/>
     </g>
     <g id="line2d_34">
      <g>
       <use xlink:href="#m8c03a48948" x="108" y="93.049239" style="fill: #a9a9a9; stroke: #a9a9a9; stroke-width: 0.8"/>
      </g>
     </g>
     <g id="text_17">
      <!-- 7000 -->
      <g style="fill: #a9a9a9" transform="translate(75.55 96.848458) scale(0.1 -0.1)">
       <use xlink:href="#DejaVuSans-37"/>
       <use xlink:href="#DejaVuSans-30" transform="translate(63.623047 0)"/>
       <use xlink:href="#DejaVuSans-30" transform="translate(127.246094 0)"/>
       <use xlink:href="#DejaVuSans-30" transform="translate(190.869141 0)"/>
      </g>
     </g>
    </g>
    <g id="ytick_9">
     <g id="line2d_35">
      <path d="M 108 62.366176 
L 777.6 62.366176 
" clip-path="url(#p7906907b78)" style="fill: none; stroke-dasharray: 5.12,1.28,0.8,1.28; stroke-dashoffset: 0; stroke: #b0b0b0; stroke-width: 0.8"/>
     </g>
     <g id="line2d_36">
      <g>
       <use xlink:href="#m8c03a48948" x="108" y="62.366176" style="fill: #a9a9a9; stroke: #a9a9a9; stroke-width: 0.8"/>
      </g>
     </g>
     <g id="text_18">
      <!-- 8000 -->
      <g style="fill: #a9a9a9" transform="translate(75.55 66.165394) scale(0.1 -0.1)">
       <defs>
        <path id="DejaVuSans-38" d="M 2034 2216 
Q 1584 2216 1326 1975 
Q 1069 1734 1069 1313 
Q 1069 891 1326 650 
Q 1584 409 2034 409 
Q 2484 409 2743 651 
Q 3003 894 3003 1313 
Q 3003 1734 2745 1975 
Q 2488 2216 2034 2216 
z
M 1403 2484 
Q 997 2584 770 2862 
Q 544 3141 544 3541 
Q 544 4100 942 4425 
Q 1341 4750 2034 4750 
Q 2731 4750 3128 4425 
Q 3525 4100 3525 3541 
Q 3525 3141 3298 2862 
Q 3072 2584 2669 2484 
Q 3125 2378 3379 2068 
Q 3634 1759 3634 1313 
Q 3634 634 3220 271 
Q 2806 -91 2034 -91 
Q 1263 -91 848 271 
Q 434 634 434 1313 
Q 434 1759 690 2068 
Q 947 2378 1403 2484 
z
M 1172 3481 
Q 1172 3119 1398 2916 
Q 1625 2713 2034 2713 
Q 2441 2713 2670 2916 
Q 2900 3119 2900 3481 
Q 2900 3844 2670 4047 
Q 2441 4250 2034 4250 
Q 1625 4250 1398 4047 
Q 1172 3844 1172 3481 
z
" transform="scale(0.015625)"/>
       </defs>
       <use xlink:href="#DejaVuSans-38"/>
       <use xlink:href="#DejaVuSans-30" transform="translate(63.623047 0)"/>
       <use xlink:href="#DejaVuSans-30" transform="translate(127.246094 0)"/>
       <use xlink:href="#DejaVuSans-30" transform="translate(190.869141 0)"/>
      </g>
     </g>
    </g>
   </g>
   <g id="line2d_37">
    <path d="M 138.436364 307.738634 
L 140.815754 307.523852 
L 141.212319 307.339754 
L 142.798579 307.124973 
L 144.384839 306.787459 
L 145.177969 306.664727 
L 147.160794 306.480628 
L 147.953924 306.173798 
L 148.350489 305.621502 
L 148.747054 305.345355 
L 149.143619 304.424863 
L 149.540184 304.363497 
L 150.333314 303.872568 
L 151.126444 303.28959 
L 152.712704 302.123633 
L 153.109269 301.970218 
L 153.902399 301.479289 
L 155.092094 300.896311 
L 155.488659 300.221283 
L 156.281789 299.607622 
L 156.678354 299.423524 
L 160.644004 298.809862 
L 161.040569 298.625764 
L 163.816524 298.3803 
L 165.402784 297.98142 
L 168.575304 297.521174 
L 168.971869 297.306392 
L 169.368434 297.245026 
L 170.161564 296.968879 
L 172.937519 296.47795 
L 173.730649 296.232485 
L 177.299733 295.618824 
L 178.092863 295.434725 
L 179.679123 295.219944 
L 180.472253 294.974479 
L 180.868818 294.391501 
L 182.058513 293.900572 
L 183.248208 293.563059 
L 183.644773 293.348277 
L 184.437903 293.194862 
L 186.024163 292.703933 
L 186.817293 292.642567 
L 187.610423 292.427785 
L 189.196683 291.998222 
L 189.593248 291.967539 
L 190.386378 291.568659 
L 190.782943 291.507293 
L 191.179508 291.292512 
L 195.541723 290.525435 
L 197.127983 290.034506 
L 197.524548 289.758359 
L 199.507373 289.083331 
L 200.300503 288.500353 
L 201.490198 288.254889 
L 206.645543 286.720735 
L 207.042108 286.659369 
L 208.628368 286.015025 
L 209.024933 285.953659 
L 209.818063 285.616145 
L 210.611193 285.585462 
L 211.800888 285.217265 
L 212.197453 285.217265 
L 212.594018 285.033167 
L 213.387148 284.941118 
L 213.783713 284.787702 
L 215.369973 284.726336 
L 216.163103 284.572921 
L 216.956233 284.143358 
L 218.145928 283.713795 
L 218.939058 283.284232 
L 220.128753 282.76262 
L 221.715013 281.934178 
L 222.111578 281.473932 
L 222.904708 280.185243 
L 223.301273 280.062511 
L 223.697838 280.062511 
L 225.284098 279.172702 
L 225.680663 279.080653 
L 226.077228 278.681773 
L 226.870358 278.344259 
L 227.663488 277.976062 
L 228.060053 277.485133 
L 228.456618 276.810106 
L 228.853183 276.533958 
L 229.249748 275.797565 
L 229.646313 275.337319 
L 232.025703 273.987264 
L 233.611963 272.514477 
L 234.008528 271.563302 
L 234.405093 270.949641 
L 234.801658 270.612127 
L 235.198223 270.428029 
L 236.784483 269.047291 
L 237.974178 268.004067 
L 238.767308 266.991526 
L 239.957003 266.101717 
L 241.543263 265.089176 
L 241.939828 264.93576 
L 243.526088 263.953902 
L 243.922653 263.769804 
L 245.905478 261.867454 
L 246.698608 261.52994 
L 247.491738 260.946962 
L 247.888303 260.701498 
L 248.284868 260.640131 
L 249.474563 259.934421 
L 249.871128 259.474175 
L 251.853953 258.338902 
L 252.250518 258.185486 
L 253.440213 257.326361 
L 259.388688 255.11718 
L 260.181818 254.350103 
L 261.371513 253.736442 
L 262.164643 253.21483 
L 262.957773 252.969366 
L 263.354338 252.693218 
L 263.750903 252.570486 
L 264.940598 251.742043 
L 266.923423 251.281797 
L 268.113118 250.545404 
L 269.302813 250.269256 
L 269.699378 250.177207 
L 270.889073 249.256715 
L 272.475333 248.796469 
L 272.871898 248.458955 
L 275.251288 247.59983 
L 276.044418 247.446414 
L 276.837548 247.108901 
L 279.613503 246.034993 
L 280.406633 245.942944 
L 281.596328 245.513381 
L 283.579153 244.50084 
L 285.958543 243.120102 
L 286.751673 242.905321 
L 287.941368 242.29166 
L 288.734498 242.138244 
L 289.527628 241.647315 
L 290.320758 241.432534 
L 291.510453 240.941605 
L 293.096713 240.726823 
L 293.889843 240.29726 
L 294.286408 239.929064 
L 294.682973 239.19267 
L 296.269233 238.732424 
L 297.855493 237.996031 
L 300.234883 236.830074 
L 301.028013 236.431194 
L 302.217708 236.18573 
L 303.407403 235.572069 
L 303.803968 235.510703 
L 305.786793 234.498161 
L 306.579923 233.976549 
L 307.769618 233.731085 
L 309.752443 233.209473 
L 310.149008 232.871959 
L 310.942138 232.595812 
L 312.924963 231.767369 
L 313.321528 231.460538 
L 313.718093 231.307123 
L 314.511223 230.846877 
L 316.097483 230.325265 
L 316.890613 229.803653 
L 317.287178 229.37409 
L 317.683743 229.128625 
L 318.080308 229.036576 
L 318.873438 228.361549 
L 319.270003 228.300183 
L 319.666568 227.625155 
L 320.063133 227.441057 
L 320.459698 227.103543 
L 320.856263 227.042177 
L 321.649393 226.520565 
L 322.442523 226.244417 
L 322.839088 225.937587 
L 323.235653 225.784171 
L 325.218478 224.495483 
L 326.408173 224.035237 
L 327.201303 223.66704 
L 327.597868 223.421576 
L 327.994433 222.715865 
L 328.787563 222.102204 
L 329.184128 222.010155 
L 331.563518 220.813515 
L 332.356648 220.476001 
L 333.149778 219.893023 
L 334.339473 218.75775 
L 335.132603 218.266821 
L 335.529168 217.806575 
L 337.115428 216.671302 
L 337.908558 215.842859 
L 338.701688 215.566711 
L 339.494818 215.014416 
L 340.684513 214.370072 
L 341.081078 214.308706 
L 344.650163 212.437039 
L 345.443293 212.222257 
L 347.029553 211.639279 
L 347.426118 211.301765 
L 349.012378 210.657421 
L 349.408943 210.534689 
L 350.202073 210.013077 
L 350.995203 209.675563 
L 351.788333 209.092585 
L 352.581463 207.466383 
L 353.374593 206.545891 
L 354.564288 205.901546 
L 355.357418 205.564033 
L 355.753983 205.502667 
L 356.547113 205.13447 
L 358.133373 204.582175 
L 358.926503 204.121929 
L 359.719633 203.723049 
L 360.116198 203.600317 
L 362.495588 202.12753 
L 362.892153 201.667284 
L 364.081848 200.961573 
L 364.478413 200.808158 
L 365.271543 200.317229 
L 366.857803 199.42742 
L 367.254368 199.335371 
L 367.650933 198.997857 
L 370.426888 198.046682 
L 370.823453 197.770535 
L 371.616583 197.52507 
L 372.409713 197.187556 
L 372.806278 196.850043 
L 374.392538 196.267064 
L 375.185668 195.684086 
L 375.978798 195.346573 
L 376.771928 194.702228 
L 377.565058 194.487447 
L 377.961623 194.11925 
L 378.358188 194.057884 
L 379.151318 193.444223 
L 381.134143 192.247583 
L 381.927273 192.002119 
L 382.323838 191.756654 
L 382.720403 191.695288 
L 384.306663 190.928211 
L 385.496358 190.529332 
L 386.289488 190.406599 
L 386.686053 190.222501 
L 387.082618 190.161135 
L 387.875748 189.792938 
L 388.272313 189.762255 
L 389.858573 189.148594 
L 391.048268 188.289468 
L 391.444833 188.136053 
L 392.237963 187.675807 
L 392.634528 187.553074 
L 395.013918 186.172337 
L 395.410483 186.080287 
L 396.600178 185.343894 
L 397.789873 184.914331 
L 398.583003 184.638183 
L 400.169263 184.085888 
L 400.962393 183.809741 
L 402.548653 183.472227 
L 402.945218 183.288129 
L 403.738348 183.073347 
L 404.134913 182.889249 
L 404.531478 182.827883 
L 404.928043 182.613101 
L 405.721173 182.459686 
L 406.910868 182.030123 
L 408.100563 181.846025 
L 410.479953 181.385779 
L 411.669648 181.109631 
L 412.066213 180.925533 
L 412.859343 180.772117 
L 413.652473 180.557336 
L 414.445603 180.189139 
L 414.842168 180.035724 
L 415.238733 180.035724 
L 419.600948 178.654986 
L 419.997513 178.440205 
L 420.394078 178.440205 
L 421.187208 178.133374 
L 421.583773 177.703811 
L 423.963163 176.69127 
L 425.549423 176.138975 
L 425.945988 175.89351 
L 427.135683 175.525314 
L 427.928813 175.310532 
L 428.325378 175.034385 
L 428.721943 174.942335 
L 429.118508 174.574139 
L 430.308203 174.328674 
L 431.101333 173.960477 
L 431.497898 173.469548 
L 435.860113 172.48769 
L 436.256678 172.48769 
L 436.653243 172.303592 
L 438.239503 171.996761 
L 438.636068 171.812663 
L 440.222328 171.505832 
L 441.015458 171.168319 
L 441.808588 171.014903 
L 443.791412 170.493291 
L 444.981107 170.125094 
L 446.963932 169.48075 
L 447.757062 169.143236 
L 448.550192 168.836406 
L 448.946757 168.560258 
L 449.739887 168.314794 
L 452.515842 167.240886 
L 454.102102 167.056788 
L 457.274622 165.860149 
L 457.671187 165.553318 
L 458.067752 165.461269 
L 458.464317 165.246487 
L 458.860882 165.215804 
L 463.223097 163.589602 
L 465.205922 163.037307 
L 465.999052 162.638427 
L 467.188747 162.362279 
L 468.775007 161.012225 
L 470.361267 160.306514 
L 471.947527 159.631487 
L 472.344092 159.539437 
L 472.740657 159.26329 
L 473.533787 159.017825 
L 473.930352 158.741678 
L 475.913177 158.06665 
L 479.878827 156.010885 
L 480.671957 155.642688 
L 481.068522 155.335858 
L 481.861652 155.05971 
L 484.241042 153.893754 
L 484.637607 153.801705 
L 485.827302 153.249409 
L 487.413562 152.697114 
L 488.206692 152.359601 
L 488.999822 152.236868 
L 489.396387 151.960721 
L 490.982647 151.65389 
L 491.775777 151.316376 
L 494.155167 150.15042 
L 494.551732 150.089054 
L 495.741427 149.383343 
L 496.931122 148.953781 
L 499.707077 147.757141 
L 500.103642 147.634409 
L 500.500207 147.358261 
L 501.293337 147.266212 
L 501.689902 146.990065 
L 502.483032 146.867332 
L 503.276162 146.468452 
L 503.672727 146.284354 
L 504.465857 146.069573 
L 505.258987 145.824108 
L 506.448682 145.363862 
L 507.638377 144.964982 
L 508.828072 144.688835 
L 510.414332 144.013807 
L 511.207462 143.584244 
L 512.793722 142.755802 
L 513.586852 142.571703 
L 513.983417 142.326239 
L 514.379982 142.23419 
L 516.362807 141.252332 
L 519.535327 140.117058 
L 519.931892 139.994326 
L 520.725022 139.564763 
L 522.707847 138.859053 
L 525.087237 137.877195 
L 526.673497 137.110118 
L 530.639147 135.514599 
L 531.432277 135.115719 
L 531.828842 135.02367 
L 532.621972 134.716839 
L 533.018537 134.716839 
L 533.811667 134.348642 
L 535.397927 132.998588 
L 535.794492 132.875855 
L 536.191057 132.630391 
L 537.380752 132.292877 
L 537.777317 131.986047 
L 538.173882 131.893997 
L 539.363577 131.157604 
L 539.760142 130.881456 
L 540.949837 130.42121 
L 541.346402 130.206429 
L 542.536097 129.930281 
L 544.518922 129.224571 
L 545.312052 128.979106 
L 546.501747 128.334762 
L 547.294877 127.935882 
L 548.088007 127.721101 
L 549.674267 126.984707 
L 550.070832 126.861975 
L 550.863962 126.493778 
L 552.846787 125.849434 
L 554.036482 125.082357 
L 554.433047 124.990308 
L 555.226177 124.591428 
L 556.019307 124.284598 
L 556.415872 123.916401 
L 557.605567 123.456155 
L 558.002132 123.394789 
L 559.588392 122.658395 
L 560.778087 122.290198 
L 561.174652 122.1061 
L 561.571217 122.044734 
L 562.364347 121.70722 
L 563.554042 121.461756 
L 564.347172 121.00151 
L 564.743737 120.848094 
L 565.140302 120.541264 
L 566.329997 120.234433 
L 567.123127 119.927603 
L 567.916257 119.590089 
L 569.502517 118.945745 
L 572.278472 118.209351 
L 573.071602 117.90252 
L 574.657862 117.59569 
L 575.450992 117.442274 
L 576.640687 116.982028 
L 577.830382 116.736564 
L 580.209772 115.325143 
L 581.399467 114.58875 
L 583.778857 113.852356 
L 584.175422 113.545525 
L 587.744507 112.256837 
L 588.537637 111.980689 
L 589.727332 111.459077 
L 593.296417 110.016973 
L 594.089547 109.710142 
L 595.675807 109.065798 
L 596.072372 108.697601 
L 596.468937 108.636235 
L 598.055197 107.991891 
L 599.641457 107.593011 
L 600.038022 107.531645 
L 600.434587 107.347547 
L 600.831152 107.316864 
L 601.624282 107.040716 
L 602.020847 107.010033 
L 603.210542 106.549787 
L 604.796802 106.089541 
L 605.589932 105.47588 
L 607.176192 104.586071 
L 607.572757 104.494022 
L 608.365887 104.187191 
L 611.538407 102.622355 
L 611.934972 102.407573 
L 612.331537 102.039377 
L 614.314362 101.548448 
L 615.504057 100.996152 
L 616.297187 100.781371 
L 616.693752 100.597273 
L 617.090317 100.259759 
L 619.073142 99.554048 
L 624.228487 97.651699 
L 625.021617 97.498283 
L 627.004442 96.853939 
L 628.194137 96.332327 
L 630.970092 95.503884 
L 631.763222 95.043638 
L 634.539177 94.092463 
L 636.125437 93.570851 
L 637.315132 93.294704 
L 638.504827 92.926507 
L 638.901392 92.834458 
L 639.297957 92.55831 
L 640.091087 92.374212 
L 641.677347 91.913966 
L 642.073912 91.883283 
L 642.867042 91.515086 
L 645.642997 90.809375 
L 647.229257 90.226397 
L 647.625822 90.226397 
L 648.815517 89.95025 
L 649.608647 89.796834 
L 650.401777 89.582053 
L 651.591472 88.937709 
L 652.781167 88.569512 
L 655.557122 87.618337 
L 657.143382 86.820577 
L 658.333077 86.54443 
L 659.126207 86.298965 
L 659.919337 85.900085 
L 660.315902 85.562572 
L 661.109032 85.317107 
L 661.505597 85.071643 
L 662.298727 84.979593 
L 665.074682 84.181834 
L 666.264377 83.936369 
L 667.454072 83.629539 
L 668.247202 83.44544 
L 669.436897 82.831779 
L 674.592242 80.83738 
L 675.385372 80.714648 
L 676.178502 80.561232 
L 676.575067 80.561232 
L 677.764762 80.193035 
L 678.954457 79.824839 
L 682.523542 78.812298 
L 683.316672 78.597516 
L 683.713237 78.505467 
L 684.109802 78.260002 
L 684.902932 78.106587 
L 685.696062 78.014538 
L 686.092627 77.799756 
L 686.489192 77.769073 
L 687.282322 77.247461 
L 688.868582 76.909948 
L 689.661712 76.572434 
L 690.454842 76.296286 
L 691.247972 76.081505 
L 692.041102 75.743991 
L 692.437667 75.682625 
L 693.230797 75.406478 
L 694.420492 75.068964 
L 695.213622 75.007598 
L 696.006752 74.73145 
L 696.403317 74.578035 
L 697.196447 74.455303 
L 698.782707 73.749592 
L 699.179272 73.688226 
L 699.972402 73.381395 
L 702.351792 72.982516 
L 703.144922 72.737051 
L 703.541487 72.675685 
L 704.334617 72.338171 
L 704.731182 72.276805 
L 705.127747 72.062024 
L 705.920877 71.386996 
L 709.886527 69.944892 
L 712.265916 69.300548 
L 712.662481 68.993717 
L 714.248741 68.288007 
L 715.835001 67.612979 
L 716.628131 67.367515 
L 717.817826 66.907269 
L 719.007521 66.354974 
L 721.783476 64.974236 
L 722.576606 64.667405 
L 724.559431 63.961695 
L 724.955996 63.624181 
L 725.352561 63.532132 
L 726.145691 63.041203 
L 727.335386 62.673006 
L 728.128516 62.366176 
L 728.921646 61.997979 
L 729.318211 61.967296 
L 731.301036 61.230902 
L 732.094166 61.077487 
L 732.887296 60.494509 
L 733.283861 60.494509 
L 734.870121 59.911531 
L 736.456381 59.574017 
L 738.042641 58.898989 
L 738.439206 58.898989 
L 739.628901 58.50011 
L 740.422031 58.377377 
L 741.215161 58.070547 
L 742.008291 57.456885 
L 743.594551 56.90459 
L 744.387681 56.659126 
L 745.180811 56.321612 
L 746.767071 55.8 
L 747.163636 55.8 
L 747.163636 55.8 
" clip-path="url(#p7906907b78)" style="fill: none; stroke: #1f77b4; stroke-width: 1.5; stroke-linecap: square"/>
   </g>
   <g id="line2d_38">
    <path d="M 138.832929 307.8 
L 142.402014 307.707951 
L 145.574534 307.554535 
L 147.160794 307.554535 
L 147.557359 307.431803 
L 149.540184 307.339754 
L 151.919574 307.063606 
L 154.298964 306.971557 
L 155.092094 306.879508 
L 157.868049 306.756776 
L 160.644004 306.664727 
L 162.626829 306.603361 
L 167.782174 306.511311 
L 169.764999 306.449945 
L 173.334084 306.357896 
L 174.920344 306.327213 
L 178.885993 306.235164 
L 180.472253 306.081748 
L 182.058513 306.051065 
L 184.437903 305.959016 
L 186.024163 305.928333 
L 188.006988 305.866967 
L 189.593248 305.713552 
L 193.162333 305.621502 
L 193.955463 305.560136 
L 195.541723 305.468087 
L 197.921113 305.376038 
L 199.507373 305.283989 
L 206.645543 304.823743 
L 209.421498 304.731694 
L 210.611193 304.608961 
L 212.594018 304.516912 
L 216.559668 304.302131 
L 220.525318 304.240765 
L 222.111578 304.056666 
L 224.094403 303.964617 
L 228.060053 303.565737 
L 230.439443 303.258907 
L 232.025703 303.19754 
L 235.198223 302.767978 
L 237.577613 302.706611 
L 238.767308 302.583879 
L 239.957003 302.49183 
L 251.060823 301.602021 
L 251.853953 301.448606 
L 254.233343 301.356557 
L 260.578383 300.957677 
L 263.354338 300.865628 
L 264.940598 300.681529 
L 266.923423 300.58948 
L 269.302813 300.497431 
L 271.285638 300.405382 
L 272.871898 300.374699 
L 274.854723 300.313333 
L 275.647853 300.1906 
L 281.199763 300.098551 
L 281.992893 300.006502 
L 286.751673 299.914453 
L 290.320758 299.730354 
L 293.096713 299.638305 
L 294.682973 299.454207 
L 297.458928 299.362158 
L 298.252058 299.239425 
L 300.234883 299.178059 
L 304.200533 299.116693 
L 305.786793 298.963278 
L 307.373053 298.932595 
L 308.562748 298.840545 
L 310.149008 298.68713 
L 314.114658 298.472349 
L 318.080308 298.3803 
L 321.649393 298.196201 
L 322.839088 298.165518 
L 323.632218 298.042786 
L 325.615043 297.950737 
L 326.408173 297.889371 
L 327.201303 297.828004 
L 327.994433 297.766638 
L 331.960083 297.674589 
L 340.684513 297.091611 
L 341.477643 297.030245 
L 342.667338 296.938196 
L 345.443293 296.846146 
L 347.426118 296.78478 
L 352.978028 296.692731 
L 353.771158 296.600682 
L 359.323068 296.508633 
L 363.288718 296.293851 
L 364.081848 296.263168 
L 364.874978 296.171119 
L 366.857803 296.07907 
L 368.840628 296.017704 
L 370.823453 295.925654 
L 372.806278 295.864288 
L 376.375363 295.772239 
L 378.754753 295.68019 
L 384.306663 295.588141 
L 388.668878 295.342676 
L 390.255138 295.28131 
L 391.444833 295.189261 
L 396.996743 295.097212 
L 399.376133 295.005163 
L 406.514303 294.913113 
L 408.100563 294.88243 
L 412.859343 294.821064 
L 413.652473 294.759698 
L 419.204383 294.667649 
L 420.790643 294.636966 
L 431.101333 294.544917 
L 433.480723 294.452867 
L 450.136452 294.360818 
L 452.119277 294.299452 
L 462.429967 294.238086 
L 463.223097 294.17672 
L 465.205922 294.115354 
L 466.395617 293.992621 
L 468.775007 293.900572 
L 471.550962 293.77784 
L 475.120047 293.685791 
L 477.102872 293.624425 
L 479.878827 293.532376 
L 483.051347 293.37896 
L 485.034172 293.286911 
L 486.620432 293.256228 
L 493.362037 293.164179 
L 495.741427 293.07213 
L 500.103642 292.98008 
L 502.879597 292.857348 
L 505.655552 292.795982 
L 506.448682 292.734616 
L 515.966242 292.642567 
L 519.931892 292.427785 
L 522.707847 292.335736 
L 527.070062 292.090272 
L 529.846017 291.998222 
L 531.432277 291.967539 
L 534.208232 291.87549 
L 536.191057 291.660709 
L 540.156707 291.568659 
L 540.949837 291.47661 
L 544.915487 291.384561 
L 546.898312 291.323195 
L 551.260527 291.292512 
L 552.053657 291.200463 
L 556.415872 291.108413 
L 557.209002 291.047047 
L 565.933432 290.954998 
L 568.312822 290.862949 
L 574.261297 290.7709 
L 575.847557 290.740217 
L 579.416642 290.678851 
L 580.209772 290.586801 
L 585.365117 290.494752 
L 587.347942 290.433386 
L 594.486112 290.341337 
L 595.675807 290.249288 
L 596.865502 290.157239 
L 598.055197 290.065189 
L 604.003672 289.97314 
L 606.383062 289.881091 
L 617.090317 289.789042 
L 620.659402 289.604943 
L 625.418182 289.543577 
L 626.211312 289.482211 
L 632.159787 289.420845 
L 632.952917 289.359479 
L 637.315132 289.26743 
L 638.901392 289.236747 
L 645.642997 289.144697 
L 646.436127 289.083331 
L 653.574297 288.991282 
L 655.160557 288.960599 
L 659.126207 288.86855 
L 661.902162 288.745818 
L 666.264377 288.653768 
L 669.040332 288.531036 
L 672.609417 288.438987 
L 673.402547 288.377621 
L 682.126977 288.285572 
L 684.506367 288.193522 
L 687.282322 288.101473 
L 689.265147 288.040107 
L 700.765532 287.948058 
L 703.144922 287.856009 
L 709.489962 287.76396 
L 711.869351 287.67191 
L 717.024696 287.579861 
L 719.404086 287.487812 
L 722.576606 287.395763 
L 724.955996 287.303714 
L 740.818596 287.211664 
L 743.991116 287.058249 
L 747.163636 287.058249 
L 747.163636 287.058249 
" clip-path="url(#p7906907b78)" style="fill: none; stroke: #ff7f0e; stroke-width: 1.5; stroke-linecap: square"/>
   </g>
   <g id="patch_3">
    <path d="M 108 320.4 
L 108 43.2 
" style="fill: none; stroke: #a9a9a9; stroke-width: 0.8; stroke-linejoin: miter; stroke-linecap: square"/>
   </g>
   <g id="patch_4">
    <path d="M 777.6 320.4 
L 777.6 43.2 
" style="fill: none"/>
   </g>
   <g id="patch_5">
    <path d="M 108 320.4 
L 777.6 320.4 
" style="fill: none; stroke: #a9a9a9; stroke-width: 0.8; stroke-linejoin: miter; stroke-linecap: square"/>
   </g>
   <g id="patch_6">
    <path d="M 108 43.2 
L 777.6 43.2 
" style="fill: none"/>
   </g>
   <g id="text_19">
    <!-- get_subscribe history -->
    <g style="fill: #a9a9a9" transform="translate(378.6075 37.2) scale(0.12 -0.12)">
     <defs>
      <path id="DejaVuSans-67" d="M 2906 1791 
Q 2906 2416 2648 2759 
Q 2391 3103 1925 3103 
Q 1463 3103 1205 2759 
Q 947 2416 947 1791 
Q 947 1169 1205 825 
Q 1463 481 1925 481 
Q 2391 481 2648 825 
Q 2906 1169 2906 1791 
z
M 3481 434 
Q 3481 -459 3084 -895 
Q 2688 -1331 1869 -1331 
Q 1566 -1331 1297 -1286 
Q 1028 -1241 775 -1147 
L 775 -588 
Q 1028 -725 1275 -790 
Q 1522 -856 1778 -856 
Q 2344 -856 2625 -561 
Q 2906 -266 2906 331 
L 2906 616 
Q 2728 306 2450 153 
Q 2172 0 1784 0 
Q 1141 0 747 490 
Q 353 981 353 1791 
Q 353 2603 747 3093 
Q 1141 3584 1784 3584 
Q 2172 3584 2450 3431 
Q 2728 3278 2906 2969 
L 2906 3500 
L 3481 3500 
L 3481 434 
z
" transform="scale(0.015625)"/>
      <path id="DejaVuSans-65" d="M 3597 1894 
L 3597 1613 
L 953 1613 
Q 991 1019 1311 708 
Q 1631 397 2203 397 
Q 2534 397 2845 478 
Q 3156 559 3463 722 
L 3463 178 
Q 3153 47 2828 -22 
Q 2503 -91 2169 -91 
Q 1331 -91 842 396 
Q 353 884 353 1716 
Q 353 2575 817 3079 
Q 1281 3584 2069 3584 
Q 2775 3584 3186 3129 
Q 3597 2675 3597 1894 
z
M 3022 2063 
Q 3016 2534 2758 2815 
Q 2500 3097 2075 3097 
Q 1594 3097 1305 2825 
Q 1016 2553 972 2059 
L 3022 2063 
z
" transform="scale(0.015625)"/>
      <path id="DejaVuSans-74" d="M 1172 4494 
L 1172 3500 
L 2356 3500 
L 2356 3053 
L 1172 3053 
L 1172 1153 
Q 1172 725 1289 603 
Q 1406 481 1766 481 
L 2356 481 
L 2356 0 
L 1766 0 
Q 1100 0 847 248 
Q 594 497 594 1153 
L 594 3053 
L 172 3053 
L 172 3500 
L 594 3500 
L 594 4494 
L 1172 4494 
z
" transform="scale(0.015625)"/>
      <path id="DejaVuSans-5f" d="M 3263 -1063 
L 3263 -1509 
L -63 -1509 
L -63 -1063 
L 3263 -1063 
z
" transform="scale(0.015625)"/>
      <path id="DejaVuSans-73" d="M 2834 3397 
L 2834 2853 
Q 2591 2978 2328 3040 
Q 2066 3103 1784 3103 
Q 1356 3103 1142 2972 
Q 928 2841 928 2578 
Q 928 2378 1081 2264 
Q 1234 2150 1697 2047 
L 1894 2003 
Q 2506 1872 2764 1633 
Q 3022 1394 3022 966 
Q 3022 478 2636 193 
Q 2250 -91 1575 -91 
Q 1294 -91 989 -36 
Q 684 19 347 128 
L 347 722 
Q 666 556 975 473 
Q 1284 391 1588 391 
Q 1994 391 2212 530 
Q 2431 669 2431 922 
Q 2431 1156 2273 1281 
Q 2116 1406 1581 1522 
L 1381 1569 
Q 847 1681 609 1914 
Q 372 2147 372 2553 
Q 372 3047 722 3315 
Q 1072 3584 1716 3584 
Q 2034 3584 2315 3537 
Q 2597 3491 2834 3397 
z
" transform="scale(0.015625)"/>
      <path id="DejaVuSans-75" d="M 544 1381 
L 544 3500 
L 1119 3500 
L 1119 1403 
Q 1119 906 1312 657 
Q 1506 409 1894 409 
Q 2359 409 2629 706 
Q 2900 1003 2900 1516 
L 2900 3500 
L 3475 3500 
L 3475 0 
L 2900 0 
L 2900 538 
Q 2691 219 2414 64 
Q 2138 -91 1772 -91 
Q 1169 -91 856 284 
Q 544 659 544 1381 
z
M 1991 3584 
L 1991 3584 
z
" transform="scale(0.015625)"/>
      <path id="DejaVuSans-62" d="M 3116 1747 
Q 3116 2381 2855 2742 
Q 2594 3103 2138 3103 
Q 1681 3103 1420 2742 
Q 1159 2381 1159 1747 
Q 1159 1113 1420 752 
Q 1681 391 2138 391 
Q 2594 391 2855 752 
Q 3116 1113 3116 1747 
z
M 1159 2969 
Q 1341 3281 1617 3432 
Q 1894 3584 2278 3584 
Q 2916 3584 3314 3078 
Q 3713 2572 3713 1747 
Q 3713 922 3314 415 
Q 2916 -91 2278 -91 
Q 1894 -91 1617 61 
Q 1341 213 1159 525 
L 1159 0 
L 581 0 
L 581 4863 
L 1159 4863 
L 1159 2969 
z
" transform="scale(0.015625)"/>
      <path id="DejaVuSans-63" d="M 3122 3366 
L 3122 2828 
Q 2878 2963 2633 3030 
Q 2388 3097 2138 3097 
Q 1578 3097 1268 2742 
Q 959 2388 959 1747 
Q 959 1106 1268 751 
Q 1578 397 2138 397 
Q 2388 397 2633 464 
Q 2878 531 3122 666 
L 3122 134 
Q 2881 22 2623 -34 
Q 2366 -91 2075 -91 
Q 1284 -91 818 406 
Q 353 903 353 1747 
Q 353 2603 823 3093 
Q 1294 3584 2113 3584 
Q 2378 3584 2631 3529 
Q 2884 3475 3122 3366 
z
" transform="scale(0.015625)"/>
      <path id="DejaVuSans-72" d="M 2631 2963 
Q 2534 3019 2420 3045 
Q 2306 3072 2169 3072 
Q 1681 3072 1420 2755 
Q 1159 2438 1159 1844 
L 1159 0 
L 581 0 
L 581 3500 
L 1159 3500 
L 1159 2956 
Q 1341 3275 1631 3429 
Q 1922 3584 2338 3584 
Q 2397 3584 2469 3576 
Q 2541 3569 2628 3553 
L 2631 2963 
z
" transform="scale(0.015625)"/>
      <path id="DejaVuSans-69" d="M 603 3500 
L 1178 3500 
L 1178 0 
L 603 0 
L 603 3500 
z
M 603 4863 
L 1178 4863 
L 1178 4134 
L 603 4134 
L 603 4863 
z
" transform="scale(0.015625)"/>
      <path id="DejaVuSans-20" transform="scale(0.015625)"/>
      <path id="DejaVuSans-68" d="M 3513 2113 
L 3513 0 
L 2938 0 
L 2938 2094 
Q 2938 2591 2744 2837 
Q 2550 3084 2163 3084 
Q 1697 3084 1428 2787 
Q 1159 2491 1159 1978 
L 1159 0 
L 581 0 
L 581 4863 
L 1159 4863 
L 1159 2956 
Q 1366 3272 1645 3428 
Q 1925 3584 2291 3584 
Q 2894 3584 3203 3211 
Q 3513 2838 3513 2113 
z
" transform="scale(0.015625)"/>
      <path id="DejaVuSans-6f" d="M 1959 3097 
Q 1497 3097 1228 2736 
Q 959 2375 959 1747 
Q 959 1119 1226 758 
Q 1494 397 1959 397 
Q 2419 397 2687 759 
Q 2956 1122 2956 1747 
Q 2956 2369 2687 2733 
Q 2419 3097 1959 3097 
z
M 1959 3584 
Q 2709 3584 3137 3096 
Q 3566 2609 3566 1747 
Q 3566 888 3137 398 
Q 2709 -91 1959 -91 
Q 1206 -91 779 398 
Q 353 888 353 1747 
Q 353 2609 779 3096 
Q 1206 3584 1959 3584 
z
" transform="scale(0.015625)"/>
      <path id="DejaVuSans-79" d="M 2059 -325 
Q 1816 -950 1584 -1140 
Q 1353 -1331 966 -1331 
L 506 -1331 
L 506 -850 
L 844 -850 
Q 1081 -850 1212 -737 
Q 1344 -625 1503 -206 
L 1606 56 
L 191 3500 
L 800 3500 
L 1894 763 
L 2988 3500 
L 3597 3500 
L 2059 -325 
z
" transform="scale(0.015625)"/>
     </defs>
     <use xlink:href="#DejaVuSans-67"/>
     <use xlink:href="#DejaVuSans-65" transform="translate(63.476562 0)"/>
     <use xlink:href="#DejaVuSans-74" transform="translate(125 0)"/>
     <use xlink:href="#DejaVuSans-5f" transform="translate(164.208984 0)"/>
     <use xlink:href="#DejaVuSans-73" transform="translate(214.208984 0)"/>
     <use xlink:href="#DejaVuSans-75" transform="translate(266.308594 0)"/>
     <use xlink:href="#DejaVuSans-62" transform="translate(329.6875 0)"/>
     <use xlink:href="#DejaVuSans-73" transform="translate(393.164062 0)"/>
     <use xlink:href="#DejaVuSans-63" transform="translate(445.263672 0)"/>
     <use xlink:href="#DejaVuSans-72" transform="translate(500.244141 0)"/>
     <use xlink:href="#DejaVuSans-69" transform="translate(541.357422 0)"/>
     <use xlink:href="#DejaVuSans-62" transform="translate(569.140625 0)"/>
     <use xlink:href="#DejaVuSans-65" transform="translate(632.617188 0)"/>
     <use xlink:href="#DejaVuSans-20" transform="translate(694.140625 0)"/>
     <use xlink:href="#DejaVuSans-68" transform="translate(725.927734 0)"/>
     <use xlink:href="#DejaVuSans-69" transform="translate(789.306641 0)"/>
     <use xlink:href="#DejaVuSans-73" transform="translate(817.089844 0)"/>
     <use xlink:href="#DejaVuSans-74" transform="translate(869.189453 0)"/>
     <use xlink:href="#DejaVuSans-6f" transform="translate(908.398438 0)"/>
     <use xlink:href="#DejaVuSans-72" transform="translate(969.580078 0)"/>
     <use xlink:href="#DejaVuSans-79" transform="translate(1010.693359 0)"/>
    </g>
   </g>
   <g id="legend_1">
    <g id="line2d_39">
     <path d="M 815.08 328.498438 
L 825.08 328.498438 
L 835.08 328.498438 
" style="fill: none; stroke: #1f77b4; stroke-width: 1.5; stroke-linecap: square"/>
    </g>
    <g id="text_20">
     <!-- star -->
     <g style="fill: #a9a9a9" transform="translate(843.08 331.998438) scale(0.1 -0.1)">
      <defs>
       <path id="DejaVuSans-61" d="M 2194 1759 
Q 1497 1759 1228 1600 
Q 959 1441 959 1056 
Q 959 750 1161 570 
Q 1363 391 1709 391 
Q 2188 391 2477 730 
Q 2766 1069 2766 1631 
L 2766 1759 
L 2194 1759 
z
M 3341 1997 
L 3341 0 
L 2766 0 
L 2766 531 
Q 2569 213 2275 61 
Q 1981 -91 1556 -91 
Q 1019 -91 701 211 
Q 384 513 384 1019 
Q 384 1609 779 1909 
Q 1175 2209 1959 2209 
L 2766 2209 
L 2766 2266 
Q 2766 2663 2505 2880 
Q 2244 3097 1772 3097 
Q 1472 3097 1187 3025 
Q 903 2953 641 2809 
L 641 3341 
Q 956 3463 1253 3523 
Q 1550 3584 1831 3584 
Q 2591 3584 2966 3190 
Q 3341 2797 3341 1997 
z
" transform="scale(0.015625)"/>
      </defs>
      <use xlink:href="#DejaVuSans-73"/>
      <use xlink:href="#DejaVuSans-74" transform="translate(52.099609 0)"/>
      <use xlink:href="#DejaVuSans-61" transform="translate(91.308594 0)"/>
      <use xlink:href="#DejaVuSans-72" transform="translate(152.587891 0)"/>
     </g>
    </g>
    <g id="line2d_40">
     <path d="M 815.08 343.176562 
L 825.08 343.176562 
L 835.08 343.176562 
" style="fill: none; stroke: #ff7f0e; stroke-width: 1.5; stroke-linecap: square"/>
    </g>
    <g id="text_21">
     <!-- fork -->
     <g style="fill: #a9a9a9" transform="translate(843.08 346.676562) scale(0.1 -0.1)">
      <defs>
       <path id="DejaVuSans-66" d="M 2375 4863 
L 2375 4384 
L 1825 4384 
Q 1516 4384 1395 4259 
Q 1275 4134 1275 3809 
L 1275 3500 
L 2222 3500 
L 2222 3053 
L 1275 3053 
L 1275 0 
L 697 0 
L 697 3053 
L 147 3053 
L 147 3500 
L 697 3500 
L 697 3744 
Q 697 4328 969 4595 
Q 1241 4863 1831 4863 
L 2375 4863 
z
" transform="scale(0.015625)"/>
       <path id="DejaVuSans-6b" d="M 581 4863 
L 1159 4863 
L 1159 1991 
L 2875 3500 
L 3609 3500 
L 1753 1863 
L 3688 0 
L 2938 0 
L 1159 1709 
L 1159 0 
L 581 0 
L 581 4863 
z
" transform="scale(0.015625)"/>
      </defs>
      <use xlink:href="#DejaVuSans-66"/>
      <use xlink:href="#DejaVuSans-6f" transform="translate(35.205078 0)"/>
      <use xlink:href="#DejaVuSans-72" transform="translate(96.386719 0)"/>
      <use xlink:href="#DejaVuSans-6b" transform="translate(137.5 0)"/>
     </g>
    </g>
   </g>
  </g>
 </g>
 <defs>
  <clipPath id="p7906907b78">
   <rect x="108" y="43.2" width="669.6" height="277.2"/>
  </clipPath>
 </defs>
</svg>
