<?xml version="1.0" encoding="utf-8" standalone="no"?>
<!DOCTYPE svg PUBLIC "-//W3C//DTD SVG 1.1//EN"
  "http://www.w3.org/Graphics/SVG/1.1/DTD/svg11.dtd">
<svg xmlns:xlink="http://www.w3.org/1999/xlink" width="864pt" height="360pt" viewBox="0 0 864 360" xmlns="http://www.w3.org/2000/svg" version="1.1">
 <metadata>
  <rdf:RDF xmlns:dc="http://purl.org/dc/elements/1.1/" xmlns:cc="http://creativecommons.org/ns#" xmlns:rdf="http://www.w3.org/1999/02/22-rdf-syntax-ns#">
   <cc:Work>
    <dc:type rdf:resource="http://purl.org/dc/dcmitype/StillImage"/>
    <dc:date>2024-12-19T20:06:20.189760</dc:date>
    <dc:format>image/svg+xml</dc:format>
    <dc:creator>
     <cc:Agent>
      <dc:title>Matplotlib v3.10.0, https://matplotlib.org/</dc:title>
     </cc:Agent>
    </dc:creator>
   </cc:Work>
  </rdf:RDF>
 </metadata>
 <defs>
  <style type="text/css">*{stroke-linejoin: round; stroke-linecap: butt}</style>
 </defs>
 <g id="figure_1">
  <g id="patch_1">
   <path d="M 0 360 
L 864 360 
L 864 0 
L 0 0 
L 0 360 
z
" style="fill: none; opacity: 0"/>
  </g>
  <g id="axes_1">
   <g id="patch_2">
    <path d="M 108 320.4 
L 777.6 320.4 
L 777.6 43.2 
L 108 43.2 
L 108 320.4 
z
" style="fill: none; opacity: 0"/>
   </g>
   <g id="matplotlib.axis_1">
    <g id="xtick_1">
     <g id="line2d_1">
      <path d="M 157.520257 320.4 
L 157.520257 43.2 
" clip-path="url(#pc622557d82)" style="fill: none; stroke-dasharray: 5.12,1.28,0.8,1.28; stroke-dashoffset: 0; stroke: #b0b0b0; stroke-width: 0.8"/>
     </g>
     <g id="line2d_2">
      <defs>
       <path id="m9e6861b494" d="M 0 0 
L 0 3.5 
" style="stroke: #a9a9a9; stroke-width: 0.8"/>
      </defs>
      <g>
       <use xlink:href="#m9e6861b494" x="157.520257" y="320.4" style="fill: #a9a9a9; stroke: #a9a9a9; stroke-width: 0.8"/>
      </g>
     </g>
     <g id="text_1">
      <!-- 2021-09 -->
      <g style="fill: #a9a9a9" transform="translate(136.628851 334.998438) scale(0.1 -0.1)">
       <defs>
        <path id="DejaVuSans-32" d="M 1228 531 
L 3431 531 
L 3431 0 
L 469 0 
L 469 531 
Q 828 903 1448 1529 
Q 2069 2156 2228 2338 
Q 2531 2678 2651 2914 
Q 2772 3150 2772 3378 
Q 2772 3750 2511 3984 
Q 2250 4219 1831 4219 
Q 1534 4219 1204 4116 
Q 875 4013 500 3803 
L 500 4441 
Q 881 4594 1212 4672 
Q 1544 4750 1819 4750 
Q 2544 4750 2975 4387 
Q 3406 4025 3406 3419 
Q 3406 3131 3298 2873 
Q 3191 2616 2906 2266 
Q 2828 2175 2409 1742 
Q 1991 1309 1228 531 
z
" transform="scale(0.015625)"/>
        <path id="DejaVuSans-30" d="M 2034 4250 
Q 1547 4250 1301 3770 
Q 1056 3291 1056 2328 
Q 1056 1369 1301 889 
Q 1547 409 2034 409 
Q 2525 409 2770 889 
Q 3016 1369 3016 2328 
Q 3016 3291 2770 3770 
Q 2525 4250 2034 4250 
z
M 2034 4750 
Q 2819 4750 3233 4129 
Q 3647 3509 3647 2328 
Q 3647 1150 3233 529 
Q 2819 -91 2034 -91 
Q 1250 -91 836 529 
Q 422 1150 422 2328 
Q 422 3509 836 4129 
Q 1250 4750 2034 4750 
z
" transform="scale(0.015625)"/>
        <path id="DejaVuSans-31" d="M 794 531 
L 1825 531 
L 1825 4091 
L 703 3866 
L 703 4441 
L 1819 4666 
L 2450 4666 
L 2450 531 
L 3481 531 
L 3481 0 
L 794 0 
L 794 531 
z
" transform="scale(0.015625)"/>
        <path id="DejaVuSans-2d" d="M 313 2009 
L 1997 2009 
L 1997 1497 
L 313 1497 
L 313 2009 
z
" transform="scale(0.015625)"/>
        <path id="DejaVuSans-39" d="M 703 97 
L 703 672 
Q 941 559 1184 500 
Q 1428 441 1663 441 
Q 2288 441 2617 861 
Q 2947 1281 2994 2138 
Q 2813 1869 2534 1725 
Q 2256 1581 1919 1581 
Q 1219 1581 811 2004 
Q 403 2428 403 3163 
Q 403 3881 828 4315 
Q 1253 4750 1959 4750 
Q 2769 4750 3195 4129 
Q 3622 3509 3622 2328 
Q 3622 1225 3098 567 
Q 2575 -91 1691 -91 
Q 1453 -91 1209 -44 
Q 966 3 703 97 
z
M 1959 2075 
Q 2384 2075 2632 2365 
Q 2881 2656 2881 3163 
Q 2881 3666 2632 3958 
Q 2384 4250 1959 4250 
Q 1534 4250 1286 3958 
Q 1038 3666 1038 3163 
Q 1038 2656 1286 2365 
Q 1534 2075 1959 2075 
z
" transform="scale(0.015625)"/>
       </defs>
       <use xlink:href="#DejaVuSans-32"/>
       <use xlink:href="#DejaVuSans-30" transform="translate(63.623047 0)"/>
       <use xlink:href="#DejaVuSans-32" transform="translate(127.246094 0)"/>
       <use xlink:href="#DejaVuSans-31" transform="translate(190.869141 0)"/>
       <use xlink:href="#DejaVuSans-2d" transform="translate(254.492188 0)"/>
       <use xlink:href="#DejaVuSans-30" transform="translate(290.576172 0)"/>
       <use xlink:href="#DejaVuSans-39" transform="translate(354.199219 0)"/>
      </g>
     </g>
    </g>
    <g id="xtick_2">
     <g id="line2d_3">
      <path d="M 217.218591 320.4 
L 217.218591 43.2 
" clip-path="url(#pc622557d82)" style="fill: none; stroke-dasharray: 5.12,1.28,0.8,1.28; stroke-dashoffset: 0; stroke: #b0b0b0; stroke-width: 0.8"/>
     </g>
     <g id="line2d_4">
      <g>
       <use xlink:href="#m9e6861b494" x="217.218591" y="320.4" style="fill: #a9a9a9; stroke: #a9a9a9; stroke-width: 0.8"/>
      </g>
     </g>
     <g id="text_2">
      <!-- 2022-01 -->
      <g style="fill: #a9a9a9" transform="translate(196.327185 334.998438) scale(0.1 -0.1)">
       <use xlink:href="#DejaVuSans-32"/>
       <use xlink:href="#DejaVuSans-30" transform="translate(63.623047 0)"/>
       <use xlink:href="#DejaVuSans-32" transform="translate(127.246094 0)"/>
       <use xlink:href="#DejaVuSans-32" transform="translate(190.869141 0)"/>
       <use xlink:href="#DejaVuSans-2d" transform="translate(254.492188 0)"/>
       <use xlink:href="#DejaVuSans-30" transform="translate(290.576172 0)"/>
       <use xlink:href="#DejaVuSans-31" transform="translate(354.199219 0)"/>
      </g>
     </g>
    </g>
    <g id="xtick_3">
     <g id="line2d_5">
      <path d="M 275.938264 320.4 
L 275.938264 43.2 
" clip-path="url(#pc622557d82)" style="fill: none; stroke-dasharray: 5.12,1.28,0.8,1.28; stroke-dashoffset: 0; stroke: #b0b0b0; stroke-width: 0.8"/>
     </g>
     <g id="line2d_6">
      <g>
       <use xlink:href="#m9e6861b494" x="275.938264" y="320.4" style="fill: #a9a9a9; stroke: #a9a9a9; stroke-width: 0.8"/>
      </g>
     </g>
     <g id="text_3">
      <!-- 2022-05 -->
      <g style="fill: #a9a9a9" transform="translate(255.046857 334.998438) scale(0.1 -0.1)">
       <defs>
        <path id="DejaVuSans-35" d="M 691 4666 
L 3169 4666 
L 3169 4134 
L 1269 4134 
L 1269 2991 
Q 1406 3038 1543 3061 
Q 1681 3084 1819 3084 
Q 2600 3084 3056 2656 
Q 3513 2228 3513 1497 
Q 3513 744 3044 326 
Q 2575 -91 1722 -91 
Q 1428 -91 1123 -41 
Q 819 9 494 109 
L 494 744 
Q 775 591 1075 516 
Q 1375 441 1709 441 
Q 2250 441 2565 725 
Q 2881 1009 2881 1497 
Q 2881 1984 2565 2268 
Q 2250 2553 1709 2553 
Q 1456 2553 1204 2497 
Q 953 2441 691 2322 
L 691 4666 
z
" transform="scale(0.015625)"/>
       </defs>
       <use xlink:href="#DejaVuSans-32"/>
       <use xlink:href="#DejaVuSans-30" transform="translate(63.623047 0)"/>
       <use xlink:href="#DejaVuSans-32" transform="translate(127.246094 0)"/>
       <use xlink:href="#DejaVuSans-32" transform="translate(190.869141 0)"/>
       <use xlink:href="#DejaVuSans-2d" transform="translate(254.492188 0)"/>
       <use xlink:href="#DejaVuSans-30" transform="translate(290.576172 0)"/>
       <use xlink:href="#DejaVuSans-35" transform="translate(354.199219 0)"/>
      </g>
     </g>
    </g>
    <g id="xtick_4">
     <g id="line2d_7">
      <path d="M 336.125928 320.4 
L 336.125928 43.2 
" clip-path="url(#pc622557d82)" style="fill: none; stroke-dasharray: 5.12,1.28,0.8,1.28; stroke-dashoffset: 0; stroke: #b0b0b0; stroke-width: 0.8"/>
     </g>
     <g id="line2d_8">
      <g>
       <use xlink:href="#m9e6861b494" x="336.125928" y="320.4" style="fill: #a9a9a9; stroke: #a9a9a9; stroke-width: 0.8"/>
      </g>
     </g>
     <g id="text_4">
      <!-- 2022-09 -->
      <g style="fill: #a9a9a9" transform="translate(315.234522 334.998438) scale(0.1 -0.1)">
       <use xlink:href="#DejaVuSans-32"/>
       <use xlink:href="#DejaVuSans-30" transform="translate(63.623047 0)"/>
       <use xlink:href="#DejaVuSans-32" transform="translate(127.246094 0)"/>
       <use xlink:href="#DejaVuSans-32" transform="translate(190.869141 0)"/>
       <use xlink:href="#DejaVuSans-2d" transform="translate(254.492188 0)"/>
       <use xlink:href="#DejaVuSans-30" transform="translate(290.576172 0)"/>
       <use xlink:href="#DejaVuSans-39" transform="translate(354.199219 0)"/>
      </g>
     </g>
    </g>
    <g id="xtick_5">
     <g id="line2d_9">
      <path d="M 395.824262 320.4 
L 395.824262 43.2 
" clip-path="url(#pc622557d82)" style="fill: none; stroke-dasharray: 5.12,1.28,0.8,1.28; stroke-dashoffset: 0; stroke: #b0b0b0; stroke-width: 0.8"/>
     </g>
     <g id="line2d_10">
      <g>
       <use xlink:href="#m9e6861b494" x="395.824262" y="320.4" style="fill: #a9a9a9; stroke: #a9a9a9; stroke-width: 0.8"/>
      </g>
     </g>
     <g id="text_5">
      <!-- 2023-01 -->
      <g style="fill: #a9a9a9" transform="translate(374.932856 334.998438) scale(0.1 -0.1)">
       <defs>
        <path id="DejaVuSans-33" d="M 2597 2516 
Q 3050 2419 3304 2112 
Q 3559 1806 3559 1356 
Q 3559 666 3084 287 
Q 2609 -91 1734 -91 
Q 1441 -91 1130 -33 
Q 819 25 488 141 
L 488 750 
Q 750 597 1062 519 
Q 1375 441 1716 441 
Q 2309 441 2620 675 
Q 2931 909 2931 1356 
Q 2931 1769 2642 2001 
Q 2353 2234 1838 2234 
L 1294 2234 
L 1294 2753 
L 1863 2753 
Q 2328 2753 2575 2939 
Q 2822 3125 2822 3475 
Q 2822 3834 2567 4026 
Q 2313 4219 1838 4219 
Q 1578 4219 1281 4162 
Q 984 4106 628 3988 
L 628 4550 
Q 988 4650 1302 4700 
Q 1616 4750 1894 4750 
Q 2613 4750 3031 4423 
Q 3450 4097 3450 3541 
Q 3450 3153 3228 2886 
Q 3006 2619 2597 2516 
z
" transform="scale(0.015625)"/>
       </defs>
       <use xlink:href="#DejaVuSans-32"/>
       <use xlink:href="#DejaVuSans-30" transform="translate(63.623047 0)"/>
       <use xlink:href="#DejaVuSans-32" transform="translate(127.246094 0)"/>
       <use xlink:href="#DejaVuSans-33" transform="translate(190.869141 0)"/>
       <use xlink:href="#DejaVuSans-2d" transform="translate(254.492188 0)"/>
       <use xlink:href="#DejaVuSans-30" transform="translate(290.576172 0)"/>
       <use xlink:href="#DejaVuSans-31" transform="translate(354.199219 0)"/>
      </g>
     </g>
    </g>
    <g id="xtick_6">
     <g id="line2d_11">
      <path d="M 454.543935 320.4 
L 454.543935 43.2 
" clip-path="url(#pc622557d82)" style="fill: none; stroke-dasharray: 5.12,1.28,0.8,1.28; stroke-dashoffset: 0; stroke: #b0b0b0; stroke-width: 0.8"/>
     </g>
     <g id="line2d_12">
      <g>
       <use xlink:href="#m9e6861b494" x="454.543935" y="320.4" style="fill: #a9a9a9; stroke: #a9a9a9; stroke-width: 0.8"/>
      </g>
     </g>
     <g id="text_6">
      <!-- 2023-05 -->
      <g style="fill: #a9a9a9" transform="translate(433.652528 334.998438) scale(0.1 -0.1)">
       <use xlink:href="#DejaVuSans-32"/>
       <use xlink:href="#DejaVuSans-30" transform="translate(63.623047 0)"/>
       <use xlink:href="#DejaVuSans-32" transform="translate(127.246094 0)"/>
       <use xlink:href="#DejaVuSans-33" transform="translate(190.869141 0)"/>
       <use xlink:href="#DejaVuSans-2d" transform="translate(254.492188 0)"/>
       <use xlink:href="#DejaVuSans-30" transform="translate(290.576172 0)"/>
       <use xlink:href="#DejaVuSans-35" transform="translate(354.199219 0)"/>
      </g>
     </g>
    </g>
    <g id="xtick_7">
     <g id="line2d_13">
      <path d="M 514.731599 320.4 
L 514.731599 43.2 
" clip-path="url(#pc622557d82)" style="fill: none; stroke-dasharray: 5.12,1.28,0.8,1.28; stroke-dashoffset: 0; stroke: #b0b0b0; stroke-width: 0.8"/>
     </g>
     <g id="line2d_14">
      <g>
       <use xlink:href="#m9e6861b494" x="514.731599" y="320.4" style="fill: #a9a9a9; stroke: #a9a9a9; stroke-width: 0.8"/>
      </g>
     </g>
     <g id="text_7">
      <!-- 2023-09 -->
      <g style="fill: #a9a9a9" transform="translate(493.840193 334.998438) scale(0.1 -0.1)">
       <use xlink:href="#DejaVuSans-32"/>
       <use xlink:href="#DejaVuSans-30" transform="translate(63.623047 0)"/>
       <use xlink:href="#DejaVuSans-32" transform="translate(127.246094 0)"/>
       <use xlink:href="#DejaVuSans-33" transform="translate(190.869141 0)"/>
       <use xlink:href="#DejaVuSans-2d" transform="translate(254.492188 0)"/>
       <use xlink:href="#DejaVuSans-30" transform="translate(290.576172 0)"/>
       <use xlink:href="#DejaVuSans-39" transform="translate(354.199219 0)"/>
      </g>
     </g>
    </g>
    <g id="xtick_8">
     <g id="line2d_15">
      <path d="M 574.429933 320.4 
L 574.429933 43.2 
" clip-path="url(#pc622557d82)" style="fill: none; stroke-dasharray: 5.12,1.28,0.8,1.28; stroke-dashoffset: 0; stroke: #b0b0b0; stroke-width: 0.8"/>
     </g>
     <g id="line2d_16">
      <g>
       <use xlink:href="#m9e6861b494" x="574.429933" y="320.4" style="fill: #a9a9a9; stroke: #a9a9a9; stroke-width: 0.8"/>
      </g>
     </g>
     <g id="text_8">
      <!-- 2024-01 -->
      <g style="fill: #a9a9a9" transform="translate(553.538527 334.998438) scale(0.1 -0.1)">
       <defs>
        <path id="DejaVuSans-34" d="M 2419 4116 
L 825 1625 
L 2419 1625 
L 2419 4116 
z
M 2253 4666 
L 3047 4666 
L 3047 1625 
L 3713 1625 
L 3713 1100 
L 3047 1100 
L 3047 0 
L 2419 0 
L 2419 1100 
L 313 1100 
L 313 1709 
L 2253 4666 
z
" transform="scale(0.015625)"/>
       </defs>
       <use xlink:href="#DejaVuSans-32"/>
       <use xlink:href="#DejaVuSans-30" transform="translate(63.623047 0)"/>
       <use xlink:href="#DejaVuSans-32" transform="translate(127.246094 0)"/>
       <use xlink:href="#DejaVuSans-34" transform="translate(190.869141 0)"/>
       <use xlink:href="#DejaVuSans-2d" transform="translate(254.492188 0)"/>
       <use xlink:href="#DejaVuSans-30" transform="translate(290.576172 0)"/>
       <use xlink:href="#DejaVuSans-31" transform="translate(354.199219 0)"/>
      </g>
     </g>
    </g>
    <g id="xtick_9">
     <g id="line2d_17">
      <path d="M 633.638936 320.4 
L 633.638936 43.2 
" clip-path="url(#pc622557d82)" style="fill: none; stroke-dasharray: 5.12,1.28,0.8,1.28; stroke-dashoffset: 0; stroke: #b0b0b0; stroke-width: 0.8"/>
     </g>
     <g id="line2d_18">
      <g>
       <use xlink:href="#m9e6861b494" x="633.638936" y="320.4" style="fill: #a9a9a9; stroke: #a9a9a9; stroke-width: 0.8"/>
      </g>
     </g>
     <g id="text_9">
      <!-- 2024-05 -->
      <g style="fill: #a9a9a9" transform="translate(612.74753 334.998438) scale(0.1 -0.1)">
       <use xlink:href="#DejaVuSans-32"/>
       <use xlink:href="#DejaVuSans-30" transform="translate(63.623047 0)"/>
       <use xlink:href="#DejaVuSans-32" transform="translate(127.246094 0)"/>
       <use xlink:href="#DejaVuSans-34" transform="translate(190.869141 0)"/>
       <use xlink:href="#DejaVuSans-2d" transform="translate(254.492188 0)"/>
       <use xlink:href="#DejaVuSans-30" transform="translate(290.576172 0)"/>
       <use xlink:href="#DejaVuSans-35" transform="translate(354.199219 0)"/>
      </g>
     </g>
    </g>
    <g id="xtick_10">
     <g id="line2d_19">
      <path d="M 693.8266 320.4 
L 693.8266 43.2 
" clip-path="url(#pc622557d82)" style="fill: none; stroke-dasharray: 5.12,1.28,0.8,1.28; stroke-dashoffset: 0; stroke: #b0b0b0; stroke-width: 0.8"/>
     </g>
     <g id="line2d_20">
      <g>
       <use xlink:href="#m9e6861b494" x="693.8266" y="320.4" style="fill: #a9a9a9; stroke: #a9a9a9; stroke-width: 0.8"/>
      </g>
     </g>
     <g id="text_10">
      <!-- 2024-09 -->
      <g style="fill: #a9a9a9" transform="translate(672.935194 334.998438) scale(0.1 -0.1)">
       <use xlink:href="#DejaVuSans-32"/>
       <use xlink:href="#DejaVuSans-30" transform="translate(63.623047 0)"/>
       <use xlink:href="#DejaVuSans-32" transform="translate(127.246094 0)"/>
       <use xlink:href="#DejaVuSans-34" transform="translate(190.869141 0)"/>
       <use xlink:href="#DejaVuSans-2d" transform="translate(254.492188 0)"/>
       <use xlink:href="#DejaVuSans-30" transform="translate(290.576172 0)"/>
       <use xlink:href="#DejaVuSans-39" transform="translate(354.199219 0)"/>
      </g>
     </g>
    </g>
    <g id="xtick_11">
     <g id="line2d_21">
      <path d="M 753.524934 320.4 
L 753.524934 43.2 
" clip-path="url(#pc622557d82)" style="fill: none; stroke-dasharray: 5.12,1.28,0.8,1.28; stroke-dashoffset: 0; stroke: #b0b0b0; stroke-width: 0.8"/>
     </g>
     <g id="line2d_22">
      <g>
       <use xlink:href="#m9e6861b494" x="753.524934" y="320.4" style="fill: #a9a9a9; stroke: #a9a9a9; stroke-width: 0.8"/>
      </g>
     </g>
     <g id="text_11">
      <!-- 2025-01 -->
      <g style="fill: #a9a9a9" transform="translate(732.633528 334.998438) scale(0.1 -0.1)">
       <use xlink:href="#DejaVuSans-32"/>
       <use xlink:href="#DejaVuSans-30" transform="translate(63.623047 0)"/>
       <use xlink:href="#DejaVuSans-32" transform="translate(127.246094 0)"/>
       <use xlink:href="#DejaVuSans-35" transform="translate(190.869141 0)"/>
       <use xlink:href="#DejaVuSans-2d" transform="translate(254.492188 0)"/>
       <use xlink:href="#DejaVuSans-30" transform="translate(290.576172 0)"/>
       <use xlink:href="#DejaVuSans-31" transform="translate(354.199219 0)"/>
      </g>
     </g>
    </g>
   </g>
   <g id="matplotlib.axis_2">
    <g id="ytick_1">
     <g id="line2d_23">
      <path d="M 108 307.835458 
L 777.6 307.835458 
" clip-path="url(#pc622557d82)" style="fill: none; stroke-dasharray: 5.12,1.28,0.8,1.28; stroke-dashoffset: 0; stroke: #b0b0b0; stroke-width: 0.8"/>
     </g>
     <g id="line2d_24">
      <defs>
       <path id="m54e8fd6d7e" d="M 0 0 
L -3.5 0 
" style="stroke: #a9a9a9; stroke-width: 0.8"/>
      </defs>
      <g>
       <use xlink:href="#m54e8fd6d7e" x="108" y="307.835458" style="fill: #a9a9a9; stroke: #a9a9a9; stroke-width: 0.8"/>
      </g>
     </g>
     <g id="text_12">
      <!-- 0 -->
      <g style="fill: #a9a9a9" transform="translate(94.6375 311.634677) scale(0.1 -0.1)">
       <use xlink:href="#DejaVuSans-30"/>
      </g>
     </g>
    </g>
    <g id="ytick_2">
     <g id="line2d_25">
      <path d="M 108 279.469059 
L 777.6 279.469059 
" clip-path="url(#pc622557d82)" style="fill: none; stroke-dasharray: 5.12,1.28,0.8,1.28; stroke-dashoffset: 0; stroke: #b0b0b0; stroke-width: 0.8"/>
     </g>
     <g id="line2d_26">
      <g>
       <use xlink:href="#m54e8fd6d7e" x="108" y="279.469059" style="fill: #a9a9a9; stroke: #a9a9a9; stroke-width: 0.8"/>
      </g>
     </g>
     <g id="text_13">
      <!-- 800 -->
      <g style="fill: #a9a9a9" transform="translate(81.9125 283.268277) scale(0.1 -0.1)">
       <defs>
        <path id="DejaVuSans-38" d="M 2034 2216 
Q 1584 2216 1326 1975 
Q 1069 1734 1069 1313 
Q 1069 891 1326 650 
Q 1584 409 2034 409 
Q 2484 409 2743 651 
Q 3003 894 3003 1313 
Q 3003 1734 2745 1975 
Q 2488 2216 2034 2216 
z
M 1403 2484 
Q 997 2584 770 2862 
Q 544 3141 544 3541 
Q 544 4100 942 4425 
Q 1341 4750 2034 4750 
Q 2731 4750 3128 4425 
Q 3525 4100 3525 3541 
Q 3525 3141 3298 2862 
Q 3072 2584 2669 2484 
Q 3125 2378 3379 2068 
Q 3634 1759 3634 1313 
Q 3634 634 3220 271 
Q 2806 -91 2034 -91 
Q 1263 -91 848 271 
Q 434 634 434 1313 
Q 434 1759 690 2068 
Q 947 2378 1403 2484 
z
M 1172 3481 
Q 1172 3119 1398 2916 
Q 1625 2713 2034 2713 
Q 2441 2713 2670 2916 
Q 2900 3119 2900 3481 
Q 2900 3844 2670 4047 
Q 2441 4250 2034 4250 
Q 1625 4250 1398 4047 
Q 1172 3844 1172 3481 
z
" transform="scale(0.015625)"/>
       </defs>
       <use xlink:href="#DejaVuSans-38"/>
       <use xlink:href="#DejaVuSans-30" transform="translate(63.623047 0)"/>
       <use xlink:href="#DejaVuSans-30" transform="translate(127.246094 0)"/>
      </g>
     </g>
    </g>
    <g id="ytick_3">
     <g id="line2d_27">
      <path d="M 108 251.102659 
L 777.6 251.102659 
" clip-path="url(#pc622557d82)" style="fill: none; stroke-dasharray: 5.12,1.28,0.8,1.28; stroke-dashoffset: 0; stroke: #b0b0b0; stroke-width: 0.8"/>
     </g>
     <g id="line2d_28">
      <g>
       <use xlink:href="#m54e8fd6d7e" x="108" y="251.102659" style="fill: #a9a9a9; stroke: #a9a9a9; stroke-width: 0.8"/>
      </g>
     </g>
     <g id="text_14">
      <!-- 1600 -->
      <g style="fill: #a9a9a9" transform="translate(75.55 254.901878) scale(0.1 -0.1)">
       <defs>
        <path id="DejaVuSans-36" d="M 2113 2584 
Q 1688 2584 1439 2293 
Q 1191 2003 1191 1497 
Q 1191 994 1439 701 
Q 1688 409 2113 409 
Q 2538 409 2786 701 
Q 3034 994 3034 1497 
Q 3034 2003 2786 2293 
Q 2538 2584 2113 2584 
z
M 3366 4563 
L 3366 3988 
Q 3128 4100 2886 4159 
Q 2644 4219 2406 4219 
Q 1781 4219 1451 3797 
Q 1122 3375 1075 2522 
Q 1259 2794 1537 2939 
Q 1816 3084 2150 3084 
Q 2853 3084 3261 2657 
Q 3669 2231 3669 1497 
Q 3669 778 3244 343 
Q 2819 -91 2113 -91 
Q 1303 -91 875 529 
Q 447 1150 447 2328 
Q 447 3434 972 4092 
Q 1497 4750 2381 4750 
Q 2619 4750 2861 4703 
Q 3103 4656 3366 4563 
z
" transform="scale(0.015625)"/>
       </defs>
       <use xlink:href="#DejaVuSans-31"/>
       <use xlink:href="#DejaVuSans-36" transform="translate(63.623047 0)"/>
       <use xlink:href="#DejaVuSans-30" transform="translate(127.246094 0)"/>
       <use xlink:href="#DejaVuSans-30" transform="translate(190.869141 0)"/>
      </g>
     </g>
    </g>
    <g id="ytick_4">
     <g id="line2d_29">
      <path d="M 108 222.73626 
L 777.6 222.73626 
" clip-path="url(#pc622557d82)" style="fill: none; stroke-dasharray: 5.12,1.28,0.8,1.28; stroke-dashoffset: 0; stroke: #b0b0b0; stroke-width: 0.8"/>
     </g>
     <g id="line2d_30">
      <g>
       <use xlink:href="#m54e8fd6d7e" x="108" y="222.73626" style="fill: #a9a9a9; stroke: #a9a9a9; stroke-width: 0.8"/>
      </g>
     </g>
     <g id="text_15">
      <!-- 2400 -->
      <g style="fill: #a9a9a9" transform="translate(75.55 226.535479) scale(0.1 -0.1)">
       <use xlink:href="#DejaVuSans-32"/>
       <use xlink:href="#DejaVuSans-34" transform="translate(63.623047 0)"/>
       <use xlink:href="#DejaVuSans-30" transform="translate(127.246094 0)"/>
       <use xlink:href="#DejaVuSans-30" transform="translate(190.869141 0)"/>
      </g>
     </g>
    </g>
    <g id="ytick_5">
     <g id="line2d_31">
      <path d="M 108 194.369861 
L 777.6 194.369861 
" clip-path="url(#pc622557d82)" style="fill: none; stroke-dasharray: 5.12,1.28,0.8,1.28; stroke-dashoffset: 0; stroke: #b0b0b0; stroke-width: 0.8"/>
     </g>
     <g id="line2d_32">
      <g>
       <use xlink:href="#m54e8fd6d7e" x="108" y="194.369861" style="fill: #a9a9a9; stroke: #a9a9a9; stroke-width: 0.8"/>
      </g>
     </g>
     <g id="text_16">
      <!-- 3200 -->
      <g style="fill: #a9a9a9" transform="translate(75.55 198.169079) scale(0.1 -0.1)">
       <use xlink:href="#DejaVuSans-33"/>
       <use xlink:href="#DejaVuSans-32" transform="translate(63.623047 0)"/>
       <use xlink:href="#DejaVuSans-30" transform="translate(127.246094 0)"/>
       <use xlink:href="#DejaVuSans-30" transform="translate(190.869141 0)"/>
      </g>
     </g>
    </g>
    <g id="ytick_6">
     <g id="line2d_33">
      <path d="M 108 166.003461 
L 777.6 166.003461 
" clip-path="url(#pc622557d82)" style="fill: none; stroke-dasharray: 5.12,1.28,0.8,1.28; stroke-dashoffset: 0; stroke: #b0b0b0; stroke-width: 0.8"/>
     </g>
     <g id="line2d_34">
      <g>
       <use xlink:href="#m54e8fd6d7e" x="108" y="166.003461" style="fill: #a9a9a9; stroke: #a9a9a9; stroke-width: 0.8"/>
      </g>
     </g>
     <g id="text_17">
      <!-- 4000 -->
      <g style="fill: #a9a9a9" transform="translate(75.55 169.80268) scale(0.1 -0.1)">
       <use xlink:href="#DejaVuSans-34"/>
       <use xlink:href="#DejaVuSans-30" transform="translate(63.623047 0)"/>
       <use xlink:href="#DejaVuSans-30" transform="translate(127.246094 0)"/>
       <use xlink:href="#DejaVuSans-30" transform="translate(190.869141 0)"/>
      </g>
     </g>
    </g>
    <g id="ytick_7">
     <g id="line2d_35">
      <path d="M 108 137.637062 
L 777.6 137.637062 
" clip-path="url(#pc622557d82)" style="fill: none; stroke-dasharray: 5.12,1.28,0.8,1.28; stroke-dashoffset: 0; stroke: #b0b0b0; stroke-width: 0.8"/>
     </g>
     <g id="line2d_36">
      <g>
       <use xlink:href="#m54e8fd6d7e" x="108" y="137.637062" style="fill: #a9a9a9; stroke: #a9a9a9; stroke-width: 0.8"/>
      </g>
     </g>
     <g id="text_18">
      <!-- 4800 -->
      <g style="fill: #a9a9a9" transform="translate(75.55 141.436281) scale(0.1 -0.1)">
       <use xlink:href="#DejaVuSans-34"/>
       <use xlink:href="#DejaVuSans-38" transform="translate(63.623047 0)"/>
       <use xlink:href="#DejaVuSans-30" transform="translate(127.246094 0)"/>
       <use xlink:href="#DejaVuSans-30" transform="translate(190.869141 0)"/>
      </g>
     </g>
    </g>
    <g id="ytick_8">
     <g id="line2d_37">
      <path d="M 108 109.270663 
L 777.6 109.270663 
" clip-path="url(#pc622557d82)" style="fill: none; stroke-dasharray: 5.12,1.28,0.8,1.28; stroke-dashoffset: 0; stroke: #b0b0b0; stroke-width: 0.8"/>
     </g>
     <g id="line2d_38">
      <g>
       <use xlink:href="#m54e8fd6d7e" x="108" y="109.270663" style="fill: #a9a9a9; stroke: #a9a9a9; stroke-width: 0.8"/>
      </g>
     </g>
     <g id="text_19">
      <!-- 5600 -->
      <g style="fill: #a9a9a9" transform="translate(75.55 113.069881) scale(0.1 -0.1)">
       <use xlink:href="#DejaVuSans-35"/>
       <use xlink:href="#DejaVuSans-36" transform="translate(63.623047 0)"/>
       <use xlink:href="#DejaVuSans-30" transform="translate(127.246094 0)"/>
       <use xlink:href="#DejaVuSans-30" transform="translate(190.869141 0)"/>
      </g>
     </g>
    </g>
    <g id="ytick_9">
     <g id="line2d_39">
      <path d="M 108 80.904263 
L 777.6 80.904263 
" clip-path="url(#pc622557d82)" style="fill: none; stroke-dasharray: 5.12,1.28,0.8,1.28; stroke-dashoffset: 0; stroke: #b0b0b0; stroke-width: 0.8"/>
     </g>
     <g id="line2d_40">
      <g>
       <use xlink:href="#m54e8fd6d7e" x="108" y="80.904263" style="fill: #a9a9a9; stroke: #a9a9a9; stroke-width: 0.8"/>
      </g>
     </g>
     <g id="text_20">
      <!-- 6400 -->
      <g style="fill: #a9a9a9" transform="translate(75.55 84.703482) scale(0.1 -0.1)">
       <use xlink:href="#DejaVuSans-36"/>
       <use xlink:href="#DejaVuSans-34" transform="translate(63.623047 0)"/>
       <use xlink:href="#DejaVuSans-30" transform="translate(127.246094 0)"/>
       <use xlink:href="#DejaVuSans-30" transform="translate(190.869141 0)"/>
      </g>
     </g>
    </g>
    <g id="ytick_10">
     <g id="line2d_41">
      <path d="M 108 52.537864 
L 777.6 52.537864 
" clip-path="url(#pc622557d82)" style="fill: none; stroke-dasharray: 5.12,1.28,0.8,1.28; stroke-dashoffset: 0; stroke: #b0b0b0; stroke-width: 0.8"/>
     </g>
     <g id="line2d_42">
      <g>
       <use xlink:href="#m54e8fd6d7e" x="108" y="52.537864" style="fill: #a9a9a9; stroke: #a9a9a9; stroke-width: 0.8"/>
      </g>
     </g>
     <g id="text_21">
      <!-- 7200 -->
      <g style="fill: #a9a9a9" transform="translate(75.55 56.337083) scale(0.1 -0.1)">
       <defs>
        <path id="DejaVuSans-37" d="M 525 4666 
L 3525 4666 
L 3525 4397 
L 1831 0 
L 1172 0 
L 2766 4134 
L 525 4134 
L 525 4666 
z
" transform="scale(0.015625)"/>
       </defs>
       <use xlink:href="#DejaVuSans-37"/>
       <use xlink:href="#DejaVuSans-32" transform="translate(63.623047 0)"/>
       <use xlink:href="#DejaVuSans-30" transform="translate(127.246094 0)"/>
       <use xlink:href="#DejaVuSans-30" transform="translate(190.869141 0)"/>
      </g>
     </g>
    </g>
   </g>
   <g id="line2d_43">
    <path d="M 138.436364 307.729084 
L 141.372347 307.480878 
L 141.861678 307.26813 
L 143.819 307.019924 
L 145.776323 306.629886 
L 146.754984 306.488054 
L 149.201637 306.275306 
L 150.180298 305.885268 
L 150.669629 305.247024 
L 151.158959 304.892444 
L 151.64829 303.793246 
L 152.137621 303.72233 
L 152.626951 303.332292 
L 153.605612 302.83588 
L 155.562935 301.275728 
L 157.520257 300.318362 
L 158.988249 299.64466 
L 159.47758 298.864584 
L 160.456241 298.155424 
L 160.945571 297.942676 
L 165.838878 297.233516 
L 166.328208 297.020768 
L 169.753522 296.737104 
L 171.710845 296.27615 
L 175.62549 295.74428 
L 176.11482 295.496074 
L 176.604151 295.425158 
L 177.582812 295.106036 
L 181.008126 294.538708 
L 181.986787 294.255044 
L 186.390763 293.510426 
L 187.369424 293.297678 
L 188.348085 293.26222 
L 190.305408 292.801266 
L 190.794738 292.127564 
L 192.26273 291.560236 
L 193.730722 291.170198 
L 194.220053 290.921992 
L 195.198714 290.744702 
L 197.156036 290.177374 
L 198.134697 290.106458 
L 199.113359 289.858252 
L 201.070681 289.36184 
L 201.560012 289.326382 
L 202.538673 288.865428 
L 203.028004 288.794512 
L 203.517334 288.546306 
L 208.899971 287.659856 
L 210.857293 287.092528 
L 211.346624 286.773407 
L 213.793277 285.957873 
L 214.771938 285.284171 
L 216.23993 285.000507 
L 228.962526 281.419249 
L 229.451856 281.419249 
L 229.941187 281.206501 
L 230.919848 281.100127 
L 231.409179 280.922837 
L 233.366501 280.816463 
L 234.345162 280.639173 
L 235.323823 280.142761 
L 236.791815 279.610891 
L 237.281146 279.291769 
L 238.259807 278.866273 
L 238.749138 278.618067 
L 239.727799 278.298945 
L 240.217129 278.157113 
L 241.195791 277.554327 
L 241.685121 277.022457 
L 242.663783 275.533221 
L 243.153113 275.391389 
L 243.642444 275.391389 
L 245.110436 274.540397 
L 245.599766 274.292191 
L 246.089097 274.185817 
L 246.578427 273.724863 
L 247.557089 273.334825 
L 248.53575 272.873871 
L 249.02508 272.271085 
L 249.514411 271.491009 
L 250.003742 271.171887 
L 250.493072 270.320895 
L 250.982403 269.789025 
L 253.918386 268.228873 
L 254.897048 267.448797 
L 255.386378 267.129675 
L 255.875709 266.385057 
L 256.365039 265.285859 
L 256.85437 264.541241 
L 257.343701 264.151203 
L 257.833031 263.938455 
L 261.258346 261.030899 
L 262.237007 259.860785 
L 263.704999 258.832503 
L 265.662321 257.662389 
L 266.640982 257.130519 
L 268.598305 256.102237 
L 271.044958 253.903841 
L 272.023619 253.513803 
L 273.00228 252.840101 
L 273.491611 252.556437 
L 273.980941 252.485521 
L 275.448933 251.669987 
L 275.938264 251.138117 
L 278.384917 249.826171 
L 278.874247 249.648881 
L 280.342239 248.656057 
L 287.682198 246.067623 
L 288.660859 245.181173 
L 289.639521 244.72022 
L 290.618182 244.18835 
L 291.107512 243.904686 
L 292.086174 243.621022 
L 292.575504 243.3019 
L 293.064835 243.160068 
L 294.532827 242.202702 
L 296.97948 241.635374 
L 298.447471 240.784382 
L 299.915463 240.46526 
L 300.404794 240.323428 
L 301.872786 239.22423 
L 303.830108 238.69236 
L 304.319439 238.302322 
L 307.255422 237.309498 
L 308.234084 237.132208 
L 309.212745 236.74217 
L 312.638059 235.50114 
L 313.61672 235.359308 
L 315.084712 234.862896 
L 317.531365 233.692782 
L 319.488688 232.629042 
L 323.403332 231.033432 
L 323.892663 230.962516 
L 324.871324 230.35973 
L 325.360655 230.288814 
L 327.317977 229.47328 
L 329.2753 229.225074 
L 330.253961 228.728662 
L 330.743291 228.303166 
L 331.232622 227.416716 
L 333.189944 226.884846 
L 334.657936 226.140228 
L 335.147267 226.033854 
L 339.061912 224.15458 
L 340.529904 223.870916 
L 341.508565 223.374504 
L 341.997895 223.161756 
L 342.487226 223.09084 
L 344.444548 222.20439 
L 345.91254 221.282482 
L 347.380532 220.998818 
L 349.827185 220.396032 
L 350.316516 220.005994 
L 351.784507 219.474124 
L 353.74183 218.694048 
L 354.23116 218.339468 
L 354.720491 218.162178 
L 355.699152 217.630308 
L 358.145805 216.814774 
L 359.613797 215.64466 
L 360.103128 215.538286 
L 361.081789 214.75821 
L 361.57112 214.687294 
L 362.06045 213.907218 
L 362.549781 213.69447 
L 363.039111 213.304432 
L 363.528442 213.233516 
L 364.507103 212.63073 
L 365.485764 212.311608 
L 365.975095 211.957028 
L 366.464426 211.779738 
L 367.932417 210.751456 
L 369.88974 209.723174 
L 370.37907 209.652258 
L 371.847062 208.90764 
L 372.336393 208.092106 
L 373.315054 207.382946 
L 373.804385 207.276572 
L 374.783046 206.673786 
L 375.272376 206.567412 
L 376.251038 206.071 
L 378.20836 205.113634 
L 378.697691 204.759054 
L 379.676352 203.801688 
L 380.655013 203.198902 
L 381.144344 202.87978 
L 381.633674 202.347911 
L 383.590997 201.000507 
L 384.080327 200.433179 
L 384.569658 200.043141 
L 385.548319 199.688561 
L 386.52698 199.014859 
L 387.994972 198.270241 
L 388.484303 198.199325 
L 389.952295 197.419249 
L 390.930956 196.816463 
L 395.824262 195.043563 
L 396.313593 194.653525 
L 398.270915 193.908907 
L 398.760246 193.767075 
L 399.738907 193.128831 
L 400.717568 192.703335 
L 401.696229 192.029633 
L 402.67489 190.079443 
L 403.653552 188.944787 
L 405.121543 188.200169 
L 406.100205 187.810131 
L 406.589535 187.739215 
L 407.078866 187.455551 
L 409.525519 186.675475 
L 410.014849 186.462727 
L 410.993511 185.789025 
L 412.461502 185.150781 
L 413.440164 184.618911 
L 413.929494 184.264331 
L 414.418825 184.051583 
L 414.908156 183.697003 
L 415.397486 183.165133 
L 416.376147 182.633263 
L 418.8228 181.321317 
L 421.758784 179.867539 
L 423.226776 179.442043 
L 424.694768 178.874715 
L 425.184098 178.520135 
L 426.162759 178.236471 
L 427.141421 177.846433 
L 427.630751 177.456395 
L 429.588074 176.782693 
L 430.566735 176.073533 
L 431.545396 175.648037 
L 432.524057 174.867961 
L 433.502719 174.513381 
L 433.992049 174.087885 
L 434.48138 174.016969 
L 435.460041 173.272351 
L 436.438702 172.775939 
L 436.928033 172.563191 
L 437.417363 172.066779 
L 440.842678 170.719375 
L 441.821339 170.293879 
L 443.289331 169.832925 
L 444.267992 169.691093 
L 444.757322 169.478345 
L 445.246653 169.407429 
L 446.225314 168.981933 
L 446.714645 168.946475 
L 448.671967 168.201857 
L 450.139959 167.173575 
L 450.62929 166.996285 
L 451.607951 166.464415 
L 452.097281 166.322583 
L 455.033265 164.691515 
L 455.522596 164.585141 
L 456.990588 163.734149 
L 458.458579 163.237737 
L 459.437241 162.918615 
L 461.394563 162.280371 
L 462.373224 161.961249 
L 464.330547 161.571211 
L 464.819877 161.358463 
L 465.309208 161.287547 
L 466.287869 160.862051 
L 466.7772 160.791136 
L 467.26653 160.54293 
L 468.245191 160.36564 
L 469.713183 159.83377 
L 470.691844 159.727396 
L 472.159836 159.408274 
L 474.606489 158.982778 
L 487.329085 155.295146 
L 487.818416 154.798734 
L 488.797077 154.408696 
L 492.711722 152.954918 
L 493.201052 152.671254 
L 494.669044 152.245758 
L 495.647705 151.997552 
L 496.137036 151.67843 
L 496.626367 151.572056 
L 497.115697 151.14656 
L 498.583689 150.862896 
L 499.56235 150.401942 
L 500.051681 149.834614 
L 502.009003 149.37366 
L 505.434317 148.6645 
L 505.923648 148.6645 
L 506.412979 148.451752 
L 508.370301 148.097172 
L 508.859632 147.884424 
L 510.816954 147.529844 
L 511.795615 147.104348 
L 512.774277 146.927058 
L 515.22093 146.324272 
L 517.178252 145.721486 
L 517.667583 145.615112 
L 518.156913 145.366906 
L 519.135574 145.1187 
L 519.624905 144.835036 
L 521.092897 144.338624 
L 521.582227 144.019502 
L 522.560889 143.735838 
L 526.475533 142.388434 
L 527.454195 142.317518 
L 529.411517 141.75019 
L 529.900848 141.466526 
L 530.879509 141.182862 
L 533.326162 140.083664 
L 533.815493 140.048206 
L 539.198129 138.168932 
L 541.644782 137.530688 
L 542.623443 137.069734 
L 544.091435 136.750612 
L 546.048758 135.155002 
L 547.027419 134.871338 
L 547.516749 134.4813 
L 550.452733 133.382102 
L 550.942064 133.06298 
L 551.920725 132.779316 
L 552.410056 132.460194 
L 554.856709 131.680118 
L 556.3247 130.829126 
L 556.814031 130.722752 
L 559.260684 129.410806 
L 560.728676 128.772562 
L 561.218006 128.417982 
L 562.196668 128.09886 
L 563.175329 127.531532 
L 563.664659 127.354242 
L 564.15399 126.999662 
L 570.515288 124.765808 
L 571.004619 124.659434 
L 571.493949 124.340312 
L 573.451272 123.950274 
L 574.429933 123.560236 
L 577.365916 122.141916 
L 577.855247 122.071 
L 579.323239 121.255466 
L 580.791231 120.759054 
L 584.216545 119.376192 
L 584.705875 119.23436 
L 585.195206 118.915238 
L 586.173867 118.808864 
L 586.663198 118.489743 
L 587.641859 118.312453 
L 588.62052 117.851499 
L 589.109851 117.638751 
L 589.599182 117.567835 
L 592.045835 116.610469 
L 593.513826 116.220431 
L 594.492488 115.972225 
L 595.960479 115.546729 
L 596.939141 115.156691 
L 598.896463 114.092951 
L 599.875124 113.702913 
L 600.364455 113.383791 
L 601.343116 113.171043 
L 601.832447 112.887379 
L 602.321777 112.781005 
L 603.789769 111.965471 
L 604.76843 111.575433 
L 606.725753 110.830815 
L 609.172406 110.015281 
L 610.151067 109.518869 
L 612.59772 108.703335 
L 615.533704 107.533221 
L 617.491026 106.646771 
L 622.384332 104.767497 
L 622.873663 104.448375 
L 624.830985 103.774673 
L 625.320316 103.774673 
L 626.298977 103.349177 
L 628.256299 101.789025 
L 628.74563 101.647193 
L 629.234961 101.328071 
L 629.724291 101.221697 
L 630.213622 100.973491 
L 630.702952 100.902575 
L 631.192283 100.547995 
L 631.681614 100.441621 
L 632.660275 99.838835 
L 634.128267 99.094217 
L 635.106928 98.704179 
L 635.596258 98.455973 
L 637.06425 98.136851 
L 639.510903 97.321317 
L 640.489564 97.002195 
L 641.957556 96.257577 
L 642.936217 95.796623 
L 643.914879 95.548417 
L 645.382871 94.874715 
L 649.786846 93.279105 
L 651.254838 92.392655 
L 651.744168 92.286281 
L 652.72283 91.789869 
L 653.701491 91.435289 
L 654.190821 91.009793 
L 655.169483 90.619755 
L 658.105466 89.449641 
L 659.573458 89.024145 
L 660.062789 88.775939 
L 660.552119 88.705023 
L 662.020111 88.173153 
L 663.488103 87.641283 
L 664.466764 87.251245 
L 664.956095 86.861207 
L 666.424087 86.471169 
L 666.913417 86.187505 
L 667.892078 85.939299 
L 669.36007 85.123765 
L 669.849401 85.088307 
L 671.317393 84.627353 
L 672.296054 84.556437 
L 673.274715 84.166399 
L 676.210699 83.315407 
L 677.18936 83.279949 
L 681.104005 82.038919 
L 682.082666 81.507049 
L 682.571996 81.081553 
L 684.039988 80.230561 
L 685.01865 79.627775 
L 687.954633 78.705867 
L 688.443964 78.315829 
L 691.379947 77.110257 
L 693.33727 76.578388 
L 694.315931 76.152892 
L 694.805262 75.904686 
L 695.783923 75.621022 
L 696.273253 75.337358 
L 697.251915 75.160068 
L 699.698568 74.025412 
L 700.187898 73.741748 
L 701.65589 73.387168 
L 702.145221 73.068046 
L 702.634551 72.890756 
L 703.123882 72.46526 
L 703.613213 72.394344 
L 706.059866 71.436978 
L 707.527857 71.117856 
L 708.017188 71.04694 
L 708.506519 70.834192 
L 708.995849 70.798734 
L 709.97451 70.479612 
L 710.463841 70.444154 
L 711.931833 69.876826 
L 713.889155 69.309498 
L 714.867816 68.529422 
L 716.825139 67.465682 
L 718.293131 66.96927 
L 721.229114 65.657324 
L 722.207776 65.125454 
L 722.697106 64.877248 
L 723.186437 64.416294 
L 726.12242 63.458928 
L 727.101082 63.06889 
L 728.079743 62.785226 
L 728.569073 62.53702 
L 729.058404 62.076066 
L 731.015726 61.579654 
L 731.505057 61.225074 
L 737.866355 58.920304 
L 738.845016 58.743014 
L 743.248992 57.21832 
L 744.227653 56.970114 
L 744.716983 56.757366 
L 745.206314 56.721908 
L 746.184975 56.33187 
L 746.674306 55.97729 
L 747.163636 55.8 
L 747.163636 55.8 
" clip-path="url(#pc622557d82)" style="fill: none; stroke: #1f77b4; stroke-width: 1.5; stroke-linecap: square"/>
   </g>
   <g id="line2d_44">
    <path d="M 138.925694 307.8 
L 143.32967 307.693626 
L 147.244315 307.516336 
L 149.201637 307.516336 
L 149.690968 307.374504 
L 152.137621 307.26813 
L 155.073604 306.949008 
L 158.009588 306.842634 
L 158.988249 306.73626 
L 162.413563 306.594428 
L 165.838878 306.488054 
L 168.285531 306.417138 
L 174.646828 306.310764 
L 177.093481 306.239848 
L 180.518796 306.133474 
L 182.965449 306.062558 
L 188.348085 305.956184 
L 190.305408 305.778894 
L 192.26273 305.743436 
L 195.198714 305.637062 
L 197.156036 305.601604 
L 199.602689 305.530688 
L 201.560012 305.353398 
L 205.963987 305.247024 
L 206.942648 305.176108 
L 208.899971 305.069734 
L 211.835954 304.96336 
L 213.793277 304.856986 
L 222.601228 304.325116 
L 226.026542 304.218742 
L 227.494534 304.07691 
L 229.941187 303.970536 
L 234.834493 303.72233 
L 239.727799 303.651414 
L 241.685121 303.438666 
L 243.642444 303.332292 
L 249.02508 302.83588 
L 252.450395 302.445842 
L 253.918386 302.374926 
L 258.322362 301.843056 
L 260.769015 301.77214 
L 262.237007 301.630308 
L 263.704999 301.523934 
L 277.406255 300.495652 
L 278.384917 300.318362 
L 281.3209 300.211988 
L 289.15019 299.751034 
L 292.575504 299.64466 
L 294.532827 299.431912 
L 296.97948 299.325538 
L 299.915463 299.219164 
L 302.362116 299.11279 
L 304.319439 299.077332 
L 306.766092 299.006416 
L 307.744753 298.864584 
L 314.595381 298.75821 
L 315.574043 298.651836 
L 321.44601 298.545462 
L 325.849985 298.332714 
L 329.2753 298.22634 
L 331.232622 298.013592 
L 334.657936 297.907218 
L 335.636597 297.729928 
L 338.083251 297.659012 
L 342.976557 297.588096 
L 345.42321 297.33989 
L 348.359193 297.233516 
L 350.316516 297.056226 
L 355.209822 296.80802 
L 360.103128 296.701646 
L 364.507103 296.488898 
L 365.975095 296.45344 
L 366.953756 296.311608 
L 369.400409 296.205234 
L 370.37907 296.134318 
L 371.357732 296.063402 
L 372.336393 295.992486 
L 376.740368 295.92157 
L 378.20836 295.815196 
L 391.420286 294.964204 
L 393.866939 294.85783 
L 396.313593 294.786914 
L 403.164221 294.68054 
L 404.142882 294.538708 
L 410.993511 294.432334 
L 415.886817 294.184128 
L 416.865478 294.14867 
L 417.844139 294.042296 
L 420.290792 293.935922 
L 422.737445 293.865006 
L 425.184098 293.758632 
L 427.630751 293.687716 
L 432.034727 293.581342 
L 434.97071 293.474968 
L 441.821339 293.368594 
L 447.203975 293.08493 
L 449.161298 293.014014 
L 450.62929 292.90764 
L 457.479918 292.801266 
L 460.415902 292.694892 
L 469.223853 292.588518 
L 471.181175 292.55306 
L 477.053142 292.482144 
L 478.031804 292.411228 
L 484.882432 292.304854 
L 486.839754 292.269396 
L 499.56235 292.163022 
L 501.030342 292.02119 
L 523.050219 291.914816 
L 525.496872 291.8439 
L 538.219468 291.737526 
L 539.198129 291.66661 
L 541.644782 291.595694 
L 543.112774 291.453862 
L 546.048758 291.347488 
L 549.474072 291.205656 
L 553.878047 291.099282 
L 556.3247 291.028366 
L 559.750015 290.921992 
L 563.664659 290.744702 
L 566.111312 290.638328 
L 568.068635 290.60287 
L 572.47261 290.496496 
L 574.429933 290.461038 
L 580.791231 290.354664 
L 582.748553 290.319206 
L 585.195206 290.212832 
L 588.13119 290.106458 
L 591.556504 290.035542 
L 592.535165 289.964626 
L 604.2791 289.858252 
L 610.640398 289.503672 
L 613.087051 289.432756 
L 614.065712 289.326382 
L 615.044373 289.255466 
L 618.959018 289.149092 
L 621.895001 289.042718 
L 626.788308 288.936344 
L 629.234961 288.688138 
L 634.128267 288.581764 
L 635.106928 288.47539 
L 640.000234 288.369016 
L 642.446887 288.2981 
L 647.829524 288.262642 
L 648.808185 288.156268 
L 654.190821 288.049894 
L 655.169483 287.978978 
L 665.934756 287.872604 
L 668.87074 287.76623 
L 676.210699 287.659856 
L 678.168021 287.624398 
L 682.571996 287.553482 
L 683.550658 287.447108 
L 689.911956 287.340734 
L 692.358609 287.269818 
L 701.166559 287.163444 
L 702.634551 287.05707 
L 704.102543 286.950696 
L 705.570535 286.844322 
L 712.910494 286.737949 
L 715.846478 286.631575 
L 729.058404 286.525201 
L 733.462379 286.312453 
L 739.334347 286.206079 
L 740.313008 286.099705 
L 747.163636 285.993331 
L 747.163636 285.993331 
" clip-path="url(#pc622557d82)" style="fill: none; stroke: #ff7f0e; stroke-width: 1.5; stroke-linecap: square"/>
   </g>
   <g id="patch_3">
    <path d="M 108 320.4 
L 108 43.2 
" style="fill: none; stroke: #a9a9a9; stroke-width: 0.8; stroke-linejoin: miter; stroke-linecap: square"/>
   </g>
   <g id="patch_4">
    <path d="M 777.6 320.4 
L 777.6 43.2 
" style="fill: none"/>
   </g>
   <g id="patch_5">
    <path d="M 108 320.4 
L 777.6 320.4 
" style="fill: none; stroke: #a9a9a9; stroke-width: 0.8; stroke-linejoin: miter; stroke-linecap: square"/>
   </g>
   <g id="patch_6">
    <path d="M 108 43.2 
L 777.6 43.2 
" style="fill: none"/>
   </g>
   <g id="text_22">
    <!-- get_subscribe history -->
    <g style="fill: #a9a9a9" transform="translate(378.6075 37.2) scale(0.12 -0.12)">
     <defs>
      <path id="DejaVuSans-67" d="M 2906 1791 
Q 2906 2416 2648 2759 
Q 2391 3103 1925 3103 
Q 1463 3103 1205 2759 
Q 947 2416 947 1791 
Q 947 1169 1205 825 
Q 1463 481 1925 481 
Q 2391 481 2648 825 
Q 2906 1169 2906 1791 
z
M 3481 434 
Q 3481 -459 3084 -895 
Q 2688 -1331 1869 -1331 
Q 1566 -1331 1297 -1286 
Q 1028 -1241 775 -1147 
L 775 -588 
Q 1028 -725 1275 -790 
Q 1522 -856 1778 -856 
Q 2344 -856 2625 -561 
Q 2906 -266 2906 331 
L 2906 616 
Q 2728 306 2450 153 
Q 2172 0 1784 0 
Q 1141 0 747 490 
Q 353 981 353 1791 
Q 353 2603 747 3093 
Q 1141 3584 1784 3584 
Q 2172 3584 2450 3431 
Q 2728 3278 2906 2969 
L 2906 3500 
L 3481 3500 
L 3481 434 
z
" transform="scale(0.015625)"/>
      <path id="DejaVuSans-65" d="M 3597 1894 
L 3597 1613 
L 953 1613 
Q 991 1019 1311 708 
Q 1631 397 2203 397 
Q 2534 397 2845 478 
Q 3156 559 3463 722 
L 3463 178 
Q 3153 47 2828 -22 
Q 2503 -91 2169 -91 
Q 1331 -91 842 396 
Q 353 884 353 1716 
Q 353 2575 817 3079 
Q 1281 3584 2069 3584 
Q 2775 3584 3186 3129 
Q 3597 2675 3597 1894 
z
M 3022 2063 
Q 3016 2534 2758 2815 
Q 2500 3097 2075 3097 
Q 1594 3097 1305 2825 
Q 1016 2553 972 2059 
L 3022 2063 
z
" transform="scale(0.015625)"/>
      <path id="DejaVuSans-74" d="M 1172 4494 
L 1172 3500 
L 2356 3500 
L 2356 3053 
L 1172 3053 
L 1172 1153 
Q 1172 725 1289 603 
Q 1406 481 1766 481 
L 2356 481 
L 2356 0 
L 1766 0 
Q 1100 0 847 248 
Q 594 497 594 1153 
L 594 3053 
L 172 3053 
L 172 3500 
L 594 3500 
L 594 4494 
L 1172 4494 
z
" transform="scale(0.015625)"/>
      <path id="DejaVuSans-5f" d="M 3263 -1063 
L 3263 -1509 
L -63 -1509 
L -63 -1063 
L 3263 -1063 
z
" transform="scale(0.015625)"/>
      <path id="DejaVuSans-73" d="M 2834 3397 
L 2834 2853 
Q 2591 2978 2328 3040 
Q 2066 3103 1784 3103 
Q 1356 3103 1142 2972 
Q 928 2841 928 2578 
Q 928 2378 1081 2264 
Q 1234 2150 1697 2047 
L 1894 2003 
Q 2506 1872 2764 1633 
Q 3022 1394 3022 966 
Q 3022 478 2636 193 
Q 2250 -91 1575 -91 
Q 1294 -91 989 -36 
Q 684 19 347 128 
L 347 722 
Q 666 556 975 473 
Q 1284 391 1588 391 
Q 1994 391 2212 530 
Q 2431 669 2431 922 
Q 2431 1156 2273 1281 
Q 2116 1406 1581 1522 
L 1381 1569 
Q 847 1681 609 1914 
Q 372 2147 372 2553 
Q 372 3047 722 3315 
Q 1072 3584 1716 3584 
Q 2034 3584 2315 3537 
Q 2597 3491 2834 3397 
z
" transform="scale(0.015625)"/>
      <path id="DejaVuSans-75" d="M 544 1381 
L 544 3500 
L 1119 3500 
L 1119 1403 
Q 1119 906 1312 657 
Q 1506 409 1894 409 
Q 2359 409 2629 706 
Q 2900 1003 2900 1516 
L 2900 3500 
L 3475 3500 
L 3475 0 
L 2900 0 
L 2900 538 
Q 2691 219 2414 64 
Q 2138 -91 1772 -91 
Q 1169 -91 856 284 
Q 544 659 544 1381 
z
M 1991 3584 
L 1991 3584 
z
" transform="scale(0.015625)"/>
      <path id="DejaVuSans-62" d="M 3116 1747 
Q 3116 2381 2855 2742 
Q 2594 3103 2138 3103 
Q 1681 3103 1420 2742 
Q 1159 2381 1159 1747 
Q 1159 1113 1420 752 
Q 1681 391 2138 391 
Q 2594 391 2855 752 
Q 3116 1113 3116 1747 
z
M 1159 2969 
Q 1341 3281 1617 3432 
Q 1894 3584 2278 3584 
Q 2916 3584 3314 3078 
Q 3713 2572 3713 1747 
Q 3713 922 3314 415 
Q 2916 -91 2278 -91 
Q 1894 -91 1617 61 
Q 1341 213 1159 525 
L 1159 0 
L 581 0 
L 581 4863 
L 1159 4863 
L 1159 2969 
z
" transform="scale(0.015625)"/>
      <path id="DejaVuSans-63" d="M 3122 3366 
L 3122 2828 
Q 2878 2963 2633 3030 
Q 2388 3097 2138 3097 
Q 1578 3097 1268 2742 
Q 959 2388 959 1747 
Q 959 1106 1268 751 
Q 1578 397 2138 397 
Q 2388 397 2633 464 
Q 2878 531 3122 666 
L 3122 134 
Q 2881 22 2623 -34 
Q 2366 -91 2075 -91 
Q 1284 -91 818 406 
Q 353 903 353 1747 
Q 353 2603 823 3093 
Q 1294 3584 2113 3584 
Q 2378 3584 2631 3529 
Q 2884 3475 3122 3366 
z
" transform="scale(0.015625)"/>
      <path id="DejaVuSans-72" d="M 2631 2963 
Q 2534 3019 2420 3045 
Q 2306 3072 2169 3072 
Q 1681 3072 1420 2755 
Q 1159 2438 1159 1844 
L 1159 0 
L 581 0 
L 581 3500 
L 1159 3500 
L 1159 2956 
Q 1341 3275 1631 3429 
Q 1922 3584 2338 3584 
Q 2397 3584 2469 3576 
Q 2541 3569 2628 3553 
L 2631 2963 
z
" transform="scale(0.015625)"/>
      <path id="DejaVuSans-69" d="M 603 3500 
L 1178 3500 
L 1178 0 
L 603 0 
L 603 3500 
z
M 603 4863 
L 1178 4863 
L 1178 4134 
L 603 4134 
L 603 4863 
z
" transform="scale(0.015625)"/>
      <path id="DejaVuSans-20" transform="scale(0.015625)"/>
      <path id="DejaVuSans-68" d="M 3513 2113 
L 3513 0 
L 2938 0 
L 2938 2094 
Q 2938 2591 2744 2837 
Q 2550 3084 2163 3084 
Q 1697 3084 1428 2787 
Q 1159 2491 1159 1978 
L 1159 0 
L 581 0 
L 581 4863 
L 1159 4863 
L 1159 2956 
Q 1366 3272 1645 3428 
Q 1925 3584 2291 3584 
Q 2894 3584 3203 3211 
Q 3513 2838 3513 2113 
z
" transform="scale(0.015625)"/>
      <path id="DejaVuSans-6f" d="M 1959 3097 
Q 1497 3097 1228 2736 
Q 959 2375 959 1747 
Q 959 1119 1226 758 
Q 1494 397 1959 397 
Q 2419 397 2687 759 
Q 2956 1122 2956 1747 
Q 2956 2369 2687 2733 
Q 2419 3097 1959 3097 
z
M 1959 3584 
Q 2709 3584 3137 3096 
Q 3566 2609 3566 1747 
Q 3566 888 3137 398 
Q 2709 -91 1959 -91 
Q 1206 -91 779 398 
Q 353 888 353 1747 
Q 353 2609 779 3096 
Q 1206 3584 1959 3584 
z
" transform="scale(0.015625)"/>
      <path id="DejaVuSans-79" d="M 2059 -325 
Q 1816 -950 1584 -1140 
Q 1353 -1331 966 -1331 
L 506 -1331 
L 506 -850 
L 844 -850 
Q 1081 -850 1212 -737 
Q 1344 -625 1503 -206 
L 1606 56 
L 191 3500 
L 800 3500 
L 1894 763 
L 2988 3500 
L 3597 3500 
L 2059 -325 
z
" transform="scale(0.015625)"/>
     </defs>
     <use xlink:href="#DejaVuSans-67"/>
     <use xlink:href="#DejaVuSans-65" transform="translate(63.476562 0)"/>
     <use xlink:href="#DejaVuSans-74" transform="translate(125 0)"/>
     <use xlink:href="#DejaVuSans-5f" transform="translate(164.208984 0)"/>
     <use xlink:href="#DejaVuSans-73" transform="translate(214.208984 0)"/>
     <use xlink:href="#DejaVuSans-75" transform="translate(266.308594 0)"/>
     <use xlink:href="#DejaVuSans-62" transform="translate(329.6875 0)"/>
     <use xlink:href="#DejaVuSans-73" transform="translate(393.164062 0)"/>
     <use xlink:href="#DejaVuSans-63" transform="translate(445.263672 0)"/>
     <use xlink:href="#DejaVuSans-72" transform="translate(500.244141 0)"/>
     <use xlink:href="#DejaVuSans-69" transform="translate(541.357422 0)"/>
     <use xlink:href="#DejaVuSans-62" transform="translate(569.140625 0)"/>
     <use xlink:href="#DejaVuSans-65" transform="translate(632.617188 0)"/>
     <use xlink:href="#DejaVuSans-20" transform="translate(694.140625 0)"/>
     <use xlink:href="#DejaVuSans-68" transform="translate(725.927734 0)"/>
     <use xlink:href="#DejaVuSans-69" transform="translate(789.306641 0)"/>
     <use xlink:href="#DejaVuSans-73" transform="translate(817.089844 0)"/>
     <use xlink:href="#DejaVuSans-74" transform="translate(869.189453 0)"/>
     <use xlink:href="#DejaVuSans-6f" transform="translate(908.398438 0)"/>
     <use xlink:href="#DejaVuSans-72" transform="translate(969.580078 0)"/>
     <use xlink:href="#DejaVuSans-79" transform="translate(1010.693359 0)"/>
    </g>
   </g>
   <g id="legend_1">
    <g id="line2d_45">
     <path d="M 815.08 328.498438 
L 825.08 328.498438 
L 835.08 328.498438 
" style="fill: none; stroke: #1f77b4; stroke-width: 1.5; stroke-linecap: square"/>
    </g>
    <g id="text_23">
     <!-- star -->
     <g style="fill: #a9a9a9" transform="translate(843.08 331.998438) scale(0.1 -0.1)">
      <defs>
       <path id="DejaVuSans-61" d="M 2194 1759 
Q 1497 1759 1228 1600 
Q 959 1441 959 1056 
Q 959 750 1161 570 
Q 1363 391 1709 391 
Q 2188 391 2477 730 
Q 2766 1069 2766 1631 
L 2766 1759 
L 2194 1759 
z
M 3341 1997 
L 3341 0 
L 2766 0 
L 2766 531 
Q 2569 213 2275 61 
Q 1981 -91 1556 -91 
Q 1019 -91 701 211 
Q 384 513 384 1019 
Q 384 1609 779 1909 
Q 1175 2209 1959 2209 
L 2766 2209 
L 2766 2266 
Q 2766 2663 2505 2880 
Q 2244 3097 1772 3097 
Q 1472 3097 1187 3025 
Q 903 2953 641 2809 
L 641 3341 
Q 956 3463 1253 3523 
Q 1550 3584 1831 3584 
Q 2591 3584 2966 3190 
Q 3341 2797 3341 1997 
z
" transform="scale(0.015625)"/>
      </defs>
      <use xlink:href="#DejaVuSans-73"/>
      <use xlink:href="#DejaVuSans-74" transform="translate(52.099609 0)"/>
      <use xlink:href="#DejaVuSans-61" transform="translate(91.308594 0)"/>
      <use xlink:href="#DejaVuSans-72" transform="translate(152.587891 0)"/>
     </g>
    </g>
    <g id="line2d_46">
     <path d="M 815.08 343.176562 
L 825.08 343.176562 
L 835.08 343.176562 
" style="fill: none; stroke: #ff7f0e; stroke-width: 1.5; stroke-linecap: square"/>
    </g>
    <g id="text_24">
     <!-- fork -->
     <g style="fill: #a9a9a9" transform="translate(843.08 346.676562) scale(0.1 -0.1)">
      <defs>
       <path id="DejaVuSans-66" d="M 2375 4863 
L 2375 4384 
L 1825 4384 
Q 1516 4384 1395 4259 
Q 1275 4134 1275 3809 
L 1275 3500 
L 2222 3500 
L 2222 3053 
L 1275 3053 
L 1275 0 
L 697 0 
L 697 3053 
L 147 3053 
L 147 3500 
L 697 3500 
L 697 3744 
Q 697 4328 969 4595 
Q 1241 4863 1831 4863 
L 2375 4863 
z
" transform="scale(0.015625)"/>
       <path id="DejaVuSans-6b" d="M 581 4863 
L 1159 4863 
L 1159 1991 
L 2875 3500 
L 3609 3500 
L 1753 1863 
L 3688 0 
L 2938 0 
L 1159 1709 
L 1159 0 
L 581 0 
L 581 4863 
z
" transform="scale(0.015625)"/>
      </defs>
      <use xlink:href="#DejaVuSans-66"/>
      <use xlink:href="#DejaVuSans-6f" transform="translate(35.205078 0)"/>
      <use xlink:href="#DejaVuSans-72" transform="translate(96.386719 0)"/>
      <use xlink:href="#DejaVuSans-6b" transform="translate(137.5 0)"/>
     </g>
    </g>
   </g>
  </g>
 </g>
 <defs>
  <clipPath id="pc622557d82">
   <rect x="108" y="43.2" width="669.6" height="277.2"/>
  </clipPath>
 </defs>
</svg>
