<?xml version="1.0" encoding="utf-8" standalone="no"?>
<!DOCTYPE svg PUBLIC "-//W3C//DTD SVG 1.1//EN"
  "http://www.w3.org/Graphics/SVG/1.1/DTD/svg11.dtd">
<svg xmlns:xlink="http://www.w3.org/1999/xlink" width="864pt" height="360pt" viewBox="0 0 864 360" xmlns="http://www.w3.org/2000/svg" version="1.1">
 <metadata>
  <rdf:RDF xmlns:dc="http://purl.org/dc/elements/1.1/" xmlns:cc="http://creativecommons.org/ns#" xmlns:rdf="http://www.w3.org/1999/02/22-rdf-syntax-ns#">
   <cc:Work>
    <dc:type rdf:resource="http://purl.org/dc/dcmitype/StillImage"/>
    <dc:date>2025-12-09T20:07:54.767421</dc:date>
    <dc:format>image/svg+xml</dc:format>
    <dc:creator>
     <cc:Agent>
      <dc:title>Matplotlib v3.10.7, https://matplotlib.org/</dc:title>
     </cc:Agent>
    </dc:creator>
   </cc:Work>
  </rdf:RDF>
 </metadata>
 <defs>
  <style type="text/css">*{stroke-linejoin: round; stroke-linecap: butt}</style>
 </defs>
 <g id="figure_1">
  <g id="patch_1">
   <path d="M 0 360 
L 864 360 
L 864 0 
L 0 0 
L 0 360 
z
" style="fill: none; opacity: 0"/>
  </g>
  <g id="axes_1">
   <g id="patch_2">
    <path d="M 108 320.4 
L 777.6 320.4 
L 777.6 43.2 
L 108 43.2 
L 108 320.4 
z
" style="fill: none; opacity: 0"/>
   </g>
   <g id="matplotlib.axis_1">
    <g id="xtick_1">
     <g id="line2d_1">
      <path d="M 129.680437 320.4 
L 129.680437 43.2 
" clip-path="url(#pcae25aa432)" style="fill: none; stroke-dasharray: 5.12,1.28,0.8,1.28; stroke-dashoffset: 0; stroke: #b0b0b0; stroke-width: 0.8"/>
     </g>
     <g id="line2d_2">
      <defs>
       <path id="m4f0cbcf747" d="M 0 0 
L 0 3.5 
" style="stroke: #a9a9a9; stroke-width: 0.8"/>
      </defs>
      <g>
       <use xlink:href="#m4f0cbcf747" x="129.680437" y="320.4" style="fill: #a9a9a9; stroke: #a9a9a9; stroke-width: 0.8"/>
      </g>
     </g>
     <g id="text_1">
      <!-- 2021-07 -->
      <g style="fill: #a9a9a9" transform="translate(108.78903 334.998438) scale(0.1 -0.1)">
       <defs>
        <path id="DejaVuSans-32" d="M 1228 531 
L 3431 531 
L 3431 0 
L 469 0 
L 469 531 
Q 828 903 1448 1529 
Q 2069 2156 2228 2338 
Q 2531 2678 2651 2914 
Q 2772 3150 2772 3378 
Q 2772 3750 2511 3984 
Q 2250 4219 1831 4219 
Q 1534 4219 1204 4116 
Q 875 4013 500 3803 
L 500 4441 
Q 881 4594 1212 4672 
Q 1544 4750 1819 4750 
Q 2544 4750 2975 4387 
Q 3406 4025 3406 3419 
Q 3406 3131 3298 2873 
Q 3191 2616 2906 2266 
Q 2828 2175 2409 1742 
Q 1991 1309 1228 531 
z
" transform="scale(0.015625)"/>
        <path id="DejaVuSans-30" d="M 2034 4250 
Q 1547 4250 1301 3770 
Q 1056 3291 1056 2328 
Q 1056 1369 1301 889 
Q 1547 409 2034 409 
Q 2525 409 2770 889 
Q 3016 1369 3016 2328 
Q 3016 3291 2770 3770 
Q 2525 4250 2034 4250 
z
M 2034 4750 
Q 2819 4750 3233 4129 
Q 3647 3509 3647 2328 
Q 3647 1150 3233 529 
Q 2819 -91 2034 -91 
Q 1250 -91 836 529 
Q 422 1150 422 2328 
Q 422 3509 836 4129 
Q 1250 4750 2034 4750 
z
" transform="scale(0.015625)"/>
        <path id="DejaVuSans-31" d="M 794 531 
L 1825 531 
L 1825 4091 
L 703 3866 
L 703 4441 
L 1819 4666 
L 2450 4666 
L 2450 531 
L 3481 531 
L 3481 0 
L 794 0 
L 794 531 
z
" transform="scale(0.015625)"/>
        <path id="DejaVuSans-2d" d="M 313 2009 
L 1997 2009 
L 1997 1497 
L 313 1497 
L 313 2009 
z
" transform="scale(0.015625)"/>
        <path id="DejaVuSans-37" d="M 525 4666 
L 3525 4666 
L 3525 4397 
L 1831 0 
L 1172 0 
L 2766 4134 
L 525 4134 
L 525 4666 
z
" transform="scale(0.015625)"/>
       </defs>
       <use xlink:href="#DejaVuSans-32"/>
       <use xlink:href="#DejaVuSans-30" transform="translate(63.623047 0)"/>
       <use xlink:href="#DejaVuSans-32" transform="translate(127.246094 0)"/>
       <use xlink:href="#DejaVuSans-31" transform="translate(190.869141 0)"/>
       <use xlink:href="#DejaVuSans-2d" transform="translate(254.492188 0)"/>
       <use xlink:href="#DejaVuSans-30" transform="translate(290.576172 0)"/>
       <use xlink:href="#DejaVuSans-37" transform="translate(354.199219 0)"/>
      </g>
     </g>
    </g>
    <g id="xtick_2">
     <g id="line2d_3">
      <path d="M 199.727853 320.4 
L 199.727853 43.2 
" clip-path="url(#pcae25aa432)" style="fill: none; stroke-dasharray: 5.12,1.28,0.8,1.28; stroke-dashoffset: 0; stroke: #b0b0b0; stroke-width: 0.8"/>
     </g>
     <g id="line2d_4">
      <g>
       <use xlink:href="#m4f0cbcf747" x="199.727853" y="320.4" style="fill: #a9a9a9; stroke: #a9a9a9; stroke-width: 0.8"/>
      </g>
     </g>
     <g id="text_2">
      <!-- 2022-01 -->
      <g style="fill: #a9a9a9" transform="translate(178.836446 334.998438) scale(0.1 -0.1)">
       <use xlink:href="#DejaVuSans-32"/>
       <use xlink:href="#DejaVuSans-30" transform="translate(63.623047 0)"/>
       <use xlink:href="#DejaVuSans-32" transform="translate(127.246094 0)"/>
       <use xlink:href="#DejaVuSans-32" transform="translate(190.869141 0)"/>
       <use xlink:href="#DejaVuSans-2d" transform="translate(254.492188 0)"/>
       <use xlink:href="#DejaVuSans-30" transform="translate(290.576172 0)"/>
       <use xlink:href="#DejaVuSans-31" transform="translate(354.199219 0)"/>
      </g>
     </g>
    </g>
    <g id="xtick_3">
     <g id="line2d_5">
      <path d="M 268.633191 320.4 
L 268.633191 43.2 
" clip-path="url(#pcae25aa432)" style="fill: none; stroke-dasharray: 5.12,1.28,0.8,1.28; stroke-dashoffset: 0; stroke: #b0b0b0; stroke-width: 0.8"/>
     </g>
     <g id="line2d_6">
      <g>
       <use xlink:href="#m4f0cbcf747" x="268.633191" y="320.4" style="fill: #a9a9a9; stroke: #a9a9a9; stroke-width: 0.8"/>
      </g>
     </g>
     <g id="text_3">
      <!-- 2022-07 -->
      <g style="fill: #a9a9a9" transform="translate(247.741785 334.998438) scale(0.1 -0.1)">
       <use xlink:href="#DejaVuSans-32"/>
       <use xlink:href="#DejaVuSans-30" transform="translate(63.623047 0)"/>
       <use xlink:href="#DejaVuSans-32" transform="translate(127.246094 0)"/>
       <use xlink:href="#DejaVuSans-32" transform="translate(190.869141 0)"/>
       <use xlink:href="#DejaVuSans-2d" transform="translate(254.492188 0)"/>
       <use xlink:href="#DejaVuSans-30" transform="translate(290.576172 0)"/>
       <use xlink:href="#DejaVuSans-37" transform="translate(354.199219 0)"/>
      </g>
     </g>
    </g>
    <g id="xtick_4">
     <g id="line2d_7">
      <path d="M 338.680607 320.4 
L 338.680607 43.2 
" clip-path="url(#pcae25aa432)" style="fill: none; stroke-dasharray: 5.12,1.28,0.8,1.28; stroke-dashoffset: 0; stroke: #b0b0b0; stroke-width: 0.8"/>
     </g>
     <g id="line2d_8">
      <g>
       <use xlink:href="#m4f0cbcf747" x="338.680607" y="320.4" style="fill: #a9a9a9; stroke: #a9a9a9; stroke-width: 0.8"/>
      </g>
     </g>
     <g id="text_4">
      <!-- 2023-01 -->
      <g style="fill: #a9a9a9" transform="translate(317.789201 334.998438) scale(0.1 -0.1)">
       <defs>
        <path id="DejaVuSans-33" d="M 2597 2516 
Q 3050 2419 3304 2112 
Q 3559 1806 3559 1356 
Q 3559 666 3084 287 
Q 2609 -91 1734 -91 
Q 1441 -91 1130 -33 
Q 819 25 488 141 
L 488 750 
Q 750 597 1062 519 
Q 1375 441 1716 441 
Q 2309 441 2620 675 
Q 2931 909 2931 1356 
Q 2931 1769 2642 2001 
Q 2353 2234 1838 2234 
L 1294 2234 
L 1294 2753 
L 1863 2753 
Q 2328 2753 2575 2939 
Q 2822 3125 2822 3475 
Q 2822 3834 2567 4026 
Q 2313 4219 1838 4219 
Q 1578 4219 1281 4162 
Q 984 4106 628 3988 
L 628 4550 
Q 988 4650 1302 4700 
Q 1616 4750 1894 4750 
Q 2613 4750 3031 4423 
Q 3450 4097 3450 3541 
Q 3450 3153 3228 2886 
Q 3006 2619 2597 2516 
z
" transform="scale(0.015625)"/>
       </defs>
       <use xlink:href="#DejaVuSans-32"/>
       <use xlink:href="#DejaVuSans-30" transform="translate(63.623047 0)"/>
       <use xlink:href="#DejaVuSans-32" transform="translate(127.246094 0)"/>
       <use xlink:href="#DejaVuSans-33" transform="translate(190.869141 0)"/>
       <use xlink:href="#DejaVuSans-2d" transform="translate(254.492188 0)"/>
       <use xlink:href="#DejaVuSans-30" transform="translate(290.576172 0)"/>
       <use xlink:href="#DejaVuSans-31" transform="translate(354.199219 0)"/>
      </g>
     </g>
    </g>
    <g id="xtick_5">
     <g id="line2d_9">
      <path d="M 407.585946 320.4 
L 407.585946 43.2 
" clip-path="url(#pcae25aa432)" style="fill: none; stroke-dasharray: 5.12,1.28,0.8,1.28; stroke-dashoffset: 0; stroke: #b0b0b0; stroke-width: 0.8"/>
     </g>
     <g id="line2d_10">
      <g>
       <use xlink:href="#m4f0cbcf747" x="407.585946" y="320.4" style="fill: #a9a9a9; stroke: #a9a9a9; stroke-width: 0.8"/>
      </g>
     </g>
     <g id="text_5">
      <!-- 2023-07 -->
      <g style="fill: #a9a9a9" transform="translate(386.69454 334.998438) scale(0.1 -0.1)">
       <use xlink:href="#DejaVuSans-32"/>
       <use xlink:href="#DejaVuSans-30" transform="translate(63.623047 0)"/>
       <use xlink:href="#DejaVuSans-32" transform="translate(127.246094 0)"/>
       <use xlink:href="#DejaVuSans-33" transform="translate(190.869141 0)"/>
       <use xlink:href="#DejaVuSans-2d" transform="translate(254.492188 0)"/>
       <use xlink:href="#DejaVuSans-30" transform="translate(290.576172 0)"/>
       <use xlink:href="#DejaVuSans-37" transform="translate(354.199219 0)"/>
      </g>
     </g>
    </g>
    <g id="xtick_6">
     <g id="line2d_11">
      <path d="M 477.633362 320.4 
L 477.633362 43.2 
" clip-path="url(#pcae25aa432)" style="fill: none; stroke-dasharray: 5.12,1.28,0.8,1.28; stroke-dashoffset: 0; stroke: #b0b0b0; stroke-width: 0.8"/>
     </g>
     <g id="line2d_12">
      <g>
       <use xlink:href="#m4f0cbcf747" x="477.633362" y="320.4" style="fill: #a9a9a9; stroke: #a9a9a9; stroke-width: 0.8"/>
      </g>
     </g>
     <g id="text_6">
      <!-- 2024-01 -->
      <g style="fill: #a9a9a9" transform="translate(456.741956 334.998438) scale(0.1 -0.1)">
       <defs>
        <path id="DejaVuSans-34" d="M 2419 4116 
L 825 1625 
L 2419 1625 
L 2419 4116 
z
M 2253 4666 
L 3047 4666 
L 3047 1625 
L 3713 1625 
L 3713 1100 
L 3047 1100 
L 3047 0 
L 2419 0 
L 2419 1100 
L 313 1100 
L 313 1709 
L 2253 4666 
z
" transform="scale(0.015625)"/>
       </defs>
       <use xlink:href="#DejaVuSans-32"/>
       <use xlink:href="#DejaVuSans-30" transform="translate(63.623047 0)"/>
       <use xlink:href="#DejaVuSans-32" transform="translate(127.246094 0)"/>
       <use xlink:href="#DejaVuSans-34" transform="translate(190.869141 0)"/>
       <use xlink:href="#DejaVuSans-2d" transform="translate(254.492188 0)"/>
       <use xlink:href="#DejaVuSans-30" transform="translate(290.576172 0)"/>
       <use xlink:href="#DejaVuSans-31" transform="translate(354.199219 0)"/>
      </g>
     </g>
    </g>
    <g id="xtick_7">
     <g id="line2d_13">
      <path d="M 546.919393 320.4 
L 546.919393 43.2 
" clip-path="url(#pcae25aa432)" style="fill: none; stroke-dasharray: 5.12,1.28,0.8,1.28; stroke-dashoffset: 0; stroke: #b0b0b0; stroke-width: 0.8"/>
     </g>
     <g id="line2d_14">
      <g>
       <use xlink:href="#m4f0cbcf747" x="546.919393" y="320.4" style="fill: #a9a9a9; stroke: #a9a9a9; stroke-width: 0.8"/>
      </g>
     </g>
     <g id="text_7">
      <!-- 2024-07 -->
      <g style="fill: #a9a9a9" transform="translate(526.027987 334.998438) scale(0.1 -0.1)">
       <use xlink:href="#DejaVuSans-32"/>
       <use xlink:href="#DejaVuSans-30" transform="translate(63.623047 0)"/>
       <use xlink:href="#DejaVuSans-32" transform="translate(127.246094 0)"/>
       <use xlink:href="#DejaVuSans-34" transform="translate(190.869141 0)"/>
       <use xlink:href="#DejaVuSans-2d" transform="translate(254.492188 0)"/>
       <use xlink:href="#DejaVuSans-30" transform="translate(290.576172 0)"/>
       <use xlink:href="#DejaVuSans-37" transform="translate(354.199219 0)"/>
      </g>
     </g>
    </g>
    <g id="xtick_8">
     <g id="line2d_15">
      <path d="M 616.966809 320.4 
L 616.966809 43.2 
" clip-path="url(#pcae25aa432)" style="fill: none; stroke-dasharray: 5.12,1.28,0.8,1.28; stroke-dashoffset: 0; stroke: #b0b0b0; stroke-width: 0.8"/>
     </g>
     <g id="line2d_16">
      <g>
       <use xlink:href="#m4f0cbcf747" x="616.966809" y="320.4" style="fill: #a9a9a9; stroke: #a9a9a9; stroke-width: 0.8"/>
      </g>
     </g>
     <g id="text_8">
      <!-- 2025-01 -->
      <g style="fill: #a9a9a9" transform="translate(596.075403 334.998438) scale(0.1 -0.1)">
       <defs>
        <path id="DejaVuSans-35" d="M 691 4666 
L 3169 4666 
L 3169 4134 
L 1269 4134 
L 1269 2991 
Q 1406 3038 1543 3061 
Q 1681 3084 1819 3084 
Q 2600 3084 3056 2656 
Q 3513 2228 3513 1497 
Q 3513 744 3044 326 
Q 2575 -91 1722 -91 
Q 1428 -91 1123 -41 
Q 819 9 494 109 
L 494 744 
Q 775 591 1075 516 
Q 1375 441 1709 441 
Q 2250 441 2565 725 
Q 2881 1009 2881 1497 
Q 2881 1984 2565 2268 
Q 2250 2553 1709 2553 
Q 1456 2553 1204 2497 
Q 953 2441 691 2322 
L 691 4666 
z
" transform="scale(0.015625)"/>
       </defs>
       <use xlink:href="#DejaVuSans-32"/>
       <use xlink:href="#DejaVuSans-30" transform="translate(63.623047 0)"/>
       <use xlink:href="#DejaVuSans-32" transform="translate(127.246094 0)"/>
       <use xlink:href="#DejaVuSans-35" transform="translate(190.869141 0)"/>
       <use xlink:href="#DejaVuSans-2d" transform="translate(254.492188 0)"/>
       <use xlink:href="#DejaVuSans-30" transform="translate(290.576172 0)"/>
       <use xlink:href="#DejaVuSans-31" transform="translate(354.199219 0)"/>
      </g>
     </g>
    </g>
    <g id="xtick_9">
     <g id="line2d_17">
      <path d="M 685.872147 320.4 
L 685.872147 43.2 
" clip-path="url(#pcae25aa432)" style="fill: none; stroke-dasharray: 5.12,1.28,0.8,1.28; stroke-dashoffset: 0; stroke: #b0b0b0; stroke-width: 0.8"/>
     </g>
     <g id="line2d_18">
      <g>
       <use xlink:href="#m4f0cbcf747" x="685.872147" y="320.4" style="fill: #a9a9a9; stroke: #a9a9a9; stroke-width: 0.8"/>
      </g>
     </g>
     <g id="text_9">
      <!-- 2025-07 -->
      <g style="fill: #a9a9a9" transform="translate(664.980741 334.998438) scale(0.1 -0.1)">
       <use xlink:href="#DejaVuSans-32"/>
       <use xlink:href="#DejaVuSans-30" transform="translate(63.623047 0)"/>
       <use xlink:href="#DejaVuSans-32" transform="translate(127.246094 0)"/>
       <use xlink:href="#DejaVuSans-35" transform="translate(190.869141 0)"/>
       <use xlink:href="#DejaVuSans-2d" transform="translate(254.492188 0)"/>
       <use xlink:href="#DejaVuSans-30" transform="translate(290.576172 0)"/>
       <use xlink:href="#DejaVuSans-37" transform="translate(354.199219 0)"/>
      </g>
     </g>
    </g>
    <g id="xtick_10">
     <g id="line2d_19">
      <path d="M 755.919563 320.4 
L 755.919563 43.2 
" clip-path="url(#pcae25aa432)" style="fill: none; stroke-dasharray: 5.12,1.28,0.8,1.28; stroke-dashoffset: 0; stroke: #b0b0b0; stroke-width: 0.8"/>
     </g>
     <g id="line2d_20">
      <g>
       <use xlink:href="#m4f0cbcf747" x="755.919563" y="320.4" style="fill: #a9a9a9; stroke: #a9a9a9; stroke-width: 0.8"/>
      </g>
     </g>
     <g id="text_10">
      <!-- 2026-01 -->
      <g style="fill: #a9a9a9" transform="translate(735.028157 334.998438) scale(0.1 -0.1)">
       <defs>
        <path id="DejaVuSans-36" d="M 2113 2584 
Q 1688 2584 1439 2293 
Q 1191 2003 1191 1497 
Q 1191 994 1439 701 
Q 1688 409 2113 409 
Q 2538 409 2786 701 
Q 3034 994 3034 1497 
Q 3034 2003 2786 2293 
Q 2538 2584 2113 2584 
z
M 3366 4563 
L 3366 3988 
Q 3128 4100 2886 4159 
Q 2644 4219 2406 4219 
Q 1781 4219 1451 3797 
Q 1122 3375 1075 2522 
Q 1259 2794 1537 2939 
Q 1816 3084 2150 3084 
Q 2853 3084 3261 2657 
Q 3669 2231 3669 1497 
Q 3669 778 3244 343 
Q 2819 -91 2113 -91 
Q 1303 -91 875 529 
Q 447 1150 447 2328 
Q 447 3434 972 4092 
Q 1497 4750 2381 4750 
Q 2619 4750 2861 4703 
Q 3103 4656 3366 4563 
z
" transform="scale(0.015625)"/>
       </defs>
       <use xlink:href="#DejaVuSans-32"/>
       <use xlink:href="#DejaVuSans-30" transform="translate(63.623047 0)"/>
       <use xlink:href="#DejaVuSans-32" transform="translate(127.246094 0)"/>
       <use xlink:href="#DejaVuSans-36" transform="translate(190.869141 0)"/>
       <use xlink:href="#DejaVuSans-2d" transform="translate(254.492188 0)"/>
       <use xlink:href="#DejaVuSans-30" transform="translate(290.576172 0)"/>
       <use xlink:href="#DejaVuSans-31" transform="translate(354.199219 0)"/>
      </g>
     </g>
    </g>
   </g>
   <g id="matplotlib.axis_2">
    <g id="ytick_1">
     <g id="line2d_21">
      <path d="M 108 307.829964 
L 777.6 307.829964 
" clip-path="url(#pcae25aa432)" style="fill: none; stroke-dasharray: 5.12,1.28,0.8,1.28; stroke-dashoffset: 0; stroke: #b0b0b0; stroke-width: 0.8"/>
     </g>
     <g id="line2d_22">
      <defs>
       <path id="m1f38a4ecae" d="M 0 0 
L -3.5 0 
" style="stroke: #a9a9a9; stroke-width: 0.8"/>
      </defs>
      <g>
       <use xlink:href="#m1f38a4ecae" x="108" y="307.829964" style="fill: #a9a9a9; stroke: #a9a9a9; stroke-width: 0.8"/>
      </g>
     </g>
     <g id="text_11">
      <!-- 0 -->
      <g style="fill: #a9a9a9" transform="translate(94.6375 311.629183) scale(0.1 -0.1)">
       <use xlink:href="#DejaVuSans-30"/>
      </g>
     </g>
    </g>
    <g id="ytick_2">
     <g id="line2d_23">
      <path d="M 108 277.865636 
L 777.6 277.865636 
" clip-path="url(#pcae25aa432)" style="fill: none; stroke-dasharray: 5.12,1.28,0.8,1.28; stroke-dashoffset: 0; stroke: #b0b0b0; stroke-width: 0.8"/>
     </g>
     <g id="line2d_24">
      <g>
       <use xlink:href="#m1f38a4ecae" x="108" y="277.865636" style="fill: #a9a9a9; stroke: #a9a9a9; stroke-width: 0.8"/>
      </g>
     </g>
     <g id="text_12">
      <!-- 1000 -->
      <g style="fill: #a9a9a9" transform="translate(75.55 281.664855) scale(0.1 -0.1)">
       <use xlink:href="#DejaVuSans-31"/>
       <use xlink:href="#DejaVuSans-30" transform="translate(63.623047 0)"/>
       <use xlink:href="#DejaVuSans-30" transform="translate(127.246094 0)"/>
       <use xlink:href="#DejaVuSans-30" transform="translate(190.869141 0)"/>
      </g>
     </g>
    </g>
    <g id="ytick_3">
     <g id="line2d_25">
      <path d="M 108 247.901308 
L 777.6 247.901308 
" clip-path="url(#pcae25aa432)" style="fill: none; stroke-dasharray: 5.12,1.28,0.8,1.28; stroke-dashoffset: 0; stroke: #b0b0b0; stroke-width: 0.8"/>
     </g>
     <g id="line2d_26">
      <g>
       <use xlink:href="#m1f38a4ecae" x="108" y="247.901308" style="fill: #a9a9a9; stroke: #a9a9a9; stroke-width: 0.8"/>
      </g>
     </g>
     <g id="text_13">
      <!-- 2000 -->
      <g style="fill: #a9a9a9" transform="translate(75.55 251.700527) scale(0.1 -0.1)">
       <use xlink:href="#DejaVuSans-32"/>
       <use xlink:href="#DejaVuSans-30" transform="translate(63.623047 0)"/>
       <use xlink:href="#DejaVuSans-30" transform="translate(127.246094 0)"/>
       <use xlink:href="#DejaVuSans-30" transform="translate(190.869141 0)"/>
      </g>
     </g>
    </g>
    <g id="ytick_4">
     <g id="line2d_27">
      <path d="M 108 217.93698 
L 777.6 217.93698 
" clip-path="url(#pcae25aa432)" style="fill: none; stroke-dasharray: 5.12,1.28,0.8,1.28; stroke-dashoffset: 0; stroke: #b0b0b0; stroke-width: 0.8"/>
     </g>
     <g id="line2d_28">
      <g>
       <use xlink:href="#m1f38a4ecae" x="108" y="217.93698" style="fill: #a9a9a9; stroke: #a9a9a9; stroke-width: 0.8"/>
      </g>
     </g>
     <g id="text_14">
      <!-- 3000 -->
      <g style="fill: #a9a9a9" transform="translate(75.55 221.736199) scale(0.1 -0.1)">
       <use xlink:href="#DejaVuSans-33"/>
       <use xlink:href="#DejaVuSans-30" transform="translate(63.623047 0)"/>
       <use xlink:href="#DejaVuSans-30" transform="translate(127.246094 0)"/>
       <use xlink:href="#DejaVuSans-30" transform="translate(190.869141 0)"/>
      </g>
     </g>
    </g>
    <g id="ytick_5">
     <g id="line2d_29">
      <path d="M 108 187.972652 
L 777.6 187.972652 
" clip-path="url(#pcae25aa432)" style="fill: none; stroke-dasharray: 5.12,1.28,0.8,1.28; stroke-dashoffset: 0; stroke: #b0b0b0; stroke-width: 0.8"/>
     </g>
     <g id="line2d_30">
      <g>
       <use xlink:href="#m1f38a4ecae" x="108" y="187.972652" style="fill: #a9a9a9; stroke: #a9a9a9; stroke-width: 0.8"/>
      </g>
     </g>
     <g id="text_15">
      <!-- 4000 -->
      <g style="fill: #a9a9a9" transform="translate(75.55 191.77187) scale(0.1 -0.1)">
       <use xlink:href="#DejaVuSans-34"/>
       <use xlink:href="#DejaVuSans-30" transform="translate(63.623047 0)"/>
       <use xlink:href="#DejaVuSans-30" transform="translate(127.246094 0)"/>
       <use xlink:href="#DejaVuSans-30" transform="translate(190.869141 0)"/>
      </g>
     </g>
    </g>
    <g id="ytick_6">
     <g id="line2d_31">
      <path d="M 108 158.008323 
L 777.6 158.008323 
" clip-path="url(#pcae25aa432)" style="fill: none; stroke-dasharray: 5.12,1.28,0.8,1.28; stroke-dashoffset: 0; stroke: #b0b0b0; stroke-width: 0.8"/>
     </g>
     <g id="line2d_32">
      <g>
       <use xlink:href="#m1f38a4ecae" x="108" y="158.008323" style="fill: #a9a9a9; stroke: #a9a9a9; stroke-width: 0.8"/>
      </g>
     </g>
     <g id="text_16">
      <!-- 5000 -->
      <g style="fill: #a9a9a9" transform="translate(75.55 161.807542) scale(0.1 -0.1)">
       <use xlink:href="#DejaVuSans-35"/>
       <use xlink:href="#DejaVuSans-30" transform="translate(63.623047 0)"/>
       <use xlink:href="#DejaVuSans-30" transform="translate(127.246094 0)"/>
       <use xlink:href="#DejaVuSans-30" transform="translate(190.869141 0)"/>
      </g>
     </g>
    </g>
    <g id="ytick_7">
     <g id="line2d_33">
      <path d="M 108 128.043995 
L 777.6 128.043995 
" clip-path="url(#pcae25aa432)" style="fill: none; stroke-dasharray: 5.12,1.28,0.8,1.28; stroke-dashoffset: 0; stroke: #b0b0b0; stroke-width: 0.8"/>
     </g>
     <g id="line2d_34">
      <g>
       <use xlink:href="#m1f38a4ecae" x="108" y="128.043995" style="fill: #a9a9a9; stroke: #a9a9a9; stroke-width: 0.8"/>
      </g>
     </g>
     <g id="text_17">
      <!-- 6000 -->
      <g style="fill: #a9a9a9" transform="translate(75.55 131.843214) scale(0.1 -0.1)">
       <use xlink:href="#DejaVuSans-36"/>
       <use xlink:href="#DejaVuSans-30" transform="translate(63.623047 0)"/>
       <use xlink:href="#DejaVuSans-30" transform="translate(127.246094 0)"/>
       <use xlink:href="#DejaVuSans-30" transform="translate(190.869141 0)"/>
      </g>
     </g>
    </g>
    <g id="ytick_8">
     <g id="line2d_35">
      <path d="M 108 98.079667 
L 777.6 98.079667 
" clip-path="url(#pcae25aa432)" style="fill: none; stroke-dasharray: 5.12,1.28,0.8,1.28; stroke-dashoffset: 0; stroke: #b0b0b0; stroke-width: 0.8"/>
     </g>
     <g id="line2d_36">
      <g>
       <use xlink:href="#m1f38a4ecae" x="108" y="98.079667" style="fill: #a9a9a9; stroke: #a9a9a9; stroke-width: 0.8"/>
      </g>
     </g>
     <g id="text_18">
      <!-- 7000 -->
      <g style="fill: #a9a9a9" transform="translate(75.55 101.878886) scale(0.1 -0.1)">
       <use xlink:href="#DejaVuSans-37"/>
       <use xlink:href="#DejaVuSans-30" transform="translate(63.623047 0)"/>
       <use xlink:href="#DejaVuSans-30" transform="translate(127.246094 0)"/>
       <use xlink:href="#DejaVuSans-30" transform="translate(190.869141 0)"/>
      </g>
     </g>
    </g>
    <g id="ytick_9">
     <g id="line2d_37">
      <path d="M 108 68.115339 
L 777.6 68.115339 
" clip-path="url(#pcae25aa432)" style="fill: none; stroke-dasharray: 5.12,1.28,0.8,1.28; stroke-dashoffset: 0; stroke: #b0b0b0; stroke-width: 0.8"/>
     </g>
     <g id="line2d_38">
      <g>
       <use xlink:href="#m1f38a4ecae" x="108" y="68.115339" style="fill: #a9a9a9; stroke: #a9a9a9; stroke-width: 0.8"/>
      </g>
     </g>
     <g id="text_19">
      <!-- 8000 -->
      <g style="fill: #a9a9a9" transform="translate(75.55 71.914558) scale(0.1 -0.1)">
       <defs>
        <path id="DejaVuSans-38" d="M 2034 2216 
Q 1584 2216 1326 1975 
Q 1069 1734 1069 1313 
Q 1069 891 1326 650 
Q 1584 409 2034 409 
Q 2484 409 2743 651 
Q 3003 894 3003 1313 
Q 3003 1734 2745 1975 
Q 2488 2216 2034 2216 
z
M 1403 2484 
Q 997 2584 770 2862 
Q 544 3141 544 3541 
Q 544 4100 942 4425 
Q 1341 4750 2034 4750 
Q 2731 4750 3128 4425 
Q 3525 4100 3525 3541 
Q 3525 3141 3298 2862 
Q 3072 2584 2669 2484 
Q 3125 2378 3379 2068 
Q 3634 1759 3634 1313 
Q 3634 634 3220 271 
Q 2806 -91 2034 -91 
Q 1263 -91 848 271 
Q 434 634 434 1313 
Q 434 1759 690 2068 
Q 947 2378 1403 2484 
z
M 1172 3481 
Q 1172 3119 1398 2916 
Q 1625 2713 2034 2713 
Q 2441 2713 2670 2916 
Q 2900 3119 2900 3481 
Q 2900 3844 2670 4047 
Q 2441 4250 2034 4250 
Q 1625 4250 1398 4047 
Q 1172 3844 1172 3481 
z
" transform="scale(0.015625)"/>
       </defs>
       <use xlink:href="#DejaVuSans-38"/>
       <use xlink:href="#DejaVuSans-30" transform="translate(63.623047 0)"/>
       <use xlink:href="#DejaVuSans-30" transform="translate(127.246094 0)"/>
       <use xlink:href="#DejaVuSans-30" transform="translate(190.869141 0)"/>
      </g>
     </g>
    </g>
   </g>
   <g id="line2d_39">
    <path d="M 138.436364 307.740071 
L 140.720519 307.530321 
L 141.101211 307.350535 
L 142.623981 307.140785 
L 144.146751 306.811177 
L 144.908136 306.69132 
L 146.811598 306.511534 
L 147.572983 306.211891 
L 147.953676 305.672533 
L 148.334368 305.402854 
L 148.715061 304.503924 
L 149.095753 304.443995 
L 149.857138 303.964566 
L 150.618523 303.395244 
L 152.141293 302.256599 
L 152.521985 302.106778 
L 153.28337 301.627348 
L 154.425448 301.058026 
L 154.80614 300.398811 
L 155.567525 299.799524 
L 156.32891 299.55981 
L 157.470988 299.380024 
L 159.755142 299.020452 
L 160.135835 298.840666 
L 162.800682 298.600951 
L 164.323452 298.211415 
L 167.368992 297.76195 
L 167.749684 297.5522 
L 168.130377 297.492271 
L 168.891762 297.222592 
L 171.556609 296.743163 
L 172.317994 296.503448 
L 175.744227 295.904162 
L 176.505611 295.724376 
L 178.028381 295.514625 
L 178.789766 295.274911 
L 179.170459 294.705589 
L 180.312536 294.226159 
L 181.454614 293.896552 
L 181.835306 293.686801 
L 182.596691 293.53698 
L 184.119461 293.057551 
L 184.880846 292.997622 
L 185.642231 292.787872 
L 187.165001 292.368371 
L 187.545693 292.338407 
L 188.307078 291.94887 
L 188.687771 291.888942 
L 189.068463 291.679191 
L 193.256081 290.960048 
L 194.77885 290.480618 
L 195.159543 290.210939 
L 197.063005 289.551724 
L 197.82439 288.982402 
L 198.966468 288.742687 
L 203.91547 287.244471 
L 204.296162 287.184542 
L 205.818932 286.555291 
L 206.199625 286.495363 
L 206.96101 286.165755 
L 207.722395 286.135791 
L 208.864472 285.776219 
L 209.245165 285.776219 
L 209.625857 285.596433 
L 210.387242 285.50654 
L 210.767935 285.356718 
L 212.671397 285.266825 
L 213.052089 285.176932 
L 213.813474 284.757432 
L 214.955552 284.337931 
L 215.716937 283.91843 
L 216.859014 283.409037 
L 218.381784 282.629964 
L 218.762477 282.180499 
L 219.523862 280.921998 
L 219.904554 280.80214 
L 220.285246 280.80214 
L 221.808016 279.933175 
L 222.188709 279.843282 
L 222.569401 279.453746 
L 223.330786 279.124138 
L 224.092171 278.764566 
L 224.472864 278.285137 
L 224.853556 277.625922 
L 225.234249 277.386207 
L 225.614941 276.697027 
L 225.995634 276.247562 
L 228.279789 274.929132 
L 229.802558 273.490844 
L 230.183251 272.56195 
L 230.563943 271.962663 
L 230.944636 271.633056 
L 231.325328 271.45327 
L 235.893638 267.2283 
L 237.416408 266.239477 
L 237.7971 266.089655 
L 239.31987 265.130797 
L 239.700563 264.951011 
L 241.604025 263.093222 
L 242.36541 262.763615 
L 243.126795 262.224257 
L 243.507488 261.984542 
L 243.88818 261.924614 
L 245.030258 261.235434 
L 245.41095 260.785969 
L 247.314412 259.677289 
L 247.695105 259.527467 
L 248.837182 258.688466 
L 254.54757 256.531034 
L 255.308954 255.781926 
L 256.451032 255.18264 
L 257.212417 254.673246 
L 257.973802 254.433532 
L 258.354494 254.163853 
L 258.735187 254.043995 
L 259.877264 253.234958 
L 261.780727 252.785493 
L 262.922804 252.06635 
L 264.064881 251.796671 
L 264.445574 251.706778 
L 265.587651 250.837812 
L 267.110421 250.388347 
L 267.491114 250.05874 
L 269.775269 249.219738 
L 270.536654 249.069917 
L 271.298039 248.740309 
L 273.962886 247.721522 
L 274.724271 247.631629 
L 275.866348 247.212128 
L 277.769811 246.223306 
L 280.053966 244.874911 
L 280.815351 244.665161 
L 281.957428 244.065874 
L 282.718813 243.916052 
L 283.480198 243.436623 
L 284.241583 243.226873 
L 285.38366 242.747444 
L 286.90643 242.537693 
L 287.667815 242.118193 
L 288.048508 241.758621 
L 288.4292 241.039477 
L 289.95197 240.590012 
L 291.47474 239.870868 
L 294.900972 238.282759 
L 295.662357 238.102973 
L 296.804435 237.503686 
L 297.185127 237.443757 
L 299.088589 236.454935 
L 299.849974 235.945541 
L 300.992052 235.705826 
L 303.656899 234.806897 
L 309.747979 231.900357 
L 310.128671 231.480856 
L 310.509364 231.241141 
L 310.890056 231.151249 
L 311.651441 230.492033 
L 312.032134 230.432105 
L 312.412826 229.772889 
L 312.793519 229.623068 
L 313.174211 229.29346 
L 313.554904 229.233532 
L 314.316289 228.724138 
L 315.077674 228.454459 
L 315.458366 228.154816 
L 315.839059 228.004994 
L 317.361828 227.016171 
L 318.503906 226.416885 
L 319.265291 226.207134 
L 320.026676 225.757669 
L 320.407368 225.06849 
L 321.168753 224.469203 
L 321.549446 224.37931 
L 323.833601 223.240666 
L 324.594986 222.911058 
L 325.35637 222.341736 
L 326.498448 221.233056 
L 327.259833 220.753627 
L 327.640525 220.304162 
L 329.163295 219.195482 
L 329.92468 218.386445 
L 330.686065 218.116766 
L 331.44745 217.577408 
L 332.589528 216.948157 
L 332.97022 216.888228 
L 336.396452 215.090369 
L 337.157837 214.880618 
L 338.680607 214.34126 
L 339.0613 214.011653 
L 340.58407 213.382402 
L 340.964762 213.262545 
L 341.726147 212.753151 
L 342.487532 212.423543 
L 343.248917 211.854221 
L 344.010302 210.266112 
L 344.771687 209.367182 
L 345.913764 208.737931 
L 346.675149 208.408323 
L 347.055842 208.348395 
L 347.817227 207.988823 
L 349.339997 207.449465 
L 350.101382 207 
L 350.862767 206.640428 
L 351.243459 206.520571 
L 353.527614 205.082283 
L 353.908306 204.632818 
L 355.050384 203.943639 
L 355.431076 203.793817 
L 356.192461 203.314388 
L 357.715231 202.445422 
L 358.095924 202.355529 
L 358.476616 202.025922 
L 361.141463 201.126992 
L 361.522156 200.857313 
L 362.283541 200.617598 
L 365.329081 199.119382 
L 366.090466 198.699881 
L 366.471158 198.520095 
L 367.232543 197.890844 
L 367.993928 197.681094 
L 368.374621 197.321522 
L 368.755313 197.261593 
L 369.516698 196.662307 
L 371.42016 195.493698 
L 372.181545 195.253983 
L 372.562238 195.014269 
L 372.94293 194.95434 
L 374.4657 194.205232 
L 375.607778 193.815696 
L 376.369163 193.695838 
L 377.891932 193.096552 
L 378.272625 193.066587 
L 379.795395 192.467301 
L 380.937472 191.6283 
L 381.318165 191.478478 
L 382.07955 191.029013 
L 382.460242 190.93912 
L 384.744397 189.590725 
L 385.12509 189.500832 
L 386.267167 188.781688 
L 387.409244 188.362188 
L 388.170629 188.092509 
L 389.693399 187.553151 
L 390.454784 187.283472 
L 391.977554 186.953864 
L 392.738939 186.71415 
L 394.642402 186.054935 
L 395.784479 185.695363 
L 396.165171 185.545541 
L 397.307249 185.365755 
L 399.591404 184.91629 
L 400.733481 184.646611 
L 401.114174 184.466825 
L 401.875559 184.317004 
L 402.636944 184.107253 
L 403.398329 183.747681 
L 403.779021 183.59786 
L 404.159713 183.59786 
L 408.347331 182.249465 
L 408.728023 182.039715 
L 409.108716 182.039715 
L 409.870101 181.740071 
L 410.250793 181.320571 
L 412.534948 180.331748 
L 414.057718 179.79239 
L 414.43841 179.552675 
L 415.580488 179.193103 
L 416.341873 178.983353 
L 416.722565 178.713674 
L 417.103258 178.623781 
L 417.48395 178.294174 
L 418.626028 178.054459 
L 419.387413 177.694887 
L 419.768105 177.215458 
L 423.955722 176.256599 
L 424.336415 176.256599 
L 425.0978 176.016885 
L 428.524032 175.117955 
L 428.904725 174.968133 
L 429.66611 174.818312 
L 431.569572 174.308918 
L 432.711649 173.949346 
L 434.615112 173.320095 
L 435.376497 172.990488 
L 436.137882 172.690844 
L 436.518574 172.421165 
L 437.279959 172.181451 
L 439.944806 171.132699 
L 441.467576 170.952913 
L 444.513116 169.784304 
L 444.893809 169.484661 
L 445.274501 169.394768 
L 445.655194 169.185018 
L 446.035886 169.155054 
L 450.223503 167.566944 
L 452.126966 167.027586 
L 452.888351 166.63805 
L 454.030428 166.368371 
L 455.553198 165.079905 
L 457.075968 164.390725 
L 458.598738 163.73151 
L 458.97943 163.641617 
L 459.360123 163.371938 
L 460.121508 163.132224 
L 460.5022 162.862545 
L 462.405663 162.203329 
L 466.212587 160.195719 
L 466.973972 159.836147 
L 467.354665 159.536504 
L 468.11605 159.266825 
L 470.400205 158.128181 
L 470.780897 158.038288 
L 471.922975 157.49893 
L 473.445744 156.959572 
L 474.207129 156.629964 
L 474.968514 156.510107 
L 475.349207 156.240428 
L 476.871977 155.940785 
L 477.633362 155.611177 
L 479.536824 154.682283 
L 484.485826 152.434958 
L 485.627904 152.045422 
L 486.008596 151.775743 
L 486.769981 151.68585 
L 487.150674 151.416171 
L 487.912059 151.296314 
L 488.673444 150.906778 
L 489.434829 150.667063 
L 490.957598 150.127705 
L 492.099676 149.708205 
L 494.003138 149.198811 
L 495.525908 148.539596 
L 496.287293 148.120095 
L 497.810063 147.311058 
L 498.571448 147.131272 
L 498.952141 146.891558 
L 499.332833 146.801665 
L 501.236295 145.842806 
L 504.281835 144.734126 
L 504.662528 144.614269 
L 505.423913 144.194768 
L 507.327375 143.505589 
L 509.61153 142.54673 
L 511.1343 141.797622 
L 514.941225 140.239477 
L 515.70261 139.849941 
L 516.083302 139.760048 
L 516.844687 139.460404 
L 517.225379 139.460404 
L 517.986764 139.100832 
L 519.509534 137.782402 
L 519.890227 137.662545 
L 520.270919 137.42283 
L 521.412997 137.093222 
L 521.793689 136.793579 
L 522.555074 136.5239 
L 523.697152 135.744828 
L 524.458537 135.535077 
L 525.219922 135.115577 
L 526.361999 134.845898 
L 528.265461 134.156718 
L 529.026846 133.917004 
L 529.788231 133.557432 
L 530.930309 132.928181 
L 531.691694 132.71843 
L 533.214464 131.999287 
L 535.498618 131.19025 
L 536.640696 130.650892 
L 538.544158 129.692033 
L 539.305543 129.39239 
L 539.686236 129.032818 
L 540.828313 128.583353 
L 541.209006 128.523424 
L 542.731776 127.804281 
L 543.873853 127.444709 
L 545.01593 127.025208 
L 545.777315 126.785493 
L 546.5387 126.635672 
L 547.300085 126.216171 
L 547.680778 126.06635 
L 548.06147 125.766706 
L 549.203548 125.467063 
L 549.964933 125.16742 
L 550.726318 124.837812 
L 552.249087 124.208561 
L 554.913935 123.489417 
L 555.67532 123.189774 
L 557.19809 122.890131 
L 557.959475 122.740309 
L 559.101552 122.290844 
L 560.24363 122.05113 
L 562.527784 120.672771 
L 563.669862 119.953627 
L 565.954017 119.234483 
L 566.334709 118.934839 
L 569.380249 117.826159 
L 570.522326 117.466587 
L 571.283711 117.047087 
L 572.045096 116.837337 
L 572.425789 116.627586 
L 573.187174 116.477765 
L 574.709944 115.878478 
L 575.471329 115.369084 
L 576.613406 115.069441 
L 577.755484 114.290369 
L 578.136176 114.23044 
L 579.658946 113.601189 
L 581.181716 113.211653 
L 581.562408 113.151724 
L 581.943101 112.971938 
L 582.323793 112.941974 
L 583.085178 112.672295 
L 583.465871 112.642331 
L 584.607948 112.192866 
L 586.130718 111.743401 
L 586.892103 111.144114 
L 588.414873 110.275149 
L 588.795565 110.185256 
L 589.176258 109.975505 
L 589.55695 109.915577 
L 592.983183 108.177646 
L 593.363875 107.818074 
L 595.267338 107.338644 
L 596.409415 106.799287 
L 597.1708 106.589536 
L 597.551492 106.40975 
L 597.932185 106.080143 
L 599.835647 105.390963 
L 604.784649 103.533175 
L 605.546034 103.383353 
L 607.449497 102.754102 
L 608.591574 102.244709 
L 611.256422 101.435672 
L 612.017807 100.986207 
L 624.961351 96.970987 
L 625.722736 96.761237 
L 626.864813 96.341736 
L 627.245506 96.341736 
L 628.387583 96.072057 
L 629.148968 95.922235 
L 629.910353 95.712485 
L 631.05243 95.083234 
L 632.194508 94.723662 
L 634.859355 93.794768 
L 636.382125 93.015696 
L 637.524203 92.746017 
L 638.285588 92.506302 
L 639.046973 92.116766 
L 639.427665 91.787158 
L 640.18905 91.547444 
L 640.569742 91.307729 
L 641.331127 91.217836 
L 643.995975 90.438763 
L 645.138052 90.199049 
L 646.28013 89.899405 
L 647.041515 89.71962 
L 648.183592 89.120333 
L 652.371209 87.532224 
L 652.751902 87.442331 
L 653.132594 87.23258 
L 653.893979 87.112723 
L 654.655364 86.962901 
L 655.036057 86.962901 
L 656.178134 86.603329 
L 657.320211 86.243757 
L 660.746444 85.254935 
L 661.507829 85.045184 
L 661.888521 84.955291 
L 662.269214 84.715577 
L 663.030599 84.565755 
L 663.791984 84.475862 
L 664.172676 84.266112 
L 664.553369 84.236147 
L 665.695446 83.69679 
L 666.837523 83.427111 
L 667.598908 83.097503 
L 668.360293 82.827824 
L 669.121678 82.618074 
L 669.883063 82.288466 
L 670.263756 82.228537 
L 671.025141 81.958859 
L 672.167218 81.629251 
L 672.928603 81.569322 
L 674.070681 81.149822 
L 674.832065 81.029964 
L 677.496913 80.041141 
L 679.781068 79.651605 
L 680.542453 79.411891 
L 680.923145 79.351962 
L 681.68453 79.022354 
L 682.065223 78.962426 
L 682.445915 78.78264 
L 683.2073 78.123424 
L 687.014225 76.715101 
L 689.29838 76.115815 
L 690.059765 75.696314 
L 690.440457 75.606421 
L 691.582535 74.97717 
L 691.963227 74.887277 
L 692.343919 74.587634 
L 693.485997 74.258026 
L 699.577077 71.501308 
L 699.957769 71.441379 
L 702.241924 70.272771 
L 702.622616 70.033056 
L 703.764694 69.703448 
L 705.287464 69.074197 
L 705.668156 69.044233 
L 707.571619 68.325089 
L 708.333004 68.175268 
L 709.094389 67.605945 
L 709.475081 67.605945 
L 710.236466 67.336266 
L 710.617158 67.276338 
L 710.997851 67.066587 
L 712.520621 66.766944 
L 714.043391 66.107729 
L 714.424083 66.107729 
L 715.566161 65.718193 
L 716.327546 65.598335 
L 717.469623 64.93912 
L 718.231008 64.549584 
L 720.13447 63.920333 
L 720.895855 63.590725 
L 723.18001 62.961474 
L 724.322088 62.72176 
L 725.464165 62.302259 
L 727.367627 61.61308 
L 732.697322 60.294649 
L 734.220092 59.575505 
L 735.36217 59.215933 
L 738.027017 58.676576 
L 738.788402 58.556718 
L 741.072557 57.657788 
L 741.833942 57.537931 
L 743.356712 57.028537 
L 743.737404 57.028537 
L 744.118097 56.728894 
L 744.879481 56.48918 
L 745.260174 56.48918 
L 746.402251 56.069679 
L 746.782944 55.859929 
L 747.163636 55.8 
L 747.163636 55.8 
" clip-path="url(#pcae25aa432)" style="fill: none; stroke: #1f77b4; stroke-width: 1.5; stroke-linecap: square"/>
   </g>
   <g id="line2d_40">
    <path d="M 138.817056 307.8 
L 142.243288 307.710107 
L 145.288828 307.560285 
L 146.811598 307.560285 
L 147.192291 307.440428 
L 149.095753 307.350535 
L 151.379908 307.080856 
L 153.664063 306.990963 
L 154.425448 306.90107 
L 157.090295 306.781213 
L 159.755142 306.69132 
L 161.658605 306.631391 
L 166.607607 306.541498 
L 168.511069 306.48157 
L 171.937302 306.391677 
L 173.460072 306.361712 
L 177.266996 306.271819 
L 178.789766 306.121998 
L 180.312536 306.092033 
L 182.596691 306.00214 
L 184.119461 305.972176 
L 186.022923 305.912247 
L 187.545693 305.762426 
L 190.971926 305.672533 
L 191.733311 305.612604 
L 193.256081 305.522711 
L 195.540235 305.432818 
L 197.063005 305.342925 
L 203.91547 304.89346 
L 206.580317 304.803567 
L 207.722395 304.68371 
L 209.625857 304.593817 
L 213.432782 304.384067 
L 217.239707 304.324138 
L 218.762477 304.144352 
L 220.665939 304.054459 
L 224.472864 303.664923 
L 226.757019 303.365279 
L 228.279789 303.305351 
L 231.325328 302.88585 
L 233.609483 302.825922 
L 234.751561 302.706064 
L 235.893638 302.616171 
L 255.689647 301.147919 
L 258.354494 301.058026 
L 259.877264 300.87824 
L 261.780727 300.788347 
L 264.064881 300.698454 
L 265.968344 300.608561 
L 267.491114 300.578597 
L 269.394576 300.518668 
L 270.155961 300.428775 
L 275.485656 300.338882 
L 276.247041 300.248989 
L 280.815351 300.159096 
L 284.241583 299.97931 
L 286.90643 299.889417 
L 288.4292 299.709631 
L 291.094047 299.619738 
L 291.855432 299.499881 
L 293.758895 299.439952 
L 297.56582 299.380024 
L 299.088589 299.230202 
L 300.611359 299.200238 
L 301.753437 299.110345 
L 303.276207 298.960523 
L 307.083132 298.750773 
L 310.890056 298.66088 
L 314.316289 298.481094 
L 315.458366 298.45113 
L 316.219751 298.331272 
L 318.123213 298.241379 
L 318.884598 298.181451 
L 319.645983 298.121522 
L 320.407368 298.061593 
L 324.214293 297.9717 
L 332.589528 297.402378 
L 333.350913 297.342449 
L 334.49299 297.252556 
L 337.157837 297.162663 
L 339.0613 297.102735 
L 344.390994 297.012842 
L 345.152379 296.922949 
L 350.482074 296.833056 
L 354.288999 296.623306 
L 355.050384 296.593341 
L 355.811769 296.503448 
L 357.715231 296.413555 
L 359.618694 296.353627 
L 361.522156 296.263734 
L 363.425618 296.203805 
L 366.851851 296.113912 
L 369.136005 296.024019 
L 374.4657 295.934126 
L 378.653317 295.694411 
L 380.176087 295.634483 
L 381.318165 295.54459 
L 386.647859 295.454697 
L 388.932014 295.364804 
L 395.784479 295.274911 
L 397.307249 295.244946 
L 401.875559 295.185018 
L 402.636944 295.125089 
L 407.966638 295.035196 
L 409.489408 295.005232 
L 419.387413 294.915339 
L 421.671567 294.825446 
L 437.660652 294.735553 
L 439.564114 294.675624 
L 449.462118 294.615696 
L 450.223503 294.555767 
L 452.126966 294.495838 
L 453.269043 294.375981 
L 455.553198 294.286088 
L 458.218045 294.166231 
L 461.644278 294.076338 
L 463.54774 294.016409 
L 466.212587 293.926516 
L 469.258127 293.776694 
L 471.16159 293.686801 
L 472.68436 293.656837 
L 479.156132 293.566944 
L 481.440287 293.477051 
L 485.627904 293.387158 
L 488.292751 293.267301 
L 490.957598 293.207372 
L 491.718983 293.147444 
L 500.855603 293.057551 
L 504.662528 292.8478 
L 507.327375 292.757907 
L 511.514992 292.518193 
L 514.17984 292.4283 
L 515.70261 292.398335 
L 518.367457 292.308442 
L 520.270919 292.098692 
L 524.077844 292.008799 
L 524.839229 291.918906 
L 528.646154 291.829013 
L 530.549616 291.769084 
L 534.737233 291.73912 
L 535.498618 291.649227 
L 539.686236 291.559334 
L 540.447621 291.499405 
L 548.822855 291.409512 
L 551.10701 291.31962 
L 556.817397 291.229727 
L 558.340167 291.199762 
L 561.766399 291.139834 
L 562.527784 291.049941 
L 567.476787 290.960048 
L 569.380249 290.900119 
L 576.232714 290.810226 
L 577.374791 290.720333 
L 578.516868 290.63044 
L 579.658946 290.540547 
L 585.369333 290.450654 
L 587.653488 290.360761 
L 598.69357 290.270868 
L 602.119802 290.091082 
L 607.449497 290.001189 
L 608.972267 289.971225 
L 613.540576 289.881332 
L 615.444039 289.821403 
L 623.438581 289.73151 
L 626.103428 289.611653 
L 632.955893 289.52176 
L 634.478663 289.491795 
L 638.285588 289.401902 
L 640.950435 289.282045 
L 645.138052 289.192152 
L 647.8029 289.072295 
L 651.229132 289.012366 
L 651.990517 288.952438 
L 660.365751 288.862545 
L 662.649906 288.772652 
L 665.314754 288.682759 
L 667.218216 288.62283 
L 678.258298 288.532937 
L 680.542453 288.443044 
L 686.633532 288.353151 
L 688.917687 288.263258 
L 693.866689 288.173365 
L 696.150844 288.083472 
L 699.196384 287.993579 
L 701.480539 287.903686 
L 716.708238 287.813793 
L 719.753778 287.663971 
L 728.509705 287.574078 
L 730.032475 287.544114 
L 739.169094 287.454221 
L 741.072557 287.394293 
L 747.163636 287.364328 
L 747.163636 287.364328 
" clip-path="url(#pcae25aa432)" style="fill: none; stroke: #ff7f0e; stroke-width: 1.5; stroke-linecap: square"/>
   </g>
   <g id="patch_3">
    <path d="M 108 320.4 
L 108 43.2 
" style="fill: none; stroke: #a9a9a9; stroke-width: 0.8; stroke-linejoin: miter; stroke-linecap: square"/>
   </g>
   <g id="patch_4">
    <path d="M 777.6 320.4 
L 777.6 43.2 
" style="fill: none"/>
   </g>
   <g id="patch_5">
    <path d="M 108 320.4 
L 777.6 320.4 
" style="fill: none; stroke: #a9a9a9; stroke-width: 0.8; stroke-linejoin: miter; stroke-linecap: square"/>
   </g>
   <g id="patch_6">
    <path d="M 108 43.2 
L 777.6 43.2 
" style="fill: none"/>
   </g>
   <g id="text_20">
    <!-- get_subscribe history -->
    <g style="fill: #a9a9a9" transform="translate(378.6075 37.2) scale(0.12 -0.12)">
     <defs>
      <path id="DejaVuSans-67" d="M 2906 1791 
Q 2906 2416 2648 2759 
Q 2391 3103 1925 3103 
Q 1463 3103 1205 2759 
Q 947 2416 947 1791 
Q 947 1169 1205 825 
Q 1463 481 1925 481 
Q 2391 481 2648 825 
Q 2906 1169 2906 1791 
z
M 3481 434 
Q 3481 -459 3084 -895 
Q 2688 -1331 1869 -1331 
Q 1566 -1331 1297 -1286 
Q 1028 -1241 775 -1147 
L 775 -588 
Q 1028 -725 1275 -790 
Q 1522 -856 1778 -856 
Q 2344 -856 2625 -561 
Q 2906 -266 2906 331 
L 2906 616 
Q 2728 306 2450 153 
Q 2172 0 1784 0 
Q 1141 0 747 490 
Q 353 981 353 1791 
Q 353 2603 747 3093 
Q 1141 3584 1784 3584 
Q 2172 3584 2450 3431 
Q 2728 3278 2906 2969 
L 2906 3500 
L 3481 3500 
L 3481 434 
z
" transform="scale(0.015625)"/>
      <path id="DejaVuSans-65" d="M 3597 1894 
L 3597 1613 
L 953 1613 
Q 991 1019 1311 708 
Q 1631 397 2203 397 
Q 2534 397 2845 478 
Q 3156 559 3463 722 
L 3463 178 
Q 3153 47 2828 -22 
Q 2503 -91 2169 -91 
Q 1331 -91 842 396 
Q 353 884 353 1716 
Q 353 2575 817 3079 
Q 1281 3584 2069 3584 
Q 2775 3584 3186 3129 
Q 3597 2675 3597 1894 
z
M 3022 2063 
Q 3016 2534 2758 2815 
Q 2500 3097 2075 3097 
Q 1594 3097 1305 2825 
Q 1016 2553 972 2059 
L 3022 2063 
z
" transform="scale(0.015625)"/>
      <path id="DejaVuSans-74" d="M 1172 4494 
L 1172 3500 
L 2356 3500 
L 2356 3053 
L 1172 3053 
L 1172 1153 
Q 1172 725 1289 603 
Q 1406 481 1766 481 
L 2356 481 
L 2356 0 
L 1766 0 
Q 1100 0 847 248 
Q 594 497 594 1153 
L 594 3053 
L 172 3053 
L 172 3500 
L 594 3500 
L 594 4494 
L 1172 4494 
z
" transform="scale(0.015625)"/>
      <path id="DejaVuSans-5f" d="M 3263 -1063 
L 3263 -1509 
L -63 -1509 
L -63 -1063 
L 3263 -1063 
z
" transform="scale(0.015625)"/>
      <path id="DejaVuSans-73" d="M 2834 3397 
L 2834 2853 
Q 2591 2978 2328 3040 
Q 2066 3103 1784 3103 
Q 1356 3103 1142 2972 
Q 928 2841 928 2578 
Q 928 2378 1081 2264 
Q 1234 2150 1697 2047 
L 1894 2003 
Q 2506 1872 2764 1633 
Q 3022 1394 3022 966 
Q 3022 478 2636 193 
Q 2250 -91 1575 -91 
Q 1294 -91 989 -36 
Q 684 19 347 128 
L 347 722 
Q 666 556 975 473 
Q 1284 391 1588 391 
Q 1994 391 2212 530 
Q 2431 669 2431 922 
Q 2431 1156 2273 1281 
Q 2116 1406 1581 1522 
L 1381 1569 
Q 847 1681 609 1914 
Q 372 2147 372 2553 
Q 372 3047 722 3315 
Q 1072 3584 1716 3584 
Q 2034 3584 2315 3537 
Q 2597 3491 2834 3397 
z
" transform="scale(0.015625)"/>
      <path id="DejaVuSans-75" d="M 544 1381 
L 544 3500 
L 1119 3500 
L 1119 1403 
Q 1119 906 1312 657 
Q 1506 409 1894 409 
Q 2359 409 2629 706 
Q 2900 1003 2900 1516 
L 2900 3500 
L 3475 3500 
L 3475 0 
L 2900 0 
L 2900 538 
Q 2691 219 2414 64 
Q 2138 -91 1772 -91 
Q 1169 -91 856 284 
Q 544 659 544 1381 
z
M 1991 3584 
L 1991 3584 
z
" transform="scale(0.015625)"/>
      <path id="DejaVuSans-62" d="M 3116 1747 
Q 3116 2381 2855 2742 
Q 2594 3103 2138 3103 
Q 1681 3103 1420 2742 
Q 1159 2381 1159 1747 
Q 1159 1113 1420 752 
Q 1681 391 2138 391 
Q 2594 391 2855 752 
Q 3116 1113 3116 1747 
z
M 1159 2969 
Q 1341 3281 1617 3432 
Q 1894 3584 2278 3584 
Q 2916 3584 3314 3078 
Q 3713 2572 3713 1747 
Q 3713 922 3314 415 
Q 2916 -91 2278 -91 
Q 1894 -91 1617 61 
Q 1341 213 1159 525 
L 1159 0 
L 581 0 
L 581 4863 
L 1159 4863 
L 1159 2969 
z
" transform="scale(0.015625)"/>
      <path id="DejaVuSans-63" d="M 3122 3366 
L 3122 2828 
Q 2878 2963 2633 3030 
Q 2388 3097 2138 3097 
Q 1578 3097 1268 2742 
Q 959 2388 959 1747 
Q 959 1106 1268 751 
Q 1578 397 2138 397 
Q 2388 397 2633 464 
Q 2878 531 3122 666 
L 3122 134 
Q 2881 22 2623 -34 
Q 2366 -91 2075 -91 
Q 1284 -91 818 406 
Q 353 903 353 1747 
Q 353 2603 823 3093 
Q 1294 3584 2113 3584 
Q 2378 3584 2631 3529 
Q 2884 3475 3122 3366 
z
" transform="scale(0.015625)"/>
      <path id="DejaVuSans-72" d="M 2631 2963 
Q 2534 3019 2420 3045 
Q 2306 3072 2169 3072 
Q 1681 3072 1420 2755 
Q 1159 2438 1159 1844 
L 1159 0 
L 581 0 
L 581 3500 
L 1159 3500 
L 1159 2956 
Q 1341 3275 1631 3429 
Q 1922 3584 2338 3584 
Q 2397 3584 2469 3576 
Q 2541 3569 2628 3553 
L 2631 2963 
z
" transform="scale(0.015625)"/>
      <path id="DejaVuSans-69" d="M 603 3500 
L 1178 3500 
L 1178 0 
L 603 0 
L 603 3500 
z
M 603 4863 
L 1178 4863 
L 1178 4134 
L 603 4134 
L 603 4863 
z
" transform="scale(0.015625)"/>
      <path id="DejaVuSans-20" transform="scale(0.015625)"/>
      <path id="DejaVuSans-68" d="M 3513 2113 
L 3513 0 
L 2938 0 
L 2938 2094 
Q 2938 2591 2744 2837 
Q 2550 3084 2163 3084 
Q 1697 3084 1428 2787 
Q 1159 2491 1159 1978 
L 1159 0 
L 581 0 
L 581 4863 
L 1159 4863 
L 1159 2956 
Q 1366 3272 1645 3428 
Q 1925 3584 2291 3584 
Q 2894 3584 3203 3211 
Q 3513 2838 3513 2113 
z
" transform="scale(0.015625)"/>
      <path id="DejaVuSans-6f" d="M 1959 3097 
Q 1497 3097 1228 2736 
Q 959 2375 959 1747 
Q 959 1119 1226 758 
Q 1494 397 1959 397 
Q 2419 397 2687 759 
Q 2956 1122 2956 1747 
Q 2956 2369 2687 2733 
Q 2419 3097 1959 3097 
z
M 1959 3584 
Q 2709 3584 3137 3096 
Q 3566 2609 3566 1747 
Q 3566 888 3137 398 
Q 2709 -91 1959 -91 
Q 1206 -91 779 398 
Q 353 888 353 1747 
Q 353 2609 779 3096 
Q 1206 3584 1959 3584 
z
" transform="scale(0.015625)"/>
      <path id="DejaVuSans-79" d="M 2059 -325 
Q 1816 -950 1584 -1140 
Q 1353 -1331 966 -1331 
L 506 -1331 
L 506 -850 
L 844 -850 
Q 1081 -850 1212 -737 
Q 1344 -625 1503 -206 
L 1606 56 
L 191 3500 
L 800 3500 
L 1894 763 
L 2988 3500 
L 3597 3500 
L 2059 -325 
z
" transform="scale(0.015625)"/>
     </defs>
     <use xlink:href="#DejaVuSans-67"/>
     <use xlink:href="#DejaVuSans-65" transform="translate(63.476562 0)"/>
     <use xlink:href="#DejaVuSans-74" transform="translate(125 0)"/>
     <use xlink:href="#DejaVuSans-5f" transform="translate(164.208984 0)"/>
     <use xlink:href="#DejaVuSans-73" transform="translate(214.208984 0)"/>
     <use xlink:href="#DejaVuSans-75" transform="translate(266.308594 0)"/>
     <use xlink:href="#DejaVuSans-62" transform="translate(329.6875 0)"/>
     <use xlink:href="#DejaVuSans-73" transform="translate(393.164062 0)"/>
     <use xlink:href="#DejaVuSans-63" transform="translate(445.263672 0)"/>
     <use xlink:href="#DejaVuSans-72" transform="translate(500.244141 0)"/>
     <use xlink:href="#DejaVuSans-69" transform="translate(541.357422 0)"/>
     <use xlink:href="#DejaVuSans-62" transform="translate(569.140625 0)"/>
     <use xlink:href="#DejaVuSans-65" transform="translate(632.617188 0)"/>
     <use xlink:href="#DejaVuSans-20" transform="translate(694.140625 0)"/>
     <use xlink:href="#DejaVuSans-68" transform="translate(725.927734 0)"/>
     <use xlink:href="#DejaVuSans-69" transform="translate(789.306641 0)"/>
     <use xlink:href="#DejaVuSans-73" transform="translate(817.089844 0)"/>
     <use xlink:href="#DejaVuSans-74" transform="translate(869.189453 0)"/>
     <use xlink:href="#DejaVuSans-6f" transform="translate(908.398438 0)"/>
     <use xlink:href="#DejaVuSans-72" transform="translate(969.580078 0)"/>
     <use xlink:href="#DejaVuSans-79" transform="translate(1010.693359 0)"/>
    </g>
   </g>
   <g id="legend_1">
    <g id="line2d_41">
     <path d="M 815.08 328.498438 
L 825.08 328.498438 
L 835.08 328.498438 
" style="fill: none; stroke: #1f77b4; stroke-width: 1.5; stroke-linecap: square"/>
    </g>
    <g id="text_21">
     <!-- star -->
     <g style="fill: #a9a9a9" transform="translate(843.08 331.998438) scale(0.1 -0.1)">
      <defs>
       <path id="DejaVuSans-61" d="M 2194 1759 
Q 1497 1759 1228 1600 
Q 959 1441 959 1056 
Q 959 750 1161 570 
Q 1363 391 1709 391 
Q 2188 391 2477 730 
Q 2766 1069 2766 1631 
L 2766 1759 
L 2194 1759 
z
M 3341 1997 
L 3341 0 
L 2766 0 
L 2766 531 
Q 2569 213 2275 61 
Q 1981 -91 1556 -91 
Q 1019 -91 701 211 
Q 384 513 384 1019 
Q 384 1609 779 1909 
Q 1175 2209 1959 2209 
L 2766 2209 
L 2766 2266 
Q 2766 2663 2505 2880 
Q 2244 3097 1772 3097 
Q 1472 3097 1187 3025 
Q 903 2953 641 2809 
L 641 3341 
Q 956 3463 1253 3523 
Q 1550 3584 1831 3584 
Q 2591 3584 2966 3190 
Q 3341 2797 3341 1997 
z
" transform="scale(0.015625)"/>
      </defs>
      <use xlink:href="#DejaVuSans-73"/>
      <use xlink:href="#DejaVuSans-74" transform="translate(52.099609 0)"/>
      <use xlink:href="#DejaVuSans-61" transform="translate(91.308594 0)"/>
      <use xlink:href="#DejaVuSans-72" transform="translate(152.587891 0)"/>
     </g>
    </g>
    <g id="line2d_42">
     <path d="M 815.08 343.176562 
L 825.08 343.176562 
L 835.08 343.176562 
" style="fill: none; stroke: #ff7f0e; stroke-width: 1.5; stroke-linecap: square"/>
    </g>
    <g id="text_22">
     <!-- fork -->
     <g style="fill: #a9a9a9" transform="translate(843.08 346.676562) scale(0.1 -0.1)">
      <defs>
       <path id="DejaVuSans-66" d="M 2375 4863 
L 2375 4384 
L 1825 4384 
Q 1516 4384 1395 4259 
Q 1275 4134 1275 3809 
L 1275 3500 
L 2222 3500 
L 2222 3053 
L 1275 3053 
L 1275 0 
L 697 0 
L 697 3053 
L 147 3053 
L 147 3500 
L 697 3500 
L 697 3744 
Q 697 4328 969 4595 
Q 1241 4863 1831 4863 
L 2375 4863 
z
" transform="scale(0.015625)"/>
       <path id="DejaVuSans-6b" d="M 581 4863 
L 1159 4863 
L 1159 1991 
L 2875 3500 
L 3609 3500 
L 1753 1863 
L 3688 0 
L 2938 0 
L 1159 1709 
L 1159 0 
L 581 0 
L 581 4863 
z
" transform="scale(0.015625)"/>
      </defs>
      <use xlink:href="#DejaVuSans-66"/>
      <use xlink:href="#DejaVuSans-6f" transform="translate(35.205078 0)"/>
      <use xlink:href="#DejaVuSans-72" transform="translate(96.386719 0)"/>
      <use xlink:href="#DejaVuSans-6b" transform="translate(137.5 0)"/>
     </g>
    </g>
   </g>
  </g>
 </g>
 <defs>
  <clipPath id="pcae25aa432">
   <rect x="108" y="43.2" width="669.6" height="277.2"/>
  </clipPath>
 </defs>
</svg>
