<?xml version="1.0" encoding="utf-8" standalone="no"?>
<!DOCTYPE svg PUBLIC "-//W3C//DTD SVG 1.1//EN"
  "http://www.w3.org/Graphics/SVG/1.1/DTD/svg11.dtd">
<svg xmlns:xlink="http://www.w3.org/1999/xlink" width="864pt" height="360pt" viewBox="0 0 864 360" xmlns="http://www.w3.org/2000/svg" version="1.1">
 <metadata>
  <rdf:RDF xmlns:dc="http://purl.org/dc/elements/1.1/" xmlns:cc="http://creativecommons.org/ns#" xmlns:rdf="http://www.w3.org/1999/02/22-rdf-syntax-ns#">
   <cc:Work>
    <dc:type rdf:resource="http://purl.org/dc/dcmitype/StillImage"/>
    <dc:date>2026-06-13T08:48:28.932119</dc:date>
    <dc:format>image/svg+xml</dc:format>
    <dc:creator>
     <cc:Agent>
      <dc:title>Matplotlib v3.11.0, https://matplotlib.org/</dc:title>
     </cc:Agent>
    </dc:creator>
   </cc:Work>
  </rdf:RDF>
 </metadata>
 <defs>
  <style type="text/css">*{stroke-linejoin: round; stroke-linecap: butt}</style>
 </defs>
 <g id="figure_1">
  <g id="patch_1">
   <path d="M 0 360 
L 864 360 
L 864 0 
L 0 0 
L 0 360 
z
" style="fill: none; opacity: 0"/>
  </g>
  <g id="axes_1">
   <g id="patch_2">
    <path d="M 108 320.4 
L 777.6 320.4 
L 777.6 43.2 
L 108 43.2 
L 108 320.4 
z
" style="fill: none; opacity: 0"/>
   </g>
   <g id="matplotlib.axis_1">
    <g id="xtick_1">
     <g id="line2d_1">
      <path d="M 193.341176 320.4 
L 193.341176 43.2 
" clip-path="url(#p38472673ac)" style="fill: none; stroke-dasharray: 5.12,1.28,0.8,1.28; stroke-dashoffset: 0; stroke: #b0b0b0; stroke-width: 0.8"/>
     </g>
     <g id="line2d_2">
      <defs>
       <path id="mcf6512e53a" d="M 0 0 
L 0 3.5 
" style="stroke: #a9a9a9; stroke-width: 0.8"/>
      </defs>
      <g>
       <use xlink:href="#mcf6512e53a" x="193.341176" y="320.4" style="fill: #a9a9a9; stroke: #a9a9a9; stroke-width: 0.8"/>
      </g>
     </g>
     <g id="text_1">
      <!-- 2022 -->
      <g style="fill: #a9a9a9" transform="translate(180.616176 334.997656) scale(0.1 -0.1)">
       <defs>
        <path id="DejaVuSans-15" d="M 1228 531 
L 3431 531 
L 3431 0 
L 469 0 
L 469 531 
Q 828 903 1448 1529 
Q 2069 2156 2228 2338 
Q 2531 2678 2651 2914 
Q 2772 3150 2772 3378 
Q 2772 3750 2511 3984 
Q 2250 4219 1831 4219 
Q 1534 4219 1204 4116 
Q 875 4013 500 3803 
L 500 4441 
Q 881 4594 1212 4672 
Q 1544 4750 1819 4750 
Q 2544 4750 2975 4387 
Q 3406 4025 3406 3419 
Q 3406 3131 3298 2873 
Q 3191 2616 2906 2266 
Q 2828 2175 2409 1742 
Q 1991 1309 1228 531 
z
" transform="scale(0.015625)"/>
        <path id="DejaVuSans-13" d="M 2034 4250 
Q 1547 4250 1301 3770 
Q 1056 3291 1056 2328 
Q 1056 1369 1301 889 
Q 1547 409 2034 409 
Q 2525 409 2770 889 
Q 3016 1369 3016 2328 
Q 3016 3291 2770 3770 
Q 2525 4250 2034 4250 
z
M 2034 4750 
Q 2819 4750 3233 4129 
Q 3647 3509 3647 2328 
Q 3647 1150 3233 529 
Q 2819 -91 2034 -91 
Q 1250 -91 836 529 
Q 422 1150 422 2328 
Q 422 3509 836 4129 
Q 1250 4750 2034 4750 
z
" transform="scale(0.015625)"/>
       </defs>
       <use xlink:href="#DejaVuSans-15"/>
       <use xlink:href="#DejaVuSans-13" transform="translate(63.625 0)"/>
       <use xlink:href="#DejaVuSans-15" transform="translate(127.25 0)"/>
       <use xlink:href="#DejaVuSans-15" transform="translate(190.875 0)"/>
      </g>
     </g>
    </g>
    <g id="xtick_2">
     <g id="line2d_3">
      <path d="M 317.81482 320.4 
L 317.81482 43.2 
" clip-path="url(#p38472673ac)" style="fill: none; stroke-dasharray: 5.12,1.28,0.8,1.28; stroke-dashoffset: 0; stroke: #b0b0b0; stroke-width: 0.8"/>
     </g>
     <g id="line2d_4">
      <g>
       <use xlink:href="#mcf6512e53a" x="317.81482" y="320.4" style="fill: #a9a9a9; stroke: #a9a9a9; stroke-width: 0.8"/>
      </g>
     </g>
     <g id="text_2">
      <!-- 2023 -->
      <g style="fill: #a9a9a9" transform="translate(305.08982 334.997656) scale(0.1 -0.1)">
       <defs>
        <path id="DejaVuSans-16" d="M 2597 2516 
Q 3050 2419 3304 2112 
Q 3559 1806 3559 1356 
Q 3559 666 3084 287 
Q 2609 -91 1734 -91 
Q 1441 -91 1130 -33 
Q 819 25 488 141 
L 488 750 
Q 750 597 1062 519 
Q 1375 441 1716 441 
Q 2309 441 2620 675 
Q 2931 909 2931 1356 
Q 2931 1769 2642 2001 
Q 2353 2234 1838 2234 
L 1294 2234 
L 1294 2753 
L 1863 2753 
Q 2328 2753 2575 2939 
Q 2822 3125 2822 3475 
Q 2822 3834 2567 4026 
Q 2313 4219 1838 4219 
Q 1578 4219 1281 4162 
Q 984 4106 628 3988 
L 628 4550 
Q 988 4650 1302 4700 
Q 1616 4750 1894 4750 
Q 2613 4750 3031 4423 
Q 3450 4097 3450 3541 
Q 3450 3153 3228 2886 
Q 3006 2619 2597 2516 
z
" transform="scale(0.015625)"/>
       </defs>
       <use xlink:href="#DejaVuSans-15"/>
       <use xlink:href="#DejaVuSans-13" transform="translate(63.625 0)"/>
       <use xlink:href="#DejaVuSans-15" transform="translate(127.25 0)"/>
       <use xlink:href="#DejaVuSans-16" transform="translate(190.875 0)"/>
      </g>
     </g>
    </g>
    <g id="xtick_3">
     <g id="line2d_5">
      <path d="M 442.288464 320.4 
L 442.288464 43.2 
" clip-path="url(#p38472673ac)" style="fill: none; stroke-dasharray: 5.12,1.28,0.8,1.28; stroke-dashoffset: 0; stroke: #b0b0b0; stroke-width: 0.8"/>
     </g>
     <g id="line2d_6">
      <g>
       <use xlink:href="#mcf6512e53a" x="442.288464" y="320.4" style="fill: #a9a9a9; stroke: #a9a9a9; stroke-width: 0.8"/>
      </g>
     </g>
     <g id="text_3">
      <!-- 2024 -->
      <g style="fill: #a9a9a9" transform="translate(429.563464 334.997656) scale(0.1 -0.1)">
       <defs>
        <path id="DejaVuSans-17" d="M 2419 4116 
L 825 1625 
L 2419 1625 
L 2419 4116 
z
M 2253 4666 
L 3047 4666 
L 3047 1625 
L 3713 1625 
L 3713 1100 
L 3047 1100 
L 3047 0 
L 2419 0 
L 2419 1100 
L 313 1100 
L 313 1709 
L 2253 4666 
z
" transform="scale(0.015625)"/>
       </defs>
       <use xlink:href="#DejaVuSans-15"/>
       <use xlink:href="#DejaVuSans-13" transform="translate(63.625 0)"/>
       <use xlink:href="#DejaVuSans-15" transform="translate(127.25 0)"/>
       <use xlink:href="#DejaVuSans-17" transform="translate(190.875 0)"/>
      </g>
     </g>
    </g>
    <g id="xtick_4">
     <g id="line2d_7">
      <path d="M 567.103132 320.4 
L 567.103132 43.2 
" clip-path="url(#p38472673ac)" style="fill: none; stroke-dasharray: 5.12,1.28,0.8,1.28; stroke-dashoffset: 0; stroke: #b0b0b0; stroke-width: 0.8"/>
     </g>
     <g id="line2d_8">
      <g>
       <use xlink:href="#mcf6512e53a" x="567.103132" y="320.4" style="fill: #a9a9a9; stroke: #a9a9a9; stroke-width: 0.8"/>
      </g>
     </g>
     <g id="text_4">
      <!-- 2025 -->
      <g style="fill: #a9a9a9" transform="translate(554.378132 334.997656) scale(0.1 -0.1)">
       <defs>
        <path id="DejaVuSans-18" d="M 691 4666 
L 3169 4666 
L 3169 4134 
L 1269 4134 
L 1269 2991 
Q 1406 3038 1543 3061 
Q 1681 3084 1819 3084 
Q 2600 3084 3056 2656 
Q 3513 2228 3513 1497 
Q 3513 744 3044 326 
Q 2575 -91 1722 -91 
Q 1428 -91 1123 -41 
Q 819 9 494 109 
L 494 744 
Q 775 591 1075 516 
Q 1375 441 1709 441 
Q 2250 441 2565 725 
Q 2881 1009 2881 1497 
Q 2881 1984 2565 2268 
Q 2250 2553 1709 2553 
Q 1456 2553 1204 2497 
Q 953 2441 691 2322 
L 691 4666 
z
" transform="scale(0.015625)"/>
       </defs>
       <use xlink:href="#DejaVuSans-15"/>
       <use xlink:href="#DejaVuSans-13" transform="translate(63.625 0)"/>
       <use xlink:href="#DejaVuSans-15" transform="translate(127.25 0)"/>
       <use xlink:href="#DejaVuSans-18" transform="translate(190.875 0)"/>
      </g>
     </g>
    </g>
    <g id="xtick_5">
     <g id="line2d_9">
      <path d="M 691.576776 320.4 
L 691.576776 43.2 
" clip-path="url(#p38472673ac)" style="fill: none; stroke-dasharray: 5.12,1.28,0.8,1.28; stroke-dashoffset: 0; stroke: #b0b0b0; stroke-width: 0.8"/>
     </g>
     <g id="line2d_10">
      <g>
       <use xlink:href="#mcf6512e53a" x="691.576776" y="320.4" style="fill: #a9a9a9; stroke: #a9a9a9; stroke-width: 0.8"/>
      </g>
     </g>
     <g id="text_5">
      <!-- 2026 -->
      <g style="fill: #a9a9a9" transform="translate(678.851776 334.997656) scale(0.1 -0.1)">
       <defs>
        <path id="DejaVuSans-19" d="M 2113 2584 
Q 1688 2584 1439 2293 
Q 1191 2003 1191 1497 
Q 1191 994 1439 701 
Q 1688 409 2113 409 
Q 2538 409 2786 701 
Q 3034 994 3034 1497 
Q 3034 2003 2786 2293 
Q 2538 2584 2113 2584 
z
M 3366 4563 
L 3366 3988 
Q 3128 4100 2886 4159 
Q 2644 4219 2406 4219 
Q 1781 4219 1451 3797 
Q 1122 3375 1075 2522 
Q 1259 2794 1537 2939 
Q 1816 3084 2150 3084 
Q 2853 3084 3261 2657 
Q 3669 2231 3669 1497 
Q 3669 778 3244 343 
Q 2819 -91 2113 -91 
Q 1303 -91 875 529 
Q 447 1150 447 2328 
Q 447 3434 972 4092 
Q 1497 4750 2381 4750 
Q 2619 4750 2861 4703 
Q 3103 4656 3366 4563 
z
" transform="scale(0.015625)"/>
       </defs>
       <use xlink:href="#DejaVuSans-15"/>
       <use xlink:href="#DejaVuSans-13" transform="translate(63.625 0)"/>
       <use xlink:href="#DejaVuSans-15" transform="translate(127.25 0)"/>
       <use xlink:href="#DejaVuSans-19" transform="translate(190.875 0)"/>
      </g>
     </g>
    </g>
   </g>
   <g id="matplotlib.axis_2">
    <g id="ytick_1">
     <g id="line2d_11">
      <path d="M 108 307.827913 
L 777.6 307.827913 
" clip-path="url(#p38472673ac)" style="fill: none; stroke-dasharray: 5.12,1.28,0.8,1.28; stroke-dashoffset: 0; stroke: #b0b0b0; stroke-width: 0.8"/>
     </g>
     <g id="line2d_12">
      <defs>
       <path id="mb529521420" d="M 0 0 
L -3.5 0 
" style="stroke: #a9a9a9; stroke-width: 0.8"/>
      </defs>
      <g>
       <use xlink:href="#mb529521420" x="108" y="307.827913" style="fill: #a9a9a9; stroke: #a9a9a9; stroke-width: 0.8"/>
      </g>
     </g>
     <g id="text_6">
      <!-- 0 -->
      <g style="fill: #a9a9a9" transform="translate(94.6375 311.626741) scale(0.1 -0.1)">
       <use xlink:href="#DejaVuSans-13"/>
      </g>
     </g>
    </g>
    <g id="ytick_2">
     <g id="line2d_13">
      <path d="M 108 279.914754 
L 777.6 279.914754 
" clip-path="url(#p38472673ac)" style="fill: none; stroke-dasharray: 5.12,1.28,0.8,1.28; stroke-dashoffset: 0; stroke: #b0b0b0; stroke-width: 0.8"/>
     </g>
     <g id="line2d_14">
      <g>
       <use xlink:href="#mb529521420" x="108" y="279.914754" style="fill: #a9a9a9; stroke: #a9a9a9; stroke-width: 0.8"/>
      </g>
     </g>
     <g id="text_7">
      <!-- 1000 -->
      <g style="fill: #a9a9a9" transform="translate(75.55 283.713582) scale(0.1 -0.1)">
       <defs>
        <path id="DejaVuSans-14" d="M 794 531 
L 1825 531 
L 1825 4091 
L 703 3866 
L 703 4441 
L 1819 4666 
L 2450 4666 
L 2450 531 
L 3481 531 
L 3481 0 
L 794 0 
L 794 531 
z
" transform="scale(0.015625)"/>
       </defs>
       <use xlink:href="#DejaVuSans-14"/>
       <use xlink:href="#DejaVuSans-13" transform="translate(63.625 0)"/>
       <use xlink:href="#DejaVuSans-13" transform="translate(127.25 0)"/>
       <use xlink:href="#DejaVuSans-13" transform="translate(190.875 0)"/>
      </g>
     </g>
    </g>
    <g id="ytick_3">
     <g id="line2d_15">
      <path d="M 108 252.001595 
L 777.6 252.001595 
" clip-path="url(#p38472673ac)" style="fill: none; stroke-dasharray: 5.12,1.28,0.8,1.28; stroke-dashoffset: 0; stroke: #b0b0b0; stroke-width: 0.8"/>
     </g>
     <g id="line2d_16">
      <g>
       <use xlink:href="#mb529521420" x="108" y="252.001595" style="fill: #a9a9a9; stroke: #a9a9a9; stroke-width: 0.8"/>
      </g>
     </g>
     <g id="text_8">
      <!-- 2000 -->
      <g style="fill: #a9a9a9" transform="translate(75.55 255.800423) scale(0.1 -0.1)">
       <use xlink:href="#DejaVuSans-15"/>
       <use xlink:href="#DejaVuSans-13" transform="translate(63.625 0)"/>
       <use xlink:href="#DejaVuSans-13" transform="translate(127.25 0)"/>
       <use xlink:href="#DejaVuSans-13" transform="translate(190.875 0)"/>
      </g>
     </g>
    </g>
    <g id="ytick_4">
     <g id="line2d_17">
      <path d="M 108 224.088436 
L 777.6 224.088436 
" clip-path="url(#p38472673ac)" style="fill: none; stroke-dasharray: 5.12,1.28,0.8,1.28; stroke-dashoffset: 0; stroke: #b0b0b0; stroke-width: 0.8"/>
     </g>
     <g id="line2d_18">
      <g>
       <use xlink:href="#mb529521420" x="108" y="224.088436" style="fill: #a9a9a9; stroke: #a9a9a9; stroke-width: 0.8"/>
      </g>
     </g>
     <g id="text_9">
      <!-- 3000 -->
      <g style="fill: #a9a9a9" transform="translate(75.55 227.887264) scale(0.1 -0.1)">
       <use xlink:href="#DejaVuSans-16"/>
       <use xlink:href="#DejaVuSans-13" transform="translate(63.625 0)"/>
       <use xlink:href="#DejaVuSans-13" transform="translate(127.25 0)"/>
       <use xlink:href="#DejaVuSans-13" transform="translate(190.875 0)"/>
      </g>
     </g>
    </g>
    <g id="ytick_5">
     <g id="line2d_19">
      <path d="M 108 196.175277 
L 777.6 196.175277 
" clip-path="url(#p38472673ac)" style="fill: none; stroke-dasharray: 5.12,1.28,0.8,1.28; stroke-dashoffset: 0; stroke: #b0b0b0; stroke-width: 0.8"/>
     </g>
     <g id="line2d_20">
      <g>
       <use xlink:href="#mb529521420" x="108" y="196.175277" style="fill: #a9a9a9; stroke: #a9a9a9; stroke-width: 0.8"/>
      </g>
     </g>
     <g id="text_10">
      <!-- 4000 -->
      <g style="fill: #a9a9a9" transform="translate(75.55 199.974105) scale(0.1 -0.1)">
       <use xlink:href="#DejaVuSans-17"/>
       <use xlink:href="#DejaVuSans-13" transform="translate(63.625 0)"/>
       <use xlink:href="#DejaVuSans-13" transform="translate(127.25 0)"/>
       <use xlink:href="#DejaVuSans-13" transform="translate(190.875 0)"/>
      </g>
     </g>
    </g>
    <g id="ytick_6">
     <g id="line2d_21">
      <path d="M 108 168.262118 
L 777.6 168.262118 
" clip-path="url(#p38472673ac)" style="fill: none; stroke-dasharray: 5.12,1.28,0.8,1.28; stroke-dashoffset: 0; stroke: #b0b0b0; stroke-width: 0.8"/>
     </g>
     <g id="line2d_22">
      <g>
       <use xlink:href="#mb529521420" x="108" y="168.262118" style="fill: #a9a9a9; stroke: #a9a9a9; stroke-width: 0.8"/>
      </g>
     </g>
     <g id="text_11">
      <!-- 5000 -->
      <g style="fill: #a9a9a9" transform="translate(75.55 172.060946) scale(0.1 -0.1)">
       <use xlink:href="#DejaVuSans-18"/>
       <use xlink:href="#DejaVuSans-13" transform="translate(63.625 0)"/>
       <use xlink:href="#DejaVuSans-13" transform="translate(127.25 0)"/>
       <use xlink:href="#DejaVuSans-13" transform="translate(190.875 0)"/>
      </g>
     </g>
    </g>
    <g id="ytick_7">
     <g id="line2d_23">
      <path d="M 108 140.348959 
L 777.6 140.348959 
" clip-path="url(#p38472673ac)" style="fill: none; stroke-dasharray: 5.12,1.28,0.8,1.28; stroke-dashoffset: 0; stroke: #b0b0b0; stroke-width: 0.8"/>
     </g>
     <g id="line2d_24">
      <g>
       <use xlink:href="#mb529521420" x="108" y="140.348959" style="fill: #a9a9a9; stroke: #a9a9a9; stroke-width: 0.8"/>
      </g>
     </g>
     <g id="text_12">
      <!-- 6000 -->
      <g style="fill: #a9a9a9" transform="translate(75.55 144.147787) scale(0.1 -0.1)">
       <use xlink:href="#DejaVuSans-19"/>
       <use xlink:href="#DejaVuSans-13" transform="translate(63.625 0)"/>
       <use xlink:href="#DejaVuSans-13" transform="translate(127.25 0)"/>
       <use xlink:href="#DejaVuSans-13" transform="translate(190.875 0)"/>
      </g>
     </g>
    </g>
    <g id="ytick_8">
     <g id="line2d_25">
      <path d="M 108 112.4358 
L 777.6 112.4358 
" clip-path="url(#p38472673ac)" style="fill: none; stroke-dasharray: 5.12,1.28,0.8,1.28; stroke-dashoffset: 0; stroke: #b0b0b0; stroke-width: 0.8"/>
     </g>
     <g id="line2d_26">
      <g>
       <use xlink:href="#mb529521420" x="108" y="112.4358" style="fill: #a9a9a9; stroke: #a9a9a9; stroke-width: 0.8"/>
      </g>
     </g>
     <g id="text_13">
      <!-- 7000 -->
      <g style="fill: #a9a9a9" transform="translate(75.55 116.234628) scale(0.1 -0.1)">
       <defs>
        <path id="DejaVuSans-1a" d="M 525 4666 
L 3525 4666 
L 3525 4397 
L 1831 0 
L 1172 0 
L 2766 4134 
L 525 4134 
L 525 4666 
z
" transform="scale(0.015625)"/>
       </defs>
       <use xlink:href="#DejaVuSans-1a"/>
       <use xlink:href="#DejaVuSans-13" transform="translate(63.625 0)"/>
       <use xlink:href="#DejaVuSans-13" transform="translate(127.25 0)"/>
       <use xlink:href="#DejaVuSans-13" transform="translate(190.875 0)"/>
      </g>
     </g>
    </g>
    <g id="ytick_9">
     <g id="line2d_27">
      <path d="M 108 84.522641 
L 777.6 84.522641 
" clip-path="url(#p38472673ac)" style="fill: none; stroke-dasharray: 5.12,1.28,0.8,1.28; stroke-dashoffset: 0; stroke: #b0b0b0; stroke-width: 0.8"/>
     </g>
     <g id="line2d_28">
      <g>
       <use xlink:href="#mb529521420" x="108" y="84.522641" style="fill: #a9a9a9; stroke: #a9a9a9; stroke-width: 0.8"/>
      </g>
     </g>
     <g id="text_14">
      <!-- 8000 -->
      <g style="fill: #a9a9a9" transform="translate(75.55 88.321469) scale(0.1 -0.1)">
       <defs>
        <path id="DejaVuSans-1b" d="M 2034 2216 
Q 1584 2216 1326 1975 
Q 1069 1734 1069 1313 
Q 1069 891 1326 650 
Q 1584 409 2034 409 
Q 2484 409 2743 651 
Q 3003 894 3003 1313 
Q 3003 1734 2745 1975 
Q 2488 2216 2034 2216 
z
M 1403 2484 
Q 997 2584 770 2862 
Q 544 3141 544 3541 
Q 544 4100 942 4425 
Q 1341 4750 2034 4750 
Q 2731 4750 3128 4425 
Q 3525 4100 3525 3541 
Q 3525 3141 3298 2862 
Q 3072 2584 2669 2484 
Q 3125 2378 3379 2068 
Q 3634 1759 3634 1313 
Q 3634 634 3220 271 
Q 2806 -91 2034 -91 
Q 1263 -91 848 271 
Q 434 634 434 1313 
Q 434 1759 690 2068 
Q 947 2378 1403 2484 
z
M 1172 3481 
Q 1172 3119 1398 2916 
Q 1625 2713 2034 2713 
Q 2441 2713 2670 2916 
Q 2900 3119 2900 3481 
Q 2900 3844 2670 4047 
Q 2441 4250 2034 4250 
Q 1625 4250 1398 4047 
Q 1172 3844 1172 3481 
z
" transform="scale(0.015625)"/>
       </defs>
       <use xlink:href="#DejaVuSans-1b"/>
       <use xlink:href="#DejaVuSans-13" transform="translate(63.625 0)"/>
       <use xlink:href="#DejaVuSans-13" transform="translate(127.25 0)"/>
       <use xlink:href="#DejaVuSans-13" transform="translate(190.875 0)"/>
      </g>
     </g>
    </g>
    <g id="ytick_10">
     <g id="line2d_29">
      <path d="M 108 56.609482 
L 777.6 56.609482 
" clip-path="url(#p38472673ac)" style="fill: none; stroke-dasharray: 5.12,1.28,0.8,1.28; stroke-dashoffset: 0; stroke: #b0b0b0; stroke-width: 0.8"/>
     </g>
     <g id="line2d_30">
      <g>
       <use xlink:href="#mb529521420" x="108" y="56.609482" style="fill: #a9a9a9; stroke: #a9a9a9; stroke-width: 0.8"/>
      </g>
     </g>
     <g id="text_15">
      <!-- 9000 -->
      <g style="fill: #a9a9a9" transform="translate(75.55 60.40831) scale(0.1 -0.1)">
       <defs>
        <path id="DejaVuSans-1c" d="M 703 97 
L 703 672 
Q 941 559 1184 500 
Q 1428 441 1663 441 
Q 2288 441 2617 861 
Q 2947 1281 2994 2138 
Q 2813 1869 2534 1725 
Q 2256 1581 1919 1581 
Q 1219 1581 811 2004 
Q 403 2428 403 3163 
Q 403 3881 828 4315 
Q 1253 4750 1959 4750 
Q 2769 4750 3195 4129 
Q 3622 3509 3622 2328 
Q 3622 1225 3098 567 
Q 2575 -91 1691 -91 
Q 1453 -91 1209 -44 
Q 966 3 703 97 
z
M 1959 2075 
Q 2384 2075 2632 2365 
Q 2881 2656 2881 3163 
Q 2881 3666 2632 3958 
Q 2384 4250 1959 4250 
Q 1534 4250 1286 3958 
Q 1038 3666 1038 3163 
Q 1038 2656 1286 2365 
Q 1534 2075 1959 2075 
z
" transform="scale(0.015625)"/>
       </defs>
       <use xlink:href="#DejaVuSans-1c"/>
       <use xlink:href="#DejaVuSans-13" transform="translate(63.625 0)"/>
       <use xlink:href="#DejaVuSans-13" transform="translate(127.25 0)"/>
       <use xlink:href="#DejaVuSans-13" transform="translate(190.875 0)"/>
      </g>
     </g>
    </g>
   </g>
   <g id="line2d_31">
    <path d="M 138.436364 307.744174 
L 140.482506 307.548782 
L 140.823529 307.381303 
L 142.187624 307.185911 
L 146.279908 306.432255 
L 146.620932 306.320603 
L 146.961956 305.818166 
L 147.302979 305.566947 
L 147.644003 304.729553 
L 147.985027 304.673726 
L 151.395264 302.245281 
L 152.759358 301.547452 
L 153.100382 300.961276 
L 153.782429 300.403013 
L 154.464477 300.179708 
L 155.487548 300.012229 
L 164.354163 298.504918 
L 164.695187 298.309526 
L 165.377235 298.086221 
L 167.082353 297.751263 
L 167.7644 297.611697 
L 171.515661 296.885955 
L 172.538732 296.606823 
L 173.902827 296.411431 
L 174.584874 296.188126 
L 174.925898 295.657776 
L 175.948969 295.211165 
L 176.97204 294.904121 
L 177.313063 294.708728 
L 177.995111 294.569163 
L 179.700229 294.122552 
L 180.7233 293.871334 
L 182.087395 293.536376 
L 182.428419 293.508463 
L 183.110466 293.173505 
L 183.45149 293.117678 
L 183.792513 292.922286 
L 188.225821 292.112805 
L 189.589916 291.470802 
L 190.271963 291.27541 
L 190.954011 290.968365 
L 191.636058 290.465928 
L 193.341176 290.075144 
L 194.023224 289.823926 
L 194.364248 289.768099 
L 195.046295 289.405228 
L 197.774484 288.651573 
L 198.797555 288.232875 
L 199.138579 288.177049 
L 199.820626 287.870004 
L 200.502674 287.842091 
L 201.525745 287.507133 
L 201.866769 287.507133 
L 202.207792 287.339654 
L 202.88984 287.255915 
L 203.230863 287.116349 
L 204.935982 287.03261 
L 205.277005 286.94887 
L 205.959053 286.558086 
L 206.982124 286.167302 
L 207.664171 285.776518 
L 208.687242 285.301994 
L 210.051337 284.604165 
L 210.392361 284.213381 
L 211.074408 283.041028 
L 212.097479 282.70607 
L 212.438503 282.426938 
L 213.461574 282.064067 
L 213.802597 281.701196 
L 214.825668 281.254586 
L 215.166692 281.059194 
L 217.212834 278.547009 
L 217.894882 278.212051 
L 219.258976 277.207178 
L 219.941024 276.704741 
L 220.282047 276.174391 
L 220.623071 275.309083 
L 220.964095 274.75082 
L 223.010237 273.048117 
L 224.033308 272.09907 
L 224.715355 271.177935 
L 225.397403 270.647585 
L 226.420474 269.949756 
L 226.761497 269.614798 
L 227.443545 269.391493 
L 228.466616 268.74949 
L 229.489687 267.995835 
L 230.853782 266.656004 
L 231.535829 266.348959 
L 232.217876 265.846522 
L 232.5589 265.65113 
L 232.899924 265.595304 
L 233.922995 264.981214 
L 234.264018 264.562517 
L 235.969137 263.557643 
L 236.31016 263.418077 
L 237.333231 262.636509 
L 242.448587 260.626761 
L 243.130634 259.928932 
L 244.153705 259.370669 
L 244.835752 258.896145 
L 245.5178 258.67284 
L 245.858824 258.421622 
L 246.199847 258.309969 
L 247.222918 257.556314 
L 249.26906 256.942224 
L 249.951108 256.495614 
L 251.315202 256.160656 
L 252.338273 255.379087 
L 253.702368 254.96039 
L 254.384416 254.541693 
L 255.407487 254.122995 
L 256.771581 253.788037 
L 257.453629 253.480992 
L 259.840794 252.531945 
L 260.522842 252.448206 
L 261.886937 251.889942 
L 265.638197 249.852282 
L 266.320244 249.517324 
L 267.002292 249.182366 
L 267.684339 249.0428 
L 268.366387 248.59619 
L 269.048434 248.400798 
L 270.071505 247.954187 
L 271.776623 247.563403 
L 272.117647 247.368011 
L 272.458671 247.033053 
L 272.799694 246.363137 
L 274.163789 245.972353 
L 275.527884 245.302437 
L 278.597097 243.823039 
L 279.279144 243.65556 
L 280.302215 243.097297 
L 280.984263 242.873992 
L 282.007334 242.371555 
L 283.030405 241.6179 
L 284.735523 241.282942 
L 285.417571 241.00381 
L 285.758594 240.975897 
L 286.099618 240.696766 
L 286.781665 240.445547 
L 288.486784 239.691892 
L 288.827807 239.41276 
L 289.168831 239.301108 
L 289.850879 238.88241 
L 291.555997 238.212494 
L 293.602139 236.649358 
L 293.943163 236.593531 
L 294.284186 235.979442 
L 294.62521 235.839876 
L 294.966234 235.532831 
L 295.307257 235.477005 
L 295.989305 235.002481 
L 296.671352 234.751263 
L 298.376471 233.606823 
L 301.10466 232.266992 
L 301.445684 231.624989 
L 302.127731 231.066726 
L 302.809778 230.787594 
L 303.150802 230.536376 
L 303.491826 230.452636 
L 304.173873 230.089765 
L 305.537968 229.364023 
L 306.220015 228.72202 
L 306.902063 228.107931 
L 307.58411 227.66132 
L 308.266157 227.019318 
L 308.948205 226.433141 
L 309.289228 226.265662 
L 309.971276 225.53992 
L 310.994347 225.037483 
L 311.676394 224.618786 
L 312.017418 224.507133 
L 312.358442 224.228002 
L 312.699465 224.172175 
L 315.768678 222.497386 
L 316.450726 222.301994 
L 317.81482 221.82747 
L 318.496868 221.352946 
L 319.860963 220.822596 
L 320.54301 220.403899 
L 321.225057 220.124767 
L 321.907105 219.594417 
L 322.589152 218.170846 
L 323.271199 217.333451 
L 324.29427 216.775188 
L 324.976318 216.468144 
L 325.317341 216.412317 
L 325.999389 216.077359 
L 327.704507 215.435357 
L 328.386555 214.960833 
L 329.409626 214.514222 
L 330.77372 213.648914 
L 331.114744 213.397696 
L 331.796791 212.72778 
L 332.819862 212.19743 
L 333.50191 211.778733 
L 334.866005 210.969251 
L 335.207028 210.885512 
L 335.548052 210.60638 
L 337.935218 209.768985 
L 338.276241 209.517767 
L 338.958289 209.294462 
L 342.709549 207.368454 
L 343.391597 206.810191 
L 344.073644 206.614798 
L 344.414668 206.27984 
L 344.755691 206.224014 
L 345.437739 205.665751 
L 347.142857 204.577138 
L 347.824905 204.353833 
L 348.165928 204.130527 
L 348.847976 203.907222 
L 349.871047 203.404785 
L 350.894118 203.041914 
L 351.576165 202.930261 
L 352.599236 202.511564 
L 354.645378 201.869561 
L 355.668449 201.115906 
L 356.350497 200.725122 
L 357.714591 200.027293 
L 358.737662 199.301551 
L 359.41971 199.134072 
L 360.442781 198.464156 
L 363.511994 197.34763 
L 364.194041 197.096411 
L 365.558136 196.789366 
L 366.240183 196.566061 
L 367.945302 195.951972 
L 368.968373 195.617014 
L 369.65042 195.449535 
L 373.060657 194.779619 
L 375.106799 194.193443 
L 375.788846 193.886398 
L 376.12987 193.746832 
L 376.470894 193.746832 
L 381.586249 192.016216 
L 381.927273 191.625432 
L 383.973415 190.704298 
L 385.33751 190.201861 
L 385.678533 189.978556 
L 387.383652 189.448206 
L 387.724675 189.196987 
L 388.065699 189.113248 
L 388.406723 188.806203 
L 389.429794 188.582898 
L 390.111841 188.24794 
L 390.452865 187.801329 
L 397.273338 186.182366 
L 397.614362 186.182366 
L 398.978457 185.735755 
L 405.116883 183.698095 
L 405.457907 183.446876 
L 407.163025 182.916526 
L 408.52712 182.274524 
L 409.891215 182.107045 
L 417.734759 179.008684 
L 419.439878 178.506247 
L 420.121925 178.143376 
L 421.144996 177.892158 
L 422.509091 176.691892 
L 424.896257 175.603279 
L 427.283422 174.514665 
L 428.306494 174.151794 
L 429.329565 173.621444 
L 432.057754 172.16996 
L 432.739801 171.835002 
L 433.080825 171.555871 
L 434.103896 171.10926 
L 435.467991 170.383518 
L 436.832086 169.825255 
L 439.219251 168.904121 
L 439.901299 168.820381 
L 440.242322 168.569163 
L 441.947441 168.178378 
L 443.993583 167.117678 
L 448.426891 165.024191 
L 449.449962 164.66132 
L 449.790985 164.410102 
L 450.473033 164.326362 
L 450.814057 164.103057 
L 451.496104 163.991405 
L 455.247364 162.53992 
L 457.293506 161.925831 
L 458.316578 161.47922 
L 458.998625 161.088436 
L 460.36272 160.334781 
L 461.044767 160.167302 
L 461.385791 159.943996 
L 461.726814 159.88817 
L 463.431933 158.994949 
L 467.865241 157.23642 
L 468.206264 157.180594 
L 469.570359 156.482765 
L 470.252406 156.343199 
L 470.934454 155.924502 
L 472.298549 155.226673 
L 477.754927 153.105272 
L 478.436975 152.798228 
L 479.80107 151.597962 
L 480.824141 151.179265 
L 483.211306 149.951086 
L 483.55233 149.699867 
L 484.234377 149.504475 
L 484.916425 149.113691 
L 485.939496 148.862472 
L 495.488159 144.870891 
L 495.829183 144.619672 
L 496.170206 144.535933 
L 496.852254 144.173062 
L 497.534301 143.949756 
L 497.875325 143.614798 
L 498.898396 143.196101 
L 499.239419 143.140275 
L 500.603514 142.470359 
L 501.626585 142.135401 
L 502.649656 141.744617 
L 503.672727 141.437572 
L 504.013751 141.381746 
L 504.695798 140.990961 
L 505.036822 140.851396 
L 505.377846 140.572264 
L 506.400917 140.293132 
L 507.082964 140.014001 
L 507.765011 139.706956 
L 509.129106 139.12078 
L 511.516272 138.50669 
L 512.198319 138.227559 
L 516.290604 137.166859 
L 518.677769 135.715374 
L 519.018793 135.436243 
L 521.405959 134.654674 
L 522.088006 134.235977 
L 524.475172 133.370669 
L 525.498243 133.035711 
L 526.18029 132.644927 
L 526.862338 132.505361 
L 527.203361 132.309969 
L 528.226432 132.030837 
L 529.590527 131.360922 
L 530.272574 131.08179 
L 531.636669 130.523527 
L 531.977693 130.188569 
L 532.65974 129.965264 
L 533.341788 129.602393 
L 534.705882 129.295348 
L 536.752024 128.737085 
L 537.093048 128.709171 
L 538.116119 128.290474 
L 539.480214 127.89969 
L 540.162261 127.341427 
L 541.526356 126.531945 
L 542.549427 126.196987 
L 545.61864 124.63385 
L 545.959664 124.354719 
L 548.005806 123.740629 
L 548.687853 123.461498 
L 549.710924 123.098626 
L 550.051948 122.791582 
L 552.439114 121.898361 
L 553.462185 121.423837 
L 553.803209 121.395924 
L 554.485256 121.116792 
L 555.849351 120.502703 
L 558.57754 119.721134 
L 559.600611 119.246611 
L 560.964706 118.827913 
L 561.30573 118.827913 
L 561.987777 118.548782 
L 562.669824 118.157997 
L 571.195416 115.450421 
L 571.53644 115.422508 
L 572.900535 114.864245 
L 574.605653 114.501374 
L 575.969748 113.971023 
L 576.651795 113.887284 
L 578.356914 113.552326 
L 579.038961 113.217368 
L 579.721008 112.854497 
L 581.085103 112.407887 
L 585.518411 110.705184 
L 586.541482 110.342313 
L 588.2466 109.421179 
L 588.928648 109.337439 
L 591.315814 108.63961 
L 593.020932 108.276739 
L 599.500382 105.680815 
L 600.182429 105.569163 
L 600.864477 105.429597 
L 601.2055 105.429597 
L 602.228571 105.094639 
L 603.93369 104.592202 
L 605.297785 104.145591 
L 610.072116 102.917412 
L 610.41314 102.666194 
L 611.777235 102.359149 
L 612.459282 102.052105 
L 614.505424 101.326362 
L 615.187471 101.103057 
L 619.620779 99.930704 
L 621.666921 99.204962 
L 622.348969 99.149136 
L 624.736134 98.47922 
L 625.759206 98.144262 
L 626.441253 97.530173 
L 629.510466 96.301994 
L 630.192513 96.190341 
L 632.920703 95.269207 
L 633.943774 94.683031 
L 634.284798 94.599291 
L 634.625821 94.348073 
L 636.33094 93.817723 
L 638.036058 93.036154 
L 638.718105 92.617457 
L 639.059129 92.533717 
L 639.741176 92.142933 
L 642.469366 91.138059 
L 642.81039 90.831015 
L 643.151413 90.775188 
L 643.833461 90.328578 
L 644.856532 90.021533 
L 646.220626 89.435357 
L 646.56165 89.407444 
L 648.266769 88.737528 
L 648.948816 88.597962 
L 649.630863 88.095525 
L 649.971887 88.095525 
L 651.335982 87.593088 
L 652.700076 87.313957 
L 654.064171 86.699867 
L 654.405195 86.699867 
L 656.792361 85.974125 
L 657.474408 85.415862 
L 660.543621 84.271422 
L 661.907716 83.936464 
L 664.976929 83.071156 
L 666.341024 82.56872 
L 667.705118 82.261675 
L 670.092284 81.563846 
L 670.774332 81.42428 
L 673.502521 80.391493 
L 674.184568 80.251927 
L 675.548663 80.000709 
L 676.23071 79.889056 
L 677.594805 79.330793 
L 678.276853 79.135401 
L 678.9589 79.023748 
L 680.322995 78.605051 
L 680.664018 78.605051 
L 681.346066 78.214267 
L 684.415279 77.376872 
L 693.622918 73.524856 
L 693.963942 73.301551 
L 694.304966 73.217811 
L 694.645989 72.994506 
L 694.987013 72.93868 
L 695.66906 72.519982 
L 697.715202 72.101285 
L 698.056226 71.850066 
L 701.807487 70.538148 
L 702.489534 70.175277 
L 703.853629 69.617014 
L 705.899771 69.002924 
L 707.604889 68.779619 
L 709.310008 68.444661 
L 710.333079 67.886398 
L 711.015126 67.663093 
L 711.697173 67.495614 
L 712.379221 67.356048 
L 713.061268 67.02109 
L 718.176623 65.011342 
L 719.540718 64.676385 
L 720.222765 64.425166 
L 720.563789 64.425166 
L 720.904813 64.257687 
L 722.609931 64.034382 
L 722.950955 63.783163 
L 724.31505 63.448206 
L 724.656073 63.169074 
L 724.997097 63.141161 
L 725.679144 62.834116 
L 726.020168 62.750377 
L 726.702215 62.359592 
L 729.430405 61.075587 
L 730.112452 60.796455 
L 731.135523 60.461498 
L 736.591902 59.010013 
L 737.955997 58.675055 
L 738.638044 58.507576 
L 739.320092 58.284271 
L 740.002139 58.144705 
L 740.684186 57.893487 
L 741.02521 57.753921 
L 741.707257 57.726008 
L 743.412376 57.139832 
L 743.7534 56.804874 
L 745.117494 56.469916 
L 745.799542 56.33035 
L 746.140565 56.023305 
L 746.822613 55.8 
L 747.163636 55.8 
L 747.163636 55.8 
" clip-path="url(#p38472673ac)" style="fill: none; stroke: #1f77b4; stroke-width: 1.5; stroke-linecap: square"/>
   </g>
   <g id="line2d_32">
    <path d="M 138.777387 307.8 
L 141.8466 307.716261 
L 144.57479 307.576695 
L 145.938885 307.576695 
L 146.620932 307.465042 
L 154.8055 306.878866 
L 157.53369 306.795126 
L 159.238808 306.7393 
L 163.672116 306.65556 
L 165.377235 306.599734 
L 168.446448 306.515995 
L 169.810542 306.488082 
L 173.220779 306.404342 
L 174.584874 306.292689 
L 175.948969 306.264776 
L 177.995111 306.181037 
L 179.359206 306.153124 
L 181.064324 306.097297 
L 182.428419 305.957732 
L 185.497632 305.873992 
L 186.520703 305.818166 
L 187.543774 305.734426 
L 189.589916 305.650687 
L 190.954011 305.566947 
L 197.092437 305.14825 
L 199.479603 305.092424 
L 200.843697 304.980771 
L 202.207792 304.897031 
L 205.618029 304.701639 
L 209.028266 304.645813 
L 210.392361 304.506247 
L 212.097479 304.422508 
L 215.507716 304.059637 
L 217.894882 303.780505 
L 218.917953 303.724679 
L 221.646142 303.361808 
L 223.692284 303.305981 
L 224.715355 303.222242 
L 225.738426 303.138502 
L 243.471658 301.770758 
L 245.858824 301.687018 
L 247.904966 301.463713 
L 250.633155 301.379973 
L 253.361345 301.240408 
L 255.74851 301.184581 
L 256.430558 301.100842 
L 261.204889 301.017102 
L 261.886937 300.933363 
L 265.979221 300.849623 
L 269.048434 300.682144 
L 271.4356 300.598405 
L 273.140718 300.403013 
L 275.18686 300.319273 
L 276.209931 300.179708 
L 280.984263 300.095968 
L 282.689381 299.928489 
L 284.735523 299.84475 
L 286.781665 299.621444 
L 288.827807 299.537705 
L 290.532926 299.481879 
L 293.261115 299.398139 
L 294.62521 299.286486 
L 297.012376 299.23066 
L 297.694423 299.119008 
L 299.399542 299.063181 
L 300.763636 298.951529 
L 302.468755 298.895702 
L 305.537968 298.811963 
L 314.404584 298.16996 
L 316.450726 298.086221 
L 318.155844 298.030394 
L 322.930176 297.946655 
L 323.612223 297.862915 
L 328.386555 297.779176 
L 331.796791 297.583784 
L 332.478839 297.555871 
L 333.160886 297.472131 
L 334.866005 297.388392 
L 336.571123 297.332565 
L 338.276241 297.248826 
L 339.98136 297.193 
L 343.050573 297.10926 
L 345.096715 297.025521 
L 349.871047 296.941781 
L 353.622307 296.718476 
L 354.986402 296.66265 
L 356.009473 296.57891 
L 360.783804 296.495171 
L 362.829947 296.411431 
L 373.742704 296.327692 
L 376.470894 296.188126 
L 384.314439 296.104386 
L 385.33751 296.04856 
L 396.591291 295.964821 
L 398.296409 295.908994 
L 414.324523 295.825255 
L 415.688617 295.797342 
L 419.439878 295.713602 
L 420.803972 295.601949 
L 422.509091 295.51821 
L 424.896257 295.406557 
L 427.96547 295.322818 
L 429.670588 295.266992 
L 432.057754 295.183252 
L 433.762872 295.127426 
L 435.809015 295.043686 
L 436.832086 294.959947 
L 443.652559 294.876207 
L 445.698701 294.792468 
L 449.449962 294.708728 
L 451.837128 294.597076 
L 454.224293 294.541249 
L 455.247364 294.485423 
L 463.090909 294.401684 
L 466.501146 294.206292 
L 469.229335 294.122552 
L 470.252406 293.982986 
L 473.662643 293.899247 
L 475.367762 293.84342 
L 478.777998 293.759681 
L 480.483117 293.564289 
L 483.893354 293.480549 
L 484.575401 293.39681 
L 487.985638 293.31307 
L 489.690756 293.257244 
L 494.806112 293.173505 
L 496.852254 293.089765 
L 504.013751 293.006026 
L 505.036822 292.950199 
L 509.47013 292.86646 
L 510.834225 292.838547 
L 516.290604 292.754807 
L 518.677769 292.643155 
L 522.770053 292.559415 
L 524.475172 292.503589 
L 530.613598 292.447763 
L 531.636669 292.364023 
L 532.65974 292.280284 
L 533.682811 292.196544 
L 538.798167 292.112805 
L 540.844309 292.029065 
L 550.733995 291.945326 
L 553.803209 291.777847 
L 558.57754 291.694107 
L 559.941635 291.666194 
L 564.033919 291.582455 
L 565.739037 291.526628 
L 573.582582 291.442889 
L 575.628724 291.359149 
L 582.449198 291.27541 
L 584.154316 291.219584 
L 586.541482 291.135844 
L 588.587624 291.052105 
L 592.338885 290.968365 
L 594.72605 290.856712 
L 597.795264 290.800886 
L 598.818335 290.74506 
L 605.979832 290.66132 
L 608.025974 290.577581 
L 610.41314 290.493841 
L 612.118258 290.438015 
L 622.007945 290.354276 
L 624.054087 290.270536 
L 629.85149 290.186797 
L 631.556608 290.13097 
L 635.989916 290.047231 
L 638.036058 289.963491 
L 640.764248 289.879752 
L 642.81039 289.796012 
L 656.451337 289.712273 
L 658.838503 289.60062 
L 667.023071 289.516881 
L 668.387166 289.488968 
L 676.571734 289.405228 
L 678.276853 289.349402 
L 689.18961 289.265662 
L 690.553705 289.237749 
L 700.784416 289.15401 
L 702.489534 289.098183 
L 712.720244 289.014444 
L 714.766387 288.930704 
L 727.725286 288.846965 
L 729.430405 288.791139 
L 735.568831 288.707399 
L 736.932926 288.679486 
L 739.661115 288.62366 
L 740.684186 288.567833 
L 747.163636 288.53992 
L 747.163636 288.53992 
" clip-path="url(#p38472673ac)" style="fill: none; stroke: #ff7f0e; stroke-width: 1.5; stroke-linecap: square"/>
   </g>
   <g id="patch_3">
    <path d="M 108 320.4 
L 108 43.2 
" style="fill: none; stroke: #a9a9a9; stroke-width: 0.8; stroke-linejoin: miter; stroke-linecap: square"/>
   </g>
   <g id="patch_4">
    <path d="M 777.6 320.4 
L 777.6 43.2 
" style="fill: none"/>
   </g>
   <g id="patch_5">
    <path d="M 108 320.4 
L 777.6 320.4 
" style="fill: none; stroke: #a9a9a9; stroke-width: 0.8; stroke-linejoin: miter; stroke-linecap: square"/>
   </g>
   <g id="patch_6">
    <path d="M 108 43.2 
L 777.6 43.2 
" style="fill: none"/>
   </g>
   <g id="text_16">
    <!-- get_subscribe history -->
    <g style="fill: #a9a9a9" transform="translate(378.6075 37.2) scale(0.12 -0.12)">
     <defs>
      <path id="DejaVuSans-4a" d="M 2906 1791 
Q 2906 2416 2648 2759 
Q 2391 3103 1925 3103 
Q 1463 3103 1205 2759 
Q 947 2416 947 1791 
Q 947 1169 1205 825 
Q 1463 481 1925 481 
Q 2391 481 2648 825 
Q 2906 1169 2906 1791 
z
M 3481 434 
Q 3481 -459 3084 -895 
Q 2688 -1331 1869 -1331 
Q 1566 -1331 1297 -1286 
Q 1028 -1241 775 -1147 
L 775 -588 
Q 1028 -725 1275 -790 
Q 1522 -856 1778 -856 
Q 2344 -856 2625 -561 
Q 2906 -266 2906 331 
L 2906 616 
Q 2728 306 2450 153 
Q 2172 0 1784 0 
Q 1141 0 747 490 
Q 353 981 353 1791 
Q 353 2603 747 3093 
Q 1141 3584 1784 3584 
Q 2172 3584 2450 3431 
Q 2728 3278 2906 2969 
L 2906 3500 
L 3481 3500 
L 3481 434 
z
" transform="scale(0.015625)"/>
      <path id="DejaVuSans-48" d="M 3597 1894 
L 3597 1613 
L 953 1613 
Q 991 1019 1311 708 
Q 1631 397 2203 397 
Q 2534 397 2845 478 
Q 3156 559 3463 722 
L 3463 178 
Q 3153 47 2828 -22 
Q 2503 -91 2169 -91 
Q 1331 -91 842 396 
Q 353 884 353 1716 
Q 353 2575 817 3079 
Q 1281 3584 2069 3584 
Q 2775 3584 3186 3129 
Q 3597 2675 3597 1894 
z
M 3022 2063 
Q 3016 2534 2758 2815 
Q 2500 3097 2075 3097 
Q 1594 3097 1305 2825 
Q 1016 2553 972 2059 
L 3022 2063 
z
" transform="scale(0.015625)"/>
      <path id="DejaVuSans-57" d="M 1172 4494 
L 1172 3500 
L 2356 3500 
L 2356 3053 
L 1172 3053 
L 1172 1153 
Q 1172 725 1289 603 
Q 1406 481 1766 481 
L 2356 481 
L 2356 0 
L 1766 0 
Q 1100 0 847 248 
Q 594 497 594 1153 
L 594 3053 
L 172 3053 
L 172 3500 
L 594 3500 
L 594 4494 
L 1172 4494 
z
" transform="scale(0.015625)"/>
      <path id="DejaVuSans-42" d="M 3263 -1063 
L 3263 -1509 
L -63 -1509 
L -63 -1063 
L 3263 -1063 
z
" transform="scale(0.015625)"/>
      <path id="DejaVuSans-56" d="M 2834 3397 
L 2834 2853 
Q 2591 2978 2328 3040 
Q 2066 3103 1784 3103 
Q 1356 3103 1142 2972 
Q 928 2841 928 2578 
Q 928 2378 1081 2264 
Q 1234 2150 1697 2047 
L 1894 2003 
Q 2506 1872 2764 1633 
Q 3022 1394 3022 966 
Q 3022 478 2636 193 
Q 2250 -91 1575 -91 
Q 1294 -91 989 -36 
Q 684 19 347 128 
L 347 722 
Q 666 556 975 473 
Q 1284 391 1588 391 
Q 1994 391 2212 530 
Q 2431 669 2431 922 
Q 2431 1156 2273 1281 
Q 2116 1406 1581 1522 
L 1381 1569 
Q 847 1681 609 1914 
Q 372 2147 372 2553 
Q 372 3047 722 3315 
Q 1072 3584 1716 3584 
Q 2034 3584 2315 3537 
Q 2597 3491 2834 3397 
z
" transform="scale(0.015625)"/>
      <path id="DejaVuSans-58" d="M 544 1381 
L 544 3500 
L 1119 3500 
L 1119 1403 
Q 1119 906 1312 657 
Q 1506 409 1894 409 
Q 2359 409 2629 706 
Q 2900 1003 2900 1516 
L 2900 3500 
L 3475 3500 
L 3475 0 
L 2900 0 
L 2900 538 
Q 2691 219 2414 64 
Q 2138 -91 1772 -91 
Q 1169 -91 856 284 
Q 544 659 544 1381 
z
M 1991 3584 
L 1991 3584 
z
" transform="scale(0.015625)"/>
      <path id="DejaVuSans-45" d="M 3116 1747 
Q 3116 2381 2855 2742 
Q 2594 3103 2138 3103 
Q 1681 3103 1420 2742 
Q 1159 2381 1159 1747 
Q 1159 1113 1420 752 
Q 1681 391 2138 391 
Q 2594 391 2855 752 
Q 3116 1113 3116 1747 
z
M 1159 2969 
Q 1341 3281 1617 3432 
Q 1894 3584 2278 3584 
Q 2916 3584 3314 3078 
Q 3713 2572 3713 1747 
Q 3713 922 3314 415 
Q 2916 -91 2278 -91 
Q 1894 -91 1617 61 
Q 1341 213 1159 525 
L 1159 0 
L 581 0 
L 581 4863 
L 1159 4863 
L 1159 2969 
z
" transform="scale(0.015625)"/>
      <path id="DejaVuSans-46" d="M 3122 3366 
L 3122 2828 
Q 2878 2963 2633 3030 
Q 2388 3097 2138 3097 
Q 1578 3097 1268 2742 
Q 959 2388 959 1747 
Q 959 1106 1268 751 
Q 1578 397 2138 397 
Q 2388 397 2633 464 
Q 2878 531 3122 666 
L 3122 134 
Q 2881 22 2623 -34 
Q 2366 -91 2075 -91 
Q 1284 -91 818 406 
Q 353 903 353 1747 
Q 353 2603 823 3093 
Q 1294 3584 2113 3584 
Q 2378 3584 2631 3529 
Q 2884 3475 3122 3366 
z
" transform="scale(0.015625)"/>
      <path id="DejaVuSans-55" d="M 2631 2963 
Q 2534 3019 2420 3045 
Q 2306 3072 2169 3072 
Q 1681 3072 1420 2755 
Q 1159 2438 1159 1844 
L 1159 0 
L 581 0 
L 581 3500 
L 1159 3500 
L 1159 2956 
Q 1341 3275 1631 3429 
Q 1922 3584 2338 3584 
Q 2397 3584 2469 3576 
Q 2541 3569 2628 3553 
L 2631 2963 
z
" transform="scale(0.015625)"/>
      <path id="DejaVuSans-4c" d="M 603 3500 
L 1178 3500 
L 1178 0 
L 603 0 
L 603 3500 
z
M 603 4863 
L 1178 4863 
L 1178 4134 
L 603 4134 
L 603 4863 
z
" transform="scale(0.015625)"/>
      <path id="DejaVuSans-3" transform="scale(0.015625)"/>
      <path id="DejaVuSans-4b" d="M 3513 2113 
L 3513 0 
L 2938 0 
L 2938 2094 
Q 2938 2591 2744 2837 
Q 2550 3084 2163 3084 
Q 1697 3084 1428 2787 
Q 1159 2491 1159 1978 
L 1159 0 
L 581 0 
L 581 4863 
L 1159 4863 
L 1159 2956 
Q 1366 3272 1645 3428 
Q 1925 3584 2291 3584 
Q 2894 3584 3203 3211 
Q 3513 2838 3513 2113 
z
" transform="scale(0.015625)"/>
      <path id="DejaVuSans-52" d="M 1959 3097 
Q 1497 3097 1228 2736 
Q 959 2375 959 1747 
Q 959 1119 1226 758 
Q 1494 397 1959 397 
Q 2419 397 2687 759 
Q 2956 1122 2956 1747 
Q 2956 2369 2687 2733 
Q 2419 3097 1959 3097 
z
M 1959 3584 
Q 2709 3584 3137 3096 
Q 3566 2609 3566 1747 
Q 3566 888 3137 398 
Q 2709 -91 1959 -91 
Q 1206 -91 779 398 
Q 353 888 353 1747 
Q 353 2609 779 3096 
Q 1206 3584 1959 3584 
z
" transform="scale(0.015625)"/>
      <path id="DejaVuSans-5c" d="M 2059 -325 
Q 1816 -950 1584 -1140 
Q 1353 -1331 966 -1331 
L 506 -1331 
L 506 -850 
L 844 -850 
Q 1081 -850 1212 -737 
Q 1344 -625 1503 -206 
L 1606 56 
L 191 3500 
L 800 3500 
L 1894 763 
L 2988 3500 
L 3597 3500 
L 2059 -325 
z
" transform="scale(0.015625)"/>
     </defs>
     <use xlink:href="#DejaVuSans-4a"/>
     <use xlink:href="#DejaVuSans-48" transform="translate(63.484375 0)"/>
     <use xlink:href="#DejaVuSans-57" transform="translate(125.015625 0)"/>
     <use xlink:href="#DejaVuSans-42" transform="translate(164.21875 0)"/>
     <use xlink:href="#DejaVuSans-56" transform="translate(214.21875 0)"/>
     <use xlink:href="#DejaVuSans-58" transform="translate(266.3125 0)"/>
     <use xlink:href="#DejaVuSans-45" transform="translate(329.6875 0)"/>
     <use xlink:href="#DejaVuSans-56" transform="translate(393.171875 0)"/>
     <use xlink:href="#DejaVuSans-46" transform="translate(445.265625 0)"/>
     <use xlink:href="#DejaVuSans-55" transform="translate(500.25 0)"/>
     <use xlink:href="#DejaVuSans-4c" transform="translate(541.359375 0)"/>
     <use xlink:href="#DejaVuSans-45" transform="translate(569.140625 0)"/>
     <use xlink:href="#DejaVuSans-48" transform="translate(632.625 0)"/>
     <use xlink:href="#DejaVuSans-3" transform="translate(694.15625 0)"/>
     <use xlink:href="#DejaVuSans-4b" transform="translate(725.9375 0)"/>
     <use xlink:href="#DejaVuSans-4c" transform="translate(789.3125 0)"/>
     <use xlink:href="#DejaVuSans-56" transform="translate(817.09375 0)"/>
     <use xlink:href="#DejaVuSans-57" transform="translate(869.1875 0)"/>
     <use xlink:href="#DejaVuSans-52" transform="translate(908.390625 0)"/>
     <use xlink:href="#DejaVuSans-55" transform="translate(969.578125 0)"/>
     <use xlink:href="#DejaVuSans-5c" transform="translate(1010.6875 0)"/>
    </g>
   </g>
   <g id="legend_1">
    <g id="line2d_33">
     <path d="M 815.08 328.498438 
L 825.08 328.498438 
L 835.08 328.498438 
" style="fill: none; stroke: #1f77b4; stroke-width: 1.5; stroke-linecap: square"/>
    </g>
    <g id="text_17">
     <!-- star -->
     <g style="fill: #a9a9a9" transform="translate(843.08 331.998438) scale(0.1 -0.1)">
      <defs>
       <path id="DejaVuSans-44" d="M 2194 1759 
Q 1497 1759 1228 1600 
Q 959 1441 959 1056 
Q 959 750 1161 570 
Q 1363 391 1709 391 
Q 2188 391 2477 730 
Q 2766 1069 2766 1631 
L 2766 1759 
L 2194 1759 
z
M 3341 1997 
L 3341 0 
L 2766 0 
L 2766 531 
Q 2569 213 2275 61 
Q 1981 -91 1556 -91 
Q 1019 -91 701 211 
Q 384 513 384 1019 
Q 384 1609 779 1909 
Q 1175 2209 1959 2209 
L 2766 2209 
L 2766 2266 
Q 2766 2663 2505 2880 
Q 2244 3097 1772 3097 
Q 1472 3097 1187 3025 
Q 903 2953 641 2809 
L 641 3341 
Q 956 3463 1253 3523 
Q 1550 3584 1831 3584 
Q 2591 3584 2966 3190 
Q 3341 2797 3341 1997 
z
" transform="scale(0.015625)"/>
      </defs>
      <use xlink:href="#DejaVuSans-56"/>
      <use xlink:href="#DejaVuSans-57" transform="translate(52.09375 0)"/>
      <use xlink:href="#DejaVuSans-44" transform="translate(91.296875 0)"/>
      <use xlink:href="#DejaVuSans-55" transform="translate(152.578125 0)"/>
     </g>
    </g>
    <g id="line2d_34">
     <path d="M 815.08 343.499219 
L 825.08 343.499219 
L 835.08 343.499219 
" style="fill: none; stroke: #ff7f0e; stroke-width: 1.5; stroke-linecap: square"/>
    </g>
    <g id="text_18">
     <!-- fork -->
     <g style="fill: #a9a9a9" transform="translate(843.08 346.999219) scale(0.1 -0.1)">
      <defs>
       <path id="DejaVuSans-49" d="M 2375 4863 
L 2375 4384 
L 1825 4384 
Q 1516 4384 1395 4259 
Q 1275 4134 1275 3809 
L 1275 3500 
L 2222 3500 
L 2222 3053 
L 1275 3053 
L 1275 0 
L 697 0 
L 697 3053 
L 147 3053 
L 147 3500 
L 697 3500 
L 697 3744 
Q 697 4328 969 4595 
Q 1241 4863 1831 4863 
L 2375 4863 
z
" transform="scale(0.015625)"/>
       <path id="DejaVuSans-4e" d="M 581 4863 
L 1159 4863 
L 1159 1991 
L 2875 3500 
L 3609 3500 
L 1753 1863 
L 3688 0 
L 2938 0 
L 1159 1709 
L 1159 0 
L 581 0 
L 581 4863 
z
" transform="scale(0.015625)"/>
      </defs>
      <use xlink:href="#DejaVuSans-49"/>
      <use xlink:href="#DejaVuSans-52" transform="translate(35.203125 0)"/>
      <use xlink:href="#DejaVuSans-55" transform="translate(96.390625 0)"/>
      <use xlink:href="#DejaVuSans-4e" transform="translate(137.5 0)"/>
     </g>
    </g>
   </g>
  </g>
 </g>
 <defs>
  <clipPath id="p38472673ac">
   <rect x="108" y="43.2" width="669.6" height="277.2"/>
  </clipPath>
 </defs>
</svg>
