<?xml version="1.0" encoding="utf-8" standalone="no"?>
<!DOCTYPE svg PUBLIC "-//W3C//DTD SVG 1.1//EN"
  "http://www.w3.org/Graphics/SVG/1.1/DTD/svg11.dtd">
<svg xmlns:xlink="http://www.w3.org/1999/xlink" width="864pt" height="360pt" viewBox="0 0 864 360" xmlns="http://www.w3.org/2000/svg" version="1.1">
 <metadata>
  <rdf:RDF xmlns:dc="http://purl.org/dc/elements/1.1/" xmlns:cc="http://creativecommons.org/ns#" xmlns:rdf="http://www.w3.org/1999/02/22-rdf-syntax-ns#">
   <cc:Work>
    <dc:type rdf:resource="http://purl.org/dc/dcmitype/StillImage"/>
    <dc:date>2025-04-17T20:07:23.798840</dc:date>
    <dc:format>image/svg+xml</dc:format>
    <dc:creator>
     <cc:Agent>
      <dc:title>Matplotlib v3.10.1, https://matplotlib.org/</dc:title>
     </cc:Agent>
    </dc:creator>
   </cc:Work>
  </rdf:RDF>
 </metadata>
 <defs>
  <style type="text/css">*{stroke-linejoin: round; stroke-linecap: butt}</style>
 </defs>
 <g id="figure_1">
  <g id="patch_1">
   <path d="M 0 360 
L 864 360 
L 864 0 
L 0 0 
L 0 360 
z
" style="fill: none; opacity: 0"/>
  </g>
  <g id="axes_1">
   <g id="patch_2">
    <path d="M 108 320.4 
L 777.6 320.4 
L 777.6 43.2 
L 108 43.2 
L 108 320.4 
z
" style="fill: none; opacity: 0"/>
   </g>
   <g id="matplotlib.axis_1">
    <g id="xtick_1">
     <g id="line2d_1">
      <path d="M 128.16437 320.4 
L 128.16437 43.2 
" clip-path="url(#p732b9c22df)" style="fill: none; stroke-dasharray: 5.12,1.28,0.8,1.28; stroke-dashoffset: 0; stroke: #b0b0b0; stroke-width: 0.8"/>
     </g>
     <g id="line2d_2">
      <defs>
       <path id="m921c7d778c" d="M 0 0 
L 0 3.5 
" style="stroke: #a9a9a9; stroke-width: 0.8"/>
      </defs>
      <g>
       <use xlink:href="#m921c7d778c" x="128.16437" y="320.4" style="fill: #a9a9a9; stroke: #a9a9a9; stroke-width: 0.8"/>
      </g>
     </g>
     <g id="text_1">
      <!-- 2021-07 -->
      <g style="fill: #a9a9a9" transform="translate(107.272964 334.998438) scale(0.1 -0.1)">
       <defs>
        <path id="DejaVuSans-32" d="M 1228 531 
L 3431 531 
L 3431 0 
L 469 0 
L 469 531 
Q 828 903 1448 1529 
Q 2069 2156 2228 2338 
Q 2531 2678 2651 2914 
Q 2772 3150 2772 3378 
Q 2772 3750 2511 3984 
Q 2250 4219 1831 4219 
Q 1534 4219 1204 4116 
Q 875 4013 500 3803 
L 500 4441 
Q 881 4594 1212 4672 
Q 1544 4750 1819 4750 
Q 2544 4750 2975 4387 
Q 3406 4025 3406 3419 
Q 3406 3131 3298 2873 
Q 3191 2616 2906 2266 
Q 2828 2175 2409 1742 
Q 1991 1309 1228 531 
z
" transform="scale(0.015625)"/>
        <path id="DejaVuSans-30" d="M 2034 4250 
Q 1547 4250 1301 3770 
Q 1056 3291 1056 2328 
Q 1056 1369 1301 889 
Q 1547 409 2034 409 
Q 2525 409 2770 889 
Q 3016 1369 3016 2328 
Q 3016 3291 2770 3770 
Q 2525 4250 2034 4250 
z
M 2034 4750 
Q 2819 4750 3233 4129 
Q 3647 3509 3647 2328 
Q 3647 1150 3233 529 
Q 2819 -91 2034 -91 
Q 1250 -91 836 529 
Q 422 1150 422 2328 
Q 422 3509 836 4129 
Q 1250 4750 2034 4750 
z
" transform="scale(0.015625)"/>
        <path id="DejaVuSans-31" d="M 794 531 
L 1825 531 
L 1825 4091 
L 703 3866 
L 703 4441 
L 1819 4666 
L 2450 4666 
L 2450 531 
L 3481 531 
L 3481 0 
L 794 0 
L 794 531 
z
" transform="scale(0.015625)"/>
        <path id="DejaVuSans-2d" d="M 313 2009 
L 1997 2009 
L 1997 1497 
L 313 1497 
L 313 2009 
z
" transform="scale(0.015625)"/>
        <path id="DejaVuSans-37" d="M 525 4666 
L 3525 4666 
L 3525 4397 
L 1831 0 
L 1172 0 
L 2766 4134 
L 525 4134 
L 525 4666 
z
" transform="scale(0.015625)"/>
       </defs>
       <use xlink:href="#DejaVuSans-32"/>
       <use xlink:href="#DejaVuSans-30" transform="translate(63.623047 0)"/>
       <use xlink:href="#DejaVuSans-32" transform="translate(127.246094 0)"/>
       <use xlink:href="#DejaVuSans-31" transform="translate(190.869141 0)"/>
       <use xlink:href="#DejaVuSans-2d" transform="translate(254.492188 0)"/>
       <use xlink:href="#DejaVuSans-30" transform="translate(290.576172 0)"/>
       <use xlink:href="#DejaVuSans-37" transform="translate(354.199219 0)"/>
      </g>
     </g>
    </g>
    <g id="xtick_2">
     <g id="line2d_3">
      <path d="M 210.340319 320.4 
L 210.340319 43.2 
" clip-path="url(#p732b9c22df)" style="fill: none; stroke-dasharray: 5.12,1.28,0.8,1.28; stroke-dashoffset: 0; stroke: #b0b0b0; stroke-width: 0.8"/>
     </g>
     <g id="line2d_4">
      <g>
       <use xlink:href="#m921c7d778c" x="210.340319" y="320.4" style="fill: #a9a9a9; stroke: #a9a9a9; stroke-width: 0.8"/>
      </g>
     </g>
     <g id="text_2">
      <!-- 2022-01 -->
      <g style="fill: #a9a9a9" transform="translate(189.448913 334.998438) scale(0.1 -0.1)">
       <use xlink:href="#DejaVuSans-32"/>
       <use xlink:href="#DejaVuSans-30" transform="translate(63.623047 0)"/>
       <use xlink:href="#DejaVuSans-32" transform="translate(127.246094 0)"/>
       <use xlink:href="#DejaVuSans-32" transform="translate(190.869141 0)"/>
       <use xlink:href="#DejaVuSans-2d" transform="translate(254.492188 0)"/>
       <use xlink:href="#DejaVuSans-30" transform="translate(290.576172 0)"/>
       <use xlink:href="#DejaVuSans-31" transform="translate(354.199219 0)"/>
      </g>
     </g>
    </g>
    <g id="xtick_3">
     <g id="line2d_5">
      <path d="M 291.176442 320.4 
L 291.176442 43.2 
" clip-path="url(#p732b9c22df)" style="fill: none; stroke-dasharray: 5.12,1.28,0.8,1.28; stroke-dashoffset: 0; stroke: #b0b0b0; stroke-width: 0.8"/>
     </g>
     <g id="line2d_6">
      <g>
       <use xlink:href="#m921c7d778c" x="291.176442" y="320.4" style="fill: #a9a9a9; stroke: #a9a9a9; stroke-width: 0.8"/>
      </g>
     </g>
     <g id="text_3">
      <!-- 2022-07 -->
      <g style="fill: #a9a9a9" transform="translate(270.285036 334.998438) scale(0.1 -0.1)">
       <use xlink:href="#DejaVuSans-32"/>
       <use xlink:href="#DejaVuSans-30" transform="translate(63.623047 0)"/>
       <use xlink:href="#DejaVuSans-32" transform="translate(127.246094 0)"/>
       <use xlink:href="#DejaVuSans-32" transform="translate(190.869141 0)"/>
       <use xlink:href="#DejaVuSans-2d" transform="translate(254.492188 0)"/>
       <use xlink:href="#DejaVuSans-30" transform="translate(290.576172 0)"/>
       <use xlink:href="#DejaVuSans-37" transform="translate(354.199219 0)"/>
      </g>
     </g>
    </g>
    <g id="xtick_4">
     <g id="line2d_7">
      <path d="M 373.352391 320.4 
L 373.352391 43.2 
" clip-path="url(#p732b9c22df)" style="fill: none; stroke-dasharray: 5.12,1.28,0.8,1.28; stroke-dashoffset: 0; stroke: #b0b0b0; stroke-width: 0.8"/>
     </g>
     <g id="line2d_8">
      <g>
       <use xlink:href="#m921c7d778c" x="373.352391" y="320.4" style="fill: #a9a9a9; stroke: #a9a9a9; stroke-width: 0.8"/>
      </g>
     </g>
     <g id="text_4">
      <!-- 2023-01 -->
      <g style="fill: #a9a9a9" transform="translate(352.460985 334.998438) scale(0.1 -0.1)">
       <defs>
        <path id="DejaVuSans-33" d="M 2597 2516 
Q 3050 2419 3304 2112 
Q 3559 1806 3559 1356 
Q 3559 666 3084 287 
Q 2609 -91 1734 -91 
Q 1441 -91 1130 -33 
Q 819 25 488 141 
L 488 750 
Q 750 597 1062 519 
Q 1375 441 1716 441 
Q 2309 441 2620 675 
Q 2931 909 2931 1356 
Q 2931 1769 2642 2001 
Q 2353 2234 1838 2234 
L 1294 2234 
L 1294 2753 
L 1863 2753 
Q 2328 2753 2575 2939 
Q 2822 3125 2822 3475 
Q 2822 3834 2567 4026 
Q 2313 4219 1838 4219 
Q 1578 4219 1281 4162 
Q 984 4106 628 3988 
L 628 4550 
Q 988 4650 1302 4700 
Q 1616 4750 1894 4750 
Q 2613 4750 3031 4423 
Q 3450 4097 3450 3541 
Q 3450 3153 3228 2886 
Q 3006 2619 2597 2516 
z
" transform="scale(0.015625)"/>
       </defs>
       <use xlink:href="#DejaVuSans-32"/>
       <use xlink:href="#DejaVuSans-30" transform="translate(63.623047 0)"/>
       <use xlink:href="#DejaVuSans-32" transform="translate(127.246094 0)"/>
       <use xlink:href="#DejaVuSans-33" transform="translate(190.869141 0)"/>
       <use xlink:href="#DejaVuSans-2d" transform="translate(254.492188 0)"/>
       <use xlink:href="#DejaVuSans-30" transform="translate(290.576172 0)"/>
       <use xlink:href="#DejaVuSans-31" transform="translate(354.199219 0)"/>
      </g>
     </g>
    </g>
    <g id="xtick_5">
     <g id="line2d_9">
      <path d="M 454.188515 320.4 
L 454.188515 43.2 
" clip-path="url(#p732b9c22df)" style="fill: none; stroke-dasharray: 5.12,1.28,0.8,1.28; stroke-dashoffset: 0; stroke: #b0b0b0; stroke-width: 0.8"/>
     </g>
     <g id="line2d_10">
      <g>
       <use xlink:href="#m921c7d778c" x="454.188515" y="320.4" style="fill: #a9a9a9; stroke: #a9a9a9; stroke-width: 0.8"/>
      </g>
     </g>
     <g id="text_5">
      <!-- 2023-07 -->
      <g style="fill: #a9a9a9" transform="translate(433.297108 334.998438) scale(0.1 -0.1)">
       <use xlink:href="#DejaVuSans-32"/>
       <use xlink:href="#DejaVuSans-30" transform="translate(63.623047 0)"/>
       <use xlink:href="#DejaVuSans-32" transform="translate(127.246094 0)"/>
       <use xlink:href="#DejaVuSans-33" transform="translate(190.869141 0)"/>
       <use xlink:href="#DejaVuSans-2d" transform="translate(254.492188 0)"/>
       <use xlink:href="#DejaVuSans-30" transform="translate(290.576172 0)"/>
       <use xlink:href="#DejaVuSans-37" transform="translate(354.199219 0)"/>
      </g>
     </g>
    </g>
    <g id="xtick_6">
     <g id="line2d_11">
      <path d="M 536.364463 320.4 
L 536.364463 43.2 
" clip-path="url(#p732b9c22df)" style="fill: none; stroke-dasharray: 5.12,1.28,0.8,1.28; stroke-dashoffset: 0; stroke: #b0b0b0; stroke-width: 0.8"/>
     </g>
     <g id="line2d_12">
      <g>
       <use xlink:href="#m921c7d778c" x="536.364463" y="320.4" style="fill: #a9a9a9; stroke: #a9a9a9; stroke-width: 0.8"/>
      </g>
     </g>
     <g id="text_6">
      <!-- 2024-01 -->
      <g style="fill: #a9a9a9" transform="translate(515.473057 334.998438) scale(0.1 -0.1)">
       <defs>
        <path id="DejaVuSans-34" d="M 2419 4116 
L 825 1625 
L 2419 1625 
L 2419 4116 
z
M 2253 4666 
L 3047 4666 
L 3047 1625 
L 3713 1625 
L 3713 1100 
L 3047 1100 
L 3047 0 
L 2419 0 
L 2419 1100 
L 313 1100 
L 313 1709 
L 2253 4666 
z
" transform="scale(0.015625)"/>
       </defs>
       <use xlink:href="#DejaVuSans-32"/>
       <use xlink:href="#DejaVuSans-30" transform="translate(63.623047 0)"/>
       <use xlink:href="#DejaVuSans-32" transform="translate(127.246094 0)"/>
       <use xlink:href="#DejaVuSans-34" transform="translate(190.869141 0)"/>
       <use xlink:href="#DejaVuSans-2d" transform="translate(254.492188 0)"/>
       <use xlink:href="#DejaVuSans-30" transform="translate(290.576172 0)"/>
       <use xlink:href="#DejaVuSans-31" transform="translate(354.199219 0)"/>
      </g>
     </g>
    </g>
    <g id="xtick_7">
     <g id="line2d_13">
      <path d="M 617.647195 320.4 
L 617.647195 43.2 
" clip-path="url(#p732b9c22df)" style="fill: none; stroke-dasharray: 5.12,1.28,0.8,1.28; stroke-dashoffset: 0; stroke: #b0b0b0; stroke-width: 0.8"/>
     </g>
     <g id="line2d_14">
      <g>
       <use xlink:href="#m921c7d778c" x="617.647195" y="320.4" style="fill: #a9a9a9; stroke: #a9a9a9; stroke-width: 0.8"/>
      </g>
     </g>
     <g id="text_7">
      <!-- 2024-07 -->
      <g style="fill: #a9a9a9" transform="translate(596.755789 334.998438) scale(0.1 -0.1)">
       <use xlink:href="#DejaVuSans-32"/>
       <use xlink:href="#DejaVuSans-30" transform="translate(63.623047 0)"/>
       <use xlink:href="#DejaVuSans-32" transform="translate(127.246094 0)"/>
       <use xlink:href="#DejaVuSans-34" transform="translate(190.869141 0)"/>
       <use xlink:href="#DejaVuSans-2d" transform="translate(254.492188 0)"/>
       <use xlink:href="#DejaVuSans-30" transform="translate(290.576172 0)"/>
       <use xlink:href="#DejaVuSans-37" transform="translate(354.199219 0)"/>
      </g>
     </g>
    </g>
    <g id="xtick_8">
     <g id="line2d_15">
      <path d="M 699.823144 320.4 
L 699.823144 43.2 
" clip-path="url(#p732b9c22df)" style="fill: none; stroke-dasharray: 5.12,1.28,0.8,1.28; stroke-dashoffset: 0; stroke: #b0b0b0; stroke-width: 0.8"/>
     </g>
     <g id="line2d_16">
      <g>
       <use xlink:href="#m921c7d778c" x="699.823144" y="320.4" style="fill: #a9a9a9; stroke: #a9a9a9; stroke-width: 0.8"/>
      </g>
     </g>
     <g id="text_8">
      <!-- 2025-01 -->
      <g style="fill: #a9a9a9" transform="translate(678.931738 334.998438) scale(0.1 -0.1)">
       <defs>
        <path id="DejaVuSans-35" d="M 691 4666 
L 3169 4666 
L 3169 4134 
L 1269 4134 
L 1269 2991 
Q 1406 3038 1543 3061 
Q 1681 3084 1819 3084 
Q 2600 3084 3056 2656 
Q 3513 2228 3513 1497 
Q 3513 744 3044 326 
Q 2575 -91 1722 -91 
Q 1428 -91 1123 -41 
Q 819 9 494 109 
L 494 744 
Q 775 591 1075 516 
Q 1375 441 1709 441 
Q 2250 441 2565 725 
Q 2881 1009 2881 1497 
Q 2881 1984 2565 2268 
Q 2250 2553 1709 2553 
Q 1456 2553 1204 2497 
Q 953 2441 691 2322 
L 691 4666 
z
" transform="scale(0.015625)"/>
       </defs>
       <use xlink:href="#DejaVuSans-32"/>
       <use xlink:href="#DejaVuSans-30" transform="translate(63.623047 0)"/>
       <use xlink:href="#DejaVuSans-32" transform="translate(127.246094 0)"/>
       <use xlink:href="#DejaVuSans-35" transform="translate(190.869141 0)"/>
       <use xlink:href="#DejaVuSans-2d" transform="translate(254.492188 0)"/>
       <use xlink:href="#DejaVuSans-30" transform="translate(290.576172 0)"/>
       <use xlink:href="#DejaVuSans-31" transform="translate(354.199219 0)"/>
      </g>
     </g>
    </g>
   </g>
   <g id="matplotlib.axis_2">
    <g id="ytick_1">
     <g id="line2d_17">
      <path d="M 108 307.833444 
L 777.6 307.833444 
" clip-path="url(#p732b9c22df)" style="fill: none; stroke-dasharray: 5.12,1.28,0.8,1.28; stroke-dashoffset: 0; stroke: #b0b0b0; stroke-width: 0.8"/>
     </g>
     <g id="line2d_18">
      <defs>
       <path id="m62e40663c7" d="M 0 0 
L -3.5 0 
" style="stroke: #a9a9a9; stroke-width: 0.8"/>
      </defs>
      <g>
       <use xlink:href="#m62e40663c7" x="108" y="307.833444" style="fill: #a9a9a9; stroke: #a9a9a9; stroke-width: 0.8"/>
      </g>
     </g>
     <g id="text_9">
      <!-- 0 -->
      <g style="fill: #a9a9a9" transform="translate(94.6375 311.632663) scale(0.1 -0.1)">
       <use xlink:href="#DejaVuSans-30"/>
      </g>
     </g>
    </g>
    <g id="ytick_2">
     <g id="line2d_19">
      <path d="M 108 274.389516 
L 777.6 274.389516 
" clip-path="url(#p732b9c22df)" style="fill: none; stroke-dasharray: 5.12,1.28,0.8,1.28; stroke-dashoffset: 0; stroke: #b0b0b0; stroke-width: 0.8"/>
     </g>
     <g id="line2d_20">
      <g>
       <use xlink:href="#m62e40663c7" x="108" y="274.389516" style="fill: #a9a9a9; stroke: #a9a9a9; stroke-width: 0.8"/>
      </g>
     </g>
     <g id="text_10">
      <!-- 1000 -->
      <g style="fill: #a9a9a9" transform="translate(75.55 278.188734) scale(0.1 -0.1)">
       <use xlink:href="#DejaVuSans-31"/>
       <use xlink:href="#DejaVuSans-30" transform="translate(63.623047 0)"/>
       <use xlink:href="#DejaVuSans-30" transform="translate(127.246094 0)"/>
       <use xlink:href="#DejaVuSans-30" transform="translate(190.869141 0)"/>
      </g>
     </g>
    </g>
    <g id="ytick_3">
     <g id="line2d_21">
      <path d="M 108 240.945587 
L 777.6 240.945587 
" clip-path="url(#p732b9c22df)" style="fill: none; stroke-dasharray: 5.12,1.28,0.8,1.28; stroke-dashoffset: 0; stroke: #b0b0b0; stroke-width: 0.8"/>
     </g>
     <g id="line2d_22">
      <g>
       <use xlink:href="#m62e40663c7" x="108" y="240.945587" style="fill: #a9a9a9; stroke: #a9a9a9; stroke-width: 0.8"/>
      </g>
     </g>
     <g id="text_11">
      <!-- 2000 -->
      <g style="fill: #a9a9a9" transform="translate(75.55 244.744806) scale(0.1 -0.1)">
       <use xlink:href="#DejaVuSans-32"/>
       <use xlink:href="#DejaVuSans-30" transform="translate(63.623047 0)"/>
       <use xlink:href="#DejaVuSans-30" transform="translate(127.246094 0)"/>
       <use xlink:href="#DejaVuSans-30" transform="translate(190.869141 0)"/>
      </g>
     </g>
    </g>
    <g id="ytick_4">
     <g id="line2d_23">
      <path d="M 108 207.501659 
L 777.6 207.501659 
" clip-path="url(#p732b9c22df)" style="fill: none; stroke-dasharray: 5.12,1.28,0.8,1.28; stroke-dashoffset: 0; stroke: #b0b0b0; stroke-width: 0.8"/>
     </g>
     <g id="line2d_24">
      <g>
       <use xlink:href="#m62e40663c7" x="108" y="207.501659" style="fill: #a9a9a9; stroke: #a9a9a9; stroke-width: 0.8"/>
      </g>
     </g>
     <g id="text_12">
      <!-- 3000 -->
      <g style="fill: #a9a9a9" transform="translate(75.55 211.300878) scale(0.1 -0.1)">
       <use xlink:href="#DejaVuSans-33"/>
       <use xlink:href="#DejaVuSans-30" transform="translate(63.623047 0)"/>
       <use xlink:href="#DejaVuSans-30" transform="translate(127.246094 0)"/>
       <use xlink:href="#DejaVuSans-30" transform="translate(190.869141 0)"/>
      </g>
     </g>
    </g>
    <g id="ytick_5">
     <g id="line2d_25">
      <path d="M 108 174.057731 
L 777.6 174.057731 
" clip-path="url(#p732b9c22df)" style="fill: none; stroke-dasharray: 5.12,1.28,0.8,1.28; stroke-dashoffset: 0; stroke: #b0b0b0; stroke-width: 0.8"/>
     </g>
     <g id="line2d_26">
      <g>
       <use xlink:href="#m62e40663c7" x="108" y="174.057731" style="fill: #a9a9a9; stroke: #a9a9a9; stroke-width: 0.8"/>
      </g>
     </g>
     <g id="text_13">
      <!-- 4000 -->
      <g style="fill: #a9a9a9" transform="translate(75.55 177.856949) scale(0.1 -0.1)">
       <use xlink:href="#DejaVuSans-34"/>
       <use xlink:href="#DejaVuSans-30" transform="translate(63.623047 0)"/>
       <use xlink:href="#DejaVuSans-30" transform="translate(127.246094 0)"/>
       <use xlink:href="#DejaVuSans-30" transform="translate(190.869141 0)"/>
      </g>
     </g>
    </g>
    <g id="ytick_6">
     <g id="line2d_27">
      <path d="M 108 140.613802 
L 777.6 140.613802 
" clip-path="url(#p732b9c22df)" style="fill: none; stroke-dasharray: 5.12,1.28,0.8,1.28; stroke-dashoffset: 0; stroke: #b0b0b0; stroke-width: 0.8"/>
     </g>
     <g id="line2d_28">
      <g>
       <use xlink:href="#m62e40663c7" x="108" y="140.613802" style="fill: #a9a9a9; stroke: #a9a9a9; stroke-width: 0.8"/>
      </g>
     </g>
     <g id="text_14">
      <!-- 5000 -->
      <g style="fill: #a9a9a9" transform="translate(75.55 144.413021) scale(0.1 -0.1)">
       <use xlink:href="#DejaVuSans-35"/>
       <use xlink:href="#DejaVuSans-30" transform="translate(63.623047 0)"/>
       <use xlink:href="#DejaVuSans-30" transform="translate(127.246094 0)"/>
       <use xlink:href="#DejaVuSans-30" transform="translate(190.869141 0)"/>
      </g>
     </g>
    </g>
    <g id="ytick_7">
     <g id="line2d_29">
      <path d="M 108 107.169874 
L 777.6 107.169874 
" clip-path="url(#p732b9c22df)" style="fill: none; stroke-dasharray: 5.12,1.28,0.8,1.28; stroke-dashoffset: 0; stroke: #b0b0b0; stroke-width: 0.8"/>
     </g>
     <g id="line2d_30">
      <g>
       <use xlink:href="#m62e40663c7" x="108" y="107.169874" style="fill: #a9a9a9; stroke: #a9a9a9; stroke-width: 0.8"/>
      </g>
     </g>
     <g id="text_15">
      <!-- 6000 -->
      <g style="fill: #a9a9a9" transform="translate(75.55 110.969093) scale(0.1 -0.1)">
       <defs>
        <path id="DejaVuSans-36" d="M 2113 2584 
Q 1688 2584 1439 2293 
Q 1191 2003 1191 1497 
Q 1191 994 1439 701 
Q 1688 409 2113 409 
Q 2538 409 2786 701 
Q 3034 994 3034 1497 
Q 3034 2003 2786 2293 
Q 2538 2584 2113 2584 
z
M 3366 4563 
L 3366 3988 
Q 3128 4100 2886 4159 
Q 2644 4219 2406 4219 
Q 1781 4219 1451 3797 
Q 1122 3375 1075 2522 
Q 1259 2794 1537 2939 
Q 1816 3084 2150 3084 
Q 2853 3084 3261 2657 
Q 3669 2231 3669 1497 
Q 3669 778 3244 343 
Q 2819 -91 2113 -91 
Q 1303 -91 875 529 
Q 447 1150 447 2328 
Q 447 3434 972 4092 
Q 1497 4750 2381 4750 
Q 2619 4750 2861 4703 
Q 3103 4656 3366 4563 
z
" transform="scale(0.015625)"/>
       </defs>
       <use xlink:href="#DejaVuSans-36"/>
       <use xlink:href="#DejaVuSans-30" transform="translate(63.623047 0)"/>
       <use xlink:href="#DejaVuSans-30" transform="translate(127.246094 0)"/>
       <use xlink:href="#DejaVuSans-30" transform="translate(190.869141 0)"/>
      </g>
     </g>
    </g>
    <g id="ytick_8">
     <g id="line2d_31">
      <path d="M 108 73.725946 
L 777.6 73.725946 
" clip-path="url(#p732b9c22df)" style="fill: none; stroke-dasharray: 5.12,1.28,0.8,1.28; stroke-dashoffset: 0; stroke: #b0b0b0; stroke-width: 0.8"/>
     </g>
     <g id="line2d_32">
      <g>
       <use xlink:href="#m62e40663c7" x="108" y="73.725946" style="fill: #a9a9a9; stroke: #a9a9a9; stroke-width: 0.8"/>
      </g>
     </g>
     <g id="text_16">
      <!-- 7000 -->
      <g style="fill: #a9a9a9" transform="translate(75.55 77.525164) scale(0.1 -0.1)">
       <use xlink:href="#DejaVuSans-37"/>
       <use xlink:href="#DejaVuSans-30" transform="translate(63.623047 0)"/>
       <use xlink:href="#DejaVuSans-30" transform="translate(127.246094 0)"/>
       <use xlink:href="#DejaVuSans-30" transform="translate(190.869141 0)"/>
      </g>
     </g>
    </g>
   </g>
   <g id="line2d_33">
    <path d="M 138.436364 307.733112 
L 141.116014 307.499005 
L 141.562623 307.298341 
L 143.349056 307.064234 
L 145.13549 306.69635 
L 146.028707 306.562575 
L 148.261749 306.361911 
L 149.154966 305.994028 
L 149.601574 305.392037 
L 150.048182 305.091042 
L 150.494791 304.087724 
L 150.941399 304.020836 
L 151.388008 303.652953 
L 152.281225 303.184738 
L 154.067658 301.713205 
L 155.854092 300.810219 
L 157.193917 300.174784 
L 157.640526 299.439018 
L 158.533742 298.770139 
L 158.980351 298.569476 
L 163.446435 297.900597 
L 163.893043 297.699934 
L 167.019302 297.432382 
L 168.805736 296.997611 
L 172.378603 296.495952 
L 172.825212 296.261845 
L 173.27182 296.194957 
L 174.165037 295.893962 
L 177.291296 295.358859 
L 178.184513 295.091307 
L 182.203989 294.388985 
L 183.097205 294.188321 
L 183.990422 294.154877 
L 185.776856 293.720106 
L 186.223464 293.084672 
L 187.56329 292.549569 
L 188.903115 292.181685 
L 189.349723 291.947578 
L 190.24294 291.780358 
L 192.029374 291.245255 
L 192.922591 291.178368 
L 193.815807 290.94426 
L 195.602241 290.476045 
L 196.048849 290.442601 
L 196.942066 290.00783 
L 197.388675 289.940942 
L 197.835283 289.706835 
L 202.747976 288.870737 
L 204.534409 288.335634 
L 204.981018 288.034638 
L 207.21406 287.298872 
L 208.107277 286.663437 
L 209.447102 286.395886 
L 219.272487 283.486264 
L 219.719096 283.45282 
L 221.058921 283.051493 
L 221.505529 283.051493 
L 221.952138 282.850829 
L 222.845354 282.750498 
L 223.291963 282.583278 
L 225.078397 282.51639 
L 225.971613 282.349171 
L 226.86483 281.880956 
L 228.204656 281.379297 
L 229.097872 280.911082 
L 229.991089 280.442867 
L 230.884306 280.141871 
L 231.330914 280.008096 
L 232.224131 279.439549 
L 232.67074 278.93789 
L 233.563957 277.533245 
L 234.010565 277.399469 
L 234.457173 277.399469 
L 235.796999 276.596815 
L 236.243607 276.362707 
L 236.690215 276.262376 
L 237.136824 275.827605 
L 238.030041 275.459721 
L 238.923258 275.02495 
L 241.1563 272.115328 
L 243.83595 270.643796 
L 244.729167 269.908029 
L 245.175775 269.607034 
L 245.622384 268.971599 
L 246.068992 267.934837 
L 246.515601 267.232515 
L 246.962209 266.864632 
L 247.408817 266.663968 
L 250.981685 263.319575 
L 251.874902 262.483477 
L 254.554552 260.777837 
L 255.001161 260.610617 
L 256.787594 259.540411 
L 257.234203 259.339748 
L 259.467245 257.266224 
L 260.360462 256.898341 
L 261.253678 256.262906 
L 261.700287 255.995355 
L 262.146895 255.928467 
L 263.48672 255.159257 
L 263.933329 254.657598 
L 266.166371 253.420173 
L 266.612979 253.252953 
L 267.952805 252.316523 
L 274.651931 249.90856 
L 275.545148 249.072462 
L 276.884973 248.403583 
L 277.77819 247.835036 
L 278.671407 247.567485 
L 279.118015 247.26649 
L 279.564623 247.132714 
L 280.904449 246.229728 
L 283.137491 245.728069 
L 284.477316 244.925415 
L 285.817141 244.624419 
L 286.26375 244.524088 
L 287.603575 243.487326 
L 289.390009 242.985667 
L 289.836617 242.617784 
L 292.516268 241.681354 
L 293.409484 241.514134 
L 294.302701 241.146251 
L 297.42896 239.975713 
L 298.322177 239.841938 
L 299.662002 239.373723 
L 301.895044 238.270073 
L 303.681478 237.266755 
L 307.254345 235.761778 
L 307.700954 235.694891 
L 308.594171 235.126344 
L 309.487387 234.892236 
L 310.827213 234.357133 
L 312.613646 234.123026 
L 313.506863 233.654811 
L 313.953472 233.253484 
L 314.40008 232.450829 
L 316.186514 231.949171 
L 317.526339 231.246848 
L 318.419556 230.945853 
L 319.312773 230.477638 
L 321.992423 229.373988 
L 322.88564 229.173324 
L 323.778857 228.705109 
L 324.225465 228.504446 
L 324.672074 228.437558 
L 326.905116 227.333908 
L 327.798333 226.765362 
L 329.138158 226.49781 
L 331.3712 225.929263 
L 331.817808 225.56138 
L 332.711025 225.260385 
L 334.944067 224.357399 
L 335.390676 224.02296 
L 335.837284 223.85574 
L 336.730501 223.354081 
L 338.516935 222.785534 
L 339.410151 222.216987 
L 339.85676 221.748772 
L 340.303368 221.481221 
L 340.749977 221.380889 
L 341.643193 220.645123 
L 342.089802 220.578235 
L 342.53641 219.842468 
L 342.983019 219.641805 
L 343.429627 219.273922 
L 343.876236 219.207034 
L 344.769452 218.638487 
L 345.662669 218.337492 
L 346.109278 218.003052 
L 346.555886 217.835833 
L 348.34232 216.631851 
L 349.682145 215.929529 
L 350.575362 215.695421 
L 351.468579 215.193762 
L 351.915187 214.424552 
L 352.808404 213.755674 
L 353.255012 213.655342 
L 355.934663 212.351029 
L 356.82788 211.983145 
L 357.721097 211.347711 
L 358.614313 210.444725 
L 362.633789 207.300995 
L 363.080398 206.933112 
L 363.973614 206.632117 
L 364.866831 206.030126 
L 366.206656 205.327804 
L 366.653265 205.260916 
L 367.99309 204.525149 
L 368.886307 203.956603 
L 373.352391 202.284406 
L 373.799 201.916523 
L 375.585433 201.2142 
L 376.032042 201.080425 
L 376.925258 200.478434 
L 377.818475 200.110551 
L 378.711692 199.475116 
L 379.604909 197.669144 
L 380.498126 196.598938 
L 381.837951 195.896616 
L 382.731168 195.528733 
L 383.177776 195.461845 
L 383.624385 195.194293 
L 385.857427 194.458527 
L 386.304035 194.257863 
L 387.197252 193.655873 
L 388.537077 193.087326 
L 389.430294 192.585667 
L 390.323511 192.050564 
L 390.770119 191.749569 
L 391.216728 191.24791 
L 392.556553 190.478699 
L 393.003161 190.31148 
L 393.896378 189.776377 
L 395.682812 188.773059 
L 396.12942 188.672727 
L 396.576029 188.304844 
L 399.702288 187.268082 
L 400.148896 186.933643 
L 401.042113 186.666092 
L 401.93533 186.298208 
L 402.381938 185.930325 
L 404.168372 185.294891 
L 405.061589 184.659456 
L 405.954806 184.291573 
L 406.848022 183.58925 
L 407.741239 183.321699 
L 408.187848 182.920372 
L 408.634456 182.853484 
L 409.527673 182.151161 
L 410.42089 181.682946 
L 410.867498 181.482283 
L 411.314107 181.014068 
L 414.440366 179.743198 
L 415.333582 179.341871 
L 416.673408 178.9071 
L 417.566624 178.773324 
L 418.013233 178.572661 
L 418.459841 178.505773 
L 419.353058 178.104446 
L 419.799667 178.071002 
L 421.5861 177.402123 
L 422.925925 176.43225 
L 423.372534 176.26503 
L 424.265751 175.763371 
L 424.712359 175.629595 
L 427.39201 174.124618 
L 427.838618 174.024287 
L 429.178443 173.221632 
L 430.518269 172.753417 
L 431.411485 172.452422 
L 433.197919 171.850431 
L 434.091136 171.549436 
L 435.87757 171.181553 
L 436.324178 170.980889 
L 437.217395 170.746782 
L 437.664003 170.546118 
L 438.110612 170.47923 
L 438.55722 170.245123 
L 439.450437 170.077903 
L 440.790262 169.576244 
L 441.683479 169.475912 
L 443.023304 169.174917 
L 445.256346 168.77359 
L 456.868165 165.295421 
L 457.314774 164.827206 
L 458.20799 164.459323 
L 461.780858 163.088122 
L 462.227466 162.820571 
L 463.567291 162.419244 
L 464.460508 162.185136 
L 464.907117 161.884141 
L 465.353725 161.783809 
L 465.800333 161.382482 
L 467.140159 161.11493 
L 468.033376 160.680159 
L 468.479984 160.145056 
L 470.266418 159.710285 
L 473.392677 159.041407 
L 473.839285 159.041407 
L 474.285893 158.840743 
L 476.072327 158.506304 
L 476.518936 158.30564 
L 478.305369 157.971201 
L 479.198586 157.603318 
L 480.091803 157.436098 
L 482.324845 156.867551 
L 484.111279 156.299005 
L 484.557887 156.198673 
L 485.004495 155.964565 
L 485.897712 155.730458 
L 486.790929 155.362575 
L 487.684146 155.028135 
L 488.130754 154.72714 
L 489.023971 154.459589 
L 492.15023 153.289051 
L 493.936664 153.054944 
L 497.509531 151.75063 
L 497.95614 151.416191 
L 498.402748 151.315859 
L 498.849356 151.081752 
L 499.295965 151.048308 
L 504.208657 149.27578 
L 506.441699 148.673789 
L 507.334916 148.239018 
L 508.674742 147.938023 
L 510.461175 146.46649 
L 512.247609 145.697279 
L 513.140826 145.295952 
L 515.820476 144.25919 
L 516.267085 143.958195 
L 518.500127 143.222429 
L 519.839952 142.453218 
L 520.28656 142.352887 
L 522.072994 141.349569 
L 523.859428 140.546914 
L 524.306036 140.212475 
L 525.199253 139.91148 
L 527.432295 138.774386 
L 528.77212 138.306171 
L 530.558554 137.570405 
L 531.898379 137.068746 
L 532.344988 136.901526 
L 533.238204 136.76775 
L 533.684813 136.466755 
L 535.471247 136.098872 
L 536.364463 135.730989 
L 538.150897 134.894891 
L 544.403415 132.152488 
L 545.74324 131.717717 
L 546.189849 131.416722 
L 547.083065 131.31639 
L 547.529674 131.015395 
L 548.422891 130.848175 
L 549.316108 130.413404 
L 549.762716 130.212741 
L 550.655933 129.978633 
L 551.54915 129.711082 
L 552.888975 129.209423 
L 554.2288 128.774652 
L 555.568625 128.473656 
L 557.355059 127.73789 
L 558.248276 127.236231 
L 560.03471 126.333245 
L 560.927926 126.132581 
L 561.374535 125.86503 
L 561.821143 125.764698 
L 563.160968 124.995488 
L 564.054185 124.627605 
L 565.840619 123.925282 
L 568.073661 123.156072 
L 568.966878 122.687857 
L 571.19992 121.918646 
L 573.87957 120.814997 
L 575.666004 119.978898 
L 580.132088 118.239814 
L 581.025305 117.805043 
L 581.471914 117.704711 
L 581.918522 117.470604 
L 583.704956 116.968945 
L 585.491389 115.497412 
L 585.937998 115.363636 
L 586.384606 115.096085 
L 587.724431 114.728202 
L 588.17104 114.393762 
L 588.617648 114.293431 
L 589.510865 113.724884 
L 590.85069 113.022561 
L 591.743907 112.654678 
L 592.190516 112.420571 
L 593.530341 112.119575 
L 595.763383 111.350365 
L 596.6566 111.04937 
L 597.996425 110.347047 
L 598.889642 109.912276 
L 599.782859 109.678169 
L 601.122684 109.042734 
L 605.14216 107.537757 
L 606.481985 106.701659 
L 606.928593 106.601327 
L 607.82181 106.166556 
L 608.715027 105.832117 
L 609.161635 105.43079 
L 610.054852 105.062906 
L 611.394678 104.594691 
L 611.841286 104.226808 
L 612.287894 104.193364 
L 613.181111 103.925813 
L 614.074328 103.624818 
L 614.520936 103.424154 
L 614.967545 103.357266 
L 616.30737 102.855607 
L 617.647195 102.353948 
L 619.433629 101.551294 
L 619.880237 101.484406 
L 623.453105 99.979429 
L 624.79293 99.544658 
L 625.686147 99.47777 
L 626.579364 99.109887 
L 629.259014 98.307233 
L 630.152231 98.273789 
L 633.725098 97.103251 
L 634.618315 96.635036 
L 635.064924 96.233709 
L 636.404749 95.431055 
L 636.851357 95.096616 
L 638.191183 94.661845 
L 639.084399 94.394293 
L 639.531008 94.160186 
L 639.977616 94.059854 
L 640.424225 93.691971 
L 643.103875 92.554877 
L 644.890309 92.086662 
L 645.783526 91.685335 
L 646.230134 91.451228 
L 647.123351 91.183676 
L 647.569959 90.916125 
L 648.463176 90.748905 
L 652.036043 89.210484 
L 652.482652 89.143597 
L 653.822477 88.274054 
L 654.269086 88.207167 
L 656.055519 87.504844 
L 657.841953 87.070073 
L 658.288561 87.003185 
L 658.73517 86.802522 
L 659.181778 86.769078 
L 660.074995 86.468082 
L 660.521603 86.434638 
L 661.861429 85.899536 
L 663.647862 85.364433 
L 664.541079 84.695554 
L 666.327513 83.692236 
L 667.667338 83.224021 
L 671.240205 81.518381 
L 671.686814 81.284273 
L 672.133422 80.882946 
L 674.366464 80.280956 
L 675.70629 79.678965 
L 676.599506 79.444857 
L 677.046115 79.21075 
L 677.492723 78.842867 
L 679.279157 78.374652 
L 679.725765 78.040212 
L 685.531675 75.933245 
L 686.424892 75.766025 
L 688.657934 75.063703 
L 689.551151 74.69582 
L 690.444367 74.36138 
L 691.337584 74.127273 
L 691.784193 73.926609 
L 692.230801 73.926609 
L 693.124018 73.558726 
L 694.017235 73.023623 
L 697.143494 71.986861 
L 698.929927 71.384871 
L 700.269753 71.083875 
L 701.609578 70.649104 
L 702.056186 70.548772 
L 702.502795 70.247777 
L 703.396011 70.047113 
L 712.32818 67.471931 
L 714.561222 67.070604 
L 715.454439 66.635833 
L 716.347656 66.201062 
L 717.687481 65.799735 
L 722.153565 64.160982 
L 722.600173 63.826543 
L 723.939999 63.525547 
L 724.833216 63.257996 
L 725.726432 62.823225 
L 726.173041 62.421898 
L 727.066258 62.154346 
L 727.512866 61.886795 
L 728.406083 61.786463 
L 731.532342 60.916921 
L 732.872167 60.64937 
L 735.551818 59.779827 
L 737.338251 58.910285 
L 742.697552 57.003981 
L 746.27042 56.100995 
L 747.163636 55.8 
L 747.163636 55.8 
" clip-path="url(#p732b9c22df)" style="fill: none; stroke: #1f77b4; stroke-width: 1.5; stroke-linecap: square"/>
   </g>
   <g id="line2d_34">
    <path d="M 138.882972 307.8 
L 142.902448 307.699668 
L 146.475315 307.532449 
L 148.261749 307.532449 
L 148.708357 307.398673 
L 150.941399 307.298341 
L 153.62105 306.997346 
L 156.3007 306.897014 
L 157.193917 306.796682 
L 160.320176 306.662906 
L 163.446435 306.562575 
L 165.679477 306.495687 
L 171.485387 306.395355 
L 173.718429 306.328467 
L 177.737904 306.228135 
L 179.524338 306.194691 
L 183.990422 306.09436 
L 185.776856 305.92714 
L 187.56329 305.893696 
L 190.24294 305.793364 
L 192.029374 305.75992 
L 194.262416 305.693033 
L 196.048849 305.525813 
L 200.068325 305.425481 
L 200.961542 305.358593 
L 202.747976 305.258261 
L 205.427626 305.15793 
L 207.21406 305.057598 
L 215.253011 304.555939 
L 218.37927 304.455607 
L 219.719096 304.321831 
L 221.952138 304.2215 
L 226.418222 303.987392 
L 230.884306 303.920504 
L 232.67074 303.719841 
L 234.457173 303.619509 
L 239.369866 303.151294 
L 242.496125 302.783411 
L 243.83595 302.716523 
L 247.408817 302.248308 
L 250.088468 302.18142 
L 251.428293 302.047644 
L 252.768118 301.947313 
L 265.273154 300.977439 
L 266.166371 300.810219 
L 268.846021 300.709887 
L 275.991756 300.275116 
L 279.118015 300.174784 
L 280.904449 299.974121 
L 283.137491 299.873789 
L 285.817141 299.773457 
L 288.050183 299.673125 
L 289.836617 299.639681 
L 292.069659 299.572794 
L 292.962876 299.439018 
L 299.215394 299.338686 
L 300.108611 299.238354 
L 305.467912 299.138023 
L 309.487387 298.937359 
L 312.613646 298.837027 
L 314.40008 298.636364 
L 317.526339 298.536032 
L 318.419556 298.368812 
L 320.652598 298.301924 
L 325.118682 298.235036 
L 326.905116 298.067817 
L 328.691549 298.034373 
L 330.031375 297.934041 
L 331.817808 297.766821 
L 336.283892 297.532714 
L 340.749977 297.432382 
L 344.769452 297.231719 
L 346.109278 297.198275 
L 347.002494 297.064499 
L 349.235537 296.964167 
L 350.128753 296.897279 
L 351.02197 296.830392 
L 351.915187 296.763504 
L 355.934663 296.696616 
L 357.274488 296.596284 
L 369.332915 295.79363 
L 371.565957 295.693298 
L 373.799 295.62641 
L 380.051517 295.526078 
L 380.944734 295.392303 
L 387.197252 295.291971 
L 391.663336 295.057863 
L 392.556553 295.024419 
L 393.44977 294.924088 
L 395.682812 294.823756 
L 397.915854 294.756868 
L 400.148896 294.656536 
L 402.381938 294.589648 
L 406.401414 294.489317 
L 409.081064 294.388985 
L 415.333582 294.288653 
L 420.246275 294.021102 
L 422.032709 293.954214 
L 423.372534 293.853882 
L 429.625052 293.75355 
L 432.304702 293.653218 
L 440.343654 293.552887 
L 442.130087 293.519443 
L 447.489388 293.452555 
L 448.382605 293.385667 
L 454.635123 293.285335 
L 456.421557 293.251891 
L 468.033376 293.151559 
L 470.713026 293.051228 
L 489.47058 292.950896 
L 491.703622 292.884008 
L 503.315441 292.81712 
L 504.208657 292.750232 
L 506.441699 292.683344 
L 507.781525 292.549569 
L 510.461175 292.449237 
L 513.587434 292.315461 
L 517.60691 292.215129 
L 519.839952 292.148242 
L 522.966211 292.04791 
L 526.539078 291.88069 
L 528.77212 291.780358 
L 530.558554 291.746914 
L 534.57803 291.646583 
L 536.364463 291.613139 
L 542.170373 291.512807 
L 543.956807 291.479363 
L 546.189849 291.379031 
L 548.869499 291.278699 
L 551.995758 291.211812 
L 552.888975 291.144924 
L 563.607577 291.044592 
L 569.413486 290.710153 
L 571.646528 290.643265 
L 572.539745 290.542933 
L 573.432962 290.476045 
L 577.005829 290.375713 
L 579.68548 290.275382 
L 584.151564 290.17505 
L 586.384606 289.940942 
L 590.85069 289.84061 
L 591.743907 289.740279 
L 596.209991 289.639947 
L 598.443033 289.573059 
L 603.355726 289.539615 
L 604.248943 289.439283 
L 609.161635 289.338952 
L 610.054852 289.272064 
L 619.880237 289.171732 
L 622.559888 289.0714 
L 629.259014 288.971068 
L 631.045448 288.937624 
L 635.064924 288.870737 
L 635.95814 288.770405 
L 641.76405 288.670073 
L 643.997092 288.603185 
L 652.036043 288.502853 
L 653.375869 288.402522 
L 654.715694 288.30219 
L 656.055519 288.201858 
L 662.754646 288.101526 
L 665.434296 288.001194 
L 677.492723 287.900863 
L 681.512199 287.700199 
L 686.8715 287.599867 
L 687.764717 287.532979 
L 694.463843 287.466092 
L 695.35706 287.399204 
L 700.269753 287.298872 
L 702.056186 287.265428 
L 708.308704 287.165096 
L 710.988355 287.064764 
L 718.580698 286.964433 
L 720.367131 286.930989 
L 724.386607 286.830657 
L 727.959474 286.663437 
L 732.872167 286.563106 
L 735.998426 286.42933 
L 740.017902 286.328998 
L 740.911119 286.26211 
L 747.163636 286.195222 
L 747.163636 286.195222 
" clip-path="url(#p732b9c22df)" style="fill: none; stroke: #ff7f0e; stroke-width: 1.5; stroke-linecap: square"/>
   </g>
   <g id="patch_3">
    <path d="M 108 320.4 
L 108 43.2 
" style="fill: none; stroke: #a9a9a9; stroke-width: 0.8; stroke-linejoin: miter; stroke-linecap: square"/>
   </g>
   <g id="patch_4">
    <path d="M 777.6 320.4 
L 777.6 43.2 
" style="fill: none"/>
   </g>
   <g id="patch_5">
    <path d="M 108 320.4 
L 777.6 320.4 
" style="fill: none; stroke: #a9a9a9; stroke-width: 0.8; stroke-linejoin: miter; stroke-linecap: square"/>
   </g>
   <g id="patch_6">
    <path d="M 108 43.2 
L 777.6 43.2 
" style="fill: none"/>
   </g>
   <g id="text_17">
    <!-- get_subscribe history -->
    <g style="fill: #a9a9a9" transform="translate(378.6075 37.2) scale(0.12 -0.12)">
     <defs>
      <path id="DejaVuSans-67" d="M 2906 1791 
Q 2906 2416 2648 2759 
Q 2391 3103 1925 3103 
Q 1463 3103 1205 2759 
Q 947 2416 947 1791 
Q 947 1169 1205 825 
Q 1463 481 1925 481 
Q 2391 481 2648 825 
Q 2906 1169 2906 1791 
z
M 3481 434 
Q 3481 -459 3084 -895 
Q 2688 -1331 1869 -1331 
Q 1566 -1331 1297 -1286 
Q 1028 -1241 775 -1147 
L 775 -588 
Q 1028 -725 1275 -790 
Q 1522 -856 1778 -856 
Q 2344 -856 2625 -561 
Q 2906 -266 2906 331 
L 2906 616 
Q 2728 306 2450 153 
Q 2172 0 1784 0 
Q 1141 0 747 490 
Q 353 981 353 1791 
Q 353 2603 747 3093 
Q 1141 3584 1784 3584 
Q 2172 3584 2450 3431 
Q 2728 3278 2906 2969 
L 2906 3500 
L 3481 3500 
L 3481 434 
z
" transform="scale(0.015625)"/>
      <path id="DejaVuSans-65" d="M 3597 1894 
L 3597 1613 
L 953 1613 
Q 991 1019 1311 708 
Q 1631 397 2203 397 
Q 2534 397 2845 478 
Q 3156 559 3463 722 
L 3463 178 
Q 3153 47 2828 -22 
Q 2503 -91 2169 -91 
Q 1331 -91 842 396 
Q 353 884 353 1716 
Q 353 2575 817 3079 
Q 1281 3584 2069 3584 
Q 2775 3584 3186 3129 
Q 3597 2675 3597 1894 
z
M 3022 2063 
Q 3016 2534 2758 2815 
Q 2500 3097 2075 3097 
Q 1594 3097 1305 2825 
Q 1016 2553 972 2059 
L 3022 2063 
z
" transform="scale(0.015625)"/>
      <path id="DejaVuSans-74" d="M 1172 4494 
L 1172 3500 
L 2356 3500 
L 2356 3053 
L 1172 3053 
L 1172 1153 
Q 1172 725 1289 603 
Q 1406 481 1766 481 
L 2356 481 
L 2356 0 
L 1766 0 
Q 1100 0 847 248 
Q 594 497 594 1153 
L 594 3053 
L 172 3053 
L 172 3500 
L 594 3500 
L 594 4494 
L 1172 4494 
z
" transform="scale(0.015625)"/>
      <path id="DejaVuSans-5f" d="M 3263 -1063 
L 3263 -1509 
L -63 -1509 
L -63 -1063 
L 3263 -1063 
z
" transform="scale(0.015625)"/>
      <path id="DejaVuSans-73" d="M 2834 3397 
L 2834 2853 
Q 2591 2978 2328 3040 
Q 2066 3103 1784 3103 
Q 1356 3103 1142 2972 
Q 928 2841 928 2578 
Q 928 2378 1081 2264 
Q 1234 2150 1697 2047 
L 1894 2003 
Q 2506 1872 2764 1633 
Q 3022 1394 3022 966 
Q 3022 478 2636 193 
Q 2250 -91 1575 -91 
Q 1294 -91 989 -36 
Q 684 19 347 128 
L 347 722 
Q 666 556 975 473 
Q 1284 391 1588 391 
Q 1994 391 2212 530 
Q 2431 669 2431 922 
Q 2431 1156 2273 1281 
Q 2116 1406 1581 1522 
L 1381 1569 
Q 847 1681 609 1914 
Q 372 2147 372 2553 
Q 372 3047 722 3315 
Q 1072 3584 1716 3584 
Q 2034 3584 2315 3537 
Q 2597 3491 2834 3397 
z
" transform="scale(0.015625)"/>
      <path id="DejaVuSans-75" d="M 544 1381 
L 544 3500 
L 1119 3500 
L 1119 1403 
Q 1119 906 1312 657 
Q 1506 409 1894 409 
Q 2359 409 2629 706 
Q 2900 1003 2900 1516 
L 2900 3500 
L 3475 3500 
L 3475 0 
L 2900 0 
L 2900 538 
Q 2691 219 2414 64 
Q 2138 -91 1772 -91 
Q 1169 -91 856 284 
Q 544 659 544 1381 
z
M 1991 3584 
L 1991 3584 
z
" transform="scale(0.015625)"/>
      <path id="DejaVuSans-62" d="M 3116 1747 
Q 3116 2381 2855 2742 
Q 2594 3103 2138 3103 
Q 1681 3103 1420 2742 
Q 1159 2381 1159 1747 
Q 1159 1113 1420 752 
Q 1681 391 2138 391 
Q 2594 391 2855 752 
Q 3116 1113 3116 1747 
z
M 1159 2969 
Q 1341 3281 1617 3432 
Q 1894 3584 2278 3584 
Q 2916 3584 3314 3078 
Q 3713 2572 3713 1747 
Q 3713 922 3314 415 
Q 2916 -91 2278 -91 
Q 1894 -91 1617 61 
Q 1341 213 1159 525 
L 1159 0 
L 581 0 
L 581 4863 
L 1159 4863 
L 1159 2969 
z
" transform="scale(0.015625)"/>
      <path id="DejaVuSans-63" d="M 3122 3366 
L 3122 2828 
Q 2878 2963 2633 3030 
Q 2388 3097 2138 3097 
Q 1578 3097 1268 2742 
Q 959 2388 959 1747 
Q 959 1106 1268 751 
Q 1578 397 2138 397 
Q 2388 397 2633 464 
Q 2878 531 3122 666 
L 3122 134 
Q 2881 22 2623 -34 
Q 2366 -91 2075 -91 
Q 1284 -91 818 406 
Q 353 903 353 1747 
Q 353 2603 823 3093 
Q 1294 3584 2113 3584 
Q 2378 3584 2631 3529 
Q 2884 3475 3122 3366 
z
" transform="scale(0.015625)"/>
      <path id="DejaVuSans-72" d="M 2631 2963 
Q 2534 3019 2420 3045 
Q 2306 3072 2169 3072 
Q 1681 3072 1420 2755 
Q 1159 2438 1159 1844 
L 1159 0 
L 581 0 
L 581 3500 
L 1159 3500 
L 1159 2956 
Q 1341 3275 1631 3429 
Q 1922 3584 2338 3584 
Q 2397 3584 2469 3576 
Q 2541 3569 2628 3553 
L 2631 2963 
z
" transform="scale(0.015625)"/>
      <path id="DejaVuSans-69" d="M 603 3500 
L 1178 3500 
L 1178 0 
L 603 0 
L 603 3500 
z
M 603 4863 
L 1178 4863 
L 1178 4134 
L 603 4134 
L 603 4863 
z
" transform="scale(0.015625)"/>
      <path id="DejaVuSans-20" transform="scale(0.015625)"/>
      <path id="DejaVuSans-68" d="M 3513 2113 
L 3513 0 
L 2938 0 
L 2938 2094 
Q 2938 2591 2744 2837 
Q 2550 3084 2163 3084 
Q 1697 3084 1428 2787 
Q 1159 2491 1159 1978 
L 1159 0 
L 581 0 
L 581 4863 
L 1159 4863 
L 1159 2956 
Q 1366 3272 1645 3428 
Q 1925 3584 2291 3584 
Q 2894 3584 3203 3211 
Q 3513 2838 3513 2113 
z
" transform="scale(0.015625)"/>
      <path id="DejaVuSans-6f" d="M 1959 3097 
Q 1497 3097 1228 2736 
Q 959 2375 959 1747 
Q 959 1119 1226 758 
Q 1494 397 1959 397 
Q 2419 397 2687 759 
Q 2956 1122 2956 1747 
Q 2956 2369 2687 2733 
Q 2419 3097 1959 3097 
z
M 1959 3584 
Q 2709 3584 3137 3096 
Q 3566 2609 3566 1747 
Q 3566 888 3137 398 
Q 2709 -91 1959 -91 
Q 1206 -91 779 398 
Q 353 888 353 1747 
Q 353 2609 779 3096 
Q 1206 3584 1959 3584 
z
" transform="scale(0.015625)"/>
      <path id="DejaVuSans-79" d="M 2059 -325 
Q 1816 -950 1584 -1140 
Q 1353 -1331 966 -1331 
L 506 -1331 
L 506 -850 
L 844 -850 
Q 1081 -850 1212 -737 
Q 1344 -625 1503 -206 
L 1606 56 
L 191 3500 
L 800 3500 
L 1894 763 
L 2988 3500 
L 3597 3500 
L 2059 -325 
z
" transform="scale(0.015625)"/>
     </defs>
     <use xlink:href="#DejaVuSans-67"/>
     <use xlink:href="#DejaVuSans-65" transform="translate(63.476562 0)"/>
     <use xlink:href="#DejaVuSans-74" transform="translate(125 0)"/>
     <use xlink:href="#DejaVuSans-5f" transform="translate(164.208984 0)"/>
     <use xlink:href="#DejaVuSans-73" transform="translate(214.208984 0)"/>
     <use xlink:href="#DejaVuSans-75" transform="translate(266.308594 0)"/>
     <use xlink:href="#DejaVuSans-62" transform="translate(329.6875 0)"/>
     <use xlink:href="#DejaVuSans-73" transform="translate(393.164062 0)"/>
     <use xlink:href="#DejaVuSans-63" transform="translate(445.263672 0)"/>
     <use xlink:href="#DejaVuSans-72" transform="translate(500.244141 0)"/>
     <use xlink:href="#DejaVuSans-69" transform="translate(541.357422 0)"/>
     <use xlink:href="#DejaVuSans-62" transform="translate(569.140625 0)"/>
     <use xlink:href="#DejaVuSans-65" transform="translate(632.617188 0)"/>
     <use xlink:href="#DejaVuSans-20" transform="translate(694.140625 0)"/>
     <use xlink:href="#DejaVuSans-68" transform="translate(725.927734 0)"/>
     <use xlink:href="#DejaVuSans-69" transform="translate(789.306641 0)"/>
     <use xlink:href="#DejaVuSans-73" transform="translate(817.089844 0)"/>
     <use xlink:href="#DejaVuSans-74" transform="translate(869.189453 0)"/>
     <use xlink:href="#DejaVuSans-6f" transform="translate(908.398438 0)"/>
     <use xlink:href="#DejaVuSans-72" transform="translate(969.580078 0)"/>
     <use xlink:href="#DejaVuSans-79" transform="translate(1010.693359 0)"/>
    </g>
   </g>
   <g id="legend_1">
    <g id="line2d_35">
     <path d="M 815.08 328.498438 
L 825.08 328.498438 
L 835.08 328.498438 
" style="fill: none; stroke: #1f77b4; stroke-width: 1.5; stroke-linecap: square"/>
    </g>
    <g id="text_18">
     <!-- star -->
     <g style="fill: #a9a9a9" transform="translate(843.08 331.998438) scale(0.1 -0.1)">
      <defs>
       <path id="DejaVuSans-61" d="M 2194 1759 
Q 1497 1759 1228 1600 
Q 959 1441 959 1056 
Q 959 750 1161 570 
Q 1363 391 1709 391 
Q 2188 391 2477 730 
Q 2766 1069 2766 1631 
L 2766 1759 
L 2194 1759 
z
M 3341 1997 
L 3341 0 
L 2766 0 
L 2766 531 
Q 2569 213 2275 61 
Q 1981 -91 1556 -91 
Q 1019 -91 701 211 
Q 384 513 384 1019 
Q 384 1609 779 1909 
Q 1175 2209 1959 2209 
L 2766 2209 
L 2766 2266 
Q 2766 2663 2505 2880 
Q 2244 3097 1772 3097 
Q 1472 3097 1187 3025 
Q 903 2953 641 2809 
L 641 3341 
Q 956 3463 1253 3523 
Q 1550 3584 1831 3584 
Q 2591 3584 2966 3190 
Q 3341 2797 3341 1997 
z
" transform="scale(0.015625)"/>
      </defs>
      <use xlink:href="#DejaVuSans-73"/>
      <use xlink:href="#DejaVuSans-74" transform="translate(52.099609 0)"/>
      <use xlink:href="#DejaVuSans-61" transform="translate(91.308594 0)"/>
      <use xlink:href="#DejaVuSans-72" transform="translate(152.587891 0)"/>
     </g>
    </g>
    <g id="line2d_36">
     <path d="M 815.08 343.176562 
L 825.08 343.176562 
L 835.08 343.176562 
" style="fill: none; stroke: #ff7f0e; stroke-width: 1.5; stroke-linecap: square"/>
    </g>
    <g id="text_19">
     <!-- fork -->
     <g style="fill: #a9a9a9" transform="translate(843.08 346.676562) scale(0.1 -0.1)">
      <defs>
       <path id="DejaVuSans-66" d="M 2375 4863 
L 2375 4384 
L 1825 4384 
Q 1516 4384 1395 4259 
Q 1275 4134 1275 3809 
L 1275 3500 
L 2222 3500 
L 2222 3053 
L 1275 3053 
L 1275 0 
L 697 0 
L 697 3053 
L 147 3053 
L 147 3500 
L 697 3500 
L 697 3744 
Q 697 4328 969 4595 
Q 1241 4863 1831 4863 
L 2375 4863 
z
" transform="scale(0.015625)"/>
       <path id="DejaVuSans-6b" d="M 581 4863 
L 1159 4863 
L 1159 1991 
L 2875 3500 
L 3609 3500 
L 1753 1863 
L 3688 0 
L 2938 0 
L 1159 1709 
L 1159 0 
L 581 0 
L 581 4863 
z
" transform="scale(0.015625)"/>
      </defs>
      <use xlink:href="#DejaVuSans-66"/>
      <use xlink:href="#DejaVuSans-6f" transform="translate(35.205078 0)"/>
      <use xlink:href="#DejaVuSans-72" transform="translate(96.386719 0)"/>
      <use xlink:href="#DejaVuSans-6b" transform="translate(137.5 0)"/>
     </g>
    </g>
   </g>
  </g>
 </g>
 <defs>
  <clipPath id="p732b9c22df">
   <rect x="108" y="43.2" width="669.6" height="277.2"/>
  </clipPath>
 </defs>
</svg>
