<?xml version="1.0" encoding="utf-8" standalone="no"?>
<!DOCTYPE svg PUBLIC "-//W3C//DTD SVG 1.1//EN"
  "http://www.w3.org/Graphics/SVG/1.1/DTD/svg11.dtd">
<svg xmlns:xlink="http://www.w3.org/1999/xlink" width="864pt" height="360pt" viewBox="0 0 864 360" xmlns="http://www.w3.org/2000/svg" version="1.1">
 <metadata>
  <rdf:RDF xmlns:dc="http://purl.org/dc/elements/1.1/" xmlns:cc="http://creativecommons.org/ns#" xmlns:rdf="http://www.w3.org/1999/02/22-rdf-syntax-ns#">
   <cc:Work>
    <dc:type rdf:resource="http://purl.org/dc/dcmitype/StillImage"/>
    <dc:date>2025-04-16T08:15:04.025466</dc:date>
    <dc:format>image/svg+xml</dc:format>
    <dc:creator>
     <cc:Agent>
      <dc:title>Matplotlib v3.10.1, https://matplotlib.org/</dc:title>
     </cc:Agent>
    </dc:creator>
   </cc:Work>
  </rdf:RDF>
 </metadata>
 <defs>
  <style type="text/css">*{stroke-linejoin: round; stroke-linecap: butt}</style>
 </defs>
 <g id="figure_1">
  <g id="patch_1">
   <path d="M 0 360 
L 864 360 
L 864 0 
L 0 0 
L 0 360 
z
" style="fill: none; opacity: 0"/>
  </g>
  <g id="axes_1">
   <g id="patch_2">
    <path d="M 108 320.4 
L 777.6 320.4 
L 777.6 43.2 
L 108 43.2 
L 108 320.4 
z
" style="fill: none; opacity: 0"/>
   </g>
   <g id="matplotlib.axis_1">
    <g id="xtick_1">
     <g id="line2d_1">
      <path d="M 128.156828 320.4 
L 128.156828 43.2 
" clip-path="url(#p8f98b09cdc)" style="fill: none; stroke-dasharray: 5.12,1.28,0.8,1.28; stroke-dashoffset: 0; stroke: #b0b0b0; stroke-width: 0.8"/>
     </g>
     <g id="line2d_2">
      <defs>
       <path id="mf0fb58db28" d="M 0 0 
L 0 3.5 
" style="stroke: #a9a9a9; stroke-width: 0.8"/>
      </defs>
      <g>
       <use xlink:href="#mf0fb58db28" x="128.156828" y="320.4" style="fill: #a9a9a9; stroke: #a9a9a9; stroke-width: 0.8"/>
      </g>
     </g>
     <g id="text_1">
      <!-- 2021-07 -->
      <g style="fill: #a9a9a9" transform="translate(107.265422 334.998438) scale(0.1 -0.1)">
       <defs>
        <path id="DejaVuSans-32" d="M 1228 531 
L 3431 531 
L 3431 0 
L 469 0 
L 469 531 
Q 828 903 1448 1529 
Q 2069 2156 2228 2338 
Q 2531 2678 2651 2914 
Q 2772 3150 2772 3378 
Q 2772 3750 2511 3984 
Q 2250 4219 1831 4219 
Q 1534 4219 1204 4116 
Q 875 4013 500 3803 
L 500 4441 
Q 881 4594 1212 4672 
Q 1544 4750 1819 4750 
Q 2544 4750 2975 4387 
Q 3406 4025 3406 3419 
Q 3406 3131 3298 2873 
Q 3191 2616 2906 2266 
Q 2828 2175 2409 1742 
Q 1991 1309 1228 531 
z
" transform="scale(0.015625)"/>
        <path id="DejaVuSans-30" d="M 2034 4250 
Q 1547 4250 1301 3770 
Q 1056 3291 1056 2328 
Q 1056 1369 1301 889 
Q 1547 409 2034 409 
Q 2525 409 2770 889 
Q 3016 1369 3016 2328 
Q 3016 3291 2770 3770 
Q 2525 4250 2034 4250 
z
M 2034 4750 
Q 2819 4750 3233 4129 
Q 3647 3509 3647 2328 
Q 3647 1150 3233 529 
Q 2819 -91 2034 -91 
Q 1250 -91 836 529 
Q 422 1150 422 2328 
Q 422 3509 836 4129 
Q 1250 4750 2034 4750 
z
" transform="scale(0.015625)"/>
        <path id="DejaVuSans-31" d="M 794 531 
L 1825 531 
L 1825 4091 
L 703 3866 
L 703 4441 
L 1819 4666 
L 2450 4666 
L 2450 531 
L 3481 531 
L 3481 0 
L 794 0 
L 794 531 
z
" transform="scale(0.015625)"/>
        <path id="DejaVuSans-2d" d="M 313 2009 
L 1997 2009 
L 1997 1497 
L 313 1497 
L 313 2009 
z
" transform="scale(0.015625)"/>
        <path id="DejaVuSans-37" d="M 525 4666 
L 3525 4666 
L 3525 4397 
L 1831 0 
L 1172 0 
L 2766 4134 
L 525 4134 
L 525 4666 
z
" transform="scale(0.015625)"/>
       </defs>
       <use xlink:href="#DejaVuSans-32"/>
       <use xlink:href="#DejaVuSans-30" transform="translate(63.623047 0)"/>
       <use xlink:href="#DejaVuSans-32" transform="translate(127.246094 0)"/>
       <use xlink:href="#DejaVuSans-31" transform="translate(190.869141 0)"/>
       <use xlink:href="#DejaVuSans-2d" transform="translate(254.492188 0)"/>
       <use xlink:href="#DejaVuSans-30" transform="translate(290.576172 0)"/>
       <use xlink:href="#DejaVuSans-37" transform="translate(354.199219 0)"/>
      </g>
     </g>
    </g>
    <g id="xtick_2">
     <g id="line2d_3">
      <path d="M 210.393112 320.4 
L 210.393112 43.2 
" clip-path="url(#p8f98b09cdc)" style="fill: none; stroke-dasharray: 5.12,1.28,0.8,1.28; stroke-dashoffset: 0; stroke: #b0b0b0; stroke-width: 0.8"/>
     </g>
     <g id="line2d_4">
      <g>
       <use xlink:href="#mf0fb58db28" x="210.393112" y="320.4" style="fill: #a9a9a9; stroke: #a9a9a9; stroke-width: 0.8"/>
      </g>
     </g>
     <g id="text_2">
      <!-- 2022-01 -->
      <g style="fill: #a9a9a9" transform="translate(189.501705 334.998438) scale(0.1 -0.1)">
       <use xlink:href="#DejaVuSans-32"/>
       <use xlink:href="#DejaVuSans-30" transform="translate(63.623047 0)"/>
       <use xlink:href="#DejaVuSans-32" transform="translate(127.246094 0)"/>
       <use xlink:href="#DejaVuSans-32" transform="translate(190.869141 0)"/>
       <use xlink:href="#DejaVuSans-2d" transform="translate(254.492188 0)"/>
       <use xlink:href="#DejaVuSans-30" transform="translate(290.576172 0)"/>
       <use xlink:href="#DejaVuSans-31" transform="translate(354.199219 0)"/>
      </g>
     </g>
    </g>
    <g id="xtick_3">
     <g id="line2d_5">
      <path d="M 291.288586 320.4 
L 291.288586 43.2 
" clip-path="url(#p8f98b09cdc)" style="fill: none; stroke-dasharray: 5.12,1.28,0.8,1.28; stroke-dashoffset: 0; stroke: #b0b0b0; stroke-width: 0.8"/>
     </g>
     <g id="line2d_6">
      <g>
       <use xlink:href="#mf0fb58db28" x="291.288586" y="320.4" style="fill: #a9a9a9; stroke: #a9a9a9; stroke-width: 0.8"/>
      </g>
     </g>
     <g id="text_3">
      <!-- 2022-07 -->
      <g style="fill: #a9a9a9" transform="translate(270.39718 334.998438) scale(0.1 -0.1)">
       <use xlink:href="#DejaVuSans-32"/>
       <use xlink:href="#DejaVuSans-30" transform="translate(63.623047 0)"/>
       <use xlink:href="#DejaVuSans-32" transform="translate(127.246094 0)"/>
       <use xlink:href="#DejaVuSans-32" transform="translate(190.869141 0)"/>
       <use xlink:href="#DejaVuSans-2d" transform="translate(254.492188 0)"/>
       <use xlink:href="#DejaVuSans-30" transform="translate(290.576172 0)"/>
       <use xlink:href="#DejaVuSans-37" transform="translate(354.199219 0)"/>
      </g>
     </g>
    </g>
    <g id="xtick_4">
     <g id="line2d_7">
      <path d="M 373.52487 320.4 
L 373.52487 43.2 
" clip-path="url(#p8f98b09cdc)" style="fill: none; stroke-dasharray: 5.12,1.28,0.8,1.28; stroke-dashoffset: 0; stroke: #b0b0b0; stroke-width: 0.8"/>
     </g>
     <g id="line2d_8">
      <g>
       <use xlink:href="#mf0fb58db28" x="373.52487" y="320.4" style="fill: #a9a9a9; stroke: #a9a9a9; stroke-width: 0.8"/>
      </g>
     </g>
     <g id="text_4">
      <!-- 2023-01 -->
      <g style="fill: #a9a9a9" transform="translate(352.633464 334.998438) scale(0.1 -0.1)">
       <defs>
        <path id="DejaVuSans-33" d="M 2597 2516 
Q 3050 2419 3304 2112 
Q 3559 1806 3559 1356 
Q 3559 666 3084 287 
Q 2609 -91 1734 -91 
Q 1441 -91 1130 -33 
Q 819 25 488 141 
L 488 750 
Q 750 597 1062 519 
Q 1375 441 1716 441 
Q 2309 441 2620 675 
Q 2931 909 2931 1356 
Q 2931 1769 2642 2001 
Q 2353 2234 1838 2234 
L 1294 2234 
L 1294 2753 
L 1863 2753 
Q 2328 2753 2575 2939 
Q 2822 3125 2822 3475 
Q 2822 3834 2567 4026 
Q 2313 4219 1838 4219 
Q 1578 4219 1281 4162 
Q 984 4106 628 3988 
L 628 4550 
Q 988 4650 1302 4700 
Q 1616 4750 1894 4750 
Q 2613 4750 3031 4423 
Q 3450 4097 3450 3541 
Q 3450 3153 3228 2886 
Q 3006 2619 2597 2516 
z
" transform="scale(0.015625)"/>
       </defs>
       <use xlink:href="#DejaVuSans-32"/>
       <use xlink:href="#DejaVuSans-30" transform="translate(63.623047 0)"/>
       <use xlink:href="#DejaVuSans-32" transform="translate(127.246094 0)"/>
       <use xlink:href="#DejaVuSans-33" transform="translate(190.869141 0)"/>
       <use xlink:href="#DejaVuSans-2d" transform="translate(254.492188 0)"/>
       <use xlink:href="#DejaVuSans-30" transform="translate(290.576172 0)"/>
       <use xlink:href="#DejaVuSans-31" transform="translate(354.199219 0)"/>
      </g>
     </g>
    </g>
    <g id="xtick_5">
     <g id="line2d_9">
      <path d="M 454.420344 320.4 
L 454.420344 43.2 
" clip-path="url(#p8f98b09cdc)" style="fill: none; stroke-dasharray: 5.12,1.28,0.8,1.28; stroke-dashoffset: 0; stroke: #b0b0b0; stroke-width: 0.8"/>
     </g>
     <g id="line2d_10">
      <g>
       <use xlink:href="#mf0fb58db28" x="454.420344" y="320.4" style="fill: #a9a9a9; stroke: #a9a9a9; stroke-width: 0.8"/>
      </g>
     </g>
     <g id="text_5">
      <!-- 2023-07 -->
      <g style="fill: #a9a9a9" transform="translate(433.528938 334.998438) scale(0.1 -0.1)">
       <use xlink:href="#DejaVuSans-32"/>
       <use xlink:href="#DejaVuSans-30" transform="translate(63.623047 0)"/>
       <use xlink:href="#DejaVuSans-32" transform="translate(127.246094 0)"/>
       <use xlink:href="#DejaVuSans-33" transform="translate(190.869141 0)"/>
       <use xlink:href="#DejaVuSans-2d" transform="translate(254.492188 0)"/>
       <use xlink:href="#DejaVuSans-30" transform="translate(290.576172 0)"/>
       <use xlink:href="#DejaVuSans-37" transform="translate(354.199219 0)"/>
      </g>
     </g>
    </g>
    <g id="xtick_6">
     <g id="line2d_11">
      <path d="M 536.656628 320.4 
L 536.656628 43.2 
" clip-path="url(#p8f98b09cdc)" style="fill: none; stroke-dasharray: 5.12,1.28,0.8,1.28; stroke-dashoffset: 0; stroke: #b0b0b0; stroke-width: 0.8"/>
     </g>
     <g id="line2d_12">
      <g>
       <use xlink:href="#mf0fb58db28" x="536.656628" y="320.4" style="fill: #a9a9a9; stroke: #a9a9a9; stroke-width: 0.8"/>
      </g>
     </g>
     <g id="text_6">
      <!-- 2024-01 -->
      <g style="fill: #a9a9a9" transform="translate(515.765222 334.998438) scale(0.1 -0.1)">
       <defs>
        <path id="DejaVuSans-34" d="M 2419 4116 
L 825 1625 
L 2419 1625 
L 2419 4116 
z
M 2253 4666 
L 3047 4666 
L 3047 1625 
L 3713 1625 
L 3713 1100 
L 3047 1100 
L 3047 0 
L 2419 0 
L 2419 1100 
L 313 1100 
L 313 1709 
L 2253 4666 
z
" transform="scale(0.015625)"/>
       </defs>
       <use xlink:href="#DejaVuSans-32"/>
       <use xlink:href="#DejaVuSans-30" transform="translate(63.623047 0)"/>
       <use xlink:href="#DejaVuSans-32" transform="translate(127.246094 0)"/>
       <use xlink:href="#DejaVuSans-34" transform="translate(190.869141 0)"/>
       <use xlink:href="#DejaVuSans-2d" transform="translate(254.492188 0)"/>
       <use xlink:href="#DejaVuSans-30" transform="translate(290.576172 0)"/>
       <use xlink:href="#DejaVuSans-31" transform="translate(354.199219 0)"/>
      </g>
     </g>
    </g>
    <g id="xtick_7">
     <g id="line2d_13">
      <path d="M 617.999039 320.4 
L 617.999039 43.2 
" clip-path="url(#p8f98b09cdc)" style="fill: none; stroke-dasharray: 5.12,1.28,0.8,1.28; stroke-dashoffset: 0; stroke: #b0b0b0; stroke-width: 0.8"/>
     </g>
     <g id="line2d_14">
      <g>
       <use xlink:href="#mf0fb58db28" x="617.999039" y="320.4" style="fill: #a9a9a9; stroke: #a9a9a9; stroke-width: 0.8"/>
      </g>
     </g>
     <g id="text_7">
      <!-- 2024-07 -->
      <g style="fill: #a9a9a9" transform="translate(597.107633 334.998438) scale(0.1 -0.1)">
       <use xlink:href="#DejaVuSans-32"/>
       <use xlink:href="#DejaVuSans-30" transform="translate(63.623047 0)"/>
       <use xlink:href="#DejaVuSans-32" transform="translate(127.246094 0)"/>
       <use xlink:href="#DejaVuSans-34" transform="translate(190.869141 0)"/>
       <use xlink:href="#DejaVuSans-2d" transform="translate(254.492188 0)"/>
       <use xlink:href="#DejaVuSans-30" transform="translate(290.576172 0)"/>
       <use xlink:href="#DejaVuSans-37" transform="translate(354.199219 0)"/>
      </g>
     </g>
    </g>
    <g id="xtick_8">
     <g id="line2d_15">
      <path d="M 700.235322 320.4 
L 700.235322 43.2 
" clip-path="url(#p8f98b09cdc)" style="fill: none; stroke-dasharray: 5.12,1.28,0.8,1.28; stroke-dashoffset: 0; stroke: #b0b0b0; stroke-width: 0.8"/>
     </g>
     <g id="line2d_16">
      <g>
       <use xlink:href="#mf0fb58db28" x="700.235322" y="320.4" style="fill: #a9a9a9; stroke: #a9a9a9; stroke-width: 0.8"/>
      </g>
     </g>
     <g id="text_8">
      <!-- 2025-01 -->
      <g style="fill: #a9a9a9" transform="translate(679.343916 334.998438) scale(0.1 -0.1)">
       <defs>
        <path id="DejaVuSans-35" d="M 691 4666 
L 3169 4666 
L 3169 4134 
L 1269 4134 
L 1269 2991 
Q 1406 3038 1543 3061 
Q 1681 3084 1819 3084 
Q 2600 3084 3056 2656 
Q 3513 2228 3513 1497 
Q 3513 744 3044 326 
Q 2575 -91 1722 -91 
Q 1428 -91 1123 -41 
Q 819 9 494 109 
L 494 744 
Q 775 591 1075 516 
Q 1375 441 1709 441 
Q 2250 441 2565 725 
Q 2881 1009 2881 1497 
Q 2881 1984 2565 2268 
Q 2250 2553 1709 2553 
Q 1456 2553 1204 2497 
Q 953 2441 691 2322 
L 691 4666 
z
" transform="scale(0.015625)"/>
       </defs>
       <use xlink:href="#DejaVuSans-32"/>
       <use xlink:href="#DejaVuSans-30" transform="translate(63.623047 0)"/>
       <use xlink:href="#DejaVuSans-32" transform="translate(127.246094 0)"/>
       <use xlink:href="#DejaVuSans-35" transform="translate(190.869141 0)"/>
       <use xlink:href="#DejaVuSans-2d" transform="translate(254.492188 0)"/>
       <use xlink:href="#DejaVuSans-30" transform="translate(290.576172 0)"/>
       <use xlink:href="#DejaVuSans-31" transform="translate(354.199219 0)"/>
      </g>
     </g>
    </g>
   </g>
   <g id="matplotlib.axis_2">
    <g id="ytick_1">
     <g id="line2d_17">
      <path d="M 108 307.833471 
L 777.6 307.833471 
" clip-path="url(#p8f98b09cdc)" style="fill: none; stroke-dasharray: 5.12,1.28,0.8,1.28; stroke-dashoffset: 0; stroke: #b0b0b0; stroke-width: 0.8"/>
     </g>
     <g id="line2d_18">
      <defs>
       <path id="mf7b19c288e" d="M 0 0 
L -3.5 0 
" style="stroke: #a9a9a9; stroke-width: 0.8"/>
      </defs>
      <g>
       <use xlink:href="#mf7b19c288e" x="108" y="307.833471" style="fill: #a9a9a9; stroke: #a9a9a9; stroke-width: 0.8"/>
      </g>
     </g>
     <g id="text_9">
      <!-- 0 -->
      <g style="fill: #a9a9a9" transform="translate(94.6375 311.632689) scale(0.1 -0.1)">
       <use xlink:href="#DejaVuSans-30"/>
      </g>
     </g>
    </g>
    <g id="ytick_2">
     <g id="line2d_19">
      <path d="M 108 274.36289 
L 777.6 274.36289 
" clip-path="url(#p8f98b09cdc)" style="fill: none; stroke-dasharray: 5.12,1.28,0.8,1.28; stroke-dashoffset: 0; stroke: #b0b0b0; stroke-width: 0.8"/>
     </g>
     <g id="line2d_20">
      <g>
       <use xlink:href="#mf7b19c288e" x="108" y="274.36289" style="fill: #a9a9a9; stroke: #a9a9a9; stroke-width: 0.8"/>
      </g>
     </g>
     <g id="text_10">
      <!-- 1000 -->
      <g style="fill: #a9a9a9" transform="translate(75.55 278.162109) scale(0.1 -0.1)">
       <use xlink:href="#DejaVuSans-31"/>
       <use xlink:href="#DejaVuSans-30" transform="translate(63.623047 0)"/>
       <use xlink:href="#DejaVuSans-30" transform="translate(127.246094 0)"/>
       <use xlink:href="#DejaVuSans-30" transform="translate(190.869141 0)"/>
      </g>
     </g>
    </g>
    <g id="ytick_3">
     <g id="line2d_21">
      <path d="M 108 240.89231 
L 777.6 240.89231 
" clip-path="url(#p8f98b09cdc)" style="fill: none; stroke-dasharray: 5.12,1.28,0.8,1.28; stroke-dashoffset: 0; stroke: #b0b0b0; stroke-width: 0.8"/>
     </g>
     <g id="line2d_22">
      <g>
       <use xlink:href="#mf7b19c288e" x="108" y="240.89231" style="fill: #a9a9a9; stroke: #a9a9a9; stroke-width: 0.8"/>
      </g>
     </g>
     <g id="text_11">
      <!-- 2000 -->
      <g style="fill: #a9a9a9" transform="translate(75.55 244.691528) scale(0.1 -0.1)">
       <use xlink:href="#DejaVuSans-32"/>
       <use xlink:href="#DejaVuSans-30" transform="translate(63.623047 0)"/>
       <use xlink:href="#DejaVuSans-30" transform="translate(127.246094 0)"/>
       <use xlink:href="#DejaVuSans-30" transform="translate(190.869141 0)"/>
      </g>
     </g>
    </g>
    <g id="ytick_4">
     <g id="line2d_23">
      <path d="M 108 207.421729 
L 777.6 207.421729 
" clip-path="url(#p8f98b09cdc)" style="fill: none; stroke-dasharray: 5.12,1.28,0.8,1.28; stroke-dashoffset: 0; stroke: #b0b0b0; stroke-width: 0.8"/>
     </g>
     <g id="line2d_24">
      <g>
       <use xlink:href="#mf7b19c288e" x="108" y="207.421729" style="fill: #a9a9a9; stroke: #a9a9a9; stroke-width: 0.8"/>
      </g>
     </g>
     <g id="text_12">
      <!-- 3000 -->
      <g style="fill: #a9a9a9" transform="translate(75.55 211.220948) scale(0.1 -0.1)">
       <use xlink:href="#DejaVuSans-33"/>
       <use xlink:href="#DejaVuSans-30" transform="translate(63.623047 0)"/>
       <use xlink:href="#DejaVuSans-30" transform="translate(127.246094 0)"/>
       <use xlink:href="#DejaVuSans-30" transform="translate(190.869141 0)"/>
      </g>
     </g>
    </g>
    <g id="ytick_5">
     <g id="line2d_25">
      <path d="M 108 173.951149 
L 777.6 173.951149 
" clip-path="url(#p8f98b09cdc)" style="fill: none; stroke-dasharray: 5.12,1.28,0.8,1.28; stroke-dashoffset: 0; stroke: #b0b0b0; stroke-width: 0.8"/>
     </g>
     <g id="line2d_26">
      <g>
       <use xlink:href="#mf7b19c288e" x="108" y="173.951149" style="fill: #a9a9a9; stroke: #a9a9a9; stroke-width: 0.8"/>
      </g>
     </g>
     <g id="text_13">
      <!-- 4000 -->
      <g style="fill: #a9a9a9" transform="translate(75.55 177.750368) scale(0.1 -0.1)">
       <use xlink:href="#DejaVuSans-34"/>
       <use xlink:href="#DejaVuSans-30" transform="translate(63.623047 0)"/>
       <use xlink:href="#DejaVuSans-30" transform="translate(127.246094 0)"/>
       <use xlink:href="#DejaVuSans-30" transform="translate(190.869141 0)"/>
      </g>
     </g>
    </g>
    <g id="ytick_6">
     <g id="line2d_27">
      <path d="M 108 140.480568 
L 777.6 140.480568 
" clip-path="url(#p8f98b09cdc)" style="fill: none; stroke-dasharray: 5.12,1.28,0.8,1.28; stroke-dashoffset: 0; stroke: #b0b0b0; stroke-width: 0.8"/>
     </g>
     <g id="line2d_28">
      <g>
       <use xlink:href="#mf7b19c288e" x="108" y="140.480568" style="fill: #a9a9a9; stroke: #a9a9a9; stroke-width: 0.8"/>
      </g>
     </g>
     <g id="text_14">
      <!-- 5000 -->
      <g style="fill: #a9a9a9" transform="translate(75.55 144.279787) scale(0.1 -0.1)">
       <use xlink:href="#DejaVuSans-35"/>
       <use xlink:href="#DejaVuSans-30" transform="translate(63.623047 0)"/>
       <use xlink:href="#DejaVuSans-30" transform="translate(127.246094 0)"/>
       <use xlink:href="#DejaVuSans-30" transform="translate(190.869141 0)"/>
      </g>
     </g>
    </g>
    <g id="ytick_7">
     <g id="line2d_29">
      <path d="M 108 107.009988 
L 777.6 107.009988 
" clip-path="url(#p8f98b09cdc)" style="fill: none; stroke-dasharray: 5.12,1.28,0.8,1.28; stroke-dashoffset: 0; stroke: #b0b0b0; stroke-width: 0.8"/>
     </g>
     <g id="line2d_30">
      <g>
       <use xlink:href="#mf7b19c288e" x="108" y="107.009988" style="fill: #a9a9a9; stroke: #a9a9a9; stroke-width: 0.8"/>
      </g>
     </g>
     <g id="text_15">
      <!-- 6000 -->
      <g style="fill: #a9a9a9" transform="translate(75.55 110.809207) scale(0.1 -0.1)">
       <defs>
        <path id="DejaVuSans-36" d="M 2113 2584 
Q 1688 2584 1439 2293 
Q 1191 2003 1191 1497 
Q 1191 994 1439 701 
Q 1688 409 2113 409 
Q 2538 409 2786 701 
Q 3034 994 3034 1497 
Q 3034 2003 2786 2293 
Q 2538 2584 2113 2584 
z
M 3366 4563 
L 3366 3988 
Q 3128 4100 2886 4159 
Q 2644 4219 2406 4219 
Q 1781 4219 1451 3797 
Q 1122 3375 1075 2522 
Q 1259 2794 1537 2939 
Q 1816 3084 2150 3084 
Q 2853 3084 3261 2657 
Q 3669 2231 3669 1497 
Q 3669 778 3244 343 
Q 2819 -91 2113 -91 
Q 1303 -91 875 529 
Q 447 1150 447 2328 
Q 447 3434 972 4092 
Q 1497 4750 2381 4750 
Q 2619 4750 2861 4703 
Q 3103 4656 3366 4563 
z
" transform="scale(0.015625)"/>
       </defs>
       <use xlink:href="#DejaVuSans-36"/>
       <use xlink:href="#DejaVuSans-30" transform="translate(63.623047 0)"/>
       <use xlink:href="#DejaVuSans-30" transform="translate(127.246094 0)"/>
       <use xlink:href="#DejaVuSans-30" transform="translate(190.869141 0)"/>
      </g>
     </g>
    </g>
    <g id="ytick_8">
     <g id="line2d_31">
      <path d="M 108 73.539408 
L 777.6 73.539408 
" clip-path="url(#p8f98b09cdc)" style="fill: none; stroke-dasharray: 5.12,1.28,0.8,1.28; stroke-dashoffset: 0; stroke: #b0b0b0; stroke-width: 0.8"/>
     </g>
     <g id="line2d_32">
      <g>
       <use xlink:href="#mf7b19c288e" x="108" y="73.539408" style="fill: #a9a9a9; stroke: #a9a9a9; stroke-width: 0.8"/>
      </g>
     </g>
     <g id="text_16">
      <!-- 7000 -->
      <g style="fill: #a9a9a9" transform="translate(75.55 77.338626) scale(0.1 -0.1)">
       <use xlink:href="#DejaVuSans-37"/>
       <use xlink:href="#DejaVuSans-30" transform="translate(63.623047 0)"/>
       <use xlink:href="#DejaVuSans-30" transform="translate(127.246094 0)"/>
       <use xlink:href="#DejaVuSans-30" transform="translate(190.869141 0)"/>
      </g>
     </g>
    </g>
   </g>
   <g id="line2d_33">
    <path d="M 138.436364 307.733059 
L 141.117982 307.498765 
L 141.564918 307.297941 
L 143.352663 307.063647 
L 145.140408 306.695471 
L 146.034281 306.561589 
L 148.268963 306.360765 
L 149.162835 305.992589 
L 149.609772 305.390118 
L 150.056708 305.088883 
L 150.503644 304.084766 
L 150.950581 304.017824 
L 151.397517 303.649648 
L 152.29139 303.18106 
L 154.079135 301.708354 
L 155.86688 300.804649 
L 157.207689 300.168708 
L 157.654626 299.432355 
L 158.548498 298.762943 
L 158.995435 298.56212 
L 163.464798 297.892708 
L 163.911734 297.691885 
L 167.040288 297.42412 
L 168.828034 296.989003 
L 172.403524 296.486944 
L 172.850461 296.25265 
L 173.297397 296.185709 
L 174.19127 295.884473 
L 177.319824 295.348944 
L 178.213696 295.081179 
L 182.236123 294.378297 
L 183.129996 294.177474 
L 184.023869 294.144003 
L 185.811614 293.708886 
L 186.25855 293.072945 
L 187.599359 292.537415 
L 188.940168 292.169239 
L 189.387105 291.934945 
L 190.280977 291.767592 
L 192.068722 291.232063 
L 192.962595 291.165122 
L 193.856468 290.930827 
L 195.644213 290.462239 
L 196.091149 290.428769 
L 196.985022 289.993651 
L 197.431958 289.92671 
L 197.878895 289.692416 
L 202.795194 288.855651 
L 204.58294 288.320122 
L 205.029876 288.018887 
L 207.264557 287.282534 
L 208.15843 286.646593 
L 209.499239 286.378829 
L 219.331838 283.466888 
L 219.778775 283.433417 
L 221.119584 283.03177 
L 221.56652 283.03177 
L 222.013456 282.830947 
L 222.907329 282.730535 
L 223.354265 282.563182 
L 225.14201 282.496241 
L 226.035883 282.328888 
L 226.929756 281.8603 
L 228.270565 281.358241 
L 229.164437 280.889653 
L 230.05831 280.421065 
L 230.952183 280.11983 
L 231.399119 279.985948 
L 232.292992 279.416948 
L 232.739928 278.914889 
L 233.633801 277.509125 
L 234.080737 277.375242 
L 234.527673 277.375242 
L 235.868482 276.571948 
L 236.315419 276.337654 
L 236.762355 276.237243 
L 237.209291 275.802125 
L 238.103164 275.433949 
L 238.997036 274.998831 
L 241.231718 272.086891 
L 243.913336 270.614185 
L 244.807209 269.877832 
L 245.254145 269.576597 
L 245.701081 268.940656 
L 246.148018 267.903068 
L 246.594954 267.200186 
L 247.04189 266.83201 
L 247.488827 266.631186 
L 251.064317 263.284128 
L 251.95819 262.447364 
L 254.639808 260.740364 
L 255.086744 260.573011 
L 256.874489 259.501952 
L 257.321426 259.301129 
L 259.556107 257.225953 
L 260.44998 256.857777 
L 261.343853 256.221836 
L 261.790789 255.954071 
L 262.237725 255.88713 
L 263.578534 255.117306 
L 264.025471 254.615248 
L 266.260152 253.376836 
L 266.707089 253.209483 
L 268.047897 252.272307 
L 274.751942 249.862425 
L 275.645815 249.025661 
L 276.986624 248.356249 
L 277.880497 247.787249 
L 278.774369 247.519485 
L 279.221306 247.218249 
L 279.668242 247.084367 
L 281.009051 246.180661 
L 283.243732 245.678603 
L 284.584541 244.875309 
L 285.92535 244.574074 
L 286.372287 244.473662 
L 287.713096 243.436074 
L 289.500841 242.934015 
L 289.947777 242.565839 
L 292.629395 241.628663 
L 293.523268 241.46131 
L 294.417141 241.093133 
L 297.545695 239.921663 
L 298.439567 239.787781 
L 299.780376 239.319192 
L 302.015058 238.214663 
L 303.802803 237.210546 
L 307.378294 235.70437 
L 307.82523 235.637429 
L 308.719103 235.068429 
L 309.612976 234.834135 
L 310.953785 234.298605 
L 312.74153 234.064311 
L 313.635402 233.595723 
L 314.082339 233.194076 
L 314.529275 232.390782 
L 316.31702 231.888724 
L 317.657829 231.185841 
L 318.551702 230.884606 
L 319.445575 230.416018 
L 322.127193 229.311489 
L 323.021065 229.110665 
L 323.914938 228.642077 
L 324.361874 228.441254 
L 324.808811 228.374313 
L 327.043492 227.269784 
L 327.937365 226.700784 
L 329.278174 226.433019 
L 331.512855 225.864019 
L 331.959792 225.495843 
L 332.853664 225.194608 
L 335.088346 224.290902 
L 335.535282 223.956196 
L 335.982219 223.788843 
L 336.876091 223.286784 
L 338.663837 222.717785 
L 339.557709 222.148785 
L 340.004646 221.680197 
L 340.451582 221.412432 
L 340.898518 221.31202 
L 341.792391 220.575667 
L 342.239327 220.508726 
L 342.686264 219.772373 
L 343.1332 219.57155 
L 343.580136 219.203374 
L 344.027072 219.136432 
L 344.920945 218.567433 
L 345.814818 218.266197 
L 346.261754 217.931492 
L 346.70869 217.764139 
L 348.496436 216.559198 
L 349.837245 215.856316 
L 350.731117 215.622022 
L 351.62499 215.119963 
L 352.071926 214.350139 
L 352.965799 213.680728 
L 353.412735 213.580316 
L 356.094353 212.274963 
L 356.988226 211.906787 
L 357.882099 211.270846 
L 358.775971 210.36714 
L 362.798398 207.220906 
L 363.245334 206.852729 
L 364.139207 206.551494 
L 365.03308 205.949024 
L 366.373889 205.246142 
L 366.820825 205.1792 
L 368.161634 204.442848 
L 369.055507 203.873848 
L 373.52487 202.200319 
L 373.971806 201.832142 
L 375.759551 201.12926 
L 376.206488 200.995378 
L 377.10036 200.392907 
L 377.994233 200.024731 
L 378.888106 199.38879 
L 379.781978 197.581379 
L 380.675851 196.51032 
L 382.01666 195.807438 
L 382.910533 195.439262 
L 383.357469 195.37232 
L 383.804405 195.104556 
L 386.039087 194.368203 
L 386.486023 194.167379 
L 387.379896 193.564909 
L 388.720705 192.995909 
L 389.614577 192.49385 
L 390.50845 191.958321 
L 390.955386 191.657086 
L 391.402323 191.155027 
L 392.743132 190.385204 
L 393.190068 190.217851 
L 394.083941 189.682322 
L 395.871686 188.678204 
L 396.318622 188.577793 
L 396.765559 188.209616 
L 399.894113 187.172028 
L 400.341049 186.837322 
L 401.234922 186.569558 
L 402.128795 186.201381 
L 402.575731 185.833205 
L 404.363476 185.197264 
L 405.257349 184.561323 
L 406.151221 184.193147 
L 407.045094 183.490264 
L 407.938967 183.2225 
L 408.385903 182.820853 
L 408.832839 182.753912 
L 409.726712 182.051029 
L 410.620585 181.582441 
L 411.067521 181.381618 
L 411.514457 180.91303 
L 414.643012 179.641148 
L 415.536884 179.239501 
L 416.877693 178.804383 
L 417.771566 178.670501 
L 418.218502 178.469677 
L 418.665439 178.402736 
L 419.559311 178.001089 
L 420.006247 177.967619 
L 421.793993 177.298207 
L 423.134802 176.32756 
L 423.581738 176.160207 
L 424.475611 175.658148 
L 424.922547 175.524266 
L 427.604165 173.984619 
L 428.051101 173.884208 
L 429.39191 173.080914 
L 430.732719 172.612326 
L 431.626592 172.31109 
L 433.414337 171.70862 
L 434.30821 171.407385 
L 436.095955 171.039208 
L 436.542891 170.838385 
L 437.436764 170.604091 
L 437.8837 170.403267 
L 438.330637 170.336326 
L 438.777573 170.102032 
L 439.671446 169.934679 
L 441.012255 169.432621 
L 441.906127 169.332209 
L 443.246936 169.030974 
L 445.481618 168.629327 
L 457.101962 165.148386 
L 457.548899 164.679798 
L 458.442771 164.311622 
L 462.018262 162.939328 
L 462.465198 162.671563 
L 463.806007 162.269916 
L 464.69988 162.035622 
L 465.146816 161.734387 
L 465.593753 161.633975 
L 466.040689 161.232328 
L 467.381498 160.964564 
L 468.27537 160.529446 
L 468.722307 159.993917 
L 470.510052 159.558799 
L 473.638606 158.889388 
L 474.085543 158.889388 
L 474.532479 158.688564 
L 476.320224 158.353858 
L 476.767161 158.153035 
L 478.554906 157.818329 
L 479.448779 157.450153 
L 480.342651 157.2828 
L 482.577333 156.7138 
L 484.365078 156.1448 
L 484.812014 156.044388 
L 485.258951 155.810094 
L 486.152823 155.5758 
L 487.046696 155.207624 
L 487.940569 154.872918 
L 488.387505 154.571683 
L 489.281378 154.303918 
L 492.409932 153.132448 
L 494.197677 152.898154 
L 497.773168 151.592801 
L 498.220104 151.258095 
L 498.66704 151.157684 
L 499.113977 150.92339 
L 499.560913 150.889919 
L 504.477213 149.115978 
L 506.711894 148.513508 
L 507.605767 148.07839 
L 508.946576 147.777155 
L 510.734321 146.304449 
L 512.522066 145.534626 
L 513.415939 145.132979 
L 516.097557 144.095391 
L 516.544493 143.794156 
L 518.779175 143.057803 
L 520.119984 142.28798 
L 520.56692 142.187568 
L 522.354666 141.183451 
L 524.142411 140.380157 
L 524.589347 140.045451 
L 525.48322 139.744216 
L 527.717901 138.606216 
L 529.05871 138.137628 
L 530.846456 137.401275 
L 532.187265 136.899216 
L 532.634201 136.731863 
L 533.528074 136.597981 
L 533.97501 136.296746 
L 535.762755 135.92857 
L 536.656628 135.560393 
L 538.444373 134.723629 
L 544.701482 131.979041 
L 546.042291 131.543923 
L 546.489227 131.242688 
L 547.3831 131.142277 
L 547.830036 130.841041 
L 548.723909 130.673688 
L 549.617781 130.238571 
L 550.064718 130.037747 
L 550.95859 129.803453 
L 551.852463 129.535689 
L 553.193272 129.03363 
L 554.534081 128.598512 
L 555.87489 128.297277 
L 557.662635 127.560924 
L 558.556508 127.058866 
L 560.344253 126.15516 
L 561.238126 125.954337 
L 561.685062 125.686572 
L 562.131998 125.58616 
L 563.472807 124.816337 
L 564.36668 124.44816 
L 566.154425 123.745278 
L 568.389107 122.975455 
L 569.28298 122.506867 
L 571.517661 121.737043 
L 574.199279 120.632514 
L 575.987024 119.79575 
L 580.456388 118.05528 
L 581.35026 117.620162 
L 581.797197 117.51975 
L 582.244133 117.285456 
L 584.031878 116.783398 
L 585.819624 115.310692 
L 586.26656 115.17681 
L 586.713496 114.909045 
L 588.054305 114.540869 
L 588.501241 114.206163 
L 588.948178 114.105751 
L 589.84205 113.536751 
L 591.182859 112.833869 
L 592.076732 112.465693 
L 592.523668 112.231399 
L 593.864477 111.930163 
L 596.099159 111.16034 
L 596.993032 110.859105 
L 598.333841 110.156223 
L 599.227713 109.721105 
L 600.121586 109.486811 
L 601.462395 108.85087 
L 605.484822 107.344694 
L 606.825631 106.507929 
L 607.272567 106.407518 
L 608.16644 105.9724 
L 609.060312 105.637694 
L 609.507249 105.236047 
L 610.401121 104.867871 
L 611.74193 104.399283 
L 612.188867 104.031106 
L 612.635803 103.997636 
L 613.529676 103.729871 
L 614.423548 103.428636 
L 614.870485 103.227812 
L 615.317421 103.160871 
L 616.65823 102.658813 
L 617.999039 102.156754 
L 619.786784 101.35346 
L 620.23372 101.286519 
L 623.809211 99.780343 
L 625.15002 99.345225 
L 626.043893 99.278284 
L 626.937765 98.910108 
L 629.619383 98.106814 
L 630.513256 98.073343 
L 634.088746 96.901873 
L 634.982619 96.433285 
L 635.429555 96.031638 
L 636.770364 95.228344 
L 637.217301 94.893638 
L 638.55811 94.45852 
L 639.451982 94.190756 
L 639.898919 93.956462 
L 640.345855 93.85605 
L 640.792791 93.487874 
L 643.474409 92.349874 
L 645.262155 91.881286 
L 646.156027 91.479639 
L 646.602964 91.245345 
L 647.496836 90.97758 
L 647.943773 90.709815 
L 648.837645 90.542462 
L 652.413136 89.002816 
L 652.860072 88.935875 
L 654.200881 88.06564 
L 654.647817 87.998698 
L 656.435563 87.295816 
L 658.223308 86.860699 
L 658.670244 86.793757 
L 659.117181 86.592934 
L 659.564117 86.559463 
L 660.45799 86.258228 
L 660.904926 86.224758 
L 662.245735 85.689228 
L 664.03348 85.153699 
L 664.927353 84.484287 
L 666.715098 83.48017 
L 668.055907 83.011582 
L 671.631398 81.304582 
L 672.078334 81.070288 
L 672.52527 80.668641 
L 674.759952 80.066171 
L 676.100761 79.4637 
L 676.994634 79.229406 
L 677.44157 78.995112 
L 677.888506 78.626936 
L 679.676252 78.158348 
L 680.123188 77.823642 
L 685.93336 75.714995 
L 686.827233 75.547642 
L 689.061914 74.84476 
L 689.955787 74.476584 
L 690.84966 74.141878 
L 691.743532 73.907584 
L 692.190469 73.706761 
L 692.637405 73.706761 
L 693.531278 73.338584 
L 694.42515 72.803055 
L 697.553704 71.765467 
L 699.34145 71.162996 
L 700.682259 70.861761 
L 702.023068 70.426644 
L 702.470004 70.326232 
L 702.91694 70.024997 
L 703.810813 69.824173 
L 712.749539 67.246939 
L 714.984221 66.845292 
L 715.878094 66.410174 
L 716.771966 65.975056 
L 718.112775 65.573409 
L 722.582139 63.933351 
L 723.029075 63.598645 
L 724.369884 63.29741 
L 725.263757 63.029645 
L 726.157629 62.594528 
L 726.604565 62.192881 
L 727.498438 61.891646 
L 727.945374 61.623881 
L 728.839247 61.523469 
L 731.967801 60.653234 
L 733.30861 60.38547 
L 735.990228 59.515234 
L 737.777974 58.644999 
L 743.141209 56.737176 
L 745.375891 56.201647 
L 746.269764 55.900412 
L 747.163636 55.8 
L 747.163636 55.8 
" clip-path="url(#p8f98b09cdc)" style="fill: none; stroke: #1f77b4; stroke-width: 1.5; stroke-linecap: square"/>
   </g>
   <g id="line2d_34">
    <path d="M 138.8833 307.8 
L 142.905727 307.699588 
L 146.481217 307.532235 
L 148.268963 307.532235 
L 148.715899 307.398353 
L 150.950581 307.297941 
L 153.632199 306.996706 
L 156.313817 306.896294 
L 157.207689 306.795883 
L 160.336243 306.662 
L 163.464798 306.561589 
L 165.699479 306.494647 
L 171.509652 306.394236 
L 173.744333 306.327294 
L 177.76676 306.226883 
L 179.554505 306.193412 
L 184.023869 306.093 
L 185.811614 305.925647 
L 187.599359 305.892177 
L 190.280977 305.791765 
L 192.068722 305.758295 
L 194.303404 305.691353 
L 196.091149 305.524001 
L 200.113576 305.423589 
L 201.007449 305.356648 
L 202.795194 305.256236 
L 205.476812 305.155824 
L 207.264557 305.055412 
L 215.309411 304.553354 
L 218.437966 304.452942 
L 219.778775 304.31906 
L 222.013456 304.218648 
L 226.482819 303.984354 
L 230.952183 303.917413 
L 232.739928 303.716589 
L 234.527673 303.616177 
L 239.443973 303.147589 
L 242.572527 302.779413 
L 243.913336 302.712472 
L 247.488827 302.243884 
L 250.170445 302.176942 
L 251.511254 302.04306 
L 252.852062 301.942648 
L 265.36628 300.972002 
L 266.260152 300.804649 
L 268.94177 300.704237 
L 276.092751 300.269119 
L 279.221306 300.168708 
L 281.009051 299.967884 
L 283.243732 299.867472 
L 285.92535 299.767061 
L 288.160032 299.666649 
L 289.947777 299.633178 
L 292.182459 299.566237 
L 293.076332 299.432355 
L 299.33344 299.331943 
L 300.227313 299.231531 
L 305.590549 299.13112 
L 309.612976 298.930296 
L 312.74153 298.829884 
L 314.529275 298.629061 
L 317.657829 298.528649 
L 318.551702 298.361296 
L 320.786384 298.294355 
L 325.255747 298.227414 
L 327.043492 298.060061 
L 328.831237 298.026591 
L 330.172046 297.926179 
L 331.959792 297.758826 
L 336.429155 297.524532 
L 340.898518 297.42412 
L 344.920945 297.223297 
L 346.261754 297.189826 
L 347.155627 297.055944 
L 349.390308 296.955532 
L 350.284181 296.888591 
L 351.178054 296.82165 
L 352.071926 296.754708 
L 356.094353 296.687767 
L 357.435162 296.587356 
L 369.502443 295.784062 
L 371.737125 295.68365 
L 373.971806 295.616709 
L 380.228915 295.516297 
L 381.122787 295.382415 
L 387.379896 295.282003 
L 391.849259 295.047709 
L 392.743132 295.014238 
L 393.637004 294.913827 
L 395.871686 294.813415 
L 398.106368 294.746474 
L 400.341049 294.646062 
L 402.575731 294.579121 
L 406.598158 294.478709 
L 409.279776 294.378297 
L 415.536884 294.277886 
L 420.453184 294.010121 
L 422.240929 293.94318 
L 423.581738 293.842768 
L 429.838847 293.742356 
L 432.520465 293.641944 
L 440.565318 293.541533 
L 442.353064 293.508062 
L 447.7163 293.441121 
L 448.610172 293.37418 
L 454.867281 293.273768 
L 456.655026 293.240298 
L 468.27537 293.139886 
L 470.956988 293.039474 
L 489.728314 292.939062 
L 491.962996 292.872121 
L 503.58334 292.80518 
L 504.477213 292.738239 
L 506.711894 292.671298 
L 508.052703 292.537415 
L 510.734321 292.437004 
L 513.862875 292.303121 
L 517.885302 292.20271 
L 520.119984 292.135768 
L 523.248538 292.035357 
L 526.824029 291.868004 
L 529.05871 291.767592 
L 530.846456 291.734121 
L 534.868883 291.63371 
L 536.656628 291.600239 
L 542.4668 291.499827 
L 544.254545 291.466357 
L 546.489227 291.365945 
L 549.170845 291.265533 
L 552.299399 291.198592 
L 553.193272 291.131651 
L 563.919744 291.031239 
L 569.729916 290.696533 
L 571.964598 290.629592 
L 572.85847 290.529181 
L 573.752343 290.462239 
L 577.327833 290.361828 
L 580.009451 290.261416 
L 584.478815 290.161004 
L 586.713496 289.92671 
L 591.182859 289.826298 
L 592.076732 289.725887 
L 596.546095 289.625475 
L 598.780777 289.558534 
L 603.697076 289.525063 
L 604.590949 289.424651 
L 609.507249 289.32424 
L 610.401121 289.257298 
L 620.23372 289.156887 
L 622.915338 289.056475 
L 629.619383 288.956063 
L 631.407129 288.922593 
L 635.429555 288.855651 
L 636.323428 288.75524 
L 642.1336 288.654828 
L 644.368282 288.587887 
L 652.413136 288.487475 
L 653.753945 288.387063 
L 655.094754 288.286652 
L 656.435563 288.18624 
L 663.139608 288.085828 
L 665.821225 287.985416 
L 677.888506 287.885005 
L 681.910933 287.684181 
L 687.274169 287.583769 
L 688.168042 287.516828 
L 694.872087 287.449887 
L 695.765959 287.382946 
L 700.682259 287.282534 
L 702.470004 287.249064 
L 708.727113 287.148652 
L 711.40873 287.04824 
L 719.006648 286.947828 
L 720.794393 286.914358 
L 724.81682 286.813946 
L 728.392311 286.646593 
L 733.30861 286.546181 
L 736.437165 286.412299 
L 740.459592 286.311887 
L 741.353464 286.244946 
L 747.163636 286.178005 
L 747.163636 286.178005 
" clip-path="url(#p8f98b09cdc)" style="fill: none; stroke: #ff7f0e; stroke-width: 1.5; stroke-linecap: square"/>
   </g>
   <g id="patch_3">
    <path d="M 108 320.4 
L 108 43.2 
" style="fill: none; stroke: #a9a9a9; stroke-width: 0.8; stroke-linejoin: miter; stroke-linecap: square"/>
   </g>
   <g id="patch_4">
    <path d="M 777.6 320.4 
L 777.6 43.2 
" style="fill: none"/>
   </g>
   <g id="patch_5">
    <path d="M 108 320.4 
L 777.6 320.4 
" style="fill: none; stroke: #a9a9a9; stroke-width: 0.8; stroke-linejoin: miter; stroke-linecap: square"/>
   </g>
   <g id="patch_6">
    <path d="M 108 43.2 
L 777.6 43.2 
" style="fill: none"/>
   </g>
   <g id="text_17">
    <!-- get_subscribe history -->
    <g style="fill: #a9a9a9" transform="translate(378.6075 37.2) scale(0.12 -0.12)">
     <defs>
      <path id="DejaVuSans-67" d="M 2906 1791 
Q 2906 2416 2648 2759 
Q 2391 3103 1925 3103 
Q 1463 3103 1205 2759 
Q 947 2416 947 1791 
Q 947 1169 1205 825 
Q 1463 481 1925 481 
Q 2391 481 2648 825 
Q 2906 1169 2906 1791 
z
M 3481 434 
Q 3481 -459 3084 -895 
Q 2688 -1331 1869 -1331 
Q 1566 -1331 1297 -1286 
Q 1028 -1241 775 -1147 
L 775 -588 
Q 1028 -725 1275 -790 
Q 1522 -856 1778 -856 
Q 2344 -856 2625 -561 
Q 2906 -266 2906 331 
L 2906 616 
Q 2728 306 2450 153 
Q 2172 0 1784 0 
Q 1141 0 747 490 
Q 353 981 353 1791 
Q 353 2603 747 3093 
Q 1141 3584 1784 3584 
Q 2172 3584 2450 3431 
Q 2728 3278 2906 2969 
L 2906 3500 
L 3481 3500 
L 3481 434 
z
" transform="scale(0.015625)"/>
      <path id="DejaVuSans-65" d="M 3597 1894 
L 3597 1613 
L 953 1613 
Q 991 1019 1311 708 
Q 1631 397 2203 397 
Q 2534 397 2845 478 
Q 3156 559 3463 722 
L 3463 178 
Q 3153 47 2828 -22 
Q 2503 -91 2169 -91 
Q 1331 -91 842 396 
Q 353 884 353 1716 
Q 353 2575 817 3079 
Q 1281 3584 2069 3584 
Q 2775 3584 3186 3129 
Q 3597 2675 3597 1894 
z
M 3022 2063 
Q 3016 2534 2758 2815 
Q 2500 3097 2075 3097 
Q 1594 3097 1305 2825 
Q 1016 2553 972 2059 
L 3022 2063 
z
" transform="scale(0.015625)"/>
      <path id="DejaVuSans-74" d="M 1172 4494 
L 1172 3500 
L 2356 3500 
L 2356 3053 
L 1172 3053 
L 1172 1153 
Q 1172 725 1289 603 
Q 1406 481 1766 481 
L 2356 481 
L 2356 0 
L 1766 0 
Q 1100 0 847 248 
Q 594 497 594 1153 
L 594 3053 
L 172 3053 
L 172 3500 
L 594 3500 
L 594 4494 
L 1172 4494 
z
" transform="scale(0.015625)"/>
      <path id="DejaVuSans-5f" d="M 3263 -1063 
L 3263 -1509 
L -63 -1509 
L -63 -1063 
L 3263 -1063 
z
" transform="scale(0.015625)"/>
      <path id="DejaVuSans-73" d="M 2834 3397 
L 2834 2853 
Q 2591 2978 2328 3040 
Q 2066 3103 1784 3103 
Q 1356 3103 1142 2972 
Q 928 2841 928 2578 
Q 928 2378 1081 2264 
Q 1234 2150 1697 2047 
L 1894 2003 
Q 2506 1872 2764 1633 
Q 3022 1394 3022 966 
Q 3022 478 2636 193 
Q 2250 -91 1575 -91 
Q 1294 -91 989 -36 
Q 684 19 347 128 
L 347 722 
Q 666 556 975 473 
Q 1284 391 1588 391 
Q 1994 391 2212 530 
Q 2431 669 2431 922 
Q 2431 1156 2273 1281 
Q 2116 1406 1581 1522 
L 1381 1569 
Q 847 1681 609 1914 
Q 372 2147 372 2553 
Q 372 3047 722 3315 
Q 1072 3584 1716 3584 
Q 2034 3584 2315 3537 
Q 2597 3491 2834 3397 
z
" transform="scale(0.015625)"/>
      <path id="DejaVuSans-75" d="M 544 1381 
L 544 3500 
L 1119 3500 
L 1119 1403 
Q 1119 906 1312 657 
Q 1506 409 1894 409 
Q 2359 409 2629 706 
Q 2900 1003 2900 1516 
L 2900 3500 
L 3475 3500 
L 3475 0 
L 2900 0 
L 2900 538 
Q 2691 219 2414 64 
Q 2138 -91 1772 -91 
Q 1169 -91 856 284 
Q 544 659 544 1381 
z
M 1991 3584 
L 1991 3584 
z
" transform="scale(0.015625)"/>
      <path id="DejaVuSans-62" d="M 3116 1747 
Q 3116 2381 2855 2742 
Q 2594 3103 2138 3103 
Q 1681 3103 1420 2742 
Q 1159 2381 1159 1747 
Q 1159 1113 1420 752 
Q 1681 391 2138 391 
Q 2594 391 2855 752 
Q 3116 1113 3116 1747 
z
M 1159 2969 
Q 1341 3281 1617 3432 
Q 1894 3584 2278 3584 
Q 2916 3584 3314 3078 
Q 3713 2572 3713 1747 
Q 3713 922 3314 415 
Q 2916 -91 2278 -91 
Q 1894 -91 1617 61 
Q 1341 213 1159 525 
L 1159 0 
L 581 0 
L 581 4863 
L 1159 4863 
L 1159 2969 
z
" transform="scale(0.015625)"/>
      <path id="DejaVuSans-63" d="M 3122 3366 
L 3122 2828 
Q 2878 2963 2633 3030 
Q 2388 3097 2138 3097 
Q 1578 3097 1268 2742 
Q 959 2388 959 1747 
Q 959 1106 1268 751 
Q 1578 397 2138 397 
Q 2388 397 2633 464 
Q 2878 531 3122 666 
L 3122 134 
Q 2881 22 2623 -34 
Q 2366 -91 2075 -91 
Q 1284 -91 818 406 
Q 353 903 353 1747 
Q 353 2603 823 3093 
Q 1294 3584 2113 3584 
Q 2378 3584 2631 3529 
Q 2884 3475 3122 3366 
z
" transform="scale(0.015625)"/>
      <path id="DejaVuSans-72" d="M 2631 2963 
Q 2534 3019 2420 3045 
Q 2306 3072 2169 3072 
Q 1681 3072 1420 2755 
Q 1159 2438 1159 1844 
L 1159 0 
L 581 0 
L 581 3500 
L 1159 3500 
L 1159 2956 
Q 1341 3275 1631 3429 
Q 1922 3584 2338 3584 
Q 2397 3584 2469 3576 
Q 2541 3569 2628 3553 
L 2631 2963 
z
" transform="scale(0.015625)"/>
      <path id="DejaVuSans-69" d="M 603 3500 
L 1178 3500 
L 1178 0 
L 603 0 
L 603 3500 
z
M 603 4863 
L 1178 4863 
L 1178 4134 
L 603 4134 
L 603 4863 
z
" transform="scale(0.015625)"/>
      <path id="DejaVuSans-20" transform="scale(0.015625)"/>
      <path id="DejaVuSans-68" d="M 3513 2113 
L 3513 0 
L 2938 0 
L 2938 2094 
Q 2938 2591 2744 2837 
Q 2550 3084 2163 3084 
Q 1697 3084 1428 2787 
Q 1159 2491 1159 1978 
L 1159 0 
L 581 0 
L 581 4863 
L 1159 4863 
L 1159 2956 
Q 1366 3272 1645 3428 
Q 1925 3584 2291 3584 
Q 2894 3584 3203 3211 
Q 3513 2838 3513 2113 
z
" transform="scale(0.015625)"/>
      <path id="DejaVuSans-6f" d="M 1959 3097 
Q 1497 3097 1228 2736 
Q 959 2375 959 1747 
Q 959 1119 1226 758 
Q 1494 397 1959 397 
Q 2419 397 2687 759 
Q 2956 1122 2956 1747 
Q 2956 2369 2687 2733 
Q 2419 3097 1959 3097 
z
M 1959 3584 
Q 2709 3584 3137 3096 
Q 3566 2609 3566 1747 
Q 3566 888 3137 398 
Q 2709 -91 1959 -91 
Q 1206 -91 779 398 
Q 353 888 353 1747 
Q 353 2609 779 3096 
Q 1206 3584 1959 3584 
z
" transform="scale(0.015625)"/>
      <path id="DejaVuSans-79" d="M 2059 -325 
Q 1816 -950 1584 -1140 
Q 1353 -1331 966 -1331 
L 506 -1331 
L 506 -850 
L 844 -850 
Q 1081 -850 1212 -737 
Q 1344 -625 1503 -206 
L 1606 56 
L 191 3500 
L 800 3500 
L 1894 763 
L 2988 3500 
L 3597 3500 
L 2059 -325 
z
" transform="scale(0.015625)"/>
     </defs>
     <use xlink:href="#DejaVuSans-67"/>
     <use xlink:href="#DejaVuSans-65" transform="translate(63.476562 0)"/>
     <use xlink:href="#DejaVuSans-74" transform="translate(125 0)"/>
     <use xlink:href="#DejaVuSans-5f" transform="translate(164.208984 0)"/>
     <use xlink:href="#DejaVuSans-73" transform="translate(214.208984 0)"/>
     <use xlink:href="#DejaVuSans-75" transform="translate(266.308594 0)"/>
     <use xlink:href="#DejaVuSans-62" transform="translate(329.6875 0)"/>
     <use xlink:href="#DejaVuSans-73" transform="translate(393.164062 0)"/>
     <use xlink:href="#DejaVuSans-63" transform="translate(445.263672 0)"/>
     <use xlink:href="#DejaVuSans-72" transform="translate(500.244141 0)"/>
     <use xlink:href="#DejaVuSans-69" transform="translate(541.357422 0)"/>
     <use xlink:href="#DejaVuSans-62" transform="translate(569.140625 0)"/>
     <use xlink:href="#DejaVuSans-65" transform="translate(632.617188 0)"/>
     <use xlink:href="#DejaVuSans-20" transform="translate(694.140625 0)"/>
     <use xlink:href="#DejaVuSans-68" transform="translate(725.927734 0)"/>
     <use xlink:href="#DejaVuSans-69" transform="translate(789.306641 0)"/>
     <use xlink:href="#DejaVuSans-73" transform="translate(817.089844 0)"/>
     <use xlink:href="#DejaVuSans-74" transform="translate(869.189453 0)"/>
     <use xlink:href="#DejaVuSans-6f" transform="translate(908.398438 0)"/>
     <use xlink:href="#DejaVuSans-72" transform="translate(969.580078 0)"/>
     <use xlink:href="#DejaVuSans-79" transform="translate(1010.693359 0)"/>
    </g>
   </g>
   <g id="legend_1">
    <g id="line2d_35">
     <path d="M 815.08 328.498438 
L 825.08 328.498438 
L 835.08 328.498438 
" style="fill: none; stroke: #1f77b4; stroke-width: 1.5; stroke-linecap: square"/>
    </g>
    <g id="text_18">
     <!-- star -->
     <g style="fill: #a9a9a9" transform="translate(843.08 331.998438) scale(0.1 -0.1)">
      <defs>
       <path id="DejaVuSans-61" d="M 2194 1759 
Q 1497 1759 1228 1600 
Q 959 1441 959 1056 
Q 959 750 1161 570 
Q 1363 391 1709 391 
Q 2188 391 2477 730 
Q 2766 1069 2766 1631 
L 2766 1759 
L 2194 1759 
z
M 3341 1997 
L 3341 0 
L 2766 0 
L 2766 531 
Q 2569 213 2275 61 
Q 1981 -91 1556 -91 
Q 1019 -91 701 211 
Q 384 513 384 1019 
Q 384 1609 779 1909 
Q 1175 2209 1959 2209 
L 2766 2209 
L 2766 2266 
Q 2766 2663 2505 2880 
Q 2244 3097 1772 3097 
Q 1472 3097 1187 3025 
Q 903 2953 641 2809 
L 641 3341 
Q 956 3463 1253 3523 
Q 1550 3584 1831 3584 
Q 2591 3584 2966 3190 
Q 3341 2797 3341 1997 
z
" transform="scale(0.015625)"/>
      </defs>
      <use xlink:href="#DejaVuSans-73"/>
      <use xlink:href="#DejaVuSans-74" transform="translate(52.099609 0)"/>
      <use xlink:href="#DejaVuSans-61" transform="translate(91.308594 0)"/>
      <use xlink:href="#DejaVuSans-72" transform="translate(152.587891 0)"/>
     </g>
    </g>
    <g id="line2d_36">
     <path d="M 815.08 343.176562 
L 825.08 343.176562 
L 835.08 343.176562 
" style="fill: none; stroke: #ff7f0e; stroke-width: 1.5; stroke-linecap: square"/>
    </g>
    <g id="text_19">
     <!-- fork -->
     <g style="fill: #a9a9a9" transform="translate(843.08 346.676562) scale(0.1 -0.1)">
      <defs>
       <path id="DejaVuSans-66" d="M 2375 4863 
L 2375 4384 
L 1825 4384 
Q 1516 4384 1395 4259 
Q 1275 4134 1275 3809 
L 1275 3500 
L 2222 3500 
L 2222 3053 
L 1275 3053 
L 1275 0 
L 697 0 
L 697 3053 
L 147 3053 
L 147 3500 
L 697 3500 
L 697 3744 
Q 697 4328 969 4595 
Q 1241 4863 1831 4863 
L 2375 4863 
z
" transform="scale(0.015625)"/>
       <path id="DejaVuSans-6b" d="M 581 4863 
L 1159 4863 
L 1159 1991 
L 2875 3500 
L 3609 3500 
L 1753 1863 
L 3688 0 
L 2938 0 
L 1159 1709 
L 1159 0 
L 581 0 
L 581 4863 
z
" transform="scale(0.015625)"/>
      </defs>
      <use xlink:href="#DejaVuSans-66"/>
      <use xlink:href="#DejaVuSans-6f" transform="translate(35.205078 0)"/>
      <use xlink:href="#DejaVuSans-72" transform="translate(96.386719 0)"/>
      <use xlink:href="#DejaVuSans-6b" transform="translate(137.5 0)"/>
     </g>
    </g>
   </g>
  </g>
 </g>
 <defs>
  <clipPath id="p8f98b09cdc">
   <rect x="108" y="43.2" width="669.6" height="277.2"/>
  </clipPath>
 </defs>
</svg>
