<?xml version="1.0" encoding="utf-8" standalone="no"?>
<!DOCTYPE svg PUBLIC "-//W3C//DTD SVG 1.1//EN"
  "http://www.w3.org/Graphics/SVG/1.1/DTD/svg11.dtd">
<svg xmlns:xlink="http://www.w3.org/1999/xlink" width="864pt" height="360pt" viewBox="0 0 864 360" xmlns="http://www.w3.org/2000/svg" version="1.1">
 <metadata>
  <rdf:RDF xmlns:dc="http://purl.org/dc/elements/1.1/" xmlns:cc="http://creativecommons.org/ns#" xmlns:rdf="http://www.w3.org/1999/02/22-rdf-syntax-ns#">
   <cc:Work>
    <dc:type rdf:resource="http://purl.org/dc/dcmitype/StillImage"/>
    <dc:date>2026-03-09T20:12:38.011825</dc:date>
    <dc:format>image/svg+xml</dc:format>
    <dc:creator>
     <cc:Agent>
      <dc:title>Matplotlib v3.10.8, https://matplotlib.org/</dc:title>
     </cc:Agent>
    </dc:creator>
   </cc:Work>
  </rdf:RDF>
 </metadata>
 <defs>
  <style type="text/css">*{stroke-linejoin: round; stroke-linecap: butt}</style>
 </defs>
 <g id="figure_1">
  <g id="patch_1">
   <path d="M 0 360 
L 864 360 
L 864 0 
L 0 0 
L 0 360 
z
" style="fill: none; opacity: 0"/>
  </g>
  <g id="axes_1">
   <g id="patch_2">
    <path d="M 108 320.4 
L 777.6 320.4 
L 777.6 43.2 
L 108 43.2 
L 108 320.4 
z
" style="fill: none; opacity: 0"/>
   </g>
   <g id="matplotlib.axis_1">
    <g id="xtick_1">
     <g id="line2d_1">
      <path d="M 196.461876 320.4 
L 196.461876 43.2 
" clip-path="url(#p77aa863d73)" style="fill: none; stroke-dasharray: 5.12,1.28,0.8,1.28; stroke-dashoffset: 0; stroke: #b0b0b0; stroke-width: 0.8"/>
     </g>
     <g id="line2d_2">
      <defs>
       <path id="me6cfc2f3dd" d="M 0 0 
L 0 3.5 
" style="stroke: #a9a9a9; stroke-width: 0.8"/>
      </defs>
      <g>
       <use xlink:href="#me6cfc2f3dd" x="196.461876" y="320.4" style="fill: #a9a9a9; stroke: #a9a9a9; stroke-width: 0.8"/>
      </g>
     </g>
     <g id="text_1">
      <!-- 2022 -->
      <g style="fill: #a9a9a9" transform="translate(183.736876 334.998438) scale(0.1 -0.1)">
       <defs>
        <path id="DejaVuSans-32" d="M 1228 531 
L 3431 531 
L 3431 0 
L 469 0 
L 469 531 
Q 828 903 1448 1529 
Q 2069 2156 2228 2338 
Q 2531 2678 2651 2914 
Q 2772 3150 2772 3378 
Q 2772 3750 2511 3984 
Q 2250 4219 1831 4219 
Q 1534 4219 1204 4116 
Q 875 4013 500 3803 
L 500 4441 
Q 881 4594 1212 4672 
Q 1544 4750 1819 4750 
Q 2544 4750 2975 4387 
Q 3406 4025 3406 3419 
Q 3406 3131 3298 2873 
Q 3191 2616 2906 2266 
Q 2828 2175 2409 1742 
Q 1991 1309 1228 531 
z
" transform="scale(0.015625)"/>
        <path id="DejaVuSans-30" d="M 2034 4250 
Q 1547 4250 1301 3770 
Q 1056 3291 1056 2328 
Q 1056 1369 1301 889 
Q 1547 409 2034 409 
Q 2525 409 2770 889 
Q 3016 1369 3016 2328 
Q 3016 3291 2770 3770 
Q 2525 4250 2034 4250 
z
M 2034 4750 
Q 2819 4750 3233 4129 
Q 3647 3509 3647 2328 
Q 3647 1150 3233 529 
Q 2819 -91 2034 -91 
Q 1250 -91 836 529 
Q 422 1150 422 2328 
Q 422 3509 836 4129 
Q 1250 4750 2034 4750 
z
" transform="scale(0.015625)"/>
       </defs>
       <use xlink:href="#DejaVuSans-32"/>
       <use xlink:href="#DejaVuSans-30" transform="translate(63.623047 0)"/>
       <use xlink:href="#DejaVuSans-32" transform="translate(127.246094 0)"/>
       <use xlink:href="#DejaVuSans-32" transform="translate(190.869141 0)"/>
      </g>
     </g>
    </g>
    <g id="xtick_2">
     <g id="line2d_3">
      <path d="M 328.010399 320.4 
L 328.010399 43.2 
" clip-path="url(#p77aa863d73)" style="fill: none; stroke-dasharray: 5.12,1.28,0.8,1.28; stroke-dashoffset: 0; stroke: #b0b0b0; stroke-width: 0.8"/>
     </g>
     <g id="line2d_4">
      <g>
       <use xlink:href="#me6cfc2f3dd" x="328.010399" y="320.4" style="fill: #a9a9a9; stroke: #a9a9a9; stroke-width: 0.8"/>
      </g>
     </g>
     <g id="text_2">
      <!-- 2023 -->
      <g style="fill: #a9a9a9" transform="translate(315.285399 334.998438) scale(0.1 -0.1)">
       <defs>
        <path id="DejaVuSans-33" d="M 2597 2516 
Q 3050 2419 3304 2112 
Q 3559 1806 3559 1356 
Q 3559 666 3084 287 
Q 2609 -91 1734 -91 
Q 1441 -91 1130 -33 
Q 819 25 488 141 
L 488 750 
Q 750 597 1062 519 
Q 1375 441 1716 441 
Q 2309 441 2620 675 
Q 2931 909 2931 1356 
Q 2931 1769 2642 2001 
Q 2353 2234 1838 2234 
L 1294 2234 
L 1294 2753 
L 1863 2753 
Q 2328 2753 2575 2939 
Q 2822 3125 2822 3475 
Q 2822 3834 2567 4026 
Q 2313 4219 1838 4219 
Q 1578 4219 1281 4162 
Q 984 4106 628 3988 
L 628 4550 
Q 988 4650 1302 4700 
Q 1616 4750 1894 4750 
Q 2613 4750 3031 4423 
Q 3450 4097 3450 3541 
Q 3450 3153 3228 2886 
Q 3006 2619 2597 2516 
z
" transform="scale(0.015625)"/>
       </defs>
       <use xlink:href="#DejaVuSans-32"/>
       <use xlink:href="#DejaVuSans-30" transform="translate(63.623047 0)"/>
       <use xlink:href="#DejaVuSans-32" transform="translate(127.246094 0)"/>
       <use xlink:href="#DejaVuSans-33" transform="translate(190.869141 0)"/>
      </g>
     </g>
    </g>
    <g id="xtick_3">
     <g id="line2d_5">
      <path d="M 459.558921 320.4 
L 459.558921 43.2 
" clip-path="url(#p77aa863d73)" style="fill: none; stroke-dasharray: 5.12,1.28,0.8,1.28; stroke-dashoffset: 0; stroke: #b0b0b0; stroke-width: 0.8"/>
     </g>
     <g id="line2d_6">
      <g>
       <use xlink:href="#me6cfc2f3dd" x="459.558921" y="320.4" style="fill: #a9a9a9; stroke: #a9a9a9; stroke-width: 0.8"/>
      </g>
     </g>
     <g id="text_3">
      <!-- 2024 -->
      <g style="fill: #a9a9a9" transform="translate(446.833921 334.998438) scale(0.1 -0.1)">
       <defs>
        <path id="DejaVuSans-34" d="M 2419 4116 
L 825 1625 
L 2419 1625 
L 2419 4116 
z
M 2253 4666 
L 3047 4666 
L 3047 1625 
L 3713 1625 
L 3713 1100 
L 3047 1100 
L 3047 0 
L 2419 0 
L 2419 1100 
L 313 1100 
L 313 1709 
L 2253 4666 
z
" transform="scale(0.015625)"/>
       </defs>
       <use xlink:href="#DejaVuSans-32"/>
       <use xlink:href="#DejaVuSans-30" transform="translate(63.623047 0)"/>
       <use xlink:href="#DejaVuSans-32" transform="translate(127.246094 0)"/>
       <use xlink:href="#DejaVuSans-34" transform="translate(190.869141 0)"/>
      </g>
     </g>
    </g>
    <g id="xtick_4">
     <g id="line2d_7">
      <path d="M 591.467851 320.4 
L 591.467851 43.2 
" clip-path="url(#p77aa863d73)" style="fill: none; stroke-dasharray: 5.12,1.28,0.8,1.28; stroke-dashoffset: 0; stroke: #b0b0b0; stroke-width: 0.8"/>
     </g>
     <g id="line2d_8">
      <g>
       <use xlink:href="#me6cfc2f3dd" x="591.467851" y="320.4" style="fill: #a9a9a9; stroke: #a9a9a9; stroke-width: 0.8"/>
      </g>
     </g>
     <g id="text_4">
      <!-- 2025 -->
      <g style="fill: #a9a9a9" transform="translate(578.742851 334.998438) scale(0.1 -0.1)">
       <defs>
        <path id="DejaVuSans-35" d="M 691 4666 
L 3169 4666 
L 3169 4134 
L 1269 4134 
L 1269 2991 
Q 1406 3038 1543 3061 
Q 1681 3084 1819 3084 
Q 2600 3084 3056 2656 
Q 3513 2228 3513 1497 
Q 3513 744 3044 326 
Q 2575 -91 1722 -91 
Q 1428 -91 1123 -41 
Q 819 9 494 109 
L 494 744 
Q 775 591 1075 516 
Q 1375 441 1709 441 
Q 2250 441 2565 725 
Q 2881 1009 2881 1497 
Q 2881 1984 2565 2268 
Q 2250 2553 1709 2553 
Q 1456 2553 1204 2497 
Q 953 2441 691 2322 
L 691 4666 
z
" transform="scale(0.015625)"/>
       </defs>
       <use xlink:href="#DejaVuSans-32"/>
       <use xlink:href="#DejaVuSans-30" transform="translate(63.623047 0)"/>
       <use xlink:href="#DejaVuSans-32" transform="translate(127.246094 0)"/>
       <use xlink:href="#DejaVuSans-35" transform="translate(190.869141 0)"/>
      </g>
     </g>
    </g>
    <g id="xtick_5">
     <g id="line2d_9">
      <path d="M 723.016373 320.4 
L 723.016373 43.2 
" clip-path="url(#p77aa863d73)" style="fill: none; stroke-dasharray: 5.12,1.28,0.8,1.28; stroke-dashoffset: 0; stroke: #b0b0b0; stroke-width: 0.8"/>
     </g>
     <g id="line2d_10">
      <g>
       <use xlink:href="#me6cfc2f3dd" x="723.016373" y="320.4" style="fill: #a9a9a9; stroke: #a9a9a9; stroke-width: 0.8"/>
      </g>
     </g>
     <g id="text_5">
      <!-- 2026 -->
      <g style="fill: #a9a9a9" transform="translate(710.291373 334.998438) scale(0.1 -0.1)">
       <defs>
        <path id="DejaVuSans-36" d="M 2113 2584 
Q 1688 2584 1439 2293 
Q 1191 2003 1191 1497 
Q 1191 994 1439 701 
Q 1688 409 2113 409 
Q 2538 409 2786 701 
Q 3034 994 3034 1497 
Q 3034 2003 2786 2293 
Q 2538 2584 2113 2584 
z
M 3366 4563 
L 3366 3988 
Q 3128 4100 2886 4159 
Q 2644 4219 2406 4219 
Q 1781 4219 1451 3797 
Q 1122 3375 1075 2522 
Q 1259 2794 1537 2939 
Q 1816 3084 2150 3084 
Q 2853 3084 3261 2657 
Q 3669 2231 3669 1497 
Q 3669 778 3244 343 
Q 2819 -91 2113 -91 
Q 1303 -91 875 529 
Q 447 1150 447 2328 
Q 447 3434 972 4092 
Q 1497 4750 2381 4750 
Q 2619 4750 2861 4703 
Q 3103 4656 3366 4563 
z
" transform="scale(0.015625)"/>
       </defs>
       <use xlink:href="#DejaVuSans-32"/>
       <use xlink:href="#DejaVuSans-30" transform="translate(63.623047 0)"/>
       <use xlink:href="#DejaVuSans-32" transform="translate(127.246094 0)"/>
       <use xlink:href="#DejaVuSans-36" transform="translate(190.869141 0)"/>
      </g>
     </g>
    </g>
   </g>
   <g id="matplotlib.axis_2">
    <g id="ytick_1">
     <g id="line2d_11">
      <path d="M 108 307.82882 
L 777.6 307.82882 
" clip-path="url(#p77aa863d73)" style="fill: none; stroke-dasharray: 5.12,1.28,0.8,1.28; stroke-dashoffset: 0; stroke: #b0b0b0; stroke-width: 0.8"/>
     </g>
     <g id="line2d_12">
      <defs>
       <path id="m461475ff7e" d="M 0 0 
L -3.5 0 
" style="stroke: #a9a9a9; stroke-width: 0.8"/>
      </defs>
      <g>
       <use xlink:href="#m461475ff7e" x="108" y="307.82882" style="fill: #a9a9a9; stroke: #a9a9a9; stroke-width: 0.8"/>
      </g>
     </g>
     <g id="text_6">
      <!-- 0 -->
      <g style="fill: #a9a9a9" transform="translate(94.6375 311.628039) scale(0.1 -0.1)">
       <use xlink:href="#DejaVuSans-30"/>
      </g>
     </g>
    </g>
    <g id="ytick_2">
     <g id="line2d_13">
      <path d="M 108 279.009058 
L 777.6 279.009058 
" clip-path="url(#p77aa863d73)" style="fill: none; stroke-dasharray: 5.12,1.28,0.8,1.28; stroke-dashoffset: 0; stroke: #b0b0b0; stroke-width: 0.8"/>
     </g>
     <g id="line2d_14">
      <g>
       <use xlink:href="#m461475ff7e" x="108" y="279.009058" style="fill: #a9a9a9; stroke: #a9a9a9; stroke-width: 0.8"/>
      </g>
     </g>
     <g id="text_7">
      <!-- 1000 -->
      <g style="fill: #a9a9a9" transform="translate(75.55 282.808276) scale(0.1 -0.1)">
       <defs>
        <path id="DejaVuSans-31" d="M 794 531 
L 1825 531 
L 1825 4091 
L 703 3866 
L 703 4441 
L 1819 4666 
L 2450 4666 
L 2450 531 
L 3481 531 
L 3481 0 
L 794 0 
L 794 531 
z
" transform="scale(0.015625)"/>
       </defs>
       <use xlink:href="#DejaVuSans-31"/>
       <use xlink:href="#DejaVuSans-30" transform="translate(63.623047 0)"/>
       <use xlink:href="#DejaVuSans-30" transform="translate(127.246094 0)"/>
       <use xlink:href="#DejaVuSans-30" transform="translate(190.869141 0)"/>
      </g>
     </g>
    </g>
    <g id="ytick_3">
     <g id="line2d_15">
      <path d="M 108 250.189296 
L 777.6 250.189296 
" clip-path="url(#p77aa863d73)" style="fill: none; stroke-dasharray: 5.12,1.28,0.8,1.28; stroke-dashoffset: 0; stroke: #b0b0b0; stroke-width: 0.8"/>
     </g>
     <g id="line2d_16">
      <g>
       <use xlink:href="#m461475ff7e" x="108" y="250.189296" style="fill: #a9a9a9; stroke: #a9a9a9; stroke-width: 0.8"/>
      </g>
     </g>
     <g id="text_8">
      <!-- 2000 -->
      <g style="fill: #a9a9a9" transform="translate(75.55 253.988514) scale(0.1 -0.1)">
       <use xlink:href="#DejaVuSans-32"/>
       <use xlink:href="#DejaVuSans-30" transform="translate(63.623047 0)"/>
       <use xlink:href="#DejaVuSans-30" transform="translate(127.246094 0)"/>
       <use xlink:href="#DejaVuSans-30" transform="translate(190.869141 0)"/>
      </g>
     </g>
    </g>
    <g id="ytick_4">
     <g id="line2d_17">
      <path d="M 108 221.369533 
L 777.6 221.369533 
" clip-path="url(#p77aa863d73)" style="fill: none; stroke-dasharray: 5.12,1.28,0.8,1.28; stroke-dashoffset: 0; stroke: #b0b0b0; stroke-width: 0.8"/>
     </g>
     <g id="line2d_18">
      <g>
       <use xlink:href="#m461475ff7e" x="108" y="221.369533" style="fill: #a9a9a9; stroke: #a9a9a9; stroke-width: 0.8"/>
      </g>
     </g>
     <g id="text_9">
      <!-- 3000 -->
      <g style="fill: #a9a9a9" transform="translate(75.55 225.168752) scale(0.1 -0.1)">
       <use xlink:href="#DejaVuSans-33"/>
       <use xlink:href="#DejaVuSans-30" transform="translate(63.623047 0)"/>
       <use xlink:href="#DejaVuSans-30" transform="translate(127.246094 0)"/>
       <use xlink:href="#DejaVuSans-30" transform="translate(190.869141 0)"/>
      </g>
     </g>
    </g>
    <g id="ytick_5">
     <g id="line2d_19">
      <path d="M 108 192.549771 
L 777.6 192.549771 
" clip-path="url(#p77aa863d73)" style="fill: none; stroke-dasharray: 5.12,1.28,0.8,1.28; stroke-dashoffset: 0; stroke: #b0b0b0; stroke-width: 0.8"/>
     </g>
     <g id="line2d_20">
      <g>
       <use xlink:href="#m461475ff7e" x="108" y="192.549771" style="fill: #a9a9a9; stroke: #a9a9a9; stroke-width: 0.8"/>
      </g>
     </g>
     <g id="text_10">
      <!-- 4000 -->
      <g style="fill: #a9a9a9" transform="translate(75.55 196.34899) scale(0.1 -0.1)">
       <use xlink:href="#DejaVuSans-34"/>
       <use xlink:href="#DejaVuSans-30" transform="translate(63.623047 0)"/>
       <use xlink:href="#DejaVuSans-30" transform="translate(127.246094 0)"/>
       <use xlink:href="#DejaVuSans-30" transform="translate(190.869141 0)"/>
      </g>
     </g>
    </g>
    <g id="ytick_6">
     <g id="line2d_21">
      <path d="M 108 163.730009 
L 777.6 163.730009 
" clip-path="url(#p77aa863d73)" style="fill: none; stroke-dasharray: 5.12,1.28,0.8,1.28; stroke-dashoffset: 0; stroke: #b0b0b0; stroke-width: 0.8"/>
     </g>
     <g id="line2d_22">
      <g>
       <use xlink:href="#m461475ff7e" x="108" y="163.730009" style="fill: #a9a9a9; stroke: #a9a9a9; stroke-width: 0.8"/>
      </g>
     </g>
     <g id="text_11">
      <!-- 5000 -->
      <g style="fill: #a9a9a9" transform="translate(75.55 167.529228) scale(0.1 -0.1)">
       <use xlink:href="#DejaVuSans-35"/>
       <use xlink:href="#DejaVuSans-30" transform="translate(63.623047 0)"/>
       <use xlink:href="#DejaVuSans-30" transform="translate(127.246094 0)"/>
       <use xlink:href="#DejaVuSans-30" transform="translate(190.869141 0)"/>
      </g>
     </g>
    </g>
    <g id="ytick_7">
     <g id="line2d_23">
      <path d="M 108 134.910247 
L 777.6 134.910247 
" clip-path="url(#p77aa863d73)" style="fill: none; stroke-dasharray: 5.12,1.28,0.8,1.28; stroke-dashoffset: 0; stroke: #b0b0b0; stroke-width: 0.8"/>
     </g>
     <g id="line2d_24">
      <g>
       <use xlink:href="#m461475ff7e" x="108" y="134.910247" style="fill: #a9a9a9; stroke: #a9a9a9; stroke-width: 0.8"/>
      </g>
     </g>
     <g id="text_12">
      <!-- 6000 -->
      <g style="fill: #a9a9a9" transform="translate(75.55 138.709466) scale(0.1 -0.1)">
       <use xlink:href="#DejaVuSans-36"/>
       <use xlink:href="#DejaVuSans-30" transform="translate(63.623047 0)"/>
       <use xlink:href="#DejaVuSans-30" transform="translate(127.246094 0)"/>
       <use xlink:href="#DejaVuSans-30" transform="translate(190.869141 0)"/>
      </g>
     </g>
    </g>
    <g id="ytick_8">
     <g id="line2d_25">
      <path d="M 108 106.090485 
L 777.6 106.090485 
" clip-path="url(#p77aa863d73)" style="fill: none; stroke-dasharray: 5.12,1.28,0.8,1.28; stroke-dashoffset: 0; stroke: #b0b0b0; stroke-width: 0.8"/>
     </g>
     <g id="line2d_26">
      <g>
       <use xlink:href="#m461475ff7e" x="108" y="106.090485" style="fill: #a9a9a9; stroke: #a9a9a9; stroke-width: 0.8"/>
      </g>
     </g>
     <g id="text_13">
      <!-- 7000 -->
      <g style="fill: #a9a9a9" transform="translate(75.55 109.889704) scale(0.1 -0.1)">
       <defs>
        <path id="DejaVuSans-37" d="M 525 4666 
L 3525 4666 
L 3525 4397 
L 1831 0 
L 1172 0 
L 2766 4134 
L 525 4134 
L 525 4666 
z
" transform="scale(0.015625)"/>
       </defs>
       <use xlink:href="#DejaVuSans-37"/>
       <use xlink:href="#DejaVuSans-30" transform="translate(63.623047 0)"/>
       <use xlink:href="#DejaVuSans-30" transform="translate(127.246094 0)"/>
       <use xlink:href="#DejaVuSans-30" transform="translate(190.869141 0)"/>
      </g>
     </g>
    </g>
    <g id="ytick_9">
     <g id="line2d_27">
      <path d="M 108 77.270723 
L 777.6 77.270723 
" clip-path="url(#p77aa863d73)" style="fill: none; stroke-dasharray: 5.12,1.28,0.8,1.28; stroke-dashoffset: 0; stroke: #b0b0b0; stroke-width: 0.8"/>
     </g>
     <g id="line2d_28">
      <g>
       <use xlink:href="#m461475ff7e" x="108" y="77.270723" style="fill: #a9a9a9; stroke: #a9a9a9; stroke-width: 0.8"/>
      </g>
     </g>
     <g id="text_14">
      <!-- 8000 -->
      <g style="fill: #a9a9a9" transform="translate(75.55 81.069942) scale(0.1 -0.1)">
       <defs>
        <path id="DejaVuSans-38" d="M 2034 2216 
Q 1584 2216 1326 1975 
Q 1069 1734 1069 1313 
Q 1069 891 1326 650 
Q 1584 409 2034 409 
Q 2484 409 2743 651 
Q 3003 894 3003 1313 
Q 3003 1734 2745 1975 
Q 2488 2216 2034 2216 
z
M 1403 2484 
Q 997 2584 770 2862 
Q 544 3141 544 3541 
Q 544 4100 942 4425 
Q 1341 4750 2034 4750 
Q 2731 4750 3128 4425 
Q 3525 4100 3525 3541 
Q 3525 3141 3298 2862 
Q 3072 2584 2669 2484 
Q 3125 2378 3379 2068 
Q 3634 1759 3634 1313 
Q 3634 634 3220 271 
Q 2806 -91 2034 -91 
Q 1263 -91 848 271 
Q 434 634 434 1313 
Q 434 1759 690 2068 
Q 947 2378 1403 2484 
z
M 1172 3481 
Q 1172 3119 1398 2916 
Q 1625 2713 2034 2713 
Q 2441 2713 2670 2916 
Q 2900 3119 2900 3481 
Q 2900 3844 2670 4047 
Q 2441 4250 2034 4250 
Q 1625 4250 1398 4047 
Q 1172 3844 1172 3481 
z
" transform="scale(0.015625)"/>
       </defs>
       <use xlink:href="#DejaVuSans-38"/>
       <use xlink:href="#DejaVuSans-30" transform="translate(63.623047 0)"/>
       <use xlink:href="#DejaVuSans-30" transform="translate(127.246094 0)"/>
       <use xlink:href="#DejaVuSans-30" transform="translate(190.869141 0)"/>
      </g>
     </g>
    </g>
    <g id="ytick_10">
     <g id="line2d_29">
      <path d="M 108 48.450961 
L 777.6 48.450961 
" clip-path="url(#p77aa863d73)" style="fill: none; stroke-dasharray: 5.12,1.28,0.8,1.28; stroke-dashoffset: 0; stroke: #b0b0b0; stroke-width: 0.8"/>
     </g>
     <g id="line2d_30">
      <g>
       <use xlink:href="#m461475ff7e" x="108" y="48.450961" style="fill: #a9a9a9; stroke: #a9a9a9; stroke-width: 0.8"/>
      </g>
     </g>
     <g id="text_15">
      <!-- 9000 -->
      <g style="fill: #a9a9a9" transform="translate(75.55 52.250179) scale(0.1 -0.1)">
       <defs>
        <path id="DejaVuSans-39" d="M 703 97 
L 703 672 
Q 941 559 1184 500 
Q 1428 441 1663 441 
Q 2288 441 2617 861 
Q 2947 1281 2994 2138 
Q 2813 1869 2534 1725 
Q 2256 1581 1919 1581 
Q 1219 1581 811 2004 
Q 403 2428 403 3163 
Q 403 3881 828 4315 
Q 1253 4750 1959 4750 
Q 2769 4750 3195 4129 
Q 3622 3509 3622 2328 
Q 3622 1225 3098 567 
Q 2575 -91 1691 -91 
Q 1453 -91 1209 -44 
Q 966 3 703 97 
z
M 1959 2075 
Q 2384 2075 2632 2365 
Q 2881 2656 2881 3163 
Q 2881 3666 2632 3958 
Q 2384 4250 1959 4250 
Q 1534 4250 1286 3958 
Q 1038 3666 1038 3163 
Q 1038 2656 1286 2365 
Q 1534 2075 1959 2075 
z
" transform="scale(0.015625)"/>
       </defs>
       <use xlink:href="#DejaVuSans-39"/>
       <use xlink:href="#DejaVuSans-30" transform="translate(63.623047 0)"/>
       <use xlink:href="#DejaVuSans-30" transform="translate(127.246094 0)"/>
       <use xlink:href="#DejaVuSans-30" transform="translate(190.869141 0)"/>
      </g>
     </g>
    </g>
   </g>
   <g id="line2d_31">
    <path d="M 138.436364 307.74236 
L 140.598805 307.540622 
L 140.959212 307.367704 
L 142.40084 307.165965 
L 143.842467 306.848948 
L 144.563281 306.733669 
L 146.365316 306.56075 
L 147.08613 306.272553 
L 147.446536 305.753797 
L 147.806943 305.494419 
L 148.16735 304.629826 
L 148.527757 304.572187 
L 149.248571 304.11107 
L 149.969385 303.563495 
L 151.411012 302.468344 
L 151.771419 302.324245 
L 152.492233 301.863129 
L 153.573454 301.315554 
L 153.933861 300.681519 
L 154.654675 300.105124 
L 155.375488 299.874565 
L 156.456709 299.701647 
L 158.619151 299.35581 
L 158.979558 299.182891 
L 161.502406 298.952333 
L 162.944034 298.577676 
L 165.827289 298.14538 
L 166.187696 297.943641 
L 166.548103 297.886002 
L 167.268917 297.626624 
L 169.791765 297.165508 
L 170.512579 296.93495 
L 173.756241 296.358554 
L 174.477055 296.185636 
L 175.918682 295.983898 
L 176.639496 295.753339 
L 176.999903 295.205764 
L 178.081124 294.744648 
L 179.162345 294.42763 
L 179.522751 294.225892 
L 180.243565 294.081793 
L 182.0456 293.620677 
L 183.126821 293.361299 
L 184.568448 292.986642 
L 184.928855 292.957823 
L 185.649669 292.583166 
L 186.010076 292.525526 
L 186.370483 292.323788 
L 191.055773 291.488015 
L 192.4974 290.82516 
L 193.218214 290.623422 
L 193.939028 290.306404 
L 194.659842 289.758829 
L 195.741062 289.528271 
L 203.670015 287.049771 
L 204.030421 287.020952 
L 205.111642 286.675114 
L 205.472049 286.675114 
L 205.832456 286.502196 
L 206.55327 286.415737 
L 206.913677 286.271638 
L 208.715711 286.185178 
L 209.076118 286.098719 
L 209.796932 285.695242 
L 210.878153 285.291766 
L 211.598967 284.888289 
L 212.680187 284.398353 
L 214.121815 283.649039 
L 214.482222 283.245563 
L 215.203036 282.035133 
L 216.284256 281.689296 
L 216.644663 281.401098 
L 217.725884 280.997621 
L 218.086291 280.622964 
L 219.167512 280.161848 
L 219.527919 279.96011 
L 221.69036 277.337511 
L 222.411174 276.991674 
L 223.852802 275.954163 
L 224.573615 275.435407 
L 224.934022 274.887832 
L 225.294429 273.994419 
L 225.654836 273.418024 
L 229.258905 270.103751 
L 229.979719 269.383257 
L 231.421347 268.403385 
L 231.781754 268.057548 
L 232.502567 267.82699 
L 233.583788 267.164135 
L 234.665009 266.386002 
L 236.106637 264.973833 
L 236.82745 264.656816 
L 237.548264 264.13806 
L 237.908671 263.907502 
L 238.269078 263.849863 
L 239.350299 263.187008 
L 239.710706 262.754712 
L 241.51274 261.688381 
L 241.873147 261.544282 
L 242.954368 260.737328 
L 248.360472 258.662306 
L 249.081285 257.941812 
L 250.162506 257.365416 
L 250.88332 256.87548 
L 251.604134 256.644922 
L 251.964541 256.385544 
L 252.324948 256.270265 
L 253.406168 255.492132 
L 255.208203 255.059835 
L 256.289424 254.368161 
L 257.370644 254.108783 
L 257.731051 254.022324 
L 258.812272 253.215371 
L 260.2539 252.783074 
L 260.614306 252.494876 
L 262.776748 251.687923 
L 263.497562 251.543824 
L 264.218376 251.226807 
L 266.741224 250.246935 
L 267.462038 250.160476 
L 268.903665 249.584081 
L 272.868141 247.480238 
L 273.588955 247.134401 
L 274.309769 246.788564 
L 275.030583 246.644465 
L 275.751397 246.183349 
L 276.472211 245.98161 
L 277.553431 245.520494 
L 278.995059 245.318756 
L 279.715873 244.915279 
L 280.07628 244.569442 
L 280.436687 243.877768 
L 281.878314 243.445471 
L 283.319942 242.753797 
L 286.563604 241.226349 
L 287.284418 241.053431 
L 288.365639 240.477036 
L 288.726046 240.419396 
L 290.52808 239.468344 
L 291.248894 238.978408 
L 292.330115 238.74785 
L 295.573777 237.595059 
L 297.015404 236.961025 
L 297.375811 236.672827 
L 298.096625 236.26935 
L 298.817439 235.981153 
L 299.177846 235.894694 
L 300.619474 235.11656 
L 300.979881 234.713083 
L 301.340287 234.482525 
L 301.700694 234.396066 
L 302.421508 233.762031 
L 302.781915 233.704392 
L 303.142322 233.070357 
L 303.502729 232.926258 
L 303.863136 232.609241 
L 304.223543 232.551601 
L 304.944357 232.061665 
L 305.66517 231.802287 
L 306.025577 231.51409 
L 306.746391 231.110613 
L 308.188019 230.188381 
L 310.35046 229.179689 
L 310.710867 228.516834 
L 311.431681 227.940439 
L 311.792088 227.85398 
L 313.954529 226.758829 
L 314.675343 226.441812 
L 315.396157 225.894236 
L 316.116971 225.116102 
L 317.919005 223.703934 
L 318.639819 223.098719 
L 319.000226 222.925801 
L 319.72104 222.147667 
L 320.802261 221.628911 
L 321.523074 221.196615 
L 321.883481 221.081336 
L 322.243888 220.793138 
L 322.604295 220.735499 
L 325.847957 219.006313 
L 326.568771 218.804575 
L 328.010399 218.285819 
L 328.731213 217.795883 
L 330.17284 217.248307 
L 330.893654 216.787191 
L 331.614468 216.498994 
L 332.335282 215.951418 
L 333.056096 214.423971 
L 333.776909 213.559378 
L 334.85813 212.954163 
L 335.578944 212.637145 
L 335.939351 212.579506 
L 336.660165 212.233669 
L 338.462199 211.570814 
L 339.183013 211.080878 
L 340.264234 210.619762 
L 342.066268 209.495791 
L 342.787082 208.804117 
L 343.868303 208.256542 
L 344.22871 207.968344 
L 344.949524 207.593687 
L 347.111965 206.498536 
L 347.832779 206.296798 
L 348.914 205.950961 
L 350.355627 205.259286 
L 353.238883 203.818298 
L 353.959696 203.414822 
L 354.320103 203.241903 
L 355.040917 202.636688 
L 355.761731 202.43495 
L 356.122138 202.089113 
L 356.482545 202.031473 
L 357.203359 201.455078 
L 359.005393 200.331107 
L 359.726207 200.100549 
L 360.086614 199.869991 
L 360.447021 199.812351 
L 362.609462 198.861299 
L 366.934345 197.477951 
L 368.015566 196.699817 
L 368.73638 196.29634 
L 370.178007 195.575846 
L 371.259228 194.826532 
L 371.980042 194.653614 
L 373.061263 193.96194 
L 376.304925 192.809149 
L 377.025739 192.549771 
L 378.467366 192.232754 
L 379.18818 192.002196 
L 380.990215 191.368161 
L 382.071435 191.022324 
L 382.792249 190.849405 
L 384.954691 190.445929 
L 385.675505 190.30183 
L 386.756725 190.042452 
L 387.117132 189.869533 
L 387.837946 189.725435 
L 388.55876 189.523696 
L 389.279574 189.177859 
L 389.639981 189.03376 
L 390.000388 189.03376 
L 395.406491 187.246935 
L 395.766898 186.843458 
L 397.92934 185.892406 
L 399.370967 185.373651 
L 399.731374 185.143092 
L 400.812595 184.797255 
L 402.254223 184.24968 
L 402.614629 183.932662 
L 403.69585 183.702104 
L 404.416664 183.356267 
L 404.777071 182.895151 
L 408.741547 181.972919 
L 409.101954 181.972919 
L 409.822768 181.74236 
L 413.06643 180.906587 
L 413.787244 180.733669 
L 420.274568 178.572187 
L 420.634975 178.312809 
L 421.355789 178.082251 
L 424.239044 177.044739 
L 424.959858 176.9871 
L 426.401486 176.554803 
L 426.761892 176.324245 
L 427.482706 176.093687 
L 428.20352 175.805489 
L 428.563927 175.517292 
L 428.924334 175.430833 
L 429.284741 175.229094 
L 429.645148 175.200274 
L 433.970031 173.586368 
L 437.213693 172.520037 
L 438.655321 171.280787 
L 441.178169 170.156816 
L 443.701017 169.032845 
L 444.421831 168.831107 
L 447.665493 167.188381 
L 448.386307 166.756084 
L 451.629969 165.142177 
L 451.990376 164.85398 
L 453.792411 164.162306 
L 456.315259 163.211253 
L 457.036073 163.124794 
L 457.39648 162.865416 
L 458.838108 162.577219 
L 459.558921 162.260201 
L 461.360956 161.366789 
L 466.046246 159.205306 
L 467.127466 158.83065 
L 467.487873 158.571272 
L 468.208687 158.484812 
L 468.569094 158.254254 
L 469.289908 158.138975 
L 473.975198 156.38097 
L 475.056419 156.121592 
L 476.498046 155.487557 
L 477.21886 155.084081 
L 478.660488 154.305947 
L 479.381301 154.133028 
L 479.741708 153.90247 
L 480.102115 153.844831 
L 481.90415 152.922598 
L 486.58944 151.106953 
L 486.949847 151.049314 
L 488.391474 150.32882 
L 489.112288 150.184721 
L 489.833102 149.752425 
L 491.27473 149.03193 
L 497.762054 146.466972 
L 499.203682 145.227722 
L 500.284902 144.795425 
L 502.807751 143.527356 
L 503.168158 143.267978 
L 503.888971 143.06624 
L 504.609785 142.662763 
L 505.691006 142.403385 
L 511.457517 139.982525 
L 513.259551 139.233211 
L 515.421993 138.426258 
L 517.224027 137.504026 
L 517.944841 137.273468 
L 518.305248 136.92763 
L 519.386469 136.495334 
L 519.746876 136.437694 
L 521.188503 135.74602 
L 522.269724 135.400183 
L 523.350945 134.996706 
L 524.432165 134.679689 
L 524.792572 134.622049 
L 525.513386 134.218573 
L 525.873793 134.074474 
L 526.2342 133.786276 
L 527.315421 133.498079 
L 528.036234 133.209881 
L 528.757048 132.892864 
L 530.198676 132.287649 
L 532.721524 131.653614 
L 533.442338 131.365416 
L 534.883966 131.077219 
L 535.60478 130.93312 
L 536.686 130.500823 
L 537.767221 130.270265 
L 539.929663 128.944556 
L 541.010883 128.310522 
L 543.173325 127.618847 
L 543.533732 127.33065 
L 546.416987 126.293138 
L 547.498208 125.947301 
L 548.219021 125.543824 
L 548.939835 125.342086 
L 549.300242 125.140348 
L 550.021056 124.996249 
L 551.823091 124.160476 
L 552.543904 123.872278 
L 553.985532 123.295883 
L 554.345939 122.950046 
L 554.706346 122.892406 
L 556.147974 122.287191 
L 557.589601 121.912534 
L 557.950008 121.883715 
L 558.310415 121.710796 
L 559.031229 121.566697 
L 562.274891 120.558005 
L 562.995705 119.98161 
L 564.437332 119.145837 
L 564.797739 119.059378 
L 565.158146 118.85764 
L 565.518553 118.8 
L 568.762215 117.186093 
L 569.122622 116.869076 
L 570.924657 116.43678 
L 572.005878 115.946844 
L 572.726691 115.745105 
L 573.087098 115.572187 
L 573.447505 115.255169 
L 575.970354 114.332937 
L 577.051574 113.843001 
L 577.411981 113.814181 
L 578.132795 113.525984 
L 579.574423 112.891949 
L 581.736864 112.344373 
L 582.818085 111.854437 
L 586.061747 110.788106 
L 586.782561 110.384629 
L 599.036396 106.580421 
L 599.75721 106.378683 
L 600.83843 105.975206 
L 601.198837 105.975206 
L 602.280058 105.715828 
L 603.000872 105.571729 
L 603.721686 105.369991 
L 604.802907 104.793596 
L 605.884127 104.447758 
L 608.406976 103.583166 
L 609.848603 102.833852 
L 612.371452 101.969259 
L 612.731859 101.652242 
L 613.452672 101.421683 
L 613.813079 101.191125 
L 614.533893 101.104666 
L 617.056741 100.384172 
L 618.137962 100.153614 
L 621.021218 99.116102 
L 625.706507 97.300457 
L 626.427321 97.185178 
L 627.148135 97.04108 
L 627.508542 97.04108 
L 628.589763 96.695242 
L 629.670983 96.349405 
L 632.554239 95.513632 
L 633.995866 95.196615 
L 634.356273 94.966057 
L 635.077087 94.821958 
L 636.518715 94.53376 
L 637.599935 94.015005 
L 638.681156 93.755627 
L 639.40197 93.438609 
L 641.564411 92.660476 
L 641.924818 92.602836 
L 642.645632 92.343458 
L 646.970515 91.219488 
L 649.132957 90.470174 
L 649.85377 90.412534 
L 652.016212 89.864959 
L 652.737026 89.547941 
L 653.097433 89.490302 
L 653.457839 89.317383 
L 654.178653 88.683349 
L 657.422316 87.415279 
L 658.143129 87.3 
L 661.026385 86.320128 
L 662.107605 85.714913 
L 662.468012 85.628454 
L 662.828419 85.340256 
L 663.90964 85.023239 
L 669.315744 82.515919 
L 671.117778 81.881885 
L 671.478185 81.564867 
L 671.838592 81.478408 
L 672.559406 81.017292 
L 673.640627 80.700274 
L 675.082254 80.095059 
L 675.442661 80.06624 
L 677.244696 79.374565 
L 677.965509 79.230467 
L 678.686323 78.711711 
L 679.04673 78.711711 
L 680.488358 78.192955 
L 681.929985 77.904758 
L 683.371613 77.270723 
L 683.73202 77.270723 
L 684.813241 76.896066 
L 685.534055 76.780787 
L 686.615275 76.146752 
L 687.336089 75.772095 
L 692.381786 74.244648 
L 693.1026 74.071729 
L 693.823414 73.783532 
L 694.904634 73.466514 
L 696.346262 72.947758 
L 697.78789 72.630741 
L 700.310738 71.910247 
L 701.031552 71.766148 
L 703.914807 70.699817 
L 704.635621 70.555718 
L 706.077249 70.29634 
L 706.798062 70.181061 
L 708.23969 69.604666 
L 708.960504 69.402928 
L 709.681318 69.287649 
L 711.122945 68.826532 
L 711.483352 68.826532 
L 712.204166 68.423056 
L 714.006201 67.96194 
L 714.727014 67.702562 
L 715.447828 67.558463 
L 717.61027 66.607411 
L 717.970677 66.549771 
L 718.69149 66.203934 
L 719.412304 65.886917 
L 720.133118 65.569899 
L 720.853932 65.281702 
L 721.214339 65.079963 
L 721.574746 65.022324 
L 722.29556 64.705306 
L 723.37678 64.24419 
L 725.178815 63.466057 
L 725.539222 63.235499 
L 725.899629 63.149039 
L 726.260036 62.918481 
L 726.620442 62.860842 
L 727.341256 62.399726 
L 729.503698 61.88097 
L 730.224512 61.477493 
L 730.584918 61.419854 
L 732.026546 60.843458 
L 737.43265 58.797255 
L 738.874277 58.451418 
L 740.315905 58.2785 
L 741.397126 58.047941 
L 741.757533 57.990302 
L 742.478347 57.529186 
L 743.559567 57.125709 
L 744.280381 56.95279 
L 745.001195 56.808692 
L 745.722009 56.462855 
L 747.163636 55.8 
L 747.163636 55.8 
" clip-path="url(#p77aa863d73)" style="fill: none; stroke: #1f77b4; stroke-width: 1.5; stroke-linecap: square"/>
   </g>
   <g id="line2d_32">
    <path d="M 138.796771 307.8 
L 142.040433 307.713541 
L 144.923688 307.569442 
L 146.365316 307.569442 
L 147.08613 307.454163 
L 155.735895 306.848948 
L 158.619151 306.762489 
L 160.421185 306.704849 
L 165.106475 306.61839 
L 166.90851 306.56075 
L 170.152172 306.474291 
L 171.593799 306.445471 
L 175.197869 306.359012 
L 176.639496 306.214913 
L 178.081124 306.186093 
L 180.243565 306.099634 
L 181.685193 306.070814 
L 183.487228 306.013175 
L 184.928855 305.869076 
L 188.172517 305.782617 
L 188.893331 305.724977 
L 190.334959 305.638518 
L 192.4974 305.552059 
L 193.939028 305.465599 
L 200.426352 305.033303 
L 202.949201 304.946844 
L 204.030421 304.831565 
L 205.832456 304.745105 
L 209.436525 304.543367 
L 213.040594 304.485727 
L 214.482222 304.341629 
L 216.284256 304.255169 
L 219.888326 303.880512 
L 222.050767 303.592315 
L 223.492395 303.534675 
L 226.37565 303.131199 
L 228.538091 303.073559 
L 229.619312 302.95828 
L 230.700533 302.871821 
L 249.441692 301.459652 
L 251.964541 301.373193 
L 253.406168 301.200274 
L 255.208203 301.113815 
L 257.370644 301.027356 
L 259.172679 300.940897 
L 260.614306 300.912077 
L 262.416341 300.854437 
L 263.137155 300.767978 
L 268.182852 300.681519 
L 268.903665 300.595059 
L 273.228548 300.5086 
L 276.472211 300.335682 
L 278.995059 300.249222 
L 280.436687 300.076304 
L 282.959535 299.989844 
L 283.680349 299.874565 
L 285.482383 299.816926 
L 289.086452 299.759286 
L 290.52808 299.615188 
L 291.969708 299.586368 
L 293.050928 299.499909 
L 294.492556 299.35581 
L 298.096625 299.154071 
L 301.700694 299.067612 
L 304.944357 298.894694 
L 306.025577 298.865874 
L 306.746391 298.750595 
L 308.548426 298.692955 
L 309.269239 298.635316 
L 311.071274 298.548856 
L 312.512902 298.520037 
L 315.03575 298.433577 
L 324.40633 297.770723 
L 326.568771 297.684263 
L 328.370806 297.626624 
L 333.416503 297.540165 
L 334.137316 297.453705 
L 339.183013 297.367246 
L 342.787082 297.165508 
L 343.507896 297.136688 
L 344.22871 297.050229 
L 346.030744 296.963769 
L 347.832779 296.90613 
L 349.634813 296.819671 
L 351.436848 296.762031 
L 354.68051 296.675572 
L 356.842952 296.589113 
L 361.888648 296.502653 
L 365.853124 296.272095 
L 367.294752 296.214456 
L 368.375973 296.127996 
L 373.42167 296.041537 
L 375.584111 295.955078 
L 382.071435 295.868618 
L 383.513063 295.839799 
L 387.837946 295.782159 
L 388.55876 295.72452 
L 393.604457 295.63806 
L 395.046084 295.609241 
L 404.416664 295.522781 
L 406.579105 295.436322 
L 421.716196 295.349863 
L 423.51823 295.292223 
L 433.970031 295.205764 
L 437.934507 294.975206 
L 440.096948 294.888747 
L 442.25939 294.802287 
L 445.863459 294.715828 
L 448.386307 294.600549 
L 451.269562 294.51409 
L 454.152818 294.369991 
L 461.000549 294.283532 
L 463.16299 294.197072 
L 467.127466 294.110613 
L 469.650315 293.995334 
L 472.173163 293.937694 
L 472.893977 293.880055 
L 481.543743 293.793596 
L 485.147812 293.591857 
L 487.67066 293.505398 
L 491.635136 293.27484 
L 495.960019 293.188381 
L 497.401647 293.159561 
L 498.122461 293.101921 
L 499.924495 292.900183 
L 503.528565 292.813724 
L 504.249378 292.727264 
L 507.853447 292.640805 
L 509.655482 292.583166 
L 513.619958 292.554346 
L 514.340772 292.467887 
L 518.305248 292.381427 
L 519.026062 292.323788 
L 526.955014 292.237328 
L 529.117455 292.150869 
L 534.523559 292.06441 
L 535.965187 292.03559 
L 539.208849 292.00677 
L 539.929663 291.920311 
L 544.614952 291.833852 
L 546.416987 291.776212 
L 552.904311 291.689753 
L 553.985532 291.603294 
L 555.066753 291.516834 
L 556.147974 291.430375 
L 561.554077 291.343916 
L 563.716519 291.257457 
L 574.168319 291.170997 
L 577.411981 290.998079 
L 582.457678 290.911619 
L 583.899306 290.8828 
L 588.224189 290.79634 
L 590.026223 290.738701 
L 598.315582 290.652242 
L 600.478024 290.565782 
L 606.604941 290.479323 
L 608.046569 290.450503 
L 611.650638 290.364044 
L 614.173486 290.248765 
L 618.137962 290.162306 
L 620.660811 290.047027 
L 623.904473 289.989387 
L 624.625287 289.931747 
L 632.554239 289.845288 
L 634.71668 289.758829 
L 637.239528 289.67237 
L 639.041563 289.61473 
L 649.493363 289.528271 
L 651.655805 289.441812 
L 657.782722 289.355352 
L 659.584757 289.297713 
L 664.270047 289.211253 
L 666.432488 289.124794 
L 669.315744 289.038335 
L 671.478185 288.951876 
L 685.894461 288.865416 
L 688.777717 288.721317 
L 697.067076 288.634858 
L 698.508703 288.606038 
L 707.158469 288.519579 
L 708.960504 288.46194 
L 720.493525 288.37548 
L 721.935153 288.346661 
L 732.74736 288.260201 
L 733.468174 288.202562 
L 742.478347 288.116102 
L 744.280381 288.058463 
L 747.163636 287.972004 
L 747.163636 287.972004 
" clip-path="url(#p77aa863d73)" style="fill: none; stroke: #ff7f0e; stroke-width: 1.5; stroke-linecap: square"/>
   </g>
   <g id="patch_3">
    <path d="M 108 320.4 
L 108 43.2 
" style="fill: none; stroke: #a9a9a9; stroke-width: 0.8; stroke-linejoin: miter; stroke-linecap: square"/>
   </g>
   <g id="patch_4">
    <path d="M 777.6 320.4 
L 777.6 43.2 
" style="fill: none"/>
   </g>
   <g id="patch_5">
    <path d="M 108 320.4 
L 777.6 320.4 
" style="fill: none; stroke: #a9a9a9; stroke-width: 0.8; stroke-linejoin: miter; stroke-linecap: square"/>
   </g>
   <g id="patch_6">
    <path d="M 108 43.2 
L 777.6 43.2 
" style="fill: none"/>
   </g>
   <g id="text_16">
    <!-- get_subscribe history -->
    <g style="fill: #a9a9a9" transform="translate(378.6075 37.2) scale(0.12 -0.12)">
     <defs>
      <path id="DejaVuSans-67" d="M 2906 1791 
Q 2906 2416 2648 2759 
Q 2391 3103 1925 3103 
Q 1463 3103 1205 2759 
Q 947 2416 947 1791 
Q 947 1169 1205 825 
Q 1463 481 1925 481 
Q 2391 481 2648 825 
Q 2906 1169 2906 1791 
z
M 3481 434 
Q 3481 -459 3084 -895 
Q 2688 -1331 1869 -1331 
Q 1566 -1331 1297 -1286 
Q 1028 -1241 775 -1147 
L 775 -588 
Q 1028 -725 1275 -790 
Q 1522 -856 1778 -856 
Q 2344 -856 2625 -561 
Q 2906 -266 2906 331 
L 2906 616 
Q 2728 306 2450 153 
Q 2172 0 1784 0 
Q 1141 0 747 490 
Q 353 981 353 1791 
Q 353 2603 747 3093 
Q 1141 3584 1784 3584 
Q 2172 3584 2450 3431 
Q 2728 3278 2906 2969 
L 2906 3500 
L 3481 3500 
L 3481 434 
z
" transform="scale(0.015625)"/>
      <path id="DejaVuSans-65" d="M 3597 1894 
L 3597 1613 
L 953 1613 
Q 991 1019 1311 708 
Q 1631 397 2203 397 
Q 2534 397 2845 478 
Q 3156 559 3463 722 
L 3463 178 
Q 3153 47 2828 -22 
Q 2503 -91 2169 -91 
Q 1331 -91 842 396 
Q 353 884 353 1716 
Q 353 2575 817 3079 
Q 1281 3584 2069 3584 
Q 2775 3584 3186 3129 
Q 3597 2675 3597 1894 
z
M 3022 2063 
Q 3016 2534 2758 2815 
Q 2500 3097 2075 3097 
Q 1594 3097 1305 2825 
Q 1016 2553 972 2059 
L 3022 2063 
z
" transform="scale(0.015625)"/>
      <path id="DejaVuSans-74" d="M 1172 4494 
L 1172 3500 
L 2356 3500 
L 2356 3053 
L 1172 3053 
L 1172 1153 
Q 1172 725 1289 603 
Q 1406 481 1766 481 
L 2356 481 
L 2356 0 
L 1766 0 
Q 1100 0 847 248 
Q 594 497 594 1153 
L 594 3053 
L 172 3053 
L 172 3500 
L 594 3500 
L 594 4494 
L 1172 4494 
z
" transform="scale(0.015625)"/>
      <path id="DejaVuSans-5f" d="M 3263 -1063 
L 3263 -1509 
L -63 -1509 
L -63 -1063 
L 3263 -1063 
z
" transform="scale(0.015625)"/>
      <path id="DejaVuSans-73" d="M 2834 3397 
L 2834 2853 
Q 2591 2978 2328 3040 
Q 2066 3103 1784 3103 
Q 1356 3103 1142 2972 
Q 928 2841 928 2578 
Q 928 2378 1081 2264 
Q 1234 2150 1697 2047 
L 1894 2003 
Q 2506 1872 2764 1633 
Q 3022 1394 3022 966 
Q 3022 478 2636 193 
Q 2250 -91 1575 -91 
Q 1294 -91 989 -36 
Q 684 19 347 128 
L 347 722 
Q 666 556 975 473 
Q 1284 391 1588 391 
Q 1994 391 2212 530 
Q 2431 669 2431 922 
Q 2431 1156 2273 1281 
Q 2116 1406 1581 1522 
L 1381 1569 
Q 847 1681 609 1914 
Q 372 2147 372 2553 
Q 372 3047 722 3315 
Q 1072 3584 1716 3584 
Q 2034 3584 2315 3537 
Q 2597 3491 2834 3397 
z
" transform="scale(0.015625)"/>
      <path id="DejaVuSans-75" d="M 544 1381 
L 544 3500 
L 1119 3500 
L 1119 1403 
Q 1119 906 1312 657 
Q 1506 409 1894 409 
Q 2359 409 2629 706 
Q 2900 1003 2900 1516 
L 2900 3500 
L 3475 3500 
L 3475 0 
L 2900 0 
L 2900 538 
Q 2691 219 2414 64 
Q 2138 -91 1772 -91 
Q 1169 -91 856 284 
Q 544 659 544 1381 
z
M 1991 3584 
L 1991 3584 
z
" transform="scale(0.015625)"/>
      <path id="DejaVuSans-62" d="M 3116 1747 
Q 3116 2381 2855 2742 
Q 2594 3103 2138 3103 
Q 1681 3103 1420 2742 
Q 1159 2381 1159 1747 
Q 1159 1113 1420 752 
Q 1681 391 2138 391 
Q 2594 391 2855 752 
Q 3116 1113 3116 1747 
z
M 1159 2969 
Q 1341 3281 1617 3432 
Q 1894 3584 2278 3584 
Q 2916 3584 3314 3078 
Q 3713 2572 3713 1747 
Q 3713 922 3314 415 
Q 2916 -91 2278 -91 
Q 1894 -91 1617 61 
Q 1341 213 1159 525 
L 1159 0 
L 581 0 
L 581 4863 
L 1159 4863 
L 1159 2969 
z
" transform="scale(0.015625)"/>
      <path id="DejaVuSans-63" d="M 3122 3366 
L 3122 2828 
Q 2878 2963 2633 3030 
Q 2388 3097 2138 3097 
Q 1578 3097 1268 2742 
Q 959 2388 959 1747 
Q 959 1106 1268 751 
Q 1578 397 2138 397 
Q 2388 397 2633 464 
Q 2878 531 3122 666 
L 3122 134 
Q 2881 22 2623 -34 
Q 2366 -91 2075 -91 
Q 1284 -91 818 406 
Q 353 903 353 1747 
Q 353 2603 823 3093 
Q 1294 3584 2113 3584 
Q 2378 3584 2631 3529 
Q 2884 3475 3122 3366 
z
" transform="scale(0.015625)"/>
      <path id="DejaVuSans-72" d="M 2631 2963 
Q 2534 3019 2420 3045 
Q 2306 3072 2169 3072 
Q 1681 3072 1420 2755 
Q 1159 2438 1159 1844 
L 1159 0 
L 581 0 
L 581 3500 
L 1159 3500 
L 1159 2956 
Q 1341 3275 1631 3429 
Q 1922 3584 2338 3584 
Q 2397 3584 2469 3576 
Q 2541 3569 2628 3553 
L 2631 2963 
z
" transform="scale(0.015625)"/>
      <path id="DejaVuSans-69" d="M 603 3500 
L 1178 3500 
L 1178 0 
L 603 0 
L 603 3500 
z
M 603 4863 
L 1178 4863 
L 1178 4134 
L 603 4134 
L 603 4863 
z
" transform="scale(0.015625)"/>
      <path id="DejaVuSans-20" transform="scale(0.015625)"/>
      <path id="DejaVuSans-68" d="M 3513 2113 
L 3513 0 
L 2938 0 
L 2938 2094 
Q 2938 2591 2744 2837 
Q 2550 3084 2163 3084 
Q 1697 3084 1428 2787 
Q 1159 2491 1159 1978 
L 1159 0 
L 581 0 
L 581 4863 
L 1159 4863 
L 1159 2956 
Q 1366 3272 1645 3428 
Q 1925 3584 2291 3584 
Q 2894 3584 3203 3211 
Q 3513 2838 3513 2113 
z
" transform="scale(0.015625)"/>
      <path id="DejaVuSans-6f" d="M 1959 3097 
Q 1497 3097 1228 2736 
Q 959 2375 959 1747 
Q 959 1119 1226 758 
Q 1494 397 1959 397 
Q 2419 397 2687 759 
Q 2956 1122 2956 1747 
Q 2956 2369 2687 2733 
Q 2419 3097 1959 3097 
z
M 1959 3584 
Q 2709 3584 3137 3096 
Q 3566 2609 3566 1747 
Q 3566 888 3137 398 
Q 2709 -91 1959 -91 
Q 1206 -91 779 398 
Q 353 888 353 1747 
Q 353 2609 779 3096 
Q 1206 3584 1959 3584 
z
" transform="scale(0.015625)"/>
      <path id="DejaVuSans-79" d="M 2059 -325 
Q 1816 -950 1584 -1140 
Q 1353 -1331 966 -1331 
L 506 -1331 
L 506 -850 
L 844 -850 
Q 1081 -850 1212 -737 
Q 1344 -625 1503 -206 
L 1606 56 
L 191 3500 
L 800 3500 
L 1894 763 
L 2988 3500 
L 3597 3500 
L 2059 -325 
z
" transform="scale(0.015625)"/>
     </defs>
     <use xlink:href="#DejaVuSans-67"/>
     <use xlink:href="#DejaVuSans-65" transform="translate(63.476562 0)"/>
     <use xlink:href="#DejaVuSans-74" transform="translate(125 0)"/>
     <use xlink:href="#DejaVuSans-5f" transform="translate(164.208984 0)"/>
     <use xlink:href="#DejaVuSans-73" transform="translate(214.208984 0)"/>
     <use xlink:href="#DejaVuSans-75" transform="translate(266.308594 0)"/>
     <use xlink:href="#DejaVuSans-62" transform="translate(329.6875 0)"/>
     <use xlink:href="#DejaVuSans-73" transform="translate(393.164062 0)"/>
     <use xlink:href="#DejaVuSans-63" transform="translate(445.263672 0)"/>
     <use xlink:href="#DejaVuSans-72" transform="translate(500.244141 0)"/>
     <use xlink:href="#DejaVuSans-69" transform="translate(541.357422 0)"/>
     <use xlink:href="#DejaVuSans-62" transform="translate(569.140625 0)"/>
     <use xlink:href="#DejaVuSans-65" transform="translate(632.617188 0)"/>
     <use xlink:href="#DejaVuSans-20" transform="translate(694.140625 0)"/>
     <use xlink:href="#DejaVuSans-68" transform="translate(725.927734 0)"/>
     <use xlink:href="#DejaVuSans-69" transform="translate(789.306641 0)"/>
     <use xlink:href="#DejaVuSans-73" transform="translate(817.089844 0)"/>
     <use xlink:href="#DejaVuSans-74" transform="translate(869.189453 0)"/>
     <use xlink:href="#DejaVuSans-6f" transform="translate(908.398438 0)"/>
     <use xlink:href="#DejaVuSans-72" transform="translate(969.580078 0)"/>
     <use xlink:href="#DejaVuSans-79" transform="translate(1010.693359 0)"/>
    </g>
   </g>
   <g id="legend_1">
    <g id="line2d_33">
     <path d="M 815.08 328.498438 
L 825.08 328.498438 
L 835.08 328.498438 
" style="fill: none; stroke: #1f77b4; stroke-width: 1.5; stroke-linecap: square"/>
    </g>
    <g id="text_17">
     <!-- star -->
     <g style="fill: #a9a9a9" transform="translate(843.08 331.998438) scale(0.1 -0.1)">
      <defs>
       <path id="DejaVuSans-61" d="M 2194 1759 
Q 1497 1759 1228 1600 
Q 959 1441 959 1056 
Q 959 750 1161 570 
Q 1363 391 1709 391 
Q 2188 391 2477 730 
Q 2766 1069 2766 1631 
L 2766 1759 
L 2194 1759 
z
M 3341 1997 
L 3341 0 
L 2766 0 
L 2766 531 
Q 2569 213 2275 61 
Q 1981 -91 1556 -91 
Q 1019 -91 701 211 
Q 384 513 384 1019 
Q 384 1609 779 1909 
Q 1175 2209 1959 2209 
L 2766 2209 
L 2766 2266 
Q 2766 2663 2505 2880 
Q 2244 3097 1772 3097 
Q 1472 3097 1187 3025 
Q 903 2953 641 2809 
L 641 3341 
Q 956 3463 1253 3523 
Q 1550 3584 1831 3584 
Q 2591 3584 2966 3190 
Q 3341 2797 3341 1997 
z
" transform="scale(0.015625)"/>
      </defs>
      <use xlink:href="#DejaVuSans-73"/>
      <use xlink:href="#DejaVuSans-74" transform="translate(52.099609 0)"/>
      <use xlink:href="#DejaVuSans-61" transform="translate(91.308594 0)"/>
      <use xlink:href="#DejaVuSans-72" transform="translate(152.587891 0)"/>
     </g>
    </g>
    <g id="line2d_34">
     <path d="M 815.08 343.176562 
L 825.08 343.176562 
L 835.08 343.176562 
" style="fill: none; stroke: #ff7f0e; stroke-width: 1.5; stroke-linecap: square"/>
    </g>
    <g id="text_18">
     <!-- fork -->
     <g style="fill: #a9a9a9" transform="translate(843.08 346.676562) scale(0.1 -0.1)">
      <defs>
       <path id="DejaVuSans-66" d="M 2375 4863 
L 2375 4384 
L 1825 4384 
Q 1516 4384 1395 4259 
Q 1275 4134 1275 3809 
L 1275 3500 
L 2222 3500 
L 2222 3053 
L 1275 3053 
L 1275 0 
L 697 0 
L 697 3053 
L 147 3053 
L 147 3500 
L 697 3500 
L 697 3744 
Q 697 4328 969 4595 
Q 1241 4863 1831 4863 
L 2375 4863 
z
" transform="scale(0.015625)"/>
       <path id="DejaVuSans-6b" d="M 581 4863 
L 1159 4863 
L 1159 1991 
L 2875 3500 
L 3609 3500 
L 1753 1863 
L 3688 0 
L 2938 0 
L 1159 1709 
L 1159 0 
L 581 0 
L 581 4863 
z
" transform="scale(0.015625)"/>
      </defs>
      <use xlink:href="#DejaVuSans-66"/>
      <use xlink:href="#DejaVuSans-6f" transform="translate(35.205078 0)"/>
      <use xlink:href="#DejaVuSans-72" transform="translate(96.386719 0)"/>
      <use xlink:href="#DejaVuSans-6b" transform="translate(137.5 0)"/>
     </g>
    </g>
   </g>
  </g>
 </g>
 <defs>
  <clipPath id="p77aa863d73">
   <rect x="108" y="43.2" width="669.6" height="277.2"/>
  </clipPath>
 </defs>
</svg>
