<?xml version="1.0" encoding="utf-8" standalone="no"?>
<!DOCTYPE svg PUBLIC "-//W3C//DTD SVG 1.1//EN"
  "http://www.w3.org/Graphics/SVG/1.1/DTD/svg11.dtd">
<svg xmlns:xlink="http://www.w3.org/1999/xlink" width="864pt" height="360pt" viewBox="0 0 864 360" xmlns="http://www.w3.org/2000/svg" version="1.1">
 <metadata>
  <rdf:RDF xmlns:dc="http://purl.org/dc/elements/1.1/" xmlns:cc="http://creativecommons.org/ns#" xmlns:rdf="http://www.w3.org/1999/02/22-rdf-syntax-ns#">
   <cc:Work>
    <dc:type rdf:resource="http://purl.org/dc/dcmitype/StillImage"/>
    <dc:date>2025-10-30T20:07:06.152957</dc:date>
    <dc:format>image/svg+xml</dc:format>
    <dc:creator>
     <cc:Agent>
      <dc:title>Matplotlib v3.10.7, https://matplotlib.org/</dc:title>
     </cc:Agent>
    </dc:creator>
   </cc:Work>
  </rdf:RDF>
 </metadata>
 <defs>
  <style type="text/css">*{stroke-linejoin: round; stroke-linecap: butt}</style>
 </defs>
 <g id="figure_1">
  <g id="patch_1">
   <path d="M 0 360 
L 864 360 
L 864 0 
L 0 0 
L 0 360 
z
" style="fill: none; opacity: 0"/>
  </g>
  <g id="axes_1">
   <g id="patch_2">
    <path d="M 108 320.4 
L 777.6 320.4 
L 777.6 43.2 
L 108 43.2 
L 108 320.4 
z
" style="fill: none; opacity: 0"/>
   </g>
   <g id="matplotlib.axis_1">
    <g id="xtick_1">
     <g id="line2d_1">
      <path d="M 129.455782 320.4 
L 129.455782 43.2 
" clip-path="url(#p9796ebfbab)" style="fill: none; stroke-dasharray: 5.12,1.28,0.8,1.28; stroke-dashoffset: 0; stroke: #b0b0b0; stroke-width: 0.8"/>
     </g>
     <g id="line2d_2">
      <defs>
       <path id="m254d69698c" d="M 0 0 
L 0 3.5 
" style="stroke: #a9a9a9; stroke-width: 0.8"/>
      </defs>
      <g>
       <use xlink:href="#m254d69698c" x="129.455782" y="320.4" style="fill: #a9a9a9; stroke: #a9a9a9; stroke-width: 0.8"/>
      </g>
     </g>
     <g id="text_1">
      <!-- 2021-07 -->
      <g style="fill: #a9a9a9" transform="translate(108.564375 334.998438) scale(0.1 -0.1)">
       <defs>
        <path id="DejaVuSans-32" d="M 1228 531 
L 3431 531 
L 3431 0 
L 469 0 
L 469 531 
Q 828 903 1448 1529 
Q 2069 2156 2228 2338 
Q 2531 2678 2651 2914 
Q 2772 3150 2772 3378 
Q 2772 3750 2511 3984 
Q 2250 4219 1831 4219 
Q 1534 4219 1204 4116 
Q 875 4013 500 3803 
L 500 4441 
Q 881 4594 1212 4672 
Q 1544 4750 1819 4750 
Q 2544 4750 2975 4387 
Q 3406 4025 3406 3419 
Q 3406 3131 3298 2873 
Q 3191 2616 2906 2266 
Q 2828 2175 2409 1742 
Q 1991 1309 1228 531 
z
" transform="scale(0.015625)"/>
        <path id="DejaVuSans-30" d="M 2034 4250 
Q 1547 4250 1301 3770 
Q 1056 3291 1056 2328 
Q 1056 1369 1301 889 
Q 1547 409 2034 409 
Q 2525 409 2770 889 
Q 3016 1369 3016 2328 
Q 3016 3291 2770 3770 
Q 2525 4250 2034 4250 
z
M 2034 4750 
Q 2819 4750 3233 4129 
Q 3647 3509 3647 2328 
Q 3647 1150 3233 529 
Q 2819 -91 2034 -91 
Q 1250 -91 836 529 
Q 422 1150 422 2328 
Q 422 3509 836 4129 
Q 1250 4750 2034 4750 
z
" transform="scale(0.015625)"/>
        <path id="DejaVuSans-31" d="M 794 531 
L 1825 531 
L 1825 4091 
L 703 3866 
L 703 4441 
L 1819 4666 
L 2450 4666 
L 2450 531 
L 3481 531 
L 3481 0 
L 794 0 
L 794 531 
z
" transform="scale(0.015625)"/>
        <path id="DejaVuSans-2d" d="M 313 2009 
L 1997 2009 
L 1997 1497 
L 313 1497 
L 313 2009 
z
" transform="scale(0.015625)"/>
        <path id="DejaVuSans-37" d="M 525 4666 
L 3525 4666 
L 3525 4397 
L 1831 0 
L 1172 0 
L 2766 4134 
L 525 4134 
L 525 4666 
z
" transform="scale(0.015625)"/>
       </defs>
       <use xlink:href="#DejaVuSans-32"/>
       <use xlink:href="#DejaVuSans-30" transform="translate(63.623047 0)"/>
       <use xlink:href="#DejaVuSans-32" transform="translate(127.246094 0)"/>
       <use xlink:href="#DejaVuSans-31" transform="translate(190.869141 0)"/>
       <use xlink:href="#DejaVuSans-2d" transform="translate(254.492188 0)"/>
       <use xlink:href="#DejaVuSans-30" transform="translate(290.576172 0)"/>
       <use xlink:href="#DejaVuSans-37" transform="translate(354.199219 0)"/>
      </g>
     </g>
    </g>
    <g id="xtick_2">
     <g id="line2d_3">
      <path d="M 201.300437 320.4 
L 201.300437 43.2 
" clip-path="url(#p9796ebfbab)" style="fill: none; stroke-dasharray: 5.12,1.28,0.8,1.28; stroke-dashoffset: 0; stroke: #b0b0b0; stroke-width: 0.8"/>
     </g>
     <g id="line2d_4">
      <g>
       <use xlink:href="#m254d69698c" x="201.300437" y="320.4" style="fill: #a9a9a9; stroke: #a9a9a9; stroke-width: 0.8"/>
      </g>
     </g>
     <g id="text_2">
      <!-- 2022-01 -->
      <g style="fill: #a9a9a9" transform="translate(180.409031 334.998438) scale(0.1 -0.1)">
       <use xlink:href="#DejaVuSans-32"/>
       <use xlink:href="#DejaVuSans-30" transform="translate(63.623047 0)"/>
       <use xlink:href="#DejaVuSans-32" transform="translate(127.246094 0)"/>
       <use xlink:href="#DejaVuSans-32" transform="translate(190.869141 0)"/>
       <use xlink:href="#DejaVuSans-2d" transform="translate(254.492188 0)"/>
       <use xlink:href="#DejaVuSans-30" transform="translate(290.576172 0)"/>
       <use xlink:href="#DejaVuSans-31" transform="translate(354.199219 0)"/>
      </g>
     </g>
    </g>
    <g id="xtick_3">
     <g id="line2d_5">
      <path d="M 271.973713 320.4 
L 271.973713 43.2 
" clip-path="url(#p9796ebfbab)" style="fill: none; stroke-dasharray: 5.12,1.28,0.8,1.28; stroke-dashoffset: 0; stroke: #b0b0b0; stroke-width: 0.8"/>
     </g>
     <g id="line2d_6">
      <g>
       <use xlink:href="#m254d69698c" x="271.973713" y="320.4" style="fill: #a9a9a9; stroke: #a9a9a9; stroke-width: 0.8"/>
      </g>
     </g>
     <g id="text_3">
      <!-- 2022-07 -->
      <g style="fill: #a9a9a9" transform="translate(251.082307 334.998438) scale(0.1 -0.1)">
       <use xlink:href="#DejaVuSans-32"/>
       <use xlink:href="#DejaVuSans-30" transform="translate(63.623047 0)"/>
       <use xlink:href="#DejaVuSans-32" transform="translate(127.246094 0)"/>
       <use xlink:href="#DejaVuSans-32" transform="translate(190.869141 0)"/>
       <use xlink:href="#DejaVuSans-2d" transform="translate(254.492188 0)"/>
       <use xlink:href="#DejaVuSans-30" transform="translate(290.576172 0)"/>
       <use xlink:href="#DejaVuSans-37" transform="translate(354.199219 0)"/>
      </g>
     </g>
    </g>
    <g id="xtick_4">
     <g id="line2d_7">
      <path d="M 343.818368 320.4 
L 343.818368 43.2 
" clip-path="url(#p9796ebfbab)" style="fill: none; stroke-dasharray: 5.12,1.28,0.8,1.28; stroke-dashoffset: 0; stroke: #b0b0b0; stroke-width: 0.8"/>
     </g>
     <g id="line2d_8">
      <g>
       <use xlink:href="#m254d69698c" x="343.818368" y="320.4" style="fill: #a9a9a9; stroke: #a9a9a9; stroke-width: 0.8"/>
      </g>
     </g>
     <g id="text_4">
      <!-- 2023-01 -->
      <g style="fill: #a9a9a9" transform="translate(322.926962 334.998438) scale(0.1 -0.1)">
       <defs>
        <path id="DejaVuSans-33" d="M 2597 2516 
Q 3050 2419 3304 2112 
Q 3559 1806 3559 1356 
Q 3559 666 3084 287 
Q 2609 -91 1734 -91 
Q 1441 -91 1130 -33 
Q 819 25 488 141 
L 488 750 
Q 750 597 1062 519 
Q 1375 441 1716 441 
Q 2309 441 2620 675 
Q 2931 909 2931 1356 
Q 2931 1769 2642 2001 
Q 2353 2234 1838 2234 
L 1294 2234 
L 1294 2753 
L 1863 2753 
Q 2328 2753 2575 2939 
Q 2822 3125 2822 3475 
Q 2822 3834 2567 4026 
Q 2313 4219 1838 4219 
Q 1578 4219 1281 4162 
Q 984 4106 628 3988 
L 628 4550 
Q 988 4650 1302 4700 
Q 1616 4750 1894 4750 
Q 2613 4750 3031 4423 
Q 3450 4097 3450 3541 
Q 3450 3153 3228 2886 
Q 3006 2619 2597 2516 
z
" transform="scale(0.015625)"/>
       </defs>
       <use xlink:href="#DejaVuSans-32"/>
       <use xlink:href="#DejaVuSans-30" transform="translate(63.623047 0)"/>
       <use xlink:href="#DejaVuSans-32" transform="translate(127.246094 0)"/>
       <use xlink:href="#DejaVuSans-33" transform="translate(190.869141 0)"/>
       <use xlink:href="#DejaVuSans-2d" transform="translate(254.492188 0)"/>
       <use xlink:href="#DejaVuSans-30" transform="translate(290.576172 0)"/>
       <use xlink:href="#DejaVuSans-31" transform="translate(354.199219 0)"/>
      </g>
     </g>
    </g>
    <g id="xtick_5">
     <g id="line2d_9">
      <path d="M 414.491644 320.4 
L 414.491644 43.2 
" clip-path="url(#p9796ebfbab)" style="fill: none; stroke-dasharray: 5.12,1.28,0.8,1.28; stroke-dashoffset: 0; stroke: #b0b0b0; stroke-width: 0.8"/>
     </g>
     <g id="line2d_10">
      <g>
       <use xlink:href="#m254d69698c" x="414.491644" y="320.4" style="fill: #a9a9a9; stroke: #a9a9a9; stroke-width: 0.8"/>
      </g>
     </g>
     <g id="text_5">
      <!-- 2023-07 -->
      <g style="fill: #a9a9a9" transform="translate(393.600238 334.998438) scale(0.1 -0.1)">
       <use xlink:href="#DejaVuSans-32"/>
       <use xlink:href="#DejaVuSans-30" transform="translate(63.623047 0)"/>
       <use xlink:href="#DejaVuSans-32" transform="translate(127.246094 0)"/>
       <use xlink:href="#DejaVuSans-33" transform="translate(190.869141 0)"/>
       <use xlink:href="#DejaVuSans-2d" transform="translate(254.492188 0)"/>
       <use xlink:href="#DejaVuSans-30" transform="translate(290.576172 0)"/>
       <use xlink:href="#DejaVuSans-37" transform="translate(354.199219 0)"/>
      </g>
     </g>
    </g>
    <g id="xtick_6">
     <g id="line2d_11">
      <path d="M 486.336299 320.4 
L 486.336299 43.2 
" clip-path="url(#p9796ebfbab)" style="fill: none; stroke-dasharray: 5.12,1.28,0.8,1.28; stroke-dashoffset: 0; stroke: #b0b0b0; stroke-width: 0.8"/>
     </g>
     <g id="line2d_12">
      <g>
       <use xlink:href="#m254d69698c" x="486.336299" y="320.4" style="fill: #a9a9a9; stroke: #a9a9a9; stroke-width: 0.8"/>
      </g>
     </g>
     <g id="text_6">
      <!-- 2024-01 -->
      <g style="fill: #a9a9a9" transform="translate(465.444893 334.998438) scale(0.1 -0.1)">
       <defs>
        <path id="DejaVuSans-34" d="M 2419 4116 
L 825 1625 
L 2419 1625 
L 2419 4116 
z
M 2253 4666 
L 3047 4666 
L 3047 1625 
L 3713 1625 
L 3713 1100 
L 3047 1100 
L 3047 0 
L 2419 0 
L 2419 1100 
L 313 1100 
L 313 1709 
L 2253 4666 
z
" transform="scale(0.015625)"/>
       </defs>
       <use xlink:href="#DejaVuSans-32"/>
       <use xlink:href="#DejaVuSans-30" transform="translate(63.623047 0)"/>
       <use xlink:href="#DejaVuSans-32" transform="translate(127.246094 0)"/>
       <use xlink:href="#DejaVuSans-34" transform="translate(190.869141 0)"/>
       <use xlink:href="#DejaVuSans-2d" transform="translate(254.492188 0)"/>
       <use xlink:href="#DejaVuSans-30" transform="translate(290.576172 0)"/>
       <use xlink:href="#DejaVuSans-31" transform="translate(354.199219 0)"/>
      </g>
     </g>
    </g>
    <g id="xtick_7">
     <g id="line2d_13">
      <path d="M 557.400035 320.4 
L 557.400035 43.2 
" clip-path="url(#p9796ebfbab)" style="fill: none; stroke-dasharray: 5.12,1.28,0.8,1.28; stroke-dashoffset: 0; stroke: #b0b0b0; stroke-width: 0.8"/>
     </g>
     <g id="line2d_14">
      <g>
       <use xlink:href="#m254d69698c" x="557.400035" y="320.4" style="fill: #a9a9a9; stroke: #a9a9a9; stroke-width: 0.8"/>
      </g>
     </g>
     <g id="text_7">
      <!-- 2024-07 -->
      <g style="fill: #a9a9a9" transform="translate(536.508629 334.998438) scale(0.1 -0.1)">
       <use xlink:href="#DejaVuSans-32"/>
       <use xlink:href="#DejaVuSans-30" transform="translate(63.623047 0)"/>
       <use xlink:href="#DejaVuSans-32" transform="translate(127.246094 0)"/>
       <use xlink:href="#DejaVuSans-34" transform="translate(190.869141 0)"/>
       <use xlink:href="#DejaVuSans-2d" transform="translate(254.492188 0)"/>
       <use xlink:href="#DejaVuSans-30" transform="translate(290.576172 0)"/>
       <use xlink:href="#DejaVuSans-37" transform="translate(354.199219 0)"/>
      </g>
     </g>
    </g>
    <g id="xtick_8">
     <g id="line2d_15">
      <path d="M 629.244691 320.4 
L 629.244691 43.2 
" clip-path="url(#p9796ebfbab)" style="fill: none; stroke-dasharray: 5.12,1.28,0.8,1.28; stroke-dashoffset: 0; stroke: #b0b0b0; stroke-width: 0.8"/>
     </g>
     <g id="line2d_16">
      <g>
       <use xlink:href="#m254d69698c" x="629.244691" y="320.4" style="fill: #a9a9a9; stroke: #a9a9a9; stroke-width: 0.8"/>
      </g>
     </g>
     <g id="text_8">
      <!-- 2025-01 -->
      <g style="fill: #a9a9a9" transform="translate(608.353284 334.998438) scale(0.1 -0.1)">
       <defs>
        <path id="DejaVuSans-35" d="M 691 4666 
L 3169 4666 
L 3169 4134 
L 1269 4134 
L 1269 2991 
Q 1406 3038 1543 3061 
Q 1681 3084 1819 3084 
Q 2600 3084 3056 2656 
Q 3513 2228 3513 1497 
Q 3513 744 3044 326 
Q 2575 -91 1722 -91 
Q 1428 -91 1123 -41 
Q 819 9 494 109 
L 494 744 
Q 775 591 1075 516 
Q 1375 441 1709 441 
Q 2250 441 2565 725 
Q 2881 1009 2881 1497 
Q 2881 1984 2565 2268 
Q 2250 2553 1709 2553 
Q 1456 2553 1204 2497 
Q 953 2441 691 2322 
L 691 4666 
z
" transform="scale(0.015625)"/>
       </defs>
       <use xlink:href="#DejaVuSans-32"/>
       <use xlink:href="#DejaVuSans-30" transform="translate(63.623047 0)"/>
       <use xlink:href="#DejaVuSans-32" transform="translate(127.246094 0)"/>
       <use xlink:href="#DejaVuSans-35" transform="translate(190.869141 0)"/>
       <use xlink:href="#DejaVuSans-2d" transform="translate(254.492188 0)"/>
       <use xlink:href="#DejaVuSans-30" transform="translate(290.576172 0)"/>
       <use xlink:href="#DejaVuSans-31" transform="translate(354.199219 0)"/>
      </g>
     </g>
    </g>
    <g id="xtick_9">
     <g id="line2d_17">
      <path d="M 699.917966 320.4 
L 699.917966 43.2 
" clip-path="url(#p9796ebfbab)" style="fill: none; stroke-dasharray: 5.12,1.28,0.8,1.28; stroke-dashoffset: 0; stroke: #b0b0b0; stroke-width: 0.8"/>
     </g>
     <g id="line2d_18">
      <g>
       <use xlink:href="#m254d69698c" x="699.917966" y="320.4" style="fill: #a9a9a9; stroke: #a9a9a9; stroke-width: 0.8"/>
      </g>
     </g>
     <g id="text_9">
      <!-- 2025-07 -->
      <g style="fill: #a9a9a9" transform="translate(679.02656 334.998438) scale(0.1 -0.1)">
       <use xlink:href="#DejaVuSans-32"/>
       <use xlink:href="#DejaVuSans-30" transform="translate(63.623047 0)"/>
       <use xlink:href="#DejaVuSans-32" transform="translate(127.246094 0)"/>
       <use xlink:href="#DejaVuSans-35" transform="translate(190.869141 0)"/>
       <use xlink:href="#DejaVuSans-2d" transform="translate(254.492188 0)"/>
       <use xlink:href="#DejaVuSans-30" transform="translate(290.576172 0)"/>
       <use xlink:href="#DejaVuSans-37" transform="translate(354.199219 0)"/>
      </g>
     </g>
    </g>
    <g id="xtick_10">
     <g id="line2d_19">
      <path d="M 771.762622 320.4 
L 771.762622 43.2 
" clip-path="url(#p9796ebfbab)" style="fill: none; stroke-dasharray: 5.12,1.28,0.8,1.28; stroke-dashoffset: 0; stroke: #b0b0b0; stroke-width: 0.8"/>
     </g>
     <g id="line2d_20">
      <g>
       <use xlink:href="#m254d69698c" x="771.762622" y="320.4" style="fill: #a9a9a9; stroke: #a9a9a9; stroke-width: 0.8"/>
      </g>
     </g>
     <g id="text_10">
      <!-- 2026-01 -->
      <g style="fill: #a9a9a9" transform="translate(750.871215 334.998438) scale(0.1 -0.1)">
       <defs>
        <path id="DejaVuSans-36" d="M 2113 2584 
Q 1688 2584 1439 2293 
Q 1191 2003 1191 1497 
Q 1191 994 1439 701 
Q 1688 409 2113 409 
Q 2538 409 2786 701 
Q 3034 994 3034 1497 
Q 3034 2003 2786 2293 
Q 2538 2584 2113 2584 
z
M 3366 4563 
L 3366 3988 
Q 3128 4100 2886 4159 
Q 2644 4219 2406 4219 
Q 1781 4219 1451 3797 
Q 1122 3375 1075 2522 
Q 1259 2794 1537 2939 
Q 1816 3084 2150 3084 
Q 2853 3084 3261 2657 
Q 3669 2231 3669 1497 
Q 3669 778 3244 343 
Q 2819 -91 2113 -91 
Q 1303 -91 875 529 
Q 447 1150 447 2328 
Q 447 3434 972 4092 
Q 1497 4750 2381 4750 
Q 2619 4750 2861 4703 
Q 3103 4656 3366 4563 
z
" transform="scale(0.015625)"/>
       </defs>
       <use xlink:href="#DejaVuSans-32"/>
       <use xlink:href="#DejaVuSans-30" transform="translate(63.623047 0)"/>
       <use xlink:href="#DejaVuSans-32" transform="translate(127.246094 0)"/>
       <use xlink:href="#DejaVuSans-36" transform="translate(190.869141 0)"/>
       <use xlink:href="#DejaVuSans-2d" transform="translate(254.492188 0)"/>
       <use xlink:href="#DejaVuSans-30" transform="translate(290.576172 0)"/>
       <use xlink:href="#DejaVuSans-31" transform="translate(354.199219 0)"/>
      </g>
     </g>
    </g>
   </g>
   <g id="matplotlib.axis_2">
    <g id="ytick_1">
     <g id="line2d_21">
      <path d="M 108 307.830413 
L 777.6 307.830413 
" clip-path="url(#p9796ebfbab)" style="fill: none; stroke-dasharray: 5.12,1.28,0.8,1.28; stroke-dashoffset: 0; stroke: #b0b0b0; stroke-width: 0.8"/>
     </g>
     <g id="line2d_22">
      <defs>
       <path id="ma331138733" d="M 0 0 
L -3.5 0 
" style="stroke: #a9a9a9; stroke-width: 0.8"/>
      </defs>
      <g>
       <use xlink:href="#ma331138733" x="108" y="307.830413" style="fill: #a9a9a9; stroke: #a9a9a9; stroke-width: 0.8"/>
      </g>
     </g>
     <g id="text_11">
      <!-- 0 -->
      <g style="fill: #a9a9a9" transform="translate(94.6375 311.629631) scale(0.1 -0.1)">
       <use xlink:href="#DejaVuSans-30"/>
      </g>
     </g>
    </g>
    <g id="ytick_2">
     <g id="line2d_23">
      <path d="M 108 277.417668 
L 777.6 277.417668 
" clip-path="url(#p9796ebfbab)" style="fill: none; stroke-dasharray: 5.12,1.28,0.8,1.28; stroke-dashoffset: 0; stroke: #b0b0b0; stroke-width: 0.8"/>
     </g>
     <g id="line2d_24">
      <g>
       <use xlink:href="#ma331138733" x="108" y="277.417668" style="fill: #a9a9a9; stroke: #a9a9a9; stroke-width: 0.8"/>
      </g>
     </g>
     <g id="text_12">
      <!-- 1000 -->
      <g style="fill: #a9a9a9" transform="translate(75.55 281.216887) scale(0.1 -0.1)">
       <use xlink:href="#DejaVuSans-31"/>
       <use xlink:href="#DejaVuSans-30" transform="translate(63.623047 0)"/>
       <use xlink:href="#DejaVuSans-30" transform="translate(127.246094 0)"/>
       <use xlink:href="#DejaVuSans-30" transform="translate(190.869141 0)"/>
      </g>
     </g>
    </g>
    <g id="ytick_3">
     <g id="line2d_25">
      <path d="M 108 247.004924 
L 777.6 247.004924 
" clip-path="url(#p9796ebfbab)" style="fill: none; stroke-dasharray: 5.12,1.28,0.8,1.28; stroke-dashoffset: 0; stroke: #b0b0b0; stroke-width: 0.8"/>
     </g>
     <g id="line2d_26">
      <g>
       <use xlink:href="#ma331138733" x="108" y="247.004924" style="fill: #a9a9a9; stroke: #a9a9a9; stroke-width: 0.8"/>
      </g>
     </g>
     <g id="text_13">
      <!-- 2000 -->
      <g style="fill: #a9a9a9" transform="translate(75.55 250.804143) scale(0.1 -0.1)">
       <use xlink:href="#DejaVuSans-32"/>
       <use xlink:href="#DejaVuSans-30" transform="translate(63.623047 0)"/>
       <use xlink:href="#DejaVuSans-30" transform="translate(127.246094 0)"/>
       <use xlink:href="#DejaVuSans-30" transform="translate(190.869141 0)"/>
      </g>
     </g>
    </g>
    <g id="ytick_4">
     <g id="line2d_27">
      <path d="M 108 216.59218 
L 777.6 216.59218 
" clip-path="url(#p9796ebfbab)" style="fill: none; stroke-dasharray: 5.12,1.28,0.8,1.28; stroke-dashoffset: 0; stroke: #b0b0b0; stroke-width: 0.8"/>
     </g>
     <g id="line2d_28">
      <g>
       <use xlink:href="#ma331138733" x="108" y="216.59218" style="fill: #a9a9a9; stroke: #a9a9a9; stroke-width: 0.8"/>
      </g>
     </g>
     <g id="text_14">
      <!-- 3000 -->
      <g style="fill: #a9a9a9" transform="translate(75.55 220.391398) scale(0.1 -0.1)">
       <use xlink:href="#DejaVuSans-33"/>
       <use xlink:href="#DejaVuSans-30" transform="translate(63.623047 0)"/>
       <use xlink:href="#DejaVuSans-30" transform="translate(127.246094 0)"/>
       <use xlink:href="#DejaVuSans-30" transform="translate(190.869141 0)"/>
      </g>
     </g>
    </g>
    <g id="ytick_5">
     <g id="line2d_29">
      <path d="M 108 186.179435 
L 777.6 186.179435 
" clip-path="url(#p9796ebfbab)" style="fill: none; stroke-dasharray: 5.12,1.28,0.8,1.28; stroke-dashoffset: 0; stroke: #b0b0b0; stroke-width: 0.8"/>
     </g>
     <g id="line2d_30">
      <g>
       <use xlink:href="#ma331138733" x="108" y="186.179435" style="fill: #a9a9a9; stroke: #a9a9a9; stroke-width: 0.8"/>
      </g>
     </g>
     <g id="text_15">
      <!-- 4000 -->
      <g style="fill: #a9a9a9" transform="translate(75.55 189.978654) scale(0.1 -0.1)">
       <use xlink:href="#DejaVuSans-34"/>
       <use xlink:href="#DejaVuSans-30" transform="translate(63.623047 0)"/>
       <use xlink:href="#DejaVuSans-30" transform="translate(127.246094 0)"/>
       <use xlink:href="#DejaVuSans-30" transform="translate(190.869141 0)"/>
      </g>
     </g>
    </g>
    <g id="ytick_6">
     <g id="line2d_31">
      <path d="M 108 155.766691 
L 777.6 155.766691 
" clip-path="url(#p9796ebfbab)" style="fill: none; stroke-dasharray: 5.12,1.28,0.8,1.28; stroke-dashoffset: 0; stroke: #b0b0b0; stroke-width: 0.8"/>
     </g>
     <g id="line2d_32">
      <g>
       <use xlink:href="#ma331138733" x="108" y="155.766691" style="fill: #a9a9a9; stroke: #a9a9a9; stroke-width: 0.8"/>
      </g>
     </g>
     <g id="text_16">
      <!-- 5000 -->
      <g style="fill: #a9a9a9" transform="translate(75.55 159.56591) scale(0.1 -0.1)">
       <use xlink:href="#DejaVuSans-35"/>
       <use xlink:href="#DejaVuSans-30" transform="translate(63.623047 0)"/>
       <use xlink:href="#DejaVuSans-30" transform="translate(127.246094 0)"/>
       <use xlink:href="#DejaVuSans-30" transform="translate(190.869141 0)"/>
      </g>
     </g>
    </g>
    <g id="ytick_7">
     <g id="line2d_33">
      <path d="M 108 125.353946 
L 777.6 125.353946 
" clip-path="url(#p9796ebfbab)" style="fill: none; stroke-dasharray: 5.12,1.28,0.8,1.28; stroke-dashoffset: 0; stroke: #b0b0b0; stroke-width: 0.8"/>
     </g>
     <g id="line2d_34">
      <g>
       <use xlink:href="#ma331138733" x="108" y="125.353946" style="fill: #a9a9a9; stroke: #a9a9a9; stroke-width: 0.8"/>
      </g>
     </g>
     <g id="text_17">
      <!-- 6000 -->
      <g style="fill: #a9a9a9" transform="translate(75.55 129.153165) scale(0.1 -0.1)">
       <use xlink:href="#DejaVuSans-36"/>
       <use xlink:href="#DejaVuSans-30" transform="translate(63.623047 0)"/>
       <use xlink:href="#DejaVuSans-30" transform="translate(127.246094 0)"/>
       <use xlink:href="#DejaVuSans-30" transform="translate(190.869141 0)"/>
      </g>
     </g>
    </g>
    <g id="ytick_8">
     <g id="line2d_35">
      <path d="M 108 94.941202 
L 777.6 94.941202 
" clip-path="url(#p9796ebfbab)" style="fill: none; stroke-dasharray: 5.12,1.28,0.8,1.28; stroke-dashoffset: 0; stroke: #b0b0b0; stroke-width: 0.8"/>
     </g>
     <g id="line2d_36">
      <g>
       <use xlink:href="#ma331138733" x="108" y="94.941202" style="fill: #a9a9a9; stroke: #a9a9a9; stroke-width: 0.8"/>
      </g>
     </g>
     <g id="text_18">
      <!-- 7000 -->
      <g style="fill: #a9a9a9" transform="translate(75.55 98.740421) scale(0.1 -0.1)">
       <use xlink:href="#DejaVuSans-37"/>
       <use xlink:href="#DejaVuSans-30" transform="translate(63.623047 0)"/>
       <use xlink:href="#DejaVuSans-30" transform="translate(127.246094 0)"/>
       <use xlink:href="#DejaVuSans-30" transform="translate(190.869141 0)"/>
      </g>
     </g>
    </g>
    <g id="ytick_9">
     <g id="line2d_37">
      <path d="M 108 64.528458 
L 777.6 64.528458 
" clip-path="url(#p9796ebfbab)" style="fill: none; stroke-dasharray: 5.12,1.28,0.8,1.28; stroke-dashoffset: 0; stroke: #b0b0b0; stroke-width: 0.8"/>
     </g>
     <g id="line2d_38">
      <g>
       <use xlink:href="#ma331138733" x="108" y="64.528458" style="fill: #a9a9a9; stroke: #a9a9a9; stroke-width: 0.8"/>
      </g>
     </g>
     <g id="text_19">
      <!-- 8000 -->
      <g style="fill: #a9a9a9" transform="translate(75.55 68.327676) scale(0.1 -0.1)">
       <defs>
        <path id="DejaVuSans-38" d="M 2034 2216 
Q 1584 2216 1326 1975 
Q 1069 1734 1069 1313 
Q 1069 891 1326 650 
Q 1584 409 2034 409 
Q 2484 409 2743 651 
Q 3003 894 3003 1313 
Q 3003 1734 2745 1975 
Q 2488 2216 2034 2216 
z
M 1403 2484 
Q 997 2584 770 2862 
Q 544 3141 544 3541 
Q 544 4100 942 4425 
Q 1341 4750 2034 4750 
Q 2731 4750 3128 4425 
Q 3525 4100 3525 3541 
Q 3525 3141 3298 2862 
Q 3072 2584 2669 2484 
Q 3125 2378 3379 2068 
Q 3634 1759 3634 1313 
Q 3634 634 3220 271 
Q 2806 -91 2034 -91 
Q 1263 -91 848 271 
Q 434 634 434 1313 
Q 434 1759 690 2068 
Q 947 2378 1403 2484 
z
M 1172 3481 
Q 1172 3119 1398 2916 
Q 1625 2713 2034 2713 
Q 2441 2713 2670 2916 
Q 2900 3119 2900 3481 
Q 2900 3844 2670 4047 
Q 2441 4250 2034 4250 
Q 1625 4250 1398 4047 
Q 1172 3844 1172 3481 
z
" transform="scale(0.015625)"/>
       </defs>
       <use xlink:href="#DejaVuSans-38"/>
       <use xlink:href="#DejaVuSans-30" transform="translate(63.623047 0)"/>
       <use xlink:href="#DejaVuSans-30" transform="translate(127.246094 0)"/>
       <use xlink:href="#DejaVuSans-30" transform="translate(190.869141 0)"/>
      </g>
     </g>
    </g>
   </g>
   <g id="line2d_39">
    <path d="M 138.436364 307.739175 
L 140.779124 307.526285 
L 141.169584 307.343809 
L 142.731425 307.13092 
L 144.293265 306.796379 
L 145.074185 306.674728 
L 147.026486 306.492252 
L 147.807406 306.188125 
L 148.197866 305.640695 
L 148.588326 305.36698 
L 148.978786 304.454598 
L 149.369246 304.393773 
L 150.150166 303.907169 
L 150.931086 303.329327 
L 152.492927 302.173642 
L 152.883387 302.021579 
L 153.664307 301.534975 
L 154.835687 300.957133 
L 155.226147 300.288052 
L 156.007067 299.679797 
L 156.787988 299.436495 
L 157.959368 299.254019 
L 160.302128 298.889066 
L 160.692588 298.706589 
L 163.425809 298.463287 
L 164.987649 298.067922 
L 168.11133 297.611731 
L 168.50179 297.398841 
L 168.89225 297.338016 
L 169.67317 297.064301 
L 172.406391 296.577697 
L 173.187311 296.334395 
L 176.701452 295.72614 
L 177.482372 295.543664 
L 179.044212 295.330775 
L 179.825133 295.087473 
L 180.215593 294.509631 
L 181.386973 294.023027 
L 182.558353 293.688487 
L 182.948813 293.475597 
L 183.729734 293.323534 
L 185.291574 292.83693 
L 186.072494 292.776104 
L 186.853414 292.563215 
L 188.415255 292.137437 
L 188.805715 292.107024 
L 189.586635 291.711658 
L 189.977095 291.650833 
L 190.367555 291.437944 
L 194.662616 290.708038 
L 196.224456 290.221434 
L 196.614916 289.947719 
L 198.567217 289.278639 
L 199.348137 288.700797 
L 200.519517 288.457495 
L 205.595498 286.936857 
L 205.985958 286.876032 
L 207.547799 286.237364 
L 207.938259 286.176539 
L 208.719179 285.841999 
L 209.500099 285.811586 
L 210.671479 285.446633 
L 211.061939 285.446633 
L 211.4524 285.264156 
L 212.23332 285.172918 
L 212.62378 285.020854 
L 214.57608 284.929616 
L 214.96654 284.838378 
L 215.74746 284.4126 
L 216.918841 283.986821 
L 217.699761 283.561043 
L 218.871141 283.044026 
L 220.432982 282.222882 
L 220.823442 281.766691 
L 221.604362 280.489356 
L 221.994822 280.367705 
L 222.385282 280.367705 
L 223.947122 279.485735 
L 224.337582 279.394497 
L 224.728042 278.999131 
L 225.508963 278.664591 
L 226.289883 278.299638 
L 226.680343 277.813034 
L 227.070803 277.143954 
L 227.461263 276.870239 
L 227.851723 276.140333 
L 228.242183 275.684142 
L 230.584944 274.345981 
L 232.146784 272.886169 
L 232.537244 271.943374 
L 232.927704 271.335119 
L 233.318164 271.000579 
L 233.708624 270.818103 
L 238.394145 266.529906 
L 239.955986 265.526285 
L 240.346446 265.374222 
L 241.908286 264.401014 
L 242.298746 264.218537 
L 244.251047 262.332947 
L 245.031967 261.998407 
L 245.812887 261.420565 
L 246.203347 261.177263 
L 246.593807 261.116437 
L 247.765187 260.416944 
L 248.155648 259.960753 
L 250.107948 258.835482 
L 250.498408 258.683418 
L 251.669788 257.831861 
L 257.52669 255.642143 
L 258.30761 254.881825 
L 259.47899 254.27357 
L 260.25991 253.756553 
L 261.04083 253.513251 
L 261.43129 253.239537 
L 261.821751 253.117886 
L 262.993131 252.296741 
L 264.945431 251.84055 
L 266.116811 251.110644 
L 267.288192 250.83693 
L 267.678652 250.745692 
L 268.850032 249.833309 
L 270.411872 249.377118 
L 270.802332 249.042578 
L 273.145093 248.191021 
L 273.926013 248.038957 
L 274.706933 247.704417 
L 277.440154 246.639971 
L 278.221074 246.548733 
L 279.392454 246.122954 
L 281.344755 245.119334 
L 283.687515 243.75076 
L 284.468435 243.537871 
L 285.639816 242.929616 
L 286.420736 242.777552 
L 287.201656 242.290949 
L 287.982576 242.078059 
L 289.153956 241.591455 
L 290.715797 241.378566 
L 291.496717 240.952788 
L 291.887177 240.587835 
L 292.277637 239.857929 
L 293.839478 239.401738 
L 295.401318 238.671832 
L 298.915459 237.059957 
L 299.696379 236.87748 
L 300.867759 236.269225 
L 301.258219 236.2084 
L 303.21052 235.204779 
L 303.99144 234.687762 
L 305.16282 234.444461 
L 307.11512 233.927444 
L 307.505581 233.592904 
L 308.286501 233.319189 
L 310.238801 232.498045 
L 310.629261 232.193917 
L 311.019721 232.041854 
L 311.800641 231.585663 
L 313.362482 231.068646 
L 314.143402 230.551629 
L 314.533862 230.125851 
L 314.924322 229.882549 
L 315.314782 229.791311 
L 316.095702 229.12223 
L 316.486162 229.061405 
L 316.876623 228.392324 
L 317.267083 228.209848 
L 317.657543 227.875308 
L 318.048003 227.814482 
L 318.828923 227.297466 
L 319.609843 227.023751 
L 320.000303 226.719623 
L 320.390763 226.56756 
L 322.343064 225.290224 
L 324.685824 224.225778 
L 325.076284 223.526285 
L 325.857205 222.91803 
L 326.247665 222.826792 
L 328.590425 221.640695 
L 329.371345 221.306155 
L 330.152265 220.728313 
L 331.323646 219.603041 
L 332.104566 219.116437 
L 332.495026 218.660246 
L 334.056866 217.534975 
L 334.837786 216.713831 
L 335.618707 216.440116 
L 336.399627 215.892686 
L 337.571007 215.254019 
L 337.961467 215.193193 
L 341.475608 213.338016 
L 342.256528 213.125127 
L 343.818368 212.547285 
L 344.208829 212.212744 
L 345.770669 211.574077 
L 346.161129 211.452426 
L 346.942049 210.935409 
L 347.722969 210.600869 
L 348.503889 210.023027 
L 349.28481 208.411151 
L 350.06573 207.498769 
L 351.23711 206.860101 
L 352.01803 206.525561 
L 352.40849 206.464736 
L 353.18941 206.099783 
L 354.751251 205.552353 
L 355.532171 205.096162 
L 356.313091 204.700797 
L 356.703551 204.579146 
L 359.046312 203.119334 
L 359.436772 202.663143 
L 360.608152 201.96365 
L 360.998612 201.811586 
L 361.779532 201.324982 
L 363.341373 200.443012 
L 363.731833 200.351774 
L 364.122293 200.017234 
L 366.855513 199.104852 
L 367.245974 198.831137 
L 368.026894 198.587835 
L 371.150574 197.036785 
L 371.931495 196.611007 
L 372.321955 196.42853 
L 373.102875 195.789862 
L 373.883795 195.576973 
L 374.274255 195.21202 
L 374.664715 195.151195 
L 375.445635 194.54294 
L 377.397936 193.356843 
L 378.178856 193.113541 
L 378.569316 192.870239 
L 378.959776 192.809413 
L 380.521616 192.049095 
L 381.692997 191.653729 
L 382.473917 191.532078 
L 384.035757 190.923823 
L 384.426217 190.893411 
L 385.988058 190.285156 
L 387.159438 189.433599 
L 387.549898 189.281535 
L 388.330818 188.825344 
L 388.721278 188.734106 
L 391.064039 187.365532 
L 391.454499 187.274294 
L 392.625879 186.544388 
L 393.797259 186.11861 
L 394.578179 185.844895 
L 396.14002 185.297466 
L 396.92094 185.023751 
L 398.48278 184.689211 
L 399.263701 184.445909 
L 401.216001 183.776828 
L 402.387381 183.411875 
L 402.777841 183.259812 
L 403.949222 183.077335 
L 406.291982 182.621144 
L 407.463362 182.347429 
L 407.853822 182.164953 
L 408.634743 182.012889 
L 409.415663 181.8 
L 410.196583 181.435047 
L 410.587043 181.282983 
L 410.977503 181.282983 
L 415.272564 179.91441 
L 415.663024 179.701521 
L 416.053484 179.701521 
L 416.834404 179.397393 
L 417.224864 178.971615 
L 419.567625 177.967994 
L 421.129465 177.420565 
L 421.519925 177.177263 
L 422.691306 176.81231 
L 423.472226 176.599421 
L 423.862686 176.325706 
L 424.253146 176.234468 
L 424.643606 175.869515 
L 425.814986 175.626213 
L 426.595906 175.26126 
L 426.986367 174.774656 
L 431.281427 173.801448 
L 431.671888 173.801448 
L 432.452808 173.558146 
L 435.966949 172.645764 
L 436.357409 172.4937 
L 437.138329 172.341636 
L 439.090629 171.82462 
L 440.262009 171.459667 
L 442.21431 170.820999 
L 442.99523 170.486459 
L 443.77615 170.182332 
L 444.16661 169.908617 
L 444.94753 169.665315 
L 447.680751 168.600869 
L 449.242591 168.418392 
L 452.366272 167.232295 
L 452.756732 166.928168 
L 453.147192 166.83693 
L 453.537652 166.624041 
L 453.928112 166.593628 
L 458.223173 164.981752 
L 460.175474 164.434323 
L 460.956394 164.038957 
L 462.127774 163.765243 
L 463.689615 162.457495 
L 465.251455 161.758001 
L 466.813295 161.088921 
L 467.203755 160.997683 
L 467.594215 160.723968 
L 468.375136 160.480666 
L 468.765596 160.206951 
L 470.717896 159.537871 
L 474.622497 157.500217 
L 475.403417 157.135264 
L 475.793877 156.831137 
L 476.574797 156.557422 
L 478.917558 155.401738 
L 479.308018 155.3105 
L 480.479398 154.76307 
L 482.041239 154.215641 
L 482.822159 153.881101 
L 483.603079 153.75945 
L 483.993539 153.485735 
L 485.555379 153.181608 
L 486.336299 152.847067 
L 488.2886 151.904272 
L 493.364581 149.623316 
L 494.535961 149.227951 
L 494.926421 148.954236 
L 495.707342 148.862998 
L 496.097802 148.589283 
L 496.878722 148.467632 
L 497.659642 148.072266 
L 498.440562 147.828965 
L 500.002402 147.281535 
L 501.173783 146.855757 
L 503.126083 146.33874 
L 504.687923 145.66966 
L 505.468844 145.243881 
L 507.030684 144.422737 
L 507.811604 144.240261 
L 508.202064 143.996959 
L 508.592524 143.90572 
L 510.544825 142.932513 
L 513.668505 141.807241 
L 514.058966 141.68559 
L 514.839886 141.259812 
L 516.792186 140.560319 
L 519.134947 139.587111 
L 520.696787 138.826792 
L 524.601388 137.245329 
L 525.382308 136.849964 
L 525.772768 136.758726 
L 526.553688 136.454598 
L 526.944148 136.454598 
L 527.725069 136.089645 
L 529.286909 134.751484 
L 529.677369 134.629833 
L 530.067829 134.386531 
L 531.239209 134.051991 
L 531.629669 133.747864 
L 532.41059 133.474149 
L 533.58197 132.683418 
L 534.36289 132.470529 
L 535.14381 132.04475 
L 536.31519 131.771035 
L 538.267491 131.071542 
L 539.048411 130.82824 
L 540.219791 130.189573 
L 541.000711 129.794207 
L 541.781632 129.581318 
L 543.343472 128.851412 
L 543.733932 128.729761 
L 544.514852 128.364808 
L 546.467153 127.72614 
L 547.638533 126.965822 
L 548.028993 126.874584 
L 548.809913 126.479218 
L 549.590833 126.175091 
L 549.981293 125.810138 
L 551.152674 125.353946 
L 551.543134 125.293121 
L 553.104974 124.563215 
L 554.276354 124.198262 
L 555.447735 123.772484 
L 556.228655 123.529182 
L 557.009575 123.377118 
L 557.790495 122.920927 
L 558.180955 122.768863 
L 558.571415 122.464736 
L 559.742795 122.160608 
L 560.523716 121.856481 
L 561.304636 121.521941 
L 562.866476 120.883273 
L 565.599697 120.153367 
L 566.380617 119.84924 
L 567.942457 119.545112 
L 568.723377 119.393049 
L 569.894758 118.936857 
L 571.066138 118.693555 
L 573.408898 117.294569 
L 574.580279 116.564663 
L 576.923039 115.834757 
L 577.313499 115.53063 
L 580.43718 114.405358 
L 581.60856 114.040406 
L 582.38948 113.614627 
L 583.170401 113.401738 
L 583.560861 113.188849 
L 584.341781 113.036785 
L 585.903621 112.42853 
L 586.684541 111.911513 
L 587.855922 111.607386 
L 589.027302 110.816655 
L 589.417762 110.755829 
L 590.979602 110.117161 
L 592.541443 109.721796 
L 592.931903 109.66097 
L 593.322363 109.478494 
L 593.712823 109.448081 
L 594.493743 109.174366 
L 594.884203 109.143954 
L 596.055583 108.687762 
L 597.617424 108.231571 
L 598.398344 107.623316 
L 599.960184 106.741347 
L 600.350644 106.650109 
L 601.131565 106.345981 
L 604.645705 104.582042 
L 605.036165 104.217089 
L 606.988466 103.730485 
L 608.159846 103.183056 
L 608.940766 102.970167 
L 609.331226 102.78769 
L 609.721686 102.45315 
L 611.673987 101.753657 
L 616.749968 99.868067 
L 617.530888 99.716003 
L 619.483189 99.077335 
L 620.654569 98.560319 
L 623.387789 97.739175 
L 624.16871 97.282983 
L 626.90193 96.340188 
L 628.46377 95.823172 
L 629.635151 95.549457 
L 630.806531 95.184504 
L 631.196991 95.093266 
L 631.587451 94.849964 
L 632.368371 94.667487 
L 633.930212 94.211296 
L 634.320672 94.180883 
L 635.101592 93.81593 
L 637.834813 93.116437 
L 639.396653 92.538595 
L 639.787113 92.538595 
L 640.958493 92.264881 
L 641.739413 92.112817 
L 642.520334 91.899928 
L 643.691714 91.26126 
L 644.863094 90.896307 
L 647.596315 89.953512 
L 649.158155 89.162781 
L 650.329535 88.889066 
L 651.110455 88.645764 
L 651.891376 88.250398 
L 652.281836 87.915858 
L 653.062756 87.672556 
L 653.453216 87.429254 
L 654.234136 87.338016 
L 656.967357 86.547285 
L 658.138737 86.303983 
L 659.310117 85.999855 
L 660.091037 85.817379 
L 661.262418 85.209124 
L 666.338399 83.262708 
L 667.119319 83.141057 
L 667.900239 82.988993 
L 668.290699 82.988993 
L 669.462079 82.624041 
L 670.63346 82.259088 
L 674.1476 81.255467 
L 674.928521 81.042578 
L 675.318981 80.95134 
L 675.709441 80.708038 
L 676.490361 80.555974 
L 677.271281 80.464736 
L 677.661741 80.251846 
L 678.052201 80.221434 
L 678.833121 79.704417 
L 680.394962 79.369877 
L 681.175882 79.035337 
L 681.956802 78.761622 
L 682.737722 78.548733 
L 683.518642 78.214193 
L 683.909103 78.153367 
L 684.690023 77.879652 
L 685.861403 77.545112 
L 686.642323 77.484287 
L 687.813703 77.058508 
L 688.594624 76.936857 
L 691.327844 75.902824 
L 693.670605 75.507458 
L 694.451525 75.264156 
L 694.841985 75.203331 
L 695.622905 74.868791 
L 696.013365 74.807965 
L 696.403825 74.625489 
L 697.184745 73.956408 
L 701.089346 72.527009 
L 703.432107 71.888342 
L 704.213027 71.462563 
L 704.603487 71.371325 
L 705.774867 70.732657 
L 706.165327 70.641419 
L 706.555788 70.337292 
L 707.727168 70.002752 
L 713.974529 67.204779 
L 714.364989 67.143954 
L 716.70775 65.957857 
L 717.09821 65.714555 
L 718.26959 65.380014 
L 719.83143 64.741347 
L 720.22189 64.710934 
L 722.174191 63.981028 
L 722.955111 63.828965 
L 723.736031 63.251122 
L 724.126491 63.251122 
L 724.907412 62.977408 
L 725.297872 62.916582 
L 725.688332 62.703693 
L 727.250172 62.369153 
L 728.812012 61.700072 
L 729.202472 61.700072 
L 730.373853 61.304707 
L 731.154773 61.183056 
L 732.326153 60.513975 
L 733.107073 60.11861 
L 735.059374 59.479942 
L 735.840294 59.145402 
L 737.402134 58.628385 
L 739.744895 57.989718 
L 742.087655 57.198986 
L 742.868575 56.925272 
L 743.259036 56.864446 
L 744.039956 56.621144 
L 744.820876 56.408255 
L 747.163636 55.8 
L 747.163636 55.8 
" clip-path="url(#p9796ebfbab)" style="fill: none; stroke: #1f77b4; stroke-width: 1.5; stroke-linecap: square"/>
   </g>
   <g id="line2d_40">
    <path d="M 138.826824 307.8 
L 142.340964 307.708762 
L 145.464645 307.556698 
L 147.026486 307.556698 
L 147.416946 307.435047 
L 149.369246 307.343809 
L 151.712007 307.070094 
L 154.054767 306.978856 
L 154.835687 306.887618 
L 157.568908 306.765967 
L 160.302128 306.674728 
L 162.254429 306.613903 
L 167.33041 306.522665 
L 169.28271 306.461839 
L 172.796851 306.370601 
L 174.358691 306.340188 
L 178.263292 306.24895 
L 179.825133 306.096886 
L 181.386973 306.066474 
L 183.729734 305.975235 
L 185.291574 305.944823 
L 187.243874 305.883997 
L 188.805715 305.731933 
L 192.319855 305.640695 
L 193.100776 305.57987 
L 194.662616 305.488631 
L 197.005376 305.397393 
L 198.567217 305.306155 
L 205.595498 304.849964 
L 208.328719 304.758726 
L 209.500099 304.637075 
L 211.4524 304.545836 
L 215.357 304.332947 
L 219.261601 304.272122 
L 220.823442 304.089645 
L 222.775742 303.998407 
L 226.680343 303.603041 
L 229.023103 303.298914 
L 230.584944 303.238088 
L 233.708624 302.81231 
L 236.051385 302.751484 
L 237.222765 302.629833 
L 238.394145 302.538595 
L 249.327028 301.656626 
L 250.107948 301.504562 
L 252.450708 301.413324 
L 258.69807 301.017958 
L 261.43129 300.92672 
L 262.993131 300.744243 
L 264.945431 300.653005 
L 267.288192 300.561767 
L 269.240492 300.470529 
L 270.802332 300.440116 
L 272.754633 300.37929 
L 273.535553 300.257639 
L 279.001994 300.166401 
L 279.782914 300.075163 
L 284.468435 299.983925 
L 287.982576 299.801448 
L 290.715797 299.71021 
L 292.277637 299.527734 
L 295.010858 299.436495 
L 295.791778 299.314844 
L 297.744078 299.254019 
L 301.648679 299.193193 
L 303.21052 299.04113 
L 304.77236 299.010717 
L 305.94374 298.919479 
L 307.505581 298.767415 
L 311.410181 298.554526 
L 315.314782 298.463287 
L 318.828923 298.280811 
L 320.000303 298.250398 
L 320.781223 298.128747 
L 322.733524 298.037509 
L 323.514444 297.976684 
L 324.295364 297.915858 
L 325.076284 297.855033 
L 328.980885 297.763794 
L 337.571007 297.185952 
L 338.351927 297.125127 
L 339.523307 297.033888 
L 342.256528 296.94265 
L 344.208829 296.881825 
L 349.67527 296.790587 
L 350.45619 296.699348 
L 355.922631 296.60811 
L 359.827232 296.395221 
L 360.608152 296.364808 
L 361.389072 296.27357 
L 363.341373 296.182332 
L 365.293673 296.121506 
L 367.245974 296.030268 
L 369.198274 295.969442 
L 372.712415 295.878204 
L 375.055175 295.786966 
L 380.521616 295.695728 
L 384.816677 295.452426 
L 386.378518 295.3916 
L 387.549898 295.300362 
L 393.016339 295.209124 
L 395.3591 295.117886 
L 402.387381 295.026647 
L 403.949222 294.996235 
L 408.634743 294.935409 
L 409.415663 294.874584 
L 414.882104 294.783345 
L 416.443944 294.752933 
L 426.595906 294.661694 
L 428.938667 294.570456 
L 445.337991 294.479218 
L 447.290291 294.418392 
L 457.442253 294.357567 
L 458.223173 294.296741 
L 460.175474 294.235916 
L 461.346854 294.114265 
L 463.689615 294.023027 
L 466.422835 293.901376 
L 469.936976 293.810138 
L 471.889276 293.749312 
L 474.622497 293.658074 
L 477.746178 293.50601 
L 479.698478 293.414772 
L 481.260318 293.384359 
L 487.89814 293.293121 
L 490.2409 293.201883 
L 494.535961 293.110644 
L 497.269182 292.988993 
L 500.002402 292.928168 
L 500.783323 292.867343 
L 510.154365 292.776104 
L 514.058966 292.563215 
L 516.792186 292.471977 
L 521.087247 292.228675 
L 523.820468 292.137437 
L 525.382308 292.107024 
L 528.115529 292.015786 
L 530.067829 291.802896 
L 533.97243 291.711658 
L 534.75335 291.62042 
L 538.657951 291.529182 
L 540.610251 291.468356 
L 544.905312 291.437944 
L 545.686232 291.346705 
L 549.981293 291.255467 
L 550.762214 291.194642 
L 559.352335 291.103403 
L 561.695096 291.012165 
L 567.551997 290.920927 
L 569.113838 290.890514 
L 572.627978 290.829689 
L 573.408898 290.73845 
L 578.48488 290.647212 
L 580.43718 290.586387 
L 587.465462 290.495148 
L 588.636842 290.40391 
L 589.808222 290.312672 
L 590.979602 290.221434 
L 596.836504 290.130196 
L 599.179264 290.038957 
L 610.502607 289.947719 
L 614.016747 289.765243 
L 619.483189 289.674004 
L 621.045029 289.643592 
L 625.73055 289.552353 
L 627.68285 289.491528 
L 635.882512 289.40029 
L 638.615733 289.278639 
L 645.644014 289.1874 
L 647.205855 289.156988 
L 651.110455 289.065749 
L 653.843676 288.944098 
L 658.138737 288.85286 
L 660.871958 288.731209 
L 664.386098 288.639971 
L 665.167018 288.579146 
L 673.75714 288.487907 
L 676.099901 288.396669 
L 678.833121 288.305431 
L 680.785422 288.244605 
L 692.108764 288.153367 
L 694.451525 288.062129 
L 700.698886 287.970891 
L 703.041647 287.879652 
L 708.117628 287.788414 
L 710.460388 287.697176 
L 713.584069 287.605938 
L 715.92683 287.514699 
L 731.545233 287.423461 
L 734.668914 287.271398 
L 743.649496 287.180159 
L 745.211336 287.149747 
L 747.163636 287.149747 
L 747.163636 287.149747 
" clip-path="url(#p9796ebfbab)" style="fill: none; stroke: #ff7f0e; stroke-width: 1.5; stroke-linecap: square"/>
   </g>
   <g id="patch_3">
    <path d="M 108 320.4 
L 108 43.2 
" style="fill: none; stroke: #a9a9a9; stroke-width: 0.8; stroke-linejoin: miter; stroke-linecap: square"/>
   </g>
   <g id="patch_4">
    <path d="M 777.6 320.4 
L 777.6 43.2 
" style="fill: none"/>
   </g>
   <g id="patch_5">
    <path d="M 108 320.4 
L 777.6 320.4 
" style="fill: none; stroke: #a9a9a9; stroke-width: 0.8; stroke-linejoin: miter; stroke-linecap: square"/>
   </g>
   <g id="patch_6">
    <path d="M 108 43.2 
L 777.6 43.2 
" style="fill: none"/>
   </g>
   <g id="text_20">
    <!-- get_subscribe history -->
    <g style="fill: #a9a9a9" transform="translate(378.6075 37.2) scale(0.12 -0.12)">
     <defs>
      <path id="DejaVuSans-67" d="M 2906 1791 
Q 2906 2416 2648 2759 
Q 2391 3103 1925 3103 
Q 1463 3103 1205 2759 
Q 947 2416 947 1791 
Q 947 1169 1205 825 
Q 1463 481 1925 481 
Q 2391 481 2648 825 
Q 2906 1169 2906 1791 
z
M 3481 434 
Q 3481 -459 3084 -895 
Q 2688 -1331 1869 -1331 
Q 1566 -1331 1297 -1286 
Q 1028 -1241 775 -1147 
L 775 -588 
Q 1028 -725 1275 -790 
Q 1522 -856 1778 -856 
Q 2344 -856 2625 -561 
Q 2906 -266 2906 331 
L 2906 616 
Q 2728 306 2450 153 
Q 2172 0 1784 0 
Q 1141 0 747 490 
Q 353 981 353 1791 
Q 353 2603 747 3093 
Q 1141 3584 1784 3584 
Q 2172 3584 2450 3431 
Q 2728 3278 2906 2969 
L 2906 3500 
L 3481 3500 
L 3481 434 
z
" transform="scale(0.015625)"/>
      <path id="DejaVuSans-65" d="M 3597 1894 
L 3597 1613 
L 953 1613 
Q 991 1019 1311 708 
Q 1631 397 2203 397 
Q 2534 397 2845 478 
Q 3156 559 3463 722 
L 3463 178 
Q 3153 47 2828 -22 
Q 2503 -91 2169 -91 
Q 1331 -91 842 396 
Q 353 884 353 1716 
Q 353 2575 817 3079 
Q 1281 3584 2069 3584 
Q 2775 3584 3186 3129 
Q 3597 2675 3597 1894 
z
M 3022 2063 
Q 3016 2534 2758 2815 
Q 2500 3097 2075 3097 
Q 1594 3097 1305 2825 
Q 1016 2553 972 2059 
L 3022 2063 
z
" transform="scale(0.015625)"/>
      <path id="DejaVuSans-74" d="M 1172 4494 
L 1172 3500 
L 2356 3500 
L 2356 3053 
L 1172 3053 
L 1172 1153 
Q 1172 725 1289 603 
Q 1406 481 1766 481 
L 2356 481 
L 2356 0 
L 1766 0 
Q 1100 0 847 248 
Q 594 497 594 1153 
L 594 3053 
L 172 3053 
L 172 3500 
L 594 3500 
L 594 4494 
L 1172 4494 
z
" transform="scale(0.015625)"/>
      <path id="DejaVuSans-5f" d="M 3263 -1063 
L 3263 -1509 
L -63 -1509 
L -63 -1063 
L 3263 -1063 
z
" transform="scale(0.015625)"/>
      <path id="DejaVuSans-73" d="M 2834 3397 
L 2834 2853 
Q 2591 2978 2328 3040 
Q 2066 3103 1784 3103 
Q 1356 3103 1142 2972 
Q 928 2841 928 2578 
Q 928 2378 1081 2264 
Q 1234 2150 1697 2047 
L 1894 2003 
Q 2506 1872 2764 1633 
Q 3022 1394 3022 966 
Q 3022 478 2636 193 
Q 2250 -91 1575 -91 
Q 1294 -91 989 -36 
Q 684 19 347 128 
L 347 722 
Q 666 556 975 473 
Q 1284 391 1588 391 
Q 1994 391 2212 530 
Q 2431 669 2431 922 
Q 2431 1156 2273 1281 
Q 2116 1406 1581 1522 
L 1381 1569 
Q 847 1681 609 1914 
Q 372 2147 372 2553 
Q 372 3047 722 3315 
Q 1072 3584 1716 3584 
Q 2034 3584 2315 3537 
Q 2597 3491 2834 3397 
z
" transform="scale(0.015625)"/>
      <path id="DejaVuSans-75" d="M 544 1381 
L 544 3500 
L 1119 3500 
L 1119 1403 
Q 1119 906 1312 657 
Q 1506 409 1894 409 
Q 2359 409 2629 706 
Q 2900 1003 2900 1516 
L 2900 3500 
L 3475 3500 
L 3475 0 
L 2900 0 
L 2900 538 
Q 2691 219 2414 64 
Q 2138 -91 1772 -91 
Q 1169 -91 856 284 
Q 544 659 544 1381 
z
M 1991 3584 
L 1991 3584 
z
" transform="scale(0.015625)"/>
      <path id="DejaVuSans-62" d="M 3116 1747 
Q 3116 2381 2855 2742 
Q 2594 3103 2138 3103 
Q 1681 3103 1420 2742 
Q 1159 2381 1159 1747 
Q 1159 1113 1420 752 
Q 1681 391 2138 391 
Q 2594 391 2855 752 
Q 3116 1113 3116 1747 
z
M 1159 2969 
Q 1341 3281 1617 3432 
Q 1894 3584 2278 3584 
Q 2916 3584 3314 3078 
Q 3713 2572 3713 1747 
Q 3713 922 3314 415 
Q 2916 -91 2278 -91 
Q 1894 -91 1617 61 
Q 1341 213 1159 525 
L 1159 0 
L 581 0 
L 581 4863 
L 1159 4863 
L 1159 2969 
z
" transform="scale(0.015625)"/>
      <path id="DejaVuSans-63" d="M 3122 3366 
L 3122 2828 
Q 2878 2963 2633 3030 
Q 2388 3097 2138 3097 
Q 1578 3097 1268 2742 
Q 959 2388 959 1747 
Q 959 1106 1268 751 
Q 1578 397 2138 397 
Q 2388 397 2633 464 
Q 2878 531 3122 666 
L 3122 134 
Q 2881 22 2623 -34 
Q 2366 -91 2075 -91 
Q 1284 -91 818 406 
Q 353 903 353 1747 
Q 353 2603 823 3093 
Q 1294 3584 2113 3584 
Q 2378 3584 2631 3529 
Q 2884 3475 3122 3366 
z
" transform="scale(0.015625)"/>
      <path id="DejaVuSans-72" d="M 2631 2963 
Q 2534 3019 2420 3045 
Q 2306 3072 2169 3072 
Q 1681 3072 1420 2755 
Q 1159 2438 1159 1844 
L 1159 0 
L 581 0 
L 581 3500 
L 1159 3500 
L 1159 2956 
Q 1341 3275 1631 3429 
Q 1922 3584 2338 3584 
Q 2397 3584 2469 3576 
Q 2541 3569 2628 3553 
L 2631 2963 
z
" transform="scale(0.015625)"/>
      <path id="DejaVuSans-69" d="M 603 3500 
L 1178 3500 
L 1178 0 
L 603 0 
L 603 3500 
z
M 603 4863 
L 1178 4863 
L 1178 4134 
L 603 4134 
L 603 4863 
z
" transform="scale(0.015625)"/>
      <path id="DejaVuSans-20" transform="scale(0.015625)"/>
      <path id="DejaVuSans-68" d="M 3513 2113 
L 3513 0 
L 2938 0 
L 2938 2094 
Q 2938 2591 2744 2837 
Q 2550 3084 2163 3084 
Q 1697 3084 1428 2787 
Q 1159 2491 1159 1978 
L 1159 0 
L 581 0 
L 581 4863 
L 1159 4863 
L 1159 2956 
Q 1366 3272 1645 3428 
Q 1925 3584 2291 3584 
Q 2894 3584 3203 3211 
Q 3513 2838 3513 2113 
z
" transform="scale(0.015625)"/>
      <path id="DejaVuSans-6f" d="M 1959 3097 
Q 1497 3097 1228 2736 
Q 959 2375 959 1747 
Q 959 1119 1226 758 
Q 1494 397 1959 397 
Q 2419 397 2687 759 
Q 2956 1122 2956 1747 
Q 2956 2369 2687 2733 
Q 2419 3097 1959 3097 
z
M 1959 3584 
Q 2709 3584 3137 3096 
Q 3566 2609 3566 1747 
Q 3566 888 3137 398 
Q 2709 -91 1959 -91 
Q 1206 -91 779 398 
Q 353 888 353 1747 
Q 353 2609 779 3096 
Q 1206 3584 1959 3584 
z
" transform="scale(0.015625)"/>
      <path id="DejaVuSans-79" d="M 2059 -325 
Q 1816 -950 1584 -1140 
Q 1353 -1331 966 -1331 
L 506 -1331 
L 506 -850 
L 844 -850 
Q 1081 -850 1212 -737 
Q 1344 -625 1503 -206 
L 1606 56 
L 191 3500 
L 800 3500 
L 1894 763 
L 2988 3500 
L 3597 3500 
L 2059 -325 
z
" transform="scale(0.015625)"/>
     </defs>
     <use xlink:href="#DejaVuSans-67"/>
     <use xlink:href="#DejaVuSans-65" transform="translate(63.476562 0)"/>
     <use xlink:href="#DejaVuSans-74" transform="translate(125 0)"/>
     <use xlink:href="#DejaVuSans-5f" transform="translate(164.208984 0)"/>
     <use xlink:href="#DejaVuSans-73" transform="translate(214.208984 0)"/>
     <use xlink:href="#DejaVuSans-75" transform="translate(266.308594 0)"/>
     <use xlink:href="#DejaVuSans-62" transform="translate(329.6875 0)"/>
     <use xlink:href="#DejaVuSans-73" transform="translate(393.164062 0)"/>
     <use xlink:href="#DejaVuSans-63" transform="translate(445.263672 0)"/>
     <use xlink:href="#DejaVuSans-72" transform="translate(500.244141 0)"/>
     <use xlink:href="#DejaVuSans-69" transform="translate(541.357422 0)"/>
     <use xlink:href="#DejaVuSans-62" transform="translate(569.140625 0)"/>
     <use xlink:href="#DejaVuSans-65" transform="translate(632.617188 0)"/>
     <use xlink:href="#DejaVuSans-20" transform="translate(694.140625 0)"/>
     <use xlink:href="#DejaVuSans-68" transform="translate(725.927734 0)"/>
     <use xlink:href="#DejaVuSans-69" transform="translate(789.306641 0)"/>
     <use xlink:href="#DejaVuSans-73" transform="translate(817.089844 0)"/>
     <use xlink:href="#DejaVuSans-74" transform="translate(869.189453 0)"/>
     <use xlink:href="#DejaVuSans-6f" transform="translate(908.398438 0)"/>
     <use xlink:href="#DejaVuSans-72" transform="translate(969.580078 0)"/>
     <use xlink:href="#DejaVuSans-79" transform="translate(1010.693359 0)"/>
    </g>
   </g>
   <g id="legend_1">
    <g id="line2d_41">
     <path d="M 815.08 328.498438 
L 825.08 328.498438 
L 835.08 328.498438 
" style="fill: none; stroke: #1f77b4; stroke-width: 1.5; stroke-linecap: square"/>
    </g>
    <g id="text_21">
     <!-- star -->
     <g style="fill: #a9a9a9" transform="translate(843.08 331.998438) scale(0.1 -0.1)">
      <defs>
       <path id="DejaVuSans-61" d="M 2194 1759 
Q 1497 1759 1228 1600 
Q 959 1441 959 1056 
Q 959 750 1161 570 
Q 1363 391 1709 391 
Q 2188 391 2477 730 
Q 2766 1069 2766 1631 
L 2766 1759 
L 2194 1759 
z
M 3341 1997 
L 3341 0 
L 2766 0 
L 2766 531 
Q 2569 213 2275 61 
Q 1981 -91 1556 -91 
Q 1019 -91 701 211 
Q 384 513 384 1019 
Q 384 1609 779 1909 
Q 1175 2209 1959 2209 
L 2766 2209 
L 2766 2266 
Q 2766 2663 2505 2880 
Q 2244 3097 1772 3097 
Q 1472 3097 1187 3025 
Q 903 2953 641 2809 
L 641 3341 
Q 956 3463 1253 3523 
Q 1550 3584 1831 3584 
Q 2591 3584 2966 3190 
Q 3341 2797 3341 1997 
z
" transform="scale(0.015625)"/>
      </defs>
      <use xlink:href="#DejaVuSans-73"/>
      <use xlink:href="#DejaVuSans-74" transform="translate(52.099609 0)"/>
      <use xlink:href="#DejaVuSans-61" transform="translate(91.308594 0)"/>
      <use xlink:href="#DejaVuSans-72" transform="translate(152.587891 0)"/>
     </g>
    </g>
    <g id="line2d_42">
     <path d="M 815.08 343.176562 
L 825.08 343.176562 
L 835.08 343.176562 
" style="fill: none; stroke: #ff7f0e; stroke-width: 1.5; stroke-linecap: square"/>
    </g>
    <g id="text_22">
     <!-- fork -->
     <g style="fill: #a9a9a9" transform="translate(843.08 346.676562) scale(0.1 -0.1)">
      <defs>
       <path id="DejaVuSans-66" d="M 2375 4863 
L 2375 4384 
L 1825 4384 
Q 1516 4384 1395 4259 
Q 1275 4134 1275 3809 
L 1275 3500 
L 2222 3500 
L 2222 3053 
L 1275 3053 
L 1275 0 
L 697 0 
L 697 3053 
L 147 3053 
L 147 3500 
L 697 3500 
L 697 3744 
Q 697 4328 969 4595 
Q 1241 4863 1831 4863 
L 2375 4863 
z
" transform="scale(0.015625)"/>
       <path id="DejaVuSans-6b" d="M 581 4863 
L 1159 4863 
L 1159 1991 
L 2875 3500 
L 3609 3500 
L 1753 1863 
L 3688 0 
L 2938 0 
L 1159 1709 
L 1159 0 
L 581 0 
L 581 4863 
z
" transform="scale(0.015625)"/>
      </defs>
      <use xlink:href="#DejaVuSans-66"/>
      <use xlink:href="#DejaVuSans-6f" transform="translate(35.205078 0)"/>
      <use xlink:href="#DejaVuSans-72" transform="translate(96.386719 0)"/>
      <use xlink:href="#DejaVuSans-6b" transform="translate(137.5 0)"/>
     </g>
    </g>
   </g>
  </g>
 </g>
 <defs>
  <clipPath id="p9796ebfbab">
   <rect x="108" y="43.2" width="669.6" height="277.2"/>
  </clipPath>
 </defs>
</svg>
