<?xml version="1.0" encoding="utf-8" standalone="no"?>
<!DOCTYPE svg PUBLIC "-//W3C//DTD SVG 1.1//EN"
  "http://www.w3.org/Graphics/SVG/1.1/DTD/svg11.dtd">
<svg xmlns:xlink="http://www.w3.org/1999/xlink" width="864pt" height="360pt" viewBox="0 0 864 360" xmlns="http://www.w3.org/2000/svg" version="1.1">
 <metadata>
  <rdf:RDF xmlns:dc="http://purl.org/dc/elements/1.1/" xmlns:cc="http://creativecommons.org/ns#" xmlns:rdf="http://www.w3.org/1999/02/22-rdf-syntax-ns#">
   <cc:Work>
    <dc:type rdf:resource="http://purl.org/dc/dcmitype/StillImage"/>
    <dc:date>2025-06-30T20:07:15.130047</dc:date>
    <dc:format>image/svg+xml</dc:format>
    <dc:creator>
     <cc:Agent>
      <dc:title>Matplotlib v3.10.3, https://matplotlib.org/</dc:title>
     </cc:Agent>
    </dc:creator>
   </cc:Work>
  </rdf:RDF>
 </metadata>
 <defs>
  <style type="text/css">*{stroke-linejoin: round; stroke-linecap: butt}</style>
 </defs>
 <g id="figure_1">
  <g id="patch_1">
   <path d="M 0 360 
L 864 360 
L 864 0 
L 0 0 
L 0 360 
z
" style="fill: none; opacity: 0"/>
  </g>
  <g id="axes_1">
   <g id="patch_2">
    <path d="M 108 320.4 
L 777.6 320.4 
L 777.6 43.2 
L 108 43.2 
L 108 320.4 
z
" style="fill: none; opacity: 0"/>
   </g>
   <g id="matplotlib.axis_1">
    <g id="xtick_1">
     <g id="line2d_1">
      <path d="M 128.693338 320.4 
L 128.693338 43.2 
" clip-path="url(#p4533175d89)" style="fill: none; stroke-dasharray: 5.12,1.28,0.8,1.28; stroke-dashoffset: 0; stroke: #b0b0b0; stroke-width: 0.8"/>
     </g>
     <g id="line2d_2">
      <defs>
       <path id="mc45a8d91af" d="M 0 0 
L 0 3.5 
" style="stroke: #a9a9a9; stroke-width: 0.8"/>
      </defs>
      <g>
       <use xlink:href="#mc45a8d91af" x="128.693338" y="320.4" style="fill: #a9a9a9; stroke: #a9a9a9; stroke-width: 0.8"/>
      </g>
     </g>
     <g id="text_1">
      <!-- 2021-07 -->
      <g style="fill: #a9a9a9" transform="translate(107.801932 334.998438) scale(0.1 -0.1)">
       <defs>
        <path id="DejaVuSans-32" d="M 1228 531 
L 3431 531 
L 3431 0 
L 469 0 
L 469 531 
Q 828 903 1448 1529 
Q 2069 2156 2228 2338 
Q 2531 2678 2651 2914 
Q 2772 3150 2772 3378 
Q 2772 3750 2511 3984 
Q 2250 4219 1831 4219 
Q 1534 4219 1204 4116 
Q 875 4013 500 3803 
L 500 4441 
Q 881 4594 1212 4672 
Q 1544 4750 1819 4750 
Q 2544 4750 2975 4387 
Q 3406 4025 3406 3419 
Q 3406 3131 3298 2873 
Q 3191 2616 2906 2266 
Q 2828 2175 2409 1742 
Q 1991 1309 1228 531 
z
" transform="scale(0.015625)"/>
        <path id="DejaVuSans-30" d="M 2034 4250 
Q 1547 4250 1301 3770 
Q 1056 3291 1056 2328 
Q 1056 1369 1301 889 
Q 1547 409 2034 409 
Q 2525 409 2770 889 
Q 3016 1369 3016 2328 
Q 3016 3291 2770 3770 
Q 2525 4250 2034 4250 
z
M 2034 4750 
Q 2819 4750 3233 4129 
Q 3647 3509 3647 2328 
Q 3647 1150 3233 529 
Q 2819 -91 2034 -91 
Q 1250 -91 836 529 
Q 422 1150 422 2328 
Q 422 3509 836 4129 
Q 1250 4750 2034 4750 
z
" transform="scale(0.015625)"/>
        <path id="DejaVuSans-31" d="M 794 531 
L 1825 531 
L 1825 4091 
L 703 3866 
L 703 4441 
L 1819 4666 
L 2450 4666 
L 2450 531 
L 3481 531 
L 3481 0 
L 794 0 
L 794 531 
z
" transform="scale(0.015625)"/>
        <path id="DejaVuSans-2d" d="M 313 2009 
L 1997 2009 
L 1997 1497 
L 313 1497 
L 313 2009 
z
" transform="scale(0.015625)"/>
        <path id="DejaVuSans-37" d="M 525 4666 
L 3525 4666 
L 3525 4397 
L 1831 0 
L 1172 0 
L 2766 4134 
L 525 4134 
L 525 4666 
z
" transform="scale(0.015625)"/>
       </defs>
       <use xlink:href="#DejaVuSans-32"/>
       <use xlink:href="#DejaVuSans-30" transform="translate(63.623047 0)"/>
       <use xlink:href="#DejaVuSans-32" transform="translate(127.246094 0)"/>
       <use xlink:href="#DejaVuSans-31" transform="translate(190.869141 0)"/>
       <use xlink:href="#DejaVuSans-2d" transform="translate(254.492188 0)"/>
       <use xlink:href="#DejaVuSans-30" transform="translate(290.576172 0)"/>
       <use xlink:href="#DejaVuSans-37" transform="translate(354.199219 0)"/>
      </g>
     </g>
    </g>
    <g id="xtick_2">
     <g id="line2d_3">
      <path d="M 206.63754 320.4 
L 206.63754 43.2 
" clip-path="url(#p4533175d89)" style="fill: none; stroke-dasharray: 5.12,1.28,0.8,1.28; stroke-dashoffset: 0; stroke: #b0b0b0; stroke-width: 0.8"/>
     </g>
     <g id="line2d_4">
      <g>
       <use xlink:href="#mc45a8d91af" x="206.63754" y="320.4" style="fill: #a9a9a9; stroke: #a9a9a9; stroke-width: 0.8"/>
      </g>
     </g>
     <g id="text_2">
      <!-- 2022-01 -->
      <g style="fill: #a9a9a9" transform="translate(185.746134 334.998438) scale(0.1 -0.1)">
       <use xlink:href="#DejaVuSans-32"/>
       <use xlink:href="#DejaVuSans-30" transform="translate(63.623047 0)"/>
       <use xlink:href="#DejaVuSans-32" transform="translate(127.246094 0)"/>
       <use xlink:href="#DejaVuSans-32" transform="translate(190.869141 0)"/>
       <use xlink:href="#DejaVuSans-2d" transform="translate(254.492188 0)"/>
       <use xlink:href="#DejaVuSans-30" transform="translate(290.576172 0)"/>
       <use xlink:href="#DejaVuSans-31" transform="translate(354.199219 0)"/>
      </g>
     </g>
    </g>
    <g id="xtick_3">
     <g id="line2d_5">
      <path d="M 283.310913 320.4 
L 283.310913 43.2 
" clip-path="url(#p4533175d89)" style="fill: none; stroke-dasharray: 5.12,1.28,0.8,1.28; stroke-dashoffset: 0; stroke: #b0b0b0; stroke-width: 0.8"/>
     </g>
     <g id="line2d_6">
      <g>
       <use xlink:href="#mc45a8d91af" x="283.310913" y="320.4" style="fill: #a9a9a9; stroke: #a9a9a9; stroke-width: 0.8"/>
      </g>
     </g>
     <g id="text_3">
      <!-- 2022-07 -->
      <g style="fill: #a9a9a9" transform="translate(262.419507 334.998438) scale(0.1 -0.1)">
       <use xlink:href="#DejaVuSans-32"/>
       <use xlink:href="#DejaVuSans-30" transform="translate(63.623047 0)"/>
       <use xlink:href="#DejaVuSans-32" transform="translate(127.246094 0)"/>
       <use xlink:href="#DejaVuSans-32" transform="translate(190.869141 0)"/>
       <use xlink:href="#DejaVuSans-2d" transform="translate(254.492188 0)"/>
       <use xlink:href="#DejaVuSans-30" transform="translate(290.576172 0)"/>
       <use xlink:href="#DejaVuSans-37" transform="translate(354.199219 0)"/>
      </g>
     </g>
    </g>
    <g id="xtick_4">
     <g id="line2d_7">
      <path d="M 361.255115 320.4 
L 361.255115 43.2 
" clip-path="url(#p4533175d89)" style="fill: none; stroke-dasharray: 5.12,1.28,0.8,1.28; stroke-dashoffset: 0; stroke: #b0b0b0; stroke-width: 0.8"/>
     </g>
     <g id="line2d_8">
      <g>
       <use xlink:href="#mc45a8d91af" x="361.255115" y="320.4" style="fill: #a9a9a9; stroke: #a9a9a9; stroke-width: 0.8"/>
      </g>
     </g>
     <g id="text_4">
      <!-- 2023-01 -->
      <g style="fill: #a9a9a9" transform="translate(340.363709 334.998438) scale(0.1 -0.1)">
       <defs>
        <path id="DejaVuSans-33" d="M 2597 2516 
Q 3050 2419 3304 2112 
Q 3559 1806 3559 1356 
Q 3559 666 3084 287 
Q 2609 -91 1734 -91 
Q 1441 -91 1130 -33 
Q 819 25 488 141 
L 488 750 
Q 750 597 1062 519 
Q 1375 441 1716 441 
Q 2309 441 2620 675 
Q 2931 909 2931 1356 
Q 2931 1769 2642 2001 
Q 2353 2234 1838 2234 
L 1294 2234 
L 1294 2753 
L 1863 2753 
Q 2328 2753 2575 2939 
Q 2822 3125 2822 3475 
Q 2822 3834 2567 4026 
Q 2313 4219 1838 4219 
Q 1578 4219 1281 4162 
Q 984 4106 628 3988 
L 628 4550 
Q 988 4650 1302 4700 
Q 1616 4750 1894 4750 
Q 2613 4750 3031 4423 
Q 3450 4097 3450 3541 
Q 3450 3153 3228 2886 
Q 3006 2619 2597 2516 
z
" transform="scale(0.015625)"/>
       </defs>
       <use xlink:href="#DejaVuSans-32"/>
       <use xlink:href="#DejaVuSans-30" transform="translate(63.623047 0)"/>
       <use xlink:href="#DejaVuSans-32" transform="translate(127.246094 0)"/>
       <use xlink:href="#DejaVuSans-33" transform="translate(190.869141 0)"/>
       <use xlink:href="#DejaVuSans-2d" transform="translate(254.492188 0)"/>
       <use xlink:href="#DejaVuSans-30" transform="translate(290.576172 0)"/>
       <use xlink:href="#DejaVuSans-31" transform="translate(354.199219 0)"/>
      </g>
     </g>
    </g>
    <g id="xtick_5">
     <g id="line2d_9">
      <path d="M 437.928487 320.4 
L 437.928487 43.2 
" clip-path="url(#p4533175d89)" style="fill: none; stroke-dasharray: 5.12,1.28,0.8,1.28; stroke-dashoffset: 0; stroke: #b0b0b0; stroke-width: 0.8"/>
     </g>
     <g id="line2d_10">
      <g>
       <use xlink:href="#mc45a8d91af" x="437.928487" y="320.4" style="fill: #a9a9a9; stroke: #a9a9a9; stroke-width: 0.8"/>
      </g>
     </g>
     <g id="text_5">
      <!-- 2023-07 -->
      <g style="fill: #a9a9a9" transform="translate(417.037081 334.998438) scale(0.1 -0.1)">
       <use xlink:href="#DejaVuSans-32"/>
       <use xlink:href="#DejaVuSans-30" transform="translate(63.623047 0)"/>
       <use xlink:href="#DejaVuSans-32" transform="translate(127.246094 0)"/>
       <use xlink:href="#DejaVuSans-33" transform="translate(190.869141 0)"/>
       <use xlink:href="#DejaVuSans-2d" transform="translate(254.492188 0)"/>
       <use xlink:href="#DejaVuSans-30" transform="translate(290.576172 0)"/>
       <use xlink:href="#DejaVuSans-37" transform="translate(354.199219 0)"/>
      </g>
     </g>
    </g>
    <g id="xtick_6">
     <g id="line2d_11">
      <path d="M 515.872689 320.4 
L 515.872689 43.2 
" clip-path="url(#p4533175d89)" style="fill: none; stroke-dasharray: 5.12,1.28,0.8,1.28; stroke-dashoffset: 0; stroke: #b0b0b0; stroke-width: 0.8"/>
     </g>
     <g id="line2d_12">
      <g>
       <use xlink:href="#mc45a8d91af" x="515.872689" y="320.4" style="fill: #a9a9a9; stroke: #a9a9a9; stroke-width: 0.8"/>
      </g>
     </g>
     <g id="text_6">
      <!-- 2024-01 -->
      <g style="fill: #a9a9a9" transform="translate(494.981283 334.998438) scale(0.1 -0.1)">
       <defs>
        <path id="DejaVuSans-34" d="M 2419 4116 
L 825 1625 
L 2419 1625 
L 2419 4116 
z
M 2253 4666 
L 3047 4666 
L 3047 1625 
L 3713 1625 
L 3713 1100 
L 3047 1100 
L 3047 0 
L 2419 0 
L 2419 1100 
L 313 1100 
L 313 1709 
L 2253 4666 
z
" transform="scale(0.015625)"/>
       </defs>
       <use xlink:href="#DejaVuSans-32"/>
       <use xlink:href="#DejaVuSans-30" transform="translate(63.623047 0)"/>
       <use xlink:href="#DejaVuSans-32" transform="translate(127.246094 0)"/>
       <use xlink:href="#DejaVuSans-34" transform="translate(190.869141 0)"/>
       <use xlink:href="#DejaVuSans-2d" transform="translate(254.492188 0)"/>
       <use xlink:href="#DejaVuSans-30" transform="translate(290.576172 0)"/>
       <use xlink:href="#DejaVuSans-31" transform="translate(354.199219 0)"/>
      </g>
     </g>
    </g>
    <g id="xtick_7">
     <g id="line2d_13">
      <path d="M 592.969672 320.4 
L 592.969672 43.2 
" clip-path="url(#p4533175d89)" style="fill: none; stroke-dasharray: 5.12,1.28,0.8,1.28; stroke-dashoffset: 0; stroke: #b0b0b0; stroke-width: 0.8"/>
     </g>
     <g id="line2d_14">
      <g>
       <use xlink:href="#mc45a8d91af" x="592.969672" y="320.4" style="fill: #a9a9a9; stroke: #a9a9a9; stroke-width: 0.8"/>
      </g>
     </g>
     <g id="text_7">
      <!-- 2024-07 -->
      <g style="fill: #a9a9a9" transform="translate(572.078265 334.998438) scale(0.1 -0.1)">
       <use xlink:href="#DejaVuSans-32"/>
       <use xlink:href="#DejaVuSans-30" transform="translate(63.623047 0)"/>
       <use xlink:href="#DejaVuSans-32" transform="translate(127.246094 0)"/>
       <use xlink:href="#DejaVuSans-34" transform="translate(190.869141 0)"/>
       <use xlink:href="#DejaVuSans-2d" transform="translate(254.492188 0)"/>
       <use xlink:href="#DejaVuSans-30" transform="translate(290.576172 0)"/>
       <use xlink:href="#DejaVuSans-37" transform="translate(354.199219 0)"/>
      </g>
     </g>
    </g>
    <g id="xtick_8">
     <g id="line2d_15">
      <path d="M 670.913874 320.4 
L 670.913874 43.2 
" clip-path="url(#p4533175d89)" style="fill: none; stroke-dasharray: 5.12,1.28,0.8,1.28; stroke-dashoffset: 0; stroke: #b0b0b0; stroke-width: 0.8"/>
     </g>
     <g id="line2d_16">
      <g>
       <use xlink:href="#mc45a8d91af" x="670.913874" y="320.4" style="fill: #a9a9a9; stroke: #a9a9a9; stroke-width: 0.8"/>
      </g>
     </g>
     <g id="text_8">
      <!-- 2025-01 -->
      <g style="fill: #a9a9a9" transform="translate(650.022467 334.998438) scale(0.1 -0.1)">
       <defs>
        <path id="DejaVuSans-35" d="M 691 4666 
L 3169 4666 
L 3169 4134 
L 1269 4134 
L 1269 2991 
Q 1406 3038 1543 3061 
Q 1681 3084 1819 3084 
Q 2600 3084 3056 2656 
Q 3513 2228 3513 1497 
Q 3513 744 3044 326 
Q 2575 -91 1722 -91 
Q 1428 -91 1123 -41 
Q 819 9 494 109 
L 494 744 
Q 775 591 1075 516 
Q 1375 441 1709 441 
Q 2250 441 2565 725 
Q 2881 1009 2881 1497 
Q 2881 1984 2565 2268 
Q 2250 2553 1709 2553 
Q 1456 2553 1204 2497 
Q 953 2441 691 2322 
L 691 4666 
z
" transform="scale(0.015625)"/>
       </defs>
       <use xlink:href="#DejaVuSans-32"/>
       <use xlink:href="#DejaVuSans-30" transform="translate(63.623047 0)"/>
       <use xlink:href="#DejaVuSans-32" transform="translate(127.246094 0)"/>
       <use xlink:href="#DejaVuSans-35" transform="translate(190.869141 0)"/>
       <use xlink:href="#DejaVuSans-2d" transform="translate(254.492188 0)"/>
       <use xlink:href="#DejaVuSans-30" transform="translate(290.576172 0)"/>
       <use xlink:href="#DejaVuSans-31" transform="translate(354.199219 0)"/>
      </g>
     </g>
    </g>
    <g id="xtick_9">
     <g id="line2d_17">
      <path d="M 747.587246 320.4 
L 747.587246 43.2 
" clip-path="url(#p4533175d89)" style="fill: none; stroke-dasharray: 5.12,1.28,0.8,1.28; stroke-dashoffset: 0; stroke: #b0b0b0; stroke-width: 0.8"/>
     </g>
     <g id="line2d_18">
      <g>
       <use xlink:href="#mc45a8d91af" x="747.587246" y="320.4" style="fill: #a9a9a9; stroke: #a9a9a9; stroke-width: 0.8"/>
      </g>
     </g>
     <g id="text_9">
      <!-- 2025-07 -->
      <g style="fill: #a9a9a9" transform="translate(726.69584 334.998438) scale(0.1 -0.1)">
       <use xlink:href="#DejaVuSans-32"/>
       <use xlink:href="#DejaVuSans-30" transform="translate(63.623047 0)"/>
       <use xlink:href="#DejaVuSans-32" transform="translate(127.246094 0)"/>
       <use xlink:href="#DejaVuSans-35" transform="translate(190.869141 0)"/>
       <use xlink:href="#DejaVuSans-2d" transform="translate(254.492188 0)"/>
       <use xlink:href="#DejaVuSans-30" transform="translate(290.576172 0)"/>
       <use xlink:href="#DejaVuSans-37" transform="translate(354.199219 0)"/>
      </g>
     </g>
    </g>
   </g>
   <g id="matplotlib.axis_2">
    <g id="ytick_1">
     <g id="line2d_19">
      <path d="M 108 307.832312 
L 777.6 307.832312 
" clip-path="url(#p4533175d89)" style="fill: none; stroke-dasharray: 5.12,1.28,0.8,1.28; stroke-dashoffset: 0; stroke: #b0b0b0; stroke-width: 0.8"/>
     </g>
     <g id="line2d_20">
      <defs>
       <path id="medbdee58e5" d="M 0 0 
L -3.5 0 
" style="stroke: #a9a9a9; stroke-width: 0.8"/>
      </defs>
      <g>
       <use xlink:href="#medbdee58e5" x="108" y="307.832312" style="fill: #a9a9a9; stroke: #a9a9a9; stroke-width: 0.8"/>
      </g>
     </g>
     <g id="text_10">
      <!-- 0 -->
      <g style="fill: #a9a9a9" transform="translate(94.6375 311.631531) scale(0.1 -0.1)">
       <use xlink:href="#DejaVuSans-30"/>
      </g>
     </g>
    </g>
    <g id="ytick_2">
     <g id="line2d_21">
      <path d="M 108 275.520477 
L 777.6 275.520477 
" clip-path="url(#p4533175d89)" style="fill: none; stroke-dasharray: 5.12,1.28,0.8,1.28; stroke-dashoffset: 0; stroke: #b0b0b0; stroke-width: 0.8"/>
     </g>
     <g id="line2d_22">
      <g>
       <use xlink:href="#medbdee58e5" x="108" y="275.520477" style="fill: #a9a9a9; stroke: #a9a9a9; stroke-width: 0.8"/>
      </g>
     </g>
     <g id="text_11">
      <!-- 1000 -->
      <g style="fill: #a9a9a9" transform="translate(75.55 279.319696) scale(0.1 -0.1)">
       <use xlink:href="#DejaVuSans-31"/>
       <use xlink:href="#DejaVuSans-30" transform="translate(63.623047 0)"/>
       <use xlink:href="#DejaVuSans-30" transform="translate(127.246094 0)"/>
       <use xlink:href="#DejaVuSans-30" transform="translate(190.869141 0)"/>
      </g>
     </g>
    </g>
    <g id="ytick_3">
     <g id="line2d_23">
      <path d="M 108 243.208642 
L 777.6 243.208642 
" clip-path="url(#p4533175d89)" style="fill: none; stroke-dasharray: 5.12,1.28,0.8,1.28; stroke-dashoffset: 0; stroke: #b0b0b0; stroke-width: 0.8"/>
     </g>
     <g id="line2d_24">
      <g>
       <use xlink:href="#medbdee58e5" x="108" y="243.208642" style="fill: #a9a9a9; stroke: #a9a9a9; stroke-width: 0.8"/>
      </g>
     </g>
     <g id="text_12">
      <!-- 2000 -->
      <g style="fill: #a9a9a9" transform="translate(75.55 247.007861) scale(0.1 -0.1)">
       <use xlink:href="#DejaVuSans-32"/>
       <use xlink:href="#DejaVuSans-30" transform="translate(63.623047 0)"/>
       <use xlink:href="#DejaVuSans-30" transform="translate(127.246094 0)"/>
       <use xlink:href="#DejaVuSans-30" transform="translate(190.869141 0)"/>
      </g>
     </g>
    </g>
    <g id="ytick_4">
     <g id="line2d_25">
      <path d="M 108 210.896807 
L 777.6 210.896807 
" clip-path="url(#p4533175d89)" style="fill: none; stroke-dasharray: 5.12,1.28,0.8,1.28; stroke-dashoffset: 0; stroke: #b0b0b0; stroke-width: 0.8"/>
     </g>
     <g id="line2d_26">
      <g>
       <use xlink:href="#medbdee58e5" x="108" y="210.896807" style="fill: #a9a9a9; stroke: #a9a9a9; stroke-width: 0.8"/>
      </g>
     </g>
     <g id="text_13">
      <!-- 3000 -->
      <g style="fill: #a9a9a9" transform="translate(75.55 214.696026) scale(0.1 -0.1)">
       <use xlink:href="#DejaVuSans-33"/>
       <use xlink:href="#DejaVuSans-30" transform="translate(63.623047 0)"/>
       <use xlink:href="#DejaVuSans-30" transform="translate(127.246094 0)"/>
       <use xlink:href="#DejaVuSans-30" transform="translate(190.869141 0)"/>
      </g>
     </g>
    </g>
    <g id="ytick_5">
     <g id="line2d_27">
      <path d="M 108 178.584972 
L 777.6 178.584972 
" clip-path="url(#p4533175d89)" style="fill: none; stroke-dasharray: 5.12,1.28,0.8,1.28; stroke-dashoffset: 0; stroke: #b0b0b0; stroke-width: 0.8"/>
     </g>
     <g id="line2d_28">
      <g>
       <use xlink:href="#medbdee58e5" x="108" y="178.584972" style="fill: #a9a9a9; stroke: #a9a9a9; stroke-width: 0.8"/>
      </g>
     </g>
     <g id="text_14">
      <!-- 4000 -->
      <g style="fill: #a9a9a9" transform="translate(75.55 182.384191) scale(0.1 -0.1)">
       <use xlink:href="#DejaVuSans-34"/>
       <use xlink:href="#DejaVuSans-30" transform="translate(63.623047 0)"/>
       <use xlink:href="#DejaVuSans-30" transform="translate(127.246094 0)"/>
       <use xlink:href="#DejaVuSans-30" transform="translate(190.869141 0)"/>
      </g>
     </g>
    </g>
    <g id="ytick_6">
     <g id="line2d_29">
      <path d="M 108 146.273138 
L 777.6 146.273138 
" clip-path="url(#p4533175d89)" style="fill: none; stroke-dasharray: 5.12,1.28,0.8,1.28; stroke-dashoffset: 0; stroke: #b0b0b0; stroke-width: 0.8"/>
     </g>
     <g id="line2d_30">
      <g>
       <use xlink:href="#medbdee58e5" x="108" y="146.273138" style="fill: #a9a9a9; stroke: #a9a9a9; stroke-width: 0.8"/>
      </g>
     </g>
     <g id="text_15">
      <!-- 5000 -->
      <g style="fill: #a9a9a9" transform="translate(75.55 150.072356) scale(0.1 -0.1)">
       <use xlink:href="#DejaVuSans-35"/>
       <use xlink:href="#DejaVuSans-30" transform="translate(63.623047 0)"/>
       <use xlink:href="#DejaVuSans-30" transform="translate(127.246094 0)"/>
       <use xlink:href="#DejaVuSans-30" transform="translate(190.869141 0)"/>
      </g>
     </g>
    </g>
    <g id="ytick_7">
     <g id="line2d_31">
      <path d="M 108 113.961303 
L 777.6 113.961303 
" clip-path="url(#p4533175d89)" style="fill: none; stroke-dasharray: 5.12,1.28,0.8,1.28; stroke-dashoffset: 0; stroke: #b0b0b0; stroke-width: 0.8"/>
     </g>
     <g id="line2d_32">
      <g>
       <use xlink:href="#medbdee58e5" x="108" y="113.961303" style="fill: #a9a9a9; stroke: #a9a9a9; stroke-width: 0.8"/>
      </g>
     </g>
     <g id="text_16">
      <!-- 6000 -->
      <g style="fill: #a9a9a9" transform="translate(75.55 117.760521) scale(0.1 -0.1)">
       <defs>
        <path id="DejaVuSans-36" d="M 2113 2584 
Q 1688 2584 1439 2293 
Q 1191 2003 1191 1497 
Q 1191 994 1439 701 
Q 1688 409 2113 409 
Q 2538 409 2786 701 
Q 3034 994 3034 1497 
Q 3034 2003 2786 2293 
Q 2538 2584 2113 2584 
z
M 3366 4563 
L 3366 3988 
Q 3128 4100 2886 4159 
Q 2644 4219 2406 4219 
Q 1781 4219 1451 3797 
Q 1122 3375 1075 2522 
Q 1259 2794 1537 2939 
Q 1816 3084 2150 3084 
Q 2853 3084 3261 2657 
Q 3669 2231 3669 1497 
Q 3669 778 3244 343 
Q 2819 -91 2113 -91 
Q 1303 -91 875 529 
Q 447 1150 447 2328 
Q 447 3434 972 4092 
Q 1497 4750 2381 4750 
Q 2619 4750 2861 4703 
Q 3103 4656 3366 4563 
z
" transform="scale(0.015625)"/>
       </defs>
       <use xlink:href="#DejaVuSans-36"/>
       <use xlink:href="#DejaVuSans-30" transform="translate(63.623047 0)"/>
       <use xlink:href="#DejaVuSans-30" transform="translate(127.246094 0)"/>
       <use xlink:href="#DejaVuSans-30" transform="translate(190.869141 0)"/>
      </g>
     </g>
    </g>
    <g id="ytick_8">
     <g id="line2d_33">
      <path d="M 108 81.649468 
L 777.6 81.649468 
" clip-path="url(#p4533175d89)" style="fill: none; stroke-dasharray: 5.12,1.28,0.8,1.28; stroke-dashoffset: 0; stroke: #b0b0b0; stroke-width: 0.8"/>
     </g>
     <g id="line2d_34">
      <g>
       <use xlink:href="#medbdee58e5" x="108" y="81.649468" style="fill: #a9a9a9; stroke: #a9a9a9; stroke-width: 0.8"/>
      </g>
     </g>
     <g id="text_17">
      <!-- 7000 -->
      <g style="fill: #a9a9a9" transform="translate(75.55 85.448687) scale(0.1 -0.1)">
       <use xlink:href="#DejaVuSans-37"/>
       <use xlink:href="#DejaVuSans-30" transform="translate(63.623047 0)"/>
       <use xlink:href="#DejaVuSans-30" transform="translate(127.246094 0)"/>
       <use xlink:href="#DejaVuSans-30" transform="translate(190.869141 0)"/>
      </g>
     </g>
    </g>
    <g id="ytick_9">
     <g id="line2d_35">
      <path d="M 108 49.337633 
L 777.6 49.337633 
" clip-path="url(#p4533175d89)" style="fill: none; stroke-dasharray: 5.12,1.28,0.8,1.28; stroke-dashoffset: 0; stroke: #b0b0b0; stroke-width: 0.8"/>
     </g>
     <g id="line2d_36">
      <g>
       <use xlink:href="#medbdee58e5" x="108" y="49.337633" style="fill: #a9a9a9; stroke: #a9a9a9; stroke-width: 0.8"/>
      </g>
     </g>
     <g id="text_18">
      <!-- 8000 -->
      <g style="fill: #a9a9a9" transform="translate(75.55 53.136852) scale(0.1 -0.1)">
       <defs>
        <path id="DejaVuSans-38" d="M 2034 2216 
Q 1584 2216 1326 1975 
Q 1069 1734 1069 1313 
Q 1069 891 1326 650 
Q 1584 409 2034 409 
Q 2484 409 2743 651 
Q 3003 894 3003 1313 
Q 3003 1734 2745 1975 
Q 2488 2216 2034 2216 
z
M 1403 2484 
Q 997 2584 770 2862 
Q 544 3141 544 3541 
Q 544 4100 942 4425 
Q 1341 4750 2034 4750 
Q 2731 4750 3128 4425 
Q 3525 4100 3525 3541 
Q 3525 3141 3298 2862 
Q 3072 2584 2669 2484 
Q 3125 2378 3379 2068 
Q 3634 1759 3634 1313 
Q 3634 634 3220 271 
Q 2806 -91 2034 -91 
Q 1263 -91 848 271 
Q 434 634 434 1313 
Q 434 1759 690 2068 
Q 947 2378 1403 2484 
z
M 1172 3481 
Q 1172 3119 1398 2916 
Q 1625 2713 2034 2713 
Q 2441 2713 2670 2916 
Q 2900 3119 2900 3481 
Q 2900 3844 2670 4047 
Q 2441 4250 2034 4250 
Q 1625 4250 1398 4047 
Q 1172 3844 1172 3481 
z
" transform="scale(0.015625)"/>
       </defs>
       <use xlink:href="#DejaVuSans-38"/>
       <use xlink:href="#DejaVuSans-30" transform="translate(63.623047 0)"/>
       <use xlink:href="#DejaVuSans-30" transform="translate(127.246094 0)"/>
       <use xlink:href="#DejaVuSans-30" transform="translate(190.869141 0)"/>
      </g>
     </g>
    </g>
   </g>
   <g id="line2d_37">
    <path d="M 138.436364 307.735376 
L 140.978022 307.509193 
L 141.401632 307.315322 
L 143.096071 307.08914 
L 144.790511 306.733709 
L 145.63773 306.604462 
L 147.755779 306.410591 
L 148.602999 306.055161 
L 149.026608 305.473548 
L 149.450218 305.182741 
L 149.873828 304.213386 
L 150.297438 304.148763 
L 150.721048 303.793332 
L 151.568267 303.340967 
L 153.262706 301.919246 
L 154.957146 301.046827 
L 156.227975 300.432902 
L 156.651585 299.722041 
L 157.498804 299.075805 
L 157.922414 298.881934 
L 162.158512 298.235697 
L 162.582122 298.041826 
L 165.54739 297.783331 
L 167.24183 297.363277 
L 170.630708 296.8786 
L 171.054318 296.652417 
L 171.477928 296.587793 
L 172.325147 296.296987 
L 175.290416 295.779997 
L 176.137635 295.521503 
L 179.950123 294.875266 
L 180.797343 294.681395 
L 181.644563 294.649083 
L 183.339002 294.229029 
L 183.762612 293.615105 
L 185.033441 293.098115 
L 186.30427 292.742685 
L 186.72788 292.516502 
L 187.5751 292.354943 
L 189.269539 291.837954 
L 190.116758 291.77333 
L 190.963978 291.547147 
L 192.658417 291.094781 
L 193.082027 291.06247 
L 193.929247 290.642416 
L 194.352856 290.577792 
L 194.776466 290.351609 
L 199.436174 289.543813 
L 201.130613 289.026824 
L 201.554223 288.736017 
L 203.672272 288.025157 
L 204.519491 287.411232 
L 205.790321 287.152738 
L 215.109736 284.341608 
L 215.533346 284.309296 
L 216.804175 283.921554 
L 217.227785 283.921554 
L 217.651395 283.727683 
L 218.498615 283.630748 
L 218.922224 283.469188 
L 220.616664 283.404565 
L 221.463883 283.243006 
L 222.311103 282.79064 
L 223.581932 282.305962 
L 224.429152 281.853597 
L 225.276371 281.401231 
L 226.123591 281.110424 
L 226.547201 280.981177 
L 227.39442 280.431876 
L 227.81803 279.947198 
L 228.66525 278.590101 
L 229.088859 278.460854 
L 229.512469 278.460854 
L 231.206908 277.491499 
L 231.630518 277.394563 
L 232.054128 276.97451 
L 232.901348 276.619079 
L 233.748567 276.231337 
L 234.172177 275.714348 
L 234.595787 275.003488 
L 235.019396 274.712681 
L 235.443006 273.937197 
L 235.866616 273.45252 
L 238.408275 272.030799 
L 239.255494 271.319938 
L 239.679104 271.061444 
L 240.102714 270.447519 
L 240.526324 269.445852 
L 240.949934 268.767304 
L 241.373543 268.411873 
L 241.797153 268.218002 
L 245.186032 265.019131 
L 246.033251 264.211335 
L 248.57491 262.563431 
L 248.99852 262.401872 
L 250.692959 261.367893 
L 251.116569 261.174022 
L 253.234618 259.170689 
L 254.081837 258.815258 
L 254.929057 258.201334 
L 255.352667 257.942839 
L 255.776276 257.878215 
L 257.047106 257.135043 
L 257.470716 256.650365 
L 259.588764 255.454828 
L 260.012374 255.293268 
L 261.283204 254.388537 
L 267.637351 252.062085 
L 268.48457 251.254289 
L 269.7554 250.608052 
L 270.602619 250.058751 
L 271.449839 249.800256 
L 271.873448 249.50945 
L 272.297058 249.380203 
L 273.567888 248.507783 
L 275.685937 248.023106 
L 276.956766 247.247621 
L 278.227595 246.956815 
L 278.651205 246.859879 
L 279.922035 245.890524 
L 281.616474 245.405847 
L 282.040084 245.050417 
L 284.581742 244.145685 
L 285.428962 243.984126 
L 286.276181 243.628696 
L 289.24145 242.497782 
L 290.08867 242.368534 
L 291.359499 241.916169 
L 293.477548 240.849878 
L 296.019207 239.395846 
L 296.866426 239.169663 
L 298.137256 238.523426 
L 298.984475 238.361867 
L 299.831695 237.844878 
L 300.678914 237.618695 
L 301.949744 237.101705 
L 303.644183 236.875523 
L 304.491403 236.423157 
L 304.915012 236.035415 
L 305.338622 235.259931 
L 307.033061 234.775253 
L 308.303891 234.096705 
L 309.15111 233.805898 
L 310.42194 233.159661 
L 312.539989 232.287242 
L 313.387208 232.093371 
L 314.658038 231.447134 
L 315.081647 231.382511 
L 317.199696 230.31622 
L 318.046916 229.766919 
L 319.317745 229.508424 
L 321.435794 228.959123 
L 321.859404 228.603693 
L 322.706624 228.312886 
L 324.824673 227.440467 
L 325.248282 227.117348 
L 325.671892 226.955789 
L 326.519112 226.471112 
L 328.213551 225.92181 
L 329.060771 225.372509 
L 329.48438 224.920144 
L 329.90799 224.661649 
L 330.3316 224.564713 
L 331.17882 223.853853 
L 331.602429 223.789229 
L 332.026039 223.078369 
L 332.449649 222.884498 
L 332.873259 222.529068 
L 333.296868 222.464444 
L 334.144088 221.915143 
L 334.991308 221.624336 
L 335.414917 221.301218 
L 335.838527 221.139659 
L 337.532966 219.976433 
L 338.803796 219.330196 
L 339.651015 219.104013 
L 340.498235 218.619336 
L 340.921845 217.876164 
L 341.769064 217.229927 
L 342.192674 217.132991 
L 344.734333 215.87283 
L 345.581552 215.5174 
L 346.428772 214.903475 
L 347.699601 213.707937 
L 348.546821 213.190948 
L 348.970431 212.70627 
L 350.66487 211.510732 
L 351.51209 210.638313 
L 352.359309 210.347506 
L 353.206529 209.765893 
L 354.477358 209.087345 
L 354.900968 209.022721 
L 356.171797 208.31186 
L 357.019017 207.762559 
L 361.255115 206.146968 
L 361.678725 205.791537 
L 363.373164 205.112989 
L 363.796774 204.983742 
L 364.643993 204.43444 
L 365.491213 204.07901 
L 366.338432 203.465085 
L 367.185652 201.720246 
L 368.032872 200.686267 
L 369.303701 200.007719 
L 370.15092 199.652289 
L 370.57453 199.587665 
L 371.42175 199.199923 
L 373.116189 198.61831 
L 373.963409 198.133633 
L 374.810628 197.713579 
L 375.234238 197.584331 
L 377.775897 196.033363 
L 378.199507 195.548686 
L 379.470336 194.805514 
L 379.893946 194.643954 
L 380.741165 194.126965 
L 382.435604 193.189922 
L 382.859214 193.092986 
L 383.282824 192.737556 
L 386.248093 191.735889 
L 386.671702 191.412771 
L 387.518922 191.154276 
L 388.366142 190.798846 
L 388.789751 190.443416 
L 390.484191 189.829491 
L 391.33141 189.215566 
L 392.17863 188.860136 
L 393.025849 188.181587 
L 393.873069 187.923093 
L 394.296679 187.535351 
L 394.720288 187.470727 
L 395.567508 186.792178 
L 397.685557 185.532017 
L 398.532777 185.273522 
L 398.956386 185.015028 
L 399.379996 184.950404 
L 400.650826 184.239544 
L 402.345265 183.657931 
L 403.192484 183.528683 
L 403.616094 183.334812 
L 404.039704 183.270188 
L 404.886924 182.882446 
L 405.310533 182.850135 
L 407.004972 182.203898 
L 408.275802 181.266855 
L 408.699412 181.105296 
L 409.546631 180.620618 
L 409.970241 180.491371 
L 412.5119 179.037338 
L 412.93551 178.940403 
L 414.206339 178.164919 
L 415.477168 177.712553 
L 416.324388 177.421746 
L 418.018827 176.840133 
L 418.866047 176.549327 
L 420.560486 176.193897 
L 420.984096 176.000026 
L 421.831315 175.773843 
L 422.254925 175.579972 
L 422.678535 175.515348 
L 423.102145 175.289165 
L 423.949364 175.127606 
L 425.220194 174.642929 
L 426.491023 174.449058 
L 429.032682 173.96438 
L 430.303511 173.673574 
L 430.727121 173.479703 
L 431.57434 173.318143 
L 432.42156 173.091961 
L 433.26878 172.704218 
L 433.692389 172.542659 
L 434.115999 172.542659 
L 438.775707 171.088627 
L 439.199317 170.862444 
L 439.622927 170.862444 
L 440.470146 170.539326 
L 440.893756 170.08696 
L 443.435415 169.020669 
L 445.129854 168.439056 
L 445.553464 168.180562 
L 446.824293 167.79282 
L 447.671513 167.566637 
L 448.095122 167.27583 
L 448.518732 167.178895 
L 448.942342 166.791153 
L 450.213171 166.532658 
L 451.060391 166.144916 
L 451.484001 165.627927 
L 456.143708 164.593948 
L 456.567318 164.593948 
L 456.990928 164.400077 
L 458.685367 164.076959 
L 459.108977 163.883088 
L 460.803416 163.559969 
L 461.650636 163.204539 
L 462.497855 163.04298 
L 464.615904 162.493679 
L 466.310344 161.944377 
L 466.733953 161.847442 
L 467.157563 161.621259 
L 468.004783 161.395076 
L 468.852002 161.039646 
L 469.699222 160.716528 
L 470.122832 160.425721 
L 470.970051 160.167227 
L 473.93532 159.036312 
L 475.629759 158.842441 
L 479.018637 157.58228 
L 479.442247 157.259161 
L 479.865857 157.162226 
L 480.289467 156.936043 
L 480.713076 156.903731 
L 485.372784 155.191204 
L 487.490833 154.609591 
L 488.338053 154.189537 
L 489.608882 153.898731 
L 491.303321 152.47701 
L 492.99776 151.733838 
L 493.84498 151.346096 
L 496.386639 150.344429 
L 496.810249 150.053622 
L 498.928298 149.342762 
L 500.199127 148.59959 
L 500.622737 148.502654 
L 502.740786 147.339428 
L 504.011615 146.757815 
L 504.435225 146.434697 
L 505.282444 146.14389 
L 507.400493 145.045288 
L 508.671323 144.592922 
L 510.365762 143.882062 
L 511.636591 143.397384 
L 512.060201 143.235825 
L 512.907421 143.106578 
L 513.331031 142.815771 
L 515.02547 142.492653 
L 515.872689 142.137223 
L 517.567128 141.329427 
L 523.497666 138.679856 
L 524.768495 138.259803 
L 525.192105 137.968996 
L 526.039324 137.872061 
L 526.462934 137.581254 
L 527.310154 137.452007 
L 528.157373 137.031953 
L 528.580983 136.838082 
L 529.428203 136.611899 
L 530.275422 136.353404 
L 531.546252 135.868727 
L 532.817081 135.448673 
L 534.08791 135.157866 
L 535.78235 134.447006 
L 536.629569 133.99464 
L 538.324008 133.122221 
L 539.171228 132.92835 
L 539.594838 132.669855 
L 540.018448 132.57292 
L 541.289277 131.829747 
L 542.136496 131.474317 
L 551.455912 127.855392 
L 553.150351 127.047596 
L 557.386449 125.36738 
L 558.233669 124.947327 
L 558.657278 124.850391 
L 559.080888 124.624208 
L 560.775327 124.139531 
L 562.469767 122.71781 
L 562.893376 122.588563 
L 563.316986 122.330068 
L 564.587816 121.974638 
L 565.011425 121.651519 
L 565.435035 121.554584 
L 566.705864 120.7791 
L 567.129474 120.488293 
L 568.400304 120.003616 
L 568.823913 119.777433 
L 570.094743 119.486626 
L 572.212792 118.743454 
L 573.060011 118.48496 
L 574.330841 117.806411 
L 575.17806 117.386357 
L 576.02528 117.160174 
L 577.296109 116.54625 
L 581.532207 114.833722 
L 583.650256 113.799744 
L 584.497476 113.476625 
L 584.921086 113.088883 
L 585.768305 112.733453 
L 587.039135 112.281087 
L 587.462744 111.925657 
L 587.886354 111.893345 
L 588.733574 111.634851 
L 589.580793 111.344044 
L 590.004403 111.150173 
L 590.428013 111.085549 
L 591.275232 110.730119 
L 592.546062 110.439313 
L 593.393281 109.954635 
L 593.816891 109.793076 
L 594.240501 109.469958 
L 595.51133 109.146839 
L 595.93494 108.888345 
L 596.78216 108.662162 
L 598.052989 107.91899 
L 598.476599 107.886678 
L 599.747428 107.466624 
L 600.594648 107.402 
L 601.018258 107.175817 
L 601.865477 106.949635 
L 602.289087 106.723452 
L 604.407136 106.303398 
L 605.254356 106.141839 
L 606.525185 105.657161 
L 607.796014 105.366355 
L 609.066844 104.687806 
L 609.490454 104.300064 
L 610.761283 103.52458 
L 611.184893 103.201462 
L 612.455722 102.781408 
L 613.302942 102.555225 
L 617.11543 100.87501 
L 618.809869 100.422644 
L 619.657089 100.034902 
L 620.080698 99.808719 
L 620.927918 99.550224 
L 621.351528 99.324042 
L 622.198747 99.162482 
L 625.587626 97.676138 
L 626.011236 97.611514 
L 627.282065 96.771407 
L 627.705675 96.706783 
L 629.400114 96.028234 
L 631.094553 95.608181 
L 631.518163 95.543557 
L 631.941773 95.349686 
L 632.365382 95.317374 
L 633.212602 95.026568 
L 633.636212 94.994256 
L 634.907041 94.509578 
L 636.60148 94.024901 
L 637.4487 93.378664 
L 639.143139 92.409309 
L 639.566749 92.312373 
L 639.990359 92.086191 
L 640.837578 91.795384 
L 641.261188 91.666137 
L 641.684798 91.310707 
L 642.955627 90.826029 
L 643.802847 90.341351 
L 644.226457 90.115169 
L 644.650066 89.727427 
L 646.768115 89.145814 
L 648.038945 88.564201 
L 648.886164 88.338018 
L 649.309774 88.111835 
L 649.733384 87.756405 
L 651.427823 87.304039 
L 651.851433 86.980921 
L 657.35836 84.945275 
L 658.20558 84.783716 
L 660.323629 84.105167 
L 661.170848 83.749737 
L 662.018068 83.426619 
L 662.865288 83.200436 
L 663.288897 83.006565 
L 663.712507 83.006565 
L 664.559727 82.651135 
L 665.406946 82.166457 
L 668.372215 81.16479 
L 670.066654 80.583177 
L 671.337483 80.292371 
L 672.608313 79.872317 
L 673.031923 79.775381 
L 673.455532 79.484575 
L 674.302752 79.290704 
L 675.997191 78.806026 
L 676.420801 78.773715 
L 677.26802 78.385973 
L 680.233289 77.6428 
L 681.080509 77.28737 
L 685.316607 76.318015 
L 686.587436 75.639467 
L 687.858265 75.251725 
L 692.094363 73.668445 
L 692.517973 73.345326 
L 693.788802 73.05452 
L 694.636022 72.796025 
L 695.483242 72.375971 
L 695.906851 72.020541 
L 696.754071 71.762046 
L 697.177681 71.503552 
L 698.0249 71.406616 
L 700.990169 70.566509 
L 702.260998 70.308014 
L 703.531828 69.984895 
L 704.379047 69.758713 
L 705.649877 69.080164 
L 707.344316 68.433927 
L 708.191535 67.981562 
L 708.615145 67.94925 
L 709.462365 67.529196 
L 712.427633 66.689088 
L 713.698463 66.495217 
L 714.545682 66.204411 
L 715.816512 65.816669 
L 719.629 64.750378 
L 720.476219 64.524195 
L 720.899829 64.42726 
L 721.323439 64.168765 
L 722.170659 64.007206 
L 723.017878 63.910271 
L 723.441488 63.684088 
L 723.865098 63.651776 
L 725.135927 63.005539 
L 726.406757 62.714733 
L 727.253976 62.326991 
L 728.101196 62.036184 
L 728.948415 61.810001 
L 729.795635 61.454571 
L 730.642854 61.163765 
L 732.337294 60.679087 
L 733.184513 60.614463 
L 734.031733 60.323657 
L 734.455343 60.162098 
L 735.302562 60.03285 
L 736.997001 59.289678 
L 737.420611 59.225054 
L 737.844221 58.998872 
L 738.691441 58.837312 
L 739.53866 58.772689 
L 742.080319 58.09414 
L 742.927538 57.73871 
L 743.351148 57.674086 
L 743.774758 57.415592 
L 744.621978 56.67242 
L 747.163636 55.8 
L 747.163636 55.8 
" clip-path="url(#p4533175d89)" style="fill: none; stroke: #1f77b4; stroke-width: 1.5; stroke-linecap: square"/>
   </g>
   <g id="line2d_38">
    <path d="M 138.859973 307.8 
L 142.672462 307.703064 
L 146.06134 307.541505 
L 147.755779 307.541505 
L 148.179389 307.412258 
L 150.297438 307.315322 
L 152.839097 307.024516 
L 155.380755 306.92758 
L 156.227975 306.830645 
L 159.193243 306.701398 
L 162.158512 306.604462 
L 164.276561 306.539838 
L 169.783488 306.442903 
L 171.901537 306.378279 
L 175.714025 306.281344 
L 177.408465 306.249032 
L 181.644563 306.152096 
L 183.339002 305.990537 
L 185.033441 305.958225 
L 187.5751 305.86129 
L 189.269539 305.828978 
L 191.387588 305.764354 
L 193.082027 305.602795 
L 196.894515 305.50586 
L 197.741735 305.441236 
L 199.436174 305.344301 
L 201.977833 305.247365 
L 203.672272 305.15043 
L 211.297248 304.665752 
L 214.262517 304.568817 
L 215.533346 304.439569 
L 217.651395 304.342634 
L 221.887493 304.116451 
L 226.123591 304.051827 
L 227.81803 303.857956 
L 229.936079 303.761021 
L 234.172177 303.340967 
L 236.713836 303.017848 
L 238.408275 302.953225 
L 241.797153 302.500859 
L 244.338812 302.436235 
L 245.609641 302.306988 
L 246.880471 302.210053 
L 258.741545 301.273009 
L 259.588764 301.11145 
L 262.130423 301.014515 
L 268.90818 300.594461 
L 271.873448 300.497525 
L 273.567888 300.303654 
L 275.685937 300.206719 
L 278.227595 300.109783 
L 280.345644 300.012848 
L 282.040084 299.980536 
L 284.158132 299.915912 
L 285.005352 299.786665 
L 290.935889 299.689729 
L 291.783109 299.592794 
L 296.866426 299.495858 
L 300.678914 299.301987 
L 303.644183 299.205052 
L 305.338622 299.011181 
L 308.303891 298.914245 
L 309.15111 298.784998 
L 311.269159 298.720374 
L 315.505257 298.655751 
L 317.199696 298.494192 
L 318.894136 298.46188 
L 320.164965 298.364944 
L 321.859404 298.203385 
L 326.095502 297.977202 
L 330.3316 297.880267 
L 334.144088 297.686396 
L 335.414917 297.654084 
L 336.262137 297.524837 
L 338.380186 297.427901 
L 339.227406 297.363277 
L 340.074625 297.298654 
L 340.921845 297.23403 
L 345.157943 297.137094 
L 357.019017 296.329299 
L 359.560676 296.232363 
L 361.678725 296.167739 
L 367.609262 296.070804 
L 368.456481 295.941557 
L 374.387018 295.844621 
L 378.623116 295.618438 
L 379.470336 295.586126 
L 380.317556 295.489191 
L 382.435604 295.392255 
L 384.553653 295.327632 
L 386.671702 295.230696 
L 388.789751 295.166073 
L 392.60224 295.069137 
L 395.143898 294.972202 
L 401.074435 294.875266 
L 405.734143 294.616771 
L 407.428582 294.552148 
L 408.699412 294.455212 
L 414.629949 294.358277 
L 417.171608 294.261341 
L 424.796584 294.164406 
L 426.491023 294.132094 
L 431.57434 294.06747 
L 432.42156 294.002847 
L 438.352097 293.905911 
L 440.046536 293.873599 
L 451.060391 293.776664 
L 453.60205 293.679728 
L 471.393661 293.582793 
L 473.51171 293.518169 
L 484.525565 293.453545 
L 485.372784 293.388922 
L 487.490833 293.324298 
L 488.761663 293.195051 
L 491.303321 293.098115 
L 494.26859 292.968868 
L 498.081078 292.871932 
L 500.199127 292.807309 
L 503.164396 292.710373 
L 506.553274 292.548814 
L 508.671323 292.451878 
L 510.365762 292.419567 
L 514.17825 292.322631 
L 515.872689 292.290319 
L 521.379617 292.193384 
L 523.074056 292.161072 
L 525.192105 292.064136 
L 527.733764 291.967201 
L 530.699032 291.902577 
L 531.546252 291.837954 
L 541.712887 291.741018 
L 545.948985 291.514835 
L 548.914253 291.4179 
L 553.573961 291.159405 
L 556.539229 291.06247 
L 558.233669 291.030158 
L 561.198937 290.933222 
L 563.316986 290.707039 
L 567.553084 290.610104 
L 568.400304 290.513168 
L 572.636402 290.416233 
L 574.754451 290.351609 
L 579.414158 290.319297 
L 580.261378 290.222362 
L 584.921086 290.125426 
L 585.768305 290.060803 
L 595.087721 289.963867 
L 597.629379 289.866932 
L 603.983526 289.769996 
L 605.677965 289.737684 
L 609.490454 289.673061 
L 610.337673 289.576125 
L 615.8446 289.47919 
L 617.962649 289.414566 
L 625.587626 289.31763 
L 626.858455 289.220695 
L 628.129284 289.123759 
L 629.400114 289.026824 
L 635.754261 288.929888 
L 638.29592 288.832953 
L 649.733384 288.736017 
L 653.545872 288.542146 
L 658.62919 288.445211 
L 659.476409 288.380587 
L 665.830556 288.315964 
L 666.677776 288.25134 
L 671.337483 288.154404 
L 673.031923 288.122093 
L 680.233289 288.025157 
L 681.080509 287.960533 
L 688.705485 287.863598 
L 690.399924 287.831286 
L 694.212412 287.734351 
L 697.601291 287.572791 
L 702.260998 287.475856 
L 705.226267 287.346609 
L 709.038755 287.249673 
L 709.885975 287.185049 
L 718.35817 287.088114 
L 720.476219 287.02349 
L 723.017878 286.926555 
L 725.559537 286.829619 
L 738.267831 286.732684 
L 741.233099 286.603436 
L 746.316417 286.506501 
L 747.163636 286.474189 
L 747.163636 286.474189 
" clip-path="url(#p4533175d89)" style="fill: none; stroke: #ff7f0e; stroke-width: 1.5; stroke-linecap: square"/>
   </g>
   <g id="patch_3">
    <path d="M 108 320.4 
L 108 43.2 
" style="fill: none; stroke: #a9a9a9; stroke-width: 0.8; stroke-linejoin: miter; stroke-linecap: square"/>
   </g>
   <g id="patch_4">
    <path d="M 777.6 320.4 
L 777.6 43.2 
" style="fill: none"/>
   </g>
   <g id="patch_5">
    <path d="M 108 320.4 
L 777.6 320.4 
" style="fill: none; stroke: #a9a9a9; stroke-width: 0.8; stroke-linejoin: miter; stroke-linecap: square"/>
   </g>
   <g id="patch_6">
    <path d="M 108 43.2 
L 777.6 43.2 
" style="fill: none"/>
   </g>
   <g id="text_19">
    <!-- get_subscribe history -->
    <g style="fill: #a9a9a9" transform="translate(378.6075 37.2) scale(0.12 -0.12)">
     <defs>
      <path id="DejaVuSans-67" d="M 2906 1791 
Q 2906 2416 2648 2759 
Q 2391 3103 1925 3103 
Q 1463 3103 1205 2759 
Q 947 2416 947 1791 
Q 947 1169 1205 825 
Q 1463 481 1925 481 
Q 2391 481 2648 825 
Q 2906 1169 2906 1791 
z
M 3481 434 
Q 3481 -459 3084 -895 
Q 2688 -1331 1869 -1331 
Q 1566 -1331 1297 -1286 
Q 1028 -1241 775 -1147 
L 775 -588 
Q 1028 -725 1275 -790 
Q 1522 -856 1778 -856 
Q 2344 -856 2625 -561 
Q 2906 -266 2906 331 
L 2906 616 
Q 2728 306 2450 153 
Q 2172 0 1784 0 
Q 1141 0 747 490 
Q 353 981 353 1791 
Q 353 2603 747 3093 
Q 1141 3584 1784 3584 
Q 2172 3584 2450 3431 
Q 2728 3278 2906 2969 
L 2906 3500 
L 3481 3500 
L 3481 434 
z
" transform="scale(0.015625)"/>
      <path id="DejaVuSans-65" d="M 3597 1894 
L 3597 1613 
L 953 1613 
Q 991 1019 1311 708 
Q 1631 397 2203 397 
Q 2534 397 2845 478 
Q 3156 559 3463 722 
L 3463 178 
Q 3153 47 2828 -22 
Q 2503 -91 2169 -91 
Q 1331 -91 842 396 
Q 353 884 353 1716 
Q 353 2575 817 3079 
Q 1281 3584 2069 3584 
Q 2775 3584 3186 3129 
Q 3597 2675 3597 1894 
z
M 3022 2063 
Q 3016 2534 2758 2815 
Q 2500 3097 2075 3097 
Q 1594 3097 1305 2825 
Q 1016 2553 972 2059 
L 3022 2063 
z
" transform="scale(0.015625)"/>
      <path id="DejaVuSans-74" d="M 1172 4494 
L 1172 3500 
L 2356 3500 
L 2356 3053 
L 1172 3053 
L 1172 1153 
Q 1172 725 1289 603 
Q 1406 481 1766 481 
L 2356 481 
L 2356 0 
L 1766 0 
Q 1100 0 847 248 
Q 594 497 594 1153 
L 594 3053 
L 172 3053 
L 172 3500 
L 594 3500 
L 594 4494 
L 1172 4494 
z
" transform="scale(0.015625)"/>
      <path id="DejaVuSans-5f" d="M 3263 -1063 
L 3263 -1509 
L -63 -1509 
L -63 -1063 
L 3263 -1063 
z
" transform="scale(0.015625)"/>
      <path id="DejaVuSans-73" d="M 2834 3397 
L 2834 2853 
Q 2591 2978 2328 3040 
Q 2066 3103 1784 3103 
Q 1356 3103 1142 2972 
Q 928 2841 928 2578 
Q 928 2378 1081 2264 
Q 1234 2150 1697 2047 
L 1894 2003 
Q 2506 1872 2764 1633 
Q 3022 1394 3022 966 
Q 3022 478 2636 193 
Q 2250 -91 1575 -91 
Q 1294 -91 989 -36 
Q 684 19 347 128 
L 347 722 
Q 666 556 975 473 
Q 1284 391 1588 391 
Q 1994 391 2212 530 
Q 2431 669 2431 922 
Q 2431 1156 2273 1281 
Q 2116 1406 1581 1522 
L 1381 1569 
Q 847 1681 609 1914 
Q 372 2147 372 2553 
Q 372 3047 722 3315 
Q 1072 3584 1716 3584 
Q 2034 3584 2315 3537 
Q 2597 3491 2834 3397 
z
" transform="scale(0.015625)"/>
      <path id="DejaVuSans-75" d="M 544 1381 
L 544 3500 
L 1119 3500 
L 1119 1403 
Q 1119 906 1312 657 
Q 1506 409 1894 409 
Q 2359 409 2629 706 
Q 2900 1003 2900 1516 
L 2900 3500 
L 3475 3500 
L 3475 0 
L 2900 0 
L 2900 538 
Q 2691 219 2414 64 
Q 2138 -91 1772 -91 
Q 1169 -91 856 284 
Q 544 659 544 1381 
z
M 1991 3584 
L 1991 3584 
z
" transform="scale(0.015625)"/>
      <path id="DejaVuSans-62" d="M 3116 1747 
Q 3116 2381 2855 2742 
Q 2594 3103 2138 3103 
Q 1681 3103 1420 2742 
Q 1159 2381 1159 1747 
Q 1159 1113 1420 752 
Q 1681 391 2138 391 
Q 2594 391 2855 752 
Q 3116 1113 3116 1747 
z
M 1159 2969 
Q 1341 3281 1617 3432 
Q 1894 3584 2278 3584 
Q 2916 3584 3314 3078 
Q 3713 2572 3713 1747 
Q 3713 922 3314 415 
Q 2916 -91 2278 -91 
Q 1894 -91 1617 61 
Q 1341 213 1159 525 
L 1159 0 
L 581 0 
L 581 4863 
L 1159 4863 
L 1159 2969 
z
" transform="scale(0.015625)"/>
      <path id="DejaVuSans-63" d="M 3122 3366 
L 3122 2828 
Q 2878 2963 2633 3030 
Q 2388 3097 2138 3097 
Q 1578 3097 1268 2742 
Q 959 2388 959 1747 
Q 959 1106 1268 751 
Q 1578 397 2138 397 
Q 2388 397 2633 464 
Q 2878 531 3122 666 
L 3122 134 
Q 2881 22 2623 -34 
Q 2366 -91 2075 -91 
Q 1284 -91 818 406 
Q 353 903 353 1747 
Q 353 2603 823 3093 
Q 1294 3584 2113 3584 
Q 2378 3584 2631 3529 
Q 2884 3475 3122 3366 
z
" transform="scale(0.015625)"/>
      <path id="DejaVuSans-72" d="M 2631 2963 
Q 2534 3019 2420 3045 
Q 2306 3072 2169 3072 
Q 1681 3072 1420 2755 
Q 1159 2438 1159 1844 
L 1159 0 
L 581 0 
L 581 3500 
L 1159 3500 
L 1159 2956 
Q 1341 3275 1631 3429 
Q 1922 3584 2338 3584 
Q 2397 3584 2469 3576 
Q 2541 3569 2628 3553 
L 2631 2963 
z
" transform="scale(0.015625)"/>
      <path id="DejaVuSans-69" d="M 603 3500 
L 1178 3500 
L 1178 0 
L 603 0 
L 603 3500 
z
M 603 4863 
L 1178 4863 
L 1178 4134 
L 603 4134 
L 603 4863 
z
" transform="scale(0.015625)"/>
      <path id="DejaVuSans-20" transform="scale(0.015625)"/>
      <path id="DejaVuSans-68" d="M 3513 2113 
L 3513 0 
L 2938 0 
L 2938 2094 
Q 2938 2591 2744 2837 
Q 2550 3084 2163 3084 
Q 1697 3084 1428 2787 
Q 1159 2491 1159 1978 
L 1159 0 
L 581 0 
L 581 4863 
L 1159 4863 
L 1159 2956 
Q 1366 3272 1645 3428 
Q 1925 3584 2291 3584 
Q 2894 3584 3203 3211 
Q 3513 2838 3513 2113 
z
" transform="scale(0.015625)"/>
      <path id="DejaVuSans-6f" d="M 1959 3097 
Q 1497 3097 1228 2736 
Q 959 2375 959 1747 
Q 959 1119 1226 758 
Q 1494 397 1959 397 
Q 2419 397 2687 759 
Q 2956 1122 2956 1747 
Q 2956 2369 2687 2733 
Q 2419 3097 1959 3097 
z
M 1959 3584 
Q 2709 3584 3137 3096 
Q 3566 2609 3566 1747 
Q 3566 888 3137 398 
Q 2709 -91 1959 -91 
Q 1206 -91 779 398 
Q 353 888 353 1747 
Q 353 2609 779 3096 
Q 1206 3584 1959 3584 
z
" transform="scale(0.015625)"/>
      <path id="DejaVuSans-79" d="M 2059 -325 
Q 1816 -950 1584 -1140 
Q 1353 -1331 966 -1331 
L 506 -1331 
L 506 -850 
L 844 -850 
Q 1081 -850 1212 -737 
Q 1344 -625 1503 -206 
L 1606 56 
L 191 3500 
L 800 3500 
L 1894 763 
L 2988 3500 
L 3597 3500 
L 2059 -325 
z
" transform="scale(0.015625)"/>
     </defs>
     <use xlink:href="#DejaVuSans-67"/>
     <use xlink:href="#DejaVuSans-65" transform="translate(63.476562 0)"/>
     <use xlink:href="#DejaVuSans-74" transform="translate(125 0)"/>
     <use xlink:href="#DejaVuSans-5f" transform="translate(164.208984 0)"/>
     <use xlink:href="#DejaVuSans-73" transform="translate(214.208984 0)"/>
     <use xlink:href="#DejaVuSans-75" transform="translate(266.308594 0)"/>
     <use xlink:href="#DejaVuSans-62" transform="translate(329.6875 0)"/>
     <use xlink:href="#DejaVuSans-73" transform="translate(393.164062 0)"/>
     <use xlink:href="#DejaVuSans-63" transform="translate(445.263672 0)"/>
     <use xlink:href="#DejaVuSans-72" transform="translate(500.244141 0)"/>
     <use xlink:href="#DejaVuSans-69" transform="translate(541.357422 0)"/>
     <use xlink:href="#DejaVuSans-62" transform="translate(569.140625 0)"/>
     <use xlink:href="#DejaVuSans-65" transform="translate(632.617188 0)"/>
     <use xlink:href="#DejaVuSans-20" transform="translate(694.140625 0)"/>
     <use xlink:href="#DejaVuSans-68" transform="translate(725.927734 0)"/>
     <use xlink:href="#DejaVuSans-69" transform="translate(789.306641 0)"/>
     <use xlink:href="#DejaVuSans-73" transform="translate(817.089844 0)"/>
     <use xlink:href="#DejaVuSans-74" transform="translate(869.189453 0)"/>
     <use xlink:href="#DejaVuSans-6f" transform="translate(908.398438 0)"/>
     <use xlink:href="#DejaVuSans-72" transform="translate(969.580078 0)"/>
     <use xlink:href="#DejaVuSans-79" transform="translate(1010.693359 0)"/>
    </g>
   </g>
   <g id="legend_1">
    <g id="line2d_39">
     <path d="M 815.08 328.498438 
L 825.08 328.498438 
L 835.08 328.498438 
" style="fill: none; stroke: #1f77b4; stroke-width: 1.5; stroke-linecap: square"/>
    </g>
    <g id="text_20">
     <!-- star -->
     <g style="fill: #a9a9a9" transform="translate(843.08 331.998438) scale(0.1 -0.1)">
      <defs>
       <path id="DejaVuSans-61" d="M 2194 1759 
Q 1497 1759 1228 1600 
Q 959 1441 959 1056 
Q 959 750 1161 570 
Q 1363 391 1709 391 
Q 2188 391 2477 730 
Q 2766 1069 2766 1631 
L 2766 1759 
L 2194 1759 
z
M 3341 1997 
L 3341 0 
L 2766 0 
L 2766 531 
Q 2569 213 2275 61 
Q 1981 -91 1556 -91 
Q 1019 -91 701 211 
Q 384 513 384 1019 
Q 384 1609 779 1909 
Q 1175 2209 1959 2209 
L 2766 2209 
L 2766 2266 
Q 2766 2663 2505 2880 
Q 2244 3097 1772 3097 
Q 1472 3097 1187 3025 
Q 903 2953 641 2809 
L 641 3341 
Q 956 3463 1253 3523 
Q 1550 3584 1831 3584 
Q 2591 3584 2966 3190 
Q 3341 2797 3341 1997 
z
" transform="scale(0.015625)"/>
      </defs>
      <use xlink:href="#DejaVuSans-73"/>
      <use xlink:href="#DejaVuSans-74" transform="translate(52.099609 0)"/>
      <use xlink:href="#DejaVuSans-61" transform="translate(91.308594 0)"/>
      <use xlink:href="#DejaVuSans-72" transform="translate(152.587891 0)"/>
     </g>
    </g>
    <g id="line2d_40">
     <path d="M 815.08 343.176562 
L 825.08 343.176562 
L 835.08 343.176562 
" style="fill: none; stroke: #ff7f0e; stroke-width: 1.5; stroke-linecap: square"/>
    </g>
    <g id="text_21">
     <!-- fork -->
     <g style="fill: #a9a9a9" transform="translate(843.08 346.676562) scale(0.1 -0.1)">
      <defs>
       <path id="DejaVuSans-66" d="M 2375 4863 
L 2375 4384 
L 1825 4384 
Q 1516 4384 1395 4259 
Q 1275 4134 1275 3809 
L 1275 3500 
L 2222 3500 
L 2222 3053 
L 1275 3053 
L 1275 0 
L 697 0 
L 697 3053 
L 147 3053 
L 147 3500 
L 697 3500 
L 697 3744 
Q 697 4328 969 4595 
Q 1241 4863 1831 4863 
L 2375 4863 
z
" transform="scale(0.015625)"/>
       <path id="DejaVuSans-6b" d="M 581 4863 
L 1159 4863 
L 1159 1991 
L 2875 3500 
L 3609 3500 
L 1753 1863 
L 3688 0 
L 2938 0 
L 1159 1709 
L 1159 0 
L 581 0 
L 581 4863 
z
" transform="scale(0.015625)"/>
      </defs>
      <use xlink:href="#DejaVuSans-66"/>
      <use xlink:href="#DejaVuSans-6f" transform="translate(35.205078 0)"/>
      <use xlink:href="#DejaVuSans-72" transform="translate(96.386719 0)"/>
      <use xlink:href="#DejaVuSans-6b" transform="translate(137.5 0)"/>
     </g>
    </g>
   </g>
  </g>
 </g>
 <defs>
  <clipPath id="p4533175d89">
   <rect x="108" y="43.2" width="669.6" height="277.2"/>
  </clipPath>
 </defs>
</svg>
