<?xml version="1.0" encoding="utf-8" standalone="no"?>
<!DOCTYPE svg PUBLIC "-//W3C//DTD SVG 1.1//EN"
  "http://www.w3.org/Graphics/SVG/1.1/DTD/svg11.dtd">
<svg xmlns:xlink="http://www.w3.org/1999/xlink" width="864pt" height="360pt" viewBox="0 0 864 360" xmlns="http://www.w3.org/2000/svg" version="1.1">
 <metadata>
  <rdf:RDF xmlns:dc="http://purl.org/dc/elements/1.1/" xmlns:cc="http://creativecommons.org/ns#" xmlns:rdf="http://www.w3.org/1999/02/22-rdf-syntax-ns#">
   <cc:Work>
    <dc:type rdf:resource="http://purl.org/dc/dcmitype/StillImage"/>
    <dc:date>2025-09-26T08:15:21.964604</dc:date>
    <dc:format>image/svg+xml</dc:format>
    <dc:creator>
     <cc:Agent>
      <dc:title>Matplotlib v3.10.6, https://matplotlib.org/</dc:title>
     </cc:Agent>
    </dc:creator>
   </cc:Work>
  </rdf:RDF>
 </metadata>
 <defs>
  <style type="text/css">*{stroke-linejoin: round; stroke-linecap: butt}</style>
 </defs>
 <g id="figure_1">
  <g id="patch_1">
   <path d="M 0 360 
L 864 360 
L 864 0 
L 0 0 
L 0 360 
z
" style="fill: none; opacity: 0"/>
  </g>
  <g id="axes_1">
   <g id="patch_2">
    <path d="M 108 320.4 
L 777.6 320.4 
L 777.6 43.2 
L 108 43.2 
L 108 320.4 
z
" style="fill: none; opacity: 0"/>
   </g>
   <g id="matplotlib.axis_1">
    <g id="xtick_1">
     <g id="line2d_1">
      <path d="M 129.255559 320.4 
L 129.255559 43.2 
" clip-path="url(#p3662444b34)" style="fill: none; stroke-dasharray: 5.12,1.28,0.8,1.28; stroke-dashoffset: 0; stroke: #b0b0b0; stroke-width: 0.8"/>
     </g>
     <g id="line2d_2">
      <defs>
       <path id="me72c2fec50" d="M 0 0 
L 0 3.5 
" style="stroke: #a9a9a9; stroke-width: 0.8"/>
      </defs>
      <g>
       <use xlink:href="#me72c2fec50" x="129.255559" y="320.4" style="fill: #a9a9a9; stroke: #a9a9a9; stroke-width: 0.8"/>
      </g>
     </g>
     <g id="text_1">
      <!-- 2021-07 -->
      <g style="fill: #a9a9a9" transform="translate(108.364153 334.998438) scale(0.1 -0.1)">
       <defs>
        <path id="DejaVuSans-32" d="M 1228 531 
L 3431 531 
L 3431 0 
L 469 0 
L 469 531 
Q 828 903 1448 1529 
Q 2069 2156 2228 2338 
Q 2531 2678 2651 2914 
Q 2772 3150 2772 3378 
Q 2772 3750 2511 3984 
Q 2250 4219 1831 4219 
Q 1534 4219 1204 4116 
Q 875 4013 500 3803 
L 500 4441 
Q 881 4594 1212 4672 
Q 1544 4750 1819 4750 
Q 2544 4750 2975 4387 
Q 3406 4025 3406 3419 
Q 3406 3131 3298 2873 
Q 3191 2616 2906 2266 
Q 2828 2175 2409 1742 
Q 1991 1309 1228 531 
z
" transform="scale(0.015625)"/>
        <path id="DejaVuSans-30" d="M 2034 4250 
Q 1547 4250 1301 3770 
Q 1056 3291 1056 2328 
Q 1056 1369 1301 889 
Q 1547 409 2034 409 
Q 2525 409 2770 889 
Q 3016 1369 3016 2328 
Q 3016 3291 2770 3770 
Q 2525 4250 2034 4250 
z
M 2034 4750 
Q 2819 4750 3233 4129 
Q 3647 3509 3647 2328 
Q 3647 1150 3233 529 
Q 2819 -91 2034 -91 
Q 1250 -91 836 529 
Q 422 1150 422 2328 
Q 422 3509 836 4129 
Q 1250 4750 2034 4750 
z
" transform="scale(0.015625)"/>
        <path id="DejaVuSans-31" d="M 794 531 
L 1825 531 
L 1825 4091 
L 703 3866 
L 703 4441 
L 1819 4666 
L 2450 4666 
L 2450 531 
L 3481 531 
L 3481 0 
L 794 0 
L 794 531 
z
" transform="scale(0.015625)"/>
        <path id="DejaVuSans-2d" d="M 313 2009 
L 1997 2009 
L 1997 1497 
L 313 1497 
L 313 2009 
z
" transform="scale(0.015625)"/>
        <path id="DejaVuSans-37" d="M 525 4666 
L 3525 4666 
L 3525 4397 
L 1831 0 
L 1172 0 
L 2766 4134 
L 525 4134 
L 525 4666 
z
" transform="scale(0.015625)"/>
       </defs>
       <use xlink:href="#DejaVuSans-32"/>
       <use xlink:href="#DejaVuSans-30" transform="translate(63.623047 0)"/>
       <use xlink:href="#DejaVuSans-32" transform="translate(127.246094 0)"/>
       <use xlink:href="#DejaVuSans-31" transform="translate(190.869141 0)"/>
       <use xlink:href="#DejaVuSans-2d" transform="translate(254.492188 0)"/>
       <use xlink:href="#DejaVuSans-30" transform="translate(290.576172 0)"/>
       <use xlink:href="#DejaVuSans-37" transform="translate(354.199219 0)"/>
      </g>
     </g>
    </g>
    <g id="xtick_2">
     <g id="line2d_3">
      <path d="M 202.701997 320.4 
L 202.701997 43.2 
" clip-path="url(#p3662444b34)" style="fill: none; stroke-dasharray: 5.12,1.28,0.8,1.28; stroke-dashoffset: 0; stroke: #b0b0b0; stroke-width: 0.8"/>
     </g>
     <g id="line2d_4">
      <g>
       <use xlink:href="#me72c2fec50" x="202.701997" y="320.4" style="fill: #a9a9a9; stroke: #a9a9a9; stroke-width: 0.8"/>
      </g>
     </g>
     <g id="text_2">
      <!-- 2022-01 -->
      <g style="fill: #a9a9a9" transform="translate(181.810591 334.998438) scale(0.1 -0.1)">
       <use xlink:href="#DejaVuSans-32"/>
       <use xlink:href="#DejaVuSans-30" transform="translate(63.623047 0)"/>
       <use xlink:href="#DejaVuSans-32" transform="translate(127.246094 0)"/>
       <use xlink:href="#DejaVuSans-32" transform="translate(190.869141 0)"/>
       <use xlink:href="#DejaVuSans-2d" transform="translate(254.492188 0)"/>
       <use xlink:href="#DejaVuSans-30" transform="translate(290.576172 0)"/>
       <use xlink:href="#DejaVuSans-31" transform="translate(354.199219 0)"/>
      </g>
     </g>
    </g>
    <g id="xtick_3">
     <g id="line2d_5">
      <path d="M 274.950939 320.4 
L 274.950939 43.2 
" clip-path="url(#p3662444b34)" style="fill: none; stroke-dasharray: 5.12,1.28,0.8,1.28; stroke-dashoffset: 0; stroke: #b0b0b0; stroke-width: 0.8"/>
     </g>
     <g id="line2d_6">
      <g>
       <use xlink:href="#me72c2fec50" x="274.950939" y="320.4" style="fill: #a9a9a9; stroke: #a9a9a9; stroke-width: 0.8"/>
      </g>
     </g>
     <g id="text_3">
      <!-- 2022-07 -->
      <g style="fill: #a9a9a9" transform="translate(254.059533 334.998438) scale(0.1 -0.1)">
       <use xlink:href="#DejaVuSans-32"/>
       <use xlink:href="#DejaVuSans-30" transform="translate(63.623047 0)"/>
       <use xlink:href="#DejaVuSans-32" transform="translate(127.246094 0)"/>
       <use xlink:href="#DejaVuSans-32" transform="translate(190.869141 0)"/>
       <use xlink:href="#DejaVuSans-2d" transform="translate(254.492188 0)"/>
       <use xlink:href="#DejaVuSans-30" transform="translate(290.576172 0)"/>
       <use xlink:href="#DejaVuSans-37" transform="translate(354.199219 0)"/>
      </g>
     </g>
    </g>
    <g id="xtick_4">
     <g id="line2d_7">
      <path d="M 348.397377 320.4 
L 348.397377 43.2 
" clip-path="url(#p3662444b34)" style="fill: none; stroke-dasharray: 5.12,1.28,0.8,1.28; stroke-dashoffset: 0; stroke: #b0b0b0; stroke-width: 0.8"/>
     </g>
     <g id="line2d_8">
      <g>
       <use xlink:href="#me72c2fec50" x="348.397377" y="320.4" style="fill: #a9a9a9; stroke: #a9a9a9; stroke-width: 0.8"/>
      </g>
     </g>
     <g id="text_4">
      <!-- 2023-01 -->
      <g style="fill: #a9a9a9" transform="translate(327.505971 334.998438) scale(0.1 -0.1)">
       <defs>
        <path id="DejaVuSans-33" d="M 2597 2516 
Q 3050 2419 3304 2112 
Q 3559 1806 3559 1356 
Q 3559 666 3084 287 
Q 2609 -91 1734 -91 
Q 1441 -91 1130 -33 
Q 819 25 488 141 
L 488 750 
Q 750 597 1062 519 
Q 1375 441 1716 441 
Q 2309 441 2620 675 
Q 2931 909 2931 1356 
Q 2931 1769 2642 2001 
Q 2353 2234 1838 2234 
L 1294 2234 
L 1294 2753 
L 1863 2753 
Q 2328 2753 2575 2939 
Q 2822 3125 2822 3475 
Q 2822 3834 2567 4026 
Q 2313 4219 1838 4219 
Q 1578 4219 1281 4162 
Q 984 4106 628 3988 
L 628 4550 
Q 988 4650 1302 4700 
Q 1616 4750 1894 4750 
Q 2613 4750 3031 4423 
Q 3450 4097 3450 3541 
Q 3450 3153 3228 2886 
Q 3006 2619 2597 2516 
z
" transform="scale(0.015625)"/>
       </defs>
       <use xlink:href="#DejaVuSans-32"/>
       <use xlink:href="#DejaVuSans-30" transform="translate(63.623047 0)"/>
       <use xlink:href="#DejaVuSans-32" transform="translate(127.246094 0)"/>
       <use xlink:href="#DejaVuSans-33" transform="translate(190.869141 0)"/>
       <use xlink:href="#DejaVuSans-2d" transform="translate(254.492188 0)"/>
       <use xlink:href="#DejaVuSans-30" transform="translate(290.576172 0)"/>
       <use xlink:href="#DejaVuSans-31" transform="translate(354.199219 0)"/>
      </g>
     </g>
    </g>
    <g id="xtick_5">
     <g id="line2d_9">
      <path d="M 420.646319 320.4 
L 420.646319 43.2 
" clip-path="url(#p3662444b34)" style="fill: none; stroke-dasharray: 5.12,1.28,0.8,1.28; stroke-dashoffset: 0; stroke: #b0b0b0; stroke-width: 0.8"/>
     </g>
     <g id="line2d_10">
      <g>
       <use xlink:href="#me72c2fec50" x="420.646319" y="320.4" style="fill: #a9a9a9; stroke: #a9a9a9; stroke-width: 0.8"/>
      </g>
     </g>
     <g id="text_5">
      <!-- 2023-07 -->
      <g style="fill: #a9a9a9" transform="translate(399.754913 334.998438) scale(0.1 -0.1)">
       <use xlink:href="#DejaVuSans-32"/>
       <use xlink:href="#DejaVuSans-30" transform="translate(63.623047 0)"/>
       <use xlink:href="#DejaVuSans-32" transform="translate(127.246094 0)"/>
       <use xlink:href="#DejaVuSans-33" transform="translate(190.869141 0)"/>
       <use xlink:href="#DejaVuSans-2d" transform="translate(254.492188 0)"/>
       <use xlink:href="#DejaVuSans-30" transform="translate(290.576172 0)"/>
       <use xlink:href="#DejaVuSans-37" transform="translate(354.199219 0)"/>
      </g>
     </g>
    </g>
    <g id="xtick_6">
     <g id="line2d_11">
      <path d="M 494.092757 320.4 
L 494.092757 43.2 
" clip-path="url(#p3662444b34)" style="fill: none; stroke-dasharray: 5.12,1.28,0.8,1.28; stroke-dashoffset: 0; stroke: #b0b0b0; stroke-width: 0.8"/>
     </g>
     <g id="line2d_12">
      <g>
       <use xlink:href="#me72c2fec50" x="494.092757" y="320.4" style="fill: #a9a9a9; stroke: #a9a9a9; stroke-width: 0.8"/>
      </g>
     </g>
     <g id="text_6">
      <!-- 2024-01 -->
      <g style="fill: #a9a9a9" transform="translate(473.201351 334.998438) scale(0.1 -0.1)">
       <defs>
        <path id="DejaVuSans-34" d="M 2419 4116 
L 825 1625 
L 2419 1625 
L 2419 4116 
z
M 2253 4666 
L 3047 4666 
L 3047 1625 
L 3713 1625 
L 3713 1100 
L 3047 1100 
L 3047 0 
L 2419 0 
L 2419 1100 
L 313 1100 
L 313 1709 
L 2253 4666 
z
" transform="scale(0.015625)"/>
       </defs>
       <use xlink:href="#DejaVuSans-32"/>
       <use xlink:href="#DejaVuSans-30" transform="translate(63.623047 0)"/>
       <use xlink:href="#DejaVuSans-32" transform="translate(127.246094 0)"/>
       <use xlink:href="#DejaVuSans-34" transform="translate(190.869141 0)"/>
       <use xlink:href="#DejaVuSans-2d" transform="translate(254.492188 0)"/>
       <use xlink:href="#DejaVuSans-30" transform="translate(290.576172 0)"/>
       <use xlink:href="#DejaVuSans-31" transform="translate(354.199219 0)"/>
      </g>
     </g>
    </g>
    <g id="xtick_7">
     <g id="line2d_13">
      <path d="M 566.740864 320.4 
L 566.740864 43.2 
" clip-path="url(#p3662444b34)" style="fill: none; stroke-dasharray: 5.12,1.28,0.8,1.28; stroke-dashoffset: 0; stroke: #b0b0b0; stroke-width: 0.8"/>
     </g>
     <g id="line2d_14">
      <g>
       <use xlink:href="#me72c2fec50" x="566.740864" y="320.4" style="fill: #a9a9a9; stroke: #a9a9a9; stroke-width: 0.8"/>
      </g>
     </g>
     <g id="text_7">
      <!-- 2024-07 -->
      <g style="fill: #a9a9a9" transform="translate(545.849458 334.998438) scale(0.1 -0.1)">
       <use xlink:href="#DejaVuSans-32"/>
       <use xlink:href="#DejaVuSans-30" transform="translate(63.623047 0)"/>
       <use xlink:href="#DejaVuSans-32" transform="translate(127.246094 0)"/>
       <use xlink:href="#DejaVuSans-34" transform="translate(190.869141 0)"/>
       <use xlink:href="#DejaVuSans-2d" transform="translate(254.492188 0)"/>
       <use xlink:href="#DejaVuSans-30" transform="translate(290.576172 0)"/>
       <use xlink:href="#DejaVuSans-37" transform="translate(354.199219 0)"/>
      </g>
     </g>
    </g>
    <g id="xtick_8">
     <g id="line2d_15">
      <path d="M 640.187303 320.4 
L 640.187303 43.2 
" clip-path="url(#p3662444b34)" style="fill: none; stroke-dasharray: 5.12,1.28,0.8,1.28; stroke-dashoffset: 0; stroke: #b0b0b0; stroke-width: 0.8"/>
     </g>
     <g id="line2d_16">
      <g>
       <use xlink:href="#me72c2fec50" x="640.187303" y="320.4" style="fill: #a9a9a9; stroke: #a9a9a9; stroke-width: 0.8"/>
      </g>
     </g>
     <g id="text_8">
      <!-- 2025-01 -->
      <g style="fill: #a9a9a9" transform="translate(619.295896 334.998438) scale(0.1 -0.1)">
       <defs>
        <path id="DejaVuSans-35" d="M 691 4666 
L 3169 4666 
L 3169 4134 
L 1269 4134 
L 1269 2991 
Q 1406 3038 1543 3061 
Q 1681 3084 1819 3084 
Q 2600 3084 3056 2656 
Q 3513 2228 3513 1497 
Q 3513 744 3044 326 
Q 2575 -91 1722 -91 
Q 1428 -91 1123 -41 
Q 819 9 494 109 
L 494 744 
Q 775 591 1075 516 
Q 1375 441 1709 441 
Q 2250 441 2565 725 
Q 2881 1009 2881 1497 
Q 2881 1984 2565 2268 
Q 2250 2553 1709 2553 
Q 1456 2553 1204 2497 
Q 953 2441 691 2322 
L 691 4666 
z
" transform="scale(0.015625)"/>
       </defs>
       <use xlink:href="#DejaVuSans-32"/>
       <use xlink:href="#DejaVuSans-30" transform="translate(63.623047 0)"/>
       <use xlink:href="#DejaVuSans-32" transform="translate(127.246094 0)"/>
       <use xlink:href="#DejaVuSans-35" transform="translate(190.869141 0)"/>
       <use xlink:href="#DejaVuSans-2d" transform="translate(254.492188 0)"/>
       <use xlink:href="#DejaVuSans-30" transform="translate(290.576172 0)"/>
       <use xlink:href="#DejaVuSans-31" transform="translate(354.199219 0)"/>
      </g>
     </g>
    </g>
    <g id="xtick_9">
     <g id="line2d_17">
      <path d="M 712.436244 320.4 
L 712.436244 43.2 
" clip-path="url(#p3662444b34)" style="fill: none; stroke-dasharray: 5.12,1.28,0.8,1.28; stroke-dashoffset: 0; stroke: #b0b0b0; stroke-width: 0.8"/>
     </g>
     <g id="line2d_18">
      <g>
       <use xlink:href="#me72c2fec50" x="712.436244" y="320.4" style="fill: #a9a9a9; stroke: #a9a9a9; stroke-width: 0.8"/>
      </g>
     </g>
     <g id="text_9">
      <!-- 2025-07 -->
      <g style="fill: #a9a9a9" transform="translate(691.544838 334.998438) scale(0.1 -0.1)">
       <use xlink:href="#DejaVuSans-32"/>
       <use xlink:href="#DejaVuSans-30" transform="translate(63.623047 0)"/>
       <use xlink:href="#DejaVuSans-32" transform="translate(127.246094 0)"/>
       <use xlink:href="#DejaVuSans-35" transform="translate(190.869141 0)"/>
       <use xlink:href="#DejaVuSans-2d" transform="translate(254.492188 0)"/>
       <use xlink:href="#DejaVuSans-30" transform="translate(290.576172 0)"/>
       <use xlink:href="#DejaVuSans-37" transform="translate(354.199219 0)"/>
      </g>
     </g>
    </g>
   </g>
   <g id="matplotlib.axis_2">
    <g id="ytick_1">
     <g id="line2d_19">
      <path d="M 108 307.830814 
L 777.6 307.830814 
" clip-path="url(#p3662444b34)" style="fill: none; stroke-dasharray: 5.12,1.28,0.8,1.28; stroke-dashoffset: 0; stroke: #b0b0b0; stroke-width: 0.8"/>
     </g>
     <g id="line2d_20">
      <defs>
       <path id="mc6257776d2" d="M 0 0 
L -3.5 0 
" style="stroke: #a9a9a9; stroke-width: 0.8"/>
      </defs>
      <g>
       <use xlink:href="#mc6257776d2" x="108" y="307.830814" style="fill: #a9a9a9; stroke: #a9a9a9; stroke-width: 0.8"/>
      </g>
     </g>
     <g id="text_10">
      <!-- 0 -->
      <g style="fill: #a9a9a9" transform="translate(94.6375 311.630033) scale(0.1 -0.1)">
       <use xlink:href="#DejaVuSans-30"/>
      </g>
     </g>
    </g>
    <g id="ytick_2">
     <g id="line2d_21">
      <path d="M 108 277.016434 
L 777.6 277.016434 
" clip-path="url(#p3662444b34)" style="fill: none; stroke-dasharray: 5.12,1.28,0.8,1.28; stroke-dashoffset: 0; stroke: #b0b0b0; stroke-width: 0.8"/>
     </g>
     <g id="line2d_22">
      <g>
       <use xlink:href="#mc6257776d2" x="108" y="277.016434" style="fill: #a9a9a9; stroke: #a9a9a9; stroke-width: 0.8"/>
      </g>
     </g>
     <g id="text_11">
      <!-- 1000 -->
      <g style="fill: #a9a9a9" transform="translate(75.55 280.815653) scale(0.1 -0.1)">
       <use xlink:href="#DejaVuSans-31"/>
       <use xlink:href="#DejaVuSans-30" transform="translate(63.623047 0)"/>
       <use xlink:href="#DejaVuSans-30" transform="translate(127.246094 0)"/>
       <use xlink:href="#DejaVuSans-30" transform="translate(190.869141 0)"/>
      </g>
     </g>
    </g>
    <g id="ytick_3">
     <g id="line2d_23">
      <path d="M 108 246.202054 
L 777.6 246.202054 
" clip-path="url(#p3662444b34)" style="fill: none; stroke-dasharray: 5.12,1.28,0.8,1.28; stroke-dashoffset: 0; stroke: #b0b0b0; stroke-width: 0.8"/>
     </g>
     <g id="line2d_24">
      <g>
       <use xlink:href="#mc6257776d2" x="108" y="246.202054" style="fill: #a9a9a9; stroke: #a9a9a9; stroke-width: 0.8"/>
      </g>
     </g>
     <g id="text_12">
      <!-- 2000 -->
      <g style="fill: #a9a9a9" transform="translate(75.55 250.001273) scale(0.1 -0.1)">
       <use xlink:href="#DejaVuSans-32"/>
       <use xlink:href="#DejaVuSans-30" transform="translate(63.623047 0)"/>
       <use xlink:href="#DejaVuSans-30" transform="translate(127.246094 0)"/>
       <use xlink:href="#DejaVuSans-30" transform="translate(190.869141 0)"/>
      </g>
     </g>
    </g>
    <g id="ytick_4">
     <g id="line2d_25">
      <path d="M 108 215.387674 
L 777.6 215.387674 
" clip-path="url(#p3662444b34)" style="fill: none; stroke-dasharray: 5.12,1.28,0.8,1.28; stroke-dashoffset: 0; stroke: #b0b0b0; stroke-width: 0.8"/>
     </g>
     <g id="line2d_26">
      <g>
       <use xlink:href="#mc6257776d2" x="108" y="215.387674" style="fill: #a9a9a9; stroke: #a9a9a9; stroke-width: 0.8"/>
      </g>
     </g>
     <g id="text_13">
      <!-- 3000 -->
      <g style="fill: #a9a9a9" transform="translate(75.55 219.186893) scale(0.1 -0.1)">
       <use xlink:href="#DejaVuSans-33"/>
       <use xlink:href="#DejaVuSans-30" transform="translate(63.623047 0)"/>
       <use xlink:href="#DejaVuSans-30" transform="translate(127.246094 0)"/>
       <use xlink:href="#DejaVuSans-30" transform="translate(190.869141 0)"/>
      </g>
     </g>
    </g>
    <g id="ytick_5">
     <g id="line2d_27">
      <path d="M 108 184.573294 
L 777.6 184.573294 
" clip-path="url(#p3662444b34)" style="fill: none; stroke-dasharray: 5.12,1.28,0.8,1.28; stroke-dashoffset: 0; stroke: #b0b0b0; stroke-width: 0.8"/>
     </g>
     <g id="line2d_28">
      <g>
       <use xlink:href="#mc6257776d2" x="108" y="184.573294" style="fill: #a9a9a9; stroke: #a9a9a9; stroke-width: 0.8"/>
      </g>
     </g>
     <g id="text_14">
      <!-- 4000 -->
      <g style="fill: #a9a9a9" transform="translate(75.55 188.372513) scale(0.1 -0.1)">
       <use xlink:href="#DejaVuSans-34"/>
       <use xlink:href="#DejaVuSans-30" transform="translate(63.623047 0)"/>
       <use xlink:href="#DejaVuSans-30" transform="translate(127.246094 0)"/>
       <use xlink:href="#DejaVuSans-30" transform="translate(190.869141 0)"/>
      </g>
     </g>
    </g>
    <g id="ytick_6">
     <g id="line2d_29">
      <path d="M 108 153.758914 
L 777.6 153.758914 
" clip-path="url(#p3662444b34)" style="fill: none; stroke-dasharray: 5.12,1.28,0.8,1.28; stroke-dashoffset: 0; stroke: #b0b0b0; stroke-width: 0.8"/>
     </g>
     <g id="line2d_30">
      <g>
       <use xlink:href="#mc6257776d2" x="108" y="153.758914" style="fill: #a9a9a9; stroke: #a9a9a9; stroke-width: 0.8"/>
      </g>
     </g>
     <g id="text_15">
      <!-- 5000 -->
      <g style="fill: #a9a9a9" transform="translate(75.55 157.558133) scale(0.1 -0.1)">
       <use xlink:href="#DejaVuSans-35"/>
       <use xlink:href="#DejaVuSans-30" transform="translate(63.623047 0)"/>
       <use xlink:href="#DejaVuSans-30" transform="translate(127.246094 0)"/>
       <use xlink:href="#DejaVuSans-30" transform="translate(190.869141 0)"/>
      </g>
     </g>
    </g>
    <g id="ytick_7">
     <g id="line2d_31">
      <path d="M 108 122.944534 
L 777.6 122.944534 
" clip-path="url(#p3662444b34)" style="fill: none; stroke-dasharray: 5.12,1.28,0.8,1.28; stroke-dashoffset: 0; stroke: #b0b0b0; stroke-width: 0.8"/>
     </g>
     <g id="line2d_32">
      <g>
       <use xlink:href="#mc6257776d2" x="108" y="122.944534" style="fill: #a9a9a9; stroke: #a9a9a9; stroke-width: 0.8"/>
      </g>
     </g>
     <g id="text_16">
      <!-- 6000 -->
      <g style="fill: #a9a9a9" transform="translate(75.55 126.743753) scale(0.1 -0.1)">
       <defs>
        <path id="DejaVuSans-36" d="M 2113 2584 
Q 1688 2584 1439 2293 
Q 1191 2003 1191 1497 
Q 1191 994 1439 701 
Q 1688 409 2113 409 
Q 2538 409 2786 701 
Q 3034 994 3034 1497 
Q 3034 2003 2786 2293 
Q 2538 2584 2113 2584 
z
M 3366 4563 
L 3366 3988 
Q 3128 4100 2886 4159 
Q 2644 4219 2406 4219 
Q 1781 4219 1451 3797 
Q 1122 3375 1075 2522 
Q 1259 2794 1537 2939 
Q 1816 3084 2150 3084 
Q 2853 3084 3261 2657 
Q 3669 2231 3669 1497 
Q 3669 778 3244 343 
Q 2819 -91 2113 -91 
Q 1303 -91 875 529 
Q 447 1150 447 2328 
Q 447 3434 972 4092 
Q 1497 4750 2381 4750 
Q 2619 4750 2861 4703 
Q 3103 4656 3366 4563 
z
" transform="scale(0.015625)"/>
       </defs>
       <use xlink:href="#DejaVuSans-36"/>
       <use xlink:href="#DejaVuSans-30" transform="translate(63.623047 0)"/>
       <use xlink:href="#DejaVuSans-30" transform="translate(127.246094 0)"/>
       <use xlink:href="#DejaVuSans-30" transform="translate(190.869141 0)"/>
      </g>
     </g>
    </g>
    <g id="ytick_8">
     <g id="line2d_33">
      <path d="M 108 92.130154 
L 777.6 92.130154 
" clip-path="url(#p3662444b34)" style="fill: none; stroke-dasharray: 5.12,1.28,0.8,1.28; stroke-dashoffset: 0; stroke: #b0b0b0; stroke-width: 0.8"/>
     </g>
     <g id="line2d_34">
      <g>
       <use xlink:href="#mc6257776d2" x="108" y="92.130154" style="fill: #a9a9a9; stroke: #a9a9a9; stroke-width: 0.8"/>
      </g>
     </g>
     <g id="text_17">
      <!-- 7000 -->
      <g style="fill: #a9a9a9" transform="translate(75.55 95.929373) scale(0.1 -0.1)">
       <use xlink:href="#DejaVuSans-37"/>
       <use xlink:href="#DejaVuSans-30" transform="translate(63.623047 0)"/>
       <use xlink:href="#DejaVuSans-30" transform="translate(127.246094 0)"/>
       <use xlink:href="#DejaVuSans-30" transform="translate(190.869141 0)"/>
      </g>
     </g>
    </g>
    <g id="ytick_9">
     <g id="line2d_35">
      <path d="M 108 61.315774 
L 777.6 61.315774 
" clip-path="url(#p3662444b34)" style="fill: none; stroke-dasharray: 5.12,1.28,0.8,1.28; stroke-dashoffset: 0; stroke: #b0b0b0; stroke-width: 0.8"/>
     </g>
     <g id="line2d_36">
      <g>
       <use xlink:href="#mc6257776d2" x="108" y="61.315774" style="fill: #a9a9a9; stroke: #a9a9a9; stroke-width: 0.8"/>
      </g>
     </g>
     <g id="text_18">
      <!-- 8000 -->
      <g style="fill: #a9a9a9" transform="translate(75.55 65.114993) scale(0.1 -0.1)">
       <defs>
        <path id="DejaVuSans-38" d="M 2034 2216 
Q 1584 2216 1326 1975 
Q 1069 1734 1069 1313 
Q 1069 891 1326 650 
Q 1584 409 2034 409 
Q 2484 409 2743 651 
Q 3003 894 3003 1313 
Q 3003 1734 2745 1975 
Q 2488 2216 2034 2216 
z
M 1403 2484 
Q 997 2584 770 2862 
Q 544 3141 544 3541 
Q 544 4100 942 4425 
Q 1341 4750 2034 4750 
Q 2731 4750 3128 4425 
Q 3525 4100 3525 3541 
Q 3525 3141 3298 2862 
Q 3072 2584 2669 2484 
Q 3125 2378 3379 2068 
Q 3634 1759 3634 1313 
Q 3634 634 3220 271 
Q 2806 -91 2034 -91 
Q 1263 -91 848 271 
Q 434 634 434 1313 
Q 434 1759 690 2068 
Q 947 2378 1403 2484 
z
M 1172 3481 
Q 1172 3119 1398 2916 
Q 1625 2713 2034 2713 
Q 2441 2713 2670 2916 
Q 2900 3119 2900 3481 
Q 2900 3844 2670 4047 
Q 2441 4250 2034 4250 
Q 1625 4250 1398 4047 
Q 1172 3844 1172 3481 
z
" transform="scale(0.015625)"/>
       </defs>
       <use xlink:href="#DejaVuSans-38"/>
       <use xlink:href="#DejaVuSans-30" transform="translate(63.623047 0)"/>
       <use xlink:href="#DejaVuSans-30" transform="translate(127.246094 0)"/>
       <use xlink:href="#DejaVuSans-30" transform="translate(190.869141 0)"/>
      </g>
     </g>
    </g>
   </g>
   <g id="line2d_37">
    <path d="M 138.436364 307.738371 
L 140.831356 307.522671 
L 141.230522 307.337784 
L 142.827183 307.122084 
L 144.423845 306.783125 
L 145.222176 306.659868 
L 147.218003 306.474982 
L 148.016334 306.136023 
L 148.415499 305.581365 
L 148.814665 305.304035 
L 149.21383 304.379604 
L 149.612996 304.317975 
L 150.012161 303.979017 
L 150.810492 303.547616 
L 152.407154 302.222597 
L 154.003815 301.390609 
L 155.201311 300.805136 
L 155.600477 300.127219 
L 156.398808 299.510932 
L 156.797973 299.326045 
L 160.789627 298.709758 
L 161.188793 298.524872 
L 163.982951 298.278357 
L 165.579613 297.87777 
L 168.772936 297.415554 
L 169.172101 297.199853 
L 169.571267 297.138225 
L 170.369598 296.860895 
L 173.163756 296.367865 
L 173.962086 296.12135 
L 177.554575 295.505062 
L 178.352906 295.320176 
L 179.949568 295.104475 
L 180.747899 294.85796 
L 181.147064 294.272487 
L 182.34456 293.779457 
L 183.542057 293.440499 
L 183.941222 293.224798 
L 184.739553 293.070726 
L 186.336215 292.577696 
L 187.134545 292.516067 
L 187.932876 292.300367 
L 189.529538 291.868966 
L 189.928703 291.838151 
L 190.727034 291.437564 
L 191.1262 291.375935 
L 191.525365 291.160235 
L 195.916185 290.389875 
L 197.512846 289.896845 
L 197.912012 289.619516 
L 199.907839 288.941599 
L 200.70617 288.356126 
L 201.903666 288.109611 
L 207.092817 286.568892 
L 207.491982 286.507263 
L 209.088644 285.860161 
L 209.487809 285.798533 
L 210.28614 285.459574 
L 211.084471 285.42876 
L 212.281967 285.058988 
L 212.681133 285.058988 
L 213.080298 284.874101 
L 213.878629 284.781658 
L 214.277794 284.627586 
L 215.874456 284.565957 
L 216.672787 284.411886 
L 217.471118 283.980484 
L 218.668614 283.549083 
L 219.466945 283.117682 
L 220.664441 282.593837 
L 222.261103 281.761849 
L 222.660268 281.299633 
L 223.458599 280.005429 
L 223.857765 279.882172 
L 224.25693 279.882172 
L 225.853592 278.988555 
L 226.252757 278.896112 
L 226.651923 278.495525 
L 227.450253 278.156566 
L 228.248584 277.786794 
L 228.64775 277.293764 
L 229.046915 276.615847 
L 229.44608 276.338518 
L 229.845246 275.598973 
L 230.244411 275.136757 
L 232.639404 273.780924 
L 234.236066 272.301834 
L 234.635231 271.346588 
L 235.034396 270.730301 
L 235.433562 270.391343 
L 235.832727 270.206456 
L 237.429389 268.819809 
L 238.626885 267.77212 
L 239.425216 266.755246 
L 240.622712 265.861629 
L 242.219374 264.844754 
L 242.618539 264.690682 
L 244.215201 263.704622 
L 244.614367 263.519736 
L 246.610194 261.609244 
L 247.408525 261.270286 
L 248.206855 260.684813 
L 248.606021 260.438298 
L 249.005186 260.376669 
L 250.202683 259.667938 
L 250.601848 259.205723 
L 252.597675 258.065591 
L 252.996841 257.911519 
L 254.194337 257.048716 
L 260.181818 254.830081 
L 260.980149 254.059721 
L 262.177645 253.443434 
L 262.975976 252.919589 
L 263.774307 252.673074 
L 264.173472 252.395745 
L 264.572638 252.272487 
L 265.770134 251.440499 
L 267.765961 250.978283 
L 268.963458 250.238738 
L 270.160954 249.961409 
L 270.560119 249.868966 
L 271.757615 248.944534 
L 273.354277 248.482318 
L 273.753443 248.14336 
L 276.148435 247.280558 
L 276.946766 247.126486 
L 277.745097 246.787528 
L 280.539255 245.709024 
L 281.337586 245.616581 
L 282.535082 245.18518 
L 284.530909 244.168305 
L 286.925902 242.781658 
L 287.724232 242.565957 
L 288.921729 241.94967 
L 289.72006 241.795598 
L 290.51839 241.302568 
L 291.316721 241.086867 
L 292.514218 240.593837 
L 294.110879 240.378136 
L 294.90921 239.946735 
L 295.308376 239.576963 
L 295.707541 238.837417 
L 297.304203 238.375202 
L 298.900864 237.635657 
L 301.295857 236.46471 
L 302.094188 236.064123 
L 303.291684 235.817608 
L 304.48918 235.201321 
L 304.888346 235.139692 
L 306.884173 234.122817 
L 307.682504 233.598973 
L 308.88 233.352458 
L 310.875827 232.828613 
L 311.274993 232.489655 
L 312.073323 232.212326 
L 314.069151 231.380337 
L 314.468316 231.072194 
L 314.867481 230.918122 
L 315.665812 230.455906 
L 317.262474 229.932062 
L 318.060805 229.408217 
L 318.45997 228.976816 
L 318.859136 228.730301 
L 319.258301 228.637858 
L 320.056632 227.959941 
L 320.455797 227.898313 
L 320.854963 227.220396 
L 321.254128 227.03551 
L 321.653294 226.696552 
L 322.052459 226.634923 
L 322.85079 226.111079 
L 323.649121 225.833749 
L 324.048286 225.525605 
L 324.447452 225.371533 
L 326.443279 224.108144 
L 327.640775 223.645928 
L 328.439106 223.276156 
L 328.838271 223.02964 
L 329.237437 222.32091 
L 330.035768 221.704622 
L 330.434933 221.612179 
L 332.829925 220.410418 
L 333.628256 220.07146 
L 334.426587 219.485987 
L 335.624083 218.345855 
L 336.422414 217.852825 
L 336.82158 217.390609 
L 338.418241 216.250477 
L 339.216572 215.418489 
L 340.014903 215.141159 
L 340.813234 214.5865 
L 342.01073 213.939398 
L 342.409896 213.87777 
L 346.002385 211.998092 
L 347.199881 211.62832 
L 348.397377 211.166104 
L 348.796542 210.827146 
L 350.393204 210.180044 
L 350.79237 210.056787 
L 351.5907 209.532942 
L 352.389031 209.193984 
L 353.187362 208.608511 
L 353.985693 206.975348 
L 354.784024 206.050917 
L 355.98152 205.403815 
L 356.779851 205.064857 
L 357.179016 205.003228 
L 357.977347 204.633456 
L 359.574009 204.078797 
L 360.37234 203.616581 
L 361.170671 203.215994 
L 361.569836 203.092737 
L 363.964829 201.613646 
L 364.363994 201.151431 
L 365.56149 200.4427 
L 365.960656 200.288628 
L 366.758987 199.795598 
L 368.355648 198.901981 
L 368.754814 198.809538 
L 369.153979 198.47058 
L 371.948137 197.515334 
L 372.347303 197.238004 
L 373.145633 196.991489 
L 373.943964 196.652531 
L 374.34313 196.313573 
L 375.939791 195.7281 
L 376.738122 195.142627 
L 377.536453 194.803668 
L 378.334784 194.156566 
L 379.133115 193.910051 
L 379.53228 193.540279 
L 379.931446 193.47865 
L 380.729776 192.862362 
L 382.725604 191.660602 
L 383.523934 191.414087 
L 383.9231 191.167572 
L 384.322265 191.105943 
L 385.918927 190.335583 
L 387.116423 189.934996 
L 387.914754 189.811739 
L 388.31392 189.626853 
L 388.713085 189.565224 
L 389.511416 189.195451 
L 389.910581 189.164637 
L 391.507243 188.548349 
L 392.704739 187.685547 
L 393.103905 187.531475 
L 393.902235 187.069259 
L 394.301401 186.946001 
L 396.696393 185.559354 
L 397.095559 185.466911 
L 398.293055 184.727366 
L 399.490551 184.295965 
L 400.288882 184.018635 
L 401.885544 183.463977 
L 402.683875 183.186647 
L 404.280537 182.847689 
L 404.679702 182.662803 
L 405.478033 182.447102 
L 405.877198 182.262216 
L 406.276364 182.200587 
L 406.675529 181.984886 
L 407.47386 181.830814 
L 408.671356 181.399413 
L 409.868852 181.214527 
L 412.263845 180.752311 
L 413.461341 180.474982 
L 413.860507 180.290095 
L 414.658838 180.136023 
L 415.457168 179.920323 
L 416.255499 179.55055 
L 416.654665 179.396478 
L 417.05383 179.396478 
L 421.44465 178.009831 
L 421.843815 177.794131 
L 422.242981 177.794131 
L 423.041311 177.485987 
L 423.440477 177.054585 
L 425.835469 176.037711 
L 427.432131 175.483052 
L 427.831297 175.236537 
L 429.028793 174.866764 
L 429.827124 174.651064 
L 430.226289 174.373734 
L 430.625455 174.281291 
L 431.02462 173.911519 
L 432.222116 173.665004 
L 433.020447 173.295231 
L 433.419613 172.802201 
L 437.810432 171.816141 
L 438.209598 171.816141 
L 438.608763 171.631255 
L 440.205425 171.323111 
L 440.60459 171.138225 
L 442.201252 170.830081 
L 442.999583 170.491123 
L 443.797914 170.337051 
L 445.793741 169.813206 
L 446.991237 169.443434 
L 448.987064 168.796332 
L 449.785395 168.457373 
L 450.583726 168.14923 
L 450.982891 167.8719 
L 451.781222 167.625385 
L 454.57538 166.546882 
L 456.172042 166.361996 
L 459.365365 165.160235 
L 459.764531 164.852091 
L 460.163696 164.759648 
L 460.562861 164.543947 
L 460.962027 164.513133 
L 465.352846 162.879971 
L 467.348674 162.325312 
L 468.147004 161.924725 
L 469.344501 161.647395 
L 470.941162 160.291563 
L 472.537824 159.582832 
L 474.134486 158.904916 
L 474.533651 158.812472 
L 474.932817 158.535143 
L 475.731148 158.288628 
L 476.130313 158.011299 
L 478.12614 157.333382 
L 482.117794 155.268819 
L 482.916125 154.899046 
L 483.315291 154.590902 
L 484.113621 154.313573 
L 486.508614 153.142627 
L 486.907779 153.050183 
L 488.105276 152.495525 
L 489.701937 151.940866 
L 490.500268 151.601908 
L 491.298599 151.47865 
L 491.697765 151.201321 
L 493.294426 150.893177 
L 494.092757 150.554219 
L 496.48775 149.383272 
L 496.886915 149.321643 
L 498.084411 148.612913 
L 499.281908 148.181511 
L 502.076066 146.979751 
L 502.475231 146.856493 
L 502.874396 146.579164 
L 503.672727 146.48672 
L 504.071893 146.209391 
L 504.870224 146.086134 
L 505.668554 145.685547 
L 506.06772 145.50066 
L 506.866051 145.28496 
L 507.664382 145.038445 
L 508.861878 144.576229 
L 510.059374 144.175642 
L 511.25687 143.898313 
L 512.853532 143.220396 
L 513.651863 142.788995 
L 515.248525 141.957007 
L 516.046855 141.77212 
L 516.446021 141.525605 
L 516.845186 141.433162 
L 518.042683 140.724431 
L 519.240179 140.262216 
L 522.034337 139.276156 
L 522.433502 139.152898 
L 523.231833 138.721497 
L 525.22766 138.012766 
L 527.622653 137.026706 
L 529.219314 136.256346 
L 533.210969 134.653999 
L 534.0093 134.253412 
L 534.408465 134.160968 
L 535.206796 133.852825 
L 535.605961 133.852825 
L 536.404292 133.483052 
L 538.000954 132.127219 
L 538.400119 132.003962 
L 538.799285 131.757447 
L 539.996781 131.418489 
L 540.395946 131.110345 
L 540.795112 131.017902 
L 541.992608 130.278357 
L 542.391773 130.001027 
L 543.58927 129.538811 
L 543.988435 129.323111 
L 545.185931 129.045781 
L 547.181759 128.337051 
L 547.980089 128.090536 
L 549.177586 127.443434 
L 549.975917 127.042847 
L 550.774247 126.827146 
L 552.370909 126.087601 
L 552.770075 125.964343 
L 553.568405 125.594571 
L 555.564232 124.916654 
L 556.761729 124.146295 
L 557.160894 124.053852 
L 557.959225 123.653265 
L 558.757556 123.345121 
L 559.156721 122.975348 
L 560.354218 122.513133 
L 560.753383 122.451504 
L 562.350045 121.711959 
L 563.547541 121.342186 
L 563.946706 121.1573 
L 564.345872 121.095671 
L 565.144203 120.756713 
L 566.341699 120.510198 
L 567.14003 120.047982 
L 567.539195 119.89391 
L 567.938361 119.585767 
L 569.135857 119.277623 
L 569.934188 118.969479 
L 570.732519 118.630521 
L 572.32918 117.983419 
L 575.123338 117.243874 
L 575.921669 116.93573 
L 577.518331 116.627586 
L 578.316662 116.473514 
L 579.514158 116.011299 
L 580.711654 115.733969 
L 583.106647 114.316508 
L 584.304143 113.576963 
L 586.699136 112.837417 
L 587.098301 112.529274 
L 590.69079 111.23507 
L 591.489121 110.95774 
L 592.686617 110.433896 
L 596.279106 108.954806 
L 597.077437 108.646662 
L 598.674098 107.99956 
L 599.073264 107.629787 
L 599.472429 107.568158 
L 601.069091 106.921056 
L 602.665753 106.52047 
L 603.064918 106.458841 
L 603.464083 106.273955 
L 603.863249 106.24314 
L 604.66158 105.965811 
L 605.060745 105.934996 
L 606.258241 105.472781 
L 607.854903 105.010565 
L 608.653234 104.394277 
L 610.249896 103.50066 
L 610.649061 103.408217 
L 611.447392 103.100073 
L 614.640715 101.52854 
L 615.039881 101.312839 
L 615.439046 100.943067 
L 617.434873 100.450037 
L 618.63237 99.895378 
L 619.4307 99.679677 
L 619.829866 99.494791 
L 620.229031 99.155833 
L 622.224858 98.447102 
L 627.414009 96.53661 
L 628.21234 96.382539 
L 630.208167 95.735437 
L 631.405663 95.211592 
L 634.199821 94.379604 
L 634.998152 93.917388 
L 637.79231 92.962142 
L 639.388972 92.438298 
L 640.586468 92.160968 
L 641.783964 91.791196 
L 642.18313 91.698753 
L 642.582295 91.421423 
L 643.380626 91.236537 
L 644.977288 90.774321 
L 645.376453 90.743507 
L 646.174784 90.373734 
L 648.968942 89.665004 
L 650.565604 89.07953 
L 650.964769 89.07953 
L 652.162265 88.802201 
L 652.960596 88.648129 
L 653.758927 88.432428 
L 654.956423 87.785326 
L 656.15392 87.415554 
L 658.948077 86.460308 
L 660.544739 85.659134 
L 661.742235 85.381805 
L 662.540566 85.13529 
L 663.338897 84.734703 
L 663.738063 84.395745 
L 664.536393 84.14923 
L 664.935559 83.902715 
L 665.73389 83.810271 
L 668.528048 83.009098 
L 669.725544 82.762583 
L 670.92304 82.454439 
L 671.721371 82.269552 
L 672.918867 81.653265 
L 678.108018 79.65033 
L 678.906349 79.527073 
L 679.70468 79.373001 
L 680.103845 79.373001 
L 681.301341 79.003228 
L 682.498838 78.633456 
L 686.091326 77.616581 
L 686.889657 77.40088 
L 687.288823 77.308437 
L 687.687988 77.061922 
L 688.486319 76.90785 
L 689.28465 76.815407 
L 689.683815 76.599707 
L 690.082981 76.568892 
L 690.881311 76.045048 
L 692.477973 75.70609 
L 693.276304 75.367131 
L 694.074635 75.089802 
L 694.872966 74.874101 
L 695.671297 74.535143 
L 696.070462 74.473514 
L 696.868793 74.196185 
L 698.066289 73.857227 
L 698.86462 73.795598 
L 699.662951 73.518269 
L 700.062116 73.364197 
L 700.860447 73.240939 
L 702.457109 72.532208 
L 702.856274 72.47058 
L 703.654605 72.162436 
L 706.049598 71.761849 
L 706.847928 71.515334 
L 707.247094 71.453705 
L 708.045425 71.114747 
L 708.44459 71.053118 
L 708.843756 70.837417 
L 709.642086 70.159501 
L 713.633741 68.680411 
L 716.028733 68.033309 
L 716.427899 67.725165 
L 718.02456 67.016434 
L 719.621222 66.338518 
L 720.419553 66.092003 
L 721.617049 65.629787 
L 722.41538 65.290829 
L 724.012042 64.366398 
L 724.411207 64.273955 
L 725.608703 63.657667 
L 726.407034 63.349523 
L 728.402861 62.640792 
L 728.802027 62.301834 
L 729.201192 62.209391 
L 729.999523 61.716361 
L 731.197019 61.346588 
L 731.99535 61.038445 
L 732.793681 60.668672 
L 733.192846 60.637858 
L 735.188674 59.867498 
L 735.987004 59.713426 
L 736.785335 59.127953 
L 737.184501 59.127953 
L 738.781162 58.54248 
L 740.377824 58.203522 
L 741.974486 57.525605 
L 742.373651 57.525605 
L 743.571148 57.125018 
L 744.369478 57.001761 
L 745.167809 56.693617 
L 745.96614 56.077329 
L 746.764471 55.8 
L 747.163636 55.8 
L 747.163636 55.8 
" clip-path="url(#p3662444b34)" style="fill: none; stroke: #1f77b4; stroke-width: 1.5; stroke-linecap: square"/>
   </g>
   <g id="line2d_38">
    <path d="M 138.835529 307.8 
L 142.428018 307.707557 
L 145.621341 307.553485 
L 147.218003 307.553485 
L 147.617168 307.430227 
L 149.612996 307.337784 
L 152.007988 307.060455 
L 154.402981 306.968012 
L 155.201311 306.875569 
L 157.995469 306.752311 
L 160.789627 306.659868 
L 162.785455 306.598239 
L 167.974605 306.505796 
L 169.970432 306.444167 
L 173.562921 306.351724 
L 175.159583 306.32091 
L 179.151237 306.228467 
L 180.747899 306.074395 
L 182.34456 306.04358 
L 184.739553 305.951137 
L 186.336215 305.920323 
L 188.332042 305.858694 
L 189.928703 305.704622 
L 193.521192 305.612179 
L 194.319523 305.55055 
L 195.916185 305.458107 
L 198.311177 305.365664 
L 199.907839 305.273221 
L 207.092817 304.811005 
L 209.886975 304.718562 
L 211.084471 304.595304 
L 213.080298 304.502861 
L 217.071952 304.287161 
L 221.063607 304.225532 
L 222.660268 304.040646 
L 224.656095 303.948202 
L 228.64775 303.547616 
L 231.042742 303.239472 
L 232.639404 303.177843 
L 235.832727 302.746442 
L 238.22772 302.684813 
L 239.425216 302.561555 
L 240.622712 302.469112 
L 251.799344 301.575495 
L 252.597675 301.421423 
L 254.992668 301.32898 
L 261.379314 300.928393 
L 264.173472 300.83595 
L 265.770134 300.651064 
L 267.765961 300.558621 
L 270.160954 300.466178 
L 272.156781 300.373734 
L 273.753443 300.34292 
L 275.74927 300.281291 
L 276.547601 300.158034 
L 282.135917 300.065591 
L 282.934247 299.973147 
L 287.724232 299.880704 
L 291.316721 299.695818 
L 294.110879 299.603375 
L 295.707541 299.418489 
L 298.501699 299.326045 
L 299.30003 299.202788 
L 301.295857 299.141159 
L 305.287511 299.07953 
L 306.884173 298.925459 
L 308.480835 298.894644 
L 309.678331 298.802201 
L 311.274993 298.648129 
L 315.266647 298.432428 
L 319.258301 298.339985 
L 322.85079 298.155099 
L 324.048286 298.124285 
L 324.846617 298.001027 
L 326.842444 297.908584 
L 327.640775 297.846955 
L 328.439106 297.785326 
L 329.237437 297.723698 
L 333.229091 297.631255 
L 342.01073 297.045781 
L 342.809061 296.984153 
L 344.006557 296.891709 
L 346.800715 296.799266 
L 348.796542 296.737638 
L 354.384858 296.645194 
L 355.183189 296.521937 
L 360.771505 296.429494 
L 364.763159 296.213793 
L 365.56149 296.182979 
L 366.359821 296.090536 
L 368.355648 295.998092 
L 370.351475 295.936464 
L 372.347303 295.844021 
L 374.34313 295.782392 
L 377.935618 295.689949 
L 380.330611 295.597506 
L 385.918927 295.505062 
L 390.309747 295.258547 
L 391.906408 295.196919 
L 393.103905 295.104475 
L 398.692221 295.012032 
L 401.087213 294.919589 
L 408.272191 294.827146 
L 409.868852 294.796332 
L 414.658838 294.734703 
L 415.457168 294.673074 
L 421.045484 294.580631 
L 422.642146 294.549817 
L 433.020447 294.457373 
L 435.41544 294.36493 
L 452.180387 294.272487 
L 454.176215 294.210858 
L 464.554516 294.14923 
L 465.352846 294.087601 
L 467.348674 294.025972 
L 468.54617 293.902715 
L 470.941162 293.810271 
L 473.73532 293.687014 
L 477.327809 293.594571 
L 479.323636 293.532942 
L 482.117794 293.440499 
L 485.311118 293.286427 
L 487.306945 293.193984 
L 488.903607 293.163169 
L 495.689419 293.070726 
L 498.084411 292.978283 
L 502.475231 292.88584 
L 505.269389 292.762583 
L 508.063547 292.700954 
L 508.861878 292.639325 
L 518.441848 292.546882 
L 522.433502 292.331181 
L 525.22766 292.238738 
L 529.61848 291.992223 
L 532.412638 291.89978 
L 534.0093 291.868966 
L 536.803458 291.776522 
L 538.799285 291.560822 
L 542.790939 291.468379 
L 543.58927 291.375935 
L 547.580924 291.283492 
L 549.576751 291.221864 
L 553.967571 291.191049 
L 554.765902 291.098606 
L 559.156721 291.006163 
L 559.955052 290.944534 
L 568.736692 290.852091 
L 571.131684 290.759648 
L 577.119165 290.667205 
L 578.715827 290.63639 
L 582.308316 290.574762 
L 583.106647 290.482318 
L 588.295797 290.389875 
L 590.291624 290.328247 
L 597.476602 290.235803 
L 598.674098 290.14336 
L 599.871595 290.050917 
L 601.069091 289.958474 
L 607.056572 289.866031 
L 609.451565 289.773588 
L 620.229031 289.681145 
L 623.82152 289.496258 
L 628.611505 289.434629 
L 629.409836 289.373001 
L 635.397317 289.311372 
L 636.195648 289.249743 
L 640.586468 289.1573 
L 642.18313 289.126486 
L 648.968942 289.034043 
L 649.767273 288.972414 
L 656.95225 288.879971 
L 658.548912 288.849156 
L 662.540566 288.756713 
L 665.334724 288.633456 
L 669.725544 288.541012 
L 672.519702 288.417755 
L 676.112191 288.325312 
L 676.910522 288.263683 
L 684.89383 288.17124 
L 686.889657 288.109611 
L 689.28465 288.017168 
L 691.679642 287.924725 
L 703.654605 287.832282 
L 706.448763 287.709024 
L 713.234575 287.616581 
L 715.629568 287.524138 
L 720.818718 287.431695 
L 723.213711 287.339252 
L 726.407034 287.246809 
L 728.802027 287.154365 
L 744.768644 287.061922 
L 747.163636 286.969479 
L 747.163636 286.969479 
" clip-path="url(#p3662444b34)" style="fill: none; stroke: #ff7f0e; stroke-width: 1.5; stroke-linecap: square"/>
   </g>
   <g id="patch_3">
    <path d="M 108 320.4 
L 108 43.2 
" style="fill: none; stroke: #a9a9a9; stroke-width: 0.8; stroke-linejoin: miter; stroke-linecap: square"/>
   </g>
   <g id="patch_4">
    <path d="M 777.6 320.4 
L 777.6 43.2 
" style="fill: none"/>
   </g>
   <g id="patch_5">
    <path d="M 108 320.4 
L 777.6 320.4 
" style="fill: none; stroke: #a9a9a9; stroke-width: 0.8; stroke-linejoin: miter; stroke-linecap: square"/>
   </g>
   <g id="patch_6">
    <path d="M 108 43.2 
L 777.6 43.2 
" style="fill: none"/>
   </g>
   <g id="text_19">
    <!-- get_subscribe history -->
    <g style="fill: #a9a9a9" transform="translate(378.6075 37.2) scale(0.12 -0.12)">
     <defs>
      <path id="DejaVuSans-67" d="M 2906 1791 
Q 2906 2416 2648 2759 
Q 2391 3103 1925 3103 
Q 1463 3103 1205 2759 
Q 947 2416 947 1791 
Q 947 1169 1205 825 
Q 1463 481 1925 481 
Q 2391 481 2648 825 
Q 2906 1169 2906 1791 
z
M 3481 434 
Q 3481 -459 3084 -895 
Q 2688 -1331 1869 -1331 
Q 1566 -1331 1297 -1286 
Q 1028 -1241 775 -1147 
L 775 -588 
Q 1028 -725 1275 -790 
Q 1522 -856 1778 -856 
Q 2344 -856 2625 -561 
Q 2906 -266 2906 331 
L 2906 616 
Q 2728 306 2450 153 
Q 2172 0 1784 0 
Q 1141 0 747 490 
Q 353 981 353 1791 
Q 353 2603 747 3093 
Q 1141 3584 1784 3584 
Q 2172 3584 2450 3431 
Q 2728 3278 2906 2969 
L 2906 3500 
L 3481 3500 
L 3481 434 
z
" transform="scale(0.015625)"/>
      <path id="DejaVuSans-65" d="M 3597 1894 
L 3597 1613 
L 953 1613 
Q 991 1019 1311 708 
Q 1631 397 2203 397 
Q 2534 397 2845 478 
Q 3156 559 3463 722 
L 3463 178 
Q 3153 47 2828 -22 
Q 2503 -91 2169 -91 
Q 1331 -91 842 396 
Q 353 884 353 1716 
Q 353 2575 817 3079 
Q 1281 3584 2069 3584 
Q 2775 3584 3186 3129 
Q 3597 2675 3597 1894 
z
M 3022 2063 
Q 3016 2534 2758 2815 
Q 2500 3097 2075 3097 
Q 1594 3097 1305 2825 
Q 1016 2553 972 2059 
L 3022 2063 
z
" transform="scale(0.015625)"/>
      <path id="DejaVuSans-74" d="M 1172 4494 
L 1172 3500 
L 2356 3500 
L 2356 3053 
L 1172 3053 
L 1172 1153 
Q 1172 725 1289 603 
Q 1406 481 1766 481 
L 2356 481 
L 2356 0 
L 1766 0 
Q 1100 0 847 248 
Q 594 497 594 1153 
L 594 3053 
L 172 3053 
L 172 3500 
L 594 3500 
L 594 4494 
L 1172 4494 
z
" transform="scale(0.015625)"/>
      <path id="DejaVuSans-5f" d="M 3263 -1063 
L 3263 -1509 
L -63 -1509 
L -63 -1063 
L 3263 -1063 
z
" transform="scale(0.015625)"/>
      <path id="DejaVuSans-73" d="M 2834 3397 
L 2834 2853 
Q 2591 2978 2328 3040 
Q 2066 3103 1784 3103 
Q 1356 3103 1142 2972 
Q 928 2841 928 2578 
Q 928 2378 1081 2264 
Q 1234 2150 1697 2047 
L 1894 2003 
Q 2506 1872 2764 1633 
Q 3022 1394 3022 966 
Q 3022 478 2636 193 
Q 2250 -91 1575 -91 
Q 1294 -91 989 -36 
Q 684 19 347 128 
L 347 722 
Q 666 556 975 473 
Q 1284 391 1588 391 
Q 1994 391 2212 530 
Q 2431 669 2431 922 
Q 2431 1156 2273 1281 
Q 2116 1406 1581 1522 
L 1381 1569 
Q 847 1681 609 1914 
Q 372 2147 372 2553 
Q 372 3047 722 3315 
Q 1072 3584 1716 3584 
Q 2034 3584 2315 3537 
Q 2597 3491 2834 3397 
z
" transform="scale(0.015625)"/>
      <path id="DejaVuSans-75" d="M 544 1381 
L 544 3500 
L 1119 3500 
L 1119 1403 
Q 1119 906 1312 657 
Q 1506 409 1894 409 
Q 2359 409 2629 706 
Q 2900 1003 2900 1516 
L 2900 3500 
L 3475 3500 
L 3475 0 
L 2900 0 
L 2900 538 
Q 2691 219 2414 64 
Q 2138 -91 1772 -91 
Q 1169 -91 856 284 
Q 544 659 544 1381 
z
M 1991 3584 
L 1991 3584 
z
" transform="scale(0.015625)"/>
      <path id="DejaVuSans-62" d="M 3116 1747 
Q 3116 2381 2855 2742 
Q 2594 3103 2138 3103 
Q 1681 3103 1420 2742 
Q 1159 2381 1159 1747 
Q 1159 1113 1420 752 
Q 1681 391 2138 391 
Q 2594 391 2855 752 
Q 3116 1113 3116 1747 
z
M 1159 2969 
Q 1341 3281 1617 3432 
Q 1894 3584 2278 3584 
Q 2916 3584 3314 3078 
Q 3713 2572 3713 1747 
Q 3713 922 3314 415 
Q 2916 -91 2278 -91 
Q 1894 -91 1617 61 
Q 1341 213 1159 525 
L 1159 0 
L 581 0 
L 581 4863 
L 1159 4863 
L 1159 2969 
z
" transform="scale(0.015625)"/>
      <path id="DejaVuSans-63" d="M 3122 3366 
L 3122 2828 
Q 2878 2963 2633 3030 
Q 2388 3097 2138 3097 
Q 1578 3097 1268 2742 
Q 959 2388 959 1747 
Q 959 1106 1268 751 
Q 1578 397 2138 397 
Q 2388 397 2633 464 
Q 2878 531 3122 666 
L 3122 134 
Q 2881 22 2623 -34 
Q 2366 -91 2075 -91 
Q 1284 -91 818 406 
Q 353 903 353 1747 
Q 353 2603 823 3093 
Q 1294 3584 2113 3584 
Q 2378 3584 2631 3529 
Q 2884 3475 3122 3366 
z
" transform="scale(0.015625)"/>
      <path id="DejaVuSans-72" d="M 2631 2963 
Q 2534 3019 2420 3045 
Q 2306 3072 2169 3072 
Q 1681 3072 1420 2755 
Q 1159 2438 1159 1844 
L 1159 0 
L 581 0 
L 581 3500 
L 1159 3500 
L 1159 2956 
Q 1341 3275 1631 3429 
Q 1922 3584 2338 3584 
Q 2397 3584 2469 3576 
Q 2541 3569 2628 3553 
L 2631 2963 
z
" transform="scale(0.015625)"/>
      <path id="DejaVuSans-69" d="M 603 3500 
L 1178 3500 
L 1178 0 
L 603 0 
L 603 3500 
z
M 603 4863 
L 1178 4863 
L 1178 4134 
L 603 4134 
L 603 4863 
z
" transform="scale(0.015625)"/>
      <path id="DejaVuSans-20" transform="scale(0.015625)"/>
      <path id="DejaVuSans-68" d="M 3513 2113 
L 3513 0 
L 2938 0 
L 2938 2094 
Q 2938 2591 2744 2837 
Q 2550 3084 2163 3084 
Q 1697 3084 1428 2787 
Q 1159 2491 1159 1978 
L 1159 0 
L 581 0 
L 581 4863 
L 1159 4863 
L 1159 2956 
Q 1366 3272 1645 3428 
Q 1925 3584 2291 3584 
Q 2894 3584 3203 3211 
Q 3513 2838 3513 2113 
z
" transform="scale(0.015625)"/>
      <path id="DejaVuSans-6f" d="M 1959 3097 
Q 1497 3097 1228 2736 
Q 959 2375 959 1747 
Q 959 1119 1226 758 
Q 1494 397 1959 397 
Q 2419 397 2687 759 
Q 2956 1122 2956 1747 
Q 2956 2369 2687 2733 
Q 2419 3097 1959 3097 
z
M 1959 3584 
Q 2709 3584 3137 3096 
Q 3566 2609 3566 1747 
Q 3566 888 3137 398 
Q 2709 -91 1959 -91 
Q 1206 -91 779 398 
Q 353 888 353 1747 
Q 353 2609 779 3096 
Q 1206 3584 1959 3584 
z
" transform="scale(0.015625)"/>
      <path id="DejaVuSans-79" d="M 2059 -325 
Q 1816 -950 1584 -1140 
Q 1353 -1331 966 -1331 
L 506 -1331 
L 506 -850 
L 844 -850 
Q 1081 -850 1212 -737 
Q 1344 -625 1503 -206 
L 1606 56 
L 191 3500 
L 800 3500 
L 1894 763 
L 2988 3500 
L 3597 3500 
L 2059 -325 
z
" transform="scale(0.015625)"/>
     </defs>
     <use xlink:href="#DejaVuSans-67"/>
     <use xlink:href="#DejaVuSans-65" transform="translate(63.476562 0)"/>
     <use xlink:href="#DejaVuSans-74" transform="translate(125 0)"/>
     <use xlink:href="#DejaVuSans-5f" transform="translate(164.208984 0)"/>
     <use xlink:href="#DejaVuSans-73" transform="translate(214.208984 0)"/>
     <use xlink:href="#DejaVuSans-75" transform="translate(266.308594 0)"/>
     <use xlink:href="#DejaVuSans-62" transform="translate(329.6875 0)"/>
     <use xlink:href="#DejaVuSans-73" transform="translate(393.164062 0)"/>
     <use xlink:href="#DejaVuSans-63" transform="translate(445.263672 0)"/>
     <use xlink:href="#DejaVuSans-72" transform="translate(500.244141 0)"/>
     <use xlink:href="#DejaVuSans-69" transform="translate(541.357422 0)"/>
     <use xlink:href="#DejaVuSans-62" transform="translate(569.140625 0)"/>
     <use xlink:href="#DejaVuSans-65" transform="translate(632.617188 0)"/>
     <use xlink:href="#DejaVuSans-20" transform="translate(694.140625 0)"/>
     <use xlink:href="#DejaVuSans-68" transform="translate(725.927734 0)"/>
     <use xlink:href="#DejaVuSans-69" transform="translate(789.306641 0)"/>
     <use xlink:href="#DejaVuSans-73" transform="translate(817.089844 0)"/>
     <use xlink:href="#DejaVuSans-74" transform="translate(869.189453 0)"/>
     <use xlink:href="#DejaVuSans-6f" transform="translate(908.398438 0)"/>
     <use xlink:href="#DejaVuSans-72" transform="translate(969.580078 0)"/>
     <use xlink:href="#DejaVuSans-79" transform="translate(1010.693359 0)"/>
    </g>
   </g>
   <g id="legend_1">
    <g id="line2d_39">
     <path d="M 815.08 328.498438 
L 825.08 328.498438 
L 835.08 328.498438 
" style="fill: none; stroke: #1f77b4; stroke-width: 1.5; stroke-linecap: square"/>
    </g>
    <g id="text_20">
     <!-- star -->
     <g style="fill: #a9a9a9" transform="translate(843.08 331.998438) scale(0.1 -0.1)">
      <defs>
       <path id="DejaVuSans-61" d="M 2194 1759 
Q 1497 1759 1228 1600 
Q 959 1441 959 1056 
Q 959 750 1161 570 
Q 1363 391 1709 391 
Q 2188 391 2477 730 
Q 2766 1069 2766 1631 
L 2766 1759 
L 2194 1759 
z
M 3341 1997 
L 3341 0 
L 2766 0 
L 2766 531 
Q 2569 213 2275 61 
Q 1981 -91 1556 -91 
Q 1019 -91 701 211 
Q 384 513 384 1019 
Q 384 1609 779 1909 
Q 1175 2209 1959 2209 
L 2766 2209 
L 2766 2266 
Q 2766 2663 2505 2880 
Q 2244 3097 1772 3097 
Q 1472 3097 1187 3025 
Q 903 2953 641 2809 
L 641 3341 
Q 956 3463 1253 3523 
Q 1550 3584 1831 3584 
Q 2591 3584 2966 3190 
Q 3341 2797 3341 1997 
z
" transform="scale(0.015625)"/>
      </defs>
      <use xlink:href="#DejaVuSans-73"/>
      <use xlink:href="#DejaVuSans-74" transform="translate(52.099609 0)"/>
      <use xlink:href="#DejaVuSans-61" transform="translate(91.308594 0)"/>
      <use xlink:href="#DejaVuSans-72" transform="translate(152.587891 0)"/>
     </g>
    </g>
    <g id="line2d_40">
     <path d="M 815.08 343.176562 
L 825.08 343.176562 
L 835.08 343.176562 
" style="fill: none; stroke: #ff7f0e; stroke-width: 1.5; stroke-linecap: square"/>
    </g>
    <g id="text_21">
     <!-- fork -->
     <g style="fill: #a9a9a9" transform="translate(843.08 346.676562) scale(0.1 -0.1)">
      <defs>
       <path id="DejaVuSans-66" d="M 2375 4863 
L 2375 4384 
L 1825 4384 
Q 1516 4384 1395 4259 
Q 1275 4134 1275 3809 
L 1275 3500 
L 2222 3500 
L 2222 3053 
L 1275 3053 
L 1275 0 
L 697 0 
L 697 3053 
L 147 3053 
L 147 3500 
L 697 3500 
L 697 3744 
Q 697 4328 969 4595 
Q 1241 4863 1831 4863 
L 2375 4863 
z
" transform="scale(0.015625)"/>
       <path id="DejaVuSans-6b" d="M 581 4863 
L 1159 4863 
L 1159 1991 
L 2875 3500 
L 3609 3500 
L 1753 1863 
L 3688 0 
L 2938 0 
L 1159 1709 
L 1159 0 
L 581 0 
L 581 4863 
z
" transform="scale(0.015625)"/>
      </defs>
      <use xlink:href="#DejaVuSans-66"/>
      <use xlink:href="#DejaVuSans-6f" transform="translate(35.205078 0)"/>
      <use xlink:href="#DejaVuSans-72" transform="translate(96.386719 0)"/>
      <use xlink:href="#DejaVuSans-6b" transform="translate(137.5 0)"/>
     </g>
    </g>
   </g>
  </g>
 </g>
 <defs>
  <clipPath id="p3662444b34">
   <rect x="108" y="43.2" width="669.6" height="277.2"/>
  </clipPath>
 </defs>
</svg>
