<?xml version="1.0" encoding="utf-8" standalone="no"?>
<!DOCTYPE svg PUBLIC "-//W3C//DTD SVG 1.1//EN"
  "http://www.w3.org/Graphics/SVG/1.1/DTD/svg11.dtd">
<svg xmlns:xlink="http://www.w3.org/1999/xlink" width="864pt" height="360pt" viewBox="0 0 864 360" xmlns="http://www.w3.org/2000/svg" version="1.1">
 <metadata>
  <rdf:RDF xmlns:dc="http://purl.org/dc/elements/1.1/" xmlns:cc="http://creativecommons.org/ns#" xmlns:rdf="http://www.w3.org/1999/02/22-rdf-syntax-ns#">
   <cc:Work>
    <dc:type rdf:resource="http://purl.org/dc/dcmitype/StillImage"/>
    <dc:date>2025-09-05T20:07:04.029989</dc:date>
    <dc:format>image/svg+xml</dc:format>
    <dc:creator>
     <cc:Agent>
      <dc:title>Matplotlib v3.10.6, https://matplotlib.org/</dc:title>
     </cc:Agent>
    </dc:creator>
   </cc:Work>
  </rdf:RDF>
 </metadata>
 <defs>
  <style type="text/css">*{stroke-linejoin: round; stroke-linecap: butt}</style>
 </defs>
 <g id="figure_1">
  <g id="patch_1">
   <path d="M 0 360 
L 864 360 
L 864 0 
L 0 0 
L 0 360 
z
" style="fill: none; opacity: 0"/>
  </g>
  <g id="axes_1">
   <g id="patch_2">
    <path d="M 108 320.4 
L 777.6 320.4 
L 777.6 43.2 
L 108 43.2 
L 108 320.4 
z
" style="fill: none; opacity: 0"/>
   </g>
   <g id="matplotlib.axis_1">
    <g id="xtick_1">
     <g id="line2d_1">
      <path d="M 129.127369 320.4 
L 129.127369 43.2 
" clip-path="url(#pffa0edf6b6)" style="fill: none; stroke-dasharray: 5.12,1.28,0.8,1.28; stroke-dashoffset: 0; stroke: #b0b0b0; stroke-width: 0.8"/>
     </g>
     <g id="line2d_2">
      <defs>
       <path id="m98c42f75c8" d="M 0 0 
L 0 3.5 
" style="stroke: #a9a9a9; stroke-width: 0.8"/>
      </defs>
      <g>
       <use xlink:href="#m98c42f75c8" x="129.127369" y="320.4" style="fill: #a9a9a9; stroke: #a9a9a9; stroke-width: 0.8"/>
      </g>
     </g>
     <g id="text_1">
      <!-- 2021-07 -->
      <g style="fill: #a9a9a9" transform="translate(108.235963 334.998438) scale(0.1 -0.1)">
       <defs>
        <path id="DejaVuSans-32" d="M 1228 531 
L 3431 531 
L 3431 0 
L 469 0 
L 469 531 
Q 828 903 1448 1529 
Q 2069 2156 2228 2338 
Q 2531 2678 2651 2914 
Q 2772 3150 2772 3378 
Q 2772 3750 2511 3984 
Q 2250 4219 1831 4219 
Q 1534 4219 1204 4116 
Q 875 4013 500 3803 
L 500 4441 
Q 881 4594 1212 4672 
Q 1544 4750 1819 4750 
Q 2544 4750 2975 4387 
Q 3406 4025 3406 3419 
Q 3406 3131 3298 2873 
Q 3191 2616 2906 2266 
Q 2828 2175 2409 1742 
Q 1991 1309 1228 531 
z
" transform="scale(0.015625)"/>
        <path id="DejaVuSans-30" d="M 2034 4250 
Q 1547 4250 1301 3770 
Q 1056 3291 1056 2328 
Q 1056 1369 1301 889 
Q 1547 409 2034 409 
Q 2525 409 2770 889 
Q 3016 1369 3016 2328 
Q 3016 3291 2770 3770 
Q 2525 4250 2034 4250 
z
M 2034 4750 
Q 2819 4750 3233 4129 
Q 3647 3509 3647 2328 
Q 3647 1150 3233 529 
Q 2819 -91 2034 -91 
Q 1250 -91 836 529 
Q 422 1150 422 2328 
Q 422 3509 836 4129 
Q 1250 4750 2034 4750 
z
" transform="scale(0.015625)"/>
        <path id="DejaVuSans-31" d="M 794 531 
L 1825 531 
L 1825 4091 
L 703 3866 
L 703 4441 
L 1819 4666 
L 2450 4666 
L 2450 531 
L 3481 531 
L 3481 0 
L 794 0 
L 794 531 
z
" transform="scale(0.015625)"/>
        <path id="DejaVuSans-2d" d="M 313 2009 
L 1997 2009 
L 1997 1497 
L 313 1497 
L 313 2009 
z
" transform="scale(0.015625)"/>
        <path id="DejaVuSans-37" d="M 525 4666 
L 3525 4666 
L 3525 4397 
L 1831 0 
L 1172 0 
L 2766 4134 
L 525 4134 
L 525 4666 
z
" transform="scale(0.015625)"/>
       </defs>
       <use xlink:href="#DejaVuSans-32"/>
       <use xlink:href="#DejaVuSans-30" transform="translate(63.623047 0)"/>
       <use xlink:href="#DejaVuSans-32" transform="translate(127.246094 0)"/>
       <use xlink:href="#DejaVuSans-31" transform="translate(190.869141 0)"/>
       <use xlink:href="#DejaVuSans-2d" transform="translate(254.492188 0)"/>
       <use xlink:href="#DejaVuSans-30" transform="translate(290.576172 0)"/>
       <use xlink:href="#DejaVuSans-37" transform="translate(354.199219 0)"/>
      </g>
     </g>
    </g>
    <g id="xtick_2">
     <g id="line2d_3">
      <path d="M 203.599323 320.4 
L 203.599323 43.2 
" clip-path="url(#pffa0edf6b6)" style="fill: none; stroke-dasharray: 5.12,1.28,0.8,1.28; stroke-dashoffset: 0; stroke: #b0b0b0; stroke-width: 0.8"/>
     </g>
     <g id="line2d_4">
      <g>
       <use xlink:href="#m98c42f75c8" x="203.599323" y="320.4" style="fill: #a9a9a9; stroke: #a9a9a9; stroke-width: 0.8"/>
      </g>
     </g>
     <g id="text_2">
      <!-- 2022-01 -->
      <g style="fill: #a9a9a9" transform="translate(182.707917 334.998438) scale(0.1 -0.1)">
       <use xlink:href="#DejaVuSans-32"/>
       <use xlink:href="#DejaVuSans-30" transform="translate(63.623047 0)"/>
       <use xlink:href="#DejaVuSans-32" transform="translate(127.246094 0)"/>
       <use xlink:href="#DejaVuSans-32" transform="translate(190.869141 0)"/>
       <use xlink:href="#DejaVuSans-2d" transform="translate(254.492188 0)"/>
       <use xlink:href="#DejaVuSans-30" transform="translate(290.576172 0)"/>
       <use xlink:href="#DejaVuSans-31" transform="translate(354.199219 0)"/>
      </g>
     </g>
    </g>
    <g id="xtick_3">
     <g id="line2d_5">
      <path d="M 276.85706 320.4 
L 276.85706 43.2 
" clip-path="url(#pffa0edf6b6)" style="fill: none; stroke-dasharray: 5.12,1.28,0.8,1.28; stroke-dashoffset: 0; stroke: #b0b0b0; stroke-width: 0.8"/>
     </g>
     <g id="line2d_6">
      <g>
       <use xlink:href="#m98c42f75c8" x="276.85706" y="320.4" style="fill: #a9a9a9; stroke: #a9a9a9; stroke-width: 0.8"/>
      </g>
     </g>
     <g id="text_3">
      <!-- 2022-07 -->
      <g style="fill: #a9a9a9" transform="translate(255.965654 334.998438) scale(0.1 -0.1)">
       <use xlink:href="#DejaVuSans-32"/>
       <use xlink:href="#DejaVuSans-30" transform="translate(63.623047 0)"/>
       <use xlink:href="#DejaVuSans-32" transform="translate(127.246094 0)"/>
       <use xlink:href="#DejaVuSans-32" transform="translate(190.869141 0)"/>
       <use xlink:href="#DejaVuSans-2d" transform="translate(254.492188 0)"/>
       <use xlink:href="#DejaVuSans-30" transform="translate(290.576172 0)"/>
       <use xlink:href="#DejaVuSans-37" transform="translate(354.199219 0)"/>
      </g>
     </g>
    </g>
    <g id="xtick_4">
     <g id="line2d_7">
      <path d="M 351.329014 320.4 
L 351.329014 43.2 
" clip-path="url(#pffa0edf6b6)" style="fill: none; stroke-dasharray: 5.12,1.28,0.8,1.28; stroke-dashoffset: 0; stroke: #b0b0b0; stroke-width: 0.8"/>
     </g>
     <g id="line2d_8">
      <g>
       <use xlink:href="#m98c42f75c8" x="351.329014" y="320.4" style="fill: #a9a9a9; stroke: #a9a9a9; stroke-width: 0.8"/>
      </g>
     </g>
     <g id="text_4">
      <!-- 2023-01 -->
      <g style="fill: #a9a9a9" transform="translate(330.437607 334.998438) scale(0.1 -0.1)">
       <defs>
        <path id="DejaVuSans-33" d="M 2597 2516 
Q 3050 2419 3304 2112 
Q 3559 1806 3559 1356 
Q 3559 666 3084 287 
Q 2609 -91 1734 -91 
Q 1441 -91 1130 -33 
Q 819 25 488 141 
L 488 750 
Q 750 597 1062 519 
Q 1375 441 1716 441 
Q 2309 441 2620 675 
Q 2931 909 2931 1356 
Q 2931 1769 2642 2001 
Q 2353 2234 1838 2234 
L 1294 2234 
L 1294 2753 
L 1863 2753 
Q 2328 2753 2575 2939 
Q 2822 3125 2822 3475 
Q 2822 3834 2567 4026 
Q 2313 4219 1838 4219 
Q 1578 4219 1281 4162 
Q 984 4106 628 3988 
L 628 4550 
Q 988 4650 1302 4700 
Q 1616 4750 1894 4750 
Q 2613 4750 3031 4423 
Q 3450 4097 3450 3541 
Q 3450 3153 3228 2886 
Q 3006 2619 2597 2516 
z
" transform="scale(0.015625)"/>
       </defs>
       <use xlink:href="#DejaVuSans-32"/>
       <use xlink:href="#DejaVuSans-30" transform="translate(63.623047 0)"/>
       <use xlink:href="#DejaVuSans-32" transform="translate(127.246094 0)"/>
       <use xlink:href="#DejaVuSans-33" transform="translate(190.869141 0)"/>
       <use xlink:href="#DejaVuSans-2d" transform="translate(254.492188 0)"/>
       <use xlink:href="#DejaVuSans-30" transform="translate(290.576172 0)"/>
       <use xlink:href="#DejaVuSans-31" transform="translate(354.199219 0)"/>
      </g>
     </g>
    </g>
    <g id="xtick_5">
     <g id="line2d_9">
      <path d="M 424.58675 320.4 
L 424.58675 43.2 
" clip-path="url(#pffa0edf6b6)" style="fill: none; stroke-dasharray: 5.12,1.28,0.8,1.28; stroke-dashoffset: 0; stroke: #b0b0b0; stroke-width: 0.8"/>
     </g>
     <g id="line2d_10">
      <g>
       <use xlink:href="#m98c42f75c8" x="424.58675" y="320.4" style="fill: #a9a9a9; stroke: #a9a9a9; stroke-width: 0.8"/>
      </g>
     </g>
     <g id="text_5">
      <!-- 2023-07 -->
      <g style="fill: #a9a9a9" transform="translate(403.695344 334.998438) scale(0.1 -0.1)">
       <use xlink:href="#DejaVuSans-32"/>
       <use xlink:href="#DejaVuSans-30" transform="translate(63.623047 0)"/>
       <use xlink:href="#DejaVuSans-32" transform="translate(127.246094 0)"/>
       <use xlink:href="#DejaVuSans-33" transform="translate(190.869141 0)"/>
       <use xlink:href="#DejaVuSans-2d" transform="translate(254.492188 0)"/>
       <use xlink:href="#DejaVuSans-30" transform="translate(290.576172 0)"/>
       <use xlink:href="#DejaVuSans-37" transform="translate(354.199219 0)"/>
      </g>
     </g>
    </g>
    <g id="xtick_6">
     <g id="line2d_11">
      <path d="M 499.058704 320.4 
L 499.058704 43.2 
" clip-path="url(#pffa0edf6b6)" style="fill: none; stroke-dasharray: 5.12,1.28,0.8,1.28; stroke-dashoffset: 0; stroke: #b0b0b0; stroke-width: 0.8"/>
     </g>
     <g id="line2d_12">
      <g>
       <use xlink:href="#m98c42f75c8" x="499.058704" y="320.4" style="fill: #a9a9a9; stroke: #a9a9a9; stroke-width: 0.8"/>
      </g>
     </g>
     <g id="text_6">
      <!-- 2024-01 -->
      <g style="fill: #a9a9a9" transform="translate(478.167298 334.998438) scale(0.1 -0.1)">
       <defs>
        <path id="DejaVuSans-34" d="M 2419 4116 
L 825 1625 
L 2419 1625 
L 2419 4116 
z
M 2253 4666 
L 3047 4666 
L 3047 1625 
L 3713 1625 
L 3713 1100 
L 3047 1100 
L 3047 0 
L 2419 0 
L 2419 1100 
L 313 1100 
L 313 1709 
L 2253 4666 
z
" transform="scale(0.015625)"/>
       </defs>
       <use xlink:href="#DejaVuSans-32"/>
       <use xlink:href="#DejaVuSans-30" transform="translate(63.623047 0)"/>
       <use xlink:href="#DejaVuSans-32" transform="translate(127.246094 0)"/>
       <use xlink:href="#DejaVuSans-34" transform="translate(190.869141 0)"/>
       <use xlink:href="#DejaVuSans-2d" transform="translate(254.492188 0)"/>
       <use xlink:href="#DejaVuSans-30" transform="translate(290.576172 0)"/>
       <use xlink:href="#DejaVuSans-31" transform="translate(354.199219 0)"/>
      </g>
     </g>
    </g>
    <g id="xtick_7">
     <g id="line2d_13">
      <path d="M 572.72118 320.4 
L 572.72118 43.2 
" clip-path="url(#pffa0edf6b6)" style="fill: none; stroke-dasharray: 5.12,1.28,0.8,1.28; stroke-dashoffset: 0; stroke: #b0b0b0; stroke-width: 0.8"/>
     </g>
     <g id="line2d_14">
      <g>
       <use xlink:href="#m98c42f75c8" x="572.72118" y="320.4" style="fill: #a9a9a9; stroke: #a9a9a9; stroke-width: 0.8"/>
      </g>
     </g>
     <g id="text_7">
      <!-- 2024-07 -->
      <g style="fill: #a9a9a9" transform="translate(551.829774 334.998438) scale(0.1 -0.1)">
       <use xlink:href="#DejaVuSans-32"/>
       <use xlink:href="#DejaVuSans-30" transform="translate(63.623047 0)"/>
       <use xlink:href="#DejaVuSans-32" transform="translate(127.246094 0)"/>
       <use xlink:href="#DejaVuSans-34" transform="translate(190.869141 0)"/>
       <use xlink:href="#DejaVuSans-2d" transform="translate(254.492188 0)"/>
       <use xlink:href="#DejaVuSans-30" transform="translate(290.576172 0)"/>
       <use xlink:href="#DejaVuSans-37" transform="translate(354.199219 0)"/>
      </g>
     </g>
    </g>
    <g id="xtick_8">
     <g id="line2d_15">
      <path d="M 647.193133 320.4 
L 647.193133 43.2 
" clip-path="url(#pffa0edf6b6)" style="fill: none; stroke-dasharray: 5.12,1.28,0.8,1.28; stroke-dashoffset: 0; stroke: #b0b0b0; stroke-width: 0.8"/>
     </g>
     <g id="line2d_16">
      <g>
       <use xlink:href="#m98c42f75c8" x="647.193133" y="320.4" style="fill: #a9a9a9; stroke: #a9a9a9; stroke-width: 0.8"/>
      </g>
     </g>
     <g id="text_8">
      <!-- 2025-01 -->
      <g style="fill: #a9a9a9" transform="translate(626.301727 334.998438) scale(0.1 -0.1)">
       <defs>
        <path id="DejaVuSans-35" d="M 691 4666 
L 3169 4666 
L 3169 4134 
L 1269 4134 
L 1269 2991 
Q 1406 3038 1543 3061 
Q 1681 3084 1819 3084 
Q 2600 3084 3056 2656 
Q 3513 2228 3513 1497 
Q 3513 744 3044 326 
Q 2575 -91 1722 -91 
Q 1428 -91 1123 -41 
Q 819 9 494 109 
L 494 744 
Q 775 591 1075 516 
Q 1375 441 1709 441 
Q 2250 441 2565 725 
Q 2881 1009 2881 1497 
Q 2881 1984 2565 2268 
Q 2250 2553 1709 2553 
Q 1456 2553 1204 2497 
Q 953 2441 691 2322 
L 691 4666 
z
" transform="scale(0.015625)"/>
       </defs>
       <use xlink:href="#DejaVuSans-32"/>
       <use xlink:href="#DejaVuSans-30" transform="translate(63.623047 0)"/>
       <use xlink:href="#DejaVuSans-32" transform="translate(127.246094 0)"/>
       <use xlink:href="#DejaVuSans-35" transform="translate(190.869141 0)"/>
       <use xlink:href="#DejaVuSans-2d" transform="translate(254.492188 0)"/>
       <use xlink:href="#DejaVuSans-30" transform="translate(290.576172 0)"/>
       <use xlink:href="#DejaVuSans-31" transform="translate(354.199219 0)"/>
      </g>
     </g>
    </g>
    <g id="xtick_9">
     <g id="line2d_17">
      <path d="M 720.45087 320.4 
L 720.45087 43.2 
" clip-path="url(#pffa0edf6b6)" style="fill: none; stroke-dasharray: 5.12,1.28,0.8,1.28; stroke-dashoffset: 0; stroke: #b0b0b0; stroke-width: 0.8"/>
     </g>
     <g id="line2d_18">
      <g>
       <use xlink:href="#m98c42f75c8" x="720.45087" y="320.4" style="fill: #a9a9a9; stroke: #a9a9a9; stroke-width: 0.8"/>
      </g>
     </g>
     <g id="text_9">
      <!-- 2025-07 -->
      <g style="fill: #a9a9a9" transform="translate(699.559464 334.998438) scale(0.1 -0.1)">
       <use xlink:href="#DejaVuSans-32"/>
       <use xlink:href="#DejaVuSans-30" transform="translate(63.623047 0)"/>
       <use xlink:href="#DejaVuSans-32" transform="translate(127.246094 0)"/>
       <use xlink:href="#DejaVuSans-35" transform="translate(190.869141 0)"/>
       <use xlink:href="#DejaVuSans-2d" transform="translate(254.492188 0)"/>
       <use xlink:href="#DejaVuSans-30" transform="translate(290.576172 0)"/>
       <use xlink:href="#DejaVuSans-37" transform="translate(354.199219 0)"/>
      </g>
     </g>
    </g>
   </g>
   <g id="matplotlib.axis_2">
    <g id="ytick_1">
     <g id="line2d_19">
      <path d="M 108 307.831054 
L 777.6 307.831054 
" clip-path="url(#pffa0edf6b6)" style="fill: none; stroke-dasharray: 5.12,1.28,0.8,1.28; stroke-dashoffset: 0; stroke: #b0b0b0; stroke-width: 0.8"/>
     </g>
     <g id="line2d_20">
      <defs>
       <path id="m68f6d3b751" d="M 0 0 
L -3.5 0 
" style="stroke: #a9a9a9; stroke-width: 0.8"/>
      </defs>
      <g>
       <use xlink:href="#m68f6d3b751" x="108" y="307.831054" style="fill: #a9a9a9; stroke: #a9a9a9; stroke-width: 0.8"/>
      </g>
     </g>
     <g id="text_10">
      <!-- 0 -->
      <g style="fill: #a9a9a9" transform="translate(94.6375 311.630272) scale(0.1 -0.1)">
       <use xlink:href="#DejaVuSans-30"/>
      </g>
     </g>
    </g>
    <g id="ytick_2">
     <g id="line2d_21">
      <path d="M 108 276.777449 
L 777.6 276.777449 
" clip-path="url(#pffa0edf6b6)" style="fill: none; stroke-dasharray: 5.12,1.28,0.8,1.28; stroke-dashoffset: 0; stroke: #b0b0b0; stroke-width: 0.8"/>
     </g>
     <g id="line2d_22">
      <g>
       <use xlink:href="#m68f6d3b751" x="108" y="276.777449" style="fill: #a9a9a9; stroke: #a9a9a9; stroke-width: 0.8"/>
      </g>
     </g>
     <g id="text_11">
      <!-- 1000 -->
      <g style="fill: #a9a9a9" transform="translate(75.55 280.576668) scale(0.1 -0.1)">
       <use xlink:href="#DejaVuSans-31"/>
       <use xlink:href="#DejaVuSans-30" transform="translate(63.623047 0)"/>
       <use xlink:href="#DejaVuSans-30" transform="translate(127.246094 0)"/>
       <use xlink:href="#DejaVuSans-30" transform="translate(190.869141 0)"/>
      </g>
     </g>
    </g>
    <g id="ytick_3">
     <g id="line2d_23">
      <path d="M 108 245.723845 
L 777.6 245.723845 
" clip-path="url(#pffa0edf6b6)" style="fill: none; stroke-dasharray: 5.12,1.28,0.8,1.28; stroke-dashoffset: 0; stroke: #b0b0b0; stroke-width: 0.8"/>
     </g>
     <g id="line2d_24">
      <g>
       <use xlink:href="#m68f6d3b751" x="108" y="245.723845" style="fill: #a9a9a9; stroke: #a9a9a9; stroke-width: 0.8"/>
      </g>
     </g>
     <g id="text_12">
      <!-- 2000 -->
      <g style="fill: #a9a9a9" transform="translate(75.55 249.523063) scale(0.1 -0.1)">
       <use xlink:href="#DejaVuSans-32"/>
       <use xlink:href="#DejaVuSans-30" transform="translate(63.623047 0)"/>
       <use xlink:href="#DejaVuSans-30" transform="translate(127.246094 0)"/>
       <use xlink:href="#DejaVuSans-30" transform="translate(190.869141 0)"/>
      </g>
     </g>
    </g>
    <g id="ytick_4">
     <g id="line2d_25">
      <path d="M 108 214.67024 
L 777.6 214.67024 
" clip-path="url(#pffa0edf6b6)" style="fill: none; stroke-dasharray: 5.12,1.28,0.8,1.28; stroke-dashoffset: 0; stroke: #b0b0b0; stroke-width: 0.8"/>
     </g>
     <g id="line2d_26">
      <g>
       <use xlink:href="#m68f6d3b751" x="108" y="214.67024" style="fill: #a9a9a9; stroke: #a9a9a9; stroke-width: 0.8"/>
      </g>
     </g>
     <g id="text_13">
      <!-- 3000 -->
      <g style="fill: #a9a9a9" transform="translate(75.55 218.469459) scale(0.1 -0.1)">
       <use xlink:href="#DejaVuSans-33"/>
       <use xlink:href="#DejaVuSans-30" transform="translate(63.623047 0)"/>
       <use xlink:href="#DejaVuSans-30" transform="translate(127.246094 0)"/>
       <use xlink:href="#DejaVuSans-30" transform="translate(190.869141 0)"/>
      </g>
     </g>
    </g>
    <g id="ytick_5">
     <g id="line2d_27">
      <path d="M 108 183.616636 
L 777.6 183.616636 
" clip-path="url(#pffa0edf6b6)" style="fill: none; stroke-dasharray: 5.12,1.28,0.8,1.28; stroke-dashoffset: 0; stroke: #b0b0b0; stroke-width: 0.8"/>
     </g>
     <g id="line2d_28">
      <g>
       <use xlink:href="#m68f6d3b751" x="108" y="183.616636" style="fill: #a9a9a9; stroke: #a9a9a9; stroke-width: 0.8"/>
      </g>
     </g>
     <g id="text_14">
      <!-- 4000 -->
      <g style="fill: #a9a9a9" transform="translate(75.55 187.415855) scale(0.1 -0.1)">
       <use xlink:href="#DejaVuSans-34"/>
       <use xlink:href="#DejaVuSans-30" transform="translate(63.623047 0)"/>
       <use xlink:href="#DejaVuSans-30" transform="translate(127.246094 0)"/>
       <use xlink:href="#DejaVuSans-30" transform="translate(190.869141 0)"/>
      </g>
     </g>
    </g>
    <g id="ytick_6">
     <g id="line2d_29">
      <path d="M 108 152.563031 
L 777.6 152.563031 
" clip-path="url(#pffa0edf6b6)" style="fill: none; stroke-dasharray: 5.12,1.28,0.8,1.28; stroke-dashoffset: 0; stroke: #b0b0b0; stroke-width: 0.8"/>
     </g>
     <g id="line2d_30">
      <g>
       <use xlink:href="#m68f6d3b751" x="108" y="152.563031" style="fill: #a9a9a9; stroke: #a9a9a9; stroke-width: 0.8"/>
      </g>
     </g>
     <g id="text_15">
      <!-- 5000 -->
      <g style="fill: #a9a9a9" transform="translate(75.55 156.36225) scale(0.1 -0.1)">
       <use xlink:href="#DejaVuSans-35"/>
       <use xlink:href="#DejaVuSans-30" transform="translate(63.623047 0)"/>
       <use xlink:href="#DejaVuSans-30" transform="translate(127.246094 0)"/>
       <use xlink:href="#DejaVuSans-30" transform="translate(190.869141 0)"/>
      </g>
     </g>
    </g>
    <g id="ytick_7">
     <g id="line2d_31">
      <path d="M 108 121.509427 
L 777.6 121.509427 
" clip-path="url(#pffa0edf6b6)" style="fill: none; stroke-dasharray: 5.12,1.28,0.8,1.28; stroke-dashoffset: 0; stroke: #b0b0b0; stroke-width: 0.8"/>
     </g>
     <g id="line2d_32">
      <g>
       <use xlink:href="#m68f6d3b751" x="108" y="121.509427" style="fill: #a9a9a9; stroke: #a9a9a9; stroke-width: 0.8"/>
      </g>
     </g>
     <g id="text_16">
      <!-- 6000 -->
      <g style="fill: #a9a9a9" transform="translate(75.55 125.308646) scale(0.1 -0.1)">
       <defs>
        <path id="DejaVuSans-36" d="M 2113 2584 
Q 1688 2584 1439 2293 
Q 1191 2003 1191 1497 
Q 1191 994 1439 701 
Q 1688 409 2113 409 
Q 2538 409 2786 701 
Q 3034 994 3034 1497 
Q 3034 2003 2786 2293 
Q 2538 2584 2113 2584 
z
M 3366 4563 
L 3366 3988 
Q 3128 4100 2886 4159 
Q 2644 4219 2406 4219 
Q 1781 4219 1451 3797 
Q 1122 3375 1075 2522 
Q 1259 2794 1537 2939 
Q 1816 3084 2150 3084 
Q 2853 3084 3261 2657 
Q 3669 2231 3669 1497 
Q 3669 778 3244 343 
Q 2819 -91 2113 -91 
Q 1303 -91 875 529 
Q 447 1150 447 2328 
Q 447 3434 972 4092 
Q 1497 4750 2381 4750 
Q 2619 4750 2861 4703 
Q 3103 4656 3366 4563 
z
" transform="scale(0.015625)"/>
       </defs>
       <use xlink:href="#DejaVuSans-36"/>
       <use xlink:href="#DejaVuSans-30" transform="translate(63.623047 0)"/>
       <use xlink:href="#DejaVuSans-30" transform="translate(127.246094 0)"/>
       <use xlink:href="#DejaVuSans-30" transform="translate(190.869141 0)"/>
      </g>
     </g>
    </g>
    <g id="ytick_8">
     <g id="line2d_33">
      <path d="M 108 90.455823 
L 777.6 90.455823 
" clip-path="url(#pffa0edf6b6)" style="fill: none; stroke-dasharray: 5.12,1.28,0.8,1.28; stroke-dashoffset: 0; stroke: #b0b0b0; stroke-width: 0.8"/>
     </g>
     <g id="line2d_34">
      <g>
       <use xlink:href="#m68f6d3b751" x="108" y="90.455823" style="fill: #a9a9a9; stroke: #a9a9a9; stroke-width: 0.8"/>
      </g>
     </g>
     <g id="text_17">
      <!-- 7000 -->
      <g style="fill: #a9a9a9" transform="translate(75.55 94.255041) scale(0.1 -0.1)">
       <use xlink:href="#DejaVuSans-37"/>
       <use xlink:href="#DejaVuSans-30" transform="translate(63.623047 0)"/>
       <use xlink:href="#DejaVuSans-30" transform="translate(127.246094 0)"/>
       <use xlink:href="#DejaVuSans-30" transform="translate(190.869141 0)"/>
      </g>
     </g>
    </g>
    <g id="ytick_9">
     <g id="line2d_35">
      <path d="M 108 59.402218 
L 777.6 59.402218 
" clip-path="url(#pffa0edf6b6)" style="fill: none; stroke-dasharray: 5.12,1.28,0.8,1.28; stroke-dashoffset: 0; stroke: #b0b0b0; stroke-width: 0.8"/>
     </g>
     <g id="line2d_36">
      <g>
       <use xlink:href="#m68f6d3b751" x="108" y="59.402218" style="fill: #a9a9a9; stroke: #a9a9a9; stroke-width: 0.8"/>
      </g>
     </g>
     <g id="text_18">
      <!-- 8000 -->
      <g style="fill: #a9a9a9" transform="translate(75.55 63.201437) scale(0.1 -0.1)">
       <defs>
        <path id="DejaVuSans-38" d="M 2034 2216 
Q 1584 2216 1326 1975 
Q 1069 1734 1069 1313 
Q 1069 891 1326 650 
Q 1584 409 2034 409 
Q 2484 409 2743 651 
Q 3003 894 3003 1313 
Q 3003 1734 2745 1975 
Q 2488 2216 2034 2216 
z
M 1403 2484 
Q 997 2584 770 2862 
Q 544 3141 544 3541 
Q 544 4100 942 4425 
Q 1341 4750 2034 4750 
Q 2731 4750 3128 4425 
Q 3525 4100 3525 3541 
Q 3525 3141 3298 2862 
Q 3072 2584 2669 2484 
Q 3125 2378 3379 2068 
Q 3634 1759 3634 1313 
Q 3634 634 3220 271 
Q 2806 -91 2034 -91 
Q 1263 -91 848 271 
Q 434 634 434 1313 
Q 434 1759 690 2068 
Q 947 2378 1403 2484 
z
M 1172 3481 
Q 1172 3119 1398 2916 
Q 1625 2713 2034 2713 
Q 2441 2713 2670 2916 
Q 2900 3119 2900 3481 
Q 2900 3844 2670 4047 
Q 2441 4250 2034 4250 
Q 1625 4250 1398 4047 
Q 1172 3844 1172 3481 
z
" transform="scale(0.015625)"/>
       </defs>
       <use xlink:href="#DejaVuSans-38"/>
       <use xlink:href="#DejaVuSans-30" transform="translate(63.623047 0)"/>
       <use xlink:href="#DejaVuSans-30" transform="translate(127.246094 0)"/>
       <use xlink:href="#DejaVuSans-30" transform="translate(190.869141 0)"/>
      </g>
     </g>
    </g>
   </g>
   <g id="line2d_37">
    <path d="M 138.436364 307.737893 
L 140.864797 307.520518 
L 141.269536 307.334196 
L 142.888491 307.116821 
L 144.507447 306.775231 
L 145.316925 306.651017 
L 147.340619 306.464695 
L 148.150097 306.123105 
L 148.554836 305.56414 
L 148.959574 305.284658 
L 149.364313 304.35305 
L 149.769052 304.290943 
L 150.173791 303.949353 
L 150.983269 303.514603 
L 152.602224 302.148244 
L 154.22118 301.309797 
L 155.435397 300.719778 
L 155.840135 300.036599 
L 156.649613 299.415527 
L 157.054352 299.229205 
L 161.101741 298.608133 
L 161.50648 298.421811 
L 164.339652 298.173383 
L 165.958607 297.769686 
L 169.196518 297.303882 
L 169.601257 297.086506 
L 170.005996 297.024399 
L 170.815474 296.744917 
L 173.648646 296.248059 
L 174.458124 295.99963 
L 178.100774 295.378558 
L 178.910251 295.192237 
L 179.719729 295.161183 
L 181.338685 294.757486 
L 181.743424 294.167468 
L 182.95764 293.67061 
L 184.171857 293.32902 
L 184.576596 293.111645 
L 185.386074 292.956377 
L 187.005029 292.459519 
L 187.814507 292.397412 
L 188.623985 292.180037 
L 190.24294 291.745287 
L 190.647679 291.714233 
L 191.457157 291.310536 
L 191.861896 291.248429 
L 192.266634 291.031054 
L 196.718762 290.254713 
L 198.337718 289.757856 
L 198.742456 289.478373 
L 200.766151 288.795194 
L 201.575629 288.205176 
L 202.789845 287.956747 
L 208.051451 286.404067 
L 208.45619 286.341959 
L 210.075145 285.689834 
L 210.479884 285.627726 
L 211.289362 285.286137 
L 212.098839 285.255083 
L 213.313056 284.88244 
L 213.717795 284.88244 
L 214.122534 284.696118 
L 214.932012 284.602957 
L 215.33675 284.447689 
L 216.955706 284.385582 
L 217.765184 284.230314 
L 218.574662 283.795564 
L 219.788878 283.32976 
L 220.598356 282.895009 
L 221.812573 282.367098 
L 223.431528 281.528651 
L 223.836267 281.062847 
L 224.645745 279.758595 
L 225.050484 279.634381 
L 225.455222 279.634381 
L 227.074178 278.702773 
L 227.478917 278.609612 
L 227.883656 278.205915 
L 228.693133 277.864325 
L 229.502611 277.491682 
L 229.90735 276.994824 
L 230.312089 276.311645 
L 230.716828 276.032163 
L 231.121567 275.286876 
L 231.526306 274.821072 
L 233.954739 273.454713 
L 235.573694 271.96414 
L 235.978433 271.001479 
L 236.383172 270.380407 
L 236.787911 270.038817 
L 237.19265 269.852495 
L 240.430561 266.778189 
L 241.240039 266.001848 
L 243.668472 264.418115 
L 244.073211 264.262847 
L 245.692166 263.269131 
L 246.096905 263.08281 
L 248.1206 261.157486 
L 248.930077 260.815896 
L 249.739555 260.225878 
L 250.144294 259.977449 
L 250.549033 259.915342 
L 251.76325 259.201109 
L 252.167988 258.735305 
L 254.191683 257.586322 
L 254.596422 257.431054 
L 255.810638 256.561553 
L 261.881721 254.325693 
L 262.691199 253.549353 
L 263.905416 252.928281 
L 264.714894 252.40037 
L 265.524371 252.151941 
L 265.92911 251.872458 
L 266.333849 251.748244 
L 267.548066 250.909797 
L 269.57176 250.443993 
L 270.785977 249.698706 
L 272.000193 249.419224 
L 272.404932 249.326063 
L 273.619149 248.394455 
L 275.238104 247.928651 
L 275.642843 247.587061 
L 278.071277 246.71756 
L 278.880754 246.562292 
L 279.690232 246.220702 
L 282.523404 245.133826 
L 283.332882 245.040665 
L 284.547099 244.605915 
L 286.570793 243.581146 
L 288.999226 242.183734 
L 289.808704 241.966359 
L 291.022921 241.345287 
L 291.832398 241.190018 
L 292.641876 240.693161 
L 293.451354 240.475786 
L 294.665571 239.978928 
L 296.284526 239.761553 
L 297.094004 239.326802 
L 297.498743 238.954159 
L 297.903482 238.208872 
L 299.522437 237.743068 
L 301.141393 236.997782 
L 303.569826 235.817745 
L 304.379304 235.414048 
L 305.59352 235.165619 
L 306.807737 234.544547 
L 307.212476 234.48244 
L 309.23617 233.457671 
L 310.045648 232.92976 
L 311.259865 232.681331 
L 313.283559 232.15342 
L 313.688298 231.81183 
L 314.497776 231.532348 
L 316.52147 230.6939 
L 316.926209 230.383364 
L 317.330948 230.228096 
L 318.140426 229.762292 
L 319.759381 229.234381 
L 320.568859 228.70647 
L 320.973598 228.271719 
L 321.378337 228.02329 
L 321.783075 227.930129 
L 322.592553 227.24695 
L 322.997292 227.184843 
L 323.402031 226.501664 
L 323.80677 226.315342 
L 324.211509 225.973752 
L 324.616248 225.911645 
L 325.425725 225.383734 
L 326.235203 225.104251 
L 326.639942 224.793715 
L 327.044681 224.638447 
L 328.663636 223.520518 
L 329.877853 222.899445 
L 330.687331 222.68207 
L 331.496809 222.216266 
L 331.901547 221.502033 
L 332.711025 220.880961 
L 333.115764 220.7878 
L 335.544197 219.57671 
L 336.353675 219.23512 
L 337.163153 218.645102 
L 338.377369 217.496118 
L 339.186847 216.999261 
L 339.591586 216.533457 
L 341.210542 215.384473 
L 342.020019 214.546026 
L 342.829497 214.266543 
L 343.638975 213.707579 
L 344.853191 213.055453 
L 345.25793 212.993346 
L 348.90058 211.099076 
L 350.114797 210.726433 
L 351.329014 210.229575 
L 351.733752 209.887985 
L 353.352708 209.23586 
L 353.757447 209.111645 
L 354.566925 208.583734 
L 355.376402 208.242144 
L 356.18588 207.652126 
L 356.995358 206.006285 
L 357.804836 205.074677 
L 359.019052 204.422551 
L 359.82853 204.080961 
L 360.233269 204.018854 
L 361.042747 203.646211 
L 362.661702 203.087246 
L 363.47118 202.621442 
L 364.280658 202.217745 
L 364.685397 202.09353 
L 367.11383 200.602957 
L 367.518569 200.137153 
L 368.732785 199.422921 
L 369.137524 199.267652 
L 369.947002 198.770795 
L 371.565957 197.87024 
L 371.970696 197.777079 
L 372.375435 197.43549 
L 375.208607 196.472828 
L 375.613346 196.193346 
L 376.422824 195.944917 
L 377.232302 195.603327 
L 377.637041 195.261738 
L 379.255996 194.671719 
L 380.065474 194.081701 
L 380.874952 193.740111 
L 381.684429 193.087985 
L 382.493907 192.839556 
L 382.898646 192.466913 
L 383.303385 192.404806 
L 384.112863 191.783734 
L 386.136557 190.572643 
L 386.946035 190.324214 
L 387.350774 190.075786 
L 387.755513 190.013678 
L 388.969729 189.330499 
L 395.040812 187.405176 
L 396.255029 186.535675 
L 396.659768 186.380407 
L 397.469246 185.914603 
L 397.873985 185.790388 
L 400.302418 184.392976 
L 400.707157 184.299815 
L 401.921373 183.554529 
L 403.13559 183.119778 
L 403.945068 182.840296 
L 405.564023 182.281331 
L 406.373501 182.001848 
L 407.992456 181.660259 
L 408.397195 181.473937 
L 409.206673 181.256562 
L 409.611412 181.07024 
L 410.016151 181.008133 
L 410.42089 180.790758 
L 411.230368 180.63549 
L 412.444584 180.169686 
L 413.658801 179.983364 
L 416.087234 179.51756 
L 417.301451 179.238078 
L 417.70619 179.051756 
L 418.515667 178.896488 
L 419.325145 178.679113 
L 420.134623 178.30647 
L 420.539362 178.151201 
L 420.944101 178.151201 
L 425.396228 176.753789 
L 425.800967 176.536414 
L 426.205706 176.536414 
L 427.015184 176.225878 
L 427.419923 175.791128 
L 429.848356 174.766359 
L 431.467311 174.207394 
L 431.87205 173.958965 
L 433.086267 173.586322 
L 433.895745 173.368946 
L 434.300484 173.089464 
L 434.705222 172.996303 
L 435.109961 172.62366 
L 436.324178 172.375231 
L 437.133656 172.002588 
L 437.538395 171.50573 
L 441.990522 170.512015 
L 442.395261 170.512015 
L 442.8 170.325693 
L 444.418956 170.015157 
L 444.823694 169.828835 
L 446.44265 169.518299 
L 447.252128 169.17671 
L 448.061605 169.021442 
L 450.0853 168.49353 
L 451.704255 167.965619 
L 452.108994 167.872458 
L 452.513733 167.655083 
L 453.323211 167.437708 
L 454.132689 167.096118 
L 454.942166 166.785582 
L 455.346905 166.5061 
L 456.156383 166.257671 
L 458.989555 165.170795 
L 460.608511 164.984473 
L 463.846422 163.773383 
L 464.251161 163.462847 
L 464.655899 163.369686 
L 465.060638 163.152311 
L 465.465377 163.121257 
L 469.917505 161.475416 
L 471.941199 160.916451 
L 472.750677 160.512754 
L 473.964894 160.233272 
L 475.583849 158.866913 
L 477.202805 158.15268 
L 478.417021 157.624769 
L 480.035977 156.94159 
L 480.440716 156.817375 
L 480.845455 156.537893 
L 482.869149 155.854713 
L 486.916538 153.774122 
L 487.726015 153.401479 
L 488.130754 153.090943 
L 488.940232 152.81146 
L 491.368665 151.631423 
L 491.773404 151.538262 
L 492.987621 150.979298 
L 494.606576 150.420333 
L 495.416054 150.078743 
L 496.225532 149.954529 
L 496.630271 149.675046 
L 498.249226 149.36451 
L 499.058704 149.022921 
L 501.487137 147.842884 
L 501.891876 147.780776 
L 503.106093 147.066543 
L 504.320309 146.631793 
L 507.153482 145.420702 
L 507.558221 145.296488 
L 507.962959 145.017006 
L 508.772437 144.923845 
L 509.177176 144.644362 
L 509.986654 144.520148 
L 510.796132 144.116451 
L 511.20087 143.930129 
L 512.010348 143.712754 
L 512.819826 143.464325 
L 514.034043 142.998521 
L 515.248259 142.594824 
L 516.462476 142.315342 
L 518.081431 141.632163 
L 518.890909 141.197412 
L 520.509865 140.358965 
L 521.319342 140.172643 
L 521.724081 139.924214 
L 522.12882 139.831054 
L 523.343037 139.116821 
L 524.152515 138.775231 
L 527.390426 137.626248 
L 527.795164 137.502033 
L 528.604642 137.067283 
L 530.628337 136.35305 
L 533.05677 135.359335 
L 534.675725 134.582994 
L 538.723114 132.968207 
L 539.532592 132.56451 
L 539.937331 132.471349 
L 540.746809 132.160813 
L 541.151547 132.160813 
L 541.961025 131.78817 
L 543.579981 130.421811 
L 543.98472 130.297597 
L 544.389458 130.049168 
L 545.603675 129.707579 
L 546.008414 129.397043 
L 546.413153 129.303882 
L 547.627369 128.558595 
L 548.032108 128.279113 
L 549.246325 127.813309 
L 549.651064 127.595933 
L 550.86528 127.316451 
L 552.888975 126.602218 
L 553.698453 126.353789 
L 554.912669 125.701664 
L 555.722147 125.297967 
L 556.531625 125.080591 
L 558.15058 124.335305 
L 558.555319 124.211091 
L 559.364797 123.838447 
L 561.388491 123.155268 
L 562.602708 122.378928 
L 563.007447 122.285767 
L 563.816925 121.88207 
L 564.626402 121.571534 
L 565.031141 121.198891 
L 566.245358 120.733087 
L 566.650097 120.67098 
L 568.269052 119.925693 
L 569.483269 119.55305 
L 569.888008 119.366728 
L 570.292747 119.304621 
L 571.102224 118.963031 
L 572.316441 118.683549 
L 573.125919 118.217745 
L 573.530658 118.062477 
L 573.935397 117.751941 
L 575.149613 117.441405 
L 575.554352 117.192976 
L 576.36383 116.975601 
L 577.578046 116.292421 
L 577.982785 116.261368 
L 579.197002 115.857671 
L 580.00648 115.795564 
L 580.815957 115.485028 
L 583.244391 114.739741 
L 584.053868 114.708688 
L 587.291779 113.621811 
L 588.101257 113.187061 
L 588.505996 112.814418 
L 589.720213 112.069131 
L 590.124952 111.758595 
L 591.339168 111.354898 
L 592.148646 111.137523 
L 594.577079 110.019593 
L 594.981818 109.957486 
L 595.791296 109.553789 
L 597.410251 109.119039 
L 598.219729 108.746396 
L 599.029207 108.43586 
L 602.671857 106.945287 
L 603.481335 106.63475 
L 605.10029 105.982625 
L 605.505029 105.609982 
L 605.909768 105.547874 
L 607.528723 104.895749 
L 609.147679 104.492052 
L 609.552418 104.429945 
L 609.957157 104.243623 
L 610.361896 104.212569 
L 611.171373 103.933087 
L 611.576112 103.902033 
L 612.790329 103.436229 
L 614.409284 102.970425 
L 615.218762 102.349353 
L 616.837718 101.448799 
L 617.242456 101.355638 
L 618.051934 101.045102 
L 621.289845 99.461368 
L 621.694584 99.243993 
L 622.099323 98.871349 
L 624.123017 98.374492 
L 625.337234 97.815527 
L 626.146712 97.598152 
L 626.551451 97.41183 
L 626.95619 97.07024 
L 628.575145 96.63549 
L 628.979884 96.324954 
L 634.241489 94.39963 
L 635.050967 94.244362 
L 637.074662 93.592237 
L 638.288878 93.064325 
L 641.12205 92.194824 
L 641.931528 91.72902 
L 644.7647 90.766359 
L 646.383656 90.238447 
L 647.597872 89.958965 
L 648.812089 89.586322 
L 649.216828 89.493161 
L 649.621567 89.213678 
L 650.431044 89.027357 
L 652.05 88.561553 
L 652.454739 88.530499 
L 653.264217 88.157856 
L 656.097389 87.443623 
L 657.716344 86.853604 
L 658.121083 86.853604 
L 659.3353 86.574122 
L 660.144778 86.418854 
L 660.954255 86.201479 
L 662.168472 85.549353 
L 663.382689 85.17671 
L 666.215861 84.214048 
L 667.834816 83.406654 
L 669.049033 83.127172 
L 669.858511 82.878743 
L 670.667988 82.475046 
L 671.072727 82.133457 
L 671.882205 81.885028 
L 672.286944 81.636599 
L 673.096422 81.543438 
L 675.929594 80.736044 
L 677.14381 80.487616 
L 678.358027 80.177079 
L 679.167505 79.990758 
L 680.381721 79.369686 
L 685.643327 77.351201 
L 686.452805 77.226987 
L 687.262282 77.071719 
L 687.667021 77.071719 
L 688.881238 76.668022 
L 690.095455 76.295379 
L 693.738104 75.27061 
L 694.547582 75.053235 
L 694.952321 74.960074 
L 695.35706 74.711645 
L 696.166538 74.556377 
L 696.976015 74.463216 
L 697.380754 74.245841 
L 697.785493 74.214787 
L 698.594971 73.686876 
L 700.213926 73.345287 
L 701.023404 73.003697 
L 701.832882 72.724214 
L 702.64236 72.506839 
L 703.451838 72.16525 
L 704.261315 71.885767 
L 705.880271 71.419963 
L 706.689749 71.357856 
L 707.499226 71.078373 
L 707.903965 70.923105 
L 708.713443 70.798891 
L 710.332398 70.084658 
L 710.737137 70.022551 
L 711.546615 69.712015 
L 713.975048 69.308318 
L 714.784526 69.059889 
L 715.189265 68.997782 
L 715.998743 68.656192 
L 716.403482 68.594085 
L 716.808221 68.37671 
L 717.617698 67.69353 
L 721.665087 66.202957 
L 722.474565 65.954529 
L 723.284043 65.737153 
L 724.09352 65.519778 
L 724.498259 65.209242 
L 726.117215 64.495009 
L 727.73617 63.81183 
L 728.545648 63.563401 
L 729.759865 63.097597 
L 730.569342 62.756007 
L 732.188298 61.762292 
L 732.593037 61.669131 
L 733.807253 61.048059 
L 734.616731 60.737523 
L 736.235687 60.178558 
L 736.640426 59.992237 
L 737.045164 59.650647 
L 737.449903 59.557486 
L 738.259381 59.060628 
L 738.66412 58.967468 
L 739.473598 58.594824 
L 740.283075 58.284288 
L 741.092553 57.911645 
L 741.497292 57.880591 
L 743.520986 57.104251 
L 744.330464 56.948983 
L 745.139942 56.358965 
L 745.544681 56.358965 
L 746.354159 56.017375 
L 747.163636 55.8 
L 747.163636 55.8 
" clip-path="url(#pffa0edf6b6)" style="fill: none; stroke: #1f77b4; stroke-width: 1.5; stroke-linecap: square"/>
   </g>
   <g id="line2d_38">
    <path d="M 138.841103 307.8 
L 142.483752 307.706839 
L 145.721663 307.551571 
L 147.340619 307.551571 
L 147.745358 307.427357 
L 149.769052 307.334196 
L 152.197485 307.054713 
L 154.625919 306.961553 
L 155.435397 306.868392 
L 158.268569 306.744177 
L 161.101741 306.651017 
L 163.125435 306.588909 
L 168.387041 306.495749 
L 170.410735 306.433641 
L 174.053385 306.340481 
L 175.67234 306.309427 
L 179.719729 306.216266 
L 181.338685 306.060998 
L 182.95764 306.029945 
L 185.386074 305.936784 
L 187.005029 305.90573 
L 189.028723 305.843623 
L 190.647679 305.688355 
L 194.290329 305.595194 
L 195.099807 305.533087 
L 196.718762 305.439926 
L 199.147195 305.346765 
L 200.766151 305.253604 
L 208.051451 304.7878 
L 210.884623 304.69464 
L 212.098839 304.570425 
L 214.122534 304.477264 
L 218.169923 304.259889 
L 222.217311 304.197782 
L 223.836267 304.01146 
L 225.859961 303.918299 
L 229.90735 303.514603 
L 232.335783 303.204067 
L 233.954739 303.141959 
L 237.19265 302.707209 
L 239.621083 302.645102 
L 240.8353 302.520887 
L 242.049516 302.427726 
L 253.382205 301.527172 
L 254.191683 301.371904 
L 256.620116 301.278743 
L 263.095938 300.875046 
L 265.92911 300.781885 
L 267.548066 300.595564 
L 269.57176 300.502403 
L 272.000193 300.409242 
L 274.023888 300.316081 
L 275.642843 300.285028 
L 277.666538 300.222921 
L 278.476015 300.098706 
L 284.14236 300.005545 
L 284.951838 299.912384 
L 289.808704 299.819224 
L 293.451354 299.632902 
L 296.284526 299.539741 
L 297.903482 299.35342 
L 300.736654 299.260259 
L 301.546132 299.136044 
L 303.569826 299.073937 
L 307.617215 299.01183 
L 309.23617 298.856562 
L 310.855126 298.825508 
L 312.069342 298.732348 
L 313.688298 298.577079 
L 317.735687 298.359704 
L 321.783075 298.266543 
L 325.425725 298.080222 
L 326.639942 298.049168 
L 327.44942 297.924954 
L 329.473114 297.831793 
L 330.282592 297.769686 
L 331.09207 297.707579 
L 331.901547 297.645471 
L 335.948936 297.552311 
L 344.853191 296.962292 
L 345.662669 296.900185 
L 346.876886 296.807024 
L 349.710058 296.713863 
L 351.733752 296.651756 
L 357.400097 296.558595 
L 358.209574 296.434381 
L 363.875919 296.34122 
L 367.923308 296.123845 
L 368.732785 296.092791 
L 369.542263 295.99963 
L 371.565957 295.90647 
L 373.589652 295.844362 
L 375.613346 295.751201 
L 377.637041 295.689094 
L 381.279691 295.595933 
L 383.708124 295.502773 
L 389.374468 295.409612 
L 393.826596 295.161183 
L 395.445551 295.099076 
L 396.659768 295.005915 
L 402.326112 294.912754 
L 404.754545 294.819593 
L 412.039845 294.726433 
L 413.658801 294.695379 
L 418.515667 294.633272 
L 419.325145 294.571165 
L 424.991489 294.478004 
L 426.610445 294.44695 
L 437.133656 294.353789 
L 439.562089 294.260628 
L 456.561122 294.167468 
L 458.584816 294.10536 
L 469.108027 294.043253 
L 469.917505 293.981146 
L 471.941199 293.919039 
L 473.155416 293.794824 
L 475.583849 293.701664 
L 478.417021 293.577449 
L 482.059671 293.484288 
L 484.083366 293.422181 
L 486.916538 293.32902 
L 490.154449 293.173752 
L 492.178143 293.080591 
L 493.797099 293.049538 
L 500.67766 292.956377 
L 503.106093 292.863216 
L 507.558221 292.770055 
L 510.391393 292.645841 
L 513.224565 292.583734 
L 514.034043 292.521627 
L 523.747776 292.428466 
L 527.795164 292.211091 
L 530.628337 292.11793 
L 535.080464 291.869501 
L 537.913636 291.77634 
L 539.532592 291.745287 
L 542.365764 291.652126 
L 544.389458 291.43475 
L 548.436847 291.34159 
L 549.246325 291.248429 
L 553.293714 291.155268 
L 555.317408 291.093161 
L 559.769536 291.062107 
L 560.579014 290.968946 
L 565.031141 290.875786 
L 565.840619 290.813678 
L 574.744874 290.720518 
L 577.173308 290.627357 
L 583.244391 290.534196 
L 584.863346 290.503142 
L 588.505996 290.441035 
L 589.315474 290.347874 
L 594.577079 290.254713 
L 596.600774 290.192606 
L 603.886074 290.099445 
L 605.10029 290.006285 
L 606.314507 289.913124 
L 607.528723 289.819963 
L 613.599807 289.726802 
L 616.02824 289.633641 
L 626.95619 289.540481 
L 630.598839 289.354159 
L 635.455706 289.292052 
L 636.265184 289.229945 
L 642.336267 289.167837 
L 643.145745 289.10573 
L 647.597872 289.012569 
L 649.216828 288.981516 
L 656.097389 288.888355 
L 656.906867 288.826248 
L 664.192166 288.733087 
L 665.811122 288.702033 
L 669.453772 288.608872 
L 672.691683 288.453604 
L 677.14381 288.360444 
L 679.976983 288.236229 
L 683.619632 288.143068 
L 684.42911 288.080961 
L 692.523888 287.9878 
L 694.547582 287.925693 
L 696.976015 287.832532 
L 699.404449 287.739372 
L 711.546615 287.646211 
L 714.379787 287.521996 
L 721.260348 287.428835 
L 723.688781 287.335675 
L 728.950387 287.242514 
L 731.37882 287.149353 
L 734.616731 287.056192 
L 737.045164 286.963031 
L 747.163636 286.869871 
L 747.163636 286.869871 
" clip-path="url(#pffa0edf6b6)" style="fill: none; stroke: #ff7f0e; stroke-width: 1.5; stroke-linecap: square"/>
   </g>
   <g id="patch_3">
    <path d="M 108 320.4 
L 108 43.2 
" style="fill: none; stroke: #a9a9a9; stroke-width: 0.8; stroke-linejoin: miter; stroke-linecap: square"/>
   </g>
   <g id="patch_4">
    <path d="M 777.6 320.4 
L 777.6 43.2 
" style="fill: none"/>
   </g>
   <g id="patch_5">
    <path d="M 108 320.4 
L 777.6 320.4 
" style="fill: none; stroke: #a9a9a9; stroke-width: 0.8; stroke-linejoin: miter; stroke-linecap: square"/>
   </g>
   <g id="patch_6">
    <path d="M 108 43.2 
L 777.6 43.2 
" style="fill: none"/>
   </g>
   <g id="text_19">
    <!-- get_subscribe history -->
    <g style="fill: #a9a9a9" transform="translate(378.6075 37.2) scale(0.12 -0.12)">
     <defs>
      <path id="DejaVuSans-67" d="M 2906 1791 
Q 2906 2416 2648 2759 
Q 2391 3103 1925 3103 
Q 1463 3103 1205 2759 
Q 947 2416 947 1791 
Q 947 1169 1205 825 
Q 1463 481 1925 481 
Q 2391 481 2648 825 
Q 2906 1169 2906 1791 
z
M 3481 434 
Q 3481 -459 3084 -895 
Q 2688 -1331 1869 -1331 
Q 1566 -1331 1297 -1286 
Q 1028 -1241 775 -1147 
L 775 -588 
Q 1028 -725 1275 -790 
Q 1522 -856 1778 -856 
Q 2344 -856 2625 -561 
Q 2906 -266 2906 331 
L 2906 616 
Q 2728 306 2450 153 
Q 2172 0 1784 0 
Q 1141 0 747 490 
Q 353 981 353 1791 
Q 353 2603 747 3093 
Q 1141 3584 1784 3584 
Q 2172 3584 2450 3431 
Q 2728 3278 2906 2969 
L 2906 3500 
L 3481 3500 
L 3481 434 
z
" transform="scale(0.015625)"/>
      <path id="DejaVuSans-65" d="M 3597 1894 
L 3597 1613 
L 953 1613 
Q 991 1019 1311 708 
Q 1631 397 2203 397 
Q 2534 397 2845 478 
Q 3156 559 3463 722 
L 3463 178 
Q 3153 47 2828 -22 
Q 2503 -91 2169 -91 
Q 1331 -91 842 396 
Q 353 884 353 1716 
Q 353 2575 817 3079 
Q 1281 3584 2069 3584 
Q 2775 3584 3186 3129 
Q 3597 2675 3597 1894 
z
M 3022 2063 
Q 3016 2534 2758 2815 
Q 2500 3097 2075 3097 
Q 1594 3097 1305 2825 
Q 1016 2553 972 2059 
L 3022 2063 
z
" transform="scale(0.015625)"/>
      <path id="DejaVuSans-74" d="M 1172 4494 
L 1172 3500 
L 2356 3500 
L 2356 3053 
L 1172 3053 
L 1172 1153 
Q 1172 725 1289 603 
Q 1406 481 1766 481 
L 2356 481 
L 2356 0 
L 1766 0 
Q 1100 0 847 248 
Q 594 497 594 1153 
L 594 3053 
L 172 3053 
L 172 3500 
L 594 3500 
L 594 4494 
L 1172 4494 
z
" transform="scale(0.015625)"/>
      <path id="DejaVuSans-5f" d="M 3263 -1063 
L 3263 -1509 
L -63 -1509 
L -63 -1063 
L 3263 -1063 
z
" transform="scale(0.015625)"/>
      <path id="DejaVuSans-73" d="M 2834 3397 
L 2834 2853 
Q 2591 2978 2328 3040 
Q 2066 3103 1784 3103 
Q 1356 3103 1142 2972 
Q 928 2841 928 2578 
Q 928 2378 1081 2264 
Q 1234 2150 1697 2047 
L 1894 2003 
Q 2506 1872 2764 1633 
Q 3022 1394 3022 966 
Q 3022 478 2636 193 
Q 2250 -91 1575 -91 
Q 1294 -91 989 -36 
Q 684 19 347 128 
L 347 722 
Q 666 556 975 473 
Q 1284 391 1588 391 
Q 1994 391 2212 530 
Q 2431 669 2431 922 
Q 2431 1156 2273 1281 
Q 2116 1406 1581 1522 
L 1381 1569 
Q 847 1681 609 1914 
Q 372 2147 372 2553 
Q 372 3047 722 3315 
Q 1072 3584 1716 3584 
Q 2034 3584 2315 3537 
Q 2597 3491 2834 3397 
z
" transform="scale(0.015625)"/>
      <path id="DejaVuSans-75" d="M 544 1381 
L 544 3500 
L 1119 3500 
L 1119 1403 
Q 1119 906 1312 657 
Q 1506 409 1894 409 
Q 2359 409 2629 706 
Q 2900 1003 2900 1516 
L 2900 3500 
L 3475 3500 
L 3475 0 
L 2900 0 
L 2900 538 
Q 2691 219 2414 64 
Q 2138 -91 1772 -91 
Q 1169 -91 856 284 
Q 544 659 544 1381 
z
M 1991 3584 
L 1991 3584 
z
" transform="scale(0.015625)"/>
      <path id="DejaVuSans-62" d="M 3116 1747 
Q 3116 2381 2855 2742 
Q 2594 3103 2138 3103 
Q 1681 3103 1420 2742 
Q 1159 2381 1159 1747 
Q 1159 1113 1420 752 
Q 1681 391 2138 391 
Q 2594 391 2855 752 
Q 3116 1113 3116 1747 
z
M 1159 2969 
Q 1341 3281 1617 3432 
Q 1894 3584 2278 3584 
Q 2916 3584 3314 3078 
Q 3713 2572 3713 1747 
Q 3713 922 3314 415 
Q 2916 -91 2278 -91 
Q 1894 -91 1617 61 
Q 1341 213 1159 525 
L 1159 0 
L 581 0 
L 581 4863 
L 1159 4863 
L 1159 2969 
z
" transform="scale(0.015625)"/>
      <path id="DejaVuSans-63" d="M 3122 3366 
L 3122 2828 
Q 2878 2963 2633 3030 
Q 2388 3097 2138 3097 
Q 1578 3097 1268 2742 
Q 959 2388 959 1747 
Q 959 1106 1268 751 
Q 1578 397 2138 397 
Q 2388 397 2633 464 
Q 2878 531 3122 666 
L 3122 134 
Q 2881 22 2623 -34 
Q 2366 -91 2075 -91 
Q 1284 -91 818 406 
Q 353 903 353 1747 
Q 353 2603 823 3093 
Q 1294 3584 2113 3584 
Q 2378 3584 2631 3529 
Q 2884 3475 3122 3366 
z
" transform="scale(0.015625)"/>
      <path id="DejaVuSans-72" d="M 2631 2963 
Q 2534 3019 2420 3045 
Q 2306 3072 2169 3072 
Q 1681 3072 1420 2755 
Q 1159 2438 1159 1844 
L 1159 0 
L 581 0 
L 581 3500 
L 1159 3500 
L 1159 2956 
Q 1341 3275 1631 3429 
Q 1922 3584 2338 3584 
Q 2397 3584 2469 3576 
Q 2541 3569 2628 3553 
L 2631 2963 
z
" transform="scale(0.015625)"/>
      <path id="DejaVuSans-69" d="M 603 3500 
L 1178 3500 
L 1178 0 
L 603 0 
L 603 3500 
z
M 603 4863 
L 1178 4863 
L 1178 4134 
L 603 4134 
L 603 4863 
z
" transform="scale(0.015625)"/>
      <path id="DejaVuSans-20" transform="scale(0.015625)"/>
      <path id="DejaVuSans-68" d="M 3513 2113 
L 3513 0 
L 2938 0 
L 2938 2094 
Q 2938 2591 2744 2837 
Q 2550 3084 2163 3084 
Q 1697 3084 1428 2787 
Q 1159 2491 1159 1978 
L 1159 0 
L 581 0 
L 581 4863 
L 1159 4863 
L 1159 2956 
Q 1366 3272 1645 3428 
Q 1925 3584 2291 3584 
Q 2894 3584 3203 3211 
Q 3513 2838 3513 2113 
z
" transform="scale(0.015625)"/>
      <path id="DejaVuSans-6f" d="M 1959 3097 
Q 1497 3097 1228 2736 
Q 959 2375 959 1747 
Q 959 1119 1226 758 
Q 1494 397 1959 397 
Q 2419 397 2687 759 
Q 2956 1122 2956 1747 
Q 2956 2369 2687 2733 
Q 2419 3097 1959 3097 
z
M 1959 3584 
Q 2709 3584 3137 3096 
Q 3566 2609 3566 1747 
Q 3566 888 3137 398 
Q 2709 -91 1959 -91 
Q 1206 -91 779 398 
Q 353 888 353 1747 
Q 353 2609 779 3096 
Q 1206 3584 1959 3584 
z
" transform="scale(0.015625)"/>
      <path id="DejaVuSans-79" d="M 2059 -325 
Q 1816 -950 1584 -1140 
Q 1353 -1331 966 -1331 
L 506 -1331 
L 506 -850 
L 844 -850 
Q 1081 -850 1212 -737 
Q 1344 -625 1503 -206 
L 1606 56 
L 191 3500 
L 800 3500 
L 1894 763 
L 2988 3500 
L 3597 3500 
L 2059 -325 
z
" transform="scale(0.015625)"/>
     </defs>
     <use xlink:href="#DejaVuSans-67"/>
     <use xlink:href="#DejaVuSans-65" transform="translate(63.476562 0)"/>
     <use xlink:href="#DejaVuSans-74" transform="translate(125 0)"/>
     <use xlink:href="#DejaVuSans-5f" transform="translate(164.208984 0)"/>
     <use xlink:href="#DejaVuSans-73" transform="translate(214.208984 0)"/>
     <use xlink:href="#DejaVuSans-75" transform="translate(266.308594 0)"/>
     <use xlink:href="#DejaVuSans-62" transform="translate(329.6875 0)"/>
     <use xlink:href="#DejaVuSans-73" transform="translate(393.164062 0)"/>
     <use xlink:href="#DejaVuSans-63" transform="translate(445.263672 0)"/>
     <use xlink:href="#DejaVuSans-72" transform="translate(500.244141 0)"/>
     <use xlink:href="#DejaVuSans-69" transform="translate(541.357422 0)"/>
     <use xlink:href="#DejaVuSans-62" transform="translate(569.140625 0)"/>
     <use xlink:href="#DejaVuSans-65" transform="translate(632.617188 0)"/>
     <use xlink:href="#DejaVuSans-20" transform="translate(694.140625 0)"/>
     <use xlink:href="#DejaVuSans-68" transform="translate(725.927734 0)"/>
     <use xlink:href="#DejaVuSans-69" transform="translate(789.306641 0)"/>
     <use xlink:href="#DejaVuSans-73" transform="translate(817.089844 0)"/>
     <use xlink:href="#DejaVuSans-74" transform="translate(869.189453 0)"/>
     <use xlink:href="#DejaVuSans-6f" transform="translate(908.398438 0)"/>
     <use xlink:href="#DejaVuSans-72" transform="translate(969.580078 0)"/>
     <use xlink:href="#DejaVuSans-79" transform="translate(1010.693359 0)"/>
    </g>
   </g>
   <g id="legend_1">
    <g id="line2d_39">
     <path d="M 815.08 328.498438 
L 825.08 328.498438 
L 835.08 328.498438 
" style="fill: none; stroke: #1f77b4; stroke-width: 1.5; stroke-linecap: square"/>
    </g>
    <g id="text_20">
     <!-- star -->
     <g style="fill: #a9a9a9" transform="translate(843.08 331.998438) scale(0.1 -0.1)">
      <defs>
       <path id="DejaVuSans-61" d="M 2194 1759 
Q 1497 1759 1228 1600 
Q 959 1441 959 1056 
Q 959 750 1161 570 
Q 1363 391 1709 391 
Q 2188 391 2477 730 
Q 2766 1069 2766 1631 
L 2766 1759 
L 2194 1759 
z
M 3341 1997 
L 3341 0 
L 2766 0 
L 2766 531 
Q 2569 213 2275 61 
Q 1981 -91 1556 -91 
Q 1019 -91 701 211 
Q 384 513 384 1019 
Q 384 1609 779 1909 
Q 1175 2209 1959 2209 
L 2766 2209 
L 2766 2266 
Q 2766 2663 2505 2880 
Q 2244 3097 1772 3097 
Q 1472 3097 1187 3025 
Q 903 2953 641 2809 
L 641 3341 
Q 956 3463 1253 3523 
Q 1550 3584 1831 3584 
Q 2591 3584 2966 3190 
Q 3341 2797 3341 1997 
z
" transform="scale(0.015625)"/>
      </defs>
      <use xlink:href="#DejaVuSans-73"/>
      <use xlink:href="#DejaVuSans-74" transform="translate(52.099609 0)"/>
      <use xlink:href="#DejaVuSans-61" transform="translate(91.308594 0)"/>
      <use xlink:href="#DejaVuSans-72" transform="translate(152.587891 0)"/>
     </g>
    </g>
    <g id="line2d_40">
     <path d="M 815.08 343.176562 
L 825.08 343.176562 
L 835.08 343.176562 
" style="fill: none; stroke: #ff7f0e; stroke-width: 1.5; stroke-linecap: square"/>
    </g>
    <g id="text_21">
     <!-- fork -->
     <g style="fill: #a9a9a9" transform="translate(843.08 346.676562) scale(0.1 -0.1)">
      <defs>
       <path id="DejaVuSans-66" d="M 2375 4863 
L 2375 4384 
L 1825 4384 
Q 1516 4384 1395 4259 
Q 1275 4134 1275 3809 
L 1275 3500 
L 2222 3500 
L 2222 3053 
L 1275 3053 
L 1275 0 
L 697 0 
L 697 3053 
L 147 3053 
L 147 3500 
L 697 3500 
L 697 3744 
Q 697 4328 969 4595 
Q 1241 4863 1831 4863 
L 2375 4863 
z
" transform="scale(0.015625)"/>
       <path id="DejaVuSans-6b" d="M 581 4863 
L 1159 4863 
L 1159 1991 
L 2875 3500 
L 3609 3500 
L 1753 1863 
L 3688 0 
L 2938 0 
L 1159 1709 
L 1159 0 
L 581 0 
L 581 4863 
z
" transform="scale(0.015625)"/>
      </defs>
      <use xlink:href="#DejaVuSans-66"/>
      <use xlink:href="#DejaVuSans-6f" transform="translate(35.205078 0)"/>
      <use xlink:href="#DejaVuSans-72" transform="translate(96.386719 0)"/>
      <use xlink:href="#DejaVuSans-6b" transform="translate(137.5 0)"/>
     </g>
    </g>
   </g>
  </g>
 </g>
 <defs>
  <clipPath id="pffa0edf6b6">
   <rect x="108" y="43.2" width="669.6" height="277.2"/>
  </clipPath>
 </defs>
</svg>
