<?xml version="1.0" encoding="utf-8" standalone="no"?>
<!DOCTYPE svg PUBLIC "-//W3C//DTD SVG 1.1//EN"
  "http://www.w3.org/Graphics/SVG/1.1/DTD/svg11.dtd">
<svg xmlns:xlink="http://www.w3.org/1999/xlink" width="864pt" height="360pt" viewBox="0 0 864 360" xmlns="http://www.w3.org/2000/svg" version="1.1">
 <metadata>
  <rdf:RDF xmlns:dc="http://purl.org/dc/elements/1.1/" xmlns:cc="http://creativecommons.org/ns#" xmlns:rdf="http://www.w3.org/1999/02/22-rdf-syntax-ns#">
   <cc:Work>
    <dc:type rdf:resource="http://purl.org/dc/dcmitype/StillImage"/>
    <dc:date>2025-07-29T08:19:05.298095</dc:date>
    <dc:format>image/svg+xml</dc:format>
    <dc:creator>
     <cc:Agent>
      <dc:title>Matplotlib v3.10.3, https://matplotlib.org/</dc:title>
     </cc:Agent>
    </dc:creator>
   </cc:Work>
  </rdf:RDF>
 </metadata>
 <defs>
  <style type="text/css">*{stroke-linejoin: round; stroke-linecap: butt}</style>
 </defs>
 <g id="figure_1">
  <g id="patch_1">
   <path d="M 0 360 
L 864 360 
L 864 0 
L 0 0 
L 0 360 
z
" style="fill: none; opacity: 0"/>
  </g>
  <g id="axes_1">
   <g id="patch_2">
    <path d="M 108 320.4 
L 777.6 320.4 
L 777.6 43.2 
L 108 43.2 
L 108 320.4 
z
" style="fill: none; opacity: 0"/>
   </g>
   <g id="matplotlib.axis_1">
    <g id="xtick_1">
     <g id="line2d_1">
      <path d="M 128.886072 320.4 
L 128.886072 43.2 
" clip-path="url(#pf716d661f5)" style="fill: none; stroke-dasharray: 5.12,1.28,0.8,1.28; stroke-dashoffset: 0; stroke: #b0b0b0; stroke-width: 0.8"/>
     </g>
     <g id="line2d_2">
      <defs>
       <path id="m6ee261aa2c" d="M 0 0 
L 0 3.5 
" style="stroke: #a9a9a9; stroke-width: 0.8"/>
      </defs>
      <g>
       <use xlink:href="#m6ee261aa2c" x="128.886072" y="320.4" style="fill: #a9a9a9; stroke: #a9a9a9; stroke-width: 0.8"/>
      </g>
     </g>
     <g id="text_1">
      <!-- 2021-07 -->
      <g style="fill: #a9a9a9" transform="translate(107.994666 334.998438) scale(0.1 -0.1)">
       <defs>
        <path id="DejaVuSans-32" d="M 1228 531 
L 3431 531 
L 3431 0 
L 469 0 
L 469 531 
Q 828 903 1448 1529 
Q 2069 2156 2228 2338 
Q 2531 2678 2651 2914 
Q 2772 3150 2772 3378 
Q 2772 3750 2511 3984 
Q 2250 4219 1831 4219 
Q 1534 4219 1204 4116 
Q 875 4013 500 3803 
L 500 4441 
Q 881 4594 1212 4672 
Q 1544 4750 1819 4750 
Q 2544 4750 2975 4387 
Q 3406 4025 3406 3419 
Q 3406 3131 3298 2873 
Q 3191 2616 2906 2266 
Q 2828 2175 2409 1742 
Q 1991 1309 1228 531 
z
" transform="scale(0.015625)"/>
        <path id="DejaVuSans-30" d="M 2034 4250 
Q 1547 4250 1301 3770 
Q 1056 3291 1056 2328 
Q 1056 1369 1301 889 
Q 1547 409 2034 409 
Q 2525 409 2770 889 
Q 3016 1369 3016 2328 
Q 3016 3291 2770 3770 
Q 2525 4250 2034 4250 
z
M 2034 4750 
Q 2819 4750 3233 4129 
Q 3647 3509 3647 2328 
Q 3647 1150 3233 529 
Q 2819 -91 2034 -91 
Q 1250 -91 836 529 
Q 422 1150 422 2328 
Q 422 3509 836 4129 
Q 1250 4750 2034 4750 
z
" transform="scale(0.015625)"/>
        <path id="DejaVuSans-31" d="M 794 531 
L 1825 531 
L 1825 4091 
L 703 3866 
L 703 4441 
L 1819 4666 
L 2450 4666 
L 2450 531 
L 3481 531 
L 3481 0 
L 794 0 
L 794 531 
z
" transform="scale(0.015625)"/>
        <path id="DejaVuSans-2d" d="M 313 2009 
L 1997 2009 
L 1997 1497 
L 313 1497 
L 313 2009 
z
" transform="scale(0.015625)"/>
        <path id="DejaVuSans-37" d="M 525 4666 
L 3525 4666 
L 3525 4397 
L 1831 0 
L 1172 0 
L 2766 4134 
L 525 4134 
L 525 4666 
z
" transform="scale(0.015625)"/>
       </defs>
       <use xlink:href="#DejaVuSans-32"/>
       <use xlink:href="#DejaVuSans-30" transform="translate(63.623047 0)"/>
       <use xlink:href="#DejaVuSans-32" transform="translate(127.246094 0)"/>
       <use xlink:href="#DejaVuSans-31" transform="translate(190.869141 0)"/>
       <use xlink:href="#DejaVuSans-2d" transform="translate(254.492188 0)"/>
       <use xlink:href="#DejaVuSans-30" transform="translate(290.576172 0)"/>
       <use xlink:href="#DejaVuSans-37" transform="translate(354.199219 0)"/>
      </g>
     </g>
    </g>
    <g id="xtick_2">
     <g id="line2d_3">
      <path d="M 205.288404 320.4 
L 205.288404 43.2 
" clip-path="url(#pf716d661f5)" style="fill: none; stroke-dasharray: 5.12,1.28,0.8,1.28; stroke-dashoffset: 0; stroke: #b0b0b0; stroke-width: 0.8"/>
     </g>
     <g id="line2d_4">
      <g>
       <use xlink:href="#m6ee261aa2c" x="205.288404" y="320.4" style="fill: #a9a9a9; stroke: #a9a9a9; stroke-width: 0.8"/>
      </g>
     </g>
     <g id="text_2">
      <!-- 2022-01 -->
      <g style="fill: #a9a9a9" transform="translate(184.396998 334.998438) scale(0.1 -0.1)">
       <use xlink:href="#DejaVuSans-32"/>
       <use xlink:href="#DejaVuSans-30" transform="translate(63.623047 0)"/>
       <use xlink:href="#DejaVuSans-32" transform="translate(127.246094 0)"/>
       <use xlink:href="#DejaVuSans-32" transform="translate(190.869141 0)"/>
       <use xlink:href="#DejaVuSans-2d" transform="translate(254.492188 0)"/>
       <use xlink:href="#DejaVuSans-30" transform="translate(290.576172 0)"/>
       <use xlink:href="#DejaVuSans-31" transform="translate(354.199219 0)"/>
      </g>
     </g>
    </g>
    <g id="xtick_3">
     <g id="line2d_5">
      <path d="M 280.445045 320.4 
L 280.445045 43.2 
" clip-path="url(#pf716d661f5)" style="fill: none; stroke-dasharray: 5.12,1.28,0.8,1.28; stroke-dashoffset: 0; stroke: #b0b0b0; stroke-width: 0.8"/>
     </g>
     <g id="line2d_6">
      <g>
       <use xlink:href="#m6ee261aa2c" x="280.445045" y="320.4" style="fill: #a9a9a9; stroke: #a9a9a9; stroke-width: 0.8"/>
      </g>
     </g>
     <g id="text_3">
      <!-- 2022-07 -->
      <g style="fill: #a9a9a9" transform="translate(259.553639 334.998438) scale(0.1 -0.1)">
       <use xlink:href="#DejaVuSans-32"/>
       <use xlink:href="#DejaVuSans-30" transform="translate(63.623047 0)"/>
       <use xlink:href="#DejaVuSans-32" transform="translate(127.246094 0)"/>
       <use xlink:href="#DejaVuSans-32" transform="translate(190.869141 0)"/>
       <use xlink:href="#DejaVuSans-2d" transform="translate(254.492188 0)"/>
       <use xlink:href="#DejaVuSans-30" transform="translate(290.576172 0)"/>
       <use xlink:href="#DejaVuSans-37" transform="translate(354.199219 0)"/>
      </g>
     </g>
    </g>
    <g id="xtick_4">
     <g id="line2d_7">
      <path d="M 356.847377 320.4 
L 356.847377 43.2 
" clip-path="url(#pf716d661f5)" style="fill: none; stroke-dasharray: 5.12,1.28,0.8,1.28; stroke-dashoffset: 0; stroke: #b0b0b0; stroke-width: 0.8"/>
     </g>
     <g id="line2d_8">
      <g>
       <use xlink:href="#m6ee261aa2c" x="356.847377" y="320.4" style="fill: #a9a9a9; stroke: #a9a9a9; stroke-width: 0.8"/>
      </g>
     </g>
     <g id="text_4">
      <!-- 2023-01 -->
      <g style="fill: #a9a9a9" transform="translate(335.955971 334.998438) scale(0.1 -0.1)">
       <defs>
        <path id="DejaVuSans-33" d="M 2597 2516 
Q 3050 2419 3304 2112 
Q 3559 1806 3559 1356 
Q 3559 666 3084 287 
Q 2609 -91 1734 -91 
Q 1441 -91 1130 -33 
Q 819 25 488 141 
L 488 750 
Q 750 597 1062 519 
Q 1375 441 1716 441 
Q 2309 441 2620 675 
Q 2931 909 2931 1356 
Q 2931 1769 2642 2001 
Q 2353 2234 1838 2234 
L 1294 2234 
L 1294 2753 
L 1863 2753 
Q 2328 2753 2575 2939 
Q 2822 3125 2822 3475 
Q 2822 3834 2567 4026 
Q 2313 4219 1838 4219 
Q 1578 4219 1281 4162 
Q 984 4106 628 3988 
L 628 4550 
Q 988 4650 1302 4700 
Q 1616 4750 1894 4750 
Q 2613 4750 3031 4423 
Q 3450 4097 3450 3541 
Q 3450 3153 3228 2886 
Q 3006 2619 2597 2516 
z
" transform="scale(0.015625)"/>
       </defs>
       <use xlink:href="#DejaVuSans-32"/>
       <use xlink:href="#DejaVuSans-30" transform="translate(63.623047 0)"/>
       <use xlink:href="#DejaVuSans-32" transform="translate(127.246094 0)"/>
       <use xlink:href="#DejaVuSans-33" transform="translate(190.869141 0)"/>
       <use xlink:href="#DejaVuSans-2d" transform="translate(254.492188 0)"/>
       <use xlink:href="#DejaVuSans-30" transform="translate(290.576172 0)"/>
       <use xlink:href="#DejaVuSans-31" transform="translate(354.199219 0)"/>
      </g>
     </g>
    </g>
    <g id="xtick_5">
     <g id="line2d_9">
      <path d="M 432.004018 320.4 
L 432.004018 43.2 
" clip-path="url(#pf716d661f5)" style="fill: none; stroke-dasharray: 5.12,1.28,0.8,1.28; stroke-dashoffset: 0; stroke: #b0b0b0; stroke-width: 0.8"/>
     </g>
     <g id="line2d_10">
      <g>
       <use xlink:href="#m6ee261aa2c" x="432.004018" y="320.4" style="fill: #a9a9a9; stroke: #a9a9a9; stroke-width: 0.8"/>
      </g>
     </g>
     <g id="text_5">
      <!-- 2023-07 -->
      <g style="fill: #a9a9a9" transform="translate(411.112612 334.998438) scale(0.1 -0.1)">
       <use xlink:href="#DejaVuSans-32"/>
       <use xlink:href="#DejaVuSans-30" transform="translate(63.623047 0)"/>
       <use xlink:href="#DejaVuSans-32" transform="translate(127.246094 0)"/>
       <use xlink:href="#DejaVuSans-33" transform="translate(190.869141 0)"/>
       <use xlink:href="#DejaVuSans-2d" transform="translate(254.492188 0)"/>
       <use xlink:href="#DejaVuSans-30" transform="translate(290.576172 0)"/>
       <use xlink:href="#DejaVuSans-37" transform="translate(354.199219 0)"/>
      </g>
     </g>
    </g>
    <g id="xtick_6">
     <g id="line2d_11">
      <path d="M 508.40635 320.4 
L 508.40635 43.2 
" clip-path="url(#pf716d661f5)" style="fill: none; stroke-dasharray: 5.12,1.28,0.8,1.28; stroke-dashoffset: 0; stroke: #b0b0b0; stroke-width: 0.8"/>
     </g>
     <g id="line2d_12">
      <g>
       <use xlink:href="#m6ee261aa2c" x="508.40635" y="320.4" style="fill: #a9a9a9; stroke: #a9a9a9; stroke-width: 0.8"/>
      </g>
     </g>
     <g id="text_6">
      <!-- 2024-01 -->
      <g style="fill: #a9a9a9" transform="translate(487.514944 334.998438) scale(0.1 -0.1)">
       <defs>
        <path id="DejaVuSans-34" d="M 2419 4116 
L 825 1625 
L 2419 1625 
L 2419 4116 
z
M 2253 4666 
L 3047 4666 
L 3047 1625 
L 3713 1625 
L 3713 1100 
L 3047 1100 
L 3047 0 
L 2419 0 
L 2419 1100 
L 313 1100 
L 313 1709 
L 2253 4666 
z
" transform="scale(0.015625)"/>
       </defs>
       <use xlink:href="#DejaVuSans-32"/>
       <use xlink:href="#DejaVuSans-30" transform="translate(63.623047 0)"/>
       <use xlink:href="#DejaVuSans-32" transform="translate(127.246094 0)"/>
       <use xlink:href="#DejaVuSans-34" transform="translate(190.869141 0)"/>
       <use xlink:href="#DejaVuSans-2d" transform="translate(254.492188 0)"/>
       <use xlink:href="#DejaVuSans-30" transform="translate(290.576172 0)"/>
       <use xlink:href="#DejaVuSans-31" transform="translate(354.199219 0)"/>
      </g>
     </g>
    </g>
    <g id="xtick_7">
     <g id="line2d_13">
      <path d="M 583.978222 320.4 
L 583.978222 43.2 
" clip-path="url(#pf716d661f5)" style="fill: none; stroke-dasharray: 5.12,1.28,0.8,1.28; stroke-dashoffset: 0; stroke: #b0b0b0; stroke-width: 0.8"/>
     </g>
     <g id="line2d_14">
      <g>
       <use xlink:href="#m6ee261aa2c" x="583.978222" y="320.4" style="fill: #a9a9a9; stroke: #a9a9a9; stroke-width: 0.8"/>
      </g>
     </g>
     <g id="text_7">
      <!-- 2024-07 -->
      <g style="fill: #a9a9a9" transform="translate(563.086815 334.998438) scale(0.1 -0.1)">
       <use xlink:href="#DejaVuSans-32"/>
       <use xlink:href="#DejaVuSans-30" transform="translate(63.623047 0)"/>
       <use xlink:href="#DejaVuSans-32" transform="translate(127.246094 0)"/>
       <use xlink:href="#DejaVuSans-34" transform="translate(190.869141 0)"/>
       <use xlink:href="#DejaVuSans-2d" transform="translate(254.492188 0)"/>
       <use xlink:href="#DejaVuSans-30" transform="translate(290.576172 0)"/>
       <use xlink:href="#DejaVuSans-37" transform="translate(354.199219 0)"/>
      </g>
     </g>
    </g>
    <g id="xtick_8">
     <g id="line2d_15">
      <path d="M 660.380553 320.4 
L 660.380553 43.2 
" clip-path="url(#pf716d661f5)" style="fill: none; stroke-dasharray: 5.12,1.28,0.8,1.28; stroke-dashoffset: 0; stroke: #b0b0b0; stroke-width: 0.8"/>
     </g>
     <g id="line2d_16">
      <g>
       <use xlink:href="#m6ee261aa2c" x="660.380553" y="320.4" style="fill: #a9a9a9; stroke: #a9a9a9; stroke-width: 0.8"/>
      </g>
     </g>
     <g id="text_8">
      <!-- 2025-01 -->
      <g style="fill: #a9a9a9" transform="translate(639.489147 334.998438) scale(0.1 -0.1)">
       <defs>
        <path id="DejaVuSans-35" d="M 691 4666 
L 3169 4666 
L 3169 4134 
L 1269 4134 
L 1269 2991 
Q 1406 3038 1543 3061 
Q 1681 3084 1819 3084 
Q 2600 3084 3056 2656 
Q 3513 2228 3513 1497 
Q 3513 744 3044 326 
Q 2575 -91 1722 -91 
Q 1428 -91 1123 -41 
Q 819 9 494 109 
L 494 744 
Q 775 591 1075 516 
Q 1375 441 1709 441 
Q 2250 441 2565 725 
Q 2881 1009 2881 1497 
Q 2881 1984 2565 2268 
Q 2250 2553 1709 2553 
Q 1456 2553 1204 2497 
Q 953 2441 691 2322 
L 691 4666 
z
" transform="scale(0.015625)"/>
       </defs>
       <use xlink:href="#DejaVuSans-32"/>
       <use xlink:href="#DejaVuSans-30" transform="translate(63.623047 0)"/>
       <use xlink:href="#DejaVuSans-32" transform="translate(127.246094 0)"/>
       <use xlink:href="#DejaVuSans-35" transform="translate(190.869141 0)"/>
       <use xlink:href="#DejaVuSans-2d" transform="translate(254.492188 0)"/>
       <use xlink:href="#DejaVuSans-30" transform="translate(290.576172 0)"/>
       <use xlink:href="#DejaVuSans-31" transform="translate(354.199219 0)"/>
      </g>
     </g>
    </g>
    <g id="xtick_9">
     <g id="line2d_17">
      <path d="M 735.537195 320.4 
L 735.537195 43.2 
" clip-path="url(#pf716d661f5)" style="fill: none; stroke-dasharray: 5.12,1.28,0.8,1.28; stroke-dashoffset: 0; stroke: #b0b0b0; stroke-width: 0.8"/>
     </g>
     <g id="line2d_18">
      <g>
       <use xlink:href="#m6ee261aa2c" x="735.537195" y="320.4" style="fill: #a9a9a9; stroke: #a9a9a9; stroke-width: 0.8"/>
      </g>
     </g>
     <g id="text_9">
      <!-- 2025-07 -->
      <g style="fill: #a9a9a9" transform="translate(714.645788 334.998438) scale(0.1 -0.1)">
       <use xlink:href="#DejaVuSans-32"/>
       <use xlink:href="#DejaVuSans-30" transform="translate(63.623047 0)"/>
       <use xlink:href="#DejaVuSans-32" transform="translate(127.246094 0)"/>
       <use xlink:href="#DejaVuSans-35" transform="translate(190.869141 0)"/>
       <use xlink:href="#DejaVuSans-2d" transform="translate(254.492188 0)"/>
       <use xlink:href="#DejaVuSans-30" transform="translate(290.576172 0)"/>
       <use xlink:href="#DejaVuSans-37" transform="translate(354.199219 0)"/>
      </g>
     </g>
    </g>
   </g>
   <g id="matplotlib.axis_2">
    <g id="ytick_1">
     <g id="line2d_19">
      <path d="M 108 307.831758 
L 777.6 307.831758 
" clip-path="url(#pf716d661f5)" style="fill: none; stroke-dasharray: 5.12,1.28,0.8,1.28; stroke-dashoffset: 0; stroke: #b0b0b0; stroke-width: 0.8"/>
     </g>
     <g id="line2d_20">
      <defs>
       <path id="m7cd347250d" d="M 0 0 
L -3.5 0 
" style="stroke: #a9a9a9; stroke-width: 0.8"/>
      </defs>
      <g>
       <use xlink:href="#m7cd347250d" x="108" y="307.831758" style="fill: #a9a9a9; stroke: #a9a9a9; stroke-width: 0.8"/>
      </g>
     </g>
     <g id="text_10">
      <!-- 0 -->
      <g style="fill: #a9a9a9" transform="translate(94.6375 311.630977) scale(0.1 -0.1)">
       <use xlink:href="#DejaVuSans-30"/>
      </g>
     </g>
    </g>
    <g id="ytick_2">
     <g id="line2d_21">
      <path d="M 108 276.073724 
L 777.6 276.073724 
" clip-path="url(#pf716d661f5)" style="fill: none; stroke-dasharray: 5.12,1.28,0.8,1.28; stroke-dashoffset: 0; stroke: #b0b0b0; stroke-width: 0.8"/>
     </g>
     <g id="line2d_22">
      <g>
       <use xlink:href="#m7cd347250d" x="108" y="276.073724" style="fill: #a9a9a9; stroke: #a9a9a9; stroke-width: 0.8"/>
      </g>
     </g>
     <g id="text_11">
      <!-- 1000 -->
      <g style="fill: #a9a9a9" transform="translate(75.55 279.872943) scale(0.1 -0.1)">
       <use xlink:href="#DejaVuSans-31"/>
       <use xlink:href="#DejaVuSans-30" transform="translate(63.623047 0)"/>
       <use xlink:href="#DejaVuSans-30" transform="translate(127.246094 0)"/>
       <use xlink:href="#DejaVuSans-30" transform="translate(190.869141 0)"/>
      </g>
     </g>
    </g>
    <g id="ytick_3">
     <g id="line2d_23">
      <path d="M 108 244.31569 
L 777.6 244.31569 
" clip-path="url(#pf716d661f5)" style="fill: none; stroke-dasharray: 5.12,1.28,0.8,1.28; stroke-dashoffset: 0; stroke: #b0b0b0; stroke-width: 0.8"/>
     </g>
     <g id="line2d_24">
      <g>
       <use xlink:href="#m7cd347250d" x="108" y="244.31569" style="fill: #a9a9a9; stroke: #a9a9a9; stroke-width: 0.8"/>
      </g>
     </g>
     <g id="text_12">
      <!-- 2000 -->
      <g style="fill: #a9a9a9" transform="translate(75.55 248.114909) scale(0.1 -0.1)">
       <use xlink:href="#DejaVuSans-32"/>
       <use xlink:href="#DejaVuSans-30" transform="translate(63.623047 0)"/>
       <use xlink:href="#DejaVuSans-30" transform="translate(127.246094 0)"/>
       <use xlink:href="#DejaVuSans-30" transform="translate(190.869141 0)"/>
      </g>
     </g>
    </g>
    <g id="ytick_4">
     <g id="line2d_25">
      <path d="M 108 212.557656 
L 777.6 212.557656 
" clip-path="url(#pf716d661f5)" style="fill: none; stroke-dasharray: 5.12,1.28,0.8,1.28; stroke-dashoffset: 0; stroke: #b0b0b0; stroke-width: 0.8"/>
     </g>
     <g id="line2d_26">
      <g>
       <use xlink:href="#m7cd347250d" x="108" y="212.557656" style="fill: #a9a9a9; stroke: #a9a9a9; stroke-width: 0.8"/>
      </g>
     </g>
     <g id="text_13">
      <!-- 3000 -->
      <g style="fill: #a9a9a9" transform="translate(75.55 216.356875) scale(0.1 -0.1)">
       <use xlink:href="#DejaVuSans-33"/>
       <use xlink:href="#DejaVuSans-30" transform="translate(63.623047 0)"/>
       <use xlink:href="#DejaVuSans-30" transform="translate(127.246094 0)"/>
       <use xlink:href="#DejaVuSans-30" transform="translate(190.869141 0)"/>
      </g>
     </g>
    </g>
    <g id="ytick_5">
     <g id="line2d_27">
      <path d="M 108 180.799622 
L 777.6 180.799622 
" clip-path="url(#pf716d661f5)" style="fill: none; stroke-dasharray: 5.12,1.28,0.8,1.28; stroke-dashoffset: 0; stroke: #b0b0b0; stroke-width: 0.8"/>
     </g>
     <g id="line2d_28">
      <g>
       <use xlink:href="#m7cd347250d" x="108" y="180.799622" style="fill: #a9a9a9; stroke: #a9a9a9; stroke-width: 0.8"/>
      </g>
     </g>
     <g id="text_14">
      <!-- 4000 -->
      <g style="fill: #a9a9a9" transform="translate(75.55 184.598841) scale(0.1 -0.1)">
       <use xlink:href="#DejaVuSans-34"/>
       <use xlink:href="#DejaVuSans-30" transform="translate(63.623047 0)"/>
       <use xlink:href="#DejaVuSans-30" transform="translate(127.246094 0)"/>
       <use xlink:href="#DejaVuSans-30" transform="translate(190.869141 0)"/>
      </g>
     </g>
    </g>
    <g id="ytick_6">
     <g id="line2d_29">
      <path d="M 108 149.041588 
L 777.6 149.041588 
" clip-path="url(#pf716d661f5)" style="fill: none; stroke-dasharray: 5.12,1.28,0.8,1.28; stroke-dashoffset: 0; stroke: #b0b0b0; stroke-width: 0.8"/>
     </g>
     <g id="line2d_30">
      <g>
       <use xlink:href="#m7cd347250d" x="108" y="149.041588" style="fill: #a9a9a9; stroke: #a9a9a9; stroke-width: 0.8"/>
      </g>
     </g>
     <g id="text_15">
      <!-- 5000 -->
      <g style="fill: #a9a9a9" transform="translate(75.55 152.840807) scale(0.1 -0.1)">
       <use xlink:href="#DejaVuSans-35"/>
       <use xlink:href="#DejaVuSans-30" transform="translate(63.623047 0)"/>
       <use xlink:href="#DejaVuSans-30" transform="translate(127.246094 0)"/>
       <use xlink:href="#DejaVuSans-30" transform="translate(190.869141 0)"/>
      </g>
     </g>
    </g>
    <g id="ytick_7">
     <g id="line2d_31">
      <path d="M 108 117.283554 
L 777.6 117.283554 
" clip-path="url(#pf716d661f5)" style="fill: none; stroke-dasharray: 5.12,1.28,0.8,1.28; stroke-dashoffset: 0; stroke: #b0b0b0; stroke-width: 0.8"/>
     </g>
     <g id="line2d_32">
      <g>
       <use xlink:href="#m7cd347250d" x="108" y="117.283554" style="fill: #a9a9a9; stroke: #a9a9a9; stroke-width: 0.8"/>
      </g>
     </g>
     <g id="text_16">
      <!-- 6000 -->
      <g style="fill: #a9a9a9" transform="translate(75.55 121.082773) scale(0.1 -0.1)">
       <defs>
        <path id="DejaVuSans-36" d="M 2113 2584 
Q 1688 2584 1439 2293 
Q 1191 2003 1191 1497 
Q 1191 994 1439 701 
Q 1688 409 2113 409 
Q 2538 409 2786 701 
Q 3034 994 3034 1497 
Q 3034 2003 2786 2293 
Q 2538 2584 2113 2584 
z
M 3366 4563 
L 3366 3988 
Q 3128 4100 2886 4159 
Q 2644 4219 2406 4219 
Q 1781 4219 1451 3797 
Q 1122 3375 1075 2522 
Q 1259 2794 1537 2939 
Q 1816 3084 2150 3084 
Q 2853 3084 3261 2657 
Q 3669 2231 3669 1497 
Q 3669 778 3244 343 
Q 2819 -91 2113 -91 
Q 1303 -91 875 529 
Q 447 1150 447 2328 
Q 447 3434 972 4092 
Q 1497 4750 2381 4750 
Q 2619 4750 2861 4703 
Q 3103 4656 3366 4563 
z
" transform="scale(0.015625)"/>
       </defs>
       <use xlink:href="#DejaVuSans-36"/>
       <use xlink:href="#DejaVuSans-30" transform="translate(63.623047 0)"/>
       <use xlink:href="#DejaVuSans-30" transform="translate(127.246094 0)"/>
       <use xlink:href="#DejaVuSans-30" transform="translate(190.869141 0)"/>
      </g>
     </g>
    </g>
    <g id="ytick_8">
     <g id="line2d_33">
      <path d="M 108 85.52552 
L 777.6 85.52552 
" clip-path="url(#pf716d661f5)" style="fill: none; stroke-dasharray: 5.12,1.28,0.8,1.28; stroke-dashoffset: 0; stroke: #b0b0b0; stroke-width: 0.8"/>
     </g>
     <g id="line2d_34">
      <g>
       <use xlink:href="#m7cd347250d" x="108" y="85.52552" style="fill: #a9a9a9; stroke: #a9a9a9; stroke-width: 0.8"/>
      </g>
     </g>
     <g id="text_17">
      <!-- 7000 -->
      <g style="fill: #a9a9a9" transform="translate(75.55 89.324739) scale(0.1 -0.1)">
       <use xlink:href="#DejaVuSans-37"/>
       <use xlink:href="#DejaVuSans-30" transform="translate(63.623047 0)"/>
       <use xlink:href="#DejaVuSans-30" transform="translate(127.246094 0)"/>
       <use xlink:href="#DejaVuSans-30" transform="translate(190.869141 0)"/>
      </g>
     </g>
    </g>
    <g id="ytick_9">
     <g id="line2d_35">
      <path d="M 108 53.767486 
L 777.6 53.767486 
" clip-path="url(#pf716d661f5)" style="fill: none; stroke-dasharray: 5.12,1.28,0.8,1.28; stroke-dashoffset: 0; stroke: #b0b0b0; stroke-width: 0.8"/>
     </g>
     <g id="line2d_36">
      <g>
       <use xlink:href="#m7cd347250d" x="108" y="53.767486" style="fill: #a9a9a9; stroke: #a9a9a9; stroke-width: 0.8"/>
      </g>
     </g>
     <g id="text_18">
      <!-- 8000 -->
      <g style="fill: #a9a9a9" transform="translate(75.55 57.566705) scale(0.1 -0.1)">
       <defs>
        <path id="DejaVuSans-38" d="M 2034 2216 
Q 1584 2216 1326 1975 
Q 1069 1734 1069 1313 
Q 1069 891 1326 650 
Q 1584 409 2034 409 
Q 2484 409 2743 651 
Q 3003 894 3003 1313 
Q 3003 1734 2745 1975 
Q 2488 2216 2034 2216 
z
M 1403 2484 
Q 997 2584 770 2862 
Q 544 3141 544 3541 
Q 544 4100 942 4425 
Q 1341 4750 2034 4750 
Q 2731 4750 3128 4425 
Q 3525 4100 3525 3541 
Q 3525 3141 3298 2862 
Q 3072 2584 2669 2484 
Q 3125 2378 3379 2068 
Q 3634 1759 3634 1313 
Q 3634 634 3220 271 
Q 2806 -91 2034 -91 
Q 1263 -91 848 271 
Q 434 634 434 1313 
Q 434 1759 690 2068 
Q 947 2378 1403 2484 
z
M 1172 3481 
Q 1172 3119 1398 2916 
Q 1625 2713 2034 2713 
Q 2441 2713 2670 2916 
Q 2900 3119 2900 3481 
Q 2900 3844 2670 4047 
Q 2441 4250 2034 4250 
Q 1625 4250 1398 4047 
Q 1172 3844 1172 3481 
z
" transform="scale(0.015625)"/>
       </defs>
       <use xlink:href="#DejaVuSans-38"/>
       <use xlink:href="#DejaVuSans-30" transform="translate(63.623047 0)"/>
       <use xlink:href="#DejaVuSans-30" transform="translate(127.246094 0)"/>
       <use xlink:href="#DejaVuSans-30" transform="translate(190.869141 0)"/>
      </g>
     </g>
    </g>
   </g>
   <g id="line2d_37">
    <path d="M 138.436364 307.736484 
L 140.927744 307.514178 
L 141.342974 307.323629 
L 143.003894 307.101323 
L 144.664815 306.751985 
L 145.495275 306.624953 
L 147.571425 306.434405 
L 148.401885 306.085066 
L 148.817115 305.513422 
L 149.232345 305.227599 
L 149.647575 304.274858 
L 150.062805 304.211342 
L 150.478035 303.862004 
L 151.308496 303.417391 
L 152.969416 302.020038 
L 154.630336 301.162571 
L 155.876026 300.559168 
L 156.291256 299.860491 
L 157.121716 299.225331 
L 157.536947 299.034783 
L 161.689247 298.399622 
L 162.104477 298.209074 
L 165.011088 297.955009 
L 166.672008 297.542155 
L 169.993848 297.065784 
L 170.409079 296.843478 
L 170.824309 296.779962 
L 171.654769 296.49414 
L 174.561379 295.986011 
L 175.391839 295.731947 
L 179.12891 295.096786 
L 179.95937 294.906238 
L 180.78983 294.87448 
L 182.45075 294.461626 
L 182.86598 293.858223 
L 184.111671 293.350095 
L 185.357361 293.000756 
L 185.772591 292.77845 
L 186.603051 292.61966 
L 188.263971 292.111531 
L 189.094431 292.048015 
L 189.924891 291.825709 
L 191.585812 291.381096 
L 192.001042 291.349338 
L 192.831502 290.936484 
L 193.246732 290.872968 
L 193.661962 290.650662 
L 198.229493 289.856711 
L 199.890413 289.348582 
L 200.305643 289.06276 
L 202.381793 288.364083 
L 203.212254 287.760681 
L 204.457944 287.506616 
L 209.855935 285.918715 
L 210.271165 285.855198 
L 211.932085 285.18828 
L 212.347315 285.124764 
L 213.177775 284.775425 
L 214.008235 284.743667 
L 215.253925 284.362571 
L 215.669155 284.362571 
L 216.084385 284.172023 
L 216.914846 284.076749 
L 217.330076 283.917958 
L 218.990996 283.854442 
L 219.821456 283.695652 
L 220.651916 283.25104 
L 221.897606 282.774669 
L 222.728066 282.330057 
L 223.558527 281.885444 
L 224.388987 281.599622 
L 224.804217 281.47259 
L 225.634677 280.932703 
L 226.049907 280.456333 
L 226.880367 279.122495 
L 227.295597 278.995463 
L 227.710827 278.995463 
L 229.371747 278.042722 
L 229.786978 277.947448 
L 230.202208 277.534594 
L 231.032668 277.185255 
L 231.863128 276.804159 
L 232.278358 276.29603 
L 232.693588 275.597353 
L 233.108818 275.311531 
L 233.524048 274.549338 
L 233.939278 274.072968 
L 236.430659 272.675614 
L 238.091579 271.151229 
L 238.506809 270.16673 
L 238.922039 269.531569 
L 239.337269 269.182231 
L 239.752499 268.991682 
L 243.07434 265.847637 
L 243.9048 265.053686 
L 246.39618 263.434026 
L 246.81141 263.275236 
L 248.47233 262.258979 
L 248.88756 262.068431 
L 250.963711 260.099433 
L 251.794171 259.750095 
L 252.624631 259.146692 
L 253.039861 258.892628 
L 253.455091 258.829112 
L 254.700781 258.098677 
L 255.116011 257.622306 
L 257.192162 256.447259 
L 257.607392 256.288469 
L 258.853082 255.399244 
L 265.081533 253.112665 
L 265.911993 252.318715 
L 267.157683 251.683554 
L 267.988143 251.143667 
L 268.818603 250.889603 
L 269.233834 250.603781 
L 269.649064 250.476749 
L 270.894754 249.619282 
L 272.970904 249.142911 
L 274.216594 248.380718 
L 275.462285 248.094896 
L 275.877515 247.999622 
L 277.123205 247.046881 
L 278.784125 246.57051 
L 279.199355 246.221172 
L 281.690735 245.331947 
L 282.521196 245.173157 
L 283.351656 244.823819 
L 286.258266 243.712287 
L 287.088726 243.617013 
L 288.334416 243.172401 
L 290.410567 242.124386 
L 292.901947 240.695274 
L 293.732407 240.472968 
L 294.978097 239.837807 
L 295.808558 239.679017 
L 296.639018 239.170888 
L 297.469478 238.948582 
L 298.715168 238.440454 
L 300.376088 238.218147 
L 301.206548 237.773535 
L 301.621778 237.392439 
L 302.037009 236.630246 
L 303.697929 236.153875 
L 304.943619 235.486957 
L 305.774079 235.201134 
L 307.019769 234.565974 
L 309.09592 233.708507 
L 309.92638 233.517958 
L 311.17207 232.882798 
L 311.5873 232.819282 
L 313.66345 231.771267 
L 314.49391 231.23138 
L 315.739601 230.977316 
L 317.815751 230.437429 
L 318.230981 230.088091 
L 319.061441 229.802268 
L 321.137591 228.944802 
L 321.552822 228.627221 
L 321.968052 228.468431 
L 322.798512 227.99206 
L 324.459432 227.452174 
L 325.289892 226.912287 
L 325.705122 226.467675 
L 326.120352 226.213611 
L 326.535582 226.118336 
L 327.366042 225.41966 
L 327.781272 225.356144 
L 328.196503 224.657467 
L 328.611733 224.466919 
L 329.026963 224.11758 
L 329.442193 224.054064 
L 330.272653 223.514178 
L 331.103113 223.228355 
L 331.518343 222.910775 
L 331.933573 222.751985 
L 333.594493 221.608696 
L 334.840184 220.973535 
L 335.670644 220.751229 
L 336.501104 220.274858 
L 336.916334 219.544423 
L 337.746794 218.909263 
L 338.162024 218.813989 
L 340.653404 217.575425 
L 341.483865 217.226087 
L 342.314325 216.622684 
L 343.560015 215.447637 
L 344.390475 214.939509 
L 344.805705 214.463138 
L 346.466625 213.288091 
L 347.297085 212.430624 
L 348.127546 212.144802 
L 348.958006 211.573157 
L 350.203696 210.906238 
L 350.618926 210.842722 
L 351.864616 210.144045 
L 352.695076 209.604159 
L 356.847377 208.016257 
L 357.262607 207.666919 
L 358.923527 207 
L 359.338757 206.872968 
L 360.169217 206.333081 
L 360.999678 205.983743 
L 361.830138 205.38034 
L 362.660598 203.665406 
L 363.491058 202.649149 
L 364.736748 201.982231 
L 365.567208 201.632892 
L 365.982438 201.569376 
L 366.812898 201.18828 
L 368.473819 200.616635 
L 369.304279 200.140265 
L 370.134739 199.72741 
L 370.549969 199.600378 
L 373.041349 198.075992 
L 373.456579 197.599622 
L 374.70227 196.869187 
L 375.1175 196.710397 
L 375.94796 196.202268 
L 377.60888 195.281285 
L 378.02411 195.186011 
L 378.43934 194.836673 
L 381.345951 193.852174 
L 381.761181 193.534594 
L 382.591641 193.280529 
L 383.422101 192.931191 
L 383.837331 192.581853 
L 385.498251 191.97845 
L 386.328711 191.375047 
L 387.159172 191.025709 
L 387.989632 190.35879 
L 388.820092 190.104726 
L 389.235322 189.723629 
L 389.650552 189.660113 
L 390.481012 188.993195 
L 392.557162 187.754631 
L 393.387622 187.500567 
L 393.802853 187.246503 
L 394.218083 187.182987 
L 395.463773 186.48431 
L 401.692224 184.515312 
L 402.937914 183.594329 
L 403.353144 183.435539 
L 404.183604 182.959168 
L 404.598834 182.832136 
L 407.090215 181.403025 
L 407.505445 181.30775 
L 408.751135 180.545558 
L 409.996825 180.100945 
L 410.827285 179.815123 
L 412.488205 179.243478 
L 413.318666 178.957656 
L 414.979586 178.608318 
L 415.394816 178.417769 
L 416.225276 178.195463 
L 416.640506 178.004915 
L 417.055736 177.941399 
L 417.470966 177.719093 
L 418.301426 177.560302 
L 419.547116 177.083932 
L 420.792807 176.893384 
L 423.284187 176.417013 
L 424.529877 176.131191 
L 424.945107 175.940643 
L 425.775567 175.781853 
L 426.606028 175.559546 
L 427.436488 175.17845 
L 427.851718 175.01966 
L 428.266948 175.01966 
L 432.834478 173.590548 
L 433.249709 173.368242 
L 433.664939 173.368242 
L 434.495399 173.050662 
L 434.910629 172.606049 
L 437.402009 171.558034 
L 439.062929 170.986389 
L 439.478159 170.732325 
L 440.72385 170.351229 
L 441.55431 170.128922 
L 441.96954 169.8431 
L 442.38477 169.747826 
L 442.8 169.36673 
L 444.04569 169.112665 
L 444.87615 168.731569 
L 445.29138 168.22344 
L 449.858911 167.207183 
L 450.274141 167.207183 
L 450.689371 167.016635 
L 452.350291 166.699055 
L 452.765522 166.508507 
L 454.426442 166.190926 
L 455.256902 165.841588 
L 456.087362 165.682798 
L 458.163512 165.142911 
L 459.824433 164.603025 
L 460.239663 164.50775 
L 460.654893 164.285444 
L 461.485353 164.063138 
L 462.315813 163.7138 
L 463.146273 163.396219 
L 463.561503 163.110397 
L 464.391963 162.856333 
L 467.298574 161.744802 
L 468.959494 161.554253 
L 472.281334 160.31569 
L 472.696565 159.99811 
L 473.111795 159.902836 
L 473.527025 159.680529 
L 473.942255 159.648771 
L 478.509785 157.965595 
L 480.585936 157.393951 
L 481.416396 156.981096 
L 482.662086 156.695274 
L 484.323006 155.297921 
L 485.983927 154.567486 
L 486.814387 154.186389 
L 489.305767 153.20189 
L 489.720997 152.916068 
L 491.797147 152.217391 
L 495.949448 150.089603 
L 496.779908 149.708507 
L 497.195138 149.390926 
L 498.025598 149.105104 
L 500.101749 148.025331 
L 501.347439 147.580718 
L 503.008359 146.9138 
L 504.254049 146.437429 
L 504.669279 146.278639 
L 505.49974 146.151607 
L 505.91497 145.865784 
L 507.57589 145.548204 
L 508.40635 145.198866 
L 510.06727 144.404915 
L 515.880491 141.800756 
L 517.126181 141.387902 
L 517.541411 141.102079 
L 518.371872 141.006805 
L 518.787102 140.720983 
L 519.617562 140.593951 
L 520.448022 140.181096 
L 520.863252 139.990548 
L 521.693712 139.768242 
L 522.524172 139.514178 
L 523.769862 139.037807 
L 525.015553 138.624953 
L 526.261243 138.33913 
L 527.922163 137.640454 
L 528.752623 137.195841 
L 530.413543 136.338374 
L 531.244003 136.147826 
L 531.659234 135.893762 
L 532.074464 135.798488 
L 533.320154 135.068053 
L 534.150614 134.718715 
L 539.548605 132.6862 
L 539.963835 132.622684 
L 541.624755 131.828733 
L 542.455215 131.669943 
L 543.285675 131.193573 
L 544.946596 130.399622 
L 549.098896 128.748204 
L 549.929356 128.33535 
L 550.344586 128.240076 
L 550.759816 128.017769 
L 552.420737 127.541399 
L 554.081657 126.144045 
L 554.496887 126.017013 
L 554.912117 125.762949 
L 556.157807 125.413611 
L 556.573037 125.09603 
L 556.988267 125.000756 
L 558.233958 124.238563 
L 558.649188 123.952741 
L 559.894878 123.476371 
L 560.310108 123.254064 
L 561.555798 122.968242 
L 563.631948 122.237807 
L 564.462409 121.983743 
L 565.708099 121.316824 
L 566.538559 120.90397 
L 567.369019 120.681664 
L 568.614709 120.078261 
L 572.76701 118.395085 
L 574.84316 117.378828 
L 575.67362 117.061248 
L 576.08885 116.680151 
L 576.91931 116.330813 
L 578.165001 115.8862 
L 578.580231 115.536862 
L 578.995461 115.505104 
L 579.825921 115.25104 
L 580.656381 114.965217 
L 581.071611 114.774669 
L 581.486841 114.711153 
L 582.317301 114.361815 
L 583.562991 114.075992 
L 584.393452 113.599622 
L 584.808682 113.440832 
L 585.223912 113.123251 
L 586.469602 112.805671 
L 586.884832 112.551607 
L 587.715292 112.329301 
L 588.960982 111.630624 
L 589.376212 111.598866 
L 590.621903 111.186011 
L 591.452363 111.122495 
L 591.867593 110.900189 
L 592.698053 110.677883 
L 593.113283 110.455577 
L 595.189433 110.042722 
L 596.019893 109.883932 
L 597.265584 109.407561 
L 598.511274 109.121739 
L 599.756964 108.45482 
L 600.172194 108.073724 
L 601.417884 107.311531 
L 601.833114 106.993951 
L 603.078804 106.581096 
L 603.909265 106.35879 
L 607.646335 104.707372 
L 609.307255 104.26276 
L 610.137715 103.881664 
L 610.552946 103.659357 
L 611.383406 103.405293 
L 611.798636 103.182987 
L 612.629096 103.024197 
L 615.950936 101.563327 
L 616.366166 101.499811 
L 617.611857 100.674102 
L 618.027087 100.610586 
L 619.688007 99.943667 
L 621.348927 99.530813 
L 621.764157 99.467297 
L 622.179387 99.276749 
L 622.594617 99.244991 
L 623.425078 98.959168 
L 623.840308 98.92741 
L 625.085998 98.45104 
L 626.746918 97.974669 
L 627.577378 97.339509 
L 629.238298 96.418526 
L 629.653528 96.323251 
L 630.068759 96.100945 
L 630.899219 95.815123 
L 631.314449 95.688091 
L 631.729679 95.338752 
L 632.975369 94.862382 
L 633.805829 94.386011 
L 634.221059 94.163705 
L 634.636289 93.782609 
L 636.71244 93.242722 
L 637.95813 92.671078 
L 638.78859 92.448771 
L 639.20382 92.226465 
L 639.61905 91.877127 
L 641.27997 91.432514 
L 641.6952 91.114934 
L 647.093191 89.114178 
L 647.923651 88.955388 
L 649.999802 88.288469 
L 650.830262 87.93913 
L 651.660722 87.62155 
L 652.491182 87.399244 
L 652.906412 87.208696 
L 653.321642 87.208696 
L 654.152102 86.859357 
L 654.982562 86.382987 
L 657.889173 85.398488 
L 659.550093 84.826843 
L 660.795783 84.541021 
L 662.041473 84.128166 
L 662.456703 84.032892 
L 662.871934 83.74707 
L 663.702394 83.556522 
L 665.363314 83.080151 
L 665.778544 83.048393 
L 666.609004 82.667297 
L 669.515615 81.936862 
L 670.346075 81.587524 
L 674.498375 80.634783 
L 675.744065 79.967864 
L 676.989756 79.586767 
L 679.896366 78.602268 
L 680.311596 78.379962 
L 680.726826 78.284688 
L 681.972516 77.649527 
L 682.802977 77.490737 
L 683.633437 77.236673 
L 684.463897 76.823819 
L 684.879127 76.47448 
L 685.709587 76.220416 
L 686.124817 75.966352 
L 686.955277 75.871078 
L 689.861888 75.045369 
L 691.107578 74.791304 
L 692.353268 74.473724 
L 693.183728 74.251418 
L 694.429418 73.616257 
L 696.090339 72.981096 
L 696.920799 72.536484 
L 697.336029 72.504726 
L 698.166489 72.091871 
L 701.073099 71.266163 
L 702.31879 71.075614 
L 703.14925 70.82155 
L 704.39494 70.440454 
L 708.13201 69.392439 
L 708.962471 69.170132 
L 709.377701 69.074858 
L 709.792931 68.820794 
L 710.623391 68.662004 
L 711.453851 68.56673 
L 711.869081 68.344423 
L 712.284311 68.312665 
L 713.530001 67.677505 
L 714.775691 67.391682 
L 715.606152 67.042344 
L 716.436612 66.756522 
L 717.267072 66.534216 
L 718.097532 66.184877 
L 718.927992 65.899055 
L 720.588912 65.422684 
L 721.419372 65.359168 
L 722.249833 65.073346 
L 722.665063 64.914556 
L 723.495523 64.787524 
L 725.156443 64.057089 
L 725.571673 63.993573 
L 725.986903 63.771267 
L 726.817363 63.612476 
L 727.647823 63.54896 
L 730.139204 62.9138 
L 730.969664 62.564461 
L 731.384894 62.500945 
L 731.800124 62.278639 
L 732.630584 61.579962 
L 738.028575 59.579206 
L 739.274265 59.293384 
L 739.689495 58.975803 
L 740.935185 58.435917 
L 741.765646 57.991304 
L 742.180876 57.89603 
L 742.596106 57.57845 
L 743.841796 57.229112 
L 744.257026 57.006805 
L 745.087486 56.720983 
L 745.917946 56.371645 
L 746.748406 55.8 
L 747.163636 55.8 
L 747.163636 55.8 
" clip-path="url(#pf716d661f5)" style="fill: none; stroke: #1f77b4; stroke-width: 1.5; stroke-linecap: square"/>
   </g>
   <g id="line2d_38">
    <path d="M 138.851594 307.8 
L 142.588664 307.704726 
L 145.910505 307.545936 
L 147.571425 307.545936 
L 147.986655 307.418904 
L 150.062805 307.323629 
L 152.554186 307.037807 
L 155.045566 306.942533 
L 155.876026 306.847259 
L 158.782637 306.720227 
L 161.689247 306.624953 
L 163.765397 306.561437 
L 169.163388 306.466163 
L 171.239539 306.402647 
L 174.976609 306.307372 
L 176.637529 306.275614 
L 180.78983 306.18034 
L 182.45075 306.02155 
L 184.111671 305.989792 
L 186.603051 305.894518 
L 188.263971 305.86276 
L 190.340122 305.799244 
L 192.001042 305.640454 
L 195.738112 305.54518 
L 196.568572 305.481664 
L 198.229493 305.386389 
L 200.720873 305.291115 
L 202.381793 305.195841 
L 209.855935 304.719471 
L 212.762545 304.624197 
L 214.008235 304.497164 
L 216.084385 304.40189 
L 220.236686 304.179584 
L 224.388987 304.116068 
L 226.049907 303.92552 
L 228.126057 303.830246 
L 232.278358 303.417391 
L 234.769738 303.099811 
L 236.430659 303.036295 
L 239.752499 302.591682 
L 242.243879 302.528166 
L 243.48957 302.401134 
L 244.73526 302.30586 
L 256.361702 301.384877 
L 257.192162 301.226087 
L 259.683542 301.130813 
L 266.327223 300.717958 
L 269.233834 300.622684 
L 270.894754 300.432136 
L 272.970904 300.336862 
L 275.462285 300.241588 
L 277.538435 300.146314 
L 279.199355 300.114556 
L 281.275505 300.05104 
L 282.105966 299.924008 
L 287.919186 299.828733 
L 288.749647 299.733459 
L 293.732407 299.638185 
L 297.469478 299.447637 
L 300.376088 299.352363 
L 302.037009 299.161815 
L 304.943619 299.066541 
L 305.774079 298.939509 
L 307.850229 298.875992 
L 312.00253 298.812476 
L 313.66345 298.653686 
L 315.324371 298.621928 
L 316.570061 298.526654 
L 318.230981 298.367864 
L 322.383282 298.145558 
L 326.535582 298.050284 
L 330.272653 297.859735 
L 331.518343 297.827977 
L 332.348803 297.700945 
L 334.424953 297.605671 
L 335.255414 297.542155 
L 336.085874 297.478639 
L 336.916334 297.415123 
L 341.068635 297.319849 
L 350.203696 296.716446 
L 351.034156 296.65293 
L 352.279846 296.557656 
L 355.186457 296.462382 
L 357.262607 296.398866 
L 363.075828 296.303592 
L 363.906288 296.17656 
L 369.719509 296.081285 
L 373.87181 295.858979 
L 374.70227 295.827221 
L 375.53273 295.731947 
L 377.60888 295.636673 
L 379.68503 295.573157 
L 381.761181 295.477883 
L 383.837331 295.414367 
L 387.574402 295.319093 
L 390.065782 295.223819 
L 395.879003 295.128544 
L 400.446534 294.87448 
L 402.107454 294.810964 
L 403.353144 294.71569 
L 409.166365 294.620416 
L 411.657745 294.525142 
L 419.131886 294.429868 
L 420.792807 294.39811 
L 425.775567 294.334594 
L 426.606028 294.271078 
L 432.419248 294.175803 
L 434.080169 294.144045 
L 444.87615 294.048771 
L 447.367531 293.953497 
L 464.807193 293.858223 
L 466.883344 293.794707 
L 477.679325 293.731191 
L 478.509785 293.667675 
L 480.585936 293.604159 
L 481.831626 293.477127 
L 484.323006 293.381853 
L 487.229617 293.25482 
L 490.966687 293.159546 
L 493.042838 293.09603 
L 495.949448 293.000756 
L 499.271289 292.841966 
L 501.347439 292.746692 
L 503.008359 292.714934 
L 506.74543 292.61966 
L 508.40635 292.587902 
L 513.804341 292.492628 
L 515.465261 292.46087 
L 517.541411 292.365595 
L 520.032792 292.270321 
L 522.939402 292.206805 
L 523.769862 292.143289 
L 533.735384 292.048015 
L 537.887684 291.825709 
L 540.794295 291.730435 
L 545.361826 291.476371 
L 548.268436 291.381096 
L 549.929356 291.349338 
L 552.835967 291.254064 
L 554.912117 291.031758 
L 559.064418 290.936484 
L 559.894878 290.84121 
L 564.047178 290.745936 
L 566.123329 290.68242 
L 570.690859 290.650662 
L 571.52132 290.555388 
L 576.08885 290.460113 
L 576.91931 290.396597 
L 586.054372 290.301323 
L 588.545752 290.206049 
L 594.774203 290.110775 
L 596.435123 290.079017 
L 600.172194 290.015501 
L 601.002654 289.920227 
L 606.400645 289.824953 
L 608.476795 289.761437 
L 615.950936 289.666163 
L 617.196627 289.570888 
L 618.442317 289.475614 
L 619.688007 289.38034 
L 625.916458 289.285066 
L 628.407838 289.189792 
L 639.61905 289.094518 
L 643.356121 288.90397 
L 648.338881 288.808696 
L 649.169341 288.74518 
L 655.397792 288.681664 
L 656.228253 288.618147 
L 660.795783 288.522873 
L 662.456703 288.491115 
L 669.515615 288.395841 
L 670.346075 288.332325 
L 677.820216 288.237051 
L 679.481136 288.205293 
L 683.218207 288.110019 
L 686.540047 287.951229 
L 691.107578 287.855955 
L 694.014188 287.728922 
L 697.751259 287.633648 
L 698.581719 287.570132 
L 706.88632 287.474858 
L 708.962471 287.411342 
L 711.453851 287.316068 
L 713.945231 287.220794 
L 726.402133 287.12552 
L 729.308744 286.998488 
L 734.291504 286.903214 
L 735.952425 286.871456 
L 742.596106 286.776181 
L 743.841796 286.680907 
L 747.163636 286.585633 
L 747.163636 286.585633 
" clip-path="url(#pf716d661f5)" style="fill: none; stroke: #ff7f0e; stroke-width: 1.5; stroke-linecap: square"/>
   </g>
   <g id="patch_3">
    <path d="M 108 320.4 
L 108 43.2 
" style="fill: none; stroke: #a9a9a9; stroke-width: 0.8; stroke-linejoin: miter; stroke-linecap: square"/>
   </g>
   <g id="patch_4">
    <path d="M 777.6 320.4 
L 777.6 43.2 
" style="fill: none"/>
   </g>
   <g id="patch_5">
    <path d="M 108 320.4 
L 777.6 320.4 
" style="fill: none; stroke: #a9a9a9; stroke-width: 0.8; stroke-linejoin: miter; stroke-linecap: square"/>
   </g>
   <g id="patch_6">
    <path d="M 108 43.2 
L 777.6 43.2 
" style="fill: none"/>
   </g>
   <g id="text_19">
    <!-- get_subscribe history -->
    <g style="fill: #a9a9a9" transform="translate(378.6075 37.2) scale(0.12 -0.12)">
     <defs>
      <path id="DejaVuSans-67" d="M 2906 1791 
Q 2906 2416 2648 2759 
Q 2391 3103 1925 3103 
Q 1463 3103 1205 2759 
Q 947 2416 947 1791 
Q 947 1169 1205 825 
Q 1463 481 1925 481 
Q 2391 481 2648 825 
Q 2906 1169 2906 1791 
z
M 3481 434 
Q 3481 -459 3084 -895 
Q 2688 -1331 1869 -1331 
Q 1566 -1331 1297 -1286 
Q 1028 -1241 775 -1147 
L 775 -588 
Q 1028 -725 1275 -790 
Q 1522 -856 1778 -856 
Q 2344 -856 2625 -561 
Q 2906 -266 2906 331 
L 2906 616 
Q 2728 306 2450 153 
Q 2172 0 1784 0 
Q 1141 0 747 490 
Q 353 981 353 1791 
Q 353 2603 747 3093 
Q 1141 3584 1784 3584 
Q 2172 3584 2450 3431 
Q 2728 3278 2906 2969 
L 2906 3500 
L 3481 3500 
L 3481 434 
z
" transform="scale(0.015625)"/>
      <path id="DejaVuSans-65" d="M 3597 1894 
L 3597 1613 
L 953 1613 
Q 991 1019 1311 708 
Q 1631 397 2203 397 
Q 2534 397 2845 478 
Q 3156 559 3463 722 
L 3463 178 
Q 3153 47 2828 -22 
Q 2503 -91 2169 -91 
Q 1331 -91 842 396 
Q 353 884 353 1716 
Q 353 2575 817 3079 
Q 1281 3584 2069 3584 
Q 2775 3584 3186 3129 
Q 3597 2675 3597 1894 
z
M 3022 2063 
Q 3016 2534 2758 2815 
Q 2500 3097 2075 3097 
Q 1594 3097 1305 2825 
Q 1016 2553 972 2059 
L 3022 2063 
z
" transform="scale(0.015625)"/>
      <path id="DejaVuSans-74" d="M 1172 4494 
L 1172 3500 
L 2356 3500 
L 2356 3053 
L 1172 3053 
L 1172 1153 
Q 1172 725 1289 603 
Q 1406 481 1766 481 
L 2356 481 
L 2356 0 
L 1766 0 
Q 1100 0 847 248 
Q 594 497 594 1153 
L 594 3053 
L 172 3053 
L 172 3500 
L 594 3500 
L 594 4494 
L 1172 4494 
z
" transform="scale(0.015625)"/>
      <path id="DejaVuSans-5f" d="M 3263 -1063 
L 3263 -1509 
L -63 -1509 
L -63 -1063 
L 3263 -1063 
z
" transform="scale(0.015625)"/>
      <path id="DejaVuSans-73" d="M 2834 3397 
L 2834 2853 
Q 2591 2978 2328 3040 
Q 2066 3103 1784 3103 
Q 1356 3103 1142 2972 
Q 928 2841 928 2578 
Q 928 2378 1081 2264 
Q 1234 2150 1697 2047 
L 1894 2003 
Q 2506 1872 2764 1633 
Q 3022 1394 3022 966 
Q 3022 478 2636 193 
Q 2250 -91 1575 -91 
Q 1294 -91 989 -36 
Q 684 19 347 128 
L 347 722 
Q 666 556 975 473 
Q 1284 391 1588 391 
Q 1994 391 2212 530 
Q 2431 669 2431 922 
Q 2431 1156 2273 1281 
Q 2116 1406 1581 1522 
L 1381 1569 
Q 847 1681 609 1914 
Q 372 2147 372 2553 
Q 372 3047 722 3315 
Q 1072 3584 1716 3584 
Q 2034 3584 2315 3537 
Q 2597 3491 2834 3397 
z
" transform="scale(0.015625)"/>
      <path id="DejaVuSans-75" d="M 544 1381 
L 544 3500 
L 1119 3500 
L 1119 1403 
Q 1119 906 1312 657 
Q 1506 409 1894 409 
Q 2359 409 2629 706 
Q 2900 1003 2900 1516 
L 2900 3500 
L 3475 3500 
L 3475 0 
L 2900 0 
L 2900 538 
Q 2691 219 2414 64 
Q 2138 -91 1772 -91 
Q 1169 -91 856 284 
Q 544 659 544 1381 
z
M 1991 3584 
L 1991 3584 
z
" transform="scale(0.015625)"/>
      <path id="DejaVuSans-62" d="M 3116 1747 
Q 3116 2381 2855 2742 
Q 2594 3103 2138 3103 
Q 1681 3103 1420 2742 
Q 1159 2381 1159 1747 
Q 1159 1113 1420 752 
Q 1681 391 2138 391 
Q 2594 391 2855 752 
Q 3116 1113 3116 1747 
z
M 1159 2969 
Q 1341 3281 1617 3432 
Q 1894 3584 2278 3584 
Q 2916 3584 3314 3078 
Q 3713 2572 3713 1747 
Q 3713 922 3314 415 
Q 2916 -91 2278 -91 
Q 1894 -91 1617 61 
Q 1341 213 1159 525 
L 1159 0 
L 581 0 
L 581 4863 
L 1159 4863 
L 1159 2969 
z
" transform="scale(0.015625)"/>
      <path id="DejaVuSans-63" d="M 3122 3366 
L 3122 2828 
Q 2878 2963 2633 3030 
Q 2388 3097 2138 3097 
Q 1578 3097 1268 2742 
Q 959 2388 959 1747 
Q 959 1106 1268 751 
Q 1578 397 2138 397 
Q 2388 397 2633 464 
Q 2878 531 3122 666 
L 3122 134 
Q 2881 22 2623 -34 
Q 2366 -91 2075 -91 
Q 1284 -91 818 406 
Q 353 903 353 1747 
Q 353 2603 823 3093 
Q 1294 3584 2113 3584 
Q 2378 3584 2631 3529 
Q 2884 3475 3122 3366 
z
" transform="scale(0.015625)"/>
      <path id="DejaVuSans-72" d="M 2631 2963 
Q 2534 3019 2420 3045 
Q 2306 3072 2169 3072 
Q 1681 3072 1420 2755 
Q 1159 2438 1159 1844 
L 1159 0 
L 581 0 
L 581 3500 
L 1159 3500 
L 1159 2956 
Q 1341 3275 1631 3429 
Q 1922 3584 2338 3584 
Q 2397 3584 2469 3576 
Q 2541 3569 2628 3553 
L 2631 2963 
z
" transform="scale(0.015625)"/>
      <path id="DejaVuSans-69" d="M 603 3500 
L 1178 3500 
L 1178 0 
L 603 0 
L 603 3500 
z
M 603 4863 
L 1178 4863 
L 1178 4134 
L 603 4134 
L 603 4863 
z
" transform="scale(0.015625)"/>
      <path id="DejaVuSans-20" transform="scale(0.015625)"/>
      <path id="DejaVuSans-68" d="M 3513 2113 
L 3513 0 
L 2938 0 
L 2938 2094 
Q 2938 2591 2744 2837 
Q 2550 3084 2163 3084 
Q 1697 3084 1428 2787 
Q 1159 2491 1159 1978 
L 1159 0 
L 581 0 
L 581 4863 
L 1159 4863 
L 1159 2956 
Q 1366 3272 1645 3428 
Q 1925 3584 2291 3584 
Q 2894 3584 3203 3211 
Q 3513 2838 3513 2113 
z
" transform="scale(0.015625)"/>
      <path id="DejaVuSans-6f" d="M 1959 3097 
Q 1497 3097 1228 2736 
Q 959 2375 959 1747 
Q 959 1119 1226 758 
Q 1494 397 1959 397 
Q 2419 397 2687 759 
Q 2956 1122 2956 1747 
Q 2956 2369 2687 2733 
Q 2419 3097 1959 3097 
z
M 1959 3584 
Q 2709 3584 3137 3096 
Q 3566 2609 3566 1747 
Q 3566 888 3137 398 
Q 2709 -91 1959 -91 
Q 1206 -91 779 398 
Q 353 888 353 1747 
Q 353 2609 779 3096 
Q 1206 3584 1959 3584 
z
" transform="scale(0.015625)"/>
      <path id="DejaVuSans-79" d="M 2059 -325 
Q 1816 -950 1584 -1140 
Q 1353 -1331 966 -1331 
L 506 -1331 
L 506 -850 
L 844 -850 
Q 1081 -850 1212 -737 
Q 1344 -625 1503 -206 
L 1606 56 
L 191 3500 
L 800 3500 
L 1894 763 
L 2988 3500 
L 3597 3500 
L 2059 -325 
z
" transform="scale(0.015625)"/>
     </defs>
     <use xlink:href="#DejaVuSans-67"/>
     <use xlink:href="#DejaVuSans-65" transform="translate(63.476562 0)"/>
     <use xlink:href="#DejaVuSans-74" transform="translate(125 0)"/>
     <use xlink:href="#DejaVuSans-5f" transform="translate(164.208984 0)"/>
     <use xlink:href="#DejaVuSans-73" transform="translate(214.208984 0)"/>
     <use xlink:href="#DejaVuSans-75" transform="translate(266.308594 0)"/>
     <use xlink:href="#DejaVuSans-62" transform="translate(329.6875 0)"/>
     <use xlink:href="#DejaVuSans-73" transform="translate(393.164062 0)"/>
     <use xlink:href="#DejaVuSans-63" transform="translate(445.263672 0)"/>
     <use xlink:href="#DejaVuSans-72" transform="translate(500.244141 0)"/>
     <use xlink:href="#DejaVuSans-69" transform="translate(541.357422 0)"/>
     <use xlink:href="#DejaVuSans-62" transform="translate(569.140625 0)"/>
     <use xlink:href="#DejaVuSans-65" transform="translate(632.617188 0)"/>
     <use xlink:href="#DejaVuSans-20" transform="translate(694.140625 0)"/>
     <use xlink:href="#DejaVuSans-68" transform="translate(725.927734 0)"/>
     <use xlink:href="#DejaVuSans-69" transform="translate(789.306641 0)"/>
     <use xlink:href="#DejaVuSans-73" transform="translate(817.089844 0)"/>
     <use xlink:href="#DejaVuSans-74" transform="translate(869.189453 0)"/>
     <use xlink:href="#DejaVuSans-6f" transform="translate(908.398438 0)"/>
     <use xlink:href="#DejaVuSans-72" transform="translate(969.580078 0)"/>
     <use xlink:href="#DejaVuSans-79" transform="translate(1010.693359 0)"/>
    </g>
   </g>
   <g id="legend_1">
    <g id="line2d_39">
     <path d="M 815.08 328.498438 
L 825.08 328.498438 
L 835.08 328.498438 
" style="fill: none; stroke: #1f77b4; stroke-width: 1.5; stroke-linecap: square"/>
    </g>
    <g id="text_20">
     <!-- star -->
     <g style="fill: #a9a9a9" transform="translate(843.08 331.998438) scale(0.1 -0.1)">
      <defs>
       <path id="DejaVuSans-61" d="M 2194 1759 
Q 1497 1759 1228 1600 
Q 959 1441 959 1056 
Q 959 750 1161 570 
Q 1363 391 1709 391 
Q 2188 391 2477 730 
Q 2766 1069 2766 1631 
L 2766 1759 
L 2194 1759 
z
M 3341 1997 
L 3341 0 
L 2766 0 
L 2766 531 
Q 2569 213 2275 61 
Q 1981 -91 1556 -91 
Q 1019 -91 701 211 
Q 384 513 384 1019 
Q 384 1609 779 1909 
Q 1175 2209 1959 2209 
L 2766 2209 
L 2766 2266 
Q 2766 2663 2505 2880 
Q 2244 3097 1772 3097 
Q 1472 3097 1187 3025 
Q 903 2953 641 2809 
L 641 3341 
Q 956 3463 1253 3523 
Q 1550 3584 1831 3584 
Q 2591 3584 2966 3190 
Q 3341 2797 3341 1997 
z
" transform="scale(0.015625)"/>
      </defs>
      <use xlink:href="#DejaVuSans-73"/>
      <use xlink:href="#DejaVuSans-74" transform="translate(52.099609 0)"/>
      <use xlink:href="#DejaVuSans-61" transform="translate(91.308594 0)"/>
      <use xlink:href="#DejaVuSans-72" transform="translate(152.587891 0)"/>
     </g>
    </g>
    <g id="line2d_40">
     <path d="M 815.08 343.176562 
L 825.08 343.176562 
L 835.08 343.176562 
" style="fill: none; stroke: #ff7f0e; stroke-width: 1.5; stroke-linecap: square"/>
    </g>
    <g id="text_21">
     <!-- fork -->
     <g style="fill: #a9a9a9" transform="translate(843.08 346.676562) scale(0.1 -0.1)">
      <defs>
       <path id="DejaVuSans-66" d="M 2375 4863 
L 2375 4384 
L 1825 4384 
Q 1516 4384 1395 4259 
Q 1275 4134 1275 3809 
L 1275 3500 
L 2222 3500 
L 2222 3053 
L 1275 3053 
L 1275 0 
L 697 0 
L 697 3053 
L 147 3053 
L 147 3500 
L 697 3500 
L 697 3744 
Q 697 4328 969 4595 
Q 1241 4863 1831 4863 
L 2375 4863 
z
" transform="scale(0.015625)"/>
       <path id="DejaVuSans-6b" d="M 581 4863 
L 1159 4863 
L 1159 1991 
L 2875 3500 
L 3609 3500 
L 1753 1863 
L 3688 0 
L 2938 0 
L 1159 1709 
L 1159 0 
L 581 0 
L 581 4863 
z
" transform="scale(0.015625)"/>
      </defs>
      <use xlink:href="#DejaVuSans-66"/>
      <use xlink:href="#DejaVuSans-6f" transform="translate(35.205078 0)"/>
      <use xlink:href="#DejaVuSans-72" transform="translate(96.386719 0)"/>
      <use xlink:href="#DejaVuSans-6b" transform="translate(137.5 0)"/>
     </g>
    </g>
   </g>
  </g>
 </g>
 <defs>
  <clipPath id="pf716d661f5">
   <rect x="108" y="43.2" width="669.6" height="277.2"/>
  </clipPath>
 </defs>
</svg>
