<?xml version="1.0" encoding="utf-8" standalone="no"?>
<!DOCTYPE svg PUBLIC "-//W3C//DTD SVG 1.1//EN"
  "http://www.w3.org/Graphics/SVG/1.1/DTD/svg11.dtd">
<svg xmlns:xlink="http://www.w3.org/1999/xlink" width="864pt" height="360pt" viewBox="0 0 864 360" xmlns="http://www.w3.org/2000/svg" version="1.1">
 <metadata>
  <rdf:RDF xmlns:dc="http://purl.org/dc/elements/1.1/" xmlns:cc="http://creativecommons.org/ns#" xmlns:rdf="http://www.w3.org/1999/02/22-rdf-syntax-ns#">
   <cc:Work>
    <dc:type rdf:resource="http://purl.org/dc/dcmitype/StillImage"/>
    <dc:date>2026-04-24T08:33:16.270722</dc:date>
    <dc:format>image/svg+xml</dc:format>
    <dc:creator>
     <cc:Agent>
      <dc:title>Matplotlib v3.10.9, https://matplotlib.org/</dc:title>
     </cc:Agent>
    </dc:creator>
   </cc:Work>
  </rdf:RDF>
 </metadata>
 <defs>
  <style type="text/css">*{stroke-linejoin: round; stroke-linecap: butt}</style>
 </defs>
 <g id="figure_1">
  <g id="patch_1">
   <path d="M 0 360 
L 864 360 
L 864 0 
L 0 0 
L 0 360 
z
" style="fill: none; opacity: 0"/>
  </g>
  <g id="axes_1">
   <g id="patch_2">
    <path d="M 108 320.4 
L 777.6 320.4 
L 777.6 43.2 
L 108 43.2 
L 108 320.4 
z
" style="fill: none; opacity: 0"/>
   </g>
   <g id="matplotlib.axis_1">
    <g id="xtick_1">
     <g id="line2d_1">
      <path d="M 194.923448 320.4 
L 194.923448 43.2 
" clip-path="url(#pb49dc92b14)" style="fill: none; stroke-dasharray: 5.12,1.28,0.8,1.28; stroke-dashoffset: 0; stroke: #b0b0b0; stroke-width: 0.8"/>
     </g>
     <g id="line2d_2">
      <defs>
       <path id="md292810de8" d="M 0 0 
L 0 3.5 
" style="stroke: #a9a9a9; stroke-width: 0.8"/>
      </defs>
      <g>
       <use xlink:href="#md292810de8" x="194.923448" y="320.4" style="fill: #a9a9a9; stroke: #a9a9a9; stroke-width: 0.8"/>
      </g>
     </g>
     <g id="text_1">
      <!-- 2022 -->
      <g style="fill: #a9a9a9" transform="translate(182.198448 334.998438) scale(0.1 -0.1)">
       <defs>
        <path id="DejaVuSans-32" d="M 1228 531 
L 3431 531 
L 3431 0 
L 469 0 
L 469 531 
Q 828 903 1448 1529 
Q 2069 2156 2228 2338 
Q 2531 2678 2651 2914 
Q 2772 3150 2772 3378 
Q 2772 3750 2511 3984 
Q 2250 4219 1831 4219 
Q 1534 4219 1204 4116 
Q 875 4013 500 3803 
L 500 4441 
Q 881 4594 1212 4672 
Q 1544 4750 1819 4750 
Q 2544 4750 2975 4387 
Q 3406 4025 3406 3419 
Q 3406 3131 3298 2873 
Q 3191 2616 2906 2266 
Q 2828 2175 2409 1742 
Q 1991 1309 1228 531 
z
" transform="scale(0.015625)"/>
        <path id="DejaVuSans-30" d="M 2034 4250 
Q 1547 4250 1301 3770 
Q 1056 3291 1056 2328 
Q 1056 1369 1301 889 
Q 1547 409 2034 409 
Q 2525 409 2770 889 
Q 3016 1369 3016 2328 
Q 3016 3291 2770 3770 
Q 2525 4250 2034 4250 
z
M 2034 4750 
Q 2819 4750 3233 4129 
Q 3647 3509 3647 2328 
Q 3647 1150 3233 529 
Q 2819 -91 2034 -91 
Q 1250 -91 836 529 
Q 422 1150 422 2328 
Q 422 3509 836 4129 
Q 1250 4750 2034 4750 
z
" transform="scale(0.015625)"/>
       </defs>
       <use xlink:href="#DejaVuSans-32"/>
       <use xlink:href="#DejaVuSans-30" transform="translate(63.623047 0)"/>
       <use xlink:href="#DejaVuSans-32" transform="translate(127.246094 0)"/>
       <use xlink:href="#DejaVuSans-32" transform="translate(190.869141 0)"/>
      </g>
     </g>
    </g>
    <g id="xtick_2">
     <g id="line2d_3">
      <path d="M 322.984228 320.4 
L 322.984228 43.2 
" clip-path="url(#pb49dc92b14)" style="fill: none; stroke-dasharray: 5.12,1.28,0.8,1.28; stroke-dashoffset: 0; stroke: #b0b0b0; stroke-width: 0.8"/>
     </g>
     <g id="line2d_4">
      <g>
       <use xlink:href="#md292810de8" x="322.984228" y="320.4" style="fill: #a9a9a9; stroke: #a9a9a9; stroke-width: 0.8"/>
      </g>
     </g>
     <g id="text_2">
      <!-- 2023 -->
      <g style="fill: #a9a9a9" transform="translate(310.259228 334.998438) scale(0.1 -0.1)">
       <defs>
        <path id="DejaVuSans-33" d="M 2597 2516 
Q 3050 2419 3304 2112 
Q 3559 1806 3559 1356 
Q 3559 666 3084 287 
Q 2609 -91 1734 -91 
Q 1441 -91 1130 -33 
Q 819 25 488 141 
L 488 750 
Q 750 597 1062 519 
Q 1375 441 1716 441 
Q 2309 441 2620 675 
Q 2931 909 2931 1356 
Q 2931 1769 2642 2001 
Q 2353 2234 1838 2234 
L 1294 2234 
L 1294 2753 
L 1863 2753 
Q 2328 2753 2575 2939 
Q 2822 3125 2822 3475 
Q 2822 3834 2567 4026 
Q 2313 4219 1838 4219 
Q 1578 4219 1281 4162 
Q 984 4106 628 3988 
L 628 4550 
Q 988 4650 1302 4700 
Q 1616 4750 1894 4750 
Q 2613 4750 3031 4423 
Q 3450 4097 3450 3541 
Q 3450 3153 3228 2886 
Q 3006 2619 2597 2516 
z
" transform="scale(0.015625)"/>
       </defs>
       <use xlink:href="#DejaVuSans-32"/>
       <use xlink:href="#DejaVuSans-30" transform="translate(63.623047 0)"/>
       <use xlink:href="#DejaVuSans-32" transform="translate(127.246094 0)"/>
       <use xlink:href="#DejaVuSans-33" transform="translate(190.869141 0)"/>
      </g>
     </g>
    </g>
    <g id="xtick_3">
     <g id="line2d_5">
      <path d="M 451.045009 320.4 
L 451.045009 43.2 
" clip-path="url(#pb49dc92b14)" style="fill: none; stroke-dasharray: 5.12,1.28,0.8,1.28; stroke-dashoffset: 0; stroke: #b0b0b0; stroke-width: 0.8"/>
     </g>
     <g id="line2d_6">
      <g>
       <use xlink:href="#md292810de8" x="451.045009" y="320.4" style="fill: #a9a9a9; stroke: #a9a9a9; stroke-width: 0.8"/>
      </g>
     </g>
     <g id="text_3">
      <!-- 2024 -->
      <g style="fill: #a9a9a9" transform="translate(438.320009 334.998438) scale(0.1 -0.1)">
       <defs>
        <path id="DejaVuSans-34" d="M 2419 4116 
L 825 1625 
L 2419 1625 
L 2419 4116 
z
M 2253 4666 
L 3047 4666 
L 3047 1625 
L 3713 1625 
L 3713 1100 
L 3047 1100 
L 3047 0 
L 2419 0 
L 2419 1100 
L 313 1100 
L 313 1709 
L 2253 4666 
z
" transform="scale(0.015625)"/>
       </defs>
       <use xlink:href="#DejaVuSans-32"/>
       <use xlink:href="#DejaVuSans-30" transform="translate(63.623047 0)"/>
       <use xlink:href="#DejaVuSans-32" transform="translate(127.246094 0)"/>
       <use xlink:href="#DejaVuSans-34" transform="translate(190.869141 0)"/>
      </g>
     </g>
    </g>
    <g id="xtick_4">
     <g id="line2d_7">
      <path d="M 579.456641 320.4 
L 579.456641 43.2 
" clip-path="url(#pb49dc92b14)" style="fill: none; stroke-dasharray: 5.12,1.28,0.8,1.28; stroke-dashoffset: 0; stroke: #b0b0b0; stroke-width: 0.8"/>
     </g>
     <g id="line2d_8">
      <g>
       <use xlink:href="#md292810de8" x="579.456641" y="320.4" style="fill: #a9a9a9; stroke: #a9a9a9; stroke-width: 0.8"/>
      </g>
     </g>
     <g id="text_4">
      <!-- 2025 -->
      <g style="fill: #a9a9a9" transform="translate(566.731641 334.998438) scale(0.1 -0.1)">
       <defs>
        <path id="DejaVuSans-35" d="M 691 4666 
L 3169 4666 
L 3169 4134 
L 1269 4134 
L 1269 2991 
Q 1406 3038 1543 3061 
Q 1681 3084 1819 3084 
Q 2600 3084 3056 2656 
Q 3513 2228 3513 1497 
Q 3513 744 3044 326 
Q 2575 -91 1722 -91 
Q 1428 -91 1123 -41 
Q 819 9 494 109 
L 494 744 
Q 775 591 1075 516 
Q 1375 441 1709 441 
Q 2250 441 2565 725 
Q 2881 1009 2881 1497 
Q 2881 1984 2565 2268 
Q 2250 2553 1709 2553 
Q 1456 2553 1204 2497 
Q 953 2441 691 2322 
L 691 4666 
z
" transform="scale(0.015625)"/>
       </defs>
       <use xlink:href="#DejaVuSans-32"/>
       <use xlink:href="#DejaVuSans-30" transform="translate(63.623047 0)"/>
       <use xlink:href="#DejaVuSans-32" transform="translate(127.246094 0)"/>
       <use xlink:href="#DejaVuSans-35" transform="translate(190.869141 0)"/>
      </g>
     </g>
    </g>
    <g id="xtick_5">
     <g id="line2d_9">
      <path d="M 707.517422 320.4 
L 707.517422 43.2 
" clip-path="url(#pb49dc92b14)" style="fill: none; stroke-dasharray: 5.12,1.28,0.8,1.28; stroke-dashoffset: 0; stroke: #b0b0b0; stroke-width: 0.8"/>
     </g>
     <g id="line2d_10">
      <g>
       <use xlink:href="#md292810de8" x="707.517422" y="320.4" style="fill: #a9a9a9; stroke: #a9a9a9; stroke-width: 0.8"/>
      </g>
     </g>
     <g id="text_5">
      <!-- 2026 -->
      <g style="fill: #a9a9a9" transform="translate(694.792422 334.998438) scale(0.1 -0.1)">
       <defs>
        <path id="DejaVuSans-36" d="M 2113 2584 
Q 1688 2584 1439 2293 
Q 1191 2003 1191 1497 
Q 1191 994 1439 701 
Q 1688 409 2113 409 
Q 2538 409 2786 701 
Q 3034 994 3034 1497 
Q 3034 2003 2786 2293 
Q 2538 2584 2113 2584 
z
M 3366 4563 
L 3366 3988 
Q 3128 4100 2886 4159 
Q 2644 4219 2406 4219 
Q 1781 4219 1451 3797 
Q 1122 3375 1075 2522 
Q 1259 2794 1537 2939 
Q 1816 3084 2150 3084 
Q 2853 3084 3261 2657 
Q 3669 2231 3669 1497 
Q 3669 778 3244 343 
Q 2819 -91 2113 -91 
Q 1303 -91 875 529 
Q 447 1150 447 2328 
Q 447 3434 972 4092 
Q 1497 4750 2381 4750 
Q 2619 4750 2861 4703 
Q 3103 4656 3366 4563 
z
" transform="scale(0.015625)"/>
       </defs>
       <use xlink:href="#DejaVuSans-32"/>
       <use xlink:href="#DejaVuSans-30" transform="translate(63.623047 0)"/>
       <use xlink:href="#DejaVuSans-32" transform="translate(127.246094 0)"/>
       <use xlink:href="#DejaVuSans-36" transform="translate(190.869141 0)"/>
      </g>
     </g>
    </g>
   </g>
   <g id="matplotlib.axis_2">
    <g id="ytick_1">
     <g id="line2d_11">
      <path d="M 108 307.828327 
L 777.6 307.828327 
" clip-path="url(#pb49dc92b14)" style="fill: none; stroke-dasharray: 5.12,1.28,0.8,1.28; stroke-dashoffset: 0; stroke: #b0b0b0; stroke-width: 0.8"/>
     </g>
     <g id="line2d_12">
      <defs>
       <path id="m2f757e877a" d="M 0 0 
L -3.5 0 
" style="stroke: #a9a9a9; stroke-width: 0.8"/>
      </defs>
      <g>
       <use xlink:href="#m2f757e877a" x="108" y="307.828327" style="fill: #a9a9a9; stroke: #a9a9a9; stroke-width: 0.8"/>
      </g>
     </g>
     <g id="text_6">
      <!-- 0 -->
      <g style="fill: #a9a9a9" transform="translate(94.6375 311.627546) scale(0.1 -0.1)">
       <use xlink:href="#DejaVuSans-30"/>
      </g>
     </g>
    </g>
    <g id="ytick_2">
     <g id="line2d_13">
      <path d="M 108 279.500989 
L 777.6 279.500989 
" clip-path="url(#pb49dc92b14)" style="fill: none; stroke-dasharray: 5.12,1.28,0.8,1.28; stroke-dashoffset: 0; stroke: #b0b0b0; stroke-width: 0.8"/>
     </g>
     <g id="line2d_14">
      <g>
       <use xlink:href="#m2f757e877a" x="108" y="279.500989" style="fill: #a9a9a9; stroke: #a9a9a9; stroke-width: 0.8"/>
      </g>
     </g>
     <g id="text_7">
      <!-- 1000 -->
      <g style="fill: #a9a9a9" transform="translate(75.55 283.300208) scale(0.1 -0.1)">
       <defs>
        <path id="DejaVuSans-31" d="M 794 531 
L 1825 531 
L 1825 4091 
L 703 3866 
L 703 4441 
L 1819 4666 
L 2450 4666 
L 2450 531 
L 3481 531 
L 3481 0 
L 794 0 
L 794 531 
z
" transform="scale(0.015625)"/>
       </defs>
       <use xlink:href="#DejaVuSans-31"/>
       <use xlink:href="#DejaVuSans-30" transform="translate(63.623047 0)"/>
       <use xlink:href="#DejaVuSans-30" transform="translate(127.246094 0)"/>
       <use xlink:href="#DejaVuSans-30" transform="translate(190.869141 0)"/>
      </g>
     </g>
    </g>
    <g id="ytick_3">
     <g id="line2d_15">
      <path d="M 108 251.173651 
L 777.6 251.173651 
" clip-path="url(#pb49dc92b14)" style="fill: none; stroke-dasharray: 5.12,1.28,0.8,1.28; stroke-dashoffset: 0; stroke: #b0b0b0; stroke-width: 0.8"/>
     </g>
     <g id="line2d_16">
      <g>
       <use xlink:href="#m2f757e877a" x="108" y="251.173651" style="fill: #a9a9a9; stroke: #a9a9a9; stroke-width: 0.8"/>
      </g>
     </g>
     <g id="text_8">
      <!-- 2000 -->
      <g style="fill: #a9a9a9" transform="translate(75.55 254.97287) scale(0.1 -0.1)">
       <use xlink:href="#DejaVuSans-32"/>
       <use xlink:href="#DejaVuSans-30" transform="translate(63.623047 0)"/>
       <use xlink:href="#DejaVuSans-30" transform="translate(127.246094 0)"/>
       <use xlink:href="#DejaVuSans-30" transform="translate(190.869141 0)"/>
      </g>
     </g>
    </g>
    <g id="ytick_4">
     <g id="line2d_17">
      <path d="M 108 222.846313 
L 777.6 222.846313 
" clip-path="url(#pb49dc92b14)" style="fill: none; stroke-dasharray: 5.12,1.28,0.8,1.28; stroke-dashoffset: 0; stroke: #b0b0b0; stroke-width: 0.8"/>
     </g>
     <g id="line2d_18">
      <g>
       <use xlink:href="#m2f757e877a" x="108" y="222.846313" style="fill: #a9a9a9; stroke: #a9a9a9; stroke-width: 0.8"/>
      </g>
     </g>
     <g id="text_9">
      <!-- 3000 -->
      <g style="fill: #a9a9a9" transform="translate(75.55 226.645532) scale(0.1 -0.1)">
       <use xlink:href="#DejaVuSans-33"/>
       <use xlink:href="#DejaVuSans-30" transform="translate(63.623047 0)"/>
       <use xlink:href="#DejaVuSans-30" transform="translate(127.246094 0)"/>
       <use xlink:href="#DejaVuSans-30" transform="translate(190.869141 0)"/>
      </g>
     </g>
    </g>
    <g id="ytick_5">
     <g id="line2d_19">
      <path d="M 108 194.518975 
L 777.6 194.518975 
" clip-path="url(#pb49dc92b14)" style="fill: none; stroke-dasharray: 5.12,1.28,0.8,1.28; stroke-dashoffset: 0; stroke: #b0b0b0; stroke-width: 0.8"/>
     </g>
     <g id="line2d_20">
      <g>
       <use xlink:href="#m2f757e877a" x="108" y="194.518975" style="fill: #a9a9a9; stroke: #a9a9a9; stroke-width: 0.8"/>
      </g>
     </g>
     <g id="text_10">
      <!-- 4000 -->
      <g style="fill: #a9a9a9" transform="translate(75.55 198.318194) scale(0.1 -0.1)">
       <use xlink:href="#DejaVuSans-34"/>
       <use xlink:href="#DejaVuSans-30" transform="translate(63.623047 0)"/>
       <use xlink:href="#DejaVuSans-30" transform="translate(127.246094 0)"/>
       <use xlink:href="#DejaVuSans-30" transform="translate(190.869141 0)"/>
      </g>
     </g>
    </g>
    <g id="ytick_6">
     <g id="line2d_21">
      <path d="M 108 166.191637 
L 777.6 166.191637 
" clip-path="url(#pb49dc92b14)" style="fill: none; stroke-dasharray: 5.12,1.28,0.8,1.28; stroke-dashoffset: 0; stroke: #b0b0b0; stroke-width: 0.8"/>
     </g>
     <g id="line2d_22">
      <g>
       <use xlink:href="#m2f757e877a" x="108" y="166.191637" style="fill: #a9a9a9; stroke: #a9a9a9; stroke-width: 0.8"/>
      </g>
     </g>
     <g id="text_11">
      <!-- 5000 -->
      <g style="fill: #a9a9a9" transform="translate(75.55 169.990855) scale(0.1 -0.1)">
       <use xlink:href="#DejaVuSans-35"/>
       <use xlink:href="#DejaVuSans-30" transform="translate(63.623047 0)"/>
       <use xlink:href="#DejaVuSans-30" transform="translate(127.246094 0)"/>
       <use xlink:href="#DejaVuSans-30" transform="translate(190.869141 0)"/>
      </g>
     </g>
    </g>
    <g id="ytick_7">
     <g id="line2d_23">
      <path d="M 108 137.864299 
L 777.6 137.864299 
" clip-path="url(#pb49dc92b14)" style="fill: none; stroke-dasharray: 5.12,1.28,0.8,1.28; stroke-dashoffset: 0; stroke: #b0b0b0; stroke-width: 0.8"/>
     </g>
     <g id="line2d_24">
      <g>
       <use xlink:href="#m2f757e877a" x="108" y="137.864299" style="fill: #a9a9a9; stroke: #a9a9a9; stroke-width: 0.8"/>
      </g>
     </g>
     <g id="text_12">
      <!-- 6000 -->
      <g style="fill: #a9a9a9" transform="translate(75.55 141.663517) scale(0.1 -0.1)">
       <use xlink:href="#DejaVuSans-36"/>
       <use xlink:href="#DejaVuSans-30" transform="translate(63.623047 0)"/>
       <use xlink:href="#DejaVuSans-30" transform="translate(127.246094 0)"/>
       <use xlink:href="#DejaVuSans-30" transform="translate(190.869141 0)"/>
      </g>
     </g>
    </g>
    <g id="ytick_8">
     <g id="line2d_25">
      <path d="M 108 109.53696 
L 777.6 109.53696 
" clip-path="url(#pb49dc92b14)" style="fill: none; stroke-dasharray: 5.12,1.28,0.8,1.28; stroke-dashoffset: 0; stroke: #b0b0b0; stroke-width: 0.8"/>
     </g>
     <g id="line2d_26">
      <g>
       <use xlink:href="#m2f757e877a" x="108" y="109.53696" style="fill: #a9a9a9; stroke: #a9a9a9; stroke-width: 0.8"/>
      </g>
     </g>
     <g id="text_13">
      <!-- 7000 -->
      <g style="fill: #a9a9a9" transform="translate(75.55 113.336179) scale(0.1 -0.1)">
       <defs>
        <path id="DejaVuSans-37" d="M 525 4666 
L 3525 4666 
L 3525 4397 
L 1831 0 
L 1172 0 
L 2766 4134 
L 525 4134 
L 525 4666 
z
" transform="scale(0.015625)"/>
       </defs>
       <use xlink:href="#DejaVuSans-37"/>
       <use xlink:href="#DejaVuSans-30" transform="translate(63.623047 0)"/>
       <use xlink:href="#DejaVuSans-30" transform="translate(127.246094 0)"/>
       <use xlink:href="#DejaVuSans-30" transform="translate(190.869141 0)"/>
      </g>
     </g>
    </g>
    <g id="ytick_9">
     <g id="line2d_27">
      <path d="M 108 81.209622 
L 777.6 81.209622 
" clip-path="url(#pb49dc92b14)" style="fill: none; stroke-dasharray: 5.12,1.28,0.8,1.28; stroke-dashoffset: 0; stroke: #b0b0b0; stroke-width: 0.8"/>
     </g>
     <g id="line2d_28">
      <g>
       <use xlink:href="#m2f757e877a" x="108" y="81.209622" style="fill: #a9a9a9; stroke: #a9a9a9; stroke-width: 0.8"/>
      </g>
     </g>
     <g id="text_14">
      <!-- 8000 -->
      <g style="fill: #a9a9a9" transform="translate(75.55 85.008841) scale(0.1 -0.1)">
       <defs>
        <path id="DejaVuSans-38" d="M 2034 2216 
Q 1584 2216 1326 1975 
Q 1069 1734 1069 1313 
Q 1069 891 1326 650 
Q 1584 409 2034 409 
Q 2484 409 2743 651 
Q 3003 894 3003 1313 
Q 3003 1734 2745 1975 
Q 2488 2216 2034 2216 
z
M 1403 2484 
Q 997 2584 770 2862 
Q 544 3141 544 3541 
Q 544 4100 942 4425 
Q 1341 4750 2034 4750 
Q 2731 4750 3128 4425 
Q 3525 4100 3525 3541 
Q 3525 3141 3298 2862 
Q 3072 2584 2669 2484 
Q 3125 2378 3379 2068 
Q 3634 1759 3634 1313 
Q 3634 634 3220 271 
Q 2806 -91 2034 -91 
Q 1263 -91 848 271 
Q 434 634 434 1313 
Q 434 1759 690 2068 
Q 947 2378 1403 2484 
z
M 1172 3481 
Q 1172 3119 1398 2916 
Q 1625 2713 2034 2713 
Q 2441 2713 2670 2916 
Q 2900 3119 2900 3481 
Q 2900 3844 2670 4047 
Q 2441 4250 2034 4250 
Q 1625 4250 1398 4047 
Q 1172 3844 1172 3481 
z
" transform="scale(0.015625)"/>
       </defs>
       <use xlink:href="#DejaVuSans-38"/>
       <use xlink:href="#DejaVuSans-30" transform="translate(63.623047 0)"/>
       <use xlink:href="#DejaVuSans-30" transform="translate(127.246094 0)"/>
       <use xlink:href="#DejaVuSans-30" transform="translate(190.869141 0)"/>
      </g>
     </g>
    </g>
    <g id="ytick_10">
     <g id="line2d_29">
      <path d="M 108 52.882284 
L 777.6 52.882284 
" clip-path="url(#pb49dc92b14)" style="fill: none; stroke-dasharray: 5.12,1.28,0.8,1.28; stroke-dashoffset: 0; stroke: #b0b0b0; stroke-width: 0.8"/>
     </g>
     <g id="line2d_30">
      <g>
       <use xlink:href="#m2f757e877a" x="108" y="52.882284" style="fill: #a9a9a9; stroke: #a9a9a9; stroke-width: 0.8"/>
      </g>
     </g>
     <g id="text_15">
      <!-- 9000 -->
      <g style="fill: #a9a9a9" transform="translate(75.55 56.681503) scale(0.1 -0.1)">
       <defs>
        <path id="DejaVuSans-39" d="M 703 97 
L 703 672 
Q 941 559 1184 500 
Q 1428 441 1663 441 
Q 2288 441 2617 861 
Q 2947 1281 2994 2138 
Q 2813 1869 2534 1725 
Q 2256 1581 1919 1581 
Q 1219 1581 811 2004 
Q 403 2428 403 3163 
Q 403 3881 828 4315 
Q 1253 4750 1959 4750 
Q 2769 4750 3195 4129 
Q 3622 3509 3622 2328 
Q 3622 1225 3098 567 
Q 2575 -91 1691 -91 
Q 1453 -91 1209 -44 
Q 966 3 703 97 
z
M 1959 2075 
Q 2384 2075 2632 2365 
Q 2881 2656 2881 3163 
Q 2881 3666 2632 3958 
Q 2384 4250 1959 4250 
Q 1534 4250 1286 3958 
Q 1038 3666 1038 3163 
Q 1038 2656 1286 2365 
Q 1534 2075 1959 2075 
z
" transform="scale(0.015625)"/>
       </defs>
       <use xlink:href="#DejaVuSans-39"/>
       <use xlink:href="#DejaVuSans-30" transform="translate(63.623047 0)"/>
       <use xlink:href="#DejaVuSans-30" transform="translate(127.246094 0)"/>
       <use xlink:href="#DejaVuSans-30" transform="translate(190.869141 0)"/>
      </g>
     </g>
    </g>
   </g>
   <g id="line2d_31">
    <path d="M 138.436364 307.743345 
L 140.541472 307.545054 
L 140.892324 307.37509 
L 142.29573 307.176799 
L 143.699135 306.865198 
L 145.102541 306.638579 
L 146.155096 306.581924 
L 146.856799 306.298651 
L 147.20765 305.788759 
L 147.558501 305.533813 
L 147.909353 304.683993 
L 148.260204 304.627338 
L 148.961907 304.174101 
L 149.66361 303.635881 
L 151.067016 302.559442 
L 151.417867 302.417806 
L 152.11957 301.964568 
L 153.172125 301.426349 
L 153.522976 300.831475 
L 154.224679 300.264928 
L 154.926382 300.038309 
L 155.978936 299.868345 
L 158.084045 299.528417 
L 158.434897 299.358453 
L 160.890857 299.131835 
L 162.294263 298.763579 
L 165.101074 298.338669 
L 165.451926 298.140378 
L 165.802777 298.083723 
L 166.50448 297.828777 
L 168.96044 297.37554 
L 169.662143 297.148921 
L 172.819806 296.582374 
L 173.521509 296.41241 
L 174.924915 296.214119 
L 175.626618 295.9875 
L 175.977469 295.449281 
L 177.030024 294.996043 
L 178.082578 294.684442 
L 178.433429 294.486151 
L 179.135132 294.344514 
L 180.88939 293.891277 
L 181.941944 293.636331 
L 183.34535 293.268076 
L 183.696201 293.239748 
L 184.397904 292.89982 
L 184.748756 292.843165 
L 185.099607 292.644874 
L 189.660676 291.823381 
L 191.064082 291.171853 
L 191.765785 290.973561 
L 192.467488 290.66196 
L 193.16919 290.152068 
L 194.221745 289.92545 
L 198.782814 288.53741 
L 199.133665 288.480755 
L 200.537071 287.885881 
L 200.887922 287.829227 
L 201.589625 287.517626 
L 202.291328 287.489299 
L 203.343883 287.149371 
L 203.694734 287.149371 
L 204.045586 286.979406 
L 204.747288 286.894424 
L 205.09814 286.752788 
L 206.852397 286.667806 
L 207.203249 286.582824 
L 207.904952 286.186241 
L 208.957506 285.789658 
L 209.659209 285.393076 
L 210.711763 284.911511 
L 212.115169 284.203327 
L 212.46602 283.806745 
L 213.167723 282.616996 
L 214.220278 282.277068 
L 214.571129 281.993795 
L 215.623684 281.597212 
L 215.974535 281.228957 
L 217.027089 280.775719 
L 217.377941 280.577428 
L 219.48305 278.027968 
L 220.184752 277.68804 
L 221.588158 276.668255 
L 222.289861 276.158363 
L 222.640713 275.620144 
L 222.991564 274.741996 
L 223.342416 274.17545 
L 225.447524 272.447482 
L 226.500079 271.484353 
L 227.201782 270.54955 
L 228.254336 269.756385 
L 229.657742 268.84991 
L 230.359445 268.453327 
L 231.76285 267.660162 
L 233.517108 265.903867 
L 234.218811 265.592266 
L 234.920513 265.082374 
L 235.271365 264.855755 
L 235.622216 264.799101 
L 236.674771 264.175899 
L 237.025622 263.750989 
L 238.779879 262.731205 
L 239.130731 262.589568 
L 240.183285 261.796403 
L 245.446057 259.756835 
L 246.14776 259.048651 
L 247.200314 258.482104 
L 247.902017 258.00054 
L 248.60372 257.773921 
L 248.954572 257.518975 
L 249.305423 257.405665 
L 250.357977 256.640827 
L 252.463086 256.017626 
L 253.164789 255.564388 
L 254.217343 255.309442 
L 254.568195 255.22446 
L 255.620749 254.431295 
L 257.024155 254.006385 
L 257.725858 253.581475 
L 258.427561 253.269874 
L 259.480115 252.929946 
L 260.181818 252.788309 
L 260.883521 252.476709 
L 263.339481 251.513579 
L 264.041184 251.428597 
L 265.44459 250.86205 
L 269.303956 248.794155 
L 270.005659 248.454227 
L 270.707362 248.114299 
L 271.409065 247.972662 
L 272.110768 247.519424 
L 272.812471 247.321133 
L 273.865025 246.867896 
L 275.268431 246.669604 
L 275.970134 246.273022 
L 276.320985 245.933094 
L 276.671837 245.253237 
L 278.075242 244.828327 
L 279.478648 244.148471 
L 282.636311 242.647122 
L 283.338014 242.477158 
L 284.390569 241.910612 
L 284.74142 241.853957 
L 286.495677 240.890827 
L 287.19738 240.409263 
L 288.249935 240.182644 
L 291.407598 239.04955 
L 292.811003 238.426349 
L 293.161855 238.143076 
L 293.512706 238.029766 
L 294.214409 237.604856 
L 295.968666 236.925 
L 298.073775 235.310342 
L 298.424627 235.253687 
L 298.775478 234.630486 
L 299.12633 234.488849 
L 299.477181 234.177248 
L 299.828032 234.120594 
L 300.529735 233.639029 
L 301.231438 233.384083 
L 301.933141 232.959173 
L 303.687398 231.797752 
L 305.792507 230.806295 
L 306.143359 230.154766 
L 306.845062 229.588219 
L 307.546764 229.304946 
L 307.897616 229.05 
L 308.248467 228.965018 
L 308.95017 228.596763 
L 310.353576 227.860252 
L 311.055279 227.208723 
L 311.756982 226.585522 
L 312.458685 226.132284 
L 313.160388 225.452428 
L 313.862091 224.857554 
L 314.212942 224.68759 
L 314.914645 223.922752 
L 315.967199 223.41286 
L 316.668902 222.98795 
L 317.019754 222.87464 
L 317.370605 222.591367 
L 317.721457 222.534712 
L 320.87912 220.835072 
L 321.580823 220.636781 
L 322.984228 220.155216 
L 323.685931 219.673651 
L 325.089337 219.135432 
L 325.79104 218.682194 
L 326.492743 218.398921 
L 327.194446 217.860701 
L 327.896149 216.38768 
L 328.597852 215.53786 
L 329.650406 214.971313 
L 330.352109 214.659712 
L 330.70296 214.603058 
L 331.404663 214.263129 
L 333.158921 213.611601 
L 333.860624 213.130036 
L 334.913178 212.676799 
L 336.316584 211.798651 
L 336.667435 211.543705 
L 337.369138 210.863849 
L 338.421692 210.325629 
L 339.123395 209.900719 
L 340.526801 209.079227 
L 340.877653 208.994245 
L 341.228504 208.710971 
L 343.684464 207.861151 
L 344.035316 207.606205 
L 344.737019 207.379586 
L 348.596385 205.425 
L 349.298088 204.830126 
L 349.99979 204.631835 
L 350.350642 204.291906 
L 350.701493 204.235252 
L 351.403196 203.668705 
L 353.157453 202.563939 
L 353.859156 202.33732 
L 354.210008 202.110701 
L 354.560859 202.054047 
L 356.665968 201.119245 
L 360.876185 199.759532 
L 361.92874 198.994694 
L 362.630443 198.598112 
L 364.033849 197.889928 
L 365.086403 197.153417 
L 365.788106 196.983453 
L 366.84066 196.303597 
L 369.998323 195.170504 
L 370.700026 194.915558 
L 372.103432 194.603957 
L 372.805135 194.377338 
L 374.559392 193.754137 
L 375.611947 193.414209 
L 376.313649 193.244245 
L 378.418758 192.847662 
L 379.120461 192.706025 
L 380.173015 192.451079 
L 380.523867 192.281115 
L 381.22557 192.139478 
L 381.927273 191.941187 
L 382.628976 191.601259 
L 382.979827 191.459622 
L 383.330679 191.459622 
L 388.59345 189.703327 
L 388.944302 189.306745 
L 391.049411 188.371942 
L 392.452816 187.86205 
L 392.803668 187.635432 
L 394.557925 187.097212 
L 394.908777 186.842266 
L 395.259628 186.757284 
L 395.610479 186.445683 
L 396.663034 186.219065 
L 397.364737 185.879137 
L 397.715588 185.425899 
L 408.591983 182.706475 
L 409.995389 182.253237 
L 411.398795 181.8 
L 412.100498 181.488399 
L 412.802201 181.205126 
L 413.153052 180.95018 
L 414.907309 180.41196 
L 416.310715 179.760432 
L 417.714121 179.590468 
L 425.783704 176.417806 
L 427.537962 175.907914 
L 428.239665 175.539658 
L 429.292219 175.284712 
L 430.695625 174.066637 
L 433.151585 172.961871 
L 435.607545 171.857104 
L 436.6601 171.488849 
L 437.712654 170.950629 
L 440.519466 169.477608 
L 441.221168 169.13768 
L 441.57202 168.854406 
L 442.624574 168.401169 
L 444.02798 167.664658 
L 445.431386 167.098112 
L 447.887346 166.163309 
L 448.589049 166.078327 
L 448.9399 165.823381 
L 450.343306 165.540108 
L 451.045009 165.228507 
L 452.799266 164.35036 
L 457.360335 162.225809 
L 458.41289 161.857554 
L 458.763741 161.602608 
L 459.465444 161.517626 
L 459.816296 161.291007 
L 460.517998 161.177698 
L 464.377364 159.704676 
L 466.482473 159.081475 
L 467.535028 158.628237 
L 468.23673 158.231655 
L 469.640136 157.466817 
L 470.341839 157.296853 
L 470.692691 157.070234 
L 471.043542 157.013579 
L 472.797799 156.107104 
L 477.358868 154.322482 
L 477.70972 154.265827 
L 479.113125 153.557644 
L 479.814828 153.416007 
L 480.516531 152.991097 
L 481.919937 152.282914 
L 488.586115 149.478507 
L 489.287818 148.770324 
L 490.340372 148.232104 
L 491.392926 147.920504 
L 491.743778 147.63723 
L 492.445481 147.382284 
L 493.498035 146.645773 
L 494.199738 146.447482 
L 494.901441 146.050899 
L 495.953995 145.795953 
L 502.620173 143.019874 
L 503.321876 142.708273 
L 505.426985 141.915108 
L 507.181242 141.008633 
L 507.882945 140.782014 
L 508.233796 140.442086 
L 509.286351 140.017176 
L 509.637202 139.960522 
L 511.040608 139.280665 
L 512.093162 138.940737 
L 513.145717 138.544155 
L 514.198271 138.232554 
L 514.549122 138.175899 
L 515.250825 137.779317 
L 515.601677 137.63768 
L 515.952528 137.354406 
L 517.005083 137.071133 
L 517.706785 136.78786 
L 518.408488 136.476259 
L 519.811894 135.881385 
L 522.267854 135.258183 
L 522.969557 134.97491 
L 527.179775 133.898471 
L 529.284883 132.595414 
L 530.337438 131.972212 
L 532.442547 131.292356 
L 533.144249 130.867446 
L 535.60021 129.989299 
L 536.652764 129.649371 
L 537.354467 129.252788 
L 538.05617 129.054496 
L 538.407021 128.856205 
L 539.108724 128.714568 
L 540.862981 127.893076 
L 541.564684 127.609802 
L 542.96809 127.043255 
L 543.318942 126.703327 
L 543.669793 126.646673 
L 545.073199 126.051799 
L 546.476605 125.683543 
L 546.827456 125.655216 
L 547.178308 125.485252 
L 547.88001 125.343615 
L 551.037674 124.352158 
L 551.739376 123.785612 
L 553.142782 122.964119 
L 554.195337 122.624191 
L 557.353 121.03786 
L 557.703851 120.754586 
L 559.80896 120.131385 
L 560.510663 119.848112 
L 561.563217 119.479856 
L 561.914069 119.168255 
L 564.370029 118.261781 
L 565.422583 117.780216 
L 565.773435 117.751888 
L 566.475138 117.468615 
L 567.878543 116.845414 
L 570.685355 116.052248 
L 571.737909 115.570683 
L 576.298978 114.01268 
L 577.351533 113.58777 
L 579.10579 113.077878 
L 579.456641 113.04955 
L 580.509196 112.62464 
L 581.210899 112.454676 
L 581.56175 112.228058 
L 582.263453 112.086421 
L 586.47367 110.840018 
L 588.227928 110.330126 
L 588.578779 110.160162 
L 588.929631 110.160162 
L 589.982185 109.905216 
L 590.683888 109.763579 
L 591.385591 109.565288 
L 592.438145 108.998741 
L 593.841551 108.545504 
L 598.40262 106.817536 
L 599.455174 106.449281 
L 601.209431 105.486151 
L 601.911134 105.401169 
L 604.367095 104.692986 
L 605.419649 104.466367 
L 608.226461 103.446583 
L 612.787529 101.66196 
L 613.489232 101.548651 
L 614.190935 101.407014 
L 614.541787 101.407014 
L 615.594341 101.067086 
L 617.348598 100.557194 
L 618.752004 100.075629 
L 623.313073 98.942536 
L 624.365627 98.432644 
L 625.769033 97.979406 
L 630.680954 96.478058 
L 631.031805 96.44973 
L 632.084359 96.053147 
L 632.786062 95.939838 
L 635.242023 95.005036 
L 637.697983 94.523471 
L 639.45224 94.013579 
L 639.803091 93.843615 
L 640.504794 93.220414 
L 643.662457 91.974011 
L 644.36416 91.860701 
L 647.170972 90.925899 
L 648.223526 90.331025 
L 648.574378 90.246043 
L 648.925229 89.96277 
L 649.977784 89.651169 
L 651.381189 89.084622 
L 652.433744 88.57473 
L 653.135447 88.14982 
L 653.486298 88.064838 
L 654.188001 87.668255 
L 656.994813 86.648471 
L 657.345664 86.336871 
L 657.696516 86.280216 
L 658.398218 85.826978 
L 659.450773 85.515378 
L 660.854179 84.920504 
L 661.20503 84.892176 
L 662.959287 84.21232 
L 663.66099 84.070683 
L 664.362693 83.560791 
L 664.713545 83.560791 
L 666.11695 83.050899 
L 667.520356 82.767626 
L 668.923762 82.144424 
L 669.274614 82.144424 
L 671.730574 81.407914 
L 672.432277 80.841367 
L 675.58994 79.679946 
L 676.993346 79.340018 
L 679.449306 78.660162 
L 681.554414 77.923651 
L 682.95782 77.61205 
L 685.41378 76.903867 
L 686.115483 76.76223 
L 688.922295 75.714119 
L 689.623998 75.572482 
L 691.027404 75.317536 
L 691.729107 75.204227 
L 693.132512 74.63768 
L 693.834215 74.439388 
L 694.535918 74.326079 
L 695.939324 73.901169 
L 696.290176 73.901169 
L 696.991878 73.504586 
L 700.149542 72.654766 
L 709.622531 68.717266 
L 709.973382 68.490647 
L 710.324234 68.405665 
L 710.675085 68.179047 
L 711.025937 68.122392 
L 711.72764 67.697482 
L 713.832748 67.215917 
L 714.1836 66.960971 
L 718.042966 65.629586 
L 718.744669 65.261331 
L 720.148074 64.694784 
L 722.604035 64.014928 
L 723.305737 63.901619 
L 724.00744 63.816637 
L 725.761698 63.476709 
L 726.814252 62.910162 
L 727.165103 62.853507 
L 727.866806 62.541906 
L 728.919361 62.371942 
L 729.621064 62.032014 
L 734.883835 59.964119 
L 735.93639 59.709173 
L 738.041499 59.142626 
L 738.743201 59.114299 
L 741.199162 58.34946 
L 741.550013 58.066187 
L 741.900865 58.009532 
L 742.602567 57.697932 
L 742.953419 57.61295 
L 743.655122 57.216367 
L 746.812785 55.8 
L 747.163636 55.8 
L 747.163636 55.8 
" clip-path="url(#pb49dc92b14)" style="fill: none; stroke: #1f77b4; stroke-width: 1.5; stroke-linecap: square"/>
   </g>
   <g id="line2d_32">
    <path d="M 138.787215 307.8 
L 141.944878 307.715018 
L 144.75169 307.573381 
L 146.155096 307.573381 
L 146.856799 307.460072 
L 155.277233 306.865198 
L 158.084045 306.780216 
L 159.838302 306.723561 
L 164.399371 306.638579 
L 166.153629 306.581924 
L 169.311292 306.496942 
L 170.714697 306.468615 
L 174.223212 306.383633 
L 175.275766 306.270324 
L 178.433429 306.185342 
L 180.187687 306.128687 
L 182.292795 306.072032 
L 183.696201 305.930396 
L 186.853864 305.845414 
L 187.555567 305.788759 
L 188.958973 305.703777 
L 191.064082 305.618795 
L 192.467488 305.533813 
L 198.782814 305.108903 
L 201.238774 305.052248 
L 202.291328 304.938939 
L 204.045586 304.853957 
L 207.5541 304.655665 
L 211.062615 304.599011 
L 212.46602 304.457374 
L 214.220278 304.372392 
L 217.728792 304.004137 
L 219.833901 303.720863 
L 221.237307 303.664209 
L 224.044118 303.295953 
L 226.149227 303.239299 
L 227.201782 303.154317 
L 228.254336 303.069335 
L 246.498611 301.681295 
L 248.954572 301.596313 
L 250.357977 301.426349 
L 252.112235 301.341367 
L 254.217343 301.256385 
L 255.971601 301.171403 
L 257.375007 301.143076 
L 259.129264 301.086421 
L 259.830967 301.001439 
L 264.742887 300.916457 
L 265.44459 300.831475 
L 269.654807 300.746493 
L 272.812471 300.576529 
L 275.268431 300.491547 
L 277.022688 300.293255 
L 279.127797 300.208273 
L 280.180351 300.066637 
L 285.092271 299.981655 
L 286.495677 299.840018 
L 287.899083 299.811691 
L 288.951637 299.726709 
L 290.355043 299.585072 
L 293.863558 299.386781 
L 297.372072 299.301799 
L 300.529735 299.131835 
L 301.58229 299.103507 
L 302.283993 298.990198 
L 304.03825 298.933543 
L 304.739953 298.876888 
L 306.49421 298.791906 
L 307.897616 298.763579 
L 310.353576 298.678597 
L 319.475714 298.027068 
L 321.580823 297.942086 
L 323.33508 297.885432 
L 328.247 297.80045 
L 328.948703 297.715468 
L 333.860624 297.630486 
L 337.369138 297.432194 
L 338.070841 297.403867 
L 338.772544 297.318885 
L 340.526801 297.233903 
L 342.281058 297.177248 
L 344.035316 297.092266 
L 345.789573 297.035612 
L 348.947236 296.950629 
L 351.052345 296.865647 
L 355.964265 296.780665 
L 359.823631 296.554047 
L 361.227037 296.497392 
L 362.279591 296.41241 
L 367.191512 296.327428 
L 369.29662 296.242446 
L 380.523867 296.157464 
L 383.330679 296.015827 
L 391.400262 295.930845 
L 392.101965 295.874191 
L 398.06644 295.817536 
L 398.768143 295.760881 
L 414.205606 295.675899 
L 415.959864 295.619245 
L 427.18711 295.534263 
L 431.748179 295.250989 
L 435.256694 295.166007 
L 435.958397 295.109353 
L 439.11606 295.024371 
L 439.817763 294.967716 
L 442.975426 294.882734 
L 445.782237 294.741097 
L 452.448415 294.656115 
L 454.553524 294.571133 
L 458.41289 294.486151 
L 460.86885 294.372842 
L 463.32481 294.316187 
L 464.026513 294.259532 
L 472.446948 294.17455 
L 475.955462 293.976259 
L 478.762274 293.891277 
L 479.814828 293.74964 
L 483.323343 293.664658 
L 485.0776 293.608004 
L 488.586115 293.523022 
L 490.340372 293.32473 
L 493.848887 293.239748 
L 494.550589 293.154766 
L 498.059104 293.069784 
L 499.813361 293.013129 
L 503.672727 292.984802 
L 504.37443 292.89982 
L 508.233796 292.814838 
L 508.935499 292.758183 
L 516.654231 292.673201 
L 518.75934 292.588219 
L 524.022112 292.503237 
L 525.425517 292.47491 
L 528.583181 292.446583 
L 529.284883 292.361601 
L 533.845952 292.276619 
L 535.60021 292.219964 
L 541.915536 292.163309 
L 542.96809 292.078327 
L 544.020644 291.993345 
L 545.073199 291.908363 
L 550.335971 291.823381 
L 552.441079 291.738399 
L 562.615772 291.653417 
L 565.773435 291.483453 
L 570.685355 291.398471 
L 572.088761 291.370144 
L 576.298978 291.285162 
L 578.053236 291.228507 
L 586.122819 291.143525 
L 588.227928 291.058543 
L 594.192402 290.973561 
L 595.94666 290.916906 
L 599.104323 290.831924 
L 601.560283 290.718615 
L 605.419649 290.633633 
L 607.875609 290.520324 
L 611.033272 290.463669 
L 611.734975 290.407014 
L 619.453707 290.322032 
L 621.558816 290.23705 
L 624.014776 290.152068 
L 625.769033 290.095414 
L 635.943725 290.010432 
L 638.048834 289.92545 
L 644.013309 289.840468 
L 645.767566 289.783813 
L 650.328635 289.698831 
L 652.433744 289.613849 
L 655.240555 289.528867 
L 657.345664 289.443885 
L 671.379722 289.358903 
L 673.835682 289.245594 
L 682.256117 289.160612 
L 683.659523 289.132284 
L 692.079958 289.047302 
L 693.834215 288.990647 
L 705.061462 288.905665 
L 706.464868 288.877338 
L 716.990411 288.792356 
L 718.744669 288.735701 
L 729.270212 288.650719 
L 731.375321 288.565737 
L 744.707676 288.480755 
L 746.461933 288.424101 
L 747.163636 288.424101 
L 747.163636 288.424101 
" clip-path="url(#pb49dc92b14)" style="fill: none; stroke: #ff7f0e; stroke-width: 1.5; stroke-linecap: square"/>
   </g>
   <g id="patch_3">
    <path d="M 108 320.4 
L 108 43.2 
" style="fill: none; stroke: #a9a9a9; stroke-width: 0.8; stroke-linejoin: miter; stroke-linecap: square"/>
   </g>
   <g id="patch_4">
    <path d="M 777.6 320.4 
L 777.6 43.2 
" style="fill: none"/>
   </g>
   <g id="patch_5">
    <path d="M 108 320.4 
L 777.6 320.4 
" style="fill: none; stroke: #a9a9a9; stroke-width: 0.8; stroke-linejoin: miter; stroke-linecap: square"/>
   </g>
   <g id="patch_6">
    <path d="M 108 43.2 
L 777.6 43.2 
" style="fill: none"/>
   </g>
   <g id="text_16">
    <!-- get_subscribe history -->
    <g style="fill: #a9a9a9" transform="translate(378.6075 37.2) scale(0.12 -0.12)">
     <defs>
      <path id="DejaVuSans-67" d="M 2906 1791 
Q 2906 2416 2648 2759 
Q 2391 3103 1925 3103 
Q 1463 3103 1205 2759 
Q 947 2416 947 1791 
Q 947 1169 1205 825 
Q 1463 481 1925 481 
Q 2391 481 2648 825 
Q 2906 1169 2906 1791 
z
M 3481 434 
Q 3481 -459 3084 -895 
Q 2688 -1331 1869 -1331 
Q 1566 -1331 1297 -1286 
Q 1028 -1241 775 -1147 
L 775 -588 
Q 1028 -725 1275 -790 
Q 1522 -856 1778 -856 
Q 2344 -856 2625 -561 
Q 2906 -266 2906 331 
L 2906 616 
Q 2728 306 2450 153 
Q 2172 0 1784 0 
Q 1141 0 747 490 
Q 353 981 353 1791 
Q 353 2603 747 3093 
Q 1141 3584 1784 3584 
Q 2172 3584 2450 3431 
Q 2728 3278 2906 2969 
L 2906 3500 
L 3481 3500 
L 3481 434 
z
" transform="scale(0.015625)"/>
      <path id="DejaVuSans-65" d="M 3597 1894 
L 3597 1613 
L 953 1613 
Q 991 1019 1311 708 
Q 1631 397 2203 397 
Q 2534 397 2845 478 
Q 3156 559 3463 722 
L 3463 178 
Q 3153 47 2828 -22 
Q 2503 -91 2169 -91 
Q 1331 -91 842 396 
Q 353 884 353 1716 
Q 353 2575 817 3079 
Q 1281 3584 2069 3584 
Q 2775 3584 3186 3129 
Q 3597 2675 3597 1894 
z
M 3022 2063 
Q 3016 2534 2758 2815 
Q 2500 3097 2075 3097 
Q 1594 3097 1305 2825 
Q 1016 2553 972 2059 
L 3022 2063 
z
" transform="scale(0.015625)"/>
      <path id="DejaVuSans-74" d="M 1172 4494 
L 1172 3500 
L 2356 3500 
L 2356 3053 
L 1172 3053 
L 1172 1153 
Q 1172 725 1289 603 
Q 1406 481 1766 481 
L 2356 481 
L 2356 0 
L 1766 0 
Q 1100 0 847 248 
Q 594 497 594 1153 
L 594 3053 
L 172 3053 
L 172 3500 
L 594 3500 
L 594 4494 
L 1172 4494 
z
" transform="scale(0.015625)"/>
      <path id="DejaVuSans-5f" d="M 3263 -1063 
L 3263 -1509 
L -63 -1509 
L -63 -1063 
L 3263 -1063 
z
" transform="scale(0.015625)"/>
      <path id="DejaVuSans-73" d="M 2834 3397 
L 2834 2853 
Q 2591 2978 2328 3040 
Q 2066 3103 1784 3103 
Q 1356 3103 1142 2972 
Q 928 2841 928 2578 
Q 928 2378 1081 2264 
Q 1234 2150 1697 2047 
L 1894 2003 
Q 2506 1872 2764 1633 
Q 3022 1394 3022 966 
Q 3022 478 2636 193 
Q 2250 -91 1575 -91 
Q 1294 -91 989 -36 
Q 684 19 347 128 
L 347 722 
Q 666 556 975 473 
Q 1284 391 1588 391 
Q 1994 391 2212 530 
Q 2431 669 2431 922 
Q 2431 1156 2273 1281 
Q 2116 1406 1581 1522 
L 1381 1569 
Q 847 1681 609 1914 
Q 372 2147 372 2553 
Q 372 3047 722 3315 
Q 1072 3584 1716 3584 
Q 2034 3584 2315 3537 
Q 2597 3491 2834 3397 
z
" transform="scale(0.015625)"/>
      <path id="DejaVuSans-75" d="M 544 1381 
L 544 3500 
L 1119 3500 
L 1119 1403 
Q 1119 906 1312 657 
Q 1506 409 1894 409 
Q 2359 409 2629 706 
Q 2900 1003 2900 1516 
L 2900 3500 
L 3475 3500 
L 3475 0 
L 2900 0 
L 2900 538 
Q 2691 219 2414 64 
Q 2138 -91 1772 -91 
Q 1169 -91 856 284 
Q 544 659 544 1381 
z
M 1991 3584 
L 1991 3584 
z
" transform="scale(0.015625)"/>
      <path id="DejaVuSans-62" d="M 3116 1747 
Q 3116 2381 2855 2742 
Q 2594 3103 2138 3103 
Q 1681 3103 1420 2742 
Q 1159 2381 1159 1747 
Q 1159 1113 1420 752 
Q 1681 391 2138 391 
Q 2594 391 2855 752 
Q 3116 1113 3116 1747 
z
M 1159 2969 
Q 1341 3281 1617 3432 
Q 1894 3584 2278 3584 
Q 2916 3584 3314 3078 
Q 3713 2572 3713 1747 
Q 3713 922 3314 415 
Q 2916 -91 2278 -91 
Q 1894 -91 1617 61 
Q 1341 213 1159 525 
L 1159 0 
L 581 0 
L 581 4863 
L 1159 4863 
L 1159 2969 
z
" transform="scale(0.015625)"/>
      <path id="DejaVuSans-63" d="M 3122 3366 
L 3122 2828 
Q 2878 2963 2633 3030 
Q 2388 3097 2138 3097 
Q 1578 3097 1268 2742 
Q 959 2388 959 1747 
Q 959 1106 1268 751 
Q 1578 397 2138 397 
Q 2388 397 2633 464 
Q 2878 531 3122 666 
L 3122 134 
Q 2881 22 2623 -34 
Q 2366 -91 2075 -91 
Q 1284 -91 818 406 
Q 353 903 353 1747 
Q 353 2603 823 3093 
Q 1294 3584 2113 3584 
Q 2378 3584 2631 3529 
Q 2884 3475 3122 3366 
z
" transform="scale(0.015625)"/>
      <path id="DejaVuSans-72" d="M 2631 2963 
Q 2534 3019 2420 3045 
Q 2306 3072 2169 3072 
Q 1681 3072 1420 2755 
Q 1159 2438 1159 1844 
L 1159 0 
L 581 0 
L 581 3500 
L 1159 3500 
L 1159 2956 
Q 1341 3275 1631 3429 
Q 1922 3584 2338 3584 
Q 2397 3584 2469 3576 
Q 2541 3569 2628 3553 
L 2631 2963 
z
" transform="scale(0.015625)"/>
      <path id="DejaVuSans-69" d="M 603 3500 
L 1178 3500 
L 1178 0 
L 603 0 
L 603 3500 
z
M 603 4863 
L 1178 4863 
L 1178 4134 
L 603 4134 
L 603 4863 
z
" transform="scale(0.015625)"/>
      <path id="DejaVuSans-20" transform="scale(0.015625)"/>
      <path id="DejaVuSans-68" d="M 3513 2113 
L 3513 0 
L 2938 0 
L 2938 2094 
Q 2938 2591 2744 2837 
Q 2550 3084 2163 3084 
Q 1697 3084 1428 2787 
Q 1159 2491 1159 1978 
L 1159 0 
L 581 0 
L 581 4863 
L 1159 4863 
L 1159 2956 
Q 1366 3272 1645 3428 
Q 1925 3584 2291 3584 
Q 2894 3584 3203 3211 
Q 3513 2838 3513 2113 
z
" transform="scale(0.015625)"/>
      <path id="DejaVuSans-6f" d="M 1959 3097 
Q 1497 3097 1228 2736 
Q 959 2375 959 1747 
Q 959 1119 1226 758 
Q 1494 397 1959 397 
Q 2419 397 2687 759 
Q 2956 1122 2956 1747 
Q 2956 2369 2687 2733 
Q 2419 3097 1959 3097 
z
M 1959 3584 
Q 2709 3584 3137 3096 
Q 3566 2609 3566 1747 
Q 3566 888 3137 398 
Q 2709 -91 1959 -91 
Q 1206 -91 779 398 
Q 353 888 353 1747 
Q 353 2609 779 3096 
Q 1206 3584 1959 3584 
z
" transform="scale(0.015625)"/>
      <path id="DejaVuSans-79" d="M 2059 -325 
Q 1816 -950 1584 -1140 
Q 1353 -1331 966 -1331 
L 506 -1331 
L 506 -850 
L 844 -850 
Q 1081 -850 1212 -737 
Q 1344 -625 1503 -206 
L 1606 56 
L 191 3500 
L 800 3500 
L 1894 763 
L 2988 3500 
L 3597 3500 
L 2059 -325 
z
" transform="scale(0.015625)"/>
     </defs>
     <use xlink:href="#DejaVuSans-67"/>
     <use xlink:href="#DejaVuSans-65" transform="translate(63.476562 0)"/>
     <use xlink:href="#DejaVuSans-74" transform="translate(125 0)"/>
     <use xlink:href="#DejaVuSans-5f" transform="translate(164.208984 0)"/>
     <use xlink:href="#DejaVuSans-73" transform="translate(214.208984 0)"/>
     <use xlink:href="#DejaVuSans-75" transform="translate(266.308594 0)"/>
     <use xlink:href="#DejaVuSans-62" transform="translate(329.6875 0)"/>
     <use xlink:href="#DejaVuSans-73" transform="translate(393.164062 0)"/>
     <use xlink:href="#DejaVuSans-63" transform="translate(445.263672 0)"/>
     <use xlink:href="#DejaVuSans-72" transform="translate(500.244141 0)"/>
     <use xlink:href="#DejaVuSans-69" transform="translate(541.357422 0)"/>
     <use xlink:href="#DejaVuSans-62" transform="translate(569.140625 0)"/>
     <use xlink:href="#DejaVuSans-65" transform="translate(632.617188 0)"/>
     <use xlink:href="#DejaVuSans-20" transform="translate(694.140625 0)"/>
     <use xlink:href="#DejaVuSans-68" transform="translate(725.927734 0)"/>
     <use xlink:href="#DejaVuSans-69" transform="translate(789.306641 0)"/>
     <use xlink:href="#DejaVuSans-73" transform="translate(817.089844 0)"/>
     <use xlink:href="#DejaVuSans-74" transform="translate(869.189453 0)"/>
     <use xlink:href="#DejaVuSans-6f" transform="translate(908.398438 0)"/>
     <use xlink:href="#DejaVuSans-72" transform="translate(969.580078 0)"/>
     <use xlink:href="#DejaVuSans-79" transform="translate(1010.693359 0)"/>
    </g>
   </g>
   <g id="legend_1">
    <g id="line2d_33">
     <path d="M 815.08 328.498438 
L 825.08 328.498438 
L 835.08 328.498438 
" style="fill: none; stroke: #1f77b4; stroke-width: 1.5; stroke-linecap: square"/>
    </g>
    <g id="text_17">
     <!-- star -->
     <g style="fill: #a9a9a9" transform="translate(843.08 331.998438) scale(0.1 -0.1)">
      <defs>
       <path id="DejaVuSans-61" d="M 2194 1759 
Q 1497 1759 1228 1600 
Q 959 1441 959 1056 
Q 959 750 1161 570 
Q 1363 391 1709 391 
Q 2188 391 2477 730 
Q 2766 1069 2766 1631 
L 2766 1759 
L 2194 1759 
z
M 3341 1997 
L 3341 0 
L 2766 0 
L 2766 531 
Q 2569 213 2275 61 
Q 1981 -91 1556 -91 
Q 1019 -91 701 211 
Q 384 513 384 1019 
Q 384 1609 779 1909 
Q 1175 2209 1959 2209 
L 2766 2209 
L 2766 2266 
Q 2766 2663 2505 2880 
Q 2244 3097 1772 3097 
Q 1472 3097 1187 3025 
Q 903 2953 641 2809 
L 641 3341 
Q 956 3463 1253 3523 
Q 1550 3584 1831 3584 
Q 2591 3584 2966 3190 
Q 3341 2797 3341 1997 
z
" transform="scale(0.015625)"/>
      </defs>
      <use xlink:href="#DejaVuSans-73"/>
      <use xlink:href="#DejaVuSans-74" transform="translate(52.099609 0)"/>
      <use xlink:href="#DejaVuSans-61" transform="translate(91.308594 0)"/>
      <use xlink:href="#DejaVuSans-72" transform="translate(152.587891 0)"/>
     </g>
    </g>
    <g id="line2d_34">
     <path d="M 815.08 343.176562 
L 825.08 343.176562 
L 835.08 343.176562 
" style="fill: none; stroke: #ff7f0e; stroke-width: 1.5; stroke-linecap: square"/>
    </g>
    <g id="text_18">
     <!-- fork -->
     <g style="fill: #a9a9a9" transform="translate(843.08 346.676562) scale(0.1 -0.1)">
      <defs>
       <path id="DejaVuSans-66" d="M 2375 4863 
L 2375 4384 
L 1825 4384 
Q 1516 4384 1395 4259 
Q 1275 4134 1275 3809 
L 1275 3500 
L 2222 3500 
L 2222 3053 
L 1275 3053 
L 1275 0 
L 697 0 
L 697 3053 
L 147 3053 
L 147 3500 
L 697 3500 
L 697 3744 
Q 697 4328 969 4595 
Q 1241 4863 1831 4863 
L 2375 4863 
z
" transform="scale(0.015625)"/>
       <path id="DejaVuSans-6b" d="M 581 4863 
L 1159 4863 
L 1159 1991 
L 2875 3500 
L 3609 3500 
L 1753 1863 
L 3688 0 
L 2938 0 
L 1159 1709 
L 1159 0 
L 581 0 
L 581 4863 
z
" transform="scale(0.015625)"/>
      </defs>
      <use xlink:href="#DejaVuSans-66"/>
      <use xlink:href="#DejaVuSans-6f" transform="translate(35.205078 0)"/>
      <use xlink:href="#DejaVuSans-72" transform="translate(96.386719 0)"/>
      <use xlink:href="#DejaVuSans-6b" transform="translate(137.5 0)"/>
     </g>
    </g>
   </g>
  </g>
 </g>
 <defs>
  <clipPath id="pb49dc92b14">
   <rect x="108" y="43.2" width="669.6" height="277.2"/>
  </clipPath>
 </defs>
</svg>
