<?xml version="1.0" encoding="utf-8" standalone="no"?>
<!DOCTYPE svg PUBLIC "-//W3C//DTD SVG 1.1//EN"
  "http://www.w3.org/Graphics/SVG/1.1/DTD/svg11.dtd">
<svg xmlns:xlink="http://www.w3.org/1999/xlink" width="864pt" height="360pt" viewBox="0 0 864 360" xmlns="http://www.w3.org/2000/svg" version="1.1">
 <metadata>
  <rdf:RDF xmlns:dc="http://purl.org/dc/elements/1.1/" xmlns:cc="http://creativecommons.org/ns#" xmlns:rdf="http://www.w3.org/1999/02/22-rdf-syntax-ns#">
   <cc:Work>
    <dc:type rdf:resource="http://purl.org/dc/dcmitype/StillImage"/>
    <dc:date>2025-12-05T08:16:58.007624</dc:date>
    <dc:format>image/svg+xml</dc:format>
    <dc:creator>
     <cc:Agent>
      <dc:title>Matplotlib v3.10.7, https://matplotlib.org/</dc:title>
     </cc:Agent>
    </dc:creator>
   </cc:Work>
  </rdf:RDF>
 </metadata>
 <defs>
  <style type="text/css">*{stroke-linejoin: round; stroke-linecap: butt}</style>
 </defs>
 <g id="figure_1">
  <g id="patch_1">
   <path d="M 0 360 
L 864 360 
L 864 0 
L 0 0 
L 0 360 
z
" style="fill: none; opacity: 0"/>
  </g>
  <g id="axes_1">
   <g id="patch_2">
    <path d="M 108 320.4 
L 777.6 320.4 
L 777.6 43.2 
L 108 43.2 
L 108 320.4 
z
" style="fill: none; opacity: 0"/>
   </g>
   <g id="matplotlib.axis_1">
    <g id="xtick_1">
     <g id="line2d_1">
      <path d="M 129.658478 320.4 
L 129.658478 43.2 
" clip-path="url(#p1c3330715a)" style="fill: none; stroke-dasharray: 5.12,1.28,0.8,1.28; stroke-dashoffset: 0; stroke: #b0b0b0; stroke-width: 0.8"/>
     </g>
     <g id="line2d_2">
      <defs>
       <path id="mb91a5a058e" d="M 0 0 
L 0 3.5 
" style="stroke: #a9a9a9; stroke-width: 0.8"/>
      </defs>
      <g>
       <use xlink:href="#mb91a5a058e" x="129.658478" y="320.4" style="fill: #a9a9a9; stroke: #a9a9a9; stroke-width: 0.8"/>
      </g>
     </g>
     <g id="text_1">
      <!-- 2021-07 -->
      <g style="fill: #a9a9a9" transform="translate(108.767072 334.998438) scale(0.1 -0.1)">
       <defs>
        <path id="DejaVuSans-32" d="M 1228 531 
L 3431 531 
L 3431 0 
L 469 0 
L 469 531 
Q 828 903 1448 1529 
Q 2069 2156 2228 2338 
Q 2531 2678 2651 2914 
Q 2772 3150 2772 3378 
Q 2772 3750 2511 3984 
Q 2250 4219 1831 4219 
Q 1534 4219 1204 4116 
Q 875 4013 500 3803 
L 500 4441 
Q 881 4594 1212 4672 
Q 1544 4750 1819 4750 
Q 2544 4750 2975 4387 
Q 3406 4025 3406 3419 
Q 3406 3131 3298 2873 
Q 3191 2616 2906 2266 
Q 2828 2175 2409 1742 
Q 1991 1309 1228 531 
z
" transform="scale(0.015625)"/>
        <path id="DejaVuSans-30" d="M 2034 4250 
Q 1547 4250 1301 3770 
Q 1056 3291 1056 2328 
Q 1056 1369 1301 889 
Q 1547 409 2034 409 
Q 2525 409 2770 889 
Q 3016 1369 3016 2328 
Q 3016 3291 2770 3770 
Q 2525 4250 2034 4250 
z
M 2034 4750 
Q 2819 4750 3233 4129 
Q 3647 3509 3647 2328 
Q 3647 1150 3233 529 
Q 2819 -91 2034 -91 
Q 1250 -91 836 529 
Q 422 1150 422 2328 
Q 422 3509 836 4129 
Q 1250 4750 2034 4750 
z
" transform="scale(0.015625)"/>
        <path id="DejaVuSans-31" d="M 794 531 
L 1825 531 
L 1825 4091 
L 703 3866 
L 703 4441 
L 1819 4666 
L 2450 4666 
L 2450 531 
L 3481 531 
L 3481 0 
L 794 0 
L 794 531 
z
" transform="scale(0.015625)"/>
        <path id="DejaVuSans-2d" d="M 313 2009 
L 1997 2009 
L 1997 1497 
L 313 1497 
L 313 2009 
z
" transform="scale(0.015625)"/>
        <path id="DejaVuSans-37" d="M 525 4666 
L 3525 4666 
L 3525 4397 
L 1831 0 
L 1172 0 
L 2766 4134 
L 525 4134 
L 525 4666 
z
" transform="scale(0.015625)"/>
       </defs>
       <use xlink:href="#DejaVuSans-32"/>
       <use xlink:href="#DejaVuSans-30" transform="translate(63.623047 0)"/>
       <use xlink:href="#DejaVuSans-32" transform="translate(127.246094 0)"/>
       <use xlink:href="#DejaVuSans-31" transform="translate(190.869141 0)"/>
       <use xlink:href="#DejaVuSans-2d" transform="translate(254.492188 0)"/>
       <use xlink:href="#DejaVuSans-30" transform="translate(290.576172 0)"/>
       <use xlink:href="#DejaVuSans-37" transform="translate(354.199219 0)"/>
      </g>
     </g>
    </g>
    <g id="xtick_2">
     <g id="line2d_3">
      <path d="M 199.881562 320.4 
L 199.881562 43.2 
" clip-path="url(#p1c3330715a)" style="fill: none; stroke-dasharray: 5.12,1.28,0.8,1.28; stroke-dashoffset: 0; stroke: #b0b0b0; stroke-width: 0.8"/>
     </g>
     <g id="line2d_4">
      <g>
       <use xlink:href="#mb91a5a058e" x="199.881562" y="320.4" style="fill: #a9a9a9; stroke: #a9a9a9; stroke-width: 0.8"/>
      </g>
     </g>
     <g id="text_2">
      <!-- 2022-01 -->
      <g style="fill: #a9a9a9" transform="translate(178.990155 334.998438) scale(0.1 -0.1)">
       <use xlink:href="#DejaVuSans-32"/>
       <use xlink:href="#DejaVuSans-30" transform="translate(63.623047 0)"/>
       <use xlink:href="#DejaVuSans-32" transform="translate(127.246094 0)"/>
       <use xlink:href="#DejaVuSans-32" transform="translate(190.869141 0)"/>
       <use xlink:href="#DejaVuSans-2d" transform="translate(254.492188 0)"/>
       <use xlink:href="#DejaVuSans-30" transform="translate(290.576172 0)"/>
       <use xlink:href="#DejaVuSans-31" transform="translate(354.199219 0)"/>
      </g>
     </g>
    </g>
    <g id="xtick_3">
     <g id="line2d_5">
      <path d="M 268.959704 320.4 
L 268.959704 43.2 
" clip-path="url(#p1c3330715a)" style="fill: none; stroke-dasharray: 5.12,1.28,0.8,1.28; stroke-dashoffset: 0; stroke: #b0b0b0; stroke-width: 0.8"/>
     </g>
     <g id="line2d_6">
      <g>
       <use xlink:href="#mb91a5a058e" x="268.959704" y="320.4" style="fill: #a9a9a9; stroke: #a9a9a9; stroke-width: 0.8"/>
      </g>
     </g>
     <g id="text_3">
      <!-- 2022-07 -->
      <g style="fill: #a9a9a9" transform="translate(248.068297 334.998438) scale(0.1 -0.1)">
       <use xlink:href="#DejaVuSans-32"/>
       <use xlink:href="#DejaVuSans-30" transform="translate(63.623047 0)"/>
       <use xlink:href="#DejaVuSans-32" transform="translate(127.246094 0)"/>
       <use xlink:href="#DejaVuSans-32" transform="translate(190.869141 0)"/>
       <use xlink:href="#DejaVuSans-2d" transform="translate(254.492188 0)"/>
       <use xlink:href="#DejaVuSans-30" transform="translate(290.576172 0)"/>
       <use xlink:href="#DejaVuSans-37" transform="translate(354.199219 0)"/>
      </g>
     </g>
    </g>
    <g id="xtick_4">
     <g id="line2d_7">
      <path d="M 339.182787 320.4 
L 339.182787 43.2 
" clip-path="url(#p1c3330715a)" style="fill: none; stroke-dasharray: 5.12,1.28,0.8,1.28; stroke-dashoffset: 0; stroke: #b0b0b0; stroke-width: 0.8"/>
     </g>
     <g id="line2d_8">
      <g>
       <use xlink:href="#mb91a5a058e" x="339.182787" y="320.4" style="fill: #a9a9a9; stroke: #a9a9a9; stroke-width: 0.8"/>
      </g>
     </g>
     <g id="text_4">
      <!-- 2023-01 -->
      <g style="fill: #a9a9a9" transform="translate(318.291381 334.998438) scale(0.1 -0.1)">
       <defs>
        <path id="DejaVuSans-33" d="M 2597 2516 
Q 3050 2419 3304 2112 
Q 3559 1806 3559 1356 
Q 3559 666 3084 287 
Q 2609 -91 1734 -91 
Q 1441 -91 1130 -33 
Q 819 25 488 141 
L 488 750 
Q 750 597 1062 519 
Q 1375 441 1716 441 
Q 2309 441 2620 675 
Q 2931 909 2931 1356 
Q 2931 1769 2642 2001 
Q 2353 2234 1838 2234 
L 1294 2234 
L 1294 2753 
L 1863 2753 
Q 2328 2753 2575 2939 
Q 2822 3125 2822 3475 
Q 2822 3834 2567 4026 
Q 2313 4219 1838 4219 
Q 1578 4219 1281 4162 
Q 984 4106 628 3988 
L 628 4550 
Q 988 4650 1302 4700 
Q 1616 4750 1894 4750 
Q 2613 4750 3031 4423 
Q 3450 4097 3450 3541 
Q 3450 3153 3228 2886 
Q 3006 2619 2597 2516 
z
" transform="scale(0.015625)"/>
       </defs>
       <use xlink:href="#DejaVuSans-32"/>
       <use xlink:href="#DejaVuSans-30" transform="translate(63.623047 0)"/>
       <use xlink:href="#DejaVuSans-32" transform="translate(127.246094 0)"/>
       <use xlink:href="#DejaVuSans-33" transform="translate(190.869141 0)"/>
       <use xlink:href="#DejaVuSans-2d" transform="translate(254.492188 0)"/>
       <use xlink:href="#DejaVuSans-30" transform="translate(290.576172 0)"/>
       <use xlink:href="#DejaVuSans-31" transform="translate(354.199219 0)"/>
      </g>
     </g>
    </g>
    <g id="xtick_5">
     <g id="line2d_9">
      <path d="M 408.260929 320.4 
L 408.260929 43.2 
" clip-path="url(#p1c3330715a)" style="fill: none; stroke-dasharray: 5.12,1.28,0.8,1.28; stroke-dashoffset: 0; stroke: #b0b0b0; stroke-width: 0.8"/>
     </g>
     <g id="line2d_10">
      <g>
       <use xlink:href="#mb91a5a058e" x="408.260929" y="320.4" style="fill: #a9a9a9; stroke: #a9a9a9; stroke-width: 0.8"/>
      </g>
     </g>
     <g id="text_5">
      <!-- 2023-07 -->
      <g style="fill: #a9a9a9" transform="translate(387.369523 334.998438) scale(0.1 -0.1)">
       <use xlink:href="#DejaVuSans-32"/>
       <use xlink:href="#DejaVuSans-30" transform="translate(63.623047 0)"/>
       <use xlink:href="#DejaVuSans-32" transform="translate(127.246094 0)"/>
       <use xlink:href="#DejaVuSans-33" transform="translate(190.869141 0)"/>
       <use xlink:href="#DejaVuSans-2d" transform="translate(254.492188 0)"/>
       <use xlink:href="#DejaVuSans-30" transform="translate(290.576172 0)"/>
       <use xlink:href="#DejaVuSans-37" transform="translate(354.199219 0)"/>
      </g>
     </g>
    </g>
    <g id="xtick_6">
     <g id="line2d_11">
      <path d="M 478.484013 320.4 
L 478.484013 43.2 
" clip-path="url(#p1c3330715a)" style="fill: none; stroke-dasharray: 5.12,1.28,0.8,1.28; stroke-dashoffset: 0; stroke: #b0b0b0; stroke-width: 0.8"/>
     </g>
     <g id="line2d_12">
      <g>
       <use xlink:href="#mb91a5a058e" x="478.484013" y="320.4" style="fill: #a9a9a9; stroke: #a9a9a9; stroke-width: 0.8"/>
      </g>
     </g>
     <g id="text_6">
      <!-- 2024-01 -->
      <g style="fill: #a9a9a9" transform="translate(457.592606 334.998438) scale(0.1 -0.1)">
       <defs>
        <path id="DejaVuSans-34" d="M 2419 4116 
L 825 1625 
L 2419 1625 
L 2419 4116 
z
M 2253 4666 
L 3047 4666 
L 3047 1625 
L 3713 1625 
L 3713 1100 
L 3047 1100 
L 3047 0 
L 2419 0 
L 2419 1100 
L 313 1100 
L 313 1709 
L 2253 4666 
z
" transform="scale(0.015625)"/>
       </defs>
       <use xlink:href="#DejaVuSans-32"/>
       <use xlink:href="#DejaVuSans-30" transform="translate(63.623047 0)"/>
       <use xlink:href="#DejaVuSans-32" transform="translate(127.246094 0)"/>
       <use xlink:href="#DejaVuSans-34" transform="translate(190.869141 0)"/>
       <use xlink:href="#DejaVuSans-2d" transform="translate(254.492188 0)"/>
       <use xlink:href="#DejaVuSans-30" transform="translate(290.576172 0)"/>
       <use xlink:href="#DejaVuSans-31" transform="translate(354.199219 0)"/>
      </g>
     </g>
    </g>
    <g id="xtick_7">
     <g id="line2d_13">
      <path d="M 547.943802 320.4 
L 547.943802 43.2 
" clip-path="url(#p1c3330715a)" style="fill: none; stroke-dasharray: 5.12,1.28,0.8,1.28; stroke-dashoffset: 0; stroke: #b0b0b0; stroke-width: 0.8"/>
     </g>
     <g id="line2d_14">
      <g>
       <use xlink:href="#mb91a5a058e" x="547.943802" y="320.4" style="fill: #a9a9a9; stroke: #a9a9a9; stroke-width: 0.8"/>
      </g>
     </g>
     <g id="text_7">
      <!-- 2024-07 -->
      <g style="fill: #a9a9a9" transform="translate(527.052395 334.998438) scale(0.1 -0.1)">
       <use xlink:href="#DejaVuSans-32"/>
       <use xlink:href="#DejaVuSans-30" transform="translate(63.623047 0)"/>
       <use xlink:href="#DejaVuSans-32" transform="translate(127.246094 0)"/>
       <use xlink:href="#DejaVuSans-34" transform="translate(190.869141 0)"/>
       <use xlink:href="#DejaVuSans-2d" transform="translate(254.492188 0)"/>
       <use xlink:href="#DejaVuSans-30" transform="translate(290.576172 0)"/>
       <use xlink:href="#DejaVuSans-37" transform="translate(354.199219 0)"/>
      </g>
     </g>
    </g>
    <g id="xtick_8">
     <g id="line2d_15">
      <path d="M 618.166885 320.4 
L 618.166885 43.2 
" clip-path="url(#p1c3330715a)" style="fill: none; stroke-dasharray: 5.12,1.28,0.8,1.28; stroke-dashoffset: 0; stroke: #b0b0b0; stroke-width: 0.8"/>
     </g>
     <g id="line2d_16">
      <g>
       <use xlink:href="#mb91a5a058e" x="618.166885" y="320.4" style="fill: #a9a9a9; stroke: #a9a9a9; stroke-width: 0.8"/>
      </g>
     </g>
     <g id="text_8">
      <!-- 2025-01 -->
      <g style="fill: #a9a9a9" transform="translate(597.275479 334.998438) scale(0.1 -0.1)">
       <defs>
        <path id="DejaVuSans-35" d="M 691 4666 
L 3169 4666 
L 3169 4134 
L 1269 4134 
L 1269 2991 
Q 1406 3038 1543 3061 
Q 1681 3084 1819 3084 
Q 2600 3084 3056 2656 
Q 3513 2228 3513 1497 
Q 3513 744 3044 326 
Q 2575 -91 1722 -91 
Q 1428 -91 1123 -41 
Q 819 9 494 109 
L 494 744 
Q 775 591 1075 516 
Q 1375 441 1709 441 
Q 2250 441 2565 725 
Q 2881 1009 2881 1497 
Q 2881 1984 2565 2268 
Q 2250 2553 1709 2553 
Q 1456 2553 1204 2497 
Q 953 2441 691 2322 
L 691 4666 
z
" transform="scale(0.015625)"/>
       </defs>
       <use xlink:href="#DejaVuSans-32"/>
       <use xlink:href="#DejaVuSans-30" transform="translate(63.623047 0)"/>
       <use xlink:href="#DejaVuSans-32" transform="translate(127.246094 0)"/>
       <use xlink:href="#DejaVuSans-35" transform="translate(190.869141 0)"/>
       <use xlink:href="#DejaVuSans-2d" transform="translate(254.492188 0)"/>
       <use xlink:href="#DejaVuSans-30" transform="translate(290.576172 0)"/>
       <use xlink:href="#DejaVuSans-31" transform="translate(354.199219 0)"/>
      </g>
     </g>
    </g>
    <g id="xtick_9">
     <g id="line2d_17">
      <path d="M 687.245027 320.4 
L 687.245027 43.2 
" clip-path="url(#p1c3330715a)" style="fill: none; stroke-dasharray: 5.12,1.28,0.8,1.28; stroke-dashoffset: 0; stroke: #b0b0b0; stroke-width: 0.8"/>
     </g>
     <g id="line2d_18">
      <g>
       <use xlink:href="#mb91a5a058e" x="687.245027" y="320.4" style="fill: #a9a9a9; stroke: #a9a9a9; stroke-width: 0.8"/>
      </g>
     </g>
     <g id="text_9">
      <!-- 2025-07 -->
      <g style="fill: #a9a9a9" transform="translate(666.353621 334.998438) scale(0.1 -0.1)">
       <use xlink:href="#DejaVuSans-32"/>
       <use xlink:href="#DejaVuSans-30" transform="translate(63.623047 0)"/>
       <use xlink:href="#DejaVuSans-32" transform="translate(127.246094 0)"/>
       <use xlink:href="#DejaVuSans-35" transform="translate(190.869141 0)"/>
       <use xlink:href="#DejaVuSans-2d" transform="translate(254.492188 0)"/>
       <use xlink:href="#DejaVuSans-30" transform="translate(290.576172 0)"/>
       <use xlink:href="#DejaVuSans-37" transform="translate(354.199219 0)"/>
      </g>
     </g>
    </g>
    <g id="xtick_10">
     <g id="line2d_19">
      <path d="M 757.468111 320.4 
L 757.468111 43.2 
" clip-path="url(#p1c3330715a)" style="fill: none; stroke-dasharray: 5.12,1.28,0.8,1.28; stroke-dashoffset: 0; stroke: #b0b0b0; stroke-width: 0.8"/>
     </g>
     <g id="line2d_20">
      <g>
       <use xlink:href="#mb91a5a058e" x="757.468111" y="320.4" style="fill: #a9a9a9; stroke: #a9a9a9; stroke-width: 0.8"/>
      </g>
     </g>
     <g id="text_10">
      <!-- 2026-01 -->
      <g style="fill: #a9a9a9" transform="translate(736.576704 334.998438) scale(0.1 -0.1)">
       <defs>
        <path id="DejaVuSans-36" d="M 2113 2584 
Q 1688 2584 1439 2293 
Q 1191 2003 1191 1497 
Q 1191 994 1439 701 
Q 1688 409 2113 409 
Q 2538 409 2786 701 
Q 3034 994 3034 1497 
Q 3034 2003 2786 2293 
Q 2538 2584 2113 2584 
z
M 3366 4563 
L 3366 3988 
Q 3128 4100 2886 4159 
Q 2644 4219 2406 4219 
Q 1781 4219 1451 3797 
Q 1122 3375 1075 2522 
Q 1259 2794 1537 2939 
Q 1816 3084 2150 3084 
Q 2853 3084 3261 2657 
Q 3669 2231 3669 1497 
Q 3669 778 3244 343 
Q 2819 -91 2113 -91 
Q 1303 -91 875 529 
Q 447 1150 447 2328 
Q 447 3434 972 4092 
Q 1497 4750 2381 4750 
Q 2619 4750 2861 4703 
Q 3103 4656 3366 4563 
z
" transform="scale(0.015625)"/>
       </defs>
       <use xlink:href="#DejaVuSans-32"/>
       <use xlink:href="#DejaVuSans-30" transform="translate(63.623047 0)"/>
       <use xlink:href="#DejaVuSans-32" transform="translate(127.246094 0)"/>
       <use xlink:href="#DejaVuSans-36" transform="translate(190.869141 0)"/>
       <use xlink:href="#DejaVuSans-2d" transform="translate(254.492188 0)"/>
       <use xlink:href="#DejaVuSans-30" transform="translate(290.576172 0)"/>
       <use xlink:href="#DejaVuSans-31" transform="translate(354.199219 0)"/>
      </g>
     </g>
    </g>
   </g>
   <g id="matplotlib.axis_2">
    <g id="ytick_1">
     <g id="line2d_21">
      <path d="M 108 307.830025 
L 777.6 307.830025 
" clip-path="url(#p1c3330715a)" style="fill: none; stroke-dasharray: 5.12,1.28,0.8,1.28; stroke-dashoffset: 0; stroke: #b0b0b0; stroke-width: 0.8"/>
     </g>
     <g id="line2d_22">
      <defs>
       <path id="m732c4cbce5" d="M 0 0 
L -3.5 0 
" style="stroke: #a9a9a9; stroke-width: 0.8"/>
      </defs>
      <g>
       <use xlink:href="#m732c4cbce5" x="108" y="307.830025" style="fill: #a9a9a9; stroke: #a9a9a9; stroke-width: 0.8"/>
      </g>
     </g>
     <g id="text_11">
      <!-- 0 -->
      <g style="fill: #a9a9a9" transform="translate(94.6375 311.629244) scale(0.1 -0.1)">
       <use xlink:href="#DejaVuSans-30"/>
      </g>
     </g>
    </g>
    <g id="ytick_2">
     <g id="line2d_23">
      <path d="M 108 277.805004 
L 777.6 277.805004 
" clip-path="url(#p1c3330715a)" style="fill: none; stroke-dasharray: 5.12,1.28,0.8,1.28; stroke-dashoffset: 0; stroke: #b0b0b0; stroke-width: 0.8"/>
     </g>
     <g id="line2d_24">
      <g>
       <use xlink:href="#m732c4cbce5" x="108" y="277.805004" style="fill: #a9a9a9; stroke: #a9a9a9; stroke-width: 0.8"/>
      </g>
     </g>
     <g id="text_12">
      <!-- 1000 -->
      <g style="fill: #a9a9a9" transform="translate(75.55 281.604223) scale(0.1 -0.1)">
       <use xlink:href="#DejaVuSans-31"/>
       <use xlink:href="#DejaVuSans-30" transform="translate(63.623047 0)"/>
       <use xlink:href="#DejaVuSans-30" transform="translate(127.246094 0)"/>
       <use xlink:href="#DejaVuSans-30" transform="translate(190.869141 0)"/>
      </g>
     </g>
    </g>
    <g id="ytick_3">
     <g id="line2d_25">
      <path d="M 108 247.779983 
L 777.6 247.779983 
" clip-path="url(#p1c3330715a)" style="fill: none; stroke-dasharray: 5.12,1.28,0.8,1.28; stroke-dashoffset: 0; stroke: #b0b0b0; stroke-width: 0.8"/>
     </g>
     <g id="line2d_26">
      <g>
       <use xlink:href="#m732c4cbce5" x="108" y="247.779983" style="fill: #a9a9a9; stroke: #a9a9a9; stroke-width: 0.8"/>
      </g>
     </g>
     <g id="text_13">
      <!-- 2000 -->
      <g style="fill: #a9a9a9" transform="translate(75.55 251.579202) scale(0.1 -0.1)">
       <use xlink:href="#DejaVuSans-32"/>
       <use xlink:href="#DejaVuSans-30" transform="translate(63.623047 0)"/>
       <use xlink:href="#DejaVuSans-30" transform="translate(127.246094 0)"/>
       <use xlink:href="#DejaVuSans-30" transform="translate(190.869141 0)"/>
      </g>
     </g>
    </g>
    <g id="ytick_4">
     <g id="line2d_27">
      <path d="M 108 217.754962 
L 777.6 217.754962 
" clip-path="url(#p1c3330715a)" style="fill: none; stroke-dasharray: 5.12,1.28,0.8,1.28; stroke-dashoffset: 0; stroke: #b0b0b0; stroke-width: 0.8"/>
     </g>
     <g id="line2d_28">
      <g>
       <use xlink:href="#m732c4cbce5" x="108" y="217.754962" style="fill: #a9a9a9; stroke: #a9a9a9; stroke-width: 0.8"/>
      </g>
     </g>
     <g id="text_14">
      <!-- 3000 -->
      <g style="fill: #a9a9a9" transform="translate(75.55 221.554181) scale(0.1 -0.1)">
       <use xlink:href="#DejaVuSans-33"/>
       <use xlink:href="#DejaVuSans-30" transform="translate(63.623047 0)"/>
       <use xlink:href="#DejaVuSans-30" transform="translate(127.246094 0)"/>
       <use xlink:href="#DejaVuSans-30" transform="translate(190.869141 0)"/>
      </g>
     </g>
    </g>
    <g id="ytick_5">
     <g id="line2d_29">
      <path d="M 108 187.729942 
L 777.6 187.729942 
" clip-path="url(#p1c3330715a)" style="fill: none; stroke-dasharray: 5.12,1.28,0.8,1.28; stroke-dashoffset: 0; stroke: #b0b0b0; stroke-width: 0.8"/>
     </g>
     <g id="line2d_30">
      <g>
       <use xlink:href="#m732c4cbce5" x="108" y="187.729942" style="fill: #a9a9a9; stroke: #a9a9a9; stroke-width: 0.8"/>
      </g>
     </g>
     <g id="text_15">
      <!-- 4000 -->
      <g style="fill: #a9a9a9" transform="translate(75.55 191.52916) scale(0.1 -0.1)">
       <use xlink:href="#DejaVuSans-34"/>
       <use xlink:href="#DejaVuSans-30" transform="translate(63.623047 0)"/>
       <use xlink:href="#DejaVuSans-30" transform="translate(127.246094 0)"/>
       <use xlink:href="#DejaVuSans-30" transform="translate(190.869141 0)"/>
      </g>
     </g>
    </g>
    <g id="ytick_6">
     <g id="line2d_31">
      <path d="M 108 157.704921 
L 777.6 157.704921 
" clip-path="url(#p1c3330715a)" style="fill: none; stroke-dasharray: 5.12,1.28,0.8,1.28; stroke-dashoffset: 0; stroke: #b0b0b0; stroke-width: 0.8"/>
     </g>
     <g id="line2d_32">
      <g>
       <use xlink:href="#m732c4cbce5" x="108" y="157.704921" style="fill: #a9a9a9; stroke: #a9a9a9; stroke-width: 0.8"/>
      </g>
     </g>
     <g id="text_16">
      <!-- 5000 -->
      <g style="fill: #a9a9a9" transform="translate(75.55 161.50414) scale(0.1 -0.1)">
       <use xlink:href="#DejaVuSans-35"/>
       <use xlink:href="#DejaVuSans-30" transform="translate(63.623047 0)"/>
       <use xlink:href="#DejaVuSans-30" transform="translate(127.246094 0)"/>
       <use xlink:href="#DejaVuSans-30" transform="translate(190.869141 0)"/>
      </g>
     </g>
    </g>
    <g id="ytick_7">
     <g id="line2d_33">
      <path d="M 108 127.6799 
L 777.6 127.6799 
" clip-path="url(#p1c3330715a)" style="fill: none; stroke-dasharray: 5.12,1.28,0.8,1.28; stroke-dashoffset: 0; stroke: #b0b0b0; stroke-width: 0.8"/>
     </g>
     <g id="line2d_34">
      <g>
       <use xlink:href="#m732c4cbce5" x="108" y="127.6799" style="fill: #a9a9a9; stroke: #a9a9a9; stroke-width: 0.8"/>
      </g>
     </g>
     <g id="text_17">
      <!-- 6000 -->
      <g style="fill: #a9a9a9" transform="translate(75.55 131.479119) scale(0.1 -0.1)">
       <use xlink:href="#DejaVuSans-36"/>
       <use xlink:href="#DejaVuSans-30" transform="translate(63.623047 0)"/>
       <use xlink:href="#DejaVuSans-30" transform="translate(127.246094 0)"/>
       <use xlink:href="#DejaVuSans-30" transform="translate(190.869141 0)"/>
      </g>
     </g>
    </g>
    <g id="ytick_8">
     <g id="line2d_35">
      <path d="M 108 97.654879 
L 777.6 97.654879 
" clip-path="url(#p1c3330715a)" style="fill: none; stroke-dasharray: 5.12,1.28,0.8,1.28; stroke-dashoffset: 0; stroke: #b0b0b0; stroke-width: 0.8"/>
     </g>
     <g id="line2d_36">
      <g>
       <use xlink:href="#m732c4cbce5" x="108" y="97.654879" style="fill: #a9a9a9; stroke: #a9a9a9; stroke-width: 0.8"/>
      </g>
     </g>
     <g id="text_18">
      <!-- 7000 -->
      <g style="fill: #a9a9a9" transform="translate(75.55 101.454098) scale(0.1 -0.1)">
       <use xlink:href="#DejaVuSans-37"/>
       <use xlink:href="#DejaVuSans-30" transform="translate(63.623047 0)"/>
       <use xlink:href="#DejaVuSans-30" transform="translate(127.246094 0)"/>
       <use xlink:href="#DejaVuSans-30" transform="translate(190.869141 0)"/>
      </g>
     </g>
    </g>
    <g id="ytick_9">
     <g id="line2d_37">
      <path d="M 108 67.629858 
L 777.6 67.629858 
" clip-path="url(#p1c3330715a)" style="fill: none; stroke-dasharray: 5.12,1.28,0.8,1.28; stroke-dashoffset: 0; stroke: #b0b0b0; stroke-width: 0.8"/>
     </g>
     <g id="line2d_38">
      <g>
       <use xlink:href="#m732c4cbce5" x="108" y="67.629858" style="fill: #a9a9a9; stroke: #a9a9a9; stroke-width: 0.8"/>
      </g>
     </g>
     <g id="text_19">
      <!-- 8000 -->
      <g style="fill: #a9a9a9" transform="translate(75.55 71.429077) scale(0.1 -0.1)">
       <defs>
        <path id="DejaVuSans-38" d="M 2034 2216 
Q 1584 2216 1326 1975 
Q 1069 1734 1069 1313 
Q 1069 891 1326 650 
Q 1584 409 2034 409 
Q 2484 409 2743 651 
Q 3003 894 3003 1313 
Q 3003 1734 2745 1975 
Q 2488 2216 2034 2216 
z
M 1403 2484 
Q 997 2584 770 2862 
Q 544 3141 544 3541 
Q 544 4100 942 4425 
Q 1341 4750 2034 4750 
Q 2731 4750 3128 4425 
Q 3525 4100 3525 3541 
Q 3525 3141 3298 2862 
Q 3072 2584 2669 2484 
Q 3125 2378 3379 2068 
Q 3634 1759 3634 1313 
Q 3634 634 3220 271 
Q 2806 -91 2034 -91 
Q 1263 -91 848 271 
Q 434 634 434 1313 
Q 434 1759 690 2068 
Q 947 2378 1403 2484 
z
M 1172 3481 
Q 1172 3119 1398 2916 
Q 1625 2713 2034 2713 
Q 2441 2713 2670 2916 
Q 2900 3119 2900 3481 
Q 2900 3844 2670 4047 
Q 2441 4250 2034 4250 
Q 1625 4250 1398 4047 
Q 1172 3844 1172 3481 
z
" transform="scale(0.015625)"/>
       </defs>
       <use xlink:href="#DejaVuSans-38"/>
       <use xlink:href="#DejaVuSans-30" transform="translate(63.623047 0)"/>
       <use xlink:href="#DejaVuSans-30" transform="translate(127.246094 0)"/>
       <use xlink:href="#DejaVuSans-30" transform="translate(190.869141 0)"/>
      </g>
     </g>
    </g>
   </g>
   <g id="line2d_39">
    <path d="M 138.436364 307.73995 
L 140.726247 307.529775 
L 141.107894 307.349625 
L 142.634483 307.13945 
L 144.161072 306.809174 
L 144.924366 306.689074 
L 146.832602 306.508924 
L 147.595896 306.208674 
L 147.977543 305.668224 
L 148.359191 305.397998 
L 148.740838 304.497248 
L 149.122485 304.437198 
L 149.885779 303.956797 
L 150.649074 303.386322 
L 152.175663 302.245371 
L 152.55731 302.095246 
L 153.320604 301.614846 
L 154.465546 301.04437 
L 154.847193 300.38382 
L 155.610487 299.783319 
L 156.373782 299.543119 
L 157.518723 299.362969 
L 159.808606 299.002669 
L 160.190254 298.822519 
L 162.861784 298.582319 
L 164.388373 298.191993 
L 167.44155 297.741618 
L 167.823197 297.531443 
L 168.204845 297.471393 
L 168.968139 297.201168 
L 171.639669 296.720767 
L 172.402964 296.480567 
L 175.837789 295.880067 
L 176.601083 295.699917 
L 178.127672 295.489741 
L 178.890966 295.249541 
L 179.272613 294.679066 
L 180.417555 294.198666 
L 181.562496 293.86839 
L 181.944144 293.658215 
L 182.707438 293.50809 
L 184.234027 293.02769 
L 184.997321 292.96764 
L 185.760616 292.757465 
L 187.287204 292.337114 
L 187.668852 292.307089 
L 188.432146 291.916764 
L 188.813793 291.856714 
L 189.19544 291.646539 
L 193.393559 290.925938 
L 194.920148 290.445538 
L 195.301795 290.175313 
L 197.210031 289.514762 
L 197.973326 288.944287 
L 199.118267 288.704087 
L 204.079681 287.202836 
L 204.461328 287.142786 
L 205.987917 286.51226 
L 206.369564 286.45221 
L 207.132858 286.121935 
L 207.896153 286.09191 
L 209.041094 285.73161 
L 209.422742 285.73161 
L 209.804389 285.55146 
L 210.567683 285.461384 
L 210.94933 285.311259 
L 212.857566 285.221184 
L 213.239213 285.131109 
L 214.002508 284.710759 
L 215.147449 284.290409 
L 215.910744 283.870058 
L 217.055685 283.359633 
L 218.582274 282.548957 
L 218.963921 282.098582 
L 219.727216 280.837531 
L 220.108863 280.717431 
L 220.49051 280.717431 
L 222.017099 279.846706 
L 222.398746 279.756631 
L 222.780393 279.366305 
L 223.543688 279.03603 
L 224.306982 278.67573 
L 224.688629 278.195329 
L 225.070276 277.534779 
L 225.451924 277.294579 
L 225.833571 276.604003 
L 226.215218 276.153628 
L 228.505101 274.832527 
L 230.03169 273.391326 
L 230.413337 272.46055 
L 230.794984 271.86005 
L 231.176632 271.529775 
L 231.558279 271.349625 
L 236.138045 267.116097 
L 237.664634 266.125271 
L 238.046281 265.975146 
L 239.57287 265.014345 
L 239.954517 264.834195 
L 241.862753 262.972644 
L 242.626047 262.642369 
L 243.389342 262.101918 
L 243.770989 261.861718 
L 244.152636 261.801668 
L 245.297578 261.111093 
L 245.679225 260.660717 
L 247.587461 259.549791 
L 247.969108 259.399666 
L 249.11405 258.558966 
L 254.838757 256.397164 
L 255.602052 255.646539 
L 256.746993 255.046038 
L 257.510288 254.535613 
L 258.273582 254.295413 
L 258.655229 254.025188 
L 259.036877 253.905088 
L 260.181818 253.094412 
L 262.090054 252.644037 
L 263.234996 251.923436 
L 264.379937 251.653211 
L 264.761584 251.563136 
L 265.906526 250.69241 
L 267.433115 250.242035 
L 267.814762 249.91176 
L 270.104645 249.071059 
L 270.86794 248.920934 
L 271.631234 248.590659 
L 274.302764 247.539783 
L 275.066059 247.449708 
L 276.211 247.029358 
L 278.119236 246.038532 
L 280.409119 244.687406 
L 281.172414 244.477231 
L 282.317355 243.876731 
L 283.08065 243.726606 
L 283.843944 243.246205 
L 284.607239 243.03603 
L 285.75218 242.55563 
L 287.278769 242.345455 
L 288.042063 241.925104 
L 288.42371 241.564804 
L 288.805358 240.844204 
L 290.331946 240.393828 
L 291.858535 239.673228 
L 295.29336 238.081902 
L 296.056654 237.901751 
L 297.201596 237.301251 
L 297.583243 237.241201 
L 299.491479 236.250375 
L 300.254773 235.73995 
L 301.399715 235.49975 
L 303.307951 234.989324 
L 303.689598 234.659049 
L 304.452893 234.388824 
L 306.361129 233.578148 
L 306.742776 233.277898 
L 307.124423 233.127773 
L 307.887717 232.677398 
L 309.414306 232.166972 
L 310.1776 231.656547 
L 310.559248 231.236197 
L 310.940895 230.995997 
L 311.322542 230.905922 
L 312.085836 230.245371 
L 312.467484 230.185321 
L 312.849131 229.524771 
L 313.230778 229.344621 
L 313.612425 229.014345 
L 313.994072 228.954295 
L 314.757367 228.44387 
L 315.520661 228.173645 
L 315.902308 227.873394 
L 316.283956 227.723269 
L 317.810544 226.732444 
L 318.955486 226.131943 
L 319.71878 225.921768 
L 320.482075 225.471393 
L 320.863722 224.780817 
L 321.627016 224.180317 
L 322.008663 224.090242 
L 324.298547 222.949291 
L 325.061841 222.619016 
L 325.825135 222.04854 
L 326.970077 220.937615 
L 327.733371 220.457214 
L 328.115019 220.006839 
L 329.641607 218.895913 
L 330.404902 218.085238 
L 331.168196 217.815013 
L 331.93149 217.274562 
L 333.076432 216.644037 
L 333.458079 216.583987 
L 336.892904 214.782485 
L 337.656198 214.57231 
L 339.182787 214.03186 
L 339.564434 213.701585 
L 341.091023 213.071059 
L 341.47267 212.950959 
L 342.235965 212.440534 
L 342.999259 212.110259 
L 343.762553 211.539783 
L 344.525848 209.948457 
L 345.289142 209.047706 
L 346.434084 208.417181 
L 347.197378 208.086906 
L 347.579025 208.026856 
L 348.34232 207.666555 
L 349.868909 207.126105 
L 350.632203 206.67573 
L 351.395497 206.285405 
L 351.777144 206.165304 
L 354.067028 204.724103 
L 354.448675 204.273728 
L 355.593616 203.583153 
L 355.975264 203.433028 
L 356.738558 202.952627 
L 358.265147 202.081902 
L 358.646794 201.991827 
L 359.028441 201.661551 
L 361.699972 200.760801 
L 362.081619 200.490575 
L 362.844913 200.250375 
L 365.898091 198.749124 
L 366.661385 198.328774 
L 367.043032 198.148624 
L 367.806327 197.518098 
L 368.569621 197.307923 
L 368.951268 196.947623 
L 369.332915 196.887573 
L 370.09621 196.287073 
L 372.004446 195.116097 
L 372.76774 194.875897 
L 373.149387 194.635696 
L 373.531034 194.575646 
L 375.057623 193.825021 
L 376.202565 193.434696 
L 376.965859 193.314595 
L 378.492448 192.714095 
L 378.874095 192.68407 
L 380.400684 192.08357 
L 381.545626 191.242869 
L 381.927273 191.092744 
L 382.690567 190.642369 
L 383.072214 190.552294 
L 385.362097 189.201168 
L 385.743745 189.111093 
L 386.888686 188.390492 
L 388.033628 187.970142 
L 388.796922 187.699917 
L 390.323511 187.159466 
L 391.086805 186.889241 
L 392.613394 186.558966 
L 393.376689 186.318766 
L 395.284924 185.658215 
L 396.429866 185.297915 
L 396.811513 185.14779 
L 397.956455 184.96764 
L 400.246338 184.517264 
L 401.39128 184.247039 
L 401.772927 184.066889 
L 402.536221 183.916764 
L 403.299516 183.706589 
L 404.06281 183.346289 
L 404.444457 183.196163 
L 404.826104 183.196163 
L 409.024223 181.845038 
L 409.405871 181.634862 
L 409.787518 181.634862 
L 410.550812 181.334612 
L 410.932459 180.914262 
L 413.222343 179.923436 
L 414.748931 179.382986 
L 415.130579 179.142786 
L 416.27552 178.782485 
L 417.038814 178.57231 
L 417.420462 178.302085 
L 417.802109 178.21201 
L 418.183756 177.881735 
L 419.328698 177.641535 
L 420.091992 177.281234 
L 420.473639 176.800834 
L 424.671758 175.840033 
L 425.053406 175.840033 
L 425.8167 175.599833 
L 429.251525 174.699083 
L 429.633172 174.548957 
L 430.396466 174.398832 
L 432.304702 173.888407 
L 433.449644 173.528107 
L 435.35788 172.897581 
L 436.121174 172.567306 
L 436.884469 172.267056 
L 437.266116 171.996831 
L 438.02941 171.756631 
L 440.70094 170.705755 
L 442.227529 170.525605 
L 445.280707 169.354629 
L 445.662354 169.054379 
L 446.044001 168.964304 
L 446.425648 168.754128 
L 446.807296 168.724103 
L 451.005415 167.132777 
L 452.913651 166.592327 
L 453.676945 166.202002 
L 454.821887 165.931776 
L 456.348475 164.640701 
L 457.875064 163.950125 
L 459.401653 163.289575 
L 459.7833 163.1995 
L 460.164947 162.929274 
L 460.928242 162.689074 
L 461.309889 162.418849 
L 463.218125 161.758299 
L 467.034597 159.746622 
L 467.797891 159.386322 
L 468.179538 159.086072 
L 468.942833 158.815847 
L 471.232716 157.674896 
L 471.614363 157.584821 
L 472.759305 157.04437 
L 474.285893 156.50392 
L 475.049188 156.173645 
L 475.812482 156.053545 
L 476.194129 155.783319 
L 477.720718 155.483069 
L 478.484013 155.152794 
L 480.392249 154.222018 
L 485.353662 151.970142 
L 486.498604 151.579817 
L 486.880251 151.309591 
L 487.643545 151.219516 
L 488.025192 150.949291 
L 488.788487 150.829191 
L 489.551781 150.438866 
L 490.315076 150.198666 
L 491.841664 149.658215 
L 492.986606 149.237865 
L 494.894842 148.72744 
L 496.421431 148.066889 
L 497.184725 147.646539 
L 498.711314 146.835863 
L 499.474608 146.655713 
L 499.856255 146.415513 
L 500.237903 146.325438 
L 502.146139 145.364637 
L 505.199316 144.253711 
L 505.580963 144.133611 
L 506.344258 143.713261 
L 508.252494 143.022686 
L 510.542377 142.061885 
L 512.068966 141.311259 
L 515.885437 139.749958 
L 516.648732 139.359633 
L 517.030379 139.269558 
L 517.793673 138.969308 
L 518.175321 138.969308 
L 518.938615 138.609008 
L 520.465204 137.287907 
L 520.846851 137.167807 
L 521.228498 136.927606 
L 522.37344 136.597331 
L 522.755087 136.297081 
L 523.518381 136.026856 
L 524.663323 135.246205 
L 525.426617 135.03603 
L 526.189912 134.61568 
L 527.334853 134.345455 
L 529.243089 133.654879 
L 530.006384 133.414679 
L 530.769678 133.054379 
L 531.91462 132.423853 
L 532.677914 132.213678 
L 534.204503 131.493078 
L 536.494386 130.682402 
L 537.639327 130.141952 
L 539.547563 129.181151 
L 540.310858 128.880901 
L 540.692505 128.520601 
L 541.837447 128.070225 
L 542.219094 128.010175 
L 543.745683 127.289575 
L 544.890624 126.929274 
L 546.035566 126.508924 
L 546.79886 126.268724 
L 547.562154 126.118599 
L 548.325449 125.698249 
L 548.707096 125.548123 
L 549.088743 125.247873 
L 550.233685 124.947623 
L 550.996979 124.647373 
L 551.760274 124.317098 
L 553.286862 123.686572 
L 555.958393 122.965972 
L 556.721687 122.665721 
L 558.248276 122.365471 
L 559.01157 122.215346 
L 560.156512 121.764971 
L 561.301453 121.524771 
L 563.591337 120.14362 
L 564.736278 119.423019 
L 567.026161 118.702419 
L 567.407808 118.402168 
L 570.460986 117.291243 
L 571.605928 116.930942 
L 572.369222 116.510592 
L 573.132516 116.300417 
L 573.514164 116.090242 
L 574.277458 115.940117 
L 575.804047 115.339616 
L 576.567341 114.829191 
L 577.712283 114.528941 
L 578.857224 113.74829 
L 579.238871 113.68824 
L 580.76546 113.057715 
L 582.292049 112.667389 
L 582.673696 112.607339 
L 583.055343 112.427189 
L 583.436991 112.397164 
L 584.200285 112.126939 
L 584.581932 112.096914 
L 585.726874 111.646539 
L 587.253463 111.196163 
L 588.016757 110.595663 
L 589.543346 109.724937 
L 589.924993 109.634862 
L 590.30664 109.424687 
L 590.688287 109.364637 
L 594.123112 107.623186 
L 594.504759 107.262886 
L 596.412995 106.782485 
L 597.557937 106.242035 
L 598.321231 106.03186 
L 598.702878 105.85171 
L 599.084526 105.521435 
L 600.992761 104.830859 
L 605.954175 102.969308 
L 606.717469 102.819183 
L 608.625705 102.188657 
L 609.770647 101.678232 
L 612.442177 100.867556 
L 613.205472 100.417181 
L 626.181476 96.393828 
L 626.944771 96.183653 
L 628.089712 95.763303 
L 628.471359 95.763303 
L 629.616301 95.493078 
L 630.379595 95.342952 
L 631.14289 95.132777 
L 632.287831 94.502252 
L 633.432773 94.141952 
L 636.104303 93.211176 
L 637.630892 92.430525 
L 638.775834 92.1603 
L 639.539128 91.9201 
L 640.302422 91.529775 
L 640.68407 91.1995 
L 641.447364 90.959299 
L 641.829011 90.719099 
L 642.592306 90.629024 
L 645.263836 89.848374 
L 646.408777 89.608173 
L 647.553719 89.307923 
L 648.317013 89.127773 
L 649.461955 88.527273 
L 653.660074 86.935947 
L 654.041721 86.845872 
L 654.423368 86.635696 
L 655.186663 86.515596 
L 655.949957 86.365471 
L 656.331604 86.365471 
L 657.476546 86.005171 
L 658.621488 85.644871 
L 662.056312 84.654045 
L 662.819607 84.44387 
L 663.201254 84.353795 
L 663.582901 84.113595 
L 664.346195 83.96347 
L 665.10949 83.873394 
L 665.491137 83.663219 
L 665.872784 83.633194 
L 667.017726 83.092744 
L 668.162667 82.822519 
L 668.925962 82.492244 
L 669.689256 82.222018 
L 670.452551 82.011843 
L 671.215845 81.681568 
L 671.597492 81.621518 
L 672.360787 81.351293 
L 673.505728 81.021018 
L 674.269023 80.960967 
L 675.413964 80.540617 
L 676.177258 80.420517 
L 678.848789 79.429691 
L 681.138672 79.039366 
L 681.901966 78.799166 
L 682.283614 78.739116 
L 683.046908 78.408841 
L 683.428555 78.348791 
L 683.810202 78.168641 
L 684.573497 77.50809 
L 688.389969 76.096914 
L 690.679852 75.496414 
L 691.443146 75.076063 
L 691.824793 74.985988 
L 692.969735 74.355463 
L 693.351382 74.265388 
L 693.733029 73.965138 
L 694.877971 73.634862 
L 700.984326 70.87256 
L 701.365973 70.81251 
L 703.655856 69.641535 
L 704.037504 69.401334 
L 705.182445 69.071059 
L 706.709034 68.440534 
L 707.090681 68.410509 
L 708.998917 67.689908 
L 709.762211 67.539783 
L 710.525506 66.969308 
L 710.907153 66.969308 
L 711.670447 66.699083 
L 712.052095 66.639033 
L 712.433742 66.428857 
L 713.960331 66.128607 
L 715.486919 65.468057 
L 715.868567 65.468057 
L 717.013508 65.077731 
L 717.776803 64.957631 
L 718.921744 64.297081 
L 719.685038 63.906756 
L 721.593274 63.27623 
L 722.356569 62.945955 
L 724.646452 62.285405 
L 725.791394 62.045204 
L 726.936335 61.624854 
L 728.844571 60.934279 
L 734.187632 59.613178 
L 735.714221 58.892577 
L 736.859162 58.532277 
L 739.530693 57.991827 
L 740.293987 57.871726 
L 742.58387 56.970976 
L 743.347164 56.850876 
L 744.873753 56.34045 
L 745.2554 56.34045 
L 745.637048 56.0402 
L 746.400342 55.8 
L 747.163636 55.8 
L 747.163636 55.8 
" clip-path="url(#p1c3330715a)" style="fill: none; stroke: #1f77b4; stroke-width: 1.5; stroke-linecap: square"/>
   </g>
   <g id="line2d_40">
    <path d="M 138.818011 307.8 
L 142.252836 307.709925 
L 145.306013 307.5598 
L 146.832602 307.5598 
L 147.214249 307.4397 
L 149.122485 307.349625 
L 151.412368 307.079399 
L 153.702251 306.989324 
L 154.465546 306.899249 
L 157.137076 306.779149 
L 159.808606 306.689074 
L 161.716842 306.629024 
L 166.678256 306.538949 
L 168.586492 306.478899 
L 172.021317 306.388824 
L 173.547905 306.358799 
L 177.364377 306.268724 
L 178.890966 306.118599 
L 180.417555 306.088574 
L 182.707438 305.998499 
L 184.234027 305.968474 
L 186.142263 305.908424 
L 187.668852 305.758299 
L 191.103676 305.668224 
L 191.866971 305.608173 
L 193.393559 305.518098 
L 195.683443 305.428023 
L 197.210031 305.337948 
L 204.079681 304.887573 
L 206.751211 304.797498 
L 207.896153 304.677398 
L 209.804389 304.587323 
L 213.620861 304.377148 
L 217.437333 304.317098 
L 218.963921 304.136947 
L 220.872157 304.046872 
L 224.688629 303.656547 
L 226.978512 303.356297 
L 228.505101 303.296247 
L 231.558279 302.875897 
L 233.848162 302.815847 
L 234.993103 302.695746 
L 236.138045 302.605671 
L 246.824166 301.734946 
L 247.587461 301.584821 
L 249.877344 301.494746 
L 255.983699 301.10442 
L 258.655229 301.014345 
L 260.181818 300.834195 
L 262.090054 300.74412 
L 264.379937 300.654045 
L 266.288173 300.56397 
L 267.814762 300.533945 
L 269.722998 300.473895 
L 270.486292 300.38382 
L 275.829353 300.293745 
L 276.592647 300.20367 
L 281.172414 300.113595 
L 284.607239 299.933445 
L 287.278769 299.843369 
L 288.805358 299.663219 
L 291.476888 299.573144 
L 292.240182 299.453044 
L 294.148418 299.392994 
L 297.96489 299.332944 
L 299.491479 299.182819 
L 301.018068 299.152794 
L 302.163009 299.062719 
L 303.689598 298.912594 
L 307.50607 298.702419 
L 311.322542 298.612344 
L 314.757367 298.432193 
L 315.902308 298.402168 
L 316.665603 298.282068 
L 318.573839 298.191993 
L 319.337133 298.131943 
L 320.100427 298.071893 
L 320.863722 298.011843 
L 324.680194 297.921768 
L 333.076432 297.351293 
L 333.839726 297.291243 
L 334.984668 297.201168 
L 337.656198 297.111093 
L 339.564434 297.051043 
L 344.907495 296.960967 
L 345.670789 296.870892 
L 351.01385 296.780817 
L 354.830322 296.570642 
L 355.593616 296.540617 
L 356.356911 296.450542 
L 358.265147 296.360467 
L 360.173383 296.300417 
L 362.081619 296.210342 
L 363.989855 296.150292 
L 367.424679 296.060217 
L 369.714563 295.970142 
L 375.057623 295.880067 
L 379.255742 295.639867 
L 380.782331 295.579817 
L 381.927273 295.489741 
L 387.270333 295.399666 
L 389.560217 295.309591 
L 396.429866 295.219516 
L 397.956455 295.189491 
L 402.536221 295.129441 
L 403.299516 295.069391 
L 408.642576 294.979316 
L 410.169165 294.949291 
L 420.091992 294.859216 
L 422.381875 294.769141 
L 438.411057 294.679066 
L 440.319293 294.619016 
L 450.24212 294.558966 
L 451.005415 294.498916 
L 452.913651 294.438866 
L 454.058592 294.318766 
L 456.348475 294.228691 
L 459.020006 294.10859 
L 462.45483 294.018515 
L 464.363066 293.958465 
L 467.034597 293.86839 
L 470.087774 293.718265 
L 471.99601 293.62819 
L 473.522599 293.598165 
L 480.010601 293.50809 
L 482.300484 293.418015 
L 486.498604 293.32794 
L 489.170134 293.20784 
L 491.841664 293.14779 
L 492.604959 293.08774 
L 501.764491 292.997665 
L 505.580963 292.78749 
L 508.252494 292.697415 
L 512.450613 292.457214 
L 515.122143 292.367139 
L 516.648732 292.337114 
L 519.320262 292.247039 
L 521.228498 292.036864 
L 525.04497 291.946789 
L 525.808264 291.856714 
L 529.624736 291.766639 
L 531.532972 291.706589 
L 535.731091 291.676564 
L 536.494386 291.586489 
L 540.692505 291.496414 
L 541.455799 291.436364 
L 549.852038 291.346289 
L 552.141921 291.256214 
L 557.866629 291.166138 
L 559.393217 291.136113 
L 562.828042 291.076063 
L 563.591337 290.985988 
L 568.55275 290.895913 
L 570.460986 290.835863 
L 577.330636 290.745788 
L 578.475577 290.655713 
L 579.620519 290.565638 
L 580.76546 290.475563 
L 586.490168 290.385488 
L 588.780051 290.295413 
L 599.84782 290.205338 
L 603.282645 290.025188 
L 608.625705 289.935113 
L 610.152294 289.905088 
L 614.73206 289.815013 
L 616.640296 289.754962 
L 624.654887 289.664887 
L 627.326418 289.544787 
L 634.196067 289.454712 
L 635.722656 289.424687 
L 639.539128 289.334612 
L 642.210658 289.214512 
L 646.408777 289.124437 
L 649.080308 289.004337 
L 652.515133 288.944287 
L 653.278427 288.884237 
L 661.674665 288.794162 
L 663.964548 288.704087 
L 666.636079 288.614012 
L 668.544315 288.553962 
L 679.612083 288.463887 
L 681.901966 288.373812 
L 688.008321 288.283736 
L 690.298205 288.193661 
L 695.259618 288.103586 
L 697.549501 288.013511 
L 700.602679 287.923436 
L 702.892562 287.833361 
L 718.15845 287.743286 
L 721.211627 287.593161 
L 729.989513 287.503086 
L 731.516101 287.473061 
L 740.675634 287.382986 
L 742.58387 287.322936 
L 747.163636 287.322936 
L 747.163636 287.322936 
" clip-path="url(#p1c3330715a)" style="fill: none; stroke: #ff7f0e; stroke-width: 1.5; stroke-linecap: square"/>
   </g>
   <g id="patch_3">
    <path d="M 108 320.4 
L 108 43.2 
" style="fill: none; stroke: #a9a9a9; stroke-width: 0.8; stroke-linejoin: miter; stroke-linecap: square"/>
   </g>
   <g id="patch_4">
    <path d="M 777.6 320.4 
L 777.6 43.2 
" style="fill: none"/>
   </g>
   <g id="patch_5">
    <path d="M 108 320.4 
L 777.6 320.4 
" style="fill: none; stroke: #a9a9a9; stroke-width: 0.8; stroke-linejoin: miter; stroke-linecap: square"/>
   </g>
   <g id="patch_6">
    <path d="M 108 43.2 
L 777.6 43.2 
" style="fill: none"/>
   </g>
   <g id="text_20">
    <!-- get_subscribe history -->
    <g style="fill: #a9a9a9" transform="translate(378.6075 37.2) scale(0.12 -0.12)">
     <defs>
      <path id="DejaVuSans-67" d="M 2906 1791 
Q 2906 2416 2648 2759 
Q 2391 3103 1925 3103 
Q 1463 3103 1205 2759 
Q 947 2416 947 1791 
Q 947 1169 1205 825 
Q 1463 481 1925 481 
Q 2391 481 2648 825 
Q 2906 1169 2906 1791 
z
M 3481 434 
Q 3481 -459 3084 -895 
Q 2688 -1331 1869 -1331 
Q 1566 -1331 1297 -1286 
Q 1028 -1241 775 -1147 
L 775 -588 
Q 1028 -725 1275 -790 
Q 1522 -856 1778 -856 
Q 2344 -856 2625 -561 
Q 2906 -266 2906 331 
L 2906 616 
Q 2728 306 2450 153 
Q 2172 0 1784 0 
Q 1141 0 747 490 
Q 353 981 353 1791 
Q 353 2603 747 3093 
Q 1141 3584 1784 3584 
Q 2172 3584 2450 3431 
Q 2728 3278 2906 2969 
L 2906 3500 
L 3481 3500 
L 3481 434 
z
" transform="scale(0.015625)"/>
      <path id="DejaVuSans-65" d="M 3597 1894 
L 3597 1613 
L 953 1613 
Q 991 1019 1311 708 
Q 1631 397 2203 397 
Q 2534 397 2845 478 
Q 3156 559 3463 722 
L 3463 178 
Q 3153 47 2828 -22 
Q 2503 -91 2169 -91 
Q 1331 -91 842 396 
Q 353 884 353 1716 
Q 353 2575 817 3079 
Q 1281 3584 2069 3584 
Q 2775 3584 3186 3129 
Q 3597 2675 3597 1894 
z
M 3022 2063 
Q 3016 2534 2758 2815 
Q 2500 3097 2075 3097 
Q 1594 3097 1305 2825 
Q 1016 2553 972 2059 
L 3022 2063 
z
" transform="scale(0.015625)"/>
      <path id="DejaVuSans-74" d="M 1172 4494 
L 1172 3500 
L 2356 3500 
L 2356 3053 
L 1172 3053 
L 1172 1153 
Q 1172 725 1289 603 
Q 1406 481 1766 481 
L 2356 481 
L 2356 0 
L 1766 0 
Q 1100 0 847 248 
Q 594 497 594 1153 
L 594 3053 
L 172 3053 
L 172 3500 
L 594 3500 
L 594 4494 
L 1172 4494 
z
" transform="scale(0.015625)"/>
      <path id="DejaVuSans-5f" d="M 3263 -1063 
L 3263 -1509 
L -63 -1509 
L -63 -1063 
L 3263 -1063 
z
" transform="scale(0.015625)"/>
      <path id="DejaVuSans-73" d="M 2834 3397 
L 2834 2853 
Q 2591 2978 2328 3040 
Q 2066 3103 1784 3103 
Q 1356 3103 1142 2972 
Q 928 2841 928 2578 
Q 928 2378 1081 2264 
Q 1234 2150 1697 2047 
L 1894 2003 
Q 2506 1872 2764 1633 
Q 3022 1394 3022 966 
Q 3022 478 2636 193 
Q 2250 -91 1575 -91 
Q 1294 -91 989 -36 
Q 684 19 347 128 
L 347 722 
Q 666 556 975 473 
Q 1284 391 1588 391 
Q 1994 391 2212 530 
Q 2431 669 2431 922 
Q 2431 1156 2273 1281 
Q 2116 1406 1581 1522 
L 1381 1569 
Q 847 1681 609 1914 
Q 372 2147 372 2553 
Q 372 3047 722 3315 
Q 1072 3584 1716 3584 
Q 2034 3584 2315 3537 
Q 2597 3491 2834 3397 
z
" transform="scale(0.015625)"/>
      <path id="DejaVuSans-75" d="M 544 1381 
L 544 3500 
L 1119 3500 
L 1119 1403 
Q 1119 906 1312 657 
Q 1506 409 1894 409 
Q 2359 409 2629 706 
Q 2900 1003 2900 1516 
L 2900 3500 
L 3475 3500 
L 3475 0 
L 2900 0 
L 2900 538 
Q 2691 219 2414 64 
Q 2138 -91 1772 -91 
Q 1169 -91 856 284 
Q 544 659 544 1381 
z
M 1991 3584 
L 1991 3584 
z
" transform="scale(0.015625)"/>
      <path id="DejaVuSans-62" d="M 3116 1747 
Q 3116 2381 2855 2742 
Q 2594 3103 2138 3103 
Q 1681 3103 1420 2742 
Q 1159 2381 1159 1747 
Q 1159 1113 1420 752 
Q 1681 391 2138 391 
Q 2594 391 2855 752 
Q 3116 1113 3116 1747 
z
M 1159 2969 
Q 1341 3281 1617 3432 
Q 1894 3584 2278 3584 
Q 2916 3584 3314 3078 
Q 3713 2572 3713 1747 
Q 3713 922 3314 415 
Q 2916 -91 2278 -91 
Q 1894 -91 1617 61 
Q 1341 213 1159 525 
L 1159 0 
L 581 0 
L 581 4863 
L 1159 4863 
L 1159 2969 
z
" transform="scale(0.015625)"/>
      <path id="DejaVuSans-63" d="M 3122 3366 
L 3122 2828 
Q 2878 2963 2633 3030 
Q 2388 3097 2138 3097 
Q 1578 3097 1268 2742 
Q 959 2388 959 1747 
Q 959 1106 1268 751 
Q 1578 397 2138 397 
Q 2388 397 2633 464 
Q 2878 531 3122 666 
L 3122 134 
Q 2881 22 2623 -34 
Q 2366 -91 2075 -91 
Q 1284 -91 818 406 
Q 353 903 353 1747 
Q 353 2603 823 3093 
Q 1294 3584 2113 3584 
Q 2378 3584 2631 3529 
Q 2884 3475 3122 3366 
z
" transform="scale(0.015625)"/>
      <path id="DejaVuSans-72" d="M 2631 2963 
Q 2534 3019 2420 3045 
Q 2306 3072 2169 3072 
Q 1681 3072 1420 2755 
Q 1159 2438 1159 1844 
L 1159 0 
L 581 0 
L 581 3500 
L 1159 3500 
L 1159 2956 
Q 1341 3275 1631 3429 
Q 1922 3584 2338 3584 
Q 2397 3584 2469 3576 
Q 2541 3569 2628 3553 
L 2631 2963 
z
" transform="scale(0.015625)"/>
      <path id="DejaVuSans-69" d="M 603 3500 
L 1178 3500 
L 1178 0 
L 603 0 
L 603 3500 
z
M 603 4863 
L 1178 4863 
L 1178 4134 
L 603 4134 
L 603 4863 
z
" transform="scale(0.015625)"/>
      <path id="DejaVuSans-20" transform="scale(0.015625)"/>
      <path id="DejaVuSans-68" d="M 3513 2113 
L 3513 0 
L 2938 0 
L 2938 2094 
Q 2938 2591 2744 2837 
Q 2550 3084 2163 3084 
Q 1697 3084 1428 2787 
Q 1159 2491 1159 1978 
L 1159 0 
L 581 0 
L 581 4863 
L 1159 4863 
L 1159 2956 
Q 1366 3272 1645 3428 
Q 1925 3584 2291 3584 
Q 2894 3584 3203 3211 
Q 3513 2838 3513 2113 
z
" transform="scale(0.015625)"/>
      <path id="DejaVuSans-6f" d="M 1959 3097 
Q 1497 3097 1228 2736 
Q 959 2375 959 1747 
Q 959 1119 1226 758 
Q 1494 397 1959 397 
Q 2419 397 2687 759 
Q 2956 1122 2956 1747 
Q 2956 2369 2687 2733 
Q 2419 3097 1959 3097 
z
M 1959 3584 
Q 2709 3584 3137 3096 
Q 3566 2609 3566 1747 
Q 3566 888 3137 398 
Q 2709 -91 1959 -91 
Q 1206 -91 779 398 
Q 353 888 353 1747 
Q 353 2609 779 3096 
Q 1206 3584 1959 3584 
z
" transform="scale(0.015625)"/>
      <path id="DejaVuSans-79" d="M 2059 -325 
Q 1816 -950 1584 -1140 
Q 1353 -1331 966 -1331 
L 506 -1331 
L 506 -850 
L 844 -850 
Q 1081 -850 1212 -737 
Q 1344 -625 1503 -206 
L 1606 56 
L 191 3500 
L 800 3500 
L 1894 763 
L 2988 3500 
L 3597 3500 
L 2059 -325 
z
" transform="scale(0.015625)"/>
     </defs>
     <use xlink:href="#DejaVuSans-67"/>
     <use xlink:href="#DejaVuSans-65" transform="translate(63.476562 0)"/>
     <use xlink:href="#DejaVuSans-74" transform="translate(125 0)"/>
     <use xlink:href="#DejaVuSans-5f" transform="translate(164.208984 0)"/>
     <use xlink:href="#DejaVuSans-73" transform="translate(214.208984 0)"/>
     <use xlink:href="#DejaVuSans-75" transform="translate(266.308594 0)"/>
     <use xlink:href="#DejaVuSans-62" transform="translate(329.6875 0)"/>
     <use xlink:href="#DejaVuSans-73" transform="translate(393.164062 0)"/>
     <use xlink:href="#DejaVuSans-63" transform="translate(445.263672 0)"/>
     <use xlink:href="#DejaVuSans-72" transform="translate(500.244141 0)"/>
     <use xlink:href="#DejaVuSans-69" transform="translate(541.357422 0)"/>
     <use xlink:href="#DejaVuSans-62" transform="translate(569.140625 0)"/>
     <use xlink:href="#DejaVuSans-65" transform="translate(632.617188 0)"/>
     <use xlink:href="#DejaVuSans-20" transform="translate(694.140625 0)"/>
     <use xlink:href="#DejaVuSans-68" transform="translate(725.927734 0)"/>
     <use xlink:href="#DejaVuSans-69" transform="translate(789.306641 0)"/>
     <use xlink:href="#DejaVuSans-73" transform="translate(817.089844 0)"/>
     <use xlink:href="#DejaVuSans-74" transform="translate(869.189453 0)"/>
     <use xlink:href="#DejaVuSans-6f" transform="translate(908.398438 0)"/>
     <use xlink:href="#DejaVuSans-72" transform="translate(969.580078 0)"/>
     <use xlink:href="#DejaVuSans-79" transform="translate(1010.693359 0)"/>
    </g>
   </g>
   <g id="legend_1">
    <g id="line2d_41">
     <path d="M 815.08 328.498438 
L 825.08 328.498438 
L 835.08 328.498438 
" style="fill: none; stroke: #1f77b4; stroke-width: 1.5; stroke-linecap: square"/>
    </g>
    <g id="text_21">
     <!-- star -->
     <g style="fill: #a9a9a9" transform="translate(843.08 331.998438) scale(0.1 -0.1)">
      <defs>
       <path id="DejaVuSans-61" d="M 2194 1759 
Q 1497 1759 1228 1600 
Q 959 1441 959 1056 
Q 959 750 1161 570 
Q 1363 391 1709 391 
Q 2188 391 2477 730 
Q 2766 1069 2766 1631 
L 2766 1759 
L 2194 1759 
z
M 3341 1997 
L 3341 0 
L 2766 0 
L 2766 531 
Q 2569 213 2275 61 
Q 1981 -91 1556 -91 
Q 1019 -91 701 211 
Q 384 513 384 1019 
Q 384 1609 779 1909 
Q 1175 2209 1959 2209 
L 2766 2209 
L 2766 2266 
Q 2766 2663 2505 2880 
Q 2244 3097 1772 3097 
Q 1472 3097 1187 3025 
Q 903 2953 641 2809 
L 641 3341 
Q 956 3463 1253 3523 
Q 1550 3584 1831 3584 
Q 2591 3584 2966 3190 
Q 3341 2797 3341 1997 
z
" transform="scale(0.015625)"/>
      </defs>
      <use xlink:href="#DejaVuSans-73"/>
      <use xlink:href="#DejaVuSans-74" transform="translate(52.099609 0)"/>
      <use xlink:href="#DejaVuSans-61" transform="translate(91.308594 0)"/>
      <use xlink:href="#DejaVuSans-72" transform="translate(152.587891 0)"/>
     </g>
    </g>
    <g id="line2d_42">
     <path d="M 815.08 343.176562 
L 825.08 343.176562 
L 835.08 343.176562 
" style="fill: none; stroke: #ff7f0e; stroke-width: 1.5; stroke-linecap: square"/>
    </g>
    <g id="text_22">
     <!-- fork -->
     <g style="fill: #a9a9a9" transform="translate(843.08 346.676562) scale(0.1 -0.1)">
      <defs>
       <path id="DejaVuSans-66" d="M 2375 4863 
L 2375 4384 
L 1825 4384 
Q 1516 4384 1395 4259 
Q 1275 4134 1275 3809 
L 1275 3500 
L 2222 3500 
L 2222 3053 
L 1275 3053 
L 1275 0 
L 697 0 
L 697 3053 
L 147 3053 
L 147 3500 
L 697 3500 
L 697 3744 
Q 697 4328 969 4595 
Q 1241 4863 1831 4863 
L 2375 4863 
z
" transform="scale(0.015625)"/>
       <path id="DejaVuSans-6b" d="M 581 4863 
L 1159 4863 
L 1159 1991 
L 2875 3500 
L 3609 3500 
L 1753 1863 
L 3688 0 
L 2938 0 
L 1159 1709 
L 1159 0 
L 581 0 
L 581 4863 
z
" transform="scale(0.015625)"/>
      </defs>
      <use xlink:href="#DejaVuSans-66"/>
      <use xlink:href="#DejaVuSans-6f" transform="translate(35.205078 0)"/>
      <use xlink:href="#DejaVuSans-72" transform="translate(96.386719 0)"/>
      <use xlink:href="#DejaVuSans-6b" transform="translate(137.5 0)"/>
     </g>
    </g>
   </g>
  </g>
 </g>
 <defs>
  <clipPath id="p1c3330715a">
   <rect x="108" y="43.2" width="669.6" height="277.2"/>
  </clipPath>
 </defs>
</svg>
