<?xml version="1.0" encoding="utf-8" standalone="no"?>
<!DOCTYPE svg PUBLIC "-//W3C//DTD SVG 1.1//EN"
  "http://www.w3.org/Graphics/SVG/1.1/DTD/svg11.dtd">
<svg xmlns:xlink="http://www.w3.org/1999/xlink" width="864pt" height="360pt" viewBox="0 0 864 360" xmlns="http://www.w3.org/2000/svg" version="1.1">
 <metadata>
  <rdf:RDF xmlns:dc="http://purl.org/dc/elements/1.1/" xmlns:cc="http://creativecommons.org/ns#" xmlns:rdf="http://www.w3.org/1999/02/22-rdf-syntax-ns#">
   <cc:Work>
    <dc:type rdf:resource="http://purl.org/dc/dcmitype/StillImage"/>
    <dc:date>2025-05-10T20:05:40.149829</dc:date>
    <dc:format>image/svg+xml</dc:format>
    <dc:creator>
     <cc:Agent>
      <dc:title>Matplotlib v3.10.3, https://matplotlib.org/</dc:title>
     </cc:Agent>
    </dc:creator>
   </cc:Work>
  </rdf:RDF>
 </metadata>
 <defs>
  <style type="text/css">*{stroke-linejoin: round; stroke-linecap: butt}</style>
 </defs>
 <g id="figure_1">
  <g id="patch_1">
   <path d="M 0 360 
L 864 360 
L 864 0 
L 0 0 
L 0 360 
z
" style="fill: none; opacity: 0"/>
  </g>
  <g id="axes_1">
   <g id="patch_2">
    <path d="M 108 320.4 
L 777.6 320.4 
L 777.6 43.2 
L 108 43.2 
L 108 320.4 
z
" style="fill: none; opacity: 0"/>
   </g>
   <g id="matplotlib.axis_1">
    <g id="xtick_1">
     <g id="line2d_1">
      <path d="M 128.334829 320.4 
L 128.334829 43.2 
" clip-path="url(#p66aea873ef)" style="fill: none; stroke-dasharray: 5.12,1.28,0.8,1.28; stroke-dashoffset: 0; stroke: #b0b0b0; stroke-width: 0.8"/>
     </g>
     <g id="line2d_2">
      <defs>
       <path id="m525d26398a" d="M 0 0 
L 0 3.5 
" style="stroke: #a9a9a9; stroke-width: 0.8"/>
      </defs>
      <g>
       <use xlink:href="#m525d26398a" x="128.334829" y="320.4" style="fill: #a9a9a9; stroke: #a9a9a9; stroke-width: 0.8"/>
      </g>
     </g>
     <g id="text_1">
      <!-- 2021-07 -->
      <g style="fill: #a9a9a9" transform="translate(107.443423 334.998438) scale(0.1 -0.1)">
       <defs>
        <path id="DejaVuSans-32" d="M 1228 531 
L 3431 531 
L 3431 0 
L 469 0 
L 469 531 
Q 828 903 1448 1529 
Q 2069 2156 2228 2338 
Q 2531 2678 2651 2914 
Q 2772 3150 2772 3378 
Q 2772 3750 2511 3984 
Q 2250 4219 1831 4219 
Q 1534 4219 1204 4116 
Q 875 4013 500 3803 
L 500 4441 
Q 881 4594 1212 4672 
Q 1544 4750 1819 4750 
Q 2544 4750 2975 4387 
Q 3406 4025 3406 3419 
Q 3406 3131 3298 2873 
Q 3191 2616 2906 2266 
Q 2828 2175 2409 1742 
Q 1991 1309 1228 531 
z
" transform="scale(0.015625)"/>
        <path id="DejaVuSans-30" d="M 2034 4250 
Q 1547 4250 1301 3770 
Q 1056 3291 1056 2328 
Q 1056 1369 1301 889 
Q 1547 409 2034 409 
Q 2525 409 2770 889 
Q 3016 1369 3016 2328 
Q 3016 3291 2770 3770 
Q 2525 4250 2034 4250 
z
M 2034 4750 
Q 2819 4750 3233 4129 
Q 3647 3509 3647 2328 
Q 3647 1150 3233 529 
Q 2819 -91 2034 -91 
Q 1250 -91 836 529 
Q 422 1150 422 2328 
Q 422 3509 836 4129 
Q 1250 4750 2034 4750 
z
" transform="scale(0.015625)"/>
        <path id="DejaVuSans-31" d="M 794 531 
L 1825 531 
L 1825 4091 
L 703 3866 
L 703 4441 
L 1819 4666 
L 2450 4666 
L 2450 531 
L 3481 531 
L 3481 0 
L 794 0 
L 794 531 
z
" transform="scale(0.015625)"/>
        <path id="DejaVuSans-2d" d="M 313 2009 
L 1997 2009 
L 1997 1497 
L 313 1497 
L 313 2009 
z
" transform="scale(0.015625)"/>
        <path id="DejaVuSans-37" d="M 525 4666 
L 3525 4666 
L 3525 4397 
L 1831 0 
L 1172 0 
L 2766 4134 
L 525 4134 
L 525 4666 
z
" transform="scale(0.015625)"/>
       </defs>
       <use xlink:href="#DejaVuSans-32"/>
       <use xlink:href="#DejaVuSans-30" transform="translate(63.623047 0)"/>
       <use xlink:href="#DejaVuSans-32" transform="translate(127.246094 0)"/>
       <use xlink:href="#DejaVuSans-31" transform="translate(190.869141 0)"/>
       <use xlink:href="#DejaVuSans-2d" transform="translate(254.492188 0)"/>
       <use xlink:href="#DejaVuSans-30" transform="translate(290.576172 0)"/>
       <use xlink:href="#DejaVuSans-37" transform="translate(354.199219 0)"/>
      </g>
     </g>
    </g>
    <g id="xtick_2">
     <g id="line2d_3">
      <path d="M 209.147107 320.4 
L 209.147107 43.2 
" clip-path="url(#p66aea873ef)" style="fill: none; stroke-dasharray: 5.12,1.28,0.8,1.28; stroke-dashoffset: 0; stroke: #b0b0b0; stroke-width: 0.8"/>
     </g>
     <g id="line2d_4">
      <g>
       <use xlink:href="#m525d26398a" x="209.147107" y="320.4" style="fill: #a9a9a9; stroke: #a9a9a9; stroke-width: 0.8"/>
      </g>
     </g>
     <g id="text_2">
      <!-- 2022-01 -->
      <g style="fill: #a9a9a9" transform="translate(188.255701 334.998438) scale(0.1 -0.1)">
       <use xlink:href="#DejaVuSans-32"/>
       <use xlink:href="#DejaVuSans-30" transform="translate(63.623047 0)"/>
       <use xlink:href="#DejaVuSans-32" transform="translate(127.246094 0)"/>
       <use xlink:href="#DejaVuSans-32" transform="translate(190.869141 0)"/>
       <use xlink:href="#DejaVuSans-2d" transform="translate(254.492188 0)"/>
       <use xlink:href="#DejaVuSans-30" transform="translate(290.576172 0)"/>
       <use xlink:href="#DejaVuSans-31" transform="translate(354.199219 0)"/>
      </g>
     </g>
    </g>
    <g id="xtick_3">
     <g id="line2d_5">
      <path d="M 288.641795 320.4 
L 288.641795 43.2 
" clip-path="url(#p66aea873ef)" style="fill: none; stroke-dasharray: 5.12,1.28,0.8,1.28; stroke-dashoffset: 0; stroke: #b0b0b0; stroke-width: 0.8"/>
     </g>
     <g id="line2d_6">
      <g>
       <use xlink:href="#m525d26398a" x="288.641795" y="320.4" style="fill: #a9a9a9; stroke: #a9a9a9; stroke-width: 0.8"/>
      </g>
     </g>
     <g id="text_3">
      <!-- 2022-07 -->
      <g style="fill: #a9a9a9" transform="translate(267.750388 334.998438) scale(0.1 -0.1)">
       <use xlink:href="#DejaVuSans-32"/>
       <use xlink:href="#DejaVuSans-30" transform="translate(63.623047 0)"/>
       <use xlink:href="#DejaVuSans-32" transform="translate(127.246094 0)"/>
       <use xlink:href="#DejaVuSans-32" transform="translate(190.869141 0)"/>
       <use xlink:href="#DejaVuSans-2d" transform="translate(254.492188 0)"/>
       <use xlink:href="#DejaVuSans-30" transform="translate(290.576172 0)"/>
       <use xlink:href="#DejaVuSans-37" transform="translate(354.199219 0)"/>
      </g>
     </g>
    </g>
    <g id="xtick_4">
     <g id="line2d_7">
      <path d="M 369.454073 320.4 
L 369.454073 43.2 
" clip-path="url(#p66aea873ef)" style="fill: none; stroke-dasharray: 5.12,1.28,0.8,1.28; stroke-dashoffset: 0; stroke: #b0b0b0; stroke-width: 0.8"/>
     </g>
     <g id="line2d_8">
      <g>
       <use xlink:href="#m525d26398a" x="369.454073" y="320.4" style="fill: #a9a9a9; stroke: #a9a9a9; stroke-width: 0.8"/>
      </g>
     </g>
     <g id="text_4">
      <!-- 2023-01 -->
      <g style="fill: #a9a9a9" transform="translate(348.562667 334.998438) scale(0.1 -0.1)">
       <defs>
        <path id="DejaVuSans-33" d="M 2597 2516 
Q 3050 2419 3304 2112 
Q 3559 1806 3559 1356 
Q 3559 666 3084 287 
Q 2609 -91 1734 -91 
Q 1441 -91 1130 -33 
Q 819 25 488 141 
L 488 750 
Q 750 597 1062 519 
Q 1375 441 1716 441 
Q 2309 441 2620 675 
Q 2931 909 2931 1356 
Q 2931 1769 2642 2001 
Q 2353 2234 1838 2234 
L 1294 2234 
L 1294 2753 
L 1863 2753 
Q 2328 2753 2575 2939 
Q 2822 3125 2822 3475 
Q 2822 3834 2567 4026 
Q 2313 4219 1838 4219 
Q 1578 4219 1281 4162 
Q 984 4106 628 3988 
L 628 4550 
Q 988 4650 1302 4700 
Q 1616 4750 1894 4750 
Q 2613 4750 3031 4423 
Q 3450 4097 3450 3541 
Q 3450 3153 3228 2886 
Q 3006 2619 2597 2516 
z
" transform="scale(0.015625)"/>
       </defs>
       <use xlink:href="#DejaVuSans-32"/>
       <use xlink:href="#DejaVuSans-30" transform="translate(63.623047 0)"/>
       <use xlink:href="#DejaVuSans-32" transform="translate(127.246094 0)"/>
       <use xlink:href="#DejaVuSans-33" transform="translate(190.869141 0)"/>
       <use xlink:href="#DejaVuSans-2d" transform="translate(254.492188 0)"/>
       <use xlink:href="#DejaVuSans-30" transform="translate(290.576172 0)"/>
       <use xlink:href="#DejaVuSans-31" transform="translate(354.199219 0)"/>
      </g>
     </g>
    </g>
    <g id="xtick_5">
     <g id="line2d_9">
      <path d="M 448.94876 320.4 
L 448.94876 43.2 
" clip-path="url(#p66aea873ef)" style="fill: none; stroke-dasharray: 5.12,1.28,0.8,1.28; stroke-dashoffset: 0; stroke: #b0b0b0; stroke-width: 0.8"/>
     </g>
     <g id="line2d_10">
      <g>
       <use xlink:href="#m525d26398a" x="448.94876" y="320.4" style="fill: #a9a9a9; stroke: #a9a9a9; stroke-width: 0.8"/>
      </g>
     </g>
     <g id="text_5">
      <!-- 2023-07 -->
      <g style="fill: #a9a9a9" transform="translate(428.057354 334.998438) scale(0.1 -0.1)">
       <use xlink:href="#DejaVuSans-32"/>
       <use xlink:href="#DejaVuSans-30" transform="translate(63.623047 0)"/>
       <use xlink:href="#DejaVuSans-32" transform="translate(127.246094 0)"/>
       <use xlink:href="#DejaVuSans-33" transform="translate(190.869141 0)"/>
       <use xlink:href="#DejaVuSans-2d" transform="translate(254.492188 0)"/>
       <use xlink:href="#DejaVuSans-30" transform="translate(290.576172 0)"/>
       <use xlink:href="#DejaVuSans-37" transform="translate(354.199219 0)"/>
      </g>
     </g>
    </g>
    <g id="xtick_6">
     <g id="line2d_11">
      <path d="M 529.761039 320.4 
L 529.761039 43.2 
" clip-path="url(#p66aea873ef)" style="fill: none; stroke-dasharray: 5.12,1.28,0.8,1.28; stroke-dashoffset: 0; stroke: #b0b0b0; stroke-width: 0.8"/>
     </g>
     <g id="line2d_12">
      <g>
       <use xlink:href="#m525d26398a" x="529.761039" y="320.4" style="fill: #a9a9a9; stroke: #a9a9a9; stroke-width: 0.8"/>
      </g>
     </g>
     <g id="text_6">
      <!-- 2024-01 -->
      <g style="fill: #a9a9a9" transform="translate(508.869633 334.998438) scale(0.1 -0.1)">
       <defs>
        <path id="DejaVuSans-34" d="M 2419 4116 
L 825 1625 
L 2419 1625 
L 2419 4116 
z
M 2253 4666 
L 3047 4666 
L 3047 1625 
L 3713 1625 
L 3713 1100 
L 3047 1100 
L 3047 0 
L 2419 0 
L 2419 1100 
L 313 1100 
L 313 1709 
L 2253 4666 
z
" transform="scale(0.015625)"/>
       </defs>
       <use xlink:href="#DejaVuSans-32"/>
       <use xlink:href="#DejaVuSans-30" transform="translate(63.623047 0)"/>
       <use xlink:href="#DejaVuSans-32" transform="translate(127.246094 0)"/>
       <use xlink:href="#DejaVuSans-34" transform="translate(190.869141 0)"/>
       <use xlink:href="#DejaVuSans-2d" transform="translate(254.492188 0)"/>
       <use xlink:href="#DejaVuSans-30" transform="translate(290.576172 0)"/>
       <use xlink:href="#DejaVuSans-31" transform="translate(354.199219 0)"/>
      </g>
     </g>
    </g>
    <g id="xtick_7">
     <g id="line2d_13">
      <path d="M 609.694923 320.4 
L 609.694923 43.2 
" clip-path="url(#p66aea873ef)" style="fill: none; stroke-dasharray: 5.12,1.28,0.8,1.28; stroke-dashoffset: 0; stroke: #b0b0b0; stroke-width: 0.8"/>
     </g>
     <g id="line2d_14">
      <g>
       <use xlink:href="#m525d26398a" x="609.694923" y="320.4" style="fill: #a9a9a9; stroke: #a9a9a9; stroke-width: 0.8"/>
      </g>
     </g>
     <g id="text_7">
      <!-- 2024-07 -->
      <g style="fill: #a9a9a9" transform="translate(588.803517 334.998438) scale(0.1 -0.1)">
       <use xlink:href="#DejaVuSans-32"/>
       <use xlink:href="#DejaVuSans-30" transform="translate(63.623047 0)"/>
       <use xlink:href="#DejaVuSans-32" transform="translate(127.246094 0)"/>
       <use xlink:href="#DejaVuSans-34" transform="translate(190.869141 0)"/>
       <use xlink:href="#DejaVuSans-2d" transform="translate(254.492188 0)"/>
       <use xlink:href="#DejaVuSans-30" transform="translate(290.576172 0)"/>
       <use xlink:href="#DejaVuSans-37" transform="translate(354.199219 0)"/>
      </g>
     </g>
    </g>
    <g id="xtick_8">
     <g id="line2d_15">
      <path d="M 690.507202 320.4 
L 690.507202 43.2 
" clip-path="url(#p66aea873ef)" style="fill: none; stroke-dasharray: 5.12,1.28,0.8,1.28; stroke-dashoffset: 0; stroke: #b0b0b0; stroke-width: 0.8"/>
     </g>
     <g id="line2d_16">
      <g>
       <use xlink:href="#m525d26398a" x="690.507202" y="320.4" style="fill: #a9a9a9; stroke: #a9a9a9; stroke-width: 0.8"/>
      </g>
     </g>
     <g id="text_8">
      <!-- 2025-01 -->
      <g style="fill: #a9a9a9" transform="translate(669.615796 334.998438) scale(0.1 -0.1)">
       <defs>
        <path id="DejaVuSans-35" d="M 691 4666 
L 3169 4666 
L 3169 4134 
L 1269 4134 
L 1269 2991 
Q 1406 3038 1543 3061 
Q 1681 3084 1819 3084 
Q 2600 3084 3056 2656 
Q 3513 2228 3513 1497 
Q 3513 744 3044 326 
Q 2575 -91 1722 -91 
Q 1428 -91 1123 -41 
Q 819 9 494 109 
L 494 744 
Q 775 591 1075 516 
Q 1375 441 1709 441 
Q 2250 441 2565 725 
Q 2881 1009 2881 1497 
Q 2881 1984 2565 2268 
Q 2250 2553 1709 2553 
Q 1456 2553 1204 2497 
Q 953 2441 691 2322 
L 691 4666 
z
" transform="scale(0.015625)"/>
       </defs>
       <use xlink:href="#DejaVuSans-32"/>
       <use xlink:href="#DejaVuSans-30" transform="translate(63.623047 0)"/>
       <use xlink:href="#DejaVuSans-32" transform="translate(127.246094 0)"/>
       <use xlink:href="#DejaVuSans-35" transform="translate(190.869141 0)"/>
       <use xlink:href="#DejaVuSans-2d" transform="translate(254.492188 0)"/>
       <use xlink:href="#DejaVuSans-30" transform="translate(290.576172 0)"/>
       <use xlink:href="#DejaVuSans-31" transform="translate(354.199219 0)"/>
      </g>
     </g>
    </g>
    <g id="xtick_9">
     <g id="line2d_17">
      <path d="M 770.001889 320.4 
L 770.001889 43.2 
" clip-path="url(#p66aea873ef)" style="fill: none; stroke-dasharray: 5.12,1.28,0.8,1.28; stroke-dashoffset: 0; stroke: #b0b0b0; stroke-width: 0.8"/>
     </g>
     <g id="line2d_18">
      <g>
       <use xlink:href="#m525d26398a" x="770.001889" y="320.4" style="fill: #a9a9a9; stroke: #a9a9a9; stroke-width: 0.8"/>
      </g>
     </g>
     <g id="text_9">
      <!-- 2025-07 -->
      <g style="fill: #a9a9a9" transform="translate(749.110483 334.998438) scale(0.1 -0.1)">
       <use xlink:href="#DejaVuSans-32"/>
       <use xlink:href="#DejaVuSans-30" transform="translate(63.623047 0)"/>
       <use xlink:href="#DejaVuSans-32" transform="translate(127.246094 0)"/>
       <use xlink:href="#DejaVuSans-35" transform="translate(190.869141 0)"/>
       <use xlink:href="#DejaVuSans-2d" transform="translate(254.492188 0)"/>
       <use xlink:href="#DejaVuSans-30" transform="translate(290.576172 0)"/>
       <use xlink:href="#DejaVuSans-37" transform="translate(354.199219 0)"/>
      </g>
     </g>
    </g>
   </g>
   <g id="matplotlib.axis_2">
    <g id="ytick_1">
     <g id="line2d_19">
      <path d="M 108 307.833101 
L 777.6 307.833101 
" clip-path="url(#p66aea873ef)" style="fill: none; stroke-dasharray: 5.12,1.28,0.8,1.28; stroke-dashoffset: 0; stroke: #b0b0b0; stroke-width: 0.8"/>
     </g>
     <g id="line2d_20">
      <defs>
       <path id="m57db2f1301" d="M 0 0 
L -3.5 0 
" style="stroke: #a9a9a9; stroke-width: 0.8"/>
      </defs>
      <g>
       <use xlink:href="#m57db2f1301" x="108" y="307.833101" style="fill: #a9a9a9; stroke: #a9a9a9; stroke-width: 0.8"/>
      </g>
     </g>
     <g id="text_10">
      <!-- 0 -->
      <g style="fill: #a9a9a9" transform="translate(94.6375 311.63232) scale(0.1 -0.1)">
       <use xlink:href="#DejaVuSans-30"/>
      </g>
     </g>
    </g>
    <g id="ytick_2">
     <g id="line2d_21">
      <path d="M 108 274.731827 
L 777.6 274.731827 
" clip-path="url(#p66aea873ef)" style="fill: none; stroke-dasharray: 5.12,1.28,0.8,1.28; stroke-dashoffset: 0; stroke: #b0b0b0; stroke-width: 0.8"/>
     </g>
     <g id="line2d_22">
      <g>
       <use xlink:href="#m57db2f1301" x="108" y="274.731827" style="fill: #a9a9a9; stroke: #a9a9a9; stroke-width: 0.8"/>
      </g>
     </g>
     <g id="text_11">
      <!-- 1000 -->
      <g style="fill: #a9a9a9" transform="translate(75.55 278.531046) scale(0.1 -0.1)">
       <use xlink:href="#DejaVuSans-31"/>
       <use xlink:href="#DejaVuSans-30" transform="translate(63.623047 0)"/>
       <use xlink:href="#DejaVuSans-30" transform="translate(127.246094 0)"/>
       <use xlink:href="#DejaVuSans-30" transform="translate(190.869141 0)"/>
      </g>
     </g>
    </g>
    <g id="ytick_3">
     <g id="line2d_23">
      <path d="M 108 241.630553 
L 777.6 241.630553 
" clip-path="url(#p66aea873ef)" style="fill: none; stroke-dasharray: 5.12,1.28,0.8,1.28; stroke-dashoffset: 0; stroke: #b0b0b0; stroke-width: 0.8"/>
     </g>
     <g id="line2d_24">
      <g>
       <use xlink:href="#m57db2f1301" x="108" y="241.630553" style="fill: #a9a9a9; stroke: #a9a9a9; stroke-width: 0.8"/>
      </g>
     </g>
     <g id="text_12">
      <!-- 2000 -->
      <g style="fill: #a9a9a9" transform="translate(75.55 245.429772) scale(0.1 -0.1)">
       <use xlink:href="#DejaVuSans-32"/>
       <use xlink:href="#DejaVuSans-30" transform="translate(63.623047 0)"/>
       <use xlink:href="#DejaVuSans-30" transform="translate(127.246094 0)"/>
       <use xlink:href="#DejaVuSans-30" transform="translate(190.869141 0)"/>
      </g>
     </g>
    </g>
    <g id="ytick_4">
     <g id="line2d_25">
      <path d="M 108 208.529279 
L 777.6 208.529279 
" clip-path="url(#p66aea873ef)" style="fill: none; stroke-dasharray: 5.12,1.28,0.8,1.28; stroke-dashoffset: 0; stroke: #b0b0b0; stroke-width: 0.8"/>
     </g>
     <g id="line2d_26">
      <g>
       <use xlink:href="#m57db2f1301" x="108" y="208.529279" style="fill: #a9a9a9; stroke: #a9a9a9; stroke-width: 0.8"/>
      </g>
     </g>
     <g id="text_13">
      <!-- 3000 -->
      <g style="fill: #a9a9a9" transform="translate(75.55 212.328498) scale(0.1 -0.1)">
       <use xlink:href="#DejaVuSans-33"/>
       <use xlink:href="#DejaVuSans-30" transform="translate(63.623047 0)"/>
       <use xlink:href="#DejaVuSans-30" transform="translate(127.246094 0)"/>
       <use xlink:href="#DejaVuSans-30" transform="translate(190.869141 0)"/>
      </g>
     </g>
    </g>
    <g id="ytick_5">
     <g id="line2d_27">
      <path d="M 108 175.428005 
L 777.6 175.428005 
" clip-path="url(#p66aea873ef)" style="fill: none; stroke-dasharray: 5.12,1.28,0.8,1.28; stroke-dashoffset: 0; stroke: #b0b0b0; stroke-width: 0.8"/>
     </g>
     <g id="line2d_28">
      <g>
       <use xlink:href="#m57db2f1301" x="108" y="175.428005" style="fill: #a9a9a9; stroke: #a9a9a9; stroke-width: 0.8"/>
      </g>
     </g>
     <g id="text_14">
      <!-- 4000 -->
      <g style="fill: #a9a9a9" transform="translate(75.55 179.227223) scale(0.1 -0.1)">
       <use xlink:href="#DejaVuSans-34"/>
       <use xlink:href="#DejaVuSans-30" transform="translate(63.623047 0)"/>
       <use xlink:href="#DejaVuSans-30" transform="translate(127.246094 0)"/>
       <use xlink:href="#DejaVuSans-30" transform="translate(190.869141 0)"/>
      </g>
     </g>
    </g>
    <g id="ytick_6">
     <g id="line2d_29">
      <path d="M 108 142.326731 
L 777.6 142.326731 
" clip-path="url(#p66aea873ef)" style="fill: none; stroke-dasharray: 5.12,1.28,0.8,1.28; stroke-dashoffset: 0; stroke: #b0b0b0; stroke-width: 0.8"/>
     </g>
     <g id="line2d_30">
      <g>
       <use xlink:href="#m57db2f1301" x="108" y="142.326731" style="fill: #a9a9a9; stroke: #a9a9a9; stroke-width: 0.8"/>
      </g>
     </g>
     <g id="text_15">
      <!-- 5000 -->
      <g style="fill: #a9a9a9" transform="translate(75.55 146.125949) scale(0.1 -0.1)">
       <use xlink:href="#DejaVuSans-35"/>
       <use xlink:href="#DejaVuSans-30" transform="translate(63.623047 0)"/>
       <use xlink:href="#DejaVuSans-30" transform="translate(127.246094 0)"/>
       <use xlink:href="#DejaVuSans-30" transform="translate(190.869141 0)"/>
      </g>
     </g>
    </g>
    <g id="ytick_7">
     <g id="line2d_31">
      <path d="M 108 109.225456 
L 777.6 109.225456 
" clip-path="url(#p66aea873ef)" style="fill: none; stroke-dasharray: 5.12,1.28,0.8,1.28; stroke-dashoffset: 0; stroke: #b0b0b0; stroke-width: 0.8"/>
     </g>
     <g id="line2d_32">
      <g>
       <use xlink:href="#m57db2f1301" x="108" y="109.225456" style="fill: #a9a9a9; stroke: #a9a9a9; stroke-width: 0.8"/>
      </g>
     </g>
     <g id="text_16">
      <!-- 6000 -->
      <g style="fill: #a9a9a9" transform="translate(75.55 113.024675) scale(0.1 -0.1)">
       <defs>
        <path id="DejaVuSans-36" d="M 2113 2584 
Q 1688 2584 1439 2293 
Q 1191 2003 1191 1497 
Q 1191 994 1439 701 
Q 1688 409 2113 409 
Q 2538 409 2786 701 
Q 3034 994 3034 1497 
Q 3034 2003 2786 2293 
Q 2538 2584 2113 2584 
z
M 3366 4563 
L 3366 3988 
Q 3128 4100 2886 4159 
Q 2644 4219 2406 4219 
Q 1781 4219 1451 3797 
Q 1122 3375 1075 2522 
Q 1259 2794 1537 2939 
Q 1816 3084 2150 3084 
Q 2853 3084 3261 2657 
Q 3669 2231 3669 1497 
Q 3669 778 3244 343 
Q 2819 -91 2113 -91 
Q 1303 -91 875 529 
Q 447 1150 447 2328 
Q 447 3434 972 4092 
Q 1497 4750 2381 4750 
Q 2619 4750 2861 4703 
Q 3103 4656 3366 4563 
z
" transform="scale(0.015625)"/>
       </defs>
       <use xlink:href="#DejaVuSans-36"/>
       <use xlink:href="#DejaVuSans-30" transform="translate(63.623047 0)"/>
       <use xlink:href="#DejaVuSans-30" transform="translate(127.246094 0)"/>
       <use xlink:href="#DejaVuSans-30" transform="translate(190.869141 0)"/>
      </g>
     </g>
    </g>
    <g id="ytick_8">
     <g id="line2d_33">
      <path d="M 108 76.124182 
L 777.6 76.124182 
" clip-path="url(#p66aea873ef)" style="fill: none; stroke-dasharray: 5.12,1.28,0.8,1.28; stroke-dashoffset: 0; stroke: #b0b0b0; stroke-width: 0.8"/>
     </g>
     <g id="line2d_34">
      <g>
       <use xlink:href="#m57db2f1301" x="108" y="76.124182" style="fill: #a9a9a9; stroke: #a9a9a9; stroke-width: 0.8"/>
      </g>
     </g>
     <g id="text_17">
      <!-- 7000 -->
      <g style="fill: #a9a9a9" transform="translate(75.55 79.923401) scale(0.1 -0.1)">
       <use xlink:href="#DejaVuSans-37"/>
       <use xlink:href="#DejaVuSans-30" transform="translate(63.623047 0)"/>
       <use xlink:href="#DejaVuSans-30" transform="translate(127.246094 0)"/>
       <use xlink:href="#DejaVuSans-30" transform="translate(190.869141 0)"/>
      </g>
     </g>
    </g>
   </g>
   <g id="line2d_35">
    <path d="M 138.436364 307.733797 
L 141.071547 307.502089 
L 141.510744 307.303481 
L 143.267532 307.071772 
L 145.024321 306.707658 
L 145.902715 306.575253 
L 148.098701 306.376645 
L 148.977096 306.012531 
L 149.416293 305.416708 
L 149.85549 305.118797 
L 150.294687 304.125759 
L 150.733884 304.059556 
L 151.173081 303.695442 
L 152.051476 303.232024 
L 153.808264 301.775568 
L 155.565053 300.881834 
L 156.882645 300.252909 
L 157.321842 299.524681 
L 158.200236 298.862656 
L 158.639433 298.664048 
L 163.031405 298.002023 
L 163.470602 297.803415 
L 166.544982 297.538605 
L 168.301771 297.108288 
L 171.815348 296.611769 
L 172.254545 296.38006 
L 172.693743 296.313858 
L 173.572137 296.015946 
L 176.646517 295.486326 
L 177.524911 295.221516 
L 181.477686 294.526389 
L 182.35608 294.327781 
L 183.234475 294.29468 
L 184.991263 293.864364 
L 185.43046 293.235439 
L 186.748052 292.705819 
L 188.065643 292.341705 
L 188.504841 292.109996 
L 189.383235 291.94449 
L 191.140024 291.414869 
L 192.018418 291.348667 
L 192.896812 291.116958 
L 194.653601 290.65354 
L 195.092798 290.620439 
L 195.971192 290.190122 
L 196.41039 290.12392 
L 196.849587 289.892211 
L 201.680756 289.064679 
L 203.437544 288.535058 
L 203.876741 288.237147 
L 206.072727 287.508919 
L 206.951122 286.879995 
L 208.268713 286.615185 
L 217.931051 283.735374 
L 218.370248 283.702272 
L 219.687839 283.305057 
L 220.127037 283.305057 
L 220.566234 283.106449 
L 221.444628 283.007146 
L 221.883825 282.841639 
L 223.640614 282.775437 
L 224.519008 282.60993 
L 225.397403 282.146513 
L 226.714994 281.649993 
L 227.593388 281.186576 
L 228.471783 280.723158 
L 229.350177 280.425246 
L 229.789374 280.292841 
L 230.667769 279.73012 
L 231.106966 279.2336 
L 231.98536 277.843347 
L 232.424557 277.710942 
L 232.863754 277.710942 
L 234.181346 276.916511 
L 234.620543 276.684802 
L 235.05974 276.585498 
L 235.498937 276.155182 
L 236.377332 275.791068 
L 237.255726 275.360751 
L 239.451712 272.48094 
L 242.086895 271.024484 
L 242.965289 270.296256 
L 243.404486 270.031446 
L 243.843684 269.402522 
L 244.282881 268.376383 
L 244.722078 267.681256 
L 245.161275 267.317142 
L 245.600472 267.118534 
L 249.11405 263.808407 
L 249.992444 262.980875 
L 252.627627 261.29271 
L 253.066824 261.127203 
L 254.823613 260.067963 
L 255.26281 259.869355 
L 257.458796 257.817076 
L 258.33719 257.452962 
L 259.215584 256.824038 
L 259.654782 256.559228 
L 260.093979 256.493025 
L 261.41157 255.731696 
L 261.850767 255.235177 
L 264.046753 254.01043 
L 264.48595 253.844923 
L 265.803542 252.918087 
L 272.391499 250.534796 
L 273.269894 249.707264 
L 274.587485 249.045238 
L 275.46588 248.482517 
L 276.344274 248.217707 
L 276.783471 247.919795 
L 277.222668 247.78739 
L 278.54026 246.893656 
L 280.736246 246.397136 
L 282.053837 245.602706 
L 283.371429 245.304794 
L 283.810626 245.205491 
L 285.128217 244.179351 
L 286.885006 243.682832 
L 287.324203 243.318718 
L 289.959386 242.391882 
L 290.83778 242.226376 
L 291.716175 241.862262 
L 294.790555 240.703717 
L 295.668949 240.571312 
L 296.986541 240.107894 
L 299.182527 239.015552 
L 300.939315 238.022514 
L 304.452893 236.532957 
L 304.89209 236.466754 
L 305.770484 235.904033 
L 306.648878 235.672324 
L 307.96647 235.142703 
L 309.723259 234.910994 
L 310.601653 234.447577 
L 311.04085 234.050361 
L 311.480047 233.255931 
L 313.236836 232.759412 
L 314.554427 232.064285 
L 315.432822 231.766373 
L 316.311216 231.302955 
L 318.946399 230.210613 
L 319.824793 230.012006 
L 320.703188 229.548588 
L 321.142385 229.34998 
L 321.581582 229.283778 
L 323.777568 228.191436 
L 324.655962 227.628714 
L 325.973554 227.363904 
L 328.16954 226.801182 
L 328.608737 226.437068 
L 329.487131 226.139157 
L 331.683117 225.245422 
L 332.122314 224.91441 
L 332.561511 224.748903 
L 333.439906 224.252384 
L 335.196694 223.689662 
L 336.075089 223.126941 
L 336.514286 222.663523 
L 336.953483 222.398713 
L 337.39268 222.299409 
L 338.271074 221.571181 
L 338.710272 221.504978 
L 339.149469 220.77675 
L 339.588666 220.578143 
L 340.027863 220.214029 
L 340.46706 220.147826 
L 341.345455 219.585104 
L 342.223849 219.287193 
L 342.663046 218.95618 
L 343.102243 218.790674 
L 344.859032 217.599028 
L 346.176623 216.903901 
L 347.055018 216.672192 
L 347.933412 216.175673 
L 348.372609 215.414344 
L 349.251004 214.752318 
L 349.690201 214.653015 
L 352.325384 213.362065 
L 353.203778 212.997951 
L 354.082172 212.369027 
L 354.960567 211.475292 
L 358.913341 208.363772 
L 359.352538 207.999658 
L 360.230933 207.701747 
L 361.109327 207.105924 
L 362.426919 206.410797 
L 362.866116 206.344595 
L 364.183707 205.616367 
L 365.062102 205.053645 
L 369.454073 203.398581 
L 369.89327 203.034467 
L 371.650059 202.339341 
L 372.089256 202.206936 
L 372.967651 201.611113 
L 373.846045 201.246999 
L 374.724439 200.618074 
L 375.602834 198.830606 
L 376.481228 197.771365 
L 377.798819 197.076238 
L 378.677214 196.712124 
L 379.116411 196.645921 
L 379.555608 196.381111 
L 381.751594 195.652883 
L 382.190791 195.454276 
L 383.069185 194.858453 
L 384.386777 194.295731 
L 385.265171 193.799212 
L 386.143566 193.269591 
L 386.582763 192.97168 
L 387.02196 192.475161 
L 388.339551 191.713832 
L 388.778749 191.548325 
L 389.657143 191.018705 
L 391.413932 190.058768 
L 391.853129 189.959464 
L 392.292326 189.59535 
L 395.366706 188.602312 
L 395.805903 188.271299 
L 396.684298 188.006489 
L 397.562692 187.642375 
L 398.001889 187.278261 
L 399.758678 186.649337 
L 400.637072 186.020412 
L 401.515466 185.656298 
L 402.393861 184.961172 
L 403.272255 184.696361 
L 403.711452 184.299146 
L 404.150649 184.232944 
L 405.029044 183.537817 
L 405.907438 183.074399 
L 406.346635 182.875791 
L 406.785832 182.412374 
L 409.860213 181.154525 
L 410.738607 180.75731 
L 412.056198 180.326993 
L 412.934593 180.194588 
L 413.37379 179.995981 
L 413.812987 179.929778 
L 414.691381 179.532563 
L 415.130579 179.499461 
L 416.887367 178.837436 
L 418.204959 177.877499 
L 418.644156 177.711993 
L 419.52255 177.215474 
L 419.961747 177.083068 
L 422.59693 175.593511 
L 423.036128 175.494207 
L 424.353719 174.699777 
L 425.671311 174.236359 
L 426.549705 173.938447 
L 428.306494 173.342624 
L 429.184888 173.044713 
L 430.941677 172.680599 
L 431.380874 172.481991 
L 432.259268 172.250282 
L 432.698465 172.051675 
L 433.137662 171.985472 
L 433.57686 171.753763 
L 434.455254 171.588257 
L 435.772845 171.091738 
L 436.65124 170.992434 
L 437.968831 170.694523 
L 440.164817 170.297307 
L 451.583943 166.854775 
L 452.02314 166.391357 
L 452.901535 166.027243 
L 456.415112 164.670091 
L 456.854309 164.40528 
L 458.171901 164.008065 
L 459.050295 163.776356 
L 459.489492 163.478445 
L 459.928689 163.379141 
L 460.367887 162.981926 
L 461.685478 162.717115 
L 462.563872 162.286799 
L 463.00307 161.757179 
L 464.759858 161.326862 
L 467.834238 160.664836 
L 468.273436 160.664836 
L 468.712633 160.466229 
L 470.469421 160.135216 
L 470.908619 159.936608 
L 472.665407 159.605596 
L 473.543802 159.241482 
L 474.422196 159.075975 
L 476.618182 158.513254 
L 478.37497 157.950532 
L 478.814168 157.851228 
L 479.253365 157.619519 
L 480.131759 157.38781 
L 481.010153 157.023696 
L 481.888548 156.692684 
L 482.327745 156.394772 
L 483.206139 156.129962 
L 486.280519 154.971417 
L 488.037308 154.739708 
L 491.550885 153.448759 
L 491.990083 153.117746 
L 492.42928 153.018442 
L 492.868477 152.786733 
L 493.307674 152.753632 
L 498.138843 150.999264 
L 500.334829 150.403441 
L 501.213223 149.973125 
L 502.530815 149.675213 
L 504.287603 148.218757 
L 506.044392 147.457428 
L 506.922786 147.060213 
L 509.557969 146.034073 
L 509.997166 145.736162 
L 512.193152 145.007934 
L 513.510744 144.246604 
L 513.949941 144.147301 
L 515.70673 143.154262 
L 517.463518 142.359832 
L 517.902715 142.028819 
L 518.78111 141.730908 
L 520.977096 140.605464 
L 522.294687 140.142046 
L 524.051476 139.413818 
L 525.369067 138.917299 
L 525.808264 138.751793 
L 526.686659 138.619388 
L 527.125856 138.321476 
L 528.882645 137.957362 
L 529.761039 137.593248 
L 531.517828 136.765717 
L 537.666588 134.051412 
L 538.984179 133.621095 
L 539.423377 133.323184 
L 540.301771 133.22388 
L 540.740968 132.925969 
L 541.619362 132.760462 
L 542.497757 132.330146 
L 542.936954 132.131538 
L 543.815348 131.899829 
L 544.693743 131.635019 
L 546.011334 131.1385 
L 547.328926 130.708183 
L 548.646517 130.410272 
L 550.403306 129.682044 
L 551.2817 129.185525 
L 553.038489 128.29179 
L 553.916883 128.093183 
L 554.35608 127.828373 
L 554.795277 127.729069 
L 556.112869 126.967739 
L 556.991263 126.603625 
L 558.748052 125.908499 
L 560.944038 125.147169 
L 561.822432 124.683751 
L 564.018418 123.922422 
L 566.653601 122.83008 
L 568.41039 122.002548 
L 572.802361 120.281282 
L 573.680756 119.850965 
L 574.119953 119.751662 
L 574.55915 119.519953 
L 576.315939 119.023434 
L 578.072727 117.566978 
L 578.511924 117.434572 
L 578.951122 117.169762 
L 580.268713 116.805648 
L 580.70791 116.474635 
L 581.147107 116.375332 
L 582.025502 115.81261 
L 583.343093 115.117483 
L 584.221488 114.753369 
L 584.660685 114.52166 
L 585.978276 114.223749 
L 588.174262 113.46242 
L 589.052656 113.164508 
L 590.370248 112.502483 
L 591.248642 112.072166 
L 592.127037 111.840457 
L 593.444628 111.211533 
L 597.397403 109.721976 
L 598.714994 108.894444 
L 599.154191 108.79514 
L 600.032586 108.364823 
L 600.91098 108.033811 
L 601.350177 107.636595 
L 602.228571 107.272481 
L 603.546163 106.809063 
L 603.98536 106.444949 
L 604.424557 106.411848 
L 605.302952 106.147038 
L 606.181346 105.849126 
L 606.620543 105.650519 
L 607.05974 105.584316 
L 608.377332 105.087797 
L 609.694923 104.591278 
L 611.451712 103.796847 
L 612.330106 103.565139 
L 612.769303 103.300328 
L 613.647698 103.068619 
L 614.965289 102.30729 
L 615.404486 102.274189 
L 616.722078 101.843872 
L 617.600472 101.77767 
L 618.039669 101.545961 
L 618.918064 101.314252 
L 619.357261 101.082543 
L 621.553247 100.652226 
L 622.431641 100.48672 
L 623.749233 99.990201 
L 625.066824 99.69229 
L 626.384416 98.997163 
L 626.823613 98.599947 
L 628.141204 97.805517 
L 628.580401 97.474504 
L 629.897993 97.044188 
L 630.776387 96.779377 
L 631.215584 96.547668 
L 631.654782 96.448365 
L 632.093979 96.084251 
L 634.729162 94.958807 
L 636.48595 94.495389 
L 637.364345 94.098174 
L 637.803542 93.866465 
L 638.681936 93.601655 
L 639.121133 93.336845 
L 639.999528 93.171338 
L 643.513105 91.64868 
L 643.952302 91.582477 
L 645.269894 90.721844 
L 645.709091 90.655642 
L 647.46588 89.960515 
L 649.222668 89.530198 
L 649.661865 89.463996 
L 650.101063 89.265388 
L 650.54026 89.232287 
L 651.418654 88.934375 
L 651.857851 88.901274 
L 653.175443 88.371654 
L 654.932231 87.875135 
L 655.810626 87.213109 
L 657.567414 86.220071 
L 658.885006 85.756653 
L 662.398583 84.068488 
L 662.83778 83.836779 
L 663.276978 83.439564 
L 665.472963 82.843741 
L 666.790555 82.247918 
L 667.668949 82.016209 
L 668.108146 81.7845 
L 668.547344 81.420386 
L 670.304132 80.956968 
L 670.743329 80.625956 
L 676.452893 78.540575 
L 677.331287 78.375069 
L 679.527273 77.679942 
L 680.405667 77.315828 
L 681.284061 76.984815 
L 682.162456 76.753107 
L 682.601653 76.554499 
L 683.04085 76.554499 
L 683.919244 76.190385 
L 684.797639 75.660764 
L 687.872019 74.634625 
L 689.628808 74.038802 
L 690.946399 73.740891 
L 692.263991 73.310574 
L 692.703188 73.21127 
L 693.142385 72.913359 
L 694.020779 72.714751 
L 695.777568 72.218232 
L 696.216765 72.185131 
L 697.095159 71.787915 
L 700.16954 71.026586 
L 701.047934 70.662472 
L 705.439906 69.669434 
L 706.757497 68.974307 
L 708.075089 68.577092 
L 712.46706 66.955129 
L 712.906257 66.624117 
L 714.223849 66.326205 
L 715.102243 66.061395 
L 715.980638 65.631078 
L 716.419835 65.266964 
L 717.298229 65.002154 
L 717.737426 64.737344 
L 718.615821 64.63804 
L 721.690201 63.777407 
L 723.007792 63.512597 
L 725.642975 62.651964 
L 727.399764 61.824432 
L 732.230933 60.003862 
L 733.109327 59.871457 
L 733.987721 59.70595 
L 734.426919 59.70595 
L 736.183707 59.143229 
L 736.622904 59.077026 
L 737.501299 58.712912 
L 738.81889 58.315697 
L 740.136482 57.88538 
L 742.332468 57.388861 
L 742.771665 57.124051 
L 743.650059 56.958545 
L 744.528453 56.859241 
L 744.967651 56.627532 
L 745.406848 56.594431 
L 746.285242 56.031709 
L 747.163636 55.8 
L 747.163636 55.8 
" clip-path="url(#p66aea873ef)" style="fill: none; stroke: #1f77b4; stroke-width: 1.5; stroke-linecap: square"/>
   </g>
   <g id="line2d_36">
    <path d="M 138.875561 307.8 
L 142.828335 307.700696 
L 146.341913 307.53519 
L 148.098701 307.53519 
L 148.537898 307.402785 
L 150.733884 307.303481 
L 153.369067 307.005569 
L 156.00425 306.906266 
L 156.882645 306.806962 
L 159.957025 306.674557 
L 163.031405 306.575253 
L 165.227391 306.50905 
L 170.936954 306.409746 
L 173.13294 306.343544 
L 177.085714 306.24424 
L 178.842503 306.211139 
L 183.234475 306.111835 
L 184.991263 305.946329 
L 186.748052 305.913227 
L 189.383235 305.813924 
L 191.140024 305.780822 
L 193.336009 305.71462 
L 195.092798 305.549113 
L 199.045573 305.44981 
L 199.923967 305.383607 
L 201.680756 305.284303 
L 204.315939 305.184999 
L 206.072727 305.085696 
L 213.978276 304.589176 
L 217.052656 304.489873 
L 218.370248 304.357467 
L 220.566234 304.258164 
L 224.958205 304.026455 
L 229.350177 303.960252 
L 231.106966 303.761645 
L 232.863754 303.662341 
L 237.694923 303.198923 
L 240.769303 302.834809 
L 242.086895 302.768606 
L 245.600472 302.305188 
L 248.235655 302.238986 
L 249.553247 302.106581 
L 250.870838 302.007277 
L 263.168359 301.04734 
L 264.046753 300.881834 
L 266.681936 300.78253 
L 273.709091 300.352213 
L 276.783471 300.252909 
L 278.54026 300.054302 
L 280.736246 299.954998 
L 283.371429 299.855694 
L 285.567414 299.75639 
L 287.324203 299.723289 
L 289.520189 299.657087 
L 290.398583 299.524681 
L 296.547344 299.425378 
L 297.425738 299.326074 
L 302.696104 299.22677 
L 306.648878 299.028162 
L 309.723259 298.928859 
L 311.480047 298.730251 
L 314.554427 298.630947 
L 315.432822 298.465441 
L 317.628808 298.399238 
L 322.020779 298.333036 
L 323.777568 298.167529 
L 325.534357 298.134428 
L 326.851948 298.035124 
L 328.608737 297.869618 
L 333.000708 297.637909 
L 337.39268 297.538605 
L 341.345455 297.339997 
L 342.663046 297.306896 
L 343.54144 297.174491 
L 345.737426 297.075187 
L 346.615821 297.008985 
L 347.494215 296.942782 
L 348.372609 296.87658 
L 352.325384 296.810377 
L 353.642975 296.711073 
L 365.501299 295.916643 
L 367.697285 295.817339 
L 369.89327 295.751136 
L 376.042031 295.651832 
L 376.920425 295.519427 
L 383.069185 295.420123 
L 387.461157 295.188415 
L 388.339551 295.155313 
L 389.217946 295.056009 
L 391.413932 294.956706 
L 393.609917 294.890503 
L 395.805903 294.791199 
L 398.001889 294.724997 
L 401.954664 294.625693 
L 404.589847 294.526389 
L 410.738607 294.427085 
L 415.569776 294.162275 
L 417.326564 294.096073 
L 418.644156 293.996769 
L 424.792916 293.897465 
L 427.428099 293.798161 
L 435.333648 293.698857 
L 437.090437 293.665756 
L 442.360803 293.599553 
L 443.239197 293.533351 
L 449.387957 293.434047 
L 451.144746 293.400946 
L 462.563872 293.301642 
L 465.199055 293.202338 
L 483.645336 293.103034 
L 485.841322 293.036832 
L 497.260449 292.970629 
L 498.138843 292.904427 
L 500.334829 292.838224 
L 501.65242 292.705819 
L 504.287603 292.606515 
L 507.361983 292.47411 
L 511.314758 292.374806 
L 513.510744 292.308604 
L 516.585124 292.2093 
L 520.098701 292.043794 
L 522.294687 291.94449 
L 524.051476 291.911388 
L 528.00425 291.812085 
L 529.761039 291.778983 
L 535.470602 291.679679 
L 537.227391 291.646578 
L 539.423377 291.547274 
L 542.05856 291.447971 
L 545.13294 291.381768 
L 546.011334 291.315565 
L 556.552066 291.216262 
L 562.261629 290.885249 
L 564.457615 290.819046 
L 565.336009 290.719743 
L 566.214404 290.65354 
L 569.727981 290.554236 
L 572.363164 290.454932 
L 576.755136 290.355629 
L 578.951122 290.12392 
L 583.343093 290.024616 
L 584.221488 289.925312 
L 588.613459 289.826008 
L 590.809445 289.759806 
L 595.640614 289.726704 
L 596.519008 289.6274 
L 601.350177 289.528097 
L 602.228571 289.461894 
L 611.890909 289.36259 
L 614.526092 289.263286 
L 621.11405 289.163983 
L 622.870838 289.130881 
L 626.823613 289.064679 
L 627.702007 288.965375 
L 633.41157 288.866071 
L 635.607556 288.799869 
L 643.513105 288.700565 
L 644.830697 288.601261 
L 646.148288 288.501957 
L 647.46588 288.402653 
L 654.053837 288.30335 
L 656.68902 288.204046 
L 668.547344 288.104742 
L 672.500118 287.906134 
L 677.770484 287.80683 
L 678.648878 287.740628 
L 685.236836 287.674425 
L 686.11523 287.608223 
L 690.946399 287.508919 
L 692.703188 287.475818 
L 698.851948 287.376514 
L 701.487131 287.27721 
L 708.953483 287.177906 
L 710.710272 287.144805 
L 714.663046 287.045501 
L 718.176623 286.879995 
L 723.007792 286.780691 
L 726.082172 286.648286 
L 730.034947 286.548982 
L 730.913341 286.482779 
L 739.697285 286.383476 
L 741.89327 286.317273 
L 744.528453 286.217969 
L 747.163636 286.118665 
L 747.163636 286.118665 
" clip-path="url(#p66aea873ef)" style="fill: none; stroke: #ff7f0e; stroke-width: 1.5; stroke-linecap: square"/>
   </g>
   <g id="patch_3">
    <path d="M 108 320.4 
L 108 43.2 
" style="fill: none; stroke: #a9a9a9; stroke-width: 0.8; stroke-linejoin: miter; stroke-linecap: square"/>
   </g>
   <g id="patch_4">
    <path d="M 777.6 320.4 
L 777.6 43.2 
" style="fill: none"/>
   </g>
   <g id="patch_5">
    <path d="M 108 320.4 
L 777.6 320.4 
" style="fill: none; stroke: #a9a9a9; stroke-width: 0.8; stroke-linejoin: miter; stroke-linecap: square"/>
   </g>
   <g id="patch_6">
    <path d="M 108 43.2 
L 777.6 43.2 
" style="fill: none"/>
   </g>
   <g id="text_18">
    <!-- get_subscribe history -->
    <g style="fill: #a9a9a9" transform="translate(378.6075 37.2) scale(0.12 -0.12)">
     <defs>
      <path id="DejaVuSans-67" d="M 2906 1791 
Q 2906 2416 2648 2759 
Q 2391 3103 1925 3103 
Q 1463 3103 1205 2759 
Q 947 2416 947 1791 
Q 947 1169 1205 825 
Q 1463 481 1925 481 
Q 2391 481 2648 825 
Q 2906 1169 2906 1791 
z
M 3481 434 
Q 3481 -459 3084 -895 
Q 2688 -1331 1869 -1331 
Q 1566 -1331 1297 -1286 
Q 1028 -1241 775 -1147 
L 775 -588 
Q 1028 -725 1275 -790 
Q 1522 -856 1778 -856 
Q 2344 -856 2625 -561 
Q 2906 -266 2906 331 
L 2906 616 
Q 2728 306 2450 153 
Q 2172 0 1784 0 
Q 1141 0 747 490 
Q 353 981 353 1791 
Q 353 2603 747 3093 
Q 1141 3584 1784 3584 
Q 2172 3584 2450 3431 
Q 2728 3278 2906 2969 
L 2906 3500 
L 3481 3500 
L 3481 434 
z
" transform="scale(0.015625)"/>
      <path id="DejaVuSans-65" d="M 3597 1894 
L 3597 1613 
L 953 1613 
Q 991 1019 1311 708 
Q 1631 397 2203 397 
Q 2534 397 2845 478 
Q 3156 559 3463 722 
L 3463 178 
Q 3153 47 2828 -22 
Q 2503 -91 2169 -91 
Q 1331 -91 842 396 
Q 353 884 353 1716 
Q 353 2575 817 3079 
Q 1281 3584 2069 3584 
Q 2775 3584 3186 3129 
Q 3597 2675 3597 1894 
z
M 3022 2063 
Q 3016 2534 2758 2815 
Q 2500 3097 2075 3097 
Q 1594 3097 1305 2825 
Q 1016 2553 972 2059 
L 3022 2063 
z
" transform="scale(0.015625)"/>
      <path id="DejaVuSans-74" d="M 1172 4494 
L 1172 3500 
L 2356 3500 
L 2356 3053 
L 1172 3053 
L 1172 1153 
Q 1172 725 1289 603 
Q 1406 481 1766 481 
L 2356 481 
L 2356 0 
L 1766 0 
Q 1100 0 847 248 
Q 594 497 594 1153 
L 594 3053 
L 172 3053 
L 172 3500 
L 594 3500 
L 594 4494 
L 1172 4494 
z
" transform="scale(0.015625)"/>
      <path id="DejaVuSans-5f" d="M 3263 -1063 
L 3263 -1509 
L -63 -1509 
L -63 -1063 
L 3263 -1063 
z
" transform="scale(0.015625)"/>
      <path id="DejaVuSans-73" d="M 2834 3397 
L 2834 2853 
Q 2591 2978 2328 3040 
Q 2066 3103 1784 3103 
Q 1356 3103 1142 2972 
Q 928 2841 928 2578 
Q 928 2378 1081 2264 
Q 1234 2150 1697 2047 
L 1894 2003 
Q 2506 1872 2764 1633 
Q 3022 1394 3022 966 
Q 3022 478 2636 193 
Q 2250 -91 1575 -91 
Q 1294 -91 989 -36 
Q 684 19 347 128 
L 347 722 
Q 666 556 975 473 
Q 1284 391 1588 391 
Q 1994 391 2212 530 
Q 2431 669 2431 922 
Q 2431 1156 2273 1281 
Q 2116 1406 1581 1522 
L 1381 1569 
Q 847 1681 609 1914 
Q 372 2147 372 2553 
Q 372 3047 722 3315 
Q 1072 3584 1716 3584 
Q 2034 3584 2315 3537 
Q 2597 3491 2834 3397 
z
" transform="scale(0.015625)"/>
      <path id="DejaVuSans-75" d="M 544 1381 
L 544 3500 
L 1119 3500 
L 1119 1403 
Q 1119 906 1312 657 
Q 1506 409 1894 409 
Q 2359 409 2629 706 
Q 2900 1003 2900 1516 
L 2900 3500 
L 3475 3500 
L 3475 0 
L 2900 0 
L 2900 538 
Q 2691 219 2414 64 
Q 2138 -91 1772 -91 
Q 1169 -91 856 284 
Q 544 659 544 1381 
z
M 1991 3584 
L 1991 3584 
z
" transform="scale(0.015625)"/>
      <path id="DejaVuSans-62" d="M 3116 1747 
Q 3116 2381 2855 2742 
Q 2594 3103 2138 3103 
Q 1681 3103 1420 2742 
Q 1159 2381 1159 1747 
Q 1159 1113 1420 752 
Q 1681 391 2138 391 
Q 2594 391 2855 752 
Q 3116 1113 3116 1747 
z
M 1159 2969 
Q 1341 3281 1617 3432 
Q 1894 3584 2278 3584 
Q 2916 3584 3314 3078 
Q 3713 2572 3713 1747 
Q 3713 922 3314 415 
Q 2916 -91 2278 -91 
Q 1894 -91 1617 61 
Q 1341 213 1159 525 
L 1159 0 
L 581 0 
L 581 4863 
L 1159 4863 
L 1159 2969 
z
" transform="scale(0.015625)"/>
      <path id="DejaVuSans-63" d="M 3122 3366 
L 3122 2828 
Q 2878 2963 2633 3030 
Q 2388 3097 2138 3097 
Q 1578 3097 1268 2742 
Q 959 2388 959 1747 
Q 959 1106 1268 751 
Q 1578 397 2138 397 
Q 2388 397 2633 464 
Q 2878 531 3122 666 
L 3122 134 
Q 2881 22 2623 -34 
Q 2366 -91 2075 -91 
Q 1284 -91 818 406 
Q 353 903 353 1747 
Q 353 2603 823 3093 
Q 1294 3584 2113 3584 
Q 2378 3584 2631 3529 
Q 2884 3475 3122 3366 
z
" transform="scale(0.015625)"/>
      <path id="DejaVuSans-72" d="M 2631 2963 
Q 2534 3019 2420 3045 
Q 2306 3072 2169 3072 
Q 1681 3072 1420 2755 
Q 1159 2438 1159 1844 
L 1159 0 
L 581 0 
L 581 3500 
L 1159 3500 
L 1159 2956 
Q 1341 3275 1631 3429 
Q 1922 3584 2338 3584 
Q 2397 3584 2469 3576 
Q 2541 3569 2628 3553 
L 2631 2963 
z
" transform="scale(0.015625)"/>
      <path id="DejaVuSans-69" d="M 603 3500 
L 1178 3500 
L 1178 0 
L 603 0 
L 603 3500 
z
M 603 4863 
L 1178 4863 
L 1178 4134 
L 603 4134 
L 603 4863 
z
" transform="scale(0.015625)"/>
      <path id="DejaVuSans-20" transform="scale(0.015625)"/>
      <path id="DejaVuSans-68" d="M 3513 2113 
L 3513 0 
L 2938 0 
L 2938 2094 
Q 2938 2591 2744 2837 
Q 2550 3084 2163 3084 
Q 1697 3084 1428 2787 
Q 1159 2491 1159 1978 
L 1159 0 
L 581 0 
L 581 4863 
L 1159 4863 
L 1159 2956 
Q 1366 3272 1645 3428 
Q 1925 3584 2291 3584 
Q 2894 3584 3203 3211 
Q 3513 2838 3513 2113 
z
" transform="scale(0.015625)"/>
      <path id="DejaVuSans-6f" d="M 1959 3097 
Q 1497 3097 1228 2736 
Q 959 2375 959 1747 
Q 959 1119 1226 758 
Q 1494 397 1959 397 
Q 2419 397 2687 759 
Q 2956 1122 2956 1747 
Q 2956 2369 2687 2733 
Q 2419 3097 1959 3097 
z
M 1959 3584 
Q 2709 3584 3137 3096 
Q 3566 2609 3566 1747 
Q 3566 888 3137 398 
Q 2709 -91 1959 -91 
Q 1206 -91 779 398 
Q 353 888 353 1747 
Q 353 2609 779 3096 
Q 1206 3584 1959 3584 
z
" transform="scale(0.015625)"/>
      <path id="DejaVuSans-79" d="M 2059 -325 
Q 1816 -950 1584 -1140 
Q 1353 -1331 966 -1331 
L 506 -1331 
L 506 -850 
L 844 -850 
Q 1081 -850 1212 -737 
Q 1344 -625 1503 -206 
L 1606 56 
L 191 3500 
L 800 3500 
L 1894 763 
L 2988 3500 
L 3597 3500 
L 2059 -325 
z
" transform="scale(0.015625)"/>
     </defs>
     <use xlink:href="#DejaVuSans-67"/>
     <use xlink:href="#DejaVuSans-65" transform="translate(63.476562 0)"/>
     <use xlink:href="#DejaVuSans-74" transform="translate(125 0)"/>
     <use xlink:href="#DejaVuSans-5f" transform="translate(164.208984 0)"/>
     <use xlink:href="#DejaVuSans-73" transform="translate(214.208984 0)"/>
     <use xlink:href="#DejaVuSans-75" transform="translate(266.308594 0)"/>
     <use xlink:href="#DejaVuSans-62" transform="translate(329.6875 0)"/>
     <use xlink:href="#DejaVuSans-73" transform="translate(393.164062 0)"/>
     <use xlink:href="#DejaVuSans-63" transform="translate(445.263672 0)"/>
     <use xlink:href="#DejaVuSans-72" transform="translate(500.244141 0)"/>
     <use xlink:href="#DejaVuSans-69" transform="translate(541.357422 0)"/>
     <use xlink:href="#DejaVuSans-62" transform="translate(569.140625 0)"/>
     <use xlink:href="#DejaVuSans-65" transform="translate(632.617188 0)"/>
     <use xlink:href="#DejaVuSans-20" transform="translate(694.140625 0)"/>
     <use xlink:href="#DejaVuSans-68" transform="translate(725.927734 0)"/>
     <use xlink:href="#DejaVuSans-69" transform="translate(789.306641 0)"/>
     <use xlink:href="#DejaVuSans-73" transform="translate(817.089844 0)"/>
     <use xlink:href="#DejaVuSans-74" transform="translate(869.189453 0)"/>
     <use xlink:href="#DejaVuSans-6f" transform="translate(908.398438 0)"/>
     <use xlink:href="#DejaVuSans-72" transform="translate(969.580078 0)"/>
     <use xlink:href="#DejaVuSans-79" transform="translate(1010.693359 0)"/>
    </g>
   </g>
   <g id="legend_1">
    <g id="line2d_37">
     <path d="M 815.08 328.498438 
L 825.08 328.498438 
L 835.08 328.498438 
" style="fill: none; stroke: #1f77b4; stroke-width: 1.5; stroke-linecap: square"/>
    </g>
    <g id="text_19">
     <!-- star -->
     <g style="fill: #a9a9a9" transform="translate(843.08 331.998438) scale(0.1 -0.1)">
      <defs>
       <path id="DejaVuSans-61" d="M 2194 1759 
Q 1497 1759 1228 1600 
Q 959 1441 959 1056 
Q 959 750 1161 570 
Q 1363 391 1709 391 
Q 2188 391 2477 730 
Q 2766 1069 2766 1631 
L 2766 1759 
L 2194 1759 
z
M 3341 1997 
L 3341 0 
L 2766 0 
L 2766 531 
Q 2569 213 2275 61 
Q 1981 -91 1556 -91 
Q 1019 -91 701 211 
Q 384 513 384 1019 
Q 384 1609 779 1909 
Q 1175 2209 1959 2209 
L 2766 2209 
L 2766 2266 
Q 2766 2663 2505 2880 
Q 2244 3097 1772 3097 
Q 1472 3097 1187 3025 
Q 903 2953 641 2809 
L 641 3341 
Q 956 3463 1253 3523 
Q 1550 3584 1831 3584 
Q 2591 3584 2966 3190 
Q 3341 2797 3341 1997 
z
" transform="scale(0.015625)"/>
      </defs>
      <use xlink:href="#DejaVuSans-73"/>
      <use xlink:href="#DejaVuSans-74" transform="translate(52.099609 0)"/>
      <use xlink:href="#DejaVuSans-61" transform="translate(91.308594 0)"/>
      <use xlink:href="#DejaVuSans-72" transform="translate(152.587891 0)"/>
     </g>
    </g>
    <g id="line2d_38">
     <path d="M 815.08 343.176562 
L 825.08 343.176562 
L 835.08 343.176562 
" style="fill: none; stroke: #ff7f0e; stroke-width: 1.5; stroke-linecap: square"/>
    </g>
    <g id="text_20">
     <!-- fork -->
     <g style="fill: #a9a9a9" transform="translate(843.08 346.676562) scale(0.1 -0.1)">
      <defs>
       <path id="DejaVuSans-66" d="M 2375 4863 
L 2375 4384 
L 1825 4384 
Q 1516 4384 1395 4259 
Q 1275 4134 1275 3809 
L 1275 3500 
L 2222 3500 
L 2222 3053 
L 1275 3053 
L 1275 0 
L 697 0 
L 697 3053 
L 147 3053 
L 147 3500 
L 697 3500 
L 697 3744 
Q 697 4328 969 4595 
Q 1241 4863 1831 4863 
L 2375 4863 
z
" transform="scale(0.015625)"/>
       <path id="DejaVuSans-6b" d="M 581 4863 
L 1159 4863 
L 1159 1991 
L 2875 3500 
L 3609 3500 
L 1753 1863 
L 3688 0 
L 2938 0 
L 1159 1709 
L 1159 0 
L 581 0 
L 581 4863 
z
" transform="scale(0.015625)"/>
      </defs>
      <use xlink:href="#DejaVuSans-66"/>
      <use xlink:href="#DejaVuSans-6f" transform="translate(35.205078 0)"/>
      <use xlink:href="#DejaVuSans-72" transform="translate(96.386719 0)"/>
      <use xlink:href="#DejaVuSans-6b" transform="translate(137.5 0)"/>
     </g>
    </g>
   </g>
  </g>
 </g>
 <defs>
  <clipPath id="p66aea873ef">
   <rect x="108" y="43.2" width="669.6" height="277.2"/>
  </clipPath>
 </defs>
</svg>
