<?xml version="1.0" encoding="utf-8" standalone="no"?>
<!DOCTYPE svg PUBLIC "-//W3C//DTD SVG 1.1//EN"
  "http://www.w3.org/Graphics/SVG/1.1/DTD/svg11.dtd">
<svg xmlns:xlink="http://www.w3.org/1999/xlink" width="864pt" height="360pt" viewBox="0 0 864 360" xmlns="http://www.w3.org/2000/svg" version="1.1">
 <metadata>
  <rdf:RDF xmlns:dc="http://purl.org/dc/elements/1.1/" xmlns:cc="http://creativecommons.org/ns#" xmlns:rdf="http://www.w3.org/1999/02/22-rdf-syntax-ns#">
   <cc:Work>
    <dc:type rdf:resource="http://purl.org/dc/dcmitype/StillImage"/>
    <dc:date>2025-10-20T20:07:32.189968</dc:date>
    <dc:format>image/svg+xml</dc:format>
    <dc:creator>
     <cc:Agent>
      <dc:title>Matplotlib v3.10.7, https://matplotlib.org/</dc:title>
     </cc:Agent>
    </dc:creator>
   </cc:Work>
  </rdf:RDF>
 </metadata>
 <defs>
  <style type="text/css">*{stroke-linejoin: round; stroke-linecap: butt}</style>
 </defs>
 <g id="figure_1">
  <g id="patch_1">
   <path d="M 0 360 
L 864 360 
L 864 0 
L 0 0 
L 0 360 
z
" style="fill: none; opacity: 0"/>
  </g>
  <g id="axes_1">
   <g id="patch_2">
    <path d="M 108 320.4 
L 777.6 320.4 
L 777.6 43.2 
L 108 43.2 
L 108 320.4 
z
" style="fill: none; opacity: 0"/>
   </g>
   <g id="matplotlib.axis_1">
    <g id="xtick_1">
     <g id="line2d_1">
      <path d="M 129.397805 320.4 
L 129.397805 43.2 
" clip-path="url(#pf734841dde)" style="fill: none; stroke-dasharray: 5.12,1.28,0.8,1.28; stroke-dashoffset: 0; stroke: #b0b0b0; stroke-width: 0.8"/>
     </g>
     <g id="line2d_2">
      <defs>
       <path id="maabbbccd79" d="M 0 0 
L 0 3.5 
" style="stroke: #a9a9a9; stroke-width: 0.8"/>
      </defs>
      <g>
       <use xlink:href="#maabbbccd79" x="129.397805" y="320.4" style="fill: #a9a9a9; stroke: #a9a9a9; stroke-width: 0.8"/>
      </g>
     </g>
     <g id="text_1">
      <!-- 2021-07 -->
      <g style="fill: #a9a9a9" transform="translate(108.506399 334.998438) scale(0.1 -0.1)">
       <defs>
        <path id="DejaVuSans-32" d="M 1228 531 
L 3431 531 
L 3431 0 
L 469 0 
L 469 531 
Q 828 903 1448 1529 
Q 2069 2156 2228 2338 
Q 2531 2678 2651 2914 
Q 2772 3150 2772 3378 
Q 2772 3750 2511 3984 
Q 2250 4219 1831 4219 
Q 1534 4219 1204 4116 
Q 875 4013 500 3803 
L 500 4441 
Q 881 4594 1212 4672 
Q 1544 4750 1819 4750 
Q 2544 4750 2975 4387 
Q 3406 4025 3406 3419 
Q 3406 3131 3298 2873 
Q 3191 2616 2906 2266 
Q 2828 2175 2409 1742 
Q 1991 1309 1228 531 
z
" transform="scale(0.015625)"/>
        <path id="DejaVuSans-30" d="M 2034 4250 
Q 1547 4250 1301 3770 
Q 1056 3291 1056 2328 
Q 1056 1369 1301 889 
Q 1547 409 2034 409 
Q 2525 409 2770 889 
Q 3016 1369 3016 2328 
Q 3016 3291 2770 3770 
Q 2525 4250 2034 4250 
z
M 2034 4750 
Q 2819 4750 3233 4129 
Q 3647 3509 3647 2328 
Q 3647 1150 3233 529 
Q 2819 -91 2034 -91 
Q 1250 -91 836 529 
Q 422 1150 422 2328 
Q 422 3509 836 4129 
Q 1250 4750 2034 4750 
z
" transform="scale(0.015625)"/>
        <path id="DejaVuSans-31" d="M 794 531 
L 1825 531 
L 1825 4091 
L 703 3866 
L 703 4441 
L 1819 4666 
L 2450 4666 
L 2450 531 
L 3481 531 
L 3481 0 
L 794 0 
L 794 531 
z
" transform="scale(0.015625)"/>
        <path id="DejaVuSans-2d" d="M 313 2009 
L 1997 2009 
L 1997 1497 
L 313 1497 
L 313 2009 
z
" transform="scale(0.015625)"/>
        <path id="DejaVuSans-37" d="M 525 4666 
L 3525 4666 
L 3525 4397 
L 1831 0 
L 1172 0 
L 2766 4134 
L 525 4134 
L 525 4666 
z
" transform="scale(0.015625)"/>
       </defs>
       <use xlink:href="#DejaVuSans-32"/>
       <use xlink:href="#DejaVuSans-30" transform="translate(63.623047 0)"/>
       <use xlink:href="#DejaVuSans-32" transform="translate(127.246094 0)"/>
       <use xlink:href="#DejaVuSans-31" transform="translate(190.869141 0)"/>
       <use xlink:href="#DejaVuSans-2d" transform="translate(254.492188 0)"/>
       <use xlink:href="#DejaVuSans-30" transform="translate(290.576172 0)"/>
       <use xlink:href="#DejaVuSans-37" transform="translate(354.199219 0)"/>
      </g>
     </g>
    </g>
    <g id="xtick_2">
     <g id="line2d_3">
      <path d="M 201.706274 320.4 
L 201.706274 43.2 
" clip-path="url(#pf734841dde)" style="fill: none; stroke-dasharray: 5.12,1.28,0.8,1.28; stroke-dashoffset: 0; stroke: #b0b0b0; stroke-width: 0.8"/>
     </g>
     <g id="line2d_4">
      <g>
       <use xlink:href="#maabbbccd79" x="201.706274" y="320.4" style="fill: #a9a9a9; stroke: #a9a9a9; stroke-width: 0.8"/>
      </g>
     </g>
     <g id="text_2">
      <!-- 2022-01 -->
      <g style="fill: #a9a9a9" transform="translate(180.814868 334.998438) scale(0.1 -0.1)">
       <use xlink:href="#DejaVuSans-32"/>
       <use xlink:href="#DejaVuSans-30" transform="translate(63.623047 0)"/>
       <use xlink:href="#DejaVuSans-32" transform="translate(127.246094 0)"/>
       <use xlink:href="#DejaVuSans-32" transform="translate(190.869141 0)"/>
       <use xlink:href="#DejaVuSans-2d" transform="translate(254.492188 0)"/>
       <use xlink:href="#DejaVuSans-30" transform="translate(290.576172 0)"/>
       <use xlink:href="#DejaVuSans-31" transform="translate(354.199219 0)"/>
      </g>
     </g>
    </g>
    <g id="xtick_3">
     <g id="line2d_5">
      <path d="M 272.8358 320.4 
L 272.8358 43.2 
" clip-path="url(#pf734841dde)" style="fill: none; stroke-dasharray: 5.12,1.28,0.8,1.28; stroke-dashoffset: 0; stroke: #b0b0b0; stroke-width: 0.8"/>
     </g>
     <g id="line2d_6">
      <g>
       <use xlink:href="#maabbbccd79" x="272.8358" y="320.4" style="fill: #a9a9a9; stroke: #a9a9a9; stroke-width: 0.8"/>
      </g>
     </g>
     <g id="text_3">
      <!-- 2022-07 -->
      <g style="fill: #a9a9a9" transform="translate(251.944394 334.998438) scale(0.1 -0.1)">
       <use xlink:href="#DejaVuSans-32"/>
       <use xlink:href="#DejaVuSans-30" transform="translate(63.623047 0)"/>
       <use xlink:href="#DejaVuSans-32" transform="translate(127.246094 0)"/>
       <use xlink:href="#DejaVuSans-32" transform="translate(190.869141 0)"/>
       <use xlink:href="#DejaVuSans-2d" transform="translate(254.492188 0)"/>
       <use xlink:href="#DejaVuSans-30" transform="translate(290.576172 0)"/>
       <use xlink:href="#DejaVuSans-37" transform="translate(354.199219 0)"/>
      </g>
     </g>
    </g>
    <g id="xtick_4">
     <g id="line2d_7">
      <path d="M 345.144269 320.4 
L 345.144269 43.2 
" clip-path="url(#pf734841dde)" style="fill: none; stroke-dasharray: 5.12,1.28,0.8,1.28; stroke-dashoffset: 0; stroke: #b0b0b0; stroke-width: 0.8"/>
     </g>
     <g id="line2d_8">
      <g>
       <use xlink:href="#maabbbccd79" x="345.144269" y="320.4" style="fill: #a9a9a9; stroke: #a9a9a9; stroke-width: 0.8"/>
      </g>
     </g>
     <g id="text_4">
      <!-- 2023-01 -->
      <g style="fill: #a9a9a9" transform="translate(324.252863 334.998438) scale(0.1 -0.1)">
       <defs>
        <path id="DejaVuSans-33" d="M 2597 2516 
Q 3050 2419 3304 2112 
Q 3559 1806 3559 1356 
Q 3559 666 3084 287 
Q 2609 -91 1734 -91 
Q 1441 -91 1130 -33 
Q 819 25 488 141 
L 488 750 
Q 750 597 1062 519 
Q 1375 441 1716 441 
Q 2309 441 2620 675 
Q 2931 909 2931 1356 
Q 2931 1769 2642 2001 
Q 2353 2234 1838 2234 
L 1294 2234 
L 1294 2753 
L 1863 2753 
Q 2328 2753 2575 2939 
Q 2822 3125 2822 3475 
Q 2822 3834 2567 4026 
Q 2313 4219 1838 4219 
Q 1578 4219 1281 4162 
Q 984 4106 628 3988 
L 628 4550 
Q 988 4650 1302 4700 
Q 1616 4750 1894 4750 
Q 2613 4750 3031 4423 
Q 3450 4097 3450 3541 
Q 3450 3153 3228 2886 
Q 3006 2619 2597 2516 
z
" transform="scale(0.015625)"/>
       </defs>
       <use xlink:href="#DejaVuSans-32"/>
       <use xlink:href="#DejaVuSans-30" transform="translate(63.623047 0)"/>
       <use xlink:href="#DejaVuSans-32" transform="translate(127.246094 0)"/>
       <use xlink:href="#DejaVuSans-33" transform="translate(190.869141 0)"/>
       <use xlink:href="#DejaVuSans-2d" transform="translate(254.492188 0)"/>
       <use xlink:href="#DejaVuSans-30" transform="translate(290.576172 0)"/>
       <use xlink:href="#DejaVuSans-31" transform="translate(354.199219 0)"/>
      </g>
     </g>
    </g>
    <g id="xtick_5">
     <g id="line2d_9">
      <path d="M 416.273795 320.4 
L 416.273795 43.2 
" clip-path="url(#pf734841dde)" style="fill: none; stroke-dasharray: 5.12,1.28,0.8,1.28; stroke-dashoffset: 0; stroke: #b0b0b0; stroke-width: 0.8"/>
     </g>
     <g id="line2d_10">
      <g>
       <use xlink:href="#maabbbccd79" x="416.273795" y="320.4" style="fill: #a9a9a9; stroke: #a9a9a9; stroke-width: 0.8"/>
      </g>
     </g>
     <g id="text_5">
      <!-- 2023-07 -->
      <g style="fill: #a9a9a9" transform="translate(395.382389 334.998438) scale(0.1 -0.1)">
       <use xlink:href="#DejaVuSans-32"/>
       <use xlink:href="#DejaVuSans-30" transform="translate(63.623047 0)"/>
       <use xlink:href="#DejaVuSans-32" transform="translate(127.246094 0)"/>
       <use xlink:href="#DejaVuSans-33" transform="translate(190.869141 0)"/>
       <use xlink:href="#DejaVuSans-2d" transform="translate(254.492188 0)"/>
       <use xlink:href="#DejaVuSans-30" transform="translate(290.576172 0)"/>
       <use xlink:href="#DejaVuSans-37" transform="translate(354.199219 0)"/>
      </g>
     </g>
    </g>
    <g id="xtick_6">
     <g id="line2d_11">
      <path d="M 488.582264 320.4 
L 488.582264 43.2 
" clip-path="url(#pf734841dde)" style="fill: none; stroke-dasharray: 5.12,1.28,0.8,1.28; stroke-dashoffset: 0; stroke: #b0b0b0; stroke-width: 0.8"/>
     </g>
     <g id="line2d_12">
      <g>
       <use xlink:href="#maabbbccd79" x="488.582264" y="320.4" style="fill: #a9a9a9; stroke: #a9a9a9; stroke-width: 0.8"/>
      </g>
     </g>
     <g id="text_6">
      <!-- 2024-01 -->
      <g style="fill: #a9a9a9" transform="translate(467.690858 334.998438) scale(0.1 -0.1)">
       <defs>
        <path id="DejaVuSans-34" d="M 2419 4116 
L 825 1625 
L 2419 1625 
L 2419 4116 
z
M 2253 4666 
L 3047 4666 
L 3047 1625 
L 3713 1625 
L 3713 1100 
L 3047 1100 
L 3047 0 
L 2419 0 
L 2419 1100 
L 313 1100 
L 313 1709 
L 2253 4666 
z
" transform="scale(0.015625)"/>
       </defs>
       <use xlink:href="#DejaVuSans-32"/>
       <use xlink:href="#DejaVuSans-30" transform="translate(63.623047 0)"/>
       <use xlink:href="#DejaVuSans-32" transform="translate(127.246094 0)"/>
       <use xlink:href="#DejaVuSans-34" transform="translate(190.869141 0)"/>
       <use xlink:href="#DejaVuSans-2d" transform="translate(254.492188 0)"/>
       <use xlink:href="#DejaVuSans-30" transform="translate(290.576172 0)"/>
       <use xlink:href="#DejaVuSans-31" transform="translate(354.199219 0)"/>
      </g>
     </g>
    </g>
    <g id="xtick_7">
     <g id="line2d_13">
      <path d="M 560.104771 320.4 
L 560.104771 43.2 
" clip-path="url(#pf734841dde)" style="fill: none; stroke-dasharray: 5.12,1.28,0.8,1.28; stroke-dashoffset: 0; stroke: #b0b0b0; stroke-width: 0.8"/>
     </g>
     <g id="line2d_14">
      <g>
       <use xlink:href="#maabbbccd79" x="560.104771" y="320.4" style="fill: #a9a9a9; stroke: #a9a9a9; stroke-width: 0.8"/>
      </g>
     </g>
     <g id="text_7">
      <!-- 2024-07 -->
      <g style="fill: #a9a9a9" transform="translate(539.213365 334.998438) scale(0.1 -0.1)">
       <use xlink:href="#DejaVuSans-32"/>
       <use xlink:href="#DejaVuSans-30" transform="translate(63.623047 0)"/>
       <use xlink:href="#DejaVuSans-32" transform="translate(127.246094 0)"/>
       <use xlink:href="#DejaVuSans-34" transform="translate(190.869141 0)"/>
       <use xlink:href="#DejaVuSans-2d" transform="translate(254.492188 0)"/>
       <use xlink:href="#DejaVuSans-30" transform="translate(290.576172 0)"/>
       <use xlink:href="#DejaVuSans-37" transform="translate(354.199219 0)"/>
      </g>
     </g>
    </g>
    <g id="xtick_8">
     <g id="line2d_15">
      <path d="M 632.41324 320.4 
L 632.41324 43.2 
" clip-path="url(#pf734841dde)" style="fill: none; stroke-dasharray: 5.12,1.28,0.8,1.28; stroke-dashoffset: 0; stroke: #b0b0b0; stroke-width: 0.8"/>
     </g>
     <g id="line2d_16">
      <g>
       <use xlink:href="#maabbbccd79" x="632.41324" y="320.4" style="fill: #a9a9a9; stroke: #a9a9a9; stroke-width: 0.8"/>
      </g>
     </g>
     <g id="text_8">
      <!-- 2025-01 -->
      <g style="fill: #a9a9a9" transform="translate(611.521834 334.998438) scale(0.1 -0.1)">
       <defs>
        <path id="DejaVuSans-35" d="M 691 4666 
L 3169 4666 
L 3169 4134 
L 1269 4134 
L 1269 2991 
Q 1406 3038 1543 3061 
Q 1681 3084 1819 3084 
Q 2600 3084 3056 2656 
Q 3513 2228 3513 1497 
Q 3513 744 3044 326 
Q 2575 -91 1722 -91 
Q 1428 -91 1123 -41 
Q 819 9 494 109 
L 494 744 
Q 775 591 1075 516 
Q 1375 441 1709 441 
Q 2250 441 2565 725 
Q 2881 1009 2881 1497 
Q 2881 1984 2565 2268 
Q 2250 2553 1709 2553 
Q 1456 2553 1204 2497 
Q 953 2441 691 2322 
L 691 4666 
z
" transform="scale(0.015625)"/>
       </defs>
       <use xlink:href="#DejaVuSans-32"/>
       <use xlink:href="#DejaVuSans-30" transform="translate(63.623047 0)"/>
       <use xlink:href="#DejaVuSans-32" transform="translate(127.246094 0)"/>
       <use xlink:href="#DejaVuSans-35" transform="translate(190.869141 0)"/>
       <use xlink:href="#DejaVuSans-2d" transform="translate(254.492188 0)"/>
       <use xlink:href="#DejaVuSans-30" transform="translate(290.576172 0)"/>
       <use xlink:href="#DejaVuSans-31" transform="translate(354.199219 0)"/>
      </g>
     </g>
    </g>
    <g id="xtick_9">
     <g id="line2d_17">
      <path d="M 703.542767 320.4 
L 703.542767 43.2 
" clip-path="url(#pf734841dde)" style="fill: none; stroke-dasharray: 5.12,1.28,0.8,1.28; stroke-dashoffset: 0; stroke: #b0b0b0; stroke-width: 0.8"/>
     </g>
     <g id="line2d_18">
      <g>
       <use xlink:href="#maabbbccd79" x="703.542767" y="320.4" style="fill: #a9a9a9; stroke: #a9a9a9; stroke-width: 0.8"/>
      </g>
     </g>
     <g id="text_9">
      <!-- 2025-07 -->
      <g style="fill: #a9a9a9" transform="translate(682.65136 334.998438) scale(0.1 -0.1)">
       <use xlink:href="#DejaVuSans-32"/>
       <use xlink:href="#DejaVuSans-30" transform="translate(63.623047 0)"/>
       <use xlink:href="#DejaVuSans-32" transform="translate(127.246094 0)"/>
       <use xlink:href="#DejaVuSans-35" transform="translate(190.869141 0)"/>
       <use xlink:href="#DejaVuSans-2d" transform="translate(254.492188 0)"/>
       <use xlink:href="#DejaVuSans-30" transform="translate(290.576172 0)"/>
       <use xlink:href="#DejaVuSans-37" transform="translate(354.199219 0)"/>
      </g>
     </g>
    </g>
    <g id="xtick_10">
     <g id="line2d_19">
      <path d="M 775.851235 320.4 
L 775.851235 43.2 
" clip-path="url(#pf734841dde)" style="fill: none; stroke-dasharray: 5.12,1.28,0.8,1.28; stroke-dashoffset: 0; stroke: #b0b0b0; stroke-width: 0.8"/>
     </g>
     <g id="line2d_20">
      <g>
       <use xlink:href="#maabbbccd79" x="775.851235" y="320.4" style="fill: #a9a9a9; stroke: #a9a9a9; stroke-width: 0.8"/>
      </g>
     </g>
     <g id="text_10">
      <!-- 2026-01 -->
      <g style="fill: #a9a9a9" transform="translate(754.959829 334.998438) scale(0.1 -0.1)">
       <defs>
        <path id="DejaVuSans-36" d="M 2113 2584 
Q 1688 2584 1439 2293 
Q 1191 2003 1191 1497 
Q 1191 994 1439 701 
Q 1688 409 2113 409 
Q 2538 409 2786 701 
Q 3034 994 3034 1497 
Q 3034 2003 2786 2293 
Q 2538 2584 2113 2584 
z
M 3366 4563 
L 3366 3988 
Q 3128 4100 2886 4159 
Q 2644 4219 2406 4219 
Q 1781 4219 1451 3797 
Q 1122 3375 1075 2522 
Q 1259 2794 1537 2939 
Q 1816 3084 2150 3084 
Q 2853 3084 3261 2657 
Q 3669 2231 3669 1497 
Q 3669 778 3244 343 
Q 2819 -91 2113 -91 
Q 1303 -91 875 529 
Q 447 1150 447 2328 
Q 447 3434 972 4092 
Q 1497 4750 2381 4750 
Q 2619 4750 2861 4703 
Q 3103 4656 3366 4563 
z
" transform="scale(0.015625)"/>
       </defs>
       <use xlink:href="#DejaVuSans-32"/>
       <use xlink:href="#DejaVuSans-30" transform="translate(63.623047 0)"/>
       <use xlink:href="#DejaVuSans-32" transform="translate(127.246094 0)"/>
       <use xlink:href="#DejaVuSans-36" transform="translate(190.869141 0)"/>
       <use xlink:href="#DejaVuSans-2d" transform="translate(254.492188 0)"/>
       <use xlink:href="#DejaVuSans-30" transform="translate(290.576172 0)"/>
       <use xlink:href="#DejaVuSans-31" transform="translate(354.199219 0)"/>
      </g>
     </g>
    </g>
   </g>
   <g id="matplotlib.axis_2">
    <g id="ytick_1">
     <g id="line2d_21">
      <path d="M 108 307.830505 
L 777.6 307.830505 
" clip-path="url(#pf734841dde)" style="fill: none; stroke-dasharray: 5.12,1.28,0.8,1.28; stroke-dashoffset: 0; stroke: #b0b0b0; stroke-width: 0.8"/>
     </g>
     <g id="line2d_22">
      <defs>
       <path id="mbabc49075d" d="M 0 0 
L -3.5 0 
" style="stroke: #a9a9a9; stroke-width: 0.8"/>
      </defs>
      <g>
       <use xlink:href="#mbabc49075d" x="108" y="307.830505" style="fill: #a9a9a9; stroke: #a9a9a9; stroke-width: 0.8"/>
      </g>
     </g>
     <g id="text_11">
      <!-- 0 -->
      <g style="fill: #a9a9a9" transform="translate(94.6375 311.629724) scale(0.1 -0.1)">
       <use xlink:href="#DejaVuSans-30"/>
      </g>
     </g>
    </g>
    <g id="ytick_2">
     <g id="line2d_23">
      <path d="M 108 277.325723 
L 777.6 277.325723 
" clip-path="url(#pf734841dde)" style="fill: none; stroke-dasharray: 5.12,1.28,0.8,1.28; stroke-dashoffset: 0; stroke: #b0b0b0; stroke-width: 0.8"/>
     </g>
     <g id="line2d_24">
      <g>
       <use xlink:href="#mbabc49075d" x="108" y="277.325723" style="fill: #a9a9a9; stroke: #a9a9a9; stroke-width: 0.8"/>
      </g>
     </g>
     <g id="text_12">
      <!-- 1000 -->
      <g style="fill: #a9a9a9" transform="translate(75.55 281.124942) scale(0.1 -0.1)">
       <use xlink:href="#DejaVuSans-31"/>
       <use xlink:href="#DejaVuSans-30" transform="translate(63.623047 0)"/>
       <use xlink:href="#DejaVuSans-30" transform="translate(127.246094 0)"/>
       <use xlink:href="#DejaVuSans-30" transform="translate(190.869141 0)"/>
      </g>
     </g>
    </g>
    <g id="ytick_3">
     <g id="line2d_25">
      <path d="M 108 246.820942 
L 777.6 246.820942 
" clip-path="url(#pf734841dde)" style="fill: none; stroke-dasharray: 5.12,1.28,0.8,1.28; stroke-dashoffset: 0; stroke: #b0b0b0; stroke-width: 0.8"/>
     </g>
     <g id="line2d_26">
      <g>
       <use xlink:href="#mbabc49075d" x="108" y="246.820942" style="fill: #a9a9a9; stroke: #a9a9a9; stroke-width: 0.8"/>
      </g>
     </g>
     <g id="text_13">
      <!-- 2000 -->
      <g style="fill: #a9a9a9" transform="translate(75.55 250.620161) scale(0.1 -0.1)">
       <use xlink:href="#DejaVuSans-32"/>
       <use xlink:href="#DejaVuSans-30" transform="translate(63.623047 0)"/>
       <use xlink:href="#DejaVuSans-30" transform="translate(127.246094 0)"/>
       <use xlink:href="#DejaVuSans-30" transform="translate(190.869141 0)"/>
      </g>
     </g>
    </g>
    <g id="ytick_4">
     <g id="line2d_27">
      <path d="M 108 216.31616 
L 777.6 216.31616 
" clip-path="url(#pf734841dde)" style="fill: none; stroke-dasharray: 5.12,1.28,0.8,1.28; stroke-dashoffset: 0; stroke: #b0b0b0; stroke-width: 0.8"/>
     </g>
     <g id="line2d_28">
      <g>
       <use xlink:href="#mbabc49075d" x="108" y="216.31616" style="fill: #a9a9a9; stroke: #a9a9a9; stroke-width: 0.8"/>
      </g>
     </g>
     <g id="text_14">
      <!-- 3000 -->
      <g style="fill: #a9a9a9" transform="translate(75.55 220.115379) scale(0.1 -0.1)">
       <use xlink:href="#DejaVuSans-33"/>
       <use xlink:href="#DejaVuSans-30" transform="translate(63.623047 0)"/>
       <use xlink:href="#DejaVuSans-30" transform="translate(127.246094 0)"/>
       <use xlink:href="#DejaVuSans-30" transform="translate(190.869141 0)"/>
      </g>
     </g>
    </g>
    <g id="ytick_5">
     <g id="line2d_29">
      <path d="M 108 185.811379 
L 777.6 185.811379 
" clip-path="url(#pf734841dde)" style="fill: none; stroke-dasharray: 5.12,1.28,0.8,1.28; stroke-dashoffset: 0; stroke: #b0b0b0; stroke-width: 0.8"/>
     </g>
     <g id="line2d_30">
      <g>
       <use xlink:href="#mbabc49075d" x="108" y="185.811379" style="fill: #a9a9a9; stroke: #a9a9a9; stroke-width: 0.8"/>
      </g>
     </g>
     <g id="text_15">
      <!-- 4000 -->
      <g style="fill: #a9a9a9" transform="translate(75.55 189.610598) scale(0.1 -0.1)">
       <use xlink:href="#DejaVuSans-34"/>
       <use xlink:href="#DejaVuSans-30" transform="translate(63.623047 0)"/>
       <use xlink:href="#DejaVuSans-30" transform="translate(127.246094 0)"/>
       <use xlink:href="#DejaVuSans-30" transform="translate(190.869141 0)"/>
      </g>
     </g>
    </g>
    <g id="ytick_6">
     <g id="line2d_31">
      <path d="M 108 155.306597 
L 777.6 155.306597 
" clip-path="url(#pf734841dde)" style="fill: none; stroke-dasharray: 5.12,1.28,0.8,1.28; stroke-dashoffset: 0; stroke: #b0b0b0; stroke-width: 0.8"/>
     </g>
     <g id="line2d_32">
      <g>
       <use xlink:href="#mbabc49075d" x="108" y="155.306597" style="fill: #a9a9a9; stroke: #a9a9a9; stroke-width: 0.8"/>
      </g>
     </g>
     <g id="text_16">
      <!-- 5000 -->
      <g style="fill: #a9a9a9" transform="translate(75.55 159.105816) scale(0.1 -0.1)">
       <use xlink:href="#DejaVuSans-35"/>
       <use xlink:href="#DejaVuSans-30" transform="translate(63.623047 0)"/>
       <use xlink:href="#DejaVuSans-30" transform="translate(127.246094 0)"/>
       <use xlink:href="#DejaVuSans-30" transform="translate(190.869141 0)"/>
      </g>
     </g>
    </g>
    <g id="ytick_7">
     <g id="line2d_33">
      <path d="M 108 124.801816 
L 777.6 124.801816 
" clip-path="url(#pf734841dde)" style="fill: none; stroke-dasharray: 5.12,1.28,0.8,1.28; stroke-dashoffset: 0; stroke: #b0b0b0; stroke-width: 0.8"/>
     </g>
     <g id="line2d_34">
      <g>
       <use xlink:href="#mbabc49075d" x="108" y="124.801816" style="fill: #a9a9a9; stroke: #a9a9a9; stroke-width: 0.8"/>
      </g>
     </g>
     <g id="text_17">
      <!-- 6000 -->
      <g style="fill: #a9a9a9" transform="translate(75.55 128.601035) scale(0.1 -0.1)">
       <use xlink:href="#DejaVuSans-36"/>
       <use xlink:href="#DejaVuSans-30" transform="translate(63.623047 0)"/>
       <use xlink:href="#DejaVuSans-30" transform="translate(127.246094 0)"/>
       <use xlink:href="#DejaVuSans-30" transform="translate(190.869141 0)"/>
      </g>
     </g>
    </g>
    <g id="ytick_8">
     <g id="line2d_35">
      <path d="M 108 94.297034 
L 777.6 94.297034 
" clip-path="url(#pf734841dde)" style="fill: none; stroke-dasharray: 5.12,1.28,0.8,1.28; stroke-dashoffset: 0; stroke: #b0b0b0; stroke-width: 0.8"/>
     </g>
     <g id="line2d_36">
      <g>
       <use xlink:href="#mbabc49075d" x="108" y="94.297034" style="fill: #a9a9a9; stroke: #a9a9a9; stroke-width: 0.8"/>
      </g>
     </g>
     <g id="text_18">
      <!-- 7000 -->
      <g style="fill: #a9a9a9" transform="translate(75.55 98.096253) scale(0.1 -0.1)">
       <use xlink:href="#DejaVuSans-37"/>
       <use xlink:href="#DejaVuSans-30" transform="translate(63.623047 0)"/>
       <use xlink:href="#DejaVuSans-30" transform="translate(127.246094 0)"/>
       <use xlink:href="#DejaVuSans-30" transform="translate(190.869141 0)"/>
      </g>
     </g>
    </g>
    <g id="ytick_9">
     <g id="line2d_37">
      <path d="M 108 63.792253 
L 777.6 63.792253 
" clip-path="url(#pf734841dde)" style="fill: none; stroke-dasharray: 5.12,1.28,0.8,1.28; stroke-dashoffset: 0; stroke: #b0b0b0; stroke-width: 0.8"/>
     </g>
     <g id="line2d_38">
      <g>
       <use xlink:href="#mbabc49075d" x="108" y="63.792253" style="fill: #a9a9a9; stroke: #a9a9a9; stroke-width: 0.8"/>
      </g>
     </g>
     <g id="text_19">
      <!-- 8000 -->
      <g style="fill: #a9a9a9" transform="translate(75.55 67.591472) scale(0.1 -0.1)">
       <defs>
        <path id="DejaVuSans-38" d="M 2034 2216 
Q 1584 2216 1326 1975 
Q 1069 1734 1069 1313 
Q 1069 891 1326 650 
Q 1584 409 2034 409 
Q 2484 409 2743 651 
Q 3003 894 3003 1313 
Q 3003 1734 2745 1975 
Q 2488 2216 2034 2216 
z
M 1403 2484 
Q 997 2584 770 2862 
Q 544 3141 544 3541 
Q 544 4100 942 4425 
Q 1341 4750 2034 4750 
Q 2731 4750 3128 4425 
Q 3525 4100 3525 3541 
Q 3525 3141 3298 2862 
Q 3072 2584 2669 2484 
Q 3125 2378 3379 2068 
Q 3634 1759 3634 1313 
Q 3634 634 3220 271 
Q 2806 -91 2034 -91 
Q 1263 -91 848 271 
Q 434 634 434 1313 
Q 434 1759 690 2068 
Q 947 2378 1403 2484 
z
M 1172 3481 
Q 1172 3119 1398 2916 
Q 1625 2713 2034 2713 
Q 2441 2713 2670 2916 
Q 2900 3119 2900 3481 
Q 2900 3844 2670 4047 
Q 2441 4250 2034 4250 
Q 1625 4250 1398 4047 
Q 1172 3844 1172 3481 
z
" transform="scale(0.015625)"/>
       </defs>
       <use xlink:href="#DejaVuSans-38"/>
       <use xlink:href="#DejaVuSans-30" transform="translate(63.623047 0)"/>
       <use xlink:href="#DejaVuSans-30" transform="translate(127.246094 0)"/>
       <use xlink:href="#DejaVuSans-30" transform="translate(190.869141 0)"/>
      </g>
     </g>
    </g>
   </g>
   <g id="line2d_39">
    <path d="M 138.436364 307.73899 
L 140.794248 307.525457 
L 141.187229 307.342428 
L 142.759153 307.128895 
L 144.331076 306.793342 
L 145.117037 306.671323 
L 147.081941 306.488294 
L 147.867903 306.183247 
L 148.260884 305.634161 
L 148.653865 305.359617 
L 149.046845 304.444474 
L 149.439826 304.383464 
L 150.225788 303.895388 
L 151.01175 303.315797 
L 152.583673 302.156615 
L 152.976654 302.004092 
L 153.762615 301.516015 
L 154.941558 300.936424 
L 155.334538 300.265319 
L 156.1205 299.655223 
L 156.906462 299.411185 
L 158.085404 299.228156 
L 160.443289 298.862099 
L 160.83627 298.67907 
L 163.587135 298.435032 
L 165.159059 298.03847 
L 168.302905 297.580898 
L 168.695886 297.367365 
L 169.088867 297.306355 
L 169.874828 297.031812 
L 172.625694 296.543736 
L 173.411656 296.299697 
L 176.948483 295.689602 
L 177.734445 295.506573 
L 179.306368 295.29304 
L 180.092329 295.049001 
L 180.48531 294.46941 
L 181.664253 293.981334 
L 182.843195 293.645781 
L 183.236176 293.432248 
L 184.022137 293.279724 
L 185.594061 292.791648 
L 186.380022 292.730638 
L 187.165984 292.517104 
L 188.737907 292.090038 
L 189.130888 292.059533 
L 189.91685 291.662971 
L 190.30983 291.601961 
L 190.702811 291.388428 
L 195.0256 290.625808 
L 196.597523 290.137732 
L 196.990504 289.863188 
L 198.955408 289.192083 
L 199.74137 288.612492 
L 200.920312 288.368454 
L 206.029063 286.843215 
L 206.422044 286.782206 
L 207.993967 286.141605 
L 208.386948 286.080596 
L 209.172909 285.745043 
L 209.958871 285.714538 
L 211.137813 285.348481 
L 211.530794 285.348481 
L 211.923775 285.165452 
L 212.709736 285.073938 
L 213.102717 284.921414 
L 214.674641 284.860404 
L 215.460602 284.70788 
L 216.246564 284.280813 
L 217.425506 283.853747 
L 218.211468 283.42668 
L 219.39041 282.908098 
L 220.962333 282.084469 
L 221.355314 281.626897 
L 222.141276 280.345697 
L 222.534257 280.223678 
L 222.927238 280.223678 
L 224.499161 279.339039 
L 224.892142 279.247525 
L 225.285122 278.850962 
L 226.071084 278.51541 
L 226.857046 278.149352 
L 227.250026 277.661276 
L 227.643007 276.990171 
L 228.035988 276.715628 
L 228.428969 275.983513 
L 228.82195 275.525941 
L 231.179834 274.183731 
L 232.751758 272.719501 
L 233.144739 271.773853 
L 233.537719 271.163757 
L 233.9307 270.828205 
L 234.323681 270.645176 
L 235.895604 269.272461 
L 237.074547 268.235298 
L 237.860508 267.228641 
L 239.039451 266.344002 
L 240.611374 265.337344 
L 241.004355 265.18482 
L 242.576278 264.208667 
L 242.969259 264.025639 
L 244.934163 262.134342 
L 245.720124 261.798789 
L 246.506086 261.219199 
L 246.899067 260.97516 
L 247.292048 260.914151 
L 248.47099 260.212541 
L 248.863971 259.754969 
L 250.828875 258.626292 
L 251.221856 258.473768 
L 252.400798 257.619634 
L 258.29551 255.42329 
L 259.081472 254.660671 
L 260.260414 254.050575 
L 261.046376 253.531994 
L 261.832338 253.287955 
L 262.225318 253.013412 
L 262.618299 252.891393 
L 263.797242 252.067764 
L 265.762146 251.610192 
L 266.941088 250.878078 
L 268.120031 250.603535 
L 268.513011 250.51202 
L 269.691954 249.596877 
L 271.263877 249.139305 
L 271.656858 248.803753 
L 274.014743 247.949619 
L 274.800704 247.797095 
L 275.586666 247.461542 
L 278.337532 246.393875 
L 279.123493 246.30236 
L 280.302436 245.875294 
L 282.26734 244.868636 
L 284.625224 243.495921 
L 285.411186 243.282387 
L 286.590129 242.672291 
L 287.37609 242.519768 
L 288.162052 242.031691 
L 288.948013 241.818158 
L 290.126956 241.330081 
L 291.698879 241.116548 
L 292.484841 240.689481 
L 292.877821 240.323423 
L 293.270802 239.591309 
L 294.842726 239.133737 
L 296.414649 238.401622 
L 299.951476 236.784869 
L 300.737438 236.60184 
L 301.91638 235.991744 
L 302.309361 235.930735 
L 304.274265 234.924077 
L 305.060227 234.405496 
L 306.239169 234.161457 
L 308.204073 233.642876 
L 308.597054 233.307324 
L 309.383015 233.032781 
L 311.347919 232.209151 
L 311.7409 231.904104 
L 312.133881 231.75158 
L 312.919843 231.294008 
L 314.491766 230.775427 
L 315.277728 230.256845 
L 315.670708 229.829778 
L 316.063689 229.58574 
L 316.45667 229.494226 
L 317.242632 228.823121 
L 317.635612 228.762111 
L 318.028593 228.091006 
L 318.421574 227.907977 
L 318.814555 227.572425 
L 319.207536 227.511415 
L 319.993497 226.992834 
L 320.779459 226.718291 
L 321.17244 226.413243 
L 321.565421 226.260719 
L 323.530325 224.979518 
L 325.888209 223.911851 
L 326.28119 223.210241 
L 327.067152 222.600145 
L 327.460133 222.508631 
L 329.818017 221.318944 
L 330.603979 220.983392 
L 331.389941 220.403801 
L 332.568883 219.275124 
L 333.354845 218.787048 
L 333.747826 218.329476 
L 335.319749 217.200799 
L 336.10571 216.37717 
L 336.891672 216.102627 
L 337.677634 215.553541 
L 338.856576 214.91294 
L 339.249557 214.851931 
L 342.786384 212.991139 
L 343.572346 212.777606 
L 345.144269 212.198015 
L 345.53725 211.862462 
L 347.109173 211.221862 
L 347.502154 211.099843 
L 348.288115 210.581261 
L 349.074077 210.245709 
L 349.860039 209.666118 
L 350.646 208.049364 
L 351.431962 207.134221 
L 352.610904 206.493621 
L 353.396866 206.158068 
L 353.789847 206.097058 
L 354.575808 205.731001 
L 356.147732 205.181915 
L 356.933693 204.724343 
L 357.719655 204.327781 
L 358.112636 204.205762 
L 360.470521 202.741533 
L 360.863501 202.283961 
L 362.042444 201.582351 
L 362.435425 201.429827 
L 363.221386 200.94175 
L 364.793309 200.057112 
L 365.18629 199.965597 
L 365.579271 199.630045 
L 368.330137 198.714901 
L 368.723118 198.440358 
L 369.509079 198.19632 
L 372.652926 196.640576 
L 373.438887 196.213509 
L 373.831868 196.030481 
L 374.61783 195.38988 
L 375.403791 195.176347 
L 375.796772 194.810289 
L 376.189753 194.74928 
L 376.975715 194.139184 
L 378.940619 192.949498 
L 379.72658 192.705459 
L 380.119561 192.461421 
L 380.512542 192.400412 
L 382.084465 191.637792 
L 383.263407 191.24123 
L 384.049369 191.119211 
L 385.621292 190.509115 
L 386.014273 190.47861 
L 387.586196 189.868515 
L 388.765139 189.014381 
L 389.15812 188.861857 
L 389.944081 188.404285 
L 390.337062 188.282266 
L 392.694947 186.909551 
L 393.087928 186.818037 
L 394.26687 186.085922 
L 395.445813 185.658855 
L 396.231774 185.384312 
L 397.803697 184.835226 
L 398.589659 184.560683 
L 400.161582 184.22513 
L 400.947544 183.981092 
L 402.912448 183.309987 
L 404.09139 182.943929 
L 404.484371 182.791405 
L 405.663314 182.608377 
L 408.021198 182.150805 
L 409.200141 181.876262 
L 409.593122 181.693233 
L 410.379083 181.540709 
L 411.165045 181.327176 
L 411.951007 180.961119 
L 412.343987 180.808595 
L 412.736968 180.808595 
L 417.059757 179.435879 
L 417.452738 179.222346 
L 417.845719 179.222346 
L 418.63168 178.917298 
L 419.024661 178.490231 
L 421.382546 177.483573 
L 422.954469 176.934487 
L 423.34745 176.690449 
L 424.526392 176.324392 
L 425.312354 176.110858 
L 425.705335 175.836315 
L 426.098316 175.744801 
L 426.491296 175.378743 
L 427.670239 175.134705 
L 428.4562 174.768648 
L 428.849181 174.280571 
L 433.17197 173.304418 
L 433.564951 173.304418 
L 434.350913 173.06038 
L 437.88774 172.145237 
L 438.280721 171.992713 
L 439.066682 171.840189 
L 441.031586 171.321608 
L 442.210529 170.95555 
L 444.175433 170.31495 
L 444.961394 169.979397 
L 445.747356 169.674349 
L 446.140337 169.399806 
L 446.926298 169.155768 
L 449.677164 168.088101 
L 451.249087 167.905072 
L 454.392934 166.715386 
L 454.785915 166.410338 
L 455.178895 166.318823 
L 455.571876 166.10529 
L 455.964857 166.074785 
L 460.287646 164.458032 
L 462.25255 163.908946 
L 463.038512 163.512383 
L 464.217454 163.23784 
L 465.789377 161.89563 
L 467.361301 161.19402 
L 468.933224 160.522915 
L 469.326205 160.431401 
L 469.719185 160.156858 
L 470.505147 159.912819 
L 470.898128 159.638276 
L 472.863032 158.967171 
L 476.79284 156.923351 
L 477.578802 156.557293 
L 477.971782 156.252245 
L 478.757744 155.977702 
L 481.115629 154.818521 
L 481.50861 154.727006 
L 482.687552 154.17792 
L 484.259475 153.628834 
L 485.045437 153.293282 
L 485.831399 153.171263 
L 486.224379 152.89672 
L 487.796303 152.591672 
L 488.582264 152.256119 
L 490.940149 151.096937 
L 491.33313 151.035928 
L 492.512072 150.334318 
L 493.691015 149.907251 
L 496.44188 148.717564 
L 496.834861 148.595545 
L 497.227842 148.321002 
L 498.013804 148.229488 
L 498.406784 147.954945 
L 499.192746 147.832926 
L 499.978708 147.436364 
L 500.764669 147.192325 
L 502.336593 146.643239 
L 503.515535 146.216172 
L 505.480439 145.697591 
L 507.052362 145.026486 
L 507.838324 144.599419 
L 509.410247 143.77579 
L 510.196209 143.592761 
L 510.58919 143.348723 
L 510.98217 143.257209 
L 512.947074 142.281056 
L 516.090921 141.152379 
L 516.483902 141.03036 
L 517.269863 140.603293 
L 519.234767 139.901683 
L 521.592652 138.92553 
L 523.164575 138.16291 
L 527.094383 136.576661 
L 527.880345 136.180099 
L 528.273326 136.088585 
L 529.059288 135.783537 
L 529.452268 135.783537 
L 530.23823 135.41748 
L 531.810153 134.075269 
L 532.203134 133.95325 
L 532.596115 133.709212 
L 533.775057 133.373659 
L 534.168038 133.068612 
L 534.954 132.794069 
L 536.132942 132.000944 
L 536.918904 131.787411 
L 537.704865 131.360344 
L 538.883808 131.085801 
L 540.848712 130.384191 
L 541.634673 130.140153 
L 542.813616 129.499552 
L 543.599577 129.10299 
L 544.385539 128.889456 
L 545.957462 128.157342 
L 546.350443 128.035323 
L 547.136405 127.669265 
L 549.101309 127.028665 
L 550.280251 126.266045 
L 550.673232 126.174531 
L 551.459194 125.777969 
L 552.245155 125.472921 
L 552.638136 125.106864 
L 553.817078 124.649292 
L 554.210059 124.588282 
L 555.781983 123.856168 
L 556.960925 123.49011 
L 558.139867 123.063043 
L 558.925829 122.819005 
L 559.711791 122.666481 
L 560.497752 122.208909 
L 560.890733 122.056385 
L 561.283714 121.751338 
L 562.462656 121.44629 
L 563.248618 121.141242 
L 564.034579 120.805689 
L 565.606503 120.165089 
L 568.357368 119.432974 
L 569.14333 119.127926 
L 570.715253 118.822879 
L 571.501215 118.670355 
L 572.680157 118.212783 
L 573.8591 117.968745 
L 576.216985 116.565525 
L 577.395927 115.83341 
L 579.753812 115.101295 
L 580.146793 114.796247 
L 583.290639 113.667571 
L 584.469582 113.301513 
L 585.255543 112.874446 
L 586.041505 112.660913 
L 586.434486 112.447379 
L 587.220447 112.294855 
L 588.79237 111.68476 
L 589.578332 111.166178 
L 590.757274 110.861131 
L 591.936217 110.068006 
L 592.329198 110.006997 
L 593.901121 109.366396 
L 595.473044 108.969834 
L 595.866025 108.908825 
L 596.259006 108.725796 
L 596.651987 108.695291 
L 597.437948 108.420748 
L 597.830929 108.390243 
L 599.009871 107.932672 
L 600.581795 107.4751 
L 601.367756 106.865004 
L 602.93968 105.980366 
L 603.33266 105.888851 
L 604.118622 105.583803 
L 607.655449 103.814526 
L 608.04843 103.448469 
L 610.013334 102.960392 
L 611.192277 102.411306 
L 611.978238 102.197773 
L 612.371219 102.014744 
L 612.7642 101.679191 
L 614.729104 100.977581 
L 619.837854 99.086285 
L 620.623816 98.933761 
L 622.58872 98.293161 
L 623.767662 97.774579 
L 626.518528 96.95095 
L 627.30449 96.493379 
L 630.055355 95.54773 
L 631.627279 95.029149 
L 632.806221 94.754606 
L 633.985163 94.388549 
L 634.378144 94.297034 
L 634.771125 94.052996 
L 635.557087 93.869967 
L 637.12901 93.412396 
L 637.521991 93.381891 
L 638.307952 93.015833 
L 641.058818 92.314223 
L 642.630741 91.734633 
L 643.023722 91.734633 
L 644.202664 91.46009 
L 644.988626 91.307566 
L 645.774588 91.094032 
L 646.95353 90.453432 
L 648.132473 90.087374 
L 650.883338 89.141726 
L 652.455261 88.348602 
L 653.634204 88.074059 
L 654.420166 87.830021 
L 655.206127 87.433458 
L 655.599108 87.097906 
L 656.38507 86.853868 
L 656.77805 86.609829 
L 657.564012 86.518315 
L 660.314878 85.725191 
L 661.49382 85.481152 
L 662.672762 85.176105 
L 663.458724 84.993076 
L 664.637667 84.38298 
L 669.746417 82.430674 
L 670.532379 82.308655 
L 671.31834 82.156131 
L 671.711321 82.156131 
L 672.890264 81.790074 
L 674.069206 81.424016 
L 677.606033 80.417359 
L 678.391995 80.203825 
L 678.784976 80.112311 
L 679.177956 79.868273 
L 679.963918 79.715749 
L 680.74988 79.624234 
L 681.14286 79.410701 
L 681.535841 79.380196 
L 682.321803 78.861615 
L 683.893726 78.526062 
L 684.679688 78.19051 
L 685.465649 77.915967 
L 686.251611 77.702433 
L 687.037573 77.366881 
L 687.430553 77.305871 
L 688.216515 77.031328 
L 689.395457 76.695775 
L 690.181419 76.634766 
L 691.360362 76.207699 
L 692.146323 76.08568 
L 693.718246 75.38407 
L 694.111227 75.32306 
L 694.897189 75.018012 
L 697.255074 74.62145 
L 698.041035 74.377412 
L 698.434016 74.316402 
L 699.219978 73.98085 
L 699.612959 73.91984 
L 700.005939 73.706307 
L 700.791901 73.035202 
L 704.721709 71.601477 
L 707.079594 70.960876 
L 707.865555 70.533809 
L 708.258536 70.442295 
L 709.437479 69.801695 
L 709.83046 69.71018 
L 710.22344 69.405133 
L 711.402383 69.06958 
L 717.690076 66.26314 
L 718.083057 66.20213 
L 720.440941 65.012444 
L 720.833922 64.768406 
L 722.012865 64.402348 
L 722.798826 64.097301 
L 723.584788 63.731243 
L 723.977769 63.700738 
L 725.942673 62.968624 
L 726.728634 62.8161 
L 727.514596 62.236509 
L 727.907577 62.236509 
L 728.693538 61.961966 
L 729.086519 61.900956 
L 729.4795 61.687423 
L 731.051423 61.35187 
L 732.623346 60.680765 
L 733.016327 60.680765 
L 734.19527 60.284203 
L 734.981231 60.162184 
L 736.160174 59.491079 
L 736.946135 59.094516 
L 738.911039 58.453916 
L 739.697001 58.118363 
L 741.268924 57.599782 
L 743.626809 56.959182 
L 745.984694 56.135553 
L 746.770656 55.830505 
L 747.163636 55.8 
L 747.163636 55.8 
" clip-path="url(#pf734841dde)" style="fill: none; stroke: #1f77b4; stroke-width: 1.5; stroke-linecap: square"/>
   </g>
   <g id="line2d_40">
    <path d="M 138.829344 307.8 
L 142.366172 307.708486 
L 145.510018 307.555962 
L 147.081941 307.555962 
L 147.474922 307.433943 
L 149.439826 307.342428 
L 151.797711 307.067885 
L 154.155596 306.976371 
L 154.941558 306.884857 
L 157.692423 306.762837 
L 160.443289 306.671323 
L 162.408193 306.610314 
L 167.516943 306.518799 
L 169.481848 306.45779 
L 173.018675 306.366275 
L 174.590598 306.33577 
L 178.520406 306.244256 
L 180.092329 306.091732 
L 181.664253 306.061227 
L 184.022137 305.969713 
L 185.594061 305.939208 
L 187.558965 305.878199 
L 189.130888 305.725675 
L 192.667715 305.634161 
L 193.453677 305.573151 
L 195.0256 305.481637 
L 197.383485 305.390122 
L 198.955408 305.298608 
L 206.029063 304.841036 
L 208.779928 304.749522 
L 209.958871 304.627503 
L 211.923775 304.535988 
L 215.853583 304.322455 
L 219.783391 304.261445 
L 221.355314 304.078417 
L 223.320218 303.986902 
L 227.250026 303.59034 
L 229.607911 303.285292 
L 231.179834 303.224283 
L 234.323681 302.797216 
L 236.681566 302.736206 
L 237.860508 302.614187 
L 239.039451 302.522673 
L 250.042913 301.638034 
L 250.828875 301.48551 
L 253.18676 301.393996 
L 259.474453 300.997434 
L 262.225318 300.905919 
L 263.797242 300.722891 
L 265.762146 300.631376 
L 268.120031 300.539862 
L 270.084935 300.448348 
L 271.656858 300.417843 
L 273.621762 300.356833 
L 274.407723 300.234814 
L 279.909455 300.1433 
L 280.695416 300.051785 
L 285.411186 299.960271 
L 288.948013 299.777242 
L 291.698879 299.685728 
L 293.270802 299.502699 
L 296.021668 299.411185 
L 296.80763 299.289166 
L 298.772534 299.228156 
L 302.702342 299.167147 
L 304.274265 299.014623 
L 305.846188 298.984118 
L 307.025131 298.892604 
L 308.597054 298.74008 
L 312.526862 298.526546 
L 316.45667 298.435032 
L 319.993497 298.252003 
L 321.17244 298.221499 
L 321.958401 298.099479 
L 323.923305 298.007965 
L 324.709267 297.946956 
L 325.495229 297.885946 
L 326.28119 297.824936 
L 330.210998 297.733422 
L 338.856576 297.153831 
L 339.642538 297.092822 
L 340.82148 297.001307 
L 343.572346 296.909793 
L 345.53725 296.848783 
L 351.038981 296.757269 
L 351.824943 296.665755 
L 357.326674 296.57424 
L 361.256482 296.360707 
L 362.042444 296.330202 
L 362.828405 296.238688 
L 364.793309 296.147173 
L 366.758214 296.086164 
L 368.723118 295.99465 
L 370.688022 295.93364 
L 374.224849 295.842126 
L 376.582734 295.750611 
L 382.084465 295.659097 
L 386.407254 295.415059 
L 387.979177 295.354049 
L 389.15812 295.262535 
L 394.659851 295.17102 
L 397.017736 295.079506 
L 404.09139 294.987992 
L 405.663314 294.957487 
L 410.379083 294.896477 
L 411.165045 294.835468 
L 416.666776 294.743954 
L 418.238699 294.713449 
L 428.4562 294.621934 
L 430.814085 294.53042 
L 447.319279 294.438906 
L 449.284183 294.377896 
L 459.501684 294.316887 
L 460.287646 294.255877 
L 462.25255 294.194867 
L 463.431492 294.072848 
L 465.789377 293.981334 
L 468.540243 293.859315 
L 472.07707 293.767801 
L 474.041974 293.706791 
L 476.79284 293.615277 
L 479.936686 293.462753 
L 481.90159 293.371238 
L 483.473514 293.340734 
L 490.154187 293.249219 
L 492.512072 293.157705 
L 496.834861 293.066191 
L 499.585727 292.944171 
L 502.336593 292.883162 
L 503.122554 292.822152 
L 512.554094 292.730638 
L 516.483902 292.517104 
L 519.234767 292.42559 
L 523.557556 292.181552 
L 526.308422 292.090038 
L 527.880345 292.059533 
L 530.631211 291.968018 
L 532.596115 291.754485 
L 536.525923 291.662971 
L 537.311885 291.571456 
L 541.241693 291.479942 
L 543.206597 291.418932 
L 547.529386 291.388428 
L 548.315347 291.296913 
L 552.638136 291.205399 
L 553.424098 291.144389 
L 562.069675 291.052875 
L 564.42756 290.961361 
L 570.322272 290.869846 
L 571.894196 290.839341 
L 575.431023 290.778332 
L 576.216985 290.686818 
L 581.325735 290.595303 
L 583.290639 290.534294 
L 590.364294 290.442779 
L 591.543236 290.351265 
L 592.722179 290.259751 
L 593.901121 290.168236 
L 599.795833 290.076722 
L 602.153718 289.985208 
L 613.550161 289.893693 
L 617.086989 289.710665 
L 622.58872 289.61915 
L 624.160643 289.588645 
L 628.876413 289.497131 
L 630.841317 289.436122 
L 639.093914 289.344607 
L 641.84478 289.222588 
L 648.918434 289.131074 
L 650.490357 289.100569 
L 654.420166 289.009055 
L 657.171031 288.887035 
L 661.49382 288.795521 
L 664.244686 288.673502 
L 667.781513 288.581988 
L 668.567475 288.520978 
L 677.213052 288.429464 
L 679.570937 288.337949 
L 682.321803 288.246435 
L 684.286707 288.185425 
L 695.68315 288.093911 
L 698.041035 288.002397 
L 704.328728 287.910882 
L 706.686613 287.819368 
L 711.795364 287.727854 
L 714.153248 287.636339 
L 717.297095 287.544825 
L 719.65498 287.453311 
L 735.374212 287.361796 
L 738.518059 287.209272 
L 747.163636 287.117758 
L 747.163636 287.117758 
" clip-path="url(#pf734841dde)" style="fill: none; stroke: #ff7f0e; stroke-width: 1.5; stroke-linecap: square"/>
   </g>
   <g id="patch_3">
    <path d="M 108 320.4 
L 108 43.2 
" style="fill: none; stroke: #a9a9a9; stroke-width: 0.8; stroke-linejoin: miter; stroke-linecap: square"/>
   </g>
   <g id="patch_4">
    <path d="M 777.6 320.4 
L 777.6 43.2 
" style="fill: none"/>
   </g>
   <g id="patch_5">
    <path d="M 108 320.4 
L 777.6 320.4 
" style="fill: none; stroke: #a9a9a9; stroke-width: 0.8; stroke-linejoin: miter; stroke-linecap: square"/>
   </g>
   <g id="patch_6">
    <path d="M 108 43.2 
L 777.6 43.2 
" style="fill: none"/>
   </g>
   <g id="text_20">
    <!-- get_subscribe history -->
    <g style="fill: #a9a9a9" transform="translate(378.6075 37.2) scale(0.12 -0.12)">
     <defs>
      <path id="DejaVuSans-67" d="M 2906 1791 
Q 2906 2416 2648 2759 
Q 2391 3103 1925 3103 
Q 1463 3103 1205 2759 
Q 947 2416 947 1791 
Q 947 1169 1205 825 
Q 1463 481 1925 481 
Q 2391 481 2648 825 
Q 2906 1169 2906 1791 
z
M 3481 434 
Q 3481 -459 3084 -895 
Q 2688 -1331 1869 -1331 
Q 1566 -1331 1297 -1286 
Q 1028 -1241 775 -1147 
L 775 -588 
Q 1028 -725 1275 -790 
Q 1522 -856 1778 -856 
Q 2344 -856 2625 -561 
Q 2906 -266 2906 331 
L 2906 616 
Q 2728 306 2450 153 
Q 2172 0 1784 0 
Q 1141 0 747 490 
Q 353 981 353 1791 
Q 353 2603 747 3093 
Q 1141 3584 1784 3584 
Q 2172 3584 2450 3431 
Q 2728 3278 2906 2969 
L 2906 3500 
L 3481 3500 
L 3481 434 
z
" transform="scale(0.015625)"/>
      <path id="DejaVuSans-65" d="M 3597 1894 
L 3597 1613 
L 953 1613 
Q 991 1019 1311 708 
Q 1631 397 2203 397 
Q 2534 397 2845 478 
Q 3156 559 3463 722 
L 3463 178 
Q 3153 47 2828 -22 
Q 2503 -91 2169 -91 
Q 1331 -91 842 396 
Q 353 884 353 1716 
Q 353 2575 817 3079 
Q 1281 3584 2069 3584 
Q 2775 3584 3186 3129 
Q 3597 2675 3597 1894 
z
M 3022 2063 
Q 3016 2534 2758 2815 
Q 2500 3097 2075 3097 
Q 1594 3097 1305 2825 
Q 1016 2553 972 2059 
L 3022 2063 
z
" transform="scale(0.015625)"/>
      <path id="DejaVuSans-74" d="M 1172 4494 
L 1172 3500 
L 2356 3500 
L 2356 3053 
L 1172 3053 
L 1172 1153 
Q 1172 725 1289 603 
Q 1406 481 1766 481 
L 2356 481 
L 2356 0 
L 1766 0 
Q 1100 0 847 248 
Q 594 497 594 1153 
L 594 3053 
L 172 3053 
L 172 3500 
L 594 3500 
L 594 4494 
L 1172 4494 
z
" transform="scale(0.015625)"/>
      <path id="DejaVuSans-5f" d="M 3263 -1063 
L 3263 -1509 
L -63 -1509 
L -63 -1063 
L 3263 -1063 
z
" transform="scale(0.015625)"/>
      <path id="DejaVuSans-73" d="M 2834 3397 
L 2834 2853 
Q 2591 2978 2328 3040 
Q 2066 3103 1784 3103 
Q 1356 3103 1142 2972 
Q 928 2841 928 2578 
Q 928 2378 1081 2264 
Q 1234 2150 1697 2047 
L 1894 2003 
Q 2506 1872 2764 1633 
Q 3022 1394 3022 966 
Q 3022 478 2636 193 
Q 2250 -91 1575 -91 
Q 1294 -91 989 -36 
Q 684 19 347 128 
L 347 722 
Q 666 556 975 473 
Q 1284 391 1588 391 
Q 1994 391 2212 530 
Q 2431 669 2431 922 
Q 2431 1156 2273 1281 
Q 2116 1406 1581 1522 
L 1381 1569 
Q 847 1681 609 1914 
Q 372 2147 372 2553 
Q 372 3047 722 3315 
Q 1072 3584 1716 3584 
Q 2034 3584 2315 3537 
Q 2597 3491 2834 3397 
z
" transform="scale(0.015625)"/>
      <path id="DejaVuSans-75" d="M 544 1381 
L 544 3500 
L 1119 3500 
L 1119 1403 
Q 1119 906 1312 657 
Q 1506 409 1894 409 
Q 2359 409 2629 706 
Q 2900 1003 2900 1516 
L 2900 3500 
L 3475 3500 
L 3475 0 
L 2900 0 
L 2900 538 
Q 2691 219 2414 64 
Q 2138 -91 1772 -91 
Q 1169 -91 856 284 
Q 544 659 544 1381 
z
M 1991 3584 
L 1991 3584 
z
" transform="scale(0.015625)"/>
      <path id="DejaVuSans-62" d="M 3116 1747 
Q 3116 2381 2855 2742 
Q 2594 3103 2138 3103 
Q 1681 3103 1420 2742 
Q 1159 2381 1159 1747 
Q 1159 1113 1420 752 
Q 1681 391 2138 391 
Q 2594 391 2855 752 
Q 3116 1113 3116 1747 
z
M 1159 2969 
Q 1341 3281 1617 3432 
Q 1894 3584 2278 3584 
Q 2916 3584 3314 3078 
Q 3713 2572 3713 1747 
Q 3713 922 3314 415 
Q 2916 -91 2278 -91 
Q 1894 -91 1617 61 
Q 1341 213 1159 525 
L 1159 0 
L 581 0 
L 581 4863 
L 1159 4863 
L 1159 2969 
z
" transform="scale(0.015625)"/>
      <path id="DejaVuSans-63" d="M 3122 3366 
L 3122 2828 
Q 2878 2963 2633 3030 
Q 2388 3097 2138 3097 
Q 1578 3097 1268 2742 
Q 959 2388 959 1747 
Q 959 1106 1268 751 
Q 1578 397 2138 397 
Q 2388 397 2633 464 
Q 2878 531 3122 666 
L 3122 134 
Q 2881 22 2623 -34 
Q 2366 -91 2075 -91 
Q 1284 -91 818 406 
Q 353 903 353 1747 
Q 353 2603 823 3093 
Q 1294 3584 2113 3584 
Q 2378 3584 2631 3529 
Q 2884 3475 3122 3366 
z
" transform="scale(0.015625)"/>
      <path id="DejaVuSans-72" d="M 2631 2963 
Q 2534 3019 2420 3045 
Q 2306 3072 2169 3072 
Q 1681 3072 1420 2755 
Q 1159 2438 1159 1844 
L 1159 0 
L 581 0 
L 581 3500 
L 1159 3500 
L 1159 2956 
Q 1341 3275 1631 3429 
Q 1922 3584 2338 3584 
Q 2397 3584 2469 3576 
Q 2541 3569 2628 3553 
L 2631 2963 
z
" transform="scale(0.015625)"/>
      <path id="DejaVuSans-69" d="M 603 3500 
L 1178 3500 
L 1178 0 
L 603 0 
L 603 3500 
z
M 603 4863 
L 1178 4863 
L 1178 4134 
L 603 4134 
L 603 4863 
z
" transform="scale(0.015625)"/>
      <path id="DejaVuSans-20" transform="scale(0.015625)"/>
      <path id="DejaVuSans-68" d="M 3513 2113 
L 3513 0 
L 2938 0 
L 2938 2094 
Q 2938 2591 2744 2837 
Q 2550 3084 2163 3084 
Q 1697 3084 1428 2787 
Q 1159 2491 1159 1978 
L 1159 0 
L 581 0 
L 581 4863 
L 1159 4863 
L 1159 2956 
Q 1366 3272 1645 3428 
Q 1925 3584 2291 3584 
Q 2894 3584 3203 3211 
Q 3513 2838 3513 2113 
z
" transform="scale(0.015625)"/>
      <path id="DejaVuSans-6f" d="M 1959 3097 
Q 1497 3097 1228 2736 
Q 959 2375 959 1747 
Q 959 1119 1226 758 
Q 1494 397 1959 397 
Q 2419 397 2687 759 
Q 2956 1122 2956 1747 
Q 2956 2369 2687 2733 
Q 2419 3097 1959 3097 
z
M 1959 3584 
Q 2709 3584 3137 3096 
Q 3566 2609 3566 1747 
Q 3566 888 3137 398 
Q 2709 -91 1959 -91 
Q 1206 -91 779 398 
Q 353 888 353 1747 
Q 353 2609 779 3096 
Q 1206 3584 1959 3584 
z
" transform="scale(0.015625)"/>
      <path id="DejaVuSans-79" d="M 2059 -325 
Q 1816 -950 1584 -1140 
Q 1353 -1331 966 -1331 
L 506 -1331 
L 506 -850 
L 844 -850 
Q 1081 -850 1212 -737 
Q 1344 -625 1503 -206 
L 1606 56 
L 191 3500 
L 800 3500 
L 1894 763 
L 2988 3500 
L 3597 3500 
L 2059 -325 
z
" transform="scale(0.015625)"/>
     </defs>
     <use xlink:href="#DejaVuSans-67"/>
     <use xlink:href="#DejaVuSans-65" transform="translate(63.476562 0)"/>
     <use xlink:href="#DejaVuSans-74" transform="translate(125 0)"/>
     <use xlink:href="#DejaVuSans-5f" transform="translate(164.208984 0)"/>
     <use xlink:href="#DejaVuSans-73" transform="translate(214.208984 0)"/>
     <use xlink:href="#DejaVuSans-75" transform="translate(266.308594 0)"/>
     <use xlink:href="#DejaVuSans-62" transform="translate(329.6875 0)"/>
     <use xlink:href="#DejaVuSans-73" transform="translate(393.164062 0)"/>
     <use xlink:href="#DejaVuSans-63" transform="translate(445.263672 0)"/>
     <use xlink:href="#DejaVuSans-72" transform="translate(500.244141 0)"/>
     <use xlink:href="#DejaVuSans-69" transform="translate(541.357422 0)"/>
     <use xlink:href="#DejaVuSans-62" transform="translate(569.140625 0)"/>
     <use xlink:href="#DejaVuSans-65" transform="translate(632.617188 0)"/>
     <use xlink:href="#DejaVuSans-20" transform="translate(694.140625 0)"/>
     <use xlink:href="#DejaVuSans-68" transform="translate(725.927734 0)"/>
     <use xlink:href="#DejaVuSans-69" transform="translate(789.306641 0)"/>
     <use xlink:href="#DejaVuSans-73" transform="translate(817.089844 0)"/>
     <use xlink:href="#DejaVuSans-74" transform="translate(869.189453 0)"/>
     <use xlink:href="#DejaVuSans-6f" transform="translate(908.398438 0)"/>
     <use xlink:href="#DejaVuSans-72" transform="translate(969.580078 0)"/>
     <use xlink:href="#DejaVuSans-79" transform="translate(1010.693359 0)"/>
    </g>
   </g>
   <g id="legend_1">
    <g id="line2d_41">
     <path d="M 815.08 328.498438 
L 825.08 328.498438 
L 835.08 328.498438 
" style="fill: none; stroke: #1f77b4; stroke-width: 1.5; stroke-linecap: square"/>
    </g>
    <g id="text_21">
     <!-- star -->
     <g style="fill: #a9a9a9" transform="translate(843.08 331.998438) scale(0.1 -0.1)">
      <defs>
       <path id="DejaVuSans-61" d="M 2194 1759 
Q 1497 1759 1228 1600 
Q 959 1441 959 1056 
Q 959 750 1161 570 
Q 1363 391 1709 391 
Q 2188 391 2477 730 
Q 2766 1069 2766 1631 
L 2766 1759 
L 2194 1759 
z
M 3341 1997 
L 3341 0 
L 2766 0 
L 2766 531 
Q 2569 213 2275 61 
Q 1981 -91 1556 -91 
Q 1019 -91 701 211 
Q 384 513 384 1019 
Q 384 1609 779 1909 
Q 1175 2209 1959 2209 
L 2766 2209 
L 2766 2266 
Q 2766 2663 2505 2880 
Q 2244 3097 1772 3097 
Q 1472 3097 1187 3025 
Q 903 2953 641 2809 
L 641 3341 
Q 956 3463 1253 3523 
Q 1550 3584 1831 3584 
Q 2591 3584 2966 3190 
Q 3341 2797 3341 1997 
z
" transform="scale(0.015625)"/>
      </defs>
      <use xlink:href="#DejaVuSans-73"/>
      <use xlink:href="#DejaVuSans-74" transform="translate(52.099609 0)"/>
      <use xlink:href="#DejaVuSans-61" transform="translate(91.308594 0)"/>
      <use xlink:href="#DejaVuSans-72" transform="translate(152.587891 0)"/>
     </g>
    </g>
    <g id="line2d_42">
     <path d="M 815.08 343.176562 
L 825.08 343.176562 
L 835.08 343.176562 
" style="fill: none; stroke: #ff7f0e; stroke-width: 1.5; stroke-linecap: square"/>
    </g>
    <g id="text_22">
     <!-- fork -->
     <g style="fill: #a9a9a9" transform="translate(843.08 346.676562) scale(0.1 -0.1)">
      <defs>
       <path id="DejaVuSans-66" d="M 2375 4863 
L 2375 4384 
L 1825 4384 
Q 1516 4384 1395 4259 
Q 1275 4134 1275 3809 
L 1275 3500 
L 2222 3500 
L 2222 3053 
L 1275 3053 
L 1275 0 
L 697 0 
L 697 3053 
L 147 3053 
L 147 3500 
L 697 3500 
L 697 3744 
Q 697 4328 969 4595 
Q 1241 4863 1831 4863 
L 2375 4863 
z
" transform="scale(0.015625)"/>
       <path id="DejaVuSans-6b" d="M 581 4863 
L 1159 4863 
L 1159 1991 
L 2875 3500 
L 3609 3500 
L 1753 1863 
L 3688 0 
L 2938 0 
L 1159 1709 
L 1159 0 
L 581 0 
L 581 4863 
z
" transform="scale(0.015625)"/>
      </defs>
      <use xlink:href="#DejaVuSans-66"/>
      <use xlink:href="#DejaVuSans-6f" transform="translate(35.205078 0)"/>
      <use xlink:href="#DejaVuSans-72" transform="translate(96.386719 0)"/>
      <use xlink:href="#DejaVuSans-6b" transform="translate(137.5 0)"/>
     </g>
    </g>
   </g>
  </g>
 </g>
 <defs>
  <clipPath id="pf734841dde">
   <rect x="108" y="43.2" width="669.6" height="277.2"/>
  </clipPath>
 </defs>
</svg>
