<?xml version="1.0" encoding="utf-8" standalone="no"?>
<!DOCTYPE svg PUBLIC "-//W3C//DTD SVG 1.1//EN"
  "http://www.w3.org/Graphics/SVG/1.1/DTD/svg11.dtd">
<svg xmlns:xlink="http://www.w3.org/1999/xlink" width="864pt" height="360pt" viewBox="0 0 864 360" xmlns="http://www.w3.org/2000/svg" version="1.1">
 <metadata>
  <rdf:RDF xmlns:dc="http://purl.org/dc/elements/1.1/" xmlns:cc="http://creativecommons.org/ns#" xmlns:rdf="http://www.w3.org/1999/02/22-rdf-syntax-ns#">
   <cc:Work>
    <dc:type rdf:resource="http://purl.org/dc/dcmitype/StillImage"/>
    <dc:date>2026-02-21T08:21:30.080947</dc:date>
    <dc:format>image/svg+xml</dc:format>
    <dc:creator>
     <cc:Agent>
      <dc:title>Matplotlib v3.10.8, https://matplotlib.org/</dc:title>
     </cc:Agent>
    </dc:creator>
   </cc:Work>
  </rdf:RDF>
 </metadata>
 <defs>
  <style type="text/css">*{stroke-linejoin: round; stroke-linecap: butt}</style>
 </defs>
 <g id="figure_1">
  <g id="patch_1">
   <path d="M 0 360 
L 864 360 
L 864 0 
L 0 0 
L 0 360 
z
" style="fill: none; opacity: 0"/>
  </g>
  <g id="axes_1">
   <g id="patch_2">
    <path d="M 108 320.4 
L 777.6 320.4 
L 777.6 43.2 
L 108 43.2 
L 108 320.4 
z
" style="fill: none; opacity: 0"/>
   </g>
   <g id="matplotlib.axis_1">
    <g id="xtick_1">
     <g id="line2d_1">
      <path d="M 197.016812 320.4 
L 197.016812 43.2 
" clip-path="url(#p1d6ae47e34)" style="fill: none; stroke-dasharray: 5.12,1.28,0.8,1.28; stroke-dashoffset: 0; stroke: #b0b0b0; stroke-width: 0.8"/>
     </g>
     <g id="line2d_2">
      <defs>
       <path id="m01d9a79055" d="M 0 0 
L 0 3.5 
" style="stroke: #a9a9a9; stroke-width: 0.8"/>
      </defs>
      <g>
       <use xlink:href="#m01d9a79055" x="197.016812" y="320.4" style="fill: #a9a9a9; stroke: #a9a9a9; stroke-width: 0.8"/>
      </g>
     </g>
     <g id="text_1">
      <!-- 2022 -->
      <g style="fill: #a9a9a9" transform="translate(184.291812 334.998438) scale(0.1 -0.1)">
       <defs>
        <path id="DejaVuSans-32" d="M 1228 531 
L 3431 531 
L 3431 0 
L 469 0 
L 469 531 
Q 828 903 1448 1529 
Q 2069 2156 2228 2338 
Q 2531 2678 2651 2914 
Q 2772 3150 2772 3378 
Q 2772 3750 2511 3984 
Q 2250 4219 1831 4219 
Q 1534 4219 1204 4116 
Q 875 4013 500 3803 
L 500 4441 
Q 881 4594 1212 4672 
Q 1544 4750 1819 4750 
Q 2544 4750 2975 4387 
Q 3406 4025 3406 3419 
Q 3406 3131 3298 2873 
Q 3191 2616 2906 2266 
Q 2828 2175 2409 1742 
Q 1991 1309 1228 531 
z
" transform="scale(0.015625)"/>
        <path id="DejaVuSans-30" d="M 2034 4250 
Q 1547 4250 1301 3770 
Q 1056 3291 1056 2328 
Q 1056 1369 1301 889 
Q 1547 409 2034 409 
Q 2525 409 2770 889 
Q 3016 1369 3016 2328 
Q 3016 3291 2770 3770 
Q 2525 4250 2034 4250 
z
M 2034 4750 
Q 2819 4750 3233 4129 
Q 3647 3509 3647 2328 
Q 3647 1150 3233 529 
Q 2819 -91 2034 -91 
Q 1250 -91 836 529 
Q 422 1150 422 2328 
Q 422 3509 836 4129 
Q 1250 4750 2034 4750 
z
" transform="scale(0.015625)"/>
       </defs>
       <use xlink:href="#DejaVuSans-32"/>
       <use xlink:href="#DejaVuSans-30" transform="translate(63.623047 0)"/>
       <use xlink:href="#DejaVuSans-32" transform="translate(127.246094 0)"/>
       <use xlink:href="#DejaVuSans-32" transform="translate(190.869141 0)"/>
      </g>
     </g>
    </g>
    <g id="xtick_2">
     <g id="line2d_3">
      <path d="M 329.82342 320.4 
L 329.82342 43.2 
" clip-path="url(#p1d6ae47e34)" style="fill: none; stroke-dasharray: 5.12,1.28,0.8,1.28; stroke-dashoffset: 0; stroke: #b0b0b0; stroke-width: 0.8"/>
     </g>
     <g id="line2d_4">
      <g>
       <use xlink:href="#m01d9a79055" x="329.82342" y="320.4" style="fill: #a9a9a9; stroke: #a9a9a9; stroke-width: 0.8"/>
      </g>
     </g>
     <g id="text_2">
      <!-- 2023 -->
      <g style="fill: #a9a9a9" transform="translate(317.09842 334.998438) scale(0.1 -0.1)">
       <defs>
        <path id="DejaVuSans-33" d="M 2597 2516 
Q 3050 2419 3304 2112 
Q 3559 1806 3559 1356 
Q 3559 666 3084 287 
Q 2609 -91 1734 -91 
Q 1441 -91 1130 -33 
Q 819 25 488 141 
L 488 750 
Q 750 597 1062 519 
Q 1375 441 1716 441 
Q 2309 441 2620 675 
Q 2931 909 2931 1356 
Q 2931 1769 2642 2001 
Q 2353 2234 1838 2234 
L 1294 2234 
L 1294 2753 
L 1863 2753 
Q 2328 2753 2575 2939 
Q 2822 3125 2822 3475 
Q 2822 3834 2567 4026 
Q 2313 4219 1838 4219 
Q 1578 4219 1281 4162 
Q 984 4106 628 3988 
L 628 4550 
Q 988 4650 1302 4700 
Q 1616 4750 1894 4750 
Q 2613 4750 3031 4423 
Q 3450 4097 3450 3541 
Q 3450 3153 3228 2886 
Q 3006 2619 2597 2516 
z
" transform="scale(0.015625)"/>
       </defs>
       <use xlink:href="#DejaVuSans-32"/>
       <use xlink:href="#DejaVuSans-30" transform="translate(63.623047 0)"/>
       <use xlink:href="#DejaVuSans-32" transform="translate(127.246094 0)"/>
       <use xlink:href="#DejaVuSans-33" transform="translate(190.869141 0)"/>
      </g>
     </g>
    </g>
    <g id="xtick_3">
     <g id="line2d_5">
      <path d="M 462.630028 320.4 
L 462.630028 43.2 
" clip-path="url(#p1d6ae47e34)" style="fill: none; stroke-dasharray: 5.12,1.28,0.8,1.28; stroke-dashoffset: 0; stroke: #b0b0b0; stroke-width: 0.8"/>
     </g>
     <g id="line2d_6">
      <g>
       <use xlink:href="#m01d9a79055" x="462.630028" y="320.4" style="fill: #a9a9a9; stroke: #a9a9a9; stroke-width: 0.8"/>
      </g>
     </g>
     <g id="text_3">
      <!-- 2024 -->
      <g style="fill: #a9a9a9" transform="translate(449.905028 334.998438) scale(0.1 -0.1)">
       <defs>
        <path id="DejaVuSans-34" d="M 2419 4116 
L 825 1625 
L 2419 1625 
L 2419 4116 
z
M 2253 4666 
L 3047 4666 
L 3047 1625 
L 3713 1625 
L 3713 1100 
L 3047 1100 
L 3047 0 
L 2419 0 
L 2419 1100 
L 313 1100 
L 313 1709 
L 2253 4666 
z
" transform="scale(0.015625)"/>
       </defs>
       <use xlink:href="#DejaVuSans-32"/>
       <use xlink:href="#DejaVuSans-30" transform="translate(63.623047 0)"/>
       <use xlink:href="#DejaVuSans-32" transform="translate(127.246094 0)"/>
       <use xlink:href="#DejaVuSans-34" transform="translate(190.869141 0)"/>
      </g>
     </g>
    </g>
    <g id="xtick_4">
     <g id="line2d_7">
      <path d="M 595.800489 320.4 
L 595.800489 43.2 
" clip-path="url(#p1d6ae47e34)" style="fill: none; stroke-dasharray: 5.12,1.28,0.8,1.28; stroke-dashoffset: 0; stroke: #b0b0b0; stroke-width: 0.8"/>
     </g>
     <g id="line2d_8">
      <g>
       <use xlink:href="#m01d9a79055" x="595.800489" y="320.4" style="fill: #a9a9a9; stroke: #a9a9a9; stroke-width: 0.8"/>
      </g>
     </g>
     <g id="text_4">
      <!-- 2025 -->
      <g style="fill: #a9a9a9" transform="translate(583.075489 334.998438) scale(0.1 -0.1)">
       <defs>
        <path id="DejaVuSans-35" d="M 691 4666 
L 3169 4666 
L 3169 4134 
L 1269 4134 
L 1269 2991 
Q 1406 3038 1543 3061 
Q 1681 3084 1819 3084 
Q 2600 3084 3056 2656 
Q 3513 2228 3513 1497 
Q 3513 744 3044 326 
Q 2575 -91 1722 -91 
Q 1428 -91 1123 -41 
Q 819 9 494 109 
L 494 744 
Q 775 591 1075 516 
Q 1375 441 1709 441 
Q 2250 441 2565 725 
Q 2881 1009 2881 1497 
Q 2881 1984 2565 2268 
Q 2250 2553 1709 2553 
Q 1456 2553 1204 2497 
Q 953 2441 691 2322 
L 691 4666 
z
" transform="scale(0.015625)"/>
       </defs>
       <use xlink:href="#DejaVuSans-32"/>
       <use xlink:href="#DejaVuSans-30" transform="translate(63.623047 0)"/>
       <use xlink:href="#DejaVuSans-32" transform="translate(127.246094 0)"/>
       <use xlink:href="#DejaVuSans-35" transform="translate(190.869141 0)"/>
      </g>
     </g>
    </g>
    <g id="xtick_5">
     <g id="line2d_9">
      <path d="M 728.607097 320.4 
L 728.607097 43.2 
" clip-path="url(#p1d6ae47e34)" style="fill: none; stroke-dasharray: 5.12,1.28,0.8,1.28; stroke-dashoffset: 0; stroke: #b0b0b0; stroke-width: 0.8"/>
     </g>
     <g id="line2d_10">
      <g>
       <use xlink:href="#m01d9a79055" x="728.607097" y="320.4" style="fill: #a9a9a9; stroke: #a9a9a9; stroke-width: 0.8"/>
      </g>
     </g>
     <g id="text_5">
      <!-- 2026 -->
      <g style="fill: #a9a9a9" transform="translate(715.882097 334.998438) scale(0.1 -0.1)">
       <defs>
        <path id="DejaVuSans-36" d="M 2113 2584 
Q 1688 2584 1439 2293 
Q 1191 2003 1191 1497 
Q 1191 994 1439 701 
Q 1688 409 2113 409 
Q 2538 409 2786 701 
Q 3034 994 3034 1497 
Q 3034 2003 2786 2293 
Q 2538 2584 2113 2584 
z
M 3366 4563 
L 3366 3988 
Q 3128 4100 2886 4159 
Q 2644 4219 2406 4219 
Q 1781 4219 1451 3797 
Q 1122 3375 1075 2522 
Q 1259 2794 1537 2939 
Q 1816 3084 2150 3084 
Q 2853 3084 3261 2657 
Q 3669 2231 3669 1497 
Q 3669 778 3244 343 
Q 2819 -91 2113 -91 
Q 1303 -91 875 529 
Q 447 1150 447 2328 
Q 447 3434 972 4092 
Q 1497 4750 2381 4750 
Q 2619 4750 2861 4703 
Q 3103 4656 3366 4563 
z
" transform="scale(0.015625)"/>
       </defs>
       <use xlink:href="#DejaVuSans-32"/>
       <use xlink:href="#DejaVuSans-30" transform="translate(63.623047 0)"/>
       <use xlink:href="#DejaVuSans-32" transform="translate(127.246094 0)"/>
       <use xlink:href="#DejaVuSans-36" transform="translate(190.869141 0)"/>
      </g>
     </g>
    </g>
   </g>
   <g id="matplotlib.axis_2">
    <g id="ytick_1">
     <g id="line2d_11">
      <path d="M 108 307.829036 
L 777.6 307.829036 
" clip-path="url(#p1d6ae47e34)" style="fill: none; stroke-dasharray: 5.12,1.28,0.8,1.28; stroke-dashoffset: 0; stroke: #b0b0b0; stroke-width: 0.8"/>
     </g>
     <g id="line2d_12">
      <defs>
       <path id="m6c3d9e41bf" d="M 0 0 
L -3.5 0 
" style="stroke: #a9a9a9; stroke-width: 0.8"/>
      </defs>
      <g>
       <use xlink:href="#m6c3d9e41bf" x="108" y="307.829036" style="fill: #a9a9a9; stroke: #a9a9a9; stroke-width: 0.8"/>
      </g>
     </g>
     <g id="text_6">
      <!-- 0 -->
      <g style="fill: #a9a9a9" transform="translate(94.6375 311.628254) scale(0.1 -0.1)">
       <use xlink:href="#DejaVuSans-30"/>
      </g>
     </g>
    </g>
    <g id="ytick_2">
     <g id="line2d_13">
      <path d="M 108 278.793432 
L 777.6 278.793432 
" clip-path="url(#p1d6ae47e34)" style="fill: none; stroke-dasharray: 5.12,1.28,0.8,1.28; stroke-dashoffset: 0; stroke: #b0b0b0; stroke-width: 0.8"/>
     </g>
     <g id="line2d_14">
      <g>
       <use xlink:href="#m6c3d9e41bf" x="108" y="278.793432" style="fill: #a9a9a9; stroke: #a9a9a9; stroke-width: 0.8"/>
      </g>
     </g>
     <g id="text_7">
      <!-- 1000 -->
      <g style="fill: #a9a9a9" transform="translate(75.55 282.592651) scale(0.1 -0.1)">
       <defs>
        <path id="DejaVuSans-31" d="M 794 531 
L 1825 531 
L 1825 4091 
L 703 3866 
L 703 4441 
L 1819 4666 
L 2450 4666 
L 2450 531 
L 3481 531 
L 3481 0 
L 794 0 
L 794 531 
z
" transform="scale(0.015625)"/>
       </defs>
       <use xlink:href="#DejaVuSans-31"/>
       <use xlink:href="#DejaVuSans-30" transform="translate(63.623047 0)"/>
       <use xlink:href="#DejaVuSans-30" transform="translate(127.246094 0)"/>
       <use xlink:href="#DejaVuSans-30" transform="translate(190.869141 0)"/>
      </g>
     </g>
    </g>
    <g id="ytick_3">
     <g id="line2d_15">
      <path d="M 108 249.757829 
L 777.6 249.757829 
" clip-path="url(#p1d6ae47e34)" style="fill: none; stroke-dasharray: 5.12,1.28,0.8,1.28; stroke-dashoffset: 0; stroke: #b0b0b0; stroke-width: 0.8"/>
     </g>
     <g id="line2d_16">
      <g>
       <use xlink:href="#m6c3d9e41bf" x="108" y="249.757829" style="fill: #a9a9a9; stroke: #a9a9a9; stroke-width: 0.8"/>
      </g>
     </g>
     <g id="text_8">
      <!-- 2000 -->
      <g style="fill: #a9a9a9" transform="translate(75.55 253.557048) scale(0.1 -0.1)">
       <use xlink:href="#DejaVuSans-32"/>
       <use xlink:href="#DejaVuSans-30" transform="translate(63.623047 0)"/>
       <use xlink:href="#DejaVuSans-30" transform="translate(127.246094 0)"/>
       <use xlink:href="#DejaVuSans-30" transform="translate(190.869141 0)"/>
      </g>
     </g>
    </g>
    <g id="ytick_4">
     <g id="line2d_17">
      <path d="M 108 220.722226 
L 777.6 220.722226 
" clip-path="url(#p1d6ae47e34)" style="fill: none; stroke-dasharray: 5.12,1.28,0.8,1.28; stroke-dashoffset: 0; stroke: #b0b0b0; stroke-width: 0.8"/>
     </g>
     <g id="line2d_18">
      <g>
       <use xlink:href="#m6c3d9e41bf" x="108" y="220.722226" style="fill: #a9a9a9; stroke: #a9a9a9; stroke-width: 0.8"/>
      </g>
     </g>
     <g id="text_9">
      <!-- 3000 -->
      <g style="fill: #a9a9a9" transform="translate(75.55 224.521445) scale(0.1 -0.1)">
       <use xlink:href="#DejaVuSans-33"/>
       <use xlink:href="#DejaVuSans-30" transform="translate(63.623047 0)"/>
       <use xlink:href="#DejaVuSans-30" transform="translate(127.246094 0)"/>
       <use xlink:href="#DejaVuSans-30" transform="translate(190.869141 0)"/>
      </g>
     </g>
    </g>
    <g id="ytick_5">
     <g id="line2d_19">
      <path d="M 108 191.686623 
L 777.6 191.686623 
" clip-path="url(#p1d6ae47e34)" style="fill: none; stroke-dasharray: 5.12,1.28,0.8,1.28; stroke-dashoffset: 0; stroke: #b0b0b0; stroke-width: 0.8"/>
     </g>
     <g id="line2d_20">
      <g>
       <use xlink:href="#m6c3d9e41bf" x="108" y="191.686623" style="fill: #a9a9a9; stroke: #a9a9a9; stroke-width: 0.8"/>
      </g>
     </g>
     <g id="text_10">
      <!-- 4000 -->
      <g style="fill: #a9a9a9" transform="translate(75.55 195.485842) scale(0.1 -0.1)">
       <use xlink:href="#DejaVuSans-34"/>
       <use xlink:href="#DejaVuSans-30" transform="translate(63.623047 0)"/>
       <use xlink:href="#DejaVuSans-30" transform="translate(127.246094 0)"/>
       <use xlink:href="#DejaVuSans-30" transform="translate(190.869141 0)"/>
      </g>
     </g>
    </g>
    <g id="ytick_6">
     <g id="line2d_21">
      <path d="M 108 162.65102 
L 777.6 162.65102 
" clip-path="url(#p1d6ae47e34)" style="fill: none; stroke-dasharray: 5.12,1.28,0.8,1.28; stroke-dashoffset: 0; stroke: #b0b0b0; stroke-width: 0.8"/>
     </g>
     <g id="line2d_22">
      <g>
       <use xlink:href="#m6c3d9e41bf" x="108" y="162.65102" style="fill: #a9a9a9; stroke: #a9a9a9; stroke-width: 0.8"/>
      </g>
     </g>
     <g id="text_11">
      <!-- 5000 -->
      <g style="fill: #a9a9a9" transform="translate(75.55 166.450238) scale(0.1 -0.1)">
       <use xlink:href="#DejaVuSans-35"/>
       <use xlink:href="#DejaVuSans-30" transform="translate(63.623047 0)"/>
       <use xlink:href="#DejaVuSans-30" transform="translate(127.246094 0)"/>
       <use xlink:href="#DejaVuSans-30" transform="translate(190.869141 0)"/>
      </g>
     </g>
    </g>
    <g id="ytick_7">
     <g id="line2d_23">
      <path d="M 108 133.615417 
L 777.6 133.615417 
" clip-path="url(#p1d6ae47e34)" style="fill: none; stroke-dasharray: 5.12,1.28,0.8,1.28; stroke-dashoffset: 0; stroke: #b0b0b0; stroke-width: 0.8"/>
     </g>
     <g id="line2d_24">
      <g>
       <use xlink:href="#m6c3d9e41bf" x="108" y="133.615417" style="fill: #a9a9a9; stroke: #a9a9a9; stroke-width: 0.8"/>
      </g>
     </g>
     <g id="text_12">
      <!-- 6000 -->
      <g style="fill: #a9a9a9" transform="translate(75.55 137.414635) scale(0.1 -0.1)">
       <use xlink:href="#DejaVuSans-36"/>
       <use xlink:href="#DejaVuSans-30" transform="translate(63.623047 0)"/>
       <use xlink:href="#DejaVuSans-30" transform="translate(127.246094 0)"/>
       <use xlink:href="#DejaVuSans-30" transform="translate(190.869141 0)"/>
      </g>
     </g>
    </g>
    <g id="ytick_8">
     <g id="line2d_25">
      <path d="M 108 104.579813 
L 777.6 104.579813 
" clip-path="url(#p1d6ae47e34)" style="fill: none; stroke-dasharray: 5.12,1.28,0.8,1.28; stroke-dashoffset: 0; stroke: #b0b0b0; stroke-width: 0.8"/>
     </g>
     <g id="line2d_26">
      <g>
       <use xlink:href="#m6c3d9e41bf" x="108" y="104.579813" style="fill: #a9a9a9; stroke: #a9a9a9; stroke-width: 0.8"/>
      </g>
     </g>
     <g id="text_13">
      <!-- 7000 -->
      <g style="fill: #a9a9a9" transform="translate(75.55 108.379032) scale(0.1 -0.1)">
       <defs>
        <path id="DejaVuSans-37" d="M 525 4666 
L 3525 4666 
L 3525 4397 
L 1831 0 
L 1172 0 
L 2766 4134 
L 525 4134 
L 525 4666 
z
" transform="scale(0.015625)"/>
       </defs>
       <use xlink:href="#DejaVuSans-37"/>
       <use xlink:href="#DejaVuSans-30" transform="translate(63.623047 0)"/>
       <use xlink:href="#DejaVuSans-30" transform="translate(127.246094 0)"/>
       <use xlink:href="#DejaVuSans-30" transform="translate(190.869141 0)"/>
      </g>
     </g>
    </g>
    <g id="ytick_9">
     <g id="line2d_27">
      <path d="M 108 75.54421 
L 777.6 75.54421 
" clip-path="url(#p1d6ae47e34)" style="fill: none; stroke-dasharray: 5.12,1.28,0.8,1.28; stroke-dashoffset: 0; stroke: #b0b0b0; stroke-width: 0.8"/>
     </g>
     <g id="line2d_28">
      <g>
       <use xlink:href="#m6c3d9e41bf" x="108" y="75.54421" style="fill: #a9a9a9; stroke: #a9a9a9; stroke-width: 0.8"/>
      </g>
     </g>
     <g id="text_14">
      <!-- 8000 -->
      <g style="fill: #a9a9a9" transform="translate(75.55 79.343429) scale(0.1 -0.1)">
       <defs>
        <path id="DejaVuSans-38" d="M 2034 2216 
Q 1584 2216 1326 1975 
Q 1069 1734 1069 1313 
Q 1069 891 1326 650 
Q 1584 409 2034 409 
Q 2484 409 2743 651 
Q 3003 894 3003 1313 
Q 3003 1734 2745 1975 
Q 2488 2216 2034 2216 
z
M 1403 2484 
Q 997 2584 770 2862 
Q 544 3141 544 3541 
Q 544 4100 942 4425 
Q 1341 4750 2034 4750 
Q 2731 4750 3128 4425 
Q 3525 4100 3525 3541 
Q 3525 3141 3298 2862 
Q 3072 2584 2669 2484 
Q 3125 2378 3379 2068 
Q 3634 1759 3634 1313 
Q 3634 634 3220 271 
Q 2806 -91 2034 -91 
Q 1263 -91 848 271 
Q 434 634 434 1313 
Q 434 1759 690 2068 
Q 947 2378 1403 2484 
z
M 1172 3481 
Q 1172 3119 1398 2916 
Q 1625 2713 2034 2713 
Q 2441 2713 2670 2916 
Q 2900 3119 2900 3481 
Q 2900 3844 2670 4047 
Q 2441 4250 2034 4250 
Q 1625 4250 1398 4047 
Q 1172 3844 1172 3481 
z
" transform="scale(0.015625)"/>
       </defs>
       <use xlink:href="#DejaVuSans-38"/>
       <use xlink:href="#DejaVuSans-30" transform="translate(63.623047 0)"/>
       <use xlink:href="#DejaVuSans-30" transform="translate(127.246094 0)"/>
       <use xlink:href="#DejaVuSans-30" transform="translate(190.869141 0)"/>
      </g>
     </g>
    </g>
    <g id="ytick_10">
     <g id="line2d_29">
      <path d="M 108 46.508607 
L 777.6 46.508607 
" clip-path="url(#p1d6ae47e34)" style="fill: none; stroke-dasharray: 5.12,1.28,0.8,1.28; stroke-dashoffset: 0; stroke: #b0b0b0; stroke-width: 0.8"/>
     </g>
     <g id="line2d_30">
      <g>
       <use xlink:href="#m6c3d9e41bf" x="108" y="46.508607" style="fill: #a9a9a9; stroke: #a9a9a9; stroke-width: 0.8"/>
      </g>
     </g>
     <g id="text_15">
      <!-- 9000 -->
      <g style="fill: #a9a9a9" transform="translate(75.55 50.307826) scale(0.1 -0.1)">
       <defs>
        <path id="DejaVuSans-39" d="M 703 97 
L 703 672 
Q 941 559 1184 500 
Q 1428 441 1663 441 
Q 2288 441 2617 861 
Q 2947 1281 2994 2138 
Q 2813 1869 2534 1725 
Q 2256 1581 1919 1581 
Q 1219 1581 811 2004 
Q 403 2428 403 3163 
Q 403 3881 828 4315 
Q 1253 4750 1959 4750 
Q 2769 4750 3195 4129 
Q 3622 3509 3622 2328 
Q 3622 1225 3098 567 
Q 2575 -91 1691 -91 
Q 1453 -91 1209 -44 
Q 966 3 703 97 
z
M 1959 2075 
Q 2384 2075 2632 2365 
Q 2881 2656 2881 3163 
Q 2881 3666 2632 3958 
Q 2384 4250 1959 4250 
Q 1534 4250 1286 3958 
Q 1038 3666 1038 3163 
Q 1038 2656 1286 2365 
Q 1534 2075 1959 2075 
z
" transform="scale(0.015625)"/>
       </defs>
       <use xlink:href="#DejaVuSans-39"/>
       <use xlink:href="#DejaVuSans-30" transform="translate(63.623047 0)"/>
       <use xlink:href="#DejaVuSans-30" transform="translate(127.246094 0)"/>
       <use xlink:href="#DejaVuSans-30" transform="translate(190.869141 0)"/>
      </g>
     </g>
    </g>
   </g>
   <g id="line2d_31">
    <path d="M 138.436364 307.741929 
L 140.619486 307.53868 
L 140.98334 307.364466 
L 142.438755 307.161217 
L 143.894169 306.841825 
L 144.621877 306.725683 
L 146.441145 306.551469 
L 147.168853 306.261113 
L 147.532707 305.738472 
L 147.89656 305.477152 
L 148.260414 304.606084 
L 148.624268 304.548012 
L 149.351975 304.083443 
L 150.079683 303.531766 
L 151.535098 302.428413 
L 151.898951 302.283235 
L 152.626659 301.818666 
L 153.71822 301.266989 
L 154.082074 300.628206 
L 154.809781 300.047494 
L 155.537488 299.815209 
L 156.62905 299.640996 
L 158.812172 299.292568 
L 159.176026 299.118355 
L 161.723002 298.88607 
L 163.178417 298.508607 
L 166.089246 298.073073 
L 166.4531 297.869824 
L 166.816954 297.811753 
L 167.544661 297.550432 
L 170.091637 297.085862 
L 170.819345 296.853578 
L 174.094028 296.272866 
L 174.821736 296.098652 
L 176.27715 295.895403 
L 177.004858 295.663118 
L 177.368712 295.111441 
L 178.460273 294.646872 
L 179.551834 294.32748 
L 179.915688 294.124231 
L 180.643395 293.979053 
L 182.462664 293.514483 
L 183.554225 293.253163 
L 185.00964 292.8757 
L 185.373493 292.846664 
L 186.101201 292.469202 
L 186.465055 292.41113 
L 186.828908 292.207881 
L 190.831299 291.511027 
L 192.286714 291.046457 
L 192.650568 290.785137 
L 194.469836 290.146353 
L 195.197544 289.594677 
L 196.289105 289.362392 
L 204.293887 286.86533 
L 204.657741 286.836295 
L 205.749302 286.487867 
L 206.113155 286.487867 
L 206.477009 286.313654 
L 207.204717 286.226547 
L 207.56857 286.081369 
L 209.387839 285.994262 
L 209.751693 285.907155 
L 210.4794 285.500657 
L 211.570961 285.094158 
L 212.298669 284.68766 
L 213.39023 284.194055 
L 214.845645 283.439129 
L 215.209498 283.03263 
L 215.937206 281.813135 
L 217.028767 281.464708 
L 217.392621 281.174352 
L 218.484182 280.767853 
L 218.848036 280.390391 
L 219.939597 279.925821 
L 220.303451 279.722572 
L 222.486573 277.080332 
L 223.21428 276.731905 
L 224.669695 275.686623 
L 225.397403 275.163982 
L 225.761256 274.612306 
L 226.12511 273.712202 
L 226.488964 273.13149 
L 230.127501 269.792395 
L 230.855208 269.066505 
L 232.310623 268.079295 
L 232.674477 267.730868 
L 233.402184 267.498583 
L 234.493746 266.830764 
L 235.585307 266.046803 
L 237.040722 264.624058 
L 237.768429 264.304666 
L 238.496136 263.782026 
L 238.85999 263.549741 
L 239.223844 263.49167 
L 240.315405 262.823851 
L 240.679259 262.388317 
L 242.498527 261.313999 
L 242.862381 261.168821 
L 243.953942 260.355824 
L 249.411748 258.265261 
L 250.139456 257.539371 
L 251.231017 256.958659 
L 251.958724 256.465054 
L 252.686432 256.232769 
L 253.050285 255.971448 
L 253.414139 255.855306 
L 254.5057 255.071345 
L 256.324969 254.635811 
L 257.41653 253.938956 
L 258.508091 253.677636 
L 258.871945 253.590529 
L 259.963506 252.777532 
L 261.418921 252.341998 
L 261.782775 252.051642 
L 263.965897 251.238645 
L 264.693604 251.093467 
L 265.421312 250.774075 
L 267.968288 249.786865 
L 268.695995 249.699758 
L 270.15141 249.119046 
L 274.153801 246.999447 
L 274.881508 246.65102 
L 275.609216 246.302592 
L 276.336923 246.157414 
L 277.064631 245.692845 
L 277.792338 245.489596 
L 278.883899 245.025026 
L 280.339314 244.821777 
L 281.067022 244.415278 
L 281.430875 244.066851 
L 281.794729 243.369997 
L 283.250144 242.934462 
L 284.705559 242.237608 
L 287.980242 240.698721 
L 288.70795 240.524507 
L 289.799511 239.943795 
L 290.163365 239.885724 
L 291.982633 238.927549 
L 292.710341 238.433944 
L 293.801902 238.201659 
L 297.076585 237.040235 
L 298.532 236.401452 
L 298.895854 236.111096 
L 299.623561 235.704597 
L 300.351269 235.414241 
L 300.715123 235.327134 
L 302.170537 234.543173 
L 302.534391 234.136675 
L 302.898245 233.90439 
L 303.262099 233.817283 
L 303.989806 233.1785 
L 304.35366 233.120429 
L 304.717513 232.481645 
L 305.081367 232.336467 
L 305.445221 232.017076 
L 305.809075 231.959004 
L 306.536782 231.465399 
L 307.264489 231.204079 
L 307.628343 230.913723 
L 308.356051 230.507224 
L 309.811466 229.578085 
L 311.994588 228.561839 
L 312.358442 227.89402 
L 313.086149 227.313308 
L 313.450003 227.226201 
L 315.633125 226.122848 
L 316.360832 225.803457 
L 317.08854 225.25178 
L 317.816247 224.467819 
L 319.635516 223.045074 
L 320.363223 222.435327 
L 320.727077 222.261113 
L 321.454785 221.477152 
L 322.546346 220.954511 
L 323.274053 220.518977 
L 323.637907 220.402834 
L 324.001761 220.112478 
L 324.365614 220.054407 
L 327.640298 218.312271 
L 328.368005 218.109022 
L 329.82342 217.586381 
L 330.551128 217.092776 
L 332.006542 216.541099 
L 332.73425 216.047494 
L 333.461957 215.757138 
L 334.189665 215.205461 
L 334.917372 213.666574 
L 335.64508 212.795506 
L 336.736641 212.185759 
L 337.464348 211.866367 
L 337.828202 211.808296 
L 338.555909 211.459869 
L 340.375178 210.79205 
L 341.102885 210.298445 
L 342.194447 209.833875 
L 343.649861 208.933771 
L 344.013715 208.672451 
L 344.377569 208.236917 
L 345.46913 207.569098 
L 345.832984 207.42392 
L 346.560691 206.95935 
L 348.016106 206.117318 
L 348.37996 206.030211 
L 348.743814 205.739855 
L 351.29079 204.868787 
L 351.654643 204.607466 
L 352.382351 204.375181 
L 355.29318 202.923401 
L 356.020888 202.516903 
L 356.384742 202.342689 
L 357.112449 201.732942 
L 357.840156 201.529692 
L 358.20401 201.181265 
L 358.567864 201.123194 
L 359.295571 200.542482 
L 361.11484 199.410093 
L 361.842547 199.177809 
L 362.206401 198.945524 
L 362.570255 198.887452 
L 364.753377 197.929278 
L 369.119622 196.535569 
L 370.211183 195.751607 
L 370.93889 195.345109 
L 372.394305 194.619219 
L 373.485866 193.864293 
L 374.213574 193.69008 
L 375.305135 192.993225 
L 378.579819 191.831801 
L 379.307526 191.57048 
L 380.762941 191.251089 
L 381.490648 191.018804 
L 383.309917 190.380021 
L 384.401478 190.031594 
L 385.129185 189.85738 
L 387.312308 189.450881 
L 388.040015 189.305703 
L 389.131576 189.044383 
L 389.49543 188.870169 
L 390.223138 188.724991 
L 390.950845 188.521742 
L 391.678552 188.173315 
L 392.042406 188.028137 
L 392.40626 188.028137 
L 397.864066 186.227929 
L 398.227919 185.821431 
L 400.411042 184.863256 
L 401.866457 184.340615 
L 402.23031 184.10833 
L 403.321871 183.759903 
L 404.777286 183.208227 
L 405.14114 182.888835 
L 406.232701 182.65655 
L 406.960409 182.308123 
L 407.324262 181.843553 
L 411.326653 180.914414 
L 411.690507 180.914414 
L 412.418214 180.682129 
L 415.692898 179.840097 
L 416.420605 179.665883 
L 422.969972 177.488213 
L 423.333826 177.226892 
L 424.061533 176.994608 
L 426.972363 175.949326 
L 427.700071 175.891255 
L 429.155486 175.455721 
L 429.519339 175.223436 
L 430.247047 174.991151 
L 432.430169 174.062012 
L 436.796414 172.436018 
L 440.071097 171.361701 
L 441.526512 170.11317 
L 444.073488 168.980781 
L 446.620464 167.848393 
L 447.348171 167.645143 
L 450.622855 165.990114 
L 451.350562 165.55458 
L 454.625246 163.928586 
L 454.9891 163.63823 
L 456.808368 162.941376 
L 459.355344 161.983201 
L 460.083052 161.896094 
L 460.446905 161.634774 
L 461.90232 161.344418 
L 462.630028 161.025026 
L 464.449296 160.124922 
L 469.179395 157.947252 
L 470.270956 157.569789 
L 470.63481 157.308469 
L 471.362517 157.221362 
L 471.726371 156.960041 
L 472.454078 156.843899 
L 477.184176 155.072727 
L 478.275738 154.811407 
L 479.731153 154.172624 
L 480.45886 153.766125 
L 481.914275 152.982164 
L 482.641982 152.80795 
L 483.005836 152.575665 
L 483.36969 152.488559 
L 485.188958 151.559419 
L 489.919057 149.730176 
L 490.28291 149.672105 
L 491.738325 148.946215 
L 492.466033 148.801037 
L 493.19374 148.365503 
L 494.649155 147.639613 
L 501.198522 145.055444 
L 502.653937 143.777878 
L 503.745498 143.342344 
L 506.292474 142.064777 
L 506.656328 141.803457 
L 507.384035 141.600207 
L 508.111743 141.193709 
L 509.203304 140.932389 
L 515.024963 138.493398 
L 516.844232 137.738472 
L 518.663501 137.15776 
L 519.755062 136.43187 
L 520.118915 136.344763 
L 520.846623 135.9673 
L 521.57433 135.735016 
L 521.938184 135.386588 
L 523.029745 134.951054 
L 523.393599 134.892983 
L 524.849014 134.196129 
L 525.940575 133.847701 
L 527.032136 133.441203 
L 528.123697 133.121811 
L 528.487551 133.06374 
L 529.215258 132.657242 
L 529.579112 132.512064 
L 529.942966 132.221708 
L 531.034527 131.931352 
L 531.762234 131.640996 
L 532.489942 131.321604 
L 533.945357 130.711856 
L 536.492333 130.073073 
L 537.22004 129.782717 
L 538.675455 129.492361 
L 539.403163 129.347183 
L 540.494724 128.911649 
L 541.586285 128.679364 
L 543.769407 127.343726 
L 544.860968 126.675907 
L 547.044091 125.979053 
L 547.407944 125.688697 
L 550.318774 124.643415 
L 551.410335 124.294988 
L 552.138043 123.888489 
L 552.86575 123.68524 
L 553.229604 123.481991 
L 553.957311 123.336813 
L 555.77658 122.494781 
L 556.504287 122.204424 
L 557.959702 121.623712 
L 558.323556 121.275285 
L 558.68741 121.217214 
L 560.142825 120.607466 
L 561.598239 120.230003 
L 561.962093 120.200968 
L 562.325947 120.026754 
L 563.053654 119.881576 
L 566.328338 118.86533 
L 567.056045 118.284618 
L 568.51146 117.442586 
L 568.875314 117.355479 
L 569.239168 117.15223 
L 569.603021 117.094158 
L 572.877705 115.468165 
L 573.241558 115.148773 
L 575.060827 114.713239 
L 576.152388 114.219634 
L 576.880096 114.016384 
L 577.243949 113.842171 
L 577.607803 113.522779 
L 580.154779 112.59364 
L 581.24634 112.100035 
L 581.610194 112.070999 
L 582.337901 111.780643 
L 583.793316 111.14186 
L 585.976439 110.590183 
L 587.068 110.096578 
L 590.342683 109.022261 
L 591.070391 108.615762 
L 603.441417 104.783063 
L 604.169125 104.579813 
L 605.260686 104.173315 
L 605.624539 104.173315 
L 606.716101 103.911994 
L 607.443808 103.766816 
L 608.171516 103.563567 
L 609.263077 102.982855 
L 610.354638 102.634428 
L 612.901614 101.76336 
L 614.357029 101.008434 
L 616.904005 100.137366 
L 617.267859 99.817974 
L 617.995566 99.58569 
L 618.35942 99.353405 
L 619.087127 99.266298 
L 621.634103 98.540408 
L 622.725664 98.308123 
L 625.636494 97.262841 
L 630.366592 95.433598 
L 631.0943 95.317456 
L 631.822007 95.172278 
L 632.185861 95.172278 
L 633.277422 94.823851 
L 634.368983 94.475423 
L 637.643667 93.546284 
L 638.007521 93.517249 
L 639.826789 92.907501 
L 641.282204 92.617145 
L 642.373765 92.094504 
L 643.465326 91.833184 
L 644.193034 91.513792 
L 646.376156 90.729831 
L 646.74001 90.671759 
L 647.467717 90.410439 
L 651.833962 89.27805 
L 654.017084 88.523125 
L 654.744792 88.465054 
L 656.927914 87.913377 
L 657.655621 87.593985 
L 658.019475 87.535914 
L 658.383329 87.361701 
L 659.111036 86.722917 
L 662.749573 85.38728 
L 664.932696 84.806568 
L 665.660403 84.400069 
L 666.024257 84.312962 
L 667.115818 83.703215 
L 667.479672 83.616108 
L 667.843526 83.325752 
L 668.935087 83.00636 
L 674.392892 80.480263 
L 676.212161 79.841479 
L 676.576015 79.522088 
L 676.939868 79.434981 
L 677.667576 78.970411 
L 678.759137 78.65102 
L 680.214552 78.041272 
L 680.578406 78.012236 
L 682.397674 77.315382 
L 683.125382 77.170204 
L 683.853089 76.647563 
L 684.216943 76.647563 
L 685.672358 76.124922 
L 687.127773 75.834566 
L 688.583188 75.195783 
L 688.947041 75.195783 
L 690.038602 74.81832 
L 690.76631 74.702178 
L 691.857871 74.063394 
L 692.585578 73.685932 
L 695.496408 72.64065 
L 696.224116 72.408365 
L 698.043384 72.059938 
L 703.865044 70.288766 
L 704.228897 70.230695 
L 704.956605 69.940339 
L 706.41202 69.620947 
L 709.32285 68.54663 
L 710.050557 68.401452 
L 711.505972 68.140131 
L 712.233679 68.023989 
L 713.689094 67.443277 
L 714.416802 67.240028 
L 715.144509 67.123885 
L 716.599924 66.659316 
L 716.963778 66.659316 
L 717.327631 66.36896 
L 718.055339 66.136675 
L 718.419193 66.136675 
L 722.05773 64.859108 
L 723.149291 64.394539 
L 723.513145 64.336467 
L 724.240852 63.98804 
L 724.968559 63.668648 
L 725.696267 63.349257 
L 726.423974 63.058901 
L 726.787828 62.855652 
L 727.151682 62.79758 
L 727.879389 62.449153 
L 728.97095 61.984583 
L 730.790219 61.200622 
L 731.154073 60.968337 
L 731.517926 60.881231 
L 731.88178 60.648946 
L 732.245634 60.590875 
L 732.973341 60.126305 
L 735.156464 59.603664 
L 735.884171 59.197166 
L 736.248025 59.139094 
L 737.70344 58.558382 
L 743.161245 56.496854 
L 744.61666 56.148427 
L 746.072075 55.974214 
L 746.799783 55.8 
L 747.163636 55.8 
L 747.163636 55.8 
" clip-path="url(#p1d6ae47e34)" style="fill: none; stroke: #1f77b4; stroke-width: 1.5; stroke-linecap: square"/>
   </g>
   <g id="line2d_32">
    <path d="M 138.800217 307.8 
L 142.074901 307.712893 
L 144.985731 307.567715 
L 146.441145 307.567715 
L 147.168853 307.451573 
L 156.265196 306.812789 
L 158.812172 306.725683 
L 160.631441 306.667611 
L 165.361539 306.580505 
L 167.180807 306.522433 
L 170.455491 306.435327 
L 171.910906 306.406291 
L 175.549443 306.319184 
L 177.004858 306.174006 
L 178.460273 306.144971 
L 180.643395 306.057864 
L 182.09881 306.028828 
L 183.918079 305.970757 
L 185.373493 305.825579 
L 188.648177 305.738472 
L 189.375884 305.680401 
L 190.831299 305.593294 
L 193.014422 305.506187 
L 194.469836 305.419081 
L 201.019203 304.983546 
L 203.566179 304.89644 
L 204.657741 304.780297 
L 206.477009 304.69319 
L 210.115546 304.489941 
L 213.754084 304.43187 
L 215.209498 304.257656 
L 217.028767 304.17055 
L 220.667304 303.793087 
L 222.850427 303.502731 
L 224.305841 303.44466 
L 227.216671 303.038161 
L 229.399794 302.98009 
L 230.491355 302.863947 
L 231.582916 302.776841 
L 250.503309 301.354096 
L 253.050285 301.266989 
L 254.5057 301.092776 
L 256.324969 301.005669 
L 258.508091 300.918562 
L 260.32736 300.831455 
L 261.782775 300.80242 
L 263.602043 300.744348 
L 264.329751 300.657242 
L 269.423703 300.570135 
L 270.15141 300.483028 
L 274.517655 300.395921 
L 277.792338 300.221708 
L 280.339314 300.134601 
L 281.794729 299.960387 
L 284.341705 299.87328 
L 285.069413 299.757138 
L 286.888681 299.699067 
L 290.527218 299.640996 
L 291.982633 299.495817 
L 293.438048 299.466782 
L 294.529609 299.379675 
L 295.985024 299.234497 
L 299.623561 299.031248 
L 303.262099 298.944141 
L 306.536782 298.769927 
L 307.628343 298.740892 
L 308.356051 298.624749 
L 310.175319 298.537643 
L 310.903027 298.479571 
L 312.722295 298.392465 
L 314.17771 298.363429 
L 316.724686 298.276322 
L 326.184883 297.608503 
L 328.368005 297.521396 
L 330.187274 297.463325 
L 335.281226 297.376218 
L 336.008933 297.289112 
L 341.102885 297.202005 
L 344.741423 296.998756 
L 345.46913 296.96972 
L 346.196837 296.882613 
L 348.016106 296.795506 
L 349.835375 296.737435 
L 351.654643 296.650328 
L 353.473912 296.592257 
L 356.748595 296.50515 
L 358.931718 296.418044 
L 364.02567 296.330937 
L 368.028061 296.098652 
L 369.483476 296.040581 
L 370.575037 295.953474 
L 375.668989 295.866367 
L 377.852111 295.77926 
L 384.401478 295.692153 
L 385.856893 295.663118 
L 390.223138 295.605047 
L 390.950845 295.546975 
L 396.044797 295.459869 
L 397.500212 295.430833 
L 406.960409 295.343726 
L 409.143531 295.256619 
L 424.425387 295.169513 
L 426.244656 295.111441 
L 436.796414 295.024335 
L 440.798805 294.79205 
L 442.981927 294.704943 
L 445.165049 294.617836 
L 448.803586 294.530729 
L 451.350562 294.414587 
L 454.261392 294.32748 
L 457.172222 294.182302 
L 464.085443 294.095195 
L 466.268565 294.008088 
L 470.270956 293.920982 
L 472.817932 293.804839 
L 475.364908 293.746768 
L 476.092615 293.688697 
L 484.825105 293.60159 
L 488.463642 293.398341 
L 491.010618 293.311234 
L 495.013009 293.078949 
L 499.379253 292.991842 
L 500.834668 292.962807 
L 501.562376 292.904736 
L 503.381644 292.701486 
L 507.020181 292.61438 
L 507.747889 292.527273 
L 511.386426 292.440166 
L 513.205695 292.382095 
L 517.208086 292.353059 
L 517.935793 292.265952 
L 521.938184 292.178845 
L 522.665891 292.120774 
L 530.670673 292.033667 
L 532.853796 291.946561 
L 538.311601 291.859454 
L 539.767016 291.830418 
L 543.0417 291.772347 
L 543.769407 291.68524 
L 548.499506 291.598133 
L 550.318774 291.540062 
L 556.868141 291.452955 
L 557.959702 291.365849 
L 559.051263 291.278742 
L 560.142825 291.191635 
L 565.60063 291.104528 
L 567.783753 291.017421 
L 578.335511 290.930315 
L 581.610194 290.756101 
L 586.704146 290.668994 
L 588.159561 290.639959 
L 592.525806 290.552852 
L 594.345074 290.494781 
L 602.71371 290.407674 
L 604.896832 290.320567 
L 611.082345 290.23346 
L 612.53776 290.204424 
L 616.176297 290.117318 
L 618.723273 290.001175 
L 622.725664 289.914068 
L 625.27264 289.797926 
L 628.547324 289.739855 
L 629.275031 289.681784 
L 637.279813 289.594677 
L 639.462935 289.50757 
L 642.009911 289.420463 
L 643.82918 289.362392 
L 654.380938 289.275285 
L 656.56406 289.188178 
L 662.749573 289.101072 
L 664.568842 289.043 
L 669.29894 288.955894 
L 671.482063 288.868787 
L 674.392892 288.78168 
L 676.576015 288.694573 
L 691.130164 288.607466 
L 694.040993 288.462288 
L 702.409629 288.375181 
L 703.865044 288.346146 
L 712.597533 288.259039 
L 714.416802 288.200968 
L 726.060121 288.113861 
L 727.515536 288.084825 
L 738.431147 287.997719 
L 739.158855 287.939647 
L 747.163636 287.910612 
L 747.163636 287.910612 
" clip-path="url(#p1d6ae47e34)" style="fill: none; stroke: #ff7f0e; stroke-width: 1.5; stroke-linecap: square"/>
   </g>
   <g id="patch_3">
    <path d="M 108 320.4 
L 108 43.2 
" style="fill: none; stroke: #a9a9a9; stroke-width: 0.8; stroke-linejoin: miter; stroke-linecap: square"/>
   </g>
   <g id="patch_4">
    <path d="M 777.6 320.4 
L 777.6 43.2 
" style="fill: none"/>
   </g>
   <g id="patch_5">
    <path d="M 108 320.4 
L 777.6 320.4 
" style="fill: none; stroke: #a9a9a9; stroke-width: 0.8; stroke-linejoin: miter; stroke-linecap: square"/>
   </g>
   <g id="patch_6">
    <path d="M 108 43.2 
L 777.6 43.2 
" style="fill: none"/>
   </g>
   <g id="text_16">
    <!-- get_subscribe history -->
    <g style="fill: #a9a9a9" transform="translate(378.6075 37.2) scale(0.12 -0.12)">
     <defs>
      <path id="DejaVuSans-67" d="M 2906 1791 
Q 2906 2416 2648 2759 
Q 2391 3103 1925 3103 
Q 1463 3103 1205 2759 
Q 947 2416 947 1791 
Q 947 1169 1205 825 
Q 1463 481 1925 481 
Q 2391 481 2648 825 
Q 2906 1169 2906 1791 
z
M 3481 434 
Q 3481 -459 3084 -895 
Q 2688 -1331 1869 -1331 
Q 1566 -1331 1297 -1286 
Q 1028 -1241 775 -1147 
L 775 -588 
Q 1028 -725 1275 -790 
Q 1522 -856 1778 -856 
Q 2344 -856 2625 -561 
Q 2906 -266 2906 331 
L 2906 616 
Q 2728 306 2450 153 
Q 2172 0 1784 0 
Q 1141 0 747 490 
Q 353 981 353 1791 
Q 353 2603 747 3093 
Q 1141 3584 1784 3584 
Q 2172 3584 2450 3431 
Q 2728 3278 2906 2969 
L 2906 3500 
L 3481 3500 
L 3481 434 
z
" transform="scale(0.015625)"/>
      <path id="DejaVuSans-65" d="M 3597 1894 
L 3597 1613 
L 953 1613 
Q 991 1019 1311 708 
Q 1631 397 2203 397 
Q 2534 397 2845 478 
Q 3156 559 3463 722 
L 3463 178 
Q 3153 47 2828 -22 
Q 2503 -91 2169 -91 
Q 1331 -91 842 396 
Q 353 884 353 1716 
Q 353 2575 817 3079 
Q 1281 3584 2069 3584 
Q 2775 3584 3186 3129 
Q 3597 2675 3597 1894 
z
M 3022 2063 
Q 3016 2534 2758 2815 
Q 2500 3097 2075 3097 
Q 1594 3097 1305 2825 
Q 1016 2553 972 2059 
L 3022 2063 
z
" transform="scale(0.015625)"/>
      <path id="DejaVuSans-74" d="M 1172 4494 
L 1172 3500 
L 2356 3500 
L 2356 3053 
L 1172 3053 
L 1172 1153 
Q 1172 725 1289 603 
Q 1406 481 1766 481 
L 2356 481 
L 2356 0 
L 1766 0 
Q 1100 0 847 248 
Q 594 497 594 1153 
L 594 3053 
L 172 3053 
L 172 3500 
L 594 3500 
L 594 4494 
L 1172 4494 
z
" transform="scale(0.015625)"/>
      <path id="DejaVuSans-5f" d="M 3263 -1063 
L 3263 -1509 
L -63 -1509 
L -63 -1063 
L 3263 -1063 
z
" transform="scale(0.015625)"/>
      <path id="DejaVuSans-73" d="M 2834 3397 
L 2834 2853 
Q 2591 2978 2328 3040 
Q 2066 3103 1784 3103 
Q 1356 3103 1142 2972 
Q 928 2841 928 2578 
Q 928 2378 1081 2264 
Q 1234 2150 1697 2047 
L 1894 2003 
Q 2506 1872 2764 1633 
Q 3022 1394 3022 966 
Q 3022 478 2636 193 
Q 2250 -91 1575 -91 
Q 1294 -91 989 -36 
Q 684 19 347 128 
L 347 722 
Q 666 556 975 473 
Q 1284 391 1588 391 
Q 1994 391 2212 530 
Q 2431 669 2431 922 
Q 2431 1156 2273 1281 
Q 2116 1406 1581 1522 
L 1381 1569 
Q 847 1681 609 1914 
Q 372 2147 372 2553 
Q 372 3047 722 3315 
Q 1072 3584 1716 3584 
Q 2034 3584 2315 3537 
Q 2597 3491 2834 3397 
z
" transform="scale(0.015625)"/>
      <path id="DejaVuSans-75" d="M 544 1381 
L 544 3500 
L 1119 3500 
L 1119 1403 
Q 1119 906 1312 657 
Q 1506 409 1894 409 
Q 2359 409 2629 706 
Q 2900 1003 2900 1516 
L 2900 3500 
L 3475 3500 
L 3475 0 
L 2900 0 
L 2900 538 
Q 2691 219 2414 64 
Q 2138 -91 1772 -91 
Q 1169 -91 856 284 
Q 544 659 544 1381 
z
M 1991 3584 
L 1991 3584 
z
" transform="scale(0.015625)"/>
      <path id="DejaVuSans-62" d="M 3116 1747 
Q 3116 2381 2855 2742 
Q 2594 3103 2138 3103 
Q 1681 3103 1420 2742 
Q 1159 2381 1159 1747 
Q 1159 1113 1420 752 
Q 1681 391 2138 391 
Q 2594 391 2855 752 
Q 3116 1113 3116 1747 
z
M 1159 2969 
Q 1341 3281 1617 3432 
Q 1894 3584 2278 3584 
Q 2916 3584 3314 3078 
Q 3713 2572 3713 1747 
Q 3713 922 3314 415 
Q 2916 -91 2278 -91 
Q 1894 -91 1617 61 
Q 1341 213 1159 525 
L 1159 0 
L 581 0 
L 581 4863 
L 1159 4863 
L 1159 2969 
z
" transform="scale(0.015625)"/>
      <path id="DejaVuSans-63" d="M 3122 3366 
L 3122 2828 
Q 2878 2963 2633 3030 
Q 2388 3097 2138 3097 
Q 1578 3097 1268 2742 
Q 959 2388 959 1747 
Q 959 1106 1268 751 
Q 1578 397 2138 397 
Q 2388 397 2633 464 
Q 2878 531 3122 666 
L 3122 134 
Q 2881 22 2623 -34 
Q 2366 -91 2075 -91 
Q 1284 -91 818 406 
Q 353 903 353 1747 
Q 353 2603 823 3093 
Q 1294 3584 2113 3584 
Q 2378 3584 2631 3529 
Q 2884 3475 3122 3366 
z
" transform="scale(0.015625)"/>
      <path id="DejaVuSans-72" d="M 2631 2963 
Q 2534 3019 2420 3045 
Q 2306 3072 2169 3072 
Q 1681 3072 1420 2755 
Q 1159 2438 1159 1844 
L 1159 0 
L 581 0 
L 581 3500 
L 1159 3500 
L 1159 2956 
Q 1341 3275 1631 3429 
Q 1922 3584 2338 3584 
Q 2397 3584 2469 3576 
Q 2541 3569 2628 3553 
L 2631 2963 
z
" transform="scale(0.015625)"/>
      <path id="DejaVuSans-69" d="M 603 3500 
L 1178 3500 
L 1178 0 
L 603 0 
L 603 3500 
z
M 603 4863 
L 1178 4863 
L 1178 4134 
L 603 4134 
L 603 4863 
z
" transform="scale(0.015625)"/>
      <path id="DejaVuSans-20" transform="scale(0.015625)"/>
      <path id="DejaVuSans-68" d="M 3513 2113 
L 3513 0 
L 2938 0 
L 2938 2094 
Q 2938 2591 2744 2837 
Q 2550 3084 2163 3084 
Q 1697 3084 1428 2787 
Q 1159 2491 1159 1978 
L 1159 0 
L 581 0 
L 581 4863 
L 1159 4863 
L 1159 2956 
Q 1366 3272 1645 3428 
Q 1925 3584 2291 3584 
Q 2894 3584 3203 3211 
Q 3513 2838 3513 2113 
z
" transform="scale(0.015625)"/>
      <path id="DejaVuSans-6f" d="M 1959 3097 
Q 1497 3097 1228 2736 
Q 959 2375 959 1747 
Q 959 1119 1226 758 
Q 1494 397 1959 397 
Q 2419 397 2687 759 
Q 2956 1122 2956 1747 
Q 2956 2369 2687 2733 
Q 2419 3097 1959 3097 
z
M 1959 3584 
Q 2709 3584 3137 3096 
Q 3566 2609 3566 1747 
Q 3566 888 3137 398 
Q 2709 -91 1959 -91 
Q 1206 -91 779 398 
Q 353 888 353 1747 
Q 353 2609 779 3096 
Q 1206 3584 1959 3584 
z
" transform="scale(0.015625)"/>
      <path id="DejaVuSans-79" d="M 2059 -325 
Q 1816 -950 1584 -1140 
Q 1353 -1331 966 -1331 
L 506 -1331 
L 506 -850 
L 844 -850 
Q 1081 -850 1212 -737 
Q 1344 -625 1503 -206 
L 1606 56 
L 191 3500 
L 800 3500 
L 1894 763 
L 2988 3500 
L 3597 3500 
L 2059 -325 
z
" transform="scale(0.015625)"/>
     </defs>
     <use xlink:href="#DejaVuSans-67"/>
     <use xlink:href="#DejaVuSans-65" transform="translate(63.476562 0)"/>
     <use xlink:href="#DejaVuSans-74" transform="translate(125 0)"/>
     <use xlink:href="#DejaVuSans-5f" transform="translate(164.208984 0)"/>
     <use xlink:href="#DejaVuSans-73" transform="translate(214.208984 0)"/>
     <use xlink:href="#DejaVuSans-75" transform="translate(266.308594 0)"/>
     <use xlink:href="#DejaVuSans-62" transform="translate(329.6875 0)"/>
     <use xlink:href="#DejaVuSans-73" transform="translate(393.164062 0)"/>
     <use xlink:href="#DejaVuSans-63" transform="translate(445.263672 0)"/>
     <use xlink:href="#DejaVuSans-72" transform="translate(500.244141 0)"/>
     <use xlink:href="#DejaVuSans-69" transform="translate(541.357422 0)"/>
     <use xlink:href="#DejaVuSans-62" transform="translate(569.140625 0)"/>
     <use xlink:href="#DejaVuSans-65" transform="translate(632.617188 0)"/>
     <use xlink:href="#DejaVuSans-20" transform="translate(694.140625 0)"/>
     <use xlink:href="#DejaVuSans-68" transform="translate(725.927734 0)"/>
     <use xlink:href="#DejaVuSans-69" transform="translate(789.306641 0)"/>
     <use xlink:href="#DejaVuSans-73" transform="translate(817.089844 0)"/>
     <use xlink:href="#DejaVuSans-74" transform="translate(869.189453 0)"/>
     <use xlink:href="#DejaVuSans-6f" transform="translate(908.398438 0)"/>
     <use xlink:href="#DejaVuSans-72" transform="translate(969.580078 0)"/>
     <use xlink:href="#DejaVuSans-79" transform="translate(1010.693359 0)"/>
    </g>
   </g>
   <g id="legend_1">
    <g id="line2d_33">
     <path d="M 815.08 328.498438 
L 825.08 328.498438 
L 835.08 328.498438 
" style="fill: none; stroke: #1f77b4; stroke-width: 1.5; stroke-linecap: square"/>
    </g>
    <g id="text_17">
     <!-- star -->
     <g style="fill: #a9a9a9" transform="translate(843.08 331.998438) scale(0.1 -0.1)">
      <defs>
       <path id="DejaVuSans-61" d="M 2194 1759 
Q 1497 1759 1228 1600 
Q 959 1441 959 1056 
Q 959 750 1161 570 
Q 1363 391 1709 391 
Q 2188 391 2477 730 
Q 2766 1069 2766 1631 
L 2766 1759 
L 2194 1759 
z
M 3341 1997 
L 3341 0 
L 2766 0 
L 2766 531 
Q 2569 213 2275 61 
Q 1981 -91 1556 -91 
Q 1019 -91 701 211 
Q 384 513 384 1019 
Q 384 1609 779 1909 
Q 1175 2209 1959 2209 
L 2766 2209 
L 2766 2266 
Q 2766 2663 2505 2880 
Q 2244 3097 1772 3097 
Q 1472 3097 1187 3025 
Q 903 2953 641 2809 
L 641 3341 
Q 956 3463 1253 3523 
Q 1550 3584 1831 3584 
Q 2591 3584 2966 3190 
Q 3341 2797 3341 1997 
z
" transform="scale(0.015625)"/>
      </defs>
      <use xlink:href="#DejaVuSans-73"/>
      <use xlink:href="#DejaVuSans-74" transform="translate(52.099609 0)"/>
      <use xlink:href="#DejaVuSans-61" transform="translate(91.308594 0)"/>
      <use xlink:href="#DejaVuSans-72" transform="translate(152.587891 0)"/>
     </g>
    </g>
    <g id="line2d_34">
     <path d="M 815.08 343.176562 
L 825.08 343.176562 
L 835.08 343.176562 
" style="fill: none; stroke: #ff7f0e; stroke-width: 1.5; stroke-linecap: square"/>
    </g>
    <g id="text_18">
     <!-- fork -->
     <g style="fill: #a9a9a9" transform="translate(843.08 346.676562) scale(0.1 -0.1)">
      <defs>
       <path id="DejaVuSans-66" d="M 2375 4863 
L 2375 4384 
L 1825 4384 
Q 1516 4384 1395 4259 
Q 1275 4134 1275 3809 
L 1275 3500 
L 2222 3500 
L 2222 3053 
L 1275 3053 
L 1275 0 
L 697 0 
L 697 3053 
L 147 3053 
L 147 3500 
L 697 3500 
L 697 3744 
Q 697 4328 969 4595 
Q 1241 4863 1831 4863 
L 2375 4863 
z
" transform="scale(0.015625)"/>
       <path id="DejaVuSans-6b" d="M 581 4863 
L 1159 4863 
L 1159 1991 
L 2875 3500 
L 3609 3500 
L 1753 1863 
L 3688 0 
L 2938 0 
L 1159 1709 
L 1159 0 
L 581 0 
L 581 4863 
z
" transform="scale(0.015625)"/>
      </defs>
      <use xlink:href="#DejaVuSans-66"/>
      <use xlink:href="#DejaVuSans-6f" transform="translate(35.205078 0)"/>
      <use xlink:href="#DejaVuSans-72" transform="translate(96.386719 0)"/>
      <use xlink:href="#DejaVuSans-6b" transform="translate(137.5 0)"/>
     </g>
    </g>
   </g>
  </g>
 </g>
 <defs>
  <clipPath id="p1d6ae47e34">
   <rect x="108" y="43.2" width="669.6" height="277.2"/>
  </clipPath>
 </defs>
</svg>
