<?xml version="1.0" encoding="utf-8" standalone="no"?>
<!DOCTYPE svg PUBLIC "-//W3C//DTD SVG 1.1//EN"
  "http://www.w3.org/Graphics/SVG/1.1/DTD/svg11.dtd">
<svg xmlns:xlink="http://www.w3.org/1999/xlink" width="864pt" height="360pt" viewBox="0 0 864 360" xmlns="http://www.w3.org/2000/svg" version="1.1">
 <metadata>
  <rdf:RDF xmlns:dc="http://purl.org/dc/elements/1.1/" xmlns:cc="http://creativecommons.org/ns#" xmlns:rdf="http://www.w3.org/1999/02/22-rdf-syntax-ns#">
   <cc:Work>
    <dc:type rdf:resource="http://purl.org/dc/dcmitype/StillImage"/>
    <dc:date>2026-01-02T08:17:36.566120</dc:date>
    <dc:format>image/svg+xml</dc:format>
    <dc:creator>
     <cc:Agent>
      <dc:title>Matplotlib v3.10.8, https://matplotlib.org/</dc:title>
     </cc:Agent>
    </dc:creator>
   </cc:Work>
  </rdf:RDF>
 </metadata>
 <defs>
  <style type="text/css">*{stroke-linejoin: round; stroke-linecap: butt}</style>
 </defs>
 <g id="figure_1">
  <g id="patch_1">
   <path d="M 0 360 
L 864 360 
L 864 0 
L 0 0 
L 0 360 
z
" style="fill: none; opacity: 0"/>
  </g>
  <g id="axes_1">
   <g id="patch_2">
    <path d="M 108 320.4 
L 777.6 320.4 
L 777.6 43.2 
L 108 43.2 
L 108 320.4 
z
" style="fill: none; opacity: 0"/>
   </g>
   <g id="matplotlib.axis_1">
    <g id="xtick_1">
     <g id="line2d_1">
      <path d="M 129.809914 320.4 
L 129.809914 43.2 
" clip-path="url(#p1237909ca1)" style="fill: none; stroke-dasharray: 5.12,1.28,0.8,1.28; stroke-dashoffset: 0; stroke: #b0b0b0; stroke-width: 0.8"/>
     </g>
     <g id="line2d_2">
      <defs>
       <path id="m719361ccb2" d="M 0 0 
L 0 3.5 
" style="stroke: #a9a9a9; stroke-width: 0.8"/>
      </defs>
      <g>
       <use xlink:href="#m719361ccb2" x="129.809914" y="320.4" style="fill: #a9a9a9; stroke: #a9a9a9; stroke-width: 0.8"/>
      </g>
     </g>
     <g id="text_1">
      <!-- 2021-07 -->
      <g style="fill: #a9a9a9" transform="translate(108.918508 334.998438) scale(0.1 -0.1)">
       <defs>
        <path id="DejaVuSans-32" d="M 1228 531 
L 3431 531 
L 3431 0 
L 469 0 
L 469 531 
Q 828 903 1448 1529 
Q 2069 2156 2228 2338 
Q 2531 2678 2651 2914 
Q 2772 3150 2772 3378 
Q 2772 3750 2511 3984 
Q 2250 4219 1831 4219 
Q 1534 4219 1204 4116 
Q 875 4013 500 3803 
L 500 4441 
Q 881 4594 1212 4672 
Q 1544 4750 1819 4750 
Q 2544 4750 2975 4387 
Q 3406 4025 3406 3419 
Q 3406 3131 3298 2873 
Q 3191 2616 2906 2266 
Q 2828 2175 2409 1742 
Q 1991 1309 1228 531 
z
" transform="scale(0.015625)"/>
        <path id="DejaVuSans-30" d="M 2034 4250 
Q 1547 4250 1301 3770 
Q 1056 3291 1056 2328 
Q 1056 1369 1301 889 
Q 1547 409 2034 409 
Q 2525 409 2770 889 
Q 3016 1369 3016 2328 
Q 3016 3291 2770 3770 
Q 2525 4250 2034 4250 
z
M 2034 4750 
Q 2819 4750 3233 4129 
Q 3647 3509 3647 2328 
Q 3647 1150 3233 529 
Q 2819 -91 2034 -91 
Q 1250 -91 836 529 
Q 422 1150 422 2328 
Q 422 3509 836 4129 
Q 1250 4750 2034 4750 
z
" transform="scale(0.015625)"/>
        <path id="DejaVuSans-31" d="M 794 531 
L 1825 531 
L 1825 4091 
L 703 3866 
L 703 4441 
L 1819 4666 
L 2450 4666 
L 2450 531 
L 3481 531 
L 3481 0 
L 794 0 
L 794 531 
z
" transform="scale(0.015625)"/>
        <path id="DejaVuSans-2d" d="M 313 2009 
L 1997 2009 
L 1997 1497 
L 313 1497 
L 313 2009 
z
" transform="scale(0.015625)"/>
        <path id="DejaVuSans-37" d="M 525 4666 
L 3525 4666 
L 3525 4397 
L 1831 0 
L 1172 0 
L 2766 4134 
L 525 4134 
L 525 4666 
z
" transform="scale(0.015625)"/>
       </defs>
       <use xlink:href="#DejaVuSans-32"/>
       <use xlink:href="#DejaVuSans-30" transform="translate(63.623047 0)"/>
       <use xlink:href="#DejaVuSans-32" transform="translate(127.246094 0)"/>
       <use xlink:href="#DejaVuSans-31" transform="translate(190.869141 0)"/>
       <use xlink:href="#DejaVuSans-2d" transform="translate(254.492188 0)"/>
       <use xlink:href="#DejaVuSans-30" transform="translate(290.576172 0)"/>
       <use xlink:href="#DejaVuSans-37" transform="translate(354.199219 0)"/>
      </g>
     </g>
    </g>
    <g id="xtick_2">
     <g id="line2d_3">
      <path d="M 198.821509 320.4 
L 198.821509 43.2 
" clip-path="url(#p1237909ca1)" style="fill: none; stroke-dasharray: 5.12,1.28,0.8,1.28; stroke-dashoffset: 0; stroke: #b0b0b0; stroke-width: 0.8"/>
     </g>
     <g id="line2d_4">
      <g>
       <use xlink:href="#m719361ccb2" x="198.821509" y="320.4" style="fill: #a9a9a9; stroke: #a9a9a9; stroke-width: 0.8"/>
      </g>
     </g>
     <g id="text_2">
      <!-- 2022-01 -->
      <g style="fill: #a9a9a9" transform="translate(177.930103 334.998438) scale(0.1 -0.1)">
       <use xlink:href="#DejaVuSans-32"/>
       <use xlink:href="#DejaVuSans-30" transform="translate(63.623047 0)"/>
       <use xlink:href="#DejaVuSans-32" transform="translate(127.246094 0)"/>
       <use xlink:href="#DejaVuSans-32" transform="translate(190.869141 0)"/>
       <use xlink:href="#DejaVuSans-2d" transform="translate(254.492188 0)"/>
       <use xlink:href="#DejaVuSans-30" transform="translate(290.576172 0)"/>
       <use xlink:href="#DejaVuSans-31" transform="translate(354.199219 0)"/>
      </g>
     </g>
    </g>
    <g id="xtick_3">
     <g id="line2d_5">
      <path d="M 266.707915 320.4 
L 266.707915 43.2 
" clip-path="url(#p1237909ca1)" style="fill: none; stroke-dasharray: 5.12,1.28,0.8,1.28; stroke-dashoffset: 0; stroke: #b0b0b0; stroke-width: 0.8"/>
     </g>
     <g id="line2d_6">
      <g>
       <use xlink:href="#m719361ccb2" x="266.707915" y="320.4" style="fill: #a9a9a9; stroke: #a9a9a9; stroke-width: 0.8"/>
      </g>
     </g>
     <g id="text_3">
      <!-- 2022-07 -->
      <g style="fill: #a9a9a9" transform="translate(245.816508 334.998438) scale(0.1 -0.1)">
       <use xlink:href="#DejaVuSans-32"/>
       <use xlink:href="#DejaVuSans-30" transform="translate(63.623047 0)"/>
       <use xlink:href="#DejaVuSans-32" transform="translate(127.246094 0)"/>
       <use xlink:href="#DejaVuSans-32" transform="translate(190.869141 0)"/>
       <use xlink:href="#DejaVuSans-2d" transform="translate(254.492188 0)"/>
       <use xlink:href="#DejaVuSans-30" transform="translate(290.576172 0)"/>
       <use xlink:href="#DejaVuSans-37" transform="translate(354.199219 0)"/>
      </g>
     </g>
    </g>
    <g id="xtick_4">
     <g id="line2d_7">
      <path d="M 335.719509 320.4 
L 335.719509 43.2 
" clip-path="url(#p1237909ca1)" style="fill: none; stroke-dasharray: 5.12,1.28,0.8,1.28; stroke-dashoffset: 0; stroke: #b0b0b0; stroke-width: 0.8"/>
     </g>
     <g id="line2d_8">
      <g>
       <use xlink:href="#m719361ccb2" x="335.719509" y="320.4" style="fill: #a9a9a9; stroke: #a9a9a9; stroke-width: 0.8"/>
      </g>
     </g>
     <g id="text_4">
      <!-- 2023-01 -->
      <g style="fill: #a9a9a9" transform="translate(314.828103 334.998438) scale(0.1 -0.1)">
       <defs>
        <path id="DejaVuSans-33" d="M 2597 2516 
Q 3050 2419 3304 2112 
Q 3559 1806 3559 1356 
Q 3559 666 3084 287 
Q 2609 -91 1734 -91 
Q 1441 -91 1130 -33 
Q 819 25 488 141 
L 488 750 
Q 750 597 1062 519 
Q 1375 441 1716 441 
Q 2309 441 2620 675 
Q 2931 909 2931 1356 
Q 2931 1769 2642 2001 
Q 2353 2234 1838 2234 
L 1294 2234 
L 1294 2753 
L 1863 2753 
Q 2328 2753 2575 2939 
Q 2822 3125 2822 3475 
Q 2822 3834 2567 4026 
Q 2313 4219 1838 4219 
Q 1578 4219 1281 4162 
Q 984 4106 628 3988 
L 628 4550 
Q 988 4650 1302 4700 
Q 1616 4750 1894 4750 
Q 2613 4750 3031 4423 
Q 3450 4097 3450 3541 
Q 3450 3153 3228 2886 
Q 3006 2619 2597 2516 
z
" transform="scale(0.015625)"/>
       </defs>
       <use xlink:href="#DejaVuSans-32"/>
       <use xlink:href="#DejaVuSans-30" transform="translate(63.623047 0)"/>
       <use xlink:href="#DejaVuSans-32" transform="translate(127.246094 0)"/>
       <use xlink:href="#DejaVuSans-33" transform="translate(190.869141 0)"/>
       <use xlink:href="#DejaVuSans-2d" transform="translate(254.492188 0)"/>
       <use xlink:href="#DejaVuSans-30" transform="translate(290.576172 0)"/>
       <use xlink:href="#DejaVuSans-31" transform="translate(354.199219 0)"/>
      </g>
     </g>
    </g>
    <g id="xtick_5">
     <g id="line2d_9">
      <path d="M 403.605915 320.4 
L 403.605915 43.2 
" clip-path="url(#p1237909ca1)" style="fill: none; stroke-dasharray: 5.12,1.28,0.8,1.28; stroke-dashoffset: 0; stroke: #b0b0b0; stroke-width: 0.8"/>
     </g>
     <g id="line2d_10">
      <g>
       <use xlink:href="#m719361ccb2" x="403.605915" y="320.4" style="fill: #a9a9a9; stroke: #a9a9a9; stroke-width: 0.8"/>
      </g>
     </g>
     <g id="text_5">
      <!-- 2023-07 -->
      <g style="fill: #a9a9a9" transform="translate(382.714509 334.998438) scale(0.1 -0.1)">
       <use xlink:href="#DejaVuSans-32"/>
       <use xlink:href="#DejaVuSans-30" transform="translate(63.623047 0)"/>
       <use xlink:href="#DejaVuSans-32" transform="translate(127.246094 0)"/>
       <use xlink:href="#DejaVuSans-33" transform="translate(190.869141 0)"/>
       <use xlink:href="#DejaVuSans-2d" transform="translate(254.492188 0)"/>
       <use xlink:href="#DejaVuSans-30" transform="translate(290.576172 0)"/>
       <use xlink:href="#DejaVuSans-37" transform="translate(354.199219 0)"/>
      </g>
     </g>
    </g>
    <g id="xtick_6">
     <g id="line2d_11">
      <path d="M 472.61751 320.4 
L 472.61751 43.2 
" clip-path="url(#p1237909ca1)" style="fill: none; stroke-dasharray: 5.12,1.28,0.8,1.28; stroke-dashoffset: 0; stroke: #b0b0b0; stroke-width: 0.8"/>
     </g>
     <g id="line2d_12">
      <g>
       <use xlink:href="#m719361ccb2" x="472.61751" y="320.4" style="fill: #a9a9a9; stroke: #a9a9a9; stroke-width: 0.8"/>
      </g>
     </g>
     <g id="text_6">
      <!-- 2024-01 -->
      <g style="fill: #a9a9a9" transform="translate(451.726103 334.998438) scale(0.1 -0.1)">
       <defs>
        <path id="DejaVuSans-34" d="M 2419 4116 
L 825 1625 
L 2419 1625 
L 2419 4116 
z
M 2253 4666 
L 3047 4666 
L 3047 1625 
L 3713 1625 
L 3713 1100 
L 3047 1100 
L 3047 0 
L 2419 0 
L 2419 1100 
L 313 1100 
L 313 1709 
L 2253 4666 
z
" transform="scale(0.015625)"/>
       </defs>
       <use xlink:href="#DejaVuSans-32"/>
       <use xlink:href="#DejaVuSans-30" transform="translate(63.623047 0)"/>
       <use xlink:href="#DejaVuSans-32" transform="translate(127.246094 0)"/>
       <use xlink:href="#DejaVuSans-34" transform="translate(190.869141 0)"/>
       <use xlink:href="#DejaVuSans-2d" transform="translate(254.492188 0)"/>
       <use xlink:href="#DejaVuSans-30" transform="translate(290.576172 0)"/>
       <use xlink:href="#DejaVuSans-31" transform="translate(354.199219 0)"/>
      </g>
     </g>
    </g>
    <g id="xtick_7">
     <g id="line2d_13">
      <path d="M 540.878978 320.4 
L 540.878978 43.2 
" clip-path="url(#p1237909ca1)" style="fill: none; stroke-dasharray: 5.12,1.28,0.8,1.28; stroke-dashoffset: 0; stroke: #b0b0b0; stroke-width: 0.8"/>
     </g>
     <g id="line2d_14">
      <g>
       <use xlink:href="#m719361ccb2" x="540.878978" y="320.4" style="fill: #a9a9a9; stroke: #a9a9a9; stroke-width: 0.8"/>
      </g>
     </g>
     <g id="text_7">
      <!-- 2024-07 -->
      <g style="fill: #a9a9a9" transform="translate(519.987572 334.998438) scale(0.1 -0.1)">
       <use xlink:href="#DejaVuSans-32"/>
       <use xlink:href="#DejaVuSans-30" transform="translate(63.623047 0)"/>
       <use xlink:href="#DejaVuSans-32" transform="translate(127.246094 0)"/>
       <use xlink:href="#DejaVuSans-34" transform="translate(190.869141 0)"/>
       <use xlink:href="#DejaVuSans-2d" transform="translate(254.492188 0)"/>
       <use xlink:href="#DejaVuSans-30" transform="translate(290.576172 0)"/>
       <use xlink:href="#DejaVuSans-37" transform="translate(354.199219 0)"/>
      </g>
     </g>
    </g>
    <g id="xtick_8">
     <g id="line2d_15">
      <path d="M 609.890573 320.4 
L 609.890573 43.2 
" clip-path="url(#p1237909ca1)" style="fill: none; stroke-dasharray: 5.12,1.28,0.8,1.28; stroke-dashoffset: 0; stroke: #b0b0b0; stroke-width: 0.8"/>
     </g>
     <g id="line2d_16">
      <g>
       <use xlink:href="#m719361ccb2" x="609.890573" y="320.4" style="fill: #a9a9a9; stroke: #a9a9a9; stroke-width: 0.8"/>
      </g>
     </g>
     <g id="text_8">
      <!-- 2025-01 -->
      <g style="fill: #a9a9a9" transform="translate(588.999167 334.998438) scale(0.1 -0.1)">
       <defs>
        <path id="DejaVuSans-35" d="M 691 4666 
L 3169 4666 
L 3169 4134 
L 1269 4134 
L 1269 2991 
Q 1406 3038 1543 3061 
Q 1681 3084 1819 3084 
Q 2600 3084 3056 2656 
Q 3513 2228 3513 1497 
Q 3513 744 3044 326 
Q 2575 -91 1722 -91 
Q 1428 -91 1123 -41 
Q 819 9 494 109 
L 494 744 
Q 775 591 1075 516 
Q 1375 441 1709 441 
Q 2250 441 2565 725 
Q 2881 1009 2881 1497 
Q 2881 1984 2565 2268 
Q 2250 2553 1709 2553 
Q 1456 2553 1204 2497 
Q 953 2441 691 2322 
L 691 4666 
z
" transform="scale(0.015625)"/>
       </defs>
       <use xlink:href="#DejaVuSans-32"/>
       <use xlink:href="#DejaVuSans-30" transform="translate(63.623047 0)"/>
       <use xlink:href="#DejaVuSans-32" transform="translate(127.246094 0)"/>
       <use xlink:href="#DejaVuSans-35" transform="translate(190.869141 0)"/>
       <use xlink:href="#DejaVuSans-2d" transform="translate(254.492188 0)"/>
       <use xlink:href="#DejaVuSans-30" transform="translate(290.576172 0)"/>
       <use xlink:href="#DejaVuSans-31" transform="translate(354.199219 0)"/>
      </g>
     </g>
    </g>
    <g id="xtick_9">
     <g id="line2d_17">
      <path d="M 677.776979 320.4 
L 677.776979 43.2 
" clip-path="url(#p1237909ca1)" style="fill: none; stroke-dasharray: 5.12,1.28,0.8,1.28; stroke-dashoffset: 0; stroke: #b0b0b0; stroke-width: 0.8"/>
     </g>
     <g id="line2d_18">
      <g>
       <use xlink:href="#m719361ccb2" x="677.776979" y="320.4" style="fill: #a9a9a9; stroke: #a9a9a9; stroke-width: 0.8"/>
      </g>
     </g>
     <g id="text_9">
      <!-- 2025-07 -->
      <g style="fill: #a9a9a9" transform="translate(656.885572 334.998438) scale(0.1 -0.1)">
       <use xlink:href="#DejaVuSans-32"/>
       <use xlink:href="#DejaVuSans-30" transform="translate(63.623047 0)"/>
       <use xlink:href="#DejaVuSans-32" transform="translate(127.246094 0)"/>
       <use xlink:href="#DejaVuSans-35" transform="translate(190.869141 0)"/>
       <use xlink:href="#DejaVuSans-2d" transform="translate(254.492188 0)"/>
       <use xlink:href="#DejaVuSans-30" transform="translate(290.576172 0)"/>
       <use xlink:href="#DejaVuSans-37" transform="translate(354.199219 0)"/>
      </g>
     </g>
    </g>
    <g id="xtick_10">
     <g id="line2d_19">
      <path d="M 746.788573 320.4 
L 746.788573 43.2 
" clip-path="url(#p1237909ca1)" style="fill: none; stroke-dasharray: 5.12,1.28,0.8,1.28; stroke-dashoffset: 0; stroke: #b0b0b0; stroke-width: 0.8"/>
     </g>
     <g id="line2d_20">
      <g>
       <use xlink:href="#m719361ccb2" x="746.788573" y="320.4" style="fill: #a9a9a9; stroke: #a9a9a9; stroke-width: 0.8"/>
      </g>
     </g>
     <g id="text_10">
      <!-- 2026-01 -->
      <g style="fill: #a9a9a9" transform="translate(725.897167 334.998438) scale(0.1 -0.1)">
       <defs>
        <path id="DejaVuSans-36" d="M 2113 2584 
Q 1688 2584 1439 2293 
Q 1191 2003 1191 1497 
Q 1191 994 1439 701 
Q 1688 409 2113 409 
Q 2538 409 2786 701 
Q 3034 994 3034 1497 
Q 3034 2003 2786 2293 
Q 2538 2584 2113 2584 
z
M 3366 4563 
L 3366 3988 
Q 3128 4100 2886 4159 
Q 2644 4219 2406 4219 
Q 1781 4219 1451 3797 
Q 1122 3375 1075 2522 
Q 1259 2794 1537 2939 
Q 1816 3084 2150 3084 
Q 2853 3084 3261 2657 
Q 3669 2231 3669 1497 
Q 3669 778 3244 343 
Q 2819 -91 2113 -91 
Q 1303 -91 875 529 
Q 447 1150 447 2328 
Q 447 3434 972 4092 
Q 1497 4750 2381 4750 
Q 2619 4750 2861 4703 
Q 3103 4656 3366 4563 
z
" transform="scale(0.015625)"/>
       </defs>
       <use xlink:href="#DejaVuSans-32"/>
       <use xlink:href="#DejaVuSans-30" transform="translate(63.623047 0)"/>
       <use xlink:href="#DejaVuSans-32" transform="translate(127.246094 0)"/>
       <use xlink:href="#DejaVuSans-36" transform="translate(190.869141 0)"/>
       <use xlink:href="#DejaVuSans-2d" transform="translate(254.492188 0)"/>
       <use xlink:href="#DejaVuSans-30" transform="translate(290.576172 0)"/>
       <use xlink:href="#DejaVuSans-31" transform="translate(354.199219 0)"/>
      </g>
     </g>
    </g>
   </g>
   <g id="matplotlib.axis_2">
    <g id="ytick_1">
     <g id="line2d_21">
      <path d="M 108 307.829644 
L 777.6 307.829644 
" clip-path="url(#p1237909ca1)" style="fill: none; stroke-dasharray: 5.12,1.28,0.8,1.28; stroke-dashoffset: 0; stroke: #b0b0b0; stroke-width: 0.8"/>
     </g>
     <g id="line2d_22">
      <defs>
       <path id="m2a5c3ed73f" d="M 0 0 
L -3.5 0 
" style="stroke: #a9a9a9; stroke-width: 0.8"/>
      </defs>
      <g>
       <use xlink:href="#m2a5c3ed73f" x="108" y="307.829644" style="fill: #a9a9a9; stroke: #a9a9a9; stroke-width: 0.8"/>
      </g>
     </g>
     <g id="text_11">
      <!-- 0 -->
      <g style="fill: #a9a9a9" transform="translate(94.6375 311.628862) scale(0.1 -0.1)">
       <use xlink:href="#DejaVuSans-30"/>
      </g>
     </g>
    </g>
    <g id="ytick_2">
     <g id="line2d_23">
      <path d="M 108 278.186072 
L 777.6 278.186072 
" clip-path="url(#p1237909ca1)" style="fill: none; stroke-dasharray: 5.12,1.28,0.8,1.28; stroke-dashoffset: 0; stroke: #b0b0b0; stroke-width: 0.8"/>
     </g>
     <g id="line2d_24">
      <g>
       <use xlink:href="#m2a5c3ed73f" x="108" y="278.186072" style="fill: #a9a9a9; stroke: #a9a9a9; stroke-width: 0.8"/>
      </g>
     </g>
     <g id="text_12">
      <!-- 1000 -->
      <g style="fill: #a9a9a9" transform="translate(75.55 281.985291) scale(0.1 -0.1)">
       <use xlink:href="#DejaVuSans-31"/>
       <use xlink:href="#DejaVuSans-30" transform="translate(63.623047 0)"/>
       <use xlink:href="#DejaVuSans-30" transform="translate(127.246094 0)"/>
       <use xlink:href="#DejaVuSans-30" transform="translate(190.869141 0)"/>
      </g>
     </g>
    </g>
    <g id="ytick_3">
     <g id="line2d_25">
      <path d="M 108 248.542501 
L 777.6 248.542501 
" clip-path="url(#p1237909ca1)" style="fill: none; stroke-dasharray: 5.12,1.28,0.8,1.28; stroke-dashoffset: 0; stroke: #b0b0b0; stroke-width: 0.8"/>
     </g>
     <g id="line2d_26">
      <g>
       <use xlink:href="#m2a5c3ed73f" x="108" y="248.542501" style="fill: #a9a9a9; stroke: #a9a9a9; stroke-width: 0.8"/>
      </g>
     </g>
     <g id="text_13">
      <!-- 2000 -->
      <g style="fill: #a9a9a9" transform="translate(75.55 252.34172) scale(0.1 -0.1)">
       <use xlink:href="#DejaVuSans-32"/>
       <use xlink:href="#DejaVuSans-30" transform="translate(63.623047 0)"/>
       <use xlink:href="#DejaVuSans-30" transform="translate(127.246094 0)"/>
       <use xlink:href="#DejaVuSans-30" transform="translate(190.869141 0)"/>
      </g>
     </g>
    </g>
    <g id="ytick_4">
     <g id="line2d_27">
      <path d="M 108 218.89893 
L 777.6 218.89893 
" clip-path="url(#p1237909ca1)" style="fill: none; stroke-dasharray: 5.12,1.28,0.8,1.28; stroke-dashoffset: 0; stroke: #b0b0b0; stroke-width: 0.8"/>
     </g>
     <g id="line2d_28">
      <g>
       <use xlink:href="#m2a5c3ed73f" x="108" y="218.89893" style="fill: #a9a9a9; stroke: #a9a9a9; stroke-width: 0.8"/>
      </g>
     </g>
     <g id="text_14">
      <!-- 3000 -->
      <g style="fill: #a9a9a9" transform="translate(75.55 222.698148) scale(0.1 -0.1)">
       <use xlink:href="#DejaVuSans-33"/>
       <use xlink:href="#DejaVuSans-30" transform="translate(63.623047 0)"/>
       <use xlink:href="#DejaVuSans-30" transform="translate(127.246094 0)"/>
       <use xlink:href="#DejaVuSans-30" transform="translate(190.869141 0)"/>
      </g>
     </g>
    </g>
    <g id="ytick_5">
     <g id="line2d_29">
      <path d="M 108 189.255358 
L 777.6 189.255358 
" clip-path="url(#p1237909ca1)" style="fill: none; stroke-dasharray: 5.12,1.28,0.8,1.28; stroke-dashoffset: 0; stroke: #b0b0b0; stroke-width: 0.8"/>
     </g>
     <g id="line2d_30">
      <g>
       <use xlink:href="#m2a5c3ed73f" x="108" y="189.255358" style="fill: #a9a9a9; stroke: #a9a9a9; stroke-width: 0.8"/>
      </g>
     </g>
     <g id="text_15">
      <!-- 4000 -->
      <g style="fill: #a9a9a9" transform="translate(75.55 193.054577) scale(0.1 -0.1)">
       <use xlink:href="#DejaVuSans-34"/>
       <use xlink:href="#DejaVuSans-30" transform="translate(63.623047 0)"/>
       <use xlink:href="#DejaVuSans-30" transform="translate(127.246094 0)"/>
       <use xlink:href="#DejaVuSans-30" transform="translate(190.869141 0)"/>
      </g>
     </g>
    </g>
    <g id="ytick_6">
     <g id="line2d_31">
      <path d="M 108 159.611787 
L 777.6 159.611787 
" clip-path="url(#p1237909ca1)" style="fill: none; stroke-dasharray: 5.12,1.28,0.8,1.28; stroke-dashoffset: 0; stroke: #b0b0b0; stroke-width: 0.8"/>
     </g>
     <g id="line2d_32">
      <g>
       <use xlink:href="#m2a5c3ed73f" x="108" y="159.611787" style="fill: #a9a9a9; stroke: #a9a9a9; stroke-width: 0.8"/>
      </g>
     </g>
     <g id="text_16">
      <!-- 5000 -->
      <g style="fill: #a9a9a9" transform="translate(75.55 163.411006) scale(0.1 -0.1)">
       <use xlink:href="#DejaVuSans-35"/>
       <use xlink:href="#DejaVuSans-30" transform="translate(63.623047 0)"/>
       <use xlink:href="#DejaVuSans-30" transform="translate(127.246094 0)"/>
       <use xlink:href="#DejaVuSans-30" transform="translate(190.869141 0)"/>
      </g>
     </g>
    </g>
    <g id="ytick_7">
     <g id="line2d_33">
      <path d="M 108 129.968216 
L 777.6 129.968216 
" clip-path="url(#p1237909ca1)" style="fill: none; stroke-dasharray: 5.12,1.28,0.8,1.28; stroke-dashoffset: 0; stroke: #b0b0b0; stroke-width: 0.8"/>
     </g>
     <g id="line2d_34">
      <g>
       <use xlink:href="#m2a5c3ed73f" x="108" y="129.968216" style="fill: #a9a9a9; stroke: #a9a9a9; stroke-width: 0.8"/>
      </g>
     </g>
     <g id="text_17">
      <!-- 6000 -->
      <g style="fill: #a9a9a9" transform="translate(75.55 133.767434) scale(0.1 -0.1)">
       <use xlink:href="#DejaVuSans-36"/>
       <use xlink:href="#DejaVuSans-30" transform="translate(63.623047 0)"/>
       <use xlink:href="#DejaVuSans-30" transform="translate(127.246094 0)"/>
       <use xlink:href="#DejaVuSans-30" transform="translate(190.869141 0)"/>
      </g>
     </g>
    </g>
    <g id="ytick_8">
     <g id="line2d_35">
      <path d="M 108 100.324644 
L 777.6 100.324644 
" clip-path="url(#p1237909ca1)" style="fill: none; stroke-dasharray: 5.12,1.28,0.8,1.28; stroke-dashoffset: 0; stroke: #b0b0b0; stroke-width: 0.8"/>
     </g>
     <g id="line2d_36">
      <g>
       <use xlink:href="#m2a5c3ed73f" x="108" y="100.324644" style="fill: #a9a9a9; stroke: #a9a9a9; stroke-width: 0.8"/>
      </g>
     </g>
     <g id="text_18">
      <!-- 7000 -->
      <g style="fill: #a9a9a9" transform="translate(75.55 104.123863) scale(0.1 -0.1)">
       <use xlink:href="#DejaVuSans-37"/>
       <use xlink:href="#DejaVuSans-30" transform="translate(63.623047 0)"/>
       <use xlink:href="#DejaVuSans-30" transform="translate(127.246094 0)"/>
       <use xlink:href="#DejaVuSans-30" transform="translate(190.869141 0)"/>
      </g>
     </g>
    </g>
    <g id="ytick_9">
     <g id="line2d_37">
      <path d="M 108 70.681073 
L 777.6 70.681073 
" clip-path="url(#p1237909ca1)" style="fill: none; stroke-dasharray: 5.12,1.28,0.8,1.28; stroke-dashoffset: 0; stroke: #b0b0b0; stroke-width: 0.8"/>
     </g>
     <g id="line2d_38">
      <g>
       <use xlink:href="#m2a5c3ed73f" x="108" y="70.681073" style="fill: #a9a9a9; stroke: #a9a9a9; stroke-width: 0.8"/>
      </g>
     </g>
     <g id="text_19">
      <!-- 8000 -->
      <g style="fill: #a9a9a9" transform="translate(75.55 74.480292) scale(0.1 -0.1)">
       <defs>
        <path id="DejaVuSans-38" d="M 2034 2216 
Q 1584 2216 1326 1975 
Q 1069 1734 1069 1313 
Q 1069 891 1326 650 
Q 1584 409 2034 409 
Q 2484 409 2743 651 
Q 3003 894 3003 1313 
Q 3003 1734 2745 1975 
Q 2488 2216 2034 2216 
z
M 1403 2484 
Q 997 2584 770 2862 
Q 544 3141 544 3541 
Q 544 4100 942 4425 
Q 1341 4750 2034 4750 
Q 2731 4750 3128 4425 
Q 3525 4100 3525 3541 
Q 3525 3141 3298 2862 
Q 3072 2584 2669 2484 
Q 3125 2378 3379 2068 
Q 3634 1759 3634 1313 
Q 3634 634 3220 271 
Q 2806 -91 2034 -91 
Q 1263 -91 848 271 
Q 434 634 434 1313 
Q 434 1759 690 2068 
Q 947 2378 1403 2484 
z
M 1172 3481 
Q 1172 3119 1398 2916 
Q 1625 2713 2034 2713 
Q 2441 2713 2670 2916 
Q 2900 3119 2900 3481 
Q 2900 3844 2670 4047 
Q 2441 4250 2034 4250 
Q 1625 4250 1398 4047 
Q 1172 3844 1172 3481 
z
" transform="scale(0.015625)"/>
       </defs>
       <use xlink:href="#DejaVuSans-38"/>
       <use xlink:href="#DejaVuSans-30" transform="translate(63.623047 0)"/>
       <use xlink:href="#DejaVuSans-30" transform="translate(127.246094 0)"/>
       <use xlink:href="#DejaVuSans-30" transform="translate(190.869141 0)"/>
      </g>
     </g>
    </g>
   </g>
   <g id="line2d_39">
    <path d="M 138.436364 307.740713 
L 140.686742 307.533208 
L 141.061805 307.355346 
L 142.562057 307.147841 
L 144.062309 306.821762 
L 144.812435 306.703188 
L 146.68775 306.525326 
L 147.437876 306.228891 
L 147.812939 305.695306 
L 148.188002 305.428514 
L 148.563065 304.539207 
L 148.938128 304.47992 
L 149.688254 304.005623 
L 150.43838 303.442395 
L 151.938632 302.315939 
L 152.313695 302.167721 
L 153.063821 301.693424 
L 154.18901 301.130196 
L 154.564073 300.478038 
L 155.314199 299.885166 
L 156.064325 299.648018 
L 157.189514 299.470156 
L 159.439892 299.114434 
L 159.814955 298.936572 
L 162.440397 298.699424 
L 163.940649 298.314057 
L 166.941153 297.869404 
L 167.316216 297.661899 
L 167.691279 297.602611 
L 168.441405 297.335819 
L 171.066846 296.861522 
L 171.816972 296.624374 
L 175.192539 296.031502 
L 175.942665 295.853641 
L 177.442917 295.646136 
L 178.193043 295.408987 
L 178.568106 294.845759 
L 179.693295 294.371462 
L 180.818484 294.045383 
L 181.193547 293.837878 
L 181.943673 293.68966 
L 183.443925 293.215363 
L 184.194051 293.156076 
L 184.944177 292.948571 
L 186.44443 292.533561 
L 186.819493 292.503917 
L 187.569619 292.118551 
L 187.944682 292.059264 
L 188.319745 291.851759 
L 192.445438 291.140313 
L 193.94569 290.666016 
L 194.320753 290.399224 
L 196.196068 289.747065 
L 196.946194 289.183837 
L 198.071383 288.946689 
L 202.947202 287.46451 
L 203.322265 287.405223 
L 204.822517 286.782708 
L 205.19758 286.723421 
L 205.947706 286.397341 
L 206.697832 286.367698 
L 207.823021 286.011975 
L 208.198084 286.011975 
L 208.573147 285.834114 
L 209.323273 285.745183 
L 209.698336 285.596965 
L 211.573651 285.508034 
L 211.948715 285.419104 
L 212.698841 285.004094 
L 213.82403 284.589084 
L 214.574156 284.174074 
L 215.699345 283.670133 
L 217.199597 282.8994 
L 217.57466 282.454747 
L 218.324786 281.209717 
L 218.699849 281.091142 
L 219.074912 281.091142 
L 220.575164 280.231479 
L 220.950227 280.142548 
L 221.32529 279.757182 
L 222.075416 279.431102 
L 222.825542 279.075379 
L 225.07592 276.377814 
L 225.450983 276.25924 
L 227.326298 274.954923 
L 228.076424 274.421339 
L 228.451487 273.858111 
L 228.82655 272.93916 
L 229.201613 272.346289 
L 229.576676 272.020209 
L 229.951739 271.842348 
L 234.452495 267.662604 
L 235.952747 266.71401 
L 236.702873 266.299 
L 238.203126 265.439337 
L 240.078441 263.601435 
L 240.828567 263.275356 
L 241.578693 262.741772 
L 241.953756 262.504623 
L 242.328819 262.445336 
L 243.454008 261.763534 
L 243.829071 261.31888 
L 245.704386 260.222068 
L 246.079449 260.07385 
L 247.204638 259.24383 
L 252.830583 257.109493 
L 253.580709 256.368404 
L 254.705898 255.775532 
L 255.456024 255.271592 
L 256.20615 255.034443 
L 256.581213 254.767651 
L 256.956276 254.649077 
L 258.081465 253.8487 
L 259.95678 253.404047 
L 261.081969 252.692601 
L 262.207158 252.425809 
L 262.582221 252.336878 
L 263.707411 251.477214 
L 265.207663 251.032561 
L 265.582726 250.736125 
L 267.833104 249.906105 
L 268.58323 249.757887 
L 269.333356 249.431808 
L 271.958797 248.423927 
L 272.708923 248.334996 
L 273.834112 247.919986 
L 275.709427 246.941748 
L 277.959805 245.607787 
L 278.709931 245.400282 
L 279.83512 244.807411 
L 280.585246 244.659193 
L 281.335372 244.184896 
L 282.085498 243.977391 
L 283.210687 243.503094 
L 284.710939 243.295589 
L 285.461065 242.880579 
L 285.836128 242.524856 
L 286.211191 241.81341 
L 287.711443 241.368757 
L 289.211696 240.657311 
L 292.587263 239.086202 
L 293.337389 238.90834 
L 294.462578 238.315469 
L 294.837641 238.256182 
L 296.712956 237.277944 
L 297.463082 236.774003 
L 298.588271 236.536854 
L 301.213712 235.647547 
L 307.21472 232.772121 
L 307.589783 232.357111 
L 307.964846 232.119962 
L 308.339909 232.031032 
L 309.090035 231.378873 
L 309.465098 231.319586 
L 309.840161 230.667427 
L 310.215224 230.51921 
L 310.590287 230.19313 
L 310.96535 230.133843 
L 311.715476 229.629902 
L 312.465602 229.36311 
L 312.840665 229.066675 
L 313.590791 228.651665 
L 314.715981 227.940219 
L 315.84117 227.347347 
L 316.591296 227.139842 
L 317.341422 226.695189 
L 317.716485 226.013387 
L 318.466611 225.420515 
L 318.841674 225.331585 
L 321.092052 224.205129 
L 321.842178 223.87905 
L 322.592304 223.315822 
L 323.34243 222.515445 
L 325.217745 221.06291 
L 325.967871 220.440395 
L 326.342934 220.262534 
L 327.09306 219.462157 
L 328.218249 218.89893 
L 328.968375 218.454276 
L 329.343438 218.335702 
L 329.718501 218.039266 
L 330.093564 217.979979 
L 333.469131 216.201365 
L 334.219257 215.99386 
L 335.719509 215.460275 
L 336.094572 215.134196 
L 337.594824 214.511681 
L 337.969887 214.393107 
L 338.720013 213.889166 
L 339.470139 213.563087 
L 340.220266 212.999859 
L 340.970392 211.42875 
L 341.720518 210.539442 
L 342.845707 209.916927 
L 343.595833 209.590848 
L 343.970896 209.531561 
L 344.721022 209.175838 
L 346.221274 208.642254 
L 346.9714 208.1976 
L 347.721526 207.841877 
L 348.096589 207.723303 
L 350.346967 206.300412 
L 350.72203 205.855758 
L 351.847219 205.173956 
L 352.222282 205.025738 
L 352.972408 204.551441 
L 354.47266 203.691777 
L 354.847723 203.602847 
L 355.222786 203.276767 
L 357.848227 202.38746 
L 358.22329 202.120668 
L 358.973416 201.88352 
L 361.97392 200.401341 
L 362.724046 199.986331 
L 363.099109 199.80847 
L 363.849235 199.185955 
L 364.599361 198.97845 
L 364.974424 198.622727 
L 365.349487 198.56344 
L 366.099614 197.970568 
L 367.974929 196.814469 
L 368.725055 196.57732 
L 369.100118 196.340172 
L 369.475181 196.280885 
L 370.975433 195.539795 
L 372.100622 195.154429 
L 372.850748 195.035855 
L 374.351 194.442983 
L 374.726063 194.41334 
L 376.601378 193.553676 
L 377.351504 193.020092 
L 378.10163 192.605082 
L 379.601882 191.863992 
L 380.727071 191.09326 
L 381.477197 190.915398 
L 382.602386 190.203952 
L 383.727575 189.788942 
L 384.477701 189.52215 
L 385.977953 188.988566 
L 386.728079 188.721774 
L 388.228331 188.395695 
L 388.978457 188.158546 
L 390.853772 187.506387 
L 391.978962 187.150665 
L 392.729088 186.972803 
L 394.979466 186.557793 
L 395.729592 186.409575 
L 396.854781 186.142783 
L 397.229844 185.964922 
L 397.97997 185.816704 
L 398.730096 185.609199 
L 399.480222 185.253476 
L 399.855285 185.105258 
L 400.230348 185.105258 
L 404.356041 183.771297 
L 404.731104 183.563792 
L 405.106167 183.563792 
L 405.856293 183.267357 
L 406.231356 182.852347 
L 408.481734 181.874109 
L 409.981986 181.340525 
L 410.357049 181.103376 
L 411.482238 180.747653 
L 412.232364 180.540148 
L 412.607427 180.273356 
L 412.98249 180.184425 
L 413.357553 179.858346 
L 414.482742 179.621198 
L 415.232868 179.265475 
L 415.607931 178.791178 
L 419.733625 177.842583 
L 420.108688 177.842583 
L 420.858814 177.605435 
L 424.234381 176.745771 
L 424.984507 176.56791 
L 428.735137 175.471098 
L 429.1102 175.382167 
L 429.485263 175.174662 
L 430.235389 174.967157 
L 430.985515 174.641078 
L 431.735641 174.344642 
L 432.110704 174.07785 
L 432.86083 173.840701 
L 435.861334 172.773533 
L 436.61146 172.714245 
L 438.111712 172.269592 
L 438.486775 172.032443 
L 439.236901 171.795295 
L 441.487279 170.8467 
L 445.988036 169.18666 
L 447.863351 168.534502 
L 448.613477 168.297353 
L 449.363603 168.089848 
L 450.863855 166.815175 
L 453.489296 165.659075 
L 456.114737 164.502976 
L 456.864863 164.295471 
L 460.24043 162.605788 
L 460.990556 162.161134 
L 464.366123 160.501094 
L 464.741186 160.204658 
L 469.241943 158.485331 
L 469.992069 158.366757 
L 470.367132 158.099965 
L 471.867384 157.803529 
L 472.61751 157.47745 
L 474.492825 156.558499 
L 479.368644 154.335231 
L 480.493833 153.949865 
L 480.868896 153.683073 
L 481.619022 153.594142 
L 481.994085 153.32735 
L 482.744211 153.208775 
L 487.62003 151.400518 
L 488.745219 151.133725 
L 490.245471 150.481567 
L 490.995597 150.066557 
L 492.495849 149.26618 
L 493.245975 149.088319 
L 493.621038 148.85117 
L 493.996101 148.76224 
L 495.871417 147.813645 
L 500.747236 145.9461 
L 501.122299 145.886813 
L 502.622551 145.145724 
L 503.372677 144.997506 
L 504.122803 144.552853 
L 505.623055 143.811763 
L 512.374189 141.173485 
L 513.874441 139.869168 
L 514.249504 139.750594 
L 514.624567 139.513445 
L 515.749756 139.187366 
L 516.124819 138.89093 
L 516.874945 138.624138 
L 518.000134 137.853405 
L 518.75026 137.6459 
L 519.500386 137.23089 
L 520.625576 136.964098 
L 526.626584 134.474038 
L 528.501899 133.703305 
L 530.377214 133.110434 
L 531.502403 132.369345 
L 531.877466 132.280414 
L 532.627592 131.895048 
L 533.377718 131.657899 
L 533.752781 131.302176 
L 534.87797 130.857523 
L 535.253033 130.798236 
L 536.753285 130.08679 
L 537.878474 129.731067 
L 539.003663 129.316057 
L 540.128852 128.989978 
L 540.503915 128.930691 
L 541.254041 128.515681 
L 541.629104 128.367463 
L 542.004167 128.071027 
L 543.129356 127.774591 
L 543.879482 127.478156 
L 544.629608 127.152076 
L 546.129861 126.529561 
L 548.755302 125.818116 
L 549.505428 125.52168 
L 551.00568 125.225244 
L 551.755806 125.077026 
L 552.880995 124.632373 
L 554.006184 124.395224 
L 556.256562 123.03162 
L 557.381751 122.349818 
L 559.632129 121.638372 
L 560.007192 121.341936 
L 563.007696 120.245124 
L 564.132885 119.889401 
L 564.883011 119.474391 
L 565.633137 119.266886 
L 566.0082 119.059381 
L 566.758326 118.911163 
L 568.258578 118.318292 
L 569.008704 117.814351 
L 570.133893 117.517916 
L 571.259083 116.747183 
L 571.634146 116.687896 
L 573.134398 116.065381 
L 574.63465 115.680014 
L 575.009713 115.620727 
L 575.384776 115.442866 
L 576.134902 115.294648 
L 579.510469 114.257123 
L 580.260595 113.664251 
L 581.760847 112.804588 
L 582.13591 112.715657 
L 582.510973 112.508152 
L 582.886036 112.448865 
L 586.261603 110.759181 
L 586.636666 110.433102 
L 588.511981 109.958805 
L 589.63717 109.454864 
L 590.387296 109.247359 
L 590.762359 109.069498 
L 591.137422 108.743418 
L 593.012737 108.061616 
L 597.888557 106.223715 
L 598.638683 106.075497 
L 600.513998 105.452982 
L 601.639187 104.949041 
L 604.264628 104.148665 
L 605.014754 103.704011 
L 617.766896 99.761416 
L 618.517022 99.553911 
L 619.642211 99.138901 
L 620.017274 99.138901 
L 621.142463 98.872109 
L 621.892589 98.723891 
L 622.642716 98.516386 
L 623.767905 97.893871 
L 624.893094 97.538148 
L 627.518535 96.648841 
L 629.018787 95.878108 
L 630.143976 95.611316 
L 630.894102 95.374168 
L 631.644228 94.988801 
L 632.019291 94.662722 
L 632.769417 94.425573 
L 633.14448 94.188425 
L 633.894606 94.099494 
L 636.520047 93.328761 
L 637.645236 93.091613 
L 638.770425 92.795177 
L 639.520551 92.617316 
L 640.64574 92.024444 
L 645.521559 90.156899 
L 646.271685 90.038325 
L 647.021811 89.890107 
L 647.396874 89.890107 
L 648.522064 89.534384 
L 649.647253 89.178661 
L 653.02282 88.200423 
L 653.397883 88.17078 
L 655.273198 87.548265 
L 656.023324 87.459334 
L 656.398387 87.251829 
L 656.77345 87.222186 
L 657.898639 86.688601 
L 659.023828 86.421809 
L 659.773954 86.09573 
L 662.024332 85.295353 
L 662.399395 85.236066 
L 663.149521 84.969274 
L 667.650277 83.813175 
L 669.900655 83.042442 
L 670.650781 82.983155 
L 672.901159 82.419927 
L 673.651285 82.093848 
L 674.026349 82.034561 
L 674.401412 81.856699 
L 675.151538 81.204541 
L 678.902168 79.811293 
L 681.152546 79.218421 
L 681.902672 78.803411 
L 682.277735 78.714481 
L 683.402924 78.091966 
L 683.777987 78.003035 
L 684.15305 77.706599 
L 685.278239 77.38052 
L 691.279247 74.653311 
L 691.65431 74.594024 
L 693.904688 73.437925 
L 694.279751 73.200776 
L 695.40494 72.874697 
L 696.905192 72.252182 
L 697.280255 72.222539 
L 699.15557 71.511093 
L 699.905697 71.362875 
L 700.655823 70.799647 
L 701.030886 70.799647 
L 702.531138 70.266063 
L 704.03139 69.969627 
L 705.531642 69.317469 
L 705.906705 69.317469 
L 707.031894 68.932102 
L 707.78202 68.813528 
L 708.907209 68.161369 
L 709.657335 67.776003 
L 711.53265 67.153488 
L 712.282776 66.827409 
L 714.158091 66.323468 
L 716.408469 65.700953 
L 720.909225 64.366992 
L 723.909729 63.596259 
L 725.409982 62.884814 
L 726.535171 62.529091 
L 729.160612 61.995506 
L 729.910738 61.876932 
L 731.035927 61.432279 
L 732.161116 61.017269 
L 732.911242 60.898694 
L 734.411494 60.394754 
L 734.786557 60.394754 
L 735.16162 60.098318 
L 735.911746 59.861169 
L 736.286809 59.861169 
L 739.662376 58.734714 
L 741.162628 58.082555 
L 741.537691 58.023268 
L 742.287817 57.667545 
L 743.037943 57.341466 
L 743.788069 57.015386 
L 744.538195 56.718951 
L 744.913258 56.481802 
L 745.288321 56.422515 
L 746.038447 56.037149 
L 746.788573 55.8 
L 747.163636 55.8 
L 747.163636 55.8 
" clip-path="url(#p1237909ca1)" style="fill: none; stroke: #1f77b4; stroke-width: 1.5; stroke-linecap: square"/>
   </g>
   <g id="line2d_40">
    <path d="M 138.811427 307.8 
L 142.186994 307.711069 
L 145.187498 307.562851 
L 146.68775 307.562851 
L 147.062813 307.444277 
L 148.938128 307.355346 
L 151.188506 307.088554 
L 153.438884 306.999624 
L 154.18901 306.910693 
L 156.814451 306.792119 
L 159.439892 306.703188 
L 161.315208 306.643901 
L 166.191027 306.55497 
L 168.066342 306.495683 
L 171.441909 306.406752 
L 172.942161 306.377109 
L 176.692791 306.288178 
L 178.193043 306.13996 
L 179.693295 306.110316 
L 181.943673 306.021386 
L 183.443925 305.991742 
L 185.31924 305.932455 
L 186.819493 305.784237 
L 190.19506 305.695306 
L 190.945186 305.636019 
L 192.445438 305.547089 
L 194.695816 305.458158 
L 196.196068 305.369227 
L 202.947202 304.924574 
L 205.572643 304.835643 
L 206.697832 304.717069 
L 208.573147 304.628138 
L 212.323778 304.420633 
L 216.074408 304.361346 
L 217.57466 304.183484 
L 219.449975 304.094554 
L 223.200605 303.709187 
L 225.450983 303.412751 
L 226.951235 303.353464 
L 229.951739 302.938454 
L 232.202117 302.879167 
L 233.327306 302.760593 
L 234.452495 302.671662 
L 253.955772 301.219127 
L 256.581213 301.130196 
L 258.081465 300.952335 
L 259.95678 300.863404 
L 262.207158 300.774474 
L 264.082474 300.685543 
L 265.582726 300.655899 
L 267.458041 300.596612 
L 268.208167 300.507681 
L 273.459049 300.418751 
L 274.209175 300.32982 
L 278.709931 300.240889 
L 282.085498 300.063028 
L 284.710939 299.974097 
L 286.211191 299.796236 
L 288.836632 299.707305 
L 289.586759 299.588731 
L 291.462074 299.529444 
L 295.212704 299.470156 
L 296.712956 299.321939 
L 298.213208 299.292295 
L 299.338397 299.203364 
L 300.838649 299.055146 
L 304.589279 298.847641 
L 308.339909 298.758711 
L 311.715476 298.580849 
L 312.840665 298.551206 
L 313.590791 298.432631 
L 315.466107 298.343701 
L 316.216233 298.284414 
L 318.091548 298.195483 
L 319.5918 298.165839 
L 322.217241 298.076909 
L 331.968879 297.395106 
L 334.219257 297.306176 
L 336.094572 297.246889 
L 341.345455 297.157958 
L 342.095581 297.069027 
L 347.346463 296.980096 
L 351.097093 296.772591 
L 351.847219 296.742948 
L 352.597345 296.654017 
L 354.47266 296.565086 
L 356.347975 296.505799 
L 358.22329 296.416869 
L 360.098605 296.357581 
L 363.474172 296.268651 
L 365.72455 296.17972 
L 370.975433 296.090789 
L 375.101126 295.853641 
L 376.601378 295.794354 
L 377.726567 295.705423 
L 382.977449 295.616492 
L 385.227827 295.527561 
L 391.978962 295.438631 
L 393.479214 295.408987 
L 397.97997 295.3497 
L 398.730096 295.290413 
L 403.980978 295.201482 
L 405.48123 295.171839 
L 415.232868 295.082908 
L 417.483247 294.993977 
L 433.235893 294.905046 
L 435.111208 294.845759 
L 444.862847 294.786472 
L 445.612973 294.727185 
L 447.488288 294.667898 
L 448.613477 294.549324 
L 450.863855 294.460393 
L 453.489296 294.341819 
L 456.864863 294.252888 
L 458.740178 294.193601 
L 461.365619 294.10467 
L 464.366123 293.956452 
L 466.241438 293.867521 
L 467.74169 293.837878 
L 474.117762 293.748947 
L 476.36814 293.660016 
L 480.493833 293.571086 
L 483.119274 293.452511 
L 485.744715 293.393224 
L 486.494841 293.333937 
L 495.496354 293.245006 
L 499.246984 293.037501 
L 501.872425 292.948571 
L 505.998118 292.711422 
L 508.623559 292.622491 
L 510.123811 292.592848 
L 512.749252 292.503917 
L 514.624567 292.296412 
L 518.375197 292.207481 
L 519.125323 292.118551 
L 522.875954 292.02962 
L 524.751269 291.970333 
L 528.876962 291.940689 
L 529.627088 291.851759 
L 533.752781 291.762828 
L 534.502907 291.703541 
L 542.754293 291.61461 
L 545.004671 291.525679 
L 550.630617 291.436749 
L 552.130869 291.407105 
L 555.506436 291.347818 
L 556.256562 291.258887 
L 561.132381 291.169956 
L 563.007696 291.110669 
L 569.75883 291.021739 
L 570.884019 290.932808 
L 572.009209 290.843877 
L 573.134398 290.754946 
L 578.760343 290.666016 
L 581.010721 290.577085 
L 591.887548 290.488154 
L 595.263115 290.310293 
L 600.513998 290.221362 
L 602.01425 290.191719 
L 606.515006 290.102788 
L 608.390321 290.043501 
L 616.266644 289.95457 
L 618.892085 289.835996 
L 625.64322 289.747065 
L 627.143472 289.717421 
L 630.894102 289.628491 
L 633.519543 289.509916 
L 637.645236 289.420986 
L 640.270677 289.302411 
L 643.646244 289.243124 
L 644.39637 289.183837 
L 652.647757 289.094906 
L 654.898135 289.005976 
L 657.523576 288.917045 
L 659.398891 288.857758 
L 670.275718 288.768827 
L 672.526096 288.679896 
L 678.527105 288.590966 
L 680.777483 288.502035 
L 685.653302 288.413104 
L 687.90368 288.324174 
L 690.904184 288.235243 
L 693.154562 288.146312 
L 708.157083 288.057381 
L 711.157587 287.909164 
L 719.784036 287.820233 
L 721.284288 287.790589 
L 730.285801 287.701659 
L 732.161116 287.642371 
L 744.163132 287.553441 
L 745.663384 287.523797 
L 747.163636 287.523797 
L 747.163636 287.523797 
" clip-path="url(#p1237909ca1)" style="fill: none; stroke: #ff7f0e; stroke-width: 1.5; stroke-linecap: square"/>
   </g>
   <g id="patch_3">
    <path d="M 108 320.4 
L 108 43.2 
" style="fill: none; stroke: #a9a9a9; stroke-width: 0.8; stroke-linejoin: miter; stroke-linecap: square"/>
   </g>
   <g id="patch_4">
    <path d="M 777.6 320.4 
L 777.6 43.2 
" style="fill: none"/>
   </g>
   <g id="patch_5">
    <path d="M 108 320.4 
L 777.6 320.4 
" style="fill: none; stroke: #a9a9a9; stroke-width: 0.8; stroke-linejoin: miter; stroke-linecap: square"/>
   </g>
   <g id="patch_6">
    <path d="M 108 43.2 
L 777.6 43.2 
" style="fill: none"/>
   </g>
   <g id="text_20">
    <!-- get_subscribe history -->
    <g style="fill: #a9a9a9" transform="translate(378.6075 37.2) scale(0.12 -0.12)">
     <defs>
      <path id="DejaVuSans-67" d="M 2906 1791 
Q 2906 2416 2648 2759 
Q 2391 3103 1925 3103 
Q 1463 3103 1205 2759 
Q 947 2416 947 1791 
Q 947 1169 1205 825 
Q 1463 481 1925 481 
Q 2391 481 2648 825 
Q 2906 1169 2906 1791 
z
M 3481 434 
Q 3481 -459 3084 -895 
Q 2688 -1331 1869 -1331 
Q 1566 -1331 1297 -1286 
Q 1028 -1241 775 -1147 
L 775 -588 
Q 1028 -725 1275 -790 
Q 1522 -856 1778 -856 
Q 2344 -856 2625 -561 
Q 2906 -266 2906 331 
L 2906 616 
Q 2728 306 2450 153 
Q 2172 0 1784 0 
Q 1141 0 747 490 
Q 353 981 353 1791 
Q 353 2603 747 3093 
Q 1141 3584 1784 3584 
Q 2172 3584 2450 3431 
Q 2728 3278 2906 2969 
L 2906 3500 
L 3481 3500 
L 3481 434 
z
" transform="scale(0.015625)"/>
      <path id="DejaVuSans-65" d="M 3597 1894 
L 3597 1613 
L 953 1613 
Q 991 1019 1311 708 
Q 1631 397 2203 397 
Q 2534 397 2845 478 
Q 3156 559 3463 722 
L 3463 178 
Q 3153 47 2828 -22 
Q 2503 -91 2169 -91 
Q 1331 -91 842 396 
Q 353 884 353 1716 
Q 353 2575 817 3079 
Q 1281 3584 2069 3584 
Q 2775 3584 3186 3129 
Q 3597 2675 3597 1894 
z
M 3022 2063 
Q 3016 2534 2758 2815 
Q 2500 3097 2075 3097 
Q 1594 3097 1305 2825 
Q 1016 2553 972 2059 
L 3022 2063 
z
" transform="scale(0.015625)"/>
      <path id="DejaVuSans-74" d="M 1172 4494 
L 1172 3500 
L 2356 3500 
L 2356 3053 
L 1172 3053 
L 1172 1153 
Q 1172 725 1289 603 
Q 1406 481 1766 481 
L 2356 481 
L 2356 0 
L 1766 0 
Q 1100 0 847 248 
Q 594 497 594 1153 
L 594 3053 
L 172 3053 
L 172 3500 
L 594 3500 
L 594 4494 
L 1172 4494 
z
" transform="scale(0.015625)"/>
      <path id="DejaVuSans-5f" d="M 3263 -1063 
L 3263 -1509 
L -63 -1509 
L -63 -1063 
L 3263 -1063 
z
" transform="scale(0.015625)"/>
      <path id="DejaVuSans-73" d="M 2834 3397 
L 2834 2853 
Q 2591 2978 2328 3040 
Q 2066 3103 1784 3103 
Q 1356 3103 1142 2972 
Q 928 2841 928 2578 
Q 928 2378 1081 2264 
Q 1234 2150 1697 2047 
L 1894 2003 
Q 2506 1872 2764 1633 
Q 3022 1394 3022 966 
Q 3022 478 2636 193 
Q 2250 -91 1575 -91 
Q 1294 -91 989 -36 
Q 684 19 347 128 
L 347 722 
Q 666 556 975 473 
Q 1284 391 1588 391 
Q 1994 391 2212 530 
Q 2431 669 2431 922 
Q 2431 1156 2273 1281 
Q 2116 1406 1581 1522 
L 1381 1569 
Q 847 1681 609 1914 
Q 372 2147 372 2553 
Q 372 3047 722 3315 
Q 1072 3584 1716 3584 
Q 2034 3584 2315 3537 
Q 2597 3491 2834 3397 
z
" transform="scale(0.015625)"/>
      <path id="DejaVuSans-75" d="M 544 1381 
L 544 3500 
L 1119 3500 
L 1119 1403 
Q 1119 906 1312 657 
Q 1506 409 1894 409 
Q 2359 409 2629 706 
Q 2900 1003 2900 1516 
L 2900 3500 
L 3475 3500 
L 3475 0 
L 2900 0 
L 2900 538 
Q 2691 219 2414 64 
Q 2138 -91 1772 -91 
Q 1169 -91 856 284 
Q 544 659 544 1381 
z
M 1991 3584 
L 1991 3584 
z
" transform="scale(0.015625)"/>
      <path id="DejaVuSans-62" d="M 3116 1747 
Q 3116 2381 2855 2742 
Q 2594 3103 2138 3103 
Q 1681 3103 1420 2742 
Q 1159 2381 1159 1747 
Q 1159 1113 1420 752 
Q 1681 391 2138 391 
Q 2594 391 2855 752 
Q 3116 1113 3116 1747 
z
M 1159 2969 
Q 1341 3281 1617 3432 
Q 1894 3584 2278 3584 
Q 2916 3584 3314 3078 
Q 3713 2572 3713 1747 
Q 3713 922 3314 415 
Q 2916 -91 2278 -91 
Q 1894 -91 1617 61 
Q 1341 213 1159 525 
L 1159 0 
L 581 0 
L 581 4863 
L 1159 4863 
L 1159 2969 
z
" transform="scale(0.015625)"/>
      <path id="DejaVuSans-63" d="M 3122 3366 
L 3122 2828 
Q 2878 2963 2633 3030 
Q 2388 3097 2138 3097 
Q 1578 3097 1268 2742 
Q 959 2388 959 1747 
Q 959 1106 1268 751 
Q 1578 397 2138 397 
Q 2388 397 2633 464 
Q 2878 531 3122 666 
L 3122 134 
Q 2881 22 2623 -34 
Q 2366 -91 2075 -91 
Q 1284 -91 818 406 
Q 353 903 353 1747 
Q 353 2603 823 3093 
Q 1294 3584 2113 3584 
Q 2378 3584 2631 3529 
Q 2884 3475 3122 3366 
z
" transform="scale(0.015625)"/>
      <path id="DejaVuSans-72" d="M 2631 2963 
Q 2534 3019 2420 3045 
Q 2306 3072 2169 3072 
Q 1681 3072 1420 2755 
Q 1159 2438 1159 1844 
L 1159 0 
L 581 0 
L 581 3500 
L 1159 3500 
L 1159 2956 
Q 1341 3275 1631 3429 
Q 1922 3584 2338 3584 
Q 2397 3584 2469 3576 
Q 2541 3569 2628 3553 
L 2631 2963 
z
" transform="scale(0.015625)"/>
      <path id="DejaVuSans-69" d="M 603 3500 
L 1178 3500 
L 1178 0 
L 603 0 
L 603 3500 
z
M 603 4863 
L 1178 4863 
L 1178 4134 
L 603 4134 
L 603 4863 
z
" transform="scale(0.015625)"/>
      <path id="DejaVuSans-20" transform="scale(0.015625)"/>
      <path id="DejaVuSans-68" d="M 3513 2113 
L 3513 0 
L 2938 0 
L 2938 2094 
Q 2938 2591 2744 2837 
Q 2550 3084 2163 3084 
Q 1697 3084 1428 2787 
Q 1159 2491 1159 1978 
L 1159 0 
L 581 0 
L 581 4863 
L 1159 4863 
L 1159 2956 
Q 1366 3272 1645 3428 
Q 1925 3584 2291 3584 
Q 2894 3584 3203 3211 
Q 3513 2838 3513 2113 
z
" transform="scale(0.015625)"/>
      <path id="DejaVuSans-6f" d="M 1959 3097 
Q 1497 3097 1228 2736 
Q 959 2375 959 1747 
Q 959 1119 1226 758 
Q 1494 397 1959 397 
Q 2419 397 2687 759 
Q 2956 1122 2956 1747 
Q 2956 2369 2687 2733 
Q 2419 3097 1959 3097 
z
M 1959 3584 
Q 2709 3584 3137 3096 
Q 3566 2609 3566 1747 
Q 3566 888 3137 398 
Q 2709 -91 1959 -91 
Q 1206 -91 779 398 
Q 353 888 353 1747 
Q 353 2609 779 3096 
Q 1206 3584 1959 3584 
z
" transform="scale(0.015625)"/>
      <path id="DejaVuSans-79" d="M 2059 -325 
Q 1816 -950 1584 -1140 
Q 1353 -1331 966 -1331 
L 506 -1331 
L 506 -850 
L 844 -850 
Q 1081 -850 1212 -737 
Q 1344 -625 1503 -206 
L 1606 56 
L 191 3500 
L 800 3500 
L 1894 763 
L 2988 3500 
L 3597 3500 
L 2059 -325 
z
" transform="scale(0.015625)"/>
     </defs>
     <use xlink:href="#DejaVuSans-67"/>
     <use xlink:href="#DejaVuSans-65" transform="translate(63.476562 0)"/>
     <use xlink:href="#DejaVuSans-74" transform="translate(125 0)"/>
     <use xlink:href="#DejaVuSans-5f" transform="translate(164.208984 0)"/>
     <use xlink:href="#DejaVuSans-73" transform="translate(214.208984 0)"/>
     <use xlink:href="#DejaVuSans-75" transform="translate(266.308594 0)"/>
     <use xlink:href="#DejaVuSans-62" transform="translate(329.6875 0)"/>
     <use xlink:href="#DejaVuSans-73" transform="translate(393.164062 0)"/>
     <use xlink:href="#DejaVuSans-63" transform="translate(445.263672 0)"/>
     <use xlink:href="#DejaVuSans-72" transform="translate(500.244141 0)"/>
     <use xlink:href="#DejaVuSans-69" transform="translate(541.357422 0)"/>
     <use xlink:href="#DejaVuSans-62" transform="translate(569.140625 0)"/>
     <use xlink:href="#DejaVuSans-65" transform="translate(632.617188 0)"/>
     <use xlink:href="#DejaVuSans-20" transform="translate(694.140625 0)"/>
     <use xlink:href="#DejaVuSans-68" transform="translate(725.927734 0)"/>
     <use xlink:href="#DejaVuSans-69" transform="translate(789.306641 0)"/>
     <use xlink:href="#DejaVuSans-73" transform="translate(817.089844 0)"/>
     <use xlink:href="#DejaVuSans-74" transform="translate(869.189453 0)"/>
     <use xlink:href="#DejaVuSans-6f" transform="translate(908.398438 0)"/>
     <use xlink:href="#DejaVuSans-72" transform="translate(969.580078 0)"/>
     <use xlink:href="#DejaVuSans-79" transform="translate(1010.693359 0)"/>
    </g>
   </g>
   <g id="legend_1">
    <g id="line2d_41">
     <path d="M 815.08 328.498438 
L 825.08 328.498438 
L 835.08 328.498438 
" style="fill: none; stroke: #1f77b4; stroke-width: 1.5; stroke-linecap: square"/>
    </g>
    <g id="text_21">
     <!-- star -->
     <g style="fill: #a9a9a9" transform="translate(843.08 331.998438) scale(0.1 -0.1)">
      <defs>
       <path id="DejaVuSans-61" d="M 2194 1759 
Q 1497 1759 1228 1600 
Q 959 1441 959 1056 
Q 959 750 1161 570 
Q 1363 391 1709 391 
Q 2188 391 2477 730 
Q 2766 1069 2766 1631 
L 2766 1759 
L 2194 1759 
z
M 3341 1997 
L 3341 0 
L 2766 0 
L 2766 531 
Q 2569 213 2275 61 
Q 1981 -91 1556 -91 
Q 1019 -91 701 211 
Q 384 513 384 1019 
Q 384 1609 779 1909 
Q 1175 2209 1959 2209 
L 2766 2209 
L 2766 2266 
Q 2766 2663 2505 2880 
Q 2244 3097 1772 3097 
Q 1472 3097 1187 3025 
Q 903 2953 641 2809 
L 641 3341 
Q 956 3463 1253 3523 
Q 1550 3584 1831 3584 
Q 2591 3584 2966 3190 
Q 3341 2797 3341 1997 
z
" transform="scale(0.015625)"/>
      </defs>
      <use xlink:href="#DejaVuSans-73"/>
      <use xlink:href="#DejaVuSans-74" transform="translate(52.099609 0)"/>
      <use xlink:href="#DejaVuSans-61" transform="translate(91.308594 0)"/>
      <use xlink:href="#DejaVuSans-72" transform="translate(152.587891 0)"/>
     </g>
    </g>
    <g id="line2d_42">
     <path d="M 815.08 343.176562 
L 825.08 343.176562 
L 835.08 343.176562 
" style="fill: none; stroke: #ff7f0e; stroke-width: 1.5; stroke-linecap: square"/>
    </g>
    <g id="text_22">
     <!-- fork -->
     <g style="fill: #a9a9a9" transform="translate(843.08 346.676562) scale(0.1 -0.1)">
      <defs>
       <path id="DejaVuSans-66" d="M 2375 4863 
L 2375 4384 
L 1825 4384 
Q 1516 4384 1395 4259 
Q 1275 4134 1275 3809 
L 1275 3500 
L 2222 3500 
L 2222 3053 
L 1275 3053 
L 1275 0 
L 697 0 
L 697 3053 
L 147 3053 
L 147 3500 
L 697 3500 
L 697 3744 
Q 697 4328 969 4595 
Q 1241 4863 1831 4863 
L 2375 4863 
z
" transform="scale(0.015625)"/>
       <path id="DejaVuSans-6b" d="M 581 4863 
L 1159 4863 
L 1159 1991 
L 2875 3500 
L 3609 3500 
L 1753 1863 
L 3688 0 
L 2938 0 
L 1159 1709 
L 1159 0 
L 581 0 
L 581 4863 
z
" transform="scale(0.015625)"/>
      </defs>
      <use xlink:href="#DejaVuSans-66"/>
      <use xlink:href="#DejaVuSans-6f" transform="translate(35.205078 0)"/>
      <use xlink:href="#DejaVuSans-72" transform="translate(96.386719 0)"/>
      <use xlink:href="#DejaVuSans-6b" transform="translate(137.5 0)"/>
     </g>
    </g>
   </g>
  </g>
 </g>
 <defs>
  <clipPath id="p1237909ca1">
   <rect x="108" y="43.2" width="669.6" height="277.2"/>
  </clipPath>
 </defs>
</svg>
