<?xml version="1.0" encoding="utf-8" standalone="no"?>
<!DOCTYPE svg PUBLIC "-//W3C//DTD SVG 1.1//EN"
  "http://www.w3.org/Graphics/SVG/1.1/DTD/svg11.dtd">
<svg xmlns:xlink="http://www.w3.org/1999/xlink" width="864pt" height="360pt" viewBox="0 0 864 360" xmlns="http://www.w3.org/2000/svg" version="1.1">
 <metadata>
  <rdf:RDF xmlns:dc="http://purl.org/dc/elements/1.1/" xmlns:cc="http://creativecommons.org/ns#" xmlns:rdf="http://www.w3.org/1999/02/22-rdf-syntax-ns#">
   <cc:Work>
    <dc:type rdf:resource="http://purl.org/dc/dcmitype/StillImage"/>
    <dc:date>2025-10-10T20:07:21.260626</dc:date>
    <dc:format>image/svg+xml</dc:format>
    <dc:creator>
     <cc:Agent>
      <dc:title>Matplotlib v3.10.7, https://matplotlib.org/</dc:title>
     </cc:Agent>
    </dc:creator>
   </cc:Work>
  </rdf:RDF>
 </metadata>
 <defs>
  <style type="text/css">*{stroke-linejoin: round; stroke-linecap: butt}</style>
 </defs>
 <g id="figure_1">
  <g id="patch_1">
   <path d="M 0 360 
L 864 360 
L 864 0 
L 0 0 
L 0 360 
z
" style="fill: none; opacity: 0"/>
  </g>
  <g id="axes_1">
   <g id="patch_2">
    <path d="M 108 320.4 
L 777.6 320.4 
L 777.6 43.2 
L 108 43.2 
L 108 320.4 
z
" style="fill: none; opacity: 0"/>
   </g>
   <g id="matplotlib.axis_1">
    <g id="xtick_1">
     <g id="line2d_1">
      <path d="M 129.339075 320.4 
L 129.339075 43.2 
" clip-path="url(#p9a2428ebd4)" style="fill: none; stroke-dasharray: 5.12,1.28,0.8,1.28; stroke-dashoffset: 0; stroke: #b0b0b0; stroke-width: 0.8"/>
     </g>
     <g id="line2d_2">
      <defs>
       <path id="m464bfcae12" d="M 0 0 
L 0 3.5 
" style="stroke: #a9a9a9; stroke-width: 0.8"/>
      </defs>
      <g>
       <use xlink:href="#m464bfcae12" x="129.339075" y="320.4" style="fill: #a9a9a9; stroke: #a9a9a9; stroke-width: 0.8"/>
      </g>
     </g>
     <g id="text_1">
      <!-- 2021-07 -->
      <g style="fill: #a9a9a9" transform="translate(108.447669 334.998438) scale(0.1 -0.1)">
       <defs>
        <path id="DejaVuSans-32" d="M 1228 531 
L 3431 531 
L 3431 0 
L 469 0 
L 469 531 
Q 828 903 1448 1529 
Q 2069 2156 2228 2338 
Q 2531 2678 2651 2914 
Q 2772 3150 2772 3378 
Q 2772 3750 2511 3984 
Q 2250 4219 1831 4219 
Q 1534 4219 1204 4116 
Q 875 4013 500 3803 
L 500 4441 
Q 881 4594 1212 4672 
Q 1544 4750 1819 4750 
Q 2544 4750 2975 4387 
Q 3406 4025 3406 3419 
Q 3406 3131 3298 2873 
Q 3191 2616 2906 2266 
Q 2828 2175 2409 1742 
Q 1991 1309 1228 531 
z
" transform="scale(0.015625)"/>
        <path id="DejaVuSans-30" d="M 2034 4250 
Q 1547 4250 1301 3770 
Q 1056 3291 1056 2328 
Q 1056 1369 1301 889 
Q 1547 409 2034 409 
Q 2525 409 2770 889 
Q 3016 1369 3016 2328 
Q 3016 3291 2770 3770 
Q 2525 4250 2034 4250 
z
M 2034 4750 
Q 2819 4750 3233 4129 
Q 3647 3509 3647 2328 
Q 3647 1150 3233 529 
Q 2819 -91 2034 -91 
Q 1250 -91 836 529 
Q 422 1150 422 2328 
Q 422 3509 836 4129 
Q 1250 4750 2034 4750 
z
" transform="scale(0.015625)"/>
        <path id="DejaVuSans-31" d="M 794 531 
L 1825 531 
L 1825 4091 
L 703 3866 
L 703 4441 
L 1819 4666 
L 2450 4666 
L 2450 531 
L 3481 531 
L 3481 0 
L 794 0 
L 794 531 
z
" transform="scale(0.015625)"/>
        <path id="DejaVuSans-2d" d="M 313 2009 
L 1997 2009 
L 1997 1497 
L 313 1497 
L 313 2009 
z
" transform="scale(0.015625)"/>
        <path id="DejaVuSans-37" d="M 525 4666 
L 3525 4666 
L 3525 4397 
L 1831 0 
L 1172 0 
L 2766 4134 
L 525 4134 
L 525 4666 
z
" transform="scale(0.015625)"/>
       </defs>
       <use xlink:href="#DejaVuSans-32"/>
       <use xlink:href="#DejaVuSans-30" transform="translate(63.623047 0)"/>
       <use xlink:href="#DejaVuSans-32" transform="translate(127.246094 0)"/>
       <use xlink:href="#DejaVuSans-31" transform="translate(190.869141 0)"/>
       <use xlink:href="#DejaVuSans-2d" transform="translate(254.492188 0)"/>
       <use xlink:href="#DejaVuSans-30" transform="translate(290.576172 0)"/>
       <use xlink:href="#DejaVuSans-37" transform="translate(354.199219 0)"/>
      </g>
     </g>
    </g>
    <g id="xtick_2">
     <g id="line2d_3">
      <path d="M 202.117384 320.4 
L 202.117384 43.2 
" clip-path="url(#p9a2428ebd4)" style="fill: none; stroke-dasharray: 5.12,1.28,0.8,1.28; stroke-dashoffset: 0; stroke: #b0b0b0; stroke-width: 0.8"/>
     </g>
     <g id="line2d_4">
      <g>
       <use xlink:href="#m464bfcae12" x="202.117384" y="320.4" style="fill: #a9a9a9; stroke: #a9a9a9; stroke-width: 0.8"/>
      </g>
     </g>
     <g id="text_2">
      <!-- 2022-01 -->
      <g style="fill: #a9a9a9" transform="translate(181.225978 334.998438) scale(0.1 -0.1)">
       <use xlink:href="#DejaVuSans-32"/>
       <use xlink:href="#DejaVuSans-30" transform="translate(63.623047 0)"/>
       <use xlink:href="#DejaVuSans-32" transform="translate(127.246094 0)"/>
       <use xlink:href="#DejaVuSans-32" transform="translate(190.869141 0)"/>
       <use xlink:href="#DejaVuSans-2d" transform="translate(254.492188 0)"/>
       <use xlink:href="#DejaVuSans-30" transform="translate(290.576172 0)"/>
       <use xlink:href="#DejaVuSans-31" transform="translate(354.199219 0)"/>
      </g>
     </g>
    </g>
    <g id="xtick_3">
     <g id="line2d_5">
      <path d="M 273.709091 320.4 
L 273.709091 43.2 
" clip-path="url(#p9a2428ebd4)" style="fill: none; stroke-dasharray: 5.12,1.28,0.8,1.28; stroke-dashoffset: 0; stroke: #b0b0b0; stroke-width: 0.8"/>
     </g>
     <g id="line2d_6">
      <g>
       <use xlink:href="#m464bfcae12" x="273.709091" y="320.4" style="fill: #a9a9a9; stroke: #a9a9a9; stroke-width: 0.8"/>
      </g>
     </g>
     <g id="text_3">
      <!-- 2022-07 -->
      <g style="fill: #a9a9a9" transform="translate(252.817685 334.998438) scale(0.1 -0.1)">
       <use xlink:href="#DejaVuSans-32"/>
       <use xlink:href="#DejaVuSans-30" transform="translate(63.623047 0)"/>
       <use xlink:href="#DejaVuSans-32" transform="translate(127.246094 0)"/>
       <use xlink:href="#DejaVuSans-32" transform="translate(190.869141 0)"/>
       <use xlink:href="#DejaVuSans-2d" transform="translate(254.492188 0)"/>
       <use xlink:href="#DejaVuSans-30" transform="translate(290.576172 0)"/>
       <use xlink:href="#DejaVuSans-37" transform="translate(354.199219 0)"/>
      </g>
     </g>
    </g>
    <g id="xtick_4">
     <g id="line2d_7">
      <path d="M 346.4874 320.4 
L 346.4874 43.2 
" clip-path="url(#p9a2428ebd4)" style="fill: none; stroke-dasharray: 5.12,1.28,0.8,1.28; stroke-dashoffset: 0; stroke: #b0b0b0; stroke-width: 0.8"/>
     </g>
     <g id="line2d_8">
      <g>
       <use xlink:href="#m464bfcae12" x="346.4874" y="320.4" style="fill: #a9a9a9; stroke: #a9a9a9; stroke-width: 0.8"/>
      </g>
     </g>
     <g id="text_4">
      <!-- 2023-01 -->
      <g style="fill: #a9a9a9" transform="translate(325.595994 334.998438) scale(0.1 -0.1)">
       <defs>
        <path id="DejaVuSans-33" d="M 2597 2516 
Q 3050 2419 3304 2112 
Q 3559 1806 3559 1356 
Q 3559 666 3084 287 
Q 2609 -91 1734 -91 
Q 1441 -91 1130 -33 
Q 819 25 488 141 
L 488 750 
Q 750 597 1062 519 
Q 1375 441 1716 441 
Q 2309 441 2620 675 
Q 2931 909 2931 1356 
Q 2931 1769 2642 2001 
Q 2353 2234 1838 2234 
L 1294 2234 
L 1294 2753 
L 1863 2753 
Q 2328 2753 2575 2939 
Q 2822 3125 2822 3475 
Q 2822 3834 2567 4026 
Q 2313 4219 1838 4219 
Q 1578 4219 1281 4162 
Q 984 4106 628 3988 
L 628 4550 
Q 988 4650 1302 4700 
Q 1616 4750 1894 4750 
Q 2613 4750 3031 4423 
Q 3450 4097 3450 3541 
Q 3450 3153 3228 2886 
Q 3006 2619 2597 2516 
z
" transform="scale(0.015625)"/>
       </defs>
       <use xlink:href="#DejaVuSans-32"/>
       <use xlink:href="#DejaVuSans-30" transform="translate(63.623047 0)"/>
       <use xlink:href="#DejaVuSans-32" transform="translate(127.246094 0)"/>
       <use xlink:href="#DejaVuSans-33" transform="translate(190.869141 0)"/>
       <use xlink:href="#DejaVuSans-2d" transform="translate(254.492188 0)"/>
       <use xlink:href="#DejaVuSans-30" transform="translate(290.576172 0)"/>
       <use xlink:href="#DejaVuSans-31" transform="translate(354.199219 0)"/>
      </g>
     </g>
    </g>
    <g id="xtick_5">
     <g id="line2d_9">
      <path d="M 418.079107 320.4 
L 418.079107 43.2 
" clip-path="url(#p9a2428ebd4)" style="fill: none; stroke-dasharray: 5.12,1.28,0.8,1.28; stroke-dashoffset: 0; stroke: #b0b0b0; stroke-width: 0.8"/>
     </g>
     <g id="line2d_10">
      <g>
       <use xlink:href="#m464bfcae12" x="418.079107" y="320.4" style="fill: #a9a9a9; stroke: #a9a9a9; stroke-width: 0.8"/>
      </g>
     </g>
     <g id="text_5">
      <!-- 2023-07 -->
      <g style="fill: #a9a9a9" transform="translate(397.187701 334.998438) scale(0.1 -0.1)">
       <use xlink:href="#DejaVuSans-32"/>
       <use xlink:href="#DejaVuSans-30" transform="translate(63.623047 0)"/>
       <use xlink:href="#DejaVuSans-32" transform="translate(127.246094 0)"/>
       <use xlink:href="#DejaVuSans-33" transform="translate(190.869141 0)"/>
       <use xlink:href="#DejaVuSans-2d" transform="translate(254.492188 0)"/>
       <use xlink:href="#DejaVuSans-30" transform="translate(290.576172 0)"/>
       <use xlink:href="#DejaVuSans-37" transform="translate(354.199219 0)"/>
      </g>
     </g>
    </g>
    <g id="xtick_6">
     <g id="line2d_11">
      <path d="M 490.857416 320.4 
L 490.857416 43.2 
" clip-path="url(#p9a2428ebd4)" style="fill: none; stroke-dasharray: 5.12,1.28,0.8,1.28; stroke-dashoffset: 0; stroke: #b0b0b0; stroke-width: 0.8"/>
     </g>
     <g id="line2d_12">
      <g>
       <use xlink:href="#m464bfcae12" x="490.857416" y="320.4" style="fill: #a9a9a9; stroke: #a9a9a9; stroke-width: 0.8"/>
      </g>
     </g>
     <g id="text_6">
      <!-- 2024-01 -->
      <g style="fill: #a9a9a9" transform="translate(469.96601 334.998438) scale(0.1 -0.1)">
       <defs>
        <path id="DejaVuSans-34" d="M 2419 4116 
L 825 1625 
L 2419 1625 
L 2419 4116 
z
M 2253 4666 
L 3047 4666 
L 3047 1625 
L 3713 1625 
L 3713 1100 
L 3047 1100 
L 3047 0 
L 2419 0 
L 2419 1100 
L 313 1100 
L 313 1709 
L 2253 4666 
z
" transform="scale(0.015625)"/>
       </defs>
       <use xlink:href="#DejaVuSans-32"/>
       <use xlink:href="#DejaVuSans-30" transform="translate(63.623047 0)"/>
       <use xlink:href="#DejaVuSans-32" transform="translate(127.246094 0)"/>
       <use xlink:href="#DejaVuSans-34" transform="translate(190.869141 0)"/>
       <use xlink:href="#DejaVuSans-2d" transform="translate(254.492188 0)"/>
       <use xlink:href="#DejaVuSans-30" transform="translate(290.576172 0)"/>
       <use xlink:href="#DejaVuSans-31" transform="translate(354.199219 0)"/>
      </g>
     </g>
    </g>
    <g id="xtick_7">
     <g id="line2d_13">
      <path d="M 562.844657 320.4 
L 562.844657 43.2 
" clip-path="url(#p9a2428ebd4)" style="fill: none; stroke-dasharray: 5.12,1.28,0.8,1.28; stroke-dashoffset: 0; stroke: #b0b0b0; stroke-width: 0.8"/>
     </g>
     <g id="line2d_14">
      <g>
       <use xlink:href="#m464bfcae12" x="562.844657" y="320.4" style="fill: #a9a9a9; stroke: #a9a9a9; stroke-width: 0.8"/>
      </g>
     </g>
     <g id="text_7">
      <!-- 2024-07 -->
      <g style="fill: #a9a9a9" transform="translate(541.953251 334.998438) scale(0.1 -0.1)">
       <use xlink:href="#DejaVuSans-32"/>
       <use xlink:href="#DejaVuSans-30" transform="translate(63.623047 0)"/>
       <use xlink:href="#DejaVuSans-32" transform="translate(127.246094 0)"/>
       <use xlink:href="#DejaVuSans-34" transform="translate(190.869141 0)"/>
       <use xlink:href="#DejaVuSans-2d" transform="translate(254.492188 0)"/>
       <use xlink:href="#DejaVuSans-30" transform="translate(290.576172 0)"/>
       <use xlink:href="#DejaVuSans-37" transform="translate(354.199219 0)"/>
      </g>
     </g>
    </g>
    <g id="xtick_8">
     <g id="line2d_15">
      <path d="M 635.622967 320.4 
L 635.622967 43.2 
" clip-path="url(#p9a2428ebd4)" style="fill: none; stroke-dasharray: 5.12,1.28,0.8,1.28; stroke-dashoffset: 0; stroke: #b0b0b0; stroke-width: 0.8"/>
     </g>
     <g id="line2d_16">
      <g>
       <use xlink:href="#m464bfcae12" x="635.622967" y="320.4" style="fill: #a9a9a9; stroke: #a9a9a9; stroke-width: 0.8"/>
      </g>
     </g>
     <g id="text_8">
      <!-- 2025-01 -->
      <g style="fill: #a9a9a9" transform="translate(614.73156 334.998438) scale(0.1 -0.1)">
       <defs>
        <path id="DejaVuSans-35" d="M 691 4666 
L 3169 4666 
L 3169 4134 
L 1269 4134 
L 1269 2991 
Q 1406 3038 1543 3061 
Q 1681 3084 1819 3084 
Q 2600 3084 3056 2656 
Q 3513 2228 3513 1497 
Q 3513 744 3044 326 
Q 2575 -91 1722 -91 
Q 1428 -91 1123 -41 
Q 819 9 494 109 
L 494 744 
Q 775 591 1075 516 
Q 1375 441 1709 441 
Q 2250 441 2565 725 
Q 2881 1009 2881 1497 
Q 2881 1984 2565 2268 
Q 2250 2553 1709 2553 
Q 1456 2553 1204 2497 
Q 953 2441 691 2322 
L 691 4666 
z
" transform="scale(0.015625)"/>
       </defs>
       <use xlink:href="#DejaVuSans-32"/>
       <use xlink:href="#DejaVuSans-30" transform="translate(63.623047 0)"/>
       <use xlink:href="#DejaVuSans-32" transform="translate(127.246094 0)"/>
       <use xlink:href="#DejaVuSans-35" transform="translate(190.869141 0)"/>
       <use xlink:href="#DejaVuSans-2d" transform="translate(254.492188 0)"/>
       <use xlink:href="#DejaVuSans-30" transform="translate(290.576172 0)"/>
       <use xlink:href="#DejaVuSans-31" transform="translate(354.199219 0)"/>
      </g>
     </g>
    </g>
    <g id="xtick_9">
     <g id="line2d_17">
      <path d="M 707.214673 320.4 
L 707.214673 43.2 
" clip-path="url(#p9a2428ebd4)" style="fill: none; stroke-dasharray: 5.12,1.28,0.8,1.28; stroke-dashoffset: 0; stroke: #b0b0b0; stroke-width: 0.8"/>
     </g>
     <g id="line2d_18">
      <g>
       <use xlink:href="#m464bfcae12" x="707.214673" y="320.4" style="fill: #a9a9a9; stroke: #a9a9a9; stroke-width: 0.8"/>
      </g>
     </g>
     <g id="text_9">
      <!-- 2025-07 -->
      <g style="fill: #a9a9a9" transform="translate(686.323267 334.998438) scale(0.1 -0.1)">
       <use xlink:href="#DejaVuSans-32"/>
       <use xlink:href="#DejaVuSans-30" transform="translate(63.623047 0)"/>
       <use xlink:href="#DejaVuSans-32" transform="translate(127.246094 0)"/>
       <use xlink:href="#DejaVuSans-35" transform="translate(190.869141 0)"/>
       <use xlink:href="#DejaVuSans-2d" transform="translate(254.492188 0)"/>
       <use xlink:href="#DejaVuSans-30" transform="translate(290.576172 0)"/>
       <use xlink:href="#DejaVuSans-37" transform="translate(354.199219 0)"/>
      </g>
     </g>
    </g>
   </g>
   <g id="matplotlib.axis_2">
    <g id="ytick_1">
     <g id="line2d_19">
      <path d="M 108 307.830657 
L 777.6 307.830657 
" clip-path="url(#p9a2428ebd4)" style="fill: none; stroke-dasharray: 5.12,1.28,0.8,1.28; stroke-dashoffset: 0; stroke: #b0b0b0; stroke-width: 0.8"/>
     </g>
     <g id="line2d_20">
      <defs>
       <path id="mbc4e9dd97e" d="M 0 0 
L -3.5 0 
" style="stroke: #a9a9a9; stroke-width: 0.8"/>
      </defs>
      <g>
       <use xlink:href="#mbc4e9dd97e" x="108" y="307.830657" style="fill: #a9a9a9; stroke: #a9a9a9; stroke-width: 0.8"/>
      </g>
     </g>
     <g id="text_10">
      <!-- 0 -->
      <g style="fill: #a9a9a9" transform="translate(94.6375 311.629876) scale(0.1 -0.1)">
       <use xlink:href="#DejaVuSans-30"/>
      </g>
     </g>
    </g>
    <g id="ytick_2">
     <g id="line2d_21">
      <path d="M 108 277.173723 
L 777.6 277.173723 
" clip-path="url(#p9a2428ebd4)" style="fill: none; stroke-dasharray: 5.12,1.28,0.8,1.28; stroke-dashoffset: 0; stroke: #b0b0b0; stroke-width: 0.8"/>
     </g>
     <g id="line2d_22">
      <g>
       <use xlink:href="#mbc4e9dd97e" x="108" y="277.173723" style="fill: #a9a9a9; stroke: #a9a9a9; stroke-width: 0.8"/>
      </g>
     </g>
     <g id="text_11">
      <!-- 1000 -->
      <g style="fill: #a9a9a9" transform="translate(75.55 280.972941) scale(0.1 -0.1)">
       <use xlink:href="#DejaVuSans-31"/>
       <use xlink:href="#DejaVuSans-30" transform="translate(63.623047 0)"/>
       <use xlink:href="#DejaVuSans-30" transform="translate(127.246094 0)"/>
       <use xlink:href="#DejaVuSans-30" transform="translate(190.869141 0)"/>
      </g>
     </g>
    </g>
    <g id="ytick_3">
     <g id="line2d_23">
      <path d="M 108 246.516788 
L 777.6 246.516788 
" clip-path="url(#p9a2428ebd4)" style="fill: none; stroke-dasharray: 5.12,1.28,0.8,1.28; stroke-dashoffset: 0; stroke: #b0b0b0; stroke-width: 0.8"/>
     </g>
     <g id="line2d_24">
      <g>
       <use xlink:href="#mbc4e9dd97e" x="108" y="246.516788" style="fill: #a9a9a9; stroke: #a9a9a9; stroke-width: 0.8"/>
      </g>
     </g>
     <g id="text_12">
      <!-- 2000 -->
      <g style="fill: #a9a9a9" transform="translate(75.55 250.316007) scale(0.1 -0.1)">
       <use xlink:href="#DejaVuSans-32"/>
       <use xlink:href="#DejaVuSans-30" transform="translate(63.623047 0)"/>
       <use xlink:href="#DejaVuSans-30" transform="translate(127.246094 0)"/>
       <use xlink:href="#DejaVuSans-30" transform="translate(190.869141 0)"/>
      </g>
     </g>
    </g>
    <g id="ytick_4">
     <g id="line2d_25">
      <path d="M 108 215.859854 
L 777.6 215.859854 
" clip-path="url(#p9a2428ebd4)" style="fill: none; stroke-dasharray: 5.12,1.28,0.8,1.28; stroke-dashoffset: 0; stroke: #b0b0b0; stroke-width: 0.8"/>
     </g>
     <g id="line2d_26">
      <g>
       <use xlink:href="#mbc4e9dd97e" x="108" y="215.859854" style="fill: #a9a9a9; stroke: #a9a9a9; stroke-width: 0.8"/>
      </g>
     </g>
     <g id="text_13">
      <!-- 3000 -->
      <g style="fill: #a9a9a9" transform="translate(75.55 219.659073) scale(0.1 -0.1)">
       <use xlink:href="#DejaVuSans-33"/>
       <use xlink:href="#DejaVuSans-30" transform="translate(63.623047 0)"/>
       <use xlink:href="#DejaVuSans-30" transform="translate(127.246094 0)"/>
       <use xlink:href="#DejaVuSans-30" transform="translate(190.869141 0)"/>
      </g>
     </g>
    </g>
    <g id="ytick_5">
     <g id="line2d_27">
      <path d="M 108 185.20292 
L 777.6 185.20292 
" clip-path="url(#p9a2428ebd4)" style="fill: none; stroke-dasharray: 5.12,1.28,0.8,1.28; stroke-dashoffset: 0; stroke: #b0b0b0; stroke-width: 0.8"/>
     </g>
     <g id="line2d_28">
      <g>
       <use xlink:href="#mbc4e9dd97e" x="108" y="185.20292" style="fill: #a9a9a9; stroke: #a9a9a9; stroke-width: 0.8"/>
      </g>
     </g>
     <g id="text_14">
      <!-- 4000 -->
      <g style="fill: #a9a9a9" transform="translate(75.55 189.002138) scale(0.1 -0.1)">
       <use xlink:href="#DejaVuSans-34"/>
       <use xlink:href="#DejaVuSans-30" transform="translate(63.623047 0)"/>
       <use xlink:href="#DejaVuSans-30" transform="translate(127.246094 0)"/>
       <use xlink:href="#DejaVuSans-30" transform="translate(190.869141 0)"/>
      </g>
     </g>
    </g>
    <g id="ytick_6">
     <g id="line2d_29">
      <path d="M 108 154.545985 
L 777.6 154.545985 
" clip-path="url(#p9a2428ebd4)" style="fill: none; stroke-dasharray: 5.12,1.28,0.8,1.28; stroke-dashoffset: 0; stroke: #b0b0b0; stroke-width: 0.8"/>
     </g>
     <g id="line2d_30">
      <g>
       <use xlink:href="#mbc4e9dd97e" x="108" y="154.545985" style="fill: #a9a9a9; stroke: #a9a9a9; stroke-width: 0.8"/>
      </g>
     </g>
     <g id="text_15">
      <!-- 5000 -->
      <g style="fill: #a9a9a9" transform="translate(75.55 158.345204) scale(0.1 -0.1)">
       <use xlink:href="#DejaVuSans-35"/>
       <use xlink:href="#DejaVuSans-30" transform="translate(63.623047 0)"/>
       <use xlink:href="#DejaVuSans-30" transform="translate(127.246094 0)"/>
       <use xlink:href="#DejaVuSans-30" transform="translate(190.869141 0)"/>
      </g>
     </g>
    </g>
    <g id="ytick_7">
     <g id="line2d_31">
      <path d="M 108 123.889051 
L 777.6 123.889051 
" clip-path="url(#p9a2428ebd4)" style="fill: none; stroke-dasharray: 5.12,1.28,0.8,1.28; stroke-dashoffset: 0; stroke: #b0b0b0; stroke-width: 0.8"/>
     </g>
     <g id="line2d_32">
      <g>
       <use xlink:href="#mbc4e9dd97e" x="108" y="123.889051" style="fill: #a9a9a9; stroke: #a9a9a9; stroke-width: 0.8"/>
      </g>
     </g>
     <g id="text_16">
      <!-- 6000 -->
      <g style="fill: #a9a9a9" transform="translate(75.55 127.68827) scale(0.1 -0.1)">
       <defs>
        <path id="DejaVuSans-36" d="M 2113 2584 
Q 1688 2584 1439 2293 
Q 1191 2003 1191 1497 
Q 1191 994 1439 701 
Q 1688 409 2113 409 
Q 2538 409 2786 701 
Q 3034 994 3034 1497 
Q 3034 2003 2786 2293 
Q 2538 2584 2113 2584 
z
M 3366 4563 
L 3366 3988 
Q 3128 4100 2886 4159 
Q 2644 4219 2406 4219 
Q 1781 4219 1451 3797 
Q 1122 3375 1075 2522 
Q 1259 2794 1537 2939 
Q 1816 3084 2150 3084 
Q 2853 3084 3261 2657 
Q 3669 2231 3669 1497 
Q 3669 778 3244 343 
Q 2819 -91 2113 -91 
Q 1303 -91 875 529 
Q 447 1150 447 2328 
Q 447 3434 972 4092 
Q 1497 4750 2381 4750 
Q 2619 4750 2861 4703 
Q 3103 4656 3366 4563 
z
" transform="scale(0.015625)"/>
       </defs>
       <use xlink:href="#DejaVuSans-36"/>
       <use xlink:href="#DejaVuSans-30" transform="translate(63.623047 0)"/>
       <use xlink:href="#DejaVuSans-30" transform="translate(127.246094 0)"/>
       <use xlink:href="#DejaVuSans-30" transform="translate(190.869141 0)"/>
      </g>
     </g>
    </g>
    <g id="ytick_8">
     <g id="line2d_33">
      <path d="M 108 93.232117 
L 777.6 93.232117 
" clip-path="url(#p9a2428ebd4)" style="fill: none; stroke-dasharray: 5.12,1.28,0.8,1.28; stroke-dashoffset: 0; stroke: #b0b0b0; stroke-width: 0.8"/>
     </g>
     <g id="line2d_34">
      <g>
       <use xlink:href="#mbc4e9dd97e" x="108" y="93.232117" style="fill: #a9a9a9; stroke: #a9a9a9; stroke-width: 0.8"/>
      </g>
     </g>
     <g id="text_17">
      <!-- 7000 -->
      <g style="fill: #a9a9a9" transform="translate(75.55 97.031336) scale(0.1 -0.1)">
       <use xlink:href="#DejaVuSans-37"/>
       <use xlink:href="#DejaVuSans-30" transform="translate(63.623047 0)"/>
       <use xlink:href="#DejaVuSans-30" transform="translate(127.246094 0)"/>
       <use xlink:href="#DejaVuSans-30" transform="translate(190.869141 0)"/>
      </g>
     </g>
    </g>
    <g id="ytick_9">
     <g id="line2d_35">
      <path d="M 108 62.575182 
L 777.6 62.575182 
" clip-path="url(#p9a2428ebd4)" style="fill: none; stroke-dasharray: 5.12,1.28,0.8,1.28; stroke-dashoffset: 0; stroke: #b0b0b0; stroke-width: 0.8"/>
     </g>
     <g id="line2d_36">
      <g>
       <use xlink:href="#mbc4e9dd97e" x="108" y="62.575182" style="fill: #a9a9a9; stroke: #a9a9a9; stroke-width: 0.8"/>
      </g>
     </g>
     <g id="text_18">
      <!-- 8000 -->
      <g style="fill: #a9a9a9" transform="translate(75.55 66.374401) scale(0.1 -0.1)">
       <defs>
        <path id="DejaVuSans-38" d="M 2034 2216 
Q 1584 2216 1326 1975 
Q 1069 1734 1069 1313 
Q 1069 891 1326 650 
Q 1584 409 2034 409 
Q 2484 409 2743 651 
Q 3003 894 3003 1313 
Q 3003 1734 2745 1975 
Q 2488 2216 2034 2216 
z
M 1403 2484 
Q 997 2584 770 2862 
Q 544 3141 544 3541 
Q 544 4100 942 4425 
Q 1341 4750 2034 4750 
Q 2731 4750 3128 4425 
Q 3525 4100 3525 3541 
Q 3525 3141 3298 2862 
Q 3072 2584 2669 2484 
Q 3125 2378 3379 2068 
Q 3634 1759 3634 1313 
Q 3634 634 3220 271 
Q 2806 -91 2034 -91 
Q 1263 -91 848 271 
Q 434 634 434 1313 
Q 434 1759 690 2068 
Q 947 2378 1403 2484 
z
M 1172 3481 
Q 1172 3119 1398 2916 
Q 1625 2713 2034 2713 
Q 2441 2713 2670 2916 
Q 2900 3119 2900 3481 
Q 2900 3844 2670 4047 
Q 2441 4250 2034 4250 
Q 1625 4250 1398 4047 
Q 1172 3844 1172 3481 
z
" transform="scale(0.015625)"/>
       </defs>
       <use xlink:href="#DejaVuSans-38"/>
       <use xlink:href="#DejaVuSans-30" transform="translate(63.623047 0)"/>
       <use xlink:href="#DejaVuSans-30" transform="translate(127.246094 0)"/>
       <use xlink:href="#DejaVuSans-30" transform="translate(190.869141 0)"/>
      </g>
     </g>
    </g>
   </g>
   <g id="line2d_37">
    <path d="M 138.436364 307.738686 
L 140.809569 307.524088 
L 141.205104 307.340146 
L 142.787241 307.125547 
L 144.369378 306.788321 
L 145.160447 306.665693 
L 147.138118 306.481752 
L 147.929187 306.175182 
L 148.324721 305.623358 
L 148.720255 305.347445 
L 149.115789 304.427737 
L 149.511324 304.366423 
L 150.302392 303.875912 
L 151.093461 303.293431 
L 152.675598 302.128467 
L 153.071132 301.975182 
L 153.862201 301.484672 
L 155.048804 300.90219 
L 155.444338 300.227737 
L 156.235407 299.614599 
L 156.630941 299.430657 
L 160.586284 298.817518 
L 160.981818 298.633577 
L 163.750558 298.388321 
L 165.332695 297.989781 
L 168.49697 297.529927 
L 168.892504 297.315328 
L 169.288038 297.254015 
L 170.079107 296.978102 
L 172.847847 296.487591 
L 173.638915 296.242336 
L 177.198724 295.629197 
L 177.989793 295.445255 
L 179.57193 295.230657 
L 180.362998 294.985401 
L 180.758533 294.40292 
L 181.945136 293.912409 
L 183.131738 293.575182 
L 183.527273 293.360584 
L 184.318341 293.207299 
L 185.900478 292.716788 
L 186.691547 292.655474 
L 187.482616 292.440876 
L 189.064753 292.011679 
L 189.460287 291.981022 
L 190.251356 291.582482 
L 190.64689 291.521168 
L 191.042424 291.306569 
L 195.393301 290.540146 
L 196.975439 290.049635 
L 197.370973 289.773723 
L 199.348644 289.09927 
L 200.139713 288.516788 
L 201.326316 288.271533 
L 206.468262 286.738686 
L 206.863796 286.677372 
L 208.445933 286.033577 
L 208.841467 285.972263 
L 209.632536 285.635036 
L 210.423604 285.60438 
L 211.610207 285.236496 
L 212.005742 285.236496 
L 212.401276 285.052555 
L 213.192344 284.960584 
L 213.587879 284.807299 
L 215.170016 284.745985 
L 215.961085 284.592701 
L 216.752153 284.163504 
L 217.938756 283.734307 
L 218.729825 283.305109 
L 219.916427 282.783942 
L 221.498565 281.956204 
L 221.894099 281.49635 
L 222.685167 280.208759 
L 223.080702 280.086131 
L 223.476236 280.086131 
L 225.058373 279.19708 
L 225.453907 279.105109 
L 225.849442 278.706569 
L 226.64051 278.369343 
L 227.431579 278.00146 
L 227.827113 277.510949 
L 228.222648 276.836496 
L 228.618182 276.560584 
L 229.013716 275.824818 
L 229.40925 275.364964 
L 231.782456 274.016058 
L 233.364593 272.544526 
L 233.760128 271.594161 
L 234.155662 270.981022 
L 234.551196 270.643796 
L 234.94673 270.459854 
L 236.528868 269.080292 
L 237.71547 268.037956 
L 238.506539 267.026277 
L 239.693142 266.137226 
L 241.275279 265.125547 
L 241.670813 264.972263 
L 243.252951 263.991241 
L 243.648485 263.807299 
L 245.626156 261.906569 
L 246.417225 261.569343 
L 247.208293 260.986861 
L 247.603828 260.741606 
L 247.999362 260.680292 
L 249.185965 259.975182 
L 249.581499 259.515328 
L 251.559171 258.381022 
L 251.954705 258.227737 
L 253.141308 257.369343 
L 259.074322 255.162044 
L 259.865391 254.39562 
L 261.051994 253.782482 
L 261.843062 253.261314 
L 262.634131 253.016058 
L 263.029665 252.740146 
L 263.425199 252.617518 
L 264.611802 251.789781 
L 266.589474 251.329927 
L 267.776077 250.594161 
L 268.962679 250.318248 
L 269.358214 250.226277 
L 270.544817 249.306569 
L 272.126954 248.846715 
L 272.522488 248.509489 
L 274.895694 247.651095 
L 275.686762 247.49781 
L 276.477831 247.160584 
L 279.246571 246.087591 
L 280.03764 245.99562 
L 281.224242 245.566423 
L 283.201914 244.554745 
L 285.57512 243.175182 
L 286.366188 242.960584 
L 287.552791 242.347445 
L 288.34386 242.194161 
L 289.134928 241.70365 
L 289.925997 241.489051 
L 291.1126 240.99854 
L 292.694737 240.783942 
L 293.485805 240.354745 
L 293.88134 239.986861 
L 294.276874 239.251095 
L 295.859011 238.791241 
L 297.441148 238.055474 
L 299.814354 236.890511 
L 300.605423 236.491971 
L 301.792026 236.246715 
L 302.978628 235.633577 
L 303.374163 235.572263 
L 305.351834 234.560584 
L 306.142903 234.039416 
L 307.329506 233.794161 
L 309.307177 233.272993 
L 309.702711 232.935766 
L 310.49378 232.659854 
L 312.471451 231.832117 
L 312.866986 231.525547 
L 313.26252 231.372263 
L 314.053589 230.912409 
L 315.635726 230.391241 
L 316.426794 229.870073 
L 316.822329 229.440876 
L 317.217863 229.19562 
L 317.613397 229.10365 
L 318.404466 228.429197 
L 318.8 228.367883 
L 319.195534 227.693431 
L 319.591069 227.509489 
L 319.986603 227.172263 
L 320.382137 227.110949 
L 321.173206 226.589781 
L 321.964274 226.313869 
L 322.359809 226.007299 
L 322.755343 225.854015 
L 324.733014 224.566423 
L 325.919617 224.106569 
L 326.710686 223.738686 
L 327.10622 223.493431 
L 327.501754 222.788321 
L 328.292823 222.175182 
L 328.688357 222.083212 
L 331.061563 220.887591 
L 331.852632 220.550365 
L 332.6437 219.967883 
L 333.830303 218.833577 
L 334.621372 218.343066 
L 335.016906 217.883212 
L 336.599043 216.748905 
L 337.390112 215.921168 
L 338.18118 215.645255 
L 338.972249 215.093431 
L 340.158852 214.449635 
L 340.554386 214.388321 
L 344.114195 212.518248 
L 344.905263 212.30365 
L 346.4874 211.721168 
L 346.882935 211.383942 
L 348.465072 210.740146 
L 348.860606 210.617518 
L 349.651675 210.09635 
L 350.442743 209.759124 
L 351.233812 209.176642 
L 352.02488 207.551825 
L 352.815949 206.632117 
L 354.002552 205.988321 
L 354.79362 205.651095 
L 355.189155 205.589781 
L 355.980223 205.221898 
L 357.56236 204.670073 
L 358.353429 204.210219 
L 359.144498 203.811679 
L 359.540032 203.689051 
L 361.913238 202.217518 
L 362.308772 201.757664 
L 363.495375 201.052555 
L 363.890909 200.89927 
L 364.681978 200.408759 
L 366.264115 199.519708 
L 366.659649 199.427737 
L 367.055183 199.090511 
L 369.823923 198.140146 
L 370.219458 197.864234 
L 371.010526 197.618978 
L 371.801595 197.281752 
L 372.197129 196.944526 
L 373.779266 196.362044 
L 374.570335 195.779562 
L 375.361404 195.442336 
L 376.152472 194.79854 
L 376.943541 194.583942 
L 377.339075 194.216058 
L 377.734609 194.154745 
L 378.525678 193.541606 
L 380.503349 192.345985 
L 381.294418 192.10073 
L 381.689952 191.855474 
L 382.085486 191.794161 
L 383.667624 191.027737 
L 384.854226 190.629197 
L 385.645295 190.506569 
L 386.040829 190.322628 
L 386.436364 190.261314 
L 387.227432 189.893431 
L 387.622967 189.862774 
L 389.205104 189.249635 
L 390.391707 188.391241 
L 390.787241 188.237956 
L 391.578309 187.778102 
L 391.973844 187.655474 
L 394.347049 186.275912 
L 394.742584 186.183942 
L 395.929187 185.448175 
L 397.115789 185.018978 
L 397.906858 184.743066 
L 399.488995 184.191241 
L 400.280064 183.915328 
L 401.862201 183.578102 
L 402.257735 183.394161 
L 403.048804 183.179562 
L 403.444338 182.99562 
L 403.839872 182.934307 
L 404.235407 182.719708 
L 405.026475 182.566423 
L 406.213078 182.137226 
L 407.399681 181.953285 
L 409.772887 181.493431 
L 410.95949 181.217518 
L 411.355024 181.033577 
L 412.146093 180.880292 
L 412.937161 180.665693 
L 413.72823 180.29781 
L 414.123764 180.144526 
L 414.519298 180.144526 
L 418.870175 178.764964 
L 419.26571 178.550365 
L 419.661244 178.550365 
L 420.452313 178.243796 
L 420.847847 177.814599 
L 423.221053 176.80292 
L 424.80319 176.251095 
L 425.198724 176.005839 
L 426.385327 175.637956 
L 427.176396 175.423358 
L 427.57193 175.147445 
L 427.967464 175.055474 
L 428.362998 174.687591 
L 429.549601 174.442336 
L 430.34067 174.074453 
L 430.736204 173.583942 
L 435.087081 172.60292 
L 435.482616 172.60292 
L 435.87815 172.418978 
L 437.460287 172.112409 
L 437.855821 171.928467 
L 439.437959 171.621898 
L 440.229027 171.284672 
L 441.020096 171.131387 
L 442.997767 170.610219 
L 444.18437 170.242336 
L 446.162041 169.59854 
L 446.95311 169.261314 
L 447.744179 168.954745 
L 448.139713 168.678832 
L 448.930781 168.433577 
L 451.699522 167.360584 
L 453.281659 167.176642 
L 456.445933 165.981022 
L 456.841467 165.674453 
L 457.237002 165.582482 
L 457.632536 165.367883 
L 458.02807 165.337226 
L 462.378947 163.712409 
L 464.356619 163.160584 
L 465.147687 162.762044 
L 466.33429 162.486131 
L 467.916427 161.137226 
L 469.498565 160.432117 
L 471.080702 159.757664 
L 471.476236 159.665693 
L 471.87177 159.389781 
L 472.662839 159.144526 
L 473.058373 158.868613 
L 475.036045 158.194161 
L 478.991388 156.140146 
L 479.782456 155.772263 
L 480.17799 155.465693 
L 480.969059 155.189781 
L 483.342265 154.024818 
L 483.737799 153.932847 
L 484.924402 153.381022 
L 486.506539 152.829197 
L 487.297608 152.491971 
L 488.088676 152.369343 
L 488.484211 152.093431 
L 490.066348 151.786861 
L 490.857416 151.449635 
L 493.230622 150.284672 
L 493.626156 150.223358 
L 494.812759 149.518248 
L 495.999362 149.089051 
L 498.768102 147.893431 
L 499.163636 147.770803 
L 499.559171 147.494891 
L 500.350239 147.40292 
L 500.745774 147.127007 
L 501.536842 147.00438 
L 502.327911 146.605839 
L 502.723445 146.421898 
L 503.910048 146.145985 
L 506.678788 145.134307 
L 507.865391 144.858394 
L 509.447528 144.183942 
L 510.238596 143.754745 
L 511.820734 142.927007 
L 512.611802 142.743066 
L 513.007337 142.49781 
L 513.402871 142.405839 
L 515.380542 141.424818 
L 518.544817 140.290511 
L 518.940351 140.167883 
L 519.731419 139.738686 
L 521.709091 139.033577 
L 524.082297 138.052555 
L 525.664434 137.286131 
L 529.619777 135.691971 
L 530.410845 135.293431 
L 530.80638 135.20146 
L 531.597448 134.894891 
L 531.992982 134.894891 
L 532.784051 134.527007 
L 534.366188 133.178102 
L 534.761722 133.055474 
L 535.157257 132.810219 
L 536.34386 132.472993 
L 536.739394 132.166423 
L 537.530463 131.890511 
L 538.717065 131.093431 
L 539.508134 130.878832 
L 540.299203 130.449635 
L 541.485805 130.173723 
L 543.463477 129.468613 
L 544.254545 129.223358 
L 545.441148 128.579562 
L 546.232217 128.181022 
L 547.023285 127.966423 
L 548.605423 127.230657 
L 549.000957 127.108029 
L 549.792026 126.740146 
L 551.769697 126.09635 
L 552.9563 125.329927 
L 553.351834 125.237956 
L 554.142903 124.839416 
L 554.933971 124.532847 
L 555.329506 124.164964 
L 556.516108 123.705109 
L 556.911643 123.643796 
L 558.49378 122.908029 
L 559.680383 122.540146 
L 560.075917 122.356204 
L 560.471451 122.294891 
L 561.26252 121.957664 
L 562.449123 121.712409 
L 563.240191 121.252555 
L 563.635726 121.09927 
L 564.03126 120.792701 
L 565.217863 120.486131 
L 566.008931 120.179562 
L 566.8 119.842336 
L 568.382137 119.19854 
L 571.150877 118.462774 
L 571.941946 118.156204 
L 573.524083 117.849635 
L 574.315152 117.69635 
L 575.501754 117.236496 
L 576.688357 116.991241 
L 579.061563 115.581022 
L 580.248166 114.845255 
L 582.621372 114.109489 
L 583.016906 113.80292 
L 586.18118 112.637956 
L 587.367783 112.270073 
L 588.554386 111.748905 
L 592.114195 110.308029 
L 592.905263 110.00146 
L 594.4874 109.357664 
L 594.882935 108.989781 
L 595.278469 108.928467 
L 596.860606 108.284672 
L 598.442743 107.886131 
L 598.838278 107.824818 
L 599.233812 107.640876 
L 599.629346 107.610219 
L 600.420415 107.334307 
L 600.815949 107.30365 
L 602.002552 106.843796 
L 603.584689 106.383942 
L 604.375758 105.770803 
L 605.957895 104.881752 
L 606.353429 104.789781 
L 607.144498 104.483212 
L 610.308772 102.919708 
L 610.704306 102.705109 
L 611.099841 102.337226 
L 613.077512 101.846715 
L 614.264115 101.294891 
L 615.055183 101.080292 
L 615.450718 100.89635 
L 615.846252 100.559124 
L 617.823923 99.854015 
L 622.965869 97.953285 
L 623.756938 97.8 
L 625.734609 97.156204 
L 626.921212 96.635036 
L 629.689952 95.807299 
L 630.481021 95.347445 
L 633.249761 94.39708 
L 634.831898 93.875912 
L 636.018501 93.6 
L 637.205104 93.232117 
L 637.600638 93.140146 
L 637.996172 92.894891 
L 638.787241 92.710949 
L 640.369378 92.251095 
L 640.764912 92.220438 
L 641.555981 91.852555 
L 644.324721 91.147445 
L 645.906858 90.564964 
L 646.302392 90.564964 
L 647.488995 90.289051 
L 648.280064 90.135766 
L 649.071132 89.921168 
L 650.257735 89.277372 
L 651.444338 88.909489 
L 654.213078 87.959124 
L 655.795215 87.162044 
L 656.981818 86.886131 
L 657.772887 86.640876 
L 658.563955 86.242336 
L 658.95949 85.905109 
L 659.750558 85.659854 
L 660.146093 85.414599 
L 660.937161 85.322628 
L 663.705901 84.525547 
L 664.892504 84.280292 
L 666.079107 83.973723 
L 666.870175 83.789781 
L 668.056778 83.176642 
L 673.198724 81.183942 
L 673.989793 81.061314 
L 674.780861 80.908029 
L 675.176396 80.908029 
L 676.362998 80.540146 
L 677.549601 80.172263 
L 681.10941 79.160584 
L 681.900478 78.945985 
L 682.296013 78.854015 
L 682.691547 78.608759 
L 683.482616 78.455474 
L 684.273684 78.363504 
L 684.669219 78.148905 
L 685.064753 78.118248 
L 685.855821 77.59708 
L 687.437959 77.259854 
L 688.229027 76.922628 
L 689.020096 76.646715 
L 689.811164 76.432117 
L 690.602233 76.094891 
L 690.997767 76.033577 
L 691.788836 75.757664 
L 692.975439 75.420438 
L 693.766507 75.359124 
L 694.557576 75.083212 
L 694.95311 74.929927 
L 695.744179 74.807299 
L 697.326316 74.10219 
L 697.72185 74.040876 
L 698.512919 73.734307 
L 700.886124 73.335766 
L 701.677193 73.090511 
L 702.072727 73.029197 
L 702.863796 72.691971 
L 703.25933 72.630657 
L 703.654864 72.416058 
L 704.445933 71.741606 
L 708.401276 70.30073 
L 710.774482 69.656934 
L 711.56555 69.227737 
L 711.961085 69.135766 
L 713.147687 68.491971 
L 713.543222 68.4 
L 713.938756 68.093431 
L 715.125359 67.756204 
L 716.311962 67.29635 
L 717.498565 66.744526 
L 720.267305 65.364964 
L 721.058373 65.058394 
L 723.036045 64.353285 
L 723.431579 64.016058 
L 723.827113 63.924088 
L 724.618182 63.433577 
L 725.804785 63.065693 
L 726.595853 62.759124 
L 727.386922 62.391241 
L 727.782456 62.360584 
L 729.760128 61.624818 
L 730.551196 61.471533 
L 731.342265 60.889051 
L 731.737799 60.889051 
L 732.528868 60.613139 
L 732.924402 60.551825 
L 733.319936 60.337226 
L 734.902073 60 
L 736.484211 59.325547 
L 736.879745 59.325547 
L 738.066348 58.927007 
L 738.857416 58.80438 
L 739.648485 58.49781 
L 740.439553 57.884672 
L 742.021691 57.332847 
L 742.812759 57.087591 
L 743.603828 56.750365 
L 745.185965 56.229197 
L 747.163636 55.8 
L 747.163636 55.8 
" clip-path="url(#p9a2428ebd4)" style="fill: none; stroke: #1f77b4; stroke-width: 1.5; stroke-linecap: square"/>
   </g>
   <g id="line2d_38">
    <path d="M 138.831898 307.8 
L 142.391707 307.708029 
L 145.555981 307.554745 
L 147.138118 307.554745 
L 147.533652 307.432117 
L 149.511324 307.340146 
L 151.88453 307.064234 
L 154.257735 306.972263 
L 155.048804 306.880292 
L 157.817544 306.757664 
L 160.586284 306.665693 
L 162.563955 306.60438 
L 167.705901 306.512409 
L 169.683573 306.451095 
L 173.243381 306.359124 
L 174.825518 306.328467 
L 178.780861 306.236496 
L 180.362998 306.083212 
L 181.945136 306.052555 
L 184.318341 305.960584 
L 185.900478 305.929927 
L 187.87815 305.868613 
L 189.460287 305.715328 
L 193.020096 305.623358 
L 193.811164 305.562044 
L 195.393301 305.470073 
L 197.766507 305.378102 
L 199.348644 305.286131 
L 206.468262 304.826277 
L 209.237002 304.734307 
L 210.423604 304.611679 
L 212.401276 304.519708 
L 216.356619 304.305109 
L 220.311962 304.243796 
L 221.894099 304.059854 
L 223.87177 303.967883 
L 227.827113 303.569343 
L 230.200319 303.262774 
L 231.782456 303.20146 
L 234.94673 302.772263 
L 237.319936 302.710949 
L 238.506539 302.588321 
L 239.693142 302.49635 
L 250.768102 301.607299 
L 251.559171 301.454015 
L 253.932376 301.362044 
L 260.260925 300.963504 
L 263.029665 300.871533 
L 264.611802 300.687591 
L 266.589474 300.59562 
L 268.962679 300.50365 
L 270.940351 300.411679 
L 272.522488 300.381022 
L 274.500159 300.319708 
L 275.291228 300.19708 
L 280.828708 300.105109 
L 281.619777 300.013139 
L 286.366188 299.921168 
L 289.925997 299.737226 
L 292.694737 299.645255 
L 294.276874 299.461314 
L 297.045614 299.369343 
L 297.836683 299.246715 
L 299.814354 299.185401 
L 303.769697 299.124088 
L 305.351834 298.970803 
L 306.933971 298.940146 
L 308.120574 298.848175 
L 309.702711 298.694891 
L 313.658054 298.480292 
L 317.613397 298.388321 
L 321.173206 298.20438 
L 322.359809 298.173723 
L 323.150877 298.051095 
L 325.128549 297.959124 
L 325.919617 297.89781 
L 326.710686 297.836496 
L 327.501754 297.775182 
L 331.457097 297.683212 
L 340.158852 297.10073 
L 340.94992 297.039416 
L 342.136523 296.947445 
L 344.905263 296.855474 
L 346.882935 296.794161 
L 352.420415 296.70219 
L 353.211483 296.610219 
L 358.748963 296.518248 
L 362.704306 296.30365 
L 363.495375 296.272993 
L 364.286443 296.181022 
L 366.264115 296.089051 
L 368.241786 296.027737 
L 370.219458 295.935766 
L 372.197129 295.874453 
L 375.756938 295.782482 
L 378.130144 295.690511 
L 383.667624 295.59854 
L 388.018501 295.353285 
L 389.600638 295.291971 
L 390.787241 295.2 
L 396.324721 295.108029 
L 398.697927 295.016058 
L 405.817544 294.924088 
L 407.399681 294.893431 
L 412.146093 294.832117 
L 412.937161 294.770803 
L 418.474641 294.678832 
L 420.056778 294.648175 
L 430.34067 294.556204 
L 432.713876 294.464234 
L 449.326316 294.372263 
L 451.303987 294.310949 
L 461.587879 294.249635 
L 462.378947 294.188321 
L 464.356619 294.127007 
L 465.543222 294.00438 
L 467.916427 293.912409 
L 470.685167 293.789781 
L 474.244976 293.69781 
L 476.222648 293.636496 
L 478.991388 293.544526 
L 482.155662 293.391241 
L 484.133333 293.29927 
L 485.71547 293.268613 
L 492.439553 293.176642 
L 494.812759 293.084672 
L 499.163636 292.992701 
L 501.932376 292.870073 
L 504.701116 292.808759 
L 505.492185 292.747445 
L 514.985008 292.655474 
L 518.940351 292.440876 
L 521.709091 292.348905 
L 526.059968 292.10365 
L 528.828708 292.011679 
L 530.410845 291.981022 
L 533.179585 291.889051 
L 535.157257 291.674453 
L 539.1126 291.582482 
L 539.903668 291.490511 
L 543.859011 291.39854 
L 545.836683 291.337226 
L 550.18756 291.306569 
L 550.978628 291.214599 
L 555.329506 291.122628 
L 556.120574 291.061314 
L 564.822329 290.969343 
L 567.195534 290.877372 
L 573.128549 290.785401 
L 574.710686 290.754745 
L 578.270494 290.693431 
L 579.061563 290.60146 
L 584.203509 290.509489 
L 586.18118 290.448175 
L 593.300797 290.356204 
L 594.4874 290.264234 
L 595.674003 290.172263 
L 596.860606 290.080292 
L 602.79362 289.988321 
L 605.166826 289.89635 
L 615.846252 289.80438 
L 619.406061 289.620438 
L 624.152472 289.559124 
L 624.943541 289.49781 
L 630.876555 289.436496 
L 631.667624 289.375182 
L 636.018501 289.283212 
L 637.600638 289.252555 
L 644.324721 289.160584 
L 645.115789 289.09927 
L 652.235407 289.007299 
L 653.817544 288.976642 
L 657.772887 288.884672 
L 660.541627 288.762044 
L 664.892504 288.670073 
L 667.661244 288.547445 
L 671.221053 288.455474 
L 672.012121 288.394161 
L 680.713876 288.30219 
L 683.087081 288.210219 
L 685.855821 288.118248 
L 687.833493 288.056934 
L 699.303987 287.964964 
L 701.677193 287.872993 
L 708.005742 287.781022 
L 710.378947 287.689051 
L 715.520893 287.59708 
L 717.894099 287.505109 
L 721.058373 287.413139 
L 723.431579 287.321168 
L 739.252951 287.229197 
L 742.417225 287.075912 
L 747.163636 287.045255 
L 747.163636 287.045255 
" clip-path="url(#p9a2428ebd4)" style="fill: none; stroke: #ff7f0e; stroke-width: 1.5; stroke-linecap: square"/>
   </g>
   <g id="patch_3">
    <path d="M 108 320.4 
L 108 43.2 
" style="fill: none; stroke: #a9a9a9; stroke-width: 0.8; stroke-linejoin: miter; stroke-linecap: square"/>
   </g>
   <g id="patch_4">
    <path d="M 777.6 320.4 
L 777.6 43.2 
" style="fill: none"/>
   </g>
   <g id="patch_5">
    <path d="M 108 320.4 
L 777.6 320.4 
" style="fill: none; stroke: #a9a9a9; stroke-width: 0.8; stroke-linejoin: miter; stroke-linecap: square"/>
   </g>
   <g id="patch_6">
    <path d="M 108 43.2 
L 777.6 43.2 
" style="fill: none"/>
   </g>
   <g id="text_19">
    <!-- get_subscribe history -->
    <g style="fill: #a9a9a9" transform="translate(378.6075 37.2) scale(0.12 -0.12)">
     <defs>
      <path id="DejaVuSans-67" d="M 2906 1791 
Q 2906 2416 2648 2759 
Q 2391 3103 1925 3103 
Q 1463 3103 1205 2759 
Q 947 2416 947 1791 
Q 947 1169 1205 825 
Q 1463 481 1925 481 
Q 2391 481 2648 825 
Q 2906 1169 2906 1791 
z
M 3481 434 
Q 3481 -459 3084 -895 
Q 2688 -1331 1869 -1331 
Q 1566 -1331 1297 -1286 
Q 1028 -1241 775 -1147 
L 775 -588 
Q 1028 -725 1275 -790 
Q 1522 -856 1778 -856 
Q 2344 -856 2625 -561 
Q 2906 -266 2906 331 
L 2906 616 
Q 2728 306 2450 153 
Q 2172 0 1784 0 
Q 1141 0 747 490 
Q 353 981 353 1791 
Q 353 2603 747 3093 
Q 1141 3584 1784 3584 
Q 2172 3584 2450 3431 
Q 2728 3278 2906 2969 
L 2906 3500 
L 3481 3500 
L 3481 434 
z
" transform="scale(0.015625)"/>
      <path id="DejaVuSans-65" d="M 3597 1894 
L 3597 1613 
L 953 1613 
Q 991 1019 1311 708 
Q 1631 397 2203 397 
Q 2534 397 2845 478 
Q 3156 559 3463 722 
L 3463 178 
Q 3153 47 2828 -22 
Q 2503 -91 2169 -91 
Q 1331 -91 842 396 
Q 353 884 353 1716 
Q 353 2575 817 3079 
Q 1281 3584 2069 3584 
Q 2775 3584 3186 3129 
Q 3597 2675 3597 1894 
z
M 3022 2063 
Q 3016 2534 2758 2815 
Q 2500 3097 2075 3097 
Q 1594 3097 1305 2825 
Q 1016 2553 972 2059 
L 3022 2063 
z
" transform="scale(0.015625)"/>
      <path id="DejaVuSans-74" d="M 1172 4494 
L 1172 3500 
L 2356 3500 
L 2356 3053 
L 1172 3053 
L 1172 1153 
Q 1172 725 1289 603 
Q 1406 481 1766 481 
L 2356 481 
L 2356 0 
L 1766 0 
Q 1100 0 847 248 
Q 594 497 594 1153 
L 594 3053 
L 172 3053 
L 172 3500 
L 594 3500 
L 594 4494 
L 1172 4494 
z
" transform="scale(0.015625)"/>
      <path id="DejaVuSans-5f" d="M 3263 -1063 
L 3263 -1509 
L -63 -1509 
L -63 -1063 
L 3263 -1063 
z
" transform="scale(0.015625)"/>
      <path id="DejaVuSans-73" d="M 2834 3397 
L 2834 2853 
Q 2591 2978 2328 3040 
Q 2066 3103 1784 3103 
Q 1356 3103 1142 2972 
Q 928 2841 928 2578 
Q 928 2378 1081 2264 
Q 1234 2150 1697 2047 
L 1894 2003 
Q 2506 1872 2764 1633 
Q 3022 1394 3022 966 
Q 3022 478 2636 193 
Q 2250 -91 1575 -91 
Q 1294 -91 989 -36 
Q 684 19 347 128 
L 347 722 
Q 666 556 975 473 
Q 1284 391 1588 391 
Q 1994 391 2212 530 
Q 2431 669 2431 922 
Q 2431 1156 2273 1281 
Q 2116 1406 1581 1522 
L 1381 1569 
Q 847 1681 609 1914 
Q 372 2147 372 2553 
Q 372 3047 722 3315 
Q 1072 3584 1716 3584 
Q 2034 3584 2315 3537 
Q 2597 3491 2834 3397 
z
" transform="scale(0.015625)"/>
      <path id="DejaVuSans-75" d="M 544 1381 
L 544 3500 
L 1119 3500 
L 1119 1403 
Q 1119 906 1312 657 
Q 1506 409 1894 409 
Q 2359 409 2629 706 
Q 2900 1003 2900 1516 
L 2900 3500 
L 3475 3500 
L 3475 0 
L 2900 0 
L 2900 538 
Q 2691 219 2414 64 
Q 2138 -91 1772 -91 
Q 1169 -91 856 284 
Q 544 659 544 1381 
z
M 1991 3584 
L 1991 3584 
z
" transform="scale(0.015625)"/>
      <path id="DejaVuSans-62" d="M 3116 1747 
Q 3116 2381 2855 2742 
Q 2594 3103 2138 3103 
Q 1681 3103 1420 2742 
Q 1159 2381 1159 1747 
Q 1159 1113 1420 752 
Q 1681 391 2138 391 
Q 2594 391 2855 752 
Q 3116 1113 3116 1747 
z
M 1159 2969 
Q 1341 3281 1617 3432 
Q 1894 3584 2278 3584 
Q 2916 3584 3314 3078 
Q 3713 2572 3713 1747 
Q 3713 922 3314 415 
Q 2916 -91 2278 -91 
Q 1894 -91 1617 61 
Q 1341 213 1159 525 
L 1159 0 
L 581 0 
L 581 4863 
L 1159 4863 
L 1159 2969 
z
" transform="scale(0.015625)"/>
      <path id="DejaVuSans-63" d="M 3122 3366 
L 3122 2828 
Q 2878 2963 2633 3030 
Q 2388 3097 2138 3097 
Q 1578 3097 1268 2742 
Q 959 2388 959 1747 
Q 959 1106 1268 751 
Q 1578 397 2138 397 
Q 2388 397 2633 464 
Q 2878 531 3122 666 
L 3122 134 
Q 2881 22 2623 -34 
Q 2366 -91 2075 -91 
Q 1284 -91 818 406 
Q 353 903 353 1747 
Q 353 2603 823 3093 
Q 1294 3584 2113 3584 
Q 2378 3584 2631 3529 
Q 2884 3475 3122 3366 
z
" transform="scale(0.015625)"/>
      <path id="DejaVuSans-72" d="M 2631 2963 
Q 2534 3019 2420 3045 
Q 2306 3072 2169 3072 
Q 1681 3072 1420 2755 
Q 1159 2438 1159 1844 
L 1159 0 
L 581 0 
L 581 3500 
L 1159 3500 
L 1159 2956 
Q 1341 3275 1631 3429 
Q 1922 3584 2338 3584 
Q 2397 3584 2469 3576 
Q 2541 3569 2628 3553 
L 2631 2963 
z
" transform="scale(0.015625)"/>
      <path id="DejaVuSans-69" d="M 603 3500 
L 1178 3500 
L 1178 0 
L 603 0 
L 603 3500 
z
M 603 4863 
L 1178 4863 
L 1178 4134 
L 603 4134 
L 603 4863 
z
" transform="scale(0.015625)"/>
      <path id="DejaVuSans-20" transform="scale(0.015625)"/>
      <path id="DejaVuSans-68" d="M 3513 2113 
L 3513 0 
L 2938 0 
L 2938 2094 
Q 2938 2591 2744 2837 
Q 2550 3084 2163 3084 
Q 1697 3084 1428 2787 
Q 1159 2491 1159 1978 
L 1159 0 
L 581 0 
L 581 4863 
L 1159 4863 
L 1159 2956 
Q 1366 3272 1645 3428 
Q 1925 3584 2291 3584 
Q 2894 3584 3203 3211 
Q 3513 2838 3513 2113 
z
" transform="scale(0.015625)"/>
      <path id="DejaVuSans-6f" d="M 1959 3097 
Q 1497 3097 1228 2736 
Q 959 2375 959 1747 
Q 959 1119 1226 758 
Q 1494 397 1959 397 
Q 2419 397 2687 759 
Q 2956 1122 2956 1747 
Q 2956 2369 2687 2733 
Q 2419 3097 1959 3097 
z
M 1959 3584 
Q 2709 3584 3137 3096 
Q 3566 2609 3566 1747 
Q 3566 888 3137 398 
Q 2709 -91 1959 -91 
Q 1206 -91 779 398 
Q 353 888 353 1747 
Q 353 2609 779 3096 
Q 1206 3584 1959 3584 
z
" transform="scale(0.015625)"/>
      <path id="DejaVuSans-79" d="M 2059 -325 
Q 1816 -950 1584 -1140 
Q 1353 -1331 966 -1331 
L 506 -1331 
L 506 -850 
L 844 -850 
Q 1081 -850 1212 -737 
Q 1344 -625 1503 -206 
L 1606 56 
L 191 3500 
L 800 3500 
L 1894 763 
L 2988 3500 
L 3597 3500 
L 2059 -325 
z
" transform="scale(0.015625)"/>
     </defs>
     <use xlink:href="#DejaVuSans-67"/>
     <use xlink:href="#DejaVuSans-65" transform="translate(63.476562 0)"/>
     <use xlink:href="#DejaVuSans-74" transform="translate(125 0)"/>
     <use xlink:href="#DejaVuSans-5f" transform="translate(164.208984 0)"/>
     <use xlink:href="#DejaVuSans-73" transform="translate(214.208984 0)"/>
     <use xlink:href="#DejaVuSans-75" transform="translate(266.308594 0)"/>
     <use xlink:href="#DejaVuSans-62" transform="translate(329.6875 0)"/>
     <use xlink:href="#DejaVuSans-73" transform="translate(393.164062 0)"/>
     <use xlink:href="#DejaVuSans-63" transform="translate(445.263672 0)"/>
     <use xlink:href="#DejaVuSans-72" transform="translate(500.244141 0)"/>
     <use xlink:href="#DejaVuSans-69" transform="translate(541.357422 0)"/>
     <use xlink:href="#DejaVuSans-62" transform="translate(569.140625 0)"/>
     <use xlink:href="#DejaVuSans-65" transform="translate(632.617188 0)"/>
     <use xlink:href="#DejaVuSans-20" transform="translate(694.140625 0)"/>
     <use xlink:href="#DejaVuSans-68" transform="translate(725.927734 0)"/>
     <use xlink:href="#DejaVuSans-69" transform="translate(789.306641 0)"/>
     <use xlink:href="#DejaVuSans-73" transform="translate(817.089844 0)"/>
     <use xlink:href="#DejaVuSans-74" transform="translate(869.189453 0)"/>
     <use xlink:href="#DejaVuSans-6f" transform="translate(908.398438 0)"/>
     <use xlink:href="#DejaVuSans-72" transform="translate(969.580078 0)"/>
     <use xlink:href="#DejaVuSans-79" transform="translate(1010.693359 0)"/>
    </g>
   </g>
   <g id="legend_1">
    <g id="line2d_39">
     <path d="M 815.08 328.498438 
L 825.08 328.498438 
L 835.08 328.498438 
" style="fill: none; stroke: #1f77b4; stroke-width: 1.5; stroke-linecap: square"/>
    </g>
    <g id="text_20">
     <!-- star -->
     <g style="fill: #a9a9a9" transform="translate(843.08 331.998438) scale(0.1 -0.1)">
      <defs>
       <path id="DejaVuSans-61" d="M 2194 1759 
Q 1497 1759 1228 1600 
Q 959 1441 959 1056 
Q 959 750 1161 570 
Q 1363 391 1709 391 
Q 2188 391 2477 730 
Q 2766 1069 2766 1631 
L 2766 1759 
L 2194 1759 
z
M 3341 1997 
L 3341 0 
L 2766 0 
L 2766 531 
Q 2569 213 2275 61 
Q 1981 -91 1556 -91 
Q 1019 -91 701 211 
Q 384 513 384 1019 
Q 384 1609 779 1909 
Q 1175 2209 1959 2209 
L 2766 2209 
L 2766 2266 
Q 2766 2663 2505 2880 
Q 2244 3097 1772 3097 
Q 1472 3097 1187 3025 
Q 903 2953 641 2809 
L 641 3341 
Q 956 3463 1253 3523 
Q 1550 3584 1831 3584 
Q 2591 3584 2966 3190 
Q 3341 2797 3341 1997 
z
" transform="scale(0.015625)"/>
      </defs>
      <use xlink:href="#DejaVuSans-73"/>
      <use xlink:href="#DejaVuSans-74" transform="translate(52.099609 0)"/>
      <use xlink:href="#DejaVuSans-61" transform="translate(91.308594 0)"/>
      <use xlink:href="#DejaVuSans-72" transform="translate(152.587891 0)"/>
     </g>
    </g>
    <g id="line2d_40">
     <path d="M 815.08 343.176562 
L 825.08 343.176562 
L 835.08 343.176562 
" style="fill: none; stroke: #ff7f0e; stroke-width: 1.5; stroke-linecap: square"/>
    </g>
    <g id="text_21">
     <!-- fork -->
     <g style="fill: #a9a9a9" transform="translate(843.08 346.676562) scale(0.1 -0.1)">
      <defs>
       <path id="DejaVuSans-66" d="M 2375 4863 
L 2375 4384 
L 1825 4384 
Q 1516 4384 1395 4259 
Q 1275 4134 1275 3809 
L 1275 3500 
L 2222 3500 
L 2222 3053 
L 1275 3053 
L 1275 0 
L 697 0 
L 697 3053 
L 147 3053 
L 147 3500 
L 697 3500 
L 697 3744 
Q 697 4328 969 4595 
Q 1241 4863 1831 4863 
L 2375 4863 
z
" transform="scale(0.015625)"/>
       <path id="DejaVuSans-6b" d="M 581 4863 
L 1159 4863 
L 1159 1991 
L 2875 3500 
L 3609 3500 
L 1753 1863 
L 3688 0 
L 2938 0 
L 1159 1709 
L 1159 0 
L 581 0 
L 581 4863 
z
" transform="scale(0.015625)"/>
      </defs>
      <use xlink:href="#DejaVuSans-66"/>
      <use xlink:href="#DejaVuSans-6f" transform="translate(35.205078 0)"/>
      <use xlink:href="#DejaVuSans-72" transform="translate(96.386719 0)"/>
      <use xlink:href="#DejaVuSans-6b" transform="translate(137.5 0)"/>
     </g>
    </g>
   </g>
  </g>
 </g>
 <defs>
  <clipPath id="p9a2428ebd4">
   <rect x="108" y="43.2" width="669.6" height="277.2"/>
  </clipPath>
 </defs>
</svg>
