<?xml version="1.0" encoding="utf-8" standalone="no"?>
<!DOCTYPE svg PUBLIC "-//W3C//DTD SVG 1.1//EN"
  "http://www.w3.org/Graphics/SVG/1.1/DTD/svg11.dtd">
<svg xmlns:xlink="http://www.w3.org/1999/xlink" width="864pt" height="360pt" viewBox="0 0 864 360" xmlns="http://www.w3.org/2000/svg" version="1.1">
 <metadata>
  <rdf:RDF xmlns:dc="http://purl.org/dc/elements/1.1/" xmlns:cc="http://creativecommons.org/ns#" xmlns:rdf="http://www.w3.org/1999/02/22-rdf-syntax-ns#">
   <cc:Work>
    <dc:type rdf:resource="http://purl.org/dc/dcmitype/StillImage"/>
    <dc:date>2026-06-09T08:41:00.012966</dc:date>
    <dc:format>image/svg+xml</dc:format>
    <dc:creator>
     <cc:Agent>
      <dc:title>Matplotlib v3.10.9, https://matplotlib.org/</dc:title>
     </cc:Agent>
    </dc:creator>
   </cc:Work>
  </rdf:RDF>
 </metadata>
 <defs>
  <style type="text/css">*{stroke-linejoin: round; stroke-linecap: butt}</style>
 </defs>
 <g id="figure_1">
  <g id="patch_1">
   <path d="M 0 360 
L 864 360 
L 864 0 
L 0 0 
L 0 360 
z
" style="fill: none; opacity: 0"/>
  </g>
  <g id="axes_1">
   <g id="patch_2">
    <path d="M 108 320.4 
L 777.6 320.4 
L 777.6 43.2 
L 108 43.2 
L 108 320.4 
z
" style="fill: none; opacity: 0"/>
   </g>
   <g id="matplotlib.axis_1">
    <g id="xtick_1">
     <g id="line2d_1">
      <path d="M 193.464489 320.4 
L 193.464489 43.2 
" clip-path="url(#p1b6153128d)" style="fill: none; stroke-dasharray: 5.12,1.28,0.8,1.28; stroke-dashoffset: 0; stroke: #b0b0b0; stroke-width: 0.8"/>
     </g>
     <g id="line2d_2">
      <defs>
       <path id="mefd242d7b6" d="M 0 0 
L 0 3.5 
" style="stroke: #a9a9a9; stroke-width: 0.8"/>
      </defs>
      <g>
       <use xlink:href="#mefd242d7b6" x="193.464489" y="320.4" style="fill: #a9a9a9; stroke: #a9a9a9; stroke-width: 0.8"/>
      </g>
     </g>
     <g id="text_1">
      <!-- 2022 -->
      <g style="fill: #a9a9a9" transform="translate(180.739489 334.998438) scale(0.1 -0.1)">
       <defs>
        <path id="DejaVuSans-32" d="M 1228 531 
L 3431 531 
L 3431 0 
L 469 0 
L 469 531 
Q 828 903 1448 1529 
Q 2069 2156 2228 2338 
Q 2531 2678 2651 2914 
Q 2772 3150 2772 3378 
Q 2772 3750 2511 3984 
Q 2250 4219 1831 4219 
Q 1534 4219 1204 4116 
Q 875 4013 500 3803 
L 500 4441 
Q 881 4594 1212 4672 
Q 1544 4750 1819 4750 
Q 2544 4750 2975 4387 
Q 3406 4025 3406 3419 
Q 3406 3131 3298 2873 
Q 3191 2616 2906 2266 
Q 2828 2175 2409 1742 
Q 1991 1309 1228 531 
z
" transform="scale(0.015625)"/>
        <path id="DejaVuSans-30" d="M 2034 4250 
Q 1547 4250 1301 3770 
Q 1056 3291 1056 2328 
Q 1056 1369 1301 889 
Q 1547 409 2034 409 
Q 2525 409 2770 889 
Q 3016 1369 3016 2328 
Q 3016 3291 2770 3770 
Q 2525 4250 2034 4250 
z
M 2034 4750 
Q 2819 4750 3233 4129 
Q 3647 3509 3647 2328 
Q 3647 1150 3233 529 
Q 2819 -91 2034 -91 
Q 1250 -91 836 529 
Q 422 1150 422 2328 
Q 422 3509 836 4129 
Q 1250 4750 2034 4750 
z
" transform="scale(0.015625)"/>
       </defs>
       <use xlink:href="#DejaVuSans-32"/>
       <use xlink:href="#DejaVuSans-30" transform="translate(63.623047 0)"/>
       <use xlink:href="#DejaVuSans-32" transform="translate(127.246094 0)"/>
       <use xlink:href="#DejaVuSans-32" transform="translate(190.869141 0)"/>
      </g>
     </g>
    </g>
    <g id="xtick_2">
     <g id="line2d_3">
      <path d="M 318.217692 320.4 
L 318.217692 43.2 
" clip-path="url(#p1b6153128d)" style="fill: none; stroke-dasharray: 5.12,1.28,0.8,1.28; stroke-dashoffset: 0; stroke: #b0b0b0; stroke-width: 0.8"/>
     </g>
     <g id="line2d_4">
      <g>
       <use xlink:href="#mefd242d7b6" x="318.217692" y="320.4" style="fill: #a9a9a9; stroke: #a9a9a9; stroke-width: 0.8"/>
      </g>
     </g>
     <g id="text_2">
      <!-- 2023 -->
      <g style="fill: #a9a9a9" transform="translate(305.492692 334.998438) scale(0.1 -0.1)">
       <defs>
        <path id="DejaVuSans-33" d="M 2597 2516 
Q 3050 2419 3304 2112 
Q 3559 1806 3559 1356 
Q 3559 666 3084 287 
Q 2609 -91 1734 -91 
Q 1441 -91 1130 -33 
Q 819 25 488 141 
L 488 750 
Q 750 597 1062 519 
Q 1375 441 1716 441 
Q 2309 441 2620 675 
Q 2931 909 2931 1356 
Q 2931 1769 2642 2001 
Q 2353 2234 1838 2234 
L 1294 2234 
L 1294 2753 
L 1863 2753 
Q 2328 2753 2575 2939 
Q 2822 3125 2822 3475 
Q 2822 3834 2567 4026 
Q 2313 4219 1838 4219 
Q 1578 4219 1281 4162 
Q 984 4106 628 3988 
L 628 4550 
Q 988 4650 1302 4700 
Q 1616 4750 1894 4750 
Q 2613 4750 3031 4423 
Q 3450 4097 3450 3541 
Q 3450 3153 3228 2886 
Q 3006 2619 2597 2516 
z
" transform="scale(0.015625)"/>
       </defs>
       <use xlink:href="#DejaVuSans-32"/>
       <use xlink:href="#DejaVuSans-30" transform="translate(63.623047 0)"/>
       <use xlink:href="#DejaVuSans-32" transform="translate(127.246094 0)"/>
       <use xlink:href="#DejaVuSans-33" transform="translate(190.869141 0)"/>
      </g>
     </g>
    </g>
    <g id="xtick_3">
     <g id="line2d_5">
      <path d="M 442.970895 320.4 
L 442.970895 43.2 
" clip-path="url(#p1b6153128d)" style="fill: none; stroke-dasharray: 5.12,1.28,0.8,1.28; stroke-dashoffset: 0; stroke: #b0b0b0; stroke-width: 0.8"/>
     </g>
     <g id="line2d_6">
      <g>
       <use xlink:href="#mefd242d7b6" x="442.970895" y="320.4" style="fill: #a9a9a9; stroke: #a9a9a9; stroke-width: 0.8"/>
      </g>
     </g>
     <g id="text_3">
      <!-- 2024 -->
      <g style="fill: #a9a9a9" transform="translate(430.245895 334.998438) scale(0.1 -0.1)">
       <defs>
        <path id="DejaVuSans-34" d="M 2419 4116 
L 825 1625 
L 2419 1625 
L 2419 4116 
z
M 2253 4666 
L 3047 4666 
L 3047 1625 
L 3713 1625 
L 3713 1100 
L 3047 1100 
L 3047 0 
L 2419 0 
L 2419 1100 
L 313 1100 
L 313 1709 
L 2253 4666 
z
" transform="scale(0.015625)"/>
       </defs>
       <use xlink:href="#DejaVuSans-32"/>
       <use xlink:href="#DejaVuSans-30" transform="translate(63.623047 0)"/>
       <use xlink:href="#DejaVuSans-32" transform="translate(127.246094 0)"/>
       <use xlink:href="#DejaVuSans-34" transform="translate(190.869141 0)"/>
      </g>
     </g>
    </g>
    <g id="xtick_4">
     <g id="line2d_7">
      <path d="M 568.065887 320.4 
L 568.065887 43.2 
" clip-path="url(#p1b6153128d)" style="fill: none; stroke-dasharray: 5.12,1.28,0.8,1.28; stroke-dashoffset: 0; stroke: #b0b0b0; stroke-width: 0.8"/>
     </g>
     <g id="line2d_8">
      <g>
       <use xlink:href="#mefd242d7b6" x="568.065887" y="320.4" style="fill: #a9a9a9; stroke: #a9a9a9; stroke-width: 0.8"/>
      </g>
     </g>
     <g id="text_4">
      <!-- 2025 -->
      <g style="fill: #a9a9a9" transform="translate(555.340887 334.998438) scale(0.1 -0.1)">
       <defs>
        <path id="DejaVuSans-35" d="M 691 4666 
L 3169 4666 
L 3169 4134 
L 1269 4134 
L 1269 2991 
Q 1406 3038 1543 3061 
Q 1681 3084 1819 3084 
Q 2600 3084 3056 2656 
Q 3513 2228 3513 1497 
Q 3513 744 3044 326 
Q 2575 -91 1722 -91 
Q 1428 -91 1123 -41 
Q 819 9 494 109 
L 494 744 
Q 775 591 1075 516 
Q 1375 441 1709 441 
Q 2250 441 2565 725 
Q 2881 1009 2881 1497 
Q 2881 1984 2565 2268 
Q 2250 2553 1709 2553 
Q 1456 2553 1204 2497 
Q 953 2441 691 2322 
L 691 4666 
z
" transform="scale(0.015625)"/>
       </defs>
       <use xlink:href="#DejaVuSans-32"/>
       <use xlink:href="#DejaVuSans-30" transform="translate(63.623047 0)"/>
       <use xlink:href="#DejaVuSans-32" transform="translate(127.246094 0)"/>
       <use xlink:href="#DejaVuSans-35" transform="translate(190.869141 0)"/>
      </g>
     </g>
    </g>
    <g id="xtick_5">
     <g id="line2d_9">
      <path d="M 692.81909 320.4 
L 692.81909 43.2 
" clip-path="url(#p1b6153128d)" style="fill: none; stroke-dasharray: 5.12,1.28,0.8,1.28; stroke-dashoffset: 0; stroke: #b0b0b0; stroke-width: 0.8"/>
     </g>
     <g id="line2d_10">
      <g>
       <use xlink:href="#mefd242d7b6" x="692.81909" y="320.4" style="fill: #a9a9a9; stroke: #a9a9a9; stroke-width: 0.8"/>
      </g>
     </g>
     <g id="text_5">
      <!-- 2026 -->
      <g style="fill: #a9a9a9" transform="translate(680.09409 334.998438) scale(0.1 -0.1)">
       <defs>
        <path id="DejaVuSans-36" d="M 2113 2584 
Q 1688 2584 1439 2293 
Q 1191 2003 1191 1497 
Q 1191 994 1439 701 
Q 1688 409 2113 409 
Q 2538 409 2786 701 
Q 3034 994 3034 1497 
Q 3034 2003 2786 2293 
Q 2538 2584 2113 2584 
z
M 3366 4563 
L 3366 3988 
Q 3128 4100 2886 4159 
Q 2644 4219 2406 4219 
Q 1781 4219 1451 3797 
Q 1122 3375 1075 2522 
Q 1259 2794 1537 2939 
Q 1816 3084 2150 3084 
Q 2853 3084 3261 2657 
Q 3669 2231 3669 1497 
Q 3669 778 3244 343 
Q 2819 -91 2113 -91 
Q 1303 -91 875 529 
Q 447 1150 447 2328 
Q 447 3434 972 4092 
Q 1497 4750 2381 4750 
Q 2619 4750 2861 4703 
Q 3103 4656 3366 4563 
z
" transform="scale(0.015625)"/>
       </defs>
       <use xlink:href="#DejaVuSans-32"/>
       <use xlink:href="#DejaVuSans-30" transform="translate(63.623047 0)"/>
       <use xlink:href="#DejaVuSans-32" transform="translate(127.246094 0)"/>
       <use xlink:href="#DejaVuSans-36" transform="translate(190.869141 0)"/>
      </g>
     </g>
    </g>
   </g>
   <g id="matplotlib.axis_2">
    <g id="ytick_1">
     <g id="line2d_11">
      <path d="M 108 307.82796 
L 777.6 307.82796 
" clip-path="url(#p1b6153128d)" style="fill: none; stroke-dasharray: 5.12,1.28,0.8,1.28; stroke-dashoffset: 0; stroke: #b0b0b0; stroke-width: 0.8"/>
     </g>
     <g id="line2d_12">
      <defs>
       <path id="m161e050d1b" d="M 0 0 
L -3.5 0 
" style="stroke: #a9a9a9; stroke-width: 0.8"/>
      </defs>
      <g>
       <use xlink:href="#m161e050d1b" x="108" y="307.82796" style="fill: #a9a9a9; stroke: #a9a9a9; stroke-width: 0.8"/>
      </g>
     </g>
     <g id="text_6">
      <!-- 0 -->
      <g style="fill: #a9a9a9" transform="translate(94.6375 311.627178) scale(0.1 -0.1)">
       <use xlink:href="#DejaVuSans-30"/>
      </g>
     </g>
    </g>
    <g id="ytick_2">
     <g id="line2d_13">
      <path d="M 108 279.868346 
L 777.6 279.868346 
" clip-path="url(#p1b6153128d)" style="fill: none; stroke-dasharray: 5.12,1.28,0.8,1.28; stroke-dashoffset: 0; stroke: #b0b0b0; stroke-width: 0.8"/>
     </g>
     <g id="line2d_14">
      <g>
       <use xlink:href="#m161e050d1b" x="108" y="279.868346" style="fill: #a9a9a9; stroke: #a9a9a9; stroke-width: 0.8"/>
      </g>
     </g>
     <g id="text_7">
      <!-- 1000 -->
      <g style="fill: #a9a9a9" transform="translate(75.55 283.667564) scale(0.1 -0.1)">
       <defs>
        <path id="DejaVuSans-31" d="M 794 531 
L 1825 531 
L 1825 4091 
L 703 3866 
L 703 4441 
L 1819 4666 
L 2450 4666 
L 2450 531 
L 3481 531 
L 3481 0 
L 794 0 
L 794 531 
z
" transform="scale(0.015625)"/>
       </defs>
       <use xlink:href="#DejaVuSans-31"/>
       <use xlink:href="#DejaVuSans-30" transform="translate(63.623047 0)"/>
       <use xlink:href="#DejaVuSans-30" transform="translate(127.246094 0)"/>
       <use xlink:href="#DejaVuSans-30" transform="translate(190.869141 0)"/>
      </g>
     </g>
    </g>
    <g id="ytick_3">
     <g id="line2d_15">
      <path d="M 108 251.908732 
L 777.6 251.908732 
" clip-path="url(#p1b6153128d)" style="fill: none; stroke-dasharray: 5.12,1.28,0.8,1.28; stroke-dashoffset: 0; stroke: #b0b0b0; stroke-width: 0.8"/>
     </g>
     <g id="line2d_16">
      <g>
       <use xlink:href="#m161e050d1b" x="108" y="251.908732" style="fill: #a9a9a9; stroke: #a9a9a9; stroke-width: 0.8"/>
      </g>
     </g>
     <g id="text_8">
      <!-- 2000 -->
      <g style="fill: #a9a9a9" transform="translate(75.55 255.707951) scale(0.1 -0.1)">
       <use xlink:href="#DejaVuSans-32"/>
       <use xlink:href="#DejaVuSans-30" transform="translate(63.623047 0)"/>
       <use xlink:href="#DejaVuSans-30" transform="translate(127.246094 0)"/>
       <use xlink:href="#DejaVuSans-30" transform="translate(190.869141 0)"/>
      </g>
     </g>
    </g>
    <g id="ytick_4">
     <g id="line2d_17">
      <path d="M 108 223.949118 
L 777.6 223.949118 
" clip-path="url(#p1b6153128d)" style="fill: none; stroke-dasharray: 5.12,1.28,0.8,1.28; stroke-dashoffset: 0; stroke: #b0b0b0; stroke-width: 0.8"/>
     </g>
     <g id="line2d_18">
      <g>
       <use xlink:href="#m161e050d1b" x="108" y="223.949118" style="fill: #a9a9a9; stroke: #a9a9a9; stroke-width: 0.8"/>
      </g>
     </g>
     <g id="text_9">
      <!-- 3000 -->
      <g style="fill: #a9a9a9" transform="translate(75.55 227.748337) scale(0.1 -0.1)">
       <use xlink:href="#DejaVuSans-33"/>
       <use xlink:href="#DejaVuSans-30" transform="translate(63.623047 0)"/>
       <use xlink:href="#DejaVuSans-30" transform="translate(127.246094 0)"/>
       <use xlink:href="#DejaVuSans-30" transform="translate(190.869141 0)"/>
      </g>
     </g>
    </g>
    <g id="ytick_5">
     <g id="line2d_19">
      <path d="M 108 195.989504 
L 777.6 195.989504 
" clip-path="url(#p1b6153128d)" style="fill: none; stroke-dasharray: 5.12,1.28,0.8,1.28; stroke-dashoffset: 0; stroke: #b0b0b0; stroke-width: 0.8"/>
     </g>
     <g id="line2d_20">
      <g>
       <use xlink:href="#m161e050d1b" x="108" y="195.989504" style="fill: #a9a9a9; stroke: #a9a9a9; stroke-width: 0.8"/>
      </g>
     </g>
     <g id="text_10">
      <!-- 4000 -->
      <g style="fill: #a9a9a9" transform="translate(75.55 199.788723) scale(0.1 -0.1)">
       <use xlink:href="#DejaVuSans-34"/>
       <use xlink:href="#DejaVuSans-30" transform="translate(63.623047 0)"/>
       <use xlink:href="#DejaVuSans-30" transform="translate(127.246094 0)"/>
       <use xlink:href="#DejaVuSans-30" transform="translate(190.869141 0)"/>
      </g>
     </g>
    </g>
    <g id="ytick_6">
     <g id="line2d_21">
      <path d="M 108 168.02989 
L 777.6 168.02989 
" clip-path="url(#p1b6153128d)" style="fill: none; stroke-dasharray: 5.12,1.28,0.8,1.28; stroke-dashoffset: 0; stroke: #b0b0b0; stroke-width: 0.8"/>
     </g>
     <g id="line2d_22">
      <g>
       <use xlink:href="#m161e050d1b" x="108" y="168.02989" style="fill: #a9a9a9; stroke: #a9a9a9; stroke-width: 0.8"/>
      </g>
     </g>
     <g id="text_11">
      <!-- 5000 -->
      <g style="fill: #a9a9a9" transform="translate(75.55 171.829109) scale(0.1 -0.1)">
       <use xlink:href="#DejaVuSans-35"/>
       <use xlink:href="#DejaVuSans-30" transform="translate(63.623047 0)"/>
       <use xlink:href="#DejaVuSans-30" transform="translate(127.246094 0)"/>
       <use xlink:href="#DejaVuSans-30" transform="translate(190.869141 0)"/>
      </g>
     </g>
    </g>
    <g id="ytick_7">
     <g id="line2d_23">
      <path d="M 108 140.070276 
L 777.6 140.070276 
" clip-path="url(#p1b6153128d)" style="fill: none; stroke-dasharray: 5.12,1.28,0.8,1.28; stroke-dashoffset: 0; stroke: #b0b0b0; stroke-width: 0.8"/>
     </g>
     <g id="line2d_24">
      <g>
       <use xlink:href="#m161e050d1b" x="108" y="140.070276" style="fill: #a9a9a9; stroke: #a9a9a9; stroke-width: 0.8"/>
      </g>
     </g>
     <g id="text_12">
      <!-- 6000 -->
      <g style="fill: #a9a9a9" transform="translate(75.55 143.869495) scale(0.1 -0.1)">
       <use xlink:href="#DejaVuSans-36"/>
       <use xlink:href="#DejaVuSans-30" transform="translate(63.623047 0)"/>
       <use xlink:href="#DejaVuSans-30" transform="translate(127.246094 0)"/>
       <use xlink:href="#DejaVuSans-30" transform="translate(190.869141 0)"/>
      </g>
     </g>
    </g>
    <g id="ytick_8">
     <g id="line2d_25">
      <path d="M 108 112.110662 
L 777.6 112.110662 
" clip-path="url(#p1b6153128d)" style="fill: none; stroke-dasharray: 5.12,1.28,0.8,1.28; stroke-dashoffset: 0; stroke: #b0b0b0; stroke-width: 0.8"/>
     </g>
     <g id="line2d_26">
      <g>
       <use xlink:href="#m161e050d1b" x="108" y="112.110662" style="fill: #a9a9a9; stroke: #a9a9a9; stroke-width: 0.8"/>
      </g>
     </g>
     <g id="text_13">
      <!-- 7000 -->
      <g style="fill: #a9a9a9" transform="translate(75.55 115.909881) scale(0.1 -0.1)">
       <defs>
        <path id="DejaVuSans-37" d="M 525 4666 
L 3525 4666 
L 3525 4397 
L 1831 0 
L 1172 0 
L 2766 4134 
L 525 4134 
L 525 4666 
z
" transform="scale(0.015625)"/>
       </defs>
       <use xlink:href="#DejaVuSans-37"/>
       <use xlink:href="#DejaVuSans-30" transform="translate(63.623047 0)"/>
       <use xlink:href="#DejaVuSans-30" transform="translate(127.246094 0)"/>
       <use xlink:href="#DejaVuSans-30" transform="translate(190.869141 0)"/>
      </g>
     </g>
    </g>
    <g id="ytick_9">
     <g id="line2d_27">
      <path d="M 108 84.151048 
L 777.6 84.151048 
" clip-path="url(#p1b6153128d)" style="fill: none; stroke-dasharray: 5.12,1.28,0.8,1.28; stroke-dashoffset: 0; stroke: #b0b0b0; stroke-width: 0.8"/>
     </g>
     <g id="line2d_28">
      <g>
       <use xlink:href="#m161e050d1b" x="108" y="84.151048" style="fill: #a9a9a9; stroke: #a9a9a9; stroke-width: 0.8"/>
      </g>
     </g>
     <g id="text_14">
      <!-- 8000 -->
      <g style="fill: #a9a9a9" transform="translate(75.55 87.950267) scale(0.1 -0.1)">
       <defs>
        <path id="DejaVuSans-38" d="M 2034 2216 
Q 1584 2216 1326 1975 
Q 1069 1734 1069 1313 
Q 1069 891 1326 650 
Q 1584 409 2034 409 
Q 2484 409 2743 651 
Q 3003 894 3003 1313 
Q 3003 1734 2745 1975 
Q 2488 2216 2034 2216 
z
M 1403 2484 
Q 997 2584 770 2862 
Q 544 3141 544 3541 
Q 544 4100 942 4425 
Q 1341 4750 2034 4750 
Q 2731 4750 3128 4425 
Q 3525 4100 3525 3541 
Q 3525 3141 3298 2862 
Q 3072 2584 2669 2484 
Q 3125 2378 3379 2068 
Q 3634 1759 3634 1313 
Q 3634 634 3220 271 
Q 2806 -91 2034 -91 
Q 1263 -91 848 271 
Q 434 634 434 1313 
Q 434 1759 690 2068 
Q 947 2378 1403 2484 
z
M 1172 3481 
Q 1172 3119 1398 2916 
Q 1625 2713 2034 2713 
Q 2441 2713 2670 2916 
Q 2900 3119 2900 3481 
Q 2900 3844 2670 4047 
Q 2441 4250 2034 4250 
Q 1625 4250 1398 4047 
Q 1172 3844 1172 3481 
z
" transform="scale(0.015625)"/>
       </defs>
       <use xlink:href="#DejaVuSans-38"/>
       <use xlink:href="#DejaVuSans-30" transform="translate(63.623047 0)"/>
       <use xlink:href="#DejaVuSans-30" transform="translate(127.246094 0)"/>
       <use xlink:href="#DejaVuSans-30" transform="translate(190.869141 0)"/>
      </g>
     </g>
    </g>
    <g id="ytick_10">
     <g id="line2d_29">
      <path d="M 108 56.191435 
L 777.6 56.191435 
" clip-path="url(#p1b6153128d)" style="fill: none; stroke-dasharray: 5.12,1.28,0.8,1.28; stroke-dashoffset: 0; stroke: #b0b0b0; stroke-width: 0.8"/>
     </g>
     <g id="line2d_30">
      <g>
       <use xlink:href="#m161e050d1b" x="108" y="56.191435" style="fill: #a9a9a9; stroke: #a9a9a9; stroke-width: 0.8"/>
      </g>
     </g>
     <g id="text_15">
      <!-- 9000 -->
      <g style="fill: #a9a9a9" transform="translate(75.55 59.990653) scale(0.1 -0.1)">
       <defs>
        <path id="DejaVuSans-39" d="M 703 97 
L 703 672 
Q 941 559 1184 500 
Q 1428 441 1663 441 
Q 2288 441 2617 861 
Q 2947 1281 2994 2138 
Q 2813 1869 2534 1725 
Q 2256 1581 1919 1581 
Q 1219 1581 811 2004 
Q 403 2428 403 3163 
Q 403 3881 828 4315 
Q 1253 4750 1959 4750 
Q 2769 4750 3195 4129 
Q 3622 3509 3622 2328 
Q 3622 1225 3098 567 
Q 2575 -91 1691 -91 
Q 1453 -91 1209 -44 
Q 966 3 703 97 
z
M 1959 2075 
Q 2384 2075 2632 2365 
Q 2881 2656 2881 3163 
Q 2881 3666 2632 3958 
Q 2384 4250 1959 4250 
Q 1534 4250 1286 3958 
Q 1038 3666 1038 3163 
Q 1038 2656 1286 2365 
Q 1534 2075 1959 2075 
z
" transform="scale(0.015625)"/>
       </defs>
       <use xlink:href="#DejaVuSans-39"/>
       <use xlink:href="#DejaVuSans-30" transform="translate(63.623047 0)"/>
       <use xlink:href="#DejaVuSans-30" transform="translate(127.246094 0)"/>
       <use xlink:href="#DejaVuSans-30" transform="translate(190.869141 0)"/>
      </g>
     </g>
    </g>
   </g>
   <g id="line2d_31">
    <path d="M 138.436364 307.744081 
L 140.487101 307.548363 
L 140.828891 307.380606 
L 142.196049 307.184888 
L 146.297524 306.429979 
L 146.639314 306.31814 
L 146.981104 305.814867 
L 147.322893 305.563231 
L 147.664683 304.724442 
L 148.006472 304.668523 
L 151.424368 302.236037 
L 152.791527 301.537046 
L 153.133316 300.949895 
L 153.816896 300.390702 
L 154.500475 300.167025 
L 155.525843 299.999268 
L 164.412373 298.489449 
L 164.754163 298.293731 
L 165.437742 298.070054 
L 167.14669 297.734539 
L 167.830269 297.594741 
L 171.589955 296.867791 
L 172.615323 296.588195 
L 173.982482 296.392478 
L 174.666061 296.168801 
L 175.007851 295.637568 
L 176.033219 295.190214 
L 177.058588 294.882658 
L 177.400378 294.686941 
L 178.083957 294.547143 
L 179.792905 294.099789 
L 180.818274 293.848153 
L 182.185432 293.512637 
L 182.527222 293.484678 
L 183.210801 293.149162 
L 183.55259 293.093243 
L 183.89438 292.897526 
L 188.337645 292.086697 
L 189.704803 291.443626 
L 190.388382 291.247909 
L 191.071962 290.940353 
L 191.755541 290.43708 
L 193.464489 290.045645 
L 194.148068 289.794009 
L 194.489858 289.738089 
L 195.173437 289.374614 
L 197.907754 288.619705 
L 198.933122 288.200311 
L 199.274912 288.144391 
L 199.958491 287.836836 
L 200.64207 287.808876 
L 201.667439 287.473361 
L 202.009229 287.473361 
L 202.351018 287.305603 
L 203.034598 287.221724 
L 203.376387 287.081926 
L 205.085335 286.998047 
L 205.427125 286.914168 
L 206.110704 286.522734 
L 207.136073 286.131299 
L 207.819652 285.739865 
L 208.845021 285.264551 
L 210.212179 284.565561 
L 210.553969 284.174126 
L 211.237548 282.999822 
L 212.262917 282.664307 
L 212.604706 282.384711 
L 213.630075 282.021236 
L 213.971865 281.657761 
L 214.997233 281.210407 
L 215.339023 281.01469 
L 217.389761 278.498325 
L 218.07334 278.162809 
L 219.440498 277.156263 
L 220.124077 276.65299 
L 220.465867 276.121757 
L 220.807657 275.255009 
L 221.149446 274.695817 
L 223.200184 272.990281 
L 224.225553 272.039654 
L 224.909132 271.116987 
L 225.592711 270.585754 
L 226.61808 269.886764 
L 226.959869 269.551248 
L 227.643449 269.327571 
L 228.668817 268.6845 
L 229.694186 267.929591 
L 231.061344 266.587529 
L 231.744924 266.279973 
L 232.428503 265.7767 
L 232.770292 265.580983 
L 233.112082 265.525064 
L 234.137451 264.909952 
L 234.47924 264.490558 
L 236.188188 263.484012 
L 236.529978 263.344214 
L 237.555347 262.561345 
L 242.682191 260.548253 
L 243.36577 259.849262 
L 244.391139 259.29007 
L 245.074718 258.814756 
L 245.758297 258.59108 
L 246.100087 258.339443 
L 246.441876 258.227605 
L 247.467245 257.472695 
L 249.517983 256.857583 
L 250.201562 256.41023 
L 251.56872 256.074714 
L 252.594089 255.291845 
L 253.961248 254.872451 
L 254.644827 254.453057 
L 255.670195 254.033662 
L 257.037354 253.698147 
L 257.720933 253.390591 
L 260.11346 252.439964 
L 260.797039 252.356086 
L 262.164198 251.796893 
L 265.923883 249.755842 
L 266.607463 249.420326 
L 267.291042 249.084811 
L 267.974621 248.945013 
L 268.6582 248.497659 
L 269.341779 248.301942 
L 270.367148 247.854588 
L 272.076096 247.463153 
L 272.417886 247.267436 
L 272.759675 246.931921 
L 273.101465 246.26089 
L 274.468623 245.869455 
L 275.835782 245.198424 
L 278.911888 243.716565 
L 279.595467 243.548807 
L 280.620836 242.989615 
L 281.304415 242.765938 
L 282.329784 242.262665 
L 283.355153 241.507755 
L 285.064101 241.17224 
L 285.74768 240.892644 
L 286.08947 240.864684 
L 286.431259 240.585088 
L 287.114838 240.333452 
L 288.823786 239.578542 
L 289.165576 239.298946 
L 289.507366 239.187108 
L 290.190945 238.767713 
L 291.899893 238.096683 
L 293.95063 236.530944 
L 294.29242 236.475025 
L 294.63421 235.859913 
L 294.975999 235.720115 
L 295.317789 235.41256 
L 295.659578 235.35664 
L 296.343158 234.881327 
L 297.026737 234.62969 
L 298.735685 233.483346 
L 301.470002 232.141285 
L 301.811791 231.498214 
L 302.49537 230.939021 
L 303.17895 230.659425 
L 303.520739 230.407789 
L 303.862529 230.32391 
L 304.546108 229.960435 
L 305.913266 229.233485 
L 306.596845 228.590414 
L 307.280425 227.975302 
L 307.964004 227.527949 
L 308.647583 226.884877 
L 309.331162 226.297726 
L 309.672952 226.129968 
L 310.356531 225.403018 
L 311.3819 224.899745 
L 312.065479 224.480351 
L 312.407269 224.368512 
L 312.749058 224.088916 
L 313.090848 224.032997 
L 316.166954 222.35542 
L 316.850533 222.159703 
L 318.217692 221.684389 
L 318.901271 221.209076 
L 320.268429 220.677843 
L 320.952009 220.230489 
L 321.635588 219.950893 
L 322.319167 219.41966 
L 323.002746 217.99372 
L 323.686325 217.154932 
L 324.711694 216.595739 
L 325.395273 216.288184 
L 325.737063 216.232265 
L 326.420642 215.896749 
L 328.12959 215.253678 
L 328.813169 214.778365 
L 329.838538 214.331011 
L 331.205696 213.464263 
L 331.547486 213.212626 
L 332.231065 212.541595 
L 333.256434 212.010363 
L 333.940013 211.590969 
L 335.307172 210.78014 
L 335.648961 210.696261 
L 335.990751 210.416665 
L 338.383278 209.577876 
L 338.725068 209.32624 
L 339.408647 209.102563 
L 343.168332 207.17335 
L 343.851912 206.614157 
L 344.535491 206.41844 
L 344.87728 206.082925 
L 345.21907 206.027005 
L 345.902649 205.467813 
L 347.611597 204.377388 
L 348.295176 204.153711 
L 348.636966 203.930034 
L 349.320545 203.706357 
L 350.345914 203.203084 
L 351.371283 202.839609 
L 352.054862 202.727771 
L 353.080231 202.308377 
L 355.130968 201.665306 
L 356.156337 200.910396 
L 356.839916 200.518962 
L 358.207075 199.819971 
L 359.232443 199.093021 
L 359.916023 198.925264 
L 360.941391 198.254233 
L 364.017498 197.135848 
L 364.701077 196.884212 
L 366.068235 196.576656 
L 366.751815 196.352979 
L 368.460763 195.737868 
L 369.486131 195.402352 
L 370.169711 195.234594 
L 373.587607 194.563564 
L 375.638344 193.976412 
L 376.321923 193.668856 
L 376.663713 193.529058 
L 377.005503 193.529058 
L 382.132346 191.795562 
L 382.474136 191.404127 
L 384.524874 190.48146 
L 385.892032 189.978187 
L 386.233822 189.75451 
L 387.94277 189.223277 
L 388.284559 188.971641 
L 388.626349 188.887762 
L 388.968138 188.580206 
L 389.993507 188.356529 
L 390.677086 188.021014 
L 391.018876 187.57366 
L 397.854668 185.952003 
L 398.196458 185.952003 
L 399.563616 185.504649 
L 405.715829 183.435637 
L 406.057618 183.184001 
L 407.766566 182.652768 
L 409.133725 182.009697 
L 410.500883 181.841939 
L 418.362044 178.738422 
L 420.070992 178.235149 
L 420.754571 177.871674 
L 421.77994 177.620038 
L 423.147098 176.417774 
L 425.539625 175.327349 
L 427.932153 174.236924 
L 428.957521 173.873449 
L 429.98289 173.342217 
L 432.717207 171.888317 
L 433.400786 171.552802 
L 433.742576 171.273205 
L 434.767944 170.825852 
L 436.135103 170.098902 
L 437.502261 169.539709 
L 439.894788 168.617042 
L 440.578368 168.533163 
L 440.920157 168.281527 
L 442.629105 167.890092 
L 444.679843 166.827627 
L 449.123108 164.730656 
L 450.148476 164.367181 
L 450.490266 164.115544 
L 451.173845 164.031665 
L 451.515635 163.807988 
L 452.199214 163.69615 
L 455.958899 162.24225 
L 458.009637 161.627139 
L 459.035006 161.179785 
L 459.718585 160.78835 
L 461.085743 160.033441 
L 461.769323 159.865683 
L 462.111112 159.642006 
L 462.452902 159.586087 
L 464.16185 158.691379 
L 468.605115 156.929923 
L 468.946904 156.874004 
L 470.314063 156.175014 
L 470.997642 156.035216 
L 471.681221 155.615822 
L 473.048379 154.916831 
L 478.517013 152.791901 
L 479.200592 152.484345 
L 480.56775 151.282081 
L 481.593119 150.862687 
L 483.985646 149.632464 
L 484.327436 149.380828 
L 485.011015 149.18511 
L 485.694594 148.793676 
L 486.719963 148.542039 
L 493.213966 145.801997 
L 493.897545 145.494441 
L 495.948282 144.711572 
L 497.65723 143.816865 
L 498.34081 143.593188 
L 498.682599 143.257672 
L 499.707968 142.838278 
L 500.049758 142.782359 
L 501.416916 142.111328 
L 502.442285 141.775813 
L 503.467654 141.384378 
L 504.493022 141.076822 
L 504.834812 141.020903 
L 505.518391 140.629469 
L 505.860181 140.48967 
L 506.20197 140.210074 
L 507.227339 139.930478 
L 507.910918 139.650882 
L 508.594497 139.343326 
L 509.961656 138.756174 
L 512.354183 138.141063 
L 513.037762 137.861467 
L 517.139237 136.799001 
L 519.531765 135.345102 
L 519.873554 135.065505 
L 522.266081 134.282636 
L 522.949661 133.863242 
L 525.342188 132.996494 
L 526.367557 132.660979 
L 527.051136 132.269544 
L 527.734715 132.129746 
L 528.076505 131.934029 
L 529.101873 131.654432 
L 530.469032 130.983402 
L 531.152611 130.703806 
L 532.519769 130.144613 
L 532.861559 129.809098 
L 533.545138 129.585421 
L 534.228717 129.221946 
L 535.595876 128.91439 
L 537.646613 128.355198 
L 537.988403 128.327238 
L 539.013772 127.907844 
L 540.38093 127.51641 
L 541.064509 126.957217 
L 542.431668 126.146389 
L 543.457036 125.810873 
L 546.533143 124.245135 
L 546.874932 123.965539 
L 548.92567 123.350427 
L 549.609249 123.070831 
L 550.634618 122.707356 
L 550.976408 122.3998 
L 553.368935 121.505093 
L 554.394304 121.029779 
L 554.736093 121.00182 
L 555.419672 120.722223 
L 556.786831 120.107112 
L 559.521147 119.324243 
L 560.546516 118.848929 
L 561.913675 118.429535 
L 562.255464 118.429535 
L 562.939043 118.149939 
L 563.622623 117.758504 
L 572.167363 115.046422 
L 572.509152 115.018462 
L 573.876311 114.45927 
L 575.585259 114.095795 
L 576.952417 113.564562 
L 577.635996 113.480683 
L 579.344944 113.145168 
L 580.028523 112.809653 
L 580.712102 112.446178 
L 582.079261 111.998824 
L 586.522526 110.293287 
L 587.547894 109.929812 
L 589.256842 109.007145 
L 589.940422 108.923266 
L 592.332949 108.224276 
L 594.041897 107.860801 
L 600.535899 105.260557 
L 601.219478 105.148719 
L 601.903058 105.00892 
L 602.244847 105.00892 
L 603.270216 104.673405 
L 604.979164 104.170132 
L 606.346322 103.722778 
L 611.131377 102.492555 
L 611.473166 102.240919 
L 612.840325 101.933363 
L 613.523904 101.625807 
L 615.574641 100.898857 
L 616.258221 100.67518 
L 620.701485 99.500877 
L 622.752223 98.773927 
L 623.435802 98.718007 
L 625.828329 98.046977 
L 626.853698 97.683502 
L 627.537277 97.06839 
L 630.613384 95.838167 
L 631.296963 95.726329 
L 634.03128 94.803661 
L 635.056648 94.216509 
L 635.398438 94.132631 
L 635.740228 93.853035 
L 637.449176 93.321802 
L 639.158124 92.538933 
L 639.841703 92.119538 
L 640.183492 92.03566 
L 640.867072 91.644225 
L 643.601388 90.637679 
L 643.943178 90.330123 
L 644.284968 90.274204 
L 644.968547 89.82685 
L 645.993916 89.519294 
L 647.361074 88.932142 
L 647.702864 88.904183 
L 649.411812 88.233152 
L 650.095391 88.093354 
L 650.77897 87.590081 
L 651.12076 87.590081 
L 652.487918 87.086808 
L 653.855076 86.807212 
L 655.222235 86.1921 
L 655.564024 86.1921 
L 657.956551 85.46515 
L 658.640131 84.905958 
L 661.716237 83.759614 
L 663.083395 83.424099 
L 665.475923 82.753068 
L 667.52666 82.026118 
L 668.893819 81.718562 
L 671.286346 81.019572 
L 671.969925 80.879774 
L 674.704242 79.845268 
L 675.387821 79.70547 
L 676.754979 79.453833 
L 677.438559 79.341995 
L 678.805717 78.782803 
L 679.489296 78.587085 
L 680.172875 78.475247 
L 681.540034 78.055853 
L 681.881823 78.055853 
L 682.565402 77.664418 
L 685.641509 76.82563 
L 694.869828 72.967203 
L 695.211618 72.743526 
L 695.553407 72.659647 
L 695.895197 72.43597 
L 696.236986 72.380051 
L 696.920566 71.960657 
L 698.971303 71.541263 
L 699.313093 71.289626 
L 703.072778 69.975524 
L 703.756358 69.612049 
L 705.123516 69.052857 
L 707.516043 68.381826 
L 708.199622 68.269988 
L 708.883201 68.186109 
L 710.592149 67.850594 
L 711.617518 67.291401 
L 712.301097 67.067724 
L 712.984677 66.899967 
L 713.668256 66.760169 
L 714.351835 66.424653 
L 719.478679 64.411561 
L 720.845837 64.076046 
L 721.529417 63.824409 
L 721.871206 63.824409 
L 722.212996 63.656652 
L 723.921944 63.432975 
L 724.263733 63.181338 
L 725.630892 62.845823 
L 725.972681 62.566227 
L 726.314471 62.538267 
L 726.99805 62.230711 
L 727.33984 62.146832 
L 728.023419 61.755398 
L 730.757736 60.469256 
L 731.441315 60.189659 
L 732.466684 59.854144 
L 735.54279 59.015356 
L 736.226369 58.819638 
L 737.251738 58.651881 
L 737.935317 58.372284 
L 739.302476 58.036769 
L 739.986055 57.869011 
L 740.669634 57.645335 
L 741.353213 57.505536 
L 742.036792 57.2539 
L 742.378582 57.114102 
L 743.062161 57.086142 
L 744.771109 56.49899 
L 745.112899 56.163475 
L 746.480057 55.82796 
L 747.163636 55.8 
L 747.163636 55.8 
" clip-path="url(#p1b6153128d)" style="fill: none; stroke: #1f77b4; stroke-width: 1.5; stroke-linecap: square"/>
   </g>
   <g id="line2d_32">
    <path d="M 138.778153 307.8 
L 141.85426 307.716121 
L 144.588576 307.576323 
L 145.955735 307.576323 
L 146.639314 307.464485 
L 154.842264 306.877333 
L 157.576581 306.793454 
L 159.285529 306.737535 
L 163.728794 306.653656 
L 165.437742 306.597737 
L 168.513848 306.513858 
L 169.881007 306.485898 
L 173.298903 306.402019 
L 174.666061 306.290181 
L 176.033219 306.262221 
L 178.083957 306.178342 
L 179.451115 306.150383 
L 181.160063 306.094464 
L 182.527222 305.954665 
L 185.603328 305.870787 
L 186.628697 305.814867 
L 187.654066 305.730989 
L 189.704803 305.64711 
L 191.071962 305.563231 
L 197.224174 305.143837 
L 199.616702 305.087917 
L 200.98386 304.976079 
L 202.351018 304.8922 
L 205.768914 304.696483 
L 209.18681 304.640564 
L 210.553969 304.500766 
L 212.262917 304.416887 
L 215.680813 304.053412 
L 218.07334 303.773816 
L 219.098709 303.717896 
L 221.833025 303.354421 
L 223.883763 303.298502 
L 224.909132 303.214623 
L 225.934501 303.130744 
L 243.70756 301.760723 
L 246.100087 301.676845 
L 248.150824 301.453168 
L 250.885141 301.369289 
L 253.619458 301.229491 
L 256.011985 301.173572 
L 256.695564 301.089693 
L 261.480619 301.005814 
L 262.164198 300.921935 
L 266.265673 300.838056 
L 269.341779 300.670298 
L 271.734307 300.58642 
L 273.443255 300.390702 
L 275.493992 300.306823 
L 276.519361 300.167025 
L 281.304415 300.083147 
L 283.013363 299.915389 
L 285.064101 299.83151 
L 287.114838 299.607833 
L 289.165576 299.523954 
L 290.874524 299.468035 
L 293.608841 299.384156 
L 294.975999 299.272318 
L 297.368526 299.216399 
L 298.052106 299.10456 
L 299.761054 299.048641 
L 301.128212 298.936802 
L 302.83716 298.880883 
L 305.913266 298.797004 
L 314.799796 298.153933 
L 316.850533 298.070054 
L 318.559481 298.014135 
L 323.344536 297.930256 
L 324.028115 297.846377 
L 328.813169 297.762499 
L 332.231065 297.566781 
L 332.914644 297.538822 
L 333.598224 297.454943 
L 335.307172 297.371064 
L 337.01612 297.315145 
L 338.725068 297.231266 
L 340.434016 297.175347 
L 343.510122 297.091468 
L 345.56086 297.007589 
L 350.345914 296.92371 
L 354.1056 296.700033 
L 355.472758 296.644114 
L 356.498127 296.560235 
L 361.283181 296.476356 
L 363.333919 296.392478 
L 374.271186 296.308599 
L 377.005503 296.168801 
L 384.866663 296.084922 
L 385.892032 296.029003 
L 397.171089 295.945124 
L 398.880037 295.889204 
L 414.944148 295.805326 
L 416.311306 295.777366 
L 420.070992 295.693487 
L 421.43815 295.581649 
L 423.147098 295.49777 
L 425.539625 295.385931 
L 428.615732 295.302053 
L 430.32468 295.246133 
L 432.717207 295.162255 
L 434.426155 295.106335 
L 436.476892 295.022456 
L 437.502261 294.938578 
L 444.338053 294.854699 
L 446.388791 294.77082 
L 450.148476 294.686941 
L 452.541004 294.575103 
L 454.933531 294.519183 
L 455.958899 294.463264 
L 463.82006 294.379385 
L 467.237956 294.183668 
L 469.972273 294.099789 
L 470.997642 293.959991 
L 474.415538 293.876112 
L 476.124486 293.820193 
L 479.542382 293.736314 
L 481.25133 293.540597 
L 484.669226 293.456718 
L 485.352805 293.372839 
L 488.770701 293.28896 
L 490.479649 293.233041 
L 495.606493 293.149162 
L 497.65723 293.065283 
L 504.834812 292.981405 
L 505.860181 292.925485 
L 510.303445 292.841607 
L 511.670604 292.813647 
L 517.139237 292.729768 
L 519.531765 292.61793 
L 523.63324 292.534051 
L 525.342188 292.478132 
L 531.4944 292.422212 
L 532.519769 292.338334 
L 533.545138 292.254455 
L 534.570507 292.170576 
L 539.697351 292.086697 
L 541.748088 292.002818 
L 551.659987 291.918939 
L 554.736093 291.751182 
L 559.521147 291.667303 
L 560.888306 291.639343 
L 564.989781 291.555464 
L 566.698729 291.499545 
L 574.55989 291.415666 
L 576.610627 291.331787 
L 583.446419 291.247909 
L 585.155367 291.191989 
L 587.547894 291.108111 
L 589.598632 291.024232 
L 593.358318 290.940353 
L 595.750845 290.828514 
L 598.826951 290.772595 
L 599.85232 290.716676 
L 607.029901 290.632797 
L 609.080639 290.548918 
L 611.473166 290.465039 
L 613.182114 290.40912 
L 623.094013 290.325241 
L 625.14475 290.241362 
L 630.955173 290.157484 
L 632.664121 290.101564 
L 637.107386 290.017686 
L 639.158124 289.933807 
L 641.89244 289.849928 
L 643.943178 289.766049 
L 657.614762 289.68217 
L 660.007289 289.570332 
L 668.210239 289.486453 
L 669.577398 289.458493 
L 677.780348 289.374614 
L 679.489296 289.318695 
L 690.426563 289.234816 
L 691.793722 289.206857 
L 702.04741 289.122978 
L 703.756358 289.067059 
L 714.010045 288.98318 
L 716.060783 288.899301 
L 729.048788 288.815422 
L 730.757736 288.759503 
L 736.909948 288.675624 
L 738.277107 288.647664 
L 741.011424 288.591745 
L 742.036792 288.535826 
L 747.163636 288.507866 
L 747.163636 288.507866 
" clip-path="url(#p1b6153128d)" style="fill: none; stroke: #ff7f0e; stroke-width: 1.5; stroke-linecap: square"/>
   </g>
   <g id="patch_3">
    <path d="M 108 320.4 
L 108 43.2 
" style="fill: none; stroke: #a9a9a9; stroke-width: 0.8; stroke-linejoin: miter; stroke-linecap: square"/>
   </g>
   <g id="patch_4">
    <path d="M 777.6 320.4 
L 777.6 43.2 
" style="fill: none"/>
   </g>
   <g id="patch_5">
    <path d="M 108 320.4 
L 777.6 320.4 
" style="fill: none; stroke: #a9a9a9; stroke-width: 0.8; stroke-linejoin: miter; stroke-linecap: square"/>
   </g>
   <g id="patch_6">
    <path d="M 108 43.2 
L 777.6 43.2 
" style="fill: none"/>
   </g>
   <g id="text_16">
    <!-- get_subscribe history -->
    <g style="fill: #a9a9a9" transform="translate(378.6075 37.2) scale(0.12 -0.12)">
     <defs>
      <path id="DejaVuSans-67" d="M 2906 1791 
Q 2906 2416 2648 2759 
Q 2391 3103 1925 3103 
Q 1463 3103 1205 2759 
Q 947 2416 947 1791 
Q 947 1169 1205 825 
Q 1463 481 1925 481 
Q 2391 481 2648 825 
Q 2906 1169 2906 1791 
z
M 3481 434 
Q 3481 -459 3084 -895 
Q 2688 -1331 1869 -1331 
Q 1566 -1331 1297 -1286 
Q 1028 -1241 775 -1147 
L 775 -588 
Q 1028 -725 1275 -790 
Q 1522 -856 1778 -856 
Q 2344 -856 2625 -561 
Q 2906 -266 2906 331 
L 2906 616 
Q 2728 306 2450 153 
Q 2172 0 1784 0 
Q 1141 0 747 490 
Q 353 981 353 1791 
Q 353 2603 747 3093 
Q 1141 3584 1784 3584 
Q 2172 3584 2450 3431 
Q 2728 3278 2906 2969 
L 2906 3500 
L 3481 3500 
L 3481 434 
z
" transform="scale(0.015625)"/>
      <path id="DejaVuSans-65" d="M 3597 1894 
L 3597 1613 
L 953 1613 
Q 991 1019 1311 708 
Q 1631 397 2203 397 
Q 2534 397 2845 478 
Q 3156 559 3463 722 
L 3463 178 
Q 3153 47 2828 -22 
Q 2503 -91 2169 -91 
Q 1331 -91 842 396 
Q 353 884 353 1716 
Q 353 2575 817 3079 
Q 1281 3584 2069 3584 
Q 2775 3584 3186 3129 
Q 3597 2675 3597 1894 
z
M 3022 2063 
Q 3016 2534 2758 2815 
Q 2500 3097 2075 3097 
Q 1594 3097 1305 2825 
Q 1016 2553 972 2059 
L 3022 2063 
z
" transform="scale(0.015625)"/>
      <path id="DejaVuSans-74" d="M 1172 4494 
L 1172 3500 
L 2356 3500 
L 2356 3053 
L 1172 3053 
L 1172 1153 
Q 1172 725 1289 603 
Q 1406 481 1766 481 
L 2356 481 
L 2356 0 
L 1766 0 
Q 1100 0 847 248 
Q 594 497 594 1153 
L 594 3053 
L 172 3053 
L 172 3500 
L 594 3500 
L 594 4494 
L 1172 4494 
z
" transform="scale(0.015625)"/>
      <path id="DejaVuSans-5f" d="M 3263 -1063 
L 3263 -1509 
L -63 -1509 
L -63 -1063 
L 3263 -1063 
z
" transform="scale(0.015625)"/>
      <path id="DejaVuSans-73" d="M 2834 3397 
L 2834 2853 
Q 2591 2978 2328 3040 
Q 2066 3103 1784 3103 
Q 1356 3103 1142 2972 
Q 928 2841 928 2578 
Q 928 2378 1081 2264 
Q 1234 2150 1697 2047 
L 1894 2003 
Q 2506 1872 2764 1633 
Q 3022 1394 3022 966 
Q 3022 478 2636 193 
Q 2250 -91 1575 -91 
Q 1294 -91 989 -36 
Q 684 19 347 128 
L 347 722 
Q 666 556 975 473 
Q 1284 391 1588 391 
Q 1994 391 2212 530 
Q 2431 669 2431 922 
Q 2431 1156 2273 1281 
Q 2116 1406 1581 1522 
L 1381 1569 
Q 847 1681 609 1914 
Q 372 2147 372 2553 
Q 372 3047 722 3315 
Q 1072 3584 1716 3584 
Q 2034 3584 2315 3537 
Q 2597 3491 2834 3397 
z
" transform="scale(0.015625)"/>
      <path id="DejaVuSans-75" d="M 544 1381 
L 544 3500 
L 1119 3500 
L 1119 1403 
Q 1119 906 1312 657 
Q 1506 409 1894 409 
Q 2359 409 2629 706 
Q 2900 1003 2900 1516 
L 2900 3500 
L 3475 3500 
L 3475 0 
L 2900 0 
L 2900 538 
Q 2691 219 2414 64 
Q 2138 -91 1772 -91 
Q 1169 -91 856 284 
Q 544 659 544 1381 
z
M 1991 3584 
L 1991 3584 
z
" transform="scale(0.015625)"/>
      <path id="DejaVuSans-62" d="M 3116 1747 
Q 3116 2381 2855 2742 
Q 2594 3103 2138 3103 
Q 1681 3103 1420 2742 
Q 1159 2381 1159 1747 
Q 1159 1113 1420 752 
Q 1681 391 2138 391 
Q 2594 391 2855 752 
Q 3116 1113 3116 1747 
z
M 1159 2969 
Q 1341 3281 1617 3432 
Q 1894 3584 2278 3584 
Q 2916 3584 3314 3078 
Q 3713 2572 3713 1747 
Q 3713 922 3314 415 
Q 2916 -91 2278 -91 
Q 1894 -91 1617 61 
Q 1341 213 1159 525 
L 1159 0 
L 581 0 
L 581 4863 
L 1159 4863 
L 1159 2969 
z
" transform="scale(0.015625)"/>
      <path id="DejaVuSans-63" d="M 3122 3366 
L 3122 2828 
Q 2878 2963 2633 3030 
Q 2388 3097 2138 3097 
Q 1578 3097 1268 2742 
Q 959 2388 959 1747 
Q 959 1106 1268 751 
Q 1578 397 2138 397 
Q 2388 397 2633 464 
Q 2878 531 3122 666 
L 3122 134 
Q 2881 22 2623 -34 
Q 2366 -91 2075 -91 
Q 1284 -91 818 406 
Q 353 903 353 1747 
Q 353 2603 823 3093 
Q 1294 3584 2113 3584 
Q 2378 3584 2631 3529 
Q 2884 3475 3122 3366 
z
" transform="scale(0.015625)"/>
      <path id="DejaVuSans-72" d="M 2631 2963 
Q 2534 3019 2420 3045 
Q 2306 3072 2169 3072 
Q 1681 3072 1420 2755 
Q 1159 2438 1159 1844 
L 1159 0 
L 581 0 
L 581 3500 
L 1159 3500 
L 1159 2956 
Q 1341 3275 1631 3429 
Q 1922 3584 2338 3584 
Q 2397 3584 2469 3576 
Q 2541 3569 2628 3553 
L 2631 2963 
z
" transform="scale(0.015625)"/>
      <path id="DejaVuSans-69" d="M 603 3500 
L 1178 3500 
L 1178 0 
L 603 0 
L 603 3500 
z
M 603 4863 
L 1178 4863 
L 1178 4134 
L 603 4134 
L 603 4863 
z
" transform="scale(0.015625)"/>
      <path id="DejaVuSans-20" transform="scale(0.015625)"/>
      <path id="DejaVuSans-68" d="M 3513 2113 
L 3513 0 
L 2938 0 
L 2938 2094 
Q 2938 2591 2744 2837 
Q 2550 3084 2163 3084 
Q 1697 3084 1428 2787 
Q 1159 2491 1159 1978 
L 1159 0 
L 581 0 
L 581 4863 
L 1159 4863 
L 1159 2956 
Q 1366 3272 1645 3428 
Q 1925 3584 2291 3584 
Q 2894 3584 3203 3211 
Q 3513 2838 3513 2113 
z
" transform="scale(0.015625)"/>
      <path id="DejaVuSans-6f" d="M 1959 3097 
Q 1497 3097 1228 2736 
Q 959 2375 959 1747 
Q 959 1119 1226 758 
Q 1494 397 1959 397 
Q 2419 397 2687 759 
Q 2956 1122 2956 1747 
Q 2956 2369 2687 2733 
Q 2419 3097 1959 3097 
z
M 1959 3584 
Q 2709 3584 3137 3096 
Q 3566 2609 3566 1747 
Q 3566 888 3137 398 
Q 2709 -91 1959 -91 
Q 1206 -91 779 398 
Q 353 888 353 1747 
Q 353 2609 779 3096 
Q 1206 3584 1959 3584 
z
" transform="scale(0.015625)"/>
      <path id="DejaVuSans-79" d="M 2059 -325 
Q 1816 -950 1584 -1140 
Q 1353 -1331 966 -1331 
L 506 -1331 
L 506 -850 
L 844 -850 
Q 1081 -850 1212 -737 
Q 1344 -625 1503 -206 
L 1606 56 
L 191 3500 
L 800 3500 
L 1894 763 
L 2988 3500 
L 3597 3500 
L 2059 -325 
z
" transform="scale(0.015625)"/>
     </defs>
     <use xlink:href="#DejaVuSans-67"/>
     <use xlink:href="#DejaVuSans-65" transform="translate(63.476562 0)"/>
     <use xlink:href="#DejaVuSans-74" transform="translate(125 0)"/>
     <use xlink:href="#DejaVuSans-5f" transform="translate(164.208984 0)"/>
     <use xlink:href="#DejaVuSans-73" transform="translate(214.208984 0)"/>
     <use xlink:href="#DejaVuSans-75" transform="translate(266.308594 0)"/>
     <use xlink:href="#DejaVuSans-62" transform="translate(329.6875 0)"/>
     <use xlink:href="#DejaVuSans-73" transform="translate(393.164062 0)"/>
     <use xlink:href="#DejaVuSans-63" transform="translate(445.263672 0)"/>
     <use xlink:href="#DejaVuSans-72" transform="translate(500.244141 0)"/>
     <use xlink:href="#DejaVuSans-69" transform="translate(541.357422 0)"/>
     <use xlink:href="#DejaVuSans-62" transform="translate(569.140625 0)"/>
     <use xlink:href="#DejaVuSans-65" transform="translate(632.617188 0)"/>
     <use xlink:href="#DejaVuSans-20" transform="translate(694.140625 0)"/>
     <use xlink:href="#DejaVuSans-68" transform="translate(725.927734 0)"/>
     <use xlink:href="#DejaVuSans-69" transform="translate(789.306641 0)"/>
     <use xlink:href="#DejaVuSans-73" transform="translate(817.089844 0)"/>
     <use xlink:href="#DejaVuSans-74" transform="translate(869.189453 0)"/>
     <use xlink:href="#DejaVuSans-6f" transform="translate(908.398438 0)"/>
     <use xlink:href="#DejaVuSans-72" transform="translate(969.580078 0)"/>
     <use xlink:href="#DejaVuSans-79" transform="translate(1010.693359 0)"/>
    </g>
   </g>
   <g id="legend_1">
    <g id="line2d_33">
     <path d="M 815.08 328.498438 
L 825.08 328.498438 
L 835.08 328.498438 
" style="fill: none; stroke: #1f77b4; stroke-width: 1.5; stroke-linecap: square"/>
    </g>
    <g id="text_17">
     <!-- star -->
     <g style="fill: #a9a9a9" transform="translate(843.08 331.998438) scale(0.1 -0.1)">
      <defs>
       <path id="DejaVuSans-61" d="M 2194 1759 
Q 1497 1759 1228 1600 
Q 959 1441 959 1056 
Q 959 750 1161 570 
Q 1363 391 1709 391 
Q 2188 391 2477 730 
Q 2766 1069 2766 1631 
L 2766 1759 
L 2194 1759 
z
M 3341 1997 
L 3341 0 
L 2766 0 
L 2766 531 
Q 2569 213 2275 61 
Q 1981 -91 1556 -91 
Q 1019 -91 701 211 
Q 384 513 384 1019 
Q 384 1609 779 1909 
Q 1175 2209 1959 2209 
L 2766 2209 
L 2766 2266 
Q 2766 2663 2505 2880 
Q 2244 3097 1772 3097 
Q 1472 3097 1187 3025 
Q 903 2953 641 2809 
L 641 3341 
Q 956 3463 1253 3523 
Q 1550 3584 1831 3584 
Q 2591 3584 2966 3190 
Q 3341 2797 3341 1997 
z
" transform="scale(0.015625)"/>
      </defs>
      <use xlink:href="#DejaVuSans-73"/>
      <use xlink:href="#DejaVuSans-74" transform="translate(52.099609 0)"/>
      <use xlink:href="#DejaVuSans-61" transform="translate(91.308594 0)"/>
      <use xlink:href="#DejaVuSans-72" transform="translate(152.587891 0)"/>
     </g>
    </g>
    <g id="line2d_34">
     <path d="M 815.08 343.176562 
L 825.08 343.176562 
L 835.08 343.176562 
" style="fill: none; stroke: #ff7f0e; stroke-width: 1.5; stroke-linecap: square"/>
    </g>
    <g id="text_18">
     <!-- fork -->
     <g style="fill: #a9a9a9" transform="translate(843.08 346.676562) scale(0.1 -0.1)">
      <defs>
       <path id="DejaVuSans-66" d="M 2375 4863 
L 2375 4384 
L 1825 4384 
Q 1516 4384 1395 4259 
Q 1275 4134 1275 3809 
L 1275 3500 
L 2222 3500 
L 2222 3053 
L 1275 3053 
L 1275 0 
L 697 0 
L 697 3053 
L 147 3053 
L 147 3500 
L 697 3500 
L 697 3744 
Q 697 4328 969 4595 
Q 1241 4863 1831 4863 
L 2375 4863 
z
" transform="scale(0.015625)"/>
       <path id="DejaVuSans-6b" d="M 581 4863 
L 1159 4863 
L 1159 1991 
L 2875 3500 
L 3609 3500 
L 1753 1863 
L 3688 0 
L 2938 0 
L 1159 1709 
L 1159 0 
L 581 0 
L 581 4863 
z
" transform="scale(0.015625)"/>
      </defs>
      <use xlink:href="#DejaVuSans-66"/>
      <use xlink:href="#DejaVuSans-6f" transform="translate(35.205078 0)"/>
      <use xlink:href="#DejaVuSans-72" transform="translate(96.386719 0)"/>
      <use xlink:href="#DejaVuSans-6b" transform="translate(137.5 0)"/>
     </g>
    </g>
   </g>
  </g>
 </g>
 <defs>
  <clipPath id="p1b6153128d">
   <rect x="108" y="43.2" width="669.6" height="277.2"/>
  </clipPath>
 </defs>
</svg>
