<?xml version="1.0" encoding="utf-8" standalone="no"?>
<!DOCTYPE svg PUBLIC "-//W3C//DTD SVG 1.1//EN"
  "http://www.w3.org/Graphics/SVG/1.1/DTD/svg11.dtd">
<svg xmlns:xlink="http://www.w3.org/1999/xlink" width="864pt" height="360pt" viewBox="0 0 864 360" xmlns="http://www.w3.org/2000/svg" version="1.1">
 <metadata>
  <rdf:RDF xmlns:dc="http://purl.org/dc/elements/1.1/" xmlns:cc="http://creativecommons.org/ns#" xmlns:rdf="http://www.w3.org/1999/02/22-rdf-syntax-ns#">
   <cc:Work>
    <dc:type rdf:resource="http://purl.org/dc/dcmitype/StillImage"/>
    <dc:date>2025-11-15T08:16:12.201331</dc:date>
    <dc:format>image/svg+xml</dc:format>
    <dc:creator>
     <cc:Agent>
      <dc:title>Matplotlib v3.10.7, https://matplotlib.org/</dc:title>
     </cc:Agent>
    </dc:creator>
   </cc:Work>
  </rdf:RDF>
 </metadata>
 <defs>
  <style type="text/css">*{stroke-linejoin: round; stroke-linecap: butt}</style>
 </defs>
 <g id="figure_1">
  <g id="patch_1">
   <path d="M 0 360 
L 864 360 
L 864 0 
L 0 0 
L 0 360 
z
" style="fill: none; opacity: 0"/>
  </g>
  <g id="axes_1">
   <g id="patch_2">
    <path d="M 108 320.4 
L 777.6 320.4 
L 777.6 43.2 
L 108 43.2 
L 108 320.4 
z
" style="fill: none; opacity: 0"/>
   </g>
   <g id="matplotlib.axis_1">
    <g id="xtick_1">
     <g id="line2d_1">
      <path d="M 129.547013 320.4 
L 129.547013 43.2 
" clip-path="url(#pbea9f1979a)" style="fill: none; stroke-dasharray: 5.12,1.28,0.8,1.28; stroke-dashoffset: 0; stroke: #b0b0b0; stroke-width: 0.8"/>
     </g>
     <g id="line2d_2">
      <defs>
       <path id="m0cf366913b" d="M 0 0 
L 0 3.5 
" style="stroke: #a9a9a9; stroke-width: 0.8"/>
      </defs>
      <g>
       <use xlink:href="#m0cf366913b" x="129.547013" y="320.4" style="fill: #a9a9a9; stroke: #a9a9a9; stroke-width: 0.8"/>
      </g>
     </g>
     <g id="text_1">
      <!-- 2021-07 -->
      <g style="fill: #a9a9a9" transform="translate(108.655607 334.998438) scale(0.1 -0.1)">
       <defs>
        <path id="DejaVuSans-32" d="M 1228 531 
L 3431 531 
L 3431 0 
L 469 0 
L 469 531 
Q 828 903 1448 1529 
Q 2069 2156 2228 2338 
Q 2531 2678 2651 2914 
Q 2772 3150 2772 3378 
Q 2772 3750 2511 3984 
Q 2250 4219 1831 4219 
Q 1534 4219 1204 4116 
Q 875 4013 500 3803 
L 500 4441 
Q 881 4594 1212 4672 
Q 1544 4750 1819 4750 
Q 2544 4750 2975 4387 
Q 3406 4025 3406 3419 
Q 3406 3131 3298 2873 
Q 3191 2616 2906 2266 
Q 2828 2175 2409 1742 
Q 1991 1309 1228 531 
z
" transform="scale(0.015625)"/>
        <path id="DejaVuSans-30" d="M 2034 4250 
Q 1547 4250 1301 3770 
Q 1056 3291 1056 2328 
Q 1056 1369 1301 889 
Q 1547 409 2034 409 
Q 2525 409 2770 889 
Q 3016 1369 3016 2328 
Q 3016 3291 2770 3770 
Q 2525 4250 2034 4250 
z
M 2034 4750 
Q 2819 4750 3233 4129 
Q 3647 3509 3647 2328 
Q 3647 1150 3233 529 
Q 2819 -91 2034 -91 
Q 1250 -91 836 529 
Q 422 1150 422 2328 
Q 422 3509 836 4129 
Q 1250 4750 2034 4750 
z
" transform="scale(0.015625)"/>
        <path id="DejaVuSans-31" d="M 794 531 
L 1825 531 
L 1825 4091 
L 703 3866 
L 703 4441 
L 1819 4666 
L 2450 4666 
L 2450 531 
L 3481 531 
L 3481 0 
L 794 0 
L 794 531 
z
" transform="scale(0.015625)"/>
        <path id="DejaVuSans-2d" d="M 313 2009 
L 1997 2009 
L 1997 1497 
L 313 1497 
L 313 2009 
z
" transform="scale(0.015625)"/>
        <path id="DejaVuSans-37" d="M 525 4666 
L 3525 4666 
L 3525 4397 
L 1831 0 
L 1172 0 
L 2766 4134 
L 525 4134 
L 525 4666 
z
" transform="scale(0.015625)"/>
       </defs>
       <use xlink:href="#DejaVuSans-32"/>
       <use xlink:href="#DejaVuSans-30" transform="translate(63.623047 0)"/>
       <use xlink:href="#DejaVuSans-32" transform="translate(127.246094 0)"/>
       <use xlink:href="#DejaVuSans-31" transform="translate(190.869141 0)"/>
       <use xlink:href="#DejaVuSans-2d" transform="translate(254.492188 0)"/>
       <use xlink:href="#DejaVuSans-30" transform="translate(290.576172 0)"/>
       <use xlink:href="#DejaVuSans-37" transform="translate(354.199219 0)"/>
      </g>
     </g>
    </g>
    <g id="xtick_2">
     <g id="line2d_3">
      <path d="M 200.661818 320.4 
L 200.661818 43.2 
" clip-path="url(#pbea9f1979a)" style="fill: none; stroke-dasharray: 5.12,1.28,0.8,1.28; stroke-dashoffset: 0; stroke: #b0b0b0; stroke-width: 0.8"/>
     </g>
     <g id="line2d_4">
      <g>
       <use xlink:href="#m0cf366913b" x="200.661818" y="320.4" style="fill: #a9a9a9; stroke: #a9a9a9; stroke-width: 0.8"/>
      </g>
     </g>
     <g id="text_2">
      <!-- 2022-01 -->
      <g style="fill: #a9a9a9" transform="translate(179.770412 334.998438) scale(0.1 -0.1)">
       <use xlink:href="#DejaVuSans-32"/>
       <use xlink:href="#DejaVuSans-30" transform="translate(63.623047 0)"/>
       <use xlink:href="#DejaVuSans-32" transform="translate(127.246094 0)"/>
       <use xlink:href="#DejaVuSans-32" transform="translate(190.869141 0)"/>
       <use xlink:href="#DejaVuSans-2d" transform="translate(254.492188 0)"/>
       <use xlink:href="#DejaVuSans-30" transform="translate(290.576172 0)"/>
       <use xlink:href="#DejaVuSans-31" transform="translate(354.199219 0)"/>
      </g>
     </g>
    </g>
    <g id="xtick_3">
     <g id="line2d_5">
      <path d="M 270.617143 320.4 
L 270.617143 43.2 
" clip-path="url(#pbea9f1979a)" style="fill: none; stroke-dasharray: 5.12,1.28,0.8,1.28; stroke-dashoffset: 0; stroke: #b0b0b0; stroke-width: 0.8"/>
     </g>
     <g id="line2d_6">
      <g>
       <use xlink:href="#m0cf366913b" x="270.617143" y="320.4" style="fill: #a9a9a9; stroke: #a9a9a9; stroke-width: 0.8"/>
      </g>
     </g>
     <g id="text_3">
      <!-- 2022-07 -->
      <g style="fill: #a9a9a9" transform="translate(249.725737 334.998438) scale(0.1 -0.1)">
       <use xlink:href="#DejaVuSans-32"/>
       <use xlink:href="#DejaVuSans-30" transform="translate(63.623047 0)"/>
       <use xlink:href="#DejaVuSans-32" transform="translate(127.246094 0)"/>
       <use xlink:href="#DejaVuSans-32" transform="translate(190.869141 0)"/>
       <use xlink:href="#DejaVuSans-2d" transform="translate(254.492188 0)"/>
       <use xlink:href="#DejaVuSans-30" transform="translate(290.576172 0)"/>
       <use xlink:href="#DejaVuSans-37" transform="translate(354.199219 0)"/>
      </g>
     </g>
    </g>
    <g id="xtick_4">
     <g id="line2d_7">
      <path d="M 341.731948 320.4 
L 341.731948 43.2 
" clip-path="url(#pbea9f1979a)" style="fill: none; stroke-dasharray: 5.12,1.28,0.8,1.28; stroke-dashoffset: 0; stroke: #b0b0b0; stroke-width: 0.8"/>
     </g>
     <g id="line2d_8">
      <g>
       <use xlink:href="#m0cf366913b" x="341.731948" y="320.4" style="fill: #a9a9a9; stroke: #a9a9a9; stroke-width: 0.8"/>
      </g>
     </g>
     <g id="text_4">
      <!-- 2023-01 -->
      <g style="fill: #a9a9a9" transform="translate(320.840542 334.998438) scale(0.1 -0.1)">
       <defs>
        <path id="DejaVuSans-33" d="M 2597 2516 
Q 3050 2419 3304 2112 
Q 3559 1806 3559 1356 
Q 3559 666 3084 287 
Q 2609 -91 1734 -91 
Q 1441 -91 1130 -33 
Q 819 25 488 141 
L 488 750 
Q 750 597 1062 519 
Q 1375 441 1716 441 
Q 2309 441 2620 675 
Q 2931 909 2931 1356 
Q 2931 1769 2642 2001 
Q 2353 2234 1838 2234 
L 1294 2234 
L 1294 2753 
L 1863 2753 
Q 2328 2753 2575 2939 
Q 2822 3125 2822 3475 
Q 2822 3834 2567 4026 
Q 2313 4219 1838 4219 
Q 1578 4219 1281 4162 
Q 984 4106 628 3988 
L 628 4550 
Q 988 4650 1302 4700 
Q 1616 4750 1894 4750 
Q 2613 4750 3031 4423 
Q 3450 4097 3450 3541 
Q 3450 3153 3228 2886 
Q 3006 2619 2597 2516 
z
" transform="scale(0.015625)"/>
       </defs>
       <use xlink:href="#DejaVuSans-32"/>
       <use xlink:href="#DejaVuSans-30" transform="translate(63.623047 0)"/>
       <use xlink:href="#DejaVuSans-32" transform="translate(127.246094 0)"/>
       <use xlink:href="#DejaVuSans-33" transform="translate(190.869141 0)"/>
       <use xlink:href="#DejaVuSans-2d" transform="translate(254.492188 0)"/>
       <use xlink:href="#DejaVuSans-30" transform="translate(290.576172 0)"/>
       <use xlink:href="#DejaVuSans-31" transform="translate(354.199219 0)"/>
      </g>
     </g>
    </g>
    <g id="xtick_5">
     <g id="line2d_9">
      <path d="M 411.687273 320.4 
L 411.687273 43.2 
" clip-path="url(#pbea9f1979a)" style="fill: none; stroke-dasharray: 5.12,1.28,0.8,1.28; stroke-dashoffset: 0; stroke: #b0b0b0; stroke-width: 0.8"/>
     </g>
     <g id="line2d_10">
      <g>
       <use xlink:href="#m0cf366913b" x="411.687273" y="320.4" style="fill: #a9a9a9; stroke: #a9a9a9; stroke-width: 0.8"/>
      </g>
     </g>
     <g id="text_5">
      <!-- 2023-07 -->
      <g style="fill: #a9a9a9" transform="translate(390.795866 334.998438) scale(0.1 -0.1)">
       <use xlink:href="#DejaVuSans-32"/>
       <use xlink:href="#DejaVuSans-30" transform="translate(63.623047 0)"/>
       <use xlink:href="#DejaVuSans-32" transform="translate(127.246094 0)"/>
       <use xlink:href="#DejaVuSans-33" transform="translate(190.869141 0)"/>
       <use xlink:href="#DejaVuSans-2d" transform="translate(254.492188 0)"/>
       <use xlink:href="#DejaVuSans-30" transform="translate(290.576172 0)"/>
       <use xlink:href="#DejaVuSans-37" transform="translate(354.199219 0)"/>
      </g>
     </g>
    </g>
    <g id="xtick_6">
     <g id="line2d_11">
      <path d="M 482.802078 320.4 
L 482.802078 43.2 
" clip-path="url(#pbea9f1979a)" style="fill: none; stroke-dasharray: 5.12,1.28,0.8,1.28; stroke-dashoffset: 0; stroke: #b0b0b0; stroke-width: 0.8"/>
     </g>
     <g id="line2d_12">
      <g>
       <use xlink:href="#m0cf366913b" x="482.802078" y="320.4" style="fill: #a9a9a9; stroke: #a9a9a9; stroke-width: 0.8"/>
      </g>
     </g>
     <g id="text_6">
      <!-- 2024-01 -->
      <g style="fill: #a9a9a9" transform="translate(461.910672 334.998438) scale(0.1 -0.1)">
       <defs>
        <path id="DejaVuSans-34" d="M 2419 4116 
L 825 1625 
L 2419 1625 
L 2419 4116 
z
M 2253 4666 
L 3047 4666 
L 3047 1625 
L 3713 1625 
L 3713 1100 
L 3047 1100 
L 3047 0 
L 2419 0 
L 2419 1100 
L 313 1100 
L 313 1709 
L 2253 4666 
z
" transform="scale(0.015625)"/>
       </defs>
       <use xlink:href="#DejaVuSans-32"/>
       <use xlink:href="#DejaVuSans-30" transform="translate(63.623047 0)"/>
       <use xlink:href="#DejaVuSans-32" transform="translate(127.246094 0)"/>
       <use xlink:href="#DejaVuSans-34" transform="translate(190.869141 0)"/>
       <use xlink:href="#DejaVuSans-2d" transform="translate(254.492188 0)"/>
       <use xlink:href="#DejaVuSans-30" transform="translate(290.576172 0)"/>
       <use xlink:href="#DejaVuSans-31" transform="translate(354.199219 0)"/>
      </g>
     </g>
    </g>
    <g id="xtick_7">
     <g id="line2d_13">
      <path d="M 553.143896 320.4 
L 553.143896 43.2 
" clip-path="url(#pbea9f1979a)" style="fill: none; stroke-dasharray: 5.12,1.28,0.8,1.28; stroke-dashoffset: 0; stroke: #b0b0b0; stroke-width: 0.8"/>
     </g>
     <g id="line2d_14">
      <g>
       <use xlink:href="#m0cf366913b" x="553.143896" y="320.4" style="fill: #a9a9a9; stroke: #a9a9a9; stroke-width: 0.8"/>
      </g>
     </g>
     <g id="text_7">
      <!-- 2024-07 -->
      <g style="fill: #a9a9a9" transform="translate(532.25249 334.998438) scale(0.1 -0.1)">
       <use xlink:href="#DejaVuSans-32"/>
       <use xlink:href="#DejaVuSans-30" transform="translate(63.623047 0)"/>
       <use xlink:href="#DejaVuSans-32" transform="translate(127.246094 0)"/>
       <use xlink:href="#DejaVuSans-34" transform="translate(190.869141 0)"/>
       <use xlink:href="#DejaVuSans-2d" transform="translate(254.492188 0)"/>
       <use xlink:href="#DejaVuSans-30" transform="translate(290.576172 0)"/>
       <use xlink:href="#DejaVuSans-37" transform="translate(354.199219 0)"/>
      </g>
     </g>
    </g>
    <g id="xtick_8">
     <g id="line2d_15">
      <path d="M 624.258701 320.4 
L 624.258701 43.2 
" clip-path="url(#pbea9f1979a)" style="fill: none; stroke-dasharray: 5.12,1.28,0.8,1.28; stroke-dashoffset: 0; stroke: #b0b0b0; stroke-width: 0.8"/>
     </g>
     <g id="line2d_16">
      <g>
       <use xlink:href="#m0cf366913b" x="624.258701" y="320.4" style="fill: #a9a9a9; stroke: #a9a9a9; stroke-width: 0.8"/>
      </g>
     </g>
     <g id="text_8">
      <!-- 2025-01 -->
      <g style="fill: #a9a9a9" transform="translate(603.367295 334.998438) scale(0.1 -0.1)">
       <defs>
        <path id="DejaVuSans-35" d="M 691 4666 
L 3169 4666 
L 3169 4134 
L 1269 4134 
L 1269 2991 
Q 1406 3038 1543 3061 
Q 1681 3084 1819 3084 
Q 2600 3084 3056 2656 
Q 3513 2228 3513 1497 
Q 3513 744 3044 326 
Q 2575 -91 1722 -91 
Q 1428 -91 1123 -41 
Q 819 9 494 109 
L 494 744 
Q 775 591 1075 516 
Q 1375 441 1709 441 
Q 2250 441 2565 725 
Q 2881 1009 2881 1497 
Q 2881 1984 2565 2268 
Q 2250 2553 1709 2553 
Q 1456 2553 1204 2497 
Q 953 2441 691 2322 
L 691 4666 
z
" transform="scale(0.015625)"/>
       </defs>
       <use xlink:href="#DejaVuSans-32"/>
       <use xlink:href="#DejaVuSans-30" transform="translate(63.623047 0)"/>
       <use xlink:href="#DejaVuSans-32" transform="translate(127.246094 0)"/>
       <use xlink:href="#DejaVuSans-35" transform="translate(190.869141 0)"/>
       <use xlink:href="#DejaVuSans-2d" transform="translate(254.492188 0)"/>
       <use xlink:href="#DejaVuSans-30" transform="translate(290.576172 0)"/>
       <use xlink:href="#DejaVuSans-31" transform="translate(354.199219 0)"/>
      </g>
     </g>
    </g>
    <g id="xtick_9">
     <g id="line2d_17">
      <path d="M 694.214026 320.4 
L 694.214026 43.2 
" clip-path="url(#pbea9f1979a)" style="fill: none; stroke-dasharray: 5.12,1.28,0.8,1.28; stroke-dashoffset: 0; stroke: #b0b0b0; stroke-width: 0.8"/>
     </g>
     <g id="line2d_18">
      <g>
       <use xlink:href="#m0cf366913b" x="694.214026" y="320.4" style="fill: #a9a9a9; stroke: #a9a9a9; stroke-width: 0.8"/>
      </g>
     </g>
     <g id="text_9">
      <!-- 2025-07 -->
      <g style="fill: #a9a9a9" transform="translate(673.32262 334.998438) scale(0.1 -0.1)">
       <use xlink:href="#DejaVuSans-32"/>
       <use xlink:href="#DejaVuSans-30" transform="translate(63.623047 0)"/>
       <use xlink:href="#DejaVuSans-32" transform="translate(127.246094 0)"/>
       <use xlink:href="#DejaVuSans-35" transform="translate(190.869141 0)"/>
       <use xlink:href="#DejaVuSans-2d" transform="translate(254.492188 0)"/>
       <use xlink:href="#DejaVuSans-30" transform="translate(290.576172 0)"/>
       <use xlink:href="#DejaVuSans-37" transform="translate(354.199219 0)"/>
      </g>
     </g>
    </g>
    <g id="xtick_10">
     <g id="line2d_19">
      <path d="M 765.328831 320.4 
L 765.328831 43.2 
" clip-path="url(#pbea9f1979a)" style="fill: none; stroke-dasharray: 5.12,1.28,0.8,1.28; stroke-dashoffset: 0; stroke: #b0b0b0; stroke-width: 0.8"/>
     </g>
     <g id="line2d_20">
      <g>
       <use xlink:href="#m0cf366913b" x="765.328831" y="320.4" style="fill: #a9a9a9; stroke: #a9a9a9; stroke-width: 0.8"/>
      </g>
     </g>
     <g id="text_10">
      <!-- 2026-01 -->
      <g style="fill: #a9a9a9" transform="translate(744.437425 334.998438) scale(0.1 -0.1)">
       <defs>
        <path id="DejaVuSans-36" d="M 2113 2584 
Q 1688 2584 1439 2293 
Q 1191 2003 1191 1497 
Q 1191 994 1439 701 
Q 1688 409 2113 409 
Q 2538 409 2786 701 
Q 3034 994 3034 1497 
Q 3034 2003 2786 2293 
Q 2538 2584 2113 2584 
z
M 3366 4563 
L 3366 3988 
Q 3128 4100 2886 4159 
Q 2644 4219 2406 4219 
Q 1781 4219 1451 3797 
Q 1122 3375 1075 2522 
Q 1259 2794 1537 2939 
Q 1816 3084 2150 3084 
Q 2853 3084 3261 2657 
Q 3669 2231 3669 1497 
Q 3669 778 3244 343 
Q 2819 -91 2113 -91 
Q 1303 -91 875 529 
Q 447 1150 447 2328 
Q 447 3434 972 4092 
Q 1497 4750 2381 4750 
Q 2619 4750 2861 4703 
Q 3103 4656 3366 4563 
z
" transform="scale(0.015625)"/>
       </defs>
       <use xlink:href="#DejaVuSans-32"/>
       <use xlink:href="#DejaVuSans-30" transform="translate(63.623047 0)"/>
       <use xlink:href="#DejaVuSans-32" transform="translate(127.246094 0)"/>
       <use xlink:href="#DejaVuSans-36" transform="translate(190.869141 0)"/>
       <use xlink:href="#DejaVuSans-2d" transform="translate(254.492188 0)"/>
       <use xlink:href="#DejaVuSans-30" transform="translate(290.576172 0)"/>
       <use xlink:href="#DejaVuSans-31" transform="translate(354.199219 0)"/>
      </g>
     </g>
    </g>
   </g>
   <g id="matplotlib.axis_2">
    <g id="ytick_1">
     <g id="line2d_21">
      <path d="M 108 307.830256 
L 777.6 307.830256 
" clip-path="url(#pbea9f1979a)" style="fill: none; stroke-dasharray: 5.12,1.28,0.8,1.28; stroke-dashoffset: 0; stroke: #b0b0b0; stroke-width: 0.8"/>
     </g>
     <g id="line2d_22">
      <defs>
       <path id="mccd70c6d55" d="M 0 0 
L -3.5 0 
" style="stroke: #a9a9a9; stroke-width: 0.8"/>
      </defs>
      <g>
       <use xlink:href="#mccd70c6d55" x="108" y="307.830256" style="fill: #a9a9a9; stroke: #a9a9a9; stroke-width: 0.8"/>
      </g>
     </g>
     <g id="text_11">
      <!-- 0 -->
      <g style="fill: #a9a9a9" transform="translate(94.6375 311.629474) scale(0.1 -0.1)">
       <use xlink:href="#DejaVuSans-30"/>
      </g>
     </g>
    </g>
    <g id="ytick_2">
     <g id="line2d_23">
      <path d="M 108 277.574523 
L 777.6 277.574523 
" clip-path="url(#pbea9f1979a)" style="fill: none; stroke-dasharray: 5.12,1.28,0.8,1.28; stroke-dashoffset: 0; stroke: #b0b0b0; stroke-width: 0.8"/>
     </g>
     <g id="line2d_24">
      <g>
       <use xlink:href="#mccd70c6d55" x="108" y="277.574523" style="fill: #a9a9a9; stroke: #a9a9a9; stroke-width: 0.8"/>
      </g>
     </g>
     <g id="text_12">
      <!-- 1000 -->
      <g style="fill: #a9a9a9" transform="translate(75.55 281.373742) scale(0.1 -0.1)">
       <use xlink:href="#DejaVuSans-31"/>
       <use xlink:href="#DejaVuSans-30" transform="translate(63.623047 0)"/>
       <use xlink:href="#DejaVuSans-30" transform="translate(127.246094 0)"/>
       <use xlink:href="#DejaVuSans-30" transform="translate(190.869141 0)"/>
      </g>
     </g>
    </g>
    <g id="ytick_3">
     <g id="line2d_25">
      <path d="M 108 247.31879 
L 777.6 247.31879 
" clip-path="url(#pbea9f1979a)" style="fill: none; stroke-dasharray: 5.12,1.28,0.8,1.28; stroke-dashoffset: 0; stroke: #b0b0b0; stroke-width: 0.8"/>
     </g>
     <g id="line2d_26">
      <g>
       <use xlink:href="#mccd70c6d55" x="108" y="247.31879" style="fill: #a9a9a9; stroke: #a9a9a9; stroke-width: 0.8"/>
      </g>
     </g>
     <g id="text_13">
      <!-- 2000 -->
      <g style="fill: #a9a9a9" transform="translate(75.55 251.118009) scale(0.1 -0.1)">
       <use xlink:href="#DejaVuSans-32"/>
       <use xlink:href="#DejaVuSans-30" transform="translate(63.623047 0)"/>
       <use xlink:href="#DejaVuSans-30" transform="translate(127.246094 0)"/>
       <use xlink:href="#DejaVuSans-30" transform="translate(190.869141 0)"/>
      </g>
     </g>
    </g>
    <g id="ytick_4">
     <g id="line2d_27">
      <path d="M 108 217.063057 
L 777.6 217.063057 
" clip-path="url(#pbea9f1979a)" style="fill: none; stroke-dasharray: 5.12,1.28,0.8,1.28; stroke-dashoffset: 0; stroke: #b0b0b0; stroke-width: 0.8"/>
     </g>
     <g id="line2d_28">
      <g>
       <use xlink:href="#mccd70c6d55" x="108" y="217.063057" style="fill: #a9a9a9; stroke: #a9a9a9; stroke-width: 0.8"/>
      </g>
     </g>
     <g id="text_14">
      <!-- 3000 -->
      <g style="fill: #a9a9a9" transform="translate(75.55 220.862276) scale(0.1 -0.1)">
       <use xlink:href="#DejaVuSans-33"/>
       <use xlink:href="#DejaVuSans-30" transform="translate(63.623047 0)"/>
       <use xlink:href="#DejaVuSans-30" transform="translate(127.246094 0)"/>
       <use xlink:href="#DejaVuSans-30" transform="translate(190.869141 0)"/>
      </g>
     </g>
    </g>
    <g id="ytick_5">
     <g id="line2d_29">
      <path d="M 108 186.807324 
L 777.6 186.807324 
" clip-path="url(#pbea9f1979a)" style="fill: none; stroke-dasharray: 5.12,1.28,0.8,1.28; stroke-dashoffset: 0; stroke: #b0b0b0; stroke-width: 0.8"/>
     </g>
     <g id="line2d_30">
      <g>
       <use xlink:href="#mccd70c6d55" x="108" y="186.807324" style="fill: #a9a9a9; stroke: #a9a9a9; stroke-width: 0.8"/>
      </g>
     </g>
     <g id="text_15">
      <!-- 4000 -->
      <g style="fill: #a9a9a9" transform="translate(75.55 190.606543) scale(0.1 -0.1)">
       <use xlink:href="#DejaVuSans-34"/>
       <use xlink:href="#DejaVuSans-30" transform="translate(63.623047 0)"/>
       <use xlink:href="#DejaVuSans-30" transform="translate(127.246094 0)"/>
       <use xlink:href="#DejaVuSans-30" transform="translate(190.869141 0)"/>
      </g>
     </g>
    </g>
    <g id="ytick_6">
     <g id="line2d_31">
      <path d="M 108 156.551591 
L 777.6 156.551591 
" clip-path="url(#pbea9f1979a)" style="fill: none; stroke-dasharray: 5.12,1.28,0.8,1.28; stroke-dashoffset: 0; stroke: #b0b0b0; stroke-width: 0.8"/>
     </g>
     <g id="line2d_32">
      <g>
       <use xlink:href="#mccd70c6d55" x="108" y="156.551591" style="fill: #a9a9a9; stroke: #a9a9a9; stroke-width: 0.8"/>
      </g>
     </g>
     <g id="text_16">
      <!-- 5000 -->
      <g style="fill: #a9a9a9" transform="translate(75.55 160.35081) scale(0.1 -0.1)">
       <use xlink:href="#DejaVuSans-35"/>
       <use xlink:href="#DejaVuSans-30" transform="translate(63.623047 0)"/>
       <use xlink:href="#DejaVuSans-30" transform="translate(127.246094 0)"/>
       <use xlink:href="#DejaVuSans-30" transform="translate(190.869141 0)"/>
      </g>
     </g>
    </g>
    <g id="ytick_7">
     <g id="line2d_33">
      <path d="M 108 126.295858 
L 777.6 126.295858 
" clip-path="url(#pbea9f1979a)" style="fill: none; stroke-dasharray: 5.12,1.28,0.8,1.28; stroke-dashoffset: 0; stroke: #b0b0b0; stroke-width: 0.8"/>
     </g>
     <g id="line2d_34">
      <g>
       <use xlink:href="#mccd70c6d55" x="108" y="126.295858" style="fill: #a9a9a9; stroke: #a9a9a9; stroke-width: 0.8"/>
      </g>
     </g>
     <g id="text_17">
      <!-- 6000 -->
      <g style="fill: #a9a9a9" transform="translate(75.55 130.095077) scale(0.1 -0.1)">
       <use xlink:href="#DejaVuSans-36"/>
       <use xlink:href="#DejaVuSans-30" transform="translate(63.623047 0)"/>
       <use xlink:href="#DejaVuSans-30" transform="translate(127.246094 0)"/>
       <use xlink:href="#DejaVuSans-30" transform="translate(190.869141 0)"/>
      </g>
     </g>
    </g>
    <g id="ytick_8">
     <g id="line2d_35">
      <path d="M 108 96.040125 
L 777.6 96.040125 
" clip-path="url(#pbea9f1979a)" style="fill: none; stroke-dasharray: 5.12,1.28,0.8,1.28; stroke-dashoffset: 0; stroke: #b0b0b0; stroke-width: 0.8"/>
     </g>
     <g id="line2d_36">
      <g>
       <use xlink:href="#mccd70c6d55" x="108" y="96.040125" style="fill: #a9a9a9; stroke: #a9a9a9; stroke-width: 0.8"/>
      </g>
     </g>
     <g id="text_18">
      <!-- 7000 -->
      <g style="fill: #a9a9a9" transform="translate(75.55 99.839344) scale(0.1 -0.1)">
       <use xlink:href="#DejaVuSans-37"/>
       <use xlink:href="#DejaVuSans-30" transform="translate(63.623047 0)"/>
       <use xlink:href="#DejaVuSans-30" transform="translate(127.246094 0)"/>
       <use xlink:href="#DejaVuSans-30" transform="translate(190.869141 0)"/>
      </g>
     </g>
    </g>
    <g id="ytick_9">
     <g id="line2d_37">
      <path d="M 108 65.784392 
L 777.6 65.784392 
" clip-path="url(#pbea9f1979a)" style="fill: none; stroke-dasharray: 5.12,1.28,0.8,1.28; stroke-dashoffset: 0; stroke: #b0b0b0; stroke-width: 0.8"/>
     </g>
     <g id="line2d_38">
      <g>
       <use xlink:href="#mccd70c6d55" x="108" y="65.784392" style="fill: #a9a9a9; stroke: #a9a9a9; stroke-width: 0.8"/>
      </g>
     </g>
     <g id="text_19">
      <!-- 8000 -->
      <g style="fill: #a9a9a9" transform="translate(75.55 69.583611) scale(0.1 -0.1)">
       <defs>
        <path id="DejaVuSans-38" d="M 2034 2216 
Q 1584 2216 1326 1975 
Q 1069 1734 1069 1313 
Q 1069 891 1326 650 
Q 1584 409 2034 409 
Q 2484 409 2743 651 
Q 3003 894 3003 1313 
Q 3003 1734 2745 1975 
Q 2488 2216 2034 2216 
z
M 1403 2484 
Q 997 2584 770 2862 
Q 544 3141 544 3541 
Q 544 4100 942 4425 
Q 1341 4750 2034 4750 
Q 2731 4750 3128 4425 
Q 3525 4100 3525 3541 
Q 3525 3141 3298 2862 
Q 3072 2584 2669 2484 
Q 3125 2378 3379 2068 
Q 3634 1759 3634 1313 
Q 3634 634 3220 271 
Q 2806 -91 2034 -91 
Q 1263 -91 848 271 
Q 434 634 434 1313 
Q 434 1759 690 2068 
Q 947 2378 1403 2484 
z
M 1172 3481 
Q 1172 3119 1398 2916 
Q 1625 2713 2034 2713 
Q 2441 2713 2670 2916 
Q 2900 3119 2900 3481 
Q 2900 3844 2670 4047 
Q 2441 4250 2034 4250 
Q 1625 4250 1398 4047 
Q 1172 3844 1172 3481 
z
" transform="scale(0.015625)"/>
       </defs>
       <use xlink:href="#DejaVuSans-38"/>
       <use xlink:href="#DejaVuSans-30" transform="translate(63.623047 0)"/>
       <use xlink:href="#DejaVuSans-30" transform="translate(127.246094 0)"/>
       <use xlink:href="#DejaVuSans-30" transform="translate(190.869141 0)"/>
      </g>
     </g>
    </g>
   </g>
   <g id="line2d_39">
    <path d="M 138.436364 307.739489 
L 140.755325 307.527698 
L 141.141818 307.346164 
L 142.687792 307.134374 
L 144.233766 306.801561 
L 145.006753 306.680538 
L 146.939221 306.499003 
L 147.712208 306.196446 
L 148.098701 305.651843 
L 148.485195 305.379541 
L 148.871688 304.471869 
L 149.258182 304.411358 
L 150.031169 303.927266 
L 150.804156 303.352407 
L 152.35013 302.202689 
L 152.736623 302.051411 
L 153.50961 301.567319 
L 154.669091 300.99246 
L 155.055584 300.326834 
L 155.828571 299.721719 
L 156.601558 299.479673 
L 157.761039 299.298139 
L 160.08 298.93507 
L 160.466494 298.753536 
L 163.171948 298.51149 
L 164.717922 298.118165 
L 167.80987 297.664329 
L 168.196364 297.452539 
L 168.582857 297.392028 
L 169.355844 297.119726 
L 172.061299 296.635635 
L 172.834286 296.393589 
L 176.312727 295.788474 
L 177.085714 295.60694 
L 178.631688 295.395149 
L 179.404675 295.153104 
L 179.791169 294.578245 
L 180.950649 294.094153 
L 182.11013 293.76134 
L 182.496623 293.54955 
L 183.26961 293.398271 
L 184.815584 292.914179 
L 185.588571 292.853668 
L 186.361558 292.641878 
L 187.907532 292.218298 
L 188.294026 292.188042 
L 189.067013 291.794717 
L 189.453506 291.734206 
L 189.84 291.522416 
L 194.091429 290.796278 
L 195.637403 290.312186 
L 196.023896 290.039885 
L 197.956364 289.374259 
L 198.729351 288.7994 
L 199.888831 288.557354 
L 204.913247 287.044567 
L 205.29974 286.984056 
L 206.845714 286.348685 
L 207.232208 286.288174 
L 208.005195 285.955361 
L 208.778182 285.925105 
L 209.937662 285.562036 
L 210.324156 285.562036 
L 210.710649 285.380502 
L 211.483636 285.289735 
L 211.87013 285.138456 
L 213.802597 285.047689 
L 214.189091 284.956922 
L 214.962078 284.533341 
L 216.121558 284.109761 
L 216.894545 283.686181 
L 218.054026 283.171833 
L 219.6 282.354929 
L 219.986494 281.901093 
L 220.759481 280.630352 
L 221.145974 280.509329 
L 221.532468 280.509329 
L 223.078442 279.631913 
L 223.464935 279.541145 
L 223.851429 279.147821 
L 224.624416 278.815008 
L 225.397403 278.451939 
L 225.783896 277.967847 
L 226.17039 277.302221 
L 226.556883 277.02992 
L 226.943377 276.303782 
L 227.32987 275.849946 
L 229.648831 274.518694 
L 231.194805 273.066419 
L 231.581299 272.128491 
L 231.967792 271.523376 
L 232.354286 271.190563 
L 232.740779 271.009029 
L 237.378701 266.74297 
L 238.924675 265.744531 
L 239.311169 265.593252 
L 240.857143 264.625069 
L 241.243636 264.443535 
L 243.176104 262.567679 
L 243.949091 262.234866 
L 244.722078 261.690263 
L 245.108571 261.448217 
L 245.495065 261.387706 
L 246.654545 260.691824 
L 247.041039 260.237988 
L 248.973506 259.118526 
L 249.36 258.967247 
L 250.519481 258.120086 
L 256.316883 255.941674 
L 257.08987 255.18528 
L 258.249351 254.580166 
L 259.022338 254.065818 
L 259.795325 253.823772 
L 260.181818 253.551471 
L 260.568312 253.430448 
L 261.727792 252.613543 
L 263.66026 252.159707 
L 264.81974 251.433569 
L 265.979221 251.161268 
L 266.365714 251.070501 
L 267.525195 250.162829 
L 269.071169 249.708993 
L 269.457662 249.37618 
L 271.776623 248.529019 
L 272.54961 248.37774 
L 273.322597 248.044927 
L 276.028052 246.985977 
L 276.801039 246.89521 
L 277.960519 246.471629 
L 279.892987 245.47319 
L 282.211948 244.111682 
L 282.984935 243.899892 
L 284.144416 243.294777 
L 284.917403 243.143499 
L 285.69039 242.659407 
L 286.463377 242.447617 
L 287.622857 241.963525 
L 289.168831 241.751735 
L 289.941818 241.328155 
L 290.328312 240.965086 
L 290.714805 240.238948 
L 292.260779 239.785112 
L 293.806753 239.058975 
L 297.285195 237.455421 
L 298.058182 237.273886 
L 299.217662 236.668772 
L 299.604156 236.60826 
L 301.536623 235.609821 
L 302.30961 235.095474 
L 303.469091 234.853428 
L 305.401558 234.33908 
L 305.788052 234.006267 
L 306.561039 233.733966 
L 308.493506 232.917061 
L 308.88 232.614504 
L 309.266494 232.463225 
L 310.039481 232.009389 
L 311.585455 231.495041 
L 312.358442 230.980694 
L 312.744935 230.557114 
L 313.131429 230.315068 
L 313.517922 230.224301 
L 314.290909 229.558675 
L 314.677403 229.498163 
L 315.063896 228.832537 
L 315.45039 228.651003 
L 315.836883 228.318189 
L 316.223377 228.257678 
L 316.996364 227.743331 
L 317.769351 227.471029 
L 318.155844 227.168472 
L 318.542338 227.017193 
L 320.474805 225.776708 
L 322.793766 224.717757 
L 323.18026 224.021875 
L 323.953247 223.416761 
L 324.33974 223.325994 
L 326.658701 222.176276 
L 327.431688 221.843463 
L 328.204675 221.268604 
L 329.364156 220.149142 
L 330.137143 219.66505 
L 330.523636 219.211214 
L 332.06961 218.091752 
L 332.842597 217.274847 
L 333.615584 217.002545 
L 334.388571 216.457942 
L 335.548052 215.822572 
L 335.934545 215.76206 
L 339.412987 213.946716 
L 340.185974 213.734926 
L 341.731948 213.190323 
L 342.118442 212.85751 
L 343.664416 212.22214 
L 344.050909 212.101117 
L 344.823896 211.586769 
L 345.596883 211.253956 
L 346.36987 210.679097 
L 347.142857 209.075543 
L 347.915844 208.167871 
L 349.075325 207.532501 
L 349.848312 207.199688 
L 350.234805 207.139176 
L 351.007792 206.776108 
L 352.553766 206.231504 
L 353.326753 205.777668 
L 354.09974 205.384344 
L 354.486234 205.263321 
L 356.805195 203.811046 
L 357.191688 203.35721 
L 358.351169 202.661328 
L 358.737662 202.510049 
L 359.510649 202.025957 
L 361.056623 201.148541 
L 361.443117 201.057774 
L 361.82961 200.724961 
L 364.535065 199.817289 
L 364.921558 199.544987 
L 365.694545 199.302942 
L 368.786494 197.759899 
L 369.559481 197.336319 
L 369.945974 197.154784 
L 370.718961 196.519414 
L 371.491948 196.307624 
L 371.878442 195.944555 
L 372.264935 195.884044 
L 373.037922 195.278929 
L 374.97039 194.098955 
L 375.743377 193.85691 
L 376.12987 193.614864 
L 376.516364 193.554352 
L 378.062338 192.797959 
L 379.221818 192.404634 
L 379.994805 192.283611 
L 381.540779 191.678497 
L 381.927273 191.648241 
L 383.473247 191.043126 
L 384.632727 190.195966 
L 385.019221 190.044687 
L 385.792208 189.590851 
L 386.178701 189.500084 
L 388.497662 188.138576 
L 388.884156 188.047809 
L 390.043636 187.321671 
L 391.203117 186.898091 
L 391.976104 186.625789 
L 393.522078 186.081186 
L 394.295065 185.808885 
L 395.841039 185.476072 
L 396.614026 185.234026 
L 398.546494 184.5684 
L 399.705974 184.205331 
L 400.092468 184.054052 
L 401.251948 183.872518 
L 403.570909 183.418682 
L 404.73039 183.14638 
L 405.116883 182.964846 
L 405.88987 182.813567 
L 406.662857 182.601777 
L 407.435844 182.238708 
L 407.822338 182.087429 
L 408.208831 182.087429 
L 412.46026 180.725921 
L 412.846753 180.514131 
L 413.233247 180.514131 
L 414.006234 180.211574 
L 414.392727 179.787994 
L 416.711688 178.789555 
L 418.257662 178.244951 
L 418.644156 178.002906 
L 419.803636 177.639837 
L 420.576623 177.428047 
L 420.963117 177.155745 
L 421.34961 177.064978 
L 421.736104 176.732165 
L 422.895584 176.490119 
L 423.668571 176.12705 
L 424.055065 175.642958 
L 428.306494 174.674775 
L 428.692987 174.674775 
L 429.465974 174.432729 
L 432.944416 173.525057 
L 433.330909 173.373778 
L 434.103896 173.2225 
L 436.036364 172.708152 
L 437.195844 172.345083 
L 439.128312 171.709713 
L 439.901299 171.3769 
L 440.674286 171.074343 
L 441.060779 170.802041 
L 441.833766 170.559995 
L 444.539221 169.501045 
L 446.085195 169.31951 
L 449.177143 168.139537 
L 449.563636 167.836979 
L 449.95013 167.746212 
L 450.336623 167.534422 
L 450.723117 167.504166 
L 454.974545 165.900612 
L 456.907013 165.356009 
L 457.68 164.962685 
L 458.839481 164.690383 
L 460.385455 163.389386 
L 461.931429 162.693505 
L 463.477403 162.027878 
L 463.863896 161.937111 
L 464.25039 161.66481 
L 465.023377 161.422764 
L 465.40987 161.150462 
L 467.342338 160.484836 
L 471.207273 158.457702 
L 471.98026 158.094633 
L 472.366753 157.792076 
L 473.13974 157.519774 
L 475.458701 156.370056 
L 475.845195 156.279289 
L 477.004675 155.734686 
L 478.550649 155.190083 
L 479.323636 154.85727 
L 480.096623 154.736247 
L 480.483117 154.463945 
L 482.029091 154.161388 
L 482.802078 153.828575 
L 484.734545 152.890647 
L 489.758961 150.621467 
L 490.918442 150.228143 
L 491.304935 149.955841 
L 492.077922 149.865074 
L 492.464416 149.592772 
L 493.237403 149.471749 
L 494.01039 149.078425 
L 494.783377 148.836379 
L 496.329351 148.291776 
L 497.488831 147.868195 
L 499.421299 147.353848 
L 500.967273 146.688222 
L 501.74026 146.264642 
L 503.286234 145.447737 
L 504.059221 145.266202 
L 504.445714 145.024157 
L 504.832208 144.933389 
L 506.764675 143.965206 
L 509.856623 142.845744 
L 510.243117 142.724721 
L 511.016104 142.301141 
L 512.948571 141.605259 
L 515.267532 140.637075 
L 516.813506 139.880682 
L 520.678442 138.307384 
L 521.451429 137.914059 
L 521.837922 137.823292 
L 522.610909 137.520735 
L 522.997403 137.520735 
L 523.77039 137.157666 
L 525.316364 135.826414 
L 525.702857 135.705391 
L 526.089351 135.463345 
L 527.248831 135.130532 
L 527.635325 134.827975 
L 528.408312 134.555673 
L 529.567792 133.769024 
L 530.340779 133.557234 
L 531.113766 133.133653 
L 532.273247 132.861352 
L 534.205714 132.16547 
L 534.978701 131.923424 
L 536.138182 131.288054 
L 536.911169 130.894729 
L 537.684156 130.682939 
L 539.23013 129.956802 
L 539.616623 129.835779 
L 540.38961 129.47271 
L 542.322078 128.837339 
L 543.481558 128.080946 
L 543.868052 127.990179 
L 544.641039 127.596854 
L 545.414026 127.294297 
L 545.800519 126.931228 
L 546.96 126.477392 
L 547.346494 126.416881 
L 548.892468 125.690743 
L 550.051948 125.327674 
L 551.211429 124.904094 
L 551.984416 124.662048 
L 552.757403 124.51077 
L 553.53039 124.087189 
L 553.916883 123.935911 
L 554.303377 123.633353 
L 555.462857 123.330796 
L 556.235844 123.028239 
L 557.008831 122.695426 
L 558.554805 122.060055 
L 561.26026 121.333918 
L 562.033247 121.03136 
L 563.579221 120.728803 
L 564.352208 120.577524 
L 565.511688 120.123688 
L 566.671169 119.881642 
L 568.99013 118.489879 
L 570.14961 117.763741 
L 572.468571 117.037604 
L 572.855065 116.735046 
L 575.947013 115.615584 
L 577.106494 115.252515 
L 577.879481 114.828935 
L 578.652468 114.617145 
L 579.038961 114.405355 
L 579.811948 114.254076 
L 581.357922 113.648961 
L 582.130909 113.134614 
L 583.29039 112.832057 
L 584.44987 112.045408 
L 584.836364 111.984896 
L 586.382338 111.349526 
L 587.928312 110.956201 
L 588.314805 110.89569 
L 588.701299 110.714155 
L 589.087792 110.6839 
L 589.860779 110.411598 
L 590.247273 110.381342 
L 591.406753 109.927506 
L 592.952727 109.47367 
L 593.725714 108.868556 
L 595.271688 107.991139 
L 595.658182 107.900372 
L 596.044675 107.688582 
L 596.431169 107.628071 
L 599.90961 105.873238 
L 600.296104 105.510169 
L 602.228571 105.026078 
L 603.388052 104.481474 
L 604.161039 104.269684 
L 604.547532 104.08815 
L 604.934026 103.755337 
L 606.866494 103.059455 
L 611.890909 101.183599 
L 612.663896 101.032321 
L 614.596364 100.39695 
L 615.755844 99.882603 
L 618.461299 99.065698 
L 619.234286 98.611862 
L 632.375065 94.557594 
L 633.148052 94.345804 
L 634.307532 93.922224 
L 634.694026 93.922224 
L 635.853506 93.649922 
L 636.626494 93.498643 
L 637.399481 93.286853 
L 638.558961 92.651483 
L 639.718442 92.288414 
L 642.423896 91.350486 
L 643.96987 90.563837 
L 645.129351 90.291536 
L 645.902338 90.04949 
L 646.675325 89.656165 
L 647.061818 89.323352 
L 647.834805 89.081306 
L 648.221299 88.83926 
L 648.994286 88.748493 
L 651.69974 87.961844 
L 652.859221 87.719798 
L 654.018701 87.417241 
L 654.791688 87.235707 
L 655.951169 86.630592 
L 660.975584 84.694225 
L 661.748571 84.573202 
L 662.521558 84.421923 
L 662.908052 84.421923 
L 664.067532 84.058855 
L 665.227013 83.695786 
L 668.705455 82.697347 
L 669.478442 82.485556 
L 669.864935 82.394789 
L 670.251429 82.152743 
L 671.024416 82.001465 
L 671.797403 81.910698 
L 672.183896 81.698907 
L 672.57039 81.668652 
L 673.343377 81.154304 
L 674.889351 80.821491 
L 675.662338 80.488678 
L 676.435325 80.216377 
L 677.208312 80.004586 
L 677.981299 79.671773 
L 678.367792 79.611262 
L 679.140779 79.33896 
L 680.30026 79.006147 
L 681.073247 78.945636 
L 682.232727 78.522055 
L 683.005714 78.401033 
L 685.711169 77.402593 
L 688.03013 77.009269 
L 688.803117 76.767223 
L 689.18961 76.706711 
L 689.962597 76.373898 
L 690.349091 76.313387 
L 690.735584 76.131853 
L 691.508571 75.466226 
L 695.373506 74.044207 
L 697.692468 73.408837 
L 698.465455 72.985256 
L 698.851948 72.894489 
L 700.011429 72.259119 
L 700.397922 72.168352 
L 700.784416 71.865794 
L 701.943896 71.532981 
L 708.127792 68.749454 
L 708.514286 68.688942 
L 710.833247 67.508969 
L 711.21974 67.266923 
L 712.379221 66.93411 
L 713.925195 66.298739 
L 714.311688 66.268484 
L 716.244156 65.542346 
L 717.017143 65.391067 
L 717.79013 64.816208 
L 718.176623 64.816208 
L 718.94961 64.543907 
L 719.336104 64.483395 
L 719.722597 64.271605 
L 721.268571 63.938792 
L 722.814545 63.273166 
L 723.201039 63.273166 
L 724.360519 62.879842 
L 725.133506 62.758819 
L 726.292987 62.093192 
L 727.065974 61.699868 
L 728.998442 61.064498 
L 729.771429 60.731684 
L 732.09039 60.066058 
L 733.24987 59.824012 
L 734.409351 59.400432 
L 736.341818 58.70455 
L 741.752727 57.373298 
L 743.298701 56.647161 
L 744.458182 56.284092 
L 746.777143 55.8 
L 747.163636 55.8 
L 747.163636 55.8 
" clip-path="url(#pbea9f1979a)" style="fill: none; stroke: #1f77b4; stroke-width: 1.5; stroke-linecap: square"/>
   </g>
   <g id="line2d_40">
    <path d="M 138.822857 307.8 
L 142.301299 307.709233 
L 145.393247 307.557954 
L 146.939221 307.557954 
L 147.325714 307.436931 
L 149.258182 307.346164 
L 151.577143 307.073862 
L 153.896104 306.983095 
L 154.669091 306.892328 
L 157.374545 306.771305 
L 160.08 306.680538 
L 162.012468 306.620026 
L 167.036883 306.529259 
L 168.969351 306.468748 
L 172.447792 306.377981 
L 173.993766 306.347725 
L 177.858701 306.256958 
L 179.404675 306.105679 
L 180.950649 306.075423 
L 183.26961 305.984656 
L 184.815584 305.9544 
L 186.748052 305.893889 
L 188.294026 305.74261 
L 191.772468 305.651843 
L 192.545455 305.591331 
L 194.091429 305.500564 
L 196.41039 305.409797 
L 197.956364 305.31903 
L 204.913247 304.865194 
L 207.618701 304.774427 
L 208.778182 304.653404 
L 210.710649 304.562637 
L 214.575584 304.350846 
L 218.440519 304.290335 
L 219.986494 304.108801 
L 221.918961 304.018033 
L 225.783896 303.624709 
L 228.102857 303.322152 
L 229.648831 303.26164 
L 232.740779 302.83806 
L 235.05974 302.777548 
L 236.219221 302.656525 
L 237.378701 302.565758 
L 248.200519 301.688342 
L 248.973506 301.537063 
L 251.292468 301.446296 
L 257.476364 301.052972 
L 260.181818 300.962204 
L 261.727792 300.78067 
L 263.66026 300.689903 
L 265.979221 300.599136 
L 267.911688 300.508368 
L 269.457662 300.478113 
L 271.39013 300.417601 
L 272.163117 300.296578 
L 277.574026 300.205811 
L 278.347013 300.115044 
L 282.984935 300.024277 
L 286.463377 299.842742 
L 289.168831 299.751975 
L 290.714805 299.570441 
L 293.42026 299.479673 
L 294.193247 299.35865 
L 296.125714 299.298139 
L 299.990649 299.237628 
L 301.536623 299.086349 
L 303.082597 299.056093 
L 304.242078 298.965326 
L 305.788052 298.814047 
L 309.652987 298.602257 
L 313.517922 298.51149 
L 316.996364 298.329956 
L 318.155844 298.2997 
L 318.928831 298.178677 
L 320.861299 298.08791 
L 321.634286 298.027398 
L 322.407273 297.966887 
L 323.18026 297.906375 
L 327.045195 297.815608 
L 335.548052 297.240749 
L 336.321039 297.180238 
L 337.480519 297.089471 
L 340.185974 296.998703 
L 342.118442 296.938192 
L 347.529351 296.847425 
L 348.302338 296.756657 
L 353.713247 296.66589 
L 357.578182 296.4541 
L 358.351169 296.423844 
L 359.124156 296.333077 
L 361.056623 296.24231 
L 362.989091 296.181799 
L 364.921558 296.091031 
L 366.854026 296.03052 
L 370.332468 295.939753 
L 372.651429 295.848985 
L 378.062338 295.758218 
L 382.313766 295.516172 
L 383.85974 295.455661 
L 385.019221 295.364894 
L 390.43013 295.274127 
L 392.749091 295.183359 
L 399.705974 295.092592 
L 401.251948 295.062336 
L 405.88987 295.001825 
L 406.662857 294.941313 
L 412.073766 294.850546 
L 413.61974 294.820291 
L 423.668571 294.729523 
L 425.987532 294.638756 
L 442.22026 294.547989 
L 444.152727 294.487477 
L 454.201558 294.426966 
L 454.974545 294.366455 
L 456.907013 294.305943 
L 458.066494 294.18492 
L 460.385455 294.094153 
L 463.090909 293.97313 
L 466.569351 293.882363 
L 468.501818 293.821851 
L 471.207273 293.731084 
L 474.299221 293.579805 
L 476.231688 293.489038 
L 477.777662 293.458783 
L 484.348052 293.368015 
L 486.667013 293.277248 
L 490.918442 293.186481 
L 493.623896 293.065458 
L 496.329351 293.004947 
L 497.102338 292.944435 
L 506.378182 292.853668 
L 510.243117 292.641878 
L 512.948571 292.551111 
L 517.2 292.309065 
L 519.905455 292.218298 
L 521.451429 292.188042 
L 524.156883 292.097275 
L 526.089351 291.885484 
L 529.954286 291.794717 
L 530.727273 291.70395 
L 534.592208 291.613183 
L 536.524675 291.552671 
L 540.776104 291.522416 
L 541.549091 291.431648 
L 545.800519 291.340881 
L 546.573506 291.28037 
L 555.076364 291.189603 
L 557.395325 291.098835 
L 563.192727 291.008068 
L 564.738701 290.977812 
L 568.217143 290.917301 
L 568.99013 290.826534 
L 574.014545 290.735767 
L 575.947013 290.675255 
L 582.903896 290.584488 
L 584.063377 290.493721 
L 585.222857 290.402954 
L 586.382338 290.312186 
L 592.17974 290.221419 
L 594.498701 290.130652 
L 605.707013 290.039885 
L 609.185455 289.85835 
L 614.596364 289.767583 
L 616.142338 289.737327 
L 620.78026 289.64656 
L 622.712727 289.586049 
L 630.829091 289.495282 
L 633.534545 289.374259 
L 640.491429 289.283491 
L 642.037403 289.253236 
L 645.902338 289.162468 
L 648.607792 289.041446 
L 652.859221 288.950678 
L 655.564675 288.829655 
L 659.043117 288.738888 
L 659.816104 288.678377 
L 668.318961 288.58761 
L 670.637922 288.496842 
L 673.343377 288.406075 
L 675.275844 288.345564 
L 686.484156 288.254796 
L 688.803117 288.164029 
L 694.987013 288.073262 
L 697.305974 287.982495 
L 702.33039 287.891728 
L 704.649351 287.80096 
L 707.741299 287.710193 
L 710.06026 287.619426 
L 725.52 287.528659 
L 728.611948 287.37738 
L 737.501299 287.286613 
L 739.047273 287.256357 
L 747.163636 287.195846 
L 747.163636 287.195846 
" clip-path="url(#pbea9f1979a)" style="fill: none; stroke: #ff7f0e; stroke-width: 1.5; stroke-linecap: square"/>
   </g>
   <g id="patch_3">
    <path d="M 108 320.4 
L 108 43.2 
" style="fill: none; stroke: #a9a9a9; stroke-width: 0.8; stroke-linejoin: miter; stroke-linecap: square"/>
   </g>
   <g id="patch_4">
    <path d="M 777.6 320.4 
L 777.6 43.2 
" style="fill: none"/>
   </g>
   <g id="patch_5">
    <path d="M 108 320.4 
L 777.6 320.4 
" style="fill: none; stroke: #a9a9a9; stroke-width: 0.8; stroke-linejoin: miter; stroke-linecap: square"/>
   </g>
   <g id="patch_6">
    <path d="M 108 43.2 
L 777.6 43.2 
" style="fill: none"/>
   </g>
   <g id="text_20">
    <!-- get_subscribe history -->
    <g style="fill: #a9a9a9" transform="translate(378.6075 37.2) scale(0.12 -0.12)">
     <defs>
      <path id="DejaVuSans-67" d="M 2906 1791 
Q 2906 2416 2648 2759 
Q 2391 3103 1925 3103 
Q 1463 3103 1205 2759 
Q 947 2416 947 1791 
Q 947 1169 1205 825 
Q 1463 481 1925 481 
Q 2391 481 2648 825 
Q 2906 1169 2906 1791 
z
M 3481 434 
Q 3481 -459 3084 -895 
Q 2688 -1331 1869 -1331 
Q 1566 -1331 1297 -1286 
Q 1028 -1241 775 -1147 
L 775 -588 
Q 1028 -725 1275 -790 
Q 1522 -856 1778 -856 
Q 2344 -856 2625 -561 
Q 2906 -266 2906 331 
L 2906 616 
Q 2728 306 2450 153 
Q 2172 0 1784 0 
Q 1141 0 747 490 
Q 353 981 353 1791 
Q 353 2603 747 3093 
Q 1141 3584 1784 3584 
Q 2172 3584 2450 3431 
Q 2728 3278 2906 2969 
L 2906 3500 
L 3481 3500 
L 3481 434 
z
" transform="scale(0.015625)"/>
      <path id="DejaVuSans-65" d="M 3597 1894 
L 3597 1613 
L 953 1613 
Q 991 1019 1311 708 
Q 1631 397 2203 397 
Q 2534 397 2845 478 
Q 3156 559 3463 722 
L 3463 178 
Q 3153 47 2828 -22 
Q 2503 -91 2169 -91 
Q 1331 -91 842 396 
Q 353 884 353 1716 
Q 353 2575 817 3079 
Q 1281 3584 2069 3584 
Q 2775 3584 3186 3129 
Q 3597 2675 3597 1894 
z
M 3022 2063 
Q 3016 2534 2758 2815 
Q 2500 3097 2075 3097 
Q 1594 3097 1305 2825 
Q 1016 2553 972 2059 
L 3022 2063 
z
" transform="scale(0.015625)"/>
      <path id="DejaVuSans-74" d="M 1172 4494 
L 1172 3500 
L 2356 3500 
L 2356 3053 
L 1172 3053 
L 1172 1153 
Q 1172 725 1289 603 
Q 1406 481 1766 481 
L 2356 481 
L 2356 0 
L 1766 0 
Q 1100 0 847 248 
Q 594 497 594 1153 
L 594 3053 
L 172 3053 
L 172 3500 
L 594 3500 
L 594 4494 
L 1172 4494 
z
" transform="scale(0.015625)"/>
      <path id="DejaVuSans-5f" d="M 3263 -1063 
L 3263 -1509 
L -63 -1509 
L -63 -1063 
L 3263 -1063 
z
" transform="scale(0.015625)"/>
      <path id="DejaVuSans-73" d="M 2834 3397 
L 2834 2853 
Q 2591 2978 2328 3040 
Q 2066 3103 1784 3103 
Q 1356 3103 1142 2972 
Q 928 2841 928 2578 
Q 928 2378 1081 2264 
Q 1234 2150 1697 2047 
L 1894 2003 
Q 2506 1872 2764 1633 
Q 3022 1394 3022 966 
Q 3022 478 2636 193 
Q 2250 -91 1575 -91 
Q 1294 -91 989 -36 
Q 684 19 347 128 
L 347 722 
Q 666 556 975 473 
Q 1284 391 1588 391 
Q 1994 391 2212 530 
Q 2431 669 2431 922 
Q 2431 1156 2273 1281 
Q 2116 1406 1581 1522 
L 1381 1569 
Q 847 1681 609 1914 
Q 372 2147 372 2553 
Q 372 3047 722 3315 
Q 1072 3584 1716 3584 
Q 2034 3584 2315 3537 
Q 2597 3491 2834 3397 
z
" transform="scale(0.015625)"/>
      <path id="DejaVuSans-75" d="M 544 1381 
L 544 3500 
L 1119 3500 
L 1119 1403 
Q 1119 906 1312 657 
Q 1506 409 1894 409 
Q 2359 409 2629 706 
Q 2900 1003 2900 1516 
L 2900 3500 
L 3475 3500 
L 3475 0 
L 2900 0 
L 2900 538 
Q 2691 219 2414 64 
Q 2138 -91 1772 -91 
Q 1169 -91 856 284 
Q 544 659 544 1381 
z
M 1991 3584 
L 1991 3584 
z
" transform="scale(0.015625)"/>
      <path id="DejaVuSans-62" d="M 3116 1747 
Q 3116 2381 2855 2742 
Q 2594 3103 2138 3103 
Q 1681 3103 1420 2742 
Q 1159 2381 1159 1747 
Q 1159 1113 1420 752 
Q 1681 391 2138 391 
Q 2594 391 2855 752 
Q 3116 1113 3116 1747 
z
M 1159 2969 
Q 1341 3281 1617 3432 
Q 1894 3584 2278 3584 
Q 2916 3584 3314 3078 
Q 3713 2572 3713 1747 
Q 3713 922 3314 415 
Q 2916 -91 2278 -91 
Q 1894 -91 1617 61 
Q 1341 213 1159 525 
L 1159 0 
L 581 0 
L 581 4863 
L 1159 4863 
L 1159 2969 
z
" transform="scale(0.015625)"/>
      <path id="DejaVuSans-63" d="M 3122 3366 
L 3122 2828 
Q 2878 2963 2633 3030 
Q 2388 3097 2138 3097 
Q 1578 3097 1268 2742 
Q 959 2388 959 1747 
Q 959 1106 1268 751 
Q 1578 397 2138 397 
Q 2388 397 2633 464 
Q 2878 531 3122 666 
L 3122 134 
Q 2881 22 2623 -34 
Q 2366 -91 2075 -91 
Q 1284 -91 818 406 
Q 353 903 353 1747 
Q 353 2603 823 3093 
Q 1294 3584 2113 3584 
Q 2378 3584 2631 3529 
Q 2884 3475 3122 3366 
z
" transform="scale(0.015625)"/>
      <path id="DejaVuSans-72" d="M 2631 2963 
Q 2534 3019 2420 3045 
Q 2306 3072 2169 3072 
Q 1681 3072 1420 2755 
Q 1159 2438 1159 1844 
L 1159 0 
L 581 0 
L 581 3500 
L 1159 3500 
L 1159 2956 
Q 1341 3275 1631 3429 
Q 1922 3584 2338 3584 
Q 2397 3584 2469 3576 
Q 2541 3569 2628 3553 
L 2631 2963 
z
" transform="scale(0.015625)"/>
      <path id="DejaVuSans-69" d="M 603 3500 
L 1178 3500 
L 1178 0 
L 603 0 
L 603 3500 
z
M 603 4863 
L 1178 4863 
L 1178 4134 
L 603 4134 
L 603 4863 
z
" transform="scale(0.015625)"/>
      <path id="DejaVuSans-20" transform="scale(0.015625)"/>
      <path id="DejaVuSans-68" d="M 3513 2113 
L 3513 0 
L 2938 0 
L 2938 2094 
Q 2938 2591 2744 2837 
Q 2550 3084 2163 3084 
Q 1697 3084 1428 2787 
Q 1159 2491 1159 1978 
L 1159 0 
L 581 0 
L 581 4863 
L 1159 4863 
L 1159 2956 
Q 1366 3272 1645 3428 
Q 1925 3584 2291 3584 
Q 2894 3584 3203 3211 
Q 3513 2838 3513 2113 
z
" transform="scale(0.015625)"/>
      <path id="DejaVuSans-6f" d="M 1959 3097 
Q 1497 3097 1228 2736 
Q 959 2375 959 1747 
Q 959 1119 1226 758 
Q 1494 397 1959 397 
Q 2419 397 2687 759 
Q 2956 1122 2956 1747 
Q 2956 2369 2687 2733 
Q 2419 3097 1959 3097 
z
M 1959 3584 
Q 2709 3584 3137 3096 
Q 3566 2609 3566 1747 
Q 3566 888 3137 398 
Q 2709 -91 1959 -91 
Q 1206 -91 779 398 
Q 353 888 353 1747 
Q 353 2609 779 3096 
Q 1206 3584 1959 3584 
z
" transform="scale(0.015625)"/>
      <path id="DejaVuSans-79" d="M 2059 -325 
Q 1816 -950 1584 -1140 
Q 1353 -1331 966 -1331 
L 506 -1331 
L 506 -850 
L 844 -850 
Q 1081 -850 1212 -737 
Q 1344 -625 1503 -206 
L 1606 56 
L 191 3500 
L 800 3500 
L 1894 763 
L 2988 3500 
L 3597 3500 
L 2059 -325 
z
" transform="scale(0.015625)"/>
     </defs>
     <use xlink:href="#DejaVuSans-67"/>
     <use xlink:href="#DejaVuSans-65" transform="translate(63.476562 0)"/>
     <use xlink:href="#DejaVuSans-74" transform="translate(125 0)"/>
     <use xlink:href="#DejaVuSans-5f" transform="translate(164.208984 0)"/>
     <use xlink:href="#DejaVuSans-73" transform="translate(214.208984 0)"/>
     <use xlink:href="#DejaVuSans-75" transform="translate(266.308594 0)"/>
     <use xlink:href="#DejaVuSans-62" transform="translate(329.6875 0)"/>
     <use xlink:href="#DejaVuSans-73" transform="translate(393.164062 0)"/>
     <use xlink:href="#DejaVuSans-63" transform="translate(445.263672 0)"/>
     <use xlink:href="#DejaVuSans-72" transform="translate(500.244141 0)"/>
     <use xlink:href="#DejaVuSans-69" transform="translate(541.357422 0)"/>
     <use xlink:href="#DejaVuSans-62" transform="translate(569.140625 0)"/>
     <use xlink:href="#DejaVuSans-65" transform="translate(632.617188 0)"/>
     <use xlink:href="#DejaVuSans-20" transform="translate(694.140625 0)"/>
     <use xlink:href="#DejaVuSans-68" transform="translate(725.927734 0)"/>
     <use xlink:href="#DejaVuSans-69" transform="translate(789.306641 0)"/>
     <use xlink:href="#DejaVuSans-73" transform="translate(817.089844 0)"/>
     <use xlink:href="#DejaVuSans-74" transform="translate(869.189453 0)"/>
     <use xlink:href="#DejaVuSans-6f" transform="translate(908.398438 0)"/>
     <use xlink:href="#DejaVuSans-72" transform="translate(969.580078 0)"/>
     <use xlink:href="#DejaVuSans-79" transform="translate(1010.693359 0)"/>
    </g>
   </g>
   <g id="legend_1">
    <g id="line2d_41">
     <path d="M 815.08 328.498438 
L 825.08 328.498438 
L 835.08 328.498438 
" style="fill: none; stroke: #1f77b4; stroke-width: 1.5; stroke-linecap: square"/>
    </g>
    <g id="text_21">
     <!-- star -->
     <g style="fill: #a9a9a9" transform="translate(843.08 331.998438) scale(0.1 -0.1)">
      <defs>
       <path id="DejaVuSans-61" d="M 2194 1759 
Q 1497 1759 1228 1600 
Q 959 1441 959 1056 
Q 959 750 1161 570 
Q 1363 391 1709 391 
Q 2188 391 2477 730 
Q 2766 1069 2766 1631 
L 2766 1759 
L 2194 1759 
z
M 3341 1997 
L 3341 0 
L 2766 0 
L 2766 531 
Q 2569 213 2275 61 
Q 1981 -91 1556 -91 
Q 1019 -91 701 211 
Q 384 513 384 1019 
Q 384 1609 779 1909 
Q 1175 2209 1959 2209 
L 2766 2209 
L 2766 2266 
Q 2766 2663 2505 2880 
Q 2244 3097 1772 3097 
Q 1472 3097 1187 3025 
Q 903 2953 641 2809 
L 641 3341 
Q 956 3463 1253 3523 
Q 1550 3584 1831 3584 
Q 2591 3584 2966 3190 
Q 3341 2797 3341 1997 
z
" transform="scale(0.015625)"/>
      </defs>
      <use xlink:href="#DejaVuSans-73"/>
      <use xlink:href="#DejaVuSans-74" transform="translate(52.099609 0)"/>
      <use xlink:href="#DejaVuSans-61" transform="translate(91.308594 0)"/>
      <use xlink:href="#DejaVuSans-72" transform="translate(152.587891 0)"/>
     </g>
    </g>
    <g id="line2d_42">
     <path d="M 815.08 343.176562 
L 825.08 343.176562 
L 835.08 343.176562 
" style="fill: none; stroke: #ff7f0e; stroke-width: 1.5; stroke-linecap: square"/>
    </g>
    <g id="text_22">
     <!-- fork -->
     <g style="fill: #a9a9a9" transform="translate(843.08 346.676562) scale(0.1 -0.1)">
      <defs>
       <path id="DejaVuSans-66" d="M 2375 4863 
L 2375 4384 
L 1825 4384 
Q 1516 4384 1395 4259 
Q 1275 4134 1275 3809 
L 1275 3500 
L 2222 3500 
L 2222 3053 
L 1275 3053 
L 1275 0 
L 697 0 
L 697 3053 
L 147 3053 
L 147 3500 
L 697 3500 
L 697 3744 
Q 697 4328 969 4595 
Q 1241 4863 1831 4863 
L 2375 4863 
z
" transform="scale(0.015625)"/>
       <path id="DejaVuSans-6b" d="M 581 4863 
L 1159 4863 
L 1159 1991 
L 2875 3500 
L 3609 3500 
L 1753 1863 
L 3688 0 
L 2938 0 
L 1159 1709 
L 1159 0 
L 581 0 
L 581 4863 
z
" transform="scale(0.015625)"/>
      </defs>
      <use xlink:href="#DejaVuSans-66"/>
      <use xlink:href="#DejaVuSans-6f" transform="translate(35.205078 0)"/>
      <use xlink:href="#DejaVuSans-72" transform="translate(96.386719 0)"/>
      <use xlink:href="#DejaVuSans-6b" transform="translate(137.5 0)"/>
     </g>
    </g>
   </g>
  </g>
 </g>
 <defs>
  <clipPath id="pbea9f1979a">
   <rect x="108" y="43.2" width="669.6" height="277.2"/>
  </clipPath>
 </defs>
</svg>
