<?xml version="1.0" encoding="utf-8" standalone="no"?>
<!DOCTYPE svg PUBLIC "-//W3C//DTD SVG 1.1//EN"
  "http://www.w3.org/Graphics/SVG/1.1/DTD/svg11.dtd">
<svg xmlns:xlink="http://www.w3.org/1999/xlink" width="864pt" height="360pt" viewBox="0 0 864 360" xmlns="http://www.w3.org/2000/svg" version="1.1">
 <metadata>
  <rdf:RDF xmlns:dc="http://purl.org/dc/elements/1.1/" xmlns:cc="http://creativecommons.org/ns#" xmlns:rdf="http://www.w3.org/1999/02/22-rdf-syntax-ns#">
   <cc:Work>
    <dc:type rdf:resource="http://purl.org/dc/dcmitype/StillImage"/>
    <dc:date>2026-04-08T08:27:46.128383</dc:date>
    <dc:format>image/svg+xml</dc:format>
    <dc:creator>
     <cc:Agent>
      <dc:title>Matplotlib v3.10.8, https://matplotlib.org/</dc:title>
     </cc:Agent>
    </dc:creator>
   </cc:Work>
  </rdf:RDF>
 </metadata>
 <defs>
  <style type="text/css">*{stroke-linejoin: round; stroke-linecap: butt}</style>
 </defs>
 <g id="figure_1">
  <g id="patch_1">
   <path d="M 0 360 
L 864 360 
L 864 0 
L 0 0 
L 0 360 
z
" style="fill: none; opacity: 0"/>
  </g>
  <g id="axes_1">
   <g id="patch_2">
    <path d="M 108 320.4 
L 777.6 320.4 
L 777.6 43.2 
L 108 43.2 
L 108 320.4 
z
" style="fill: none; opacity: 0"/>
   </g>
   <g id="matplotlib.axis_1">
    <g id="xtick_1">
     <g id="line2d_1">
      <path d="M 195.449215 320.4 
L 195.449215 43.2 
" clip-path="url(#pddf3b66b08)" style="fill: none; stroke-dasharray: 5.12,1.28,0.8,1.28; stroke-dashoffset: 0; stroke: #b0b0b0; stroke-width: 0.8"/>
     </g>
     <g id="line2d_2">
      <defs>
       <path id="m4988ee0fe1" d="M 0 0 
L 0 3.5 
" style="stroke: #a9a9a9; stroke-width: 0.8"/>
      </defs>
      <g>
       <use xlink:href="#m4988ee0fe1" x="195.449215" y="320.4" style="fill: #a9a9a9; stroke: #a9a9a9; stroke-width: 0.8"/>
      </g>
     </g>
     <g id="text_1">
      <!-- 2022 -->
      <g style="fill: #a9a9a9" transform="translate(182.724215 334.998438) scale(0.1 -0.1)">
       <defs>
        <path id="DejaVuSans-32" d="M 1228 531 
L 3431 531 
L 3431 0 
L 469 0 
L 469 531 
Q 828 903 1448 1529 
Q 2069 2156 2228 2338 
Q 2531 2678 2651 2914 
Q 2772 3150 2772 3378 
Q 2772 3750 2511 3984 
Q 2250 4219 1831 4219 
Q 1534 4219 1204 4116 
Q 875 4013 500 3803 
L 500 4441 
Q 881 4594 1212 4672 
Q 1544 4750 1819 4750 
Q 2544 4750 2975 4387 
Q 3406 4025 3406 3419 
Q 3406 3131 3298 2873 
Q 3191 2616 2906 2266 
Q 2828 2175 2409 1742 
Q 1991 1309 1228 531 
z
" transform="scale(0.015625)"/>
        <path id="DejaVuSans-30" d="M 2034 4250 
Q 1547 4250 1301 3770 
Q 1056 3291 1056 2328 
Q 1056 1369 1301 889 
Q 1547 409 2034 409 
Q 2525 409 2770 889 
Q 3016 1369 3016 2328 
Q 3016 3291 2770 3770 
Q 2525 4250 2034 4250 
z
M 2034 4750 
Q 2819 4750 3233 4129 
Q 3647 3509 3647 2328 
Q 3647 1150 3233 529 
Q 2819 -91 2034 -91 
Q 1250 -91 836 529 
Q 422 1150 422 2328 
Q 422 3509 836 4129 
Q 1250 4750 2034 4750 
z
" transform="scale(0.015625)"/>
       </defs>
       <use xlink:href="#DejaVuSans-32"/>
       <use xlink:href="#DejaVuSans-30" transform="translate(63.623047 0)"/>
       <use xlink:href="#DejaVuSans-32" transform="translate(127.246094 0)"/>
       <use xlink:href="#DejaVuSans-32" transform="translate(190.869141 0)"/>
      </g>
     </g>
    </g>
    <g id="xtick_2">
     <g id="line2d_3">
      <path d="M 324.701951 320.4 
L 324.701951 43.2 
" clip-path="url(#pddf3b66b08)" style="fill: none; stroke-dasharray: 5.12,1.28,0.8,1.28; stroke-dashoffset: 0; stroke: #b0b0b0; stroke-width: 0.8"/>
     </g>
     <g id="line2d_4">
      <g>
       <use xlink:href="#m4988ee0fe1" x="324.701951" y="320.4" style="fill: #a9a9a9; stroke: #a9a9a9; stroke-width: 0.8"/>
      </g>
     </g>
     <g id="text_2">
      <!-- 2023 -->
      <g style="fill: #a9a9a9" transform="translate(311.976951 334.998438) scale(0.1 -0.1)">
       <defs>
        <path id="DejaVuSans-33" d="M 2597 2516 
Q 3050 2419 3304 2112 
Q 3559 1806 3559 1356 
Q 3559 666 3084 287 
Q 2609 -91 1734 -91 
Q 1441 -91 1130 -33 
Q 819 25 488 141 
L 488 750 
Q 750 597 1062 519 
Q 1375 441 1716 441 
Q 2309 441 2620 675 
Q 2931 909 2931 1356 
Q 2931 1769 2642 2001 
Q 2353 2234 1838 2234 
L 1294 2234 
L 1294 2753 
L 1863 2753 
Q 2328 2753 2575 2939 
Q 2822 3125 2822 3475 
Q 2822 3834 2567 4026 
Q 2313 4219 1838 4219 
Q 1578 4219 1281 4162 
Q 984 4106 628 3988 
L 628 4550 
Q 988 4650 1302 4700 
Q 1616 4750 1894 4750 
Q 2613 4750 3031 4423 
Q 3450 4097 3450 3541 
Q 3450 3153 3228 2886 
Q 3006 2619 2597 2516 
z
" transform="scale(0.015625)"/>
       </defs>
       <use xlink:href="#DejaVuSans-32"/>
       <use xlink:href="#DejaVuSans-30" transform="translate(63.623047 0)"/>
       <use xlink:href="#DejaVuSans-32" transform="translate(127.246094 0)"/>
       <use xlink:href="#DejaVuSans-33" transform="translate(190.869141 0)"/>
      </g>
     </g>
    </g>
    <g id="xtick_3">
     <g id="line2d_5">
      <path d="M 453.954688 320.4 
L 453.954688 43.2 
" clip-path="url(#pddf3b66b08)" style="fill: none; stroke-dasharray: 5.12,1.28,0.8,1.28; stroke-dashoffset: 0; stroke: #b0b0b0; stroke-width: 0.8"/>
     </g>
     <g id="line2d_6">
      <g>
       <use xlink:href="#m4988ee0fe1" x="453.954688" y="320.4" style="fill: #a9a9a9; stroke: #a9a9a9; stroke-width: 0.8"/>
      </g>
     </g>
     <g id="text_3">
      <!-- 2024 -->
      <g style="fill: #a9a9a9" transform="translate(441.229688 334.998438) scale(0.1 -0.1)">
       <defs>
        <path id="DejaVuSans-34" d="M 2419 4116 
L 825 1625 
L 2419 1625 
L 2419 4116 
z
M 2253 4666 
L 3047 4666 
L 3047 1625 
L 3713 1625 
L 3713 1100 
L 3047 1100 
L 3047 0 
L 2419 0 
L 2419 1100 
L 313 1100 
L 313 1709 
L 2253 4666 
z
" transform="scale(0.015625)"/>
       </defs>
       <use xlink:href="#DejaVuSans-32"/>
       <use xlink:href="#DejaVuSans-30" transform="translate(63.623047 0)"/>
       <use xlink:href="#DejaVuSans-32" transform="translate(127.246094 0)"/>
       <use xlink:href="#DejaVuSans-34" transform="translate(190.869141 0)"/>
      </g>
     </g>
    </g>
    <g id="xtick_4">
     <g id="line2d_7">
      <path d="M 583.561542 320.4 
L 583.561542 43.2 
" clip-path="url(#pddf3b66b08)" style="fill: none; stroke-dasharray: 5.12,1.28,0.8,1.28; stroke-dashoffset: 0; stroke: #b0b0b0; stroke-width: 0.8"/>
     </g>
     <g id="line2d_8">
      <g>
       <use xlink:href="#m4988ee0fe1" x="583.561542" y="320.4" style="fill: #a9a9a9; stroke: #a9a9a9; stroke-width: 0.8"/>
      </g>
     </g>
     <g id="text_4">
      <!-- 2025 -->
      <g style="fill: #a9a9a9" transform="translate(570.836542 334.998438) scale(0.1 -0.1)">
       <defs>
        <path id="DejaVuSans-35" d="M 691 4666 
L 3169 4666 
L 3169 4134 
L 1269 4134 
L 1269 2991 
Q 1406 3038 1543 3061 
Q 1681 3084 1819 3084 
Q 2600 3084 3056 2656 
Q 3513 2228 3513 1497 
Q 3513 744 3044 326 
Q 2575 -91 1722 -91 
Q 1428 -91 1123 -41 
Q 819 9 494 109 
L 494 744 
Q 775 591 1075 516 
Q 1375 441 1709 441 
Q 2250 441 2565 725 
Q 2881 1009 2881 1497 
Q 2881 1984 2565 2268 
Q 2250 2553 1709 2553 
Q 1456 2553 1204 2497 
Q 953 2441 691 2322 
L 691 4666 
z
" transform="scale(0.015625)"/>
       </defs>
       <use xlink:href="#DejaVuSans-32"/>
       <use xlink:href="#DejaVuSans-30" transform="translate(63.623047 0)"/>
       <use xlink:href="#DejaVuSans-32" transform="translate(127.246094 0)"/>
       <use xlink:href="#DejaVuSans-35" transform="translate(190.869141 0)"/>
      </g>
     </g>
    </g>
    <g id="xtick_5">
     <g id="line2d_9">
      <path d="M 712.814279 320.4 
L 712.814279 43.2 
" clip-path="url(#pddf3b66b08)" style="fill: none; stroke-dasharray: 5.12,1.28,0.8,1.28; stroke-dashoffset: 0; stroke: #b0b0b0; stroke-width: 0.8"/>
     </g>
     <g id="line2d_10">
      <g>
       <use xlink:href="#m4988ee0fe1" x="712.814279" y="320.4" style="fill: #a9a9a9; stroke: #a9a9a9; stroke-width: 0.8"/>
      </g>
     </g>
     <g id="text_5">
      <!-- 2026 -->
      <g style="fill: #a9a9a9" transform="translate(700.089279 334.998438) scale(0.1 -0.1)">
       <defs>
        <path id="DejaVuSans-36" d="M 2113 2584 
Q 1688 2584 1439 2293 
Q 1191 2003 1191 1497 
Q 1191 994 1439 701 
Q 1688 409 2113 409 
Q 2538 409 2786 701 
Q 3034 994 3034 1497 
Q 3034 2003 2786 2293 
Q 2538 2584 2113 2584 
z
M 3366 4563 
L 3366 3988 
Q 3128 4100 2886 4159 
Q 2644 4219 2406 4219 
Q 1781 4219 1451 3797 
Q 1122 3375 1075 2522 
Q 1259 2794 1537 2939 
Q 1816 3084 2150 3084 
Q 2853 3084 3261 2657 
Q 3669 2231 3669 1497 
Q 3669 778 3244 343 
Q 2819 -91 2113 -91 
Q 1303 -91 875 529 
Q 447 1150 447 2328 
Q 447 3434 972 4092 
Q 1497 4750 2381 4750 
Q 2619 4750 2861 4703 
Q 3103 4656 3366 4563 
z
" transform="scale(0.015625)"/>
       </defs>
       <use xlink:href="#DejaVuSans-32"/>
       <use xlink:href="#DejaVuSans-30" transform="translate(63.623047 0)"/>
       <use xlink:href="#DejaVuSans-32" transform="translate(127.246094 0)"/>
       <use xlink:href="#DejaVuSans-36" transform="translate(190.869141 0)"/>
      </g>
     </g>
    </g>
   </g>
   <g id="matplotlib.axis_2">
    <g id="ytick_1">
     <g id="line2d_11">
      <path d="M 108 307.828568 
L 777.6 307.828568 
" clip-path="url(#pddf3b66b08)" style="fill: none; stroke-dasharray: 5.12,1.28,0.8,1.28; stroke-dashoffset: 0; stroke: #b0b0b0; stroke-width: 0.8"/>
     </g>
     <g id="line2d_12">
      <defs>
       <path id="m9f38706a13" d="M 0 0 
L -3.5 0 
" style="stroke: #a9a9a9; stroke-width: 0.8"/>
      </defs>
      <g>
       <use xlink:href="#m9f38706a13" x="108" y="307.828568" style="fill: #a9a9a9; stroke: #a9a9a9; stroke-width: 0.8"/>
      </g>
     </g>
     <g id="text_6">
      <!-- 0 -->
      <g style="fill: #a9a9a9" transform="translate(94.6375 311.627787) scale(0.1 -0.1)">
       <use xlink:href="#DejaVuSans-30"/>
      </g>
     </g>
    </g>
    <g id="ytick_2">
     <g id="line2d_13">
      <path d="M 108 279.260379 
L 777.6 279.260379 
" clip-path="url(#pddf3b66b08)" style="fill: none; stroke-dasharray: 5.12,1.28,0.8,1.28; stroke-dashoffset: 0; stroke: #b0b0b0; stroke-width: 0.8"/>
     </g>
     <g id="line2d_14">
      <g>
       <use xlink:href="#m9f38706a13" x="108" y="279.260379" style="fill: #a9a9a9; stroke: #a9a9a9; stroke-width: 0.8"/>
      </g>
     </g>
     <g id="text_7">
      <!-- 1000 -->
      <g style="fill: #a9a9a9" transform="translate(75.55 283.059597) scale(0.1 -0.1)">
       <defs>
        <path id="DejaVuSans-31" d="M 794 531 
L 1825 531 
L 1825 4091 
L 703 3866 
L 703 4441 
L 1819 4666 
L 2450 4666 
L 2450 531 
L 3481 531 
L 3481 0 
L 794 0 
L 794 531 
z
" transform="scale(0.015625)"/>
       </defs>
       <use xlink:href="#DejaVuSans-31"/>
       <use xlink:href="#DejaVuSans-30" transform="translate(63.623047 0)"/>
       <use xlink:href="#DejaVuSans-30" transform="translate(127.246094 0)"/>
       <use xlink:href="#DejaVuSans-30" transform="translate(190.869141 0)"/>
      </g>
     </g>
    </g>
    <g id="ytick_3">
     <g id="line2d_15">
      <path d="M 108 250.692189 
L 777.6 250.692189 
" clip-path="url(#pddf3b66b08)" style="fill: none; stroke-dasharray: 5.12,1.28,0.8,1.28; stroke-dashoffset: 0; stroke: #b0b0b0; stroke-width: 0.8"/>
     </g>
     <g id="line2d_16">
      <g>
       <use xlink:href="#m9f38706a13" x="108" y="250.692189" style="fill: #a9a9a9; stroke: #a9a9a9; stroke-width: 0.8"/>
      </g>
     </g>
     <g id="text_8">
      <!-- 2000 -->
      <g style="fill: #a9a9a9" transform="translate(75.55 254.491408) scale(0.1 -0.1)">
       <use xlink:href="#DejaVuSans-32"/>
       <use xlink:href="#DejaVuSans-30" transform="translate(63.623047 0)"/>
       <use xlink:href="#DejaVuSans-30" transform="translate(127.246094 0)"/>
       <use xlink:href="#DejaVuSans-30" transform="translate(190.869141 0)"/>
      </g>
     </g>
    </g>
    <g id="ytick_4">
     <g id="line2d_17">
      <path d="M 108 222.124 
L 777.6 222.124 
" clip-path="url(#pddf3b66b08)" style="fill: none; stroke-dasharray: 5.12,1.28,0.8,1.28; stroke-dashoffset: 0; stroke: #b0b0b0; stroke-width: 0.8"/>
     </g>
     <g id="line2d_18">
      <g>
       <use xlink:href="#m9f38706a13" x="108" y="222.124" style="fill: #a9a9a9; stroke: #a9a9a9; stroke-width: 0.8"/>
      </g>
     </g>
     <g id="text_9">
      <!-- 3000 -->
      <g style="fill: #a9a9a9" transform="translate(75.55 225.923218) scale(0.1 -0.1)">
       <use xlink:href="#DejaVuSans-33"/>
       <use xlink:href="#DejaVuSans-30" transform="translate(63.623047 0)"/>
       <use xlink:href="#DejaVuSans-30" transform="translate(127.246094 0)"/>
       <use xlink:href="#DejaVuSans-30" transform="translate(190.869141 0)"/>
      </g>
     </g>
    </g>
    <g id="ytick_5">
     <g id="line2d_19">
      <path d="M 108 193.55581 
L 777.6 193.55581 
" clip-path="url(#pddf3b66b08)" style="fill: none; stroke-dasharray: 5.12,1.28,0.8,1.28; stroke-dashoffset: 0; stroke: #b0b0b0; stroke-width: 0.8"/>
     </g>
     <g id="line2d_20">
      <g>
       <use xlink:href="#m9f38706a13" x="108" y="193.55581" style="fill: #a9a9a9; stroke: #a9a9a9; stroke-width: 0.8"/>
      </g>
     </g>
     <g id="text_10">
      <!-- 4000 -->
      <g style="fill: #a9a9a9" transform="translate(75.55 197.355029) scale(0.1 -0.1)">
       <use xlink:href="#DejaVuSans-34"/>
       <use xlink:href="#DejaVuSans-30" transform="translate(63.623047 0)"/>
       <use xlink:href="#DejaVuSans-30" transform="translate(127.246094 0)"/>
       <use xlink:href="#DejaVuSans-30" transform="translate(190.869141 0)"/>
      </g>
     </g>
    </g>
    <g id="ytick_6">
     <g id="line2d_21">
      <path d="M 108 164.98762 
L 777.6 164.98762 
" clip-path="url(#pddf3b66b08)" style="fill: none; stroke-dasharray: 5.12,1.28,0.8,1.28; stroke-dashoffset: 0; stroke: #b0b0b0; stroke-width: 0.8"/>
     </g>
     <g id="line2d_22">
      <g>
       <use xlink:href="#m9f38706a13" x="108" y="164.98762" style="fill: #a9a9a9; stroke: #a9a9a9; stroke-width: 0.8"/>
      </g>
     </g>
     <g id="text_11">
      <!-- 5000 -->
      <g style="fill: #a9a9a9" transform="translate(75.55 168.786839) scale(0.1 -0.1)">
       <use xlink:href="#DejaVuSans-35"/>
       <use xlink:href="#DejaVuSans-30" transform="translate(63.623047 0)"/>
       <use xlink:href="#DejaVuSans-30" transform="translate(127.246094 0)"/>
       <use xlink:href="#DejaVuSans-30" transform="translate(190.869141 0)"/>
      </g>
     </g>
    </g>
    <g id="ytick_7">
     <g id="line2d_23">
      <path d="M 108 136.419431 
L 777.6 136.419431 
" clip-path="url(#pddf3b66b08)" style="fill: none; stroke-dasharray: 5.12,1.28,0.8,1.28; stroke-dashoffset: 0; stroke: #b0b0b0; stroke-width: 0.8"/>
     </g>
     <g id="line2d_24">
      <g>
       <use xlink:href="#m9f38706a13" x="108" y="136.419431" style="fill: #a9a9a9; stroke: #a9a9a9; stroke-width: 0.8"/>
      </g>
     </g>
     <g id="text_12">
      <!-- 6000 -->
      <g style="fill: #a9a9a9" transform="translate(75.55 140.21865) scale(0.1 -0.1)">
       <use xlink:href="#DejaVuSans-36"/>
       <use xlink:href="#DejaVuSans-30" transform="translate(63.623047 0)"/>
       <use xlink:href="#DejaVuSans-30" transform="translate(127.246094 0)"/>
       <use xlink:href="#DejaVuSans-30" transform="translate(190.869141 0)"/>
      </g>
     </g>
    </g>
    <g id="ytick_8">
     <g id="line2d_25">
      <path d="M 108 107.851241 
L 777.6 107.851241 
" clip-path="url(#pddf3b66b08)" style="fill: none; stroke-dasharray: 5.12,1.28,0.8,1.28; stroke-dashoffset: 0; stroke: #b0b0b0; stroke-width: 0.8"/>
     </g>
     <g id="line2d_26">
      <g>
       <use xlink:href="#m9f38706a13" x="108" y="107.851241" style="fill: #a9a9a9; stroke: #a9a9a9; stroke-width: 0.8"/>
      </g>
     </g>
     <g id="text_13">
      <!-- 7000 -->
      <g style="fill: #a9a9a9" transform="translate(75.55 111.65046) scale(0.1 -0.1)">
       <defs>
        <path id="DejaVuSans-37" d="M 525 4666 
L 3525 4666 
L 3525 4397 
L 1831 0 
L 1172 0 
L 2766 4134 
L 525 4134 
L 525 4666 
z
" transform="scale(0.015625)"/>
       </defs>
       <use xlink:href="#DejaVuSans-37"/>
       <use xlink:href="#DejaVuSans-30" transform="translate(63.623047 0)"/>
       <use xlink:href="#DejaVuSans-30" transform="translate(127.246094 0)"/>
       <use xlink:href="#DejaVuSans-30" transform="translate(190.869141 0)"/>
      </g>
     </g>
    </g>
    <g id="ytick_9">
     <g id="line2d_27">
      <path d="M 108 79.283052 
L 777.6 79.283052 
" clip-path="url(#pddf3b66b08)" style="fill: none; stroke-dasharray: 5.12,1.28,0.8,1.28; stroke-dashoffset: 0; stroke: #b0b0b0; stroke-width: 0.8"/>
     </g>
     <g id="line2d_28">
      <g>
       <use xlink:href="#m9f38706a13" x="108" y="79.283052" style="fill: #a9a9a9; stroke: #a9a9a9; stroke-width: 0.8"/>
      </g>
     </g>
     <g id="text_14">
      <!-- 8000 -->
      <g style="fill: #a9a9a9" transform="translate(75.55 83.082271) scale(0.1 -0.1)">
       <defs>
        <path id="DejaVuSans-38" d="M 2034 2216 
Q 1584 2216 1326 1975 
Q 1069 1734 1069 1313 
Q 1069 891 1326 650 
Q 1584 409 2034 409 
Q 2484 409 2743 651 
Q 3003 894 3003 1313 
Q 3003 1734 2745 1975 
Q 2488 2216 2034 2216 
z
M 1403 2484 
Q 997 2584 770 2862 
Q 544 3141 544 3541 
Q 544 4100 942 4425 
Q 1341 4750 2034 4750 
Q 2731 4750 3128 4425 
Q 3525 4100 3525 3541 
Q 3525 3141 3298 2862 
Q 3072 2584 2669 2484 
Q 3125 2378 3379 2068 
Q 3634 1759 3634 1313 
Q 3634 634 3220 271 
Q 2806 -91 2034 -91 
Q 1263 -91 848 271 
Q 434 634 434 1313 
Q 434 1759 690 2068 
Q 947 2378 1403 2484 
z
M 1172 3481 
Q 1172 3119 1398 2916 
Q 1625 2713 2034 2713 
Q 2441 2713 2670 2916 
Q 2900 3119 2900 3481 
Q 2900 3844 2670 4047 
Q 2441 4250 2034 4250 
Q 1625 4250 1398 4047 
Q 1172 3844 1172 3481 
z
" transform="scale(0.015625)"/>
       </defs>
       <use xlink:href="#DejaVuSans-38"/>
       <use xlink:href="#DejaVuSans-30" transform="translate(63.623047 0)"/>
       <use xlink:href="#DejaVuSans-30" transform="translate(127.246094 0)"/>
       <use xlink:href="#DejaVuSans-30" transform="translate(190.869141 0)"/>
      </g>
     </g>
    </g>
    <g id="ytick_10">
     <g id="line2d_29">
      <path d="M 108 50.714862 
L 777.6 50.714862 
" clip-path="url(#pddf3b66b08)" style="fill: none; stroke-dasharray: 5.12,1.28,0.8,1.28; stroke-dashoffset: 0; stroke: #b0b0b0; stroke-width: 0.8"/>
     </g>
     <g id="line2d_30">
      <g>
       <use xlink:href="#m9f38706a13" x="108" y="50.714862" style="fill: #a9a9a9; stroke: #a9a9a9; stroke-width: 0.8"/>
      </g>
     </g>
     <g id="text_15">
      <!-- 9000 -->
      <g style="fill: #a9a9a9" transform="translate(75.55 54.514081) scale(0.1 -0.1)">
       <defs>
        <path id="DejaVuSans-39" d="M 703 97 
L 703 672 
Q 941 559 1184 500 
Q 1428 441 1663 441 
Q 2288 441 2617 861 
Q 2947 1281 2994 2138 
Q 2813 1869 2534 1725 
Q 2256 1581 1919 1581 
Q 1219 1581 811 2004 
Q 403 2428 403 3163 
Q 403 3881 828 4315 
Q 1253 4750 1959 4750 
Q 2769 4750 3195 4129 
Q 3622 3509 3622 2328 
Q 3622 1225 3098 567 
Q 2575 -91 1691 -91 
Q 1453 -91 1209 -44 
Q 966 3 703 97 
z
M 1959 2075 
Q 2384 2075 2632 2365 
Q 2881 2656 2881 3163 
Q 2881 3666 2632 3958 
Q 2384 4250 1959 4250 
Q 1534 4250 1286 3958 
Q 1038 3666 1038 3163 
Q 1038 2656 1286 2365 
Q 1534 2075 1959 2075 
z
" transform="scale(0.015625)"/>
       </defs>
       <use xlink:href="#DejaVuSans-39"/>
       <use xlink:href="#DejaVuSans-30" transform="translate(63.623047 0)"/>
       <use xlink:href="#DejaVuSans-30" transform="translate(127.246094 0)"/>
       <use xlink:href="#DejaVuSans-30" transform="translate(190.869141 0)"/>
      </g>
     </g>
    </g>
   </g>
   <g id="line2d_31">
    <path d="M 138.436364 307.742864 
L 140.561066 307.542886 
L 140.915183 307.371477 
L 142.331652 307.1715 
L 143.74812 306.85725 
L 145.164588 306.628704 
L 146.22694 306.571568 
L 146.935174 306.285886 
L 147.289291 305.771659 
L 147.643408 305.514545 
L 147.997525 304.657499 
L 148.351642 304.600363 
L 149.059876 304.143272 
L 149.76811 303.600476 
L 151.184579 302.514885 
L 151.538696 302.372044 
L 152.24693 301.914953 
L 153.309281 301.372157 
L 153.663398 300.772225 
L 154.371633 300.200862 
L 155.079867 299.972316 
L 156.142218 299.800907 
L 158.266921 299.458089 
L 158.621038 299.28668 
L 161.099857 299.058134 
L 162.516326 298.686748 
L 165.349262 298.258225 
L 165.703379 298.058247 
L 166.057496 298.001111 
L 166.765731 297.743997 
L 169.24455 297.286906 
L 169.952784 297.058361 
L 173.139838 296.486997 
L 173.848072 296.315588 
L 175.264541 296.11561 
L 175.972775 295.887065 
L 176.326892 295.344269 
L 177.389243 294.887178 
L 178.451594 294.572928 
L 178.805712 294.372951 
L 179.513946 294.23011 
L 181.284531 293.773019 
L 182.346882 293.515905 
L 183.763351 293.144519 
L 184.117468 293.115951 
L 184.825702 292.773132 
L 185.179819 292.715996 
L 185.533936 292.516019 
L 190.137458 291.687541 
L 191.553927 291.030473 
L 192.262161 290.830495 
L 192.970395 290.516245 
L 193.678629 289.97345 
L 194.74098 289.744904 
L 202.531556 287.28804 
L 202.885673 287.259472 
L 203.948025 286.916653 
L 204.302142 286.916653 
L 204.656259 286.745244 
L 205.364493 286.65954 
L 205.71861 286.516699 
L 207.489196 286.430994 
L 207.843313 286.34529 
L 208.551547 285.945335 
L 209.613898 285.54538 
L 210.322132 285.145426 
L 211.384484 284.659766 
L 212.800952 283.916994 
L 213.155069 283.517039 
L 213.863303 282.317175 
L 214.925654 281.974357 
L 215.279772 281.688675 
L 216.342123 281.28872 
L 216.69624 280.917334 
L 217.758591 280.460243 
L 218.112708 280.260265 
L 220.237411 277.689128 
L 220.945645 277.34631 
L 222.362113 276.317855 
L 223.070347 275.803628 
L 223.424465 275.260832 
L 223.778582 274.375218 
L 224.132699 273.803854 
L 226.257401 272.061195 
L 227.319752 271.089876 
L 228.027987 270.147126 
L 229.090338 269.347217 
L 230.506806 268.433035 
L 231.21504 268.03308 
L 232.631509 267.233171 
L 234.402094 265.461943 
L 235.110328 265.147693 
L 235.818563 264.633466 
L 236.17268 264.40492 
L 236.526797 264.347784 
L 237.589148 263.719284 
L 237.943265 263.290761 
L 239.713851 262.262306 
L 240.067968 262.119465 
L 241.130319 261.319556 
L 246.442075 259.262646 
L 247.150309 258.548441 
L 248.212661 257.977077 
L 248.920895 257.491418 
L 249.629129 257.262873 
L 249.983246 257.005759 
L 250.337363 256.891486 
L 251.399714 256.120145 
L 253.524417 255.491645 
L 254.232651 255.034554 
L 255.295002 254.77744 
L 255.649119 254.691736 
L 256.711471 253.891826 
L 258.127939 253.463303 
L 258.482056 253.177622 
L 260.606759 252.377712 
L 261.314993 252.234871 
L 262.023227 251.920621 
L 264.502047 250.949303 
L 265.210281 250.863598 
L 266.626749 250.292234 
L 270.522037 248.206757 
L 271.230271 247.863938 
L 271.938505 247.52112 
L 272.64674 247.378279 
L 273.354974 246.921188 
L 274.063208 246.721211 
L 275.125559 246.26412 
L 276.542028 246.064142 
L 277.250262 245.664188 
L 277.604379 245.321369 
L 277.958496 244.635733 
L 279.374964 244.20721 
L 280.791433 243.521574 
L 283.978486 242.007459 
L 284.686721 241.83605 
L 285.749072 241.264687 
L 286.103189 241.20755 
L 287.873774 240.2648 
L 288.582009 239.779141 
L 289.64436 239.550595 
L 292.831414 238.407868 
L 294.247882 237.779367 
L 294.601999 237.493686 
L 295.310233 237.093731 
L 296.018467 236.808049 
L 297.080819 236.436663 
L 297.789053 235.951003 
L 298.14317 235.551049 
L 298.497287 235.322503 
L 298.851404 235.236799 
L 299.559638 234.608298 
L 299.913755 234.551162 
L 300.267872 233.922662 
L 300.62199 233.779821 
L 300.976107 233.465571 
L 301.330224 233.408434 
L 302.038458 232.922775 
L 302.746692 232.665661 
L 303.100809 232.37998 
L 303.809043 231.980025 
L 305.225512 231.065843 
L 307.350214 230.065956 
L 307.704331 229.408888 
L 308.412565 228.837524 
L 309.1208 228.551842 
L 309.474917 228.294728 
L 309.829034 228.209024 
L 310.537268 227.837637 
L 311.953736 227.094865 
L 312.66197 226.409228 
L 313.370205 225.780728 
L 314.078439 225.323637 
L 314.786673 224.638 
L 315.494907 224.038068 
L 315.849024 223.866659 
L 316.557258 223.095318 
L 317.61961 222.581091 
L 318.327844 222.152568 
L 318.681961 222.038295 
L 319.036078 221.752613 
L 319.390195 221.695477 
L 322.577249 219.981385 
L 323.285483 219.781408 
L 324.701951 219.267181 
L 325.410186 218.781521 
L 326.826654 218.238726 
L 327.534888 217.781635 
L 328.243122 217.495953 
L 328.951356 216.953157 
L 329.659591 215.467611 
L 330.367825 214.610566 
L 331.430176 214.039202 
L 332.13841 213.724952 
L 332.492527 213.667815 
L 333.200762 213.324997 
L 334.971347 212.667929 
L 335.679581 212.18227 
L 336.741932 211.725179 
L 338.512518 210.611019 
L 339.220752 209.925383 
L 340.283103 209.382587 
L 340.63722 209.096905 
L 341.345455 208.725519 
L 343.470157 207.639927 
L 344.178391 207.43995 
L 345.240743 207.097132 
L 346.657211 206.411495 
L 350.552499 204.44029 
L 351.260733 203.840358 
L 351.968967 203.640381 
L 352.323084 203.297563 
L 352.677201 203.240426 
L 353.385436 202.669062 
L 355.156021 201.554903 
L 355.864255 201.326358 
L 356.218372 201.097812 
L 356.572489 201.040676 
L 358.697192 200.097925 
L 362.946597 198.726652 
L 364.008948 197.955311 
L 364.717182 197.555357 
L 366.133651 196.841152 
L 367.196002 196.098379 
L 367.904236 195.92697 
L 368.966587 195.241333 
L 372.153641 194.098606 
L 372.861875 193.841492 
L 374.278344 193.527242 
L 374.986578 193.298696 
L 376.757163 192.670196 
L 377.819515 192.327378 
L 378.527749 192.155969 
L 380.652451 191.756014 
L 381.360685 191.613173 
L 382.423037 191.356059 
L 382.777154 191.18465 
L 383.485388 191.041809 
L 384.193622 190.841832 
L 384.901856 190.499014 
L 385.255973 190.356173 
L 385.61009 190.356173 
L 390.921847 188.584945 
L 391.275964 188.18499 
L 393.400666 187.24224 
L 394.817135 186.728013 
L 395.171252 186.499467 
L 396.941837 185.956672 
L 397.295954 185.699558 
L 397.650071 185.613853 
L 398.004188 185.299603 
L 399.06654 185.071058 
L 399.774774 184.728239 
L 400.128891 184.271148 
L 411.106521 181.528602 
L 412.522989 181.071511 
L 413.58534 180.728693 
L 415.355926 179.98592 
L 415.710043 179.728806 
L 417.480628 179.186011 
L 418.897097 178.528942 
L 420.313565 178.357533 
L 428.458258 175.157896 
L 430.228843 174.643669 
L 430.937078 174.272282 
L 431.999429 174.015168 
L 433.415897 172.786736 
L 435.894717 171.672577 
L 438.373536 170.558417 
L 439.435888 170.187031 
L 440.144122 169.844213 
L 440.852356 169.41569 
L 441.206473 169.329985 
L 442.977059 168.30153 
L 446.164112 166.701712 
L 446.518229 166.41603 
L 448.288815 165.730393 
L 450.767634 164.787643 
L 451.475869 164.701939 
L 451.829986 164.444825 
L 453.246454 164.159143 
L 453.954688 163.844893 
L 455.725274 162.959279 
L 460.328796 160.816665 
L 461.391147 160.445278 
L 461.745264 160.188165 
L 462.453498 160.10246 
L 462.807615 159.873915 
L 463.51585 159.759642 
L 468.119372 158.016982 
L 469.181723 157.759868 
L 470.598191 157.159937 
L 471.306426 156.759982 
L 472.722894 155.988641 
L 473.431128 155.817232 
L 473.785245 155.588686 
L 474.139362 155.53155 
L 475.909948 154.617368 
L 480.51347 152.817572 
L 480.867587 152.760435 
L 482.284055 152.046231 
L 482.992289 151.90339 
L 483.700524 151.474867 
L 485.116992 150.760662 
L 491.845217 147.932411 
L 492.553451 147.218207 
L 493.615802 146.675411 
L 494.678153 146.361161 
L 495.03227 146.075479 
L 495.740505 145.818365 
L 496.802856 145.075592 
L 497.51109 144.875615 
L 498.219324 144.47566 
L 499.281675 144.218547 
L 506.0099 141.418864 
L 506.718134 141.104614 
L 508.842837 140.304705 
L 510.613422 139.390523 
L 511.321656 139.161977 
L 511.675773 138.819159 
L 512.738125 138.390636 
L 513.092242 138.3335 
L 514.50871 137.647863 
L 515.571061 137.305045 
L 516.633413 136.90509 
L 517.695764 136.59084 
L 518.049881 136.533704 
L 518.758115 136.133749 
L 519.112232 135.990908 
L 519.466349 135.705226 
L 520.528701 135.419544 
L 521.236935 135.133862 
L 521.945169 134.819612 
L 523.361637 134.21968 
L 525.840457 133.59118 
L 526.548691 133.305498 
L 530.798096 132.219907 
L 532.922799 130.90577 
L 533.98515 130.27727 
L 536.109852 129.591634 
L 536.46397 129.305952 
L 539.296906 128.277497 
L 540.359257 127.934679 
L 541.067492 127.534724 
L 541.775726 127.334747 
L 542.129843 127.134769 
L 542.838077 126.991928 
L 544.608663 126.163451 
L 545.316897 125.877769 
L 546.733365 125.306405 
L 547.087482 124.963587 
L 547.441599 124.906451 
L 548.858068 124.306519 
L 550.274536 123.935132 
L 550.628653 123.906564 
L 550.98277 123.735155 
L 551.691004 123.592314 
L 554.878058 122.592427 
L 555.586292 122.021063 
L 557.002761 121.192586 
L 558.065112 120.849768 
L 561.252166 119.249949 
L 561.606283 118.964267 
L 563.730985 118.335767 
L 564.439219 118.050085 
L 565.501571 117.678699 
L 565.855688 117.364448 
L 568.334507 116.450266 
L 569.396859 115.964607 
L 569.750976 115.936039 
L 570.45921 115.650357 
L 571.875678 115.021857 
L 574.000381 114.479061 
L 575.062732 113.993402 
L 578.249786 112.964947 
L 578.95802 112.564993 
L 587.810947 109.76531 
L 588.165064 109.736742 
L 589.581533 109.165378 
L 591.352118 108.793992 
L 592.768586 108.251196 
L 593.122703 108.251196 
L 594.185055 107.994082 
L 594.893289 107.851241 
L 595.601523 107.651264 
L 596.663874 107.0799 
L 598.080343 106.622809 
L 602.683865 104.88015 
L 603.746216 104.508763 
L 605.516802 103.537445 
L 606.225036 103.45174 
L 608.703855 102.737535 
L 609.766207 102.50899 
L 612.599143 101.480535 
L 617.202665 99.680739 
L 617.9109 99.566466 
L 618.619134 99.423625 
L 618.973251 99.423625 
L 620.035602 99.080807 
L 621.806188 98.56658 
L 623.222656 98.080921 
L 627.826178 96.938193 
L 628.888529 96.423966 
L 630.304998 95.966875 
L 635.262637 94.45276 
L 635.616754 94.424192 
L 636.679105 94.024238 
L 637.387339 93.909965 
L 639.866159 92.967215 
L 642.344979 92.481555 
L 644.115564 91.967328 
L 644.469681 91.795919 
L 645.177915 91.167419 
L 648.364969 89.910418 
L 649.073203 89.796146 
L 651.90614 88.824827 
L 652.968491 88.224895 
L 653.322608 88.139191 
L 653.676725 87.853509 
L 654.739077 87.539259 
L 660.050833 85.082394 
L 661.821418 84.453894 
L 662.175535 84.139644 
L 662.529653 84.082508 
L 663.237887 83.625417 
L 664.300238 83.311167 
L 665.716706 82.711235 
L 666.070823 82.682666 
L 667.841409 81.99703 
L 668.549643 81.854189 
L 669.257877 81.339961 
L 669.611994 81.339961 
L 671.028463 80.825734 
L 672.444931 80.540052 
L 673.861399 79.911552 
L 674.215516 79.911552 
L 676.694336 79.168779 
L 677.40257 78.597415 
L 680.589624 77.426119 
L 682.006092 77.083301 
L 684.484912 76.397665 
L 686.609614 75.654892 
L 688.026083 75.340642 
L 690.504902 74.626437 
L 691.213137 74.483596 
L 694.046073 73.426573 
L 694.754307 73.283732 
L 696.170776 73.026618 
L 696.87901 72.912346 
L 698.295478 72.340982 
L 699.003713 72.141004 
L 699.711947 72.026732 
L 701.128415 71.598209 
L 701.482532 71.598209 
L 702.190766 71.198254 
L 705.37782 70.341208 
L 707.502523 69.398458 
L 707.85664 69.341322 
L 708.564874 68.998504 
L 709.273108 68.684253 
L 709.981342 68.398572 
L 710.689576 68.11289 
L 711.043693 67.912912 
L 711.397811 67.855776 
L 712.106045 67.541526 
L 713.168396 67.084435 
L 714.938981 66.313094 
L 715.293099 66.084548 
L 715.647216 65.998844 
L 716.001333 65.770298 
L 716.35545 65.713162 
L 716.709567 65.42748 
L 717.417801 65.198934 
L 718.480152 65.027525 
L 719.188386 64.79898 
L 719.542504 64.541866 
L 723.437792 63.199161 
L 724.146026 62.827775 
L 725.562494 62.256411 
L 728.395431 61.456502 
L 729.811899 61.285092 
L 730.87425 61.056547 
L 731.228367 60.99941 
L 732.290719 60.399479 
L 732.644836 60.342342 
L 733.35307 60.028092 
L 734.415421 59.856683 
L 735.123655 59.513865 
L 740.435412 57.428387 
L 741.497763 57.171273 
L 743.622465 56.599909 
L 744.3307 56.571341 
L 746.809519 55.8 
L 747.163636 55.8 
L 747.163636 55.8 
" clip-path="url(#pddf3b66b08)" style="fill: none; stroke: #1f77b4; stroke-width: 1.5; stroke-linecap: square"/>
   </g>
   <g id="line2d_32">
    <path d="M 138.790481 307.8 
L 141.977535 307.714295 
L 144.810471 307.571454 
L 146.22694 307.571454 
L 146.935174 307.457182 
L 155.433984 306.85725 
L 158.266921 306.771545 
L 160.037506 306.714409 
L 164.641028 306.628704 
L 166.411614 306.571568 
L 169.598667 306.485863 
L 171.015136 306.457295 
L 174.556307 306.371591 
L 175.972775 306.22875 
L 177.389243 306.200181 
L 179.513946 306.114477 
L 180.930414 306.085909 
L 182.701 306.028772 
L 184.117468 305.885931 
L 187.304522 305.800227 
L 188.012756 305.74309 
L 189.429224 305.657386 
L 191.553927 305.571681 
L 192.970395 305.485977 
L 199.344503 305.057454 
L 201.823322 304.971749 
L 202.885673 304.857476 
L 204.656259 304.771772 
L 208.19743 304.571795 
L 211.738601 304.514658 
L 213.155069 304.371817 
L 214.925654 304.286113 
L 218.466825 303.914726 
L 220.591528 303.629044 
L 222.007996 303.571908 
L 224.840933 303.200521 
L 226.965635 303.143385 
L 228.027987 303.057681 
L 229.090338 302.971976 
L 247.504426 301.572135 
L 249.983246 301.48643 
L 251.399714 301.315021 
L 253.1703 301.229316 
L 255.295002 301.143612 
L 257.065588 301.057907 
L 258.482056 301.029339 
L 260.252642 300.972203 
L 260.960876 300.886498 
L 265.918515 300.800794 
L 266.626749 300.715089 
L 270.876154 300.629384 
L 274.063208 300.457975 
L 276.542028 300.372271 
L 278.312613 300.172293 
L 280.437316 300.086589 
L 281.499667 299.943748 
L 286.457306 299.858043 
L 287.873774 299.715202 
L 289.290243 299.686634 
L 290.352594 299.60093 
L 291.769062 299.458089 
L 295.310233 299.258111 
L 298.851404 299.172407 
L 302.038458 299.000998 
L 303.100809 298.972429 
L 303.809043 298.858157 
L 305.579629 298.80102 
L 306.287863 298.743884 
L 308.058448 298.658179 
L 309.474917 298.629611 
L 311.953736 298.543907 
L 321.160781 297.886838 
L 323.285483 297.801134 
L 325.056069 297.743997 
L 330.013708 297.658293 
L 330.721942 297.572588 
L 335.679581 297.486884 
L 339.220752 297.286906 
L 339.928986 297.258338 
L 340.63722 297.172633 
L 342.407806 297.086929 
L 344.178391 297.029793 
L 345.948977 296.944088 
L 347.719562 296.886952 
L 350.906616 296.801247 
L 353.031318 296.715542 
L 357.988958 296.629838 
L 361.884246 296.401292 
L 363.300714 296.344156 
L 364.363065 296.258451 
L 369.320704 296.172747 
L 371.445407 296.087042 
L 377.819515 296.001338 
L 379.235983 295.97277 
L 383.485388 295.915633 
L 384.193622 295.858497 
L 389.151261 295.772792 
L 390.56773 295.744224 
L 399.774774 295.658519 
L 401.899476 295.572815 
L 416.772394 295.48711 
L 418.54298 295.429974 
L 428.812375 295.344269 
L 432.707663 295.115724 
L 434.832366 295.030019 
L 436.957068 294.944315 
L 440.498239 294.85861 
L 442.977059 294.744337 
L 445.809995 294.658633 
L 448.642932 294.515792 
L 455.371157 294.430087 
L 457.495859 294.344383 
L 461.391147 294.258678 
L 463.869967 294.144405 
L 466.348786 294.087269 
L 467.05702 294.030133 
L 475.555831 293.944428 
L 479.097001 293.744451 
L 481.929938 293.658746 
L 482.992289 293.515905 
L 486.53346 293.430201 
L 488.304046 293.373064 
L 491.845217 293.28736 
L 493.615802 293.087382 
L 497.156973 293.001678 
L 497.865207 292.915973 
L 501.406378 292.830269 
L 503.176963 292.773132 
L 507.072251 292.744564 
L 507.780485 292.65886 
L 511.675773 292.573155 
L 512.384008 292.516019 
L 520.174584 292.430314 
L 522.299286 292.344609 
L 527.611042 292.258905 
L 529.027511 292.230337 
L 532.214564 292.201769 
L 532.922799 292.116064 
L 537.526321 292.030359 
L 539.296906 291.973223 
L 545.671014 291.916087 
L 546.733365 291.830382 
L 547.795716 291.744677 
L 548.858068 291.658973 
L 554.169824 291.573268 
L 556.294526 291.487564 
L 566.563922 291.401859 
L 569.750976 291.23045 
L 574.708615 291.144745 
L 576.125083 291.116177 
L 580.374488 291.030473 
L 582.145074 290.973336 
L 590.289767 290.887632 
L 592.414469 290.801927 
L 598.43446 290.716223 
L 599.850928 290.687654 
L 603.392099 290.60195 
L 605.870919 290.487677 
L 609.766207 290.401973 
L 612.245026 290.2877 
L 615.43208 290.230563 
L 616.140314 290.173427 
L 623.93089 290.087722 
L 626.055593 290.002018 
L 628.534412 289.916313 
L 630.304998 289.859177 
L 640.574393 289.773472 
L 642.699096 289.687768 
L 648.719086 289.602063 
L 650.489672 289.544927 
L 655.093194 289.459222 
L 657.217896 289.373518 
L 660.050833 289.287813 
L 662.175535 289.202109 
L 676.340219 289.116404 
L 678.819039 289.002131 
L 687.317849 288.916427 
L 688.734317 288.887859 
L 697.233127 288.802154 
L 699.003713 288.745018 
L 710.335459 288.659313 
L 711.751928 288.630745 
L 722.37544 288.54504 
L 723.083674 288.487904 
L 731.936602 288.402199 
L 733.35307 288.373631 
L 737.602475 288.287927 
L 739.018943 288.259358 
L 747.163636 288.259358 
L 747.163636 288.259358 
" clip-path="url(#pddf3b66b08)" style="fill: none; stroke: #ff7f0e; stroke-width: 1.5; stroke-linecap: square"/>
   </g>
   <g id="patch_3">
    <path d="M 108 320.4 
L 108 43.2 
" style="fill: none; stroke: #a9a9a9; stroke-width: 0.8; stroke-linejoin: miter; stroke-linecap: square"/>
   </g>
   <g id="patch_4">
    <path d="M 777.6 320.4 
L 777.6 43.2 
" style="fill: none"/>
   </g>
   <g id="patch_5">
    <path d="M 108 320.4 
L 777.6 320.4 
" style="fill: none; stroke: #a9a9a9; stroke-width: 0.8; stroke-linejoin: miter; stroke-linecap: square"/>
   </g>
   <g id="patch_6">
    <path d="M 108 43.2 
L 777.6 43.2 
" style="fill: none"/>
   </g>
   <g id="text_16">
    <!-- get_subscribe history -->
    <g style="fill: #a9a9a9" transform="translate(378.6075 37.2) scale(0.12 -0.12)">
     <defs>
      <path id="DejaVuSans-67" d="M 2906 1791 
Q 2906 2416 2648 2759 
Q 2391 3103 1925 3103 
Q 1463 3103 1205 2759 
Q 947 2416 947 1791 
Q 947 1169 1205 825 
Q 1463 481 1925 481 
Q 2391 481 2648 825 
Q 2906 1169 2906 1791 
z
M 3481 434 
Q 3481 -459 3084 -895 
Q 2688 -1331 1869 -1331 
Q 1566 -1331 1297 -1286 
Q 1028 -1241 775 -1147 
L 775 -588 
Q 1028 -725 1275 -790 
Q 1522 -856 1778 -856 
Q 2344 -856 2625 -561 
Q 2906 -266 2906 331 
L 2906 616 
Q 2728 306 2450 153 
Q 2172 0 1784 0 
Q 1141 0 747 490 
Q 353 981 353 1791 
Q 353 2603 747 3093 
Q 1141 3584 1784 3584 
Q 2172 3584 2450 3431 
Q 2728 3278 2906 2969 
L 2906 3500 
L 3481 3500 
L 3481 434 
z
" transform="scale(0.015625)"/>
      <path id="DejaVuSans-65" d="M 3597 1894 
L 3597 1613 
L 953 1613 
Q 991 1019 1311 708 
Q 1631 397 2203 397 
Q 2534 397 2845 478 
Q 3156 559 3463 722 
L 3463 178 
Q 3153 47 2828 -22 
Q 2503 -91 2169 -91 
Q 1331 -91 842 396 
Q 353 884 353 1716 
Q 353 2575 817 3079 
Q 1281 3584 2069 3584 
Q 2775 3584 3186 3129 
Q 3597 2675 3597 1894 
z
M 3022 2063 
Q 3016 2534 2758 2815 
Q 2500 3097 2075 3097 
Q 1594 3097 1305 2825 
Q 1016 2553 972 2059 
L 3022 2063 
z
" transform="scale(0.015625)"/>
      <path id="DejaVuSans-74" d="M 1172 4494 
L 1172 3500 
L 2356 3500 
L 2356 3053 
L 1172 3053 
L 1172 1153 
Q 1172 725 1289 603 
Q 1406 481 1766 481 
L 2356 481 
L 2356 0 
L 1766 0 
Q 1100 0 847 248 
Q 594 497 594 1153 
L 594 3053 
L 172 3053 
L 172 3500 
L 594 3500 
L 594 4494 
L 1172 4494 
z
" transform="scale(0.015625)"/>
      <path id="DejaVuSans-5f" d="M 3263 -1063 
L 3263 -1509 
L -63 -1509 
L -63 -1063 
L 3263 -1063 
z
" transform="scale(0.015625)"/>
      <path id="DejaVuSans-73" d="M 2834 3397 
L 2834 2853 
Q 2591 2978 2328 3040 
Q 2066 3103 1784 3103 
Q 1356 3103 1142 2972 
Q 928 2841 928 2578 
Q 928 2378 1081 2264 
Q 1234 2150 1697 2047 
L 1894 2003 
Q 2506 1872 2764 1633 
Q 3022 1394 3022 966 
Q 3022 478 2636 193 
Q 2250 -91 1575 -91 
Q 1294 -91 989 -36 
Q 684 19 347 128 
L 347 722 
Q 666 556 975 473 
Q 1284 391 1588 391 
Q 1994 391 2212 530 
Q 2431 669 2431 922 
Q 2431 1156 2273 1281 
Q 2116 1406 1581 1522 
L 1381 1569 
Q 847 1681 609 1914 
Q 372 2147 372 2553 
Q 372 3047 722 3315 
Q 1072 3584 1716 3584 
Q 2034 3584 2315 3537 
Q 2597 3491 2834 3397 
z
" transform="scale(0.015625)"/>
      <path id="DejaVuSans-75" d="M 544 1381 
L 544 3500 
L 1119 3500 
L 1119 1403 
Q 1119 906 1312 657 
Q 1506 409 1894 409 
Q 2359 409 2629 706 
Q 2900 1003 2900 1516 
L 2900 3500 
L 3475 3500 
L 3475 0 
L 2900 0 
L 2900 538 
Q 2691 219 2414 64 
Q 2138 -91 1772 -91 
Q 1169 -91 856 284 
Q 544 659 544 1381 
z
M 1991 3584 
L 1991 3584 
z
" transform="scale(0.015625)"/>
      <path id="DejaVuSans-62" d="M 3116 1747 
Q 3116 2381 2855 2742 
Q 2594 3103 2138 3103 
Q 1681 3103 1420 2742 
Q 1159 2381 1159 1747 
Q 1159 1113 1420 752 
Q 1681 391 2138 391 
Q 2594 391 2855 752 
Q 3116 1113 3116 1747 
z
M 1159 2969 
Q 1341 3281 1617 3432 
Q 1894 3584 2278 3584 
Q 2916 3584 3314 3078 
Q 3713 2572 3713 1747 
Q 3713 922 3314 415 
Q 2916 -91 2278 -91 
Q 1894 -91 1617 61 
Q 1341 213 1159 525 
L 1159 0 
L 581 0 
L 581 4863 
L 1159 4863 
L 1159 2969 
z
" transform="scale(0.015625)"/>
      <path id="DejaVuSans-63" d="M 3122 3366 
L 3122 2828 
Q 2878 2963 2633 3030 
Q 2388 3097 2138 3097 
Q 1578 3097 1268 2742 
Q 959 2388 959 1747 
Q 959 1106 1268 751 
Q 1578 397 2138 397 
Q 2388 397 2633 464 
Q 2878 531 3122 666 
L 3122 134 
Q 2881 22 2623 -34 
Q 2366 -91 2075 -91 
Q 1284 -91 818 406 
Q 353 903 353 1747 
Q 353 2603 823 3093 
Q 1294 3584 2113 3584 
Q 2378 3584 2631 3529 
Q 2884 3475 3122 3366 
z
" transform="scale(0.015625)"/>
      <path id="DejaVuSans-72" d="M 2631 2963 
Q 2534 3019 2420 3045 
Q 2306 3072 2169 3072 
Q 1681 3072 1420 2755 
Q 1159 2438 1159 1844 
L 1159 0 
L 581 0 
L 581 3500 
L 1159 3500 
L 1159 2956 
Q 1341 3275 1631 3429 
Q 1922 3584 2338 3584 
Q 2397 3584 2469 3576 
Q 2541 3569 2628 3553 
L 2631 2963 
z
" transform="scale(0.015625)"/>
      <path id="DejaVuSans-69" d="M 603 3500 
L 1178 3500 
L 1178 0 
L 603 0 
L 603 3500 
z
M 603 4863 
L 1178 4863 
L 1178 4134 
L 603 4134 
L 603 4863 
z
" transform="scale(0.015625)"/>
      <path id="DejaVuSans-20" transform="scale(0.015625)"/>
      <path id="DejaVuSans-68" d="M 3513 2113 
L 3513 0 
L 2938 0 
L 2938 2094 
Q 2938 2591 2744 2837 
Q 2550 3084 2163 3084 
Q 1697 3084 1428 2787 
Q 1159 2491 1159 1978 
L 1159 0 
L 581 0 
L 581 4863 
L 1159 4863 
L 1159 2956 
Q 1366 3272 1645 3428 
Q 1925 3584 2291 3584 
Q 2894 3584 3203 3211 
Q 3513 2838 3513 2113 
z
" transform="scale(0.015625)"/>
      <path id="DejaVuSans-6f" d="M 1959 3097 
Q 1497 3097 1228 2736 
Q 959 2375 959 1747 
Q 959 1119 1226 758 
Q 1494 397 1959 397 
Q 2419 397 2687 759 
Q 2956 1122 2956 1747 
Q 2956 2369 2687 2733 
Q 2419 3097 1959 3097 
z
M 1959 3584 
Q 2709 3584 3137 3096 
Q 3566 2609 3566 1747 
Q 3566 888 3137 398 
Q 2709 -91 1959 -91 
Q 1206 -91 779 398 
Q 353 888 353 1747 
Q 353 2609 779 3096 
Q 1206 3584 1959 3584 
z
" transform="scale(0.015625)"/>
      <path id="DejaVuSans-79" d="M 2059 -325 
Q 1816 -950 1584 -1140 
Q 1353 -1331 966 -1331 
L 506 -1331 
L 506 -850 
L 844 -850 
Q 1081 -850 1212 -737 
Q 1344 -625 1503 -206 
L 1606 56 
L 191 3500 
L 800 3500 
L 1894 763 
L 2988 3500 
L 3597 3500 
L 2059 -325 
z
" transform="scale(0.015625)"/>
     </defs>
     <use xlink:href="#DejaVuSans-67"/>
     <use xlink:href="#DejaVuSans-65" transform="translate(63.476562 0)"/>
     <use xlink:href="#DejaVuSans-74" transform="translate(125 0)"/>
     <use xlink:href="#DejaVuSans-5f" transform="translate(164.208984 0)"/>
     <use xlink:href="#DejaVuSans-73" transform="translate(214.208984 0)"/>
     <use xlink:href="#DejaVuSans-75" transform="translate(266.308594 0)"/>
     <use xlink:href="#DejaVuSans-62" transform="translate(329.6875 0)"/>
     <use xlink:href="#DejaVuSans-73" transform="translate(393.164062 0)"/>
     <use xlink:href="#DejaVuSans-63" transform="translate(445.263672 0)"/>
     <use xlink:href="#DejaVuSans-72" transform="translate(500.244141 0)"/>
     <use xlink:href="#DejaVuSans-69" transform="translate(541.357422 0)"/>
     <use xlink:href="#DejaVuSans-62" transform="translate(569.140625 0)"/>
     <use xlink:href="#DejaVuSans-65" transform="translate(632.617188 0)"/>
     <use xlink:href="#DejaVuSans-20" transform="translate(694.140625 0)"/>
     <use xlink:href="#DejaVuSans-68" transform="translate(725.927734 0)"/>
     <use xlink:href="#DejaVuSans-69" transform="translate(789.306641 0)"/>
     <use xlink:href="#DejaVuSans-73" transform="translate(817.089844 0)"/>
     <use xlink:href="#DejaVuSans-74" transform="translate(869.189453 0)"/>
     <use xlink:href="#DejaVuSans-6f" transform="translate(908.398438 0)"/>
     <use xlink:href="#DejaVuSans-72" transform="translate(969.580078 0)"/>
     <use xlink:href="#DejaVuSans-79" transform="translate(1010.693359 0)"/>
    </g>
   </g>
   <g id="legend_1">
    <g id="line2d_33">
     <path d="M 815.08 328.498438 
L 825.08 328.498438 
L 835.08 328.498438 
" style="fill: none; stroke: #1f77b4; stroke-width: 1.5; stroke-linecap: square"/>
    </g>
    <g id="text_17">
     <!-- star -->
     <g style="fill: #a9a9a9" transform="translate(843.08 331.998438) scale(0.1 -0.1)">
      <defs>
       <path id="DejaVuSans-61" d="M 2194 1759 
Q 1497 1759 1228 1600 
Q 959 1441 959 1056 
Q 959 750 1161 570 
Q 1363 391 1709 391 
Q 2188 391 2477 730 
Q 2766 1069 2766 1631 
L 2766 1759 
L 2194 1759 
z
M 3341 1997 
L 3341 0 
L 2766 0 
L 2766 531 
Q 2569 213 2275 61 
Q 1981 -91 1556 -91 
Q 1019 -91 701 211 
Q 384 513 384 1019 
Q 384 1609 779 1909 
Q 1175 2209 1959 2209 
L 2766 2209 
L 2766 2266 
Q 2766 2663 2505 2880 
Q 2244 3097 1772 3097 
Q 1472 3097 1187 3025 
Q 903 2953 641 2809 
L 641 3341 
Q 956 3463 1253 3523 
Q 1550 3584 1831 3584 
Q 2591 3584 2966 3190 
Q 3341 2797 3341 1997 
z
" transform="scale(0.015625)"/>
      </defs>
      <use xlink:href="#DejaVuSans-73"/>
      <use xlink:href="#DejaVuSans-74" transform="translate(52.099609 0)"/>
      <use xlink:href="#DejaVuSans-61" transform="translate(91.308594 0)"/>
      <use xlink:href="#DejaVuSans-72" transform="translate(152.587891 0)"/>
     </g>
    </g>
    <g id="line2d_34">
     <path d="M 815.08 343.176562 
L 825.08 343.176562 
L 835.08 343.176562 
" style="fill: none; stroke: #ff7f0e; stroke-width: 1.5; stroke-linecap: square"/>
    </g>
    <g id="text_18">
     <!-- fork -->
     <g style="fill: #a9a9a9" transform="translate(843.08 346.676562) scale(0.1 -0.1)">
      <defs>
       <path id="DejaVuSans-66" d="M 2375 4863 
L 2375 4384 
L 1825 4384 
Q 1516 4384 1395 4259 
Q 1275 4134 1275 3809 
L 1275 3500 
L 2222 3500 
L 2222 3053 
L 1275 3053 
L 1275 0 
L 697 0 
L 697 3053 
L 147 3053 
L 147 3500 
L 697 3500 
L 697 3744 
Q 697 4328 969 4595 
Q 1241 4863 1831 4863 
L 2375 4863 
z
" transform="scale(0.015625)"/>
       <path id="DejaVuSans-6b" d="M 581 4863 
L 1159 4863 
L 1159 1991 
L 2875 3500 
L 3609 3500 
L 1753 1863 
L 3688 0 
L 2938 0 
L 1159 1709 
L 1159 0 
L 581 0 
L 581 4863 
z
" transform="scale(0.015625)"/>
      </defs>
      <use xlink:href="#DejaVuSans-66"/>
      <use xlink:href="#DejaVuSans-6f" transform="translate(35.205078 0)"/>
      <use xlink:href="#DejaVuSans-72" transform="translate(96.386719 0)"/>
      <use xlink:href="#DejaVuSans-6b" transform="translate(137.5 0)"/>
     </g>
    </g>
   </g>
  </g>
 </g>
 <defs>
  <clipPath id="pddf3b66b08">
   <rect x="108" y="43.2" width="669.6" height="277.2"/>
  </clipPath>
 </defs>
</svg>
