<?xml version="1.0" encoding="utf-8" standalone="no"?>
<!DOCTYPE svg PUBLIC "-//W3C//DTD SVG 1.1//EN"
  "http://www.w3.org/Graphics/SVG/1.1/DTD/svg11.dtd">
<svg xmlns:xlink="http://www.w3.org/1999/xlink" width="864pt" height="360pt" viewBox="0 0 864 360" xmlns="http://www.w3.org/2000/svg" version="1.1">
 <metadata>
  <rdf:RDF xmlns:dc="http://purl.org/dc/elements/1.1/" xmlns:cc="http://creativecommons.org/ns#" xmlns:rdf="http://www.w3.org/1999/02/22-rdf-syntax-ns#">
   <cc:Work>
    <dc:type rdf:resource="http://purl.org/dc/dcmitype/StillImage"/>
    <dc:date>2025-02-27T08:14:43.347132</dc:date>
    <dc:format>image/svg+xml</dc:format>
    <dc:creator>
     <cc:Agent>
      <dc:title>Matplotlib v3.10.0, https://matplotlib.org/</dc:title>
     </cc:Agent>
    </dc:creator>
   </cc:Work>
  </rdf:RDF>
 </metadata>
 <defs>
  <style type="text/css">*{stroke-linejoin: round; stroke-linecap: butt}</style>
 </defs>
 <g id="figure_1">
  <g id="patch_1">
   <path d="M 0 360 
L 864 360 
L 864 0 
L 0 0 
L 0 360 
z
" style="fill: none; opacity: 0"/>
  </g>
  <g id="axes_1">
   <g id="patch_2">
    <path d="M 108 320.4 
L 777.6 320.4 
L 777.6 43.2 
L 108 43.2 
L 108 320.4 
z
" style="fill: none; opacity: 0"/>
   </g>
   <g id="matplotlib.axis_1">
    <g id="xtick_1">
     <g id="line2d_1">
      <path d="M 127.78132 320.4 
L 127.78132 43.2 
" clip-path="url(#p6392b7b9cf)" style="fill: none; stroke-dasharray: 5.12,1.28,0.8,1.28; stroke-dashoffset: 0; stroke: #b0b0b0; stroke-width: 0.8"/>
     </g>
     <g id="line2d_2">
      <defs>
       <path id="ma420e6ea11" d="M 0 0 
L 0 3.5 
" style="stroke: #a9a9a9; stroke-width: 0.8"/>
      </defs>
      <g>
       <use xlink:href="#ma420e6ea11" x="127.78132" y="320.4" style="fill: #a9a9a9; stroke: #a9a9a9; stroke-width: 0.8"/>
      </g>
     </g>
     <g id="text_1">
      <!-- 2021-07 -->
      <g style="fill: #a9a9a9" transform="translate(106.889914 334.998438) scale(0.1 -0.1)">
       <defs>
        <path id="DejaVuSans-32" d="M 1228 531 
L 3431 531 
L 3431 0 
L 469 0 
L 469 531 
Q 828 903 1448 1529 
Q 2069 2156 2228 2338 
Q 2531 2678 2651 2914 
Q 2772 3150 2772 3378 
Q 2772 3750 2511 3984 
Q 2250 4219 1831 4219 
Q 1534 4219 1204 4116 
Q 875 4013 500 3803 
L 500 4441 
Q 881 4594 1212 4672 
Q 1544 4750 1819 4750 
Q 2544 4750 2975 4387 
Q 3406 4025 3406 3419 
Q 3406 3131 3298 2873 
Q 3191 2616 2906 2266 
Q 2828 2175 2409 1742 
Q 1991 1309 1228 531 
z
" transform="scale(0.015625)"/>
        <path id="DejaVuSans-30" d="M 2034 4250 
Q 1547 4250 1301 3770 
Q 1056 3291 1056 2328 
Q 1056 1369 1301 889 
Q 1547 409 2034 409 
Q 2525 409 2770 889 
Q 3016 1369 3016 2328 
Q 3016 3291 2770 3770 
Q 2525 4250 2034 4250 
z
M 2034 4750 
Q 2819 4750 3233 4129 
Q 3647 3509 3647 2328 
Q 3647 1150 3233 529 
Q 2819 -91 2034 -91 
Q 1250 -91 836 529 
Q 422 1150 422 2328 
Q 422 3509 836 4129 
Q 1250 4750 2034 4750 
z
" transform="scale(0.015625)"/>
        <path id="DejaVuSans-31" d="M 794 531 
L 1825 531 
L 1825 4091 
L 703 3866 
L 703 4441 
L 1819 4666 
L 2450 4666 
L 2450 531 
L 3481 531 
L 3481 0 
L 794 0 
L 794 531 
z
" transform="scale(0.015625)"/>
        <path id="DejaVuSans-2d" d="M 313 2009 
L 1997 2009 
L 1997 1497 
L 313 1497 
L 313 2009 
z
" transform="scale(0.015625)"/>
        <path id="DejaVuSans-37" d="M 525 4666 
L 3525 4666 
L 3525 4397 
L 1831 0 
L 1172 0 
L 2766 4134 
L 525 4134 
L 525 4666 
z
" transform="scale(0.015625)"/>
       </defs>
       <use xlink:href="#DejaVuSans-32"/>
       <use xlink:href="#DejaVuSans-30" transform="translate(63.623047 0)"/>
       <use xlink:href="#DejaVuSans-32" transform="translate(127.246094 0)"/>
       <use xlink:href="#DejaVuSans-31" transform="translate(190.869141 0)"/>
       <use xlink:href="#DejaVuSans-2d" transform="translate(254.492188 0)"/>
       <use xlink:href="#DejaVuSans-30" transform="translate(290.576172 0)"/>
       <use xlink:href="#DejaVuSans-37" transform="translate(354.199219 0)"/>
      </g>
     </g>
    </g>
    <g id="xtick_2">
     <g id="line2d_3">
      <path d="M 213.021669 320.4 
L 213.021669 43.2 
" clip-path="url(#p6392b7b9cf)" style="fill: none; stroke-dasharray: 5.12,1.28,0.8,1.28; stroke-dashoffset: 0; stroke: #b0b0b0; stroke-width: 0.8"/>
     </g>
     <g id="line2d_4">
      <g>
       <use xlink:href="#ma420e6ea11" x="213.021669" y="320.4" style="fill: #a9a9a9; stroke: #a9a9a9; stroke-width: 0.8"/>
      </g>
     </g>
     <g id="text_2">
      <!-- 2022-01 -->
      <g style="fill: #a9a9a9" transform="translate(192.130262 334.998438) scale(0.1 -0.1)">
       <use xlink:href="#DejaVuSans-32"/>
       <use xlink:href="#DejaVuSans-30" transform="translate(63.623047 0)"/>
       <use xlink:href="#DejaVuSans-32" transform="translate(127.246094 0)"/>
       <use xlink:href="#DejaVuSans-32" transform="translate(190.869141 0)"/>
       <use xlink:href="#DejaVuSans-2d" transform="translate(254.492188 0)"/>
       <use xlink:href="#DejaVuSans-30" transform="translate(290.576172 0)"/>
       <use xlink:href="#DejaVuSans-31" transform="translate(354.199219 0)"/>
      </g>
     </g>
    </g>
    <g id="xtick_3">
     <g id="line2d_5">
      <path d="M 296.872229 320.4 
L 296.872229 43.2 
" clip-path="url(#p6392b7b9cf)" style="fill: none; stroke-dasharray: 5.12,1.28,0.8,1.28; stroke-dashoffset: 0; stroke: #b0b0b0; stroke-width: 0.8"/>
     </g>
     <g id="line2d_6">
      <g>
       <use xlink:href="#ma420e6ea11" x="296.872229" y="320.4" style="fill: #a9a9a9; stroke: #a9a9a9; stroke-width: 0.8"/>
      </g>
     </g>
     <g id="text_3">
      <!-- 2022-07 -->
      <g style="fill: #a9a9a9" transform="translate(275.980823 334.998438) scale(0.1 -0.1)">
       <use xlink:href="#DejaVuSans-32"/>
       <use xlink:href="#DejaVuSans-30" transform="translate(63.623047 0)"/>
       <use xlink:href="#DejaVuSans-32" transform="translate(127.246094 0)"/>
       <use xlink:href="#DejaVuSans-32" transform="translate(190.869141 0)"/>
       <use xlink:href="#DejaVuSans-2d" transform="translate(254.492188 0)"/>
       <use xlink:href="#DejaVuSans-30" transform="translate(290.576172 0)"/>
       <use xlink:href="#DejaVuSans-37" transform="translate(354.199219 0)"/>
      </g>
     </g>
    </g>
    <g id="xtick_4">
     <g id="line2d_7">
      <path d="M 382.112578 320.4 
L 382.112578 43.2 
" clip-path="url(#p6392b7b9cf)" style="fill: none; stroke-dasharray: 5.12,1.28,0.8,1.28; stroke-dashoffset: 0; stroke: #b0b0b0; stroke-width: 0.8"/>
     </g>
     <g id="line2d_8">
      <g>
       <use xlink:href="#ma420e6ea11" x="382.112578" y="320.4" style="fill: #a9a9a9; stroke: #a9a9a9; stroke-width: 0.8"/>
      </g>
     </g>
     <g id="text_4">
      <!-- 2023-01 -->
      <g style="fill: #a9a9a9" transform="translate(361.221172 334.998438) scale(0.1 -0.1)">
       <defs>
        <path id="DejaVuSans-33" d="M 2597 2516 
Q 3050 2419 3304 2112 
Q 3559 1806 3559 1356 
Q 3559 666 3084 287 
Q 2609 -91 1734 -91 
Q 1441 -91 1130 -33 
Q 819 25 488 141 
L 488 750 
Q 750 597 1062 519 
Q 1375 441 1716 441 
Q 2309 441 2620 675 
Q 2931 909 2931 1356 
Q 2931 1769 2642 2001 
Q 2353 2234 1838 2234 
L 1294 2234 
L 1294 2753 
L 1863 2753 
Q 2328 2753 2575 2939 
Q 2822 3125 2822 3475 
Q 2822 3834 2567 4026 
Q 2313 4219 1838 4219 
Q 1578 4219 1281 4162 
Q 984 4106 628 3988 
L 628 4550 
Q 988 4650 1302 4700 
Q 1616 4750 1894 4750 
Q 2613 4750 3031 4423 
Q 3450 4097 3450 3541 
Q 3450 3153 3228 2886 
Q 3006 2619 2597 2516 
z
" transform="scale(0.015625)"/>
       </defs>
       <use xlink:href="#DejaVuSans-32"/>
       <use xlink:href="#DejaVuSans-30" transform="translate(63.623047 0)"/>
       <use xlink:href="#DejaVuSans-32" transform="translate(127.246094 0)"/>
       <use xlink:href="#DejaVuSans-33" transform="translate(190.869141 0)"/>
       <use xlink:href="#DejaVuSans-2d" transform="translate(254.492188 0)"/>
       <use xlink:href="#DejaVuSans-30" transform="translate(290.576172 0)"/>
       <use xlink:href="#DejaVuSans-31" transform="translate(354.199219 0)"/>
      </g>
     </g>
    </g>
    <g id="xtick_5">
     <g id="line2d_9">
      <path d="M 465.963138 320.4 
L 465.963138 43.2 
" clip-path="url(#p6392b7b9cf)" style="fill: none; stroke-dasharray: 5.12,1.28,0.8,1.28; stroke-dashoffset: 0; stroke: #b0b0b0; stroke-width: 0.8"/>
     </g>
     <g id="line2d_10">
      <g>
       <use xlink:href="#ma420e6ea11" x="465.963138" y="320.4" style="fill: #a9a9a9; stroke: #a9a9a9; stroke-width: 0.8"/>
      </g>
     </g>
     <g id="text_5">
      <!-- 2023-07 -->
      <g style="fill: #a9a9a9" transform="translate(445.071732 334.998438) scale(0.1 -0.1)">
       <use xlink:href="#DejaVuSans-32"/>
       <use xlink:href="#DejaVuSans-30" transform="translate(63.623047 0)"/>
       <use xlink:href="#DejaVuSans-32" transform="translate(127.246094 0)"/>
       <use xlink:href="#DejaVuSans-33" transform="translate(190.869141 0)"/>
       <use xlink:href="#DejaVuSans-2d" transform="translate(254.492188 0)"/>
       <use xlink:href="#DejaVuSans-30" transform="translate(290.576172 0)"/>
       <use xlink:href="#DejaVuSans-37" transform="translate(354.199219 0)"/>
      </g>
     </g>
    </g>
    <g id="xtick_6">
     <g id="line2d_11">
      <path d="M 551.203487 320.4 
L 551.203487 43.2 
" clip-path="url(#p6392b7b9cf)" style="fill: none; stroke-dasharray: 5.12,1.28,0.8,1.28; stroke-dashoffset: 0; stroke: #b0b0b0; stroke-width: 0.8"/>
     </g>
     <g id="line2d_12">
      <g>
       <use xlink:href="#ma420e6ea11" x="551.203487" y="320.4" style="fill: #a9a9a9; stroke: #a9a9a9; stroke-width: 0.8"/>
      </g>
     </g>
     <g id="text_6">
      <!-- 2024-01 -->
      <g style="fill: #a9a9a9" transform="translate(530.312081 334.998438) scale(0.1 -0.1)">
       <defs>
        <path id="DejaVuSans-34" d="M 2419 4116 
L 825 1625 
L 2419 1625 
L 2419 4116 
z
M 2253 4666 
L 3047 4666 
L 3047 1625 
L 3713 1625 
L 3713 1100 
L 3047 1100 
L 3047 0 
L 2419 0 
L 2419 1100 
L 313 1100 
L 313 1709 
L 2253 4666 
z
" transform="scale(0.015625)"/>
       </defs>
       <use xlink:href="#DejaVuSans-32"/>
       <use xlink:href="#DejaVuSans-30" transform="translate(63.623047 0)"/>
       <use xlink:href="#DejaVuSans-32" transform="translate(127.246094 0)"/>
       <use xlink:href="#DejaVuSans-34" transform="translate(190.869141 0)"/>
       <use xlink:href="#DejaVuSans-2d" transform="translate(254.492188 0)"/>
       <use xlink:href="#DejaVuSans-30" transform="translate(290.576172 0)"/>
       <use xlink:href="#DejaVuSans-31" transform="translate(354.199219 0)"/>
      </g>
     </g>
    </g>
    <g id="xtick_7">
     <g id="line2d_13">
      <path d="M 635.51731 320.4 
L 635.51731 43.2 
" clip-path="url(#p6392b7b9cf)" style="fill: none; stroke-dasharray: 5.12,1.28,0.8,1.28; stroke-dashoffset: 0; stroke: #b0b0b0; stroke-width: 0.8"/>
     </g>
     <g id="line2d_14">
      <g>
       <use xlink:href="#ma420e6ea11" x="635.51731" y="320.4" style="fill: #a9a9a9; stroke: #a9a9a9; stroke-width: 0.8"/>
      </g>
     </g>
     <g id="text_7">
      <!-- 2024-07 -->
      <g style="fill: #a9a9a9" transform="translate(614.625904 334.998438) scale(0.1 -0.1)">
       <use xlink:href="#DejaVuSans-32"/>
       <use xlink:href="#DejaVuSans-30" transform="translate(63.623047 0)"/>
       <use xlink:href="#DejaVuSans-32" transform="translate(127.246094 0)"/>
       <use xlink:href="#DejaVuSans-34" transform="translate(190.869141 0)"/>
       <use xlink:href="#DejaVuSans-2d" transform="translate(254.492188 0)"/>
       <use xlink:href="#DejaVuSans-30" transform="translate(290.576172 0)"/>
       <use xlink:href="#DejaVuSans-37" transform="translate(354.199219 0)"/>
      </g>
     </g>
    </g>
    <g id="xtick_8">
     <g id="line2d_15">
      <path d="M 720.757659 320.4 
L 720.757659 43.2 
" clip-path="url(#p6392b7b9cf)" style="fill: none; stroke-dasharray: 5.12,1.28,0.8,1.28; stroke-dashoffset: 0; stroke: #b0b0b0; stroke-width: 0.8"/>
     </g>
     <g id="line2d_16">
      <g>
       <use xlink:href="#ma420e6ea11" x="720.757659" y="320.4" style="fill: #a9a9a9; stroke: #a9a9a9; stroke-width: 0.8"/>
      </g>
     </g>
     <g id="text_8">
      <!-- 2025-01 -->
      <g style="fill: #a9a9a9" transform="translate(699.866253 334.998438) scale(0.1 -0.1)">
       <defs>
        <path id="DejaVuSans-35" d="M 691 4666 
L 3169 4666 
L 3169 4134 
L 1269 4134 
L 1269 2991 
Q 1406 3038 1543 3061 
Q 1681 3084 1819 3084 
Q 2600 3084 3056 2656 
Q 3513 2228 3513 1497 
Q 3513 744 3044 326 
Q 2575 -91 1722 -91 
Q 1428 -91 1123 -41 
Q 819 9 494 109 
L 494 744 
Q 775 591 1075 516 
Q 1375 441 1709 441 
Q 2250 441 2565 725 
Q 2881 1009 2881 1497 
Q 2881 1984 2565 2268 
Q 2250 2553 1709 2553 
Q 1456 2553 1204 2497 
Q 953 2441 691 2322 
L 691 4666 
z
" transform="scale(0.015625)"/>
       </defs>
       <use xlink:href="#DejaVuSans-32"/>
       <use xlink:href="#DejaVuSans-30" transform="translate(63.623047 0)"/>
       <use xlink:href="#DejaVuSans-32" transform="translate(127.246094 0)"/>
       <use xlink:href="#DejaVuSans-35" transform="translate(190.869141 0)"/>
       <use xlink:href="#DejaVuSans-2d" transform="translate(254.492188 0)"/>
       <use xlink:href="#DejaVuSans-30" transform="translate(290.576172 0)"/>
       <use xlink:href="#DejaVuSans-31" transform="translate(354.199219 0)"/>
      </g>
     </g>
    </g>
   </g>
   <g id="matplotlib.axis_2">
    <g id="ytick_1">
     <g id="line2d_17">
      <path d="M 108 307.834248 
L 777.6 307.834248 
" clip-path="url(#p6392b7b9cf)" style="fill: none; stroke-dasharray: 5.12,1.28,0.8,1.28; stroke-dashoffset: 0; stroke: #b0b0b0; stroke-width: 0.8"/>
     </g>
     <g id="line2d_18">
      <defs>
       <path id="m6759fa199d" d="M 0 0 
L -3.5 0 
" style="stroke: #a9a9a9; stroke-width: 0.8"/>
      </defs>
      <g>
       <use xlink:href="#m6759fa199d" x="108" y="307.834248" style="fill: #a9a9a9; stroke: #a9a9a9; stroke-width: 0.8"/>
      </g>
     </g>
     <g id="text_9">
      <!-- 0 -->
      <g style="fill: #a9a9a9" transform="translate(94.6375 311.633467) scale(0.1 -0.1)">
       <use xlink:href="#DejaVuSans-30"/>
      </g>
     </g>
    </g>
    <g id="ytick_2">
     <g id="line2d_19">
      <path d="M 108 273.585811 
L 777.6 273.585811 
" clip-path="url(#p6392b7b9cf)" style="fill: none; stroke-dasharray: 5.12,1.28,0.8,1.28; stroke-dashoffset: 0; stroke: #b0b0b0; stroke-width: 0.8"/>
     </g>
     <g id="line2d_20">
      <g>
       <use xlink:href="#m6759fa199d" x="108" y="273.585811" style="fill: #a9a9a9; stroke: #a9a9a9; stroke-width: 0.8"/>
      </g>
     </g>
     <g id="text_10">
      <!-- 1000 -->
      <g style="fill: #a9a9a9" transform="translate(75.55 277.38503) scale(0.1 -0.1)">
       <use xlink:href="#DejaVuSans-31"/>
       <use xlink:href="#DejaVuSans-30" transform="translate(63.623047 0)"/>
       <use xlink:href="#DejaVuSans-30" transform="translate(127.246094 0)"/>
       <use xlink:href="#DejaVuSans-30" transform="translate(190.869141 0)"/>
      </g>
     </g>
    </g>
    <g id="ytick_3">
     <g id="line2d_21">
      <path d="M 108 239.337374 
L 777.6 239.337374 
" clip-path="url(#p6392b7b9cf)" style="fill: none; stroke-dasharray: 5.12,1.28,0.8,1.28; stroke-dashoffset: 0; stroke: #b0b0b0; stroke-width: 0.8"/>
     </g>
     <g id="line2d_22">
      <g>
       <use xlink:href="#m6759fa199d" x="108" y="239.337374" style="fill: #a9a9a9; stroke: #a9a9a9; stroke-width: 0.8"/>
      </g>
     </g>
     <g id="text_11">
      <!-- 2000 -->
      <g style="fill: #a9a9a9" transform="translate(75.55 243.136593) scale(0.1 -0.1)">
       <use xlink:href="#DejaVuSans-32"/>
       <use xlink:href="#DejaVuSans-30" transform="translate(63.623047 0)"/>
       <use xlink:href="#DejaVuSans-30" transform="translate(127.246094 0)"/>
       <use xlink:href="#DejaVuSans-30" transform="translate(190.869141 0)"/>
      </g>
     </g>
    </g>
    <g id="ytick_4">
     <g id="line2d_23">
      <path d="M 108 205.088937 
L 777.6 205.088937 
" clip-path="url(#p6392b7b9cf)" style="fill: none; stroke-dasharray: 5.12,1.28,0.8,1.28; stroke-dashoffset: 0; stroke: #b0b0b0; stroke-width: 0.8"/>
     </g>
     <g id="line2d_24">
      <g>
       <use xlink:href="#m6759fa199d" x="108" y="205.088937" style="fill: #a9a9a9; stroke: #a9a9a9; stroke-width: 0.8"/>
      </g>
     </g>
     <g id="text_12">
      <!-- 3000 -->
      <g style="fill: #a9a9a9" transform="translate(75.55 208.888156) scale(0.1 -0.1)">
       <use xlink:href="#DejaVuSans-33"/>
       <use xlink:href="#DejaVuSans-30" transform="translate(63.623047 0)"/>
       <use xlink:href="#DejaVuSans-30" transform="translate(127.246094 0)"/>
       <use xlink:href="#DejaVuSans-30" transform="translate(190.869141 0)"/>
      </g>
     </g>
    </g>
    <g id="ytick_5">
     <g id="line2d_25">
      <path d="M 108 170.8405 
L 777.6 170.8405 
" clip-path="url(#p6392b7b9cf)" style="fill: none; stroke-dasharray: 5.12,1.28,0.8,1.28; stroke-dashoffset: 0; stroke: #b0b0b0; stroke-width: 0.8"/>
     </g>
     <g id="line2d_26">
      <g>
       <use xlink:href="#m6759fa199d" x="108" y="170.8405" style="fill: #a9a9a9; stroke: #a9a9a9; stroke-width: 0.8"/>
      </g>
     </g>
     <g id="text_13">
      <!-- 4000 -->
      <g style="fill: #a9a9a9" transform="translate(75.55 174.639719) scale(0.1 -0.1)">
       <use xlink:href="#DejaVuSans-34"/>
       <use xlink:href="#DejaVuSans-30" transform="translate(63.623047 0)"/>
       <use xlink:href="#DejaVuSans-30" transform="translate(127.246094 0)"/>
       <use xlink:href="#DejaVuSans-30" transform="translate(190.869141 0)"/>
      </g>
     </g>
    </g>
    <g id="ytick_6">
     <g id="line2d_27">
      <path d="M 108 136.592063 
L 777.6 136.592063 
" clip-path="url(#p6392b7b9cf)" style="fill: none; stroke-dasharray: 5.12,1.28,0.8,1.28; stroke-dashoffset: 0; stroke: #b0b0b0; stroke-width: 0.8"/>
     </g>
     <g id="line2d_28">
      <g>
       <use xlink:href="#m6759fa199d" x="108" y="136.592063" style="fill: #a9a9a9; stroke: #a9a9a9; stroke-width: 0.8"/>
      </g>
     </g>
     <g id="text_14">
      <!-- 5000 -->
      <g style="fill: #a9a9a9" transform="translate(75.55 140.391282) scale(0.1 -0.1)">
       <use xlink:href="#DejaVuSans-35"/>
       <use xlink:href="#DejaVuSans-30" transform="translate(63.623047 0)"/>
       <use xlink:href="#DejaVuSans-30" transform="translate(127.246094 0)"/>
       <use xlink:href="#DejaVuSans-30" transform="translate(190.869141 0)"/>
      </g>
     </g>
    </g>
    <g id="ytick_7">
     <g id="line2d_29">
      <path d="M 108 102.343626 
L 777.6 102.343626 
" clip-path="url(#p6392b7b9cf)" style="fill: none; stroke-dasharray: 5.12,1.28,0.8,1.28; stroke-dashoffset: 0; stroke: #b0b0b0; stroke-width: 0.8"/>
     </g>
     <g id="line2d_30">
      <g>
       <use xlink:href="#m6759fa199d" x="108" y="102.343626" style="fill: #a9a9a9; stroke: #a9a9a9; stroke-width: 0.8"/>
      </g>
     </g>
     <g id="text_15">
      <!-- 6000 -->
      <g style="fill: #a9a9a9" transform="translate(75.55 106.142845) scale(0.1 -0.1)">
       <defs>
        <path id="DejaVuSans-36" d="M 2113 2584 
Q 1688 2584 1439 2293 
Q 1191 2003 1191 1497 
Q 1191 994 1439 701 
Q 1688 409 2113 409 
Q 2538 409 2786 701 
Q 3034 994 3034 1497 
Q 3034 2003 2786 2293 
Q 2538 2584 2113 2584 
z
M 3366 4563 
L 3366 3988 
Q 3128 4100 2886 4159 
Q 2644 4219 2406 4219 
Q 1781 4219 1451 3797 
Q 1122 3375 1075 2522 
Q 1259 2794 1537 2939 
Q 1816 3084 2150 3084 
Q 2853 3084 3261 2657 
Q 3669 2231 3669 1497 
Q 3669 778 3244 343 
Q 2819 -91 2113 -91 
Q 1303 -91 875 529 
Q 447 1150 447 2328 
Q 447 3434 972 4092 
Q 1497 4750 2381 4750 
Q 2619 4750 2861 4703 
Q 3103 4656 3366 4563 
z
" transform="scale(0.015625)"/>
       </defs>
       <use xlink:href="#DejaVuSans-36"/>
       <use xlink:href="#DejaVuSans-30" transform="translate(63.623047 0)"/>
       <use xlink:href="#DejaVuSans-30" transform="translate(127.246094 0)"/>
       <use xlink:href="#DejaVuSans-30" transform="translate(190.869141 0)"/>
      </g>
     </g>
    </g>
    <g id="ytick_8">
     <g id="line2d_31">
      <path d="M 108 68.095189 
L 777.6 68.095189 
" clip-path="url(#p6392b7b9cf)" style="fill: none; stroke-dasharray: 5.12,1.28,0.8,1.28; stroke-dashoffset: 0; stroke: #b0b0b0; stroke-width: 0.8"/>
     </g>
     <g id="line2d_32">
      <g>
       <use xlink:href="#m6759fa199d" x="108" y="68.095189" style="fill: #a9a9a9; stroke: #a9a9a9; stroke-width: 0.8"/>
      </g>
     </g>
     <g id="text_16">
      <!-- 7000 -->
      <g style="fill: #a9a9a9" transform="translate(75.55 71.894408) scale(0.1 -0.1)">
       <use xlink:href="#DejaVuSans-37"/>
       <use xlink:href="#DejaVuSans-30" transform="translate(63.623047 0)"/>
       <use xlink:href="#DejaVuSans-30" transform="translate(127.246094 0)"/>
       <use xlink:href="#DejaVuSans-30" transform="translate(190.869141 0)"/>
      </g>
     </g>
    </g>
   </g>
   <g id="line2d_33">
    <path d="M 138.436364 307.731503 
L 141.21594 307.491764 
L 141.679203 307.286273 
L 143.532254 307.046534 
L 145.385305 306.669802 
L 146.311831 306.532808 
L 148.628144 306.327317 
L 149.55467 305.950584 
L 150.017933 305.334113 
L 150.481196 305.025877 
L 150.944458 303.964175 
L 151.407721 303.895678 
L 151.870984 303.518945 
L 152.797509 303.039467 
L 154.65056 301.532536 
L 156.503611 300.607828 
L 157.8934 299.957108 
L 158.356663 299.203642 
L 159.283188 298.518674 
L 159.746451 298.313183 
L 164.379078 297.628214 
L 164.842341 297.422724 
L 168.085181 297.148736 
L 169.938232 296.703506 
L 173.644334 296.18978 
L 174.107597 295.950041 
L 174.570859 295.881544 
L 175.497385 295.573308 
L 178.740224 295.025333 
L 179.66675 294.751345 
L 183.836115 294.032128 
L 184.76264 293.826638 
L 185.689166 293.792389 
L 187.542217 293.34716 
L 188.005479 292.696439 
L 189.395268 292.148464 
L 190.785056 291.771731 
L 191.248319 291.531992 
L 192.174844 291.36075 
L 194.027895 290.812775 
L 194.954421 290.744278 
L 195.880946 290.504539 
L 197.733998 290.025061 
L 198.19726 289.990813 
L 199.123786 289.545583 
L 199.587049 289.477086 
L 200.050311 289.237347 
L 205.146202 288.381136 
L 206.999253 287.833161 
L 207.462516 287.524925 
L 209.778829 286.737211 
L 210.705355 286.086491 
L 212.095143 285.812503 
L 224.139975 282.353411 
L 224.603238 282.353411 
L 225.066501 282.147921 
L 225.993026 282.045175 
L 226.456289 281.873933 
L 228.30934 281.805436 
L 229.235866 281.634194 
L 230.162391 281.154716 
L 231.552179 280.640989 
L 232.015442 280.332753 
L 232.941968 279.921772 
L 233.40523 279.682033 
L 234.331756 279.373797 
L 234.795019 279.236803 
L 235.721544 278.65458 
L 236.184807 278.140853 
L 237.111333 276.702419 
L 237.574595 276.565425 
L 238.037858 276.565425 
L 239.427646 275.743463 
L 239.890909 275.503724 
L 240.354172 275.400979 
L 240.817435 274.955749 
L 241.74396 274.579016 
L 242.670486 274.133786 
L 244.9868 271.154172 
L 247.766376 269.647241 
L 248.692902 268.893775 
L 249.156164 268.58554 
L 249.619427 267.934819 
L 250.08269 266.873118 
L 250.545953 266.153901 
L 251.009215 265.777168 
L 251.472478 265.571677 
L 255.17858 262.146833 
L 256.105106 261.290622 
L 258.884682 259.543952 
L 259.347945 259.37271 
L 260.737733 258.550747 
L 262.127522 257.62604 
L 263.980573 255.947866 
L 264.907098 255.571133 
L 265.833624 254.920413 
L 266.296887 254.646426 
L 266.760149 254.577929 
L 268.149938 253.790215 
L 268.6132 253.276488 
L 270.929514 252.009296 
L 271.392777 251.838054 
L 272.782565 250.879098 
L 279.731507 248.41321 
L 280.658032 247.556999 
L 282.047821 246.87203 
L 282.974346 246.289807 
L 283.900872 246.01582 
L 284.364134 245.707584 
L 284.827397 245.57059 
L 286.217186 244.645882 
L 288.533499 244.097907 
L 289.923288 243.275945 
L 291.313076 242.967709 
L 291.776339 242.830715 
L 293.166127 241.769013 
L 295.019178 241.255287 
L 295.482441 240.878554 
L 298.262017 239.919598 
L 299.188543 239.748356 
L 300.115068 239.371623 
L 303.357908 238.172927 
L 304.284433 238.035934 
L 305.674222 237.556456 
L 307.990535 236.426257 
L 309.843587 235.398804 
L 313.549689 233.857624 
L 314.012951 233.789127 
L 314.939477 233.206904 
L 315.40274 233.138407 
L 317.255791 232.384942 
L 319.108842 232.145203 
L 320.035367 231.665724 
L 320.49863 231.254743 
L 320.961893 230.398532 
L 322.814944 229.884806 
L 324.204732 229.165588 
L 325.131258 228.857353 
L 326.057783 228.377874 
L 328.83736 227.247676 
L 329.763885 227.042185 
L 330.690411 226.562707 
L 331.153674 226.357217 
L 331.616936 226.28872 
L 333.469988 225.432509 
L 334.859776 224.542049 
L 336.249564 224.268062 
L 338.102615 223.754335 
L 338.565878 223.720087 
L 339.029141 223.343354 
L 339.955666 223.035118 
L 342.27198 222.11041 
L 342.735243 221.767926 
L 343.198506 221.596684 
L 344.125031 221.082957 
L 345.978082 220.500734 
L 346.904608 219.91851 
L 347.36787 219.439032 
L 347.831133 219.165045 
L 348.294396 219.0623 
L 349.220922 218.308834 
L 349.684184 218.240337 
L 350.147447 217.486871 
L 350.61071 217.281381 
L 351.073973 216.904648 
L 351.537235 216.836151 
L 352.463761 216.253928 
L 353.390286 215.945692 
L 353.853549 215.603207 
L 354.316812 215.431965 
L 356.169863 214.199021 
L 357.559651 213.479804 
L 358.486177 213.240065 
L 359.412702 212.726339 
L 359.875965 211.938625 
L 360.802491 211.253656 
L 361.265753 211.150911 
L 364.04533 209.815222 
L 364.971856 209.438489 
L 366.361644 208.274042 
L 367.288169 207.486328 
L 368.214695 206.938353 
L 368.677958 206.424626 
L 369.14122 206.11639 
L 370.067746 205.362925 
L 370.531009 205.157434 
L 371.457534 204.232726 
L 372.38406 203.92449 
L 373.310585 203.308018 
L 374.700374 202.588801 
L 375.163636 202.520304 
L 376.553425 201.766839 
L 377.47995 201.184615 
L 382.112578 199.472194 
L 382.575841 199.095461 
L 384.428892 198.376244 
L 384.892154 198.23925 
L 385.81868 197.622778 
L 386.745205 197.211797 
L 387.671731 196.561076 
L 388.598257 194.711661 
L 389.524782 193.615711 
L 390.91457 192.896494 
L 391.841096 192.519761 
L 392.304359 192.451264 
L 392.767621 192.177276 
L 395.083935 191.423811 
L 395.547198 191.21832 
L 396.473724 190.5676 
L 397.863512 189.985376 
L 398.790037 189.47165 
L 401.569614 187.553737 
L 403.885928 186.286545 
L 406.665504 184.882359 
L 408.055293 184.471378 
L 409.445081 183.923403 
L 409.908344 183.580919 
L 410.834869 183.306931 
L 411.761395 182.930198 
L 412.224658 182.553466 
L 414.077709 181.902745 
L 415.004234 181.217777 
L 415.93076 180.841044 
L 416.857285 180.121827 
L 417.783811 179.847839 
L 418.247073 179.436858 
L 418.710336 179.368361 
L 419.636862 178.649144 
L 420.563387 178.169666 
L 421.02665 177.964175 
L 421.489913 177.484697 
L 424.732752 176.183256 
L 425.659278 175.772275 
L 427.049066 175.327045 
L 427.975592 175.190052 
L 428.438854 174.984561 
L 428.902117 174.916064 
L 429.828643 174.505083 
L 430.291905 174.470834 
L 432.144956 173.785866 
L 433.534745 172.792661 
L 433.998007 172.621419 
L 434.924533 172.107692 
L 435.387796 171.970699 
L 438.167372 170.39527 
L 438.630635 170.292525 
L 440.020423 169.470563 
L 441.410212 168.991085 
L 442.336737 168.682849 
L 444.189788 168.066377 
L 445.116314 167.758141 
L 446.969365 167.381408 
L 447.432628 167.175917 
L 447.89589 167.10742 
L 448.822416 166.696439 
L 449.285679 166.627942 
L 449.748941 166.388203 
L 450.675467 166.216961 
L 452.065255 165.703235 
L 452.991781 165.600489 
L 454.381569 165.292253 
L 456.697883 164.881272 
L 468.742715 161.319435 
L 469.205978 160.839957 
L 470.132503 160.463224 
L 473.838605 159.059038 
L 474.301868 158.78505 
L 475.691656 158.374069 
L 476.618182 158.13433 
L 477.081445 157.826094 
L 477.544707 157.723349 
L 478.00797 157.312367 
L 479.397758 157.03838 
L 480.324284 156.59315 
L 480.787547 156.045175 
L 482.640598 155.599946 
L 485.883437 154.914977 
L 486.3467 154.914977 
L 486.809963 154.709486 
L 488.663014 154.367002 
L 489.126276 154.161511 
L 490.979328 153.819027 
L 491.905853 153.408046 
L 492.832379 153.236803 
L 495.148692 152.65458 
L 497.001743 152.072357 
L 497.465006 151.969611 
L 497.928269 151.729872 
L 498.854795 151.490133 
L 499.78132 151.1134 
L 500.707846 150.770916 
L 501.171108 150.46268 
L 502.097634 150.188693 
L 505.803736 148.887252 
L 506.730262 148.818755 
L 508.583313 148.27078 
L 509.046575 147.996793 
L 509.973101 147.722805 
L 512.289415 146.661104 
L 512.752677 146.626855 
L 517.848568 144.811688 
L 520.164882 144.195216 
L 521.091407 143.749986 
L 522.481196 143.44175 
L 524.334247 141.934819 
L 525.260772 141.660832 
L 525.724035 141.284099 
L 528.503611 140.222397 
L 528.966874 139.914161 
L 529.8934 139.640174 
L 530.356663 139.331938 
L 532.672976 138.578472 
L 534.062765 137.75651 
L 534.526027 137.653765 
L 536.842341 136.386572 
L 538.23213 135.770101 
L 538.695392 135.427616 
L 539.621918 135.11938 
L 540.548443 134.571405 
L 541.011706 134.400163 
L 541.474969 134.057679 
L 547.497385 131.934276 
L 547.960648 131.83153 
L 548.42391 131.523294 
L 550.276961 131.146562 
L 551.203487 130.769829 
L 553.983064 129.43414 
L 554.446326 129.365643 
L 555.836115 128.577929 
L 557.225903 128.098451 
L 560.468742 126.762762 
L 560.932005 126.625768 
L 561.395268 126.317532 
L 562.321793 126.214787 
L 562.785056 125.906551 
L 563.711582 125.735309 
L 564.638107 125.290079 
L 565.10137 125.084588 
L 565.564633 125.016091 
L 566.491158 124.707855 
L 569.733998 123.577657 
L 571.123786 123.269421 
L 572.513574 122.721446 
L 574.366625 121.693993 
L 575.293151 121.31726 
L 575.756413 121.009024 
L 576.682939 120.803534 
L 577.146202 120.529546 
L 577.609465 120.426801 
L 578.999253 119.639087 
L 579.925778 119.262354 
L 581.778829 118.543137 
L 584.095143 117.755423 
L 585.021669 117.275945 
L 587.337983 116.48823 
L 590.117559 115.358032 
L 591.97061 114.501821 
L 596.603238 112.686654 
L 597.066501 112.378418 
L 598.919552 111.761946 
L 599.382814 111.761946 
L 600.30934 111.350965 
L 602.162391 109.844034 
L 602.625654 109.70704 
L 603.088917 109.433052 
L 603.552179 109.330307 
L 604.015442 109.090568 
L 604.478705 109.022071 
L 604.941968 108.679587 
L 605.40523 108.576842 
L 606.331756 107.994618 
L 607.721544 107.275401 
L 608.64807 106.898668 
L 609.111333 106.658929 
L 610.501121 106.350693 
L 612.817435 105.562979 
L 613.74396 105.254743 
L 615.133748 104.535526 
L 616.060274 104.090296 
L 616.9868 103.850557 
L 618.376588 103.199837 
L 622.545953 101.658657 
L 623.935741 100.802446 
L 624.399004 100.699701 
L 625.325529 100.254471 
L 626.252055 99.911987 
L 626.715318 99.501006 
L 627.641843 99.124273 
L 629.031631 98.644795 
L 629.494894 98.268062 
L 629.958157 98.233814 
L 630.884682 97.959826 
L 631.811208 97.65159 
L 632.274471 97.446099 
L 632.737733 97.377603 
L 634.127522 96.863876 
L 635.51731 96.350149 
L 637.370361 95.528187 
L 637.833624 95.45969 
L 641.539726 93.91851 
L 642.929514 93.473281 
L 643.85604 93.404784 
L 644.782565 93.028051 
L 647.562142 92.206089 
L 648.488667 92.17184 
L 652.19477 90.973145 
L 653.121295 90.459418 
L 653.584558 90.048437 
L 654.974346 89.226475 
L 655.900872 88.6785 
L 658.680448 87.78804 
L 659.143711 87.411307 
L 661.923288 86.246861 
L 663.776339 85.733134 
L 664.702864 85.322153 
L 665.166127 85.082414 
L 666.092653 84.808426 
L 666.555915 84.534439 
L 667.482441 84.363197 
L 671.188543 82.75352 
L 671.651806 82.685023 
L 672.115068 82.376787 
L 672.578331 82.205545 
L 673.041594 81.794564 
L 673.504857 81.726067 
L 675.357908 81.00685 
L 677.210959 80.56162 
L 677.674222 80.493123 
L 678.137484 80.287633 
L 678.600747 80.253384 
L 679.527273 79.945148 
L 679.990535 79.9109 
L 681.380324 79.362925 
L 683.233375 78.81495 
L 684.1599 78.129981 
L 686.012951 77.102528 
L 687.40274 76.62305 
L 691.108842 74.876379 
L 691.572105 74.63664 
L 692.035367 74.191411 
L 694.814944 73.300951 
L 695.741469 72.924219 
L 696.667995 72.684479 
L 697.131258 72.44474 
L 697.594521 72.068008 
L 699.447572 71.588529 
L 699.910834 71.246045 
L 705.93325 69.054145 
L 706.859776 68.882903 
L 711.029141 67.41022 
L 711.955666 67.170481 
L 712.418929 66.96499 
L 712.882192 66.96499 
L 713.808717 66.588258 
L 714.735243 66.040283 
L 717.051557 65.252569 
L 718.441345 64.773091 
L 718.904608 64.704594 
L 719.831133 64.327861 
L 721.220922 64.019625 
L 722.61071 63.574395 
L 723.073973 63.47165 
L 723.537235 63.163414 
L 724.463761 62.957923 
L 733.729016 60.286545 
L 736.04533 59.875564 
L 736.971856 59.430334 
L 737.435118 59.122098 
L 741.14122 57.820658 
L 742.067746 57.54667 
L 743.920797 56.793205 
L 744.38406 56.45072 
L 745.773848 56.142484 
L 746.237111 56.039739 
L 746.700374 55.8 
L 747.163636 55.8 
L 747.163636 55.8 
" clip-path="url(#p6392b7b9cf)" style="fill: none; stroke: #1f77b4; stroke-width: 1.5; stroke-linecap: square"/>
   </g>
   <g id="line2d_34">
    <path d="M 138.899626 307.8 
L 143.068991 307.697255 
L 146.775093 307.526013 
L 148.628144 307.526013 
L 149.091407 307.389019 
L 151.407721 307.286273 
L 154.187298 306.978038 
L 156.966874 306.875292 
L 157.8934 306.772547 
L 161.136239 306.635553 
L 164.379078 306.532808 
L 166.695392 306.464311 
L 172.717808 306.361566 
L 175.034122 306.293069 
L 178.276961 306.190323 
L 180.593275 306.121827 
L 185.689166 306.019081 
L 187.542217 305.847839 
L 189.395268 305.813591 
L 192.174844 305.710845 
L 194.027895 305.676597 
L 196.344209 305.6081 
L 198.19726 305.436858 
L 202.366625 305.334113 
L 203.293151 305.265616 
L 205.146202 305.16287 
L 207.925778 305.060125 
L 209.778829 304.95738 
L 218.117559 304.443653 
L 221.360399 304.340908 
L 222.750187 304.203914 
L 225.066501 304.101169 
L 229.699128 303.86143 
L 234.331756 303.792933 
L 236.184807 303.587442 
L 238.037858 303.484697 
L 243.133748 303.005219 
L 246.376588 302.628486 
L 247.766376 302.559989 
L 251.472478 302.080511 
L 254.252055 302.012014 
L 255.641843 301.87502 
L 257.031631 301.772275 
L 270.002989 300.77907 
L 270.929514 300.607828 
L 273.709091 300.505083 
L 281.121295 300.059853 
L 284.364134 299.957108 
L 286.217186 299.751617 
L 288.533499 299.648872 
L 291.313076 299.546127 
L 293.62939 299.443381 
L 295.482441 299.409133 
L 297.798755 299.340636 
L 298.72528 299.203642 
L 305.210959 299.100897 
L 306.137484 298.998152 
L 311.696638 298.895406 
L 315.866002 298.689916 
L 319.108842 298.58717 
L 320.961893 298.38168 
L 324.204732 298.278934 
L 325.131258 298.107692 
L 327.447572 298.039195 
L 332.080199 297.970699 
L 333.93325 297.799456 
L 335.786301 297.765208 
L 337.17609 297.662463 
L 339.029141 297.49122 
L 343.661768 297.251481 
L 348.294396 297.148736 
L 352.463761 296.943245 
L 353.853549 296.908997 
L 354.780075 296.772003 
L 357.096389 296.669258 
L 358.022914 296.600761 
L 358.94944 296.532264 
L 359.875965 296.463767 
L 364.04533 296.39527 
L 365.435118 296.292525 
L 377.943213 295.470563 
L 380.259527 295.367817 
L 382.575841 295.29932 
L 389.061519 295.196575 
L 389.988045 295.059581 
L 396.473724 294.956836 
L 401.106351 294.717097 
L 402.032877 294.682849 
L 402.959402 294.580103 
L 405.275716 294.477358 
L 407.59203 294.408861 
L 409.908344 294.306116 
L 412.224658 294.237619 
L 416.394022 294.134874 
L 419.173599 294.032128 
L 425.659278 293.929383 
L 430.755168 293.655395 
L 432.608219 293.586899 
L 433.998007 293.484153 
L 440.483686 293.381408 
L 443.263263 293.278663 
L 451.601993 293.175917 
L 453.455044 293.141669 
L 459.014197 293.073172 
L 459.940722 293.004675 
L 466.426401 292.90193 
L 468.279452 292.867681 
L 480.324284 292.764936 
L 481.714072 292.627942 
L 502.560897 292.525197 
L 504.87721 292.4567 
L 516.922042 292.388203 
L 517.848568 292.319706 
L 520.164882 292.25121 
L 521.55467 292.114216 
L 524.334247 292.011471 
L 527.577086 291.874477 
L 531.746451 291.771731 
L 534.062765 291.703235 
L 537.305604 291.600489 
L 541.011706 291.429247 
L 543.32802 291.326502 
L 545.181071 291.292253 
L 549.350436 291.189508 
L 551.203487 291.15526 
L 557.225903 291.052514 
L 559.078954 291.018266 
L 561.395268 290.915521 
L 564.174844 290.812775 
L 567.417684 290.744278 
L 568.344209 290.675781 
L 579.462516 290.573036 
L 585.484932 290.230552 
L 587.801245 290.162055 
L 588.727771 290.05931 
L 589.654296 289.990813 
L 593.360399 289.888067 
L 596.139975 289.785322 
L 600.772603 289.682577 
L 603.088917 289.442838 
L 607.721544 289.340092 
L 608.64807 289.237347 
L 613.280697 289.134602 
L 615.597011 289.066105 
L 620.692902 289.031856 
L 621.619427 288.929111 
L 626.715318 288.826366 
L 627.641843 288.757869 
L 637.833624 288.655124 
L 640.6132 288.552378 
L 647.562142 288.449633 
L 649.415193 288.415385 
L 653.584558 288.346888 
L 654.511083 288.244142 
L 660.533499 288.141397 
L 662.849813 288.0729 
L 671.188543 287.970155 
L 672.578331 287.86741 
L 673.96812 287.764664 
L 675.357908 287.661919 
L 682.306849 287.559174 
L 685.086426 287.456428 
L 697.594521 287.353683 
L 701.763885 287.148192 
L 707.323039 287.045447 
L 708.249564 286.97695 
L 715.198506 286.908453 
L 716.125031 286.839957 
L 721.220922 286.737211 
L 723.073973 286.702963 
L 729.559651 286.600217 
L 732.339228 286.497472 
L 740.214695 286.394727 
L 742.067746 286.360478 
L 746.237111 286.257733 
L 747.163636 286.223485 
L 747.163636 286.223485 
" clip-path="url(#p6392b7b9cf)" style="fill: none; stroke: #ff7f0e; stroke-width: 1.5; stroke-linecap: square"/>
   </g>
   <g id="patch_3">
    <path d="M 108 320.4 
L 108 43.2 
" style="fill: none; stroke: #a9a9a9; stroke-width: 0.8; stroke-linejoin: miter; stroke-linecap: square"/>
   </g>
   <g id="patch_4">
    <path d="M 777.6 320.4 
L 777.6 43.2 
" style="fill: none"/>
   </g>
   <g id="patch_5">
    <path d="M 108 320.4 
L 777.6 320.4 
" style="fill: none; stroke: #a9a9a9; stroke-width: 0.8; stroke-linejoin: miter; stroke-linecap: square"/>
   </g>
   <g id="patch_6">
    <path d="M 108 43.2 
L 777.6 43.2 
" style="fill: none"/>
   </g>
   <g id="text_17">
    <!-- get_subscribe history -->
    <g style="fill: #a9a9a9" transform="translate(378.6075 37.2) scale(0.12 -0.12)">
     <defs>
      <path id="DejaVuSans-67" d="M 2906 1791 
Q 2906 2416 2648 2759 
Q 2391 3103 1925 3103 
Q 1463 3103 1205 2759 
Q 947 2416 947 1791 
Q 947 1169 1205 825 
Q 1463 481 1925 481 
Q 2391 481 2648 825 
Q 2906 1169 2906 1791 
z
M 3481 434 
Q 3481 -459 3084 -895 
Q 2688 -1331 1869 -1331 
Q 1566 -1331 1297 -1286 
Q 1028 -1241 775 -1147 
L 775 -588 
Q 1028 -725 1275 -790 
Q 1522 -856 1778 -856 
Q 2344 -856 2625 -561 
Q 2906 -266 2906 331 
L 2906 616 
Q 2728 306 2450 153 
Q 2172 0 1784 0 
Q 1141 0 747 490 
Q 353 981 353 1791 
Q 353 2603 747 3093 
Q 1141 3584 1784 3584 
Q 2172 3584 2450 3431 
Q 2728 3278 2906 2969 
L 2906 3500 
L 3481 3500 
L 3481 434 
z
" transform="scale(0.015625)"/>
      <path id="DejaVuSans-65" d="M 3597 1894 
L 3597 1613 
L 953 1613 
Q 991 1019 1311 708 
Q 1631 397 2203 397 
Q 2534 397 2845 478 
Q 3156 559 3463 722 
L 3463 178 
Q 3153 47 2828 -22 
Q 2503 -91 2169 -91 
Q 1331 -91 842 396 
Q 353 884 353 1716 
Q 353 2575 817 3079 
Q 1281 3584 2069 3584 
Q 2775 3584 3186 3129 
Q 3597 2675 3597 1894 
z
M 3022 2063 
Q 3016 2534 2758 2815 
Q 2500 3097 2075 3097 
Q 1594 3097 1305 2825 
Q 1016 2553 972 2059 
L 3022 2063 
z
" transform="scale(0.015625)"/>
      <path id="DejaVuSans-74" d="M 1172 4494 
L 1172 3500 
L 2356 3500 
L 2356 3053 
L 1172 3053 
L 1172 1153 
Q 1172 725 1289 603 
Q 1406 481 1766 481 
L 2356 481 
L 2356 0 
L 1766 0 
Q 1100 0 847 248 
Q 594 497 594 1153 
L 594 3053 
L 172 3053 
L 172 3500 
L 594 3500 
L 594 4494 
L 1172 4494 
z
" transform="scale(0.015625)"/>
      <path id="DejaVuSans-5f" d="M 3263 -1063 
L 3263 -1509 
L -63 -1509 
L -63 -1063 
L 3263 -1063 
z
" transform="scale(0.015625)"/>
      <path id="DejaVuSans-73" d="M 2834 3397 
L 2834 2853 
Q 2591 2978 2328 3040 
Q 2066 3103 1784 3103 
Q 1356 3103 1142 2972 
Q 928 2841 928 2578 
Q 928 2378 1081 2264 
Q 1234 2150 1697 2047 
L 1894 2003 
Q 2506 1872 2764 1633 
Q 3022 1394 3022 966 
Q 3022 478 2636 193 
Q 2250 -91 1575 -91 
Q 1294 -91 989 -36 
Q 684 19 347 128 
L 347 722 
Q 666 556 975 473 
Q 1284 391 1588 391 
Q 1994 391 2212 530 
Q 2431 669 2431 922 
Q 2431 1156 2273 1281 
Q 2116 1406 1581 1522 
L 1381 1569 
Q 847 1681 609 1914 
Q 372 2147 372 2553 
Q 372 3047 722 3315 
Q 1072 3584 1716 3584 
Q 2034 3584 2315 3537 
Q 2597 3491 2834 3397 
z
" transform="scale(0.015625)"/>
      <path id="DejaVuSans-75" d="M 544 1381 
L 544 3500 
L 1119 3500 
L 1119 1403 
Q 1119 906 1312 657 
Q 1506 409 1894 409 
Q 2359 409 2629 706 
Q 2900 1003 2900 1516 
L 2900 3500 
L 3475 3500 
L 3475 0 
L 2900 0 
L 2900 538 
Q 2691 219 2414 64 
Q 2138 -91 1772 -91 
Q 1169 -91 856 284 
Q 544 659 544 1381 
z
M 1991 3584 
L 1991 3584 
z
" transform="scale(0.015625)"/>
      <path id="DejaVuSans-62" d="M 3116 1747 
Q 3116 2381 2855 2742 
Q 2594 3103 2138 3103 
Q 1681 3103 1420 2742 
Q 1159 2381 1159 1747 
Q 1159 1113 1420 752 
Q 1681 391 2138 391 
Q 2594 391 2855 752 
Q 3116 1113 3116 1747 
z
M 1159 2969 
Q 1341 3281 1617 3432 
Q 1894 3584 2278 3584 
Q 2916 3584 3314 3078 
Q 3713 2572 3713 1747 
Q 3713 922 3314 415 
Q 2916 -91 2278 -91 
Q 1894 -91 1617 61 
Q 1341 213 1159 525 
L 1159 0 
L 581 0 
L 581 4863 
L 1159 4863 
L 1159 2969 
z
" transform="scale(0.015625)"/>
      <path id="DejaVuSans-63" d="M 3122 3366 
L 3122 2828 
Q 2878 2963 2633 3030 
Q 2388 3097 2138 3097 
Q 1578 3097 1268 2742 
Q 959 2388 959 1747 
Q 959 1106 1268 751 
Q 1578 397 2138 397 
Q 2388 397 2633 464 
Q 2878 531 3122 666 
L 3122 134 
Q 2881 22 2623 -34 
Q 2366 -91 2075 -91 
Q 1284 -91 818 406 
Q 353 903 353 1747 
Q 353 2603 823 3093 
Q 1294 3584 2113 3584 
Q 2378 3584 2631 3529 
Q 2884 3475 3122 3366 
z
" transform="scale(0.015625)"/>
      <path id="DejaVuSans-72" d="M 2631 2963 
Q 2534 3019 2420 3045 
Q 2306 3072 2169 3072 
Q 1681 3072 1420 2755 
Q 1159 2438 1159 1844 
L 1159 0 
L 581 0 
L 581 3500 
L 1159 3500 
L 1159 2956 
Q 1341 3275 1631 3429 
Q 1922 3584 2338 3584 
Q 2397 3584 2469 3576 
Q 2541 3569 2628 3553 
L 2631 2963 
z
" transform="scale(0.015625)"/>
      <path id="DejaVuSans-69" d="M 603 3500 
L 1178 3500 
L 1178 0 
L 603 0 
L 603 3500 
z
M 603 4863 
L 1178 4863 
L 1178 4134 
L 603 4134 
L 603 4863 
z
" transform="scale(0.015625)"/>
      <path id="DejaVuSans-20" transform="scale(0.015625)"/>
      <path id="DejaVuSans-68" d="M 3513 2113 
L 3513 0 
L 2938 0 
L 2938 2094 
Q 2938 2591 2744 2837 
Q 2550 3084 2163 3084 
Q 1697 3084 1428 2787 
Q 1159 2491 1159 1978 
L 1159 0 
L 581 0 
L 581 4863 
L 1159 4863 
L 1159 2956 
Q 1366 3272 1645 3428 
Q 1925 3584 2291 3584 
Q 2894 3584 3203 3211 
Q 3513 2838 3513 2113 
z
" transform="scale(0.015625)"/>
      <path id="DejaVuSans-6f" d="M 1959 3097 
Q 1497 3097 1228 2736 
Q 959 2375 959 1747 
Q 959 1119 1226 758 
Q 1494 397 1959 397 
Q 2419 397 2687 759 
Q 2956 1122 2956 1747 
Q 2956 2369 2687 2733 
Q 2419 3097 1959 3097 
z
M 1959 3584 
Q 2709 3584 3137 3096 
Q 3566 2609 3566 1747 
Q 3566 888 3137 398 
Q 2709 -91 1959 -91 
Q 1206 -91 779 398 
Q 353 888 353 1747 
Q 353 2609 779 3096 
Q 1206 3584 1959 3584 
z
" transform="scale(0.015625)"/>
      <path id="DejaVuSans-79" d="M 2059 -325 
Q 1816 -950 1584 -1140 
Q 1353 -1331 966 -1331 
L 506 -1331 
L 506 -850 
L 844 -850 
Q 1081 -850 1212 -737 
Q 1344 -625 1503 -206 
L 1606 56 
L 191 3500 
L 800 3500 
L 1894 763 
L 2988 3500 
L 3597 3500 
L 2059 -325 
z
" transform="scale(0.015625)"/>
     </defs>
     <use xlink:href="#DejaVuSans-67"/>
     <use xlink:href="#DejaVuSans-65" transform="translate(63.476562 0)"/>
     <use xlink:href="#DejaVuSans-74" transform="translate(125 0)"/>
     <use xlink:href="#DejaVuSans-5f" transform="translate(164.208984 0)"/>
     <use xlink:href="#DejaVuSans-73" transform="translate(214.208984 0)"/>
     <use xlink:href="#DejaVuSans-75" transform="translate(266.308594 0)"/>
     <use xlink:href="#DejaVuSans-62" transform="translate(329.6875 0)"/>
     <use xlink:href="#DejaVuSans-73" transform="translate(393.164062 0)"/>
     <use xlink:href="#DejaVuSans-63" transform="translate(445.263672 0)"/>
     <use xlink:href="#DejaVuSans-72" transform="translate(500.244141 0)"/>
     <use xlink:href="#DejaVuSans-69" transform="translate(541.357422 0)"/>
     <use xlink:href="#DejaVuSans-62" transform="translate(569.140625 0)"/>
     <use xlink:href="#DejaVuSans-65" transform="translate(632.617188 0)"/>
     <use xlink:href="#DejaVuSans-20" transform="translate(694.140625 0)"/>
     <use xlink:href="#DejaVuSans-68" transform="translate(725.927734 0)"/>
     <use xlink:href="#DejaVuSans-69" transform="translate(789.306641 0)"/>
     <use xlink:href="#DejaVuSans-73" transform="translate(817.089844 0)"/>
     <use xlink:href="#DejaVuSans-74" transform="translate(869.189453 0)"/>
     <use xlink:href="#DejaVuSans-6f" transform="translate(908.398438 0)"/>
     <use xlink:href="#DejaVuSans-72" transform="translate(969.580078 0)"/>
     <use xlink:href="#DejaVuSans-79" transform="translate(1010.693359 0)"/>
    </g>
   </g>
   <g id="legend_1">
    <g id="line2d_35">
     <path d="M 815.08 328.498438 
L 825.08 328.498438 
L 835.08 328.498438 
" style="fill: none; stroke: #1f77b4; stroke-width: 1.5; stroke-linecap: square"/>
    </g>
    <g id="text_18">
     <!-- star -->
     <g style="fill: #a9a9a9" transform="translate(843.08 331.998438) scale(0.1 -0.1)">
      <defs>
       <path id="DejaVuSans-61" d="M 2194 1759 
Q 1497 1759 1228 1600 
Q 959 1441 959 1056 
Q 959 750 1161 570 
Q 1363 391 1709 391 
Q 2188 391 2477 730 
Q 2766 1069 2766 1631 
L 2766 1759 
L 2194 1759 
z
M 3341 1997 
L 3341 0 
L 2766 0 
L 2766 531 
Q 2569 213 2275 61 
Q 1981 -91 1556 -91 
Q 1019 -91 701 211 
Q 384 513 384 1019 
Q 384 1609 779 1909 
Q 1175 2209 1959 2209 
L 2766 2209 
L 2766 2266 
Q 2766 2663 2505 2880 
Q 2244 3097 1772 3097 
Q 1472 3097 1187 3025 
Q 903 2953 641 2809 
L 641 3341 
Q 956 3463 1253 3523 
Q 1550 3584 1831 3584 
Q 2591 3584 2966 3190 
Q 3341 2797 3341 1997 
z
" transform="scale(0.015625)"/>
      </defs>
      <use xlink:href="#DejaVuSans-73"/>
      <use xlink:href="#DejaVuSans-74" transform="translate(52.099609 0)"/>
      <use xlink:href="#DejaVuSans-61" transform="translate(91.308594 0)"/>
      <use xlink:href="#DejaVuSans-72" transform="translate(152.587891 0)"/>
     </g>
    </g>
    <g id="line2d_36">
     <path d="M 815.08 343.176562 
L 825.08 343.176562 
L 835.08 343.176562 
" style="fill: none; stroke: #ff7f0e; stroke-width: 1.5; stroke-linecap: square"/>
    </g>
    <g id="text_19">
     <!-- fork -->
     <g style="fill: #a9a9a9" transform="translate(843.08 346.676562) scale(0.1 -0.1)">
      <defs>
       <path id="DejaVuSans-66" d="M 2375 4863 
L 2375 4384 
L 1825 4384 
Q 1516 4384 1395 4259 
Q 1275 4134 1275 3809 
L 1275 3500 
L 2222 3500 
L 2222 3053 
L 1275 3053 
L 1275 0 
L 697 0 
L 697 3053 
L 147 3053 
L 147 3500 
L 697 3500 
L 697 3744 
Q 697 4328 969 4595 
Q 1241 4863 1831 4863 
L 2375 4863 
z
" transform="scale(0.015625)"/>
       <path id="DejaVuSans-6b" d="M 581 4863 
L 1159 4863 
L 1159 1991 
L 2875 3500 
L 3609 3500 
L 1753 1863 
L 3688 0 
L 2938 0 
L 1159 1709 
L 1159 0 
L 581 0 
L 581 4863 
z
" transform="scale(0.015625)"/>
      </defs>
      <use xlink:href="#DejaVuSans-66"/>
      <use xlink:href="#DejaVuSans-6f" transform="translate(35.205078 0)"/>
      <use xlink:href="#DejaVuSans-72" transform="translate(96.386719 0)"/>
      <use xlink:href="#DejaVuSans-6b" transform="translate(137.5 0)"/>
     </g>
    </g>
   </g>
  </g>
 </g>
 <defs>
  <clipPath id="p6392b7b9cf">
   <rect x="108" y="43.2" width="669.6" height="277.2"/>
  </clipPath>
 </defs>
</svg>
