<?xml version="1.0" encoding="utf-8" standalone="no"?>
<!DOCTYPE svg PUBLIC "-//W3C//DTD SVG 1.1//EN"
  "http://www.w3.org/Graphics/SVG/1.1/DTD/svg11.dtd">
<svg xmlns:xlink="http://www.w3.org/1999/xlink" width="864pt" height="360pt" viewBox="0 0 864 360" xmlns="http://www.w3.org/2000/svg" version="1.1">
 <metadata>
  <rdf:RDF xmlns:dc="http://purl.org/dc/elements/1.1/" xmlns:cc="http://creativecommons.org/ns#" xmlns:rdf="http://www.w3.org/1999/02/22-rdf-syntax-ns#">
   <cc:Work>
    <dc:type rdf:resource="http://purl.org/dc/dcmitype/StillImage"/>
    <dc:date>2026-02-26T20:15:31.425468</dc:date>
    <dc:format>image/svg+xml</dc:format>
    <dc:creator>
     <cc:Agent>
      <dc:title>Matplotlib v3.10.8, https://matplotlib.org/</dc:title>
     </cc:Agent>
    </dc:creator>
   </cc:Work>
  </rdf:RDF>
 </metadata>
 <defs>
  <style type="text/css">*{stroke-linejoin: round; stroke-linecap: butt}</style>
 </defs>
 <g id="figure_1">
  <g id="patch_1">
   <path d="M 0 360 
L 864 360 
L 864 0 
L 0 0 
L 0 360 
z
" style="fill: none; opacity: 0"/>
  </g>
  <g id="axes_1">
   <g id="patch_2">
    <path d="M 108 320.4 
L 777.6 320.4 
L 777.6 43.2 
L 108 43.2 
L 108 320.4 
z
" style="fill: none; opacity: 0"/>
   </g>
   <g id="matplotlib.axis_1">
    <g id="xtick_1">
     <g id="line2d_1">
      <path d="M 196.842258 320.4 
L 196.842258 43.2 
" clip-path="url(#p00538952fd)" style="fill: none; stroke-dasharray: 5.12,1.28,0.8,1.28; stroke-dashoffset: 0; stroke: #b0b0b0; stroke-width: 0.8"/>
     </g>
     <g id="line2d_2">
      <defs>
       <path id="m0bcdad9229" d="M 0 0 
L 0 3.5 
" style="stroke: #a9a9a9; stroke-width: 0.8"/>
      </defs>
      <g>
       <use xlink:href="#m0bcdad9229" x="196.842258" y="320.4" style="fill: #a9a9a9; stroke: #a9a9a9; stroke-width: 0.8"/>
      </g>
     </g>
     <g id="text_1">
      <!-- 2022 -->
      <g style="fill: #a9a9a9" transform="translate(184.117258 334.998438) scale(0.1 -0.1)">
       <defs>
        <path id="DejaVuSans-32" d="M 1228 531 
L 3431 531 
L 3431 0 
L 469 0 
L 469 531 
Q 828 903 1448 1529 
Q 2069 2156 2228 2338 
Q 2531 2678 2651 2914 
Q 2772 3150 2772 3378 
Q 2772 3750 2511 3984 
Q 2250 4219 1831 4219 
Q 1534 4219 1204 4116 
Q 875 4013 500 3803 
L 500 4441 
Q 881 4594 1212 4672 
Q 1544 4750 1819 4750 
Q 2544 4750 2975 4387 
Q 3406 4025 3406 3419 
Q 3406 3131 3298 2873 
Q 3191 2616 2906 2266 
Q 2828 2175 2409 1742 
Q 1991 1309 1228 531 
z
" transform="scale(0.015625)"/>
        <path id="DejaVuSans-30" d="M 2034 4250 
Q 1547 4250 1301 3770 
Q 1056 3291 1056 2328 
Q 1056 1369 1301 889 
Q 1547 409 2034 409 
Q 2525 409 2770 889 
Q 3016 1369 3016 2328 
Q 3016 3291 2770 3770 
Q 2525 4250 2034 4250 
z
M 2034 4750 
Q 2819 4750 3233 4129 
Q 3647 3509 3647 2328 
Q 3647 1150 3233 529 
Q 2819 -91 2034 -91 
Q 1250 -91 836 529 
Q 422 1150 422 2328 
Q 422 3509 836 4129 
Q 1250 4750 2034 4750 
z
" transform="scale(0.015625)"/>
       </defs>
       <use xlink:href="#DejaVuSans-32"/>
       <use xlink:href="#DejaVuSans-30" transform="translate(63.623047 0)"/>
       <use xlink:href="#DejaVuSans-32" transform="translate(127.246094 0)"/>
       <use xlink:href="#DejaVuSans-32" transform="translate(190.869141 0)"/>
      </g>
     </g>
    </g>
    <g id="xtick_2">
     <g id="line2d_3">
      <path d="M 329.253137 320.4 
L 329.253137 43.2 
" clip-path="url(#p00538952fd)" style="fill: none; stroke-dasharray: 5.12,1.28,0.8,1.28; stroke-dashoffset: 0; stroke: #b0b0b0; stroke-width: 0.8"/>
     </g>
     <g id="line2d_4">
      <g>
       <use xlink:href="#m0bcdad9229" x="329.253137" y="320.4" style="fill: #a9a9a9; stroke: #a9a9a9; stroke-width: 0.8"/>
      </g>
     </g>
     <g id="text_2">
      <!-- 2023 -->
      <g style="fill: #a9a9a9" transform="translate(316.528137 334.998438) scale(0.1 -0.1)">
       <defs>
        <path id="DejaVuSans-33" d="M 2597 2516 
Q 3050 2419 3304 2112 
Q 3559 1806 3559 1356 
Q 3559 666 3084 287 
Q 2609 -91 1734 -91 
Q 1441 -91 1130 -33 
Q 819 25 488 141 
L 488 750 
Q 750 597 1062 519 
Q 1375 441 1716 441 
Q 2309 441 2620 675 
Q 2931 909 2931 1356 
Q 2931 1769 2642 2001 
Q 2353 2234 1838 2234 
L 1294 2234 
L 1294 2753 
L 1863 2753 
Q 2328 2753 2575 2939 
Q 2822 3125 2822 3475 
Q 2822 3834 2567 4026 
Q 2313 4219 1838 4219 
Q 1578 4219 1281 4162 
Q 984 4106 628 3988 
L 628 4550 
Q 988 4650 1302 4700 
Q 1616 4750 1894 4750 
Q 2613 4750 3031 4423 
Q 3450 4097 3450 3541 
Q 3450 3153 3228 2886 
Q 3006 2619 2597 2516 
z
" transform="scale(0.015625)"/>
       </defs>
       <use xlink:href="#DejaVuSans-32"/>
       <use xlink:href="#DejaVuSans-30" transform="translate(63.623047 0)"/>
       <use xlink:href="#DejaVuSans-32" transform="translate(127.246094 0)"/>
       <use xlink:href="#DejaVuSans-33" transform="translate(190.869141 0)"/>
      </g>
     </g>
    </g>
    <g id="xtick_3">
     <g id="line2d_5">
      <path d="M 461.664016 320.4 
L 461.664016 43.2 
" clip-path="url(#p00538952fd)" style="fill: none; stroke-dasharray: 5.12,1.28,0.8,1.28; stroke-dashoffset: 0; stroke: #b0b0b0; stroke-width: 0.8"/>
     </g>
     <g id="line2d_6">
      <g>
       <use xlink:href="#m0bcdad9229" x="461.664016" y="320.4" style="fill: #a9a9a9; stroke: #a9a9a9; stroke-width: 0.8"/>
      </g>
     </g>
     <g id="text_3">
      <!-- 2024 -->
      <g style="fill: #a9a9a9" transform="translate(448.939016 334.998438) scale(0.1 -0.1)">
       <defs>
        <path id="DejaVuSans-34" d="M 2419 4116 
L 825 1625 
L 2419 1625 
L 2419 4116 
z
M 2253 4666 
L 3047 4666 
L 3047 1625 
L 3713 1625 
L 3713 1100 
L 3047 1100 
L 3047 0 
L 2419 0 
L 2419 1100 
L 313 1100 
L 313 1709 
L 2253 4666 
z
" transform="scale(0.015625)"/>
       </defs>
       <use xlink:href="#DejaVuSans-32"/>
       <use xlink:href="#DejaVuSans-30" transform="translate(63.623047 0)"/>
       <use xlink:href="#DejaVuSans-32" transform="translate(127.246094 0)"/>
       <use xlink:href="#DejaVuSans-34" transform="translate(190.869141 0)"/>
      </g>
     </g>
    </g>
    <g id="xtick_4">
     <g id="line2d_7">
      <path d="M 594.437664 320.4 
L 594.437664 43.2 
" clip-path="url(#p00538952fd)" style="fill: none; stroke-dasharray: 5.12,1.28,0.8,1.28; stroke-dashoffset: 0; stroke: #b0b0b0; stroke-width: 0.8"/>
     </g>
     <g id="line2d_8">
      <g>
       <use xlink:href="#m0bcdad9229" x="594.437664" y="320.4" style="fill: #a9a9a9; stroke: #a9a9a9; stroke-width: 0.8"/>
      </g>
     </g>
     <g id="text_4">
      <!-- 2025 -->
      <g style="fill: #a9a9a9" transform="translate(581.712664 334.998438) scale(0.1 -0.1)">
       <defs>
        <path id="DejaVuSans-35" d="M 691 4666 
L 3169 4666 
L 3169 4134 
L 1269 4134 
L 1269 2991 
Q 1406 3038 1543 3061 
Q 1681 3084 1819 3084 
Q 2600 3084 3056 2656 
Q 3513 2228 3513 1497 
Q 3513 744 3044 326 
Q 2575 -91 1722 -91 
Q 1428 -91 1123 -41 
Q 819 9 494 109 
L 494 744 
Q 775 591 1075 516 
Q 1375 441 1709 441 
Q 2250 441 2565 725 
Q 2881 1009 2881 1497 
Q 2881 1984 2565 2268 
Q 2250 2553 1709 2553 
Q 1456 2553 1204 2497 
Q 953 2441 691 2322 
L 691 4666 
z
" transform="scale(0.015625)"/>
       </defs>
       <use xlink:href="#DejaVuSans-32"/>
       <use xlink:href="#DejaVuSans-30" transform="translate(63.623047 0)"/>
       <use xlink:href="#DejaVuSans-32" transform="translate(127.246094 0)"/>
       <use xlink:href="#DejaVuSans-35" transform="translate(190.869141 0)"/>
      </g>
     </g>
    </g>
    <g id="xtick_5">
     <g id="line2d_9">
      <path d="M 726.848543 320.4 
L 726.848543 43.2 
" clip-path="url(#p00538952fd)" style="fill: none; stroke-dasharray: 5.12,1.28,0.8,1.28; stroke-dashoffset: 0; stroke: #b0b0b0; stroke-width: 0.8"/>
     </g>
     <g id="line2d_10">
      <g>
       <use xlink:href="#m0bcdad9229" x="726.848543" y="320.4" style="fill: #a9a9a9; stroke: #a9a9a9; stroke-width: 0.8"/>
      </g>
     </g>
     <g id="text_5">
      <!-- 2026 -->
      <g style="fill: #a9a9a9" transform="translate(714.123543 334.998438) scale(0.1 -0.1)">
       <defs>
        <path id="DejaVuSans-36" d="M 2113 2584 
Q 1688 2584 1439 2293 
Q 1191 2003 1191 1497 
Q 1191 994 1439 701 
Q 1688 409 2113 409 
Q 2538 409 2786 701 
Q 3034 994 3034 1497 
Q 3034 2003 2786 2293 
Q 2538 2584 2113 2584 
z
M 3366 4563 
L 3366 3988 
Q 3128 4100 2886 4159 
Q 2644 4219 2406 4219 
Q 1781 4219 1451 3797 
Q 1122 3375 1075 2522 
Q 1259 2794 1537 2939 
Q 1816 3084 2150 3084 
Q 2853 3084 3261 2657 
Q 3669 2231 3669 1497 
Q 3669 778 3244 343 
Q 2819 -91 2113 -91 
Q 1303 -91 875 529 
Q 447 1150 447 2328 
Q 447 3434 972 4092 
Q 1497 4750 2381 4750 
Q 2619 4750 2861 4703 
Q 3103 4656 3366 4563 
z
" transform="scale(0.015625)"/>
       </defs>
       <use xlink:href="#DejaVuSans-32"/>
       <use xlink:href="#DejaVuSans-30" transform="translate(63.623047 0)"/>
       <use xlink:href="#DejaVuSans-32" transform="translate(127.246094 0)"/>
       <use xlink:href="#DejaVuSans-36" transform="translate(190.869141 0)"/>
      </g>
     </g>
    </g>
   </g>
   <g id="matplotlib.axis_2">
    <g id="ytick_1">
     <g id="line2d_11">
      <path d="M 108 307.828969 
L 777.6 307.828969 
" clip-path="url(#p00538952fd)" style="fill: none; stroke-dasharray: 5.12,1.28,0.8,1.28; stroke-dashoffset: 0; stroke: #b0b0b0; stroke-width: 0.8"/>
     </g>
     <g id="line2d_12">
      <defs>
       <path id="m8747ae1554" d="M 0 0 
L -3.5 0 
" style="stroke: #a9a9a9; stroke-width: 0.8"/>
      </defs>
      <g>
       <use xlink:href="#m8747ae1554" x="108" y="307.828969" style="fill: #a9a9a9; stroke: #a9a9a9; stroke-width: 0.8"/>
      </g>
     </g>
     <g id="text_6">
      <!-- 0 -->
      <g style="fill: #a9a9a9" transform="translate(94.6375 311.628188) scale(0.1 -0.1)">
       <use xlink:href="#DejaVuSans-30"/>
      </g>
     </g>
    </g>
    <g id="ytick_2">
     <g id="line2d_13">
      <path d="M 108 278.860122 
L 777.6 278.860122 
" clip-path="url(#p00538952fd)" style="fill: none; stroke-dasharray: 5.12,1.28,0.8,1.28; stroke-dashoffset: 0; stroke: #b0b0b0; stroke-width: 0.8"/>
     </g>
     <g id="line2d_14">
      <g>
       <use xlink:href="#m8747ae1554" x="108" y="278.860122" style="fill: #a9a9a9; stroke: #a9a9a9; stroke-width: 0.8"/>
      </g>
     </g>
     <g id="text_7">
      <!-- 1000 -->
      <g style="fill: #a9a9a9" transform="translate(75.55 282.659341) scale(0.1 -0.1)">
       <defs>
        <path id="DejaVuSans-31" d="M 794 531 
L 1825 531 
L 1825 4091 
L 703 3866 
L 703 4441 
L 1819 4666 
L 2450 4666 
L 2450 531 
L 3481 531 
L 3481 0 
L 794 0 
L 794 531 
z
" transform="scale(0.015625)"/>
       </defs>
       <use xlink:href="#DejaVuSans-31"/>
       <use xlink:href="#DejaVuSans-30" transform="translate(63.623047 0)"/>
       <use xlink:href="#DejaVuSans-30" transform="translate(127.246094 0)"/>
       <use xlink:href="#DejaVuSans-30" transform="translate(190.869141 0)"/>
      </g>
     </g>
    </g>
    <g id="ytick_3">
     <g id="line2d_15">
      <path d="M 108 249.891275 
L 777.6 249.891275 
" clip-path="url(#p00538952fd)" style="fill: none; stroke-dasharray: 5.12,1.28,0.8,1.28; stroke-dashoffset: 0; stroke: #b0b0b0; stroke-width: 0.8"/>
     </g>
     <g id="line2d_16">
      <g>
       <use xlink:href="#m8747ae1554" x="108" y="249.891275" style="fill: #a9a9a9; stroke: #a9a9a9; stroke-width: 0.8"/>
      </g>
     </g>
     <g id="text_8">
      <!-- 2000 -->
      <g style="fill: #a9a9a9" transform="translate(75.55 253.690494) scale(0.1 -0.1)">
       <use xlink:href="#DejaVuSans-32"/>
       <use xlink:href="#DejaVuSans-30" transform="translate(63.623047 0)"/>
       <use xlink:href="#DejaVuSans-30" transform="translate(127.246094 0)"/>
       <use xlink:href="#DejaVuSans-30" transform="translate(190.869141 0)"/>
      </g>
     </g>
    </g>
    <g id="ytick_4">
     <g id="line2d_17">
      <path d="M 108 220.922428 
L 777.6 220.922428 
" clip-path="url(#p00538952fd)" style="fill: none; stroke-dasharray: 5.12,1.28,0.8,1.28; stroke-dashoffset: 0; stroke: #b0b0b0; stroke-width: 0.8"/>
     </g>
     <g id="line2d_18">
      <g>
       <use xlink:href="#m8747ae1554" x="108" y="220.922428" style="fill: #a9a9a9; stroke: #a9a9a9; stroke-width: 0.8"/>
      </g>
     </g>
     <g id="text_9">
      <!-- 3000 -->
      <g style="fill: #a9a9a9" transform="translate(75.55 224.721647) scale(0.1 -0.1)">
       <use xlink:href="#DejaVuSans-33"/>
       <use xlink:href="#DejaVuSans-30" transform="translate(63.623047 0)"/>
       <use xlink:href="#DejaVuSans-30" transform="translate(127.246094 0)"/>
       <use xlink:href="#DejaVuSans-30" transform="translate(190.869141 0)"/>
      </g>
     </g>
    </g>
    <g id="ytick_5">
     <g id="line2d_19">
      <path d="M 108 191.953581 
L 777.6 191.953581 
" clip-path="url(#p00538952fd)" style="fill: none; stroke-dasharray: 5.12,1.28,0.8,1.28; stroke-dashoffset: 0; stroke: #b0b0b0; stroke-width: 0.8"/>
     </g>
     <g id="line2d_20">
      <g>
       <use xlink:href="#m8747ae1554" x="108" y="191.953581" style="fill: #a9a9a9; stroke: #a9a9a9; stroke-width: 0.8"/>
      </g>
     </g>
     <g id="text_10">
      <!-- 4000 -->
      <g style="fill: #a9a9a9" transform="translate(75.55 195.7528) scale(0.1 -0.1)">
       <use xlink:href="#DejaVuSans-34"/>
       <use xlink:href="#DejaVuSans-30" transform="translate(63.623047 0)"/>
       <use xlink:href="#DejaVuSans-30" transform="translate(127.246094 0)"/>
       <use xlink:href="#DejaVuSans-30" transform="translate(190.869141 0)"/>
      </g>
     </g>
    </g>
    <g id="ytick_6">
     <g id="line2d_21">
      <path d="M 108 162.984734 
L 777.6 162.984734 
" clip-path="url(#p00538952fd)" style="fill: none; stroke-dasharray: 5.12,1.28,0.8,1.28; stroke-dashoffset: 0; stroke: #b0b0b0; stroke-width: 0.8"/>
     </g>
     <g id="line2d_22">
      <g>
       <use xlink:href="#m8747ae1554" x="108" y="162.984734" style="fill: #a9a9a9; stroke: #a9a9a9; stroke-width: 0.8"/>
      </g>
     </g>
     <g id="text_11">
      <!-- 5000 -->
      <g style="fill: #a9a9a9" transform="translate(75.55 166.783953) scale(0.1 -0.1)">
       <use xlink:href="#DejaVuSans-35"/>
       <use xlink:href="#DejaVuSans-30" transform="translate(63.623047 0)"/>
       <use xlink:href="#DejaVuSans-30" transform="translate(127.246094 0)"/>
       <use xlink:href="#DejaVuSans-30" transform="translate(190.869141 0)"/>
      </g>
     </g>
    </g>
    <g id="ytick_7">
     <g id="line2d_23">
      <path d="M 108 134.015887 
L 777.6 134.015887 
" clip-path="url(#p00538952fd)" style="fill: none; stroke-dasharray: 5.12,1.28,0.8,1.28; stroke-dashoffset: 0; stroke: #b0b0b0; stroke-width: 0.8"/>
     </g>
     <g id="line2d_24">
      <g>
       <use xlink:href="#m8747ae1554" x="108" y="134.015887" style="fill: #a9a9a9; stroke: #a9a9a9; stroke-width: 0.8"/>
      </g>
     </g>
     <g id="text_12">
      <!-- 6000 -->
      <g style="fill: #a9a9a9" transform="translate(75.55 137.815106) scale(0.1 -0.1)">
       <use xlink:href="#DejaVuSans-36"/>
       <use xlink:href="#DejaVuSans-30" transform="translate(63.623047 0)"/>
       <use xlink:href="#DejaVuSans-30" transform="translate(127.246094 0)"/>
       <use xlink:href="#DejaVuSans-30" transform="translate(190.869141 0)"/>
      </g>
     </g>
    </g>
    <g id="ytick_8">
     <g id="line2d_25">
      <path d="M 108 105.04704 
L 777.6 105.04704 
" clip-path="url(#p00538952fd)" style="fill: none; stroke-dasharray: 5.12,1.28,0.8,1.28; stroke-dashoffset: 0; stroke: #b0b0b0; stroke-width: 0.8"/>
     </g>
     <g id="line2d_26">
      <g>
       <use xlink:href="#m8747ae1554" x="108" y="105.04704" style="fill: #a9a9a9; stroke: #a9a9a9; stroke-width: 0.8"/>
      </g>
     </g>
     <g id="text_13">
      <!-- 7000 -->
      <g style="fill: #a9a9a9" transform="translate(75.55 108.846259) scale(0.1 -0.1)">
       <defs>
        <path id="DejaVuSans-37" d="M 525 4666 
L 3525 4666 
L 3525 4397 
L 1831 0 
L 1172 0 
L 2766 4134 
L 525 4134 
L 525 4666 
z
" transform="scale(0.015625)"/>
       </defs>
       <use xlink:href="#DejaVuSans-37"/>
       <use xlink:href="#DejaVuSans-30" transform="translate(63.623047 0)"/>
       <use xlink:href="#DejaVuSans-30" transform="translate(127.246094 0)"/>
       <use xlink:href="#DejaVuSans-30" transform="translate(190.869141 0)"/>
      </g>
     </g>
    </g>
    <g id="ytick_9">
     <g id="line2d_27">
      <path d="M 108 76.078193 
L 777.6 76.078193 
" clip-path="url(#p00538952fd)" style="fill: none; stroke-dasharray: 5.12,1.28,0.8,1.28; stroke-dashoffset: 0; stroke: #b0b0b0; stroke-width: 0.8"/>
     </g>
     <g id="line2d_28">
      <g>
       <use xlink:href="#m8747ae1554" x="108" y="76.078193" style="fill: #a9a9a9; stroke: #a9a9a9; stroke-width: 0.8"/>
      </g>
     </g>
     <g id="text_14">
      <!-- 8000 -->
      <g style="fill: #a9a9a9" transform="translate(75.55 79.877412) scale(0.1 -0.1)">
       <defs>
        <path id="DejaVuSans-38" d="M 2034 2216 
Q 1584 2216 1326 1975 
Q 1069 1734 1069 1313 
Q 1069 891 1326 650 
Q 1584 409 2034 409 
Q 2484 409 2743 651 
Q 3003 894 3003 1313 
Q 3003 1734 2745 1975 
Q 2488 2216 2034 2216 
z
M 1403 2484 
Q 997 2584 770 2862 
Q 544 3141 544 3541 
Q 544 4100 942 4425 
Q 1341 4750 2034 4750 
Q 2731 4750 3128 4425 
Q 3525 4100 3525 3541 
Q 3525 3141 3298 2862 
Q 3072 2584 2669 2484 
Q 3125 2378 3379 2068 
Q 3634 1759 3634 1313 
Q 3634 634 3220 271 
Q 2806 -91 2034 -91 
Q 1263 -91 848 271 
Q 434 634 434 1313 
Q 434 1759 690 2068 
Q 947 2378 1403 2484 
z
M 1172 3481 
Q 1172 3119 1398 2916 
Q 1625 2713 2034 2713 
Q 2441 2713 2670 2916 
Q 2900 3119 2900 3481 
Q 2900 3844 2670 4047 
Q 2441 4250 2034 4250 
Q 1625 4250 1398 4047 
Q 1172 3844 1172 3481 
z
" transform="scale(0.015625)"/>
       </defs>
       <use xlink:href="#DejaVuSans-38"/>
       <use xlink:href="#DejaVuSans-30" transform="translate(63.623047 0)"/>
       <use xlink:href="#DejaVuSans-30" transform="translate(127.246094 0)"/>
       <use xlink:href="#DejaVuSans-30" transform="translate(190.869141 0)"/>
      </g>
     </g>
    </g>
    <g id="ytick_10">
     <g id="line2d_29">
      <path d="M 108 47.109346 
L 777.6 47.109346 
" clip-path="url(#p00538952fd)" style="fill: none; stroke-dasharray: 5.12,1.28,0.8,1.28; stroke-dashoffset: 0; stroke: #b0b0b0; stroke-width: 0.8"/>
     </g>
     <g id="line2d_30">
      <g>
       <use xlink:href="#m8747ae1554" x="108" y="47.109346" style="fill: #a9a9a9; stroke: #a9a9a9; stroke-width: 0.8"/>
      </g>
     </g>
     <g id="text_15">
      <!-- 9000 -->
      <g style="fill: #a9a9a9" transform="translate(75.55 50.908565) scale(0.1 -0.1)">
       <defs>
        <path id="DejaVuSans-39" d="M 703 97 
L 703 672 
Q 941 559 1184 500 
Q 1428 441 1663 441 
Q 2288 441 2617 861 
Q 2947 1281 2994 2138 
Q 2813 1869 2534 1725 
Q 2256 1581 1919 1581 
Q 1219 1581 811 2004 
Q 403 2428 403 3163 
Q 403 3881 828 4315 
Q 1253 4750 1959 4750 
Q 2769 4750 3195 4129 
Q 3622 3509 3622 2328 
Q 3622 1225 3098 567 
Q 2575 -91 1691 -91 
Q 1453 -91 1209 -44 
Q 966 3 703 97 
z
M 1959 2075 
Q 2384 2075 2632 2365 
Q 2881 2656 2881 3163 
Q 2881 3666 2632 3958 
Q 2384 4250 1959 4250 
Q 1534 4250 1286 3958 
Q 1038 3666 1038 3163 
Q 1038 2656 1286 2365 
Q 1534 2075 1959 2075 
z
" transform="scale(0.015625)"/>
       </defs>
       <use xlink:href="#DejaVuSans-39"/>
       <use xlink:href="#DejaVuSans-30" transform="translate(63.623047 0)"/>
       <use xlink:href="#DejaVuSans-30" transform="translate(127.246094 0)"/>
       <use xlink:href="#DejaVuSans-30" transform="translate(190.869141 0)"/>
      </g>
     </g>
    </g>
   </g>
   <g id="line2d_31">
    <path d="M 138.436364 307.742062 
L 140.612981 307.53928 
L 140.97575 307.365467 
L 142.426828 307.162685 
L 143.877907 306.844028 
L 144.603446 306.728153 
L 146.417293 306.55434 
L 147.142832 306.264651 
L 147.505602 305.743212 
L 147.868371 305.482492 
L 148.231141 304.613427 
L 148.59391 304.555489 
L 149.31945 304.091988 
L 150.044989 303.541579 
L 151.496067 302.440763 
L 151.858836 302.295919 
L 152.584375 301.832418 
L 153.672684 301.282009 
L 154.035453 300.644695 
L 154.760993 300.065318 
L 155.486532 299.833567 
L 156.57484 299.659754 
L 158.751457 299.312128 
L 159.114227 299.138315 
L 161.653614 298.906564 
L 163.104692 298.529969 
L 166.006848 298.095436 
L 166.369618 297.892654 
L 166.732387 297.834717 
L 167.457926 297.573997 
L 169.997313 297.110495 
L 170.722852 296.878745 
L 173.987778 296.299368 
L 174.713317 296.125555 
L 176.164395 295.922773 
L 176.889934 295.691022 
L 177.252703 295.140614 
L 178.341012 294.677112 
L 179.429321 294.358455 
L 179.79209 294.155673 
L 180.517629 294.010829 
L 182.331477 293.547327 
L 183.419785 293.286608 
L 184.870864 292.910013 
L 185.233633 292.881044 
L 185.959172 292.504449 
L 186.321942 292.446511 
L 186.684711 292.243729 
L 190.675176 291.548477 
L 192.126254 291.084975 
L 192.489024 290.824256 
L 194.302871 290.186941 
L 195.02841 289.636533 
L 196.116719 289.404782 
L 204.097649 286.913461 
L 204.460418 286.884492 
L 205.548727 286.536866 
L 205.911496 286.536866 
L 206.274266 286.363053 
L 206.999805 286.276147 
L 207.362574 286.131302 
L 209.176422 286.044396 
L 209.539192 285.957489 
L 210.264731 285.551926 
L 211.353039 285.146362 
L 212.078578 284.740798 
L 213.166887 284.248327 
L 214.617965 283.495137 
L 214.980735 283.089574 
L 215.706274 281.872882 
L 216.794582 281.525256 
L 217.157352 281.235567 
L 218.24566 280.830003 
L 218.60843 280.453408 
L 219.696739 279.989907 
L 220.059508 279.787125 
L 222.236125 277.15096 
L 222.961664 276.803334 
L 224.412742 275.760455 
L 225.138282 275.239016 
L 225.501051 274.688608 
L 225.863821 273.790574 
L 226.22659 273.211197 
L 229.854285 269.879779 
L 230.579824 269.155558 
L 232.030903 268.170617 
L 232.393672 267.822991 
L 233.119211 267.59124 
L 234.20752 266.924957 
L 235.295828 266.142798 
L 236.746906 264.723325 
L 237.472446 264.404667 
L 238.197985 263.883228 
L 238.560754 263.651477 
L 238.923524 263.593539 
L 240.011832 262.927256 
L 240.374602 262.492723 
L 242.188449 261.420876 
L 242.551219 261.276032 
L 243.639528 260.464904 
L 249.081071 258.379147 
L 249.80661 257.654926 
L 250.894918 257.075549 
L 251.620457 256.583079 
L 252.345996 256.351328 
L 252.708766 256.090608 
L 253.071535 255.974733 
L 254.159844 255.192574 
L 255.973692 254.758041 
L 257.062 254.062789 
L 258.150309 253.802069 
L 258.513078 253.715163 
L 259.601387 252.904035 
L 261.052465 252.469502 
L 261.415235 252.179814 
L 263.591852 251.368686 
L 264.317391 251.223842 
L 265.04293 250.905185 
L 267.582317 249.920244 
L 268.307856 249.833337 
L 269.758934 249.25396 
L 273.749399 247.139234 
L 274.474938 246.791608 
L 275.200477 246.443982 
L 275.926016 246.299138 
L 276.651555 245.835636 
L 277.377094 245.632854 
L 278.465403 245.169353 
L 279.916481 244.966571 
L 280.64202 244.561007 
L 281.004789 244.213381 
L 281.367559 243.518129 
L 282.818637 243.083596 
L 284.269715 242.388343 
L 287.534641 240.852995 
L 288.26018 240.679182 
L 289.348488 240.099805 
L 289.711258 240.041867 
L 291.525106 239.085895 
L 292.250645 238.593425 
L 293.338953 238.361674 
L 296.603879 237.20292 
L 298.054957 236.565605 
L 298.417727 236.275917 
L 299.143266 235.870353 
L 299.868805 235.580664 
L 300.231574 235.493758 
L 301.682653 234.711599 
L 302.045422 234.306035 
L 302.408192 234.074284 
L 302.770961 233.987378 
L 303.4965 233.350063 
L 303.85927 233.292126 
L 304.222039 232.654811 
L 304.584809 232.509967 
L 304.947578 232.191309 
L 305.310348 232.133372 
L 306.035887 231.640901 
L 306.761426 231.380182 
L 307.124195 231.090493 
L 307.849735 230.684929 
L 309.300813 229.757926 
L 311.47743 228.744017 
L 311.840199 228.077733 
L 312.565738 227.498356 
L 312.928508 227.41145 
L 315.105125 226.310633 
L 315.830664 225.991976 
L 316.556203 225.441568 
L 317.281742 224.659409 
L 319.09559 223.239936 
L 319.821129 222.63159 
L 320.183899 222.457777 
L 320.909438 221.675618 
L 321.997746 221.154179 
L 322.723285 220.719646 
L 323.086055 220.603771 
L 323.448824 220.314082 
L 323.811594 220.256144 
L 327.07652 218.518014 
L 327.802059 218.315232 
L 329.253137 217.793792 
L 329.978676 217.301322 
L 331.429754 216.750914 
L 332.155293 216.287412 
L 332.880832 215.997724 
L 333.606371 215.447316 
L 334.33191 213.911967 
L 335.057449 213.042901 
L 336.145758 212.434556 
L 336.871297 212.115898 
L 337.234067 212.057961 
L 337.959606 211.710335 
L 339.773453 211.044051 
L 340.498992 210.551581 
L 341.587301 210.088079 
L 343.401149 208.958294 
L 343.763918 208.523761 
L 344.852227 207.857478 
L 345.214996 207.712634 
L 345.940535 207.249132 
L 347.391613 206.409036 
L 347.754383 206.322129 
L 348.117152 206.032441 
L 350.656539 205.163375 
L 351.019309 204.902655 
L 351.744848 204.670905 
L 354.647004 203.222462 
L 355.372543 202.816898 
L 355.735313 202.643085 
L 356.460852 202.03474 
L 357.186391 201.831958 
L 357.54916 201.484332 
L 357.91193 201.426394 
L 358.637469 200.847017 
L 360.451317 199.717232 
L 361.176856 199.485481 
L 361.539625 199.25373 
L 361.902395 199.195793 
L 364.079012 198.239821 
L 368.432246 196.849316 
L 369.520555 196.067157 
L 370.246094 195.661593 
L 371.697172 194.937372 
L 372.785481 194.184182 
L 373.51102 194.010369 
L 374.599328 193.315117 
L 377.864254 192.156363 
L 378.589793 191.895643 
L 380.040871 191.576986 
L 380.76641 191.345235 
L 382.580258 190.70792 
L 383.668566 190.360294 
L 384.394106 190.186481 
L 386.570723 189.780917 
L 387.296262 189.636073 
L 388.38457 189.375353 
L 388.74734 189.20154 
L 389.472879 189.056696 
L 390.198418 188.853914 
L 390.923957 188.506288 
L 391.286727 188.361444 
L 391.649496 188.361444 
L 397.091039 186.565375 
L 397.453809 186.159811 
L 399.630426 185.20384 
L 401.081504 184.6824 
L 401.444273 184.450649 
L 402.532582 184.103023 
L 403.98366 183.552615 
L 404.34643 183.233958 
L 405.434738 183.002207 
L 406.160277 182.654581 
L 406.523047 182.191079 
L 410.513512 181.264076 
L 410.876281 181.264076 
L 411.60182 181.032326 
L 414.866746 180.192229 
L 415.592285 180.018416 
L 422.122137 177.845752 
L 422.484906 177.585033 
L 423.210445 177.353282 
L 426.112602 176.310403 
L 426.838141 176.252466 
L 428.289219 175.817933 
L 428.651988 175.586182 
L 429.377527 175.354432 
L 431.554145 174.427428 
L 435.907379 172.805173 
L 439.172305 171.733326 
L 440.623383 170.487665 
L 443.16277 169.35788 
L 445.702156 168.228095 
L 446.427695 168.025313 
L 449.692621 166.374089 
L 450.41816 165.939556 
L 453.683086 164.317301 
L 454.045855 164.027612 
L 455.859703 163.33236 
L 458.39909 162.376388 
L 459.124629 162.289482 
L 459.487398 162.028762 
L 460.938477 161.739073 
L 461.664016 161.420416 
L 463.477863 160.522382 
L 468.193867 158.349718 
L 469.282176 157.973123 
L 469.644945 157.712404 
L 470.370484 157.625497 
L 470.733254 157.364778 
L 471.458793 157.248902 
L 476.174797 155.481803 
L 477.263105 155.221083 
L 478.714184 154.583768 
L 479.439723 154.178204 
L 480.890801 153.396046 
L 481.61634 153.222232 
L 481.979109 152.990482 
L 482.341879 152.903575 
L 484.155727 151.976572 
L 488.87173 150.151535 
L 489.2345 150.093597 
L 490.685578 149.369376 
L 491.411117 149.224532 
L 492.136656 148.789999 
L 493.587734 148.065778 
L 500.117586 145.48755 
L 501.568664 144.212921 
L 502.656973 143.778388 
L 505.196359 142.503759 
L 505.559129 142.243039 
L 506.284668 142.040258 
L 507.010207 141.634694 
L 508.098516 141.373974 
L 513.902828 138.940591 
L 515.716676 138.187401 
L 517.893293 137.376273 
L 519.707141 136.44927 
L 520.43268 136.217519 
L 520.795449 135.869893 
L 521.883758 135.43536 
L 522.246527 135.377423 
L 523.697605 134.68217 
L 524.785914 134.334544 
L 525.874223 133.92898 
L 526.962531 133.610323 
L 527.325301 133.552385 
L 528.05084 133.146821 
L 528.413609 133.001977 
L 528.776379 132.712289 
L 529.864687 132.4226 
L 530.590226 132.132912 
L 531.315766 131.814255 
L 532.766844 131.205909 
L 535.30623 130.568594 
L 536.031769 130.278906 
L 537.482848 129.989217 
L 538.208387 129.844373 
L 539.296695 129.40984 
L 540.385004 129.178089 
L 542.561621 127.845522 
L 543.64993 127.208208 
L 545.826547 126.512956 
L 546.189316 126.223267 
L 549.091473 125.180389 
L 550.179781 124.832762 
L 550.90532 124.427199 
L 551.630859 124.224417 
L 551.993629 124.021635 
L 552.719168 123.87679 
L 554.533015 123.036694 
L 555.258555 122.747005 
L 556.709633 122.167628 
L 557.072402 121.820002 
L 557.435172 121.762065 
L 558.88625 121.153719 
L 560.337328 120.777124 
L 560.700098 120.748155 
L 561.062867 120.574342 
L 561.788406 120.429498 
L 565.053332 119.415588 
L 565.778871 118.836211 
L 567.229949 117.996114 
L 567.592719 117.909208 
L 567.955488 117.706426 
L 568.318258 117.648488 
L 571.583183 116.026233 
L 571.945953 115.707576 
L 573.759801 115.273043 
L 574.848109 114.780572 
L 575.573648 114.577791 
L 575.936418 114.403977 
L 576.299187 114.08532 
L 578.838574 113.158317 
L 579.926883 112.665847 
L 580.289652 112.636878 
L 581.015191 112.347189 
L 582.466269 111.709875 
L 584.642887 111.159467 
L 585.731195 110.666996 
L 588.996121 109.595149 
L 589.72166 109.189585 
L 602.055824 105.365697 
L 602.781363 105.162915 
L 603.869672 104.757351 
L 604.232441 104.757351 
L 605.32075 104.496632 
L 606.046289 104.351788 
L 606.771828 104.149006 
L 607.860137 103.569629 
L 608.948445 103.222003 
L 611.487832 102.352937 
L 612.93891 101.599747 
L 615.478297 100.730682 
L 615.841066 100.412024 
L 616.566605 100.180274 
L 616.929375 99.948523 
L 617.654914 99.861616 
L 620.194301 99.137395 
L 621.282609 98.905644 
L 624.184765 97.862766 
L 628.900769 96.037728 
L 629.626308 95.921853 
L 630.351847 95.777009 
L 630.714617 95.777009 
L 631.802926 95.429383 
L 632.891234 95.081757 
L 635.79339 94.24166 
L 637.244469 93.923003 
L 637.607238 93.691252 
L 638.332777 93.546408 
L 639.783855 93.256719 
L 640.872164 92.73528 
L 641.960472 92.47456 
L 642.686011 92.155903 
L 644.862629 91.373744 
L 645.225398 91.315806 
L 645.950937 91.055087 
L 650.304172 89.925302 
L 652.480789 89.172112 
L 653.206328 89.114174 
L 655.382945 88.563766 
L 656.108484 88.245109 
L 656.471254 88.187171 
L 656.834023 88.013358 
L 657.559562 87.376043 
L 660.824488 86.101414 
L 661.550027 85.985539 
L 664.452183 85.000598 
L 665.540492 84.392252 
L 665.903261 84.305345 
L 666.266031 84.015657 
L 667.35434 83.697 
L 672.795883 81.17671 
L 674.60973 80.539395 
L 674.9725 80.220738 
L 675.335269 80.133831 
L 676.060808 79.67033 
L 677.149117 79.351673 
L 678.600195 78.743327 
L 678.962965 78.714358 
L 680.776812 78.019106 
L 681.502351 77.874261 
L 682.22789 77.352822 
L 682.59066 77.352822 
L 684.041738 76.831383 
L 685.492816 76.541694 
L 686.943894 75.90438 
L 687.306664 75.90438 
L 688.394972 75.527785 
L 689.120511 75.411909 
L 690.20882 74.774595 
L 690.934359 74.398 
L 693.836515 73.355121 
L 694.562054 73.123371 
L 696.375902 72.775744 
L 702.180215 71.008645 
L 702.542984 70.950707 
L 703.268523 70.661019 
L 704.719601 70.342361 
L 707.621758 69.270514 
L 708.347297 69.12567 
L 709.798375 68.86495 
L 710.523914 68.749075 
L 711.974992 68.169698 
L 712.700531 67.966916 
L 713.42607 67.85104 
L 714.877148 67.387539 
L 715.239918 67.387539 
L 715.965457 66.981975 
L 717.779304 66.518473 
L 718.504843 66.257754 
L 719.230382 66.11291 
L 721.407 65.156938 
L 721.769769 65.099 
L 722.495308 64.751374 
L 723.220847 64.432716 
L 723.946386 64.114059 
L 724.671925 63.824371 
L 725.034695 63.621589 
L 725.397465 63.563651 
L 726.123004 63.216025 
L 727.211312 62.752523 
L 729.02516 61.970364 
L 729.387929 61.738614 
L 729.750699 61.651707 
L 730.113468 61.419956 
L 730.476238 61.362019 
L 731.201777 60.898517 
L 733.378394 60.377078 
L 734.103933 59.971514 
L 734.466703 59.913576 
L 735.917781 59.334199 
L 741.359324 57.277411 
L 742.810402 56.929785 
L 744.26148 56.755972 
L 745.349789 56.524221 
L 745.712558 56.466283 
L 746.438097 56.002782 
L 746.800867 55.828969 
L 747.163636 55.8 
L 747.163636 55.8 
" clip-path="url(#p00538952fd)" style="fill: none; stroke: #1f77b4; stroke-width: 1.5; stroke-linecap: square"/>
   </g>
   <g id="line2d_32">
    <path d="M 138.799133 307.8 
L 142.064059 307.713093 
L 144.966215 307.568249 
L 146.417293 307.568249 
L 147.142832 307.452374 
L 155.849301 306.844028 
L 158.751457 306.757122 
L 160.565305 306.699184 
L 165.281309 306.612277 
L 167.095157 306.55434 
L 170.360082 306.467433 
L 171.81116 306.438464 
L 175.438856 306.351558 
L 176.889934 306.206713 
L 178.341012 306.177745 
L 180.517629 306.090838 
L 181.968707 306.061869 
L 183.782555 306.003931 
L 185.233633 305.859087 
L 188.498559 305.772181 
L 189.224098 305.714243 
L 190.675176 305.627336 
L 192.851793 305.54043 
L 194.302871 305.453523 
L 200.832723 305.018991 
L 203.37211 304.932084 
L 204.460418 304.816209 
L 206.274266 304.729302 
L 209.901961 304.52652 
L 213.529657 304.468583 
L 214.980735 304.29477 
L 216.794582 304.207863 
L 220.422278 303.831268 
L 222.598895 303.541579 
L 224.049973 303.483642 
L 226.952129 303.078078 
L 229.128746 303.02014 
L 230.217055 302.904265 
L 231.305364 302.817358 
L 250.169379 301.397885 
L 252.708766 301.310978 
L 254.159844 301.137165 
L 255.973692 301.050259 
L 258.150309 300.963352 
L 259.964156 300.876446 
L 261.415235 300.847477 
L 263.229082 300.789539 
L 263.954621 300.702632 
L 269.033395 300.615726 
L 269.758934 300.528819 
L 274.112168 300.441913 
L 277.377094 300.2681 
L 279.916481 300.181193 
L 281.367559 300.00738 
L 283.906945 299.920474 
L 284.632485 299.804598 
L 286.446332 299.746661 
L 290.074028 299.688723 
L 291.525106 299.543879 
L 292.976184 299.51491 
L 294.064492 299.428003 
L 295.51557 299.283159 
L 299.143266 299.080377 
L 302.770961 298.993471 
L 306.035887 298.819657 
L 307.124195 298.790689 
L 307.849735 298.674813 
L 309.663582 298.616876 
L 310.389121 298.558938 
L 312.202969 298.472031 
L 313.654047 298.443062 
L 316.193434 298.356156 
L 325.625442 297.689872 
L 327.802059 297.602966 
L 329.615906 297.545028 
L 334.69468 297.458122 
L 335.420219 297.371215 
L 340.498992 297.284309 
L 344.126688 297.081527 
L 344.852227 297.052558 
L 345.577766 296.965651 
L 347.391613 296.878745 
L 349.205461 296.820807 
L 351.019309 296.7339 
L 352.833156 296.675963 
L 356.098082 296.589056 
L 358.274699 296.50215 
L 363.353473 296.415243 
L 367.343938 296.183492 
L 368.795016 296.125555 
L 369.883324 296.038648 
L 374.962098 295.951742 
L 377.138715 295.864835 
L 383.668566 295.777928 
L 385.119645 295.74896 
L 389.472879 295.691022 
L 390.198418 295.633084 
L 395.277191 295.546178 
L 396.72827 295.517209 
L 406.160277 295.430302 
L 408.336895 295.343396 
L 423.573215 295.256489 
L 425.387063 295.198552 
L 435.907379 295.111645 
L 439.897844 294.879894 
L 442.074461 294.792988 
L 444.251078 294.706081 
L 447.878773 294.619175 
L 450.41816 294.503299 
L 453.320316 294.416393 
L 456.222473 294.271548 
L 463.115094 294.184642 
L 465.291711 294.097735 
L 469.282176 294.010829 
L 471.821562 293.894953 
L 474.360949 293.837016 
L 475.086488 293.779078 
L 483.792957 293.692172 
L 487.420652 293.48939 
L 489.960039 293.402483 
L 493.950504 293.170732 
L 498.303738 293.083826 
L 499.754816 293.054857 
L 500.480355 292.996919 
L 502.294203 292.794137 
L 505.921898 292.707231 
L 506.647437 292.620324 
L 510.275133 292.533418 
L 512.08898 292.47548 
L 516.079445 292.446511 
L 516.804984 292.359605 
L 520.795449 292.272698 
L 521.520988 292.21476 
L 529.501918 292.127854 
L 531.678535 292.040947 
L 537.120078 291.954041 
L 538.571156 291.925072 
L 541.836082 291.867134 
L 542.561621 291.780228 
L 547.277625 291.693321 
L 549.091473 291.635383 
L 555.621324 291.548477 
L 556.709633 291.46157 
L 557.797941 291.374664 
L 558.88625 291.287757 
L 564.327793 291.200851 
L 566.50441 291.113944 
L 577.024726 291.027038 
L 580.289652 290.853225 
L 585.368426 290.766318 
L 586.819504 290.737349 
L 591.172738 290.650443 
L 592.986586 290.592505 
L 601.330285 290.505598 
L 603.506902 290.418692 
L 609.673984 290.331785 
L 611.125062 290.302816 
L 614.752758 290.21591 
L 617.292144 290.100034 
L 621.282609 290.013128 
L 623.821996 289.897253 
L 627.086922 289.839315 
L 627.812461 289.781377 
L 635.79339 289.694471 
L 637.970008 289.607564 
L 640.509394 289.520658 
L 642.323242 289.46272 
L 652.843558 289.375813 
L 655.020176 289.288907 
L 661.187258 289.202 
L 663.001105 289.144063 
L 667.717109 289.057156 
L 669.893726 288.970249 
L 672.795883 288.883343 
L 674.9725 288.796436 
L 689.483281 288.70953 
L 692.385437 288.564686 
L 700.729136 288.477779 
L 702.180215 288.44881 
L 710.886683 288.361904 
L 712.700531 288.303966 
L 724.309156 288.217059 
L 725.760234 288.188091 
L 736.64332 288.101184 
L 737.368859 288.043246 
L 746.438097 287.95634 
L 747.163636 287.898402 
L 747.163636 287.898402 
" clip-path="url(#p00538952fd)" style="fill: none; stroke: #ff7f0e; stroke-width: 1.5; stroke-linecap: square"/>
   </g>
   <g id="patch_3">
    <path d="M 108 320.4 
L 108 43.2 
" style="fill: none; stroke: #a9a9a9; stroke-width: 0.8; stroke-linejoin: miter; stroke-linecap: square"/>
   </g>
   <g id="patch_4">
    <path d="M 777.6 320.4 
L 777.6 43.2 
" style="fill: none"/>
   </g>
   <g id="patch_5">
    <path d="M 108 320.4 
L 777.6 320.4 
" style="fill: none; stroke: #a9a9a9; stroke-width: 0.8; stroke-linejoin: miter; stroke-linecap: square"/>
   </g>
   <g id="patch_6">
    <path d="M 108 43.2 
L 777.6 43.2 
" style="fill: none"/>
   </g>
   <g id="text_16">
    <!-- get_subscribe history -->
    <g style="fill: #a9a9a9" transform="translate(378.6075 37.2) scale(0.12 -0.12)">
     <defs>
      <path id="DejaVuSans-67" d="M 2906 1791 
Q 2906 2416 2648 2759 
Q 2391 3103 1925 3103 
Q 1463 3103 1205 2759 
Q 947 2416 947 1791 
Q 947 1169 1205 825 
Q 1463 481 1925 481 
Q 2391 481 2648 825 
Q 2906 1169 2906 1791 
z
M 3481 434 
Q 3481 -459 3084 -895 
Q 2688 -1331 1869 -1331 
Q 1566 -1331 1297 -1286 
Q 1028 -1241 775 -1147 
L 775 -588 
Q 1028 -725 1275 -790 
Q 1522 -856 1778 -856 
Q 2344 -856 2625 -561 
Q 2906 -266 2906 331 
L 2906 616 
Q 2728 306 2450 153 
Q 2172 0 1784 0 
Q 1141 0 747 490 
Q 353 981 353 1791 
Q 353 2603 747 3093 
Q 1141 3584 1784 3584 
Q 2172 3584 2450 3431 
Q 2728 3278 2906 2969 
L 2906 3500 
L 3481 3500 
L 3481 434 
z
" transform="scale(0.015625)"/>
      <path id="DejaVuSans-65" d="M 3597 1894 
L 3597 1613 
L 953 1613 
Q 991 1019 1311 708 
Q 1631 397 2203 397 
Q 2534 397 2845 478 
Q 3156 559 3463 722 
L 3463 178 
Q 3153 47 2828 -22 
Q 2503 -91 2169 -91 
Q 1331 -91 842 396 
Q 353 884 353 1716 
Q 353 2575 817 3079 
Q 1281 3584 2069 3584 
Q 2775 3584 3186 3129 
Q 3597 2675 3597 1894 
z
M 3022 2063 
Q 3016 2534 2758 2815 
Q 2500 3097 2075 3097 
Q 1594 3097 1305 2825 
Q 1016 2553 972 2059 
L 3022 2063 
z
" transform="scale(0.015625)"/>
      <path id="DejaVuSans-74" d="M 1172 4494 
L 1172 3500 
L 2356 3500 
L 2356 3053 
L 1172 3053 
L 1172 1153 
Q 1172 725 1289 603 
Q 1406 481 1766 481 
L 2356 481 
L 2356 0 
L 1766 0 
Q 1100 0 847 248 
Q 594 497 594 1153 
L 594 3053 
L 172 3053 
L 172 3500 
L 594 3500 
L 594 4494 
L 1172 4494 
z
" transform="scale(0.015625)"/>
      <path id="DejaVuSans-5f" d="M 3263 -1063 
L 3263 -1509 
L -63 -1509 
L -63 -1063 
L 3263 -1063 
z
" transform="scale(0.015625)"/>
      <path id="DejaVuSans-73" d="M 2834 3397 
L 2834 2853 
Q 2591 2978 2328 3040 
Q 2066 3103 1784 3103 
Q 1356 3103 1142 2972 
Q 928 2841 928 2578 
Q 928 2378 1081 2264 
Q 1234 2150 1697 2047 
L 1894 2003 
Q 2506 1872 2764 1633 
Q 3022 1394 3022 966 
Q 3022 478 2636 193 
Q 2250 -91 1575 -91 
Q 1294 -91 989 -36 
Q 684 19 347 128 
L 347 722 
Q 666 556 975 473 
Q 1284 391 1588 391 
Q 1994 391 2212 530 
Q 2431 669 2431 922 
Q 2431 1156 2273 1281 
Q 2116 1406 1581 1522 
L 1381 1569 
Q 847 1681 609 1914 
Q 372 2147 372 2553 
Q 372 3047 722 3315 
Q 1072 3584 1716 3584 
Q 2034 3584 2315 3537 
Q 2597 3491 2834 3397 
z
" transform="scale(0.015625)"/>
      <path id="DejaVuSans-75" d="M 544 1381 
L 544 3500 
L 1119 3500 
L 1119 1403 
Q 1119 906 1312 657 
Q 1506 409 1894 409 
Q 2359 409 2629 706 
Q 2900 1003 2900 1516 
L 2900 3500 
L 3475 3500 
L 3475 0 
L 2900 0 
L 2900 538 
Q 2691 219 2414 64 
Q 2138 -91 1772 -91 
Q 1169 -91 856 284 
Q 544 659 544 1381 
z
M 1991 3584 
L 1991 3584 
z
" transform="scale(0.015625)"/>
      <path id="DejaVuSans-62" d="M 3116 1747 
Q 3116 2381 2855 2742 
Q 2594 3103 2138 3103 
Q 1681 3103 1420 2742 
Q 1159 2381 1159 1747 
Q 1159 1113 1420 752 
Q 1681 391 2138 391 
Q 2594 391 2855 752 
Q 3116 1113 3116 1747 
z
M 1159 2969 
Q 1341 3281 1617 3432 
Q 1894 3584 2278 3584 
Q 2916 3584 3314 3078 
Q 3713 2572 3713 1747 
Q 3713 922 3314 415 
Q 2916 -91 2278 -91 
Q 1894 -91 1617 61 
Q 1341 213 1159 525 
L 1159 0 
L 581 0 
L 581 4863 
L 1159 4863 
L 1159 2969 
z
" transform="scale(0.015625)"/>
      <path id="DejaVuSans-63" d="M 3122 3366 
L 3122 2828 
Q 2878 2963 2633 3030 
Q 2388 3097 2138 3097 
Q 1578 3097 1268 2742 
Q 959 2388 959 1747 
Q 959 1106 1268 751 
Q 1578 397 2138 397 
Q 2388 397 2633 464 
Q 2878 531 3122 666 
L 3122 134 
Q 2881 22 2623 -34 
Q 2366 -91 2075 -91 
Q 1284 -91 818 406 
Q 353 903 353 1747 
Q 353 2603 823 3093 
Q 1294 3584 2113 3584 
Q 2378 3584 2631 3529 
Q 2884 3475 3122 3366 
z
" transform="scale(0.015625)"/>
      <path id="DejaVuSans-72" d="M 2631 2963 
Q 2534 3019 2420 3045 
Q 2306 3072 2169 3072 
Q 1681 3072 1420 2755 
Q 1159 2438 1159 1844 
L 1159 0 
L 581 0 
L 581 3500 
L 1159 3500 
L 1159 2956 
Q 1341 3275 1631 3429 
Q 1922 3584 2338 3584 
Q 2397 3584 2469 3576 
Q 2541 3569 2628 3553 
L 2631 2963 
z
" transform="scale(0.015625)"/>
      <path id="DejaVuSans-69" d="M 603 3500 
L 1178 3500 
L 1178 0 
L 603 0 
L 603 3500 
z
M 603 4863 
L 1178 4863 
L 1178 4134 
L 603 4134 
L 603 4863 
z
" transform="scale(0.015625)"/>
      <path id="DejaVuSans-20" transform="scale(0.015625)"/>
      <path id="DejaVuSans-68" d="M 3513 2113 
L 3513 0 
L 2938 0 
L 2938 2094 
Q 2938 2591 2744 2837 
Q 2550 3084 2163 3084 
Q 1697 3084 1428 2787 
Q 1159 2491 1159 1978 
L 1159 0 
L 581 0 
L 581 4863 
L 1159 4863 
L 1159 2956 
Q 1366 3272 1645 3428 
Q 1925 3584 2291 3584 
Q 2894 3584 3203 3211 
Q 3513 2838 3513 2113 
z
" transform="scale(0.015625)"/>
      <path id="DejaVuSans-6f" d="M 1959 3097 
Q 1497 3097 1228 2736 
Q 959 2375 959 1747 
Q 959 1119 1226 758 
Q 1494 397 1959 397 
Q 2419 397 2687 759 
Q 2956 1122 2956 1747 
Q 2956 2369 2687 2733 
Q 2419 3097 1959 3097 
z
M 1959 3584 
Q 2709 3584 3137 3096 
Q 3566 2609 3566 1747 
Q 3566 888 3137 398 
Q 2709 -91 1959 -91 
Q 1206 -91 779 398 
Q 353 888 353 1747 
Q 353 2609 779 3096 
Q 1206 3584 1959 3584 
z
" transform="scale(0.015625)"/>
      <path id="DejaVuSans-79" d="M 2059 -325 
Q 1816 -950 1584 -1140 
Q 1353 -1331 966 -1331 
L 506 -1331 
L 506 -850 
L 844 -850 
Q 1081 -850 1212 -737 
Q 1344 -625 1503 -206 
L 1606 56 
L 191 3500 
L 800 3500 
L 1894 763 
L 2988 3500 
L 3597 3500 
L 2059 -325 
z
" transform="scale(0.015625)"/>
     </defs>
     <use xlink:href="#DejaVuSans-67"/>
     <use xlink:href="#DejaVuSans-65" transform="translate(63.476562 0)"/>
     <use xlink:href="#DejaVuSans-74" transform="translate(125 0)"/>
     <use xlink:href="#DejaVuSans-5f" transform="translate(164.208984 0)"/>
     <use xlink:href="#DejaVuSans-73" transform="translate(214.208984 0)"/>
     <use xlink:href="#DejaVuSans-75" transform="translate(266.308594 0)"/>
     <use xlink:href="#DejaVuSans-62" transform="translate(329.6875 0)"/>
     <use xlink:href="#DejaVuSans-73" transform="translate(393.164062 0)"/>
     <use xlink:href="#DejaVuSans-63" transform="translate(445.263672 0)"/>
     <use xlink:href="#DejaVuSans-72" transform="translate(500.244141 0)"/>
     <use xlink:href="#DejaVuSans-69" transform="translate(541.357422 0)"/>
     <use xlink:href="#DejaVuSans-62" transform="translate(569.140625 0)"/>
     <use xlink:href="#DejaVuSans-65" transform="translate(632.617188 0)"/>
     <use xlink:href="#DejaVuSans-20" transform="translate(694.140625 0)"/>
     <use xlink:href="#DejaVuSans-68" transform="translate(725.927734 0)"/>
     <use xlink:href="#DejaVuSans-69" transform="translate(789.306641 0)"/>
     <use xlink:href="#DejaVuSans-73" transform="translate(817.089844 0)"/>
     <use xlink:href="#DejaVuSans-74" transform="translate(869.189453 0)"/>
     <use xlink:href="#DejaVuSans-6f" transform="translate(908.398438 0)"/>
     <use xlink:href="#DejaVuSans-72" transform="translate(969.580078 0)"/>
     <use xlink:href="#DejaVuSans-79" transform="translate(1010.693359 0)"/>
    </g>
   </g>
   <g id="legend_1">
    <g id="line2d_33">
     <path d="M 815.08 328.498438 
L 825.08 328.498438 
L 835.08 328.498438 
" style="fill: none; stroke: #1f77b4; stroke-width: 1.5; stroke-linecap: square"/>
    </g>
    <g id="text_17">
     <!-- star -->
     <g style="fill: #a9a9a9" transform="translate(843.08 331.998438) scale(0.1 -0.1)">
      <defs>
       <path id="DejaVuSans-61" d="M 2194 1759 
Q 1497 1759 1228 1600 
Q 959 1441 959 1056 
Q 959 750 1161 570 
Q 1363 391 1709 391 
Q 2188 391 2477 730 
Q 2766 1069 2766 1631 
L 2766 1759 
L 2194 1759 
z
M 3341 1997 
L 3341 0 
L 2766 0 
L 2766 531 
Q 2569 213 2275 61 
Q 1981 -91 1556 -91 
Q 1019 -91 701 211 
Q 384 513 384 1019 
Q 384 1609 779 1909 
Q 1175 2209 1959 2209 
L 2766 2209 
L 2766 2266 
Q 2766 2663 2505 2880 
Q 2244 3097 1772 3097 
Q 1472 3097 1187 3025 
Q 903 2953 641 2809 
L 641 3341 
Q 956 3463 1253 3523 
Q 1550 3584 1831 3584 
Q 2591 3584 2966 3190 
Q 3341 2797 3341 1997 
z
" transform="scale(0.015625)"/>
      </defs>
      <use xlink:href="#DejaVuSans-73"/>
      <use xlink:href="#DejaVuSans-74" transform="translate(52.099609 0)"/>
      <use xlink:href="#DejaVuSans-61" transform="translate(91.308594 0)"/>
      <use xlink:href="#DejaVuSans-72" transform="translate(152.587891 0)"/>
     </g>
    </g>
    <g id="line2d_34">
     <path d="M 815.08 343.176562 
L 825.08 343.176562 
L 835.08 343.176562 
" style="fill: none; stroke: #ff7f0e; stroke-width: 1.5; stroke-linecap: square"/>
    </g>
    <g id="text_18">
     <!-- fork -->
     <g style="fill: #a9a9a9" transform="translate(843.08 346.676562) scale(0.1 -0.1)">
      <defs>
       <path id="DejaVuSans-66" d="M 2375 4863 
L 2375 4384 
L 1825 4384 
Q 1516 4384 1395 4259 
Q 1275 4134 1275 3809 
L 1275 3500 
L 2222 3500 
L 2222 3053 
L 1275 3053 
L 1275 0 
L 697 0 
L 697 3053 
L 147 3053 
L 147 3500 
L 697 3500 
L 697 3744 
Q 697 4328 969 4595 
Q 1241 4863 1831 4863 
L 2375 4863 
z
" transform="scale(0.015625)"/>
       <path id="DejaVuSans-6b" d="M 581 4863 
L 1159 4863 
L 1159 1991 
L 2875 3500 
L 3609 3500 
L 1753 1863 
L 3688 0 
L 2938 0 
L 1159 1709 
L 1159 0 
L 581 0 
L 581 4863 
z
" transform="scale(0.015625)"/>
      </defs>
      <use xlink:href="#DejaVuSans-66"/>
      <use xlink:href="#DejaVuSans-6f" transform="translate(35.205078 0)"/>
      <use xlink:href="#DejaVuSans-72" transform="translate(96.386719 0)"/>
      <use xlink:href="#DejaVuSans-6b" transform="translate(137.5 0)"/>
     </g>
    </g>
   </g>
  </g>
 </g>
 <defs>
  <clipPath id="p00538952fd">
   <rect x="108" y="43.2" width="669.6" height="277.2"/>
  </clipPath>
 </defs>
</svg>
