<?xml version="1.0" encoding="utf-8" standalone="no"?>
<!DOCTYPE svg PUBLIC "-//W3C//DTD SVG 1.1//EN"
  "http://www.w3.org/Graphics/SVG/1.1/DTD/svg11.dtd">
<svg xmlns:xlink="http://www.w3.org/1999/xlink" width="864pt" height="360pt" viewBox="0 0 864 360" xmlns="http://www.w3.org/2000/svg" version="1.1">
 <metadata>
  <rdf:RDF xmlns:dc="http://purl.org/dc/elements/1.1/" xmlns:cc="http://creativecommons.org/ns#" xmlns:rdf="http://www.w3.org/1999/02/22-rdf-syntax-ns#">
   <cc:Work>
    <dc:type rdf:resource="http://purl.org/dc/dcmitype/StillImage"/>
    <dc:date>2025-01-18T20:05:10.207867</dc:date>
    <dc:format>image/svg+xml</dc:format>
    <dc:creator>
     <cc:Agent>
      <dc:title>Matplotlib v3.10.0, https://matplotlib.org/</dc:title>
     </cc:Agent>
    </dc:creator>
   </cc:Work>
  </rdf:RDF>
 </metadata>
 <defs>
  <style type="text/css">*{stroke-linejoin: round; stroke-linecap: butt}</style>
 </defs>
 <g id="figure_1">
  <g id="patch_1">
   <path d="M 0 360 
L 864 360 
L 864 0 
L 0 0 
L 0 360 
z
" style="fill: none; opacity: 0"/>
  </g>
  <g id="axes_1">
   <g id="patch_2">
    <path d="M 108 320.4 
L 777.6 320.4 
L 777.6 43.2 
L 108 43.2 
L 108 320.4 
z
" style="fill: none; opacity: 0"/>
   </g>
   <g id="matplotlib.axis_1">
    <g id="xtick_1">
     <g id="line2d_1">
      <path d="M 127.446782 320.4 
L 127.446782 43.2 
" clip-path="url(#p2a2cae0d55)" style="fill: none; stroke-dasharray: 5.12,1.28,0.8,1.28; stroke-dashoffset: 0; stroke: #b0b0b0; stroke-width: 0.8"/>
     </g>
     <g id="line2d_2">
      <defs>
       <path id="maa000dde4e" d="M 0 0 
L 0 3.5 
" style="stroke: #a9a9a9; stroke-width: 0.8"/>
      </defs>
      <g>
       <use xlink:href="#maa000dde4e" x="127.446782" y="320.4" style="fill: #a9a9a9; stroke: #a9a9a9; stroke-width: 0.8"/>
      </g>
     </g>
     <g id="text_1">
      <!-- 2021-07 -->
      <g style="fill: #a9a9a9" transform="translate(106.555376 334.998438) scale(0.1 -0.1)">
       <defs>
        <path id="DejaVuSans-32" d="M 1228 531 
L 3431 531 
L 3431 0 
L 469 0 
L 469 531 
Q 828 903 1448 1529 
Q 2069 2156 2228 2338 
Q 2531 2678 2651 2914 
Q 2772 3150 2772 3378 
Q 2772 3750 2511 3984 
Q 2250 4219 1831 4219 
Q 1534 4219 1204 4116 
Q 875 4013 500 3803 
L 500 4441 
Q 881 4594 1212 4672 
Q 1544 4750 1819 4750 
Q 2544 4750 2975 4387 
Q 3406 4025 3406 3419 
Q 3406 3131 3298 2873 
Q 3191 2616 2906 2266 
Q 2828 2175 2409 1742 
Q 1991 1309 1228 531 
z
" transform="scale(0.015625)"/>
        <path id="DejaVuSans-30" d="M 2034 4250 
Q 1547 4250 1301 3770 
Q 1056 3291 1056 2328 
Q 1056 1369 1301 889 
Q 1547 409 2034 409 
Q 2525 409 2770 889 
Q 3016 1369 3016 2328 
Q 3016 3291 2770 3770 
Q 2525 4250 2034 4250 
z
M 2034 4750 
Q 2819 4750 3233 4129 
Q 3647 3509 3647 2328 
Q 3647 1150 3233 529 
Q 2819 -91 2034 -91 
Q 1250 -91 836 529 
Q 422 1150 422 2328 
Q 422 3509 836 4129 
Q 1250 4750 2034 4750 
z
" transform="scale(0.015625)"/>
        <path id="DejaVuSans-31" d="M 794 531 
L 1825 531 
L 1825 4091 
L 703 3866 
L 703 4441 
L 1819 4666 
L 2450 4666 
L 2450 531 
L 3481 531 
L 3481 0 
L 794 0 
L 794 531 
z
" transform="scale(0.015625)"/>
        <path id="DejaVuSans-2d" d="M 313 2009 
L 1997 2009 
L 1997 1497 
L 313 1497 
L 313 2009 
z
" transform="scale(0.015625)"/>
        <path id="DejaVuSans-37" d="M 525 4666 
L 3525 4666 
L 3525 4397 
L 1831 0 
L 1172 0 
L 2766 4134 
L 525 4134 
L 525 4666 
z
" transform="scale(0.015625)"/>
       </defs>
       <use xlink:href="#DejaVuSans-32"/>
       <use xlink:href="#DejaVuSans-30" transform="translate(63.623047 0)"/>
       <use xlink:href="#DejaVuSans-32" transform="translate(127.246094 0)"/>
       <use xlink:href="#DejaVuSans-31" transform="translate(190.869141 0)"/>
       <use xlink:href="#DejaVuSans-2d" transform="translate(254.492188 0)"/>
       <use xlink:href="#DejaVuSans-30" transform="translate(290.576172 0)"/>
       <use xlink:href="#DejaVuSans-37" transform="translate(354.199219 0)"/>
      </g>
     </g>
    </g>
    <g id="xtick_2">
     <g id="line2d_3">
      <path d="M 215.363437 320.4 
L 215.363437 43.2 
" clip-path="url(#p2a2cae0d55)" style="fill: none; stroke-dasharray: 5.12,1.28,0.8,1.28; stroke-dashoffset: 0; stroke: #b0b0b0; stroke-width: 0.8"/>
     </g>
     <g id="line2d_4">
      <g>
       <use xlink:href="#maa000dde4e" x="215.363437" y="320.4" style="fill: #a9a9a9; stroke: #a9a9a9; stroke-width: 0.8"/>
      </g>
     </g>
     <g id="text_2">
      <!-- 2022-01 -->
      <g style="fill: #a9a9a9" transform="translate(194.47203 334.998438) scale(0.1 -0.1)">
       <use xlink:href="#DejaVuSans-32"/>
       <use xlink:href="#DejaVuSans-30" transform="translate(63.623047 0)"/>
       <use xlink:href="#DejaVuSans-32" transform="translate(127.246094 0)"/>
       <use xlink:href="#DejaVuSans-32" transform="translate(190.869141 0)"/>
       <use xlink:href="#DejaVuSans-2d" transform="translate(254.492188 0)"/>
       <use xlink:href="#DejaVuSans-30" transform="translate(290.576172 0)"/>
       <use xlink:href="#DejaVuSans-31" transform="translate(354.199219 0)"/>
      </g>
     </g>
    </g>
    <g id="xtick_3">
     <g id="line2d_5">
      <path d="M 301.846668 320.4 
L 301.846668 43.2 
" clip-path="url(#p2a2cae0d55)" style="fill: none; stroke-dasharray: 5.12,1.28,0.8,1.28; stroke-dashoffset: 0; stroke: #b0b0b0; stroke-width: 0.8"/>
     </g>
     <g id="line2d_6">
      <g>
       <use xlink:href="#maa000dde4e" x="301.846668" y="320.4" style="fill: #a9a9a9; stroke: #a9a9a9; stroke-width: 0.8"/>
      </g>
     </g>
     <g id="text_3">
      <!-- 2022-07 -->
      <g style="fill: #a9a9a9" transform="translate(280.955261 334.998438) scale(0.1 -0.1)">
       <use xlink:href="#DejaVuSans-32"/>
       <use xlink:href="#DejaVuSans-30" transform="translate(63.623047 0)"/>
       <use xlink:href="#DejaVuSans-32" transform="translate(127.246094 0)"/>
       <use xlink:href="#DejaVuSans-32" transform="translate(190.869141 0)"/>
       <use xlink:href="#DejaVuSans-2d" transform="translate(254.492188 0)"/>
       <use xlink:href="#DejaVuSans-30" transform="translate(290.576172 0)"/>
       <use xlink:href="#DejaVuSans-37" transform="translate(354.199219 0)"/>
      </g>
     </g>
    </g>
    <g id="xtick_4">
     <g id="line2d_7">
      <path d="M 389.763322 320.4 
L 389.763322 43.2 
" clip-path="url(#p2a2cae0d55)" style="fill: none; stroke-dasharray: 5.12,1.28,0.8,1.28; stroke-dashoffset: 0; stroke: #b0b0b0; stroke-width: 0.8"/>
     </g>
     <g id="line2d_8">
      <g>
       <use xlink:href="#maa000dde4e" x="389.763322" y="320.4" style="fill: #a9a9a9; stroke: #a9a9a9; stroke-width: 0.8"/>
      </g>
     </g>
     <g id="text_4">
      <!-- 2023-01 -->
      <g style="fill: #a9a9a9" transform="translate(368.871916 334.998438) scale(0.1 -0.1)">
       <defs>
        <path id="DejaVuSans-33" d="M 2597 2516 
Q 3050 2419 3304 2112 
Q 3559 1806 3559 1356 
Q 3559 666 3084 287 
Q 2609 -91 1734 -91 
Q 1441 -91 1130 -33 
Q 819 25 488 141 
L 488 750 
Q 750 597 1062 519 
Q 1375 441 1716 441 
Q 2309 441 2620 675 
Q 2931 909 2931 1356 
Q 2931 1769 2642 2001 
Q 2353 2234 1838 2234 
L 1294 2234 
L 1294 2753 
L 1863 2753 
Q 2328 2753 2575 2939 
Q 2822 3125 2822 3475 
Q 2822 3834 2567 4026 
Q 2313 4219 1838 4219 
Q 1578 4219 1281 4162 
Q 984 4106 628 3988 
L 628 4550 
Q 988 4650 1302 4700 
Q 1616 4750 1894 4750 
Q 2613 4750 3031 4423 
Q 3450 4097 3450 3541 
Q 3450 3153 3228 2886 
Q 3006 2619 2597 2516 
z
" transform="scale(0.015625)"/>
       </defs>
       <use xlink:href="#DejaVuSans-32"/>
       <use xlink:href="#DejaVuSans-30" transform="translate(63.623047 0)"/>
       <use xlink:href="#DejaVuSans-32" transform="translate(127.246094 0)"/>
       <use xlink:href="#DejaVuSans-33" transform="translate(190.869141 0)"/>
       <use xlink:href="#DejaVuSans-2d" transform="translate(254.492188 0)"/>
       <use xlink:href="#DejaVuSans-30" transform="translate(290.576172 0)"/>
       <use xlink:href="#DejaVuSans-31" transform="translate(354.199219 0)"/>
      </g>
     </g>
    </g>
    <g id="xtick_5">
     <g id="line2d_9">
      <path d="M 476.246553 320.4 
L 476.246553 43.2 
" clip-path="url(#p2a2cae0d55)" style="fill: none; stroke-dasharray: 5.12,1.28,0.8,1.28; stroke-dashoffset: 0; stroke: #b0b0b0; stroke-width: 0.8"/>
     </g>
     <g id="line2d_10">
      <g>
       <use xlink:href="#maa000dde4e" x="476.246553" y="320.4" style="fill: #a9a9a9; stroke: #a9a9a9; stroke-width: 0.8"/>
      </g>
     </g>
     <g id="text_5">
      <!-- 2023-07 -->
      <g style="fill: #a9a9a9" transform="translate(455.355147 334.998438) scale(0.1 -0.1)">
       <use xlink:href="#DejaVuSans-32"/>
       <use xlink:href="#DejaVuSans-30" transform="translate(63.623047 0)"/>
       <use xlink:href="#DejaVuSans-32" transform="translate(127.246094 0)"/>
       <use xlink:href="#DejaVuSans-33" transform="translate(190.869141 0)"/>
       <use xlink:href="#DejaVuSans-2d" transform="translate(254.492188 0)"/>
       <use xlink:href="#DejaVuSans-30" transform="translate(290.576172 0)"/>
       <use xlink:href="#DejaVuSans-37" transform="translate(354.199219 0)"/>
      </g>
     </g>
    </g>
    <g id="xtick_6">
     <g id="line2d_11">
      <path d="M 564.163208 320.4 
L 564.163208 43.2 
" clip-path="url(#p2a2cae0d55)" style="fill: none; stroke-dasharray: 5.12,1.28,0.8,1.28; stroke-dashoffset: 0; stroke: #b0b0b0; stroke-width: 0.8"/>
     </g>
     <g id="line2d_12">
      <g>
       <use xlink:href="#maa000dde4e" x="564.163208" y="320.4" style="fill: #a9a9a9; stroke: #a9a9a9; stroke-width: 0.8"/>
      </g>
     </g>
     <g id="text_6">
      <!-- 2024-01 -->
      <g style="fill: #a9a9a9" transform="translate(543.271802 334.998438) scale(0.1 -0.1)">
       <defs>
        <path id="DejaVuSans-34" d="M 2419 4116 
L 825 1625 
L 2419 1625 
L 2419 4116 
z
M 2253 4666 
L 3047 4666 
L 3047 1625 
L 3713 1625 
L 3713 1100 
L 3047 1100 
L 3047 0 
L 2419 0 
L 2419 1100 
L 313 1100 
L 313 1709 
L 2253 4666 
z
" transform="scale(0.015625)"/>
       </defs>
       <use xlink:href="#DejaVuSans-32"/>
       <use xlink:href="#DejaVuSans-30" transform="translate(63.623047 0)"/>
       <use xlink:href="#DejaVuSans-32" transform="translate(127.246094 0)"/>
       <use xlink:href="#DejaVuSans-34" transform="translate(190.869141 0)"/>
       <use xlink:href="#DejaVuSans-2d" transform="translate(254.492188 0)"/>
       <use xlink:href="#DejaVuSans-30" transform="translate(290.576172 0)"/>
       <use xlink:href="#DejaVuSans-31" transform="translate(354.199219 0)"/>
      </g>
     </g>
    </g>
    <g id="xtick_7">
     <g id="line2d_13">
      <path d="M 651.124247 320.4 
L 651.124247 43.2 
" clip-path="url(#p2a2cae0d55)" style="fill: none; stroke-dasharray: 5.12,1.28,0.8,1.28; stroke-dashoffset: 0; stroke: #b0b0b0; stroke-width: 0.8"/>
     </g>
     <g id="line2d_14">
      <g>
       <use xlink:href="#maa000dde4e" x="651.124247" y="320.4" style="fill: #a9a9a9; stroke: #a9a9a9; stroke-width: 0.8"/>
      </g>
     </g>
     <g id="text_7">
      <!-- 2024-07 -->
      <g style="fill: #a9a9a9" transform="translate(630.232841 334.998438) scale(0.1 -0.1)">
       <use xlink:href="#DejaVuSans-32"/>
       <use xlink:href="#DejaVuSans-30" transform="translate(63.623047 0)"/>
       <use xlink:href="#DejaVuSans-32" transform="translate(127.246094 0)"/>
       <use xlink:href="#DejaVuSans-34" transform="translate(190.869141 0)"/>
       <use xlink:href="#DejaVuSans-2d" transform="translate(254.492188 0)"/>
       <use xlink:href="#DejaVuSans-30" transform="translate(290.576172 0)"/>
       <use xlink:href="#DejaVuSans-37" transform="translate(354.199219 0)"/>
      </g>
     </g>
    </g>
    <g id="xtick_8">
     <g id="line2d_15">
      <path d="M 739.040902 320.4 
L 739.040902 43.2 
" clip-path="url(#p2a2cae0d55)" style="fill: none; stroke-dasharray: 5.12,1.28,0.8,1.28; stroke-dashoffset: 0; stroke: #b0b0b0; stroke-width: 0.8"/>
     </g>
     <g id="line2d_16">
      <g>
       <use xlink:href="#maa000dde4e" x="739.040902" y="320.4" style="fill: #a9a9a9; stroke: #a9a9a9; stroke-width: 0.8"/>
      </g>
     </g>
     <g id="text_8">
      <!-- 2025-01 -->
      <g style="fill: #a9a9a9" transform="translate(718.149496 334.998438) scale(0.1 -0.1)">
       <defs>
        <path id="DejaVuSans-35" d="M 691 4666 
L 3169 4666 
L 3169 4134 
L 1269 4134 
L 1269 2991 
Q 1406 3038 1543 3061 
Q 1681 3084 1819 3084 
Q 2600 3084 3056 2656 
Q 3513 2228 3513 1497 
Q 3513 744 3044 326 
Q 2575 -91 1722 -91 
Q 1428 -91 1123 -41 
Q 819 9 494 109 
L 494 744 
Q 775 591 1075 516 
Q 1375 441 1709 441 
Q 2250 441 2565 725 
Q 2881 1009 2881 1497 
Q 2881 1984 2565 2268 
Q 2250 2553 1709 2553 
Q 1456 2553 1204 2497 
Q 953 2441 691 2322 
L 691 4666 
z
" transform="scale(0.015625)"/>
       </defs>
       <use xlink:href="#DejaVuSans-32"/>
       <use xlink:href="#DejaVuSans-30" transform="translate(63.623047 0)"/>
       <use xlink:href="#DejaVuSans-32" transform="translate(127.246094 0)"/>
       <use xlink:href="#DejaVuSans-35" transform="translate(190.869141 0)"/>
       <use xlink:href="#DejaVuSans-2d" transform="translate(254.492188 0)"/>
       <use xlink:href="#DejaVuSans-30" transform="translate(290.576172 0)"/>
       <use xlink:href="#DejaVuSans-31" transform="translate(354.199219 0)"/>
      </g>
     </g>
    </g>
   </g>
   <g id="matplotlib.axis_2">
    <g id="ytick_1">
     <g id="line2d_17">
      <path d="M 108 307.834918 
L 777.6 307.834918 
" clip-path="url(#p2a2cae0d55)" style="fill: none; stroke-dasharray: 5.12,1.28,0.8,1.28; stroke-dashoffset: 0; stroke: #b0b0b0; stroke-width: 0.8"/>
     </g>
     <g id="line2d_18">
      <defs>
       <path id="m362c47e4c0" d="M 0 0 
L -3.5 0 
" style="stroke: #a9a9a9; stroke-width: 0.8"/>
      </defs>
      <g>
       <use xlink:href="#m362c47e4c0" x="108" y="307.834918" style="fill: #a9a9a9; stroke: #a9a9a9; stroke-width: 0.8"/>
      </g>
     </g>
     <g id="text_9">
      <!-- 0 -->
      <g style="fill: #a9a9a9" transform="translate(94.6375 311.634136) scale(0.1 -0.1)">
       <use xlink:href="#DejaVuSans-30"/>
      </g>
     </g>
    </g>
    <g id="ytick_2">
     <g id="line2d_19">
      <path d="M 108 279.900873 
L 777.6 279.900873 
" clip-path="url(#p2a2cae0d55)" style="fill: none; stroke-dasharray: 5.12,1.28,0.8,1.28; stroke-dashoffset: 0; stroke: #b0b0b0; stroke-width: 0.8"/>
     </g>
     <g id="line2d_20">
      <g>
       <use xlink:href="#m362c47e4c0" x="108" y="279.900873" style="fill: #a9a9a9; stroke: #a9a9a9; stroke-width: 0.8"/>
      </g>
     </g>
     <g id="text_10">
      <!-- 800 -->
      <g style="fill: #a9a9a9" transform="translate(81.9125 283.700092) scale(0.1 -0.1)">
       <defs>
        <path id="DejaVuSans-38" d="M 2034 2216 
Q 1584 2216 1326 1975 
Q 1069 1734 1069 1313 
Q 1069 891 1326 650 
Q 1584 409 2034 409 
Q 2484 409 2743 651 
Q 3003 894 3003 1313 
Q 3003 1734 2745 1975 
Q 2488 2216 2034 2216 
z
M 1403 2484 
Q 997 2584 770 2862 
Q 544 3141 544 3541 
Q 544 4100 942 4425 
Q 1341 4750 2034 4750 
Q 2731 4750 3128 4425 
Q 3525 4100 3525 3541 
Q 3525 3141 3298 2862 
Q 3072 2584 2669 2484 
Q 3125 2378 3379 2068 
Q 3634 1759 3634 1313 
Q 3634 634 3220 271 
Q 2806 -91 2034 -91 
Q 1263 -91 848 271 
Q 434 634 434 1313 
Q 434 1759 690 2068 
Q 947 2378 1403 2484 
z
M 1172 3481 
Q 1172 3119 1398 2916 
Q 1625 2713 2034 2713 
Q 2441 2713 2670 2916 
Q 2900 3119 2900 3481 
Q 2900 3844 2670 4047 
Q 2441 4250 2034 4250 
Q 1625 4250 1398 4047 
Q 1172 3844 1172 3481 
z
" transform="scale(0.015625)"/>
       </defs>
       <use xlink:href="#DejaVuSans-38"/>
       <use xlink:href="#DejaVuSans-30" transform="translate(63.623047 0)"/>
       <use xlink:href="#DejaVuSans-30" transform="translate(127.246094 0)"/>
      </g>
     </g>
    </g>
    <g id="ytick_3">
     <g id="line2d_21">
      <path d="M 108 251.966828 
L 777.6 251.966828 
" clip-path="url(#p2a2cae0d55)" style="fill: none; stroke-dasharray: 5.12,1.28,0.8,1.28; stroke-dashoffset: 0; stroke: #b0b0b0; stroke-width: 0.8"/>
     </g>
     <g id="line2d_22">
      <g>
       <use xlink:href="#m362c47e4c0" x="108" y="251.966828" style="fill: #a9a9a9; stroke: #a9a9a9; stroke-width: 0.8"/>
      </g>
     </g>
     <g id="text_11">
      <!-- 1600 -->
      <g style="fill: #a9a9a9" transform="translate(75.55 255.766047) scale(0.1 -0.1)">
       <defs>
        <path id="DejaVuSans-36" d="M 2113 2584 
Q 1688 2584 1439 2293 
Q 1191 2003 1191 1497 
Q 1191 994 1439 701 
Q 1688 409 2113 409 
Q 2538 409 2786 701 
Q 3034 994 3034 1497 
Q 3034 2003 2786 2293 
Q 2538 2584 2113 2584 
z
M 3366 4563 
L 3366 3988 
Q 3128 4100 2886 4159 
Q 2644 4219 2406 4219 
Q 1781 4219 1451 3797 
Q 1122 3375 1075 2522 
Q 1259 2794 1537 2939 
Q 1816 3084 2150 3084 
Q 2853 3084 3261 2657 
Q 3669 2231 3669 1497 
Q 3669 778 3244 343 
Q 2819 -91 2113 -91 
Q 1303 -91 875 529 
Q 447 1150 447 2328 
Q 447 3434 972 4092 
Q 1497 4750 2381 4750 
Q 2619 4750 2861 4703 
Q 3103 4656 3366 4563 
z
" transform="scale(0.015625)"/>
       </defs>
       <use xlink:href="#DejaVuSans-31"/>
       <use xlink:href="#DejaVuSans-36" transform="translate(63.623047 0)"/>
       <use xlink:href="#DejaVuSans-30" transform="translate(127.246094 0)"/>
       <use xlink:href="#DejaVuSans-30" transform="translate(190.869141 0)"/>
      </g>
     </g>
    </g>
    <g id="ytick_4">
     <g id="line2d_23">
      <path d="M 108 224.032784 
L 777.6 224.032784 
" clip-path="url(#p2a2cae0d55)" style="fill: none; stroke-dasharray: 5.12,1.28,0.8,1.28; stroke-dashoffset: 0; stroke: #b0b0b0; stroke-width: 0.8"/>
     </g>
     <g id="line2d_24">
      <g>
       <use xlink:href="#m362c47e4c0" x="108" y="224.032784" style="fill: #a9a9a9; stroke: #a9a9a9; stroke-width: 0.8"/>
      </g>
     </g>
     <g id="text_12">
      <!-- 2400 -->
      <g style="fill: #a9a9a9" transform="translate(75.55 227.832002) scale(0.1 -0.1)">
       <use xlink:href="#DejaVuSans-32"/>
       <use xlink:href="#DejaVuSans-34" transform="translate(63.623047 0)"/>
       <use xlink:href="#DejaVuSans-30" transform="translate(127.246094 0)"/>
       <use xlink:href="#DejaVuSans-30" transform="translate(190.869141 0)"/>
      </g>
     </g>
    </g>
    <g id="ytick_5">
     <g id="line2d_25">
      <path d="M 108 196.098739 
L 777.6 196.098739 
" clip-path="url(#p2a2cae0d55)" style="fill: none; stroke-dasharray: 5.12,1.28,0.8,1.28; stroke-dashoffset: 0; stroke: #b0b0b0; stroke-width: 0.8"/>
     </g>
     <g id="line2d_26">
      <g>
       <use xlink:href="#m362c47e4c0" x="108" y="196.098739" style="fill: #a9a9a9; stroke: #a9a9a9; stroke-width: 0.8"/>
      </g>
     </g>
     <g id="text_13">
      <!-- 3200 -->
      <g style="fill: #a9a9a9" transform="translate(75.55 199.897958) scale(0.1 -0.1)">
       <use xlink:href="#DejaVuSans-33"/>
       <use xlink:href="#DejaVuSans-32" transform="translate(63.623047 0)"/>
       <use xlink:href="#DejaVuSans-30" transform="translate(127.246094 0)"/>
       <use xlink:href="#DejaVuSans-30" transform="translate(190.869141 0)"/>
      </g>
     </g>
    </g>
    <g id="ytick_6">
     <g id="line2d_27">
      <path d="M 108 168.164694 
L 777.6 168.164694 
" clip-path="url(#p2a2cae0d55)" style="fill: none; stroke-dasharray: 5.12,1.28,0.8,1.28; stroke-dashoffset: 0; stroke: #b0b0b0; stroke-width: 0.8"/>
     </g>
     <g id="line2d_28">
      <g>
       <use xlink:href="#m362c47e4c0" x="108" y="168.164694" style="fill: #a9a9a9; stroke: #a9a9a9; stroke-width: 0.8"/>
      </g>
     </g>
     <g id="text_14">
      <!-- 4000 -->
      <g style="fill: #a9a9a9" transform="translate(75.55 171.963913) scale(0.1 -0.1)">
       <use xlink:href="#DejaVuSans-34"/>
       <use xlink:href="#DejaVuSans-30" transform="translate(63.623047 0)"/>
       <use xlink:href="#DejaVuSans-30" transform="translate(127.246094 0)"/>
       <use xlink:href="#DejaVuSans-30" transform="translate(190.869141 0)"/>
      </g>
     </g>
    </g>
    <g id="ytick_7">
     <g id="line2d_29">
      <path d="M 108 140.23065 
L 777.6 140.23065 
" clip-path="url(#p2a2cae0d55)" style="fill: none; stroke-dasharray: 5.12,1.28,0.8,1.28; stroke-dashoffset: 0; stroke: #b0b0b0; stroke-width: 0.8"/>
     </g>
     <g id="line2d_30">
      <g>
       <use xlink:href="#m362c47e4c0" x="108" y="140.23065" style="fill: #a9a9a9; stroke: #a9a9a9; stroke-width: 0.8"/>
      </g>
     </g>
     <g id="text_15">
      <!-- 4800 -->
      <g style="fill: #a9a9a9" transform="translate(75.55 144.029869) scale(0.1 -0.1)">
       <use xlink:href="#DejaVuSans-34"/>
       <use xlink:href="#DejaVuSans-38" transform="translate(63.623047 0)"/>
       <use xlink:href="#DejaVuSans-30" transform="translate(127.246094 0)"/>
       <use xlink:href="#DejaVuSans-30" transform="translate(190.869141 0)"/>
      </g>
     </g>
    </g>
    <g id="ytick_8">
     <g id="line2d_31">
      <path d="M 108 112.296605 
L 777.6 112.296605 
" clip-path="url(#p2a2cae0d55)" style="fill: none; stroke-dasharray: 5.12,1.28,0.8,1.28; stroke-dashoffset: 0; stroke: #b0b0b0; stroke-width: 0.8"/>
     </g>
     <g id="line2d_32">
      <g>
       <use xlink:href="#m362c47e4c0" x="108" y="112.296605" style="fill: #a9a9a9; stroke: #a9a9a9; stroke-width: 0.8"/>
      </g>
     </g>
     <g id="text_16">
      <!-- 5600 -->
      <g style="fill: #a9a9a9" transform="translate(75.55 116.095824) scale(0.1 -0.1)">
       <use xlink:href="#DejaVuSans-35"/>
       <use xlink:href="#DejaVuSans-36" transform="translate(63.623047 0)"/>
       <use xlink:href="#DejaVuSans-30" transform="translate(127.246094 0)"/>
       <use xlink:href="#DejaVuSans-30" transform="translate(190.869141 0)"/>
      </g>
     </g>
    </g>
    <g id="ytick_9">
     <g id="line2d_33">
      <path d="M 108 84.362561 
L 777.6 84.362561 
" clip-path="url(#p2a2cae0d55)" style="fill: none; stroke-dasharray: 5.12,1.28,0.8,1.28; stroke-dashoffset: 0; stroke: #b0b0b0; stroke-width: 0.8"/>
     </g>
     <g id="line2d_34">
      <g>
       <use xlink:href="#m362c47e4c0" x="108" y="84.362561" style="fill: #a9a9a9; stroke: #a9a9a9; stroke-width: 0.8"/>
      </g>
     </g>
     <g id="text_17">
      <!-- 6400 -->
      <g style="fill: #a9a9a9" transform="translate(75.55 88.161779) scale(0.1 -0.1)">
       <use xlink:href="#DejaVuSans-36"/>
       <use xlink:href="#DejaVuSans-34" transform="translate(63.623047 0)"/>
       <use xlink:href="#DejaVuSans-30" transform="translate(127.246094 0)"/>
       <use xlink:href="#DejaVuSans-30" transform="translate(190.869141 0)"/>
      </g>
     </g>
    </g>
    <g id="ytick_10">
     <g id="line2d_35">
      <path d="M 108 56.428516 
L 777.6 56.428516 
" clip-path="url(#p2a2cae0d55)" style="fill: none; stroke-dasharray: 5.12,1.28,0.8,1.28; stroke-dashoffset: 0; stroke: #b0b0b0; stroke-width: 0.8"/>
     </g>
     <g id="line2d_36">
      <g>
       <use xlink:href="#m362c47e4c0" x="108" y="56.428516" style="fill: #a9a9a9; stroke: #a9a9a9; stroke-width: 0.8"/>
      </g>
     </g>
     <g id="text_18">
      <!-- 7200 -->
      <g style="fill: #a9a9a9" transform="translate(75.55 60.227735) scale(0.1 -0.1)">
       <use xlink:href="#DejaVuSans-37"/>
       <use xlink:href="#DejaVuSans-32" transform="translate(63.623047 0)"/>
       <use xlink:href="#DejaVuSans-30" transform="translate(127.246094 0)"/>
       <use xlink:href="#DejaVuSans-30" transform="translate(190.869141 0)"/>
      </g>
     </g>
    </g>
   </g>
   <g id="line2d_37">
    <path d="M 138.436364 307.730165 
L 141.303211 307.485742 
L 141.781019 307.276237 
L 143.692251 307.031814 
L 145.603482 306.647721 
L 146.559098 306.50805 
L 148.948138 306.298545 
L 149.903753 305.914452 
L 150.381561 305.285936 
L 150.859369 304.971678 
L 151.337177 303.889234 
L 151.814985 303.819399 
L 152.292793 303.435306 
L 153.248409 302.94646 
L 155.15964 301.410087 
L 157.070872 300.467313 
L 158.504296 299.80388 
L 158.982104 299.035694 
L 159.937719 298.337342 
L 160.415527 298.127837 
L 165.193606 297.429486 
L 165.671414 297.219981 
L 169.01607 296.94064 
L 170.927301 296.486712 
L 174.749765 295.962949 
L 175.227572 295.718526 
L 175.70538 295.648691 
L 176.660996 295.334433 
L 180.005651 294.775752 
L 180.961267 294.496411 
L 185.261538 293.763143 
L 186.217154 293.553637 
L 187.17277 293.51872 
L 189.084002 293.064791 
L 189.56181 292.401358 
L 190.995233 291.842677 
L 192.428657 291.458584 
L 192.906465 291.214161 
L 193.862081 291.039573 
L 195.773312 290.480892 
L 196.728928 290.411057 
L 197.684544 290.166634 
L 199.595776 289.677789 
L 200.073584 289.642871 
L 201.029199 289.188943 
L 201.507007 289.119108 
L 201.984815 288.874685 
L 207.240702 288.001746 
L 209.151934 287.443065 
L 209.629742 287.128807 
L 212.018781 286.325703 
L 212.974397 285.66227 
L 214.407821 285.382929 
L 226.830826 281.856256 
L 227.308634 281.856256 
L 227.786442 281.646751 
L 228.742058 281.541998 
L 229.219866 281.36741 
L 231.131097 281.297575 
L 232.086713 281.122987 
L 233.042329 280.634142 
L 234.475753 280.110378 
L 234.953561 279.79612 
L 235.909177 279.37711 
L 236.386984 279.132687 
L 237.3426 278.818429 
L 237.820408 278.678758 
L 238.776024 278.08516 
L 239.253832 277.561397 
L 240.209448 276.094859 
L 240.687256 275.955189 
L 241.165064 275.955189 
L 242.598487 275.117168 
L 243.076295 274.872745 
L 243.554103 274.767992 
L 244.031911 274.314064 
L 244.987527 273.929971 
L 245.943143 273.476043 
L 248.332182 270.438215 
L 251.19903 268.901843 
L 252.154645 268.133657 
L 252.632453 267.819399 
L 253.110261 267.121048 
L 253.588069 266.038603 
L 254.065877 265.305335 
L 254.543685 264.921242 
L 255.021493 264.711736 
L 258.843956 261.219981 
L 259.799572 260.347042 
L 262.666419 258.566246 
L 263.144227 258.391659 
L 264.577651 257.553637 
L 266.011075 256.610863 
L 267.922306 254.899903 
L 268.877922 254.51581 
L 269.833538 253.852376 
L 270.311346 253.573036 
L 270.789154 253.503201 
L 272.222577 252.700097 
L 272.700385 252.176334 
L 275.089425 250.884384 
L 275.567233 250.709796 
L 277.000656 249.732105 
L 284.167775 247.218041 
L 285.123391 246.345102 
L 286.079007 245.891174 
L 287.034623 245.36741 
L 287.51243 245.08807 
L 288.468046 244.808729 
L 288.945854 244.494471 
L 289.423662 244.354801 
L 290.857086 243.412027 
L 293.246125 242.853346 
L 294.679549 242.015325 
L 296.112973 241.701067 
L 296.590781 241.561397 
L 298.024204 240.478952 
L 299.935436 239.955189 
L 300.413244 239.571096 
L 303.280091 238.593404 
L 304.235707 238.418817 
L 305.191323 238.034724 
L 308.535978 236.812609 
L 309.491594 236.672939 
L 310.925018 236.184093 
L 313.314057 235.031814 
L 315.225289 233.984287 
L 319.047752 232.412997 
L 319.52556 232.343162 
L 320.481176 231.749564 
L 320.958984 231.679728 
L 322.870215 230.911542 
L 324.781447 230.667119 
L 325.737063 230.178274 
L 326.214871 229.759263 
L 326.692679 228.886324 
L 328.60391 228.362561 
L 330.037334 227.629292 
L 330.515142 227.524539 
L 333.859797 225.883414 
L 334.815413 225.638991 
L 335.771029 225.429486 
L 336.726645 224.94064 
L 337.204453 224.731135 
L 337.682261 224.6613 
L 339.593492 223.788361 
L 341.026916 222.880504 
L 342.46034 222.601164 
L 344.371571 222.077401 
L 344.849379 222.042483 
L 345.327187 221.65839 
L 346.760611 221.134627 
L 348.671842 220.36644 
L 349.14965 220.017265 
L 349.627458 219.842677 
L 350.583074 219.318914 
L 352.494306 218.725315 
L 352.972114 218.480892 
L 354.405537 217.328613 
L 354.883345 217.22386 
L 355.838961 216.455674 
L 356.316769 216.385839 
L 356.794577 215.617653 
L 357.272385 215.408147 
L 357.750193 215.024054 
L 358.228001 214.954219 
L 359.183616 214.360621 
L 360.139232 214.046363 
L 360.61704 213.697187 
L 361.094848 213.522599 
L 362.528272 212.50999 
L 364.439503 211.497381 
L 364.917311 211.427546 
L 366.350735 210.694277 
L 366.828543 209.891174 
L 367.784159 209.192823 
L 368.261967 209.08807 
L 369.217582 208.494471 
L 369.69539 208.389719 
L 370.651006 207.900873 
L 372.562238 206.958099 
L 373.040046 206.608923 
L 373.995661 205.666149 
L 374.951277 205.072551 
L 375.429085 204.758293 
L 375.906893 204.23453 
L 377.818125 202.907662 
L 378.295933 202.348982 
L 378.773741 201.964888 
L 379.729356 201.615713 
L 380.684972 200.987197 
L 382.118396 200.253928 
L 382.596204 200.184093 
L 384.029628 199.415907 
L 384.985243 198.822308 
L 389.763322 197.076431 
L 390.24113 196.692338 
L 392.152362 195.959069 
L 392.63017 195.819399 
L 393.585786 195.190883 
L 394.541401 194.771872 
L 395.497017 194.108438 
L 396.452633 192.187973 
L 397.408249 191.070611 
L 398.841673 190.337342 
L 399.797288 189.953249 
L 400.275096 189.883414 
L 400.752904 189.604074 
L 403.141944 188.835887 
L 403.619752 188.626382 
L 404.575367 187.962949 
L 406.008791 187.334433 
L 406.964407 186.810669 
L 407.442215 186.461494 
L 407.920023 186.251988 
L 408.397831 185.902813 
L 408.875639 185.379049 
L 409.831254 184.855286 
L 412.220294 183.563337 
L 415.087141 182.131717 
L 416.520565 181.712706 
L 417.953989 181.154025 
L 418.431797 180.80485 
L 419.387413 180.525509 
L 420.343028 180.141416 
L 420.820836 179.757323 
L 422.732068 179.093889 
L 423.687684 178.395538 
L 424.6433 178.011445 
L 425.598915 177.278177 
L 426.554531 176.929001 
L 427.032339 176.50999 
L 427.510147 176.440155 
L 428.465763 175.706887 
L 429.421379 175.218041 
L 429.899187 175.008535 
L 430.376994 174.51969 
L 433.72165 173.192823 
L 434.677266 172.773812 
L 436.110689 172.319884 
L 437.066305 172.180213 
L 437.544113 171.970708 
L 438.021921 171.900873 
L 438.977537 171.481862 
L 439.455345 171.446945 
L 441.366576 170.713676 
L 442.8 169.701067 
L 443.277808 169.526479 
L 444.233424 169.002716 
L 444.711232 168.863046 
L 447.578079 167.256838 
L 448.055887 167.152085 
L 449.489311 166.314064 
L 450.922734 165.825218 
L 451.87835 165.51096 
L 453.789582 164.882444 
L 454.745198 164.568186 
L 456.656429 164.184093 
L 457.134237 163.974588 
L 457.612045 163.904753 
L 458.567661 163.485742 
L 459.045469 163.415907 
L 459.523277 163.171484 
L 460.478893 162.996896 
L 461.912316 162.473133 
L 462.867932 162.36838 
L 464.301356 162.054122 
L 466.690395 161.635112 
L 479.113401 158.003686 
L 479.591209 157.51484 
L 480.546825 157.130747 
L 484.369288 155.699127 
L 484.847096 155.419787 
L 486.280519 155.000776 
L 487.236135 154.756353 
L 487.713943 154.442095 
L 488.191751 154.337342 
L 488.669559 153.918332 
L 490.102983 153.638991 
L 491.058599 153.185063 
L 491.536406 152.626382 
L 493.447638 152.172454 
L 496.792293 151.474103 
L 497.270101 151.474103 
L 497.747909 151.264597 
L 499.659141 150.915422 
L 500.136949 150.705917 
L 502.04818 150.356741 
L 503.003796 149.93773 
L 503.959412 149.763143 
L 506.348452 149.169544 
L 508.259683 148.575946 
L 508.737491 148.471193 
L 509.215299 148.22677 
L 510.170915 147.982347 
L 511.126531 147.598254 
L 512.082146 147.249079 
L 512.559954 146.934821 
L 513.51557 146.65548 
L 517.338033 145.328613 
L 518.293649 145.258778 
L 520.204881 144.700097 
L 520.682689 144.420757 
L 521.638305 144.141416 
L 524.027344 143.058972 
L 524.505152 143.024054 
L 529.761039 141.173424 
L 532.150078 140.544908 
L 533.105694 140.09098 
L 534.539118 139.776722 
L 536.45035 138.205432 
L 537.405965 137.926091 
L 537.883773 137.541998 
L 540.750621 136.459554 
L 541.228429 136.145296 
L 542.184045 135.865955 
L 542.661852 135.551697 
L 545.050892 134.783511 
L 546.484316 133.94549 
L 546.962124 133.840737 
L 549.351163 132.548788 
L 550.784587 131.920272 
L 551.262395 131.571096 
L 552.218011 131.256838 
L 553.173626 130.698157 
L 553.651434 130.523569 
L 554.129242 130.174394 
L 560.340745 127.974588 
L 560.818553 127.869835 
L 561.296361 127.555577 
L 563.207592 127.171484 
L 564.163208 126.787391 
L 567.030056 125.390689 
L 567.507864 125.320854 
L 568.941287 124.51775 
L 570.374711 124.028904 
L 573.719366 122.667119 
L 574.197174 122.527449 
L 574.674982 122.213191 
L 575.630598 122.108438 
L 576.108406 121.79418 
L 577.064022 121.619593 
L 578.019638 121.165664 
L 578.497445 120.956159 
L 578.975253 120.886324 
L 581.364293 119.94355 
L 582.797717 119.559457 
L 583.753332 119.315034 
L 585.186756 118.896023 
L 586.142372 118.51193 
L 588.053604 117.464403 
L 589.009219 117.08031 
L 589.487027 116.766052 
L 590.442643 116.556547 
L 590.920451 116.277207 
L 591.398259 116.172454 
L 592.831683 115.36935 
L 593.787298 114.985257 
L 595.69853 114.251988 
L 598.08757 113.448885 
L 599.043185 112.960039 
L 601.432225 112.156935 
L 604.299072 111.004656 
L 606.210304 110.131717 
L 610.988383 108.281086 
L 611.466191 107.966828 
L 613.377423 107.303395 
L 613.85523 107.303395 
L 614.810846 106.884384 
L 616.722078 105.348012 
L 617.199886 105.208341 
L 617.677694 104.894083 
L 618.155502 104.789331 
L 618.63331 104.544908 
L 619.111117 104.475073 
L 619.588925 104.125897 
L 620.066733 104.021145 
L 621.022349 103.427546 
L 622.455773 102.694277 
L 623.411389 102.310184 
L 623.889197 102.065761 
L 625.32262 101.751503 
L 627.71166 100.9484 
L 628.667276 100.634142 
L 630.100699 99.900873 
L 631.056315 99.446945 
L 632.011931 99.202522 
L 633.445355 98.539088 
L 637.745626 96.967798 
L 639.17905 96.094859 
L 639.656857 95.990107 
L 640.612473 95.536178 
L 641.568089 95.187003 
L 642.045897 94.767992 
L 643.001513 94.383899 
L 645.86836 93.23162 
L 647.301784 92.812609 
L 647.779592 92.568186 
L 648.2574 92.498351 
L 649.690823 91.974588 
L 651.124247 91.450824 
L 652.079863 91.066731 
L 652.557671 90.682638 
L 653.991095 90.298545 
L 654.468903 90.019205 
L 655.424518 89.774782 
L 656.857942 88.971678 
L 657.33575 88.93676 
L 658.769174 88.482832 
L 659.724789 88.412997 
L 660.680405 88.028904 
L 663.547253 87.190883 
L 664.502869 87.155965 
L 668.325332 85.933851 
L 669.280948 85.410087 
L 669.758756 84.991077 
L 671.192179 84.153055 
L 671.669987 83.80388 
L 672.625603 83.454704 
L 675.014643 82.686518 
L 675.49245 82.302425 
L 678.359298 81.115228 
L 680.270529 80.591465 
L 681.226145 80.172454 
L 681.703953 79.928031 
L 682.659569 79.648691 
L 683.137377 79.36935 
L 684.092993 79.194762 
L 686.482032 78.077401 
L 686.95984 77.79806 
L 688.393264 77.448885 
L 688.871072 77.134627 
L 689.34888 76.960039 
L 689.826688 76.541028 
L 690.304496 76.471193 
L 692.215727 75.703007 
L 694.126959 75.249079 
L 694.604767 75.179243 
L 695.082575 74.969738 
L 695.560382 74.934821 
L 696.515998 74.620563 
L 696.993806 74.585645 
L 698.42723 74.026964 
L 700.338462 73.468283 
L 701.294077 72.735015 
L 703.205309 71.687488 
L 704.638733 71.198642 
L 707.50558 69.906693 
L 708.461196 69.382929 
L 708.939004 69.138506 
L 709.416812 68.684578 
L 712.283659 67.741804 
L 713.239275 67.357711 
L 714.194891 67.113288 
L 714.672699 66.868865 
L 715.150507 66.449855 
L 717.061738 65.961009 
L 717.539546 65.611833 
L 723.751049 63.37711 
L 724.706665 63.202522 
L 729.006936 61.701067 
L 729.962552 61.456644 
L 730.44036 61.247139 
L 730.918168 61.247139 
L 731.873783 60.863046 
L 732.829399 60.269447 
L 733.307207 60.094859 
L 733.785015 60.059942 
L 735.218439 59.431426 
L 736.651862 58.907662 
L 737.12967 58.837827 
L 738.085286 58.453734 
L 739.51871 58.139476 
L 740.952134 57.685548 
L 741.429941 57.580795 
L 741.907749 57.266537 
L 742.863365 57.057032 
L 747.163636 55.8 
L 747.163636 55.8 
" clip-path="url(#p2a2cae0d55)" style="fill: none; stroke: #1f77b4; stroke-width: 1.5; stroke-linecap: square"/>
   </g>
   <g id="line2d_38">
    <path d="M 138.914172 307.8 
L 143.214443 307.695247 
L 147.036906 307.52066 
L 148.948138 307.52066 
L 149.425945 307.380989 
L 151.814985 307.276237 
L 154.681832 306.961979 
L 157.54868 306.857226 
L 158.504296 306.752473 
L 161.848951 306.612803 
L 165.193606 306.50805 
L 167.582646 306.438215 
L 173.794149 306.333463 
L 176.183188 306.263628 
L 179.527844 306.158875 
L 181.916883 306.08904 
L 187.17277 305.984287 
L 189.084002 305.809699 
L 190.995233 305.774782 
L 193.862081 305.670029 
L 195.773312 305.635112 
L 198.162352 305.565276 
L 200.073584 305.390689 
L 204.373855 305.285936 
L 205.329471 305.216101 
L 207.240702 305.111348 
L 210.10755 305.006596 
L 212.018781 304.901843 
L 220.619324 304.37808 
L 223.963979 304.273327 
L 225.397403 304.133657 
L 227.786442 304.028904 
L 232.564521 303.784481 
L 237.3426 303.714646 
L 239.253832 303.505141 
L 241.165064 303.400388 
L 246.42095 302.911542 
L 249.765606 302.527449 
L 251.19903 302.457614 
L 255.021493 301.968768 
L 257.88834 301.898933 
L 259.321764 301.759263 
L 260.755188 301.65451 
L 274.133809 300.641901 
L 275.089425 300.467313 
L 277.956272 300.362561 
L 285.601199 299.908632 
L 288.945854 299.80388 
L 290.857086 299.594374 
L 293.246125 299.489622 
L 296.112973 299.384869 
L 298.502012 299.280116 
L 300.413244 299.245199 
L 302.802283 299.175364 
L 303.757899 299.035694 
L 310.44721 298.930941 
L 311.402826 298.826188 
L 317.136521 298.721435 
L 321.436792 298.51193 
L 324.781447 298.407177 
L 326.692679 298.197672 
L 330.037334 298.092919 
L 330.99295 297.918332 
L 333.381989 297.848497 
L 338.160069 297.778661 
L 340.0713 297.604074 
L 341.982532 297.569156 
L 343.415955 297.464403 
L 345.327187 297.289816 
L 350.105266 297.045393 
L 354.883345 296.94064 
L 359.183616 296.731135 
L 360.61704 296.696217 
L 361.572656 296.556547 
L 363.961695 296.451794 
L 364.917311 296.381959 
L 365.872927 296.312124 
L 366.828543 296.242289 
L 371.128814 296.172454 
L 372.562238 296.067701 
L 385.463051 295.22968 
L 387.852091 295.124927 
L 390.24113 295.055092 
L 396.930441 294.950339 
L 397.886057 294.810669 
L 404.575367 294.705917 
L 409.353447 294.461494 
L 410.309062 294.426576 
L 411.264678 294.321823 
L 413.653718 294.217071 
L 416.042757 294.147236 
L 418.431797 294.042483 
L 420.820836 293.972648 
L 425.121107 293.867895 
L 427.987955 293.763143 
L 434.677266 293.65839 
L 439.933153 293.379049 
L 441.844384 293.309214 
L 443.277808 293.204462 
L 449.967119 293.099709 
L 452.833966 292.994956 
L 461.434508 292.890204 
L 463.34574 292.855286 
L 469.079435 292.785451 
L 470.035051 292.715616 
L 476.724361 292.610863 
L 478.635593 292.575946 
L 491.058599 292.471193 
L 492.492022 292.331523 
L 513.993378 292.22677 
L 516.382418 292.156935 
L 528.805423 292.0871 
L 529.761039 292.017265 
L 532.150078 291.94743 
L 533.583502 291.807759 
L 536.45035 291.703007 
L 539.795005 291.563337 
L 544.095276 291.458584 
L 546.484316 291.388749 
L 549.828971 291.283996 
L 553.651434 291.109408 
L 556.040474 291.004656 
L 557.951705 290.969738 
L 562.251977 290.864985 
L 564.163208 290.830068 
L 570.374711 290.725315 
L 572.285943 290.690398 
L 574.674982 290.585645 
L 577.54183 290.480892 
L 580.886485 290.411057 
L 581.842101 290.341222 
L 593.309491 290.236469 
L 599.520993 289.887294 
L 601.910033 289.817459 
L 602.865649 289.712706 
L 603.821264 289.642871 
L 607.643728 289.538118 
L 610.510575 289.433366 
L 615.288654 289.328613 
L 617.677694 289.08419 
L 622.455773 288.979437 
L 623.411389 288.874685 
L 628.189468 288.769932 
L 630.578507 288.700097 
L 635.834394 288.665179 
L 636.79001 288.560427 
L 642.045897 288.455674 
L 643.001513 288.385839 
L 653.513287 288.281086 
L 656.380134 288.176334 
L 663.547253 288.071581 
L 665.458484 288.036663 
L 669.758756 287.966828 
L 670.714371 287.862076 
L 676.925874 287.757323 
L 679.314914 287.687488 
L 687.915456 287.582735 
L 689.34888 287.477983 
L 690.782303 287.37323 
L 692.215727 287.268477 
L 699.382846 287.163725 
L 702.249693 287.058972 
L 715.150507 286.954219 
L 719.450778 286.744714 
L 725.184473 286.639961 
L 726.140088 286.570126 
L 733.307207 286.500291 
L 734.262823 286.430456 
L 739.51871 286.325703 
L 741.429941 286.290786 
L 747.163636 286.220951 
L 747.163636 286.220951 
" clip-path="url(#p2a2cae0d55)" style="fill: none; stroke: #ff7f0e; stroke-width: 1.5; stroke-linecap: square"/>
   </g>
   <g id="patch_3">
    <path d="M 108 320.4 
L 108 43.2 
" style="fill: none; stroke: #a9a9a9; stroke-width: 0.8; stroke-linejoin: miter; stroke-linecap: square"/>
   </g>
   <g id="patch_4">
    <path d="M 777.6 320.4 
L 777.6 43.2 
" style="fill: none"/>
   </g>
   <g id="patch_5">
    <path d="M 108 320.4 
L 777.6 320.4 
" style="fill: none; stroke: #a9a9a9; stroke-width: 0.8; stroke-linejoin: miter; stroke-linecap: square"/>
   </g>
   <g id="patch_6">
    <path d="M 108 43.2 
L 777.6 43.2 
" style="fill: none"/>
   </g>
   <g id="text_19">
    <!-- get_subscribe history -->
    <g style="fill: #a9a9a9" transform="translate(378.6075 37.2) scale(0.12 -0.12)">
     <defs>
      <path id="DejaVuSans-67" d="M 2906 1791 
Q 2906 2416 2648 2759 
Q 2391 3103 1925 3103 
Q 1463 3103 1205 2759 
Q 947 2416 947 1791 
Q 947 1169 1205 825 
Q 1463 481 1925 481 
Q 2391 481 2648 825 
Q 2906 1169 2906 1791 
z
M 3481 434 
Q 3481 -459 3084 -895 
Q 2688 -1331 1869 -1331 
Q 1566 -1331 1297 -1286 
Q 1028 -1241 775 -1147 
L 775 -588 
Q 1028 -725 1275 -790 
Q 1522 -856 1778 -856 
Q 2344 -856 2625 -561 
Q 2906 -266 2906 331 
L 2906 616 
Q 2728 306 2450 153 
Q 2172 0 1784 0 
Q 1141 0 747 490 
Q 353 981 353 1791 
Q 353 2603 747 3093 
Q 1141 3584 1784 3584 
Q 2172 3584 2450 3431 
Q 2728 3278 2906 2969 
L 2906 3500 
L 3481 3500 
L 3481 434 
z
" transform="scale(0.015625)"/>
      <path id="DejaVuSans-65" d="M 3597 1894 
L 3597 1613 
L 953 1613 
Q 991 1019 1311 708 
Q 1631 397 2203 397 
Q 2534 397 2845 478 
Q 3156 559 3463 722 
L 3463 178 
Q 3153 47 2828 -22 
Q 2503 -91 2169 -91 
Q 1331 -91 842 396 
Q 353 884 353 1716 
Q 353 2575 817 3079 
Q 1281 3584 2069 3584 
Q 2775 3584 3186 3129 
Q 3597 2675 3597 1894 
z
M 3022 2063 
Q 3016 2534 2758 2815 
Q 2500 3097 2075 3097 
Q 1594 3097 1305 2825 
Q 1016 2553 972 2059 
L 3022 2063 
z
" transform="scale(0.015625)"/>
      <path id="DejaVuSans-74" d="M 1172 4494 
L 1172 3500 
L 2356 3500 
L 2356 3053 
L 1172 3053 
L 1172 1153 
Q 1172 725 1289 603 
Q 1406 481 1766 481 
L 2356 481 
L 2356 0 
L 1766 0 
Q 1100 0 847 248 
Q 594 497 594 1153 
L 594 3053 
L 172 3053 
L 172 3500 
L 594 3500 
L 594 4494 
L 1172 4494 
z
" transform="scale(0.015625)"/>
      <path id="DejaVuSans-5f" d="M 3263 -1063 
L 3263 -1509 
L -63 -1509 
L -63 -1063 
L 3263 -1063 
z
" transform="scale(0.015625)"/>
      <path id="DejaVuSans-73" d="M 2834 3397 
L 2834 2853 
Q 2591 2978 2328 3040 
Q 2066 3103 1784 3103 
Q 1356 3103 1142 2972 
Q 928 2841 928 2578 
Q 928 2378 1081 2264 
Q 1234 2150 1697 2047 
L 1894 2003 
Q 2506 1872 2764 1633 
Q 3022 1394 3022 966 
Q 3022 478 2636 193 
Q 2250 -91 1575 -91 
Q 1294 -91 989 -36 
Q 684 19 347 128 
L 347 722 
Q 666 556 975 473 
Q 1284 391 1588 391 
Q 1994 391 2212 530 
Q 2431 669 2431 922 
Q 2431 1156 2273 1281 
Q 2116 1406 1581 1522 
L 1381 1569 
Q 847 1681 609 1914 
Q 372 2147 372 2553 
Q 372 3047 722 3315 
Q 1072 3584 1716 3584 
Q 2034 3584 2315 3537 
Q 2597 3491 2834 3397 
z
" transform="scale(0.015625)"/>
      <path id="DejaVuSans-75" d="M 544 1381 
L 544 3500 
L 1119 3500 
L 1119 1403 
Q 1119 906 1312 657 
Q 1506 409 1894 409 
Q 2359 409 2629 706 
Q 2900 1003 2900 1516 
L 2900 3500 
L 3475 3500 
L 3475 0 
L 2900 0 
L 2900 538 
Q 2691 219 2414 64 
Q 2138 -91 1772 -91 
Q 1169 -91 856 284 
Q 544 659 544 1381 
z
M 1991 3584 
L 1991 3584 
z
" transform="scale(0.015625)"/>
      <path id="DejaVuSans-62" d="M 3116 1747 
Q 3116 2381 2855 2742 
Q 2594 3103 2138 3103 
Q 1681 3103 1420 2742 
Q 1159 2381 1159 1747 
Q 1159 1113 1420 752 
Q 1681 391 2138 391 
Q 2594 391 2855 752 
Q 3116 1113 3116 1747 
z
M 1159 2969 
Q 1341 3281 1617 3432 
Q 1894 3584 2278 3584 
Q 2916 3584 3314 3078 
Q 3713 2572 3713 1747 
Q 3713 922 3314 415 
Q 2916 -91 2278 -91 
Q 1894 -91 1617 61 
Q 1341 213 1159 525 
L 1159 0 
L 581 0 
L 581 4863 
L 1159 4863 
L 1159 2969 
z
" transform="scale(0.015625)"/>
      <path id="DejaVuSans-63" d="M 3122 3366 
L 3122 2828 
Q 2878 2963 2633 3030 
Q 2388 3097 2138 3097 
Q 1578 3097 1268 2742 
Q 959 2388 959 1747 
Q 959 1106 1268 751 
Q 1578 397 2138 397 
Q 2388 397 2633 464 
Q 2878 531 3122 666 
L 3122 134 
Q 2881 22 2623 -34 
Q 2366 -91 2075 -91 
Q 1284 -91 818 406 
Q 353 903 353 1747 
Q 353 2603 823 3093 
Q 1294 3584 2113 3584 
Q 2378 3584 2631 3529 
Q 2884 3475 3122 3366 
z
" transform="scale(0.015625)"/>
      <path id="DejaVuSans-72" d="M 2631 2963 
Q 2534 3019 2420 3045 
Q 2306 3072 2169 3072 
Q 1681 3072 1420 2755 
Q 1159 2438 1159 1844 
L 1159 0 
L 581 0 
L 581 3500 
L 1159 3500 
L 1159 2956 
Q 1341 3275 1631 3429 
Q 1922 3584 2338 3584 
Q 2397 3584 2469 3576 
Q 2541 3569 2628 3553 
L 2631 2963 
z
" transform="scale(0.015625)"/>
      <path id="DejaVuSans-69" d="M 603 3500 
L 1178 3500 
L 1178 0 
L 603 0 
L 603 3500 
z
M 603 4863 
L 1178 4863 
L 1178 4134 
L 603 4134 
L 603 4863 
z
" transform="scale(0.015625)"/>
      <path id="DejaVuSans-20" transform="scale(0.015625)"/>
      <path id="DejaVuSans-68" d="M 3513 2113 
L 3513 0 
L 2938 0 
L 2938 2094 
Q 2938 2591 2744 2837 
Q 2550 3084 2163 3084 
Q 1697 3084 1428 2787 
Q 1159 2491 1159 1978 
L 1159 0 
L 581 0 
L 581 4863 
L 1159 4863 
L 1159 2956 
Q 1366 3272 1645 3428 
Q 1925 3584 2291 3584 
Q 2894 3584 3203 3211 
Q 3513 2838 3513 2113 
z
" transform="scale(0.015625)"/>
      <path id="DejaVuSans-6f" d="M 1959 3097 
Q 1497 3097 1228 2736 
Q 959 2375 959 1747 
Q 959 1119 1226 758 
Q 1494 397 1959 397 
Q 2419 397 2687 759 
Q 2956 1122 2956 1747 
Q 2956 2369 2687 2733 
Q 2419 3097 1959 3097 
z
M 1959 3584 
Q 2709 3584 3137 3096 
Q 3566 2609 3566 1747 
Q 3566 888 3137 398 
Q 2709 -91 1959 -91 
Q 1206 -91 779 398 
Q 353 888 353 1747 
Q 353 2609 779 3096 
Q 1206 3584 1959 3584 
z
" transform="scale(0.015625)"/>
      <path id="DejaVuSans-79" d="M 2059 -325 
Q 1816 -950 1584 -1140 
Q 1353 -1331 966 -1331 
L 506 -1331 
L 506 -850 
L 844 -850 
Q 1081 -850 1212 -737 
Q 1344 -625 1503 -206 
L 1606 56 
L 191 3500 
L 800 3500 
L 1894 763 
L 2988 3500 
L 3597 3500 
L 2059 -325 
z
" transform="scale(0.015625)"/>
     </defs>
     <use xlink:href="#DejaVuSans-67"/>
     <use xlink:href="#DejaVuSans-65" transform="translate(63.476562 0)"/>
     <use xlink:href="#DejaVuSans-74" transform="translate(125 0)"/>
     <use xlink:href="#DejaVuSans-5f" transform="translate(164.208984 0)"/>
     <use xlink:href="#DejaVuSans-73" transform="translate(214.208984 0)"/>
     <use xlink:href="#DejaVuSans-75" transform="translate(266.308594 0)"/>
     <use xlink:href="#DejaVuSans-62" transform="translate(329.6875 0)"/>
     <use xlink:href="#DejaVuSans-73" transform="translate(393.164062 0)"/>
     <use xlink:href="#DejaVuSans-63" transform="translate(445.263672 0)"/>
     <use xlink:href="#DejaVuSans-72" transform="translate(500.244141 0)"/>
     <use xlink:href="#DejaVuSans-69" transform="translate(541.357422 0)"/>
     <use xlink:href="#DejaVuSans-62" transform="translate(569.140625 0)"/>
     <use xlink:href="#DejaVuSans-65" transform="translate(632.617188 0)"/>
     <use xlink:href="#DejaVuSans-20" transform="translate(694.140625 0)"/>
     <use xlink:href="#DejaVuSans-68" transform="translate(725.927734 0)"/>
     <use xlink:href="#DejaVuSans-69" transform="translate(789.306641 0)"/>
     <use xlink:href="#DejaVuSans-73" transform="translate(817.089844 0)"/>
     <use xlink:href="#DejaVuSans-74" transform="translate(869.189453 0)"/>
     <use xlink:href="#DejaVuSans-6f" transform="translate(908.398438 0)"/>
     <use xlink:href="#DejaVuSans-72" transform="translate(969.580078 0)"/>
     <use xlink:href="#DejaVuSans-79" transform="translate(1010.693359 0)"/>
    </g>
   </g>
   <g id="legend_1">
    <g id="line2d_39">
     <path d="M 815.08 328.498438 
L 825.08 328.498438 
L 835.08 328.498438 
" style="fill: none; stroke: #1f77b4; stroke-width: 1.5; stroke-linecap: square"/>
    </g>
    <g id="text_20">
     <!-- star -->
     <g style="fill: #a9a9a9" transform="translate(843.08 331.998438) scale(0.1 -0.1)">
      <defs>
       <path id="DejaVuSans-61" d="M 2194 1759 
Q 1497 1759 1228 1600 
Q 959 1441 959 1056 
Q 959 750 1161 570 
Q 1363 391 1709 391 
Q 2188 391 2477 730 
Q 2766 1069 2766 1631 
L 2766 1759 
L 2194 1759 
z
M 3341 1997 
L 3341 0 
L 2766 0 
L 2766 531 
Q 2569 213 2275 61 
Q 1981 -91 1556 -91 
Q 1019 -91 701 211 
Q 384 513 384 1019 
Q 384 1609 779 1909 
Q 1175 2209 1959 2209 
L 2766 2209 
L 2766 2266 
Q 2766 2663 2505 2880 
Q 2244 3097 1772 3097 
Q 1472 3097 1187 3025 
Q 903 2953 641 2809 
L 641 3341 
Q 956 3463 1253 3523 
Q 1550 3584 1831 3584 
Q 2591 3584 2966 3190 
Q 3341 2797 3341 1997 
z
" transform="scale(0.015625)"/>
      </defs>
      <use xlink:href="#DejaVuSans-73"/>
      <use xlink:href="#DejaVuSans-74" transform="translate(52.099609 0)"/>
      <use xlink:href="#DejaVuSans-61" transform="translate(91.308594 0)"/>
      <use xlink:href="#DejaVuSans-72" transform="translate(152.587891 0)"/>
     </g>
    </g>
    <g id="line2d_40">
     <path d="M 815.08 343.176562 
L 825.08 343.176562 
L 835.08 343.176562 
" style="fill: none; stroke: #ff7f0e; stroke-width: 1.5; stroke-linecap: square"/>
    </g>
    <g id="text_21">
     <!-- fork -->
     <g style="fill: #a9a9a9" transform="translate(843.08 346.676562) scale(0.1 -0.1)">
      <defs>
       <path id="DejaVuSans-66" d="M 2375 4863 
L 2375 4384 
L 1825 4384 
Q 1516 4384 1395 4259 
Q 1275 4134 1275 3809 
L 1275 3500 
L 2222 3500 
L 2222 3053 
L 1275 3053 
L 1275 0 
L 697 0 
L 697 3053 
L 147 3053 
L 147 3500 
L 697 3500 
L 697 3744 
Q 697 4328 969 4595 
Q 1241 4863 1831 4863 
L 2375 4863 
z
" transform="scale(0.015625)"/>
       <path id="DejaVuSans-6b" d="M 581 4863 
L 1159 4863 
L 1159 1991 
L 2875 3500 
L 3609 3500 
L 1753 1863 
L 3688 0 
L 2938 0 
L 1159 1709 
L 1159 0 
L 581 0 
L 581 4863 
z
" transform="scale(0.015625)"/>
      </defs>
      <use xlink:href="#DejaVuSans-66"/>
      <use xlink:href="#DejaVuSans-6f" transform="translate(35.205078 0)"/>
      <use xlink:href="#DejaVuSans-72" transform="translate(96.386719 0)"/>
      <use xlink:href="#DejaVuSans-6b" transform="translate(137.5 0)"/>
     </g>
    </g>
   </g>
  </g>
 </g>
 <defs>
  <clipPath id="p2a2cae0d55">
   <rect x="108" y="43.2" width="669.6" height="277.2"/>
  </clipPath>
 </defs>
</svg>
