<?xml version="1.0" encoding="utf-8" standalone="no"?>
<!DOCTYPE svg PUBLIC "-//W3C//DTD SVG 1.1//EN"
  "http://www.w3.org/Graphics/SVG/1.1/DTD/svg11.dtd">
<svg xmlns:xlink="http://www.w3.org/1999/xlink" width="864pt" height="360pt" viewBox="0 0 864 360" xmlns="http://www.w3.org/2000/svg" version="1.1">
 <metadata>
  <rdf:RDF xmlns:dc="http://purl.org/dc/elements/1.1/" xmlns:cc="http://creativecommons.org/ns#" xmlns:rdf="http://www.w3.org/1999/02/22-rdf-syntax-ns#">
   <cc:Work>
    <dc:type rdf:resource="http://purl.org/dc/dcmitype/StillImage"/>
    <dc:date>2025-03-03T08:15:32.049619</dc:date>
    <dc:format>image/svg+xml</dc:format>
    <dc:creator>
     <cc:Agent>
      <dc:title>Matplotlib v3.10.1, https://matplotlib.org/</dc:title>
     </cc:Agent>
    </dc:creator>
   </cc:Work>
  </rdf:RDF>
 </metadata>
 <defs>
  <style type="text/css">*{stroke-linejoin: round; stroke-linecap: butt}</style>
 </defs>
 <g id="figure_1">
  <g id="patch_1">
   <path d="M 0 360 
L 864 360 
L 864 0 
L 0 0 
L 0 360 
z
" style="fill: none; opacity: 0"/>
  </g>
  <g id="axes_1">
   <g id="patch_2">
    <path d="M 108 320.4 
L 777.6 320.4 
L 777.6 43.2 
L 108 43.2 
L 108 320.4 
z
" style="fill: none; opacity: 0"/>
   </g>
   <g id="matplotlib.axis_1">
    <g id="xtick_1">
     <g id="line2d_1">
      <path d="M 127.813657 320.4 
L 127.813657 43.2 
" clip-path="url(#pb16bfb69cb)" style="fill: none; stroke-dasharray: 5.12,1.28,0.8,1.28; stroke-dashoffset: 0; stroke: #b0b0b0; stroke-width: 0.8"/>
     </g>
     <g id="line2d_2">
      <defs>
       <path id="ma7b5fd71cd" d="M 0 0 
L 0 3.5 
" style="stroke: #a9a9a9; stroke-width: 0.8"/>
      </defs>
      <g>
       <use xlink:href="#ma7b5fd71cd" x="127.813657" y="320.4" style="fill: #a9a9a9; stroke: #a9a9a9; stroke-width: 0.8"/>
      </g>
     </g>
     <g id="text_1">
      <!-- 2021-07 -->
      <g style="fill: #a9a9a9" transform="translate(106.922251 334.998438) scale(0.1 -0.1)">
       <defs>
        <path id="DejaVuSans-32" d="M 1228 531 
L 3431 531 
L 3431 0 
L 469 0 
L 469 531 
Q 828 903 1448 1529 
Q 2069 2156 2228 2338 
Q 2531 2678 2651 2914 
Q 2772 3150 2772 3378 
Q 2772 3750 2511 3984 
Q 2250 4219 1831 4219 
Q 1534 4219 1204 4116 
Q 875 4013 500 3803 
L 500 4441 
Q 881 4594 1212 4672 
Q 1544 4750 1819 4750 
Q 2544 4750 2975 4387 
Q 3406 4025 3406 3419 
Q 3406 3131 3298 2873 
Q 3191 2616 2906 2266 
Q 2828 2175 2409 1742 
Q 1991 1309 1228 531 
z
" transform="scale(0.015625)"/>
        <path id="DejaVuSans-30" d="M 2034 4250 
Q 1547 4250 1301 3770 
Q 1056 3291 1056 2328 
Q 1056 1369 1301 889 
Q 1547 409 2034 409 
Q 2525 409 2770 889 
Q 3016 1369 3016 2328 
Q 3016 3291 2770 3770 
Q 2525 4250 2034 4250 
z
M 2034 4750 
Q 2819 4750 3233 4129 
Q 3647 3509 3647 2328 
Q 3647 1150 3233 529 
Q 2819 -91 2034 -91 
Q 1250 -91 836 529 
Q 422 1150 422 2328 
Q 422 3509 836 4129 
Q 1250 4750 2034 4750 
z
" transform="scale(0.015625)"/>
        <path id="DejaVuSans-31" d="M 794 531 
L 1825 531 
L 1825 4091 
L 703 3866 
L 703 4441 
L 1819 4666 
L 2450 4666 
L 2450 531 
L 3481 531 
L 3481 0 
L 794 0 
L 794 531 
z
" transform="scale(0.015625)"/>
        <path id="DejaVuSans-2d" d="M 313 2009 
L 1997 2009 
L 1997 1497 
L 313 1497 
L 313 2009 
z
" transform="scale(0.015625)"/>
        <path id="DejaVuSans-37" d="M 525 4666 
L 3525 4666 
L 3525 4397 
L 1831 0 
L 1172 0 
L 2766 4134 
L 525 4134 
L 525 4666 
z
" transform="scale(0.015625)"/>
       </defs>
       <use xlink:href="#DejaVuSans-32"/>
       <use xlink:href="#DejaVuSans-30" transform="translate(63.623047 0)"/>
       <use xlink:href="#DejaVuSans-32" transform="translate(127.246094 0)"/>
       <use xlink:href="#DejaVuSans-31" transform="translate(190.869141 0)"/>
       <use xlink:href="#DejaVuSans-2d" transform="translate(254.492188 0)"/>
       <use xlink:href="#DejaVuSans-30" transform="translate(290.576172 0)"/>
       <use xlink:href="#DejaVuSans-37" transform="translate(354.199219 0)"/>
      </g>
     </g>
    </g>
    <g id="xtick_2">
     <g id="line2d_3">
      <path d="M 212.79531 320.4 
L 212.79531 43.2 
" clip-path="url(#pb16bfb69cb)" style="fill: none; stroke-dasharray: 5.12,1.28,0.8,1.28; stroke-dashoffset: 0; stroke: #b0b0b0; stroke-width: 0.8"/>
     </g>
     <g id="line2d_4">
      <g>
       <use xlink:href="#ma7b5fd71cd" x="212.79531" y="320.4" style="fill: #a9a9a9; stroke: #a9a9a9; stroke-width: 0.8"/>
      </g>
     </g>
     <g id="text_2">
      <!-- 2022-01 -->
      <g style="fill: #a9a9a9" transform="translate(191.903903 334.998438) scale(0.1 -0.1)">
       <use xlink:href="#DejaVuSans-32"/>
       <use xlink:href="#DejaVuSans-30" transform="translate(63.623047 0)"/>
       <use xlink:href="#DejaVuSans-32" transform="translate(127.246094 0)"/>
       <use xlink:href="#DejaVuSans-32" transform="translate(190.869141 0)"/>
       <use xlink:href="#DejaVuSans-2d" transform="translate(254.492188 0)"/>
       <use xlink:href="#DejaVuSans-30" transform="translate(290.576172 0)"/>
       <use xlink:href="#DejaVuSans-31" transform="translate(354.199219 0)"/>
      </g>
     </g>
    </g>
    <g id="xtick_3">
     <g id="line2d_5">
      <path d="M 296.391392 320.4 
L 296.391392 43.2 
" clip-path="url(#pb16bfb69cb)" style="fill: none; stroke-dasharray: 5.12,1.28,0.8,1.28; stroke-dashoffset: 0; stroke: #b0b0b0; stroke-width: 0.8"/>
     </g>
     <g id="line2d_6">
      <g>
       <use xlink:href="#ma7b5fd71cd" x="296.391392" y="320.4" style="fill: #a9a9a9; stroke: #a9a9a9; stroke-width: 0.8"/>
      </g>
     </g>
     <g id="text_3">
      <!-- 2022-07 -->
      <g style="fill: #a9a9a9" transform="translate(275.499986 334.998438) scale(0.1 -0.1)">
       <use xlink:href="#DejaVuSans-32"/>
       <use xlink:href="#DejaVuSans-30" transform="translate(63.623047 0)"/>
       <use xlink:href="#DejaVuSans-32" transform="translate(127.246094 0)"/>
       <use xlink:href="#DejaVuSans-32" transform="translate(190.869141 0)"/>
       <use xlink:href="#DejaVuSans-2d" transform="translate(254.492188 0)"/>
       <use xlink:href="#DejaVuSans-30" transform="translate(290.576172 0)"/>
       <use xlink:href="#DejaVuSans-37" transform="translate(354.199219 0)"/>
      </g>
     </g>
    </g>
    <g id="xtick_4">
     <g id="line2d_7">
      <path d="M 381.373045 320.4 
L 381.373045 43.2 
" clip-path="url(#pb16bfb69cb)" style="fill: none; stroke-dasharray: 5.12,1.28,0.8,1.28; stroke-dashoffset: 0; stroke: #b0b0b0; stroke-width: 0.8"/>
     </g>
     <g id="line2d_8">
      <g>
       <use xlink:href="#ma7b5fd71cd" x="381.373045" y="320.4" style="fill: #a9a9a9; stroke: #a9a9a9; stroke-width: 0.8"/>
      </g>
     </g>
     <g id="text_4">
      <!-- 2023-01 -->
      <g style="fill: #a9a9a9" transform="translate(360.481638 334.998438) scale(0.1 -0.1)">
       <defs>
        <path id="DejaVuSans-33" d="M 2597 2516 
Q 3050 2419 3304 2112 
Q 3559 1806 3559 1356 
Q 3559 666 3084 287 
Q 2609 -91 1734 -91 
Q 1441 -91 1130 -33 
Q 819 25 488 141 
L 488 750 
Q 750 597 1062 519 
Q 1375 441 1716 441 
Q 2309 441 2620 675 
Q 2931 909 2931 1356 
Q 2931 1769 2642 2001 
Q 2353 2234 1838 2234 
L 1294 2234 
L 1294 2753 
L 1863 2753 
Q 2328 2753 2575 2939 
Q 2822 3125 2822 3475 
Q 2822 3834 2567 4026 
Q 2313 4219 1838 4219 
Q 1578 4219 1281 4162 
Q 984 4106 628 3988 
L 628 4550 
Q 988 4650 1302 4700 
Q 1616 4750 1894 4750 
Q 2613 4750 3031 4423 
Q 3450 4097 3450 3541 
Q 3450 3153 3228 2886 
Q 3006 2619 2597 2516 
z
" transform="scale(0.015625)"/>
       </defs>
       <use xlink:href="#DejaVuSans-32"/>
       <use xlink:href="#DejaVuSans-30" transform="translate(63.623047 0)"/>
       <use xlink:href="#DejaVuSans-32" transform="translate(127.246094 0)"/>
       <use xlink:href="#DejaVuSans-33" transform="translate(190.869141 0)"/>
       <use xlink:href="#DejaVuSans-2d" transform="translate(254.492188 0)"/>
       <use xlink:href="#DejaVuSans-30" transform="translate(290.576172 0)"/>
       <use xlink:href="#DejaVuSans-31" transform="translate(354.199219 0)"/>
      </g>
     </g>
    </g>
    <g id="xtick_5">
     <g id="line2d_9">
      <path d="M 464.969127 320.4 
L 464.969127 43.2 
" clip-path="url(#pb16bfb69cb)" style="fill: none; stroke-dasharray: 5.12,1.28,0.8,1.28; stroke-dashoffset: 0; stroke: #b0b0b0; stroke-width: 0.8"/>
     </g>
     <g id="line2d_10">
      <g>
       <use xlink:href="#ma7b5fd71cd" x="464.969127" y="320.4" style="fill: #a9a9a9; stroke: #a9a9a9; stroke-width: 0.8"/>
      </g>
     </g>
     <g id="text_5">
      <!-- 2023-07 -->
      <g style="fill: #a9a9a9" transform="translate(444.077721 334.998438) scale(0.1 -0.1)">
       <use xlink:href="#DejaVuSans-32"/>
       <use xlink:href="#DejaVuSans-30" transform="translate(63.623047 0)"/>
       <use xlink:href="#DejaVuSans-32" transform="translate(127.246094 0)"/>
       <use xlink:href="#DejaVuSans-33" transform="translate(190.869141 0)"/>
       <use xlink:href="#DejaVuSans-2d" transform="translate(254.492188 0)"/>
       <use xlink:href="#DejaVuSans-30" transform="translate(290.576172 0)"/>
       <use xlink:href="#DejaVuSans-37" transform="translate(354.199219 0)"/>
      </g>
     </g>
    </g>
    <g id="xtick_6">
     <g id="line2d_11">
      <path d="M 549.950779 320.4 
L 549.950779 43.2 
" clip-path="url(#pb16bfb69cb)" style="fill: none; stroke-dasharray: 5.12,1.28,0.8,1.28; stroke-dashoffset: 0; stroke: #b0b0b0; stroke-width: 0.8"/>
     </g>
     <g id="line2d_12">
      <g>
       <use xlink:href="#ma7b5fd71cd" x="549.950779" y="320.4" style="fill: #a9a9a9; stroke: #a9a9a9; stroke-width: 0.8"/>
      </g>
     </g>
     <g id="text_6">
      <!-- 2024-01 -->
      <g style="fill: #a9a9a9" transform="translate(529.059373 334.998438) scale(0.1 -0.1)">
       <defs>
        <path id="DejaVuSans-34" d="M 2419 4116 
L 825 1625 
L 2419 1625 
L 2419 4116 
z
M 2253 4666 
L 3047 4666 
L 3047 1625 
L 3713 1625 
L 3713 1100 
L 3047 1100 
L 3047 0 
L 2419 0 
L 2419 1100 
L 313 1100 
L 313 1709 
L 2253 4666 
z
" transform="scale(0.015625)"/>
       </defs>
       <use xlink:href="#DejaVuSans-32"/>
       <use xlink:href="#DejaVuSans-30" transform="translate(63.623047 0)"/>
       <use xlink:href="#DejaVuSans-32" transform="translate(127.246094 0)"/>
       <use xlink:href="#DejaVuSans-34" transform="translate(190.869141 0)"/>
       <use xlink:href="#DejaVuSans-2d" transform="translate(254.492188 0)"/>
       <use xlink:href="#DejaVuSans-30" transform="translate(290.576172 0)"/>
       <use xlink:href="#DejaVuSans-31" transform="translate(354.199219 0)"/>
      </g>
     </g>
    </g>
    <g id="xtick_7">
     <g id="line2d_13">
      <path d="M 634.008718 320.4 
L 634.008718 43.2 
" clip-path="url(#pb16bfb69cb)" style="fill: none; stroke-dasharray: 5.12,1.28,0.8,1.28; stroke-dashoffset: 0; stroke: #b0b0b0; stroke-width: 0.8"/>
     </g>
     <g id="line2d_14">
      <g>
       <use xlink:href="#ma7b5fd71cd" x="634.008718" y="320.4" style="fill: #a9a9a9; stroke: #a9a9a9; stroke-width: 0.8"/>
      </g>
     </g>
     <g id="text_7">
      <!-- 2024-07 -->
      <g style="fill: #a9a9a9" transform="translate(613.117312 334.998438) scale(0.1 -0.1)">
       <use xlink:href="#DejaVuSans-32"/>
       <use xlink:href="#DejaVuSans-30" transform="translate(63.623047 0)"/>
       <use xlink:href="#DejaVuSans-32" transform="translate(127.246094 0)"/>
       <use xlink:href="#DejaVuSans-34" transform="translate(190.869141 0)"/>
       <use xlink:href="#DejaVuSans-2d" transform="translate(254.492188 0)"/>
       <use xlink:href="#DejaVuSans-30" transform="translate(290.576172 0)"/>
       <use xlink:href="#DejaVuSans-37" transform="translate(354.199219 0)"/>
      </g>
     </g>
    </g>
    <g id="xtick_8">
     <g id="line2d_15">
      <path d="M 718.990371 320.4 
L 718.990371 43.2 
" clip-path="url(#pb16bfb69cb)" style="fill: none; stroke-dasharray: 5.12,1.28,0.8,1.28; stroke-dashoffset: 0; stroke: #b0b0b0; stroke-width: 0.8"/>
     </g>
     <g id="line2d_16">
      <g>
       <use xlink:href="#ma7b5fd71cd" x="718.990371" y="320.4" style="fill: #a9a9a9; stroke: #a9a9a9; stroke-width: 0.8"/>
      </g>
     </g>
     <g id="text_8">
      <!-- 2025-01 -->
      <g style="fill: #a9a9a9" transform="translate(698.098965 334.998438) scale(0.1 -0.1)">
       <defs>
        <path id="DejaVuSans-35" d="M 691 4666 
L 3169 4666 
L 3169 4134 
L 1269 4134 
L 1269 2991 
Q 1406 3038 1543 3061 
Q 1681 3084 1819 3084 
Q 2600 3084 3056 2656 
Q 3513 2228 3513 1497 
Q 3513 744 3044 326 
Q 2575 -91 1722 -91 
Q 1428 -91 1123 -41 
Q 819 9 494 109 
L 494 744 
Q 775 591 1075 516 
Q 1375 441 1709 441 
Q 2250 441 2565 725 
Q 2881 1009 2881 1497 
Q 2881 1984 2565 2268 
Q 2250 2553 1709 2553 
Q 1456 2553 1204 2497 
Q 953 2441 691 2322 
L 691 4666 
z
" transform="scale(0.015625)"/>
       </defs>
       <use xlink:href="#DejaVuSans-32"/>
       <use xlink:href="#DejaVuSans-30" transform="translate(63.623047 0)"/>
       <use xlink:href="#DejaVuSans-32" transform="translate(127.246094 0)"/>
       <use xlink:href="#DejaVuSans-35" transform="translate(190.869141 0)"/>
       <use xlink:href="#DejaVuSans-2d" transform="translate(254.492188 0)"/>
       <use xlink:href="#DejaVuSans-30" transform="translate(290.576172 0)"/>
       <use xlink:href="#DejaVuSans-31" transform="translate(354.199219 0)"/>
      </g>
     </g>
    </g>
   </g>
   <g id="matplotlib.axis_2">
    <g id="ytick_1">
     <g id="line2d_17">
      <path d="M 108 307.834142 
L 777.6 307.834142 
" clip-path="url(#pb16bfb69cb)" style="fill: none; stroke-dasharray: 5.12,1.28,0.8,1.28; stroke-dashoffset: 0; stroke: #b0b0b0; stroke-width: 0.8"/>
     </g>
     <g id="line2d_18">
      <defs>
       <path id="m96ff322f53" d="M 0 0 
L -3.5 0 
" style="stroke: #a9a9a9; stroke-width: 0.8"/>
      </defs>
      <g>
       <use xlink:href="#m96ff322f53" x="108" y="307.834142" style="fill: #a9a9a9; stroke: #a9a9a9; stroke-width: 0.8"/>
      </g>
     </g>
     <g id="text_9">
      <!-- 0 -->
      <g style="fill: #a9a9a9" transform="translate(94.6375 311.63336) scale(0.1 -0.1)">
       <use xlink:href="#DejaVuSans-30"/>
      </g>
     </g>
    </g>
    <g id="ytick_2">
     <g id="line2d_19">
      <path d="M 108 273.692427 
L 777.6 273.692427 
" clip-path="url(#pb16bfb69cb)" style="fill: none; stroke-dasharray: 5.12,1.28,0.8,1.28; stroke-dashoffset: 0; stroke: #b0b0b0; stroke-width: 0.8"/>
     </g>
     <g id="line2d_20">
      <g>
       <use xlink:href="#m96ff322f53" x="108" y="273.692427" style="fill: #a9a9a9; stroke: #a9a9a9; stroke-width: 0.8"/>
      </g>
     </g>
     <g id="text_10">
      <!-- 1000 -->
      <g style="fill: #a9a9a9" transform="translate(75.55 277.491645) scale(0.1 -0.1)">
       <use xlink:href="#DejaVuSans-31"/>
       <use xlink:href="#DejaVuSans-30" transform="translate(63.623047 0)"/>
       <use xlink:href="#DejaVuSans-30" transform="translate(127.246094 0)"/>
       <use xlink:href="#DejaVuSans-30" transform="translate(190.869141 0)"/>
      </g>
     </g>
    </g>
    <g id="ytick_3">
     <g id="line2d_21">
      <path d="M 108 239.550711 
L 777.6 239.550711 
" clip-path="url(#pb16bfb69cb)" style="fill: none; stroke-dasharray: 5.12,1.28,0.8,1.28; stroke-dashoffset: 0; stroke: #b0b0b0; stroke-width: 0.8"/>
     </g>
     <g id="line2d_22">
      <g>
       <use xlink:href="#m96ff322f53" x="108" y="239.550711" style="fill: #a9a9a9; stroke: #a9a9a9; stroke-width: 0.8"/>
      </g>
     </g>
     <g id="text_11">
      <!-- 2000 -->
      <g style="fill: #a9a9a9" transform="translate(75.55 243.34993) scale(0.1 -0.1)">
       <use xlink:href="#DejaVuSans-32"/>
       <use xlink:href="#DejaVuSans-30" transform="translate(63.623047 0)"/>
       <use xlink:href="#DejaVuSans-30" transform="translate(127.246094 0)"/>
       <use xlink:href="#DejaVuSans-30" transform="translate(190.869141 0)"/>
      </g>
     </g>
    </g>
    <g id="ytick_4">
     <g id="line2d_23">
      <path d="M 108 205.408996 
L 777.6 205.408996 
" clip-path="url(#pb16bfb69cb)" style="fill: none; stroke-dasharray: 5.12,1.28,0.8,1.28; stroke-dashoffset: 0; stroke: #b0b0b0; stroke-width: 0.8"/>
     </g>
     <g id="line2d_24">
      <g>
       <use xlink:href="#m96ff322f53" x="108" y="205.408996" style="fill: #a9a9a9; stroke: #a9a9a9; stroke-width: 0.8"/>
      </g>
     </g>
     <g id="text_12">
      <!-- 3000 -->
      <g style="fill: #a9a9a9" transform="translate(75.55 209.208215) scale(0.1 -0.1)">
       <use xlink:href="#DejaVuSans-33"/>
       <use xlink:href="#DejaVuSans-30" transform="translate(63.623047 0)"/>
       <use xlink:href="#DejaVuSans-30" transform="translate(127.246094 0)"/>
       <use xlink:href="#DejaVuSans-30" transform="translate(190.869141 0)"/>
      </g>
     </g>
    </g>
    <g id="ytick_5">
     <g id="line2d_25">
      <path d="M 108 171.267281 
L 777.6 171.267281 
" clip-path="url(#pb16bfb69cb)" style="fill: none; stroke-dasharray: 5.12,1.28,0.8,1.28; stroke-dashoffset: 0; stroke: #b0b0b0; stroke-width: 0.8"/>
     </g>
     <g id="line2d_26">
      <g>
       <use xlink:href="#m96ff322f53" x="108" y="171.267281" style="fill: #a9a9a9; stroke: #a9a9a9; stroke-width: 0.8"/>
      </g>
     </g>
     <g id="text_13">
      <!-- 4000 -->
      <g style="fill: #a9a9a9" transform="translate(75.55 175.0665) scale(0.1 -0.1)">
       <use xlink:href="#DejaVuSans-34"/>
       <use xlink:href="#DejaVuSans-30" transform="translate(63.623047 0)"/>
       <use xlink:href="#DejaVuSans-30" transform="translate(127.246094 0)"/>
       <use xlink:href="#DejaVuSans-30" transform="translate(190.869141 0)"/>
      </g>
     </g>
    </g>
    <g id="ytick_6">
     <g id="line2d_27">
      <path d="M 108 137.125566 
L 777.6 137.125566 
" clip-path="url(#pb16bfb69cb)" style="fill: none; stroke-dasharray: 5.12,1.28,0.8,1.28; stroke-dashoffset: 0; stroke: #b0b0b0; stroke-width: 0.8"/>
     </g>
     <g id="line2d_28">
      <g>
       <use xlink:href="#m96ff322f53" x="108" y="137.125566" style="fill: #a9a9a9; stroke: #a9a9a9; stroke-width: 0.8"/>
      </g>
     </g>
     <g id="text_14">
      <!-- 5000 -->
      <g style="fill: #a9a9a9" transform="translate(75.55 140.924784) scale(0.1 -0.1)">
       <use xlink:href="#DejaVuSans-35"/>
       <use xlink:href="#DejaVuSans-30" transform="translate(63.623047 0)"/>
       <use xlink:href="#DejaVuSans-30" transform="translate(127.246094 0)"/>
       <use xlink:href="#DejaVuSans-30" transform="translate(190.869141 0)"/>
      </g>
     </g>
    </g>
    <g id="ytick_7">
     <g id="line2d_29">
      <path d="M 108 102.98385 
L 777.6 102.98385 
" clip-path="url(#pb16bfb69cb)" style="fill: none; stroke-dasharray: 5.12,1.28,0.8,1.28; stroke-dashoffset: 0; stroke: #b0b0b0; stroke-width: 0.8"/>
     </g>
     <g id="line2d_30">
      <g>
       <use xlink:href="#m96ff322f53" x="108" y="102.98385" style="fill: #a9a9a9; stroke: #a9a9a9; stroke-width: 0.8"/>
      </g>
     </g>
     <g id="text_15">
      <!-- 6000 -->
      <g style="fill: #a9a9a9" transform="translate(75.55 106.783069) scale(0.1 -0.1)">
       <defs>
        <path id="DejaVuSans-36" d="M 2113 2584 
Q 1688 2584 1439 2293 
Q 1191 2003 1191 1497 
Q 1191 994 1439 701 
Q 1688 409 2113 409 
Q 2538 409 2786 701 
Q 3034 994 3034 1497 
Q 3034 2003 2786 2293 
Q 2538 2584 2113 2584 
z
M 3366 4563 
L 3366 3988 
Q 3128 4100 2886 4159 
Q 2644 4219 2406 4219 
Q 1781 4219 1451 3797 
Q 1122 3375 1075 2522 
Q 1259 2794 1537 2939 
Q 1816 3084 2150 3084 
Q 2853 3084 3261 2657 
Q 3669 2231 3669 1497 
Q 3669 778 3244 343 
Q 2819 -91 2113 -91 
Q 1303 -91 875 529 
Q 447 1150 447 2328 
Q 447 3434 972 4092 
Q 1497 4750 2381 4750 
Q 2619 4750 2861 4703 
Q 3103 4656 3366 4563 
z
" transform="scale(0.015625)"/>
       </defs>
       <use xlink:href="#DejaVuSans-36"/>
       <use xlink:href="#DejaVuSans-30" transform="translate(63.623047 0)"/>
       <use xlink:href="#DejaVuSans-30" transform="translate(127.246094 0)"/>
       <use xlink:href="#DejaVuSans-30" transform="translate(190.869141 0)"/>
      </g>
     </g>
    </g>
    <g id="ytick_8">
     <g id="line2d_31">
      <path d="M 108 68.842135 
L 777.6 68.842135 
" clip-path="url(#pb16bfb69cb)" style="fill: none; stroke-dasharray: 5.12,1.28,0.8,1.28; stroke-dashoffset: 0; stroke: #b0b0b0; stroke-width: 0.8"/>
     </g>
     <g id="line2d_32">
      <g>
       <use xlink:href="#m96ff322f53" x="108" y="68.842135" style="fill: #a9a9a9; stroke: #a9a9a9; stroke-width: 0.8"/>
      </g>
     </g>
     <g id="text_16">
      <!-- 7000 -->
      <g style="fill: #a9a9a9" transform="translate(75.55 72.641354) scale(0.1 -0.1)">
       <use xlink:href="#DejaVuSans-37"/>
       <use xlink:href="#DejaVuSans-30" transform="translate(63.623047 0)"/>
       <use xlink:href="#DejaVuSans-30" transform="translate(127.246094 0)"/>
       <use xlink:href="#DejaVuSans-30" transform="translate(190.869141 0)"/>
      </g>
     </g>
    </g>
   </g>
   <g id="line2d_33">
    <path d="M 138.436364 307.731717 
L 141.207504 307.492725 
L 141.669361 307.287874 
L 143.516789 307.048882 
L 145.364216 306.673323 
L 146.287929 306.536757 
L 148.597213 306.331906 
L 149.520927 305.956347 
L 149.982784 305.341797 
L 150.444641 305.034521 
L 150.906497 303.976128 
L 151.368354 303.907844 
L 151.830211 303.532286 
L 152.753925 303.054302 
L 154.601352 301.552066 
L 156.448779 300.63024 
L 157.83435 299.981547 
L 158.296206 299.230429 
L 159.21992 298.547595 
L 159.681777 298.342745 
L 164.300345 297.659911 
L 164.762202 297.45506 
L 167.995199 297.181927 
L 169.842627 296.738084 
L 173.537481 296.225959 
L 173.999338 295.986967 
L 174.461195 295.918683 
L 175.384908 295.611408 
L 178.617906 295.06514 
L 179.54162 294.792007 
L 183.698331 294.07503 
L 184.622044 293.87018 
L 185.545758 293.836038 
L 187.393185 293.392196 
L 187.855042 292.743504 
L 189.240612 292.197236 
L 190.626183 291.821677 
L 191.08804 291.582685 
L 192.011753 291.411977 
L 193.859181 290.865709 
L 194.782894 290.797426 
L 195.706608 290.558434 
L 197.554035 290.08045 
L 198.015892 290.046308 
L 198.939605 289.602466 
L 199.401462 289.534182 
L 199.863319 289.29519 
L 204.943744 288.441647 
L 206.791171 287.89538 
L 207.253028 287.588105 
L 209.562312 286.836987 
L 210.486026 286.188294 
L 211.871596 285.915161 
L 223.879873 282.466847 
L 224.34173 282.466847 
L 224.803587 282.261997 
L 225.7273 282.159572 
L 226.189157 281.988863 
L 228.036584 281.92058 
L 228.960298 281.749871 
L 229.884012 281.271887 
L 231.269582 280.759762 
L 231.731439 280.452486 
L 232.655152 280.042786 
L 233.117009 279.803794 
L 234.040723 279.496518 
L 234.50258 279.359951 
L 235.426293 278.779542 
L 235.88815 278.267416 
L 236.811864 276.833464 
L 237.273721 276.696897 
L 237.735577 276.696897 
L 239.121148 275.877496 
L 239.583005 275.638504 
L 240.044861 275.536079 
L 240.506718 275.092237 
L 241.430432 274.716678 
L 242.354145 274.272836 
L 244.663429 271.302506 
L 247.43457 269.800271 
L 248.358284 269.049153 
L 248.820141 268.741878 
L 249.281998 268.093185 
L 249.743854 267.034792 
L 250.205711 266.317816 
L 250.667568 265.942257 
L 251.129425 265.737407 
L 254.824279 262.323235 
L 255.747993 261.469692 
L 258.519134 259.728465 
L 258.98099 259.557756 
L 260.366561 258.738355 
L 261.752131 257.816529 
L 263.599559 256.143585 
L 264.523272 255.768026 
L 265.446986 255.119333 
L 265.908843 254.8462 
L 266.370699 254.777916 
L 267.75627 253.992657 
L 268.218127 253.480531 
L 270.527411 252.217288 
L 270.989267 252.046579 
L 272.374838 251.090611 
L 279.30269 248.632408 
L 280.226404 247.778865 
L 281.611974 247.09603 
L 282.535688 246.515621 
L 283.459401 246.242487 
L 283.921258 245.935212 
L 284.383115 245.798645 
L 285.768685 244.876819 
L 288.077969 244.330551 
L 289.46354 243.51115 
L 290.84911 243.203875 
L 291.310967 243.067308 
L 292.696537 242.008915 
L 294.543965 241.496789 
L 295.005821 241.12123 
L 297.776962 240.165262 
L 298.700676 239.994554 
L 299.62439 239.618995 
L 302.857387 238.424035 
L 303.781101 238.287468 
L 305.166671 237.809484 
L 307.475955 236.682807 
L 309.323383 235.658556 
L 313.018237 234.122179 
L 313.480094 234.053895 
L 314.403807 233.473486 
L 314.865664 233.405203 
L 316.713091 232.654085 
L 318.560519 232.415093 
L 319.484232 231.937109 
L 319.946089 231.527408 
L 320.407946 230.673865 
L 322.255373 230.16174 
L 323.640944 229.444764 
L 324.564657 229.137488 
L 325.488371 228.659504 
L 328.259512 227.532828 
L 329.183225 227.327977 
L 330.106939 226.849993 
L 330.568796 226.645143 
L 331.030653 226.57686 
L 332.87808 225.723317 
L 334.26365 224.835632 
L 335.649221 224.562498 
L 337.496648 224.050373 
L 337.958505 224.016231 
L 338.420361 223.640672 
L 339.344075 223.333397 
L 341.653359 222.41157 
L 342.115216 222.070153 
L 342.577073 221.899445 
L 343.500786 221.387319 
L 345.348214 220.80691 
L 346.271927 220.2265 
L 346.733784 219.748516 
L 347.195641 219.475383 
L 347.657498 219.372958 
L 348.581211 218.62184 
L 349.043068 218.553556 
L 349.504925 217.802439 
L 349.966782 217.597588 
L 350.428638 217.22203 
L 350.890495 217.153746 
L 351.814209 216.573337 
L 352.737922 216.266062 
L 353.199779 215.924644 
L 353.661636 215.753936 
L 355.509063 214.524834 
L 356.894634 213.807858 
L 357.818347 213.568866 
L 358.742061 213.05674 
L 359.203918 212.271481 
L 360.127631 211.588647 
L 360.589488 211.486221 
L 363.360629 210.154694 
L 364.284343 209.779136 
L 365.669913 208.618317 
L 366.593627 207.833058 
L 367.51734 207.28679 
L 367.979197 206.774665 
L 368.441054 206.467389 
L 369.364768 205.716272 
L 369.826624 205.511421 
L 370.750338 204.589595 
L 371.674052 204.282319 
L 372.597765 203.667769 
L 373.983336 202.950793 
L 374.445192 202.882509 
L 375.830763 202.131391 
L 376.754476 201.550982 
L 381.373045 199.843896 
L 381.834901 199.468338 
L 383.682329 198.751362 
L 384.144185 198.614795 
L 385.067899 198.000244 
L 385.991613 197.590543 
L 386.915326 196.941851 
L 387.83904 195.098198 
L 388.762753 194.005663 
L 390.148324 193.288687 
L 391.072038 192.913128 
L 391.533894 192.844845 
L 391.995751 192.571711 
L 394.305035 191.820593 
L 394.766892 191.615743 
L 395.690606 190.967051 
L 397.076176 190.386641 
L 397.99989 189.874516 
L 400.77103 187.96258 
L 403.080315 186.699336 
L 405.851455 185.299526 
L 407.237026 184.889825 
L 408.622596 184.343558 
L 409.084453 184.002141 
L 410.008167 183.729007 
L 410.93188 183.353448 
L 411.393737 182.977889 
L 413.241164 182.329197 
L 414.164878 181.646362 
L 415.088592 181.270803 
L 416.012305 180.553827 
L 416.936019 180.280694 
L 417.397876 179.870993 
L 417.859732 179.80271 
L 418.783446 179.085734 
L 419.70716 178.60775 
L 420.169016 178.402899 
L 420.630873 177.924915 
L 423.863871 176.62753 
L 424.787584 176.21783 
L 426.173155 175.773987 
L 427.096869 175.63742 
L 427.558725 175.43257 
L 428.020582 175.364287 
L 428.944296 174.954586 
L 429.406153 174.920444 
L 431.25358 174.23761 
L 432.63915 173.2475 
L 433.101007 173.076792 
L 434.024721 172.564666 
L 434.486577 172.428099 
L 437.257718 170.85758 
L 437.719575 170.755155 
L 439.105146 169.935754 
L 440.490716 169.45777 
L 441.41443 169.150495 
L 443.261857 168.535944 
L 444.18557 168.228668 
L 446.032998 167.853109 
L 446.494854 167.648259 
L 446.956711 167.579976 
L 447.880425 167.170275 
L 448.342282 167.101992 
L 448.804139 166.863 
L 449.727852 166.692291 
L 451.113423 166.180165 
L 452.037136 166.07774 
L 453.422707 165.770465 
L 455.731991 165.360764 
L 467.740268 161.810026 
L 468.202124 161.332042 
L 469.125838 160.956483 
L 472.820693 159.556673 
L 473.282549 159.283539 
L 474.66812 158.873838 
L 475.591833 158.634846 
L 476.05369 158.327571 
L 476.515547 158.225146 
L 476.977404 157.815445 
L 478.362974 157.542311 
L 479.286688 157.098469 
L 479.748545 156.552202 
L 481.595972 156.108359 
L 484.82897 155.425525 
L 485.290826 155.425525 
L 485.752683 155.220675 
L 487.60011 154.879258 
L 488.061967 154.674407 
L 489.909394 154.33299 
L 490.833108 153.92329 
L 491.756822 153.752581 
L 494.066106 153.172172 
L 495.913533 152.591763 
L 496.37539 152.489337 
L 496.837247 152.250345 
L 497.76096 152.011353 
L 498.684674 151.635795 
L 499.608387 151.294377 
L 500.070244 150.987102 
L 500.993958 150.713968 
L 504.688812 149.450725 
L 505.612526 149.382441 
L 507.459953 148.836174 
L 507.92181 148.56304 
L 508.845524 148.289907 
L 511.154808 147.231513 
L 511.616664 147.197372 
L 516.697089 145.387861 
L 519.006373 144.77331 
L 519.930087 144.329468 
L 521.315657 144.022192 
L 523.163085 142.519957 
L 524.086798 142.246823 
L 524.548655 141.871264 
L 527.319796 140.812871 
L 527.781653 140.505595 
L 528.705366 140.232462 
L 529.167223 139.925186 
L 531.476507 139.174069 
L 532.862078 138.388809 
L 533.323934 138.286384 
L 535.633218 137.02314 
L 537.018789 136.40859 
L 537.480646 136.067172 
L 538.404359 135.759897 
L 539.328073 135.21363 
L 539.78993 135.042921 
L 540.251786 134.701504 
L 546.255925 132.584718 
L 546.717782 132.482292 
L 547.179639 132.175017 
L 549.027066 131.799458 
L 549.950779 131.423899 
L 552.72192 130.092372 
L 553.183777 130.024089 
L 554.569347 129.238829 
L 555.954918 128.760845 
L 559.187916 127.429319 
L 559.649772 127.292752 
L 560.111629 126.985476 
L 561.035343 126.883051 
L 561.4972 126.575776 
L 562.420913 126.405067 
L 563.344627 125.961225 
L 563.806484 125.756374 
L 564.26834 125.688091 
L 565.192054 125.380816 
L 568.425052 124.254139 
L 569.810622 123.946864 
L 571.658049 123.161604 
L 572.581763 122.649478 
L 574.42919 121.727652 
L 575.352904 121.522802 
L 575.814761 121.249668 
L 576.276617 121.147243 
L 577.662188 120.361983 
L 578.585902 119.986425 
L 580.433329 119.269449 
L 582.742613 118.484189 
L 583.666326 118.006205 
L 585.97561 117.220946 
L 588.746751 116.094269 
L 590.594179 115.240726 
L 595.212747 113.431215 
L 595.674603 113.12394 
L 597.522031 112.509389 
L 597.983887 112.509389 
L 598.907601 112.099688 
L 600.755028 110.597453 
L 601.216885 110.460886 
L 601.678742 110.187752 
L 602.140599 110.085327 
L 602.602456 109.846335 
L 603.064312 109.778052 
L 603.526169 109.436635 
L 603.988026 109.334209 
L 604.91174 108.7538 
L 606.29731 108.036824 
L 607.221024 107.661265 
L 607.68288 107.422273 
L 609.068451 107.114998 
L 611.377735 106.329739 
L 612.301448 106.022463 
L 613.687019 105.305487 
L 614.610733 104.861645 
L 615.534446 104.622653 
L 616.920017 103.97396 
L 621.076728 102.437583 
L 622.462298 101.58404 
L 622.924155 101.481615 
L 623.847869 101.037773 
L 624.771582 100.696356 
L 625.233439 100.286655 
L 626.157153 99.911096 
L 627.542723 99.433112 
L 628.00458 99.057553 
L 628.466437 99.023411 
L 629.39015 98.750278 
L 630.313864 98.443002 
L 630.775721 98.238152 
L 631.237578 98.169869 
L 632.623148 97.657743 
L 634.008718 97.145617 
L 635.856146 96.326216 
L 636.318002 96.257933 
L 640.012857 94.721555 
L 641.398427 94.277713 
L 642.322141 94.20943 
L 643.245855 93.833871 
L 646.016995 93.01447 
L 646.940709 92.980328 
L 650.635564 91.785368 
L 651.559277 91.273242 
L 652.021134 90.863542 
L 653.406704 90.04414 
L 654.330418 89.497873 
L 657.101559 88.610188 
L 657.563416 88.234629 
L 660.334556 87.073811 
L 662.181984 86.561685 
L 663.105697 86.151985 
L 663.567554 85.912993 
L 664.491268 85.639859 
L 664.953125 85.366725 
L 665.876838 85.196017 
L 669.571693 83.591356 
L 670.033549 83.523073 
L 670.495406 83.215797 
L 670.957263 83.045089 
L 671.41912 82.635388 
L 671.880977 82.567105 
L 673.728404 81.850129 
L 675.575831 81.406286 
L 676.037688 81.338003 
L 676.499545 81.133153 
L 676.961402 81.099011 
L 677.885115 80.791736 
L 678.346972 80.757594 
L 679.732542 80.211326 
L 681.57997 79.665059 
L 682.503683 78.982225 
L 684.35111 77.957973 
L 685.736681 77.479989 
L 689.431535 75.738762 
L 689.893392 75.49977 
L 690.355249 75.055927 
L 693.12639 74.168243 
L 694.050103 73.792684 
L 694.973817 73.553692 
L 695.435674 73.3147 
L 695.897531 72.939141 
L 697.744958 72.461157 
L 698.206815 72.11974 
L 704.210953 69.93467 
L 705.134667 69.763962 
L 709.291378 68.295868 
L 710.215092 68.056876 
L 710.676949 67.852025 
L 711.138805 67.852025 
L 712.062519 67.476467 
L 712.986233 66.930199 
L 715.295517 66.14494 
L 716.681087 65.666956 
L 717.142944 65.598672 
L 718.066657 65.223113 
L 719.452228 64.915838 
L 720.837798 64.471996 
L 721.299655 64.369571 
L 721.761512 64.062295 
L 722.685226 63.857445 
L 731.922362 61.194391 
L 734.231646 60.78469 
L 735.155359 60.340848 
L 735.617216 60.033573 
L 739.312071 58.736188 
L 740.235784 58.463054 
L 742.083211 57.711936 
L 742.545068 57.370519 
L 743.930639 57.063243 
L 744.854352 56.79011 
L 745.778066 56.312126 
L 746.239923 55.902425 
L 747.163636 55.8 
L 747.163636 55.8 
" clip-path="url(#pb16bfb69cb)" style="fill: none; stroke: #1f77b4; stroke-width: 1.5; stroke-linecap: square"/>
   </g>
   <g id="line2d_34">
    <path d="M 138.89822 307.8 
L 143.054932 307.697575 
L 146.749786 307.526866 
L 148.597213 307.526866 
L 149.05907 307.390299 
L 151.368354 307.287874 
L 154.139495 306.980599 
L 156.910636 306.878174 
L 157.83435 306.775749 
L 161.067347 306.639182 
L 164.300345 306.536757 
L 166.609629 306.468473 
L 172.613767 306.366048 
L 174.923051 306.297765 
L 178.156049 306.195339 
L 180.465333 306.127056 
L 185.545758 306.024631 
L 187.393185 305.853922 
L 189.240612 305.819781 
L 192.011753 305.717355 
L 193.859181 305.683214 
L 196.168465 305.61493 
L 198.015892 305.444222 
L 202.172603 305.341797 
L 203.096317 305.273513 
L 204.943744 305.171088 
L 207.714885 305.068663 
L 209.562312 304.966238 
L 217.875735 304.454112 
L 221.108732 304.351687 
L 222.494303 304.21512 
L 224.803587 304.112695 
L 229.422155 303.873703 
L 234.040723 303.805419 
L 235.88815 303.600569 
L 237.735577 303.498144 
L 242.816002 303.02016 
L 246.049 302.644601 
L 247.43457 302.576318 
L 251.129425 302.098334 
L 253.900566 302.03005 
L 255.286136 301.893483 
L 256.671706 301.791058 
L 269.603697 300.800948 
L 270.527411 300.63024 
L 273.298552 300.527815 
L 280.68826 300.083972 
L 283.921258 299.981547 
L 285.768685 299.776697 
L 288.077969 299.674272 
L 290.84911 299.571847 
L 293.158394 299.469421 
L 295.005821 299.43528 
L 297.315106 299.366996 
L 298.238819 299.230429 
L 304.704814 299.128004 
L 305.628528 299.025579 
L 311.17081 298.923154 
L 315.327521 298.718304 
L 318.560519 298.615879 
L 320.407946 298.411028 
L 323.640944 298.308603 
L 324.564657 298.137895 
L 326.873941 298.069611 
L 331.492509 298.001328 
L 333.339937 297.830619 
L 335.187364 297.796477 
L 336.572934 297.694052 
L 338.420361 297.523344 
L 343.03893 297.284352 
L 347.657498 297.181927 
L 351.814209 296.977076 
L 353.199779 296.942935 
L 354.123493 296.806368 
L 356.432777 296.703943 
L 357.356491 296.635659 
L 358.280204 296.567376 
L 359.203918 296.499092 
L 363.360629 296.430809 
L 364.746199 296.328384 
L 377.216333 295.508983 
L 379.525617 295.406557 
L 381.834901 295.338274 
L 388.300897 295.235849 
L 389.22461 295.099282 
L 395.690606 294.996857 
L 400.309174 294.757865 
L 401.232887 294.723723 
L 402.156601 294.621298 
L 404.465885 294.518873 
L 406.775169 294.450589 
L 409.084453 294.348164 
L 411.393737 294.279881 
L 415.550448 294.177456 
L 418.321589 294.07503 
L 424.787584 293.972605 
L 429.868009 293.699472 
L 431.715437 293.631188 
L 433.101007 293.528763 
L 439.567002 293.426338 
L 442.338143 293.323913 
L 450.651566 293.221488 
L 452.498993 293.187346 
L 458.041275 293.119062 
L 458.964988 293.050779 
L 465.430984 292.948354 
L 467.278411 292.914212 
L 479.286688 292.811787 
L 480.672258 292.67522 
L 501.455815 292.572795 
L 503.765099 292.504512 
L 515.773376 292.436228 
L 516.697089 292.367945 
L 519.006373 292.299661 
L 520.391944 292.163094 
L 523.163085 292.060669 
L 526.396082 291.924102 
L 530.552793 291.821677 
L 532.862078 291.753394 
L 536.095075 291.650969 
L 539.78993 291.48026 
L 542.099214 291.377835 
L 543.946641 291.343693 
L 548.103352 291.241268 
L 549.950779 291.207126 
L 555.954918 291.104701 
L 557.802345 291.07056 
L 560.111629 290.968134 
L 562.88277 290.865709 
L 566.115768 290.797426 
L 567.039481 290.729142 
L 578.124045 290.626717 
L 584.128183 290.2853 
L 586.437467 290.217017 
L 587.361181 290.114592 
L 588.284894 290.046308 
L 591.979749 289.943883 
L 594.75089 289.841458 
L 599.369458 289.739033 
L 601.678742 289.500041 
L 606.29731 289.397615 
L 607.221024 289.29519 
L 611.839592 289.192765 
L 614.148876 289.124482 
L 619.229301 289.09034 
L 620.153014 288.987915 
L 625.233439 288.88549 
L 626.157153 288.817206 
L 636.318002 288.714781 
L 639.089143 288.612356 
L 646.016995 288.509931 
L 647.864423 288.475789 
L 652.021134 288.407506 
L 652.944848 288.305081 
L 658.948986 288.202655 
L 661.25827 288.134372 
L 669.571693 288.031947 
L 670.957263 287.929522 
L 672.342833 287.827097 
L 673.728404 287.724671 
L 680.656256 287.622246 
L 683.427397 287.519821 
L 695.897531 287.417396 
L 700.054242 287.212546 
L 705.596524 287.110121 
L 706.520237 287.041837 
L 713.448089 286.973554 
L 714.371803 286.90527 
L 719.452228 286.802845 
L 721.299655 286.768703 
L 727.76565 286.666278 
L 730.536791 286.563853 
L 738.388357 286.461428 
L 740.235784 286.427286 
L 744.392496 286.324861 
L 747.163636 286.222436 
L 747.163636 286.222436 
" clip-path="url(#pb16bfb69cb)" style="fill: none; stroke: #ff7f0e; stroke-width: 1.5; stroke-linecap: square"/>
   </g>
   <g id="patch_3">
    <path d="M 108 320.4 
L 108 43.2 
" style="fill: none; stroke: #a9a9a9; stroke-width: 0.8; stroke-linejoin: miter; stroke-linecap: square"/>
   </g>
   <g id="patch_4">
    <path d="M 777.6 320.4 
L 777.6 43.2 
" style="fill: none"/>
   </g>
   <g id="patch_5">
    <path d="M 108 320.4 
L 777.6 320.4 
" style="fill: none; stroke: #a9a9a9; stroke-width: 0.8; stroke-linejoin: miter; stroke-linecap: square"/>
   </g>
   <g id="patch_6">
    <path d="M 108 43.2 
L 777.6 43.2 
" style="fill: none"/>
   </g>
   <g id="text_17">
    <!-- get_subscribe history -->
    <g style="fill: #a9a9a9" transform="translate(378.6075 37.2) scale(0.12 -0.12)">
     <defs>
      <path id="DejaVuSans-67" d="M 2906 1791 
Q 2906 2416 2648 2759 
Q 2391 3103 1925 3103 
Q 1463 3103 1205 2759 
Q 947 2416 947 1791 
Q 947 1169 1205 825 
Q 1463 481 1925 481 
Q 2391 481 2648 825 
Q 2906 1169 2906 1791 
z
M 3481 434 
Q 3481 -459 3084 -895 
Q 2688 -1331 1869 -1331 
Q 1566 -1331 1297 -1286 
Q 1028 -1241 775 -1147 
L 775 -588 
Q 1028 -725 1275 -790 
Q 1522 -856 1778 -856 
Q 2344 -856 2625 -561 
Q 2906 -266 2906 331 
L 2906 616 
Q 2728 306 2450 153 
Q 2172 0 1784 0 
Q 1141 0 747 490 
Q 353 981 353 1791 
Q 353 2603 747 3093 
Q 1141 3584 1784 3584 
Q 2172 3584 2450 3431 
Q 2728 3278 2906 2969 
L 2906 3500 
L 3481 3500 
L 3481 434 
z
" transform="scale(0.015625)"/>
      <path id="DejaVuSans-65" d="M 3597 1894 
L 3597 1613 
L 953 1613 
Q 991 1019 1311 708 
Q 1631 397 2203 397 
Q 2534 397 2845 478 
Q 3156 559 3463 722 
L 3463 178 
Q 3153 47 2828 -22 
Q 2503 -91 2169 -91 
Q 1331 -91 842 396 
Q 353 884 353 1716 
Q 353 2575 817 3079 
Q 1281 3584 2069 3584 
Q 2775 3584 3186 3129 
Q 3597 2675 3597 1894 
z
M 3022 2063 
Q 3016 2534 2758 2815 
Q 2500 3097 2075 3097 
Q 1594 3097 1305 2825 
Q 1016 2553 972 2059 
L 3022 2063 
z
" transform="scale(0.015625)"/>
      <path id="DejaVuSans-74" d="M 1172 4494 
L 1172 3500 
L 2356 3500 
L 2356 3053 
L 1172 3053 
L 1172 1153 
Q 1172 725 1289 603 
Q 1406 481 1766 481 
L 2356 481 
L 2356 0 
L 1766 0 
Q 1100 0 847 248 
Q 594 497 594 1153 
L 594 3053 
L 172 3053 
L 172 3500 
L 594 3500 
L 594 4494 
L 1172 4494 
z
" transform="scale(0.015625)"/>
      <path id="DejaVuSans-5f" d="M 3263 -1063 
L 3263 -1509 
L -63 -1509 
L -63 -1063 
L 3263 -1063 
z
" transform="scale(0.015625)"/>
      <path id="DejaVuSans-73" d="M 2834 3397 
L 2834 2853 
Q 2591 2978 2328 3040 
Q 2066 3103 1784 3103 
Q 1356 3103 1142 2972 
Q 928 2841 928 2578 
Q 928 2378 1081 2264 
Q 1234 2150 1697 2047 
L 1894 2003 
Q 2506 1872 2764 1633 
Q 3022 1394 3022 966 
Q 3022 478 2636 193 
Q 2250 -91 1575 -91 
Q 1294 -91 989 -36 
Q 684 19 347 128 
L 347 722 
Q 666 556 975 473 
Q 1284 391 1588 391 
Q 1994 391 2212 530 
Q 2431 669 2431 922 
Q 2431 1156 2273 1281 
Q 2116 1406 1581 1522 
L 1381 1569 
Q 847 1681 609 1914 
Q 372 2147 372 2553 
Q 372 3047 722 3315 
Q 1072 3584 1716 3584 
Q 2034 3584 2315 3537 
Q 2597 3491 2834 3397 
z
" transform="scale(0.015625)"/>
      <path id="DejaVuSans-75" d="M 544 1381 
L 544 3500 
L 1119 3500 
L 1119 1403 
Q 1119 906 1312 657 
Q 1506 409 1894 409 
Q 2359 409 2629 706 
Q 2900 1003 2900 1516 
L 2900 3500 
L 3475 3500 
L 3475 0 
L 2900 0 
L 2900 538 
Q 2691 219 2414 64 
Q 2138 -91 1772 -91 
Q 1169 -91 856 284 
Q 544 659 544 1381 
z
M 1991 3584 
L 1991 3584 
z
" transform="scale(0.015625)"/>
      <path id="DejaVuSans-62" d="M 3116 1747 
Q 3116 2381 2855 2742 
Q 2594 3103 2138 3103 
Q 1681 3103 1420 2742 
Q 1159 2381 1159 1747 
Q 1159 1113 1420 752 
Q 1681 391 2138 391 
Q 2594 391 2855 752 
Q 3116 1113 3116 1747 
z
M 1159 2969 
Q 1341 3281 1617 3432 
Q 1894 3584 2278 3584 
Q 2916 3584 3314 3078 
Q 3713 2572 3713 1747 
Q 3713 922 3314 415 
Q 2916 -91 2278 -91 
Q 1894 -91 1617 61 
Q 1341 213 1159 525 
L 1159 0 
L 581 0 
L 581 4863 
L 1159 4863 
L 1159 2969 
z
" transform="scale(0.015625)"/>
      <path id="DejaVuSans-63" d="M 3122 3366 
L 3122 2828 
Q 2878 2963 2633 3030 
Q 2388 3097 2138 3097 
Q 1578 3097 1268 2742 
Q 959 2388 959 1747 
Q 959 1106 1268 751 
Q 1578 397 2138 397 
Q 2388 397 2633 464 
Q 2878 531 3122 666 
L 3122 134 
Q 2881 22 2623 -34 
Q 2366 -91 2075 -91 
Q 1284 -91 818 406 
Q 353 903 353 1747 
Q 353 2603 823 3093 
Q 1294 3584 2113 3584 
Q 2378 3584 2631 3529 
Q 2884 3475 3122 3366 
z
" transform="scale(0.015625)"/>
      <path id="DejaVuSans-72" d="M 2631 2963 
Q 2534 3019 2420 3045 
Q 2306 3072 2169 3072 
Q 1681 3072 1420 2755 
Q 1159 2438 1159 1844 
L 1159 0 
L 581 0 
L 581 3500 
L 1159 3500 
L 1159 2956 
Q 1341 3275 1631 3429 
Q 1922 3584 2338 3584 
Q 2397 3584 2469 3576 
Q 2541 3569 2628 3553 
L 2631 2963 
z
" transform="scale(0.015625)"/>
      <path id="DejaVuSans-69" d="M 603 3500 
L 1178 3500 
L 1178 0 
L 603 0 
L 603 3500 
z
M 603 4863 
L 1178 4863 
L 1178 4134 
L 603 4134 
L 603 4863 
z
" transform="scale(0.015625)"/>
      <path id="DejaVuSans-20" transform="scale(0.015625)"/>
      <path id="DejaVuSans-68" d="M 3513 2113 
L 3513 0 
L 2938 0 
L 2938 2094 
Q 2938 2591 2744 2837 
Q 2550 3084 2163 3084 
Q 1697 3084 1428 2787 
Q 1159 2491 1159 1978 
L 1159 0 
L 581 0 
L 581 4863 
L 1159 4863 
L 1159 2956 
Q 1366 3272 1645 3428 
Q 1925 3584 2291 3584 
Q 2894 3584 3203 3211 
Q 3513 2838 3513 2113 
z
" transform="scale(0.015625)"/>
      <path id="DejaVuSans-6f" d="M 1959 3097 
Q 1497 3097 1228 2736 
Q 959 2375 959 1747 
Q 959 1119 1226 758 
Q 1494 397 1959 397 
Q 2419 397 2687 759 
Q 2956 1122 2956 1747 
Q 2956 2369 2687 2733 
Q 2419 3097 1959 3097 
z
M 1959 3584 
Q 2709 3584 3137 3096 
Q 3566 2609 3566 1747 
Q 3566 888 3137 398 
Q 2709 -91 1959 -91 
Q 1206 -91 779 398 
Q 353 888 353 1747 
Q 353 2609 779 3096 
Q 1206 3584 1959 3584 
z
" transform="scale(0.015625)"/>
      <path id="DejaVuSans-79" d="M 2059 -325 
Q 1816 -950 1584 -1140 
Q 1353 -1331 966 -1331 
L 506 -1331 
L 506 -850 
L 844 -850 
Q 1081 -850 1212 -737 
Q 1344 -625 1503 -206 
L 1606 56 
L 191 3500 
L 800 3500 
L 1894 763 
L 2988 3500 
L 3597 3500 
L 2059 -325 
z
" transform="scale(0.015625)"/>
     </defs>
     <use xlink:href="#DejaVuSans-67"/>
     <use xlink:href="#DejaVuSans-65" transform="translate(63.476562 0)"/>
     <use xlink:href="#DejaVuSans-74" transform="translate(125 0)"/>
     <use xlink:href="#DejaVuSans-5f" transform="translate(164.208984 0)"/>
     <use xlink:href="#DejaVuSans-73" transform="translate(214.208984 0)"/>
     <use xlink:href="#DejaVuSans-75" transform="translate(266.308594 0)"/>
     <use xlink:href="#DejaVuSans-62" transform="translate(329.6875 0)"/>
     <use xlink:href="#DejaVuSans-73" transform="translate(393.164062 0)"/>
     <use xlink:href="#DejaVuSans-63" transform="translate(445.263672 0)"/>
     <use xlink:href="#DejaVuSans-72" transform="translate(500.244141 0)"/>
     <use xlink:href="#DejaVuSans-69" transform="translate(541.357422 0)"/>
     <use xlink:href="#DejaVuSans-62" transform="translate(569.140625 0)"/>
     <use xlink:href="#DejaVuSans-65" transform="translate(632.617188 0)"/>
     <use xlink:href="#DejaVuSans-20" transform="translate(694.140625 0)"/>
     <use xlink:href="#DejaVuSans-68" transform="translate(725.927734 0)"/>
     <use xlink:href="#DejaVuSans-69" transform="translate(789.306641 0)"/>
     <use xlink:href="#DejaVuSans-73" transform="translate(817.089844 0)"/>
     <use xlink:href="#DejaVuSans-74" transform="translate(869.189453 0)"/>
     <use xlink:href="#DejaVuSans-6f" transform="translate(908.398438 0)"/>
     <use xlink:href="#DejaVuSans-72" transform="translate(969.580078 0)"/>
     <use xlink:href="#DejaVuSans-79" transform="translate(1010.693359 0)"/>
    </g>
   </g>
   <g id="legend_1">
    <g id="line2d_35">
     <path d="M 815.08 328.498438 
L 825.08 328.498438 
L 835.08 328.498438 
" style="fill: none; stroke: #1f77b4; stroke-width: 1.5; stroke-linecap: square"/>
    </g>
    <g id="text_18">
     <!-- star -->
     <g style="fill: #a9a9a9" transform="translate(843.08 331.998438) scale(0.1 -0.1)">
      <defs>
       <path id="DejaVuSans-61" d="M 2194 1759 
Q 1497 1759 1228 1600 
Q 959 1441 959 1056 
Q 959 750 1161 570 
Q 1363 391 1709 391 
Q 2188 391 2477 730 
Q 2766 1069 2766 1631 
L 2766 1759 
L 2194 1759 
z
M 3341 1997 
L 3341 0 
L 2766 0 
L 2766 531 
Q 2569 213 2275 61 
Q 1981 -91 1556 -91 
Q 1019 -91 701 211 
Q 384 513 384 1019 
Q 384 1609 779 1909 
Q 1175 2209 1959 2209 
L 2766 2209 
L 2766 2266 
Q 2766 2663 2505 2880 
Q 2244 3097 1772 3097 
Q 1472 3097 1187 3025 
Q 903 2953 641 2809 
L 641 3341 
Q 956 3463 1253 3523 
Q 1550 3584 1831 3584 
Q 2591 3584 2966 3190 
Q 3341 2797 3341 1997 
z
" transform="scale(0.015625)"/>
      </defs>
      <use xlink:href="#DejaVuSans-73"/>
      <use xlink:href="#DejaVuSans-74" transform="translate(52.099609 0)"/>
      <use xlink:href="#DejaVuSans-61" transform="translate(91.308594 0)"/>
      <use xlink:href="#DejaVuSans-72" transform="translate(152.587891 0)"/>
     </g>
    </g>
    <g id="line2d_36">
     <path d="M 815.08 343.176562 
L 825.08 343.176562 
L 835.08 343.176562 
" style="fill: none; stroke: #ff7f0e; stroke-width: 1.5; stroke-linecap: square"/>
    </g>
    <g id="text_19">
     <!-- fork -->
     <g style="fill: #a9a9a9" transform="translate(843.08 346.676562) scale(0.1 -0.1)">
      <defs>
       <path id="DejaVuSans-66" d="M 2375 4863 
L 2375 4384 
L 1825 4384 
Q 1516 4384 1395 4259 
Q 1275 4134 1275 3809 
L 1275 3500 
L 2222 3500 
L 2222 3053 
L 1275 3053 
L 1275 0 
L 697 0 
L 697 3053 
L 147 3053 
L 147 3500 
L 697 3500 
L 697 3744 
Q 697 4328 969 4595 
Q 1241 4863 1831 4863 
L 2375 4863 
z
" transform="scale(0.015625)"/>
       <path id="DejaVuSans-6b" d="M 581 4863 
L 1159 4863 
L 1159 1991 
L 2875 3500 
L 3609 3500 
L 1753 1863 
L 3688 0 
L 2938 0 
L 1159 1709 
L 1159 0 
L 581 0 
L 581 4863 
z
" transform="scale(0.015625)"/>
      </defs>
      <use xlink:href="#DejaVuSans-66"/>
      <use xlink:href="#DejaVuSans-6f" transform="translate(35.205078 0)"/>
      <use xlink:href="#DejaVuSans-72" transform="translate(96.386719 0)"/>
      <use xlink:href="#DejaVuSans-6b" transform="translate(137.5 0)"/>
     </g>
    </g>
   </g>
  </g>
 </g>
 <defs>
  <clipPath id="pb16bfb69cb">
   <rect x="108" y="43.2" width="669.6" height="277.2"/>
  </clipPath>
 </defs>
</svg>
