<?xml version="1.0" encoding="utf-8" standalone="no"?>
<!DOCTYPE svg PUBLIC "-//W3C//DTD SVG 1.1//EN"
  "http://www.w3.org/Graphics/SVG/1.1/DTD/svg11.dtd">
<svg xmlns:xlink="http://www.w3.org/1999/xlink" width="864pt" height="360pt" viewBox="0 0 864 360" xmlns="http://www.w3.org/2000/svg" version="1.1">
 <metadata>
  <rdf:RDF xmlns:dc="http://purl.org/dc/elements/1.1/" xmlns:cc="http://creativecommons.org/ns#" xmlns:rdf="http://www.w3.org/1999/02/22-rdf-syntax-ns#">
   <cc:Work>
    <dc:type rdf:resource="http://purl.org/dc/dcmitype/StillImage"/>
    <dc:date>2024-10-09T20:05:55.912974</dc:date>
    <dc:format>image/svg+xml</dc:format>
    <dc:creator>
     <cc:Agent>
      <dc:title>Matplotlib v3.9.2, https://matplotlib.org/</dc:title>
     </cc:Agent>
    </dc:creator>
   </cc:Work>
  </rdf:RDF>
 </metadata>
 <defs>
  <style type="text/css">*{stroke-linejoin: round; stroke-linecap: butt}</style>
 </defs>
 <g id="figure_1">
  <g id="patch_1">
   <path d="M 0 360 
L 864 360 
L 864 0 
L 0 0 
L 0 360 
z
" style="fill: none; opacity: 0"/>
  </g>
  <g id="axes_1">
   <g id="patch_2">
    <path d="M 108 320.4 
L 777.6 320.4 
L 777.6 43.2 
L 108 43.2 
L 108 320.4 
z
" style="fill: none; opacity: 0"/>
   </g>
   <g id="matplotlib.axis_1">
    <g id="xtick_1">
     <g id="line2d_1">
      <path d="M 158.675378 320.4 
L 158.675378 43.2 
" clip-path="url(#p2406efbd9b)" style="fill: none; stroke-dasharray: 5.12,1.28,0.8,1.28; stroke-dashoffset: 0; stroke: #b0b0b0; stroke-width: 0.8"/>
     </g>
     <g id="line2d_2">
      <defs>
       <path id="m0802eb1b1f" d="M 0 0 
L 0 3.5 
" style="stroke: #a9a9a9; stroke-width: 0.8"/>
      </defs>
      <g>
       <use xlink:href="#m0802eb1b1f" x="158.675378" y="320.4" style="fill: #a9a9a9; stroke: #a9a9a9; stroke-width: 0.8"/>
      </g>
     </g>
     <g id="text_1">
      <!-- 2021-09 -->
      <g style="fill: #a9a9a9" transform="translate(137.783972 334.998438) scale(0.1 -0.1)">
       <defs>
        <path id="DejaVuSans-32" d="M 1228 531 
L 3431 531 
L 3431 0 
L 469 0 
L 469 531 
Q 828 903 1448 1529 
Q 2069 2156 2228 2338 
Q 2531 2678 2651 2914 
Q 2772 3150 2772 3378 
Q 2772 3750 2511 3984 
Q 2250 4219 1831 4219 
Q 1534 4219 1204 4116 
Q 875 4013 500 3803 
L 500 4441 
Q 881 4594 1212 4672 
Q 1544 4750 1819 4750 
Q 2544 4750 2975 4387 
Q 3406 4025 3406 3419 
Q 3406 3131 3298 2873 
Q 3191 2616 2906 2266 
Q 2828 2175 2409 1742 
Q 1991 1309 1228 531 
z
" transform="scale(0.015625)"/>
        <path id="DejaVuSans-30" d="M 2034 4250 
Q 1547 4250 1301 3770 
Q 1056 3291 1056 2328 
Q 1056 1369 1301 889 
Q 1547 409 2034 409 
Q 2525 409 2770 889 
Q 3016 1369 3016 2328 
Q 3016 3291 2770 3770 
Q 2525 4250 2034 4250 
z
M 2034 4750 
Q 2819 4750 3233 4129 
Q 3647 3509 3647 2328 
Q 3647 1150 3233 529 
Q 2819 -91 2034 -91 
Q 1250 -91 836 529 
Q 422 1150 422 2328 
Q 422 3509 836 4129 
Q 1250 4750 2034 4750 
z
" transform="scale(0.015625)"/>
        <path id="DejaVuSans-31" d="M 794 531 
L 1825 531 
L 1825 4091 
L 703 3866 
L 703 4441 
L 1819 4666 
L 2450 4666 
L 2450 531 
L 3481 531 
L 3481 0 
L 794 0 
L 794 531 
z
" transform="scale(0.015625)"/>
        <path id="DejaVuSans-2d" d="M 313 2009 
L 1997 2009 
L 1997 1497 
L 313 1497 
L 313 2009 
z
" transform="scale(0.015625)"/>
        <path id="DejaVuSans-39" d="M 703 97 
L 703 672 
Q 941 559 1184 500 
Q 1428 441 1663 441 
Q 2288 441 2617 861 
Q 2947 1281 2994 2138 
Q 2813 1869 2534 1725 
Q 2256 1581 1919 1581 
Q 1219 1581 811 2004 
Q 403 2428 403 3163 
Q 403 3881 828 4315 
Q 1253 4750 1959 4750 
Q 2769 4750 3195 4129 
Q 3622 3509 3622 2328 
Q 3622 1225 3098 567 
Q 2575 -91 1691 -91 
Q 1453 -91 1209 -44 
Q 966 3 703 97 
z
M 1959 2075 
Q 2384 2075 2632 2365 
Q 2881 2656 2881 3163 
Q 2881 3666 2632 3958 
Q 2384 4250 1959 4250 
Q 1534 4250 1286 3958 
Q 1038 3666 1038 3163 
Q 1038 2656 1286 2365 
Q 1534 2075 1959 2075 
z
" transform="scale(0.015625)"/>
       </defs>
       <use xlink:href="#DejaVuSans-32"/>
       <use xlink:href="#DejaVuSans-30" x="63.623047"/>
       <use xlink:href="#DejaVuSans-32" x="127.246094"/>
       <use xlink:href="#DejaVuSans-31" x="190.869141"/>
       <use xlink:href="#DejaVuSans-2d" x="254.492188"/>
       <use xlink:href="#DejaVuSans-30" x="290.576172"/>
       <use xlink:href="#DejaVuSans-39" x="354.199219"/>
      </g>
     </g>
    </g>
    <g id="xtick_2">
     <g id="line2d_3">
      <path d="M 221.987166 320.4 
L 221.987166 43.2 
" clip-path="url(#p2406efbd9b)" style="fill: none; stroke-dasharray: 5.12,1.28,0.8,1.28; stroke-dashoffset: 0; stroke: #b0b0b0; stroke-width: 0.8"/>
     </g>
     <g id="line2d_4">
      <g>
       <use xlink:href="#m0802eb1b1f" x="221.987166" y="320.4" style="fill: #a9a9a9; stroke: #a9a9a9; stroke-width: 0.8"/>
      </g>
     </g>
     <g id="text_2">
      <!-- 2022-01 -->
      <g style="fill: #a9a9a9" transform="translate(201.09576 334.998438) scale(0.1 -0.1)">
       <use xlink:href="#DejaVuSans-32"/>
       <use xlink:href="#DejaVuSans-30" x="63.623047"/>
       <use xlink:href="#DejaVuSans-32" x="127.246094"/>
       <use xlink:href="#DejaVuSans-32" x="190.869141"/>
       <use xlink:href="#DejaVuSans-2d" x="254.492188"/>
       <use xlink:href="#DejaVuSans-30" x="290.576172"/>
       <use xlink:href="#DejaVuSans-31" x="354.199219"/>
      </g>
     </g>
    </g>
    <g id="xtick_3">
     <g id="line2d_5">
      <path d="M 284.261056 320.4 
L 284.261056 43.2 
" clip-path="url(#p2406efbd9b)" style="fill: none; stroke-dasharray: 5.12,1.28,0.8,1.28; stroke-dashoffset: 0; stroke: #b0b0b0; stroke-width: 0.8"/>
     </g>
     <g id="line2d_6">
      <g>
       <use xlink:href="#m0802eb1b1f" x="284.261056" y="320.4" style="fill: #a9a9a9; stroke: #a9a9a9; stroke-width: 0.8"/>
      </g>
     </g>
     <g id="text_3">
      <!-- 2022-05 -->
      <g style="fill: #a9a9a9" transform="translate(263.369649 334.998438) scale(0.1 -0.1)">
       <defs>
        <path id="DejaVuSans-35" d="M 691 4666 
L 3169 4666 
L 3169 4134 
L 1269 4134 
L 1269 2991 
Q 1406 3038 1543 3061 
Q 1681 3084 1819 3084 
Q 2600 3084 3056 2656 
Q 3513 2228 3513 1497 
Q 3513 744 3044 326 
Q 2575 -91 1722 -91 
Q 1428 -91 1123 -41 
Q 819 9 494 109 
L 494 744 
Q 775 591 1075 516 
Q 1375 441 1709 441 
Q 2250 441 2565 725 
Q 2881 1009 2881 1497 
Q 2881 1984 2565 2268 
Q 2250 2553 1709 2553 
Q 1456 2553 1204 2497 
Q 953 2441 691 2322 
L 691 4666 
z
" transform="scale(0.015625)"/>
       </defs>
       <use xlink:href="#DejaVuSans-32"/>
       <use xlink:href="#DejaVuSans-30" x="63.623047"/>
       <use xlink:href="#DejaVuSans-32" x="127.246094"/>
       <use xlink:href="#DejaVuSans-32" x="190.869141"/>
       <use xlink:href="#DejaVuSans-2d" x="254.492188"/>
       <use xlink:href="#DejaVuSans-30" x="290.576172"/>
       <use xlink:href="#DejaVuSans-35" x="354.199219"/>
      </g>
     </g>
    </g>
    <g id="xtick_4">
     <g id="line2d_7">
      <path d="M 348.091793 320.4 
L 348.091793 43.2 
" clip-path="url(#p2406efbd9b)" style="fill: none; stroke-dasharray: 5.12,1.28,0.8,1.28; stroke-dashoffset: 0; stroke: #b0b0b0; stroke-width: 0.8"/>
     </g>
     <g id="line2d_8">
      <g>
       <use xlink:href="#m0802eb1b1f" x="348.091793" y="320.4" style="fill: #a9a9a9; stroke: #a9a9a9; stroke-width: 0.8"/>
      </g>
     </g>
     <g id="text_4">
      <!-- 2022-09 -->
      <g style="fill: #a9a9a9" transform="translate(327.200386 334.998438) scale(0.1 -0.1)">
       <use xlink:href="#DejaVuSans-32"/>
       <use xlink:href="#DejaVuSans-30" x="63.623047"/>
       <use xlink:href="#DejaVuSans-32" x="127.246094"/>
       <use xlink:href="#DejaVuSans-32" x="190.869141"/>
       <use xlink:href="#DejaVuSans-2d" x="254.492188"/>
       <use xlink:href="#DejaVuSans-30" x="290.576172"/>
       <use xlink:href="#DejaVuSans-39" x="354.199219"/>
      </g>
     </g>
    </g>
    <g id="xtick_5">
     <g id="line2d_9">
      <path d="M 411.403581 320.4 
L 411.403581 43.2 
" clip-path="url(#p2406efbd9b)" style="fill: none; stroke-dasharray: 5.12,1.28,0.8,1.28; stroke-dashoffset: 0; stroke: #b0b0b0; stroke-width: 0.8"/>
     </g>
     <g id="line2d_10">
      <g>
       <use xlink:href="#m0802eb1b1f" x="411.403581" y="320.4" style="fill: #a9a9a9; stroke: #a9a9a9; stroke-width: 0.8"/>
      </g>
     </g>
     <g id="text_5">
      <!-- 2023-01 -->
      <g style="fill: #a9a9a9" transform="translate(390.512174 334.998438) scale(0.1 -0.1)">
       <defs>
        <path id="DejaVuSans-33" d="M 2597 2516 
Q 3050 2419 3304 2112 
Q 3559 1806 3559 1356 
Q 3559 666 3084 287 
Q 2609 -91 1734 -91 
Q 1441 -91 1130 -33 
Q 819 25 488 141 
L 488 750 
Q 750 597 1062 519 
Q 1375 441 1716 441 
Q 2309 441 2620 675 
Q 2931 909 2931 1356 
Q 2931 1769 2642 2001 
Q 2353 2234 1838 2234 
L 1294 2234 
L 1294 2753 
L 1863 2753 
Q 2328 2753 2575 2939 
Q 2822 3125 2822 3475 
Q 2822 3834 2567 4026 
Q 2313 4219 1838 4219 
Q 1578 4219 1281 4162 
Q 984 4106 628 3988 
L 628 4550 
Q 988 4650 1302 4700 
Q 1616 4750 1894 4750 
Q 2613 4750 3031 4423 
Q 3450 4097 3450 3541 
Q 3450 3153 3228 2886 
Q 3006 2619 2597 2516 
z
" transform="scale(0.015625)"/>
       </defs>
       <use xlink:href="#DejaVuSans-32"/>
       <use xlink:href="#DejaVuSans-30" x="63.623047"/>
       <use xlink:href="#DejaVuSans-32" x="127.246094"/>
       <use xlink:href="#DejaVuSans-33" x="190.869141"/>
       <use xlink:href="#DejaVuSans-2d" x="254.492188"/>
       <use xlink:href="#DejaVuSans-30" x="290.576172"/>
       <use xlink:href="#DejaVuSans-31" x="354.199219"/>
      </g>
     </g>
    </g>
    <g id="xtick_6">
     <g id="line2d_11">
      <path d="M 473.67747 320.4 
L 473.67747 43.2 
" clip-path="url(#p2406efbd9b)" style="fill: none; stroke-dasharray: 5.12,1.28,0.8,1.28; stroke-dashoffset: 0; stroke: #b0b0b0; stroke-width: 0.8"/>
     </g>
     <g id="line2d_12">
      <g>
       <use xlink:href="#m0802eb1b1f" x="473.67747" y="320.4" style="fill: #a9a9a9; stroke: #a9a9a9; stroke-width: 0.8"/>
      </g>
     </g>
     <g id="text_6">
      <!-- 2023-05 -->
      <g style="fill: #a9a9a9" transform="translate(452.786064 334.998438) scale(0.1 -0.1)">
       <use xlink:href="#DejaVuSans-32"/>
       <use xlink:href="#DejaVuSans-30" x="63.623047"/>
       <use xlink:href="#DejaVuSans-32" x="127.246094"/>
       <use xlink:href="#DejaVuSans-33" x="190.869141"/>
       <use xlink:href="#DejaVuSans-2d" x="254.492188"/>
       <use xlink:href="#DejaVuSans-30" x="290.576172"/>
       <use xlink:href="#DejaVuSans-35" x="354.199219"/>
      </g>
     </g>
    </g>
    <g id="xtick_7">
     <g id="line2d_13">
      <path d="M 537.508207 320.4 
L 537.508207 43.2 
" clip-path="url(#p2406efbd9b)" style="fill: none; stroke-dasharray: 5.12,1.28,0.8,1.28; stroke-dashoffset: 0; stroke: #b0b0b0; stroke-width: 0.8"/>
     </g>
     <g id="line2d_14">
      <g>
       <use xlink:href="#m0802eb1b1f" x="537.508207" y="320.4" style="fill: #a9a9a9; stroke: #a9a9a9; stroke-width: 0.8"/>
      </g>
     </g>
     <g id="text_7">
      <!-- 2023-09 -->
      <g style="fill: #a9a9a9" transform="translate(516.616801 334.998438) scale(0.1 -0.1)">
       <use xlink:href="#DejaVuSans-32"/>
       <use xlink:href="#DejaVuSans-30" x="63.623047"/>
       <use xlink:href="#DejaVuSans-32" x="127.246094"/>
       <use xlink:href="#DejaVuSans-33" x="190.869141"/>
       <use xlink:href="#DejaVuSans-2d" x="254.492188"/>
       <use xlink:href="#DejaVuSans-30" x="290.576172"/>
       <use xlink:href="#DejaVuSans-39" x="354.199219"/>
      </g>
     </g>
    </g>
    <g id="xtick_8">
     <g id="line2d_15">
      <path d="M 600.819995 320.4 
L 600.819995 43.2 
" clip-path="url(#p2406efbd9b)" style="fill: none; stroke-dasharray: 5.12,1.28,0.8,1.28; stroke-dashoffset: 0; stroke: #b0b0b0; stroke-width: 0.8"/>
     </g>
     <g id="line2d_16">
      <g>
       <use xlink:href="#m0802eb1b1f" x="600.819995" y="320.4" style="fill: #a9a9a9; stroke: #a9a9a9; stroke-width: 0.8"/>
      </g>
     </g>
     <g id="text_8">
      <!-- 2024-01 -->
      <g style="fill: #a9a9a9" transform="translate(579.928589 334.998438) scale(0.1 -0.1)">
       <defs>
        <path id="DejaVuSans-34" d="M 2419 4116 
L 825 1625 
L 2419 1625 
L 2419 4116 
z
M 2253 4666 
L 3047 4666 
L 3047 1625 
L 3713 1625 
L 3713 1100 
L 3047 1100 
L 3047 0 
L 2419 0 
L 2419 1100 
L 313 1100 
L 313 1709 
L 2253 4666 
z
" transform="scale(0.015625)"/>
       </defs>
       <use xlink:href="#DejaVuSans-32"/>
       <use xlink:href="#DejaVuSans-30" x="63.623047"/>
       <use xlink:href="#DejaVuSans-32" x="127.246094"/>
       <use xlink:href="#DejaVuSans-34" x="190.869141"/>
       <use xlink:href="#DejaVuSans-2d" x="254.492188"/>
       <use xlink:href="#DejaVuSans-30" x="290.576172"/>
       <use xlink:href="#DejaVuSans-31" x="354.199219"/>
      </g>
     </g>
    </g>
    <g id="xtick_9">
     <g id="line2d_17">
      <path d="M 663.612834 320.4 
L 663.612834 43.2 
" clip-path="url(#p2406efbd9b)" style="fill: none; stroke-dasharray: 5.12,1.28,0.8,1.28; stroke-dashoffset: 0; stroke: #b0b0b0; stroke-width: 0.8"/>
     </g>
     <g id="line2d_18">
      <g>
       <use xlink:href="#m0802eb1b1f" x="663.612834" y="320.4" style="fill: #a9a9a9; stroke: #a9a9a9; stroke-width: 0.8"/>
      </g>
     </g>
     <g id="text_9">
      <!-- 2024-05 -->
      <g style="fill: #a9a9a9" transform="translate(642.721428 334.998438) scale(0.1 -0.1)">
       <use xlink:href="#DejaVuSans-32"/>
       <use xlink:href="#DejaVuSans-30" x="63.623047"/>
       <use xlink:href="#DejaVuSans-32" x="127.246094"/>
       <use xlink:href="#DejaVuSans-34" x="190.869141"/>
       <use xlink:href="#DejaVuSans-2d" x="254.492188"/>
       <use xlink:href="#DejaVuSans-30" x="290.576172"/>
       <use xlink:href="#DejaVuSans-35" x="354.199219"/>
      </g>
     </g>
    </g>
    <g id="xtick_10">
     <g id="line2d_19">
      <path d="M 727.443571 320.4 
L 727.443571 43.2 
" clip-path="url(#p2406efbd9b)" style="fill: none; stroke-dasharray: 5.12,1.28,0.8,1.28; stroke-dashoffset: 0; stroke: #b0b0b0; stroke-width: 0.8"/>
     </g>
     <g id="line2d_20">
      <g>
       <use xlink:href="#m0802eb1b1f" x="727.443571" y="320.4" style="fill: #a9a9a9; stroke: #a9a9a9; stroke-width: 0.8"/>
      </g>
     </g>
     <g id="text_10">
      <!-- 2024-09 -->
      <g style="fill: #a9a9a9" transform="translate(706.552165 334.998438) scale(0.1 -0.1)">
       <use xlink:href="#DejaVuSans-32"/>
       <use xlink:href="#DejaVuSans-30" x="63.623047"/>
       <use xlink:href="#DejaVuSans-32" x="127.246094"/>
       <use xlink:href="#DejaVuSans-34" x="190.869141"/>
       <use xlink:href="#DejaVuSans-2d" x="254.492188"/>
       <use xlink:href="#DejaVuSans-30" x="290.576172"/>
       <use xlink:href="#DejaVuSans-39" x="354.199219"/>
      </g>
     </g>
    </g>
   </g>
   <g id="matplotlib.axis_2">
    <g id="ytick_1">
     <g id="line2d_21">
      <path d="M 108 307.837223 
L 777.6 307.837223 
" clip-path="url(#p2406efbd9b)" style="fill: none; stroke-dasharray: 5.12,1.28,0.8,1.28; stroke-dashoffset: 0; stroke: #b0b0b0; stroke-width: 0.8"/>
     </g>
     <g id="line2d_22">
      <defs>
       <path id="m5f93554b36" d="M 0 0 
L -3.5 0 
" style="stroke: #a9a9a9; stroke-width: 0.8"/>
      </defs>
      <g>
       <use xlink:href="#m5f93554b36" x="108" y="307.837223" style="fill: #a9a9a9; stroke: #a9a9a9; stroke-width: 0.8"/>
      </g>
     </g>
     <g id="text_11">
      <!-- 0 -->
      <g style="fill: #a9a9a9" transform="translate(94.6375 311.636442) scale(0.1 -0.1)">
       <use xlink:href="#DejaVuSans-30"/>
      </g>
     </g>
    </g>
    <g id="ytick_2">
     <g id="line2d_23">
      <path d="M 108 278.058789 
L 777.6 278.058789 
" clip-path="url(#p2406efbd9b)" style="fill: none; stroke-dasharray: 5.12,1.28,0.8,1.28; stroke-dashoffset: 0; stroke: #b0b0b0; stroke-width: 0.8"/>
     </g>
     <g id="line2d_24">
      <g>
       <use xlink:href="#m5f93554b36" x="108" y="278.058789" style="fill: #a9a9a9; stroke: #a9a9a9; stroke-width: 0.8"/>
      </g>
     </g>
     <g id="text_12">
      <!-- 800 -->
      <g style="fill: #a9a9a9" transform="translate(81.9125 281.858008) scale(0.1 -0.1)">
       <defs>
        <path id="DejaVuSans-38" d="M 2034 2216 
Q 1584 2216 1326 1975 
Q 1069 1734 1069 1313 
Q 1069 891 1326 650 
Q 1584 409 2034 409 
Q 2484 409 2743 651 
Q 3003 894 3003 1313 
Q 3003 1734 2745 1975 
Q 2488 2216 2034 2216 
z
M 1403 2484 
Q 997 2584 770 2862 
Q 544 3141 544 3541 
Q 544 4100 942 4425 
Q 1341 4750 2034 4750 
Q 2731 4750 3128 4425 
Q 3525 4100 3525 3541 
Q 3525 3141 3298 2862 
Q 3072 2584 2669 2484 
Q 3125 2378 3379 2068 
Q 3634 1759 3634 1313 
Q 3634 634 3220 271 
Q 2806 -91 2034 -91 
Q 1263 -91 848 271 
Q 434 634 434 1313 
Q 434 1759 690 2068 
Q 947 2378 1403 2484 
z
M 1172 3481 
Q 1172 3119 1398 2916 
Q 1625 2713 2034 2713 
Q 2441 2713 2670 2916 
Q 2900 3119 2900 3481 
Q 2900 3844 2670 4047 
Q 2441 4250 2034 4250 
Q 1625 4250 1398 4047 
Q 1172 3844 1172 3481 
z
" transform="scale(0.015625)"/>
       </defs>
       <use xlink:href="#DejaVuSans-38"/>
       <use xlink:href="#DejaVuSans-30" x="63.623047"/>
       <use xlink:href="#DejaVuSans-30" x="127.246094"/>
      </g>
     </g>
    </g>
    <g id="ytick_3">
     <g id="line2d_25">
      <path d="M 108 248.280355 
L 777.6 248.280355 
" clip-path="url(#p2406efbd9b)" style="fill: none; stroke-dasharray: 5.12,1.28,0.8,1.28; stroke-dashoffset: 0; stroke: #b0b0b0; stroke-width: 0.8"/>
     </g>
     <g id="line2d_26">
      <g>
       <use xlink:href="#m5f93554b36" x="108" y="248.280355" style="fill: #a9a9a9; stroke: #a9a9a9; stroke-width: 0.8"/>
      </g>
     </g>
     <g id="text_13">
      <!-- 1600 -->
      <g style="fill: #a9a9a9" transform="translate(75.55 252.079573) scale(0.1 -0.1)">
       <defs>
        <path id="DejaVuSans-36" d="M 2113 2584 
Q 1688 2584 1439 2293 
Q 1191 2003 1191 1497 
Q 1191 994 1439 701 
Q 1688 409 2113 409 
Q 2538 409 2786 701 
Q 3034 994 3034 1497 
Q 3034 2003 2786 2293 
Q 2538 2584 2113 2584 
z
M 3366 4563 
L 3366 3988 
Q 3128 4100 2886 4159 
Q 2644 4219 2406 4219 
Q 1781 4219 1451 3797 
Q 1122 3375 1075 2522 
Q 1259 2794 1537 2939 
Q 1816 3084 2150 3084 
Q 2853 3084 3261 2657 
Q 3669 2231 3669 1497 
Q 3669 778 3244 343 
Q 2819 -91 2113 -91 
Q 1303 -91 875 529 
Q 447 1150 447 2328 
Q 447 3434 972 4092 
Q 1497 4750 2381 4750 
Q 2619 4750 2861 4703 
Q 3103 4656 3366 4563 
z
" transform="scale(0.015625)"/>
       </defs>
       <use xlink:href="#DejaVuSans-31"/>
       <use xlink:href="#DejaVuSans-36" x="63.623047"/>
       <use xlink:href="#DejaVuSans-30" x="127.246094"/>
       <use xlink:href="#DejaVuSans-30" x="190.869141"/>
      </g>
     </g>
    </g>
    <g id="ytick_4">
     <g id="line2d_27">
      <path d="M 108 218.50192 
L 777.6 218.50192 
" clip-path="url(#p2406efbd9b)" style="fill: none; stroke-dasharray: 5.12,1.28,0.8,1.28; stroke-dashoffset: 0; stroke: #b0b0b0; stroke-width: 0.8"/>
     </g>
     <g id="line2d_28">
      <g>
       <use xlink:href="#m5f93554b36" x="108" y="218.50192" style="fill: #a9a9a9; stroke: #a9a9a9; stroke-width: 0.8"/>
      </g>
     </g>
     <g id="text_14">
      <!-- 2400 -->
      <g style="fill: #a9a9a9" transform="translate(75.55 222.301139) scale(0.1 -0.1)">
       <use xlink:href="#DejaVuSans-32"/>
       <use xlink:href="#DejaVuSans-34" x="63.623047"/>
       <use xlink:href="#DejaVuSans-30" x="127.246094"/>
       <use xlink:href="#DejaVuSans-30" x="190.869141"/>
      </g>
     </g>
    </g>
    <g id="ytick_5">
     <g id="line2d_29">
      <path d="M 108 188.723486 
L 777.6 188.723486 
" clip-path="url(#p2406efbd9b)" style="fill: none; stroke-dasharray: 5.12,1.28,0.8,1.28; stroke-dashoffset: 0; stroke: #b0b0b0; stroke-width: 0.8"/>
     </g>
     <g id="line2d_30">
      <g>
       <use xlink:href="#m5f93554b36" x="108" y="188.723486" style="fill: #a9a9a9; stroke: #a9a9a9; stroke-width: 0.8"/>
      </g>
     </g>
     <g id="text_15">
      <!-- 3200 -->
      <g style="fill: #a9a9a9" transform="translate(75.55 192.522705) scale(0.1 -0.1)">
       <use xlink:href="#DejaVuSans-33"/>
       <use xlink:href="#DejaVuSans-32" x="63.623047"/>
       <use xlink:href="#DejaVuSans-30" x="127.246094"/>
       <use xlink:href="#DejaVuSans-30" x="190.869141"/>
      </g>
     </g>
    </g>
    <g id="ytick_6">
     <g id="line2d_31">
      <path d="M 108 158.945052 
L 777.6 158.945052 
" clip-path="url(#p2406efbd9b)" style="fill: none; stroke-dasharray: 5.12,1.28,0.8,1.28; stroke-dashoffset: 0; stroke: #b0b0b0; stroke-width: 0.8"/>
     </g>
     <g id="line2d_32">
      <g>
       <use xlink:href="#m5f93554b36" x="108" y="158.945052" style="fill: #a9a9a9; stroke: #a9a9a9; stroke-width: 0.8"/>
      </g>
     </g>
     <g id="text_16">
      <!-- 4000 -->
      <g style="fill: #a9a9a9" transform="translate(75.55 162.74427) scale(0.1 -0.1)">
       <use xlink:href="#DejaVuSans-34"/>
       <use xlink:href="#DejaVuSans-30" x="63.623047"/>
       <use xlink:href="#DejaVuSans-30" x="127.246094"/>
       <use xlink:href="#DejaVuSans-30" x="190.869141"/>
      </g>
     </g>
    </g>
    <g id="ytick_7">
     <g id="line2d_33">
      <path d="M 108 129.166617 
L 777.6 129.166617 
" clip-path="url(#p2406efbd9b)" style="fill: none; stroke-dasharray: 5.12,1.28,0.8,1.28; stroke-dashoffset: 0; stroke: #b0b0b0; stroke-width: 0.8"/>
     </g>
     <g id="line2d_34">
      <g>
       <use xlink:href="#m5f93554b36" x="108" y="129.166617" style="fill: #a9a9a9; stroke: #a9a9a9; stroke-width: 0.8"/>
      </g>
     </g>
     <g id="text_17">
      <!-- 4800 -->
      <g style="fill: #a9a9a9" transform="translate(75.55 132.965836) scale(0.1 -0.1)">
       <use xlink:href="#DejaVuSans-34"/>
       <use xlink:href="#DejaVuSans-38" x="63.623047"/>
       <use xlink:href="#DejaVuSans-30" x="127.246094"/>
       <use xlink:href="#DejaVuSans-30" x="190.869141"/>
      </g>
     </g>
    </g>
    <g id="ytick_8">
     <g id="line2d_35">
      <path d="M 108 99.388183 
L 777.6 99.388183 
" clip-path="url(#p2406efbd9b)" style="fill: none; stroke-dasharray: 5.12,1.28,0.8,1.28; stroke-dashoffset: 0; stroke: #b0b0b0; stroke-width: 0.8"/>
     </g>
     <g id="line2d_36">
      <g>
       <use xlink:href="#m5f93554b36" x="108" y="99.388183" style="fill: #a9a9a9; stroke: #a9a9a9; stroke-width: 0.8"/>
      </g>
     </g>
     <g id="text_18">
      <!-- 5600 -->
      <g style="fill: #a9a9a9" transform="translate(75.55 103.187402) scale(0.1 -0.1)">
       <use xlink:href="#DejaVuSans-35"/>
       <use xlink:href="#DejaVuSans-36" x="63.623047"/>
       <use xlink:href="#DejaVuSans-30" x="127.246094"/>
       <use xlink:href="#DejaVuSans-30" x="190.869141"/>
      </g>
     </g>
    </g>
    <g id="ytick_9">
     <g id="line2d_37">
      <path d="M 108 69.609749 
L 777.6 69.609749 
" clip-path="url(#p2406efbd9b)" style="fill: none; stroke-dasharray: 5.12,1.28,0.8,1.28; stroke-dashoffset: 0; stroke: #b0b0b0; stroke-width: 0.8"/>
     </g>
     <g id="line2d_38">
      <g>
       <use xlink:href="#m5f93554b36" x="108" y="69.609749" style="fill: #a9a9a9; stroke: #a9a9a9; stroke-width: 0.8"/>
      </g>
     </g>
     <g id="text_19">
      <!-- 6400 -->
      <g style="fill: #a9a9a9" transform="translate(75.55 73.408968) scale(0.1 -0.1)">
       <use xlink:href="#DejaVuSans-36"/>
       <use xlink:href="#DejaVuSans-34" x="63.623047"/>
       <use xlink:href="#DejaVuSans-30" x="127.246094"/>
       <use xlink:href="#DejaVuSans-30" x="190.869141"/>
      </g>
     </g>
    </g>
   </g>
   <g id="line2d_39">
    <path d="M 138.436364 307.725554 
L 141.550058 307.464993 
L 142.069007 307.241654 
L 143.625854 307.092762 
L 147.258498 306.422747 
L 149.853243 306.199409 
L 150.891142 305.789956 
L 151.410091 305.119941 
L 151.92904 304.74771 
L 152.447989 303.593796 
L 152.966938 303.51935 
L 153.485887 303.109897 
L 154.523785 302.588774 
L 156.599581 300.95096 
L 158.675378 299.945938 
L 160.232225 299.2387 
L 160.751174 298.419793 
L 161.789072 297.675332 
L 162.308021 297.451994 
L 167.497512 296.707533 
L 168.016461 296.484195 
L 171.649105 296.186411 
L 173.724901 295.702511 
L 177.876494 295.144165 
L 178.395443 294.883604 
L 178.914392 294.809158 
L 179.95229 294.474151 
L 183.584934 293.878582 
L 184.622832 293.580798 
L 189.293374 292.799114 
L 190.331272 292.575775 
L 191.36917 292.538552 
L 193.444966 292.054653 
L 193.963915 291.347415 
L 195.520763 290.751846 
L 197.07761 290.342393 
L 197.596559 290.081832 
L 198.115508 290.044609 
L 200.710253 289.300148 
L 201.748152 289.225702 
L 202.78605 288.96514 
L 204.861846 288.444018 
L 205.380795 288.406795 
L 206.418693 287.922895 
L 206.937642 287.848449 
L 207.456591 287.587888 
L 213.165031 286.657312 
L 215.240828 286.061743 
L 215.759777 285.726736 
L 218.354522 284.870606 
L 219.39242 284.163368 
L 220.949268 283.865583 
L 230.8093 280.999409 
L 231.847198 280.589956 
L 232.885096 280.51551 
L 234.441944 280.068833 
L 234.960893 280.068833 
L 235.479842 279.845495 
L 236.51774 279.733826 
L 237.036689 279.54771 
L 238.074587 279.510487 
L 240.150384 279.249926 
L 241.188282 278.728804 
L 247.415671 275.937075 
L 247.93462 275.37873 
L 248.972518 273.815362 
L 249.491467 273.66647 
L 250.010416 273.66647 
L 251.048314 272.884786 
L 252.605162 272.363663 
L 253.124111 271.879764 
L 254.162009 271.47031 
L 255.199907 270.986411 
L 256.237805 269.497489 
L 256.756754 269.162482 
L 257.275703 268.269129 
L 257.794652 267.710783 
L 260.908347 266.072969 
L 261.946245 265.254062 
L 262.465194 264.919055 
L 262.984143 264.137371 
L 263.503092 262.983456 
L 264.022041 262.201773 
L 264.54099 261.792319 
L 265.05994 261.568981 
L 268.692583 258.516691 
L 269.730481 257.288331 
L 270.768379 256.54387 
L 272.325227 255.501625 
L 272.844176 255.054948 
L 273.882074 254.719941 
L 275.438921 253.826588 
L 276.995768 252.821566 
L 279.071565 250.960414 
L 280.109463 250.55096 
L 281.147361 249.843722 
L 281.66631 249.545938 
L 282.185259 249.471492 
L 285.817903 247.200886 
L 287.893699 246.084195 
L 288.412648 245.600295 
L 296.715834 242.696898 
L 297.753732 241.766322 
L 298.79163 241.282422 
L 299.829528 240.724077 
L 300.348477 240.426292 
L 301.386375 240.128508 
L 301.905324 239.793501 
L 302.424273 239.644609 
L 303.981121 238.639586 
L 306.575866 238.044018 
L 308.132713 237.150665 
L 309.689561 236.815657 
L 310.20851 236.666765 
L 311.765357 235.475628 
L 313.841153 234.917282 
L 314.360102 234.507829 
L 317.473797 233.465583 
L 317.992746 233.42836 
L 319.549593 232.870015 
L 323.182237 231.567208 
L 324.220135 231.418316 
L 325.776982 230.897194 
L 328.371728 229.668833 
L 330.447524 228.552142 
L 334.599116 226.877105 
L 335.118066 226.802659 
L 336.155964 226.169867 
L 336.674913 226.095421 
L 338.750709 225.239291 
L 340.826505 224.941507 
L 341.864404 224.420384 
L 342.383353 223.973708 
L 342.902302 223.043131 
L 344.978098 222.484786 
L 346.534945 221.703102 
L 347.053894 221.591433 
L 351.205487 219.618612 
L 352.762334 219.320827 
L 353.800233 218.799705 
L 354.319182 218.576366 
L 354.838131 218.50192 
L 356.913927 217.571344 
L 358.470774 216.603545 
L 360.027621 216.305761 
L 362.622367 215.672969 
L 363.141316 215.263516 
L 364.698163 214.70517 
L 366.77396 213.886263 
L 367.292909 213.514032 
L 367.811858 213.327917 
L 368.849756 212.769572 
L 371.444501 211.913442 
L 373.001349 210.685081 
L 373.520298 210.573412 
L 374.558196 209.754505 
L 375.077145 209.680059 
L 375.596094 208.861152 
L 376.115043 208.637814 
L 376.633992 208.22836 
L 377.152941 208.153914 
L 378.190839 207.521123 
L 379.228738 207.186115 
L 379.747687 206.776662 
L 380.266636 206.590547 
L 381.823483 205.511078 
L 383.899279 204.43161 
L 384.418228 204.357164 
L 385.975076 203.57548 
L 386.494025 202.71935 
L 387.012974 202.272674 
L 387.531923 201.974889 
L 388.050872 201.86322 
L 389.08877 201.193205 
L 389.607719 201.081536 
L 390.645617 200.560414 
L 392.721414 199.555391 
L 393.240363 199.183161 
L 394.79721 197.768685 
L 395.835108 197.173117 
L 396.354057 196.614771 
L 398.429854 195.200295 
L 398.948803 194.604727 
L 399.467752 194.195273 
L 400.50565 193.823043 
L 401.543548 193.115805 
L 403.100395 192.334121 
L 403.619344 192.259675 
L 405.176192 191.440768 
L 406.21409 190.807976 
L 411.403581 188.946824 
L 411.92253 188.537371 
L 413.998326 187.755687 
L 414.517275 187.606795 
L 415.036224 187.197341 
L 417.63097 185.782866 
L 418.668868 183.735598 
L 419.706766 182.544461 
L 420.744664 181.911669 
L 422.301511 181.278877 
L 422.82046 181.204431 
L 423.339409 180.906647 
L 425.934155 180.08774 
L 426.453104 179.864402 
L 427.491002 179.157164 
L 429.047849 178.487149 
L 430.085748 177.928804 
L 430.604697 177.556573 
L 431.123646 177.333235 
L 431.642595 176.961004 
L 432.161544 176.402659 
L 433.199442 175.844313 
L 435.794187 174.467061 
L 438.907882 172.940916 
L 439.94578 172.605908 
L 441.502627 172.122009 
L 443.578424 171.191433 
L 444.616322 170.781979 
L 445.135271 170.372526 
L 446.173169 170.037518 
L 449.286864 168.436928 
L 450.324762 167.618021 
L 451.36266 167.24579 
L 451.881609 166.799114 
L 452.400558 166.724668 
L 453.438456 165.942984 
L 454.476354 165.421861 
L 454.995303 165.198523 
L 455.514252 164.6774 
L 459.146896 163.262925 
L 460.184794 162.816248 
L 461.741641 162.332349 
L 462.77954 162.183456 
L 463.298489 161.960118 
L 463.817438 161.885672 
L 464.855336 161.438996 
L 465.374285 161.401773 
L 467.450081 160.620089 
L 469.006929 159.54062 
L 469.525878 159.354505 
L 470.563776 158.79616 
L 471.082725 158.647267 
L 474.196419 156.935007 
L 474.715369 156.823338 
L 476.272216 155.929985 
L 477.829063 155.408863 
L 478.866961 155.073855 
L 480.942757 154.40384 
L 481.980656 154.068833 
L 484.056452 153.65938 
L 484.575401 153.436041 
L 485.09435 153.361595 
L 486.132248 152.914919 
L 486.651197 152.840473 
L 487.170146 152.579911 
L 488.208045 152.393796 
L 489.764892 151.835451 
L 490.80279 151.723781 
L 492.359637 151.388774 
L 494.954383 150.942097 
L 508.447059 147.070901 
L 508.966008 146.549778 
L 510.003906 146.140325 
L 513.117601 145.023634 
L 513.63655 144.688626 
L 514.155499 144.576957 
L 514.674448 144.279173 
L 516.231295 143.832496 
L 517.269193 143.571935 
L 517.788142 143.236928 
L 518.307091 143.125258 
L 518.82604 142.678582 
L 520.382888 142.380798 
L 521.420786 141.896898 
L 521.939735 141.301329 
L 524.015531 140.81743 
L 527.648175 140.072969 
L 528.167124 140.072969 
L 528.686073 139.849631 
L 530.761869 139.4774 
L 531.280818 139.254062 
L 533.356615 138.881832 
L 534.394513 138.435155 
L 534.913462 138.397932 
L 543.735596 135.755096 
L 544.254545 135.531758 
L 544.773495 135.159527 
L 545.811393 134.861743 
L 546.849291 134.526736 
L 547.887189 134.117282 
L 549.444036 133.447267 
L 551.000884 133.335598 
L 553.07668 132.74003 
L 553.595629 132.442245 
L 554.633527 132.144461 
L 557.228272 130.990547 
L 557.747222 130.953323 
L 563.455661 128.980502 
L 566.050407 128.310487 
L 567.088305 127.826588 
L 568.645152 127.491581 
L 569.164101 127.082127 
L 569.68305 126.821566 
L 570.202 126.188774 
L 570.720949 125.816544 
L 571.758847 125.518759 
L 572.277796 125.109306 
L 575.39149 123.955391 
L 575.910439 123.620384 
L 576.948338 123.3226 
L 577.467287 122.987592 
L 580.062032 122.168685 
L 581.618879 121.275332 
L 582.137828 121.163663 
L 584.732574 119.749188 
L 586.289421 119.004727 
L 586.80837 118.632496 
L 587.846268 118.297489 
L 588.884166 117.70192 
L 589.403116 117.515805 
L 589.922065 117.143575 
L 596.668403 114.798523 
L 597.187352 114.686854 
L 597.706301 114.351846 
L 599.782097 113.942393 
L 600.819995 113.532939 
L 601.338944 113.235155 
L 601.857894 113.086263 
L 603.93369 112.006795 
L 604.452639 111.932349 
L 606.009486 111.076219 
L 609.123181 109.847858 
L 611.198977 109.028951 
L 611.717926 108.880059 
L 612.236875 108.545052 
L 613.274773 108.39616 
L 613.793722 108.061152 
L 614.312671 108.023929 
L 615.35057 107.688922 
L 616.388468 107.167799 
L 616.907417 107.093353 
L 619.502162 106.088331 
L 621.05901 105.641654 
L 622.096908 105.381093 
L 623.653755 104.934417 
L 624.691653 104.524963 
L 626.767449 103.408272 
L 627.805348 102.998818 
L 628.324297 102.663811 
L 629.362195 102.440473 
L 629.881144 102.142688 
L 630.400093 102.031019 
L 631.95694 101.174889 
L 632.994838 100.765436 
L 634.551686 100.058198 
L 636.108533 99.648744 
L 639.222227 98.420384 
L 641.298024 97.713146 
L 642.854871 97.154801 
L 643.37382 96.968685 
L 644.411718 96.41034 
L 646.487515 95.479764 
L 651.677005 93.506942 
L 652.195954 93.134712 
L 654.271751 92.427474 
L 654.7907 92.427474 
L 655.828598 91.980798 
L 656.866496 91.050222 
L 657.385445 90.603545 
L 658.942292 89.859084 
L 659.461242 89.747415 
L 659.980191 89.486854 
L 660.49914 89.412408 
L 661.018089 89.040177 
L 661.537038 88.928508 
L 662.574936 88.295716 
L 664.131783 87.514032 
L 665.169681 87.104579 
L 665.688631 86.844018 
L 668.283376 86.211226 
L 668.802325 85.950665 
L 670.359172 85.503988 
L 672.434969 84.498966 
L 673.472867 84.015066 
L 674.510765 83.754505 
L 676.586561 82.786706 
L 677.10551 82.637814 
L 677.624459 82.302806 
L 680.738154 81.186115 
L 682.295001 80.255539 
L 682.81395 80.14387 
L 683.851848 79.622747 
L 684.889747 79.250517 
L 685.408696 78.80384 
L 686.446594 78.394387 
L 688.003441 77.761595 
L 688.52239 77.352142 
L 689.041339 77.314919 
L 690.079237 77.017134 
L 691.117136 76.682127 
L 691.636085 76.421566 
L 692.155034 76.34712 
L 693.711881 75.788774 
L 695.268728 75.230428 
L 696.306626 74.820975 
L 696.825575 74.411521 
L 698.382423 74.002068 
L 698.901372 73.704284 
L 699.93927 73.443722 
L 701.496117 72.587592 
L 702.015066 72.550369 
L 703.571914 72.06647 
L 704.609812 71.954801 
L 705.64771 71.545347 
L 708.761404 70.651994 
L 709.799302 70.614771 
L 712.912997 69.609749 
L 713.431946 69.535303 
L 714.988793 68.716396 
L 715.507742 68.269719 
L 717.06459 67.376366 
L 717.583539 66.966913 
L 718.621437 66.557459 
L 720.178284 66.110783 
L 720.697233 65.812999 
L 721.216182 65.701329 
L 721.735131 65.291876 
L 723.291979 64.584638 
L 723.810928 64.472969 
L 724.848826 63.989069 
L 726.924622 63.430724 
L 729.519368 62.239586 
L 730.038317 61.904579 
L 731.076215 61.718464 
L 733.67096 60.527326 
L 734.189909 60.229542 
L 735.746757 59.820089 
L 737.303604 58.777843 
L 737.822553 58.703397 
L 740.417298 57.661152 
L 741.974146 57.288922 
L 742.493095 57.214476 
L 743.012044 56.991137 
L 743.530993 56.953914 
L 744.568891 56.581684 
L 745.08784 56.544461 
L 746.644687 55.948892 
L 747.163636 55.8 
L 747.163636 55.8 
" clip-path="url(#p2406efbd9b)" style="fill: none; stroke: #1f77b4; stroke-width: 1.5; stroke-linecap: square"/>
   </g>
   <g id="line2d_40">
    <path d="M 138.955313 307.8 
L 140.51216 307.725554 
L 142.069007 307.688331 
L 145.182702 307.613885 
L 147.777447 307.502216 
L 149.853243 307.502216 
L 150.372193 307.353323 
L 152.447989 307.278877 
L 154.004836 307.092762 
L 156.080632 306.906647 
L 157.63748 306.832201 
L 162.82697 306.534417 
L 166.978563 306.45997 
L 169.573309 306.348301 
L 175.800698 306.273855 
L 178.395443 306.162186 
L 181.509137 306.08774 
L 183.584934 306.013294 
L 188.255475 305.938848 
L 189.812323 305.901625 
L 191.36917 305.864402 
L 193.444966 305.678287 
L 195.001814 305.641064 
L 197.596559 305.566617 
L 199.672355 305.492171 
L 203.304999 305.417725 
L 205.380795 305.23161 
L 207.975541 305.157164 
L 209.532388 305.119941 
L 212.127133 305.045495 
L 213.68398 304.896603 
L 217.316624 304.822157 
L 219.911369 304.598818 
L 220.949268 304.487149 
L 225.619809 304.226588 
L 228.733504 304.152142 
L 233.404046 303.891581 
L 234.960893 303.817134 
L 240.150384 303.51935 
L 245.858824 303.444904 
L 247.93462 303.221566 
L 248.972518 303.14712 
L 255.718856 302.588774 
L 259.3515 302.179321 
L 260.908347 302.104874 
L 265.578889 301.546529 
L 268.173634 301.472083 
L 269.730481 301.323191 
L 270.768379 301.285968 
L 272.325227 301.174298 
L 273.363125 301.099852 
L 274.919972 300.876514 
L 275.438921 300.876514 
L 276.995768 300.653176 
L 279.071565 300.57873 
L 280.109463 300.504284 
L 282.185259 300.429838 
L 283.223157 300.355391 
L 285.817903 300.09483 
L 286.855801 299.908715 
L 288.412648 299.871492 
L 289.450546 299.797046 
L 292.045292 299.7226 
L 298.79163 299.313146 
L 300.348477 299.2387 
L 307.094815 298.829247 
L 310.727459 298.754801 
L 311.765357 298.643131 
L 315.398 298.568685 
L 319.030644 298.38257 
L 324.739084 298.308124 
L 328.371728 298.122009 
L 332.52332 298.047563 
L 336.674913 297.824225 
L 340.307556 297.749778 
L 350.167589 297.116987 
L 355.35708 297.042541 
L 357.951825 296.781979 
L 360.546571 296.744756 
L 363.141316 296.484195 
L 367.811858 296.223634 
L 370.925552 296.149188 
L 372.482399 296.111965 
L 374.039247 296.074742 
L 375.596094 295.925849 
L 379.747687 295.851403 
L 380.785585 295.702511 
L 381.823483 295.628065 
L 384.418228 295.516396 
L 385.456126 295.44195 
L 386.494025 295.367504 
L 391.164566 295.293058 
L 392.721414 295.181388 
L 406.21409 294.288035 
L 408.289886 294.213589 
L 410.884631 294.10192 
L 418.149919 294.027474 
L 421.782562 293.841359 
L 425.934155 293.766913 
L 428.009951 293.692467 
L 430.085748 293.655244 
L 431.642595 293.543575 
L 436.313136 293.283013 
L 437.351035 293.208567 
L 439.426831 293.134121 
L 442.021576 293.059675 
L 444.616322 292.948006 
L 448.248965 292.87356 
L 450.324762 292.799114 
L 456.552151 292.724668 
L 459.146896 292.612999 
L 462.260591 292.538552 
L 464.336387 292.352437 
L 465.893234 292.315214 
L 467.96903 292.240768 
L 469.525878 292.129099 
L 475.234318 292.054653 
L 477.310114 291.980207 
L 484.575401 291.905761 
L 486.132248 291.868538 
L 489.245943 291.794092 
L 490.80279 291.756869 
L 497.549128 291.682422 
L 498.587026 291.607976 
L 504.295466 291.53353 
L 506.371262 291.459084 
L 516.231295 291.384638 
L 517.788142 291.347415 
L 522.458684 291.272969 
L 523.496582 291.198523 
L 535.95136 291.124077 
L 537.508207 291.086854 
L 551.519833 291.012408 
L 553.07668 290.975185 
L 562.417763 290.900739 
L 563.455661 290.826292 
L 566.050407 290.751846 
L 567.607254 290.602954 
L 570.202 290.528508 
L 573.315694 290.379616 
L 577.467287 290.30517 
L 578.505185 290.230724 
L 582.656777 290.156278 
L 585.770472 290.007386 
L 588.365217 289.932939 
L 592.51681 289.709601 
L 595.630505 289.635155 
L 597.706301 289.560709 
L 604.452639 289.486263 
L 606.528435 289.411817 
L 610.680028 289.337371 
L 614.312671 289.151256 
L 618.983213 289.076809 
L 620.021111 289.002363 
L 629.362195 288.927917 
L 630.919042 288.890694 
L 633.513787 288.853471 
L 636.108533 288.59291 
L 640.260126 288.518464 
L 645.449616 288.220679 
L 648.044362 288.146233 
L 650.120158 288.071787 
L 655.828598 287.997341 
L 658.942292 287.662334 
L 662.574936 287.587888 
L 665.688631 287.438996 
L 669.321274 287.364549 
L 671.91602 287.25288 
L 678.662358 287.215657 
L 679.700256 287.103988 
L 683.332899 287.029542 
L 684.889747 286.992319 
L 687.484492 286.917873 
L 689.041339 286.88065 
L 697.863474 286.806204 
L 700.458219 286.694535 
L 707.723506 286.620089 
L 709.799302 286.545643 
L 715.507742 286.471196 
L 716.545641 286.359527 
L 721.216182 286.322304 
L 722.25408 286.247858 
L 724.848826 286.173412 
L 726.405673 286.136189 
L 733.152011 286.061743 
L 734.708858 286.02452 
L 735.746757 285.950074 
L 737.303604 285.912851 
L 737.822553 285.912851 
L 738.860451 285.726736 
L 745.606789 285.65229 
L 747.163636 285.577843 
L 747.163636 285.577843 
" clip-path="url(#p2406efbd9b)" style="fill: none; stroke: #ff7f0e; stroke-width: 1.5; stroke-linecap: square"/>
   </g>
   <g id="patch_3">
    <path d="M 108 320.4 
L 108 43.2 
" style="fill: none; stroke: #a9a9a9; stroke-width: 0.8; stroke-linejoin: miter; stroke-linecap: square"/>
   </g>
   <g id="patch_4">
    <path d="M 777.6 320.4 
L 777.6 43.2 
" style="fill: none"/>
   </g>
   <g id="patch_5">
    <path d="M 108 320.4 
L 777.6 320.4 
" style="fill: none; stroke: #a9a9a9; stroke-width: 0.8; stroke-linejoin: miter; stroke-linecap: square"/>
   </g>
   <g id="patch_6">
    <path d="M 108 43.2 
L 777.6 43.2 
" style="fill: none"/>
   </g>
   <g id="text_20">
    <!-- get_subscribe history -->
    <g style="fill: #a9a9a9" transform="translate(378.6075 37.2) scale(0.12 -0.12)">
     <defs>
      <path id="DejaVuSans-67" d="M 2906 1791 
Q 2906 2416 2648 2759 
Q 2391 3103 1925 3103 
Q 1463 3103 1205 2759 
Q 947 2416 947 1791 
Q 947 1169 1205 825 
Q 1463 481 1925 481 
Q 2391 481 2648 825 
Q 2906 1169 2906 1791 
z
M 3481 434 
Q 3481 -459 3084 -895 
Q 2688 -1331 1869 -1331 
Q 1566 -1331 1297 -1286 
Q 1028 -1241 775 -1147 
L 775 -588 
Q 1028 -725 1275 -790 
Q 1522 -856 1778 -856 
Q 2344 -856 2625 -561 
Q 2906 -266 2906 331 
L 2906 616 
Q 2728 306 2450 153 
Q 2172 0 1784 0 
Q 1141 0 747 490 
Q 353 981 353 1791 
Q 353 2603 747 3093 
Q 1141 3584 1784 3584 
Q 2172 3584 2450 3431 
Q 2728 3278 2906 2969 
L 2906 3500 
L 3481 3500 
L 3481 434 
z
" transform="scale(0.015625)"/>
      <path id="DejaVuSans-65" d="M 3597 1894 
L 3597 1613 
L 953 1613 
Q 991 1019 1311 708 
Q 1631 397 2203 397 
Q 2534 397 2845 478 
Q 3156 559 3463 722 
L 3463 178 
Q 3153 47 2828 -22 
Q 2503 -91 2169 -91 
Q 1331 -91 842 396 
Q 353 884 353 1716 
Q 353 2575 817 3079 
Q 1281 3584 2069 3584 
Q 2775 3584 3186 3129 
Q 3597 2675 3597 1894 
z
M 3022 2063 
Q 3016 2534 2758 2815 
Q 2500 3097 2075 3097 
Q 1594 3097 1305 2825 
Q 1016 2553 972 2059 
L 3022 2063 
z
" transform="scale(0.015625)"/>
      <path id="DejaVuSans-74" d="M 1172 4494 
L 1172 3500 
L 2356 3500 
L 2356 3053 
L 1172 3053 
L 1172 1153 
Q 1172 725 1289 603 
Q 1406 481 1766 481 
L 2356 481 
L 2356 0 
L 1766 0 
Q 1100 0 847 248 
Q 594 497 594 1153 
L 594 3053 
L 172 3053 
L 172 3500 
L 594 3500 
L 594 4494 
L 1172 4494 
z
" transform="scale(0.015625)"/>
      <path id="DejaVuSans-5f" d="M 3263 -1063 
L 3263 -1509 
L -63 -1509 
L -63 -1063 
L 3263 -1063 
z
" transform="scale(0.015625)"/>
      <path id="DejaVuSans-73" d="M 2834 3397 
L 2834 2853 
Q 2591 2978 2328 3040 
Q 2066 3103 1784 3103 
Q 1356 3103 1142 2972 
Q 928 2841 928 2578 
Q 928 2378 1081 2264 
Q 1234 2150 1697 2047 
L 1894 2003 
Q 2506 1872 2764 1633 
Q 3022 1394 3022 966 
Q 3022 478 2636 193 
Q 2250 -91 1575 -91 
Q 1294 -91 989 -36 
Q 684 19 347 128 
L 347 722 
Q 666 556 975 473 
Q 1284 391 1588 391 
Q 1994 391 2212 530 
Q 2431 669 2431 922 
Q 2431 1156 2273 1281 
Q 2116 1406 1581 1522 
L 1381 1569 
Q 847 1681 609 1914 
Q 372 2147 372 2553 
Q 372 3047 722 3315 
Q 1072 3584 1716 3584 
Q 2034 3584 2315 3537 
Q 2597 3491 2834 3397 
z
" transform="scale(0.015625)"/>
      <path id="DejaVuSans-75" d="M 544 1381 
L 544 3500 
L 1119 3500 
L 1119 1403 
Q 1119 906 1312 657 
Q 1506 409 1894 409 
Q 2359 409 2629 706 
Q 2900 1003 2900 1516 
L 2900 3500 
L 3475 3500 
L 3475 0 
L 2900 0 
L 2900 538 
Q 2691 219 2414 64 
Q 2138 -91 1772 -91 
Q 1169 -91 856 284 
Q 544 659 544 1381 
z
M 1991 3584 
L 1991 3584 
z
" transform="scale(0.015625)"/>
      <path id="DejaVuSans-62" d="M 3116 1747 
Q 3116 2381 2855 2742 
Q 2594 3103 2138 3103 
Q 1681 3103 1420 2742 
Q 1159 2381 1159 1747 
Q 1159 1113 1420 752 
Q 1681 391 2138 391 
Q 2594 391 2855 752 
Q 3116 1113 3116 1747 
z
M 1159 2969 
Q 1341 3281 1617 3432 
Q 1894 3584 2278 3584 
Q 2916 3584 3314 3078 
Q 3713 2572 3713 1747 
Q 3713 922 3314 415 
Q 2916 -91 2278 -91 
Q 1894 -91 1617 61 
Q 1341 213 1159 525 
L 1159 0 
L 581 0 
L 581 4863 
L 1159 4863 
L 1159 2969 
z
" transform="scale(0.015625)"/>
      <path id="DejaVuSans-63" d="M 3122 3366 
L 3122 2828 
Q 2878 2963 2633 3030 
Q 2388 3097 2138 3097 
Q 1578 3097 1268 2742 
Q 959 2388 959 1747 
Q 959 1106 1268 751 
Q 1578 397 2138 397 
Q 2388 397 2633 464 
Q 2878 531 3122 666 
L 3122 134 
Q 2881 22 2623 -34 
Q 2366 -91 2075 -91 
Q 1284 -91 818 406 
Q 353 903 353 1747 
Q 353 2603 823 3093 
Q 1294 3584 2113 3584 
Q 2378 3584 2631 3529 
Q 2884 3475 3122 3366 
z
" transform="scale(0.015625)"/>
      <path id="DejaVuSans-72" d="M 2631 2963 
Q 2534 3019 2420 3045 
Q 2306 3072 2169 3072 
Q 1681 3072 1420 2755 
Q 1159 2438 1159 1844 
L 1159 0 
L 581 0 
L 581 3500 
L 1159 3500 
L 1159 2956 
Q 1341 3275 1631 3429 
Q 1922 3584 2338 3584 
Q 2397 3584 2469 3576 
Q 2541 3569 2628 3553 
L 2631 2963 
z
" transform="scale(0.015625)"/>
      <path id="DejaVuSans-69" d="M 603 3500 
L 1178 3500 
L 1178 0 
L 603 0 
L 603 3500 
z
M 603 4863 
L 1178 4863 
L 1178 4134 
L 603 4134 
L 603 4863 
z
" transform="scale(0.015625)"/>
      <path id="DejaVuSans-20" transform="scale(0.015625)"/>
      <path id="DejaVuSans-68" d="M 3513 2113 
L 3513 0 
L 2938 0 
L 2938 2094 
Q 2938 2591 2744 2837 
Q 2550 3084 2163 3084 
Q 1697 3084 1428 2787 
Q 1159 2491 1159 1978 
L 1159 0 
L 581 0 
L 581 4863 
L 1159 4863 
L 1159 2956 
Q 1366 3272 1645 3428 
Q 1925 3584 2291 3584 
Q 2894 3584 3203 3211 
Q 3513 2838 3513 2113 
z
" transform="scale(0.015625)"/>
      <path id="DejaVuSans-6f" d="M 1959 3097 
Q 1497 3097 1228 2736 
Q 959 2375 959 1747 
Q 959 1119 1226 758 
Q 1494 397 1959 397 
Q 2419 397 2687 759 
Q 2956 1122 2956 1747 
Q 2956 2369 2687 2733 
Q 2419 3097 1959 3097 
z
M 1959 3584 
Q 2709 3584 3137 3096 
Q 3566 2609 3566 1747 
Q 3566 888 3137 398 
Q 2709 -91 1959 -91 
Q 1206 -91 779 398 
Q 353 888 353 1747 
Q 353 2609 779 3096 
Q 1206 3584 1959 3584 
z
" transform="scale(0.015625)"/>
      <path id="DejaVuSans-79" d="M 2059 -325 
Q 1816 -950 1584 -1140 
Q 1353 -1331 966 -1331 
L 506 -1331 
L 506 -850 
L 844 -850 
Q 1081 -850 1212 -737 
Q 1344 -625 1503 -206 
L 1606 56 
L 191 3500 
L 800 3500 
L 1894 763 
L 2988 3500 
L 3597 3500 
L 2059 -325 
z
" transform="scale(0.015625)"/>
     </defs>
     <use xlink:href="#DejaVuSans-67"/>
     <use xlink:href="#DejaVuSans-65" x="63.476562"/>
     <use xlink:href="#DejaVuSans-74" x="125"/>
     <use xlink:href="#DejaVuSans-5f" x="164.208984"/>
     <use xlink:href="#DejaVuSans-73" x="214.208984"/>
     <use xlink:href="#DejaVuSans-75" x="266.308594"/>
     <use xlink:href="#DejaVuSans-62" x="329.6875"/>
     <use xlink:href="#DejaVuSans-73" x="393.164062"/>
     <use xlink:href="#DejaVuSans-63" x="445.263672"/>
     <use xlink:href="#DejaVuSans-72" x="500.244141"/>
     <use xlink:href="#DejaVuSans-69" x="541.357422"/>
     <use xlink:href="#DejaVuSans-62" x="569.140625"/>
     <use xlink:href="#DejaVuSans-65" x="632.617188"/>
     <use xlink:href="#DejaVuSans-20" x="694.140625"/>
     <use xlink:href="#DejaVuSans-68" x="725.927734"/>
     <use xlink:href="#DejaVuSans-69" x="789.306641"/>
     <use xlink:href="#DejaVuSans-73" x="817.089844"/>
     <use xlink:href="#DejaVuSans-74" x="869.189453"/>
     <use xlink:href="#DejaVuSans-6f" x="908.398438"/>
     <use xlink:href="#DejaVuSans-72" x="969.580078"/>
     <use xlink:href="#DejaVuSans-79" x="1010.693359"/>
    </g>
   </g>
   <g id="legend_1">
    <g id="line2d_41">
     <path d="M 815.08 328.498438 
L 825.08 328.498438 
L 835.08 328.498438 
" style="fill: none; stroke: #1f77b4; stroke-width: 1.5; stroke-linecap: square"/>
    </g>
    <g id="text_21">
     <!-- star -->
     <g style="fill: #a9a9a9" transform="translate(843.08 331.998438) scale(0.1 -0.1)">
      <defs>
       <path id="DejaVuSans-61" d="M 2194 1759 
Q 1497 1759 1228 1600 
Q 959 1441 959 1056 
Q 959 750 1161 570 
Q 1363 391 1709 391 
Q 2188 391 2477 730 
Q 2766 1069 2766 1631 
L 2766 1759 
L 2194 1759 
z
M 3341 1997 
L 3341 0 
L 2766 0 
L 2766 531 
Q 2569 213 2275 61 
Q 1981 -91 1556 -91 
Q 1019 -91 701 211 
Q 384 513 384 1019 
Q 384 1609 779 1909 
Q 1175 2209 1959 2209 
L 2766 2209 
L 2766 2266 
Q 2766 2663 2505 2880 
Q 2244 3097 1772 3097 
Q 1472 3097 1187 3025 
Q 903 2953 641 2809 
L 641 3341 
Q 956 3463 1253 3523 
Q 1550 3584 1831 3584 
Q 2591 3584 2966 3190 
Q 3341 2797 3341 1997 
z
" transform="scale(0.015625)"/>
      </defs>
      <use xlink:href="#DejaVuSans-73"/>
      <use xlink:href="#DejaVuSans-74" x="52.099609"/>
      <use xlink:href="#DejaVuSans-61" x="91.308594"/>
      <use xlink:href="#DejaVuSans-72" x="152.587891"/>
     </g>
    </g>
    <g id="line2d_42">
     <path d="M 815.08 343.176562 
L 825.08 343.176562 
L 835.08 343.176562 
" style="fill: none; stroke: #ff7f0e; stroke-width: 1.5; stroke-linecap: square"/>
    </g>
    <g id="text_22">
     <!-- fork -->
     <g style="fill: #a9a9a9" transform="translate(843.08 346.676562) scale(0.1 -0.1)">
      <defs>
       <path id="DejaVuSans-66" d="M 2375 4863 
L 2375 4384 
L 1825 4384 
Q 1516 4384 1395 4259 
Q 1275 4134 1275 3809 
L 1275 3500 
L 2222 3500 
L 2222 3053 
L 1275 3053 
L 1275 0 
L 697 0 
L 697 3053 
L 147 3053 
L 147 3500 
L 697 3500 
L 697 3744 
Q 697 4328 969 4595 
Q 1241 4863 1831 4863 
L 2375 4863 
z
" transform="scale(0.015625)"/>
       <path id="DejaVuSans-6b" d="M 581 4863 
L 1159 4863 
L 1159 1991 
L 2875 3500 
L 3609 3500 
L 1753 1863 
L 3688 0 
L 2938 0 
L 1159 1709 
L 1159 0 
L 581 0 
L 581 4863 
z
" transform="scale(0.015625)"/>
      </defs>
      <use xlink:href="#DejaVuSans-66"/>
      <use xlink:href="#DejaVuSans-6f" x="35.205078"/>
      <use xlink:href="#DejaVuSans-72" x="96.386719"/>
      <use xlink:href="#DejaVuSans-6b" x="137.5"/>
     </g>
    </g>
   </g>
  </g>
 </g>
 <defs>
  <clipPath id="p2406efbd9b">
   <rect x="108" y="43.2" width="669.6" height="277.2"/>
  </clipPath>
 </defs>
</svg>
