<?xml version="1.0" encoding="utf-8" standalone="no"?>
<!DOCTYPE svg PUBLIC "-//W3C//DTD SVG 1.1//EN"
  "http://www.w3.org/Graphics/SVG/1.1/DTD/svg11.dtd">
<svg xmlns:xlink="http://www.w3.org/1999/xlink" width="864pt" height="360pt" viewBox="0 0 864 360" xmlns="http://www.w3.org/2000/svg" version="1.1">
 <metadata>
  <rdf:RDF xmlns:dc="http://purl.org/dc/elements/1.1/" xmlns:cc="http://creativecommons.org/ns#" xmlns:rdf="http://www.w3.org/1999/02/22-rdf-syntax-ns#">
   <cc:Work>
    <dc:type rdf:resource="http://purl.org/dc/dcmitype/StillImage"/>
    <dc:date>2025-07-04T08:16:20.255557</dc:date>
    <dc:format>image/svg+xml</dc:format>
    <dc:creator>
     <cc:Agent>
      <dc:title>Matplotlib v3.10.3, https://matplotlib.org/</dc:title>
     </cc:Agent>
    </dc:creator>
   </cc:Work>
  </rdf:RDF>
 </metadata>
 <defs>
  <style type="text/css">*{stroke-linejoin: round; stroke-linecap: butt}</style>
 </defs>
 <g id="figure_1">
  <g id="patch_1">
   <path d="M 0 360 
L 864 360 
L 864 0 
L 0 0 
L 0 360 
z
" style="fill: none; opacity: 0"/>
  </g>
  <g id="axes_1">
   <g id="patch_2">
    <path d="M 108 320.4 
L 777.6 320.4 
L 777.6 43.2 
L 108 43.2 
L 108 320.4 
z
" style="fill: none; opacity: 0"/>
   </g>
   <g id="matplotlib.axis_1">
    <g id="xtick_1">
     <g id="line2d_1">
      <path d="M 128.720384 320.4 
L 128.720384 43.2 
" clip-path="url(#pc7872122a2)" style="fill: none; stroke-dasharray: 5.12,1.28,0.8,1.28; stroke-dashoffset: 0; stroke: #b0b0b0; stroke-width: 0.8"/>
     </g>
     <g id="line2d_2">
      <defs>
       <path id="ma15992c27b" d="M 0 0 
L 0 3.5 
" style="stroke: #a9a9a9; stroke-width: 0.8"/>
      </defs>
      <g>
       <use xlink:href="#ma15992c27b" x="128.720384" y="320.4" style="fill: #a9a9a9; stroke: #a9a9a9; stroke-width: 0.8"/>
      </g>
     </g>
     <g id="text_1">
      <!-- 2021-07 -->
      <g style="fill: #a9a9a9" transform="translate(107.828977 334.998438) scale(0.1 -0.1)">
       <defs>
        <path id="DejaVuSans-32" d="M 1228 531 
L 3431 531 
L 3431 0 
L 469 0 
L 469 531 
Q 828 903 1448 1529 
Q 2069 2156 2228 2338 
Q 2531 2678 2651 2914 
Q 2772 3150 2772 3378 
Q 2772 3750 2511 3984 
Q 2250 4219 1831 4219 
Q 1534 4219 1204 4116 
Q 875 4013 500 3803 
L 500 4441 
Q 881 4594 1212 4672 
Q 1544 4750 1819 4750 
Q 2544 4750 2975 4387 
Q 3406 4025 3406 3419 
Q 3406 3131 3298 2873 
Q 3191 2616 2906 2266 
Q 2828 2175 2409 1742 
Q 1991 1309 1228 531 
z
" transform="scale(0.015625)"/>
        <path id="DejaVuSans-30" d="M 2034 4250 
Q 1547 4250 1301 3770 
Q 1056 3291 1056 2328 
Q 1056 1369 1301 889 
Q 1547 409 2034 409 
Q 2525 409 2770 889 
Q 3016 1369 3016 2328 
Q 3016 3291 2770 3770 
Q 2525 4250 2034 4250 
z
M 2034 4750 
Q 2819 4750 3233 4129 
Q 3647 3509 3647 2328 
Q 3647 1150 3233 529 
Q 2819 -91 2034 -91 
Q 1250 -91 836 529 
Q 422 1150 422 2328 
Q 422 3509 836 4129 
Q 1250 4750 2034 4750 
z
" transform="scale(0.015625)"/>
        <path id="DejaVuSans-31" d="M 794 531 
L 1825 531 
L 1825 4091 
L 703 3866 
L 703 4441 
L 1819 4666 
L 2450 4666 
L 2450 531 
L 3481 531 
L 3481 0 
L 794 0 
L 794 531 
z
" transform="scale(0.015625)"/>
        <path id="DejaVuSans-2d" d="M 313 2009 
L 1997 2009 
L 1997 1497 
L 313 1497 
L 313 2009 
z
" transform="scale(0.015625)"/>
        <path id="DejaVuSans-37" d="M 525 4666 
L 3525 4666 
L 3525 4397 
L 1831 0 
L 1172 0 
L 2766 4134 
L 525 4134 
L 525 4666 
z
" transform="scale(0.015625)"/>
       </defs>
       <use xlink:href="#DejaVuSans-32"/>
       <use xlink:href="#DejaVuSans-30" transform="translate(63.623047 0)"/>
       <use xlink:href="#DejaVuSans-32" transform="translate(127.246094 0)"/>
       <use xlink:href="#DejaVuSans-31" transform="translate(190.869141 0)"/>
       <use xlink:href="#DejaVuSans-2d" transform="translate(254.492188 0)"/>
       <use xlink:href="#DejaVuSans-30" transform="translate(290.576172 0)"/>
       <use xlink:href="#DejaVuSans-37" transform="translate(354.199219 0)"/>
      </g>
     </g>
    </g>
    <g id="xtick_2">
     <g id="line2d_3">
      <path d="M 206.448224 320.4 
L 206.448224 43.2 
" clip-path="url(#pc7872122a2)" style="fill: none; stroke-dasharray: 5.12,1.28,0.8,1.28; stroke-dashoffset: 0; stroke: #b0b0b0; stroke-width: 0.8"/>
     </g>
     <g id="line2d_4">
      <g>
       <use xlink:href="#ma15992c27b" x="206.448224" y="320.4" style="fill: #a9a9a9; stroke: #a9a9a9; stroke-width: 0.8"/>
      </g>
     </g>
     <g id="text_2">
      <!-- 2022-01 -->
      <g style="fill: #a9a9a9" transform="translate(185.556818 334.998438) scale(0.1 -0.1)">
       <use xlink:href="#DejaVuSans-32"/>
       <use xlink:href="#DejaVuSans-30" transform="translate(63.623047 0)"/>
       <use xlink:href="#DejaVuSans-32" transform="translate(127.246094 0)"/>
       <use xlink:href="#DejaVuSans-32" transform="translate(190.869141 0)"/>
       <use xlink:href="#DejaVuSans-2d" transform="translate(254.492188 0)"/>
       <use xlink:href="#DejaVuSans-30" transform="translate(290.576172 0)"/>
       <use xlink:href="#DejaVuSans-31" transform="translate(354.199219 0)"/>
      </g>
     </g>
    </g>
    <g id="xtick_3">
     <g id="line2d_5">
      <path d="M 282.908763 320.4 
L 282.908763 43.2 
" clip-path="url(#pc7872122a2)" style="fill: none; stroke-dasharray: 5.12,1.28,0.8,1.28; stroke-dashoffset: 0; stroke: #b0b0b0; stroke-width: 0.8"/>
     </g>
     <g id="line2d_6">
      <g>
       <use xlink:href="#ma15992c27b" x="282.908763" y="320.4" style="fill: #a9a9a9; stroke: #a9a9a9; stroke-width: 0.8"/>
      </g>
     </g>
     <g id="text_3">
      <!-- 2022-07 -->
      <g style="fill: #a9a9a9" transform="translate(262.017357 334.998438) scale(0.1 -0.1)">
       <use xlink:href="#DejaVuSans-32"/>
       <use xlink:href="#DejaVuSans-30" transform="translate(63.623047 0)"/>
       <use xlink:href="#DejaVuSans-32" transform="translate(127.246094 0)"/>
       <use xlink:href="#DejaVuSans-32" transform="translate(190.869141 0)"/>
       <use xlink:href="#DejaVuSans-2d" transform="translate(254.492188 0)"/>
       <use xlink:href="#DejaVuSans-30" transform="translate(290.576172 0)"/>
       <use xlink:href="#DejaVuSans-37" transform="translate(354.199219 0)"/>
      </g>
     </g>
    </g>
    <g id="xtick_4">
     <g id="line2d_7">
      <path d="M 360.636603 320.4 
L 360.636603 43.2 
" clip-path="url(#pc7872122a2)" style="fill: none; stroke-dasharray: 5.12,1.28,0.8,1.28; stroke-dashoffset: 0; stroke: #b0b0b0; stroke-width: 0.8"/>
     </g>
     <g id="line2d_8">
      <g>
       <use xlink:href="#ma15992c27b" x="360.636603" y="320.4" style="fill: #a9a9a9; stroke: #a9a9a9; stroke-width: 0.8"/>
      </g>
     </g>
     <g id="text_4">
      <!-- 2023-01 -->
      <g style="fill: #a9a9a9" transform="translate(339.745197 334.998438) scale(0.1 -0.1)">
       <defs>
        <path id="DejaVuSans-33" d="M 2597 2516 
Q 3050 2419 3304 2112 
Q 3559 1806 3559 1356 
Q 3559 666 3084 287 
Q 2609 -91 1734 -91 
Q 1441 -91 1130 -33 
Q 819 25 488 141 
L 488 750 
Q 750 597 1062 519 
Q 1375 441 1716 441 
Q 2309 441 2620 675 
Q 2931 909 2931 1356 
Q 2931 1769 2642 2001 
Q 2353 2234 1838 2234 
L 1294 2234 
L 1294 2753 
L 1863 2753 
Q 2328 2753 2575 2939 
Q 2822 3125 2822 3475 
Q 2822 3834 2567 4026 
Q 2313 4219 1838 4219 
Q 1578 4219 1281 4162 
Q 984 4106 628 3988 
L 628 4550 
Q 988 4650 1302 4700 
Q 1616 4750 1894 4750 
Q 2613 4750 3031 4423 
Q 3450 4097 3450 3541 
Q 3450 3153 3228 2886 
Q 3006 2619 2597 2516 
z
" transform="scale(0.015625)"/>
       </defs>
       <use xlink:href="#DejaVuSans-32"/>
       <use xlink:href="#DejaVuSans-30" transform="translate(63.623047 0)"/>
       <use xlink:href="#DejaVuSans-32" transform="translate(127.246094 0)"/>
       <use xlink:href="#DejaVuSans-33" transform="translate(190.869141 0)"/>
       <use xlink:href="#DejaVuSans-2d" transform="translate(254.492188 0)"/>
       <use xlink:href="#DejaVuSans-30" transform="translate(290.576172 0)"/>
       <use xlink:href="#DejaVuSans-31" transform="translate(354.199219 0)"/>
      </g>
     </g>
    </g>
    <g id="xtick_5">
     <g id="line2d_9">
      <path d="M 437.097142 320.4 
L 437.097142 43.2 
" clip-path="url(#pc7872122a2)" style="fill: none; stroke-dasharray: 5.12,1.28,0.8,1.28; stroke-dashoffset: 0; stroke: #b0b0b0; stroke-width: 0.8"/>
     </g>
     <g id="line2d_10">
      <g>
       <use xlink:href="#ma15992c27b" x="437.097142" y="320.4" style="fill: #a9a9a9; stroke: #a9a9a9; stroke-width: 0.8"/>
      </g>
     </g>
     <g id="text_5">
      <!-- 2023-07 -->
      <g style="fill: #a9a9a9" transform="translate(416.205736 334.998438) scale(0.1 -0.1)">
       <use xlink:href="#DejaVuSans-32"/>
       <use xlink:href="#DejaVuSans-30" transform="translate(63.623047 0)"/>
       <use xlink:href="#DejaVuSans-32" transform="translate(127.246094 0)"/>
       <use xlink:href="#DejaVuSans-33" transform="translate(190.869141 0)"/>
       <use xlink:href="#DejaVuSans-2d" transform="translate(254.492188 0)"/>
       <use xlink:href="#DejaVuSans-30" transform="translate(290.576172 0)"/>
       <use xlink:href="#DejaVuSans-37" transform="translate(354.199219 0)"/>
      </g>
     </g>
    </g>
    <g id="xtick_6">
     <g id="line2d_11">
      <path d="M 514.824983 320.4 
L 514.824983 43.2 
" clip-path="url(#pc7872122a2)" style="fill: none; stroke-dasharray: 5.12,1.28,0.8,1.28; stroke-dashoffset: 0; stroke: #b0b0b0; stroke-width: 0.8"/>
     </g>
     <g id="line2d_12">
      <g>
       <use xlink:href="#ma15992c27b" x="514.824983" y="320.4" style="fill: #a9a9a9; stroke: #a9a9a9; stroke-width: 0.8"/>
      </g>
     </g>
     <g id="text_6">
      <!-- 2024-01 -->
      <g style="fill: #a9a9a9" transform="translate(493.933576 334.998438) scale(0.1 -0.1)">
       <defs>
        <path id="DejaVuSans-34" d="M 2419 4116 
L 825 1625 
L 2419 1625 
L 2419 4116 
z
M 2253 4666 
L 3047 4666 
L 3047 1625 
L 3713 1625 
L 3713 1100 
L 3047 1100 
L 3047 0 
L 2419 0 
L 2419 1100 
L 313 1100 
L 313 1709 
L 2253 4666 
z
" transform="scale(0.015625)"/>
       </defs>
       <use xlink:href="#DejaVuSans-32"/>
       <use xlink:href="#DejaVuSans-30" transform="translate(63.623047 0)"/>
       <use xlink:href="#DejaVuSans-32" transform="translate(127.246094 0)"/>
       <use xlink:href="#DejaVuSans-34" transform="translate(190.869141 0)"/>
       <use xlink:href="#DejaVuSans-2d" transform="translate(254.492188 0)"/>
       <use xlink:href="#DejaVuSans-30" transform="translate(290.576172 0)"/>
       <use xlink:href="#DejaVuSans-31" transform="translate(354.199219 0)"/>
      </g>
     </g>
    </g>
    <g id="xtick_7">
     <g id="line2d_13">
      <path d="M 591.707955 320.4 
L 591.707955 43.2 
" clip-path="url(#pc7872122a2)" style="fill: none; stroke-dasharray: 5.12,1.28,0.8,1.28; stroke-dashoffset: 0; stroke: #b0b0b0; stroke-width: 0.8"/>
     </g>
     <g id="line2d_14">
      <g>
       <use xlink:href="#ma15992c27b" x="591.707955" y="320.4" style="fill: #a9a9a9; stroke: #a9a9a9; stroke-width: 0.8"/>
      </g>
     </g>
     <g id="text_7">
      <!-- 2024-07 -->
      <g style="fill: #a9a9a9" transform="translate(570.816549 334.998438) scale(0.1 -0.1)">
       <use xlink:href="#DejaVuSans-32"/>
       <use xlink:href="#DejaVuSans-30" transform="translate(63.623047 0)"/>
       <use xlink:href="#DejaVuSans-32" transform="translate(127.246094 0)"/>
       <use xlink:href="#DejaVuSans-34" transform="translate(190.869141 0)"/>
       <use xlink:href="#DejaVuSans-2d" transform="translate(254.492188 0)"/>
       <use xlink:href="#DejaVuSans-30" transform="translate(290.576172 0)"/>
       <use xlink:href="#DejaVuSans-37" transform="translate(354.199219 0)"/>
      </g>
     </g>
    </g>
    <g id="xtick_8">
     <g id="line2d_15">
      <path d="M 669.435796 320.4 
L 669.435796 43.2 
" clip-path="url(#pc7872122a2)" style="fill: none; stroke-dasharray: 5.12,1.28,0.8,1.28; stroke-dashoffset: 0; stroke: #b0b0b0; stroke-width: 0.8"/>
     </g>
     <g id="line2d_16">
      <g>
       <use xlink:href="#ma15992c27b" x="669.435796" y="320.4" style="fill: #a9a9a9; stroke: #a9a9a9; stroke-width: 0.8"/>
      </g>
     </g>
     <g id="text_8">
      <!-- 2025-01 -->
      <g style="fill: #a9a9a9" transform="translate(648.54439 334.998438) scale(0.1 -0.1)">
       <defs>
        <path id="DejaVuSans-35" d="M 691 4666 
L 3169 4666 
L 3169 4134 
L 1269 4134 
L 1269 2991 
Q 1406 3038 1543 3061 
Q 1681 3084 1819 3084 
Q 2600 3084 3056 2656 
Q 3513 2228 3513 1497 
Q 3513 744 3044 326 
Q 2575 -91 1722 -91 
Q 1428 -91 1123 -41 
Q 819 9 494 109 
L 494 744 
Q 775 591 1075 516 
Q 1375 441 1709 441 
Q 2250 441 2565 725 
Q 2881 1009 2881 1497 
Q 2881 1984 2565 2268 
Q 2250 2553 1709 2553 
Q 1456 2553 1204 2497 
Q 953 2441 691 2322 
L 691 4666 
z
" transform="scale(0.015625)"/>
       </defs>
       <use xlink:href="#DejaVuSans-32"/>
       <use xlink:href="#DejaVuSans-30" transform="translate(63.623047 0)"/>
       <use xlink:href="#DejaVuSans-32" transform="translate(127.246094 0)"/>
       <use xlink:href="#DejaVuSans-35" transform="translate(190.869141 0)"/>
       <use xlink:href="#DejaVuSans-2d" transform="translate(254.492188 0)"/>
       <use xlink:href="#DejaVuSans-30" transform="translate(290.576172 0)"/>
       <use xlink:href="#DejaVuSans-31" transform="translate(354.199219 0)"/>
      </g>
     </g>
    </g>
    <g id="xtick_9">
     <g id="line2d_17">
      <path d="M 745.896335 320.4 
L 745.896335 43.2 
" clip-path="url(#pc7872122a2)" style="fill: none; stroke-dasharray: 5.12,1.28,0.8,1.28; stroke-dashoffset: 0; stroke: #b0b0b0; stroke-width: 0.8"/>
     </g>
     <g id="line2d_18">
      <g>
       <use xlink:href="#ma15992c27b" x="745.896335" y="320.4" style="fill: #a9a9a9; stroke: #a9a9a9; stroke-width: 0.8"/>
      </g>
     </g>
     <g id="text_9">
      <!-- 2025-07 -->
      <g style="fill: #a9a9a9" transform="translate(725.004928 334.998438) scale(0.1 -0.1)">
       <use xlink:href="#DejaVuSans-32"/>
       <use xlink:href="#DejaVuSans-30" transform="translate(63.623047 0)"/>
       <use xlink:href="#DejaVuSans-32" transform="translate(127.246094 0)"/>
       <use xlink:href="#DejaVuSans-35" transform="translate(190.869141 0)"/>
       <use xlink:href="#DejaVuSans-2d" transform="translate(254.492188 0)"/>
       <use xlink:href="#DejaVuSans-30" transform="translate(290.576172 0)"/>
       <use xlink:href="#DejaVuSans-37" transform="translate(354.199219 0)"/>
      </g>
     </g>
    </g>
   </g>
   <g id="matplotlib.axis_2">
    <g id="ytick_1">
     <g id="line2d_19">
      <path d="M 108 307.832254 
L 777.6 307.832254 
" clip-path="url(#pc7872122a2)" style="fill: none; stroke-dasharray: 5.12,1.28,0.8,1.28; stroke-dashoffset: 0; stroke: #b0b0b0; stroke-width: 0.8"/>
     </g>
     <g id="line2d_20">
      <defs>
       <path id="m81b2e57bb1" d="M 0 0 
L -3.5 0 
" style="stroke: #a9a9a9; stroke-width: 0.8"/>
      </defs>
      <g>
       <use xlink:href="#m81b2e57bb1" x="108" y="307.832254" style="fill: #a9a9a9; stroke: #a9a9a9; stroke-width: 0.8"/>
      </g>
     </g>
     <g id="text_10">
      <!-- 0 -->
      <g style="fill: #a9a9a9" transform="translate(94.6375 311.631473) scale(0.1 -0.1)">
       <use xlink:href="#DejaVuSans-30"/>
      </g>
     </g>
    </g>
    <g id="ytick_2">
     <g id="line2d_21">
      <path d="M 108 275.578318 
L 777.6 275.578318 
" clip-path="url(#pc7872122a2)" style="fill: none; stroke-dasharray: 5.12,1.28,0.8,1.28; stroke-dashoffset: 0; stroke: #b0b0b0; stroke-width: 0.8"/>
     </g>
     <g id="line2d_22">
      <g>
       <use xlink:href="#m81b2e57bb1" x="108" y="275.578318" style="fill: #a9a9a9; stroke: #a9a9a9; stroke-width: 0.8"/>
      </g>
     </g>
     <g id="text_11">
      <!-- 1000 -->
      <g style="fill: #a9a9a9" transform="translate(75.55 279.377537) scale(0.1 -0.1)">
       <use xlink:href="#DejaVuSans-31"/>
       <use xlink:href="#DejaVuSans-30" transform="translate(63.623047 0)"/>
       <use xlink:href="#DejaVuSans-30" transform="translate(127.246094 0)"/>
       <use xlink:href="#DejaVuSans-30" transform="translate(190.869141 0)"/>
      </g>
     </g>
    </g>
    <g id="ytick_3">
     <g id="line2d_23">
      <path d="M 108 243.324382 
L 777.6 243.324382 
" clip-path="url(#pc7872122a2)" style="fill: none; stroke-dasharray: 5.12,1.28,0.8,1.28; stroke-dashoffset: 0; stroke: #b0b0b0; stroke-width: 0.8"/>
     </g>
     <g id="line2d_24">
      <g>
       <use xlink:href="#m81b2e57bb1" x="108" y="243.324382" style="fill: #a9a9a9; stroke: #a9a9a9; stroke-width: 0.8"/>
      </g>
     </g>
     <g id="text_12">
      <!-- 2000 -->
      <g style="fill: #a9a9a9" transform="translate(75.55 247.123601) scale(0.1 -0.1)">
       <use xlink:href="#DejaVuSans-32"/>
       <use xlink:href="#DejaVuSans-30" transform="translate(63.623047 0)"/>
       <use xlink:href="#DejaVuSans-30" transform="translate(127.246094 0)"/>
       <use xlink:href="#DejaVuSans-30" transform="translate(190.869141 0)"/>
      </g>
     </g>
    </g>
    <g id="ytick_4">
     <g id="line2d_25">
      <path d="M 108 211.070447 
L 777.6 211.070447 
" clip-path="url(#pc7872122a2)" style="fill: none; stroke-dasharray: 5.12,1.28,0.8,1.28; stroke-dashoffset: 0; stroke: #b0b0b0; stroke-width: 0.8"/>
     </g>
     <g id="line2d_26">
      <g>
       <use xlink:href="#m81b2e57bb1" x="108" y="211.070447" style="fill: #a9a9a9; stroke: #a9a9a9; stroke-width: 0.8"/>
      </g>
     </g>
     <g id="text_13">
      <!-- 3000 -->
      <g style="fill: #a9a9a9" transform="translate(75.55 214.869665) scale(0.1 -0.1)">
       <use xlink:href="#DejaVuSans-33"/>
       <use xlink:href="#DejaVuSans-30" transform="translate(63.623047 0)"/>
       <use xlink:href="#DejaVuSans-30" transform="translate(127.246094 0)"/>
       <use xlink:href="#DejaVuSans-30" transform="translate(190.869141 0)"/>
      </g>
     </g>
    </g>
    <g id="ytick_5">
     <g id="line2d_27">
      <path d="M 108 178.816511 
L 777.6 178.816511 
" clip-path="url(#pc7872122a2)" style="fill: none; stroke-dasharray: 5.12,1.28,0.8,1.28; stroke-dashoffset: 0; stroke: #b0b0b0; stroke-width: 0.8"/>
     </g>
     <g id="line2d_28">
      <g>
       <use xlink:href="#m81b2e57bb1" x="108" y="178.816511" style="fill: #a9a9a9; stroke: #a9a9a9; stroke-width: 0.8"/>
      </g>
     </g>
     <g id="text_14">
      <!-- 4000 -->
      <g style="fill: #a9a9a9" transform="translate(75.55 182.61573) scale(0.1 -0.1)">
       <use xlink:href="#DejaVuSans-34"/>
       <use xlink:href="#DejaVuSans-30" transform="translate(63.623047 0)"/>
       <use xlink:href="#DejaVuSans-30" transform="translate(127.246094 0)"/>
       <use xlink:href="#DejaVuSans-30" transform="translate(190.869141 0)"/>
      </g>
     </g>
    </g>
    <g id="ytick_6">
     <g id="line2d_29">
      <path d="M 108 146.562575 
L 777.6 146.562575 
" clip-path="url(#pc7872122a2)" style="fill: none; stroke-dasharray: 5.12,1.28,0.8,1.28; stroke-dashoffset: 0; stroke: #b0b0b0; stroke-width: 0.8"/>
     </g>
     <g id="line2d_30">
      <g>
       <use xlink:href="#m81b2e57bb1" x="108" y="146.562575" style="fill: #a9a9a9; stroke: #a9a9a9; stroke-width: 0.8"/>
      </g>
     </g>
     <g id="text_15">
      <!-- 5000 -->
      <g style="fill: #a9a9a9" transform="translate(75.55 150.361794) scale(0.1 -0.1)">
       <use xlink:href="#DejaVuSans-35"/>
       <use xlink:href="#DejaVuSans-30" transform="translate(63.623047 0)"/>
       <use xlink:href="#DejaVuSans-30" transform="translate(127.246094 0)"/>
       <use xlink:href="#DejaVuSans-30" transform="translate(190.869141 0)"/>
      </g>
     </g>
    </g>
    <g id="ytick_7">
     <g id="line2d_31">
      <path d="M 108 114.308639 
L 777.6 114.308639 
" clip-path="url(#pc7872122a2)" style="fill: none; stroke-dasharray: 5.12,1.28,0.8,1.28; stroke-dashoffset: 0; stroke: #b0b0b0; stroke-width: 0.8"/>
     </g>
     <g id="line2d_32">
      <g>
       <use xlink:href="#m81b2e57bb1" x="108" y="114.308639" style="fill: #a9a9a9; stroke: #a9a9a9; stroke-width: 0.8"/>
      </g>
     </g>
     <g id="text_16">
      <!-- 6000 -->
      <g style="fill: #a9a9a9" transform="translate(75.55 118.107858) scale(0.1 -0.1)">
       <defs>
        <path id="DejaVuSans-36" d="M 2113 2584 
Q 1688 2584 1439 2293 
Q 1191 2003 1191 1497 
Q 1191 994 1439 701 
Q 1688 409 2113 409 
Q 2538 409 2786 701 
Q 3034 994 3034 1497 
Q 3034 2003 2786 2293 
Q 2538 2584 2113 2584 
z
M 3366 4563 
L 3366 3988 
Q 3128 4100 2886 4159 
Q 2644 4219 2406 4219 
Q 1781 4219 1451 3797 
Q 1122 3375 1075 2522 
Q 1259 2794 1537 2939 
Q 1816 3084 2150 3084 
Q 2853 3084 3261 2657 
Q 3669 2231 3669 1497 
Q 3669 778 3244 343 
Q 2819 -91 2113 -91 
Q 1303 -91 875 529 
Q 447 1150 447 2328 
Q 447 3434 972 4092 
Q 1497 4750 2381 4750 
Q 2619 4750 2861 4703 
Q 3103 4656 3366 4563 
z
" transform="scale(0.015625)"/>
       </defs>
       <use xlink:href="#DejaVuSans-36"/>
       <use xlink:href="#DejaVuSans-30" transform="translate(63.623047 0)"/>
       <use xlink:href="#DejaVuSans-30" transform="translate(127.246094 0)"/>
       <use xlink:href="#DejaVuSans-30" transform="translate(190.869141 0)"/>
      </g>
     </g>
    </g>
    <g id="ytick_8">
     <g id="line2d_33">
      <path d="M 108 82.054704 
L 777.6 82.054704 
" clip-path="url(#pc7872122a2)" style="fill: none; stroke-dasharray: 5.12,1.28,0.8,1.28; stroke-dashoffset: 0; stroke: #b0b0b0; stroke-width: 0.8"/>
     </g>
     <g id="line2d_34">
      <g>
       <use xlink:href="#m81b2e57bb1" x="108" y="82.054704" style="fill: #a9a9a9; stroke: #a9a9a9; stroke-width: 0.8"/>
      </g>
     </g>
     <g id="text_17">
      <!-- 7000 -->
      <g style="fill: #a9a9a9" transform="translate(75.55 85.853922) scale(0.1 -0.1)">
       <use xlink:href="#DejaVuSans-37"/>
       <use xlink:href="#DejaVuSans-30" transform="translate(63.623047 0)"/>
       <use xlink:href="#DejaVuSans-30" transform="translate(127.246094 0)"/>
       <use xlink:href="#DejaVuSans-30" transform="translate(190.869141 0)"/>
      </g>
     </g>
    </g>
    <g id="ytick_9">
     <g id="line2d_35">
      <path d="M 108 49.800768 
L 777.6 49.800768 
" clip-path="url(#pc7872122a2)" style="fill: none; stroke-dasharray: 5.12,1.28,0.8,1.28; stroke-dashoffset: 0; stroke: #b0b0b0; stroke-width: 0.8"/>
     </g>
     <g id="line2d_36">
      <g>
       <use xlink:href="#m81b2e57bb1" x="108" y="49.800768" style="fill: #a9a9a9; stroke: #a9a9a9; stroke-width: 0.8"/>
      </g>
     </g>
     <g id="text_18">
      <!-- 8000 -->
      <g style="fill: #a9a9a9" transform="translate(75.55 53.599987) scale(0.1 -0.1)">
       <defs>
        <path id="DejaVuSans-38" d="M 2034 2216 
Q 1584 2216 1326 1975 
Q 1069 1734 1069 1313 
Q 1069 891 1326 650 
Q 1584 409 2034 409 
Q 2484 409 2743 651 
Q 3003 894 3003 1313 
Q 3003 1734 2745 1975 
Q 2488 2216 2034 2216 
z
M 1403 2484 
Q 997 2584 770 2862 
Q 544 3141 544 3541 
Q 544 4100 942 4425 
Q 1341 4750 2034 4750 
Q 2731 4750 3128 4425 
Q 3525 4100 3525 3541 
Q 3525 3141 3298 2862 
Q 3072 2584 2669 2484 
Q 3125 2378 3379 2068 
Q 3634 1759 3634 1313 
Q 3634 634 3220 271 
Q 2806 -91 2034 -91 
Q 1263 -91 848 271 
Q 434 634 434 1313 
Q 434 1759 690 2068 
Q 947 2378 1403 2484 
z
M 1172 3481 
Q 1172 3119 1398 2916 
Q 1625 2713 2034 2713 
Q 2441 2713 2670 2916 
Q 2900 3119 2900 3481 
Q 2900 3844 2670 4047 
Q 2441 4250 2034 4250 
Q 1625 4250 1398 4047 
Q 1172 3844 1172 3481 
z
" transform="scale(0.015625)"/>
       </defs>
       <use xlink:href="#DejaVuSans-38"/>
       <use xlink:href="#DejaVuSans-30" transform="translate(63.623047 0)"/>
       <use xlink:href="#DejaVuSans-30" transform="translate(127.246094 0)"/>
       <use xlink:href="#DejaVuSans-30" transform="translate(190.869141 0)"/>
      </g>
     </g>
    </g>
   </g>
   <g id="line2d_37">
    <path d="M 138.436364 307.735492 
L 140.970967 307.509715 
L 141.393401 307.316191 
L 143.083137 307.090413 
L 144.772872 306.73562 
L 145.61774 306.606604 
L 147.72991 306.413081 
L 148.574778 306.058287 
L 148.997212 305.477717 
L 149.419645 305.187431 
L 149.842079 304.219813 
L 150.264513 304.155305 
L 150.686947 303.800512 
L 151.531815 303.348957 
L 153.221551 301.929784 
L 154.911286 301.058927 
L 156.178588 300.446103 
L 156.601022 299.736516 
L 157.44589 299.091437 
L 157.868324 298.897914 
L 162.092663 298.252835 
L 162.515097 298.059311 
L 165.472134 297.80128 
L 167.16187 297.381979 
L 170.541341 296.89817 
L 170.963775 296.672392 
L 171.386209 296.607884 
L 172.231077 296.317599 
L 175.188114 295.801536 
L 176.032982 295.543504 
L 179.834887 294.898426 
L 180.679755 294.704902 
L 181.524623 294.672648 
L 183.214359 294.253347 
L 183.636793 293.640522 
L 184.904094 293.124459 
L 186.171396 292.769666 
L 186.59383 292.543888 
L 187.438698 292.382619 
L 189.128434 291.866556 
L 189.973301 291.802048 
L 190.818169 291.57627 
L 192.507905 291.124715 
L 192.930339 291.092461 
L 193.775207 290.67316 
L 194.197641 290.608652 
L 194.620074 290.382875 
L 199.266848 289.576526 
L 200.956583 289.060463 
L 201.379017 288.770178 
L 203.491187 288.060591 
L 204.336055 287.447767 
L 205.603356 287.189735 
L 211.094997 285.577038 
L 211.517431 285.51253 
L 213.207167 284.835198 
L 213.629601 284.77069 
L 214.474468 284.415897 
L 215.319336 284.383643 
L 216.586638 283.996595 
L 217.009072 283.996595 
L 217.431506 283.803072 
L 218.276374 283.70631 
L 218.698808 283.54504 
L 220.388543 283.480532 
L 221.233411 283.319263 
L 222.078279 282.867708 
L 223.345581 282.383899 
L 224.190449 281.932344 
L 225.035316 281.480788 
L 225.880184 281.190503 
L 226.302618 281.061487 
L 227.147486 280.51317 
L 227.56992 280.029361 
L 228.414788 278.674696 
L 228.837222 278.54568 
L 229.259656 278.54568 
L 230.949391 277.578062 
L 231.371825 277.4813 
L 231.794259 277.061999 
L 232.639127 276.707206 
L 233.483995 276.320159 
L 233.906429 275.804096 
L 234.328863 275.094509 
L 234.751296 274.804224 
L 235.17373 274.030129 
L 235.596164 273.54632 
L 238.130768 272.127147 
L 238.975636 271.41756 
L 239.39807 271.159529 
L 239.820503 270.546704 
L 240.242937 269.546832 
L 240.665371 268.901753 
L 241.087805 268.54696 
L 241.510239 268.353437 
L 244.88971 265.160297 
L 245.734578 264.353949 
L 248.269182 262.708998 
L 248.691616 262.547728 
L 250.381351 261.515602 
L 250.803785 261.322079 
L 252.915955 259.322335 
L 253.760823 258.967541 
L 254.60569 258.354716 
L 255.028124 258.096685 
L 255.450558 258.032177 
L 256.71786 257.290337 
L 257.140294 256.806528 
L 259.252464 255.613132 
L 259.674897 255.451862 
L 260.942199 254.548752 
L 267.278708 252.226469 
L 268.123576 251.42012 
L 269.390878 250.775042 
L 270.235745 250.226725 
L 271.080613 249.968693 
L 271.503047 249.678408 
L 271.925481 249.549392 
L 273.192783 248.678536 
L 275.304952 248.194727 
L 276.572254 247.420632 
L 277.839556 247.130347 
L 278.26199 247.033585 
L 279.529292 246.065967 
L 281.219027 245.582158 
L 281.641461 245.227365 
L 284.176065 244.324254 
L 285.020932 244.162985 
L 285.8658 243.808191 
L 288.822838 242.679304 
L 289.667706 242.550288 
L 290.935007 242.098733 
L 293.047177 241.034353 
L 295.58178 239.582926 
L 296.426648 239.357148 
L 297.69395 238.71207 
L 298.538818 238.5508 
L 299.383686 238.034737 
L 300.228553 237.808959 
L 301.495855 237.292896 
L 303.185591 237.067119 
L 304.030459 236.615564 
L 304.452893 236.228517 
L 304.875326 235.454422 
L 306.565062 234.970613 
L 307.832364 234.29328 
L 308.677232 234.002995 
L 309.944533 233.357916 
L 312.056703 232.48706 
L 312.901571 232.293536 
L 314.168873 231.648458 
L 314.591307 231.58395 
L 316.703476 230.51957 
L 317.548344 229.971253 
L 318.815646 229.713222 
L 320.927815 229.164905 
L 321.350249 228.810111 
L 322.195117 228.519826 
L 324.307287 227.64897 
L 324.729721 227.32643 
L 325.152154 227.165161 
L 325.997022 226.681352 
L 327.686758 226.133035 
L 328.531626 225.584718 
L 328.95406 225.133163 
L 329.376494 224.875131 
L 329.798928 224.778369 
L 330.643795 224.068783 
L 331.066229 224.004275 
L 331.488663 223.294688 
L 331.911097 223.101165 
L 332.333531 222.746371 
L 332.755965 222.681864 
L 333.600833 222.133547 
L 334.445701 221.843261 
L 334.868135 221.520722 
L 335.290568 221.359452 
L 336.980304 220.198311 
L 338.247606 219.553232 
L 339.092474 219.327454 
L 339.937341 218.843645 
L 340.359775 218.101805 
L 341.204643 217.456726 
L 341.627077 217.359964 
L 344.161681 216.102061 
L 345.006548 215.747267 
L 345.851416 215.134443 
L 347.118718 213.941047 
L 347.963586 213.424984 
L 348.38602 212.941175 
L 350.075755 211.747779 
L 350.920623 210.876923 
L 351.765491 210.586638 
L 352.610359 210.006067 
L 353.877661 209.328734 
L 354.300095 209.264226 
L 355.567396 208.55464 
L 356.412264 208.006323 
L 360.636603 206.393626 
L 361.059037 206.038833 
L 362.748773 205.3615 
L 363.171207 205.232484 
L 364.016075 204.684167 
L 364.860943 204.329374 
L 365.70581 203.716549 
L 366.550678 201.974837 
L 367.395546 200.942711 
L 368.662848 200.265378 
L 369.507716 199.910585 
L 369.93015 199.846077 
L 370.775017 199.45903 
L 372.464753 198.878459 
L 373.309621 198.39465 
L 374.154489 197.975349 
L 374.576923 197.846333 
L 377.111526 196.298144 
L 377.53396 195.814335 
L 378.801262 195.072495 
L 379.223696 194.911225 
L 380.068563 194.395162 
L 381.758299 193.459798 
L 382.180733 193.363036 
L 382.603167 193.008243 
L 385.560204 192.008371 
L 385.982638 191.685831 
L 386.827506 191.4278 
L 387.672374 191.073007 
L 388.094808 190.718213 
L 389.784544 190.105388 
L 390.629411 189.492564 
L 391.474279 189.13777 
L 392.319147 188.460438 
L 393.164015 188.202406 
L 393.586449 187.815359 
L 394.008883 187.750851 
L 394.853751 187.073518 
L 396.96592 185.815615 
L 397.810788 185.557584 
L 398.233222 185.299552 
L 398.655656 185.235044 
L 399.922958 184.525458 
L 401.612693 183.944887 
L 402.457561 183.815871 
L 402.879995 183.622347 
L 403.302429 183.557839 
L 404.147297 183.170792 
L 404.569731 183.138538 
L 406.259466 182.49346 
L 407.526768 181.558095 
L 407.949202 181.396826 
L 408.79407 180.913017 
L 409.216504 180.784001 
L 411.751107 179.332574 
L 412.173541 179.235812 
L 413.440843 178.461718 
L 414.708145 178.010163 
L 415.553012 177.719877 
L 417.242748 177.139306 
L 418.087616 176.849021 
L 419.777352 176.494228 
L 420.199786 176.300704 
L 421.044653 176.074926 
L 421.467087 175.881403 
L 421.889521 175.816895 
L 422.311955 175.591117 
L 423.156823 175.429848 
L 424.424125 174.946039 
L 425.691426 174.752515 
L 428.22603 174.268706 
L 429.493332 173.978421 
L 429.915766 173.784897 
L 430.760633 173.623627 
L 431.605501 173.39785 
L 432.450369 173.010803 
L 432.872803 172.849533 
L 433.295237 172.849533 
L 437.94201 171.398106 
L 438.364444 171.172328 
L 438.786878 171.172328 
L 439.631746 170.849789 
L 440.05418 170.398234 
L 442.588783 169.333854 
L 444.278519 168.753283 
L 444.700953 168.495252 
L 445.968254 168.108204 
L 446.813122 167.882427 
L 447.235556 167.592141 
L 447.65799 167.495379 
L 448.080424 167.108332 
L 449.347726 166.850301 
L 450.192594 166.463254 
L 450.615027 165.947191 
L 455.261801 164.915065 
L 455.684234 164.915065 
L 456.106668 164.721541 
L 457.796404 164.399002 
L 458.218838 164.205478 
L 459.908574 163.882939 
L 460.753441 163.528145 
L 461.598309 163.366876 
L 463.710479 162.818559 
L 465.400214 162.270242 
L 465.822648 162.17348 
L 466.245082 161.947703 
L 467.08995 161.721925 
L 467.934818 161.367132 
L 468.779686 161.044592 
L 469.20212 160.754307 
L 470.046988 160.496275 
L 473.004025 159.367388 
L 474.693761 159.173864 
L 478.073232 157.915961 
L 478.495666 157.593421 
L 478.9181 157.496659 
L 479.340534 157.270882 
L 479.762968 157.238628 
L 484.409741 155.529169 
L 486.52191 154.948598 
L 487.366778 154.529297 
L 488.63408 154.239012 
L 490.323816 152.819839 
L 492.013551 152.077998 
L 492.858419 151.690951 
L 495.393023 150.691079 
L 495.815456 150.400794 
L 497.927626 149.691207 
L 499.194928 148.949366 
L 499.617362 148.852605 
L 501.729531 147.691463 
L 502.996833 147.110892 
L 503.419267 146.788353 
L 504.264135 146.498067 
L 506.376304 145.401434 
L 507.643606 144.949878 
L 509.333342 144.240292 
L 510.600643 143.756483 
L 511.023077 143.595213 
L 511.867945 143.466197 
L 512.290379 143.175912 
L 513.980115 142.853373 
L 514.824983 142.498579 
L 516.514718 141.692231 
L 522.428793 139.047408 
L 523.696095 138.628107 
L 524.118529 138.337822 
L 524.963397 138.24106 
L 525.385831 137.950774 
L 526.230698 137.821759 
L 527.075566 137.402457 
L 527.498 137.208934 
L 528.342868 136.983156 
L 529.187736 136.725125 
L 530.455038 136.241316 
L 531.722339 135.822015 
L 532.989641 135.531729 
L 534.679377 134.822143 
L 535.524245 134.370587 
L 537.21398 133.499731 
L 538.058848 133.306208 
L 538.481282 133.048176 
L 538.903716 132.951414 
L 540.171018 132.209574 
L 541.015885 131.85478 
L 550.309432 128.24234 
L 551.999167 127.435991 
L 556.223506 125.758787 
L 557.068374 125.339485 
L 557.490808 125.242724 
L 557.913242 125.016946 
L 559.602978 124.533137 
L 561.292713 123.113964 
L 561.715147 122.984948 
L 562.137581 122.726917 
L 563.404883 122.372123 
L 563.827317 122.049584 
L 564.249751 121.952822 
L 565.517053 121.178728 
L 565.939486 120.888442 
L 567.206788 120.404633 
L 567.629222 120.178856 
L 568.896524 119.88857 
L 571.008693 119.14673 
L 571.853561 118.888698 
L 573.120863 118.211366 
L 573.965731 117.792065 
L 574.810599 117.566287 
L 576.0779 116.953462 
L 580.30224 115.244004 
L 582.414409 114.211878 
L 583.259277 113.889338 
L 583.681711 113.502291 
L 584.526579 113.147498 
L 585.793881 112.695943 
L 586.216314 112.341149 
L 586.638748 112.308895 
L 587.483616 112.050864 
L 588.328484 111.760579 
L 588.750918 111.567055 
L 589.173352 111.502547 
L 590.01822 111.147754 
L 591.285521 110.857468 
L 592.130389 110.373659 
L 592.552823 110.21239 
L 592.975257 109.88985 
L 594.242559 109.567311 
L 594.664993 109.309279 
L 595.509861 109.083502 
L 596.777162 108.373915 
L 597.199596 108.341661 
L 598.466898 107.92236 
L 599.311766 107.857852 
L 599.7342 107.632075 
L 600.579068 107.406297 
L 601.001501 107.18052 
L 603.113671 106.761218 
L 603.958539 106.599949 
L 605.225841 106.11614 
L 606.493142 105.825854 
L 607.760444 105.148522 
L 608.182878 104.761474 
L 609.45018 103.98738 
L 609.872614 103.664841 
L 611.139915 103.245539 
L 611.984783 103.019762 
L 615.786689 101.342557 
L 617.476424 100.891002 
L 618.321292 100.503955 
L 618.743726 100.278177 
L 619.588594 100.020146 
L 620.011028 99.794368 
L 620.855896 99.633099 
L 624.235367 98.149418 
L 624.657801 98.08491 
L 625.925103 97.246307 
L 626.347536 97.1818 
L 628.037272 96.504467 
L 629.727008 96.085166 
L 630.149442 96.020658 
L 630.571876 95.827134 
L 630.99431 95.79488 
L 631.839177 95.504595 
L 632.261611 95.472341 
L 633.528913 94.988532 
L 635.218649 94.504723 
L 636.063516 93.859644 
L 637.753252 92.892026 
L 638.175686 92.795264 
L 638.59812 92.569487 
L 639.442988 92.279201 
L 639.865422 92.150186 
L 640.287856 91.795392 
L 641.555157 91.311583 
L 642.400025 90.827774 
L 642.822459 90.601997 
L 643.244893 90.214949 
L 645.357063 89.634379 
L 646.624364 89.053808 
L 647.469232 88.82803 
L 647.891666 88.602253 
L 648.3141 88.247459 
L 650.003836 87.795904 
L 650.42627 87.473365 
L 655.917911 85.441367 
L 656.762778 85.280097 
L 658.874948 84.602765 
L 659.719816 84.247971 
L 660.564684 83.925432 
L 661.409551 83.699654 
L 661.831985 83.506131 
L 662.254419 83.506131 
L 663.099287 83.151338 
L 663.944155 82.667528 
L 666.901192 81.667656 
L 668.590928 81.087086 
L 669.85823 80.7968 
L 671.125532 80.377499 
L 671.547965 80.280737 
L 671.970399 79.990452 
L 672.815267 79.796928 
L 674.505003 79.313119 
L 674.927437 79.280865 
L 675.772305 78.893818 
L 678.729342 78.151977 
L 679.57421 77.797184 
L 683.798549 76.829566 
L 685.065851 76.152233 
L 686.333152 75.765186 
L 692.247227 73.604173 
L 693.092095 73.346141 
L 693.936963 72.92684 
L 694.359397 72.572047 
L 695.204265 72.314015 
L 695.626699 72.055984 
L 696.471566 71.959222 
L 699.428604 71.120619 
L 700.695906 70.862588 
L 701.963207 70.540049 
L 702.808075 70.314271 
L 704.075377 69.669192 
L 705.765113 69.024114 
L 706.60998 68.572559 
L 707.032414 68.540305 
L 707.877282 68.121003 
L 710.83432 67.282401 
L 712.101621 67.088878 
L 712.946489 66.798592 
L 714.213791 66.411545 
L 718.015696 65.347165 
L 718.860564 65.121387 
L 719.282998 65.024626 
L 719.705432 64.766594 
L 720.5503 64.605324 
L 721.395167 64.508563 
L 721.817601 64.282785 
L 722.240035 64.250531 
L 723.507337 63.605452 
L 724.774639 63.315167 
L 725.619507 62.92812 
L 726.464374 62.637834 
L 727.309242 62.412057 
L 728.15411 62.057264 
L 728.998978 61.766978 
L 730.688714 61.283169 
L 731.533581 61.218661 
L 732.378449 60.928376 
L 732.800883 60.767106 
L 733.645751 60.63809 
L 735.335487 59.89625 
L 735.757921 59.831742 
L 736.180355 59.605964 
L 737.025222 59.444695 
L 737.87009 59.380187 
L 740.404694 58.702854 
L 741.249562 58.348061 
L 741.671995 58.283553 
L 742.094429 58.025522 
L 742.939297 57.283681 
L 746.741202 55.8 
L 747.163636 55.8 
L 747.163636 55.8 
" clip-path="url(#pc7872122a2)" style="fill: none; stroke: #1f77b4; stroke-width: 1.5; stroke-linecap: square"/>
   </g>
   <g id="line2d_38">
    <path d="M 138.858798 307.8 
L 142.660703 307.703238 
L 146.040174 307.541969 
L 147.72991 307.541969 
L 148.152344 307.412953 
L 150.264513 307.316191 
L 152.799117 307.025906 
L 155.33372 306.929144 
L 156.178588 306.832382 
L 159.135626 306.703366 
L 162.092663 306.606604 
L 164.204833 306.542097 
L 169.696473 306.445335 
L 171.808643 306.380827 
L 175.610548 306.284065 
L 177.300284 306.251811 
L 181.524623 306.155049 
L 183.214359 305.99378 
L 184.904094 305.961526 
L 187.438698 305.864764 
L 189.128434 305.83251 
L 191.240603 305.768002 
L 192.930339 305.606732 
L 196.732244 305.509971 
L 197.577112 305.445463 
L 199.266848 305.348701 
L 201.801451 305.251939 
L 203.491187 305.155177 
L 211.094997 304.671368 
L 214.052035 304.574606 
L 215.319336 304.445591 
L 217.431506 304.348829 
L 221.655845 304.123051 
L 225.880184 304.058543 
L 227.56992 303.86502 
L 229.682089 303.768258 
L 233.906429 303.348957 
L 236.441032 303.026418 
L 238.130768 302.96191 
L 241.510239 302.510355 
L 244.044843 302.445847 
L 245.312144 302.316831 
L 246.579446 302.220069 
L 258.407596 301.284705 
L 259.252464 301.123435 
L 261.787067 301.026673 
L 268.54601 300.607372 
L 271.503047 300.510611 
L 273.192783 300.317087 
L 275.304952 300.220325 
L 277.839556 300.123563 
L 279.951725 300.026801 
L 281.641461 299.994548 
L 283.753631 299.93004 
L 284.598499 299.801024 
L 290.512573 299.704262 
L 291.357441 299.6075 
L 296.426648 299.510739 
L 300.228553 299.317215 
L 303.185591 299.220453 
L 304.875326 299.026929 
L 307.832364 298.930168 
L 308.677232 298.801152 
L 310.789401 298.736644 
L 315.01374 298.672136 
L 316.703476 298.510867 
L 318.393212 298.478613 
L 319.660514 298.381851 
L 321.350249 298.220581 
L 325.574588 297.994804 
L 329.798928 297.898042 
L 333.600833 297.704518 
L 334.868135 297.672264 
L 335.713002 297.543248 
L 337.825172 297.446487 
L 338.67004 297.381979 
L 339.514908 297.317471 
L 340.359775 297.252963 
L 344.584115 297.156201 
L 356.412264 296.349853 
L 358.946868 296.253091 
L 361.059037 296.188583 
L 366.973112 296.091821 
L 367.81798 295.962806 
L 373.732055 295.866044 
L 377.956394 295.640266 
L 378.801262 295.608012 
L 379.64613 295.51125 
L 381.758299 295.414489 
L 383.870469 295.349981 
L 385.982638 295.253219 
L 388.094808 295.188711 
L 391.896713 295.091949 
L 394.431317 294.995188 
L 400.345391 294.898426 
L 404.992165 294.640394 
L 406.6819 294.575886 
L 407.949202 294.479125 
L 413.863277 294.382363 
L 416.39788 294.285601 
L 424.001691 294.188839 
L 425.691426 294.156585 
L 430.760633 294.092077 
L 431.605501 294.027569 
L 437.519576 293.930808 
L 439.209312 293.898554 
L 450.192594 293.801792 
L 452.727197 293.70503 
L 470.469421 293.608268 
L 472.581591 293.54376 
L 483.564873 293.479253 
L 484.409741 293.414745 
L 486.52191 293.350237 
L 487.789212 293.221221 
L 490.323816 293.124459 
L 493.280853 292.995443 
L 497.082758 292.898682 
L 499.194928 292.834174 
L 502.151965 292.737412 
L 505.531437 292.576142 
L 507.643606 292.479381 
L 509.333342 292.447127 
L 513.135247 292.350365 
L 514.824983 292.318111 
L 520.316624 292.221349 
L 522.006359 292.189095 
L 524.118529 292.092333 
L 526.653132 291.995571 
L 529.61017 291.931064 
L 530.455038 291.866556 
L 540.593452 291.769794 
L 544.817791 291.544016 
L 547.774828 291.447255 
L 552.421601 291.189223 
L 555.378639 291.092461 
L 557.068374 291.060207 
L 560.025412 290.963446 
L 562.137581 290.737668 
L 566.36192 290.640906 
L 567.206788 290.544144 
L 571.431127 290.447383 
L 573.543297 290.382875 
L 578.19007 290.350621 
L 579.034938 290.253859 
L 583.681711 290.157097 
L 584.526579 290.092589 
L 593.820125 289.995827 
L 596.354728 289.899066 
L 602.691237 289.802304 
L 604.380973 289.77005 
L 608.182878 289.705542 
L 609.027746 289.60878 
L 614.519387 289.512018 
L 616.631556 289.447511 
L 624.235367 289.350749 
L 625.502669 289.253987 
L 626.76997 289.157225 
L 628.037272 289.060463 
L 634.373781 288.963702 
L 636.908384 288.86694 
L 648.3141 288.770178 
L 652.116005 288.576654 
L 657.185212 288.479892 
L 658.03008 288.415385 
L 664.366589 288.350877 
L 665.211457 288.286369 
L 669.85823 288.189607 
L 671.547965 288.157353 
L 678.729342 288.060591 
L 679.57421 287.996083 
L 687.17802 287.899322 
L 688.867756 287.867068 
L 692.669661 287.770306 
L 696.049133 287.609036 
L 700.695906 287.512274 
L 703.652943 287.383259 
L 707.454848 287.286497 
L 708.299716 287.221989 
L 716.748394 287.125227 
L 718.860564 287.060719 
L 721.395167 286.963958 
L 723.929771 286.867196 
L 736.602788 286.770434 
L 739.559826 286.641418 
L 744.629033 286.544656 
L 746.318769 286.512402 
L 747.163636 286.512402 
L 747.163636 286.512402 
" clip-path="url(#pc7872122a2)" style="fill: none; stroke: #ff7f0e; stroke-width: 1.5; stroke-linecap: square"/>
   </g>
   <g id="patch_3">
    <path d="M 108 320.4 
L 108 43.2 
" style="fill: none; stroke: #a9a9a9; stroke-width: 0.8; stroke-linejoin: miter; stroke-linecap: square"/>
   </g>
   <g id="patch_4">
    <path d="M 777.6 320.4 
L 777.6 43.2 
" style="fill: none"/>
   </g>
   <g id="patch_5">
    <path d="M 108 320.4 
L 777.6 320.4 
" style="fill: none; stroke: #a9a9a9; stroke-width: 0.8; stroke-linejoin: miter; stroke-linecap: square"/>
   </g>
   <g id="patch_6">
    <path d="M 108 43.2 
L 777.6 43.2 
" style="fill: none"/>
   </g>
   <g id="text_19">
    <!-- get_subscribe history -->
    <g style="fill: #a9a9a9" transform="translate(378.6075 37.2) scale(0.12 -0.12)">
     <defs>
      <path id="DejaVuSans-67" d="M 2906 1791 
Q 2906 2416 2648 2759 
Q 2391 3103 1925 3103 
Q 1463 3103 1205 2759 
Q 947 2416 947 1791 
Q 947 1169 1205 825 
Q 1463 481 1925 481 
Q 2391 481 2648 825 
Q 2906 1169 2906 1791 
z
M 3481 434 
Q 3481 -459 3084 -895 
Q 2688 -1331 1869 -1331 
Q 1566 -1331 1297 -1286 
Q 1028 -1241 775 -1147 
L 775 -588 
Q 1028 -725 1275 -790 
Q 1522 -856 1778 -856 
Q 2344 -856 2625 -561 
Q 2906 -266 2906 331 
L 2906 616 
Q 2728 306 2450 153 
Q 2172 0 1784 0 
Q 1141 0 747 490 
Q 353 981 353 1791 
Q 353 2603 747 3093 
Q 1141 3584 1784 3584 
Q 2172 3584 2450 3431 
Q 2728 3278 2906 2969 
L 2906 3500 
L 3481 3500 
L 3481 434 
z
" transform="scale(0.015625)"/>
      <path id="DejaVuSans-65" d="M 3597 1894 
L 3597 1613 
L 953 1613 
Q 991 1019 1311 708 
Q 1631 397 2203 397 
Q 2534 397 2845 478 
Q 3156 559 3463 722 
L 3463 178 
Q 3153 47 2828 -22 
Q 2503 -91 2169 -91 
Q 1331 -91 842 396 
Q 353 884 353 1716 
Q 353 2575 817 3079 
Q 1281 3584 2069 3584 
Q 2775 3584 3186 3129 
Q 3597 2675 3597 1894 
z
M 3022 2063 
Q 3016 2534 2758 2815 
Q 2500 3097 2075 3097 
Q 1594 3097 1305 2825 
Q 1016 2553 972 2059 
L 3022 2063 
z
" transform="scale(0.015625)"/>
      <path id="DejaVuSans-74" d="M 1172 4494 
L 1172 3500 
L 2356 3500 
L 2356 3053 
L 1172 3053 
L 1172 1153 
Q 1172 725 1289 603 
Q 1406 481 1766 481 
L 2356 481 
L 2356 0 
L 1766 0 
Q 1100 0 847 248 
Q 594 497 594 1153 
L 594 3053 
L 172 3053 
L 172 3500 
L 594 3500 
L 594 4494 
L 1172 4494 
z
" transform="scale(0.015625)"/>
      <path id="DejaVuSans-5f" d="M 3263 -1063 
L 3263 -1509 
L -63 -1509 
L -63 -1063 
L 3263 -1063 
z
" transform="scale(0.015625)"/>
      <path id="DejaVuSans-73" d="M 2834 3397 
L 2834 2853 
Q 2591 2978 2328 3040 
Q 2066 3103 1784 3103 
Q 1356 3103 1142 2972 
Q 928 2841 928 2578 
Q 928 2378 1081 2264 
Q 1234 2150 1697 2047 
L 1894 2003 
Q 2506 1872 2764 1633 
Q 3022 1394 3022 966 
Q 3022 478 2636 193 
Q 2250 -91 1575 -91 
Q 1294 -91 989 -36 
Q 684 19 347 128 
L 347 722 
Q 666 556 975 473 
Q 1284 391 1588 391 
Q 1994 391 2212 530 
Q 2431 669 2431 922 
Q 2431 1156 2273 1281 
Q 2116 1406 1581 1522 
L 1381 1569 
Q 847 1681 609 1914 
Q 372 2147 372 2553 
Q 372 3047 722 3315 
Q 1072 3584 1716 3584 
Q 2034 3584 2315 3537 
Q 2597 3491 2834 3397 
z
" transform="scale(0.015625)"/>
      <path id="DejaVuSans-75" d="M 544 1381 
L 544 3500 
L 1119 3500 
L 1119 1403 
Q 1119 906 1312 657 
Q 1506 409 1894 409 
Q 2359 409 2629 706 
Q 2900 1003 2900 1516 
L 2900 3500 
L 3475 3500 
L 3475 0 
L 2900 0 
L 2900 538 
Q 2691 219 2414 64 
Q 2138 -91 1772 -91 
Q 1169 -91 856 284 
Q 544 659 544 1381 
z
M 1991 3584 
L 1991 3584 
z
" transform="scale(0.015625)"/>
      <path id="DejaVuSans-62" d="M 3116 1747 
Q 3116 2381 2855 2742 
Q 2594 3103 2138 3103 
Q 1681 3103 1420 2742 
Q 1159 2381 1159 1747 
Q 1159 1113 1420 752 
Q 1681 391 2138 391 
Q 2594 391 2855 752 
Q 3116 1113 3116 1747 
z
M 1159 2969 
Q 1341 3281 1617 3432 
Q 1894 3584 2278 3584 
Q 2916 3584 3314 3078 
Q 3713 2572 3713 1747 
Q 3713 922 3314 415 
Q 2916 -91 2278 -91 
Q 1894 -91 1617 61 
Q 1341 213 1159 525 
L 1159 0 
L 581 0 
L 581 4863 
L 1159 4863 
L 1159 2969 
z
" transform="scale(0.015625)"/>
      <path id="DejaVuSans-63" d="M 3122 3366 
L 3122 2828 
Q 2878 2963 2633 3030 
Q 2388 3097 2138 3097 
Q 1578 3097 1268 2742 
Q 959 2388 959 1747 
Q 959 1106 1268 751 
Q 1578 397 2138 397 
Q 2388 397 2633 464 
Q 2878 531 3122 666 
L 3122 134 
Q 2881 22 2623 -34 
Q 2366 -91 2075 -91 
Q 1284 -91 818 406 
Q 353 903 353 1747 
Q 353 2603 823 3093 
Q 1294 3584 2113 3584 
Q 2378 3584 2631 3529 
Q 2884 3475 3122 3366 
z
" transform="scale(0.015625)"/>
      <path id="DejaVuSans-72" d="M 2631 2963 
Q 2534 3019 2420 3045 
Q 2306 3072 2169 3072 
Q 1681 3072 1420 2755 
Q 1159 2438 1159 1844 
L 1159 0 
L 581 0 
L 581 3500 
L 1159 3500 
L 1159 2956 
Q 1341 3275 1631 3429 
Q 1922 3584 2338 3584 
Q 2397 3584 2469 3576 
Q 2541 3569 2628 3553 
L 2631 2963 
z
" transform="scale(0.015625)"/>
      <path id="DejaVuSans-69" d="M 603 3500 
L 1178 3500 
L 1178 0 
L 603 0 
L 603 3500 
z
M 603 4863 
L 1178 4863 
L 1178 4134 
L 603 4134 
L 603 4863 
z
" transform="scale(0.015625)"/>
      <path id="DejaVuSans-20" transform="scale(0.015625)"/>
      <path id="DejaVuSans-68" d="M 3513 2113 
L 3513 0 
L 2938 0 
L 2938 2094 
Q 2938 2591 2744 2837 
Q 2550 3084 2163 3084 
Q 1697 3084 1428 2787 
Q 1159 2491 1159 1978 
L 1159 0 
L 581 0 
L 581 4863 
L 1159 4863 
L 1159 2956 
Q 1366 3272 1645 3428 
Q 1925 3584 2291 3584 
Q 2894 3584 3203 3211 
Q 3513 2838 3513 2113 
z
" transform="scale(0.015625)"/>
      <path id="DejaVuSans-6f" d="M 1959 3097 
Q 1497 3097 1228 2736 
Q 959 2375 959 1747 
Q 959 1119 1226 758 
Q 1494 397 1959 397 
Q 2419 397 2687 759 
Q 2956 1122 2956 1747 
Q 2956 2369 2687 2733 
Q 2419 3097 1959 3097 
z
M 1959 3584 
Q 2709 3584 3137 3096 
Q 3566 2609 3566 1747 
Q 3566 888 3137 398 
Q 2709 -91 1959 -91 
Q 1206 -91 779 398 
Q 353 888 353 1747 
Q 353 2609 779 3096 
Q 1206 3584 1959 3584 
z
" transform="scale(0.015625)"/>
      <path id="DejaVuSans-79" d="M 2059 -325 
Q 1816 -950 1584 -1140 
Q 1353 -1331 966 -1331 
L 506 -1331 
L 506 -850 
L 844 -850 
Q 1081 -850 1212 -737 
Q 1344 -625 1503 -206 
L 1606 56 
L 191 3500 
L 800 3500 
L 1894 763 
L 2988 3500 
L 3597 3500 
L 2059 -325 
z
" transform="scale(0.015625)"/>
     </defs>
     <use xlink:href="#DejaVuSans-67"/>
     <use xlink:href="#DejaVuSans-65" transform="translate(63.476562 0)"/>
     <use xlink:href="#DejaVuSans-74" transform="translate(125 0)"/>
     <use xlink:href="#DejaVuSans-5f" transform="translate(164.208984 0)"/>
     <use xlink:href="#DejaVuSans-73" transform="translate(214.208984 0)"/>
     <use xlink:href="#DejaVuSans-75" transform="translate(266.308594 0)"/>
     <use xlink:href="#DejaVuSans-62" transform="translate(329.6875 0)"/>
     <use xlink:href="#DejaVuSans-73" transform="translate(393.164062 0)"/>
     <use xlink:href="#DejaVuSans-63" transform="translate(445.263672 0)"/>
     <use xlink:href="#DejaVuSans-72" transform="translate(500.244141 0)"/>
     <use xlink:href="#DejaVuSans-69" transform="translate(541.357422 0)"/>
     <use xlink:href="#DejaVuSans-62" transform="translate(569.140625 0)"/>
     <use xlink:href="#DejaVuSans-65" transform="translate(632.617188 0)"/>
     <use xlink:href="#DejaVuSans-20" transform="translate(694.140625 0)"/>
     <use xlink:href="#DejaVuSans-68" transform="translate(725.927734 0)"/>
     <use xlink:href="#DejaVuSans-69" transform="translate(789.306641 0)"/>
     <use xlink:href="#DejaVuSans-73" transform="translate(817.089844 0)"/>
     <use xlink:href="#DejaVuSans-74" transform="translate(869.189453 0)"/>
     <use xlink:href="#DejaVuSans-6f" transform="translate(908.398438 0)"/>
     <use xlink:href="#DejaVuSans-72" transform="translate(969.580078 0)"/>
     <use xlink:href="#DejaVuSans-79" transform="translate(1010.693359 0)"/>
    </g>
   </g>
   <g id="legend_1">
    <g id="line2d_39">
     <path d="M 815.08 328.498438 
L 825.08 328.498438 
L 835.08 328.498438 
" style="fill: none; stroke: #1f77b4; stroke-width: 1.5; stroke-linecap: square"/>
    </g>
    <g id="text_20">
     <!-- star -->
     <g style="fill: #a9a9a9" transform="translate(843.08 331.998438) scale(0.1 -0.1)">
      <defs>
       <path id="DejaVuSans-61" d="M 2194 1759 
Q 1497 1759 1228 1600 
Q 959 1441 959 1056 
Q 959 750 1161 570 
Q 1363 391 1709 391 
Q 2188 391 2477 730 
Q 2766 1069 2766 1631 
L 2766 1759 
L 2194 1759 
z
M 3341 1997 
L 3341 0 
L 2766 0 
L 2766 531 
Q 2569 213 2275 61 
Q 1981 -91 1556 -91 
Q 1019 -91 701 211 
Q 384 513 384 1019 
Q 384 1609 779 1909 
Q 1175 2209 1959 2209 
L 2766 2209 
L 2766 2266 
Q 2766 2663 2505 2880 
Q 2244 3097 1772 3097 
Q 1472 3097 1187 3025 
Q 903 2953 641 2809 
L 641 3341 
Q 956 3463 1253 3523 
Q 1550 3584 1831 3584 
Q 2591 3584 2966 3190 
Q 3341 2797 3341 1997 
z
" transform="scale(0.015625)"/>
      </defs>
      <use xlink:href="#DejaVuSans-73"/>
      <use xlink:href="#DejaVuSans-74" transform="translate(52.099609 0)"/>
      <use xlink:href="#DejaVuSans-61" transform="translate(91.308594 0)"/>
      <use xlink:href="#DejaVuSans-72" transform="translate(152.587891 0)"/>
     </g>
    </g>
    <g id="line2d_40">
     <path d="M 815.08 343.176562 
L 825.08 343.176562 
L 835.08 343.176562 
" style="fill: none; stroke: #ff7f0e; stroke-width: 1.5; stroke-linecap: square"/>
    </g>
    <g id="text_21">
     <!-- fork -->
     <g style="fill: #a9a9a9" transform="translate(843.08 346.676562) scale(0.1 -0.1)">
      <defs>
       <path id="DejaVuSans-66" d="M 2375 4863 
L 2375 4384 
L 1825 4384 
Q 1516 4384 1395 4259 
Q 1275 4134 1275 3809 
L 1275 3500 
L 2222 3500 
L 2222 3053 
L 1275 3053 
L 1275 0 
L 697 0 
L 697 3053 
L 147 3053 
L 147 3500 
L 697 3500 
L 697 3744 
Q 697 4328 969 4595 
Q 1241 4863 1831 4863 
L 2375 4863 
z
" transform="scale(0.015625)"/>
       <path id="DejaVuSans-6b" d="M 581 4863 
L 1159 4863 
L 1159 1991 
L 2875 3500 
L 3609 3500 
L 1753 1863 
L 3688 0 
L 2938 0 
L 1159 1709 
L 1159 0 
L 581 0 
L 581 4863 
z
" transform="scale(0.015625)"/>
      </defs>
      <use xlink:href="#DejaVuSans-66"/>
      <use xlink:href="#DejaVuSans-6f" transform="translate(35.205078 0)"/>
      <use xlink:href="#DejaVuSans-72" transform="translate(96.386719 0)"/>
      <use xlink:href="#DejaVuSans-6b" transform="translate(137.5 0)"/>
     </g>
    </g>
   </g>
  </g>
 </g>
 <defs>
  <clipPath id="pc7872122a2">
   <rect x="108" y="43.2" width="669.6" height="277.2"/>
  </clipPath>
 </defs>
</svg>
