<?xml version="1.0" encoding="utf-8" standalone="no"?>
<!DOCTYPE svg PUBLIC "-//W3C//DTD SVG 1.1//EN"
  "http://www.w3.org/Graphics/SVG/1.1/DTD/svg11.dtd">
<svg xmlns:xlink="http://www.w3.org/1999/xlink" width="864pt" height="360pt" viewBox="0 0 864 360" xmlns="http://www.w3.org/2000/svg" version="1.1">
 <metadata>
  <rdf:RDF xmlns:dc="http://purl.org/dc/elements/1.1/" xmlns:cc="http://creativecommons.org/ns#" xmlns:rdf="http://www.w3.org/1999/02/22-rdf-syntax-ns#">
   <cc:Work>
    <dc:type rdf:resource="http://purl.org/dc/dcmitype/StillImage"/>
    <dc:date>2025-08-01T20:08:01.778548</dc:date>
    <dc:format>image/svg+xml</dc:format>
    <dc:creator>
     <cc:Agent>
      <dc:title>Matplotlib v3.10.5, https://matplotlib.org/</dc:title>
     </cc:Agent>
    </dc:creator>
   </cc:Work>
  </rdf:RDF>
 </metadata>
 <defs>
  <style type="text/css">*{stroke-linejoin: round; stroke-linecap: butt}</style>
 </defs>
 <g id="figure_1">
  <g id="patch_1">
   <path d="M 0 360 
L 864 360 
L 864 0 
L 0 0 
L 0 360 
z
" style="fill: none; opacity: 0"/>
  </g>
  <g id="axes_1">
   <g id="patch_2">
    <path d="M 108 320.4 
L 777.6 320.4 
L 777.6 43.2 
L 108 43.2 
L 108 320.4 
z
" style="fill: none; opacity: 0"/>
   </g>
   <g id="matplotlib.axis_1">
    <g id="xtick_1">
     <g id="line2d_1">
      <path d="M 128.905576 320.4 
L 128.905576 43.2 
" clip-path="url(#paf183db0cc)" style="fill: none; stroke-dasharray: 5.12,1.28,0.8,1.28; stroke-dashoffset: 0; stroke: #b0b0b0; stroke-width: 0.8"/>
     </g>
     <g id="line2d_2">
      <defs>
       <path id="m425eeb8a5e" d="M 0 0 
L 0 3.5 
" style="stroke: #a9a9a9; stroke-width: 0.8"/>
      </defs>
      <g>
       <use xlink:href="#m425eeb8a5e" x="128.905576" y="320.4" style="fill: #a9a9a9; stroke: #a9a9a9; stroke-width: 0.8"/>
      </g>
     </g>
     <g id="text_1">
      <!-- 2021-07 -->
      <g style="fill: #a9a9a9" transform="translate(108.01417 334.998438) scale(0.1 -0.1)">
       <defs>
        <path id="DejaVuSans-32" d="M 1228 531 
L 3431 531 
L 3431 0 
L 469 0 
L 469 531 
Q 828 903 1448 1529 
Q 2069 2156 2228 2338 
Q 2531 2678 2651 2914 
Q 2772 3150 2772 3378 
Q 2772 3750 2511 3984 
Q 2250 4219 1831 4219 
Q 1534 4219 1204 4116 
Q 875 4013 500 3803 
L 500 4441 
Q 881 4594 1212 4672 
Q 1544 4750 1819 4750 
Q 2544 4750 2975 4387 
Q 3406 4025 3406 3419 
Q 3406 3131 3298 2873 
Q 3191 2616 2906 2266 
Q 2828 2175 2409 1742 
Q 1991 1309 1228 531 
z
" transform="scale(0.015625)"/>
        <path id="DejaVuSans-30" d="M 2034 4250 
Q 1547 4250 1301 3770 
Q 1056 3291 1056 2328 
Q 1056 1369 1301 889 
Q 1547 409 2034 409 
Q 2525 409 2770 889 
Q 3016 1369 3016 2328 
Q 3016 3291 2770 3770 
Q 2525 4250 2034 4250 
z
M 2034 4750 
Q 2819 4750 3233 4129 
Q 3647 3509 3647 2328 
Q 3647 1150 3233 529 
Q 2819 -91 2034 -91 
Q 1250 -91 836 529 
Q 422 1150 422 2328 
Q 422 3509 836 4129 
Q 1250 4750 2034 4750 
z
" transform="scale(0.015625)"/>
        <path id="DejaVuSans-31" d="M 794 531 
L 1825 531 
L 1825 4091 
L 703 3866 
L 703 4441 
L 1819 4666 
L 2450 4666 
L 2450 531 
L 3481 531 
L 3481 0 
L 794 0 
L 794 531 
z
" transform="scale(0.015625)"/>
        <path id="DejaVuSans-2d" d="M 313 2009 
L 1997 2009 
L 1997 1497 
L 313 1497 
L 313 2009 
z
" transform="scale(0.015625)"/>
        <path id="DejaVuSans-37" d="M 525 4666 
L 3525 4666 
L 3525 4397 
L 1831 0 
L 1172 0 
L 2766 4134 
L 525 4134 
L 525 4666 
z
" transform="scale(0.015625)"/>
       </defs>
       <use xlink:href="#DejaVuSans-32"/>
       <use xlink:href="#DejaVuSans-30" transform="translate(63.623047 0)"/>
       <use xlink:href="#DejaVuSans-32" transform="translate(127.246094 0)"/>
       <use xlink:href="#DejaVuSans-31" transform="translate(190.869141 0)"/>
       <use xlink:href="#DejaVuSans-2d" transform="translate(254.492188 0)"/>
       <use xlink:href="#DejaVuSans-30" transform="translate(290.576172 0)"/>
       <use xlink:href="#DejaVuSans-37" transform="translate(354.199219 0)"/>
      </g>
     </g>
    </g>
    <g id="xtick_2">
     <g id="line2d_3">
      <path d="M 205.151878 320.4 
L 205.151878 43.2 
" clip-path="url(#paf183db0cc)" style="fill: none; stroke-dasharray: 5.12,1.28,0.8,1.28; stroke-dashoffset: 0; stroke: #b0b0b0; stroke-width: 0.8"/>
     </g>
     <g id="line2d_4">
      <g>
       <use xlink:href="#m425eeb8a5e" x="205.151878" y="320.4" style="fill: #a9a9a9; stroke: #a9a9a9; stroke-width: 0.8"/>
      </g>
     </g>
     <g id="text_2">
      <!-- 2022-01 -->
      <g style="fill: #a9a9a9" transform="translate(184.260472 334.998438) scale(0.1 -0.1)">
       <use xlink:href="#DejaVuSans-32"/>
       <use xlink:href="#DejaVuSans-30" transform="translate(63.623047 0)"/>
       <use xlink:href="#DejaVuSans-32" transform="translate(127.246094 0)"/>
       <use xlink:href="#DejaVuSans-32" transform="translate(190.869141 0)"/>
       <use xlink:href="#DejaVuSans-2d" transform="translate(254.492188 0)"/>
       <use xlink:href="#DejaVuSans-30" transform="translate(290.576172 0)"/>
       <use xlink:href="#DejaVuSans-31" transform="translate(354.199219 0)"/>
      </g>
     </g>
    </g>
    <g id="xtick_3">
     <g id="line2d_5">
      <path d="M 280.155034 320.4 
L 280.155034 43.2 
" clip-path="url(#paf183db0cc)" style="fill: none; stroke-dasharray: 5.12,1.28,0.8,1.28; stroke-dashoffset: 0; stroke: #b0b0b0; stroke-width: 0.8"/>
     </g>
     <g id="line2d_6">
      <g>
       <use xlink:href="#m425eeb8a5e" x="280.155034" y="320.4" style="fill: #a9a9a9; stroke: #a9a9a9; stroke-width: 0.8"/>
      </g>
     </g>
     <g id="text_3">
      <!-- 2022-07 -->
      <g style="fill: #a9a9a9" transform="translate(259.263628 334.998438) scale(0.1 -0.1)">
       <use xlink:href="#DejaVuSans-32"/>
       <use xlink:href="#DejaVuSans-30" transform="translate(63.623047 0)"/>
       <use xlink:href="#DejaVuSans-32" transform="translate(127.246094 0)"/>
       <use xlink:href="#DejaVuSans-32" transform="translate(190.869141 0)"/>
       <use xlink:href="#DejaVuSans-2d" transform="translate(254.492188 0)"/>
       <use xlink:href="#DejaVuSans-30" transform="translate(290.576172 0)"/>
       <use xlink:href="#DejaVuSans-37" transform="translate(354.199219 0)"/>
      </g>
     </g>
    </g>
    <g id="xtick_4">
     <g id="line2d_7">
      <path d="M 356.401337 320.4 
L 356.401337 43.2 
" clip-path="url(#paf183db0cc)" style="fill: none; stroke-dasharray: 5.12,1.28,0.8,1.28; stroke-dashoffset: 0; stroke: #b0b0b0; stroke-width: 0.8"/>
     </g>
     <g id="line2d_8">
      <g>
       <use xlink:href="#m425eeb8a5e" x="356.401337" y="320.4" style="fill: #a9a9a9; stroke: #a9a9a9; stroke-width: 0.8"/>
      </g>
     </g>
     <g id="text_4">
      <!-- 2023-01 -->
      <g style="fill: #a9a9a9" transform="translate(335.50993 334.998438) scale(0.1 -0.1)">
       <defs>
        <path id="DejaVuSans-33" d="M 2597 2516 
Q 3050 2419 3304 2112 
Q 3559 1806 3559 1356 
Q 3559 666 3084 287 
Q 2609 -91 1734 -91 
Q 1441 -91 1130 -33 
Q 819 25 488 141 
L 488 750 
Q 750 597 1062 519 
Q 1375 441 1716 441 
Q 2309 441 2620 675 
Q 2931 909 2931 1356 
Q 2931 1769 2642 2001 
Q 2353 2234 1838 2234 
L 1294 2234 
L 1294 2753 
L 1863 2753 
Q 2328 2753 2575 2939 
Q 2822 3125 2822 3475 
Q 2822 3834 2567 4026 
Q 2313 4219 1838 4219 
Q 1578 4219 1281 4162 
Q 984 4106 628 3988 
L 628 4550 
Q 988 4650 1302 4700 
Q 1616 4750 1894 4750 
Q 2613 4750 3031 4423 
Q 3450 4097 3450 3541 
Q 3450 3153 3228 2886 
Q 3006 2619 2597 2516 
z
" transform="scale(0.015625)"/>
       </defs>
       <use xlink:href="#DejaVuSans-32"/>
       <use xlink:href="#DejaVuSans-30" transform="translate(63.623047 0)"/>
       <use xlink:href="#DejaVuSans-32" transform="translate(127.246094 0)"/>
       <use xlink:href="#DejaVuSans-33" transform="translate(190.869141 0)"/>
       <use xlink:href="#DejaVuSans-2d" transform="translate(254.492188 0)"/>
       <use xlink:href="#DejaVuSans-30" transform="translate(290.576172 0)"/>
       <use xlink:href="#DejaVuSans-31" transform="translate(354.199219 0)"/>
      </g>
     </g>
    </g>
    <g id="xtick_5">
     <g id="line2d_9">
      <path d="M 431.404493 320.4 
L 431.404493 43.2 
" clip-path="url(#paf183db0cc)" style="fill: none; stroke-dasharray: 5.12,1.28,0.8,1.28; stroke-dashoffset: 0; stroke: #b0b0b0; stroke-width: 0.8"/>
     </g>
     <g id="line2d_10">
      <g>
       <use xlink:href="#m425eeb8a5e" x="431.404493" y="320.4" style="fill: #a9a9a9; stroke: #a9a9a9; stroke-width: 0.8"/>
      </g>
     </g>
     <g id="text_5">
      <!-- 2023-07 -->
      <g style="fill: #a9a9a9" transform="translate(410.513087 334.998438) scale(0.1 -0.1)">
       <use xlink:href="#DejaVuSans-32"/>
       <use xlink:href="#DejaVuSans-30" transform="translate(63.623047 0)"/>
       <use xlink:href="#DejaVuSans-32" transform="translate(127.246094 0)"/>
       <use xlink:href="#DejaVuSans-33" transform="translate(190.869141 0)"/>
       <use xlink:href="#DejaVuSans-2d" transform="translate(254.492188 0)"/>
       <use xlink:href="#DejaVuSans-30" transform="translate(290.576172 0)"/>
       <use xlink:href="#DejaVuSans-37" transform="translate(354.199219 0)"/>
      </g>
     </g>
    </g>
    <g id="xtick_6">
     <g id="line2d_11">
      <path d="M 507.650795 320.4 
L 507.650795 43.2 
" clip-path="url(#paf183db0cc)" style="fill: none; stroke-dasharray: 5.12,1.28,0.8,1.28; stroke-dashoffset: 0; stroke: #b0b0b0; stroke-width: 0.8"/>
     </g>
     <g id="line2d_12">
      <g>
       <use xlink:href="#m425eeb8a5e" x="507.650795" y="320.4" style="fill: #a9a9a9; stroke: #a9a9a9; stroke-width: 0.8"/>
      </g>
     </g>
     <g id="text_6">
      <!-- 2024-01 -->
      <g style="fill: #a9a9a9" transform="translate(486.759389 334.998438) scale(0.1 -0.1)">
       <defs>
        <path id="DejaVuSans-34" d="M 2419 4116 
L 825 1625 
L 2419 1625 
L 2419 4116 
z
M 2253 4666 
L 3047 4666 
L 3047 1625 
L 3713 1625 
L 3713 1100 
L 3047 1100 
L 3047 0 
L 2419 0 
L 2419 1100 
L 313 1100 
L 313 1709 
L 2253 4666 
z
" transform="scale(0.015625)"/>
       </defs>
       <use xlink:href="#DejaVuSans-32"/>
       <use xlink:href="#DejaVuSans-30" transform="translate(63.623047 0)"/>
       <use xlink:href="#DejaVuSans-32" transform="translate(127.246094 0)"/>
       <use xlink:href="#DejaVuSans-34" transform="translate(190.869141 0)"/>
       <use xlink:href="#DejaVuSans-2d" transform="translate(254.492188 0)"/>
       <use xlink:href="#DejaVuSans-30" transform="translate(290.576172 0)"/>
       <use xlink:href="#DejaVuSans-31" transform="translate(354.199219 0)"/>
      </g>
     </g>
    </g>
    <g id="xtick_7">
     <g id="line2d_13">
      <path d="M 583.068333 320.4 
L 583.068333 43.2 
" clip-path="url(#paf183db0cc)" style="fill: none; stroke-dasharray: 5.12,1.28,0.8,1.28; stroke-dashoffset: 0; stroke: #b0b0b0; stroke-width: 0.8"/>
     </g>
     <g id="line2d_14">
      <g>
       <use xlink:href="#m425eeb8a5e" x="583.068333" y="320.4" style="fill: #a9a9a9; stroke: #a9a9a9; stroke-width: 0.8"/>
      </g>
     </g>
     <g id="text_7">
      <!-- 2024-07 -->
      <g style="fill: #a9a9a9" transform="translate(562.176927 334.998438) scale(0.1 -0.1)">
       <use xlink:href="#DejaVuSans-32"/>
       <use xlink:href="#DejaVuSans-30" transform="translate(63.623047 0)"/>
       <use xlink:href="#DejaVuSans-32" transform="translate(127.246094 0)"/>
       <use xlink:href="#DejaVuSans-34" transform="translate(190.869141 0)"/>
       <use xlink:href="#DejaVuSans-2d" transform="translate(254.492188 0)"/>
       <use xlink:href="#DejaVuSans-30" transform="translate(290.576172 0)"/>
       <use xlink:href="#DejaVuSans-37" transform="translate(354.199219 0)"/>
      </g>
     </g>
    </g>
    <g id="xtick_8">
     <g id="line2d_15">
      <path d="M 659.314636 320.4 
L 659.314636 43.2 
" clip-path="url(#paf183db0cc)" style="fill: none; stroke-dasharray: 5.12,1.28,0.8,1.28; stroke-dashoffset: 0; stroke: #b0b0b0; stroke-width: 0.8"/>
     </g>
     <g id="line2d_16">
      <g>
       <use xlink:href="#m425eeb8a5e" x="659.314636" y="320.4" style="fill: #a9a9a9; stroke: #a9a9a9; stroke-width: 0.8"/>
      </g>
     </g>
     <g id="text_8">
      <!-- 2025-01 -->
      <g style="fill: #a9a9a9" transform="translate(638.42323 334.998438) scale(0.1 -0.1)">
       <defs>
        <path id="DejaVuSans-35" d="M 691 4666 
L 3169 4666 
L 3169 4134 
L 1269 4134 
L 1269 2991 
Q 1406 3038 1543 3061 
Q 1681 3084 1819 3084 
Q 2600 3084 3056 2656 
Q 3513 2228 3513 1497 
Q 3513 744 3044 326 
Q 2575 -91 1722 -91 
Q 1428 -91 1123 -41 
Q 819 9 494 109 
L 494 744 
Q 775 591 1075 516 
Q 1375 441 1709 441 
Q 2250 441 2565 725 
Q 2881 1009 2881 1497 
Q 2881 1984 2565 2268 
Q 2250 2553 1709 2553 
Q 1456 2553 1204 2497 
Q 953 2441 691 2322 
L 691 4666 
z
" transform="scale(0.015625)"/>
       </defs>
       <use xlink:href="#DejaVuSans-32"/>
       <use xlink:href="#DejaVuSans-30" transform="translate(63.623047 0)"/>
       <use xlink:href="#DejaVuSans-32" transform="translate(127.246094 0)"/>
       <use xlink:href="#DejaVuSans-35" transform="translate(190.869141 0)"/>
       <use xlink:href="#DejaVuSans-2d" transform="translate(254.492188 0)"/>
       <use xlink:href="#DejaVuSans-30" transform="translate(290.576172 0)"/>
       <use xlink:href="#DejaVuSans-31" transform="translate(354.199219 0)"/>
      </g>
     </g>
    </g>
    <g id="xtick_9">
     <g id="line2d_17">
      <path d="M 734.317792 320.4 
L 734.317792 43.2 
" clip-path="url(#paf183db0cc)" style="fill: none; stroke-dasharray: 5.12,1.28,0.8,1.28; stroke-dashoffset: 0; stroke: #b0b0b0; stroke-width: 0.8"/>
     </g>
     <g id="line2d_18">
      <g>
       <use xlink:href="#m425eeb8a5e" x="734.317792" y="320.4" style="fill: #a9a9a9; stroke: #a9a9a9; stroke-width: 0.8"/>
      </g>
     </g>
     <g id="text_9">
      <!-- 2025-07 -->
      <g style="fill: #a9a9a9" transform="translate(713.426386 334.998438) scale(0.1 -0.1)">
       <use xlink:href="#DejaVuSans-32"/>
       <use xlink:href="#DejaVuSans-30" transform="translate(63.623047 0)"/>
       <use xlink:href="#DejaVuSans-32" transform="translate(127.246094 0)"/>
       <use xlink:href="#DejaVuSans-35" transform="translate(190.869141 0)"/>
       <use xlink:href="#DejaVuSans-2d" transform="translate(254.492188 0)"/>
       <use xlink:href="#DejaVuSans-30" transform="translate(290.576172 0)"/>
       <use xlink:href="#DejaVuSans-37" transform="translate(354.199219 0)"/>
      </g>
     </g>
    </g>
   </g>
   <g id="matplotlib.axis_2">
    <g id="ytick_1">
     <g id="line2d_19">
      <path d="M 108 307.831666 
L 777.6 307.831666 
" clip-path="url(#paf183db0cc)" style="fill: none; stroke-dasharray: 5.12,1.28,0.8,1.28; stroke-dashoffset: 0; stroke: #b0b0b0; stroke-width: 0.8"/>
     </g>
     <g id="line2d_20">
      <defs>
       <path id="m4c1a445cea" d="M 0 0 
L -3.5 0 
" style="stroke: #a9a9a9; stroke-width: 0.8"/>
      </defs>
      <g>
       <use xlink:href="#m4c1a445cea" x="108" y="307.831666" style="fill: #a9a9a9; stroke: #a9a9a9; stroke-width: 0.8"/>
      </g>
     </g>
     <g id="text_10">
      <!-- 0 -->
      <g style="fill: #a9a9a9" transform="translate(94.6375 311.630885) scale(0.1 -0.1)">
       <use xlink:href="#DejaVuSans-30"/>
      </g>
     </g>
    </g>
    <g id="ytick_2">
     <g id="line2d_21">
      <path d="M 108 276.165418 
L 777.6 276.165418 
" clip-path="url(#paf183db0cc)" style="fill: none; stroke-dasharray: 5.12,1.28,0.8,1.28; stroke-dashoffset: 0; stroke: #b0b0b0; stroke-width: 0.8"/>
     </g>
     <g id="line2d_22">
      <g>
       <use xlink:href="#m4c1a445cea" x="108" y="276.165418" style="fill: #a9a9a9; stroke: #a9a9a9; stroke-width: 0.8"/>
      </g>
     </g>
     <g id="text_11">
      <!-- 1000 -->
      <g style="fill: #a9a9a9" transform="translate(75.55 279.964637) scale(0.1 -0.1)">
       <use xlink:href="#DejaVuSans-31"/>
       <use xlink:href="#DejaVuSans-30" transform="translate(63.623047 0)"/>
       <use xlink:href="#DejaVuSans-30" transform="translate(127.246094 0)"/>
       <use xlink:href="#DejaVuSans-30" transform="translate(190.869141 0)"/>
      </g>
     </g>
    </g>
    <g id="ytick_3">
     <g id="line2d_23">
      <path d="M 108 244.499171 
L 777.6 244.499171 
" clip-path="url(#paf183db0cc)" style="fill: none; stroke-dasharray: 5.12,1.28,0.8,1.28; stroke-dashoffset: 0; stroke: #b0b0b0; stroke-width: 0.8"/>
     </g>
     <g id="line2d_24">
      <g>
       <use xlink:href="#m4c1a445cea" x="108" y="244.499171" style="fill: #a9a9a9; stroke: #a9a9a9; stroke-width: 0.8"/>
      </g>
     </g>
     <g id="text_12">
      <!-- 2000 -->
      <g style="fill: #a9a9a9" transform="translate(75.55 248.298389) scale(0.1 -0.1)">
       <use xlink:href="#DejaVuSans-32"/>
       <use xlink:href="#DejaVuSans-30" transform="translate(63.623047 0)"/>
       <use xlink:href="#DejaVuSans-30" transform="translate(127.246094 0)"/>
       <use xlink:href="#DejaVuSans-30" transform="translate(190.869141 0)"/>
      </g>
     </g>
    </g>
    <g id="ytick_4">
     <g id="line2d_25">
      <path d="M 108 212.832923 
L 777.6 212.832923 
" clip-path="url(#paf183db0cc)" style="fill: none; stroke-dasharray: 5.12,1.28,0.8,1.28; stroke-dashoffset: 0; stroke: #b0b0b0; stroke-width: 0.8"/>
     </g>
     <g id="line2d_26">
      <g>
       <use xlink:href="#m4c1a445cea" x="108" y="212.832923" style="fill: #a9a9a9; stroke: #a9a9a9; stroke-width: 0.8"/>
      </g>
     </g>
     <g id="text_13">
      <!-- 3000 -->
      <g style="fill: #a9a9a9" transform="translate(75.55 216.632142) scale(0.1 -0.1)">
       <use xlink:href="#DejaVuSans-33"/>
       <use xlink:href="#DejaVuSans-30" transform="translate(63.623047 0)"/>
       <use xlink:href="#DejaVuSans-30" transform="translate(127.246094 0)"/>
       <use xlink:href="#DejaVuSans-30" transform="translate(190.869141 0)"/>
      </g>
     </g>
    </g>
    <g id="ytick_5">
     <g id="line2d_27">
      <path d="M 108 181.166675 
L 777.6 181.166675 
" clip-path="url(#paf183db0cc)" style="fill: none; stroke-dasharray: 5.12,1.28,0.8,1.28; stroke-dashoffset: 0; stroke: #b0b0b0; stroke-width: 0.8"/>
     </g>
     <g id="line2d_28">
      <g>
       <use xlink:href="#m4c1a445cea" x="108" y="181.166675" style="fill: #a9a9a9; stroke: #a9a9a9; stroke-width: 0.8"/>
      </g>
     </g>
     <g id="text_14">
      <!-- 4000 -->
      <g style="fill: #a9a9a9" transform="translate(75.55 184.965894) scale(0.1 -0.1)">
       <use xlink:href="#DejaVuSans-34"/>
       <use xlink:href="#DejaVuSans-30" transform="translate(63.623047 0)"/>
       <use xlink:href="#DejaVuSans-30" transform="translate(127.246094 0)"/>
       <use xlink:href="#DejaVuSans-30" transform="translate(190.869141 0)"/>
      </g>
     </g>
    </g>
    <g id="ytick_6">
     <g id="line2d_29">
      <path d="M 108 149.500427 
L 777.6 149.500427 
" clip-path="url(#paf183db0cc)" style="fill: none; stroke-dasharray: 5.12,1.28,0.8,1.28; stroke-dashoffset: 0; stroke: #b0b0b0; stroke-width: 0.8"/>
     </g>
     <g id="line2d_30">
      <g>
       <use xlink:href="#m4c1a445cea" x="108" y="149.500427" style="fill: #a9a9a9; stroke: #a9a9a9; stroke-width: 0.8"/>
      </g>
     </g>
     <g id="text_15">
      <!-- 5000 -->
      <g style="fill: #a9a9a9" transform="translate(75.55 153.299646) scale(0.1 -0.1)">
       <use xlink:href="#DejaVuSans-35"/>
       <use xlink:href="#DejaVuSans-30" transform="translate(63.623047 0)"/>
       <use xlink:href="#DejaVuSans-30" transform="translate(127.246094 0)"/>
       <use xlink:href="#DejaVuSans-30" transform="translate(190.869141 0)"/>
      </g>
     </g>
    </g>
    <g id="ytick_7">
     <g id="line2d_31">
      <path d="M 108 117.834179 
L 777.6 117.834179 
" clip-path="url(#paf183db0cc)" style="fill: none; stroke-dasharray: 5.12,1.28,0.8,1.28; stroke-dashoffset: 0; stroke: #b0b0b0; stroke-width: 0.8"/>
     </g>
     <g id="line2d_32">
      <g>
       <use xlink:href="#m4c1a445cea" x="108" y="117.834179" style="fill: #a9a9a9; stroke: #a9a9a9; stroke-width: 0.8"/>
      </g>
     </g>
     <g id="text_16">
      <!-- 6000 -->
      <g style="fill: #a9a9a9" transform="translate(75.55 121.633398) scale(0.1 -0.1)">
       <defs>
        <path id="DejaVuSans-36" d="M 2113 2584 
Q 1688 2584 1439 2293 
Q 1191 2003 1191 1497 
Q 1191 994 1439 701 
Q 1688 409 2113 409 
Q 2538 409 2786 701 
Q 3034 994 3034 1497 
Q 3034 2003 2786 2293 
Q 2538 2584 2113 2584 
z
M 3366 4563 
L 3366 3988 
Q 3128 4100 2886 4159 
Q 2644 4219 2406 4219 
Q 1781 4219 1451 3797 
Q 1122 3375 1075 2522 
Q 1259 2794 1537 2939 
Q 1816 3084 2150 3084 
Q 2853 3084 3261 2657 
Q 3669 2231 3669 1497 
Q 3669 778 3244 343 
Q 2819 -91 2113 -91 
Q 1303 -91 875 529 
Q 447 1150 447 2328 
Q 447 3434 972 4092 
Q 1497 4750 2381 4750 
Q 2619 4750 2861 4703 
Q 3103 4656 3366 4563 
z
" transform="scale(0.015625)"/>
       </defs>
       <use xlink:href="#DejaVuSans-36"/>
       <use xlink:href="#DejaVuSans-30" transform="translate(63.623047 0)"/>
       <use xlink:href="#DejaVuSans-30" transform="translate(127.246094 0)"/>
       <use xlink:href="#DejaVuSans-30" transform="translate(190.869141 0)"/>
      </g>
     </g>
    </g>
    <g id="ytick_8">
     <g id="line2d_33">
      <path d="M 108 86.167932 
L 777.6 86.167932 
" clip-path="url(#paf183db0cc)" style="fill: none; stroke-dasharray: 5.12,1.28,0.8,1.28; stroke-dashoffset: 0; stroke: #b0b0b0; stroke-width: 0.8"/>
     </g>
     <g id="line2d_34">
      <g>
       <use xlink:href="#m4c1a445cea" x="108" y="86.167932" style="fill: #a9a9a9; stroke: #a9a9a9; stroke-width: 0.8"/>
      </g>
     </g>
     <g id="text_17">
      <!-- 7000 -->
      <g style="fill: #a9a9a9" transform="translate(75.55 89.96715) scale(0.1 -0.1)">
       <use xlink:href="#DejaVuSans-37"/>
       <use xlink:href="#DejaVuSans-30" transform="translate(63.623047 0)"/>
       <use xlink:href="#DejaVuSans-30" transform="translate(127.246094 0)"/>
       <use xlink:href="#DejaVuSans-30" transform="translate(190.869141 0)"/>
      </g>
     </g>
    </g>
    <g id="ytick_9">
     <g id="line2d_35">
      <path d="M 108 54.501684 
L 777.6 54.501684 
" clip-path="url(#paf183db0cc)" style="fill: none; stroke-dasharray: 5.12,1.28,0.8,1.28; stroke-dashoffset: 0; stroke: #b0b0b0; stroke-width: 0.8"/>
     </g>
     <g id="line2d_36">
      <g>
       <use xlink:href="#m4c1a445cea" x="108" y="54.501684" style="fill: #a9a9a9; stroke: #a9a9a9; stroke-width: 0.8"/>
      </g>
     </g>
     <g id="text_18">
      <!-- 8000 -->
      <g style="fill: #a9a9a9" transform="translate(75.55 58.300903) scale(0.1 -0.1)">
       <defs>
        <path id="DejaVuSans-38" d="M 2034 2216 
Q 1584 2216 1326 1975 
Q 1069 1734 1069 1313 
Q 1069 891 1326 650 
Q 1584 409 2034 409 
Q 2484 409 2743 651 
Q 3003 894 3003 1313 
Q 3003 1734 2745 1975 
Q 2488 2216 2034 2216 
z
M 1403 2484 
Q 997 2584 770 2862 
Q 544 3141 544 3541 
Q 544 4100 942 4425 
Q 1341 4750 2034 4750 
Q 2731 4750 3128 4425 
Q 3525 4100 3525 3541 
Q 3525 3141 3298 2862 
Q 3072 2584 2669 2484 
Q 3125 2378 3379 2068 
Q 3634 1759 3634 1313 
Q 3634 634 3220 271 
Q 2806 -91 2034 -91 
Q 1263 -91 848 271 
Q 434 634 434 1313 
Q 434 1759 690 2068 
Q 947 2378 1403 2484 
z
M 1172 3481 
Q 1172 3119 1398 2916 
Q 1625 2713 2034 2713 
Q 2441 2713 2670 2916 
Q 2900 3119 2900 3481 
Q 2900 3844 2670 4047 
Q 2441 4250 2034 4250 
Q 1625 4250 1398 4047 
Q 1172 3844 1172 3481 
z
" transform="scale(0.015625)"/>
       </defs>
       <use xlink:href="#DejaVuSans-38"/>
       <use xlink:href="#DejaVuSans-30" transform="translate(63.623047 0)"/>
       <use xlink:href="#DejaVuSans-30" transform="translate(127.246094 0)"/>
       <use xlink:href="#DejaVuSans-30" transform="translate(190.869141 0)"/>
      </g>
     </g>
    </g>
   </g>
   <g id="line2d_37">
    <path d="M 138.436364 307.736668 
L 140.922656 307.515004 
L 141.337038 307.325006 
L 142.994566 307.103343 
L 144.652095 306.755014 
L 145.480859 306.628349 
L 147.552769 306.438351 
L 148.381534 306.090023 
L 148.795916 305.52003 
L 149.210298 305.235034 
L 149.62468 304.285046 
L 150.039062 304.221714 
L 150.453444 303.873385 
L 151.282208 303.430058 
L 152.939736 302.036743 
L 154.597265 301.181754 
L 155.840411 300.580096 
L 156.254793 299.883438 
L 157.083557 299.250113 
L 157.497939 299.060116 
L 161.64176 298.426791 
L 162.056142 298.236793 
L 164.956817 297.983463 
L 166.614345 297.571802 
L 169.929402 297.096808 
L 170.343784 296.875145 
L 170.758166 296.811812 
L 171.58693 296.526816 
L 174.487604 296.020156 
L 175.316369 295.766826 
L 179.045807 295.133501 
L 179.874571 294.943503 
L 180.703336 294.911837 
L 182.360864 294.500176 
L 182.775246 293.898517 
L 184.018392 293.391857 
L 185.261538 293.043529 
L 185.675921 292.821865 
L 186.504685 292.663534 
L 188.162213 292.156874 
L 188.990977 292.093541 
L 189.819741 291.871877 
L 191.47727 291.42855 
L 191.891652 291.396884 
L 192.720416 290.985222 
L 193.134798 290.92189 
L 193.54918 290.700226 
L 198.107383 289.90857 
L 199.764911 289.40191 
L 200.179293 289.116914 
L 202.251204 288.420256 
L 203.079968 287.818598 
L 204.323114 287.565268 
L 209.710081 285.981955 
L 210.124463 285.918623 
L 211.781991 285.253632 
L 212.196374 285.190299 
L 213.025138 284.84197 
L 213.853902 284.810304 
L 215.097048 284.430309 
L 215.51143 284.430309 
L 215.925812 284.240312 
L 216.754576 284.145313 
L 217.168958 283.986982 
L 218.826487 283.923649 
L 219.655251 283.765318 
L 220.484015 283.32199 
L 221.727161 282.846997 
L 222.555925 282.403669 
L 223.38469 281.960342 
L 224.213454 281.675346 
L 224.627836 281.548681 
L 225.4566 281.010354 
L 225.870982 280.535361 
L 226.699746 279.205378 
L 227.114128 279.078713 
L 227.52851 279.078713 
L 229.186039 278.128726 
L 229.600421 278.033727 
L 230.014803 277.622066 
L 230.843567 277.273737 
L 231.672331 276.893742 
L 232.086713 276.387082 
L 232.501095 275.690425 
L 232.915477 275.405428 
L 233.32986 274.645439 
L 233.744242 274.170445 
L 236.230534 272.77713 
L 237.888062 271.25715 
L 238.302444 270.275496 
L 238.716827 269.642171 
L 239.131209 269.293843 
L 239.545591 269.103845 
L 242.860647 265.968887 
L 243.689411 265.17723 
L 246.175704 263.562252 
L 246.590086 263.403921 
L 248.247614 262.390601 
L 248.661996 262.200603 
L 250.733907 260.237296 
L 251.562671 259.888967 
L 252.391435 259.287308 
L 252.805817 259.033978 
L 253.220199 258.970646 
L 254.463346 258.242322 
L 254.877728 257.767328 
L 256.949638 256.595677 
L 257.36402 256.437346 
L 258.607166 255.550691 
L 264.822897 253.270721 
L 265.651662 252.479065 
L 266.894808 251.84574 
L 267.723572 251.307414 
L 268.552336 251.054084 
L 268.966718 250.769088 
L 269.3811 250.642423 
L 270.624247 249.787434 
L 272.696157 249.31244 
L 273.939303 248.55245 
L 275.182449 248.267454 
L 275.596831 248.172455 
L 276.839978 247.222468 
L 278.497506 246.747474 
L 278.911888 246.399146 
L 281.398181 245.512491 
L 282.226945 245.354159 
L 283.055709 245.005831 
L 285.956383 243.897512 
L 286.785148 243.802513 
L 288.028294 243.359186 
L 290.100204 242.3142 
L 292.586497 240.889218 
L 293.415261 240.667555 
L 294.658407 240.03423 
L 295.487171 239.875898 
L 296.315935 239.369239 
L 297.1447 239.147575 
L 298.387846 238.640915 
L 300.045374 238.419251 
L 300.874138 237.975924 
L 301.28852 237.595929 
L 301.702902 236.835939 
L 303.360431 236.360945 
L 304.603577 235.695954 
L 305.432341 235.410958 
L 306.675487 234.777633 
L 308.747398 233.922644 
L 309.576162 233.732646 
L 310.819308 233.099321 
L 311.23369 233.035989 
L 313.305601 231.991003 
L 314.134365 231.452677 
L 315.377511 231.199347 
L 317.449421 230.66102 
L 317.863803 230.312692 
L 318.692568 230.027695 
L 320.764478 229.172707 
L 321.17886 228.856044 
L 321.593242 228.697713 
L 322.422006 228.222719 
L 324.079535 227.684393 
L 324.908299 227.146067 
L 325.322681 226.702739 
L 325.737063 226.449409 
L 326.151445 226.354411 
L 326.980209 225.657753 
L 327.394591 225.594421 
L 327.808973 224.897763 
L 328.223355 224.707766 
L 328.637737 224.359437 
L 329.05212 224.296105 
L 329.880884 223.757778 
L 330.709648 223.472782 
L 331.12403 223.15612 
L 331.538412 222.997788 
L 333.19594 221.857803 
L 334.439087 221.224479 
L 335.267851 221.002815 
L 336.096615 220.527821 
L 336.510997 219.799497 
L 337.339761 219.166172 
L 337.754143 219.071174 
L 340.240436 217.83619 
L 341.0692 217.487861 
L 341.897964 216.886203 
L 343.14111 215.714551 
L 343.969874 215.207891 
L 344.384256 214.732898 
L 346.041785 213.561247 
L 346.870549 212.706258 
L 347.699313 212.421262 
L 348.528077 211.851269 
L 349.771223 211.186278 
L 350.185606 211.122945 
L 351.428752 210.426288 
L 352.257516 209.887962 
L 356.401337 208.304649 
L 356.815719 207.956321 
L 358.473247 207.291329 
L 358.887629 207.164664 
L 359.716393 206.626338 
L 360.545157 206.27801 
L 361.373922 205.676351 
L 362.202686 203.966373 
L 363.03145 202.953054 
L 364.274596 202.288062 
L 365.10336 201.939734 
L 365.517742 201.876401 
L 366.346507 201.496406 
L 368.004035 200.926414 
L 368.832799 200.45142 
L 369.661563 200.039759 
L 370.075945 199.913094 
L 372.562238 198.393114 
L 372.97662 197.91812 
L 374.219766 197.189796 
L 374.634148 197.031465 
L 375.462912 196.524805 
L 377.120441 195.606484 
L 377.534823 195.511485 
L 377.949205 195.163157 
L 380.849879 194.181503 
L 381.264261 193.86484 
L 382.093026 193.61151 
L 382.92179 193.263182 
L 383.336172 192.914853 
L 384.9937 192.313194 
L 385.822464 191.711536 
L 386.651228 191.363207 
L 387.479993 190.698216 
L 388.308757 190.444886 
L 388.723139 190.064891 
L 389.137521 190.001558 
L 389.966285 189.336567 
L 392.038195 188.101583 
L 392.86696 187.848253 
L 393.281342 187.594923 
L 393.695724 187.531591 
L 394.93887 186.834933 
L 401.154601 184.871626 
L 402.397747 183.953305 
L 402.812129 183.794974 
L 403.640894 183.31998 
L 404.055276 183.193315 
L 406.541568 181.768334 
L 406.95595 181.673335 
L 408.199096 180.913345 
L 409.442243 180.470018 
L 410.271007 180.185021 
L 411.928535 179.615029 
L 412.757299 179.330033 
L 414.414828 178.981704 
L 414.82921 178.791706 
L 415.657974 178.570043 
L 416.072356 178.380045 
L 416.486738 178.316713 
L 416.90112 178.095049 
L 417.729884 177.936718 
L 418.973031 177.461724 
L 420.216177 177.271727 
L 422.702469 176.796733 
L 423.945615 176.511737 
L 424.359998 176.321739 
L 425.188762 176.163408 
L 426.017526 175.941744 
L 426.84629 175.561749 
L 427.260672 175.403418 
L 427.675054 175.403418 
L 432.233257 173.978437 
L 432.647639 173.756773 
L 433.062021 173.756773 
L 433.890785 173.440111 
L 434.305167 172.996783 
L 436.79146 171.951797 
L 438.448988 171.381804 
L 438.86337 171.128474 
L 440.106516 170.74848 
L 440.935281 170.526816 
L 441.349663 170.24182 
L 441.764045 170.146821 
L 442.178427 169.766826 
L 443.421573 169.513496 
L 444.250337 169.133501 
L 444.664719 168.626841 
L 449.222922 167.613521 
L 449.637304 167.613521 
L 450.051686 167.423523 
L 451.709215 167.106861 
L 452.123597 166.916864 
L 453.781125 166.600201 
L 454.609889 166.251872 
L 455.438653 166.093541 
L 457.510564 165.555215 
L 459.168092 165.016889 
L 459.582474 164.92189 
L 459.996856 164.700226 
L 460.82562 164.478562 
L 461.654385 164.130234 
L 462.483149 163.813571 
L 462.897531 163.528575 
L 463.726295 163.275245 
L 466.626969 162.166926 
L 468.284498 161.976929 
L 471.599554 160.741945 
L 472.013937 160.425283 
L 472.428319 160.330284 
L 472.842701 160.10862 
L 473.257083 160.076954 
L 477.815286 158.398643 
L 479.887196 157.82865 
L 480.71596 157.416989 
L 481.959106 157.131993 
L 483.616635 155.738678 
L 485.274163 155.010354 
L 486.102927 154.630359 
L 488.58922 153.648706 
L 489.003602 153.363709 
L 491.075512 152.667052 
L 495.219333 150.545413 
L 496.048097 150.165418 
L 496.462479 149.848756 
L 497.291243 149.56376 
L 499.363154 148.487107 
L 500.6063 148.04378 
L 502.263828 147.378789 
L 503.506974 146.903795 
L 503.921357 146.745464 
L 504.750121 146.618799 
L 505.164503 146.333802 
L 506.822031 146.01714 
L 507.650795 145.668811 
L 509.308324 144.877155 
L 515.109673 142.280523 
L 516.352819 141.868862 
L 516.767201 141.583865 
L 517.595965 141.488867 
L 518.010347 141.20387 
L 518.839111 141.077205 
L 519.667875 140.665544 
L 520.082258 140.475547 
L 520.911022 140.253883 
L 521.739786 140.000553 
L 522.982932 139.525559 
L 524.226078 139.113898 
L 525.469225 138.828902 
L 527.126753 138.132244 
L 527.955517 137.688917 
L 529.613045 136.833928 
L 530.44181 136.643931 
L 530.856192 136.390601 
L 531.270574 136.295602 
L 532.51372 135.567278 
L 533.342484 135.218949 
L 538.729451 133.19231 
L 539.143833 133.128977 
L 540.801361 132.337321 
L 541.630126 132.17899 
L 542.45889 131.703996 
L 544.116418 130.91234 
L 548.260239 129.265695 
L 549.089003 128.854034 
L 549.503385 128.759035 
L 549.917767 128.537371 
L 551.575296 128.062377 
L 553.232824 126.669063 
L 553.647206 126.542398 
L 554.061588 126.289068 
L 555.304734 125.940739 
L 555.719116 125.624076 
L 556.133498 125.529078 
L 557.376645 124.769088 
L 557.791027 124.484091 
L 559.034173 124.009098 
L 559.448555 123.787434 
L 560.691701 123.502438 
L 562.763612 122.774114 
L 563.592376 122.520784 
L 564.835522 121.855793 
L 565.664286 121.444132 
L 566.49305 121.222468 
L 567.736197 120.620809 
L 571.880017 118.942498 
L 573.951928 117.929178 
L 574.780692 117.612516 
L 575.195074 117.232521 
L 576.023838 116.884192 
L 577.266984 116.440865 
L 577.681366 116.092536 
L 578.095748 116.06087 
L 578.924513 115.80754 
L 579.753277 115.522543 
L 580.167659 115.332546 
L 580.582041 115.269213 
L 581.410805 114.920885 
L 582.653951 114.635888 
L 583.482716 114.160895 
L 583.897098 114.002563 
L 584.31148 113.685901 
L 585.554626 113.369239 
L 585.969008 113.115909 
L 586.797772 112.894245 
L 588.040918 112.197587 
L 588.4553 112.165921 
L 589.698447 111.75426 
L 590.527211 111.690927 
L 590.941593 111.469264 
L 591.770357 111.2476 
L 592.184739 111.025936 
L 594.25665 110.614275 
L 595.085414 110.455944 
L 596.32856 109.98095 
L 597.571706 109.695954 
L 598.814852 109.030963 
L 599.229234 108.650968 
L 600.472381 107.890978 
L 600.886763 107.574315 
L 602.129909 107.162654 
L 602.958673 106.94099 
L 606.688112 105.294345 
L 608.34564 104.851018 
L 609.174404 104.471023 
L 609.588786 104.249359 
L 610.417551 103.996029 
L 610.831933 103.774365 
L 611.660697 103.616034 
L 614.975753 102.159387 
L 615.390136 102.096054 
L 616.633282 101.272732 
L 617.047664 101.209399 
L 618.705192 100.544408 
L 620.36272 100.132747 
L 620.777103 100.069414 
L 621.191485 99.879417 
L 621.605867 99.847751 
L 622.434631 99.562754 
L 622.849013 99.531088 
L 624.092159 99.056094 
L 625.749687 98.581101 
L 626.578452 97.947776 
L 628.23598 97.029455 
L 628.650362 96.934456 
L 629.064744 96.712792 
L 629.893508 96.427796 
L 630.30789 96.301131 
L 630.722272 95.952802 
L 631.965419 95.477808 
L 632.794183 95.002815 
L 633.208565 94.781151 
L 633.622947 94.401156 
L 635.694857 93.894496 
L 636.938004 93.324504 
L 637.766768 93.10284 
L 638.18115 92.881176 
L 638.595532 92.532847 
L 640.25306 92.08952 
L 640.667442 91.772858 
L 646.054409 89.777884 
L 646.883173 89.619553 
L 648.955084 88.954561 
L 649.783848 88.606233 
L 650.612612 88.28957 
L 651.441376 88.067907 
L 651.855758 87.877909 
L 652.27014 87.877909 
L 653.098905 87.52958 
L 653.927669 87.054587 
L 656.828343 86.072933 
L 658.485872 85.50294 
L 659.729018 85.217944 
L 660.972164 84.806283 
L 661.386546 84.711284 
L 661.800928 84.426288 
L 662.629692 84.236291 
L 664.287221 83.761297 
L 664.701603 83.729631 
L 665.530367 83.349636 
L 668.431042 82.621312 
L 669.259806 82.272983 
L 673.403626 81.322996 
L 674.646773 80.658005 
L 675.889919 80.27801 
L 678.790593 79.296356 
L 679.204976 79.074692 
L 679.619358 78.979693 
L 680.862504 78.346368 
L 681.691268 78.188037 
L 682.520032 77.934707 
L 683.348796 77.523046 
L 683.763178 77.174717 
L 684.591943 76.921387 
L 685.006325 76.668057 
L 685.835089 76.573059 
L 688.735763 75.749736 
L 689.97891 75.496406 
L 691.222056 75.179744 
L 692.05082 74.95808 
L 693.293966 74.324755 
L 694.951495 73.69143 
L 695.780259 73.248103 
L 696.194641 73.216436 
L 697.023405 72.804775 
L 699.924079 71.981453 
L 701.167226 71.791455 
L 701.99599 71.538125 
L 703.239136 71.15813 
L 706.968575 70.113144 
L 707.797339 69.89148 
L 708.211721 69.796482 
L 708.626103 69.543152 
L 709.454867 69.38482 
L 710.283631 69.289822 
L 710.698013 69.068158 
L 711.112396 69.036492 
L 711.94116 68.498165 
L 713.598688 68.149837 
L 714.427452 67.801508 
L 715.256216 67.516512 
L 716.084981 67.294848 
L 716.913745 66.946519 
L 717.742509 66.661523 
L 719.400037 66.186529 
L 720.228801 66.123197 
L 721.057565 65.838201 
L 721.471948 65.679869 
L 722.300712 65.553204 
L 723.95824 64.824881 
L 724.372622 64.761548 
L 724.787004 64.539884 
L 725.615768 64.381553 
L 726.444532 64.318221 
L 728.930825 63.684896 
L 729.759589 63.336567 
L 730.173971 63.273234 
L 730.588353 63.051571 
L 731.417117 62.354913 
L 736.804084 60.391606 
L 738.047231 60.10661 
L 738.461613 59.789947 
L 739.704759 59.251621 
L 740.533523 58.808294 
L 740.947905 58.713295 
L 741.362287 58.396632 
L 742.605434 58.048304 
L 743.019816 57.82664 
L 743.84858 57.541644 
L 744.677344 57.193315 
L 746.334872 56.116662 
L 746.749254 56.021664 
L 747.163636 55.8 
L 747.163636 55.8 
" clip-path="url(#paf183db0cc)" style="fill: none; stroke: #1f77b4; stroke-width: 1.5; stroke-linecap: square"/>
   </g>
   <g id="line2d_38">
    <path d="M 138.850746 307.8 
L 142.580184 307.705001 
L 145.895241 307.54667 
L 147.552769 307.54667 
L 147.967151 307.420005 
L 150.039062 307.325006 
L 152.525354 307.04001 
L 155.011647 306.945011 
L 155.840411 306.850013 
L 158.741085 306.723348 
L 161.64176 306.628349 
L 163.71367 306.565016 
L 169.100637 306.470018 
L 171.172548 306.406685 
L 174.901987 306.311686 
L 176.559515 306.28002 
L 180.703336 306.185021 
L 182.360864 306.02669 
L 184.018392 305.995024 
L 186.504685 305.900025 
L 188.162213 305.868359 
L 190.234123 305.805026 
L 191.891652 305.646695 
L 195.62109 305.551696 
L 196.449855 305.488364 
L 198.107383 305.393365 
L 200.593675 305.298366 
L 202.251204 305.203368 
L 209.710081 304.728374 
L 212.610756 304.633375 
L 213.853902 304.50671 
L 215.925812 304.411711 
L 220.069633 304.190048 
L 224.213454 304.126715 
L 225.870982 303.936718 
L 227.942893 303.841719 
L 232.086713 303.430058 
L 234.573006 303.113395 
L 236.230534 303.050063 
L 239.545591 302.606735 
L 242.031883 302.543403 
L 243.275029 302.416738 
L 244.518176 302.321739 
L 256.120874 301.403418 
L 256.949638 301.245087 
L 259.43593 301.150088 
L 266.066044 300.738427 
L 268.966718 300.643428 
L 270.624247 300.453431 
L 272.696157 300.358432 
L 275.182449 300.263433 
L 277.25436 300.168434 
L 278.911888 300.136768 
L 280.983799 300.073436 
L 281.812563 299.946771 
L 287.613912 299.851772 
L 288.442676 299.756773 
L 293.415261 299.661774 
L 297.1447 299.471777 
L 300.045374 299.376778 
L 301.702902 299.186781 
L 304.603577 299.091782 
L 305.432341 298.965117 
L 307.504252 298.901784 
L 311.648072 298.838452 
L 313.305601 298.680121 
L 314.963129 298.648454 
L 316.206275 298.553456 
L 317.863803 298.395124 
L 322.007624 298.173461 
L 326.151445 298.078462 
L 329.880884 297.888464 
L 331.12403 297.856798 
L 331.952794 297.730133 
L 334.024704 297.635134 
L 334.853469 297.571802 
L 335.682233 297.508469 
L 336.510997 297.445137 
L 340.654818 297.350138 
L 349.771223 296.74848 
L 350.599988 296.685147 
L 351.843134 296.590148 
L 354.743808 296.49515 
L 356.815719 296.431817 
L 362.617068 296.336818 
L 363.445832 296.210153 
L 369.247181 296.115155 
L 373.391002 295.893491 
L 374.219766 295.861825 
L 375.04853 295.766826 
L 377.120441 295.671827 
L 379.192351 295.608495 
L 381.264261 295.513496 
L 383.336172 295.450163 
L 387.06561 295.355165 
L 389.551903 295.260166 
L 395.353252 295.165167 
L 399.911455 294.911837 
L 401.568983 294.848505 
L 402.812129 294.753506 
L 408.613479 294.658507 
L 411.099771 294.563508 
L 418.558648 294.46851 
L 420.216177 294.436843 
L 425.188762 294.373511 
L 426.017526 294.310178 
L 431.818875 294.21518 
L 433.476403 294.183513 
L 444.250337 294.088515 
L 446.73663 293.993516 
L 464.140677 293.898517 
L 466.212587 293.835185 
L 476.986521 293.771852 
L 477.815286 293.70852 
L 479.887196 293.645187 
L 481.130342 293.518522 
L 483.616635 293.423523 
L 486.517309 293.296859 
L 490.246748 293.20186 
L 492.318658 293.138527 
L 495.219333 293.043529 
L 498.53439 292.885197 
L 500.6063 292.790199 
L 502.263828 292.758532 
L 509.308324 292.663534 
L 511.794616 292.568535 
L 516.352819 292.473536 
L 519.253493 292.346871 
L 522.154168 292.283539 
L 522.982932 292.220206 
L 532.928102 292.125207 
L 537.071923 291.903544 
L 539.972597 291.808545 
L 544.5308 291.555215 
L 547.431475 291.460216 
L 549.089003 291.42855 
L 551.989678 291.333551 
L 554.061588 291.111887 
L 558.205409 291.016889 
L 559.034173 290.92189 
L 563.177994 290.826891 
L 565.249904 290.763559 
L 569.808107 290.731892 
L 570.636871 290.636894 
L 575.195074 290.541895 
L 576.023838 290.478562 
L 585.140244 290.383564 
L 587.626536 290.288565 
L 593.842267 290.193566 
L 595.499796 290.1619 
L 599.229234 290.098567 
L 600.057999 290.003569 
L 605.444966 289.90857 
L 607.516876 289.845237 
L 614.975753 289.750239 
L 616.2189 289.65524 
L 617.462046 289.560241 
L 618.705192 289.465243 
L 624.920923 289.370244 
L 627.407216 289.275245 
L 638.595532 289.180246 
L 642.324971 288.990249 
L 647.297556 288.89525 
L 648.12632 288.831918 
L 654.342051 288.768585 
L 655.170815 288.705253 
L 659.729018 288.610254 
L 661.386546 288.578588 
L 668.431042 288.483589 
L 669.259806 288.420256 
L 676.718683 288.325258 
L 678.376211 288.293591 
L 682.10565 288.198593 
L 685.420707 288.040261 
L 689.97891 287.945263 
L 692.879584 287.818598 
L 696.609023 287.723599 
L 697.437787 287.660266 
L 705.725429 287.565268 
L 707.797339 287.501935 
L 710.283631 287.406936 
L 712.769924 287.311938 
L 725.201386 287.216939 
L 728.102061 287.090274 
L 733.074646 286.995275 
L 734.732174 286.963609 
L 741.362287 286.86861 
L 742.605434 286.773611 
L 745.92049 286.678613 
L 747.163636 286.61528 
L 747.163636 286.61528 
" clip-path="url(#paf183db0cc)" style="fill: none; stroke: #ff7f0e; stroke-width: 1.5; stroke-linecap: square"/>
   </g>
   <g id="patch_3">
    <path d="M 108 320.4 
L 108 43.2 
" style="fill: none; stroke: #a9a9a9; stroke-width: 0.8; stroke-linejoin: miter; stroke-linecap: square"/>
   </g>
   <g id="patch_4">
    <path d="M 777.6 320.4 
L 777.6 43.2 
" style="fill: none"/>
   </g>
   <g id="patch_5">
    <path d="M 108 320.4 
L 777.6 320.4 
" style="fill: none; stroke: #a9a9a9; stroke-width: 0.8; stroke-linejoin: miter; stroke-linecap: square"/>
   </g>
   <g id="patch_6">
    <path d="M 108 43.2 
L 777.6 43.2 
" style="fill: none"/>
   </g>
   <g id="text_19">
    <!-- get_subscribe history -->
    <g style="fill: #a9a9a9" transform="translate(378.6075 37.2) scale(0.12 -0.12)">
     <defs>
      <path id="DejaVuSans-67" d="M 2906 1791 
Q 2906 2416 2648 2759 
Q 2391 3103 1925 3103 
Q 1463 3103 1205 2759 
Q 947 2416 947 1791 
Q 947 1169 1205 825 
Q 1463 481 1925 481 
Q 2391 481 2648 825 
Q 2906 1169 2906 1791 
z
M 3481 434 
Q 3481 -459 3084 -895 
Q 2688 -1331 1869 -1331 
Q 1566 -1331 1297 -1286 
Q 1028 -1241 775 -1147 
L 775 -588 
Q 1028 -725 1275 -790 
Q 1522 -856 1778 -856 
Q 2344 -856 2625 -561 
Q 2906 -266 2906 331 
L 2906 616 
Q 2728 306 2450 153 
Q 2172 0 1784 0 
Q 1141 0 747 490 
Q 353 981 353 1791 
Q 353 2603 747 3093 
Q 1141 3584 1784 3584 
Q 2172 3584 2450 3431 
Q 2728 3278 2906 2969 
L 2906 3500 
L 3481 3500 
L 3481 434 
z
" transform="scale(0.015625)"/>
      <path id="DejaVuSans-65" d="M 3597 1894 
L 3597 1613 
L 953 1613 
Q 991 1019 1311 708 
Q 1631 397 2203 397 
Q 2534 397 2845 478 
Q 3156 559 3463 722 
L 3463 178 
Q 3153 47 2828 -22 
Q 2503 -91 2169 -91 
Q 1331 -91 842 396 
Q 353 884 353 1716 
Q 353 2575 817 3079 
Q 1281 3584 2069 3584 
Q 2775 3584 3186 3129 
Q 3597 2675 3597 1894 
z
M 3022 2063 
Q 3016 2534 2758 2815 
Q 2500 3097 2075 3097 
Q 1594 3097 1305 2825 
Q 1016 2553 972 2059 
L 3022 2063 
z
" transform="scale(0.015625)"/>
      <path id="DejaVuSans-74" d="M 1172 4494 
L 1172 3500 
L 2356 3500 
L 2356 3053 
L 1172 3053 
L 1172 1153 
Q 1172 725 1289 603 
Q 1406 481 1766 481 
L 2356 481 
L 2356 0 
L 1766 0 
Q 1100 0 847 248 
Q 594 497 594 1153 
L 594 3053 
L 172 3053 
L 172 3500 
L 594 3500 
L 594 4494 
L 1172 4494 
z
" transform="scale(0.015625)"/>
      <path id="DejaVuSans-5f" d="M 3263 -1063 
L 3263 -1509 
L -63 -1509 
L -63 -1063 
L 3263 -1063 
z
" transform="scale(0.015625)"/>
      <path id="DejaVuSans-73" d="M 2834 3397 
L 2834 2853 
Q 2591 2978 2328 3040 
Q 2066 3103 1784 3103 
Q 1356 3103 1142 2972 
Q 928 2841 928 2578 
Q 928 2378 1081 2264 
Q 1234 2150 1697 2047 
L 1894 2003 
Q 2506 1872 2764 1633 
Q 3022 1394 3022 966 
Q 3022 478 2636 193 
Q 2250 -91 1575 -91 
Q 1294 -91 989 -36 
Q 684 19 347 128 
L 347 722 
Q 666 556 975 473 
Q 1284 391 1588 391 
Q 1994 391 2212 530 
Q 2431 669 2431 922 
Q 2431 1156 2273 1281 
Q 2116 1406 1581 1522 
L 1381 1569 
Q 847 1681 609 1914 
Q 372 2147 372 2553 
Q 372 3047 722 3315 
Q 1072 3584 1716 3584 
Q 2034 3584 2315 3537 
Q 2597 3491 2834 3397 
z
" transform="scale(0.015625)"/>
      <path id="DejaVuSans-75" d="M 544 1381 
L 544 3500 
L 1119 3500 
L 1119 1403 
Q 1119 906 1312 657 
Q 1506 409 1894 409 
Q 2359 409 2629 706 
Q 2900 1003 2900 1516 
L 2900 3500 
L 3475 3500 
L 3475 0 
L 2900 0 
L 2900 538 
Q 2691 219 2414 64 
Q 2138 -91 1772 -91 
Q 1169 -91 856 284 
Q 544 659 544 1381 
z
M 1991 3584 
L 1991 3584 
z
" transform="scale(0.015625)"/>
      <path id="DejaVuSans-62" d="M 3116 1747 
Q 3116 2381 2855 2742 
Q 2594 3103 2138 3103 
Q 1681 3103 1420 2742 
Q 1159 2381 1159 1747 
Q 1159 1113 1420 752 
Q 1681 391 2138 391 
Q 2594 391 2855 752 
Q 3116 1113 3116 1747 
z
M 1159 2969 
Q 1341 3281 1617 3432 
Q 1894 3584 2278 3584 
Q 2916 3584 3314 3078 
Q 3713 2572 3713 1747 
Q 3713 922 3314 415 
Q 2916 -91 2278 -91 
Q 1894 -91 1617 61 
Q 1341 213 1159 525 
L 1159 0 
L 581 0 
L 581 4863 
L 1159 4863 
L 1159 2969 
z
" transform="scale(0.015625)"/>
      <path id="DejaVuSans-63" d="M 3122 3366 
L 3122 2828 
Q 2878 2963 2633 3030 
Q 2388 3097 2138 3097 
Q 1578 3097 1268 2742 
Q 959 2388 959 1747 
Q 959 1106 1268 751 
Q 1578 397 2138 397 
Q 2388 397 2633 464 
Q 2878 531 3122 666 
L 3122 134 
Q 2881 22 2623 -34 
Q 2366 -91 2075 -91 
Q 1284 -91 818 406 
Q 353 903 353 1747 
Q 353 2603 823 3093 
Q 1294 3584 2113 3584 
Q 2378 3584 2631 3529 
Q 2884 3475 3122 3366 
z
" transform="scale(0.015625)"/>
      <path id="DejaVuSans-72" d="M 2631 2963 
Q 2534 3019 2420 3045 
Q 2306 3072 2169 3072 
Q 1681 3072 1420 2755 
Q 1159 2438 1159 1844 
L 1159 0 
L 581 0 
L 581 3500 
L 1159 3500 
L 1159 2956 
Q 1341 3275 1631 3429 
Q 1922 3584 2338 3584 
Q 2397 3584 2469 3576 
Q 2541 3569 2628 3553 
L 2631 2963 
z
" transform="scale(0.015625)"/>
      <path id="DejaVuSans-69" d="M 603 3500 
L 1178 3500 
L 1178 0 
L 603 0 
L 603 3500 
z
M 603 4863 
L 1178 4863 
L 1178 4134 
L 603 4134 
L 603 4863 
z
" transform="scale(0.015625)"/>
      <path id="DejaVuSans-20" transform="scale(0.015625)"/>
      <path id="DejaVuSans-68" d="M 3513 2113 
L 3513 0 
L 2938 0 
L 2938 2094 
Q 2938 2591 2744 2837 
Q 2550 3084 2163 3084 
Q 1697 3084 1428 2787 
Q 1159 2491 1159 1978 
L 1159 0 
L 581 0 
L 581 4863 
L 1159 4863 
L 1159 2956 
Q 1366 3272 1645 3428 
Q 1925 3584 2291 3584 
Q 2894 3584 3203 3211 
Q 3513 2838 3513 2113 
z
" transform="scale(0.015625)"/>
      <path id="DejaVuSans-6f" d="M 1959 3097 
Q 1497 3097 1228 2736 
Q 959 2375 959 1747 
Q 959 1119 1226 758 
Q 1494 397 1959 397 
Q 2419 397 2687 759 
Q 2956 1122 2956 1747 
Q 2956 2369 2687 2733 
Q 2419 3097 1959 3097 
z
M 1959 3584 
Q 2709 3584 3137 3096 
Q 3566 2609 3566 1747 
Q 3566 888 3137 398 
Q 2709 -91 1959 -91 
Q 1206 -91 779 398 
Q 353 888 353 1747 
Q 353 2609 779 3096 
Q 1206 3584 1959 3584 
z
" transform="scale(0.015625)"/>
      <path id="DejaVuSans-79" d="M 2059 -325 
Q 1816 -950 1584 -1140 
Q 1353 -1331 966 -1331 
L 506 -1331 
L 506 -850 
L 844 -850 
Q 1081 -850 1212 -737 
Q 1344 -625 1503 -206 
L 1606 56 
L 191 3500 
L 800 3500 
L 1894 763 
L 2988 3500 
L 3597 3500 
L 2059 -325 
z
" transform="scale(0.015625)"/>
     </defs>
     <use xlink:href="#DejaVuSans-67"/>
     <use xlink:href="#DejaVuSans-65" transform="translate(63.476562 0)"/>
     <use xlink:href="#DejaVuSans-74" transform="translate(125 0)"/>
     <use xlink:href="#DejaVuSans-5f" transform="translate(164.208984 0)"/>
     <use xlink:href="#DejaVuSans-73" transform="translate(214.208984 0)"/>
     <use xlink:href="#DejaVuSans-75" transform="translate(266.308594 0)"/>
     <use xlink:href="#DejaVuSans-62" transform="translate(329.6875 0)"/>
     <use xlink:href="#DejaVuSans-73" transform="translate(393.164062 0)"/>
     <use xlink:href="#DejaVuSans-63" transform="translate(445.263672 0)"/>
     <use xlink:href="#DejaVuSans-72" transform="translate(500.244141 0)"/>
     <use xlink:href="#DejaVuSans-69" transform="translate(541.357422 0)"/>
     <use xlink:href="#DejaVuSans-62" transform="translate(569.140625 0)"/>
     <use xlink:href="#DejaVuSans-65" transform="translate(632.617188 0)"/>
     <use xlink:href="#DejaVuSans-20" transform="translate(694.140625 0)"/>
     <use xlink:href="#DejaVuSans-68" transform="translate(725.927734 0)"/>
     <use xlink:href="#DejaVuSans-69" transform="translate(789.306641 0)"/>
     <use xlink:href="#DejaVuSans-73" transform="translate(817.089844 0)"/>
     <use xlink:href="#DejaVuSans-74" transform="translate(869.189453 0)"/>
     <use xlink:href="#DejaVuSans-6f" transform="translate(908.398438 0)"/>
     <use xlink:href="#DejaVuSans-72" transform="translate(969.580078 0)"/>
     <use xlink:href="#DejaVuSans-79" transform="translate(1010.693359 0)"/>
    </g>
   </g>
   <g id="legend_1">
    <g id="line2d_39">
     <path d="M 815.08 328.498438 
L 825.08 328.498438 
L 835.08 328.498438 
" style="fill: none; stroke: #1f77b4; stroke-width: 1.5; stroke-linecap: square"/>
    </g>
    <g id="text_20">
     <!-- star -->
     <g style="fill: #a9a9a9" transform="translate(843.08 331.998438) scale(0.1 -0.1)">
      <defs>
       <path id="DejaVuSans-61" d="M 2194 1759 
Q 1497 1759 1228 1600 
Q 959 1441 959 1056 
Q 959 750 1161 570 
Q 1363 391 1709 391 
Q 2188 391 2477 730 
Q 2766 1069 2766 1631 
L 2766 1759 
L 2194 1759 
z
M 3341 1997 
L 3341 0 
L 2766 0 
L 2766 531 
Q 2569 213 2275 61 
Q 1981 -91 1556 -91 
Q 1019 -91 701 211 
Q 384 513 384 1019 
Q 384 1609 779 1909 
Q 1175 2209 1959 2209 
L 2766 2209 
L 2766 2266 
Q 2766 2663 2505 2880 
Q 2244 3097 1772 3097 
Q 1472 3097 1187 3025 
Q 903 2953 641 2809 
L 641 3341 
Q 956 3463 1253 3523 
Q 1550 3584 1831 3584 
Q 2591 3584 2966 3190 
Q 3341 2797 3341 1997 
z
" transform="scale(0.015625)"/>
      </defs>
      <use xlink:href="#DejaVuSans-73"/>
      <use xlink:href="#DejaVuSans-74" transform="translate(52.099609 0)"/>
      <use xlink:href="#DejaVuSans-61" transform="translate(91.308594 0)"/>
      <use xlink:href="#DejaVuSans-72" transform="translate(152.587891 0)"/>
     </g>
    </g>
    <g id="line2d_40">
     <path d="M 815.08 343.176562 
L 825.08 343.176562 
L 835.08 343.176562 
" style="fill: none; stroke: #ff7f0e; stroke-width: 1.5; stroke-linecap: square"/>
    </g>
    <g id="text_21">
     <!-- fork -->
     <g style="fill: #a9a9a9" transform="translate(843.08 346.676562) scale(0.1 -0.1)">
      <defs>
       <path id="DejaVuSans-66" d="M 2375 4863 
L 2375 4384 
L 1825 4384 
Q 1516 4384 1395 4259 
Q 1275 4134 1275 3809 
L 1275 3500 
L 2222 3500 
L 2222 3053 
L 1275 3053 
L 1275 0 
L 697 0 
L 697 3053 
L 147 3053 
L 147 3500 
L 697 3500 
L 697 3744 
Q 697 4328 969 4595 
Q 1241 4863 1831 4863 
L 2375 4863 
z
" transform="scale(0.015625)"/>
       <path id="DejaVuSans-6b" d="M 581 4863 
L 1159 4863 
L 1159 1991 
L 2875 3500 
L 3609 3500 
L 1753 1863 
L 3688 0 
L 2938 0 
L 1159 1709 
L 1159 0 
L 581 0 
L 581 4863 
z
" transform="scale(0.015625)"/>
      </defs>
      <use xlink:href="#DejaVuSans-66"/>
      <use xlink:href="#DejaVuSans-6f" transform="translate(35.205078 0)"/>
      <use xlink:href="#DejaVuSans-72" transform="translate(96.386719 0)"/>
      <use xlink:href="#DejaVuSans-6b" transform="translate(137.5 0)"/>
     </g>
    </g>
   </g>
  </g>
 </g>
 <defs>
  <clipPath id="paf183db0cc">
   <rect x="108" y="43.2" width="669.6" height="277.2"/>
  </clipPath>
 </defs>
</svg>
