<?xml version="1.0" encoding="utf-8" standalone="no"?>
<!DOCTYPE svg PUBLIC "-//W3C//DTD SVG 1.1//EN"
  "http://www.w3.org/Graphics/SVG/1.1/DTD/svg11.dtd">
<svg xmlns:xlink="http://www.w3.org/1999/xlink" width="864pt" height="360pt" viewBox="0 0 864 360" xmlns="http://www.w3.org/2000/svg" version="1.1">
 <metadata>
  <rdf:RDF xmlns:dc="http://purl.org/dc/elements/1.1/" xmlns:cc="http://creativecommons.org/ns#" xmlns:rdf="http://www.w3.org/1999/02/22-rdf-syntax-ns#">
   <cc:Work>
    <dc:type rdf:resource="http://purl.org/dc/dcmitype/StillImage"/>
    <dc:date>2025-06-11T20:06:48.532557</dc:date>
    <dc:format>image/svg+xml</dc:format>
    <dc:creator>
     <cc:Agent>
      <dc:title>Matplotlib v3.10.3, https://matplotlib.org/</dc:title>
     </cc:Agent>
    </dc:creator>
   </cc:Work>
  </rdf:RDF>
 </metadata>
 <defs>
  <style type="text/css">*{stroke-linejoin: round; stroke-linecap: butt}</style>
 </defs>
 <g id="figure_1">
  <g id="patch_1">
   <path d="M 0 360 
L 864 360 
L 864 0 
L 0 0 
L 0 360 
z
" style="fill: none; opacity: 0"/>
  </g>
  <g id="axes_1">
   <g id="patch_2">
    <path d="M 108 320.4 
L 777.6 320.4 
L 777.6 43.2 
L 108 43.2 
L 108 320.4 
z
" style="fill: none; opacity: 0"/>
   </g>
   <g id="matplotlib.axis_1">
    <g id="xtick_1">
     <g id="line2d_1">
      <path d="M 128.56279 320.4 
L 128.56279 43.2 
" clip-path="url(#p527841e00c)" style="fill: none; stroke-dasharray: 5.12,1.28,0.8,1.28; stroke-dashoffset: 0; stroke: #b0b0b0; stroke-width: 0.8"/>
     </g>
     <g id="line2d_2">
      <defs>
       <path id="m6fd221643d" d="M 0 0 
L 0 3.5 
" style="stroke: #a9a9a9; stroke-width: 0.8"/>
      </defs>
      <g>
       <use xlink:href="#m6fd221643d" x="128.56279" y="320.4" style="fill: #a9a9a9; stroke: #a9a9a9; stroke-width: 0.8"/>
      </g>
     </g>
     <g id="text_1">
      <!-- 2021-07 -->
      <g style="fill: #a9a9a9" transform="translate(107.671384 334.998438) scale(0.1 -0.1)">
       <defs>
        <path id="DejaVuSans-32" d="M 1228 531 
L 3431 531 
L 3431 0 
L 469 0 
L 469 531 
Q 828 903 1448 1529 
Q 2069 2156 2228 2338 
Q 2531 2678 2651 2914 
Q 2772 3150 2772 3378 
Q 2772 3750 2511 3984 
Q 2250 4219 1831 4219 
Q 1534 4219 1204 4116 
Q 875 4013 500 3803 
L 500 4441 
Q 881 4594 1212 4672 
Q 1544 4750 1819 4750 
Q 2544 4750 2975 4387 
Q 3406 4025 3406 3419 
Q 3406 3131 3298 2873 
Q 3191 2616 2906 2266 
Q 2828 2175 2409 1742 
Q 1991 1309 1228 531 
z
" transform="scale(0.015625)"/>
        <path id="DejaVuSans-30" d="M 2034 4250 
Q 1547 4250 1301 3770 
Q 1056 3291 1056 2328 
Q 1056 1369 1301 889 
Q 1547 409 2034 409 
Q 2525 409 2770 889 
Q 3016 1369 3016 2328 
Q 3016 3291 2770 3770 
Q 2525 4250 2034 4250 
z
M 2034 4750 
Q 2819 4750 3233 4129 
Q 3647 3509 3647 2328 
Q 3647 1150 3233 529 
Q 2819 -91 2034 -91 
Q 1250 -91 836 529 
Q 422 1150 422 2328 
Q 422 3509 836 4129 
Q 1250 4750 2034 4750 
z
" transform="scale(0.015625)"/>
        <path id="DejaVuSans-31" d="M 794 531 
L 1825 531 
L 1825 4091 
L 703 3866 
L 703 4441 
L 1819 4666 
L 2450 4666 
L 2450 531 
L 3481 531 
L 3481 0 
L 794 0 
L 794 531 
z
" transform="scale(0.015625)"/>
        <path id="DejaVuSans-2d" d="M 313 2009 
L 1997 2009 
L 1997 1497 
L 313 1497 
L 313 2009 
z
" transform="scale(0.015625)"/>
        <path id="DejaVuSans-37" d="M 525 4666 
L 3525 4666 
L 3525 4397 
L 1831 0 
L 1172 0 
L 2766 4134 
L 525 4134 
L 525 4666 
z
" transform="scale(0.015625)"/>
       </defs>
       <use xlink:href="#DejaVuSans-32"/>
       <use xlink:href="#DejaVuSans-30" transform="translate(63.623047 0)"/>
       <use xlink:href="#DejaVuSans-32" transform="translate(127.246094 0)"/>
       <use xlink:href="#DejaVuSans-31" transform="translate(190.869141 0)"/>
       <use xlink:href="#DejaVuSans-2d" transform="translate(254.492188 0)"/>
       <use xlink:href="#DejaVuSans-30" transform="translate(290.576172 0)"/>
       <use xlink:href="#DejaVuSans-37" transform="translate(354.199219 0)"/>
      </g>
     </g>
    </g>
    <g id="xtick_2">
     <g id="line2d_3">
      <path d="M 207.551378 320.4 
L 207.551378 43.2 
" clip-path="url(#p527841e00c)" style="fill: none; stroke-dasharray: 5.12,1.28,0.8,1.28; stroke-dashoffset: 0; stroke: #b0b0b0; stroke-width: 0.8"/>
     </g>
     <g id="line2d_4">
      <g>
       <use xlink:href="#m6fd221643d" x="207.551378" y="320.4" style="fill: #a9a9a9; stroke: #a9a9a9; stroke-width: 0.8"/>
      </g>
     </g>
     <g id="text_2">
      <!-- 2022-01 -->
      <g style="fill: #a9a9a9" transform="translate(186.659972 334.998438) scale(0.1 -0.1)">
       <use xlink:href="#DejaVuSans-32"/>
       <use xlink:href="#DejaVuSans-30" transform="translate(63.623047 0)"/>
       <use xlink:href="#DejaVuSans-32" transform="translate(127.246094 0)"/>
       <use xlink:href="#DejaVuSans-32" transform="translate(190.869141 0)"/>
       <use xlink:href="#DejaVuSans-2d" transform="translate(254.492188 0)"/>
       <use xlink:href="#DejaVuSans-30" transform="translate(290.576172 0)"/>
       <use xlink:href="#DejaVuSans-31" transform="translate(354.199219 0)"/>
      </g>
     </g>
    </g>
    <g id="xtick_3">
     <g id="line2d_5">
      <path d="M 285.252109 320.4 
L 285.252109 43.2 
" clip-path="url(#p527841e00c)" style="fill: none; stroke-dasharray: 5.12,1.28,0.8,1.28; stroke-dashoffset: 0; stroke: #b0b0b0; stroke-width: 0.8"/>
     </g>
     <g id="line2d_6">
      <g>
       <use xlink:href="#m6fd221643d" x="285.252109" y="320.4" style="fill: #a9a9a9; stroke: #a9a9a9; stroke-width: 0.8"/>
      </g>
     </g>
     <g id="text_3">
      <!-- 2022-07 -->
      <g style="fill: #a9a9a9" transform="translate(264.360703 334.998438) scale(0.1 -0.1)">
       <use xlink:href="#DejaVuSans-32"/>
       <use xlink:href="#DejaVuSans-30" transform="translate(63.623047 0)"/>
       <use xlink:href="#DejaVuSans-32" transform="translate(127.246094 0)"/>
       <use xlink:href="#DejaVuSans-32" transform="translate(190.869141 0)"/>
       <use xlink:href="#DejaVuSans-2d" transform="translate(254.492188 0)"/>
       <use xlink:href="#DejaVuSans-30" transform="translate(290.576172 0)"/>
       <use xlink:href="#DejaVuSans-37" transform="translate(354.199219 0)"/>
      </g>
     </g>
    </g>
    <g id="xtick_4">
     <g id="line2d_7">
      <path d="M 364.240698 320.4 
L 364.240698 43.2 
" clip-path="url(#p527841e00c)" style="fill: none; stroke-dasharray: 5.12,1.28,0.8,1.28; stroke-dashoffset: 0; stroke: #b0b0b0; stroke-width: 0.8"/>
     </g>
     <g id="line2d_8">
      <g>
       <use xlink:href="#m6fd221643d" x="364.240698" y="320.4" style="fill: #a9a9a9; stroke: #a9a9a9; stroke-width: 0.8"/>
      </g>
     </g>
     <g id="text_4">
      <!-- 2023-01 -->
      <g style="fill: #a9a9a9" transform="translate(343.349291 334.998438) scale(0.1 -0.1)">
       <defs>
        <path id="DejaVuSans-33" d="M 2597 2516 
Q 3050 2419 3304 2112 
Q 3559 1806 3559 1356 
Q 3559 666 3084 287 
Q 2609 -91 1734 -91 
Q 1441 -91 1130 -33 
Q 819 25 488 141 
L 488 750 
Q 750 597 1062 519 
Q 1375 441 1716 441 
Q 2309 441 2620 675 
Q 2931 909 2931 1356 
Q 2931 1769 2642 2001 
Q 2353 2234 1838 2234 
L 1294 2234 
L 1294 2753 
L 1863 2753 
Q 2328 2753 2575 2939 
Q 2822 3125 2822 3475 
Q 2822 3834 2567 4026 
Q 2313 4219 1838 4219 
Q 1578 4219 1281 4162 
Q 984 4106 628 3988 
L 628 4550 
Q 988 4650 1302 4700 
Q 1616 4750 1894 4750 
Q 2613 4750 3031 4423 
Q 3450 4097 3450 3541 
Q 3450 3153 3228 2886 
Q 3006 2619 2597 2516 
z
" transform="scale(0.015625)"/>
       </defs>
       <use xlink:href="#DejaVuSans-32"/>
       <use xlink:href="#DejaVuSans-30" transform="translate(63.623047 0)"/>
       <use xlink:href="#DejaVuSans-32" transform="translate(127.246094 0)"/>
       <use xlink:href="#DejaVuSans-33" transform="translate(190.869141 0)"/>
       <use xlink:href="#DejaVuSans-2d" transform="translate(254.492188 0)"/>
       <use xlink:href="#DejaVuSans-30" transform="translate(290.576172 0)"/>
       <use xlink:href="#DejaVuSans-31" transform="translate(354.199219 0)"/>
      </g>
     </g>
    </g>
    <g id="xtick_5">
     <g id="line2d_9">
      <path d="M 441.941428 320.4 
L 441.941428 43.2 
" clip-path="url(#p527841e00c)" style="fill: none; stroke-dasharray: 5.12,1.28,0.8,1.28; stroke-dashoffset: 0; stroke: #b0b0b0; stroke-width: 0.8"/>
     </g>
     <g id="line2d_10">
      <g>
       <use xlink:href="#m6fd221643d" x="441.941428" y="320.4" style="fill: #a9a9a9; stroke: #a9a9a9; stroke-width: 0.8"/>
      </g>
     </g>
     <g id="text_5">
      <!-- 2023-07 -->
      <g style="fill: #a9a9a9" transform="translate(421.050022 334.998438) scale(0.1 -0.1)">
       <use xlink:href="#DejaVuSans-32"/>
       <use xlink:href="#DejaVuSans-30" transform="translate(63.623047 0)"/>
       <use xlink:href="#DejaVuSans-32" transform="translate(127.246094 0)"/>
       <use xlink:href="#DejaVuSans-33" transform="translate(190.869141 0)"/>
       <use xlink:href="#DejaVuSans-2d" transform="translate(254.492188 0)"/>
       <use xlink:href="#DejaVuSans-30" transform="translate(290.576172 0)"/>
       <use xlink:href="#DejaVuSans-37" transform="translate(354.199219 0)"/>
      </g>
     </g>
    </g>
    <g id="xtick_6">
     <g id="line2d_11">
      <path d="M 520.930017 320.4 
L 520.930017 43.2 
" clip-path="url(#p527841e00c)" style="fill: none; stroke-dasharray: 5.12,1.28,0.8,1.28; stroke-dashoffset: 0; stroke: #b0b0b0; stroke-width: 0.8"/>
     </g>
     <g id="line2d_12">
      <g>
       <use xlink:href="#m6fd221643d" x="520.930017" y="320.4" style="fill: #a9a9a9; stroke: #a9a9a9; stroke-width: 0.8"/>
      </g>
     </g>
     <g id="text_6">
      <!-- 2024-01 -->
      <g style="fill: #a9a9a9" transform="translate(500.03861 334.998438) scale(0.1 -0.1)">
       <defs>
        <path id="DejaVuSans-34" d="M 2419 4116 
L 825 1625 
L 2419 1625 
L 2419 4116 
z
M 2253 4666 
L 3047 4666 
L 3047 1625 
L 3713 1625 
L 3713 1100 
L 3047 1100 
L 3047 0 
L 2419 0 
L 2419 1100 
L 313 1100 
L 313 1709 
L 2253 4666 
z
" transform="scale(0.015625)"/>
       </defs>
       <use xlink:href="#DejaVuSans-32"/>
       <use xlink:href="#DejaVuSans-30" transform="translate(63.623047 0)"/>
       <use xlink:href="#DejaVuSans-32" transform="translate(127.246094 0)"/>
       <use xlink:href="#DejaVuSans-34" transform="translate(190.869141 0)"/>
       <use xlink:href="#DejaVuSans-2d" transform="translate(254.492188 0)"/>
       <use xlink:href="#DejaVuSans-30" transform="translate(290.576172 0)"/>
       <use xlink:href="#DejaVuSans-31" transform="translate(354.199219 0)"/>
      </g>
     </g>
    </g>
    <g id="xtick_7">
     <g id="line2d_13">
      <path d="M 599.060033 320.4 
L 599.060033 43.2 
" clip-path="url(#p527841e00c)" style="fill: none; stroke-dasharray: 5.12,1.28,0.8,1.28; stroke-dashoffset: 0; stroke: #b0b0b0; stroke-width: 0.8"/>
     </g>
     <g id="line2d_14">
      <g>
       <use xlink:href="#m6fd221643d" x="599.060033" y="320.4" style="fill: #a9a9a9; stroke: #a9a9a9; stroke-width: 0.8"/>
      </g>
     </g>
     <g id="text_7">
      <!-- 2024-07 -->
      <g style="fill: #a9a9a9" transform="translate(578.168627 334.998438) scale(0.1 -0.1)">
       <use xlink:href="#DejaVuSans-32"/>
       <use xlink:href="#DejaVuSans-30" transform="translate(63.623047 0)"/>
       <use xlink:href="#DejaVuSans-32" transform="translate(127.246094 0)"/>
       <use xlink:href="#DejaVuSans-34" transform="translate(190.869141 0)"/>
       <use xlink:href="#DejaVuSans-2d" transform="translate(254.492188 0)"/>
       <use xlink:href="#DejaVuSans-30" transform="translate(290.576172 0)"/>
       <use xlink:href="#DejaVuSans-37" transform="translate(354.199219 0)"/>
      </g>
     </g>
    </g>
    <g id="xtick_8">
     <g id="line2d_15">
      <path d="M 678.048622 320.4 
L 678.048622 43.2 
" clip-path="url(#p527841e00c)" style="fill: none; stroke-dasharray: 5.12,1.28,0.8,1.28; stroke-dashoffset: 0; stroke: #b0b0b0; stroke-width: 0.8"/>
     </g>
     <g id="line2d_16">
      <g>
       <use xlink:href="#m6fd221643d" x="678.048622" y="320.4" style="fill: #a9a9a9; stroke: #a9a9a9; stroke-width: 0.8"/>
      </g>
     </g>
     <g id="text_8">
      <!-- 2025-01 -->
      <g style="fill: #a9a9a9" transform="translate(657.157215 334.998438) scale(0.1 -0.1)">
       <defs>
        <path id="DejaVuSans-35" d="M 691 4666 
L 3169 4666 
L 3169 4134 
L 1269 4134 
L 1269 2991 
Q 1406 3038 1543 3061 
Q 1681 3084 1819 3084 
Q 2600 3084 3056 2656 
Q 3513 2228 3513 1497 
Q 3513 744 3044 326 
Q 2575 -91 1722 -91 
Q 1428 -91 1123 -41 
Q 819 9 494 109 
L 494 744 
Q 775 591 1075 516 
Q 1375 441 1709 441 
Q 2250 441 2565 725 
Q 2881 1009 2881 1497 
Q 2881 1984 2565 2268 
Q 2250 2553 1709 2553 
Q 1456 2553 1204 2497 
Q 953 2441 691 2322 
L 691 4666 
z
" transform="scale(0.015625)"/>
       </defs>
       <use xlink:href="#DejaVuSans-32"/>
       <use xlink:href="#DejaVuSans-30" transform="translate(63.623047 0)"/>
       <use xlink:href="#DejaVuSans-32" transform="translate(127.246094 0)"/>
       <use xlink:href="#DejaVuSans-35" transform="translate(190.869141 0)"/>
       <use xlink:href="#DejaVuSans-2d" transform="translate(254.492188 0)"/>
       <use xlink:href="#DejaVuSans-30" transform="translate(290.576172 0)"/>
       <use xlink:href="#DejaVuSans-31" transform="translate(354.199219 0)"/>
      </g>
     </g>
    </g>
    <g id="xtick_9">
     <g id="line2d_17">
      <path d="M 755.749352 320.4 
L 755.749352 43.2 
" clip-path="url(#p527841e00c)" style="fill: none; stroke-dasharray: 5.12,1.28,0.8,1.28; stroke-dashoffset: 0; stroke: #b0b0b0; stroke-width: 0.8"/>
     </g>
     <g id="line2d_18">
      <g>
       <use xlink:href="#m6fd221643d" x="755.749352" y="320.4" style="fill: #a9a9a9; stroke: #a9a9a9; stroke-width: 0.8"/>
      </g>
     </g>
     <g id="text_9">
      <!-- 2025-07 -->
      <g style="fill: #a9a9a9" transform="translate(734.857946 334.998438) scale(0.1 -0.1)">
       <use xlink:href="#DejaVuSans-32"/>
       <use xlink:href="#DejaVuSans-30" transform="translate(63.623047 0)"/>
       <use xlink:href="#DejaVuSans-32" transform="translate(127.246094 0)"/>
       <use xlink:href="#DejaVuSans-35" transform="translate(190.869141 0)"/>
       <use xlink:href="#DejaVuSans-2d" transform="translate(254.492188 0)"/>
       <use xlink:href="#DejaVuSans-30" transform="translate(290.576172 0)"/>
       <use xlink:href="#DejaVuSans-37" transform="translate(354.199219 0)"/>
      </g>
     </g>
    </g>
   </g>
   <g id="matplotlib.axis_2">
    <g id="ytick_1">
     <g id="line2d_19">
      <path d="M 108 307.832621 
L 777.6 307.832621 
" clip-path="url(#p527841e00c)" style="fill: none; stroke-dasharray: 5.12,1.28,0.8,1.28; stroke-dashoffset: 0; stroke: #b0b0b0; stroke-width: 0.8"/>
     </g>
     <g id="line2d_20">
      <defs>
       <path id="mc4084a3a4a" d="M 0 0 
L -3.5 0 
" style="stroke: #a9a9a9; stroke-width: 0.8"/>
      </defs>
      <g>
       <use xlink:href="#mc4084a3a4a" x="108" y="307.832621" style="fill: #a9a9a9; stroke: #a9a9a9; stroke-width: 0.8"/>
      </g>
     </g>
     <g id="text_10">
      <!-- 0 -->
      <g style="fill: #a9a9a9" transform="translate(94.6375 311.63184) scale(0.1 -0.1)">
       <use xlink:href="#DejaVuSans-30"/>
      </g>
     </g>
    </g>
    <g id="ytick_2">
     <g id="line2d_21">
      <path d="M 108 275.211262 
L 777.6 275.211262 
" clip-path="url(#p527841e00c)" style="fill: none; stroke-dasharray: 5.12,1.28,0.8,1.28; stroke-dashoffset: 0; stroke: #b0b0b0; stroke-width: 0.8"/>
     </g>
     <g id="line2d_22">
      <g>
       <use xlink:href="#mc4084a3a4a" x="108" y="275.211262" style="fill: #a9a9a9; stroke: #a9a9a9; stroke-width: 0.8"/>
      </g>
     </g>
     <g id="text_11">
      <!-- 1000 -->
      <g style="fill: #a9a9a9" transform="translate(75.55 279.010481) scale(0.1 -0.1)">
       <use xlink:href="#DejaVuSans-31"/>
       <use xlink:href="#DejaVuSans-30" transform="translate(63.623047 0)"/>
       <use xlink:href="#DejaVuSans-30" transform="translate(127.246094 0)"/>
       <use xlink:href="#DejaVuSans-30" transform="translate(190.869141 0)"/>
      </g>
     </g>
    </g>
    <g id="ytick_3">
     <g id="line2d_23">
      <path d="M 108 242.589903 
L 777.6 242.589903 
" clip-path="url(#p527841e00c)" style="fill: none; stroke-dasharray: 5.12,1.28,0.8,1.28; stroke-dashoffset: 0; stroke: #b0b0b0; stroke-width: 0.8"/>
     </g>
     <g id="line2d_24">
      <g>
       <use xlink:href="#mc4084a3a4a" x="108" y="242.589903" style="fill: #a9a9a9; stroke: #a9a9a9; stroke-width: 0.8"/>
      </g>
     </g>
     <g id="text_12">
      <!-- 2000 -->
      <g style="fill: #a9a9a9" transform="translate(75.55 246.389122) scale(0.1 -0.1)">
       <use xlink:href="#DejaVuSans-32"/>
       <use xlink:href="#DejaVuSans-30" transform="translate(63.623047 0)"/>
       <use xlink:href="#DejaVuSans-30" transform="translate(127.246094 0)"/>
       <use xlink:href="#DejaVuSans-30" transform="translate(190.869141 0)"/>
      </g>
     </g>
    </g>
    <g id="ytick_4">
     <g id="line2d_25">
      <path d="M 108 209.968544 
L 777.6 209.968544 
" clip-path="url(#p527841e00c)" style="fill: none; stroke-dasharray: 5.12,1.28,0.8,1.28; stroke-dashoffset: 0; stroke: #b0b0b0; stroke-width: 0.8"/>
     </g>
     <g id="line2d_26">
      <g>
       <use xlink:href="#mc4084a3a4a" x="108" y="209.968544" style="fill: #a9a9a9; stroke: #a9a9a9; stroke-width: 0.8"/>
      </g>
     </g>
     <g id="text_13">
      <!-- 3000 -->
      <g style="fill: #a9a9a9" transform="translate(75.55 213.767762) scale(0.1 -0.1)">
       <use xlink:href="#DejaVuSans-33"/>
       <use xlink:href="#DejaVuSans-30" transform="translate(63.623047 0)"/>
       <use xlink:href="#DejaVuSans-30" transform="translate(127.246094 0)"/>
       <use xlink:href="#DejaVuSans-30" transform="translate(190.869141 0)"/>
      </g>
     </g>
    </g>
    <g id="ytick_5">
     <g id="line2d_27">
      <path d="M 108 177.347184 
L 777.6 177.347184 
" clip-path="url(#p527841e00c)" style="fill: none; stroke-dasharray: 5.12,1.28,0.8,1.28; stroke-dashoffset: 0; stroke: #b0b0b0; stroke-width: 0.8"/>
     </g>
     <g id="line2d_28">
      <g>
       <use xlink:href="#mc4084a3a4a" x="108" y="177.347184" style="fill: #a9a9a9; stroke: #a9a9a9; stroke-width: 0.8"/>
      </g>
     </g>
     <g id="text_14">
      <!-- 4000 -->
      <g style="fill: #a9a9a9" transform="translate(75.55 181.146403) scale(0.1 -0.1)">
       <use xlink:href="#DejaVuSans-34"/>
       <use xlink:href="#DejaVuSans-30" transform="translate(63.623047 0)"/>
       <use xlink:href="#DejaVuSans-30" transform="translate(127.246094 0)"/>
       <use xlink:href="#DejaVuSans-30" transform="translate(190.869141 0)"/>
      </g>
     </g>
    </g>
    <g id="ytick_6">
     <g id="line2d_29">
      <path d="M 108 144.725825 
L 777.6 144.725825 
" clip-path="url(#p527841e00c)" style="fill: none; stroke-dasharray: 5.12,1.28,0.8,1.28; stroke-dashoffset: 0; stroke: #b0b0b0; stroke-width: 0.8"/>
     </g>
     <g id="line2d_30">
      <g>
       <use xlink:href="#mc4084a3a4a" x="108" y="144.725825" style="fill: #a9a9a9; stroke: #a9a9a9; stroke-width: 0.8"/>
      </g>
     </g>
     <g id="text_15">
      <!-- 5000 -->
      <g style="fill: #a9a9a9" transform="translate(75.55 148.525044) scale(0.1 -0.1)">
       <use xlink:href="#DejaVuSans-35"/>
       <use xlink:href="#DejaVuSans-30" transform="translate(63.623047 0)"/>
       <use xlink:href="#DejaVuSans-30" transform="translate(127.246094 0)"/>
       <use xlink:href="#DejaVuSans-30" transform="translate(190.869141 0)"/>
      </g>
     </g>
    </g>
    <g id="ytick_7">
     <g id="line2d_31">
      <path d="M 108 112.104466 
L 777.6 112.104466 
" clip-path="url(#p527841e00c)" style="fill: none; stroke-dasharray: 5.12,1.28,0.8,1.28; stroke-dashoffset: 0; stroke: #b0b0b0; stroke-width: 0.8"/>
     </g>
     <g id="line2d_32">
      <g>
       <use xlink:href="#mc4084a3a4a" x="108" y="112.104466" style="fill: #a9a9a9; stroke: #a9a9a9; stroke-width: 0.8"/>
      </g>
     </g>
     <g id="text_16">
      <!-- 6000 -->
      <g style="fill: #a9a9a9" transform="translate(75.55 115.903685) scale(0.1 -0.1)">
       <defs>
        <path id="DejaVuSans-36" d="M 2113 2584 
Q 1688 2584 1439 2293 
Q 1191 2003 1191 1497 
Q 1191 994 1439 701 
Q 1688 409 2113 409 
Q 2538 409 2786 701 
Q 3034 994 3034 1497 
Q 3034 2003 2786 2293 
Q 2538 2584 2113 2584 
z
M 3366 4563 
L 3366 3988 
Q 3128 4100 2886 4159 
Q 2644 4219 2406 4219 
Q 1781 4219 1451 3797 
Q 1122 3375 1075 2522 
Q 1259 2794 1537 2939 
Q 1816 3084 2150 3084 
Q 2853 3084 3261 2657 
Q 3669 2231 3669 1497 
Q 3669 778 3244 343 
Q 2819 -91 2113 -91 
Q 1303 -91 875 529 
Q 447 1150 447 2328 
Q 447 3434 972 4092 
Q 1497 4750 2381 4750 
Q 2619 4750 2861 4703 
Q 3103 4656 3366 4563 
z
" transform="scale(0.015625)"/>
       </defs>
       <use xlink:href="#DejaVuSans-36"/>
       <use xlink:href="#DejaVuSans-30" transform="translate(63.623047 0)"/>
       <use xlink:href="#DejaVuSans-30" transform="translate(127.246094 0)"/>
       <use xlink:href="#DejaVuSans-30" transform="translate(190.869141 0)"/>
      </g>
     </g>
    </g>
    <g id="ytick_8">
     <g id="line2d_33">
      <path d="M 108 79.483107 
L 777.6 79.483107 
" clip-path="url(#p527841e00c)" style="fill: none; stroke-dasharray: 5.12,1.28,0.8,1.28; stroke-dashoffset: 0; stroke: #b0b0b0; stroke-width: 0.8"/>
     </g>
     <g id="line2d_34">
      <g>
       <use xlink:href="#mc4084a3a4a" x="108" y="79.483107" style="fill: #a9a9a9; stroke: #a9a9a9; stroke-width: 0.8"/>
      </g>
     </g>
     <g id="text_17">
      <!-- 7000 -->
      <g style="fill: #a9a9a9" transform="translate(75.55 83.282326) scale(0.1 -0.1)">
       <use xlink:href="#DejaVuSans-37"/>
       <use xlink:href="#DejaVuSans-30" transform="translate(63.623047 0)"/>
       <use xlink:href="#DejaVuSans-30" transform="translate(127.246094 0)"/>
       <use xlink:href="#DejaVuSans-30" transform="translate(190.869141 0)"/>
      </g>
     </g>
    </g>
    <g id="ytick_9">
     <g id="line2d_35">
      <path d="M 108 46.861748 
L 777.6 46.861748 
" clip-path="url(#p527841e00c)" style="fill: none; stroke-dasharray: 5.12,1.28,0.8,1.28; stroke-dashoffset: 0; stroke: #b0b0b0; stroke-width: 0.8"/>
     </g>
     <g id="line2d_36">
      <g>
       <use xlink:href="#mc4084a3a4a" x="108" y="46.861748" style="fill: #a9a9a9; stroke: #a9a9a9; stroke-width: 0.8"/>
      </g>
     </g>
     <g id="text_18">
      <!-- 8000 -->
      <g style="fill: #a9a9a9" transform="translate(75.55 50.660966) scale(0.1 -0.1)">
       <defs>
        <path id="DejaVuSans-38" d="M 2034 2216 
Q 1584 2216 1326 1975 
Q 1069 1734 1069 1313 
Q 1069 891 1326 650 
Q 1584 409 2034 409 
Q 2484 409 2743 651 
Q 3003 894 3003 1313 
Q 3003 1734 2745 1975 
Q 2488 2216 2034 2216 
z
M 1403 2484 
Q 997 2584 770 2862 
Q 544 3141 544 3541 
Q 544 4100 942 4425 
Q 1341 4750 2034 4750 
Q 2731 4750 3128 4425 
Q 3525 4100 3525 3541 
Q 3525 3141 3298 2862 
Q 3072 2584 2669 2484 
Q 3125 2378 3379 2068 
Q 3634 1759 3634 1313 
Q 3634 634 3220 271 
Q 2806 -91 2034 -91 
Q 1263 -91 848 271 
Q 434 634 434 1313 
Q 434 1759 690 2068 
Q 947 2378 1403 2484 
z
M 1172 3481 
Q 1172 3119 1398 2916 
Q 1625 2713 2034 2713 
Q 2441 2713 2670 2916 
Q 2900 3119 2900 3481 
Q 2900 3844 2670 4047 
Q 2441 4250 2034 4250 
Q 1625 4250 1398 4047 
Q 1172 3844 1172 3481 
z
" transform="scale(0.015625)"/>
       </defs>
       <use xlink:href="#DejaVuSans-38"/>
       <use xlink:href="#DejaVuSans-30" transform="translate(63.623047 0)"/>
       <use xlink:href="#DejaVuSans-30" transform="translate(127.246094 0)"/>
       <use xlink:href="#DejaVuSans-30" transform="translate(190.869141 0)"/>
      </g>
     </g>
    </g>
   </g>
   <g id="line2d_37">
    <path d="M 138.436364 307.734757 
L 141.012078 307.506408 
L 141.441364 307.31068 
L 143.158508 307.08233 
L 144.875651 306.723495 
L 145.734222 306.59301 
L 147.880651 306.397282 
L 148.739223 306.038447 
L 149.168509 305.451262 
L 149.597795 305.15767 
L 150.02708 304.179029 
L 150.456366 304.113786 
L 150.885652 303.754951 
L 151.744224 303.298252 
L 153.461367 301.862913 
L 155.17851 300.982136 
L 156.466367 300.36233 
L 156.895653 299.64466 
L 157.754225 298.992233 
L 158.183511 298.796505 
L 162.476369 298.144078 
L 162.905655 297.94835 
L 165.910655 297.687379 
L 167.627798 297.263301 
L 171.062085 296.773981 
L 171.491371 296.545631 
L 171.920656 296.480388 
L 172.779228 296.186796 
L 175.784229 295.664854 
L 176.6428 295.403883 
L 180.506373 294.751456 
L 181.364944 294.555728 
L 182.223516 294.523107 
L 183.940659 294.099029 
L 184.369945 293.479223 
L 185.657802 292.957282 
L 186.94566 292.598447 
L 187.374946 292.370097 
L 188.233517 292.20699 
L 189.95066 291.685049 
L 190.809232 291.619806 
L 191.667804 291.391456 
L 193.384947 290.934757 
L 193.814233 290.902136 
L 194.672804 290.478058 
L 195.10209 290.412816 
L 195.531376 290.184466 
L 200.25352 289.368932 
L 201.970663 288.84699 
L 202.399949 288.553398 
L 204.546378 287.835728 
L 205.404949 287.215922 
L 206.692807 286.954951 
L 216.137094 284.116893 
L 216.56638 284.084272 
L 217.854238 283.692816 
L 218.283524 283.692816 
L 218.712809 283.497087 
L 219.571381 283.399223 
L 220.000667 283.236117 
L 221.71781 283.170874 
L 222.576382 283.007767 
L 223.434953 282.551068 
L 224.722811 282.061748 
L 225.581382 281.605049 
L 226.439954 281.14835 
L 227.298525 280.854757 
L 227.727811 280.724272 
L 228.586383 280.169709 
L 229.015669 279.680388 
L 229.87424 278.310291 
L 230.303526 278.179806 
L 230.732812 278.179806 
L 232.020669 277.396893 
L 232.449955 277.168544 
L 232.879241 277.07068 
L 233.308527 276.646602 
L 234.167098 276.287767 
L 235.02567 275.896311 
L 237.172099 273.058252 
L 239.747814 271.622913 
L 240.606385 270.905243 
L 241.035671 270.644272 
L 241.464957 270.024466 
L 241.894243 269.013204 
L 242.323529 268.328155 
L 242.752814 267.96932 
L 243.1821 267.773592 
L 246.616387 264.511456 
L 247.474958 263.695922 
L 250.050673 262.032233 
L 250.479959 261.869126 
L 252.197102 260.825243 
L 252.626388 260.629515 
L 254.772817 258.60699 
L 255.631389 258.248155 
L 256.48996 257.62835 
L 256.919246 257.367379 
L 257.348532 257.302136 
L 258.636389 256.551845 
L 259.065675 256.062524 
L 261.212104 254.855534 
L 261.64139 254.692427 
L 262.929247 253.779029 
L 269.368534 251.430291 
L 270.227106 250.614757 
L 271.514963 249.96233 
L 272.373535 249.407767 
L 273.232107 249.146796 
L 273.661392 248.853204 
L 274.090678 248.722718 
L 275.378536 247.841942 
L 277.524965 247.352621 
L 278.812822 246.569709 
L 280.10068 246.276117 
L 280.529965 246.178252 
L 281.817823 245.16699 
L 283.534966 244.67767 
L 283.964252 244.318835 
L 286.539967 243.405437 
L 287.398538 243.24233 
L 288.25711 242.883495 
L 291.262111 241.741748 
L 292.120682 241.611262 
L 293.40854 241.154563 
L 295.554969 240.078058 
L 297.272112 239.099417 
L 300.706398 237.631456 
L 301.135684 237.566214 
L 301.994256 237.01165 
L 302.852827 236.783301 
L 304.140685 236.261359 
L 305.857828 236.03301 
L 306.7164 235.576311 
L 307.145685 235.184854 
L 307.574971 234.401942 
L 309.292114 233.912621 
L 310.579972 233.227573 
L 311.438543 232.933981 
L 312.297115 232.477282 
L 314.87283 231.400777 
L 315.731401 231.205049 
L 316.589973 230.74835 
L 317.019259 230.552621 
L 317.448545 230.487379 
L 319.594974 229.410874 
L 320.453545 228.856311 
L 321.741403 228.59534 
L 323.887832 228.040777 
L 324.317118 227.681942 
L 325.175689 227.38835 
L 327.322118 226.507573 
L 327.751404 226.181359 
L 328.18069 226.018252 
L 329.039261 225.528932 
L 330.756405 224.974369 
L 331.614976 224.419806 
L 332.044262 223.963107 
L 332.473548 223.702136 
L 332.902834 223.604272 
L 333.761405 222.886602 
L 334.190691 222.821359 
L 334.619977 222.103689 
L 335.049263 221.907961 
L 335.478549 221.549126 
L 335.907834 221.483883 
L 336.766406 220.92932 
L 337.624978 220.635728 
L 338.054263 220.309515 
L 338.483549 220.146408 
L 340.200692 218.972039 
L 341.48855 218.28699 
L 342.347121 218.058641 
L 343.205693 217.56932 
L 343.634979 216.819029 
L 344.49355 216.166602 
L 344.922836 216.068738 
L 347.498551 214.796505 
L 348.357123 214.43767 
L 349.215694 213.817864 
L 350.074266 212.937087 
L 353.937838 209.87068 
L 354.367124 209.511845 
L 355.225696 209.218252 
L 356.084267 208.631068 
L 357.372125 207.946019 
L 357.80141 207.880777 
L 359.089268 207.163107 
L 359.947839 206.608544 
L 364.240698 204.977476 
L 364.669983 204.618641 
L 366.387127 203.933592 
L 366.816412 203.803107 
L 367.674984 203.248544 
L 368.533556 202.889709 
L 369.392127 202.269903 
L 370.250699 200.50835 
L 371.10927 199.464466 
L 372.397128 198.779417 
L 373.255699 198.420583 
L 373.684985 198.35534 
L 374.114271 198.094369 
L 376.2607 197.376699 
L 376.689986 197.180971 
L 377.548558 196.593786 
L 378.836415 196.039223 
L 379.694987 195.549903 
L 380.553558 195.027961 
L 380.982844 194.734369 
L 381.41213 194.245049 
L 382.699987 193.494757 
L 383.129273 193.33165 
L 383.987845 192.809709 
L 385.704988 191.863689 
L 386.134274 191.765825 
L 386.563559 191.40699 
L 389.56856 190.395728 
L 389.997846 190.069515 
L 390.856417 189.808544 
L 391.714989 189.449709 
L 392.144275 189.090874 
L 393.861418 188.471068 
L 394.71999 187.851262 
L 395.578561 187.492427 
L 396.437133 186.807379 
L 397.295705 186.546408 
L 397.72499 186.154951 
L 398.154276 186.089709 
L 399.012848 185.40466 
L 399.871419 184.947961 
L 400.300705 184.752233 
L 400.729991 184.295534 
L 403.734992 183.055922 
L 404.593563 182.664466 
L 405.881421 182.240388 
L 406.739992 182.109903 
L 407.169278 181.914175 
L 407.598564 181.848932 
L 408.457136 181.457476 
L 408.886421 181.424854 
L 410.603565 180.772427 
L 411.891422 179.826408 
L 412.320708 179.663301 
L 413.179279 179.173981 
L 413.608565 179.043495 
L 416.18428 177.575534 
L 416.613566 177.47767 
L 417.901423 176.694757 
L 419.189281 176.238058 
L 420.047852 175.944466 
L 421.764996 175.357282 
L 422.623567 175.063689 
L 424.34071 174.704854 
L 424.769996 174.509126 
L 425.628568 174.280777 
L 426.057854 174.085049 
L 426.487139 174.019806 
L 426.916425 173.791456 
L 427.774997 173.62835 
L 429.062854 173.139029 
L 429.921426 173.041165 
L 431.209283 172.747573 
L 433.355712 172.356117 
L 444.517143 168.963495 
L 444.946429 168.506796 
L 447.522144 167.430291 
L 449.239287 166.843107 
L 449.668573 166.582136 
L 450.95643 166.19068 
L 451.815002 165.96233 
L 452.244288 165.668738 
L 452.673574 165.570874 
L 453.102859 165.179417 
L 454.390717 164.918447 
L 455.249288 164.494369 
L 455.678574 163.972427 
L 460.400718 162.928544 
L 460.830004 162.928544 
L 461.25929 162.732816 
L 462.976433 162.406602 
L 463.405719 162.210874 
L 465.122862 161.88466 
L 465.981434 161.525825 
L 466.840005 161.362718 
L 468.986434 160.808155 
L 470.703577 160.253592 
L 471.132863 160.155728 
L 471.562149 159.927379 
L 472.420721 159.699029 
L 473.279292 159.340194 
L 474.137864 159.013981 
L 474.56715 158.720388 
L 475.425721 158.459417 
L 478.430722 157.31767 
L 480.147865 157.08932 
L 483.582152 155.817087 
L 484.011437 155.490874 
L 484.440723 155.39301 
L 484.870009 155.16466 
L 485.299295 155.132039 
L 490.021439 153.403107 
L 492.167868 152.815922 
L 493.026439 152.391845 
L 494.314297 152.098252 
L 496.03144 150.662913 
L 497.748583 149.912621 
L 498.607155 149.521165 
L 501.18287 148.509903 
L 501.612155 148.216311 
L 503.758584 147.498641 
L 505.046442 146.74835 
L 505.475728 146.650485 
L 507.192871 145.671845 
L 508.910014 144.888932 
L 509.3393 144.562718 
L 510.197872 144.269126 
L 512.344301 143.16 
L 513.632158 142.703301 
L 515.349301 141.985631 
L 516.637159 141.496311 
L 517.066444 141.333204 
L 517.925016 141.202718 
L 518.354302 140.909126 
L 520.071445 140.582913 
L 520.930017 140.224078 
L 522.64716 139.408544 
L 528.657161 136.733592 
L 529.945019 136.309515 
L 530.374304 136.015922 
L 531.232876 135.918058 
L 531.662162 135.624466 
L 532.520733 135.461359 
L 533.379305 135.037282 
L 533.808591 134.841553 
L 534.667162 134.613204 
L 535.525734 134.352233 
L 536.813591 133.862913 
L 538.101449 133.438835 
L 539.389306 133.145243 
L 541.10645 132.427573 
L 541.965021 131.938252 
L 543.682164 131.057476 
L 544.540736 130.861748 
L 544.970022 130.600777 
L 545.399308 130.502913 
L 546.687165 129.752621 
L 547.545737 129.393786 
L 556.990024 125.740194 
L 558.707168 124.92466 
L 563.000026 123.22835 
L 563.858597 122.804272 
L 564.287883 122.706408 
L 564.717169 122.478058 
L 566.434312 121.988738 
L 568.151455 120.553398 
L 568.580741 120.422913 
L 569.010027 120.161942 
L 570.297884 119.803107 
L 570.72717 119.476893 
L 571.156456 119.379029 
L 572.444313 118.596117 
L 572.873599 118.302524 
L 574.161457 117.813204 
L 574.590742 117.584854 
L 575.8786 117.291262 
L 578.025029 116.540971 
L 578.8836 116.28 
L 580.171458 115.627573 
L 581.030029 115.203495 
L 581.888601 114.975146 
L 583.176459 114.35534 
L 587.040031 112.887379 
L 588.327888 112.071845 
L 588.757174 111.973981 
L 589.615746 111.549903 
L 590.474317 111.223689 
L 590.903603 110.832233 
L 591.762175 110.473398 
L 593.050032 110.016699 
L 593.479318 109.657864 
L 593.908604 109.625243 
L 594.767175 109.364272 
L 595.625747 109.07068 
L 596.055033 108.874951 
L 596.484319 108.809709 
L 597.34289 108.450874 
L 598.630748 108.157282 
L 599.489319 107.667961 
L 599.918605 107.504854 
L 600.347891 107.178641 
L 601.635748 106.852427 
L 602.065034 106.591456 
L 602.923606 106.363107 
L 604.211463 105.612816 
L 604.640749 105.580194 
L 605.928606 105.156117 
L 606.787178 105.090874 
L 607.216464 104.862524 
L 608.075035 104.634175 
L 608.504321 104.405825 
L 610.65075 103.981748 
L 611.509322 103.818641 
L 612.797179 103.32932 
L 614.085037 103.035728 
L 615.372894 102.35068 
L 615.80218 101.959223 
L 617.090037 101.176311 
L 617.519323 100.850097 
L 618.80718 100.426019 
L 619.665752 100.19767 
L 623.95861 98.338252 
L 626.105039 97.587961 
L 626.534325 97.359612 
L 627.392897 97.098641 
L 627.822182 96.83767 
L 628.680754 96.674563 
L 632.11504 95.173981 
L 632.544326 95.108738 
L 633.832184 94.260583 
L 634.261469 94.19534 
L 635.978613 93.510291 
L 637.695756 93.086214 
L 638.125042 93.020971 
L 638.554327 92.825243 
L 638.983613 92.792621 
L 639.842185 92.499029 
L 640.271471 92.466408 
L 641.559328 91.977087 
L 643.276471 91.487767 
L 644.135043 90.83534 
L 645.852186 89.856699 
L 646.281472 89.758835 
L 646.710758 89.530485 
L 647.569329 89.236893 
L 647.998615 89.106408 
L 648.427901 88.747573 
L 649.715758 88.258252 
L 650.57433 87.768932 
L 651.003616 87.540583 
L 651.432902 87.149126 
L 653.579331 86.561942 
L 654.867188 85.974757 
L 655.72576 85.746408 
L 656.155046 85.518058 
L 656.584331 85.159223 
L 658.301475 84.702524 
L 658.73076 84.376311 
L 664.311476 82.321165 
L 665.170047 82.158058 
L 667.316476 81.47301 
L 668.175048 81.114175 
L 669.03362 80.787961 
L 669.892191 80.559612 
L 670.321477 80.363883 
L 670.750763 80.363883 
L 671.609335 80.005049 
L 672.467906 79.483107 
L 675.472907 78.471845 
L 677.19005 77.88466 
L 678.477907 77.591068 
L 679.765765 77.16699 
L 680.195051 77.069126 
L 680.624336 76.775534 
L 681.482908 76.579806 
L 683.200051 76.090485 
L 683.629337 76.057864 
L 684.487909 75.666408 
L 687.492909 74.916117 
L 688.351481 74.557282 
L 692.644339 73.578641 
L 693.932196 72.893592 
L 695.220054 72.502136 
L 699.512912 70.903689 
L 699.942198 70.577476 
L 701.230055 70.283883 
L 702.088627 70.022913 
L 702.947198 69.598835 
L 703.376484 69.24 
L 704.235056 68.979029 
L 704.664342 68.718058 
L 705.522913 68.620194 
L 708.527914 67.772039 
L 709.815771 67.511068 
L 711.103629 67.184854 
L 711.9622 66.956505 
L 713.250058 66.271456 
L 714.967201 65.619029 
L 715.825773 65.16233 
L 716.255058 65.129709 
L 717.11363 64.705631 
L 720.118631 63.857476 
L 721.406488 63.661748 
L 722.26506 63.368155 
L 723.552917 62.976699 
L 727.416489 61.900194 
L 728.275061 61.671845 
L 728.704347 61.573981 
L 729.133633 61.31301 
L 729.992204 61.149903 
L 730.850776 61.052039 
L 731.280062 60.823689 
L 731.709347 60.791068 
L 732.567919 60.236505 
L 734.285062 59.845049 
L 735.143634 59.453592 
L 736.002205 59.16 
L 736.860777 58.93165 
L 737.719349 58.540194 
L 738.57792 58.246602 
L 740.295063 57.757282 
L 741.153635 57.692039 
L 742.012207 57.398447 
L 742.870778 57.170097 
L 743.72935 56.876505 
L 746.734351 55.8 
L 747.163636 55.8 
L 747.163636 55.8 
" clip-path="url(#p527841e00c)" style="fill: none; stroke: #1f77b4; stroke-width: 1.5; stroke-linecap: square"/>
   </g>
   <g id="line2d_38">
    <path d="M 138.865649 307.8 
L 142.729222 307.702136 
L 146.163508 307.539029 
L 147.880651 307.539029 
L 148.309937 307.408544 
L 150.456366 307.31068 
L 153.032081 307.017087 
L 155.607796 306.919223 
L 156.466367 306.821359 
L 159.471368 306.690874 
L 162.476369 306.59301 
L 164.622798 306.527767 
L 170.203513 306.429903 
L 172.349942 306.36466 
L 176.213515 306.266796 
L 177.930658 306.234175 
L 182.223516 306.136311 
L 183.940659 305.973204 
L 185.657802 305.940583 
L 188.233517 305.842718 
L 189.95066 305.810097 
L 192.097089 305.744854 
L 193.814233 305.581748 
L 197.677805 305.483883 
L 198.536376 305.418641 
L 200.25352 305.320777 
L 202.829235 305.222913 
L 204.546378 305.125049 
L 212.273522 304.635728 
L 215.278523 304.537864 
L 216.56638 304.407379 
L 218.712809 304.309515 
L 223.005667 304.081165 
L 227.298525 304.015922 
L 229.015669 303.820194 
L 230.732812 303.72233 
L 235.454956 303.265631 
L 238.459956 302.906796 
L 239.747814 302.841553 
L 243.1821 302.384854 
L 245.757815 302.319612 
L 247.045673 302.189126 
L 248.33353 302.091262 
L 260.353533 301.145243 
L 261.212104 300.982136 
L 263.787819 300.884272 
L 270.656392 300.460194 
L 273.661392 300.36233 
L 275.378536 300.166602 
L 277.524965 300.068738 
L 280.10068 299.970874 
L 282.247109 299.87301 
L 283.964252 299.840388 
L 286.110681 299.775146 
L 286.969252 299.64466 
L 292.979254 299.546796 
L 293.837825 299.448932 
L 298.989255 299.351068 
L 302.852827 299.15534 
L 305.857828 299.057476 
L 307.574971 298.861748 
L 310.579972 298.763883 
L 311.438543 298.633398 
L 313.584972 298.568155 
L 317.87783 298.502913 
L 319.594974 298.339806 
L 321.312117 298.307184 
L 322.599974 298.20932 
L 324.317118 298.046214 
L 328.609976 297.817864 
L 332.902834 297.72 
L 336.766406 297.524272 
L 338.054263 297.49165 
L 338.912835 297.361165 
L 341.059264 297.263301 
L 341.917836 297.198058 
L 342.776407 297.132816 
L 343.634979 297.067573 
L 347.498551 297.00233 
L 348.786409 296.904466 
L 360.377125 296.121553 
L 362.523554 296.023689 
L 364.669983 295.958447 
L 370.679985 295.860583 
L 371.538556 295.730097 
L 377.548558 295.632233 
L 381.841416 295.403883 
L 382.699987 295.371262 
L 383.558559 295.273398 
L 385.704988 295.175534 
L 387.851417 295.110291 
L 389.997846 295.012427 
L 392.144275 294.947184 
L 396.007847 294.84932 
L 398.583562 294.751456 
L 404.593563 294.653592 
L 409.315707 294.392621 
L 411.03285 294.327379 
L 412.320708 294.229515 
L 418.330709 294.13165 
L 420.906424 294.033786 
L 428.633568 293.935922 
L 430.350712 293.903301 
L 435.502141 293.838058 
L 436.360713 293.772816 
L 442.370714 293.674951 
L 444.087857 293.64233 
L 455.249288 293.544466 
L 457.825003 293.446602 
L 475.855007 293.348738 
L 478.001436 293.283495 
L 489.162867 293.218252 
L 490.021439 293.15301 
L 492.167868 293.087767 
L 493.455725 292.957282 
L 496.03144 292.859417 
L 499.036441 292.728932 
L 502.900013 292.631068 
L 505.046442 292.565825 
L 508.051442 292.467961 
L 511.485729 292.304854 
L 513.632158 292.20699 
L 515.349301 292.174369 
L 519.212873 292.076505 
L 520.930017 292.043883 
L 526.510732 291.946019 
L 528.227875 291.913398 
L 530.374304 291.815534 
L 532.950019 291.71767 
L 535.95502 291.652427 
L 536.813591 291.587184 
L 547.116451 291.48932 
L 551.409309 291.260971 
L 554.41431 291.163107 
L 559.136453 290.902136 
L 562.141454 290.804272 
L 563.858597 290.77165 
L 566.863598 290.673786 
L 569.010027 290.445437 
L 573.302885 290.347573 
L 574.161457 290.249709 
L 578.454315 290.151845 
L 580.600744 290.086602 
L 585.322888 290.053981 
L 586.181459 289.956117 
L 590.903603 289.858252 
L 591.762175 289.79301 
L 601.206462 289.695146 
L 603.782177 289.597282 
L 610.221464 289.499417 
L 611.938608 289.466796 
L 615.80218 289.401553 
L 616.660751 289.303689 
L 622.241467 289.205825 
L 624.387896 289.140583 
L 632.11504 289.042718 
L 633.402898 288.944854 
L 634.690755 288.84699 
L 635.978613 288.749126 
L 642.4179 288.651262 
L 644.993615 288.553398 
L 656.584331 288.455534 
L 660.447904 288.259806 
L 665.599333 288.161942 
L 666.457905 288.096699 
L 672.897192 288.031456 
L 673.755764 287.966214 
L 678.477907 287.86835 
L 680.195051 287.835728 
L 686.205052 287.737864 
L 688.780767 287.64 
L 696.078625 287.542136 
L 697.795769 287.509515 
L 701.659341 287.41165 
L 705.093627 287.248544 
L 709.815771 287.15068 
L 712.820772 287.020194 
L 716.684344 286.92233 
L 717.542916 286.857087 
L 726.128632 286.759223 
L 728.275061 286.693981 
L 730.850776 286.596117 
L 733.426491 286.498252 
L 746.305065 286.400388 
L 747.163636 286.367767 
L 747.163636 286.367767 
" clip-path="url(#p527841e00c)" style="fill: none; stroke: #ff7f0e; stroke-width: 1.5; stroke-linecap: square"/>
   </g>
   <g id="patch_3">
    <path d="M 108 320.4 
L 108 43.2 
" style="fill: none; stroke: #a9a9a9; stroke-width: 0.8; stroke-linejoin: miter; stroke-linecap: square"/>
   </g>
   <g id="patch_4">
    <path d="M 777.6 320.4 
L 777.6 43.2 
" style="fill: none"/>
   </g>
   <g id="patch_5">
    <path d="M 108 320.4 
L 777.6 320.4 
" style="fill: none; stroke: #a9a9a9; stroke-width: 0.8; stroke-linejoin: miter; stroke-linecap: square"/>
   </g>
   <g id="patch_6">
    <path d="M 108 43.2 
L 777.6 43.2 
" style="fill: none"/>
   </g>
   <g id="text_19">
    <!-- get_subscribe history -->
    <g style="fill: #a9a9a9" transform="translate(378.6075 37.2) scale(0.12 -0.12)">
     <defs>
      <path id="DejaVuSans-67" d="M 2906 1791 
Q 2906 2416 2648 2759 
Q 2391 3103 1925 3103 
Q 1463 3103 1205 2759 
Q 947 2416 947 1791 
Q 947 1169 1205 825 
Q 1463 481 1925 481 
Q 2391 481 2648 825 
Q 2906 1169 2906 1791 
z
M 3481 434 
Q 3481 -459 3084 -895 
Q 2688 -1331 1869 -1331 
Q 1566 -1331 1297 -1286 
Q 1028 -1241 775 -1147 
L 775 -588 
Q 1028 -725 1275 -790 
Q 1522 -856 1778 -856 
Q 2344 -856 2625 -561 
Q 2906 -266 2906 331 
L 2906 616 
Q 2728 306 2450 153 
Q 2172 0 1784 0 
Q 1141 0 747 490 
Q 353 981 353 1791 
Q 353 2603 747 3093 
Q 1141 3584 1784 3584 
Q 2172 3584 2450 3431 
Q 2728 3278 2906 2969 
L 2906 3500 
L 3481 3500 
L 3481 434 
z
" transform="scale(0.015625)"/>
      <path id="DejaVuSans-65" d="M 3597 1894 
L 3597 1613 
L 953 1613 
Q 991 1019 1311 708 
Q 1631 397 2203 397 
Q 2534 397 2845 478 
Q 3156 559 3463 722 
L 3463 178 
Q 3153 47 2828 -22 
Q 2503 -91 2169 -91 
Q 1331 -91 842 396 
Q 353 884 353 1716 
Q 353 2575 817 3079 
Q 1281 3584 2069 3584 
Q 2775 3584 3186 3129 
Q 3597 2675 3597 1894 
z
M 3022 2063 
Q 3016 2534 2758 2815 
Q 2500 3097 2075 3097 
Q 1594 3097 1305 2825 
Q 1016 2553 972 2059 
L 3022 2063 
z
" transform="scale(0.015625)"/>
      <path id="DejaVuSans-74" d="M 1172 4494 
L 1172 3500 
L 2356 3500 
L 2356 3053 
L 1172 3053 
L 1172 1153 
Q 1172 725 1289 603 
Q 1406 481 1766 481 
L 2356 481 
L 2356 0 
L 1766 0 
Q 1100 0 847 248 
Q 594 497 594 1153 
L 594 3053 
L 172 3053 
L 172 3500 
L 594 3500 
L 594 4494 
L 1172 4494 
z
" transform="scale(0.015625)"/>
      <path id="DejaVuSans-5f" d="M 3263 -1063 
L 3263 -1509 
L -63 -1509 
L -63 -1063 
L 3263 -1063 
z
" transform="scale(0.015625)"/>
      <path id="DejaVuSans-73" d="M 2834 3397 
L 2834 2853 
Q 2591 2978 2328 3040 
Q 2066 3103 1784 3103 
Q 1356 3103 1142 2972 
Q 928 2841 928 2578 
Q 928 2378 1081 2264 
Q 1234 2150 1697 2047 
L 1894 2003 
Q 2506 1872 2764 1633 
Q 3022 1394 3022 966 
Q 3022 478 2636 193 
Q 2250 -91 1575 -91 
Q 1294 -91 989 -36 
Q 684 19 347 128 
L 347 722 
Q 666 556 975 473 
Q 1284 391 1588 391 
Q 1994 391 2212 530 
Q 2431 669 2431 922 
Q 2431 1156 2273 1281 
Q 2116 1406 1581 1522 
L 1381 1569 
Q 847 1681 609 1914 
Q 372 2147 372 2553 
Q 372 3047 722 3315 
Q 1072 3584 1716 3584 
Q 2034 3584 2315 3537 
Q 2597 3491 2834 3397 
z
" transform="scale(0.015625)"/>
      <path id="DejaVuSans-75" d="M 544 1381 
L 544 3500 
L 1119 3500 
L 1119 1403 
Q 1119 906 1312 657 
Q 1506 409 1894 409 
Q 2359 409 2629 706 
Q 2900 1003 2900 1516 
L 2900 3500 
L 3475 3500 
L 3475 0 
L 2900 0 
L 2900 538 
Q 2691 219 2414 64 
Q 2138 -91 1772 -91 
Q 1169 -91 856 284 
Q 544 659 544 1381 
z
M 1991 3584 
L 1991 3584 
z
" transform="scale(0.015625)"/>
      <path id="DejaVuSans-62" d="M 3116 1747 
Q 3116 2381 2855 2742 
Q 2594 3103 2138 3103 
Q 1681 3103 1420 2742 
Q 1159 2381 1159 1747 
Q 1159 1113 1420 752 
Q 1681 391 2138 391 
Q 2594 391 2855 752 
Q 3116 1113 3116 1747 
z
M 1159 2969 
Q 1341 3281 1617 3432 
Q 1894 3584 2278 3584 
Q 2916 3584 3314 3078 
Q 3713 2572 3713 1747 
Q 3713 922 3314 415 
Q 2916 -91 2278 -91 
Q 1894 -91 1617 61 
Q 1341 213 1159 525 
L 1159 0 
L 581 0 
L 581 4863 
L 1159 4863 
L 1159 2969 
z
" transform="scale(0.015625)"/>
      <path id="DejaVuSans-63" d="M 3122 3366 
L 3122 2828 
Q 2878 2963 2633 3030 
Q 2388 3097 2138 3097 
Q 1578 3097 1268 2742 
Q 959 2388 959 1747 
Q 959 1106 1268 751 
Q 1578 397 2138 397 
Q 2388 397 2633 464 
Q 2878 531 3122 666 
L 3122 134 
Q 2881 22 2623 -34 
Q 2366 -91 2075 -91 
Q 1284 -91 818 406 
Q 353 903 353 1747 
Q 353 2603 823 3093 
Q 1294 3584 2113 3584 
Q 2378 3584 2631 3529 
Q 2884 3475 3122 3366 
z
" transform="scale(0.015625)"/>
      <path id="DejaVuSans-72" d="M 2631 2963 
Q 2534 3019 2420 3045 
Q 2306 3072 2169 3072 
Q 1681 3072 1420 2755 
Q 1159 2438 1159 1844 
L 1159 0 
L 581 0 
L 581 3500 
L 1159 3500 
L 1159 2956 
Q 1341 3275 1631 3429 
Q 1922 3584 2338 3584 
Q 2397 3584 2469 3576 
Q 2541 3569 2628 3553 
L 2631 2963 
z
" transform="scale(0.015625)"/>
      <path id="DejaVuSans-69" d="M 603 3500 
L 1178 3500 
L 1178 0 
L 603 0 
L 603 3500 
z
M 603 4863 
L 1178 4863 
L 1178 4134 
L 603 4134 
L 603 4863 
z
" transform="scale(0.015625)"/>
      <path id="DejaVuSans-20" transform="scale(0.015625)"/>
      <path id="DejaVuSans-68" d="M 3513 2113 
L 3513 0 
L 2938 0 
L 2938 2094 
Q 2938 2591 2744 2837 
Q 2550 3084 2163 3084 
Q 1697 3084 1428 2787 
Q 1159 2491 1159 1978 
L 1159 0 
L 581 0 
L 581 4863 
L 1159 4863 
L 1159 2956 
Q 1366 3272 1645 3428 
Q 1925 3584 2291 3584 
Q 2894 3584 3203 3211 
Q 3513 2838 3513 2113 
z
" transform="scale(0.015625)"/>
      <path id="DejaVuSans-6f" d="M 1959 3097 
Q 1497 3097 1228 2736 
Q 959 2375 959 1747 
Q 959 1119 1226 758 
Q 1494 397 1959 397 
Q 2419 397 2687 759 
Q 2956 1122 2956 1747 
Q 2956 2369 2687 2733 
Q 2419 3097 1959 3097 
z
M 1959 3584 
Q 2709 3584 3137 3096 
Q 3566 2609 3566 1747 
Q 3566 888 3137 398 
Q 2709 -91 1959 -91 
Q 1206 -91 779 398 
Q 353 888 353 1747 
Q 353 2609 779 3096 
Q 1206 3584 1959 3584 
z
" transform="scale(0.015625)"/>
      <path id="DejaVuSans-79" d="M 2059 -325 
Q 1816 -950 1584 -1140 
Q 1353 -1331 966 -1331 
L 506 -1331 
L 506 -850 
L 844 -850 
Q 1081 -850 1212 -737 
Q 1344 -625 1503 -206 
L 1606 56 
L 191 3500 
L 800 3500 
L 1894 763 
L 2988 3500 
L 3597 3500 
L 2059 -325 
z
" transform="scale(0.015625)"/>
     </defs>
     <use xlink:href="#DejaVuSans-67"/>
     <use xlink:href="#DejaVuSans-65" transform="translate(63.476562 0)"/>
     <use xlink:href="#DejaVuSans-74" transform="translate(125 0)"/>
     <use xlink:href="#DejaVuSans-5f" transform="translate(164.208984 0)"/>
     <use xlink:href="#DejaVuSans-73" transform="translate(214.208984 0)"/>
     <use xlink:href="#DejaVuSans-75" transform="translate(266.308594 0)"/>
     <use xlink:href="#DejaVuSans-62" transform="translate(329.6875 0)"/>
     <use xlink:href="#DejaVuSans-73" transform="translate(393.164062 0)"/>
     <use xlink:href="#DejaVuSans-63" transform="translate(445.263672 0)"/>
     <use xlink:href="#DejaVuSans-72" transform="translate(500.244141 0)"/>
     <use xlink:href="#DejaVuSans-69" transform="translate(541.357422 0)"/>
     <use xlink:href="#DejaVuSans-62" transform="translate(569.140625 0)"/>
     <use xlink:href="#DejaVuSans-65" transform="translate(632.617188 0)"/>
     <use xlink:href="#DejaVuSans-20" transform="translate(694.140625 0)"/>
     <use xlink:href="#DejaVuSans-68" transform="translate(725.927734 0)"/>
     <use xlink:href="#DejaVuSans-69" transform="translate(789.306641 0)"/>
     <use xlink:href="#DejaVuSans-73" transform="translate(817.089844 0)"/>
     <use xlink:href="#DejaVuSans-74" transform="translate(869.189453 0)"/>
     <use xlink:href="#DejaVuSans-6f" transform="translate(908.398438 0)"/>
     <use xlink:href="#DejaVuSans-72" transform="translate(969.580078 0)"/>
     <use xlink:href="#DejaVuSans-79" transform="translate(1010.693359 0)"/>
    </g>
   </g>
   <g id="legend_1">
    <g id="line2d_39">
     <path d="M 815.08 328.498438 
L 825.08 328.498438 
L 835.08 328.498438 
" style="fill: none; stroke: #1f77b4; stroke-width: 1.5; stroke-linecap: square"/>
    </g>
    <g id="text_20">
     <!-- star -->
     <g style="fill: #a9a9a9" transform="translate(843.08 331.998438) scale(0.1 -0.1)">
      <defs>
       <path id="DejaVuSans-61" d="M 2194 1759 
Q 1497 1759 1228 1600 
Q 959 1441 959 1056 
Q 959 750 1161 570 
Q 1363 391 1709 391 
Q 2188 391 2477 730 
Q 2766 1069 2766 1631 
L 2766 1759 
L 2194 1759 
z
M 3341 1997 
L 3341 0 
L 2766 0 
L 2766 531 
Q 2569 213 2275 61 
Q 1981 -91 1556 -91 
Q 1019 -91 701 211 
Q 384 513 384 1019 
Q 384 1609 779 1909 
Q 1175 2209 1959 2209 
L 2766 2209 
L 2766 2266 
Q 2766 2663 2505 2880 
Q 2244 3097 1772 3097 
Q 1472 3097 1187 3025 
Q 903 2953 641 2809 
L 641 3341 
Q 956 3463 1253 3523 
Q 1550 3584 1831 3584 
Q 2591 3584 2966 3190 
Q 3341 2797 3341 1997 
z
" transform="scale(0.015625)"/>
      </defs>
      <use xlink:href="#DejaVuSans-73"/>
      <use xlink:href="#DejaVuSans-74" transform="translate(52.099609 0)"/>
      <use xlink:href="#DejaVuSans-61" transform="translate(91.308594 0)"/>
      <use xlink:href="#DejaVuSans-72" transform="translate(152.587891 0)"/>
     </g>
    </g>
    <g id="line2d_40">
     <path d="M 815.08 343.176562 
L 825.08 343.176562 
L 835.08 343.176562 
" style="fill: none; stroke: #ff7f0e; stroke-width: 1.5; stroke-linecap: square"/>
    </g>
    <g id="text_21">
     <!-- fork -->
     <g style="fill: #a9a9a9" transform="translate(843.08 346.676562) scale(0.1 -0.1)">
      <defs>
       <path id="DejaVuSans-66" d="M 2375 4863 
L 2375 4384 
L 1825 4384 
Q 1516 4384 1395 4259 
Q 1275 4134 1275 3809 
L 1275 3500 
L 2222 3500 
L 2222 3053 
L 1275 3053 
L 1275 0 
L 697 0 
L 697 3053 
L 147 3053 
L 147 3500 
L 697 3500 
L 697 3744 
Q 697 4328 969 4595 
Q 1241 4863 1831 4863 
L 2375 4863 
z
" transform="scale(0.015625)"/>
       <path id="DejaVuSans-6b" d="M 581 4863 
L 1159 4863 
L 1159 1991 
L 2875 3500 
L 3609 3500 
L 1753 1863 
L 3688 0 
L 2938 0 
L 1159 1709 
L 1159 0 
L 581 0 
L 581 4863 
z
" transform="scale(0.015625)"/>
      </defs>
      <use xlink:href="#DejaVuSans-66"/>
      <use xlink:href="#DejaVuSans-6f" transform="translate(35.205078 0)"/>
      <use xlink:href="#DejaVuSans-72" transform="translate(96.386719 0)"/>
      <use xlink:href="#DejaVuSans-6b" transform="translate(137.5 0)"/>
     </g>
    </g>
   </g>
  </g>
 </g>
 <defs>
  <clipPath id="p527841e00c">
   <rect x="108" y="43.2" width="669.6" height="277.2"/>
  </clipPath>
 </defs>
</svg>
