<?xml version="1.0" encoding="utf-8" standalone="no"?>
<!DOCTYPE svg PUBLIC "-//W3C//DTD SVG 1.1//EN"
  "http://www.w3.org/Graphics/SVG/1.1/DTD/svg11.dtd">
<svg xmlns:xlink="http://www.w3.org/1999/xlink" width="864pt" height="360pt" viewBox="0 0 864 360" xmlns="http://www.w3.org/2000/svg" version="1.1">
 <metadata>
  <rdf:RDF xmlns:dc="http://purl.org/dc/elements/1.1/" xmlns:cc="http://creativecommons.org/ns#" xmlns:rdf="http://www.w3.org/1999/02/22-rdf-syntax-ns#">
   <cc:Work>
    <dc:type rdf:resource="http://purl.org/dc/dcmitype/StillImage"/>
    <dc:date>2025-11-01T08:18:04.540455</dc:date>
    <dc:format>image/svg+xml</dc:format>
    <dc:creator>
     <cc:Agent>
      <dc:title>Matplotlib v3.10.7, https://matplotlib.org/</dc:title>
     </cc:Agent>
    </dc:creator>
   </cc:Work>
  </rdf:RDF>
 </metadata>
 <defs>
  <style type="text/css">*{stroke-linejoin: round; stroke-linecap: butt}</style>
 </defs>
 <g id="figure_1">
  <g id="patch_1">
   <path d="M 0 360 
L 864 360 
L 864 0 
L 0 0 
L 0 360 
z
" style="fill: none; opacity: 0"/>
  </g>
  <g id="axes_1">
   <g id="patch_2">
    <path d="M 108 320.4 
L 777.6 320.4 
L 777.6 43.2 
L 108 43.2 
L 108 320.4 
z
" style="fill: none; opacity: 0"/>
   </g>
   <g id="matplotlib.axis_1">
    <g id="xtick_1">
     <g id="line2d_1">
      <path d="M 129.467288 320.4 
L 129.467288 43.2 
" clip-path="url(#p362c211311)" style="fill: none; stroke-dasharray: 5.12,1.28,0.8,1.28; stroke-dashoffset: 0; stroke: #b0b0b0; stroke-width: 0.8"/>
     </g>
     <g id="line2d_2">
      <defs>
       <path id="mcb6fff734a" d="M 0 0 
L 0 3.5 
" style="stroke: #a9a9a9; stroke-width: 0.8"/>
      </defs>
      <g>
       <use xlink:href="#mcb6fff734a" x="129.467288" y="320.4" style="fill: #a9a9a9; stroke: #a9a9a9; stroke-width: 0.8"/>
      </g>
     </g>
     <g id="text_1">
      <!-- 2021-07 -->
      <g style="fill: #a9a9a9" transform="translate(108.575882 334.998438) scale(0.1 -0.1)">
       <defs>
        <path id="DejaVuSans-32" d="M 1228 531 
L 3431 531 
L 3431 0 
L 469 0 
L 469 531 
Q 828 903 1448 1529 
Q 2069 2156 2228 2338 
Q 2531 2678 2651 2914 
Q 2772 3150 2772 3378 
Q 2772 3750 2511 3984 
Q 2250 4219 1831 4219 
Q 1534 4219 1204 4116 
Q 875 4013 500 3803 
L 500 4441 
Q 881 4594 1212 4672 
Q 1544 4750 1819 4750 
Q 2544 4750 2975 4387 
Q 3406 4025 3406 3419 
Q 3406 3131 3298 2873 
Q 3191 2616 2906 2266 
Q 2828 2175 2409 1742 
Q 1991 1309 1228 531 
z
" transform="scale(0.015625)"/>
        <path id="DejaVuSans-30" d="M 2034 4250 
Q 1547 4250 1301 3770 
Q 1056 3291 1056 2328 
Q 1056 1369 1301 889 
Q 1547 409 2034 409 
Q 2525 409 2770 889 
Q 3016 1369 3016 2328 
Q 3016 3291 2770 3770 
Q 2525 4250 2034 4250 
z
M 2034 4750 
Q 2819 4750 3233 4129 
Q 3647 3509 3647 2328 
Q 3647 1150 3233 529 
Q 2819 -91 2034 -91 
Q 1250 -91 836 529 
Q 422 1150 422 2328 
Q 422 3509 836 4129 
Q 1250 4750 2034 4750 
z
" transform="scale(0.015625)"/>
        <path id="DejaVuSans-31" d="M 794 531 
L 1825 531 
L 1825 4091 
L 703 3866 
L 703 4441 
L 1819 4666 
L 2450 4666 
L 2450 531 
L 3481 531 
L 3481 0 
L 794 0 
L 794 531 
z
" transform="scale(0.015625)"/>
        <path id="DejaVuSans-2d" d="M 313 2009 
L 1997 2009 
L 1997 1497 
L 313 1497 
L 313 2009 
z
" transform="scale(0.015625)"/>
        <path id="DejaVuSans-37" d="M 525 4666 
L 3525 4666 
L 3525 4397 
L 1831 0 
L 1172 0 
L 2766 4134 
L 525 4134 
L 525 4666 
z
" transform="scale(0.015625)"/>
       </defs>
       <use xlink:href="#DejaVuSans-32"/>
       <use xlink:href="#DejaVuSans-30" transform="translate(63.623047 0)"/>
       <use xlink:href="#DejaVuSans-32" transform="translate(127.246094 0)"/>
       <use xlink:href="#DejaVuSans-31" transform="translate(190.869141 0)"/>
       <use xlink:href="#DejaVuSans-2d" transform="translate(254.492188 0)"/>
       <use xlink:href="#DejaVuSans-30" transform="translate(290.576172 0)"/>
       <use xlink:href="#DejaVuSans-37" transform="translate(354.199219 0)"/>
      </g>
     </g>
    </g>
    <g id="xtick_2">
     <g id="line2d_3">
      <path d="M 201.219894 320.4 
L 201.219894 43.2 
" clip-path="url(#p362c211311)" style="fill: none; stroke-dasharray: 5.12,1.28,0.8,1.28; stroke-dashoffset: 0; stroke: #b0b0b0; stroke-width: 0.8"/>
     </g>
     <g id="line2d_4">
      <g>
       <use xlink:href="#mcb6fff734a" x="201.219894" y="320.4" style="fill: #a9a9a9; stroke: #a9a9a9; stroke-width: 0.8"/>
      </g>
     </g>
     <g id="text_2">
      <!-- 2022-01 -->
      <g style="fill: #a9a9a9" transform="translate(180.328488 334.998438) scale(0.1 -0.1)">
       <use xlink:href="#DejaVuSans-32"/>
       <use xlink:href="#DejaVuSans-30" transform="translate(63.623047 0)"/>
       <use xlink:href="#DejaVuSans-32" transform="translate(127.246094 0)"/>
       <use xlink:href="#DejaVuSans-32" transform="translate(190.869141 0)"/>
       <use xlink:href="#DejaVuSans-2d" transform="translate(254.492188 0)"/>
       <use xlink:href="#DejaVuSans-30" transform="translate(290.576172 0)"/>
       <use xlink:href="#DejaVuSans-31" transform="translate(354.199219 0)"/>
      </g>
     </g>
    </g>
    <g id="xtick_3">
     <g id="line2d_5">
      <path d="M 271.802621 320.4 
L 271.802621 43.2 
" clip-path="url(#p362c211311)" style="fill: none; stroke-dasharray: 5.12,1.28,0.8,1.28; stroke-dashoffset: 0; stroke: #b0b0b0; stroke-width: 0.8"/>
     </g>
     <g id="line2d_6">
      <g>
       <use xlink:href="#mcb6fff734a" x="271.802621" y="320.4" style="fill: #a9a9a9; stroke: #a9a9a9; stroke-width: 0.8"/>
      </g>
     </g>
     <g id="text_3">
      <!-- 2022-07 -->
      <g style="fill: #a9a9a9" transform="translate(250.911214 334.998438) scale(0.1 -0.1)">
       <use xlink:href="#DejaVuSans-32"/>
       <use xlink:href="#DejaVuSans-30" transform="translate(63.623047 0)"/>
       <use xlink:href="#DejaVuSans-32" transform="translate(127.246094 0)"/>
       <use xlink:href="#DejaVuSans-32" transform="translate(190.869141 0)"/>
       <use xlink:href="#DejaVuSans-2d" transform="translate(254.492188 0)"/>
       <use xlink:href="#DejaVuSans-30" transform="translate(290.576172 0)"/>
       <use xlink:href="#DejaVuSans-37" transform="translate(354.199219 0)"/>
      </g>
     </g>
    </g>
    <g id="xtick_4">
     <g id="line2d_7">
      <path d="M 343.555227 320.4 
L 343.555227 43.2 
" clip-path="url(#p362c211311)" style="fill: none; stroke-dasharray: 5.12,1.28,0.8,1.28; stroke-dashoffset: 0; stroke: #b0b0b0; stroke-width: 0.8"/>
     </g>
     <g id="line2d_8">
      <g>
       <use xlink:href="#mcb6fff734a" x="343.555227" y="320.4" style="fill: #a9a9a9; stroke: #a9a9a9; stroke-width: 0.8"/>
      </g>
     </g>
     <g id="text_4">
      <!-- 2023-01 -->
      <g style="fill: #a9a9a9" transform="translate(322.663821 334.998438) scale(0.1 -0.1)">
       <defs>
        <path id="DejaVuSans-33" d="M 2597 2516 
Q 3050 2419 3304 2112 
Q 3559 1806 3559 1356 
Q 3559 666 3084 287 
Q 2609 -91 1734 -91 
Q 1441 -91 1130 -33 
Q 819 25 488 141 
L 488 750 
Q 750 597 1062 519 
Q 1375 441 1716 441 
Q 2309 441 2620 675 
Q 2931 909 2931 1356 
Q 2931 1769 2642 2001 
Q 2353 2234 1838 2234 
L 1294 2234 
L 1294 2753 
L 1863 2753 
Q 2328 2753 2575 2939 
Q 2822 3125 2822 3475 
Q 2822 3834 2567 4026 
Q 2313 4219 1838 4219 
Q 1578 4219 1281 4162 
Q 984 4106 628 3988 
L 628 4550 
Q 988 4650 1302 4700 
Q 1616 4750 1894 4750 
Q 2613 4750 3031 4423 
Q 3450 4097 3450 3541 
Q 3450 3153 3228 2886 
Q 3006 2619 2597 2516 
z
" transform="scale(0.015625)"/>
       </defs>
       <use xlink:href="#DejaVuSans-32"/>
       <use xlink:href="#DejaVuSans-30" transform="translate(63.623047 0)"/>
       <use xlink:href="#DejaVuSans-32" transform="translate(127.246094 0)"/>
       <use xlink:href="#DejaVuSans-33" transform="translate(190.869141 0)"/>
       <use xlink:href="#DejaVuSans-2d" transform="translate(254.492188 0)"/>
       <use xlink:href="#DejaVuSans-30" transform="translate(290.576172 0)"/>
       <use xlink:href="#DejaVuSans-31" transform="translate(354.199219 0)"/>
      </g>
     </g>
    </g>
    <g id="xtick_5">
     <g id="line2d_9">
      <path d="M 414.137954 320.4 
L 414.137954 43.2 
" clip-path="url(#p362c211311)" style="fill: none; stroke-dasharray: 5.12,1.28,0.8,1.28; stroke-dashoffset: 0; stroke: #b0b0b0; stroke-width: 0.8"/>
     </g>
     <g id="line2d_10">
      <g>
       <use xlink:href="#mcb6fff734a" x="414.137954" y="320.4" style="fill: #a9a9a9; stroke: #a9a9a9; stroke-width: 0.8"/>
      </g>
     </g>
     <g id="text_5">
      <!-- 2023-07 -->
      <g style="fill: #a9a9a9" transform="translate(393.246547 334.998438) scale(0.1 -0.1)">
       <use xlink:href="#DejaVuSans-32"/>
       <use xlink:href="#DejaVuSans-30" transform="translate(63.623047 0)"/>
       <use xlink:href="#DejaVuSans-32" transform="translate(127.246094 0)"/>
       <use xlink:href="#DejaVuSans-33" transform="translate(190.869141 0)"/>
       <use xlink:href="#DejaVuSans-2d" transform="translate(254.492188 0)"/>
       <use xlink:href="#DejaVuSans-30" transform="translate(290.576172 0)"/>
       <use xlink:href="#DejaVuSans-37" transform="translate(354.199219 0)"/>
      </g>
     </g>
    </g>
    <g id="xtick_6">
     <g id="line2d_11">
      <path d="M 485.89056 320.4 
L 485.89056 43.2 
" clip-path="url(#p362c211311)" style="fill: none; stroke-dasharray: 5.12,1.28,0.8,1.28; stroke-dashoffset: 0; stroke: #b0b0b0; stroke-width: 0.8"/>
     </g>
     <g id="line2d_12">
      <g>
       <use xlink:href="#mcb6fff734a" x="485.89056" y="320.4" style="fill: #a9a9a9; stroke: #a9a9a9; stroke-width: 0.8"/>
      </g>
     </g>
     <g id="text_6">
      <!-- 2024-01 -->
      <g style="fill: #a9a9a9" transform="translate(464.999153 334.998438) scale(0.1 -0.1)">
       <defs>
        <path id="DejaVuSans-34" d="M 2419 4116 
L 825 1625 
L 2419 1625 
L 2419 4116 
z
M 2253 4666 
L 3047 4666 
L 3047 1625 
L 3713 1625 
L 3713 1100 
L 3047 1100 
L 3047 0 
L 2419 0 
L 2419 1100 
L 313 1100 
L 313 1709 
L 2253 4666 
z
" transform="scale(0.015625)"/>
       </defs>
       <use xlink:href="#DejaVuSans-32"/>
       <use xlink:href="#DejaVuSans-30" transform="translate(63.623047 0)"/>
       <use xlink:href="#DejaVuSans-32" transform="translate(127.246094 0)"/>
       <use xlink:href="#DejaVuSans-34" transform="translate(190.869141 0)"/>
       <use xlink:href="#DejaVuSans-2d" transform="translate(254.492188 0)"/>
       <use xlink:href="#DejaVuSans-30" transform="translate(290.576172 0)"/>
       <use xlink:href="#DejaVuSans-31" transform="translate(354.199219 0)"/>
      </g>
     </g>
    </g>
    <g id="xtick_7">
     <g id="line2d_13">
      <path d="M 556.863246 320.4 
L 556.863246 43.2 
" clip-path="url(#p362c211311)" style="fill: none; stroke-dasharray: 5.12,1.28,0.8,1.28; stroke-dashoffset: 0; stroke: #b0b0b0; stroke-width: 0.8"/>
     </g>
     <g id="line2d_14">
      <g>
       <use xlink:href="#mcb6fff734a" x="556.863246" y="320.4" style="fill: #a9a9a9; stroke: #a9a9a9; stroke-width: 0.8"/>
      </g>
     </g>
     <g id="text_7">
      <!-- 2024-07 -->
      <g style="fill: #a9a9a9" transform="translate(535.97184 334.998438) scale(0.1 -0.1)">
       <use xlink:href="#DejaVuSans-32"/>
       <use xlink:href="#DejaVuSans-30" transform="translate(63.623047 0)"/>
       <use xlink:href="#DejaVuSans-32" transform="translate(127.246094 0)"/>
       <use xlink:href="#DejaVuSans-34" transform="translate(190.869141 0)"/>
       <use xlink:href="#DejaVuSans-2d" transform="translate(254.492188 0)"/>
       <use xlink:href="#DejaVuSans-30" transform="translate(290.576172 0)"/>
       <use xlink:href="#DejaVuSans-37" transform="translate(354.199219 0)"/>
      </g>
     </g>
    </g>
    <g id="xtick_8">
     <g id="line2d_15">
      <path d="M 628.615852 320.4 
L 628.615852 43.2 
" clip-path="url(#p362c211311)" style="fill: none; stroke-dasharray: 5.12,1.28,0.8,1.28; stroke-dashoffset: 0; stroke: #b0b0b0; stroke-width: 0.8"/>
     </g>
     <g id="line2d_16">
      <g>
       <use xlink:href="#mcb6fff734a" x="628.615852" y="320.4" style="fill: #a9a9a9; stroke: #a9a9a9; stroke-width: 0.8"/>
      </g>
     </g>
     <g id="text_8">
      <!-- 2025-01 -->
      <g style="fill: #a9a9a9" transform="translate(607.724446 334.998438) scale(0.1 -0.1)">
       <defs>
        <path id="DejaVuSans-35" d="M 691 4666 
L 3169 4666 
L 3169 4134 
L 1269 4134 
L 1269 2991 
Q 1406 3038 1543 3061 
Q 1681 3084 1819 3084 
Q 2600 3084 3056 2656 
Q 3513 2228 3513 1497 
Q 3513 744 3044 326 
Q 2575 -91 1722 -91 
Q 1428 -91 1123 -41 
Q 819 9 494 109 
L 494 744 
Q 775 591 1075 516 
Q 1375 441 1709 441 
Q 2250 441 2565 725 
Q 2881 1009 2881 1497 
Q 2881 1984 2565 2268 
Q 2250 2553 1709 2553 
Q 1456 2553 1204 2497 
Q 953 2441 691 2322 
L 691 4666 
z
" transform="scale(0.015625)"/>
       </defs>
       <use xlink:href="#DejaVuSans-32"/>
       <use xlink:href="#DejaVuSans-30" transform="translate(63.623047 0)"/>
       <use xlink:href="#DejaVuSans-32" transform="translate(127.246094 0)"/>
       <use xlink:href="#DejaVuSans-35" transform="translate(190.869141 0)"/>
       <use xlink:href="#DejaVuSans-2d" transform="translate(254.492188 0)"/>
       <use xlink:href="#DejaVuSans-30" transform="translate(290.576172 0)"/>
       <use xlink:href="#DejaVuSans-31" transform="translate(354.199219 0)"/>
      </g>
     </g>
    </g>
    <g id="xtick_9">
     <g id="line2d_17">
      <path d="M 699.198579 320.4 
L 699.198579 43.2 
" clip-path="url(#p362c211311)" style="fill: none; stroke-dasharray: 5.12,1.28,0.8,1.28; stroke-dashoffset: 0; stroke: #b0b0b0; stroke-width: 0.8"/>
     </g>
     <g id="line2d_18">
      <g>
       <use xlink:href="#mcb6fff734a" x="699.198579" y="320.4" style="fill: #a9a9a9; stroke: #a9a9a9; stroke-width: 0.8"/>
      </g>
     </g>
     <g id="text_9">
      <!-- 2025-07 -->
      <g style="fill: #a9a9a9" transform="translate(678.307173 334.998438) scale(0.1 -0.1)">
       <use xlink:href="#DejaVuSans-32"/>
       <use xlink:href="#DejaVuSans-30" transform="translate(63.623047 0)"/>
       <use xlink:href="#DejaVuSans-32" transform="translate(127.246094 0)"/>
       <use xlink:href="#DejaVuSans-35" transform="translate(190.869141 0)"/>
       <use xlink:href="#DejaVuSans-2d" transform="translate(254.492188 0)"/>
       <use xlink:href="#DejaVuSans-30" transform="translate(290.576172 0)"/>
       <use xlink:href="#DejaVuSans-37" transform="translate(354.199219 0)"/>
      </g>
     </g>
    </g>
    <g id="xtick_10">
     <g id="line2d_19">
      <path d="M 770.951185 320.4 
L 770.951185 43.2 
" clip-path="url(#p362c211311)" style="fill: none; stroke-dasharray: 5.12,1.28,0.8,1.28; stroke-dashoffset: 0; stroke: #b0b0b0; stroke-width: 0.8"/>
     </g>
     <g id="line2d_20">
      <g>
       <use xlink:href="#mcb6fff734a" x="770.951185" y="320.4" style="fill: #a9a9a9; stroke: #a9a9a9; stroke-width: 0.8"/>
      </g>
     </g>
     <g id="text_10">
      <!-- 2026-01 -->
      <g style="fill: #a9a9a9" transform="translate(750.059779 334.998438) scale(0.1 -0.1)">
       <defs>
        <path id="DejaVuSans-36" d="M 2113 2584 
Q 1688 2584 1439 2293 
Q 1191 2003 1191 1497 
Q 1191 994 1439 701 
Q 1688 409 2113 409 
Q 2538 409 2786 701 
Q 3034 994 3034 1497 
Q 3034 2003 2786 2293 
Q 2538 2584 2113 2584 
z
M 3366 4563 
L 3366 3988 
Q 3128 4100 2886 4159 
Q 2644 4219 2406 4219 
Q 1781 4219 1451 3797 
Q 1122 3375 1075 2522 
Q 1259 2794 1537 2939 
Q 1816 3084 2150 3084 
Q 2853 3084 3261 2657 
Q 3669 2231 3669 1497 
Q 3669 778 3244 343 
Q 2819 -91 2113 -91 
Q 1303 -91 875 529 
Q 447 1150 447 2328 
Q 447 3434 972 4092 
Q 1497 4750 2381 4750 
Q 2619 4750 2861 4703 
Q 3103 4656 3366 4563 
z
" transform="scale(0.015625)"/>
       </defs>
       <use xlink:href="#DejaVuSans-32"/>
       <use xlink:href="#DejaVuSans-30" transform="translate(63.623047 0)"/>
       <use xlink:href="#DejaVuSans-32" transform="translate(127.246094 0)"/>
       <use xlink:href="#DejaVuSans-36" transform="translate(190.869141 0)"/>
       <use xlink:href="#DejaVuSans-2d" transform="translate(254.492188 0)"/>
       <use xlink:href="#DejaVuSans-30" transform="translate(290.576172 0)"/>
       <use xlink:href="#DejaVuSans-31" transform="translate(354.199219 0)"/>
      </g>
     </g>
    </g>
   </g>
   <g id="matplotlib.axis_2">
    <g id="ytick_1">
     <g id="line2d_21">
      <path d="M 108 307.830413 
L 777.6 307.830413 
" clip-path="url(#p362c211311)" style="fill: none; stroke-dasharray: 5.12,1.28,0.8,1.28; stroke-dashoffset: 0; stroke: #b0b0b0; stroke-width: 0.8"/>
     </g>
     <g id="line2d_22">
      <defs>
       <path id="med3ca8e380" d="M 0 0 
L -3.5 0 
" style="stroke: #a9a9a9; stroke-width: 0.8"/>
      </defs>
      <g>
       <use xlink:href="#med3ca8e380" x="108" y="307.830413" style="fill: #a9a9a9; stroke: #a9a9a9; stroke-width: 0.8"/>
      </g>
     </g>
     <g id="text_11">
      <!-- 0 -->
      <g style="fill: #a9a9a9" transform="translate(94.6375 311.629631) scale(0.1 -0.1)">
       <use xlink:href="#DejaVuSans-30"/>
      </g>
     </g>
    </g>
    <g id="ytick_2">
     <g id="line2d_23">
      <path d="M 108 277.417668 
L 777.6 277.417668 
" clip-path="url(#p362c211311)" style="fill: none; stroke-dasharray: 5.12,1.28,0.8,1.28; stroke-dashoffset: 0; stroke: #b0b0b0; stroke-width: 0.8"/>
     </g>
     <g id="line2d_24">
      <g>
       <use xlink:href="#med3ca8e380" x="108" y="277.417668" style="fill: #a9a9a9; stroke: #a9a9a9; stroke-width: 0.8"/>
      </g>
     </g>
     <g id="text_12">
      <!-- 1000 -->
      <g style="fill: #a9a9a9" transform="translate(75.55 281.216887) scale(0.1 -0.1)">
       <use xlink:href="#DejaVuSans-31"/>
       <use xlink:href="#DejaVuSans-30" transform="translate(63.623047 0)"/>
       <use xlink:href="#DejaVuSans-30" transform="translate(127.246094 0)"/>
       <use xlink:href="#DejaVuSans-30" transform="translate(190.869141 0)"/>
      </g>
     </g>
    </g>
    <g id="ytick_3">
     <g id="line2d_25">
      <path d="M 108 247.004924 
L 777.6 247.004924 
" clip-path="url(#p362c211311)" style="fill: none; stroke-dasharray: 5.12,1.28,0.8,1.28; stroke-dashoffset: 0; stroke: #b0b0b0; stroke-width: 0.8"/>
     </g>
     <g id="line2d_26">
      <g>
       <use xlink:href="#med3ca8e380" x="108" y="247.004924" style="fill: #a9a9a9; stroke: #a9a9a9; stroke-width: 0.8"/>
      </g>
     </g>
     <g id="text_13">
      <!-- 2000 -->
      <g style="fill: #a9a9a9" transform="translate(75.55 250.804143) scale(0.1 -0.1)">
       <use xlink:href="#DejaVuSans-32"/>
       <use xlink:href="#DejaVuSans-30" transform="translate(63.623047 0)"/>
       <use xlink:href="#DejaVuSans-30" transform="translate(127.246094 0)"/>
       <use xlink:href="#DejaVuSans-30" transform="translate(190.869141 0)"/>
      </g>
     </g>
    </g>
    <g id="ytick_4">
     <g id="line2d_27">
      <path d="M 108 216.59218 
L 777.6 216.59218 
" clip-path="url(#p362c211311)" style="fill: none; stroke-dasharray: 5.12,1.28,0.8,1.28; stroke-dashoffset: 0; stroke: #b0b0b0; stroke-width: 0.8"/>
     </g>
     <g id="line2d_28">
      <g>
       <use xlink:href="#med3ca8e380" x="108" y="216.59218" style="fill: #a9a9a9; stroke: #a9a9a9; stroke-width: 0.8"/>
      </g>
     </g>
     <g id="text_14">
      <!-- 3000 -->
      <g style="fill: #a9a9a9" transform="translate(75.55 220.391398) scale(0.1 -0.1)">
       <use xlink:href="#DejaVuSans-33"/>
       <use xlink:href="#DejaVuSans-30" transform="translate(63.623047 0)"/>
       <use xlink:href="#DejaVuSans-30" transform="translate(127.246094 0)"/>
       <use xlink:href="#DejaVuSans-30" transform="translate(190.869141 0)"/>
      </g>
     </g>
    </g>
    <g id="ytick_5">
     <g id="line2d_29">
      <path d="M 108 186.179435 
L 777.6 186.179435 
" clip-path="url(#p362c211311)" style="fill: none; stroke-dasharray: 5.12,1.28,0.8,1.28; stroke-dashoffset: 0; stroke: #b0b0b0; stroke-width: 0.8"/>
     </g>
     <g id="line2d_30">
      <g>
       <use xlink:href="#med3ca8e380" x="108" y="186.179435" style="fill: #a9a9a9; stroke: #a9a9a9; stroke-width: 0.8"/>
      </g>
     </g>
     <g id="text_15">
      <!-- 4000 -->
      <g style="fill: #a9a9a9" transform="translate(75.55 189.978654) scale(0.1 -0.1)">
       <use xlink:href="#DejaVuSans-34"/>
       <use xlink:href="#DejaVuSans-30" transform="translate(63.623047 0)"/>
       <use xlink:href="#DejaVuSans-30" transform="translate(127.246094 0)"/>
       <use xlink:href="#DejaVuSans-30" transform="translate(190.869141 0)"/>
      </g>
     </g>
    </g>
    <g id="ytick_6">
     <g id="line2d_31">
      <path d="M 108 155.766691 
L 777.6 155.766691 
" clip-path="url(#p362c211311)" style="fill: none; stroke-dasharray: 5.12,1.28,0.8,1.28; stroke-dashoffset: 0; stroke: #b0b0b0; stroke-width: 0.8"/>
     </g>
     <g id="line2d_32">
      <g>
       <use xlink:href="#med3ca8e380" x="108" y="155.766691" style="fill: #a9a9a9; stroke: #a9a9a9; stroke-width: 0.8"/>
      </g>
     </g>
     <g id="text_16">
      <!-- 5000 -->
      <g style="fill: #a9a9a9" transform="translate(75.55 159.56591) scale(0.1 -0.1)">
       <use xlink:href="#DejaVuSans-35"/>
       <use xlink:href="#DejaVuSans-30" transform="translate(63.623047 0)"/>
       <use xlink:href="#DejaVuSans-30" transform="translate(127.246094 0)"/>
       <use xlink:href="#DejaVuSans-30" transform="translate(190.869141 0)"/>
      </g>
     </g>
    </g>
    <g id="ytick_7">
     <g id="line2d_33">
      <path d="M 108 125.353946 
L 777.6 125.353946 
" clip-path="url(#p362c211311)" style="fill: none; stroke-dasharray: 5.12,1.28,0.8,1.28; stroke-dashoffset: 0; stroke: #b0b0b0; stroke-width: 0.8"/>
     </g>
     <g id="line2d_34">
      <g>
       <use xlink:href="#med3ca8e380" x="108" y="125.353946" style="fill: #a9a9a9; stroke: #a9a9a9; stroke-width: 0.8"/>
      </g>
     </g>
     <g id="text_17">
      <!-- 6000 -->
      <g style="fill: #a9a9a9" transform="translate(75.55 129.153165) scale(0.1 -0.1)">
       <use xlink:href="#DejaVuSans-36"/>
       <use xlink:href="#DejaVuSans-30" transform="translate(63.623047 0)"/>
       <use xlink:href="#DejaVuSans-30" transform="translate(127.246094 0)"/>
       <use xlink:href="#DejaVuSans-30" transform="translate(190.869141 0)"/>
      </g>
     </g>
    </g>
    <g id="ytick_8">
     <g id="line2d_35">
      <path d="M 108 94.941202 
L 777.6 94.941202 
" clip-path="url(#p362c211311)" style="fill: none; stroke-dasharray: 5.12,1.28,0.8,1.28; stroke-dashoffset: 0; stroke: #b0b0b0; stroke-width: 0.8"/>
     </g>
     <g id="line2d_36">
      <g>
       <use xlink:href="#med3ca8e380" x="108" y="94.941202" style="fill: #a9a9a9; stroke: #a9a9a9; stroke-width: 0.8"/>
      </g>
     </g>
     <g id="text_18">
      <!-- 7000 -->
      <g style="fill: #a9a9a9" transform="translate(75.55 98.740421) scale(0.1 -0.1)">
       <use xlink:href="#DejaVuSans-37"/>
       <use xlink:href="#DejaVuSans-30" transform="translate(63.623047 0)"/>
       <use xlink:href="#DejaVuSans-30" transform="translate(127.246094 0)"/>
       <use xlink:href="#DejaVuSans-30" transform="translate(190.869141 0)"/>
      </g>
     </g>
    </g>
    <g id="ytick_9">
     <g id="line2d_37">
      <path d="M 108 64.528458 
L 777.6 64.528458 
" clip-path="url(#p362c211311)" style="fill: none; stroke-dasharray: 5.12,1.28,0.8,1.28; stroke-dashoffset: 0; stroke: #b0b0b0; stroke-width: 0.8"/>
     </g>
     <g id="line2d_38">
      <g>
       <use xlink:href="#med3ca8e380" x="108" y="64.528458" style="fill: #a9a9a9; stroke: #a9a9a9; stroke-width: 0.8"/>
      </g>
     </g>
     <g id="text_19">
      <!-- 8000 -->
      <g style="fill: #a9a9a9" transform="translate(75.55 68.327676) scale(0.1 -0.1)">
       <defs>
        <path id="DejaVuSans-38" d="M 2034 2216 
Q 1584 2216 1326 1975 
Q 1069 1734 1069 1313 
Q 1069 891 1326 650 
Q 1584 409 2034 409 
Q 2484 409 2743 651 
Q 3003 894 3003 1313 
Q 3003 1734 2745 1975 
Q 2488 2216 2034 2216 
z
M 1403 2484 
Q 997 2584 770 2862 
Q 544 3141 544 3541 
Q 544 4100 942 4425 
Q 1341 4750 2034 4750 
Q 2731 4750 3128 4425 
Q 3525 4100 3525 3541 
Q 3525 3141 3298 2862 
Q 3072 2584 2669 2484 
Q 3125 2378 3379 2068 
Q 3634 1759 3634 1313 
Q 3634 634 3220 271 
Q 2806 -91 2034 -91 
Q 1263 -91 848 271 
Q 434 634 434 1313 
Q 434 1759 690 2068 
Q 947 2378 1403 2484 
z
M 1172 3481 
Q 1172 3119 1398 2916 
Q 1625 2713 2034 2713 
Q 2441 2713 2670 2916 
Q 2900 3119 2900 3481 
Q 2900 3844 2670 4047 
Q 2441 4250 2034 4250 
Q 1625 4250 1398 4047 
Q 1172 3844 1172 3481 
z
" transform="scale(0.015625)"/>
       </defs>
       <use xlink:href="#DejaVuSans-38"/>
       <use xlink:href="#DejaVuSans-30" transform="translate(63.623047 0)"/>
       <use xlink:href="#DejaVuSans-30" transform="translate(127.246094 0)"/>
       <use xlink:href="#DejaVuSans-30" transform="translate(190.869141 0)"/>
      </g>
     </g>
    </g>
   </g>
   <g id="line2d_39">
    <path d="M 138.436364 307.739175 
L 140.776123 307.526285 
L 141.166082 307.343809 
L 142.725922 307.13092 
L 144.285761 306.796379 
L 145.065681 306.674728 
L 147.01548 306.492252 
L 147.795399 306.188125 
L 148.185359 305.640695 
L 148.575319 305.36698 
L 148.965279 304.454598 
L 149.355238 304.393773 
L 150.135158 303.907169 
L 150.915078 303.329327 
L 152.474917 302.173642 
L 152.864877 302.021579 
L 153.644796 301.534975 
L 154.814676 300.957133 
L 155.204636 300.288052 
L 155.984555 299.679797 
L 156.764475 299.436495 
L 157.934354 299.254019 
L 160.274113 298.889066 
L 160.664073 298.706589 
L 163.393792 298.463287 
L 164.953631 298.067922 
L 168.07331 297.611731 
L 168.463269 297.398841 
L 168.853229 297.338016 
L 169.633149 297.064301 
L 172.362868 296.577697 
L 173.142787 296.334395 
L 176.652426 295.72614 
L 177.432345 295.543664 
L 178.992184 295.330775 
L 179.772104 295.087473 
L 180.162064 294.509631 
L 181.331943 294.023027 
L 182.501823 293.688487 
L 182.891783 293.475597 
L 183.671702 293.323534 
L 185.231542 292.83693 
L 186.011461 292.776104 
L 186.791381 292.563215 
L 188.35122 292.137437 
L 188.74118 292.107024 
L 189.5211 291.711658 
L 189.911059 291.650833 
L 190.301019 291.437944 
L 194.590577 290.708038 
L 196.150416 290.221434 
L 196.540376 289.947719 
L 198.490175 289.278639 
L 199.270095 288.700797 
L 200.439974 288.457495 
L 205.509452 286.936857 
L 205.899412 286.876032 
L 207.459251 286.237364 
L 207.849211 286.176539 
L 208.629131 285.841999 
L 209.40905 285.811586 
L 210.57893 285.446633 
L 210.968889 285.446633 
L 211.358849 285.264156 
L 212.138769 285.172918 
L 212.528729 285.020854 
L 214.478528 284.929616 
L 214.868488 284.838378 
L 215.648407 284.4126 
L 216.818287 283.986821 
L 217.598206 283.561043 
L 218.768086 283.044026 
L 220.327925 282.222882 
L 220.717885 281.766691 
L 221.497804 280.489356 
L 221.887764 280.367705 
L 222.277724 280.367705 
L 223.837563 279.485735 
L 224.227523 279.394497 
L 224.617483 278.999131 
L 225.397403 278.664591 
L 226.177322 278.299638 
L 226.567282 277.813034 
L 226.957242 277.143954 
L 227.347202 276.870239 
L 227.737161 276.140333 
L 228.127121 275.684142 
L 230.46688 274.345981 
L 232.026719 272.886169 
L 232.416679 271.943374 
L 232.806639 271.335119 
L 233.196599 271.000579 
L 233.586559 270.818103 
L 238.266077 266.529906 
L 239.825916 265.526285 
L 240.215876 265.374222 
L 241.775715 264.401014 
L 242.165675 264.218537 
L 244.115474 262.332947 
L 244.895393 261.998407 
L 245.675313 261.420565 
L 246.065273 261.177263 
L 246.455233 261.116437 
L 247.625112 260.416944 
L 248.015072 259.960753 
L 249.964871 258.835482 
L 250.354831 258.683418 
L 251.52471 257.831861 
L 257.374108 255.642143 
L 258.154027 254.881825 
L 259.323907 254.27357 
L 260.103826 253.756553 
L 260.883746 253.513251 
L 261.273706 253.239537 
L 261.663665 253.117886 
L 262.833545 252.296741 
L 264.783344 251.84055 
L 265.953223 251.110644 
L 267.123103 250.83693 
L 267.513063 250.745692 
L 268.682942 249.833309 
L 270.242781 249.377118 
L 270.632741 249.042578 
L 272.9725 248.191021 
L 273.75242 248.038957 
L 274.532339 247.704417 
L 277.262058 246.639971 
L 278.041978 246.548733 
L 279.211857 246.122954 
L 281.161656 245.119334 
L 283.501415 243.75076 
L 284.281335 243.537871 
L 285.451214 242.929616 
L 286.231134 242.777552 
L 287.011054 242.290949 
L 287.790973 242.078059 
L 288.960853 241.591455 
L 290.520692 241.378566 
L 291.300611 240.952788 
L 291.690571 240.587835 
L 292.080531 239.857929 
L 293.64037 239.401738 
L 295.20021 238.671832 
L 298.709848 237.059957 
L 299.489768 236.87748 
L 300.659647 236.269225 
L 301.049607 236.2084 
L 302.999406 235.204779 
L 303.779326 234.687762 
L 304.949205 234.444461 
L 306.899004 233.927444 
L 307.288964 233.592904 
L 308.068884 233.319189 
L 310.018683 232.498045 
L 310.408642 232.193917 
L 310.798602 232.041854 
L 311.578522 231.585663 
L 313.138361 231.068646 
L 313.918281 230.551629 
L 314.308241 230.125851 
L 314.6982 229.882549 
L 315.08816 229.791311 
L 315.86808 229.12223 
L 316.25804 229.061405 
L 316.648 228.392324 
L 317.037959 228.209848 
L 317.427919 227.875308 
L 317.817879 227.814482 
L 318.597799 227.297466 
L 319.377718 227.023751 
L 319.767678 226.719623 
L 320.157638 226.56756 
L 322.107437 225.290224 
L 324.447196 224.225778 
L 324.837156 223.526285 
L 325.617075 222.91803 
L 326.007035 222.826792 
L 328.346794 221.640695 
L 329.126714 221.306155 
L 329.906633 220.728313 
L 331.076513 219.603041 
L 331.856432 219.116437 
L 332.246392 218.660246 
L 333.806231 217.534975 
L 334.586151 216.713831 
L 335.366071 216.440116 
L 336.14599 215.892686 
L 337.31587 215.254019 
L 337.70583 215.193193 
L 341.215468 213.338016 
L 341.995388 213.125127 
L 343.555227 212.547285 
L 343.945187 212.212744 
L 345.505026 211.574077 
L 345.894986 211.452426 
L 346.674905 210.935409 
L 347.454825 210.600869 
L 348.234745 210.023027 
L 349.014664 208.411151 
L 349.794584 207.498769 
L 350.964463 206.860101 
L 351.744383 206.525561 
L 352.134343 206.464736 
L 352.914262 206.099783 
L 354.474102 205.552353 
L 355.254021 205.096162 
L 356.033941 204.700797 
L 356.423901 204.579146 
L 358.76366 203.119334 
L 359.153619 202.663143 
L 360.323499 201.96365 
L 360.713459 201.811586 
L 361.493378 201.324982 
L 363.053218 200.443012 
L 363.443177 200.351774 
L 363.833137 200.017234 
L 366.562856 199.104852 
L 366.952816 198.831137 
L 367.732735 198.587835 
L 370.852414 197.036785 
L 371.632334 196.611007 
L 372.022293 196.42853 
L 372.802213 195.789862 
L 373.582133 195.576973 
L 373.972092 195.21202 
L 374.362052 195.151195 
L 375.141972 194.54294 
L 377.091771 193.356843 
L 377.871691 193.113541 
L 378.26165 192.870239 
L 378.65161 192.809413 
L 380.21145 192.049095 
L 381.381329 191.653729 
L 382.161249 191.532078 
L 383.721088 190.923823 
L 384.111048 190.893411 
L 385.670887 190.285156 
L 386.840766 189.433599 
L 387.230726 189.281535 
L 388.010646 188.825344 
L 388.400606 188.734106 
L 390.740365 187.365532 
L 391.130324 187.274294 
L 392.300204 186.544388 
L 393.470083 186.11861 
L 394.250003 185.844895 
L 395.809842 185.297466 
L 396.589762 185.023751 
L 398.149601 184.689211 
L 398.929521 184.445909 
L 400.87932 183.776828 
L 402.049199 183.411875 
L 402.439159 183.259812 
L 403.609038 183.077335 
L 405.948797 182.621144 
L 407.118677 182.347429 
L 407.508637 182.164953 
L 408.288556 182.012889 
L 409.068476 181.8 
L 409.848396 181.435047 
L 410.238355 181.282983 
L 410.628315 181.282983 
L 414.917873 179.91441 
L 415.307833 179.701521 
L 415.697793 179.701521 
L 416.477712 179.397393 
L 416.867672 178.971615 
L 419.207431 177.967994 
L 420.76727 177.420565 
L 421.15723 177.177263 
L 422.32711 176.81231 
L 423.107029 176.599421 
L 423.496989 176.325706 
L 423.886949 176.234468 
L 424.276909 175.869515 
L 425.446788 175.626213 
L 426.226708 175.26126 
L 426.616668 174.774656 
L 430.906226 173.801448 
L 431.296185 173.801448 
L 432.076105 173.558146 
L 435.585743 172.645764 
L 435.975703 172.4937 
L 436.755623 172.341636 
L 438.705422 171.82462 
L 439.875301 171.459667 
L 441.8251 170.820999 
L 442.60502 170.486459 
L 443.38494 170.182332 
L 443.7749 169.908617 
L 444.554819 169.665315 
L 447.284538 168.600869 
L 448.844377 168.418392 
L 451.964056 167.232295 
L 452.354015 166.928168 
L 452.743975 166.83693 
L 453.133935 166.624041 
L 453.523895 166.593628 
L 457.813453 164.981752 
L 459.763252 164.434323 
L 460.543172 164.038957 
L 461.713051 163.765243 
L 463.27289 162.457495 
L 464.83273 161.758001 
L 466.392569 161.088921 
L 466.782529 160.997683 
L 467.172488 160.723968 
L 467.952408 160.480666 
L 468.342368 160.206951 
L 470.292167 159.537871 
L 474.191765 157.500217 
L 474.971685 157.135264 
L 475.361645 156.831137 
L 476.141564 156.557422 
L 478.481323 155.401738 
L 478.871283 155.3105 
L 480.041162 154.76307 
L 481.601002 154.215641 
L 482.380921 153.881101 
L 483.160841 153.75945 
L 483.550801 153.485735 
L 485.11064 153.181608 
L 485.89056 152.847067 
L 487.840359 151.904272 
L 492.909836 149.623316 
L 494.079716 149.227951 
L 494.469676 148.954236 
L 495.249595 148.862998 
L 495.639555 148.589283 
L 496.419475 148.467632 
L 497.199394 148.072266 
L 497.979314 147.828965 
L 499.539153 147.281535 
L 500.709033 146.855757 
L 502.658832 146.33874 
L 504.218671 145.66966 
L 504.998591 145.243881 
L 506.55843 144.422737 
L 507.33835 144.240261 
L 507.728309 143.996959 
L 508.118269 143.90572 
L 510.068068 142.932513 
L 513.187747 141.807241 
L 513.577707 141.68559 
L 514.357626 141.259812 
L 516.307425 140.560319 
L 518.647184 139.587111 
L 520.207023 138.826792 
L 524.106622 137.245329 
L 524.886541 136.849964 
L 525.276501 136.758726 
L 526.056421 136.454598 
L 526.446381 136.454598 
L 527.2263 136.089645 
L 528.786139 134.751484 
L 529.176099 134.629833 
L 529.566059 134.386531 
L 530.735939 134.051991 
L 531.125898 133.747864 
L 531.905818 133.474149 
L 533.075697 132.683418 
L 533.855617 132.470529 
L 534.635537 132.04475 
L 535.805416 131.771035 
L 537.755215 131.071542 
L 538.535135 130.82824 
L 539.705014 130.189573 
L 540.484934 129.794207 
L 541.264854 129.581318 
L 542.824693 128.851412 
L 543.214653 128.729761 
L 543.994572 128.364808 
L 545.944371 127.72614 
L 547.114251 126.965822 
L 547.504211 126.874584 
L 548.28413 126.479218 
L 549.06405 126.175091 
L 549.45401 125.810138 
L 550.623889 125.353946 
L 551.013849 125.293121 
L 552.573688 124.563215 
L 553.743568 124.198262 
L 554.913447 123.772484 
L 555.693367 123.529182 
L 556.473286 123.377118 
L 557.253206 122.920927 
L 557.643166 122.768863 
L 558.033126 122.464736 
L 559.203005 122.160608 
L 559.982925 121.856481 
L 560.762844 121.521941 
L 562.322684 120.883273 
L 565.052402 120.153367 
L 565.832322 119.84924 
L 567.392161 119.545112 
L 568.172081 119.393049 
L 569.34196 118.936857 
L 570.51184 118.693555 
L 572.851599 117.294569 
L 574.021478 116.564663 
L 576.361237 115.834757 
L 576.751197 115.53063 
L 579.870875 114.405358 
L 581.040755 114.040406 
L 581.820674 113.614627 
L 582.600594 113.401738 
L 582.990554 113.188849 
L 583.770473 113.036785 
L 585.330313 112.42853 
L 586.110232 111.911513 
L 587.280112 111.607386 
L 588.449991 110.816655 
L 588.839951 110.755829 
L 590.39979 110.117161 
L 591.95963 109.721796 
L 592.349589 109.66097 
L 592.739549 109.478494 
L 593.129509 109.448081 
L 593.909429 109.174366 
L 594.299389 109.143954 
L 595.469268 108.687762 
L 597.029107 108.231571 
L 597.809027 107.623316 
L 599.368866 106.741347 
L 599.758826 106.650109 
L 600.538746 106.345981 
L 604.048384 104.582042 
L 604.438344 104.217089 
L 606.388143 103.730485 
L 607.558022 103.183056 
L 608.337942 102.970167 
L 608.727902 102.78769 
L 609.117862 102.45315 
L 611.067661 101.753657 
L 616.137138 99.868067 
L 616.917058 99.716003 
L 618.866857 99.077335 
L 620.036736 98.560319 
L 622.766455 97.739175 
L 623.546375 97.282983 
L 626.276093 96.340188 
L 627.835933 95.823172 
L 629.005812 95.549457 
L 630.175692 95.184504 
L 630.565651 95.093266 
L 630.955611 94.849964 
L 631.735531 94.667487 
L 633.29537 94.211296 
L 633.68533 94.180883 
L 634.46525 93.81593 
L 637.194968 93.116437 
L 638.754808 92.538595 
L 639.144767 92.538595 
L 640.314647 92.264881 
L 641.094566 92.112817 
L 641.874486 91.899928 
L 643.044365 91.26126 
L 644.214245 90.896307 
L 646.943964 89.953512 
L 648.503803 89.162781 
L 649.673682 88.889066 
L 650.453602 88.645764 
L 651.233522 88.250398 
L 651.623481 87.915858 
L 652.403401 87.672556 
L 652.793361 87.429254 
L 653.573281 87.338016 
L 656.302999 86.547285 
L 657.472879 86.303983 
L 658.642758 85.999855 
L 659.422678 85.817379 
L 660.592557 85.209124 
L 665.662035 83.262708 
L 666.441954 83.141057 
L 667.221874 82.988993 
L 667.611834 82.988993 
L 668.781713 82.624041 
L 669.951593 82.259088 
L 673.461231 81.255467 
L 674.241151 81.042578 
L 674.631111 80.95134 
L 675.02107 80.708038 
L 675.80099 80.555974 
L 676.58091 80.464736 
L 676.970869 80.251846 
L 677.360829 80.221434 
L 678.140749 79.704417 
L 679.700588 79.369877 
L 680.480508 79.035337 
L 681.260427 78.761622 
L 682.040347 78.548733 
L 682.820267 78.214193 
L 683.210227 78.153367 
L 683.990146 77.879652 
L 685.160026 77.545112 
L 685.939945 77.484287 
L 687.109825 77.058508 
L 687.889744 76.936857 
L 690.619463 75.902824 
L 692.959222 75.507458 
L 693.739142 75.264156 
L 694.129101 75.203331 
L 694.909021 74.868791 
L 695.298981 74.807965 
L 695.688941 74.625489 
L 696.46886 73.956408 
L 700.368458 72.527009 
L 702.708217 71.888342 
L 703.488137 71.462563 
L 703.878097 71.371325 
L 705.047976 70.732657 
L 705.437936 70.641419 
L 705.827896 70.337292 
L 706.997775 70.002752 
L 713.237132 67.204779 
L 713.627092 67.143954 
L 715.966851 65.957857 
L 716.356811 65.714555 
L 717.52669 65.380014 
L 719.08653 64.741347 
L 719.476489 64.710934 
L 721.426289 63.981028 
L 722.206208 63.828965 
L 722.986128 63.251122 
L 723.376088 63.251122 
L 724.156007 62.977408 
L 724.545967 62.916582 
L 724.935927 62.703693 
L 726.495766 62.369153 
L 728.055605 61.700072 
L 728.445565 61.700072 
L 729.615445 61.304707 
L 730.395364 61.183056 
L 731.565244 60.513975 
L 732.345163 60.11861 
L 734.294962 59.479942 
L 735.074882 59.145402 
L 736.634721 58.628385 
L 739.36444 57.898479 
L 744.433918 56.377842 
L 744.823877 56.317017 
L 745.603797 56.012889 
L 747.163636 55.8 
L 747.163636 55.8 
" clip-path="url(#p362c211311)" style="fill: none; stroke: #1f77b4; stroke-width: 1.5; stroke-linecap: square"/>
   </g>
   <g id="line2d_40">
    <path d="M 138.826323 307.8 
L 142.335962 307.708762 
L 145.45564 307.556698 
L 147.01548 307.556698 
L 147.405439 307.435047 
L 149.355238 307.343809 
L 151.694997 307.070094 
L 154.034756 306.978856 
L 154.814676 306.887618 
L 157.544395 306.765967 
L 160.274113 306.674728 
L 162.223912 306.613903 
L 167.29339 306.522665 
L 169.243189 306.461839 
L 172.752827 306.370601 
L 174.312667 306.340188 
L 178.212265 306.24895 
L 179.772104 306.096886 
L 181.331943 306.066474 
L 183.671702 305.975235 
L 185.231542 305.944823 
L 187.181341 305.883997 
L 188.74118 305.731933 
L 192.250818 305.640695 
L 193.030738 305.57987 
L 194.590577 305.488631 
L 196.930336 305.397393 
L 198.490175 305.306155 
L 205.509452 304.849964 
L 208.239171 304.758726 
L 209.40905 304.637075 
L 211.358849 304.545836 
L 215.258447 304.332947 
L 219.158046 304.272122 
L 220.717885 304.089645 
L 222.667684 303.998407 
L 226.567282 303.603041 
L 228.907041 303.298914 
L 230.46688 303.238088 
L 233.586559 302.81231 
L 235.926318 302.751484 
L 237.096197 302.629833 
L 238.266077 302.538595 
L 249.184951 301.656626 
L 249.964871 301.504562 
L 252.30463 301.413324 
L 258.543987 301.017958 
L 261.273706 300.92672 
L 262.833545 300.744243 
L 264.783344 300.653005 
L 267.123103 300.561767 
L 269.072902 300.470529 
L 270.632741 300.440116 
L 272.58254 300.37929 
L 273.36246 300.257639 
L 278.821897 300.166401 
L 279.601817 300.075163 
L 284.281335 299.983925 
L 287.790973 299.801448 
L 290.520692 299.71021 
L 292.080531 299.527734 
L 294.81025 299.436495 
L 295.590169 299.314844 
L 297.539969 299.254019 
L 301.439567 299.193193 
L 302.999406 299.04113 
L 304.559245 299.010717 
L 305.729125 298.919479 
L 307.288964 298.767415 
L 311.188562 298.554526 
L 315.08816 298.463287 
L 318.597799 298.280811 
L 319.767678 298.250398 
L 320.547598 298.128747 
L 322.497397 298.037509 
L 323.277316 297.976684 
L 324.057236 297.915858 
L 324.837156 297.855033 
L 328.736754 297.763794 
L 337.31587 297.185952 
L 338.095789 297.125127 
L 339.265669 297.033888 
L 341.995388 296.94265 
L 343.945187 296.881825 
L 349.404624 296.790587 
L 350.184544 296.699348 
L 355.643981 296.60811 
L 359.543579 296.395221 
L 360.323499 296.364808 
L 361.103419 296.27357 
L 363.053218 296.182332 
L 365.003017 296.121506 
L 366.952816 296.030268 
L 368.902615 295.969442 
L 372.412253 295.878204 
L 374.752012 295.786966 
L 380.21145 295.695728 
L 384.501008 295.452426 
L 386.060847 295.3916 
L 387.230726 295.300362 
L 392.690164 295.209124 
L 395.029923 295.117886 
L 402.049199 295.026647 
L 403.609038 294.996235 
L 408.288556 294.935409 
L 409.068476 294.874584 
L 414.527913 294.783345 
L 416.087753 294.752933 
L 426.226708 294.661694 
L 428.566467 294.570456 
L 444.944779 294.479218 
L 446.894578 294.418392 
L 457.033533 294.357567 
L 457.813453 294.296741 
L 459.763252 294.235916 
L 460.933131 294.114265 
L 463.27289 294.023027 
L 466.002609 293.901376 
L 469.512247 293.810138 
L 471.462046 293.749312 
L 474.191765 293.658074 
L 477.311444 293.50601 
L 479.261243 293.414772 
L 480.821082 293.384359 
L 487.450399 293.293121 
L 489.790158 293.201883 
L 494.079716 293.110644 
L 496.809435 292.988993 
L 499.539153 292.928168 
L 500.319073 292.867343 
L 509.678108 292.776104 
L 513.577707 292.563215 
L 516.307425 292.471977 
L 520.596983 292.228675 
L 523.326702 292.137437 
L 524.886541 292.107024 
L 527.61626 292.015786 
L 529.566059 291.802896 
L 533.465657 291.711658 
L 534.245577 291.62042 
L 538.145175 291.529182 
L 540.094974 291.468356 
L 544.384532 291.437944 
L 545.164452 291.346705 
L 549.45401 291.255467 
L 550.233929 291.194642 
L 558.813045 291.103403 
L 561.152804 291.012165 
L 567.002201 290.920927 
L 568.562041 290.890514 
L 572.071679 290.829689 
L 572.851599 290.73845 
L 577.921076 290.647212 
L 579.870875 290.586387 
L 586.890152 290.495148 
L 588.060031 290.40391 
L 589.229911 290.312672 
L 590.39979 290.221434 
L 596.249188 290.130196 
L 598.588946 290.038957 
L 609.897781 289.947719 
L 613.407419 289.765243 
L 618.866857 289.674004 
L 620.426696 289.643592 
L 625.106214 289.552353 
L 627.056013 289.491528 
L 635.245169 289.40029 
L 637.974888 289.278639 
L 644.994165 289.1874 
L 646.554004 289.156988 
L 650.453602 289.065749 
L 653.183321 288.944098 
L 657.472879 288.85286 
L 660.202597 288.731209 
L 663.712236 288.639971 
L 664.492155 288.579146 
L 673.071271 288.487907 
L 675.41103 288.396669 
L 678.140749 288.305431 
L 680.090548 288.244605 
L 691.399383 288.153367 
L 693.739142 288.062129 
L 699.978499 287.970891 
L 702.318258 287.879652 
L 707.387735 287.788414 
L 709.727494 287.697176 
L 712.847173 287.605938 
L 715.186931 287.514699 
L 730.785324 287.423461 
L 733.905003 287.271398 
L 742.874078 287.180159 
L 744.433918 287.149747 
L 747.163636 287.149747 
L 747.163636 287.149747 
" clip-path="url(#p362c211311)" style="fill: none; stroke: #ff7f0e; stroke-width: 1.5; stroke-linecap: square"/>
   </g>
   <g id="patch_3">
    <path d="M 108 320.4 
L 108 43.2 
" style="fill: none; stroke: #a9a9a9; stroke-width: 0.8; stroke-linejoin: miter; stroke-linecap: square"/>
   </g>
   <g id="patch_4">
    <path d="M 777.6 320.4 
L 777.6 43.2 
" style="fill: none"/>
   </g>
   <g id="patch_5">
    <path d="M 108 320.4 
L 777.6 320.4 
" style="fill: none; stroke: #a9a9a9; stroke-width: 0.8; stroke-linejoin: miter; stroke-linecap: square"/>
   </g>
   <g id="patch_6">
    <path d="M 108 43.2 
L 777.6 43.2 
" style="fill: none"/>
   </g>
   <g id="text_20">
    <!-- get_subscribe history -->
    <g style="fill: #a9a9a9" transform="translate(378.6075 37.2) scale(0.12 -0.12)">
     <defs>
      <path id="DejaVuSans-67" d="M 2906 1791 
Q 2906 2416 2648 2759 
Q 2391 3103 1925 3103 
Q 1463 3103 1205 2759 
Q 947 2416 947 1791 
Q 947 1169 1205 825 
Q 1463 481 1925 481 
Q 2391 481 2648 825 
Q 2906 1169 2906 1791 
z
M 3481 434 
Q 3481 -459 3084 -895 
Q 2688 -1331 1869 -1331 
Q 1566 -1331 1297 -1286 
Q 1028 -1241 775 -1147 
L 775 -588 
Q 1028 -725 1275 -790 
Q 1522 -856 1778 -856 
Q 2344 -856 2625 -561 
Q 2906 -266 2906 331 
L 2906 616 
Q 2728 306 2450 153 
Q 2172 0 1784 0 
Q 1141 0 747 490 
Q 353 981 353 1791 
Q 353 2603 747 3093 
Q 1141 3584 1784 3584 
Q 2172 3584 2450 3431 
Q 2728 3278 2906 2969 
L 2906 3500 
L 3481 3500 
L 3481 434 
z
" transform="scale(0.015625)"/>
      <path id="DejaVuSans-65" d="M 3597 1894 
L 3597 1613 
L 953 1613 
Q 991 1019 1311 708 
Q 1631 397 2203 397 
Q 2534 397 2845 478 
Q 3156 559 3463 722 
L 3463 178 
Q 3153 47 2828 -22 
Q 2503 -91 2169 -91 
Q 1331 -91 842 396 
Q 353 884 353 1716 
Q 353 2575 817 3079 
Q 1281 3584 2069 3584 
Q 2775 3584 3186 3129 
Q 3597 2675 3597 1894 
z
M 3022 2063 
Q 3016 2534 2758 2815 
Q 2500 3097 2075 3097 
Q 1594 3097 1305 2825 
Q 1016 2553 972 2059 
L 3022 2063 
z
" transform="scale(0.015625)"/>
      <path id="DejaVuSans-74" d="M 1172 4494 
L 1172 3500 
L 2356 3500 
L 2356 3053 
L 1172 3053 
L 1172 1153 
Q 1172 725 1289 603 
Q 1406 481 1766 481 
L 2356 481 
L 2356 0 
L 1766 0 
Q 1100 0 847 248 
Q 594 497 594 1153 
L 594 3053 
L 172 3053 
L 172 3500 
L 594 3500 
L 594 4494 
L 1172 4494 
z
" transform="scale(0.015625)"/>
      <path id="DejaVuSans-5f" d="M 3263 -1063 
L 3263 -1509 
L -63 -1509 
L -63 -1063 
L 3263 -1063 
z
" transform="scale(0.015625)"/>
      <path id="DejaVuSans-73" d="M 2834 3397 
L 2834 2853 
Q 2591 2978 2328 3040 
Q 2066 3103 1784 3103 
Q 1356 3103 1142 2972 
Q 928 2841 928 2578 
Q 928 2378 1081 2264 
Q 1234 2150 1697 2047 
L 1894 2003 
Q 2506 1872 2764 1633 
Q 3022 1394 3022 966 
Q 3022 478 2636 193 
Q 2250 -91 1575 -91 
Q 1294 -91 989 -36 
Q 684 19 347 128 
L 347 722 
Q 666 556 975 473 
Q 1284 391 1588 391 
Q 1994 391 2212 530 
Q 2431 669 2431 922 
Q 2431 1156 2273 1281 
Q 2116 1406 1581 1522 
L 1381 1569 
Q 847 1681 609 1914 
Q 372 2147 372 2553 
Q 372 3047 722 3315 
Q 1072 3584 1716 3584 
Q 2034 3584 2315 3537 
Q 2597 3491 2834 3397 
z
" transform="scale(0.015625)"/>
      <path id="DejaVuSans-75" d="M 544 1381 
L 544 3500 
L 1119 3500 
L 1119 1403 
Q 1119 906 1312 657 
Q 1506 409 1894 409 
Q 2359 409 2629 706 
Q 2900 1003 2900 1516 
L 2900 3500 
L 3475 3500 
L 3475 0 
L 2900 0 
L 2900 538 
Q 2691 219 2414 64 
Q 2138 -91 1772 -91 
Q 1169 -91 856 284 
Q 544 659 544 1381 
z
M 1991 3584 
L 1991 3584 
z
" transform="scale(0.015625)"/>
      <path id="DejaVuSans-62" d="M 3116 1747 
Q 3116 2381 2855 2742 
Q 2594 3103 2138 3103 
Q 1681 3103 1420 2742 
Q 1159 2381 1159 1747 
Q 1159 1113 1420 752 
Q 1681 391 2138 391 
Q 2594 391 2855 752 
Q 3116 1113 3116 1747 
z
M 1159 2969 
Q 1341 3281 1617 3432 
Q 1894 3584 2278 3584 
Q 2916 3584 3314 3078 
Q 3713 2572 3713 1747 
Q 3713 922 3314 415 
Q 2916 -91 2278 -91 
Q 1894 -91 1617 61 
Q 1341 213 1159 525 
L 1159 0 
L 581 0 
L 581 4863 
L 1159 4863 
L 1159 2969 
z
" transform="scale(0.015625)"/>
      <path id="DejaVuSans-63" d="M 3122 3366 
L 3122 2828 
Q 2878 2963 2633 3030 
Q 2388 3097 2138 3097 
Q 1578 3097 1268 2742 
Q 959 2388 959 1747 
Q 959 1106 1268 751 
Q 1578 397 2138 397 
Q 2388 397 2633 464 
Q 2878 531 3122 666 
L 3122 134 
Q 2881 22 2623 -34 
Q 2366 -91 2075 -91 
Q 1284 -91 818 406 
Q 353 903 353 1747 
Q 353 2603 823 3093 
Q 1294 3584 2113 3584 
Q 2378 3584 2631 3529 
Q 2884 3475 3122 3366 
z
" transform="scale(0.015625)"/>
      <path id="DejaVuSans-72" d="M 2631 2963 
Q 2534 3019 2420 3045 
Q 2306 3072 2169 3072 
Q 1681 3072 1420 2755 
Q 1159 2438 1159 1844 
L 1159 0 
L 581 0 
L 581 3500 
L 1159 3500 
L 1159 2956 
Q 1341 3275 1631 3429 
Q 1922 3584 2338 3584 
Q 2397 3584 2469 3576 
Q 2541 3569 2628 3553 
L 2631 2963 
z
" transform="scale(0.015625)"/>
      <path id="DejaVuSans-69" d="M 603 3500 
L 1178 3500 
L 1178 0 
L 603 0 
L 603 3500 
z
M 603 4863 
L 1178 4863 
L 1178 4134 
L 603 4134 
L 603 4863 
z
" transform="scale(0.015625)"/>
      <path id="DejaVuSans-20" transform="scale(0.015625)"/>
      <path id="DejaVuSans-68" d="M 3513 2113 
L 3513 0 
L 2938 0 
L 2938 2094 
Q 2938 2591 2744 2837 
Q 2550 3084 2163 3084 
Q 1697 3084 1428 2787 
Q 1159 2491 1159 1978 
L 1159 0 
L 581 0 
L 581 4863 
L 1159 4863 
L 1159 2956 
Q 1366 3272 1645 3428 
Q 1925 3584 2291 3584 
Q 2894 3584 3203 3211 
Q 3513 2838 3513 2113 
z
" transform="scale(0.015625)"/>
      <path id="DejaVuSans-6f" d="M 1959 3097 
Q 1497 3097 1228 2736 
Q 959 2375 959 1747 
Q 959 1119 1226 758 
Q 1494 397 1959 397 
Q 2419 397 2687 759 
Q 2956 1122 2956 1747 
Q 2956 2369 2687 2733 
Q 2419 3097 1959 3097 
z
M 1959 3584 
Q 2709 3584 3137 3096 
Q 3566 2609 3566 1747 
Q 3566 888 3137 398 
Q 2709 -91 1959 -91 
Q 1206 -91 779 398 
Q 353 888 353 1747 
Q 353 2609 779 3096 
Q 1206 3584 1959 3584 
z
" transform="scale(0.015625)"/>
      <path id="DejaVuSans-79" d="M 2059 -325 
Q 1816 -950 1584 -1140 
Q 1353 -1331 966 -1331 
L 506 -1331 
L 506 -850 
L 844 -850 
Q 1081 -850 1212 -737 
Q 1344 -625 1503 -206 
L 1606 56 
L 191 3500 
L 800 3500 
L 1894 763 
L 2988 3500 
L 3597 3500 
L 2059 -325 
z
" transform="scale(0.015625)"/>
     </defs>
     <use xlink:href="#DejaVuSans-67"/>
     <use xlink:href="#DejaVuSans-65" transform="translate(63.476562 0)"/>
     <use xlink:href="#DejaVuSans-74" transform="translate(125 0)"/>
     <use xlink:href="#DejaVuSans-5f" transform="translate(164.208984 0)"/>
     <use xlink:href="#DejaVuSans-73" transform="translate(214.208984 0)"/>
     <use xlink:href="#DejaVuSans-75" transform="translate(266.308594 0)"/>
     <use xlink:href="#DejaVuSans-62" transform="translate(329.6875 0)"/>
     <use xlink:href="#DejaVuSans-73" transform="translate(393.164062 0)"/>
     <use xlink:href="#DejaVuSans-63" transform="translate(445.263672 0)"/>
     <use xlink:href="#DejaVuSans-72" transform="translate(500.244141 0)"/>
     <use xlink:href="#DejaVuSans-69" transform="translate(541.357422 0)"/>
     <use xlink:href="#DejaVuSans-62" transform="translate(569.140625 0)"/>
     <use xlink:href="#DejaVuSans-65" transform="translate(632.617188 0)"/>
     <use xlink:href="#DejaVuSans-20" transform="translate(694.140625 0)"/>
     <use xlink:href="#DejaVuSans-68" transform="translate(725.927734 0)"/>
     <use xlink:href="#DejaVuSans-69" transform="translate(789.306641 0)"/>
     <use xlink:href="#DejaVuSans-73" transform="translate(817.089844 0)"/>
     <use xlink:href="#DejaVuSans-74" transform="translate(869.189453 0)"/>
     <use xlink:href="#DejaVuSans-6f" transform="translate(908.398438 0)"/>
     <use xlink:href="#DejaVuSans-72" transform="translate(969.580078 0)"/>
     <use xlink:href="#DejaVuSans-79" transform="translate(1010.693359 0)"/>
    </g>
   </g>
   <g id="legend_1">
    <g id="line2d_41">
     <path d="M 815.08 328.498438 
L 825.08 328.498438 
L 835.08 328.498438 
" style="fill: none; stroke: #1f77b4; stroke-width: 1.5; stroke-linecap: square"/>
    </g>
    <g id="text_21">
     <!-- star -->
     <g style="fill: #a9a9a9" transform="translate(843.08 331.998438) scale(0.1 -0.1)">
      <defs>
       <path id="DejaVuSans-61" d="M 2194 1759 
Q 1497 1759 1228 1600 
Q 959 1441 959 1056 
Q 959 750 1161 570 
Q 1363 391 1709 391 
Q 2188 391 2477 730 
Q 2766 1069 2766 1631 
L 2766 1759 
L 2194 1759 
z
M 3341 1997 
L 3341 0 
L 2766 0 
L 2766 531 
Q 2569 213 2275 61 
Q 1981 -91 1556 -91 
Q 1019 -91 701 211 
Q 384 513 384 1019 
Q 384 1609 779 1909 
Q 1175 2209 1959 2209 
L 2766 2209 
L 2766 2266 
Q 2766 2663 2505 2880 
Q 2244 3097 1772 3097 
Q 1472 3097 1187 3025 
Q 903 2953 641 2809 
L 641 3341 
Q 956 3463 1253 3523 
Q 1550 3584 1831 3584 
Q 2591 3584 2966 3190 
Q 3341 2797 3341 1997 
z
" transform="scale(0.015625)"/>
      </defs>
      <use xlink:href="#DejaVuSans-73"/>
      <use xlink:href="#DejaVuSans-74" transform="translate(52.099609 0)"/>
      <use xlink:href="#DejaVuSans-61" transform="translate(91.308594 0)"/>
      <use xlink:href="#DejaVuSans-72" transform="translate(152.587891 0)"/>
     </g>
    </g>
    <g id="line2d_42">
     <path d="M 815.08 343.176562 
L 825.08 343.176562 
L 835.08 343.176562 
" style="fill: none; stroke: #ff7f0e; stroke-width: 1.5; stroke-linecap: square"/>
    </g>
    <g id="text_22">
     <!-- fork -->
     <g style="fill: #a9a9a9" transform="translate(843.08 346.676562) scale(0.1 -0.1)">
      <defs>
       <path id="DejaVuSans-66" d="M 2375 4863 
L 2375 4384 
L 1825 4384 
Q 1516 4384 1395 4259 
Q 1275 4134 1275 3809 
L 1275 3500 
L 2222 3500 
L 2222 3053 
L 1275 3053 
L 1275 0 
L 697 0 
L 697 3053 
L 147 3053 
L 147 3500 
L 697 3500 
L 697 3744 
Q 697 4328 969 4595 
Q 1241 4863 1831 4863 
L 2375 4863 
z
" transform="scale(0.015625)"/>
       <path id="DejaVuSans-6b" d="M 581 4863 
L 1159 4863 
L 1159 1991 
L 2875 3500 
L 3609 3500 
L 1753 1863 
L 3688 0 
L 2938 0 
L 1159 1709 
L 1159 0 
L 581 0 
L 581 4863 
z
" transform="scale(0.015625)"/>
      </defs>
      <use xlink:href="#DejaVuSans-66"/>
      <use xlink:href="#DejaVuSans-6f" transform="translate(35.205078 0)"/>
      <use xlink:href="#DejaVuSans-72" transform="translate(96.386719 0)"/>
      <use xlink:href="#DejaVuSans-6b" transform="translate(137.5 0)"/>
     </g>
    </g>
   </g>
  </g>
 </g>
 <defs>
  <clipPath id="p362c211311">
   <rect x="108" y="43.2" width="669.6" height="277.2"/>
  </clipPath>
 </defs>
</svg>
