<?xml version="1.0" encoding="utf-8" standalone="no"?>
<!DOCTYPE svg PUBLIC "-//W3C//DTD SVG 1.1//EN"
  "http://www.w3.org/Graphics/SVG/1.1/DTD/svg11.dtd">
<svg xmlns:xlink="http://www.w3.org/1999/xlink" width="864pt" height="360pt" viewBox="0 0 864 360" xmlns="http://www.w3.org/2000/svg" version="1.1">
 <metadata>
  <rdf:RDF xmlns:dc="http://purl.org/dc/elements/1.1/" xmlns:cc="http://creativecommons.org/ns#" xmlns:rdf="http://www.w3.org/1999/02/22-rdf-syntax-ns#">
   <cc:Work>
    <dc:type rdf:resource="http://purl.org/dc/dcmitype/StillImage"/>
    <dc:date>2024-12-21T20:05:26.009888</dc:date>
    <dc:format>image/svg+xml</dc:format>
    <dc:creator>
     <cc:Agent>
      <dc:title>Matplotlib v3.10.0, https://matplotlib.org/</dc:title>
     </cc:Agent>
    </dc:creator>
   </cc:Work>
  </rdf:RDF>
 </metadata>
 <defs>
  <style type="text/css">*{stroke-linejoin: round; stroke-linecap: butt}</style>
 </defs>
 <g id="figure_1">
  <g id="patch_1">
   <path d="M 0 360 
L 864 360 
L 864 0 
L 0 0 
L 0 360 
z
" style="fill: none; opacity: 0"/>
  </g>
  <g id="axes_1">
   <g id="patch_2">
    <path d="M 108 320.4 
L 777.6 320.4 
L 777.6 43.2 
L 108 43.2 
L 108 320.4 
z
" style="fill: none; opacity: 0"/>
   </g>
   <g id="matplotlib.axis_1">
    <g id="xtick_1">
     <g id="line2d_1">
      <path d="M 157.489625 320.4 
L 157.489625 43.2 
" clip-path="url(#p48176c7792)" style="fill: none; stroke-dasharray: 5.12,1.28,0.8,1.28; stroke-dashoffset: 0; stroke: #b0b0b0; stroke-width: 0.8"/>
     </g>
     <g id="line2d_2">
      <defs>
       <path id="md7094110a9" d="M 0 0 
L 0 3.5 
" style="stroke: #a9a9a9; stroke-width: 0.8"/>
      </defs>
      <g>
       <use xlink:href="#md7094110a9" x="157.489625" y="320.4" style="fill: #a9a9a9; stroke: #a9a9a9; stroke-width: 0.8"/>
      </g>
     </g>
     <g id="text_1">
      <!-- 2021-09 -->
      <g style="fill: #a9a9a9" transform="translate(136.598219 334.998438) scale(0.1 -0.1)">
       <defs>
        <path id="DejaVuSans-32" d="M 1228 531 
L 3431 531 
L 3431 0 
L 469 0 
L 469 531 
Q 828 903 1448 1529 
Q 2069 2156 2228 2338 
Q 2531 2678 2651 2914 
Q 2772 3150 2772 3378 
Q 2772 3750 2511 3984 
Q 2250 4219 1831 4219 
Q 1534 4219 1204 4116 
Q 875 4013 500 3803 
L 500 4441 
Q 881 4594 1212 4672 
Q 1544 4750 1819 4750 
Q 2544 4750 2975 4387 
Q 3406 4025 3406 3419 
Q 3406 3131 3298 2873 
Q 3191 2616 2906 2266 
Q 2828 2175 2409 1742 
Q 1991 1309 1228 531 
z
" transform="scale(0.015625)"/>
        <path id="DejaVuSans-30" d="M 2034 4250 
Q 1547 4250 1301 3770 
Q 1056 3291 1056 2328 
Q 1056 1369 1301 889 
Q 1547 409 2034 409 
Q 2525 409 2770 889 
Q 3016 1369 3016 2328 
Q 3016 3291 2770 3770 
Q 2525 4250 2034 4250 
z
M 2034 4750 
Q 2819 4750 3233 4129 
Q 3647 3509 3647 2328 
Q 3647 1150 3233 529 
Q 2819 -91 2034 -91 
Q 1250 -91 836 529 
Q 422 1150 422 2328 
Q 422 3509 836 4129 
Q 1250 4750 2034 4750 
z
" transform="scale(0.015625)"/>
        <path id="DejaVuSans-31" d="M 794 531 
L 1825 531 
L 1825 4091 
L 703 3866 
L 703 4441 
L 1819 4666 
L 2450 4666 
L 2450 531 
L 3481 531 
L 3481 0 
L 794 0 
L 794 531 
z
" transform="scale(0.015625)"/>
        <path id="DejaVuSans-2d" d="M 313 2009 
L 1997 2009 
L 1997 1497 
L 313 1497 
L 313 2009 
z
" transform="scale(0.015625)"/>
        <path id="DejaVuSans-39" d="M 703 97 
L 703 672 
Q 941 559 1184 500 
Q 1428 441 1663 441 
Q 2288 441 2617 861 
Q 2947 1281 2994 2138 
Q 2813 1869 2534 1725 
Q 2256 1581 1919 1581 
Q 1219 1581 811 2004 
Q 403 2428 403 3163 
Q 403 3881 828 4315 
Q 1253 4750 1959 4750 
Q 2769 4750 3195 4129 
Q 3622 3509 3622 2328 
Q 3622 1225 3098 567 
Q 2575 -91 1691 -91 
Q 1453 -91 1209 -44 
Q 966 3 703 97 
z
M 1959 2075 
Q 2384 2075 2632 2365 
Q 2881 2656 2881 3163 
Q 2881 3666 2632 3958 
Q 2384 4250 1959 4250 
Q 1534 4250 1286 3958 
Q 1038 3666 1038 3163 
Q 1038 2656 1286 2365 
Q 1534 2075 1959 2075 
z
" transform="scale(0.015625)"/>
       </defs>
       <use xlink:href="#DejaVuSans-32"/>
       <use xlink:href="#DejaVuSans-30" transform="translate(63.623047 0)"/>
       <use xlink:href="#DejaVuSans-32" transform="translate(127.246094 0)"/>
       <use xlink:href="#DejaVuSans-31" transform="translate(190.869141 0)"/>
       <use xlink:href="#DejaVuSans-2d" transform="translate(254.492188 0)"/>
       <use xlink:href="#DejaVuSans-30" transform="translate(290.576172 0)"/>
       <use xlink:href="#DejaVuSans-39" transform="translate(354.199219 0)"/>
      </g>
     </g>
    </g>
    <g id="xtick_2">
     <g id="line2d_3">
      <path d="M 217.092135 320.4 
L 217.092135 43.2 
" clip-path="url(#p48176c7792)" style="fill: none; stroke-dasharray: 5.12,1.28,0.8,1.28; stroke-dashoffset: 0; stroke: #b0b0b0; stroke-width: 0.8"/>
     </g>
     <g id="line2d_4">
      <g>
       <use xlink:href="#md7094110a9" x="217.092135" y="320.4" style="fill: #a9a9a9; stroke: #a9a9a9; stroke-width: 0.8"/>
      </g>
     </g>
     <g id="text_2">
      <!-- 2022-01 -->
      <g style="fill: #a9a9a9" transform="translate(196.200729 334.998438) scale(0.1 -0.1)">
       <use xlink:href="#DejaVuSans-32"/>
       <use xlink:href="#DejaVuSans-30" transform="translate(63.623047 0)"/>
       <use xlink:href="#DejaVuSans-32" transform="translate(127.246094 0)"/>
       <use xlink:href="#DejaVuSans-32" transform="translate(190.869141 0)"/>
       <use xlink:href="#DejaVuSans-2d" transform="translate(254.492188 0)"/>
       <use xlink:href="#DejaVuSans-30" transform="translate(290.576172 0)"/>
       <use xlink:href="#DejaVuSans-31" transform="translate(354.199219 0)"/>
      </g>
     </g>
    </g>
    <g id="xtick_3">
     <g id="line2d_5">
      <path d="M 275.717554 320.4 
L 275.717554 43.2 
" clip-path="url(#p48176c7792)" style="fill: none; stroke-dasharray: 5.12,1.28,0.8,1.28; stroke-dashoffset: 0; stroke: #b0b0b0; stroke-width: 0.8"/>
     </g>
     <g id="line2d_6">
      <g>
       <use xlink:href="#md7094110a9" x="275.717554" y="320.4" style="fill: #a9a9a9; stroke: #a9a9a9; stroke-width: 0.8"/>
      </g>
     </g>
     <g id="text_3">
      <!-- 2022-05 -->
      <g style="fill: #a9a9a9" transform="translate(254.826148 334.998438) scale(0.1 -0.1)">
       <defs>
        <path id="DejaVuSans-35" d="M 691 4666 
L 3169 4666 
L 3169 4134 
L 1269 4134 
L 1269 2991 
Q 1406 3038 1543 3061 
Q 1681 3084 1819 3084 
Q 2600 3084 3056 2656 
Q 3513 2228 3513 1497 
Q 3513 744 3044 326 
Q 2575 -91 1722 -91 
Q 1428 -91 1123 -41 
Q 819 9 494 109 
L 494 744 
Q 775 591 1075 516 
Q 1375 441 1709 441 
Q 2250 441 2565 725 
Q 2881 1009 2881 1497 
Q 2881 1984 2565 2268 
Q 2250 2553 1709 2553 
Q 1456 2553 1204 2497 
Q 953 2441 691 2322 
L 691 4666 
z
" transform="scale(0.015625)"/>
       </defs>
       <use xlink:href="#DejaVuSans-32"/>
       <use xlink:href="#DejaVuSans-30" transform="translate(63.623047 0)"/>
       <use xlink:href="#DejaVuSans-32" transform="translate(127.246094 0)"/>
       <use xlink:href="#DejaVuSans-32" transform="translate(190.869141 0)"/>
       <use xlink:href="#DejaVuSans-2d" transform="translate(254.492188 0)"/>
       <use xlink:href="#DejaVuSans-30" transform="translate(290.576172 0)"/>
       <use xlink:href="#DejaVuSans-35" transform="translate(354.199219 0)"/>
      </g>
     </g>
    </g>
    <g id="xtick_4">
     <g id="line2d_7">
      <path d="M 335.808609 320.4 
L 335.808609 43.2 
" clip-path="url(#p48176c7792)" style="fill: none; stroke-dasharray: 5.12,1.28,0.8,1.28; stroke-dashoffset: 0; stroke: #b0b0b0; stroke-width: 0.8"/>
     </g>
     <g id="line2d_8">
      <g>
       <use xlink:href="#md7094110a9" x="335.808609" y="320.4" style="fill: #a9a9a9; stroke: #a9a9a9; stroke-width: 0.8"/>
      </g>
     </g>
     <g id="text_4">
      <!-- 2022-09 -->
      <g style="fill: #a9a9a9" transform="translate(314.917203 334.998438) scale(0.1 -0.1)">
       <use xlink:href="#DejaVuSans-32"/>
       <use xlink:href="#DejaVuSans-30" transform="translate(63.623047 0)"/>
       <use xlink:href="#DejaVuSans-32" transform="translate(127.246094 0)"/>
       <use xlink:href="#DejaVuSans-32" transform="translate(190.869141 0)"/>
       <use xlink:href="#DejaVuSans-2d" transform="translate(254.492188 0)"/>
       <use xlink:href="#DejaVuSans-30" transform="translate(290.576172 0)"/>
       <use xlink:href="#DejaVuSans-39" transform="translate(354.199219 0)"/>
      </g>
     </g>
    </g>
    <g id="xtick_5">
     <g id="line2d_9">
      <path d="M 395.411119 320.4 
L 395.411119 43.2 
" clip-path="url(#p48176c7792)" style="fill: none; stroke-dasharray: 5.12,1.28,0.8,1.28; stroke-dashoffset: 0; stroke: #b0b0b0; stroke-width: 0.8"/>
     </g>
     <g id="line2d_10">
      <g>
       <use xlink:href="#md7094110a9" x="395.411119" y="320.4" style="fill: #a9a9a9; stroke: #a9a9a9; stroke-width: 0.8"/>
      </g>
     </g>
     <g id="text_5">
      <!-- 2023-01 -->
      <g style="fill: #a9a9a9" transform="translate(374.519713 334.998438) scale(0.1 -0.1)">
       <defs>
        <path id="DejaVuSans-33" d="M 2597 2516 
Q 3050 2419 3304 2112 
Q 3559 1806 3559 1356 
Q 3559 666 3084 287 
Q 2609 -91 1734 -91 
Q 1441 -91 1130 -33 
Q 819 25 488 141 
L 488 750 
Q 750 597 1062 519 
Q 1375 441 1716 441 
Q 2309 441 2620 675 
Q 2931 909 2931 1356 
Q 2931 1769 2642 2001 
Q 2353 2234 1838 2234 
L 1294 2234 
L 1294 2753 
L 1863 2753 
Q 2328 2753 2575 2939 
Q 2822 3125 2822 3475 
Q 2822 3834 2567 4026 
Q 2313 4219 1838 4219 
Q 1578 4219 1281 4162 
Q 984 4106 628 3988 
L 628 4550 
Q 988 4650 1302 4700 
Q 1616 4750 1894 4750 
Q 2613 4750 3031 4423 
Q 3450 4097 3450 3541 
Q 3450 3153 3228 2886 
Q 3006 2619 2597 2516 
z
" transform="scale(0.015625)"/>
       </defs>
       <use xlink:href="#DejaVuSans-32"/>
       <use xlink:href="#DejaVuSans-30" transform="translate(63.623047 0)"/>
       <use xlink:href="#DejaVuSans-32" transform="translate(127.246094 0)"/>
       <use xlink:href="#DejaVuSans-33" transform="translate(190.869141 0)"/>
       <use xlink:href="#DejaVuSans-2d" transform="translate(254.492188 0)"/>
       <use xlink:href="#DejaVuSans-30" transform="translate(290.576172 0)"/>
       <use xlink:href="#DejaVuSans-31" transform="translate(354.199219 0)"/>
      </g>
     </g>
    </g>
    <g id="xtick_6">
     <g id="line2d_11">
      <path d="M 454.036539 320.4 
L 454.036539 43.2 
" clip-path="url(#p48176c7792)" style="fill: none; stroke-dasharray: 5.12,1.28,0.8,1.28; stroke-dashoffset: 0; stroke: #b0b0b0; stroke-width: 0.8"/>
     </g>
     <g id="line2d_12">
      <g>
       <use xlink:href="#md7094110a9" x="454.036539" y="320.4" style="fill: #a9a9a9; stroke: #a9a9a9; stroke-width: 0.8"/>
      </g>
     </g>
     <g id="text_6">
      <!-- 2023-05 -->
      <g style="fill: #a9a9a9" transform="translate(433.145132 334.998438) scale(0.1 -0.1)">
       <use xlink:href="#DejaVuSans-32"/>
       <use xlink:href="#DejaVuSans-30" transform="translate(63.623047 0)"/>
       <use xlink:href="#DejaVuSans-32" transform="translate(127.246094 0)"/>
       <use xlink:href="#DejaVuSans-33" transform="translate(190.869141 0)"/>
       <use xlink:href="#DejaVuSans-2d" transform="translate(254.492188 0)"/>
       <use xlink:href="#DejaVuSans-30" transform="translate(290.576172 0)"/>
       <use xlink:href="#DejaVuSans-35" transform="translate(354.199219 0)"/>
      </g>
     </g>
    </g>
    <g id="xtick_7">
     <g id="line2d_13">
      <path d="M 514.127594 320.4 
L 514.127594 43.2 
" clip-path="url(#p48176c7792)" style="fill: none; stroke-dasharray: 5.12,1.28,0.8,1.28; stroke-dashoffset: 0; stroke: #b0b0b0; stroke-width: 0.8"/>
     </g>
     <g id="line2d_14">
      <g>
       <use xlink:href="#md7094110a9" x="514.127594" y="320.4" style="fill: #a9a9a9; stroke: #a9a9a9; stroke-width: 0.8"/>
      </g>
     </g>
     <g id="text_7">
      <!-- 2023-09 -->
      <g style="fill: #a9a9a9" transform="translate(493.236188 334.998438) scale(0.1 -0.1)">
       <use xlink:href="#DejaVuSans-32"/>
       <use xlink:href="#DejaVuSans-30" transform="translate(63.623047 0)"/>
       <use xlink:href="#DejaVuSans-32" transform="translate(127.246094 0)"/>
       <use xlink:href="#DejaVuSans-33" transform="translate(190.869141 0)"/>
       <use xlink:href="#DejaVuSans-2d" transform="translate(254.492188 0)"/>
       <use xlink:href="#DejaVuSans-30" transform="translate(290.576172 0)"/>
       <use xlink:href="#DejaVuSans-39" transform="translate(354.199219 0)"/>
      </g>
     </g>
    </g>
    <g id="xtick_8">
     <g id="line2d_15">
      <path d="M 573.730104 320.4 
L 573.730104 43.2 
" clip-path="url(#p48176c7792)" style="fill: none; stroke-dasharray: 5.12,1.28,0.8,1.28; stroke-dashoffset: 0; stroke: #b0b0b0; stroke-width: 0.8"/>
     </g>
     <g id="line2d_16">
      <g>
       <use xlink:href="#md7094110a9" x="573.730104" y="320.4" style="fill: #a9a9a9; stroke: #a9a9a9; stroke-width: 0.8"/>
      </g>
     </g>
     <g id="text_8">
      <!-- 2024-01 -->
      <g style="fill: #a9a9a9" transform="translate(552.838697 334.998438) scale(0.1 -0.1)">
       <defs>
        <path id="DejaVuSans-34" d="M 2419 4116 
L 825 1625 
L 2419 1625 
L 2419 4116 
z
M 2253 4666 
L 3047 4666 
L 3047 1625 
L 3713 1625 
L 3713 1100 
L 3047 1100 
L 3047 0 
L 2419 0 
L 2419 1100 
L 313 1100 
L 313 1709 
L 2253 4666 
z
" transform="scale(0.015625)"/>
       </defs>
       <use xlink:href="#DejaVuSans-32"/>
       <use xlink:href="#DejaVuSans-30" transform="translate(63.623047 0)"/>
       <use xlink:href="#DejaVuSans-32" transform="translate(127.246094 0)"/>
       <use xlink:href="#DejaVuSans-34" transform="translate(190.869141 0)"/>
       <use xlink:href="#DejaVuSans-2d" transform="translate(254.492188 0)"/>
       <use xlink:href="#DejaVuSans-30" transform="translate(290.576172 0)"/>
       <use xlink:href="#DejaVuSans-31" transform="translate(354.199219 0)"/>
      </g>
     </g>
    </g>
    <g id="xtick_9">
     <g id="line2d_17">
      <path d="M 632.844068 320.4 
L 632.844068 43.2 
" clip-path="url(#p48176c7792)" style="fill: none; stroke-dasharray: 5.12,1.28,0.8,1.28; stroke-dashoffset: 0; stroke: #b0b0b0; stroke-width: 0.8"/>
     </g>
     <g id="line2d_18">
      <g>
       <use xlink:href="#md7094110a9" x="632.844068" y="320.4" style="fill: #a9a9a9; stroke: #a9a9a9; stroke-width: 0.8"/>
      </g>
     </g>
     <g id="text_9">
      <!-- 2024-05 -->
      <g style="fill: #a9a9a9" transform="translate(611.952662 334.998438) scale(0.1 -0.1)">
       <use xlink:href="#DejaVuSans-32"/>
       <use xlink:href="#DejaVuSans-30" transform="translate(63.623047 0)"/>
       <use xlink:href="#DejaVuSans-32" transform="translate(127.246094 0)"/>
       <use xlink:href="#DejaVuSans-34" transform="translate(190.869141 0)"/>
       <use xlink:href="#DejaVuSans-2d" transform="translate(254.492188 0)"/>
       <use xlink:href="#DejaVuSans-30" transform="translate(290.576172 0)"/>
       <use xlink:href="#DejaVuSans-35" transform="translate(354.199219 0)"/>
      </g>
     </g>
    </g>
    <g id="xtick_10">
     <g id="line2d_19">
      <path d="M 692.935123 320.4 
L 692.935123 43.2 
" clip-path="url(#p48176c7792)" style="fill: none; stroke-dasharray: 5.12,1.28,0.8,1.28; stroke-dashoffset: 0; stroke: #b0b0b0; stroke-width: 0.8"/>
     </g>
     <g id="line2d_20">
      <g>
       <use xlink:href="#md7094110a9" x="692.935123" y="320.4" style="fill: #a9a9a9; stroke: #a9a9a9; stroke-width: 0.8"/>
      </g>
     </g>
     <g id="text_10">
      <!-- 2024-09 -->
      <g style="fill: #a9a9a9" transform="translate(672.043717 334.998438) scale(0.1 -0.1)">
       <use xlink:href="#DejaVuSans-32"/>
       <use xlink:href="#DejaVuSans-30" transform="translate(63.623047 0)"/>
       <use xlink:href="#DejaVuSans-32" transform="translate(127.246094 0)"/>
       <use xlink:href="#DejaVuSans-34" transform="translate(190.869141 0)"/>
       <use xlink:href="#DejaVuSans-2d" transform="translate(254.492188 0)"/>
       <use xlink:href="#DejaVuSans-30" transform="translate(290.576172 0)"/>
       <use xlink:href="#DejaVuSans-39" transform="translate(354.199219 0)"/>
      </g>
     </g>
    </g>
    <g id="xtick_11">
     <g id="line2d_21">
      <path d="M 752.537633 320.4 
L 752.537633 43.2 
" clip-path="url(#p48176c7792)" style="fill: none; stroke-dasharray: 5.12,1.28,0.8,1.28; stroke-dashoffset: 0; stroke: #b0b0b0; stroke-width: 0.8"/>
     </g>
     <g id="line2d_22">
      <g>
       <use xlink:href="#md7094110a9" x="752.537633" y="320.4" style="fill: #a9a9a9; stroke: #a9a9a9; stroke-width: 0.8"/>
      </g>
     </g>
     <g id="text_11">
      <!-- 2025-01 -->
      <g style="fill: #a9a9a9" transform="translate(731.646227 334.998438) scale(0.1 -0.1)">
       <use xlink:href="#DejaVuSans-32"/>
       <use xlink:href="#DejaVuSans-30" transform="translate(63.623047 0)"/>
       <use xlink:href="#DejaVuSans-32" transform="translate(127.246094 0)"/>
       <use xlink:href="#DejaVuSans-35" transform="translate(190.869141 0)"/>
       <use xlink:href="#DejaVuSans-2d" transform="translate(254.492188 0)"/>
       <use xlink:href="#DejaVuSans-30" transform="translate(290.576172 0)"/>
       <use xlink:href="#DejaVuSans-31" transform="translate(354.199219 0)"/>
      </g>
     </g>
    </g>
   </g>
   <g id="matplotlib.axis_2">
    <g id="ytick_1">
     <g id="line2d_23">
      <path d="M 108 307.835423 
L 777.6 307.835423 
" clip-path="url(#p48176c7792)" style="fill: none; stroke-dasharray: 5.12,1.28,0.8,1.28; stroke-dashoffset: 0; stroke: #b0b0b0; stroke-width: 0.8"/>
     </g>
     <g id="line2d_24">
      <defs>
       <path id="me539dec75a" d="M 0 0 
L -3.5 0 
" style="stroke: #a9a9a9; stroke-width: 0.8"/>
      </defs>
      <g>
       <use xlink:href="#me539dec75a" x="108" y="307.835423" style="fill: #a9a9a9; stroke: #a9a9a9; stroke-width: 0.8"/>
      </g>
     </g>
     <g id="text_12">
      <!-- 0 -->
      <g style="fill: #a9a9a9" transform="translate(94.6375 311.634642) scale(0.1 -0.1)">
       <use xlink:href="#DejaVuSans-30"/>
      </g>
     </g>
    </g>
    <g id="ytick_2">
     <g id="line2d_25">
      <path d="M 108 279.496936 
L 777.6 279.496936 
" clip-path="url(#p48176c7792)" style="fill: none; stroke-dasharray: 5.12,1.28,0.8,1.28; stroke-dashoffset: 0; stroke: #b0b0b0; stroke-width: 0.8"/>
     </g>
     <g id="line2d_26">
      <g>
       <use xlink:href="#me539dec75a" x="108" y="279.496936" style="fill: #a9a9a9; stroke: #a9a9a9; stroke-width: 0.8"/>
      </g>
     </g>
     <g id="text_13">
      <!-- 800 -->
      <g style="fill: #a9a9a9" transform="translate(81.9125 283.296154) scale(0.1 -0.1)">
       <defs>
        <path id="DejaVuSans-38" d="M 2034 2216 
Q 1584 2216 1326 1975 
Q 1069 1734 1069 1313 
Q 1069 891 1326 650 
Q 1584 409 2034 409 
Q 2484 409 2743 651 
Q 3003 894 3003 1313 
Q 3003 1734 2745 1975 
Q 2488 2216 2034 2216 
z
M 1403 2484 
Q 997 2584 770 2862 
Q 544 3141 544 3541 
Q 544 4100 942 4425 
Q 1341 4750 2034 4750 
Q 2731 4750 3128 4425 
Q 3525 4100 3525 3541 
Q 3525 3141 3298 2862 
Q 3072 2584 2669 2484 
Q 3125 2378 3379 2068 
Q 3634 1759 3634 1313 
Q 3634 634 3220 271 
Q 2806 -91 2034 -91 
Q 1263 -91 848 271 
Q 434 634 434 1313 
Q 434 1759 690 2068 
Q 947 2378 1403 2484 
z
M 1172 3481 
Q 1172 3119 1398 2916 
Q 1625 2713 2034 2713 
Q 2441 2713 2670 2916 
Q 2900 3119 2900 3481 
Q 2900 3844 2670 4047 
Q 2441 4250 2034 4250 
Q 1625 4250 1398 4047 
Q 1172 3844 1172 3481 
z
" transform="scale(0.015625)"/>
       </defs>
       <use xlink:href="#DejaVuSans-38"/>
       <use xlink:href="#DejaVuSans-30" transform="translate(63.623047 0)"/>
       <use xlink:href="#DejaVuSans-30" transform="translate(127.246094 0)"/>
      </g>
     </g>
    </g>
    <g id="ytick_3">
     <g id="line2d_27">
      <path d="M 108 251.158448 
L 777.6 251.158448 
" clip-path="url(#p48176c7792)" style="fill: none; stroke-dasharray: 5.12,1.28,0.8,1.28; stroke-dashoffset: 0; stroke: #b0b0b0; stroke-width: 0.8"/>
     </g>
     <g id="line2d_28">
      <g>
       <use xlink:href="#me539dec75a" x="108" y="251.158448" style="fill: #a9a9a9; stroke: #a9a9a9; stroke-width: 0.8"/>
      </g>
     </g>
     <g id="text_14">
      <!-- 1600 -->
      <g style="fill: #a9a9a9" transform="translate(75.55 254.957667) scale(0.1 -0.1)">
       <defs>
        <path id="DejaVuSans-36" d="M 2113 2584 
Q 1688 2584 1439 2293 
Q 1191 2003 1191 1497 
Q 1191 994 1439 701 
Q 1688 409 2113 409 
Q 2538 409 2786 701 
Q 3034 994 3034 1497 
Q 3034 2003 2786 2293 
Q 2538 2584 2113 2584 
z
M 3366 4563 
L 3366 3988 
Q 3128 4100 2886 4159 
Q 2644 4219 2406 4219 
Q 1781 4219 1451 3797 
Q 1122 3375 1075 2522 
Q 1259 2794 1537 2939 
Q 1816 3084 2150 3084 
Q 2853 3084 3261 2657 
Q 3669 2231 3669 1497 
Q 3669 778 3244 343 
Q 2819 -91 2113 -91 
Q 1303 -91 875 529 
Q 447 1150 447 2328 
Q 447 3434 972 4092 
Q 1497 4750 2381 4750 
Q 2619 4750 2861 4703 
Q 3103 4656 3366 4563 
z
" transform="scale(0.015625)"/>
       </defs>
       <use xlink:href="#DejaVuSans-31"/>
       <use xlink:href="#DejaVuSans-36" transform="translate(63.623047 0)"/>
       <use xlink:href="#DejaVuSans-30" transform="translate(127.246094 0)"/>
       <use xlink:href="#DejaVuSans-30" transform="translate(190.869141 0)"/>
      </g>
     </g>
    </g>
    <g id="ytick_4">
     <g id="line2d_29">
      <path d="M 108 222.819961 
L 777.6 222.819961 
" clip-path="url(#p48176c7792)" style="fill: none; stroke-dasharray: 5.12,1.28,0.8,1.28; stroke-dashoffset: 0; stroke: #b0b0b0; stroke-width: 0.8"/>
     </g>
     <g id="line2d_30">
      <g>
       <use xlink:href="#me539dec75a" x="108" y="222.819961" style="fill: #a9a9a9; stroke: #a9a9a9; stroke-width: 0.8"/>
      </g>
     </g>
     <g id="text_15">
      <!-- 2400 -->
      <g style="fill: #a9a9a9" transform="translate(75.55 226.619179) scale(0.1 -0.1)">
       <use xlink:href="#DejaVuSans-32"/>
       <use xlink:href="#DejaVuSans-34" transform="translate(63.623047 0)"/>
       <use xlink:href="#DejaVuSans-30" transform="translate(127.246094 0)"/>
       <use xlink:href="#DejaVuSans-30" transform="translate(190.869141 0)"/>
      </g>
     </g>
    </g>
    <g id="ytick_5">
     <g id="line2d_31">
      <path d="M 108 194.481473 
L 777.6 194.481473 
" clip-path="url(#p48176c7792)" style="fill: none; stroke-dasharray: 5.12,1.28,0.8,1.28; stroke-dashoffset: 0; stroke: #b0b0b0; stroke-width: 0.8"/>
     </g>
     <g id="line2d_32">
      <g>
       <use xlink:href="#me539dec75a" x="108" y="194.481473" style="fill: #a9a9a9; stroke: #a9a9a9; stroke-width: 0.8"/>
      </g>
     </g>
     <g id="text_16">
      <!-- 3200 -->
      <g style="fill: #a9a9a9" transform="translate(75.55 198.280692) scale(0.1 -0.1)">
       <use xlink:href="#DejaVuSans-33"/>
       <use xlink:href="#DejaVuSans-32" transform="translate(63.623047 0)"/>
       <use xlink:href="#DejaVuSans-30" transform="translate(127.246094 0)"/>
       <use xlink:href="#DejaVuSans-30" transform="translate(190.869141 0)"/>
      </g>
     </g>
    </g>
    <g id="ytick_6">
     <g id="line2d_33">
      <path d="M 108 166.142986 
L 777.6 166.142986 
" clip-path="url(#p48176c7792)" style="fill: none; stroke-dasharray: 5.12,1.28,0.8,1.28; stroke-dashoffset: 0; stroke: #b0b0b0; stroke-width: 0.8"/>
     </g>
     <g id="line2d_34">
      <g>
       <use xlink:href="#me539dec75a" x="108" y="166.142986" style="fill: #a9a9a9; stroke: #a9a9a9; stroke-width: 0.8"/>
      </g>
     </g>
     <g id="text_17">
      <!-- 4000 -->
      <g style="fill: #a9a9a9" transform="translate(75.55 169.942204) scale(0.1 -0.1)">
       <use xlink:href="#DejaVuSans-34"/>
       <use xlink:href="#DejaVuSans-30" transform="translate(63.623047 0)"/>
       <use xlink:href="#DejaVuSans-30" transform="translate(127.246094 0)"/>
       <use xlink:href="#DejaVuSans-30" transform="translate(190.869141 0)"/>
      </g>
     </g>
    </g>
    <g id="ytick_7">
     <g id="line2d_35">
      <path d="M 108 137.804498 
L 777.6 137.804498 
" clip-path="url(#p48176c7792)" style="fill: none; stroke-dasharray: 5.12,1.28,0.8,1.28; stroke-dashoffset: 0; stroke: #b0b0b0; stroke-width: 0.8"/>
     </g>
     <g id="line2d_36">
      <g>
       <use xlink:href="#me539dec75a" x="108" y="137.804498" style="fill: #a9a9a9; stroke: #a9a9a9; stroke-width: 0.8"/>
      </g>
     </g>
     <g id="text_18">
      <!-- 4800 -->
      <g style="fill: #a9a9a9" transform="translate(75.55 141.603717) scale(0.1 -0.1)">
       <use xlink:href="#DejaVuSans-34"/>
       <use xlink:href="#DejaVuSans-38" transform="translate(63.623047 0)"/>
       <use xlink:href="#DejaVuSans-30" transform="translate(127.246094 0)"/>
       <use xlink:href="#DejaVuSans-30" transform="translate(190.869141 0)"/>
      </g>
     </g>
    </g>
    <g id="ytick_8">
     <g id="line2d_37">
      <path d="M 108 109.466011 
L 777.6 109.466011 
" clip-path="url(#p48176c7792)" style="fill: none; stroke-dasharray: 5.12,1.28,0.8,1.28; stroke-dashoffset: 0; stroke: #b0b0b0; stroke-width: 0.8"/>
     </g>
     <g id="line2d_38">
      <g>
       <use xlink:href="#me539dec75a" x="108" y="109.466011" style="fill: #a9a9a9; stroke: #a9a9a9; stroke-width: 0.8"/>
      </g>
     </g>
     <g id="text_19">
      <!-- 5600 -->
      <g style="fill: #a9a9a9" transform="translate(75.55 113.265229) scale(0.1 -0.1)">
       <use xlink:href="#DejaVuSans-35"/>
       <use xlink:href="#DejaVuSans-36" transform="translate(63.623047 0)"/>
       <use xlink:href="#DejaVuSans-30" transform="translate(127.246094 0)"/>
       <use xlink:href="#DejaVuSans-30" transform="translate(190.869141 0)"/>
      </g>
     </g>
    </g>
    <g id="ytick_9">
     <g id="line2d_39">
      <path d="M 108 81.127523 
L 777.6 81.127523 
" clip-path="url(#p48176c7792)" style="fill: none; stroke-dasharray: 5.12,1.28,0.8,1.28; stroke-dashoffset: 0; stroke: #b0b0b0; stroke-width: 0.8"/>
     </g>
     <g id="line2d_40">
      <g>
       <use xlink:href="#me539dec75a" x="108" y="81.127523" style="fill: #a9a9a9; stroke: #a9a9a9; stroke-width: 0.8"/>
      </g>
     </g>
     <g id="text_20">
      <!-- 6400 -->
      <g style="fill: #a9a9a9" transform="translate(75.55 84.926742) scale(0.1 -0.1)">
       <use xlink:href="#DejaVuSans-36"/>
       <use xlink:href="#DejaVuSans-34" transform="translate(63.623047 0)"/>
       <use xlink:href="#DejaVuSans-30" transform="translate(127.246094 0)"/>
       <use xlink:href="#DejaVuSans-30" transform="translate(190.869141 0)"/>
      </g>
     </g>
    </g>
    <g id="ytick_10">
     <g id="line2d_41">
      <path d="M 108 52.789036 
L 777.6 52.789036 
" clip-path="url(#p48176c7792)" style="fill: none; stroke-dasharray: 5.12,1.28,0.8,1.28; stroke-dashoffset: 0; stroke: #b0b0b0; stroke-width: 0.8"/>
     </g>
     <g id="line2d_42">
      <g>
       <use xlink:href="#me539dec75a" x="108" y="52.789036" style="fill: #a9a9a9; stroke: #a9a9a9; stroke-width: 0.8"/>
      </g>
     </g>
     <g id="text_21">
      <!-- 7200 -->
      <g style="fill: #a9a9a9" transform="translate(75.55 56.588254) scale(0.1 -0.1)">
       <defs>
        <path id="DejaVuSans-37" d="M 525 4666 
L 3525 4666 
L 3525 4397 
L 1831 0 
L 1172 0 
L 2766 4134 
L 525 4134 
L 525 4666 
z
" transform="scale(0.015625)"/>
       </defs>
       <use xlink:href="#DejaVuSans-37"/>
       <use xlink:href="#DejaVuSans-32" transform="translate(63.623047 0)"/>
       <use xlink:href="#DejaVuSans-30" transform="translate(127.246094 0)"/>
       <use xlink:href="#DejaVuSans-30" transform="translate(190.869141 0)"/>
      </g>
     </g>
    </g>
   </g>
   <g id="line2d_43">
    <path d="M 138.436364 307.729154 
L 141.367635 307.481192 
L 141.85618 307.268653 
L 143.81036 307.020692 
L 145.764541 306.631037 
L 146.741631 306.489345 
L 149.184357 306.276806 
L 150.161448 305.887152 
L 150.649993 305.249536 
L 151.138538 304.895305 
L 151.627083 303.797189 
L 152.115628 303.726342 
L 152.604173 303.336688 
L 153.581264 302.840765 
L 155.535444 301.282148 
L 157.489625 300.325724 
L 158.95526 299.652685 
L 159.443806 298.873376 
L 160.420896 298.164914 
L 160.909441 297.952376 
L 165.794893 297.243913 
L 166.283438 297.031375 
L 169.703254 296.74799 
L 171.657435 296.287489 
L 175.565796 295.756143 
L 176.054341 295.508181 
L 176.542886 295.437335 
L 177.519977 295.118527 
L 180.939793 294.551757 
L 181.916883 294.268372 
L 186.31379 293.524487 
L 187.29088 293.311948 
L 188.26797 293.276525 
L 190.222151 292.816025 
L 190.710696 292.142986 
L 192.176332 291.576216 
L 193.641967 291.186562 
L 194.130512 290.9386 
L 195.107603 290.761484 
L 197.061783 290.194715 
L 198.038873 290.123868 
L 199.015964 289.875907 
L 200.970144 289.379983 
L 201.45869 289.34456 
L 202.43578 288.88406 
L 202.924325 288.813213 
L 203.41287 288.565252 
L 208.786867 287.679674 
L 210.741048 287.112904 
L 211.229593 286.794096 
L 213.672319 285.979365 
L 214.649409 285.306326 
L 216.115045 285.022941 
L 228.817219 281.445207 
L 229.305764 281.445207 
L 229.794309 281.232668 
L 230.771399 281.126399 
L 231.259945 280.949283 
L 233.214125 280.843014 
L 234.191216 280.665898 
L 235.168306 280.169975 
L 236.633941 279.638628 
L 237.122487 279.31982 
L 238.099577 278.894743 
L 238.588122 278.646781 
L 239.565212 278.327973 
L 240.053757 278.186281 
L 241.030848 277.584088 
L 241.519393 277.052741 
L 242.496483 275.56497 
L 242.985028 275.423278 
L 243.473574 275.423278 
L 244.939209 274.573123 
L 245.427754 274.325162 
L 245.916299 274.218892 
L 246.404845 273.758392 
L 247.381935 273.368738 
L 248.359025 272.908237 
L 248.84757 272.306044 
L 249.336116 271.526736 
L 249.824661 271.207928 
L 250.313206 270.357773 
L 250.801751 269.826427 
L 253.733022 268.26781 
L 254.710112 267.488502 
L 255.198658 267.169694 
L 255.687203 266.425808 
L 256.175748 265.327692 
L 256.664293 264.583807 
L 257.152838 264.194152 
L 257.641383 263.981614 
L 261.061199 261.076919 
L 262.03829 259.907956 
L 263.503925 258.880686 
L 265.458106 257.711723 
L 266.435196 257.180377 
L 268.389377 256.153107 
L 270.832103 253.956874 
L 271.809193 253.56722 
L 272.786283 252.89418 
L 273.274829 252.610796 
L 273.763374 252.539949 
L 275.229009 251.725218 
L 275.717554 251.193871 
L 278.16028 249.883216 
L 278.648825 249.706101 
L 280.114461 248.714254 
L 287.442638 246.128367 
L 288.419729 245.242789 
L 289.396819 244.782288 
L 290.373909 244.250942 
L 290.862454 243.967557 
L 291.839545 243.684172 
L 292.32809 243.365364 
L 292.816635 243.223672 
L 294.282271 242.267248 
L 296.724996 241.700478 
L 298.190632 240.850323 
L 299.656267 240.531515 
L 300.144812 240.389823 
L 301.610448 239.291706 
L 303.564629 238.76036 
L 304.053174 238.370706 
L 306.984445 237.378859 
L 307.961535 237.201743 
L 308.938625 236.812089 
L 312.358442 235.57228 
L 313.335532 235.430588 
L 314.801167 234.934664 
L 317.243893 233.765701 
L 319.198074 232.703008 
L 323.106435 231.108968 
L 323.59498 231.038122 
L 324.572071 230.435929 
L 325.060616 230.365083 
L 327.014796 229.550351 
L 328.968977 229.30239 
L 329.946067 228.806466 
L 330.434613 228.381389 
L 330.923158 227.495811 
L 332.877338 226.964464 
L 334.342974 226.220579 
L 334.831519 226.11431 
L 338.73988 224.236885 
L 340.205516 223.9535 
L 341.182606 223.457577 
L 341.671151 223.245038 
L 342.159696 223.174192 
L 344.113877 222.288614 
L 345.579513 221.367613 
L 347.045148 221.084228 
L 349.487874 220.482035 
L 349.976419 220.092381 
L 351.442055 219.561035 
L 353.396235 218.781726 
L 353.88478 218.427495 
L 354.373326 218.25038 
L 355.350416 217.719033 
L 357.793142 216.904301 
L 359.258777 215.735339 
L 359.747322 215.629069 
L 360.724413 214.849761 
L 361.212958 214.778915 
L 361.701503 213.999606 
L 362.190048 213.787068 
L 362.678593 213.397414 
L 363.167138 213.326567 
L 364.144229 212.724374 
L 365.121319 212.405566 
L 365.609864 212.051335 
L 366.098409 211.87422 
L 367.564045 210.84695 
L 369.518226 209.81968 
L 370.006771 209.748833 
L 371.472406 209.004948 
L 371.960951 208.190216 
L 372.938042 207.481754 
L 373.426587 207.375485 
L 374.403677 206.773292 
L 374.892222 206.667023 
L 375.869313 206.171099 
L 377.823493 205.214675 
L 378.312039 204.860444 
L 379.289129 203.90402 
L 380.266219 203.301827 
L 380.754764 202.983019 
L 381.243309 202.451673 
L 383.19749 201.105595 
L 383.686035 200.538825 
L 384.17458 200.149171 
L 385.151671 199.79494 
L 386.128761 199.1219 
L 387.594397 198.378015 
L 388.082942 198.307169 
L 389.548577 197.527861 
L 390.525668 196.925668 
L 395.411119 195.154512 
L 395.899664 194.764858 
L 397.853845 194.020973 
L 398.34239 193.87928 
L 399.319481 193.241664 
L 400.296571 192.816587 
L 401.273661 192.143548 
L 402.250751 190.195277 
L 403.227842 189.061737 
L 404.693477 188.317852 
L 405.670568 187.928198 
L 406.159113 187.857352 
L 406.647658 187.573967 
L 409.090384 186.794658 
L 409.578929 186.58212 
L 410.556019 185.909081 
L 412.021655 185.271465 
L 412.998745 184.740118 
L 413.48729 184.385887 
L 413.975835 184.173348 
L 414.464381 183.819117 
L 414.952926 183.287771 
L 415.930016 182.756424 
L 418.372742 181.445769 
L 421.304013 179.993421 
L 422.769648 179.568344 
L 424.235284 179.001574 
L 424.723829 178.647343 
L 425.700919 178.363958 
L 426.67801 177.974304 
L 427.166555 177.58465 
L 429.120735 176.911611 
L 430.097826 176.203149 
L 431.074916 175.778071 
L 432.052006 174.998763 
L 433.029097 174.644532 
L 433.517642 174.219455 
L 434.006187 174.148608 
L 434.983277 173.404723 
L 435.960368 172.9088 
L 436.448913 172.696261 
L 436.937458 172.200337 
L 440.357274 170.854259 
L 441.334365 170.429182 
L 442.8 169.968681 
L 443.77709 169.826989 
L 444.265635 169.61445 
L 444.754181 169.543604 
L 445.731271 169.118527 
L 446.219816 169.083104 
L 448.173997 168.339218 
L 449.639632 167.311948 
L 450.128177 167.134833 
L 451.105268 166.603486 
L 451.593813 166.461794 
L 454.525084 164.832331 
L 455.013629 164.726061 
L 456.479265 163.875907 
L 457.9449 163.379983 
L 458.92199 163.061175 
L 460.876171 162.423559 
L 461.853261 162.104751 
L 463.807442 161.715097 
L 464.295987 161.502558 
L 464.784532 161.431712 
L 465.761623 161.006635 
L 466.250168 160.935789 
L 466.738713 160.687827 
L 467.715803 160.510711 
L 469.181439 159.979365 
L 470.158529 159.873095 
L 471.624165 159.554287 
L 474.06689 159.12921 
L 486.769065 155.445207 
L 487.25761 154.949283 
L 488.2347 154.559629 
L 492.143061 153.107281 
L 492.631607 152.823897 
L 494.097242 152.398819 
L 495.074332 152.150857 
L 495.562878 151.832049 
L 496.051423 151.72578 
L 496.539968 151.300703 
L 498.005603 151.017318 
L 498.982694 150.556818 
L 499.471239 149.990048 
L 501.42542 149.529547 
L 504.845236 148.821085 
L 505.333781 148.821085 
L 505.822326 148.608547 
L 507.776507 148.254315 
L 508.265052 148.041777 
L 510.219232 147.687546 
L 511.196323 147.262468 
L 512.173413 147.085353 
L 514.616139 146.48316 
L 516.57032 145.880967 
L 517.058865 145.774698 
L 517.54741 145.526736 
L 518.5245 145.278774 
L 519.013045 144.995389 
L 520.478681 144.499466 
L 520.967226 144.180658 
L 521.944316 143.897273 
L 525.852678 142.551195 
L 526.829768 142.480349 
L 528.783949 141.913579 
L 529.272494 141.630194 
L 530.249584 141.346809 
L 532.69231 140.248693 
L 533.180855 140.21327 
L 538.554852 138.335845 
L 540.997578 137.698229 
L 541.974668 137.237728 
L 543.440304 136.91892 
L 545.394484 135.324881 
L 546.371574 135.041496 
L 546.86012 134.651841 
L 549.791391 133.553725 
L 550.279936 133.234917 
L 551.257026 132.951532 
L 551.745571 132.632724 
L 554.188297 131.853416 
L 555.653933 131.003261 
L 556.142478 130.896992 
L 558.585204 129.586337 
L 560.050839 128.948721 
L 560.539384 128.59449 
L 561.516475 128.275682 
L 562.493565 127.708912 
L 562.98211 127.531796 
L 563.470655 127.177565 
L 569.821742 124.945909 
L 570.310287 124.83964 
L 570.798833 124.520832 
L 572.753013 124.131178 
L 573.730104 123.741524 
L 576.661375 122.324599 
L 577.14992 122.253753 
L 578.615555 121.439022 
L 580.081191 120.943098 
L 583.501007 119.561597 
L 583.989552 119.419904 
L 584.478097 119.101096 
L 585.455188 118.994827 
L 585.943733 118.676019 
L 586.920823 118.498904 
L 587.897913 118.038403 
L 588.386458 117.825864 
L 588.875004 117.755018 
L 591.317729 116.798594 
L 592.783365 116.40894 
L 593.760455 116.160978 
L 595.226091 115.735901 
L 596.203181 115.346247 
L 598.157362 114.283554 
L 599.134452 113.893899 
L 599.622997 113.575091 
L 600.600088 113.362553 
L 601.088633 113.079168 
L 601.577178 112.972899 
L 603.042813 112.158167 
L 604.019904 111.768513 
L 605.974084 111.024627 
L 608.41681 110.209896 
L 609.3939 109.713972 
L 611.836626 108.899241 
L 614.767897 107.730278 
L 616.722078 106.844701 
L 621.60753 104.967276 
L 622.096075 104.648468 
L 624.050255 103.975429 
L 624.538801 103.975429 
L 625.515891 103.550351 
L 627.470072 101.991735 
L 627.958617 101.850042 
L 628.447162 101.531234 
L 628.935707 101.424965 
L 629.424252 101.177003 
L 629.912797 101.106157 
L 630.401342 100.751926 
L 630.889888 100.645656 
L 631.866978 100.043464 
L 633.332613 99.299578 
L 634.309704 98.909924 
L 634.798249 98.661962 
L 636.263884 98.343154 
L 638.70661 97.528423 
L 639.683701 97.209615 
L 641.149336 96.46573 
L 642.126426 96.005229 
L 643.103517 95.757267 
L 644.569152 95.084228 
L 648.966059 93.490188 
L 650.431694 92.604611 
L 650.920239 92.498341 
L 651.89733 92.002418 
L 652.87442 91.648187 
L 653.362965 91.223109 
L 654.340055 90.833455 
L 657.271326 89.664493 
L 658.736962 89.239415 
L 659.225507 88.991453 
L 659.714052 88.920607 
L 661.179688 88.389261 
L 662.645323 87.857914 
L 663.622414 87.46826 
L 664.110959 87.078606 
L 665.576594 86.688951 
L 666.065139 86.405566 
L 667.04223 86.157605 
L 668.507865 85.342873 
L 668.99641 85.30745 
L 670.462046 84.84695 
L 671.439136 84.776103 
L 672.416226 84.386449 
L 675.347497 83.536295 
L 676.324588 83.500872 
L 680.232949 82.261063 
L 681.210039 81.729716 
L 681.698585 81.304639 
L 683.16422 80.454484 
L 684.14131 79.852291 
L 687.072581 78.93129 
L 687.561127 78.541636 
L 690.492397 77.33725 
L 692.446578 76.805904 
L 693.423668 76.380827 
L 693.912214 76.132865 
L 694.889304 75.84948 
L 695.377849 75.566095 
L 696.354939 75.388979 
L 698.797665 74.25544 
L 699.28621 73.972055 
L 700.751846 73.617824 
L 701.240391 73.299016 
L 701.728936 73.1219 
L 702.217481 72.696823 
L 702.706027 72.625977 
L 705.148752 71.669553 
L 706.614388 71.350745 
L 707.102933 71.279899 
L 707.591478 71.06736 
L 708.080023 71.031937 
L 709.057114 70.713129 
L 709.545659 70.677706 
L 711.011294 70.110936 
L 712.965475 69.544166 
L 713.942565 68.800281 
L 715.896746 67.737588 
L 717.362381 67.241664 
L 720.293652 65.931009 
L 721.270743 65.399663 
L 721.759288 65.151701 
L 722.247833 64.6912 
L 725.179104 63.734776 
L 726.156194 63.345122 
L 727.133285 63.061737 
L 727.62183 62.813776 
L 728.110375 62.353275 
L 730.064556 61.857352 
L 730.553101 61.503121 
L 736.904188 59.200618 
L 737.881278 59.023503 
L 742.278185 57.500309 
L 743.255275 57.252347 
L 743.74382 57.039809 
L 744.232365 57.004386 
L 745.209456 56.614732 
L 746.186546 56.012539 
L 746.675091 55.835423 
L 747.163636 55.8 
L 747.163636 55.8 
" clip-path="url(#p48176c7792)" style="fill: none; stroke: #1f77b4; stroke-width: 1.5; stroke-linecap: square"/>
   </g>
   <g id="line2d_44">
    <path d="M 138.924909 307.8 
L 143.321815 307.693731 
L 147.230177 307.516615 
L 149.184357 307.516615 
L 149.672902 307.374923 
L 152.115628 307.268653 
L 155.046899 306.949845 
L 157.97817 306.843576 
L 158.95526 306.737307 
L 162.375077 306.595614 
L 165.794893 306.489345 
L 168.237619 306.418499 
L 174.588706 306.312229 
L 177.031431 306.241383 
L 180.451248 306.135114 
L 182.893973 306.064268 
L 188.26797 305.957998 
L 190.222151 305.780883 
L 192.176332 305.74546 
L 195.107603 305.63919 
L 197.061783 305.603767 
L 199.504509 305.532921 
L 201.45869 305.355805 
L 205.855596 305.249536 
L 206.832686 305.17869 
L 208.786867 305.072421 
L 211.718138 304.966151 
L 213.672319 304.859882 
L 222.466132 304.328535 
L 225.885948 304.222266 
L 227.351583 304.080574 
L 229.794309 303.974304 
L 234.679761 303.726342 
L 239.565212 303.655496 
L 241.519393 303.442958 
L 243.473574 303.336688 
L 248.84757 302.840765 
L 252.267387 302.45111 
L 253.733022 302.380264 
L 258.129928 301.848918 
L 260.572654 301.778071 
L 262.03829 301.636379 
L 263.503925 301.53011 
L 277.18319 300.502839 
L 278.16028 300.325724 
L 281.091551 300.219455 
L 288.908274 299.758954 
L 292.32809 299.652685 
L 294.282271 299.440146 
L 296.724996 299.333877 
L 299.656267 299.227608 
L 302.098993 299.121338 
L 304.053174 299.085915 
L 306.4959 299.015069 
L 307.47299 298.873376 
L 314.312622 298.767107 
L 315.289713 298.660838 
L 321.152254 298.554568 
L 325.549161 298.34203 
L 328.968977 298.23576 
L 330.923158 298.023222 
L 334.342974 297.916952 
L 335.320064 297.739837 
L 337.76279 297.668991 
L 342.648242 297.598145 
L 345.090967 297.350183 
L 348.022238 297.243913 
L 349.976419 297.066798 
L 354.861871 296.818836 
L 359.747322 296.712567 
L 364.144229 296.500028 
L 365.609864 296.464605 
L 366.586955 296.322913 
L 369.02968 296.216643 
L 370.006771 296.145797 
L 370.983861 296.074951 
L 371.960951 296.004105 
L 376.357858 295.933258 
L 377.823493 295.826989 
L 391.014213 294.976834 
L 393.456939 294.870565 
L 395.899664 294.799719 
L 402.739297 294.69345 
L 403.716387 294.551757 
L 410.556019 294.445488 
L 415.441471 294.197526 
L 416.418561 294.162103 
L 417.395652 294.055834 
L 419.838377 293.949564 
L 422.281103 293.878718 
L 424.723829 293.772449 
L 427.166555 293.701602 
L 431.563461 293.595333 
L 434.494732 293.489064 
L 441.334365 293.382794 
L 446.708361 293.09941 
L 448.662542 293.028563 
L 450.128177 292.922294 
L 456.96781 292.816025 
L 459.899081 292.709755 
L 468.692894 292.603486 
L 470.647074 292.568063 
L 476.509616 292.497217 
L 477.486707 292.426371 
L 484.326339 292.320101 
L 486.280519 292.284678 
L 498.982694 292.178409 
L 500.448329 292.036716 
L 522.432862 291.930447 
L 524.875587 291.859601 
L 537.577762 291.753331 
L 538.554852 291.682485 
L 540.997578 291.611639 
L 542.463213 291.469947 
L 545.394484 291.363677 
L 548.8143 291.221985 
L 553.211207 291.115715 
L 555.653933 291.044869 
L 559.073749 290.9386 
L 562.98211 290.761484 
L 565.424836 290.655215 
L 567.379016 290.619792 
L 571.775923 290.513523 
L 573.730104 290.4781 
L 580.081191 290.37183 
L 582.035371 290.336407 
L 584.478097 290.230138 
L 587.409368 290.123868 
L 590.829184 290.053022 
L 591.806275 289.982176 
L 603.531359 289.875907 
L 609.882446 289.521676 
L 612.325171 289.450829 
L 613.302262 289.34456 
L 614.279352 289.273714 
L 618.187713 289.167444 
L 621.118984 289.061175 
L 626.004436 288.954906 
L 628.447162 288.706944 
L 633.332613 288.600675 
L 634.309704 288.494405 
L 639.195155 288.388136 
L 641.637881 288.31729 
L 647.011878 288.281867 
L 647.988968 288.175597 
L 653.362965 288.069328 
L 654.340055 287.998482 
L 665.088049 287.892213 
L 668.01932 287.785943 
L 675.347497 287.679674 
L 677.301678 287.644251 
L 681.698585 287.573405 
L 682.675675 287.467135 
L 689.026762 287.360866 
L 691.469488 287.29002 
L 700.263301 287.18375 
L 701.728936 287.077481 
L 703.194572 286.971212 
L 704.660207 286.864942 
L 711.988385 286.758673 
L 714.919656 286.652404 
L 728.110375 286.546134 
L 732.507281 286.333596 
L 738.369823 286.227326 
L 739.346914 286.121057 
L 747.163636 286.014788 
L 747.163636 286.014788 
" clip-path="url(#p48176c7792)" style="fill: none; stroke: #ff7f0e; stroke-width: 1.5; stroke-linecap: square"/>
   </g>
   <g id="patch_3">
    <path d="M 108 320.4 
L 108 43.2 
" style="fill: none; stroke: #a9a9a9; stroke-width: 0.8; stroke-linejoin: miter; stroke-linecap: square"/>
   </g>
   <g id="patch_4">
    <path d="M 777.6 320.4 
L 777.6 43.2 
" style="fill: none"/>
   </g>
   <g id="patch_5">
    <path d="M 108 320.4 
L 777.6 320.4 
" style="fill: none; stroke: #a9a9a9; stroke-width: 0.8; stroke-linejoin: miter; stroke-linecap: square"/>
   </g>
   <g id="patch_6">
    <path d="M 108 43.2 
L 777.6 43.2 
" style="fill: none"/>
   </g>
   <g id="text_22">
    <!-- get_subscribe history -->
    <g style="fill: #a9a9a9" transform="translate(378.6075 37.2) scale(0.12 -0.12)">
     <defs>
      <path id="DejaVuSans-67" d="M 2906 1791 
Q 2906 2416 2648 2759 
Q 2391 3103 1925 3103 
Q 1463 3103 1205 2759 
Q 947 2416 947 1791 
Q 947 1169 1205 825 
Q 1463 481 1925 481 
Q 2391 481 2648 825 
Q 2906 1169 2906 1791 
z
M 3481 434 
Q 3481 -459 3084 -895 
Q 2688 -1331 1869 -1331 
Q 1566 -1331 1297 -1286 
Q 1028 -1241 775 -1147 
L 775 -588 
Q 1028 -725 1275 -790 
Q 1522 -856 1778 -856 
Q 2344 -856 2625 -561 
Q 2906 -266 2906 331 
L 2906 616 
Q 2728 306 2450 153 
Q 2172 0 1784 0 
Q 1141 0 747 490 
Q 353 981 353 1791 
Q 353 2603 747 3093 
Q 1141 3584 1784 3584 
Q 2172 3584 2450 3431 
Q 2728 3278 2906 2969 
L 2906 3500 
L 3481 3500 
L 3481 434 
z
" transform="scale(0.015625)"/>
      <path id="DejaVuSans-65" d="M 3597 1894 
L 3597 1613 
L 953 1613 
Q 991 1019 1311 708 
Q 1631 397 2203 397 
Q 2534 397 2845 478 
Q 3156 559 3463 722 
L 3463 178 
Q 3153 47 2828 -22 
Q 2503 -91 2169 -91 
Q 1331 -91 842 396 
Q 353 884 353 1716 
Q 353 2575 817 3079 
Q 1281 3584 2069 3584 
Q 2775 3584 3186 3129 
Q 3597 2675 3597 1894 
z
M 3022 2063 
Q 3016 2534 2758 2815 
Q 2500 3097 2075 3097 
Q 1594 3097 1305 2825 
Q 1016 2553 972 2059 
L 3022 2063 
z
" transform="scale(0.015625)"/>
      <path id="DejaVuSans-74" d="M 1172 4494 
L 1172 3500 
L 2356 3500 
L 2356 3053 
L 1172 3053 
L 1172 1153 
Q 1172 725 1289 603 
Q 1406 481 1766 481 
L 2356 481 
L 2356 0 
L 1766 0 
Q 1100 0 847 248 
Q 594 497 594 1153 
L 594 3053 
L 172 3053 
L 172 3500 
L 594 3500 
L 594 4494 
L 1172 4494 
z
" transform="scale(0.015625)"/>
      <path id="DejaVuSans-5f" d="M 3263 -1063 
L 3263 -1509 
L -63 -1509 
L -63 -1063 
L 3263 -1063 
z
" transform="scale(0.015625)"/>
      <path id="DejaVuSans-73" d="M 2834 3397 
L 2834 2853 
Q 2591 2978 2328 3040 
Q 2066 3103 1784 3103 
Q 1356 3103 1142 2972 
Q 928 2841 928 2578 
Q 928 2378 1081 2264 
Q 1234 2150 1697 2047 
L 1894 2003 
Q 2506 1872 2764 1633 
Q 3022 1394 3022 966 
Q 3022 478 2636 193 
Q 2250 -91 1575 -91 
Q 1294 -91 989 -36 
Q 684 19 347 128 
L 347 722 
Q 666 556 975 473 
Q 1284 391 1588 391 
Q 1994 391 2212 530 
Q 2431 669 2431 922 
Q 2431 1156 2273 1281 
Q 2116 1406 1581 1522 
L 1381 1569 
Q 847 1681 609 1914 
Q 372 2147 372 2553 
Q 372 3047 722 3315 
Q 1072 3584 1716 3584 
Q 2034 3584 2315 3537 
Q 2597 3491 2834 3397 
z
" transform="scale(0.015625)"/>
      <path id="DejaVuSans-75" d="M 544 1381 
L 544 3500 
L 1119 3500 
L 1119 1403 
Q 1119 906 1312 657 
Q 1506 409 1894 409 
Q 2359 409 2629 706 
Q 2900 1003 2900 1516 
L 2900 3500 
L 3475 3500 
L 3475 0 
L 2900 0 
L 2900 538 
Q 2691 219 2414 64 
Q 2138 -91 1772 -91 
Q 1169 -91 856 284 
Q 544 659 544 1381 
z
M 1991 3584 
L 1991 3584 
z
" transform="scale(0.015625)"/>
      <path id="DejaVuSans-62" d="M 3116 1747 
Q 3116 2381 2855 2742 
Q 2594 3103 2138 3103 
Q 1681 3103 1420 2742 
Q 1159 2381 1159 1747 
Q 1159 1113 1420 752 
Q 1681 391 2138 391 
Q 2594 391 2855 752 
Q 3116 1113 3116 1747 
z
M 1159 2969 
Q 1341 3281 1617 3432 
Q 1894 3584 2278 3584 
Q 2916 3584 3314 3078 
Q 3713 2572 3713 1747 
Q 3713 922 3314 415 
Q 2916 -91 2278 -91 
Q 1894 -91 1617 61 
Q 1341 213 1159 525 
L 1159 0 
L 581 0 
L 581 4863 
L 1159 4863 
L 1159 2969 
z
" transform="scale(0.015625)"/>
      <path id="DejaVuSans-63" d="M 3122 3366 
L 3122 2828 
Q 2878 2963 2633 3030 
Q 2388 3097 2138 3097 
Q 1578 3097 1268 2742 
Q 959 2388 959 1747 
Q 959 1106 1268 751 
Q 1578 397 2138 397 
Q 2388 397 2633 464 
Q 2878 531 3122 666 
L 3122 134 
Q 2881 22 2623 -34 
Q 2366 -91 2075 -91 
Q 1284 -91 818 406 
Q 353 903 353 1747 
Q 353 2603 823 3093 
Q 1294 3584 2113 3584 
Q 2378 3584 2631 3529 
Q 2884 3475 3122 3366 
z
" transform="scale(0.015625)"/>
      <path id="DejaVuSans-72" d="M 2631 2963 
Q 2534 3019 2420 3045 
Q 2306 3072 2169 3072 
Q 1681 3072 1420 2755 
Q 1159 2438 1159 1844 
L 1159 0 
L 581 0 
L 581 3500 
L 1159 3500 
L 1159 2956 
Q 1341 3275 1631 3429 
Q 1922 3584 2338 3584 
Q 2397 3584 2469 3576 
Q 2541 3569 2628 3553 
L 2631 2963 
z
" transform="scale(0.015625)"/>
      <path id="DejaVuSans-69" d="M 603 3500 
L 1178 3500 
L 1178 0 
L 603 0 
L 603 3500 
z
M 603 4863 
L 1178 4863 
L 1178 4134 
L 603 4134 
L 603 4863 
z
" transform="scale(0.015625)"/>
      <path id="DejaVuSans-20" transform="scale(0.015625)"/>
      <path id="DejaVuSans-68" d="M 3513 2113 
L 3513 0 
L 2938 0 
L 2938 2094 
Q 2938 2591 2744 2837 
Q 2550 3084 2163 3084 
Q 1697 3084 1428 2787 
Q 1159 2491 1159 1978 
L 1159 0 
L 581 0 
L 581 4863 
L 1159 4863 
L 1159 2956 
Q 1366 3272 1645 3428 
Q 1925 3584 2291 3584 
Q 2894 3584 3203 3211 
Q 3513 2838 3513 2113 
z
" transform="scale(0.015625)"/>
      <path id="DejaVuSans-6f" d="M 1959 3097 
Q 1497 3097 1228 2736 
Q 959 2375 959 1747 
Q 959 1119 1226 758 
Q 1494 397 1959 397 
Q 2419 397 2687 759 
Q 2956 1122 2956 1747 
Q 2956 2369 2687 2733 
Q 2419 3097 1959 3097 
z
M 1959 3584 
Q 2709 3584 3137 3096 
Q 3566 2609 3566 1747 
Q 3566 888 3137 398 
Q 2709 -91 1959 -91 
Q 1206 -91 779 398 
Q 353 888 353 1747 
Q 353 2609 779 3096 
Q 1206 3584 1959 3584 
z
" transform="scale(0.015625)"/>
      <path id="DejaVuSans-79" d="M 2059 -325 
Q 1816 -950 1584 -1140 
Q 1353 -1331 966 -1331 
L 506 -1331 
L 506 -850 
L 844 -850 
Q 1081 -850 1212 -737 
Q 1344 -625 1503 -206 
L 1606 56 
L 191 3500 
L 800 3500 
L 1894 763 
L 2988 3500 
L 3597 3500 
L 2059 -325 
z
" transform="scale(0.015625)"/>
     </defs>
     <use xlink:href="#DejaVuSans-67"/>
     <use xlink:href="#DejaVuSans-65" transform="translate(63.476562 0)"/>
     <use xlink:href="#DejaVuSans-74" transform="translate(125 0)"/>
     <use xlink:href="#DejaVuSans-5f" transform="translate(164.208984 0)"/>
     <use xlink:href="#DejaVuSans-73" transform="translate(214.208984 0)"/>
     <use xlink:href="#DejaVuSans-75" transform="translate(266.308594 0)"/>
     <use xlink:href="#DejaVuSans-62" transform="translate(329.6875 0)"/>
     <use xlink:href="#DejaVuSans-73" transform="translate(393.164062 0)"/>
     <use xlink:href="#DejaVuSans-63" transform="translate(445.263672 0)"/>
     <use xlink:href="#DejaVuSans-72" transform="translate(500.244141 0)"/>
     <use xlink:href="#DejaVuSans-69" transform="translate(541.357422 0)"/>
     <use xlink:href="#DejaVuSans-62" transform="translate(569.140625 0)"/>
     <use xlink:href="#DejaVuSans-65" transform="translate(632.617188 0)"/>
     <use xlink:href="#DejaVuSans-20" transform="translate(694.140625 0)"/>
     <use xlink:href="#DejaVuSans-68" transform="translate(725.927734 0)"/>
     <use xlink:href="#DejaVuSans-69" transform="translate(789.306641 0)"/>
     <use xlink:href="#DejaVuSans-73" transform="translate(817.089844 0)"/>
     <use xlink:href="#DejaVuSans-74" transform="translate(869.189453 0)"/>
     <use xlink:href="#DejaVuSans-6f" transform="translate(908.398438 0)"/>
     <use xlink:href="#DejaVuSans-72" transform="translate(969.580078 0)"/>
     <use xlink:href="#DejaVuSans-79" transform="translate(1010.693359 0)"/>
    </g>
   </g>
   <g id="legend_1">
    <g id="line2d_45">
     <path d="M 815.08 328.498438 
L 825.08 328.498438 
L 835.08 328.498438 
" style="fill: none; stroke: #1f77b4; stroke-width: 1.5; stroke-linecap: square"/>
    </g>
    <g id="text_23">
     <!-- star -->
     <g style="fill: #a9a9a9" transform="translate(843.08 331.998438) scale(0.1 -0.1)">
      <defs>
       <path id="DejaVuSans-61" d="M 2194 1759 
Q 1497 1759 1228 1600 
Q 959 1441 959 1056 
Q 959 750 1161 570 
Q 1363 391 1709 391 
Q 2188 391 2477 730 
Q 2766 1069 2766 1631 
L 2766 1759 
L 2194 1759 
z
M 3341 1997 
L 3341 0 
L 2766 0 
L 2766 531 
Q 2569 213 2275 61 
Q 1981 -91 1556 -91 
Q 1019 -91 701 211 
Q 384 513 384 1019 
Q 384 1609 779 1909 
Q 1175 2209 1959 2209 
L 2766 2209 
L 2766 2266 
Q 2766 2663 2505 2880 
Q 2244 3097 1772 3097 
Q 1472 3097 1187 3025 
Q 903 2953 641 2809 
L 641 3341 
Q 956 3463 1253 3523 
Q 1550 3584 1831 3584 
Q 2591 3584 2966 3190 
Q 3341 2797 3341 1997 
z
" transform="scale(0.015625)"/>
      </defs>
      <use xlink:href="#DejaVuSans-73"/>
      <use xlink:href="#DejaVuSans-74" transform="translate(52.099609 0)"/>
      <use xlink:href="#DejaVuSans-61" transform="translate(91.308594 0)"/>
      <use xlink:href="#DejaVuSans-72" transform="translate(152.587891 0)"/>
     </g>
    </g>
    <g id="line2d_46">
     <path d="M 815.08 343.176562 
L 825.08 343.176562 
L 835.08 343.176562 
" style="fill: none; stroke: #ff7f0e; stroke-width: 1.5; stroke-linecap: square"/>
    </g>
    <g id="text_24">
     <!-- fork -->
     <g style="fill: #a9a9a9" transform="translate(843.08 346.676562) scale(0.1 -0.1)">
      <defs>
       <path id="DejaVuSans-66" d="M 2375 4863 
L 2375 4384 
L 1825 4384 
Q 1516 4384 1395 4259 
Q 1275 4134 1275 3809 
L 1275 3500 
L 2222 3500 
L 2222 3053 
L 1275 3053 
L 1275 0 
L 697 0 
L 697 3053 
L 147 3053 
L 147 3500 
L 697 3500 
L 697 3744 
Q 697 4328 969 4595 
Q 1241 4863 1831 4863 
L 2375 4863 
z
" transform="scale(0.015625)"/>
       <path id="DejaVuSans-6b" d="M 581 4863 
L 1159 4863 
L 1159 1991 
L 2875 3500 
L 3609 3500 
L 1753 1863 
L 3688 0 
L 2938 0 
L 1159 1709 
L 1159 0 
L 581 0 
L 581 4863 
z
" transform="scale(0.015625)"/>
      </defs>
      <use xlink:href="#DejaVuSans-66"/>
      <use xlink:href="#DejaVuSans-6f" transform="translate(35.205078 0)"/>
      <use xlink:href="#DejaVuSans-72" transform="translate(96.386719 0)"/>
      <use xlink:href="#DejaVuSans-6b" transform="translate(137.5 0)"/>
     </g>
    </g>
   </g>
  </g>
 </g>
 <defs>
  <clipPath id="p48176c7792">
   <rect x="108" y="43.2" width="669.6" height="277.2"/>
  </clipPath>
 </defs>
</svg>
