<?xml version="1.0" encoding="utf-8" standalone="no"?>
<!DOCTYPE svg PUBLIC "-//W3C//DTD SVG 1.1//EN"
  "http://www.w3.org/Graphics/SVG/1.1/DTD/svg11.dtd">
<svg xmlns:xlink="http://www.w3.org/1999/xlink" width="864pt" height="360pt" viewBox="0 0 864 360" xmlns="http://www.w3.org/2000/svg" version="1.1">
 <metadata>
  <rdf:RDF xmlns:dc="http://purl.org/dc/elements/1.1/" xmlns:cc="http://creativecommons.org/ns#" xmlns:rdf="http://www.w3.org/1999/02/22-rdf-syntax-ns#">
   <cc:Work>
    <dc:type rdf:resource="http://purl.org/dc/dcmitype/StillImage"/>
    <dc:date>2025-09-20T08:14:16.476028</dc:date>
    <dc:format>image/svg+xml</dc:format>
    <dc:creator>
     <cc:Agent>
      <dc:title>Matplotlib v3.10.6, https://matplotlib.org/</dc:title>
     </cc:Agent>
    </dc:creator>
   </cc:Work>
  </rdf:RDF>
 </metadata>
 <defs>
  <style type="text/css">*{stroke-linejoin: round; stroke-linecap: butt}</style>
 </defs>
 <g id="figure_1">
  <g id="patch_1">
   <path d="M 0 360 
L 864 360 
L 864 0 
L 0 0 
L 0 360 
z
" style="fill: none; opacity: 0"/>
  </g>
  <g id="axes_1">
   <g id="patch_2">
    <path d="M 108 320.4 
L 777.6 320.4 
L 777.6 43.2 
L 108 43.2 
L 108 320.4 
z
" style="fill: none; opacity: 0"/>
   </g>
   <g id="matplotlib.axis_1">
    <g id="xtick_1">
     <g id="line2d_1">
      <path d="M 129.219295 320.4 
L 129.219295 43.2 
" clip-path="url(#p5cdba4c0db)" style="fill: none; stroke-dasharray: 5.12,1.28,0.8,1.28; stroke-dashoffset: 0; stroke: #b0b0b0; stroke-width: 0.8"/>
     </g>
     <g id="line2d_2">
      <defs>
       <path id="med1e0cd6ba" d="M 0 0 
L 0 3.5 
" style="stroke: #a9a9a9; stroke-width: 0.8"/>
      </defs>
      <g>
       <use xlink:href="#med1e0cd6ba" x="129.219295" y="320.4" style="fill: #a9a9a9; stroke: #a9a9a9; stroke-width: 0.8"/>
      </g>
     </g>
     <g id="text_1">
      <!-- 2021-07 -->
      <g style="fill: #a9a9a9" transform="translate(108.327889 334.998438) scale(0.1 -0.1)">
       <defs>
        <path id="DejaVuSans-32" d="M 1228 531 
L 3431 531 
L 3431 0 
L 469 0 
L 469 531 
Q 828 903 1448 1529 
Q 2069 2156 2228 2338 
Q 2531 2678 2651 2914 
Q 2772 3150 2772 3378 
Q 2772 3750 2511 3984 
Q 2250 4219 1831 4219 
Q 1534 4219 1204 4116 
Q 875 4013 500 3803 
L 500 4441 
Q 881 4594 1212 4672 
Q 1544 4750 1819 4750 
Q 2544 4750 2975 4387 
Q 3406 4025 3406 3419 
Q 3406 3131 3298 2873 
Q 3191 2616 2906 2266 
Q 2828 2175 2409 1742 
Q 1991 1309 1228 531 
z
" transform="scale(0.015625)"/>
        <path id="DejaVuSans-30" d="M 2034 4250 
Q 1547 4250 1301 3770 
Q 1056 3291 1056 2328 
Q 1056 1369 1301 889 
Q 1547 409 2034 409 
Q 2525 409 2770 889 
Q 3016 1369 3016 2328 
Q 3016 3291 2770 3770 
Q 2525 4250 2034 4250 
z
M 2034 4750 
Q 2819 4750 3233 4129 
Q 3647 3509 3647 2328 
Q 3647 1150 3233 529 
Q 2819 -91 2034 -91 
Q 1250 -91 836 529 
Q 422 1150 422 2328 
Q 422 3509 836 4129 
Q 1250 4750 2034 4750 
z
" transform="scale(0.015625)"/>
        <path id="DejaVuSans-31" d="M 794 531 
L 1825 531 
L 1825 4091 
L 703 3866 
L 703 4441 
L 1819 4666 
L 2450 4666 
L 2450 531 
L 3481 531 
L 3481 0 
L 794 0 
L 794 531 
z
" transform="scale(0.015625)"/>
        <path id="DejaVuSans-2d" d="M 313 2009 
L 1997 2009 
L 1997 1497 
L 313 1497 
L 313 2009 
z
" transform="scale(0.015625)"/>
        <path id="DejaVuSans-37" d="M 525 4666 
L 3525 4666 
L 3525 4397 
L 1831 0 
L 1172 0 
L 2766 4134 
L 525 4134 
L 525 4666 
z
" transform="scale(0.015625)"/>
       </defs>
       <use xlink:href="#DejaVuSans-32"/>
       <use xlink:href="#DejaVuSans-30" transform="translate(63.623047 0)"/>
       <use xlink:href="#DejaVuSans-32" transform="translate(127.246094 0)"/>
       <use xlink:href="#DejaVuSans-31" transform="translate(190.869141 0)"/>
       <use xlink:href="#DejaVuSans-2d" transform="translate(254.492188 0)"/>
       <use xlink:href="#DejaVuSans-30" transform="translate(290.576172 0)"/>
       <use xlink:href="#DejaVuSans-37" transform="translate(354.199219 0)"/>
      </g>
     </g>
    </g>
    <g id="xtick_2">
     <g id="line2d_3">
      <path d="M 202.955844 320.4 
L 202.955844 43.2 
" clip-path="url(#p5cdba4c0db)" style="fill: none; stroke-dasharray: 5.12,1.28,0.8,1.28; stroke-dashoffset: 0; stroke: #b0b0b0; stroke-width: 0.8"/>
     </g>
     <g id="line2d_4">
      <g>
       <use xlink:href="#med1e0cd6ba" x="202.955844" y="320.4" style="fill: #a9a9a9; stroke: #a9a9a9; stroke-width: 0.8"/>
      </g>
     </g>
     <g id="text_2">
      <!-- 2022-01 -->
      <g style="fill: #a9a9a9" transform="translate(182.064438 334.998438) scale(0.1 -0.1)">
       <use xlink:href="#DejaVuSans-32"/>
       <use xlink:href="#DejaVuSans-30" transform="translate(63.623047 0)"/>
       <use xlink:href="#DejaVuSans-32" transform="translate(127.246094 0)"/>
       <use xlink:href="#DejaVuSans-32" transform="translate(190.869141 0)"/>
       <use xlink:href="#DejaVuSans-2d" transform="translate(254.492188 0)"/>
       <use xlink:href="#DejaVuSans-30" transform="translate(290.576172 0)"/>
       <use xlink:href="#DejaVuSans-31" transform="translate(354.199219 0)"/>
      </g>
     </g>
    </g>
    <g id="xtick_3">
     <g id="line2d_5">
      <path d="M 275.490167 320.4 
L 275.490167 43.2 
" clip-path="url(#p5cdba4c0db)" style="fill: none; stroke-dasharray: 5.12,1.28,0.8,1.28; stroke-dashoffset: 0; stroke: #b0b0b0; stroke-width: 0.8"/>
     </g>
     <g id="line2d_6">
      <g>
       <use xlink:href="#med1e0cd6ba" x="275.490167" y="320.4" style="fill: #a9a9a9; stroke: #a9a9a9; stroke-width: 0.8"/>
      </g>
     </g>
     <g id="text_3">
      <!-- 2022-07 -->
      <g style="fill: #a9a9a9" transform="translate(254.598761 334.998438) scale(0.1 -0.1)">
       <use xlink:href="#DejaVuSans-32"/>
       <use xlink:href="#DejaVuSans-30" transform="translate(63.623047 0)"/>
       <use xlink:href="#DejaVuSans-32" transform="translate(127.246094 0)"/>
       <use xlink:href="#DejaVuSans-32" transform="translate(190.869141 0)"/>
       <use xlink:href="#DejaVuSans-2d" transform="translate(254.492188 0)"/>
       <use xlink:href="#DejaVuSans-30" transform="translate(290.576172 0)"/>
       <use xlink:href="#DejaVuSans-37" transform="translate(354.199219 0)"/>
      </g>
     </g>
    </g>
    <g id="xtick_4">
     <g id="line2d_7">
      <path d="M 349.226716 320.4 
L 349.226716 43.2 
" clip-path="url(#p5cdba4c0db)" style="fill: none; stroke-dasharray: 5.12,1.28,0.8,1.28; stroke-dashoffset: 0; stroke: #b0b0b0; stroke-width: 0.8"/>
     </g>
     <g id="line2d_8">
      <g>
       <use xlink:href="#med1e0cd6ba" x="349.226716" y="320.4" style="fill: #a9a9a9; stroke: #a9a9a9; stroke-width: 0.8"/>
      </g>
     </g>
     <g id="text_4">
      <!-- 2023-01 -->
      <g style="fill: #a9a9a9" transform="translate(328.33531 334.998438) scale(0.1 -0.1)">
       <defs>
        <path id="DejaVuSans-33" d="M 2597 2516 
Q 3050 2419 3304 2112 
Q 3559 1806 3559 1356 
Q 3559 666 3084 287 
Q 2609 -91 1734 -91 
Q 1441 -91 1130 -33 
Q 819 25 488 141 
L 488 750 
Q 750 597 1062 519 
Q 1375 441 1716 441 
Q 2309 441 2620 675 
Q 2931 909 2931 1356 
Q 2931 1769 2642 2001 
Q 2353 2234 1838 2234 
L 1294 2234 
L 1294 2753 
L 1863 2753 
Q 2328 2753 2575 2939 
Q 2822 3125 2822 3475 
Q 2822 3834 2567 4026 
Q 2313 4219 1838 4219 
Q 1578 4219 1281 4162 
Q 984 4106 628 3988 
L 628 4550 
Q 988 4650 1302 4700 
Q 1616 4750 1894 4750 
Q 2613 4750 3031 4423 
Q 3450 4097 3450 3541 
Q 3450 3153 3228 2886 
Q 3006 2619 2597 2516 
z
" transform="scale(0.015625)"/>
       </defs>
       <use xlink:href="#DejaVuSans-32"/>
       <use xlink:href="#DejaVuSans-30" transform="translate(63.623047 0)"/>
       <use xlink:href="#DejaVuSans-32" transform="translate(127.246094 0)"/>
       <use xlink:href="#DejaVuSans-33" transform="translate(190.869141 0)"/>
       <use xlink:href="#DejaVuSans-2d" transform="translate(254.492188 0)"/>
       <use xlink:href="#DejaVuSans-30" transform="translate(290.576172 0)"/>
       <use xlink:href="#DejaVuSans-31" transform="translate(354.199219 0)"/>
      </g>
     </g>
    </g>
    <g id="xtick_5">
     <g id="line2d_9">
      <path d="M 421.761039 320.4 
L 421.761039 43.2 
" clip-path="url(#p5cdba4c0db)" style="fill: none; stroke-dasharray: 5.12,1.28,0.8,1.28; stroke-dashoffset: 0; stroke: #b0b0b0; stroke-width: 0.8"/>
     </g>
     <g id="line2d_10">
      <g>
       <use xlink:href="#med1e0cd6ba" x="421.761039" y="320.4" style="fill: #a9a9a9; stroke: #a9a9a9; stroke-width: 0.8"/>
      </g>
     </g>
     <g id="text_5">
      <!-- 2023-07 -->
      <g style="fill: #a9a9a9" transform="translate(400.869633 334.998438) scale(0.1 -0.1)">
       <use xlink:href="#DejaVuSans-32"/>
       <use xlink:href="#DejaVuSans-30" transform="translate(63.623047 0)"/>
       <use xlink:href="#DejaVuSans-32" transform="translate(127.246094 0)"/>
       <use xlink:href="#DejaVuSans-33" transform="translate(190.869141 0)"/>
       <use xlink:href="#DejaVuSans-2d" transform="translate(254.492188 0)"/>
       <use xlink:href="#DejaVuSans-30" transform="translate(290.576172 0)"/>
       <use xlink:href="#DejaVuSans-37" transform="translate(354.199219 0)"/>
      </g>
     </g>
    </g>
    <g id="xtick_6">
     <g id="line2d_11">
      <path d="M 495.497588 320.4 
L 495.497588 43.2 
" clip-path="url(#p5cdba4c0db)" style="fill: none; stroke-dasharray: 5.12,1.28,0.8,1.28; stroke-dashoffset: 0; stroke: #b0b0b0; stroke-width: 0.8"/>
     </g>
     <g id="line2d_12">
      <g>
       <use xlink:href="#med1e0cd6ba" x="495.497588" y="320.4" style="fill: #a9a9a9; stroke: #a9a9a9; stroke-width: 0.8"/>
      </g>
     </g>
     <g id="text_6">
      <!-- 2024-01 -->
      <g style="fill: #a9a9a9" transform="translate(474.606182 334.998438) scale(0.1 -0.1)">
       <defs>
        <path id="DejaVuSans-34" d="M 2419 4116 
L 825 1625 
L 2419 1625 
L 2419 4116 
z
M 2253 4666 
L 3047 4666 
L 3047 1625 
L 3713 1625 
L 3713 1100 
L 3047 1100 
L 3047 0 
L 2419 0 
L 2419 1100 
L 313 1100 
L 313 1709 
L 2253 4666 
z
" transform="scale(0.015625)"/>
       </defs>
       <use xlink:href="#DejaVuSans-32"/>
       <use xlink:href="#DejaVuSans-30" transform="translate(63.623047 0)"/>
       <use xlink:href="#DejaVuSans-32" transform="translate(127.246094 0)"/>
       <use xlink:href="#DejaVuSans-34" transform="translate(190.869141 0)"/>
       <use xlink:href="#DejaVuSans-2d" transform="translate(254.492188 0)"/>
       <use xlink:href="#DejaVuSans-30" transform="translate(290.576172 0)"/>
       <use xlink:href="#DejaVuSans-31" transform="translate(354.199219 0)"/>
      </g>
     </g>
    </g>
    <g id="xtick_7">
     <g id="line2d_13">
      <path d="M 568.432653 320.4 
L 568.432653 43.2 
" clip-path="url(#p5cdba4c0db)" style="fill: none; stroke-dasharray: 5.12,1.28,0.8,1.28; stroke-dashoffset: 0; stroke: #b0b0b0; stroke-width: 0.8"/>
     </g>
     <g id="line2d_14">
      <g>
       <use xlink:href="#med1e0cd6ba" x="568.432653" y="320.4" style="fill: #a9a9a9; stroke: #a9a9a9; stroke-width: 0.8"/>
      </g>
     </g>
     <g id="text_7">
      <!-- 2024-07 -->
      <g style="fill: #a9a9a9" transform="translate(547.541247 334.998438) scale(0.1 -0.1)">
       <use xlink:href="#DejaVuSans-32"/>
       <use xlink:href="#DejaVuSans-30" transform="translate(63.623047 0)"/>
       <use xlink:href="#DejaVuSans-32" transform="translate(127.246094 0)"/>
       <use xlink:href="#DejaVuSans-34" transform="translate(190.869141 0)"/>
       <use xlink:href="#DejaVuSans-2d" transform="translate(254.492188 0)"/>
       <use xlink:href="#DejaVuSans-30" transform="translate(290.576172 0)"/>
       <use xlink:href="#DejaVuSans-37" transform="translate(354.199219 0)"/>
      </g>
     </g>
    </g>
    <g id="xtick_8">
     <g id="line2d_15">
      <path d="M 642.169202 320.4 
L 642.169202 43.2 
" clip-path="url(#p5cdba4c0db)" style="fill: none; stroke-dasharray: 5.12,1.28,0.8,1.28; stroke-dashoffset: 0; stroke: #b0b0b0; stroke-width: 0.8"/>
     </g>
     <g id="line2d_16">
      <g>
       <use xlink:href="#med1e0cd6ba" x="642.169202" y="320.4" style="fill: #a9a9a9; stroke: #a9a9a9; stroke-width: 0.8"/>
      </g>
     </g>
     <g id="text_8">
      <!-- 2025-01 -->
      <g style="fill: #a9a9a9" transform="translate(621.277796 334.998438) scale(0.1 -0.1)">
       <defs>
        <path id="DejaVuSans-35" d="M 691 4666 
L 3169 4666 
L 3169 4134 
L 1269 4134 
L 1269 2991 
Q 1406 3038 1543 3061 
Q 1681 3084 1819 3084 
Q 2600 3084 3056 2656 
Q 3513 2228 3513 1497 
Q 3513 744 3044 326 
Q 2575 -91 1722 -91 
Q 1428 -91 1123 -41 
Q 819 9 494 109 
L 494 744 
Q 775 591 1075 516 
Q 1375 441 1709 441 
Q 2250 441 2565 725 
Q 2881 1009 2881 1497 
Q 2881 1984 2565 2268 
Q 2250 2553 1709 2553 
Q 1456 2553 1204 2497 
Q 953 2441 691 2322 
L 691 4666 
z
" transform="scale(0.015625)"/>
       </defs>
       <use xlink:href="#DejaVuSans-32"/>
       <use xlink:href="#DejaVuSans-30" transform="translate(63.623047 0)"/>
       <use xlink:href="#DejaVuSans-32" transform="translate(127.246094 0)"/>
       <use xlink:href="#DejaVuSans-35" transform="translate(190.869141 0)"/>
       <use xlink:href="#DejaVuSans-2d" transform="translate(254.492188 0)"/>
       <use xlink:href="#DejaVuSans-30" transform="translate(290.576172 0)"/>
       <use xlink:href="#DejaVuSans-31" transform="translate(354.199219 0)"/>
      </g>
     </g>
    </g>
    <g id="xtick_9">
     <g id="line2d_17">
      <path d="M 714.703525 320.4 
L 714.703525 43.2 
" clip-path="url(#p5cdba4c0db)" style="fill: none; stroke-dasharray: 5.12,1.28,0.8,1.28; stroke-dashoffset: 0; stroke: #b0b0b0; stroke-width: 0.8"/>
     </g>
     <g id="line2d_18">
      <g>
       <use xlink:href="#med1e0cd6ba" x="714.703525" y="320.4" style="fill: #a9a9a9; stroke: #a9a9a9; stroke-width: 0.8"/>
      </g>
     </g>
     <g id="text_9">
      <!-- 2025-07 -->
      <g style="fill: #a9a9a9" transform="translate(693.812119 334.998438) scale(0.1 -0.1)">
       <use xlink:href="#DejaVuSans-32"/>
       <use xlink:href="#DejaVuSans-30" transform="translate(63.623047 0)"/>
       <use xlink:href="#DejaVuSans-32" transform="translate(127.246094 0)"/>
       <use xlink:href="#DejaVuSans-35" transform="translate(190.869141 0)"/>
       <use xlink:href="#DejaVuSans-2d" transform="translate(254.492188 0)"/>
       <use xlink:href="#DejaVuSans-30" transform="translate(290.576172 0)"/>
       <use xlink:href="#DejaVuSans-37" transform="translate(354.199219 0)"/>
      </g>
     </g>
    </g>
   </g>
   <g id="matplotlib.axis_2">
    <g id="ytick_1">
     <g id="line2d_19">
      <path d="M 108 307.830935 
L 777.6 307.830935 
" clip-path="url(#p5cdba4c0db)" style="fill: none; stroke-dasharray: 5.12,1.28,0.8,1.28; stroke-dashoffset: 0; stroke: #b0b0b0; stroke-width: 0.8"/>
     </g>
     <g id="line2d_20">
      <defs>
       <path id="m1943e4ec9e" d="M 0 0 
L -3.5 0 
" style="stroke: #a9a9a9; stroke-width: 0.8"/>
      </defs>
      <g>
       <use xlink:href="#m1943e4ec9e" x="108" y="307.830935" style="fill: #a9a9a9; stroke: #a9a9a9; stroke-width: 0.8"/>
      </g>
     </g>
     <g id="text_10">
      <!-- 0 -->
      <g style="fill: #a9a9a9" transform="translate(94.6375 311.630154) scale(0.1 -0.1)">
       <use xlink:href="#DejaVuSans-30"/>
      </g>
     </g>
    </g>
    <g id="ytick_2">
     <g id="line2d_21">
      <path d="M 108 276.895507 
L 777.6 276.895507 
" clip-path="url(#p5cdba4c0db)" style="fill: none; stroke-dasharray: 5.12,1.28,0.8,1.28; stroke-dashoffset: 0; stroke: #b0b0b0; stroke-width: 0.8"/>
     </g>
     <g id="line2d_22">
      <g>
       <use xlink:href="#m1943e4ec9e" x="108" y="276.895507" style="fill: #a9a9a9; stroke: #a9a9a9; stroke-width: 0.8"/>
      </g>
     </g>
     <g id="text_11">
      <!-- 1000 -->
      <g style="fill: #a9a9a9" transform="translate(75.55 280.694726) scale(0.1 -0.1)">
       <use xlink:href="#DejaVuSans-31"/>
       <use xlink:href="#DejaVuSans-30" transform="translate(63.623047 0)"/>
       <use xlink:href="#DejaVuSans-30" transform="translate(127.246094 0)"/>
       <use xlink:href="#DejaVuSans-30" transform="translate(190.869141 0)"/>
      </g>
     </g>
    </g>
    <g id="ytick_3">
     <g id="line2d_23">
      <path d="M 108 245.960079 
L 777.6 245.960079 
" clip-path="url(#p5cdba4c0db)" style="fill: none; stroke-dasharray: 5.12,1.28,0.8,1.28; stroke-dashoffset: 0; stroke: #b0b0b0; stroke-width: 0.8"/>
     </g>
     <g id="line2d_24">
      <g>
       <use xlink:href="#m1943e4ec9e" x="108" y="245.960079" style="fill: #a9a9a9; stroke: #a9a9a9; stroke-width: 0.8"/>
      </g>
     </g>
     <g id="text_12">
      <!-- 2000 -->
      <g style="fill: #a9a9a9" transform="translate(75.55 249.759297) scale(0.1 -0.1)">
       <use xlink:href="#DejaVuSans-32"/>
       <use xlink:href="#DejaVuSans-30" transform="translate(63.623047 0)"/>
       <use xlink:href="#DejaVuSans-30" transform="translate(127.246094 0)"/>
       <use xlink:href="#DejaVuSans-30" transform="translate(190.869141 0)"/>
      </g>
     </g>
    </g>
    <g id="ytick_4">
     <g id="line2d_25">
      <path d="M 108 215.02465 
L 777.6 215.02465 
" clip-path="url(#p5cdba4c0db)" style="fill: none; stroke-dasharray: 5.12,1.28,0.8,1.28; stroke-dashoffset: 0; stroke: #b0b0b0; stroke-width: 0.8"/>
     </g>
     <g id="line2d_26">
      <g>
       <use xlink:href="#m1943e4ec9e" x="108" y="215.02465" style="fill: #a9a9a9; stroke: #a9a9a9; stroke-width: 0.8"/>
      </g>
     </g>
     <g id="text_13">
      <!-- 3000 -->
      <g style="fill: #a9a9a9" transform="translate(75.55 218.823869) scale(0.1 -0.1)">
       <use xlink:href="#DejaVuSans-33"/>
       <use xlink:href="#DejaVuSans-30" transform="translate(63.623047 0)"/>
       <use xlink:href="#DejaVuSans-30" transform="translate(127.246094 0)"/>
       <use xlink:href="#DejaVuSans-30" transform="translate(190.869141 0)"/>
      </g>
     </g>
    </g>
    <g id="ytick_5">
     <g id="line2d_27">
      <path d="M 108 184.089222 
L 777.6 184.089222 
" clip-path="url(#p5cdba4c0db)" style="fill: none; stroke-dasharray: 5.12,1.28,0.8,1.28; stroke-dashoffset: 0; stroke: #b0b0b0; stroke-width: 0.8"/>
     </g>
     <g id="line2d_28">
      <g>
       <use xlink:href="#m1943e4ec9e" x="108" y="184.089222" style="fill: #a9a9a9; stroke: #a9a9a9; stroke-width: 0.8"/>
      </g>
     </g>
     <g id="text_14">
      <!-- 4000 -->
      <g style="fill: #a9a9a9" transform="translate(75.55 187.88844) scale(0.1 -0.1)">
       <use xlink:href="#DejaVuSans-34"/>
       <use xlink:href="#DejaVuSans-30" transform="translate(63.623047 0)"/>
       <use xlink:href="#DejaVuSans-30" transform="translate(127.246094 0)"/>
       <use xlink:href="#DejaVuSans-30" transform="translate(190.869141 0)"/>
      </g>
     </g>
    </g>
    <g id="ytick_6">
     <g id="line2d_29">
      <path d="M 108 153.153793 
L 777.6 153.153793 
" clip-path="url(#p5cdba4c0db)" style="fill: none; stroke-dasharray: 5.12,1.28,0.8,1.28; stroke-dashoffset: 0; stroke: #b0b0b0; stroke-width: 0.8"/>
     </g>
     <g id="line2d_30">
      <g>
       <use xlink:href="#m1943e4ec9e" x="108" y="153.153793" style="fill: #a9a9a9; stroke: #a9a9a9; stroke-width: 0.8"/>
      </g>
     </g>
     <g id="text_15">
      <!-- 5000 -->
      <g style="fill: #a9a9a9" transform="translate(75.55 156.953012) scale(0.1 -0.1)">
       <use xlink:href="#DejaVuSans-35"/>
       <use xlink:href="#DejaVuSans-30" transform="translate(63.623047 0)"/>
       <use xlink:href="#DejaVuSans-30" transform="translate(127.246094 0)"/>
       <use xlink:href="#DejaVuSans-30" transform="translate(190.869141 0)"/>
      </g>
     </g>
    </g>
    <g id="ytick_7">
     <g id="line2d_31">
      <path d="M 108 122.218365 
L 777.6 122.218365 
" clip-path="url(#p5cdba4c0db)" style="fill: none; stroke-dasharray: 5.12,1.28,0.8,1.28; stroke-dashoffset: 0; stroke: #b0b0b0; stroke-width: 0.8"/>
     </g>
     <g id="line2d_32">
      <g>
       <use xlink:href="#m1943e4ec9e" x="108" y="122.218365" style="fill: #a9a9a9; stroke: #a9a9a9; stroke-width: 0.8"/>
      </g>
     </g>
     <g id="text_16">
      <!-- 6000 -->
      <g style="fill: #a9a9a9" transform="translate(75.55 126.017584) scale(0.1 -0.1)">
       <defs>
        <path id="DejaVuSans-36" d="M 2113 2584 
Q 1688 2584 1439 2293 
Q 1191 2003 1191 1497 
Q 1191 994 1439 701 
Q 1688 409 2113 409 
Q 2538 409 2786 701 
Q 3034 994 3034 1497 
Q 3034 2003 2786 2293 
Q 2538 2584 2113 2584 
z
M 3366 4563 
L 3366 3988 
Q 3128 4100 2886 4159 
Q 2644 4219 2406 4219 
Q 1781 4219 1451 3797 
Q 1122 3375 1075 2522 
Q 1259 2794 1537 2939 
Q 1816 3084 2150 3084 
Q 2853 3084 3261 2657 
Q 3669 2231 3669 1497 
Q 3669 778 3244 343 
Q 2819 -91 2113 -91 
Q 1303 -91 875 529 
Q 447 1150 447 2328 
Q 447 3434 972 4092 
Q 1497 4750 2381 4750 
Q 2619 4750 2861 4703 
Q 3103 4656 3366 4563 
z
" transform="scale(0.015625)"/>
       </defs>
       <use xlink:href="#DejaVuSans-36"/>
       <use xlink:href="#DejaVuSans-30" transform="translate(63.623047 0)"/>
       <use xlink:href="#DejaVuSans-30" transform="translate(127.246094 0)"/>
       <use xlink:href="#DejaVuSans-30" transform="translate(190.869141 0)"/>
      </g>
     </g>
    </g>
    <g id="ytick_8">
     <g id="line2d_33">
      <path d="M 108 91.282936 
L 777.6 91.282936 
" clip-path="url(#p5cdba4c0db)" style="fill: none; stroke-dasharray: 5.12,1.28,0.8,1.28; stroke-dashoffset: 0; stroke: #b0b0b0; stroke-width: 0.8"/>
     </g>
     <g id="line2d_34">
      <g>
       <use xlink:href="#m1943e4ec9e" x="108" y="91.282936" style="fill: #a9a9a9; stroke: #a9a9a9; stroke-width: 0.8"/>
      </g>
     </g>
     <g id="text_17">
      <!-- 7000 -->
      <g style="fill: #a9a9a9" transform="translate(75.55 95.082155) scale(0.1 -0.1)">
       <use xlink:href="#DejaVuSans-37"/>
       <use xlink:href="#DejaVuSans-30" transform="translate(63.623047 0)"/>
       <use xlink:href="#DejaVuSans-30" transform="translate(127.246094 0)"/>
       <use xlink:href="#DejaVuSans-30" transform="translate(190.869141 0)"/>
      </g>
     </g>
    </g>
    <g id="ytick_9">
     <g id="line2d_35">
      <path d="M 108 60.347508 
L 777.6 60.347508 
" clip-path="url(#p5cdba4c0db)" style="fill: none; stroke-dasharray: 5.12,1.28,0.8,1.28; stroke-dashoffset: 0; stroke: #b0b0b0; stroke-width: 0.8"/>
     </g>
     <g id="line2d_36">
      <g>
       <use xlink:href="#m1943e4ec9e" x="108" y="60.347508" style="fill: #a9a9a9; stroke: #a9a9a9; stroke-width: 0.8"/>
      </g>
     </g>
     <g id="text_18">
      <!-- 8000 -->
      <g style="fill: #a9a9a9" transform="translate(75.55 64.146727) scale(0.1 -0.1)">
       <defs>
        <path id="DejaVuSans-38" d="M 2034 2216 
Q 1584 2216 1326 1975 
Q 1069 1734 1069 1313 
Q 1069 891 1326 650 
Q 1584 409 2034 409 
Q 2484 409 2743 651 
Q 3003 894 3003 1313 
Q 3003 1734 2745 1975 
Q 2488 2216 2034 2216 
z
M 1403 2484 
Q 997 2584 770 2862 
Q 544 3141 544 3541 
Q 544 4100 942 4425 
Q 1341 4750 2034 4750 
Q 2731 4750 3128 4425 
Q 3525 4100 3525 3541 
Q 3525 3141 3298 2862 
Q 3072 2584 2669 2484 
Q 3125 2378 3379 2068 
Q 3634 1759 3634 1313 
Q 3634 634 3220 271 
Q 2806 -91 2034 -91 
Q 1263 -91 848 271 
Q 434 634 434 1313 
Q 434 1759 690 2068 
Q 947 2378 1403 2484 
z
M 1172 3481 
Q 1172 3119 1398 2916 
Q 1625 2713 2034 2713 
Q 2441 2713 2670 2916 
Q 2900 3119 2900 3481 
Q 2900 3844 2670 4047 
Q 2441 4250 2034 4250 
Q 1625 4250 1398 4047 
Q 1172 3844 1172 3481 
z
" transform="scale(0.015625)"/>
       </defs>
       <use xlink:href="#DejaVuSans-38"/>
       <use xlink:href="#DejaVuSans-30" transform="translate(63.623047 0)"/>
       <use xlink:href="#DejaVuSans-30" transform="translate(127.246094 0)"/>
       <use xlink:href="#DejaVuSans-30" transform="translate(190.869141 0)"/>
      </g>
     </g>
    </g>
   </g>
   <g id="line2d_37">
    <path d="M 138.436364 307.738129 
L 140.840816 307.521581 
L 141.241558 307.335969 
L 142.844527 307.119421 
L 144.447495 306.779131 
L 145.24898 306.655389 
L 147.25269 306.469777 
L 148.054174 306.129487 
L 148.454917 305.572649 
L 148.855659 305.29423 
L 149.256401 304.366167 
L 149.657143 304.304297 
L 150.057885 303.964007 
L 150.859369 303.530911 
L 152.462338 302.200687 
L 154.065306 301.365431 
L 155.267532 300.777658 
L 155.668275 300.097078 
L 156.469759 299.47837 
L 156.870501 299.292757 
L 160.877922 298.674049 
L 161.278664 298.488436 
L 164.083859 298.240953 
L 165.686827 297.838792 
L 168.892764 297.374761 
L 169.293506 297.158213 
L 169.694249 297.096342 
L 170.495733 296.817923 
L 173.300928 296.322956 
L 174.102412 296.075473 
L 177.709091 295.456764 
L 178.510575 295.271151 
L 179.312059 295.240216 
L 180.915028 294.838055 
L 181.31577 294.250282 
L 182.517996 293.755315 
L 183.720223 293.415026 
L 184.120965 293.198478 
L 184.922449 293.043801 
L 186.525417 292.548834 
L 187.326902 292.486963 
L 188.128386 292.270415 
L 189.731354 291.837319 
L 190.132096 291.806384 
L 190.933581 291.404223 
L 191.334323 291.342352 
L 191.735065 291.125804 
L 196.143228 290.352418 
L 197.746197 289.857452 
L 198.146939 289.579033 
L 200.150649 288.898453 
L 200.952134 288.31068 
L 202.15436 288.063197 
L 207.364007 286.516425 
L 207.76475 286.454554 
L 209.367718 285.80491 
L 209.76846 285.74304 
L 210.569944 285.40275 
L 211.371429 285.371814 
L 212.573655 285.000589 
L 212.974397 285.000589 
L 213.375139 284.814977 
L 214.176623 284.72217 
L 214.577365 284.567493 
L 216.180334 284.505622 
L 216.981818 284.350945 
L 217.783302 283.917849 
L 218.985529 283.484753 
L 219.787013 283.051657 
L 220.989239 282.525755 
L 222.592208 281.690498 
L 222.99295 281.226467 
L 223.794434 279.927179 
L 224.195176 279.803437 
L 224.595918 279.803437 
L 226.198887 278.90631 
L 226.599629 278.813504 
L 227.000371 278.411343 
L 227.801855 278.071053 
L 228.60334 277.699828 
L 229.004082 277.204861 
L 229.404824 276.524282 
L 229.805566 276.245863 
L 230.206308 275.503413 
L 230.60705 275.039381 
L 233.011503 273.678222 
L 234.614471 272.193322 
L 235.015213 271.234324 
L 235.415955 270.615615 
L 235.816698 270.275325 
L 236.21744 270.089713 
L 239.423377 267.027105 
L 240.224861 266.25372 
L 242.629314 264.676013 
L 243.030056 264.521336 
L 244.633024 263.531402 
L 245.033766 263.345789 
L 247.037477 261.427793 
L 247.838961 261.087503 
L 248.640445 260.49973 
L 249.041187 260.252247 
L 249.441929 260.190376 
L 250.644156 259.478861 
L 251.044898 259.014829 
L 253.048609 257.870219 
L 253.449351 257.715541 
L 254.651577 256.849349 
L 260.662709 254.621999 
L 261.464193 253.848613 
L 262.666419 253.229904 
L 263.467904 252.704002 
L 264.269388 252.456519 
L 264.67013 252.1781 
L 265.070872 252.054358 
L 266.273098 251.219101 
L 268.276809 250.75507 
L 269.479035 250.01262 
L 270.681262 249.734201 
L 271.082004 249.641395 
L 272.28423 248.713332 
L 273.887199 248.2493 
L 274.287941 247.909011 
L 276.692393 247.042819 
L 277.493878 246.888141 
L 278.295362 246.547852 
L 281.100557 245.465112 
L 281.902041 245.372305 
L 283.104267 244.939209 
L 285.107978 243.91834 
L 287.51243 242.526246 
L 288.313915 242.309698 
L 289.516141 241.690989 
L 290.317625 241.536312 
L 291.119109 241.041345 
L 291.920594 240.824797 
L 293.12282 240.329831 
L 294.725788 240.113283 
L 295.527273 239.680187 
L 295.928015 239.308961 
L 296.328757 238.566511 
L 297.931725 238.10248 
L 299.534694 237.360029 
L 301.939147 236.184483 
L 302.740631 235.782323 
L 303.942857 235.534839 
L 305.145083 234.916131 
L 305.545826 234.85426 
L 307.549536 233.833391 
L 308.35102 233.307488 
L 309.553247 233.060005 
L 311.556957 232.534103 
L 311.957699 232.193813 
L 312.759184 231.915394 
L 314.762894 231.080137 
L 315.163636 230.770783 
L 315.564378 230.616106 
L 316.365863 230.152075 
L 317.968831 229.626172 
L 318.770315 229.10027 
L 319.171058 228.667174 
L 319.5718 228.419691 
L 319.972542 228.326884 
L 320.774026 227.646305 
L 321.174768 227.584434 
L 321.57551 226.903855 
L 321.976252 226.718242 
L 322.376994 226.377952 
L 322.777737 226.316082 
L 323.579221 225.790179 
L 324.380705 225.51176 
L 324.781447 225.202406 
L 325.182189 225.047729 
L 327.1859 223.748441 
L 328.388126 223.28441 
L 329.18961 222.913184 
L 329.590353 222.665701 
L 329.991095 221.954186 
L 330.792579 221.335478 
L 331.193321 221.242671 
L 333.597774 220.03619 
L 334.399258 219.6959 
L 335.200742 219.108127 
L 336.402968 217.963516 
L 337.204453 217.468549 
L 337.605195 217.004518 
L 339.208163 215.859907 
L 340.009647 215.02465 
L 340.811132 214.746231 
L 341.612616 214.189394 
L 342.814842 213.53975 
L 343.215584 213.477879 
L 346.822263 211.590818 
L 348.02449 211.219592 
L 349.226716 210.755561 
L 349.627458 210.415271 
L 351.230427 209.765627 
L 351.631169 209.641886 
L 352.432653 209.115983 
L 353.234137 208.775694 
L 354.035622 208.18792 
L 354.837106 206.548343 
L 355.63859 205.62028 
L 356.840816 204.970636 
L 357.642301 204.630346 
L 358.043043 204.568475 
L 358.844527 204.19725 
L 360.447495 203.640412 
L 361.24898 203.176381 
L 362.050464 202.77422 
L 362.451206 202.650479 
L 364.855659 201.165578 
L 365.256401 200.701547 
L 366.458627 199.990032 
L 366.859369 199.835355 
L 367.660853 199.340388 
L 369.263822 198.44326 
L 369.664564 198.350454 
L 370.065306 198.010164 
L 372.870501 197.051166 
L 373.271243 196.772747 
L 374.072727 196.525264 
L 374.874212 196.184974 
L 375.274954 195.844685 
L 376.877922 195.256911 
L 377.679406 194.669138 
L 378.480891 194.328849 
L 379.282375 193.679205 
L 380.083859 193.431721 
L 380.484601 193.060496 
L 380.885343 192.998625 
L 381.686827 192.379917 
L 383.690538 191.173435 
L 384.492022 190.925951 
L 384.892764 190.678468 
L 385.293506 190.616597 
L 386.896475 189.843211 
L 388.098701 189.441051 
L 388.900186 189.317309 
L 389.300928 189.131697 
L 389.70167 189.069826 
L 390.503154 188.698601 
L 390.903896 188.667665 
L 392.506865 188.048957 
L 393.709091 187.182765 
L 394.109833 187.028087 
L 394.911317 186.564056 
L 395.312059 186.440314 
L 397.716512 185.04822 
L 398.117254 184.955414 
L 399.319481 184.212963 
L 400.521707 183.779867 
L 401.323191 183.501449 
L 402.92616 182.944611 
L 403.727644 182.666192 
L 405.330612 182.325902 
L 405.731354 182.14029 
L 406.532839 181.923742 
L 406.933581 181.738129 
L 407.334323 181.676258 
L 407.735065 181.45971 
L 408.536549 181.305033 
L 409.738776 180.871937 
L 410.941002 180.686325 
L 413.345455 180.222293 
L 414.547681 179.943874 
L 414.948423 179.758262 
L 415.749907 179.603585 
L 416.551391 179.387037 
L 417.352876 179.015811 
L 417.753618 178.861134 
L 418.15436 178.861134 
L 422.562523 177.46904 
L 422.963265 177.252492 
L 423.364007 177.252492 
L 424.165492 176.943138 
L 424.566234 176.510042 
L 426.970686 175.489173 
L 428.573655 174.932335 
L 428.974397 174.684851 
L 430.176623 174.313626 
L 430.978108 174.097078 
L 431.37885 173.818659 
L 431.779592 173.725853 
L 432.180334 173.354628 
L 433.38256 173.107145 
L 434.184045 172.735919 
L 434.584787 172.240953 
L 438.99295 171.251019 
L 439.393692 171.251019 
L 439.794434 171.065406 
L 441.397403 170.756052 
L 441.798145 170.570439 
L 443.401113 170.261085 
L 444.202597 169.920795 
L 445.004082 169.766118 
L 447.007792 169.240216 
L 448.210019 168.868991 
L 450.213729 168.219347 
L 451.015213 167.879057 
L 451.816698 167.569703 
L 452.21744 167.291284 
L 453.018924 167.043801 
L 455.824119 165.961061 
L 457.427087 165.775448 
L 460.633024 164.568966 
L 461.033766 164.259612 
L 461.434508 164.166806 
L 461.83525 163.950258 
L 462.235993 163.919322 
L 466.644156 162.279745 
L 468.647866 161.722907 
L 469.449351 161.320746 
L 470.651577 161.042328 
L 472.254545 159.681169 
L 473.857514 158.969654 
L 475.05974 158.443752 
L 476.662709 157.763172 
L 477.063451 157.63943 
L 477.464193 157.361012 
L 479.467904 156.680432 
L 483.475325 154.607758 
L 484.276809 154.236533 
L 484.677551 153.927179 
L 485.479035 153.64876 
L 487.883488 152.473214 
L 488.28423 152.380408 
L 489.486456 151.82357 
L 491.089425 151.266732 
L 491.890909 150.926442 
L 492.692393 150.802701 
L 493.093135 150.524282 
L 494.696104 150.214928 
L 495.497588 149.874638 
L 497.902041 148.699092 
L 498.302783 148.637221 
L 499.505009 147.925706 
L 500.707236 147.49261 
L 503.51243 146.286128 
L 503.913173 146.162386 
L 504.313915 145.883968 
L 505.115399 145.791161 
L 505.516141 145.512742 
L 506.317625 145.389001 
L 507.119109 144.98684 
L 507.519852 144.801228 
L 508.321336 144.58468 
L 509.12282 144.337196 
L 510.325046 143.873165 
L 511.527273 143.471004 
L 512.729499 143.192585 
L 514.332468 142.512006 
L 515.133952 142.07891 
L 516.73692 141.243653 
L 517.538404 141.058041 
L 517.939147 140.810557 
L 518.339889 140.717751 
L 519.542115 140.006236 
L 520.744341 139.542205 
L 523.549536 138.552271 
L 523.950278 138.428529 
L 524.751763 137.995433 
L 526.755473 137.283918 
L 529.159926 136.293985 
L 530.762894 135.520599 
L 534.770315 133.911957 
L 535.5718 133.509796 
L 535.972542 133.41699 
L 536.774026 133.107636 
L 537.174768 133.107636 
L 537.976252 132.736411 
L 539.579221 131.375252 
L 539.979963 131.25151 
L 540.380705 131.004027 
L 541.582931 130.663737 
L 541.983673 130.354383 
L 542.384416 130.261576 
L 543.586642 129.519126 
L 543.987384 129.240707 
L 545.18961 128.776676 
L 545.590353 128.560128 
L 546.792579 128.281709 
L 548.796289 127.570194 
L 549.597774 127.322711 
L 550.8 126.673067 
L 551.601484 126.270906 
L 552.402968 126.054358 
L 554.005937 125.311908 
L 554.406679 125.188166 
L 555.208163 124.816941 
L 557.211874 124.136361 
L 558.4141 123.362976 
L 558.814842 123.270169 
L 559.616327 122.868009 
L 560.417811 122.558655 
L 560.818553 122.187429 
L 562.020779 121.723398 
L 562.421521 121.661527 
L 564.02449 120.919077 
L 565.226716 120.547852 
L 565.627458 120.362239 
L 566.0282 120.300368 
L 566.829685 119.960079 
L 568.031911 119.712595 
L 568.833395 119.248564 
L 569.234137 119.093887 
L 569.634879 118.784532 
L 570.837106 118.475178 
L 571.63859 118.165824 
L 572.440074 117.825534 
L 574.043043 117.17589 
L 576.848237 116.43344 
L 577.649722 116.124085 
L 579.25269 115.814731 
L 580.054174 115.660054 
L 581.256401 115.196023 
L 582.458627 114.917604 
L 584.86308 113.494574 
L 586.065306 112.752124 
L 588.469759 112.009673 
L 588.870501 111.700319 
L 592.47718 110.401031 
L 593.278664 110.122612 
L 594.480891 109.59671 
L 598.08757 108.111809 
L 598.889054 107.802455 
L 600.492022 107.152811 
L 600.892764 106.781586 
L 601.293506 106.719715 
L 602.896475 106.070071 
L 604.499443 105.667911 
L 604.900186 105.60604 
L 605.300928 105.420427 
L 605.70167 105.389492 
L 606.503154 105.111073 
L 606.903896 105.080137 
L 608.106122 104.616106 
L 609.709091 104.152075 
L 610.510575 103.533366 
L 612.113544 102.636239 
L 612.514286 102.543432 
L 613.31577 102.234078 
L 616.521707 100.656371 
L 616.922449 100.439823 
L 617.323191 100.068598 
L 619.326902 99.573631 
L 620.529128 99.016794 
L 621.330612 98.800246 
L 621.731354 98.614633 
L 622.132096 98.274343 
L 623.735065 97.841247 
L 624.135807 97.531893 
L 629.345455 95.613896 
L 630.146939 95.459219 
L 632.150649 94.809575 
L 633.352876 94.283673 
L 636.158071 93.448416 
L 636.959555 92.984385 
L 639.76475 92.025387 
L 641.367718 91.499484 
L 642.569944 91.221066 
L 643.772171 90.84984 
L 644.172913 90.757034 
L 644.573655 90.478615 
L 645.375139 90.293003 
L 646.978108 89.828971 
L 647.37885 89.798036 
L 648.180334 89.426811 
L 650.985529 88.715296 
L 652.588497 88.127523 
L 652.989239 88.127523 
L 654.191466 87.849104 
L 654.99295 87.694427 
L 655.794434 87.477879 
L 656.99666 86.828235 
L 658.198887 86.45701 
L 661.004082 85.498011 
L 662.60705 84.69369 
L 663.809276 84.415271 
L 664.610761 84.167788 
L 665.412245 83.765627 
L 665.812987 83.425338 
L 666.614471 83.177854 
L 667.015213 82.930371 
L 667.816698 82.837564 
L 670.621892 82.033243 
L 671.824119 81.78576 
L 673.026345 81.476406 
L 673.827829 81.290793 
L 675.030056 80.672084 
L 680.239703 78.661282 
L 681.041187 78.53754 
L 681.842672 78.382863 
L 682.243414 78.382863 
L 683.44564 78.011638 
L 684.647866 77.640412 
L 688.254545 76.619543 
L 689.05603 76.402995 
L 689.456772 76.310189 
L 689.857514 76.062706 
L 690.658998 75.908028 
L 691.460482 75.815222 
L 691.861224 75.598674 
L 692.261967 75.567739 
L 693.063451 75.041836 
L 694.666419 74.701547 
L 695.467904 74.361257 
L 696.269388 74.082838 
L 697.070872 73.86629 
L 697.872356 73.526 
L 699.074583 73.154775 
L 700.276809 72.814486 
L 701.078293 72.752615 
L 701.879777 72.474196 
L 702.280519 72.319519 
L 703.082004 72.195777 
L 704.684972 71.484262 
L 705.085714 71.422391 
L 705.887199 71.113037 
L 708.291651 70.710877 
L 709.093135 70.463393 
L 709.493878 70.401522 
L 710.295362 70.061233 
L 710.696104 69.999362 
L 711.096846 69.782814 
L 711.89833 69.102234 
L 715.905751 67.617334 
L 718.310204 66.96769 
L 718.710946 66.658335 
L 720.313915 65.946821 
L 721.916883 65.266241 
L 722.718367 65.018758 
L 723.920594 64.554726 
L 724.722078 64.214437 
L 726.325046 63.255438 
L 726.725788 63.162632 
L 727.928015 62.543923 
L 728.729499 62.234569 
L 730.332468 61.677731 
L 730.73321 61.492119 
L 731.133952 61.151829 
L 731.534694 61.059023 
L 732.336178 60.564056 
L 733.538404 60.192831 
L 734.339889 59.883477 
L 735.141373 59.512251 
L 735.542115 59.481316 
L 737.545826 58.70793 
L 738.34731 58.553253 
L 739.148794 57.96548 
L 739.549536 57.96548 
L 741.152505 57.377707 
L 742.755473 57.037417 
L 744.358442 56.356838 
L 744.759184 56.356838 
L 745.96141 55.954677 
L 747.163636 55.8 
L 747.163636 55.8 
" clip-path="url(#p5cdba4c0db)" style="fill: none; stroke: #1f77b4; stroke-width: 1.5; stroke-linecap: square"/>
   </g>
   <g id="line2d_38">
    <path d="M 138.837106 307.8 
L 142.443785 307.707194 
L 145.649722 307.552517 
L 147.25269 307.552517 
L 147.653432 307.428775 
L 149.657143 307.335969 
L 152.061596 307.05755 
L 154.466048 306.964743 
L 155.267532 306.871937 
L 158.072727 306.748195 
L 160.877922 306.655389 
L 162.881633 306.593518 
L 168.09128 306.500712 
L 170.094991 306.438841 
L 173.70167 306.346035 
L 175.304638 306.315099 
L 179.312059 306.222293 
L 180.915028 306.067616 
L 182.517996 306.036681 
L 184.922449 305.943874 
L 186.525417 305.912939 
L 188.529128 305.851068 
L 190.132096 305.696391 
L 193.738776 305.603585 
L 194.54026 305.541714 
L 196.143228 305.448907 
L 198.547681 305.356101 
L 200.150649 305.263295 
L 207.364007 304.799263 
L 210.169202 304.706457 
L 211.371429 304.582715 
L 213.375139 304.489909 
L 217.38256 304.273361 
L 221.389981 304.21149 
L 222.99295 304.025878 
L 224.99666 303.933071 
L 229.004082 303.530911 
L 231.408534 303.221557 
L 233.011503 303.159686 
L 236.21744 302.72659 
L 238.621892 302.664719 
L 239.824119 302.540977 
L 241.026345 302.448171 
L 252.247124 301.551043 
L 253.048609 301.396366 
L 255.453061 301.30356 
L 261.864935 300.901399 
L 264.67013 300.808593 
L 266.273098 300.622981 
L 268.276809 300.530174 
L 270.681262 300.437368 
L 272.684972 300.344562 
L 274.287941 300.313626 
L 276.291651 300.251755 
L 277.093135 300.128014 
L 282.703525 300.035207 
L 283.505009 299.942401 
L 288.313915 299.849595 
L 291.920594 299.663982 
L 294.725788 299.571176 
L 296.328757 299.385563 
L 299.133952 299.292757 
L 299.935436 299.169015 
L 301.939147 299.107145 
L 305.946568 299.045274 
L 307.549536 298.890597 
L 309.152505 298.859661 
L 310.354731 298.766855 
L 311.957699 298.612178 
L 315.965121 298.39563 
L 319.972542 298.302823 
L 323.579221 298.117211 
L 324.781447 298.086275 
L 325.582931 297.962534 
L 327.586642 297.869727 
L 328.388126 297.807857 
L 329.18961 297.745986 
L 329.991095 297.684115 
L 333.998516 297.591309 
L 342.814842 297.003535 
L 343.616327 296.941665 
L 344.818553 296.848858 
L 347.623748 296.756052 
L 349.627458 296.694181 
L 355.237848 296.601375 
L 356.039332 296.477633 
L 361.649722 296.384827 
L 365.657143 296.168279 
L 366.458627 296.137343 
L 367.260111 296.044537 
L 369.263822 295.951731 
L 371.267532 295.88986 
L 373.271243 295.797054 
L 375.274954 295.735183 
L 378.881633 295.642377 
L 381.286085 295.54957 
L 386.896475 295.456764 
L 391.304638 295.209281 
L 392.907607 295.14741 
L 394.109833 295.054603 
L 399.720223 294.961797 
L 402.124675 294.868991 
L 409.338033 294.776185 
L 410.941002 294.745249 
L 415.749907 294.683378 
L 416.551391 294.621507 
L 422.161781 294.528701 
L 423.76475 294.497766 
L 434.184045 294.404959 
L 436.588497 294.312153 
L 453.419666 294.219347 
L 455.423377 294.157476 
L 465.842672 294.095605 
L 466.644156 294.033734 
L 468.647866 293.971863 
L 469.850093 293.848122 
L 472.254545 293.755315 
L 475.05974 293.631574 
L 478.666419 293.538767 
L 480.67013 293.476897 
L 483.475325 293.38409 
L 486.681262 293.229413 
L 488.684972 293.136607 
L 490.287941 293.105671 
L 497.100557 293.012865 
L 499.505009 292.920059 
L 503.913173 292.827253 
L 506.718367 292.703511 
L 509.523562 292.64164 
L 510.325046 292.579769 
L 519.942857 292.486963 
L 523.950278 292.270415 
L 526.755473 292.177609 
L 531.163636 291.930125 
L 533.968831 291.837319 
L 535.5718 291.806384 
L 538.376994 291.713577 
L 540.380705 291.497029 
L 544.388126 291.404223 
L 545.18961 291.311417 
L 549.197032 291.21861 
L 551.200742 291.15674 
L 555.608905 291.125804 
L 556.41039 291.032998 
L 560.818553 290.940192 
L 561.620037 290.878321 
L 570.436364 290.785514 
L 572.840816 290.692708 
L 578.851948 290.599902 
L 580.454917 290.568966 
L 584.061596 290.507096 
L 584.86308 290.414289 
L 590.072727 290.321483 
L 592.076438 290.259612 
L 599.289796 290.166806 
L 600.492022 290.074 
L 601.694249 289.981193 
L 602.896475 289.888387 
L 608.907607 289.795581 
L 611.312059 289.702774 
L 622.132096 289.609968 
L 625.738776 289.424356 
L 630.547681 289.362485 
L 631.349165 289.300614 
L 637.360297 289.238743 
L 638.161781 289.176872 
L 642.569944 289.084066 
L 644.172913 289.05313 
L 650.985529 288.960324 
L 651.787013 288.898453 
L 659.000371 288.805647 
L 660.60334 288.774712 
L 664.610761 288.681905 
L 667.415955 288.558164 
L 671.824119 288.465357 
L 674.629314 288.341616 
L 678.235993 288.248809 
L 679.037477 288.186938 
L 687.052319 288.094132 
L 689.05603 288.032261 
L 691.460482 287.939455 
L 693.864935 287.846649 
L 705.887199 287.753842 
L 708.692393 287.630101 
L 715.505009 287.537294 
L 717.909462 287.444488 
L 723.119109 287.351682 
L 725.523562 287.258876 
L 728.729499 287.166069 
L 731.133952 287.073263 
L 747.163636 286.980457 
L 747.163636 286.980457 
" clip-path="url(#p5cdba4c0db)" style="fill: none; stroke: #ff7f0e; stroke-width: 1.5; stroke-linecap: square"/>
   </g>
   <g id="patch_3">
    <path d="M 108 320.4 
L 108 43.2 
" style="fill: none; stroke: #a9a9a9; stroke-width: 0.8; stroke-linejoin: miter; stroke-linecap: square"/>
   </g>
   <g id="patch_4">
    <path d="M 777.6 320.4 
L 777.6 43.2 
" style="fill: none"/>
   </g>
   <g id="patch_5">
    <path d="M 108 320.4 
L 777.6 320.4 
" style="fill: none; stroke: #a9a9a9; stroke-width: 0.8; stroke-linejoin: miter; stroke-linecap: square"/>
   </g>
   <g id="patch_6">
    <path d="M 108 43.2 
L 777.6 43.2 
" style="fill: none"/>
   </g>
   <g id="text_19">
    <!-- get_subscribe history -->
    <g style="fill: #a9a9a9" transform="translate(378.6075 37.2) scale(0.12 -0.12)">
     <defs>
      <path id="DejaVuSans-67" d="M 2906 1791 
Q 2906 2416 2648 2759 
Q 2391 3103 1925 3103 
Q 1463 3103 1205 2759 
Q 947 2416 947 1791 
Q 947 1169 1205 825 
Q 1463 481 1925 481 
Q 2391 481 2648 825 
Q 2906 1169 2906 1791 
z
M 3481 434 
Q 3481 -459 3084 -895 
Q 2688 -1331 1869 -1331 
Q 1566 -1331 1297 -1286 
Q 1028 -1241 775 -1147 
L 775 -588 
Q 1028 -725 1275 -790 
Q 1522 -856 1778 -856 
Q 2344 -856 2625 -561 
Q 2906 -266 2906 331 
L 2906 616 
Q 2728 306 2450 153 
Q 2172 0 1784 0 
Q 1141 0 747 490 
Q 353 981 353 1791 
Q 353 2603 747 3093 
Q 1141 3584 1784 3584 
Q 2172 3584 2450 3431 
Q 2728 3278 2906 2969 
L 2906 3500 
L 3481 3500 
L 3481 434 
z
" transform="scale(0.015625)"/>
      <path id="DejaVuSans-65" d="M 3597 1894 
L 3597 1613 
L 953 1613 
Q 991 1019 1311 708 
Q 1631 397 2203 397 
Q 2534 397 2845 478 
Q 3156 559 3463 722 
L 3463 178 
Q 3153 47 2828 -22 
Q 2503 -91 2169 -91 
Q 1331 -91 842 396 
Q 353 884 353 1716 
Q 353 2575 817 3079 
Q 1281 3584 2069 3584 
Q 2775 3584 3186 3129 
Q 3597 2675 3597 1894 
z
M 3022 2063 
Q 3016 2534 2758 2815 
Q 2500 3097 2075 3097 
Q 1594 3097 1305 2825 
Q 1016 2553 972 2059 
L 3022 2063 
z
" transform="scale(0.015625)"/>
      <path id="DejaVuSans-74" d="M 1172 4494 
L 1172 3500 
L 2356 3500 
L 2356 3053 
L 1172 3053 
L 1172 1153 
Q 1172 725 1289 603 
Q 1406 481 1766 481 
L 2356 481 
L 2356 0 
L 1766 0 
Q 1100 0 847 248 
Q 594 497 594 1153 
L 594 3053 
L 172 3053 
L 172 3500 
L 594 3500 
L 594 4494 
L 1172 4494 
z
" transform="scale(0.015625)"/>
      <path id="DejaVuSans-5f" d="M 3263 -1063 
L 3263 -1509 
L -63 -1509 
L -63 -1063 
L 3263 -1063 
z
" transform="scale(0.015625)"/>
      <path id="DejaVuSans-73" d="M 2834 3397 
L 2834 2853 
Q 2591 2978 2328 3040 
Q 2066 3103 1784 3103 
Q 1356 3103 1142 2972 
Q 928 2841 928 2578 
Q 928 2378 1081 2264 
Q 1234 2150 1697 2047 
L 1894 2003 
Q 2506 1872 2764 1633 
Q 3022 1394 3022 966 
Q 3022 478 2636 193 
Q 2250 -91 1575 -91 
Q 1294 -91 989 -36 
Q 684 19 347 128 
L 347 722 
Q 666 556 975 473 
Q 1284 391 1588 391 
Q 1994 391 2212 530 
Q 2431 669 2431 922 
Q 2431 1156 2273 1281 
Q 2116 1406 1581 1522 
L 1381 1569 
Q 847 1681 609 1914 
Q 372 2147 372 2553 
Q 372 3047 722 3315 
Q 1072 3584 1716 3584 
Q 2034 3584 2315 3537 
Q 2597 3491 2834 3397 
z
" transform="scale(0.015625)"/>
      <path id="DejaVuSans-75" d="M 544 1381 
L 544 3500 
L 1119 3500 
L 1119 1403 
Q 1119 906 1312 657 
Q 1506 409 1894 409 
Q 2359 409 2629 706 
Q 2900 1003 2900 1516 
L 2900 3500 
L 3475 3500 
L 3475 0 
L 2900 0 
L 2900 538 
Q 2691 219 2414 64 
Q 2138 -91 1772 -91 
Q 1169 -91 856 284 
Q 544 659 544 1381 
z
M 1991 3584 
L 1991 3584 
z
" transform="scale(0.015625)"/>
      <path id="DejaVuSans-62" d="M 3116 1747 
Q 3116 2381 2855 2742 
Q 2594 3103 2138 3103 
Q 1681 3103 1420 2742 
Q 1159 2381 1159 1747 
Q 1159 1113 1420 752 
Q 1681 391 2138 391 
Q 2594 391 2855 752 
Q 3116 1113 3116 1747 
z
M 1159 2969 
Q 1341 3281 1617 3432 
Q 1894 3584 2278 3584 
Q 2916 3584 3314 3078 
Q 3713 2572 3713 1747 
Q 3713 922 3314 415 
Q 2916 -91 2278 -91 
Q 1894 -91 1617 61 
Q 1341 213 1159 525 
L 1159 0 
L 581 0 
L 581 4863 
L 1159 4863 
L 1159 2969 
z
" transform="scale(0.015625)"/>
      <path id="DejaVuSans-63" d="M 3122 3366 
L 3122 2828 
Q 2878 2963 2633 3030 
Q 2388 3097 2138 3097 
Q 1578 3097 1268 2742 
Q 959 2388 959 1747 
Q 959 1106 1268 751 
Q 1578 397 2138 397 
Q 2388 397 2633 464 
Q 2878 531 3122 666 
L 3122 134 
Q 2881 22 2623 -34 
Q 2366 -91 2075 -91 
Q 1284 -91 818 406 
Q 353 903 353 1747 
Q 353 2603 823 3093 
Q 1294 3584 2113 3584 
Q 2378 3584 2631 3529 
Q 2884 3475 3122 3366 
z
" transform="scale(0.015625)"/>
      <path id="DejaVuSans-72" d="M 2631 2963 
Q 2534 3019 2420 3045 
Q 2306 3072 2169 3072 
Q 1681 3072 1420 2755 
Q 1159 2438 1159 1844 
L 1159 0 
L 581 0 
L 581 3500 
L 1159 3500 
L 1159 2956 
Q 1341 3275 1631 3429 
Q 1922 3584 2338 3584 
Q 2397 3584 2469 3576 
Q 2541 3569 2628 3553 
L 2631 2963 
z
" transform="scale(0.015625)"/>
      <path id="DejaVuSans-69" d="M 603 3500 
L 1178 3500 
L 1178 0 
L 603 0 
L 603 3500 
z
M 603 4863 
L 1178 4863 
L 1178 4134 
L 603 4134 
L 603 4863 
z
" transform="scale(0.015625)"/>
      <path id="DejaVuSans-20" transform="scale(0.015625)"/>
      <path id="DejaVuSans-68" d="M 3513 2113 
L 3513 0 
L 2938 0 
L 2938 2094 
Q 2938 2591 2744 2837 
Q 2550 3084 2163 3084 
Q 1697 3084 1428 2787 
Q 1159 2491 1159 1978 
L 1159 0 
L 581 0 
L 581 4863 
L 1159 4863 
L 1159 2956 
Q 1366 3272 1645 3428 
Q 1925 3584 2291 3584 
Q 2894 3584 3203 3211 
Q 3513 2838 3513 2113 
z
" transform="scale(0.015625)"/>
      <path id="DejaVuSans-6f" d="M 1959 3097 
Q 1497 3097 1228 2736 
Q 959 2375 959 1747 
Q 959 1119 1226 758 
Q 1494 397 1959 397 
Q 2419 397 2687 759 
Q 2956 1122 2956 1747 
Q 2956 2369 2687 2733 
Q 2419 3097 1959 3097 
z
M 1959 3584 
Q 2709 3584 3137 3096 
Q 3566 2609 3566 1747 
Q 3566 888 3137 398 
Q 2709 -91 1959 -91 
Q 1206 -91 779 398 
Q 353 888 353 1747 
Q 353 2609 779 3096 
Q 1206 3584 1959 3584 
z
" transform="scale(0.015625)"/>
      <path id="DejaVuSans-79" d="M 2059 -325 
Q 1816 -950 1584 -1140 
Q 1353 -1331 966 -1331 
L 506 -1331 
L 506 -850 
L 844 -850 
Q 1081 -850 1212 -737 
Q 1344 -625 1503 -206 
L 1606 56 
L 191 3500 
L 800 3500 
L 1894 763 
L 2988 3500 
L 3597 3500 
L 2059 -325 
z
" transform="scale(0.015625)"/>
     </defs>
     <use xlink:href="#DejaVuSans-67"/>
     <use xlink:href="#DejaVuSans-65" transform="translate(63.476562 0)"/>
     <use xlink:href="#DejaVuSans-74" transform="translate(125 0)"/>
     <use xlink:href="#DejaVuSans-5f" transform="translate(164.208984 0)"/>
     <use xlink:href="#DejaVuSans-73" transform="translate(214.208984 0)"/>
     <use xlink:href="#DejaVuSans-75" transform="translate(266.308594 0)"/>
     <use xlink:href="#DejaVuSans-62" transform="translate(329.6875 0)"/>
     <use xlink:href="#DejaVuSans-73" transform="translate(393.164062 0)"/>
     <use xlink:href="#DejaVuSans-63" transform="translate(445.263672 0)"/>
     <use xlink:href="#DejaVuSans-72" transform="translate(500.244141 0)"/>
     <use xlink:href="#DejaVuSans-69" transform="translate(541.357422 0)"/>
     <use xlink:href="#DejaVuSans-62" transform="translate(569.140625 0)"/>
     <use xlink:href="#DejaVuSans-65" transform="translate(632.617188 0)"/>
     <use xlink:href="#DejaVuSans-20" transform="translate(694.140625 0)"/>
     <use xlink:href="#DejaVuSans-68" transform="translate(725.927734 0)"/>
     <use xlink:href="#DejaVuSans-69" transform="translate(789.306641 0)"/>
     <use xlink:href="#DejaVuSans-73" transform="translate(817.089844 0)"/>
     <use xlink:href="#DejaVuSans-74" transform="translate(869.189453 0)"/>
     <use xlink:href="#DejaVuSans-6f" transform="translate(908.398438 0)"/>
     <use xlink:href="#DejaVuSans-72" transform="translate(969.580078 0)"/>
     <use xlink:href="#DejaVuSans-79" transform="translate(1010.693359 0)"/>
    </g>
   </g>
   <g id="legend_1">
    <g id="line2d_39">
     <path d="M 815.08 328.498438 
L 825.08 328.498438 
L 835.08 328.498438 
" style="fill: none; stroke: #1f77b4; stroke-width: 1.5; stroke-linecap: square"/>
    </g>
    <g id="text_20">
     <!-- star -->
     <g style="fill: #a9a9a9" transform="translate(843.08 331.998438) scale(0.1 -0.1)">
      <defs>
       <path id="DejaVuSans-61" d="M 2194 1759 
Q 1497 1759 1228 1600 
Q 959 1441 959 1056 
Q 959 750 1161 570 
Q 1363 391 1709 391 
Q 2188 391 2477 730 
Q 2766 1069 2766 1631 
L 2766 1759 
L 2194 1759 
z
M 3341 1997 
L 3341 0 
L 2766 0 
L 2766 531 
Q 2569 213 2275 61 
Q 1981 -91 1556 -91 
Q 1019 -91 701 211 
Q 384 513 384 1019 
Q 384 1609 779 1909 
Q 1175 2209 1959 2209 
L 2766 2209 
L 2766 2266 
Q 2766 2663 2505 2880 
Q 2244 3097 1772 3097 
Q 1472 3097 1187 3025 
Q 903 2953 641 2809 
L 641 3341 
Q 956 3463 1253 3523 
Q 1550 3584 1831 3584 
Q 2591 3584 2966 3190 
Q 3341 2797 3341 1997 
z
" transform="scale(0.015625)"/>
      </defs>
      <use xlink:href="#DejaVuSans-73"/>
      <use xlink:href="#DejaVuSans-74" transform="translate(52.099609 0)"/>
      <use xlink:href="#DejaVuSans-61" transform="translate(91.308594 0)"/>
      <use xlink:href="#DejaVuSans-72" transform="translate(152.587891 0)"/>
     </g>
    </g>
    <g id="line2d_40">
     <path d="M 815.08 343.176562 
L 825.08 343.176562 
L 835.08 343.176562 
" style="fill: none; stroke: #ff7f0e; stroke-width: 1.5; stroke-linecap: square"/>
    </g>
    <g id="text_21">
     <!-- fork -->
     <g style="fill: #a9a9a9" transform="translate(843.08 346.676562) scale(0.1 -0.1)">
      <defs>
       <path id="DejaVuSans-66" d="M 2375 4863 
L 2375 4384 
L 1825 4384 
Q 1516 4384 1395 4259 
Q 1275 4134 1275 3809 
L 1275 3500 
L 2222 3500 
L 2222 3053 
L 1275 3053 
L 1275 0 
L 697 0 
L 697 3053 
L 147 3053 
L 147 3500 
L 697 3500 
L 697 3744 
Q 697 4328 969 4595 
Q 1241 4863 1831 4863 
L 2375 4863 
z
" transform="scale(0.015625)"/>
       <path id="DejaVuSans-6b" d="M 581 4863 
L 1159 4863 
L 1159 1991 
L 2875 3500 
L 3609 3500 
L 1753 1863 
L 3688 0 
L 2938 0 
L 1159 1709 
L 1159 0 
L 581 0 
L 581 4863 
z
" transform="scale(0.015625)"/>
      </defs>
      <use xlink:href="#DejaVuSans-66"/>
      <use xlink:href="#DejaVuSans-6f" transform="translate(35.205078 0)"/>
      <use xlink:href="#DejaVuSans-72" transform="translate(96.386719 0)"/>
      <use xlink:href="#DejaVuSans-6b" transform="translate(137.5 0)"/>
     </g>
    </g>
   </g>
  </g>
 </g>
 <defs>
  <clipPath id="p5cdba4c0db">
   <rect x="108" y="43.2" width="669.6" height="277.2"/>
  </clipPath>
 </defs>
</svg>
