<?xml version="1.0" encoding="utf-8" standalone="no"?>
<!DOCTYPE svg PUBLIC "-//W3C//DTD SVG 1.1//EN"
  "http://www.w3.org/Graphics/SVG/1.1/DTD/svg11.dtd">
<svg xmlns:xlink="http://www.w3.org/1999/xlink" width="864pt" height="360pt" viewBox="0 0 864 360" xmlns="http://www.w3.org/2000/svg" version="1.1">
 <metadata>
  <rdf:RDF xmlns:dc="http://purl.org/dc/elements/1.1/" xmlns:cc="http://creativecommons.org/ns#" xmlns:rdf="http://www.w3.org/1999/02/22-rdf-syntax-ns#">
   <cc:Work>
    <dc:type rdf:resource="http://purl.org/dc/dcmitype/StillImage"/>
    <dc:date>2025-06-19T08:16:24.900093</dc:date>
    <dc:format>image/svg+xml</dc:format>
    <dc:creator>
     <cc:Agent>
      <dc:title>Matplotlib v3.10.3, https://matplotlib.org/</dc:title>
     </cc:Agent>
    </dc:creator>
   </cc:Work>
  </rdf:RDF>
 </metadata>
 <defs>
  <style type="text/css">*{stroke-linejoin: round; stroke-linecap: butt}</style>
 </defs>
 <g id="figure_1">
  <g id="patch_1">
   <path d="M 0 360 
L 864 360 
L 864 0 
L 0 0 
L 0 360 
z
" style="fill: none; opacity: 0"/>
  </g>
  <g id="axes_1">
   <g id="patch_2">
    <path d="M 108 320.4 
L 777.6 320.4 
L 777.6 43.2 
L 108 43.2 
L 108 320.4 
z
" style="fill: none; opacity: 0"/>
   </g>
   <g id="matplotlib.axis_1">
    <g id="xtick_1">
     <g id="line2d_1">
      <path d="M 128.618182 320.4 
L 128.618182 43.2 
" clip-path="url(#pd58ed350d1)" style="fill: none; stroke-dasharray: 5.12,1.28,0.8,1.28; stroke-dashoffset: 0; stroke: #b0b0b0; stroke-width: 0.8"/>
     </g>
     <g id="line2d_2">
      <defs>
       <path id="mac5e6f92df" d="M 0 0 
L 0 3.5 
" style="stroke: #a9a9a9; stroke-width: 0.8"/>
      </defs>
      <g>
       <use xlink:href="#mac5e6f92df" x="128.618182" y="320.4" style="fill: #a9a9a9; stroke: #a9a9a9; stroke-width: 0.8"/>
      </g>
     </g>
     <g id="text_1">
      <!-- 2021-07 -->
      <g style="fill: #a9a9a9" transform="translate(107.726776 334.998438) scale(0.1 -0.1)">
       <defs>
        <path id="DejaVuSans-32" d="M 1228 531 
L 3431 531 
L 3431 0 
L 469 0 
L 469 531 
Q 828 903 1448 1529 
Q 2069 2156 2228 2338 
Q 2531 2678 2651 2914 
Q 2772 3150 2772 3378 
Q 2772 3750 2511 3984 
Q 2250 4219 1831 4219 
Q 1534 4219 1204 4116 
Q 875 4013 500 3803 
L 500 4441 
Q 881 4594 1212 4672 
Q 1544 4750 1819 4750 
Q 2544 4750 2975 4387 
Q 3406 4025 3406 3419 
Q 3406 3131 3298 2873 
Q 3191 2616 2906 2266 
Q 2828 2175 2409 1742 
Q 1991 1309 1228 531 
z
" transform="scale(0.015625)"/>
        <path id="DejaVuSans-30" d="M 2034 4250 
Q 1547 4250 1301 3770 
Q 1056 3291 1056 2328 
Q 1056 1369 1301 889 
Q 1547 409 2034 409 
Q 2525 409 2770 889 
Q 3016 1369 3016 2328 
Q 3016 3291 2770 3770 
Q 2525 4250 2034 4250 
z
M 2034 4750 
Q 2819 4750 3233 4129 
Q 3647 3509 3647 2328 
Q 3647 1150 3233 529 
Q 2819 -91 2034 -91 
Q 1250 -91 836 529 
Q 422 1150 422 2328 
Q 422 3509 836 4129 
Q 1250 4750 2034 4750 
z
" transform="scale(0.015625)"/>
        <path id="DejaVuSans-31" d="M 794 531 
L 1825 531 
L 1825 4091 
L 703 3866 
L 703 4441 
L 1819 4666 
L 2450 4666 
L 2450 531 
L 3481 531 
L 3481 0 
L 794 0 
L 794 531 
z
" transform="scale(0.015625)"/>
        <path id="DejaVuSans-2d" d="M 313 2009 
L 1997 2009 
L 1997 1497 
L 313 1497 
L 313 2009 
z
" transform="scale(0.015625)"/>
        <path id="DejaVuSans-37" d="M 525 4666 
L 3525 4666 
L 3525 4397 
L 1831 0 
L 1172 0 
L 2766 4134 
L 525 4134 
L 525 4666 
z
" transform="scale(0.015625)"/>
       </defs>
       <use xlink:href="#DejaVuSans-32"/>
       <use xlink:href="#DejaVuSans-30" transform="translate(63.623047 0)"/>
       <use xlink:href="#DejaVuSans-32" transform="translate(127.246094 0)"/>
       <use xlink:href="#DejaVuSans-31" transform="translate(190.869141 0)"/>
       <use xlink:href="#DejaVuSans-2d" transform="translate(254.492188 0)"/>
       <use xlink:href="#DejaVuSans-30" transform="translate(290.576172 0)"/>
       <use xlink:href="#DejaVuSans-37" transform="translate(354.199219 0)"/>
      </g>
     </g>
    </g>
    <g id="xtick_2">
     <g id="line2d_3">
      <path d="M 207.163636 320.4 
L 207.163636 43.2 
" clip-path="url(#pd58ed350d1)" style="fill: none; stroke-dasharray: 5.12,1.28,0.8,1.28; stroke-dashoffset: 0; stroke: #b0b0b0; stroke-width: 0.8"/>
     </g>
     <g id="line2d_4">
      <g>
       <use xlink:href="#mac5e6f92df" x="207.163636" y="320.4" style="fill: #a9a9a9; stroke: #a9a9a9; stroke-width: 0.8"/>
      </g>
     </g>
     <g id="text_2">
      <!-- 2022-01 -->
      <g style="fill: #a9a9a9" transform="translate(186.27223 334.998438) scale(0.1 -0.1)">
       <use xlink:href="#DejaVuSans-32"/>
       <use xlink:href="#DejaVuSans-30" transform="translate(63.623047 0)"/>
       <use xlink:href="#DejaVuSans-32" transform="translate(127.246094 0)"/>
       <use xlink:href="#DejaVuSans-32" transform="translate(190.869141 0)"/>
       <use xlink:href="#DejaVuSans-2d" transform="translate(254.492188 0)"/>
       <use xlink:href="#DejaVuSans-30" transform="translate(290.576172 0)"/>
       <use xlink:href="#DejaVuSans-31" transform="translate(354.199219 0)"/>
      </g>
     </g>
    </g>
    <g id="xtick_3">
     <g id="line2d_5">
      <path d="M 284.428458 320.4 
L 284.428458 43.2 
" clip-path="url(#pd58ed350d1)" style="fill: none; stroke-dasharray: 5.12,1.28,0.8,1.28; stroke-dashoffset: 0; stroke: #b0b0b0; stroke-width: 0.8"/>
     </g>
     <g id="line2d_6">
      <g>
       <use xlink:href="#mac5e6f92df" x="284.428458" y="320.4" style="fill: #a9a9a9; stroke: #a9a9a9; stroke-width: 0.8"/>
      </g>
     </g>
     <g id="text_3">
      <!-- 2022-07 -->
      <g style="fill: #a9a9a9" transform="translate(263.537052 334.998438) scale(0.1 -0.1)">
       <use xlink:href="#DejaVuSans-32"/>
       <use xlink:href="#DejaVuSans-30" transform="translate(63.623047 0)"/>
       <use xlink:href="#DejaVuSans-32" transform="translate(127.246094 0)"/>
       <use xlink:href="#DejaVuSans-32" transform="translate(190.869141 0)"/>
       <use xlink:href="#DejaVuSans-2d" transform="translate(254.492188 0)"/>
       <use xlink:href="#DejaVuSans-30" transform="translate(290.576172 0)"/>
       <use xlink:href="#DejaVuSans-37" transform="translate(354.199219 0)"/>
      </g>
     </g>
    </g>
    <g id="xtick_4">
     <g id="line2d_7">
      <path d="M 362.973913 320.4 
L 362.973913 43.2 
" clip-path="url(#pd58ed350d1)" style="fill: none; stroke-dasharray: 5.12,1.28,0.8,1.28; stroke-dashoffset: 0; stroke: #b0b0b0; stroke-width: 0.8"/>
     </g>
     <g id="line2d_8">
      <g>
       <use xlink:href="#mac5e6f92df" x="362.973913" y="320.4" style="fill: #a9a9a9; stroke: #a9a9a9; stroke-width: 0.8"/>
      </g>
     </g>
     <g id="text_4">
      <!-- 2023-01 -->
      <g style="fill: #a9a9a9" transform="translate(342.082507 334.998438) scale(0.1 -0.1)">
       <defs>
        <path id="DejaVuSans-33" d="M 2597 2516 
Q 3050 2419 3304 2112 
Q 3559 1806 3559 1356 
Q 3559 666 3084 287 
Q 2609 -91 1734 -91 
Q 1441 -91 1130 -33 
Q 819 25 488 141 
L 488 750 
Q 750 597 1062 519 
Q 1375 441 1716 441 
Q 2309 441 2620 675 
Q 2931 909 2931 1356 
Q 2931 1769 2642 2001 
Q 2353 2234 1838 2234 
L 1294 2234 
L 1294 2753 
L 1863 2753 
Q 2328 2753 2575 2939 
Q 2822 3125 2822 3475 
Q 2822 3834 2567 4026 
Q 2313 4219 1838 4219 
Q 1578 4219 1281 4162 
Q 984 4106 628 3988 
L 628 4550 
Q 988 4650 1302 4700 
Q 1616 4750 1894 4750 
Q 2613 4750 3031 4423 
Q 3450 4097 3450 3541 
Q 3450 3153 3228 2886 
Q 3006 2619 2597 2516 
z
" transform="scale(0.015625)"/>
       </defs>
       <use xlink:href="#DejaVuSans-32"/>
       <use xlink:href="#DejaVuSans-30" transform="translate(63.623047 0)"/>
       <use xlink:href="#DejaVuSans-32" transform="translate(127.246094 0)"/>
       <use xlink:href="#DejaVuSans-33" transform="translate(190.869141 0)"/>
       <use xlink:href="#DejaVuSans-2d" transform="translate(254.492188 0)"/>
       <use xlink:href="#DejaVuSans-30" transform="translate(290.576172 0)"/>
       <use xlink:href="#DejaVuSans-31" transform="translate(354.199219 0)"/>
      </g>
     </g>
    </g>
    <g id="xtick_5">
     <g id="line2d_9">
      <path d="M 440.238735 320.4 
L 440.238735 43.2 
" clip-path="url(#pd58ed350d1)" style="fill: none; stroke-dasharray: 5.12,1.28,0.8,1.28; stroke-dashoffset: 0; stroke: #b0b0b0; stroke-width: 0.8"/>
     </g>
     <g id="line2d_10">
      <g>
       <use xlink:href="#mac5e6f92df" x="440.238735" y="320.4" style="fill: #a9a9a9; stroke: #a9a9a9; stroke-width: 0.8"/>
      </g>
     </g>
     <g id="text_5">
      <!-- 2023-07 -->
      <g style="fill: #a9a9a9" transform="translate(419.347329 334.998438) scale(0.1 -0.1)">
       <use xlink:href="#DejaVuSans-32"/>
       <use xlink:href="#DejaVuSans-30" transform="translate(63.623047 0)"/>
       <use xlink:href="#DejaVuSans-32" transform="translate(127.246094 0)"/>
       <use xlink:href="#DejaVuSans-33" transform="translate(190.869141 0)"/>
       <use xlink:href="#DejaVuSans-2d" transform="translate(254.492188 0)"/>
       <use xlink:href="#DejaVuSans-30" transform="translate(290.576172 0)"/>
       <use xlink:href="#DejaVuSans-37" transform="translate(354.199219 0)"/>
      </g>
     </g>
    </g>
    <g id="xtick_6">
     <g id="line2d_11">
      <path d="M 518.78419 320.4 
L 518.78419 43.2 
" clip-path="url(#pd58ed350d1)" style="fill: none; stroke-dasharray: 5.12,1.28,0.8,1.28; stroke-dashoffset: 0; stroke: #b0b0b0; stroke-width: 0.8"/>
     </g>
     <g id="line2d_12">
      <g>
       <use xlink:href="#mac5e6f92df" x="518.78419" y="320.4" style="fill: #a9a9a9; stroke: #a9a9a9; stroke-width: 0.8"/>
      </g>
     </g>
     <g id="text_6">
      <!-- 2024-01 -->
      <g style="fill: #a9a9a9" transform="translate(497.892783 334.998438) scale(0.1 -0.1)">
       <defs>
        <path id="DejaVuSans-34" d="M 2419 4116 
L 825 1625 
L 2419 1625 
L 2419 4116 
z
M 2253 4666 
L 3047 4666 
L 3047 1625 
L 3713 1625 
L 3713 1100 
L 3047 1100 
L 3047 0 
L 2419 0 
L 2419 1100 
L 313 1100 
L 313 1709 
L 2253 4666 
z
" transform="scale(0.015625)"/>
       </defs>
       <use xlink:href="#DejaVuSans-32"/>
       <use xlink:href="#DejaVuSans-30" transform="translate(63.623047 0)"/>
       <use xlink:href="#DejaVuSans-32" transform="translate(127.246094 0)"/>
       <use xlink:href="#DejaVuSans-34" transform="translate(190.869141 0)"/>
       <use xlink:href="#DejaVuSans-2d" transform="translate(254.492188 0)"/>
       <use xlink:href="#DejaVuSans-30" transform="translate(290.576172 0)"/>
       <use xlink:href="#DejaVuSans-31" transform="translate(354.199219 0)"/>
      </g>
     </g>
    </g>
    <g id="xtick_7">
     <g id="line2d_13">
      <path d="M 596.475889 320.4 
L 596.475889 43.2 
" clip-path="url(#pd58ed350d1)" style="fill: none; stroke-dasharray: 5.12,1.28,0.8,1.28; stroke-dashoffset: 0; stroke: #b0b0b0; stroke-width: 0.8"/>
     </g>
     <g id="line2d_14">
      <g>
       <use xlink:href="#mac5e6f92df" x="596.475889" y="320.4" style="fill: #a9a9a9; stroke: #a9a9a9; stroke-width: 0.8"/>
      </g>
     </g>
     <g id="text_7">
      <!-- 2024-07 -->
      <g style="fill: #a9a9a9" transform="translate(575.584483 334.998438) scale(0.1 -0.1)">
       <use xlink:href="#DejaVuSans-32"/>
       <use xlink:href="#DejaVuSans-30" transform="translate(63.623047 0)"/>
       <use xlink:href="#DejaVuSans-32" transform="translate(127.246094 0)"/>
       <use xlink:href="#DejaVuSans-34" transform="translate(190.869141 0)"/>
       <use xlink:href="#DejaVuSans-2d" transform="translate(254.492188 0)"/>
       <use xlink:href="#DejaVuSans-30" transform="translate(290.576172 0)"/>
       <use xlink:href="#DejaVuSans-37" transform="translate(354.199219 0)"/>
      </g>
     </g>
    </g>
    <g id="xtick_8">
     <g id="line2d_15">
      <path d="M 675.021344 320.4 
L 675.021344 43.2 
" clip-path="url(#pd58ed350d1)" style="fill: none; stroke-dasharray: 5.12,1.28,0.8,1.28; stroke-dashoffset: 0; stroke: #b0b0b0; stroke-width: 0.8"/>
     </g>
     <g id="line2d_16">
      <g>
       <use xlink:href="#mac5e6f92df" x="675.021344" y="320.4" style="fill: #a9a9a9; stroke: #a9a9a9; stroke-width: 0.8"/>
      </g>
     </g>
     <g id="text_8">
      <!-- 2025-01 -->
      <g style="fill: #a9a9a9" transform="translate(654.129938 334.998438) scale(0.1 -0.1)">
       <defs>
        <path id="DejaVuSans-35" d="M 691 4666 
L 3169 4666 
L 3169 4134 
L 1269 4134 
L 1269 2991 
Q 1406 3038 1543 3061 
Q 1681 3084 1819 3084 
Q 2600 3084 3056 2656 
Q 3513 2228 3513 1497 
Q 3513 744 3044 326 
Q 2575 -91 1722 -91 
Q 1428 -91 1123 -41 
Q 819 9 494 109 
L 494 744 
Q 775 591 1075 516 
Q 1375 441 1709 441 
Q 2250 441 2565 725 
Q 2881 1009 2881 1497 
Q 2881 1984 2565 2268 
Q 2250 2553 1709 2553 
Q 1456 2553 1204 2497 
Q 953 2441 691 2322 
L 691 4666 
z
" transform="scale(0.015625)"/>
       </defs>
       <use xlink:href="#DejaVuSans-32"/>
       <use xlink:href="#DejaVuSans-30" transform="translate(63.623047 0)"/>
       <use xlink:href="#DejaVuSans-32" transform="translate(127.246094 0)"/>
       <use xlink:href="#DejaVuSans-35" transform="translate(190.869141 0)"/>
       <use xlink:href="#DejaVuSans-2d" transform="translate(254.492188 0)"/>
       <use xlink:href="#DejaVuSans-30" transform="translate(290.576172 0)"/>
       <use xlink:href="#DejaVuSans-31" transform="translate(354.199219 0)"/>
      </g>
     </g>
    </g>
    <g id="xtick_9">
     <g id="line2d_17">
      <path d="M 752.286166 320.4 
L 752.286166 43.2 
" clip-path="url(#pd58ed350d1)" style="fill: none; stroke-dasharray: 5.12,1.28,0.8,1.28; stroke-dashoffset: 0; stroke: #b0b0b0; stroke-width: 0.8"/>
     </g>
     <g id="line2d_18">
      <g>
       <use xlink:href="#mac5e6f92df" x="752.286166" y="320.4" style="fill: #a9a9a9; stroke: #a9a9a9; stroke-width: 0.8"/>
      </g>
     </g>
     <g id="text_9">
      <!-- 2025-07 -->
      <g style="fill: #a9a9a9" transform="translate(731.39476 334.998438) scale(0.1 -0.1)">
       <use xlink:href="#DejaVuSans-32"/>
       <use xlink:href="#DejaVuSans-30" transform="translate(63.623047 0)"/>
       <use xlink:href="#DejaVuSans-32" transform="translate(127.246094 0)"/>
       <use xlink:href="#DejaVuSans-35" transform="translate(190.869141 0)"/>
       <use xlink:href="#DejaVuSans-2d" transform="translate(254.492188 0)"/>
       <use xlink:href="#DejaVuSans-30" transform="translate(290.576172 0)"/>
       <use xlink:href="#DejaVuSans-37" transform="translate(354.199219 0)"/>
      </g>
     </g>
    </g>
   </g>
   <g id="matplotlib.axis_2">
    <g id="ytick_1">
     <g id="line2d_19">
      <path d="M 108 307.832558 
L 777.6 307.832558 
" clip-path="url(#pd58ed350d1)" style="fill: none; stroke-dasharray: 5.12,1.28,0.8,1.28; stroke-dashoffset: 0; stroke: #b0b0b0; stroke-width: 0.8"/>
     </g>
     <g id="line2d_20">
      <defs>
       <path id="m71bcedbffd" d="M 0 0 
L -3.5 0 
" style="stroke: #a9a9a9; stroke-width: 0.8"/>
      </defs>
      <g>
       <use xlink:href="#m71bcedbffd" x="108" y="307.832558" style="fill: #a9a9a9; stroke: #a9a9a9; stroke-width: 0.8"/>
      </g>
     </g>
     <g id="text_10">
      <!-- 0 -->
      <g style="fill: #a9a9a9" transform="translate(94.6375 311.631777) scale(0.1 -0.1)">
       <use xlink:href="#DejaVuSans-30"/>
      </g>
     </g>
    </g>
    <g id="ytick_2">
     <g id="line2d_21">
      <path d="M 108 275.274419 
L 777.6 275.274419 
" clip-path="url(#pd58ed350d1)" style="fill: none; stroke-dasharray: 5.12,1.28,0.8,1.28; stroke-dashoffset: 0; stroke: #b0b0b0; stroke-width: 0.8"/>
     </g>
     <g id="line2d_22">
      <g>
       <use xlink:href="#m71bcedbffd" x="108" y="275.274419" style="fill: #a9a9a9; stroke: #a9a9a9; stroke-width: 0.8"/>
      </g>
     </g>
     <g id="text_11">
      <!-- 1000 -->
      <g style="fill: #a9a9a9" transform="translate(75.55 279.073637) scale(0.1 -0.1)">
       <use xlink:href="#DejaVuSans-31"/>
       <use xlink:href="#DejaVuSans-30" transform="translate(63.623047 0)"/>
       <use xlink:href="#DejaVuSans-30" transform="translate(127.246094 0)"/>
       <use xlink:href="#DejaVuSans-30" transform="translate(190.869141 0)"/>
      </g>
     </g>
    </g>
    <g id="ytick_3">
     <g id="line2d_23">
      <path d="M 108 242.716279 
L 777.6 242.716279 
" clip-path="url(#pd58ed350d1)" style="fill: none; stroke-dasharray: 5.12,1.28,0.8,1.28; stroke-dashoffset: 0; stroke: #b0b0b0; stroke-width: 0.8"/>
     </g>
     <g id="line2d_24">
      <g>
       <use xlink:href="#m71bcedbffd" x="108" y="242.716279" style="fill: #a9a9a9; stroke: #a9a9a9; stroke-width: 0.8"/>
      </g>
     </g>
     <g id="text_12">
      <!-- 2000 -->
      <g style="fill: #a9a9a9" transform="translate(75.55 246.515498) scale(0.1 -0.1)">
       <use xlink:href="#DejaVuSans-32"/>
       <use xlink:href="#DejaVuSans-30" transform="translate(63.623047 0)"/>
       <use xlink:href="#DejaVuSans-30" transform="translate(127.246094 0)"/>
       <use xlink:href="#DejaVuSans-30" transform="translate(190.869141 0)"/>
      </g>
     </g>
    </g>
    <g id="ytick_4">
     <g id="line2d_25">
      <path d="M 108 210.15814 
L 777.6 210.15814 
" clip-path="url(#pd58ed350d1)" style="fill: none; stroke-dasharray: 5.12,1.28,0.8,1.28; stroke-dashoffset: 0; stroke: #b0b0b0; stroke-width: 0.8"/>
     </g>
     <g id="line2d_26">
      <g>
       <use xlink:href="#m71bcedbffd" x="108" y="210.15814" style="fill: #a9a9a9; stroke: #a9a9a9; stroke-width: 0.8"/>
      </g>
     </g>
     <g id="text_13">
      <!-- 3000 -->
      <g style="fill: #a9a9a9" transform="translate(75.55 213.957358) scale(0.1 -0.1)">
       <use xlink:href="#DejaVuSans-33"/>
       <use xlink:href="#DejaVuSans-30" transform="translate(63.623047 0)"/>
       <use xlink:href="#DejaVuSans-30" transform="translate(127.246094 0)"/>
       <use xlink:href="#DejaVuSans-30" transform="translate(190.869141 0)"/>
      </g>
     </g>
    </g>
    <g id="ytick_5">
     <g id="line2d_27">
      <path d="M 108 177.6 
L 777.6 177.6 
" clip-path="url(#pd58ed350d1)" style="fill: none; stroke-dasharray: 5.12,1.28,0.8,1.28; stroke-dashoffset: 0; stroke: #b0b0b0; stroke-width: 0.8"/>
     </g>
     <g id="line2d_28">
      <g>
       <use xlink:href="#m71bcedbffd" x="108" y="177.6" style="fill: #a9a9a9; stroke: #a9a9a9; stroke-width: 0.8"/>
      </g>
     </g>
     <g id="text_14">
      <!-- 4000 -->
      <g style="fill: #a9a9a9" transform="translate(75.55 181.399219) scale(0.1 -0.1)">
       <use xlink:href="#DejaVuSans-34"/>
       <use xlink:href="#DejaVuSans-30" transform="translate(63.623047 0)"/>
       <use xlink:href="#DejaVuSans-30" transform="translate(127.246094 0)"/>
       <use xlink:href="#DejaVuSans-30" transform="translate(190.869141 0)"/>
      </g>
     </g>
    </g>
    <g id="ytick_6">
     <g id="line2d_29">
      <path d="M 108 145.04186 
L 777.6 145.04186 
" clip-path="url(#pd58ed350d1)" style="fill: none; stroke-dasharray: 5.12,1.28,0.8,1.28; stroke-dashoffset: 0; stroke: #b0b0b0; stroke-width: 0.8"/>
     </g>
     <g id="line2d_30">
      <g>
       <use xlink:href="#m71bcedbffd" x="108" y="145.04186" style="fill: #a9a9a9; stroke: #a9a9a9; stroke-width: 0.8"/>
      </g>
     </g>
     <g id="text_15">
      <!-- 5000 -->
      <g style="fill: #a9a9a9" transform="translate(75.55 148.841079) scale(0.1 -0.1)">
       <use xlink:href="#DejaVuSans-35"/>
       <use xlink:href="#DejaVuSans-30" transform="translate(63.623047 0)"/>
       <use xlink:href="#DejaVuSans-30" transform="translate(127.246094 0)"/>
       <use xlink:href="#DejaVuSans-30" transform="translate(190.869141 0)"/>
      </g>
     </g>
    </g>
    <g id="ytick_7">
     <g id="line2d_31">
      <path d="M 108 112.483721 
L 777.6 112.483721 
" clip-path="url(#pd58ed350d1)" style="fill: none; stroke-dasharray: 5.12,1.28,0.8,1.28; stroke-dashoffset: 0; stroke: #b0b0b0; stroke-width: 0.8"/>
     </g>
     <g id="line2d_32">
      <g>
       <use xlink:href="#m71bcedbffd" x="108" y="112.483721" style="fill: #a9a9a9; stroke: #a9a9a9; stroke-width: 0.8"/>
      </g>
     </g>
     <g id="text_16">
      <!-- 6000 -->
      <g style="fill: #a9a9a9" transform="translate(75.55 116.28294) scale(0.1 -0.1)">
       <defs>
        <path id="DejaVuSans-36" d="M 2113 2584 
Q 1688 2584 1439 2293 
Q 1191 2003 1191 1497 
Q 1191 994 1439 701 
Q 1688 409 2113 409 
Q 2538 409 2786 701 
Q 3034 994 3034 1497 
Q 3034 2003 2786 2293 
Q 2538 2584 2113 2584 
z
M 3366 4563 
L 3366 3988 
Q 3128 4100 2886 4159 
Q 2644 4219 2406 4219 
Q 1781 4219 1451 3797 
Q 1122 3375 1075 2522 
Q 1259 2794 1537 2939 
Q 1816 3084 2150 3084 
Q 2853 3084 3261 2657 
Q 3669 2231 3669 1497 
Q 3669 778 3244 343 
Q 2819 -91 2113 -91 
Q 1303 -91 875 529 
Q 447 1150 447 2328 
Q 447 3434 972 4092 
Q 1497 4750 2381 4750 
Q 2619 4750 2861 4703 
Q 3103 4656 3366 4563 
z
" transform="scale(0.015625)"/>
       </defs>
       <use xlink:href="#DejaVuSans-36"/>
       <use xlink:href="#DejaVuSans-30" transform="translate(63.623047 0)"/>
       <use xlink:href="#DejaVuSans-30" transform="translate(127.246094 0)"/>
       <use xlink:href="#DejaVuSans-30" transform="translate(190.869141 0)"/>
      </g>
     </g>
    </g>
    <g id="ytick_8">
     <g id="line2d_33">
      <path d="M 108 79.925581 
L 777.6 79.925581 
" clip-path="url(#pd58ed350d1)" style="fill: none; stroke-dasharray: 5.12,1.28,0.8,1.28; stroke-dashoffset: 0; stroke: #b0b0b0; stroke-width: 0.8"/>
     </g>
     <g id="line2d_34">
      <g>
       <use xlink:href="#m71bcedbffd" x="108" y="79.925581" style="fill: #a9a9a9; stroke: #a9a9a9; stroke-width: 0.8"/>
      </g>
     </g>
     <g id="text_17">
      <!-- 7000 -->
      <g style="fill: #a9a9a9" transform="translate(75.55 83.7248) scale(0.1 -0.1)">
       <use xlink:href="#DejaVuSans-37"/>
       <use xlink:href="#DejaVuSans-30" transform="translate(63.623047 0)"/>
       <use xlink:href="#DejaVuSans-30" transform="translate(127.246094 0)"/>
       <use xlink:href="#DejaVuSans-30" transform="translate(190.869141 0)"/>
      </g>
     </g>
    </g>
    <g id="ytick_9">
     <g id="line2d_35">
      <path d="M 108 47.367442 
L 777.6 47.367442 
" clip-path="url(#pd58ed350d1)" style="fill: none; stroke-dasharray: 5.12,1.28,0.8,1.28; stroke-dashoffset: 0; stroke: #b0b0b0; stroke-width: 0.8"/>
     </g>
     <g id="line2d_36">
      <g>
       <use xlink:href="#m71bcedbffd" x="108" y="47.367442" style="fill: #a9a9a9; stroke: #a9a9a9; stroke-width: 0.8"/>
      </g>
     </g>
     <g id="text_18">
      <!-- 8000 -->
      <g style="fill: #a9a9a9" transform="translate(75.55 51.166661) scale(0.1 -0.1)">
       <defs>
        <path id="DejaVuSans-38" d="M 2034 2216 
Q 1584 2216 1326 1975 
Q 1069 1734 1069 1313 
Q 1069 891 1326 650 
Q 1584 409 2034 409 
Q 2484 409 2743 651 
Q 3003 894 3003 1313 
Q 3003 1734 2745 1975 
Q 2488 2216 2034 2216 
z
M 1403 2484 
Q 997 2584 770 2862 
Q 544 3141 544 3541 
Q 544 4100 942 4425 
Q 1341 4750 2034 4750 
Q 2731 4750 3128 4425 
Q 3525 4100 3525 3541 
Q 3525 3141 3298 2862 
Q 3072 2584 2669 2484 
Q 3125 2378 3379 2068 
Q 3634 1759 3634 1313 
Q 3634 634 3220 271 
Q 2806 -91 2034 -91 
Q 1263 -91 848 271 
Q 434 634 434 1313 
Q 434 1759 690 2068 
Q 947 2378 1403 2484 
z
M 1172 3481 
Q 1172 3119 1398 2916 
Q 1625 2713 2034 2713 
Q 2441 2713 2670 2916 
Q 2900 3119 2900 3481 
Q 2900 3844 2670 4047 
Q 2441 4250 2034 4250 
Q 1625 4250 1398 4047 
Q 1172 3844 1172 3481 
z
" transform="scale(0.015625)"/>
       </defs>
       <use xlink:href="#DejaVuSans-38"/>
       <use xlink:href="#DejaVuSans-30" transform="translate(63.623047 0)"/>
       <use xlink:href="#DejaVuSans-30" transform="translate(127.246094 0)"/>
       <use xlink:href="#DejaVuSans-30" transform="translate(190.869141 0)"/>
      </g>
     </g>
    </g>
   </g>
   <g id="line2d_37">
    <path d="M 138.436364 307.734884 
L 140.997628 307.506977 
L 141.424506 307.311628 
L 143.132016 307.083721 
L 144.839526 306.725581 
L 145.693281 306.595349 
L 147.827668 306.4 
L 148.681423 306.04186 
L 149.1083 305.455814 
L 149.535178 305.162791 
L 149.962055 304.186047 
L 150.388933 304.12093 
L 150.81581 303.762791 
L 151.669565 303.306977 
L 153.377075 301.874419 
L 155.084585 300.995349 
L 156.365217 300.376744 
L 156.792095 299.660465 
L 157.64585 299.009302 
L 158.072727 298.813953 
L 162.341502 298.162791 
L 162.768379 297.967442 
L 165.756522 297.706977 
L 167.464032 297.283721 
L 170.879051 296.795349 
L 171.305929 296.567442 
L 171.732806 296.502326 
L 172.586561 296.209302 
L 175.574704 295.688372 
L 176.428458 295.427907 
L 180.270356 294.776744 
L 181.124111 294.581395 
L 181.977866 294.548837 
L 183.685375 294.125581 
L 184.112253 293.506977 
L 185.392885 292.986047 
L 186.673518 292.627907 
L 187.100395 292.4 
L 187.95415 292.237209 
L 189.66166 291.716279 
L 190.515415 291.651163 
L 191.36917 291.423256 
L 193.07668 290.967442 
L 193.503557 290.934884 
L 194.357312 290.511628 
L 194.78419 290.446512 
L 195.211067 290.218605 
L 199.906719 289.404651 
L 201.614229 288.883721 
L 202.041107 288.590698 
L 204.175494 287.874419 
L 205.029249 287.255814 
L 206.309881 286.995349 
L 215.701186 284.162791 
L 216.128063 284.130233 
L 217.408696 283.739535 
L 217.835573 283.739535 
L 218.262451 283.544186 
L 219.116206 283.446512 
L 219.543083 283.283721 
L 221.250593 283.218605 
L 222.104348 283.055814 
L 222.958103 282.6 
L 224.238735 282.111628 
L 225.09249 281.655814 
L 225.946245 281.2 
L 226.8 280.906977 
L 227.226877 280.776744 
L 228.080632 280.223256 
L 228.50751 279.734884 
L 229.361265 278.367442 
L 229.788142 278.237209 
L 230.21502 278.237209 
L 231.92253 277.260465 
L 232.349407 277.162791 
L 232.776285 276.739535 
L 233.63004 276.381395 
L 234.483794 275.990698 
L 234.910672 275.469767 
L 235.337549 274.753488 
L 235.764427 274.460465 
L 236.191304 273.67907 
L 236.618182 273.190698 
L 239.179447 271.75814 
L 240.033202 271.04186 
L 240.460079 270.781395 
L 240.886957 270.162791 
L 241.313834 269.153488 
L 241.740711 268.469767 
L 242.167589 268.111628 
L 242.594466 267.916279 
L 246.009486 264.660465 
L 246.863241 263.846512 
L 249.424506 262.186047 
L 249.851383 262.023256 
L 251.558893 260.981395 
L 251.985771 260.786047 
L 254.120158 258.767442 
L 254.973913 258.409302 
L 255.827668 257.790698 
L 256.254545 257.530233 
L 256.681423 257.465116 
L 257.962055 256.716279 
L 258.388933 256.227907 
L 260.52332 255.023256 
L 260.950198 254.860465 
L 262.23083 253.948837 
L 268.633992 251.604651 
L 269.487747 250.790698 
L 270.768379 250.139535 
L 271.622134 249.586047 
L 272.475889 249.325581 
L 272.902767 249.032558 
L 273.329644 248.902326 
L 274.610277 248.023256 
L 276.744664 247.534884 
L 278.025296 246.753488 
L 279.305929 246.460465 
L 279.732806 246.362791 
L 281.013439 245.353488 
L 282.720949 244.865116 
L 283.147826 244.506977 
L 285.709091 243.595349 
L 286.562846 243.432558 
L 287.416601 243.074419 
L 290.404743 241.934884 
L 291.258498 241.804651 
L 292.53913 241.348837 
L 294.673518 240.274419 
L 296.381028 239.297674 
L 299.796047 237.832558 
L 300.222925 237.767442 
L 301.07668 237.246512 
L 301.930435 237.018605 
L 303.211067 236.497674 
L 304.918577 236.269767 
L 305.772332 235.813953 
L 306.199209 235.423256 
L 306.626087 234.64186 
L 308.333597 234.153488 
L 309.614229 233.469767 
L 310.467984 233.176744 
L 311.321739 232.72093 
L 313.883004 231.646512 
L 314.736759 231.451163 
L 315.590514 230.995349 
L 316.017391 230.8 
L 316.444269 230.734884 
L 318.578656 229.660465 
L 319.432411 229.106977 
L 320.713043 228.846512 
L 322.847431 228.293023 
L 323.274308 227.934884 
L 324.128063 227.64186 
L 326.262451 226.762791 
L 326.689328 226.437209 
L 327.116206 226.274419 
L 327.96996 225.786047 
L 329.67747 225.232558 
L 330.531225 224.67907 
L 330.958103 224.223256 
L 331.38498 223.962791 
L 331.811858 223.865116 
L 332.665613 223.148837 
L 333.09249 223.083721 
L 333.519368 222.367442 
L 333.946245 222.172093 
L 334.373123 221.813953 
L 334.8 221.748837 
L 335.653755 221.195349 
L 336.50751 220.902326 
L 336.934387 220.576744 
L 337.361265 220.413953 
L 339.068775 219.24186 
L 340.349407 218.590698 
L 341.203162 218.362791 
L 342.056917 217.874419 
L 342.483794 217.125581 
L 343.337549 216.474419 
L 343.764427 216.376744 
L 346.325692 215.106977 
L 347.179447 214.748837 
L 348.033202 214.130233 
L 348.886957 213.251163 
L 352.728854 210.190698 
L 353.155731 209.832558 
L 354.009486 209.539535 
L 354.863241 208.953488 
L 356.143874 208.269767 
L 356.570751 208.204651 
L 357.851383 207.488372 
L 358.705138 206.934884 
L 362.973913 205.306977 
L 363.400791 204.948837 
L 365.1083 204.265116 
L 365.535178 204.134884 
L 366.388933 203.581395 
L 367.242688 203.223256 
L 368.096443 202.604651 
L 368.950198 200.846512 
L 369.803953 199.804651 
L 371.084585 199.12093 
L 371.93834 198.762791 
L 372.365217 198.697674 
L 372.792095 198.437209 
L 374.926482 197.72093 
L 375.35336 197.525581 
L 376.207115 196.939535 
L 377.487747 196.386047 
L 378.341502 195.897674 
L 379.195257 195.376744 
L 379.622134 195.083721 
L 380.049012 194.595349 
L 381.329644 193.846512 
L 381.756522 193.683721 
L 382.610277 193.162791 
L 384.317787 192.218605 
L 384.744664 192.12093 
L 385.171542 191.762791 
L 388.159684 190.753488 
L 388.586561 190.427907 
L 389.440316 190.167442 
L 390.294071 189.809302 
L 390.720949 189.451163 
L 392.428458 188.832558 
L 393.282213 188.213953 
L 394.135968 187.855814 
L 394.989723 187.172093 
L 395.843478 186.911628 
L 396.270356 186.52093 
L 396.697233 186.455814 
L 397.550988 185.772093 
L 398.404743 185.316279 
L 398.831621 185.12093 
L 399.258498 184.665116 
L 402.24664 183.427907 
L 403.100395 183.037209 
L 404.381028 182.613953 
L 405.234783 182.483721 
L 405.66166 182.288372 
L 406.088538 182.223256 
L 406.942292 181.832558 
L 407.36917 181.8 
L 409.07668 181.148837 
L 410.357312 180.204651 
L 410.78419 180.04186 
L 411.637945 179.553488 
L 412.064822 179.423256 
L 414.626087 177.95814 
L 415.052964 177.860465 
L 416.333597 177.07907 
L 417.614229 176.623256 
L 418.467984 176.330233 
L 420.175494 175.744186 
L 421.029249 175.451163 
L 422.736759 175.093023 
L 423.163636 174.897674 
L 424.017391 174.669767 
L 424.444269 174.474419 
L 424.871146 174.409302 
L 425.298024 174.181395 
L 426.151779 174.018605 
L 427.432411 173.530233 
L 428.286166 173.432558 
L 429.566798 173.139535 
L 431.701186 172.748837 
L 442.8 169.362791 
L 443.226877 168.906977 
L 445.788142 167.832558 
L 447.495652 167.246512 
L 447.92253 166.986047 
L 449.203162 166.595349 
L 450.056917 166.367442 
L 450.483794 166.074419 
L 450.910672 165.976744 
L 451.337549 165.586047 
L 452.618182 165.325581 
L 453.471937 164.934884 
L 453.898814 164.413953 
L 458.594466 163.372093 
L 459.021344 163.372093 
L 459.448221 163.176744 
L 461.155731 162.851163 
L 461.582609 162.655814 
L 463.290119 162.330233 
L 464.143874 161.972093 
L 464.997628 161.809302 
L 467.132016 161.255814 
L 468.839526 160.702326 
L 469.266403 160.604651 
L 469.693281 160.376744 
L 470.547036 160.148837 
L 471.400791 159.790698 
L 472.254545 159.465116 
L 472.681423 159.172093 
L 473.535178 158.911628 
L 476.52332 157.772093 
L 478.23083 157.544186 
L 481.64585 156.274419 
L 482.072727 155.948837 
L 482.499605 155.851163 
L 482.926482 155.623256 
L 483.35336 155.590698 
L 488.049012 153.865116 
L 490.183399 153.27907 
L 491.037154 152.855814 
L 492.317787 152.562791 
L 494.025296 151.130233 
L 495.732806 150.381395 
L 496.586561 149.990698 
L 499.147826 148.981395 
L 499.574704 148.688372 
L 501.709091 147.972093 
L 502.989723 147.223256 
L 503.416601 147.125581 
L 505.124111 146.148837 
L 506.831621 145.367442 
L 507.258498 145.04186 
L 508.112253 144.748837 
L 510.24664 143.64186 
L 511.527273 143.186047 
L 513.234783 142.469767 
L 514.515415 141.981395 
L 514.942292 141.818605 
L 515.796047 141.688372 
L 516.222925 141.395349 
L 517.930435 141.069767 
L 518.78419 140.711628 
L 520.4917 139.897674 
L 526.467984 137.227907 
L 527.748617 136.804651 
L 528.175494 136.511628 
L 529.029249 136.413953 
L 529.456126 136.12093 
L 530.309881 135.990698 
L 531.163636 135.567442 
L 531.590514 135.372093 
L 532.444269 135.144186 
L 533.298024 134.883721 
L 534.578656 134.395349 
L 535.859289 133.972093 
L 537.139921 133.67907 
L 538.847431 132.962791 
L 539.701186 132.474419 
L 541.408696 131.595349 
L 542.262451 131.4 
L 542.689328 131.139535 
L 543.116206 131.04186 
L 544.396838 130.293023 
L 545.250593 129.934884 
L 554.641897 126.288372 
L 556.349407 125.474419 
L 560.618182 123.781395 
L 561.471937 123.35814 
L 561.898814 123.260465 
L 562.325692 123.032558 
L 564.033202 122.544186 
L 565.740711 121.111628 
L 566.167589 120.981395 
L 566.594466 120.72093 
L 567.875099 120.362791 
L 568.301976 120.037209 
L 568.728854 119.939535 
L 570.009486 119.15814 
L 570.436364 118.865116 
L 571.716996 118.376744 
L 572.143874 118.148837 
L 573.424506 117.855814 
L 575.558893 117.106977 
L 576.412648 116.846512 
L 577.693281 116.195349 
L 578.547036 115.772093 
L 579.400791 115.544186 
L 580.681423 114.925581 
L 584.52332 113.460465 
L 585.803953 112.646512 
L 586.23083 112.548837 
L 587.084585 112.125581 
L 587.93834 111.8 
L 588.365217 111.409302 
L 589.218972 111.051163 
L 590.499605 110.595349 
L 590.926482 110.237209 
L 591.35336 110.204651 
L 592.207115 109.944186 
L 593.06087 109.651163 
L 593.487747 109.455814 
L 593.914625 109.390698 
L 594.768379 109.032558 
L 596.049012 108.739535 
L 596.902767 108.251163 
L 597.329644 108.088372 
L 597.756522 107.762791 
L 599.037154 107.437209 
L 599.464032 107.176744 
L 600.317787 106.948837 
L 601.598419 106.2 
L 602.025296 106.167442 
L 603.305929 105.744186 
L 604.159684 105.67907 
L 604.586561 105.451163 
L 605.440316 105.223256 
L 605.867194 104.995349 
L 608.001581 104.572093 
L 608.855336 104.409302 
L 610.135968 103.92093 
L 611.416601 103.627907 
L 612.697233 102.944186 
L 613.124111 102.553488 
L 614.404743 101.772093 
L 614.831621 101.446512 
L 616.112253 101.023256 
L 616.966008 100.795349 
L 620.807905 99.102326 
L 622.515415 98.646512 
L 623.36917 98.255814 
L 623.796047 98.027907 
L 624.649802 97.767442 
L 625.07668 97.506977 
L 625.930435 97.344186 
L 629.345455 95.846512 
L 629.772332 95.781395 
L 631.052964 94.934884 
L 631.479842 94.869767 
L 633.187352 94.186047 
L 634.894862 93.762791 
L 635.321739 93.697674 
L 635.748617 93.502326 
L 636.175494 93.469767 
L 637.029249 93.176744 
L 637.456126 93.144186 
L 638.736759 92.655814 
L 640.444269 92.167442 
L 641.298024 91.516279 
L 643.005534 90.539535 
L 643.432411 90.44186 
L 643.859289 90.213953 
L 644.713043 89.92093 
L 645.139921 89.790698 
L 645.566798 89.432558 
L 646.847431 88.944186 
L 647.701186 88.455814 
L 648.128063 88.227907 
L 648.554941 87.837209 
L 650.689328 87.251163 
L 651.96996 86.665116 
L 652.823715 86.437209 
L 653.250593 86.209302 
L 653.67747 85.851163 
L 655.38498 85.395349 
L 655.811858 85.069767 
L 661.361265 83.018605 
L 662.21502 82.855814 
L 664.349407 82.172093 
L 665.203162 81.813953 
L 666.056917 81.488372 
L 666.910672 81.260465 
L 667.337549 81.065116 
L 667.764427 81.065116 
L 668.618182 80.706977 
L 669.471937 80.186047 
L 672.460079 79.176744 
L 674.167589 78.590698 
L 675.448221 78.297674 
L 676.728854 77.874419 
L 677.155731 77.776744 
L 677.582609 77.483721 
L 678.436364 77.288372 
L 680.143874 76.8 
L 680.570751 76.767442 
L 681.424506 76.376744 
L 684.412648 75.627907 
L 685.266403 75.269767 
L 689.535178 74.293023 
L 690.81581 73.609302 
L 692.096443 73.218605 
L 696.365217 71.623256 
L 696.792095 71.297674 
L 698.072727 71.004651 
L 698.926482 70.744186 
L 699.780237 70.32093 
L 700.207115 69.962791 
L 701.06087 69.702326 
L 701.487747 69.44186 
L 702.341502 69.344186 
L 705.329644 68.497674 
L 706.610277 68.237209 
L 707.890909 67.911628 
L 708.744664 67.683721 
L 710.025296 67 
L 711.732806 66.348837 
L 712.586561 65.893023 
L 713.013439 65.860465 
L 713.867194 65.437209 
L 716.855336 64.590698 
L 718.135968 64.395349 
L 718.989723 64.102326 
L 720.270356 63.711628 
L 724.112253 62.637209 
L 724.966008 62.409302 
L 725.392885 62.311628 
L 725.819763 62.051163 
L 726.673518 61.888372 
L 727.527273 61.790698 
L 727.95415 61.562791 
L 728.381028 61.530233 
L 729.234783 60.976744 
L 730.942292 60.586047 
L 731.796047 60.195349 
L 732.649802 59.902326 
L 733.503557 59.674419 
L 734.357312 59.316279 
L 735.211067 59.023256 
L 736.918577 58.534884 
L 737.772332 58.469767 
L 738.626087 58.176744 
L 739.479842 57.948837 
L 740.333597 57.655814 
L 743.321739 56.613953 
L 744.175494 56.548837 
L 745.456126 56.255814 
L 745.883004 56.027907 
L 747.163636 55.8 
L 747.163636 55.8 
" clip-path="url(#pd58ed350d1)" style="fill: none; stroke: #1f77b4; stroke-width: 1.5; stroke-linecap: square"/>
   </g>
   <g id="line2d_38">
    <path d="M 138.863241 307.8 
L 142.705138 307.702326 
L 146.120158 307.539535 
L 147.827668 307.539535 
L 148.254545 307.409302 
L 150.388933 307.311628 
L 152.950198 307.018605 
L 155.511462 306.92093 
L 156.365217 306.823256 
L 159.35336 306.693023 
L 162.341502 306.595349 
L 164.475889 306.530233 
L 170.025296 306.432558 
L 172.159684 306.367442 
L 176.001581 306.269767 
L 177.709091 306.237209 
L 181.977866 306.139535 
L 183.685375 305.976744 
L 185.392885 305.944186 
L 187.95415 305.846512 
L 189.66166 305.813953 
L 191.796047 305.748837 
L 193.503557 305.586047 
L 197.345455 305.488372 
L 198.199209 305.423256 
L 199.906719 305.325581 
L 202.467984 305.227907 
L 204.175494 305.130233 
L 211.859289 304.64186 
L 214.847431 304.544186 
L 216.128063 304.413953 
L 218.262451 304.316279 
L 222.531225 304.088372 
L 226.8 304.023256 
L 228.50751 303.827907 
L 230.641897 303.730233 
L 234.910672 303.306977 
L 237.898814 302.948837 
L 239.179447 302.883721 
L 242.594466 302.427907 
L 245.155731 302.362791 
L 246.436364 302.232558 
L 247.716996 302.134884 
L 259.669565 301.190698 
L 260.52332 301.027907 
L 263.084585 300.930233 
L 269.914625 300.506977 
L 272.902767 300.409302 
L 274.610277 300.213953 
L 276.744664 300.116279 
L 279.305929 300.018605 
L 281.440316 299.92093 
L 283.147826 299.888372 
L 285.282213 299.823256 
L 286.135968 299.693023 
L 292.112253 299.595349 
L 292.966008 299.497674 
L 298.088538 299.4 
L 301.930435 299.204651 
L 304.918577 299.106977 
L 306.626087 298.911628 
L 309.614229 298.813953 
L 310.467984 298.683721 
L 312.602372 298.618605 
L 316.871146 298.553488 
L 318.578656 298.390698 
L 320.286166 298.35814 
L 321.566798 298.260465 
L 323.274308 298.097674 
L 327.543083 297.869767 
L 331.811858 297.772093 
L 335.653755 297.576744 
L 336.934387 297.544186 
L 337.788142 297.413953 
L 339.92253 297.316279 
L 340.776285 297.251163 
L 341.63004 297.186047 
L 342.483794 297.12093 
L 346.325692 297.055814 
L 347.606324 296.95814 
L 359.132016 296.176744 
L 361.266403 296.07907 
L 363.400791 296.013953 
L 369.377075 295.916279 
L 370.23083 295.786047 
L 376.207115 295.688372 
L 380.475889 295.460465 
L 381.329644 295.427907 
L 382.183399 295.330233 
L 384.317787 295.232558 
L 386.452174 295.167442 
L 388.586561 295.069767 
L 390.720949 295.004651 
L 394.562846 294.906977 
L 397.124111 294.809302 
L 403.100395 294.711628 
L 407.796047 294.451163 
L 409.503557 294.386047 
L 410.78419 294.288372 
L 416.760474 294.190698 
L 419.321739 294.093023 
L 427.005534 293.995349 
L 428.713043 293.962791 
L 433.835573 293.897674 
L 434.689328 293.832558 
L 440.665613 293.734884 
L 442.373123 293.702326 
L 453.471937 293.604651 
L 456.033202 293.506977 
L 473.962055 293.409302 
L 476.096443 293.344186 
L 487.195257 293.27907 
L 488.049012 293.213953 
L 490.183399 293.148837 
L 491.464032 293.018605 
L 494.025296 292.92093 
L 497.013439 292.790698 
L 500.855336 292.693023 
L 502.989723 292.627907 
L 505.977866 292.530233 
L 509.392885 292.367442 
L 511.527273 292.269767 
L 513.234783 292.237209 
L 517.07668 292.139535 
L 518.78419 292.106977 
L 524.333597 292.009302 
L 526.041107 291.976744 
L 528.175494 291.87907 
L 530.736759 291.781395 
L 533.724901 291.716279 
L 534.578656 291.651163 
L 544.823715 291.553488 
L 549.09249 291.325581 
L 552.080632 291.227907 
L 556.776285 290.967442 
L 559.764427 290.869767 
L 561.471937 290.837209 
L 564.460079 290.739535 
L 566.594466 290.511628 
L 570.863241 290.413953 
L 571.716996 290.316279 
L 575.985771 290.218605 
L 578.120158 290.153488 
L 582.81581 290.12093 
L 583.669565 290.023256 
L 588.365217 289.925581 
L 589.218972 289.860465 
L 598.610277 289.762791 
L 601.171542 289.665116 
L 607.574704 289.567442 
L 609.282213 289.534884 
L 613.124111 289.469767 
L 613.977866 289.372093 
L 619.527273 289.274419 
L 621.66166 289.209302 
L 629.345455 289.111628 
L 630.626087 289.013953 
L 631.906719 288.916279 
L 633.187352 288.818605 
L 639.590514 288.72093 
L 642.151779 288.623256 
L 653.67747 288.525581 
L 657.519368 288.330233 
L 662.641897 288.232558 
L 663.495652 288.167442 
L 669.898814 288.102326 
L 670.752569 288.037209 
L 675.448221 287.939535 
L 677.155731 287.906977 
L 683.132016 287.809302 
L 685.693281 287.711628 
L 692.950198 287.613953 
L 694.657708 287.581395 
L 698.499605 287.483721 
L 701.914625 287.32093 
L 706.610277 287.223256 
L 709.598419 287.093023 
L 713.440316 286.995349 
L 714.294071 286.930233 
L 722.831621 286.832558 
L 724.966008 286.767442 
L 727.527273 286.669767 
L 730.088538 286.572093 
L 742.894862 286.474419 
L 745.883004 286.344186 
L 747.163636 286.344186 
L 747.163636 286.344186 
" clip-path="url(#pd58ed350d1)" style="fill: none; stroke: #ff7f0e; stroke-width: 1.5; stroke-linecap: square"/>
   </g>
   <g id="patch_3">
    <path d="M 108 320.4 
L 108 43.2 
" style="fill: none; stroke: #a9a9a9; stroke-width: 0.8; stroke-linejoin: miter; stroke-linecap: square"/>
   </g>
   <g id="patch_4">
    <path d="M 777.6 320.4 
L 777.6 43.2 
" style="fill: none"/>
   </g>
   <g id="patch_5">
    <path d="M 108 320.4 
L 777.6 320.4 
" style="fill: none; stroke: #a9a9a9; stroke-width: 0.8; stroke-linejoin: miter; stroke-linecap: square"/>
   </g>
   <g id="patch_6">
    <path d="M 108 43.2 
L 777.6 43.2 
" style="fill: none"/>
   </g>
   <g id="text_19">
    <!-- get_subscribe history -->
    <g style="fill: #a9a9a9" transform="translate(378.6075 37.2) scale(0.12 -0.12)">
     <defs>
      <path id="DejaVuSans-67" d="M 2906 1791 
Q 2906 2416 2648 2759 
Q 2391 3103 1925 3103 
Q 1463 3103 1205 2759 
Q 947 2416 947 1791 
Q 947 1169 1205 825 
Q 1463 481 1925 481 
Q 2391 481 2648 825 
Q 2906 1169 2906 1791 
z
M 3481 434 
Q 3481 -459 3084 -895 
Q 2688 -1331 1869 -1331 
Q 1566 -1331 1297 -1286 
Q 1028 -1241 775 -1147 
L 775 -588 
Q 1028 -725 1275 -790 
Q 1522 -856 1778 -856 
Q 2344 -856 2625 -561 
Q 2906 -266 2906 331 
L 2906 616 
Q 2728 306 2450 153 
Q 2172 0 1784 0 
Q 1141 0 747 490 
Q 353 981 353 1791 
Q 353 2603 747 3093 
Q 1141 3584 1784 3584 
Q 2172 3584 2450 3431 
Q 2728 3278 2906 2969 
L 2906 3500 
L 3481 3500 
L 3481 434 
z
" transform="scale(0.015625)"/>
      <path id="DejaVuSans-65" d="M 3597 1894 
L 3597 1613 
L 953 1613 
Q 991 1019 1311 708 
Q 1631 397 2203 397 
Q 2534 397 2845 478 
Q 3156 559 3463 722 
L 3463 178 
Q 3153 47 2828 -22 
Q 2503 -91 2169 -91 
Q 1331 -91 842 396 
Q 353 884 353 1716 
Q 353 2575 817 3079 
Q 1281 3584 2069 3584 
Q 2775 3584 3186 3129 
Q 3597 2675 3597 1894 
z
M 3022 2063 
Q 3016 2534 2758 2815 
Q 2500 3097 2075 3097 
Q 1594 3097 1305 2825 
Q 1016 2553 972 2059 
L 3022 2063 
z
" transform="scale(0.015625)"/>
      <path id="DejaVuSans-74" d="M 1172 4494 
L 1172 3500 
L 2356 3500 
L 2356 3053 
L 1172 3053 
L 1172 1153 
Q 1172 725 1289 603 
Q 1406 481 1766 481 
L 2356 481 
L 2356 0 
L 1766 0 
Q 1100 0 847 248 
Q 594 497 594 1153 
L 594 3053 
L 172 3053 
L 172 3500 
L 594 3500 
L 594 4494 
L 1172 4494 
z
" transform="scale(0.015625)"/>
      <path id="DejaVuSans-5f" d="M 3263 -1063 
L 3263 -1509 
L -63 -1509 
L -63 -1063 
L 3263 -1063 
z
" transform="scale(0.015625)"/>
      <path id="DejaVuSans-73" d="M 2834 3397 
L 2834 2853 
Q 2591 2978 2328 3040 
Q 2066 3103 1784 3103 
Q 1356 3103 1142 2972 
Q 928 2841 928 2578 
Q 928 2378 1081 2264 
Q 1234 2150 1697 2047 
L 1894 2003 
Q 2506 1872 2764 1633 
Q 3022 1394 3022 966 
Q 3022 478 2636 193 
Q 2250 -91 1575 -91 
Q 1294 -91 989 -36 
Q 684 19 347 128 
L 347 722 
Q 666 556 975 473 
Q 1284 391 1588 391 
Q 1994 391 2212 530 
Q 2431 669 2431 922 
Q 2431 1156 2273 1281 
Q 2116 1406 1581 1522 
L 1381 1569 
Q 847 1681 609 1914 
Q 372 2147 372 2553 
Q 372 3047 722 3315 
Q 1072 3584 1716 3584 
Q 2034 3584 2315 3537 
Q 2597 3491 2834 3397 
z
" transform="scale(0.015625)"/>
      <path id="DejaVuSans-75" d="M 544 1381 
L 544 3500 
L 1119 3500 
L 1119 1403 
Q 1119 906 1312 657 
Q 1506 409 1894 409 
Q 2359 409 2629 706 
Q 2900 1003 2900 1516 
L 2900 3500 
L 3475 3500 
L 3475 0 
L 2900 0 
L 2900 538 
Q 2691 219 2414 64 
Q 2138 -91 1772 -91 
Q 1169 -91 856 284 
Q 544 659 544 1381 
z
M 1991 3584 
L 1991 3584 
z
" transform="scale(0.015625)"/>
      <path id="DejaVuSans-62" d="M 3116 1747 
Q 3116 2381 2855 2742 
Q 2594 3103 2138 3103 
Q 1681 3103 1420 2742 
Q 1159 2381 1159 1747 
Q 1159 1113 1420 752 
Q 1681 391 2138 391 
Q 2594 391 2855 752 
Q 3116 1113 3116 1747 
z
M 1159 2969 
Q 1341 3281 1617 3432 
Q 1894 3584 2278 3584 
Q 2916 3584 3314 3078 
Q 3713 2572 3713 1747 
Q 3713 922 3314 415 
Q 2916 -91 2278 -91 
Q 1894 -91 1617 61 
Q 1341 213 1159 525 
L 1159 0 
L 581 0 
L 581 4863 
L 1159 4863 
L 1159 2969 
z
" transform="scale(0.015625)"/>
      <path id="DejaVuSans-63" d="M 3122 3366 
L 3122 2828 
Q 2878 2963 2633 3030 
Q 2388 3097 2138 3097 
Q 1578 3097 1268 2742 
Q 959 2388 959 1747 
Q 959 1106 1268 751 
Q 1578 397 2138 397 
Q 2388 397 2633 464 
Q 2878 531 3122 666 
L 3122 134 
Q 2881 22 2623 -34 
Q 2366 -91 2075 -91 
Q 1284 -91 818 406 
Q 353 903 353 1747 
Q 353 2603 823 3093 
Q 1294 3584 2113 3584 
Q 2378 3584 2631 3529 
Q 2884 3475 3122 3366 
z
" transform="scale(0.015625)"/>
      <path id="DejaVuSans-72" d="M 2631 2963 
Q 2534 3019 2420 3045 
Q 2306 3072 2169 3072 
Q 1681 3072 1420 2755 
Q 1159 2438 1159 1844 
L 1159 0 
L 581 0 
L 581 3500 
L 1159 3500 
L 1159 2956 
Q 1341 3275 1631 3429 
Q 1922 3584 2338 3584 
Q 2397 3584 2469 3576 
Q 2541 3569 2628 3553 
L 2631 2963 
z
" transform="scale(0.015625)"/>
      <path id="DejaVuSans-69" d="M 603 3500 
L 1178 3500 
L 1178 0 
L 603 0 
L 603 3500 
z
M 603 4863 
L 1178 4863 
L 1178 4134 
L 603 4134 
L 603 4863 
z
" transform="scale(0.015625)"/>
      <path id="DejaVuSans-20" transform="scale(0.015625)"/>
      <path id="DejaVuSans-68" d="M 3513 2113 
L 3513 0 
L 2938 0 
L 2938 2094 
Q 2938 2591 2744 2837 
Q 2550 3084 2163 3084 
Q 1697 3084 1428 2787 
Q 1159 2491 1159 1978 
L 1159 0 
L 581 0 
L 581 4863 
L 1159 4863 
L 1159 2956 
Q 1366 3272 1645 3428 
Q 1925 3584 2291 3584 
Q 2894 3584 3203 3211 
Q 3513 2838 3513 2113 
z
" transform="scale(0.015625)"/>
      <path id="DejaVuSans-6f" d="M 1959 3097 
Q 1497 3097 1228 2736 
Q 959 2375 959 1747 
Q 959 1119 1226 758 
Q 1494 397 1959 397 
Q 2419 397 2687 759 
Q 2956 1122 2956 1747 
Q 2956 2369 2687 2733 
Q 2419 3097 1959 3097 
z
M 1959 3584 
Q 2709 3584 3137 3096 
Q 3566 2609 3566 1747 
Q 3566 888 3137 398 
Q 2709 -91 1959 -91 
Q 1206 -91 779 398 
Q 353 888 353 1747 
Q 353 2609 779 3096 
Q 1206 3584 1959 3584 
z
" transform="scale(0.015625)"/>
      <path id="DejaVuSans-79" d="M 2059 -325 
Q 1816 -950 1584 -1140 
Q 1353 -1331 966 -1331 
L 506 -1331 
L 506 -850 
L 844 -850 
Q 1081 -850 1212 -737 
Q 1344 -625 1503 -206 
L 1606 56 
L 191 3500 
L 800 3500 
L 1894 763 
L 2988 3500 
L 3597 3500 
L 2059 -325 
z
" transform="scale(0.015625)"/>
     </defs>
     <use xlink:href="#DejaVuSans-67"/>
     <use xlink:href="#DejaVuSans-65" transform="translate(63.476562 0)"/>
     <use xlink:href="#DejaVuSans-74" transform="translate(125 0)"/>
     <use xlink:href="#DejaVuSans-5f" transform="translate(164.208984 0)"/>
     <use xlink:href="#DejaVuSans-73" transform="translate(214.208984 0)"/>
     <use xlink:href="#DejaVuSans-75" transform="translate(266.308594 0)"/>
     <use xlink:href="#DejaVuSans-62" transform="translate(329.6875 0)"/>
     <use xlink:href="#DejaVuSans-73" transform="translate(393.164062 0)"/>
     <use xlink:href="#DejaVuSans-63" transform="translate(445.263672 0)"/>
     <use xlink:href="#DejaVuSans-72" transform="translate(500.244141 0)"/>
     <use xlink:href="#DejaVuSans-69" transform="translate(541.357422 0)"/>
     <use xlink:href="#DejaVuSans-62" transform="translate(569.140625 0)"/>
     <use xlink:href="#DejaVuSans-65" transform="translate(632.617188 0)"/>
     <use xlink:href="#DejaVuSans-20" transform="translate(694.140625 0)"/>
     <use xlink:href="#DejaVuSans-68" transform="translate(725.927734 0)"/>
     <use xlink:href="#DejaVuSans-69" transform="translate(789.306641 0)"/>
     <use xlink:href="#DejaVuSans-73" transform="translate(817.089844 0)"/>
     <use xlink:href="#DejaVuSans-74" transform="translate(869.189453 0)"/>
     <use xlink:href="#DejaVuSans-6f" transform="translate(908.398438 0)"/>
     <use xlink:href="#DejaVuSans-72" transform="translate(969.580078 0)"/>
     <use xlink:href="#DejaVuSans-79" transform="translate(1010.693359 0)"/>
    </g>
   </g>
   <g id="legend_1">
    <g id="line2d_39">
     <path d="M 815.08 328.498438 
L 825.08 328.498438 
L 835.08 328.498438 
" style="fill: none; stroke: #1f77b4; stroke-width: 1.5; stroke-linecap: square"/>
    </g>
    <g id="text_20">
     <!-- star -->
     <g style="fill: #a9a9a9" transform="translate(843.08 331.998438) scale(0.1 -0.1)">
      <defs>
       <path id="DejaVuSans-61" d="M 2194 1759 
Q 1497 1759 1228 1600 
Q 959 1441 959 1056 
Q 959 750 1161 570 
Q 1363 391 1709 391 
Q 2188 391 2477 730 
Q 2766 1069 2766 1631 
L 2766 1759 
L 2194 1759 
z
M 3341 1997 
L 3341 0 
L 2766 0 
L 2766 531 
Q 2569 213 2275 61 
Q 1981 -91 1556 -91 
Q 1019 -91 701 211 
Q 384 513 384 1019 
Q 384 1609 779 1909 
Q 1175 2209 1959 2209 
L 2766 2209 
L 2766 2266 
Q 2766 2663 2505 2880 
Q 2244 3097 1772 3097 
Q 1472 3097 1187 3025 
Q 903 2953 641 2809 
L 641 3341 
Q 956 3463 1253 3523 
Q 1550 3584 1831 3584 
Q 2591 3584 2966 3190 
Q 3341 2797 3341 1997 
z
" transform="scale(0.015625)"/>
      </defs>
      <use xlink:href="#DejaVuSans-73"/>
      <use xlink:href="#DejaVuSans-74" transform="translate(52.099609 0)"/>
      <use xlink:href="#DejaVuSans-61" transform="translate(91.308594 0)"/>
      <use xlink:href="#DejaVuSans-72" transform="translate(152.587891 0)"/>
     </g>
    </g>
    <g id="line2d_40">
     <path d="M 815.08 343.176562 
L 825.08 343.176562 
L 835.08 343.176562 
" style="fill: none; stroke: #ff7f0e; stroke-width: 1.5; stroke-linecap: square"/>
    </g>
    <g id="text_21">
     <!-- fork -->
     <g style="fill: #a9a9a9" transform="translate(843.08 346.676562) scale(0.1 -0.1)">
      <defs>
       <path id="DejaVuSans-66" d="M 2375 4863 
L 2375 4384 
L 1825 4384 
Q 1516 4384 1395 4259 
Q 1275 4134 1275 3809 
L 1275 3500 
L 2222 3500 
L 2222 3053 
L 1275 3053 
L 1275 0 
L 697 0 
L 697 3053 
L 147 3053 
L 147 3500 
L 697 3500 
L 697 3744 
Q 697 4328 969 4595 
Q 1241 4863 1831 4863 
L 2375 4863 
z
" transform="scale(0.015625)"/>
       <path id="DejaVuSans-6b" d="M 581 4863 
L 1159 4863 
L 1159 1991 
L 2875 3500 
L 3609 3500 
L 1753 1863 
L 3688 0 
L 2938 0 
L 1159 1709 
L 1159 0 
L 581 0 
L 581 4863 
z
" transform="scale(0.015625)"/>
      </defs>
      <use xlink:href="#DejaVuSans-66"/>
      <use xlink:href="#DejaVuSans-6f" transform="translate(35.205078 0)"/>
      <use xlink:href="#DejaVuSans-72" transform="translate(96.386719 0)"/>
      <use xlink:href="#DejaVuSans-6b" transform="translate(137.5 0)"/>
     </g>
    </g>
   </g>
  </g>
 </g>
 <defs>
  <clipPath id="pd58ed350d1">
   <rect x="108" y="43.2" width="669.6" height="277.2"/>
  </clipPath>
 </defs>
</svg>
