<?xml version="1.0" encoding="utf-8" standalone="no"?>
<!DOCTYPE svg PUBLIC "-//W3C//DTD SVG 1.1//EN"
  "http://www.w3.org/Graphics/SVG/1.1/DTD/svg11.dtd">
<svg xmlns:xlink="http://www.w3.org/1999/xlink" width="864pt" height="360pt" viewBox="0 0 864 360" xmlns="http://www.w3.org/2000/svg" version="1.1">
 <metadata>
  <rdf:RDF xmlns:dc="http://purl.org/dc/elements/1.1/" xmlns:cc="http://creativecommons.org/ns#" xmlns:rdf="http://www.w3.org/1999/02/22-rdf-syntax-ns#">
   <cc:Work>
    <dc:type rdf:resource="http://purl.org/dc/dcmitype/StillImage"/>
    <dc:date>2026-03-31T20:20:07.009146</dc:date>
    <dc:format>image/svg+xml</dc:format>
    <dc:creator>
     <cc:Agent>
      <dc:title>Matplotlib v3.10.8, https://matplotlib.org/</dc:title>
     </cc:Agent>
    </dc:creator>
   </cc:Work>
  </rdf:RDF>
 </metadata>
 <defs>
  <style type="text/css">*{stroke-linejoin: round; stroke-linecap: butt}</style>
 </defs>
 <g id="figure_1">
  <g id="patch_1">
   <path d="M 0 360 
L 864 360 
L 864 0 
L 0 0 
L 0 360 
z
" style="fill: none; opacity: 0"/>
  </g>
  <g id="axes_1">
   <g id="patch_2">
    <path d="M 108 320.4 
L 777.6 320.4 
L 777.6 43.2 
L 108 43.2 
L 108 320.4 
z
" style="fill: none; opacity: 0"/>
   </g>
   <g id="matplotlib.axis_1">
    <g id="xtick_1">
     <g id="line2d_1">
      <path d="M 195.715786 320.4 
L 195.715786 43.2 
" clip-path="url(#p5ba3a60bd3)" style="fill: none; stroke-dasharray: 5.12,1.28,0.8,1.28; stroke-dashoffset: 0; stroke: #b0b0b0; stroke-width: 0.8"/>
     </g>
     <g id="line2d_2">
      <defs>
       <path id="m59cff75ca2" d="M 0 0 
L 0 3.5 
" style="stroke: #a9a9a9; stroke-width: 0.8"/>
      </defs>
      <g>
       <use xlink:href="#m59cff75ca2" x="195.715786" y="320.4" style="fill: #a9a9a9; stroke: #a9a9a9; stroke-width: 0.8"/>
      </g>
     </g>
     <g id="text_1">
      <!-- 2022 -->
      <g style="fill: #a9a9a9" transform="translate(182.990786 334.998438) scale(0.1 -0.1)">
       <defs>
        <path id="DejaVuSans-32" d="M 1228 531 
L 3431 531 
L 3431 0 
L 469 0 
L 469 531 
Q 828 903 1448 1529 
Q 2069 2156 2228 2338 
Q 2531 2678 2651 2914 
Q 2772 3150 2772 3378 
Q 2772 3750 2511 3984 
Q 2250 4219 1831 4219 
Q 1534 4219 1204 4116 
Q 875 4013 500 3803 
L 500 4441 
Q 881 4594 1212 4672 
Q 1544 4750 1819 4750 
Q 2544 4750 2975 4387 
Q 3406 4025 3406 3419 
Q 3406 3131 3298 2873 
Q 3191 2616 2906 2266 
Q 2828 2175 2409 1742 
Q 1991 1309 1228 531 
z
" transform="scale(0.015625)"/>
        <path id="DejaVuSans-30" d="M 2034 4250 
Q 1547 4250 1301 3770 
Q 1056 3291 1056 2328 
Q 1056 1369 1301 889 
Q 1547 409 2034 409 
Q 2525 409 2770 889 
Q 3016 1369 3016 2328 
Q 3016 3291 2770 3770 
Q 2525 4250 2034 4250 
z
M 2034 4750 
Q 2819 4750 3233 4129 
Q 3647 3509 3647 2328 
Q 3647 1150 3233 529 
Q 2819 -91 2034 -91 
Q 1250 -91 836 529 
Q 422 1150 422 2328 
Q 422 3509 836 4129 
Q 1250 4750 2034 4750 
z
" transform="scale(0.015625)"/>
       </defs>
       <use xlink:href="#DejaVuSans-32"/>
       <use xlink:href="#DejaVuSans-30" transform="translate(63.623047 0)"/>
       <use xlink:href="#DejaVuSans-32" transform="translate(127.246094 0)"/>
       <use xlink:href="#DejaVuSans-32" transform="translate(190.869141 0)"/>
      </g>
     </g>
    </g>
    <g id="xtick_2">
     <g id="line2d_3">
      <path d="M 325.57286 320.4 
L 325.57286 43.2 
" clip-path="url(#p5ba3a60bd3)" style="fill: none; stroke-dasharray: 5.12,1.28,0.8,1.28; stroke-dashoffset: 0; stroke: #b0b0b0; stroke-width: 0.8"/>
     </g>
     <g id="line2d_4">
      <g>
       <use xlink:href="#m59cff75ca2" x="325.57286" y="320.4" style="fill: #a9a9a9; stroke: #a9a9a9; stroke-width: 0.8"/>
      </g>
     </g>
     <g id="text_2">
      <!-- 2023 -->
      <g style="fill: #a9a9a9" transform="translate(312.84786 334.998438) scale(0.1 -0.1)">
       <defs>
        <path id="DejaVuSans-33" d="M 2597 2516 
Q 3050 2419 3304 2112 
Q 3559 1806 3559 1356 
Q 3559 666 3084 287 
Q 2609 -91 1734 -91 
Q 1441 -91 1130 -33 
Q 819 25 488 141 
L 488 750 
Q 750 597 1062 519 
Q 1375 441 1716 441 
Q 2309 441 2620 675 
Q 2931 909 2931 1356 
Q 2931 1769 2642 2001 
Q 2353 2234 1838 2234 
L 1294 2234 
L 1294 2753 
L 1863 2753 
Q 2328 2753 2575 2939 
Q 2822 3125 2822 3475 
Q 2822 3834 2567 4026 
Q 2313 4219 1838 4219 
Q 1578 4219 1281 4162 
Q 984 4106 628 3988 
L 628 4550 
Q 988 4650 1302 4700 
Q 1616 4750 1894 4750 
Q 2613 4750 3031 4423 
Q 3450 4097 3450 3541 
Q 3450 3153 3228 2886 
Q 3006 2619 2597 2516 
z
" transform="scale(0.015625)"/>
       </defs>
       <use xlink:href="#DejaVuSans-32"/>
       <use xlink:href="#DejaVuSans-30" transform="translate(63.623047 0)"/>
       <use xlink:href="#DejaVuSans-32" transform="translate(127.246094 0)"/>
       <use xlink:href="#DejaVuSans-33" transform="translate(190.869141 0)"/>
      </g>
     </g>
    </g>
    <g id="xtick_3">
     <g id="line2d_5">
      <path d="M 455.429935 320.4 
L 455.429935 43.2 
" clip-path="url(#p5ba3a60bd3)" style="fill: none; stroke-dasharray: 5.12,1.28,0.8,1.28; stroke-dashoffset: 0; stroke: #b0b0b0; stroke-width: 0.8"/>
     </g>
     <g id="line2d_6">
      <g>
       <use xlink:href="#m59cff75ca2" x="455.429935" y="320.4" style="fill: #a9a9a9; stroke: #a9a9a9; stroke-width: 0.8"/>
      </g>
     </g>
     <g id="text_3">
      <!-- 2024 -->
      <g style="fill: #a9a9a9" transform="translate(442.704935 334.998438) scale(0.1 -0.1)">
       <defs>
        <path id="DejaVuSans-34" d="M 2419 4116 
L 825 1625 
L 2419 1625 
L 2419 4116 
z
M 2253 4666 
L 3047 4666 
L 3047 1625 
L 3713 1625 
L 3713 1100 
L 3047 1100 
L 3047 0 
L 2419 0 
L 2419 1100 
L 313 1100 
L 313 1709 
L 2253 4666 
z
" transform="scale(0.015625)"/>
       </defs>
       <use xlink:href="#DejaVuSans-32"/>
       <use xlink:href="#DejaVuSans-30" transform="translate(63.623047 0)"/>
       <use xlink:href="#DejaVuSans-32" transform="translate(127.246094 0)"/>
       <use xlink:href="#DejaVuSans-34" transform="translate(190.869141 0)"/>
      </g>
     </g>
    </g>
    <g id="xtick_4">
     <g id="line2d_7">
      <path d="M 585.642782 320.4 
L 585.642782 43.2 
" clip-path="url(#p5ba3a60bd3)" style="fill: none; stroke-dasharray: 5.12,1.28,0.8,1.28; stroke-dashoffset: 0; stroke: #b0b0b0; stroke-width: 0.8"/>
     </g>
     <g id="line2d_8">
      <g>
       <use xlink:href="#m59cff75ca2" x="585.642782" y="320.4" style="fill: #a9a9a9; stroke: #a9a9a9; stroke-width: 0.8"/>
      </g>
     </g>
     <g id="text_4">
      <!-- 2025 -->
      <g style="fill: #a9a9a9" transform="translate(572.917782 334.998438) scale(0.1 -0.1)">
       <defs>
        <path id="DejaVuSans-35" d="M 691 4666 
L 3169 4666 
L 3169 4134 
L 1269 4134 
L 1269 2991 
Q 1406 3038 1543 3061 
Q 1681 3084 1819 3084 
Q 2600 3084 3056 2656 
Q 3513 2228 3513 1497 
Q 3513 744 3044 326 
Q 2575 -91 1722 -91 
Q 1428 -91 1123 -41 
Q 819 9 494 109 
L 494 744 
Q 775 591 1075 516 
Q 1375 441 1709 441 
Q 2250 441 2565 725 
Q 2881 1009 2881 1497 
Q 2881 1984 2565 2268 
Q 2250 2553 1709 2553 
Q 1456 2553 1204 2497 
Q 953 2441 691 2322 
L 691 4666 
z
" transform="scale(0.015625)"/>
       </defs>
       <use xlink:href="#DejaVuSans-32"/>
       <use xlink:href="#DejaVuSans-30" transform="translate(63.623047 0)"/>
       <use xlink:href="#DejaVuSans-32" transform="translate(127.246094 0)"/>
       <use xlink:href="#DejaVuSans-35" transform="translate(190.869141 0)"/>
      </g>
     </g>
    </g>
    <g id="xtick_5">
     <g id="line2d_9">
      <path d="M 715.499857 320.4 
L 715.499857 43.2 
" clip-path="url(#p5ba3a60bd3)" style="fill: none; stroke-dasharray: 5.12,1.28,0.8,1.28; stroke-dashoffset: 0; stroke: #b0b0b0; stroke-width: 0.8"/>
     </g>
     <g id="line2d_10">
      <g>
       <use xlink:href="#m59cff75ca2" x="715.499857" y="320.4" style="fill: #a9a9a9; stroke: #a9a9a9; stroke-width: 0.8"/>
      </g>
     </g>
     <g id="text_5">
      <!-- 2026 -->
      <g style="fill: #a9a9a9" transform="translate(702.774857 334.998438) scale(0.1 -0.1)">
       <defs>
        <path id="DejaVuSans-36" d="M 2113 2584 
Q 1688 2584 1439 2293 
Q 1191 2003 1191 1497 
Q 1191 994 1439 701 
Q 1688 409 2113 409 
Q 2538 409 2786 701 
Q 3034 994 3034 1497 
Q 3034 2003 2786 2293 
Q 2538 2584 2113 2584 
z
M 3366 4563 
L 3366 3988 
Q 3128 4100 2886 4159 
Q 2644 4219 2406 4219 
Q 1781 4219 1451 3797 
Q 1122 3375 1075 2522 
Q 1259 2794 1537 2939 
Q 1816 3084 2150 3084 
Q 2853 3084 3261 2657 
Q 3669 2231 3669 1497 
Q 3669 778 3244 343 
Q 2819 -91 2113 -91 
Q 1303 -91 875 529 
Q 447 1150 447 2328 
Q 447 3434 972 4092 
Q 1497 4750 2381 4750 
Q 2619 4750 2861 4703 
Q 3103 4656 3366 4563 
z
" transform="scale(0.015625)"/>
       </defs>
       <use xlink:href="#DejaVuSans-32"/>
       <use xlink:href="#DejaVuSans-30" transform="translate(63.623047 0)"/>
       <use xlink:href="#DejaVuSans-32" transform="translate(127.246094 0)"/>
       <use xlink:href="#DejaVuSans-36" transform="translate(190.869141 0)"/>
      </g>
     </g>
    </g>
   </g>
   <g id="matplotlib.axis_2">
    <g id="ytick_1">
     <g id="line2d_11">
      <path d="M 108 307.828636 
L 777.6 307.828636 
" clip-path="url(#p5ba3a60bd3)" style="fill: none; stroke-dasharray: 5.12,1.28,0.8,1.28; stroke-dashoffset: 0; stroke: #b0b0b0; stroke-width: 0.8"/>
     </g>
     <g id="line2d_12">
      <defs>
       <path id="m3fa6195819" d="M 0 0 
L -3.5 0 
" style="stroke: #a9a9a9; stroke-width: 0.8"/>
      </defs>
      <g>
       <use xlink:href="#m3fa6195819" x="108" y="307.828636" style="fill: #a9a9a9; stroke: #a9a9a9; stroke-width: 0.8"/>
      </g>
     </g>
     <g id="text_6">
      <!-- 0 -->
      <g style="fill: #a9a9a9" transform="translate(94.6375 311.627855) scale(0.1 -0.1)">
       <use xlink:href="#DejaVuSans-30"/>
      </g>
     </g>
    </g>
    <g id="ytick_2">
     <g id="line2d_13">
      <path d="M 108 279.192273 
L 777.6 279.192273 
" clip-path="url(#p5ba3a60bd3)" style="fill: none; stroke-dasharray: 5.12,1.28,0.8,1.28; stroke-dashoffset: 0; stroke: #b0b0b0; stroke-width: 0.8"/>
     </g>
     <g id="line2d_14">
      <g>
       <use xlink:href="#m3fa6195819" x="108" y="279.192273" style="fill: #a9a9a9; stroke: #a9a9a9; stroke-width: 0.8"/>
      </g>
     </g>
     <g id="text_7">
      <!-- 1000 -->
      <g style="fill: #a9a9a9" transform="translate(75.55 282.991491) scale(0.1 -0.1)">
       <defs>
        <path id="DejaVuSans-31" d="M 794 531 
L 1825 531 
L 1825 4091 
L 703 3866 
L 703 4441 
L 1819 4666 
L 2450 4666 
L 2450 531 
L 3481 531 
L 3481 0 
L 794 0 
L 794 531 
z
" transform="scale(0.015625)"/>
       </defs>
       <use xlink:href="#DejaVuSans-31"/>
       <use xlink:href="#DejaVuSans-30" transform="translate(63.623047 0)"/>
       <use xlink:href="#DejaVuSans-30" transform="translate(127.246094 0)"/>
       <use xlink:href="#DejaVuSans-30" transform="translate(190.869141 0)"/>
      </g>
     </g>
    </g>
    <g id="ytick_3">
     <g id="line2d_15">
      <path d="M 108 250.555909 
L 777.6 250.555909 
" clip-path="url(#p5ba3a60bd3)" style="fill: none; stroke-dasharray: 5.12,1.28,0.8,1.28; stroke-dashoffset: 0; stroke: #b0b0b0; stroke-width: 0.8"/>
     </g>
     <g id="line2d_16">
      <g>
       <use xlink:href="#m3fa6195819" x="108" y="250.555909" style="fill: #a9a9a9; stroke: #a9a9a9; stroke-width: 0.8"/>
      </g>
     </g>
     <g id="text_8">
      <!-- 2000 -->
      <g style="fill: #a9a9a9" transform="translate(75.55 254.355128) scale(0.1 -0.1)">
       <use xlink:href="#DejaVuSans-32"/>
       <use xlink:href="#DejaVuSans-30" transform="translate(63.623047 0)"/>
       <use xlink:href="#DejaVuSans-30" transform="translate(127.246094 0)"/>
       <use xlink:href="#DejaVuSans-30" transform="translate(190.869141 0)"/>
      </g>
     </g>
    </g>
    <g id="ytick_4">
     <g id="line2d_17">
      <path d="M 108 221.919545 
L 777.6 221.919545 
" clip-path="url(#p5ba3a60bd3)" style="fill: none; stroke-dasharray: 5.12,1.28,0.8,1.28; stroke-dashoffset: 0; stroke: #b0b0b0; stroke-width: 0.8"/>
     </g>
     <g id="line2d_18">
      <g>
       <use xlink:href="#m3fa6195819" x="108" y="221.919545" style="fill: #a9a9a9; stroke: #a9a9a9; stroke-width: 0.8"/>
      </g>
     </g>
     <g id="text_9">
      <!-- 3000 -->
      <g style="fill: #a9a9a9" transform="translate(75.55 225.718764) scale(0.1 -0.1)">
       <use xlink:href="#DejaVuSans-33"/>
       <use xlink:href="#DejaVuSans-30" transform="translate(63.623047 0)"/>
       <use xlink:href="#DejaVuSans-30" transform="translate(127.246094 0)"/>
       <use xlink:href="#DejaVuSans-30" transform="translate(190.869141 0)"/>
      </g>
     </g>
    </g>
    <g id="ytick_5">
     <g id="line2d_19">
      <path d="M 108 193.283182 
L 777.6 193.283182 
" clip-path="url(#p5ba3a60bd3)" style="fill: none; stroke-dasharray: 5.12,1.28,0.8,1.28; stroke-dashoffset: 0; stroke: #b0b0b0; stroke-width: 0.8"/>
     </g>
     <g id="line2d_20">
      <g>
       <use xlink:href="#m3fa6195819" x="108" y="193.283182" style="fill: #a9a9a9; stroke: #a9a9a9; stroke-width: 0.8"/>
      </g>
     </g>
     <g id="text_10">
      <!-- 4000 -->
      <g style="fill: #a9a9a9" transform="translate(75.55 197.082401) scale(0.1 -0.1)">
       <use xlink:href="#DejaVuSans-34"/>
       <use xlink:href="#DejaVuSans-30" transform="translate(63.623047 0)"/>
       <use xlink:href="#DejaVuSans-30" transform="translate(127.246094 0)"/>
       <use xlink:href="#DejaVuSans-30" transform="translate(190.869141 0)"/>
      </g>
     </g>
    </g>
    <g id="ytick_6">
     <g id="line2d_21">
      <path d="M 108 164.646818 
L 777.6 164.646818 
" clip-path="url(#p5ba3a60bd3)" style="fill: none; stroke-dasharray: 5.12,1.28,0.8,1.28; stroke-dashoffset: 0; stroke: #b0b0b0; stroke-width: 0.8"/>
     </g>
     <g id="line2d_22">
      <g>
       <use xlink:href="#m3fa6195819" x="108" y="164.646818" style="fill: #a9a9a9; stroke: #a9a9a9; stroke-width: 0.8"/>
      </g>
     </g>
     <g id="text_11">
      <!-- 5000 -->
      <g style="fill: #a9a9a9" transform="translate(75.55 168.446037) scale(0.1 -0.1)">
       <use xlink:href="#DejaVuSans-35"/>
       <use xlink:href="#DejaVuSans-30" transform="translate(63.623047 0)"/>
       <use xlink:href="#DejaVuSans-30" transform="translate(127.246094 0)"/>
       <use xlink:href="#DejaVuSans-30" transform="translate(190.869141 0)"/>
      </g>
     </g>
    </g>
    <g id="ytick_7">
     <g id="line2d_23">
      <path d="M 108 136.010455 
L 777.6 136.010455 
" clip-path="url(#p5ba3a60bd3)" style="fill: none; stroke-dasharray: 5.12,1.28,0.8,1.28; stroke-dashoffset: 0; stroke: #b0b0b0; stroke-width: 0.8"/>
     </g>
     <g id="line2d_24">
      <g>
       <use xlink:href="#m3fa6195819" x="108" y="136.010455" style="fill: #a9a9a9; stroke: #a9a9a9; stroke-width: 0.8"/>
      </g>
     </g>
     <g id="text_12">
      <!-- 6000 -->
      <g style="fill: #a9a9a9" transform="translate(75.55 139.809673) scale(0.1 -0.1)">
       <use xlink:href="#DejaVuSans-36"/>
       <use xlink:href="#DejaVuSans-30" transform="translate(63.623047 0)"/>
       <use xlink:href="#DejaVuSans-30" transform="translate(127.246094 0)"/>
       <use xlink:href="#DejaVuSans-30" transform="translate(190.869141 0)"/>
      </g>
     </g>
    </g>
    <g id="ytick_8">
     <g id="line2d_25">
      <path d="M 108 107.374091 
L 777.6 107.374091 
" clip-path="url(#p5ba3a60bd3)" style="fill: none; stroke-dasharray: 5.12,1.28,0.8,1.28; stroke-dashoffset: 0; stroke: #b0b0b0; stroke-width: 0.8"/>
     </g>
     <g id="line2d_26">
      <g>
       <use xlink:href="#m3fa6195819" x="108" y="107.374091" style="fill: #a9a9a9; stroke: #a9a9a9; stroke-width: 0.8"/>
      </g>
     </g>
     <g id="text_13">
      <!-- 7000 -->
      <g style="fill: #a9a9a9" transform="translate(75.55 111.17331) scale(0.1 -0.1)">
       <defs>
        <path id="DejaVuSans-37" d="M 525 4666 
L 3525 4666 
L 3525 4397 
L 1831 0 
L 1172 0 
L 2766 4134 
L 525 4134 
L 525 4666 
z
" transform="scale(0.015625)"/>
       </defs>
       <use xlink:href="#DejaVuSans-37"/>
       <use xlink:href="#DejaVuSans-30" transform="translate(63.623047 0)"/>
       <use xlink:href="#DejaVuSans-30" transform="translate(127.246094 0)"/>
       <use xlink:href="#DejaVuSans-30" transform="translate(190.869141 0)"/>
      </g>
     </g>
    </g>
    <g id="ytick_9">
     <g id="line2d_27">
      <path d="M 108 78.737727 
L 777.6 78.737727 
" clip-path="url(#p5ba3a60bd3)" style="fill: none; stroke-dasharray: 5.12,1.28,0.8,1.28; stroke-dashoffset: 0; stroke: #b0b0b0; stroke-width: 0.8"/>
     </g>
     <g id="line2d_28">
      <g>
       <use xlink:href="#m3fa6195819" x="108" y="78.737727" style="fill: #a9a9a9; stroke: #a9a9a9; stroke-width: 0.8"/>
      </g>
     </g>
     <g id="text_14">
      <!-- 8000 -->
      <g style="fill: #a9a9a9" transform="translate(75.55 82.536946) scale(0.1 -0.1)">
       <defs>
        <path id="DejaVuSans-38" d="M 2034 2216 
Q 1584 2216 1326 1975 
Q 1069 1734 1069 1313 
Q 1069 891 1326 650 
Q 1584 409 2034 409 
Q 2484 409 2743 651 
Q 3003 894 3003 1313 
Q 3003 1734 2745 1975 
Q 2488 2216 2034 2216 
z
M 1403 2484 
Q 997 2584 770 2862 
Q 544 3141 544 3541 
Q 544 4100 942 4425 
Q 1341 4750 2034 4750 
Q 2731 4750 3128 4425 
Q 3525 4100 3525 3541 
Q 3525 3141 3298 2862 
Q 3072 2584 2669 2484 
Q 3125 2378 3379 2068 
Q 3634 1759 3634 1313 
Q 3634 634 3220 271 
Q 2806 -91 2034 -91 
Q 1263 -91 848 271 
Q 434 634 434 1313 
Q 434 1759 690 2068 
Q 947 2378 1403 2484 
z
M 1172 3481 
Q 1172 3119 1398 2916 
Q 1625 2713 2034 2713 
Q 2441 2713 2670 2916 
Q 2900 3119 2900 3481 
Q 2900 3844 2670 4047 
Q 2441 4250 2034 4250 
Q 1625 4250 1398 4047 
Q 1172 3844 1172 3481 
z
" transform="scale(0.015625)"/>
       </defs>
       <use xlink:href="#DejaVuSans-38"/>
       <use xlink:href="#DejaVuSans-30" transform="translate(63.623047 0)"/>
       <use xlink:href="#DejaVuSans-30" transform="translate(127.246094 0)"/>
       <use xlink:href="#DejaVuSans-30" transform="translate(190.869141 0)"/>
      </g>
     </g>
    </g>
    <g id="ytick_10">
     <g id="line2d_29">
      <path d="M 108 50.101364 
L 777.6 50.101364 
" clip-path="url(#p5ba3a60bd3)" style="fill: none; stroke-dasharray: 5.12,1.28,0.8,1.28; stroke-dashoffset: 0; stroke: #b0b0b0; stroke-width: 0.8"/>
     </g>
     <g id="line2d_30">
      <g>
       <use xlink:href="#m3fa6195819" x="108" y="50.101364" style="fill: #a9a9a9; stroke: #a9a9a9; stroke-width: 0.8"/>
      </g>
     </g>
     <g id="text_15">
      <!-- 9000 -->
      <g style="fill: #a9a9a9" transform="translate(75.55 53.900582) scale(0.1 -0.1)">
       <defs>
        <path id="DejaVuSans-39" d="M 703 97 
L 703 672 
Q 941 559 1184 500 
Q 1428 441 1663 441 
Q 2288 441 2617 861 
Q 2947 1281 2994 2138 
Q 2813 1869 2534 1725 
Q 2256 1581 1919 1581 
Q 1219 1581 811 2004 
Q 403 2428 403 3163 
Q 403 3881 828 4315 
Q 1253 4750 1959 4750 
Q 2769 4750 3195 4129 
Q 3622 3509 3622 2328 
Q 3622 1225 3098 567 
Q 2575 -91 1691 -91 
Q 1453 -91 1209 -44 
Q 966 3 703 97 
z
M 1959 2075 
Q 2384 2075 2632 2365 
Q 2881 2656 2881 3163 
Q 2881 3666 2632 3958 
Q 2384 4250 1959 4250 
Q 1534 4250 1286 3958 
Q 1038 3666 1038 3163 
Q 1038 2656 1286 2365 
Q 1534 2075 1959 2075 
z
" transform="scale(0.015625)"/>
       </defs>
       <use xlink:href="#DejaVuSans-39"/>
       <use xlink:href="#DejaVuSans-30" transform="translate(63.623047 0)"/>
       <use xlink:href="#DejaVuSans-30" transform="translate(127.246094 0)"/>
       <use xlink:href="#DejaVuSans-30" transform="translate(190.869141 0)"/>
      </g>
     </g>
    </g>
   </g>
   <g id="line2d_31">
    <path d="M 138.436364 307.742727 
L 140.571 307.542273 
L 140.926773 307.370455 
L 142.349865 307.17 
L 143.772956 306.855 
L 144.484501 306.740455 
L 146.263365 306.568636 
L 146.974911 306.282273 
L 147.330684 305.766818 
L 147.686457 305.509091 
L 148.042229 304.65 
L 148.398002 304.592727 
L 149.109548 304.134545 
L 149.821093 303.590455 
L 151.244185 302.502273 
L 151.599957 302.359091 
L 152.311503 301.900909 
L 153.378822 301.356818 
L 153.734594 300.755455 
L 154.44614 300.182727 
L 155.157686 299.953636 
L 156.225004 299.781818 
L 158.359641 299.438182 
L 158.715414 299.266364 
L 161.205823 299.037273 
L 162.628915 298.665 
L 165.475097 298.235455 
L 165.83087 298.035 
L 166.186643 297.977727 
L 166.898188 297.72 
L 169.388598 297.261818 
L 170.100143 297.032727 
L 173.302099 296.46 
L 174.013644 296.288182 
L 175.436736 296.087727 
L 176.148281 295.858636 
L 176.504054 295.314545 
L 177.571372 294.856364 
L 178.638691 294.541364 
L 178.994464 294.340909 
L 179.706009 294.197727 
L 181.484873 293.739545 
L 182.552192 293.481818 
L 183.975283 293.109545 
L 184.331056 293.080909 
L 185.042601 292.737273 
L 185.398374 292.68 
L 185.754147 292.479545 
L 190.379193 291.649091 
L 191.802285 290.990455 
L 192.51383 290.79 
L 193.225376 290.475 
L 193.936922 289.930909 
L 195.00424 289.701818 
L 202.831242 287.239091 
L 203.187015 287.210455 
L 204.254333 286.866818 
L 204.610106 286.866818 
L 204.965879 286.695 
L 205.677424 286.609091 
L 206.033197 286.465909 
L 207.812061 286.38 
L 208.167834 286.294091 
L 208.879379 285.893182 
L 209.946698 285.492273 
L 210.658243 285.091364 
L 211.725562 284.604545 
L 213.148653 283.86 
L 213.504426 283.459091 
L 214.215972 282.256364 
L 215.28329 281.912727 
L 215.639063 281.626364 
L 216.706381 281.225455 
L 217.062154 280.853182 
L 218.129472 280.395 
L 218.485245 280.194545 
L 220.619882 277.617273 
L 221.331428 277.273636 
L 222.754519 276.242727 
L 223.466065 275.727273 
L 223.821837 275.183182 
L 224.17761 274.295455 
L 224.533383 273.722727 
L 226.66802 271.975909 
L 227.735338 271.002273 
L 228.446884 270.057273 
L 229.514202 269.255455 
L 230.937293 268.339091 
L 231.648839 267.938182 
L 233.07193 267.136364 
L 234.850794 265.360909 
L 235.56234 265.045909 
L 236.273886 264.530455 
L 236.629658 264.301364 
L 236.985431 264.244091 
L 238.05275 263.585455 
L 238.408522 263.155909 
L 240.187386 262.125 
L 240.543159 261.981818 
L 241.610478 261.18 
L 246.94707 259.118182 
L 247.658615 258.402273 
L 248.725934 257.829545 
L 249.437479 257.342727 
L 250.149025 257.113636 
L 250.504798 256.855909 
L 250.860571 256.741364 
L 251.927889 255.968182 
L 253.706753 255.538636 
L 255.129844 254.822727 
L 255.84139 254.622273 
L 256.197163 254.536364 
L 257.264481 253.734545 
L 258.687572 253.305 
L 259.043345 253.018636 
L 261.177982 252.216818 
L 261.889528 252.073636 
L 262.601073 251.758636 
L 265.091483 250.785 
L 265.803029 250.699091 
L 267.22612 250.126364 
L 271.139621 248.035909 
L 271.851166 247.692273 
L 272.562712 247.348636 
L 273.274257 247.205455 
L 273.985803 246.747273 
L 274.697349 246.546818 
L 275.764667 246.088636 
L 277.187758 245.888182 
L 277.899304 245.487273 
L 278.255077 245.143636 
L 278.61085 244.456364 
L 280.033941 244.026818 
L 281.457032 243.339545 
L 284.658987 241.821818 
L 285.370533 241.65 
L 286.437851 241.077273 
L 286.793624 241.02 
L 288.572488 240.075 
L 289.284034 239.588182 
L 290.351352 239.359091 
L 293.553307 238.213636 
L 294.976399 237.583636 
L 295.332172 237.297273 
L 296.043717 236.896364 
L 296.755263 236.61 
L 297.111036 236.524091 
L 298.534127 235.750909 
L 298.8899 235.35 
L 299.245672 235.120909 
L 299.601445 235.035 
L 300.312991 234.405 
L 300.668764 234.347727 
L 301.024536 233.717727 
L 301.380309 233.574545 
L 301.736082 233.259545 
L 302.091855 233.202273 
L 302.8034 232.715455 
L 303.514946 232.457727 
L 303.870719 232.171364 
L 304.582264 231.770455 
L 306.005356 230.854091 
L 308.139993 229.851818 
L 308.495765 229.193182 
L 309.207311 228.620455 
L 309.563084 228.534545 
L 311.697721 227.446364 
L 312.409266 227.131364 
L 313.120812 226.587273 
L 313.832357 225.814091 
L 315.611222 224.410909 
L 316.322767 223.809545 
L 316.67854 223.637727 
L 317.390086 222.864545 
L 318.457404 222.349091 
L 319.16895 221.919545 
L 319.524722 221.805 
L 319.880495 221.518636 
L 320.236268 221.461364 
L 323.438223 219.743182 
L 324.149769 219.542727 
L 325.57286 219.027273 
L 326.284406 218.540455 
L 327.707497 217.996364 
L 328.419043 217.538182 
L 329.130588 217.251818 
L 329.842134 216.707727 
L 330.553679 215.218636 
L 331.265225 214.359545 
L 332.332543 213.786818 
L 333.044089 213.471818 
L 333.399862 213.414545 
L 334.111407 213.070909 
L 335.890272 212.412273 
L 336.601817 211.925455 
L 337.669136 211.467273 
L 339.448 210.350455 
L 340.159545 209.663182 
L 341.226864 209.119091 
L 341.582636 208.832727 
L 342.294182 208.460455 
L 344.428819 207.372273 
L 345.140364 207.171818 
L 346.207683 206.828182 
L 347.630774 206.140909 
L 351.544275 204.165 
L 352.255821 203.563636 
L 352.967366 203.363182 
L 353.323139 203.019545 
L 353.678912 202.962273 
L 354.390457 202.389545 
L 356.169322 201.272727 
L 356.880867 201.043636 
L 357.23664 200.814545 
L 357.592413 200.757273 
L 359.72705 199.812273 
L 363.996323 198.437727 
L 365.063642 197.664545 
L 365.775187 197.263636 
L 367.198279 196.547727 
L 368.265597 195.803182 
L 368.977143 195.631364 
L 370.044461 194.944091 
L 373.246416 193.798636 
L 373.957962 193.540909 
L 375.381053 193.225909 
L 376.092599 192.996818 
L 377.871463 192.366818 
L 378.938781 192.023182 
L 379.650327 191.851364 
L 381.784964 191.450455 
L 382.496509 191.307273 
L 383.563828 191.049545 
L 383.9196 190.877727 
L 384.631146 190.734545 
L 385.342692 190.534091 
L 386.054237 190.190455 
L 386.41001 190.047273 
L 386.765783 190.047273 
L 392.102375 188.271818 
L 392.458148 187.870909 
L 394.592785 186.925909 
L 396.015876 186.410455 
L 396.371649 186.181364 
L 397.438967 185.837727 
L 398.862058 185.293636 
L 399.217831 184.978636 
L 400.28515 184.749545 
L 400.996695 184.405909 
L 401.352468 183.947727 
L 405.265969 183.031364 
L 405.621742 183.031364 
L 406.333287 182.802273 
L 409.535243 181.971818 
L 410.246788 181.8 
L 416.650699 179.652273 
L 417.006471 179.394545 
L 417.718017 179.165455 
L 420.5642 178.134545 
L 421.275745 178.077273 
L 422.698836 177.647727 
L 423.054609 177.418636 
L 423.766155 177.189545 
L 424.4777 176.903182 
L 424.833473 176.616818 
L 425.189246 176.530909 
L 425.545019 176.330455 
L 425.900792 176.301818 
L 430.170065 174.698182 
L 433.372021 173.638636 
L 434.795112 172.407273 
L 437.285521 171.290455 
L 439.775931 170.173636 
L 440.487477 169.973182 
L 443.689432 168.340909 
L 444.400978 167.911364 
L 447.602933 166.307727 
L 447.958706 166.021364 
L 449.73757 165.334091 
L 452.227979 164.389091 
L 452.939525 164.303182 
L 453.295298 164.045455 
L 454.718389 163.759091 
L 455.429935 163.444091 
L 457.208799 162.556364 
L 461.833845 160.408636 
L 462.901164 160.036364 
L 463.256936 159.778636 
L 463.968482 159.692727 
L 464.324255 159.463636 
L 465.0358 159.349091 
L 469.660847 157.602273 
L 470.728165 157.344545 
L 472.151257 156.743182 
L 472.862802 156.342273 
L 474.285893 155.569091 
L 474.997439 155.397273 
L 475.353212 155.168182 
L 475.708985 155.110909 
L 477.487849 154.194545 
L 482.112895 152.390455 
L 482.468668 152.333182 
L 483.891759 151.617273 
L 484.603305 151.474091 
L 485.31485 151.044545 
L 486.737942 150.328636 
L 493.497625 147.493636 
L 494.209171 146.777727 
L 495.276489 146.233636 
L 496.343807 145.918636 
L 496.69958 145.632273 
L 497.411126 145.374545 
L 498.478444 144.63 
L 499.18999 144.429545 
L 499.901536 144.028636 
L 500.968854 143.770909 
L 507.728537 140.964545 
L 508.440083 140.649545 
L 510.57472 139.847727 
L 512.353584 138.931364 
L 513.065129 138.702273 
L 513.420902 138.358636 
L 514.488221 137.929091 
L 514.843993 137.871818 
L 516.267085 137.184545 
L 517.334403 136.840909 
L 518.401721 136.44 
L 519.46904 136.125 
L 519.824813 136.067727 
L 520.536358 135.666818 
L 520.892131 135.523636 
L 521.247904 135.237273 
L 522.315222 134.950909 
L 523.026768 134.664545 
L 523.738314 134.349545 
L 525.161405 133.748182 
L 527.651814 133.118182 
L 528.36336 132.831818 
L 529.786451 132.545455 
L 530.497997 132.402273 
L 531.565315 131.972727 
L 532.632634 131.743636 
L 534.767271 130.426364 
L 535.834589 129.796364 
L 537.969226 129.109091 
L 538.324999 128.822727 
L 541.171181 127.791818 
L 542.2385 127.448182 
L 542.950045 127.047273 
L 543.661591 126.846818 
L 544.017364 126.646364 
L 544.728909 126.503182 
L 546.507773 125.672727 
L 547.219319 125.386364 
L 548.64241 124.813636 
L 548.998183 124.47 
L 549.353956 124.412727 
L 550.777047 123.811364 
L 552.200138 123.439091 
L 552.555911 123.410455 
L 552.911684 123.238636 
L 553.623229 123.095455 
L 556.825185 122.093182 
L 557.53673 121.520455 
L 558.959821 120.69 
L 559.315594 120.604091 
L 559.671367 120.403636 
L 560.02714 120.346364 
L 563.229095 118.742727 
L 563.584868 118.456364 
L 565.363732 118.026818 
L 566.43105 117.54 
L 567.142596 117.339545 
L 567.498369 117.167727 
L 567.854142 116.852727 
L 570.344551 115.936364 
L 571.41187 115.449545 
L 571.767643 115.420909 
L 572.479188 115.134545 
L 573.902279 114.504545 
L 576.036916 113.960455 
L 577.104235 113.473636 
L 580.30619 112.442727 
L 581.017736 112.041818 
L 589.912056 109.235455 
L 590.267828 109.206818 
L 591.69092 108.634091 
L 593.469784 108.261818 
L 594.892875 107.717727 
L 595.248648 107.717727 
L 596.315966 107.46 
L 597.027512 107.316818 
L 597.739057 107.116364 
L 598.806376 106.543636 
L 599.873694 106.2 
L 602.364104 105.340909 
L 603.787195 104.596364 
L 606.277605 103.737273 
L 606.633378 103.422273 
L 607.344923 103.193182 
L 607.700696 102.964091 
L 608.412242 102.878182 
L 610.902651 102.162273 
L 611.96997 101.933182 
L 614.816152 100.902273 
L 619.441199 99.098182 
L 620.152744 98.983636 
L 620.86429 98.840455 
L 621.220063 98.840455 
L 622.287381 98.496818 
L 623.3547 98.153182 
L 626.200882 97.322727 
L 627.623973 97.007727 
L 627.979746 96.778636 
L 628.691292 96.635455 
L 630.114383 96.349091 
L 631.181701 95.833636 
L 632.24902 95.575909 
L 632.960565 95.260909 
L 635.095202 94.487727 
L 635.450975 94.430455 
L 636.162521 94.172727 
L 640.431794 93.055909 
L 642.566431 92.311364 
L 643.277977 92.254091 
L 645.768386 91.566818 
L 646.835705 91.194545 
L 647.54725 90.564545 
L 650.749206 89.304545 
L 651.460751 89.19 
L 654.306934 88.216364 
L 655.374252 87.615 
L 655.730025 87.529091 
L 656.085798 87.242727 
L 657.153116 86.927727 
L 662.489708 84.436364 
L 664.268572 83.806364 
L 664.624345 83.491364 
L 664.980118 83.434091 
L 665.691664 82.975909 
L 666.758982 82.660909 
L 668.182073 82.059545 
L 668.537846 82.030909 
L 670.31671 81.343636 
L 671.028256 81.200455 
L 671.739801 80.685 
L 672.095574 80.685 
L 673.518665 80.169545 
L 674.941757 79.883182 
L 676.364848 79.253182 
L 676.720621 79.253182 
L 679.21103 78.508636 
L 679.922576 77.935909 
L 683.124531 76.761818 
L 684.547622 76.418182 
L 687.038032 75.730909 
L 689.172669 74.986364 
L 690.59576 74.671364 
L 693.08617 73.955455 
L 693.797715 73.812273 
L 696.643898 72.752727 
L 697.355443 72.609545 
L 698.778535 72.351818 
L 699.49008 72.237273 
L 700.913171 71.664545 
L 701.624717 71.464091 
L 702.336263 71.349545 
L 703.759354 70.92 
L 704.115127 70.92 
L 704.826672 70.519091 
L 706.605536 70.060909 
L 707.317082 69.803182 
L 708.028628 69.66 
L 710.163264 68.715 
L 710.519037 68.657727 
L 711.230583 68.314091 
L 711.942128 67.999091 
L 712.653674 67.684091 
L 713.36522 67.397727 
L 713.720993 67.197273 
L 714.076765 67.14 
L 714.788311 66.825 
L 715.855629 66.366818 
L 717.634493 65.593636 
L 717.990266 65.364545 
L 718.346039 65.278636 
L 718.701812 65.049545 
L 719.057585 64.992273 
L 719.76913 64.534091 
L 721.903767 64.047273 
L 722.25954 63.789545 
L 725.461495 62.672727 
L 727.951905 61.555909 
L 729.019223 61.269545 
L 729.374996 61.040455 
L 730.086542 60.897273 
L 731.15386 60.668182 
L 732.576951 60.496364 
L 733.64427 60.267273 
L 734.000043 60.21 
L 735.067361 59.608636 
L 735.423134 59.551364 
L 736.134679 59.236364 
L 737.201998 59.064545 
L 737.913543 58.720909 
L 743.250135 56.630455 
L 744.317454 56.372727 
L 746.452091 55.8 
L 747.163636 55.8 
L 747.163636 55.8 
" clip-path="url(#p5ba3a60bd3)" style="fill: none; stroke: #1f77b4; stroke-width: 1.5; stroke-linecap: square"/>
   </g>
   <g id="line2d_32">
    <path d="M 138.792136 307.8 
L 141.994092 307.714091 
L 144.840274 307.570909 
L 146.263365 307.570909 
L 146.974911 307.456364 
L 155.513458 306.855 
L 158.359641 306.769091 
L 160.138505 306.711818 
L 164.763551 306.625909 
L 166.542415 306.568636 
L 169.744371 306.482727 
L 171.167462 306.454091 
L 174.72519 306.368182 
L 176.148281 306.225 
L 177.571372 306.196364 
L 179.706009 306.110455 
L 181.1291 306.081818 
L 182.907965 306.024545 
L 184.331056 305.881364 
L 187.533011 305.795455 
L 188.244557 305.738182 
L 189.667648 305.652273 
L 191.802285 305.566364 
L 193.225376 305.480455 
L 199.629286 305.050909 
L 202.119696 304.965 
L 203.187015 304.850455 
L 204.965879 304.764545 
L 208.523607 304.564091 
L 212.081335 304.506818 
L 213.504426 304.363636 
L 215.28329 304.277727 
L 218.841018 303.905455 
L 220.975655 303.619091 
L 222.398746 303.561818 
L 225.244929 303.189545 
L 227.379565 303.132273 
L 228.446884 303.046364 
L 229.514202 302.960455 
L 248.014388 301.557273 
L 250.504798 301.471364 
L 251.927889 301.299545 
L 253.706753 301.213636 
L 255.84139 301.127727 
L 257.620254 301.041818 
L 259.043345 301.013182 
L 260.822209 300.955909 
L 261.533755 300.87 
L 266.514574 300.784091 
L 267.22612 300.698182 
L 271.495393 300.612273 
L 274.697349 300.440455 
L 277.187758 300.354545 
L 278.966622 300.154091 
L 281.101259 300.068182 
L 281.812805 299.953636 
L 283.591669 299.896364 
L 287.149397 299.839091 
L 288.572488 299.695909 
L 289.995579 299.667273 
L 291.062898 299.581364 
L 292.485989 299.438182 
L 296.043717 299.237727 
L 299.601445 299.151818 
L 302.8034 298.98 
L 303.870719 298.951364 
L 304.582264 298.836818 
L 306.361129 298.779545 
L 307.072674 298.722273 
L 308.851538 298.636364 
L 310.274629 298.607727 
L 312.765039 298.521818 
L 322.015132 297.863182 
L 324.149769 297.777273 
L 325.928633 297.72 
L 330.909452 297.634091 
L 331.620998 297.548182 
L 336.601817 297.462273 
L 340.159545 297.261818 
L 340.871091 297.233182 
L 341.582636 297.147273 
L 343.3615 297.061364 
L 345.140364 297.004091 
L 346.919229 296.918182 
L 348.698093 296.860909 
L 351.900048 296.775 
L 354.034685 296.689091 
L 359.015504 296.603182 
L 362.929005 296.374091 
L 364.352096 296.316818 
L 365.419414 296.230909 
L 370.400234 296.145 
L 372.534871 296.059091 
L 378.938781 295.973182 
L 380.361872 295.944545 
L 384.631146 295.887273 
L 385.342692 295.83 
L 390.323511 295.744091 
L 391.746602 295.715455 
L 400.996695 295.629545 
L 403.131332 295.543636 
L 418.07379 295.457727 
L 419.852654 295.400455 
L 430.170065 295.314545 
L 434.083566 295.085455 
L 436.218203 294.999545 
L 438.35284 294.913636 
L 441.910568 294.827727 
L 444.400978 294.713182 
L 447.24716 294.627273 
L 450.093343 294.484091 
L 456.853026 294.398182 
L 458.987663 294.312273 
L 462.901164 294.226364 
L 465.391573 294.111818 
L 467.881983 294.054545 
L 468.593529 293.997273 
L 477.132076 293.911364 
L 480.689804 293.710909 
L 483.535986 293.625 
L 484.247532 293.539091 
L 484.959078 293.481818 
L 488.161033 293.395909 
L 489.939897 293.338636 
L 493.497625 293.252727 
L 495.276489 293.052273 
L 498.834217 292.966364 
L 499.545763 292.880455 
L 503.103491 292.794545 
L 504.882355 292.737273 
L 508.795856 292.708636 
L 509.507401 292.622727 
L 513.420902 292.536818 
L 514.132448 292.479545 
L 521.95945 292.393636 
L 524.094086 292.307727 
L 529.430678 292.221818 
L 530.85377 292.193182 
L 534.055725 292.164545 
L 534.767271 292.078636 
L 539.392317 291.992727 
L 541.171181 291.935455 
L 547.575092 291.849545 
L 548.64241 291.763636 
L 549.709728 291.677727 
L 550.777047 291.591818 
L 556.113639 291.505909 
L 558.248276 291.42 
L 568.565687 291.334091 
L 571.767643 291.162273 
L 576.748462 291.076364 
L 578.171553 291.047727 
L 582.440827 290.961818 
L 584.219691 290.904545 
L 592.402465 290.818636 
L 594.537102 290.732727 
L 600.58524 290.646818 
L 602.008331 290.618182 
L 605.566059 290.532273 
L 608.056469 290.417727 
L 611.96997 290.331818 
L 614.460379 290.217273 
L 617.662335 290.16 
L 618.37388 290.102727 
L 626.200882 290.016818 
L 628.335519 289.930909 
L 630.825928 289.845 
L 632.604793 289.787727 
L 642.922204 289.701818 
L 645.056841 289.615909 
L 651.104978 289.53 
L 652.883843 289.472727 
L 657.508889 289.386818 
L 659.643526 289.300909 
L 662.489708 289.215 
L 664.624345 289.129091 
L 678.855257 289.043182 
L 681.70144 288.9 
L 689.884214 288.814091 
L 691.307306 288.785455 
L 699.845853 288.699545 
L 701.624717 288.642273 
L 713.009447 288.556364 
L 714.432538 288.527727 
L 725.105722 288.441818 
L 725.817268 288.384545 
L 734.711588 288.298636 
L 736.490452 288.241364 
L 740.403953 288.155455 
L 741.827044 288.126818 
L 747.163636 288.126818 
L 747.163636 288.126818 
" clip-path="url(#p5ba3a60bd3)" style="fill: none; stroke: #ff7f0e; stroke-width: 1.5; stroke-linecap: square"/>
   </g>
   <g id="patch_3">
    <path d="M 108 320.4 
L 108 43.2 
" style="fill: none; stroke: #a9a9a9; stroke-width: 0.8; stroke-linejoin: miter; stroke-linecap: square"/>
   </g>
   <g id="patch_4">
    <path d="M 777.6 320.4 
L 777.6 43.2 
" style="fill: none"/>
   </g>
   <g id="patch_5">
    <path d="M 108 320.4 
L 777.6 320.4 
" style="fill: none; stroke: #a9a9a9; stroke-width: 0.8; stroke-linejoin: miter; stroke-linecap: square"/>
   </g>
   <g id="patch_6">
    <path d="M 108 43.2 
L 777.6 43.2 
" style="fill: none"/>
   </g>
   <g id="text_16">
    <!-- get_subscribe history -->
    <g style="fill: #a9a9a9" transform="translate(378.6075 37.2) scale(0.12 -0.12)">
     <defs>
      <path id="DejaVuSans-67" d="M 2906 1791 
Q 2906 2416 2648 2759 
Q 2391 3103 1925 3103 
Q 1463 3103 1205 2759 
Q 947 2416 947 1791 
Q 947 1169 1205 825 
Q 1463 481 1925 481 
Q 2391 481 2648 825 
Q 2906 1169 2906 1791 
z
M 3481 434 
Q 3481 -459 3084 -895 
Q 2688 -1331 1869 -1331 
Q 1566 -1331 1297 -1286 
Q 1028 -1241 775 -1147 
L 775 -588 
Q 1028 -725 1275 -790 
Q 1522 -856 1778 -856 
Q 2344 -856 2625 -561 
Q 2906 -266 2906 331 
L 2906 616 
Q 2728 306 2450 153 
Q 2172 0 1784 0 
Q 1141 0 747 490 
Q 353 981 353 1791 
Q 353 2603 747 3093 
Q 1141 3584 1784 3584 
Q 2172 3584 2450 3431 
Q 2728 3278 2906 2969 
L 2906 3500 
L 3481 3500 
L 3481 434 
z
" transform="scale(0.015625)"/>
      <path id="DejaVuSans-65" d="M 3597 1894 
L 3597 1613 
L 953 1613 
Q 991 1019 1311 708 
Q 1631 397 2203 397 
Q 2534 397 2845 478 
Q 3156 559 3463 722 
L 3463 178 
Q 3153 47 2828 -22 
Q 2503 -91 2169 -91 
Q 1331 -91 842 396 
Q 353 884 353 1716 
Q 353 2575 817 3079 
Q 1281 3584 2069 3584 
Q 2775 3584 3186 3129 
Q 3597 2675 3597 1894 
z
M 3022 2063 
Q 3016 2534 2758 2815 
Q 2500 3097 2075 3097 
Q 1594 3097 1305 2825 
Q 1016 2553 972 2059 
L 3022 2063 
z
" transform="scale(0.015625)"/>
      <path id="DejaVuSans-74" d="M 1172 4494 
L 1172 3500 
L 2356 3500 
L 2356 3053 
L 1172 3053 
L 1172 1153 
Q 1172 725 1289 603 
Q 1406 481 1766 481 
L 2356 481 
L 2356 0 
L 1766 0 
Q 1100 0 847 248 
Q 594 497 594 1153 
L 594 3053 
L 172 3053 
L 172 3500 
L 594 3500 
L 594 4494 
L 1172 4494 
z
" transform="scale(0.015625)"/>
      <path id="DejaVuSans-5f" d="M 3263 -1063 
L 3263 -1509 
L -63 -1509 
L -63 -1063 
L 3263 -1063 
z
" transform="scale(0.015625)"/>
      <path id="DejaVuSans-73" d="M 2834 3397 
L 2834 2853 
Q 2591 2978 2328 3040 
Q 2066 3103 1784 3103 
Q 1356 3103 1142 2972 
Q 928 2841 928 2578 
Q 928 2378 1081 2264 
Q 1234 2150 1697 2047 
L 1894 2003 
Q 2506 1872 2764 1633 
Q 3022 1394 3022 966 
Q 3022 478 2636 193 
Q 2250 -91 1575 -91 
Q 1294 -91 989 -36 
Q 684 19 347 128 
L 347 722 
Q 666 556 975 473 
Q 1284 391 1588 391 
Q 1994 391 2212 530 
Q 2431 669 2431 922 
Q 2431 1156 2273 1281 
Q 2116 1406 1581 1522 
L 1381 1569 
Q 847 1681 609 1914 
Q 372 2147 372 2553 
Q 372 3047 722 3315 
Q 1072 3584 1716 3584 
Q 2034 3584 2315 3537 
Q 2597 3491 2834 3397 
z
" transform="scale(0.015625)"/>
      <path id="DejaVuSans-75" d="M 544 1381 
L 544 3500 
L 1119 3500 
L 1119 1403 
Q 1119 906 1312 657 
Q 1506 409 1894 409 
Q 2359 409 2629 706 
Q 2900 1003 2900 1516 
L 2900 3500 
L 3475 3500 
L 3475 0 
L 2900 0 
L 2900 538 
Q 2691 219 2414 64 
Q 2138 -91 1772 -91 
Q 1169 -91 856 284 
Q 544 659 544 1381 
z
M 1991 3584 
L 1991 3584 
z
" transform="scale(0.015625)"/>
      <path id="DejaVuSans-62" d="M 3116 1747 
Q 3116 2381 2855 2742 
Q 2594 3103 2138 3103 
Q 1681 3103 1420 2742 
Q 1159 2381 1159 1747 
Q 1159 1113 1420 752 
Q 1681 391 2138 391 
Q 2594 391 2855 752 
Q 3116 1113 3116 1747 
z
M 1159 2969 
Q 1341 3281 1617 3432 
Q 1894 3584 2278 3584 
Q 2916 3584 3314 3078 
Q 3713 2572 3713 1747 
Q 3713 922 3314 415 
Q 2916 -91 2278 -91 
Q 1894 -91 1617 61 
Q 1341 213 1159 525 
L 1159 0 
L 581 0 
L 581 4863 
L 1159 4863 
L 1159 2969 
z
" transform="scale(0.015625)"/>
      <path id="DejaVuSans-63" d="M 3122 3366 
L 3122 2828 
Q 2878 2963 2633 3030 
Q 2388 3097 2138 3097 
Q 1578 3097 1268 2742 
Q 959 2388 959 1747 
Q 959 1106 1268 751 
Q 1578 397 2138 397 
Q 2388 397 2633 464 
Q 2878 531 3122 666 
L 3122 134 
Q 2881 22 2623 -34 
Q 2366 -91 2075 -91 
Q 1284 -91 818 406 
Q 353 903 353 1747 
Q 353 2603 823 3093 
Q 1294 3584 2113 3584 
Q 2378 3584 2631 3529 
Q 2884 3475 3122 3366 
z
" transform="scale(0.015625)"/>
      <path id="DejaVuSans-72" d="M 2631 2963 
Q 2534 3019 2420 3045 
Q 2306 3072 2169 3072 
Q 1681 3072 1420 2755 
Q 1159 2438 1159 1844 
L 1159 0 
L 581 0 
L 581 3500 
L 1159 3500 
L 1159 2956 
Q 1341 3275 1631 3429 
Q 1922 3584 2338 3584 
Q 2397 3584 2469 3576 
Q 2541 3569 2628 3553 
L 2631 2963 
z
" transform="scale(0.015625)"/>
      <path id="DejaVuSans-69" d="M 603 3500 
L 1178 3500 
L 1178 0 
L 603 0 
L 603 3500 
z
M 603 4863 
L 1178 4863 
L 1178 4134 
L 603 4134 
L 603 4863 
z
" transform="scale(0.015625)"/>
      <path id="DejaVuSans-20" transform="scale(0.015625)"/>
      <path id="DejaVuSans-68" d="M 3513 2113 
L 3513 0 
L 2938 0 
L 2938 2094 
Q 2938 2591 2744 2837 
Q 2550 3084 2163 3084 
Q 1697 3084 1428 2787 
Q 1159 2491 1159 1978 
L 1159 0 
L 581 0 
L 581 4863 
L 1159 4863 
L 1159 2956 
Q 1366 3272 1645 3428 
Q 1925 3584 2291 3584 
Q 2894 3584 3203 3211 
Q 3513 2838 3513 2113 
z
" transform="scale(0.015625)"/>
      <path id="DejaVuSans-6f" d="M 1959 3097 
Q 1497 3097 1228 2736 
Q 959 2375 959 1747 
Q 959 1119 1226 758 
Q 1494 397 1959 397 
Q 2419 397 2687 759 
Q 2956 1122 2956 1747 
Q 2956 2369 2687 2733 
Q 2419 3097 1959 3097 
z
M 1959 3584 
Q 2709 3584 3137 3096 
Q 3566 2609 3566 1747 
Q 3566 888 3137 398 
Q 2709 -91 1959 -91 
Q 1206 -91 779 398 
Q 353 888 353 1747 
Q 353 2609 779 3096 
Q 1206 3584 1959 3584 
z
" transform="scale(0.015625)"/>
      <path id="DejaVuSans-79" d="M 2059 -325 
Q 1816 -950 1584 -1140 
Q 1353 -1331 966 -1331 
L 506 -1331 
L 506 -850 
L 844 -850 
Q 1081 -850 1212 -737 
Q 1344 -625 1503 -206 
L 1606 56 
L 191 3500 
L 800 3500 
L 1894 763 
L 2988 3500 
L 3597 3500 
L 2059 -325 
z
" transform="scale(0.015625)"/>
     </defs>
     <use xlink:href="#DejaVuSans-67"/>
     <use xlink:href="#DejaVuSans-65" transform="translate(63.476562 0)"/>
     <use xlink:href="#DejaVuSans-74" transform="translate(125 0)"/>
     <use xlink:href="#DejaVuSans-5f" transform="translate(164.208984 0)"/>
     <use xlink:href="#DejaVuSans-73" transform="translate(214.208984 0)"/>
     <use xlink:href="#DejaVuSans-75" transform="translate(266.308594 0)"/>
     <use xlink:href="#DejaVuSans-62" transform="translate(329.6875 0)"/>
     <use xlink:href="#DejaVuSans-73" transform="translate(393.164062 0)"/>
     <use xlink:href="#DejaVuSans-63" transform="translate(445.263672 0)"/>
     <use xlink:href="#DejaVuSans-72" transform="translate(500.244141 0)"/>
     <use xlink:href="#DejaVuSans-69" transform="translate(541.357422 0)"/>
     <use xlink:href="#DejaVuSans-62" transform="translate(569.140625 0)"/>
     <use xlink:href="#DejaVuSans-65" transform="translate(632.617188 0)"/>
     <use xlink:href="#DejaVuSans-20" transform="translate(694.140625 0)"/>
     <use xlink:href="#DejaVuSans-68" transform="translate(725.927734 0)"/>
     <use xlink:href="#DejaVuSans-69" transform="translate(789.306641 0)"/>
     <use xlink:href="#DejaVuSans-73" transform="translate(817.089844 0)"/>
     <use xlink:href="#DejaVuSans-74" transform="translate(869.189453 0)"/>
     <use xlink:href="#DejaVuSans-6f" transform="translate(908.398438 0)"/>
     <use xlink:href="#DejaVuSans-72" transform="translate(969.580078 0)"/>
     <use xlink:href="#DejaVuSans-79" transform="translate(1010.693359 0)"/>
    </g>
   </g>
   <g id="legend_1">
    <g id="line2d_33">
     <path d="M 815.08 328.498438 
L 825.08 328.498438 
L 835.08 328.498438 
" style="fill: none; stroke: #1f77b4; stroke-width: 1.5; stroke-linecap: square"/>
    </g>
    <g id="text_17">
     <!-- star -->
     <g style="fill: #a9a9a9" transform="translate(843.08 331.998438) scale(0.1 -0.1)">
      <defs>
       <path id="DejaVuSans-61" d="M 2194 1759 
Q 1497 1759 1228 1600 
Q 959 1441 959 1056 
Q 959 750 1161 570 
Q 1363 391 1709 391 
Q 2188 391 2477 730 
Q 2766 1069 2766 1631 
L 2766 1759 
L 2194 1759 
z
M 3341 1997 
L 3341 0 
L 2766 0 
L 2766 531 
Q 2569 213 2275 61 
Q 1981 -91 1556 -91 
Q 1019 -91 701 211 
Q 384 513 384 1019 
Q 384 1609 779 1909 
Q 1175 2209 1959 2209 
L 2766 2209 
L 2766 2266 
Q 2766 2663 2505 2880 
Q 2244 3097 1772 3097 
Q 1472 3097 1187 3025 
Q 903 2953 641 2809 
L 641 3341 
Q 956 3463 1253 3523 
Q 1550 3584 1831 3584 
Q 2591 3584 2966 3190 
Q 3341 2797 3341 1997 
z
" transform="scale(0.015625)"/>
      </defs>
      <use xlink:href="#DejaVuSans-73"/>
      <use xlink:href="#DejaVuSans-74" transform="translate(52.099609 0)"/>
      <use xlink:href="#DejaVuSans-61" transform="translate(91.308594 0)"/>
      <use xlink:href="#DejaVuSans-72" transform="translate(152.587891 0)"/>
     </g>
    </g>
    <g id="line2d_34">
     <path d="M 815.08 343.176562 
L 825.08 343.176562 
L 835.08 343.176562 
" style="fill: none; stroke: #ff7f0e; stroke-width: 1.5; stroke-linecap: square"/>
    </g>
    <g id="text_18">
     <!-- fork -->
     <g style="fill: #a9a9a9" transform="translate(843.08 346.676562) scale(0.1 -0.1)">
      <defs>
       <path id="DejaVuSans-66" d="M 2375 4863 
L 2375 4384 
L 1825 4384 
Q 1516 4384 1395 4259 
Q 1275 4134 1275 3809 
L 1275 3500 
L 2222 3500 
L 2222 3053 
L 1275 3053 
L 1275 0 
L 697 0 
L 697 3053 
L 147 3053 
L 147 3500 
L 697 3500 
L 697 3744 
Q 697 4328 969 4595 
Q 1241 4863 1831 4863 
L 2375 4863 
z
" transform="scale(0.015625)"/>
       <path id="DejaVuSans-6b" d="M 581 4863 
L 1159 4863 
L 1159 1991 
L 2875 3500 
L 3609 3500 
L 1753 1863 
L 3688 0 
L 2938 0 
L 1159 1709 
L 1159 0 
L 581 0 
L 581 4863 
z
" transform="scale(0.015625)"/>
      </defs>
      <use xlink:href="#DejaVuSans-66"/>
      <use xlink:href="#DejaVuSans-6f" transform="translate(35.205078 0)"/>
      <use xlink:href="#DejaVuSans-72" transform="translate(96.386719 0)"/>
      <use xlink:href="#DejaVuSans-6b" transform="translate(137.5 0)"/>
     </g>
    </g>
   </g>
  </g>
 </g>
 <defs>
  <clipPath id="p5ba3a60bd3">
   <rect x="108" y="43.2" width="669.6" height="277.2"/>
  </clipPath>
 </defs>
</svg>
