<?xml version="1.0" encoding="utf-8" standalone="no"?>
<!DOCTYPE svg PUBLIC "-//W3C//DTD SVG 1.1//EN"
  "http://www.w3.org/Graphics/SVG/1.1/DTD/svg11.dtd">
<svg xmlns:xlink="http://www.w3.org/1999/xlink" width="864pt" height="360pt" viewBox="0 0 864 360" xmlns="http://www.w3.org/2000/svg" version="1.1">
 <metadata>
  <rdf:RDF xmlns:dc="http://purl.org/dc/elements/1.1/" xmlns:cc="http://creativecommons.org/ns#" xmlns:rdf="http://www.w3.org/1999/02/22-rdf-syntax-ns#">
   <cc:Work>
    <dc:type rdf:resource="http://purl.org/dc/dcmitype/StillImage"/>
    <dc:date>2025-03-29T20:06:23.657465</dc:date>
    <dc:format>image/svg+xml</dc:format>
    <dc:creator>
     <cc:Agent>
      <dc:title>Matplotlib v3.10.1, https://matplotlib.org/</dc:title>
     </cc:Agent>
    </dc:creator>
   </cc:Work>
  </rdf:RDF>
 </metadata>
 <defs>
  <style type="text/css">*{stroke-linejoin: round; stroke-linecap: butt}</style>
 </defs>
 <g id="figure_1">
  <g id="patch_1">
   <path d="M 0 360 
L 864 360 
L 864 0 
L 0 0 
L 0 360 
z
" style="fill: none; opacity: 0"/>
  </g>
  <g id="axes_1">
   <g id="patch_2">
    <path d="M 108 320.4 
L 777.6 320.4 
L 777.6 43.2 
L 108 43.2 
L 108 320.4 
z
" style="fill: none; opacity: 0"/>
   </g>
   <g id="matplotlib.axis_1">
    <g id="xtick_1">
     <g id="line2d_1">
      <path d="M 128.019156 320.4 
L 128.019156 43.2 
" clip-path="url(#p8d0e9beb32)" style="fill: none; stroke-dasharray: 5.12,1.28,0.8,1.28; stroke-dashoffset: 0; stroke: #b0b0b0; stroke-width: 0.8"/>
     </g>
     <g id="line2d_2">
      <defs>
       <path id="mb0932b88b8" d="M 0 0 
L 0 3.5 
" style="stroke: #a9a9a9; stroke-width: 0.8"/>
      </defs>
      <g>
       <use xlink:href="#mb0932b88b8" x="128.019156" y="320.4" style="fill: #a9a9a9; stroke: #a9a9a9; stroke-width: 0.8"/>
      </g>
     </g>
     <g id="text_1">
      <!-- 2021-07 -->
      <g style="fill: #a9a9a9" transform="translate(107.12775 334.998438) scale(0.1 -0.1)">
       <defs>
        <path id="DejaVuSans-32" d="M 1228 531 
L 3431 531 
L 3431 0 
L 469 0 
L 469 531 
Q 828 903 1448 1529 
Q 2069 2156 2228 2338 
Q 2531 2678 2651 2914 
Q 2772 3150 2772 3378 
Q 2772 3750 2511 3984 
Q 2250 4219 1831 4219 
Q 1534 4219 1204 4116 
Q 875 4013 500 3803 
L 500 4441 
Q 881 4594 1212 4672 
Q 1544 4750 1819 4750 
Q 2544 4750 2975 4387 
Q 3406 4025 3406 3419 
Q 3406 3131 3298 2873 
Q 3191 2616 2906 2266 
Q 2828 2175 2409 1742 
Q 1991 1309 1228 531 
z
" transform="scale(0.015625)"/>
        <path id="DejaVuSans-30" d="M 2034 4250 
Q 1547 4250 1301 3770 
Q 1056 3291 1056 2328 
Q 1056 1369 1301 889 
Q 1547 409 2034 409 
Q 2525 409 2770 889 
Q 3016 1369 3016 2328 
Q 3016 3291 2770 3770 
Q 2525 4250 2034 4250 
z
M 2034 4750 
Q 2819 4750 3233 4129 
Q 3647 3509 3647 2328 
Q 3647 1150 3233 529 
Q 2819 -91 2034 -91 
Q 1250 -91 836 529 
Q 422 1150 422 2328 
Q 422 3509 836 4129 
Q 1250 4750 2034 4750 
z
" transform="scale(0.015625)"/>
        <path id="DejaVuSans-31" d="M 794 531 
L 1825 531 
L 1825 4091 
L 703 3866 
L 703 4441 
L 1819 4666 
L 2450 4666 
L 2450 531 
L 3481 531 
L 3481 0 
L 794 0 
L 794 531 
z
" transform="scale(0.015625)"/>
        <path id="DejaVuSans-2d" d="M 313 2009 
L 1997 2009 
L 1997 1497 
L 313 1497 
L 313 2009 
z
" transform="scale(0.015625)"/>
        <path id="DejaVuSans-37" d="M 525 4666 
L 3525 4666 
L 3525 4397 
L 1831 0 
L 1172 0 
L 2766 4134 
L 525 4134 
L 525 4666 
z
" transform="scale(0.015625)"/>
       </defs>
       <use xlink:href="#DejaVuSans-32"/>
       <use xlink:href="#DejaVuSans-30" transform="translate(63.623047 0)"/>
       <use xlink:href="#DejaVuSans-32" transform="translate(127.246094 0)"/>
       <use xlink:href="#DejaVuSans-31" transform="translate(190.869141 0)"/>
       <use xlink:href="#DejaVuSans-2d" transform="translate(254.492188 0)"/>
       <use xlink:href="#DejaVuSans-30" transform="translate(290.576172 0)"/>
       <use xlink:href="#DejaVuSans-37" transform="translate(354.199219 0)"/>
      </g>
     </g>
    </g>
    <g id="xtick_2">
     <g id="line2d_3">
      <path d="M 211.356818 320.4 
L 211.356818 43.2 
" clip-path="url(#p8d0e9beb32)" style="fill: none; stroke-dasharray: 5.12,1.28,0.8,1.28; stroke-dashoffset: 0; stroke: #b0b0b0; stroke-width: 0.8"/>
     </g>
     <g id="line2d_4">
      <g>
       <use xlink:href="#mb0932b88b8" x="211.356818" y="320.4" style="fill: #a9a9a9; stroke: #a9a9a9; stroke-width: 0.8"/>
      </g>
     </g>
     <g id="text_2">
      <!-- 2022-01 -->
      <g style="fill: #a9a9a9" transform="translate(190.465412 334.998438) scale(0.1 -0.1)">
       <use xlink:href="#DejaVuSans-32"/>
       <use xlink:href="#DejaVuSans-30" transform="translate(63.623047 0)"/>
       <use xlink:href="#DejaVuSans-32" transform="translate(127.246094 0)"/>
       <use xlink:href="#DejaVuSans-32" transform="translate(190.869141 0)"/>
       <use xlink:href="#DejaVuSans-2d" transform="translate(254.492188 0)"/>
       <use xlink:href="#DejaVuSans-30" transform="translate(290.576172 0)"/>
       <use xlink:href="#DejaVuSans-31" transform="translate(354.199219 0)"/>
      </g>
     </g>
    </g>
    <g id="xtick_3">
     <g id="line2d_5">
      <path d="M 293.335714 320.4 
L 293.335714 43.2 
" clip-path="url(#p8d0e9beb32)" style="fill: none; stroke-dasharray: 5.12,1.28,0.8,1.28; stroke-dashoffset: 0; stroke: #b0b0b0; stroke-width: 0.8"/>
     </g>
     <g id="line2d_6">
      <g>
       <use xlink:href="#mb0932b88b8" x="293.335714" y="320.4" style="fill: #a9a9a9; stroke: #a9a9a9; stroke-width: 0.8"/>
      </g>
     </g>
     <g id="text_3">
      <!-- 2022-07 -->
      <g style="fill: #a9a9a9" transform="translate(272.444308 334.998438) scale(0.1 -0.1)">
       <use xlink:href="#DejaVuSans-32"/>
       <use xlink:href="#DejaVuSans-30" transform="translate(63.623047 0)"/>
       <use xlink:href="#DejaVuSans-32" transform="translate(127.246094 0)"/>
       <use xlink:href="#DejaVuSans-32" transform="translate(190.869141 0)"/>
       <use xlink:href="#DejaVuSans-2d" transform="translate(254.492188 0)"/>
       <use xlink:href="#DejaVuSans-30" transform="translate(290.576172 0)"/>
       <use xlink:href="#DejaVuSans-37" transform="translate(354.199219 0)"/>
      </g>
     </g>
    </g>
    <g id="xtick_4">
     <g id="line2d_7">
      <path d="M 376.673377 320.4 
L 376.673377 43.2 
" clip-path="url(#p8d0e9beb32)" style="fill: none; stroke-dasharray: 5.12,1.28,0.8,1.28; stroke-dashoffset: 0; stroke: #b0b0b0; stroke-width: 0.8"/>
     </g>
     <g id="line2d_8">
      <g>
       <use xlink:href="#mb0932b88b8" x="376.673377" y="320.4" style="fill: #a9a9a9; stroke: #a9a9a9; stroke-width: 0.8"/>
      </g>
     </g>
     <g id="text_4">
      <!-- 2023-01 -->
      <g style="fill: #a9a9a9" transform="translate(355.78197 334.998438) scale(0.1 -0.1)">
       <defs>
        <path id="DejaVuSans-33" d="M 2597 2516 
Q 3050 2419 3304 2112 
Q 3559 1806 3559 1356 
Q 3559 666 3084 287 
Q 2609 -91 1734 -91 
Q 1441 -91 1130 -33 
Q 819 25 488 141 
L 488 750 
Q 750 597 1062 519 
Q 1375 441 1716 441 
Q 2309 441 2620 675 
Q 2931 909 2931 1356 
Q 2931 1769 2642 2001 
Q 2353 2234 1838 2234 
L 1294 2234 
L 1294 2753 
L 1863 2753 
Q 2328 2753 2575 2939 
Q 2822 3125 2822 3475 
Q 2822 3834 2567 4026 
Q 2313 4219 1838 4219 
Q 1578 4219 1281 4162 
Q 984 4106 628 3988 
L 628 4550 
Q 988 4650 1302 4700 
Q 1616 4750 1894 4750 
Q 2613 4750 3031 4423 
Q 3450 4097 3450 3541 
Q 3450 3153 3228 2886 
Q 3006 2619 2597 2516 
z
" transform="scale(0.015625)"/>
       </defs>
       <use xlink:href="#DejaVuSans-32"/>
       <use xlink:href="#DejaVuSans-30" transform="translate(63.623047 0)"/>
       <use xlink:href="#DejaVuSans-32" transform="translate(127.246094 0)"/>
       <use xlink:href="#DejaVuSans-33" transform="translate(190.869141 0)"/>
       <use xlink:href="#DejaVuSans-2d" transform="translate(254.492188 0)"/>
       <use xlink:href="#DejaVuSans-30" transform="translate(290.576172 0)"/>
       <use xlink:href="#DejaVuSans-31" transform="translate(354.199219 0)"/>
      </g>
     </g>
    </g>
    <g id="xtick_5">
     <g id="line2d_9">
      <path d="M 458.652273 320.4 
L 458.652273 43.2 
" clip-path="url(#p8d0e9beb32)" style="fill: none; stroke-dasharray: 5.12,1.28,0.8,1.28; stroke-dashoffset: 0; stroke: #b0b0b0; stroke-width: 0.8"/>
     </g>
     <g id="line2d_10">
      <g>
       <use xlink:href="#mb0932b88b8" x="458.652273" y="320.4" style="fill: #a9a9a9; stroke: #a9a9a9; stroke-width: 0.8"/>
      </g>
     </g>
     <g id="text_5">
      <!-- 2023-07 -->
      <g style="fill: #a9a9a9" transform="translate(437.760866 334.998438) scale(0.1 -0.1)">
       <use xlink:href="#DejaVuSans-32"/>
       <use xlink:href="#DejaVuSans-30" transform="translate(63.623047 0)"/>
       <use xlink:href="#DejaVuSans-32" transform="translate(127.246094 0)"/>
       <use xlink:href="#DejaVuSans-33" transform="translate(190.869141 0)"/>
       <use xlink:href="#DejaVuSans-2d" transform="translate(254.492188 0)"/>
       <use xlink:href="#DejaVuSans-30" transform="translate(290.576172 0)"/>
       <use xlink:href="#DejaVuSans-37" transform="translate(354.199219 0)"/>
      </g>
     </g>
    </g>
    <g id="xtick_6">
     <g id="line2d_11">
      <path d="M 541.989935 320.4 
L 541.989935 43.2 
" clip-path="url(#p8d0e9beb32)" style="fill: none; stroke-dasharray: 5.12,1.28,0.8,1.28; stroke-dashoffset: 0; stroke: #b0b0b0; stroke-width: 0.8"/>
     </g>
     <g id="line2d_12">
      <g>
       <use xlink:href="#mb0932b88b8" x="541.989935" y="320.4" style="fill: #a9a9a9; stroke: #a9a9a9; stroke-width: 0.8"/>
      </g>
     </g>
     <g id="text_6">
      <!-- 2024-01 -->
      <g style="fill: #a9a9a9" transform="translate(521.098529 334.998438) scale(0.1 -0.1)">
       <defs>
        <path id="DejaVuSans-34" d="M 2419 4116 
L 825 1625 
L 2419 1625 
L 2419 4116 
z
M 2253 4666 
L 3047 4666 
L 3047 1625 
L 3713 1625 
L 3713 1100 
L 3047 1100 
L 3047 0 
L 2419 0 
L 2419 1100 
L 313 1100 
L 313 1709 
L 2253 4666 
z
" transform="scale(0.015625)"/>
       </defs>
       <use xlink:href="#DejaVuSans-32"/>
       <use xlink:href="#DejaVuSans-30" transform="translate(63.623047 0)"/>
       <use xlink:href="#DejaVuSans-32" transform="translate(127.246094 0)"/>
       <use xlink:href="#DejaVuSans-34" transform="translate(190.869141 0)"/>
       <use xlink:href="#DejaVuSans-2d" transform="translate(254.492188 0)"/>
       <use xlink:href="#DejaVuSans-30" transform="translate(290.576172 0)"/>
       <use xlink:href="#DejaVuSans-31" transform="translate(354.199219 0)"/>
      </g>
     </g>
    </g>
    <g id="xtick_7">
     <g id="line2d_13">
      <path d="M 624.421753 320.4 
L 624.421753 43.2 
" clip-path="url(#p8d0e9beb32)" style="fill: none; stroke-dasharray: 5.12,1.28,0.8,1.28; stroke-dashoffset: 0; stroke: #b0b0b0; stroke-width: 0.8"/>
     </g>
     <g id="line2d_14">
      <g>
       <use xlink:href="#mb0932b88b8" x="624.421753" y="320.4" style="fill: #a9a9a9; stroke: #a9a9a9; stroke-width: 0.8"/>
      </g>
     </g>
     <g id="text_7">
      <!-- 2024-07 -->
      <g style="fill: #a9a9a9" transform="translate(603.530347 334.998438) scale(0.1 -0.1)">
       <use xlink:href="#DejaVuSans-32"/>
       <use xlink:href="#DejaVuSans-30" transform="translate(63.623047 0)"/>
       <use xlink:href="#DejaVuSans-32" transform="translate(127.246094 0)"/>
       <use xlink:href="#DejaVuSans-34" transform="translate(190.869141 0)"/>
       <use xlink:href="#DejaVuSans-2d" transform="translate(254.492188 0)"/>
       <use xlink:href="#DejaVuSans-30" transform="translate(290.576172 0)"/>
       <use xlink:href="#DejaVuSans-37" transform="translate(354.199219 0)"/>
      </g>
     </g>
    </g>
    <g id="xtick_8">
     <g id="line2d_15">
      <path d="M 707.759416 320.4 
L 707.759416 43.2 
" clip-path="url(#p8d0e9beb32)" style="fill: none; stroke-dasharray: 5.12,1.28,0.8,1.28; stroke-dashoffset: 0; stroke: #b0b0b0; stroke-width: 0.8"/>
     </g>
     <g id="line2d_16">
      <g>
       <use xlink:href="#mb0932b88b8" x="707.759416" y="320.4" style="fill: #a9a9a9; stroke: #a9a9a9; stroke-width: 0.8"/>
      </g>
     </g>
     <g id="text_8">
      <!-- 2025-01 -->
      <g style="fill: #a9a9a9" transform="translate(686.868009 334.998438) scale(0.1 -0.1)">
       <defs>
        <path id="DejaVuSans-35" d="M 691 4666 
L 3169 4666 
L 3169 4134 
L 1269 4134 
L 1269 2991 
Q 1406 3038 1543 3061 
Q 1681 3084 1819 3084 
Q 2600 3084 3056 2656 
Q 3513 2228 3513 1497 
Q 3513 744 3044 326 
Q 2575 -91 1722 -91 
Q 1428 -91 1123 -41 
Q 819 9 494 109 
L 494 744 
Q 775 591 1075 516 
Q 1375 441 1709 441 
Q 2250 441 2565 725 
Q 2881 1009 2881 1497 
Q 2881 1984 2565 2268 
Q 2250 2553 1709 2553 
Q 1456 2553 1204 2497 
Q 953 2441 691 2322 
L 691 4666 
z
" transform="scale(0.015625)"/>
       </defs>
       <use xlink:href="#DejaVuSans-32"/>
       <use xlink:href="#DejaVuSans-30" transform="translate(63.623047 0)"/>
       <use xlink:href="#DejaVuSans-32" transform="translate(127.246094 0)"/>
       <use xlink:href="#DejaVuSans-35" transform="translate(190.869141 0)"/>
       <use xlink:href="#DejaVuSans-2d" transform="translate(254.492188 0)"/>
       <use xlink:href="#DejaVuSans-30" transform="translate(290.576172 0)"/>
       <use xlink:href="#DejaVuSans-31" transform="translate(354.199219 0)"/>
      </g>
     </g>
    </g>
   </g>
   <g id="matplotlib.axis_2">
    <g id="ytick_1">
     <g id="line2d_17">
      <path d="M 108 307.83373 
L 777.6 307.83373 
" clip-path="url(#p8d0e9beb32)" style="fill: none; stroke-dasharray: 5.12,1.28,0.8,1.28; stroke-dashoffset: 0; stroke: #b0b0b0; stroke-width: 0.8"/>
     </g>
     <g id="line2d_18">
      <defs>
       <path id="mc810231801" d="M 0 0 
L -3.5 0 
" style="stroke: #a9a9a9; stroke-width: 0.8"/>
      </defs>
      <g>
       <use xlink:href="#mc810231801" x="108" y="307.83373" style="fill: #a9a9a9; stroke: #a9a9a9; stroke-width: 0.8"/>
      </g>
     </g>
     <g id="text_9">
      <!-- 0 -->
      <g style="fill: #a9a9a9" transform="translate(94.6375 311.632949) scale(0.1 -0.1)">
       <use xlink:href="#DejaVuSans-30"/>
      </g>
     </g>
    </g>
    <g id="ytick_2">
     <g id="line2d_19">
      <path d="M 108 274.103306 
L 777.6 274.103306 
" clip-path="url(#p8d0e9beb32)" style="fill: none; stroke-dasharray: 5.12,1.28,0.8,1.28; stroke-dashoffset: 0; stroke: #b0b0b0; stroke-width: 0.8"/>
     </g>
     <g id="line2d_20">
      <g>
       <use xlink:href="#mc810231801" x="108" y="274.103306" style="fill: #a9a9a9; stroke: #a9a9a9; stroke-width: 0.8"/>
      </g>
     </g>
     <g id="text_10">
      <!-- 1000 -->
      <g style="fill: #a9a9a9" transform="translate(75.55 277.902525) scale(0.1 -0.1)">
       <use xlink:href="#DejaVuSans-31"/>
       <use xlink:href="#DejaVuSans-30" transform="translate(63.623047 0)"/>
       <use xlink:href="#DejaVuSans-30" transform="translate(127.246094 0)"/>
       <use xlink:href="#DejaVuSans-30" transform="translate(190.869141 0)"/>
      </g>
     </g>
    </g>
    <g id="ytick_3">
     <g id="line2d_21">
      <path d="M 108 240.372882 
L 777.6 240.372882 
" clip-path="url(#p8d0e9beb32)" style="fill: none; stroke-dasharray: 5.12,1.28,0.8,1.28; stroke-dashoffset: 0; stroke: #b0b0b0; stroke-width: 0.8"/>
     </g>
     <g id="line2d_22">
      <g>
       <use xlink:href="#mc810231801" x="108" y="240.372882" style="fill: #a9a9a9; stroke: #a9a9a9; stroke-width: 0.8"/>
      </g>
     </g>
     <g id="text_11">
      <!-- 2000 -->
      <g style="fill: #a9a9a9" transform="translate(75.55 244.172101) scale(0.1 -0.1)">
       <use xlink:href="#DejaVuSans-32"/>
       <use xlink:href="#DejaVuSans-30" transform="translate(63.623047 0)"/>
       <use xlink:href="#DejaVuSans-30" transform="translate(127.246094 0)"/>
       <use xlink:href="#DejaVuSans-30" transform="translate(190.869141 0)"/>
      </g>
     </g>
    </g>
    <g id="ytick_4">
     <g id="line2d_23">
      <path d="M 108 206.642458 
L 777.6 206.642458 
" clip-path="url(#p8d0e9beb32)" style="fill: none; stroke-dasharray: 5.12,1.28,0.8,1.28; stroke-dashoffset: 0; stroke: #b0b0b0; stroke-width: 0.8"/>
     </g>
     <g id="line2d_24">
      <g>
       <use xlink:href="#mc810231801" x="108" y="206.642458" style="fill: #a9a9a9; stroke: #a9a9a9; stroke-width: 0.8"/>
      </g>
     </g>
     <g id="text_12">
      <!-- 3000 -->
      <g style="fill: #a9a9a9" transform="translate(75.55 210.441676) scale(0.1 -0.1)">
       <use xlink:href="#DejaVuSans-33"/>
       <use xlink:href="#DejaVuSans-30" transform="translate(63.623047 0)"/>
       <use xlink:href="#DejaVuSans-30" transform="translate(127.246094 0)"/>
       <use xlink:href="#DejaVuSans-30" transform="translate(190.869141 0)"/>
      </g>
     </g>
    </g>
    <g id="ytick_5">
     <g id="line2d_25">
      <path d="M 108 172.912033 
L 777.6 172.912033 
" clip-path="url(#p8d0e9beb32)" style="fill: none; stroke-dasharray: 5.12,1.28,0.8,1.28; stroke-dashoffset: 0; stroke: #b0b0b0; stroke-width: 0.8"/>
     </g>
     <g id="line2d_26">
      <g>
       <use xlink:href="#mc810231801" x="108" y="172.912033" style="fill: #a9a9a9; stroke: #a9a9a9; stroke-width: 0.8"/>
      </g>
     </g>
     <g id="text_13">
      <!-- 4000 -->
      <g style="fill: #a9a9a9" transform="translate(75.55 176.711252) scale(0.1 -0.1)">
       <use xlink:href="#DejaVuSans-34"/>
       <use xlink:href="#DejaVuSans-30" transform="translate(63.623047 0)"/>
       <use xlink:href="#DejaVuSans-30" transform="translate(127.246094 0)"/>
       <use xlink:href="#DejaVuSans-30" transform="translate(190.869141 0)"/>
      </g>
     </g>
    </g>
    <g id="ytick_6">
     <g id="line2d_27">
      <path d="M 108 139.181609 
L 777.6 139.181609 
" clip-path="url(#p8d0e9beb32)" style="fill: none; stroke-dasharray: 5.12,1.28,0.8,1.28; stroke-dashoffset: 0; stroke: #b0b0b0; stroke-width: 0.8"/>
     </g>
     <g id="line2d_28">
      <g>
       <use xlink:href="#mc810231801" x="108" y="139.181609" style="fill: #a9a9a9; stroke: #a9a9a9; stroke-width: 0.8"/>
      </g>
     </g>
     <g id="text_14">
      <!-- 5000 -->
      <g style="fill: #a9a9a9" transform="translate(75.55 142.980828) scale(0.1 -0.1)">
       <use xlink:href="#DejaVuSans-35"/>
       <use xlink:href="#DejaVuSans-30" transform="translate(63.623047 0)"/>
       <use xlink:href="#DejaVuSans-30" transform="translate(127.246094 0)"/>
       <use xlink:href="#DejaVuSans-30" transform="translate(190.869141 0)"/>
      </g>
     </g>
    </g>
    <g id="ytick_7">
     <g id="line2d_29">
      <path d="M 108 105.451185 
L 777.6 105.451185 
" clip-path="url(#p8d0e9beb32)" style="fill: none; stroke-dasharray: 5.12,1.28,0.8,1.28; stroke-dashoffset: 0; stroke: #b0b0b0; stroke-width: 0.8"/>
     </g>
     <g id="line2d_30">
      <g>
       <use xlink:href="#mc810231801" x="108" y="105.451185" style="fill: #a9a9a9; stroke: #a9a9a9; stroke-width: 0.8"/>
      </g>
     </g>
     <g id="text_15">
      <!-- 6000 -->
      <g style="fill: #a9a9a9" transform="translate(75.55 109.250403) scale(0.1 -0.1)">
       <defs>
        <path id="DejaVuSans-36" d="M 2113 2584 
Q 1688 2584 1439 2293 
Q 1191 2003 1191 1497 
Q 1191 994 1439 701 
Q 1688 409 2113 409 
Q 2538 409 2786 701 
Q 3034 994 3034 1497 
Q 3034 2003 2786 2293 
Q 2538 2584 2113 2584 
z
M 3366 4563 
L 3366 3988 
Q 3128 4100 2886 4159 
Q 2644 4219 2406 4219 
Q 1781 4219 1451 3797 
Q 1122 3375 1075 2522 
Q 1259 2794 1537 2939 
Q 1816 3084 2150 3084 
Q 2853 3084 3261 2657 
Q 3669 2231 3669 1497 
Q 3669 778 3244 343 
Q 2819 -91 2113 -91 
Q 1303 -91 875 529 
Q 447 1150 447 2328 
Q 447 3434 972 4092 
Q 1497 4750 2381 4750 
Q 2619 4750 2861 4703 
Q 3103 4656 3366 4563 
z
" transform="scale(0.015625)"/>
       </defs>
       <use xlink:href="#DejaVuSans-36"/>
       <use xlink:href="#DejaVuSans-30" transform="translate(63.623047 0)"/>
       <use xlink:href="#DejaVuSans-30" transform="translate(127.246094 0)"/>
       <use xlink:href="#DejaVuSans-30" transform="translate(190.869141 0)"/>
      </g>
     </g>
    </g>
    <g id="ytick_8">
     <g id="line2d_31">
      <path d="M 108 71.72076 
L 777.6 71.72076 
" clip-path="url(#p8d0e9beb32)" style="fill: none; stroke-dasharray: 5.12,1.28,0.8,1.28; stroke-dashoffset: 0; stroke: #b0b0b0; stroke-width: 0.8"/>
     </g>
     <g id="line2d_32">
      <g>
       <use xlink:href="#mc810231801" x="108" y="71.72076" style="fill: #a9a9a9; stroke: #a9a9a9; stroke-width: 0.8"/>
      </g>
     </g>
     <g id="text_16">
      <!-- 7000 -->
      <g style="fill: #a9a9a9" transform="translate(75.55 75.519979) scale(0.1 -0.1)">
       <use xlink:href="#DejaVuSans-37"/>
       <use xlink:href="#DejaVuSans-30" transform="translate(63.623047 0)"/>
       <use xlink:href="#DejaVuSans-30" transform="translate(127.246094 0)"/>
       <use xlink:href="#DejaVuSans-30" transform="translate(190.869141 0)"/>
      </g>
     </g>
    </g>
   </g>
   <g id="line2d_33">
    <path d="M 138.436364 307.732539 
L 141.153896 307.496426 
L 141.606818 307.294044 
L 143.418506 307.057931 
L 145.230195 306.686896 
L 146.136039 306.551974 
L 148.400649 306.349592 
L 149.306494 305.978557 
L 149.759416 305.371409 
L 150.212338 305.067836 
L 150.66526 304.055923 
L 151.118182 303.988462 
L 151.571104 303.617427 
L 152.476948 303.145201 
L 154.288636 301.661063 
L 156.100325 300.750341 
L 157.459091 300.109463 
L 157.912013 299.367394 
L 158.817857 298.692785 
L 159.270779 298.490403 
L 163.8 297.815794 
L 164.252922 297.613412 
L 167.423377 297.343568 
L 169.235065 296.905073 
L 172.858442 296.399117 
L 173.311364 296.163004 
L 173.764286 296.095543 
L 174.67013 295.791969 
L 177.840584 295.252282 
L 178.746429 294.982439 
L 182.822727 294.2741 
L 183.728571 294.071717 
L 184.634416 294.037987 
L 186.446104 293.599491 
L 186.899026 292.958613 
L 188.257792 292.418927 
L 189.616558 292.047892 
L 190.069481 291.811779 
L 190.975325 291.643127 
L 192.787013 291.10344 
L 193.692857 291.035979 
L 194.598701 290.799866 
L 196.41039 290.32764 
L 196.863312 290.29391 
L 197.769156 289.855414 
L 198.222078 289.787953 
L 198.675 289.55184 
L 203.657143 288.70858 
L 205.468831 288.168893 
L 205.921753 287.865319 
L 208.186364 287.12325 
L 209.092208 286.482372 
L 210.450974 286.212528 
L 220.41526 283.277982 
L 220.868182 283.244251 
L 222.226948 282.839486 
L 222.67987 282.839486 
L 223.132792 282.637103 
L 224.038636 282.535912 
L 224.491558 282.36726 
L 226.303247 282.299799 
L 227.209091 282.131147 
L 228.114935 281.658921 
L 229.473701 281.152965 
L 229.926623 280.849391 
L 230.832468 280.444626 
L 231.28539 280.208513 
L 232.191234 279.904939 
L 232.644156 279.770017 
L 233.55 279.1966 
L 234.002922 278.690644 
L 234.908766 277.273966 
L 235.361688 277.139044 
L 235.81461 277.139044 
L 237.173377 276.329514 
L 237.626299 276.093401 
L 238.079221 275.99221 
L 238.532143 275.553714 
L 239.437987 275.18268 
L 240.343831 274.744184 
L 242.608442 271.809637 
L 245.325974 270.325499 
L 246.231818 269.583429 
L 246.68474 269.279855 
L 247.137662 268.638977 
L 247.590584 267.593334 
L 248.043506 266.884995 
L 248.496429 266.513961 
L 248.949351 266.311578 
L 252.572727 262.938536 
L 253.478571 262.095275 
L 256.196104 260.375023 
L 256.649026 260.206371 
L 258.007792 259.396841 
L 259.366558 258.48612 
L 261.178247 256.833329 
L 262.084091 256.462294 
L 262.989935 255.821416 
L 263.442857 255.551573 
L 263.895779 255.484112 
L 265.254545 254.708312 
L 265.707468 254.202356 
L 267.972078 252.95433 
L 268.425 252.785678 
L 269.783766 251.841226 
L 276.577597 249.412636 
L 277.483442 248.569375 
L 278.842208 247.894766 
L 279.748052 247.321349 
L 280.653896 247.051506 
L 281.106818 246.747932 
L 281.55974 246.61301 
L 282.918506 245.702289 
L 285.183117 245.196332 
L 286.541883 244.386802 
L 287.900649 244.083228 
L 288.353571 243.982037 
L 289.712338 242.936394 
L 291.524026 242.430438 
L 291.976948 242.059403 
L 294.694481 241.114951 
L 295.600325 240.946299 
L 296.506169 240.575264 
L 299.676623 239.3947 
L 300.582468 239.259778 
L 301.941234 238.787552 
L 304.205844 237.674448 
L 306.017532 236.662535 
L 309.640909 235.144666 
L 310.093831 235.077205 
L 310.999675 234.503788 
L 311.905519 234.267675 
L 313.264286 233.727988 
L 315.075974 233.491875 
L 315.981818 233.019649 
L 316.43474 232.614884 
L 316.887662 231.771624 
L 318.699351 231.265667 
L 320.058117 230.557328 
L 320.963961 230.253755 
L 321.869805 229.781529 
L 324.587338 228.668425 
L 325.493182 228.466042 
L 326.399026 227.993816 
L 326.851948 227.791434 
L 327.30487 227.723973 
L 329.569481 226.610869 
L 330.475325 226.037451 
L 331.834091 225.767608 
L 334.098701 225.194191 
L 334.551623 224.823156 
L 335.457468 224.519582 
L 337.722078 223.608861 
L 338.175 223.271557 
L 338.627922 223.102905 
L 339.533766 222.596948 
L 341.345455 222.023531 
L 342.251299 221.450114 
L 342.704221 220.977888 
L 343.157143 220.708044 
L 343.610065 220.606853 
L 344.515909 219.864784 
L 344.968831 219.797323 
L 345.421753 219.055254 
L 345.874675 218.852871 
L 346.327597 218.481836 
L 346.780519 218.414376 
L 347.686364 217.840958 
L 348.592208 217.537385 
L 349.04513 217.20008 
L 349.498052 217.031428 
L 351.30974 215.817133 
L 352.668506 215.108794 
L 353.574351 214.872681 
L 354.480195 214.366725 
L 354.933117 213.590925 
L 355.838961 212.916316 
L 356.291883 212.815125 
L 359.009416 211.499639 
L 359.91526 211.128604 
L 361.274026 209.98177 
L 362.17987 209.20597 
L 363.085714 208.666283 
L 363.538636 208.160327 
L 363.991558 207.856753 
L 364.897403 207.114683 
L 365.350325 206.912301 
L 366.256169 206.001579 
L 367.162013 205.698006 
L 368.067857 205.090858 
L 369.426623 204.382519 
L 369.879545 204.315058 
L 371.238312 203.572989 
L 372.144156 202.999572 
L 376.673377 201.31305 
L 377.126299 200.942016 
L 378.937987 200.233677 
L 379.390909 200.098755 
L 380.296753 199.491608 
L 381.202597 199.120573 
L 382.108442 198.479695 
L 383.014286 196.658252 
L 383.92013 195.578878 
L 385.278896 194.870539 
L 386.18474 194.499505 
L 386.637662 194.432044 
L 387.090584 194.162201 
L 389.355195 193.420131 
L 389.808117 193.217749 
L 390.713961 192.610601 
L 392.072727 192.037184 
L 392.978571 191.531227 
L 393.884416 190.991541 
L 394.337338 190.687967 
L 394.79026 190.18201 
L 395.696104 189.676054 
L 397.960714 188.428028 
L 400.678247 187.078811 
L 402.037013 186.674046 
L 403.395779 186.13436 
L 403.848701 185.797055 
L 404.754545 185.527212 
L 405.66039 185.156177 
L 406.113312 184.785143 
L 407.925 184.144264 
L 408.830844 183.503386 
L 409.736688 183.132352 
L 410.642532 182.424013 
L 411.548377 182.154169 
L 412.001299 181.749404 
L 412.454221 181.681944 
L 413.360065 180.973605 
L 414.265909 180.501379 
L 414.718831 180.298996 
L 415.171753 179.82677 
L 418.342208 178.545014 
L 419.248052 178.140249 
L 420.606818 177.701753 
L 421.512662 177.566832 
L 421.965584 177.364449 
L 422.418506 177.296988 
L 423.324351 176.892223 
L 423.777273 176.858493 
L 425.588961 176.183884 
L 426.947727 175.205702 
L 427.400649 175.03705 
L 428.306494 174.531094 
L 428.759416 174.396172 
L 431.476948 172.844572 
L 431.92987 172.743381 
L 433.288636 171.933851 
L 434.647403 171.461625 
L 435.553247 171.158051 
L 437.364935 170.550903 
L 438.270779 170.24733 
L 440.082468 169.876295 
L 440.53539 169.673912 
L 440.988312 169.606452 
L 441.894156 169.201687 
L 442.347078 169.134226 
L 442.8 168.898113 
L 443.705844 168.729461 
L 445.06461 168.223504 
L 445.970455 168.122313 
L 447.329221 167.818739 
L 449.593831 167.413974 
L 461.369805 163.90601 
L 461.822727 163.433784 
L 462.728571 163.062749 
L 466.351948 161.679802 
L 466.80487 161.409959 
L 468.163636 161.005193 
L 469.069481 160.76908 
L 469.522403 160.465507 
L 469.975325 160.364315 
L 470.428247 159.95955 
L 471.787013 159.689707 
L 472.692857 159.251211 
L 473.145779 158.711525 
L 474.957468 158.273029 
L 478.127922 157.598421 
L 478.580844 157.598421 
L 479.033766 157.396038 
L 480.845455 157.058734 
L 481.298377 156.856351 
L 483.110065 156.519047 
L 484.015909 156.114282 
L 484.921753 155.94563 
L 487.186364 155.372213 
L 488.998052 154.798795 
L 489.450974 154.697604 
L 489.903896 154.461491 
L 490.80974 154.225378 
L 491.715584 153.854343 
L 492.621429 153.517039 
L 493.074351 153.213465 
L 493.980195 152.943622 
L 497.603571 151.695596 
L 498.509416 151.628135 
L 500.321104 151.088449 
L 500.774026 150.818605 
L 501.67987 150.548762 
L 503.944481 149.503119 
L 504.397403 149.469388 
L 509.379545 147.681676 
L 511.644156 147.074528 
L 512.55 146.636033 
L 513.908766 146.332459 
L 515.720455 144.84832 
L 517.532143 144.07252 
L 518.437987 143.667755 
L 521.155519 142.622112 
L 521.608442 142.318538 
L 523.873052 141.576469 
L 525.231818 140.800669 
L 525.68474 140.699478 
L 527.949351 139.451452 
L 529.308117 138.844305 
L 529.761039 138.507 
L 530.666883 138.203427 
L 532.931494 137.056592 
L 534.29026 136.584366 
L 536.101948 135.842297 
L 537.460714 135.336341 
L 537.913636 135.167688 
L 538.819481 135.032767 
L 539.272403 134.729193 
L 541.084091 134.358158 
L 541.989935 133.987124 
L 543.801623 133.143863 
L 550.142532 130.377968 
L 551.501299 129.939473 
L 551.954221 129.635899 
L 552.860065 129.534708 
L 553.312987 129.231134 
L 554.218831 129.062482 
L 555.124675 128.623986 
L 555.577597 128.421604 
L 556.030519 128.354143 
L 556.936364 128.050569 
L 560.106818 126.937465 
L 561.465584 126.633891 
L 563.277273 125.891822 
L 564.183117 125.385865 
L 565.994805 124.475144 
L 566.900649 124.272761 
L 567.353571 124.002918 
L 567.806494 123.901727 
L 569.16526 123.125927 
L 570.071104 122.754892 
L 571.882792 122.046553 
L 574.147403 121.270754 
L 575.053247 120.798528 
L 577.317857 120.022728 
L 580.03539 118.909624 
L 581.847078 118.066363 
L 586.376299 116.312381 
L 586.829221 116.008807 
L 588.640909 115.40166 
L 589.093831 115.40166 
L 589.999675 114.996895 
L 591.811364 113.512756 
L 592.264286 113.377834 
L 592.717208 113.107991 
L 594.075974 112.736956 
L 594.528896 112.399652 
L 594.981818 112.298461 
L 595.887662 111.725044 
L 597.246429 111.016705 
L 598.152273 110.64567 
L 598.605195 110.409557 
L 599.963961 110.105983 
L 602.228571 109.330183 
L 603.134416 109.02661 
L 604.493182 108.318271 
L 605.399026 107.879775 
L 606.30487 107.643662 
L 607.663636 107.002784 
L 611.739935 105.484915 
L 613.098701 104.641654 
L 613.551623 104.540463 
L 614.457468 104.101968 
L 615.363312 103.764663 
L 615.816234 103.359898 
L 616.722078 102.988864 
L 618.080844 102.516638 
L 618.533766 102.145603 
L 618.986688 102.111873 
L 619.892532 101.842029 
L 620.798377 101.538455 
L 621.251299 101.336073 
L 621.704221 101.268612 
L 623.062987 100.762656 
L 624.421753 100.256699 
L 626.233442 99.447169 
L 626.686364 99.379708 
L 630.30974 97.861839 
L 631.668506 97.423344 
L 632.574351 97.355883 
L 633.480195 96.984848 
L 636.197727 96.175318 
L 637.103571 96.141587 
L 640.726948 94.961023 
L 641.632792 94.488797 
L 642.085714 94.084032 
L 643.444481 93.274501 
L 644.350325 92.734815 
L 647.067857 91.857824 
L 647.520779 91.486789 
L 650.238312 90.339954 
L 652.05 89.867729 
L 652.955844 89.462963 
L 653.408766 89.22685 
L 654.31461 88.957007 
L 654.767532 88.687164 
L 655.673377 88.518512 
L 659.296753 86.966912 
L 659.749675 86.899451 
L 660.202597 86.595877 
L 660.655519 86.427225 
L 661.108442 86.02246 
L 661.561364 85.954999 
L 663.373052 85.24666 
L 665.18474 84.808165 
L 665.637662 84.740704 
L 666.090584 84.538322 
L 666.543506 84.504591 
L 667.449351 84.201017 
L 667.902273 84.167287 
L 669.261039 83.6276 
L 671.072727 83.087913 
L 671.978571 82.413305 
L 673.79026 81.401392 
L 675.149026 80.929166 
L 678.772403 79.208914 
L 679.225325 78.972801 
L 679.678247 78.534306 
L 681.942857 77.927158 
L 683.301623 77.320011 
L 684.207468 77.083898 
L 684.66039 76.847785 
L 685.113312 76.47675 
L 686.925 76.004524 
L 687.377922 75.66722 
L 693.265909 73.542203 
L 694.171753 73.373551 
L 696.436364 72.665212 
L 697.342208 72.294177 
L 698.248052 71.956873 
L 699.153896 71.72076 
L 699.606818 71.518378 
L 700.05974 71.518378 
L 700.965584 71.147343 
L 701.871429 70.607656 
L 704.136039 69.831857 
L 705.494805 69.359631 
L 705.947727 69.29217 
L 706.853571 68.921135 
L 708.212338 68.617561 
L 709.571104 68.179066 
L 710.024026 68.077874 
L 710.476948 67.774301 
L 711.382792 67.571918 
L 720.441234 64.974675 
L 722.705844 64.56991 
L 723.611688 64.131415 
L 724.517532 63.692919 
L 725.876299 63.288154 
L 730.405519 61.567903 
L 730.858442 61.230598 
L 732.217208 60.927024 
L 733.123052 60.657181 
L 734.028896 60.218686 
L 734.481818 59.81392 
L 735.387662 59.510347 
L 735.840584 59.240503 
L 736.746429 59.139312 
L 739.916883 58.262321 
L 741.275649 57.992478 
L 743.993182 57.081756 
L 745.80487 56.204765 
L 747.163636 55.8 
L 747.163636 55.8 
" clip-path="url(#p8d0e9beb32)" style="fill: none; stroke: #1f77b4; stroke-width: 1.5; stroke-linecap: square"/>
   </g>
   <g id="line2d_34">
    <path d="M 138.889286 307.8 
L 142.965584 307.698809 
L 146.588961 307.530157 
L 148.400649 307.530157 
L 148.853571 307.395235 
L 151.118182 307.294044 
L 153.835714 306.99047 
L 156.553247 306.889279 
L 157.459091 306.788087 
L 160.629545 306.653166 
L 163.8 306.551974 
L 166.06461 306.484513 
L 171.952597 306.383322 
L 174.217208 306.315861 
L 178.293506 306.21467 
L 180.105195 306.18094 
L 184.634416 306.079748 
L 186.446104 305.911096 
L 188.257792 305.877366 
L 190.975325 305.776175 
L 192.787013 305.742444 
L 195.051623 305.674983 
L 196.863312 305.506331 
L 200.93961 305.40514 
L 201.845455 305.337679 
L 203.657143 305.236488 
L 206.374675 305.135296 
L 208.186364 305.034105 
L 216.338961 304.528149 
L 219.509416 304.426958 
L 220.868182 304.292036 
L 223.132792 304.190845 
L 227.662013 303.954732 
L 232.191234 303.887271 
L 234.002922 303.684888 
L 235.81461 303.583697 
L 240.796753 303.111471 
L 243.967208 302.740436 
L 245.325974 302.672976 
L 248.949351 302.20075 
L 251.666883 302.133289 
L 253.025649 301.998367 
L 254.384416 301.897176 
L 267.066234 300.918993 
L 267.972078 300.750341 
L 270.68961 300.64915 
L 277.936364 300.210655 
L 281.106818 300.109463 
L 282.918506 299.907081 
L 285.183117 299.805889 
L 287.900649 299.704698 
L 290.16526 299.603507 
L 291.976948 299.569776 
L 294.241558 299.502316 
L 295.147403 299.367394 
L 301.488312 299.266203 
L 302.394156 299.165011 
L 307.829221 299.06382 
L 311.905519 298.861438 
L 315.075974 298.760246 
L 316.887662 298.557864 
L 320.058117 298.456672 
L 320.963961 298.28802 
L 323.228571 298.220559 
L 327.757792 298.153099 
L 329.569481 297.984447 
L 331.381169 297.950716 
L 332.739935 297.849525 
L 334.551623 297.680873 
L 339.080844 297.44476 
L 343.610065 297.343568 
L 347.686364 297.141186 
L 349.04513 297.107455 
L 349.950974 296.972534 
L 352.215584 296.871343 
L 353.121429 296.803882 
L 354.027273 296.736421 
L 354.933117 296.66896 
L 359.009416 296.601499 
L 360.368182 296.500308 
L 372.597078 295.690778 
L 374.861688 295.589586 
L 377.126299 295.522126 
L 383.467208 295.420934 
L 384.373052 295.286013 
L 390.713961 295.184821 
L 395.243182 294.948708 
L 396.149026 294.914978 
L 397.05487 294.813787 
L 399.319481 294.712595 
L 401.584091 294.645135 
L 403.848701 294.543943 
L 406.113312 294.476482 
L 410.18961 294.375291 
L 412.907143 294.2741 
L 419.248052 294.172909 
L 424.230195 293.903065 
L 426.041883 293.835604 
L 427.400649 293.734413 
L 433.741558 293.633222 
L 436.459091 293.532031 
L 444.611688 293.430839 
L 446.423377 293.397109 
L 451.858442 293.329648 
L 452.764286 293.262187 
L 459.105195 293.160996 
L 460.916883 293.127265 
L 472.692857 293.026074 
L 475.41039 292.924883 
L 494.433117 292.823692 
L 496.697727 292.756231 
L 508.473701 292.68877 
L 509.379545 292.621309 
L 511.644156 292.553848 
L 513.002922 292.418927 
L 515.720455 292.317735 
L 518.890909 292.182814 
L 522.967208 292.081622 
L 525.231818 292.014161 
L 528.402273 291.91297 
L 532.025649 291.744318 
L 534.29026 291.643127 
L 536.101948 291.609396 
L 540.178247 291.508205 
L 541.989935 291.474475 
L 547.877922 291.373283 
L 549.68961 291.339553 
L 551.954221 291.238362 
L 554.671753 291.13717 
L 557.842208 291.06971 
L 558.748052 291.002249 
L 569.618182 290.901057 
L 575.506169 290.563753 
L 577.770779 290.496292 
L 578.676623 290.395101 
L 579.582468 290.32764 
L 583.205844 290.226449 
L 585.923377 290.125258 
L 590.452597 290.024066 
L 592.717208 289.787953 
L 597.246429 289.686762 
L 598.152273 289.585571 
L 602.681494 289.48438 
L 604.946104 289.416919 
L 609.928247 289.383188 
L 610.834091 289.281997 
L 615.816234 289.180806 
L 616.722078 289.113345 
L 626.686364 289.012154 
L 629.403896 288.910962 
L 636.197727 288.809771 
L 638.009416 288.776041 
L 642.085714 288.70858 
L 642.991558 288.607389 
L 648.879545 288.506197 
L 651.144156 288.438736 
L 659.296753 288.337545 
L 660.655519 288.236354 
L 662.014286 288.135163 
L 663.373052 288.033971 
L 670.166883 287.93278 
L 672.884416 287.831589 
L 685.113312 287.730398 
L 689.18961 287.528015 
L 694.624675 287.426824 
L 695.530519 287.359363 
L 702.324351 287.291902 
L 703.230195 287.224441 
L 708.212338 287.12325 
L 710.024026 287.089519 
L 716.364935 286.988328 
L 719.082468 286.887137 
L 726.782143 286.785946 
L 728.593831 286.752215 
L 732.67013 286.651024 
L 736.293506 286.482372 
L 741.275649 286.381181 
L 744.446104 286.246259 
L 747.163636 286.212528 
L 747.163636 286.212528 
" clip-path="url(#p8d0e9beb32)" style="fill: none; stroke: #ff7f0e; stroke-width: 1.5; stroke-linecap: square"/>
   </g>
   <g id="patch_3">
    <path d="M 108 320.4 
L 108 43.2 
" style="fill: none; stroke: #a9a9a9; stroke-width: 0.8; stroke-linejoin: miter; stroke-linecap: square"/>
   </g>
   <g id="patch_4">
    <path d="M 777.6 320.4 
L 777.6 43.2 
" style="fill: none"/>
   </g>
   <g id="patch_5">
    <path d="M 108 320.4 
L 777.6 320.4 
" style="fill: none; stroke: #a9a9a9; stroke-width: 0.8; stroke-linejoin: miter; stroke-linecap: square"/>
   </g>
   <g id="patch_6">
    <path d="M 108 43.2 
L 777.6 43.2 
" style="fill: none"/>
   </g>
   <g id="text_17">
    <!-- get_subscribe history -->
    <g style="fill: #a9a9a9" transform="translate(378.6075 37.2) scale(0.12 -0.12)">
     <defs>
      <path id="DejaVuSans-67" d="M 2906 1791 
Q 2906 2416 2648 2759 
Q 2391 3103 1925 3103 
Q 1463 3103 1205 2759 
Q 947 2416 947 1791 
Q 947 1169 1205 825 
Q 1463 481 1925 481 
Q 2391 481 2648 825 
Q 2906 1169 2906 1791 
z
M 3481 434 
Q 3481 -459 3084 -895 
Q 2688 -1331 1869 -1331 
Q 1566 -1331 1297 -1286 
Q 1028 -1241 775 -1147 
L 775 -588 
Q 1028 -725 1275 -790 
Q 1522 -856 1778 -856 
Q 2344 -856 2625 -561 
Q 2906 -266 2906 331 
L 2906 616 
Q 2728 306 2450 153 
Q 2172 0 1784 0 
Q 1141 0 747 490 
Q 353 981 353 1791 
Q 353 2603 747 3093 
Q 1141 3584 1784 3584 
Q 2172 3584 2450 3431 
Q 2728 3278 2906 2969 
L 2906 3500 
L 3481 3500 
L 3481 434 
z
" transform="scale(0.015625)"/>
      <path id="DejaVuSans-65" d="M 3597 1894 
L 3597 1613 
L 953 1613 
Q 991 1019 1311 708 
Q 1631 397 2203 397 
Q 2534 397 2845 478 
Q 3156 559 3463 722 
L 3463 178 
Q 3153 47 2828 -22 
Q 2503 -91 2169 -91 
Q 1331 -91 842 396 
Q 353 884 353 1716 
Q 353 2575 817 3079 
Q 1281 3584 2069 3584 
Q 2775 3584 3186 3129 
Q 3597 2675 3597 1894 
z
M 3022 2063 
Q 3016 2534 2758 2815 
Q 2500 3097 2075 3097 
Q 1594 3097 1305 2825 
Q 1016 2553 972 2059 
L 3022 2063 
z
" transform="scale(0.015625)"/>
      <path id="DejaVuSans-74" d="M 1172 4494 
L 1172 3500 
L 2356 3500 
L 2356 3053 
L 1172 3053 
L 1172 1153 
Q 1172 725 1289 603 
Q 1406 481 1766 481 
L 2356 481 
L 2356 0 
L 1766 0 
Q 1100 0 847 248 
Q 594 497 594 1153 
L 594 3053 
L 172 3053 
L 172 3500 
L 594 3500 
L 594 4494 
L 1172 4494 
z
" transform="scale(0.015625)"/>
      <path id="DejaVuSans-5f" d="M 3263 -1063 
L 3263 -1509 
L -63 -1509 
L -63 -1063 
L 3263 -1063 
z
" transform="scale(0.015625)"/>
      <path id="DejaVuSans-73" d="M 2834 3397 
L 2834 2853 
Q 2591 2978 2328 3040 
Q 2066 3103 1784 3103 
Q 1356 3103 1142 2972 
Q 928 2841 928 2578 
Q 928 2378 1081 2264 
Q 1234 2150 1697 2047 
L 1894 2003 
Q 2506 1872 2764 1633 
Q 3022 1394 3022 966 
Q 3022 478 2636 193 
Q 2250 -91 1575 -91 
Q 1294 -91 989 -36 
Q 684 19 347 128 
L 347 722 
Q 666 556 975 473 
Q 1284 391 1588 391 
Q 1994 391 2212 530 
Q 2431 669 2431 922 
Q 2431 1156 2273 1281 
Q 2116 1406 1581 1522 
L 1381 1569 
Q 847 1681 609 1914 
Q 372 2147 372 2553 
Q 372 3047 722 3315 
Q 1072 3584 1716 3584 
Q 2034 3584 2315 3537 
Q 2597 3491 2834 3397 
z
" transform="scale(0.015625)"/>
      <path id="DejaVuSans-75" d="M 544 1381 
L 544 3500 
L 1119 3500 
L 1119 1403 
Q 1119 906 1312 657 
Q 1506 409 1894 409 
Q 2359 409 2629 706 
Q 2900 1003 2900 1516 
L 2900 3500 
L 3475 3500 
L 3475 0 
L 2900 0 
L 2900 538 
Q 2691 219 2414 64 
Q 2138 -91 1772 -91 
Q 1169 -91 856 284 
Q 544 659 544 1381 
z
M 1991 3584 
L 1991 3584 
z
" transform="scale(0.015625)"/>
      <path id="DejaVuSans-62" d="M 3116 1747 
Q 3116 2381 2855 2742 
Q 2594 3103 2138 3103 
Q 1681 3103 1420 2742 
Q 1159 2381 1159 1747 
Q 1159 1113 1420 752 
Q 1681 391 2138 391 
Q 2594 391 2855 752 
Q 3116 1113 3116 1747 
z
M 1159 2969 
Q 1341 3281 1617 3432 
Q 1894 3584 2278 3584 
Q 2916 3584 3314 3078 
Q 3713 2572 3713 1747 
Q 3713 922 3314 415 
Q 2916 -91 2278 -91 
Q 1894 -91 1617 61 
Q 1341 213 1159 525 
L 1159 0 
L 581 0 
L 581 4863 
L 1159 4863 
L 1159 2969 
z
" transform="scale(0.015625)"/>
      <path id="DejaVuSans-63" d="M 3122 3366 
L 3122 2828 
Q 2878 2963 2633 3030 
Q 2388 3097 2138 3097 
Q 1578 3097 1268 2742 
Q 959 2388 959 1747 
Q 959 1106 1268 751 
Q 1578 397 2138 397 
Q 2388 397 2633 464 
Q 2878 531 3122 666 
L 3122 134 
Q 2881 22 2623 -34 
Q 2366 -91 2075 -91 
Q 1284 -91 818 406 
Q 353 903 353 1747 
Q 353 2603 823 3093 
Q 1294 3584 2113 3584 
Q 2378 3584 2631 3529 
Q 2884 3475 3122 3366 
z
" transform="scale(0.015625)"/>
      <path id="DejaVuSans-72" d="M 2631 2963 
Q 2534 3019 2420 3045 
Q 2306 3072 2169 3072 
Q 1681 3072 1420 2755 
Q 1159 2438 1159 1844 
L 1159 0 
L 581 0 
L 581 3500 
L 1159 3500 
L 1159 2956 
Q 1341 3275 1631 3429 
Q 1922 3584 2338 3584 
Q 2397 3584 2469 3576 
Q 2541 3569 2628 3553 
L 2631 2963 
z
" transform="scale(0.015625)"/>
      <path id="DejaVuSans-69" d="M 603 3500 
L 1178 3500 
L 1178 0 
L 603 0 
L 603 3500 
z
M 603 4863 
L 1178 4863 
L 1178 4134 
L 603 4134 
L 603 4863 
z
" transform="scale(0.015625)"/>
      <path id="DejaVuSans-20" transform="scale(0.015625)"/>
      <path id="DejaVuSans-68" d="M 3513 2113 
L 3513 0 
L 2938 0 
L 2938 2094 
Q 2938 2591 2744 2837 
Q 2550 3084 2163 3084 
Q 1697 3084 1428 2787 
Q 1159 2491 1159 1978 
L 1159 0 
L 581 0 
L 581 4863 
L 1159 4863 
L 1159 2956 
Q 1366 3272 1645 3428 
Q 1925 3584 2291 3584 
Q 2894 3584 3203 3211 
Q 3513 2838 3513 2113 
z
" transform="scale(0.015625)"/>
      <path id="DejaVuSans-6f" d="M 1959 3097 
Q 1497 3097 1228 2736 
Q 959 2375 959 1747 
Q 959 1119 1226 758 
Q 1494 397 1959 397 
Q 2419 397 2687 759 
Q 2956 1122 2956 1747 
Q 2956 2369 2687 2733 
Q 2419 3097 1959 3097 
z
M 1959 3584 
Q 2709 3584 3137 3096 
Q 3566 2609 3566 1747 
Q 3566 888 3137 398 
Q 2709 -91 1959 -91 
Q 1206 -91 779 398 
Q 353 888 353 1747 
Q 353 2609 779 3096 
Q 1206 3584 1959 3584 
z
" transform="scale(0.015625)"/>
      <path id="DejaVuSans-79" d="M 2059 -325 
Q 1816 -950 1584 -1140 
Q 1353 -1331 966 -1331 
L 506 -1331 
L 506 -850 
L 844 -850 
Q 1081 -850 1212 -737 
Q 1344 -625 1503 -206 
L 1606 56 
L 191 3500 
L 800 3500 
L 1894 763 
L 2988 3500 
L 3597 3500 
L 2059 -325 
z
" transform="scale(0.015625)"/>
     </defs>
     <use xlink:href="#DejaVuSans-67"/>
     <use xlink:href="#DejaVuSans-65" transform="translate(63.476562 0)"/>
     <use xlink:href="#DejaVuSans-74" transform="translate(125 0)"/>
     <use xlink:href="#DejaVuSans-5f" transform="translate(164.208984 0)"/>
     <use xlink:href="#DejaVuSans-73" transform="translate(214.208984 0)"/>
     <use xlink:href="#DejaVuSans-75" transform="translate(266.308594 0)"/>
     <use xlink:href="#DejaVuSans-62" transform="translate(329.6875 0)"/>
     <use xlink:href="#DejaVuSans-73" transform="translate(393.164062 0)"/>
     <use xlink:href="#DejaVuSans-63" transform="translate(445.263672 0)"/>
     <use xlink:href="#DejaVuSans-72" transform="translate(500.244141 0)"/>
     <use xlink:href="#DejaVuSans-69" transform="translate(541.357422 0)"/>
     <use xlink:href="#DejaVuSans-62" transform="translate(569.140625 0)"/>
     <use xlink:href="#DejaVuSans-65" transform="translate(632.617188 0)"/>
     <use xlink:href="#DejaVuSans-20" transform="translate(694.140625 0)"/>
     <use xlink:href="#DejaVuSans-68" transform="translate(725.927734 0)"/>
     <use xlink:href="#DejaVuSans-69" transform="translate(789.306641 0)"/>
     <use xlink:href="#DejaVuSans-73" transform="translate(817.089844 0)"/>
     <use xlink:href="#DejaVuSans-74" transform="translate(869.189453 0)"/>
     <use xlink:href="#DejaVuSans-6f" transform="translate(908.398438 0)"/>
     <use xlink:href="#DejaVuSans-72" transform="translate(969.580078 0)"/>
     <use xlink:href="#DejaVuSans-79" transform="translate(1010.693359 0)"/>
    </g>
   </g>
   <g id="legend_1">
    <g id="line2d_35">
     <path d="M 815.08 328.498438 
L 825.08 328.498438 
L 835.08 328.498438 
" style="fill: none; stroke: #1f77b4; stroke-width: 1.5; stroke-linecap: square"/>
    </g>
    <g id="text_18">
     <!-- star -->
     <g style="fill: #a9a9a9" transform="translate(843.08 331.998438) scale(0.1 -0.1)">
      <defs>
       <path id="DejaVuSans-61" d="M 2194 1759 
Q 1497 1759 1228 1600 
Q 959 1441 959 1056 
Q 959 750 1161 570 
Q 1363 391 1709 391 
Q 2188 391 2477 730 
Q 2766 1069 2766 1631 
L 2766 1759 
L 2194 1759 
z
M 3341 1997 
L 3341 0 
L 2766 0 
L 2766 531 
Q 2569 213 2275 61 
Q 1981 -91 1556 -91 
Q 1019 -91 701 211 
Q 384 513 384 1019 
Q 384 1609 779 1909 
Q 1175 2209 1959 2209 
L 2766 2209 
L 2766 2266 
Q 2766 2663 2505 2880 
Q 2244 3097 1772 3097 
Q 1472 3097 1187 3025 
Q 903 2953 641 2809 
L 641 3341 
Q 956 3463 1253 3523 
Q 1550 3584 1831 3584 
Q 2591 3584 2966 3190 
Q 3341 2797 3341 1997 
z
" transform="scale(0.015625)"/>
      </defs>
      <use xlink:href="#DejaVuSans-73"/>
      <use xlink:href="#DejaVuSans-74" transform="translate(52.099609 0)"/>
      <use xlink:href="#DejaVuSans-61" transform="translate(91.308594 0)"/>
      <use xlink:href="#DejaVuSans-72" transform="translate(152.587891 0)"/>
     </g>
    </g>
    <g id="line2d_36">
     <path d="M 815.08 343.176562 
L 825.08 343.176562 
L 835.08 343.176562 
" style="fill: none; stroke: #ff7f0e; stroke-width: 1.5; stroke-linecap: square"/>
    </g>
    <g id="text_19">
     <!-- fork -->
     <g style="fill: #a9a9a9" transform="translate(843.08 346.676562) scale(0.1 -0.1)">
      <defs>
       <path id="DejaVuSans-66" d="M 2375 4863 
L 2375 4384 
L 1825 4384 
Q 1516 4384 1395 4259 
Q 1275 4134 1275 3809 
L 1275 3500 
L 2222 3500 
L 2222 3053 
L 1275 3053 
L 1275 0 
L 697 0 
L 697 3053 
L 147 3053 
L 147 3500 
L 697 3500 
L 697 3744 
Q 697 4328 969 4595 
Q 1241 4863 1831 4863 
L 2375 4863 
z
" transform="scale(0.015625)"/>
       <path id="DejaVuSans-6b" d="M 581 4863 
L 1159 4863 
L 1159 1991 
L 2875 3500 
L 3609 3500 
L 1753 1863 
L 3688 0 
L 2938 0 
L 1159 1709 
L 1159 0 
L 581 0 
L 581 4863 
z
" transform="scale(0.015625)"/>
      </defs>
      <use xlink:href="#DejaVuSans-66"/>
      <use xlink:href="#DejaVuSans-6f" transform="translate(35.205078 0)"/>
      <use xlink:href="#DejaVuSans-72" transform="translate(96.386719 0)"/>
      <use xlink:href="#DejaVuSans-6b" transform="translate(137.5 0)"/>
     </g>
    </g>
   </g>
  </g>
 </g>
 <defs>
  <clipPath id="p8d0e9beb32">
   <rect x="108" y="43.2" width="669.6" height="277.2"/>
  </clipPath>
 </defs>
</svg>
