<?xml version="1.0" encoding="utf-8" standalone="no"?>
<!DOCTYPE svg PUBLIC "-//W3C//DTD SVG 1.1//EN"
  "http://www.w3.org/Graphics/SVG/1.1/DTD/svg11.dtd">
<svg xmlns:xlink="http://www.w3.org/1999/xlink" width="864pt" height="360pt" viewBox="0 0 864 360" xmlns="http://www.w3.org/2000/svg" version="1.1">
 <metadata>
  <rdf:RDF xmlns:dc="http://purl.org/dc/elements/1.1/" xmlns:cc="http://creativecommons.org/ns#" xmlns:rdf="http://www.w3.org/1999/02/22-rdf-syntax-ns#">
   <cc:Work>
    <dc:type rdf:resource="http://purl.org/dc/dcmitype/StillImage"/>
    <dc:date>2025-09-06T08:14:54.718681</dc:date>
    <dc:format>image/svg+xml</dc:format>
    <dc:creator>
     <cc:Agent>
      <dc:title>Matplotlib v3.10.6, https://matplotlib.org/</dc:title>
     </cc:Agent>
    </dc:creator>
   </cc:Work>
  </rdf:RDF>
 </metadata>
 <defs>
  <style type="text/css">*{stroke-linejoin: round; stroke-linecap: butt}</style>
 </defs>
 <g id="figure_1">
  <g id="patch_1">
   <path d="M 0 360 
L 864 360 
L 864 0 
L 0 0 
L 0 360 
z
" style="fill: none; opacity: 0"/>
  </g>
  <g id="axes_1">
   <g id="patch_2">
    <path d="M 108 320.4 
L 777.6 320.4 
L 777.6 43.2 
L 108 43.2 
L 108 320.4 
z
" style="fill: none; opacity: 0"/>
   </g>
   <g id="matplotlib.axis_1">
    <g id="xtick_1">
     <g id="line2d_1">
      <path d="M 129.133555 320.4 
L 129.133555 43.2 
" clip-path="url(#p9e03b98f5a)" style="fill: none; stroke-dasharray: 5.12,1.28,0.8,1.28; stroke-dashoffset: 0; stroke: #b0b0b0; stroke-width: 0.8"/>
     </g>
     <g id="line2d_2">
      <defs>
       <path id="m45cf579910" d="M 0 0 
L 0 3.5 
" style="stroke: #a9a9a9; stroke-width: 0.8"/>
      </defs>
      <g>
       <use xlink:href="#m45cf579910" x="129.133555" y="320.4" style="fill: #a9a9a9; stroke: #a9a9a9; stroke-width: 0.8"/>
      </g>
     </g>
     <g id="text_1">
      <!-- 2021-07 -->
      <g style="fill: #a9a9a9" transform="translate(108.242149 334.998438) scale(0.1 -0.1)">
       <defs>
        <path id="DejaVuSans-32" d="M 1228 531 
L 3431 531 
L 3431 0 
L 469 0 
L 469 531 
Q 828 903 1448 1529 
Q 2069 2156 2228 2338 
Q 2531 2678 2651 2914 
Q 2772 3150 2772 3378 
Q 2772 3750 2511 3984 
Q 2250 4219 1831 4219 
Q 1534 4219 1204 4116 
Q 875 4013 500 3803 
L 500 4441 
Q 881 4594 1212 4672 
Q 1544 4750 1819 4750 
Q 2544 4750 2975 4387 
Q 3406 4025 3406 3419 
Q 3406 3131 3298 2873 
Q 3191 2616 2906 2266 
Q 2828 2175 2409 1742 
Q 1991 1309 1228 531 
z
" transform="scale(0.015625)"/>
        <path id="DejaVuSans-30" d="M 2034 4250 
Q 1547 4250 1301 3770 
Q 1056 3291 1056 2328 
Q 1056 1369 1301 889 
Q 1547 409 2034 409 
Q 2525 409 2770 889 
Q 3016 1369 3016 2328 
Q 3016 3291 2770 3770 
Q 2525 4250 2034 4250 
z
M 2034 4750 
Q 2819 4750 3233 4129 
Q 3647 3509 3647 2328 
Q 3647 1150 3233 529 
Q 2819 -91 2034 -91 
Q 1250 -91 836 529 
Q 422 1150 422 2328 
Q 422 3509 836 4129 
Q 1250 4750 2034 4750 
z
" transform="scale(0.015625)"/>
        <path id="DejaVuSans-31" d="M 794 531 
L 1825 531 
L 1825 4091 
L 703 3866 
L 703 4441 
L 1819 4666 
L 2450 4666 
L 2450 531 
L 3481 531 
L 3481 0 
L 794 0 
L 794 531 
z
" transform="scale(0.015625)"/>
        <path id="DejaVuSans-2d" d="M 313 2009 
L 1997 2009 
L 1997 1497 
L 313 1497 
L 313 2009 
z
" transform="scale(0.015625)"/>
        <path id="DejaVuSans-37" d="M 525 4666 
L 3525 4666 
L 3525 4397 
L 1831 0 
L 1172 0 
L 2766 4134 
L 525 4134 
L 525 4666 
z
" transform="scale(0.015625)"/>
       </defs>
       <use xlink:href="#DejaVuSans-32"/>
       <use xlink:href="#DejaVuSans-30" transform="translate(63.623047 0)"/>
       <use xlink:href="#DejaVuSans-32" transform="translate(127.246094 0)"/>
       <use xlink:href="#DejaVuSans-31" transform="translate(190.869141 0)"/>
       <use xlink:href="#DejaVuSans-2d" transform="translate(254.492188 0)"/>
       <use xlink:href="#DejaVuSans-30" transform="translate(290.576172 0)"/>
       <use xlink:href="#DejaVuSans-37" transform="translate(354.199219 0)"/>
      </g>
     </g>
    </g>
    <g id="xtick_2">
     <g id="line2d_3">
      <path d="M 203.556025 320.4 
L 203.556025 43.2 
" clip-path="url(#p9e03b98f5a)" style="fill: none; stroke-dasharray: 5.12,1.28,0.8,1.28; stroke-dashoffset: 0; stroke: #b0b0b0; stroke-width: 0.8"/>
     </g>
     <g id="line2d_4">
      <g>
       <use xlink:href="#m45cf579910" x="203.556025" y="320.4" style="fill: #a9a9a9; stroke: #a9a9a9; stroke-width: 0.8"/>
      </g>
     </g>
     <g id="text_2">
      <!-- 2022-01 -->
      <g style="fill: #a9a9a9" transform="translate(182.664619 334.998438) scale(0.1 -0.1)">
       <use xlink:href="#DejaVuSans-32"/>
       <use xlink:href="#DejaVuSans-30" transform="translate(63.623047 0)"/>
       <use xlink:href="#DejaVuSans-32" transform="translate(127.246094 0)"/>
       <use xlink:href="#DejaVuSans-32" transform="translate(190.869141 0)"/>
       <use xlink:href="#DejaVuSans-2d" transform="translate(254.492188 0)"/>
       <use xlink:href="#DejaVuSans-30" transform="translate(290.576172 0)"/>
       <use xlink:href="#DejaVuSans-31" transform="translate(354.199219 0)"/>
      </g>
     </g>
    </g>
    <g id="xtick_3">
     <g id="line2d_5">
      <path d="M 276.765086 320.4 
L 276.765086 43.2 
" clip-path="url(#p9e03b98f5a)" style="fill: none; stroke-dasharray: 5.12,1.28,0.8,1.28; stroke-dashoffset: 0; stroke: #b0b0b0; stroke-width: 0.8"/>
     </g>
     <g id="line2d_6">
      <g>
       <use xlink:href="#m45cf579910" x="276.765086" y="320.4" style="fill: #a9a9a9; stroke: #a9a9a9; stroke-width: 0.8"/>
      </g>
     </g>
     <g id="text_3">
      <!-- 2022-07 -->
      <g style="fill: #a9a9a9" transform="translate(255.87368 334.998438) scale(0.1 -0.1)">
       <use xlink:href="#DejaVuSans-32"/>
       <use xlink:href="#DejaVuSans-30" transform="translate(63.623047 0)"/>
       <use xlink:href="#DejaVuSans-32" transform="translate(127.246094 0)"/>
       <use xlink:href="#DejaVuSans-32" transform="translate(190.869141 0)"/>
       <use xlink:href="#DejaVuSans-2d" transform="translate(254.492188 0)"/>
       <use xlink:href="#DejaVuSans-30" transform="translate(290.576172 0)"/>
       <use xlink:href="#DejaVuSans-37" transform="translate(354.199219 0)"/>
      </g>
     </g>
    </g>
    <g id="xtick_4">
     <g id="line2d_7">
      <path d="M 351.187557 320.4 
L 351.187557 43.2 
" clip-path="url(#p9e03b98f5a)" style="fill: none; stroke-dasharray: 5.12,1.28,0.8,1.28; stroke-dashoffset: 0; stroke: #b0b0b0; stroke-width: 0.8"/>
     </g>
     <g id="line2d_8">
      <g>
       <use xlink:href="#m45cf579910" x="351.187557" y="320.4" style="fill: #a9a9a9; stroke: #a9a9a9; stroke-width: 0.8"/>
      </g>
     </g>
     <g id="text_4">
      <!-- 2023-01 -->
      <g style="fill: #a9a9a9" transform="translate(330.29615 334.998438) scale(0.1 -0.1)">
       <defs>
        <path id="DejaVuSans-33" d="M 2597 2516 
Q 3050 2419 3304 2112 
Q 3559 1806 3559 1356 
Q 3559 666 3084 287 
Q 2609 -91 1734 -91 
Q 1441 -91 1130 -33 
Q 819 25 488 141 
L 488 750 
Q 750 597 1062 519 
Q 1375 441 1716 441 
Q 2309 441 2620 675 
Q 2931 909 2931 1356 
Q 2931 1769 2642 2001 
Q 2353 2234 1838 2234 
L 1294 2234 
L 1294 2753 
L 1863 2753 
Q 2328 2753 2575 2939 
Q 2822 3125 2822 3475 
Q 2822 3834 2567 4026 
Q 2313 4219 1838 4219 
Q 1578 4219 1281 4162 
Q 984 4106 628 3988 
L 628 4550 
Q 988 4650 1302 4700 
Q 1616 4750 1894 4750 
Q 2613 4750 3031 4423 
Q 3450 4097 3450 3541 
Q 3450 3153 3228 2886 
Q 3006 2619 2597 2516 
z
" transform="scale(0.015625)"/>
       </defs>
       <use xlink:href="#DejaVuSans-32"/>
       <use xlink:href="#DejaVuSans-30" transform="translate(63.623047 0)"/>
       <use xlink:href="#DejaVuSans-32" transform="translate(127.246094 0)"/>
       <use xlink:href="#DejaVuSans-33" transform="translate(190.869141 0)"/>
       <use xlink:href="#DejaVuSans-2d" transform="translate(254.492188 0)"/>
       <use xlink:href="#DejaVuSans-30" transform="translate(290.576172 0)"/>
       <use xlink:href="#DejaVuSans-31" transform="translate(354.199219 0)"/>
      </g>
     </g>
    </g>
    <g id="xtick_5">
     <g id="line2d_9">
      <path d="M 424.396617 320.4 
L 424.396617 43.2 
" clip-path="url(#p9e03b98f5a)" style="fill: none; stroke-dasharray: 5.12,1.28,0.8,1.28; stroke-dashoffset: 0; stroke: #b0b0b0; stroke-width: 0.8"/>
     </g>
     <g id="line2d_10">
      <g>
       <use xlink:href="#m45cf579910" x="424.396617" y="320.4" style="fill: #a9a9a9; stroke: #a9a9a9; stroke-width: 0.8"/>
      </g>
     </g>
     <g id="text_5">
      <!-- 2023-07 -->
      <g style="fill: #a9a9a9" transform="translate(403.505211 334.998438) scale(0.1 -0.1)">
       <use xlink:href="#DejaVuSans-32"/>
       <use xlink:href="#DejaVuSans-30" transform="translate(63.623047 0)"/>
       <use xlink:href="#DejaVuSans-32" transform="translate(127.246094 0)"/>
       <use xlink:href="#DejaVuSans-33" transform="translate(190.869141 0)"/>
       <use xlink:href="#DejaVuSans-2d" transform="translate(254.492188 0)"/>
       <use xlink:href="#DejaVuSans-30" transform="translate(290.576172 0)"/>
       <use xlink:href="#DejaVuSans-37" transform="translate(354.199219 0)"/>
      </g>
     </g>
    </g>
    <g id="xtick_6">
     <g id="line2d_11">
      <path d="M 498.819088 320.4 
L 498.819088 43.2 
" clip-path="url(#p9e03b98f5a)" style="fill: none; stroke-dasharray: 5.12,1.28,0.8,1.28; stroke-dashoffset: 0; stroke: #b0b0b0; stroke-width: 0.8"/>
     </g>
     <g id="line2d_12">
      <g>
       <use xlink:href="#m45cf579910" x="498.819088" y="320.4" style="fill: #a9a9a9; stroke: #a9a9a9; stroke-width: 0.8"/>
      </g>
     </g>
     <g id="text_6">
      <!-- 2024-01 -->
      <g style="fill: #a9a9a9" transform="translate(477.927682 334.998438) scale(0.1 -0.1)">
       <defs>
        <path id="DejaVuSans-34" d="M 2419 4116 
L 825 1625 
L 2419 1625 
L 2419 4116 
z
M 2253 4666 
L 3047 4666 
L 3047 1625 
L 3713 1625 
L 3713 1100 
L 3047 1100 
L 3047 0 
L 2419 0 
L 2419 1100 
L 313 1100 
L 313 1709 
L 2253 4666 
z
" transform="scale(0.015625)"/>
       </defs>
       <use xlink:href="#DejaVuSans-32"/>
       <use xlink:href="#DejaVuSans-30" transform="translate(63.623047 0)"/>
       <use xlink:href="#DejaVuSans-32" transform="translate(127.246094 0)"/>
       <use xlink:href="#DejaVuSans-34" transform="translate(190.869141 0)"/>
       <use xlink:href="#DejaVuSans-2d" transform="translate(254.492188 0)"/>
       <use xlink:href="#DejaVuSans-30" transform="translate(290.576172 0)"/>
       <use xlink:href="#DejaVuSans-31" transform="translate(354.199219 0)"/>
      </g>
     </g>
    </g>
    <g id="xtick_7">
     <g id="line2d_13">
      <path d="M 572.432619 320.4 
L 572.432619 43.2 
" clip-path="url(#p9e03b98f5a)" style="fill: none; stroke-dasharray: 5.12,1.28,0.8,1.28; stroke-dashoffset: 0; stroke: #b0b0b0; stroke-width: 0.8"/>
     </g>
     <g id="line2d_14">
      <g>
       <use xlink:href="#m45cf579910" x="572.432619" y="320.4" style="fill: #a9a9a9; stroke: #a9a9a9; stroke-width: 0.8"/>
      </g>
     </g>
     <g id="text_7">
      <!-- 2024-07 -->
      <g style="fill: #a9a9a9" transform="translate(551.541212 334.998438) scale(0.1 -0.1)">
       <use xlink:href="#DejaVuSans-32"/>
       <use xlink:href="#DejaVuSans-30" transform="translate(63.623047 0)"/>
       <use xlink:href="#DejaVuSans-32" transform="translate(127.246094 0)"/>
       <use xlink:href="#DejaVuSans-34" transform="translate(190.869141 0)"/>
       <use xlink:href="#DejaVuSans-2d" transform="translate(254.492188 0)"/>
       <use xlink:href="#DejaVuSans-30" transform="translate(290.576172 0)"/>
       <use xlink:href="#DejaVuSans-37" transform="translate(354.199219 0)"/>
      </g>
     </g>
    </g>
    <g id="xtick_8">
     <g id="line2d_15">
      <path d="M 646.855089 320.4 
L 646.855089 43.2 
" clip-path="url(#p9e03b98f5a)" style="fill: none; stroke-dasharray: 5.12,1.28,0.8,1.28; stroke-dashoffset: 0; stroke: #b0b0b0; stroke-width: 0.8"/>
     </g>
     <g id="line2d_16">
      <g>
       <use xlink:href="#m45cf579910" x="646.855089" y="320.4" style="fill: #a9a9a9; stroke: #a9a9a9; stroke-width: 0.8"/>
      </g>
     </g>
     <g id="text_8">
      <!-- 2025-01 -->
      <g style="fill: #a9a9a9" transform="translate(625.963683 334.998438) scale(0.1 -0.1)">
       <defs>
        <path id="DejaVuSans-35" d="M 691 4666 
L 3169 4666 
L 3169 4134 
L 1269 4134 
L 1269 2991 
Q 1406 3038 1543 3061 
Q 1681 3084 1819 3084 
Q 2600 3084 3056 2656 
Q 3513 2228 3513 1497 
Q 3513 744 3044 326 
Q 2575 -91 1722 -91 
Q 1428 -91 1123 -41 
Q 819 9 494 109 
L 494 744 
Q 775 591 1075 516 
Q 1375 441 1709 441 
Q 2250 441 2565 725 
Q 2881 1009 2881 1497 
Q 2881 1984 2565 2268 
Q 2250 2553 1709 2553 
Q 1456 2553 1204 2497 
Q 953 2441 691 2322 
L 691 4666 
z
" transform="scale(0.015625)"/>
       </defs>
       <use xlink:href="#DejaVuSans-32"/>
       <use xlink:href="#DejaVuSans-30" transform="translate(63.623047 0)"/>
       <use xlink:href="#DejaVuSans-32" transform="translate(127.246094 0)"/>
       <use xlink:href="#DejaVuSans-35" transform="translate(190.869141 0)"/>
       <use xlink:href="#DejaVuSans-2d" transform="translate(254.492188 0)"/>
       <use xlink:href="#DejaVuSans-30" transform="translate(290.576172 0)"/>
       <use xlink:href="#DejaVuSans-31" transform="translate(354.199219 0)"/>
      </g>
     </g>
    </g>
    <g id="xtick_9">
     <g id="line2d_17">
      <path d="M 720.06415 320.4 
L 720.06415 43.2 
" clip-path="url(#p9e03b98f5a)" style="fill: none; stroke-dasharray: 5.12,1.28,0.8,1.28; stroke-dashoffset: 0; stroke: #b0b0b0; stroke-width: 0.8"/>
     </g>
     <g id="line2d_18">
      <g>
       <use xlink:href="#m45cf579910" x="720.06415" y="320.4" style="fill: #a9a9a9; stroke: #a9a9a9; stroke-width: 0.8"/>
      </g>
     </g>
     <g id="text_9">
      <!-- 2025-07 -->
      <g style="fill: #a9a9a9" transform="translate(699.172744 334.998438) scale(0.1 -0.1)">
       <use xlink:href="#DejaVuSans-32"/>
       <use xlink:href="#DejaVuSans-30" transform="translate(63.623047 0)"/>
       <use xlink:href="#DejaVuSans-32" transform="translate(127.246094 0)"/>
       <use xlink:href="#DejaVuSans-35" transform="translate(190.869141 0)"/>
       <use xlink:href="#DejaVuSans-2d" transform="translate(254.492188 0)"/>
       <use xlink:href="#DejaVuSans-30" transform="translate(290.576172 0)"/>
       <use xlink:href="#DejaVuSans-37" transform="translate(354.199219 0)"/>
      </g>
     </g>
    </g>
   </g>
   <g id="matplotlib.axis_2">
    <g id="ytick_1">
     <g id="line2d_19">
      <path d="M 108 307.831046 
L 777.6 307.831046 
" clip-path="url(#p9e03b98f5a)" style="fill: none; stroke-dasharray: 5.12,1.28,0.8,1.28; stroke-dashoffset: 0; stroke: #b0b0b0; stroke-width: 0.8"/>
     </g>
     <g id="line2d_20">
      <defs>
       <path id="m9e00d748eb" d="M 0 0 
L -3.5 0 
" style="stroke: #a9a9a9; stroke-width: 0.8"/>
      </defs>
      <g>
       <use xlink:href="#m9e00d748eb" x="108" y="307.831046" style="fill: #a9a9a9; stroke: #a9a9a9; stroke-width: 0.8"/>
      </g>
     </g>
     <g id="text_10">
      <!-- 0 -->
      <g style="fill: #a9a9a9" transform="translate(94.6375 311.630265) scale(0.1 -0.1)">
       <use xlink:href="#DejaVuSans-30"/>
      </g>
     </g>
    </g>
    <g id="ytick_2">
     <g id="line2d_21">
      <path d="M 108 276.785093 
L 777.6 276.785093 
" clip-path="url(#p9e03b98f5a)" style="fill: none; stroke-dasharray: 5.12,1.28,0.8,1.28; stroke-dashoffset: 0; stroke: #b0b0b0; stroke-width: 0.8"/>
     </g>
     <g id="line2d_22">
      <g>
       <use xlink:href="#m9e00d748eb" x="108" y="276.785093" style="fill: #a9a9a9; stroke: #a9a9a9; stroke-width: 0.8"/>
      </g>
     </g>
     <g id="text_11">
      <!-- 1000 -->
      <g style="fill: #a9a9a9" transform="translate(75.55 280.584312) scale(0.1 -0.1)">
       <use xlink:href="#DejaVuSans-31"/>
       <use xlink:href="#DejaVuSans-30" transform="translate(63.623047 0)"/>
       <use xlink:href="#DejaVuSans-30" transform="translate(127.246094 0)"/>
       <use xlink:href="#DejaVuSans-30" transform="translate(190.869141 0)"/>
      </g>
     </g>
    </g>
    <g id="ytick_3">
     <g id="line2d_23">
      <path d="M 108 245.73914 
L 777.6 245.73914 
" clip-path="url(#p9e03b98f5a)" style="fill: none; stroke-dasharray: 5.12,1.28,0.8,1.28; stroke-dashoffset: 0; stroke: #b0b0b0; stroke-width: 0.8"/>
     </g>
     <g id="line2d_24">
      <g>
       <use xlink:href="#m9e00d748eb" x="108" y="245.73914" style="fill: #a9a9a9; stroke: #a9a9a9; stroke-width: 0.8"/>
      </g>
     </g>
     <g id="text_12">
      <!-- 2000 -->
      <g style="fill: #a9a9a9" transform="translate(75.55 249.538359) scale(0.1 -0.1)">
       <use xlink:href="#DejaVuSans-32"/>
       <use xlink:href="#DejaVuSans-30" transform="translate(63.623047 0)"/>
       <use xlink:href="#DejaVuSans-30" transform="translate(127.246094 0)"/>
       <use xlink:href="#DejaVuSans-30" transform="translate(190.869141 0)"/>
      </g>
     </g>
    </g>
    <g id="ytick_4">
     <g id="line2d_25">
      <path d="M 108 214.693187 
L 777.6 214.693187 
" clip-path="url(#p9e03b98f5a)" style="fill: none; stroke-dasharray: 5.12,1.28,0.8,1.28; stroke-dashoffset: 0; stroke: #b0b0b0; stroke-width: 0.8"/>
     </g>
     <g id="line2d_26">
      <g>
       <use xlink:href="#m9e00d748eb" x="108" y="214.693187" style="fill: #a9a9a9; stroke: #a9a9a9; stroke-width: 0.8"/>
      </g>
     </g>
     <g id="text_13">
      <!-- 3000 -->
      <g style="fill: #a9a9a9" transform="translate(75.55 218.492406) scale(0.1 -0.1)">
       <use xlink:href="#DejaVuSans-33"/>
       <use xlink:href="#DejaVuSans-30" transform="translate(63.623047 0)"/>
       <use xlink:href="#DejaVuSans-30" transform="translate(127.246094 0)"/>
       <use xlink:href="#DejaVuSans-30" transform="translate(190.869141 0)"/>
      </g>
     </g>
    </g>
    <g id="ytick_5">
     <g id="line2d_27">
      <path d="M 108 183.647234 
L 777.6 183.647234 
" clip-path="url(#p9e03b98f5a)" style="fill: none; stroke-dasharray: 5.12,1.28,0.8,1.28; stroke-dashoffset: 0; stroke: #b0b0b0; stroke-width: 0.8"/>
     </g>
     <g id="line2d_28">
      <g>
       <use xlink:href="#m9e00d748eb" x="108" y="183.647234" style="fill: #a9a9a9; stroke: #a9a9a9; stroke-width: 0.8"/>
      </g>
     </g>
     <g id="text_14">
      <!-- 4000 -->
      <g style="fill: #a9a9a9" transform="translate(75.55 187.446453) scale(0.1 -0.1)">
       <use xlink:href="#DejaVuSans-34"/>
       <use xlink:href="#DejaVuSans-30" transform="translate(63.623047 0)"/>
       <use xlink:href="#DejaVuSans-30" transform="translate(127.246094 0)"/>
       <use xlink:href="#DejaVuSans-30" transform="translate(190.869141 0)"/>
      </g>
     </g>
    </g>
    <g id="ytick_6">
     <g id="line2d_29">
      <path d="M 108 152.601281 
L 777.6 152.601281 
" clip-path="url(#p9e03b98f5a)" style="fill: none; stroke-dasharray: 5.12,1.28,0.8,1.28; stroke-dashoffset: 0; stroke: #b0b0b0; stroke-width: 0.8"/>
     </g>
     <g id="line2d_30">
      <g>
       <use xlink:href="#m9e00d748eb" x="108" y="152.601281" style="fill: #a9a9a9; stroke: #a9a9a9; stroke-width: 0.8"/>
      </g>
     </g>
     <g id="text_15">
      <!-- 5000 -->
      <g style="fill: #a9a9a9" transform="translate(75.55 156.4005) scale(0.1 -0.1)">
       <use xlink:href="#DejaVuSans-35"/>
       <use xlink:href="#DejaVuSans-30" transform="translate(63.623047 0)"/>
       <use xlink:href="#DejaVuSans-30" transform="translate(127.246094 0)"/>
       <use xlink:href="#DejaVuSans-30" transform="translate(190.869141 0)"/>
      </g>
     </g>
    </g>
    <g id="ytick_7">
     <g id="line2d_31">
      <path d="M 108 121.555328 
L 777.6 121.555328 
" clip-path="url(#p9e03b98f5a)" style="fill: none; stroke-dasharray: 5.12,1.28,0.8,1.28; stroke-dashoffset: 0; stroke: #b0b0b0; stroke-width: 0.8"/>
     </g>
     <g id="line2d_32">
      <g>
       <use xlink:href="#m9e00d748eb" x="108" y="121.555328" style="fill: #a9a9a9; stroke: #a9a9a9; stroke-width: 0.8"/>
      </g>
     </g>
     <g id="text_16">
      <!-- 6000 -->
      <g style="fill: #a9a9a9" transform="translate(75.55 125.354547) scale(0.1 -0.1)">
       <defs>
        <path id="DejaVuSans-36" d="M 2113 2584 
Q 1688 2584 1439 2293 
Q 1191 2003 1191 1497 
Q 1191 994 1439 701 
Q 1688 409 2113 409 
Q 2538 409 2786 701 
Q 3034 994 3034 1497 
Q 3034 2003 2786 2293 
Q 2538 2584 2113 2584 
z
M 3366 4563 
L 3366 3988 
Q 3128 4100 2886 4159 
Q 2644 4219 2406 4219 
Q 1781 4219 1451 3797 
Q 1122 3375 1075 2522 
Q 1259 2794 1537 2939 
Q 1816 3084 2150 3084 
Q 2853 3084 3261 2657 
Q 3669 2231 3669 1497 
Q 3669 778 3244 343 
Q 2819 -91 2113 -91 
Q 1303 -91 875 529 
Q 447 1150 447 2328 
Q 447 3434 972 4092 
Q 1497 4750 2381 4750 
Q 2619 4750 2861 4703 
Q 3103 4656 3366 4563 
z
" transform="scale(0.015625)"/>
       </defs>
       <use xlink:href="#DejaVuSans-36"/>
       <use xlink:href="#DejaVuSans-30" transform="translate(63.623047 0)"/>
       <use xlink:href="#DejaVuSans-30" transform="translate(127.246094 0)"/>
       <use xlink:href="#DejaVuSans-30" transform="translate(190.869141 0)"/>
      </g>
     </g>
    </g>
    <g id="ytick_8">
     <g id="line2d_33">
      <path d="M 108 90.509375 
L 777.6 90.509375 
" clip-path="url(#p9e03b98f5a)" style="fill: none; stroke-dasharray: 5.12,1.28,0.8,1.28; stroke-dashoffset: 0; stroke: #b0b0b0; stroke-width: 0.8"/>
     </g>
     <g id="line2d_34">
      <g>
       <use xlink:href="#m9e00d748eb" x="108" y="90.509375" style="fill: #a9a9a9; stroke: #a9a9a9; stroke-width: 0.8"/>
      </g>
     </g>
     <g id="text_17">
      <!-- 7000 -->
      <g style="fill: #a9a9a9" transform="translate(75.55 94.308594) scale(0.1 -0.1)">
       <use xlink:href="#DejaVuSans-37"/>
       <use xlink:href="#DejaVuSans-30" transform="translate(63.623047 0)"/>
       <use xlink:href="#DejaVuSans-30" transform="translate(127.246094 0)"/>
       <use xlink:href="#DejaVuSans-30" transform="translate(190.869141 0)"/>
      </g>
     </g>
    </g>
    <g id="ytick_9">
     <g id="line2d_35">
      <path d="M 108 59.463422 
L 777.6 59.463422 
" clip-path="url(#p9e03b98f5a)" style="fill: none; stroke-dasharray: 5.12,1.28,0.8,1.28; stroke-dashoffset: 0; stroke: #b0b0b0; stroke-width: 0.8"/>
     </g>
     <g id="line2d_36">
      <g>
       <use xlink:href="#m9e00d748eb" x="108" y="59.463422" style="fill: #a9a9a9; stroke: #a9a9a9; stroke-width: 0.8"/>
      </g>
     </g>
     <g id="text_18">
      <!-- 8000 -->
      <g style="fill: #a9a9a9" transform="translate(75.55 63.262641) scale(0.1 -0.1)">
       <defs>
        <path id="DejaVuSans-38" d="M 2034 2216 
Q 1584 2216 1326 1975 
Q 1069 1734 1069 1313 
Q 1069 891 1326 650 
Q 1584 409 2034 409 
Q 2484 409 2743 651 
Q 3003 894 3003 1313 
Q 3003 1734 2745 1975 
Q 2488 2216 2034 2216 
z
M 1403 2484 
Q 997 2584 770 2862 
Q 544 3141 544 3541 
Q 544 4100 942 4425 
Q 1341 4750 2034 4750 
Q 2731 4750 3128 4425 
Q 3525 4100 3525 3541 
Q 3525 3141 3298 2862 
Q 3072 2584 2669 2484 
Q 3125 2378 3379 2068 
Q 3634 1759 3634 1313 
Q 3634 634 3220 271 
Q 2806 -91 2034 -91 
Q 1263 -91 848 271 
Q 434 634 434 1313 
Q 434 1759 690 2068 
Q 947 2378 1403 2484 
z
M 1172 3481 
Q 1172 3119 1398 2916 
Q 1625 2713 2034 2713 
Q 2441 2713 2670 2916 
Q 2900 3119 2900 3481 
Q 2900 3844 2670 4047 
Q 2441 4250 2034 4250 
Q 1625 4250 1398 4047 
Q 1172 3844 1172 3481 
z
" transform="scale(0.015625)"/>
       </defs>
       <use xlink:href="#DejaVuSans-38"/>
       <use xlink:href="#DejaVuSans-30" transform="translate(63.623047 0)"/>
       <use xlink:href="#DejaVuSans-30" transform="translate(127.246094 0)"/>
       <use xlink:href="#DejaVuSans-30" transform="translate(190.869141 0)"/>
      </g>
     </g>
    </g>
   </g>
   <g id="line2d_37">
    <path d="M 138.436364 307.737908 
L 140.863183 307.520586 
L 141.267653 307.334311 
L 142.885533 307.116989 
L 144.503413 306.775484 
L 145.312353 306.6513 
L 147.334703 306.465024 
L 148.143642 306.123519 
L 148.548112 305.564691 
L 148.952582 305.285278 
L 149.357052 304.353899 
L 149.761522 304.291807 
L 150.165992 303.950302 
L 150.974932 303.515658 
L 152.592812 302.149637 
L 154.210692 301.311396 
L 155.424101 300.721523 
L 155.828571 300.038512 
L 156.637511 299.417593 
L 157.041981 299.231317 
L 161.086681 298.610398 
L 161.491151 298.424122 
L 164.32244 298.175755 
L 165.94032 297.772157 
L 169.17608 297.306468 
L 169.58055 297.089146 
L 169.98502 297.027054 
L 170.79396 296.747641 
L 173.625249 296.250906 
L 174.434189 296.002538 
L 178.074419 295.381619 
L 178.883359 295.195343 
L 179.692298 295.164297 
L 181.310178 294.7607 
L 181.714648 294.170827 
L 182.928058 293.674091 
L 184.141468 293.332586 
L 184.545938 293.115264 
L 185.354878 292.960034 
L 186.972757 292.463299 
L 187.781697 292.401207 
L 188.590637 292.183886 
L 190.208517 291.749242 
L 190.612987 291.718196 
L 191.421927 291.314599 
L 191.826397 291.252507 
L 192.230867 291.035185 
L 196.680036 290.259037 
L 198.297916 289.762301 
L 198.702386 289.482888 
L 200.724736 288.799877 
L 201.533676 288.210004 
L 202.747085 287.961636 
L 208.005195 286.409338 
L 208.409665 286.347247 
L 210.027545 285.695282 
L 210.432014 285.63319 
L 211.240954 285.291684 
L 212.049894 285.260638 
L 213.263304 284.888087 
L 213.667774 284.888087 
L 214.072244 284.701811 
L 214.881184 284.608673 
L 215.285654 284.453443 
L 216.903534 284.391351 
L 217.712474 284.236122 
L 218.521413 283.801478 
L 219.734823 283.335789 
L 220.543763 282.901146 
L 221.757173 282.373365 
L 223.375053 281.535124 
L 223.779523 281.069435 
L 224.588463 279.765504 
L 224.992933 279.641321 
L 225.397403 279.641321 
L 227.015282 278.709942 
L 227.419752 278.616804 
L 227.824222 278.213207 
L 228.633162 277.871701 
L 229.442102 277.49915 
L 229.846572 277.002415 
L 230.251042 276.319404 
L 230.655512 276.03999 
L 231.059982 275.294887 
L 231.464452 274.829198 
L 233.891272 273.463176 
L 235.509151 271.97297 
L 235.913621 271.010546 
L 236.318091 270.389627 
L 236.722561 270.048121 
L 237.127031 269.861846 
L 240.362791 266.788296 
L 241.171731 266.012147 
L 243.59855 264.428804 
L 244.00302 264.273574 
L 245.6209 263.280103 
L 246.02537 263.093828 
L 248.04772 261.168979 
L 248.85666 260.827473 
L 249.6656 260.2376 
L 250.070069 259.989232 
L 250.474539 259.927141 
L 251.687949 259.213084 
L 252.092419 258.747394 
L 254.114769 257.598694 
L 254.519239 257.443464 
L 255.732649 256.574178 
L 261.799698 254.338869 
L 262.608638 253.56272 
L 263.822048 252.941801 
L 264.630988 252.41402 
L 265.439928 252.165652 
L 265.844397 251.886239 
L 266.248867 251.762055 
L 267.462277 250.923814 
L 269.484627 250.458125 
L 270.698037 249.713022 
L 271.911447 249.433608 
L 272.315917 249.340471 
L 273.529326 248.409092 
L 275.147206 247.943403 
L 275.551676 247.601897 
L 277.978496 246.732611 
L 278.787436 246.577381 
L 279.596376 246.235875 
L 282.427665 245.149267 
L 283.236605 245.056129 
L 284.450015 244.621486 
L 286.472365 243.596969 
L 288.899185 242.199901 
L 289.708124 241.98258 
L 290.921534 241.361661 
L 291.730474 241.206431 
L 292.539414 240.709696 
L 293.348354 240.492374 
L 294.561764 239.995639 
L 296.179644 239.778317 
L 296.988584 239.343674 
L 297.393053 238.971122 
L 297.797523 238.226019 
L 299.415403 237.76033 
L 301.033283 237.015227 
L 303.460103 235.835481 
L 304.269043 235.431884 
L 305.482452 235.183516 
L 306.695862 234.562597 
L 307.100332 234.500505 
L 309.122682 233.475989 
L 309.931622 232.948207 
L 311.145032 232.69984 
L 313.167381 232.172059 
L 313.571851 231.830553 
L 314.380791 231.55114 
L 316.403141 230.712899 
L 316.807611 230.402439 
L 317.212081 230.24721 
L 318.021021 229.78152 
L 319.638901 229.253739 
L 320.447841 228.725958 
L 320.85231 228.291315 
L 321.25678 228.042947 
L 321.66125 227.949809 
L 322.47019 227.266798 
L 322.87466 227.204706 
L 323.27913 226.521695 
L 323.6836 226.335419 
L 324.08807 225.993914 
L 324.49254 225.931822 
L 325.30148 225.404041 
L 326.11042 225.124627 
L 326.51489 224.814168 
L 326.91936 224.658938 
L 328.53724 223.541284 
L 329.750649 222.920365 
L 330.559589 222.703043 
L 331.368529 222.237354 
L 331.772999 221.523297 
L 332.581939 220.902378 
L 332.986409 220.80924 
L 335.413229 219.598448 
L 336.222169 219.256942 
L 337.031108 218.667069 
L 338.244518 217.518369 
L 339.053458 217.021634 
L 339.457928 216.555944 
L 341.075808 215.407244 
L 341.884748 214.569003 
L 342.693688 214.28959 
L 343.502628 213.730763 
L 344.716037 213.078798 
L 345.120507 213.016706 
L 348.760737 211.122903 
L 349.974147 210.750351 
L 351.187557 210.253616 
L 351.592027 209.91211 
L 353.209906 209.260145 
L 353.614376 209.135962 
L 354.423316 208.60818 
L 355.232256 208.266675 
L 356.041196 207.676802 
L 356.850136 206.031366 
L 357.659076 205.099988 
L 358.872486 204.448023 
L 359.681426 204.106517 
L 360.085895 204.044425 
L 360.894835 203.671874 
L 362.512715 203.113047 
L 363.321655 202.647357 
L 364.130595 202.24376 
L 364.535065 202.119576 
L 366.961885 200.62937 
L 367.366355 200.163681 
L 368.579764 199.449624 
L 368.984234 199.294394 
L 369.793174 198.797659 
L 371.411054 197.897327 
L 371.815524 197.804189 
L 372.219994 197.462683 
L 375.051284 196.500259 
L 375.455754 196.220845 
L 376.264693 195.972478 
L 377.073633 195.630972 
L 377.478103 195.289467 
L 379.095983 194.699593 
L 379.904923 194.10972 
L 380.713863 193.768215 
L 381.522803 193.11625 
L 382.331743 192.867882 
L 382.736213 192.495331 
L 383.140683 192.433239 
L 383.949622 191.81232 
L 385.971972 190.601528 
L 386.780912 190.35316 
L 387.185382 190.104792 
L 387.589852 190.042701 
L 388.803262 189.35969 
L 394.870311 187.43484 
L 396.083721 186.565554 
L 396.488191 186.410324 
L 397.297131 185.944635 
L 397.701601 185.820451 
L 400.12842 184.423383 
L 400.53289 184.330245 
L 401.7463 183.585142 
L 402.95971 183.150499 
L 403.76865 182.871085 
L 405.38653 182.312258 
L 406.19547 182.032845 
L 407.813349 181.691339 
L 408.217819 181.505063 
L 409.026759 181.287742 
L 409.431229 181.101466 
L 409.835699 181.039374 
L 410.240169 180.822052 
L 411.049109 180.666823 
L 412.262519 180.201133 
L 413.475929 180.014858 
L 415.902748 179.549168 
L 417.116158 179.269755 
L 417.520628 179.083479 
L 418.329568 178.928249 
L 419.138508 178.710928 
L 419.947448 178.338376 
L 420.351918 178.183146 
L 420.756388 178.183146 
L 425.205557 176.786079 
L 425.610027 176.568757 
L 426.014497 176.568757 
L 426.823437 176.258297 
L 427.227907 175.823654 
L 429.654727 174.799138 
L 431.272606 174.24031 
L 431.677076 173.991943 
L 432.890486 173.619391 
L 433.699426 173.40207 
L 434.103896 173.122656 
L 434.508366 173.029518 
L 434.912836 172.656967 
L 436.126246 172.408599 
L 436.935186 172.036048 
L 437.339656 171.539313 
L 441.788825 170.545842 
L 442.193295 170.545842 
L 442.597765 170.359566 
L 444.215645 170.049107 
L 444.620115 169.862831 
L 446.237995 169.552372 
L 447.046934 169.210866 
L 447.855874 169.055636 
L 449.878224 168.527855 
L 451.496104 168.000074 
L 451.900574 167.906936 
L 452.305044 167.689614 
L 453.113984 167.472293 
L 453.922924 167.130787 
L 454.731863 166.820328 
L 455.136333 166.540914 
L 455.945273 166.292547 
L 458.776563 165.205938 
L 460.394443 165.019662 
L 463.630202 163.80887 
L 464.034672 163.498411 
L 464.439142 163.405273 
L 464.843612 163.187951 
L 465.248082 163.156905 
L 469.697252 161.51147 
L 471.719601 160.952643 
L 472.528541 160.549045 
L 473.741951 160.269632 
L 475.359831 158.90361 
L 476.977711 158.189553 
L 478.191121 157.661772 
L 479.809 156.978761 
L 480.21347 156.854577 
L 480.61794 156.575163 
L 482.64029 155.892152 
L 486.684989 153.812073 
L 487.493929 153.439522 
L 487.898399 153.129062 
L 488.707339 152.849649 
L 491.134159 151.669903 
L 491.538629 151.576765 
L 492.752039 151.017938 
L 494.369918 150.459111 
L 495.178858 150.117605 
L 495.987798 149.993421 
L 496.392268 149.714008 
L 498.010148 149.403548 
L 498.819088 149.062043 
L 501.245908 147.882296 
L 501.650378 147.820205 
L 502.863787 147.106148 
L 504.077197 146.671504 
L 506.908487 145.460712 
L 507.312957 145.336528 
L 507.717427 145.057115 
L 508.526367 144.963977 
L 508.930837 144.684563 
L 509.739777 144.560379 
L 510.548716 144.156782 
L 510.953186 143.970506 
L 511.762126 143.753185 
L 512.571066 143.504817 
L 513.784476 143.039128 
L 514.997886 142.63553 
L 516.211296 142.356117 
L 517.829175 141.673106 
L 518.638115 141.238462 
L 520.255995 140.400222 
L 521.064935 140.213946 
L 521.469405 139.965578 
L 521.873875 139.872441 
L 523.087285 139.158384 
L 523.896225 138.816878 
L 527.131984 137.668178 
L 527.536454 137.543994 
L 528.345394 137.109351 
L 530.367744 136.395294 
L 532.794564 135.401823 
L 534.412443 134.625675 
L 538.457143 133.011285 
L 539.266083 132.607688 
L 539.670553 132.51455 
L 540.479493 132.20409 
L 540.883963 132.20409 
L 541.692902 131.831539 
L 543.310782 130.465517 
L 543.715252 130.341333 
L 544.119722 130.092965 
L 545.333132 129.75146 
L 545.737602 129.441 
L 546.142072 129.347863 
L 547.355482 128.60276 
L 547.759952 128.323346 
L 548.973362 127.857657 
L 549.377831 127.640335 
L 550.591241 127.360922 
L 552.613591 126.646865 
L 553.422531 126.398497 
L 554.635941 125.746532 
L 555.444881 125.342935 
L 556.253821 125.125613 
L 557.8717 124.38051 
L 558.27617 124.256326 
L 559.08511 123.883775 
L 561.10746 123.200764 
L 562.32087 122.424615 
L 562.72534 122.331477 
L 563.53428 121.92788 
L 564.34322 121.61742 
L 564.74769 121.244869 
L 565.961099 120.779179 
L 566.365569 120.717088 
L 567.983449 119.971985 
L 569.196859 119.599433 
L 569.601329 119.413158 
L 570.005799 119.351066 
L 570.814739 119.00956 
L 572.028149 118.730147 
L 572.837088 118.264457 
L 573.241558 118.109228 
L 573.646028 117.798768 
L 574.859438 117.488308 
L 575.263908 117.239941 
L 576.072848 117.022619 
L 577.286258 116.339608 
L 577.690728 116.308562 
L 578.904138 115.904965 
L 579.713078 115.842873 
L 580.522018 115.532413 
L 582.948837 114.787311 
L 583.757777 114.756265 
L 586.993537 113.669656 
L 587.802477 113.235013 
L 588.206947 112.862462 
L 589.420356 112.117359 
L 589.824826 111.806899 
L 591.038236 111.403302 
L 591.847176 111.18598 
L 594.273996 110.068326 
L 594.678466 110.006234 
L 595.487406 109.602636 
L 597.105285 109.167993 
L 597.914225 108.795442 
L 598.723165 108.484982 
L 602.363395 106.994776 
L 603.172335 106.684317 
L 604.790214 106.032352 
L 605.194684 105.6598 
L 605.599154 105.597709 
L 607.217034 104.945744 
L 608.834914 104.542146 
L 609.239384 104.480054 
L 609.643854 104.293778 
L 610.048324 104.262733 
L 610.857264 103.983319 
L 611.261734 103.952273 
L 612.475143 103.486584 
L 614.093023 103.020894 
L 614.901963 102.399975 
L 616.519843 101.499643 
L 616.924313 101.406505 
L 617.733253 101.096045 
L 620.969012 99.512702 
L 621.373482 99.29538 
L 621.777952 98.922829 
L 623.800302 98.426093 
L 625.013712 97.867266 
L 625.822652 97.649945 
L 626.227122 97.463669 
L 626.631592 97.122163 
L 628.249471 96.68752 
L 628.653941 96.37706 
L 633.912051 94.452211 
L 634.720991 94.296982 
L 636.74334 93.645017 
L 637.95675 93.117235 
L 640.78804 92.247949 
L 641.59698 91.782259 
L 644.428269 90.819835 
L 646.046149 90.292054 
L 647.259559 90.01264 
L 648.472969 89.640089 
L 648.877439 89.546951 
L 649.281909 89.267537 
L 650.090849 89.081262 
L 651.708728 88.615572 
L 652.113198 88.584526 
L 652.922138 88.211975 
L 655.753428 87.497918 
L 657.371308 86.908045 
L 657.775778 86.908045 
L 658.989188 86.628631 
L 659.798127 86.473402 
L 660.607067 86.25608 
L 661.820477 85.604115 
L 663.033887 85.231563 
L 665.865177 84.269139 
L 667.483056 83.461944 
L 668.696466 83.18253 
L 669.505406 82.934163 
L 670.314346 82.530565 
L 670.718816 82.18906 
L 671.527756 81.940692 
L 671.932226 81.692325 
L 672.741166 81.599187 
L 675.572455 80.791992 
L 676.785865 80.543624 
L 677.999275 80.233165 
L 678.808215 80.046889 
L 680.021625 79.42597 
L 685.279734 77.407983 
L 686.088674 77.283799 
L 686.897614 77.12857 
L 687.302084 77.12857 
L 688.515494 76.724972 
L 689.728904 76.352421 
L 693.369133 75.327904 
L 694.178073 75.110583 
L 694.582543 75.017445 
L 694.987013 74.769077 
L 695.795953 74.613847 
L 696.604893 74.52071 
L 697.009363 74.303388 
L 697.413833 74.272342 
L 698.222773 73.744561 
L 699.840652 73.403055 
L 700.649592 73.06155 
L 701.458532 72.782136 
L 702.267472 72.564815 
L 703.076412 72.223309 
L 703.885352 71.943896 
L 705.503232 71.478206 
L 706.312172 71.416114 
L 707.121111 71.136701 
L 707.525581 70.981471 
L 708.334521 70.857287 
L 709.952401 70.14323 
L 710.356871 70.081138 
L 711.165811 69.770679 
L 713.592631 69.367081 
L 714.401571 69.118714 
L 714.80604 69.056622 
L 715.61498 68.715116 
L 716.01945 68.653025 
L 716.42392 68.435703 
L 717.23286 67.752692 
L 721.27756 66.262486 
L 722.0865 66.014119 
L 722.895439 65.796797 
L 723.704379 65.579475 
L 724.108849 65.269016 
L 725.726729 64.554959 
L 727.344609 63.871948 
L 728.153549 63.62358 
L 729.366959 63.157891 
L 730.175899 62.816385 
L 731.793778 61.822915 
L 732.198248 61.729777 
L 733.411658 61.108858 
L 734.220598 60.798398 
L 735.838478 60.239571 
L 736.242948 60.053296 
L 736.647418 59.71179 
L 737.051888 59.618652 
L 737.860828 59.121917 
L 738.265297 59.028779 
L 739.074237 58.656228 
L 739.883177 58.345768 
L 740.692117 57.973217 
L 741.096587 57.942171 
L 743.118937 57.166022 
L 743.927877 57.010792 
L 744.736817 56.420919 
L 745.141287 56.420919 
L 745.950227 56.079414 
L 746.354696 56.017322 
L 746.759166 55.8 
L 747.163636 55.8 
L 747.163636 55.8 
" clip-path="url(#p9e03b98f5a)" style="fill: none; stroke: #1f77b4; stroke-width: 1.5; stroke-linecap: square"/>
   </g>
   <g id="line2d_38">
    <path d="M 138.840834 307.8 
L 142.481063 307.706862 
L 145.716823 307.551632 
L 147.334703 307.551632 
L 147.739172 307.427449 
L 149.761522 307.334311 
L 152.188342 307.054897 
L 154.615162 306.961759 
L 155.424101 306.868621 
L 158.255391 306.744438 
L 161.086681 306.6513 
L 163.109031 306.589208 
L 168.36714 306.49607 
L 170.38949 306.433978 
L 174.029719 306.34084 
L 175.647599 306.309794 
L 179.692298 306.216656 
L 181.310178 306.061427 
L 182.928058 306.030381 
L 185.354878 305.937243 
L 186.972757 305.906197 
L 188.995107 305.844105 
L 190.612987 305.688875 
L 194.253217 305.595737 
L 195.062156 305.533645 
L 196.680036 305.440508 
L 199.106856 305.34737 
L 200.724736 305.254232 
L 208.005195 304.788543 
L 210.836484 304.695405 
L 212.049894 304.571221 
L 214.072244 304.478083 
L 218.116944 304.260761 
L 222.161643 304.198669 
L 223.779523 304.012394 
L 225.801873 303.919256 
L 229.846572 303.515658 
L 232.273392 303.205199 
L 233.891272 303.143107 
L 237.127031 302.708464 
L 239.553851 302.646372 
L 240.767261 302.522188 
L 241.98067 302.42905 
L 253.305829 301.528718 
L 254.114769 301.373488 
L 256.541589 301.28035 
L 263.013108 300.876752 
L 265.844397 300.783615 
L 267.462277 300.597339 
L 269.484627 300.504201 
L 271.911447 300.411063 
L 273.933796 300.317925 
L 275.551676 300.286879 
L 277.574026 300.224787 
L 278.382966 300.100604 
L 284.045545 300.007466 
L 284.854485 299.914328 
L 289.708124 299.82119 
L 293.348354 299.634914 
L 296.179644 299.541777 
L 297.797523 299.355501 
L 300.628813 299.262363 
L 301.437753 299.138179 
L 303.460103 299.076087 
L 307.504802 299.013995 
L 309.122682 298.858766 
L 310.740562 298.82772 
L 311.953972 298.734582 
L 313.571851 298.579352 
L 317.616551 298.36203 
L 321.66125 298.268892 
L 325.30148 298.082617 
L 326.51489 298.051571 
L 327.32383 297.927387 
L 329.346179 297.834249 
L 330.155119 297.772157 
L 330.964059 297.710065 
L 331.772999 297.647973 
L 335.817699 297.554836 
L 344.716037 296.964962 
L 345.524977 296.902871 
L 346.738387 296.809733 
L 349.569677 296.716595 
L 351.592027 296.654503 
L 357.254606 296.561365 
L 358.063546 296.437181 
L 363.726125 296.344043 
L 367.770825 296.126722 
L 368.579764 296.095676 
L 369.388704 296.002538 
L 371.411054 295.9094 
L 373.433404 295.847308 
L 375.455754 295.75417 
L 377.478103 295.692078 
L 381.118333 295.59894 
L 383.545153 295.505803 
L 389.207732 295.412665 
L 393.656901 295.164297 
L 395.274781 295.102205 
L 396.488191 295.009067 
L 402.15077 294.91593 
L 404.57759 294.822792 
L 411.858049 294.729654 
L 413.475929 294.698608 
L 418.329568 294.636516 
L 419.138508 294.574424 
L 424.801087 294.481286 
L 426.418967 294.45024 
L 436.935186 294.357102 
L 439.362005 294.263965 
L 456.349743 294.170827 
L 458.372093 294.108735 
L 468.888312 294.046643 
L 469.697252 293.984551 
L 471.719601 293.922459 
L 472.933011 293.798275 
L 475.359831 293.705137 
L 478.191121 293.580954 
L 481.83135 293.487816 
L 483.8537 293.425724 
L 486.684989 293.332586 
L 489.920749 293.177356 
L 491.943099 293.084218 
L 493.560979 293.053172 
L 500.436968 292.960034 
L 502.863787 292.866897 
L 507.312957 292.773759 
L 510.144246 292.649575 
L 512.975536 292.587483 
L 513.784476 292.525391 
L 523.491755 292.432253 
L 527.536454 292.214932 
L 530.367744 292.121794 
L 534.816913 291.873426 
L 537.648203 291.780288 
L 539.266083 291.749242 
L 542.097372 291.656104 
L 544.119722 291.438783 
L 548.164422 291.345645 
L 548.973362 291.252507 
L 553.018061 291.159369 
L 555.040411 291.097277 
L 559.48958 291.066231 
L 560.29852 290.973094 
L 564.74769 290.879956 
L 565.556629 290.817864 
L 574.454968 290.724726 
L 576.881788 290.631588 
L 582.948837 290.53845 
L 584.566717 290.507404 
L 588.206947 290.445312 
L 589.015886 290.352174 
L 594.273996 290.259037 
L 596.296346 290.196945 
L 603.576805 290.103807 
L 604.790214 290.010669 
L 606.003624 289.917531 
L 607.217034 289.824393 
L 613.284083 289.731255 
L 615.710903 289.638118 
L 626.631592 289.54498 
L 630.271821 289.358704 
L 635.125461 289.296612 
L 635.9344 289.23452 
L 642.00145 289.172428 
L 642.81039 289.110336 
L 647.259559 289.017198 
L 648.877439 288.986153 
L 655.753428 288.893015 
L 656.562368 288.830923 
L 663.842827 288.737785 
L 665.460707 288.706739 
L 669.100936 288.613601 
L 672.336696 288.458371 
L 676.785865 288.365233 
L 679.617155 288.24105 
L 683.257384 288.147912 
L 684.066324 288.08582 
L 692.155723 287.992682 
L 694.178073 287.93059 
L 696.604893 287.837452 
L 699.031712 287.744314 
L 711.165811 287.651177 
L 713.997101 287.526993 
L 720.87309 287.433855 
L 723.299909 287.340717 
L 728.558019 287.247579 
L 730.984838 287.154441 
L 734.220598 287.061303 
L 736.647418 286.968166 
L 747.163636 286.875028 
L 747.163636 286.875028 
" clip-path="url(#p9e03b98f5a)" style="fill: none; stroke: #ff7f0e; stroke-width: 1.5; stroke-linecap: square"/>
   </g>
   <g id="patch_3">
    <path d="M 108 320.4 
L 108 43.2 
" style="fill: none; stroke: #a9a9a9; stroke-width: 0.8; stroke-linejoin: miter; stroke-linecap: square"/>
   </g>
   <g id="patch_4">
    <path d="M 777.6 320.4 
L 777.6 43.2 
" style="fill: none"/>
   </g>
   <g id="patch_5">
    <path d="M 108 320.4 
L 777.6 320.4 
" style="fill: none; stroke: #a9a9a9; stroke-width: 0.8; stroke-linejoin: miter; stroke-linecap: square"/>
   </g>
   <g id="patch_6">
    <path d="M 108 43.2 
L 777.6 43.2 
" style="fill: none"/>
   </g>
   <g id="text_19">
    <!-- get_subscribe history -->
    <g style="fill: #a9a9a9" transform="translate(378.6075 37.2) scale(0.12 -0.12)">
     <defs>
      <path id="DejaVuSans-67" d="M 2906 1791 
Q 2906 2416 2648 2759 
Q 2391 3103 1925 3103 
Q 1463 3103 1205 2759 
Q 947 2416 947 1791 
Q 947 1169 1205 825 
Q 1463 481 1925 481 
Q 2391 481 2648 825 
Q 2906 1169 2906 1791 
z
M 3481 434 
Q 3481 -459 3084 -895 
Q 2688 -1331 1869 -1331 
Q 1566 -1331 1297 -1286 
Q 1028 -1241 775 -1147 
L 775 -588 
Q 1028 -725 1275 -790 
Q 1522 -856 1778 -856 
Q 2344 -856 2625 -561 
Q 2906 -266 2906 331 
L 2906 616 
Q 2728 306 2450 153 
Q 2172 0 1784 0 
Q 1141 0 747 490 
Q 353 981 353 1791 
Q 353 2603 747 3093 
Q 1141 3584 1784 3584 
Q 2172 3584 2450 3431 
Q 2728 3278 2906 2969 
L 2906 3500 
L 3481 3500 
L 3481 434 
z
" transform="scale(0.015625)"/>
      <path id="DejaVuSans-65" d="M 3597 1894 
L 3597 1613 
L 953 1613 
Q 991 1019 1311 708 
Q 1631 397 2203 397 
Q 2534 397 2845 478 
Q 3156 559 3463 722 
L 3463 178 
Q 3153 47 2828 -22 
Q 2503 -91 2169 -91 
Q 1331 -91 842 396 
Q 353 884 353 1716 
Q 353 2575 817 3079 
Q 1281 3584 2069 3584 
Q 2775 3584 3186 3129 
Q 3597 2675 3597 1894 
z
M 3022 2063 
Q 3016 2534 2758 2815 
Q 2500 3097 2075 3097 
Q 1594 3097 1305 2825 
Q 1016 2553 972 2059 
L 3022 2063 
z
" transform="scale(0.015625)"/>
      <path id="DejaVuSans-74" d="M 1172 4494 
L 1172 3500 
L 2356 3500 
L 2356 3053 
L 1172 3053 
L 1172 1153 
Q 1172 725 1289 603 
Q 1406 481 1766 481 
L 2356 481 
L 2356 0 
L 1766 0 
Q 1100 0 847 248 
Q 594 497 594 1153 
L 594 3053 
L 172 3053 
L 172 3500 
L 594 3500 
L 594 4494 
L 1172 4494 
z
" transform="scale(0.015625)"/>
      <path id="DejaVuSans-5f" d="M 3263 -1063 
L 3263 -1509 
L -63 -1509 
L -63 -1063 
L 3263 -1063 
z
" transform="scale(0.015625)"/>
      <path id="DejaVuSans-73" d="M 2834 3397 
L 2834 2853 
Q 2591 2978 2328 3040 
Q 2066 3103 1784 3103 
Q 1356 3103 1142 2972 
Q 928 2841 928 2578 
Q 928 2378 1081 2264 
Q 1234 2150 1697 2047 
L 1894 2003 
Q 2506 1872 2764 1633 
Q 3022 1394 3022 966 
Q 3022 478 2636 193 
Q 2250 -91 1575 -91 
Q 1294 -91 989 -36 
Q 684 19 347 128 
L 347 722 
Q 666 556 975 473 
Q 1284 391 1588 391 
Q 1994 391 2212 530 
Q 2431 669 2431 922 
Q 2431 1156 2273 1281 
Q 2116 1406 1581 1522 
L 1381 1569 
Q 847 1681 609 1914 
Q 372 2147 372 2553 
Q 372 3047 722 3315 
Q 1072 3584 1716 3584 
Q 2034 3584 2315 3537 
Q 2597 3491 2834 3397 
z
" transform="scale(0.015625)"/>
      <path id="DejaVuSans-75" d="M 544 1381 
L 544 3500 
L 1119 3500 
L 1119 1403 
Q 1119 906 1312 657 
Q 1506 409 1894 409 
Q 2359 409 2629 706 
Q 2900 1003 2900 1516 
L 2900 3500 
L 3475 3500 
L 3475 0 
L 2900 0 
L 2900 538 
Q 2691 219 2414 64 
Q 2138 -91 1772 -91 
Q 1169 -91 856 284 
Q 544 659 544 1381 
z
M 1991 3584 
L 1991 3584 
z
" transform="scale(0.015625)"/>
      <path id="DejaVuSans-62" d="M 3116 1747 
Q 3116 2381 2855 2742 
Q 2594 3103 2138 3103 
Q 1681 3103 1420 2742 
Q 1159 2381 1159 1747 
Q 1159 1113 1420 752 
Q 1681 391 2138 391 
Q 2594 391 2855 752 
Q 3116 1113 3116 1747 
z
M 1159 2969 
Q 1341 3281 1617 3432 
Q 1894 3584 2278 3584 
Q 2916 3584 3314 3078 
Q 3713 2572 3713 1747 
Q 3713 922 3314 415 
Q 2916 -91 2278 -91 
Q 1894 -91 1617 61 
Q 1341 213 1159 525 
L 1159 0 
L 581 0 
L 581 4863 
L 1159 4863 
L 1159 2969 
z
" transform="scale(0.015625)"/>
      <path id="DejaVuSans-63" d="M 3122 3366 
L 3122 2828 
Q 2878 2963 2633 3030 
Q 2388 3097 2138 3097 
Q 1578 3097 1268 2742 
Q 959 2388 959 1747 
Q 959 1106 1268 751 
Q 1578 397 2138 397 
Q 2388 397 2633 464 
Q 2878 531 3122 666 
L 3122 134 
Q 2881 22 2623 -34 
Q 2366 -91 2075 -91 
Q 1284 -91 818 406 
Q 353 903 353 1747 
Q 353 2603 823 3093 
Q 1294 3584 2113 3584 
Q 2378 3584 2631 3529 
Q 2884 3475 3122 3366 
z
" transform="scale(0.015625)"/>
      <path id="DejaVuSans-72" d="M 2631 2963 
Q 2534 3019 2420 3045 
Q 2306 3072 2169 3072 
Q 1681 3072 1420 2755 
Q 1159 2438 1159 1844 
L 1159 0 
L 581 0 
L 581 3500 
L 1159 3500 
L 1159 2956 
Q 1341 3275 1631 3429 
Q 1922 3584 2338 3584 
Q 2397 3584 2469 3576 
Q 2541 3569 2628 3553 
L 2631 2963 
z
" transform="scale(0.015625)"/>
      <path id="DejaVuSans-69" d="M 603 3500 
L 1178 3500 
L 1178 0 
L 603 0 
L 603 3500 
z
M 603 4863 
L 1178 4863 
L 1178 4134 
L 603 4134 
L 603 4863 
z
" transform="scale(0.015625)"/>
      <path id="DejaVuSans-20" transform="scale(0.015625)"/>
      <path id="DejaVuSans-68" d="M 3513 2113 
L 3513 0 
L 2938 0 
L 2938 2094 
Q 2938 2591 2744 2837 
Q 2550 3084 2163 3084 
Q 1697 3084 1428 2787 
Q 1159 2491 1159 1978 
L 1159 0 
L 581 0 
L 581 4863 
L 1159 4863 
L 1159 2956 
Q 1366 3272 1645 3428 
Q 1925 3584 2291 3584 
Q 2894 3584 3203 3211 
Q 3513 2838 3513 2113 
z
" transform="scale(0.015625)"/>
      <path id="DejaVuSans-6f" d="M 1959 3097 
Q 1497 3097 1228 2736 
Q 959 2375 959 1747 
Q 959 1119 1226 758 
Q 1494 397 1959 397 
Q 2419 397 2687 759 
Q 2956 1122 2956 1747 
Q 2956 2369 2687 2733 
Q 2419 3097 1959 3097 
z
M 1959 3584 
Q 2709 3584 3137 3096 
Q 3566 2609 3566 1747 
Q 3566 888 3137 398 
Q 2709 -91 1959 -91 
Q 1206 -91 779 398 
Q 353 888 353 1747 
Q 353 2609 779 3096 
Q 1206 3584 1959 3584 
z
" transform="scale(0.015625)"/>
      <path id="DejaVuSans-79" d="M 2059 -325 
Q 1816 -950 1584 -1140 
Q 1353 -1331 966 -1331 
L 506 -1331 
L 506 -850 
L 844 -850 
Q 1081 -850 1212 -737 
Q 1344 -625 1503 -206 
L 1606 56 
L 191 3500 
L 800 3500 
L 1894 763 
L 2988 3500 
L 3597 3500 
L 2059 -325 
z
" transform="scale(0.015625)"/>
     </defs>
     <use xlink:href="#DejaVuSans-67"/>
     <use xlink:href="#DejaVuSans-65" transform="translate(63.476562 0)"/>
     <use xlink:href="#DejaVuSans-74" transform="translate(125 0)"/>
     <use xlink:href="#DejaVuSans-5f" transform="translate(164.208984 0)"/>
     <use xlink:href="#DejaVuSans-73" transform="translate(214.208984 0)"/>
     <use xlink:href="#DejaVuSans-75" transform="translate(266.308594 0)"/>
     <use xlink:href="#DejaVuSans-62" transform="translate(329.6875 0)"/>
     <use xlink:href="#DejaVuSans-73" transform="translate(393.164062 0)"/>
     <use xlink:href="#DejaVuSans-63" transform="translate(445.263672 0)"/>
     <use xlink:href="#DejaVuSans-72" transform="translate(500.244141 0)"/>
     <use xlink:href="#DejaVuSans-69" transform="translate(541.357422 0)"/>
     <use xlink:href="#DejaVuSans-62" transform="translate(569.140625 0)"/>
     <use xlink:href="#DejaVuSans-65" transform="translate(632.617188 0)"/>
     <use xlink:href="#DejaVuSans-20" transform="translate(694.140625 0)"/>
     <use xlink:href="#DejaVuSans-68" transform="translate(725.927734 0)"/>
     <use xlink:href="#DejaVuSans-69" transform="translate(789.306641 0)"/>
     <use xlink:href="#DejaVuSans-73" transform="translate(817.089844 0)"/>
     <use xlink:href="#DejaVuSans-74" transform="translate(869.189453 0)"/>
     <use xlink:href="#DejaVuSans-6f" transform="translate(908.398438 0)"/>
     <use xlink:href="#DejaVuSans-72" transform="translate(969.580078 0)"/>
     <use xlink:href="#DejaVuSans-79" transform="translate(1010.693359 0)"/>
    </g>
   </g>
   <g id="legend_1">
    <g id="line2d_39">
     <path d="M 815.08 328.498438 
L 825.08 328.498438 
L 835.08 328.498438 
" style="fill: none; stroke: #1f77b4; stroke-width: 1.5; stroke-linecap: square"/>
    </g>
    <g id="text_20">
     <!-- star -->
     <g style="fill: #a9a9a9" transform="translate(843.08 331.998438) scale(0.1 -0.1)">
      <defs>
       <path id="DejaVuSans-61" d="M 2194 1759 
Q 1497 1759 1228 1600 
Q 959 1441 959 1056 
Q 959 750 1161 570 
Q 1363 391 1709 391 
Q 2188 391 2477 730 
Q 2766 1069 2766 1631 
L 2766 1759 
L 2194 1759 
z
M 3341 1997 
L 3341 0 
L 2766 0 
L 2766 531 
Q 2569 213 2275 61 
Q 1981 -91 1556 -91 
Q 1019 -91 701 211 
Q 384 513 384 1019 
Q 384 1609 779 1909 
Q 1175 2209 1959 2209 
L 2766 2209 
L 2766 2266 
Q 2766 2663 2505 2880 
Q 2244 3097 1772 3097 
Q 1472 3097 1187 3025 
Q 903 2953 641 2809 
L 641 3341 
Q 956 3463 1253 3523 
Q 1550 3584 1831 3584 
Q 2591 3584 2966 3190 
Q 3341 2797 3341 1997 
z
" transform="scale(0.015625)"/>
      </defs>
      <use xlink:href="#DejaVuSans-73"/>
      <use xlink:href="#DejaVuSans-74" transform="translate(52.099609 0)"/>
      <use xlink:href="#DejaVuSans-61" transform="translate(91.308594 0)"/>
      <use xlink:href="#DejaVuSans-72" transform="translate(152.587891 0)"/>
     </g>
    </g>
    <g id="line2d_40">
     <path d="M 815.08 343.176562 
L 825.08 343.176562 
L 835.08 343.176562 
" style="fill: none; stroke: #ff7f0e; stroke-width: 1.5; stroke-linecap: square"/>
    </g>
    <g id="text_21">
     <!-- fork -->
     <g style="fill: #a9a9a9" transform="translate(843.08 346.676562) scale(0.1 -0.1)">
      <defs>
       <path id="DejaVuSans-66" d="M 2375 4863 
L 2375 4384 
L 1825 4384 
Q 1516 4384 1395 4259 
Q 1275 4134 1275 3809 
L 1275 3500 
L 2222 3500 
L 2222 3053 
L 1275 3053 
L 1275 0 
L 697 0 
L 697 3053 
L 147 3053 
L 147 3500 
L 697 3500 
L 697 3744 
Q 697 4328 969 4595 
Q 1241 4863 1831 4863 
L 2375 4863 
z
" transform="scale(0.015625)"/>
       <path id="DejaVuSans-6b" d="M 581 4863 
L 1159 4863 
L 1159 1991 
L 2875 3500 
L 3609 3500 
L 1753 1863 
L 3688 0 
L 2938 0 
L 1159 1709 
L 1159 0 
L 581 0 
L 581 4863 
z
" transform="scale(0.015625)"/>
      </defs>
      <use xlink:href="#DejaVuSans-66"/>
      <use xlink:href="#DejaVuSans-6f" transform="translate(35.205078 0)"/>
      <use xlink:href="#DejaVuSans-72" transform="translate(96.386719 0)"/>
      <use xlink:href="#DejaVuSans-6b" transform="translate(137.5 0)"/>
     </g>
    </g>
   </g>
  </g>
 </g>
 <defs>
  <clipPath id="p9e03b98f5a">
   <rect x="108" y="43.2" width="669.6" height="277.2"/>
  </clipPath>
 </defs>
</svg>
