<?xml version="1.0" encoding="utf-8" standalone="no"?>
<!DOCTYPE svg PUBLIC "-//W3C//DTD SVG 1.1//EN"
  "http://www.w3.org/Graphics/SVG/1.1/DTD/svg11.dtd">
<svg xmlns:xlink="http://www.w3.org/1999/xlink" width="864pt" height="360pt" viewBox="0 0 864 360" xmlns="http://www.w3.org/2000/svg" version="1.1">
 <metadata>
  <rdf:RDF xmlns:dc="http://purl.org/dc/elements/1.1/" xmlns:cc="http://creativecommons.org/ns#" xmlns:rdf="http://www.w3.org/1999/02/22-rdf-syntax-ns#">
   <cc:Work>
    <dc:type rdf:resource="http://purl.org/dc/dcmitype/StillImage"/>
    <dc:date>2025-09-22T08:17:11.251653</dc:date>
    <dc:format>image/svg+xml</dc:format>
    <dc:creator>
     <cc:Agent>
      <dc:title>Matplotlib v3.10.6, https://matplotlib.org/</dc:title>
     </cc:Agent>
    </dc:creator>
   </cc:Work>
  </rdf:RDF>
 </metadata>
 <defs>
  <style type="text/css">*{stroke-linejoin: round; stroke-linecap: butt}</style>
 </defs>
 <g id="figure_1">
  <g id="patch_1">
   <path d="M 0 360 
L 864 360 
L 864 0 
L 0 0 
L 0 360 
z
" style="fill: none; opacity: 0"/>
  </g>
  <g id="axes_1">
   <g id="patch_2">
    <path d="M 108 320.4 
L 777.6 320.4 
L 777.6 43.2 
L 108 43.2 
L 108 320.4 
z
" style="fill: none; opacity: 0"/>
   </g>
   <g id="matplotlib.axis_1">
    <g id="xtick_1">
     <g id="line2d_1">
      <path d="M 129.231415 320.4 
L 129.231415 43.2 
" clip-path="url(#p096c7a9671)" style="fill: none; stroke-dasharray: 5.12,1.28,0.8,1.28; stroke-dashoffset: 0; stroke: #b0b0b0; stroke-width: 0.8"/>
     </g>
     <g id="line2d_2">
      <defs>
       <path id="mc106fe147d" d="M 0 0 
L 0 3.5 
" style="stroke: #a9a9a9; stroke-width: 0.8"/>
      </defs>
      <g>
       <use xlink:href="#mc106fe147d" x="129.231415" y="320.4" style="fill: #a9a9a9; stroke: #a9a9a9; stroke-width: 0.8"/>
      </g>
     </g>
     <g id="text_1">
      <!-- 2021-07 -->
      <g style="fill: #a9a9a9" transform="translate(108.340008 334.998438) scale(0.1 -0.1)">
       <defs>
        <path id="DejaVuSans-32" d="M 1228 531 
L 3431 531 
L 3431 0 
L 469 0 
L 469 531 
Q 828 903 1448 1529 
Q 2069 2156 2228 2338 
Q 2531 2678 2651 2914 
Q 2772 3150 2772 3378 
Q 2772 3750 2511 3984 
Q 2250 4219 1831 4219 
Q 1534 4219 1204 4116 
Q 875 4013 500 3803 
L 500 4441 
Q 881 4594 1212 4672 
Q 1544 4750 1819 4750 
Q 2544 4750 2975 4387 
Q 3406 4025 3406 3419 
Q 3406 3131 3298 2873 
Q 3191 2616 2906 2266 
Q 2828 2175 2409 1742 
Q 1991 1309 1228 531 
z
" transform="scale(0.015625)"/>
        <path id="DejaVuSans-30" d="M 2034 4250 
Q 1547 4250 1301 3770 
Q 1056 3291 1056 2328 
Q 1056 1369 1301 889 
Q 1547 409 2034 409 
Q 2525 409 2770 889 
Q 3016 1369 3016 2328 
Q 3016 3291 2770 3770 
Q 2525 4250 2034 4250 
z
M 2034 4750 
Q 2819 4750 3233 4129 
Q 3647 3509 3647 2328 
Q 3647 1150 3233 529 
Q 2819 -91 2034 -91 
Q 1250 -91 836 529 
Q 422 1150 422 2328 
Q 422 3509 836 4129 
Q 1250 4750 2034 4750 
z
" transform="scale(0.015625)"/>
        <path id="DejaVuSans-31" d="M 794 531 
L 1825 531 
L 1825 4091 
L 703 3866 
L 703 4441 
L 1819 4666 
L 2450 4666 
L 2450 531 
L 3481 531 
L 3481 0 
L 794 0 
L 794 531 
z
" transform="scale(0.015625)"/>
        <path id="DejaVuSans-2d" d="M 313 2009 
L 1997 2009 
L 1997 1497 
L 313 1497 
L 313 2009 
z
" transform="scale(0.015625)"/>
        <path id="DejaVuSans-37" d="M 525 4666 
L 3525 4666 
L 3525 4397 
L 1831 0 
L 1172 0 
L 2766 4134 
L 525 4134 
L 525 4666 
z
" transform="scale(0.015625)"/>
       </defs>
       <use xlink:href="#DejaVuSans-32"/>
       <use xlink:href="#DejaVuSans-30" transform="translate(63.623047 0)"/>
       <use xlink:href="#DejaVuSans-32" transform="translate(127.246094 0)"/>
       <use xlink:href="#DejaVuSans-31" transform="translate(190.869141 0)"/>
       <use xlink:href="#DejaVuSans-2d" transform="translate(254.492188 0)"/>
       <use xlink:href="#DejaVuSans-30" transform="translate(290.576172 0)"/>
       <use xlink:href="#DejaVuSans-37" transform="translate(354.199219 0)"/>
      </g>
     </g>
    </g>
    <g id="xtick_2">
     <g id="line2d_3">
      <path d="M 202.871006 320.4 
L 202.871006 43.2 
" clip-path="url(#p096c7a9671)" style="fill: none; stroke-dasharray: 5.12,1.28,0.8,1.28; stroke-dashoffset: 0; stroke: #b0b0b0; stroke-width: 0.8"/>
     </g>
     <g id="line2d_4">
      <g>
       <use xlink:href="#mc106fe147d" x="202.871006" y="320.4" style="fill: #a9a9a9; stroke: #a9a9a9; stroke-width: 0.8"/>
      </g>
     </g>
     <g id="text_2">
      <!-- 2022-01 -->
      <g style="fill: #a9a9a9" transform="translate(181.9796 334.998438) scale(0.1 -0.1)">
       <use xlink:href="#DejaVuSans-32"/>
       <use xlink:href="#DejaVuSans-30" transform="translate(63.623047 0)"/>
       <use xlink:href="#DejaVuSans-32" transform="translate(127.246094 0)"/>
       <use xlink:href="#DejaVuSans-32" transform="translate(190.869141 0)"/>
       <use xlink:href="#DejaVuSans-2d" transform="translate(254.492188 0)"/>
       <use xlink:href="#DejaVuSans-30" transform="translate(290.576172 0)"/>
       <use xlink:href="#DejaVuSans-31" transform="translate(354.199219 0)"/>
      </g>
     </g>
    </g>
    <g id="xtick_3">
     <g id="line2d_5">
      <path d="M 275.309952 320.4 
L 275.309952 43.2 
" clip-path="url(#p096c7a9671)" style="fill: none; stroke-dasharray: 5.12,1.28,0.8,1.28; stroke-dashoffset: 0; stroke: #b0b0b0; stroke-width: 0.8"/>
     </g>
     <g id="line2d_6">
      <g>
       <use xlink:href="#mc106fe147d" x="275.309952" y="320.4" style="fill: #a9a9a9; stroke: #a9a9a9; stroke-width: 0.8"/>
      </g>
     </g>
     <g id="text_3">
      <!-- 2022-07 -->
      <g style="fill: #a9a9a9" transform="translate(254.418545 334.998438) scale(0.1 -0.1)">
       <use xlink:href="#DejaVuSans-32"/>
       <use xlink:href="#DejaVuSans-30" transform="translate(63.623047 0)"/>
       <use xlink:href="#DejaVuSans-32" transform="translate(127.246094 0)"/>
       <use xlink:href="#DejaVuSans-32" transform="translate(190.869141 0)"/>
       <use xlink:href="#DejaVuSans-2d" transform="translate(254.492188 0)"/>
       <use xlink:href="#DejaVuSans-30" transform="translate(290.576172 0)"/>
       <use xlink:href="#DejaVuSans-37" transform="translate(354.199219 0)"/>
      </g>
     </g>
    </g>
    <g id="xtick_4">
     <g id="line2d_7">
      <path d="M 348.949543 320.4 
L 348.949543 43.2 
" clip-path="url(#p096c7a9671)" style="fill: none; stroke-dasharray: 5.12,1.28,0.8,1.28; stroke-dashoffset: 0; stroke: #b0b0b0; stroke-width: 0.8"/>
     </g>
     <g id="line2d_8">
      <g>
       <use xlink:href="#mc106fe147d" x="348.949543" y="320.4" style="fill: #a9a9a9; stroke: #a9a9a9; stroke-width: 0.8"/>
      </g>
     </g>
     <g id="text_4">
      <!-- 2023-01 -->
      <g style="fill: #a9a9a9" transform="translate(328.058137 334.998438) scale(0.1 -0.1)">
       <defs>
        <path id="DejaVuSans-33" d="M 2597 2516 
Q 3050 2419 3304 2112 
Q 3559 1806 3559 1356 
Q 3559 666 3084 287 
Q 2609 -91 1734 -91 
Q 1441 -91 1130 -33 
Q 819 25 488 141 
L 488 750 
Q 750 597 1062 519 
Q 1375 441 1716 441 
Q 2309 441 2620 675 
Q 2931 909 2931 1356 
Q 2931 1769 2642 2001 
Q 2353 2234 1838 2234 
L 1294 2234 
L 1294 2753 
L 1863 2753 
Q 2328 2753 2575 2939 
Q 2822 3125 2822 3475 
Q 2822 3834 2567 4026 
Q 2313 4219 1838 4219 
Q 1578 4219 1281 4162 
Q 984 4106 628 3988 
L 628 4550 
Q 988 4650 1302 4700 
Q 1616 4750 1894 4750 
Q 2613 4750 3031 4423 
Q 3450 4097 3450 3541 
Q 3450 3153 3228 2886 
Q 3006 2619 2597 2516 
z
" transform="scale(0.015625)"/>
       </defs>
       <use xlink:href="#DejaVuSans-32"/>
       <use xlink:href="#DejaVuSans-30" transform="translate(63.623047 0)"/>
       <use xlink:href="#DejaVuSans-32" transform="translate(127.246094 0)"/>
       <use xlink:href="#DejaVuSans-33" transform="translate(190.869141 0)"/>
       <use xlink:href="#DejaVuSans-2d" transform="translate(254.492188 0)"/>
       <use xlink:href="#DejaVuSans-30" transform="translate(290.576172 0)"/>
       <use xlink:href="#DejaVuSans-31" transform="translate(354.199219 0)"/>
      </g>
     </g>
    </g>
    <g id="xtick_5">
     <g id="line2d_9">
      <path d="M 421.388488 320.4 
L 421.388488 43.2 
" clip-path="url(#p096c7a9671)" style="fill: none; stroke-dasharray: 5.12,1.28,0.8,1.28; stroke-dashoffset: 0; stroke: #b0b0b0; stroke-width: 0.8"/>
     </g>
     <g id="line2d_10">
      <g>
       <use xlink:href="#mc106fe147d" x="421.388488" y="320.4" style="fill: #a9a9a9; stroke: #a9a9a9; stroke-width: 0.8"/>
      </g>
     </g>
     <g id="text_5">
      <!-- 2023-07 -->
      <g style="fill: #a9a9a9" transform="translate(400.497082 334.998438) scale(0.1 -0.1)">
       <use xlink:href="#DejaVuSans-32"/>
       <use xlink:href="#DejaVuSans-30" transform="translate(63.623047 0)"/>
       <use xlink:href="#DejaVuSans-32" transform="translate(127.246094 0)"/>
       <use xlink:href="#DejaVuSans-33" transform="translate(190.869141 0)"/>
       <use xlink:href="#DejaVuSans-2d" transform="translate(254.492188 0)"/>
       <use xlink:href="#DejaVuSans-30" transform="translate(290.576172 0)"/>
       <use xlink:href="#DejaVuSans-37" transform="translate(354.199219 0)"/>
      </g>
     </g>
    </g>
    <g id="xtick_6">
     <g id="line2d_11">
      <path d="M 495.02808 320.4 
L 495.02808 43.2 
" clip-path="url(#p096c7a9671)" style="fill: none; stroke-dasharray: 5.12,1.28,0.8,1.28; stroke-dashoffset: 0; stroke: #b0b0b0; stroke-width: 0.8"/>
     </g>
     <g id="line2d_12">
      <g>
       <use xlink:href="#mc106fe147d" x="495.02808" y="320.4" style="fill: #a9a9a9; stroke: #a9a9a9; stroke-width: 0.8"/>
      </g>
     </g>
     <g id="text_6">
      <!-- 2024-01 -->
      <g style="fill: #a9a9a9" transform="translate(474.136673 334.998438) scale(0.1 -0.1)">
       <defs>
        <path id="DejaVuSans-34" d="M 2419 4116 
L 825 1625 
L 2419 1625 
L 2419 4116 
z
M 2253 4666 
L 3047 4666 
L 3047 1625 
L 3713 1625 
L 3713 1100 
L 3047 1100 
L 3047 0 
L 2419 0 
L 2419 1100 
L 313 1100 
L 313 1709 
L 2253 4666 
z
" transform="scale(0.015625)"/>
       </defs>
       <use xlink:href="#DejaVuSans-32"/>
       <use xlink:href="#DejaVuSans-30" transform="translate(63.623047 0)"/>
       <use xlink:href="#DejaVuSans-32" transform="translate(127.246094 0)"/>
       <use xlink:href="#DejaVuSans-34" transform="translate(190.869141 0)"/>
       <use xlink:href="#DejaVuSans-2d" transform="translate(254.492188 0)"/>
       <use xlink:href="#DejaVuSans-30" transform="translate(290.576172 0)"/>
       <use xlink:href="#DejaVuSans-31" transform="translate(354.199219 0)"/>
      </g>
     </g>
    </g>
    <g id="xtick_7">
     <g id="line2d_13">
      <path d="M 567.86724 320.4 
L 567.86724 43.2 
" clip-path="url(#p096c7a9671)" style="fill: none; stroke-dasharray: 5.12,1.28,0.8,1.28; stroke-dashoffset: 0; stroke: #b0b0b0; stroke-width: 0.8"/>
     </g>
     <g id="line2d_14">
      <g>
       <use xlink:href="#mc106fe147d" x="567.86724" y="320.4" style="fill: #a9a9a9; stroke: #a9a9a9; stroke-width: 0.8"/>
      </g>
     </g>
     <g id="text_7">
      <!-- 2024-07 -->
      <g style="fill: #a9a9a9" transform="translate(546.975834 334.998438) scale(0.1 -0.1)">
       <use xlink:href="#DejaVuSans-32"/>
       <use xlink:href="#DejaVuSans-30" transform="translate(63.623047 0)"/>
       <use xlink:href="#DejaVuSans-32" transform="translate(127.246094 0)"/>
       <use xlink:href="#DejaVuSans-34" transform="translate(190.869141 0)"/>
       <use xlink:href="#DejaVuSans-2d" transform="translate(254.492188 0)"/>
       <use xlink:href="#DejaVuSans-30" transform="translate(290.576172 0)"/>
       <use xlink:href="#DejaVuSans-37" transform="translate(354.199219 0)"/>
      </g>
     </g>
    </g>
    <g id="xtick_8">
     <g id="line2d_15">
      <path d="M 641.506832 320.4 
L 641.506832 43.2 
" clip-path="url(#p096c7a9671)" style="fill: none; stroke-dasharray: 5.12,1.28,0.8,1.28; stroke-dashoffset: 0; stroke: #b0b0b0; stroke-width: 0.8"/>
     </g>
     <g id="line2d_16">
      <g>
       <use xlink:href="#mc106fe147d" x="641.506832" y="320.4" style="fill: #a9a9a9; stroke: #a9a9a9; stroke-width: 0.8"/>
      </g>
     </g>
     <g id="text_8">
      <!-- 2025-01 -->
      <g style="fill: #a9a9a9" transform="translate(620.615425 334.998438) scale(0.1 -0.1)">
       <defs>
        <path id="DejaVuSans-35" d="M 691 4666 
L 3169 4666 
L 3169 4134 
L 1269 4134 
L 1269 2991 
Q 1406 3038 1543 3061 
Q 1681 3084 1819 3084 
Q 2600 3084 3056 2656 
Q 3513 2228 3513 1497 
Q 3513 744 3044 326 
Q 2575 -91 1722 -91 
Q 1428 -91 1123 -41 
Q 819 9 494 109 
L 494 744 
Q 775 591 1075 516 
Q 1375 441 1709 441 
Q 2250 441 2565 725 
Q 2881 1009 2881 1497 
Q 2881 1984 2565 2268 
Q 2250 2553 1709 2553 
Q 1456 2553 1204 2497 
Q 953 2441 691 2322 
L 691 4666 
z
" transform="scale(0.015625)"/>
       </defs>
       <use xlink:href="#DejaVuSans-32"/>
       <use xlink:href="#DejaVuSans-30" transform="translate(63.623047 0)"/>
       <use xlink:href="#DejaVuSans-32" transform="translate(127.246094 0)"/>
       <use xlink:href="#DejaVuSans-35" transform="translate(190.869141 0)"/>
       <use xlink:href="#DejaVuSans-2d" transform="translate(254.492188 0)"/>
       <use xlink:href="#DejaVuSans-30" transform="translate(290.576172 0)"/>
       <use xlink:href="#DejaVuSans-31" transform="translate(354.199219 0)"/>
      </g>
     </g>
    </g>
    <g id="xtick_9">
     <g id="line2d_17">
      <path d="M 713.945777 320.4 
L 713.945777 43.2 
" clip-path="url(#p096c7a9671)" style="fill: none; stroke-dasharray: 5.12,1.28,0.8,1.28; stroke-dashoffset: 0; stroke: #b0b0b0; stroke-width: 0.8"/>
     </g>
     <g id="line2d_18">
      <g>
       <use xlink:href="#mc106fe147d" x="713.945777" y="320.4" style="fill: #a9a9a9; stroke: #a9a9a9; stroke-width: 0.8"/>
      </g>
     </g>
     <g id="text_9">
      <!-- 2025-07 -->
      <g style="fill: #a9a9a9" transform="translate(693.054371 334.998438) scale(0.1 -0.1)">
       <use xlink:href="#DejaVuSans-32"/>
       <use xlink:href="#DejaVuSans-30" transform="translate(63.623047 0)"/>
       <use xlink:href="#DejaVuSans-32" transform="translate(127.246094 0)"/>
       <use xlink:href="#DejaVuSans-35" transform="translate(190.869141 0)"/>
       <use xlink:href="#DejaVuSans-2d" transform="translate(254.492188 0)"/>
       <use xlink:href="#DejaVuSans-30" transform="translate(290.576172 0)"/>
       <use xlink:href="#DejaVuSans-37" transform="translate(354.199219 0)"/>
      </g>
     </g>
    </g>
   </g>
   <g id="matplotlib.axis_2">
    <g id="ytick_1">
     <g id="line2d_19">
      <path d="M 108 307.83092 
L 777.6 307.83092 
" clip-path="url(#p096c7a9671)" style="fill: none; stroke-dasharray: 5.12,1.28,0.8,1.28; stroke-dashoffset: 0; stroke: #b0b0b0; stroke-width: 0.8"/>
     </g>
     <g id="line2d_20">
      <defs>
       <path id="m6b1d64e2d5" d="M 0 0 
L -3.5 0 
" style="stroke: #a9a9a9; stroke-width: 0.8"/>
      </defs>
      <g>
       <use xlink:href="#m6b1d64e2d5" x="108" y="307.83092" style="fill: #a9a9a9; stroke: #a9a9a9; stroke-width: 0.8"/>
      </g>
     </g>
     <g id="text_10">
      <!-- 0 -->
      <g style="fill: #a9a9a9" transform="translate(94.6375 311.630139) scale(0.1 -0.1)">
       <use xlink:href="#DejaVuSans-30"/>
      </g>
     </g>
    </g>
    <g id="ytick_2">
     <g id="line2d_21">
      <path d="M 108 276.910675 
L 777.6 276.910675 
" clip-path="url(#p096c7a9671)" style="fill: none; stroke-dasharray: 5.12,1.28,0.8,1.28; stroke-dashoffset: 0; stroke: #b0b0b0; stroke-width: 0.8"/>
     </g>
     <g id="line2d_22">
      <g>
       <use xlink:href="#m6b1d64e2d5" x="108" y="276.910675" style="fill: #a9a9a9; stroke: #a9a9a9; stroke-width: 0.8"/>
      </g>
     </g>
     <g id="text_11">
      <!-- 1000 -->
      <g style="fill: #a9a9a9" transform="translate(75.55 280.709894) scale(0.1 -0.1)">
       <use xlink:href="#DejaVuSans-31"/>
       <use xlink:href="#DejaVuSans-30" transform="translate(63.623047 0)"/>
       <use xlink:href="#DejaVuSans-30" transform="translate(127.246094 0)"/>
       <use xlink:href="#DejaVuSans-30" transform="translate(190.869141 0)"/>
      </g>
     </g>
    </g>
    <g id="ytick_3">
     <g id="line2d_23">
      <path d="M 108 245.990429 
L 777.6 245.990429 
" clip-path="url(#p096c7a9671)" style="fill: none; stroke-dasharray: 5.12,1.28,0.8,1.28; stroke-dashoffset: 0; stroke: #b0b0b0; stroke-width: 0.8"/>
     </g>
     <g id="line2d_24">
      <g>
       <use xlink:href="#m6b1d64e2d5" x="108" y="245.990429" style="fill: #a9a9a9; stroke: #a9a9a9; stroke-width: 0.8"/>
      </g>
     </g>
     <g id="text_12">
      <!-- 2000 -->
      <g style="fill: #a9a9a9" transform="translate(75.55 249.789648) scale(0.1 -0.1)">
       <use xlink:href="#DejaVuSans-32"/>
       <use xlink:href="#DejaVuSans-30" transform="translate(63.623047 0)"/>
       <use xlink:href="#DejaVuSans-30" transform="translate(127.246094 0)"/>
       <use xlink:href="#DejaVuSans-30" transform="translate(190.869141 0)"/>
      </g>
     </g>
    </g>
    <g id="ytick_4">
     <g id="line2d_25">
      <path d="M 108 215.070184 
L 777.6 215.070184 
" clip-path="url(#p096c7a9671)" style="fill: none; stroke-dasharray: 5.12,1.28,0.8,1.28; stroke-dashoffset: 0; stroke: #b0b0b0; stroke-width: 0.8"/>
     </g>
     <g id="line2d_26">
      <g>
       <use xlink:href="#m6b1d64e2d5" x="108" y="215.070184" style="fill: #a9a9a9; stroke: #a9a9a9; stroke-width: 0.8"/>
      </g>
     </g>
     <g id="text_13">
      <!-- 3000 -->
      <g style="fill: #a9a9a9" transform="translate(75.55 218.869403) scale(0.1 -0.1)">
       <use xlink:href="#DejaVuSans-33"/>
       <use xlink:href="#DejaVuSans-30" transform="translate(63.623047 0)"/>
       <use xlink:href="#DejaVuSans-30" transform="translate(127.246094 0)"/>
       <use xlink:href="#DejaVuSans-30" transform="translate(190.869141 0)"/>
      </g>
     </g>
    </g>
    <g id="ytick_5">
     <g id="line2d_27">
      <path d="M 108 184.149939 
L 777.6 184.149939 
" clip-path="url(#p096c7a9671)" style="fill: none; stroke-dasharray: 5.12,1.28,0.8,1.28; stroke-dashoffset: 0; stroke: #b0b0b0; stroke-width: 0.8"/>
     </g>
     <g id="line2d_28">
      <g>
       <use xlink:href="#m6b1d64e2d5" x="108" y="184.149939" style="fill: #a9a9a9; stroke: #a9a9a9; stroke-width: 0.8"/>
      </g>
     </g>
     <g id="text_14">
      <!-- 4000 -->
      <g style="fill: #a9a9a9" transform="translate(75.55 187.949157) scale(0.1 -0.1)">
       <use xlink:href="#DejaVuSans-34"/>
       <use xlink:href="#DejaVuSans-30" transform="translate(63.623047 0)"/>
       <use xlink:href="#DejaVuSans-30" transform="translate(127.246094 0)"/>
       <use xlink:href="#DejaVuSans-30" transform="translate(190.869141 0)"/>
      </g>
     </g>
    </g>
    <g id="ytick_6">
     <g id="line2d_29">
      <path d="M 108 153.229693 
L 777.6 153.229693 
" clip-path="url(#p096c7a9671)" style="fill: none; stroke-dasharray: 5.12,1.28,0.8,1.28; stroke-dashoffset: 0; stroke: #b0b0b0; stroke-width: 0.8"/>
     </g>
     <g id="line2d_30">
      <g>
       <use xlink:href="#m6b1d64e2d5" x="108" y="153.229693" style="fill: #a9a9a9; stroke: #a9a9a9; stroke-width: 0.8"/>
      </g>
     </g>
     <g id="text_15">
      <!-- 5000 -->
      <g style="fill: #a9a9a9" transform="translate(75.55 157.028912) scale(0.1 -0.1)">
       <use xlink:href="#DejaVuSans-35"/>
       <use xlink:href="#DejaVuSans-30" transform="translate(63.623047 0)"/>
       <use xlink:href="#DejaVuSans-30" transform="translate(127.246094 0)"/>
       <use xlink:href="#DejaVuSans-30" transform="translate(190.869141 0)"/>
      </g>
     </g>
    </g>
    <g id="ytick_7">
     <g id="line2d_31">
      <path d="M 108 122.309448 
L 777.6 122.309448 
" clip-path="url(#p096c7a9671)" style="fill: none; stroke-dasharray: 5.12,1.28,0.8,1.28; stroke-dashoffset: 0; stroke: #b0b0b0; stroke-width: 0.8"/>
     </g>
     <g id="line2d_32">
      <g>
       <use xlink:href="#m6b1d64e2d5" x="108" y="122.309448" style="fill: #a9a9a9; stroke: #a9a9a9; stroke-width: 0.8"/>
      </g>
     </g>
     <g id="text_16">
      <!-- 6000 -->
      <g style="fill: #a9a9a9" transform="translate(75.55 126.108667) scale(0.1 -0.1)">
       <defs>
        <path id="DejaVuSans-36" d="M 2113 2584 
Q 1688 2584 1439 2293 
Q 1191 2003 1191 1497 
Q 1191 994 1439 701 
Q 1688 409 2113 409 
Q 2538 409 2786 701 
Q 3034 994 3034 1497 
Q 3034 2003 2786 2293 
Q 2538 2584 2113 2584 
z
M 3366 4563 
L 3366 3988 
Q 3128 4100 2886 4159 
Q 2644 4219 2406 4219 
Q 1781 4219 1451 3797 
Q 1122 3375 1075 2522 
Q 1259 2794 1537 2939 
Q 1816 3084 2150 3084 
Q 2853 3084 3261 2657 
Q 3669 2231 3669 1497 
Q 3669 778 3244 343 
Q 2819 -91 2113 -91 
Q 1303 -91 875 529 
Q 447 1150 447 2328 
Q 447 3434 972 4092 
Q 1497 4750 2381 4750 
Q 2619 4750 2861 4703 
Q 3103 4656 3366 4563 
z
" transform="scale(0.015625)"/>
       </defs>
       <use xlink:href="#DejaVuSans-36"/>
       <use xlink:href="#DejaVuSans-30" transform="translate(63.623047 0)"/>
       <use xlink:href="#DejaVuSans-30" transform="translate(127.246094 0)"/>
       <use xlink:href="#DejaVuSans-30" transform="translate(190.869141 0)"/>
      </g>
     </g>
    </g>
    <g id="ytick_8">
     <g id="line2d_33">
      <path d="M 108 91.389202 
L 777.6 91.389202 
" clip-path="url(#p096c7a9671)" style="fill: none; stroke-dasharray: 5.12,1.28,0.8,1.28; stroke-dashoffset: 0; stroke: #b0b0b0; stroke-width: 0.8"/>
     </g>
     <g id="line2d_34">
      <g>
       <use xlink:href="#m6b1d64e2d5" x="108" y="91.389202" style="fill: #a9a9a9; stroke: #a9a9a9; stroke-width: 0.8"/>
      </g>
     </g>
     <g id="text_17">
      <!-- 7000 -->
      <g style="fill: #a9a9a9" transform="translate(75.55 95.188421) scale(0.1 -0.1)">
       <use xlink:href="#DejaVuSans-37"/>
       <use xlink:href="#DejaVuSans-30" transform="translate(63.623047 0)"/>
       <use xlink:href="#DejaVuSans-30" transform="translate(127.246094 0)"/>
       <use xlink:href="#DejaVuSans-30" transform="translate(190.869141 0)"/>
      </g>
     </g>
    </g>
    <g id="ytick_9">
     <g id="line2d_35">
      <path d="M 108 60.468957 
L 777.6 60.468957 
" clip-path="url(#p096c7a9671)" style="fill: none; stroke-dasharray: 5.12,1.28,0.8,1.28; stroke-dashoffset: 0; stroke: #b0b0b0; stroke-width: 0.8"/>
     </g>
     <g id="line2d_36">
      <g>
       <use xlink:href="#m6b1d64e2d5" x="108" y="60.468957" style="fill: #a9a9a9; stroke: #a9a9a9; stroke-width: 0.8"/>
      </g>
     </g>
     <g id="text_18">
      <!-- 8000 -->
      <g style="fill: #a9a9a9" transform="translate(75.55 64.268176) scale(0.1 -0.1)">
       <defs>
        <path id="DejaVuSans-38" d="M 2034 2216 
Q 1584 2216 1326 1975 
Q 1069 1734 1069 1313 
Q 1069 891 1326 650 
Q 1584 409 2034 409 
Q 2484 409 2743 651 
Q 3003 894 3003 1313 
Q 3003 1734 2745 1975 
Q 2488 2216 2034 2216 
z
M 1403 2484 
Q 997 2584 770 2862 
Q 544 3141 544 3541 
Q 544 4100 942 4425 
Q 1341 4750 2034 4750 
Q 2731 4750 3128 4425 
Q 3525 4100 3525 3541 
Q 3525 3141 3298 2862 
Q 3072 2584 2669 2484 
Q 3125 2378 3379 2068 
Q 3634 1759 3634 1313 
Q 3634 634 3220 271 
Q 2806 -91 2034 -91 
Q 1263 -91 848 271 
Q 434 634 434 1313 
Q 434 1759 690 2068 
Q 947 2378 1403 2484 
z
M 1172 3481 
Q 1172 3119 1398 2916 
Q 1625 2713 2034 2713 
Q 2441 2713 2670 2916 
Q 2900 3119 2900 3481 
Q 2900 3844 2670 4047 
Q 2441 4250 2034 4250 
Q 1625 4250 1398 4047 
Q 1172 3844 1172 3481 
z
" transform="scale(0.015625)"/>
       </defs>
       <use xlink:href="#DejaVuSans-38"/>
       <use xlink:href="#DejaVuSans-30" transform="translate(63.623047 0)"/>
       <use xlink:href="#DejaVuSans-30" transform="translate(127.246094 0)"/>
       <use xlink:href="#DejaVuSans-30" transform="translate(190.869141 0)"/>
      </g>
     </g>
    </g>
   </g>
   <g id="line2d_37">
    <path d="M 138.436364 307.73816 
L 140.837655 307.521718 
L 141.23787 307.336196 
L 142.838731 307.119755 
L 144.439591 306.779632 
L 145.240022 306.655951 
L 147.241097 306.470429 
L 148.041528 306.130307 
L 148.441743 305.573742 
L 148.841958 305.29546 
L 149.242173 304.367853 
L 149.642388 304.306012 
L 150.042604 303.96589 
L 150.843034 303.533006 
L 152.443895 302.203436 
L 154.044755 301.368589 
L 155.245401 300.781104 
L 155.645616 300.100859 
L 156.446046 299.482454 
L 156.846261 299.296933 
L 160.848413 298.678528 
L 161.248628 298.493006 
L 164.050134 298.245644 
L 165.650995 297.843681 
L 168.852717 297.379877 
L 169.252932 297.163436 
L 169.653147 297.101595 
L 170.453577 296.823313 
L 173.255083 296.328589 
L 174.055514 296.081227 
L 177.65745 295.462822 
L 178.457881 295.277301 
L 179.258311 295.24638 
L 180.859172 294.844417 
L 181.259387 294.256933 
L 182.460032 293.762209 
L 183.660678 293.422086 
L 184.060893 293.205644 
L 184.861323 293.051043 
L 186.462184 292.556319 
L 187.262614 292.494479 
L 188.063045 292.278037 
L 189.663905 291.845153 
L 190.06412 291.814233 
L 190.864551 291.41227 
L 191.264766 291.350429 
L 191.664981 291.133988 
L 196.067348 290.360982 
L 197.668209 289.866258 
L 198.068424 289.587975 
L 200.0695 288.90773 
L 200.86993 288.320245 
L 202.070576 288.072883 
L 207.273373 286.526871 
L 207.673588 286.465031 
L 209.274449 285.815706 
L 209.674664 285.753865 
L 210.475094 285.413742 
L 211.275524 285.382822 
L 212.47617 285.011779 
L 212.876385 285.011779 
L 213.2766 284.826258 
L 214.077031 284.733497 
L 214.477246 284.578896 
L 216.078107 284.517055 
L 216.878537 284.362454 
L 217.678967 283.929571 
L 218.879613 283.496687 
L 219.680043 283.063804 
L 220.880689 282.53816 
L 222.481549 281.703313 
L 222.881764 281.239509 
L 223.682195 279.940859 
L 224.08241 279.817178 
L 224.482625 279.817178 
L 226.083486 278.920491 
L 226.483701 278.82773 
L 226.883916 278.425767 
L 227.684346 278.085644 
L 228.484777 277.714601 
L 228.884992 277.219877 
L 229.285207 276.539632 
L 229.685422 276.26135 
L 230.085637 275.519264 
L 230.485853 275.05546 
L 232.887144 273.694969 
L 234.488004 272.210798 
L 234.888219 271.25227 
L 235.288435 270.633865 
L 235.68865 270.293742 
L 236.088865 270.108221 
L 239.290586 267.047117 
L 240.091017 266.27411 
L 242.492308 264.697178 
L 242.892523 264.542577 
L 244.493384 263.553129 
L 244.893599 263.367607 
L 246.894675 261.450552 
L 247.695105 261.110429 
L 248.495535 260.522945 
L 248.89575 260.275583 
L 249.295966 260.213742 
L 250.496611 259.502577 
L 250.896826 259.038773 
L 252.897902 257.894724 
L 253.298117 257.740123 
L 254.498763 256.874356 
L 260.50199 254.648098 
L 261.302421 253.875092 
L 262.503066 253.256687 
L 263.303497 252.731043 
L 264.103927 252.483681 
L 264.504142 252.205399 
L 264.904357 252.081718 
L 266.105003 251.246871 
L 268.106079 250.783067 
L 269.306724 250.040982 
L 270.50737 249.762699 
L 270.907585 249.669939 
L 272.10823 248.742331 
L 273.709091 248.278528 
L 274.109306 247.938405 
L 276.510597 247.072638 
L 277.311027 246.918037 
L 278.111458 246.577914 
L 280.912964 245.495706 
L 281.713394 245.402945 
L 282.91404 244.970061 
L 284.915116 243.949693 
L 287.316407 242.558282 
L 288.116837 242.34184 
L 289.317483 241.723436 
L 290.117913 241.568834 
L 290.918343 241.07411 
L 291.718774 240.857669 
L 292.919419 240.362945 
L 294.52028 240.146503 
L 295.32071 239.71362 
L 295.720925 239.342577 
L 296.12114 238.600491 
L 297.722001 238.136687 
L 299.322862 237.394601 
L 301.724153 236.219632 
L 302.524583 235.817669 
L 303.725229 235.570307 
L 304.925874 234.951902 
L 305.326089 234.890061 
L 307.327165 233.869693 
L 308.127595 233.344049 
L 309.328241 233.096687 
L 311.329317 232.571043 
L 311.729532 232.23092 
L 312.529962 231.952638 
L 314.531038 231.117791 
L 314.931253 230.808589 
L 315.331469 230.653988 
L 316.131899 230.190184 
L 317.73276 229.66454 
L 318.53319 229.138896 
L 318.933405 228.706012 
L 319.33362 228.45865 
L 319.733835 228.36589 
L 320.534266 227.685644 
L 320.934481 227.623804 
L 321.334696 226.943558 
L 321.734911 226.758037 
L 322.135126 226.417914 
L 322.535342 226.356074 
L 323.335772 225.830429 
L 324.136202 225.552147 
L 324.536417 225.242945 
L 324.936633 225.088344 
L 326.937708 223.789693 
L 328.138354 223.32589 
L 328.938784 222.954847 
L 329.338999 222.707485 
L 329.739215 221.996319 
L 330.539645 221.377914 
L 330.93986 221.285153 
L 333.341151 220.079264 
L 334.141581 219.739141 
L 334.942012 219.151656 
L 336.142657 218.007607 
L 336.943088 217.512883 
L 337.343303 217.04908 
L 338.944164 215.905031 
L 339.744594 215.070184 
L 340.545024 214.791902 
L 341.345455 214.235337 
L 342.5461 213.586012 
L 342.946315 213.524172 
L 346.548252 211.638037 
L 347.748897 211.266994 
L 348.949543 210.80319 
L 349.349758 210.463067 
L 350.950619 209.813742 
L 351.350834 209.690061 
L 352.151264 209.164417 
L 352.951694 208.824294 
L 353.752125 208.23681 
L 354.552555 206.598037 
L 355.352985 205.670429 
L 356.553631 205.021104 
L 357.354061 204.680982 
L 357.754276 204.619141 
L 358.554707 204.248098 
L 360.155568 203.691534 
L 360.955998 203.22773 
L 361.756428 202.825767 
L 362.156643 202.702086 
L 364.557934 201.217914 
L 364.95815 200.75411 
L 366.158795 200.042945 
L 366.55901 199.888344 
L 367.359441 199.39362 
L 368.960301 198.496933 
L 369.360516 198.404172 
L 369.760732 198.064049 
L 372.562238 197.105521 
L 372.962453 196.827239 
L 373.762883 196.579877 
L 374.563314 196.239755 
L 374.963529 195.899632 
L 376.564389 195.312147 
L 377.36482 194.724663 
L 378.16525 194.38454 
L 378.96568 193.735215 
L 379.766111 193.487853 
L 380.166326 193.11681 
L 380.566541 193.054969 
L 381.366971 192.436564 
L 383.368047 191.230675 
L 384.168478 190.983313 
L 384.568693 190.735951 
L 384.968908 190.67411 
L 386.569769 189.901104 
L 387.770414 189.499141 
L 388.570845 189.37546 
L 388.97106 189.189939 
L 389.371275 189.128098 
L 390.171705 188.757055 
L 390.57192 188.726135 
L 392.172781 188.10773 
L 393.373427 187.241963 
L 393.773642 187.087362 
L 394.574072 186.623558 
L 394.974287 186.499877 
L 397.375578 185.108466 
L 397.775793 185.015706 
L 398.976439 184.27362 
L 400.177084 183.840736 
L 400.977515 183.562454 
L 402.578375 183.00589 
L 403.378806 182.727607 
L 404.979666 182.387485 
L 405.379882 182.201963 
L 406.180312 181.985521 
L 406.580527 181.8 
L 406.980742 181.73816 
L 407.380958 181.521718 
L 408.181388 181.367117 
L 409.382033 180.934233 
L 410.582679 180.748712 
L 412.98397 180.284908 
L 414.184615 180.006626 
L 414.584831 179.821104 
L 415.385261 179.666503 
L 416.185691 179.450061 
L 416.986122 179.079018 
L 417.386337 178.924417 
L 417.786552 178.924417 
L 422.188919 177.533006 
L 422.589134 177.316564 
L 422.989349 177.316564 
L 423.789779 177.007362 
L 424.189995 176.574479 
L 426.591286 175.55411 
L 428.192146 174.997546 
L 428.592361 174.750184 
L 429.793007 174.379141 
L 430.593437 174.162699 
L 430.993653 173.884417 
L 431.393868 173.791656 
L 431.794083 173.420613 
L 432.994728 173.173252 
L 433.795159 172.833129 
L 434.195374 172.338405 
L 438.597741 171.348957 
L 438.997956 171.348957 
L 439.398171 171.163436 
L 440.999032 170.854233 
L 441.399247 170.668712 
L 443.000108 170.359509 
L 443.800538 170.019387 
L 444.600968 169.864785 
L 446.602044 169.339141 
L 447.80269 168.968098 
L 449.803765 168.318773 
L 450.604196 167.97865 
L 451.404626 167.669448 
L 451.804841 167.391166 
L 452.605272 167.143804 
L 455.406778 166.061595 
L 457.007639 165.876074 
L 460.20936 164.670184 
L 460.609575 164.360982 
L 461.00979 164.268221 
L 461.410005 164.051779 
L 461.810221 164.020859 
L 466.212587 162.382086 
L 468.213663 161.825521 
L 469.014094 161.423558 
L 470.214739 161.145276 
L 471.8156 159.784785 
L 473.41646 159.07362 
L 474.617106 158.547975 
L 476.217967 157.86773 
L 476.618182 157.744049 
L 477.018397 157.465767 
L 479.019473 156.785521 
L 483.021625 154.713865 
L 483.822055 154.342822 
L 484.22227 154.03362 
L 485.0227 153.755337 
L 487.423991 152.580368 
L 487.824207 152.487607 
L 489.024852 151.931043 
L 490.625713 151.374479 
L 491.426143 151.034356 
L 492.226573 150.910675 
L 492.626789 150.632393 
L 494.227649 150.32319 
L 495.02808 149.983067 
L 497.429371 148.808098 
L 497.829586 148.746258 
L 499.030231 148.035092 
L 500.230877 147.602209 
L 503.032383 146.396319 
L 503.432598 146.272638 
L 503.832813 145.994356 
L 504.633244 145.901595 
L 505.033459 145.623313 
L 505.833889 145.499632 
L 506.63432 145.097669 
L 507.034535 144.912147 
L 507.834965 144.695706 
L 508.635395 144.448344 
L 509.836041 143.98454 
L 511.036686 143.582577 
L 512.237332 143.304294 
L 513.838193 142.624049 
L 514.638623 142.191166 
L 516.239484 141.356319 
L 517.039914 141.170798 
L 517.440129 140.923436 
L 517.840344 140.830675 
L 519.04099 140.119509 
L 520.241635 139.655706 
L 523.043141 138.666258 
L 523.443357 138.542577 
L 524.243787 138.109693 
L 526.244863 137.398528 
L 528.646154 136.40908 
L 530.247015 135.636074 
L 534.249166 134.028221 
L 535.049597 133.626258 
L 535.449812 133.533497 
L 536.250242 133.224294 
L 536.650457 133.224294 
L 537.450888 132.853252 
L 539.051748 131.492761 
L 539.451963 131.36908 
L 539.852179 131.121718 
L 541.052824 130.781595 
L 541.453039 130.472393 
L 541.853254 130.379632 
L 543.0539 129.637546 
L 543.454115 129.359264 
L 544.654761 128.89546 
L 545.054976 128.679018 
L 546.255621 128.400736 
L 548.256697 127.689571 
L 549.057127 127.442209 
L 550.257773 126.792883 
L 551.058203 126.39092 
L 551.858634 126.174479 
L 553.459494 125.432393 
L 553.85971 125.308712 
L 554.66014 124.937669 
L 556.661216 124.257423 
L 557.861861 123.484417 
L 558.262076 123.391656 
L 559.062507 122.989693 
L 559.862937 122.680491 
L 560.263152 122.309448 
L 561.463798 121.845644 
L 561.864013 121.783804 
L 563.464874 121.041718 
L 564.665519 120.670675 
L 565.065734 120.485153 
L 565.465949 120.423313 
L 566.26638 120.08319 
L 567.467025 119.835828 
L 568.267456 119.372025 
L 568.667671 119.217423 
L 569.067886 118.908221 
L 570.268531 118.599018 
L 571.068962 118.289816 
L 571.869392 117.949693 
L 573.470253 117.300368 
L 576.271759 116.558282 
L 577.072189 116.24908 
L 578.67305 115.939877 
L 579.47348 115.785276 
L 580.674126 115.321472 
L 581.874771 115.04319 
L 584.276062 113.620859 
L 585.476708 112.878773 
L 587.877999 112.136687 
L 588.278214 111.827485 
L 591.880151 110.528834 
L 592.680581 110.250552 
L 593.881226 109.724908 
L 597.483163 108.240736 
L 598.283593 107.931534 
L 599.884454 107.282209 
L 600.284669 106.911166 
L 600.684884 106.849325 
L 602.285745 106.2 
L 603.886606 105.798037 
L 604.286821 105.736196 
L 604.687036 105.550675 
L 605.087251 105.519755 
L 605.887682 105.241472 
L 606.287897 105.210552 
L 607.488542 104.746748 
L 609.089403 104.282945 
L 609.889833 103.66454 
L 611.490694 102.767853 
L 611.890909 102.675092 
L 612.691339 102.36589 
L 615.893061 100.788957 
L 616.293276 100.572515 
L 616.693491 100.201472 
L 618.694567 99.706748 
L 619.895212 99.150184 
L 620.695643 98.933742 
L 621.095858 98.748221 
L 621.496073 98.408098 
L 623.497149 97.696933 
L 628.699946 95.779877 
L 629.500377 95.625276 
L 631.501452 94.975951 
L 632.702098 94.450307 
L 635.503604 93.61546 
L 636.304034 93.151656 
L 639.105541 92.193129 
L 640.706401 91.667485 
L 641.907047 91.389202 
L 643.107692 91.01816 
L 643.507907 90.925399 
L 643.908123 90.647117 
L 644.708553 90.461595 
L 646.309414 89.997791 
L 646.709629 89.966871 
L 647.510059 89.595828 
L 650.311565 88.884663 
L 651.912426 88.297178 
L 652.312641 88.297178 
L 653.513287 88.018896 
L 654.313717 87.864294 
L 655.114147 87.647853 
L 656.314793 86.998528 
L 657.515438 86.627485 
L 660.316945 85.668957 
L 661.917805 84.865031 
L 663.118451 84.586748 
L 663.918881 84.339387 
L 664.719311 83.937423 
L 665.119527 83.597301 
L 665.919957 83.349939 
L 666.320172 83.102577 
L 667.120602 83.009816 
L 669.922109 82.20589 
L 671.122754 81.958528 
L 672.3234 81.649325 
L 673.12383 81.463804 
L 674.324476 80.845399 
L 679.527273 78.835583 
L 680.327703 78.711902 
L 681.128133 78.557301 
L 681.528349 78.557301 
L 682.728994 78.186258 
L 683.92964 77.815215 
L 687.531576 76.794847 
L 688.332006 76.578405 
L 688.732222 76.485644 
L 689.132437 76.238282 
L 689.932867 76.083681 
L 690.733297 75.99092 
L 691.133513 75.774479 
L 691.533728 75.743558 
L 692.334158 75.217914 
L 693.935019 74.877791 
L 694.735449 74.537669 
L 695.53588 74.259387 
L 696.33631 74.042945 
L 697.13674 73.702822 
L 697.536955 73.640982 
L 698.337386 73.362699 
L 699.538031 73.022577 
L 700.338462 72.960736 
L 701.138892 72.682454 
L 701.539107 72.527853 
L 702.339537 72.404172 
L 703.940398 71.693006 
L 704.340613 71.631166 
L 705.141044 71.321963 
L 707.542335 70.92 
L 708.342765 70.672638 
L 708.74298 70.610798 
L 709.54341 70.270675 
L 709.943626 70.208834 
L 710.343841 69.992393 
L 711.144271 69.312147 
L 715.146423 67.827975 
L 717.547714 67.17865 
L 717.947929 66.869448 
L 719.54879 66.158282 
L 721.14965 65.478037 
L 721.950081 65.230675 
L 723.150726 64.766871 
L 723.951157 64.426748 
L 725.552017 63.499141 
L 725.952232 63.40638 
L 727.152878 62.787975 
L 727.953308 62.478773 
L 729.954384 61.767607 
L 730.354599 61.427485 
L 730.754814 61.334724 
L 731.555245 60.84 
L 732.75589 60.468957 
L 733.556321 60.159755 
L 734.356751 59.788712 
L 734.756966 59.757791 
L 736.758042 58.984785 
L 737.558472 58.830184 
L 738.358903 58.242699 
L 738.759118 58.242699 
L 740.359978 57.655215 
L 741.960839 57.315092 
L 743.5617 56.634847 
L 743.961915 56.634847 
L 745.162561 56.232883 
L 745.962991 56.109202 
L 746.763421 55.8 
L 747.163636 55.8 
L 747.163636 55.8 
" clip-path="url(#p096c7a9671)" style="fill: none; stroke: #1f77b4; stroke-width: 1.5; stroke-linecap: square"/>
   </g>
   <g id="line2d_38">
    <path d="M 138.836579 307.8 
L 142.438515 307.707239 
L 145.640237 307.552638 
L 147.241097 307.552638 
L 147.641313 307.428957 
L 149.642388 307.336196 
L 152.043679 307.057914 
L 154.44497 306.965153 
L 155.245401 306.872393 
L 158.046907 306.748712 
L 160.848413 306.655951 
L 162.849489 306.59411 
L 168.052286 306.50135 
L 170.053362 306.439509 
L 173.655299 306.346748 
L 175.256159 306.315828 
L 179.258311 306.223067 
L 180.859172 306.068466 
L 182.460032 306.037546 
L 184.861323 305.944785 
L 186.462184 305.913865 
L 188.46326 305.852025 
L 190.06412 305.697423 
L 193.666057 305.604663 
L 194.466487 305.542822 
L 196.067348 305.450061 
L 198.468639 305.357301 
L 200.0695 305.26454 
L 207.273373 304.800736 
L 210.074879 304.707975 
L 211.275524 304.584294 
L 213.2766 304.491534 
L 217.278752 304.275092 
L 221.280904 304.213252 
L 222.881764 304.02773 
L 224.88284 303.934969 
L 228.884992 303.533006 
L 231.286283 303.223804 
L 232.887144 303.161963 
L 236.088865 302.72908 
L 238.490156 302.667239 
L 239.690802 302.543558 
L 240.891447 302.450798 
L 252.097472 301.55411 
L 252.897902 301.399509 
L 255.299193 301.306748 
L 261.702636 300.904785 
L 264.504142 300.812025 
L 266.105003 300.626503 
L 268.106079 300.533742 
L 270.50737 300.440982 
L 272.508445 300.348221 
L 274.109306 300.317301 
L 276.110382 300.25546 
L 276.910812 300.131779 
L 282.513825 300.039018 
L 283.314255 299.946258 
L 288.116837 299.853497 
L 291.718774 299.667975 
L 294.52028 299.575215 
L 296.12114 299.389693 
L 298.922647 299.296933 
L 299.723077 299.173252 
L 301.724153 299.111411 
L 305.726304 299.049571 
L 307.327165 298.894969 
L 308.928026 298.864049 
L 310.128671 298.771288 
L 311.729532 298.616687 
L 315.731684 298.400245 
L 319.733835 298.307485 
L 323.335772 298.121963 
L 324.536417 298.091043 
L 325.336848 297.967362 
L 327.337924 297.874601 
L 328.138354 297.812761 
L 328.938784 297.75092 
L 329.739215 297.68908 
L 333.741366 297.596319 
L 342.5461 297.008834 
L 343.34653 296.946994 
L 344.547176 296.854233 
L 347.348682 296.761472 
L 349.349758 296.699632 
L 354.95277 296.606871 
L 355.753201 296.48319 
L 361.356213 296.390429 
L 365.358365 296.173988 
L 366.158795 296.143067 
L 366.959225 296.050307 
L 368.960301 295.957546 
L 370.961377 295.895706 
L 372.962453 295.802945 
L 374.963529 295.741104 
L 378.565465 295.648344 
L 380.966756 295.555583 
L 386.569769 295.462822 
L 390.972136 295.21546 
L 392.572996 295.15362 
L 393.773642 295.060859 
L 399.376654 294.968098 
L 401.777945 294.875337 
L 408.981818 294.782577 
L 410.582679 294.751656 
L 415.385261 294.689816 
L 416.185691 294.627975 
L 421.788704 294.535215 
L 423.389564 294.504294 
L 433.795159 294.411534 
L 436.19645 294.318773 
L 453.005487 294.226012 
L 455.006563 294.164172 
L 465.412157 294.102331 
L 466.212587 294.040491 
L 468.213663 293.97865 
L 469.414309 293.854969 
L 471.8156 293.762209 
L 474.617106 293.638528 
L 478.219042 293.545767 
L 480.220118 293.483926 
L 483.021625 293.391166 
L 486.223346 293.236564 
L 488.224422 293.143804 
L 489.825282 293.112883 
L 496.62894 293.020123 
L 499.030231 292.927362 
L 503.432598 292.834601 
L 506.234104 292.71092 
L 509.035611 292.64908 
L 509.836041 292.587239 
L 519.441205 292.494479 
L 523.443357 292.278037 
L 526.244863 292.185276 
L 530.64723 291.937914 
L 533.448736 291.845153 
L 535.049597 291.814233 
L 537.851103 291.721472 
L 539.852179 291.505031 
L 543.85433 291.41227 
L 544.654761 291.319509 
L 548.656912 291.226748 
L 550.657988 291.164908 
L 555.060355 291.133988 
L 555.860785 291.041227 
L 560.263152 290.948466 
L 561.063583 290.886626 
L 569.868316 290.793865 
L 572.269607 290.701104 
L 578.272835 290.608344 
L 579.873696 290.577423 
L 583.475632 290.515583 
L 584.276062 290.422822 
L 589.47886 290.330061 
L 591.479935 290.268221 
L 598.683808 290.17546 
L 599.884454 290.082699 
L 601.0851 289.989939 
L 602.285745 289.897178 
L 608.288973 289.804417 
L 610.690264 289.711656 
L 621.496073 289.618896 
L 625.09801 289.433374 
L 629.900592 289.371534 
L 630.701022 289.309693 
L 636.70425 289.247853 
L 637.50468 289.186012 
L 641.907047 289.093252 
L 643.507907 289.062331 
L 650.311565 288.969571 
L 651.111996 288.90773 
L 658.315869 288.814969 
L 659.916729 288.784049 
L 663.918881 288.691288 
L 666.720387 288.567607 
L 671.122754 288.474847 
L 673.92426 288.351166 
L 677.526197 288.258405 
L 678.326627 288.196564 
L 686.330931 288.103804 
L 688.332006 288.041963 
L 690.733297 287.949202 
L 693.134588 287.856442 
L 705.141044 287.763681 
L 707.94255 287.64 
L 714.746208 287.547239 
L 717.147499 287.454479 
L 722.350296 287.361718 
L 724.751587 287.268957 
L 727.953308 287.176196 
L 730.354599 287.083436 
L 746.363206 286.990675 
L 747.163636 286.959755 
L 747.163636 286.959755 
" clip-path="url(#p096c7a9671)" style="fill: none; stroke: #ff7f0e; stroke-width: 1.5; stroke-linecap: square"/>
   </g>
   <g id="patch_3">
    <path d="M 108 320.4 
L 108 43.2 
" style="fill: none; stroke: #a9a9a9; stroke-width: 0.8; stroke-linejoin: miter; stroke-linecap: square"/>
   </g>
   <g id="patch_4">
    <path d="M 777.6 320.4 
L 777.6 43.2 
" style="fill: none"/>
   </g>
   <g id="patch_5">
    <path d="M 108 320.4 
L 777.6 320.4 
" style="fill: none; stroke: #a9a9a9; stroke-width: 0.8; stroke-linejoin: miter; stroke-linecap: square"/>
   </g>
   <g id="patch_6">
    <path d="M 108 43.2 
L 777.6 43.2 
" style="fill: none"/>
   </g>
   <g id="text_19">
    <!-- get_subscribe history -->
    <g style="fill: #a9a9a9" transform="translate(378.6075 37.2) scale(0.12 -0.12)">
     <defs>
      <path id="DejaVuSans-67" d="M 2906 1791 
Q 2906 2416 2648 2759 
Q 2391 3103 1925 3103 
Q 1463 3103 1205 2759 
Q 947 2416 947 1791 
Q 947 1169 1205 825 
Q 1463 481 1925 481 
Q 2391 481 2648 825 
Q 2906 1169 2906 1791 
z
M 3481 434 
Q 3481 -459 3084 -895 
Q 2688 -1331 1869 -1331 
Q 1566 -1331 1297 -1286 
Q 1028 -1241 775 -1147 
L 775 -588 
Q 1028 -725 1275 -790 
Q 1522 -856 1778 -856 
Q 2344 -856 2625 -561 
Q 2906 -266 2906 331 
L 2906 616 
Q 2728 306 2450 153 
Q 2172 0 1784 0 
Q 1141 0 747 490 
Q 353 981 353 1791 
Q 353 2603 747 3093 
Q 1141 3584 1784 3584 
Q 2172 3584 2450 3431 
Q 2728 3278 2906 2969 
L 2906 3500 
L 3481 3500 
L 3481 434 
z
" transform="scale(0.015625)"/>
      <path id="DejaVuSans-65" d="M 3597 1894 
L 3597 1613 
L 953 1613 
Q 991 1019 1311 708 
Q 1631 397 2203 397 
Q 2534 397 2845 478 
Q 3156 559 3463 722 
L 3463 178 
Q 3153 47 2828 -22 
Q 2503 -91 2169 -91 
Q 1331 -91 842 396 
Q 353 884 353 1716 
Q 353 2575 817 3079 
Q 1281 3584 2069 3584 
Q 2775 3584 3186 3129 
Q 3597 2675 3597 1894 
z
M 3022 2063 
Q 3016 2534 2758 2815 
Q 2500 3097 2075 3097 
Q 1594 3097 1305 2825 
Q 1016 2553 972 2059 
L 3022 2063 
z
" transform="scale(0.015625)"/>
      <path id="DejaVuSans-74" d="M 1172 4494 
L 1172 3500 
L 2356 3500 
L 2356 3053 
L 1172 3053 
L 1172 1153 
Q 1172 725 1289 603 
Q 1406 481 1766 481 
L 2356 481 
L 2356 0 
L 1766 0 
Q 1100 0 847 248 
Q 594 497 594 1153 
L 594 3053 
L 172 3053 
L 172 3500 
L 594 3500 
L 594 4494 
L 1172 4494 
z
" transform="scale(0.015625)"/>
      <path id="DejaVuSans-5f" d="M 3263 -1063 
L 3263 -1509 
L -63 -1509 
L -63 -1063 
L 3263 -1063 
z
" transform="scale(0.015625)"/>
      <path id="DejaVuSans-73" d="M 2834 3397 
L 2834 2853 
Q 2591 2978 2328 3040 
Q 2066 3103 1784 3103 
Q 1356 3103 1142 2972 
Q 928 2841 928 2578 
Q 928 2378 1081 2264 
Q 1234 2150 1697 2047 
L 1894 2003 
Q 2506 1872 2764 1633 
Q 3022 1394 3022 966 
Q 3022 478 2636 193 
Q 2250 -91 1575 -91 
Q 1294 -91 989 -36 
Q 684 19 347 128 
L 347 722 
Q 666 556 975 473 
Q 1284 391 1588 391 
Q 1994 391 2212 530 
Q 2431 669 2431 922 
Q 2431 1156 2273 1281 
Q 2116 1406 1581 1522 
L 1381 1569 
Q 847 1681 609 1914 
Q 372 2147 372 2553 
Q 372 3047 722 3315 
Q 1072 3584 1716 3584 
Q 2034 3584 2315 3537 
Q 2597 3491 2834 3397 
z
" transform="scale(0.015625)"/>
      <path id="DejaVuSans-75" d="M 544 1381 
L 544 3500 
L 1119 3500 
L 1119 1403 
Q 1119 906 1312 657 
Q 1506 409 1894 409 
Q 2359 409 2629 706 
Q 2900 1003 2900 1516 
L 2900 3500 
L 3475 3500 
L 3475 0 
L 2900 0 
L 2900 538 
Q 2691 219 2414 64 
Q 2138 -91 1772 -91 
Q 1169 -91 856 284 
Q 544 659 544 1381 
z
M 1991 3584 
L 1991 3584 
z
" transform="scale(0.015625)"/>
      <path id="DejaVuSans-62" d="M 3116 1747 
Q 3116 2381 2855 2742 
Q 2594 3103 2138 3103 
Q 1681 3103 1420 2742 
Q 1159 2381 1159 1747 
Q 1159 1113 1420 752 
Q 1681 391 2138 391 
Q 2594 391 2855 752 
Q 3116 1113 3116 1747 
z
M 1159 2969 
Q 1341 3281 1617 3432 
Q 1894 3584 2278 3584 
Q 2916 3584 3314 3078 
Q 3713 2572 3713 1747 
Q 3713 922 3314 415 
Q 2916 -91 2278 -91 
Q 1894 -91 1617 61 
Q 1341 213 1159 525 
L 1159 0 
L 581 0 
L 581 4863 
L 1159 4863 
L 1159 2969 
z
" transform="scale(0.015625)"/>
      <path id="DejaVuSans-63" d="M 3122 3366 
L 3122 2828 
Q 2878 2963 2633 3030 
Q 2388 3097 2138 3097 
Q 1578 3097 1268 2742 
Q 959 2388 959 1747 
Q 959 1106 1268 751 
Q 1578 397 2138 397 
Q 2388 397 2633 464 
Q 2878 531 3122 666 
L 3122 134 
Q 2881 22 2623 -34 
Q 2366 -91 2075 -91 
Q 1284 -91 818 406 
Q 353 903 353 1747 
Q 353 2603 823 3093 
Q 1294 3584 2113 3584 
Q 2378 3584 2631 3529 
Q 2884 3475 3122 3366 
z
" transform="scale(0.015625)"/>
      <path id="DejaVuSans-72" d="M 2631 2963 
Q 2534 3019 2420 3045 
Q 2306 3072 2169 3072 
Q 1681 3072 1420 2755 
Q 1159 2438 1159 1844 
L 1159 0 
L 581 0 
L 581 3500 
L 1159 3500 
L 1159 2956 
Q 1341 3275 1631 3429 
Q 1922 3584 2338 3584 
Q 2397 3584 2469 3576 
Q 2541 3569 2628 3553 
L 2631 2963 
z
" transform="scale(0.015625)"/>
      <path id="DejaVuSans-69" d="M 603 3500 
L 1178 3500 
L 1178 0 
L 603 0 
L 603 3500 
z
M 603 4863 
L 1178 4863 
L 1178 4134 
L 603 4134 
L 603 4863 
z
" transform="scale(0.015625)"/>
      <path id="DejaVuSans-20" transform="scale(0.015625)"/>
      <path id="DejaVuSans-68" d="M 3513 2113 
L 3513 0 
L 2938 0 
L 2938 2094 
Q 2938 2591 2744 2837 
Q 2550 3084 2163 3084 
Q 1697 3084 1428 2787 
Q 1159 2491 1159 1978 
L 1159 0 
L 581 0 
L 581 4863 
L 1159 4863 
L 1159 2956 
Q 1366 3272 1645 3428 
Q 1925 3584 2291 3584 
Q 2894 3584 3203 3211 
Q 3513 2838 3513 2113 
z
" transform="scale(0.015625)"/>
      <path id="DejaVuSans-6f" d="M 1959 3097 
Q 1497 3097 1228 2736 
Q 959 2375 959 1747 
Q 959 1119 1226 758 
Q 1494 397 1959 397 
Q 2419 397 2687 759 
Q 2956 1122 2956 1747 
Q 2956 2369 2687 2733 
Q 2419 3097 1959 3097 
z
M 1959 3584 
Q 2709 3584 3137 3096 
Q 3566 2609 3566 1747 
Q 3566 888 3137 398 
Q 2709 -91 1959 -91 
Q 1206 -91 779 398 
Q 353 888 353 1747 
Q 353 2609 779 3096 
Q 1206 3584 1959 3584 
z
" transform="scale(0.015625)"/>
      <path id="DejaVuSans-79" d="M 2059 -325 
Q 1816 -950 1584 -1140 
Q 1353 -1331 966 -1331 
L 506 -1331 
L 506 -850 
L 844 -850 
Q 1081 -850 1212 -737 
Q 1344 -625 1503 -206 
L 1606 56 
L 191 3500 
L 800 3500 
L 1894 763 
L 2988 3500 
L 3597 3500 
L 2059 -325 
z
" transform="scale(0.015625)"/>
     </defs>
     <use xlink:href="#DejaVuSans-67"/>
     <use xlink:href="#DejaVuSans-65" transform="translate(63.476562 0)"/>
     <use xlink:href="#DejaVuSans-74" transform="translate(125 0)"/>
     <use xlink:href="#DejaVuSans-5f" transform="translate(164.208984 0)"/>
     <use xlink:href="#DejaVuSans-73" transform="translate(214.208984 0)"/>
     <use xlink:href="#DejaVuSans-75" transform="translate(266.308594 0)"/>
     <use xlink:href="#DejaVuSans-62" transform="translate(329.6875 0)"/>
     <use xlink:href="#DejaVuSans-73" transform="translate(393.164062 0)"/>
     <use xlink:href="#DejaVuSans-63" transform="translate(445.263672 0)"/>
     <use xlink:href="#DejaVuSans-72" transform="translate(500.244141 0)"/>
     <use xlink:href="#DejaVuSans-69" transform="translate(541.357422 0)"/>
     <use xlink:href="#DejaVuSans-62" transform="translate(569.140625 0)"/>
     <use xlink:href="#DejaVuSans-65" transform="translate(632.617188 0)"/>
     <use xlink:href="#DejaVuSans-20" transform="translate(694.140625 0)"/>
     <use xlink:href="#DejaVuSans-68" transform="translate(725.927734 0)"/>
     <use xlink:href="#DejaVuSans-69" transform="translate(789.306641 0)"/>
     <use xlink:href="#DejaVuSans-73" transform="translate(817.089844 0)"/>
     <use xlink:href="#DejaVuSans-74" transform="translate(869.189453 0)"/>
     <use xlink:href="#DejaVuSans-6f" transform="translate(908.398438 0)"/>
     <use xlink:href="#DejaVuSans-72" transform="translate(969.580078 0)"/>
     <use xlink:href="#DejaVuSans-79" transform="translate(1010.693359 0)"/>
    </g>
   </g>
   <g id="legend_1">
    <g id="line2d_39">
     <path d="M 815.08 328.498438 
L 825.08 328.498438 
L 835.08 328.498438 
" style="fill: none; stroke: #1f77b4; stroke-width: 1.5; stroke-linecap: square"/>
    </g>
    <g id="text_20">
     <!-- star -->
     <g style="fill: #a9a9a9" transform="translate(843.08 331.998438) scale(0.1 -0.1)">
      <defs>
       <path id="DejaVuSans-61" d="M 2194 1759 
Q 1497 1759 1228 1600 
Q 959 1441 959 1056 
Q 959 750 1161 570 
Q 1363 391 1709 391 
Q 2188 391 2477 730 
Q 2766 1069 2766 1631 
L 2766 1759 
L 2194 1759 
z
M 3341 1997 
L 3341 0 
L 2766 0 
L 2766 531 
Q 2569 213 2275 61 
Q 1981 -91 1556 -91 
Q 1019 -91 701 211 
Q 384 513 384 1019 
Q 384 1609 779 1909 
Q 1175 2209 1959 2209 
L 2766 2209 
L 2766 2266 
Q 2766 2663 2505 2880 
Q 2244 3097 1772 3097 
Q 1472 3097 1187 3025 
Q 903 2953 641 2809 
L 641 3341 
Q 956 3463 1253 3523 
Q 1550 3584 1831 3584 
Q 2591 3584 2966 3190 
Q 3341 2797 3341 1997 
z
" transform="scale(0.015625)"/>
      </defs>
      <use xlink:href="#DejaVuSans-73"/>
      <use xlink:href="#DejaVuSans-74" transform="translate(52.099609 0)"/>
      <use xlink:href="#DejaVuSans-61" transform="translate(91.308594 0)"/>
      <use xlink:href="#DejaVuSans-72" transform="translate(152.587891 0)"/>
     </g>
    </g>
    <g id="line2d_40">
     <path d="M 815.08 343.176562 
L 825.08 343.176562 
L 835.08 343.176562 
" style="fill: none; stroke: #ff7f0e; stroke-width: 1.5; stroke-linecap: square"/>
    </g>
    <g id="text_21">
     <!-- fork -->
     <g style="fill: #a9a9a9" transform="translate(843.08 346.676562) scale(0.1 -0.1)">
      <defs>
       <path id="DejaVuSans-66" d="M 2375 4863 
L 2375 4384 
L 1825 4384 
Q 1516 4384 1395 4259 
Q 1275 4134 1275 3809 
L 1275 3500 
L 2222 3500 
L 2222 3053 
L 1275 3053 
L 1275 0 
L 697 0 
L 697 3053 
L 147 3053 
L 147 3500 
L 697 3500 
L 697 3744 
Q 697 4328 969 4595 
Q 1241 4863 1831 4863 
L 2375 4863 
z
" transform="scale(0.015625)"/>
       <path id="DejaVuSans-6b" d="M 581 4863 
L 1159 4863 
L 1159 1991 
L 2875 3500 
L 3609 3500 
L 1753 1863 
L 3688 0 
L 2938 0 
L 1159 1709 
L 1159 0 
L 581 0 
L 581 4863 
z
" transform="scale(0.015625)"/>
      </defs>
      <use xlink:href="#DejaVuSans-66"/>
      <use xlink:href="#DejaVuSans-6f" transform="translate(35.205078 0)"/>
      <use xlink:href="#DejaVuSans-72" transform="translate(96.386719 0)"/>
      <use xlink:href="#DejaVuSans-6b" transform="translate(137.5 0)"/>
     </g>
    </g>
   </g>
  </g>
 </g>
 <defs>
  <clipPath id="p096c7a9671">
   <rect x="108" y="43.2" width="669.6" height="277.2"/>
  </clipPath>
 </defs>
</svg>
