<?xml version="1.0" encoding="utf-8" standalone="no"?>
<!DOCTYPE svg PUBLIC "-//W3C//DTD SVG 1.1//EN"
  "http://www.w3.org/Graphics/SVG/1.1/DTD/svg11.dtd">
<svg xmlns:xlink="http://www.w3.org/1999/xlink" width="864pt" height="360pt" viewBox="0 0 864 360" xmlns="http://www.w3.org/2000/svg" version="1.1">
 <metadata>
  <rdf:RDF xmlns:dc="http://purl.org/dc/elements/1.1/" xmlns:cc="http://creativecommons.org/ns#" xmlns:rdf="http://www.w3.org/1999/02/22-rdf-syntax-ns#">
   <cc:Work>
    <dc:type rdf:resource="http://purl.org/dc/dcmitype/StillImage"/>
    <dc:date>2026-04-04T08:23:36.803755</dc:date>
    <dc:format>image/svg+xml</dc:format>
    <dc:creator>
     <cc:Agent>
      <dc:title>Matplotlib v3.10.8, https://matplotlib.org/</dc:title>
     </cc:Agent>
    </dc:creator>
   </cc:Work>
  </rdf:RDF>
 </metadata>
 <defs>
  <style type="text/css">*{stroke-linejoin: round; stroke-linecap: butt}</style>
 </defs>
 <g id="figure_1">
  <g id="patch_1">
   <path d="M 0 360 
L 864 360 
L 864 0 
L 0 0 
L 0 360 
z
" style="fill: none; opacity: 0"/>
  </g>
  <g id="axes_1">
   <g id="patch_2">
    <path d="M 108 320.4 
L 777.6 320.4 
L 777.6 43.2 
L 108 43.2 
L 108 320.4 
z
" style="fill: none; opacity: 0"/>
   </g>
   <g id="matplotlib.axis_1">
    <g id="xtick_1">
     <g id="line2d_1">
      <path d="M 195.582189 320.4 
L 195.582189 43.2 
" clip-path="url(#pb17c75499a)" style="fill: none; stroke-dasharray: 5.12,1.28,0.8,1.28; stroke-dashoffset: 0; stroke: #b0b0b0; stroke-width: 0.8"/>
     </g>
     <g id="line2d_2">
      <defs>
       <path id="m5741f93127" d="M 0 0 
L 0 3.5 
" style="stroke: #a9a9a9; stroke-width: 0.8"/>
      </defs>
      <g>
       <use xlink:href="#m5741f93127" x="195.582189" y="320.4" style="fill: #a9a9a9; stroke: #a9a9a9; stroke-width: 0.8"/>
      </g>
     </g>
     <g id="text_1">
      <!-- 2022 -->
      <g style="fill: #a9a9a9" transform="translate(182.857189 334.998438) scale(0.1 -0.1)">
       <defs>
        <path id="DejaVuSans-32" d="M 1228 531 
L 3431 531 
L 3431 0 
L 469 0 
L 469 531 
Q 828 903 1448 1529 
Q 2069 2156 2228 2338 
Q 2531 2678 2651 2914 
Q 2772 3150 2772 3378 
Q 2772 3750 2511 3984 
Q 2250 4219 1831 4219 
Q 1534 4219 1204 4116 
Q 875 4013 500 3803 
L 500 4441 
Q 881 4594 1212 4672 
Q 1544 4750 1819 4750 
Q 2544 4750 2975 4387 
Q 3406 4025 3406 3419 
Q 3406 3131 3298 2873 
Q 3191 2616 2906 2266 
Q 2828 2175 2409 1742 
Q 1991 1309 1228 531 
z
" transform="scale(0.015625)"/>
        <path id="DejaVuSans-30" d="M 2034 4250 
Q 1547 4250 1301 3770 
Q 1056 3291 1056 2328 
Q 1056 1369 1301 889 
Q 1547 409 2034 409 
Q 2525 409 2770 889 
Q 3016 1369 3016 2328 
Q 3016 3291 2770 3770 
Q 2525 4250 2034 4250 
z
M 2034 4750 
Q 2819 4750 3233 4129 
Q 3647 3509 3647 2328 
Q 3647 1150 3233 529 
Q 2819 -91 2034 -91 
Q 1250 -91 836 529 
Q 422 1150 422 2328 
Q 422 3509 836 4129 
Q 1250 4750 2034 4750 
z
" transform="scale(0.015625)"/>
       </defs>
       <use xlink:href="#DejaVuSans-32"/>
       <use xlink:href="#DejaVuSans-30" transform="translate(63.623047 0)"/>
       <use xlink:href="#DejaVuSans-32" transform="translate(127.246094 0)"/>
       <use xlink:href="#DejaVuSans-32" transform="translate(190.869141 0)"/>
      </g>
     </g>
    </g>
    <g id="xtick_2">
     <g id="line2d_3">
      <path d="M 325.13639 320.4 
L 325.13639 43.2 
" clip-path="url(#pb17c75499a)" style="fill: none; stroke-dasharray: 5.12,1.28,0.8,1.28; stroke-dashoffset: 0; stroke: #b0b0b0; stroke-width: 0.8"/>
     </g>
     <g id="line2d_4">
      <g>
       <use xlink:href="#m5741f93127" x="325.13639" y="320.4" style="fill: #a9a9a9; stroke: #a9a9a9; stroke-width: 0.8"/>
      </g>
     </g>
     <g id="text_2">
      <!-- 2023 -->
      <g style="fill: #a9a9a9" transform="translate(312.41139 334.998438) scale(0.1 -0.1)">
       <defs>
        <path id="DejaVuSans-33" d="M 2597 2516 
Q 3050 2419 3304 2112 
Q 3559 1806 3559 1356 
Q 3559 666 3084 287 
Q 2609 -91 1734 -91 
Q 1441 -91 1130 -33 
Q 819 25 488 141 
L 488 750 
Q 750 597 1062 519 
Q 1375 441 1716 441 
Q 2309 441 2620 675 
Q 2931 909 2931 1356 
Q 2931 1769 2642 2001 
Q 2353 2234 1838 2234 
L 1294 2234 
L 1294 2753 
L 1863 2753 
Q 2328 2753 2575 2939 
Q 2822 3125 2822 3475 
Q 2822 3834 2567 4026 
Q 2313 4219 1838 4219 
Q 1578 4219 1281 4162 
Q 984 4106 628 3988 
L 628 4550 
Q 988 4650 1302 4700 
Q 1616 4750 1894 4750 
Q 2613 4750 3031 4423 
Q 3450 4097 3450 3541 
Q 3450 3153 3228 2886 
Q 3006 2619 2597 2516 
z
" transform="scale(0.015625)"/>
       </defs>
       <use xlink:href="#DejaVuSans-32"/>
       <use xlink:href="#DejaVuSans-30" transform="translate(63.623047 0)"/>
       <use xlink:href="#DejaVuSans-32" transform="translate(127.246094 0)"/>
       <use xlink:href="#DejaVuSans-33" transform="translate(190.869141 0)"/>
      </g>
     </g>
    </g>
    <g id="xtick_3">
     <g id="line2d_5">
      <path d="M 454.690591 320.4 
L 454.690591 43.2 
" clip-path="url(#pb17c75499a)" style="fill: none; stroke-dasharray: 5.12,1.28,0.8,1.28; stroke-dashoffset: 0; stroke: #b0b0b0; stroke-width: 0.8"/>
     </g>
     <g id="line2d_6">
      <g>
       <use xlink:href="#m5741f93127" x="454.690591" y="320.4" style="fill: #a9a9a9; stroke: #a9a9a9; stroke-width: 0.8"/>
      </g>
     </g>
     <g id="text_3">
      <!-- 2024 -->
      <g style="fill: #a9a9a9" transform="translate(441.965591 334.998438) scale(0.1 -0.1)">
       <defs>
        <path id="DejaVuSans-34" d="M 2419 4116 
L 825 1625 
L 2419 1625 
L 2419 4116 
z
M 2253 4666 
L 3047 4666 
L 3047 1625 
L 3713 1625 
L 3713 1100 
L 3047 1100 
L 3047 0 
L 2419 0 
L 2419 1100 
L 313 1100 
L 313 1709 
L 2253 4666 
z
" transform="scale(0.015625)"/>
       </defs>
       <use xlink:href="#DejaVuSans-32"/>
       <use xlink:href="#DejaVuSans-30" transform="translate(63.623047 0)"/>
       <use xlink:href="#DejaVuSans-32" transform="translate(127.246094 0)"/>
       <use xlink:href="#DejaVuSans-34" transform="translate(190.869141 0)"/>
      </g>
     </g>
    </g>
    <g id="xtick_4">
     <g id="line2d_7">
      <path d="M 584.599735 320.4 
L 584.599735 43.2 
" clip-path="url(#pb17c75499a)" style="fill: none; stroke-dasharray: 5.12,1.28,0.8,1.28; stroke-dashoffset: 0; stroke: #b0b0b0; stroke-width: 0.8"/>
     </g>
     <g id="line2d_8">
      <g>
       <use xlink:href="#m5741f93127" x="584.599735" y="320.4" style="fill: #a9a9a9; stroke: #a9a9a9; stroke-width: 0.8"/>
      </g>
     </g>
     <g id="text_4">
      <!-- 2025 -->
      <g style="fill: #a9a9a9" transform="translate(571.874735 334.998438) scale(0.1 -0.1)">
       <defs>
        <path id="DejaVuSans-35" d="M 691 4666 
L 3169 4666 
L 3169 4134 
L 1269 4134 
L 1269 2991 
Q 1406 3038 1543 3061 
Q 1681 3084 1819 3084 
Q 2600 3084 3056 2656 
Q 3513 2228 3513 1497 
Q 3513 744 3044 326 
Q 2575 -91 1722 -91 
Q 1428 -91 1123 -41 
Q 819 9 494 109 
L 494 744 
Q 775 591 1075 516 
Q 1375 441 1709 441 
Q 2250 441 2565 725 
Q 2881 1009 2881 1497 
Q 2881 1984 2565 2268 
Q 2250 2553 1709 2553 
Q 1456 2553 1204 2497 
Q 953 2441 691 2322 
L 691 4666 
z
" transform="scale(0.015625)"/>
       </defs>
       <use xlink:href="#DejaVuSans-32"/>
       <use xlink:href="#DejaVuSans-30" transform="translate(63.623047 0)"/>
       <use xlink:href="#DejaVuSans-32" transform="translate(127.246094 0)"/>
       <use xlink:href="#DejaVuSans-35" transform="translate(190.869141 0)"/>
      </g>
     </g>
    </g>
    <g id="xtick_5">
     <g id="line2d_9">
      <path d="M 714.153936 320.4 
L 714.153936 43.2 
" clip-path="url(#pb17c75499a)" style="fill: none; stroke-dasharray: 5.12,1.28,0.8,1.28; stroke-dashoffset: 0; stroke: #b0b0b0; stroke-width: 0.8"/>
     </g>
     <g id="line2d_10">
      <g>
       <use xlink:href="#m5741f93127" x="714.153936" y="320.4" style="fill: #a9a9a9; stroke: #a9a9a9; stroke-width: 0.8"/>
      </g>
     </g>
     <g id="text_5">
      <!-- 2026 -->
      <g style="fill: #a9a9a9" transform="translate(701.428936 334.998438) scale(0.1 -0.1)">
       <defs>
        <path id="DejaVuSans-36" d="M 2113 2584 
Q 1688 2584 1439 2293 
Q 1191 2003 1191 1497 
Q 1191 994 1439 701 
Q 1688 409 2113 409 
Q 2538 409 2786 701 
Q 3034 994 3034 1497 
Q 3034 2003 2786 2293 
Q 2538 2584 2113 2584 
z
M 3366 4563 
L 3366 3988 
Q 3128 4100 2886 4159 
Q 2644 4219 2406 4219 
Q 1781 4219 1451 3797 
Q 1122 3375 1075 2522 
Q 1259 2794 1537 2939 
Q 1816 3084 2150 3084 
Q 2853 3084 3261 2657 
Q 3669 2231 3669 1497 
Q 3669 778 3244 343 
Q 2819 -91 2113 -91 
Q 1303 -91 875 529 
Q 447 1150 447 2328 
Q 447 3434 972 4092 
Q 1497 4750 2381 4750 
Q 2619 4750 2861 4703 
Q 3103 4656 3366 4563 
z
" transform="scale(0.015625)"/>
       </defs>
       <use xlink:href="#DejaVuSans-32"/>
       <use xlink:href="#DejaVuSans-30" transform="translate(63.623047 0)"/>
       <use xlink:href="#DejaVuSans-32" transform="translate(127.246094 0)"/>
       <use xlink:href="#DejaVuSans-36" transform="translate(190.869141 0)"/>
      </g>
     </g>
    </g>
   </g>
   <g id="matplotlib.axis_2">
    <g id="ytick_1">
     <g id="line2d_11">
      <path d="M 108 307.828601 
L 777.6 307.828601 
" clip-path="url(#pb17c75499a)" style="fill: none; stroke-dasharray: 5.12,1.28,0.8,1.28; stroke-dashoffset: 0; stroke: #b0b0b0; stroke-width: 0.8"/>
     </g>
     <g id="line2d_12">
      <defs>
       <path id="m3a5d897da3" d="M 0 0 
L -3.5 0 
" style="stroke: #a9a9a9; stroke-width: 0.8"/>
      </defs>
      <g>
       <use xlink:href="#m3a5d897da3" x="108" y="307.828601" style="fill: #a9a9a9; stroke: #a9a9a9; stroke-width: 0.8"/>
      </g>
     </g>
     <g id="text_6">
      <!-- 0 -->
      <g style="fill: #a9a9a9" transform="translate(94.6375 311.627819) scale(0.1 -0.1)">
       <use xlink:href="#DejaVuSans-30"/>
      </g>
     </g>
    </g>
    <g id="ytick_2">
     <g id="line2d_13">
      <path d="M 108 279.227988 
L 777.6 279.227988 
" clip-path="url(#pb17c75499a)" style="fill: none; stroke-dasharray: 5.12,1.28,0.8,1.28; stroke-dashoffset: 0; stroke: #b0b0b0; stroke-width: 0.8"/>
     </g>
     <g id="line2d_14">
      <g>
       <use xlink:href="#m3a5d897da3" x="108" y="279.227988" style="fill: #a9a9a9; stroke: #a9a9a9; stroke-width: 0.8"/>
      </g>
     </g>
     <g id="text_7">
      <!-- 1000 -->
      <g style="fill: #a9a9a9" transform="translate(75.55 283.027206) scale(0.1 -0.1)">
       <defs>
        <path id="DejaVuSans-31" d="M 794 531 
L 1825 531 
L 1825 4091 
L 703 3866 
L 703 4441 
L 1819 4666 
L 2450 4666 
L 2450 531 
L 3481 531 
L 3481 0 
L 794 0 
L 794 531 
z
" transform="scale(0.015625)"/>
       </defs>
       <use xlink:href="#DejaVuSans-31"/>
       <use xlink:href="#DejaVuSans-30" transform="translate(63.623047 0)"/>
       <use xlink:href="#DejaVuSans-30" transform="translate(127.246094 0)"/>
       <use xlink:href="#DejaVuSans-30" transform="translate(190.869141 0)"/>
      </g>
     </g>
    </g>
    <g id="ytick_3">
     <g id="line2d_15">
      <path d="M 108 250.627375 
L 777.6 250.627375 
" clip-path="url(#pb17c75499a)" style="fill: none; stroke-dasharray: 5.12,1.28,0.8,1.28; stroke-dashoffset: 0; stroke: #b0b0b0; stroke-width: 0.8"/>
     </g>
     <g id="line2d_16">
      <g>
       <use xlink:href="#m3a5d897da3" x="108" y="250.627375" style="fill: #a9a9a9; stroke: #a9a9a9; stroke-width: 0.8"/>
      </g>
     </g>
     <g id="text_8">
      <!-- 2000 -->
      <g style="fill: #a9a9a9" transform="translate(75.55 254.426594) scale(0.1 -0.1)">
       <use xlink:href="#DejaVuSans-32"/>
       <use xlink:href="#DejaVuSans-30" transform="translate(63.623047 0)"/>
       <use xlink:href="#DejaVuSans-30" transform="translate(127.246094 0)"/>
       <use xlink:href="#DejaVuSans-30" transform="translate(190.869141 0)"/>
      </g>
     </g>
    </g>
    <g id="ytick_4">
     <g id="line2d_17">
      <path d="M 108 222.026762 
L 777.6 222.026762 
" clip-path="url(#pb17c75499a)" style="fill: none; stroke-dasharray: 5.12,1.28,0.8,1.28; stroke-dashoffset: 0; stroke: #b0b0b0; stroke-width: 0.8"/>
     </g>
     <g id="line2d_18">
      <g>
       <use xlink:href="#m3a5d897da3" x="108" y="222.026762" style="fill: #a9a9a9; stroke: #a9a9a9; stroke-width: 0.8"/>
      </g>
     </g>
     <g id="text_9">
      <!-- 3000 -->
      <g style="fill: #a9a9a9" transform="translate(75.55 225.825981) scale(0.1 -0.1)">
       <use xlink:href="#DejaVuSans-33"/>
       <use xlink:href="#DejaVuSans-30" transform="translate(63.623047 0)"/>
       <use xlink:href="#DejaVuSans-30" transform="translate(127.246094 0)"/>
       <use xlink:href="#DejaVuSans-30" transform="translate(190.869141 0)"/>
      </g>
     </g>
    </g>
    <g id="ytick_5">
     <g id="line2d_19">
      <path d="M 108 193.426149 
L 777.6 193.426149 
" clip-path="url(#pb17c75499a)" style="fill: none; stroke-dasharray: 5.12,1.28,0.8,1.28; stroke-dashoffset: 0; stroke: #b0b0b0; stroke-width: 0.8"/>
     </g>
     <g id="line2d_20">
      <g>
       <use xlink:href="#m3a5d897da3" x="108" y="193.426149" style="fill: #a9a9a9; stroke: #a9a9a9; stroke-width: 0.8"/>
      </g>
     </g>
     <g id="text_10">
      <!-- 4000 -->
      <g style="fill: #a9a9a9" transform="translate(75.55 197.225368) scale(0.1 -0.1)">
       <use xlink:href="#DejaVuSans-34"/>
       <use xlink:href="#DejaVuSans-30" transform="translate(63.623047 0)"/>
       <use xlink:href="#DejaVuSans-30" transform="translate(127.246094 0)"/>
       <use xlink:href="#DejaVuSans-30" transform="translate(190.869141 0)"/>
      </g>
     </g>
    </g>
    <g id="ytick_6">
     <g id="line2d_21">
      <path d="M 108 164.825536 
L 777.6 164.825536 
" clip-path="url(#pb17c75499a)" style="fill: none; stroke-dasharray: 5.12,1.28,0.8,1.28; stroke-dashoffset: 0; stroke: #b0b0b0; stroke-width: 0.8"/>
     </g>
     <g id="line2d_22">
      <g>
       <use xlink:href="#m3a5d897da3" x="108" y="164.825536" style="fill: #a9a9a9; stroke: #a9a9a9; stroke-width: 0.8"/>
      </g>
     </g>
     <g id="text_11">
      <!-- 5000 -->
      <g style="fill: #a9a9a9" transform="translate(75.55 168.624755) scale(0.1 -0.1)">
       <use xlink:href="#DejaVuSans-35"/>
       <use xlink:href="#DejaVuSans-30" transform="translate(63.623047 0)"/>
       <use xlink:href="#DejaVuSans-30" transform="translate(127.246094 0)"/>
       <use xlink:href="#DejaVuSans-30" transform="translate(190.869141 0)"/>
      </g>
     </g>
    </g>
    <g id="ytick_7">
     <g id="line2d_23">
      <path d="M 108 136.224923 
L 777.6 136.224923 
" clip-path="url(#pb17c75499a)" style="fill: none; stroke-dasharray: 5.12,1.28,0.8,1.28; stroke-dashoffset: 0; stroke: #b0b0b0; stroke-width: 0.8"/>
     </g>
     <g id="line2d_24">
      <g>
       <use xlink:href="#m3a5d897da3" x="108" y="136.224923" style="fill: #a9a9a9; stroke: #a9a9a9; stroke-width: 0.8"/>
      </g>
     </g>
     <g id="text_12">
      <!-- 6000 -->
      <g style="fill: #a9a9a9" transform="translate(75.55 140.024142) scale(0.1 -0.1)">
       <use xlink:href="#DejaVuSans-36"/>
       <use xlink:href="#DejaVuSans-30" transform="translate(63.623047 0)"/>
       <use xlink:href="#DejaVuSans-30" transform="translate(127.246094 0)"/>
       <use xlink:href="#DejaVuSans-30" transform="translate(190.869141 0)"/>
      </g>
     </g>
    </g>
    <g id="ytick_8">
     <g id="line2d_25">
      <path d="M 108 107.624311 
L 777.6 107.624311 
" clip-path="url(#pb17c75499a)" style="fill: none; stroke-dasharray: 5.12,1.28,0.8,1.28; stroke-dashoffset: 0; stroke: #b0b0b0; stroke-width: 0.8"/>
     </g>
     <g id="line2d_26">
      <g>
       <use xlink:href="#m3a5d897da3" x="108" y="107.624311" style="fill: #a9a9a9; stroke: #a9a9a9; stroke-width: 0.8"/>
      </g>
     </g>
     <g id="text_13">
      <!-- 7000 -->
      <g style="fill: #a9a9a9" transform="translate(75.55 111.423529) scale(0.1 -0.1)">
       <defs>
        <path id="DejaVuSans-37" d="M 525 4666 
L 3525 4666 
L 3525 4397 
L 1831 0 
L 1172 0 
L 2766 4134 
L 525 4134 
L 525 4666 
z
" transform="scale(0.015625)"/>
       </defs>
       <use xlink:href="#DejaVuSans-37"/>
       <use xlink:href="#DejaVuSans-30" transform="translate(63.623047 0)"/>
       <use xlink:href="#DejaVuSans-30" transform="translate(127.246094 0)"/>
       <use xlink:href="#DejaVuSans-30" transform="translate(190.869141 0)"/>
      </g>
     </g>
    </g>
    <g id="ytick_9">
     <g id="line2d_27">
      <path d="M 108 79.023698 
L 777.6 79.023698 
" clip-path="url(#pb17c75499a)" style="fill: none; stroke-dasharray: 5.12,1.28,0.8,1.28; stroke-dashoffset: 0; stroke: #b0b0b0; stroke-width: 0.8"/>
     </g>
     <g id="line2d_28">
      <g>
       <use xlink:href="#m3a5d897da3" x="108" y="79.023698" style="fill: #a9a9a9; stroke: #a9a9a9; stroke-width: 0.8"/>
      </g>
     </g>
     <g id="text_14">
      <!-- 8000 -->
      <g style="fill: #a9a9a9" transform="translate(75.55 82.822916) scale(0.1 -0.1)">
       <defs>
        <path id="DejaVuSans-38" d="M 2034 2216 
Q 1584 2216 1326 1975 
Q 1069 1734 1069 1313 
Q 1069 891 1326 650 
Q 1584 409 2034 409 
Q 2484 409 2743 651 
Q 3003 894 3003 1313 
Q 3003 1734 2745 1975 
Q 2488 2216 2034 2216 
z
M 1403 2484 
Q 997 2584 770 2862 
Q 544 3141 544 3541 
Q 544 4100 942 4425 
Q 1341 4750 2034 4750 
Q 2731 4750 3128 4425 
Q 3525 4100 3525 3541 
Q 3525 3141 3298 2862 
Q 3072 2584 2669 2484 
Q 3125 2378 3379 2068 
Q 3634 1759 3634 1313 
Q 3634 634 3220 271 
Q 2806 -91 2034 -91 
Q 1263 -91 848 271 
Q 434 634 434 1313 
Q 434 1759 690 2068 
Q 947 2378 1403 2484 
z
M 1172 3481 
Q 1172 3119 1398 2916 
Q 1625 2713 2034 2713 
Q 2441 2713 2670 2916 
Q 2900 3119 2900 3481 
Q 2900 3844 2670 4047 
Q 2441 4250 2034 4250 
Q 1625 4250 1398 4047 
Q 1172 3844 1172 3481 
z
" transform="scale(0.015625)"/>
       </defs>
       <use xlink:href="#DejaVuSans-38"/>
       <use xlink:href="#DejaVuSans-30" transform="translate(63.623047 0)"/>
       <use xlink:href="#DejaVuSans-30" transform="translate(127.246094 0)"/>
       <use xlink:href="#DejaVuSans-30" transform="translate(190.869141 0)"/>
      </g>
     </g>
    </g>
    <g id="ytick_10">
     <g id="line2d_29">
      <path d="M 108 50.423085 
L 777.6 50.423085 
" clip-path="url(#pb17c75499a)" style="fill: none; stroke-dasharray: 5.12,1.28,0.8,1.28; stroke-dashoffset: 0; stroke: #b0b0b0; stroke-width: 0.8"/>
     </g>
     <g id="line2d_30">
      <g>
       <use xlink:href="#m3a5d897da3" x="108" y="50.423085" style="fill: #a9a9a9; stroke: #a9a9a9; stroke-width: 0.8"/>
      </g>
     </g>
     <g id="text_15">
      <!-- 9000 -->
      <g style="fill: #a9a9a9" transform="translate(75.55 54.222304) scale(0.1 -0.1)">
       <defs>
        <path id="DejaVuSans-39" d="M 703 97 
L 703 672 
Q 941 559 1184 500 
Q 1428 441 1663 441 
Q 2288 441 2617 861 
Q 2947 1281 2994 2138 
Q 2813 1869 2534 1725 
Q 2256 1581 1919 1581 
Q 1219 1581 811 2004 
Q 403 2428 403 3163 
Q 403 3881 828 4315 
Q 1253 4750 1959 4750 
Q 2769 4750 3195 4129 
Q 3622 3509 3622 2328 
Q 3622 1225 3098 567 
Q 2575 -91 1691 -91 
Q 1453 -91 1209 -44 
Q 966 3 703 97 
z
M 1959 2075 
Q 2384 2075 2632 2365 
Q 2881 2656 2881 3163 
Q 2881 3666 2632 3958 
Q 2384 4250 1959 4250 
Q 1534 4250 1286 3958 
Q 1038 3666 1038 3163 
Q 1038 2656 1286 2365 
Q 1534 2075 1959 2075 
z
" transform="scale(0.015625)"/>
       </defs>
       <use xlink:href="#DejaVuSans-39"/>
       <use xlink:href="#DejaVuSans-30" transform="translate(63.623047 0)"/>
       <use xlink:href="#DejaVuSans-30" transform="translate(127.246094 0)"/>
       <use xlink:href="#DejaVuSans-30" transform="translate(190.869141 0)"/>
      </g>
     </g>
    </g>
   </g>
   <g id="line2d_31">
    <path d="M 138.436364 307.742799 
L 140.566022 307.542594 
L 140.920965 307.370991 
L 142.340737 307.170787 
L 143.760509 306.85618 
L 144.470395 306.741777 
L 146.24511 306.570174 
L 146.954996 306.284168 
L 147.309939 305.769356 
L 147.664882 305.511951 
L 148.019825 304.653933 
L 148.374768 304.596731 
L 149.084654 304.139122 
L 149.79454 303.59571 
L 151.214312 302.508887 
L 151.569255 302.365884 
L 152.279141 301.908274 
L 153.34397 301.364862 
L 153.698913 300.764249 
L 154.408799 300.192237 
L 155.118685 299.963432 
L 156.183514 299.791828 
L 158.313173 299.448621 
L 158.668116 299.277017 
L 161.152717 299.048212 
L 162.572489 298.676404 
L 165.412033 298.247395 
L 165.766976 298.047191 
L 166.121919 297.98999 
L 166.831805 297.732584 
L 169.316406 297.274974 
L 170.026292 297.04617 
L 173.220779 296.474157 
L 173.930665 296.302554 
L 175.350437 296.102349 
L 176.060323 295.873544 
L 176.415266 295.330133 
L 177.480095 294.872523 
L 178.544924 294.557916 
L 178.899867 294.357712 
L 179.609754 294.214709 
L 181.384469 293.757099 
L 182.449298 293.499694 
L 183.86907 293.127886 
L 184.224013 293.099285 
L 184.933899 292.756078 
L 185.288842 292.698876 
L 185.643785 292.498672 
L 190.258044 291.669254 
L 191.677816 291.01144 
L 192.387702 290.811236 
L 193.097588 290.496629 
L 193.807474 289.953218 
L 194.872303 289.724413 
L 202.68105 287.26476 
L 203.035993 287.236159 
L 204.100822 286.892952 
L 204.455765 286.892952 
L 204.810708 286.721348 
L 205.520594 286.635546 
L 205.875537 286.492543 
L 207.650252 286.406742 
L 208.005195 286.32094 
L 208.715081 285.920531 
L 209.77991 285.520123 
L 210.489796 285.119714 
L 211.554625 284.633504 
L 212.974397 283.889888 
L 213.32934 283.489479 
L 214.039226 282.288253 
L 215.104055 281.945046 
L 215.458998 281.65904 
L 216.523827 281.258631 
L 216.87877 280.886823 
L 217.943599 280.429213 
L 218.298542 280.229009 
L 220.4282 277.654954 
L 221.138086 277.311747 
L 222.557858 276.282125 
L 223.267745 275.767314 
L 223.622688 275.223902 
L 223.977631 274.337283 
L 224.332574 273.765271 
L 226.462232 272.020633 
L 227.527061 271.048212 
L 228.236947 270.104392 
L 229.301776 269.303575 
L 230.721548 268.388355 
L 231.431434 267.987947 
L 232.851206 267.18713 
L 234.625921 265.413892 
L 235.335807 265.099285 
L 236.045693 264.584474 
L 236.400636 264.355669 
L 236.755579 264.298468 
L 237.820408 263.669254 
L 238.175351 263.240245 
L 239.950066 262.210623 
L 240.305009 262.06762 
L 241.369838 261.266803 
L 246.693984 259.207559 
L 247.40387 258.492543 
L 248.468699 257.920531 
L 249.178585 257.434321 
L 249.888471 257.205516 
L 250.243414 256.94811 
L 250.598357 256.833708 
L 251.663186 256.061491 
L 253.437901 255.632482 
L 254.857673 254.917467 
L 255.567559 254.717263 
L 255.922502 254.631461 
L 256.987331 253.830644 
L 258.407103 253.401634 
L 258.762046 253.115628 
L 260.891704 252.314811 
L 261.60159 252.171808 
L 262.311476 251.857201 
L 264.796077 250.88478 
L 265.505963 250.798979 
L 266.925735 250.226966 
L 270.830109 248.139122 
L 271.539995 247.795914 
L 272.249881 247.452707 
L 272.959767 247.309704 
L 273.669653 246.852094 
L 274.379539 246.65189 
L 275.444368 246.19428 
L 276.86414 245.994076 
L 277.574026 245.593667 
L 277.928969 245.25046 
L 278.283912 244.564045 
L 279.703684 244.135036 
L 281.123456 243.448621 
L 284.317943 241.932789 
L 285.027829 241.761185 
L 286.092658 241.189173 
L 286.447601 241.131971 
L 288.222316 240.188151 
L 288.932202 239.701941 
L 289.997032 239.473136 
L 293.191519 238.329111 
L 294.611291 237.699898 
L 294.966234 237.413892 
L 295.67612 237.013483 
L 296.386006 236.727477 
L 296.740949 236.641675 
L 298.160721 235.869459 
L 298.515664 235.46905 
L 298.870607 235.240245 
L 299.22555 235.154443 
L 299.935436 234.52523 
L 300.290379 234.468029 
L 300.645322 233.838815 
L 301.000265 233.695812 
L 301.355208 233.381205 
L 301.710151 233.324004 
L 302.420037 232.837794 
L 303.129923 232.580388 
L 303.484866 232.294382 
L 304.194752 231.893973 
L 305.614524 230.978754 
L 307.744182 229.977732 
L 308.099125 229.319918 
L 308.809011 228.747906 
L 309.163954 228.662104 
L 311.293613 227.575281 
L 312.003499 227.260674 
L 312.713385 226.717263 
L 313.423271 225.945046 
L 315.197986 224.543616 
L 315.907872 223.943003 
L 316.262815 223.771399 
L 316.972701 222.999183 
L 318.03753 222.484372 
L 318.747416 222.055363 
L 319.102359 221.94096 
L 319.457302 221.654954 
L 319.812245 221.597753 
L 323.006732 219.881716 
L 323.716618 219.681512 
L 325.13639 219.166701 
L 325.846276 218.68049 
L 327.266048 218.137079 
L 327.975934 217.679469 
L 328.68582 217.393463 
L 329.395706 216.850051 
L 330.105592 215.362819 
L 330.815478 214.504801 
L 331.880307 213.932789 
L 332.590193 213.618182 
L 332.945136 213.560981 
L 333.655023 213.217773 
L 335.429738 212.559959 
L 336.139624 212.073749 
L 337.204453 211.616139 
L 338.979168 210.500715 
L 339.689054 209.8143 
L 340.753883 209.270889 
L 341.108826 208.984883 
L 341.818712 208.613075 
L 343.94837 207.526251 
L 344.658256 207.326047 
L 345.723085 206.98284 
L 347.142857 206.296425 
L 351.04723 204.322983 
L 351.757116 203.72237 
L 352.467002 203.522165 
L 352.821945 203.178958 
L 353.176888 203.121757 
L 353.886774 202.549745 
L 355.66149 201.434321 
L 356.371376 201.205516 
L 356.726319 200.976711 
L 357.081262 200.91951 
L 359.21092 199.975689 
L 363.470236 198.60286 
L 364.535065 197.830644 
L 365.244951 197.430235 
L 366.664723 196.71522 
L 367.729552 195.971604 
L 368.439438 195.8 
L 369.504267 195.113585 
L 372.698754 193.969561 
L 373.40864 193.712155 
L 374.828412 193.397549 
L 375.538298 193.168744 
L 377.313014 192.53953 
L 378.377843 192.196323 
L 379.087729 192.024719 
L 381.217387 191.624311 
L 381.927273 191.481307 
L 382.992102 191.223902 
L 383.347045 191.052298 
L 384.056931 190.909295 
L 384.766817 190.709091 
L 385.476703 190.365884 
L 385.831646 190.22288 
L 386.186589 190.22288 
L 391.510734 188.449642 
L 391.865677 188.049234 
L 393.995335 187.105414 
L 395.415107 186.590603 
L 395.77005 186.361798 
L 396.834879 186.01859 
L 398.254651 185.475179 
L 398.609594 185.160572 
L 399.674424 184.931767 
L 400.38431 184.58856 
L 400.739253 184.13095 
L 404.643626 183.21573 
L 404.998569 183.21573 
L 405.708455 182.986925 
L 408.902942 182.157508 
L 409.612828 181.985904 
L 416.001802 179.840858 
L 416.356745 179.583453 
L 417.776517 179.154443 
L 418.841346 178.696834 
L 419.906175 178.353626 
L 420.616061 178.296425 
L 422.035834 177.867416 
L 422.390777 177.638611 
L 423.100663 177.409806 
L 423.810549 177.1238 
L 424.165492 176.837794 
L 424.520435 176.751992 
L 424.875378 176.551788 
L 425.230321 176.523187 
L 429.489637 174.921553 
L 432.684124 173.86333 
L 434.103896 172.633504 
L 436.588497 171.51808 
L 439.073098 170.402656 
L 439.782984 170.202451 
L 442.977472 168.572217 
L 443.687358 168.143207 
L 446.881845 166.541573 
L 447.236788 166.255567 
L 449.011503 165.569152 
L 451.496104 164.625332 
L 452.20599 164.53953 
L 452.560933 164.282125 
L 453.980705 163.996118 
L 454.690591 163.681512 
L 456.465306 162.794893 
L 461.079565 160.649847 
L 462.144394 160.278039 
L 462.499337 160.020633 
L 463.209223 159.934831 
L 463.564166 159.706027 
L 464.274052 159.591624 
L 468.888312 157.846987 
L 469.953141 157.589581 
L 471.372913 156.988968 
L 472.082799 156.58856 
L 473.502571 155.816343 
L 474.212457 155.64474 
L 474.5674 155.415935 
L 474.922343 155.358733 
L 476.697058 154.443514 
L 481.311317 152.641675 
L 481.66626 152.584474 
L 483.086032 151.869459 
L 483.795918 151.726456 
L 484.505804 151.297446 
L 485.925576 150.582431 
L 492.669494 147.75097 
L 493.37938 147.035955 
L 494.444209 146.492543 
L 495.509038 146.177937 
L 495.863981 145.891931 
L 496.573867 145.634525 
L 497.638696 144.890909 
L 498.348582 144.690705 
L 499.058468 144.290296 
L 500.123297 144.032891 
L 506.867214 141.230031 
L 507.5771 140.915424 
L 509.706759 140.114607 
L 511.481474 139.199387 
L 512.19136 138.970582 
L 512.546303 138.627375 
L 513.611132 138.198366 
L 513.966075 138.141164 
L 515.385847 137.45475 
L 516.450676 137.111542 
L 517.515505 136.711134 
L 518.580334 136.396527 
L 518.935277 136.339326 
L 519.645163 135.938917 
L 520.000106 135.795914 
L 520.355049 135.509908 
L 521.419878 135.223902 
L 522.129764 134.937896 
L 522.83965 134.623289 
L 524.259422 134.022676 
L 526.744023 133.393463 
L 527.453909 133.107457 
L 528.873681 132.82145 
L 529.583567 132.678447 
L 530.648397 132.249438 
L 531.713226 132.020633 
L 533.842884 130.705005 
L 534.907713 130.075792 
L 537.037371 129.389377 
L 537.392314 129.103371 
L 540.231858 128.073749 
L 541.296687 127.730541 
L 542.006573 127.330133 
L 542.716459 127.129928 
L 543.071402 126.929724 
L 543.781288 126.786721 
L 545.556003 125.957303 
L 546.265889 125.671297 
L 547.685661 125.099285 
L 548.040604 124.756078 
L 548.395547 124.698876 
L 549.815319 124.098264 
L 551.235091 123.726456 
L 551.590034 123.697855 
L 551.944977 123.526251 
L 552.654864 123.383248 
L 555.849351 122.382227 
L 556.559237 121.810215 
L 557.979009 120.980797 
L 558.333952 120.894995 
L 558.688895 120.694791 
L 559.043838 120.637589 
L 562.238325 119.035955 
L 562.593268 118.749949 
L 564.367983 118.32094 
L 565.432812 117.834729 
L 566.142698 117.634525 
L 566.497641 117.462921 
L 566.852584 117.148315 
L 569.337185 116.233095 
L 570.402014 115.746885 
L 570.756957 115.718284 
L 571.466843 115.432278 
L 572.886615 114.803064 
L 575.016274 114.259653 
L 576.081103 113.773442 
L 579.27559 112.74382 
L 579.985476 112.343412 
L 588.859051 109.540552 
L 589.213994 109.511951 
L 590.633766 108.939939 
L 592.408481 108.568131 
L 593.828253 108.024719 
L 594.183196 108.024719 
L 595.248025 107.767314 
L 595.957911 107.624311 
L 596.667798 107.424106 
L 597.732627 106.852094 
L 598.797456 106.508887 
L 601.282057 105.650868 
L 602.701829 104.907252 
L 605.18643 104.049234 
L 605.541373 103.734627 
L 606.251259 103.505822 
L 606.606202 103.277017 
L 607.316088 103.191216 
L 609.800689 102.4762 
L 610.865518 102.247395 
L 613.705062 101.217773 
L 618.319321 99.415935 
L 619.029208 99.301532 
L 619.739094 99.158529 
L 620.094037 99.158529 
L 621.158866 98.815322 
L 622.223695 98.472114 
L 625.063239 97.642697 
L 626.483011 97.32809 
L 626.837954 97.099285 
L 627.54784 96.956282 
L 628.967612 96.670276 
L 630.032441 96.155465 
L 631.09727 95.898059 
L 631.807156 95.583453 
L 633.936814 94.811236 
L 634.291757 94.754035 
L 635.001643 94.496629 
L 639.260959 93.381205 
L 641.390618 92.637589 
L 642.100504 92.580388 
L 644.585105 91.893973 
L 645.649934 91.522165 
L 646.35982 90.892952 
L 649.554307 89.634525 
L 650.264193 89.520123 
L 653.103737 88.547702 
L 654.168566 87.947089 
L 654.523509 87.861287 
L 654.878452 87.575281 
L 655.943281 87.260674 
L 661.267426 84.801021 
L 663.042142 84.171808 
L 663.397085 83.857201 
L 663.752028 83.8 
L 664.461914 83.34239 
L 665.526743 83.027783 
L 666.946515 82.427171 
L 667.301458 82.39857 
L 669.076173 81.712155 
L 669.786059 81.569152 
L 670.495945 81.054341 
L 670.850888 81.054341 
L 672.27066 80.53953 
L 673.690432 80.253524 
L 675.110204 79.624311 
L 675.465147 79.624311 
L 677.949748 78.880695 
L 678.659634 78.308682 
L 681.854121 77.136057 
L 683.273893 76.79285 
L 685.758495 76.106435 
L 687.888153 75.362819 
L 689.307925 75.048212 
L 691.792526 74.333197 
L 692.502412 74.190194 
L 695.341956 73.131971 
L 696.051842 72.988968 
L 697.471614 72.731563 
L 698.1815 72.61716 
L 699.601272 72.045148 
L 700.311158 71.844944 
L 701.021044 71.730541 
L 702.440816 71.301532 
L 702.795759 71.301532 
L 703.505645 70.901124 
L 705.28036 70.443514 
L 705.990246 70.186108 
L 706.700133 70.043105 
L 708.829791 69.099285 
L 709.184734 69.042084 
L 709.89462 68.698876 
L 710.604506 68.38427 
L 711.314392 68.098264 
L 712.024278 67.812257 
L 712.379221 67.612053 
L 712.734164 67.554852 
L 713.44405 67.240245 
L 714.508879 66.782635 
L 716.283594 66.010419 
L 716.638537 65.781614 
L 716.99348 65.695812 
L 717.348423 65.467007 
L 717.703366 65.409806 
L 718.413252 64.952196 
L 720.54291 64.465986 
L 720.897853 64.20858 
L 724.802226 62.864351 
L 725.512112 62.492543 
L 726.931884 61.920531 
L 729.771429 61.119714 
L 731.191201 60.94811 
L 732.25603 60.719305 
L 732.610973 60.662104 
L 733.675802 60.061491 
L 734.030745 60.00429 
L 734.740631 59.689683 
L 735.80546 59.51808 
L 736.515346 59.174872 
L 741.839491 57.087028 
L 742.90432 56.829622 
L 745.033978 56.25761 
L 745.743864 56.229009 
L 747.163636 55.8 
L 747.163636 55.8 
" clip-path="url(#pb17c75499a)" style="fill: none; stroke: #1f77b4; stroke-width: 1.5; stroke-linecap: square"/>
   </g>
   <g id="line2d_32">
    <path d="M 138.791307 307.8 
L 141.985794 307.714198 
L 144.825338 307.571195 
L 146.24511 307.571195 
L 146.954996 307.456793 
L 155.473628 306.85618 
L 158.313173 306.770378 
L 160.087888 306.713177 
L 164.702147 306.627375 
L 166.476862 306.570174 
L 169.671349 306.484372 
L 171.091121 306.455771 
L 174.640551 306.369969 
L 176.060323 306.226966 
L 177.480095 306.198366 
L 179.609754 306.112564 
L 181.029526 306.083963 
L 182.804241 306.026762 
L 184.224013 305.883759 
L 187.4185 305.797957 
L 188.128386 305.740756 
L 189.548158 305.654954 
L 191.677816 305.569152 
L 193.097588 305.48335 
L 199.486562 305.054341 
L 201.971164 304.968539 
L 203.035993 304.854137 
L 204.810708 304.768335 
L 208.360138 304.568131 
L 211.909568 304.51093 
L 213.32934 304.367926 
L 215.104055 304.282125 
L 218.653485 303.910317 
L 220.783143 303.624311 
L 222.202915 303.567109 
L 225.04246 303.195301 
L 227.172118 303.1381 
L 228.236947 303.052298 
L 229.301776 302.966496 
L 247.758813 301.565066 
L 250.243414 301.479265 
L 251.663186 301.307661 
L 253.437901 301.221859 
L 255.567559 301.136057 
L 257.342274 301.050255 
L 258.762046 301.021655 
L 260.536761 300.964454 
L 261.246647 300.878652 
L 266.215849 300.79285 
L 266.925735 300.707048 
L 271.185052 300.621246 
L 274.379539 300.449642 
L 276.86414 300.363841 
L 278.638855 300.163636 
L 280.768513 300.077835 
L 281.478399 299.963432 
L 283.253114 299.906231 
L 286.802544 299.84903 
L 288.222316 299.706027 
L 289.642089 299.677426 
L 290.706918 299.591624 
L 292.12669 299.448621 
L 295.67612 299.248417 
L 299.22555 299.162615 
L 302.420037 298.991011 
L 303.484866 298.962411 
L 304.194752 298.848008 
L 305.969467 298.790807 
L 306.679353 298.733606 
L 308.454068 298.647804 
L 309.87384 298.619203 
L 312.358442 298.533401 
L 321.58696 297.875587 
L 323.716618 297.789785 
L 325.491333 297.732584 
L 330.460535 297.646782 
L 331.170421 297.560981 
L 336.139624 297.475179 
L 339.689054 297.274974 
L 340.39894 297.246374 
L 341.108826 297.160572 
L 342.883541 297.07477 
L 344.658256 297.017569 
L 346.432971 296.931767 
L 348.207686 296.874566 
L 351.402173 296.788764 
L 353.531831 296.702962 
L 358.501034 296.61716 
L 362.405407 296.388355 
L 363.825179 296.331154 
L 364.890008 296.245352 
L 369.85921 296.159551 
L 371.988868 296.073749 
L 378.377843 295.987947 
L 379.797615 295.959346 
L 384.056931 295.902145 
L 384.766817 295.844944 
L 389.736019 295.759142 
L 391.155791 295.730541 
L 400.38431 295.64474 
L 402.513968 295.558938 
L 417.421574 295.473136 
L 419.196289 295.415935 
L 429.489637 295.330133 
L 433.39401 295.101328 
L 435.523668 295.015526 
L 437.653326 294.929724 
L 441.202756 294.843922 
L 443.687358 294.72952 
L 446.526902 294.643718 
L 449.366446 294.500715 
L 456.110363 294.414913 
L 458.240021 294.329111 
L 462.144394 294.243309 
L 464.628995 294.128907 
L 467.113597 294.071706 
L 467.823483 294.014505 
L 476.342115 293.928703 
L 479.891545 293.728498 
L 482.731089 293.642697 
L 483.440975 293.556895 
L 484.150861 293.499694 
L 487.345349 293.413892 
L 489.120064 293.356691 
L 492.669494 293.270889 
L 494.444209 293.070684 
L 497.993639 292.984883 
L 498.703525 292.899081 
L 502.252955 292.813279 
L 504.02767 292.756078 
L 507.932043 292.727477 
L 508.641929 292.641675 
L 512.546303 292.555873 
L 513.256189 292.498672 
L 521.064935 292.41287 
L 523.194593 292.327068 
L 528.518738 292.241267 
L 529.93851 292.212666 
L 533.132998 292.184065 
L 533.842884 292.098264 
L 538.457143 292.012462 
L 540.231858 291.95526 
L 546.620832 291.898059 
L 547.685661 291.812257 
L 548.75049 291.726456 
L 549.815319 291.640654 
L 555.139465 291.554852 
L 557.269123 291.46905 
L 567.56247 291.383248 
L 570.756957 291.211645 
L 575.72616 291.125843 
L 577.145932 291.097242 
L 581.405248 291.01144 
L 583.179963 290.954239 
L 591.343652 290.868437 
L 593.47331 290.782635 
L 599.507342 290.696834 
L 600.927114 290.668233 
L 604.476544 290.582431 
L 606.961145 290.468029 
L 610.865518 290.382227 
L 613.350119 290.267824 
L 616.544606 290.210623 
L 617.254492 290.153422 
L 625.063239 290.06762 
L 627.192897 289.981818 
L 629.677498 289.896016 
L 631.452213 289.838815 
L 641.745561 289.753013 
L 643.875219 289.667211 
L 649.90925 289.58141 
L 651.683965 289.524208 
L 656.298224 289.438407 
L 658.427882 289.352605 
L 661.267426 289.266803 
L 663.397085 289.181001 
L 677.594805 289.095199 
L 680.079406 288.980797 
L 688.598039 288.894995 
L 690.017811 288.866394 
L 698.536443 288.780592 
L 700.311158 288.723391 
L 711.669335 288.637589 
L 713.089107 288.608989 
L 723.737397 288.523187 
L 724.447283 288.465986 
L 733.320859 288.380184 
L 734.740631 288.351583 
L 738.999947 288.265781 
L 740.419719 288.237181 
L 747.163636 288.237181 
L 747.163636 288.237181 
" clip-path="url(#pb17c75499a)" style="fill: none; stroke: #ff7f0e; stroke-width: 1.5; stroke-linecap: square"/>
   </g>
   <g id="patch_3">
    <path d="M 108 320.4 
L 108 43.2 
" style="fill: none; stroke: #a9a9a9; stroke-width: 0.8; stroke-linejoin: miter; stroke-linecap: square"/>
   </g>
   <g id="patch_4">
    <path d="M 777.6 320.4 
L 777.6 43.2 
" style="fill: none"/>
   </g>
   <g id="patch_5">
    <path d="M 108 320.4 
L 777.6 320.4 
" style="fill: none; stroke: #a9a9a9; stroke-width: 0.8; stroke-linejoin: miter; stroke-linecap: square"/>
   </g>
   <g id="patch_6">
    <path d="M 108 43.2 
L 777.6 43.2 
" style="fill: none"/>
   </g>
   <g id="text_16">
    <!-- get_subscribe history -->
    <g style="fill: #a9a9a9" transform="translate(378.6075 37.2) scale(0.12 -0.12)">
     <defs>
      <path id="DejaVuSans-67" d="M 2906 1791 
Q 2906 2416 2648 2759 
Q 2391 3103 1925 3103 
Q 1463 3103 1205 2759 
Q 947 2416 947 1791 
Q 947 1169 1205 825 
Q 1463 481 1925 481 
Q 2391 481 2648 825 
Q 2906 1169 2906 1791 
z
M 3481 434 
Q 3481 -459 3084 -895 
Q 2688 -1331 1869 -1331 
Q 1566 -1331 1297 -1286 
Q 1028 -1241 775 -1147 
L 775 -588 
Q 1028 -725 1275 -790 
Q 1522 -856 1778 -856 
Q 2344 -856 2625 -561 
Q 2906 -266 2906 331 
L 2906 616 
Q 2728 306 2450 153 
Q 2172 0 1784 0 
Q 1141 0 747 490 
Q 353 981 353 1791 
Q 353 2603 747 3093 
Q 1141 3584 1784 3584 
Q 2172 3584 2450 3431 
Q 2728 3278 2906 2969 
L 2906 3500 
L 3481 3500 
L 3481 434 
z
" transform="scale(0.015625)"/>
      <path id="DejaVuSans-65" d="M 3597 1894 
L 3597 1613 
L 953 1613 
Q 991 1019 1311 708 
Q 1631 397 2203 397 
Q 2534 397 2845 478 
Q 3156 559 3463 722 
L 3463 178 
Q 3153 47 2828 -22 
Q 2503 -91 2169 -91 
Q 1331 -91 842 396 
Q 353 884 353 1716 
Q 353 2575 817 3079 
Q 1281 3584 2069 3584 
Q 2775 3584 3186 3129 
Q 3597 2675 3597 1894 
z
M 3022 2063 
Q 3016 2534 2758 2815 
Q 2500 3097 2075 3097 
Q 1594 3097 1305 2825 
Q 1016 2553 972 2059 
L 3022 2063 
z
" transform="scale(0.015625)"/>
      <path id="DejaVuSans-74" d="M 1172 4494 
L 1172 3500 
L 2356 3500 
L 2356 3053 
L 1172 3053 
L 1172 1153 
Q 1172 725 1289 603 
Q 1406 481 1766 481 
L 2356 481 
L 2356 0 
L 1766 0 
Q 1100 0 847 248 
Q 594 497 594 1153 
L 594 3053 
L 172 3053 
L 172 3500 
L 594 3500 
L 594 4494 
L 1172 4494 
z
" transform="scale(0.015625)"/>
      <path id="DejaVuSans-5f" d="M 3263 -1063 
L 3263 -1509 
L -63 -1509 
L -63 -1063 
L 3263 -1063 
z
" transform="scale(0.015625)"/>
      <path id="DejaVuSans-73" d="M 2834 3397 
L 2834 2853 
Q 2591 2978 2328 3040 
Q 2066 3103 1784 3103 
Q 1356 3103 1142 2972 
Q 928 2841 928 2578 
Q 928 2378 1081 2264 
Q 1234 2150 1697 2047 
L 1894 2003 
Q 2506 1872 2764 1633 
Q 3022 1394 3022 966 
Q 3022 478 2636 193 
Q 2250 -91 1575 -91 
Q 1294 -91 989 -36 
Q 684 19 347 128 
L 347 722 
Q 666 556 975 473 
Q 1284 391 1588 391 
Q 1994 391 2212 530 
Q 2431 669 2431 922 
Q 2431 1156 2273 1281 
Q 2116 1406 1581 1522 
L 1381 1569 
Q 847 1681 609 1914 
Q 372 2147 372 2553 
Q 372 3047 722 3315 
Q 1072 3584 1716 3584 
Q 2034 3584 2315 3537 
Q 2597 3491 2834 3397 
z
" transform="scale(0.015625)"/>
      <path id="DejaVuSans-75" d="M 544 1381 
L 544 3500 
L 1119 3500 
L 1119 1403 
Q 1119 906 1312 657 
Q 1506 409 1894 409 
Q 2359 409 2629 706 
Q 2900 1003 2900 1516 
L 2900 3500 
L 3475 3500 
L 3475 0 
L 2900 0 
L 2900 538 
Q 2691 219 2414 64 
Q 2138 -91 1772 -91 
Q 1169 -91 856 284 
Q 544 659 544 1381 
z
M 1991 3584 
L 1991 3584 
z
" transform="scale(0.015625)"/>
      <path id="DejaVuSans-62" d="M 3116 1747 
Q 3116 2381 2855 2742 
Q 2594 3103 2138 3103 
Q 1681 3103 1420 2742 
Q 1159 2381 1159 1747 
Q 1159 1113 1420 752 
Q 1681 391 2138 391 
Q 2594 391 2855 752 
Q 3116 1113 3116 1747 
z
M 1159 2969 
Q 1341 3281 1617 3432 
Q 1894 3584 2278 3584 
Q 2916 3584 3314 3078 
Q 3713 2572 3713 1747 
Q 3713 922 3314 415 
Q 2916 -91 2278 -91 
Q 1894 -91 1617 61 
Q 1341 213 1159 525 
L 1159 0 
L 581 0 
L 581 4863 
L 1159 4863 
L 1159 2969 
z
" transform="scale(0.015625)"/>
      <path id="DejaVuSans-63" d="M 3122 3366 
L 3122 2828 
Q 2878 2963 2633 3030 
Q 2388 3097 2138 3097 
Q 1578 3097 1268 2742 
Q 959 2388 959 1747 
Q 959 1106 1268 751 
Q 1578 397 2138 397 
Q 2388 397 2633 464 
Q 2878 531 3122 666 
L 3122 134 
Q 2881 22 2623 -34 
Q 2366 -91 2075 -91 
Q 1284 -91 818 406 
Q 353 903 353 1747 
Q 353 2603 823 3093 
Q 1294 3584 2113 3584 
Q 2378 3584 2631 3529 
Q 2884 3475 3122 3366 
z
" transform="scale(0.015625)"/>
      <path id="DejaVuSans-72" d="M 2631 2963 
Q 2534 3019 2420 3045 
Q 2306 3072 2169 3072 
Q 1681 3072 1420 2755 
Q 1159 2438 1159 1844 
L 1159 0 
L 581 0 
L 581 3500 
L 1159 3500 
L 1159 2956 
Q 1341 3275 1631 3429 
Q 1922 3584 2338 3584 
Q 2397 3584 2469 3576 
Q 2541 3569 2628 3553 
L 2631 2963 
z
" transform="scale(0.015625)"/>
      <path id="DejaVuSans-69" d="M 603 3500 
L 1178 3500 
L 1178 0 
L 603 0 
L 603 3500 
z
M 603 4863 
L 1178 4863 
L 1178 4134 
L 603 4134 
L 603 4863 
z
" transform="scale(0.015625)"/>
      <path id="DejaVuSans-20" transform="scale(0.015625)"/>
      <path id="DejaVuSans-68" d="M 3513 2113 
L 3513 0 
L 2938 0 
L 2938 2094 
Q 2938 2591 2744 2837 
Q 2550 3084 2163 3084 
Q 1697 3084 1428 2787 
Q 1159 2491 1159 1978 
L 1159 0 
L 581 0 
L 581 4863 
L 1159 4863 
L 1159 2956 
Q 1366 3272 1645 3428 
Q 1925 3584 2291 3584 
Q 2894 3584 3203 3211 
Q 3513 2838 3513 2113 
z
" transform="scale(0.015625)"/>
      <path id="DejaVuSans-6f" d="M 1959 3097 
Q 1497 3097 1228 2736 
Q 959 2375 959 1747 
Q 959 1119 1226 758 
Q 1494 397 1959 397 
Q 2419 397 2687 759 
Q 2956 1122 2956 1747 
Q 2956 2369 2687 2733 
Q 2419 3097 1959 3097 
z
M 1959 3584 
Q 2709 3584 3137 3096 
Q 3566 2609 3566 1747 
Q 3566 888 3137 398 
Q 2709 -91 1959 -91 
Q 1206 -91 779 398 
Q 353 888 353 1747 
Q 353 2609 779 3096 
Q 1206 3584 1959 3584 
z
" transform="scale(0.015625)"/>
      <path id="DejaVuSans-79" d="M 2059 -325 
Q 1816 -950 1584 -1140 
Q 1353 -1331 966 -1331 
L 506 -1331 
L 506 -850 
L 844 -850 
Q 1081 -850 1212 -737 
Q 1344 -625 1503 -206 
L 1606 56 
L 191 3500 
L 800 3500 
L 1894 763 
L 2988 3500 
L 3597 3500 
L 2059 -325 
z
" transform="scale(0.015625)"/>
     </defs>
     <use xlink:href="#DejaVuSans-67"/>
     <use xlink:href="#DejaVuSans-65" transform="translate(63.476562 0)"/>
     <use xlink:href="#DejaVuSans-74" transform="translate(125 0)"/>
     <use xlink:href="#DejaVuSans-5f" transform="translate(164.208984 0)"/>
     <use xlink:href="#DejaVuSans-73" transform="translate(214.208984 0)"/>
     <use xlink:href="#DejaVuSans-75" transform="translate(266.308594 0)"/>
     <use xlink:href="#DejaVuSans-62" transform="translate(329.6875 0)"/>
     <use xlink:href="#DejaVuSans-73" transform="translate(393.164062 0)"/>
     <use xlink:href="#DejaVuSans-63" transform="translate(445.263672 0)"/>
     <use xlink:href="#DejaVuSans-72" transform="translate(500.244141 0)"/>
     <use xlink:href="#DejaVuSans-69" transform="translate(541.357422 0)"/>
     <use xlink:href="#DejaVuSans-62" transform="translate(569.140625 0)"/>
     <use xlink:href="#DejaVuSans-65" transform="translate(632.617188 0)"/>
     <use xlink:href="#DejaVuSans-20" transform="translate(694.140625 0)"/>
     <use xlink:href="#DejaVuSans-68" transform="translate(725.927734 0)"/>
     <use xlink:href="#DejaVuSans-69" transform="translate(789.306641 0)"/>
     <use xlink:href="#DejaVuSans-73" transform="translate(817.089844 0)"/>
     <use xlink:href="#DejaVuSans-74" transform="translate(869.189453 0)"/>
     <use xlink:href="#DejaVuSans-6f" transform="translate(908.398438 0)"/>
     <use xlink:href="#DejaVuSans-72" transform="translate(969.580078 0)"/>
     <use xlink:href="#DejaVuSans-79" transform="translate(1010.693359 0)"/>
    </g>
   </g>
   <g id="legend_1">
    <g id="line2d_33">
     <path d="M 815.08 328.498438 
L 825.08 328.498438 
L 835.08 328.498438 
" style="fill: none; stroke: #1f77b4; stroke-width: 1.5; stroke-linecap: square"/>
    </g>
    <g id="text_17">
     <!-- star -->
     <g style="fill: #a9a9a9" transform="translate(843.08 331.998438) scale(0.1 -0.1)">
      <defs>
       <path id="DejaVuSans-61" d="M 2194 1759 
Q 1497 1759 1228 1600 
Q 959 1441 959 1056 
Q 959 750 1161 570 
Q 1363 391 1709 391 
Q 2188 391 2477 730 
Q 2766 1069 2766 1631 
L 2766 1759 
L 2194 1759 
z
M 3341 1997 
L 3341 0 
L 2766 0 
L 2766 531 
Q 2569 213 2275 61 
Q 1981 -91 1556 -91 
Q 1019 -91 701 211 
Q 384 513 384 1019 
Q 384 1609 779 1909 
Q 1175 2209 1959 2209 
L 2766 2209 
L 2766 2266 
Q 2766 2663 2505 2880 
Q 2244 3097 1772 3097 
Q 1472 3097 1187 3025 
Q 903 2953 641 2809 
L 641 3341 
Q 956 3463 1253 3523 
Q 1550 3584 1831 3584 
Q 2591 3584 2966 3190 
Q 3341 2797 3341 1997 
z
" transform="scale(0.015625)"/>
      </defs>
      <use xlink:href="#DejaVuSans-73"/>
      <use xlink:href="#DejaVuSans-74" transform="translate(52.099609 0)"/>
      <use xlink:href="#DejaVuSans-61" transform="translate(91.308594 0)"/>
      <use xlink:href="#DejaVuSans-72" transform="translate(152.587891 0)"/>
     </g>
    </g>
    <g id="line2d_34">
     <path d="M 815.08 343.176562 
L 825.08 343.176562 
L 835.08 343.176562 
" style="fill: none; stroke: #ff7f0e; stroke-width: 1.5; stroke-linecap: square"/>
    </g>
    <g id="text_18">
     <!-- fork -->
     <g style="fill: #a9a9a9" transform="translate(843.08 346.676562) scale(0.1 -0.1)">
      <defs>
       <path id="DejaVuSans-66" d="M 2375 4863 
L 2375 4384 
L 1825 4384 
Q 1516 4384 1395 4259 
Q 1275 4134 1275 3809 
L 1275 3500 
L 2222 3500 
L 2222 3053 
L 1275 3053 
L 1275 0 
L 697 0 
L 697 3053 
L 147 3053 
L 147 3500 
L 697 3500 
L 697 3744 
Q 697 4328 969 4595 
Q 1241 4863 1831 4863 
L 2375 4863 
z
" transform="scale(0.015625)"/>
       <path id="DejaVuSans-6b" d="M 581 4863 
L 1159 4863 
L 1159 1991 
L 2875 3500 
L 3609 3500 
L 1753 1863 
L 3688 0 
L 2938 0 
L 1159 1709 
L 1159 0 
L 581 0 
L 581 4863 
z
" transform="scale(0.015625)"/>
      </defs>
      <use xlink:href="#DejaVuSans-66"/>
      <use xlink:href="#DejaVuSans-6f" transform="translate(35.205078 0)"/>
      <use xlink:href="#DejaVuSans-72" transform="translate(96.386719 0)"/>
      <use xlink:href="#DejaVuSans-6b" transform="translate(137.5 0)"/>
     </g>
    </g>
   </g>
  </g>
 </g>
 <defs>
  <clipPath id="pb17c75499a">
   <rect x="108" y="43.2" width="669.6" height="277.2"/>
  </clipPath>
 </defs>
</svg>
